<svg xmlns="http://www.w3.org/2000/svg" width="107" height="62" viewBox="0 0 107 62">
    <defs>
        <linearGradient id="a" x1="79.276%" x2="16.684%" y1="64.074%" y2="35.104%">
            <stop offset="0%" stop-color="#0076C3"/>
            <stop offset="85.225%" stop-color="#00C0FA"/>
            <stop offset="100%" stop-color="#00AEEF"/>
        </linearGradient>
    </defs>
    <path fill="url(#a)" fill-rule="evenodd" d="M22.78 20c1.697.199 3.202.817 3.66 2.534.369 1.382-1.06 5.072-1.547 5.698 0 0-1.146 1.994-3.725 2.507-.43.086-.946.293-3.668.257L20.484 20h2.295zm80.669 5.786c-1.344-1.765-3.248-1.61-4.61-1.303-2.03.459-4.686 3.484-4.686 3.484l.884-3.426-5.718-.058-4.647 17.457h5.793s2.38-9.464 3.524-11.221c.888-1.36 1.739-2.462 2.246-2.723 2.933-1.512 2.678.864 2.678.864.151.454.914 1.537 2.41 1.625 2.332.137 3.174-3.323 2.126-4.699zm-29.12 16.703c6.383.353 9.803-3.798 9.803-3.798l-1.75-2.263s-1.367 1.176-2.942 2.13c-1.79 1.085-3.952.395-3.952.395-1.664-.964-1.972-1.77-2.11-2.195-.28-.857.046-1.906.046-1.906 2.515.066 3.813-.193 5.41-.553 2.92-.66 6.815-2.482 6.803-6.566-.002-.725-1.481-5.446-9.705-2.811-.924.296-5.772 1.903-7.808 8.132-1.056 3.235-.119 9.083 6.204 9.435zm-8.54-.484l.849-3.622-9.111.044c2.784-3.865 5.434-5.666 7.678-7.972 1.655-1.698 2.807-2.35 4.11-5.929H54.742l-.785 2.965 8.15-.021S56 33.53 55.46 33.88c-.538.351-4.422 4.458-4.554 8.012l14.884.112zm-36.091-11.83c.93-1.037 3.94-4.836 2.637-9.008-1.302-4.172-8.083-4.567-8.083-4.567l-8.913-.106L8.22 41.786h5.927l2.156-8.257s3.098.089 5.388-.219c5.805-.779 8.006-3.135 8.006-3.135zM86.152 3.263c34.433 12.356 17.742 37.066 3.797 45.529-27.085 16.436-49.276 13.263-59.372 12.355l9.077-33.677h5.749L41.63 41.786h5.658l4.806-17.215-11.407-.045s1.572-6.305 1.752-6.894c.32-1.053 1.92-4.677 3.12-5.467 1.825-1.202 3.435-.682 3.435-.682.45.308.72 1.494.124 2.079-.833.82-.663 2.226-.393 2.929.253.657 1.346 1.646 3.144 1.559 1.614-.08 4.063-1.494 3.232-4.81-.17-.682-1.167-2.327-3.457-3.095-1.336-.45-3.55-.646-5.882-.418-1.348.132-5.618 1.675-7.724 5.445-2.11 3.777-3.952 11.507-3.952 11.507s-8.891 33.376-9.34 33.376c-.449 0-10.741-2.138-17.962-9.31-12.02-11.939-4.965-25.786 5.844-34.251C41.19-5.878 76.7-.128 86.152 3.264zm-5.897 27.175c-2.862 1.861-5.755 1.541-5.755 1.541.098-2.213 1.969-4.844 4.97-5.753 1.65-.5 3.237-.197 3.008 1.16-.229 1.312-1.119 2.332-2.223 3.052z"/>
</svg>
