<?xml version="1.0" encoding="UTF-8"?>
<svg width="248px" height="248px" viewBox="0 0 248 248" version="1.1" xmlns="http://www.w3.org/2000/svg" xmlns:xlink="http://www.w3.org/1999/xlink">
    <!-- Generator: Sketch 52.2 (67145) - http://www.bohemiancoding.com/sketch -->
    <title>Icon / Social / Android</title>
    <desc>Created with Sketch.</desc>
    <defs>
        <path d="M28.908865,12.000754 C28.2303231,12.000754 27.6810273,11.4809955 27.6810273,10.838941 C27.6810273,10.1968864 28.2303231,9.67947983 28.908865,9.67947983 C29.5874068,9.67947983 30.1367026,10.1968864 30.1367026,10.838941 C30.1367026,11.4809955 29.5874068,12.000754 28.908865,12.000754 L28.908865,12.000754 Z M19.091135,12.000754 C18.4125932,12.000754 17.8632974,11.4809955 17.8632974,10.838941 C17.8632974,10.1968864 18.4125932,9.67947983 19.091135,9.67947983 C19.7696769,9.67947983 20.3189727,10.1968864 20.3189727,10.838941 C20.3189727,11.4809955 19.7696769,12.000754 19.091135,12.000754 L19.091135,12.000754 Z M29.6346313,7.3487983 C33.1043911,8.87985145 35.4531897,11.7796802 35.4531897,15.098138 L12.5468103,15.098138 C12.5468103,11.7796802 14.8956089,8.87985145 18.3678542,7.3487983 L17.9080365,6.69498451 L17.4507042,6.05057812 L16.4316487,4.60183965 C16.3073737,4.42309919 16.3595692,4.18321068 16.5459818,4.06561827 C16.7348799,3.94802586 16.988401,3.99506283 17.1151616,4.17380329 L18.2087821,5.72602307 L18.6685998,6.37748501 L19.1333886,7.04070619 C20.6122618,6.49742927 22.2626346,6.19404086 24,6.19404086 C25.7398509,6.19404086 27.3877382,6.49742927 28.8666114,7.04070619 L29.3338857,6.37748501 L30.8898094,4.17380329 C31.011599,3.99506283 31.2676056,3.94567402 31.4540182,4.06561827 C31.6429163,4.18321068 31.6951118,4.42309919 31.5683513,4.60183965 L30.5492958,6.05057812 L30.0919635,6.69498451 L29.6346313,7.3487983 Z M12.7232809,16.6456541 L35.4531897,16.6456541 L35.4531897,33.6777384 C35.4531897,35.0300511 34.2949461,36.1307161 32.8632974,36.1307161 L30.991715,36.1307161 C31.056338,36.3353269 31.0936205,36.549345 31.0936205,36.7751225 L31.0936205,41.6787259 C31.0936205,42.9604831 29.9925435,44 28.6354598,44 C27.2808616,44 26.1822701,42.9604831 26.1822701,41.6787259 L26.1822701,36.7751225 C26.1822701,36.549345 26.2170671,36.3353269 26.2792046,36.1307161 L21.7207954,36.1307161 C21.7829329,36.3353269 21.8202154,36.549345 21.8202154,36.7751225 L21.8202154,41.6787259 C21.8202154,42.9604831 20.7191384,44 19.3645402,44 C18.009942,44 16.908865,42.9604831 16.908865,41.6787259 L16.908865,36.7751225 C16.908865,36.549345 16.943662,36.3353269 17.008285,36.1307161 L15.1391881,36.1307161 C13.7075394,36.1307161 12.5468103,35.0300511 12.5468103,33.6777384 L12.5468103,16.6456541 L12.7232809,16.6456541 Z M8.45567523,16.6456541 C9.81027341,16.6456541 10.908865,17.685171 10.908865,18.9669282 L10.908865,28.9034867 C10.908865,30.1852439 9.81027341,31.2247608 8.45567523,31.2247608 C7.09859155,31.2247608 6,30.1852439 6,28.9034867 L6,18.9669282 C6,17.685171 7.09859155,16.6456541 8.45567523,16.6456541 Z M39.5468103,16.6456541 C40.9014085,16.6456541 42,17.685171 42,18.9669282 L42,28.9034867 C42,30.1852439 40.9014085,31.2247608 39.5468103,31.2247608 C38.1897266,31.2247608 37.091135,30.1852439 37.091135,28.9034867 L37.091135,18.9669282 C37.091135,17.685171 38.1897266,16.6456541 39.5468103,16.6456541 Z" id="path-1"></path>
    </defs>
    <g id="Icons" stroke="none" stroke-width="1" fill="none" fill-rule="evenodd">
        <g transform="translate(-1127.000000, -1770.000000)">
            <rect fill="#FFFFFF" x="0" y="0" width="1378" height="2043"></rect>
            <g transform="translate(100.000000, 62.000000)" id="Icon-/-Social-/-Android">
                <g transform="translate(0.000000, 221.000000)">
                    <g transform="translate(1127.000000, 1587.000000)">
                        <mask id="mask-2" fill="white">
                            <use xlink:href="#path-1"></use>
                        </mask>
                        <use id="↳Color" fill="#0061C3" fill-rule="evenodd" xlink:href="#path-1"></use>
                    </g>
                </g>
            </g>
        </g>
    </g>
</svg>