<?xml version="1.0" encoding="UTF-8" standalone="no"?>
<svg width="64px" height="64px" viewBox="0 0 64 64" version="1.1" xmlns="http://www.w3.org/2000/svg" xmlns:xlink="http://www.w3.org/1999/xlink">
    <!-- Generator: Sketch 3.7.2 (28276) - http://www.bohemiancoding.com/sketch -->
    <title>arr-point</title>
    <desc>Created with Sketch.</desc>
    <defs></defs>
    <g id="64px-Line" stroke="none" stroke-width="1" fill="none" fill-rule="evenodd">
        <g id="arr-point"></g>
        <path d="M10,59 C10,59.553 10.447,60 11,60 C11.553,60 12,59.553 12,59 L12,27.414 L18.293,33.707 C18.488,33.902 18.744,34 19,34 C19.256,34 19.512,33.902 19.707,33.707 C20.098,33.316 20.098,32.684 19.707,32.293 L11.708,24.294 C11.616,24.201 11.505,24.128 11.382,24.077 C11.138,23.976 10.863,23.976 10.618,24.077 C10.495,24.128 10.384,24.202 10.292,24.294 L2.293,32.293 C1.902,32.684 1.902,33.316 2.293,33.707 C2.684,34.098 3.316,34.098 3.707,33.707 L10,27.414 L10,59 L10,59 Z" id="Shape" fill="#000000"></path>
        <path d="M31,60 C31.553,60 32,59.553 32,59 L32,7.414 L38.293,13.707 C38.488,13.902 38.744,14 39,14 C39.256,14 39.512,13.902 39.707,13.707 C40.098,13.316 40.098,12.684 39.707,12.293 L31.708,4.294 C31.616,4.201 31.505,4.128 31.382,4.077 C31.138,3.976 30.863,3.976 30.618,4.077 C30.495,4.128 30.384,4.202 30.292,4.294 L22.293,12.293 C21.902,12.684 21.902,13.316 22.293,13.707 C22.684,14.098 23.316,14.098 23.707,13.707 L30,7.414 L30,59 C30,59.553 30.447,60 31,60 L31,60 Z" id="Shape" fill="#000000"></path>
        <path d="M51.708,24.294 C51.616,24.201 51.505,24.128 51.382,24.077 C51.138,23.976 50.863,23.976 50.618,24.077 C50.495,24.128 50.384,24.202 50.292,24.294 L42.293,32.293 C41.902,32.684 41.902,33.316 42.293,33.707 C42.684,34.098 43.316,34.098 43.707,33.707 L50,27.414 L50,59 C50,59.553 50.447,60 51,60 C51.553,60 52,59.553 52,59 L52,27.414 L58.293,33.707 C58.488,33.902 58.744,34 59,34 C59.256,34 59.512,33.902 59.707,33.707 C60.098,33.316 60.098,32.684 59.707,32.293 L51.708,24.294 L51.708,24.294 Z" id="Shape" fill="#000000"></path>
    </g>
</svg>