<?xml version="1.0" encoding="UTF-8" standalone="no"?>
<svg width="44px" height="44px" viewBox="0 0 44 44" version="1.1" xmlns="http://www.w3.org/2000/svg" xmlns:xlink="http://www.w3.org/1999/xlink">
    <!-- Generator: Sketch 3.7.2 (28276) - http://www.bohemiancoding.com/sketch -->
    <title>arr-shuffle</title>
    <desc>Created with Sketch.</desc>
    <defs></defs>
    <g id="44px-Line" stroke="none" stroke-width="1" fill="none" fill-rule="evenodd">
        <g id="arr-shuffle"></g>
        <path d="M43.706,32.292 L37.707,26.293 C37.316,25.902 36.684,25.902 36.293,26.293 C35.902,26.684 35.902,27.316 36.293,27.707 L40.586,32 L37,32 C30.058,32 26.811,28.466 24.079,24.847 C23.747,24.407 23.12,24.318 22.679,24.651 C22.239,24.984 22.151,25.611 22.484,26.052 C25.385,29.897 29.139,34 37,34 L40.586,34 L36.293,38.293 C35.902,38.684 35.902,39.316 36.293,39.707 C36.488,39.902 36.744,40 37,40 C37.256,40 37.512,39.902 37.707,39.707 L43.706,33.708 C43.799,33.616 43.872,33.505 43.923,33.382 C44.024,33.138 44.024,32.862 43.923,32.618 C43.872,32.495 43.799,32.385 43.706,32.292 L43.706,32.292 Z" id="Shape" fill="#000000"></path>
        <path d="M1,12 L5,12 C11.887,12 15.099,15.455 17.799,18.993 C17.995,19.251 18.293,19.387 18.595,19.387 C18.806,19.387 19.02,19.32 19.2,19.182 C19.639,18.847 19.723,18.22 19.388,17.781 C16.517,14.016 12.8,10 5,10 L1,10 C0.447,10 0,10.448 0,11 C0,11.552 0.447,12 1,12 L1,12 Z" id="Shape" fill="#000000"></path>
        <path d="M1,34 L5,34 C16.512,34 21.695,22.887 21.91,22.414 C21.958,22.31 26.763,12 37,12 L40.586,12 L36.293,16.293 C35.902,16.684 35.902,17.316 36.293,17.707 C36.488,17.902 36.744,18 37,18 C37.256,18 37.512,17.902 37.707,17.707 L43.706,11.708 C43.799,11.616 43.872,11.505 43.923,11.382 C44.024,11.138 44.024,10.862 43.923,10.618 C43.872,10.495 43.799,10.385 43.706,10.292 L37.707,4.293 C37.316,3.902 36.684,3.902 36.293,4.293 C35.902,4.684 35.902,5.316 36.293,5.707 L40.586,10 L37,10 C25.488,10 20.305,21.113 20.09,21.586 C20.042,21.69 15.237,32 5,32 L1,32 C0.447,32 0,32.448 0,33 C0,33.552 0.447,34 1,34 L1,34 Z" id="Shape" fill="#000000"></path>
    </g>
</svg>