<?xml version="1.0" encoding="UTF-8" standalone="no"?>
<svg width="44px" height="44px" viewBox="0 0 44 44" version="1.1" xmlns="http://www.w3.org/2000/svg" xmlns:xlink="http://www.w3.org/1999/xlink">
    <!-- Generator: Sketch 3.7.2 (28276) - http://www.bohemiancoding.com/sketch -->
    <title>arr-split-2</title>
    <desc>Created with Sketch.</desc>
    <defs></defs>
    <g id="44px-Line" stroke="none" stroke-width="1" fill="none" fill-rule="evenodd">
        <g id="arr-split-2"></g>
        <path d="M0.294,23.708 L6.293,29.707 C6.488,29.902 6.744,30 7,30 C7.256,30 7.512,29.902 7.707,29.707 C8.098,29.316 8.098,28.684 7.707,28.293 L3.414,24 L11,24 C15.962,24 20,28.037 20,33 L20,43 C20,43.553 20.448,44 21,44 C21.552,44 22,43.553 22,43 L22,33 C22,28.037 26.038,24 31,24 L38.586,24 L34.293,28.293 C33.902,28.684 33.902,29.316 34.293,29.707 C34.488,29.902 34.744,30 35,30 C35.256,30 35.512,29.902 35.707,29.707 L41.706,23.708 C41.799,23.616 41.872,23.505 41.923,23.382 C42.024,23.138 42.024,22.862 41.923,22.618 C41.872,22.495 41.799,22.385 41.706,22.292 L35.707,16.293 C35.316,15.902 34.684,15.902 34.293,16.293 C33.902,16.684 33.902,17.316 34.293,17.707 L38.586,22 L31,22 C27.28,22 23.992,23.861 22,26.695 L22,5.414 L26.293,9.707 C26.488,9.902 26.744,10 27,10 C27.256,10 27.512,9.902 27.707,9.707 C28.098,9.316 28.098,8.684 27.707,8.293 L21.708,2.294 C21.616,2.201 21.505,2.128 21.382,2.077 C21.138,1.976 20.862,1.976 20.618,2.077 C20.495,2.128 20.384,2.201 20.292,2.294 L14.293,8.293 C13.902,8.684 13.902,9.316 14.293,9.707 C14.684,10.098 15.316,10.098 15.707,9.707 L20,5.414 L20,26.695 C18.008,23.86 14.72,22 11,22 L3.414,22 L7.707,17.707 C8.098,17.316 8.098,16.684 7.707,16.293 C7.316,15.902 6.684,15.902 6.293,16.293 L0.294,22.292 C0.201,22.384 0.128,22.495 0.077,22.618 C-0.024,22.862 -0.024,23.138 0.077,23.382 C0.128,23.505 0.201,23.616 0.294,23.708 L0.294,23.708 Z" id="Shape" fill="#000000"></path>
    </g>
</svg>