<?xml version="1.0" encoding="UTF-8" standalone="no"?>
<svg width="64px" height="64px" viewBox="0 0 64 64" version="1.1" xmlns="http://www.w3.org/2000/svg" xmlns:xlink="http://www.w3.org/1999/xlink">
    <!-- Generator: Sketch 3.7.2 (28276) - http://www.bohemiancoding.com/sketch -->
    <title>arr-4-rotate</title>
    <desc>Created with Sketch.</desc>
    <defs></defs>
    <g id="64px-Line" stroke="none" stroke-width="1" fill="none" fill-rule="evenodd">
        <g id="arr-4-rotate"></g>
        <path d="M10.293,32.707 C10.385,32.799 10.496,32.872 10.618,32.923 C10.74,32.973 10.87,33 11,33 C11.13,33 11.26,32.973 11.382,32.923 C11.504,32.872 11.615,32.799 11.707,32.707 L17.707,26.707 C18.098,26.316 18.098,25.684 17.707,25.293 C17.316,24.902 16.684,24.902 16.293,25.293 L12.181,29.405 C13.168,21.746 18.453,15.298 25.973,12.924 C26.5,12.758 26.792,12.196 26.626,11.67 C26.459,11.143 25.897,10.85 25.372,11.017 C16.912,13.687 11.02,21.043 10.131,29.717 L5.707,25.293 C5.316,24.902 4.684,24.902 4.293,25.293 C3.902,25.684 3.902,26.316 4.293,26.707 L10.293,32.707 L10.293,32.707 Z" id="Shape" fill="#000000"></path>
        <path d="M38.325,53.031 C38.425,53.031 38.526,53.016 38.626,52.984 C47.087,50.314 52.98,42.958 53.869,34.284 L58.293,38.708 C58.488,38.903 58.744,39.001 59,39.001 C59.256,39.001 59.512,38.903 59.707,38.708 C60.098,38.317 60.098,37.685 59.707,37.294 L53.707,31.294 C53.615,31.202 53.504,31.129 53.382,31.078 C53.138,30.977 52.862,30.977 52.618,31.078 C52.496,31.129 52.385,31.202 52.293,31.294 L46.293,37.294 C45.902,37.685 45.902,38.317 46.293,38.708 C46.684,39.099 47.316,39.099 47.707,38.708 L51.819,34.596 C50.832,42.255 45.547,48.704 38.025,51.077 C37.498,51.243 37.206,51.805 37.372,52.331 C37.506,52.758 37.9,53.031 38.325,53.031 L38.325,53.031 Z" id="Shape" fill="#000000"></path>
        <path d="M25.293,59.707 C25.488,59.902 25.744,60 26,60 C26.256,60 26.512,59.902 26.707,59.707 L32.707,53.707 C32.799,53.615 32.872,53.504 32.923,53.382 C33.024,53.137 33.024,52.862 32.923,52.618 C32.872,52.496 32.799,52.385 32.707,52.293 L26.707,46.293 C26.316,45.902 25.684,45.902 25.293,46.293 C24.902,46.684 24.902,47.316 25.293,47.707 L29.405,51.819 C21.748,50.832 15.299,45.548 12.925,38.029 C12.758,37.503 12.194,37.212 11.67,37.377 C11.144,37.544 10.851,38.105 11.018,38.632 C13.689,47.09 21.045,52.981 29.717,53.871 L25.293,58.295 C24.902,58.684 24.902,59.316 25.293,59.707 L25.293,59.707 Z" id="Shape" fill="#000000"></path>
        <path d="M38,18 C38.256,18 38.512,17.902 38.707,17.707 C39.098,17.316 39.098,16.684 38.707,16.293 L34.596,12.182 C42.217,13.166 48.654,18.418 51.049,25.888 C51.185,26.313 51.578,26.583 52.001,26.583 C52.102,26.583 52.205,26.567 52.306,26.535 C52.832,26.367 53.122,25.804 52.953,25.278 C50.259,16.874 42.915,11.019 34.283,10.132 L38.707,5.708 C39.098,5.317 39.098,4.685 38.707,4.294 C38.316,3.903 37.684,3.903 37.293,4.294 L31.293,10.294 C31.201,10.386 31.128,10.497 31.077,10.619 C30.976,10.864 30.976,11.139 31.077,11.383 C31.128,11.505 31.201,11.616 31.293,11.708 L37.293,17.708 C37.488,17.902 37.744,18 38,18 L38,18 Z" id="Shape" fill="#000000"></path>
    </g>
</svg>