<?xml version="1.0" encoding="UTF-8" standalone="no"?>
<svg width="64px" height="64px" viewBox="0 0 64 64" version="1.1" xmlns="http://www.w3.org/2000/svg" xmlns:xlink="http://www.w3.org/1999/xlink">
    <!-- Generator: Sketch 3.7.2 (28276) - http://www.bohemiancoding.com/sketch -->
    <title>arr-bend</title>
    <desc>Created with Sketch.</desc>
    <defs></defs>
    <g id="64px-Line" stroke="none" stroke-width="1" fill="none" fill-rule="evenodd">
        <g id="arr-bend"></g>
        <path d="M25,54 L9,54 C8.448,54 8,54.448 8,55 C8,55.552 8.448,56 9,56 L25,56 C36.58,56 46,46.58 46,35 L46,11.414 L54.293,19.707 C54.488,19.902 54.744,20 55,20 C55.256,20 55.512,19.902 55.707,19.707 C56.098,19.316 56.098,18.684 55.707,18.293 L45.707,8.293 C45.615,8.201 45.504,8.128 45.382,8.077 C45.138,7.976 44.862,7.976 44.618,8.077 C44.496,8.128 44.385,8.201 44.293,8.293 L34.293,18.293 C33.902,18.684 33.902,19.316 34.293,19.707 C34.684,20.098 35.316,20.098 35.707,19.707 L44,11.414 L44,35 C44,45.477 35.477,54 25,54 L25,54 Z" id="Shape" fill="#000000"></path>
    </g>
</svg>