<?xml version="1.0" encoding="UTF-8" standalone="no"?>
<svg width="64px" height="64px" viewBox="0 0 64 64" version="1.1" xmlns="http://www.w3.org/2000/svg" xmlns:xlink="http://www.w3.org/1999/xlink">
    <!-- Generator: Sketch 3.7.2 (28276) - http://www.bohemiancoding.com/sketch -->
    <title>arr-diverge-3</title>
    <desc>Created with Sketch.</desc>
    <defs></defs>
    <g id="64px-Line" stroke="none" stroke-width="1" fill="none" fill-rule="evenodd">
        <g id="arr-diverge-3"></g>
        <path d="M59.923,20.618 C59.872,20.495 59.799,20.385 59.706,20.292 L49.707,10.293 C49.316,9.902 48.684,9.902 48.293,10.293 C47.902,10.684 47.902,11.316 48.293,11.707 L56.586,20 L46,20 C38.28,20 32,26.28 32,34 L32,53 C32,53.553 32.448,54 33,54 C33.552,54 34,53.553 34,53 L34,34 C34,27.383 39.383,22 46,22 L56.586,22 L48.293,30.293 C47.902,30.684 47.902,31.316 48.293,31.707 C48.488,31.902 48.744,32 49,32 C49.256,32 49.512,31.902 49.707,31.707 L59.706,21.708 C59.799,21.616 59.872,21.505 59.923,21.382 C60.024,21.138 60.024,20.862 59.923,20.618 L59.923,20.618 Z" id="Shape" fill="#000000"></path>
        <path d="M2.294,21.708 L12.293,31.707 C12.488,31.902 12.744,32 13,32 C13.256,32 13.512,31.902 13.707,31.707 C14.098,31.316 14.098,30.684 13.707,30.293 L5.414,22 L16,22 C22.617,22 28,27.383 28,34 L28,53 C28,53.553 28.448,54 29,54 C29.552,54 30,53.553 30,53 L30,34 C30,26.28 23.72,20 16,20 L5.414,20 L13.707,11.707 C14.098,11.316 14.098,10.684 13.707,10.293 C13.316,9.902 12.684,9.902 12.293,10.293 L2.294,20.292 C2.201,20.384 2.128,20.495 2.077,20.618 C1.976,20.862 1.976,21.138 2.077,21.382 C2.128,21.505 2.201,21.616 2.294,21.708 L2.294,21.708 Z" id="Shape" fill="#000000"></path>
    </g>
</svg>