<?xml version="1.0" encoding="UTF-8" standalone="no"?>
<svg width="44px" height="44px" viewBox="0 0 44 44" version="1.1" xmlns="http://www.w3.org/2000/svg" xmlns:xlink="http://www.w3.org/1999/xlink">
    <!-- Generator: Sketch 3.7.2 (28276) - http://www.bohemiancoding.com/sketch -->
    <title>arr-repeat</title>
    <desc>Created with Sketch.</desc>
    <defs></defs>
    <g id="44px-Line" stroke="none" stroke-width="1" fill="none" fill-rule="evenodd">
        <g id="arr-repeat"></g>
        <path d="M43.707,8.293 L37.707,2.293 C37.316,1.902 36.684,1.902 36.293,2.293 C35.902,2.684 35.902,3.316 36.293,3.707 L40.586,8 L12,8 C5.383,8 0,13.383 0,20 L0,21 C0,21.552 0.448,22 1,22 C1.552,22 2,21.552 2,21 L2,20 C2,14.486 6.486,10 12,10 L40.586,10 L36.293,14.293 C35.902,14.684 35.902,15.316 36.293,15.707 C36.488,15.902 36.744,16 37,16 C37.256,16 37.512,15.902 37.707,15.707 L43.707,9.707 C43.799,9.615 43.872,9.504 43.923,9.382 C44.024,9.137 44.024,8.862 43.923,8.618 C43.872,8.495 43.799,8.385 43.707,8.293 L43.707,8.293 Z" id="Shape" fill="#000000"></path>
        <path d="M43,22 C42.448,22 42,22.448 42,23 L42,24 C42,29.514 37.514,34 32,34 L3.414,34 L7.707,29.707 C8.098,29.316 8.098,28.684 7.707,28.293 C7.316,27.902 6.684,27.902 6.293,28.293 L0.293,34.293 C0.201,34.385 0.128,34.496 0.077,34.618 C-0.024,34.863 -0.024,35.138 0.077,35.382 C0.128,35.504 0.201,35.615 0.293,35.707 L6.293,41.707 C6.488,41.902 6.744,42 7,42 C7.256,42 7.512,41.902 7.707,41.707 C8.098,41.316 8.098,40.684 7.707,40.293 L3.414,36 L32,36 C38.617,36 44,30.617 44,24 L44,23 C44,22.448 43.552,22 43,22 L43,22 Z" id="Shape" fill="#000000"></path>
    </g>
</svg>