<?xml version="1.0" encoding="UTF-8" standalone="no"?>
<svg width="64px" height="64px" viewBox="0 0 64 64" version="1.1" xmlns="http://www.w3.org/2000/svg" xmlns:xlink="http://www.w3.org/1999/xlink">
    <!-- Generator: Sketch 3.7.2 (28276) - http://www.bohemiancoding.com/sketch -->
    <title>arr-converge-2</title>
    <desc>Created with Sketch.</desc>
    <defs></defs>
    <g id="64px-Line" stroke="none" stroke-width="1" fill="none" fill-rule="evenodd">
        <g id="arr-converge-2"></g>
        <path d="M6,57 C6,57.553 6.448,58 7,58 C7.552,58 8,57.553 8,57 L8,43 C8,40.243 10.243,38 13,38 L25,38 C26.958,38 28.728,37.19 30,35.889 L30,57 C30,57.553 30.448,58 31,58 C31.552,58 32,57.553 32,57 L32,35.889 C33.272,37.189 35.042,38 37,38 L49,38 C51.757,38 54,40.243 54,43 L54,57 C54,57.553 54.448,58 55,58 C55.552,58 56,57.553 56,57 L56,43 C56,39.141 52.86,36 49,36 L37,36 C34.243,36 32,33.757 32,31 L32,9.414 L40.293,17.707 C40.488,17.902 40.744,18 41,18 C41.256,18 41.512,17.902 41.707,17.707 C42.098,17.316 42.098,16.684 41.707,16.293 L31.708,6.294 C31.616,6.201 31.505,6.128 31.382,6.077 C31.138,5.976 30.862,5.976 30.618,6.077 C30.495,6.128 30.384,6.201 30.292,6.294 L20.293,16.293 C19.902,16.684 19.902,17.316 20.293,17.707 C20.684,18.098 21.316,18.098 21.707,17.707 L30,9.414 L30,31 C30,33.757 27.757,36 25,36 L13,36 C9.14,36 6,39.141 6,43 L6,57 L6,57 Z" id="Shape" fill="#000000"></path>
    </g>
</svg>