<?xml version="1.0" encoding="UTF-8" standalone="no"?>
<svg width="64px" height="64px" viewBox="0 0 64 64" version="1.1" xmlns="http://www.w3.org/2000/svg" xmlns:xlink="http://www.w3.org/1999/xlink">
    <!-- Generator: Sketch 3.7.2 (28276) - http://www.bohemiancoding.com/sketch -->
    <title>arr-out</title>
    <desc>Created with Sketch.</desc>
    <defs></defs>
    <g id="64px-Line" stroke="none" stroke-width="1" fill="none" fill-rule="evenodd">
        <g id="arr-out"></g>
        <path d="M20,7 C20,6.448 19.552,6 19,6 L7,6 C6.87,6 6.74,6.027 6.618,6.077 C6.373,6.178 6.179,6.373 6.077,6.618 C6.027,6.74 6,6.87 6,7 L6,19 C6,19.552 6.448,20 7,20 C7.552,20 8,19.552 8,19 L8,9.414 L22.293,23.707 C22.488,23.902 22.744,24 23,24 C23.256,24 23.512,23.902 23.707,23.707 C24.098,23.316 24.098,22.684 23.707,22.293 L9.414,8 L19,8 C19.552,8 20,7.552 20,7 L20,7 Z" id="Shape" fill="#000000"></path>
        <path d="M40.293,23.707 C40.488,23.902 40.744,24 41,24 C41.256,24 41.512,23.902 41.707,23.707 L56,9.414 L56,19 C56,19.552 56.448,20 57,20 C57.552,20 58,19.552 58,19 L58,7 C58,6.87 57.973,6.74 57.923,6.618 C57.822,6.374 57.627,6.179 57.382,6.077 C57.26,6.027 57.13,6 57,6 L45,6 C44.448,6 44,6.448 44,7 C44,7.552 44.448,8 45,8 L54.586,8 L40.293,22.293 C39.902,22.684 39.902,23.316 40.293,23.707 L40.293,23.707 Z" id="Shape" fill="#000000"></path>
        <path d="M6,57 C6,57.13 6.027,57.26 6.077,57.382 C6.178,57.626 6.373,57.821 6.618,57.923 C6.74,57.973 6.87,58 7,58 L19,58 C19.552,58 20,57.552 20,57 C20,56.448 19.552,56 19,56 L9.414,56 L23.707,41.707 C24.098,41.316 24.098,40.684 23.707,40.293 C23.316,39.902 22.684,39.902 22.293,40.293 L8,54.586 L8,45 C8,44.448 7.552,44 7,44 C6.448,44 6,44.448 6,45 L6,57 L6,57 Z" id="Shape" fill="#000000"></path>
        <path d="M40.293,41.707 L54.586,56 L45,56 C44.448,56 44,56.448 44,57 C44,57.552 44.448,58 45,58 L57,58 C57.13,58 57.26,57.973 57.382,57.923 C57.627,57.822 57.821,57.627 57.923,57.382 C57.973,57.26 58,57.13 58,57 L58,45 C58,44.448 57.552,44 57,44 C56.448,44 56,44.448 56,45 L56,54.586 L41.707,40.293 C41.316,39.902 40.684,39.902 40.293,40.293 C39.902,40.684 39.902,41.316 40.293,41.707 L40.293,41.707 Z" id="Shape" fill="#000000"></path>
        <path d="M32,28 C29.794,28 28,29.794 28,32 C28,34.206 29.794,36 32,36 C34.206,36 36,34.206 36,32 C36,29.794 34.206,28 32,28 L32,28 Z M32,34 C30.897,34 30,33.103 30,32 C30,30.897 30.897,30 32,30 C33.103,30 34,30.897 34,32 C34,33.103 33.103,34 32,34 L32,34 Z" id="Shape" fill="#000000"></path>
    </g>
</svg>