<?xml version="1.0" encoding="UTF-8" standalone="no"?>
<svg width="44px" height="44px" viewBox="0 0 44 44" version="1.1" xmlns="http://www.w3.org/2000/svg" xmlns:xlink="http://www.w3.org/1999/xlink">
    <!-- Generator: Sketch 3.7.2 (28276) - http://www.bohemiancoding.com/sketch -->
    <title>arr-stagger</title>
    <desc>Created with Sketch.</desc>
    <defs></defs>
    <g id="44px-Line" stroke="none" stroke-width="1" fill="none" fill-rule="evenodd">
        <g id="arr-stagger"></g>
        <path d="M7.708,24.294 C7.616,24.201 7.505,24.128 7.382,24.077 C7.138,23.976 6.863,23.976 6.618,24.077 C6.495,24.128 6.384,24.202 6.292,24.294 L0.293,30.293 C-0.098,30.684 -0.098,31.316 0.293,31.707 C0.684,32.098 1.316,32.098 1.707,31.707 L6,27.414 L6,43 C6,43.553 6.447,44 7,44 C7.553,44 8,43.553 8,43 L8,27.414 L12.293,31.707 C12.488,31.902 12.744,32 13,32 C13.256,32 13.512,31.902 13.707,31.707 C14.098,31.316 14.098,30.684 13.707,30.293 L7.708,24.294 L7.708,24.294 Z" id="Shape" fill="#000000"></path>
        <path d="M21,44 C21.553,44 22,43.553 22,43 L22,15.414 L26.293,19.707 C26.488,19.902 26.744,20 27,20 C27.256,20 27.512,19.902 27.707,19.707 C28.098,19.316 28.098,18.684 27.707,18.293 L21.708,12.294 C21.616,12.201 21.505,12.128 21.382,12.077 C21.138,11.976 20.863,11.976 20.618,12.077 C20.495,12.128 20.384,12.202 20.292,12.294 L14.293,18.293 C13.902,18.684 13.902,19.316 14.293,19.707 C14.684,20.098 15.316,20.098 15.707,19.707 L20,15.414 L20,43 C20,43.553 20.447,44 21,44 L21,44 Z" id="Shape" fill="#000000"></path>
        <path d="M35,44 C35.553,44 36,43.553 36,43 L36,3.414 L40.293,7.707 C40.488,7.902 40.744,8 41,8 C41.256,8 41.512,7.902 41.707,7.707 C42.098,7.316 42.098,6.684 41.707,6.293 L35.708,0.294 C35.616,0.201 35.505,0.128 35.382,0.077 C35.138,-0.024 34.863,-0.024 34.618,0.077 C34.495,0.128 34.384,0.202 34.292,0.294 L28.293,6.293 C27.902,6.684 27.902,7.316 28.293,7.707 C28.684,8.098 29.316,8.098 29.707,7.707 L34,3.414 L34,43 C34,43.553 34.447,44 35,44 L35,44 Z" id="Shape" fill="#000000"></path>
    </g>
</svg>