<?xml version="1.0" encoding="UTF-8" standalone="no"?>
<svg width="44px" height="44px" viewBox="0 0 44 44" version="1.1" xmlns="http://www.w3.org/2000/svg" xmlns:xlink="http://www.w3.org/1999/xlink">
    <!-- Generator: Sketch 3.7.2 (28276) - http://www.bohemiancoding.com/sketch -->
    <title>arr-reverse-arrow</title>
    <desc>Created with Sketch.</desc>
    <defs></defs>
    <g id="44px-Line" stroke="none" stroke-width="1" fill="none" fill-rule="evenodd">
        <g id="arr-reverse-arrow"></g>
        <path d="M11.707,30.293 C11.316,29.902 10.684,29.902 10.293,30.293 L4.293,36.293 C4.201,36.385 4.128,36.496 4.077,36.618 C3.976,36.863 3.976,37.138 4.077,37.382 C4.128,37.504 4.201,37.615 4.293,37.707 L10.293,43.707 C10.488,43.902 10.744,44 11,44 C11.256,44 11.512,43.902 11.707,43.707 C12.098,43.316 12.098,42.684 11.707,42.293 L7.414,38 L21,38 C31.477,38 40,29.477 40,19 C40,8.523 31.477,0 21,0 L5,0 C4.448,0 4,0.448 4,1 C4,1.552 4.448,2 5,2 L21,2 C30.374,2 38,9.626 38,19 C38,28.374 30.374,36 21,36 L7.414,36 L11.707,31.707 C12.098,31.316 12.098,30.684 11.707,30.293 L11.707,30.293 Z" id="Shape" fill="#000000"></path>
    </g>
</svg>