<?xml version="1.0" encoding="UTF-8" standalone="no"?>
<svg width="44px" height="44px" viewBox="0 0 44 44" version="1.1" xmlns="http://www.w3.org/2000/svg" xmlns:xlink="http://www.w3.org/1999/xlink">
    <!-- Generator: Sketch 3.7.2 (28276) - http://www.bohemiancoding.com/sketch -->
    <title>arr-turn-in</title>
    <desc>Created with Sketch.</desc>
    <defs></defs>
    <g id="44px-Line" stroke="none" stroke-width="1" fill="none" fill-rule="evenodd">
        <g id="arr-turn-in"></g>
        <path d="M12,43 C12,43.553 12.448,44 13,44 C13.552,44 14,43.553 14,43 L14,23.305 C15.992,26.14 19.28,28 23,28 L37,28 C37.552,28 38,27.553 38,27 C38,26.447 37.552,26 37,26 L23,26 C18.038,26 14,21.963 14,17 L14,3.414 L20.293,9.707 C20.488,9.902 20.744,10 21,10 C21.256,10 21.512,9.902 21.707,9.707 C22.098,9.316 22.098,8.684 21.707,8.293 L13.708,0.294 C13.616,0.201 13.505,0.128 13.382,0.077 C13.138,-0.024 12.862,-0.024 12.618,0.077 C12.495,0.128 12.384,0.201 12.292,0.294 L4.293,8.293 C3.902,8.684 3.902,9.316 4.293,9.707 C4.684,10.098 5.316,10.098 5.707,9.707 L12,3.414 L12,43 L12,43 Z" id="Shape" fill="#000000"></path>
    </g>
</svg>