<?xml version="1.0" encoding="UTF-8" standalone="no"?>
<svg width="64px" height="64px" viewBox="0 0 64 64" version="1.1" xmlns="http://www.w3.org/2000/svg" xmlns:xlink="http://www.w3.org/1999/xlink">
    <!-- Generator: Sketch 3.7.2 (28276) - http://www.bohemiancoding.com/sketch -->
    <title>arr-axis-angle-rotate</title>
    <desc>Created with Sketch.</desc>
    <defs></defs>
    <g id="64px-Line" stroke="none" stroke-width="1" fill="none" fill-rule="evenodd">
        <g id="arr-axis-angle-rotate"></g>
        <path d="M29,26 L23.342,26 C23.659,25.673 23.962,25.339 24.283,25.018 L24.473,24.83 C24.866,24.442 24.87,23.809 24.484,23.415 C24.095,23.022 23.464,23.017 23.069,23.404 L22.869,23.604 C22.577,23.897 22.289,24.195 22,24.492 L22,19 C22,18.447 21.553,18 21,18 C20.447,18 20,18.447 20,19 L20,27 C20,27.007 20.004,27.013 20.004,27.02 C20.005,27.097 20.03,27.169 20.049,27.244 C20.063,27.297 20.065,27.353 20.087,27.402 C20.106,27.444 20.14,27.478 20.165,27.517 C20.21,27.589 20.252,27.662 20.313,27.721 C20.318,27.725 20.319,27.731 20.324,27.736 C20.366,27.774 20.417,27.792 20.463,27.822 C20.518,27.858 20.568,27.901 20.631,27.926 C20.733,27.967 20.84,27.984 20.947,27.99 C20.965,27.99 20.981,28 21,28 L29,28 C29.553,28 30,27.553 30,27 C30,26.447 29.553,26 29,26 L29,26 Z" id="Shape" fill="#000000"></path>
        <path d="M47.751,32.003 C48.234,31.367 48.705,30.732 49.15,30.103 C49.469,29.653 49.362,29.029 48.911,28.709 C48.461,28.391 47.837,28.498 47.517,28.948 C47.185,29.417 46.838,29.89 46.483,30.364 C44.649,28.084 42.605,25.81 40.397,23.602 C27.85,11.055 14.333,4.913 9.624,9.622 C7.238,12.008 7.489,16.723 10.332,22.898 C13.06,28.824 17.772,35.298 23.604,41.128 C23.901,41.425 24.21,41.705 24.512,41.998 L19,41.998 C18.447,41.998 18,42.445 18,42.998 C18,43.551 18.447,43.998 19,43.998 L27,43.998 C27.008,43.998 27.015,43.994 27.022,43.993 C27.092,43.991 27.158,43.968 27.226,43.952 C27.285,43.938 27.348,43.934 27.403,43.91 C27.445,43.892 27.478,43.857 27.518,43.833 C27.589,43.788 27.662,43.747 27.72,43.687 C27.725,43.682 27.732,43.68 27.737,43.674 C27.771,43.637 27.785,43.59 27.813,43.549 C27.855,43.487 27.9,43.43 27.927,43.36 C27.955,43.289 27.961,43.214 27.971,43.14 C27.979,43.093 28,43.05 28,43 L28,35 C28,34.447 27.553,34 27,34 C26.447,34 26,34.447 26,35 L26,40.678 C25.671,40.359 25.341,40.04 25.018,39.716 C19.432,34.13 14.741,27.696 12.148,22.064 C9.752,16.86 9.337,12.738 11.038,11.038 C13.591,8.488 21.107,10.632 30.045,17.257 C29.206,17.912 28.365,18.588 27.539,19.292 C27.119,19.65 27.068,20.281 27.426,20.702 C27.624,20.934 27.905,21.054 28.188,21.054 C28.417,21.054 28.648,20.976 28.836,20.816 C29.775,20.016 30.732,19.246 31.685,18.514 C34.058,20.383 36.509,22.545 38.983,25.019 C41.267,27.303 43.357,29.655 45.223,32.005 C45.197,32.038 45.173,32.07 45.147,32.103 C44.803,32.536 44.875,33.165 45.306,33.508 C45.491,33.654 45.71,33.726 45.928,33.726 C46.108,33.726 46.278,33.662 46.435,33.568 C48.683,36.566 50.532,39.532 51.858,42.317 C54.267,47.377 54.67,51.257 52.963,52.964 C50.724,55.202 44.662,53.718 37.519,49.176 C37.054,48.88 36.436,49.018 36.139,49.484 C35.842,49.95 35.98,50.568 36.446,50.864 C41.8,54.268 46.412,56.014 49.839,56.014 C51.744,56.014 53.283,55.474 54.378,54.378 C56.754,52.002 56.501,47.413 53.664,41.457 C52.229,38.444 50.205,35.233 47.751,32.003 L47.751,32.003 Z" id="Shape" fill="#000000"></path>
        <path d="M44.923,8.844 C44.396,9.008 44.101,9.569 44.265,10.096 C44.399,10.525 44.793,10.799 45.22,10.799 C45.318,10.799 45.418,10.784 45.517,10.754 C46.871,10.333 48.108,10.086 49.195,10.019 C49.746,9.985 50.166,9.511 50.132,8.959 C50.099,8.408 49.624,8.004 49.072,8.022 C47.825,8.1 46.43,8.376 44.923,8.844 L44.923,8.844 Z" id="Shape" fill="#000000"></path>
        <path d="M53.863,10.357 C53.38,10.624 53.204,11.232 53.471,11.715 C53.821,12.349 53.998,13.165 53.999,14.143 C53.999,14.428 53.984,14.723 53.954,15.028 C53.9,15.578 54.302,16.067 54.851,16.121 C54.884,16.124 54.917,16.126 54.95,16.126 C55.459,16.126 55.893,15.74 55.944,15.224 C55.98,14.853 55.999,14.492 55.999,14.143 C55.998,12.823 55.736,11.681 55.221,10.749 C54.954,10.267 54.349,10.09 53.863,10.357 L53.863,10.357 Z" id="Shape" fill="#000000"></path>
        <path d="M52.401,20.483 C51.925,21.592 51.344,22.767 50.672,23.974 C50.403,24.457 50.577,25.066 51.06,25.334 C51.214,25.42 51.381,25.46 51.545,25.46 C51.897,25.46 52.237,25.274 52.42,24.946 C53.125,23.678 53.736,22.441 54.238,21.269 C54.456,20.761 54.22,20.173 53.713,19.957 C53.209,19.738 52.619,19.974 52.401,20.483 L52.401,20.483 Z" id="Shape" fill="#000000"></path>
        <path d="M10,49.856 C10,49.3 10.059,48.687 10.174,48.033 C10.271,47.489 9.907,46.971 9.363,46.875 C8.819,46.773 8.301,47.142 8.205,47.686 C8.069,48.455 8,49.185 8,49.856 C7.999,50.674 8.101,51.432 8.303,52.109 C8.432,52.543 8.83,52.823 9.261,52.823 C9.356,52.823 9.451,52.809 9.547,52.781 C10.076,52.623 10.377,52.066 10.219,51.537 C10.073,51.047 9.999,50.482 10,49.856 L10,49.856 Z" id="Shape" fill="#000000"></path>
        <path d="M39.24,11.245 C38.091,11.843 36.9,12.525 35.702,13.273 C35.233,13.566 35.091,14.183 35.383,14.651 C35.573,14.955 35.899,15.122 36.233,15.122 C36.414,15.122 36.597,15.073 36.761,14.971 C37.915,14.25 39.06,13.594 40.162,13.021 C40.652,12.766 40.843,12.162 40.589,11.672 C40.334,11.182 39.73,10.992 39.24,11.245 L39.24,11.245 Z" id="Shape" fill="#000000"></path>
        <path d="M39.932,40.857 L40.398,40.396 C41.208,39.584 41.993,38.769 42.751,37.95 C43.126,37.545 43.102,36.912 42.695,36.537 C42.29,36.162 41.657,36.184 41.282,36.593 C40.542,37.393 39.774,38.191 38.983,38.983 L38.532,39.43 C38.137,39.817 38.132,40.45 38.518,40.844 C38.713,41.043 38.973,41.144 39.232,41.144 C39.484,41.144 39.737,41.049 39.932,40.857 L39.932,40.857 Z" id="Shape" fill="#000000"></path>
        <path d="M17.512,53.468 C16.26,53.822 15.126,54 14.145,54 L13.869,53.995 L13.839,53.995 C13.301,53.995 12.857,54.424 12.84,54.966 C12.824,55.518 13.259,55.979 13.811,55.995 L14.146,56 C15.311,56 16.626,55.796 18.056,55.394 C18.587,55.244 18.897,54.692 18.747,54.16 C18.596,53.629 18.045,53.32 17.512,53.468 L17.512,53.468 Z" id="Shape" fill="#000000"></path>
        <path d="M26.26,49.315 C25.102,50.043 23.96,50.701 22.864,51.269 C22.374,51.524 22.183,52.127 22.437,52.618 C22.616,52.961 22.964,53.157 23.326,53.157 C23.481,53.157 23.638,53.121 23.786,53.045 C24.93,52.45 26.12,51.766 27.324,51.009 C27.792,50.715 27.932,50.098 27.638,49.63 C27.345,49.163 26.727,49.021 26.26,49.315 L26.26,49.315 Z" id="Shape" fill="#000000"></path>
        <path d="M13.468,37.788 C12.989,37.507 12.377,37.668 12.1,38.144 C11.376,39.377 10.734,40.596 10.191,41.766 C9.959,42.267 10.176,42.862 10.677,43.094 C10.813,43.157 10.956,43.187 11.097,43.187 C11.475,43.187 11.835,42.973 12.005,42.608 C12.522,41.496 13.134,40.335 13.824,39.156 C14.104,38.68 13.944,38.067 13.468,37.788 L13.468,37.788 Z" id="Shape" fill="#000000"></path>
        <path d="M34.164,43.442 C33.158,44.301 32.127,45.138 31.098,45.93 C30.66,46.267 30.578,46.895 30.914,47.332 C31.111,47.589 31.408,47.723 31.708,47.723 C31.921,47.723 32.135,47.656 32.316,47.516 C33.373,46.703 34.431,45.844 35.462,44.963 C35.882,44.604 35.932,43.973 35.573,43.553 C35.214,43.134 34.583,43.086 34.164,43.442 L34.164,43.442 Z" id="Shape" fill="#000000"></path>
    </g>
</svg>