<?xml version="1.0" encoding="UTF-8" standalone="no"?>
<svg width="64px" height="64px" viewBox="0 0 64 64" version="1.1" xmlns="http://www.w3.org/2000/svg" xmlns:xlink="http://www.w3.org/1999/xlink">
    <!-- Generator: Sketch 3.7.2 (28276) - http://www.bohemiancoding.com/sketch -->
    <title>arr-cross</title>
    <desc>Created with Sketch.</desc>
    <defs></defs>
    <g id="64px-Line" stroke="none" stroke-width="1" fill="none" fill-rule="evenodd">
        <g id="arr-cross"></g>
        <path d="M57.707,32.293 L51.707,26.293 C51.316,25.902 50.684,25.902 50.293,26.293 C49.902,26.684 49.902,27.316 50.293,27.707 L54.586,32 L32,32 L32,9.414 L36.293,13.707 C36.488,13.902 36.744,14 37,14 C37.256,14 37.512,13.902 37.707,13.707 C38.098,13.316 38.098,12.684 37.707,12.293 L31.707,6.293 C31.615,6.201 31.504,6.128 31.382,6.077 C31.138,5.976 30.862,5.976 30.618,6.077 C30.496,6.128 30.385,6.201 30.293,6.293 L24.293,12.293 C23.902,12.684 23.902,13.316 24.293,13.707 C24.684,14.098 25.316,14.098 25.707,13.707 L30,9.414 L30,32 L7.414,32 L11.707,27.707 C12.098,27.316 12.098,26.684 11.707,26.293 C11.316,25.902 10.684,25.902 10.293,26.293 L4.293,32.293 C4.201,32.385 4.128,32.496 4.077,32.618 C3.976,32.863 3.976,33.138 4.077,33.382 C4.128,33.504 4.201,33.615 4.293,33.707 L10.293,39.707 C10.488,39.902 10.744,40 11,40 C11.256,40 11.512,39.902 11.707,39.707 C12.098,39.316 12.098,38.684 11.707,38.293 L7.414,34 L30,34 L30,56.586 L25.707,52.293 C25.316,51.902 24.684,51.902 24.293,52.293 C23.902,52.684 23.902,53.316 24.293,53.707 L30.293,59.707 C30.385,59.799 30.496,59.872 30.618,59.923 C30.74,59.973 30.87,60 31,60 C31.13,60 31.26,59.973 31.382,59.923 C31.504,59.872 31.615,59.799 31.707,59.707 L37.707,53.707 C38.098,53.316 38.098,52.684 37.707,52.293 C37.316,51.902 36.684,51.902 36.293,52.293 L32,56.586 L32,34 L54.586,34 L50.293,38.293 C49.902,38.684 49.902,39.316 50.293,39.707 C50.488,39.902 50.744,40 51,40 C51.256,40 51.512,39.902 51.707,39.707 L57.707,33.707 C57.799,33.615 57.872,33.504 57.923,33.382 C58.024,33.137 58.024,32.862 57.923,32.618 C57.872,32.495 57.799,32.385 57.707,32.293 L57.707,32.293 Z" id="Shape" fill="#000000"></path>
    </g>
</svg>