<?xml version="1.0" encoding="UTF-8" standalone="no"?>
<svg width="64px" height="64px" viewBox="0 0 64 64" version="1.1" xmlns="http://www.w3.org/2000/svg" xmlns:xlink="http://www.w3.org/1999/xlink">
    <!-- Generator: Sketch 3.7.2 (28276) - http://www.bohemiancoding.com/sketch -->
    <title>arr-jagged</title>
    <desc>Created with Sketch.</desc>
    <defs></defs>
    <g id="64px-Line" stroke="none" stroke-width="1" fill="none" fill-rule="evenodd">
        <g id="arr-jagged"></g>
        <path d="M57.382,12.077 C57.26,12.026 57.13,12 57,12 L43,12 C42.447,12 42,12.447 42,13 C42,13.553 42.447,14 43,14 L54.586,14 L35,33.586 L29.707,28.293 C29.316,27.902 28.684,27.902 28.293,28.293 L6.293,50.293 C5.902,50.684 5.902,51.316 6.293,51.707 C6.488,51.902 6.744,52 7,52 C7.256,52 7.512,51.902 7.707,51.707 L29,30.414 L34.293,35.707 C34.684,36.098 35.316,36.098 35.707,35.707 L56,15.414 L56,27 C56,27.553 56.447,28 57,28 C57.553,28 58,27.553 58,27 L58,13 C58,12.87 57.974,12.74 57.923,12.618 C57.822,12.373 57.627,12.178 57.382,12.077 L57.382,12.077 Z" id="Shape" fill="#000000"></path>
    </g>
</svg>