<?xml version="1.0" encoding="UTF-8" standalone="no"?>
<svg width="64px" height="64px" viewBox="0 0 64 64" version="1.1" xmlns="http://www.w3.org/2000/svg" xmlns:xlink="http://www.w3.org/1999/xlink">
    <!-- Generator: Sketch 3.7.2 (28276) - http://www.bohemiancoding.com/sketch -->
    <title>arr-axis</title>
    <desc>Created with Sketch.</desc>
    <defs></defs>
    <g id="64px-Line" stroke="none" stroke-width="1" fill="none" fill-rule="evenodd">
        <g id="arr-axis"></g>
        <path d="M41.136,20.535 C39.514,10.519 35.741,4 31,4 C26.222,4 22.78,11.348 21.119,20.773 C10.773,22.341 4,26.167 4,31 C4,37.668 18.303,41.736 32.598,41.987 L28.293,46.292 C27.902,46.683 27.902,47.315 28.293,47.706 C28.488,47.901 28.744,47.999 29,47.999 C29.256,47.999 29.512,47.901 29.707,47.706 L35.706,41.707 C35.799,41.614 35.872,41.503 35.923,41.379 C35.946,41.324 35.946,41.263 35.958,41.204 C35.973,41.136 36,41.071 36,40.998 C36,40.995 35.998,40.992 35.998,40.989 C35.998,40.985 36,40.982 36,40.979 C35.999,40.919 35.973,40.865 35.961,40.806 C35.947,40.736 35.942,40.663 35.914,40.599 C35.897,40.56 35.865,40.53 35.843,40.494 C35.797,40.418 35.753,40.341 35.689,40.28 C35.685,40.276 35.683,40.27 35.679,40.266 L29.679,34.71 C29.273,34.333 28.641,34.357 28.266,34.764 C27.891,35.169 27.915,35.802 28.321,36.177 L32.428,39.98 C19.616,39.704 6,36.095 6,31 C6,27.715 11.366,24.348 20.79,22.831 C20.336,25.969 20.071,29.282 20.013,32.598 L15.708,28.293 C15.317,27.902 14.685,27.902 14.294,28.293 C13.903,28.684 13.903,29.316 14.294,29.707 L20.293,35.706 C20.385,35.798 20.494,35.871 20.616,35.922 C20.737,35.972 20.867,36 21.001,36 L21.02,36 C21.078,35.999 21.131,35.973 21.188,35.962 C21.26,35.948 21.335,35.943 21.401,35.914 C21.442,35.896 21.473,35.863 21.511,35.84 C21.585,35.795 21.66,35.753 21.719,35.691 C21.724,35.686 21.73,35.685 21.735,35.68 L27.291,29.68 C27.666,29.275 27.642,28.642 27.236,28.267 C26.831,27.89 26.198,27.914 25.823,28.321 L22.02,32.428 C22.092,29.1 22.389,25.72 22.878,22.536 C25.629,22.194 28.676,22.001 32.001,22.001 C34.646,22.001 37.115,22.124 39.4,22.345 C39.783,25.231 40,28.46 40,32 C40,48.274 35.424,58 31,58 C27.9,58 25.086,53.804 23.474,46.775 C23.351,46.237 22.813,45.899 22.276,46.024 C21.738,46.147 21.401,46.684 21.525,47.222 C23.387,55.343 26.841,60 31,60 C37.374,60 42,48.225 42,32 C42,28.644 41.799,25.483 41.429,22.573 C51.956,23.934 58,27.513 58,31 C58,34.101 53.804,36.915 46.776,38.527 C46.238,38.65 45.901,39.187 46.025,39.725 C46.149,40.264 46.688,40.605 47.223,40.476 C55.343,38.613 60,35.159 60,31 C60,25.901 52.458,21.923 41.136,20.535 L41.136,20.535 Z M32,20 C28.893,20 25.951,20.171 23.221,20.49 C24.726,12.367 27.516,6 31,6 C34.229,6 37.537,11.187 39.089,20.314 C36.847,20.109 34.476,20 32,20 L32,20 Z" id="Shape" fill="#000000"></path>
    </g>
</svg>