<?xml version="1.0" encoding="UTF-8" standalone="no"?>
<svg width="64px" height="64px" viewBox="0 0 64 64" version="1.1" xmlns="http://www.w3.org/2000/svg" xmlns:xlink="http://www.w3.org/1999/xlink">
    <!-- Generator: Sketch 3.7.2 (28276) - http://www.bohemiancoding.com/sketch -->
    <title>arr-in-angle</title>
    <desc>Created with Sketch.</desc>
    <defs></defs>
    <g id="64px-Line" stroke="none" stroke-width="1" fill="none" fill-rule="evenodd">
        <g id="arr-in-angle"></g>
        <path d="M57.707,6.293 C57.316,5.902 56.684,5.902 56.293,6.293 L36,26.586 L36,15 C36,14.447 35.552,14 35,14 C34.448,14 34,14.447 34,15 L34,29 C34,29.13 34.027,29.26 34.077,29.382 C34.178,29.627 34.373,29.822 34.618,29.923 C34.74,29.973 34.87,30 35,30 L49,30 C49.552,30 50,29.553 50,29 C50,28.447 49.552,28 49,28 L37.414,28 L57.707,7.707 C58.098,7.316 58.098,6.684 57.707,6.293 L57.707,6.293 Z" id="Shape" fill="#000000"></path>
        <path d="M6.293,57.707 C6.488,57.902 6.744,58 7,58 C7.256,58 7.512,57.902 7.707,57.707 L28,37.414 L28,49 C28,49.553 28.448,50 29,50 C29.552,50 30,49.553 30,49 L30,35 C30,34.87 29.973,34.74 29.923,34.618 C29.822,34.373 29.627,34.178 29.382,34.077 C29.26,34.026 29.13,34 29,34 L15,34 C14.448,34 14,34.447 14,35 C14,35.553 14.448,36 15,36 L26.586,36 L6.293,56.293 C5.902,56.684 5.902,57.316 6.293,57.707 L6.293,57.707 Z" id="Shape" fill="#000000"></path>
    </g>
</svg>