<?xml version="1.0" encoding="UTF-8" standalone="no"?>
<svg width="44px" height="44px" viewBox="0 0 44 44" version="1.1" xmlns="http://www.w3.org/2000/svg" xmlns:xlink="http://www.w3.org/1999/xlink">
    <!-- Generator: Sketch 3.7.2 (28276) - http://www.bohemiancoding.com/sketch -->
    <title>arr-syncing</title>
    <desc>Created with Sketch.</desc>
    <defs></defs>
    <g id="44px-Line" stroke="none" stroke-width="1" fill="none" fill-rule="evenodd">
        <g id="arr-syncing"></g>
        <path d="M4.293,23.707 C4.488,23.902 4.744,24 5,24 C5.158,24 5.31,23.95 5.454,23.875 C5.482,23.862 5.504,23.84 5.531,23.824 C5.591,23.786 5.655,23.759 5.708,23.707 L9.708,19.707 C10.099,19.316 10.099,18.684 9.708,18.293 C9.317,17.902 8.685,17.902 8.294,18.293 L6.076,20.511 C6.83,12.385 13.681,6 22,6 C28.445,6 34.232,9.836 36.743,15.772 C36.958,16.281 37.547,16.519 38.054,16.303 C38.563,16.088 38.8,15.501 38.585,14.992 C35.761,8.315 29.251,4 22,4 C12.53,4 4.761,11.357 4.068,20.654 L1.707,18.293 C1.316,17.902 0.684,17.902 0.293,18.293 C-0.098,18.684 -0.098,19.316 0.293,19.707 L4.293,23.707 L4.293,23.707 Z" id="Shape" fill="#000000"></path>
        <path d="M39.707,20.293 C39.591,20.177 39.452,20.107 39.306,20.06 C39.288,20.053 39.268,20.055 39.25,20.049 C39.153,20.024 39.057,20.004 38.958,20.009 C38.942,20.009 38.928,20.002 38.912,20.003 C38.833,20.008 38.765,20.039 38.692,20.061 C38.665,20.07 38.638,20.071 38.612,20.082 C38.439,20.15 38.294,20.258 38.184,20.403 L34.293,24.294 C33.902,24.685 33.902,25.317 34.293,25.708 C34.684,26.099 35.316,26.099 35.707,25.708 L37.925,23.49 C37.17,31.615 30.319,38 22,38 C15.49,38 9.682,34.111 7.201,28.093 C6.991,27.582 6.403,27.34 5.895,27.549 C5.384,27.759 5.141,28.344 5.351,28.855 C8.142,35.625 14.677,40 22,40 C31.47,40 39.239,32.643 39.932,23.346 L42.293,25.707 C42.488,25.902 42.744,26 43,26 C43.256,26 43.512,25.902 43.707,25.707 C44.098,25.316 44.098,24.684 43.707,24.293 L39.707,20.293 L39.707,20.293 Z" id="Shape" fill="#000000"></path>
    </g>
</svg>