<?xml version="1.0" encoding="UTF-8" standalone="no"?>
<svg width="64px" height="64px" viewBox="0 0 64 64" version="1.1" xmlns="http://www.w3.org/2000/svg" xmlns:xlink="http://www.w3.org/1999/xlink">
    <!-- Generator: Sketch 3.7.2 (28276) - http://www.bohemiancoding.com/sketch -->
    <title>arr-diagonal</title>
    <desc>Created with Sketch.</desc>
    <defs></defs>
    <g id="64px-Line" stroke="none" stroke-width="1" fill="none" fill-rule="evenodd">
        <g id="arr-diagonal"></g>
        <path d="M8.293,55.707 C8.488,55.902 8.744,56 9,56 C9.256,56 9.512,55.902 9.707,55.707 L54,11.414 L54,23 C54,23.552 54.447,24 55,24 C55.553,24 56,23.552 56,23 L56,9 C56,8.87 55.974,8.74 55.923,8.618 C55.822,8.373 55.627,8.178 55.382,8.077 C55.26,8.027 55.13,8 55,8 L41,8 C40.447,8 40,8.448 40,9 C40,9.552 40.447,10 41,10 L52.586,10 L8.293,54.293 C7.902,54.684 7.902,55.316 8.293,55.707 L8.293,55.707 Z" id="Shape" fill="#000000"></path>
    </g>
</svg>