<?xml version="1.0" encoding="UTF-8" standalone="no"?>
<svg width="64px" height="64px" viewBox="0 0 64 64" version="1.1" xmlns="http://www.w3.org/2000/svg" xmlns:xlink="http://www.w3.org/1999/xlink">
    <!-- Generator: Sketch 3.7.2 (28276) - http://www.bohemiancoding.com/sketch -->
    <title>arr-ellipse-rotate</title>
    <desc>Created with Sketch.</desc>
    <defs></defs>
    <g id="64px-Line" stroke="none" stroke-width="1" fill="none" fill-rule="evenodd">
        <g id="arr-ellipse-rotate"></g>
        <path d="M58.653,23.803 C58.203,23.484 57.578,23.592 57.259,24.042 C56.941,24.493 57.048,25.117 57.499,25.436 C58.657,26.254 59.424,27.099 59.779,27.948 C59.939,28.332 60.311,28.562 60.702,28.562 C60.83,28.562 60.961,28.538 61.088,28.485 C61.597,28.271 61.838,27.685 61.624,27.176 C61.122,25.975 60.123,24.84 58.653,23.803 L58.653,23.803 Z" id="Shape" fill="#000000"></path>
        <path d="M51.419,35.379 C50.251,35.753 48.981,36.096 47.642,36.398 C47.103,36.52 46.765,37.055 46.887,37.593 C46.992,38.058 47.405,38.373 47.862,38.373 C47.935,38.373 48.009,38.365 48.083,38.349 C49.478,38.035 50.806,37.676 52.03,37.284 C52.556,37.116 52.845,36.553 52.677,36.027 C52.508,35.5 51.944,35.209 51.419,35.379 L51.419,35.379 Z" id="Shape" fill="#000000"></path>
        <path d="M36.048,18.096 C34.717,18.032 33.355,18 32,18 C17.253,18 2,22.114 2,29 C2,35.668 16.303,39.736 30.598,39.987 L26.293,44.292 C25.902,44.683 25.902,45.315 26.293,45.706 C26.488,45.901 26.744,45.999 27,45.999 C27.256,45.999 27.512,45.901 27.707,45.706 L33.706,39.707 C33.799,39.614 33.872,39.503 33.923,39.379 C33.946,39.324 33.946,39.263 33.958,39.204 C33.973,39.136 34,39.071 34,38.998 C34,38.995 33.998,38.992 33.998,38.989 C33.998,38.985 34,38.982 34,38.979 C33.999,38.919 33.973,38.865 33.961,38.806 C33.947,38.736 33.942,38.663 33.914,38.599 C33.897,38.56 33.865,38.53 33.843,38.494 C33.797,38.418 33.753,38.341 33.689,38.28 C33.685,38.276 33.683,38.27 33.679,38.266 L27.679,32.71 C27.274,32.334 26.641,32.358 26.266,32.764 C25.891,33.169 25.915,33.802 26.321,34.177 L30.428,37.98 C17.616,37.704 4,34.095 4,29 C4,23.696 18.756,20 32,20 C33.323,20 34.653,20.031 35.952,20.094 C35.969,20.095 35.985,20.095 36.001,20.095 C36.531,20.095 36.973,19.678 36.999,19.143 C37.025,18.591 36.6,18.122 36.048,18.096 L36.048,18.096 Z" id="Shape" fill="#000000"></path>
        <path d="M58.848,31.418 C58.146,32.16 57.146,32.878 55.876,33.553 C55.388,33.812 55.203,34.417 55.462,34.905 C55.642,35.244 55.988,35.436 56.346,35.436 C56.504,35.436 56.664,35.399 56.814,35.319 C58.275,34.543 59.448,33.693 60.3,32.794 C60.68,32.393 60.662,31.76 60.261,31.38 C59.86,31.001 59.228,31.017 58.848,31.418 L58.848,31.418 Z" id="Shape" fill="#000000"></path>
        <path d="M42.803,37.274 C41.542,37.451 40.234,37.598 38.915,37.711 C38.365,37.758 37.957,38.241 38.003,38.792 C38.047,39.313 38.484,39.707 38.999,39.707 C39.027,39.707 39.056,39.706 39.085,39.703 C40.44,39.588 41.785,39.437 43.082,39.255 C43.629,39.178 44.01,38.673 43.933,38.125 C43.855,37.579 43.352,37.194 42.803,37.274 L42.803,37.274 Z" id="Shape" fill="#000000"></path>
        <path d="M53.998,21.409 C52.81,20.95 51.496,20.526 50.092,20.147 C49.56,20.002 49.01,20.32 48.866,20.852 C48.722,21.386 49.038,21.935 49.571,22.079 C50.907,22.439 52.154,22.842 53.278,23.274 C53.396,23.32 53.518,23.341 53.638,23.341 C54.039,23.341 54.418,23.098 54.571,22.701 C54.77,22.187 54.513,21.607 53.998,21.409 L53.998,21.409 Z" id="Shape" fill="#000000"></path>
        <path d="M45.117,19.064 C43.827,18.841 42.474,18.65 41.096,18.495 C40.554,18.438 40.052,18.829 39.991,19.378 C39.929,19.927 40.324,20.422 40.873,20.483 C42.212,20.632 43.525,20.818 44.776,21.035 C44.834,21.045 44.891,21.05 44.947,21.05 C45.425,21.05 45.847,20.707 45.931,20.221 C46.026,19.676 45.662,19.158 45.117,19.064 L45.117,19.064 Z" id="Shape" fill="#000000"></path>
    </g>
</svg>