<?xml version="1.0" encoding="UTF-8" standalone="no"?>
<svg width="64px" height="64px" viewBox="0 0 64 64" version="1.1" xmlns="http://www.w3.org/2000/svg" xmlns:xlink="http://www.w3.org/1999/xlink">
    <!-- Generator: Sketch 3.7.2 (28276) - http://www.bohemiancoding.com/sketch -->
    <title>arr-converge-3</title>
    <desc>Created with Sketch.</desc>
    <defs></defs>
    <g id="64px-Line" stroke="none" stroke-width="1" fill="none" fill-rule="evenodd">
        <g id="arr-converge-3"></g>
        <path d="M24,40 L24,13.414 L28.293,17.707 C28.488,17.902 28.744,18 29,18 C29.256,18 29.512,17.902 29.707,17.707 C30.098,17.316 30.098,16.684 29.707,16.293 L23.708,10.294 C23.616,10.201 23.505,10.128 23.382,10.077 C23.138,9.976 22.863,9.976 22.618,10.077 C22.495,10.128 22.384,10.202 22.292,10.294 L16.293,16.293 C15.902,16.684 15.902,17.316 16.293,17.707 C16.684,18.098 17.316,18.098 17.707,17.707 L22,13.414 L22,40 C22,46.617 16.617,52 10,52 L3,52 C2.447,52 2,52.447 2,53 C2,53.553 2.447,54 3,54 L10,54 C17.72,54 24,47.72 24,40 L24,40 Z" id="Shape" fill="#000000"></path>
        <path d="M59,52 L52,52 C45.383,52 40,46.617 40,40 L40,13.414 L44.293,17.707 C44.488,17.902 44.744,18 45,18 C45.256,18 45.512,17.902 45.707,17.707 C46.098,17.316 46.098,16.684 45.707,16.293 L39.708,10.294 C39.616,10.201 39.505,10.128 39.382,10.077 C39.138,9.976 38.863,9.976 38.618,10.077 C38.495,10.128 38.384,10.202 38.292,10.294 L32.293,16.293 C31.902,16.684 31.902,17.316 32.293,17.707 C32.684,18.098 33.316,18.098 33.707,17.707 L38,13.414 L38,40 C38,47.72 44.28,54 52,54 L59,54 C59.553,54 60,53.553 60,53 C60,52.447 59.553,52 59,52 L59,52 Z" id="Shape" fill="#000000"></path>
    </g>
</svg>