<?xml version="1.0" encoding="UTF-8" standalone="no"?>
<svg width="64px" height="64px" viewBox="0 0 64 64" version="1.1" xmlns="http://www.w3.org/2000/svg" xmlns:xlink="http://www.w3.org/1999/xlink">
    <!-- Generator: Sketch 3.7.2 (28276) - http://www.bohemiancoding.com/sketch -->
    <title>arr-elipse</title>
    <desc>Created with Sketch.</desc>
    <defs></defs>
    <g id="64px-Line" stroke="none" stroke-width="1" fill="none" fill-rule="evenodd">
        <g id="arr-elipse"></g>
        <path d="M32,18 C17.253,18 2,22.114 2,29 C2,35.668 16.302,39.736 30.598,39.987 L26.293,44.292 C25.902,44.683 25.902,45.315 26.293,45.706 C26.488,45.901 26.744,45.999 27,45.999 C27.256,45.999 27.512,45.901 27.707,45.706 L33.706,39.707 C33.799,39.614 33.873,39.502 33.924,39.379 C33.946,39.325 33.946,39.265 33.958,39.208 C33.973,39.138 34,39.073 34,38.999 C34,38.996 33.998,38.993 33.998,38.99 C33.998,38.986 34,38.983 34,38.98 C33.999,38.922 33.973,38.869 33.962,38.812 C33.948,38.74 33.943,38.665 33.914,38.599 C33.897,38.561 33.866,38.532 33.845,38.496 C33.799,38.419 33.754,38.342 33.69,38.28 C33.686,38.276 33.684,38.27 33.68,38.265 L27.68,32.709 C27.275,32.332 26.64,32.356 26.267,32.763 C25.891,33.168 25.915,33.801 26.321,34.176 L30.428,37.979 C17.616,37.704 4,34.095 4,29 C4,23.696 18.757,20 32,20 C45.243,20 60,23.696 60,29 C60,32.938 50.936,36.683 38.915,37.711 C38.364,37.758 37.957,38.242 38.004,38.792 C38.05,39.342 38.537,39.756 39.085,39.703 C50.491,38.729 62,35.041 62,29 C62,22.114 46.747,18 32,18 L32,18 Z" id="Shape" fill="#000000"></path>
    </g>
</svg>