<?xml version="1.0" encoding="UTF-8" standalone="no"?>
<svg width="44px" height="44px" viewBox="0 0 44 44" version="1.1" xmlns="http://www.w3.org/2000/svg" xmlns:xlink="http://www.w3.org/1999/xlink">
    <!-- Generator: Sketch 3.7.2 (28276) - http://www.bohemiancoding.com/sketch -->
    <title>arr-rotate</title>
    <desc>Created with Sketch.</desc>
    <defs></defs>
    <g id="44px-Line" stroke="none" stroke-width="1" fill="none" fill-rule="evenodd">
        <g id="arr-rotate"></g>
        <path d="M25,4 C15.292,4 7.274,11.324 6.148,20.734 L1.707,16.293 C1.316,15.902 0.684,15.902 0.293,16.293 C-0.098,16.684 -0.098,17.316 0.293,17.707 L6.292,23.706 C6.384,23.799 6.495,23.872 6.618,23.923 C6.74,23.973 6.87,24 7,24 C7.13,24 7.26,23.973 7.382,23.923 C7.505,23.872 7.615,23.799 7.708,23.706 L13.707,17.707 C14.098,17.316 14.098,16.684 13.707,16.293 C13.316,15.902 12.684,15.902 12.293,16.293 L8.226,20.36 C9.501,12.238 16.526,6 25,6 C34.374,6 42,13.626 42,23 C42,23.675 41.96,24.354 41.882,25.019 C41.818,25.568 42.21,26.065 42.758,26.129 C42.798,26.134 42.838,26.136 42.877,26.136 C43.377,26.136 43.809,25.762 43.869,25.253 C43.956,24.511 44,23.752 44,23 C44,12.523 35.477,4 25,4 L25,4 Z" id="Shape" fill="#000000"></path>
        <path d="M10.273,31.503 C9.997,31.025 9.384,30.861 8.907,31.139 C8.429,31.415 8.266,32.028 8.543,32.505 C9.247,33.722 10.088,34.862 11.044,35.895 C11.241,36.109 11.509,36.216 11.778,36.216 C12.021,36.216 12.264,36.128 12.457,35.95 C12.862,35.575 12.887,34.942 12.512,34.537 C11.657,33.612 10.904,32.592 10.273,31.503 L10.273,31.503 Z" id="Shape" fill="#000000"></path>
        <path d="M19.568,39.114 C18.377,38.713 17.229,38.176 16.154,37.52 C15.683,37.232 15.068,37.38 14.779,37.852 C14.491,38.324 14.64,38.939 15.112,39.227 C16.313,39.96 17.597,40.56 18.929,41.008 C19.035,41.044 19.142,41.061 19.248,41.061 C19.665,41.061 20.055,40.798 20.196,40.38 C20.373,39.857 20.091,39.29 19.568,39.114 L19.568,39.114 Z" id="Shape" fill="#000000"></path>
        <path d="M27.957,39.744 C26.988,39.914 25.993,40 24.997,40 C24.734,39.998 24.46,39.995 24.195,39.981 C23.636,39.946 23.174,40.38 23.148,40.932 C23.122,41.483 23.547,41.952 24.099,41.979 C24.38,41.993 24.663,42 24.945,42 C26.09,42.016 27.201,41.907 28.303,41.715 C28.847,41.619 29.211,41.102 29.115,40.558 C29.019,40.014 28.499,39.656 27.957,39.744 L27.957,39.744 Z" id="Shape" fill="#000000"></path>
        <path d="M35.618,36.278 C34.633,37.066 33.561,37.745 32.432,38.294 C31.935,38.536 31.729,39.135 31.971,39.631 C32.144,39.986 32.5,40.193 32.87,40.193 C33.017,40.193 33.166,40.161 33.307,40.092 C34.569,39.478 35.766,38.72 36.867,37.84 C37.298,37.494 37.368,36.865 37.023,36.434 C36.679,36.004 36.048,35.934 35.618,36.278 L35.618,36.278 Z" id="Shape" fill="#000000"></path>
        <path d="M41.995,29.032 C41.484,28.815 40.899,29.058 40.686,29.567 C40.201,30.725 39.584,31.832 38.853,32.857 C38.532,33.307 38.637,33.931 39.086,34.253 C39.262,34.378 39.465,34.439 39.666,34.439 C39.978,34.439 40.286,34.293 40.481,34.02 C41.298,32.874 41.988,31.636 42.531,30.341 C42.744,29.831 42.504,29.245 41.995,29.032 L41.995,29.032 Z" id="Shape" fill="#000000"></path>
    </g>
</svg>