<?xml version="1.0" encoding="UTF-8" standalone="no"?>
<svg width="64px" height="64px" viewBox="0 0 64 64" version="1.1" xmlns="http://www.w3.org/2000/svg" xmlns:xlink="http://www.w3.org/1999/xlink">
    <!-- Generator: Sketch 3.7.2 (28276) - http://www.bohemiancoding.com/sketch -->
    <title>arr-ellipse-angle-rotate</title>
    <desc>Created with Sketch.</desc>
    <defs></defs>
    <g id="64px-Line" stroke="none" stroke-width="1" fill="none" fill-rule="evenodd">
        <g id="arr-ellipse-angle-rotate"></g>
        <path d="M39.756,38.327 C39.742,38.313 39.723,38.309 39.709,38.296 C39.528,38.113 39.277,38 39,38 L31,38 C30.448,38 30,38.447 30,39 C30,39.553 30.448,40 31,40 L36.624,40 C25.539,50.56 14.276,56.385 10.972,53.082 C9.316,51.427 9.775,47.586 12.231,42.546 C14.878,37.116 19.497,30.966 25.236,25.23 C26.179,24.288 27.141,23.368 28.095,22.497 C28.503,22.125 28.532,21.492 28.159,21.084 C27.787,20.678 27.155,20.649 26.746,21.021 C25.77,21.913 24.786,22.853 23.822,23.817 C17.929,29.706 13.175,36.046 10.433,41.671 C7.537,47.612 7.226,52.167 9.558,54.497 C10.485,55.423 11.865,55.93 13.656,55.93 C18.774,55.93 27.243,51.778 38,41.455 L38,47 C38,47.553 38.448,48 39,48 C39.552,48 40,47.553 40,47 L40,39.286 C40.087,38.953 40.016,38.588 39.756,38.327 L39.756,38.327 Z" id="Shape" fill="#000000"></path>
        <path d="M41.612,10.468 C40.457,11.034 39.251,11.697 38.029,12.436 C37.556,12.721 37.405,13.336 37.691,13.809 C37.879,14.12 38.209,14.291 38.547,14.291 C38.723,14.291 38.901,14.244 39.064,14.146 C40.236,13.437 41.389,12.804 42.492,12.264 C42.988,12.021 43.193,11.421 42.95,10.925 C42.707,10.432 42.11,10.224 41.612,10.468 L41.612,10.468 Z" id="Shape" fill="#000000"></path>
        <path d="M53.661,19.296 C53.159,19.07 52.566,19.293 52.339,19.798 C51.846,20.893 51.245,22.059 50.552,23.264 C50.277,23.743 50.441,24.355 50.92,24.63 C51.077,24.72 51.249,24.763 51.418,24.763 C51.764,24.763 52.101,24.583 52.286,24.262 C53.012,22.999 53.644,21.774 54.164,20.618 C54.389,20.114 54.165,19.522 53.661,19.296 L53.661,19.296 Z" id="Shape" fill="#000000"></path>
        <path d="M54.262,10.601 C53.75,10.807 53.501,11.389 53.707,11.902 C53.902,12.386 54,12.972 54,13.644 C54,14.146 53.945,14.701 53.836,15.292 C53.736,15.835 54.096,16.356 54.639,16.456 C54.7,16.468 54.761,16.473 54.821,16.473 C55.295,16.473 55.715,16.136 55.803,15.654 C55.934,14.943 56,14.266 56,13.644 C56,12.715 55.853,11.878 55.562,11.156 C55.356,10.643 54.774,10.396 54.262,10.601 L54.262,10.601 Z" id="Shape" fill="#000000"></path>
        <path d="M51.646,9.07 C51.677,8.519 51.256,8.047 50.705,8.015 C49.47,7.946 48.026,8.132 46.433,8.577 C45.901,8.725 45.59,9.276 45.738,9.808 C45.862,10.25 46.263,10.539 46.701,10.539 C46.79,10.539 46.88,10.527 46.97,10.502 C48.348,10.117 49.563,9.951 50.591,10.011 C51.136,10.036 51.614,9.622 51.646,9.07 L51.646,9.07 Z" id="Shape" fill="#000000"></path>
        <path d="M47.912,27.408 C47.696,27.719 47.476,28.03 47.252,28.343 C46.719,29.085 46.159,29.835 45.575,30.589 C45.237,31.026 45.317,31.653 45.753,31.992 C45.935,32.133 46.151,32.201 46.365,32.201 C46.663,32.201 46.959,32.068 47.156,31.813 C47.755,31.04 48.329,30.27 48.876,29.508 C49.107,29.186 49.333,28.866 49.554,28.548 C49.869,28.094 49.757,27.471 49.303,27.156 C48.85,26.84 48.226,26.955 47.912,27.408 L47.912,27.408 Z" id="Shape" fill="#000000"></path>
        <path d="M31.21,19.494 C31.431,19.494 31.653,19.421 31.839,19.271 C32.879,18.429 33.932,17.622 34.971,16.869 C35.418,16.546 35.518,15.92 35.195,15.473 C34.871,15.027 34.247,14.924 33.799,15.25 C32.732,16.022 31.649,16.853 30.581,17.717 C30.152,18.065 30.086,18.695 30.433,19.123 C30.63,19.367 30.918,19.494 31.21,19.494 L31.21,19.494 Z" id="Shape" fill="#000000"></path>
    </g>
</svg>