<?xml version="1.0" encoding="UTF-8" standalone="no"?>
<svg width="64px" height="64px" viewBox="0 0 64 64" version="1.1" xmlns="http://www.w3.org/2000/svg" xmlns:xlink="http://www.w3.org/1999/xlink">
    <!-- Generator: Sketch 3.7.2 (28276) - http://www.bohemiancoding.com/sketch -->
    <title>arr-in-3</title>
    <desc>Created with Sketch.</desc>
    <defs></defs>
    <g id="64px-Line" stroke="none" stroke-width="1" fill="none" fill-rule="evenodd">
        <g id="arr-in-3"></g>
        <path d="M63,32 L39.414,32 L47.707,23.707 C48.098,23.316 48.098,22.684 47.707,22.293 C47.316,21.902 46.684,21.902 46.293,22.293 L36.294,32.292 C36.201,32.384 36.128,32.495 36.077,32.618 C35.976,32.862 35.976,33.138 36.077,33.382 C36.128,33.505 36.201,33.616 36.294,33.708 L46.293,43.707 C46.488,43.902 46.744,44 47,44 C47.256,44 47.512,43.902 47.707,43.707 C48.098,43.316 48.098,42.684 47.707,42.293 L39.414,34 L63,34 C63.553,34 64,33.553 64,33 C64,32.447 63.553,32 63,32 L63,32 Z" id="Shape" fill="#000000"></path>
        <path d="M16.293,42.293 C15.902,42.684 15.902,43.316 16.293,43.707 C16.488,43.902 16.744,44 17,44 C17.256,44 17.512,43.902 17.707,43.707 L27.706,33.708 C27.799,33.616 27.872,33.505 27.923,33.382 C28.024,33.138 28.024,32.863 27.923,32.618 C27.872,32.495 27.798,32.384 27.706,32.291 L17.707,22.292 C17.316,21.901 16.684,21.901 16.293,22.292 C15.902,22.683 15.902,23.315 16.293,23.706 L24.586,31.999 L1,31.999 C0.447,31.999 0,32.446 0,32.999 C0,33.552 0.447,33.999 1,33.999 L24.586,33.999 L16.293,42.293 L16.293,42.293 Z" id="Shape" fill="#000000"></path>
    </g>
</svg>