<?xml version="1.0" encoding="UTF-8" standalone="no"?>
<svg width="44px" height="44px" viewBox="0 0 44 44" version="1.1" xmlns="http://www.w3.org/2000/svg" xmlns:xlink="http://www.w3.org/1999/xlink">
    <!-- Generator: Sketch 3.7.2 (28276) - http://www.bohemiancoding.com/sketch -->
    <title>arr-undo-arrow</title>
    <desc>Created with Sketch.</desc>
    <defs></defs>
    <g id="44px-Line" stroke="none" stroke-width="1" fill="none" fill-rule="evenodd">
        <g id="arr-undo-arrow"></g>
        <path d="M6.293,39.707 C6.385,39.799 6.496,39.872 6.618,39.923 C6.74,39.973 6.87,40 7,40 C7.13,40 7.26,39.973 7.382,39.923 C7.504,39.872 7.615,39.799 7.707,39.707 L13.707,33.707 C14.098,33.316 14.098,32.684 13.707,32.293 C13.316,31.902 12.684,31.902 12.293,32.293 L8,36.586 L8,23 C8,13.626 15.626,6 25,6 C34.374,6 42,13.626 42,23 L42,39 C42,39.552 42.448,40 43,40 C43.552,40 44,39.552 44,39 L44,23 C44,12.523 35.477,4 25,4 C14.523,4 6,12.523 6,23 L6,36.586 L1.707,32.293 C1.316,31.902 0.684,31.902 0.293,32.293 C-0.098,32.684 -0.098,33.316 0.293,33.707 L6.293,39.707 L6.293,39.707 Z" id="Shape" fill="#000000"></path>
    </g>
</svg>