<?xml version="1.0" encoding="UTF-8" standalone="no"?>
<svg width="64px" height="64px" viewBox="0 0 64 64" version="1.1" xmlns="http://www.w3.org/2000/svg" xmlns:xlink="http://www.w3.org/1999/xlink">
    <!-- Generator: Sketch 3.7.2 (28276) - http://www.bohemiancoding.com/sketch -->
    <title>arr-in-2</title>
    <desc>Created with Sketch.</desc>
    <defs></defs>
    <g id="64px-Line" stroke="none" stroke-width="1" fill="none" fill-rule="evenodd">
        <g id="arr-in-2"></g>
        <path d="M57,58 C57.256,58 57.512,57.902 57.707,57.707 C58.098,57.316 58.098,56.684 57.707,56.293 L41.414,40 L51,40 C51.552,40 52,39.552 52,39 C52,38.448 51.552,38 51,38 L39,38 C38.87,38 38.74,38.027 38.618,38.077 C38.373,38.178 38.179,38.373 38.077,38.618 C38.027,38.74 38,38.87 38,39 L38,51 C38,51.552 38.448,52 39,52 C39.552,52 40,51.552 40,51 L40,41.414 L56.293,57.707 C56.488,57.902 56.744,58 57,58 L57,58 Z" id="Shape" fill="#000000"></path>
        <path d="M40,13 C40,12.448 39.552,12 39,12 C38.448,12 38,12.448 38,13 L38,25 C38,25.13 38.027,25.26 38.077,25.382 C38.178,25.626 38.373,25.821 38.618,25.923 C38.74,25.973 38.87,26 39,26 L51,26 C51.552,26 52,25.552 52,25 C52,24.448 51.552,24 51,24 L41.414,24 L57.707,7.707 C58.098,7.316 58.098,6.684 57.707,6.293 C57.316,5.902 56.684,5.902 56.293,6.293 L40,22.586 L40,13 L40,13 Z" id="Shape" fill="#000000"></path>
        <path d="M7,58 C7.256,58 7.512,57.902 7.707,57.707 L24,41.414 L24,51 C24,51.552 24.448,52 25,52 C25.552,52 26,51.552 26,51 L26,39 C26,38.87 25.973,38.74 25.923,38.618 C25.822,38.374 25.627,38.179 25.382,38.077 C25.26,38.027 25.13,38 25,38 L13,38 C12.448,38 12,38.448 12,39 C12,39.552 12.448,40 13,40 L22.586,40 L6.293,56.293 C5.902,56.684 5.902,57.316 6.293,57.707 C6.488,57.902 6.744,58 7,58 L7,58 Z" id="Shape" fill="#000000"></path>
        <path d="M22.586,24 L13,24 C12.448,24 12,24.448 12,25 C12,25.552 12.448,26 13,26 L25,26 C25.13,26 25.26,25.973 25.382,25.923 C25.627,25.822 25.821,25.627 25.923,25.382 C25.973,25.26 26,25.13 26,25 L26,13 C26,12.448 25.552,12 25,12 C24.448,12 24,12.448 24,13 L24,22.586 L7.707,6.293 C7.316,5.902 6.684,5.902 6.293,6.293 C5.902,6.684 5.902,7.316 6.293,7.707 L22.586,24 L22.586,24 Z" id="Shape" fill="#000000"></path>
    </g>
</svg>