<?xml version="1.0" encoding="UTF-8" standalone="no"?>
<svg width="44px" height="44px" viewBox="0 0 44 44" version="1.1" xmlns="http://www.w3.org/2000/svg" xmlns:xlink="http://www.w3.org/1999/xlink">
    <!-- Generator: Sketch 3.7.2 (28276) - http://www.bohemiancoding.com/sketch -->
    <title>arr-wiggle</title>
    <desc>Created with Sketch.</desc>
    <defs></defs>
    <g id="44px-Line" stroke="none" stroke-width="1" fill="none" fill-rule="evenodd">
        <g id="arr-wiggle"></g>
        <path d="M43.706,22.292 L37.707,16.293 C37.316,15.902 36.684,15.902 36.293,16.293 C35.902,16.684 35.902,17.316 36.293,17.707 L40.586,22 L34,22 C31.794,22 30,23.794 30,26 L30,36 C30,37.103 29.103,38 28,38 C26.897,38 26,37.103 26,36 L26,10 C26,7.794 24.206,6 22,6 C19.794,6 18,7.794 18,10 L18,36 C18,37.103 17.103,38 16,38 C14.897,38 14,37.103 14,36 L14,10 C14,7.794 12.206,6 10,6 C7.794,6 6,7.794 6,10 L6,20 C6,21.103 5.103,22 4,22 L1,22 C0.447,22 0,22.448 0,23 C0,23.552 0.447,24 1,24 L4,24 C6.206,24 8,22.206 8,20 L8,10 C8,8.897 8.897,8 10,8 C11.103,8 12,8.897 12,10 L12,36 C12,38.206 13.794,40 16,40 C18.206,40 20,38.206 20,36 L20,10 C20,8.897 20.897,8 22,8 C23.103,8 24,8.897 24,10 L24,36 C24,38.206 25.794,40 28,40 C30.206,40 32,38.206 32,36 L32,26 C32,24.897 32.897,24 34,24 L40.586,24 L36.293,28.293 C35.902,28.684 35.902,29.316 36.293,29.707 C36.488,29.902 36.744,30 37,30 C37.256,30 37.512,29.902 37.707,29.707 L43.706,23.708 C43.799,23.616 43.872,23.505 43.923,23.382 C44.024,23.138 44.024,22.862 43.923,22.618 C43.872,22.495 43.799,22.385 43.706,22.292 L43.706,22.292 Z" id="Shape" fill="#000000"></path>
    </g>
</svg>