<?xml version="1.0" encoding="UTF-8" standalone="no"?>
<svg width="64px" height="64px" viewBox="0 0 64 64" version="1.1" xmlns="http://www.w3.org/2000/svg" xmlns:xlink="http://www.w3.org/1999/xlink">
    <!-- Generator: Sketch 3.7.2 (28276) - http://www.bohemiancoding.com/sketch -->
    <title>arr-3-rotate</title>
    <desc>Created with Sketch.</desc>
    <defs></defs>
    <g id="64px-Line" stroke="none" stroke-width="1" fill="none" fill-rule="evenodd">
        <g id="arr-3-rotate"></g>
        <path d="M38.707,6.293 C38.316,5.902 37.684,5.902 37.293,6.293 L31.293,12.294 C30.902,12.685 30.902,13.317 31.293,13.708 L37.293,19.708 C37.488,19.903 37.744,20.001 38,20.001 C38.256,20.001 38.512,19.903 38.707,19.708 C39.098,19.317 39.098,18.685 38.707,18.294 L34.435,14.022 C45.261,14.256 54,23.119 54,34 C54,34.77 53.956,35.546 53.869,36.308 C53.807,36.857 54.201,37.352 54.749,37.415 C54.788,37.419 54.826,37.421 54.864,37.421 C55.365,37.421 55.798,37.045 55.856,36.535 C55.952,35.698 56,34.845 56,34 C56,22.005 46.349,12.228 34.405,12.01 L38.707,7.707 C39.098,7.316 39.098,6.683 38.707,6.293 L38.707,6.293 Z" id="Shape" fill="#000000"></path>
        <path d="M20.668,50.257 C20.338,50.7 20.43,51.326 20.873,51.656 C24.689,54.498 29.229,56 34,56 C41.688,56 48.794,51.934 52.76,45.47 L54.024,51.18 C54.128,51.646 54.541,51.964 55,51.964 C55.072,51.964 55.145,51.957 55.217,51.941 C55.756,51.821 56.096,51.288 55.977,50.748 L54.163,42.553 C54.104,42.287 53.938,42.056 53.705,41.914 C53.471,41.773 53.19,41.732 52.927,41.803 L44.731,43.999 C44.197,44.142 43.881,44.69 44.024,45.224 C44.166,45.757 44.716,46.076 45.249,45.931 L51.093,44.365 C47.495,50.277 41.014,54 34,54 C29.662,54 25.536,52.635 22.068,50.052 C21.625,49.722 20.999,49.814 20.668,50.257 L20.668,50.257 Z" id="Shape" fill="#000000"></path>
        <path d="M25.268,13.802 C17.208,17.291 12,25.219 12,34 C12,37.754 12.951,41.374 14.74,44.611 L9.27,43.073 C8.736,42.922 8.186,43.234 8.037,43.765 C7.888,44.297 8.198,44.849 8.729,44.998 L16.542,47.194 C16.631,47.219 16.722,47.231 16.813,47.231 C16.985,47.231 17.156,47.187 17.308,47.1 C17.54,46.968 17.71,46.748 17.779,46.49 L19.975,38.294 C20.118,37.761 19.802,37.212 19.268,37.069 C18.734,36.926 18.186,37.243 18.043,37.776 L16.477,43.62 C14.86,40.686 14,37.404 14,34 C14,26.017 18.735,18.809 26.062,15.637 C26.569,15.418 26.802,14.829 26.582,14.322 C26.363,13.814 25.774,13.582 25.268,13.802 L25.268,13.802 Z" id="Shape" fill="#000000"></path>
    </g>
</svg>