<?xml version="1.0" encoding="UTF-8" standalone="no"?>
<svg width="44px" height="44px" viewBox="0 0 44 44" version="1.1" xmlns="http://www.w3.org/2000/svg" xmlns:xlink="http://www.w3.org/1999/xlink">
    <!-- Generator: Sketch 3.7.2 (28276) - http://www.bohemiancoding.com/sketch -->
    <title>arr-turn-off</title>
    <desc>Created with Sketch.</desc>
    <defs></defs>
    <g id="44px-Line" stroke="none" stroke-width="1" fill="none" fill-rule="evenodd">
        <g id="arr-turn-off"></g>
        <path d="M20.293,9.707 C20.488,9.902 20.744,10 21,10 C21.256,10 21.512,9.902 21.707,9.707 C22.098,9.316 22.098,8.684 21.707,8.293 L13.708,0.294 C13.616,0.201 13.505,0.128 13.382,0.077 C13.138,-0.024 12.862,-0.024 12.618,0.077 C12.495,0.128 12.384,0.201 12.292,0.294 L4.293,8.293 C3.902,8.684 3.902,9.316 4.293,9.707 C4.684,10.098 5.316,10.098 5.707,9.707 L12,3.414 L12,43 C12,43.553 12.448,44 13,44 C13.552,44 14,43.553 14,43 L14,33 C14,28.037 18.038,24 23,24 L34.586,24 L28.293,30.293 C27.902,30.684 27.902,31.316 28.293,31.707 C28.488,31.902 28.744,32 29,32 C29.256,32 29.512,31.902 29.707,31.707 L37.706,23.708 C37.799,23.616 37.872,23.505 37.923,23.382 C38.024,23.138 38.024,22.862 37.923,22.618 C37.872,22.495 37.799,22.385 37.706,22.292 L29.707,14.293 C29.316,13.902 28.684,13.902 28.293,14.293 C27.902,14.684 27.902,15.316 28.293,15.707 L34.586,22 L23,22 C19.28,22 15.992,23.861 14,26.695 L14,3.414 L20.293,9.707 L20.293,9.707 Z" id="Shape" fill="#000000"></path>
    </g>
</svg>