<?xml version="1.0" encoding="UTF-8" standalone="no"?>
<svg width="44px" height="44px" viewBox="0 0 44 44" version="1.1" xmlns="http://www.w3.org/2000/svg" xmlns:xlink="http://www.w3.org/1999/xlink">
    <!-- Generator: Sketch 3.7.2 (28276) - http://www.bohemiancoding.com/sketch -->
    <title>arr-vertical-2</title>
    <desc>Created with Sketch.</desc>
    <defs></defs>
    <g id="44px-Line" stroke="none" stroke-width="1" fill="none" fill-rule="evenodd">
        <g id="arr-vertical-2"></g>
        <path d="M13.707,34.293 C13.316,33.902 12.684,33.902 12.293,34.293 C11.902,34.684 11.902,35.316 12.293,35.707 L20.293,43.707 C20.385,43.799 20.496,43.872 20.618,43.923 C20.74,43.973 20.87,44 21,44 C21.13,44 21.26,43.973 21.382,43.923 C21.504,43.872 21.615,43.799 21.707,43.707 L29.707,35.707 C30.098,35.316 30.098,34.684 29.707,34.293 C29.316,33.902 28.684,33.902 28.293,34.293 L22,40.586 L22,3.414 L28.293,9.707 C28.488,9.902 28.744,10 29,10 C29.256,10 29.512,9.902 29.707,9.707 C30.098,9.316 30.098,8.684 29.707,8.293 L21.707,0.293 C21.615,0.201 21.504,0.128 21.382,0.077 C21.138,-0.024 20.862,-0.024 20.618,0.077 C20.496,0.128 20.385,0.201 20.293,0.293 L12.293,8.293 C11.902,8.684 11.902,9.316 12.293,9.707 C12.684,10.098 13.316,10.098 13.707,9.707 L20,3.414 L20,40.586 L13.707,34.293 L13.707,34.293 Z" id="Shape" fill="#000000"></path>
    </g>
</svg>