<?xml version="1.0" encoding="UTF-8" standalone="no"?>
<svg width="44px" height="44px" viewBox="0 0 44 44" version="1.1" xmlns="http://www.w3.org/2000/svg" xmlns:xlink="http://www.w3.org/1999/xlink">
    <!-- Generator: Sketch 3.7.2 (28276) - http://www.bohemiancoding.com/sketch -->
    <title>arr-vertical</title>
    <desc>Created with Sketch.</desc>
    <defs></defs>
    <g id="44px-Line" stroke="none" stroke-width="1" fill="none" fill-rule="evenodd">
        <g id="arr-vertical"></g>
        <path d="M21,44 C21.553,44 22,43.552 22,43 L22,3.414 L28.293,9.707 C28.488,9.902 28.744,10 29,10 C29.256,10 29.512,9.902 29.707,9.707 C30.098,9.316 30.098,8.684 29.707,8.293 L21.708,0.294 C21.616,0.201 21.505,0.128 21.382,0.077 C21.138,-0.024 20.862,-0.024 20.618,0.077 C20.495,0.128 20.385,0.201 20.292,0.294 L12.293,8.293 C11.902,8.684 11.902,9.316 12.293,9.707 C12.684,10.098 13.316,10.098 13.707,9.707 L20,3.414 L20,43 C20,43.552 20.447,44 21,44 L21,44 Z" id="Shape" fill="#000000"></path>
    </g>
</svg>