<?xml version="1.0" encoding="UTF-8" standalone="no"?>
<svg width="64px" height="64px" viewBox="0 0 64 64" version="1.1" xmlns="http://www.w3.org/2000/svg" xmlns:xlink="http://www.w3.org/1999/xlink">
    <!-- Generator: Sketch 3.7.2 (28276) - http://www.bohemiancoding.com/sketch -->
    <title>arr-elipse-angle</title>
    <desc>Created with Sketch.</desc>
    <defs></defs>
    <g id="64px-Line" stroke="none" stroke-width="1" fill="none" fill-rule="evenodd">
        <g id="arr-elipse-angle"></g>
        <path d="M23.822,23.816 C17.929,29.707 13.175,36.048 10.433,41.672 C7.537,47.614 7.226,52.169 9.557,54.499 C10.475,55.416 11.841,55.917 13.616,55.917 C18.724,55.917 27.206,51.745 38,41.373 L38,47 C38,47.553 38.447,48 39,48 C39.553,48 40,47.553 40,47 L40,39 C40,38.98 39.99,38.964 39.989,38.945 C39.983,38.835 39.967,38.725 39.924,38.622 C39.823,38.375 39.626,38.178 39.378,38.077 C39.348,38.065 39.316,38.067 39.285,38.058 C39.193,38.03 39.101,38 39,38 L31,38 C30.447,38 30,38.447 30,39 C30,39.553 30.447,40 31,40 L36.543,40 C25.321,50.71 14.313,56.423 10.971,53.086 C9.315,51.431 9.774,47.59 12.231,42.55 C14.877,37.119 19.497,30.969 25.236,25.231 C37.838,12.634 49.817,7.691 53.102,10.972 C55.965,13.834 51.839,23.273 43.291,33.415 C42.936,33.838 42.989,34.469 43.411,34.824 C43.833,35.18 44.463,35.125 44.82,34.704 C52.172,25.981 59.122,14.161 54.515,9.558 C49.373,4.415 34.871,12.771 23.822,23.816 L23.822,23.816 Z" id="Shape" fill="#000000"></path>
    </g>
</svg>