<?xml version="1.0" encoding="UTF-8" standalone="no"?>
<svg width="64px" height="64px" viewBox="0 0 64 64" version="1.1" xmlns="http://www.w3.org/2000/svg" xmlns:xlink="http://www.w3.org/1999/xlink">
    <!-- Generator: Sketch 3.7.2 (28276) - http://www.bohemiancoding.com/sketch -->
    <title>soc-dribbble</title>
    <desc>Created with Sketch.</desc>
    <defs></defs>
    <g id="64px-Glyph" stroke="none" stroke-width="1" fill="none" fill-rule="evenodd">
        <g id="soc-dribbble" fill="#000000">
            <path d="M30.0703,27.4453 C27.2423,22.4163 24.1873,18.1853 23.7383,17.5663 C18.9593,19.8203 15.3863,24.2263 14.2773,29.5273 C15.0433,29.5393 22.0823,29.5703 30.0703,27.4453" id="Fill-73"></path>
            <path d="M35.8184,31.4336 C35.9454,31.7306 36.0684,32.0236 36.1874,32.3166 C41.8694,31.6016 47.5194,32.7456 48.0824,32.8676 C48.0454,28.8336 46.6054,25.1326 44.2224,22.2226 C43.8634,22.7106 41.0024,26.3826 34.6854,28.9606 C35.0824,29.7736 35.4634,30.6016 35.8184,31.4336" id="Fill-74"></path>
            <path d="M42.3242,20.25 C39.3082,17.572 35.3402,15.943 31.0022,15.943 C29.6232,15.943 28.2812,16.109 26.9962,16.418 C27.4692,17.051 30.5722,21.277 33.3732,26.418 C39.4452,24.143 42.0172,20.687 42.3242,20.25" id="Fill-75"></path>
            <path d="M32.1953,33.1758 C32.4183,33.1038 32.6423,33.0368 32.8673,32.9728 C32.4373,32.0038 31.9723,31.0308 31.4843,30.0738 C22.9513,32.6248 14.6743,32.5218 13.9253,32.5038 C13.9223,32.6798 13.9183,32.8518 13.9183,33.0278 C13.9183,37.4138 15.5803,41.4218 18.3083,44.4488 C18.6953,43.7848 23.3853,36.0238 32.1953,33.1758" id="Fill-76"></path>
            <path d="M33.918,35.8359 C24.281,39.1949 20.82,45.8749 20.516,46.5039 C23.412,48.7619 27.051,50.1089 31.002,50.1089 C33.367,50.1089 35.623,49.6249 37.676,48.7519 C37.42,47.2539 36.428,42.0309 34.031,35.7969 C33.992,35.8109 33.955,35.8219 33.918,35.8359" id="Fill-77"></path>
            <path d="M31.002,53 C19.973,53 11,44.029 11,33 C11,21.973 19.973,13 31.002,13 C42.029,13 51,21.973 51,33 C51,44.029 42.029,53 31.002,53 M31,6 C16.112,6 4,18.112 4,33 C4,47.888 16.112,60 31,60 C45.888,60 58,47.888 58,33 C58,18.112 45.888,6 31,6" id="Fill-78"></path>
            <path d="M37.2266,35.0078 C39.4606,41.1488 40.3716,46.1488 40.5446,47.1878 C44.3786,44.5978 47.1076,40.4918 47.8676,35.7378 C47.2856,35.5548 42.5786,34.1528 37.2266,35.0078" id="Fill-79"></path>
        </g>
    </g>
</svg>