<?xml version="1.0" encoding="UTF-8" standalone="no"?>
<svg width="44px" height="44px" viewBox="0 0 44 44" version="1.1" xmlns="http://www.w3.org/2000/svg" xmlns:xlink="http://www.w3.org/1999/xlink">
    <!-- Generator: Sketch 3.7.2 (28276) - http://www.bohemiancoding.com/sketch -->
    <title>soc-picasa</title>
    <desc>Created with Sketch.</desc>
    <defs></defs>
    <g id="44px-Glyph" stroke="none" stroke-width="1" fill="none" fill-rule="evenodd">
        <g id="soc-picasa" fill="#000000">
            <path d="M37.0908,27.3125 L30.2828,27.3125 L30.2828,8.3555 C35.0438,11.2575 37.9998,16.4605 37.9998,22.0335 C37.9998,23.8295 37.6878,25.6025 37.0908,27.3125 L37.0908,27.3125 Z M23.4608,38.0005 L20.5238,38.0005 C18.7718,37.8365 17.0708,37.3825 15.4458,36.6505 L15.4458,29.0015 L36.3708,29.0015 C33.9198,34.0685 28.9878,37.4845 23.4608,38.0005 L23.4608,38.0005 Z M13.7638,35.7265 C10.7758,33.9175 8.4358,31.1835 7.1528,27.9605 C7.3368,27.7935 13.2288,22.4295 13.7638,21.9415 L13.7638,35.7265 Z M5.9998,22.0335 C5.9998,15.9865 9.3358,10.5395 14.7088,7.7775 C14.8908,7.9415 20.4918,13.0395 20.7638,13.2835 C20.4858,13.5375 7.0148,25.8025 6.5808,26.1975 C6.2078,24.8105 5.9998,23.4125 5.9998,22.0335 L5.9998,22.0335 Z M21.9988,6.0005 C24.2898,6.0005 26.5078,6.4865 28.5968,7.4345 L28.5968,18.1285 C28.0498,17.6285 16.8348,7.4295 16.4118,7.0445 C18.2158,6.3685 20.0908,6.0005 21.9988,6.0005 L21.9988,6.0005 Z M21.9998,0.0005 C9.8688,0.0005 -0.0002,9.8695 -0.0002,22.0005 C-0.0002,34.1305 9.8688,43.9995 21.9998,43.9995 C34.1308,43.9995 43.9998,34.1305 43.9998,22.0005 C43.9998,9.8695 34.1308,0.0005 21.9998,0.0005 L21.9998,0.0005 Z" id="Fill-49"></path>
        </g>
    </g>
</svg>