<?xml version="1.0" encoding="UTF-8" standalone="no"?>
<svg width="44px" height="44px" viewBox="0 0 44 44" version="1.1" xmlns="http://www.w3.org/2000/svg" xmlns:xlink="http://www.w3.org/1999/xlink">
    <!-- Generator: Sketch 3.7.2 (28276) - http://www.bohemiancoding.com/sketch -->
    <title>soc-sharethis</title>
    <desc>Created with Sketch.</desc>
    <defs></defs>
    <g id="44px-Glyph" stroke="none" stroke-width="1" fill="none" fill-rule="evenodd">
        <g id="soc-sharethis" fill="#000000">
            <path d="M17.876,21.7598 C17.876,21.9338 17.867,22.1058 17.852,22.2778 L25.667,26.9468 C26.551,26.0548 27.746,25.5068 29.062,25.5068 C31.789,25.5068 34,27.8578 34,30.7538 C34,33.6508 31.789,35.9998 29.062,35.9998 C26.335,35.9998 24.124,33.6508 24.124,30.7538 C24.124,30.6978 24.126,30.6428 24.128,30.5878 L16.101,25.7888 C15.244,26.5488 14.141,27.0058 12.937,27.0058 C10.211,27.0058 8,24.6558 8,21.7598 C8,18.8598 10.211,16.5118 12.937,16.5118 C14.211,16.5118 15.373,17.0258 16.248,17.8648 L24.125,13.2928 C24.125,13.2778 24.124,13.2618 24.124,13.2458 C24.124,10.3478 26.335,7.9998 29.062,7.9998 C31.789,7.9998 34,10.3478 34,13.2458 C34,16.1448 31.789,18.4928 29.062,18.4928 C27.706,18.4928 26.478,17.9118 25.586,16.9718 L17.867,21.4548 C17.873,21.5568 17.876,21.6598 17.876,21.7598 M22,-0.0002 C9.869,-0.0002 0,9.8688 0,21.9998 C0,34.1308 9.869,43.9998 22,43.9998 C34.131,43.9998 44,34.1308 44,21.9998 C44,9.8688 34.131,-0.0002 22,-0.0002" id="Fill-22"></path>
        </g>
    </g>
</svg>