<?xml version="1.0" encoding="UTF-8" standalone="no"?>
<svg width="64px" height="64px" viewBox="0 0 64 64" version="1.1" xmlns="http://www.w3.org/2000/svg" xmlns:xlink="http://www.w3.org/1999/xlink">
    <!-- Generator: Sketch 3.7.2 (28276) - http://www.bohemiancoding.com/sketch -->
    <title>soc-deezer</title>
    <desc>Created with Sketch.</desc>
    <defs></defs>
    <g id="64px-Glyph" stroke="none" stroke-width="1" fill="none" fill-rule="evenodd">
        <g id="soc-deezer" fill="#000000">
            <path d="M43.063,24.183 L50,24.183 L50,22 L43.063,22 L43.063,24.183 Z M43.063,27.02 L50,27.02 L50,24.838 L43.063,24.838 L43.063,27.02 Z M43.063,29.857 L50,29.857 L50,27.675 L43.063,27.675 L43.063,29.857 Z M43.063,32.695 L50,32.695 L50,30.512 L43.063,30.512 L43.063,32.695 Z M43.063,35.533 L50,35.533 L50,33.349 L43.063,33.349 L43.063,35.533 Z M43.063,38.369 L50,38.369 L50,36.187 L43.063,36.187 L43.063,38.369 Z M43.063,41.207 L50,41.207 L50,39.024 L43.063,39.024 L43.063,41.207 Z M43.063,44 L50,44 L50,41.861 L43.063,41.861 L43.063,44 Z M35.286,32.695 L42.223,32.695 L42.223,30.513 L35.286,30.513 L35.286,32.695 Z M35.286,35.533 L42.223,35.533 L42.223,33.351 L35.286,33.351 L35.286,35.533 Z M35.286,38.371 L42.223,38.371 L42.223,36.187 L35.286,36.187 L35.286,38.371 Z M35.286,41.207 L42.223,41.207 L42.223,39.024 L35.286,39.024 L35.286,41.207 Z M35.286,44 L42.223,44 L42.223,41.861 L35.286,41.861 L35.286,44 Z M27.509,27.021 L34.446,27.021 L34.446,24.839 L27.509,24.839 L27.509,27.021 Z M27.509,29.858 L34.446,29.858 L34.446,27.675 L27.509,27.675 L27.509,29.858 Z M27.509,32.695 L34.446,32.695 L34.446,30.513 L27.509,30.513 L27.509,32.695 Z M27.509,35.533 L34.446,35.533 L34.446,33.351 L27.509,33.351 L27.509,35.533 Z M27.509,38.371 L34.446,38.371 L34.446,36.187 L27.509,36.187 L27.509,38.371 Z M27.509,41.207 L34.446,41.207 L34.446,39.024 L27.509,39.024 L27.509,41.207 Z M27.509,44 L34.446,44 L34.446,41.861 L27.509,41.861 L27.509,44 Z M19.732,38.371 L26.668,38.371 L26.668,36.187 L19.732,36.187 L19.732,38.371 Z M19.732,41.207 L26.668,41.207 L26.668,39.024 L19.732,39.024 L19.732,41.207 Z M19.732,44 L26.668,44 L26.668,41.861 L19.732,41.861 L19.732,44 Z M12,32.695 L18.892,32.695 L18.892,30.513 L12,30.513 L12,32.695 Z M12,35.533 L18.892,35.533 L18.892,33.351 L12,33.351 L12,35.533 Z M12,38.371 L18.892,38.371 L18.892,36.187 L12,36.187 L12,38.371 Z M12,41.207 L18.892,41.207 L18.892,39.024 L12,39.024 L12,41.207 Z M12,44 L18.892,44 L18.892,41.861 L12,41.861 L12,44 Z M31,6 C16.088,6 4,18.089 4,33 C4,47.911 16.088,60 31,60 C45.912,60 58,47.911 58,33 C58,18.089 45.912,6 31,6 L31,6 Z" id="Fill-19"></path>
        </g>
    </g>
</svg>