<?xml version="1.0" encoding="UTF-8" standalone="no"?>
<svg width="44px" height="44px" viewBox="0 0 44 44" version="1.1" xmlns="http://www.w3.org/2000/svg" xmlns:xlink="http://www.w3.org/1999/xlink">
    <!-- Generator: Sketch 3.7.2 (28276) - http://www.bohemiancoding.com/sketch -->
    <title>soc-tumblr</title>
    <desc>Created with Sketch.</desc>
    <defs></defs>
    <g id="44px-Glyph" stroke="none" stroke-width="1" fill="none" fill-rule="evenodd">
        <g id="soc-tumblr" fill="#000000">
            <path d="M29.269,33.5156 C28.173,34.0346 27.176,34.3966 26.285,34.6076 C25.393,34.8166 24.429,34.9236 23.394,34.9236 C22.214,34.9236 21.523,34.7736 20.619,34.4766 C19.716,34.1766 18.944,33.7496 18.307,33.2016 C17.668,32.6486 17.227,32.0606 16.98,31.4396 C16.733,30.8166 16.61,29.9136 16.61,28.7326 L16.61,19.6696 L13.115,19.6696 L13.115,16.0096 C14.126,15.6776 15.298,15.2046 16.016,14.5896 C16.738,13.9736 17.316,13.2356 17.752,12.3726 C18.19,11.5076 18.489,10.4086 18.653,9.0776 L22.313,9.0776 L22.313,15.0556 L28.262,15.0556 L28.262,19.6696 L22.313,19.6696 L22.313,26.2966 C22.313,27.7926 22.294,28.6586 22.45,29.0836 C22.609,29.5076 23.002,29.9456 23.43,30.2006 C24.002,30.5426 24.65,30.7126 25.384,30.7126 C26.688,30.7126 27.983,30.2886 29.269,29.4366 L29.269,33.5156 Z M22,-0.0004 C9.869,-0.0004 0,9.8696 0,21.9996 C0,34.1306 9.869,43.9996 22,43.9996 C34.131,43.9996 44,34.1306 44,21.9996 C44,9.8696 34.131,-0.0004 22,-0.0004 L22,-0.0004 Z" id="Fill-39"></path>
        </g>
    </g>
</svg>