<?xml version="1.0" encoding="UTF-8" standalone="no"?>
<svg width="64px" height="64px" viewBox="0 0 64 64" version="1.1" xmlns="http://www.w3.org/2000/svg" xmlns:xlink="http://www.w3.org/1999/xlink">
    <!-- Generator: Sketch 3.7.2 (28276) - http://www.bohemiancoding.com/sketch -->
    <title>soc-blogger</title>
    <desc>Created with Sketch.</desc>
    <defs></defs>
    <g id="64px-Glyph" stroke="none" stroke-width="1" fill="none" fill-rule="evenodd">
        <g id="soc-blogger" fill="#000000">
            <path d="M47.9355,37.9053 C47.9045,43.4543 43.3755,48.0003 37.7945,48.0003 L26.1425,48.0003 C20.5605,48.0003 16.0005,43.4543 16.0005,37.9053 L16.0005,26.1133 C16.0005,20.5523 20.5605,16.0003 26.1425,16.0003 L33.2325,16.0003 C35.8525,16.3093 39.6635,18.5443 41.0695,21.5163 C41.4555,22.3523 41.6585,22.4793 41.9775,24.9483 C42.1515,26.2193 42.2395,27.1603 42.8055,27.6843 C43.6145,28.4103 46.5955,27.9193 47.1825,28.3793 L47.6335,28.7313 L47.9045,29.2903 L48.0005,29.7383 L47.9355,37.9053 Z M31.0005,6.0003 C16.0875,6.0003 4.0005,18.0893 4.0005,33.0003 C4.0005,47.9113 16.0875,60.0003 31.0005,60.0003 C45.9125,60.0003 58.0005,47.9113 58.0005,33.0003 C58.0005,18.0893 45.9125,6.0003 31.0005,6.0003 L31.0005,6.0003 Z" id="Fill-56"></path>
            <path d="M26.2725,28.125 L31.8955,28.125 C32.9665,28.125 33.8345,27.248 33.8345,26.189 C33.8345,25.13 32.9665,24.264 31.8955,24.264 L26.2725,24.264 C25.1965,24.264 24.3265,25.13 24.3265,26.189 C24.3265,27.248 25.1965,28.125 26.2725,28.125" id="Fill-57"></path>
            <path d="M37.6963,35.834 L26.2723,35.834 C25.1963,35.834 24.3263,36.699 24.3263,37.757 C24.3263,38.804 25.1963,39.684 26.2723,39.684 L37.6963,39.684 C38.7583,39.684 39.6303,38.804 39.6303,37.757 C39.6303,36.699 38.7583,35.834 37.6963,35.834" id="Fill-58"></path>
        </g>
    </g>
</svg>