<?xml version="1.0" encoding="UTF-8" standalone="no"?>
<svg width="64px" height="64px" viewBox="0 0 64 64" version="1.1" xmlns="http://www.w3.org/2000/svg" xmlns:xlink="http://www.w3.org/1999/xlink">
    <!-- Generator: Sketch 3.7.2 (28276) - http://www.bohemiancoding.com/sketch -->
    <title>soc-myspace</title>
    <desc>Created with Sketch.</desc>
    <defs></defs>
    <g id="64px-Glyph" stroke="none" stroke-width="1" fill="none" fill-rule="evenodd">
        <g id="soc-myspace" fill="#000000">
            <path d="M44,36 L44,48 L30,48 L30,42 L22,42 L22,38 L14,38 L14,31 L14.016,31 C14.008,30.899 14,30.8 14,30.698 C14,28.214 16.016,26.198 18.5,26.198 C20.215,26.198 21.705,27.159 22.465,28.569 C23.469,27.483 24.902,26.8 26.5,26.8 C28.695,26.8 30.586,28.089 31.467,29.948 C32.799,28.741 34.56,28 36.5,28 C40.643,28 44,31.356 44,35.5 C44,35.668 43.984,35.834 43.975,36 L44,36 Z M18.5,19 C20.322,19 21.799,20.477 21.799,22.3 C21.799,24.122 20.322,25.601 18.5,25.601 C16.678,25.601 15.201,24.122 15.201,22.3 C15.201,20.477 16.678,19 18.5,19 L18.5,19 Z M26.5,18 C28.727,18 30.533,19.806 30.533,22.032 C30.533,24.261 28.727,26.065 26.5,26.065 C24.273,26.065 22.467,24.261 22.467,22.032 C22.467,19.806 24.273,18 26.5,18 L26.5,18 Z M36.5,16 C39.537,16 42,18.462 42,21.5 C42,24.536 39.537,27 36.5,27 C33.463,27 31,24.536 31,21.5 C31,18.462 33.463,16 36.5,16 L36.5,16 Z M31,6 C16.088,6 4,18.089 4,33 C4,47.911 16.088,60 31,60 C45.912,60 58,47.911 58,33 C58,18.089 45.912,6 31,6 L31,6 Z" id="Fill-53"></path>
        </g>
    </g>
</svg>