<?xml version="1.0" encoding="UTF-8" standalone="no"?>
<svg width="64px" height="64px" viewBox="0 0 64 64" version="1.1" xmlns="http://www.w3.org/2000/svg" xmlns:xlink="http://www.w3.org/1999/xlink">
    <!-- Generator: Sketch 3.7.2 (28276) - http://www.bohemiancoding.com/sketch -->
    <title>soc-behance</title>
    <desc>Created with Sketch.</desc>
    <defs></defs>
    <g id="64px-Glyph" stroke="none" stroke-width="1" fill="none" fill-rule="evenodd">
        <g id="soc-behance" fill="#000000">
            <path d="M48.9736,36.0381 L38.1406,36.0381 C38.1406,37.2341 38.5416,38.3671 39.1606,38.9761 C39.7786,39.5841 40.6726,39.8901 41.8276,39.8901 C42.6606,39.8901 43.3776,39.6771 43.9816,39.2551 C44.5776,38.8341 44.9426,38.3811 45.0826,37.9131 L48.7146,37.9131 C48.1306,39.7341 47.2446,41.0361 46.0376,41.8211 C44.8426,42.6061 43.3876,43.0001 41.6896,43.0001 C40.5066,43.0001 39.4436,42.8061 38.4886,42.4261 C37.5336,42.0401 36.7346,41.5021 36.0636,40.7961 C35.4096,40.0911 34.9016,39.2551 34.5396,38.2721 C34.1796,37.2981 33.9996,36.2161 33.9996,35.0461 C33.9996,33.9131 34.1856,32.8561 34.5546,31.8781 C34.9286,30.8971 35.4466,30.0501 36.1266,29.3411 C36.8086,28.6281 37.6166,28.0631 38.5596,27.6521 C39.4996,27.2431 40.5396,27.0351 41.6896,27.0351 C42.9606,27.0351 44.0746,27.2821 45.0256,27.7851 C45.9766,28.2801 46.7556,28.9511 47.3686,29.7931 C47.9796,30.6301 48.4146,31.5891 48.6856,32.6661 C48.9556,33.7391 49.0516,34.8621 48.9736,36.0381 L48.9736,36.0381 Z M31.9026,39.6551 C31.4936,40.4351 30.9356,41.0681 30.2486,41.5561 C29.5546,42.0501 28.7606,42.4111 27.8706,42.6451 C26.9896,42.8801 26.0736,43.0001 25.1366,43.0001 L14.9996,43.0001 L14.9996,22.0001 L24.8596,22.0001 C25.8606,22.0001 26.7626,22.0871 27.5896,22.2651 C28.4096,22.4401 29.1086,22.7331 29.7006,23.1321 C30.2846,23.5321 30.7386,24.0631 31.0666,24.7331 C31.3856,25.3931 31.5436,26.2211 31.5436,27.1971 C31.5436,28.2551 31.3036,29.1381 30.8276,29.8431 C30.3456,30.5501 29.6376,31.1281 28.6946,31.5751 C29.9796,31.9461 30.9336,32.6011 31.5656,33.5311 C32.2006,34.4681 32.5126,35.5891 32.5126,36.9011 C32.5126,37.9671 32.3066,38.8841 31.9026,39.6551 L31.9026,39.6551 Z M36.9996,25.0001 L45.9996,25.0001 L45.9996,23.0001 L36.9996,23.0001 L36.9996,25.0001 Z M30.9996,6.0001 C16.0886,6.0001 3.9996,18.0891 3.9996,33.0001 C3.9996,47.9111 16.0886,60.0001 30.9996,60.0001 C45.9116,60.0001 57.9996,47.9111 57.9996,33.0001 C57.9996,18.0891 45.9116,6.0001 30.9996,6.0001 L30.9996,6.0001 Z" id="Fill-41"></path>
            <path d="M26.291,29.8955 C26.819,29.5075 27.079,28.8645 27.079,27.9855 C27.079,27.4975 26.993,27.0925 26.819,26.7805 C26.642,26.4665 26.408,26.2205 26.11,26.0475 C25.816,25.8705 25.481,25.7465 25.098,25.6785 C24.717,25.6045 24.32,25.5775 23.912,25.5775 L19.605,25.5775 L19.605,30.4825 L24.265,30.4825 C25.08,30.4825 25.755,30.2905 26.291,29.8955" id="Fill-42"></path>
            <path d="M24.6104,33.6396 L19.6054,33.6396 L19.6054,39.4236 L24.5194,39.4236 C24.9724,39.4236 25.4034,39.3826 25.8094,39.2896 C26.2224,39.2016 26.5864,39.0576 26.8954,38.8446 C27.2024,38.6416 27.4584,38.3626 27.6444,38.0076 C27.8304,37.6556 27.9204,37.1986 27.9204,36.6466 C27.9204,35.5636 27.6154,34.7956 27.0124,34.3286 C26.4084,33.8696 25.6014,33.6396 24.6104,33.6396" id="Fill-43"></path>
            <path d="M41.5654,30.1768 C40.9074,30.1768 40.3624,30.2878 39.9254,30.5158 C39.4984,30.7408 39.1474,31.0208 38.8814,31.3508 C38.6154,31.6858 38.4334,32.0398 38.3284,32.4178 C38.2224,32.7858 38.1594,33.1198 38.1404,33.4158 L44.8484,33.4158 C44.7504,32.3548 44.3904,31.5698 43.8994,31.0188 C43.4094,30.4728 42.5794,30.1768 41.5654,30.1768" id="Fill-44"></path>
        </g>
    </g>
</svg>