<?xml version="1.0" encoding="UTF-8" standalone="no"?>
<svg width="64px" height="64px" viewBox="0 0 64 64" version="1.1" xmlns="http://www.w3.org/2000/svg" xmlns:xlink="http://www.w3.org/1999/xlink">
    <!-- Generator: Sketch 3.7.2 (28276) - http://www.bohemiancoding.com/sketch -->
    <title>soc-digg</title>
    <desc>Created with Sketch.</desc>
    <defs></defs>
    <g id="64px-Glyph" stroke="none" stroke-width="1" fill="none" fill-rule="evenodd">
        <g id="soc-digg" fill="#000000">
            <path d="M48,43.3193 L39.43,43.3193 L39.43,40.2783 L44.515,40.2783 L44.515,38.8833 L39.43,38.8833 L39.43,28.4363 L48,28.4363 L48,43.3193 Z M37.829,43.3193 L29.258,43.3193 L29.258,40.2783 L34.344,40.2783 L34.344,38.8833 L29.258,38.8833 L29.258,28.4363 L37.829,28.4363 L37.829,43.3193 Z M24.171,27.0433 L27.656,27.0433 L27.656,24.0003 L24.171,24.0003 L24.171,27.0433 Z M24.171,38.8833 L27.656,38.8833 L27.656,28.4363 L24.171,28.4363 L24.171,38.8833 Z M22.57,38.8833 L14,38.8833 L14,28.4363 L19.085,28.4363 L19.085,24.0003 L22.57,24.0003 L22.57,38.8833 Z M31,6.0003 C16.088,6.0003 4,18.0893 4,33.0003 C4,47.9113 16.088,60.0003 31,60.0003 C45.912,60.0003 58,47.9113 58,33.0003 C58,18.0893 45.912,6.0003 31,6.0003 L31,6.0003 Z" id="Fill-32"></path>
            <polygon id="Fill-33" points="32.742 35.831 34.344 35.831 34.344 31.477 32.742 31.477"></polygon>
            <polygon id="Fill-34" points="42.915 35.831 44.515 35.831 44.515 31.477 42.915 31.477"></polygon>
            <polygon id="Fill-35" points="17.485 35.831 19.085 35.831 19.085 31.477 17.485 31.477"></polygon>
        </g>
    </g>
</svg>