<?xml version="1.0" encoding="UTF-8" standalone="no"?>
<svg width="64px" height="64px" viewBox="0 0 64 64" version="1.1" xmlns="http://www.w3.org/2000/svg" xmlns:xlink="http://www.w3.org/1999/xlink">
    <!-- Generator: Sketch 3.7.2 (28276) - http://www.bohemiancoding.com/sketch -->
    <title>soc-forrst</title>
    <desc>Created with Sketch.</desc>
    <defs></defs>
    <g id="64px-Glyph" stroke="none" stroke-width="1" fill="none" fill-rule="evenodd">
        <g id="soc-forrst" fill="#000000">
            <path d="M33,47 L33,41.59 L38.685,38.743 L38.012,37.383 L33,39.893 L33,37.933 L36.281,36.198 L35.532,34.818 L33,36.154 L33,33 L29,33 L29,38.013 L26.556,36.341 L25.703,37.606 L29,39.866 L29,47 L17,47 L31,13.439 L45,47 L33,47 Z M31,6 C16.088,6 4,18.089 4,33 C4,47.911 16.088,60 31,60 C45.912,60 58,47.911 58,33 C58,18.089 45.912,6 31,6 L31,6 Z" id="Fill-39"></path>
        </g>
    </g>
</svg>