<?xml version="1.0" encoding="UTF-8" standalone="no"?>
<svg width="64px" height="64px" viewBox="0 0 64 64" version="1.1" xmlns="http://www.w3.org/2000/svg" xmlns:xlink="http://www.w3.org/1999/xlink">
    <!-- Generator: Sketch 3.7.2 (28276) - http://www.bohemiancoding.com/sketch -->
    <title>soc-flickr</title>
    <desc>Created with Sketch.</desc>
    <defs></defs>
    <g id="64px-Glyph" stroke="none" stroke-width="1" fill="none" fill-rule="evenodd">
        <g id="soc-flickr" fill="#000000">
            <path d="M41,40 C37.134,40 34,36.865 34,33 C34,29.133 37.134,26 41,26 C44.866,26 48,29.133 48,33 C48,36.865 44.866,40 41,40 M21,40 C17.134,40 14,36.865 14,33 C14,29.133 17.134,26 21,26 C24.866,26 28,29.133 28,33 C28,36.865 24.866,40 21,40 M31,6 C16.088,6 4,18.089 4,33 C4,47.911 16.088,60 31,60 C45.912,60 58,47.911 58,33 C58,18.089 45.912,6 31,6" id="Fill-51"></path>
            <path d="M41,27.5986 C38.022,27.5986 35.6,30.0216 35.6,32.9996 C35.6,35.9766 38.022,38.3996 41,38.3996 C43.977,38.3996 46.4,35.9766 46.4,32.9996 C46.4,30.0216 43.977,27.5986 41,27.5986" id="Fill-52"></path>
        </g>
    </g>
</svg>