<?xml version="1.0" encoding="UTF-8" standalone="no"?>
<svg width="64px" height="64px" viewBox="0 0 64 64" version="1.1" xmlns="http://www.w3.org/2000/svg" xmlns:xlink="http://www.w3.org/1999/xlink">
    <!-- Generator: Sketch 3.7.2 (28276) - http://www.bohemiancoding.com/sketch -->
    <title>soc-foursquare</title>
    <desc>Created with Sketch.</desc>
    <defs></defs>
    <g id="64px-Glyph" stroke="none" stroke-width="1" fill="none" fill-rule="evenodd">
        <g id="soc-foursquare" fill="#000000">
            <path d="M56.877,25.29 L43.524,36.53 L44.074,37.08 C44.964,37.968 44.964,39.407 44.074,40.297 L32.977,51.394 C32.089,52.282 30.648,52.282 29.761,51.394 L18.851,40.485 C16.748,40.06 14.795,38.877 13.449,36.991 C10.626,33.038 11.54,27.543 15.493,24.718 C19.446,21.894 24.939,22.808 27.765,26.763 C27.937,27.003 28.093,27.253 28.237,27.505 L29.761,25.982 C30.648,25.093 32.089,25.093 32.977,25.982 L36.9,29.905 L49.072,12.942 C44.286,8.628 37.951,6 31,6 C16.088,6 4,18.089 4,33 C4,47.911 16.088,60 31,60 C45.912,60 58,47.911 58,33 C58,30.32 57.603,27.733 56.877,25.29" id="Fill-26"></path>
            <path d="M26.0391,27.2285 C24.6791,25.6385 22.6971,24.7265 20.6021,24.7265 C18.9031,24.7265 17.2531,25.3365 15.9601,26.4445 C14.5091,27.6845 13.6281,29.4175 13.4791,31.3215 C13.3311,33.2245 13.9321,35.0715 15.1751,36.5245 C16.5341,38.1125 18.5151,39.0245 20.6091,39.0245 C21.3471,39.0245 22.0711,38.9035 22.7651,38.6835 L30.7571,45.1125 C30.7571,45.1125 31.1591,45.4855 31.6051,45.1245 L56.5011,24.1285 C55.1161,20.1475 52.8281,16.5905 49.8781,13.7045 L31.7741,38.6945 C31.2631,39.2665 30.8101,38.9655 30.6301,38.7525 C30.5631,38.6725 29.0981,36.7525 27.2961,34.3895 C28.1771,32.0305 27.7881,29.2745 26.0391,27.2285" id="Fill-27"></path>
        </g>
    </g>
</svg>