<?xml version="1.0" encoding="UTF-8" standalone="no"?>
<svg width="64px" height="64px" viewBox="0 0 64 64" version="1.1" xmlns="http://www.w3.org/2000/svg" xmlns:xlink="http://www.w3.org/1999/xlink">
    <!-- Generator: Sketch 3.7.2 (28276) - http://www.bohemiancoding.com/sketch -->
    <title>soc-github</title>
    <desc>Created with Sketch.</desc>
    <defs></defs>
    <g id="64px-Glyph" stroke="none" stroke-width="1" fill="none" fill-rule="evenodd">
        <g id="soc-github" fill="#000000">
            <path d="M31,58 C28.57,58 26.223,57.645 24,56.995 L24,51.198 C24,48.554 25.342,47.149 26.452,46.39 C20.441,45.769 14,43.604 14,33.235 C14,30.327 15.028,27.948 16.731,26.112 C16.462,25.411 15.568,22.714 17.005,19.064 C17.005,19.064 19.251,18.337 24.341,21.788 C26.452,21.198 28.753,21 31,21 C33.272,21 35.548,21.198 37.685,21.788 C42,19 44.996,19 44.996,19 C46.457,22.649 45.536,25.411 45.266,26.112 C46.97,27.948 48,30.327 48,33.235 C48,43.604 41.557,45.769 35.548,46.39 C36.656,47.149 38,48.554 38,51.198 L38,56.995 C35.777,57.645 33.43,58 31,58 M31,6 C16.088,6 4,18.089 4,33 C4,47.911 16.088,60 31,60 C45.912,60 58,47.911 58,33 C58,18.089 45.912,6 31,6" id="Fill-31"></path>
        </g>
    </g>
</svg>