<?xml version="1.0" encoding="UTF-8" standalone="no"?>
<svg width="44px" height="44px" viewBox="0 0 44 44" version="1.1" xmlns="http://www.w3.org/2000/svg" xmlns:xlink="http://www.w3.org/1999/xlink">
    <!-- Generator: Sketch 3.7.2 (28276) - http://www.bohemiancoding.com/sketch -->
    <title>soc-windows</title>
    <desc>Created with Sketch.</desc>
    <defs></defs>
    <g id="44px-Glyph" stroke="none" stroke-width="1" fill="none" fill-rule="evenodd">
        <g id="soc-windows" fill="#000000">
            <path d="M34,21.4668 L20.642,21.4668 L20.642,11.9208 L34,9.9998 L34,21.4668 Z M34,33.9998 L20.642,32.0558 L20.642,22.3928 L34,22.3928 L34,33.9998 Z M19.701,21.4668 L10,21.4668 L10,13.4518 L19.701,12.0568 L19.701,21.4668 Z M19.701,31.9178 L10,30.5078 L10,22.3928 L19.701,22.3928 L19.701,31.9178 Z M22,-0.0002 C9.869,-0.0002 0,9.8688 0,21.9998 C0,34.1308 9.869,43.9998 22,43.9998 C34.131,43.9998 44,34.1308 44,21.9998 C44,9.8688 34.131,-0.0002 22,-0.0002 L22,-0.0002 Z" id="Fill-4"></path>
        </g>
    </g>
</svg>