<?xml version="1.0" encoding="UTF-8" standalone="no"?>
<svg width="44px" height="44px" viewBox="0 0 44 44" version="1.1" xmlns="http://www.w3.org/2000/svg" xmlns:xlink="http://www.w3.org/1999/xlink">
    <!-- Generator: Sketch 3.7.2 (28276) - http://www.bohemiancoding.com/sketch -->
    <title>soc-rss</title>
    <desc>Created with Sketch.</desc>
    <defs></defs>
    <g id="44px-Glyph" stroke="none" stroke-width="1" fill="none" fill-rule="evenodd">
        <g id="soc-rss" fill="#000000">
            <path d="M30.2676,33.3076 C30.2676,22.5076 21.4896,13.7166 10.7046,13.7166 L10.7046,9.0786 C24.0616,9.0786 34.9226,19.9466 34.9226,33.3076 L30.2676,33.3076 Z M22.0266,33.3076 C22.0266,30.2696 20.8436,27.4156 18.7076,25.2766 C16.5676,23.1346 13.7206,21.9526 10.6986,21.9526 L10.6986,17.3086 C19.5126,17.3086 26.6886,24.4846 26.6886,33.3076 L22.0266,33.3076 Z M13.9216,33.2816 C12.1416,33.2816 10.6926,31.8406 10.6926,30.0666 C10.6926,28.2956 12.1416,26.8476 13.9216,26.8476 C15.7086,26.8476 17.1526,28.2956 17.1526,30.0666 C17.1526,31.8406 15.7086,33.2816 13.9216,33.2816 L13.9216,33.2816 Z M21.9996,-0.0004 C9.8696,-0.0004 -0.0004,9.8686 -0.0004,21.9996 C-0.0004,34.1306 9.8696,43.9996 21.9996,43.9996 C34.1306,43.9996 43.9996,34.1306 43.9996,21.9996 C43.9996,9.8686 34.1306,-0.0004 21.9996,-0.0004 L21.9996,-0.0004 Z" id="Fill-36"></path>
        </g>
    </g>
</svg>