<?xml version="1.0" encoding="UTF-8" standalone="no"?>
<svg width="64px" height="64px" viewBox="0 0 64 64" version="1.1" xmlns="http://www.w3.org/2000/svg" xmlns:xlink="http://www.w3.org/1999/xlink">
    <!-- Generator: Sketch 3.7.2 (28276) - http://www.bohemiancoding.com/sketch -->
    <title>soc-deviantart</title>
    <desc>Created with Sketch.</desc>
    <defs></defs>
    <g id="64px-Glyph" stroke="none" stroke-width="1" fill="none" fill-rule="evenodd">
        <g id="soc-deviantart" fill="#000000">
            <path d="M17.7505,38.3584 L24.6735,36.4434 L21.5765,30.0374 C16.9175,32.8604 17.4175,36.9724 17.7505,38.3584" id="Fill-24"></path>
            <path d="M34.1279,37.8457 L30.2109,29.7737 C30.8679,29.6957 31.5329,29.6547 32.1969,29.6547 C33.1319,29.6547 34.0869,29.7377 35.0279,29.9027 L36.7349,33.1187 L43.7349,31.1857 C41.8649,29.8217 35.7149,26.0607 26.7029,28.0977 C26.4199,28.1547 26.1849,28.2407 25.9229,28.3047 L31.0019,38.7537 L13.0129,43.9997 C12.5289,42.6977 11.1459,38.3297 12.7609,34.1937 C13.8929,31.2977 16.2719,29.0717 19.8309,27.5807 L20.3009,27.3887 L17.9769,22.5687 L22.8579,21.9997 L24.8549,26.1127 L25.5549,25.9767 C28.2259,25.5187 30.8149,25.2817 33.2379,25.2817 C45.0899,25.2817 50.5629,30.8627 51.9999,32.6207 L34.1279,37.8457 Z M30.9999,5.9997 C16.0879,5.9997 3.9999,18.0887 3.9999,32.9997 C3.9999,47.9107 16.0879,59.9997 30.9999,59.9997 C45.9119,59.9997 57.9999,47.9107 57.9999,32.9997 C57.9999,18.0887 45.9119,5.9997 30.9999,5.9997 L30.9999,5.9997 Z" id="Fill-25"></path>
        </g>
    </g>
</svg>