<?xml version="1.0" encoding="UTF-8" standalone="no"?>
<svg width="64px" height="64px" viewBox="0 0 64 64" version="1.1" xmlns="http://www.w3.org/2000/svg" xmlns:xlink="http://www.w3.org/1999/xlink">
    <!-- Generator: Sketch 3.7.2 (28276) - http://www.bohemiancoding.com/sketch -->
    <title>soc-email</title>
    <desc>Created with Sketch.</desc>
    <defs></defs>
    <g id="64px-Glyph" stroke="none" stroke-width="1" fill="none" fill-rule="evenodd">
        <g id="soc-email" fill="#000000">
            <path d="M48,43.5 C48,44.879 46.879,46 45.5,46 L16.5,46 C15.121,46 14,44.879 14,43.5 L14,24.5 C14,23.801 14.29,23.169 14.754,22.715 C14.757,22.712 14.758,22.708 14.761,22.705 C14.771,22.694 14.786,22.691 14.797,22.68 C15.244,22.262 15.84,22 16.5,22 L45.5,22 C46.136,22 46.71,22.246 47.152,22.638 C47.169,22.653 47.191,22.659 47.207,22.676 C47.212,22.681 47.213,22.687 47.217,22.692 C47.697,23.148 48,23.787 48,24.5 L48,43.5 Z M31,6 C16.088,6 4,18.089 4,33 C4,47.911 16.088,60 31,60 C45.912,60 58,47.911 58,33 C58,18.089 45.912,6 31,6 L31,6 Z" id="Fill-45"></path>
            <path d="M31,36.7676 C31.077,36.7676 31.226,36.7486 31.353,36.6216 L44.4,23.9996 L17.545,23.9996 L30.633,36.6086 C30.774,36.7486 30.923,36.7676 31,36.7676" id="Fill-46"></path>
            <path d="M32.7559,38.0469 C32.2759,38.5269 31.6409,38.7679 31.0039,38.7679 C30.3629,38.7679 29.7209,38.5239 29.2329,38.0349 L15.9999,25.2869 L15.9999,43.4999 C15.9999,43.7759 16.2249,43.9999 16.4999,43.9999 L45.4999,43.9999 C45.7759,43.9999 45.9999,43.7759 45.9999,43.4999 L45.9999,25.2349 L32.7559,38.0469 Z" id="Fill-47"></path>
        </g>
    </g>
</svg>