<?xml version="1.0" encoding="UTF-8" standalone="no"?>
<svg width="64px" height="64px" viewBox="0 0 64 64" version="1.1" xmlns="http://www.w3.org/2000/svg" xmlns:xlink="http://www.w3.org/1999/xlink">
    <!-- Generator: Sketch 3.7.2 (28276) - http://www.bohemiancoding.com/sketch -->
    <title>soc-google</title>
    <desc>Created with Sketch.</desc>
    <defs></defs>
    <g id="64px-Glyph" stroke="none" stroke-width="1" fill="none" fill-rule="evenodd">
        <g id="soc-google" fill="#000000">
            <path d="M25.5859,19.4023 C23.0159,19.3283 21.2949,21.8903 21.7339,25.2463 C22.1819,28.5973 24.6229,31.3793 27.1909,31.4573 C29.7559,31.5293 31.4809,28.8733 31.0389,25.5233 C30.5939,22.1683 28.1519,19.4783 25.5859,19.4023" id="Fill-89"></path>
            <path d="M26.8496,37.9648 C23.0236,37.9238 19.5956,40.2808 19.5956,43.1168 C19.5956,46.0098 22.3596,48.4178 26.1836,48.4178 C31.5626,48.4178 33.4376,46.1558 33.4376,43.2638 C33.4376,42.9138 33.3966,42.5738 33.3166,42.2418 C32.8946,40.6058 31.4066,39.7948 29.3286,38.3598 C28.5746,38.1148 27.7446,37.9748 26.8496,37.9648" id="Fill-90"></path>
            <path d="M50,26 L44,26 L44,32 L42,32 L42,26 L36,26 L36,24 L42,24 L42,18 L44,18 L44,24 L50,24 L50,26 Z M26.203,50 C20.668,50 16,47.76 16,44.184 C16,40.547 20.258,37.043 25.797,37.043 C26.398,37.043 26.949,37.027 27.521,37.027 C26.764,36.291 26.166,35.395 26.166,34.289 C26.166,33.633 26.375,32.998 26.67,32.437 C26.371,32.457 26.063,32.465 25.75,32.465 C21.201,32.465 18.156,29.246 18.156,25.264 C18.156,21.367 22.359,18 26.83,18 L36.797,18 L34.568,19.603 L31.406,19.603 C33.502,20.402 34.621,22.836 34.621,25.328 C34.621,27.422 33.453,29.223 31.803,30.504 C30.197,31.75 29.891,32.275 29.891,33.338 C29.891,34.242 31.613,35.785 32.514,36.418 C35.15,38.272 36.002,39.99 36.002,42.861 C36.002,46.441 32.514,50 26.203,50 L26.203,50 Z M31,6 C16.112,6 4,18.112 4,33 C4,47.888 16.112,60 31,60 C45.888,60 58,47.888 58,33 C58,18.112 45.888,6 31,6 L31,6 Z" id="Fill-91"></path>
        </g>
    </g>
</svg>