<?xml version="1.0" encoding="UTF-8" standalone="no"?>
<svg width="44px" height="44px" viewBox="0 0 44 44" version="1.1" xmlns="http://www.w3.org/2000/svg" xmlns:xlink="http://www.w3.org/1999/xlink">
    <!-- Generator: Sketch 3.7.2 (28276) - http://www.bohemiancoding.com/sketch -->
    <title>soc-vimeo</title>
    <desc>Created with Sketch.</desc>
    <defs></defs>
    <g id="44px-Glyph" stroke="none" stroke-width="1" fill="none" fill-rule="evenodd">
        <g id="soc-vimeo" fill="#000000">
            <path d="M33.5547,17.9922 L33.4887,18.2072 C33.1177,19.3852 32.3007,21.0992 31.3577,22.6792 C30.3197,24.4252 28.7357,26.7052 27.3727,28.4122 C24.7067,31.7592 22.4187,33.5762 20.4007,33.9492 C20.0247,34.0192 19.4627,34.0152 19.1787,33.9392 C17.9307,33.6102 16.8927,32.2892 15.9927,29.8692 C15.9157,29.6642 15.5377,28.2322 14.8167,25.4222 C14.2307,23.1442 13.7087,21.1112 13.6527,20.9122 C13.2887,19.5862 12.8137,18.3752 12.3967,17.7152 C12.0777,17.2112 11.6767,16.8792 11.3367,16.8442 C11.1997,16.8282 11.1767,16.8322 10.9637,16.9452 C10.7407,17.0642 10.0937,17.5002 9.5447,17.9042 C9.3907,18.0172 9.2487,18.1172 9.2337,18.1292 C9.2147,18.1402 8.9947,17.8602 8.6247,17.3502 C8.3037,16.9162 8.0267,16.5392 8.0077,16.5152 C7.9777,16.4762 8.0237,16.4252 8.4167,16.0552 C9.0737,15.4412 10.4067,14.1762 11.0767,13.5272 C12.2847,12.3652 12.9857,11.7682 13.7937,11.2132 C14.6587,10.6172 15.2047,10.3922 15.8457,10.3632 C17.4597,10.2862 18.5317,11.3002 19.1137,13.4532 C19.2507,13.9672 19.3157,14.3082 19.5257,15.7092 C20.0777,19.3522 20.3107,20.6662 20.6757,22.1832 C21.1087,23.9902 21.5917,25.0442 22.1037,25.3062 C22.2427,25.3782 22.2837,25.3902 22.4087,25.3782 C22.9717,25.3342 23.7717,24.4142 24.8737,22.5582 C25.7807,21.0282 26.3307,19.7952 26.5247,18.8512 C26.5727,18.6152 26.5817,18.4962 26.5827,18.0132 C26.5827,17.5452 26.5767,17.4202 26.5377,17.2772 C26.4097,16.7992 26.1707,16.4762 25.7957,16.2842 C25.4927,16.1302 25.2897,16.0902 24.8067,16.0902 C24.2427,16.0902 23.7467,16.1882 23.1817,16.4082 C23.0247,16.4712 22.9267,16.5002 22.9227,16.4812 C22.9187,16.4652 22.9767,16.2602 23.0517,16.0292 C23.5057,14.6272 24.0377,13.5472 24.7337,12.6102 C24.9867,12.2722 25.4867,11.7322 25.7797,11.4822 C26.2737,11.0662 26.9277,10.6702 27.5057,10.4472 C28.7697,9.9592 30.4977,9.8362 31.5787,10.2482 C35.3997,11.7072 33.5547,17.9922 33.5547,17.9922 M21.9997,0.0002 C9.8687,0.0002 -0.0003,9.8692 -0.0003,22.0002 C-0.0003,34.1312 9.8687,44.0002 21.9997,44.0002 C34.1307,44.0002 43.9997,34.1312 43.9997,22.0002 C43.9997,9.8692 34.1307,0.0002 21.9997,0.0002" id="Fill-59"></path>
        </g>
    </g>
</svg>