<?xml version="1.0" encoding="UTF-8" standalone="no"?>
<svg width="44px" height="44px" viewBox="0 0 44 44" version="1.1" xmlns="http://www.w3.org/2000/svg" xmlns:xlink="http://www.w3.org/1999/xlink">
    <!-- Generator: Sketch 3.7.2 (28276) - http://www.bohemiancoding.com/sketch -->
    <title>soc-yelp</title>
    <desc>Created with Sketch.</desc>
    <defs></defs>
    <g id="44px-Glyph" stroke="none" stroke-width="1" fill="none" fill-rule="evenodd">
        <g id="soc-yelp" fill="#000000">
            <path d="M33.8057,30.2188 L30.8007,34.6248 C30.8007,34.6248 30.2637,35.0818 29.7207,35.0818 C29.1797,35.0818 28.5547,34.2238 28.5547,34.2238 L24.7527,27.7128 C24.7527,27.7128 24.3257,26.7628 24.8307,26.2418 C25.2947,25.7598 25.9917,25.9488 25.9917,25.9488 L33.1087,28.2928 C33.1087,28.2928 34.1267,28.4828 34.1147,29.1758 C34.1087,29.6618 33.8057,30.2188 33.8057,30.2188 M24.4897,21.7328 L28.5007,15.2568 C28.5007,15.2568 28.9147,14.4218 29.5887,14.4808 C30.1987,14.5308 30.4917,15.0518 30.4917,15.0518 L33.8847,19.1508 C33.8847,19.1508 34.1797,19.8008 34.0447,20.3378 C33.9067,20.8768 32.9387,21.2798 32.9387,21.2798 L25.8397,23.4068 C25.8397,23.4068 24.8347,23.5918 24.4707,22.9588 C24.1347,22.3768 24.4897,21.7328 24.4897,21.7328 M21.4647,37.2828 C21.0087,37.4198 20.4057,37.2908 20.4057,37.2908 L15.4317,35.6818 C15.0847,35.5098 14.8397,35.2638 14.6917,34.7718 C14.5347,34.2468 15.1517,33.3908 15.1517,33.3908 L20.1047,27.7998 C20.1047,27.7998 20.8647,27.1078 21.4987,27.4418 C22.0807,27.7518 22.1057,28.4798 22.1057,28.4798 L21.9927,36.0508 C21.9927,36.0508 22.1137,37.0918 21.4647,37.2828 M10.0587,27.4048 C9.8307,26.9918 9.8927,26.0898 9.8927,26.0898 L10.3047,20.8808 C10.3347,20.5408 10.6437,20.1578 10.9937,19.9478 C11.4497,19.6708 12.3887,20.0678 12.3887,20.0678 L18.7237,23.3498 C18.7237,23.3498 19.6817,23.8298 19.6607,24.6308 C19.6327,25.6878 19.1287,25.7048 18.8407,25.9048 L11.4447,27.5798 C11.4447,27.5798 10.3817,27.9868 10.0587,27.4048 M13.1777,9.6978 C13.4777,9.2038 14.0557,9.0098 14.0557,9.0098 L19.9507,6.7618 C20.2027,6.7248 20.4627,6.4398 21.3417,6.9868 C21.9017,7.3338 22.0277,8.6118 22.0277,8.6118 L22.0847,18.9788 C22.0847,18.9788 21.9527,20.2248 21.1157,20.4338 C20.3457,20.6298 19.7417,19.9888 19.7417,19.9888 L13.6147,11.4238 C13.6147,11.4238 12.7487,10.3988 13.1777,9.6978 M21.9997,-0.0002 C9.8687,-0.0002 -0.0003,9.8688 -0.0003,21.9998 C-0.0003,34.1308 9.8687,43.9998 21.9997,43.9998 C34.1307,43.9998 43.9997,34.1308 43.9997,21.9998 C43.9997,9.8688 34.1307,-0.0002 21.9997,-0.0002" id="Fill-21"></path>
        </g>
    </g>
</svg>