<?xml version="1.0" encoding="UTF-8" standalone="no"?>
<svg width="44px" height="44px" viewBox="0 0 44 44" version="1.1" xmlns="http://www.w3.org/2000/svg" xmlns:xlink="http://www.w3.org/1999/xlink">
    <!-- Generator: Sketch 3.7.2 (28276) - http://www.bohemiancoding.com/sketch -->
    <title>soc-reddit</title>
    <desc>Created with Sketch.</desc>
    <defs></defs>
    <g id="44px-Glyph" stroke="none" stroke-width="1" fill="none" fill-rule="evenodd">
        <g id="soc-reddit" fill="#000000">
            <path d="M26.6289,25.3682 C25.4579,25.3682 24.5049,24.4102 24.5049,23.2342 C24.5049,22.0562 25.4579,21.0972 26.6289,21.0972 C27.8009,21.0972 28.7519,22.0562 28.7519,23.2342 C28.7519,24.4102 27.8009,25.3682 26.6289,25.3682 M26.9529,29.2972 C25.9189,30.3362 24.3029,30.8412 22.0159,30.8412 C22.0099,30.8412 22.0049,30.8382 21.9989,30.8382 C21.9939,30.8382 21.9879,30.8412 21.9819,30.8412 C19.6949,30.8412 18.0809,30.3362 17.0469,29.2972 C16.8159,29.0642 16.8159,28.6892 17.0469,28.4592 C17.2769,28.2242 17.6499,28.2242 17.8809,28.4592 C18.6829,29.2642 20.0249,29.6542 21.9819,29.6542 C21.9879,29.6542 21.9939,29.6582 21.9989,29.6582 C22.0049,29.6582 22.0099,29.6542 22.0159,29.6542 C23.9739,29.6542 25.3169,29.2642 26.1169,28.4592 C26.3479,28.2242 26.7229,28.2242 26.9529,28.4592 C27.1829,28.6892 27.1829,29.0642 26.9529,29.2972 M15.2529,23.2342 C15.2529,22.0562 16.2069,21.0972 17.3779,21.0972 C18.5489,21.0972 19.5009,22.0562 19.5009,23.2342 C19.5009,24.4102 18.5489,25.3682 17.3779,25.3682 C16.2069,25.3682 15.2529,24.4102 15.2529,23.2342 M21.9369,16.8982 C15.0219,16.8982 9.3959,20.4952 9.3959,24.9162 C9.3959,29.3362 15.0219,32.9292 21.9369,32.9292 C28.8519,32.9292 34.4789,29.3362 34.4789,24.9162 C34.4789,20.4952 28.8519,16.8982 21.9369,16.8982" id="Fill-66"></path>
            <path d="M32.4023,12.8594 C33.3383,12.8594 34.0993,12.0964 34.0993,11.1564 C34.0993,10.2174 33.3383,9.4554 32.4023,9.4554 C31.4693,9.4554 30.7063,10.2174 30.7063,11.1564 C30.7063,12.0964 31.4693,12.8594 32.4023,12.8594" id="Fill-67"></path>
            <path d="M11.4385,19.0029 C11.0675,18.7439 10.6265,18.5899 10.1405,18.5899 C8.8695,18.5899 7.8345,19.6309 7.8345,20.9079 C7.8345,21.6109 8.1595,22.2279 8.6525,22.6519 C9.1685,21.2909 10.1275,20.0449 11.4385,19.0029" id="Fill-68"></path>
            <path d="M33.8555,18.5898 C33.3455,18.5898 32.8845,18.7698 32.5055,19.0528 C33.8095,20.1108 34.7535,21.3658 35.2535,22.7418 C35.8065,22.3198 36.1665,21.6578 36.1665,20.9078 C36.1665,19.6308 35.1275,18.5898 33.8555,18.5898" id="Fill-69"></path>
            <path d="M35.5762,23.9316 C35.6282,24.2536 35.6582,24.5806 35.6582,24.9156 C35.6582,29.9886 29.5012,34.1156 21.9362,34.1156 C14.3712,34.1156 8.2162,29.9886 8.2162,24.9156 C8.2162,24.5606 8.2542,24.2116 8.3102,23.8686 C7.3222,23.2496 6.6542,22.1616 6.6542,20.9086 C6.6542,18.9746 8.2192,17.4036 10.1402,17.4036 C11.0232,17.4036 11.8122,17.7496 12.4262,18.2976 C14.8192,16.7496 18.0442,15.7816 21.6022,15.7246 L23.6762,9.1346 C23.7682,8.8386 24.0762,8.6676 24.3732,8.7386 L29.7642,10.0126 C30.2062,8.9876 31.2222,8.2696 32.4022,8.2696 C33.9892,8.2696 35.2782,9.5626 35.2782,11.1566 C35.2782,12.7496 33.9892,14.0466 32.4022,14.0466 C30.8232,14.0466 29.5392,12.7596 29.5282,11.1756 L24.6352,10.0176 L22.8332,15.7436 C26.1962,15.8926 29.2312,16.8446 31.5032,18.3306 C32.1232,17.7566 32.9482,17.4036 33.8552,17.4036 C35.7812,17.4036 37.3462,18.9746 37.3462,20.9086 C37.3462,22.2086 36.6272,23.3276 35.5762,23.9316 M22.0002,-0.0004 C9.8692,-0.0004 0.0002,9.8686 0.0002,21.9996 C0.0002,34.1306 9.8692,43.9996 22.0002,43.9996 C34.1312,43.9996 44.0002,34.1306 44.0002,21.9996 C44.0002,9.8686 34.1312,-0.0004 22.0002,-0.0004" id="Fill-70"></path>
        </g>
    </g>
</svg>