<?xml version="1.0" encoding="UTF-8" standalone="no"?>
<svg width="64px" height="64px" viewBox="0 0 64 64" version="1.1" xmlns="http://www.w3.org/2000/svg" xmlns:xlink="http://www.w3.org/1999/xlink">
    <!-- Generator: Sketch 3.7.2 (28276) - http://www.bohemiancoding.com/sketch -->
    <title>soc-facebook</title>
    <desc>Created with Sketch.</desc>
    <defs></defs>
    <g id="64px-Glyph" stroke="none" stroke-width="1" fill="none" fill-rule="evenodd">
        <g id="soc-facebook" fill="#000000">
            <path d="M40,21.6621 L36.506,21.6621 C35.123,21.6621 34,22.7811 34,24.1601 L34,26.0001 L40,26.0001 L40,32.1051 L34,32.1051 L34,50.0001 L26,50.0001 L26,32.1051 L22,32.1051 L22,26.0001 L26,26.0001 L26,22.6721 C26,18.9881 28.996,16.0001 32.689,16.0001 L40,16.0001 L40,21.6621 Z M31,6.0001 C16.112,6.0001 4,18.1121 4,33.0001 C4,47.8881 16.112,60.0001 31,60.0001 C45.888,60.0001 58,47.8881 58,33.0001 C58,18.1121 45.888,6.0001 31,6.0001 L31,6.0001 Z" id="Fill-87"></path>
        </g>
    </g>
</svg>