<?xml version="1.0" encoding="UTF-8" standalone="no"?>
<svg width="64px" height="64px" viewBox="0 0 64 64" version="1.1" xmlns="http://www.w3.org/2000/svg" xmlns:xlink="http://www.w3.org/1999/xlink">
    <!-- Generator: Sketch 3.7.2 (28276) - http://www.bohemiancoding.com/sketch -->
    <title>soc-blackberry</title>
    <desc>Created with Sketch.</desc>
    <defs></defs>
    <g id="64px-Glyph" stroke="none" stroke-width="1" fill="none" fill-rule="evenodd">
        <g id="soc-blackberry" fill="#000000">
            <path d="M44.7666,33.0303 L39.5596,33.0303 L40.9836,26.1513 L45.9846,26.1513 C49.2296,26.1513 49.9996,27.8253 49.9996,29.1453 C49.9996,31.0143 48.8426,33.0303 44.7666,33.0303 M42.8296,43.8033 L37.6216,43.8033 L39.0376,36.9263 L44.0406,36.9263 C47.2876,36.9263 48.0596,38.6043 48.0596,39.9233 C48.0596,41.7933 46.9006,43.8033 42.8296,43.8033 M32.4836,26.8773 L27.2776,26.8773 L28.6996,20.0003 L33.6966,20.0003 C36.9436,20.0003 37.7156,21.6713 37.7156,22.9943 C37.7156,24.8623 36.5586,26.8773 32.4836,26.8773 M30.6776,37.2213 L25.4706,37.2213 L26.8886,30.3543 L31.8926,30.3543 C35.1366,30.3543 35.9106,32.0193 35.9106,33.3423 C35.9106,35.2093 34.7486,37.2213 30.6776,37.2213 M28.7526,48.0003 L23.5356,48.0003 L24.9546,41.1213 L29.9606,41.1213 C33.2036,41.1213 33.9706,42.7963 33.9706,44.1163 C33.9706,45.9893 32.8176,48.0003 28.7526,48.0003 M19.0126,26.8773 L13.8106,26.8773 L15.2246,20.0003 L20.2296,20.0003 C23.4736,20.0003 24.2486,21.6713 24.2486,22.9943 C24.2486,24.8623 23.0886,26.8773 19.0126,26.8773 M17.2146,37.2213 L11.9996,37.2213 L13.4226,30.3543 L18.4206,30.3543 C21.6686,30.3543 22.4446,32.0193 22.4446,33.3423 C22.4446,35.2093 21.2806,37.2213 17.2146,37.2213 M30.9996,6.0003 C16.0876,6.0003 3.9996,18.0893 3.9996,33.0003 C3.9996,47.9113 16.0876,60.0003 30.9996,60.0003 C45.9116,60.0003 57.9996,47.9113 57.9996,33.0003 C57.9996,18.0893 45.9116,6.0003 30.9996,6.0003" id="Fill-1"></path>
        </g>
    </g>
</svg>