<?xml version="1.0" encoding="UTF-8" standalone="no"?>
<svg width="44px" height="44px" viewBox="0 0 44 44" version="1.1" xmlns="http://www.w3.org/2000/svg" xmlns:xlink="http://www.w3.org/1999/xlink">
    <!-- Generator: Sketch 3.7.2 (28276) - http://www.bohemiancoding.com/sketch -->
    <title>soc-wordpress</title>
    <desc>Created with Sketch.</desc>
    <defs></defs>
    <g id="44px-Glyph" stroke="none" stroke-width="1" fill="none" fill-rule="evenodd">
        <g id="soc-wordpress" fill="#000000">
            <path d="M33.0823,38.6357 C31.6973,39.5617 30.1843,40.3027 28.5853,40.8627 L22.3693,23.8337 L16.3983,41.1867 C14.9673,40.7687 13.6023,40.2007 12.3233,39.4907 L3.3363,14.8717 C3.9363,13.3067 4.7193,11.8367 5.6723,10.4887 C5.7143,10.4887 5.7643,10.4897 5.8043,10.4897 C8.0023,10.4897 11.4023,10.2247 11.4023,10.2247 C12.5353,10.1547 12.6663,11.8207 11.5373,11.9527 C11.5373,11.9527 10.3983,12.0857 9.1323,12.1547 L16.7813,34.9007 L21.3793,21.1147 L18.1053,12.1547 C16.9723,12.0857 15.9023,11.9527 15.9023,11.9527 C14.7713,11.8867 14.9043,10.1547 16.0393,10.2247 C16.0393,10.2247 19.5043,10.4897 21.5663,10.4897 C23.7613,10.4897 27.1643,10.2247 27.1643,10.2247 C28.2953,10.1547 28.4313,11.8207 27.2973,11.9527 C27.2973,11.9527 26.1583,12.0857 24.8943,12.1547 L32.4863,34.7247 L34.5803,27.7287 C35.4883,24.8227 36.1773,22.7367 36.1773,20.9397 C36.1773,18.3457 35.2463,16.5467 34.4453,15.1487 C33.3843,13.4197 32.3843,11.9527 32.3843,10.2247 C32.3843,8.6507 33.3653,7.1827 34.8413,6.6877 C37.3463,8.7917 39.3213,11.4997 40.5583,14.5837 C40.4993,16.5887 40.0793,18.8397 38.9743,21.6037 L33.0823,38.6357 Z M22.0003,-0.0003 C9.8693,-0.0003 0.0003,9.8687 0.0003,21.9997 C0.0003,34.1307 9.8693,43.9997 22.0003,43.9997 C34.1313,43.9997 44.0003,34.1307 44.0003,21.9997 C44.0003,9.8687 34.1313,-0.0003 22.0003,-0.0003 L22.0003,-0.0003 Z" id="Fill-65"></path>
        </g>
    </g>
</svg>