<?xml version="1.0" encoding="UTF-8" standalone="no"?>
<svg width="44px" height="44px" viewBox="0 0 44 44" version="1.1" xmlns="http://www.w3.org/2000/svg" xmlns:xlink="http://www.w3.org/1999/xlink">
    <!-- Generator: Sketch 3.7.2 (28276) - http://www.bohemiancoding.com/sketch -->
    <title>soc-android</title>
    <desc>Created with Sketch.</desc>
    <defs></defs>
    <g id="44px-Line" stroke="none" stroke-width="1" fill="none" fill-rule="evenodd">
        <g id="soc-android"></g>
        <path d="M22,0 C9.869,0 0,9.869 0,22 C0,34.131 9.869,44 22,44 C34.131,44 44,34.131 44,22 C44,9.869 34.131,0 22,0 L22,0 Z M22,42 C10.972,42 2,33.028 2,22 C2,10.972 10.972,2 22,2 C33.028,2 42,10.972 42,22 C42,33.028 33.028,42 22,42 L22,42 Z" id="Shape" fill="#000000"></path>
        <path d="M10.041,16 C8.914,16 8,16.875 8,18 L8,26 C8.001,27.127 8.916,28 10.043,28 C11.172,28 12.002,27.125 12,26 L12,18 C12,16.877 11.169,16 10.041,16 L10.041,16 Z" id="Shape" fill="#000000"></path>
        <path d="M13,30 C12.999,31.201 13.852,31.998 15.057,31.998 L16,32 L16,35.963 C15.999,37.087 16.875,38 18,38 C19.129,38 20,37.087 20,35.961 L20,32 L24,32 L24,35.961 C23.999,37.086 24.875,38 26,38 C27.129,38 28,37.086 28,35.959 L28,32 L28.951,32 C30.153,32 31,31.201 31,30 L31,16 L13,16 L13,30 L13,30 Z" id="Shape" fill="#000000"></path>
        <path d="M26.505,8.016 L27.931,5.42 C28.006,5.283 27.957,5.11 27.82,5.035 C27.68,4.96 27.51,5.012 27.435,5.145 L25.997,7.769 C24.785,7.233 23.43,6.931 21.996,6.933 C20.565,6.931 19.211,7.233 18.005,7.766 L16.564,5.149 C16.489,5.011 16.317,4.962 16.18,5.036 C16.042,5.112 15.99,5.283 16.069,5.42 L17.494,8.014 C14.693,9.459 13,11.849 13.002,15 L31.002,15 C31,11.85 29.303,9.46 26.505,8.016 L26.505,8.016 Z M17.811,12.028 C17.389,12.025 17.042,11.681 17.042,11.257 C17.042,10.833 17.389,10.488 17.813,10.488 C18.239,10.486 18.586,10.833 18.586,11.257 C18.586,11.682 18.238,12.025 17.811,12.028 L17.811,12.028 Z M26.185,12.025 C25.76,12.025 25.414,11.681 25.414,11.254 C25.415,10.834 25.761,10.487 26.185,10.485 C26.609,10.487 26.956,10.834 26.956,11.256 C26.958,11.681 26.61,12.025 26.185,12.025 L26.185,12.025 Z" id="Shape" fill="#000000"></path>
        <path d="M34,16 C32.872,15.998 32,16.914 32,18.037 L32,26 C32,27.127 32.87,28.037 34,28.037 C35.127,28.037 36,27.127 36,26 L36,18.037 C36,16.912 35.127,16 34,16 L34,16 Z" id="Shape" fill="#000000"></path>
    </g>
</svg>