<?xml version="1.0" encoding="UTF-8" standalone="no"?>
<svg width="44px" height="44px" viewBox="0 0 44 44" version="1.1" xmlns="http://www.w3.org/2000/svg" xmlns:xlink="http://www.w3.org/1999/xlink">
    <!-- Generator: Sketch 3.7.2 (28276) - http://www.bohemiancoding.com/sketch -->
    <title>soc-pinterest</title>
    <desc>Created with Sketch.</desc>
    <defs></defs>
    <g id="44px-Glyph" stroke="none" stroke-width="1" fill="none" fill-rule="evenodd">
        <g id="soc-pinterest" fill="#000000">
            <path d="M24.6309,34.7617 C22.2969,34.7617 20.1039,33.5037 19.3529,32.0707 C19.3529,32.0707 18.0989,37.0467 17.8319,38.0097 C17.5269,39.1187 17.0279,40.2147 16.4849,41.2097 C15.3119,40.8717 14.1869,40.4267 13.1129,39.8907 C13.1429,38.8517 13.2439,37.7707 13.4849,36.7437 C13.9019,34.9917 16.2639,24.9737 16.2639,24.9737 C16.2639,24.9737 15.5729,23.5937 15.5729,21.5547 C15.5729,18.3537 17.4299,15.9627 19.7409,15.9627 C21.7069,15.9627 22.6539,17.4417 22.6539,19.2047 C22.6539,21.1837 21.3959,24.1367 20.7469,26.8727 C20.2049,29.1657 21.8949,31.0337 24.1559,31.0337 C28.2489,31.0337 31.0059,25.7777 31.0059,19.5477 C31.0059,14.8127 27.8169,11.2697 22.0189,11.2697 C15.4639,11.2697 11.3819,16.1577 11.3819,21.6137 C11.3819,23.4967 11.9389,24.8227 12.8069,25.8497 C13.2049,26.3237 13.2609,26.5167 13.1169,27.0577 C13.0149,27.4527 12.7769,28.4097 12.6769,28.7907 C12.5309,29.3377 12.0899,29.5347 11.5979,29.3307 C8.5769,28.0997 7.1709,24.7927 7.1709,21.0777 C7.1709,14.9417 12.3469,7.5837 22.6099,7.5837 C30.8599,7.5837 36.2879,13.5527 36.2879,19.9587 C36.2879,28.4297 31.5749,34.7617 24.6309,34.7617 M21.9999,-0.0003 C9.8689,-0.0003 -0.0001,9.8687 -0.0001,21.9997 C-0.0001,34.1307 9.8689,43.9997 21.9999,43.9997 C34.1309,43.9997 43.9999,34.1307 43.9999,21.9997 C43.9999,9.8687 34.1309,-0.0003 21.9999,-0.0003" id="Fill-85"></path>
        </g>
    </g>
</svg>