<?xml version="1.0" encoding="UTF-8" standalone="no"?>
<svg width="44px" height="44px" viewBox="0 0 44 44" version="1.1" xmlns="http://www.w3.org/2000/svg" xmlns:xlink="http://www.w3.org/1999/xlink">
    <!-- Generator: Sketch 3.7.2 (28276) - http://www.bohemiancoding.com/sketch -->
    <title>cel-banner</title>
    <desc>Created with Sketch.</desc>
    <defs></defs>
    <g id="44px-Line" stroke="none" stroke-width="1" fill="none" fill-rule="evenodd">
        <g id="cel-banner"></g>
        <path d="M43.882,18.528 C43.708,18.203 43.369,18 43,18 L34,18 L34,7 C34,6.448 33.553,6 33,6 L11,6 C10.447,6 10,6.448 10,7 L10,18 L1,18 C0.631,18 0.292,18.203 0.118,18.528 C-0.056,18.853 -0.036,19.248 0.168,19.554 L5.798,27.999 L0.168,36.444 C-0.036,36.751 -0.056,37.145 0.118,37.47 C0.292,37.795 0.631,38 1,38 L17,38 C17.13,38 17.26,37.974 17.382,37.923 C17.627,37.821 17.822,37.627 17.923,37.382 C17.974,37.26 18,37.13 18,37 L18,32 L26,32 L26,37 C26,37.13 26.027,37.26 26.077,37.382 C26.178,37.627 26.373,37.821 26.618,37.923 C26.74,37.974 26.87,38 27,38 L43,38 C43.369,38 43.708,37.797 43.882,37.472 C44.056,37.147 44.036,36.752 43.832,36.446 L38.202,28.001 L43.832,19.556 C44.036,19.248 44.056,18.854 43.882,18.528 L43.882,18.528 Z M12,8 L32,8 L32,30 L12,30 L12,8 L12,8 Z M7.832,28.555 C8.056,28.219 8.056,27.782 7.832,27.446 L2.868,20 L10,20 L10,31 C10,31.13 10.027,31.26 10.077,31.382 C10.128,31.505 10.201,31.615 10.294,31.708 L14.586,36 L2.868,36 L7.832,28.555 L7.832,28.555 Z M16,34.586 L13.414,32 L16,32 L16,34.586 L16,34.586 Z M30.586,32 L28,34.586 L28,32 L30.586,32 L30.586,32 Z M36.168,27.445 C35.944,27.781 35.944,28.218 36.168,28.554 L41.132,35.999 L29.414,35.999 L33.706,31.707 C33.799,31.615 33.872,31.504 33.923,31.381 C33.974,31.26 34,31.13 34,31 L34,20 L41.132,20 L36.168,27.445 L36.168,27.445 Z" id="Shape" fill="#000000"></path>
    </g>
</svg>