<?xml version="1.0" encoding="UTF-8" standalone="no"?>
<svg width="64px" height="64px" viewBox="0 0 64 64" version="1.1" xmlns="http://www.w3.org/2000/svg" xmlns:xlink="http://www.w3.org/1999/xlink">
    <!-- Generator: Sketch 3.7.2 (28276) - http://www.bohemiancoding.com/sketch -->
    <title>cel-streamers</title>
    <desc>Created with Sketch.</desc>
    <defs></defs>
    <g id="64px-Line" stroke="none" stroke-width="1" fill="none" fill-rule="evenodd">
        <g id="cel-streamers"></g>
        <path d="M32.293,23.707 C32.488,23.902 32.744,24 33,24 C33.256,24 33.512,23.902 33.707,23.707 C33.801,23.613 36,21.375 36,18 C36,15.979 34.642,14.919 33.55,14.067 C32.561,13.294 32,12.817 32,12 C32,9.679 33.731,7.683 33.749,7.662 C34.114,7.25 34.076,6.619 33.664,6.253 C33.251,5.884 32.619,5.922 32.253,6.336 C32.16,6.439 30,8.905 30,12 C30,13.833 31.286,14.837 32.319,15.644 C33.361,16.457 34,17.006 34,18 C34,20.526 32.307,22.278 32.293,22.293 C31.902,22.684 31.902,23.316 32.293,23.707 L32.293,23.707 Z" id="Shape" fill="#000000"></path>
        <path d="M14.303,51.116 C15.307,51.108 16.249,51.1 17.478,51.852 C20.004,53.399 20,56.952 20,56.984 C19.992,57.537 20.433,57.991 20.984,58 L21,58 C21.546,58 21.991,57.562 22,57.016 C22.003,56.824 22.03,52.295 18.522,50.148 C16.803,49.095 15.41,49.105 14.286,49.117 C13.202,49.124 12.545,49.133 11.707,48.294 C9.867,46.454 9.997,43.082 9.999,43.048 C10.024,42.497 9.6,42.029 9.049,42.002 C8.506,41.961 8.028,42.4 8.001,42.952 C7.992,43.126 7.82,47.235 10.293,49.708 C11.724,51.138 13.09,51.127 14.303,51.116 L14.303,51.116 Z" id="Shape" fill="#000000"></path>
        <path d="M54.727,42.238 C54.306,42.594 54.254,43.225 54.61,43.646 C54.632,43.673 56.887,46.39 55.602,48.474 C54.712,49.915 53.749,50.212 52.532,50.588 C51.53,50.898 50.395,51.247 49.296,52.266 C46.56,54.8 48.995,59.293 49.101,59.483 C49.283,59.813 49.624,60 49.976,60 C50.139,60 50.304,59.96 50.457,59.875 C50.94,59.609 51.116,59.002 50.852,58.518 C50.834,58.486 49.091,55.182 50.656,53.734 C51.421,53.026 52.21,52.783 53.123,52.501 C54.481,52.082 56.021,51.606 57.306,49.526 C59.358,46.199 56.268,42.507 56.135,42.352 C55.776,41.931 55.146,41.882 54.727,42.238 L54.727,42.238 Z" id="Shape" fill="#000000"></path>
        <path d="M9.092,29.124 C9.869,28.805 10.742,28.165 11.685,27.222 C13.869,25.039 16.703,20.786 18.533,16.805 C19.068,16.639 19.578,16.535 20.049,16.506 C21.383,16.416 21.877,17.014 22.116,17.467 C22.825,18.81 22.621,21.391 21.792,24.254 C17.224,26.049 12.06,30.641 10.792,33.938 C10.002,35.992 10.768,37.181 11.294,37.708 C11.841,38.255 13.388,39.33 15.917,37.466 C18.229,35.761 20.879,31.943 22.669,27.738 C22.883,27.236 23.15,26.567 23.417,25.794 C23.986,25.627 24.531,25.523 25.037,25.498 C26.427,25.425 26.884,26.009 27.109,26.453 C28.134,28.476 27.547,31.619 26.333,34.512 C24.365,34.599 21.977,35.853 20.509,37.18 C18.443,39.048 17.963,41.086 19.227,42.634 C19.539,43.017 20.722,44.164 22.789,42.819 C24.288,41.844 26.066,39.587 27.435,36.904 C28.083,38.151 26.823,42.238 25.114,45.542 C24.86,46.033 25.052,46.636 25.542,46.89 C25.689,46.966 25.847,47.002 26.001,47.002 C26.363,47.002 26.712,46.805 26.89,46.462 C27.63,45.033 31.195,37.78 28.709,35.295 C28.587,35.173 28.455,35.066 28.314,34.975 C29.635,31.69 30.188,28.103 28.893,25.55 C28.176,24.135 26.775,23.415 24.936,23.501 C24.656,23.516 24.367,23.549 24.072,23.599 C24.661,21.224 24.923,18.5 23.886,16.536 C23.357,15.534 22.25,14.354 19.925,14.513 C19.774,14.522 19.621,14.536 19.466,14.557 C20.483,11.769 20.783,9.371 19.708,8.296 C16.479,5.069 7.104,13.593 4.308,16.282 C3.911,16.665 3.898,17.298 4.281,17.695 C4.664,18.094 5.297,18.107 5.694,17.723 C10.669,12.946 17.064,8.48 18.295,9.709 C18.809,10.223 18.252,12.457 17.061,15.21 C12.476,17.01 7.174,21.851 5.874,25.286 C5.193,27.087 5.727,28.141 6.295,28.709 C6.708,29.122 7.622,29.726 9.092,29.124 L9.092,29.124 Z M14.729,35.855 C13.79,36.548 13.109,36.694 12.708,36.293 C12.587,36.172 12.218,35.803 12.658,34.655 C13.595,32.222 17.315,28.747 20.895,26.851 C19.466,30.43 17.239,34.003 14.729,35.855 L14.729,35.855 Z M21.696,41.142 C21.366,41.356 20.94,41.571 20.774,41.368 C20.04,40.468 21.281,39.177 21.848,38.664 C22.928,37.687 24.202,37.038 25.258,36.724 C24.139,38.746 22.807,40.419 21.696,41.142 L21.696,41.142 Z M7.707,27.293 C7.419,27.005 7.605,26.355 7.743,25.992 C8.639,23.625 12.197,20.152 15.651,18.129 C14.17,20.928 12.254,23.824 10.27,25.808 C9.331,26.748 8.698,27.123 8.332,27.274 C7.874,27.46 7.762,27.348 7.707,27.293 L7.707,27.293 Z" id="Shape" fill="#000000"></path>
        <path d="M52.707,14.293 C52.316,13.902 51.684,13.902 51.293,14.293 C50.902,14.684 50.902,15.316 51.293,15.707 C51.336,15.75 55.523,20.062 53.293,22.293 C52.887,22.699 52.305,22.978 51.631,23.13 C49.921,19.602 47.68,16.605 45.921,16.025 C44.927,15.7 43.652,15.96 43.056,17.671 C42.212,20.089 43.116,22.416 45.472,23.895 C46.854,24.762 48.712,25.296 50.422,25.258 C51.806,28.479 52.615,31.871 52.045,33.703 C51.816,34.437 51.315,34.856 50.466,35.021 C50.431,35.028 50.397,35.034 50.362,35.04 C49.57,32.919 48.424,30.808 47.137,29.02 C45.912,27.32 43.55,24.497 41.256,24.768 C40.577,24.847 39.649,25.232 39.076,26.618 C38.33,28.424 38.781,30.472 40.347,32.386 C42.411,34.91 45.975,36.775 48.929,37.054 C49.572,39.213 49.727,41.227 49.094,42.575 C48.333,44.197 46.748,44.661 45.07,44.513 C44.481,41.033 41.738,36.752 39.424,35.883 C38.29,35.459 36.814,35.696 36.066,37.64 C34.851,40.801 37.979,44.119 41.539,45.637 C42.069,45.864 42.618,46.052 43.173,46.197 C43.15,46.361 43.112,46.515 43.062,46.655 C42.798,47.374 42.38,47.856 41.786,48.131 C40.351,48.793 38.372,48.072 38.354,48.065 C37.842,47.873 37.261,48.129 37.065,48.647 C36.87,49.164 37.13,49.741 37.647,49.936 C37.721,49.963 38.913,50.406 40.35,50.406 C41.079,50.406 41.87,50.292 42.61,49.954 C43.705,49.454 44.488,48.576 44.939,47.346 C45.034,47.087 45.1,46.809 45.139,46.514 C47.557,46.66 49.789,45.805 50.906,43.426 C51.712,41.71 51.625,39.391 50.977,36.959 C52.468,36.629 53.523,35.688 53.956,34.298 C54.652,32.06 53.869,28.428 52.458,24.982 C53.319,24.736 54.097,24.32 54.708,23.709 C57.634,20.781 54.827,16.413 52.707,14.293 L52.707,14.293 Z M46.535,22.201 C45.433,21.51 44.264,20.277 44.944,18.329 C45.063,17.988 45.172,17.901 45.169,17.898 C45.314,17.906 45.926,18.117 46.962,19.353 C47.825,20.383 48.686,21.734 49.453,23.21 C48.441,23.087 47.408,22.749 46.535,22.201 L46.535,22.201 Z M41.896,31.12 C41.133,30.187 40.346,28.782 40.924,27.382 C41.168,26.792 41.409,26.764 41.488,26.755 C41.512,26.752 41.538,26.751 41.565,26.751 C42.289,26.751 43.795,27.804 45.513,30.189 C46.53,31.6 47.454,33.251 48.157,34.915 C45.939,34.419 43.385,32.941 41.896,31.12 L41.896,31.12 Z M42.324,43.799 C39.645,42.656 37.205,40.252 37.933,38.36 C38.137,37.828 38.312,37.697 38.48,37.697 C38.561,37.697 38.64,37.727 38.72,37.758 C40.203,38.315 42.224,41.453 42.939,44.039 C42.729,43.964 42.524,43.884 42.324,43.799 L42.324,43.799 Z" id="Shape" fill="#000000"></path>
    </g>
</svg>