<?xml version="1.0" encoding="UTF-8" standalone="no"?>
<svg width="64px" height="64px" viewBox="0 0 64 64" version="1.1" xmlns="http://www.w3.org/2000/svg" xmlns:xlink="http://www.w3.org/1999/xlink">
    <!-- Generator: Sketch 3.7.2 (28276) - http://www.bohemiancoding.com/sketch -->
    <title>cel-baubles</title>
    <desc>Created with Sketch.</desc>
    <defs></defs>
    <g id="64px-Line" stroke="none" stroke-width="1" fill="none" fill-rule="evenodd">
        <g id="cel-baubles"></g>
        <path d="M28,22.69 L28,18 C28,16.897 27.103,16 26,16 L24,16 L24,7 C24,6.447 23.553,6 23,6 C22.447,6 22,6.447 22,7 L22,16 L20,16 C18.897,16 18,16.897 18,18 L18,22.69 C9.945,24.893 4,32.256 4,41 C4,51.477 12.523,60 23,60 C33.477,60 42,51.477 42,41 C42,32.256 36.055,24.893 28,22.69 L28,22.69 Z M20,18 L26,18 L26,22.261 C25.02,22.104 24.023,22 23,22 C21.977,22 20.98,22.104 20,22.261 L20,18 L20,18 Z M23,58 C13.626,58 6,50.374 6,41 C6,31.626 13.626,24 23,24 C32.374,24 40,31.626 40,41 C40,50.374 32.374,58 23,58 L23,58 Z" id="Shape" fill="#000000"></path>
        <path d="M50,19.003 L50,16 C50,14.897 49.103,14 48,14 L46,14 L46,7 C46,6.447 45.553,6 45,6 C44.447,6 44,6.447 44,7 L44,14 L42,14 C40.897,14 40,14.897 40,16 L40,19.017 C38.148,19.789 36.472,20.975 35.132,22.536 C34.773,22.955 34.82,23.586 35.239,23.946 C35.657,24.305 36.288,24.259 36.649,23.839 C38.744,21.4 41.788,20 45,20 C51.065,20 56,24.935 56,31 C56,37.065 51.065,42 45,42 C44.447,42 44,42.447 44,43 C44,43.553 44.447,44 45,44 C52.168,44 58,38.168 58,31 C58,25.604 54.693,20.966 50,19.003 L50,19.003 Z M42,18.36 L42,16 L48,16 L48,18.363 C47.035,18.134 46.034,18 45,18 C43.979,18 42.975,18.129 42,18.36 L42,18.36 Z" id="Shape" fill="#000000"></path>
        <path d="M23,26 C14.729,26 8,32.729 8,41 C8,41.553 8.447,42 9,42 C9.553,42 10,41.553 10,41 C10,33.832 15.832,28 23,28 C23.553,28 24,27.553 24,27 C24,26.447 23.553,26 23,26 L23,26 Z" id="Shape" fill="#000000"></path>
        <path d="M39.666,26.467 C41,24.899 42.943,24 45,24 C45.553,24 46,23.553 46,23 C46,22.447 45.553,22 45,22 C42.356,22 39.856,23.156 38.143,25.172 C37.786,25.592 37.836,26.224 38.257,26.581 C38.445,26.741 38.675,26.819 38.904,26.819 C39.187,26.819 39.468,26.7 39.666,26.467 L39.666,26.467 Z" id="Shape" fill="#000000"></path>
    </g>
</svg>