<?xml version="1.0" encoding="UTF-8" standalone="no"?>
<svg width="44px" height="44px" viewBox="0 0 44 44" version="1.1" xmlns="http://www.w3.org/2000/svg" xmlns:xlink="http://www.w3.org/1999/xlink">
    <!-- Generator: Sketch 3.7.2 (28276) - http://www.bohemiancoding.com/sketch -->
    <title>cel-candy-cane</title>
    <desc>Created with Sketch.</desc>
    <defs></defs>
    <g id="44px-Line" stroke="none" stroke-width="1" fill="none" fill-rule="evenodd">
        <g id="cel-candy-cane"></g>
        <path d="M38,13.458 C38,13.334 37.985,13.213 37.981,13.09 C37.984,13.059 37.999,13.032 37.999,13 C37.999,12.947 37.977,12.9 37.969,12.85 C37.813,9.477 36.389,6.327 33.889,3.927 C28.705,-1.046 20.434,-1.273 14.954,3.224 C14.93,3.237 14.903,3.238 14.879,3.252 C14.755,3.33 14.657,3.432 14.581,3.547 C14.436,3.675 14.284,3.792 14.143,3.927 L11.847,6.131 C11.036,6.909 10.59,7.947 10.59,9.054 C10.59,10.161 11.037,11.199 11.848,11.978 C13.496,13.558 16.177,13.558 17.824,11.978 L20.12,9.775 C22.269,7.713 25.766,7.713 27.915,9.775 C28.943,10.761 29.509,12.07 29.509,13.459 C29.509,14.848 28.943,16.156 27.915,17.143 L14.21,30.294 L14.21,30.294 L7.958,36.294 L7.957,36.294 L7.26,36.963 C6.448,37.742 6.002,38.78 6.002,39.887 C6.002,40.994 6.449,42.032 7.26,42.811 C8.083,43.601 9.165,43.997 10.247,43.997 C11.329,43.997 12.411,43.601 13.234,42.811 L33.891,22.991 C34.988,21.938 35.868,20.735 36.538,19.438 C36.551,19.412 36.565,19.389 36.576,19.361 C37.498,17.543 38,15.54 38,13.458 L38,13.458 Z M24.182,6.243 L24.85,2.041 C27.273,2.201 29.653,3.052 31.631,4.612 L28.103,7.4 C26.914,6.654 25.552,6.271 24.182,6.243 L24.182,6.243 Z M33.1,6 C34.638,7.708 35.599,9.778 35.893,12 L31.355,12 C31.099,10.786 30.518,9.662 29.663,8.716 L33.1,6 L33.1,6 Z M31.48,14 L35.973,14 C35.905,15.396 35.584,16.746 35.017,18 L29.843,18 C30.803,16.857 31.368,15.473 31.48,14 L31.48,14 Z M13.233,10.535 C12.818,10.137 12.59,9.61 12.59,9.054 C12.59,8.498 12.819,7.971 13.233,7.574 L15.215,5.673 L17.574,9.446 L16.439,10.535 C15.555,11.383 14.117,11.384 13.233,10.535 L13.233,10.535 Z M19.059,8.05 L16.752,4.361 C18.558,3.041 20.663,2.268 22.82,2.062 L22.118,6.477 C21.012,6.753 19.963,7.278 19.059,8.05 L19.059,8.05 Z M23.694,30 L17.403,30 L21.572,26 L27.863,26 L23.694,30 L23.694,30 Z M17.44,36 L11.15,36 L15.319,32 L21.61,32 L17.44,36 L17.44,36 Z M11.848,41.366 C10.964,42.214 9.528,42.214 8.644,41.366 C8.229,40.969 8.001,40.442 8.001,39.886 C8.001,39.33 8.23,38.803 8.644,38.406 L9.066,38.001 L15.356,38.001 L11.848,41.366 L11.848,41.366 Z M29.947,24 L23.656,24 L27.824,20 L33.846,20 C33.448,20.545 33.005,21.065 32.505,21.546 L29.947,24 L29.947,24 Z" id="Shape" fill="#000000"></path>
    </g>
</svg>