<?xml version="1.0" encoding="UTF-8" standalone="no"?>
<svg width="44px" height="44px" viewBox="0 0 44 44" version="1.1" xmlns="http://www.w3.org/2000/svg" xmlns:xlink="http://www.w3.org/1999/xlink">
    <!-- Generator: Sketch 3.7.2 (28276) - http://www.bohemiancoding.com/sketch -->
    <title>cel-hearts</title>
    <desc>Created with Sketch.</desc>
    <defs></defs>
    <g id="44px-Glyph" stroke="none" stroke-width="1" fill="none" fill-rule="evenodd">
        <g id="cel-hearts" fill="#000000">
            <path d="M16,44 C15.746,44 15.492,43.903 15.297,43.711 L2.662,31.219 C0.946,29.537 0,27.296 0,24.911 C0,22.526 0.946,20.285 2.665,18.602 C6.2,15.14 11.953,15.138 15.488,18.601 L15.999,19.054 L16.549,18.568 C20.048,15.139 25.799,15.139 29.335,18.601 C31.053,20.285 32,22.526 32,24.911 C32,27.296 31.054,29.537 29.335,31.222 L16.703,43.711 C16.508,43.903 16.254,44 16,44" id="Fill-284"></path>
            <path d="M41.335,2.6006 C37.799,-0.8614 32.048,-0.8614 28.549,2.5676 L27.999,3.0536 L27.488,2.6006 C23.953,-0.8624 18.2,-0.8604 14.665,2.6016 C12.946,4.2856 12,6.5256 12,8.9106 C12,11.2956 12.946,13.5376 14.662,15.2186 L15.446,15.9936 C15.632,16.1226 15.819,16.2476 15.998,16.3886 C20.312,12.9566 26.699,13.2206 30.734,17.1716 C32.3,18.7066 33.339,20.6186 33.771,22.7006 L41.335,15.2216 C43.054,13.5376 44,11.2956 44,8.9106 C44,6.5256 43.053,4.2856 41.335,2.6006" id="Fill-286"></path>
        </g>
    </g>
</svg>