<?xml version="1.0" encoding="UTF-8" standalone="no"?>
<svg width="64px" height="64px" viewBox="0 0 64 64" version="1.1" xmlns="http://www.w3.org/2000/svg" xmlns:xlink="http://www.w3.org/1999/xlink">
    <!-- Generator: Sketch 3.7.2 (28276) - http://www.bohemiancoding.com/sketch -->
    <title>cel-bible</title>
    <desc>Created with Sketch.</desc>
    <defs></defs>
    <g id="64px-Line" stroke="none" stroke-width="1" fill="none" fill-rule="evenodd">
        <g id="cel-bible"></g>
        <path d="M55,56 C55.552,56 56,55.553 56,55 L56,7 C56,6.447 55.552,6 55,6 L10,6 C7.794,6 6,7.794 6,10 L6,56 C6,58.206 7.794,60 10,60 L51,60 C51.552,60 52,59.553 52,59 L52,11 C52,10.447 51.552,10 51,10 L8,10 C8,8.897 8.897,8 10,8 L54,8 L54,55 C54,55.553 54.448,56 55,56 L55,56 Z M50,12 L50,58 L10,58 C8.897,58 8,57.103 8,56 L8,12 L50,12 L50,12 Z" id="Shape" fill="#000000"></path>
        <path d="M23,32 L28,32 L28,47 C28,47.553 28.448,48 29,48 C29.552,48 30,47.553 30,47 L30,32 L35,32 C35.552,32 36,31.553 36,31 C36,30.447 35.552,30 35,30 L30,30 L30,23 C30,22.447 29.552,22 29,22 C28.448,22 28,22.447 28,23 L28,30 L23,30 C22.448,30 22,30.447 22,31 C22,31.553 22.448,32 23,32 L23,32 Z" id="Shape" fill="#000000"></path>
    </g>
</svg>