<?xml version="1.0" encoding="UTF-8" standalone="no"?>
<svg width="64px" height="64px" viewBox="0 0 64 64" version="1.1" xmlns="http://www.w3.org/2000/svg" xmlns:xlink="http://www.w3.org/1999/xlink">
    <!-- Generator: Sketch 3.7.2 (28276) - http://www.bohemiancoding.com/sketch -->
    <title>cel-letter-love-2</title>
    <desc>Created with Sketch.</desc>
    <defs></defs>
    <g id="64px-Line" stroke="none" stroke-width="1" fill="none" fill-rule="evenodd">
        <g id="cel-letter-love-2"></g>
        <path d="M57,12 L7,12 C5.009,12 4,13.01 4,15 L4,49 C4,51.075 4.925,52 7,52 L57,52 C59.047,52 60,51.047 60,49 L60,15 C60,13.01 58.991,12 57,12 L57,12 Z M45.707,36.293 C45.316,35.902 44.684,35.902 44.293,36.293 C43.902,36.684 43.902,37.316 44.293,37.707 L56.586,50 L7.414,50 L19.707,37.707 C20.098,37.316 20.098,36.684 19.707,36.293 C19.316,35.902 18.684,35.902 18.293,36.293 L6,48.586 L6,15.249 L20.199,29.448 C19.667,31.758 20.267,34.289 22.015,36.085 L31.28,45.694 C31.468,45.889 31.728,46 32,46 C32.272,46 32.531,45.89 32.72,45.694 L41.983,36.087 C43.755,34.265 44.349,31.689 43.779,29.355 L58,15.133 L58,48.586 L45.707,36.293 L45.707,36.293 Z M23.452,27.48 C24.381,26.526 25.614,26 26.924,26 C28.234,26 29.466,26.526 30.431,27.516 L31.32,28.341 C31.704,28.698 32.298,28.698 32.681,28.341 L33.606,27.481 C34.535,26.527 35.768,26.001 37.078,26.001 L37.078,26.001 C38.388,26.001 39.62,26.527 40.549,27.481 C42.484,29.469 42.484,32.706 40.549,34.694 C40.548,34.695 40.547,34.696 40.546,34.697 L32,43.56 L23.452,34.694 C21.516,32.704 21.516,29.469 23.452,27.48 L23.452,27.48 Z M41.982,26.086 C40.674,24.741 38.932,24 37.078,24 C37.078,24 37.078,24 37.077,24 C35.223,24 33.481,24.741 32.208,26.051 L31.999,26.244 L31.828,26.086 C30.519,24.741 28.777,24 26.923,24 C25.069,24 23.326,24.741 22.018,26.086 C21.618,26.497 21.285,26.949 21.004,27.426 L7.579,14 L56.305,14 L42.953,27.352 C42.681,26.903 42.361,26.476 41.982,26.086 L41.982,26.086 Z" id="Shape" fill="#000000"></path>
    </g>
</svg>