<?xml version="1.0" encoding="UTF-8" standalone="no"?>
<svg width="64px" height="64px" viewBox="0 0 64 64" version="1.1" xmlns="http://www.w3.org/2000/svg" xmlns:xlink="http://www.w3.org/1999/xlink">
    <!-- Generator: Sketch 3.7.2 (28276) - http://www.bohemiancoding.com/sketch -->
    <title>cel-tiara</title>
    <desc>Created with Sketch.</desc>
    <defs></defs>
    <g id="64px-Line" stroke="none" stroke-width="1" fill="none" fill-rule="evenodd">
        <g id="cel-tiara"></g>
        <path d="M13.366,46.882 C13.404,46.915 13.43,46.956 13.474,46.984 C13.543,47.026 13.608,47.054 13.675,47.091 C16.562,48.975 19.962,50.395 23.685,51.211 C23.72,51.22 23.751,51.236 23.787,51.244 C23.818,51.251 23.849,51.25 23.881,51.254 C24.52,51.39 25.168,51.509 25.825,51.608 C25.837,51.61 25.845,51.618 25.857,51.62 C25.892,51.625 25.927,51.623 25.962,51.628 C27.596,51.869 29.279,52 31.001,52 C32.723,52 34.406,51.869 36.04,51.628 C36.075,51.624 36.109,51.625 36.145,51.62 C36.157,51.618 36.166,51.611 36.177,51.608 C36.834,51.508 37.481,51.389 38.121,51.254 C38.152,51.25 38.183,51.251 38.215,51.244 C38.251,51.236 38.282,51.22 38.317,51.211 C42.04,50.395 45.44,48.975 48.327,47.091 C48.394,47.054 48.46,47.026 48.528,46.984 C48.572,46.957 48.598,46.915 48.636,46.882 C54.364,43.028 58,37.34 58,31 C58,22.969 51.991,15.535 42.692,12.062 C42.175,11.869 41.598,12.132 41.406,12.649 C41.213,13.167 41.475,13.743 41.993,13.936 C50.633,17.162 56,23.701 56,31 C56,36.703 52.672,41.823 47.421,45.309 C46.936,45.591 46.634,45.538 46.429,45.454 C45.283,44.983 44.323,42.471 44,41.218 L44,39.899 C46.279,39.434 48,37.415 48,35 C48,32.243 45.757,30 43,30 C40.243,30 38,32.243 38,35 C38,37.415 39.721,39.434 42,39.899 L42,41.262 C41.724,43.211 40.404,48.638 37.842,49.271 C37.177,49.415 36.503,49.541 35.817,49.643 C35.374,49.698 34.975,49.589 34.585,49.29 C32.974,48.059 32.182,44.339 32.001,42.935 L32.001,35.899 C34.28,35.434 36.001,33.415 36.001,31 C36.001,28.243 33.758,26 31.001,26 C28.244,26 26.001,28.243 26.001,31 C26.001,33.415 27.722,35.434 30.001,35.899 L30.001,42.937 C29.818,44.345 29.026,48.061 27.417,49.29 C27.027,49.588 26.629,49.697 26.184,49.643 C25.498,49.541 24.824,49.415 24.159,49.271 C21.606,48.64 20.281,43.221 20,41.267 L20,39.899 C22.279,39.434 24,37.415 24,35 C24,32.243 21.757,30 19,30 C16.243,30 14,32.243 14,35 C14,37.415 15.721,39.434 18,39.899 L18,41.218 C17.68,42.469 16.723,44.979 15.572,45.453 C15.366,45.536 15.063,45.59 14.579,45.308 C9.328,41.823 6,36.703 6,31 C6,23.702 11.366,17.164 20.004,13.936 C20.522,13.743 20.784,13.167 20.591,12.649 C20.398,12.132 19.822,11.868 19.305,12.063 C10.007,15.537 4,22.97 4,31 C4,37.34 7.636,43.028 13.366,46.882 L13.366,46.882 Z M40,35 C40,33.346 41.346,32 43,32 C44.654,32 46,33.346 46,35 C46,36.654 44.654,38 43,38 C41.346,38 40,36.654 40,35 L40,35 Z M43.255,44.791 C43.67,45.556 44.195,46.294 44.846,46.811 C43.9,47.291 42.91,47.725 41.879,48.104 C42.484,47.042 42.933,45.865 43.255,44.791 L43.255,44.791 Z M28,31 C28,29.346 29.346,28 31,28 C32.654,28 34,29.346 34,31 C34,32.654 32.654,34 31,34 C29.346,34 28,32.654 28,31 L28,31 Z M31,47.223 C31.358,48.195 31.832,49.175 32.458,49.965 C31.975,49.986 31.49,50 31,50 C30.51,50 30.025,49.986 29.542,49.965 C30.168,49.175 30.642,48.195 31,47.223 L31,47.223 Z M16,35 C16,33.346 17.346,32 19,32 C20.654,32 22,33.346 22,35 C22,36.654 20.654,38 19,38 C17.346,38 16,36.654 16,35 L16,35 Z M18.745,44.791 C19.067,45.865 19.515,47.042 20.121,48.104 C19.09,47.724 18.1,47.291 17.154,46.811 C17.805,46.294 18.331,45.556 18.745,44.791 L18.745,44.791 Z" id="Shape" fill="#000000"></path>
    </g>
</svg>