<?xml version="1.0" encoding="UTF-8" standalone="no"?>
<svg width="44px" height="44px" viewBox="0 0 44 44" version="1.1" xmlns="http://www.w3.org/2000/svg" xmlns:xlink="http://www.w3.org/1999/xlink">
    <!-- Generator: Sketch 3.7.2 (28276) - http://www.bohemiancoding.com/sketch -->
    <title>cel-bow</title>
    <desc>Created with Sketch.</desc>
    <defs></defs>
    <g id="44px-Line" stroke="none" stroke-width="1" fill="none" fill-rule="evenodd">
        <g id="cel-bow"></g>
        <path d="M40.102,2 C35.37,2 31.49,5.643 29.536,7.901 C28.915,6.775 27.73,6 26.355,6 L17.646,6 C16.271,6 15.086,6.774 14.465,7.901 C12.511,5.643 8.63,2 3.898,2 C1.725,2 0.991,5.439 0.75,6.57 C0.267,8.833 0,11.854 0,15.076 C0,18.962 0.38,28 3.898,28 C8.63,28 12.51,24.357 14.464,22.099 C14.539,22.234 14.615,22.367 14.705,22.491 L6.186,34.419 C5.968,34.724 5.939,35.125 6.111,35.458 C6.282,35.791 6.625,36 7,36 L12.279,36 L14.051,41.316 C14.17,41.674 14.482,41.935 14.856,41.989 C14.904,41.997 14.952,42 15,42 C15.323,42 15.631,41.843 15.819,41.573 L21.999,32.743 L28.18,41.573 C28.369,41.843 28.677,42 29,42 C29.048,42 29.096,41.997 29.144,41.99 C29.518,41.935 29.83,41.675 29.949,41.317 L31.721,36 L37,36 C37.375,36 37.718,35.791 37.889,35.458 C38.061,35.125 38.032,34.724 37.814,34.419 L29.294,22.491 C29.385,22.366 29.461,22.234 29.535,22.099 C31.489,24.357 35.37,28 40.102,28 C42.284,28 43.016,24.605 43.256,23.489 C43.736,21.265 44,18.278 44,15.076 C44,11.145 43.62,2 40.102,2 L40.102,2 Z M17.646,8 L26.355,8 C27.262,8 28.001,8.738 28.001,9.646 L28.001,14.193 L28.001,14.194 L28.001,15.805 C28.001,15.805 28.001,15.805 28.001,15.806 L28.001,20.353 C28.001,21.261 27.263,21.999 26.355,21.999 L17.646,21.999 C16.739,21.999 16,21.261 16,20.353 L16,15.806 L16,15.805 L16,14.194 C16,14.194 16,14.194 16,14.193 L16,9.646 C16,8.738 16.738,8 17.646,8 L17.646,8 Z M3.915,26.002 C3.31,25.794 2.129,22.667 2.009,16.07 C1.872,8.575 3.164,4.289 3.899,4 C8.944,4 13.141,9.349 14.001,10.522 L14.001,12.077 C12.662,11.108 10.71,10 8.778,10 C8.225,10 7.778,10.448 7.778,11 C7.778,11.552 8.225,12 8.778,12 C10.677,12 12.967,13.709 14.001,14.638 L14.001,15.364 C12.971,16.292 10.685,18.001 8.778,18.001 C8.225,18.001 7.778,18.449 7.778,19.001 C7.778,19.553 8.225,20.001 8.778,20.001 C10.71,20.001 12.662,18.893 14.001,17.924 L14.001,19.479 C13.141,20.651 8.945,26 3.915,26.002 L3.915,26.002 Z M15.32,38.798 L13.948,34.683 C13.812,34.275 13.431,34 13,34 L8.943,34 L16.278,23.729 C16.701,23.901 17.161,24 17.645,24 L25.678,24 L15.32,38.798 L15.32,38.798 Z M31,34 C30.569,34 30.188,34.275 30.052,34.684 L28.68,38.799 L23.22,31 L28.018,24.146 L35.057,34 L31,34 L31,34 Z M41.991,16.07 C41.871,22.667 40.69,25.794 40.101,26 C35.056,26 30.859,20.65 29.999,19.478 L29.999,17.923 C31.338,18.892 33.29,20 35.222,20 C35.775,20 36.222,19.552 36.222,19 C36.222,18.448 35.775,18 35.222,18 C33.323,18 31.033,16.291 29.999,15.362 L29.999,14.636 C31.029,13.708 33.315,11.999 35.222,11.999 C35.775,11.999 36.222,11.551 36.222,10.999 C36.222,10.447 35.775,9.999 35.222,9.999 C33.29,9.999 31.338,11.107 29.999,12.076 L29.999,10.521 C30.858,9.348 35.053,3.999 40.074,3.995 C40.836,4.29 42.128,8.575 41.991,16.07 L41.991,16.07 Z" id="Shape" fill="#000000"></path>
    </g>
</svg>