<?xml version="1.0" encoding="UTF-8" standalone="no"?>
<svg width="44px" height="44px" viewBox="0 0 44 44" version="1.1" xmlns="http://www.w3.org/2000/svg" xmlns:xlink="http://www.w3.org/1999/xlink">
    <!-- Generator: Sketch 3.7.2 (28276) - http://www.bohemiancoding.com/sketch -->
    <title>cel-balloons</title>
    <desc>Created with Sketch.</desc>
    <defs></defs>
    <g id="44px-Glyph" stroke="none" stroke-width="1" fill="none" fill-rule="evenodd">
        <g id="cel-balloons" fill="#000000">
            <path d="M8,12.375 C8,8.091 9.454,4.421 11.883,1.857 C9.355,1.287 6.727,1.771 4.456,3.252 C-0.495,6.482 -1.419,12.626 2.212,18.19 C4.055,21.017 6.824,23.386 9.81,24.69 C10.771,25.111 11.709,25.39 12.618,25.559 C9.823,22.178 8,17.255 8,12.375" id="Fill-84"></path>
            <path d="M37.5502,3.252 C35.2782,1.77 32.6482,1.286 30.1182,1.858 C32.5472,4.422 34.0002,8.092 34.0002,12.375 C34.0002,17.256 32.1762,22.179 29.3812,25.561 C30.2922,25.392 31.2332,25.112 32.1972,24.69 C35.1822,23.386 37.9522,21.017 39.7952,18.19 C43.4252,12.626 42.5022,6.482 37.5502,3.252" id="Fill-86"></path>
            <path d="M21,6 C18.009,6 16,8.763 16,12.875 C16,13.428 15.552,13.875 15,13.875 C14.448,13.875 14,13.428 14,12.875 C14,7.649 16.878,4 21,4 C21.552,4 22,4.447 22,5 C22,5.553 21.552,6 21,6 M32,12.375 C32,5.089 27.477,0 21,0 C14.523,0 10,5.089 10,12.375 C10,18.412 13.153,25.027 17.749,27.232 C16.687,28.15 16,29.49 16,31 C16,31.553 16.448,32 17,32 L18.822,32 C18.373,32.734 18,33.66 18,34.75 C18,36.419 19.413,37.557 20.548,38.471 C21.161,38.964 22,39.64 22,40 C22,40.986 20.9,41.885 20.48,42.146 C20.008,42.434 19.859,43.049 20.146,43.52 C20.335,43.829 20.664,44 21.001,44 C21.178,44 21.358,43.953 21.521,43.854 C21.622,43.792 24,42.316 24,40 C24,38.683 22.883,37.783 21.802,36.913 C20.916,36.199 20,35.462 20,34.75 C20,33.439 20.93,32.414 21.372,32 L25,32 C25.552,32 26,31.553 26,31 C26,29.49 25.313,28.15 24.251,27.232 C28.847,25.027 32,18.412 32,12.375" id="Fill-88"></path>
        </g>
    </g>
</svg>