<?xml version="1.0" encoding="UTF-8" standalone="no"?>
<svg width="44px" height="44px" viewBox="0 0 44 44" version="1.1" xmlns="http://www.w3.org/2000/svg" xmlns:xlink="http://www.w3.org/1999/xlink">
    <!-- Generator: Sketch 3.7.2 (28276) - http://www.bohemiancoding.com/sketch -->
    <title>cel-cheers</title>
    <desc>Created with Sketch.</desc>
    <defs></defs>
    <g id="44px-Line" stroke="none" stroke-width="1" fill="none" fill-rule="evenodd">
        <g id="cel-cheers"></g>
        <path d="M24.105,15.408 C23.986,15.647 23.966,15.924 24.053,16.178 L27.944,27.607 C28.728,29.912 30.926,31.375 33.276,31.375 C33.54,31.375 33.806,31.351 34.071,31.313 L37.315,40.841 L33.683,42.051 C33.16,42.226 32.876,42.792 33.051,43.316 C33.191,43.735 33.58,44 33.999,44 C34.103,44 34.21,43.983 34.315,43.948 L43.315,40.948 C43.838,40.773 44.122,40.207 43.947,39.683 C43.773,39.16 43.212,38.873 42.682,39.051 L39.21,40.208 L35.968,30.686 C36.975,30.145 37.791,29.324 38.309,28.29 C38.965,26.979 39.066,25.493 38.594,24.107 L34.703,12.678 C34.528,12.16 33.967,11.879 33.447,12.05 L24.687,14.905 C24.436,14.988 24.226,15.169 24.105,15.408 L24.105,15.408 Z M36.522,27.396 C36.094,28.252 35.347,28.89 34.419,29.193 C32.522,29.811 30.466,28.812 29.836,26.963 L28.488,23 L36.107,23 L36.703,24.751 C37.002,25.627 36.938,26.566 36.522,27.396 L36.522,27.396 Z M33.131,14.257 L35.427,21 L27.808,21 L26.274,16.492 L33.131,14.257 L33.131,14.257 Z" id="Shape" fill="#000000"></path>
        <path d="M1.316,39.051 C0.788,38.874 0.226,39.16 0.051,39.683 C-0.124,40.207 0.159,40.773 0.683,40.948 L9.683,43.948 C9.788,43.983 9.895,44 9.999,44 C10.418,44 10.808,43.735 10.947,43.316 C11.122,42.792 10.839,42.226 10.315,42.051 L6.683,40.841 L9.927,31.313 C10.193,31.351 10.458,31.375 10.722,31.375 C13.072,31.375 15.27,29.913 16.054,27.607 L19.945,16.178 C20.032,15.925 20.012,15.648 19.893,15.408 C19.773,15.169 19.563,14.988 19.308,14.905 L10.548,12.05 C10.029,11.88 9.467,12.161 9.292,12.678 L5.401,24.107 C4.929,25.493 5.03,26.979 5.686,28.29 C6.204,29.324 7.02,30.146 8.027,30.686 L4.785,40.208 L1.316,39.051 L1.316,39.051 Z M10.869,14.257 L17.726,16.492 L16.192,21 L8.573,21 L10.869,14.257 L10.869,14.257 Z M7.296,24.751 L7.892,23 L15.511,23 L14.162,26.962 C13.533,28.811 11.476,29.81 9.579,29.192 C8.651,28.889 7.904,28.252 7.476,27.395 C7.062,26.566 6.998,25.627 7.296,24.751 L7.296,24.751 Z" id="Shape" fill="#000000"></path>
        <circle id="Oval" fill="#000000" cx="28" cy="10" r="2"></circle>
        <circle id="Oval" fill="#000000" cx="14" cy="8" r="2"></circle>
        <path d="M24,5 C24,3.346 22.654,2 21,2 C19.346,2 18,3.346 18,5 C18,6.654 19.346,8 21,8 C22.654,8 24,6.654 24,5 L24,5 Z M20,5 C20,4.449 20.448,4 21,4 C21.552,4 22,4.449 22,5 C22,5.551 21.552,6 21,6 C20.448,6 20,5.551 20,5 L20,5 Z" id="Shape" fill="#000000"></path>
        <circle id="Oval" fill="#000000" cx="30" cy="2" r="2"></circle>
    </g>
</svg>