<?xml version="1.0" encoding="UTF-8" standalone="no"?>
<svg width="64px" height="64px" viewBox="0 0 64 64" version="1.1" xmlns="http://www.w3.org/2000/svg" xmlns:xlink="http://www.w3.org/1999/xlink">
    <!-- Generator: Sketch 3.7.2 (28276) - http://www.bohemiancoding.com/sketch -->
    <title>cel-bunny</title>
    <desc>Created with Sketch.</desc>
    <defs></defs>
    <g id="64px-Line" stroke="none" stroke-width="1" fill="none" fill-rule="evenodd">
        <g id="cel-bunny"></g>
        <path d="M23,42 C24.654,42 26,40.654 26,39 C26,37.346 24.654,36 23,36 C21.346,36 20,37.346 20,39 C20,40.654 21.346,42 23,42 L23,42 Z M23,38 C23.551,38 24,38.448 24,39 C24,39.552 23.551,40 23,40 C22.449,40 22,39.552 22,39 C22,38.448 22.449,38 23,38 L23,38 Z" id="Shape" fill="#000000"></path>
        <path d="M39,42 C40.654,42 42,40.654 42,39 C42,37.346 40.654,36 39,36 C37.346,36 36,37.346 36,39 C36,40.654 37.346,42 39,42 L39,42 Z M39,38 C39.551,38 40,38.448 40,39 C40,39.552 39.551,40 39,40 C38.449,40 38,39.552 38,39 C38,38.448 38.449,38 39,38 L39,38 Z" id="Shape" fill="#000000"></path>
        <path d="M28.504,49.059 C28.868,49.605 29.4,49.988 30,50.202 L30,51.922 C27.696,51.573 25.578,50.184 25.554,50.168 C25.093,49.864 24.473,49.988 24.168,50.447 C23.862,50.907 23.986,51.527 24.445,51.833 C24.578,51.922 27.735,54.001 31,54.001 C34.265,54.001 37.422,51.922 37.555,51.833 C38.014,51.526 38.138,50.906 37.832,50.446 C37.525,49.986 36.905,49.862 36.445,50.169 C36.421,50.185 34.312,51.575 32,51.923 L32,50.202 C32.6,49.989 33.132,49.606 33.496,49.059 L34.795,47.11 C35.205,46.495 35.243,45.709 34.895,45.057 C34.546,44.405 33.871,44 33.131,44 L28.868,44 C28.129,44 27.453,44.404 27.104,45.057 C26.755,45.708 26.793,46.495 27.204,47.11 L28.504,49.059 L28.504,49.059 Z M33.131,46 L31.832,47.949 C31.455,48.515 30.545,48.515 30.168,47.949 L28.869,46 L33.131,46 L33.131,46 Z" id="Shape" fill="#000000"></path>
        <path d="M14.414,33.944 C10.401,37.365 8,41.804 8,46 C8,54.374 17.243,60 31,60 C44.757,60 54,54.374 54,46 C54,41.804 51.599,37.365 47.586,33.944 C49.716,31.846 51.744,29.17 53.494,26.136 C58.619,17.246 59.506,8.824 55.556,6.546 C53.562,5.396 50.762,6.076 47.67,8.461 C44.82,10.66 41.966,14.098 39.633,18.142 C37.643,21.594 36.219,25.188 35.553,28.391 C34.09,28.139 32.57,28 31,28 C29.43,28 27.91,28.139 26.446,28.391 C25.78,25.189 24.357,21.595 22.366,18.142 C20.033,14.098 17.179,10.661 14.329,8.461 C11.238,6.077 8.438,5.397 6.443,6.546 C2.493,8.824 3.38,17.246 8.505,26.136 C10.255,29.17 12.283,31.845 14.414,33.944 L14.414,33.944 Z M41.366,19.143 C43.571,15.32 46.243,12.089 48.892,10.046 C51.266,8.215 53.331,7.573 54.557,8.279 C57.015,9.697 56.471,16.968 51.762,25.136 C50.073,28.064 48.044,30.714 45.99,32.699 C43.575,30.977 40.706,29.613 37.51,28.806 C38.131,25.811 39.476,22.42 41.366,19.143 L41.366,19.143 Z M52,46 C52,51.973 45.507,58 31,58 C16.493,58 10,51.973 10,46 C10,36.989 21.289,30 31,30 C40.711,30 52,36.989 52,46 L52,46 Z M7.443,8.279 C8.672,7.572 10.735,8.215 13.108,10.046 C15.756,12.089 18.429,15.319 20.634,19.143 C22.524,22.42 23.87,25.811 24.49,28.808 C21.294,29.614 18.425,30.979 16.01,32.701 C13.956,30.715 11.926,28.065 10.238,25.139 C5.529,16.969 4.985,9.697 7.443,8.279 L7.443,8.279 Z" id="Shape" fill="#000000"></path>
        <path d="M15.573,29.591 C15.77,29.849 16.067,29.984 16.367,29.984 C16.579,29.984 16.793,29.917 16.974,29.778 C17.412,29.443 17.496,28.815 17.16,28.377 C15.999,26.859 14.804,25.049 13.702,23.14 C10.252,17.158 9.168,12.827 9.464,11.803 C9.657,11.863 10.09,12.059 10.844,12.718 C11.261,13.082 11.892,13.04 12.255,12.623 C12.619,12.208 12.577,11.576 12.161,11.212 C11.591,10.713 9.857,9.192 8.441,10.013 C5.073,11.955 11.254,22.898 11.97,24.14 C13.115,26.121 14.36,28.006 15.573,29.591 L15.573,29.591 Z" id="Shape" fill="#000000"></path>
        <path d="M52.522,11.794 C52.58,12.049 52.606,12.677 52.334,13.846 C52.209,14.384 52.544,14.921 53.082,15.046 C53.617,15.177 54.157,14.837 54.283,14.299 C54.479,13.455 55.075,10.888 53.557,10.012 C50.189,8.065 43.814,18.901 43.098,20.142 C41.864,22.282 40.796,24.45 40.01,26.412 C39.804,26.925 40.053,27.507 40.566,27.712 C40.688,27.762 40.814,27.784 40.938,27.784 C41.335,27.784 41.71,27.547 41.867,27.156 C42.618,25.281 43.644,23.201 44.831,21.141 C48.283,15.155 51.49,12.048 52.522,11.794 L52.522,11.794 Z" id="Shape" fill="#000000"></path>
    </g>
</svg>