<?xml version="1.0" encoding="UTF-8" standalone="no"?>
<svg width="44px" height="44px" viewBox="0 0 44 44" version="1.1" xmlns="http://www.w3.org/2000/svg" xmlns:xlink="http://www.w3.org/1999/xlink">
    <!-- Generator: Sketch 3.7.2 (28276) - http://www.bohemiancoding.com/sketch -->
    <title>cel-couple-love</title>
    <desc>Created with Sketch.</desc>
    <defs></defs>
    <g id="44px-Line" stroke="none" stroke-width="1" fill="none" fill-rule="evenodd">
        <g id="cel-couple-love"></g>
        <path d="M21.28,21.694 C21.468,21.889 21.728,22 22,22 C22.272,22 22.531,21.89 22.72,21.694 L31.985,12.086 C34.666,9.328 34.666,4.842 31.983,2.085 C30.674,0.74 28.932,-5.68434189e-14 27.079,-5.68434189e-14 L27.078,-5.68434189e-14 C25.224,-5.68434189e-14 23.481,0.741 22.209,2.05 L22,2.244 L21.829,2.085 C20.52,0.74 18.779,0 16.925,0 C16.925,0 16.925,0 16.924,0 C15.07,0 13.327,0.741 12.019,2.085 C9.336,4.843 9.336,9.331 12.016,12.085 L21.28,21.694 L21.28,21.694 Z M13.451,3.48 C14.38,2.526 15.613,2 16.923,2 L16.924,2 C18.234,2 19.466,2.526 20.431,3.515 L21.32,4.341 C21.703,4.697 22.299,4.697 22.681,4.341 L23.606,3.48 C24.535,2.525 25.768,2 27.078,2 C28.389,2 29.621,2.525 30.55,3.48 C32.485,5.469 32.485,8.705 30.55,10.694 C30.549,10.695 30.548,10.696 30.547,10.697 L22,19.56 L13.451,10.694 C11.517,8.705 11.517,5.469 13.451,3.48 L13.451,3.48 Z" id="Shape" fill="#000000"></path>
        <path d="M16,26 C16,21.589 13.309,18 10,18 C6.691,18 4,21.589 4,26 C4,30.411 6.691,34 10,34 C13.309,34 16,30.411 16,26 L16,26 Z M10,32 C7.832,32 6,29.252 6,26 C6,22.748 7.832,20 10,20 C12.168,20 14,22.748 14,26 C14,29.252 12.168,32 10,32 L10,32 Z" id="Shape" fill="#000000"></path>
        <path d="M1,44 C1.553,44 2,43.552 2,43 C2,38.878 5.29,36 10,36 C14.71,36 18,38.878 18,43 C18,43.552 18.447,44 19,44 C19.553,44 20,43.552 20,43 C20,37.785 15.794,34 10,34 C4.206,34 0,37.785 0,43 C0,43.552 0.447,44 1,44 L1,44 Z" id="Shape" fill="#000000"></path>
        <path d="M40,26 C40,21.589 37.309,18 34,18 C30.691,18 28,21.589 28,26 C28,30.411 30.691,34 34,34 C37.309,34 40,30.411 40,26 L40,26 Z M34,32 C31.832,32 30,29.252 30,26 C30,22.748 31.832,20 34,20 C36.168,20 38,22.748 38,26 C38,29.252 36.168,32 34,32 L34,32 Z" id="Shape" fill="#000000"></path>
        <path d="M44,43 C44,37.785 39.794,34 34,34 C28.206,34 24,37.785 24,43 C24,43.552 24.447,44 25,44 C25.553,44 26,43.552 26,43 C26,38.878 29.29,36 34,36 C38.71,36 42,38.878 42,43 C42,43.552 42.447,44 43,44 C43.553,44 44,43.552 44,43 L44,43 Z" id="Shape" fill="#000000"></path>
    </g>
</svg>