<?xml version="1.0" encoding="UTF-8" standalone="no"?>
<svg width="64px" height="64px" viewBox="0 0 64 64" version="1.1" xmlns="http://www.w3.org/2000/svg" xmlns:xlink="http://www.w3.org/1999/xlink">
    <!-- Generator: Sketch 3.7.2 (28276) - http://www.bohemiancoding.com/sketch -->
    <title>cel-holly</title>
    <desc>Created with Sketch.</desc>
    <defs></defs>
    <g id="64px-Line" stroke="none" stroke-width="1" fill="none" fill-rule="evenodd">
        <g id="cel-holly"></g>
        <path d="M11,60 C13.548,60 15.775,58.627 17,56.587 C18.225,58.628 20.452,60 23,60 C26.86,60 30,56.86 30,53 C30,49.14 26.86,46 23,46 C22.908,46 22.818,46.01 22.726,46.014 C23.526,44.876 24,43.494 24,42 C24,38.14 20.86,35 17,35 C13.14,35 10,38.14 10,42 C10,43.494 10.474,44.876 11.274,46.014 C11.182,46.01 11.092,46 11,46 C7.14,46 4,49.14 4,53 C4,56.86 7.14,60 11,60 L11,60 Z M28,53 C28,55.757 25.757,58 23,58 C20.243,58 18,55.757 18,53 C18,50.243 20.243,48 23,48 C25.757,48 28,50.243 28,53 L28,53 Z M17,49.413 C16.913,49.267 16.823,49.124 16.726,48.986 C16.818,48.99 16.908,49 17,49 C17.092,49 17.182,48.99 17.274,48.986 C17.177,49.125 17.087,49.268 17,49.413 L17,49.413 Z M17,37 C19.757,37 22,39.243 22,42 C22,44.757 19.757,47 17,47 C14.243,47 12,44.757 12,42 C12,39.243 14.243,37 17,37 L17,37 Z M11,48 C13.757,48 16,50.243 16,53 C16,55.757 13.757,58 11,58 C8.243,58 6,55.757 6,53 C6,50.243 8.243,48 11,48 L11,48 Z" id="Shape" fill="#000000"></path>
        <path d="M18.474,30.15 C18.138,30.358 17.957,30.744 18.011,31.136 C18.065,31.527 18.344,31.851 18.724,31.961 C18.77,31.975 23.38,33.356 24.015,37.165 C24.502,40.089 24.788,41.226 25.19,41.689 C25.667,42.374 26.675,42.449 29.184,41.984 C31.986,41.467 34.274,43.688 34.295,43.708 C34.485,43.898 34.74,44 35.002,44 C35.099,44 35.196,43.986 35.292,43.958 C35.645,43.852 35.91,43.559 35.983,43.198 C35.992,43.152 36.943,38.575 39.557,36.833 C42.089,35.146 44.587,35.917 44.686,35.95 C44.968,36.044 45.275,36.008 45.525,35.853 C45.777,35.699 45.948,35.44 45.991,35.148 C45.997,35.108 46.609,31.145 48.759,28.655 C50.821,26.267 55.015,26.002 55.058,26 C55.47,25.977 55.826,25.702 55.953,25.309 C56.08,24.916 55.953,24.486 55.633,24.226 C55.598,24.197 52.117,21.313 52.981,17.208 C53.893,12.876 57.597,9.808 57.634,9.777 C58.03,9.454 58.118,8.884 57.839,8.456 C57.56,8.028 57.003,7.879 56.548,8.111 C54.878,8.961 49.965,10.966 47.328,10.057 C44.017,8.915 41.78,6.373 41.758,6.348 C41.496,6.046 41.078,5.927 40.696,6.052 C40.315,6.174 40.043,6.511 40.006,6.91 C40.003,6.943 39.662,10.232 36.735,11.039 C33.515,11.928 29.456,10.111 29.416,10.093 C29.072,9.936 28.666,9.988 28.371,10.228 C28.077,10.468 27.943,10.853 28.026,11.224 C28.034,11.258 28.747,14.648 27.252,16.342 C25.727,18.071 23.063,18.005 23.042,18.005 C22.694,17.991 22.387,18.147 22.19,18.42 C21.993,18.693 21.947,19.045 22.066,19.359 C22.078,19.392 23.288,22.651 22.075,25.627 C20.848,28.631 18.495,30.137 18.474,30.15 L18.474,30.15 Z M23.926,26.377 C24.928,23.916 24.628,21.377 24.296,19.907 C25.541,19.723 27.4,19.19 28.75,17.661 C30.079,16.154 30.261,14.004 30.189,12.508 C31.904,13.052 34.717,13.667 37.266,12.964 C39.804,12.264 40.992,10.368 41.54,8.917 C42.655,9.882 44.436,11.174 46.673,11.945 C48.652,12.628 51.256,12.159 53.41,11.498 C52.421,12.905 51.459,14.708 51.02,16.793 C50.319,20.121 51.755,22.759 52.96,24.294 C51.256,24.667 48.834,25.501 47.241,27.345 C45.421,29.452 44.562,32.307 44.213,33.819 C42.923,33.65 40.686,33.672 38.443,35.167 C36.207,36.658 34.991,39.523 34.425,41.29 C33.416,40.635 31.879,39.902 30.052,39.902 C29.653,39.902 29.24,39.937 28.815,40.016 C28.119,40.145 27.636,40.211 27.282,40.246 C28.46,36.806 33.172,25.302 45.514,17.856 C45.987,17.57 46.139,16.956 45.854,16.483 C45.568,16.009 44.954,15.858 44.481,16.143 C33.253,22.917 28.12,32.66 26.117,37.614 C26.075,37.375 26.03,37.116 25.983,36.835 C25.421,33.466 22.744,31.602 20.943,30.711 C21.894,29.814 23.11,28.38 23.926,26.377 L23.926,26.377 Z" id="Shape" fill="#000000"></path>
    </g>
</svg>