<?xml version="1.0" encoding="UTF-8" standalone="no"?>
<svg width="44px" height="44px" viewBox="0 0 44 44" version="1.1" xmlns="http://www.w3.org/2000/svg" xmlns:xlink="http://www.w3.org/1999/xlink">
    <!-- Generator: Sketch 3.7.2 (28276) - http://www.bohemiancoding.com/sketch -->
    <title>cel-church</title>
    <desc>Created with Sketch.</desc>
    <defs></defs>
    <g id="44px-Line" stroke="none" stroke-width="1" fill="none" fill-rule="evenodd">
        <g id="cel-church"></g>
        <path d="M0.438,29.173 C-0.019,29.483 -0.138,30.105 0.172,30.562 C0.365,30.847 0.68,31 1.001,31 C1.194,31 1.39,30.944 1.562,30.827 L4,29.172 L4,43 C4,43.553 4.448,44 5,44 L17,44 C17.552,44 18,43.553 18,43 L18,35 C18,33.346 19.346,32 21,32 C22.654,32 24,33.346 24,35 L24,43 C24,43.553 24.448,44 25,44 L37,44 C37.552,44 38,43.553 38,43 L38,29.202 L40.445,30.832 C40.615,30.945 40.808,31 40.999,31 C41.322,31 41.639,30.844 41.832,30.555 C42.138,30.095 42.014,29.475 41.555,29.168 L30,21.465 L30,14.202 L32.445,15.832 C32.615,15.945 32.808,16 32.999,16 C33.322,16 33.639,15.844 33.832,15.555 C34.138,15.095 34.014,14.475 33.555,14.168 L22,6.465 L22,4 L23,4 C23.552,4 24,3.553 24,3 C24,2.447 23.552,2 23,2 L22,2 L22,1 C22,0.447 21.552,0 21,0 C20.448,0 20,0.447 20,1 L20,2 L19,2 C18.448,2 18,2.447 18,3 C18,3.553 18.448,4 19,4 L20,4 L20,6.465 L8.445,14.168 C7.986,14.475 7.862,15.095 8.168,15.555 C8.474,16.014 9.095,16.137 9.555,15.832 L12,14.202 L12,21.327 L0.438,29.173 L0.438,29.173 Z M21,8.202 L28,12.869 L28,22 C28,22.334 28.167,22.646 28.445,22.832 L36,27.869 L36,42 L26,42 L26,35 C26,32.243 23.757,30 21,30 C18.243,30 16,32.243 16,35 L16,42 L6,42 L6,27.815 L13.562,22.684 C13.836,22.498 14,22.188 14,21.857 L14,12.868 L21,8.202 L21,8.202 Z" id="Shape" fill="#000000"></path>
        <path d="M21,20 C21.552,20 22,19.553 22,19 L22,15 C22,14.447 21.552,14 21,14 C20.448,14 20,14.447 20,15 L20,19 C20,19.553 20.448,20 21,20 L21,20 Z" id="Shape" fill="#000000"></path>
    </g>
</svg>