<?xml version="1.0" encoding="UTF-8" standalone="no"?>
<svg width="44px" height="44px" viewBox="0 0 44 44" version="1.1" xmlns="http://www.w3.org/2000/svg" xmlns:xlink="http://www.w3.org/1999/xlink">
    <!-- Generator: Sketch 3.7.2 (28276) - http://www.bohemiancoding.com/sketch -->
    <title>cel-heart</title>
    <desc>Created with Sketch.</desc>
    <defs></defs>
    <g id="44px-Glyph" stroke="none" stroke-width="1" fill="none" fill-rule="evenodd">
        <g id="cel-heart" fill="#000000">
            <path d="M22.0004,42 C21.7294,42 21.4704,41.891 21.2824,41.696 L3.5874,23.439 C-1.1966,18.548 -1.1966,10.583 3.5904,5.687 C5.9164,3.31 9.0114,2.001 12.3044,2.001 L12.3044,2.001 C15.5984,2.001 18.6924,3.311 21.0174,5.687 L21.9994,6.595 L23.0174,5.652 C25.3094,3.31 28.4044,2 31.6974,2 L31.6984,2 C34.9904,2 38.0834,3.31 40.4094,5.687 C45.1964,10.583 45.1974,18.547 40.4114,23.441 L22.7194,41.696 C22.5304,41.891 22.2714,42 22.0004,42" id="Fill-21"></path>
        </g>
    </g>
</svg>