<?xml version="1.0" encoding="UTF-8" standalone="no"?>
<svg width="64px" height="64px" viewBox="0 0 64 64" version="1.1" xmlns="http://www.w3.org/2000/svg" xmlns:xlink="http://www.w3.org/1999/xlink">
    <!-- Generator: Sketch 3.7.2 (28276) - http://www.bohemiancoding.com/sketch -->
    <title>cel-qupid-arrow</title>
    <desc>Created with Sketch.</desc>
    <defs></defs>
    <g id="64px-Line" stroke="none" stroke-width="1" fill="none" fill-rule="evenodd">
        <g id="cel-qupid-arrow"></g>
        <path d="M51.895,27.195 C50.105,25.615 47.196,25.613 45.408,27.197 C44.5,28 44,29.077 44,30.23 C44,30.857 44.164,31.455 44.438,32 L40.629,32 C41.248,30.554 42,28.154 42,25 C42,20.204 36.86,16.527 32.326,13.284 C29.435,11.217 26.457,9.085 26.051,7.381 C26.033,7.254 26,7.125 26,7 C26,6.447 25.552,6 25,6 C24.448,6 24,6.447 24,7 C24,7.229 24.03,7.454 24.073,7.678 C24.115,7.96 24.181,8.24 24.27,8.518 L4.234,32.357 C4.194,32.405 4.174,32.461 4.144,32.514 C4.12,32.556 4.091,32.592 4.073,32.638 C3.981,32.872 3.981,33.13 4.073,33.365 C4.091,33.41 4.12,33.447 4.144,33.489 C4.174,33.541 4.194,33.598 4.234,33.646 L24.27,57.485 C24.181,57.763 24.115,58.043 24.073,58.325 C24.03,58.546 24,58.771 24,59 C24,59.553 24.448,60 25,60 C25.552,60 26,59.553 26,59 C26,58.875 26.033,58.746 26.051,58.619 C26.457,56.914 29.436,54.783 32.326,52.716 C36.86,49.473 42,45.796 42,41 C42,37.846 41.248,35.446 40.629,34 L44.441,34 C44.162,34.548 43.999,35.144 43.999,35.769 C43.999,36.923 44.499,38 45.406,38.803 C46.301,39.595 47.477,39.991 48.653,39.991 C49.827,39.991 51.001,39.596 51.893,38.806 L57.659,33.752 C57.876,33.562 58,33.288 58,33 C58,32.712 57.876,32.438 57.659,32.248 L51.895,27.195 L51.895,27.195 Z M40,25 C40,28.556 38.919,31.04 38.418,32 L35,32 C35.923,30.519 37,28.127 37,25 C37,21.607 35.147,18.748 32.944,16.198 C36.543,18.836 40,21.767 40,25 L40,25 Z M28.916,14.791 C31.768,17.758 35,21.12 35,25 C35,28.66 33.222,31.177 32.548,32 L7.147,32 L25.233,10.481 C26.165,11.912 27.51,13.329 28.916,14.791 L28.916,14.791 Z M7.147,34 L32.548,34 C33.224,34.826 35,37.342 35,41 C35,44.88 31.768,48.242 28.916,51.209 C27.511,52.671 26.165,54.088 25.233,55.519 L7.147,34 L7.147,34 Z M32.944,49.802 C35.147,47.252 37,44.393 37,41 C37,37.873 35.924,35.481 35,34 L38.421,34 C38.923,34.954 40,37.417 40,41 C40,44.233 36.543,47.164 32.944,49.802 L32.944,49.802 Z M50.572,37.305 C49.531,38.227 47.774,38.225 46.733,37.305 C46.26,36.887 46,36.342 46,35.769 C46,35.197 46.26,34.652 46.769,34.2 L47.265,33.716 C47.266,33.715 47.266,33.714 47.267,33.713 C47.36,33.621 47.436,33.512 47.487,33.39 C47.538,33.268 47.565,33.137 47.565,33.002 C47.565,32.867 47.538,32.735 47.487,32.614 C47.435,32.491 47.36,32.383 47.267,32.291 C47.266,32.29 47.266,32.289 47.265,32.288 L46.733,31.769 C46.26,31.349 46,30.804 46,30.23 C46,29.658 46.26,29.113 46.732,28.695 C47.253,28.234 47.952,28.005 48.652,28.005 C49.351,28.005 50.051,28.234 50.571,28.695 C50.572,28.696 50.573,28.697 50.574,28.698 L55.483,33 L50.572,37.305 L50.572,37.305 Z" id="Shape" fill="#000000"></path>
    </g>
</svg>