<?xml version="1.0" encoding="UTF-8" standalone="no"?>
<svg width="64px" height="64px" viewBox="0 0 64 64" version="1.1" xmlns="http://www.w3.org/2000/svg" xmlns:xlink="http://www.w3.org/1999/xlink">
    <!-- Generator: Sketch 3.7.2 (28276) - http://www.bohemiancoding.com/sketch -->
    <title>cel-plum-pudding</title>
    <desc>Created with Sketch.</desc>
    <defs></defs>
    <g id="64px-Line" stroke="none" stroke-width="1" fill="none" fill-rule="evenodd">
        <g id="cel-plum-pudding"></g>
        <path d="M57,58 L54,58 L54,53 C54,48.873 52.902,45 50.991,41.648 C50.977,41.617 50.955,41.57 50.947,41.554 C50.937,41.534 50.918,41.522 50.907,41.503 C48.051,36.576 43.423,32.799 37.898,31.058 C39.166,30.15 40,28.674 40,27 C40,24.243 37.757,22 35,22 C34.753,22 34.516,22.038 34.278,22.073 C36.089,21.07 38.582,20 41,20 C41.273,20 41.534,19.889 41.723,19.691 C41.911,19.494 42.012,19.228 41.999,18.956 C41.845,15.474 45.244,13.983 45.386,13.923 C45.698,13.793 45.916,13.508 45.977,13.176 C46.039,12.844 45.922,12.497 45.677,12.264 C45.609,12.199 44.025,10.635 45.862,7.506 C45.888,7.462 45.9,7.413 45.919,7.365 C45.931,7.336 45.945,7.309 45.954,7.279 C45.986,7.168 46.002,7.055 45.996,6.941 C45.995,6.922 45.988,6.904 45.985,6.884 C45.973,6.785 45.946,6.689 45.905,6.596 C45.898,6.579 45.899,6.562 45.891,6.545 C45.883,6.529 45.868,6.52 45.858,6.504 C45.843,6.477 45.834,6.447 45.816,6.422 C45.775,6.365 45.724,6.319 45.674,6.273 C45.658,6.258 45.647,6.24 45.631,6.227 C45.542,6.154 45.441,6.1 45.333,6.061 C45.305,6.051 45.276,6.047 45.247,6.04 C45.164,6.019 45.08,6.008 44.993,6.009 C44.955,6.009 44.919,6.009 44.881,6.014 C44.857,6.017 44.834,6.013 44.81,6.017 C39.892,6.966 35.248,6.03 35.202,6.02 C34.666,5.906 34.144,6.25 34.023,6.781 C33.986,6.944 33.06,10.791 28.723,12.038 C28.383,12.136 28.119,12.406 28.031,12.749 C27.943,13.092 28.042,13.456 28.292,13.706 C30.957,16.371 30.02,22.784 30.01,22.848 C30,22.91 30.008,22.972 30.01,23.034 C29.171,22.395 28.135,22 27,22 C24.243,22 22,24.243 22,27 C22,28.674 22.834,30.15 24.102,31.058 C19.4,32.54 15.347,35.495 12.483,39.378 C12.468,39.397 12.446,39.406 12.432,39.426 C12.403,39.467 12.34,39.562 12.259,39.692 C9.581,43.452 8,48.043 8,53 L8,58 L5,58 C4.448,58 4,58.448 4,59 C4,59.552 4.448,60 5,60 L57,60 C57.552,60 58,59.552 58,59 C58,58.448 57.552,58 57,58 L57,58 Z M38,27 C38,28.654 36.654,30 35,30 C33.346,30 32,28.654 32,27 C32,25.346 33.346,24 35,24 C36.654,24 38,25.346 38,27 L38,27 Z M30.971,23.996 C30.981,23.996 30.991,24 31,24 C31.01,24 31.019,23.996 31.029,23.995 C31.019,24.008 31.008,24.019 30.999,24.031 C30.991,24.019 30.98,24.008 30.971,23.996 L30.971,23.996 Z M40.025,18.045 C37.379,18.286 34.829,19.446 33.013,20.482 C33.613,19.159 34.514,17.453 35.821,15.57 C37.637,12.955 40.852,10.659 43.065,9.274 C42.801,10.768 43.136,11.912 43.534,12.665 C42.263,13.483 40.296,15.191 40.025,18.045 L40.025,18.045 Z M35.687,8.131 C36.703,8.281 38.51,8.479 40.678,8.437 C38.481,9.927 35.849,12.024 34.179,14.429 C33.301,15.693 32.601,16.874 32.038,17.934 C31.853,16.408 31.453,14.797 30.632,13.469 C33.79,12.07 35.158,9.504 35.687,8.131 L35.687,8.131 Z M27,24 C28.654,24 30,25.346 30,27 C30,28.654 28.654,30 27,30 C25.346,30 24,28.654 24,27 C24,25.346 25.346,24 27,24 L27,24 Z M31,29.969 C31.008,29.98 31.018,29.99 31.026,30 L31,30 L30.974,30 C30.982,29.99 30.992,29.98 31,29.969 L31,29.969 Z M31,32 C38.81,32 45.624,36.294 49.242,42.637 C49.467,43.19 49.85,44.457 49.397,45.189 C48.982,45.859 47.864,46 47,46 C46.281,46 45.289,45.013 44.237,43.968 C42.458,42.2 40.244,40 37,40 C33.728,40 32.175,42.407 30.927,44.341 C29.864,45.99 29.153,47 28,47 C26.292,47 25.686,46.187 24.918,45.157 C24.29,44.314 23.577,43.358 22.238,43.029 C20.66,42.64 19.643,43.037 18.66,43.419 C17.893,43.718 17.167,44 16,44 C14.598,44 13.642,43.711 13.378,43.208 C13.065,42.611 13.504,41.535 13.879,40.881 C17.688,35.517 23.935,32 31,32 L31,32 Z M10,53 C10,49.964 10.661,47.083 11.826,44.475 C12.556,45.484 13.953,46 16,46 C17.542,46 18.565,45.603 19.386,45.283 C20.235,44.953 20.797,44.734 21.761,44.971 C22.372,45.121 22.749,45.594 23.315,46.352 C24.147,47.47 25.288,49 28,49 C30.302,49 31.527,47.101 32.607,45.426 C33.744,43.664 34.817,42 37,42 C39.419,42 41.23,43.799 42.827,45.387 C44.18,46.731 45.457,48 47,48 C48.867,48 50.187,47.476 50.941,46.454 C51.62,48.517 52,50.713 52,53 L52,58 L10,58 L10,53 L10,53 Z" id="Shape" fill="#000000"></path>
        <circle id="Oval" fill="#000000" cx="16" cy="52" r="2"></circle>
        <circle id="Oval" fill="#000000" cx="32" cy="54" r="2"></circle>
        <circle id="Oval" fill="#000000" cx="38" cy="48" r="2"></circle>
    </g>
</svg>