<?xml version="1.0" encoding="UTF-8" standalone="no"?>
<svg width="64px" height="64px" viewBox="0 0 64 64" version="1.1" xmlns="http://www.w3.org/2000/svg" xmlns:xlink="http://www.w3.org/1999/xlink">
    <!-- Generator: Sketch 3.7.2 (28276) - http://www.bohemiancoding.com/sketch -->
    <title>cel-snowman</title>
    <desc>Created with Sketch.</desc>
    <defs></defs>
    <g id="64px-Line" stroke="none" stroke-width="1" fill="none" fill-rule="evenodd">
        <g id="cel-snowman"></g>
        <circle id="Oval" fill="#000000" cx="32" cy="36" r="2"></circle>
        <circle id="Oval" fill="#000000" cx="28" cy="16" r="2"></circle>
        <circle id="Oval" fill="#000000" cx="36" cy="16" r="2"></circle>
        <circle id="Oval" fill="#000000" cx="32" cy="44" r="2"></circle>
        <circle id="Oval" fill="#000000" cx="32" cy="52" r="2"></circle>
        <path d="M56.553,31.895 C56.697,31.967 56.849,32 56.999,32 C57.366,32 57.719,31.798 57.895,31.447 C58.142,30.953 57.942,30.352 57.448,30.105 L54.461,28.612 L57.833,23.554 C58.139,23.095 58.015,22.473 57.556,22.167 C57.096,21.86 56.475,21.984 56.169,22.444 L52.334,28.196 L42.841,32.264 C41.204,30.75 39.257,29.573 37.099,28.845 C41.169,26.926 44,22.792 44,18 C44,11.383 38.617,6 32,6 C25.383,6 20,11.383 20,18 C20,22.792 22.831,26.926 26.902,28.847 C24.744,29.575 22.797,30.752 21.16,32.266 L11.667,28.198 L7.832,22.446 C7.525,21.986 6.905,21.862 6.445,22.169 C5.986,22.475 5.862,23.096 6.168,23.556 L9.54,28.614 L6.553,30.107 C6.059,30.354 5.859,30.955 6.106,31.449 C6.281,31.8 6.634,32.002 7.002,32.002 C7.152,32.002 7.305,31.968 7.448,31.897 L11.033,30.104 L19.678,33.809 C17.382,36.577 16,40.13 16,44 C16,52.822 23.178,60 32,60 C40.822,60 48,52.822 48,44 C48,40.13 46.618,36.577 44.322,33.807 L52.967,30.102 L56.553,31.895 L56.553,31.895 Z M22,18 C22,12.486 26.486,8 32,8 C37.514,8 42,12.486 42,18 C42,23.514 37.514,28 32,28 C26.486,28 22,23.514 22,18 L22,18 Z M46,44 C46,51.72 39.72,58 32,58 C24.28,58 18,51.72 18,44 C18,40.399 19.378,37.122 21.62,34.639 L24.606,35.919 C24.734,35.974 24.868,36.001 25,36.001 C25.388,36.001 25.757,35.773 25.919,35.395 C26.137,34.887 25.901,34.299 25.394,34.082 L23.187,33.136 C25.595,31.179 28.661,30.001 32,30.001 C35.339,30.001 38.404,31.179 40.813,33.136 L38.606,34.082 C38.099,34.299 37.863,34.887 38.081,35.395 C38.243,35.774 38.612,36.001 39,36.001 C39.131,36.001 39.265,35.975 39.394,35.919 L42.38,34.639 C44.622,37.122 46,40.399 46,44 L46,44 Z" id="Shape" fill="#000000"></path>
    </g>
</svg>