<?xml version="1.0" encoding="UTF-8" standalone="no"?>
<svg width="64px" height="64px" viewBox="0 0 64 64" version="1.1" xmlns="http://www.w3.org/2000/svg" xmlns:xlink="http://www.w3.org/1999/xlink">
    <!-- Generator: Sketch 3.7.2 (28276) - http://www.bohemiancoding.com/sketch -->
    <title>cel-hanukkah</title>
    <desc>Created with Sketch.</desc>
    <defs></defs>
    <g id="64px-Line" stroke="none" stroke-width="1" fill="none" fill-rule="evenodd">
        <g id="cel-hanukkah"></g>
        <path d="M30,45.975 L30,50.764 L26.105,58.553 C25.95,58.863 25.966,59.231 26.149,59.526 C26.332,59.82 26.653,60 27,60 L35,60 C35.347,60 35.668,59.82 35.851,59.526 C36.034,59.231 36.05,58.863 35.895,58.553 L32,50.764 L32,45.975 C45.323,45.448 56,34.45 56,21 C56,20.448 55.553,20 55,20 C54.447,20 54,20.448 54,21 C54,33.347 44.22,43.449 32,43.975 L32,37.95 C40.908,37.428 48,30.037 48,21.001 C48,20.449 47.553,20.001 47,20.001 C46.447,20.001 46,20.449 46,21.001 C46,28.935 39.805,35.432 32,35.95 L32,29.942 C36.493,29.442 40,25.625 40,21.001 C40,20.449 39.553,20.001 39,20.001 C38.447,20.001 38,20.449 38,21.001 C38,24.521 35.386,27.433 32,27.921 L32,21 C32,20.448 31.553,20 31,20 C30.447,20 30,20.448 30,21 L30,27.92 C26.614,27.432 24,24.52 24,21 C24,20.448 23.553,20 23,20 C22.447,20 22,20.448 22,21 C22,25.624 25.507,29.441 30,29.941 L30,35.949 C22.195,35.43 16,28.933 16,21 C16,20.448 15.553,20 15,20 C14.447,20 14,20.448 14,21 C14,30.037 21.092,37.427 30,37.949 L30,43.974 C17.78,43.448 8,33.346 8,20.999 C8,20.447 7.553,19.999 7,19.999 C6.447,19.999 6,20.447 6,20.999 C6,34.45 16.677,45.447 30,45.975 L30,45.975 Z M28.618,58 L31,53.236 L33.382,58 L28.618,58 L28.618,58 Z" id="Shape" fill="#000000"></path>
        <path d="M7,18 C7.553,18 8,17.552 8,17 L8,7 C8,6.448 7.553,6 7,6 C6.447,6 6,6.448 6,7 L6,17 C6,17.552 6.447,18 7,18 L7,18 Z" id="Shape" fill="#000000"></path>
        <path d="M14,7 L14,17 C14,17.552 14.447,18 15,18 C15.553,18 16,17.552 16,17 L16,7 C16,6.448 15.553,6 15,6 C14.447,6 14,6.448 14,7 L14,7 Z" id="Shape" fill="#000000"></path>
        <path d="M22,7 L22,17 C22,17.552 22.447,18 23,18 C23.553,18 24,17.552 24,17 L24,7 C24,6.448 23.553,6 23,6 C22.447,6 22,6.448 22,7 L22,7 Z" id="Shape" fill="#000000"></path>
        <path d="M30,7 L30,17 C30,17.552 30.447,18 31,18 C31.553,18 32,17.552 32,17 L32,7 C32,6.448 31.553,6 31,6 C30.447,6 30,6.448 30,7 L30,7 Z" id="Shape" fill="#000000"></path>
        <path d="M38,7 L38,17 C38,17.552 38.447,18 39,18 C39.553,18 40,17.552 40,17 L40,7 C40,6.448 39.553,6 39,6 C38.447,6 38,6.448 38,7 L38,7 Z" id="Shape" fill="#000000"></path>
        <path d="M46,7 L46,17 C46,17.552 46.447,18 47,18 C47.553,18 48,17.552 48,17 L48,7 C48,6.448 47.553,6 47,6 C46.447,6 46,6.448 46,7 L46,7 Z" id="Shape" fill="#000000"></path>
        <path d="M55,6 C54.447,6 54,6.448 54,7 L54,17 C54,17.552 54.447,18 55,18 C55.553,18 56,17.552 56,17 L56,7 C56,6.448 55.553,6 55,6 L55,6 Z" id="Shape" fill="#000000"></path>
    </g>
</svg>