<?xml version="1.0" encoding="UTF-8" standalone="no"?>
<svg width="44px" height="44px" viewBox="0 0 44 44" version="1.1" xmlns="http://www.w3.org/2000/svg" xmlns:xlink="http://www.w3.org/1999/xlink">
    <!-- Generator: Sketch 3.7.2 (28276) - http://www.bohemiancoding.com/sketch -->
    <title>cel-candle</title>
    <desc>Created with Sketch.</desc>
    <defs></defs>
    <g id="44px-Line" stroke="none" stroke-width="1" fill="none" fill-rule="evenodd">
        <g id="cel-candle"></g>
        <path d="M5,44 L29,44 C31.259,44 33.815,41.512 33.984,39.236 L36.268,33.632 C36.758,32.625 37.805,32 39,32 C40.683,32 42,33.318 42,35 C42,36.682 40.683,38 39,38 C38.447,38 38,38.448 38,39 C38,39.552 38.447,40 39,40 C41.804,40 44,37.804 44,35 C44,32.196 41.804,30 39,30 C37.033,30 35.297,31.057 34.442,32.818 L32.328,38 L22,38 L22,16.5 L23.385,15.923 C23.895,15.711 24.136,15.125 23.923,14.615 C23.71,14.105 23.124,13.865 22.615,14.077 L20.612,14.911 C20.611,14.911 20.61,14.912 20.609,14.912 L12.613,18.244 C12.611,18.244 12.609,18.245 12.608,18.246 L10.615,19.077 C10.105,19.289 9.864,19.875 10.077,20.385 C10.237,20.769 10.608,21.001 11,21.001 C11.129,21.001 11.259,20.976 11.385,20.923 L12,20.667 L12,21 C12,22.618 11.183,23.163 10.147,23.853 C9.19,24.49 8,25.283 8,27 C8,28.71 9.29,30 11,30 C11.352,30 11.686,29.928 12,29.816 L12,38 L1,38 C0.447,38 0,38.448 0,39 C0,41.336 2.663,44 5,44 L5,44 Z M11,28 C10.539,28 10,27.738 10,27 C10,26.407 10.325,26.137 11.256,25.517 C11.492,25.36 11.746,25.185 12,24.993 L12,27 C12,27.551 11.552,28 11,28 L11,28 Z M14,19.833 L20,17.333 L20,38 L14,38 L14,19.833 L14,19.833 Z M31.699,40 C31.141,41.013 29.922,42 29,42 L5,42 C4.078,42 2.858,41.013 2.301,40 L31.699,40 L31.699,40 Z" id="Shape" fill="#000000"></path>
        <path d="M17.697,0.283 C17.308,-0.095 16.691,-0.095 16.302,0.283 C16.126,0.453 11.999,4.524 11.999,9.555 C11.999,14.132 16.457,15.864 16.646,15.935 C16.651,15.937 16.657,15.936 16.662,15.938 C16.771,15.977 16.884,15.999 16.998,15.999 C17.118,15.999 17.237,15.976 17.35,15.933 C17.353,15.932 17.357,15.933 17.36,15.931 C17.549,15.857 21.998,14.075 21.998,9.555 C22,4.524 17.873,0.454 17.697,0.283 L17.697,0.283 Z M16,11.111 C16,10.053 16.544,9.105 17.011,8.486 C17.471,9.081 18,9.986 18,10.999 C18,12.039 17.443,12.963 16.977,13.556 C16.525,13.005 16,12.141 16,11.111 L16,11.111 Z M19.927,10.262 C19.578,7.941 17.738,6.316 17.651,6.241 C17.27,5.915 16.707,5.92 16.336,6.253 C16.25,6.33 14.443,7.98 14.078,10.311 C14.036,10.07 14,9.824 14,9.556 C14,6.524 15.93,3.781 17.001,2.492 C18.073,3.777 20,6.512 20,9.556 C20,9.806 19.965,10.035 19.927,10.262 L19.927,10.262 Z" id="Shape" fill="#000000"></path>
    </g>
</svg>