<?xml version="1.0" encoding="UTF-8" standalone="no"?>
<svg width="64px" height="64px" viewBox="0 0 64 64" version="1.1" xmlns="http://www.w3.org/2000/svg" xmlns:xlink="http://www.w3.org/1999/xlink">
    <!-- Generator: Sketch 3.7.2 (28276) - http://www.bohemiancoding.com/sketch -->
    <title>cel-heart-lock</title>
    <desc>Created with Sketch.</desc>
    <defs></defs>
    <g id="64px-Line" stroke="none" stroke-width="1" fill="none" fill-rule="evenodd">
        <g id="cel-heart-lock"></g>
        <path d="M31,6 C23.832,6 18,11.832 18,19 L18,20.331 C15.717,20.835 13.545,21.94 11.771,23.672 C9.339,26.046 8,29.204 8,32.565 C8,35.926 9.339,39.085 11.768,41.456 L30.298,59.713 C30.492,59.905 30.746,60.001 31,60.001 C31.254,60.001 31.507,59.905 31.702,59.713 L50.231,41.458 C52.662,39.084 54.001,35.926 54,32.565 C54,29.205 52.661,26.046 50.229,23.672 C48.454,21.939 46.283,20.834 44,20.329 L44,19 C44,11.832 38.168,6 31,6 L31,6 Z M20,19 C20,12.935 24.935,8 31,8 C37.065,8 42,12.935 42,19 L42,20.044 C38.443,19.813 34.812,21.005 32.116,23.638 L31,24.623 L29.922,23.672 C27.205,21.019 23.563,19.819 20.001,20.047 L20.001,19 L20,19 Z M52,32.564 C52,35.382 50.875,38.033 48.832,40.027 C48.831,40.028 48.83,40.029 48.829,40.031 L31,57.596 L13.168,40.028 C11.125,38.033 9.999,35.382 10,32.565 C10,29.748 11.125,27.098 13.168,25.104 C15.28,23.041 18.053,22.007 20.833,22.007 C23.624,22.007 26.421,23.05 28.561,25.138 L30.338,26.706 C30.716,27.04 31.283,27.04 31.661,26.706 L33.475,25.103 C37.709,20.969 44.598,20.969 48.83,25.103 C50.875,27.098 52,29.747 52,32.564 L52,32.564 Z" id="Shape" fill="#000000"></path>
        <path d="M31,32 C29.346,32 28,33.346 28,35 C28,36.302 28.839,37.401 30,37.815 L30,43 C30,43.553 30.448,44 31,44 C31.552,44 32,43.553 32,43 L32,37.816 C33.161,37.401 34,36.302 34,35 C34,33.346 32.654,32 31,32 L31,32 Z M31,36 C30.449,36 30,35.552 30,35 C30,34.448 30.449,34 31,34 C31.551,34 32,34.448 32,35 C32,35.552 31.551,36 31,36 L31,36 Z" id="Shape" fill="#000000"></path>
        <path d="M21,24 C16.038,24 12,28.037 12,33 C12,33.553 12.448,34 13,34 C13.552,34 14,33.553 14,33 C14,29.141 17.14,26 21,26 C21.552,26 22,25.553 22,25 C22,24.447 21.552,24 21,24 L21,24 Z" id="Shape" fill="#000000"></path>
    </g>
</svg>