<?xml version="1.0" encoding="UTF-8" standalone="no"?>
<svg width="44px" height="44px" viewBox="0 0 44 44" version="1.1" xmlns="http://www.w3.org/2000/svg" xmlns:xlink="http://www.w3.org/1999/xlink">
    <!-- Generator: Sketch 3.7.2 (28276) - http://www.bohemiancoding.com/sketch -->
    <title>cel-cake-birthday</title>
    <desc>Created with Sketch.</desc>
    <defs></defs>
    <g id="44px-Line" stroke="none" stroke-width="1" fill="none" fill-rule="evenodd">
        <g id="cel-cake-birthday"></g>
        <path d="M21.4,13.8 C21.578,13.933 21.789,14 22,14 C22.211,14 22.422,13.933 22.6,13.8 C22.739,13.696 26,11.202 26,7 C26,2.798 22.739,0.304 22.6,0.2 C22.245,-0.067 21.755,-0.067 21.4,0.2 C21.261,0.304 18,2.798 18,7 C18,11.202 21.261,13.696 21.4,13.8 L21.4,13.8 Z M22,2.359 C22.769,3.166 24,4.8 24,7 C24,9.2 22.769,10.834 22,11.641 C21.231,10.835 20,9.2 20,7 C20,4.799 21.232,3.165 22,2.359 L22,2.359 Z" id="Shape" fill="#000000"></path>
        <path d="M1,44 L43,44 C43.552,44 44,43.552 44,43 C44,42.448 43.552,42 43,42 C42.449,42 42,41.551 42,41 L42,32 C42,28.691 39.309,26 36,26 L26,26 L26,14.766 L27.515,13.857 C27.989,13.573 28.142,12.959 27.858,12.485 C27.573,12.011 26.959,11.858 26.486,12.142 L16.486,18.142 C16.012,18.426 15.859,19.04 16.143,19.514 C16.331,19.826 16.662,19.999 17.001,19.999 C17.176,19.999 17.354,19.953 17.515,19.856 L18,19.566 L18,26 L8,26 C4.691,26 2,28.691 2,32 L2,41 C2,41.551 1.551,42 1,42 C0.448,42 0,42.448 0,43 C0,43.552 0.448,44 1,44 L1,44 Z M3.829,42 C3.94,41.687 4,41.351 4,41 L4,36 L40,36 L40,41 C40,41.351 40.061,41.687 40.171,42 L3.829,42 L3.829,42 Z M20,18.366 L24,15.966 L24,26 L20,26 L20,18.366 L20,18.366 Z M8,28 L36,28 C38.206,28 40,29.794 40,32 L40,34 L4,34 L4,32 C4,29.794 5.794,28 8,28 L8,28 Z" id="Shape" fill="#000000"></path>
    </g>
</svg>