<?xml version="1.0" encoding="UTF-8" standalone="no"?>
<svg width="64px" height="64px" viewBox="0 0 64 64" version="1.1" xmlns="http://www.w3.org/2000/svg" xmlns:xlink="http://www.w3.org/1999/xlink">
    <!-- Generator: Sketch 3.7.2 (28276) - http://www.bohemiancoding.com/sketch -->
    <title>cel-letter-christmas</title>
    <desc>Created with Sketch.</desc>
    <defs></defs>
    <g id="64px-Line" stroke="none" stroke-width="1" fill="none" fill-rule="evenodd">
        <g id="cel-letter-christmas"></g>
        <path d="M57.953,26.758 C57.941,26.712 57.942,26.663 57.923,26.618 C57.916,26.6 57.902,26.587 57.894,26.569 C57.868,26.515 57.83,26.469 57.794,26.42 C57.752,26.363 57.712,26.307 57.659,26.259 C57.645,26.247 57.639,26.23 57.624,26.218 L52,21.731 L52,13 C52,11.01 50.99,10 49,10 L39.777,10 L34.77,5.172 C33.21,3.612 30.673,3.612 29.141,5.145 L23.894,10 L15,10 C13.01,10 12,11.01 12,13 L12,21.009 L6.32,26.265 C6.315,26.27 6.313,26.277 6.308,26.282 C6.253,26.335 6.217,26.402 6.175,26.467 C6.146,26.513 6.106,26.552 6.085,26.601 C6.082,26.607 6.079,26.612 6.077,26.618 C6.055,26.671 6.055,26.728 6.042,26.784 C6.027,26.85 6.005,26.914 6.003,26.982 C6.003,26.988 5.999,26.994 5.999,27 L5.999,57 C5.999,59.075 6.924,60 8.999,60 L54.999,60 C57.046,60 57.999,59.047 57.999,57 L57.999,27 C57.999,26.981 57.989,26.963 57.988,26.945 C57.986,26.88 57.969,26.82 57.953,26.758 L57.953,26.758 Z M8,29.414 L22.282,43.696 L8,56.566 L8,29.414 L8,29.414 Z M24.441,44.441 L24.441,44.441 L24.441,44.441 L30.707,38.795 C31.475,38.027 32.554,37.994 33.39,38.828 L54.488,58 L9.396,58 L24.441,44.441 L24.441,44.441 Z M56,56.67 L41.719,43.695 L56,29.414 L56,56.67 L56,56.67 Z M55.502,27.084 L52,30.586 L52,24.29 L55.502,27.084 L55.502,27.084 Z M30.527,6.586 C31.283,5.83 32.587,5.817 33.368,6.599 L36.895,10 L26.84,10 L30.527,6.586 L30.527,6.586 Z M15,12 L39.365,12 C39.368,12 39.372,12.002 39.375,12.002 C39.378,12.002 39.381,12 39.385,12 L49,12 C49.888,12 50,12.112 50,13 L50,32.586 L40.237,42.349 L34.769,37.381 C34.014,36.625 33.041,36.208 32.031,36.208 C31.021,36.208 30.048,36.625 29.331,37.345 L23.77,42.356 L14,32.586 L14,13 C14,12.112 14.112,12 15,12 L15,12 Z M12,30.586 L8.443,27.028 L12,23.736 L12,30.586 L12,30.586 Z" id="Shape" fill="#000000"></path>
        <path d="M25,26 L29.864,26 L26.231,30.359 C25.877,30.784 25.935,31.415 26.359,31.768 C26.547,31.923 26.773,31.999 26.999,31.999 C27.286,31.999 27.57,31.877 27.769,31.64 L32,26.562 L36.231,31.64 C36.429,31.877 36.713,31.999 37.001,31.999 C37.227,31.999 37.453,31.923 37.641,31.768 C38.065,31.414 38.122,30.784 37.769,30.359 L34.136,26 L39,26 C39.553,26 40,25.553 40,25 C40,24.447 39.553,24 39,24 L34.136,24 L37.769,19.641 C38.123,19.216 38.065,18.585 37.641,18.232 C37.215,17.879 36.586,17.936 36.232,18.36 L32,23.437 L27.769,18.359 C27.415,17.935 26.786,17.879 26.36,18.231 C25.936,18.585 25.879,19.215 26.232,19.64 L29.865,23.999 L25,23.999 C24.447,23.999 24,24.446 24,24.999 C24,25.552 24.447,26 25,26 L25,26 Z" id="Shape" fill="#000000"></path>
    </g>
</svg>