<?xml version="1.0" encoding="UTF-8" standalone="no"?>
<svg width="64px" height="64px" viewBox="0 0 64 64" version="1.1" xmlns="http://www.w3.org/2000/svg" xmlns:xlink="http://www.w3.org/1999/xlink">
    <!-- Generator: Sketch 3.7.2 (28276) - http://www.bohemiancoding.com/sketch -->
    <title>cel-bauble-star</title>
    <desc>Created with Sketch.</desc>
    <defs></defs>
    <g id="64px-Line" stroke="none" stroke-width="1" fill="none" fill-rule="evenodd">
        <g id="cel-bauble-star"></g>
        <path d="M19,60 C27.271,60 34,53.271 34,45 C34,38.484 29.816,32.941 24,30.875 L24,27 C24,25.897 23.103,25 22,25 L20,25 L20,7 C20,6.447 19.552,6 19,6 C18.448,6 18,6.447 18,7 L18,25 L16,25 C14.897,25 14,25.897 14,27 L14,30.875 C8.184,32.941 4,38.484 4,45 C4,53.271 10.729,60 19,60 L19,60 Z M16,27 L22,27 L22,30.302 C21.03,30.104 20.027,30 19,30 C17.973,30 16.97,30.104 16,30.302 L16,27 L16,27 Z M19,32 C26.168,32 32,37.832 32,45 C32,52.168 26.168,58 19,58 C11.832,58 6,52.168 6,45 C6,37.832 11.832,32 19,32 L19,32 Z" id="Shape" fill="#000000"></path>
        <path d="M9,46 C9.552,46 10,45.553 10,45 C10,40.037 14.038,36 19,36 C19.552,36 20,35.553 20,35 C20,34.447 19.552,34 19,34 C12.935,34 8,38.935 8,45 C8,45.553 8.448,46 9,46 L9,46 Z" id="Shape" fill="#000000"></path>
        <path d="M59.17,22.015 L51.381,20.673 L48,13.769 L48,7 C48,6.447 47.552,6 47,6 C46.448,6 46,6.447 46,7 L46,13.769 L42.619,20.673 L34.83,22.015 C34.457,22.079 34.152,22.349 34.043,22.711 C33.933,23.073 34.038,23.466 34.313,23.727 L39.893,29.008 L38.028,36.767 C37.937,37.144 38.072,37.538 38.375,37.781 C38.678,38.024 39.094,38.069 39.441,37.898 L47,34.186 L54.559,37.898 C54.699,37.967 54.85,38.001 55,38.001 C55.223,38.001 55.444,37.927 55.625,37.781 C55.928,37.539 56.063,37.144 55.972,36.767 L54.107,29.008 L59.687,23.727 C59.962,23.466 60.066,23.074 59.957,22.711 C59.848,22.349 59.543,22.079 59.17,22.015 L59.17,22.015 Z M52.312,27.952 C52.052,28.198 51.943,28.564 52.027,28.912 L53.529,35.164 L47.44,32.174 C47.301,32.106 47.15,32.071 46.999,32.071 C46.848,32.071 46.697,32.105 46.558,32.174 L40.469,35.164 L41.971,28.912 C42.055,28.564 41.946,28.198 41.686,27.952 L37.136,23.646 L43.46,22.556 C43.776,22.501 44.047,22.299 44.188,22.01 L46.998,16.273 L49.808,22.01 C49.949,22.299 50.22,22.501 50.536,22.556 L56.86,23.646 L52.312,27.952 L52.312,27.952 Z" id="Shape" fill="#000000"></path>
    </g>
</svg>