<?xml version="1.0" encoding="UTF-8" standalone="no"?>
<svg width="64px" height="64px" viewBox="0 0 64 64" version="1.1" xmlns="http://www.w3.org/2000/svg" xmlns:xlink="http://www.w3.org/1999/xlink">
    <!-- Generator: Sketch 3.7.2 (28276) - http://www.bohemiancoding.com/sketch -->
    <title>cel-heart-line</title>
    <desc>Created with Sketch.</desc>
    <defs></defs>
    <g id="64px-Line" stroke="none" stroke-width="1" fill="none" fill-rule="evenodd">
        <g id="cel-heart-line"></g>
        <path d="M56.629,10.071 C56.587,10.088 52.583,11.665 45.981,12.809 C45.936,12.115 45.659,11.487 45.22,11 C45.7,10.468 46,9.771 46,9 C46,7.346 44.654,6 43,6 C41.346,6 40,7.346 40,9 C40,9.771 40.301,10.468 40.78,11 C40.3,11.532 40,12.229 40,13 L40,13.606 C34.132,14.173 28.172,14.111 22,13.423 L22,13 C22,12.229 21.699,11.532 21.22,11 C21.7,10.468 22,9.771 22,9 C22,7.346 20.654,6 19,6 C17.346,6 16,7.346 16,9 C16,9.771 16.301,10.468 16.78,11 C16.39,11.433 16.128,11.976 16.042,12.58 C9.591,11.459 5.36,10.065 5.316,10.051 C4.789,9.881 4.225,10.16 4.051,10.684 C3.876,11.208 4.159,11.775 4.683,11.949 C4.872,12.013 9.231,13.449 15.999,14.602 L15.999,23.543 C15.065,24.078 14.204,24.731 13.441,25.508 C8.861,30.167 8.862,37.747 13.437,42.402 L30.283,59.698 C30.471,59.891 30.73,60.001 31,60.001 C31.27,60.001 31.528,59.892 31.717,59.698 L48.559,42.406 C53.138,37.747 53.138,30.168 48.559,25.509 C47.793,24.731 46.932,24.076 45.999,23.543 L45.999,14.835 C53.007,13.651 57.19,12.003 57.37,11.931 C57.883,11.726 58.132,11.144 57.928,10.631 C57.724,10.117 57.145,9.864 56.629,10.071 L56.629,10.071 Z M42,13 C42,12.448 42.448,12 43,12 C43.552,12 44,12.448 44,13 L44,24.046 C43.999,24.062 44,24.076 44,24.091 L44,25 C44,25.552 43.552,26 43,26 C42.448,26 42,25.552 42,25 L42,13 L42,13 Z M43,8 C43.552,8 44,8.448 44,9 C44,9.552 43.552,10 43,10 C42.448,10 42,9.552 42,9 C42,8.448 42.448,8 43,8 L43,8 Z M32,16 C34.663,16 37.347,15.866 40,15.616 L40,22.011 C36.965,22.069 34.068,23.306 31.939,25.473 L31,26.337 L30.098,25.508 C27.937,23.309 25.036,22.07 22,22.012 L22,15.433 C25.394,15.803 28.754,16 32,16 L32,16 Z M20,13 L20,25 C20,25.552 19.552,26 19,26 C18.448,26 18,25.552 18,25 L18,13 C18,12.448 18.448,12 19,12 C19.552,12 20,12.448 20,13 L20,13 Z M19,8 C19.552,8 20,8.448 20,9 C20,9.552 19.552,10 19,10 C18.448,10 18,9.552 18,9 C18,8.448 18.448,8 19,8 L19,8 Z M47.13,41.007 L31.001,57.567 L14.868,41.004 C11.049,37.119 11.049,30.797 14.869,26.91 C15.261,26.511 15.683,26.151 16.13,25.827 C16.492,27.077 17.634,28 19,28 C20.654,28 22,26.654 22,25 L22,24.009 C24.496,24.071 26.892,25.1 28.708,26.945 L30.324,28.431 C30.515,28.607 30.758,28.695 31.001,28.695 C31.244,28.695 31.486,28.607 31.678,28.431 L33.329,26.91 C35.112,25.096 37.51,24.069 40,24.008 L40,25 C40,26.654 41.346,28 43,28 C44.366,28 45.509,27.077 45.87,25.826 C46.317,26.149 46.741,26.511 47.134,26.91 C50.952,30.796 50.952,37.117 47.13,41.007 L47.13,41.007 Z" id="Shape" fill="#000000"></path>
    </g>
</svg>