<?xml version="1.0" encoding="UTF-8" standalone="no"?>
<svg width="64px" height="64px" viewBox="0 0 64 64" version="1.1" xmlns="http://www.w3.org/2000/svg" xmlns:xlink="http://www.w3.org/1999/xlink">
    <!-- Generator: Sketch 3.7.2 (28276) - http://www.bohemiancoding.com/sketch -->
    <title>cel-tree-star</title>
    <desc>Created with Sketch.</desc>
    <defs></defs>
    <g id="64px-Line" stroke="none" stroke-width="1" fill="none" fill-rule="evenodd">
        <g id="cel-tree-star"></g>
        <path d="M12.076,53.383 C12.231,53.757 12.596,54 13,54 L30,54 L30,59 C30,59.552 30.448,60 31,60 C31.552,60 32,59.552 32,59 L32,54 L49,54 C49.404,54 49.769,53.756 49.924,53.383 C50.079,53.009 49.993,52.579 49.707,52.293 L39.414,42 L45,42 C45.404,42 45.769,41.756 45.924,41.383 C46.079,41.009 45.993,40.579 45.707,40.293 L37.414,32 L41,32 C41.388,32 41.741,31.775 41.906,31.424 C42.071,31.072 42.017,30.657 41.768,30.36 L31.768,18.36 C31.388,17.904 30.612,17.904 30.232,18.36 L20.232,30.36 C19.983,30.658 19.93,31.073 20.094,31.424 C20.259,31.775 20.612,32 21,32 L24.586,32 L16.293,40.293 C16.007,40.579 15.921,41.009 16.076,41.383 C16.231,41.757 16.596,42 17,42 L22.586,42 L12.293,52.293 C12.007,52.579 11.921,53.009 12.076,53.383 L12.076,53.383 Z M25.707,41.707 C25.993,41.421 26.079,40.991 25.924,40.617 C25.769,40.243 25.404,40 25,40 L19.414,40 L27.707,31.707 C27.993,31.421 28.079,30.991 27.924,30.617 C27.769,30.243 27.404,30 27,30 L23.135,30 L31,20.562 L38.865,30 L35,30 C34.596,30 34.231,30.244 34.076,30.617 C33.921,30.991 34.007,31.421 34.293,31.707 L42.586,40 L37,40 C36.596,40 36.231,40.244 36.076,40.617 C35.921,40.991 36.007,41.421 36.293,41.707 L46.586,52 L15.414,52 L25.707,41.707 L25.707,41.707 Z" id="Shape" fill="#000000"></path>
        <path d="M37.953,10.899 C37.836,10.532 37.52,10.265 37.139,10.211 L33.508,9.702 L31.891,6.544 C31.549,5.875 30.453,5.875 30.111,6.544 L28.494,9.702 L24.863,10.211 C24.482,10.264 24.165,10.532 24.049,10.899 C23.933,11.266 24.037,11.667 24.318,11.931 L26.923,14.378 L26.31,17.825 C26.244,18.199 26.394,18.577 26.698,18.803 C27.003,19.029 27.408,19.063 27.746,18.892 L31.002,17.242 L34.258,18.892 C34.401,18.964 34.556,19 34.71,19 C34.921,19 35.13,18.933 35.306,18.803 C35.61,18.577 35.761,18.199 35.694,17.825 L35.081,14.378 L37.686,11.931 C37.965,11.667 38.07,11.266 37.953,10.899 L37.953,10.899 Z M33.315,13.291 C33.068,13.522 32.956,13.862 33.015,14.195 L33.372,16.202 L31.452,15.229 C31.31,15.157 31.155,15.121 31,15.121 C30.845,15.121 30.69,15.157 30.548,15.229 L28.628,16.202 L28.985,14.195 C29.045,13.862 28.932,13.522 28.685,13.291 L27.207,11.902 L29.285,11.611 C29.608,11.566 29.888,11.366 30.036,11.076 L31,9.194 L31.964,11.076 C32.112,11.366 32.393,11.566 32.715,11.611 L34.793,11.902 L33.315,13.291 L33.315,13.291 Z" id="Shape" fill="#000000"></path>
    </g>
</svg>