<?xml version="1.0" encoding="UTF-8" standalone="no"?>
<svg width="64px" height="64px" viewBox="0 0 64 64" version="1.1" xmlns="http://www.w3.org/2000/svg" xmlns:xlink="http://www.w3.org/1999/xlink">
    <!-- Generator: Sketch 3.7.2 (28276) - http://www.bohemiancoding.com/sketch -->
    <title>cel-rings-love</title>
    <desc>Created with Sketch.</desc>
    <defs></defs>
    <g id="64px-Line" stroke="none" stroke-width="1" fill="none" fill-rule="evenodd">
        <g id="cel-rings-love"></g>
        <path d="M31.131,7.869 L30.999,7.99 L30.905,7.904 C29.698,6.677 28.093,6.001 26.384,6.001 C24.676,6.001 23.07,6.677 21.863,7.904 C19.384,10.427 19.384,14.531 21.86,17.05 L30.283,25.698 C30.472,25.891 30.73,26 31,26 C31.27,26 31.528,25.891 31.716,25.698 L40.136,17.052 C42.615,14.53 42.615,10.426 40.136,7.903 C38.93,6.676 37.324,6 35.616,6 C33.907,6 32.301,6.676 31.131,7.869 L31.131,7.869 Z M38.71,15.651 C38.709,15.652 38.708,15.653 38.707,15.654 L31,23.567 L23.291,15.651 C21.571,13.901 21.571,11.055 23.291,9.306 C24.118,8.464 25.217,8 26.385,8 C27.553,8 28.652,8.464 29.516,9.34 L30.324,10.083 C30.707,10.436 31.295,10.436 31.678,10.083 L32.523,9.305 C33.35,8.463 34.449,7.999 35.617,7.999 C36.784,7.999 37.884,8.462 38.711,9.305 C40.43,11.055 40.43,13.901 38.71,15.651 L38.71,15.651 Z" id="Shape" fill="#000000"></path>
        <path d="M21,60 C30.374,60 38,52.374 38,43 C38,39.292 36.827,35.767 34.607,32.808 C34.276,32.367 33.651,32.276 33.207,32.608 C32.765,32.939 32.676,33.566 33.007,34.008 C34.965,36.618 36,39.728 36,43 C36,51.271 29.271,58 21,58 C12.729,58 6,51.271 6,43 C6,34.729 12.729,28 21,28 C23.025,28 24.989,28.396 26.838,29.178 C27.347,29.392 27.934,29.156 28.149,28.647 C28.364,28.138 28.126,27.551 27.618,27.336 C25.521,26.45 23.294,26 21,26 C11.626,26 4,33.626 4,43 C4,52.374 11.626,60 21,60 L21,60 Z" id="Shape" fill="#000000"></path>
        <path d="M41,26 C31.626,26 24,33.626 24,43 C24,46.708 25.173,50.233 27.393,53.192 C27.724,53.633 28.351,53.725 28.793,53.392 C29.235,53.061 29.324,52.434 28.993,51.992 C27.035,49.382 26,46.272 26,43 C26,34.729 32.729,28 41,28 C49.271,28 56,34.729 56,43 C56,51.271 49.271,58 41,58 C38.799,58 36.678,57.534 34.696,56.616 C34.196,56.384 33.601,56.601 33.368,57.103 C33.136,57.604 33.353,58.198 33.855,58.431 C36.102,59.473 38.505,60.001 41,60.001 C50.374,60.001 58,52.375 58,43.001 C58,33.627 50.374,26 41,26 L41,26 Z" id="Shape" fill="#000000"></path>
    </g>
</svg>