<?xml version="1.0" encoding="UTF-8" standalone="no"?>
<svg width="64px" height="64px" viewBox="0 0 64 64" version="1.1" xmlns="http://www.w3.org/2000/svg" xmlns:xlink="http://www.w3.org/1999/xlink">
    <!-- Generator: Sketch 3.7.2 (28276) - http://www.bohemiancoding.com/sketch -->
    <title>cel-heart-arrow</title>
    <desc>Created with Sketch.</desc>
    <defs></defs>
    <g id="64px-Line" stroke="none" stroke-width="1" fill="none" fill-rule="evenodd">
        <g id="cel-heart-arrow"></g>
        <path d="M17,22 C12.038,22 8,26.037 8,31 C8,31.553 8.448,32 9,32 C9.552,32 10,31.553 10,31 C10,27.141 13.14,24 17,24 C17.552,24 18,23.553 18,23 C18,22.447 17.552,22 17,22 L17,22 Z" id="Shape" fill="#000000"></path>
        <path d="M9.949,44.684 C9.812,44.275 9.431,44 9,44 C8.569,44 8.188,44.275 8.051,44.684 L4.051,56.684 C3.931,57.043 4.025,57.44 4.293,57.707 C4.483,57.897 4.739,58 5,58 C5.106,58 5.212,57.983 5.316,57.948 L17.316,53.948 C17.724,53.812 18,53.43 18,53 C18,52.57 17.725,52.188 17.316,52.052 L12.851,50.563 L15.923,47.491 L26.298,57.713 C26.492,57.905 26.746,58.001 27,58.001 C27.254,58.001 27.507,57.905 27.702,57.713 L46.23,39.459 C48.661,37.085 50,33.927 50,30.565 C50,27.205 48.661,24.046 46.229,21.672 C45.801,21.255 45.344,20.886 44.874,20.54 L45.414,20 L51,20 C51.265,20 51.52,19.895 51.707,19.707 L57.707,13.707 C57.993,13.421 58.079,12.991 57.924,12.617 C57.769,12.243 57.404,12 57,12 L52,12 L52,7 C52,6.596 51.756,6.23 51.383,6.076 C51.008,5.92 50.579,6.007 50.293,6.293 L44.293,12.293 C44.105,12.48 44,12.734 44,13 L44,18.586 L43.139,19.447 C38.296,16.957 32.157,17.693 28.116,21.638 L27,22.623 L25.922,21.672 C20.918,16.788 12.776,16.786 7.772,21.672 C5.34,24.046 4.001,27.204 4.001,30.565 C4.001,33.926 5.34,37.085 7.769,39.456 L14.5,46.088 L11.438,49.15 L9.949,44.684 L9.949,44.684 Z M46,13.414 L50,9.414 L50,13 C50,13.553 50.448,14 51,14 L54.586,14 L50.586,18 L46,18 L46,13.414 L46,13.414 Z M9.168,38.027 C7.125,36.032 5.999,33.381 6,30.564 C6,27.747 7.125,25.097 9.168,23.103 C11.28,21.04 14.053,20.007 16.833,20.007 C19.624,20.007 22.421,21.049 24.561,23.137 L26.338,24.705 C26.716,25.039 27.283,25.039 27.661,24.705 L29.476,23.102 C33.709,18.967 40.598,18.966 44.831,23.102 C46.874,25.096 47.998,27.746 47.999,30.563 C47.999,33.381 46.874,36.032 44.831,38.026 C44.83,38.027 44.829,38.028 44.828,38.03 L27,55.597 L17.338,46.076 L21.707,41.707 C22.098,41.316 22.098,40.684 21.707,40.293 C21.316,39.902 20.684,39.902 20.293,40.293 L15.913,44.673 L9.168,38.027 L9.168,38.027 Z M6.581,55.419 L9,48.162 L10.051,51.316 C10.054,51.325 10.063,51.331 10.066,51.34 C10.114,51.471 10.184,51.594 10.288,51.7 C10.292,51.704 10.296,51.708 10.301,51.712 C10.406,51.815 10.529,51.886 10.66,51.933 C10.669,51.936 10.674,51.945 10.683,51.948 L13.837,53 L6.581,55.419 L6.581,55.419 Z" id="Shape" fill="#000000"></path>
    </g>
</svg>