<?xml version="1.0" encoding="UTF-8" standalone="no"?>
<svg width="64px" height="64px" viewBox="0 0 64 64" version="1.1" xmlns="http://www.w3.org/2000/svg" xmlns:xlink="http://www.w3.org/1999/xlink">
    <!-- Generator: Sketch 3.7.2 (28276) - http://www.bohemiancoding.com/sketch -->
    <title>cel-bell</title>
    <desc>Created with Sketch.</desc>
    <defs></defs>
    <g id="64px-Line" stroke="none" stroke-width="1" fill="none" fill-rule="evenodd">
        <g id="cel-bell"></g>
        <path d="M44.968,24.741 C44.549,22.276 43.392,19.208 40.439,17.051 C41.492,16.519 42.356,15.607 42.788,14.416 C43.224,13.215 43.164,11.916 42.621,10.76 C42.076,9.599 41.11,8.72 39.901,8.285 C37.413,7.394 34.653,8.678 33.752,11.16 C33.333,12.316 33.384,13.56 33.871,14.684 C30.212,14.459 27.352,16.085 25.446,17.716 C21.666,20.947 15.386,32.432 14.157,34.718 C12.731,35.146 8.305,36.703 7.164,39.849 C6.089,42.811 13.628,46.703 20.245,49.482 C20.089,49.971 20,50.482 20,51.001 C20,53.758 22.243,56.001 25,56.001 C27.098,56.001 28.919,54.681 29.649,52.797 C33.634,53.956 37.947,54.956 40.972,54.956 C42.975,54.956 44.413,54.518 44.82,53.399 C45.961,50.254 43.56,46.241 42.736,45.001 C43.259,42.455 45.801,29.632 44.968,24.741 L44.968,24.741 Z M35.633,11.842 C36.044,10.708 37.123,10.001 38.272,10.001 C38.588,10.001 38.911,10.055 39.225,10.168 C39.93,10.421 40.494,10.934 40.811,11.609 C41.127,12.281 41.162,13.036 40.908,13.734 C40.384,15.18 38.767,15.93 37.317,15.408 C36.611,15.154 36.046,14.641 35.729,13.966 C35.413,13.294 35.379,12.54 35.633,11.842 L35.633,11.842 Z M25,54 C23.346,54 22,52.654 22,51 C22,50.743 22.039,50.489 22.104,50.244 C22.897,50.561 23.662,50.86 24.379,51.133 C25.406,51.481 26.541,51.851 27.73,52.219 C27.257,53.272 26.206,54 25,54 L25,54 Z M40.69,45.009 C40.631,45.287 40.694,45.577 40.862,45.807 C41.715,46.971 43.75,50.481 42.949,52.699 C42.055,53.787 33.676,52.17 25.055,49.252 C24.052,48.87 23.066,48.476 22.102,48.076 C22.1,48.075 22.1,48.073 22.098,48.072 C22.084,48.064 22.068,48.064 22.054,48.056 C14.845,45.063 9.045,41.751 9.045,40.531 C9.854,38.302 13.677,36.891 15.082,36.536 C15.356,36.467 15.589,36.284 15.722,36.035 C15.793,35.9 22.918,22.509 26.746,19.236 C28.756,17.517 30.909,16.655 33.18,16.655 C34.304,16.655 35.456,16.866 36.633,17.289 C36.635,17.29 36.637,17.291 36.639,17.292 C36.641,17.293 36.643,17.293 36.645,17.293 C40.199,18.575 42.337,21.193 42.997,25.078 C43.839,30.028 40.723,44.859 40.69,45.009 L40.69,45.009 Z" id="Shape" fill="#000000"></path>
        <path d="M9.497,16.803 C9.495,16.82 9.329,18.443 8.27,20.146 C7.253,21.783 5.745,22.443 5.735,22.447 C5.225,22.659 4.983,23.245 5.195,23.755 C5.355,24.14 5.727,24.371 6.119,24.371 C6.247,24.371 6.377,24.347 6.503,24.295 C6.588,24.259 8.601,23.404 9.97,21.202 C11.294,19.07 11.483,17.061 11.49,16.977 C11.538,16.426 11.131,15.942 10.581,15.894 C10.043,15.846 9.545,16.253 9.497,16.803 L9.497,16.803 Z" id="Shape" fill="#000000"></path>
        <path d="M14.475,24.613 C18.075,19.175 18.457,14.634 18.472,14.444 C18.514,13.893 18.102,13.413 17.551,13.371 C16.982,13.327 16.52,13.742 16.478,14.292 C16.475,14.334 16.124,18.5 12.807,23.51 C9.503,28.502 4.586,31.115 4.537,31.141 C4.048,31.398 3.858,32.001 4.114,32.491 C4.293,32.833 4.64,33.028 5.001,33.028 C5.156,33.028 5.314,32.992 5.462,32.915 C5.682,32.8 10.876,30.052 14.475,24.613 L14.475,24.613 Z" id="Shape" fill="#000000"></path>
        <path d="M57.822,34.188 C58.135,33.736 58.024,33.114 57.572,32.798 C57.117,32.483 56.496,32.594 56.179,33.046 C56.13,33.115 54.986,34.779 54.636,37.263 C54.275,39.828 55.276,41.769 55.319,41.851 C55.497,42.19 55.843,42.383 56.202,42.383 C56.357,42.383 56.515,42.347 56.663,42.27 C57.151,42.017 57.343,41.415 57.092,40.924 C57.084,40.91 56.35,39.445 56.617,37.542 C56.896,35.564 57.803,34.216 57.822,34.188 L57.822,34.188 Z" id="Shape" fill="#000000"></path>
        <path d="M54.064,27.814 C54.383,27.364 54.278,26.741 53.83,26.42 C53.379,26.101 52.756,26.204 52.434,26.653 C52.323,26.809 49.704,30.545 48.98,37.018 C48.256,43.491 50.489,48.913 50.584,49.14 C50.744,49.523 51.115,49.753 51.506,49.753 C51.635,49.753 51.767,49.729 51.893,49.675 C52.402,49.462 52.642,48.876 52.428,48.366 C52.407,48.315 50.301,43.203 50.968,37.24 C51.631,31.318 54.04,27.849 54.064,27.814 L54.064,27.814 Z" id="Shape" fill="#000000"></path>
    </g>
</svg>