<?xml version="1.0" encoding="UTF-8" standalone="no"?>
<svg width="64px" height="64px" viewBox="0 0 64 64" version="1.1" xmlns="http://www.w3.org/2000/svg" xmlns:xlink="http://www.w3.org/1999/xlink">
    <!-- Generator: Sketch 3.7.2 (28276) - http://www.bohemiancoding.com/sketch -->
    <title>cel-star</title>
    <desc>Created with Sketch.</desc>
    <defs></defs>
    <g id="64px-Line" stroke="none" stroke-width="1" fill="none" fill-rule="evenodd">
        <g id="cel-star"></g>
        <path d="M10,33 C10,33.552 10.447,34 11,34 L21,34 C24.859,34 28,37.14 28,41 L28,59 C28,59.552 28.447,60 29,60 C29.553,60 30,59.552 30,59 L30,41 C30,37.14 33.141,34 37,34 L47,34 C47.553,34 48,33.552 48,33 C48,32.448 47.553,32 47,32 L37,32 C33.141,32 30,28.86 30,25 L30,7 C30,6.448 29.553,6 29,6 C28.447,6 28,6.448 28,7 L28,25 C28,28.86 24.859,32 21,32 L11,32 C10.447,32 10,32.448 10,33 L10,33 Z M29,29.104 C29.86,30.774 31.225,32.139 32.896,33 C31.226,33.86 29.861,35.226 29,36.896 C28.14,35.226 26.775,33.861 25.104,33 C26.775,32.14 28.14,30.774 29,29.104 L29,29.104 Z" id="Shape" fill="#000000"></path>
        <path d="M37.707,25.707 L43.707,19.707 C44.098,19.316 44.098,18.684 43.707,18.293 C43.316,17.902 42.684,17.902 42.293,18.293 L36.293,24.293 C35.902,24.684 35.902,25.316 36.293,25.707 C36.488,25.902 36.744,26 37,26 C37.256,26 37.512,25.902 37.707,25.707 L37.707,25.707 Z" id="Shape" fill="#000000"></path>
        <path d="M21,26 C21.256,26 21.512,25.902 21.707,25.707 C22.098,25.316 22.098,24.684 21.707,24.293 L15.707,18.293 C15.316,17.902 14.684,17.902 14.293,18.293 C13.902,18.684 13.902,19.316 14.293,19.707 L20.293,25.707 C20.488,25.902 20.744,26 21,26 L21,26 Z" id="Shape" fill="#000000"></path>
        <path d="M20.293,40.293 L14.793,45.793 C14.402,46.184 14.402,46.816 14.793,47.207 C14.988,47.402 15.244,47.5 15.5,47.5 C15.756,47.5 16.012,47.402 16.207,47.207 L21.707,41.707 C22.098,41.316 22.098,40.684 21.707,40.293 C21.316,39.902 20.684,39.902 20.293,40.293 L20.293,40.293 Z" id="Shape" fill="#000000"></path>
        <path d="M36.293,40.293 C35.902,40.684 35.902,41.316 36.293,41.707 L42.293,47.707 C42.488,47.902 42.744,48 43,48 C43.256,48 43.512,47.902 43.707,47.707 C44.098,47.316 44.098,46.684 43.707,46.293 L37.707,40.293 C37.316,39.902 36.684,39.902 36.293,40.293 L36.293,40.293 Z" id="Shape" fill="#000000"></path>
    </g>
</svg>