<?xml version="1.0" encoding="UTF-8" standalone="no"?>
<svg width="64px" height="64px" viewBox="0 0 64 64" version="1.1" xmlns="http://www.w3.org/2000/svg" xmlns:xlink="http://www.w3.org/1999/xlink">
    <!-- Generator: Sketch 3.7.2 (28276) - http://www.bohemiancoding.com/sketch -->
    <title>cel-cake-wedding</title>
    <desc>Created with Sketch.</desc>
    <defs></defs>
    <g id="64px-Line" stroke="none" stroke-width="1" fill="none" fill-rule="evenodd">
        <g id="cel-cake-wedding"></g>
        <path d="M35.12,11.817 C36.302,10.48 36.301,8.387 35.119,7.05 C34.52,6.372 33.713,5.999 32.848,5.999 L32.848,5.999 C32.165,5.999 31.519,6.23 30.999,6.644 C29.782,5.687 27.949,5.845 26.884,7.05 C25.701,8.387 25.701,10.482 26.881,11.815 L30.25,15.659 C30.44,15.876 30.714,16 31.002,16 C31.29,16 31.564,15.876 31.754,15.659 L35.12,11.817 L35.12,11.817 Z M28.379,10.493 C27.871,9.92 27.872,8.95 28.379,8.376 C28.593,8.134 28.868,8 29.153,8 C29.438,8 29.713,8.134 29.961,8.411 L30.284,8.742 C30.66,9.129 31.339,9.129 31.715,8.742 L32.072,8.376 C32.286,8.133 32.561,8 32.846,8 L32.846,8 C33.131,8 33.405,8.133 33.619,8.375 C34.127,8.95 34.127,9.92 33.619,10.493 C33.618,10.494 33.617,10.496 33.616,10.497 L31,13.482 L28.379,10.493 L28.379,10.493 Z" id="Shape" fill="#000000"></path>
        <path d="M57,58 L54,58 L54,45 C54,42.243 51.757,40 49,40 L46,40 L46,31 C46,28.243 43.757,26 41,26 L40,26 L40,21 C40,18.243 37.757,16 35,16 L31,16 L27,16 C24.243,16 22,18.243 22,21 L22,26 L21,26 C18.243,26 16,28.243 16,31 L16,40 L13,40 C10.243,40 8,42.243 8,45 L8,58 L5,58 C4.448,58 4,58.447 4,59 C4,59.553 4.448,60 5,60 L57,60 C57.552,60 58,59.553 58,59 C58,58.447 57.552,58 57,58 L57,58 Z M27,18 L35,18 C36.654,18 38,19.346 38,21 C38,21.552 37.551,22 37,22 C36.449,22 36,21.552 36,21 C36,20.447 35.552,20 35,20 C34.448,20 34,20.447 34,21 C34,21.552 33.551,22 33,22 C32.449,22 32,21.552 32,21 C32,20.447 31.552,20 31,20 C30.448,20 30,20.447 30,21 C30,21.552 29.551,22 29,22 C28.449,22 28,21.552 28,21 C28,20.447 27.552,20 27,20 C26.448,20 26,20.447 26,21 C26,21.552 25.551,22 25,22 C24.449,22 24,21.552 24,21 C24,19.346 25.346,18 27,18 L27,18 Z M24,23.815 C24.314,23.927 24.648,24 25,24 C25.768,24 26.469,23.71 27,23.234 C27.531,23.71 28.232,24 29,24 C29.768,24 30.469,23.71 31,23.234 C31.531,23.71 32.232,24 33,24 C33.768,24 34.469,23.71 35,23.234 C35.531,23.71 36.232,24 37,24 C37.352,24 37.686,23.928 38,23.816 L38,26 L24,26 L24,23.815 L24,23.815 Z M18,31 C18,29.346 19.346,28 21,28 L41,28 C42.654,28 44,29.346 44,31 L44,31.5 C44,32.879 42.878,34 41.5,34 C40.122,34 39,32.879 39,31.5 C39,30.947 38.552,30.5 38,30.5 C37.448,30.5 37,30.947 37,31.5 C37,32.879 35.878,34 34.5,34 C33.122,34 32,32.879 32,31.5 C32,30.947 31.552,30.5 31,30.5 C30.448,30.5 30,30.947 30,31.5 C30,32.879 28.878,34 27.5,34 C26.122,34 25,32.879 25,31.5 C25,30.947 24.552,30.5 24,30.5 C23.448,30.5 23,30.947 23,31.5 C23,32.879 21.878,34 20.5,34 C19.122,34 18,32.879 18,31.5 L18,31 L18,31 Z M18,35.238 C18.716,35.718 19.575,36 20.5,36 C21.912,36 23.174,35.347 24,34.325 C24.826,35.346 26.088,36 27.5,36 C28.912,36 30.174,35.347 31,34.325 C31.826,35.346 33.088,36 34.5,36 C35.912,36 37.174,35.347 38,34.325 C38.826,35.346 40.088,36 41.5,36 C42.425,36 43.284,35.718 44,35.238 L44,40 L18,40 L18,35.238 L18,35.238 Z M10,45 C10,43.346 11.346,42 13,42 L49,42 C50.654,42 52,43.346 52,45 L52,47 C52,49.757 50.206,52 48,52 C45.794,52 44,49.757 44,47 C44,46.447 43.552,46 43,46 C42.448,46 42,46.447 42,47 C42,49.757 39.757,52 37,52 C34.243,52 32,49.757 32,47 C32,46.447 31.552,46 31,46 C30.448,46 30,46.447 30,47 C30,49.757 27.757,52 25,52 C22.243,52 20,49.757 20,47 C20,46.447 19.552,46 19,46 C18.448,46 18,46.447 18,47 C18,49.757 16.206,52 14,52 C11.794,52 10,49.757 10,47 L10,45 L10,45 Z M10,52.203 C11.063,53.316 12.462,54 14,54 C16.135,54 18.013,52.692 19.077,50.728 C20.318,52.693 22.509,54 25,54 C27.543,54 29.774,52.637 31,50.603 C32.226,52.637 34.457,54 37,54 C39.491,54 41.682,52.692 42.923,50.728 C43.987,52.693 45.865,54 48,54 C49.538,54 50.937,53.316 52,52.203 L52,58 L10,58 L10,52.203 L10,52.203 Z" id="Shape" fill="#000000"></path>
    </g>
</svg>