<?xml version="1.0" encoding="UTF-8" standalone="no"?>
<svg width="64px" height="64px" viewBox="0 0 64 64" version="1.1" xmlns="http://www.w3.org/2000/svg" xmlns:xlink="http://www.w3.org/1999/xlink">
    <!-- Generator: Sketch 3.7.2 (28276) - http://www.bohemiancoding.com/sketch -->
    <title>cel-bauble</title>
    <desc>Created with Sketch.</desc>
    <defs></defs>
    <g id="64px-Line" stroke="none" stroke-width="1" fill="none" fill-rule="evenodd">
        <g id="cel-bauble"></g>
        <path d="M31,60 C42.579,60 52,50.58 52,39 C52,29.862 46.123,22.09 37.958,19.21 C37.973,19.14 38,19.074 38,19 L38,16 C38,13.938 36.427,12.256 34.421,12.042 C34.78,11.442 35,10.749 35,10 C35,7.794 33.206,6 31,6 C28.794,6 27,7.794 27,10 C27,10.749 27.22,11.442 27.579,12.042 C25.573,12.256 24,13.938 24,16 L24,19 C24,19.074 24.027,19.14 24.042,19.21 C15.877,22.09 10,29.862 10,39 C10,50.58 19.421,60 31,60 L31,60 Z M31,8 C32.103,8 33,8.897 33,10 C33,11.103 32.103,12 31,12 C29.897,12 29,11.103 29,10 C29,8.897 29.897,8 31,8 L31,8 Z M26,18 L26,16 C26,14.897 26.897,14 28,14 L34,14 C35.103,14 36,14.897 36,16 L36,18 L26,18 L26,18 Z M31,20 C41.477,20 50,28.523 50,39 C50,49.477 41.477,58 31,58 C20.523,58 12,49.477 12,39 C12,28.523 20.523,20 31,20 L31,20 Z" id="Shape" fill="#000000"></path>
        <path d="M18,39 C18,31.832 23.832,26 31,26 C31.553,26 32,25.552 32,25 C32,24.448 31.553,24 31,24 C22.729,24 16,30.729 16,39 C16,39.552 16.447,40 17,40 C17.553,40 18,39.552 18,39 L18,39 Z" id="Shape" fill="#000000"></path>
    </g>
</svg>