<?xml version="1.0" encoding="UTF-8" standalone="no"?>
<svg width="64px" height="64px" viewBox="0 0 64 64" version="1.1" xmlns="http://www.w3.org/2000/svg" xmlns:xlink="http://www.w3.org/1999/xlink">
    <!-- Generator: Sketch 3.7.2 (28276) - http://www.bohemiancoding.com/sketch -->
    <title>cel-gingerbread</title>
    <desc>Created with Sketch.</desc>
    <defs></defs>
    <g id="64px-Line" stroke="none" stroke-width="1" fill="none" fill-rule="evenodd">
        <g id="cel-gingerbread"></g>
        <path d="M11.172,30 L22,30 L22,37.808 C22,39.003 21.768,40.166 21.31,41.265 L16.386,53.082 C15.845,54.38 15.877,55.854 16.474,57.128 C17.071,58.4 18.187,59.37 19.537,59.787 C21.968,60.536 24.666,59.212 25.683,56.77 L26.386,55.082 L26.386,55.082 L26.386,55.082 L31,44.008 L36.317,56.77 C37.142,58.75 39.074,59.997 41.069,59.997 C41.534,59.997 42.003,59.929 42.462,59.788 C43.814,59.371 44.93,58.401 45.526,57.129 C46.123,55.856 46.155,54.381 45.614,53.083 L44.828,51.195 C44.826,51.189 44.827,51.183 44.824,51.177 C44.822,51.171 44.816,51.168 44.814,51.162 L40.691,41.265 C40.233,40.167 40.001,39.004 40.001,37.809 L40.001,30 L50.829,30 C53.475,30 55.736,28.018 55.977,25.488 C56.112,24.081 55.646,22.677 54.701,21.637 C53.756,20.596 52.406,20 51.001,20 L49.001,20 L49.001,20 L49.001,20 L40.161,20 C39.816,20 39.498,19.826 39.308,19.536 C39.224,19.406 39.048,19.06 39.231,18.648 C39.742,17.498 40.002,16.27 40.002,15 C40.002,10.038 35.965,6 31.002,6 C26.039,6 22.002,10.038 22.002,15 C22.002,16.271 22.262,17.498 22.773,18.648 C22.956,19.06 22.78,19.406 22.696,19.536 C22.507,19.827 22.188,20 21.843,20 L13.003,20 L13.003,20 L13.003,20 L11.003,20 C9.598,20 8.248,20.597 7.303,21.637 C6.358,22.677 5.892,24.08 6.027,25.488 C6.265,28.018 8.526,30 11.172,30 L11.172,30 Z M20.127,57.876 C19.302,57.621 18.648,57.054 18.285,56.279 C17.927,55.515 17.907,54.63 18.231,53.851 L18.616,52.928 L24.155,55.236 L23.837,56 C23.211,57.501 21.582,58.326 20.127,57.876 L20.127,57.876 Z M43.715,56.279 C43.352,57.053 42.697,57.621 41.872,57.876 C40.417,58.327 38.79,57.501 38.163,56.001 L37.825,55.191 L43.36,52.873 L43.768,53.852 C44.093,54.63 44.073,55.515 43.715,56.279 L43.715,56.279 Z M53.221,22.983 C53.796,23.616 54.069,24.438 53.987,25.298 C53.842,26.813 52.455,28 50.829,28 L50,28 L50,22 L51,22 C51.844,22 52.653,22.358 53.221,22.983 L53.221,22.983 Z M24.369,20.626 C24.916,19.786 25.001,18.743 24.598,17.835 C24.201,16.943 24,15.989 24,15 C24,11.14 27.141,8 31,8 C34.859,8 38,11.14 38,15 C38,15.989 37.799,16.943 37.401,17.836 C36.999,18.743 37.084,19.786 37.63,20.626 C38.19,21.486 39.135,22 40.158,22 L47.999,22 L47.999,28 L38.999,28 C38.446,28 37.999,28.448 37.999,29 L37.999,37.808 C37.999,39.269 38.283,40.691 38.844,42.034 L42.591,51.027 L37.056,53.344 L31.922,41.023 C31.767,40.65 31.402,40.408 30.999,40.408 C30.596,40.408 30.231,40.651 30.076,41.023 L24.923,53.39 L19.384,51.082 L23.154,42.035 C23.715,40.692 23.999,39.27 23.999,37.808 L23.999,29 C23.999,28.448 23.552,28 22.999,28 L13.999,28 L13.999,22 L21.84,22 C22.864,22 23.81,21.487 24.369,20.626 L24.369,20.626 Z M8.779,22.983 C9.346,22.358 10.156,22 11,22 L12,22 L12,28 L11.172,28 C9.546,28 8.158,26.813 8.014,25.298 C7.932,24.438 8.204,23.616 8.779,22.983 L8.779,22.983 Z" id="Shape" fill="#000000"></path>
        <path d="M27,15 C27.553,15 28,14.552 28,14 C28,14.552 28.447,15 29,15 C29.553,15 30,14.552 30,14 C30,12.897 29.103,12 28,12 C26.897,12 26,12.897 26,14 C26,14.552 26.447,15 27,15 L27,15 Z" id="Shape" fill="#000000"></path>
        <path d="M33,15 C33.553,15 34,14.552 34,14 C34,14.552 34.447,15 35,15 C35.553,15 36,14.552 36,14 C36,12.897 35.103,12 34,12 C32.897,12 32,12.897 32,14 C32,14.552 32.447,15 33,15 L33,15 Z" id="Shape" fill="#000000"></path>
        <path d="M28,27 C28,28.654 29.346,30 31,30 C32.654,30 34,28.654 34,27 C34,25.346 32.654,24 31,24 C29.346,24 28,25.346 28,27 L28,27 Z M31,26 C31.552,26 32,26.449 32,27 C32,27.551 31.552,28 31,28 C30.448,28 30,27.551 30,27 C30,26.449 30.448,26 31,26 L31,26 Z" id="Shape" fill="#000000"></path>
        <path d="M31,32 C29.346,32 28,33.346 28,35 C28,36.654 29.346,38 31,38 C32.654,38 34,36.654 34,35 C34,33.346 32.654,32 31,32 L31,32 Z M31,36 C30.448,36 30,35.551 30,35 C30,34.449 30.448,34 31,34 C31.552,34 32,34.449 32,35 C32,35.551 31.552,36 31,36 L31,36 Z" id="Shape" fill="#000000"></path>
    </g>
</svg>