<?xml version="1.0" encoding="UTF-8" standalone="no"?>
<svg width="44px" height="44px" viewBox="0 0 44 44" version="1.1" xmlns="http://www.w3.org/2000/svg" xmlns:xlink="http://www.w3.org/1999/xlink">
    <!-- Generator: Sketch 3.7.2 (28276) - http://www.bohemiancoding.com/sketch -->
    <title>cel-bauble-3</title>
    <desc>Created with Sketch.</desc>
    <defs></defs>
    <g id="44px-Line" stroke="none" stroke-width="1" fill="none" fill-rule="evenodd">
        <g id="cel-bauble-3"></g>
        <path d="M16,7 L16,10.753 C9.059,12.893 4,19.366 4,27 C4,29.228 4.443,31.352 5.225,33.304 C5.24,33.349 5.253,33.393 5.273,33.436 C7.816,39.626 13.904,44 21,44 C30.374,44 38,36.374 38,27 C38,24.772 37.557,22.648 36.775,20.697 C36.76,20.651 36.747,20.607 36.726,20.564 C34.807,15.892 30.87,12.254 26,10.753 L26,7 C26,5.617 25.055,4.461 23.78,4.116 C23.919,3.77 24,3.395 24,3 C24,1.346 22.654,0 21,0 C19.346,0 18,1.346 18,3 C18,3.395 18.081,3.77 18.22,4.116 C16.945,4.461 16,5.617 16,7 L16,7 Z M6,27 C6,25.621 6.203,24.29 6.553,23.021 L13.891,32 L6.875,32 C6.319,30.434 6,28.755 6,27 L6,27 Z M36,27 C36,28.379 35.797,29.71 35.447,30.979 L28.109,22 L35.125,22 C35.681,23.566 36,25.245 36,27 L36,27 Z M33.698,32 L18.136,32 L25.993,22.571 L33.698,32 L33.698,32 Z M16.008,31.429 L8.302,22 L23.864,22 L16.008,31.429 L16.008,31.429 Z M21,42 C15.256,42 10.263,38.752 7.743,34 L34.256,34 C31.737,38.752 26.744,42 21,42 L21,42 Z M34.257,20 L7.744,20 C10.263,15.248 15.257,12 21.001,12 C26.745,12 31.737,15.248 34.257,20 L34.257,20 Z M21,2 C21.552,2 22,2.448 22,3 C22,3.552 21.552,4 21,4 C20.448,4 20,3.552 20,3 C20,2.448 20.448,2 21,2 L21,2 Z M18,7 C18,6.448 18.448,6 19,6 L23,6 C23.552,6 24,6.448 24,7 L24,10 L18,10 L18,7 L18,7 Z" id="Shape" fill="#000000"></path>
    </g>
</svg>