<?xml version="1.0" encoding="UTF-8" standalone="no"?>
<svg width="44px" height="44px" viewBox="0 0 44 44" version="1.1" xmlns="http://www.w3.org/2000/svg" xmlns:xlink="http://www.w3.org/1999/xlink">
    <!-- Generator: Sketch 3.7.2 (28276) - http://www.bohemiancoding.com/sketch -->
    <title>cel-candles</title>
    <desc>Created with Sketch.</desc>
    <defs></defs>
    <g id="44px-Line" stroke="none" stroke-width="1" fill="none" fill-rule="evenodd">
        <g id="cel-candles"></g>
        <path d="M40,41.08 L40,25 C40,24.447 39.552,24 39,24 L35,24 C34.448,24 34,24.447 34,25 L34,36.879 L32,35.479 L32,19 C32,18.447 31.552,18 31,18 L27,18 C26.448,18 26,18.447 26,19 L26,31.279 L24,29.879 L24,13 C24,12.447 23.552,12 23,12 L19,12 C18.448,12 18,12.447 18,13 L18,29.879 L16,31.279 L16,19 C16,18.447 15.552,18 15,18 L11,18 C10.448,18 10,18.447 10,19 L10,35.479 L8,36.879 L8,25 C8,24.447 7.552,24 7,24 L3,24 C2.448,24 2,24.447 2,25 L2,41.08 L0.427,42.181 C-0.026,42.497 -0.135,43.121 0.181,43.574 C0.499,44.028 1.121,44.136 1.574,43.82 L21,30.221 L40.427,43.82 C40.601,43.942 40.802,44.001 40.999,44.001 C41.314,44.001 41.624,43.853 41.819,43.574 C42.135,43.122 42.026,42.498 41.573,42.181 L40,41.08 L40,41.08 Z M36,26 L38,26 L38,39.679 L36,38.279 L36,26 L36,26 Z M28,20 L30,20 L30,34.08 L28,32.68 L28,20 L28,20 Z M12,20 L14,20 L14,32.679 L12,34.079 L12,20 L12,20 Z M4,26 L6,26 L6,38.279 L4,39.679 L4,26 L4,26 Z M20.427,28.181 L20,28.479 L20,14 L22,14 L22,28.479 L21.573,28.18 C21.229,27.94 20.771,27.94 20.427,28.181 L20.427,28.181 Z" id="Shape" fill="#000000"></path>
        <path d="M20.364,9.774 C20.542,9.92 20.77,10 21,10 C21.23,10 21.454,9.92 21.633,9.774 C23.137,8.544 24,6.804 24,5 C24,3.17 23.134,1.428 21.625,0.22 C21.257,-0.074 20.734,-0.072 20.368,0.226 C18.863,1.453 18,3.193 18,5 C18,6.808 18.862,8.548 20.364,9.774 L20.364,9.774 Z M21.006,2.387 C21.652,3.136 22,4.039 22,5 C22,5.932 21.643,6.848 20.999,7.607 C20.356,6.849 20,5.933 20,5 C20,4.065 20.359,3.146 21.006,2.387 L21.006,2.387 Z" id="Shape" fill="#000000"></path>
        <path d="M12.364,15.774 C12.542,15.92 12.77,16 13,16 C13.23,16 13.454,15.92 13.633,15.774 C15.137,14.544 16,12.804 16,11 C16,9.17 15.134,7.428 13.625,6.22 C13.257,5.925 12.734,5.927 12.368,6.226 C10.863,7.453 10,9.193 10,11 C10,12.808 10.862,14.548 12.364,15.774 L12.364,15.774 Z M13.006,8.387 C13.652,9.136 14,10.039 14,11 C14,11.932 13.643,12.848 12.999,13.607 C12.356,12.849 12,11.933 12,11 C12,10.065 12.359,9.146 13.006,8.387 L13.006,8.387 Z" id="Shape" fill="#000000"></path>
        <path d="M4.364,21.774 C4.542,21.92 4.77,22 5,22 C5.23,22 5.454,21.92 5.633,21.774 C7.137,20.544 8,18.804 8,17 C8,15.17 7.134,13.428 5.625,12.22 C5.257,11.926 4.734,11.928 4.368,12.226 C2.863,13.453 2,15.193 2,17 C2,18.808 2.862,20.548 4.364,21.774 L4.364,21.774 Z M5.006,14.387 C5.652,15.136 6,16.039 6,17 C6,17.932 5.643,18.848 4.999,19.607 C4.356,18.849 4,17.933 4,17 C4,16.065 4.359,15.146 5.006,14.387 L5.006,14.387 Z" id="Shape" fill="#000000"></path>
        <path d="M28.364,15.774 C28.542,15.92 28.77,16 29,16 C29.23,16 29.454,15.92 29.633,15.774 C31.137,14.544 32,12.804 32,11 C32,9.17 31.134,7.428 29.625,6.22 C29.257,5.925 28.734,5.927 28.368,6.226 C26.863,7.453 26,9.193 26,11 C26,12.808 26.862,14.548 28.364,15.774 L28.364,15.774 Z M29.006,8.387 C29.652,9.136 30,10.039 30,11 C30,11.932 29.643,12.848 28.999,13.607 C28.356,12.849 28,11.933 28,11 C28,10.065 28.359,9.146 29.006,8.387 L29.006,8.387 Z" id="Shape" fill="#000000"></path>
        <path d="M36.364,21.774 C36.542,21.92 36.77,22 37,22 C37.23,22 37.454,21.92 37.633,21.774 C39.137,20.544 40,18.804 40,17 C40,15.17 39.134,13.428 37.625,12.22 C37.257,11.926 36.734,11.928 36.368,12.226 C34.863,13.453 34,15.193 34,17 C34,18.808 34.862,20.548 36.364,21.774 L36.364,21.774 Z M37.006,14.387 C37.652,15.136 38,16.039 38,17 C38,17.932 37.643,18.848 36.999,19.607 C36.356,18.849 36,17.933 36,17 C36,16.065 36.359,15.146 37.006,14.387 L37.006,14.387 Z" id="Shape" fill="#000000"></path>
    </g>
</svg>