<?xml version="1.0" encoding="UTF-8" standalone="no"?>
<svg width="64px" height="64px" viewBox="0 0 64 64" version="1.1" xmlns="http://www.w3.org/2000/svg" xmlns:xlink="http://www.w3.org/1999/xlink">
    <!-- Generator: Sketch 3.7.2 (28276) - http://www.bohemiancoding.com/sketch -->
    <title>cel-sweet</title>
    <desc>Created with Sketch.</desc>
    <defs></defs>
    <g id="64px-Line" stroke="none" stroke-width="1" fill="none" fill-rule="evenodd">
        <g id="cel-sweet"></g>
        <path d="M45.696,4.293 C45.305,3.902 44.673,3.902 44.282,4.293 L42.78,5.794 C40.344,8.231 39.523,11.671 40.294,14.795 C37.446,13.106 34.231,12.165 30.893,12.12 C30.809,12.119 30.726,12.119 30.643,12.119 C25.718,12.119 21.082,14.047 17.565,17.565 C13.977,21.154 12,25.925 12,31 C12,34.371 12.89,37.599 14.527,40.444 C11.473,39.64 8.171,40.404 5.794,42.78 L4.293,44.282 C3.902,44.673 3.902,45.305 4.293,45.696 L16.304,57.707 C16.499,57.902 16.755,58 17.011,58 C17.267,58 17.523,57.902 17.718,57.707 L19.22,56.206 C21.596,53.829 22.361,50.527 21.556,47.473 C24.401,49.11 27.629,50 31,50 C36.075,50 40.846,48.023 44.435,44.435 C48.013,40.858 49.947,36.124 49.88,31.107 C49.835,27.769 48.894,24.554 47.205,21.707 C47.956,21.893 48.724,21.996 49.493,21.996 C51.924,21.996 54.355,21.071 56.206,19.221 L57.707,17.719 C58.098,17.328 58.098,16.696 57.707,16.305 L45.696,4.293 L45.696,4.293 Z M17.806,54.792 L17.011,55.586 L6.414,44.989 L7.208,44.194 C10.092,41.311 14.543,41.414 17.565,44.434 C20.585,47.455 20.688,51.908 17.806,54.792 L17.806,54.792 Z M47.88,31.134 C47.94,35.607 46.213,39.828 43.021,43.021 C39.81,46.231 35.541,48 31,48 C26.459,48 22.19,46.231 18.979,43.021 C15.768,39.811 14,35.541 14,31 C14,26.459 15.769,22.19 18.979,18.979 C22.119,15.839 26.253,14.119 30.643,14.119 C30.717,14.119 30.791,14.119 30.866,14.12 C35.319,14.179 39.551,15.99 42.78,19.22 C46.009,22.45 47.821,26.681 47.88,31.134 L47.88,31.134 Z M54.792,17.806 C51.87,20.728 47.116,20.726 44.194,17.806 C41.273,14.884 41.273,10.13 44.194,7.208 L44.989,6.414 L55.586,17.011 L54.792,17.806 L54.792,17.806 Z" id="Shape" fill="#000000"></path>
        <path d="M16,31 C16,31.553 16.447,32 17,32 C17.553,32 18,31.553 18,31 C18,23.832 23.832,18 31,18 C31.553,18 32,17.553 32,17 C32,16.447 31.553,16 31,16 C22.729,16 16,22.729 16,31 L16,31 Z" id="Shape" fill="#000000"></path>
    </g>
</svg>