<?xml version="1.0" encoding="UTF-8" standalone="no"?>
<svg width="44px" height="44px" viewBox="0 0 44 44" version="1.1" xmlns="http://www.w3.org/2000/svg" xmlns:xlink="http://www.w3.org/1999/xlink">
    <!-- Generator: Sketch 3.7.2 (28276) - http://www.bohemiancoding.com/sketch -->
    <title>cel-angel</title>
    <desc>Created with Sketch.</desc>
    <defs></defs>
    <g id="44px-Glyph" stroke="none" stroke-width="1" fill="none" fill-rule="evenodd">
        <g id="cel-angel" fill="#000000">
            <path d="M28.0449,3.1797 L28.0549,3.1797 L28.0449,3.1797 Z M16.1709,2.9997 C16.8449,3.4157 18.8629,3.9997 21.9999,3.9997 C25.1369,3.9997 27.1549,3.4157 27.8289,2.9997 C27.1549,2.5837 25.1369,1.9997 21.9999,1.9997 C18.8629,1.9997 16.8449,2.5837 16.1709,2.9997 L16.1709,2.9997 Z M21.9999,5.9997 C21.1819,5.9997 13.9999,5.9157 13.9999,2.9997 C13.9999,0.0837 21.1819,-0.0003 21.9999,-0.0003 C22.8179,-0.0003 29.9999,0.0837 29.9999,2.9997 C29.9999,5.9157 22.8179,5.9997 21.9999,5.9997 L21.9999,5.9997 Z" id="Fill-437"></path>
            <path d="M22,22 C18.141,22 15,18.859 15,15 C15,11.141 18.141,8 22,8 C25.859,8 29,11.141 29,15 C29,18.859 25.859,22 22,22" id="Fill-439"></path>
            <path d="M33.9883,38.8447 C33.8943,38.2487 32.1103,27.2817 27.1643,22.3597 C25.7003,23.3897 23.9213,23.9997 22.0003,23.9997 C20.0783,23.9997 18.2993,23.3897 16.8363,22.3597 C11.8903,27.2817 10.1053,38.2487 10.0113,38.8447 C10.0043,38.8967 10.0003,38.9477 10.0003,38.9997 C10.0003,42.4357 16.2203,43.9997 22.0003,43.9997 C27.7793,43.9997 34.0003,42.4357 34.0003,38.9997 C34.0003,38.9477 33.9963,38.8967 33.9883,38.8447" id="Fill-441"></path>
            <path d="M15.4248,20.9414 L15.5378,20.8294 C13.7728,18.6404 11.1928,16.0004 8.9998,16.0004 C7.3318,16.0004 5.8528,16.6374 4.6018,17.8954 C-0.0202,22.5454 -0.0032,34.4994 -0.0002,35.0064 C0.0018,35.3844 0.2188,35.7294 0.5588,35.8974 C0.6978,35.9654 0.8498,36.0004 0.9998,36.0004 C1.2148,36.0004 1.4288,35.9304 1.6068,35.7954 C1.6548,35.7584 5.4968,32.8714 9.6898,31.6324 C10.8418,27.9644 12.6698,23.6834 15.4248,20.9414" id="Fill-443"></path>
            <path d="M39.3984,17.8955 C38.1474,16.6375 36.6684,15.9995 35.0004,15.9995 C32.8074,15.9995 30.2194,18.6345 28.4494,20.8165 L28.5754,20.9415 C31.3314,23.6845 33.1594,27.9655 34.3104,31.6325 C38.5034,32.8715 42.3454,35.7585 42.3934,35.7955 C42.5714,35.9305 42.7854,35.9995 43.0004,35.9995 C43.1504,35.9995 43.3014,35.9655 43.4414,35.8975 C43.7814,35.7295 43.9984,35.3845 44.0004,35.0055 C44.0034,34.4995 44.0204,22.5445 39.3984,17.8955" id="Fill-445"></path>
        </g>
    </g>
</svg>