<?xml version="1.0" encoding="UTF-8" standalone="no"?>
<svg width="64px" height="64px" viewBox="0 0 64 64" version="1.1" xmlns="http://www.w3.org/2000/svg" xmlns:xlink="http://www.w3.org/1999/xlink">
    <!-- Generator: Sketch 3.7.2 (28276) - http://www.bohemiancoding.com/sketch -->
    <title>cel-fireworks</title>
    <desc>Created with Sketch.</desc>
    <defs></defs>
    <g id="64px-Line" stroke="none" stroke-width="1" fill="none" fill-rule="evenodd">
        <g id="cel-fireworks"></g>
        <path d="M35.874,22 C36.076,22 36.278,21.938 36.45,21.817 C36.762,21.596 36.923,21.216 36.861,20.838 L35.998,15.547 L39.645,11.809 C39.907,11.54 39.997,11.149 39.877,10.793 C39.757,10.437 39.45,10.179 39.08,10.122 L34.08,9.357 L31.834,4.574 C31.669,4.222 31.316,3.999 30.929,3.999 C30.542,3.999 30.189,4.224 30.024,4.574 L27.779,9.357 L22.778,10.122 C22.408,10.179 22.1,10.437 21.981,10.793 C21.862,11.149 21.952,11.54 22.213,11.809 L25.86,15.547 L24.997,20.838 C24.935,21.216 25.096,21.596 25.408,21.817 C25.721,22.038 26.135,22.061 26.468,21.875 L30.929,19.409 L35.39,21.875 C35.541,21.959 35.708,22 35.874,22 L35.874,22 Z M31.413,17.392 C31.263,17.309 31.097,17.267 30.93,17.267 C30.763,17.267 30.597,17.309 30.447,17.392 L27.304,19.129 L27.917,15.372 C27.968,15.059 27.867,14.74 27.646,14.513 L25.005,11.806 L28.609,11.255 C28.938,11.205 29.221,10.993 29.363,10.692 L30.929,7.354 L32.496,10.692 C32.638,10.994 32.921,11.206 33.25,11.255 L36.854,11.806 L34.213,14.513 C33.991,14.741 33.891,15.059 33.942,15.372 L34.555,19.129 L31.413,17.392 L31.413,17.392 Z" id="Shape" fill="#000000"></path>
        <path d="M4.052,16.794 C3.933,17.149 4.023,17.541 4.284,17.81 L7.931,21.548 L7.068,26.839 C7.006,27.217 7.167,27.597 7.479,27.818 C7.792,28.038 8.206,28.062 8.539,27.876 L13,25.41 L17.461,27.876 C17.611,27.96 17.778,28.001 17.944,28.001 C18.146,28.001 18.348,27.939 18.52,27.818 C18.832,27.597 18.993,27.217 18.931,26.839 L18.068,21.548 L21.715,17.81 C21.977,17.541 22.067,17.15 21.947,16.794 C21.827,16.438 21.52,16.18 21.15,16.123 L16.149,15.358 L13.904,10.575 C13.74,10.225 13.388,10 13,10 C12.612,10 12.26,10.225 12.095,10.575 L9.85,15.358 L4.849,16.123 C4.479,16.18 4.171,16.438 4.052,16.794 L4.052,16.794 Z M10.68,17.255 C11.009,17.205 11.292,16.993 11.434,16.692 L13,13.354 L14.566,16.692 C14.708,16.994 14.991,17.206 15.32,17.255 L18.924,17.806 L16.283,20.513 C16.061,20.741 15.961,21.059 16.012,21.372 L16.625,25.129 L13.482,23.392 C13.332,23.309 13.166,23.267 12.999,23.267 C12.832,23.267 12.666,23.309 12.516,23.392 L9.373,25.129 L9.986,21.372 C10.037,21.059 9.936,20.74 9.715,20.513 L7.074,17.806 L10.68,17.255 L10.68,17.255 Z" id="Shape" fill="#000000"></path>
        <path d="M57.948,16.794 C57.829,16.439 57.521,16.18 57.151,16.123 L52.15,15.358 L49.905,10.575 C49.74,10.225 49.388,10 49,10 C48.612,10 48.26,10.225 48.095,10.575 L45.85,15.358 L40.849,16.123 C40.479,16.18 40.171,16.438 40.052,16.794 C39.933,17.15 40.023,17.541 40.284,17.81 L43.931,21.548 L43.068,26.839 C43.006,27.217 43.167,27.597 43.479,27.818 C43.792,28.038 44.206,28.062 44.539,27.876 L49,25.41 L53.461,27.876 C53.611,27.96 53.778,28.001 53.944,28.001 C54.146,28.001 54.348,27.939 54.52,27.818 C54.832,27.597 54.993,27.217 54.931,26.839 L54.068,21.548 L57.715,17.81 C57.978,17.541 58.067,17.149 57.948,16.794 L57.948,16.794 Z M52.284,20.513 C52.062,20.741 51.962,21.059 52.013,21.372 L52.626,25.129 L49.483,23.392 C49.333,23.309 49.167,23.267 49,23.267 C48.833,23.267 48.667,23.309 48.517,23.392 L45.374,25.129 L45.987,21.372 C46.038,21.059 45.937,20.74 45.716,20.513 L43.075,17.806 L46.679,17.255 C47.008,17.205 47.291,16.993 47.433,16.692 L48.999,13.354 L50.565,16.692 C50.707,16.994 50.99,17.206 51.319,17.255 L54.923,17.806 L52.284,20.513 L52.284,20.513 Z" id="Shape" fill="#000000"></path>
        <path d="M31.92,24.62 C31.87,24.49 31.8,24.39 31.71,24.29 C31.34,23.92 30.66,23.92 30.29,24.29 C30.2,24.39 30.13,24.49 30.08,24.62 C30.03,24.74 30,24.87 30,25 C30,25.27 30.1,25.52 30.29,25.71 C30.39,25.8 30.5,25.87 30.62,25.92 C30.74,25.97 30.87,26 31,26 C31.13,26 31.26,25.97 31.38,25.92 C31.5,25.87 31.609,25.8 31.71,25.71 C31.899,25.52 32,25.27 32,25 C32,24.87 31.97,24.74 31.92,24.62 L31.92,24.62 Z" id="Shape" fill="#000000"></path>
        <circle id="Oval" fill="#000000" cx="31" cy="28.78" r="1"></circle>
        <path d="M31,46.67 C30.45,46.67 30,47.109 30,47.67 C30,48.22 30.45,48.67 31,48.67 C31.55,48.67 32,48.22 32,47.67 C32,47.109 31.55,46.67 31,46.67 L31,46.67 Z" id="Shape" fill="#000000"></path>
        <path d="M31,31.56 C30.45,31.56 30,32 30,32.55 C30,33.11 30.45,33.56 31,33.56 C31.55,33.56 32,33.11 32,32.55 C32,32 31.55,31.56 31,31.56 L31,31.56 Z" id="Shape" fill="#000000"></path>
        <circle id="Oval" fill="#000000" cx="31" cy="43.89" r="1"></circle>
        <circle id="Oval" fill="#000000" cx="31" cy="55.22" r="1"></circle>
        <circle id="Oval" fill="#000000" cx="31" cy="51.439" r="1"></circle>
        <circle id="Oval" fill="#000000" cx="31" cy="36.33" r="1"></circle>
        <circle id="Oval" fill="#000000" cx="31" cy="40.109" r="1"></circle>
        <path d="M30.29,58.29 C30.2,58.39 30.13,58.49 30.08,58.62 C30.03,58.74 30,58.87 30,59 C30,59.27 30.1,59.52 30.29,59.71 C30.39,59.8 30.5,59.87 30.62,59.92 C30.74,59.97 30.87,60 31,60 C31.13,60 31.26,59.97 31.38,59.92 C31.5,59.87 31.609,59.8 31.71,59.71 C31.899,59.52 32,59.27 32,59 C32,58.87 31.97,58.74 31.92,58.62 C31.87,58.49 31.8,58.39 31.71,58.29 C31.34,57.92 30.66,57.92 30.29,58.29 L30.29,58.29 Z" id="Shape" fill="#000000"></path>
        <path d="M34.29,59.71 C34.39,59.8 34.5,59.87 34.62,59.92 C34.74,59.97 34.87,60 35,60 C35.13,60 35.26,59.97 35.38,59.92 C35.5,59.87 35.609,59.8 35.71,59.71 C35.8,59.609 35.87,59.5 35.92,59.38 C35.97,59.26 36,59.13 36,59 C36,58.87 35.97,58.74 35.92,58.62 C35.87,58.49 35.8,58.39 35.71,58.29 C35.609,58.2 35.5,58.13 35.38,58.08 C35.14,57.97 34.859,57.97 34.62,58.08 C34.5,58.13 34.39,58.2 34.29,58.29 C34.2,58.39 34.13,58.49 34.08,58.62 C34.019,58.74 34,58.87 34,59 C34,59.13 34.02,59.26 34.069,59.38 C34.13,59.5 34.2,59.609 34.29,59.71 L34.29,59.71 Z" id="Shape" fill="#000000"></path>
        <path d="M39.939,37.72 C39.419,37.52 38.839,37.77 38.639,38.29 C38.439,38.8 38.689,39.38 39.209,39.58 C39.329,39.63 39.449,39.649 39.568,39.649 C39.968,39.649 40.348,39.41 40.508,39.019 L40.498,39.019 C40.71,38.5 40.45,37.92 39.939,37.72 L39.939,37.72 Z" id="Shape" fill="#000000"></path>
        <path d="M37.87,46.87 C38.019,46.33 37.7,45.78 37.17,45.64 C36.64,45.491 36.09,45.8 35.94,46.34 C35.791,46.87 36.1,47.42 36.64,47.56 C36.73,47.59 36.82,47.6 36.911,47.6 C37.34,47.6 37.74,47.31 37.87,46.87 L37.87,46.87 Z" id="Shape" fill="#000000"></path>
        <path d="M36.899,50.88 C37.009,50.34 36.66,49.81 36.12,49.7 C35.58,49.59 35.05,49.939 34.939,50.479 C34.83,51.019 35.179,51.549 35.719,51.66 C35.789,51.67 35.849,51.68 35.919,51.68 C36.39,51.68 36.8,51.35 36.899,50.88 L36.899,50.88 Z" id="Shape" fill="#000000"></path>
        <path d="M39.08,42.91 C39.26,42.389 38.979,41.819 38.46,41.639 C37.93,41.469 37.359,41.749 37.189,42.269 C37.009,42.79 37.29,43.359 37.819,43.54 C37.92,43.569 38.03,43.59 38.139,43.59 C38.55,43.59 38.939,43.33 39.08,42.91 L39.08,42.91 Z" id="Shape" fill="#000000"></path>
        <path d="M41.189,35.78 C41.58,35.78 41.939,35.559 42.109,35.189 C42.33,34.679 42.099,34.089 41.599,33.87 C41.099,33.64 40.499,33.87 40.28,34.37 C40.059,34.88 40.28,35.47 40.79,35.689 C40.92,35.75 41.06,35.78 41.189,35.78 L41.189,35.78 Z" id="Shape" fill="#000000"></path>
        <path d="M36.25,54.93 C36.31,54.38 35.91,53.89 35.37,53.83 C34.819,53.76 34.319,54.16 34.26,54.7 C34.19,55.25 34.59,55.75 35.14,55.809 C35.18,55.819 35.22,55.819 35.26,55.819 C35.75,55.819 36.19,55.439 36.25,54.939 L36.25,54.93 L36.25,54.93 Z" id="Shape" fill="#000000"></path>
        <path d="M42.62,31.92 C42.74,31.97 42.87,32 43,32 C43.13,32 43.26,31.97 43.38,31.92 C43.5,31.87 43.609,31.8 43.71,31.71 C43.899,31.52 44,31.27 44,31 C44,30.74 43.89,30.479 43.71,30.29 C43.66,30.25 43.609,30.2 43.56,30.17 C43.5,30.13 43.44,30.1 43.38,30.08 C43.319,30.05 43.26,30.03 43.19,30.019 C43.07,29.99 42.93,29.99 42.8,30.019 C42.74,30.03 42.68,30.049 42.62,30.08 C42.559,30.1 42.5,30.13 42.439,30.17 C42.389,30.2 42.339,30.25 42.29,30.29 C42.109,30.479 42,30.74 42,31 C42,31.27 42.1,31.52 42.29,31.71 C42.39,31.8 42.5,31.87 42.62,31.92 L42.62,31.92 Z" id="Shape" fill="#000000"></path>
        <path d="M26.62,59.92 C26.74,59.97 26.87,60 27,60 C27.13,60 27.26,59.97 27.38,59.92 C27.5,59.87 27.609,59.8 27.71,59.71 C27.89,59.52 28,59.27 28,59 C28,58.729 27.89,58.479 27.71,58.29 C27.33,57.92 26.66,57.92 26.29,58.29 C26.109,58.479 26,58.729 26,59 C26,59.27 26.1,59.52 26.29,59.71 C26.39,59.8 26.5,59.87 26.62,59.92 L26.62,59.92 Z" id="Shape" fill="#000000"></path>
        <path d="M26.08,51.68 C26.14,51.68 26.21,51.67 26.28,51.66 C26.819,51.55 27.17,51.019 27.059,50.479 C26.95,49.939 26.419,49.589 25.879,49.7 C25.339,49.809 24.989,50.34 25.099,50.88 C25.189,51.35 25.609,51.68 26.08,51.68 L26.08,51.68 Z" id="Shape" fill="#000000"></path>
        <path d="M22.43,39.649 C22.55,39.649 22.67,39.629 22.79,39.58 C23.3,39.38 23.56,38.8 23.359,38.29 C23.149,37.769 22.569,37.519 22.059,37.72 C21.539,37.92 21.289,38.5 21.49,39.02 C21.649,39.41 22.03,39.649 22.43,39.649 L22.43,39.649 Z" id="Shape" fill="#000000"></path>
        <path d="M25.09,47.6 C25.18,47.6 25.27,47.59 25.36,47.57 C25.89,47.421 26.201,46.871 26.06,46.341 L26.06,46.331 C25.911,45.801 25.36,45.491 24.831,45.641 C24.291,45.782 23.98,46.331 24.131,46.871 C24.25,47.31 24.66,47.6 25.09,47.6 L25.09,47.6 Z" id="Shape" fill="#000000"></path>
        <path d="M20.81,35.78 C20.94,35.78 21.081,35.75 21.21,35.689 C21.72,35.469 21.939,34.879 21.72,34.37 C21.491,33.87 20.9,33.64 20.4,33.87 C19.9,34.09 19.671,34.68 19.89,35.189 C20.06,35.56 20.42,35.78 20.81,35.78 L20.81,35.78 Z" id="Shape" fill="#000000"></path>
        <path d="M26.75,55.819 C26.78,55.819 26.819,55.819 26.859,55.809 C27.41,55.749 27.799,55.249 27.74,54.7 C27.679,54.16 27.179,53.76 26.63,53.83 C26.08,53.89 25.69,54.39 25.75,54.93 C25.81,55.439 26.24,55.819 26.75,55.819 L26.75,55.819 Z" id="Shape" fill="#000000"></path>
        <path d="M23.859,43.59 C23.969,43.59 24.08,43.569 24.179,43.54 C24.709,43.359 24.99,42.8 24.809,42.269 C24.629,41.749 24.069,41.469 23.539,41.649 C23.018,41.819 22.739,42.389 22.919,42.91 L22.909,42.91 C23.06,43.33 23.45,43.59 23.859,43.59 L23.859,43.59 Z" id="Shape" fill="#000000"></path>
        <path d="M19.92,30.62 C19.87,30.49 19.8,30.39 19.71,30.29 C19.33,29.92 18.66,29.92 18.29,30.29 C18.2,30.39 18.13,30.49 18.08,30.62 C18.03,30.74 18,30.87 18,31 C18,31.13 18.03,31.26 18.08,31.38 C18.13,31.5 18.2,31.609 18.29,31.71 C18.39,31.8 18.5,31.87 18.62,31.92 C18.74,31.97 18.87,32 19,32 C19.13,32 19.26,31.97 19.38,31.92 C19.5,31.87 19.609,31.8 19.71,31.71 C19.8,31.609 19.87,31.5 19.92,31.38 C19.97,31.26 20,31.13 20,31 C20,30.87 19.97,30.74 19.92,30.62 L19.92,30.62 Z" id="Shape" fill="#000000"></path>
    </g>
</svg>