<?xml version="1.0" encoding="UTF-8" standalone="no"?>
<svg width="64px" height="64px" viewBox="0 0 64 64" version="1.1" xmlns="http://www.w3.org/2000/svg" xmlns:xlink="http://www.w3.org/1999/xlink">
    <!-- Generator: Sketch 3.7.2 (28276) - http://www.bohemiancoding.com/sketch -->
    <title>cel-stocking-line</title>
    <desc>Created with Sketch.</desc>
    <defs></defs>
    <g id="64px-Line" stroke="none" stroke-width="1" fill="none" fill-rule="evenodd">
        <g id="cel-stocking-line"></g>
        <path d="M4.684,9.948 C4.792,9.984 15.311,13.445 28,13.94 L28,19.685 L17.173,38.952 C14.717,43.323 16.255,48.89 20.599,51.361 L34.631,59.343 C35.397,59.779 36.244,60.001 37.101,60.001 C37.551,60.001 38.003,59.939 38.449,59.815 C39.747,59.455 40.826,58.607 41.488,57.429 L44.463,52.135 C45.826,49.709 44.973,46.621 42.562,45.25 L39.054,43.254 C38.564,42.975 38.391,42.346 38.669,41.852 L45.61,29.498 C46.426,28.046 45.915,26.197 44.471,25.376 L34,19.422 L34,13.931 C46.441,13.435 55.004,10.075 55.372,9.929 C55.884,9.724 56.134,9.142 55.929,8.629 C55.724,8.117 55.143,7.865 54.63,8.071 C54.543,8.105 45.951,11.469 33.797,11.937 C33.664,11.587 33.467,11.272 33.22,10.999 C33.7,10.467 34,9.77 34,8.999 C34,7.345 32.654,5.999 31,5.999 C29.346,5.999 28,7.345 28,8.999 C28,9.77 28.301,10.467 28.78,10.999 C28.532,11.274 28.334,11.592 28.201,11.944 C15.756,11.479 5.421,8.085 5.316,8.049 C4.793,7.879 4.226,8.158 4.051,8.682 C3.877,9.208 4.16,9.774 4.684,9.948 L4.684,9.948 Z M32,13 L32,23 C32,23.552 31.551,24 31,24 C30.449,24 30,23.552 30,23 L30,13.02 C30,13.013 30.004,13.007 30.004,13 C30.004,12.996 30.002,12.992 30.002,12.988 C30.009,12.442 30.453,12 31,12 C31.551,12 32,12.448 32,13 L32,13 Z M36.926,40.873 C36.11,42.324 36.621,44.173 38.065,44.994 L41.573,46.99 C43.031,47.819 43.545,49.688 42.72,51.156 L39.745,56.45 C39.345,57.161 38.695,57.673 37.913,57.889 C37.137,58.104 36.322,58.004 35.62,57.605 L21.588,49.623 C18.196,47.693 16.998,43.347 18.916,39.933 L25.366,28.455 L39.413,36.446 L36.926,40.873 L36.926,40.873 Z M43.482,27.116 C43.972,27.395 44.145,28.024 43.867,28.519 L40.393,34.702 L26.346,26.712 L28.072,23.64 C28.367,24.987 29.565,26 31,26 C32.654,26 34,24.654 34,23 L34,21.723 L43.482,27.116 L43.482,27.116 Z M31,8 C31.551,8 32,8.448 32,9 C32,9.552 31.551,10 31,10 C30.449,10 30,9.552 30,9 C30,8.448 30.449,8 31,8 L31,8 Z" id="Shape" fill="#000000"></path>
    </g>
</svg>