<?xml version="1.0" encoding="UTF-8" standalone="no"?>
<svg width="64px" height="64px" viewBox="0 0 64 64" version="1.1" xmlns="http://www.w3.org/2000/svg" xmlns:xlink="http://www.w3.org/1999/xlink">
    <!-- Generator: Sketch 3.7.2 (28276) - http://www.bohemiancoding.com/sketch -->
    <title>cel-letter-love-3</title>
    <desc>Created with Sketch.</desc>
    <defs></defs>
    <g id="64px-Line" stroke="none" stroke-width="1" fill="none" fill-rule="evenodd">
        <g id="cel-letter-love-3"></g>
        <path d="M14,49 C14,49.438 14.284,49.824 14.702,49.954 L46.702,59.954 C46.799,59.985 46.9,60 47,60 C47.21,60 47.418,59.934 47.592,59.806 C47.849,59.617 48,59.318 48,59 L48,25 C48,24.541 47.688,24.142 47.243,24.03 L44,23.22 L44,7 C44,6.675 43.842,6.37 43.576,6.183 C43.31,5.996 42.969,5.95 42.663,6.059 L14.663,16.059 C14.597,16.082 14.548,16.128 14.491,16.163 C14.457,16.184 14.416,16.188 14.385,16.212 C14.375,16.22 14.372,16.233 14.362,16.24 C14.265,16.322 14.188,16.419 14.129,16.528 C14.121,16.542 14.107,16.552 14.1,16.567 C14.039,16.694 14.009,16.833 14.006,16.975 C14.006,16.984 14,16.992 14,17 L14,49 L14,49 Z M46,57.64 L16,48.265 L16,18.282 L46,25.782 L46,57.64 L46,57.64 Z M42,22.72 L18.446,16.831 L42,8.419 L42,22.72 L42,22.72 Z" id="Shape" fill="#000000"></path>
        <path d="M30.201,47.602 C30.363,47.817 30.605,47.957 30.872,47.993 C30.915,47.997 30.958,48 31,48 C31.224,48 31.443,47.925 31.621,47.784 L40.042,41.118 C42.567,39.14 42.647,34.93 40.22,31.73 C38.866,29.945 36.976,28.776 35.037,28.525 C33.605,28.337 32.238,28.687 31.245,29.466 L31.192,29.502 L30.989,29.254 C29.635,27.469 27.745,26.3 25.805,26.049 C24.375,25.861 23.007,26.21 21.961,27.028 C19.434,29.005 19.353,33.216 21.778,36.415 L30.201,47.602 L30.201,47.602 Z M23.193,28.605 C23.797,28.131 24.476,28 25.047,28 C25.227,28 25.396,28.014 25.548,28.033 C26.939,28.214 28.378,29.122 29.419,30.494 L30.227,31.478 C30.556,31.877 31.136,31.96 31.563,31.669 L32.424,31.08 C33.219,30.457 34.144,30.422 34.779,30.508 C36.17,30.688 37.608,31.597 38.626,32.939 C40.397,35.274 40.479,38.237 38.807,39.543 C38.806,39.544 38.804,39.546 38.802,39.547 L31.182,45.579 L23.373,35.209 C21.603,32.875 21.522,29.912 23.193,28.605 L23.193,28.605 Z" id="Shape" fill="#000000"></path>
    </g>
</svg>