<?xml version="1.0" encoding="UTF-8" standalone="no"?>
<svg width="64px" height="64px" viewBox="0 0 64 64" version="1.1" xmlns="http://www.w3.org/2000/svg" xmlns:xlink="http://www.w3.org/1999/xlink">
    <!-- Generator: Sketch 3.7.2 (28276) - http://www.bohemiancoding.com/sketch -->
    <title>cel-firework</title>
    <desc>Created with Sketch.</desc>
    <defs></defs>
    <g id="64px-Line" stroke="none" stroke-width="1" fill="none" fill-rule="evenodd">
        <g id="cel-firework"></g>
        <path d="M57,6 L43,6 C42.596,6 42.231,6.244 42.076,6.617 C41.921,6.991 42.007,7.421 42.293,7.707 L44.586,10 L44.293,10.292 C44.293,10.292 44.293,10.292 44.292,10.293 L36.293,18.292 C36.293,18.292 36.293,18.292 36.292,18.293 L28.293,26.292 C28.293,26.292 28.293,26.292 28.292,26.293 L4.292,50.293 C3.901,50.684 3.901,51.316 4.292,51.707 C4.488,51.902 4.744,52 5,52 C5.256,52 5.512,51.902 5.707,51.707 L21,36.414 L23.628,39.042 C18.921,44.606 22.065,51.363 22.099,51.434 C22.271,51.791 22.627,52 23,52 C23.145,52 23.292,51.968 23.432,51.901 C23.929,51.663 24.14,51.067 23.903,50.568 C23.79,50.331 21.332,44.986 25.042,40.455 L28.294,43.706 C28.386,43.798 28.497,43.872 28.619,43.922 C28.74,43.974 28.87,44 29,44 C29.13,44 29.26,43.974 29.382,43.923 C29.504,43.872 29.615,43.799 29.707,43.707 L37.706,35.708 C37.706,35.708 37.706,35.708 37.707,35.707 L45.706,27.708 C45.706,27.708 45.706,27.708 45.707,27.707 L54,19.414 L56.293,21.707 C56.484,21.898 56.74,22 57,22 C57.129,22 57.259,21.975 57.383,21.924 C57.756,21.769 58,21.404 58,21 L58,7 C58,6.448 57.552,6 57,6 L57,6 Z M30,27.414 L36,21.414 L36,34.586 L30,40.586 L30,27.414 L30,27.414 Z M38,19.414 L44,13.414 L44,26.586 L38,32.586 L38,19.414 L38,19.414 Z M28,29.414 L28,40.586 L22.414,35 L28,29.414 L28,29.414 Z M46,24.586 L46,11.414 L52.586,18 L46,24.586 L46,24.586 Z M56,18.586 L45.414,8 L56,8 L56,18.586 L56,18.586 Z" id="Shape" fill="#000000"></path>
        <path d="M24,57 L24,55 C24,54.448 23.552,54 23,54 C22.448,54 22,54.448 22,55 L22,57 C22,57.552 22.448,58 23,58 C23.552,58 24,57.552 24,57 L24,57 Z" id="Shape" fill="#000000"></path>
        <path d="M16.293,54.293 C15.902,54.684 15.902,55.316 16.293,55.707 C16.488,55.902 16.744,56 17,56 C17.256,56 17.512,55.902 17.707,55.707 L19.707,53.707 C20.098,53.316 20.098,52.684 19.707,52.293 C19.316,51.902 18.684,51.902 18.293,52.293 L16.293,54.293 L16.293,54.293 Z" id="Shape" fill="#000000"></path>
        <path d="M26.293,53.707 L28.293,55.707 C28.488,55.902 28.744,56 29,56 C29.256,56 29.512,55.902 29.707,55.707 C30.098,55.316 30.098,54.684 29.707,54.293 L27.707,52.293 C27.316,51.902 26.684,51.902 26.293,52.293 C25.902,52.684 25.902,53.316 26.293,53.707 L26.293,53.707 Z" id="Shape" fill="#000000"></path>
        <path d="M29,50 C29.552,50 30,49.552 30,49 C30,48.448 29.552,48 29,48 L27,48 C26.448,48 26,48.448 26,49 C26,49.552 26.448,50 27,50 L29,50 L29,50 Z" id="Shape" fill="#000000"></path>
        <path d="M18,48 L16,48 C15.448,48 15,48.448 15,49 C15,49.552 15.448,50 16,50 L18,50 C18.552,50 19,49.552 19,49 C19,48.448 18.552,48 18,48 L18,48 Z" id="Shape" fill="#000000"></path>
    </g>
</svg>