<?xml version="1.0" encoding="UTF-8" standalone="no"?>
<svg width="64px" height="64px" viewBox="0 0 64 64" version="1.1" xmlns="http://www.w3.org/2000/svg" xmlns:xlink="http://www.w3.org/1999/xlink">
    <!-- Generator: Sketch 3.7.2 (28276) - http://www.bohemiancoding.com/sketch -->
    <title>cel-sleigh</title>
    <desc>Created with Sketch.</desc>
    <defs></defs>
    <g id="64px-Line" stroke="none" stroke-width="1" fill="none" fill-rule="evenodd">
        <g id="cel-sleigh"></g>
        <path d="M50,44 C49.447,44 49,44.448 49,45 C49,45.552 49.447,46 50,46 C53.309,46 56,48.691 56,52 C56,55.309 53.309,58 50,58 L49.618,58 L44.145,47.054 L53.848,31.53 C54.037,31.227 54.051,30.846 53.883,30.531 C53.828,30.428 52.498,28 49,28 C46.945,28 45.3,29.956 43.395,32.221 C41.115,34.93 38.532,38 35,38 C32.09,38 29.193,34.307 26.392,30.736 C23.023,26.441 19.54,22 15,22 L5,22 C4.653,22 4.332,22.18 4.149,22.474 C3.966,22.769 3.95,23.137 4.105,23.447 L15.882,47 L10.382,58 L10,58 C7.794,58 6,56.206 6,54 C6,51.794 7.794,50 10,50 C10.553,50 11,49.552 11,49 C11,48.448 10.553,48 10,48 C6.691,48 4,50.691 4,54 C4,57.309 6.691,60 10,60 L50,60 C54.411,60 58,56.411 58,52 C58,47.589 54.411,44 50,44 L50,44 Z M15,24 C18.566,24 21.745,28.052 24.818,31.97 C28.058,36.1 31.116,40 35,40 C39.464,40 42.492,36.4 44.925,33.508 C46.444,31.704 47.877,30 49,30 C50.491,30 51.36,30.62 51.786,31.055 L42.445,46 L17.618,46 L6.618,24 L15,24 L15,24 Z M17.618,48 L42.382,48 L47.382,58 L12.618,58 L17.618,48 L17.618,48 Z" id="Shape" fill="#000000"></path>
        <path d="M33,16 C32.447,16 32,16.448 32,17 L32,22 L29,22 C28.447,22 28,22.448 28,23 C28,23.552 28.447,24 29,24 L32,24 L32,29 C32,29.552 32.447,30 33,30 C33.553,30 34,29.552 34,29 L34,24 L37,24 C37.553,24 38,23.552 38,23 C38,22.448 37.553,22 37,22 L34,22 L34,17 C34,16.448 33.553,16 33,16 L33,16 Z" id="Shape" fill="#000000"></path>
        <path d="M15,8 C14.447,8 14,8.448 14,9 L14,12 L13,12 C12.447,12 12,12.448 12,13 C12,13.552 12.447,14 13,14 L14,14 L14,17 C14,17.552 14.447,18 15,18 C15.553,18 16,17.552 16,17 L16,14 L17,14 C17.553,14 18,13.552 18,13 C18,12.448 17.553,12 17,12 L16,12 L16,9 C16,8.448 15.553,8 15,8 L15,8 Z" id="Shape" fill="#000000"></path>
        <path d="M47,6 C46.447,6 46,6.448 46,7 L46,10 L45,10 C44.447,10 44,10.448 44,11 C44,11.552 44.447,12 45,12 L46,12 L46,15 C46,15.552 46.447,16 47,16 C47.553,16 48,15.552 48,15 L48,12 L49,12 C49.553,12 50,11.552 50,11 C50,10.448 49.553,10 49,10 L48,10 L48,7 C48,6.448 47.553,6 47,6 L47,6 Z" id="Shape" fill="#000000"></path>
    </g>
</svg>