<?xml version="1.0" encoding="UTF-8" standalone="no"?>
<svg width="64px" height="64px" viewBox="0 0 64 64" version="1.1" xmlns="http://www.w3.org/2000/svg" xmlns:xlink="http://www.w3.org/1999/xlink">
    <!-- Generator: Sketch 3.7.2 (28276) - http://www.bohemiancoding.com/sketch -->
    <title>cel-letter-love</title>
    <desc>Created with Sketch.</desc>
    <defs></defs>
    <g id="64px-Line" stroke="none" stroke-width="1" fill="none" fill-rule="evenodd">
        <g id="cel-letter-love"></g>
        <path d="M57.953,26.758 C57.941,26.711 57.942,26.663 57.923,26.618 C57.916,26.6 57.902,26.587 57.894,26.57 C57.868,26.515 57.829,26.469 57.792,26.419 C57.751,26.363 57.712,26.308 57.66,26.261 C57.646,26.248 57.639,26.231 57.624,26.219 L52,21.731 L52,13 C52,11.009 50.99,10 49,10 L39.777,10 L34.769,5.172 C33.209,3.612 30.672,3.612 29.14,5.145 L23.895,10 L15,10 C13.01,10 12,11.009 12,13 L12,21.01 L6.32,26.266 C6.315,26.27 6.313,26.277 6.309,26.282 C6.254,26.335 6.217,26.403 6.175,26.467 C6.146,26.512 6.106,26.552 6.085,26.601 C6.082,26.607 6.079,26.612 6.077,26.618 C6.055,26.671 6.054,26.728 6.042,26.784 C6.027,26.85 6.005,26.914 6.003,26.982 C6.003,26.988 5.999,26.994 5.999,27 L5.999,57 C5.999,59.075 6.924,60 8.999,60 L54.999,60 C57.046,60 57.999,59.047 57.999,57 L57.999,27 C57.999,26.981 57.989,26.963 57.988,26.944 C57.986,26.88 57.969,26.82 57.953,26.758 L57.953,26.758 Z M8,29.414 L22.283,43.696 L8,56.566 L8,29.414 L8,29.414 Z M30.707,38.795 C31.475,38.027 32.554,37.994 33.39,38.828 L39.547,44.423 C39.552,44.428 39.554,44.436 39.559,44.441 C39.568,44.45 39.579,44.452 39.588,44.461 L54.488,58.001 L9.395,58.001 L30.707,38.795 L30.707,38.795 Z M56,56.67 L41.719,43.694 L56,29.414 L56,56.67 L56,56.67 Z M55.502,27.084 L52,30.586 L52,24.291 L55.502,27.084 L55.502,27.084 Z M30.527,6.586 C31.283,5.83 32.587,5.817 33.368,6.599 L36.895,10 L26.84,10 L30.527,6.586 L30.527,6.586 Z M15,12 L39.367,12 C39.37,12 39.372,12.001 39.375,12.001 C39.378,12.001 39.38,12 39.382,12 L49,12 C49.888,12 50,12.112 50,13 L50,32.586 L40.237,42.349 L34.77,37.381 C34.015,36.625 33.042,36.208 32.032,36.208 C31.022,36.208 30.049,36.625 29.332,37.345 L23.771,42.356 L14.001,32.586 L14.001,13 C14,12.112 14.112,12 15,12 L15,12 Z M12,30.586 L8.442,27.028 L12,23.736 L12,30.586 L12,30.586 Z" id="Shape" fill="#000000"></path>
        <path d="M31.272,33.687 C31.461,33.887 31.724,34 32,34 C32.276,34 32.538,33.887 32.728,33.687 L40.293,25.669 C41.394,24.6 42,23.179 42,21.667 C42,20.146 41.387,18.718 40.274,17.647 C38.001,15.458 34.303,15.458 32.071,17.613 L32,17.675 L31.967,17.647 C29.696,15.459 25.997,15.458 23.726,17.647 C22.613,18.718 22,20.146 22,21.666 C22,23.187 22.612,24.615 23.691,25.653 L31.272,33.687 L31.272,33.687 Z M25.112,19.087 C25.862,18.365 26.844,18.003 27.834,18.003 C28.834,18.003 29.84,18.374 30.616,19.121 L31.343,19.754 C31.72,20.082 32.28,20.082 32.656,19.754 L33.421,19.087 C34.929,17.636 37.38,17.636 38.888,19.087 C39.605,19.778 40,20.694 40,21.667 C40,22.639 39.604,23.555 38.888,24.246 C38.876,24.257 38.865,24.268 38.854,24.28 L32,31.543 L25.112,24.246 C24.394,23.555 24,22.639 24,21.666 C24,20.694 24.396,19.778 25.112,19.087 L25.112,19.087 Z" id="Shape" fill="#000000"></path>
    </g>
</svg>