<?xml version="1.0" encoding="UTF-8" standalone="no"?>
<svg width="64px" height="64px" viewBox="0 0 64 64" version="1.1" xmlns="http://www.w3.org/2000/svg" xmlns:xlink="http://www.w3.org/1999/xlink">
    <!-- Generator: Sketch 3.7.2 (28276) - http://www.bohemiancoding.com/sketch -->
    <title>cel-hat-santa-2</title>
    <desc>Created with Sketch.</desc>
    <defs></defs>
    <g id="64px-Line" stroke="none" stroke-width="1" fill="none" fill-rule="evenodd">
        <g id="cel-hat-santa-2"></g>
        <path d="M50.981,6 C49.106,6 47.343,6.729 46.018,8.056 C44.222,9.852 43.613,12.386 44.174,14.69 L15.695,30.225 L14.805,29.335 C13.67,28.2 11.689,28.201 10.554,29.335 L4.88,35.009 C4.312,35.577 3.999,36.332 3.999,37.135 C3.999,37.939 4.311,38.694 4.88,39.261 L24.738,59.12 C25.306,59.688 26.061,60.001 26.865,60.001 C27.668,60.001 28.423,59.689 28.99,59.12 L34.665,53.446 C35.232,52.879 35.546,52.124 35.546,51.32 C35.546,50.517 35.233,49.762 34.665,49.195 L33.775,48.305 L49.31,19.826 C49.859,19.96 50.419,20.034 50.981,20.034 C52.778,20.034 54.576,19.35 55.944,17.982 C58.68,15.246 58.68,10.793 55.944,8.056 C54.619,6.729 52.856,6 50.981,6 L50.981,6 Z M33.252,52.031 L27.576,57.705 C27.196,58.087 26.534,58.085 26.154,57.705 L6.295,37.846 C6.295,37.846 6.295,37.846 6.295,37.845 C6.105,37.656 6,37.404 6,37.134 C6,36.865 6.104,36.613 6.295,36.423 L11.969,30.748 C12.165,30.552 12.423,30.454 12.681,30.454 C12.938,30.454 13.196,30.552 13.392,30.748 L14.803,32.16 C14.804,32.16 14.804,32.161 14.805,32.161 L33.252,50.608 C33.645,51.001 33.645,51.639 33.252,52.031 L33.252,52.031 Z M32.302,46.831 L17.169,31.698 L44.928,16.556 C45.225,17.064 45.583,17.546 46.018,17.981 C46.453,18.416 46.935,18.774 47.443,19.071 L32.302,46.831 L32.302,46.831 Z M54.53,16.567 C52.573,18.522 49.389,18.522 47.432,16.567 C45.475,14.61 45.475,11.426 47.432,9.469 C48.411,8.49 49.696,8.001 50.981,8.001 C52.266,8.001 53.551,8.49 54.53,9.469 C56.487,11.427 56.487,14.61 54.53,16.567 L54.53,16.567 Z" id="Shape" fill="#000000"></path>
    </g>
</svg>