<?xml version="1.0" encoding="UTF-8" standalone="no"?>
<svg width="64px" height="64px" viewBox="0 0 64 64" version="1.1" xmlns="http://www.w3.org/2000/svg" xmlns:xlink="http://www.w3.org/1999/xlink">
    <!-- Generator: Sketch 3.7.2 (28276) - http://www.bohemiancoding.com/sketch -->
    <title>cel-egg-easter</title>
    <desc>Created with Sketch.</desc>
    <defs></defs>
    <g id="64px-Line" stroke="none" stroke-width="1" fill="none" fill-rule="evenodd">
        <g id="cel-egg-easter"></g>
        <path d="M31,6 C20.598,6 10,21.572 10,36.856 C10,52.05 20.564,60 31,60 C41.436,60 52,52.05 52,36.856 C52,21.572 41.402,6 31,6 L31,6 Z M31,8 C37.826,8 44.938,16.107 48.186,26 L13.815,26 C17.062,16.107 24.174,8 31,8 L31,8 Z M12,36.856 C12,34.356 12.315,31.833 12.877,29.37 L23.083,44 L12.957,44 C12.342,41.857 12,39.475 12,36.856 L12,36.856 Z M14.36,28 L35.131,28 L24.981,43.225 L14.36,28 L14.36,28 Z M37.026,28.764 L47.851,44 L26.868,44 L37.026,28.764 L37.026,28.764 Z M38.937,28 L48.783,28 C49.559,30.89 50,33.891 50,36.856 C50,38.95 49.759,40.875 49.357,42.666 L38.937,28 L38.937,28 Z M31,58 C23.914,58 16.763,53.909 13.635,46 L48.364,46 C45.237,53.909 38.086,58 31,58 L31,58 Z" id="Shape" fill="#000000"></path>
    </g>
</svg>