<?xml version="1.0" encoding="UTF-8" standalone="no"?>
<svg width="64px" height="64px" viewBox="0 0 64 64" version="1.1" xmlns="http://www.w3.org/2000/svg" xmlns:xlink="http://www.w3.org/1999/xlink">
    <!-- Generator: Sketch 3.7.2 (28276) - http://www.bohemiancoding.com/sketch -->
    <title>cel-egg-easter-2</title>
    <desc>Created with Sketch.</desc>
    <defs></defs>
    <g id="64px-Line" stroke="none" stroke-width="1" fill="none" fill-rule="evenodd">
        <g id="cel-egg-easter-2"></g>
        <path d="M52,36.856 C52,21.572 41.402,6 31,6 C28.35,6 25.688,7.015 23.19,8.774 C23.093,8.809 22.997,8.847 22.912,8.914 C22.848,8.963 22.809,9.029 22.761,9.09 C19.433,11.569 16.425,15.367 14.165,19.858 C14.153,19.879 14.133,19.893 14.122,19.916 C14.114,19.933 14.116,19.951 14.109,19.968 C11.578,25.036 10,30.967 10,36.858 C10,52.051 20.564,60 31,60 C41.436,60 52,52.051 52,36.856 L52,36.856 Z M23.298,11.184 C23.758,12.044 24,13.001 24,14 C24,17.309 21.309,20 18,20 C17.478,20 16.97,19.927 16.476,19.797 C18.37,16.289 20.729,13.282 23.298,11.184 L23.298,11.184 Z M12,36.856 C12,31.616 13.365,26.263 15.555,21.613 C16.34,21.866 17.158,22 18,22 C22.411,22 26,18.411 26,14 C26,12.572 25.618,11.214 24.915,10.004 C26.895,8.725 28.961,8 31,8 C40.233,8 50,22.833 50,36.856 C50,50.737 40.441,58 31,58 C21.559,58 12,50.737 12,36.856 L12,36.856 Z" id="Shape" fill="#000000"></path>
        <path d="M34,35 C34,38.859 37.141,42 41,42 C44.859,42 48,38.859 48,35 C48,31.141 44.859,28 41,28 C37.141,28 34,31.141 34,35 L34,35 Z M41,30 C43.757,30 46,32.243 46,35 C46,37.757 43.757,40 41,40 C38.243,40 36,37.757 36,35 C36,32.243 38.243,30 41,30 L41,30 Z" id="Shape" fill="#000000"></path>
        <path d="M35,24 C37.757,24 40,21.757 40,19 C40,16.243 37.757,14 35,14 C32.243,14 30,16.243 30,19 C30,21.757 32.243,24 35,24 L35,24 Z M35,16 C36.654,16 38,17.346 38,19 C38,20.654 36.654,22 35,22 C33.346,22 32,20.654 32,19 C32,17.346 33.346,16 35,16 L35,16 Z" id="Shape" fill="#000000"></path>
        <path d="M38,49 C38,46.243 35.757,44 33,44 C30.243,44 28,46.243 28,49 C28,51.757 30.243,54 33,54 C35.757,54 38,51.757 38,49 L38,49 Z M30,49 C30,47.346 31.346,46 33,46 C34.654,46 36,47.346 36,49 C36,50.654 34.654,52 33,52 C31.346,52 30,50.654 30,49 L30,49 Z" id="Shape" fill="#000000"></path>
        <path d="M20,40 C17.794,40 16,41.794 16,44 C16,46.206 17.794,48 20,48 C22.206,48 24,46.206 24,44 C24,41.794 22.206,40 20,40 L20,40 Z M20,46 C18.897,46 18,45.103 18,44 C18,42.897 18.897,42 20,42 C21.103,42 22,42.897 22,44 C22,45.103 21.103,46 20,46 L20,46 Z" id="Shape" fill="#000000"></path>
        <path d="M30,32 C30,28.691 27.309,26 24,26 C20.691,26 18,28.691 18,32 C18,35.309 20.691,38 24,38 C27.309,38 30,35.309 30,32 L30,32 Z M24,36 C21.794,36 20,34.206 20,32 C20,29.794 21.794,28 24,28 C26.206,28 28,29.794 28,32 C28,34.206 26.206,36 24,36 L24,36 Z" id="Shape" fill="#000000"></path>
    </g>
</svg>