<?xml version="1.0" encoding="UTF-8" standalone="no"?>
<svg width="64px" height="64px" viewBox="0 0 64 64" version="1.1" xmlns="http://www.w3.org/2000/svg" xmlns:xlink="http://www.w3.org/1999/xlink">
    <!-- Generator: Sketch 3.7.2 (28276) - http://www.bohemiancoding.com/sketch -->
    <title>cel-hat-santa</title>
    <desc>Created with Sketch.</desc>
    <defs></defs>
    <g id="64px-Line" stroke="none" stroke-width="1" fill="none" fill-rule="evenodd">
        <g id="cel-hat-santa"></g>
        <path d="M7,60 L41,60 C42.654,60 44,58.654 44,57 L44,45 C44,43.346 42.654,42 41,42 L39.99,42 C39.868,35.216 38.546,28.51 37.445,24.041 C39.356,24.166 41.117,24.55 42.04,24.779 C42.433,28.825 45.852,32 50.001,32 C54.412,32 58.001,28.411 58.001,24 C58.001,19.589 54.412,16 50.001,16 C49.098,16 48.233,16.157 47.422,16.435 C44.847,13.913 32.457,2.645 20.711,6.983 C9.348,11.559 8.144,36.591 8.016,42.001 L7,42.001 C5.346,42.001 4,43.347 4,45.001 L4,57.001 C4,58.654 5.346,60 7,60 L7,60 Z M56,24 C56,27.309 53.309,30 50,30 C46.691,30 44,27.309 44,24 C44,20.691 46.691,18 50,18 C53.309,18 56,20.691 56,24 L56,24 Z M21.43,8.848 C31.291,5.21 42.282,14.392 45.509,17.384 C43.725,18.599 42.464,20.518 42.11,22.737 C40.925,22.459 38.985,22.083 36.923,22.012 C36.397,20.06 36.001,18.841 35.951,18.687 C35.779,18.163 35.214,17.876 34.689,18.05 C34.164,18.222 33.878,18.787 34.051,19.312 C34.089,19.429 37.778,30.786 37.991,42 L10.022,42 C10.167,36.816 11.385,12.894 21.43,8.848 L21.43,8.848 Z M6,45 C6,44.449 6.449,44 7,44 L8.997,44 L9,44 L41,44 C41.551,44 42,44.449 42,45 L42,57 C42,57.551 41.551,58 41,58 L7,58 C6.449,58 6,57.551 6,57 L6,45 L6,45 Z" id="Shape" fill="#000000"></path>
    </g>
</svg>