<?xml version="1.0" encoding="UTF-8" standalone="no"?>
<svg width="64px" height="64px" viewBox="0 0 64 64" version="1.1" xmlns="http://www.w3.org/2000/svg" xmlns:xlink="http://www.w3.org/1999/xlink">
    <!-- Generator: Sketch 3.7.2 (28276) - http://www.bohemiancoding.com/sketch -->
    <title>cel-bunting</title>
    <desc>Created with Sketch.</desc>
    <defs></defs>
    <g id="64px-Line" stroke="none" stroke-width="1" fill="none" fill-rule="evenodd">
        <g id="cel-bunting"></g>
        <path d="M5.767,6.358 C5.413,5.936 4.783,5.879 4.358,6.233 C3.935,6.587 3.878,7.217 4.232,7.641 C4.404,7.847 6.399,10.195 10,12.998 L10,25 C10,25.369 10.203,25.708 10.528,25.882 C10.675,25.961 10.838,26 11,26 C11.194,26 11.387,25.943 11.555,25.832 L21.054,19.499 C22.144,19.958 23.283,20.389 24.469,20.781 L28.039,33.275 C28.141,33.631 28.431,33.902 28.794,33.979 C28.863,33.994 28.932,34 29.001,34 C29.294,34 29.577,33.871 29.769,33.64 L38.345,23.348 C39.412,23.422 40.454,23.471 41.461,23.493 L48.169,33.555 C48.184,33.577 48.204,33.593 48.22,33.614 C48.238,33.636 48.256,33.657 48.275,33.677 C48.356,33.764 48.446,33.839 48.548,33.89 C48.55,33.891 48.551,33.893 48.554,33.894 C48.599,33.916 48.646,33.929 48.692,33.944 C48.718,33.952 48.741,33.965 48.768,33.971 C48.845,33.99 48.923,33.999 49,33.999 L49.001,33.999 L49.002,33.999 C49.013,33.999 49.024,33.995 49.036,33.994 C49.118,33.991 49.199,33.981 49.277,33.959 C49.306,33.951 49.332,33.934 49.36,33.923 C49.421,33.9 49.482,33.875 49.537,33.84 C49.543,33.836 49.55,33.835 49.555,33.831 C49.599,33.802 49.634,33.765 49.672,33.73 C49.694,33.71 49.719,33.694 49.739,33.672 C49.8,33.606 49.85,33.532 49.89,33.454 C49.891,33.451 49.894,33.45 49.895,33.447 L55.434,22.369 C56.507,22.159 57.143,21.996 57.254,21.967 C57.788,21.827 58.108,21.281 57.968,20.747 C57.828,20.212 57.278,19.892 56.748,20.033 C56.621,20.066 43.911,23.301 29.219,20.024 C14.624,16.768 5.854,6.462 5.767,6.358 L5.767,6.358 Z M12,23.131 L12,14.475 C13.958,15.849 16.267,17.258 18.905,18.528 L12,23.131 L12,23.131 Z M29.442,30.907 L26.744,21.465 C27.412,21.647 28.088,21.821 28.782,21.976 C31.239,22.524 33.63,22.894 35.918,23.136 L29.442,30.907 L29.442,30.907 Z M48.876,31.011 L43.87,23.502 C47.549,23.458 50.682,23.131 52.988,22.787 L48.876,31.011 L48.876,31.011 Z" id="Shape" fill="#000000"></path>
        <path d="M4.831,47.985 C4.987,48.012 6.302,48.227 8.552,48.339 L14.106,59.447 C14.275,59.786 14.622,60 15.001,60 C15.38,60 15.726,59.786 15.896,59.447 L21.831,47.577 C22.74,47.439 23.678,47.278 24.642,47.095 L33.258,56.669 C33.449,56.882 33.72,57 34,57 C34.075,57 34.15,56.992 34.225,56.974 C34.579,56.892 34.862,56.624 34.961,56.275 L38.732,43.076 C39.699,42.702 40.634,42.324 41.523,41.938 L50.292,50.707 C50.482,50.898 50.738,51 50.999,51 C51.108,51 51.217,50.982 51.324,50.946 C51.685,50.822 51.944,50.503 51.991,50.124 L53.89,34.927 C56.337,33.112 57.598,31.821 57.722,31.69 C58.103,31.29 58.088,30.657 57.688,30.276 C57.289,29.896 56.656,29.91 56.274,30.31 C56.199,30.388 48.646,38.176 32.706,43.043 C16.78,47.907 5.281,46.035 5.167,46.014 C4.617,45.927 4.106,46.287 4.013,46.831 C3.921,47.375 4.287,47.892 4.831,47.985 L4.831,47.985 Z M50.261,47.847 L43.469,41.055 C46.808,39.49 49.542,37.898 51.682,36.477 L50.261,47.847 L50.261,47.847 Z M33.292,44.957 C34.37,44.628 35.405,44.286 36.407,43.935 L33.534,53.989 L26.912,46.631 C28.941,46.184 31.071,45.635 33.292,44.957 L33.292,44.957 Z M11.319,48.407 C13.543,48.407 16.278,48.284 19.428,47.907 L15,56.764 L10.818,48.401 C10.988,48.402 11.143,48.407 11.319,48.407 L11.319,48.407 Z" id="Shape" fill="#000000"></path>
    </g>
</svg>