<?xml version="1.0" encoding="UTF-8" standalone="no"?>
<svg width="64px" height="64px" viewBox="0 0 64 64" version="1.1" xmlns="http://www.w3.org/2000/svg" xmlns:xlink="http://www.w3.org/1999/xlink">
    <!-- Generator: Sketch 3.7.2 (28276) - http://www.bohemiancoding.com/sketch -->
    <title>cel-party-balloon</title>
    <desc>Created with Sketch.</desc>
    <defs></defs>
    <g id="64px-Line" stroke="none" stroke-width="1" fill="none" fill-rule="evenodd">
        <g id="cel-party-balloon"></g>
        <path d="M26.973,12.368 C21.92,17.372 18.782,24.456 18.782,30.854 C18.782,33.616 19.373,36.084 20.492,38.165 C19.168,38.15 17.838,38.636 16.83,39.635 L15.381,41.07 C15.192,41.258 15.085,41.513 15.085,41.78 C15.085,42.047 15.191,42.303 15.381,42.49 L21.178,48.23 C21.373,48.423 21.628,48.52 21.882,48.52 C22.136,48.52 22.391,48.423 22.586,48.23 L24.035,46.795 C24.819,46.019 25.298,45.03 25.457,43.962 C27.232,45.918 28.7,47.95 28.7,49.662 C28.7,50.455 28.372,51.164 27.698,51.831 C25.475,54.031 21.31,53.114 17.637,52.306 C14.21,51.552 11.252,50.899 9.584,52.549 C8.533,53.59 8,54.759 8,56.023 C8,58.117 9.52,59.646 9.584,59.71 C9.779,59.902 10.032,59.999 10.285,59.999 C10.541,59.999 10.797,59.901 10.993,59.706 C11.382,59.317 11.382,58.685 10.995,58.294 C10.635,57.928 8.939,56.003 10.992,53.971 C11.881,53.089 14.589,53.684 17.207,54.261 C21.379,55.178 26.109,56.22 29.104,53.254 C30.162,52.207 30.699,50.999 30.699,49.664 C30.699,47.881 29.788,46.118 28.322,44.253 C29.798,44.662 31.376,44.873 33.021,44.873 C39.198,44.873 46.227,42.04 51.567,36.752 C55.715,32.643 58.001,27.64 58.001,22.665 C58.001,18.284 56.23,14.118 53.017,10.935 C45.891,3.876 34.938,4.481 26.973,12.368 L26.973,12.368 Z M22.626,45.374 L21.881,46.112 L17.505,41.779 L18.237,41.054 C19.446,39.856 21.417,39.856 22.626,41.054 C23.209,41.632 23.53,42.398 23.53,43.214 C23.53,44.03 23.209,44.796 22.626,45.374 L22.626,45.374 Z M50.158,35.329 C42.184,43.227 29.733,45.278 24.034,39.634 C21.906,37.527 20.781,34.49 20.781,30.854 C20.781,24.97 23.692,18.432 28.381,13.789 C32.284,9.923 36.848,7.964 41.231,7.964 C45.003,7.964 48.642,9.416 51.608,12.354 C54.441,15.159 56.001,18.82 56.001,22.663 C56,27.1 53.926,31.598 50.158,35.329 L50.158,35.329 Z" id="Shape" fill="#000000"></path>
        <path d="M29.871,15.238 C29.479,15.627 29.475,16.259 29.864,16.652 C30.06,16.85 30.317,16.948 30.575,16.948 C30.829,16.948 31.084,16.852 31.279,16.658 C36.925,11.066 43.929,10.491 48.709,15.223 C49.103,15.613 49.734,15.607 50.124,15.216 C50.513,14.823 50.509,14.191 50.117,13.802 C44.583,8.323 36.258,8.914 29.871,15.238 L29.871,15.238 Z" id="Shape" fill="#000000"></path>
    </g>
</svg>