<?xml version="1.0" encoding="UTF-8" standalone="no"?>
<svg width="64px" height="64px" viewBox="0 0 64 64" version="1.1" xmlns="http://www.w3.org/2000/svg" xmlns:xlink="http://www.w3.org/1999/xlink">
    <!-- Generator: Sketch 3.7.2 (28276) - http://www.bohemiancoding.com/sketch -->
    <title>cha-2</title>
    <desc>Created with Sketch.</desc>
    <defs></defs>
    <g id="64px-Line" stroke="none" stroke-width="1" fill="none" fill-rule="evenodd">
        <g id="cha-2"></g>
        <path d="M31,6 C16.112,6 4,18.112 4,33 C4,47.888 16.112,60 31,60 C45.888,60 58,47.888 58,33 C58,18.112 45.888,6 31,6 L31,6 Z M31,58 C17.215,58 6,46.785 6,33 C6,19.215 17.215,8 31,8 C44.785,8 56,19.215 56,33 C56,46.785 44.785,58 31,58 L31,58 Z" id="Shape" fill="#000000"></path>
        <path d="M31.504,36.364 C34.549,34.588 38,32.574 38,28 C38,24.243 35.383,22 31,22 C26.404,22 24,25.521 24,29 C24,29.552 24.447,30 25,30 C25.553,30 26,29.552 26,29 C26,26.592 27.564,24 31,24 C33.281,24 36,24.694 36,28 C36,31.426 33.449,32.914 30.496,34.636 C27.451,36.412 24,38.426 24,43 C24,43.552 24.447,44 25,44 L37,44 C37.553,44 38,43.552 38,43 C38,42.448 37.553,42 37,42 L26.079,42 C26.53,39.265 28.855,37.909 31.504,36.364 L31.504,36.364 Z" id="Shape" fill="#000000"></path>
    </g>
</svg>