<?xml version="1.0" encoding="UTF-8" standalone="no"?>
<svg width="64px" height="64px" viewBox="0 0 64 64" version="1.1" xmlns="http://www.w3.org/2000/svg" xmlns:xlink="http://www.w3.org/1999/xlink">
    <!-- Generator: Sketch 3.7.2 (28276) - http://www.bohemiancoding.com/sketch -->
    <title>cha-equals</title>
    <desc>Created with Sketch.</desc>
    <defs></defs>
    <g id="64px-Line" stroke="none" stroke-width="1" fill="none" fill-rule="evenodd">
        <g id="cha-equals"></g>
        <path d="M31,6 C16.112,6 4,18.112 4,33 C4,47.888 16.112,60 31,60 C45.888,60 58,47.888 58,33 C58,18.112 45.888,6 31,6 L31,6 Z M31,58 C17.215,58 6,46.785 6,33 C6,19.215 17.215,8 31,8 C44.785,8 56,19.215 56,33 C56,46.785 44.785,58 31,58 L31,58 Z" id="Shape" fill="#000000"></path>
        <path d="M43,26 L19,26 C18.448,26 18,26.448 18,27 C18,27.552 18.448,28 19,28 L43,28 C43.552,28 44,27.552 44,27 C44,26.448 43.552,26 43,26 L43,26 Z" id="Shape" fill="#000000"></path>
        <path d="M43,38 L19,38 C18.448,38 18,38.448 18,39 C18,39.552 18.448,40 19,40 L43,40 C43.552,40 44,39.552 44,39 C44,38.448 43.552,38 43,38 L43,38 Z" id="Shape" fill="#000000"></path>
    </g>
</svg>