<?xml version="1.0" encoding="UTF-8" standalone="no"?>
<svg width="64px" height="64px" viewBox="0 0 64 64" version="1.1" xmlns="http://www.w3.org/2000/svg" xmlns:xlink="http://www.w3.org/1999/xlink">
    <!-- Generator: Sketch 3.7.2 (28276) - http://www.bohemiancoding.com/sketch -->
    <title>cha-square-root</title>
    <desc>Created with Sketch.</desc>
    <defs></defs>
    <g id="64px-Line" stroke="none" stroke-width="1" fill="none" fill-rule="evenodd">
        <g id="cha-square-root"></g>
        <path d="M31,6 C16.112,6 4,18.112 4,33 C4,47.888 16.112,60 31,60 C45.888,60 58,47.888 58,33 C58,18.112 45.888,6 31,6 L31,6 Z M31,58 C17.215,58 6,46.785 6,33 C6,19.215 17.215,8 31,8 C44.785,8 56,19.215 56,33 C56,46.785 44.785,58 31,58 L31,58 Z" id="Shape" fill="#000000"></path>
        <path d="M37.26,18.034 C36.729,17.891 36.178,18.207 36.034,18.74 L29.832,41.777 L25.934,31.641 C25.912,31.585 25.871,31.546 25.842,31.496 C25.806,31.436 25.778,31.373 25.732,31.323 C25.695,31.283 25.648,31.259 25.606,31.226 C25.546,31.179 25.49,31.129 25.422,31.097 C25.377,31.076 25.328,31.072 25.281,31.058 C25.206,31.036 25.133,31.009 25.053,31.006 C24.993,31.003 24.933,31.021 24.871,31.029 C24.809,31.037 24.747,31.031 24.685,31.052 L21.685,32.052 C21.162,32.227 20.878,32.793 21.053,33.317 C21.191,33.735 21.581,34 22,34 C22.104,34 22.211,33.983 22.316,33.948 L24.409,33.25 L29.066,45.358 C29.078,45.388 29.099,45.411 29.113,45.44 C29.131,45.477 29.151,45.511 29.174,45.545 C29.221,45.616 29.276,45.678 29.338,45.734 C29.363,45.756 29.384,45.781 29.411,45.801 C29.507,45.872 29.613,45.926 29.727,45.958 C29.732,45.959 29.735,45.963 29.74,45.965 C29.824,45.988 29.909,45.998 29.993,45.999 C29.995,46 29.998,46 30,46 L30,46 L30.001,46 C30.119,46 30.232,45.976 30.34,45.937 C30.346,45.935 30.353,45.936 30.359,45.933 C30.383,45.924 30.398,45.904 30.421,45.894 C30.504,45.855 30.581,45.808 30.651,45.747 C30.684,45.718 30.712,45.686 30.741,45.653 C30.791,45.596 30.834,45.536 30.87,45.468 C30.893,45.426 30.912,45.385 30.929,45.339 C30.939,45.311 30.958,45.288 30.966,45.259 L37.966,19.259 C38.109,18.727 37.793,18.178 37.26,18.034 L37.26,18.034 Z" id="Shape" fill="#000000"></path>
    </g>
</svg>