<?xml version="1.0" encoding="UTF-8" standalone="no"?>
<svg width="64px" height="64px" viewBox="0 0 64 64" version="1.1" xmlns="http://www.w3.org/2000/svg" xmlns:xlink="http://www.w3.org/1999/xlink">
    <!-- Generator: Sketch 3.7.2 (28276) - http://www.bohemiancoding.com/sketch -->
    <title>cha-curly-brackets</title>
    <desc>Created with Sketch.</desc>
    <defs></defs>
    <g id="64px-Line" stroke="none" stroke-width="1" fill="none" fill-rule="evenodd">
        <g id="cha-curly-brackets"></g>
        <path d="M31,6 C16.112,6 4,18.112 4,33 C4,47.888 16.112,60 31,60 C45.888,60 58,47.888 58,33 C58,18.112 45.888,6 31,6 L31,6 Z M31,58 C17.215,58 6,46.785 6,33 C6,19.215 17.215,8 31,8 C44.785,8 56,19.215 56,33 C56,46.785 44.785,58 31,58 L31,58 Z" id="Shape" fill="#000000"></path>
        <path d="M24,24 C24,22.897 24.897,22 26,22 L27,22 C27.553,22 28,21.552 28,21 C28,20.448 27.553,20 27,20 L26,20 C23.794,20 22,21.794 22,24 L22,30 C22,31.103 21.103,32 20,32 C19.447,32 19,32.448 19,33 C19,33.552 19.447,34 20,34 C21.103,34 22,34.897 22,36 L22,42 C22,44.206 23.794,46 26,46 L27,46 C27.553,46 28,45.552 28,45 C28,44.448 27.553,44 27,44 L26,44 C24.897,44 24,43.103 24,42 L24,36 C24,34.807 23.475,33.733 22.643,33 C23.475,32.267 24,31.193 24,30 L24,24 L24,24 Z" id="Shape" fill="#000000"></path>
        <path d="M42,32 C40.897,32 40,31.103 40,30 L40,24 C40,21.794 38.206,20 36,20 L35,20 C34.447,20 34,20.448 34,21 C34,21.552 34.447,22 35,22 L36,22 C37.103,22 38,22.897 38,24 L38,30 C38,31.193 38.525,32.267 39.357,33 C38.525,33.733 38,34.807 38,36 L38,42 C38,43.103 37.103,44 36,44 L35,44 C34.447,44 34,44.448 34,45 C34,45.552 34.447,46 35,46 L36,46 C38.206,46 40,44.206 40,42 L40,36 C40,34.897 40.897,34 42,34 C42.553,34 43,33.552 43,33 C43,32.448 42.553,32 42,32 L42,32 Z" id="Shape" fill="#000000"></path>
    </g>
</svg>