<?xml version="1.0" encoding="UTF-8" standalone="no"?>
<svg width="64px" height="64px" viewBox="0 0 64 64" version="1.1" xmlns="http://www.w3.org/2000/svg" xmlns:xlink="http://www.w3.org/1999/xlink">
    <!-- Generator: Sketch 3.7.2 (28276) - http://www.bohemiancoding.com/sketch -->
    <title>cha-3</title>
    <desc>Created with Sketch.</desc>
    <defs></defs>
    <g id="64px-Line" stroke="none" stroke-width="1" fill="none" fill-rule="evenodd">
        <g id="cha-3"></g>
        <path d="M31,6 C16.112,6 4,18.112 4,33 C4,47.888 16.112,60 31,60 C45.888,60 58,47.888 58,33 C58,18.112 45.888,6 31,6 L31,6 Z M31,58 C17.215,58 6,46.785 6,33 C6,19.215 17.215,8 31,8 C44.785,8 56,19.215 56,33 C56,46.785 44.785,58 31,58 L31,58 Z" id="Shape" fill="#000000"></path>
        <path d="M35.133,31.937 C36.87,30.935 38,29.319 38,27.5 C38,24.467 34.859,22 31,22 C27.423,22 24.418,24.087 24.011,26.854 C23.931,27.4 24.308,27.909 24.855,27.989 C25.402,28.072 25.909,27.691 25.99,27.145 C26.25,25.381 28.451,23.999 31.001,23.999 C33.711,23.999 36.001,25.602 36.001,27.499 C36.001,29.396 33.711,30.999 31.001,30.999 C30.448,30.999 30.001,31.447 30.001,31.999 C30.001,32.551 30.448,32.999 31.001,32.999 C34.31,32.999 37.001,35.018 37.001,37.499 C37.001,39.98 34.31,41.999 31.001,41.999 C27.692,41.999 25.001,39.98 25.001,37.499 C25.001,36.947 24.554,36.499 24.001,36.499 C23.448,36.499 23.001,36.947 23.001,37.499 C23.001,41.083 26.59,43.999 31.001,43.999 C35.412,43.999 39.001,41.083 39.001,37.499 C39,35.144 37.449,33.077 35.133,31.937 L35.133,31.937 Z" id="Shape" fill="#000000"></path>
    </g>
</svg>