<?xml version="1.0" encoding="UTF-8" standalone="no"?>
<svg width="64px" height="64px" viewBox="0 0 64 64" version="1.1" xmlns="http://www.w3.org/2000/svg" xmlns:xlink="http://www.w3.org/1999/xlink">
    <!-- Generator: Sketch 3.7.2 (28276) - http://www.bohemiancoding.com/sketch -->
    <title>spe-talk-female</title>
    <desc>Created with Sketch.</desc>
    <defs></defs>
    <g id="64px-Line" stroke="none" stroke-width="1" fill="none" fill-rule="evenodd">
        <g id="spe-talk-female"></g>
        <path d="M54.961,44.804 C53.109,35.543 47.499,33.229 37.111,32.006 C36.239,31.911 35.386,32.404 35.042,33.213 C32.781,38.55 31.341,39.923 31.024,40.002 C30.66,39.922 29.221,38.547 26.957,33.213 C26.616,32.411 25.778,31.928 24.905,32.008 C24.9,32.008 24.895,32.007 24.89,32.007 C24.888,32.007 24.885,32.006 24.882,32.007 C15.702,33.087 9.048,34.638 7.018,44.806 L6.017,49.859 C6.004,49.947 5.999,50.039 5.999,50.125 C5.999,52.863 9.299,54.519 15.81,55.046 C18.129,57.475 25.234,58.001 31.023,58.001 L31.059,58.001 C36.768,58.001 43.869,57.475 46.188,55.046 C52.699,54.519 55.999,52.863 55.999,50.125 C55.999,50.039 55.994,49.947 55.971,49.803 L54.961,44.804 L54.961,44.804 Z M36.51,34.846 L38.553,41.654 L33.36,40.5 C34.188,39.478 35.23,37.743 36.51,34.846 L36.51,34.846 Z M28.643,40.499 L23.448,41.654 L25.491,34.845 C26.771,37.742 27.814,39.478 28.643,40.499 L28.643,40.499 Z M54,50.124 C54,51.555 50.71,52.716 45.618,53.083 C45.313,53.104 45.035,53.265 44.864,53.517 C43.835,55.026 38.418,56 30.974,56 L30.958,56 L30.942,56 C23.584,56 18.166,55.025 17.137,53.517 C16.965,53.265 16.687,53.105 16.383,53.083 C11.291,52.716 8.001,51.555 7.989,50.194 L8.981,45.195 C10.523,37.476 14.795,35.371 23.6,34.187 L21.042,42.713 C20.94,43.053 21.026,43.421 21.268,43.681 C21.51,43.942 21.874,44.053 22.217,43.977 L31,42.025 L39.783,43.977 C39.855,43.993 39.928,44 40,44 C40.274,44 40.541,43.887 40.732,43.681 C40.974,43.421 41.059,43.053 40.958,42.713 L38.4,34.186 C47.19,35.37 51.456,37.476 53.001,45.198 L54.001,50.12 L55.001,50.124 L54,50.124 L54,50.124 Z" id="Shape" fill="#000000"></path>
        <path d="M46.829,29.242 C47.024,29.437 47.28,29.535 47.536,29.535 C47.792,29.535 48.048,29.437 48.243,29.242 C49.376,28.109 50,26.602 50,25 C50,23.398 49.376,21.891 48.243,20.758 C47.852,20.367 47.22,20.367 46.829,20.758 C46.438,21.149 46.438,21.781 46.829,22.172 C47.584,22.928 48,23.932 48,25 C48,26.068 47.584,27.072 46.829,27.828 C46.438,28.219 46.438,28.852 46.829,29.242 L46.829,29.242 Z" id="Shape" fill="#000000"></path>
        <path d="M49.657,30.657 C49.266,31.048 49.266,31.68 49.657,32.071 C49.852,32.266 50.108,32.364 50.364,32.364 C50.62,32.364 50.876,32.266 51.071,32.071 C54.97,28.172 54.97,21.828 51.071,17.928 C50.68,17.537 50.048,17.537 49.657,17.928 C49.266,18.319 49.266,18.951 49.657,19.342 C52.776,22.462 52.776,27.538 49.657,30.657 L49.657,30.657 Z" id="Shape" fill="#000000"></path>
        <path d="M52.778,15.808 C52.387,16.199 52.387,16.831 52.778,17.222 C57.067,21.511 57.067,28.49 52.778,32.779 C52.387,33.17 52.387,33.802 52.778,34.193 C52.973,34.388 53.229,34.486 53.485,34.486 C53.741,34.486 53.997,34.388 54.192,34.193 C59.261,29.125 59.261,20.877 54.192,15.808 C53.802,15.417 53.169,15.417 52.778,15.808 L52.778,15.808 Z" id="Shape" fill="#000000"></path>
        <path d="M31,32 C38.402,32 42,27.748 42,19 C42,15.784 42,6 31,6 C26.052,6 22.762,8.017 21.154,12 L19,12 L15,12 C12.243,12 10,14.243 10,17 L10,25 C10,25.552 9.551,26 9,26 C8.448,26 8,26.447 8,27 C8,27.553 8.448,28 9,28 L13,28 C15.757,28 18,25.757 18,23 L18,15 C18,14.448 18.449,14 19,14 L20.532,14 C20.185,15.47 20,17.129 20,19 C20,27.748 23.598,32 31,32 L31,32 Z M16,15 L16,23 C16,24.654 14.654,26 13,26 L11.829,26 C11.94,25.688 12,25.351 12,25 L12,17 C12,15.346 13.346,14 15,14 L16.171,14 C16.061,14.312 16,14.649 16,15 L16,15 Z M31,30 C29.141,30 27.597,29.69 26.335,29.063 C27.896,27.946 30,25.595 30,21 C30,20.447 29.552,20 29,20 C28.592,20 28,19.221 28,18 C28,16.779 28.592,16 29,16 L39.829,16 C39.939,16.917 40,17.909 40,19 C40,26.607 37.224,30 31,30 L31,30 Z M31,8 C35.72,8 38.414,9.843 39.472,14 L29,14 C27.318,14 26,15.757 26,18 C26,19.761 26.812,21.223 27.976,21.77 C27.725,25.655 25.6,27.26 24.592,27.809 C22.832,26.033 22,23.147 22,19 C22,11.495 24.86,8 31,8 L31,8 Z" id="Shape" fill="#000000"></path>
    </g>
</svg>