<?xml version="1.0" encoding="UTF-8" standalone="no"?>
<svg width="64px" height="64px" viewBox="0 0 64 64" version="1.1" xmlns="http://www.w3.org/2000/svg" xmlns:xlink="http://www.w3.org/1999/xlink">
    <!-- Generator: Sketch 3.7.2 (28276) - http://www.bohemiancoding.com/sketch -->
    <title>spe-rect-search</title>
    <desc>Created with Sketch.</desc>
    <defs></defs>
    <g id="64px-Line" stroke="none" stroke-width="1" fill="none" fill-rule="evenodd">
        <g id="spe-rect-search"></g>
        <path d="M58,10 C58,7.794 56.206,6 54,6 L8,6 C5.794,6 4,7.794 4,10 L4,44 C4,46.206 5.794,48 8,48 L15,48 C15.552,48 16,48.449 16,49 L16,57 C16,57.396 16.233,57.754 16.596,57.915 C16.726,57.973 16.864,58 17,58 C17.244,58 17.485,57.911 17.673,57.74 L27.814,48.521 C28.184,48.186 28.663,48 29.161,48 L54,48 C56.206,48 58,46.206 58,44 L58,10 L58,10 Z M56,44 C56,45.103 55.103,46 54,46 L29.16,46 C28.163,46 27.208,46.369 26.469,47.041 L18,54.739 L18,49 C18,47.346 16.654,46 15,46 L8,46 C6.897,46 6,45.103 6,44 L6,10 C6,8.897 6.897,8 8,8 L54,8 C55.103,8 56,8.897 56,10 L56,44 L56,44 Z" id="Shape" fill="#000000"></path>
        <path d="M34,14 C28.486,14 24,18.486 24,24 C24,26.398 24.85,28.6 26.262,30.324 L18.293,38.293 C17.902,38.684 17.902,39.316 18.293,39.707 C18.488,39.902 18.744,40 19,40 C19.256,40 19.512,39.902 19.707,39.707 L27.676,31.738 C29.4,33.15 31.603,34 34,34 C39.514,34 44,29.514 44,24 C44,18.486 39.514,14 34,14 L34,14 Z M34,32 C29.589,32 26,28.411 26,24 C26,19.589 29.589,16 34,16 C38.411,16 42,19.589 42,24 C42,28.411 38.411,32 34,32 L34,32 Z" id="Shape" fill="#000000"></path>
    </g>
</svg>