<?xml version="1.0" encoding="UTF-8" standalone="no"?>
<svg width="64px" height="64px" viewBox="0 0 64 64" version="1.1" xmlns="http://www.w3.org/2000/svg" xmlns:xlink="http://www.w3.org/1999/xlink">
    <!-- Generator: Sketch 3.7.2 (28276) - http://www.bohemiancoding.com/sketch -->
    <title>cha-g</title>
    <desc>Created with Sketch.</desc>
    <defs></defs>
    <g id="64px-Line" stroke="none" stroke-width="1" fill="none" fill-rule="evenodd">
        <g id="cha-g"></g>
        <path d="M31,6 C16.112,6 4,18.112 4,33 C4,47.888 16.112,60 31,60 C45.888,60 58,47.888 58,33 C58,18.112 45.888,6 31,6 L31,6 Z M31,58 C17.215,58 6,46.785 6,33 C6,19.215 17.215,8 31,8 C44.785,8 56,19.215 56,33 C56,46.785 44.785,58 31,58 L31,58 Z" id="Shape" fill="#000000"></path>
        <path d="M41.084,32.017 C41.067,32.015 41.053,32.004 41.036,32.003 C41.031,32.003 41.027,32.005 41.023,32.004 C41.015,32.004 41.008,32 41,32 L33,32 C32.448,32 32,32.447 32,33 C32,33.553 32.448,34 33,34 L39.811,34 C38.976,38.629 35.348,42 31,42 C26.038,42 22,37.514 22,32 C22,26.486 26.038,22 31,22 C34.375,22 37.437,24.077 38.993,27.422 C39.226,27.923 39.821,28.139 40.322,27.906 C40.822,27.674 41.04,27.079 40.807,26.578 C38.919,22.521 35.161,20 31,20 C24.935,20 20,25.383 20,32 C20,38.617 24.935,44 31,44 C34.727,44 38.011,42.009 40,38.911 L40,43 C40,43.553 40.448,44 41,44 C41.552,44 42,43.553 42,43 L42,33 C42,32.477 41.595,32.062 41.084,32.017 L41.084,32.017 Z" id="Shape" fill="#000000"></path>
    </g>
</svg>