<?xml version="1.0" encoding="UTF-8" standalone="no"?>
<svg width="64px" height="64px" viewBox="0 0 64 64" version="1.1" xmlns="http://www.w3.org/2000/svg" xmlns:xlink="http://www.w3.org/1999/xlink">
    <!-- Generator: Sketch 3.7.2 (28276) - http://www.bohemiancoding.com/sketch -->
    <title>cha-0</title>
    <desc>Created with Sketch.</desc>
    <defs></defs>
    <g id="64px-Line" stroke="none" stroke-width="1" fill="none" fill-rule="evenodd">
        <g id="cha-0"></g>
        <path d="M31,6 C16.112,6 4,18.112 4,33 C4,47.888 16.112,60 31,60 C45.888,60 58,47.888 58,33 C58,18.112 45.888,6 31,6 L31,6 Z M31,58 C17.215,58 6,46.785 6,33 C6,19.215 17.215,8 31,8 C44.785,8 56,19.215 56,33 C56,46.785 44.785,58 31,58 L31,58 Z" id="Shape" fill="#000000"></path>
        <path d="M31,20 C26.038,20 22,25.383 22,32 C22,38.617 26.038,44 31,44 C35.962,44 40,38.617 40,32 C40,25.383 35.962,20 31,20 L31,20 Z M31,42 C27.14,42 24,37.514 24,32 C24,26.486 27.14,22 31,22 C34.86,22 38,26.486 38,32 C38,37.514 34.86,42 31,42 L31,42 Z" id="Shape" fill="#000000"></path>
    </g>
</svg>