<?xml version="1.0" encoding="UTF-8" standalone="no"?>
<svg width="64px" height="64px" viewBox="0 0 64 64" version="1.1" xmlns="http://www.w3.org/2000/svg" xmlns:xlink="http://www.w3.org/1999/xlink">
    <!-- Generator: Sketch 3.7.2 (28276) - http://www.bohemiancoding.com/sketch -->
    <title>spe-rect-person</title>
    <desc>Created with Sketch.</desc>
    <defs></defs>
    <g id="64px-Line" stroke="none" stroke-width="1" fill="none" fill-rule="evenodd">
        <g id="spe-rect-person"></g>
        <path d="M56,6 L8,6 C5.794,6 4,7.794 4,10 L4,44 C4,46.206 5.794,48 8,48 L15,48 C15.552,48 16,48.449 16,49 L16,57 C16,57.396 16.233,57.754 16.596,57.915 C16.726,57.973 16.864,58 17,58 C17.244,58 17.485,57.911 17.673,57.74 L27.814,48.521 C28.184,48.186 28.663,48 29.161,48 L56,48 C58.206,48 60,46.206 60,44 L60,10 C60,7.794 58.206,6 56,6 L56,6 Z M58,44 C58,45.103 57.103,46 56,46 L29.16,46 C28.163,46 27.208,46.369 26.469,47.041 L18,54.739 L18,49 C18,47.346 16.654,46 15,46 L8,46 C6.897,46 6,45.103 6,44 L6,10 C6,8.897 6.897,8 8,8 L56,8 C57.103,8 58,8.897 58,10 L58,44 L58,44 Z" id="Shape" fill="#000000"></path>
        <path d="M36.223,26.782 C38.486,25.367 40,22.86 40,20 C40,15.589 36.411,12 32,12 C27.589,12 24,15.589 24,20 C24,22.86 25.514,25.367 27.777,26.782 C23.24,28.496 20,32.871 20,38 L20,39 C20,39.552 20.447,40 21,40 L43,40 C43.553,40 44,39.552 44,39 L44,38 C44,32.871 40.76,28.496 36.223,26.782 L36.223,26.782 Z M26,20 C26,16.691 28.691,14 32,14 C35.309,14 38,16.691 38,20 C38,23.309 35.309,26 32,26 C28.691,26 26,23.309 26,20 L26,20 Z M22,38 C22,32.486 26.486,28 32,28 C37.514,28 42,32.486 42,38 L22,38 L22,38 Z" id="Shape" fill="#000000"></path>
    </g>
</svg>