<?xml version="1.0" encoding="UTF-8" standalone="no"?>
<svg width="64px" height="64px" viewBox="0 0 64 64" version="1.1" xmlns="http://www.w3.org/2000/svg" xmlns:xlink="http://www.w3.org/1999/xlink">
    <!-- Generator: Sketch 3.7.2 (28276) - http://www.bohemiancoding.com/sketch -->
    <title>spe-bubble-male</title>
    <desc>Created with Sketch.</desc>
    <defs></defs>
    <g id="64px-Line" stroke="none" stroke-width="1" fill="none" fill-rule="evenodd">
        <g id="spe-bubble-male"></g>
        <path d="M28.622,22.441 C29.134,22.233 29.381,21.65 29.173,21.138 C28.965,20.625 28.379,20.38 27.87,20.587 C26.013,21.341 23.766,21.79 21.024,21.952 C21.262,16.975 23.272,14.533 27.45,14.078 C27.999,14.018 28.395,13.524 28.336,12.975 C28.277,12.426 27.788,12.027 27.233,12.089 C21.901,12.67 19.207,15.997 19.011,22.251 C18,22.884 18,24.58 18,26 C18,26.986 18,29.444 20.196,29.92 C21.554,34.995 24.807,38 29,38 C32.483,38 35.316,35.962 36.978,32.261 C37.205,31.757 36.979,31.165 36.475,30.94 C35.972,30.715 35.379,30.939 35.154,31.443 C34.22,33.521 32.395,36 29,36 C24.128,36 22.465,30.951 21.976,28.78 C21.873,28.324 21.468,28 21,28 C20.397,28 20,28 20,26 C20,25.46 20,24.392 20.127,23.996 C23.551,23.881 26.331,23.372 28.622,22.441 L28.622,22.441 Z" id="Shape" fill="#000000"></path>
        <path d="M35.438,38.338 C34.562,38.247 33.712,38.736 33.369,39.545 C31.834,43.168 29.689,45.915 29.01,46 C28.315,45.913 26.17,43.164 24.634,39.545 C24.292,38.737 23.446,38.248 22.56,38.339 C12.539,39.519 5.942,42.182 4.021,51.805 C4.008,51.869 4.001,51.935 4.001,52 C4.001,54.738 7.302,56.394 13.813,56.921 C16.556,59.771 26.05,60 29,60 C31.95,60 41.444,59.771 44.188,56.921 C50.7,56.394 54,54.738 54,52 C54,51.935 53.993,51.868 53.98,51.804 C52.057,42.182 45.461,39.518 35.438,38.338 L35.438,38.338 Z M43.617,54.959 C43.313,54.98 43.035,55.141 42.863,55.393 C41.696,57.104 35.006,58 29,58 C22.994,58 16.304,57.104 15.137,55.393 C14.965,55.141 14.687,54.981 14.383,54.959 C9.388,54.6 6.127,53.476 6.004,52.082 C7.724,43.702 13.468,41.423 22.792,40.326 C22.926,40.64 26.083,48 29,48 C31.925,48 35.077,40.639 35.209,40.325 C44.53,41.422 50.273,43.703 51.996,52.082 C51.873,53.476 48.612,54.6 43.617,54.959 L43.617,54.959 Z" id="Shape" fill="#000000"></path>
        <path d="M45,4 C36.729,4 30,9.383 30,16 C30,18.696 31.13,21.309 33.194,23.413 L32.023,28.787 C31.938,29.174 32.089,29.573 32.41,29.808 C32.585,29.936 32.792,30 33,30 C33.172,30 33.344,29.956 33.499,29.866 L38.671,26.887 C40.656,27.626 42.782,28 45,28 C53.271,28 60,22.617 60,16 C60,9.383 53.271,4 45,4 L45,4 Z M45,26 C42.897,26 40.811,25.604 38.964,24.854 C38.679,24.739 38.356,24.76 38.089,24.915 L34.458,27.007 L35.262,23.324 C35.317,23.099 35.294,22.856 35.185,22.637 C35.124,22.516 35.041,22.411 34.944,22.327 C33.045,20.545 32,18.299 32,16 C32,10.486 37.832,6 45,6 C52.168,6 58,10.486 58,16 C58,21.514 52.168,26 45,26 L45,26 Z" id="Shape" fill="#000000"></path>
    </g>
</svg>