<?xml version="1.0" encoding="UTF-8" standalone="no"?>
<svg width="64px" height="64px" viewBox="0 0 64 64" version="1.1" xmlns="http://www.w3.org/2000/svg" xmlns:xlink="http://www.w3.org/1999/xlink">
    <!-- Generator: Sketch 3.7.2 (28276) - http://www.bohemiancoding.com/sketch -->
    <title>cha-f</title>
    <desc>Created with Sketch.</desc>
    <defs></defs>
    <g id="64px-Line" stroke="none" stroke-width="1" fill="none" fill-rule="evenodd">
        <g id="cha-f"></g>
        <path d="M31,6 C16.112,6 4,18.112 4,33 C4,47.888 16.112,60 31,60 C45.888,60 58,47.888 58,33 C58,18.112 45.888,6 31,6 L31,6 Z M31,58 C17.215,58 6,46.785 6,33 C6,19.215 17.215,8 31,8 C44.785,8 56,19.215 56,33 C56,46.785 44.785,58 31,58 L31,58 Z" id="Shape" fill="#000000"></path>
        <path d="M39,22 L25,22 C24.447,22 24,22.447 24,23 L24,43 C24,43.553 24.447,44 25,44 C25.553,44 26,43.553 26,43 L26,34 L37,34 C37.553,34 38,33.553 38,33 C38,32.447 37.553,32 37,32 L26,32 L26,24 L39,24 C39.553,24 40,23.553 40,23 C40,22.447 39.553,22 39,22 L39,22 Z" id="Shape" fill="#000000"></path>
    </g>
</svg>