<?xml version="1.0" encoding="UTF-8" standalone="no"?>
<svg width="64px" height="64px" viewBox="0 0 64 64" version="1.1" xmlns="http://www.w3.org/2000/svg" xmlns:xlink="http://www.w3.org/1999/xlink">
    <!-- Generator: Sketch 3.7.2 (28276) - http://www.bohemiancoding.com/sketch -->
    <title>spe-quote</title>
    <desc>Created with Sketch.</desc>
    <defs></defs>
    <g id="64px-Line" stroke="none" stroke-width="1" fill="none" fill-rule="evenodd">
        <g id="spe-quote"></g>
        <path d="M17.464,13.886 C17.952,13.63 18.141,13.026 17.885,12.537 C17.63,12.047 17.024,11.859 16.538,12.113 C16.026,12.38 4,18.841 4,36 C4,43.72 9.832,50 17,50 C24.168,50 30,43.72 30,36 C30,28.28 24.168,22 17,22 C13.264,22 9.901,23.716 7.527,26.443 C10.562,17.63 17.104,14.074 17.464,13.886 L17.464,13.886 Z M17,24 C23.065,24 28,29.383 28,36 C28,42.617 23.065,48 17,48 C10.935,48 6,42.617 6,36 C6,29.383 10.935,24 17,24 L17,24 Z" id="Shape" fill="#000000"></path>
        <path d="M47,22 C43.264,22 39.901,23.716 37.527,26.443 C40.563,17.63 47.105,14.075 47.464,13.886 C47.952,13.63 48.141,13.026 47.885,12.537 C47.629,12.047 47.026,11.859 46.538,12.113 C46.026,12.38 34,18.841 34,36 C34,43.72 39.832,50 47,50 C54.168,50 60,43.72 60,36 C60,28.28 54.168,22 47,22 L47,22 Z M47,48 C40.935,48 36,42.617 36,36 C36,29.383 40.935,24 47,24 C53.065,24 58,29.383 58,36 C58,42.617 53.065,48 47,48 L47,48 Z" id="Shape" fill="#000000"></path>
    </g>
</svg>