<?xml version="1.0" encoding="UTF-8" standalone="no"?>
<svg width="64px" height="64px" viewBox="0 0 64 64" version="1.1" xmlns="http://www.w3.org/2000/svg" xmlns:xlink="http://www.w3.org/1999/xlink">
    <!-- Generator: Sketch 3.7.2 (28276) - http://www.bohemiancoding.com/sketch -->
    <title>cha-percentage</title>
    <desc>Created with Sketch.</desc>
    <defs></defs>
    <g id="64px-Line" stroke="none" stroke-width="1" fill="none" fill-rule="evenodd">
        <g id="cha-percentage"></g>
        <path d="M31,60 C45.888,60 58,47.888 58,33 C58,18.112 45.888,6 31,6 C16.112,6 4,18.112 4,33 C4,47.888 16.112,60 31,60 L31,60 Z M31,8 C44.785,8 56,19.215 56,33 C56,46.785 44.785,58 31,58 C17.215,58 6,46.785 6,33 C6,19.215 17.215,8 31,8 L31,8 Z" id="Shape" fill="#000000"></path>
        <path d="M21,44 C21.256,44 21.512,43.902 21.707,43.707 L41.707,23.707 C42.098,23.316 42.098,22.684 41.707,22.293 C41.316,21.902 40.684,21.902 40.293,22.293 L20.293,42.293 C19.902,42.684 19.902,43.316 20.293,43.707 C20.488,43.902 20.744,44 21,44 L21,44 Z" id="Shape" fill="#000000"></path>
        <path d="M24,30 C26.206,30 28,28.206 28,26 C28,23.794 26.206,22 24,22 C21.794,22 20,23.794 20,26 C20,28.206 21.794,30 24,30 L24,30 Z M24,24 C25.103,24 26,24.897 26,26 C26,27.103 25.103,28 24,28 C22.897,28 22,27.103 22,26 C22,24.897 22.897,24 24,24 L24,24 Z" id="Shape" fill="#000000"></path>
        <path d="M38,36 C35.794,36 34,37.794 34,40 C34,42.206 35.794,44 38,44 C40.206,44 42,42.206 42,40 C42,37.794 40.206,36 38,36 L38,36 Z M38,42 C36.897,42 36,41.103 36,40 C36,38.897 36.897,38 38,38 C39.103,38 40,38.897 40,40 C40,41.103 39.103,42 38,42 L38,42 Z" id="Shape" fill="#000000"></path>
    </g>
</svg>