<?xml version="1.0" encoding="UTF-8" standalone="no"?>
<svg width="64px" height="64px" viewBox="0 0 64 64" version="1.1" xmlns="http://www.w3.org/2000/svg" xmlns:xlink="http://www.w3.org/1999/xlink">
    <!-- Generator: Sketch 3.7.2 (28276) - http://www.bohemiancoding.com/sketch -->
    <title>cha-b</title>
    <desc>Created with Sketch.</desc>
    <defs></defs>
    <g id="64px-Line" stroke="none" stroke-width="1" fill="none" fill-rule="evenodd">
        <g id="cha-b"></g>
        <path d="M31,6 C16.112,6 4,18.112 4,33 C4,47.888 16.112,60 31,60 C45.888,60 58,47.888 58,33 C58,18.112 45.888,6 31,6 L31,6 Z M31,58 C17.215,58 6,46.785 6,33 C6,19.215 17.215,8 31,8 C44.785,8 56,19.215 56,33 C56,46.785 44.785,58 31,58 L31,58 Z" id="Shape" fill="#000000"></path>
        <path d="M36.554,32.832 C38.036,31.738 39,29.979 39,28 C39,24.691 36.309,22 33,22 L23,22 C22.447,22 22,22.447 22,23 L22,43 C22,43.553 22.447,44 23,44 L33,44 C36.859,44 40,41.309 40,38 C40,35.803 38.614,33.877 36.554,32.832 L36.554,32.832 Z M33,24 C35.206,24 37,25.794 37,28 C37,30.206 35.206,32 33,32 L24,32 L24,24 L33,24 L33,24 Z M33,42 L24,42 L24,34 L33,34 C35.757,34 38,35.794 38,38 C38,40.206 35.757,42 33,42 L33,42 Z" id="Shape" fill="#000000"></path>
    </g>
</svg>