<?xml version="1.0" encoding="UTF-8" standalone="no"?>
<svg width="64px" height="64px" viewBox="0 0 64 64" version="1.1" xmlns="http://www.w3.org/2000/svg" xmlns:xlink="http://www.w3.org/1999/xlink">
    <!-- Generator: Sketch 3.7.2 (28276) - http://www.bohemiancoding.com/sketch -->
    <title>spe-cloud</title>
    <desc>Created with Sketch.</desc>
    <defs></defs>
    <g id="64px-Line" stroke="none" stroke-width="1" fill="none" fill-rule="evenodd">
        <g id="spe-cloud"></g>
        <path d="M53.698,25.32 C53.898,24.567 54,23.79 54,23 C54,18.038 49.962,14 45,14 C43.772,14 42.566,14.249 41.452,14.727 C40.077,10.762 36.289,8 32,8 C27.711,8 23.923,10.762 22.548,14.727 C21.433,14.249 20.227,14 19,14 C14.203,14 10.271,17.772 10.013,22.506 C6.437,23.753 4,27.142 4,31 C4,35.642 7.532,39.474 12.05,39.95 C12.491,44.139 15.818,47.48 20,47.945 L20,57 C20,57.391 20.228,57.746 20.582,57.909 C20.716,57.97 20.858,58 21,58 C21.234,58 21.466,57.917 21.651,57.759 L33.184,47.87 C34.806,49.25 36.838,50 39,50 C43.646,50 47.481,46.461 47.952,41.939 C48.299,41.979 48.649,42 49,42 C53.962,42 58,37.962 58,33 C58,29.819 56.372,26.95 53.698,25.32 L53.698,25.32 Z M49,40 C48.407,40 47.818,39.926 47.25,39.78 C46.951,39.703 46.632,39.768 46.389,39.957 C46.145,40.146 46.001,40.437 46.001,40.746 L46,41 C46,44.86 42.86,48 39,48 C37.07,48 35.272,47.231 33.938,45.835 C33.572,45.452 32.968,45.421 32.564,45.767 L22,54.825 L22,47 C22,46.448 21.552,46 21,46 C17.14,46 14,42.86 14,39 C14,38.448 13.552,38 13,38 C9.14,38 6,34.86 6,31 C6,27.795 8.159,25.008 11.25,24.221 C11.704,24.105 12.017,23.691 12.003,23.222 L12,23 C12,19.14 15.14,16 19,16 C20.274,16 21.519,16.345 22.604,16.998 C22.87,17.188 23.216,17.236 23.526,17.126 C23.888,16.997 24.144,16.671 24.184,16.289 L24.184,16.282 C24.983,12.635 28.252,10 32,10 C35.774,10 39.063,12.672 39.832,16.358 C39.853,16.475 39.895,16.589 39.959,16.697 C40.209,17.114 40.725,17.291 41.179,17.114 C41.259,17.083 41.333,17.043 41.4,16.994 C42.484,16.344 43.727,16 45,16 C48.86,16 52,19.14 52,23 C52,23.844 51.852,24.669 51.559,25.452 C51.378,25.934 51.594,26.475 52.058,26.701 C54.489,27.884 56,30.298 56,33 C56,36.86 52.86,40 49,40 L49,40 Z" id="Shape" fill="#000000"></path>
    </g>
</svg>