<?xml version="1.0" encoding="UTF-8" standalone="no"?>
<svg width="64px" height="64px" viewBox="0 0 64 64" version="1.1" xmlns="http://www.w3.org/2000/svg" xmlns:xlink="http://www.w3.org/1999/xlink">
    <!-- Generator: Sketch 3.7.2 (28276) - http://www.bohemiancoding.com/sketch -->
    <title>cha-at</title>
    <desc>Created with Sketch.</desc>
    <defs></defs>
    <g id="64px-Line" stroke="none" stroke-width="1" fill="none" fill-rule="evenodd">
        <g id="cha-at"></g>
        <path d="M31,6 C16.112,6 4,18.112 4,33 C4,47.888 16.112,60 31,60 C45.888,60 58,47.888 58,33 C58,18.112 45.888,6 31,6 L31,6 Z M31,58 C17.215,58 6,46.785 6,33 C6,19.215 17.215,8 31,8 C44.785,8 56,19.215 56,33 C56,46.785 44.785,58 31,58 L31,58 Z" id="Shape" fill="#000000"></path>
        <path d="M37.967,27.839 C38.154,27.319 37.884,26.746 37.365,26.559 C36.845,26.373 36.273,26.642 36.085,27.161 L35.754,28.081 C34.936,27.065 33.63,26.502 32.034,26.502 C28.055,26.502 23.825,29.534 23.825,35.154 C23.825,38.803 26.479,40.097 28.753,40.097 C30.546,40.097 32.134,39.303 33.328,38.199 C33.335,38.21 33.338,38.223 33.345,38.234 C33.628,38.68 34.198,39.225 35.303,39.291 C36.693,39.376 38.459,38.568 39.928,37.184 C41.775,35.446 42.834,33.12 42.834,30.801 C42.834,24.847 38.16,21 30.926,21 C23.457,21 18.834,27.229 18.834,33 C18.834,38.771 23.457,45 30.926,45 C37.996,45 41.56,40.399 41.708,40.203 C42.041,39.764 41.954,39.14 41.516,38.806 C41.079,38.473 40.452,38.557 40.116,38.994 C39.991,39.158 36.969,43.001 30.927,43.001 C24.694,43.001 20.835,37.81 20.835,33.001 C20.835,28.192 24.693,23.001 30.927,23.001 C37.039,23.001 40.835,25.99 40.835,30.802 C40.835,32.572 40.005,34.367 38.559,35.729 C37.347,36.87 36.101,37.324 35.424,37.296 C35.279,37.287 35.093,37.257 35.034,37.164 C34.866,36.901 34.975,36.104 35.196,35.539 L37.967,27.839 L37.967,27.839 Z M28.753,38.098 C27.66,38.098 25.825,37.716 25.825,35.155 C25.825,30.309 29.634,28.503 32.034,28.503 C33.076,28.503 33.851,28.821 34.274,29.424 C34.687,30.013 34.753,30.862 34.452,31.696 C34.451,31.697 34.452,31.699 34.451,31.701 L33.325,34.829 C33.325,34.83 33.324,34.833 33.323,34.834 C33.323,34.834 33.323,34.834 33.322,34.835 C32.703,36.417 30.891,38.098 28.753,38.098 L28.753,38.098 Z" id="Shape" fill="#000000"></path>
    </g>
</svg>