<?xml version="1.0" encoding="UTF-8" standalone="no"?>
<svg width="64px" height="64px" viewBox="0 0 64 64" version="1.1" xmlns="http://www.w3.org/2000/svg" xmlns:xlink="http://www.w3.org/1999/xlink">
    <!-- Generator: Sketch 3.7.2 (28276) - http://www.bohemiancoding.com/sketch -->
    <title>cha-7</title>
    <desc>Created with Sketch.</desc>
    <defs></defs>
    <g id="64px-Line" stroke="none" stroke-width="1" fill="none" fill-rule="evenodd">
        <g id="cha-7"></g>
        <path d="M31,6 C16.112,6 4,18.112 4,33 C4,47.888 16.112,60 31,60 C45.888,60 58,47.888 58,33 C58,18.112 45.888,6 31,6 L31,6 Z M31,58 C17.215,58 6,46.785 6,33 C6,19.215 17.215,8 31,8 C44.785,8 56,19.215 56,33 C56,46.785 44.785,58 31,58 L31,58 Z" id="Shape" fill="#000000"></path>
        <path d="M37,22 L25,22 C24.448,22 24,22.447 24,23 C24,23.553 24.448,24 25,24 L34.926,24 C32.587,27.155 28,34.436 28,43 C28,43.553 28.448,44 29,44 C29.552,44 30,43.553 30,43 C30,32.524 37.67,23.751 37.748,23.664 C38.009,23.369 38.073,22.949 37.912,22.59 C37.75,22.231 37.394,22 37,22 L37,22 Z" id="Shape" fill="#000000"></path>
    </g>
</svg>