<?xml version="1.0" encoding="UTF-8" standalone="no"?>
<svg width="64px" height="64px" viewBox="0 0 64 64" version="1.1" xmlns="http://www.w3.org/2000/svg" xmlns:xlink="http://www.w3.org/1999/xlink">
    <!-- Generator: Sketch 3.7.2 (28276) - http://www.bohemiancoding.com/sketch -->
    <title>spe-wiggly</title>
    <desc>Created with Sketch.</desc>
    <defs></defs>
    <g id="64px-Line" stroke="none" stroke-width="1" fill="none" fill-rule="evenodd">
        <g id="spe-wiggly"></g>
        <path d="M32,6 C17.663,6 6,14.075 6,24 C6,29.296 9.325,34.293 15.123,37.71 C15.158,37.731 15.196,37.751 15.234,37.767 C15.257,37.777 17.589,38.808 18.233,40.511 C18.482,41.169 18.436,41.844 18.094,42.576 C17.654,43.515 16.331,44.027 14.931,44.569 C12.912,45.35 10.624,46.236 10.026,48.771 C9.295,51.872 12.216,52.969 13.786,53.558 C14.133,53.688 14.614,53.87 14.892,54.018 C14.234,54.85 11.46,56.651 8.552,58.105 C8.122,58.32 7.906,58.81 8.037,59.272 C8.16,59.705 8.555,59.999 8.998,59.999 C9.028,59.999 9.058,59.998 9.088,59.995 C13.235,59.626 22.986,58.431 23.954,55.294 C24.66,53.009 22.568,51.993 21.318,51.385 C20.051,50.77 19.856,50.574 19.919,50.382 C20.4,49.642 24.473,48.081 26.905,47.148 C28.258,46.63 29.534,46.14 30.641,45.669 C34.753,43.915 34.753,43.915 45.281,39.488 C53.246,36.219 58,30.43 58,24 C58,14.075 46.337,6 32,6 L32,6 Z M44.52,37.64 C44.517,37.641 44.515,37.642 44.512,37.643 C33.974,42.075 33.974,42.075 29.858,43.83 C28.786,44.288 27.525,44.77 26.191,45.282 C20.896,47.312 18.526,48.34 18.057,49.667 C17.347,51.68 19.286,52.622 20.446,53.185 C22.008,53.944 22.2,54.204 22.046,54.705 C21.778,55.569 18.344,56.639 13.885,57.375 C15.506,56.294 16.839,55.129 16.989,54.151 C17.212,52.707 15.703,52.14 14.49,51.685 C12.391,50.897 11.696,50.407 11.974,49.229 C12.306,47.822 13.585,47.234 15.655,46.434 C17.361,45.773 19.127,45.09 19.906,43.424 C21.498,40.023 18.903,37.304 16.198,36.009 C16.167,35.994 16.136,35.981 16.107,35.968 C10.954,32.92 8,28.56 8,24 C8,15.178 18.767,8 32,8 C45.233,8 56,15.178 56,24 C56,29.591 51.708,34.69 44.52,37.64 L44.52,37.64 Z" id="Shape" fill="#000000"></path>
    </g>
</svg>