<?xml version="1.0" encoding="UTF-8" standalone="no"?>
<svg width="64px" height="64px" viewBox="0 0 64 64" version="1.1" xmlns="http://www.w3.org/2000/svg" xmlns:xlink="http://www.w3.org/1999/xlink">
    <!-- Generator: Sketch 3.7.2 (28276) - http://www.bohemiancoding.com/sketch -->
    <title>spe-rect-love</title>
    <desc>Created with Sketch.</desc>
    <defs></defs>
    <g id="64px-Line" stroke="none" stroke-width="1" fill="none" fill-rule="evenodd">
        <g id="spe-rect-love"></g>
        <path d="M54,6 L8,6 C5.794,6 4,7.794 4,10 L4,44 C4,46.206 5.794,48 8,48 L15,48 C15.552,48 16,48.449 16,49 L16,57 C16,57.396 16.233,57.754 16.596,57.915 C16.726,57.973 16.864,58 17,58 C17.244,58 17.485,57.911 17.673,57.74 L27.814,48.521 C28.184,48.186 28.663,48 29.161,48 L54,48 C56.206,48 58,46.206 58,44 L58,10 C58,7.794 56.206,6 54,6 L54,6 Z M56,44 C56,45.103 55.103,46 54,46 L29.16,46 C28.163,46 27.208,46.369 26.469,47.041 L18,54.739 L18,49 C18,47.346 16.654,46 15,46 L8,46 C6.897,46 6,45.103 6,44 L6,10 C6,8.897 6.897,8 8,8 L54,8 C55.103,8 56,8.897 56,10 L56,44 L56,44 Z" id="Shape" fill="#000000"></path>
        <path d="M38,14 C35.863,14 33.854,14.833 32.381,16.309 L32,16.653 L31.657,16.344 C30.146,14.833 28.137,14 26,14 C23.862,14 21.854,14.833 20.343,16.344 C18.832,17.855 18,19.864 18,22.001 C18,24.138 18.832,26.147 20.31,27.622 L31.26,39.673 C31.449,39.881 31.718,40.001 32,40.001 C32.282,40.001 32.551,39.882 32.74,39.673 L43.675,27.64 C45.175,26.131 46,24.13 46,22.001 C46,19.864 45.168,17.855 43.657,16.345 C42.146,14.833 40.137,14 38,14 L38,14 Z M42.243,26.242 C42.231,26.253 42.221,26.264 42.21,26.277 L32,37.513 L21.757,26.242 C20.624,25.109 20,23.603 20,22 C20,20.397 20.624,18.891 21.757,17.757 C22.891,16.623 24.397,15.999 26,15.999 C27.603,15.999 29.109,16.624 30.279,17.791 L31.329,18.74 C31.71,19.085 32.289,19.084 32.67,18.74 L33.758,17.756 C34.892,16.622 36.398,15.998 38,15.998 C39.602,15.998 41.109,16.623 42.243,17.756 C43.376,18.889 44,20.395 44,21.998 C44,23.601 43.376,25.109 42.243,26.242 L42.243,26.242 Z" id="Shape" fill="#000000"></path>
    </g>
</svg>