<?xml version="1.0" encoding="UTF-8" standalone="no"?>
<svg width="64px" height="64px" viewBox="0 0 64 64" version="1.1" xmlns="http://www.w3.org/2000/svg" xmlns:xlink="http://www.w3.org/1999/xlink">
    <!-- Generator: Sketch 3.7.2 (28276) - http://www.bohemiancoding.com/sketch -->
    <title>cha-w</title>
    <desc>Created with Sketch.</desc>
    <defs></defs>
    <g id="64px-Line" stroke="none" stroke-width="1" fill="none" fill-rule="evenodd">
        <g id="cha-w"></g>
        <path d="M31,6 C16.112,6 4,18.112 4,33 C4,47.888 16.112,60 31,60 C45.888,60 58,47.888 58,33 C58,18.112 45.888,6 31,6 L31,6 Z M31,58 C17.215,58 6,46.785 6,33 C6,19.215 17.215,8 31,8 C44.785,8 56,19.215 56,33 C56,46.785 44.785,58 31,58 L31,58 Z" id="Shape" fill="#000000"></path>
        <path d="M44.287,22.042 C43.755,21.885 43.2,22.184 43.042,22.713 L37.927,39.764 L31.945,22.67 C31.804,22.269 31.425,22 31.001,22 C30.577,22 30.197,22.269 30.057,22.67 L24.075,39.764 L18.96,22.713 C18.802,22.184 18.245,21.885 17.715,22.042 C17.186,22.201 16.886,22.759 17.044,23.287 L23.044,43.287 C23.169,43.702 23.546,43.99 23.98,44 C24.418,43.998 24.803,43.739 24.947,43.33 L31,26.027 L37.056,43.33 C37.197,43.732 37.577,44 38,44 L38.022,44 C38.456,43.99 38.833,43.702 38.958,43.287 L44.958,23.287 C45.116,22.759 44.816,22.201 44.287,22.042 L44.287,22.042 Z" id="Shape" fill="#000000"></path>
    </g>
</svg>