<?xml version="1.0" encoding="UTF-8" standalone="no"?>
<svg width="64px" height="64px" viewBox="0 0 64 64" version="1.1" xmlns="http://www.w3.org/2000/svg" xmlns:xlink="http://www.w3.org/1999/xlink">
    <!-- Generator: Sketch 3.7.2 (28276) - http://www.bohemiancoding.com/sketch -->
    <title>cha-9</title>
    <desc>Created with Sketch.</desc>
    <defs></defs>
    <g id="64px-Line" stroke="none" stroke-width="1" fill="none" fill-rule="evenodd">
        <g id="cha-9"></g>
        <path d="M31,6 C16.112,6 4,18.112 4,33 C4,47.888 16.112,60 31,60 C45.888,60 58,47.888 58,33 C58,18.112 45.888,6 31,6 L31,6 Z M31,58 C17.215,58 6,46.785 6,33 C6,19.215 17.215,8 31,8 C44.785,8 56,19.215 56,33 C56,46.785 44.785,58 31,58 L31,58 Z" id="Shape" fill="#000000"></path>
        <path d="M32.731,20.362 C32.719,20.358 32.705,20.355 32.693,20.351 C32.47,20.279 32.246,20.215 32.019,20.166 C31.937,20.148 31.852,20.139 31.77,20.124 C31.605,20.094 31.44,20.061 31.273,20.043 C31.019,20.015 30.761,20 30.499,20 C26.363,20 22.999,23.589 22.999,28 C22.999,32.411 26.363,36 30.499,36 C33.278,36 35.702,34.376 36.998,31.975 C36.998,31.983 36.999,31.991 36.999,32 C36.999,37.514 34.083,42 30.499,42 C28.625,42 26.833,40.728 25.584,38.51 C25.313,38.029 24.705,37.857 24.222,38.129 C23.741,38.4 23.571,39.01 23.842,39.49 C25.456,42.356 27.882,44 30.499,44 C35.186,44 38.999,38.617 38.999,32 C39,25.182 36.111,21.468 32.731,20.362 L32.731,20.362 Z M30.5,34 C27.467,34 25,31.309 25,28 C25,24.691 27.467,22 30.5,22 C30.71,22 30.914,22.017 31.117,22.04 C31.245,22.056 31.37,22.078 31.495,22.103 C31.549,22.113 31.603,22.124 31.656,22.135 C34.135,22.717 35.999,25.124 35.999,27.999 C36,31.309 33.533,34 30.5,34 L30.5,34 Z" id="Shape" fill="#000000"></path>
    </g>
</svg>