<?xml version="1.0" encoding="UTF-8" standalone="no"?>
<svg width="64px" height="64px" viewBox="0 0 64 64" version="1.1" xmlns="http://www.w3.org/2000/svg" xmlns:xlink="http://www.w3.org/1999/xlink">
    <!-- Generator: Sketch 3.7.2 (28276) - http://www.bohemiancoding.com/sketch -->
    <title>cha-plus-minus</title>
    <desc>Created with Sketch.</desc>
    <defs></defs>
    <g id="64px-Line" stroke="none" stroke-width="1" fill="none" fill-rule="evenodd">
        <g id="cha-plus-minus"></g>
        <path d="M31,6 C16.112,6 4,18.112 4,33 C4,47.888 16.112,60 31,60 C45.888,60 58,47.888 58,33 C58,18.112 45.888,6 31,6 L31,6 Z M31,58 C17.215,58 6,46.785 6,33 C6,19.215 17.215,8 31,8 C44.785,8 56,19.215 56,33 C56,46.785 44.785,58 31,58 L31,58 Z" id="Shape" fill="#000000"></path>
        <path d="M39,28 L32,28 L32,21 C32,20.448 31.553,20 31,20 C30.447,20 30,20.448 30,21 L30,28 L23,28 C22.447,28 22,28.448 22,29 C22,29.552 22.447,30 23,30 L30,30 L30,37 C30,37.552 30.447,38 31,38 C31.553,38 32,37.552 32,37 L32,30 L39,30 C39.553,30 40,29.552 40,29 C40,28.448 39.553,28 39,28 L39,28 Z" id="Shape" fill="#000000"></path>
        <path d="M39,42 L23,42 C22.447,42 22,42.448 22,43 C22,43.552 22.447,44 23,44 L39,44 C39.553,44 40,43.552 40,43 C40,42.448 39.553,42 39,42 L39,42 Z" id="Shape" fill="#000000"></path>
    </g>
</svg>