<?xml version="1.0" encoding="UTF-8" standalone="no"?>
<svg width="64px" height="64px" viewBox="0 0 64 64" version="1.1" xmlns="http://www.w3.org/2000/svg" xmlns:xlink="http://www.w3.org/1999/xlink">
    <!-- Generator: Sketch 3.7.2 (28276) - http://www.bohemiancoding.com/sketch -->
    <title>spe-talk-male</title>
    <desc>Created with Sketch.</desc>
    <defs></defs>
    <g id="64px-Line" stroke="none" stroke-width="1" fill="none" fill-rule="evenodd">
        <g id="spe-talk-male"></g>
        <path d="M46.829,29.242 C47.024,29.437 47.28,29.535 47.536,29.535 C47.792,29.535 48.048,29.437 48.243,29.242 C50.582,26.903 50.582,23.096 48.243,20.758 C47.852,20.367 47.22,20.367 46.829,20.758 C46.438,21.149 46.438,21.781 46.829,22.172 C48.389,23.732 48.389,26.269 46.829,27.828 C46.438,28.219 46.438,28.852 46.829,29.242 L46.829,29.242 Z" id="Shape" fill="#000000"></path>
        <path d="M49.657,30.657 C49.266,31.048 49.266,31.68 49.657,32.071 C49.852,32.266 50.108,32.364 50.364,32.364 C50.62,32.364 50.876,32.266 51.071,32.071 C54.97,28.172 54.97,21.828 51.071,17.928 C50.68,17.537 50.048,17.537 49.657,17.928 C49.266,18.319 49.266,18.951 49.657,19.342 C52.776,22.462 52.776,27.538 49.657,30.657 L49.657,30.657 Z" id="Shape" fill="#000000"></path>
        <path d="M52.778,15.808 C52.387,16.199 52.387,16.831 52.778,17.222 C57.067,21.511 57.067,28.49 52.778,32.779 C52.387,33.17 52.387,33.802 52.778,34.193 C52.973,34.388 53.229,34.486 53.485,34.486 C53.741,34.486 53.997,34.388 54.192,34.193 C59.26,29.125 59.26,20.877 54.192,15.808 C53.802,15.417 53.169,15.417 52.778,15.808 L52.778,15.808 Z" id="Shape" fill="#000000"></path>
        <path d="M54.961,44.804 C52.979,34.892 46.738,33.433 37.438,32.338 C36.558,32.246 35.712,32.736 35.369,33.545 C33.834,37.168 31.689,39.915 31.01,40 C30.315,39.913 28.17,37.164 26.634,33.545 C26.292,32.737 25.444,32.248 24.56,32.339 C14.97,33.468 9.004,34.869 7.021,44.806 L6.019,49.859 C6.006,49.947 6.001,50.039 6.001,50.125 C6.001,52.863 9.301,54.519 15.813,55.046 C18.132,57.475 25.237,58.001 31.026,58.001 L31.061,58.001 C36.77,58.001 43.872,57.475 46.19,55.046 C52.702,54.519 56.002,52.863 56.002,50.125 C56.002,50.039 55.997,49.947 55.975,49.803 L54.961,44.804 L54.961,44.804 Z M54,50.124 C54,51.555 50.71,52.716 45.617,53.083 C45.313,53.104 45.035,53.265 44.863,53.517 C43.834,55.026 38.417,56 30.973,56 L30.957,56 L30.94,56 C23.583,56 18.165,55.025 17.135,53.517 C16.963,53.265 16.685,53.105 16.381,53.083 C11.288,52.716 7.998,51.555 7.986,50.194 L8.978,45.195 C10.646,36.841 15.077,35.467 24.79,34.326 C24.926,34.64 28.083,42 31,42 C33.925,42 37.077,34.639 37.209,34.325 C46.688,35.44 51.336,36.877 53,45.198 L54,50.12 L55,50.124 L54,50.124 L54,50.124 Z" id="Shape" fill="#000000"></path>
        <path d="M42,19 C42,15.784 42,6 31,6 C23.701,6 20,10.374 20,19 C20,27.748 23.598,32 31,32 C38.402,32 42,27.748 42,19 L42,19 Z M31,30 C29.141,30 27.597,29.69 26.335,29.063 C27.896,27.946 30,25.595 30,21 C30,20.447 29.553,20 29,20 C28.592,20 28,19.221 28,18 C28,16.779 28.592,16 29,16 L39.829,16 C39.939,16.917 40,17.909 40,19 C40,26.607 37.225,30 31,30 L31,30 Z M31,8 C35.72,8 38.414,9.843 39.472,14 L29,14 C27.317,14 26,15.757 26,18 C26,19.761 26.812,21.223 27.976,21.77 C27.725,25.655 25.6,27.26 24.591,27.809 C22.832,26.033 22,23.147 22,19 C22,11.495 24.859,8 31,8 L31,8 Z" id="Shape" fill="#000000"></path>
    </g>
</svg>