<?xml version="1.0" encoding="UTF-8" standalone="no"?>
<svg width="64px" height="64px" viewBox="0 0 64 64" version="1.1" xmlns="http://www.w3.org/2000/svg" xmlns:xlink="http://www.w3.org/1999/xlink">
    <!-- Generator: Sketch 3.7.2 (28276) - http://www.bohemiancoding.com/sketch -->
    <title>spe-loudspeakers</title>
    <desc>Created with Sketch.</desc>
    <defs></defs>
    <g id="64px-Line" stroke="none" stroke-width="1" fill="none" fill-rule="evenodd">
        <g id="spe-loudspeakers"></g>
        <path d="M31,12 C28.243,12 26,14.243 26,17 C26,19.757 28.243,22 31,22 C33.757,22 36,19.757 36,17 C36,14.243 33.757,12 31,12 L31,12 Z M31,20 C29.346,20 28,18.654 28,17 C28,15.346 29.346,14 31,14 C32.654,14 34,15.346 34,17 C34,18.654 32.654,20 31,20 L31,20 Z" id="Shape" fill="#000000"></path>
        <path d="M54,12.101 L54,7 C54,6.686 53.853,6.39 53.601,6.201 C53.35,6.012 53.024,5.952 52.723,6.039 L39.381,9.892 C37.361,7.515 34.356,6 31,6 C27.644,6 24.639,7.515 22.619,9.892 L9.277,6.039 C8.975,5.952 8.649,6.012 8.399,6.201 C8.147,6.39 8,6.686 8,7 L8,12.101 C5.721,12.566 4,14.585 4,17 C4,19.415 5.721,21.434 8,21.899 L8,27 C8,27.313 8.147,27.609 8.397,27.798 C8.573,27.931 8.785,28 9,28 C9.092,28 9.184,27.987 9.273,27.962 L22.664,24.157 C23.591,25.236 24.723,26.13 25.999,26.785 L25.999,59 C25.999,59.553 26.446,60 26.999,60 C27.552,60 27.999,59.553 27.999,59 L27.999,27.574 C28.954,27.845 29.958,28 30.999,28 C32.04,28 33.044,27.845 33.999,27.574 L33.999,59 C33.999,59.553 34.446,60 34.999,60 C35.552,60 35.999,59.553 35.999,59 L35.999,26.786 C37.276,26.131 38.407,25.236 39.334,24.158 L52.725,27.963 C52.815,27.988 52.907,28.001 52.998,28.001 C53.213,28.001 53.425,27.932 53.601,27.799 C53.851,27.611 53.998,27.315 53.998,27.001 L53.998,21.9 C56.277,21.435 57.998,19.416 57.998,17.001 C57.998,14.586 56.279,12.566 54,12.101 L54,12.101 Z M6,17 C6,15.698 6.839,14.598 8,14.184 L8,19.815 C6.839,19.402 6,18.302 6,17 L6,17 Z M10,25.677 L10,8.33 L21.412,11.626 C20.517,13.217 20,15.048 20,17 C20,18.973 20.529,20.822 21.443,22.425 L10,25.677 L10,25.677 Z M31,26 C28.172,26 25.647,24.686 23.996,22.64 C23.93,22.472 23.823,22.336 23.689,22.23 C22.63,20.754 22,18.951 22,17 C22,12.037 26.037,8 31,8 C35.963,8 40,12.037 40,17 C40,18.95 39.37,20.752 38.312,22.227 C38.177,22.334 38.069,22.471 38.003,22.64 C36.352,24.686 33.828,26 31,26 L31,26 Z M52,25.677 L40.557,22.426 C41.471,20.823 42,18.974 42,17.001 C42,15.049 41.483,13.218 40.588,11.627 L52,8.33 L52,25.677 L52,25.677 Z M54,19.816 L54,14.185 C55.161,14.599 56,15.699 56,17.001 C56,18.303 55.161,19.402 54,19.816 L54,19.816 Z" id="Shape" fill="#000000"></path>
    </g>
</svg>