<?xml version="1.0" encoding="UTF-8" standalone="no"?>
<svg width="64px" height="64px" viewBox="0 0 64 64" version="1.1" xmlns="http://www.w3.org/2000/svg" xmlns:xlink="http://www.w3.org/1999/xlink">
    <!-- Generator: Sketch 3.7.2 (28276) - http://www.bohemiancoding.com/sketch -->
    <title>cha-square-brackets</title>
    <desc>Created with Sketch.</desc>
    <defs></defs>
    <g id="64px-Line" stroke="none" stroke-width="1" fill="none" fill-rule="evenodd">
        <g id="cha-square-brackets"></g>
        <path d="M31,6 C16.112,6 4,18.112 4,33 C4,47.888 16.112,60 31,60 C45.888,60 58,47.888 58,33 C58,18.112 45.888,6 31,6 L31,6 Z M31,58 C17.215,58 6,46.785 6,33 C6,19.215 17.215,8 31,8 C44.785,8 56,19.215 56,33 C56,46.785 44.785,58 31,58 L31,58 Z" id="Shape" fill="#000000"></path>
        <path d="M27,22 C27.553,22 28,21.552 28,21 C28,20.448 27.553,20 27,20 L23,20 C22.447,20 22,20.448 22,21 L22,45 C22,45.552 22.447,46 23,46 L27,46 C27.553,46 28,45.552 28,45 C28,44.448 27.553,44 27,44 L24,44 L24,22 L27,22 L27,22 Z" id="Shape" fill="#000000"></path>
        <path d="M39,20 L35,20 C34.447,20 34,20.448 34,21 C34,21.552 34.447,22 35,22 L38,22 L38,44 L35,44 C34.447,44 34,44.448 34,45 C34,45.552 34.447,46 35,46 L39,46 C39.553,46 40,45.552 40,45 L40,21 C40,20.448 39.553,20 39,20 L39,20 Z" id="Shape" fill="#000000"></path>
    </g>
</svg>