<?xml version="1.0" encoding="UTF-8" standalone="no"?>
<svg width="64px" height="64px" viewBox="0 0 64 64" version="1.1" xmlns="http://www.w3.org/2000/svg" xmlns:xlink="http://www.w3.org/1999/xlink">
    <!-- Generator: Sketch 3.7.2 (28276) - http://www.bohemiancoding.com/sketch -->
    <title>spe-rect-quote</title>
    <desc>Created with Sketch.</desc>
    <defs></defs>
    <g id="64px-Line" stroke="none" stroke-width="1" fill="none" fill-rule="evenodd">
        <g id="spe-rect-quote"></g>
        <path d="M54,6 L8,6 C5.794,6 4,7.794 4,10 L4,44 C4,46.206 5.794,48 8,48 L15,48 C15.551,48 16,48.448 16,49 L16,57 C16,57.396 16.233,57.754 16.595,57.914 C16.725,57.972 16.863,58 17,58 C17.244,58 17.485,57.91 17.673,57.74 L27.815,48.52 C28.184,48.184 28.662,47.999 29.16,47.999 L54,47.999 C56.206,47.999 58,46.205 58,43.999 L58,9.999 C58,7.794 56.206,6 54,6 L54,6 Z M56,44 C56,45.103 55.103,46 54,46 L29.16,46 C28.163,46 27.207,46.369 26.469,47.04 L18,54.739 L18,49 C18,47.346 16.654,46 15,46 L8,46 C6.897,46 6,45.103 6,44 L6,10 C6,8.897 6.897,8 8,8 L54,8 C55.103,8 56,8.897 56,10 L56,44 L56,44 Z" id="Shape" fill="#000000"></path>
        <path d="M24,22 C23.331,22 22.69,22.134 22.088,22.371 C24.085,20.106 26.819,20.004 27.013,20 C27.564,19.993 28.006,19.541 28,18.989 C27.994,18.44 27.548,18 27,18 L26.99,18 C26.9,18.001 18,18.218 18,29 C18,32.859 20.691,36 24,36 C27.309,36 30,32.859 30,29 C30,25.141 27.309,22 24,22 L24,22 Z M24,34 C21.794,34 20,31.757 20,29 C20,26.243 21.794,24 24,24 C26.206,24 28,26.243 28,29 C28,31.757 26.206,34 24,34 L24,34 Z" id="Shape" fill="#000000"></path>
        <path d="M40,22 C39.331,22 38.69,22.134 38.088,22.371 C40.085,20.106 42.819,20.004 43.013,20 C43.564,19.993 44.006,19.541 44,18.989 C43.994,18.437 43.584,18.018 42.99,18 C42.9,18.001 34,18.218 34,29 C34,32.859 36.691,36 40,36 C43.309,36 46,32.859 46,29 C46,25.141 43.309,22 40,22 L40,22 Z M40,34 C37.794,34 36,31.757 36,29 C36,26.243 37.794,24 40,24 C42.206,24 44,26.243 44,29 C44,31.757 42.206,34 40,34 L40,34 Z" id="Shape" fill="#000000"></path>
    </g>
</svg>