<?xml version="1.0" encoding="UTF-8" standalone="no"?>
<svg width="64px" height="64px" viewBox="0 0 64 64" version="1.1" xmlns="http://www.w3.org/2000/svg" xmlns:xlink="http://www.w3.org/1999/xlink">
    <!-- Generator: Sketch 3.7.2 (28276) - http://www.bohemiancoding.com/sketch -->
    <title>cha-more-than</title>
    <desc>Created with Sketch.</desc>
    <defs></defs>
    <g id="64px-Line" stroke="none" stroke-width="1" fill="none" fill-rule="evenodd">
        <g id="cha-more-than"></g>
        <path d="M31,6 C16.112,6 4,18.112 4,33 C4,47.888 16.112,60 31,60 C45.888,60 58,47.888 58,33 C58,18.112 45.888,6 31,6 L31,6 Z M31,58 C17.215,58 6,46.785 6,33 C6,19.215 17.215,8 31,8 C44.785,8 56,19.215 56,33 C56,46.785 44.785,58 31,58 L31,58 Z" id="Shape" fill="#000000"></path>
        <path d="M41.447,32.105 L25.447,24.105 C24.951,23.858 24.352,24.059 24.105,24.552 C23.858,25.046 24.058,25.647 24.552,25.894 L38.764,33 L24.553,40.105 C24.059,40.352 23.859,40.953 24.106,41.447 C24.281,41.798 24.634,42 25.002,42 C25.152,42 25.305,41.966 25.448,41.895 L41.448,33.895 C41.787,33.726 42.001,33.379 42.001,33 C42.001,32.621 41.786,32.275 41.447,32.105 L41.447,32.105 Z" id="Shape" fill="#000000"></path>
    </g>
</svg>