<?xml version="1.0" encoding="UTF-8" standalone="no"?>
<svg width="64px" height="64px" viewBox="0 0 64 64" version="1.1" xmlns="http://www.w3.org/2000/svg" xmlns:xlink="http://www.w3.org/1999/xlink">
    <!-- Generator: Sketch 3.7.2 (28276) - http://www.bohemiancoding.com/sketch -->
    <title>cha-c</title>
    <desc>Created with Sketch.</desc>
    <defs></defs>
    <g id="64px-Line" stroke="none" stroke-width="1" fill="none" fill-rule="evenodd">
        <g id="cha-c"></g>
        <path d="M31,6 C16.112,6 4,18.112 4,33 C4,47.888 16.112,60 31,60 C45.888,60 58,47.888 58,33 C58,18.112 45.888,6 31,6 L31,6 Z M31,58 C17.215,58 6,46.785 6,33 C6,19.215 17.215,8 31,8 C44.785,8 56,19.215 56,33 C56,46.785 44.785,58 31,58 L31,58 Z" id="Shape" fill="#000000"></path>
        <path d="M31,22 C34.374,22 37.437,24.077 38.993,27.422 C39.224,27.922 39.818,28.14 40.321,27.906 C40.822,27.674 41.039,27.079 40.805,26.578 C38.918,22.521 35.16,20 31,20 C24.935,20 20,25.383 20,32 C20,38.617 24.935,44 31,44 C35.16,44 38.918,41.479 40.806,37.422 C41.039,36.921 40.823,36.326 40.322,36.094 C39.819,35.86 39.225,36.078 38.994,36.578 C37.437,39.923 34.374,42 31,42 C26.037,42 22,37.514 22,32 C22,26.486 26.037,22 31,22 L31,22 Z" id="Shape" fill="#000000"></path>
    </g>
</svg>