<?xml version="1.0" encoding="UTF-8" standalone="no"?>
<svg width="64px" height="64px" viewBox="0 0 64 64" version="1.1" xmlns="http://www.w3.org/2000/svg" xmlns:xlink="http://www.w3.org/1999/xlink">
    <!-- Generator: Sketch 3.7.2 (28276) - http://www.bohemiancoding.com/sketch -->
    <title>spe-megaphone</title>
    <desc>Created with Sketch.</desc>
    <defs></defs>
    <g id="64px-Line" stroke="none" stroke-width="1" fill="none" fill-rule="evenodd">
        <g id="spe-megaphone"></g>
        <path d="M56,24.549 L56,10.5 C56,9.121 54.878,8 53.5,8 C52.745,8 52.038,8.336 51.543,8.944 C51.443,9.075 41.341,22 27,22 L14,22 C8.486,22 4,26.486 4,32 C4,37.514 8.486,42 14,42 L14.83,42 L17.981,53.759 C18.317,55.016 19.577,56 20.849,56 L23.849,56 C24.547,56 25.175,55.704 25.571,55.188 C25.978,54.658 26.102,53.949 25.913,53.241 L22.901,42 L27,42 C41.316,42 51.443,54.926 51.561,55.078 C52.038,55.664 52.745,56 53.5,56 C54.878,56 56,54.879 56,53.5 L56,39.451 C58.474,37.787 60,34.994 60,32 C60,29.006 58.474,26.213 56,24.549 L56,24.549 Z M6,32 C6,27.589 9.589,24 14,24 L26,24 L26,40 L14,40 C9.589,40 6,36.411 6,32 L6,32 Z M23.981,53.759 C24.013,53.88 23.997,53.954 23.984,53.971 C23.978,53.979 23.934,54 23.85,54 L20.85,54 C20.473,54 20.018,53.631 19.913,53.241 L16.901,42 L20.831,42 L23.981,53.759 L23.981,53.759 Z M54,53.5 C54,53.775 53.776,54 53.5,54 C53.349,54 53.207,53.933 53.129,53.837 C52.704,53.284 42.765,40.585 28,40.027 L28,23.973 C42.765,23.415 52.703,10.716 53.111,10.185 C53.382,9.852 54,10.074 54,10.5 L54,53.5 L54,53.5 Z M56,36.882 L56,27.119 C57.26,28.411 58,30.16 58,32.001 C58,33.842 57.26,35.589 56,36.882 L56,36.882 Z" id="Shape" fill="#000000"></path>
    </g>
</svg>