<?xml version="1.0" encoding="UTF-8" standalone="no"?>
<svg width="64px" height="64px" viewBox="0 0 64 64" version="1.1" xmlns="http://www.w3.org/2000/svg" xmlns:xlink="http://www.w3.org/1999/xlink">
    <!-- Generator: Sketch 3.7.2 (28276) - http://www.bohemiancoding.com/sketch -->
    <title>cha-y</title>
    <desc>Created with Sketch.</desc>
    <defs></defs>
    <g id="64px-Line" stroke="none" stroke-width="1" fill="none" fill-rule="evenodd">
        <g id="cha-y"></g>
        <path d="M31,6 C16.112,6 4,18.112 4,33 C4,47.888 16.112,60 31,60 C45.888,60 58,47.888 58,33 C58,18.112 45.888,6 31,6 L31,6 Z M31,58 C17.215,58 6,46.785 6,33 C6,19.215 17.215,8 31,8 C44.785,8 56,19.215 56,33 C56,46.785 44.785,58 31,58 L31,58 Z" id="Shape" fill="#000000"></path>
        <path d="M38.537,22.156 C38.07,21.861 37.453,21.998 37.156,22.463 L31,32.138 L24.844,22.463 C24.548,21.999 23.931,21.861 23.463,22.156 C22.997,22.453 22.859,23.071 23.156,23.537 L30,34.292 L30,43 C30,43.553 30.447,44 31,44 C31.553,44 32,43.553 32,43 L32,34.292 L38.844,23.538 C39.141,23.071 39.003,22.453 38.537,22.156 L38.537,22.156 Z" id="Shape" fill="#000000"></path>
    </g>
</svg>