<?xml version="1.0" encoding="UTF-8" standalone="no"?>
<svg width="64px" height="64px" viewBox="0 0 64 64" version="1.1" xmlns="http://www.w3.org/2000/svg" xmlns:xlink="http://www.w3.org/1999/xlink">
    <!-- Generator: Sketch 3.7.2 (28276) - http://www.bohemiancoding.com/sketch -->
    <title>spe-bubbles-two</title>
    <desc>Created with Sketch.</desc>
    <defs></defs>
    <g id="64px-Line" stroke="none" stroke-width="1" fill="none" fill-rule="evenodd">
        <g id="spe-bubbles-two"></g>
        <path d="M9.954,28 L34.512,28 L32.663,32 L19.199,32 C17.637,32 16.219,32.935 15.587,34.381 L10.342,46.381 C9.794,47.635 9.913,49.066 10.661,50.21 C11.394,51.331 12.625,52 13.954,52 L19.382,52 L16.106,58.553 C15.903,58.959 15.999,59.45 16.339,59.75 C16.526,59.916 16.763,60 17,60 C17.193,60 17.386,59.944 17.555,59.832 L29.303,52 L48.802,52 C50.364,52 51.782,51.065 52.414,49.619 L57.659,37.619 C58.207,36.365 58.088,34.934 57.34,33.79 C56.606,32.669 55.375,32 54.046,32 L38.866,32 L40.715,28 L44.801,28 C46.363,28 47.781,27.065 48.413,25.619 L53.658,13.619 C54.206,12.365 54.087,10.934 53.339,9.79 C52.606,8.669 51.375,8 50.046,8 L15.199,8 C13.637,8 12.219,8.935 11.587,10.381 L6.342,22.381 C5.794,23.635 5.913,25.066 6.661,26.21 C7.394,27.331 8.625,28 9.954,28 L9.954,28 Z M8.174,23.182 L13.419,11.182 C13.733,10.464 14.431,10 15.199,10 L50.047,10 C50.708,10 51.298,10.323 51.666,10.885 C52.043,11.462 52.104,12.184 51.826,12.818 L46.581,24.818 C46.267,25.536 45.569,26 44.801,26 L41.639,26 L41.907,25.419 C42.139,24.918 41.92,24.324 41.419,24.092 C40.92,23.86 40.324,24.078 40.092,24.58 L39.154,26.608 C39.153,26.609 39.153,26.611 39.152,26.612 L35.469,34.58 C35.237,35.081 35.456,35.675 35.957,35.907 C36.094,35.971 36.236,36 36.377,36 C36.754,36 37.116,35.785 37.285,35.419 L37.941,34 L54.046,34 C54.707,34 55.297,34.323 55.665,34.885 C56.042,35.462 56.103,36.184 55.825,36.818 L50.58,48.818 C50.267,49.536 49.569,50 48.801,50 L29,50 C28.803,50 28.609,50.059 28.445,50.168 L19.578,56.08 L21.894,51.448 C22.049,51.138 22.032,50.77 21.85,50.475 C21.668,50.18 21.346,50 21,50 L13.954,50 C13.293,50 12.703,49.677 12.335,49.115 C11.958,48.538 11.897,47.816 12.175,47.182 L17.42,35.182 C17.733,34.464 18.431,34 19.199,34 L31.738,34 L31.47,34.581 C31.238,35.082 31.457,35.676 31.958,35.908 C32.094,35.971 32.236,36 32.377,36 C32.754,36 33.116,35.785 33.285,35.419 L37.908,25.419 C38.14,24.918 37.921,24.324 37.42,24.092 C36.921,23.86 36.325,24.078 36.093,24.58 L35.436,26 L9.954,26 C9.293,26 8.703,25.677 8.335,25.115 C7.957,24.538 7.897,23.816 8.174,23.182 L8.174,23.182 Z" id="Shape" fill="#000000"></path>
    </g>
</svg>