<?xml version="1.0" encoding="UTF-8" standalone="no"?>
<svg width="64px" height="64px" viewBox="0 0 64 64" version="1.1" xmlns="http://www.w3.org/2000/svg" xmlns:xlink="http://www.w3.org/1999/xlink">
    <!-- Generator: Sketch 3.7.2 (28276) - http://www.bohemiancoding.com/sketch -->
    <title>cha-s</title>
    <desc>Created with Sketch.</desc>
    <defs></defs>
    <g id="64px-Line" stroke="none" stroke-width="1" fill="none" fill-rule="evenodd">
        <g id="cha-s"></g>
        <path d="M31,6 C16.112,6 4,18.112 4,33 C4,47.888 16.112,60 31,60 C45.888,60 58,47.888 58,33 C58,18.112 45.888,6 31,6 L31,6 Z M31,58 C17.215,58 6,46.785 6,33 C6,19.215 17.215,8 31,8 C44.785,8 56,19.215 56,33 C56,46.785 44.785,58 31,58 L31,58 Z" id="Shape" fill="#000000"></path>
        <path d="M30.606,30.233 C29.971,30.087 29.32,29.938 28.66,29.778 C26.266,29.197 25,27.89 25,26 C25,23.832 27.748,22 31,22 C34.252,22 37,23.832 37,26 C37,26.553 37.448,27 38,27 C38.552,27 39,26.553 39,26 C39,22.691 35.411,20 31,20 C26.589,20 23,22.691 23,26 C23,28.836 24.891,30.921 28.188,31.722 C28.856,31.884 29.516,32.035 30.159,32.183 C35.167,33.329 38,34.119 38,37 C38,39.897 35.056,42 31,42 C27.14,42 24,39.532 24,36.5 L24,36 C24,35.447 23.552,35 23,35 C22.448,35 22,35.447 22,36 L22,36.5 C22,40.636 26.038,44 31,44 C36.131,44 40,40.99 40,37 C40,32.384 35.437,31.339 30.606,30.233 L30.606,30.233 Z" id="Shape" fill="#000000"></path>
    </g>
</svg>