<?xml version="1.0" encoding="UTF-8" standalone="no"?>
<svg width="64px" height="64px" viewBox="0 0 64 64" version="1.1" xmlns="http://www.w3.org/2000/svg" xmlns:xlink="http://www.w3.org/1999/xlink">
    <!-- Generator: Sketch 3.7.2 (28276) - http://www.bohemiancoding.com/sketch -->
    <title>cha-r</title>
    <desc>Created with Sketch.</desc>
    <defs></defs>
    <g id="64px-Line" stroke="none" stroke-width="1" fill="none" fill-rule="evenodd">
        <g id="cha-r"></g>
        <path d="M31,6 C16.112,6 4,18.112 4,33 C4,47.888 16.112,60 31,60 C45.888,60 58,47.888 58,33 C58,18.112 45.888,6 31,6 L31,6 Z M31,58 C17.215,58 6,46.785 6,33 C6,19.215 17.215,8 31,8 C44.785,8 56,19.215 56,33 C56,46.785 44.785,58 31,58 L31,58 Z" id="Shape" fill="#000000"></path>
        <path d="M40,28 C40,24.691 37.309,22 34,22 L25,22 C24.448,22 24,22.447 24,23 L24,43 C24,43.553 24.448,44 25,44 C25.552,44 26,43.553 26,43 L26,34 L33,34 C35.206,34 37,35.794 37,38 L37,40 C37,42.347 38.161,43.575 38.293,43.707 C38.486,43.9 38.738,43.997 38.991,43.997 C39.242,43.997 39.494,43.901 39.689,43.713 C40.082,43.333 40.091,42.703 39.718,42.305 C39.689,42.273 39,41.519 39,40 L39,38 C39,36.111 38.121,34.426 36.753,33.325 C38.679,32.326 40,30.316 40,28 L40,28 Z M34,32 L26,32 L26,24 L34,24 C36.206,24 38,25.794 38,28 C38,30.206 36.206,32 34,32 L34,32 Z" id="Shape" fill="#000000"></path>
    </g>
</svg>