<?xml version="1.0" encoding="UTF-8" standalone="no"?>
<svg width="64px" height="64px" viewBox="0 0 64 64" version="1.1" xmlns="http://www.w3.org/2000/svg" xmlns:xlink="http://www.w3.org/1999/xlink">
    <!-- Generator: Sketch 3.7.2 (28276) - http://www.bohemiancoding.com/sketch -->
    <title>spe-quotes</title>
    <desc>Created with Sketch.</desc>
    <defs></defs>
    <g id="64px-Line" stroke="none" stroke-width="1" fill="none" fill-rule="evenodd">
        <g id="spe-quotes"></g>
        <path d="M15.464,7.886 C15.952,7.63 16.142,7.028 15.887,6.538 C15.633,6.048 15.03,5.856 14.538,6.113 C14.189,6.295 6,10.69 6,22 C6,27.514 10.037,32 15,32 C19.963,32 24,27.514 24,22 C24,16.486 19.963,12 15,12 C13.148,12 11.426,12.626 9.993,13.695 C12.135,9.712 15.262,7.992 15.464,7.886 L15.464,7.886 Z M15,14 C18.859,14 22,17.589 22,22 C22,26.411 18.859,30 15,30 C11.141,30 8,26.411 8,22 C8,21.717 8.025,21.456 8.036,21.183 C8.396,17.154 11.382,14 15,14 L15,14 Z" id="Shape" fill="#000000"></path>
        <path d="M46,22 C46,16.486 41.963,12 37,12 C35.148,12 33.426,12.626 31.993,13.695 C34.135,9.712 37.262,7.992 37.464,7.885 C37.952,7.629 38.142,7.027 37.887,6.537 C37.632,6.047 37.029,5.855 36.538,6.112 C36.189,6.295 28,10.69 28,22 C28,27.514 32.037,32 37,32 C41.963,32 46,27.514 46,22 L46,22 Z M30,22 C30,21.717 30.025,21.456 30.036,21.183 C30.395,17.154 33.382,14 37,14 C40.859,14 44,17.589 44,22 C44,26.411 40.859,30 37,30 C33.141,30 30,26.411 30,22 L30,22 Z" id="Shape" fill="#000000"></path>
        <path d="M48.536,58.114 C48.048,58.37 47.858,58.972 48.113,59.462 C48.291,59.805 48.639,60 49.001,60 C49.156,60 49.314,59.964 49.462,59.887 C49.811,59.705 58,55.31 58,44 C58,38.486 53.963,34 49,34 C44.037,34 40,38.486 40,44 C40,49.514 44.037,54 49,54 C50.852,54 52.574,53.374 54.007,52.305 C51.865,56.288 48.738,58.008 48.536,58.114 L48.536,58.114 Z M49,52 C45.141,52 42,48.411 42,44 C42,39.589 45.141,36 49,36 C52.859,36 56,39.589 56,44 C56,44.283 55.975,44.544 55.964,44.817 C55.604,48.846 52.618,52 49,52 L49,52 Z" id="Shape" fill="#000000"></path>
        <path d="M36,44 C36,38.486 31.963,34 27,34 C22.037,34 18,38.486 18,44 C18,49.514 22.037,54 27,54 C28.852,54 30.574,53.374 32.007,52.305 C29.865,56.288 26.738,58.008 26.536,58.115 C26.048,58.371 25.858,58.973 26.113,59.463 C26.291,59.806 26.639,60.001 27.001,60.001 C27.156,60.001 27.314,59.965 27.462,59.888 C27.811,59.705 36,55.31 36,44 L36,44 Z M27,52 C23.141,52 20,48.411 20,44 C20,39.589 23.141,36 27,36 C30.859,36 34,39.589 34,44 C34,44.283 33.975,44.544 33.964,44.817 C33.604,48.846 30.618,52 27,52 L27,52 Z" id="Shape" fill="#000000"></path>
    </g>
</svg>