<?xml version="1.0" encoding="UTF-8" standalone="no"?>
<svg width="64px" height="64px" viewBox="0 0 64 64" version="1.1" xmlns="http://www.w3.org/2000/svg" xmlns:xlink="http://www.w3.org/1999/xlink">
    <!-- Generator: Sketch 3.7.2 (28276) - http://www.bohemiancoding.com/sketch -->
    <title>cha-k</title>
    <desc>Created with Sketch.</desc>
    <defs></defs>
    <g id="64px-Line" stroke="none" stroke-width="1" fill="none" fill-rule="evenodd">
        <g id="cha-k"></g>
        <path d="M31,6 C16.112,6 4,18.112 4,33 C4,47.888 16.112,60 31,60 C45.888,60 58,47.888 58,33 C58,18.112 45.888,6 31,6 L31,6 Z M31,58 C17.215,58 6,46.785 6,33 C6,19.215 17.215,8 31,8 C44.785,8 56,19.215 56,33 C56,46.785 44.785,58 31,58 L31,58 Z" id="Shape" fill="#000000"></path>
        <path d="M32.087,30.783 L39.681,23.732 C40.085,23.357 40.109,22.724 39.733,22.319 C39.356,21.914 38.724,21.891 38.319,22.267 L26,33.707 L26,23 C26,22.447 25.552,22 25,22 C24.448,22 24,22.447 24,23 L24,43 C24,43.553 24.448,44 25,44 C25.552,44 26,43.553 26,43 L26,36.436 L30.614,32.151 L39.2,43.6 C39.396,43.863 39.697,44 40.001,44 C40.209,44 40.42,43.935 40.6,43.8 C41.042,43.469 41.131,42.842 40.8,42.401 L32.087,30.783 L32.087,30.783 Z" id="Shape" fill="#000000"></path>
    </g>
</svg>