<?xml version="1.0" encoding="UTF-8" standalone="no"?>
<svg width="64px" height="64px" viewBox="0 0 64 64" version="1.1" xmlns="http://www.w3.org/2000/svg" xmlns:xlink="http://www.w3.org/1999/xlink">
    <!-- Generator: Sketch 3.7.2 (28276) - http://www.bohemiancoding.com/sketch -->
    <title>cha-4</title>
    <desc>Created with Sketch.</desc>
    <defs></defs>
    <g id="64px-Line" stroke="none" stroke-width="1" fill="none" fill-rule="evenodd">
        <g id="cha-4"></g>
        <path d="M31,6 C16.112,6 4,18.112 4,33 C4,47.888 16.112,60 31,60 C45.888,60 58,47.888 58,33 C58,18.112 45.888,6 31,6 L31,6 Z M31,58 C17.215,58 6,46.785 6,33 C6,19.215 17.215,8 31,8 C44.785,8 56,19.215 56,33 C56,46.785 44.785,58 31,58 L31,58 Z" id="Shape" fill="#000000"></path>
        <path d="M37,36 L34,36 L34,23 C34,22.565 33.719,22.18 33.306,22.048 C32.892,21.917 32.44,22.065 32.187,22.419 L22.187,36.419 C21.969,36.724 21.94,37.125 22.111,37.458 C22.283,37.791 22.626,38 23.001,38 L32.001,38 L32.001,43 C32.001,43.552 32.448,44 33.001,44 C33.554,44 34.001,43.552 34.001,43 L34.001,38 L37.001,38 C37.554,38 38.001,37.552 38.001,37 C38.001,36.448 37.553,36 37,36 L37,36 Z M32,36 L24.943,36 L32,26.121 L32,36 L32,36 Z" id="Shape" fill="#000000"></path>
    </g>
</svg>