<?xml version="1.0" encoding="UTF-8" standalone="no"?>
<svg width="64px" height="64px" viewBox="0 0 64 64" version="1.1" xmlns="http://www.w3.org/2000/svg" xmlns:xlink="http://www.w3.org/1999/xlink">
    <!-- Generator: Sketch 3.7.2 (28276) - http://www.bohemiancoding.com/sketch -->
    <title>spe-talk</title>
    <desc>Created with Sketch.</desc>
    <defs></defs>
    <g id="64px-Line" stroke="none" stroke-width="1" fill="none" fill-rule="evenodd">
        <g id="spe-talk"></g>
        <path d="M10,24 C10,25.877 10.433,32 16,32 C21.567,32 22,25.877 22,24 C22,16.577 17.408,16 16,16 C13.1,16 10,18.102 10,24 L10,24 Z M20,24 C20,26.737 19.306,30 16,30 C12.694,30 12,26.737 12,24 C12,20.187 13.458,18 16,18 C18.58,18 20,20.131 20,24 L20,24 Z" id="Shape" fill="#000000"></path>
        <path d="M42,24 C42,25.877 42.433,32 48,32 C53.567,32 54,25.877 54,24 C54,16.577 49.408,16 48,16 C45.1,16 42,18.102 42,24 L42,24 Z M52,24 C52,26.737 51.306,30 48,30 C44.694,30 44,26.737 44,24 C44,20.187 45.458,18 48,18 C50.58,18 52,20.131 52,24 L52,24 Z" id="Shape" fill="#000000"></path>
        <path d="M16,34 C9.383,34 4,39.383 4,46 L4,49 C4,49.553 4.448,50 5,50 L27,50 C27.552,50 28,49.553 28,49 L28,46 C28,39.383 22.617,34 16,34 L16,34 Z M26,48 L6,48 L6,46 C6,40.486 10.486,36 16,36 C21.514,36 26,40.486 26,46 L26,48 L26,48 Z" id="Shape" fill="#000000"></path>
        <path d="M48,34 C41.383,34 36,39.383 36,46 L36,49 C36,49.553 36.448,50 37,50 L59,50 C59.552,50 60,49.553 60,49 L60,46 C60,39.383 54.617,34 48,34 L48,34 Z M58,48 L38,48 L38,46 C38,40.486 42.486,36 48,36 C53.514,36 58,40.486 58,46 L58,48 L58,48 Z" id="Shape" fill="#000000"></path>
        <path d="M24.829,28.242 C25.024,28.437 25.28,28.535 25.536,28.535 C25.792,28.535 26.048,28.437 26.243,28.242 C27.376,27.109 28,25.602 28,24 C28,22.398 27.376,20.891 26.243,19.758 C25.852,19.367 25.22,19.367 24.829,19.758 C24.438,20.149 24.438,20.781 24.829,21.172 C25.584,21.928 26,22.932 26,24 C26,25.068 25.584,26.072 24.829,26.828 C24.438,27.219 24.438,27.852 24.829,28.242 L24.829,28.242 Z" id="Shape" fill="#000000"></path>
        <path d="M29.071,16.929 C28.68,16.538 28.048,16.538 27.657,16.929 C27.266,17.32 27.266,17.952 27.657,18.343 C29.168,19.854 30,21.864 30,24 C30,26.136 29.168,28.146 27.657,29.657 C27.266,30.048 27.266,30.68 27.657,31.071 C27.852,31.266 28.108,31.364 28.364,31.364 C28.62,31.364 28.876,31.266 29.071,31.071 C30.96,29.182 32,26.671 32,24 C32,21.329 30.96,18.817 29.071,16.929 L29.071,16.929 Z" id="Shape" fill="#000000"></path>
        <path d="M30.778,14.808 C30.387,15.199 30.387,15.831 30.778,16.222 C35.067,20.511 35.067,27.49 30.778,31.779 C30.387,32.17 30.387,32.802 30.778,33.193 C30.973,33.388 31.229,33.486 31.485,33.486 C31.741,33.486 31.997,33.388 32.192,33.193 C37.26,28.125 37.26,19.877 32.192,14.808 C31.802,14.417 31.169,14.417 30.778,14.808 L30.778,14.808 Z" id="Shape" fill="#000000"></path>
    </g>
</svg>