<?xml version="1.0" encoding="UTF-8" standalone="no"?>
<svg width="64px" height="64px" viewBox="0 0 64 64" version="1.1" xmlns="http://www.w3.org/2000/svg" xmlns:xlink="http://www.w3.org/1999/xlink">
    <!-- Generator: Sketch 3.7.2 (28276) - http://www.bohemiancoding.com/sketch -->
    <title>cha-z</title>
    <desc>Created with Sketch.</desc>
    <defs></defs>
    <g id="64px-Line" stroke="none" stroke-width="1" fill="none" fill-rule="evenodd">
        <g id="cha-z"></g>
        <path d="M31,6 C16.112,6 4,18.112 4,33 C4,47.888 16.112,60 31,60 C45.888,60 58,47.888 58,33 C58,18.112 45.888,6 31,6 L31,6 Z M31,58 C17.215,58 6,46.785 6,33 C6,19.215 17.215,8 31,8 C44.785,8 56,19.215 56,33 C56,46.785 44.785,58 31,58 L31,58 Z" id="Shape" fill="#000000"></path>
        <path d="M39,42 L25.081,42 L39.781,23.625 C40.021,23.324 40.067,22.913 39.901,22.566 C39.734,22.221 39.385,22 39,22 L23,22 C22.447,22 22,22.447 22,23 C22,23.553 22.447,24 23,24 L36.919,24 L22.219,42.375 C21.979,42.676 21.933,43.087 22.099,43.434 C22.266,43.78 22.616,44 23,44 L39,44 C39.553,44 40,43.553 40,43 C40,42.447 39.553,42 39,42 L39,42 Z" id="Shape" fill="#000000"></path>
    </g>
</svg>