<?xml version="1.0" encoding="UTF-8" standalone="no"?>
<svg width="64px" height="64px" viewBox="0 0 64 64" version="1.1" xmlns="http://www.w3.org/2000/svg" xmlns:xlink="http://www.w3.org/1999/xlink">
    <!-- Generator: Sketch 3.7.2 (28276) - http://www.bohemiancoding.com/sketch -->
    <title>spe-round</title>
    <desc>Created with Sketch.</desc>
    <defs></defs>
    <g id="64px-Line" stroke="none" stroke-width="1" fill="none" fill-rule="evenodd">
        <g id="spe-round"></g>
        <path d="M31,6 C15.859,6 4,16.542 4,30 C4,37.504 7.672,44.021 14.628,48.884 C13.707,52.213 10.273,56.312 10.236,56.355 C9.972,56.667 9.924,57.109 10.117,57.47 C10.292,57.798 10.634,58 11,58 C11.036,58 11.072,57.998 11.108,57.994 C11.381,57.964 17.747,57.229 23.66,53.065 C26.037,53.686 28.504,54 31,54 C46.141,54 58,43.458 58,30 C58,16.542 46.141,6 31,6 L31,6 Z M31,52 C28.521,52 26.075,51.667 23.73,51.011 C23.433,50.928 23.118,50.986 22.869,51.168 C19.458,53.67 15.758,54.919 13.387,55.513 C14.658,53.702 16.283,51.033 16.728,48.682 C16.799,48.388 16.737,48.066 16.537,47.816 C16.459,47.718 16.364,47.638 16.261,47.577 C9.451,43.004 6,37.09 6,30 C6,17.664 16.981,8 31,8 C45.019,8 56,17.664 56,30 C56,42.336 45.019,52 31,52 L31,52 Z" id="Shape" fill="#000000"></path>
    </g>
</svg>