<?xml version="1.0" encoding="UTF-8" standalone="no"?>
<svg width="64px" height="64px" viewBox="0 0 64 64" version="1.1" xmlns="http://www.w3.org/2000/svg" xmlns:xlink="http://www.w3.org/1999/xlink">
    <!-- Generator: Sketch 3.7.2 (28276) - http://www.bohemiancoding.com/sketch -->
    <title>cha-8</title>
    <desc>Created with Sketch.</desc>
    <defs></defs>
    <g id="64px-Line" stroke="none" stroke-width="1" fill="none" fill-rule="evenodd">
        <g id="cha-8"></g>
        <path d="M31,6 C16.112,6 4,18.112 4,33 C4,47.888 16.112,60 31,60 C45.888,60 58,47.888 58,33 C58,18.112 45.888,6 31,6 L31,6 Z M31,58 C17.215,58 6,46.785 6,33 C6,19.215 17.215,8 31,8 C44.785,8 56,19.215 56,33 C56,46.785 44.785,58 31,58 L31,58 Z" id="Shape" fill="#000000"></path>
        <path d="M35.118,31.938 C36.861,30.937 38,29.323 38,27.5 C38,24.468 34.86,22 31,22 C27.14,22 24,24.468 24,27.5 C24,29.323 25.139,30.936 26.882,31.938 C24.56,33.077 23,35.141 23,37.5 C23,41.084 26.589,44 31,44 C35.411,44 39,41.084 39,37.5 C39,35.141 37.439,33.077 35.118,31.938 L35.118,31.938 Z M26,27.5 C26,25.603 28.29,24 31,24 C33.71,24 36,25.603 36,27.5 C36,29.397 33.71,31 31,31 C28.29,31 26,29.397 26,27.5 L26,27.5 Z M31,42 C27.691,42 25,39.981 25,37.5 C25,35.019 27.691,33 31,33 C34.309,33 37,35.019 37,37.5 C37,39.981 34.309,42 31,42 L31,42 Z" id="Shape" fill="#000000"></path>
    </g>
</svg>