<?xml version="1.0" encoding="UTF-8" standalone="no"?>
<svg width="64px" height="64px" viewBox="0 0 64 64" version="1.1" xmlns="http://www.w3.org/2000/svg" xmlns:xlink="http://www.w3.org/1999/xlink">
    <!-- Generator: Sketch 3.7.2 (28276) - http://www.bohemiancoding.com/sketch -->
    <title>spe-bubble-female</title>
    <desc>Created with Sketch.</desc>
    <defs></defs>
    <g id="64px-Line" stroke="none" stroke-width="1" fill="none" fill-rule="evenodd">
        <g id="spe-bubble-female"></g>
        <path d="M20,24 L25,24 C25.379,24 25.725,23.786 25.895,23.447 L27,21.236 L28.105,23.447 C28.281,23.798 28.633,24 29.001,24 C29.151,24 29.304,23.966 29.447,23.895 C29.941,23.648 30.141,23.047 29.894,22.553 L27.894,18.553 C27.554,17.875 26.445,17.875 26.105,18.553 L24.382,22 L20.069,22 C20.488,18.525 23.052,14.822 27.484,14.117 C28.029,14.03 28.401,13.518 28.314,12.972 C28.227,12.427 27.725,12.051 27.169,12.142 C21.214,13.09 18,18.443 18,23 L18,25 C18,30.47 16.104,31.777 15.087,32.479 C14.603,32.813 14,33.229 14,34 C14,36.479 22.736,38 29,38 C35.131,38 44,36.575 44,34 C44,33.204 43.406,32.789 42.882,32.423 C42.273,31.997 41.439,31.415 40.822,30 C40.601,29.495 40.012,29.262 39.506,29.482 C39,29.703 38.768,30.292 38.988,30.798 C39.781,32.616 40.884,33.462 41.606,33.97 C40.486,34.532 37.766,35.315 34.042,35.725 C34.713,34.974 35.305,34.053 35.798,32.931 C36.021,32.426 35.791,31.835 35.285,31.614 C34.778,31.39 34.188,31.621 33.968,32.127 C32.806,34.77 31.228,36 29,36 C27.112,36 24.434,35.252 22.976,28.78 C22.873,28.324 22.468,28 22,28 C21.033,28 20,27.475 20,26 L20,24 L20,24 Z M21.195,29.933 C21.838,32.452 22.763,34.378 23.955,35.721 C20.229,35.3 17.599,34.496 16.46,33.961 C17.388,33.304 18.808,32.114 19.534,29.226 C20.006,29.572 20.561,29.823 21.195,29.933 L21.195,29.933 Z" id="Shape" fill="#000000"></path>
        <path d="M35.438,38.338 C35.37,38.331 35.306,38.35 35.239,38.349 C35.211,38.351 35.185,38.342 35.156,38.346 C35.148,38.347 35.142,38.353 35.134,38.354 C34.371,38.391 33.672,38.83 33.369,39.544 C31.834,43.167 29.689,45.914 29.01,45.999 C28.315,45.912 26.17,43.163 24.634,39.544 C24.333,38.834 23.636,38.396 22.873,38.356 C22.864,38.354 22.857,38.348 22.848,38.346 C22.815,38.341 22.785,38.351 22.752,38.349 C22.687,38.349 22.625,38.331 22.56,38.338 C12.539,39.518 5.942,42.181 4.021,51.804 C4.008,51.868 4.001,51.934 4.001,51.999 C4.001,54.737 7.302,56.393 13.813,56.92 C16.556,59.771 26.05,60 29,60 C31.95,60 41.444,59.771 44.188,56.921 C50.7,56.394 54,54.738 54,52 C54,51.935 53.993,51.868 53.98,51.804 C52.057,42.182 45.461,39.518 35.438,38.338 L35.438,38.338 Z M34.682,41.474 L35.753,47.657 L31.434,46.578 C32.813,45.104 34.023,42.841 34.682,41.474 L34.682,41.474 Z M26.569,46.577 L22.248,47.657 L23.32,41.473 C23.98,42.84 25.19,45.103 26.569,46.577 L26.569,46.577 Z M43.617,54.959 C43.313,54.98 43.035,55.141 42.863,55.393 C41.696,57.104 35.006,58 29,58 C22.994,58 16.304,57.104 15.137,55.393 C14.965,55.141 14.687,54.981 14.383,54.959 C9.388,54.6 6.127,53.476 6.004,52.082 C7.64,44.111 12.924,41.663 21.459,40.499 L20.015,48.829 C19.957,49.162 20.072,49.502 20.32,49.732 C20.507,49.906 20.75,50 21,50 C21.081,50 21.162,49.99 21.242,49.97 L29,48.032 L36.758,49.97 C37.086,50.054 37.432,49.963 37.681,49.733 C37.929,49.504 38.043,49.164 37.986,48.83 L36.544,40.499 C45.076,41.663 50.359,44.114 51.997,52.083 C51.873,53.476 48.612,54.6 43.617,54.959 L43.617,54.959 Z" id="Shape" fill="#000000"></path>
        <path d="M45,4 C36.729,4 30,9.383 30,16 C30,18.696 31.13,21.309 33.194,23.413 L32.023,28.787 C31.938,29.174 32.089,29.573 32.41,29.808 C32.585,29.936 32.792,30 33,30 C33.172,30 33.344,29.956 33.499,29.866 L38.671,26.887 C40.656,27.626 42.782,28 45,28 C53.271,28 60,22.617 60,16 C60,9.383 53.271,4 45,4 L45,4 Z M45,26 C42.897,26 40.811,25.604 38.964,24.854 C38.679,24.739 38.356,24.76 38.089,24.915 L34.458,27.007 L35.262,23.324 C35.317,23.099 35.294,22.856 35.185,22.637 C35.124,22.516 35.041,22.411 34.944,22.327 C33.045,20.545 32,18.299 32,16 C32,10.486 37.832,6 45,6 C52.168,6 58,10.486 58,16 C58,21.514 52.168,26 45,26 L45,26 Z" id="Shape" fill="#000000"></path>
    </g>
</svg>