<?xml version="1.0" encoding="UTF-8" standalone="no"?>
<svg width="64px" height="64px" viewBox="0 0 64 64" version="1.1" xmlns="http://www.w3.org/2000/svg" xmlns:xlink="http://www.w3.org/1999/xlink">
    <!-- Generator: Sketch 3.7.2 (28276) - http://www.bohemiancoding.com/sketch -->
    <title>spe-rect-smiley</title>
    <desc>Created with Sketch.</desc>
    <defs></defs>
    <g id="64px-Line" stroke="none" stroke-width="1" fill="none" fill-rule="evenodd">
        <g id="spe-rect-smiley"></g>
        <path d="M8,48 L15,48 C15.551,48 16,48.448 16,49 L16,57 C16,57.396 16.233,57.754 16.595,57.914 C16.725,57.972 16.863,58 17,58 C17.244,58 17.485,57.91 17.673,57.74 L27.815,48.52 C28.184,48.184 28.662,47.999 29.16,47.999 L54,47.999 C56.206,47.999 58,46.205 58,43.999 L58,9.999 C58,7.793 56.206,5.999 54,5.999 L8,5.999 C5.794,5.999 4,7.793 4,9.999 L4,43.999 C4,46.206 5.794,48 8,48 L8,48 Z M6,10 C6,8.897 6.897,8 8,8 L54,8 C55.103,8 56,8.897 56,10 L56,44 C56,45.103 55.103,46 54,46 L29.16,46 C28.163,46 27.207,46.369 26.469,47.04 L18,54.739 L18,49 C18,47.346 16.654,46 15,46 L8,46 C6.897,46 6,45.103 6,44 L6,10 L6,10 Z" id="Shape" fill="#000000"></path>
        <path d="M36.306,37.719 C36.5,37.907 36.751,38 37.001,38 C37.262,38 37.522,37.898 37.718,37.696 C37.893,37.516 42,33.209 42,27 C42,20.791 37.893,16.484 37.718,16.304 C37.334,15.908 36.702,15.899 36.306,16.282 C35.91,16.666 35.899,17.299 36.281,17.695 C36.318,17.734 40,21.622 40,27.001 C40,32.38 36.318,36.268 36.281,36.307 C35.898,36.702 35.909,37.335 36.306,37.719 L36.306,37.719 Z" id="Shape" fill="#000000"></path>
        <path d="M27,24 C28.654,24 30,22.654 30,21 C30,19.346 28.654,18 27,18 C25.346,18 24,19.346 24,21 C24,22.654 25.346,24 27,24 L27,24 Z M27,20 C27.551,20 28,20.448 28,21 C28,21.552 27.551,22 27,22 C26.449,22 26,21.552 26,21 C26,20.448 26.449,20 27,20 L27,20 Z" id="Shape" fill="#000000"></path>
        <path d="M27,36 C28.654,36 30,34.654 30,33 C30,31.346 28.654,30 27,30 C25.346,30 24,31.346 24,33 C24,34.654 25.346,36 27,36 L27,36 Z M27,32 C27.551,32 28,32.448 28,33 C28,33.552 27.551,34 27,34 C26.449,34 26,33.552 26,33 C26,32.448 26.449,32 27,32 L27,32 Z" id="Shape" fill="#000000"></path>
    </g>
</svg>