<?xml version="1.0" encoding="UTF-8" standalone="no"?>
<svg width="64px" height="64px" viewBox="0 0 64 64" version="1.1" xmlns="http://www.w3.org/2000/svg" xmlns:xlink="http://www.w3.org/1999/xlink">
    <!-- Generator: Sketch 3.7.2 (28276) - http://www.bohemiancoding.com/sketch -->
    <title>cha-brackets</title>
    <desc>Created with Sketch.</desc>
    <defs></defs>
    <g id="64px-Line" stroke="none" stroke-width="1" fill="none" fill-rule="evenodd">
        <g id="cha-brackets"></g>
        <path d="M31,6 C16.112,6 4,18.112 4,33 C4,47.888 16.112,60 31,60 C45.888,60 58,47.888 58,33 C58,18.112 45.888,6 31,6 L31,6 Z M31,58 C17.215,58 6,46.785 6,33 C6,19.215 17.215,8 31,8 C44.785,8 56,19.215 56,33 C56,46.785 44.785,58 31,58 L31,58 Z" id="Shape" fill="#000000"></path>
        <path d="M25.606,21.795 C26.043,21.462 26.129,20.84 25.799,20.4 C25.468,19.958 24.84,19.868 24.4,20.2 C24.22,20.335 20,23.608 20,33 C20,42.392 24.221,45.665 24.4,45.8 C24.579,45.934 24.788,45.999 24.995,45.999 C25.296,45.999 25.594,45.863 25.791,45.604 C26.124,45.168 26.04,44.542 25.607,44.205 C25.571,44.177 22,41.301 22,33 C22,24.729 25.545,21.844 25.606,21.795 L25.606,21.795 Z" id="Shape" fill="#000000"></path>
        <path d="M37.6,20.2 C37.162,19.871 36.542,19.959 36.209,20.395 C35.876,20.831 35.96,21.457 36.393,21.794 C36.429,21.823 40,24.699 40,33 C40,41.301 36.429,44.177 36.4,44.2 C35.958,44.531 35.868,45.158 36.2,45.6 C36.396,45.862 36.696,46 37.001,46 C37.21,46 37.42,45.935 37.6,45.8 C37.78,45.665 42,42.392 42,33 C42,23.608 37.779,20.335 37.6,20.2 L37.6,20.2 Z" id="Shape" fill="#000000"></path>
    </g>
</svg>