<?xml version="1.0" encoding="UTF-8" standalone="no"?>
<svg width="64px" height="64px" viewBox="0 0 64 64" version="1.1" xmlns="http://www.w3.org/2000/svg" xmlns:xlink="http://www.w3.org/1999/xlink">
    <!-- Generator: Sketch 3.7.2 (28276) - http://www.bohemiancoding.com/sketch -->
    <title>spe-rect-music</title>
    <desc>Created with Sketch.</desc>
    <defs></defs>
    <g id="64px-Line" stroke="none" stroke-width="1" fill="none" fill-rule="evenodd">
        <g id="spe-rect-music"></g>
        <path d="M54,6 L8,6 C5.794,6 4,7.794 4,10 L4,44 C4,46.206 5.794,48 8,48 L15,48 C15.551,48 16,48.448 16,49 L16,57 C16,57.396 16.233,57.754 16.595,57.914 C16.725,57.972 16.863,58 17,58 C17.244,58 17.485,57.91 17.673,57.74 L27.815,48.52 C28.184,48.184 28.662,47.999 29.16,47.999 L54,47.999 C56.206,47.999 58,46.205 58,43.999 L58,9.999 C58,7.794 56.206,6 54,6 L54,6 Z M56,44 C56,45.103 55.103,46 54,46 L29.16,46 C28.163,46 27.207,46.369 26.469,47.04 L18,54.739 L18,49 C18,47.346 16.654,46 15,46 L8,46 C6.897,46 6,45.103 6,44 L6,10 C6,8.897 6.897,8 8,8 L54,8 C55.103,8 56,8.897 56,10 L56,44 L56,44 Z" id="Shape" fill="#000000"></path>
        <path d="M40.816,14.018 L24.816,17.018 C24.343,17.105 24,17.519 24,18 L24,31.5 C24,31.775 23.776,32 23.5,32 L21,32 C18.056,32 16,33.645 16,36 C16,38.355 18.056,40 21,40 C23.944,40 26,38.355 26,36 L26,24.829 L40,22.204 L40,28.5 C40,28.775 39.776,29 39.5,29 L37,29 C34.056,29 32,30.645 32,33 C32,35.355 34.056,37 37,37 C39.944,37 42,35.355 42,33 L42,15 C42,14.702 41.868,14.421 41.639,14.23 C41.409,14.04 41.105,13.96 40.816,14.018 L40.816,14.018 Z M24,36 C24,37.477 22.384,38 21,38 C19.616,38 18,37.477 18,36 C18,34.523 19.616,34 21,34 L23.5,34 C23.671,34 23.838,33.982 24,33.95 L24,36 L24,36 Z M40,33 C40,34.477 38.384,35 37,35 C35.616,35 34,34.477 34,33 C34,31.523 35.616,31 37,31 L39.5,31 C39.671,31 39.838,30.982 40,30.95 L40,33 L40,33 Z M26,22.796 L26,18.831 L40,16.206 L40,20.171 L26,22.796 L26,22.796 Z" id="Shape" fill="#000000"></path>
    </g>
</svg>