<?xml version="1.0" encoding="UTF-8" standalone="no"?>
<svg width="64px" height="64px" viewBox="0 0 64 64" version="1.1" xmlns="http://www.w3.org/2000/svg" xmlns:xlink="http://www.w3.org/1999/xlink">
    <!-- Generator: Sketch 3.7.2 (28276) - http://www.bohemiancoding.com/sketch -->
    <title>spe-rect-swear</title>
    <desc>Created with Sketch.</desc>
    <defs></defs>
    <g id="64px-Line" stroke="none" stroke-width="1" fill="none" fill-rule="evenodd">
        <g id="spe-rect-swear"></g>
        <path d="M56,6 L8,6 C5.794,6 4,7.794 4,10 L4,44 C4,46.206 5.794,48 8,48 L15,48 C15.551,48 16,48.449 16,49 L16,57 C16,57.396 16.233,57.754 16.595,57.915 C16.726,57.972 16.863,58 17,58 C17.244,58 17.485,57.911 17.673,57.74 L27.815,48.521 C28.184,48.185 28.662,48 29.16,48 L56,48 C58.206,48 60,46.206 60,44 L60,10 C60,7.794 58.206,6 56,6 L56,6 Z M58,44 C58,45.103 57.103,46 56,46 L29.16,46 C28.163,46 27.207,46.37 26.469,47.041 L18,54.739 L18,49 C18,47.346 16.654,46 15,46 L8,46 C6.897,46 6,45.103 6,44 L6,10 C6,8.897 6.897,8 8,8 L56,8 C57.103,8 58,8.897 58,10 L58,44 L58,44 Z" id="Shape" fill="#000000"></path>
        <path d="M23,24 L21.054,24 L21.949,21.316 C22.124,20.792 21.841,20.226 21.317,20.051 C20.791,19.876 20.226,20.16 20.052,20.683 L18.946,24 L17.054,24 L17.949,21.316 C18.124,20.792 17.841,20.226 17.317,20.051 C16.792,19.876 16.226,20.16 16.052,20.683 L14.946,24 L12,24 C11.448,24 11,24.448 11,25 C11,25.552 11.448,26 12,26 L14.279,26 L13.612,28 L11,28 C10.448,28 10,28.448 10,29 C10,29.552 10.448,30 11,30 L12.946,30 L12.051,32.684 C11.876,33.208 12.159,33.774 12.683,33.949 C12.789,33.984 12.896,34 13,34 C13.419,34 13.809,33.735 13.949,33.316 L15.054,30 L16.946,30 L16.051,32.684 C15.876,33.208 16.159,33.774 16.683,33.949 C16.789,33.984 16.896,34 17,34 C17.419,34 17.809,33.735 17.949,33.316 L19.054,30 L22,30 C22.552,30 23,29.552 23,29 C23,28.448 22.552,28 22,28 L19.721,28 L20.388,26 L23,26 C23.552,26 24,25.552 24,25 C24,24.448 23.552,24 23,24 L23,24 Z M17.613,28 L15.721,28 L16.388,26 L18.28,26 L17.613,28 L17.613,28 Z" id="Shape" fill="#000000"></path>
        <path d="M52.684,24.051 L48,25.612 L48,21 C48,20.448 47.552,20 47,20 C46.448,20 46,20.448 46,21 L46,25.612 L41.316,24.051 C40.791,23.875 40.225,24.159 40.051,24.683 C39.876,25.207 40.159,25.773 40.683,25.948 L45.441,27.534 L42.167,32.445 C41.861,32.904 41.985,33.526 42.444,33.832 C42.903,34.138 43.524,34.014 43.831,33.555 L47,28.803 L50.168,33.555 C50.361,33.844 50.678,34 51.001,34 C51.191,34 51.384,33.946 51.555,33.832 C52.014,33.526 52.138,32.905 51.832,32.445 L48.558,27.534 L53.316,25.948 C53.84,25.773 54.123,25.207 53.948,24.683 C53.774,24.16 53.209,23.875 52.684,24.051 L52.684,24.051 Z" id="Shape" fill="#000000"></path>
        <path d="M33,24 C31.346,24 30,25.346 30,27 C30,28.654 31.346,30 33,30 C33.207,30 33.409,29.979 33.604,29.939 C36.074,29.637 38,27.55 38,25 C38,22.243 35.757,20 33,20 C29.14,20 26,23.14 26,27 C26,30.991 29.009,34 33,34 C34.398,34 35.883,33.507 37.415,32.534 C37.881,32.238 38.019,31.62 37.723,31.154 C37.427,30.688 36.808,30.55 36.343,30.846 C35.137,31.612 34.012,32 33,32 C30.103,32 28,29.897 28,27 C28,24.243 30.243,22 33,22 C34.654,22 36,23.346 36,25 C36,25.352 35.928,25.686 35.816,26 C35.402,24.839 34.302,24 33,24 L33,24 Z M33,26 C33.551,26 34,26.449 34,27 C34,27.551 33.551,28 33,28 C32.449,28 32,27.551 32,27 C32,26.449 32.449,26 33,26 L33,26 Z" id="Shape" fill="#000000"></path>
    </g>
</svg>