<?xml version="1.0" encoding="UTF-8" standalone="no"?>
<svg width="64px" height="64px" viewBox="0 0 64 64" version="1.1" xmlns="http://www.w3.org/2000/svg" xmlns:xlink="http://www.w3.org/1999/xlink">
    <!-- Generator: Sketch 3.7.2 (28276) - http://www.bohemiancoding.com/sketch -->
    <title>cha-number</title>
    <desc>Created with Sketch.</desc>
    <defs></defs>
    <g id="64px-Line" stroke="none" stroke-width="1" fill="none" fill-rule="evenodd">
        <g id="cha-number"></g>
        <path d="M31,6 C16.112,6 4,18.112 4,33 C4,47.888 16.112,60 31,60 C45.888,60 58,47.888 58,33 C58,18.112 45.888,6 31,6 L31,6 Z M31,58 C17.215,58 6,46.785 6,33 C6,19.215 17.215,8 31,8 C44.785,8 56,19.215 56,33 C56,46.785 44.785,58 31,58 L31,58 Z" id="Shape" fill="#000000"></path>
        <path d="M44,26 L39.18,26 L39.986,21.165 C40.077,20.62 39.709,20.105 39.164,20.014 C38.619,19.924 38.103,20.291 38.014,20.836 L37.153,26 L27.181,26 L27.987,21.165 C28.078,20.62 27.71,20.105 27.165,20.014 C26.617,19.924 26.104,20.291 26.015,20.836 L25.153,26 L20,26 C19.447,26 19,26.448 19,27 C19,27.552 19.447,28 20,28 L24.82,28 L23.153,38 L18,38 C17.447,38 17,38.448 17,39 C17,39.552 17.447,40 18,40 L22.82,40 L22.014,44.835 C21.923,45.38 22.291,45.895 22.836,45.986 C22.892,45.995 22.946,46 23.001,46 C23.481,46 23.905,45.653 23.986,45.165 L24.847,40 L34.819,40 L34.013,44.835 C33.922,45.38 34.29,45.895 34.835,45.986 C34.891,45.995 34.945,46 35,46 C35.48,46 35.904,45.653 35.985,45.165 L36.846,40 L42,40 C42.553,40 43,39.552 43,39 C43,38.448 42.553,38 42,38 L37.18,38 L38.847,28 L44,28 C44.553,28 45,27.552 45,27 C45,26.448 44.553,26 44,26 L44,26 Z M35.153,38 L25.181,38 L26.848,28 L36.82,28 L35.153,38 L35.153,38 Z" id="Shape" fill="#000000"></path>
    </g>
</svg>