<?xml version="1.0" encoding="UTF-8" standalone="no"?>
<svg width="64px" height="64px" viewBox="0 0 64 64" version="1.1" xmlns="http://www.w3.org/2000/svg" xmlns:xlink="http://www.w3.org/1999/xlink">
    <!-- Generator: Sketch 3.7.2 (28276) - http://www.bohemiancoding.com/sketch -->
    <title>cha-h</title>
    <desc>Created with Sketch.</desc>
    <defs></defs>
    <g id="64px-Line" stroke="none" stroke-width="1" fill="none" fill-rule="evenodd">
        <g id="cha-h"></g>
        <path d="M31,6 C16.112,6 4,18.112 4,33 C4,47.888 16.112,60 31,60 C45.888,60 58,47.888 58,33 C58,18.112 45.888,6 31,6 L31,6 Z M31,58 C17.215,58 6,46.785 6,33 C6,19.215 17.215,8 31,8 C44.785,8 56,19.215 56,33 C56,46.785 44.785,58 31,58 L31,58 Z" id="Shape" fill="#000000"></path>
        <path d="M39,22 C38.448,22 38,22.447 38,23 L38,32 L24,32 L24,23 C24,22.447 23.552,22 23,22 C22.448,22 22,22.447 22,23 L22,43 C22,43.553 22.448,44 23,44 C23.552,44 24,43.553 24,43 L24,34 L38,34 L38,43 C38,43.553 38.448,44 39,44 C39.552,44 40,43.553 40,43 L40,23 C40,22.447 39.552,22 39,22 L39,22 Z" id="Shape" fill="#000000"></path>
    </g>
</svg>