<?xml version="1.0" encoding="UTF-8" standalone="no"?>
<svg width="64px" height="64px" viewBox="0 0 64 64" version="1.1" xmlns="http://www.w3.org/2000/svg" xmlns:xlink="http://www.w3.org/1999/xlink">
    <!-- Generator: Sketch 3.7.2 (28276) - http://www.bohemiancoding.com/sketch -->
    <title>cha-q</title>
    <desc>Created with Sketch.</desc>
    <defs></defs>
    <g id="64px-Line" stroke="none" stroke-width="1" fill="none" fill-rule="evenodd">
        <g id="cha-q"></g>
        <path d="M31,6 C16.112,6 4,18.112 4,33 C4,47.888 16.112,60 31,60 C45.888,60 58,47.888 58,33 C58,18.112 45.888,6 31,6 L31,6 Z M31,58 C17.215,58 6,46.785 6,33 C6,19.215 17.215,8 31,8 C44.785,8 56,19.215 56,33 C56,46.785 44.785,58 31,58 L31,58 Z" id="Shape" fill="#000000"></path>
        <path d="M42,32 C42,25.383 37.065,20 31,20 C24.935,20 20,25.383 20,32 C20,38.617 24.935,44 31,44 C32.869,44 34.628,43.486 36.171,42.585 L38.293,44.707 C38.488,44.902 38.744,45 39,45 C39.256,45 39.512,44.902 39.707,44.707 C40.098,44.316 40.098,43.684 39.707,43.293 L37.815,41.401 C40.36,39.202 42,35.809 42,32 L42,32 Z M32.293,38.707 L34.694,41.108 C33.566,41.676 32.317,42 31,42 C26.038,42 22,37.514 22,32 C22,26.486 26.038,22 31,22 C35.962,22 40,26.486 40,32 C40,35.263 38.58,38.156 36.397,39.983 L33.707,37.293 C33.316,36.902 32.684,36.902 32.293,37.293 C31.902,37.684 31.902,38.316 32.293,38.707 L32.293,38.707 Z" id="Shape" fill="#000000"></path>
    </g>
</svg>