<?xml version="1.0" encoding="UTF-8" standalone="no"?>
<svg width="64px" height="64px" viewBox="0 0 64 64" version="1.1" xmlns="http://www.w3.org/2000/svg" xmlns:xlink="http://www.w3.org/1999/xlink">
    <!-- Generator: Sketch 3.7.2 (28276) - http://www.bohemiancoding.com/sketch -->
    <title>spe-rect-warning</title>
    <desc>Created with Sketch.</desc>
    <defs></defs>
    <g id="64px-Line" stroke="none" stroke-width="1" fill="none" fill-rule="evenodd">
        <g id="spe-rect-warning"></g>
        <path d="M54,6 L8,6 C5.794,6 4,7.794 4,10 L4,44 C4,46.206 5.794,48 8,48 L15,48 C15.552,48 16,48.448 16,49 L16,57 C16,57.396 16.233,57.754 16.596,57.914 C16.726,57.972 16.864,58 17,58 C17.244,58 17.485,57.91 17.673,57.74 L27.814,48.52 C28.184,48.184 28.663,47.999 29.161,47.999 L54,47.999 C56.206,47.999 58,46.205 58,43.999 L58,9.999 C58,7.794 56.206,6 54,6 L54,6 Z M56,44 C56,45.103 55.103,46 54,46 L29.16,46 C28.163,46 27.208,46.369 26.469,47.04 L18,54.739 L18,49 C18,47.346 16.654,46 15,46 L8,46 C6.897,46 6,45.103 6,44 L6,10 C6,8.897 6.897,8 8,8 L54,8 C55.103,8 56,8.897 56,10 L56,44 L56,44 Z" id="Shape" fill="#000000"></path>
        <path d="M45.533,34.128 L34.252,15.671 C33.502,14.625 32.286,14 31,14 C29.713,14 28.497,14.625 27.707,15.733 L16.467,34.128 C16.445,34.166 16.424,34.205 16.405,34.245 C16.364,34.34 16,35.188 16,36 C16,38.206 17.794,40 20,40 L42,40 C44.206,40 46,38.206 46,36 C46,35.188 45.636,34.34 45.595,34.245 C45.576,34.205 45.556,34.166 45.533,34.128 L45.533,34.128 Z M42,38 L20,38 C18.897,38 18,37.103 18,36 C18,35.728 18.123,35.33 18.213,35.106 L29.373,16.836 C29.749,16.312 30.356,15.999 31,15.999 C31.644,15.999 32.251,16.311 32.586,16.775 L43.787,35.105 C43.867,35.304 44,35.717 44,35.999 C44,37.103 43.103,38 42,38 L42,38 Z" id="Shape" fill="#000000"></path>
        <path d="M31,20 C30.447,20 30,20.447 30,21 L30,29 C30,29.553 30.447,30 31,30 C31.553,30 32,29.553 32,29 L32,21 C32,20.447 31.553,20 31,20 L31,20 Z" id="Shape" fill="#000000"></path>
        <path d="M31.71,32.29 C31.34,31.92 30.66,31.92 30.29,32.29 C30.2,32.39 30.13,32.5 30.08,32.62 C30.019,32.74 30,32.87 30,33 C30,33.27 30.1,33.52 30.29,33.71 C30.479,33.899 30.729,34 31,34 C31.27,34 31.52,33.899 31.71,33.71 C31.899,33.52 32,33.27 32,33 C32,32.87 31.979,32.74 31.92,32.62 C31.87,32.5 31.8,32.39 31.71,32.29 L31.71,32.29 Z" id="Shape" fill="#000000"></path>
    </g>
</svg>