<?xml version="1.0" encoding="UTF-8" standalone="no"?>
<svg width="64px" height="64px" viewBox="0 0 64 64" version="1.1" xmlns="http://www.w3.org/2000/svg" xmlns:xlink="http://www.w3.org/1999/xlink">
    <!-- Generator: Sketch 3.7.2 (28276) - http://www.bohemiancoding.com/sketch -->
    <title>cha-m</title>
    <desc>Created with Sketch.</desc>
    <defs></defs>
    <g id="64px-Line" stroke="none" stroke-width="1" fill="none" fill-rule="evenodd">
        <g id="cha-m"></g>
        <path d="M31,6 C16.112,6 4,18.112 4,33 C4,47.888 16.112,60 31,60 C45.888,60 58,47.888 58,33 C58,18.112 45.888,6 31,6 L31,6 Z M31,58 C17.215,58 6,46.785 6,33 C6,19.215 17.215,8 31,8 C44.785,8 56,19.215 56,33 C56,46.785 44.785,58 31,58 L31,58 Z" id="Shape" fill="#000000"></path>
        <path d="M41.229,22.026 C40.781,21.92 40.312,22.136 40.105,22.552 L31,40.764 L21.895,22.553 C21.688,22.137 21.217,21.921 20.771,22.027 C20.32,22.134 20,22.537 20,23.001 L20,43.001 C20,43.554 20.447,44.001 21,44.001 C21.553,44.001 22,43.554 22,43.001 L22,27.237 L30.105,43.448 C30.445,44.126 31.554,44.126 31.894,43.448 L40,27.236 L40,43 C40,43.553 40.447,44 41,44 C41.553,44 42,43.553 42,43 L42,23 C42,22.536 41.681,22.134 41.229,22.026 L41.229,22.026 Z" id="Shape" fill="#000000"></path>
    </g>
</svg>