<?xml version="1.0" encoding="UTF-8" standalone="no"?>
<svg width="64px" height="64px" viewBox="0 0 64 64" version="1.1" xmlns="http://www.w3.org/2000/svg" xmlns:xlink="http://www.w3.org/1999/xlink">
    <!-- Generator: Sketch 3.7.2 (28276) - http://www.bohemiancoding.com/sketch -->
    <title>cha-u</title>
    <desc>Created with Sketch.</desc>
    <defs></defs>
    <g id="64px-Line" stroke="none" stroke-width="1" fill="none" fill-rule="evenodd">
        <g id="cha-u"></g>
        <path d="M31,6 C16.112,6 4,18.112 4,33 C4,47.888 16.112,60 31,60 C45.888,60 58,47.888 58,33 C58,18.112 45.888,6 31,6 L31,6 Z M31,58 C17.215,58 6,46.785 6,33 C6,19.215 17.215,8 31,8 C44.785,8 56,19.215 56,33 C56,46.785 44.785,58 31,58 L31,58 Z" id="Shape" fill="#000000"></path>
        <path d="M39,22 C38.448,22 38,22.447 38,23 L38,35 C38,38.859 34.86,42 31,42 C27.14,42 24,38.859 24,35 L24,23 C24,22.447 23.552,22 23,22 C22.448,22 22,22.447 22,23 L22,35 C22,39.963 26.038,44 31,44 C35.962,44 40,39.963 40,35 L40,23 C40,22.447 39.552,22 39,22 L39,22 Z" id="Shape" fill="#000000"></path>
    </g>
</svg>