<?xml version="1.0" encoding="UTF-8" standalone="no"?>
<svg width="64px" height="64px" viewBox="0 0 64 64" version="1.1" xmlns="http://www.w3.org/2000/svg" xmlns:xlink="http://www.w3.org/1999/xlink">
    <!-- Generator: Sketch 3.7.2 (28276) - http://www.bohemiancoding.com/sketch -->
    <title>cha-ampersand</title>
    <desc>Created with Sketch.</desc>
    <defs></defs>
    <g id="64px-Line" stroke="none" stroke-width="1" fill="none" fill-rule="evenodd">
        <g id="cha-ampersand"></g>
        <path d="M31,6 C16.112,6 4,18.112 4,33 C4,47.888 16.112,60 31,60 C45.888,60 58,47.888 58,33 C58,18.112 45.888,6 31,6 L31,6 Z M31,58 C17.215,58 6,46.785 6,33 C6,19.215 17.215,8 31,8 C44.785,8 56,19.215 56,33 C56,46.785 44.785,58 31,58 L31,58 Z" id="Shape" fill="#000000"></path>
        <path d="M37.076,39.187 C37.652,38.033 38,36.646 38,35 C38,34.448 37.552,34 37,34 C36.448,34 36,34.448 36,35 C36,35.948 35.852,36.786 35.593,37.521 C34.701,36.52 33.731,35.434 32.745,34.333 C32.287,33.821 31.815,33.306 31.347,32.795 C31.161,32.592 30.969,32.381 30.772,32.166 C33.041,30.673 35,29.176 35,27 C35,24.595 33.088,22 30,22 C27.583,22 25,23.313 25,27 C25,28.276 26.001,29.756 27.733,31.762 C25.326,33.371 23,35.252 23,38 C23,41.589 25.411,44 29,44 C31.121,44 33.999,43.093 35.923,40.9 C37.395,42.554 38.376,43.662 38.376,43.663 C38.574,43.886 38.849,44 39.125,44 C39.36,44 39.597,43.917 39.788,43.749 C40.202,43.383 40.24,42.751 39.873,42.337 C39.874,42.337 38.737,41.054 37.076,39.187 L37.076,39.187 Z M27,27 C27,24.521 28.631,24 30,24 C31.878,24 33,25.525 33,27 C33,28.223 31.265,29.457 29.425,30.658 C28.128,29.165 27,27.701 27,27 L27,27 Z M29,42 C26.533,42 25,40.467 25,38 C25,36.159 26.948,34.675 29.075,33.271 C29.331,33.553 29.596,33.844 29.872,34.146 C30.335,34.651 30.801,35.161 31.255,35.667 C32.414,36.961 33.551,38.236 34.566,39.375 C33.072,41.235 30.717,42 29,42 L29,42 Z" id="Shape" fill="#000000"></path>
    </g>
</svg>