<?xml version="1.0" encoding="UTF-8" standalone="no"?>
<svg width="44px" height="44px" viewBox="0 0 44 44" version="1.1" xmlns="http://www.w3.org/2000/svg" xmlns:xlink="http://www.w3.org/1999/xlink">
    <!-- Generator: Sketch 3.7.2 (28276) - http://www.bohemiancoding.com/sketch -->
    <title>cle-squeegee</title>
    <desc>Created with Sketch.</desc>
    <defs></defs>
    <g id="44px-Line" stroke="none" stroke-width="1" fill="none" fill-rule="evenodd">
        <g id="cle-squeegee"></g>
        <path d="M31.876,25.508 L38.844,18.699 C39.625,17.935 40.056,16.918 40.056,15.835 C40.056,14.751 39.625,13.733 38.844,12.97 L36.644,10.821 C36.255,10.44 35.634,10.44 35.246,10.821 L34.848,11.21 L32.347,8.748 C31.959,8.366 31.336,8.363 30.947,8.746 L8.949,30.242 C8.758,30.43 8.649,30.686 8.648,30.955 C8.647,31.224 8.755,31.481 8.947,31.67 L11.419,34.105 L11.048,34.467 C10.856,34.655 10.747,34.912 10.747,35.182 C10.747,35.452 10.855,35.709 11.048,35.897 L13.248,38.046 C14.847,39.608 17.445,39.61 19.046,38.046 L27.147,30.132 L38.546,41.271 C39.042,41.756 39.693,41.999 40.346,41.999 C40.997,41.999 41.649,41.757 42.145,41.271 L43.244,40.198 C43.733,39.72 44.002,39.085 44.002,38.407 C44.002,37.729 43.733,37.094 43.245,36.617 L31.876,25.508 L31.876,25.508 Z M11.074,30.959 L31.641,10.86 L33.416,12.607 L12.848,32.705 L11.074,30.959 L11.074,30.959 Z M41.845,38.766 L40.745,39.84 C40.527,40.053 40.159,40.05 39.943,39.84 L27.844,28.018 C27.65,27.828 27.397,27.733 27.145,27.733 C26.893,27.733 26.64,27.828 26.446,28.018 L17.646,36.616 C16.819,37.425 15.47,37.425 14.645,36.616 L13.176,35.181 L13.558,34.808 L13.558,34.808 L13.558,34.808 L35.557,13.312 L35.557,13.312 L35.557,13.312 L35.944,12.934 L37.445,14.4 C37.839,14.785 38.055,15.295 38.055,15.836 C38.055,16.376 37.838,16.886 37.445,17.271 L29.746,24.794 C29.554,24.982 29.445,25.239 29.445,25.509 C29.445,25.779 29.553,26.036 29.746,26.224 L41.846,38.047 C41.946,38.145 42,38.272 42,38.406 C42,38.54 41.945,38.667 41.845,38.766 L41.845,38.766 Z" id="Shape" fill="#000000"></path>
        <path d="M0.282,22.063 C-0.103,22.459 -0.093,23.093 0.303,23.477 L6.08,29.078 C6.274,29.266 6.525,29.36 6.776,29.36 C7.037,29.36 7.297,29.258 7.494,29.056 C7.879,28.66 7.869,28.026 7.473,27.642 L1.696,22.041 C1.3,21.658 0.668,21.667 0.282,22.063 L0.282,22.063 Z" id="Shape" fill="#000000"></path>
        <path d="M28.556,8.08 C28.818,8.08 29.079,7.977 29.275,7.775 C29.659,7.378 29.648,6.745 29.252,6.361 L25.029,2.281 C24.633,1.897 23.997,1.91 23.615,2.304 C23.231,2.701 23.242,3.334 23.638,3.718 L27.861,7.798 C28.055,7.986 28.306,8.08 28.556,8.08 L28.556,8.08 Z" id="Shape" fill="#000000"></path>
        <path d="M20.777,15.68 C21.038,15.68 21.298,15.578 21.494,15.377 C21.879,14.981 21.87,14.349 21.474,13.963 L9.474,2.283 C9.078,1.897 8.446,1.907 8.06,2.303 C7.675,2.699 7.684,3.331 8.08,3.717 L20.08,15.397 C20.274,15.586 20.525,15.68 20.777,15.68 L20.777,15.68 Z" id="Shape" fill="#000000"></path>
        <path d="M23.889,12.64 C24.152,12.64 24.414,12.537 24.611,12.332 C24.993,11.934 24.98,11.301 24.582,10.918 L21.916,8.358 C21.519,7.976 20.885,7.988 20.502,8.387 C20.12,8.785 20.133,9.418 20.531,9.801 L23.197,12.361 C23.39,12.547 23.64,12.64 23.889,12.64 L23.889,12.64 Z" id="Shape" fill="#000000"></path>
        <path d="M8.06,11.424 C7.675,11.82 7.685,12.453 8.081,12.838 L15.415,19.958 C15.609,20.146 15.86,20.24 16.111,20.24 C16.372,20.24 16.632,20.138 16.829,19.936 C17.214,19.54 17.204,18.907 16.808,18.522 L9.474,11.402 C9.077,11.018 8.445,11.027 8.06,11.424 L8.06,11.424 Z" id="Shape" fill="#000000"></path>
        <path d="M4.948,20.545 C4.564,20.942 4.575,21.575 4.971,21.959 L9.193,26.039 C9.387,26.227 9.638,26.32 9.888,26.32 C10.15,26.32 10.41,26.217 10.607,26.015 C10.991,25.618 10.98,24.985 10.584,24.601 L6.362,20.521 C5.965,20.138 5.332,20.15 4.948,20.545 L4.948,20.545 Z" id="Shape" fill="#000000"></path>
    </g>
</svg>