<?xml version="1.0" encoding="UTF-8" standalone="no"?>
<svg width="64px" height="64px" viewBox="0 0 64 64" version="1.1" xmlns="http://www.w3.org/2000/svg" xmlns:xlink="http://www.w3.org/1999/xlink">
    <!-- Generator: Sketch 3.7.2 (28276) - http://www.bohemiancoding.com/sketch -->
    <title>cle-wash</title>
    <desc>Created with Sketch.</desc>
    <defs></defs>
    <g id="64px-Glyph" stroke="none" stroke-width="1" fill="none" fill-rule="evenodd">
        <g id="cle-wash" fill="#000000">
            <path d="M59.2091,14.0547 C58.6821,13.8737 58.1171,14.1517 57.9381,14.6737 L56.7631,18.0817 C56.5151,18.0327 56.2621,17.9997 56.0001,17.9997 C54.0421,17.9997 53.0421,19.3197 52.2381,20.3797 C51.4551,21.4147 50.9641,21.9997 50.0001,21.9997 C49.0361,21.9997 48.5451,21.4147 47.7621,20.3797 C46.9581,19.3197 45.9581,17.9997 44.0001,17.9997 C42.0421,17.9997 41.0421,19.3197 40.2381,20.3797 C39.4551,21.4147 38.9641,21.9997 38.0001,21.9997 C37.0361,21.9997 36.5451,21.4147 35.7621,20.3797 C34.9581,19.3197 33.9581,17.9997 32.0001,17.9997 C30.0291,17.9997 28.9881,19.3377 28.1511,20.4127 C27.3621,21.4267 26.8731,21.9997 26.0001,21.9997 C25.1241,21.9997 24.6311,21.4237 23.8361,20.4067 C22.9981,19.3337 21.9561,17.9997 20.0001,17.9997 C18.0501,17.9997 17.0291,19.3257 16.2081,20.3897 C15.4151,21.4177 14.9211,21.9997 14.0001,21.9997 C13.0791,21.9997 12.5851,21.4177 11.7921,20.3897 C10.9711,19.3257 9.9501,17.9997 8.0001,17.9997 C7.7381,17.9997 7.4851,18.0327 7.2381,18.0827 L6.0631,14.6737 C5.8821,14.1517 5.3131,13.8747 4.7911,14.0547 C4.2691,14.2347 3.9921,14.8037 4.1721,15.3267 L14.2561,44.5807 C14.9381,46.6257 16.8441,47.9997 19.0001,47.9997 L45.0001,47.9997 C47.1561,47.9997 49.0621,46.6257 49.7401,44.5907 L59.8281,15.3267 C60.0081,14.8037 59.7301,14.2347 59.2091,14.0547" id="Fill-257"></path>
        </g>
    </g>
</svg>