<?xml version="1.0" encoding="UTF-8" standalone="no"?>
<svg width="44px" height="44px" viewBox="0 0 44 44" version="1.1" xmlns="http://www.w3.org/2000/svg" xmlns:xlink="http://www.w3.org/1999/xlink">
    <!-- Generator: Sketch 3.7.2 (28276) - http://www.bohemiancoding.com/sketch -->
    <title>cle-sponge</title>
    <desc>Created with Sketch.</desc>
    <defs></defs>
    <g id="44px-Line" stroke="none" stroke-width="1" fill="none" fill-rule="evenodd">
        <g id="cle-sponge"></g>
        <path d="M8.253,22.291 C6.403,24.141 5.656,26.65 6.151,29.358 C6.63,31.979 8.223,34.705 10.759,37.241 C13.917,40.399 17.276,42.026 20.275,42.025 C22.311,42.025 24.181,41.275 25.71,39.747 C27.634,37.823 28.256,35.964 28.805,34.324 C29.258,32.968 29.65,31.796 30.723,30.723 C31.796,29.65 32.967,29.258 34.325,28.805 C35.965,28.256 37.824,27.634 39.748,25.71 C43.527,21.931 42.543,16.063 37.241,10.76 C31.938,5.458 26.071,4.474 22.291,8.254 C20.367,10.178 19.745,12.037 19.196,13.677 C18.743,15.033 18.351,16.205 17.278,17.278 C16.205,18.351 15.034,18.743 13.676,19.196 C12.036,19.745 10.177,20.367 8.253,22.291 L8.253,22.291 Z M18.691,18.691 C20.097,17.285 20.603,15.773 21.092,14.31 C21.616,12.74 22.113,11.258 23.703,9.667 C24.82,8.55 26.205,8.004 27.739,8.004 C30.216,8.004 33.081,9.429 35.825,12.173 C40.267,16.616 41.252,21.374 38.332,24.295 C36.741,25.885 35.259,26.381 33.688,26.907 C32.225,27.396 30.713,27.902 29.307,29.308 C27.901,30.714 27.395,32.226 26.906,33.689 C26.382,35.259 25.885,36.741 24.295,38.332 C21.375,41.251 16.617,40.27 12.173,35.826 C9.926,33.578 8.524,31.217 8.118,28.998 C7.739,26.926 8.274,25.096 9.666,23.705 C11.257,22.115 12.739,21.619 14.31,21.093 C15.773,20.604 17.285,20.098 18.691,18.691 L18.691,18.691 Z" id="Shape" fill="#000000"></path>
        <path d="M43,37 C42.301,37 41,34.944 41,33 C41,32.448 40.553,32 40,32 C39.447,32 39,32.448 39,33 C39,34.944 37.699,37 37,37 C36.447,37 36,37.448 36,38 C36,38.552 36.447,39 37,39 C37.699,39 39,41.056 39,43 C39,43.552 39.447,44 40,44 C40.553,44 41,43.552 41,43 C41,41.056 42.301,39 43,39 C43.553,39 44,38.552 44,38 C44,37.448 43.553,37 43,37 L43,37 Z M40,39.268 C39.732,38.789 39.418,38.356 39.07,38 C39.418,37.645 39.732,37.212 40,36.732 C40.268,37.211 40.582,37.644 40.93,38 C40.582,38.355 40.268,38.788 40,39.268 L40,39.268 Z" id="Shape" fill="#000000"></path>
        <path d="M15,30 C15.553,30 16,29.552 16,29 C16,28.448 15.553,28 15,28 C14.448,28 14,27.551 14,27 C14,26.448 13.553,26 13,26 C12.447,26 12,26.448 12,27 C12,28.654 13.346,30 15,30 L15,30 Z" id="Shape" fill="#000000"></path>
        <path d="M25,30 C25.553,30 26,29.552 26,29 C26,28.448 25.553,28 25,28 C24.448,28 24,27.551 24,27 C24,26.448 23.553,26 23,26 C22.447,26 22,26.448 22,27 C22,28.654 23.346,30 25,30 L25,30 Z" id="Shape" fill="#000000"></path>
        <path d="M25,22 C25.553,22 26,21.552 26,21 C26,20.448 25.553,20 25,20 C24.448,20 24,19.551 24,19 C24,18.448 23.553,18 23,18 C22.447,18 22,18.448 22,19 C22,20.654 23.346,22 25,22 L25,22 Z" id="Shape" fill="#000000"></path>
        <path d="M35,22 C35.553,22 36,21.552 36,21 C36,20.448 35.553,20 35,20 C34.448,20 34,19.551 34,19 C34,18.448 33.553,18 33,18 C32.447,18 32,18.448 32,19 C32,20.654 33.346,22 35,22 L35,22 Z" id="Shape" fill="#000000"></path>
        <path d="M1,15 C1.699,15 3,17.056 3,19 C3,19.552 3.447,20 4,20 C4.553,20 5,19.552 5,19 C5,17.056 6.301,15 7,15 C7.553,15 8,14.552 8,14 C8,13.448 7.553,13 7,13 C6.301,13 5,10.944 5,9 C5,8.448 4.553,8 4,8 C3.447,8 3,8.448 3,9 C3,10.944 1.699,13 1,13 C0.447,13 0,13.448 0,14 C0,14.552 0.447,15 1,15 L1,15 Z M4,12.732 C4.268,13.211 4.582,13.644 4.93,14 C4.582,14.355 4.268,14.788 4,15.268 C3.732,14.789 3.418,14.356 3.07,14 C3.418,13.645 3.732,13.212 4,12.732 L4,12.732 Z" id="Shape" fill="#000000"></path>
        <path d="M9,7 C9.699,7 11,9.056 11,11 C11,11.552 11.447,12 12,12 C12.553,12 13,11.552 13,11 C13,9.056 14.301,7 15,7 C15.553,7 16,6.552 16,6 C16,5.448 15.553,5 15,5 C14.301,5 13,2.944 13,1 C13,0.448 12.553,0 12,0 C11.447,0 11,0.448 11,1 C11,2.944 9.699,5 9,5 C8.447,5 8,5.448 8,6 C8,6.552 8.447,7 9,7 L9,7 Z M12,4.732 C12.268,5.211 12.582,5.644 12.93,6 C12.582,6.355 12.268,6.788 12,7.268 C11.732,6.789 11.418,6.356 11.07,6 C11.418,5.645 11.732,5.212 12,4.732 L12,4.732 Z" id="Shape" fill="#000000"></path>
    </g>
</svg>