<?xml version="1.0" encoding="UTF-8" standalone="no"?>
<svg width="64px" height="64px" viewBox="0 0 64 64" version="1.1" xmlns="http://www.w3.org/2000/svg" xmlns:xlink="http://www.w3.org/1999/xlink">
    <!-- Generator: Sketch 3.7.2 (28276) - http://www.bohemiancoding.com/sketch -->
    <title>cle-wash-warm</title>
    <desc>Created with Sketch.</desc>
    <defs></defs>
    <g id="64px-Glyph" stroke="none" stroke-width="1" fill="none" fill-rule="evenodd">
        <g id="cle-wash-warm" fill="#000000">
            <path d="M38.0001,32 C36.8971,32 36.0001,32.897 36.0001,34 C36.0001,35.103 36.8971,36 38.0001,36 C39.1021,36 40.0001,35.103 40.0001,34 C40.0001,32.897 39.1021,32 38.0001,32" id="Fill-252"></path>
            <path d="M26.0001,32 C24.8971,32 24.0001,32.897 24.0001,34 C24.0001,35.103 24.8971,36 26.0001,36 C27.1021,36 28.0001,35.103 28.0001,34 C28.0001,32.897 27.1021,32 26.0001,32" id="Fill-253"></path>
            <path d="M38.0001,38 C35.7941,38 34.0001,36.206 34.0001,34 C34.0001,31.794 35.7941,30 38.0001,30 C40.2061,30 42.0001,31.794 42.0001,34 C42.0001,36.206 40.2061,38 38.0001,38 M26.0001,38 C23.7941,38 22.0001,36.206 22.0001,34 C22.0001,31.794 23.7941,30 26.0001,30 C28.2061,30 30.0001,31.794 30.0001,34 C30.0001,36.206 28.2061,38 26.0001,38 M59.2091,14.055 C58.6851,13.876 58.1171,14.151 57.9371,14.674 L56.7631,18.082 C56.5151,18.033 56.2621,18 56.0001,18 C54.0421,18 53.0421,19.319 52.2381,20.38 C51.4541,21.415 50.9641,22 50.0001,22 C49.0361,22 48.5461,21.415 47.7621,20.38 C46.9581,19.319 45.9581,18 44.0001,18 C42.0421,18 41.0421,19.319 40.2381,20.38 C39.4541,21.415 38.9641,22 38.0001,22 C37.0361,22 36.5461,21.415 35.7621,20.38 C34.9581,19.319 33.9581,18 32.0001,18 C30.0291,18 28.9871,19.338 28.1501,20.413 C27.3611,21.427 26.8721,22 26.0001,22 C25.1241,22 24.6321,21.424 23.8371,20.406 C22.9991,19.334 21.9571,18 20.0001,18 C18.0501,18 17.0281,19.325 16.2081,20.39 C15.4151,21.418 14.9221,22 14.0001,22 C13.0781,22 12.5851,21.418 11.7921,20.39 C10.9721,19.325 9.9501,18 8.0001,18 C7.7381,18 7.4851,18.033 7.2381,18.083 L6.0631,14.674 C5.8831,14.151 5.3121,13.875 4.7911,14.055 C4.2701,14.234 3.9921,14.804 4.1721,15.326 L14.2571,44.581 C14.9381,46.626 16.8451,48 19.0001,48 L45.0001,48 C47.1551,48 49.0611,46.626 49.7401,44.591 L59.8281,15.326 C60.0081,14.804 59.7301,14.234 59.2091,14.055" id="Fill-254"></path>
        </g>
    </g>
</svg>