<?xml version="1.0" encoding="UTF-8" standalone="no"?>
<svg width="64px" height="64px" viewBox="0 0 64 64" version="1.1" xmlns="http://www.w3.org/2000/svg" xmlns:xlink="http://www.w3.org/1999/xlink">
    <!-- Generator: Sketch 3.7.2 (28276) - http://www.bohemiancoding.com/sketch -->
    <title>cle-dustpan-brush-2</title>
    <desc>Created with Sketch.</desc>
    <defs></defs>
    <g id="64px-Line" stroke="none" stroke-width="1" fill="none" fill-rule="evenodd">
        <g id="cle-dustpan-brush-2"></g>
        <path d="M54,42.997 L54,42.997 C53.998,38.206 51.37,36.638 48,36.177 L48,7 C48,5.346 46.654,4 45,4 C43.346,4 42,5.346 42,7 L42,36.177 C38.631,36.638 36.003,38.205 36,42.993 L36,42.994 C35.982,46.235 35.281,55.304 32.293,58.292 C32.007,58.578 31.921,59.008 32.076,59.382 C32.23,59.756 32.596,59.999 33,59.999 L57,59.999 C57.404,59.999 57.77,59.756 57.924,59.382 C58.079,59.008 57.993,58.578 57.707,58.292 C54.694,55.28 54.01,46.23 54,42.997 L54,42.997 Z M44,7 C44,6.448 44.448,6 45,6 C45.552,6 46,6.448 46,7 L46,36.017 C45.669,36.007 45.336,36 45,36 C44.664,36 44.331,36.006 44,36.017 L44,7 L44,7 Z M45,38 C49.802,38 51.648,38.997 51.953,42 L38.047,42 C38.352,38.997 40.198,38 45,38 L45,38 Z M49.762,58 C49.486,56.878 49,54.421 49,51 C49,50.447 48.553,50 48,50 C47.447,50 47,50.447 47,51 C47,54.211 47.399,56.621 47.706,58 L42.272,58 C42.582,56.472 43,53.567 43,49 C43,48.447 42.553,48 42,48 C41.447,48 41,48.447 41,49 C41,53.893 40.499,56.783 40.226,58 L34.985,58 C37.404,53.816 37.882,46.629 37.976,44 L52.022,44 C52.111,46.629 52.577,53.805 55.012,58 L49.762,58 L49.762,58 Z" id="Shape" fill="#000000"></path>
        <path d="M22.183,43.219 C21.878,43.049 21.595,42.891 21.342,42.74 L20.487,42.226 C20.187,42.046 20.001,41.717 20.001,41.368 L20.001,37.072 L20.001,37 L20.001,7 C20.001,5.346 18.655,4 17.001,4 C15.347,4 14.001,5.346 14.001,7 L14.001,37 L14.001,37.071 L14.001,41.367 C14.001,41.717 13.814,42.046 13.517,42.225 L12.659,42.739 C12.42,42.883 12.151,43.034 11.864,43.196 C9.672,44.434 6.002,46.508 6.002,50.5 L6.002,58 C6.002,59.103 6.899,60 8.002,60 L26.002,60 C27.105,60 28.002,59.103 28.002,58 L28.002,50.5 C28,46.476 24.358,44.437 22.183,43.219 L22.183,43.219 Z M17,6 C17.552,6 18,6.448 18,7 L18,36 L16,36 L16,7 C16,6.448 16.448,6 17,6 L17,6 Z M26,58 L8,58 L8,50.5 C8,47.675 10.801,46.093 12.846,44.938 C13.15,44.766 13.434,44.606 13.686,44.454 L14.545,43.94 C15.442,43.4 16,42.414 16,41.367 L16,38 L18,38 L18,41.367 C18,42.414 18.558,43.4 19.457,43.94 L20.313,44.454 C20.581,44.614 20.882,44.783 21.205,44.964 C23.228,46.097 26,47.648 26,50.5 L26,58 L26,58 Z" id="Shape" fill="#000000"></path>
        <path d="M17,46.5 C11.739,46.5 9.294,49.771 9.192,49.911 C8.868,50.355 8.965,50.974 9.407,51.302 C9.85,51.627 10.474,51.535 10.804,51.095 C10.883,50.989 12.796,48.5 16.999,48.5 C21.202,48.5 23.115,50.988 23.191,51.089 C23.386,51.358 23.691,51.5 24,51.5 C24.204,51.5 24.41,51.438 24.588,51.308 C25.034,50.983 25.133,50.358 24.807,49.912 C24.706,49.771 22.261,46.5 17,46.5 L17,46.5 Z" id="Shape" fill="#000000"></path>
    </g>
</svg>