<?xml version="1.0" encoding="UTF-8" standalone="no"?>
<svg width="44px" height="44px" viewBox="0 0 44 44" version="1.1" xmlns="http://www.w3.org/2000/svg" xmlns:xlink="http://www.w3.org/1999/xlink">
    <!-- Generator: Sketch 3.7.2 (28276) - http://www.bohemiancoding.com/sketch -->
    <title>cle-laundry</title>
    <desc>Created with Sketch.</desc>
    <defs></defs>
    <g id="44px-Line" stroke="none" stroke-width="1" fill="none" fill-rule="evenodd">
        <g id="cle-laundry"></g>
        <path d="M44,11 C44,7.14 40.859,4 37,4 L4,4 C1.794,4 0,5.794 0,8 C0,9.193 0.525,10.267 1.357,11 C0.525,11.733 0,12.807 0,14 C0,15.658 1.014,17.082 2.454,17.688 C0.955,18.973 0,20.875 0,23 C0,25.125 0.955,27.027 2.454,28.312 C1.014,28.918 0,30.342 0,32 C0,33.193 0.525,34.267 1.357,35 C0.525,35.733 0,36.807 0,38 C0,40.206 1.794,42 4,42 L37,42 C40.859,42 44,38.86 44,35 C44,32.875 43.045,30.973 41.546,29.688 C42.986,29.082 44,27.658 44,26 C44,24.807 43.475,23.733 42.643,23 C43.475,22.267 44,21.193 44,20 C44,18.342 42.986,16.918 41.546,16.312 C43.045,15.027 44,13.125 44,11 L44,11 Z M4,16 C2.897,16 2,15.103 2,14 C2,12.897 2.897,12 4,12 L37,12 C37.553,12 38,11.552 38,11 C38,10.448 37.553,10 37,10 L4,10 C2.897,10 2,9.103 2,8 C2,6.897 2.897,6 4,6 L37,6 C39.757,6 42,8.243 42,11 C42,13.757 39.757,16 37,16 L7,16 L4,16 L4,16 Z M42,35 C42,37.757 39.757,40 37,40 L4,40 C2.897,40 2,39.103 2,38 C2,36.897 2.897,36 4,36 L37,36 C37.553,36 38,35.552 38,35 C38,34.448 37.553,34 37,34 L4,34 C2.897,34 2,33.103 2,32 C2,30.897 2.897,30 4,30 L7,30 L37,30 C39.757,30 42,32.243 42,35 L42,35 Z M40,18 C41.103,18 42,18.897 42,20 C42,21.103 41.103,22 40,22 L7,22 C6.447,22 6,22.448 6,23 C6,23.552 6.447,24 7,24 L40,24 C41.103,24 42,24.897 42,26 C42,27.103 41.103,28 40,28 L37,28 L7,28 C4.243,28 2,25.757 2,23 C2,20.243 4.243,18 7,18 L37,18 L40,18 L40,18 Z" id="Shape" fill="#000000"></path>
    </g>
</svg>