<?xml version="1.0" encoding="UTF-8" standalone="no"?>
<svg width="44px" height="44px" viewBox="0 0 44 44" version="1.1" xmlns="http://www.w3.org/2000/svg" xmlns:xlink="http://www.w3.org/1999/xlink">
    <!-- Generator: Sketch 3.7.2 (28276) - http://www.bohemiancoding.com/sketch -->
    <title>cle-kitchen-roll</title>
    <desc>Created with Sketch.</desc>
    <defs></defs>
    <g id="44px-Line" stroke="none" stroke-width="1" fill="none" fill-rule="evenodd">
        <g id="cle-kitchen-roll"></g>
        <path d="M35,18 C34.447,18 34,18.447 34,19 L34,21 C34,21.553 34.447,22 35,22 C35.553,22 36,21.553 36,21 L36,19 C36,18.447 35.553,18 35,18 L35,18 Z" id="Shape" fill="#000000"></path>
        <path d="M35,24 C34.447,24 34,24.447 34,25 L34,27 C34,27.553 34.447,28 35,28 C35.553,28 36,27.553 36,27 L36,25 C36,24.447 35.553,24 35,24 L35,24 Z" id="Shape" fill="#000000"></path>
        <path d="M35,30 C34.447,30 34,30.447 34,31 L34,33 C34,33.553 34.447,34 35,34 C35.553,34 36,33.553 36,33 L36,31 C36,30.447 35.553,30 35,30 L35,30 Z" id="Shape" fill="#000000"></path>
        <path d="M35,36 C34.447,36 34,36.447 34,37 L34,39 C34,39.553 34.447,40 35,40 C35.553,40 36,39.553 36,39 L36,37 C36,36.447 35.553,36 35,36 L35,36 Z" id="Shape" fill="#000000"></path>
        <path d="M32,8.015 L32,5.816 C33.161,5.402 34,4.302 34,3 C34,1.346 32.654,0 31,0 C29.346,0 28,1.346 28,3 C28,4.302 28.839,5.402 30,5.816 L30,8 L5,8 C4.596,8 4.23,8.243 4.076,8.617 C3.921,8.991 4.007,9.421 4.293,9.707 L6.586,12 L4.293,14.293 C3.902,14.684 3.902,15.316 4.293,15.707 L6.586,18 L4.293,20.293 C3.902,20.684 3.902,21.316 4.293,21.707 L6.586,24 L4.293,26.293 C3.902,26.684 3.902,27.316 4.293,27.707 L6.586,30 L4.293,32.293 C3.902,32.684 3.902,33.316 4.293,33.707 L6.586,36 L4.293,38.293 C4.007,38.579 3.921,39.009 4.076,39.383 C4.23,39.757 4.596,40 5,40 L20,40 C20,42.748 25.702,44 31,44 C36.298,44 42,42.748 42,40 L42,12 C42,9.424 36.991,8.163 32,8.015 L32,8.015 Z M39.997,12 C39.796,12.565 36.799,14 31,14 C25.161,14 22.163,12.546 22,12.018 L22,12.011 C22.154,11.487 24.82,10.169 30,10.016 L30,11 C30,11.553 30.447,12 31,12 C31.553,12 32,11.553 32,11 L32,10.015 C37.143,10.168 39.808,11.468 39.997,12 L39.997,12 Z M31,2 C31.552,2 32,2.448 32,3 C32,3.552 31.552,4 31,4 C30.448,4 30,3.552 30,3 C30,2.448 30.448,2 31,2 L31,2 Z M7.414,38 L8.707,36.707 C9.098,36.316 9.098,35.684 8.707,35.293 L6.414,33 L8.707,30.707 C9.098,30.316 9.098,29.684 8.707,29.293 L6.414,27 L8.707,24.707 C9.098,24.316 9.098,23.684 8.707,23.293 L6.414,21 L8.707,18.707 C9.098,18.316 9.098,17.684 8.707,17.293 L6.414,15 L8.707,12.707 C9.098,12.316 9.098,11.684 8.707,11.293 L7.414,10 L21.279,10 C20.482,10.548 20,11.21 20,12 L20,38 L7.414,38 L7.414,38 Z M31,42 C25.149,42 22.15,40.54 22,40 L22,14.427 C24.128,15.495 27.643,16 31,16 C34.357,16 37.872,15.495 40,14.427 L40.002,39.985 C39.85,40.54 36.851,42 31,42 L31,42 Z" id="Shape" fill="#000000"></path>
    </g>
</svg>