<?xml version="1.0" encoding="UTF-8" standalone="no"?>
<svg width="64px" height="64px" viewBox="0 0 64 64" version="1.1" xmlns="http://www.w3.org/2000/svg" xmlns:xlink="http://www.w3.org/1999/xlink">
    <!-- Generator: Sketch 3.7.2 (28276) - http://www.bohemiancoding.com/sketch -->
    <title>cle-dry-warm</title>
    <desc>Created with Sketch.</desc>
    <defs></defs>
    <g id="64px-Line" stroke="none" stroke-width="1" fill="none" fill-rule="evenodd">
        <g id="cle-dry-warm"></g>
        <path d="M57,6 L7,6 C6.448,6 6,6.447 6,7 L6,57 C6,57.553 6.448,58 7,58 L57,58 C57.552,58 58,57.553 58,57 L58,7 C58,6.447 57.552,6 57,6 L57,6 Z M56,32 L56,56 L32,56 L8,56 L8,32 L8,8 L32,8 L56,8 L56,32 L56,32 Z" id="Shape" fill="#000000"></path>
        <path d="M32,8 C18.767,8 8,18.767 8,32 C8,45.233 18.767,56 32,56 C45.233,56 56,45.233 56,32 C56,18.767 45.233,8 32,8 L32,8 Z M32,54 C19.869,54 10,44.131 10,32 C10,19.869 19.869,10 32,10 C44.131,10 54,19.869 54,32 C54,44.131 44.131,54 32,54 L32,54 Z" id="Shape" fill="#000000"></path>
        <path d="M26,28 C23.794,28 22,29.794 22,32 C22,34.206 23.794,36 26,36 C28.206,36 30,34.206 30,32 C30,29.794 28.206,28 26,28 L26,28 Z M26,34 C24.897,34 24,33.103 24,32 C24,30.897 24.897,30 26,30 C27.103,30 28,30.897 28,32 C28,33.103 27.103,34 26,34 L26,34 Z" id="Shape" fill="#000000"></path>
        <path d="M38,28 C35.794,28 34,29.794 34,32 C34,34.206 35.794,36 38,36 C40.206,36 42,34.206 42,32 C42,29.794 40.206,28 38,28 L38,28 Z M38,34 C36.897,34 36,33.103 36,32 C36,30.897 36.897,30 38,30 C39.103,30 40,30.897 40,32 C40,33.103 39.103,34 38,34 L38,34 Z" id="Shape" fill="#000000"></path>
    </g>
</svg>