<?xml version="1.0" encoding="UTF-8" standalone="no"?>
<svg width="64px" height="64px" viewBox="0 0 64 64" version="1.1" xmlns="http://www.w3.org/2000/svg" xmlns:xlink="http://www.w3.org/1999/xlink">
    <!-- Generator: Sketch 3.7.2 (28276) - http://www.bohemiancoding.com/sketch -->
    <title>cle-wash-line</title>
    <desc>Created with Sketch.</desc>
    <defs></defs>
    <g id="64px-Glyph" stroke="none" stroke-width="1" fill="none" fill-rule="evenodd">
        <g id="cle-wash-line" fill="#000000">
            <path d="M57.9283,10.6289 C57.7233,10.1169 57.1423,9.8659 56.6293,10.0709 C56.5873,10.0879 52.5823,11.6649 45.9813,12.8089 C45.9353,12.1159 45.6593,11.4869 45.2203,10.9999 C45.6993,10.4679 46.0003,9.7709 46.0003,8.9999 C46.0003,7.3459 44.6543,5.9999 43.0003,5.9999 C41.3463,5.9999 40.0003,7.3459 40.0003,8.9999 C40.0003,9.7709 40.3003,10.4679 40.7803,10.9999 C40.3003,11.5319 40.0003,12.2289 40.0003,12.9999 L40.0003,13.6059 C34.1323,14.1729 28.1733,14.1099 22.0003,13.4219 L22.0003,12.9999 C22.0003,12.2289 21.6993,11.5319 21.2203,10.9999 C21.6993,10.4679 22.0003,9.7709 22.0003,8.9999 C22.0003,7.3459 20.6543,5.9999 19.0003,5.9999 C17.3463,5.9999 16.0003,7.3459 16.0003,8.9999 C16.0003,9.7709 16.3003,10.4679 16.7803,10.9999 C16.3903,11.4329 16.1283,11.9779 16.0403,12.5799 C9.5903,11.4599 5.3603,10.0649 5.3163,10.0509 C4.7933,9.8799 4.2263,10.1589 4.0513,10.6839 C3.8773,11.2079 4.1603,11.7749 4.6833,11.9479 C4.8733,12.0119 9.2323,13.4479 16.0003,14.6019 L16.0003,24.9999 C16.0003,26.6539 17.3463,27.9999 19.0003,27.9999 C20.6543,27.9999 22.0003,26.6539 22.0003,24.9999 L22.0003,15.4329 C25.3943,15.8029 28.7543,15.9999 32.0003,15.9999 C34.6633,15.9999 37.3483,15.8659 40.0003,15.6159 L40.0003,24.9999 C40.0003,26.6539 41.3463,27.9999 43.0003,27.9999 C44.6543,27.9999 46.0003,26.6539 46.0003,24.9999 L46.0003,14.8329 C53.0073,13.6499 57.1903,12.0009 57.3713,11.9289 C57.8843,11.7239 58.1333,11.1419 57.9283,10.6289" id="Fill-228"></path>
            <path d="M50.0001,39 C50.0001,30.197 51.9641,19.288 51.9841,19.179 C52.0421,18.855 51.9391,18.524 51.7061,18.292 C51.4741,18.06 51.1411,17.958 50.8191,18.017 C50.8031,18.019 49.7281,18.215 48.0001,18.481 L48.0001,25 C48.0001,27.757 45.7571,30 43.0001,30 C40.2431,30 38.0001,27.757 38.0001,25 L38.0001,19.673 C35.4451,19.884 33.0891,20 31.0001,20 C28.9121,20 26.5551,19.884 24.0001,19.673 L24.0001,25 C24.0001,27.757 21.7571,30 19.0001,30 C16.2431,30 14.0001,27.757 14.0001,25 L14.0001,18.481 C12.2721,18.215 11.1971,18.019 11.1811,18.017 C10.8571,17.957 10.5261,18.06 10.2941,18.292 C10.0611,18.524 9.9581,18.855 10.0161,19.179 C10.0361,19.288 12.0001,30.192 12.0001,39 C12.0001,47.803 10.0361,58.712 10.0161,58.821 C9.9581,59.145 10.0611,59.476 10.2941,59.708 C10.4831,59.897 10.7381,60 11.0001,60 C11.0601,60 11.1211,59.994 11.1811,59.983 C11.2891,59.964 22.0691,58 31.0001,58 C39.9251,58 50.7111,59.964 50.8191,59.983 C51.1411,60.04 51.4741,59.94 51.7061,59.708 C51.9391,59.476 52.0421,59.145 51.9841,58.821 C51.9641,58.712 50.0001,47.808 50.0001,39" id="Fill-229"></path>
        </g>
    </g>
</svg>