<?xml version="1.0" encoding="UTF-8" standalone="no"?>
<svg width="64px" height="64px" viewBox="0 0 64 64" version="1.1" xmlns="http://www.w3.org/2000/svg" xmlns:xlink="http://www.w3.org/1999/xlink">
    <!-- Generator: Sketch 3.7.2 (28276) - http://www.bohemiancoding.com/sketch -->
    <title>cle-bucket-mop</title>
    <desc>Created with Sketch.</desc>
    <defs></defs>
    <g id="64px-Line" stroke="none" stroke-width="1" fill="none" fill-rule="evenodd">
        <g id="cle-bucket-mop"></g>
        <path d="M4.247,36.342 C4.057,36.56 3.971,36.849 4.01,37.135 L6.774,57.405 C6.976,58.884 8.253,60 9.746,60 L22.255,60 C23.748,60 25.026,58.884 25.227,57.405 L27.991,37.135 C28.03,36.849 27.944,36.56 27.754,36.342 C27.564,36.125 27.289,36 27.001,36 L5.001,36 C4.711,36 4.437,36.125 4.247,36.342 L4.247,36.342 Z M25.854,38 L23.245,57.135 C23.178,57.628 22.752,58 22.254,58 L9.745,58 C9.247,58 8.822,57.628 8.754,57.135 L6.146,38 L25.854,38 L25.854,38 Z" id="Shape" fill="#000000"></path>
        <path d="M10.908,56.002 C10.953,56.002 10.999,55.999 11.045,55.993 C11.592,55.918 11.975,55.414 11.9,54.867 L9.991,40.865 C9.916,40.317 9.409,39.935 8.865,40.01 C8.318,40.085 7.935,40.589 8.01,41.136 L9.919,55.138 C9.987,55.639 10.416,56.002 10.908,56.002 L10.908,56.002 Z" id="Shape" fill="#000000"></path>
        <path d="M6,30 C6,32.206 7.794,34 10,34 C12.206,34 14,32.206 14,30 C14,27.794 12.206,26 10,26 C7.794,26 6,27.794 6,30 L6,30 Z M10,28 C11.103,28 12,28.897 12,30 C12,31.103 11.103,32 10,32 C8.897,32 8,31.103 8,30 C8,28.897 8.897,28 10,28 L10,28 Z" id="Shape" fill="#000000"></path>
        <path d="M14,19 C14,17.346 12.654,16 11,16 C9.346,16 8,17.346 8,19 C8,20.654 9.346,22 11,22 C12.654,22 14,20.654 14,19 L14,19 Z M10,19 C10,18.449 10.449,18 11,18 C11.551,18 12,18.449 12,19 C12,19.551 11.551,20 11,20 C10.449,20 10,19.551 10,19 L10,19 Z" id="Shape" fill="#000000"></path>
        <path d="M26,25 C26,22.243 23.757,20 21,20 C18.243,20 16,22.243 16,25 C16,27.757 18.243,30 21,30 C23.757,30 26,27.757 26,25 L26,25 Z M18,25 C18,23.346 19.346,22 21,22 C22.654,22 24,23.346 24,25 C24,26.654 22.654,28 21,28 C19.346,28 18,26.654 18,25 L18,25 Z" id="Shape" fill="#000000"></path>
        <path d="M45,4 C43.346,4 42,5.346 42,7 L42,36.177 C38.631,36.638 36.003,38.205 36,42.993 L36,42.994 C35.982,46.236 35.281,55.304 32.293,58.292 C32.007,58.578 31.921,59.008 32.076,59.382 C32.231,59.756 32.596,59.999 33,59.999 L40.997,59.999 L41,59.999 L41.003,59.999 L57,59.999 C57.404,59.999 57.769,59.755 57.924,59.382 C58.079,59.008 57.993,58.578 57.707,58.292 C54.694,55.279 54.01,46.229 54,42.996 C54,42.996 54,42.996 54,42.995 C53.999,38.205 51.37,36.638 48,36.176 L48,7 C48,5.346 46.654,4 45,4 L45,4 Z M44,7 C44,6.449 44.449,6 45,6 C45.551,6 46,6.449 46,7 L46,36.017 C45.669,36.007 45.336,36 45,36 C44.664,36 44.331,36.006 44,36.017 L44,7 L44,7 Z M55.012,58 L49.762,58 C49.486,56.878 48.999,54.421 48.999,51 C48.999,50.448 48.551,50 47.999,50 C47.447,50 46.999,50.448 46.999,51 C46.999,54.211 47.398,56.621 47.705,58 L42.271,58 C42.58,56.472 42.999,53.567 42.999,49 C42.999,48.448 42.551,48 41.999,48 C41.447,48 40.999,48.448 40.999,49 C40.999,53.893 40.498,56.783 40.224,58 L34.983,58 C37.401,53.815 37.879,46.628 37.974,44 L52.02,44 C52.111,46.629 52.577,53.805 55.012,58 L55.012,58 Z M51.954,42 L38.047,42 C38.352,38.997 40.199,38 45.001,38 C49.803,38 51.648,38.997 51.954,42 L51.954,42 Z" id="Shape" fill="#000000"></path>
    </g>
</svg>