<?xml version="1.0" encoding="UTF-8" standalone="no"?>
<svg width="44px" height="44px" viewBox="0 0 44 44" version="1.1" xmlns="http://www.w3.org/2000/svg" xmlns:xlink="http://www.w3.org/1999/xlink">
    <!-- Generator: Sketch 3.7.2 (28276) - http://www.bohemiancoding.com/sketch -->
    <title>cle-tap</title>
    <desc>Created with Sketch.</desc>
    <defs></defs>
    <g id="44px-Line" stroke="none" stroke-width="1" fill="none" fill-rule="evenodd">
        <g id="cle-tap"></g>
        <path d="M33,14 L26,14 C26,11.794 24.206,10 22,10 L22,7.806 C23.562,7.52 26.299,7.358 27.69,8.747 C28.603,9.555 29.778,10 31,10 C33.757,10 36,7.757 36,5 C36,2.243 33.757,5.68434189e-14 31,5.68434189e-14 C29.781,5.68434189e-14 28.606,0.443 27.693,1.249 C27.667,1.272 27.642,1.297 27.618,1.322 C26.224,2.68 23.533,2.5 21.999,2.203 L21.999,1 C21.999,0.447 21.551,1.13686838e-13 20.999,1.13686838e-13 L14.999,1.13686838e-13 C14.447,1.13686838e-13 13.999,0.447 13.999,1 L13.999,2.183 C12.427,2.451 9.702,2.601 8.383,1.325 C8.359,1.298 8.333,1.273 8.306,1.249 C7.394,0.443 6.219,1.13686838e-13 5,1.13686838e-13 C2.243,1.13686838e-13 0,2.243 0,5 C0,7.757 2.243,10 5,10 C6.223,10 7.398,9.555 8.354,8.704 C9.7,7.357 12.436,7.522 14,7.807 L14,10 C11.794,10 10,11.794 10,14 L10,36 L7,36 C6.448,36 6,36.447 6,37 L6,43 C6,43.553 6.448,44 7,44 L29,44 C29.552,44 30,43.553 30,43 L30,37 C30,36.447 29.552,36 29,36 L26,36 L26,24 L33,24 C33.551,24 34,24.448 34,25 L34,29 C34,29.553 34.448,30 35,30 L43,30 C43.552,30 44,29.553 44,29 L44,25 C44,18.935 39.065,14 33,14 L33,14 Z M29.052,2.718 C29.594,2.255 30.284,2 31,2 C32.654,2 34,3.346 34,5 C34,6.654 32.654,8 31,8 C30.267,8 29.562,7.733 29.06,7.29 C27.096,5.328 23.8,5.502 22,5.781 L22,4.234 C23.792,4.528 27.048,4.714 29.052,2.718 L29.052,2.718 Z M6.985,7.249 C6.438,7.733 5.733,8 5,8 C3.346,8 2,6.654 2,5 C2,3.346 3.346,2 5,2 C5.716,2 6.406,2.255 6.948,2.718 C8.873,4.633 12.196,4.47 14,4.206 L14,5.779 C12.202,5.498 8.916,5.316 6.985,7.249 L6.985,7.249 Z M16,2 L20,2 L20,10 L16,10 L16,2 L16,2 Z M28,42 L8,42 L8,38 L11,38 L25,38 L28,38 L28,42 L28,42 Z M12,36 L12,14 C12,12.897 12.897,12 14,12 L15,12 L21,12 L22,12 C23.103,12 24,12.897 24,14 L24,36 L12,36 L12,36 Z M42,28 L36,28 L36,25 C36,23.346 34.654,22 33,22 L26,22 L26,16 L33,16 C37.962,16 42,20.037 42,25 L42,28 L42,28 Z" id="Shape" fill="#000000"></path>
        <path d="M16,14 C14.897,14 14,14.897 14,16 L14,31 C14,31.553 14.448,32 15,32 C15.552,32 16,31.553 16,31 L16,16 C16.552,16 17,15.553 17,15 C17,14.447 16.552,14 16,14 L16,14 Z" id="Shape" fill="#000000"></path>
        <path d="M39.6,32.2 C39.245,31.932 38.755,31.932 38.4,32.2 C37.95,32.538 34,35.598 34,39 C34,41.408 35.564,44 39,44 C42.436,44 44,41.408 44,39 C44,35.599 40.05,32.538 39.6,32.2 L39.6,32.2 Z M39,42 C36.788,42 36,40.45 36,39 C36,37.292 37.819,35.33 39,34.293 C40.181,35.33 42,37.292 42,39 C42,40.384 41.214,42 39,42 L39,42 Z" id="Shape" fill="#000000"></path>
    </g>
</svg>