<?xml version="1.0" encoding="UTF-8" standalone="no"?>
<svg width="44px" height="44px" viewBox="0 0 44 44" version="1.1" xmlns="http://www.w3.org/2000/svg" xmlns:xlink="http://www.w3.org/1999/xlink">
    <!-- Generator: Sketch 3.7.2 (28276) - http://www.bohemiancoding.com/sketch -->
    <title>cle-plunger-brush</title>
    <desc>Created with Sketch.</desc>
    <defs></defs>
    <g id="44px-Line" stroke="none" stroke-width="1" fill="none" fill-rule="evenodd">
        <g id="cle-plunger-brush"></g>
        <path d="M3,44 L23,44 C24.654,44 26,42.654 26,41 C26,39.683 25.141,38.573 23.958,38.171 C23.608,33.515 20.353,29.664 16,28.426 L16,3 C16,1.346 14.654,0 13,0 C11.346,0 10,1.346 10,3 L10,28.427 C5.647,29.664 2.392,33.515 2.042,38.172 C0.859,38.573 0,39.683 0,41 C0,42.654 1.346,44 3,44 L3,44 Z M12,3 C12,2.449 12.448,2 13,2 C13.552,2 14,2.449 14,3 L14,28.051 C13.67,28.021 13.338,28 13,28 C12.662,28 12.33,28.021 12,28.051 L12,3 L12,3 Z M3,40 C3.553,40 4,39.552 4,39 C4,34.038 8.037,30 13,30 C17.963,30 22,34.038 22,39 C22,39.552 22.447,40 23,40 C23.552,40 24,40.449 24,41 C24,41.551 23.552,42 23,42 L3,42 C2.448,42 2,41.551 2,41 C2,40.449 2.448,40 3,40 L3,40 Z" id="Shape" fill="#000000"></path>
        <path d="M7,40 L13,40 C13.553,40 14,39.552 14,39 C14,38.448 13.553,38 13,38 L7,38 C6.447,38 6,38.448 6,39 C6,39.552 6.447,40 7,40 L7,40 Z" id="Shape" fill="#000000"></path>
        <path d="M43,18 L38,18 L38,16 L43,16 C43.553,16 44,15.552 44,15 C44,14.448 43.553,14 43,14 L38,14 L38,11.847 L43.164,10.986 C43.709,10.895 44.077,10.38 43.986,9.835 C43.896,9.291 43.379,8.923 42.836,9.013 L38,9.82 L38,9 C38,8.789 37.977,8.583 37.935,8.384 L41.698,4.716 C42.094,4.33 42.101,3.697 41.716,3.302 C41.331,2.906 40.697,2.899 40.302,3.283 L36.846,6.652 C36.593,6.452 36.31,6.294 36.001,6.184 L36.001,1 C36.001,0.448 35.554,0 35.001,0 C34.448,0 34.001,0.448 34.001,1 L34.001,6.184 C33.692,6.294 33.409,6.453 33.156,6.652 L29.7,3.283 C29.305,2.899 28.671,2.906 28.286,3.302 C27.9,3.698 27.908,4.33 28.304,4.716 L32.067,8.384 C32.023,8.583 32,8.789 32,9 L32,9.82 L27.164,9.014 C26.616,8.924 26.103,9.291 26.014,9.836 C25.923,10.381 26.291,10.896 26.836,10.987 L32,11.847 L32,14 L27,14 C26.447,14 26,14.448 26,15 C26,15.552 26.447,16 27,16 L32,16 L32,18 L27,18 C26.447,18 26,18.448 26,19 C26,19.552 26.447,20 27,20 L32,20 L32,22 L31,22 C30.447,22 30,22.448 30,23 C30,23.552 30.447,24 31,24 L32,24 L32,41 C32,42.654 33.346,44 35,44 C36.654,44 38,42.654 38,41 L38,24 L39,24 C39.553,24 40,23.552 40,23 C40,22.448 39.553,22 39,22 L38,22 L38,20 L43,20 C43.553,20 44,19.552 44,19 C44,18.448 43.553,18 43,18 L43,18 Z M36,41 C36,41.551 35.552,42 35,42 C34.448,42 34,41.551 34,41 L34,24 L36,24 L36,41 L36,41 Z M34,22 L34,9 C34,8.449 34.448,8 35,8 C35.552,8 36,8.449 36,9 L36,22 L34,22 L34,22 Z" id="Shape" fill="#000000"></path>
    </g>
</svg>