<?xml version="1.0" encoding="UTF-8" standalone="no"?>
<svg width="64px" height="64px" viewBox="0 0 64 64" version="1.1" xmlns="http://www.w3.org/2000/svg" xmlns:xlink="http://www.w3.org/1999/xlink">
    <!-- Generator: Sketch 3.7.2 (28276) - http://www.bohemiancoding.com/sketch -->
    <title>cle-bin</title>
    <desc>Created with Sketch.</desc>
    <defs></defs>
    <g id="64px-Line" stroke="none" stroke-width="1" fill="none" fill-rule="evenodd">
        <g id="cle-bin"></g>
        <path d="M19,60 L39,60 C40.654,60 42,58.654 42,57 L42,54 L47,54 C47.552,54 48,53.552 48,53 C48,52.448 47.552,52 47,52 L42,52 L42,31 C42,30.448 41.552,30 41,30 L17,30 C16.448,30 16,30.448 16,31 L16,57 C16,58.654 17.346,60 19,60 L19,60 Z M18,32 L40,32 L40,57 C40,57.551 39.551,58 39,58 L19,58 C18.449,58 18,57.551 18,57 L18,32 L18,32 Z" id="Shape" fill="#000000"></path>
        <path d="M16,5 C16,4.448 15.552,4 15,4 L11,4 C9.346,4 8,5.346 8,7 L8,27 C8,28.654 9.346,30 11,30 L15,30 C15.552,30 16,29.552 16,29 L16,5 L16,5 Z M14,28 L11,28 C10.449,28 10,27.551 10,27 L10,7 C10,6.449 10.449,6 11,6 L14,6 L14,28 L14,28 Z" id="Shape" fill="#000000"></path>
        <path d="M21,56 C21.552,56 22,55.552 22,55 L22,35 C22,34.448 21.552,34 21,34 C20.448,34 20,34.448 20,35 L20,55 C20,55.552 20.448,56 21,56 L21,56 Z" id="Shape" fill="#000000"></path>
        <path d="M29.229,12.979 L25.336,15.574 C24.5,16.132 24,17.065 24,18.07 L24,21.763 C24,22.907 24.635,23.935 25.658,24.447 L27.811,25.524 C28.234,25.735 28.69,25.842 29.15,25.842 C29.469,25.842 29.79,25.79 30.102,25.686 L34.173,24.329 C35.23,23.976 36,23.075 36.184,21.976 L36.793,18.322 C36.972,17.251 36.556,16.164 35.708,15.486 L32.767,13.132 C31.743,12.314 30.321,12.252 29.229,12.979 L29.229,12.979 Z M34.821,17.993 L34.212,21.647 C34.151,22.014 33.894,22.314 33.541,22.432 L29.47,23.789 C29.216,23.873 28.945,23.854 28.706,23.735 L26.553,22.658 C26.212,22.488 26,22.145 26,21.763 L26,18.07 C26,17.735 26.167,17.424 26.445,17.238 L30.338,14.643 C30.507,14.53 30.7,14.475 30.893,14.475 C31.115,14.475 31.335,14.549 31.518,14.695 L34.46,17.049 C34.742,17.274 34.88,17.636 34.821,17.993 L34.821,17.993 Z" id="Shape" fill="#000000"></path>
        <path d="M30.749,19.365 L29.75,19.624 L29.75,19 C29.75,18.448 29.302,18 28.75,18 C28.198,18 27.75,18.448 27.75,19 L27.75,20.917 C27.75,21.227 27.893,21.519 28.138,21.708 C28.315,21.845 28.531,21.917 28.75,21.917 C28.834,21.917 28.918,21.906 29.001,21.885 L31.251,21.302 C31.786,21.163 32.106,20.617 31.968,20.083 C31.829,19.548 31.286,19.227 30.749,19.365 L30.749,19.365 Z" id="Shape" fill="#000000"></path>
        <path d="M45.978,4.792 C45.864,4.253 45.336,3.91 44.793,4.021 C44.516,4.08 37.942,5.514 33.283,10.302 C32.898,10.698 32.907,11.331 33.303,11.716 C33.497,11.905 33.749,11.999 34,11.999 C34.26,11.999 34.521,11.898 34.717,11.696 C38.941,7.355 45.146,5.99 45.208,5.977 C45.748,5.863 46.092,5.332 45.978,4.792 L45.978,4.792 Z" id="Shape" fill="#000000"></path>
        <path d="M53.989,12.853 C53.907,12.307 53.402,11.935 52.853,12.011 C52.514,12.061 44.464,13.314 38.304,19.282 C37.908,19.666 37.897,20.3 38.282,20.696 C38.478,20.899 38.739,21 39,21 C39.25,21 39.501,20.906 39.696,20.718 C45.381,15.211 53.071,14 53.148,13.989 C53.693,13.907 54.07,13.398 53.989,12.853 L53.989,12.853 Z" id="Shape" fill="#000000"></path>
        <path d="M43.257,9.717 C43.134,9.748 40.217,10.501 37.309,13.277 C36.91,13.658 36.895,14.291 37.276,14.691 C37.472,14.897 37.735,15.001 37.999,15.001 C38.247,15.001 38.496,14.909 38.689,14.724 C41.193,12.334 43.719,11.664 43.741,11.659 C44.277,11.525 44.602,10.982 44.469,10.446 C44.336,9.91 43.792,9.585 43.257,9.717 L43.257,9.717 Z" id="Shape" fill="#000000"></path>
    </g>
</svg>