<?xml version="1.0" encoding="UTF-8" standalone="no"?>
<svg width="44px" height="44px" viewBox="0 0 44 44" version="1.1" xmlns="http://www.w3.org/2000/svg" xmlns:xlink="http://www.w3.org/1999/xlink">
    <!-- Generator: Sketch 3.7.2 (28276) - http://www.bohemiancoding.com/sketch -->
    <title>cle-soap-liquid</title>
    <desc>Created with Sketch.</desc>
    <defs></defs>
    <g id="44px-Line" stroke="none" stroke-width="1" fill="none" fill-rule="evenodd">
        <g id="cle-soap-liquid"></g>
        <path d="M12,44 L30,44 C32.206,44 34,42.206 34,40 L34,19 C34,15.14 30.86,12 27,12 L26,12 L26,7 C26,6.448 25.552,6 25,6 L24,6 L24,2 L25,2 C27.582,2 29.557,2.588 30.154,3.534 C30.345,3.835 30.669,4 31.001,4 C31.184,4 31.368,3.95 31.534,3.846 C32.001,3.551 32.14,2.933 31.846,2.466 C30.491,0.32 26.975,0 25,0 L15,0 C14.448,0 14,0.448 14,1 C14,1.552 14.448,2 15,2 L18,2 L18,6 L17,6 C16.448,6 16,6.448 16,7 L16,12 L15,12 C11.14,12 8,15.14 8,19 L8,40 C8,42.206 9.794,44 12,44 L12,44 Z M20,2 L22,2 L22,6 L20,6 L20,2 L20,2 Z M18,8 L24,8 L24,12 L18,12 L18,8 L18,8 Z M10,19 C10,16.243 12.243,14 15,14 L27,14 C29.757,14 32,16.243 32,19 L32,40 C32,41.103 31.103,42 30,42 L12,42 C10.897,42 10,41.103 10,40 L10,19 L10,19 Z" id="Shape" fill="#000000"></path>
        <path d="M13,38 C13.552,38 14,37.552 14,37 L14,20 C14,18.897 14.897,18 16,18 C16.552,18 17,17.552 17,17 C17,16.448 16.552,16 16,16 C13.794,16 12,17.794 12,20 L12,37 C12,37.552 12.448,38 13,38 L13,38 Z" id="Shape" fill="#000000"></path>
    </g>
</svg>