<?xml version="1.0" encoding="UTF-8" standalone="no"?>
<svg width="64px" height="64px" viewBox="0 0 64 64" version="1.1" xmlns="http://www.w3.org/2000/svg" xmlns:xlink="http://www.w3.org/1999/xlink">
    <!-- Generator: Sketch 3.7.2 (28276) - http://www.bohemiancoding.com/sketch -->
    <title>cle-iron-cool</title>
    <desc>Created with Sketch.</desc>
    <defs></defs>
    <g id="64px-Line" stroke="none" stroke-width="1" fill="none" fill-rule="evenodd">
        <g id="cle-iron-cool"></g>
        <path d="M5,48 L57,48 C57.308,48 57.599,47.858 57.788,47.615 C57.977,47.372 58.045,47.056 57.97,46.757 L52.976,26.784 C52.972,26.765 52.967,26.746 52.962,26.728 L51.484,20.816 C50.481,16.802 46.89,13.999 42.753,13.999 L27,13.999 C26.448,13.999 26,14.447 26,14.999 C26,15.551 26.448,15.999 27,15.999 L42.754,15.999 C45.972,15.999 48.764,18.179 49.545,21.301 L50.72,25.999 L33,25.999 C25.463,25.999 18.07,29.564 11.621,36.308 C6.794,41.355 4.217,46.333 4.11,46.543 C3.951,46.853 3.965,47.223 4.147,47.521 C4.329,47.819 4.652,48 5,48 L5,48 Z M33,28 L51.219,28 L55.719,46 L6.725,46 C9.471,41.479 18.845,28 33,28 L33,28 Z" id="Shape" fill="#000000"></path>
        <path d="M36,32 C33.794,32 32,33.794 32,36 C32,38.206 33.794,40 36,40 C38.206,40 40,38.206 40,36 C40,33.794 38.206,32 36,32 L36,32 Z M36,38 C34.897,38 34,37.103 34,36 C34,34.897 34.897,34 36,34 C37.103,34 38,34.897 38,36 C38,37.103 37.103,38 36,38 L36,38 Z" id="Shape" fill="#000000"></path>
    </g>
</svg>