<?xml version="1.0" encoding="UTF-8" standalone="no"?>
<svg width="64px" height="64px" viewBox="0 0 64 64" version="1.1" xmlns="http://www.w3.org/2000/svg" xmlns:xlink="http://www.w3.org/1999/xlink">
    <!-- Generator: Sketch 3.7.2 (28276) - http://www.bohemiancoding.com/sketch -->
    <title>cle-brush</title>
    <desc>Created with Sketch.</desc>
    <defs></defs>
    <g id="64px-Line" stroke="none" stroke-width="1" fill="none" fill-rule="evenodd">
        <g id="cle-brush"></g>
        <path d="M31,4 C29.346,4 28,5.346 28,7 L28,44 L21,44 C18.243,44 16,46.243 16,49 L16,53 C16,53.552 16.447,54 17,54 L18,54 L18,59 C18,59.552 18.447,60 19,60 C19.553,60 20,59.552 20,59 L20,54 L22,54 L22,59 C22,59.552 22.447,60 23,60 C23.553,60 24,59.552 24,59 L24,54 L26,54 L26,59 C26,59.552 26.447,60 27,60 C27.553,60 28,59.552 28,59 L28,54 L30,54 L30,59 C30,59.552 30.447,60 31,60 C31.553,60 32,59.552 32,59 L32,54 L34,54 L34,59 C34,59.552 34.447,60 35,60 C35.553,60 36,59.552 36,59 L36,54 L38,54 L38,59 C38,59.552 38.447,60 39,60 C39.553,60 40,59.552 40,59 L40,54 L42,54 L42,59 C42,59.552 42.447,60 43,60 C43.553,60 44,59.552 44,59 L44,54 L45,54 C45.553,54 46,53.552 46,53 L46,49 C46,46.243 43.757,44 41,44 L34,44 L34,7 C34,5.346 32.654,4 31,4 L31,4 Z M30,7 C30,6.449 30.448,6 31,6 C31.552,6 32,6.449 32,7 L32,44 L30,44 L30,7 L30,7 Z M44,49 L44,52 L18,52 L18,49 C18,47.346 19.346,46 21,46 L41,46 C42.654,46 44,47.346 44,49 L44,49 Z" id="Shape" fill="#000000"></path>
    </g>
</svg>