<?xml version="1.0" encoding="UTF-8" standalone="no"?>
<svg width="64px" height="64px" viewBox="0 0 64 64" version="1.1" xmlns="http://www.w3.org/2000/svg" xmlns:xlink="http://www.w3.org/1999/xlink">
    <!-- Generator: Sketch 3.7.2 (28276) - http://www.bohemiancoding.com/sketch -->
    <title>cle-brush-2</title>
    <desc>Created with Sketch.</desc>
    <defs></defs>
    <g id="64px-Line" stroke="none" stroke-width="1" fill="none" fill-rule="evenodd">
        <g id="cle-brush-2"></g>
        <path d="M57.162,6.013 C56.613,5.923 56.102,6.293 56.014,6.839 C56.001,6.92 54.605,15.044 48.227,19.567 L28.174,33.784 C28.173,33.785 28.172,33.784 28.171,33.785 C28.17,33.786 28.169,33.787 28.168,33.788 L24.829,36.155 C24.828,36.155 24.827,36.155 24.827,36.156 C24.826,36.156 24.826,36.157 24.825,36.158 L21.484,38.527 L21.483,38.527 L21.482,38.528 L18.14,40.897 C18.139,40.897 18.139,40.897 18.138,40.898 C18.137,40.898 18.137,40.899 18.136,40.9 L14.798,43.266 C14.797,43.267 14.795,43.267 14.793,43.268 C14.791,43.269 14.791,43.271 14.789,43.272 L11.452,45.638 C11.451,45.639 11.449,45.639 11.448,45.639 C11.447,45.64 11.446,45.641 11.445,45.642 L8.107,48.008 C8.106,48.008 8.105,48.009 8.104,48.009 C8.103,48.01 8.103,48.011 8.101,48.012 L6.421,49.203 C5.97,49.522 5.864,50.146 6.183,50.597 C6.378,50.872 6.686,51.019 7,51.019 C7.2,51.019 7.402,50.959 7.577,50.834 L8.423,50.234 L14.867,59.568 C15.061,59.849 15.373,60 15.691,60 C15.887,60 16.085,59.942 16.258,59.823 C16.712,59.509 16.826,58.886 16.512,58.431 L10.054,49.077 L11.767,47.863 L18.211,57.197 C18.405,57.478 18.717,57.629 19.035,57.629 C19.231,57.629 19.429,57.571 19.602,57.452 C20.056,57.138 20.17,56.515 19.856,56.06 L13.398,46.706 L15.111,45.492 L21.555,54.826 C21.749,55.107 22.061,55.258 22.379,55.258 C22.575,55.258 22.773,55.2 22.946,55.081 C23.4,54.767 23.514,54.144 23.2,53.689 L16.742,44.335 L18.454,43.121 L24.899,52.454 C25.093,52.735 25.405,52.886 25.723,52.886 C25.919,52.886 26.117,52.828 26.29,52.709 C26.744,52.395 26.858,51.772 26.544,51.317 L20.085,41.963 L21.798,40.749 L28.242,50.083 C28.436,50.364 28.748,50.515 29.066,50.515 C29.262,50.515 29.46,50.457 29.633,50.338 C30.087,50.024 30.201,49.401 29.887,48.946 L23.429,39.592 L25.142,38.378 L31.586,47.712 C31.78,47.993 32.092,48.144 32.41,48.144 C32.606,48.144 32.804,48.086 32.977,47.967 C33.431,47.653 33.545,47.03 33.231,46.575 L26.773,37.221 L28.486,36.007 L34.93,45.341 C35.124,45.622 35.436,45.773 35.754,45.773 C35.95,45.773 36.148,45.715 36.321,45.596 C36.775,45.282 36.889,44.659 36.575,44.204 L30.117,34.85 L49.378,21.195 C56.431,16.195 57.922,7.526 57.982,7.159 C58.076,6.616 57.707,6.103 57.162,6.013 L57.162,6.013 Z" id="Shape" fill="#000000"></path>
    </g>
</svg>