<?xml version="1.0" encoding="UTF-8" standalone="no"?>
<svg width="44px" height="44px" viewBox="0 0 44 44" version="1.1" xmlns="http://www.w3.org/2000/svg" xmlns:xlink="http://www.w3.org/1999/xlink">
    <!-- Generator: Sketch 3.7.2 (28276) - http://www.bohemiancoding.com/sketch -->
    <title>cle-spraycan</title>
    <desc>Created with Sketch.</desc>
    <defs></defs>
    <g id="44px-Line" stroke="none" stroke-width="1" fill="none" fill-rule="evenodd">
        <g id="cle-spraycan"></g>
        <path d="M2,40 C2,42.206 3.794,44 6,44 L24,44 C26.206,44 28,42.206 28,40 L28,17 C28,16.976 27.988,16.956 27.986,16.932 C27.981,16.862 27.964,16.798 27.945,16.731 C27.928,16.67 27.912,16.612 27.884,16.556 C27.857,16.502 27.82,16.456 27.783,16.407 C27.74,16.35 27.697,16.297 27.643,16.25 C27.626,16.235 27.617,16.214 27.598,16.2 L19.998,10.5 L19.998,3 C19.998,2.447 19.551,2 18.998,2 L10.998,2 C10.445,2 9.998,2.447 9.998,3 L9.998,10.5 L2.398,16.2 C2.379,16.214 2.371,16.235 2.353,16.25 C2.299,16.296 2.256,16.35 2.213,16.406 C2.176,16.455 2.139,16.501 2.112,16.556 C2.084,16.611 2.069,16.67 2.051,16.73 C2.032,16.797 2.015,16.862 2.01,16.932 C2.012,16.956 2,16.976 2,17 L2,40 L2,40 Z M11.333,12 L18.667,12 L24.001,16 L6,16 L11.333,12 L11.333,12 Z M26,36 L18,36 L18,22 L26,22 L26,36 L26,36 Z M24,42 L6,42 C4.897,42 4,41.103 4,40 L4,18 L26,18 L26,20 L17,20 C16.447,20 16,20.447 16,21 L16,37 C16,37.553 16.447,38 17,38 L26,38 L26,40 C26,41.103 25.103,42 24,42 L24,42 Z M18,4 L18,10 L12,10 L12,4 L18,4 L18,4 Z" id="Shape" fill="#000000"></path>
        <path d="M23,8 L25.5,8 C26.053,8 26.5,7.553 26.5,7 C26.5,6.447 26.053,6 25.5,6 L23,6 C22.447,6 22,6.447 22,7 C22,7.553 22.447,8 23,8 L23,8 Z" id="Shape" fill="#000000"></path>
        <path d="M28.553,7 C28.553,7.553 29,8 29.553,8 L32.448,8 C33.001,8 33.448,7.553 33.448,7 C33.448,6.447 33.001,6 32.448,6 L29.553,6 C29,6 28.553,6.447 28.553,7 L28.553,7 Z" id="Shape" fill="#000000"></path>
        <path d="M35.5,7 C35.5,7.553 35.947,8 36.5,8 L39,8 C39.553,8 40,7.553 40,7 C40,6.447 39.553,6 39,6 L36.5,6 C35.947,6 35.5,6.447 35.5,7 L35.5,7 Z" id="Shape" fill="#000000"></path>
        <path d="M22.999,5 C23.068,5 23.139,4.993 23.209,4.978 L25.653,4.455 C26.193,4.34 26.538,3.809 26.422,3.268 C26.307,2.727 25.773,2.376 25.235,2.499 L22.791,3.022 C22.251,3.137 21.906,3.668 22.022,4.209 C22.123,4.679 22.537,5 22.999,5 L22.999,5 Z" id="Shape" fill="#000000"></path>
        <path d="M31.13,1.235 L28.45,1.809 C27.91,1.924 27.566,2.456 27.682,2.997 C27.783,3.466 28.197,3.787 28.659,3.787 C28.728,3.787 28.799,3.78 28.87,3.765 L31.55,3.191 C32.09,3.076 32.434,2.544 32.318,2.003 C32.201,1.464 31.673,1.115 31.13,1.235 L31.13,1.235 Z" id="Shape" fill="#000000"></path>
        <path d="M36.791,0.022 L34.347,0.545 C33.807,0.66 33.462,1.191 33.578,1.732 C33.679,2.202 34.093,2.523 34.555,2.523 C34.624,2.523 34.695,2.516 34.765,2.501 L37.209,1.978 C37.749,1.863 38.094,1.332 37.978,0.791 C37.861,0.25 37.329,-0.101 36.791,0.022 L36.791,0.022 Z" id="Shape" fill="#000000"></path>
        <path d="M25.653,9.546 L23.209,9.023 C22.669,8.902 22.138,9.252 22.022,9.792 C21.906,10.332 22.251,10.863 22.791,10.979 L25.235,11.502 C25.305,11.518 25.376,11.524 25.445,11.524 C25.907,11.524 26.321,11.203 26.422,10.733 C26.538,10.192 26.193,9.661 25.653,9.546 L25.653,9.546 Z" id="Shape" fill="#000000"></path>
        <path d="M28.45,12.19 L31.13,12.764 C31.201,12.78 31.272,12.786 31.341,12.786 C31.802,12.786 32.217,12.465 32.318,11.996 C32.434,11.456 32.09,10.924 31.55,10.808 L28.87,10.234 C28.325,10.114 27.798,10.463 27.682,11.002 C27.566,11.543 27.91,12.075 28.45,12.19 L28.45,12.19 Z" id="Shape" fill="#000000"></path>
        <path d="M34.347,13.454 L36.791,13.977 C36.861,13.993 36.932,13.999 37.001,13.999 C37.463,13.999 37.877,13.678 37.978,13.208 C38.094,12.668 37.749,12.137 37.209,12.021 L34.765,11.498 C34.226,11.377 33.694,11.727 33.578,12.267 C33.462,12.808 33.807,13.339 34.347,13.454 L34.347,13.454 Z" id="Shape" fill="#000000"></path>
    </g>
</svg>