<?xml version="1.0" encoding="UTF-8" standalone="no"?>
<svg width="64px" height="64px" viewBox="0 0 64 64" version="1.1" xmlns="http://www.w3.org/2000/svg" xmlns:xlink="http://www.w3.org/1999/xlink">
    <!-- Generator: Sketch 3.7.2 (28276) - http://www.bohemiancoding.com/sketch -->
    <title>cle-dustbin</title>
    <desc>Created with Sketch.</desc>
    <defs></defs>
    <g id="64px-Line" stroke="none" stroke-width="1" fill="none" fill-rule="evenodd">
        <g id="cle-dustbin"></g>
        <path d="M55,14 L42,14 L42,11 C42,8.243 39.757,6 37,6 L29,6 C26.243,6 24,8.243 24,11 L24,14 L11,14 C10.447,14 10,14.448 10,15 C10,15.552 10.447,16 11,16 L14,16 L14,53 C14,55.757 16.243,58 19,58 L47,58 C49.757,58 52,55.757 52,53 L52,16 L55,16 C55.553,16 56,15.552 56,15 C56,14.448 55.553,14 55,14 L55,14 Z M26,11 C26,9.346 27.346,8 29,8 L37,8 C38.654,8 40,9.346 40,11 L40,14 L26,14 L26,11 L26,11 Z M50,53 C50,54.654 48.654,56 47,56 L19,56 C17.346,56 16,54.654 16,53 L16,16 L50,16 L50,53 L50,53 Z" id="Shape" fill="#000000"></path>
        <path d="M33,22 C32.447,22 32,22.448 32,23 L32,49 C32,49.552 32.447,50 33,50 C33.553,50 34,49.552 34,49 L34,23 C34,22.448 33.553,22 33,22 L33,22 Z" id="Shape" fill="#000000"></path>
        <path d="M23,22 C22.447,22 22,22.448 22,23 L22,49 C22,49.552 22.447,50 23,50 C23.553,50 24,49.552 24,49 L24,23 C24,22.448 23.553,22 23,22 L23,22 Z" id="Shape" fill="#000000"></path>
        <path d="M43,50 C43.553,50 44,49.552 44,49 L44,23 C44,22.448 43.553,22 43,22 C42.447,22 42,22.448 42,23 L42,49 C42,49.552 42.447,50 43,50 L43,50 Z" id="Shape" fill="#000000"></path>
    </g>
</svg>