<?xml version="1.0" encoding="UTF-8" standalone="no"?>
<svg width="44px" height="44px" viewBox="0 0 44 44" version="1.1" xmlns="http://www.w3.org/2000/svg" xmlns:xlink="http://www.w3.org/1999/xlink">
    <!-- Generator: Sketch 3.7.2 (28276) - http://www.bohemiancoding.com/sketch -->
    <title>cle-mop</title>
    <desc>Created with Sketch.</desc>
    <defs></defs>
    <g id="44px-Line" stroke="none" stroke-width="1" fill="none" fill-rule="evenodd">
        <g id="cle-mop"></g>
        <path d="M39.402,0.91 L22.383,21.577 C18.559,20.305 15.106,21.88 13.034,25.91 C12.61,26.734 12.364,27.673 12.21,28.651 C11.228,28.72 9.929,28.852 8.851,29.102 C6.69,29.602 5.586,30.203 5.158,31.111 C4.725,32.029 5.149,32.881 5.459,33.503 C5.701,33.989 5.841,34.299 5.747,34.502 C5.595,34.829 4.495,35.232 3.767,35.499 C2.089,36.113 0.001,36.878 0.001,38.962 C0.001,43.637 13.131,44 17.155,44 C26.033,44 35.925,40.936 35.925,36.538 C35.925,34.365 33.712,32.514 29.395,31.021 C29.436,30.7 29.463,30.382 29.463,30.077 C29.463,28.371 28.954,26.221 26.984,24.316 L43.346,4.347 C43.809,3.825 44.04,3.152 43.997,2.454 C43.954,1.757 43.642,1.117 43.117,0.654 C42.035,-0.3 40.378,-0.196 39.402,0.91 L39.402,0.91 Z M33.923,36.538 C33.923,38.686 26.722,42 17.153,42 C6.444,42 1.999,40.021 1.999,38.962 C1.999,38.326 3.062,37.886 4.453,37.377 C5.793,36.886 7.059,36.423 7.56,35.344 C8.066,34.254 7.574,33.266 7.248,32.612 C7.144,32.403 6.969,32.052 6.965,31.967 C6.975,31.949 7.229,31.531 9.301,31.052 C9.992,30.891 10.944,30.76 12.006,30.673 C11.971,31.33 11.955,31.983 11.941,32.613 C11.87,35.964 11.67,37.153 10.691,37.153 L10.618,37.153 C10.066,37.153 9.618,37.6 9.618,38.153 C9.618,38.706 10.066,39.153 10.618,39.153 L20.384,39.153 C24.888,39.153 27.786,36.104 28.918,32.97 C32.059,34.081 33.923,35.392 33.923,36.538 L33.923,36.538 Z M21.533,37.057 C21.952,35.812 21.987,34.183 22.019,32.655 C22.044,31.467 22.07,30.241 22.231,29.116 C22.31,28.569 21.93,28.062 21.383,27.983 C20.836,27.901 20.329,28.284 20.251,28.831 C20.072,30.077 20.044,31.366 20.018,32.612 C19.947,35.964 19.747,37.153 18.768,37.153 L17.456,37.153 C17.907,35.896 17.946,34.223 17.979,32.655 C18.014,31.016 18.049,29.321 18.433,27.922 C18.579,27.389 18.266,26.839 17.733,26.693 C17.201,26.551 16.65,26.862 16.504,27.393 C16.055,29.033 16.015,30.935 15.979,32.613 C15.908,35.965 15.708,37.154 14.729,37.154 L13.421,37.154 C13.871,35.897 13.907,34.223 13.94,32.656 C13.983,30.633 14.032,28.339 14.81,26.825 C15.815,24.874 18.137,21.873 22.407,23.725 C25.759,25.179 27.459,27.317 27.459,30.078 C27.461,32.345 25.701,36.413 21.533,37.057 L21.533,37.057 Z M41.822,3.051 L25.412,23.077 C25.065,22.848 24.692,22.626 24.287,22.412 L40.924,2.208 C41.149,1.955 41.539,1.931 41.793,2.153 C41.916,2.262 41.99,2.413 42,2.577 C42.009,2.741 41.955,2.899 41.822,3.051 L41.822,3.051 Z" id="Shape" fill="#000000"></path>
    </g>
</svg>