<?xml version="1.0" encoding="UTF-8" standalone="no"?>
<svg width="64px" height="64px" viewBox="0 0 64 64" version="1.1" xmlns="http://www.w3.org/2000/svg" xmlns:xlink="http://www.w3.org/1999/xlink">
    <!-- Generator: Sketch 3.7.2 (28276) - http://www.bohemiancoding.com/sketch -->
    <title>cle-dustpan-brush</title>
    <desc>Created with Sketch.</desc>
    <defs></defs>
    <g id="64px-Line" stroke="none" stroke-width="1" fill="none" fill-rule="evenodd">
        <g id="cle-dustpan-brush"></g>
        <path d="M7,58 L43,58 C44.654,58 46,56.654 46,55 L46,48 C46,40.536 39.305,36.789 34.875,34.31 C34.258,33.965 33.681,33.642 33.171,33.336 L31.457,32.308 C30.559,31.769 30,30.784 30,29.736 L30,13 C30,10.243 27.757,8 25,8 C22.243,8 20,10.243 20,13 L20,29.735 C20,30.783 19.442,31.768 18.543,32.307 L16.829,33.335 C16.344,33.626 15.799,33.934 15.217,34.263 C10.75,36.786 4,40.598 4,48 L4,55 C4,56.654 5.346,58 7,58 L7,58 Z M6,48 C6,41.766 11.896,38.436 16.201,36.005 C16.8,35.667 17.36,35.35 17.859,35.051 L19.573,34.023 C21.07,33.125 22,31.482 22,29.736 L22,13 C22,11.346 23.346,10 25,10 C26.654,10 28,11.346 28,13 L28,29.735 C28,31.481 28.93,33.124 30.427,34.022 L32.141,35.05 C32.667,35.366 33.262,35.698 33.897,36.054 C38.161,38.441 44,41.708 44,48 L44,55 C44,55.551 43.551,56 43,56 L7,56 C6.449,56 6,55.551 6,55 L6,48 L6,48 Z" id="Shape" fill="#000000"></path>
        <path d="M11.806,44.592 C11.975,44.363 16.041,39 25,39 C33.959,39 38.025,44.363 38.192,44.589 C38.388,44.858 38.692,45 39.001,45 C39.205,45 39.412,44.938 39.589,44.808 C40.035,44.482 40.133,43.857 39.808,43.411 C39.617,43.149 35.018,37 25,37 C14.982,37 10.383,43.149 10.192,43.411 C9.867,43.856 9.965,44.479 10.409,44.805 C10.853,45.132 11.479,45.036 11.806,44.592 L11.806,44.592 Z" id="Shape" fill="#000000"></path>
        <path d="M43,34 L52,34 L52,57 C52,57.552 52.448,58 53,58 L54,58 C56.206,58 58,56.206 58,54 L58,10 C58,7.794 56.206,6 54,6 L53,6 C52.448,6 52,6.448 52,7 L52,8 L43,8 C42.448,8 42,8.448 42,9 L42,33 C42,33.552 42.448,34 43,34 L43,34 Z M52,20 L44,20 L44,18 L52,18 L52,20 L52,20 Z M52,22 L52,24 L44,24 L44,22 L52,22 L52,22 Z M52,26 L52,28 L44,28 L44,26 L52,26 L52,26 Z M52,16 L44,16 L44,14 L52,14 L52,16 L52,16 Z M44,32 L44,30 L52,30 L52,32 L44,32 L44,32 Z M54,8 C55.103,8 56,8.897 56,10 L56,54 C56,55.103 55.103,56 54,56 L54,8 L54,8 Z M52,10 L52,12 L44,12 L44,10 L52,10 L52,10 Z" id="Shape" fill="#000000"></path>
    </g>
</svg>