<?xml version="1.0" encoding="UTF-8" standalone="no"?>
<svg width="64px" height="64px" viewBox="0 0 64 64" version="1.1" xmlns="http://www.w3.org/2000/svg" xmlns:xlink="http://www.w3.org/1999/xlink">
    <!-- Generator: Sketch 3.7.2 (28276) - http://www.bohemiancoding.com/sketch -->
    <title>cle-wheelie-bin-open</title>
    <desc>Created with Sketch.</desc>
    <defs></defs>
    <g id="64px-Glyph" stroke="none" stroke-width="1" fill="none" fill-rule="evenodd">
        <g id="cle-wheelie-bin-open" fill="#000000">
            <path d="M43.0001,56 C41.3461,56 40.0001,54.654 40.0001,53 C40.0001,51.346 41.3461,50 43.0001,50 C44.6541,50 46.0001,51.346 46.0001,53 C46.0001,54.654 44.6541,56 43.0001,56 M43.0001,46 C39.1411,46 36.0001,49.141 36.0001,53 C36.0001,56.859 39.1411,60 43.0001,60 C46.8591,60 50.0001,56.859 50.0001,53 C50.0001,49.141 46.8591,46 43.0001,46" id="Fill-174"></path>
            <path d="M47.1241,20 C47.0041,20 46.8821,19.978 46.7631,19.933 L18.6391,9.044 C18.3901,8.947 18.1901,8.756 18.0831,8.511 C17.9771,8.267 17.9731,7.989 18.0711,7.741 L18.8081,5.892 C19.4141,4.364 21.1701,3.609 22.7071,4.205 L47.0821,13.643 C47.8361,13.935 48.4301,14.501 48.7521,15.238 C49.0701,15.969 49.0841,16.779 48.7901,17.52 L48.0531,19.37 C47.8971,19.762 47.5211,20 47.1241,20" id="Fill-175"></path>
            <path d="M34.0001,53 C34.0001,48.037 38.0371,44 43.0001,44 C44.8491,44 46.5691,44.562 48.0001,45.522 L48.0001,21 C48.0001,20.447 47.5531,20 47.0001,20 L17.0001,20 C16.7061,20 16.4271,20.13 16.2361,20.354 C16.0471,20.578 15.9651,20.875 16.0141,21.165 L21.3471,52.936 C21.8101,55.87 24.3021,58 27.2721,58 L35.5221,58 C34.5621,56.569 34.0001,54.849 34.0001,53" id="Fill-176"></path>
        </g>
    </g>
</svg>