<?xml version="1.0" encoding="UTF-8" standalone="no"?>
<svg width="64px" height="64px" viewBox="0 0 64 64" version="1.1" xmlns="http://www.w3.org/2000/svg" xmlns:xlink="http://www.w3.org/1999/xlink">
    <!-- Generator: Sketch 3.7.2 (28276) - http://www.bohemiancoding.com/sketch -->
    <title>cle-wastebin</title>
    <desc>Created with Sketch.</desc>
    <defs></defs>
    <g id="64px-Glyph" stroke="none" stroke-width="1" fill="none" fill-rule="evenodd">
        <g id="cle-wastebin" fill="#000000">
            <path d="M18.586,14 L14.039,18.547 L11.313,15.82 L11.115,14 L18.586,14 Z M30.586,14 L26.039,18.547 L21.493,14 L30.586,14 Z M42.586,14 L38.039,18.547 L33.492,14 L42.586,14 Z M52.678,15.908 L50.04,18.547 L45.492,14 L52.885,14 L52.678,15.908 Z M52.161,20.668 L51.454,19.961 L52.333,19.081 L52.161,20.668 Z M44.039,51.375 L44.664,52 L43.414,52 L44.039,51.375 Z M32.039,51.375 L32.664,52 L31.414,52 L32.039,51.375 Z M20.038,51.376 L20.663,52 L19.414,52 L20.038,51.376 Z M11.847,20.739 L11.657,18.993 L12.625,19.961 L11.847,20.739 Z M18.625,25.961 L14.037,30.549 L12.776,29.288 L12.124,23.29 L14.039,21.375 L18.625,25.961 Z M20.039,24.547 L15.453,19.961 L20.039,15.375 L24.625,19.961 L20.039,24.547 Z M30.625,25.961 L26.039,30.547 L21.453,25.961 L26.039,21.375 L30.625,25.961 Z M32.039,24.547 L27.453,19.961 L32.039,15.375 L36.625,19.961 L32.039,24.547 Z M42.625,25.961 L38.039,30.547 L33.453,25.961 L38.039,21.375 L42.625,25.961 Z M44.039,24.547 L39.453,19.961 L44.039,15.375 L48.626,19.961 L44.039,24.547 Z M44.039,36.547 L39.454,31.961 L44.039,27.375 L48.625,31.961 L44.039,36.547 Z M49.808,42.315 L45.453,37.961 L50.039,33.375 L50.707,34.043 L49.808,42.315 Z M44.039,39.375 L48.625,43.961 L44.039,48.547 L39.453,43.961 L44.039,39.375 Z M33.453,37.961 L38.039,33.375 L42.625,37.961 L38.039,42.547 L33.453,37.961 Z M32.039,39.375 L36.625,43.961 L32.039,48.547 L27.453,43.962 L32.039,39.375 Z M27.453,31.961 L32.039,27.375 L36.625,31.961 L32.039,36.547 L27.453,31.961 Z M21.452,37.962 L26.039,33.375 L30.625,37.961 L26.038,42.548 L21.452,37.962 Z M20.038,39.376 L24.624,43.962 L20.038,48.548 L15.451,43.963 L20.038,39.376 Z M15.452,31.963 L20.039,27.375 L24.625,31.961 L20.038,36.548 L15.452,31.963 Z M18.624,37.962 L14.2,42.385 L13.301,34.113 L14.038,33.377 L18.624,37.962 Z M51.215,29.372 L50.039,30.547 L45.453,25.961 L50.04,21.375 L51.884,23.219 L51.215,29.372 Z M15.245,52 L14.585,45.925 L18.624,49.962 L16.586,52 L15.245,52 Z M23.492,52 L21.453,49.962 L26.038,45.376 L30.625,49.961 L28.586,52 L23.492,52 Z M35.492,52 L33.453,49.961 L38.039,45.375 L42.625,49.961 L40.586,52 L35.492,52 Z M47.492,52 L45.453,49.961 L49.407,46.007 L48.755,52 L47.492,52 Z M58,10 C58,7.794 56.206,6 54,6 L10,6 C7.795,6 6,7.794 6,10 C6,11.892 7.324,13.472 9.091,13.886 L13.715,56.433 C13.936,58.466 15.646,60 17.691,60 L46.309,60 C48.355,60 50.064,58.466 50.285,56.433 L54.91,13.886 C56.677,13.472 58,11.892 58,10 L58,10 Z" id="Fill-112"></path>
        </g>
    </g>
</svg>