<?xml version="1.0" encoding="UTF-8" standalone="no"?>
<svg width="44px" height="44px" viewBox="0 0 44 44" version="1.1" xmlns="http://www.w3.org/2000/svg" xmlns:xlink="http://www.w3.org/1999/xlink">
    <!-- Generator: Sketch 3.7.2 (28276) - http://www.bohemiancoding.com/sketch -->
    <title>cle-iron-warm</title>
    <desc>Created with Sketch.</desc>
    <defs></defs>
    <g id="44px-Line" stroke="none" stroke-width="1" fill="none" fill-rule="evenodd">
        <g id="cle-iron-warm"></g>
        <path d="M20,22 C17.794,22 16,23.794 16,26 C16,28.206 17.794,30 20,30 C22.206,30 24,28.206 24,26 C24,23.794 22.206,22 20,22 L20,22 Z M20,28 C18.897,28 18,27.103 18,26 C18,24.897 18.897,24 20,24 C21.103,24 22,24.897 22,26 C22,27.103 21.103,28 20,28 L20,28 Z" id="Shape" fill="#000000"></path>
        <path d="M30,22 C27.794,22 26,23.794 26,26 C26,28.206 27.794,30 30,30 C32.206,30 34,28.206 34,26 C34,23.794 32.206,22 30,22 L30,22 Z M30,28 C28.897,28 28,27.103 28,26 C28,24.897 28.897,24 30,24 C31.103,24 32,24.897 32,26 C32,27.103 31.103,28 30,28 L30,28 Z" id="Shape" fill="#000000"></path>
        <path d="M1,36 L43,36 C43.285,36 43.556,35.878 43.746,35.666 C43.935,35.454 44.025,35.17 43.993,34.887 L41.955,16.893 C41.955,16.889 41.954,16.884 41.954,16.879 L41.508,12.946 C41.503,12.903 41.495,12.859 41.485,12.817 C40.483,8.803 36.892,6 32.755,6 L17,6 C16.447,6 16,6.448 16,7 C16,7.552 16.447,8 17,8 L32.754,8 C35.951,8 38.728,10.151 39.528,13.24 L39.841,16 L21,16 C2.58,16 0.031,34.687 0.008,34.876 C-0.028,35.161 0.061,35.447 0.25,35.662 C0.44,35.877 0.713,36 1,36 L1,36 Z M21,18 L40.068,18 L41.88,34 L2.19,34 C2.998,30.159 6.686,18 21,18 L21,18 Z" id="Shape" fill="#000000"></path>
    </g>
</svg>