<?xml version="1.0" encoding="UTF-8" standalone="no"?>
<svg width="64px" height="64px" viewBox="0 0 64 64" version="1.1" xmlns="http://www.w3.org/2000/svg" xmlns:xlink="http://www.w3.org/1999/xlink">
    <!-- Generator: Sketch 3.7.2 (28276) - http://www.bohemiancoding.com/sketch -->
    <title>cle-toilet-roll</title>
    <desc>Created with Sketch.</desc>
    <defs></defs>
    <g id="64px-Glyph" stroke="none" stroke-width="1" fill="none" fill-rule="evenodd">
        <g id="cle-toilet-roll" fill="#000000">
            <path d="M38.0001,25 C38.0001,15.414 40.6771,9.015 44.1451,6 L13.0001,6 C7.9531,6 4.0001,14.346 4.0001,25 C4.0001,35.654 7.9531,44 13.0001,44 L44.1451,44 C40.6771,40.985 38.0001,34.586 38.0001,25" id="Fill-230"></path>
            <path d="M49.0001,46 L20.0001,46 L20.0001,59 C20.0001,59.404 20.2441,59.77 20.6171,59.924 C20.9921,60.079 21.4201,59.992 21.7071,59.707 L24.0001,57.414 L26.2931,59.707 C26.6841,60.098 27.3161,60.098 27.7071,59.707 L30.0001,57.414 L32.2931,59.707 C32.6841,60.098 33.3161,60.098 33.7071,59.707 L36.0001,57.414 L38.2931,59.707 C38.6841,60.098 39.3161,60.098 39.7071,59.707 L42.0001,57.414 L44.2931,59.707 C44.6841,60.098 45.3161,60.098 45.7071,59.707 L48.0001,57.414 L50.2931,59.707 C50.6841,60.098 51.3161,60.098 51.7071,59.707 L54.0001,57.414 L56.2931,59.707 C56.4841,59.898 56.7401,60 57.0001,60 C57.1291,60 57.2591,59.976 57.3831,59.924 C57.7561,59.77 58.0001,59.404 58.0001,59 L58.0001,37.589 C55.9021,43.14 52.4391,46 49.0001,46" id="Fill-231"></path>
            <path d="M48.0001,25 C48.0001,27.764 48.6301,29.44 49.0001,29.909 C49.3701,29.44 50.0001,27.764 50.0001,25 C50.0001,22.236 49.3701,20.56 49.0001,20.091 C48.6301,20.56 48.0001,22.236 48.0001,25" id="Fill-232"></path>
            <path d="M49.0001,32 C46.9281,32 46.0001,28.484 46.0001,25 C46.0001,21.516 46.9281,18 49.0001,18 C51.0721,18 52.0001,21.516 52.0001,25 C52.0001,28.484 51.0721,32 49.0001,32 M49.0001,6 C43.9531,6 40.0001,14.346 40.0001,25 C40.0001,35.654 43.9531,44 49.0001,44 C54.0471,44 58.0001,35.654 58.0001,25 C58.0001,14.346 54.0471,6 49.0001,6" id="Fill-233"></path>
        </g>
    </g>
</svg>