<?xml version="1.0" encoding="UTF-8" standalone="no"?>
<svg width="64px" height="64px" viewBox="0 0 64 64" version="1.1" xmlns="http://www.w3.org/2000/svg" xmlns:xlink="http://www.w3.org/1999/xlink">
    <!-- Generator: Sketch 3.7.2 (28276) - http://www.bohemiancoding.com/sketch -->
    <title>cle-vaccum-bagless</title>
    <desc>Created with Sketch.</desc>
    <defs></defs>
    <g id="64px-Glyph" stroke="none" stroke-width="1" fill="none" fill-rule="evenodd">
        <g id="cle-vaccum-bagless" fill="#000000">
            <polygon id="Fill-116" points="44.1803 38 45.7803 30 40.2193 30 41.8203 38"></polygon>
            <path d="M46.0001,22 L46.0001,9 C46.0001,7.346 44.6541,6 43.0001,6 C41.3461,6 40.0001,7.346 40.0001,9 L40.0001,22 C37.7941,22 36.0001,23.794 36.0001,26 L36.0001,28 L50.0001,28 L50.0001,26 C50.0001,23.794 48.2061,22 46.0001,22" id="Fill-117"></path>
            <path d="M51.7703,52 L51.4043,49.343 C51.0813,47.405 49.4223,46 47.4583,46 L38.5413,46 C36.5783,46 34.9183,47.405 34.5913,49.37 L34.2293,52 L51.7703,52 Z" id="Fill-118"></path>
            <path d="M53.0001,54 L33.0001,54 C32.4481,54 32.0001,54.447 32.0001,55 L32.0001,57 C32.0001,57.553 32.4481,58 33.0001,58 L34.0001,58 C34.0001,59.102 34.8971,60 36.0001,60 C37.1031,60 38.0001,59.102 38.0001,58 L48.0001,58 C48.0001,59.102 48.8971,60 50.0001,60 C51.1031,60 52.0001,59.102 52.0001,58 L53.0001,58 C53.5521,58 54.0001,57.553 54.0001,57 L54.0001,55 C54.0001,54.447 53.5521,54 53.0001,54" id="Fill-119"></path>
            <path d="M47.8198,30 L45.9808,39.196 C45.8878,39.663 45.4768,40 44.9998,40 L40.9998,40 C40.5238,40 40.1128,39.663 40.0198,39.196 L38.1808,30 L35.9998,30 L35.9998,32 L32.9998,32 C29.1398,32 25.9998,35.141 25.9998,39 L25.9998,53 C25.9998,55.757 23.7568,58 20.9998,58 C18.2428,58 15.9998,55.757 15.9998,53 L15.9998,48 L16.9998,48 C17.5518,48 17.9998,47.553 17.9998,47 L17.9998,15.721 L23.3168,13.948 C23.7248,13.813 23.9998,13.431 23.9998,13 L23.9998,9 C23.9998,8.447 23.5518,8 22.9998,8 L6.9998,8 C6.4478,8 5.9998,8.447 5.9998,9 L5.9998,13 C5.9998,13.431 6.2758,13.813 6.6838,13.948 L11.9998,15.721 L11.9998,47 C11.9998,47.553 12.4478,48 12.9998,48 L13.9998,48 L13.9998,53 C13.9998,56.859 17.1398,60 20.9998,60 C24.8598,60 27.9998,56.859 27.9998,53 L27.9998,39 C27.9998,36.243 30.2428,34 32.9998,34 L35.9998,34 L35.9998,44.585 C36.7768,44.221 37.6318,44 38.5418,44 L47.4588,44 C48.3678,44 49.2228,44.221 49.9998,44.585 L49.9998,30 L47.8198,30 Z" id="Fill-120"></path>
        </g>
    </g>
</svg>