<?xml version="1.0" encoding="UTF-8" standalone="no"?>
<svg width="44px" height="44px" viewBox="0 0 44 44" version="1.1" xmlns="http://www.w3.org/2000/svg" xmlns:xlink="http://www.w3.org/1999/xlink">
    <!-- Generator: Sketch 3.7.2 (28276) - http://www.bohemiancoding.com/sketch -->
    <title>cle-plunger</title>
    <desc>Created with Sketch.</desc>
    <defs></defs>
    <g id="44px-Line" stroke="none" stroke-width="1" fill="none" fill-rule="evenodd">
        <g id="cle-plunger"></g>
        <path d="M6.931,27.702 C6.54,27.311 5.908,27.311 5.517,27.702 C5.126,28.093 5.126,28.725 5.517,29.116 L11.434,35.033 C11.629,35.228 11.885,35.326 12.141,35.326 C12.397,35.326 12.653,35.228 12.848,35.033 C13.239,34.642 13.239,34.01 12.848,33.619 L6.931,27.702 L6.931,27.702 Z" id="Shape" fill="#000000"></path>
        <path d="M38.879,0.879 L16.286,23.473 C14.672,22.581 12.853,22.101 10.959,22.101 C8.279,22.101 5.751,23.058 3.746,24.796 C2.766,24.387 1.556,24.563 0.784,25.336 C0.279,25.841 0.001,26.512 0.001,27.227 C0.001,27.941 0.279,28.612 0.784,29.118 L14.986,43.319 C15.491,43.824 16.162,44.102 16.876,44.102 C17.59,44.102 18.262,43.824 18.767,43.319 C19.272,42.814 19.55,42.143 19.55,41.428 C19.55,41.048 19.466,40.682 19.316,40.344 C22.401,36.768 22.811,31.678 20.551,27.695 L43.123,5.122 C44.293,3.952 44.293,2.05 43.123,0.88 C41.988,-0.254 40.012,-0.254 38.879,0.879 L38.879,0.879 Z M17.352,39.536 C17.157,39.731 17.059,39.987 17.059,40.243 C17.059,40.251 17.063,40.258 17.063,40.265 C17.069,40.513 17.162,40.76 17.351,40.95 C17.478,41.077 17.549,41.247 17.549,41.427 C17.549,41.607 17.479,41.777 17.352,41.904 C17.098,42.158 16.654,42.158 16.399,41.904 L2.198,27.703 C2.071,27.576 2,27.406 2,27.226 C2,27.046 2.07,26.876 2.198,26.749 C2.452,26.493 2.896,26.493 3.15,26.749 C3.345,26.944 3.601,27.042 3.857,27.042 C4.113,27.042 4.369,26.944 4.564,26.749 C6.272,25.041 8.543,24.101 10.958,24.101 C13.373,24.101 15.644,25.041 17.352,26.749 C17.771,27.168 18.137,27.62 18.456,28.094 C18.487,28.141 18.509,28.191 18.549,28.233 C20.814,31.736 20.417,36.471 17.352,39.536 L17.352,39.536 Z M41.707,3.707 L19.389,26.025 C19.19,25.79 18.987,25.556 18.765,25.335 C18.51,25.08 18.245,24.841 17.971,24.615 L40.293,2.293 C40.67,1.914 41.329,1.914 41.707,2.293 C42.097,2.683 42.097,3.317 41.707,3.707 L41.707,3.707 Z" id="Shape" fill="#000000"></path>
    </g>
</svg>