<?xml version="1.0" encoding="UTF-8" standalone="no"?>
<svg width="44px" height="44px" viewBox="0 0 44 44" version="1.1" xmlns="http://www.w3.org/2000/svg" xmlns:xlink="http://www.w3.org/1999/xlink">
    <!-- Generator: Sketch 3.7.2 (28276) - http://www.bohemiancoding.com/sketch -->
    <title>cle-iron-no</title>
    <desc>Created with Sketch.</desc>
    <defs></defs>
    <g id="44px-Line" stroke="none" stroke-width="1" fill="none" fill-rule="evenodd">
        <g id="cle-iron-no"></g>
        <path d="M42.293,0.293 L0.293,42.293 C-0.098,42.684 -0.098,43.316 0.293,43.707 C0.488,43.902 0.744,44 1,44 C1.256,44 1.512,43.902 1.707,43.707 L43.707,1.707 C44.098,1.316 44.098,0.684 43.707,0.293 C43.316,-0.098 42.684,-0.098 42.293,0.293 L42.293,0.293 Z" id="Shape" fill="#000000"></path>
        <path d="M0.008,34.876 C-0.028,35.161 0.061,35.447 0.25,35.662 C0.44,35.877 0.713,36 1,36 L3.345,36 C3.898,36 4.345,35.552 4.345,35 C4.345,34.448 3.898,34 3.345,34 L2.191,34 C2.999,30.159 6.686,18 21.001,18 L21.345,18 C21.898,18 22.345,17.552 22.345,17 C22.345,16.448 21.898,16 21.345,16 L21,16 C2.58,16 0.031,34.687 0.008,34.876 L0.008,34.876 Z" id="Shape" fill="#000000"></path>
        <path d="M14.656,34 C14.103,34 13.656,34.448 13.656,35 C13.656,35.552 14.103,36 14.656,36 L43,36 C43.285,36 43.556,35.878 43.746,35.666 C43.935,35.454 44.025,35.17 43.993,34.887 L41.508,12.947 C41.503,12.904 41.495,12.86 41.485,12.817 C41.212,11.724 40.745,10.707 40.096,9.794 C39.776,9.344 39.152,9.239 38.701,9.558 C38.251,9.878 38.145,10.502 38.465,10.953 C38.956,11.645 39.315,12.414 39.528,13.242 L39.841,16.002 L32.655,16.002 C32.102,16.002 31.655,16.45 31.655,17.002 C31.655,17.554 32.102,18.002 32.655,18.002 L40.067,18.002 L41.879,34.002 L14.656,34.002 L14.656,34 Z" id="Shape" fill="#000000"></path>
        <path d="M32.754,8 C33.307,8 33.754,7.552 33.754,7 C33.754,6.448 33.307,6 32.754,6 L17,6 C16.447,6 16,6.448 16,7 C16,7.552 16.447,8 17,8 L32.754,8 L32.754,8 Z" id="Shape" fill="#000000"></path>
    </g>
</svg>