<?xml version="1.0" encoding="UTF-8" standalone="no"?>
<svg width="64px" height="64px" viewBox="0 0 64 64" version="1.1" xmlns="http://www.w3.org/2000/svg" xmlns:xlink="http://www.w3.org/1999/xlink">
    <!-- Generator: Sketch 3.7.2 (28276) - http://www.bohemiancoding.com/sketch -->
    <title>cle-wash-basin</title>
    <desc>Created with Sketch.</desc>
    <defs></defs>
    <g id="64px-Glyph" stroke="none" stroke-width="1" fill="none" fill-rule="evenodd">
        <g id="cle-wash-basin" fill="#000000">
            <path d="M55.0001,38 L7.0001,38 C5.3461,38 4.0001,39.346 4.0001,41 C4.0001,41.553 4.4481,42 5.0001,42 L6.3121,42 L11.1401,56.581 C11.8211,58.626 13.7281,60 15.8831,60 L46.1171,60 C48.2721,60 50.1791,58.626 50.8601,56.581 L55.6871,42 L57.0001,42 C57.5521,42 58.0001,41.553 58.0001,41 C58.0001,39.346 56.6541,38 55.0001,38" id="Fill-192"></path>
            <path d="M45.0001,30 C43.3941,30 41.8491,30.553 40.6141,31.545 C39.6821,30.572 38.3801,30 37.0001,30 C35.9101,30 34.8591,30.356 34.0001,31 C32.7941,30.096 31.1621,29.779 29.6951,30.173 C28.8931,27.752 26.5991,26 24.0001,26 C21.3321,26 19.0221,27.782 18.2631,30.243 C17.6911,30.083 17.0971,30 16.5001,30 C13.0851,30 10.2821,32.649 10.0251,36 L12.0001,36 L12.0511,36 L49.8991,36 L50.0001,36 L51.9201,36 C51.4321,32.614 48.5201,30 45.0001,30" id="Fill-193"></path>
            <path d="M34.0001,28 C31.7941,28 30.0001,26.206 30.0001,24 C30.0001,21.794 31.7941,20 34.0001,20 C36.2061,20 38.0001,21.794 38.0001,24 C38.0001,26.206 36.2061,28 34.0001,28" id="Fill-194"></path>
            <path d="M45.0001,16 C43.3461,16 42.0001,14.654 42.0001,13 C42.0001,12.447 42.4481,12 43.0001,12 C43.5521,12 44.0001,12.447 44.0001,13 C44.0001,13.552 44.4491,14 45.0001,14 C45.5521,14 46.0001,14.447 46.0001,15 C46.0001,15.553 45.5521,16 45.0001,16 M45.0001,6 C41.1401,6 38.0001,9.141 38.0001,13 C38.0001,16.859 41.1401,20 45.0001,20 C48.8601,20 52.0001,16.859 52.0001,13 C52.0001,9.141 48.8601,6 45.0001,6" id="Fill-195"></path>
            <path d="M20.0001,18 C18.8971,18 18.0001,17.103 18.0001,16 C18.0001,15.447 18.4481,15 19.0001,15 C19.5521,15 20.0001,15.447 20.0001,16 L20.0001,16.001 C20.5521,16.001 21.0001,16.448 21.0001,17.001 C21.0001,17.553 20.5521,18 20.0001,18 M20.0001,10 C16.6911,10 14.0001,12.691 14.0001,16 C14.0001,19.309 16.6911,22 20.0001,22 C23.3091,22 26.0001,19.309 26.0001,16 C26.0001,12.691 23.3091,10 20.0001,10" id="Fill-196"></path>
        </g>
    </g>
</svg>