<?xml version="1.0" encoding="UTF-8" standalone="no"?>
<svg width="64px" height="64px" viewBox="0 0 64 64" version="1.1" xmlns="http://www.w3.org/2000/svg" xmlns:xlink="http://www.w3.org/1999/xlink">
    <!-- Generator: Sketch 3.7.2 (28276) - http://www.bohemiancoding.com/sketch -->
    <title>cle-toilet-brush</title>
    <desc>Created with Sketch.</desc>
    <defs></defs>
    <g id="64px-Glyph" stroke="none" stroke-width="1" fill="none" fill-rule="evenodd">
        <g id="cle-toilet-brush" fill="#000000">
            <path d="M32.1186,36.1519 L33.5606,34.7099 L34.2816,35.4309 C34.4766,35.6259 34.7326,35.7239 34.9886,35.7239 C35.2446,35.7239 35.5006,35.6259 35.6956,35.4309 C36.0856,35.0399 36.0856,34.4069 35.6956,34.0169 L29.9836,28.3049 C29.5926,27.9139 28.9606,27.9139 28.5696,28.3049 C28.1786,28.6949 28.1786,29.3279 28.5696,29.7189 L29.2906,30.4399 L27.8486,31.8819 L21.4156,25.4479 C21.0246,25.0579 20.3916,25.0579 20.0016,25.4479 C19.6106,25.8389 19.6106,26.4719 20.0016,26.8619 L26.4346,33.2959 L24.9926,34.7379 L18.5596,28.3049 C18.1686,27.9139 17.5356,27.9139 17.1456,28.3049 C16.7546,28.6949 16.7546,29.3279 17.1456,29.7189 L23.5786,36.1519 L22.1366,37.5939 L15.7036,31.1609 C15.3126,30.7709 14.6796,30.7709 14.2896,31.1609 C13.8986,31.5519 13.8986,32.1849 14.2896,32.5749 L20.7226,39.0079 L19.2806,40.4499 L12.8476,34.0169 C12.4566,33.6259 11.8236,33.6259 11.4336,34.0169 C11.0426,34.4069 11.0426,35.0399 11.4336,35.4309 L17.8656,41.8639 L17.6716,42.0589 L9.0436,37.4129 C8.5576,37.1509 7.9516,37.3329 7.6896,37.8199 C7.4276,38.3059 7.6096,38.9119 8.0956,39.1749 L16.1946,43.5359 L16.1346,43.5959 L5.1166,42.2989 C4.5686,42.2329 4.0716,42.6259 4.0066,43.1749 C3.9426,43.7239 4.3346,44.2209 4.8836,44.2849 L14.9206,45.4669 C14.9116,45.5019 14.8956,45.5369 14.8896,45.5729 L5.3946,48.7709 C4.8716,48.9459 4.5896,49.5139 4.7666,50.0369 C4.9066,50.4539 5.2966,50.7179 5.7136,50.7179 C5.8196,50.7179 5.9276,50.7009 6.0336,50.6649 L14.9116,47.6749 L8.5776,54.0089 C8.1866,54.3989 8.1866,55.0319 8.5776,55.4229 C8.7726,55.6179 9.0286,55.7159 9.2846,55.7159 C9.5406,55.7159 9.7956,55.6179 9.9916,55.4229 L16.3236,49.0909 L13.3346,57.9669 C13.1586,58.4899 13.4396,59.0579 13.9626,59.2329 C14.0686,59.2699 14.1766,59.2859 14.2826,59.2859 C14.6996,59.2859 15.0896,59.0229 15.2296,58.6059 L18.4276,49.1109 C18.4636,49.1039 18.4976,49.0879 18.5336,49.0799 L19.7146,59.1169 C19.7746,59.6259 20.2066,59.9999 20.7066,59.9999 C20.7456,59.9999 20.7856,59.9979 20.8246,59.9929 C21.3736,59.9289 21.7656,59.4319 21.7016,58.8829 L20.4046,47.8659 L20.4656,47.8049 L24.8256,55.9029 C25.0066,56.2389 25.3516,56.4299 25.7076,56.4299 C25.8676,56.4299 26.0296,56.3919 26.1806,56.3109 C26.6666,56.0479 26.8486,55.4419 26.5866,54.9559 L21.9416,46.3289 L22.1366,46.1339 L28.5696,52.5669 C28.7646,52.7629 29.0206,52.8599 29.2766,52.8599 C29.5326,52.8599 29.7886,52.7629 29.9836,52.5669 C30.3746,52.1769 30.3746,51.5439 29.9836,51.1529 L23.5506,44.7199 L24.9926,43.2779 L31.4256,49.7109 C31.6206,49.9059 31.8766,50.0039 32.1326,50.0039 C32.3886,50.0039 32.6436,49.9059 32.8396,49.7109 C33.2296,49.3199 33.2296,48.6879 32.8396,48.2969 L26.4066,41.8639 L27.8486,40.4219 L34.2816,46.8549 C34.4766,47.0499 34.7326,47.1479 34.9886,47.1479 C35.2446,47.1479 35.5006,47.0499 35.6956,46.8549 C36.0856,46.4639 36.0856,45.8309 35.6956,45.4399 L29.2626,39.0079 L30.7046,37.5659 L37.1376,43.9989 C37.3326,44.1939 37.5886,44.2919 37.8446,44.2919 C38.1006,44.2919 38.3566,44.1939 38.5516,43.9989 C38.9416,43.6079 38.9416,42.9759 38.5516,42.5849 L32.1186,36.1519 Z" id="Fill-163"></path>
            <path d="M57.1158,6.8848 C55.9748,5.7438 53.9858,5.7438 52.8458,6.8848 L32.1188,27.6118 L36.3888,31.8818 L57.1158,11.1548 C57.6858,10.5838 57.9998,9.8258 57.9998,9.0198 C57.9998,8.2128 57.6858,7.4538 57.1158,6.8848" id="Fill-164"></path>
        </g>
    </g>
</svg>