<?xml version="1.0" encoding="UTF-8" standalone="no"?>
<svg width="44px" height="44px" viewBox="0 0 44 44" version="1.1" xmlns="http://www.w3.org/2000/svg" xmlns:xlink="http://www.w3.org/1999/xlink">
    <!-- Generator: Sketch 3.7.2 (28276) - http://www.bohemiancoding.com/sketch -->
    <title>cle-soap-bar</title>
    <desc>Created with Sketch.</desc>
    <defs></defs>
    <g id="44px-Line" stroke="none" stroke-width="1" fill="none" fill-rule="evenodd">
        <g id="cle-soap-bar"></g>
        <path d="M40.48,20 L13.168,20 C11.553,20 10.035,20.633 8.894,21.782 L1.767,28.962 C0.628,30.11 0,31.635 0,33.257 L0,40.462 C0,42.413 1.579,44.001 3.52,44.001 L30.602,44.001 C32.369,44.001 34.041,43.227 35.191,41.876 L42.549,33.229 C43.485,32.128 44,30.725 44,29.277 L44,23.54 C44,21.587 42.421,20 40.48,20 L40.48,20 Z M42,29.276 C42,30.25 41.654,31.193 41.025,31.932 L33.667,40.579 C32.898,41.482 31.781,42 30.602,42 L3.52,42 C2.682,42 2,41.31 2,40.461 L2,33.256 C2,32.166 2.421,31.141 3.187,30.371 L10.314,23.191 C11.077,22.423 12.09,22 13.168,22 L40.48,22 C41.318,22 42,22.69 42,23.539 L42,29.276 L42,29.276 Z" id="Shape" fill="#000000"></path>
        <path d="M37.255,23.333 L31.098,30.219 C30.73,30.631 30.765,31.263 31.176,31.631 C31.367,31.801 31.606,31.885 31.843,31.885 C32.117,31.885 32.391,31.772 32.588,31.552 L38.745,24.666 C39.113,24.254 39.078,23.622 38.667,23.254 C38.254,22.887 37.623,22.922 37.255,23.333 L37.255,23.333 Z" id="Shape" fill="#000000"></path>
        <path d="M26,32 L7,32 C6.447,32 6,32.448 6,33 C6,33.552 6.447,34 7,34 L26,34 C26.553,34 27,33.552 27,33 C27,32.448 26.553,32 26,32 L26,32 Z" id="Shape" fill="#000000"></path>
        <path d="M25,18 C26.654,18 28,16.654 28,15 C28,13.346 26.654,12 25,12 C23.346,12 22,13.346 22,15 C22,16.654 23.346,18 25,18 L25,18 Z M25,14 C25.552,14 26,14.449 26,15 C26,15.551 25.552,16 25,16 C24.448,16 24,15.551 24,15 C24,14.449 24.448,14 25,14 L25,14 Z" id="Shape" fill="#000000"></path>
        <path d="M15,14 C17.757,14 20,11.757 20,9 C20,6.243 17.757,4 15,4 C12.243,4 10,6.243 10,9 C10,11.757 12.243,14 15,14 L15,14 Z M15,6 C16.654,6 18,7.346 18,9 C18,10.654 16.654,12 15,12 C13.346,12 12,10.654 12,9 C12,7.346 13.346,6 15,6 L15,6 Z" id="Shape" fill="#000000"></path>
        <path d="M35,14 C38.859,14 42,10.86 42,7 C42,3.14 38.859,0 35,0 C31.141,0 28,3.14 28,7 C28,10.86 31.141,14 35,14 L35,14 Z M35,2 C37.757,2 40,4.243 40,7 C40,9.757 37.757,12 35,12 C32.243,12 30,9.757 30,7 C30,4.243 32.243,2 35,2 L35,2 Z" id="Shape" fill="#000000"></path>
        <path d="M35,10 C35.553,10 36,9.552 36,9 C36,8.448 35.553,8 35,8 C34.448,8 34,7.551 34,7 C34,6.448 33.553,6 33,6 C32.447,6 32,6.448 32,7 C32,8.654 33.346,10 35,10 L35,10 Z" id="Shape" fill="#000000"></path>
    </g>
</svg>