<?xml version="1.0" encoding="UTF-8" standalone="no"?>
<svg width="64px" height="64px" viewBox="0 0 64 64" version="1.1" xmlns="http://www.w3.org/2000/svg" xmlns:xlink="http://www.w3.org/1999/xlink">
    <!-- Generator: Sketch 3.7.2 (28276) - http://www.bohemiancoding.com/sketch -->
    <title>cle-vacuum-hand</title>
    <desc>Created with Sketch.</desc>
    <defs></defs>
    <g id="64px-Glyph" stroke="none" stroke-width="1" fill="none" fill-rule="evenodd">
        <g id="cle-vacuum-hand" fill="#000000">
            <path d="M8.4567,43.7461 C6.9067,50.0041 6.1737,54.4771 6.0887,55.0061 C5.8977,55.7721 6.0127,56.5681 6.4157,57.2521 C6.8327,57.9611 7.5047,58.4601 8.3077,58.6581 L13.3747,59.9101 C13.6207,59.9711 13.8697,60.0011 14.1177,60.0011 C14.8837,60.0011 15.6287,59.7131 16.2017,59.1751 L27.8487,48.2421 L8.4567,43.7461 Z" id="Fill-76"></path>
            <path d="M41.711,20.4004 L32.293,29.7074 C32.01,29.9924 31.584,30.0794 31.244,29.9404 L24.63,27.0384 C24.349,26.9254 24.135,26.6954 24.046,26.4054 C23.956,26.1174 24.001,25.8074 24.168,25.5564 L30.919,15.5544 C31.184,15.1584 31.693,15.0014 32.158,15.1964 L41.385,18.7744 C41.697,18.9054 41.914,19.1704 41.981,19.5024 C42.046,19.8364 41.946,20.1644 41.711,20.4004 M55.375,17.3084 C55.348,17.2644 55.317,17.2234 55.282,17.1834 C55.1,16.9734 50.718,12.0014 43.705,8.8574 C37.026,5.8614 31.082,5.9904 30.911,6.0064 C28.236,5.9054 25.799,7.6134 25.387,7.9254 C25.141,8.0864 19.31,12.0524 13.77,26.5654 C11.724,31.9234 10.138,37.2394 8.95,41.8064 L29.604,46.5944 L53.955,23.7364 C55.664,22.1324 56.766,19.5234 55.375,17.3084" id="Fill-77"></path>
            <path d="M39.0001,60 L23.0001,60 C22.4471,60 22.0001,59.553 22.0001,59 C22.0001,58.447 22.4471,58 23.0001,58 L39.0001,58 C39.5531,58 40.0001,58.447 40.0001,59 C40.0001,59.553 39.5531,60 39.0001,60" id="Fill-78"></path>
            <path d="M49.0001,60 L43.0001,60 C42.4471,60 42.0001,59.553 42.0001,59 C42.0001,58.447 42.4471,58 43.0001,58 L49.0001,58 C49.5531,58 50.0001,58.447 50.0001,59 C50.0001,59.553 49.5531,60 49.0001,60" id="Fill-79"></path>
            <path d="M57.0001,60 L55.0001,60 C54.4471,60 54.0001,59.553 54.0001,59 C54.0001,58.447 54.4471,58 55.0001,58 L57.0001,58 C57.5531,58 58.0001,58.447 58.0001,59 C58.0001,59.553 57.5531,60 57.0001,60" id="Fill-80"></path>
        </g>
    </g>
</svg>