<?xml version="1.0" encoding="UTF-8" standalone="no"?>
<svg width="64px" height="64px" viewBox="0 0 64 64" version="1.1" xmlns="http://www.w3.org/2000/svg" xmlns:xlink="http://www.w3.org/1999/xlink">
    <!-- Generator: Sketch 3.7.2 (28276) - http://www.bohemiancoding.com/sketch -->
    <title>cle-wash-no</title>
    <desc>Created with Sketch.</desc>
    <defs></defs>
    <g id="64px-Glyph" stroke="none" stroke-width="1" fill="none" fill-rule="evenodd">
        <g id="cle-wash-no" fill="#000000">
            <path d="M59.2091,14.0547 C58.6861,13.8757 58.1171,14.1517 57.9381,14.6737 L56.7631,18.0817 C56.5151,18.0327 56.2621,17.9997 56.0001,17.9997 C54.0421,17.9997 53.0421,19.3197 52.2381,20.3797 C51.4541,21.4147 50.9641,21.9997 50.0001,21.9997 C49.0361,21.9997 48.5461,21.4147 47.7621,20.3797 C47.5061,20.0417 47.2181,19.6837 46.8971,19.3457 L18.2961,47.9467 C18.5271,47.9797 18.7611,47.9997 19.0001,47.9997 L45.0001,47.9997 C47.1551,47.9997 49.0611,46.6257 49.7401,44.5907 L59.8281,15.3267 C60.0081,14.8037 59.7301,14.2347 59.2091,14.0547" id="Fill-246"></path>
            <path d="M55.7072,7.707 C56.0982,7.316 56.0982,6.684 55.7072,6.293 C55.3162,5.902 54.6842,5.902 54.2932,6.293 L38.7592,21.826 C38.5332,21.93 38.2912,22 38.0002,22 C37.0362,22 36.5462,21.415 35.7622,20.38 C34.9582,19.319 33.9582,18 32.0002,18 C30.0292,18 28.9872,19.338 28.1502,20.413 C27.3612,21.427 26.8722,22 26.0002,22 C25.1242,22 24.6322,21.424 23.8372,20.406 C22.9992,19.334 21.9572,18 20.0002,18 C18.0502,18 17.0282,19.325 16.2082,20.39 C15.4152,21.418 14.9222,22 14.0002,22 C13.0782,22 12.5852,21.418 11.7922,20.39 C10.9722,19.325 9.9502,18 8.0002,18 C7.7382,18 7.4852,18.033 7.2382,18.083 L6.0622,14.674 C5.8822,14.151 5.3142,13.875 4.7912,14.055 C4.2692,14.234 3.9922,14.804 4.1722,15.326 L14.2572,44.581 C14.3982,45.003 14.6022,45.389 14.8382,45.748 L8.2932,52.293 C7.9022,52.684 7.9022,53.316 8.2932,53.707 C8.4882,53.902 8.7442,54 9.0002,54 C9.2562,54 9.5122,53.902 9.7072,53.707 L55.7072,7.707 Z" id="Fill-247"></path>
        </g>
    </g>
</svg>