<?xml version="1.0" encoding="UTF-8" standalone="no"?>
<svg width="64px" height="64px" viewBox="0 0 64 64" version="1.1" xmlns="http://www.w3.org/2000/svg" xmlns:xlink="http://www.w3.org/1999/xlink">
    <!-- Generator: Sketch 3.7.2 (28276) - http://www.bohemiancoding.com/sketch -->
    <title>cle-dry-no</title>
    <desc>Created with Sketch.</desc>
    <defs></defs>
    <g id="64px-Line" stroke="none" stroke-width="1" fill="none" fill-rule="evenodd">
        <g id="cle-dry-no"></g>
        <path d="M5,60 C5.256,60 5.512,59.902 5.707,59.707 L9.414,56 L53,56 C53.553,56 54,55.553 54,55 L54,11.414 L57.707,7.707 C58.098,7.316 58.098,6.684 57.707,6.293 C57.316,5.902 56.684,5.902 56.293,6.293 L52.586,10 L9,10 C8.447,10 8,10.447 8,11 L8,54.586 L4.293,58.293 C3.902,58.684 3.902,59.316 4.293,59.707 C4.488,59.902 4.744,60 5,60 L5,60 Z M52,33 L52,54 L31,54 L11.414,54 L16.898,48.516 C20.63,51.91 25.57,54 31,54 C42.579,54 52,44.579 52,33 C52,27.57 49.91,22.63 46.516,18.898 L52,13.414 L52,33 L52,33 Z M45.102,20.312 C48.136,23.68 50,28.121 50,33 C50,43.477 41.477,52 31,52 C26.121,52 21.68,50.136 18.312,47.102 L45.102,20.312 L45.102,20.312 Z M16.898,45.688 C13.864,42.32 12,37.879 12,33 C12,22.523 20.523,14 31,14 C35.879,14 40.32,15.864 43.688,18.898 L16.898,45.688 L16.898,45.688 Z M10,33 L10,12 L31,12 L50.586,12 L45.102,17.484 C41.37,14.09 36.43,12 31,12 C19.421,12 10,21.421 10,33 C10,38.43 12.09,43.37 15.484,47.102 L10,52.586 L10,33 L10,33 Z" id="Shape" fill="#000000"></path>
    </g>
</svg>