<?xml version="1.0" encoding="UTF-8" standalone="no"?>
<svg width="64px" height="64px" viewBox="0 0 64 64" version="1.1" xmlns="http://www.w3.org/2000/svg" xmlns:xlink="http://www.w3.org/1999/xlink">
    <!-- Generator: Sketch 3.7.2 (28276) - http://www.bohemiancoding.com/sketch -->
    <title>cle-dispensers</title>
    <desc>Created with Sketch.</desc>
    <defs></defs>
    <g id="64px-Line" stroke="none" stroke-width="1" fill="none" fill-rule="evenodd">
        <g id="cle-dispensers"></g>
        <path d="M19,6 L15,6 C14.448,6 14,6.447 14,7 L14,12 L13,12 C12.448,12 12,12.447 12,13 L12,18 L10,18 C7.794,18 6,19.794 6,22 L6,56 C6,58.206 7.794,60 10,60 L24,60 C26.206,60 28,58.206 28,56 L28,22 C28,19.794 26.206,18 24,18 L22,18 L22,13 C22,12.447 21.552,12 21,12 L20,12 L20,10 L23.343,10 C24.133,10 24.905,10.32 25.464,10.879 L26.293,11.707 C26.488,11.902 26.744,12 27,12 C27.256,12 27.512,11.902 27.708,11.707 C28.098,11.316 28.098,10.683 27.708,10.293 L26.879,9.465 C25.935,8.521 24.679,8 23.344,8 L20,8 L20,7 C20,6.447 19.552,6 19,6 L19,6 Z M26,48 L20,48 L20,28 L26,28 L26,48 L26,48 Z M26,22 L26,26 L19,26 C18.448,26 18,26.447 18,27 L18,49 C18,49.553 18.448,50 19,50 L26,50 L26,56 C26,57.103 25.103,58 24,58 L10,58 C8.897,58 8,57.103 8,56 L8,22 C8,20.897 8.897,20 10,20 L24,20 C25.103,20 26,20.897 26,22 L26,22 Z M14,18 L14,14 L20,14 L20,18 L14,18 L14,18 Z M16,12 L16,8 L18,8 L18,12 L16,12 L16,12 Z" id="Shape" fill="#000000"></path>
        <path d="M47,6 L43,6 C42.448,6 42,6.447 42,7 L42,12 L41,12 C40.448,12 40,12.447 40,13 L40,18 L38,18 C35.794,18 34,19.794 34,22 L34,56 C34,58.206 35.794,60 38,60 L52,60 C54.206,60 56,58.206 56,56 L56,22 C56,19.794 54.206,18 52,18 L50,18 L50,13 C50,12.447 49.552,12 49,12 L48,12 L48,10 L51.343,10 C52.133,10 52.905,10.32 53.464,10.879 L54.293,11.707 C54.488,11.902 54.744,12 55,12 C55.256,12 55.512,11.902 55.708,11.707 C56.098,11.316 56.098,10.683 55.708,10.293 L54.879,9.465 C53.935,8.521 52.679,8 51.344,8 L48,8 L48,7 C48,6.447 47.552,6 47,6 L47,6 Z M54,48 L48,48 L48,28 L54,28 L54,48 L54,48 Z M54,22 L54,26 L47,26 C46.448,26 46,26.447 46,27 L46,49 C46,49.553 46.448,50 47,50 L54,50 L54,56 C54,57.103 53.103,58 52,58 L38,58 C36.897,58 36,57.103 36,56 L36,22 C36,20.897 36.897,20 38,20 L52,20 C53.103,20 54,20.897 54,22 L54,22 Z M42,18 L42,14 L48,14 L48,18 L42,18 L42,18 Z M44,12 L44,8 L46,8 L46,12 L44,12 L44,12 Z" id="Shape" fill="#000000"></path>
    </g>
</svg>