<?xml version="1.0" encoding="UTF-8" standalone="no"?>
<svg width="64px" height="64px" viewBox="0 0 64 64" version="1.1" xmlns="http://www.w3.org/2000/svg" xmlns:xlink="http://www.w3.org/1999/xlink">
    <!-- Generator: Sketch 3.7.2 (28276) - http://www.bohemiancoding.com/sketch -->
    <title>cle-bottle-2</title>
    <desc>Created with Sketch.</desc>
    <defs></defs>
    <g id="64px-Line" stroke="none" stroke-width="1" fill="none" fill-rule="evenodd">
        <g id="cle-bottle-2"></g>
        <path d="M37.822,14.408 L33.894,6.553 C33.724,6.214 33.378,6 32.999,6 L24.999,6 C24.62,6 24.274,6.214 24.104,6.553 L20.176,14.408 L13.22,21.364 C11.143,23.441 9.998,26.204 9.998,29.142 L9.998,55 C9.998,57.757 12.241,60 14.998,60 L46.998,60 C49.755,60 51.998,57.757 51.998,55 L51.998,33.143 C51.998,30.205 50.853,27.442 48.776,25.365 L37.822,14.408 L37.822,14.408 Z M25.618,8 L32.382,8 L35.382,14 L22.618,14 L25.618,8 L25.618,8 Z M50,55 C50,56.654 48.654,58 47,58 L15,58 C13.346,58 12,56.654 12,55 L12,29.143 C12,26.739 12.937,24.479 14.636,22.779 L21.414,16.001 L36.586,16.001 L47.364,26.779 C49.063,28.479 50,30.739 50,33.143 L50,55 L50,55 Z" id="Shape" fill="#000000"></path>
        <path d="M39,26 C36.845,26 36.025,27.781 36,29 L36,47 C36,48.654 37.346,50 39,50 L43,50 C44.654,50 46,48.654 46,47 L46,33 C46,30.514 41.486,26 39,26 L39,26 Z M44,47 C44,47.552 43.552,48 43,48 L39,48 C38.448,48 38,47.552 38,47 L37.999,29.032 C38.017,28.646 38.17,28 39,28 C40.402,28 44,31.598 44,33 L44,47 L44,47 Z" id="Shape" fill="#000000"></path>
    </g>
</svg>