<?xml version="1.0" encoding="UTF-8" standalone="no"?>
<svg width="44px" height="44px" viewBox="0 0 44 44" version="1.1" xmlns="http://www.w3.org/2000/svg" xmlns:xlink="http://www.w3.org/1999/xlink">
    <!-- Generator: Sketch 3.7.2 (28276) - http://www.bohemiancoding.com/sketch -->
    <title>cle-scrubbing-brush</title>
    <desc>Created with Sketch.</desc>
    <defs></defs>
    <g id="44px-Line" stroke="none" stroke-width="1" fill="none" fill-rule="evenodd">
        <g id="cle-scrubbing-brush"></g>
        <path d="M2,38 L2,43 C2,43.552 2.448,44 3,44 C3.552,44 4,43.552 4,43 L4,38 L6,38 L6,43 C6,43.552 6.448,44 7,44 C7.552,44 8,43.552 8,43 L8,38 L10,38 L10,43 C10,43.552 10.448,44 11,44 C11.552,44 12,43.552 12,43 L12,38 L14,38 L14,43 C14,43.552 14.448,44 15,44 C15.552,44 16,43.552 16,43 L16,38 L18,38 L18,43 C18,43.552 18.448,44 19,44 C19.552,44 20,43.552 20,43 L20,38 L22,38 L22,43 C22,43.552 22.448,44 23,44 C23.552,44 24,43.552 24,43 L24,38 L26,38 L26,43 C26,43.552 26.448,44 27,44 C27.552,44 28,43.552 28,43 L28,38 L30,38 L30,43 C30,43.552 30.448,44 31,44 C31.552,44 32,43.552 32,43 L32,38 L34,38 L34,43 C34,43.552 34.448,44 35,44 C35.552,44 36,43.552 36,43 L36,38 L38,38 L38,43 C38,43.552 38.448,44 39,44 C39.552,44 40,43.552 40,43 L40,38 C41.103,38 42,37.103 42,36 L42,30 C42,27.794 40.206,26 38,26 L14,26 L14,22 L29,22 C30.654,22 32,20.654 32,19 C32,17.346 30.654,16 29,16 L12,16 C9.794,16 8,17.794 8,20 L8,26 L4,26 C1.794,26 0,27.794 0,30 L0,36 C0,37.103 0.897,38 2,38 L2,38 Z M10,20 C10,18.897 10.897,18 12,18 L29,18 C29.551,18 30,18.449 30,19 C30,19.551 29.551,20 29,20 L13,20 C12.448,20 12,20.448 12,21 L12,26 L10,26 L10,20 L10,20 Z M2,30 C2,28.897 2.897,28 4,28 L38,28 C39.103,28 40,28.897 40,30 L40,36 L2,36 L2,30 L2,30 Z" id="Shape" fill="#000000"></path>
        <path d="M1,11 C1.699,11 3,13.056 3,15 C3,15.552 3.448,16 4,16 C4.552,16 5,15.552 5,15 C5,13.056 6.301,11 7,11 C7.552,11 8,10.552 8,10 C8,9.448 7.552,9 7,9 C6.301,9 5,6.944 5,5 C5,4.448 4.552,4 4,4 C3.448,4 3,4.448 3,5 C3,6.944 1.699,9 1,9 C0.448,9 0,9.448 0,10 C0,10.552 0.448,11 1,11 L1,11 Z M4,8.732 C4.268,9.211 4.582,9.644 4.93,10 C4.581,10.355 4.268,10.788 4,11.268 C3.732,10.789 3.418,10.356 3.07,10 C3.418,9.645 3.732,9.212 4,8.732 L4,8.732 Z" id="Shape" fill="#000000"></path>
        <path d="M29,1 C29,0.448 28.552,0 28,0 C27.448,0 27,0.448 27,1 C27,2.944 25.699,5 25,5 C24.448,5 24,5.448 24,6 C24,6.552 24.448,7 25,7 C25.699,7 27,9.056 27,11 C27,11.552 27.448,12 28,12 C28.552,12 29,11.552 29,11 C29,9.056 30.301,7 31,7 C31.552,7 32,6.552 32,6 C32,5.448 31.552,5 31,5 C30.301,5 29,2.944 29,1 L29,1 Z M28,7.268 C27.732,6.789 27.418,6.356 27.07,6 C27.419,5.645 27.732,5.212 28,4.732 C28.268,5.211 28.582,5.644 28.93,6 C28.582,6.355 28.268,6.788 28,7.268 L28,7.268 Z" id="Shape" fill="#000000"></path>
        <path d="M43,15 C42.301,15 41,12.944 41,11 C41,10.448 40.552,10 40,10 C39.448,10 39,10.448 39,11 C39,12.944 37.699,15 37,15 C36.448,15 36,15.448 36,16 C36,16.552 36.448,17 37,17 C37.699,17 39,19.056 39,21 C39,21.552 39.448,22 40,22 C40.552,22 41,21.552 41,21 C41,19.056 42.301,17 43,17 C43.552,17 44,16.552 44,16 C44,15.448 43.552,15 43,15 L43,15 Z M40,17.268 C39.732,16.789 39.418,16.356 39.07,16 C39.419,15.645 39.732,15.212 40,14.732 C40.268,15.211 40.582,15.644 40.93,16 C40.582,16.355 40.268,16.788 40,17.268 L40,17.268 Z" id="Shape" fill="#000000"></path>
    </g>
</svg>