<?xml version="1.0" encoding="UTF-8" standalone="no"?>
<svg width="44px" height="44px" viewBox="0 0 44 44" version="1.1" xmlns="http://www.w3.org/2000/svg" xmlns:xlink="http://www.w3.org/1999/xlink">
    <!-- Generator: Sketch 3.7.2 (28276) - http://www.bohemiancoding.com/sketch -->
    <title>cle-pegs</title>
    <desc>Created with Sketch.</desc>
    <defs></defs>
    <g id="44px-Line" stroke="none" stroke-width="1" fill="none" fill-rule="evenodd">
        <g id="cle-pegs"></g>
        <path d="M6,19 L6,43 C6,43.553 6.447,44 7,44 C9.757,44 12,41.757 12,39 L12,21 C12,20.448 12.448,20 13,20 C13.552,20 14,20.448 14,21 L14,39 C14,41.757 16.243,44 19,44 C19.553,44 20,43.553 20,43 L20,19 C20,16.452 18.627,14.225 16.587,13 C18.627,11.775 20,9.548 20,7 C20,3.141 16.859,0 13,0 C9.141,0 6,3.141 6,7 C6,9.548 7.373,11.775 9.413,13 C7.373,14.225 6,16.452 6,19 L6,19 Z M8,7 C8,4.243 10.243,2 13,2 C15.757,2 18,4.243 18,7 C18,9.757 15.757,12 13,12 C10.243,12 8,9.757 8,7 L8,7 Z M18,19 L18,41.829 C16.836,41.416 16,40.304 16,39 L16,21 C16,19.346 14.654,18 13,18 C11.346,18 10,19.346 10,21 L10,39 C10,40.304 9.164,41.416 8,41.829 L8,19 C8,16.243 10.243,14 13,14 C15.757,14 18,16.243 18,19 L18,19 Z" id="Shape" fill="#000000"></path>
        <path d="M24,19 L24,43 C24,43.553 24.447,44 25,44 C27.757,44 30,41.757 30,39 L30,21 C30,20.448 30.448,20 31,20 C31.552,20 32,20.448 32,21 L32,39 C32,41.757 34.243,44 37,44 C37.553,44 38,43.553 38,43 L38,19 C38,16.452 36.627,14.225 34.587,13 C36.627,11.775 38,9.548 38,7 C38,3.141 34.859,0 31,0 C27.141,0 24,3.141 24,7 C24,9.548 25.373,11.775 27.413,13 C25.373,14.225 24,16.452 24,19 L24,19 Z M26,7 C26,4.243 28.243,2 31,2 C33.757,2 36,4.243 36,7 C36,9.757 33.757,12 31,12 C28.243,12 26,9.757 26,7 L26,7 Z M36,19 L36,41.829 C34.836,41.416 34,40.304 34,39 L34,21 C34,19.346 32.654,18 31,18 C29.346,18 28,19.346 28,21 L28,39 C28,40.304 27.164,41.416 26,41.829 L26,19 C26,16.243 28.243,14 31,14 C33.757,14 36,16.243 36,19 L36,19 Z" id="Shape" fill="#000000"></path>
    </g>
</svg>