<?xml version="1.0" encoding="UTF-8" standalone="no"?>
<svg width="44px" height="44px" viewBox="0 0 44 44" version="1.1" xmlns="http://www.w3.org/2000/svg" xmlns:xlink="http://www.w3.org/1999/xlink">
    <!-- Generator: Sketch 3.7.2 (28276) - http://www.bohemiancoding.com/sketch -->
    <title>cle-spray</title>
    <desc>Created with Sketch.</desc>
    <defs></defs>
    <g id="44px-Line" stroke="none" stroke-width="1" fill="none" fill-rule="evenodd">
        <g id="cle-spray"></g>
        <path d="M24,41 L24,31 C24,27.693 21.856,24.991 19.783,22.379 C17.838,19.926 16,17.61 16,15 C16,13.194 16.933,12.042 18.119,11.305 C18.793,15.946 22.385,17.811 22.553,17.895 C22.697,17.966 22.849,18 22.999,18 C23.366,18 23.719,17.798 23.895,17.447 C24.142,16.953 23.941,16.352 23.448,16.105 C23.415,16.088 20.355,14.505 20.033,10.471 C21.524,10.031 22.887,10.001 23.012,10 C23.559,9.992 24,9.547 24,9 L24,5 C24,4.447 23.552,4 23,4 L6.979,4 C5.256,4.036 2,4.918 2,8 C2,10.618 3.97,11.603 5.553,12.395 C7.116,13.176 8,13.683 8,15 C8,16.71 7.143,19.159 6.235,21.751 C5.136,24.891 4,28.137 4,31 L4,41 C4,42.654 5.346,44 7,44 L21,44 C22.654,44 24,42.654 24,41 L24,41 Z M6.447,10.605 C4.884,9.824 4,9.317 4,8 C4,6.103 6.9,6.003 7,6 L22,6 L22,8.055 C19.01,8.344 14.679,9.843 14.076,14 L9.883,14 C9.449,12.117 7.809,11.287 6.447,10.605 L6.447,10.605 Z M22,41 C22,41.552 21.551,42 21,42 L7,42 C6.449,42 6,41.552 6,41 L6,31 C6,28.477 7.079,25.394 8.123,22.412 C8.938,20.083 9.708,17.869 9.93,16 L14.079,16 C14.454,18.859 16.357,21.278 18.217,23.621 C20.162,26.074 22,28.39 22,31 L22,41 L22,41 Z" id="Shape" fill="#000000"></path>
        <path d="M27,8 L29.5,8 C30.052,8 30.5,7.553 30.5,7 C30.5,6.447 30.052,6 29.5,6 L27,6 C26.448,6 26,6.447 26,7 C26,7.553 26.448,8 27,8 L27,8 Z" id="Shape" fill="#000000"></path>
        <path d="M32.553,7 C32.553,7.553 33.001,8 33.553,8 L36.448,8 C37,8 37.448,7.553 37.448,7 C37.448,6.447 37,6 36.448,6 L33.553,6 C33,6 32.553,6.447 32.553,7 L32.553,7 Z" id="Shape" fill="#000000"></path>
        <path d="M43,6 L40.5,6 C39.948,6 39.5,6.447 39.5,7 C39.5,7.553 39.948,8 40.5,8 L43,8 C43.552,8 44,7.553 44,7 C44,6.447 43.552,6 43,6 L43,6 Z" id="Shape" fill="#000000"></path>
        <path d="M26.999,5 C27.068,5 27.139,4.993 27.209,4.978 L29.653,4.455 C30.193,4.34 30.537,3.809 30.422,3.268 C30.306,2.728 29.779,2.38 29.234,2.499 L26.79,3.022 C26.25,3.137 25.906,3.668 26.021,4.209 C26.123,4.679 26.538,5 26.999,5 L26.999,5 Z" id="Shape" fill="#000000"></path>
        <path d="M35.309,1.196 L32.272,1.847 C31.732,1.962 31.388,2.494 31.504,3.035 C31.605,3.504 32.019,3.825 32.481,3.825 C32.55,3.825 32.621,3.818 32.691,3.803 L35.728,3.152 C36.268,3.037 36.612,2.505 36.496,1.964 C36.38,1.425 35.849,1.079 35.309,1.196 L35.309,1.196 Z" id="Shape" fill="#000000"></path>
        <path d="M41.978,0.791 C41.862,0.251 41.332,-0.098 40.79,0.022 L38.346,0.545 C37.806,0.66 37.462,1.191 37.577,1.732 C37.678,2.202 38.093,2.523 38.554,2.523 C38.623,2.523 38.694,2.516 38.764,2.501 L41.208,1.978 C41.75,1.862 42.093,1.331 41.978,0.791 L41.978,0.791 Z" id="Shape" fill="#000000"></path>
        <path d="M29.445,11.523 C29.906,11.523 30.321,11.202 30.422,10.732 C30.537,10.192 30.193,9.661 29.653,9.545 L27.209,9.022 C26.669,8.902 26.137,9.251 26.021,9.791 C25.906,10.331 26.25,10.862 26.79,10.978 L29.234,11.501 C29.306,11.517 29.376,11.523 29.445,11.523 L29.445,11.523 Z" id="Shape" fill="#000000"></path>
        <path d="M35.52,12.826 C35.981,12.826 36.396,12.505 36.497,12.036 C36.613,11.496 36.269,10.964 35.729,10.848 L32.692,10.197 C32.154,10.08 31.621,10.426 31.505,10.965 C31.389,11.505 31.733,12.037 32.273,12.153 L35.31,12.804 C35.379,12.819 35.45,12.826 35.52,12.826 L35.52,12.826 Z" id="Shape" fill="#000000"></path>
        <path d="M40.791,13.978 C40.862,13.994 40.932,14 41.001,14 C41.462,14 41.877,13.679 41.978,13.209 C42.093,12.669 41.749,12.138 41.209,12.022 L38.765,11.499 C38.223,11.381 37.693,11.728 37.577,12.268 C37.462,12.808 37.806,13.339 38.346,13.455 L40.791,13.978 L40.791,13.978 Z" id="Shape" fill="#000000"></path>
    </g>
</svg>