<?xml version="1.0" encoding="UTF-8" standalone="no"?>
<svg width="44px" height="44px" viewBox="0 0 44 44" version="1.1" xmlns="http://www.w3.org/2000/svg" xmlns:xlink="http://www.w3.org/1999/xlink">
    <!-- Generator: Sketch 3.7.2 (28276) - http://www.bohemiancoding.com/sketch -->
    <title>cle-laundry-basket</title>
    <desc>Created with Sketch.</desc>
    <defs></defs>
    <g id="44px-Line" stroke="none" stroke-width="1" fill="none" fill-rule="evenodd">
        <g id="cle-laundry-basket"></g>
        <path d="M37.949,40.923 C37.965,40.885 37.978,40.846 37.989,40.806 L43.964,19.267 C44.048,18.966 43.986,18.643 43.797,18.394 C43.607,18.146 43.312,18 43,18 L41.92,18 C41.614,15.876 40.355,14.061 38.587,13 C40.627,11.775 42,9.548 42,7 C42,3.14 38.86,-1.42108547e-14 35,-1.42108547e-14 L6,-1.42108547e-14 C3.794,-1.42108547e-14 2,1.794 2,4 C2,5.657 3.014,7.082 4.454,7.688 C2.955,8.973 2,10.875 2,13 C2,14.958 2.81,16.728 4.11,18 L1,18 C0.688,18 0.393,18.146 0.204,18.395 C0.015,18.644 -0.047,18.967 0.037,19.268 L6.012,40.807 C6.023,40.847 6.036,40.886 6.052,40.924 C6.831,42.793 8.642,44.001 10.667,44.001 L33.334,44.001 C35.358,44 37.17,42.792 37.949,40.923 L37.949,40.923 Z M4,13 C4,10.243 6.243,8 9,8 L35,8 C35.552,8 36,7.552 36,7 C36,6.448 35.552,6 35,6 L6,6 C4.897,6 4,5.103 4,4 C4,2.897 4.897,2 6,2 L35,2 C37.757,2 40,4.243 40,7 C40,9.757 37.757,12 35,12 L9,12 C8.448,12 8,12.448 8,13 C8,13.552 8.448,14 9,14 L35,14 C37.414,14 39.434,15.721 39.899,18 L9,18 C6.243,18 4,15.757 4,13 L4,13 Z M7.92,40.207 L2.315,20 L41.685,20 L36.08,40.207 C35.601,41.298 34.53,42 33.334,42 L10.667,42 C9.471,42 8.399,41.298 7.92,40.207 L7.92,40.207 Z" id="Shape" fill="#000000"></path>
        <path d="M27,24 L17,24 C15.346,24 14,25.346 14,27 C14,28.654 15.346,30 17,30 L27,30 C28.654,30 30,28.654 30,27 C30,25.346 28.654,24 27,24 L27,24 Z M27,28 L17,28 C16.449,28 16,27.551 16,27 C16,26.449 16.449,26 17,26 L27,26 C27.551,26 28,26.449 28,27 C28,27.551 27.551,28 27,28 L27,28 Z" id="Shape" fill="#000000"></path>
    </g>
</svg>