<?xml version="1.0" encoding="UTF-8" standalone="no"?>
<svg width="64px" height="64px" viewBox="0 0 64 64" version="1.1" xmlns="http://www.w3.org/2000/svg" xmlns:xlink="http://www.w3.org/1999/xlink">
    <!-- Generator: Sketch 3.7.2 (28276) - http://www.bohemiancoding.com/sketch -->
    <title>cle-water</title>
    <desc>Created with Sketch.</desc>
    <defs></defs>
    <g id="64px-Glyph" stroke="none" stroke-width="1" fill="none" fill-rule="evenodd">
        <g id="cle-water" fill="#000000">
            <path d="M9.0001,46 C8.4481,46 8.0001,45.553 8.0001,45 C8.0001,44.488 7.9161,40 5.0001,40 C4.4481,40 4.0001,39.553 4.0001,39 C4.0001,38.447 4.4481,38 5.0001,38 C7.8551,38 8.0001,33.835 8.0001,33 C8.0001,32.447 8.4481,32 9.0001,32 C9.5521,32 10.0001,32.447 10.0001,33 C10.0001,33.835 10.1451,38 13.0001,38 C13.5521,38 14.0001,38.447 14.0001,39 C14.0001,39.553 13.5521,40 13.0001,40 C10.0841,40 10.0001,44.488 10.0001,45 C10.0001,45.553 9.5521,46 9.0001,46" id="Fill-197"></path>
            <path d="M21.0001,58 C20.4481,58 20.0001,57.553 20.0001,57 C20.0001,56.488 19.9161,52 17.0001,52 C16.4481,52 16.0001,51.553 16.0001,51 C16.0001,50.447 16.4481,50 17.0001,50 C19.8551,50 20.0001,45.835 20.0001,45 C20.0001,44.447 20.4481,44 21.0001,44 C21.5521,44 22.0001,44.447 22.0001,45 C22.0001,45.835 22.1451,50 25.0001,50 C25.5521,50 26.0001,50.447 26.0001,51 C26.0001,51.553 25.5521,52 25.0001,52 C22.0841,52 22.0001,56.488 22.0001,57 C22.0001,57.553 21.5521,58 21.0001,58" id="Fill-198"></path>
            <path d="M53.0001,18 C52.4481,18 52.0001,17.553 52.0001,17 C52.0001,16.488 51.9161,12 49.0001,12 C48.4481,12 48.0001,11.553 48.0001,11 C48.0001,10.447 48.4481,10 49.0001,10 C51.8551,10 52.0001,5.835 52.0001,5 C52.0001,4.447 52.4481,4 53.0001,4 C53.5521,4 54.0001,4.447 54.0001,5 C54.0001,5.835 54.1451,10 57.0001,10 C57.5521,10 58.0001,10.447 58.0001,11 C58.0001,11.553 57.5521,12 57.0001,12 C54.0841,12 54.0001,16.488 54.0001,17 C54.0001,17.553 53.5521,18 53.0001,18" id="Fill-199"></path>
            <path d="M19.0001,24 C16.2431,24 14.0001,21.757 14.0001,19 C14.0001,18.447 14.4481,18 15.0001,18 C15.5521,18 16.0001,18.447 16.0001,19 C16.0001,20.654 17.3461,22 19.0001,22 C19.5521,22 20.0001,22.447 20.0001,23 C20.0001,23.553 19.5521,24 19.0001,24 M26.4551,13.956 L19.8211,4.429 C19.4471,3.892 18.5531,3.892 18.1791,4.429 L11.5811,13.905 C11.5811,13.907 11.5801,13.908 11.5781,13.91 C10.5461,15.412 10.0001,17.172 10.0001,19 C10.0001,23.963 14.0381,28 19.0001,28 C23.9621,28 28.0001,23.963 28.0001,19 C28.0001,17.196 27.4681,15.456 26.4551,13.956" id="Fill-200"></path>
            <path d="M40.0001,46 C34.4861,46 30.0001,41.514 30.0001,36 C30.0001,35.447 30.4481,35 31.0001,35 C31.5521,35 32.0001,35.447 32.0001,36 C32.0001,40.411 35.5891,44 40.0001,44 C40.5521,44 41.0001,44.447 41.0001,45 C41.0001,45.553 40.5521,46 40.0001,46 M51.6051,28.166 L40.8251,12.435 C40.4521,11.892 39.5471,11.892 39.1751,12.435 L28.4541,28.082 C26.8491,30.42 26.0001,33.158 26.0001,36 C26.0001,43.72 32.2801,50 40.0001,50 C47.7201,50 54.0001,43.72 54.0001,36 C54.0001,33.194 53.1731,30.487 51.6051,28.166" id="Fill-201"></path>
        </g>
    </g>
</svg>