<?xml version="1.0" encoding="UTF-8" standalone="no"?>
<svg width="44px" height="44px" viewBox="0 0 44 44" version="1.1" xmlns="http://www.w3.org/2000/svg" xmlns:xlink="http://www.w3.org/1999/xlink">
    <!-- Generator: Sketch 3.7.2 (28276) - http://www.bohemiancoding.com/sketch -->
    <title>clo-mitten</title>
    <desc>Created with Sketch.</desc>
    <defs></defs>
    <g id="44px-Line" stroke="none" stroke-width="1" fill="none" fill-rule="evenodd">
        <g id="clo-mitten"></g>
        <path d="M36.038,15.763 C34.694,15.319 33.195,15.607 32.067,16.566 L30,18.606 L30,13 C30,9.551 28.556,6.155 26.038,3.684 C23.557,1.248 20.336,-0.014 16.982,0.002 C9.945,0.131 4,6.083 4,13 L4,31 C4,32.335 4.882,33.455 6.089,33.843 C6.037,34.042 6,34.248 6,34.463 L6,41.535 C6,42.893 7.105,43.999 8.464,43.999 L27.536,43.999 C28.894,43.999 30,42.894 30,41.535 L30,34.463 C30,34.213 29.951,33.976 29.882,33.748 C30.544,33.461 31.095,32.941 31.409,32.263 L38.426,20.696 C38.478,20.61 38.517,20.517 38.541,20.42 C38.703,19.773 38.709,19.123 38.561,18.49 C38.262,17.206 37.318,16.187 36.038,15.763 L36.038,15.763 Z M28,41.536 C28,41.792 27.792,42 27.536,42 L8.464,42 C8.208,42 8,41.792 8,41.536 L8,34.464 C8,34.208 8.208,34 8.464,34 L9,34 L27,34 L27.536,34 C27.792,34 28,34.208 28,34.464 L28,41.536 L28,41.536 Z M36.63,19.801 L29.668,31.279 C29.645,31.317 29.624,31.358 29.606,31.399 C29.447,31.764 29.087,32.001 28.689,32.001 L27.537,32.001 L27,32.001 L9,32.001 L8.464,32.001 L7,32.001 C6.449,32.001 6,31.553 6,31.001 L6,13.001 C6,7.148 11.046,2.111 17.019,2.003 C19.797,1.961 22.542,3.055 24.637,5.111 C26.774,7.21 28,10.086 28,13.001 L28,21.001 C28,21.404 28.242,21.769 28.614,21.924 C28.989,22.08 29.416,21.996 29.702,21.713 L33.415,18.04 C33.958,17.581 34.723,17.435 35.408,17.663 C36.032,17.869 36.47,18.336 36.612,18.945 C36.678,19.224 36.684,19.511 36.63,19.801 L36.63,19.801 Z" id="Shape" fill="#000000"></path>
    </g>
</svg>