<?xml version="1.0" encoding="UTF-8" standalone="no"?>
<svg width="64px" height="64px" viewBox="0 0 64 64" version="1.1" xmlns="http://www.w3.org/2000/svg" xmlns:xlink="http://www.w3.org/1999/xlink">
    <!-- Generator: Sketch 3.7.2 (28276) - http://www.bohemiancoding.com/sketch -->
    <title>clo-server-download</title>
    <desc>Created with Sketch.</desc>
    <defs></defs>
    <g id="64px-Line" stroke="none" stroke-width="1" fill="none" fill-rule="evenodd">
        <g id="clo-server-download"></g>
        <path d="M11,18 L41,18 C44.859,18 48,14.859 48,11 C48,7.141 44.859,4 41,4 L11,4 C7.141,4 4,7.141 4,11 C4,14.859 7.141,18 11,18 L11,18 Z M11,6 L41,6 C43.757,6 46,8.243 46,11 C46,13.757 43.757,16 41,16 L11,16 C8.243,16 6,13.757 6,11 C6,8.243 8.243,6 11,6 L11,6 Z" id="Shape" fill="#000000"></path>
        <path d="M13,14 C14.654,14 16,12.654 16,11 C16,9.346 14.654,8 13,8 C11.346,8 10,9.346 10,11 C10,12.654 11.346,14 13,14 L13,14 Z M13,10 C13.552,10 14,10.448 14,11 C14,11.552 13.552,12 13,12 C12.448,12 12,11.552 12,11 C12,10.448 12.448,10 13,10 L13,10 Z" id="Shape" fill="#000000"></path>
        <path d="M31,12 L41,12 C41.553,12 42,11.553 42,11 C42,10.447 41.553,10 41,10 L31,10 C30.447,10 30,10.447 30,11 C30,11.553 30.447,12 31,12 L31,12 Z" id="Shape" fill="#000000"></path>
        <path d="M11,34 L41,34 C44.859,34 48,30.859 48,27 C48,23.141 44.859,20 41,20 L11,20 C7.141,20 4,23.141 4,27 C4,30.859 7.141,34 11,34 L11,34 Z M11,22 L41,22 C43.757,22 46,24.243 46,27 C46,29.757 43.757,32 41,32 L11,32 C8.243,32 6,29.757 6,27 C6,24.243 8.243,22 11,22 L11,22 Z" id="Shape" fill="#000000"></path>
        <path d="M13,30 C14.654,30 16,28.654 16,27 C16,25.346 14.654,24 13,24 C11.346,24 10,25.346 10,27 C10,28.654 11.346,30 13,30 L13,30 Z M13,26 C13.552,26 14,26.448 14,27 C14,27.552 13.552,28 13,28 C12.448,28 12,27.552 12,27 C12,26.448 12.448,26 13,26 L13,26 Z" id="Shape" fill="#000000"></path>
        <path d="M31,28 L41,28 C41.553,28 42,27.553 42,27 C42,26.447 41.553,26 41,26 L31,26 C30.447,26 30,26.447 30,27 C30,27.553 30.447,28 31,28 L31,28 Z" id="Shape" fill="#000000"></path>
        <path d="M48,43 C48,39.141 44.859,36 41,36 L11,36 C7.141,36 4,39.141 4,43 C4,46.859 7.141,50 11,50 L41,50 C44.859,50 48,46.859 48,43 L48,43 Z M6,43 C6,40.243 8.243,38 11,38 L41,38 C43.757,38 46,40.243 46,43 C46,45.757 43.757,48 41,48 L11,48 C8.243,48 6,45.757 6,43 L6,43 Z" id="Shape" fill="#000000"></path>
        <path d="M13,40 C11.346,40 10,41.346 10,43 C10,44.654 11.346,46 13,46 C14.654,46 16,44.654 16,43 C16,41.346 14.654,40 13,40 L13,40 Z M13,44 C12.448,44 12,43.552 12,43 C12,42.448 12.448,42 13,42 C13.552,42 14,42.448 14,43 C14,43.552 13.552,44 13,44 L13,44 Z" id="Shape" fill="#000000"></path>
        <path d="M42,43 C42,42.447 41.553,42 41,42 L31,42 C30.447,42 30,42.447 30,43 C30,43.553 30.447,44 31,44 L41,44 C41.553,44 42,43.553 42,43 L42,43 Z" id="Shape" fill="#000000"></path>
        <path d="M58.293,52.293 L54,56.586 L54,27 C54,26.447 53.553,26 53,26 C52.447,26 52,26.447 52,27 L52,56.586 L47.707,52.293 C47.316,51.902 46.684,51.902 46.293,52.293 C45.902,52.684 45.902,53.316 46.293,53.707 L52.292,59.706 C52.384,59.799 52.495,59.873 52.618,59.923 C52.74,59.974 52.87,60 53,60 C53.13,60 53.26,59.974 53.382,59.923 C53.505,59.872 53.616,59.798 53.708,59.706 L59.707,53.707 C60.098,53.316 60.098,52.684 59.707,52.293 C59.316,51.902 58.684,51.902 58.293,52.293 L58.293,52.293 Z" id="Shape" fill="#000000"></path>
    </g>
</svg>