<?xml version="1.0" encoding="UTF-8" standalone="no"?>
<svg width="64px" height="64px" viewBox="0 0 64 64" version="1.1" xmlns="http://www.w3.org/2000/svg" xmlns:xlink="http://www.w3.org/1999/xlink">
    <!-- Generator: Sketch 3.7.2 (28276) - http://www.bohemiancoding.com/sketch -->
    <title>clo-server-protect</title>
    <desc>Created with Sketch.</desc>
    <defs></defs>
    <g id="64px-Line" stroke="none" stroke-width="1" fill="none" fill-rule="evenodd">
        <g id="clo-server-protect"></g>
        <path d="M11,18 L41,18 C44.86,18 48,14.859 48,11 C48,7.141 44.86,4 41,4 L11,4 C7.14,4 4,7.141 4,11 C4,14.859 7.14,18 11,18 L11,18 Z M11,6 L41,6 C43.757,6 46,8.243 46,11 C46,13.757 43.757,16 41,16 L11,16 C8.243,16 6,13.757 6,11 C6,8.243 8.243,6 11,6 L11,6 Z" id="Shape" fill="#000000"></path>
        <path d="M13,14 C14.654,14 16,12.654 16,11 C16,9.346 14.654,8 13,8 C11.346,8 10,9.346 10,11 C10,12.654 11.346,14 13,14 L13,14 Z M13,10 C13.551,10 14,10.448 14,11 C14,11.552 13.551,12 13,12 C12.449,12 12,11.552 12,11 C12,10.448 12.449,10 13,10 L13,10 Z" id="Shape" fill="#000000"></path>
        <path d="M31,12 L41,12 C41.552,12 42,11.553 42,11 C42,10.447 41.552,10 41,10 L31,10 C30.448,10 30,10.447 30,11 C30,11.553 30.448,12 31,12 L31,12 Z" id="Shape" fill="#000000"></path>
        <path d="M11,34 L41,34 C44.86,34 48,30.859 48,27 C48,23.141 44.86,20 41,20 L11,20 C7.14,20 4,23.141 4,27 C4,30.859 7.14,34 11,34 L11,34 Z M11,22 L41,22 C43.757,22 46,24.243 46,27 C46,29.757 43.757,32 41,32 L11,32 C8.243,32 6,29.757 6,27 C6,24.243 8.243,22 11,22 L11,22 Z" id="Shape" fill="#000000"></path>
        <path d="M13,30 C14.654,30 16,28.654 16,27 C16,25.346 14.654,24 13,24 C11.346,24 10,25.346 10,27 C10,28.654 11.346,30 13,30 L13,30 Z M13,26 C13.551,26 14,26.448 14,27 C14,27.552 13.551,28 13,28 C12.449,28 12,27.552 12,27 C12,26.448 12.449,26 13,26 L13,26 Z" id="Shape" fill="#000000"></path>
        <path d="M31,28 L41,28 C41.552,28 42,27.553 42,27 C42,26.447 41.552,26 41,26 L31,26 C30.448,26 30,26.447 30,27 C30,27.553 30.448,28 31,28 L31,28 Z" id="Shape" fill="#000000"></path>
        <path d="M35.513,48 L11,48 C8.243,48 6,45.757 6,43 C6,40.243 8.243,38 11,38 L35,38 C35.552,38 36,37.553 36,37 C36,36.447 35.552,36 35,36 L11,36 C7.14,36 4,39.141 4,43 C4,46.859 7.14,50 11,50 L35.513,50 C36.065,50 36.513,49.553 36.513,49 C36.513,48.447 36.065,48 35.513,48 L35.513,48 Z" id="Shape" fill="#000000"></path>
        <path d="M10,43 C10,44.654 11.346,46 13,46 C14.654,46 16,44.654 16,43 C16,41.346 14.654,40 13,40 C11.346,40 10,41.346 10,43 L10,43 Z M14,43 C14,43.552 13.551,44 13,44 C12.449,44 12,43.552 12,43 C12,42.448 12.449,42 13,42 C13.551,42 14,42.448 14,43 L14,43 Z" id="Shape" fill="#000000"></path>
        <path d="M35,42 L31,42 C30.448,42 30,42.447 30,43 C30,43.553 30.448,44 31,44 L35,44 C35.552,44 36,43.553 36,43 C36,42.447 35.552,42 35,42 L35,42 Z" id="Shape" fill="#000000"></path>
        <path d="M59,36 C54.133,36 52.168,34.346 50.434,32.887 C50.158,32.655 49.89,32.428 49.619,32.215 C49.256,31.928 48.744,31.928 48.381,32.215 C48.11,32.428 47.841,32.654 47.565,32.888 C45.831,34.347 43.866,36 39,36 C38.448,36 38,36.447 38,37 L38,44.5 C38,52.925 43.766,58 49.162,59.941 C49.271,59.98 49.386,60 49.5,60 C49.614,60 49.729,59.98 49.838,59.941 C54.75,58.176 60,53.193 60,44.5 L60,37 C60,36.447 59.552,36 59,36 L59,36 Z M58,44.5 C58,51.954 53.672,56.291 49.501,57.932 C47.297,57.062 40,53.499 40,44.5 L40,37.978 C44.885,37.756 47.073,35.916 48.852,34.417 C48.901,34.376 48.951,34.334 49,34.293 C49.048,34.334 49.097,34.375 49.146,34.416 C50.926,35.914 53.113,37.756 58,37.978 L58,44.5 L58,44.5 Z" id="Shape" fill="#000000"></path>
    </g>
</svg>