<?xml version="1.0" encoding="UTF-8" standalone="no"?>
<svg width="64px" height="64px" viewBox="0 0 64 64" version="1.1" xmlns="http://www.w3.org/2000/svg" xmlns:xlink="http://www.w3.org/1999/xlink">
    <!-- Generator: Sketch 3.7.2 (28276) - http://www.bohemiancoding.com/sketch -->
    <title>clo-cloud-phone-2</title>
    <desc>Created with Sketch.</desc>
    <defs></defs>
    <g id="64px-Line" stroke="none" stroke-width="1" fill="none" fill-rule="evenodd">
        <g id="clo-cloud-phone-2"></g>
        <path d="M44,60 C46.206,60 48,58.206 48,56 L48,8 C48,5.794 46.206,4 44,4 L20,4 C17.794,4 16,5.794 16,8 L16,56 C16,58.206 17.794,60 20,60 L44,60 L44,60 Z M18,14 L46,14 L46,50 L18,50 L18,14 L18,14 Z M20,6 L44,6 C45.103,6 46,6.897 46,8 L46,12 L18,12 L18,8 C18,6.897 18.897,6 20,6 L20,6 Z M18,56 L18,52 L46,52 L46,56 C46,57.103 45.103,58 44,58 L20,58 C18.897,58 18,57.103 18,56 L18,56 Z" id="Shape" fill="#000000"></path>
        <path d="M31,10 L37,10 C37.552,10 38,9.552 38,9 C38,8.448 37.552,8 37,8 L31,8 C30.448,8 30,8.448 30,9 C30,9.552 30.448,10 31,10 L31,10 Z" id="Shape" fill="#000000"></path>
        <path d="M26.08,9.38 C26.1,9.44 26.13,9.5 26.17,9.56 C26.21,9.61 26.25,9.66 26.29,9.71 C26.39,9.8 26.5,9.87 26.62,9.92 C26.74,9.97 26.87,10 27,10 C27.07,10 27.13,9.99 27.2,9.98 C27.26,9.97 27.32,9.95 27.38,9.92 C27.44,9.9 27.5,9.87 27.56,9.83 C27.61,9.79 27.66,9.75 27.71,9.71 C27.75,9.66 27.79,9.61 27.83,9.56 C27.87,9.5 27.9,9.44 27.92,9.38 C27.95,9.32 27.97,9.26 27.98,9.2 C27.99,9.13 28,9.07 28,9 C28,8.87 27.97,8.74 27.92,8.62 C27.87,8.5 27.8,8.39 27.71,8.29 C27.66,8.25 27.61,8.21 27.56,8.17 C27.5,8.13 27.44,8.1 27.38,8.08 C27.32,8.05 27.26,8.03 27.2,8.02 C27,7.98 26.8,8 26.62,8.08 C26.5,8.13 26.39,8.2 26.29,8.29 C26.2,8.39 26.13,8.5 26.08,8.62 C26.03,8.74 26,8.87 26,9 C26,9.07 26.01,9.13 26.02,9.2 C26.03,9.26 26.05,9.32 26.08,9.38 L26.08,9.38 Z" id="Shape" fill="#000000"></path>
        <path d="M31,56 L33,56 C33.552,56 34,55.553 34,55 C34,54.447 33.552,54 33,54 L31,54 C30.448,54 30,54.447 30,55 C30,55.553 30.448,56 31,56 L31,56 Z" id="Shape" fill="#000000"></path>
        <path d="M36,26 C35.683,26 35.367,26.025 35.057,26.074 C34.125,24.778 32.633,24 31,24 C28.556,24 26.516,25.763 26.084,28.084 C23.763,28.516 22,30.556 22,33 C22,35.757 24.243,38 27,38 L36,38 C39.309,38 42,35.309 42,32 C42,28.691 39.309,26 36,26 L36,26 Z M36,36 L27,36 C25.346,36 24,34.654 24,33 C24,31.346 25.346,30 27,30 C27.552,30 28,29.552 28,29 C28,27.346 29.346,26 31,26 C32.142,26 33.169,26.634 33.683,27.655 C33.9,28.088 34.395,28.302 34.861,28.164 C35.228,28.055 35.611,27.999 36,27.999 C38.206,27.999 40,29.793 40,31.999 C40,34.206 38.206,36 36,36 L36,36 Z" id="Shape" fill="#000000"></path>
    </g>
</svg>