<?xml version="1.0" encoding="UTF-8" standalone="no"?>
<svg width="64px" height="64px" viewBox="0 0 64 64" version="1.1" xmlns="http://www.w3.org/2000/svg" xmlns:xlink="http://www.w3.org/1999/xlink">
    <!-- Generator: Sketch 3.7.2 (28276) - http://www.bohemiancoding.com/sketch -->
    <title>clo-cloud-network</title>
    <desc>Created with Sketch.</desc>
    <defs></defs>
    <g id="64px-Line" stroke="none" stroke-width="1" fill="none" fill-rule="evenodd">
        <g id="clo-cloud-network"></g>
        <path d="M59,52 C59.553,52 60,51.552 60,51 C60,50.448 59.553,50 59,50 L40,50 L40,49 C40,48.448 39.553,48 39,48 L36,48 L36,42 L47.74,42 C53.397,42 58,37.314 58,31.556 C58,26.843 54.913,22.758 50.536,21.504 C50.573,21.077 50.593,20.649 50.593,20.222 C50.593,12.38 44.329,6 36.63,6 C30.977,6 25.857,9.551 23.722,14.792 C22.465,13.988 21.008,13.556 19.5,13.556 C15.119,13.556 11.556,17.182 11.556,21.639 C11.556,21.847 11.564,22.055 11.579,22.261 C8.166,24.04 6,27.61 6,31.556 C6,37.315 10.603,42 16.26,42 L30,42 L30,48 L27,48 C26.447,48 26,48.448 26,49 L26,50 L5,50 C4.447,50 4,50.448 4,51 C4,51.552 4.447,52 5,52 L26,52 L26,54 L5,54 C4.447,54 4,54.448 4,55 C4,55.552 4.447,56 5,56 L26,56 L26,57 C26,57.552 26.447,58 27,58 L39,58 C39.553,58 40,57.552 40,57 L40,56 L59,56 C59.553,56 60,55.552 60,55 C60,54.448 59.553,54 59,54 L40,54 L40,52 L59,52 L59,52 Z M8,31.556 C8,28.152 9.983,25.097 13.054,23.773 C13.478,23.59 13.722,23.141 13.644,22.687 C13.585,22.343 13.556,21.991 13.556,21.639 C13.556,18.285 16.223,15.556 19.5,15.556 C20.993,15.556 22.421,16.126 23.521,17.162 C23.774,17.4 24.133,17.492 24.469,17.399 C24.804,17.308 25.069,17.049 25.166,16.715 C26.668,11.584 31.383,8.001 36.63,8.001 C43.227,8.001 48.593,13.484 48.593,20.223 C48.593,20.856 48.544,21.494 48.448,22.119 C48.366,22.652 48.721,23.154 49.251,23.254 C53.162,23.991 56,27.483 56,31.557 C56,36.213 52.295,40.001 47.74,40.001 L16.26,40.001 C11.705,40 8,36.212 8,31.556 L8,31.556 Z M32,42 L34,42 L34,48 L32,48 L32,42 L32,42 Z M38,56 L28,56 L28,50 L38,50 L38,56 L38,56 Z" id="Shape" fill="#000000"></path>
    </g>
</svg>