<?xml version="1.0" encoding="UTF-8" standalone="no"?>
<svg width="64px" height="64px" viewBox="0 0 64 64" version="1.1" xmlns="http://www.w3.org/2000/svg" xmlns:xlink="http://www.w3.org/1999/xlink">
    <!-- Generator: Sketch 3.7.2 (28276) - http://www.bohemiancoding.com/sketch -->
    <title>clo-pants-2</title>
    <desc>Created with Sketch.</desc>
    <defs></defs>
    <g id="64px-Line" stroke="none" stroke-width="1" fill="none" fill-rule="evenodd">
        <g id="clo-pants-2"></g>
        <path d="M45,4 L17,4 C16.492,4 16.065,4.381 16.006,4.885 L10.006,56.885 C9.945,57.414 10.31,57.899 10.835,57.986 L22.835,59.986 C23.368,60.078 23.868,59.73 23.978,59.206 L31,25.854 L38.021,59.206 C38.12,59.675 38.534,60 38.999,60 C39.054,60 39.109,59.996 39.165,59.986 L51.165,57.986 C51.69,57.899 52.055,57.414 51.994,56.885 L45.994,4.885 C45.935,4.381 45.508,4 45,4 L45,4 Z M32,20.896 L32,10 L44.57,10 L49.331,51.264 L38.764,53.025 L32,20.896 L32,20.896 Z M23.236,53.025 L12.669,51.264 L17.43,10 L30,10 L30,20.896 L23.236,53.025 L23.236,53.025 Z M44.109,6 L44.34,8 L17.66,8 L17.891,6 L44.109,6 L44.109,6 Z M12.103,56.17 L12.439,53.254 L22.823,54.985 L22.218,57.857 L12.103,56.17 L12.103,56.17 Z M39.781,57.856 L39.176,54.984 L49.56,53.253 L49.896,56.169 L39.781,57.856 L39.781,57.856 Z" id="Shape" fill="#000000"></path>
        <path d="M25,12 C24.448,12 24,12.448 24,13 C24,15.757 21.757,18 19,18 C18.448,18 18,18.448 18,19 C18,19.552 18.448,20 19,20 C22.86,20 26,16.86 26,13 C26,12.448 25.552,12 25,12 L25,12 Z" id="Shape" fill="#000000"></path>
        <path d="M43,18 C40.243,18 38,15.757 38,13 C38,12.448 37.552,12 37,12 C36.448,12 36,12.448 36,13 C36,16.86 39.14,20 43,20 C43.552,20 44,19.552 44,19 C44,18.448 43.552,18 43,18 L43,18 Z" id="Shape" fill="#000000"></path>
    </g>
</svg>