<?xml version="1.0" encoding="UTF-8" standalone="no"?>
<svg width="64px" height="64px" viewBox="0 0 64 64" version="1.1" xmlns="http://www.w3.org/2000/svg" xmlns:xlink="http://www.w3.org/1999/xlink">
    <!-- Generator: Sketch 3.7.2 (28276) - http://www.bohemiancoding.com/sketch -->
    <title>clo-server-network</title>
    <desc>Created with Sketch.</desc>
    <defs></defs>
    <g id="64px-Line" stroke="none" stroke-width="1" fill="none" fill-rule="evenodd">
        <g id="clo-server-network"></g>
        <path d="M61,52 C61.552,52 62,51.553 62,51 C62,50.447 61.552,50 61,50 L40,50 L40,49 C40,48.447 39.552,48 39,48 L36,48 L36,40 L51,40 C53.757,40 56,37.757 56,35 C56,32.243 53.757,30 51,30 L15,30 C12.243,30 10,32.243 10,35 C10,37.757 12.243,40 15,40 L30,40 L30,48 L27,48 C26.448,48 26,48.447 26,49 L26,50 L5,50 C4.448,50 4,50.447 4,51 C4,51.553 4.448,52 5,52 L26,52 L26,54 L5,54 C4.448,54 4,54.447 4,55 C4,55.553 4.448,56 5,56 L26,56 L26,57 C26,57.553 26.448,58 27,58 L39,58 C39.552,58 40,57.553 40,57 L40,56 L61,56 C61.552,56 62,55.553 62,55 C62,54.447 61.552,54 61,54 L40,54 L40,52 L61,52 L61,52 Z M12,35 C12,33.346 13.346,32 15,32 L51,32 C52.654,32 54,33.346 54,35 C54,36.654 52.654,38 51,38 L15,38 C13.346,38 12,36.654 12,35 L12,35 Z M32,40 L34,40 L34,48 L32,48 L32,40 L32,40 Z M38,56 L28,56 L28,50 L38,50 L38,56 L38,56 Z" id="Shape" fill="#000000"></path>
        <path d="M51,18 L15,18 C12.243,18 10,20.243 10,23 C10,25.757 12.243,28 15,28 L51,28 C53.757,28 56,25.757 56,23 C56,20.243 53.757,18 51,18 L51,18 Z M51,26 L15,26 C13.346,26 12,24.654 12,23 C12,21.346 13.346,20 15,20 L51,20 C52.654,20 54,21.346 54,23 C54,24.654 52.654,26 51,26 L51,26 Z" id="Shape" fill="#000000"></path>
        <path d="M51,6 L15,6 C12.243,6 10,8.243 10,11 C10,13.757 12.243,16 15,16 L51,16 C53.757,16 56,13.757 56,11 C56,8.243 53.757,6 51,6 L51,6 Z M51,14 L15,14 C13.346,14 12,12.654 12,11 C12,9.346 13.346,8 15,8 L51,8 C52.654,8 54,9.346 54,11 C54,12.654 52.654,14 51,14 L51,14 Z" id="Shape" fill="#000000"></path>
        <path d="M49,10 L41,10 C40.448,10 40,10.447 40,11 C40,11.553 40.448,12 41,12 L49,12 C49.552,12 50,11.553 50,11 C50,10.447 49.552,10 49,10 L49,10 Z" id="Shape" fill="#000000"></path>
        <path d="M49,22 L41,22 C40.448,22 40,22.447 40,23 C40,23.553 40.448,24 41,24 L49,24 C49.552,24 50,23.553 50,23 C50,22.447 49.552,22 49,22 L49,22 Z" id="Shape" fill="#000000"></path>
        <path d="M41,36 L49,36 C49.552,36 50,35.553 50,35 C50,34.447 49.552,34 49,34 L41,34 C40.448,34 40,34.447 40,35 C40,35.553 40.448,36 41,36 L41,36 Z" id="Shape" fill="#000000"></path>
        <path d="M19,10 L17,10 C16.448,10 16,10.447 16,11 C16,11.553 16.448,12 17,12 L19,12 C19.552,12 20,11.553 20,11 C20,10.447 19.552,10 19,10 L19,10 Z" id="Shape" fill="#000000"></path>
        <path d="M19,22 L17,22 C16.448,22 16,22.447 16,23 C16,23.553 16.448,24 17,24 L19,24 C19.552,24 20,23.553 20,23 C20,22.447 19.552,22 19,22 L19,22 Z" id="Shape" fill="#000000"></path>
        <path d="M19,34 L17,34 C16.448,34 16,34.447 16,35 C16,35.553 16.448,36 17,36 L19,36 C19.552,36 20,35.553 20,35 C20,34.447 19.552,34 19,34 L19,34 Z" id="Shape" fill="#000000"></path>
    </g>
</svg>