<?xml version="1.0" encoding="UTF-8" standalone="no"?>
<svg width="64px" height="64px" viewBox="0 0 64 64" version="1.1" xmlns="http://www.w3.org/2000/svg" xmlns:xlink="http://www.w3.org/1999/xlink">
    <!-- Generator: Sketch 3.7.2 (28276) - http://www.bohemiancoding.com/sketch -->
    <title>clo-server-single</title>
    <desc>Created with Sketch.</desc>
    <defs></defs>
    <g id="64px-Line" stroke="none" stroke-width="1" fill="none" fill-rule="evenodd">
        <g id="clo-server-single"></g>
        <path d="M13,44 C11.346,44 10,45.346 10,47 C10,48.654 11.346,50 13,50 C14.654,50 16,48.654 16,47 C16,45.346 14.654,44 13,44 L13,44 Z M13,48 C12.449,48 12,47.552 12,47 C12,46.448 12.449,46 13,46 C13.551,46 14,46.448 14,47 C14,47.552 13.551,48 13,48 L13,48 Z" id="Shape" fill="#000000"></path>
        <path d="M53,46 L39,46 C38.448,46 38,46.447 38,47 C38,47.553 38.448,48 39,48 L53,48 C53.552,48 54,47.553 54,47 C54,46.447 53.552,46 53,46 L53,46 Z" id="Shape" fill="#000000"></path>
        <path d="M51.722,12.767 C50.901,9.96 48.29,8 45.371,8 L18.629,8 C15.704,8 13.087,9.96 12.255,12.805 L4.283,44.758 C4.279,44.775 4.284,44.791 4.281,44.807 C4.104,45.511 4,46.242 4,47 C4,51.963 8.038,56 13,56 L51,56 C55.962,56 60,51.963 60,47 C60,46.17 59.878,45.37 59.667,44.607 L51.722,12.767 L51.722,12.767 Z M14.186,13.328 C14.759,11.368 16.586,10 18.629,10 L45.37,10 C47.406,10 49.229,11.368 49.791,13.289 L56.412,39.827 C54.905,38.686 53.033,38 51,38 L13,38 C10.96,38 9.083,38.69 7.573,39.838 L14.186,13.328 L14.186,13.328 Z M51,54 L13,54 C9.14,54 6,50.859 6,47 C6,43.141 9.14,40 13,40 L51,40 C54.134,40 56.793,42.07 57.682,44.915 L57.764,45.243 C57.766,45.25 57.77,45.255 57.772,45.262 C57.916,45.818 58,46.399 58,47 C58,50.859 54.86,54 51,54 L51,54 Z" id="Shape" fill="#000000"></path>
    </g>
</svg>