<?xml version="1.0" encoding="UTF-8" standalone="no"?>
<svg width="44px" height="44px" viewBox="0 0 44 44" version="1.1" xmlns="http://www.w3.org/2000/svg" xmlns:xlink="http://www.w3.org/1999/xlink">
    <!-- Generator: Sketch 3.7.2 (28276) - http://www.bohemiancoding.com/sketch -->
    <title>clo-ear-muffs</title>
    <desc>Created with Sketch.</desc>
    <defs></defs>
    <g id="44px-Glyph" stroke="none" stroke-width="1" fill="none" fill-rule="evenodd">
        <g id="clo-ear-muffs" fill="#000000">
            <path d="M35.9644,20.0654 C35.5904,8.2474 28.2914,4.0004 22.0004,4.0004 C15.7094,4.0004 8.4104,8.2474 8.0354,20.0654 C3.5254,20.6554 0.0004,25.3334 0.0004,31.0004 C0.0004,37.0654 4.0374,42.0004 9.0004,42.0004 C13.9634,42.0004 18.0004,37.0654 18.0004,31.0004 C18.0004,25.3624 14.5104,20.7074 10.0334,20.0784 C10.3764,9.7364 16.3674,6.0004 22.0004,6.0004 C27.6334,6.0004 33.6244,9.7364 33.9674,20.0784 C29.4894,20.7074 26.0004,25.3624 26.0004,31.0004 C26.0004,37.0654 30.0374,42.0004 35.0004,42.0004 C39.9634,42.0004 44.0004,37.0654 44.0004,31.0004 C44.0004,25.3334 40.4754,20.6554 35.9644,20.0654" id="Fill-73"></path>
        </g>
    </g>
</svg>