<?xml version="1.0" encoding="UTF-8" standalone="no"?>
<svg width="64px" height="64px" viewBox="0 0 64 64" version="1.1" xmlns="http://www.w3.org/2000/svg" xmlns:xlink="http://www.w3.org/1999/xlink">
    <!-- Generator: Sketch 3.7.2 (28276) - http://www.bohemiancoding.com/sketch -->
    <title>clo-cloud-computer-2</title>
    <desc>Created with Sketch.</desc>
    <defs></defs>
    <g id="64px-Line" stroke="none" stroke-width="1" fill="none" fill-rule="evenodd">
        <g id="clo-cloud-computer-2"></g>
        <path d="M8,50 L42,50 C44.206,50 46,48.206 46,46 L46,26 C46,23.794 44.206,22 42,22 L8,22 C5.794,22 4,23.794 4,26 L4,46 C4,48.206 5.794,50 8,50 L8,50 Z M42,48 L8,48 C6.897,48 6,47.103 6,46 L6,42 L44,42 L44,46 C44,47.103 43.103,48 42,48 L42,48 Z M8,24 L42,24 C43.103,24 44,24.897 44,26 L44,40 L6,40 L6,26 C6,24.897 6.897,24 8,24 L8,24 Z" id="Shape" fill="#000000"></path>
        <path d="M31.976,56.88 C31.971,56.839 31.981,56.799 31.97,56.758 L30.97,52.758 C30.836,52.221 30.292,51.896 29.757,52.03 C29.221,52.164 28.896,52.707 29.029,53.242 L29.986,57.068 C29.949,57.586 29.527,58 29,58 L21,58 C20.473,58 20.051,57.586 20.014,57.068 L20.971,53.242 C21.105,52.707 20.779,52.164 20.243,52.03 C19.711,51.895 19.165,52.22 19.03,52.758 L18.03,56.758 C18.02,56.799 18.029,56.839 18.024,56.88 C18.019,56.921 18,56.957 18,57 C18,57.044 18.011,57.084 18.013,57.128 C18.015,57.142 18.015,57.155 18.017,57.169 C18.107,58.743 19.403,60 21,60 L29,60 C30.596,60 31.893,58.743 31.983,57.169 C31.985,57.155 31.985,57.142 31.987,57.128 C31.989,57.085 32,57.044 32,57 C32,56.958 31.981,56.921 31.976,56.88 L31.976,56.88 Z" id="Shape" fill="#000000"></path>
        <path d="M25.38,44.08 C25.01,43.93 24.57,44.019 24.29,44.29 C24.11,44.479 24,44.74 24,45 C24,45.13 24.03,45.26 24.08,45.38 C24.13,45.5 24.2,45.609 24.29,45.71 C24.48,45.899 24.73,46 25,46 C25.27,46 25.52,45.899 25.71,45.71 C25.8,45.609 25.87,45.5 25.92,45.38 C25.98,45.26 26,45.13 26,45 C26,44.74 25.89,44.479 25.71,44.29 C25.61,44.2 25.51,44.13 25.38,44.08 L25.38,44.08 Z" id="Shape" fill="#000000"></path>
        <path d="M54.797,15.167 C54.673,8.988 49.608,4 43.4,4 C39.004,4 35.059,6.508 33.164,10.373 C32.118,9.617 30.854,9.2 29.533,9.2 C26.115,9.2 23.333,11.981 23.333,15.4 C23.333,15.798 23.37,16.192 23.444,16.577 C22.405,16.941 21.45,17.519 20.639,18.281 C20.237,18.659 20.217,19.292 20.595,19.695 C20.973,20.098 21.606,20.117 22.009,19.739 C22.794,19.002 23.76,18.494 24.808,18.267 C24.883,18.257 24.958,18.239 25.033,18.211 C25.547,18.019 25.808,17.446 25.621,16.93 C25.617,16.92 25.613,16.909 25.609,16.9 C25.426,16.421 25.334,15.917 25.334,15.4 C25.334,13.084 27.218,11.2 29.534,11.2 C30.779,11.2 31.951,11.746 32.752,12.701 C32.889,12.876 33.081,13.002 33.299,13.056 C33.721,13.16 34.158,12.985 34.388,12.618 C34.442,12.532 34.482,12.44 34.508,12.345 C35.812,8.547 39.378,5.999 43.401,5.999 C48.584,5.999 52.801,10.216 52.801,15.399 C52.801,15.538 52.798,15.676 52.794,15.813 C52.782,16.247 53.052,16.639 53.461,16.783 C56.176,17.739 58.001,20.318 58.001,23.199 C58.001,26.949 54.951,29.999 51.201,29.999 L49,29.999 C48.448,29.999 48,30.447 48,30.999 C48,31.551 48.448,31.999 49,31.999 L51.2,31.999 C56.052,31.999 60,28.051 60,23.199 C60,19.715 57.937,16.573 54.797,15.167 L54.797,15.167 Z" id="Shape" fill="#000000"></path>
    </g>
</svg>