<?xml version="1.0" encoding="UTF-8" standalone="no"?>
<svg width="64px" height="64px" viewBox="0 0 64 64" version="1.1" xmlns="http://www.w3.org/2000/svg" xmlns:xlink="http://www.w3.org/1999/xlink">
    <!-- Generator: Sketch 3.7.2 (28276) - http://www.bohemiancoding.com/sketch -->
    <title>clo-panties-3</title>
    <desc>Created with Sketch.</desc>
    <defs></defs>
    <g id="64px-Line" stroke="none" stroke-width="1" fill="none" fill-rule="evenodd">
        <g id="clo-panties-3"></g>
        <circle id="Oval" fill="#000000" cx="33" cy="21" r="1"></circle>
        <circle id="Oval" fill="#000000" cx="21" cy="21" r="1"></circle>
        <circle id="Oval" fill="#000000" cx="13" cy="21" r="1"></circle>
        <circle id="Oval" fill="#000000" cx="29" cy="21" r="1"></circle>
        <circle id="Oval" fill="#000000" cx="17" cy="21" r="1"></circle>
        <circle id="Oval" fill="#000000" cx="49" cy="21" r="1"></circle>
        <circle id="Oval" fill="#000000" cx="53" cy="21" r="1"></circle>
        <circle id="Oval" fill="#000000" cx="41" cy="21" r="1"></circle>
        <circle id="Oval" fill="#000000" cx="45" cy="21" r="1"></circle>
        <circle id="Oval" fill="#000000" cx="37" cy="21" r="1"></circle>
        <circle id="Oval" fill="#000000" cx="25" cy="21" r="1"></circle>
        <circle id="Oval" fill="#000000" cx="9" cy="21" r="1"></circle>
        <path d="M5.514,33.932 C5.521,33.955 5.538,33.97 5.546,33.992 C8.808,43.197 16.924,50.124 26.805,51.672 C26.807,51.672 26.808,51.673 26.81,51.673 L26.815,51.673 C28.18,51.886 29.577,51.999 31.001,51.999 C42.734,51.999 52.738,44.474 56.453,33.999 C56.462,33.974 56.481,33.956 56.489,33.931 C56.494,33.914 56.489,33.897 56.493,33.88 C57.465,31.097 58.001,28.11 58.001,24.999 L58.001,14.999 C58.001,14.446 57.553,13.999 57.001,13.999 L5.001,13.999 C4.449,13.999 4.001,14.446 4.001,14.999 L4.001,24.999 C4.001,28.112 4.537,31.101 5.511,33.886 C5.513,33.902 5.509,33.917 5.514,33.932 L5.514,33.932 Z M7.817,34.339 C8.858,34.114 9.924,34 11,34 C19.271,34 26,40.729 26,49 C26,49.165 25.98,49.328 25.975,49.492 C17.705,47.798 10.916,42.005 7.817,34.339 L7.817,34.339 Z M36.025,49.492 C36.019,49.328 36,49.165 36,49 C36,40.729 42.729,34 51,34 C52.076,34 53.143,34.115 54.184,34.339 C51.084,42.005 44.295,47.798 36.025,49.492 L36.025,49.492 Z M6,16 L56,16 L56,25 C56,27.593 55.603,30.095 54.866,32.449 C53.604,32.155 52.309,32 51,32 C41.626,32 34,39.626 34,49 C34,49.27 34.028,49.538 34.041,49.808 C33.043,49.93 32.03,50 31,50 C29.97,50 28.956,49.93 27.958,49.808 C27.971,49.538 28,49.27 28,49 C28,39.626 20.374,32 11,32 C9.691,32 8.396,32.155 7.134,32.449 C6.397,30.095 6,27.593 6,25 L6,16 L6,16 Z" id="Shape" fill="#000000"></path>
    </g>
</svg>