<?xml version="1.0" encoding="UTF-8" standalone="no"?>
<svg width="44px" height="44px" viewBox="0 0 44 44" version="1.1" xmlns="http://www.w3.org/2000/svg" xmlns:xlink="http://www.w3.org/1999/xlink">
    <!-- Generator: Sketch 3.7.2 (28276) - http://www.bohemiancoding.com/sketch -->
    <title>clo-high-heels</title>
    <desc>Created with Sketch.</desc>
    <defs></defs>
    <g id="44px-Glyph" stroke="none" stroke-width="1" fill="none" fill-rule="evenodd">
        <g id="clo-high-heels" fill="#000000">
            <path d="M43.0001,42 L29.0001,42 C24.4711,42 21.5631,37.658 18.9991,33.828 C16.9921,30.831 15.0971,28 13.0001,28 C8.4471,28 8.0271,33.564 8.0001,34.027 L8.0001,41 C8.0001,41.552 7.5531,42 7.0001,42 C6.4471,42 6.0001,41.552 6.0001,41 L6.0001,34.007 L6.0001,33.995 C5.9991,27.209 4.8921,24.944 3.8201,22.754 C2.8841,20.841 2.0001,19.033 2.0001,14.818 C2.0001,5.289 8.7641,4.026 8.8321,4.014 C9.1951,3.951 9.5701,4.099 9.7971,4.395 C9.9041,4.537 20.5921,18.62 24.7901,24.023 C28.5261,28.833 28.8811,28.914 33.2091,29.902 L34.5361,30.208 C40.2171,31.544 44.0001,33.89 44.0001,41 C44.0001,41.552 43.5531,42 43.0001,42" id="Fill-159"></path>
        </g>
    </g>
</svg>