<?xml version="1.0" encoding="UTF-8" standalone="no"?>
<svg width="44px" height="44px" viewBox="0 0 44 44" version="1.1" xmlns="http://www.w3.org/2000/svg" xmlns:xlink="http://www.w3.org/1999/xlink">
    <!-- Generator: Sketch 3.7.2 (28276) - http://www.bohemiancoding.com/sketch -->
    <title>clo-boxers</title>
    <desc>Created with Sketch.</desc>
    <defs></defs>
    <g id="44px-Glyph" stroke="none" stroke-width="1" fill="none" fill-rule="evenodd">
        <g id="clo-boxers" fill="#000000">
            <path d="M26.0001,24 L26.0001,14 L22.0001,14 L22.0001,26 L24.0001,26 C25.1021,26 26.0001,25.103 26.0001,24" id="Fill-162"></path>
            <path d="M42.0001,12 L42.0001,7 C42.0001,6.448 41.5531,6 41.0001,6 L1.0001,6 C0.4471,6 0.0001,6.448 0.0001,7 L0.0001,12 L42.0001,12 Z" id="Fill-164"></path>
            <path d="M20.0001,14 L0.0001,14 L0.0001,35 C0.0001,36.654 1.3461,38 3.0001,38 L15.3931,38 C16.6341,38 17.6901,37.14 17.9581,35.909 C18.1921,34.843 18.8751,33.033 20.0001,32.313 L20.0001,14 Z" id="Fill-166"></path>
            <path d="M28.0001,14 L28.0001,24 C28.0001,26.206 26.2061,28 24.0001,28 L22.0001,28 L22.0001,32.313 C23.1251,33.033 23.8081,34.843 24.0421,35.909 C24.3101,37.14 25.3661,38 26.6071,38 L39.0001,38 C40.6541,38 42.0001,36.654 42.0001,35 L42.0001,14 L28.0001,14 Z" id="Fill-168"></path>
        </g>
    </g>
</svg>