<?xml version="1.0" encoding="UTF-8" standalone="no"?>
<svg width="64px" height="64px" viewBox="0 0 64 64" version="1.1" xmlns="http://www.w3.org/2000/svg" xmlns:xlink="http://www.w3.org/1999/xlink">
    <!-- Generator: Sketch 3.7.2 (28276) - http://www.bohemiancoding.com/sketch -->
    <title>clo-scarf</title>
    <desc>Created with Sketch.</desc>
    <defs></defs>
    <g id="64px-Line" stroke="none" stroke-width="1" fill="none" fill-rule="evenodd">
        <g id="clo-scarf"></g>
        <path d="M20,9 C20,8.447 19.553,8 19,8 L7,8 C6.447,8 6,8.447 6,9 L6,17 L6,40 C6,45.514 10.486,50 16,50 L28,50 C33.514,50 38,45.514 38,40 L38,26 C38,24.049 38.721,22.174 39.996,20.722 C41.239,22.132 42,23.977 42,26 L42,49 L42,57 C42,57.553 42.447,58 43,58 L55,58 C55.553,58 56,57.553 56,57 L56,49 L56,26 C56,20.486 51.514,16 46,16 L34,16 C28.486,16 24,20.486 24,26 L24,40 C24,42.025 23.243,43.878 21.998,45.288 C20.719,43.836 20,41.955 20,40 L20,17 L20,9 L20,9 Z M18,16 L16,16 L16,10 L18,10 L18,16 L18,16 Z M12,16 L12,10 L14,10 L14,16 L12,16 L12,16 Z M10,10 L10,16 L8,16 L8,10 L10,10 L10,10 Z M44,50 L46,50 L46,56 L44,56 L44,50 L44,50 Z M50,50 L50,56 L48,56 L48,50 L50,50 L50,50 Z M52,56 L52,50 L54,50 L54,56 L52,56 L52,56 Z M46,18 C50.411,18 54,21.589 54,26 L54,48 L44,48 L44,26 C44,23.088 42.744,20.469 40.752,18.639 C40.748,18.635 40.748,18.63 40.744,18.626 C40.723,18.603 40.695,18.593 40.673,18.572 C40.453,18.374 40.231,18.178 39.994,18 L46,18 L46,18 Z M22.602,47.506 C22.645,47.473 22.687,47.436 22.725,47.395 C24.736,45.565 26,42.927 26,40 L26,26 C26,21.589 29.589,18 34,18 C35.669,18 37.219,18.515 38.502,19.393 C36.904,21.209 36,23.556 36,26 L36,40 C36,44.411 32.411,48 28,48 L21.988,48 C22.198,47.842 22.405,47.679 22.602,47.506 L22.602,47.506 Z M20.499,46.612 C19.216,47.487 17.667,48 16,48 C11.589,48 8,44.411 8,40 L8,18 L18,18 L18,40 C18,42.444 18.899,44.796 20.499,46.612 L20.499,46.612 Z" id="Shape" fill="#000000"></path>
    </g>
</svg>