<?xml version="1.0" encoding="UTF-8" standalone="no"?>
<svg width="64px" height="64px" viewBox="0 0 64 64" version="1.1" xmlns="http://www.w3.org/2000/svg" xmlns:xlink="http://www.w3.org/1999/xlink">
    <!-- Generator: Sketch 3.7.2 (28276) - http://www.bohemiancoding.com/sketch -->
    <title>clo-sweater</title>
    <desc>Created with Sketch.</desc>
    <defs></defs>
    <g id="64px-Line" stroke="none" stroke-width="1" fill="none" fill-rule="evenodd">
        <g id="clo-sweater"></g>
        <path d="M37,6 L25,6 C23.346,6 22,7.346 22,9 L22,12.165 L15.777,13.288 C13.529,13.801 10.458,16.384 10.018,18.811 L4.018,49.811 C3.965,50.08 4.026,50.358 4.185,50.581 C4.344,50.804 4.587,50.952 4.858,50.991 L11.858,51.991 C12.376,52.065 12.859,51.73 12.975,51.223 L15.999,37.913 L15.999,57 C15.999,57.552 16.446,58 16.999,58 L44.999,58 C45.552,58 45.999,57.552 45.999,57 L45.999,37.912 L49.023,51.222 C49.139,51.729 49.622,52.064 50.14,51.99 L57.14,50.99 C57.411,50.951 57.654,50.803 57.813,50.58 C57.972,50.357 58.033,50.079 57.98,49.81 L51.975,18.783 C51.496,16.637 48.601,13.812 46.289,13.278 L40,12.162 L40,9 C40,7.346 38.654,6 37,6 L37,6 Z M38,9 L38,12 L36,12 L36,8 L37,8 C37.552,8 38,8.449 38,9 L38,9 Z M32,12 L32,8 L34,8 L34,12 L32,12 L32,12 Z M28,12 L28,8 L30,8 L30,12 L28,12 L28,12 Z M25,8 L26,8 L26,12 L24,12 L24,9 C24,8.449 24.448,8 25,8 L25,8 Z M6.581,47.093 L8.198,47.324 L7.73,49.38 L6.182,49.159 L6.581,47.093 L6.581,47.093 Z M9.716,49.664 L10.184,47.608 L11.697,47.824 L11.23,49.88 L9.716,49.664 L9.716,49.664 Z M50.303,47.824 L51.868,47.6 L52.301,49.661 L50.77,49.88 L50.303,47.824 L50.303,47.824 Z M54.286,49.378 L53.853,47.317 L55.419,47.093 L55.819,49.159 L54.286,49.378 L54.286,49.378 Z M45.891,15.236 C47.395,15.585 49.712,17.817 50.019,19.19 L55.039,45.128 L49.859,45.868 L45.976,28.779 C45.863,28.282 45.385,27.946 44.889,28.007 C44.383,28.063 44,28.491 44,29 L44,56 L18,56 L18,29 C18,28.491 17.617,28.063 17.111,28.006 C16.615,27.944 16.136,28.281 16.024,28.778 L12.141,45.867 L6.962,45.127 L11.985,19.178 C12.242,17.757 14.54,15.621 16.178,15.246 L23.089,13.999 L38.911,13.999 L45.891,15.236 L45.891,15.236 Z" id="Shape" fill="#000000"></path>
    </g>
</svg>