<?xml version="1.0" encoding="UTF-8" standalone="no"?>
<svg width="64px" height="64px" viewBox="0 0 64 64" version="1.1" xmlns="http://www.w3.org/2000/svg" xmlns:xlink="http://www.w3.org/1999/xlink">
    <!-- Generator: Sketch 3.7.2 (28276) - http://www.bohemiancoding.com/sketch -->
    <title>clo-sun-hat</title>
    <desc>Created with Sketch.</desc>
    <defs></defs>
    <g id="64px-Line" stroke="none" stroke-width="1" fill="none" fill-rule="evenodd">
        <g id="clo-sun-hat"></g>
        <path d="M45.985,34.156 C45.672,24.451 40.018,14 32,14 C23.981,14 18.326,24.454 18.015,34.16 C15.565,34.673 8.463,36.778 4.128,44.51 C4.116,44.531 4.114,44.554 4.104,44.575 C4.085,44.616 4.073,44.656 4.059,44.699 C4.035,44.773 4.02,44.847 4.014,44.923 C4.011,44.967 4.009,45.008 4.011,45.052 C4.015,45.132 4.032,45.208 4.055,45.284 C4.067,45.322 4.073,45.36 4.09,45.397 C4.134,45.498 4.194,45.591 4.272,45.675 C4.279,45.683 4.281,45.693 4.289,45.701 C4.29,45.702 4.294,45.706 4.295,45.707 L4.295,45.707 L4.295,45.707 C4.585,46.002 10.594,52 17,52 C21.456,52 26.171,49.12 28.911,47.118 C32.362,49.564 35.971,52 41,52 C52.161,52 57.579,46.725 59.815,43.579 C60.065,43.228 60.062,42.757 59.807,42.409 C55.466,36.477 48.414,34.633 45.985,34.156 L45.985,34.156 Z M43.977,34 L20.023,34 C20.053,33.347 20.114,32.678 20.201,32 L43.799,32 C43.885,32.678 43.947,33.347 43.977,34 L43.977,34 Z M32,16 C37.954,16 42.066,23.098 43.468,30 L20.532,30 C21.934,23.098 26.046,16 32,16 L32,16 Z M6.726,45.223 C8.916,44.121 13.576,42 17,42 C21.097,42 24.141,43.788 27.178,45.896 C24.815,47.548 20.689,50 17,50 C12.819,50 8.605,46.838 6.726,45.223 L6.726,45.223 Z M41,50 C36.423,50 33.15,47.677 29.686,45.216 C26.074,42.651 22.34,40 17,40 C14.107,40 10.591,41.265 8.025,42.395 C12.576,37.066 18.546,36.078 19.069,36 L44.924,36 C45.473,36.08 53.126,37.289 57.745,43.008 C55.497,45.861 50.582,50 41,50 L41,50 Z" id="Shape" fill="#000000"></path>
    </g>
</svg>