<?xml version="1.0" encoding="UTF-8" standalone="no"?>
<svg width="44px" height="44px" viewBox="0 0 44 44" version="1.1" xmlns="http://www.w3.org/2000/svg" xmlns:xlink="http://www.w3.org/1999/xlink">
    <!-- Generator: Sketch 3.7.2 (28276) - http://www.bohemiancoding.com/sketch -->
    <title>clo-hiking</title>
    <desc>Created with Sketch.</desc>
    <defs></defs>
    <g id="44px-Glyph" stroke="none" stroke-width="1" fill="none" fill-rule="evenodd">
        <g id="clo-hiking" fill="#000000">
            <path d="M43.0002,36 L19.4142,36 L10.0002,36 L1.0002,36 C0.4472,36 0.0002,36.448 0.0002,37 L0.0002,39 C0.0002,39.552 0.4472,40 1.0002,40 L11.0002,40 C11.5532,40 12.0002,39.552 12.0002,39 L12.0002,38 L18.5862,38 L20.2932,39.707 C20.4802,39.895 20.7342,40 21.0002,40 L43.0002,40 C43.5532,40 44.0002,39.552 44.0002,39 L44.0002,37 C44.0002,36.448 43.5532,36 43.0002,36" id="Fill-391"></path>
            <path d="M12.3829,31.0576 C12.2509,31.1166 12.1119,31.1436 11.9779,31.1436 C11.5939,31.1436 11.2289,30.9226 11.0629,30.5496 C10.9379,30.2686 10.8019,29.9936 10.6559,29.7246 C10.3919,29.2396 10.5719,28.6326 11.0569,28.3686 C11.5409,28.1046 12.1499,28.2836 12.4119,28.7686 C12.5849,29.0846 12.7439,29.4076 12.8909,29.7376 C13.1149,30.2426 12.8869,30.8336 12.3829,31.0576 M9.8109,26.7926 C9.6129,27.0096 9.3429,27.1196 9.0719,27.1196 C8.8309,27.1196 8.5899,27.0336 8.3989,26.8586 C8.1719,26.6536 7.9379,26.4576 7.6959,26.2706 C7.2569,25.9336 7.1759,25.3066 7.5119,24.8686 C7.8489,24.4306 8.4769,24.3476 8.9139,24.6856 C9.2009,24.9056 9.4789,25.1376 9.7439,25.3806 C10.1529,25.7516 10.1829,26.3846 9.8109,26.7926 M5.7379,23.9256 C5.5989,24.3456 5.2079,24.6106 4.7889,24.6106 C4.6849,24.6106 4.5779,24.5946 4.4739,24.5596 C4.1859,24.4636 3.8919,24.3796 3.5929,24.3066 C3.0559,24.1766 2.7269,23.6366 2.8569,23.0996 C2.9859,22.5626 3.5289,22.2296 4.0639,22.3636 C4.4169,22.4486 4.7639,22.5486 5.1049,22.6616 C5.6289,22.8356 5.9119,23.4016 5.7379,23.9256 M32.9999,21.9996 L29.2479,21.9996 L28.1729,27.2346 C28.0779,27.7096 27.6599,28.0386 27.1939,28.0386 C27.1289,28.0386 27.0629,28.0326 26.9959,28.0186 C26.4549,27.9106 26.1039,27.3846 26.2119,26.8426 L27.2489,21.7906 C26.5399,21.6246 25.9219,21.3636 25.3909,21.0236 L21.3009,25.1136 C21.1059,25.3086 20.8499,25.4066 20.5939,25.4066 C20.3379,25.4066 20.0819,25.3086 19.8869,25.1136 C19.4959,24.7226 19.4959,24.0896 19.8869,23.6996 L23.9089,19.6776 C23.5179,19.1736 23.2119,18.6196 22.9639,18.0506 L17.1499,19.7116 C17.0579,19.7376 16.9659,19.7506 16.8739,19.7506 C16.4399,19.7506 16.0389,19.4636 15.9129,19.0246 C15.7619,18.4936 16.0689,17.9406 16.6009,17.7886 L22.3459,16.1466 C22.1689,15.3626 22.0769,14.6166 22.0349,13.9996 L15.9999,13.9996 C15.4469,13.9996 14.9999,13.5526 14.9999,12.9996 C14.9999,12.4476 15.4469,11.9996 15.9999,11.9996 L21.9999,11.9996 L21.9999,8.9996 C21.9999,7.3456 20.6539,5.9996 18.9999,5.9996 L2.9999,5.9996 C1.3459,5.9996 -0.0001,7.3456 -0.0001,8.9996 L-0.0001,33.9996 L11.9729,33.9996 C11.9749,33.4856 12.3579,33.0466 12.8799,33.0046 C13.4429,32.9536 13.9129,33.3726 13.9569,33.9216 C13.9589,33.9476 13.9589,33.9746 13.9599,33.9996 L41.9999,33.9996 L41.9999,30.9996 C41.9999,26.0376 37.9629,21.9996 32.9999,21.9996" id="Fill-393"></path>
        </g>
    </g>
</svg>