<?xml version="1.0" encoding="UTF-8" standalone="no"?>
<svg width="64px" height="64px" viewBox="0 0 64 64" version="1.1" xmlns="http://www.w3.org/2000/svg" xmlns:xlink="http://www.w3.org/1999/xlink">
    <!-- Generator: Sketch 3.7.2 (28276) - http://www.bohemiancoding.com/sketch -->
    <title>clo-no-sneakers</title>
    <desc>Created with Sketch.</desc>
    <defs></defs>
    <g id="64px-Line" stroke="none" stroke-width="1" fill="none" fill-rule="evenodd">
        <g id="clo-no-sneakers"></g>
        <path d="M58,35.116 C58,32.244 56.2,29.62 53.526,28.588 L44.181,24.911 C43.668,24.708 43.087,24.962 42.884,25.475 C42.737,25.849 42.836,26.255 43.096,26.528 L39.297,30.29 C38.904,30.679 38.901,31.311 39.289,31.704 C39.485,31.901 39.742,32 40,32 C40.254,32 40.509,31.904 40.703,31.71 L45.053,27.402 L52.799,30.45 C54.713,31.189 55.999,33.063 55.999,35.115 L55.999,36 L31.999,36 C31.446,36 30.999,36.448 30.999,37 C30.999,37.552 31.446,38 31.999,38 L55.999,38 L55.999,40 C55.999,41.103 55.102,42 53.999,42 L53.999,41 C53.999,40.448 53.552,40 52.999,40 C52.446,40 51.999,40.448 51.999,41 L51.999,42 L49.999,42 L49.999,41 C49.999,40.448 49.552,40 48.999,40 C48.446,40 47.999,40.448 47.999,41 L47.999,42 L45.999,42 L45.999,41 C45.999,40.448 45.552,40 44.999,40 C44.446,40 43.999,40.448 43.999,41 L43.999,42 L41.999,42 L41.999,41 C41.999,40.448 41.552,40 40.999,40 C40.446,40 39.999,40.448 39.999,41 L39.999,42 L37.999,42 L37.999,41 C37.999,40.448 37.552,40 36.999,40 C36.446,40 35.999,40.448 35.999,41 L35.999,42 L33.999,42 L33.999,41 C33.999,40.448 33.552,40 32.999,40 C32.446,40 31.999,40.448 31.999,41 L31.999,42 L29.999,42 L29.999,41 C29.999,40.448 29.552,40 28.999,40 C28.446,40 27.999,40.448 27.999,41 L27.999,42 L25.999,42 C25.446,42 24.999,42.448 24.999,43 C24.999,43.552 25.446,44 25.999,44 L53.999,44 C56.205,44 57.999,42.206 57.999,40 L57.999,35.116 L58,35.116 Z" id="Shape" fill="#000000"></path>
        <path d="M8,44 L16,44 C16.553,44 17,43.552 17,43 C17,42.448 16.553,42 16,42 L14,42 L14,41 C14,40.448 13.553,40 13,40 C12.447,40 12,40.448 12,41 L12,42 L10,42 L10,41 C10,40.448 9.553,40 9,40 C8.447,40 8,40.448 8,41 L8,42 C6.897,42 6,41.103 6,40 L6,38 L22,38 C22.553,38 23,37.552 23,37 C23,36.448 22.553,36 22,36 L6,36 L6,23.003 C6,22.473 6.358,22.216 6.513,22.13 C6.654,22.051 7.005,21.899 7.415,22.092 C8.248,23.012 12.997,28 18,28 C20.859,28 23.413,26.029 25.667,24.29 C26.313,23.792 26.945,23.303 27.567,22.874 C28.876,21.972 30.558,21.752 32.039,22.282 L32.978,22.651 L29.297,26.288 C28.904,26.676 28.901,27.309 29.289,27.702 C29.484,27.9 29.742,27.999 30,27.999 C30.254,27.999 30.508,27.903 30.703,27.71 L35.013,23.451 L35.332,23.576 C35.845,23.777 36.426,23.526 36.629,23.012 C36.831,22.498 36.578,21.917 36.065,21.715 L35.156,21.357 L35.156,21.357 L32.742,20.408 C30.63,19.655 28.271,19.96 26.433,21.226 C25.783,21.674 25.121,22.185 24.446,22.705 C22.347,24.326 20.178,26 18,26 C13.521,26 8.849,20.697 8.803,20.644 C8.737,20.568 8.658,20.501 8.573,20.449 C7.634,19.871 6.5,19.847 5.538,20.385 C4.575,20.923 4.001,21.902 4.001,23.004 L4.001,40 C4,42.206 5.794,44 8,44 L8,44 Z" id="Shape" fill="#000000"></path>
        <path d="M5,60 C5.256,60 5.512,59.902 5.707,59.707 L57.707,7.707 C58.098,7.316 58.098,6.684 57.707,6.293 C57.316,5.902 56.684,5.902 56.293,6.293 L4.293,58.293 C3.902,58.684 3.902,59.316 4.293,59.707 C4.488,59.902 4.744,60 5,60 L5,60 Z" id="Shape" fill="#000000"></path>
    </g>
</svg>