<?xml version="1.0" encoding="UTF-8" standalone="no"?>
<svg width="44px" height="44px" viewBox="0 0 44 44" version="1.1" xmlns="http://www.w3.org/2000/svg" xmlns:xlink="http://www.w3.org/1999/xlink">
    <!-- Generator: Sketch 3.7.2 (28276) - http://www.bohemiancoding.com/sketch -->
    <title>clo-hat-cowboy</title>
    <desc>Created with Sketch.</desc>
    <defs></defs>
    <g id="44px-Glyph" stroke="none" stroke-width="1" fill="none" fill-rule="evenodd">
        <g id="clo-hat-cowboy" fill="#000000">
            <path d="M32.0001,27 C32.0001,29.757 29.7571,32 27.0001,32 L26.0001,32 C23.7941,32 22.0001,33.794 22.0001,36 L22.0001,38 L20.0001,38 L20.0001,36 C20.0001,33.794 18.2061,32 16.0001,32 L15.0001,32 C12.2431,32 10.0001,29.757 10.0001,27 L10.0001,24 L32.0001,24 L32.0001,27 Z M14.3981,14.202 C14.4471,14.164 17.0001,12.167 17.0001,9 C17.0001,8.448 17.4481,8 18.0001,8 C18.5521,8 19.0001,8.448 19.0001,9 C19.0001,13.202 15.7391,15.696 15.6001,15.8 C15.4201,15.935 15.2101,16 15.0011,16 C14.6971,16 14.3961,15.862 14.2001,15.6 C13.8691,15.159 13.9581,14.534 14.3981,14.202 L14.3981,14.202 Z M24.0001,8 C24.5521,8 25.0001,8.448 25.0001,9 C25.0001,12.183 27.5771,14.183 27.6031,14.202 C28.0411,14.536 28.1281,15.163 27.7961,15.602 C27.6001,15.862 27.3001,15.999 26.9981,15.999 C26.7901,15.999 26.5801,15.935 26.4001,15.8 C26.2611,15.696 23.0001,13.202 23.0001,9 C23.0001,8.448 23.4481,8 24.0001,8 L24.0001,8 Z M41.0001,18 C40.4481,18 40.0001,18.448 40.0001,19 C40.0001,20.384 39.2141,22 37.0001,22 L35.7961,22 C35.4171,20.389 34.4631,16.521 33.1791,12.683 C29.9751,3.107 27.5471,2 26.0001,2 C24.1811,2 23.4191,3.071 22.8611,3.852 C22.3521,4.568 22.0441,5 21.0001,5 C19.9431,5 19.6261,4.561 19.1011,3.835 C18.5421,3.06 17.7771,2 16.0001,2 C14.4531,2 12.0251,3.107 8.8211,12.683 C7.5371,16.521 6.5831,20.389 6.2041,22 L5.0001,22 C2.7861,22 2.0001,20.384 2.0001,19 C2.0001,18.448 1.5521,18 1.0001,18 C0.4481,18 0.0001,18.448 0.0001,19 C0.0001,21.944 2.0561,24 5.0001,24 L8.0001,24 L8.0001,27 C8.0001,30.86 11.1401,34 15.0001,34 L16.0001,34 C17.1031,34 18.0001,34.897 18.0001,36 L18.0001,38 L17.0001,38 C16.4481,38 16.0001,38.448 16.0001,39 C16.0001,39.552 16.4481,40 17.0001,40 L18.0001,40 L18.0001,43 C18.0001,43.552 18.4481,44 19.0001,44 C19.5521,44 20.0001,43.552 20.0001,43 L20.0001,40 L22.0001,40 L22.0001,41 C22.0001,41.552 22.4481,42 23.0001,42 C23.5521,42 24.0001,41.552 24.0001,41 L24.0001,40 L25.0001,40 C25.5521,40 26.0001,39.552 26.0001,39 C26.0001,38.448 25.5521,38 25.0001,38 L24.0001,38 L24.0001,36 C24.0001,34.897 24.8971,34 26.0001,34 L27.0001,34 C30.8601,34 34.0001,30.86 34.0001,27 L34.0001,24 L37.0001,24 C39.9441,24 42.0001,21.944 42.0001,19 C42.0001,18.448 41.5521,18 41.0001,18 L41.0001,18 Z" id="Fill-192"></path>
        </g>
    </g>
</svg>