<?xml version="1.0" encoding="UTF-8" standalone="no"?>
<svg width="64px" height="64px" viewBox="0 0 64 64" version="1.1" xmlns="http://www.w3.org/2000/svg" xmlns:xlink="http://www.w3.org/1999/xlink">
    <!-- Generator: Sketch 3.7.2 (28276) - http://www.bohemiancoding.com/sketch -->
    <title>clo-cloud-download</title>
    <desc>Created with Sketch.</desc>
    <defs></defs>
    <g id="64px-Line" stroke="none" stroke-width="1" fill="none" fill-rule="evenodd">
        <g id="clo-cloud-download"></g>
        <path d="M15,52 L49,52 C55.065,52 60,47.065 60,41 C60,36.014 56.661,31.696 51.936,30.396 C51.979,29.932 52,29.465 52,29 C52,20.729 45.271,14 37,14 C30.897,14 25.372,17.782 23.1,23.354 C21.737,22.474 20.147,22 18.5,22 C13.813,22 10,25.813 10,30.5 C10,30.729 10.01,30.958 10.027,31.188 C6.342,33.053 4,36.826 4,41 C4,47.065 8.935,52 15,52 L15,52 Z M11.5,32.708 C11.928,32.527 12.175,32.075 12.096,31.617 C12.032,31.25 12,30.874 12,30.5 C12,26.916 14.916,24 18.5,24 C20.136,24 21.7,24.612 22.905,25.723 C23.158,25.957 23.515,26.043 23.847,25.952 C24.18,25.861 24.442,25.604 24.54,25.274 C26.171,19.814 31.295,16 37,16 C44.168,16 50,21.832 50,29 C50,29.673 49.947,30.351 49.844,31.014 C49.761,31.549 50.118,32.053 50.651,32.152 C54.909,32.939 58,36.66 58,41 C58,45.962 53.963,50 49,50 L15,50 C10.037,50 6,45.962 6,41 C6,37.375 8.159,34.121 11.5,32.708 L11.5,32.708 Z" id="Shape" fill="#000000"></path>
        <path d="M32.292,45.706 C32.384,45.799 32.495,45.872 32.618,45.923 C32.74,45.973 32.87,46 33,46 C33.13,46 33.26,45.973 33.382,45.923 C33.505,45.872 33.615,45.799 33.708,45.706 L39.707,39.707 C40.098,39.316 40.098,38.684 39.707,38.293 C39.316,37.902 38.684,37.902 38.293,38.293 L34,42.586 L34,25 C34,24.448 33.553,24 33,24 C32.447,24 32,24.448 32,25 L32,42.586 L27.707,38.293 C27.316,37.902 26.684,37.902 26.293,38.293 C25.902,38.684 25.902,39.316 26.293,39.707 L32.292,45.706 L32.292,45.706 Z" id="Shape" fill="#000000"></path>
    </g>
</svg>