<?xml version="1.0" encoding="UTF-8" standalone="no"?>
<svg width="44px" height="44px" viewBox="0 0 44 44" version="1.1" xmlns="http://www.w3.org/2000/svg" xmlns:xlink="http://www.w3.org/1999/xlink">
    <!-- Generator: Sketch 3.7.2 (28276) - http://www.bohemiancoding.com/sketch -->
    <title>clo-shorts-2</title>
    <desc>Created with Sketch.</desc>
    <defs></defs>
    <g id="44px-Line" stroke="none" stroke-width="1" fill="none" fill-rule="evenodd">
        <g id="clo-shorts-2"></g>
        <path d="M13,12 C12.447,12 12,12.448 12,13 C12,15.77 9.265,18 7,18 C6.447,18 6,18.448 6,19 C6,19.552 6.447,20 7,20 C10.305,20 14,17.006 14,13 C14,12.448 13.553,12 13,12 L13,12 Z" id="Shape" fill="#000000"></path>
        <path d="M35,18 C32.735,18 30,15.77 30,13 C30,12.448 29.553,12 29,12 C28.447,12 28,12.448 28,13 C28,17.006 31.695,20 35,20 C35.553,20 36,19.552 36,19 C36,18.448 35.553,18 35,18 L35,18 Z" id="Shape" fill="#000000"></path>
        <path d="M0.205,37.607 C0.368,37.82 0.609,37.959 0.876,37.992 L16.876,39.992 C17.35,40.051 17.816,39.755 17.958,39.288 L21,29.167 L24.042,39.289 C24.171,39.716 24.563,40.001 24.999,40.001 C25.041,40.001 25.082,39.999 25.124,39.993 L41.124,37.993 C41.391,37.96 41.632,37.821 41.795,37.608 C41.958,37.395 42.028,37.125 41.99,36.859 L38,8.929 L38,5 C38,4.448 37.553,4 37,4 L5.077,4 C4.532,4 4.088,4.436 4.077,4.981 L4.001,8.919 L0.01,36.858 C-0.028,37.124 0.042,37.394 0.205,37.607 L0.205,37.607 Z M24,10 L24,19 C24,20.302 23.161,21.402 22,21.816 L22,10 L24,10 L24,10 Z M39.866,36.134 L25.715,37.903 L22,25.544 L22,23.899 C24.279,23.434 26,21.415 26,19 L26,10 L36.132,10 L39.866,36.134 L39.866,36.134 Z M36,6 L36,8 L6.019,8 L6.057,6 L36,6 L36,6 Z M5.868,10 L20,10 L20,25.544 L16.285,37.903 L2.134,36.134 L5.868,10 L5.868,10 Z" id="Shape" fill="#000000"></path>
    </g>
</svg>