<?xml version="1.0" encoding="UTF-8" standalone="no"?>
<svg width="64px" height="64px" viewBox="0 0 64 64" version="1.1" xmlns="http://www.w3.org/2000/svg" xmlns:xlink="http://www.w3.org/1999/xlink">
    <!-- Generator: Sketch 3.7.2 (28276) - http://www.bohemiancoding.com/sketch -->
    <title>clo-suspender</title>
    <desc>Created with Sketch.</desc>
    <defs></defs>
    <g id="64px-Line" stroke="none" stroke-width="1" fill="none" fill-rule="evenodd">
        <g id="clo-suspender"></g>
        <path d="M55.949,14.684 C55.812,14.275 55.431,14 55,14 L7,14 C6.569,14 6.188,14.275 6.051,14.684 L2.051,26.684 C1.949,26.989 2.001,27.325 2.189,27.585 C2.377,27.845 2.679,28 3,28 C10.168,28 16,33.832 16,41 L16,49 C16,49.553 16.448,50 17,50 C17.552,50 18,49.553 18,49 L18,41 C18,33.832 23.832,28 31,28 C38.168,28 44,33.832 44,41 L44,49 C44,49.553 44.448,50 45,50 C45.552,50 46,49.553 46,49 L46,41 C46,33.832 51.832,28 59,28 C59.321,28 59.623,27.846 59.811,27.585 C59.999,27.324 60.05,26.988 59.949,26.684 L55.949,14.684 L55.949,14.684 Z M46,33.554 L46,33.455 C46,32.902 45.552,32.455 45,32.455 C44.448,32.455 44,32.902 44,33.455 L44,33.549 C41.566,29.319 37.135,26.392 32,26.051 L32,26 C32,25.447 31.552,25 31,25 C30.448,25 30,25.447 30,26 L30,26.051 C24.865,26.392 20.434,29.319 18,33.549 L18,33.455 C18,32.902 17.552,32.455 17,32.455 C16.448,32.455 16,32.902 16,33.455 L16,33.554 C13.624,29.422 9.35,26.515 4.367,26.062 L7.721,16 L16,16 C16,16.553 16.448,17 17,17 C17.552,17 18,16.553 18,16 L30,16 C30,16.553 30.448,17 31,17 C31.552,17 32,16.553 32,16 L44,16 C44,16.553 44.448,17 45,17 C45.552,17 46,16.553 46,16 L54.279,16 L57.633,26.062 C52.65,26.514 48.376,29.422 46,33.554 L46,33.554 Z" id="Shape" fill="#000000"></path>
        <path d="M31,19 C30.448,19 30,19.447 30,20 L30,22 C30,22.553 30.448,23 31,23 C31.552,23 32,22.553 32,22 L32,20 C32,19.447 31.552,19 31,19 L31,19 Z" id="Shape" fill="#000000"></path>
        <path d="M45,25.909 C44.448,25.909 44,26.356 44,26.909 L44,29.091 C44,29.644 44.448,30.091 45,30.091 C45.552,30.091 46,29.644 46,29.091 L46,26.909 C46,26.356 45.552,25.909 45,25.909 L45,25.909 Z" id="Shape" fill="#000000"></path>
        <path d="M45,19.363 C44.448,19.363 44,19.81 44,20.363 L44,22.545 C44,23.098 44.448,23.545 45,23.545 C45.552,23.545 46,23.098 46,22.545 L46,20.363 C46,19.811 45.552,19.363 45,19.363 L45,19.363 Z" id="Shape" fill="#000000"></path>
        <path d="M17,25.909 C16.448,25.909 16,26.356 16,26.909 L16,29.091 C16,29.644 16.448,30.091 17,30.091 C17.552,30.091 18,29.644 18,29.091 L18,26.909 C18,26.356 17.552,25.909 17,25.909 L17,25.909 Z" id="Shape" fill="#000000"></path>
        <path d="M17,19.363 C16.448,19.363 16,19.81 16,20.363 L16,22.545 C16,23.098 16.448,23.545 17,23.545 C17.552,23.545 18,23.098 18,22.545 L18,20.363 C18,19.811 17.552,19.363 17,19.363 L17,19.363 Z" id="Shape" fill="#000000"></path>
    </g>
</svg>