<?xml version="1.0" encoding="UTF-8" standalone="no"?>
<svg width="64px" height="64px" viewBox="0 0 64 64" version="1.1" xmlns="http://www.w3.org/2000/svg" xmlns:xlink="http://www.w3.org/1999/xlink">
    <!-- Generator: Sketch 3.7.2 (28276) - http://www.bohemiancoding.com/sketch -->
    <title>clo-cloud-computer</title>
    <desc>Created with Sketch.</desc>
    <defs></defs>
    <g id="64px-Line" stroke="none" stroke-width="1" fill="none" fill-rule="evenodd">
        <g id="clo-cloud-computer"></g>
        <path d="M26.243,48.03 C25.707,47.896 25.165,48.222 25.03,48.758 L24.03,52.758 C24.02,52.8 24.029,52.84 24.024,52.881 C24.019,52.921 24,52.958 24,53 C24,53.044 24.011,53.084 24.013,53.128 C24.015,53.142 24.015,53.155 24.017,53.169 C24.107,54.743 25.404,56 27,56 L37,56 C38.596,56 39.893,54.743 39.983,53.169 C39.985,53.155 39.985,53.142 39.987,53.128 C39.989,53.084 40,53.044 40,53 C40,52.958 39.981,52.921 39.976,52.88 C39.971,52.838 39.981,52.798 39.97,52.757 L38.97,48.757 C38.836,48.221 38.294,47.896 37.757,48.029 C37.221,48.163 36.896,48.706 37.029,49.242 L37.985,53.068 C37.949,53.586 37.527,54 37,54 L27,54 C26.473,54 26.051,53.586 26.014,53.068 L26.97,49.242 C27.104,48.707 26.778,48.164 26.243,48.03 L26.243,48.03 Z" id="Shape" fill="#000000"></path>
        <path d="M56,8 L8,8 C5.794,8 4,9.794 4,12 L4,42 C4,44.206 5.794,46 8,46 L56,46 C58.206,46 60,44.206 60,42 L60,12 C60,9.794 58.206,8 56,8 L56,8 Z M8,10 L56,10 C57.103,10 58,10.897 58,12 L58,34 L6,34 L6,12 C6,10.897 6.897,10 8,10 L8,10 Z M56,44 L8,44 C6.897,44 6,43.103 6,42 L6,36 L58,36 L58,42 C58,43.103 57.103,44 56,44 L56,44 Z" id="Shape" fill="#000000"></path>
        <circle id="Oval" fill="#000000" cx="32" cy="40" r="2"></circle>
        <path d="M25.889,30 L36.889,30 C40.81,30 44,26.935 44,23.167 C44,19.399 40.81,16.334 36.889,16.334 C36.462,16.334 36.038,16.37 35.622,16.442 C34.531,14.919 32.739,14 30.778,14 C27.86,14 25.431,16.052 24.968,18.736 C22.157,19.162 20,21.51 20,24.333 C20,27.458 22.642,30 25.889,30 L25.889,30 Z M25.889,20.667 C26.441,20.667 26.889,20.219 26.889,19.667 C26.889,17.646 28.634,16 30.778,16 C32.266,16 33.601,16.782 34.264,18.04 C34.485,18.458 34.967,18.665 35.422,18.536 C35.894,18.402 36.388,18.334 36.889,18.334 C39.707,18.334 42,20.502 42,23.167 C42,25.832 39.707,28 36.889,28 L25.889,28 C23.745,28 22,26.355 22,24.333 C22,22.312 23.745,20.667 25.889,20.667 L25.889,20.667 Z" id="Shape" fill="#000000"></path>
    </g>
</svg>