<?xml version="1.0" encoding="UTF-8" standalone="no"?>
<svg width="44px" height="44px" viewBox="0 0 44 44" version="1.1" xmlns="http://www.w3.org/2000/svg" xmlns:xlink="http://www.w3.org/1999/xlink">
    <!-- Generator: Sketch 3.7.2 (28276) - http://www.bohemiancoding.com/sketch -->
    <title>clo-shoe</title>
    <desc>Created with Sketch.</desc>
    <defs></defs>
    <g id="44px-Line" stroke="none" stroke-width="1" fill="none" fill-rule="evenodd">
        <g id="clo-shoe"></g>
        <path d="M1,32 L13,32 C13.553,32 14,31.552 14,31 L14,28.606 C16.546,29.79 21.955,32 26.846,32 L43,32 C43.553,32 44,31.552 44,31 L44,29.011 C44,26.888 42.657,24.982 40.659,24.267 C39.711,23.928 38.605,23.563 37.431,23.176 C35.239,22.453 32.752,21.634 30.695,20.77 C25.934,18.77 19.832,11.436 19.77,11.362 C19.577,11.128 19.288,10.964 18.985,11 C18.682,11.004 18.397,11.146 18.211,11.385 C18.186,11.418 15.612,14.671 12.083,15.486 C8.458,16.323 1.377,14.07 1.306,14.047 C1.003,13.95 0.669,14.003 0.411,14.191 C0.152,14.38 0,14.681 0,15 L0,31 C0,31.552 0.447,32 1,32 L1,32 Z M2,30 L2,28 L12,28 L12,30 L2,30 L2,30 Z M12.532,17.436 C15.512,16.748 17.832,14.718 18.987,13.52 C19.408,13.998 19.99,14.642 20.68,15.366 L19.1,16.946 C18.709,17.337 18.709,17.97 19.1,18.36 C19.295,18.555 19.551,18.653 19.807,18.653 C20.063,18.653 20.319,18.555 20.514,18.36 L22.083,16.791 C22.466,17.167 22.87,17.55 23.287,17.934 L21.687,19.534 C21.296,19.924 21.296,20.557 21.687,20.948 C21.882,21.143 22.138,21.241 22.394,21.241 C22.65,21.241 22.906,21.143 23.101,20.948 L24.792,19.257 C25.248,19.639 25.713,20.009 26.183,20.363 L24.754,21.793 C24.363,22.184 24.363,22.817 24.754,23.207 C24.949,23.402 25.205,23.5 25.461,23.5 C25.717,23.5 25.973,23.402 26.168,23.207 L27.857,21.517 C28.551,21.951 29.244,22.33 29.92,22.614 C32.051,23.509 34.576,24.342 36.805,25.075 C37.961,25.456 39.05,25.815 39.985,26.149 C41.19,26.581 42,27.73 42,29.011 L42,30 L26.846,30 C20.817,30 13.544,26.157 13.471,26.118 C13.454,26.109 13.434,26.105 13.417,26.097 C13.394,26.086 13.371,26.079 13.347,26.07 C13.235,26.029 13.12,26 13,26 L2,26 L2,16.336 C4.364,16.988 9.374,18.163 12.532,17.436 L12.532,17.436 Z" id="Shape" fill="#000000"></path>
    </g>
</svg>