<?xml version="1.0" encoding="UTF-8" standalone="no"?>
<svg width="44px" height="44px" viewBox="0 0 44 44" version="1.1" xmlns="http://www.w3.org/2000/svg" xmlns:xlink="http://www.w3.org/1999/xlink">
    <!-- Generator: Sketch 3.7.2 (28276) - http://www.bohemiancoding.com/sketch -->
    <title>clo-glove</title>
    <desc>Created with Sketch.</desc>
    <defs></defs>
    <g id="44px-Glyph" stroke="none" stroke-width="1" fill="none" fill-rule="evenodd">
        <g id="clo-glove" fill="#000000">
            <path d="M41.8956,16.6045 C41.5466,15.1075 40.0816,13.8905 38.4116,13.7105 C37.5076,13.6125 36.6776,13.8385 35.9996,14.3145 L35.9996,23.0005 C35.9996,23.5525 35.5526,24.0005 34.9996,24.0005 C34.4476,24.0005 33.9996,23.5525 33.9996,23.0005 L33.9996,5.0005 C33.9996,2.7945 32.2066,1.0005 29.9996,1.0005 C29.2676,1.0005 28.5876,1.2065 27.9996,1.5555 L27.9996,15.0005 C27.9996,15.5525 27.5526,16.0005 26.9996,16.0005 C26.4476,16.0005 25.9996,15.5525 25.9996,15.0005 L25.9996,0.5445 C25.4136,0.1995 24.7306,0.0005 23.9996,0.0005 C23.2696,0.0005 22.5866,0.1995 21.9996,0.5445 L21.9996,15.0005 C21.9996,15.5525 21.5526,16.0005 20.9996,16.0005 C20.4476,16.0005 19.9996,15.5525 19.9996,15.0005 L19.9996,1.5555 C19.4126,1.2065 18.7326,1.0005 17.9996,1.0005 C17.2686,1.0005 16.5906,1.2115 15.9996,1.5565 L15.9996,17.0005 C15.9996,17.5525 15.5526,18.0005 14.9996,18.0005 C14.4476,18.0005 13.9996,17.5525 13.9996,17.0005 L13.9996,6.5565 C13.4096,6.2115 12.7316,6.0005 11.9996,6.0005 C9.7936,6.0005 7.9996,7.7945 7.9996,10.0005 L7.9996,20.8095 C7.9996,27.2675 9.9356,31.7665 11.1836,34.0005 L37.3916,34.0005 C37.4226,33.9175 37.4596,33.8255 37.4846,33.7525 L41.8766,18.5045 C42.0356,17.8705 42.0416,17.2315 41.8956,16.6045" id="Fill-51"></path>
            <path d="M12.0075,36 L12.0485,41.476 C12.0485,42.868 13.1795,44 14.5715,44 L33.4765,44 C34.8685,44 36.0005,42.868 36.0005,41.476 L36.0005,36 L12.0075,36 Z" id="Fill-53"></path>
        </g>
    </g>
</svg>