<?xml version="1.0" encoding="UTF-8" standalone="no"?>
<svg width="44px" height="44px" viewBox="0 0 44 44" version="1.1" xmlns="http://www.w3.org/2000/svg" xmlns:xlink="http://www.w3.org/1999/xlink">
    <!-- Generator: Sketch 3.7.2 (28276) - http://www.bohemiancoding.com/sketch -->
    <title>clo-mannequin</title>
    <desc>Created with Sketch.</desc>
    <defs></defs>
    <g id="44px-Line" stroke="none" stroke-width="1" fill="none" fill-rule="evenodd">
        <g id="clo-mannequin"></g>
        <path d="M34,8 L34,5 C34,3.871 33.293,3.151 31.967,2.878 L28.198,1.817 C27.751,1.724 27.381,1.46 27.182,1.09 L26.881,0.528 C26.708,0.203 26.369,0 26,0 L20,0 C19.631,0 19.292,0.203 19.118,0.528 L18.818,1.09 C18.619,1.46 18.249,1.725 17.733,1.834 L14.101,2.861 C12.706,3.151 11.999,3.871 11.999,5 L11.999,8 C11.999,8.571 12.204,9.371 12.665,9.869 C13.603,10.881 14.999,13.082 14.999,15 C14.999,15.843 14.698,16.715 14.283,17.923 C13.374,20.565 12,24.558 12,33 C12,33.553 12.447,34 13,34 L22,34 L22,42 L17,42 C16.447,42 16,42.447 16,43 C16,43.553 16.447,44 17,44 L29,44 C29.553,44 30,43.553 30,43 C30,42.447 29.553,42 29,42 L24,42 L24,34 L33,34 C33.553,34 34,33.553 34,33 C34,24.558 32.626,20.565 31.716,17.923 C31.301,16.715 31,15.843 31,15 C31,13.082 32.396,10.881 33.335,9.868 C33.795,9.371 34,8.571 34,8 L34,8 Z M32,8 C32,8.193 31.916,8.446 31.867,8.51 C30.803,9.658 29,12.318 29,15 C29,16.177 29.364,17.235 29.825,18.574 C30.655,20.984 31.89,24.575 31.993,32 L14.007,32 C14.11,24.575 15.345,20.984 16.175,18.574 C16.636,17.235 17,16.177 17,15 C17,12.317 15.197,9.658 14.139,8.517 C14.084,8.447 14,8.194 14,8 L13.976,5 C13.986,4.99 14.085,4.908 14.577,4.804 L18.209,3.777 C19.237,3.563 20.103,2.929 20.582,2.035 L25.4,2 L25.42,2.035 C25.899,2.929 26.764,3.562 27.724,3.76 L31.493,4.821 C31.916,4.909 32.015,4.991 32.001,5.001 L32.001,8 L32,8 Z" id="Shape" fill="#000000"></path>
    </g>
</svg>