<?xml version="1.0" encoding="UTF-8" standalone="no"?>
<svg width="64px" height="64px" viewBox="0 0 64 64" version="1.1" xmlns="http://www.w3.org/2000/svg" xmlns:xlink="http://www.w3.org/1999/xlink">
    <!-- Generator: Sketch 3.7.2 (28276) - http://www.bohemiancoding.com/sketch -->
    <title>clo-trilby</title>
    <desc>Created with Sketch.</desc>
    <defs></defs>
    <g id="64px-Line" stroke="none" stroke-width="1" fill="none" fill-rule="evenodd">
        <g id="clo-trilby"></g>
        <path d="M11,36 L51,36 C54.86,36 58,32.86 58,29 C58,28.448 57.552,28 57,28 C56.448,28 56,28.448 56,29 C56,31.757 53.757,34 51,34 L49.806,34 C48.442,27.823 43.183,6 37,6 C34.105,6 32.527,7.67 31.374,8.89 C30.858,9.436 30.324,10 30,10 C29.663,10 29.103,9.42 28.562,8.86 C27.396,7.653 25.799,6 23,6 C16.786,6 13.078,27.719 12.136,34 L11,34 C8.243,34 6,31.757 6,29 C6,28.448 5.552,28 5,28 C4.448,28 4,28.448 4,29 C4,32.86 7.14,36 11,36 L11,36 Z M23,8 C24.95,8 26.055,9.144 27.123,10.25 C27.992,11.15 28.813,12 30,12 C31.186,12 32.021,11.117 32.828,10.263 C33.879,9.15 34.967,8 37,8 C38.665,8 41.937,13.047 45.194,24 L15.999,24 C18.461,13.047 21.351,8 23,8 L23,8 Z M15.568,26 L45.77,26 C46.442,28.409 47.108,31.074 47.756,34 L14.158,34 C14.596,31.074 15.071,28.409 15.568,26 L15.568,26 Z" id="Shape" fill="#000000"></path>
        <path d="M43.984,44.181 L35.937,47.527 C35.723,46.653 34.939,46 34,46 L28,46 C27.061,46 26.276,46.653 26.063,47.527 L17.949,44.156 C17.023,43.847 16.038,43.998 15.246,44.568 C14.454,45.138 14,46.026 14,47.002 L14,54.998 C14,55.974 14.454,56.861 15.246,57.432 C15.758,57.801 16.351,57.994 16.975,57.994 C17.316,57.994 17.665,57.936 18.016,57.819 L26.063,54.473 C26.277,55.347 27.061,56 28,56 L34,56 C34.939,56 35.724,55.347 35.937,54.473 L44.051,57.844 C44.367,57.949 44.69,58.001 45.009,58.001 C45.626,58.001 46.232,57.808 46.753,57.432 C47.545,56.862 47.999,55.974 47.999,54.998 L47.999,47.002 C47.999,46.026 47.545,45.139 46.753,44.568 C45.961,43.997 44.977,43.849 43.984,44.181 L43.984,44.181 Z M17.316,55.947 C17.009,56.046 16.68,56 16.416,55.809 C16.152,55.618 16,55.323 16,54.998 L16,47.002 C16,46.677 16.151,46.381 16.416,46.19 C16.679,46.001 17.007,45.95 17.249,46.028 L26,49.667 L26,52.332 L17.316,55.947 L17.316,55.947 Z M28,54 L28,53.007 L28,53.005 L28,48.996 L28,48.994 L28,48 L34,48 L34,48.993 L34,48.995 L34,53.004 L34,53.006 L34,54 L28,54 L28,54 Z M46,54.998 C46,55.323 45.849,55.619 45.584,55.81 C45.32,55.998 44.993,56.049 44.751,55.972 L36,52.332 L36,49.667 L44.684,46.052 C44.99,45.95 45.32,45.999 45.584,46.19 C45.848,46.38 46,46.676 46,47.002 L46,54.998 L46,54.998 Z" id="Shape" fill="#000000"></path>
    </g>
</svg>