<?xml version="1.0" encoding="UTF-8" standalone="no"?>
<svg width="64px" height="64px" viewBox="0 0 64 64" version="1.1" xmlns="http://www.w3.org/2000/svg" xmlns:xlink="http://www.w3.org/1999/xlink">
    <!-- Generator: Sketch 3.7.2 (28276) - http://www.bohemiancoding.com/sketch -->
    <title>clo-cloud-upload</title>
    <desc>Created with Sketch.</desc>
    <defs></defs>
    <g id="64px-Line" stroke="none" stroke-width="1" fill="none" fill-rule="evenodd">
        <g id="clo-cloud-upload"></g>
        <path d="M51.936,30.396 C51.979,29.932 52,29.465 52,29 C52,20.729 45.271,14 37,14 C30.897,14 25.372,17.782 23.1,23.354 C21.737,22.474 20.147,22 18.5,22 C13.813,22 10,25.813 10,30.5 C10,30.729 10.01,30.958 10.027,31.188 C6.342,33.053 4,36.826 4,41 C4,47.065 8.935,52 15,52 L49,52 C55.065,52 60,47.065 60,41 C60,36.014 56.661,31.696 51.936,30.396 L51.936,30.396 Z M49,50 L15,50 C10.037,50 6,45.962 6,41 C6,37.375 8.159,34.121 11.5,32.708 C11.928,32.527 12.175,32.075 12.096,31.617 C12.032,31.25 12,30.874 12,30.5 C12,26.916 14.916,24 18.5,24 C20.136,24 21.7,24.612 22.905,25.723 C23.158,25.957 23.516,26.043 23.847,25.952 C24.18,25.861 24.442,25.604 24.54,25.274 C26.171,19.814 31.295,16 37,16 C44.168,16 50,21.832 50,29 C50,29.673 49.947,30.351 49.844,31.014 C49.761,31.549 50.118,32.053 50.651,32.152 C54.909,32.939 58,36.66 58,41 C58,45.962 53.963,50 49,50 L49,50 Z" id="Shape" fill="#000000"></path>
        <path d="M33.708,24.294 C33.616,24.201 33.505,24.128 33.382,24.077 C33.138,23.976 32.862,23.976 32.618,24.077 C32.495,24.128 32.385,24.201 32.292,24.294 L26.293,30.293 C25.902,30.684 25.902,31.316 26.293,31.707 C26.684,32.098 27.316,32.098 27.707,31.707 L32,27.414 L32,45 C32,45.552 32.447,46 33,46 C33.553,46 34,45.552 34,45 L34,27.414 L38.293,31.707 C38.488,31.902 38.744,32 39,32 C39.256,32 39.512,31.902 39.707,31.707 C40.098,31.316 40.098,30.684 39.707,30.293 L33.708,24.294 L33.708,24.294 Z" id="Shape" fill="#000000"></path>
    </g>
</svg>