<?xml version="1.0" encoding="UTF-8" standalone="no"?>
<svg width="44px" height="44px" viewBox="0 0 44 44" version="1.1" xmlns="http://www.w3.org/2000/svg" xmlns:xlink="http://www.w3.org/1999/xlink">
    <!-- Generator: Sketch 3.7.2 (28276) - http://www.bohemiancoding.com/sketch -->
    <title>clo-mexican</title>
    <desc>Created with Sketch.</desc>
    <defs></defs>
    <g id="44px-Line" stroke="none" stroke-width="1" fill="none" fill-rule="evenodd">
        <g id="clo-mexican"></g>
        <path d="M43,16 L32,16 L32,9 C32,4.038 27.962,0 23,0 C18.038,0 14,4.038 14,9 L14,16 L3,16 C2.448,16 2,16.448 2,17 C2,22.047 5.953,26 11,26 L35,26 C40.047,26 44,22.047 44,17 C44,16.448 43.552,16 43,16 L43,16 Z M16,9 C16,5.14 19.14,2 23,2 C26.86,2 30,5.14 30,9 L30,16 L16,16 L16,9 L16,9 Z M35,24 L11,24 C7.415,24 4.54,21.435 4.068,18 L41.932,18 C41.46,21.435 38.585,24 35,24 L35,24 Z" id="Shape" fill="#000000"></path>
        <path d="M20.759,41.442 C21.522,40.467 21.936,40 23,40 C24.064,40 24.478,40.468 25.241,41.442 C26.087,42.521 27.246,44 30,44 C34.052,44 35.687,40.845 35.984,39.176 C36.075,38.669 35.765,38.178 35.269,38.039 C34.769,37.897 34.251,38.162 34.066,38.643 C33.853,39.195 33.171,40.333 32.429,40.333 C31.572,40.333 31.092,39.053 30.458,37.099 C29.721,34.827 28.804,32 26,32 C24.715,32 23.675,32.755 23,33.433 C22.325,32.755 21.285,32 20,32 C17.203,32 16.417,34.837 15.786,37.115 C15.247,39.058 14.832,40.333 14,40.333 C13.161,40.333 12.206,39.108 11.876,38.518 C11.64,38.088 11.126,37.895 10.667,38.058 C10.206,38.221 9.93,38.695 10.016,39.176 C10.314,40.845 11.948,44 16,44 C18.754,44 19.913,42.521 20.759,41.442 L20.759,41.442 Z M17.713,37.649 C18.342,35.379 18.81,34 20,34 C20.941,34 21.899,35.144 22.159,35.541 C22.527,36.113 23.473,36.113 23.842,35.541 C24.099,35.141 25.047,34 26.001,34 C27.257,34 27.829,35.471 28.557,37.716 C29.084,39.34 29.663,41.127 30.925,41.918 C30.641,41.971 30.334,42 30,42 C28.219,42 27.6,41.209 26.815,40.208 C26.044,39.225 25.085,38 23,38 C20.915,38 19.956,39.225 19.185,40.208 C18.4,41.209 17.781,42 16,42 C15.796,42 15.603,41.989 15.418,41.969 C16.73,41.199 17.246,39.338 17.713,37.649 L17.713,37.649 Z" id="Shape" fill="#000000"></path>
    </g>
</svg>