<?xml version="1.0" encoding="UTF-8" standalone="no"?>
<svg width="44px" height="44px" viewBox="0 0 44 44" version="1.1" xmlns="http://www.w3.org/2000/svg" xmlns:xlink="http://www.w3.org/1999/xlink">
    <!-- Generator: Sketch 3.7.2 (28276) - http://www.bohemiancoding.com/sketch -->
    <title>clo-bra</title>
    <desc>Created with Sketch.</desc>
    <defs></defs>
    <g id="44px-Glyph" stroke="none" stroke-width="1" fill="none" fill-rule="evenodd">
        <g id="clo-bra" fill="#000000">
            <path d="M41.2892,18.3442 C40.8532,18.2652 40.4242,18.2012 40.0002,18.1482 L40.0002,9.0002 C40.0002,8.4482 39.5532,8.0002 39.0002,8.0002 C38.4472,8.0002 38.0002,8.4482 38.0002,9.0002 L38.0002,18.0092 C32.7622,17.9002 28.2752,20.0532 23.4862,24.8642 C23.0822,25.2702 22.5552,25.4942 22.0012,25.4942 L22.0002,25.4942 C21.4462,25.4942 20.9182,25.2702 20.5142,24.8642 C15.7262,20.0522 11.2372,17.8992 6.0002,18.0082 L6.0002,9.0002 C6.0002,8.4482 5.5532,8.0002 5.0002,8.0002 C4.4472,8.0002 4.0002,8.4482 4.0002,9.0002 L4.0002,18.1482 C3.5762,18.2002 3.1462,18.2652 2.7112,18.3442 C1.1412,18.6292 0.0002,20.0382 0.0002,21.6942 L0.0002,22.4272 C0.0002,30.1642 5.4452,36.0002 12.6672,36.0002 C16.1432,36.0002 19.7502,33.8722 22.0002,31.6482 C24.2492,33.8722 27.8572,36.0002 31.3332,36.0002 C38.5552,36.0002 44.0002,30.1642 44.0002,22.4272 L44.0002,21.6942 C44.0002,20.0382 42.8592,18.6292 41.2892,18.3442" id="Fill-180"></path>
        </g>
    </g>
</svg>