<?xml version="1.0" encoding="UTF-8" standalone="no"?>
<svg width="44px" height="44px" viewBox="0 0 44 44" version="1.1" xmlns="http://www.w3.org/2000/svg" xmlns:xlink="http://www.w3.org/1999/xlink">
    <!-- Generator: Sketch 3.7.2 (28276) - http://www.bohemiancoding.com/sketch -->
    <title>clo-shirt-folded</title>
    <desc>Created with Sketch.</desc>
    <defs></defs>
    <g id="44px-Line" stroke="none" stroke-width="1" fill="none" fill-rule="evenodd">
        <g id="clo-shirt-folded"></g>
        <path d="M4,44 L38,44 C40.206,44 42,42.206 42,40 L42,10.889 C42,8.925 40.879,7.301 39.24,6.856 L33.587,5.134 L29.78,0.376 C29.755,0.344 29.715,0.33 29.687,0.302 C29.642,0.258 29.609,0.205 29.554,0.169 C29.532,0.154 29.506,0.153 29.483,0.14 C29.433,0.112 29.382,0.095 29.328,0.076 C29.244,0.046 29.163,0.025 29.076,0.019 C29.05,0.015 29.027,0 29,0 L13,0 C12.973,0 12.95,0.015 12.924,0.017 C12.838,0.024 12.756,0.045 12.672,0.074 C12.618,0.093 12.567,0.11 12.517,0.138 C12.494,0.151 12.468,0.152 12.446,0.167 C12.392,0.203 12.358,0.256 12.313,0.3 C12.284,0.328 12.245,0.342 12.22,0.374 L8.413,5.132 L2.762,6.853 C1.162,7.337 0,9.034 0,10.887 L0,40 C0,42.206 1.794,44 4,44 L4,44 Z M40,10.889 L40,40 C40,41.103 39.103,42 38,42 L22,42 L22,14.869 L29.336,19.76 C29.839,20.095 30.418,20.264 31,20.264 C31.485,20.264 31.972,20.146 32.417,19.908 C33.394,19.385 34.001,18.372 34.001,17.263 L34.001,7.35 L38.688,8.777 C39.594,9.023 40,10.015 40,10.889 L40,10.889 Z M10,6.35 L12.927,2.692 L19.614,12.722 L11.555,18.095 C11.105,18.395 10.686,18.229 10.528,18.144 C10.369,18.059 10,17.803 10,17.263 L10,6.35 L10,6.35 Z M32,6.35 L32,17.263 C32,17.804 31.631,18.059 31.472,18.144 C31.314,18.23 30.896,18.396 30.445,18.095 L22.386,12.722 L29.073,2.692 L32,6.35 L32,6.35 Z M21,11.197 L14.868,2 L27.131,2 L21,11.197 L21,11.197 Z M2,10.889 C2,9.928 2.589,8.997 3.343,8.769 L8,7.35 L8,17.263 C8,18.371 8.607,19.385 9.584,19.908 C10.029,20.146 10.515,20.264 11.001,20.264 C11.582,20.264 12.162,20.095 12.665,19.76 L20.001,14.869 L20.001,42 L4.001,42 C2.898,42 2.001,41.103 2.001,40 L2.001,10.889 L2,10.889 Z" id="Shape" fill="#000000"></path>
    </g>
</svg>