<?xml version="1.0" encoding="UTF-8" standalone="no"?>
<svg width="64px" height="64px" viewBox="0 0 64 64" version="1.1" xmlns="http://www.w3.org/2000/svg" xmlns:xlink="http://www.w3.org/1999/xlink">
    <!-- Generator: Sketch 3.7.2 (28276) - http://www.bohemiancoding.com/sketch -->
    <title>clo-cloud-warning</title>
    <desc>Created with Sketch.</desc>
    <defs></defs>
    <g id="64px-Line" stroke="none" stroke-width="1" fill="none" fill-rule="evenodd">
        <g id="clo-cloud-warning"></g>
        <path d="M45.572,40.842 L35.895,25.452 C35.227,24.543 34.144,24 33,24 C31.855,24 30.773,24.543 30.062,25.514 L20.427,40.842 C20.403,40.88 20.381,40.92 20.363,40.961 C20.302,41.095 20,41.799 20,42.5 C20,44.43 21.603,46 23.571,46 L42.428,46 C44.397,46 45.999,44.43 45.999,42.5 C45.999,41.799 45.696,41.095 45.636,40.961 C45.618,40.92 45.597,40.88 45.572,40.842 L45.572,40.842 Z M42.429,44 L23.572,44 C22.706,44 22.001,43.327 22.001,42.5 C22.001,42.315 22.091,42.021 22.164,41.84 L31.715,26.638 C32.01,26.238 32.49,26 33.001,26 C33.512,26 33.992,26.239 34.245,26.578 L43.838,41.839 C43.912,42.023 44.001,42.316 44.001,42.5 C44,43.327 43.295,44 42.429,44 L42.429,44 Z" id="Shape" fill="#000000"></path>
        <path d="M33,30 C32.447,30 32,30.448 32,31 L32,37 C32,37.553 32.447,38 33,38 C33.553,38 34,37.553 34,37 L34,31 C34,30.448 33.553,30 33,30 L33,30 Z" id="Shape" fill="#000000"></path>
        <path d="M33.71,40.29 C33.43,40.01 32.98,39.92 32.62,40.08 C32.49,40.13 32.38,40.2 32.29,40.29 C32.2,40.39 32.13,40.5 32.08,40.62 C32.019,40.74 32,40.87 32,41 C32,41.13 32.02,41.26 32.069,41.38 C32.13,41.5 32.2,41.609 32.29,41.71 C32.39,41.8 32.5,41.87 32.62,41.92 C32.74,41.97 32.87,42 33,42 C33.27,42 33.52,41.899 33.71,41.71 C33.8,41.609 33.87,41.5 33.92,41.38 C33.97,41.26 34,41.13 34,41 C34,40.87 33.97,40.74 33.92,40.62 C33.87,40.5 33.8,40.39 33.71,40.29 L33.71,40.29 Z" id="Shape" fill="#000000"></path>
        <path d="M51.936,30.396 C51.979,29.932 52,29.465 52,29 C52,20.729 45.271,14 37,14 C30.897,14 25.372,17.782 23.1,23.354 C21.737,22.474 20.147,22 18.5,22 C13.813,22 10,25.813 10,30.5 C10,30.729 10.01,30.958 10.027,31.188 C6.342,33.054 4,36.826 4,41 C4,47.065 8.935,52 15,52 L49,52 C55.065,52 60,47.065 60,41 C60,36.015 56.661,31.696 51.936,30.396 L51.936,30.396 Z M49,50 L15,50 C10.037,50 6,45.963 6,41 C6,37.375 8.159,34.12 11.5,32.708 C11.928,32.527 12.175,32.075 12.096,31.617 C12.033,31.25 12,30.874 12,30.5 C12,26.916 14.916,24 18.5,24 C20.136,24 21.7,24.612 22.905,25.723 C23.158,25.957 23.515,26.044 23.847,25.952 C24.18,25.861 24.442,25.604 24.54,25.274 C26.17,19.814 31.294,16 36.999,16 C44.167,16 49.999,21.832 49.999,29 C49.999,29.673 49.946,30.351 49.843,31.014 C49.76,31.549 50.117,32.053 50.65,32.152 C54.909,32.94 58,36.661 58,41.001 C58,45.963 53.963,50 49,50 L49,50 Z" id="Shape" fill="#000000"></path>
    </g>
</svg>