<?xml version="1.0" encoding="UTF-8" standalone="no"?>
<svg width="64px" height="64px" viewBox="0 0 64 64" version="1.1" xmlns="http://www.w3.org/2000/svg" xmlns:xlink="http://www.w3.org/1999/xlink">
    <!-- Generator: Sketch 3.7.2 (28276) - http://www.bohemiancoding.com/sketch -->
    <title>clo-t-hanger</title>
    <desc>Created with Sketch.</desc>
    <defs></defs>
    <g id="64px-Line" stroke="none" stroke-width="1" fill="none" fill-rule="evenodd">
        <g id="clo-t-hanger"></g>
        <path d="M24,17 C24,16.674 23.841,16.369 23.574,16.182 C23.308,15.995 22.966,15.949 22.66,16.06 L17.513,17.918 C15.438,18.748 13.685,20.17 12.446,22.03 L6.169,31.446 C6.019,31.671 5.967,31.947 6.023,32.211 C6.079,32.475 6.242,32.705 6.47,32.849 L14.47,37.849 C14.929,38.134 15.532,38.005 15.832,37.556 L18,34.304 L18,57 C18,57.552 18.447,58 19,58 L43,58 C43.553,58 44,57.552 44,57 L44,34.303 L46.168,37.555 C46.468,38.004 47.068,38.134 47.53,37.848 L55.53,32.848 C55.759,32.704 55.921,32.474 55.977,32.21 C56.033,31.946 55.982,31.67 55.831,31.445 L49.554,22.029 C48.315,20.169 46.562,18.747 44.455,17.905 L39.339,16.058 C39.032,15.947 38.691,15.993 38.425,16.18 C38.159,16.369 38,16.674 38,17 C38,19.757 34.859,22 31,22 C27.141,22 24,19.757 24,17 L24,17 Z M39.829,18.362 L43.745,19.775 C45.442,20.454 46.876,21.617 47.891,23.139 L53.597,31.698 L47.293,35.637 L43.832,30.445 C43.588,30.078 43.131,29.913 42.71,30.043 C42.288,30.17 42,30.56 42,31 L42,56 L20,56 L20,31 C20,30.56 19.712,30.17 19.29,30.043 C18.87,29.914 18.412,30.079 18.168,30.445 L14.707,35.637 L8.403,31.698 L14.109,23.139 C15.124,21.617 16.557,20.454 18.223,19.787 L22.17,18.362 C22.987,21.572 26.636,24 30.999,24 C35.362,24 39.012,21.572 39.829,18.362 L39.829,18.362 Z" id="Shape" fill="#000000"></path>
        <path d="M31,12 C30.447,12 30,12.448 30,13 L30,16 L27,16 C26.447,16 26,16.448 26,17 C26,17.552 26.447,18 27,18 L35,18 C35.553,18 36,17.552 36,17 C36,16.448 35.553,16 35,16 L32,16 L32,13.899 C34.279,13.434 36,11.415 36,9 C36,6.243 33.757,4 31,4 C28.243,4 26,6.243 26,9 C26,9.552 26.447,10 27,10 C27.553,10 28,9.552 28,9 C28,7.346 29.346,6 31,6 C32.654,6 34,7.346 34,9 C34,10.654 32.654,12 31,12 L31,12 Z" id="Shape" fill="#000000"></path>
    </g>
</svg>