<?xml version="1.0" encoding="UTF-8" standalone="no"?>
<svg width="64px" height="64px" viewBox="0 0 64 64" version="1.1" xmlns="http://www.w3.org/2000/svg" xmlns:xlink="http://www.w3.org/1999/xlink">
    <!-- Generator: Sketch 3.7.2 (28276) - http://www.bohemiancoding.com/sketch -->
    <title>clo-suit</title>
    <desc>Created with Sketch.</desc>
    <defs></defs>
    <g id="64px-Line" stroke="none" stroke-width="1" fill="none" fill-rule="evenodd">
        <g id="clo-suit"></g>
        <path d="M48.658,12.753 L43.595,10.181 L39.707,6.293 C39.668,6.254 39.615,6.234 39.571,6.202 C39.528,6.171 39.496,6.13 39.448,6.106 C39.437,6.101 39.425,6.102 39.413,6.097 C39.349,6.068 39.281,6.058 39.212,6.043 C39.152,6.03 39.094,6.009 39.033,6.007 C39.022,6.007 39.012,6 39,6 L23,6 C22.989,6 22.979,6.006 22.967,6.006 C22.907,6.008 22.849,6.028 22.789,6.041 C22.72,6.056 22.651,6.066 22.587,6.095 C22.576,6.1 22.564,6.099 22.553,6.104 C22.504,6.128 22.472,6.17 22.43,6.2 C22.385,6.232 22.333,6.252 22.294,6.291 L18.439,10.145 L13.668,12.054 C10.328,13.233 8.211,15.704 8.003,18.677 L6.003,52.939 C5.986,53.214 6.085,53.484 6.274,53.684 C6.463,53.884 6.726,53.997 7.002,53.997 L14.002,53.997 L14.002,56.997 C14.002,57.55 14.449,57.997 15.002,57.997 L47.002,57.997 C47.555,57.997 48.002,57.55 48.002,56.997 L48.002,53.997 L55.002,53.997 C55.277,53.997 55.541,53.884 55.73,53.683 C55.919,53.483 56.017,53.213 56.001,52.939 L53.999,18.913 C53.679,15.187 50.987,13.661 48.658,12.753 L48.658,12.753 Z M37.2,19.6 L39.725,22.968 L31.999,32.238 L31.999,23.237 L39.273,8.689 L41.999,11.415 L41.999,18 L37.999,18 C37.62,18 37.274,18.214 37.104,18.553 C36.937,18.892 36.973,19.297 37.2,19.6 L37.2,19.6 Z M24.895,18.553 C24.725,18.214 24.379,18 24,18 L20,18 L20,11.414 L22.726,8.688 L30,23.236 L30,32.237 L22.274,22.967 L24.799,19.599 C25.027,19.297 25.063,18.892 24.895,18.553 L24.895,18.553 Z M31,20.764 L24.618,8 L37.382,8 L31,20.764 L31,20.764 Z M16,25 C16,24.447 15.553,24 15,24 C14.447,24 14,24.447 14,25 L14,52 L8.061,52 L9.998,18.809 C10.15,16.635 11.731,14.862 14.372,13.929 L18.001,12.477 L18.001,19 C18.001,19.553 18.448,20 19.001,20 L22.001,20 L20.201,22.4 C19.923,22.77 19.935,23.284 20.232,23.64 L30,35.363 L30,56 L16,56 L16,25 L16,25 Z M48,52 L48,25 C48,24.447 47.553,24 47,24 C46.447,24 46,24.447 46,25 L46,56 L32,56 L32,35.363 L41.769,23.641 C42.066,23.285 42.079,22.771 41.8,22.401 L40,20 L43,20 C43.553,20 44,19.553 44,19 L44,12.63 L47.797,14.559 C47.827,14.575 47.858,14.588 47.889,14.6 C50.667,15.675 51.821,16.933 52.002,19.059 L53.939,52 L48,52 L48,52 Z" id="Shape" fill="#000000"></path>
        <path d="M25,46 L19,46 C18.447,46 18,46.447 18,47 C18,47.553 18.447,48 19,48 L25,48 C25.553,48 26,47.553 26,47 C26,46.447 25.553,46 25,46 L25,46 Z" id="Shape" fill="#000000"></path>
        <path d="M43,46 L37,46 C36.447,46 36,46.447 36,47 C36,47.553 36.447,48 37,48 L43,48 C43.553,48 44,47.553 44,47 C44,46.447 43.553,46 43,46 L43,46 Z" id="Shape" fill="#000000"></path>
    </g>
</svg>