<?xml version="1.0" encoding="UTF-8" standalone="no"?>
<svg width="44px" height="44px" viewBox="0 0 44 44" version="1.1" xmlns="http://www.w3.org/2000/svg" xmlns:xlink="http://www.w3.org/1999/xlink">
    <!-- Generator: Sketch 3.7.2 (28276) - http://www.bohemiancoding.com/sketch -->
    <title>clo-belt</title>
    <desc>Created with Sketch.</desc>
    <defs></defs>
    <g id="44px-Glyph" stroke="none" stroke-width="1" fill="none" fill-rule="evenodd">
        <g id="clo-belt" fill="#000000">
            <path d="M29.9102,27.8948 C29.8692,27.7358 29.8092,27.5858 29.7402,27.4408 C29.7202,27.3998 29.6952,27.3628 29.6742,27.3238 C29.6162,27.2178 29.5532,27.1158 29.4812,27.0198 C29.4582,26.9898 29.4342,26.9598 29.4102,26.9308 C29.3142,26.8148 29.2122,26.7048 29.0972,26.6078 C29.0952,26.6058 29.0932,26.6048 29.0922,26.6028 C28.9612,26.4928 28.8192,26.3958 28.6672,26.3138 C28.6712,26.3128 28.6742,26.3108 28.6782,26.3098 C28.3202,26.1128 27.9102,25.9998 27.4732,25.9998 L16.5272,25.9998 C16.0902,25.9998 15.6802,26.1118 15.3232,26.3088 C15.3272,26.3108 15.3302,26.3118 15.3342,26.3138 C15.1822,26.3958 15.0402,26.4928 14.9092,26.6018 C14.9072,26.6038 14.9062,26.6058 14.9042,26.6068 C14.7892,26.7038 14.6862,26.8148 14.5902,26.9308 C14.5662,26.9598 14.5422,26.9888 14.5192,27.0198 C14.4472,27.1148 14.3842,27.2168 14.3262,27.3228 C14.3052,27.3618 14.2802,27.3998 14.2602,27.4408 C14.1912,27.5858 14.1312,27.7358 14.0902,27.8948 C7.8952,26.3868 4.0732,23.2948 4.0732,19.7228 C4.0732,17.6958 5.3002,15.7968 7.6192,14.2318 C8.0452,13.9438 8.6192,14.0578 8.9062,14.4808 C9.1922,14.9048 9.0802,15.4818 8.6562,15.7678 C7.4112,16.6078 5.9272,17.9758 5.9272,19.7228 C5.9272,20.2538 6.0752,20.7818 6.3492,21.2968 C8.9332,18.1528 15.1872,15.9998 22.0002,15.9998 C28.8152,15.9998 35.0682,18.1528 37.6512,21.2968 C37.9242,20.7818 38.0732,20.2538 38.0732,19.7228 C38.0732,17.9758 36.5902,16.6088 35.3452,15.7688 C34.9212,15.4828 34.8092,14.9068 35.0952,14.4828 C35.3822,14.0588 35.9562,13.9458 36.3822,14.2328 C38.7012,15.7968 39.9272,17.6948 39.9272,19.7228 C39.9272,23.2948 36.1052,26.3868 29.9102,27.8948 L29.9102,27.8948 Z M28.0002,37.4728 C28.0002,37.7638 27.7642,37.9998 27.4732,37.9998 L16.5272,37.9998 C16.2362,37.9998 16.0002,37.7638 16.0002,37.4728 L16.0002,33.9998 L21.0002,33.9998 C21.5532,33.9998 22.0002,33.5518 22.0002,32.9998 C22.0002,32.4478 21.5532,31.9998 21.0002,31.9998 L16.0002,31.9998 L16.0002,28.5268 C16.0002,28.2358 16.2362,27.9998 16.5272,27.9998 L27.4732,27.9998 C27.7642,27.9998 28.0002,28.2358 28.0002,28.5268 L28.0002,37.4728 Z M44.0002,19.4438 C44.0002,12.0308 34.1312,5.9998 22.0002,5.9998 C9.8692,5.9998 0.0002,12.0308 0.0002,19.4438 L0.0012,25.2638 C0.0012,30.8468 5.6122,35.8158 14.0332,37.7978 C14.1942,39.0368 15.2452,39.9998 16.5272,39.9998 L27.4732,39.9998 C28.7542,39.9998 29.8052,39.0378 29.9672,37.7988 C38.3902,35.8168 44.0012,30.8468 44.0012,25.2638 L44.0002,19.4438 Z" id="Fill-25"></path>
        </g>
    </g>
</svg>