<?xml version="1.0" encoding="UTF-8" standalone="no"?>
<svg width="64px" height="64px" viewBox="0 0 64 64" version="1.1" xmlns="http://www.w3.org/2000/svg" xmlns:xlink="http://www.w3.org/1999/xlink">
    <!-- Generator: Sketch 3.7.2 (28276) - http://www.bohemiancoding.com/sketch -->
    <title>clo-servers-network</title>
    <desc>Created with Sketch.</desc>
    <defs></defs>
    <g id="64px-Line" stroke="none" stroke-width="1" fill="none" fill-rule="evenodd">
        <g id="clo-servers-network"></g>
        <path d="M8,16 L26,16 C28.206,16 30,14.206 30,12 C30,9.794 28.206,8 26,8 L8,8 C5.794,8 4,9.794 4,12 C4,14.206 5.794,16 8,16 L8,16 Z M8,10 L26,10 C27.103,10 28,10.897 28,12 C28,13.103 27.103,14 26,14 L8,14 C6.897,14 6,13.103 6,12 C6,10.897 6.897,10 8,10 L8,10 Z" id="Shape" fill="#000000"></path>
        <path d="M8,26 L26,26 C28.206,26 30,24.206 30,22 C30,19.794 28.206,18 26,18 L8,18 C5.794,18 4,19.794 4,22 C4,24.206 5.794,26 8,26 L8,26 Z M8,20 L26,20 C27.103,20 28,20.897 28,22 C28,23.103 27.103,24 26,24 L8,24 C6.897,24 6,23.103 6,22 C6,20.897 6.897,20 8,20 L8,20 Z" id="Shape" fill="#000000"></path>
        <path d="M56,8 L38,8 C35.794,8 34,9.794 34,12 C34,14.206 35.794,16 38,16 L56,16 C58.206,16 60,14.206 60,12 C60,9.794 58.206,8 56,8 L56,8 Z M56,14 L38,14 C36.897,14 36,13.103 36,12 C36,10.897 36.897,10 38,10 L56,10 C57.103,10 58,10.897 58,12 C58,13.103 57.103,14 56,14 L56,14 Z" id="Shape" fill="#000000"></path>
        <path d="M56,18 L38,18 C35.794,18 34,19.794 34,22 C34,24.206 35.794,26 38,26 L56,26 C58.206,26 60,24.206 60,22 C60,19.794 58.206,18 56,18 L56,18 Z M56,24 L38,24 C36.897,24 36,23.103 36,22 C36,20.897 36.897,20 38,20 L56,20 C57.103,20 58,20.897 58,22 C58,23.103 57.103,24 56,24 L56,24 Z" id="Shape" fill="#000000"></path>
        <path d="M56,36 C58.206,36 60,34.206 60,32 C60,29.794 58.206,28 56,28 L38,28 C35.794,28 34,29.794 34,32 C34,34.206 35.794,36 38,36 L44,36 L44,46 L41,46 C40.448,46 40,46.447 40,47 L40,48 L24,48 L24,47 C24,46.447 23.552,46 23,46 L20,46 L20,36 L26,36 C28.206,36 30,34.206 30,32 C30,29.794 28.206,28 26,28 L8,28 C5.794,28 4,29.794 4,32 C4,34.206 5.794,36 8,36 L14,36 L14,46 L11,46 C10.448,46 10,46.447 10,47 L10,48 L5,48 C4.448,48 4,48.447 4,49 C4,49.553 4.448,50 5,50 L10,50 L10,52 L5,52 C4.448,52 4,52.447 4,53 C4,53.553 4.448,54 5,54 L10,54 L10,55 C10,55.553 10.448,56 11,56 L23,56 C23.552,56 24,55.553 24,55 L24,54 L40,54 L40,55 C40,55.553 40.448,56 41,56 L53,56 C53.552,56 54,55.553 54,55 L54,54 L59,54 C59.552,54 60,53.553 60,53 C60,52.447 59.552,52 59,52 L54,52 L54,50 L59,50 C59.552,50 60,49.553 60,49 C60,48.447 59.552,48 59,48 L54,48 L54,47 C54,46.447 53.552,46 53,46 L50,46 L50,36 L56,36 L56,36 Z M36,32 C36,30.897 36.897,30 38,30 L56,30 C57.103,30 58,30.897 58,32 C58,33.103 57.103,34 56,34 L38,34 C36.897,34 36,33.103 36,32 L36,32 Z M6,32 C6,30.897 6.897,30 8,30 L26,30 C27.103,30 28,30.897 28,32 C28,33.103 27.103,34 26,34 L8,34 C6.897,34 6,33.103 6,32 L6,32 Z M16,36 L18,36 L18,46 L16,46 L16,36 L16,36 Z M22,54 L12,54 L12,48 L22,48 L22,54 L22,54 Z M24,52 L24,50 L40,50 L40,52 L24,52 L24,52 Z M52,54 L42,54 L42,48 L52,48 L52,54 L52,54 Z M48,46 L46,46 L46,36 L48,36 L48,46 L48,46 Z" id="Shape" fill="#000000"></path>
    </g>
</svg>