<?xml version="1.0" encoding="UTF-8" standalone="no"?>
<svg width="64px" height="64px" viewBox="0 0 64 64" version="1.1" xmlns="http://www.w3.org/2000/svg" xmlns:xlink="http://www.w3.org/1999/xlink">
    <!-- Generator: Sketch 3.7.2 (28276) - http://www.bohemiancoding.com/sketch -->
    <title>clo-cloud-wifi</title>
    <desc>Created with Sketch.</desc>
    <defs></defs>
    <g id="64px-Line" stroke="none" stroke-width="1" fill="none" fill-rule="evenodd">
        <g id="clo-cloud-wifi"></g>
        <path d="M17,38 L46,38 C51.514,38 56,33.514 56,28 C56,24.007 53.617,20.409 49.999,18.832 C49.908,11.741 44.112,6 37,6 C31.924,6 27.375,8.932 25.247,13.435 C24.039,12.511 22.554,12 21,12 C17.14,12 14,15.14 14,19 C14,19.495 14.051,19.983 14.152,20.46 C10.531,21.669 8,25.103 8,29 C8,33.962 12.038,38 17,38 L17,38 Z M15.524,22.156 C15.596,22.147 15.669,22.13 15.74,22.104 C16.251,21.92 16.521,21.359 16.349,20.844 C16.342,20.822 16.333,20.801 16.325,20.78 C16.109,20.212 16,19.613 16,19 C16,16.243 18.243,14 21,14 C22.487,14 23.884,14.655 24.839,15.797 C24.928,15.909 25.042,16.004 25.177,16.071 C25.6,16.282 26.113,16.168 26.407,15.799 C26.495,15.688 26.556,15.564 26.591,15.434 C28.114,10.985 32.289,8 37,8 C43.065,8 48,12.935 48,19 C48,19.16 47.996,19.32 47.992,19.48 C47.979,19.915 48.249,20.308 48.659,20.452 C51.854,21.577 54,24.61 54,28 C54,32.411 50.411,36 46,36 L17,36 C13.14,36 10,32.86 10,29 C10,25.709 12.318,22.844 15.524,22.156 L15.524,22.156 Z" id="Shape" fill="#000000"></path>
        <path d="M18.566,45.021 C18.175,45.411 18.175,46.044 18.566,46.435 C22.154,50.023 26.925,52 32,52 C37.125,52 41.93,49.99 45.53,46.339 C45.918,45.946 45.913,45.313 45.52,44.925 C45.126,44.537 44.493,44.542 44.106,44.935 C40.885,48.201 36.585,50 32,50 C27.459,50 23.191,48.231 19.98,45.021 C19.59,44.63 18.957,44.63 18.566,45.021 L18.566,45.021 Z" id="Shape" fill="#000000"></path>
        <path d="M41.192,42.192 C41.583,41.801 41.583,41.169 41.192,40.778 C40.801,40.387 40.169,40.387 39.778,40.778 C35.489,45.066 28.51,45.066 24.221,40.778 C23.83,40.387 23.198,40.387 22.807,40.778 C22.416,41.169 22.416,41.801 22.807,42.192 C25.341,44.726 28.67,45.993 31.999,45.993 C35.328,45.993 38.658,44.727 41.192,42.192 L41.192,42.192 Z" id="Shape" fill="#000000"></path>
        <path d="M15.029,49.557 C14.638,49.948 14.638,50.58 15.029,50.971 C19.708,55.65 25.854,57.989 32,57.989 C38.146,57.989 44.292,55.65 48.971,50.971 C49.362,50.58 49.362,49.948 48.971,49.557 C48.58,49.166 47.948,49.166 47.557,49.557 C38.979,58.134 25.022,58.134 16.444,49.557 C16.053,49.166 15.42,49.166 15.029,49.557 L15.029,49.557 Z" id="Shape" fill="#000000"></path>
    </g>
</svg>