<?xml version="1.0" encoding="UTF-8" standalone="no"?>
<svg width="44px" height="44px" viewBox="0 0 44 44" version="1.1" xmlns="http://www.w3.org/2000/svg" xmlns:xlink="http://www.w3.org/1999/xlink">
    <!-- Generator: Sketch 3.7.2 (28276) - http://www.bohemiancoding.com/sketch -->
    <title>clo-flip-flops</title>
    <desc>Created with Sketch.</desc>
    <defs></defs>
    <g id="44px-Glyph" stroke="none" stroke-width="1" fill="none" fill-rule="evenodd">
        <g id="clo-flip-flops" fill="#000000">
            <path d="M39.7272,22 C39.1752,22 38.7272,21.552 38.7272,21 C38.7272,16.092 34.6092,11.814 33.0042,10.333 C31.7562,11.569 29.0002,14.982 29.0002,21 C29.0002,21.552 28.5522,22 28.0002,22 C27.4482,22 27.0002,21.552 27.0002,21 C27.0002,13.622 30.7502,9.656 32.0002,8.537 L32.0002,6 C32.0002,5.448 32.4482,5 33.0002,5 C33.5522,5 34.0002,5.448 34.0002,6 L34.0002,8.536 C35.4762,9.824 40.7272,14.839 40.7272,21 C40.7272,21.552 40.2792,22 39.7272,22 M41.5452,29 C41.5452,27.736 41.9032,26.21 42.3552,24.277 C43.0882,21.148 44.0002,17.253 44.0002,12 C44.0002,2.933 35.9152,0 32.0002,0 C28.3512,0 24.0002,2.255 24.0002,13 C24.0002,19.454 25.0082,22.926 25.7442,25.462 C26.1572,26.882 26.4542,27.908 26.4542,29 C26.4542,30.521 26.2762,31.33 26.0872,32.185 C25.8752,33.141 25.6362,34.225 25.6362,36.28 C25.6362,40.83 30.0442,44 34.0002,44 C37.9562,44 42.3642,40.83 42.3642,36.28 C42.3642,34.245 42.1382,33.242 41.9192,32.273 C41.7272,31.42 41.5452,30.616 41.5452,29" id="Fill-403"></path>
            <path d="M16.0001,22 C15.4481,22 15.0001,21.552 15.0001,21 C15.0001,15.023 12.2361,11.582 10.9931,10.337 C9.3861,11.825 5.2731,16.11 5.2731,21 C5.2731,21.552 4.8251,22 4.2731,22 C3.7211,22 3.2731,21.552 3.2731,21 C3.2731,14.839 8.5241,9.824 10.0001,8.536 L10.0001,6 C10.0001,5.448 10.4481,5 11.0001,5 C11.5521,5 12.0001,5.448 12.0001,6 L12.0001,8.537 C13.2501,9.656 17.0001,13.622 17.0001,21 C17.0001,21.552 16.5521,22 16.0001,22 M17.5451,29 C17.5451,27.908 17.8431,26.882 18.2561,25.462 C18.9921,22.926 20.0001,19.454 20.0001,13 C20.0001,2.255 15.6491,0 12.0001,0 C8.0851,0 0.0001,2.933 0.0001,12 C0.0001,17.253 0.9121,21.148 1.6451,24.277 C2.0971,26.21 2.4551,27.736 2.4551,29 C2.4551,30.616 2.2731,31.42 2.0811,32.273 C1.8621,33.242 1.6361,34.245 1.6361,36.28 C1.6361,40.83 6.0441,44 10.0001,44 C13.9561,44 18.3641,40.83 18.3641,36.28 C18.3641,34.225 18.1241,33.141 17.9131,32.185 C17.7241,31.33 17.5451,30.521 17.5451,29" id="Fill-405"></path>
        </g>
    </g>
</svg>