<?xml version="1.0" encoding="UTF-8" standalone="no"?>
<svg width="64px" height="64px" viewBox="0 0 64 64" version="1.1" xmlns="http://www.w3.org/2000/svg" xmlns:xlink="http://www.w3.org/1999/xlink">
    <!-- Generator: Sketch 3.7.2 (28276) - http://www.bohemiancoding.com/sketch -->
    <title>clo-v-neck</title>
    <desc>Created with Sketch.</desc>
    <defs></defs>
    <g id="64px-Line" stroke="none" stroke-width="1" fill="none" fill-rule="evenodd">
        <g id="clo-v-neck"></g>
        <path d="M57.98,23.196 C58.032,22.936 57.979,22.666 57.832,22.445 L51.555,13.029 C50.316,11.169 48.563,9.747 46.488,8.917 L39.39,6.078 L39.39,6.078 L39.372,6.071 C39.265,6.028 39.153,6.012 39.04,6.008 C39.025,6.007 39.014,6 39,6 C38.988,6 38.978,6.006 38.966,6.007 C38.851,6.011 38.738,6.032 38.63,6.075 C38.61,6.083 38.593,6.094 38.574,6.104 C38.529,6.126 38.482,6.144 38.44,6.172 C38.414,6.19 38.4,6.218 38.376,6.237 C38.322,6.281 38.276,6.329 38.233,6.383 C38.194,6.431 38.161,6.479 38.132,6.534 C38.101,6.592 38.078,6.652 38.059,6.717 C38.048,6.752 38.025,6.782 38.018,6.818 C37.537,7.245 35.075,8 31,8 C26.925,8 24.463,7.245 23.983,6.818 C23.976,6.782 23.953,6.752 23.942,6.717 C23.922,6.652 23.9,6.592 23.869,6.534 C23.84,6.48 23.806,6.432 23.768,6.384 C23.724,6.33 23.679,6.282 23.625,6.238 C23.601,6.218 23.587,6.19 23.561,6.173 C23.518,6.144 23.472,6.126 23.426,6.104 C23.407,6.095 23.391,6.084 23.371,6.076 C23.262,6.032 23.148,6.011 23.032,6.008 C23.021,6.008 23.012,6.002 23,6.002 C22.987,6.002 22.976,6.009 22.964,6.009 C22.85,6.013 22.737,6.03 22.629,6.073 L22.611,6.08 L22.611,6.08 L15.513,8.919 C13.438,9.749 11.685,11.171 10.446,13.031 L4.169,22.447 C4.022,22.668 3.969,22.938 4.021,23.198 C4.073,23.458 4.226,23.687 4.447,23.834 L13.447,29.834 C13.888,30.127 14.484,30.025 14.801,29.602 L16.001,28.002 L16.001,57.002 C16.001,57.554 16.448,58.002 17.001,58.002 L45.001,58.002 C45.554,58.002 46.001,57.554 46.001,57.002 L46.001,28.002 L47.201,29.602 C47.518,30.025 48.112,30.127 48.555,29.834 L57.555,23.834 C57.775,23.685 57.929,23.456 57.98,23.196 L57.98,23.196 Z M37.621,9.177 C36.403,12.947 32.502,16.471 30.997,17.721 C29.488,16.48 25.58,12.976 24.371,9.174 C26.704,9.94 30.049,10 31,10 C31.95,10 35.289,9.94 37.621,9.177 L37.621,9.177 Z M48.232,27.643 L45.8,24.4 C45.542,24.056 45.094,23.915 44.684,24.051 C44.275,24.188 44,24.569 44,25 L44,56 L18,56 L18,25 C18,24.569 17.725,24.188 17.316,24.051 C16.908,23.915 16.459,24.056 16.2,24.4 L13.767,27.643 L6.386,22.723 L12.109,14.14 C13.124,12.618 14.557,11.455 16.255,10.776 L22.136,8.423 C23.156,14.35 30.086,19.567 30.404,19.804 C30.581,19.935 30.79,20 31,20 C31.211,20 31.422,19.933 31.6,19.8 C31.918,19.562 38.835,14.3 39.862,8.422 L45.746,10.776 C47.443,11.455 48.877,12.618 49.892,14.14 L55.615,22.723 L48.232,27.643 L48.232,27.643 Z" id="Shape" fill="#000000"></path>
    </g>
</svg>