<?xml version="1.0" encoding="UTF-8" standalone="no"?>
<svg width="64px" height="64px" viewBox="0 0 64 64" version="1.1" xmlns="http://www.w3.org/2000/svg" xmlns:xlink="http://www.w3.org/1999/xlink">
    <!-- Generator: Sketch 3.7.2 (28276) - http://www.bohemiancoding.com/sketch -->
    <title>clo-shorts</title>
    <desc>Created with Sketch.</desc>
    <defs></defs>
    <g id="64px-Glyph" stroke="none" stroke-width="1" fill="none" fill-rule="evenodd">
        <g id="clo-shorts" fill="#000000">
            <path d="M54.0001,18 L54.0001,13 C54.0001,12.448 53.5531,12 53.0001,12 L9.0001,12 C8.4471,12 8.0001,12.448 8.0001,13 L8.0001,18 L54.0001,18 Z" id="Fill-179"></path>
            <path d="M34.0001,31 L34.0001,20 L32.0001,20 L32.0001,33.816 C33.1611,33.402 34.0001,32.302 34.0001,31" id="Fill-180"></path>
            <path d="M50.0001,32 C46.2241,32 42.0001,29.006 42.0001,25 C42.0001,24.448 42.4471,24 43.0001,24 C43.5531,24 44.0001,24.448 44.0001,25 C44.0001,27.77 47.2821,30 50.0001,30 C50.5531,30 51.0001,30.448 51.0001,31 C51.0001,31.552 50.5531,32 50.0001,32 L50.0001,32 Z M12.0001,32 C11.4471,32 11.0001,31.552 11.0001,31 C11.0001,30.448 11.4471,30 12.0001,30 C14.7181,30 18.0001,27.77 18.0001,25 C18.0001,24.448 18.4471,24 19.0001,24 C19.5531,24 20.0001,24.448 20.0001,25 C20.0001,29.006 15.7761,32 12.0001,32 L12.0001,32 Z M54.1421,20 L36.0001,20 L36.0001,31 C36.0001,33.414 34.2791,35.434 32.0001,35.899 L32.0001,37 C32.0001,37.552 31.5531,38 31.0001,38 C30.4471,38 30.0001,37.552 30.0001,37 L30.0001,20 L7.8581,20 L4.0091,48.868 C3.9531,49.287 4.1671,49.696 4.5431,49.89 C4.9201,50.083 5.3771,50.018 5.6851,49.728 L7.9721,47.577 L9.4251,49.985 C9.5871,50.254 9.8651,50.431 10.1771,50.463 C10.4971,50.494 10.7981,50.38 11.0121,50.152 L12.8011,48.239 L14.1301,50.586 C14.2851,50.861 14.5601,51.046 14.8731,51.085 C15.1881,51.129 15.4991,51.016 15.7181,50.79 L17.7591,48.685 L19.2101,51.054 C19.3701,51.315 19.6431,51.489 19.9471,51.524 C20.2601,51.564 20.5581,51.453 20.7731,51.234 L22.7501,49.236 L24.1461,51.522 C24.3371,51.831 24.6851,52.017 25.0421,51.999 C25.4051,51.984 25.7311,51.772 25.8941,51.447 L31.0001,41.236 L36.1051,51.447 C36.2691,51.772 36.5951,51.984 36.9581,51.999 C36.9721,52 36.9861,52 37.0001,52 C37.3481,52 37.6711,51.819 37.8531,51.522 L39.2501,49.236 L41.2271,51.234 C41.4411,51.453 41.7411,51.564 42.0531,51.524 C42.3571,51.489 42.6301,51.315 42.7901,51.054 L44.2411,48.685 L46.2821,50.79 C46.5011,51.016 46.8101,51.129 47.1271,51.085 C47.4391,51.046 47.7151,50.861 47.8701,50.586 L49.1991,48.239 L50.9881,50.152 C51.2021,50.38 51.5061,50.493 51.8231,50.463 C52.1351,50.431 52.4131,50.254 52.5751,49.985 L54.0281,47.577 L56.3141,49.728 C56.6241,50.018 57.0821,50.083 57.4571,49.89 C57.8331,49.696 58.0471,49.287 57.9911,48.868 L54.1421,20 Z" id="Fill-181"></path>
        </g>
    </g>
</svg>