<?xml version="1.0" encoding="UTF-8" standalone="no"?>
<svg width="64px" height="64px" viewBox="0 0 64 64" version="1.1" xmlns="http://www.w3.org/2000/svg" xmlns:xlink="http://www.w3.org/1999/xlink">
    <!-- Generator: Sketch 3.7.2 (28276) - http://www.bohemiancoding.com/sketch -->
    <title>clo-server-upload</title>
    <desc>Created with Sketch.</desc>
    <defs></defs>
    <g id="64px-Line" stroke="none" stroke-width="1" fill="none" fill-rule="evenodd">
        <g id="clo-server-upload"></g>
        <path d="M11,28 L41,28 C44.859,28 48,24.859 48,21 C48,17.141 44.859,14 41,14 L11,14 C7.141,14 4,17.141 4,21 C4,24.859 7.141,28 11,28 L11,28 Z M11,16 L41,16 C43.757,16 46,18.243 46,21 C46,23.757 43.757,26 41,26 L11,26 C8.243,26 6,23.757 6,21 C6,18.243 8.243,16 11,16 L11,16 Z" id="Shape" fill="#000000"></path>
        <path d="M13,24 C14.654,24 16,22.654 16,21 C16,19.346 14.654,18 13,18 C11.346,18 10,19.346 10,21 C10,22.654 11.346,24 13,24 L13,24 Z M13,20 C13.552,20 14,20.448 14,21 C14,21.552 13.552,22 13,22 C12.448,22 12,21.552 12,21 C12,20.448 12.448,20 13,20 L13,20 Z" id="Shape" fill="#000000"></path>
        <path d="M31,22 L41,22 C41.553,22 42,21.553 42,21 C42,20.447 41.553,20 41,20 L31,20 C30.447,20 30,20.447 30,21 C30,21.553 30.447,22 31,22 L31,22 Z" id="Shape" fill="#000000"></path>
        <path d="M11,44 L41,44 C44.859,44 48,40.859 48,37 C48,33.141 44.859,30 41,30 L11,30 C7.141,30 4,33.141 4,37 C4,40.859 7.141,44 11,44 L11,44 Z M11,32 L41,32 C43.757,32 46,34.243 46,37 C46,39.757 43.757,42 41,42 L11,42 C8.243,42 6,39.757 6,37 C6,34.243 8.243,32 11,32 L11,32 Z" id="Shape" fill="#000000"></path>
        <path d="M13,40 C14.654,40 16,38.654 16,37 C16,35.346 14.654,34 13,34 C11.346,34 10,35.346 10,37 C10,38.654 11.346,40 13,40 L13,40 Z M13,36 C13.552,36 14,36.448 14,37 C14,37.552 13.552,38 13,38 C12.448,38 12,37.552 12,37 C12,36.448 12.448,36 13,36 L13,36 Z" id="Shape" fill="#000000"></path>
        <path d="M31,38 L41,38 C41.553,38 42,37.553 42,37 C42,36.447 41.553,36 41,36 L31,36 C30.447,36 30,36.447 30,37 C30,37.553 30.447,38 31,38 L31,38 Z" id="Shape" fill="#000000"></path>
        <path d="M48,53 C48,49.141 44.859,46 41,46 L11,46 C7.141,46 4,49.141 4,53 C4,56.859 7.141,60 11,60 L41,60 C44.859,60 48,56.859 48,53 L48,53 Z M6,53 C6,50.243 8.243,48 11,48 L41,48 C43.757,48 46,50.243 46,53 C46,55.757 43.757,58 41,58 L11,58 C8.243,58 6,55.757 6,53 L6,53 Z" id="Shape" fill="#000000"></path>
        <path d="M13,50 C11.346,50 10,51.346 10,53 C10,54.654 11.346,56 13,56 C14.654,56 16,54.654 16,53 C16,51.346 14.654,50 13,50 L13,50 Z M13,54 C12.448,54 12,53.552 12,53 C12,52.448 12.448,52 13,52 C13.552,52 14,52.448 14,53 C14,53.552 13.552,54 13,54 L13,54 Z" id="Shape" fill="#000000"></path>
        <path d="M42,53 C42,52.447 41.553,52 41,52 L31,52 C30.447,52 30,52.447 30,53 C30,53.553 30.447,54 31,54 L41,54 C41.553,54 42,53.553 42,53 L42,53 Z" id="Shape" fill="#000000"></path>
        <path d="M53.708,4.294 C53.616,4.201 53.505,4.128 53.382,4.077 C53.138,3.976 52.863,3.976 52.618,4.077 C52.495,4.128 52.384,4.202 52.292,4.294 L46.293,10.293 C45.902,10.684 45.902,11.316 46.293,11.707 C46.488,11.902 46.744,12 47,12 C47.256,12 47.512,11.902 47.707,11.707 L52,7.414 L52,37 C52,37.553 52.447,38 53,38 C53.553,38 54,37.553 54,37 L54,7.414 L58.293,11.707 C58.488,11.902 58.744,12 59,12 C59.256,12 59.512,11.902 59.707,11.707 C60.098,11.316 60.098,10.684 59.707,10.293 L53.708,4.294 L53.708,4.294 Z" id="Shape" fill="#000000"></path>
    </g>
</svg>