<?xml version="1.0" encoding="UTF-8" standalone="no"?>
<svg width="44px" height="44px" viewBox="0 0 44 44" version="1.1" xmlns="http://www.w3.org/2000/svg" xmlns:xlink="http://www.w3.org/1999/xlink">
    <!-- Generator: Sketch 3.7.2 (28276) - http://www.bohemiancoding.com/sketch -->
    <title>clo-shoes</title>
    <desc>Created with Sketch.</desc>
    <defs></defs>
    <g id="44px-Line" stroke="none" stroke-width="1" fill="none" fill-rule="evenodd">
        <g id="clo-shoes"></g>
        <path d="M40.336,32.33 L28.48,28.299 C28.48,28.299 28.48,28.299 28.479,28.299 L24.495,26.944 C24.493,26.943 24.491,26.942 24.489,26.942 L22.635,26.312 C20.938,25.739 19.042,25.971 17.564,26.938 C17.268,27.131 16.968,27.333 16.666,27.537 C14.866,28.748 13.005,30.001 11.111,30.001 C7.685,30.001 4.106,26.543 4.07,26.508 C4.011,26.451 3.945,26.401 3.875,26.359 C3.063,25.888 2.058,25.886 1.248,26.351 C0.467,26.8 -1.13686838e-13,27.594 -1.13686838e-13,28.475 L-1.13686838e-13,41 C-1.13686838e-13,42.654 1.346,44 3,44 L41,44 C42.654,44 44,42.654 44,41 L44,37.401 C44,35.169 42.536,33.134 40.336,32.33 L40.336,32.33 Z M2.244,28.084 C2.29,28.058 2.407,28 2.558,28 C2.628,28 2.704,28.012 2.785,28.045 C3.492,28.707 7.206,32 11.111,32 C13.615,32 15.829,30.51 17.783,29.195 C18.078,28.996 18.369,28.799 18.658,28.611 C19.627,27.977 20.874,27.828 21.993,28.205 L22.487,28.373 L20.458,30.775 C20.102,31.197 20.154,31.828 20.576,32.184 C20.764,32.343 20.993,32.42 21.221,32.42 C21.506,32.42 21.788,32.3 21.986,32.066 L24.521,29.064 L26.475,29.728 L24.347,32.248 C23.991,32.67 24.043,33.302 24.465,33.657 C24.653,33.816 24.882,33.893 25.11,33.893 C25.395,33.893 25.677,33.773 25.875,33.539 L28.509,30.42 L30.464,31.085 L28.237,33.722 C27.881,34.144 27.933,34.775 28.355,35.131 C28.543,35.29 28.772,35.367 29,35.367 C29.285,35.367 29.567,35.247 29.765,35.013 L32.499,31.776 L39.672,34.215 C41.088,34.733 42.002,35.983 42.002,37.401 L42.002,38 L2.002,38 L2.002,28.474 C2,28.257 2.153,28.136 2.244,28.084 L2.244,28.084 Z M41,42 L3,42 C2.448,42 2,41.552 2,41 L2,40 L42,40 L42,41 C42,41.552 41.552,42 41,42 L41,42 Z" id="Shape" fill="#000000"></path>
        <path d="M40.659,14.267 C39.714,13.929 38.613,13.566 37.444,13.181 C35.247,12.457 32.756,11.636 30.695,10.771 C25.934,8.771 19.832,1.437 19.77,1.363 C19.577,1.13 19.263,0.993 18.985,1.002 C18.682,1.006 18.397,1.148 18.211,1.387 C18.186,1.42 15.612,4.674 12.083,5.489 C8.459,6.326 1.377,4.073 1.306,4.05 C1.003,3.952 0.668,4.005 0.411,4.195 C0.152,4.38 0,4.681 0,5 L0,21 C0,21.553 0.447,22 1,22 L13,22 C13.553,22 14,21.553 14,21 L14,18.606 C16.546,19.79 21.955,22 26.846,22 L43,22 C43.553,22 44,21.553 44,21 L44,19.011 C44,16.888 42.657,14.981 40.659,14.267 L40.659,14.267 Z M2,20 L2,18 L12,18 L12,20 L2,20 L2,20 Z M13.471,16.118 C13.454,16.109 13.436,16.106 13.419,16.098 C13.395,16.087 13.37,16.079 13.345,16.069 C13.234,16.028 13.119,16 13,16 L2,16 L2,6.336 C4.363,6.987 9.376,8.163 12.532,7.437 C15.512,6.749 17.832,4.718 18.987,3.521 C19.408,3.999 19.99,4.643 20.68,5.367 L19.1,6.947 C18.709,7.338 18.709,7.97 19.1,8.361 C19.295,8.556 19.551,8.654 19.807,8.654 C20.063,8.654 20.319,8.556 20.514,8.361 L22.083,6.792 C22.466,7.168 22.87,7.551 23.287,7.935 L21.687,9.535 C21.296,9.926 21.296,10.558 21.687,10.949 C21.882,11.144 22.138,11.242 22.394,11.242 C22.65,11.242 22.906,11.144 23.101,10.949 L24.792,9.258 C25.248,9.64 25.713,10.01 26.184,10.364 L24.755,11.794 C24.364,12.185 24.364,12.817 24.755,13.208 C24.95,13.403 25.206,13.501 25.462,13.501 C25.718,13.501 25.974,13.403 26.169,13.208 L27.858,11.518 C28.552,11.952 29.245,12.331 29.921,12.615 C32.056,13.511 34.586,14.345 36.818,15.081 C37.969,15.46 39.054,15.817 39.985,16.15 C41.19,16.582 42,17.731 42,19.011 L42,20 L26.846,20 C20.816,20 13.544,16.156 13.471,16.118 L13.471,16.118 Z" id="Shape" fill="#000000"></path>
    </g>
</svg>