<?xml version="1.0" encoding="UTF-8" standalone="no"?>
<svg width="64px" height="64px" viewBox="0 0 64 64" version="1.1" xmlns="http://www.w3.org/2000/svg" xmlns:xlink="http://www.w3.org/1999/xlink">
    <!-- Generator: Sketch 3.7.2 (28276) - http://www.bohemiancoding.com/sketch -->
    <title>clo-beanie</title>
    <desc>Created with Sketch.</desc>
    <defs></defs>
    <g id="64px-Glyph" stroke="none" stroke-width="1" fill="none" fill-rule="evenodd">
        <g id="clo-beanie" fill="#000000">
            <path d="M52.0001,52 C52.0001,52.552 51.5521,53 51.0001,53 C50.4481,53 50.0001,52.552 50.0001,52 L50.0001,46 C50.0001,45.448 50.4481,45 51.0001,45 C51.5521,45 52.0001,45.448 52.0001,46 L52.0001,52 Z M44.0001,52 C44.0001,52.552 43.5521,53 43.0001,53 C42.4481,53 42.0001,52.552 42.0001,52 L42.0001,46 C42.0001,45.448 42.4481,45 43.0001,45 C43.5521,45 44.0001,45.448 44.0001,46 L44.0001,52 Z M36.0001,52 C36.0001,52.552 35.5521,53 35.0001,53 C34.4481,53 34.0001,52.552 34.0001,52 L34.0001,46 C34.0001,45.448 34.4481,45 35.0001,45 C35.5521,45 36.0001,45.448 36.0001,46 L36.0001,52 Z M28.0001,52 C28.0001,52.552 27.5521,53 27.0001,53 C26.4481,53 26.0001,52.552 26.0001,52 L26.0001,46 C26.0001,45.448 26.4481,45 27.0001,45 C27.5521,45 28.0001,45.448 28.0001,46 L28.0001,52 Z M20.0001,52 C20.0001,52.552 19.5521,53 19.0001,53 C18.4481,53 18.0001,52.552 18.0001,52 L18.0001,46 C18.0001,45.448 18.4481,45 19.0001,45 C19.5521,45 20.0001,45.448 20.0001,46 L20.0001,52 Z M12.0001,52 C12.0001,52.552 11.5521,53 11.0001,53 C10.4481,53 10.0001,52.552 10.0001,52 L10.0001,46 C10.0001,45.448 10.4481,45 11.0001,45 C11.5521,45 12.0001,45.448 12.0001,46 L12.0001,52 Z M54.0001,40 L8.0001,40 C5.7941,40 4.0001,41.794 4.0001,44 L4.0001,54 C4.0001,56.206 5.7941,58 8.0001,58 L54.0001,58 C56.2061,58 58.0001,56.206 58.0001,54 L58.0001,44 C58.0001,41.794 56.2061,40 54.0001,40 L54.0001,40 Z" id="Fill-159"></path>
            <path d="M39.0001,24 C38.4481,24 38.0001,23.552 38.0001,23 C38.0001,19.095 34.3681,15.777 34.3311,15.744 C33.9221,15.375 33.8881,14.743 34.2571,14.332 C34.6251,13.922 35.2561,13.887 35.6671,14.255 C35.8441,14.414 40.0001,18.192 40.0001,23 C40.0001,23.552 39.5521,24 39.0001,24 M27.6681,15.744 C27.6321,15.777 24.0001,19.095 24.0001,23 C24.0001,23.552 23.5521,24 23.0001,24 C22.4481,24 22.0001,23.552 22.0001,23 C22.0001,18.192 26.1561,14.414 26.3321,14.255 C26.7441,13.887 27.3751,13.922 27.7431,14.332 C28.1121,14.743 28.0781,15.375 27.6681,15.744 M31.0001,6 C25.7761,6 9.1051,8.368 8.0531,38 L53.9471,38 C52.8951,8.368 36.2241,6 31.0001,6" id="Fill-160"></path>
        </g>
    </g>
</svg>