<?xml version="1.0" encoding="UTF-8" standalone="no"?>
<svg width="64px" height="64px" viewBox="0 0 64 64" version="1.1" xmlns="http://www.w3.org/2000/svg" xmlns:xlink="http://www.w3.org/1999/xlink">
    <!-- Generator: Sketch 3.7.2 (28276) - http://www.bohemiancoding.com/sketch -->
    <title>clo-cloud-secure</title>
    <desc>Created with Sketch.</desc>
    <defs></defs>
    <g id="64px-Line" stroke="none" stroke-width="1" fill="none" fill-rule="evenodd">
        <g id="clo-cloud-secure"></g>
        <path d="M41,32 L40,32 L40,31 C40,27.14 36.86,24 33,24 C29.14,24 26,27.14 26,31 L26,32 L25,32 C24.448,32 24,32.448 24,33 L24,45 C24,45.553 24.448,46 25,46 L41,46 C41.552,46 42,45.553 42,45 L42,33 C42,32.448 41.552,32 41,32 L41,32 Z M28,31 C28,28.243 30.243,26 33,26 C35.757,26 38,28.243 38,31 L38,32 L28,32 L28,31 L28,31 Z M40,44 L26,44 L26,34 L40,34 L40,44 L40,44 Z" id="Shape" fill="#000000"></path>
        <path d="M33,36 C31.897,36 31,36.897 31,38 C31,38.737 31.405,39.375 32,39.722 L32,41 C32,41.553 32.448,42 33,42 C33.552,42 34,41.553 34,41 L34,39.722 C34.595,39.375 35,38.737 35,38 C35,36.897 34.103,36 33,36 L33,36 Z" id="Shape" fill="#000000"></path>
        <path d="M51.935,30.396 C51.978,29.932 52,29.465 52,29 C52,20.729 45.271,14 37,14 C30.897,14 25.373,17.782 23.1,23.354 C21.737,22.474 20.146,22 18.5,22 C13.813,22 10,25.813 10,30.5 C10,30.729 10.009,30.958 10.028,31.188 C6.342,33.054 4,36.826 4,41 C4,47.065 8.935,52 15,52 L49,52 C55.065,52 60,47.065 60,41 C60,36.015 56.661,31.696 51.935,30.396 L51.935,30.396 Z M49,50 L15,50 C10.038,50 6,45.963 6,41 C6,37.375 8.159,34.12 11.5,32.708 C11.928,32.527 12.175,32.075 12.096,31.617 C12.033,31.25 12,30.874 12,30.5 C12,26.916 14.916,24 18.5,24 C20.136,24 21.7,24.612 22.905,25.723 C23.158,25.957 23.515,26.042 23.848,25.952 C24.181,25.861 24.443,25.604 24.541,25.274 C26.171,19.814 31.294,16 37,16 C44.168,16 50,21.832 50,29 C50,29.673 49.948,30.351 49.844,31.014 C49.761,31.549 50.118,32.053 50.651,32.152 C54.91,32.94 58.001,36.661 58.001,41.001 C58,45.963 53.962,50 49,50 L49,50 Z" id="Shape" fill="#000000"></path>
    </g>
</svg>