<?xml version="1.0" encoding="UTF-8" standalone="no"?>
<svg width="64px" height="64px" viewBox="0 0 64 64" version="1.1" xmlns="http://www.w3.org/2000/svg" xmlns:xlink="http://www.w3.org/1999/xlink">
    <!-- Generator: Sketch 3.7.2 (28276) - http://www.bohemiancoding.com/sketch -->
    <title>clo-cabinet</title>
    <desc>Created with Sketch.</desc>
    <defs></defs>
    <g id="64px-Line" stroke="none" stroke-width="1" fill="none" fill-rule="evenodd">
        <g id="clo-cabinet"></g>
        <path d="M59,8 L3,8 C2.447,8 2,8.447 2,9 L2,57 C2,57.553 2.447,58 3,58 L59,58 C59.553,58 60,57.553 60,57 L60,9 C60,8.447 59.553,8 59,8 L59,8 Z M4,10 L30,10 L30,56 L4,56 L4,10 L4,10 Z M58,56 L32,56 L32,10 L58,10 L58,56 L58,56 Z" id="Shape" fill="#000000"></path>
        <path d="M27,12 L7,12 C6.447,12 6,12.447 6,13 L6,53 C6,53.553 6.447,54 7,54 L27,54 C27.553,54 28,53.553 28,53 L28,13 C28,12.447 27.553,12 27,12 L27,12 Z M8,24 L26,24 L26,32 L8,32 L8,24 L8,24 Z M8,34 L26,34 L26,42 L8,42 L8,34 L8,34 Z M26,14 L26,22 L8,22 L8,14 L26,14 L26,14 Z M8,52 L8,44 L26,44 L26,52 L8,52 L8,52 Z" id="Shape" fill="#000000"></path>
        <path d="M35,54 L55,54 C55.553,54 56,53.553 56,53 L56,13 C56,12.447 55.553,12 55,12 L35,12 C34.447,12 34,12.447 34,13 L34,53 C34,53.553 34.447,54 35,54 L35,54 Z M54,42 L36,42 L36,34 L54,34 L54,42 L54,42 Z M54,32 L36,32 L36,24 L54,24 L54,32 L54,32 Z M36,52 L36,44 L54,44 L54,52 L36,52 L36,52 Z M54,14 L54,22 L36,22 L36,14 L54,14 L54,14 Z" id="Shape" fill="#000000"></path>
        <path d="M23,46 L19,46 C18.447,46 18,46.447 18,47 C18,47.553 18.447,48 19,48 L23,48 C23.553,48 24,47.553 24,47 C24,46.447 23.553,46 23,46 L23,46 Z" id="Shape" fill="#000000"></path>
        <path d="M23,36 L19,36 C18.447,36 18,36.447 18,37 C18,37.553 18.447,38 19,38 L23,38 C23.553,38 24,37.553 24,37 C24,36.447 23.553,36 23,36 L23,36 Z" id="Shape" fill="#000000"></path>
        <path d="M23,26 L19,26 C18.447,26 18,26.447 18,27 C18,27.553 18.447,28 19,28 L23,28 C23.553,28 24,27.553 24,27 C24,26.447 23.553,26 23,26 L23,26 Z" id="Shape" fill="#000000"></path>
        <path d="M19,18 L23,18 C23.553,18 24,17.553 24,17 C24,16.447 23.553,16 23,16 L19,16 C18.447,16 18,16.447 18,17 C18,17.553 18.447,18 19,18 L19,18 Z" id="Shape" fill="#000000"></path>
        <path d="M11,18 C11.13,18 11.26,17.97 11.38,17.92 C11.5,17.87 11.609,17.8 11.71,17.71 C11.899,17.52 12,17.27 12,17 C12,16.74 11.89,16.479 11.71,16.29 C11.609,16.2 11.5,16.13 11.38,16.08 C11.14,15.979 10.859,15.979 10.62,16.08 C10.49,16.13 10.39,16.2 10.29,16.29 C10.2,16.39 10.13,16.49 10.08,16.62 C10.03,16.74 10,16.87 10,17 C10,17.27 10.1,17.52 10.29,17.71 C10.479,17.899 10.729,18 11,18 L11,18 Z" id="Shape" fill="#000000"></path>
        <path d="M11.71,26.29 C11.609,26.2 11.5,26.13 11.38,26.08 C11.14,25.97 10.859,25.979 10.62,26.08 C10.49,26.13 10.39,26.2 10.29,26.29 C10.2,26.39 10.13,26.5 10.08,26.62 C10.03,26.74 10,26.87 10,27 C10,27.27 10.1,27.52 10.29,27.71 C10.479,27.899 10.729,28 11,28 C11.13,28 11.26,27.97 11.38,27.92 C11.5,27.87 11.609,27.8 11.71,27.71 C11.899,27.52 12,27.27 12,27 C12,26.87 11.97,26.74 11.92,26.62 C11.87,26.5 11.8,26.39 11.71,26.29 L11.71,26.29 Z" id="Shape" fill="#000000"></path>
        <path d="M11.71,36.29 C11.33,35.92 10.66,35.92 10.29,36.29 C10.2,36.39 10.13,36.49 10.08,36.62 C10.03,36.74 10,36.87 10,37 C10,37.13 10.03,37.26 10.08,37.38 C10.13,37.5 10.2,37.609 10.29,37.71 C10.479,37.899 10.729,38 11,38 C11.13,38 11.26,37.97 11.38,37.92 C11.5,37.87 11.609,37.8 11.71,37.71 C11.8,37.609 11.87,37.5 11.92,37.38 C11.97,37.26 12,37.13 12,37 C12,36.87 11.97,36.74 11.92,36.62 C11.87,36.5 11.8,36.39 11.71,36.29 L11.71,36.29 Z" id="Shape" fill="#000000"></path>
        <path d="M11.38,46.08 C11.14,45.97 10.859,45.97 10.62,46.08 C10.49,46.13 10.39,46.2 10.29,46.29 C10.2,46.39 10.13,46.49 10.08,46.62 C10.03,46.74 10,46.87 10,47 C10,47.27 10.1,47.52 10.29,47.71 C10.479,47.89 10.729,48 11,48 C11.13,48 11.26,47.97 11.38,47.92 C11.5,47.87 11.609,47.8 11.71,47.71 C11.899,47.52 12,47.27 12,47 C12,46.74 11.89,46.479 11.71,46.29 C11.609,46.2 11.5,46.13 11.38,46.08 L11.38,46.08 Z" id="Shape" fill="#000000"></path>
        <path d="M38.29,46.29 C38.109,46.479 38,46.729 38,47 C38,47.27 38.1,47.52 38.29,47.71 C38.39,47.8 38.5,47.87 38.62,47.92 C38.74,47.97 38.87,48 39,48 C39.13,48 39.26,47.97 39.38,47.92 C39.5,47.87 39.609,47.8 39.71,47.71 C39.899,47.52 40,47.27 40,47 C40,46.74 39.89,46.479 39.71,46.29 C39.33,45.92 38.66,45.92 38.29,46.29 L38.29,46.29 Z" id="Shape" fill="#000000"></path>
        <path d="M38.08,37.38 C38.13,37.5 38.2,37.609 38.29,37.71 C38.39,37.8 38.5,37.87 38.62,37.92 C38.74,37.97 38.87,38 39,38 C39.27,38 39.52,37.899 39.71,37.71 C39.8,37.609 39.87,37.5 39.92,37.38 C39.97,37.26 40,37.13 40,37 C40,36.87 39.97,36.74 39.92,36.62 C39.87,36.49 39.8,36.39 39.71,36.29 C39.33,35.92 38.66,35.92 38.29,36.29 C38.2,36.39 38.13,36.49 38.08,36.62 C38.03,36.74 38,36.87 38,37 C38,37.13 38.02,37.26 38.08,37.38 L38.08,37.38 Z" id="Shape" fill="#000000"></path>
        <path d="M38.29,27.71 C38.39,27.8 38.5,27.87 38.62,27.92 C38.74,27.97 38.87,28 39,28 C39.13,28 39.26,27.97 39.38,27.92 C39.5,27.87 39.609,27.8 39.71,27.71 C39.899,27.52 40,27.27 40,27 C40,26.87 39.97,26.74 39.92,26.62 C39.87,26.49 39.8,26.39 39.71,26.29 C39.33,25.92 38.66,25.92 38.29,26.29 C38.2,26.39 38.13,26.49 38.08,26.62 C38.03,26.74 38,26.87 38,27 C38,27.27 38.1,27.52 38.29,27.71 L38.29,27.71 Z" id="Shape" fill="#000000"></path>
        <path d="M38.29,17.71 C38.39,17.8 38.5,17.87 38.62,17.93 C38.74,17.98 38.87,18 39,18 C39.13,18 39.26,17.979 39.38,17.93 C39.5,17.87 39.609,17.8 39.71,17.71 C39.8,17.609 39.87,17.5 39.92,17.38 C39.97,17.26 40,17.13 40,17 C40,16.87 39.97,16.74 39.92,16.62 C39.87,16.49 39.8,16.39 39.71,16.29 C39.33,15.92 38.66,15.92 38.29,16.29 C38.2,16.39 38.13,16.49 38.08,16.62 C38.03,16.74 38,16.87 38,17 C38,17.13 38.02,17.26 38.08,17.38 C38.13,17.5 38.2,17.609 38.29,17.71 L38.29,17.71 Z" id="Shape" fill="#000000"></path>
        <path d="M51,46 L47,46 C46.447,46 46,46.447 46,47 C46,47.553 46.447,48 47,48 L51,48 C51.553,48 52,47.553 52,47 C52,46.447 51.553,46 51,46 L51,46 Z" id="Shape" fill="#000000"></path>
        <path d="M47,38 L51,38 C51.553,38 52,37.553 52,37 C52,36.447 51.553,36 51,36 L47,36 C46.447,36 46,36.447 46,37 C46,37.553 46.447,38 47,38 L47,38 Z" id="Shape" fill="#000000"></path>
        <path d="M47,28 L51,28 C51.553,28 52,27.553 52,27 C52,26.447 51.553,26 51,26 L47,26 C46.447,26 46,26.447 46,27 C46,27.553 46.447,28 47,28 L47,28 Z" id="Shape" fill="#000000"></path>
        <path d="M47,18 L51,18 C51.553,18 52,17.553 52,17 C52,16.447 51.553,16 51,16 L47,16 C46.447,16 46,16.447 46,17 C46,17.553 46.447,18 47,18 L47,18 Z" id="Shape" fill="#000000"></path>
    </g>
</svg>