<?xml version="1.0" encoding="UTF-8" standalone="no"?>
<svg width="44px" height="44px" viewBox="0 0 44 44" version="1.1" xmlns="http://www.w3.org/2000/svg" xmlns:xlink="http://www.w3.org/1999/xlink">
    <!-- Generator: Sketch 3.7.2 (28276) - http://www.bohemiancoding.com/sketch -->
    <title>clo-short-shirt</title>
    <desc>Created with Sketch.</desc>
    <defs></defs>
    <g id="44px-Line" stroke="none" stroke-width="1" fill="none" fill-rule="evenodd">
        <g id="clo-short-shirt"></g>
        <path d="M34,21.303 L34.168,21.555 C34.473,22.014 35.093,22.138 35.555,21.832 L41.555,17.832 C42.011,17.528 42.138,16.913 41.837,16.453 L37.003,9.049 C36.025,7.58 34.641,6.456 32.973,5.789 L28.484,4.14 L26.721,2.306 C26.686,2.27 26.639,2.252 26.6,2.222 C26.544,2.179 26.492,2.134 26.43,2.105 C26.377,2.079 26.321,2.069 26.263,2.053 C26.193,2.034 26.126,2.014 26.053,2.01 C26.035,2.01 26.018,2 26,2 L16,2 C15.981,2 15.964,2.01 15.945,2.011 C15.875,2.015 15.81,2.034 15.743,2.052 C15.683,2.068 15.625,2.079 15.569,2.106 C15.508,2.135 15.457,2.179 15.403,2.221 C15.363,2.252 15.315,2.27 15.279,2.307 L13.516,4.141 L9,5.8 C7.36,6.456 5.976,7.58 4.991,9.057 L0.163,16.453 C-0.138,16.912 -0.011,17.527 0.445,17.831 L6.445,21.831 C6.905,22.137 7.526,22.013 7.832,21.554 L8,21.302 L8,41 C8,41.552 8.447,42 9,42 L33,42 C33.553,42 34,41.552 34,41 L34,21.303 L34,21.303 Z M16.088,4.351 L19.618,7.175 L18.055,9.258 L15.349,5.119 L16.088,4.351 L16.088,4.351 Z M21,5.719 L18.851,4 L23.149,4 L21,5.719 L21,5.719 Z M25.912,4.351 L26.65,5.119 L23.944,9.258 L22.381,7.175 L25.912,4.351 L25.912,4.351 Z M9.29,17.043 C8.87,16.914 8.412,17.079 8.168,17.445 L6.723,19.613 L2.379,16.717 L6.66,10.158 C7.414,9.027 8.48,8.162 9.717,7.666 L13.675,6.212 L17.163,11.547 C17.342,11.82 17.642,11.988 17.968,11.999 C18.279,12.014 18.604,11.86 18.8,11.6 L20,10 L20,40 L10,40 L10,18 C10,17.56 9.712,17.17 9.29,17.043 L9.29,17.043 Z M32.71,17.043 C32.288,17.17 32,17.56 32,18 L32,40 L22,40 L22,10 L23.2,11.6 C23.389,11.852 23.685,12 24,12 L24.032,12 C24.358,11.989 24.658,11.821 24.837,11.548 L28.325,6.213 L32.256,7.657 C33.52,8.163 34.586,9.028 35.334,10.151 L39.621,16.718 L35.277,19.614 L33.832,17.446 C33.588,17.079 33.131,16.914 32.71,17.043 L32.71,17.043 Z" id="Shape" fill="#000000"></path>
    </g>
</svg>