<?xml version="1.0" encoding="UTF-8" standalone="no"?>
<svg width="64px" height="64px" viewBox="0 0 64 64" version="1.1" xmlns="http://www.w3.org/2000/svg" xmlns:xlink="http://www.w3.org/1999/xlink">
    <!-- Generator: Sketch 3.7.2 (28276) - http://www.bohemiancoding.com/sketch -->
    <title>clo-server-connections</title>
    <desc>Created with Sketch.</desc>
    <defs></defs>
    <g id="64px-Line" stroke="none" stroke-width="1" fill="none" fill-rule="evenodd">
        <g id="clo-server-connections"></g>
        <path d="M11,20 L41,20 C44.859,20 48,16.86 48,13 C48,9.14 44.859,6 41,6 L11,6 C7.141,6 4,9.14 4,13 C4,16.86 7.141,20 11,20 L11,20 Z M11,8 L41,8 C43.757,8 46,10.243 46,13 C46,15.757 43.757,18 41,18 L11,18 C8.243,18 6,15.757 6,13 C6,10.243 8.243,8 11,8 L11,8 Z" id="Shape" fill="#000000"></path>
        <path d="M13,16 C14.654,16 16,14.654 16,13 C16,11.346 14.654,10 13,10 C11.346,10 10,11.346 10,13 C10,14.654 11.346,16 13,16 L13,16 Z M13,12 C13.552,12 14,12.449 14,13 C14,13.551 13.552,14 13,14 C12.448,14 12,13.551 12,13 C12,12.449 12.448,12 13,12 L13,12 Z" id="Shape" fill="#000000"></path>
        <path d="M31,14 L41,14 C41.553,14 42,13.552 42,13 C42,12.448 41.553,12 41,12 L31,12 C30.447,12 30,12.448 30,13 C30,13.552 30.447,14 31,14 L31,14 Z" id="Shape" fill="#000000"></path>
        <path d="M11,38 L41,38 C44.859,38 48,34.859 48,31 C48,27.14 44.859,24 41,24 L11,24 C7.141,24 4,27.14 4,31 C4,34.859 7.141,38 11,38 L11,38 Z M11,26 L41,26 C43.757,26 46,28.243 46,31 C46,33.757 43.757,36 41,36 L11,36 C8.243,36 6,33.757 6,31 C6,28.243 8.243,26 11,26 L11,26 Z" id="Shape" fill="#000000"></path>
        <path d="M13,34 C14.654,34 16,32.654 16,31 C16,29.346 14.654,28 13,28 C11.346,28 10,29.346 10,31 C10,32.654 11.346,34 13,34 L13,34 Z M13,30 C13.552,30 14,30.449 14,31 C14,31.551 13.552,32 13,32 C12.448,32 12,31.551 12,31 C12,30.449 12.448,30 13,30 L13,30 Z" id="Shape" fill="#000000"></path>
        <path d="M31,32 L41,32 C41.553,32 42,31.552 42,31 C42,30.448 41.553,30 41,30 L31,30 C30.447,30 30,30.448 30,31 C30,31.552 30.447,32 31,32 L31,32 Z" id="Shape" fill="#000000"></path>
        <path d="M11,56 L41,56 C44.859,56 48,52.859 48,49 C48,45.141 44.859,42 41,42 L11,42 C7.141,42 4,45.141 4,49 C4,52.859 7.141,56 11,56 L11,56 Z M11,44 L41,44 C43.757,44 46,46.243 46,49 C46,51.757 43.757,54 41,54 L11,54 C8.243,54 6,51.757 6,49 C6,46.243 8.243,44 11,44 L11,44 Z" id="Shape" fill="#000000"></path>
        <path d="M13,52 C14.654,52 16,50.654 16,49 C16,47.346 14.654,46 13,46 C11.346,46 10,47.346 10,49 C10,50.654 11.346,52 13,52 L13,52 Z M13,48 C13.552,48 14,48.448 14,49 C14,49.552 13.552,50 13,50 C12.448,50 12,49.552 12,49 C12,48.448 12.448,48 13,48 L13,48 Z" id="Shape" fill="#000000"></path>
        <path d="M31,50 L41,50 C41.553,50 42,49.553 42,49 C42,48.447 41.553,48 41,48 L31,48 C30.447,48 30,48.447 30,49 C30,49.553 30.447,50 31,50 L31,50 Z" id="Shape" fill="#000000"></path>
        <path d="M59,12 L51,12 C50.447,12 50,12.448 50,13 C50,13.552 50.447,14 51,14 L58,14 L58,30 L51,30 C50.447,30 50,30.448 50,31 C50,31.552 50.447,32 51,32 L58,32 L58,48 L51,48 C50.447,48 50,48.447 50,49 C50,49.553 50.447,50 51,50 L59,50 C59.553,50 60,49.553 60,49 L60,13 C60,12.448 59.553,12 59,12 L59,12 Z" id="Shape" fill="#000000"></path>
    </g>
</svg>