<?xml version="1.0" encoding="UTF-8" standalone="no"?>
<svg width="64px" height="64px" viewBox="0 0 64 64" version="1.1" xmlns="http://www.w3.org/2000/svg" xmlns:xlink="http://www.w3.org/1999/xlink">
    <!-- Generator: Sketch 3.7.2 (28276) - http://www.bohemiancoding.com/sketch -->
    <title>clo-skirt</title>
    <desc>Created with Sketch.</desc>
    <defs></defs>
    <g id="64px-Glyph" stroke="none" stroke-width="1" fill="none" fill-rule="evenodd">
        <g id="clo-skirt" fill="#000000">
            <path d="M46.0001,14 L46.0001,9 C46.0001,8.448 45.5521,8 45.0001,8 L17.0001,8 C16.4481,8 16.0001,8.448 16.0001,9 L16.0001,14 L46.0001,14 Z" id="Fill-191"></path>
            <path d="M44.1891,47.9819 C44.1251,47.9939 44.0611,47.9999 43.9991,47.9999 C43.5291,47.9999 43.1101,47.6679 43.0181,47.1889 L38.0181,21.1889 C37.9141,20.6469 38.2691,20.1219 38.8111,20.0179 C39.3581,19.9139 39.8781,20.2699 39.9821,20.8109 L44.9821,46.8109 C45.0861,47.3539 44.7311,47.8779 44.1891,47.9819 L44.1891,47.9819 Z M32.0001,46.9999 C32.0001,47.5519 31.5521,47.9999 31.0001,47.9999 C30.4481,47.9999 30.0001,47.5519 30.0001,46.9999 L30.0001,20.9999 C30.0001,20.4479 30.4481,19.9999 31.0001,19.9999 C31.5521,19.9999 32.0001,20.4479 32.0001,20.9999 L32.0001,46.9999 Z M18.9821,47.1889 C18.8901,47.6679 18.4711,47.9999 18.0011,47.9999 C17.9381,47.9999 17.8751,47.9939 17.8111,47.9819 C17.2691,47.8779 16.9141,47.3539 17.0181,46.8109 L22.0181,20.8109 C22.1221,20.2699 22.6441,19.9139 23.1891,20.0179 C23.7311,20.1219 24.0861,20.6469 23.9821,21.1889 L18.9821,47.1889 Z M59.9381,52.6539 L46.4341,15.9999 L15.5661,15.9999 L2.0611,52.6539 C1.9441,52.9729 1.9971,53.3289 2.2001,53.5999 C2.3351,53.7799 5.5511,57.9999 10.0001,57.9999 C12.5001,57.9999 13.4981,56.6699 14.3001,55.5999 C15.0221,54.6369 15.5001,53.9999 17.0001,53.9999 C18.5001,53.9999 18.9771,54.6369 19.7001,55.5999 C20.5021,56.6699 21.5001,57.9999 24.0001,57.9999 C26.6011,57.9999 27.8301,56.5809 28.8181,55.4399 C29.6371,54.4939 30.1061,53.9999 31.0001,53.9999 C31.8941,53.9999 32.3631,54.4939 33.1821,55.4399 C34.1701,56.5809 35.3991,57.9999 38.0001,57.9999 C40.6011,57.9999 41.8301,56.5809 42.8181,55.4399 C43.6371,54.4939 44.1061,53.9999 45.0001,53.9999 C45.8941,53.9999 46.3631,54.4939 47.1821,55.4399 C48.1701,56.5809 49.3991,57.9999 52.0001,57.9999 C56.4491,57.9999 59.6651,53.7799 59.8001,53.5999 C60.0031,53.3289 60.0561,52.9729 59.9381,52.6539 L59.9381,52.6539 Z" id="Fill-192"></path>
        </g>
    </g>
</svg>