<?xml version="1.0" encoding="UTF-8" standalone="no"?>
<svg width="44px" height="44px" viewBox="0 0 44 44" version="1.1" xmlns="http://www.w3.org/2000/svg" xmlns:xlink="http://www.w3.org/1999/xlink">
    <!-- Generator: Sketch 3.7.2 (28276) - http://www.bohemiancoding.com/sketch -->
    <title>clo-shirt</title>
    <desc>Created with Sketch.</desc>
    <defs></defs>
    <g id="44px-Line" stroke="none" stroke-width="1" fill="none" fill-rule="evenodd">
        <g id="clo-shirt"></g>
        <path d="M0.18,35.572 C0.334,35.793 0.571,35.942 0.836,35.986 L6.836,36.986 C7.368,37.077 7.868,36.731 7.979,36.206 L10,26.604 L10,41 C10,41.552 10.447,42 11,42 L31,42 C31.553,42 32,41.552 32,41 L32,26.604 L34.021,36.206 C34.131,36.731 34.637,37.076 35.164,36.986 L41.164,35.986 C41.43,35.942 41.666,35.793 41.82,35.572 C41.973,35.351 42.032,35.078 41.982,34.814 L41.12,30.255 C41.118,30.236 41.125,30.218 41.122,30.199 C41.118,30.174 41.102,30.156 41.097,30.132 L37.361,10.381 C36.949,8.553 34.518,6.672 33.02,6.08 L28.502,4.16 L26.722,2.308 C26.687,2.272 26.64,2.255 26.601,2.225 C26.545,2.182 26.492,2.137 26.43,2.107 C26.377,2.082 26.321,2.071 26.264,2.055 C26.194,2.035 26.126,2.016 26.053,2.012 C26.035,2.01 26.018,2 26,2 L16,2 C15.981,2 15.964,2.01 15.946,2.011 C15.876,2.015 15.812,2.034 15.745,2.052 C15.685,2.068 15.626,2.08 15.57,2.107 C15.51,2.136 15.46,2.179 15.406,2.221 C15.365,2.252 15.317,2.27 15.281,2.308 L13.497,4.163 L9.096,6.07 C7.455,6.718 4.987,8.496 4.634,10.415 L0.897,30.173 L0.897,30.173 L0.897,30.173 L0.019,34.814 C-0.032,35.079 0.026,35.352 0.18,35.572 L0.18,35.572 Z M2.173,34.182 L2.681,31.493 L6.778,32.196 L6.218,34.856 L2.173,34.182 L2.173,34.182 Z M16.088,4.351 L19.618,7.175 L18.055,9.258 L15.349,5.119 L16.088,4.351 L16.088,4.351 Z M26.65,5.119 L23.944,9.258 L22.381,7.175 L25.911,4.351 L26.65,5.119 L26.65,5.119 Z M21,5.719 L18.851,4 L23.149,4 L21,5.719 L21,5.719 Z M35.781,34.856 L35.217,32.176 L39.321,31.506 L39.827,34.182 L35.781,34.856 L35.781,34.856 Z M35.402,10.786 L38.949,29.54 L34.804,30.217 L31.978,16.793 C31.872,16.292 31.413,15.954 30.896,16.004 C30.386,16.057 30,16.486 30,16.999 L30,39.999 L22,39.999 L22,9.999 L23.2,11.599 C23.389,11.851 23.685,11.999 24,11.999 L24.032,11.999 C24.358,11.988 24.658,11.82 24.837,11.547 L28.302,6.247 L32.261,7.929 C33.567,8.446 35.215,9.958 35.402,10.786 L35.402,10.786 Z M6.599,10.781 C6.772,9.84 8.507,8.452 9.86,7.917 L13.702,6.253 L17.164,11.548 C17.343,11.821 17.643,11.989 17.969,12 C18.289,12.015 18.605,11.861 18.801,11.601 L20.001,10.001 L20.001,40.001 L12.001,40.001 L12.001,17.001 C12.001,16.489 11.614,16.06 11.105,16.006 C10.589,15.962 10.129,16.294 10.023,16.795 L7.192,30.239 L3.054,29.529 L6.599,10.781 L6.599,10.781 Z" id="Shape" fill="#000000"></path>
    </g>
</svg>