<?xml version="1.0" encoding="UTF-8" standalone="no"?>
<svg width="64px" height="64px" viewBox="0 0 64 64" version="1.1" xmlns="http://www.w3.org/2000/svg" xmlns:xlink="http://www.w3.org/1999/xlink">
    <!-- Generator: Sketch 3.7.2 (28276) - http://www.bohemiancoding.com/sketch -->
    <title>clo-cloud-sync</title>
    <desc>Created with Sketch.</desc>
    <defs></defs>
    <g id="64px-Line" stroke="none" stroke-width="1" fill="none" fill-rule="evenodd">
        <g id="clo-cloud-sync"></g>
        <path d="M51.936,30.396 C51.979,29.932 52,29.465 52,29 C52,20.729 45.271,14 37,14 C30.897,14 25.372,17.782 23.1,23.354 C21.737,22.474 20.147,22 18.5,22 C13.813,22 10,25.813 10,30.5 C10,30.729 10.01,30.958 10.027,31.188 C6.342,33.053 4,36.826 4,41 C4,47.065 8.935,52 15,52 L49,52 C55.065,52 60,47.065 60,41 C60,36.014 56.661,31.696 51.936,30.396 L51.936,30.396 Z M49,50 L15,50 C10.037,50 6,45.962 6,41 C6,37.375 8.159,34.121 11.5,32.708 C11.928,32.527 12.175,32.075 12.096,31.617 C12.032,31.25 12,30.874 12,30.5 C12,26.916 14.916,24 18.5,24 C20.136,24 21.7,24.612 22.905,25.723 C23.157,25.957 23.514,26.043 23.847,25.952 C24.18,25.861 24.442,25.604 24.54,25.274 C26.171,19.814 31.295,16 37,16 C44.168,16 50,21.832 50,29 C50,29.673 49.947,30.351 49.844,31.014 C49.761,31.549 50.118,32.053 50.651,32.152 C54.909,32.939 58,36.66 58,41 C58,45.962 53.963,50 49,50 L49,50 Z" id="Shape" fill="#000000"></path>
        <path d="M32.293,40.293 L30,42.586 L30,25 C30,24.448 29.553,24 29,24 C28.447,24 28,24.448 28,25 L28,42.586 L25.707,40.293 C25.316,39.902 24.684,39.902 24.293,40.293 C23.902,40.684 23.902,41.316 24.293,41.707 L28.292,45.706 C28.384,45.799 28.495,45.872 28.618,45.923 C28.74,45.973 28.87,46 29,46 C29.13,46 29.26,45.973 29.382,45.923 C29.505,45.872 29.615,45.799 29.708,45.706 L33.707,41.707 C34.098,41.316 34.098,40.684 33.707,40.293 C33.316,39.902 32.684,39.902 32.293,40.293 L32.293,40.293 Z" id="Shape" fill="#000000"></path>
        <path d="M37.708,24.294 C37.616,24.201 37.505,24.128 37.382,24.077 C37.138,23.976 36.862,23.976 36.618,24.077 C36.495,24.128 36.385,24.201 36.292,24.294 L32.293,28.293 C31.902,28.684 31.902,29.316 32.293,29.707 C32.684,30.098 33.316,30.098 33.707,29.707 L36,27.414 L36,45 C36,45.552 36.447,46 37,46 C37.553,46 38,45.552 38,45 L38,27.414 L40.293,29.707 C40.488,29.902 40.744,30 41,30 C41.256,30 41.512,29.902 41.707,29.707 C42.098,29.316 42.098,28.684 41.707,28.293 L37.708,24.294 L37.708,24.294 Z" id="Shape" fill="#000000"></path>
    </g>
</svg>