<?xml version="1.0" encoding="UTF-8" standalone="no"?>
<svg width="44px" height="44px" viewBox="0 0 44 44" version="1.1" xmlns="http://www.w3.org/2000/svg" xmlns:xlink="http://www.w3.org/1999/xlink">
    <!-- Generator: Sketch 3.7.2 (28276) - http://www.bohemiancoding.com/sketch -->
    <title>clo-briefs</title>
    <desc>Created with Sketch.</desc>
    <defs></defs>
    <g id="44px-Glyph" stroke="none" stroke-width="1" fill="none" fill-rule="evenodd">
        <g id="clo-briefs" fill="#000000">
            <path d="M10.5724,28.124 C13.6644,24.793 15.7194,19.328 15.9534,14 L0.0004,14 L0.0004,23.612 C0.0004,24.118 0.3794,24.544 0.8814,24.604 C4.2044,25.002 7.3154,26.539 9.8294,28.854 L10.5724,28.124 Z" id="Fill-1"></path>
            <path d="M44.0001,12 L44.0001,9 C44.0001,8.448 43.5531,8 43.0001,8 L1.0001,8 C0.4471,8 0.0001,8.448 0.0001,9 L0.0001,12 L44.0001,12 Z" id="Fill-3"></path>
            <path d="M32.169,29.7148 C28.556,25.9468 26.278,20.0068 26.046,13.9998 L17.955,13.9998 C17.724,19.8778 15.505,25.7488 12.007,29.5178 L11.223,30.2888 C12.938,32.2618 14.271,34.6388 15.04,37.2798 C15.164,37.7068 15.556,37.9998 16,37.9998 L28,37.9998 C28.437,37.9998 28.823,37.7158 28.954,37.2998 C29.77,34.7028 31.15,32.3668 32.905,30.4348 L32.169,29.7148 Z" id="Fill-6"></path>
            <path d="M28.0236,14 C28.2596,19.443 30.3906,24.97 33.5896,28.308 L34.3246,29.027 C36.8246,26.82 39.8806,25.354 43.1196,24.967 C43.6216,24.907 44.0006,24.48 44.0006,23.974 L44.0006,14 L28.0236,14 Z" id="Fill-8"></path>
        </g>
    </g>
</svg>