<?xml version="1.0" encoding="UTF-8" standalone="no"?>
<svg width="64px" height="64px" viewBox="0 0 64 64" version="1.1" xmlns="http://www.w3.org/2000/svg" xmlns:xlink="http://www.w3.org/1999/xlink">
    <!-- Generator: Sketch 3.7.2 (28276) - http://www.bohemiancoding.com/sketch -->
    <title>clo-tie</title>
    <desc>Created with Sketch.</desc>
    <defs></defs>
    <g id="64px-Line" stroke="none" stroke-width="1" fill="none" fill-rule="evenodd">
        <g id="clo-tie"></g>
        <path d="M19.362,50.68 L26.986,58.716 C27.76,59.532 28.859,60 30,60 C31.141,60 32.24,59.532 33.014,58.716 L40.638,50.679 C41.793,49.461 42.252,47.77 41.868,46.162 L36.039,21.053 L39.828,10.004 C40.153,9.078 40.009,8.049 39.443,7.251 C38.88,6.456 38.002,6 37.035,6 L22.967,6 C22,6 21.122,6.456 20.559,7.251 C19.993,8.049 19.849,9.078 20.172,9.997 L23.963,21.053 L18.135,46.157 C17.748,47.77 18.208,49.461 19.362,50.68 L19.362,50.68 Z M22.189,8.407 C22.372,8.148 22.655,8 22.965,8 L37.033,8 C37.343,8 37.626,8.148 37.809,8.407 C38.004,8.681 38.051,9.022 37.936,9.348 L34.286,20 L25.715,20 L22.061,9.342 C21.948,9.022 21.995,8.682 22.189,8.407 L22.189,8.407 Z M20.08,46.615 L25.795,22 L34.206,22 L39.922,46.621 C40.15,47.574 39.875,48.577 39.187,49.303 L31.563,57.339 C30.754,58.193 29.246,58.193 28.437,57.339 L20.813,49.304 C20.125,48.577 19.851,47.574 20.08,46.615 L20.08,46.615 Z" id="Shape" fill="#000000"></path>
    </g>
</svg>