<?xml version="1.0" encoding="UTF-8" standalone="no"?>
<svg width="64px" height="64px" viewBox="0 0 64 64" version="1.1" xmlns="http://www.w3.org/2000/svg" xmlns:xlink="http://www.w3.org/1999/xlink">
    <!-- Generator: Sketch 3.7.2 (28276) - http://www.bohemiancoding.com/sketch -->
    <title>clo-sock-pop</title>
    <desc>Created with Sketch.</desc>
    <defs></defs>
    <g id="64px-Line" stroke="none" stroke-width="1" fill="none" fill-rule="evenodd">
        <g id="clo-sock-pop"></g>
        <path d="M53,12 L29,12 C28.448,12 28,12.447 28,13 L28,23 C28,23.845 27.671,24.643 27.052,25.268 L17.541,35.47 C17.54,35.471 17.539,35.472 17.538,35.473 C17.538,35.473 17.537,35.473 17.537,35.474 C17.537,35.474 17.537,35.475 17.536,35.475 C15.256,37.746 14,40.764 14,43.975 C14,47.188 15.257,50.208 17.541,52.48 C19.896,54.823 22.99,55.995 26.083,55.995 C29.176,55.995 32.269,54.823 34.624,52.481 L34.628,52.477 C34.628,52.477 34.629,52.477 34.629,52.476 C34.629,52.475 34.629,52.475 34.63,52.475 L46.72,40.549 L46.72,40.549 L50.579,36.743 C52.753,34.598 54,31.622 54,28.576 L54,13 C54,12.447 53.552,12 53,12 L53,12 Z M28.494,26.653 C29.466,25.674 30,24.376 30,23 L30,14 L52,14 L52,20.05 C51.667,20.02 51.334,20 51,20 C44.935,20 40,24.935 40,31 C40,34.673 41.666,38.01 44.415,40.014 L33.924,50.363 L19.638,36.152 L28.494,26.653 L28.494,26.653 Z M18.951,51.062 C17.048,49.168 16,46.652 16,43.975 C16,41.64 16.799,39.428 18.283,37.626 L32.467,51.735 C28.508,54.959 22.644,54.733 18.951,51.062 L18.951,51.062 Z M49.175,35.318 L45.87,38.578 C43.441,36.97 42,34.2 42,31 C42,26.037 46.038,22 51,22 C51.334,22 51.668,22.023 52,22.06 L52,28.576 C52,31.089 50.97,33.547 49.175,35.318 L49.175,35.318 Z" id="Shape" fill="#000000"></path>
    </g>
</svg>