<?xml version="1.0" encoding="UTF-8" standalone="no"?>
<svg width="64px" height="64px" viewBox="0 0 64 64" version="1.1" xmlns="http://www.w3.org/2000/svg" xmlns:xlink="http://www.w3.org/1999/xlink">
    <!-- Generator: Sketch 3.7.2 (28276) - http://www.bohemiancoding.com/sketch -->
    <title>clo-cloud-laptop</title>
    <desc>Created with Sketch.</desc>
    <defs></defs>
    <g id="64px-Line" stroke="none" stroke-width="1" fill="none" fill-rule="evenodd">
        <g id="clo-cloud-laptop"></g>
        <path d="M61,44 L58,44 L58,16 C58,13.794 56.206,12 54,12 L10,12 C7.794,12 6,13.794 6,16 L6,44 L3,44 C2.447,44 2,44.448 2,45 L2,48 C2,50.206 3.794,52 6,52 L58,52 C60.206,52 62,50.206 62,48 L62,45 C62,44.448 61.553,44 61,44 L61,44 Z M8,16 C8,14.897 8.897,14 10,14 L54,14 C55.103,14 56,14.897 56,16 L56,44 L8,44 L8,16 L8,16 Z M60,48 C60,49.103 59.103,50 58,50 L6,50 C4.897,50 4,49.103 4,48 L4,46 L60,46 L60,48 L60,48 Z" id="Shape" fill="#000000"></path>
        <path d="M53,16 L11,16 C10.447,16 10,16.448 10,17 L10,41 C10,41.552 10.447,42 11,42 L53,42 C53.553,42 54,41.552 54,41 L54,17 C54,16.448 53.553,16 53,16 L53,16 Z M52,40 L12,40 L12,18 L52,18 L52,40 L52,40 Z" id="Shape" fill="#000000"></path>
        <path d="M27,36 L36,36 C39.309,36 42,33.309 42,30 C42,26.691 39.309,24 36,24 C35.683,24 35.367,24.025 35.057,24.074 C34.126,22.778 32.633,22 31,22 C28.556,22 26.516,23.763 26.084,26.084 C23.763,26.516 22,28.556 22,31 C22,33.757 24.243,36 27,36 L27,36 Z M27,28 C27.553,28 28,27.552 28,27 C28,25.346 29.346,24 31,24 C32.142,24 33.17,24.634 33.683,25.655 C33.9,26.088 34.398,26.304 34.861,26.165 C35.228,26.055 35.611,26 36,26 C38.206,26 40,27.794 40,30 C40,32.206 38.206,34 36,34 L27,34 C25.346,34 24,32.654 24,31 C24,29.346 25.346,28 27,28 L27,28 Z" id="Shape" fill="#000000"></path>
    </g>
</svg>