<?xml version="1.0" encoding="UTF-8" standalone="no"?>
<svg width="64px" height="64px" viewBox="0 0 64 64" version="1.1" xmlns="http://www.w3.org/2000/svg" xmlns:xlink="http://www.w3.org/1999/xlink">
    <!-- Generator: Sketch 3.7.2 (28276) - http://www.bohemiancoding.com/sketch -->
    <title>clo-server-warning</title>
    <desc>Created with Sketch.</desc>
    <defs></defs>
    <g id="64px-Line" stroke="none" stroke-width="1" fill="none" fill-rule="evenodd">
        <g id="clo-server-warning"></g>
        <path d="M11,18 L41,18 C44.86,18 48,14.859 48,11 C48,7.141 44.86,4 41,4 L11,4 C7.14,4 4,7.141 4,11 C4,14.859 7.14,18 11,18 L11,18 Z M11,6 L41,6 C43.757,6 46,8.243 46,11 C46,13.757 43.757,16 41,16 L11,16 C8.243,16 6,13.757 6,11 C6,8.243 8.243,6 11,6 L11,6 Z" id="Shape" fill="#000000"></path>
        <path d="M13,14 C14.654,14 16,12.654 16,11 C16,9.346 14.654,8 13,8 C11.346,8 10,9.346 10,11 C10,12.654 11.346,14 13,14 L13,14 Z M13,10 C13.551,10 14,10.448 14,11 C14,11.552 13.551,12 13,12 C12.449,12 12,11.552 12,11 C12,10.448 12.449,10 13,10 L13,10 Z" id="Shape" fill="#000000"></path>
        <path d="M31,12 L41,12 C41.552,12 42,11.553 42,11 C42,10.447 41.552,10 41,10 L31,10 C30.448,10 30,10.447 30,11 C30,11.553 30.448,12 31,12 L31,12 Z" id="Shape" fill="#000000"></path>
        <path d="M11,34 L40.113,34 C40.665,34 41.113,33.553 41.113,33 C41.113,32.447 40.665,32 40.113,32 L11,32 C8.243,32 6,29.757 6,27 C6,24.243 8.243,22 11,22 L41,22 C43.757,22 46,24.243 46,27 C46,28.241 45.542,29.432 44.71,30.352 C44.339,30.762 44.372,31.394 44.781,31.765 C45.191,32.135 45.823,32.102 46.193,31.694 C47.358,30.405 48,28.739 48,27.001 C48,23.142 44.86,20.001 41,20.001 L11,20.001 C7.14,20.001 4,23.142 4,27.001 C4,30.86 7.14,34 11,34 L11,34 Z" id="Shape" fill="#000000"></path>
        <path d="M10,27 C10,28.654 11.346,30 13,30 C14.654,30 16,28.654 16,27 C16,25.346 14.654,24 13,24 C11.346,24 10,25.346 10,27 L10,27 Z M14,27 C14,27.552 13.551,28 13,28 C12.449,28 12,27.552 12,27 C12,26.448 12.449,26 13,26 C13.551,26 14,26.448 14,27 L14,27 Z" id="Shape" fill="#000000"></path>
        <path d="M31,26 C30.448,26 30,26.447 30,27 C30,27.553 30.448,28 31,28 L41,28 C41.552,28 42,27.553 42,27 C42,26.447 41.552,26 41,26 L31,26 L31,26 Z" id="Shape" fill="#000000"></path>
        <path d="M31.085,49 C31.085,48.447 30.637,48 30.085,48 L11,48 C8.243,48 6,45.757 6,43 C6,40.243 8.243,38 11,38 L37.417,38 C37.969,38 38.417,37.553 38.417,37 C38.417,36.447 37.969,36 37.417,36 L11,36 C7.14,36 4,39.141 4,43 C4,46.859 7.14,50 11,50 L30.085,50 C30.637,50 31.085,49.553 31.085,49 L31.085,49 Z" id="Shape" fill="#000000"></path>
        <path d="M10,43 C10,44.654 11.346,46 13,46 C14.654,46 16,44.654 16,43 C16,41.346 14.654,40 13,40 C11.346,40 10,41.346 10,43 L10,43 Z M14,43 C14,43.552 13.551,44 13,44 C12.449,44 12,43.552 12,43 C12,42.448 12.449,42 13,42 C13.551,42 14,42.448 14,43 L14,43 Z" id="Shape" fill="#000000"></path>
        <path d="M31,42 C30.448,42 30,42.447 30,43 C30,43.553 30.448,44 31,44 L33.75,44 C34.302,44 34.75,43.553 34.75,43 C34.75,42.447 34.302,42 33.75,42 L31,42 L31,42 Z" id="Shape" fill="#000000"></path>
        <path d="M59.533,54.128 L48.252,35.671 C47.502,34.625 46.286,34 45,34 C43.713,34 42.498,34.625 41.707,35.733 L30.467,54.128 C30.444,54.166 30.424,54.205 30.405,54.245 C30.364,54.34 30,55.188 30,56 C30,58.206 31.794,60 34,60 L56,60 C58.206,60 60,58.206 60,56 C60,55.188 59.636,54.34 59.595,54.245 C59.577,54.205 59.556,54.166 59.533,54.128 L59.533,54.128 Z M56,58 L34,58 C32.897,58 32,57.103 32,56 C32,55.728 32.123,55.33 32.213,55.106 L43.373,36.836 C43.749,36.312 44.357,35.999 45,35.999 C45.643,35.999 46.251,36.311 46.586,36.775 L57.787,55.105 C57.867,55.304 58,55.717 58,55.999 C58,57.103 57.103,58 56,58 L56,58 Z" id="Shape" fill="#000000"></path>
        <path d="M45,40 C44.448,40 44,40.447 44,41 L44,49 C44,49.553 44.448,50 45,50 C45.552,50 46,49.553 46,49 L46,41 C46,40.447 45.552,40 45,40 L45,40 Z" id="Shape" fill="#000000"></path>
        <path d="M44.62,52.08 C44.49,52.13 44.38,52.2 44.29,52.29 C44.11,52.479 44,52.74 44,53 C44,53.27 44.1,53.52 44.29,53.7 C44.39,53.8 44.5,53.87 44.62,53.92 C44.74,53.97 44.87,54 45,54 C45.27,54 45.52,53.899 45.71,53.7 C45.9,53.519 46,53.269 46,53 C46,52.74 45.89,52.479 45.71,52.29 C45.43,52.02 44.98,51.93 44.62,52.08 L44.62,52.08 Z" id="Shape" fill="#000000"></path>
    </g>
</svg>