<?xml version="1.0" encoding="UTF-8" standalone="no"?>
<svg width="64px" height="64px" viewBox="0 0 64 64" version="1.1" xmlns="http://www.w3.org/2000/svg" xmlns:xlink="http://www.w3.org/1999/xlink">
    <!-- Generator: Sketch 3.7.2 (28276) - http://www.bohemiancoding.com/sketch -->
    <title>clo-polo</title>
    <desc>Created with Sketch.</desc>
    <defs></defs>
    <g id="64px-Line" stroke="none" stroke-width="1" fill="none" fill-rule="evenodd">
        <g id="clo-polo"></g>
        <path d="M4.445,25.832 L13.445,31.832 C13.884,32.124 14.48,32.024 14.799,31.6 L16,30 L16,57 C16,57.552 16.448,58 17,58 L45,58 C45.552,58 46,57.552 46,57 L46,30 L47.2,31.6 C47.519,32.025 48.115,32.125 48.554,31.832 L57.554,25.832 C57.775,25.685 57.928,25.456 57.98,25.196 C58.032,24.936 57.979,24.666 57.832,24.445 L51.555,15.029 C50.315,13.169 48.563,11.747 46.406,10.888 L40.53,9.114 L37.708,6.292 C37.614,6.198 37.502,6.125 37.381,6.075 C37.258,6.026 37.129,6 37,6 L25,6 C24.871,6 24.742,6.026 24.62,6.076 C24.499,6.126 24.387,6.199 24.293,6.293 L21.471,9.115 L15.513,10.918 C13.438,11.748 11.685,13.169 10.446,15.03 L4.169,24.446 C4.022,24.667 3.968,24.937 4.021,25.197 C4.071,25.456 4.225,25.685 4.445,25.832 L4.445,25.832 Z M31,11.586 L27.414,8 L34.586,8 L31,11.586 L31,11.586 Z M37,8.414 L38.694,10.108 L34.873,15.458 L32.414,13 L37,8.414 L37,8.414 Z M25,8.414 L29.586,13 L27.128,15.458 L23.307,10.108 L25,8.414 L25,8.414 Z M12.109,16.139 C13.124,14.617 14.557,13.454 16.172,12.804 L21.602,11.164 L26.185,17.58 C26.356,17.819 26.623,17.971 26.916,17.996 C27.21,18.021 27.498,17.914 27.706,17.706 L30,15.414 L30,25 C30,25.552 30.448,26 31,26 C31.552,26 32,25.552 32,25 L32,15.414 L34.293,17.707 C34.481,17.896 34.736,18 35,18 C35.027,18 35.055,17.999 35.083,17.997 C35.376,17.973 35.644,17.821 35.814,17.581 L40.397,11.164 L45.745,12.775 C47.443,13.454 48.876,14.617 49.891,16.139 L55.614,24.722 L48.233,29.642 L45.8,26.4 C45.542,26.056 45.092,25.916 44.684,26.051 C44.275,26.188 44,26.569 44,27 L44,56 L18,56 L18,27 C18,26.569 17.725,26.188 17.316,26.051 C16.909,25.916 16.459,26.056 16.2,26.4 L13.767,29.643 L6.386,24.723 L12.109,16.139 L12.109,16.139 Z" id="Shape" fill="#000000"></path>
        <path d="M37,24 L41,24 C41.552,24 42,23.552 42,23 C42,22.448 41.552,22 41,22 L37,22 C36.448,22 36,22.448 36,23 C36,23.552 36.448,24 37,24 L37,24 Z" id="Shape" fill="#000000"></path>
    </g>
</svg>