<?xml version="1.0" encoding="UTF-8" standalone="no"?>
<svg width="64px" height="64px" viewBox="0 0 64 64" version="1.1" xmlns="http://www.w3.org/2000/svg" xmlns:xlink="http://www.w3.org/1999/xlink">
    <!-- Generator: Sketch 3.7.2 (28276) - http://www.bohemiancoding.com/sketch -->
    <title>clo-t</title>
    <desc>Created with Sketch.</desc>
    <defs></defs>
    <g id="64px-Line" stroke="none" stroke-width="1" fill="none" fill-rule="evenodd">
        <g id="clo-t"></g>
        <path d="M4.445,23.832 L13.445,29.832 C13.885,30.125 14.481,30.024 14.799,29.6 L16,28 L16,57 C16,57.552 16.448,58 17,58 L45,58 C45.552,58 46,57.552 46,57 L46,28 L47.2,29.6 C47.519,30.025 48.114,30.125 48.554,29.832 L57.554,23.832 C57.775,23.685 57.928,23.456 57.98,23.196 C58.032,22.936 57.979,22.666 57.832,22.445 L51.555,13.029 C50.315,11.169 48.563,9.747 46.488,8.917 L39.372,6.07 C39.263,6.027 39.15,6.01 39.037,6.006 C39.024,6.006 39.013,5.999 39,5.999 C38.989,5.999 38.979,6.005 38.968,6.005 C38.851,6.009 38.737,6.03 38.628,6.074 C38.61,6.081 38.595,6.092 38.578,6.1 C38.531,6.122 38.483,6.141 38.44,6.171 C38.414,6.189 38.399,6.217 38.375,6.237 C38.322,6.281 38.276,6.328 38.233,6.381 C38.194,6.43 38.16,6.478 38.13,6.533 C38.099,6.591 38.077,6.65 38.057,6.715 C38.046,6.75 38.023,6.78 38.016,6.817 C37.537,7.245 35.075,8 31,8 C26.925,8 24.463,7.245 23.983,6.818 C23.976,6.782 23.953,6.751 23.942,6.716 C23.923,6.652 23.901,6.592 23.869,6.534 C23.84,6.479 23.806,6.431 23.766,6.382 C23.723,6.328 23.677,6.281 23.624,6.238 C23.6,6.218 23.585,6.19 23.559,6.172 C23.516,6.143 23.469,6.124 23.422,6.102 C23.404,6.093 23.388,6.082 23.369,6.075 C23.261,6.032 23.147,6.011 23.031,6.007 C23.019,6.007 23.01,6 22.998,6 C22.985,6 22.974,6.007 22.96,6.008 C22.847,6.012 22.734,6.029 22.626,6.072 L15.51,8.919 C13.435,9.749 11.682,11.17 10.443,13.031 L4.166,22.447 C4.019,22.668 3.965,22.938 4.018,23.198 C4.071,23.456 4.225,23.685 4.445,23.832 L4.445,23.832 Z M37.208,9.301 C36.04,10.902 33.698,12 31,12 C28.302,12 25.96,10.902 24.792,9.301 C27.089,9.945 30.105,10 31,10 C31.895,10 34.911,9.945 37.208,9.301 L37.208,9.301 Z M12.109,14.139 C13.124,12.617 14.557,11.454 16.255,10.775 L22.182,8.404 C23.021,11.593 26.656,14 31,14 C35.344,14 38.979,11.593 39.818,8.404 L45.745,10.775 C47.443,11.454 48.876,12.617 49.891,14.139 L55.614,22.722 L48.233,27.642 L45.8,24.4 C45.542,24.056 45.092,23.914 44.684,24.051 C44.275,24.188 44,24.569 44,25 L44,56 L18,56 L18,25 C18,24.569 17.725,24.188 17.316,24.051 C16.907,23.914 16.458,24.056 16.2,24.4 L13.767,27.643 L6.386,22.723 L12.109,14.139 L12.109,14.139 Z" id="Shape" fill="#000000"></path>
    </g>
</svg>