<?xml version="1.0" encoding="UTF-8" standalone="no"?>
<svg width="64px" height="64px" viewBox="0 0 64 64" version="1.1" xmlns="http://www.w3.org/2000/svg" xmlns:xlink="http://www.w3.org/1999/xlink">
    <!-- Generator: Sketch 3.7.2 (28276) - http://www.bohemiancoding.com/sketch -->
    <title>clo-cabinet-2</title>
    <desc>Created with Sketch.</desc>
    <defs></defs>
    <g id="64px-Line" stroke="none" stroke-width="1" fill="none" fill-rule="evenodd">
        <g id="clo-cabinet-2"></g>
        <path d="M51,6 L13,6 C12.447,6 12,6.447 12,7 L12,59 C12,59.553 12.447,60 13,60 L51,60 C51.553,60 52,59.553 52,59 L52,7 C52,6.447 51.553,6 51,6 L51,6 Z M50,58 L14,58 L14,8 L50,8 L50,58 L50,58 Z" id="Shape" fill="#000000"></path>
        <path d="M19,54 L45,54 C45.553,54 46,53.553 46,53 L46,13 C46,12.447 45.553,12 45,12 L19,12 C18.447,12 18,12.447 18,13 L18,53 C18,53.553 18.447,54 19,54 L19,54 Z M44,38 L44,44 L20,44 L20,38 L44,38 L44,38 Z M20,36 L20,30 L44,30 L44,36 L20,36 L20,36 Z M44,28 L20,28 L20,22 L44,22 L44,28 L44,28 Z M20,52 L20,46 L44,46 L44,52 L20,52 L20,52 Z M44,14 L44,20 L20,20 L20,14 L44,14 L44,14 Z" id="Shape" fill="#000000"></path>
        <path d="M41,48 L37,48 C36.447,48 36,48.447 36,49 C36,49.553 36.447,50 37,50 L41,50 C41.553,50 42,49.553 42,49 C42,48.447 41.553,48 41,48 L41,48 Z" id="Shape" fill="#000000"></path>
        <path d="M23.71,48.29 C23.48,48.06 23.13,47.95 22.81,48.019 C22.741,48.03 22.68,48.049 22.621,48.08 C22.56,48.1 22.501,48.13 22.44,48.17 C22.39,48.2 22.34,48.25 22.291,48.29 C22.201,48.39 22.131,48.5 22.081,48.62 C22.02,48.74 22.001,48.87 22.001,49 C22.001,49.27 22.101,49.52 22.291,49.71 C22.48,49.899 22.73,50 23.001,50 C23.271,50 23.521,49.899 23.711,49.71 C23.9,49.52 24.001,49.27 24.001,49 C24.001,48.87 23.971,48.74 23.921,48.62 C23.871,48.5 23.8,48.39 23.71,48.29 L23.71,48.29 Z" id="Shape" fill="#000000"></path>
        <path d="M37,42 L41,42 C41.553,42 42,41.553 42,41 C42,40.447 41.553,40 41,40 L37,40 C36.447,40 36,40.447 36,41 C36,41.553 36.447,42 37,42 L37,42 Z" id="Shape" fill="#000000"></path>
        <path d="M22.069,41.38 C22.13,41.5 22.2,41.609 22.29,41.71 C22.39,41.8 22.5,41.87 22.62,41.92 C22.74,41.97 22.87,42 23,42 C23.13,42 23.26,41.97 23.38,41.92 C23.5,41.87 23.609,41.8 23.71,41.71 C23.8,41.609 23.87,41.5 23.92,41.38 C23.97,41.26 24,41.13 24,41 C24,40.87 23.97,40.74 23.92,40.62 C23.87,40.5 23.8,40.39 23.71,40.29 C23.48,40.06 23.13,39.95 22.81,40.019 C22.741,40.03 22.68,40.049 22.621,40.08 C22.56,40.1 22.501,40.13 22.44,40.17 C22.39,40.21 22.34,40.25 22.291,40.29 C22.201,40.39 22.131,40.5 22.081,40.62 C22.02,40.74 22.001,40.87 22.001,41 C22.001,41.13 22.02,41.26 22.069,41.38 L22.069,41.38 Z" id="Shape" fill="#000000"></path>
        <path d="M41,32 L37,32 C36.447,32 36,32.447 36,33 C36,33.553 36.447,34 37,34 L41,34 C41.553,34 42,33.553 42,33 C42,32.447 41.553,32 41,32 L41,32 Z" id="Shape" fill="#000000"></path>
        <path d="M22.81,32.02 C22.741,32.031 22.68,32.05 22.621,32.081 C22.56,32.101 22.501,32.131 22.44,32.171 C22.39,32.211 22.34,32.251 22.291,32.291 C22.11,32.48 22.001,32.73 22.001,33.001 C22.001,33.271 22.101,33.521 22.291,33.711 C22.391,33.801 22.501,33.871 22.621,33.921 C22.741,33.971 22.87,34 23,34 C23.13,34 23.26,33.97 23.38,33.92 C23.5,33.87 23.609,33.8 23.71,33.71 C23.899,33.52 24,33.27 24,33 C24,32.729 23.89,32.479 23.71,32.29 C23.479,32.06 23.13,31.95 22.81,32.02 L22.81,32.02 Z" id="Shape" fill="#000000"></path>
        <path d="M37,26 L41,26 C41.553,26 42,25.553 42,25 C42,24.447 41.553,24 41,24 L37,24 C36.447,24 36,24.447 36,25 C36,25.553 36.447,26 37,26 L37,26 Z" id="Shape" fill="#000000"></path>
        <path d="M22.069,25.38 C22.13,25.5 22.2,25.609 22.29,25.71 C22.39,25.8 22.5,25.87 22.62,25.93 C22.74,25.98 22.87,26 23,26 C23.13,26 23.26,25.979 23.38,25.93 C23.5,25.87 23.609,25.8 23.71,25.71 C23.8,25.609 23.87,25.5 23.92,25.38 C23.97,25.26 24,25.13 24,25 C24,24.87 23.97,24.74 23.92,24.62 C23.87,24.49 23.8,24.39 23.71,24.29 C23.48,24.06 23.13,23.95 22.81,24.019 C22.741,24.03 22.68,24.049 22.621,24.08 C22.56,24.1 22.501,24.13 22.44,24.17 C22.39,24.2 22.34,24.25 22.291,24.29 C22.201,24.39 22.131,24.49 22.081,24.62 C22.02,24.74 22.001,24.87 22.001,25 C22.001,25.13 22.02,25.26 22.069,25.38 L22.069,25.38 Z" id="Shape" fill="#000000"></path>
        <path d="M37,18 L41,18 C41.553,18 42,17.553 42,17 C42,16.447 41.553,16 41,16 L37,16 C36.447,16 36,16.447 36,17 C36,17.553 36.447,18 37,18 L37,18 Z" id="Shape" fill="#000000"></path>
        <path d="M22.29,17.71 C22.39,17.8 22.5,17.87 22.62,17.92 C22.74,17.97 22.87,18 23,18 C23.13,18 23.26,17.97 23.38,17.92 C23.5,17.87 23.609,17.8 23.71,17.71 C23.8,17.609 23.87,17.5 23.92,17.38 C23.97,17.26 24,17.13 24,17 C24,16.74 23.89,16.479 23.71,16.29 C23.34,15.92 22.66,15.92 22.29,16.29 C22.109,16.479 22,16.74 22,17 C22,17.13 22.02,17.26 22.069,17.38 C22.13,17.5 22.2,17.609 22.29,17.71 L22.29,17.71 Z" id="Shape" fill="#000000"></path>
    </g>
</svg>