<?xml version="1.0" encoding="UTF-8" standalone="no"?>
<svg width="44px" height="44px" viewBox="0 0 44 44" version="1.1" xmlns="http://www.w3.org/2000/svg" xmlns:xlink="http://www.w3.org/1999/xlink">
    <!-- Generator: Sketch 3.7.2 (28276) - http://www.bohemiancoding.com/sketch -->
    <title>clo-vest-string</title>
    <desc>Created with Sketch.</desc>
    <defs></defs>
    <g id="44px-Glyph" stroke="none" stroke-width="1" fill="none" fill-rule="evenodd">
        <g id="clo-vest-string" fill="#000000">
            <polygon id="Fill-99" points="17.0001 37.4141 13.4141 41.0001 16.4141 44.0001 17.5861 44.0001 20.5861 41.0001"></polygon>
            <polygon id="Fill-101" points="27.0001 37.4141 23.4141 41.0001 26.4141 44.0001 27.5861 44.0001 30.5861 41.0001"></polygon>
            <polygon id="Fill-103" points="7.0001 27.4141 6.0001 28.4141 6.0001 33.5861 7.0001 34.5861 10.5861 31.0001"></polygon>
            <polygon id="Fill-105" points="32.0001 22.4141 28.4141 26.0001 32.0001 29.5861 35.5861 26.0001"></polygon>
            <polygon id="Fill-107" points="17.0001 34.5859 20.5861 30.9999 17.0001 27.4139 13.4141 30.9999"></polygon>
            <polygon id="Fill-109" points="22.0001 22.4141 18.4141 26.0001 22.0001 29.5861 25.5861 26.0001"></polygon>
            <polygon id="Fill-111" points="30.586 31 27 27.414 23.414 31 27 34.586"></polygon>
            <path d="M7.0001,37.4141 L6.0001,38.4141 L6.0001,43.0001 C6.0001,43.5521 6.4481,44.0001 7.0001,44.0001 L7.5861,44.0001 L10.5861,41.0001 L7.0001,37.4141 Z" id="Fill-113"></path>
            <path d="M37.0001,37.4141 L33.4141,41.0001 L36.4141,44.0001 L37.0001,44.0001 C37.5521,44.0001 38.0001,43.5521 38.0001,43.0001 L38.0001,38.4141 L37.0001,37.4141 Z" id="Fill-115"></path>
            <path d="M10.586,21 L6.126,16.54 C6.052,16.68 6,16.831 6,17 L6,23.586 L7,24.586 L10.586,21 Z" id="Fill-117"></path>
            <path d="M17.0001,14.5859 L19.9531,11.6329 C18.2911,11.0269 16.9731,9.7089 16.3671,8.0469 L13.4141,10.9999 L17.0001,14.5859 Z" id="Fill-119"></path>
            <path d="M27.0001,14.5859 L30.5861,10.9999 L27.6331,8.0469 C27.0271,9.7089 25.7091,11.0269 24.0471,11.6329 L27.0001,14.5859 Z" id="Fill-121"></path>
            <path d="M15.586,16 L12,12.414 L9.332,15.082 C9.2,15.214 9.038,15.285 8.87,15.327 C8.657,15.499 8.429,15.651 8.174,15.76 L12,19.586 L15.586,16 Z" id="Fill-123"></path>
            <polygon id="Fill-125" points="10.0001 10.4141 10.0001 11.5861 10.5861 11.0001"></polygon>
            <polygon id="Fill-127" points="37.0001 27.4141 33.4141 31.0001 37.0001 34.5861 38.0001 33.5861 38.0001 28.4141"></polygon>
            <polygon id="Fill-129" points="22.0001 42.4141 20.4141 44.0001 23.5861 44.0001"></polygon>
            <polygon id="Fill-131" points="12.0001 42.4141 10.4141 44.0001 13.5861 44.0001"></polygon>
            <path d="M32.0001,19.5859 L35.8261,15.7599 C35.5931,15.6599 35.3821,15.5239 35.1831,15.3709 C35.0111,15.3289 34.8441,15.2589 34.7101,15.1239 L32.0001,12.4139 L28.4141,15.9999 L32.0001,19.5859 Z" id="Fill-133"></path>
            <polygon id="Fill-135" points="23.4142 21 27.0002 24.586 30.5862 21 27.0002 17.414"></polygon>
            <polygon id="Fill-137" points="32.0001 42.4141 30.4141 44.0001 33.5861 44.0001"></polygon>
            <path d="M12.0001,9.5859 L16.0001,5.5859 L16.0001,0.9999 C16.0001,0.4479 15.5521,-0.0001 15.0001,-0.0001 L11.0001,-0.0001 C10.4481,-0.0001 10.0001,0.4479 10.0001,0.9999 L10.0001,7.5859 L12.0001,9.5859 Z" id="Fill-139"></path>
            <path d="M32.0001,9.5859 L34.0001,7.5859 L34.0001,0.9999 C34.0001,0.4479 33.5521,-0.0001 33.0001,-0.0001 L29.0001,-0.0001 C28.4481,-0.0001 28.0001,0.4479 28.0001,0.9999 L28.0001,5.5859 L32.0001,9.5859 Z" id="Fill-141"></path>
            <polygon id="Fill-143" points="34.0001 11.5859 34.0001 10.4139 33.4141 10.9999"></polygon>
            <path d="M37.0001,24.5859 L38.0001,23.5859 L38.0001,16.9999 C38.0001,16.8309 37.9481,16.6799 37.8741,16.5399 L33.4141,20.9999 L37.0001,24.5859 Z" id="Fill-145"></path>
            <polygon id="Fill-147" points="18.4142 16 22.0002 19.586 25.5862 16 22.0002 12.414"></polygon>
            <polygon id="Fill-149" points="12.0001 29.5859 15.5861 25.9999 12.0001 22.4139 8.4141 25.9999"></polygon>
            <polygon id="Fill-151" points="17.0001 24.5859 20.5861 20.9999 17.0001 17.4139 13.4141 20.9999"></polygon>
            <polygon id="Fill-153" points="32.0001 32.4141 28.4141 36.0001 32.0001 39.5861 35.5861 36.0001"></polygon>
            <polygon id="Fill-155" points="22.0001 32.4141 18.4141 36.0001 22.0001 39.5861 25.5861 36.0001"></polygon>
            <polygon id="Fill-157" points="15.586 36 12 32.414 8.414 36 12 39.586"></polygon>
        </g>
    </g>
</svg>