<?xml version="1.0" encoding="UTF-8" standalone="no"?>
<svg width="44px" height="44px" viewBox="0 0 44 44" version="1.1" xmlns="http://www.w3.org/2000/svg" xmlns:xlink="http://www.w3.org/1999/xlink">
    <!-- Generator: Sketch 3.7.2 (28276) - http://www.bohemiancoding.com/sketch -->
    <title>clo-pants</title>
    <desc>Created with Sketch.</desc>
    <defs></defs>
    <g id="44px-Line" stroke="none" stroke-width="1" fill="none" fill-rule="evenodd">
        <g id="clo-pants"></g>
        <path d="M4.219,42.625 C4.387,42.835 4.633,42.968 4.9,42.995 L14.9,43.995 C15.414,44.051 15.875,43.704 15.979,43.203 L21,18.936 L26.021,43.203 C26.118,43.671 26.531,44 27,44 C27.033,44 27.067,43.999 27.101,43.995 L37.101,42.995 C37.369,42.968 37.614,42.835 37.782,42.625 C37.95,42.415 38.027,42.146 37.994,41.879 L33.498,5.015 C33.498,5.01 33.501,5.006 33.501,5 C33.501,4.979 33.49,4.961 33.489,4.941 L32.994,0.879 C32.932,0.377 32.505,0 32,0 L10,0 C9.495,0 9.068,0.377 9.007,0.879 L8.512,4.941 C8.511,4.962 8.5,4.979 8.5,5 C8.5,5.005 8.503,5.009 8.503,5.015 L4.007,41.879 C3.975,42.146 4.051,42.415 4.219,42.625 L4.219,42.625 Z M27.797,41.916 L22,13.896 L22,6 L31.603,6 L35.884,41.106 L27.797,41.916 L27.797,41.916 Z M31.115,2 L31.359,4 L10.642,4 L10.886,2 L31.115,2 L31.115,2 Z M10.397,6 L20,6 L20,13.896 L14.203,41.915 L6.116,41.106 L10.397,6 L10.397,6 Z" id="Shape" fill="#000000"></path>
        <path d="M16,9 C16,8.448 15.552,8 15,8 C14.448,8 14,8.448 14,9 C14,10.654 12.654,12 11,12 C10.448,12 10,12.448 10,13 C10,13.552 10.448,14 11,14 C13.757,14 16,11.757 16,9 L16,9 Z" id="Shape" fill="#000000"></path>
        <path d="M31,12 C29.346,12 28,10.654 28,9 C28,8.448 27.552,8 27,8 C26.448,8 26,8.448 26,9 C26,11.757 28.243,14 31,14 C31.552,14 32,13.552 32,13 C32,12.448 31.552,12 31,12 L31,12 Z" id="Shape" fill="#000000"></path>
    </g>
</svg>