<?xml version="1.0" encoding="UTF-8" standalone="no"?>
<svg width="64px" height="64px" viewBox="0 0 64 64" version="1.1" xmlns="http://www.w3.org/2000/svg" xmlns:xlink="http://www.w3.org/1999/xlink">
    <!-- Generator: Sketch 3.7.2 (28276) - http://www.bohemiancoding.com/sketch -->
    <title>clo-cloud-folder</title>
    <desc>Created with Sketch.</desc>
    <defs></defs>
    <g id="64px-Line" stroke="none" stroke-width="1" fill="none" fill-rule="evenodd">
        <g id="clo-cloud-folder"></g>
        <path d="M8,56 L56,56 C58.206,56 60,54.206 60,52 L60,21 C60,20.448 59.552,20 59,20 L56,20 L56,18 C56,15.794 54.206,14 52,14 L28,14 C26,14 25.497,13.329 24.8,12.4 C23.998,11.331 23,10 20,10 L8,10 C5.794,10 4,11.794 4,14 L4,52 C4,54.206 5.794,56 8,56 L8,56 Z M58,52 C58,53.103 57.103,54 56,54 L10,54 L10,22 L58,22 L58,52 L58,52 Z M6,14 C6,12.897 6.897,12 8,12 L20,12 C22,12 22.503,12.671 23.2,13.6 C24.002,14.669 25,16 28,16 L52,16 C53.103,16 54,16.897 54,18 L54,20 L9,20 C8.448,20 8,20.448 8,21 L8,54 C6.897,54 6,53.103 6,52 L6,14 L6,14 Z" id="Shape" fill="#000000"></path>
        <path d="M39.778,31 C39.253,31 38.731,31.051 38.22,31.153 C36.974,29.19 34.869,28 32.555,28 C29.124,28 26.28,30.646 25.837,34.067 C22.544,34.541 20,37.47 20,41 C20,44.86 23.041,48 26.778,48 L39.778,48 C44.312,48 48,44.187 48,39.5 C48,34.813 44.312,31 39.778,31 L39.778,31 Z M39.778,46 L26.778,46 C24.144,46 22,43.757 22,41 C22,38.243 24.144,36 26.778,36 C27.33,36 27.778,35.552 27.778,35 C27.778,32.243 29.922,30 32.556,30 C34.367,30 36.002,31.052 36.822,32.745 C37.037,33.189 37.543,33.409 38.015,33.264 C38.584,33.089 39.178,33 39.778,33 C43.209,33 46,35.916 46,39.5 C46,43.084 43.209,46 39.778,46 L39.778,46 Z" id="Shape" fill="#000000"></path>
    </g>
</svg>