<?xml version="1.0" encoding="UTF-8" standalone="no"?>
<svg width="64px" height="64px" viewBox="0 0 64 64" version="1.1" xmlns="http://www.w3.org/2000/svg" xmlns:xlink="http://www.w3.org/1999/xlink">
    <!-- Generator: Sketch 3.7.2 (28276) - http://www.bohemiancoding.com/sketch -->
    <title>clo-no-heels</title>
    <desc>Created with Sketch.</desc>
    <defs></defs>
    <g id="64px-Line" stroke="none" stroke-width="1" fill="none" fill-rule="evenodd">
        <g id="clo-no-heels"></g>
        <path d="M14,55 L14,53.242 C14,52.69 13.553,52.242 13,52.242 C12.447,52.242 12,52.69 12,53.242 L12,55 C12,55.552 12.447,56 13,56 C13.553,56 14,55.552 14,55 L14,55 Z" id="Shape" fill="#000000"></path>
        <path d="M14.557,12.136 C16.078,14.401 21.772,22.806 26.845,29.32 C27.184,29.756 27.812,29.834 28.248,29.495 C28.684,29.156 28.762,28.527 28.423,28.092 C22.583,20.593 15.9,10.549 15.833,10.448 C15.616,10.123 15.234,9.952 14.846,10.013 C14.753,10.027 12.549,10.388 10.363,12.2 C8.372,13.847 6,17.058 6,23 C6,27.884 7.222,29.495 8.516,31.202 C10.028,33.195 11.741,35.454 11.974,44.809 C11.975,44.846 11.992,44.876 11.997,44.912 C12.006,44.978 12.018,45.04 12.04,45.102 C12.061,45.163 12.086,45.219 12.118,45.274 C12.149,45.329 12.183,45.378 12.224,45.426 C12.266,45.475 12.311,45.517 12.362,45.557 C12.411,45.596 12.46,45.629 12.516,45.659 C12.576,45.69 12.637,45.712 12.704,45.731 C12.74,45.741 12.77,45.765 12.808,45.771 C12.864,45.78 12.919,45.784 12.973,45.785 L12.974,45.785 L12.975,45.785 L12.975,45.785 L12.975,45.785 L12.999,45.785 C13.027,45.784 13.05,45.77 13.078,45.767 C13.173,45.757 13.266,45.74 13.353,45.704 C13.397,45.686 13.434,45.658 13.475,45.633 C13.54,45.595 13.601,45.556 13.656,45.505 C13.693,45.47 13.721,45.431 13.753,45.39 C13.797,45.334 13.836,45.277 13.867,45.212 C13.891,45.163 13.906,45.113 13.922,45.06 C13.933,45.023 13.954,44.991 13.961,44.952 C14.216,43.437 15.363,38.461 19.414,38.033 C19.963,37.975 20.361,37.482 20.303,36.933 C20.246,36.384 19.759,35.992 19.203,36.043 C16.471,36.332 14.745,38.017 13.662,39.861 C12.985,33.787 11.418,31.72 10.11,29.995 C8.931,28.439 8,27.211 8,23 C8,14.855 12.828,12.66 14.557,12.136 L14.557,12.136 Z" id="Shape" fill="#000000"></path>
        <path d="M47.227,42.026 C40.405,40.443 39.691,40.277 33.705,34.29 L33.547,34.13 C33.163,33.735 32.528,33.728 32.133,34.112 C31.737,34.498 31.73,35.131 32.115,35.527 L32.294,35.707 C38.475,41.888 39.483,42.281 46.774,43.974 C53.365,45.504 57.572,47.755 57.969,54 L39,54 C34.619,54 31.736,49.194 28.949,44.546 C28.222,43.335 27.537,42.192 26.818,41.119 C26.509,40.66 25.889,40.537 25.43,40.844 C24.971,41.152 24.848,41.773 25.156,42.231 C25.847,43.263 26.52,44.386 27.233,45.575 C30.165,50.461 33.486,56 39,56 L59,56 C59.553,56 60,55.552 60,55 C60,46.204 53.86,43.566 47.227,42.026 L47.227,42.026 Z" id="Shape" fill="#000000"></path>
        <path d="M4.293,57.707 C4.488,57.902 4.744,58 5,58 C5.256,58 5.512,57.902 5.707,57.707 L51.707,11.707 C52.098,11.316 52.098,10.684 51.707,10.293 C51.316,9.902 50.684,9.902 50.293,10.293 L4.293,56.293 C3.902,56.684 3.902,57.316 4.293,57.707 L4.293,57.707 Z" id="Shape" fill="#000000"></path>
    </g>
</svg>