<?xml version="1.0" encoding="UTF-8" standalone="no"?>
<svg width="64px" height="64px" viewBox="0 0 64 64" version="1.1" xmlns="http://www.w3.org/2000/svg" xmlns:xlink="http://www.w3.org/1999/xlink">
    <!-- Generator: Sketch 3.7.2 (28276) - http://www.bohemiancoding.com/sketch -->
    <title>clo-server-edit</title>
    <desc>Created with Sketch.</desc>
    <defs></defs>
    <g id="64px-Line" stroke="none" stroke-width="1" fill="none" fill-rule="evenodd">
        <g id="clo-server-edit"></g>
        <path d="M11,18 L41,18 C44.86,18 48,14.859 48,11 C48,7.141 44.86,4 41,4 L11,4 C7.14,4 4,7.141 4,11 C4,14.859 7.14,18 11,18 L11,18 Z M11,6 L41,6 C43.757,6 46,8.243 46,11 C46,13.757 43.757,16 41,16 L11,16 C8.243,16 6,13.757 6,11 C6,8.243 8.243,6 11,6 L11,6 Z" id="Shape" fill="#000000"></path>
        <path d="M13,14 C14.654,14 16,12.654 16,11 C16,9.346 14.654,8 13,8 C11.346,8 10,9.346 10,11 C10,12.654 11.346,14 13,14 L13,14 Z M13,10 C13.551,10 14,10.448 14,11 C14,11.552 13.551,12 13,12 C12.449,12 12,11.552 12,11 C12,10.448 12.449,10 13,10 L13,10 Z" id="Shape" fill="#000000"></path>
        <path d="M31,12 L41,12 C41.552,12 42,11.553 42,11 C42,10.447 41.552,10 41,10 L31,10 C30.448,10 30,10.447 30,11 C30,11.553 30.448,12 31,12 L31,12 Z" id="Shape" fill="#000000"></path>
        <path d="M11,34 L41,34 C44.86,34 48,30.859 48,27 C48,23.141 44.86,20 41,20 L11,20 C7.14,20 4,23.141 4,27 C4,30.859 7.14,34 11,34 L11,34 Z M11,22 L41,22 C43.757,22 46,24.243 46,27 C46,29.757 43.757,32 41,32 L11,32 C8.243,32 6,29.757 6,27 C6,24.243 8.243,22 11,22 L11,22 Z" id="Shape" fill="#000000"></path>
        <path d="M13,30 C14.654,30 16,28.654 16,27 C16,25.346 14.654,24 13,24 C11.346,24 10,25.346 10,27 C10,28.654 11.346,30 13,30 L13,30 Z M13,26 C13.551,26 14,26.448 14,27 C14,27.552 13.551,28 13,28 C12.449,28 12,27.552 12,27 C12,26.448 12.449,26 13,26 L13,26 Z" id="Shape" fill="#000000"></path>
        <path d="M31,28 L41,28 C41.552,28 42,27.553 42,27 C42,26.447 41.552,26 41,26 L31,26 C30.448,26 30,26.447 30,27 C30,27.553 30.448,28 31,28 L31,28 Z" id="Shape" fill="#000000"></path>
        <path d="M34.448,49 C34.448,48.447 34,48 33.448,48 L11,48 C8.243,48 6,45.757 6,43 C6,40.243 8.243,38 11,38 L41,38 C41.943,38 42.862,38.264 43.656,38.763 C44.124,39.057 44.74,38.915 45.034,38.449 C45.328,37.981 45.187,37.364 44.719,37.07 C43.606,36.37 42.32,36 41,36 L11,36 C7.14,36 4,39.141 4,43 C4,46.859 7.14,50 11,50 L33.448,50 C34,50 34.448,49.553 34.448,49 L34.448,49 Z" id="Shape" fill="#000000"></path>
        <path d="M10,43 C10,44.654 11.346,46 13,46 C14.654,46 16,44.654 16,43 C16,41.346 14.654,40 13,40 C11.346,40 10,41.346 10,43 L10,43 Z M14,43 C14,43.552 13.551,44 13,44 C12.449,44 12,43.552 12,43 C12,42.448 12.449,42 13,42 C13.551,42 14,42.448 14,43 L14,43 Z" id="Shape" fill="#000000"></path>
        <path d="M31,42 C30.448,42 30,42.447 30,43 C30,43.553 30.448,44 31,44 L39.13,44 C39.682,44 40.13,43.553 40.13,43 C40.13,42.447 39.682,42 39.13,42 L31,42 L31,42 Z" id="Shape" fill="#000000"></path>
        <path d="M57.204,32.729 C56.272,31.79 54.614,31.815 53.735,32.704 L51.945,34.381 C51.941,34.385 51.939,34.391 51.935,34.395 C51.93,34.399 51.924,34.401 51.92,34.405 L36.7,49.697 C36.699,49.697 36.698,49.698 36.698,49.698 C36.697,49.698 36.697,49.699 36.697,49.7 L36.332,50.067 C36.255,50.144 36.191,50.233 36.143,50.332 L32.104,58.561 C31.915,58.946 31.992,59.408 32.295,59.709 C32.487,59.9 32.742,60.001 33.002,60.001 C33.152,60.001 33.304,59.967 33.445,59.897 L41.635,55.839 C41.733,55.79 41.823,55.726 41.9,55.648 L42.273,55.273 L42.274,55.273 L42.274,55.273 L57.466,40.012 L57.467,40.012 L59.279,38.309 C60.239,37.348 60.24,35.78 59.28,34.811 L57.204,32.729 L57.204,32.729 Z M37.562,51.976 L40.001,54.415 L35.195,56.795 L37.562,51.976 L37.562,51.976 Z M41.564,53.15 L38.817,50.403 L52.629,36.527 L55.37,39.281 L41.564,53.15 L41.564,53.15 Z M57.886,36.872 L56.805,37.887 L54.065,35.134 L55.129,34.136 C55.247,34.017 55.385,33.999 55.457,33.999 C55.529,33.999 55.666,34.017 55.786,34.138 L57.861,36.219 C58.046,36.407 58.047,36.71 57.886,36.872 L57.886,36.872 Z" id="Shape" fill="#000000"></path>
    </g>
</svg>