<?xml version="1.0" encoding="UTF-8" standalone="no"?>
<svg width="44px" height="44px" viewBox="0 0 44 44" version="1.1" xmlns="http://www.w3.org/2000/svg" xmlns:xlink="http://www.w3.org/1999/xlink">
    <!-- Generator: Sketch 3.7.2 (28276) - http://www.bohemiancoding.com/sketch -->
    <title>clo-screen</title>
    <desc>Created with Sketch.</desc>
    <defs></defs>
    <g id="44px-Line" stroke="none" stroke-width="1" fill="none" fill-rule="evenodd">
        <g id="clo-screen"></g>
        <path d="M42.453,13.622 C39.771,11.932 32.409,8 22,8 C11.591,8 4.229,11.932 1.547,13.622 C0.578,14.233 0,15.272 0,16.403 L0,22.672 C0,23.741 0.507,24.717 1.392,25.351 C1.916,25.726 2.529,25.932 3.158,25.979 L4.14,35.064 C4.297,36.156 4.951,37.08 5.931,37.597 C6.444,37.868 6.998,38.003 7.554,38.003 C8.077,38.003 8.603,37.883 9.095,37.642 C9.603,37.392 10.17,37.086 10.791,36.75 C13.599,35.232 17.444,33.153 22,33.153 C26.556,33.153 30.401,35.232 33.209,36.75 C33.83,37.086 34.397,37.392 34.905,37.641 C35.92,38.139 37.073,38.122 38.069,37.597 C39.049,37.079 39.703,36.156 39.865,35.028 L40.843,25.967 C41.471,25.92 42.084,25.725 42.608,25.351 C43.493,24.717 44,23.741 44,22.672 L44,16.403 C44,15.272 43.422,14.232 42.453,13.622 L42.453,13.622 Z M37.882,34.776 C37.817,35.229 37.544,35.612 37.136,35.828 C36.712,36.05 36.221,36.057 35.786,35.845 C35.298,35.607 34.755,35.313 34.16,34.991 C31.333,33.464 27.061,31.154 22,31.154 C16.939,31.154 12.667,33.464 9.84,34.991 C9.245,35.313 8.702,35.607 8.214,35.846 C7.779,36.058 7.287,36.051 6.864,35.828 C6.456,35.612 6.183,35.229 6.123,34.812 L5.13,25.613 C9.293,24.201 15.959,22 22,22 C28.041,22 34.708,24.201 38.87,25.613 L37.882,34.776 L37.882,34.776 Z M42,22.671 C42,23.088 41.797,23.471 41.443,23.724 C41.052,24.005 40.562,24.077 40.099,23.917 L39.91,23.854 C35.667,22.413 28.563,20 22,20 C15.437,20 8.333,22.413 4.09,23.854 L3.901,23.917 C3.436,24.076 2.948,24.005 2.557,23.724 C2.203,23.471 2,23.087 2,22.671 L2,16.402 C2,15.962 2.229,15.555 2.613,15.313 C5.148,13.716 12.112,10 22,10 C31.888,10 38.852,13.716 41.387,15.314 C41.771,15.556 42,15.963 42,16.403 L42,22.671 L42,22.671 Z" id="Shape" fill="#000000"></path>
    </g>
</svg>