<?xml version="1.0" encoding="UTF-8" standalone="no"?>
<svg width="64px" height="64px" viewBox="0 0 64 64" version="1.1" xmlns="http://www.w3.org/2000/svg" xmlns:xlink="http://www.w3.org/1999/xlink">
    <!-- Generator: Sketch 3.7.2 (28276) - http://www.bohemiancoding.com/sketch -->
    <title>clo-waistcoat</title>
    <desc>Created with Sketch.</desc>
    <defs></defs>
    <g id="64px-Line" stroke="none" stroke-width="1" fill="none" fill-rule="evenodd">
        <g id="clo-waistcoat"></g>
        <path d="M47.316,8.051 L41.316,6.051 C41.253,6.03 41.189,6.032 41.125,6.024 C41.078,6.018 41.033,6.004 40.986,6.004 C40.894,6.005 40.807,6.027 40.72,6.053 C40.689,6.062 40.656,6.061 40.625,6.074 C40.509,6.121 40.403,6.19 40.311,6.278 C40.308,6.281 40.303,6.282 40.299,6.286 C40.261,6.323 36.434,10 30.999,10 C25.564,10 21.737,6.323 21.699,6.286 C21.696,6.283 21.691,6.282 21.687,6.278 C21.595,6.19 21.49,6.121 21.374,6.074 C21.34,6.06 21.304,6.061 21.27,6.051 C21.187,6.027 21.104,6.005 21.016,6.004 C20.962,6.003 20.911,6.019 20.857,6.026 C20.799,6.034 20.741,6.031 20.683,6.05 L14.683,8.05 C14.275,8.188 14,8.569 14,9 L14,21 C14,24.86 10.86,28 7,28 C6.448,28 6,28.448 6,29 L6,57 C6,58.654 7.346,60 9,60 L21,60 C25.431,60 29.259,57.366 31,53.582 C32.741,57.366 36.569,60 41,60 L53,60 C54.654,60 56,58.654 56,57 L56,29 C56,28.448 55.552,28 55,28 C51.14,28 48,24.86 48,21 L48,9 C48,8.569 47.725,8.188 47.316,8.051 L47.316,8.051 Z M38.343,10.078 L31,24.764 L23.657,10.078 C25.504,11.071 28.019,12 31,12 C33.981,12 36.496,11.071 38.343,10.078 L38.343,10.078 Z M21,58 L9,58 C8.449,58 8,57.551 8,57 L8,29.945 C12.494,29.446 16,25.625 16,21 L16,9.721 L20.494,8.223 L30,27.236 L30,49 C30,53.962 25.962,58 21,58 L21,58 Z M54,29.945 L54,57 C54,57.551 53.551,58 53,58 L41,58 C36.038,58 32,53.962 32,49 L32,27.236 L41.506,8.223 L46,9.721 L46,21 C46,25.625 49.506,29.446 54,29.945 L54,29.945 Z" id="Shape" fill="#000000"></path>
        <path d="M23,42 L15,42 C14.448,42 14,42.448 14,43 C14,43.552 14.448,44 15,44 L23,44 C23.552,44 24,43.552 24,43 C24,42.448 23.552,42 23,42 L23,42 Z" id="Shape" fill="#000000"></path>
        <path d="M38,43 C38,43.552 38.448,44 39,44 L47,44 C47.552,44 48,43.552 48,43 C48,42.448 47.552,42 47,42 L39,42 C38.448,42 38,42.448 38,43 L38,43 Z" id="Shape" fill="#000000"></path>
    </g>
</svg>