<?xml version="1.0" encoding="UTF-8" standalone="no"?>
<svg width="44px" height="44px" viewBox="0 0 44 44" version="1.1" xmlns="http://www.w3.org/2000/svg" xmlns:xlink="http://www.w3.org/1999/xlink">
    <!-- Generator: Sketch 3.7.2 (28276) - http://www.bohemiancoding.com/sketch -->
    <title>clo-bobble</title>
    <desc>Created with Sketch.</desc>
    <defs></defs>
    <g id="44px-Glyph" stroke="none" stroke-width="1" fill="none" fill-rule="evenodd">
        <g id="clo-bobble" fill="#000000">
            <path d="M3.0441,28 L40.9561,28 C40.5031,19.353 34.2561,12.222 26.0241,10.438 C27.2341,9.34 28.0001,7.76 28.0001,6 C28.0001,2.691 25.3091,0 22.0001,0 C18.6911,0 16.0001,2.691 16.0001,6 C16.0001,7.76 16.7661,9.34 17.9761,10.438 C9.7441,12.222 3.4971,19.353 3.0441,28" id="Fill-207"></path>
            <path d="M38.0001,39 C38.0001,39.552 37.5531,40 37.0001,40 C36.4471,40 36.0001,39.552 36.0001,39 L36.0001,35 C36.0001,34.448 36.4471,34 37.0001,34 C37.5531,34 38.0001,34.448 38.0001,35 L38.0001,39 Z M32.0001,39 C32.0001,39.552 31.5531,40 31.0001,40 C30.4471,40 30.0001,39.552 30.0001,39 L30.0001,35 C30.0001,34.448 30.4471,34 31.0001,34 C31.5531,34 32.0001,34.448 32.0001,35 L32.0001,39 Z M26.0001,39 C26.0001,39.552 25.5531,40 25.0001,40 C24.4471,40 24.0001,39.552 24.0001,39 L24.0001,35 C24.0001,34.448 24.4471,34 25.0001,34 C25.5531,34 26.0001,34.448 26.0001,35 L26.0001,39 Z M20.0001,39 C20.0001,39.552 19.5531,40 19.0001,40 C18.4471,40 18.0001,39.552 18.0001,39 L18.0001,35 C18.0001,34.448 18.4471,34 19.0001,34 C19.5531,34 20.0001,34.448 20.0001,35 L20.0001,39 Z M14.0001,39 C14.0001,39.552 13.5531,40 13.0001,40 C12.4471,40 12.0001,39.552 12.0001,39 L12.0001,35 C12.0001,34.448 12.4471,34 13.0001,34 C13.5531,34 14.0001,34.448 14.0001,35 L14.0001,39 Z M8.0001,39 C8.0001,39.552 7.5531,40 7.0001,40 C6.4471,40 6.0001,39.552 6.0001,39 L6.0001,35 C6.0001,34.448 6.4471,34 7.0001,34 C7.5531,34 8.0001,34.448 8.0001,35 L8.0001,39 Z M41.0001,30 L3.0001,30 C1.3461,30 0.0001,31.346 0.0001,33 L0.0001,41 C0.0001,42.654 1.3461,44 3.0001,44 L41.0001,44 C42.6541,44 44.0001,42.654 44.0001,41 L44.0001,33 C44.0001,31.346 42.6541,30 41.0001,30 L41.0001,30 Z" id="Fill-209"></path>
        </g>
    </g>
</svg>