<?xml version="1.0" encoding="UTF-8" standalone="no"?>
<svg width="64px" height="64px" viewBox="0 0 64 64" version="1.1" xmlns="http://www.w3.org/2000/svg" xmlns:xlink="http://www.w3.org/1999/xlink">
    <!-- Generator: Sketch 3.7.2 (28276) - http://www.bohemiancoding.com/sketch -->
    <title>clo-cloud-computer-network</title>
    <desc>Created with Sketch.</desc>
    <defs></defs>
    <g id="64px-Line" stroke="none" stroke-width="1" fill="none" fill-rule="evenodd">
        <g id="clo-cloud-computer-network"></g>
        <path d="M8,60 L26,60 C28.206,60 30,58.206 30,56 L30,55 C30,54.447 29.553,54 29,54 L28,54 L28,43 C28,42.447 27.553,42 27,42 L7,42 C6.447,42 6,42.447 6,43 L6,54 L5,54 C4.447,54 4,54.447 4,55 L4,56 C4,58.206 5.794,60 8,60 L8,60 Z M8,44 L26,44 L26,54 L8,54 L8,44 L8,44 Z M28,56 C28,57.103 27.103,58 26,58 L8,58 C6.897,58 6,57.103 6,56 L28,56 L28,56 Z" id="Shape" fill="#000000"></path>
        <path d="M55,42 L35,42 C34.447,42 34,42.447 34,43 L34,54 L33,54 C32.447,54 32,54.447 32,55 L32,56 C32,58.206 33.794,60 36,60 L54,60 C56.206,60 58,58.206 58,56 L58,55 C58,54.447 57.553,54 57,54 L56,54 L56,43 C56,42.447 55.553,42 55,42 L55,42 Z M36,44 L54,44 L54,54 L36,54 L36,44 L36,44 Z M54,58 L36,58 C34.897,58 34,57.103 34,56 L56,56 C56,57.103 55.103,58 54,58 L54,58 Z" id="Shape" fill="#000000"></path>
        <path d="M16,33 L16,39 C16,39.553 16.447,40 17,40 C17.553,40 18,39.553 18,39 L18,34 L44,34 L44,39 C44,39.553 44.447,40 45,40 C45.553,40 46,39.553 46,39 L46,33 C46,32.448 45.553,32 45,32 L32,32 L32,27 C32,26.448 31.553,26 31,26 C30.447,26 30,26.448 30,27 L30,32 L17,32 C16.447,32 16,32.448 16,33 L16,33 Z" id="Shape" fill="#000000"></path>
        <path d="M36.333,24 C40.561,24 44,20.561 44,16.333 C44,12.105 40.561,8.666 36.333,8.666 C35.857,8.666 35.386,8.709 34.922,8.796 C33.754,7.053 31.805,6 29.667,6 C26.491,6 23.854,8.35 23.401,11.402 C20.349,11.854 18,14.491 18,17.667 C18,21.159 20.841,24 24.333,24 L36.333,24 L36.333,24 Z M20,17.667 C20,15.278 21.943,13.334 24.333,13.334 C24.886,13.334 25.333,12.886 25.333,12.334 C25.333,9.944 27.277,8.001 29.667,8.001 C31.315,8.001 32.8,8.917 33.541,10.392 C33.758,10.824 34.254,11.041 34.717,10.901 C35.24,10.746 35.784,10.668 36.333,10.668 C39.458,10.668 42,13.21 42,16.335 C42,19.46 39.458,22.002 36.333,22.002 L24.333,22.002 C21.943,22 20,20.056 20,17.667 L20,17.667 Z" id="Shape" fill="#000000"></path>
    </g>
</svg>