<?xml version="1.0" encoding="UTF-8" standalone="no"?>
<svg width="64px" height="64px" viewBox="0 0 64 64" version="1.1" xmlns="http://www.w3.org/2000/svg" xmlns:xlink="http://www.w3.org/1999/xlink">
    <!-- Generator: Sketch 3.7.2 (28276) - http://www.bohemiancoding.com/sketch -->
    <title>clo-cloud-phone</title>
    <desc>Created with Sketch.</desc>
    <defs></defs>
    <g id="64px-Line" stroke="none" stroke-width="1" fill="none" fill-rule="evenodd">
        <g id="clo-cloud-phone"></g>
        <path d="M8,60 L24,60 C26.206,60 28,58.206 28,56 L28,24 C28,21.794 26.206,20 24,20 L8,20 C5.794,20 4,21.794 4,24 L4,56 C4,58.206 5.794,60 8,60 L8,60 Z M26,50 L6,50 L6,30 L26,30 L26,50 L26,50 Z M24,58 L8,58 C6.897,58 6,57.103 6,56 L6,52 L26,52 L26,56 C26,57.103 25.103,58 24,58 L24,58 Z M8,22 L24,22 C25.103,22 26,22.897 26,24 L26,28 L6,28 L6,24 C6,22.897 6.897,22 8,22 L8,22 Z" id="Shape" fill="#000000"></path>
        <path d="M15,26 L21,26 C21.553,26 22,25.552 22,25 C22,24.448 21.553,24 21,24 L15,24 C14.447,24 14,24.448 14,25 C14,25.552 14.447,26 15,26 L15,26 Z" id="Shape" fill="#000000"></path>
        <path d="M11,26 C11.06,26 11.13,25.99 11.189,25.98 C11.259,25.97 11.319,25.95 11.379,25.92 C11.439,25.9 11.499,25.87 11.549,25.83 C11.609,25.8 11.659,25.75 11.709,25.71 C11.889,25.52 11.999,25.26 11.999,25 C11.999,24.74 11.889,24.48 11.709,24.29 C11.659,24.25 11.608,24.21 11.549,24.17 C11.499,24.13 11.439,24.1 11.379,24.08 C11.318,24.05 11.259,24.03 11.189,24.02 C10.87,23.96 10.519,24.06 10.29,24.29 C10.109,24.48 10,24.74 10,25 C10,25.26 10.109,25.52 10.29,25.71 C10.479,25.89 10.74,26 11,26 L11,26 Z" id="Shape" fill="#000000"></path>
        <path d="M54.798,15.167 C54.673,8.988 49.608,4 43.4,4 C39.004,4 35.058,6.508 33.164,10.373 C32.118,9.617 30.854,9.2 29.533,9.2 C26.114,9.2 23.333,11.981 23.333,15.4 C23.333,16.057 23.436,16.705 23.639,17.325 C23.811,17.85 24.373,18.137 24.9,17.965 C25.425,17.794 25.712,17.229 25.54,16.704 C25.403,16.285 25.334,15.846 25.334,15.4 C25.334,13.084 27.218,11.2 29.534,11.2 C30.779,11.2 31.951,11.747 32.753,12.701 C32.889,12.876 33.081,13.002 33.3,13.056 C33.717,13.158 34.158,12.984 34.388,12.618 C34.443,12.532 34.483,12.44 34.508,12.345 C35.812,8.547 39.378,5.999 43.402,5.999 C48.585,5.999 52.801,10.216 52.801,15.399 C52.801,15.535 52.798,15.671 52.794,15.807 C52.779,16.243 53.049,16.639 53.461,16.784 C56.177,17.74 58.001,20.319 58.001,23.2 C58.001,26.95 54.95,30 51.201,30 L31,30 C30.447,30 30,30.448 30,31 C30,31.552 30.447,32 31,32 L51.2,32 C56.053,32 60,28.052 60,23.2 C60,19.715 57.938,16.573 54.798,15.167 L54.798,15.167 Z" id="Shape" fill="#000000"></path>
        <path d="M17,54 L15,54 C14.447,54 14,54.448 14,55 C14,55.552 14.447,56 15,56 L17,56 C17.553,56 18,55.552 18,55 C18,54.448 17.553,54 17,54 L17,54 Z" id="Shape" fill="#000000"></path>
    </g>
</svg>