<?xml version="1.0" encoding="UTF-8" standalone="no"?>
<svg width="64px" height="64px" viewBox="0 0 64 64" version="1.1" xmlns="http://www.w3.org/2000/svg" xmlns:xlink="http://www.w3.org/1999/xlink">
    <!-- Generator: Sketch 3.7.2 (28276) - http://www.bohemiancoding.com/sketch -->
    <title>clo-panties</title>
    <desc>Created with Sketch.</desc>
    <defs></defs>
    <g id="64px-Line" stroke="none" stroke-width="1" fill="none" fill-rule="evenodd">
        <g id="clo-panties"></g>
        <path d="M59.78,35.625 C59.969,35.389 60.042,35.079 59.976,34.783 L55.976,16.783 C55.875,16.326 55.469,16 55,16 L9,16 C8.531,16 8.125,16.326 8.024,16.783 L4.024,34.783 C3.958,35.079 4.03,35.389 4.22,35.625 C4.41,35.862 4.697,36 5,36 C20.867,36 26,46.106 26,51 C26,51.552 26.448,52 27,52 L37,52 C37.552,52 38,51.552 38,51 C38,46.106 43.133,36 59,36 C59.303,36 59.59,35.862 59.78,35.625 L59.78,35.625 Z M42,20 C42,21.103 41.103,22 40,22 C39.466,22 38.964,21.792 38.527,21.359 L34.577,18 L40,18 C41.103,18 42,18.897 42,20 L42,20 Z M24,18 L29.425,18 L25.414,21.415 C25.036,21.792 24.534,22 24,22 C22.897,22 22,21.103 22,20 C22,18.897 22.897,18 24,18 L24,18 Z M36.046,50 L27.953,50 C27.336,43.233 20.522,34.5 6.242,34.021 L9.802,18 L20.556,18 C20.211,18.591 20,19.268 20,20 C20,22.206 21.794,24 24,24 C25.069,24 26.073,23.583 26.769,22.883 L32,18.434 L37.171,22.828 C37.926,23.584 38.931,24 40,24 C42.206,24 44,22.206 44,20 C44,19.268 43.788,18.591 43.444,18 L54.198,18 L57.758,34.021 C43.478,34.5 36.663,43.233 36.046,50 L36.046,50 Z" id="Shape" fill="#000000"></path>
    </g>
</svg>