<?xml version="1.0" encoding="UTF-8" standalone="no"?>
<svg width="44px" height="44px" viewBox="0 0 44 44" version="1.1" xmlns="http://www.w3.org/2000/svg" xmlns:xlink="http://www.w3.org/1999/xlink">
    <!-- Generator: Sketch 3.7.2 (28276) - http://www.bohemiancoding.com/sketch -->
    <title>clo-dress-2</title>
    <desc>Created with Sketch.</desc>
    <defs></defs>
    <g id="44px-Glyph" stroke="none" stroke-width="1" fill="none" fill-rule="evenodd">
        <g id="clo-dress-2" fill="#000000">
            <path d="M14.9446,18 L29.0556,18 C29.2266,16.295 29.8086,14.872 30.4236,13.382 C31.1996,11.508 31.9996,9.57 31.9996,7 C31.9996,5.093 30.9066,4 28.9996,4 C28.6666,4 28.3326,4.021 27.9996,4.053 L27.9996,1 C27.9996,0.448 27.5526,0 26.9996,0 C26.4476,0 25.9996,0.448 25.9996,1 L25.9996,4.403 C24.2476,4.836 22.7396,5.51 21.9996,5.875 C21.2606,5.51 19.7526,4.836 17.9996,4.403 L17.9996,1 C17.9996,0.448 17.5526,0 16.9996,0 C16.4476,0 15.9996,0.448 15.9996,1 L15.9996,4.053 C15.6676,4.021 15.3336,4 14.9996,4 C13.0936,4 11.9996,5.093 11.9996,7 C11.9996,9.57 12.8006,11.508 13.5766,13.382 C14.1916,14.872 14.7726,16.295 14.9446,18" id="Fill-170"></path>
            <path d="M31.6632,27.1743 C30.4302,24.4963 29.3462,22.1353 29.0712,20.0003 L14.9292,20.0003 C14.6542,22.1353 13.5702,24.4963 12.3372,27.1743 C10.4042,31.3673 8.0002,36.5873 8.0002,43.0003 C8.0002,43.5523 8.4472,44.0003 9.0002,44.0003 L35.0002,44.0003 C35.5532,44.0003 36.0002,43.5523 36.0002,43.0003 C36.0002,36.5873 33.5962,31.3673 31.6632,27.1743" id="Fill-172"></path>
        </g>
    </g>
</svg>