<?xml version="1.0" encoding="UTF-8" standalone="no"?>
<svg width="64px" height="64px" viewBox="0 0 64 64" version="1.1" xmlns="http://www.w3.org/2000/svg" xmlns:xlink="http://www.w3.org/1999/xlink">
    <!-- Generator: Sketch 3.7.2 (28276) - http://www.bohemiancoding.com/sketch -->
    <title>clo-sock</title>
    <desc>Created with Sketch.</desc>
    <defs></defs>
    <g id="64px-Line" stroke="none" stroke-width="1" fill="none" fill-rule="evenodd">
        <g id="clo-sock"></g>
        <path d="M15.541,56.479 C17.896,58.822 20.99,59.994 24.083,59.994 C27.176,59.994 30.269,58.822 32.624,56.48 L32.628,56.476 C32.628,56.476 32.629,56.476 32.629,56.475 C32.629,56.474 32.629,56.474 32.63,56.474 L44.839,44.431 L44.841,44.429 L48.579,40.742 C50.753,38.597 52,35.621 52,32.575 L52,5 C52,4.447 51.552,4 51,4 L27,4 C26.448,4 26,4.447 26,5 L26,27 C26,27.845 25.671,28.643 25.052,29.268 L15.541,39.47 C15.54,39.471 15.539,39.472 15.538,39.473 C15.538,39.473 15.537,39.473 15.537,39.474 C15.537,39.474 15.537,39.475 15.536,39.475 C13.256,41.746 12,44.764 12,47.975 C12,51.188 13.257,54.208 15.541,56.479 L15.541,56.479 Z M16.951,55.062 C15.048,53.168 14,50.652 14,47.975 C14,45.64 14.799,43.428 16.283,41.626 L30.467,55.735 C26.508,58.958 20.644,58.734 16.951,55.062 L16.951,55.062 Z M47.175,39.318 L43.988,42.461 C41.486,40.829 40,38.099 40,35 C40,30.037 44.038,26 49,26 C49.334,26 49.668,26.023 50,26.06 L50,32.576 C50,35.089 48.97,37.547 47.175,39.318 L47.175,39.318 Z M26.494,30.653 C27.466,29.674 28,28.376 28,27 L28,6 L50,6 L50,24.05 C49.667,24.02 49.334,24 49,24 C42.935,24 38,28.935 38,35 C38,38.64 39.675,41.875 42.529,43.901 L31.923,54.363 L17.637,40.152 L26.494,30.653 L26.494,30.653 Z" id="Shape" fill="#000000"></path>
        <path d="M31,18 C31.552,18 32,17.553 32,17 L32,9 C32,8.447 31.552,8 31,8 C30.448,8 30,8.447 30,9 L30,17 C30,17.553 30.448,18 31,18 L31,18 Z" id="Shape" fill="#000000"></path>
        <path d="M35,18 C35.552,18 36,17.553 36,17 L36,9 C36,8.447 35.552,8 35,8 C34.448,8 34,8.447 34,9 L34,17 C34,17.553 34.448,18 35,18 L35,18 Z" id="Shape" fill="#000000"></path>
        <path d="M39,18 C39.552,18 40,17.553 40,17 L40,9 C40,8.447 39.552,8 39,8 C38.448,8 38,8.447 38,9 L38,17 C38,17.553 38.448,18 39,18 L39,18 Z" id="Shape" fill="#000000"></path>
        <path d="M43,18 C43.552,18 44,17.553 44,17 L44,9 C44,8.447 43.552,8 43,8 C42.448,8 42,8.447 42,9 L42,17 C42,17.553 42.448,18 43,18 L43,18 Z" id="Shape" fill="#000000"></path>
        <path d="M47,18 C47.552,18 48,17.553 48,17 L48,9 C48,8.447 47.552,8 47,8 C46.448,8 46,8.447 46,9 L46,17 C46,17.553 46.448,18 47,18 L47,18 Z" id="Shape" fill="#000000"></path>
    </g>
</svg>