<?xml version="1.0" encoding="UTF-8" standalone="no"?>
<svg width="64px" height="64px" viewBox="0 0 64 64" version="1.1" xmlns="http://www.w3.org/2000/svg" xmlns:xlink="http://www.w3.org/1999/xlink">
    <!-- Generator: Sketch 3.7.2 (28276) - http://www.bohemiancoding.com/sketch -->
    <title>clo-cloud-minus</title>
    <desc>Created with Sketch.</desc>
    <defs></defs>
    <g id="64px-Line" stroke="none" stroke-width="1" fill="none" fill-rule="evenodd">
        <g id="clo-cloud-minus"></g>
        <path d="M51.935,30.396 C51.978,29.932 52,29.465 52,29 C52,20.729 45.271,14 37,14 C30.897,14 25.373,17.782 23.1,23.354 C21.737,22.474 20.146,22 18.5,22 C13.813,22 10,25.813 10,30.5 C10,30.729 10.009,30.958 10.028,31.188 C6.342,33.053 4,36.826 4,41 C4,47.065 8.935,52 15,52 L49,52 C55.065,52 60,47.065 60,41 C60,36.014 56.661,31.696 51.935,30.396 L51.935,30.396 Z M49,50 L15,50 C10.038,50 6,45.962 6,41 C6,37.375 8.159,34.121 11.5,32.708 C11.928,32.527 12.175,32.075 12.096,31.617 C12.032,31.25 12,30.874 12,30.5 C12,26.916 14.916,24 18.5,24 C20.136,24 21.7,24.612 22.905,25.723 C23.158,25.957 23.515,26.043 23.848,25.952 C24.181,25.861 24.443,25.604 24.541,25.274 C26.171,19.814 31.294,16 37,16 C44.168,16 50,21.832 50,29 C50,29.673 49.948,30.351 49.844,31.014 C49.761,31.549 50.118,32.053 50.651,32.152 C54.909,32.939 58,36.66 58,41 C58,45.962 53.962,50 49,50 L49,50 Z" id="Shape" fill="#000000"></path>
        <path d="M41,36 L25,36 C24.448,36 24,36.448 24,37 C24,37.552 24.448,38 25,38 L41,38 C41.552,38 42,37.552 42,37 C42,36.448 41.552,36 41,36 L41,36 Z" id="Shape" fill="#000000"></path>
    </g>
</svg>