<?xml version="1.0" encoding="UTF-8" standalone="no"?>
<svg width="64px" height="64px" viewBox="0 0 64 64" version="1.1" xmlns="http://www.w3.org/2000/svg" xmlns:xlink="http://www.w3.org/1999/xlink">
    <!-- Generator: Sketch 3.7.2 (28276) - http://www.bohemiancoding.com/sketch -->
    <title>clo-cloud-music</title>
    <desc>Created with Sketch.</desc>
    <defs></defs>
    <g id="64px-Line" stroke="none" stroke-width="1" fill="none" fill-rule="evenodd">
        <g id="clo-cloud-music"></g>
        <path d="M51.936,30.396 C51.979,29.932 52,29.465 52,29 C52,20.729 45.271,14 37,14 C30.897,14 25.372,17.782 23.1,23.354 C21.737,22.474 20.147,22 18.5,22 C13.813,22 10,25.813 10,30.5 C10,30.729 10.01,30.958 10.027,31.188 C6.342,33.054 4,36.826 4,41 C4,47.065 8.935,52 15,52 L49,52 C55.065,52 60,47.065 60,41 C60,36.015 56.661,31.696 51.936,30.396 L51.936,30.396 Z M49,50 L15,50 C10.037,50 6,45.963 6,41 C6,37.375 8.159,34.12 11.5,32.708 C11.928,32.527 12.175,32.075 12.096,31.617 C12.033,31.25 12,30.874 12,30.5 C12,26.916 14.916,24 18.5,24 C20.136,24 21.7,24.612 22.905,25.723 C23.158,25.957 23.515,26.044 23.847,25.952 C24.18,25.861 24.442,25.604 24.54,25.274 C26.17,19.814 31.294,16 36.999,16 C44.167,16 49.999,21.832 49.999,29 C49.999,29.673 49.946,30.351 49.843,31.014 C49.76,31.549 50.117,32.053 50.65,32.152 C54.909,32.94 58,36.661 58,41.001 C58,45.963 53.963,50 49,50 L49,50 Z" id="Shape" fill="#000000"></path>
        <path d="M40.836,26.014 L28.836,28.014 C28.354,28.094 28,28.512 28,29 L28,39.5 C28,39.775 27.775,40 27.5,40 L26,40 C24.034,40 22,41.496 22,44 C22,46.504 24.034,48 26,48 C27.825,48 30,47.306 30,44 L30,33.847 L40,32.18 L40,36.5 C40,36.775 39.775,37 39.5,37 L38,37 C36.034,37 34,38.496 34,41 C34,43.598 36.061,45 38,45 C39.825,45 42,44.306 42,41 L42,27 C42,26.706 41.871,26.427 41.646,26.237 C41.423,26.047 41.127,25.965 40.836,26.014 L40.836,26.014 Z M28,44 C28,45.514 27.514,46 26,46 C25.227,46 24,45.457 24,44 C24,42.532 25.196,42 26,42 L27.5,42 C27.671,42 27.838,41.982 28,41.95 L28,44 L28,44 Z M40,41 C40,42.514 39.514,43 38,43 C37.037,43 36,42.374 36,41 C36,39.543 37.227,39 38,39 L39.5,39 C39.671,39 39.838,38.982 40,38.95 L40,41 L40,41 Z M30,31.82 L30,29.848 L40,28.181 L40,30.153 L30,31.82 L30,31.82 Z" id="Shape" fill="#000000"></path>
    </g>
</svg>