<?xml version="1.0" encoding="UTF-8" standalone="no"?>
<svg width="64px" height="64px" viewBox="0 0 64 64" version="1.1" xmlns="http://www.w3.org/2000/svg" xmlns:xlink="http://www.w3.org/1999/xlink">
    <!-- Generator: Sketch 3.7.2 (28276) - http://www.bohemiancoding.com/sketch -->
    <title>clo-t-female</title>
    <desc>Created with Sketch.</desc>
    <defs></defs>
    <g id="64px-Line" stroke="none" stroke-width="1" fill="none" fill-rule="evenodd">
        <g id="clo-t-female"></g>
        <path d="M53.555,13.029 C52.315,11.169 50.562,9.747 48.414,8.892 L39.298,6.045 C39.207,6.016 39.113,6.005 39.02,6.003 C39.013,6.003 39.007,5.999 39.001,5.999 C38.99,5.999 38.98,6.005 38.969,6.005 C38.77,6.011 38.573,6.071 38.408,6.193 C38.387,6.208 38.376,6.232 38.356,6.249 C38.308,6.29 38.269,6.336 38.23,6.385 C38.19,6.436 38.153,6.486 38.123,6.543 C38.095,6.596 38.076,6.651 38.058,6.71 C38.047,6.747 38.023,6.779 38.016,6.817 C37.537,7.245 35.075,8 31,8 C26.925,8 24.463,7.245 23.983,6.818 C23.976,6.78 23.953,6.748 23.941,6.711 C23.923,6.653 23.904,6.598 23.876,6.544 C23.846,6.487 23.81,6.437 23.769,6.386 C23.73,6.337 23.691,6.291 23.643,6.25 C23.623,6.233 23.612,6.21 23.591,6.194 C23.528,6.148 23.46,6.11 23.39,6.08 C23.389,6.08 23.388,6.079 23.387,6.078 C23.274,6.03 23.152,6.01 23.03,6.006 C23.019,6.006 23.009,6 22.998,6 C22.991,6 22.985,6.004 22.978,6.004 C22.884,6.006 22.791,6.017 22.7,6.046 L13.511,8.918 C11.436,9.747 9.684,11.169 8.409,13.084 L4.132,20.5 C3.892,20.917 3.982,21.446 4.347,21.759 L11.347,27.759 C11.557,27.939 11.833,28.022 12.107,27.994 C12.382,27.964 12.632,27.821 12.798,27.599 L14.124,25.831 C14.4,28.914 15.085,31.422 15.707,33.694 C16.371,36.125 16.999,38.422 16.999,40.999 C16.999,43.946 16.279,46.345 15.518,48.884 C14.772,51.373 14,53.946 14,57 C14,57.553 14.448,58 15,58 L47,58 C47.552,58 48,57.553 48,57 C48,53.868 47.222,51.29 46.469,48.796 C45.713,46.294 45,43.931 45,41 C45,38.351 45.633,36.045 46.303,33.604 C46.919,31.361 47.598,28.886 47.873,25.832 L49.2,27.601 C49.366,27.823 49.616,27.965 49.891,27.996 C50.164,28.023 50.441,27.94 50.651,27.761 L57.651,21.761 C58.016,21.449 58.107,20.919 57.866,20.502 L53.555,13.029 L53.555,13.029 Z M37.62,9.179 C36.401,12.948 32.501,16.472 30.996,17.721 C29.487,16.479 25.581,12.976 24.371,9.176 C26.705,9.941 30.05,10 31,10 C31.949,10 35.288,9.941 37.62,9.179 L37.62,9.179 Z M50.16,25.546 L47.8,22.4 C47.542,22.055 47.093,21.914 46.684,22.051 C46.275,22.188 46,22.569 46,23 C46,27.152 45.174,30.163 44.375,33.074 C43.667,35.648 43,38.081 43,41 C43,44.226 43.79,46.843 44.554,49.374 C45.208,51.542 45.831,53.603 45.971,56 L16.031,56 C16.173,53.666 16.788,51.615 17.435,49.459 C18.205,46.894 19,44.241 19,41 C19,38.154 18.338,35.732 17.638,33.168 C16.833,30.221 16,27.174 16,23 C16,22.569 15.725,22.188 15.316,22.052 C14.909,21.915 14.458,22.056 14.2,22.401 L11.84,25.547 L6.28,20.781 L10.109,14.139 C11.124,12.618 12.557,11.454 14.181,10.801 L22.114,8.324 C23.073,14.292 30.084,19.566 30.403,19.803 C30.58,19.935 30.79,20 30.999,20 C31.21,20 31.421,19.934 31.599,19.8 C31.918,19.561 38.917,14.241 39.882,8.323 L47.744,10.775 C49.441,11.454 50.875,12.617 51.855,14.084 L55.718,20.781 L50.16,25.546 L50.16,25.546 Z" id="Shape" fill="#000000"></path>
    </g>
</svg>