<?xml version="1.0" encoding="UTF-8" standalone="no"?>
<svg width="64px" height="64px" viewBox="0 0 64 64" version="1.1" xmlns="http://www.w3.org/2000/svg" xmlns:xlink="http://www.w3.org/1999/xlink">
    <!-- Generator: Sketch 3.7.2 (28276) - http://www.bohemiancoding.com/sketch -->
    <title>clo-cloud-images</title>
    <desc>Created with Sketch.</desc>
    <defs></defs>
    <g id="64px-Line" stroke="none" stroke-width="1" fill="none" fill-rule="evenodd">
        <g id="clo-cloud-images"></g>
        <path d="M51.935,30.396 C51.978,29.932 52,29.465 52,29 C52,20.729 45.271,14 37,14 C30.897,14 25.373,17.782 23.1,23.354 C21.737,22.474 20.146,22 18.5,22 C13.813,22 10,25.813 10,30.5 C10,30.729 10.009,30.958 10.028,31.188 C6.342,33.053 4,36.826 4,41 C4,47.065 8.935,52 15,52 L49,52 C55.065,52 60,47.065 60,41 C60,36.014 56.661,31.696 51.935,30.396 L51.935,30.396 Z M49,50 L15,50 C10.038,50 6,45.962 6,41 C6,37.375 8.159,34.121 11.5,32.708 C11.928,32.527 12.175,32.075 12.096,31.617 C12.033,31.25 12,30.874 12,30.5 C12,26.916 14.916,24 18.5,24 C20.136,24 21.7,24.612 22.905,25.723 C23.158,25.957 23.515,26.043 23.848,25.952 C24.181,25.861 24.443,25.604 24.541,25.274 C26.171,19.814 31.294,16 37,16 C44.168,16 50,21.832 50,29 C50,29.673 49.948,30.351 49.844,31.014 C49.761,31.549 50.118,32.053 50.651,32.152 C54.91,32.94 58.001,36.661 58.001,41.001 C58,45.962 53.962,50 49,50 L49,50 Z" id="Shape" fill="#000000"></path>
        <path d="M23,36 C24.654,36 26,34.654 26,33 C26,31.346 24.654,30 23,30 C21.346,30 20,31.346 20,33 C20,34.654 21.346,36 23,36 L23,36 Z M23,32 C23.551,32 24,32.449 24,33 C24,33.551 23.551,34 23,34 C22.449,34 22,33.551 22,33 C22,32.449 22.449,32 23,32 L23,32 Z" id="Shape" fill="#000000"></path>
        <path d="M47.923,42.618 C47.872,42.496 47.799,42.385 47.707,42.293 L37.707,32.293 C37.316,31.902 36.684,31.902 36.293,32.293 L32,36.586 L29.707,34.293 C29.316,33.902 28.684,33.902 28.293,34.293 L20.293,42.293 C20.007,42.579 19.921,43.009 20.076,43.383 C20.231,43.757 20.596,44 21,44 L47,44 C47.13,44 47.26,43.973 47.382,43.923 C47.627,43.821 47.821,43.627 47.923,43.382 C48.024,43.138 48.024,42.862 47.923,42.618 L47.923,42.618 Z M29,36.414 L32.293,39.707 C32.684,40.098 33.316,40.098 33.707,39.707 C34.098,39.316 34.098,38.684 33.707,38.293 L33.414,38 L37,34.414 L44.586,42 L23.414,42 L29,36.414 L29,36.414 Z" id="Shape" fill="#000000"></path>
    </g>
</svg>