<?xml version="1.0" encoding="UTF-8" standalone="no"?>
<svg width="64px" height="64px" viewBox="0 0 64 64" version="1.1" xmlns="http://www.w3.org/2000/svg" xmlns:xlink="http://www.w3.org/1999/xlink">
    <!-- Generator: Sketch 3.7.2 (28276) - http://www.bohemiancoding.com/sketch -->
    <title>clo-server-plus</title>
    <desc>Created with Sketch.</desc>
    <defs></defs>
    <g id="64px-Line" stroke="none" stroke-width="1" fill="none" fill-rule="evenodd">
        <g id="clo-server-plus"></g>
        <path d="M11,18 L41,18 C44.86,18 48,14.859 48,11 C48,7.141 44.86,4 41,4 L11,4 C7.14,4 4,7.141 4,11 C4,14.859 7.14,18 11,18 L11,18 Z M11,6 L41,6 C43.757,6 46,8.243 46,11 C46,13.757 43.757,16 41,16 L11,16 C8.243,16 6,13.757 6,11 C6,8.243 8.243,6 11,6 L11,6 Z" id="Shape" fill="#000000"></path>
        <path d="M13,14 C14.654,14 16,12.654 16,11 C16,9.346 14.654,8 13,8 C11.346,8 10,9.346 10,11 C10,12.654 11.346,14 13,14 L13,14 Z M13,10 C13.551,10 14,10.448 14,11 C14,11.552 13.551,12 13,12 C12.449,12 12,11.552 12,11 C12,10.448 12.449,10 13,10 L13,10 Z" id="Shape" fill="#000000"></path>
        <path d="M31,12 L41,12 C41.552,12 42,11.553 42,11 C42,10.447 41.552,10 41,10 L31,10 C30.448,10 30,10.447 30,11 C30,11.553 30.448,12 31,12 L31,12 Z" id="Shape" fill="#000000"></path>
        <path d="M10,27 C10,28.654 11.346,30 13,30 C14.654,30 16,28.654 16,27 C16,25.346 14.654,24 13,24 C11.346,24 10,25.346 10,27 L10,27 Z M14,27 C14,27.552 13.551,28 13,28 C12.449,28 12,27.552 12,27 C12,26.448 12.449,26 13,26 C13.551,26 14,26.448 14,27 L14,27 Z" id="Shape" fill="#000000"></path>
        <path d="M31,26 C30.448,26 30,26.447 30,27 C30,27.553 30.448,28 31,28 L41,28 C41.552,28 42,27.553 42,27 C42,26.447 41.552,26 41,26 L31,26 L31,26 Z" id="Shape" fill="#000000"></path>
        <path d="M10,43 C10,44.654 11.346,46 13,46 C14.654,46 16,44.654 16,43 C16,41.346 14.654,40 13,40 C11.346,40 10,41.346 10,43 L10,43 Z M14,43 C14,43.552 13.551,44 13,44 C12.449,44 12,43.552 12,43 C12,42.448 12.449,42 13,42 C13.551,42 14,42.448 14,43 L14,43 Z" id="Shape" fill="#000000"></path>
        <path d="M47,34 C39.832,34 34,39.832 34,47 C34,54.168 39.832,60 47,60 C54.168,60 60,54.168 60,47 C60,39.832 54.168,34 47,34 L47,34 Z M47,58 C40.935,58 36,53.065 36,47 C36,40.935 40.935,36 47,36 C53.065,36 58,40.935 58,47 C58,53.065 53.065,58 47,58 L47,58 Z" id="Shape" fill="#000000"></path>
        <path d="M53,46 L48,46 L48,41 C48,40.447 47.552,40 47,40 C46.448,40 46,40.447 46,41 L46,46 L41,46 C40.448,46 40,46.447 40,47 C40,47.553 40.448,48 41,48 L46,48 L46,53 C46,53.553 46.448,54 47,54 C47.552,54 48,53.553 48,53 L48,48 L53,48 C53.552,48 54,47.553 54,47 C54,46.447 53.552,46 53,46 L53,46 Z" id="Shape" fill="#000000"></path>
        <path d="M31,42 C30.448,42 30,42.447 30,43 C30,43.553 30.448,44 31,44 L31.506,44 C32.058,44 32.506,43.553 32.506,43 C32.506,42.447 32.058,42 31.506,42 L31,42 L31,42 Z" id="Shape" fill="#000000"></path>
        <path d="M11,34 L39.262,34 C39.814,34 40.262,33.553 40.262,33 C40.262,32.447 39.814,32 39.262,32 L11,32 C8.243,32 6,29.757 6,27 C6,24.243 8.243,22 11,22 L41,22 C43.757,22 46,24.243 46,27 C46,28.266 45.526,29.475 44.665,30.401 C44.29,30.806 44.313,31.439 44.718,31.814 C45.122,32.189 45.755,32.168 46.131,31.762 C47.337,30.463 48.001,28.772 48.001,26.999 C48.001,23.14 44.861,19.999 41.001,19.999 L11.001,19.999 C7.141,19.999 4.001,23.14 4.001,26.999 C4.001,30.858 7.14,34 11,34 L11,34 Z" id="Shape" fill="#000000"></path>
        <path d="M11,50 L31,50 C31.552,50 32,49.553 32,49 C32,48.447 31.552,48 31,48 L11,48 C8.243,48 6,45.757 6,43 C6,40.243 8.243,38 11,38 L34.521,38 C35.073,38 35.521,37.553 35.521,37 C35.521,36.447 35.073,36 34.521,36 L11,36 C7.14,36 4,39.141 4,43 C4,46.859 7.14,50 11,50 L11,50 Z" id="Shape" fill="#000000"></path>
    </g>
</svg>