<?xml version="1.0" encoding="UTF-8" standalone="no"?>
<svg width="64px" height="64px" viewBox="0 0 64 64" version="1.1" xmlns="http://www.w3.org/2000/svg" xmlns:xlink="http://www.w3.org/1999/xlink">
    <!-- Generator: Sketch 3.7.2 (28276) - http://www.bohemiancoding.com/sketch -->
    <title>com-book-code</title>
    <desc>Created with Sketch.</desc>
    <defs></defs>
    <g id="64px-Line" stroke="none" stroke-width="1" fill="none" fill-rule="evenodd">
        <g id="com-book-code"></g>
        <path d="M55,56 C55.553,56 56,55.553 56,55 L56,7 C56,6.447 55.553,6 55,6 L12,6 C9.794,6 8,7.794 8,10 L8,56 C8,58.206 9.794,60 12,60 L51,60 C51.553,60 52,59.553 52,59 L52,11 C52,10.447 51.553,10 51,10 L10,10 C10,8.897 10.897,8 12,8 L54,8 L54,55 C54,55.553 54.447,56 55,56 L55,56 Z M50,12 L50,58 L12,58 C10.897,58 10,57.103 10,56 L10,12 L50,12 L50,12 Z" id="Shape" fill="#000000"></path>
        <path d="M22.293,41.707 C22.488,41.902 22.744,42 23,42 C23.256,42 23.512,41.902 23.707,41.707 C24.098,41.316 24.098,40.684 23.707,40.293 L18.414,35 L23.707,29.707 C24.098,29.316 24.098,28.684 23.707,28.293 C23.316,27.902 22.684,27.902 22.293,28.293 L16.293,34.293 C15.902,34.684 15.902,35.316 16.293,35.707 L22.293,41.707 L22.293,41.707 Z" id="Shape" fill="#000000"></path>
        <path d="M36.293,41.707 C36.488,41.902 36.744,42 37,42 C37.256,42 37.512,41.902 37.707,41.707 L43.707,35.707 C44.098,35.316 44.098,34.684 43.707,34.293 L37.707,28.293 C37.316,27.902 36.684,27.902 36.293,28.293 C35.902,28.684 35.902,29.316 36.293,29.707 L41.586,35 L36.293,40.293 C35.902,40.684 35.902,41.316 36.293,41.707 L36.293,41.707 Z" id="Shape" fill="#000000"></path>
        <path d="M26.713,45.958 C26.809,45.986 26.905,46 27,46 C27.431,46 27.828,45.721 27.958,45.287 L33.958,25.287 C34.116,24.759 33.816,24.201 33.287,24.042 C32.757,23.885 32.2,24.184 32.042,24.713 L26.042,44.713 C25.884,45.241 26.184,45.799 26.713,45.958 L26.713,45.958 Z" id="Shape" fill="#000000"></path>
    </g>
</svg>