<?xml version="1.0" encoding="UTF-8" standalone="no"?>
<svg width="64px" height="64px" viewBox="0 0 64 64" version="1.1" xmlns="http://www.w3.org/2000/svg" xmlns:xlink="http://www.w3.org/1999/xlink">
    <!-- Generator: Sketch 3.7.2 (28276) - http://www.bohemiancoding.com/sketch -->
    <title>com-touchpad</title>
    <desc>Created with Sketch.</desc>
    <defs></defs>
    <g id="64px-Line" stroke="none" stroke-width="1" fill="none" fill-rule="evenodd">
        <g id="com-touchpad"></g>
        <path d="M5,46 L13,46 C13.552,46 14,45.553 14,45 C14,44.447 13.552,44 13,44 L6,44 L6,8 L56,8 L56,44 L51,44 C50.448,44 50,44.447 50,45 C50,45.553 50.448,46 51,46 L57,46 C57.552,46 58,45.553 58,45 L58,7 C58,6.448 57.552,6 57,6 L5,6 C4.448,6 4,6.448 4,7 L4,45 C4,45.553 4.448,46 5,46 L5,46 Z" id="Shape" fill="#000000"></path>
        <path d="M26,16 C23.794,16 22,17.794 22,20 L22,32.556 C21.409,32.212 20.732,32 20,32 C17.794,32 16,33.794 16,36 L16,47 C16,53.46 21.496,60 32,60 C42.504,60 48,53.46 48,47 L48,36 C48,33.794 46.206,32 44,32 C43.171,32 42.4,32.254 41.761,32.688 C41.214,31.128 39.743,30 38,30 C37.171,30 36.4,30.254 35.761,30.688 C35.214,29.128 33.744,28 32,28 C31.268,28 30.591,28.212 30,28.556 L30,20 C30,17.794 28.206,16 26,16 L26,16 Z M32,30 C33.103,30 34,30.897 34,32 L34,37 C34,37.553 34.448,38 35,38 C35.552,38 36,37.553 36,37 L36,34 C36,32.897 36.897,32 38,32 C39.103,32 40,32.897 40,34 L40,39 C40,39.553 40.448,40 41,40 C41.552,40 42,39.553 42,39 L42,36 C42,34.897 42.897,34 44,34 C45.103,34 46,34.897 46,36 L46,47 C46,52.466 41.191,58 32,58 C22.809,58 18,52.466 18,47 L18,36 C18,34.897 18.897,34 20,34 C21.103,34 22,34.897 22,36 L22,45 C22,45.553 22.448,46 23,46 C23.552,46 24,45.553 24,45 L24,20 C24,18.897 24.897,18 26,18 C27.103,18 28,18.897 28,20 L28,35 C28,35.553 28.448,36 29,36 C29.552,36 30,35.553 30,35 L30,32 C30,30.897 30.897,30 32,30 L32,30 Z" id="Shape" fill="#000000"></path>
    </g>
</svg>