<?xml version="1.0" encoding="UTF-8" standalone="no"?>
<svg width="64px" height="64px" viewBox="0 0 64 64" version="1.1" xmlns="http://www.w3.org/2000/svg" xmlns:xlink="http://www.w3.org/1999/xlink">
    <!-- Generator: Sketch 3.7.2 (28276) - http://www.bohemiancoding.com/sketch -->
    <title>com-disk</title>
    <desc>Created with Sketch.</desc>
    <defs></defs>
    <g id="64px-Line" stroke="none" stroke-width="1" fill="none" fill-rule="evenodd">
        <g id="com-disk"></g>
        <path d="M11,58 L53,58 C55.757,58 58,55.757 58,53 L58,18.657 C58,17.322 57.48,16.066 56.536,15.122 L48.879,7.465 C47.934,6.52 46.679,6 45.343,6 L11,6 C8.243,6 6,8.243 6,11 L6,53 C6,55.757 8.243,58 11,58 L11,58 Z M46,56 L18,56 L18,36 L46,36 L46,56 L46,56 Z M20,8 L44,8 L44,24 L20,24 L20,8 L20,8 Z M8,11 C8,9.346 9.346,8 11,8 L18,8 L18,25 C18,25.552 18.448,26 19,26 L45,26 C45.552,26 46,25.552 46,25 L46,8.08 C46.549,8.205 47.063,8.477 47.464,8.878 L55.121,16.535 C55.68,17.094 56,17.867 56,18.657 L56,53 C56,54.654 54.654,56 53,56 L48,56 L48,35 C48,34.448 47.552,34 47,34 L17,34 C16.448,34 16,34.448 16,35 L16,56 L11,56 C9.346,56 8,54.654 8,53 L8,11 L8,11 Z" id="Shape" fill="#000000"></path>
        <path d="M23,44 L41,44 C41.552,44 42,43.552 42,43 C42,42.448 41.552,42 41,42 L23,42 C22.448,42 22,42.448 22,43 C22,43.552 22.448,44 23,44 L23,44 Z" id="Shape" fill="#000000"></path>
        <path d="M23,50 L41,50 C41.552,50 42,49.552 42,49 C42,48.448 41.552,48 41,48 L23,48 C22.448,48 22,48.448 22,49 C22,49.552 22.448,50 23,50 L23,50 Z" id="Shape" fill="#000000"></path>
    </g>
</svg>