<?xml version="1.0" encoding="UTF-8" standalone="no"?>
<svg width="64px" height="64px" viewBox="0 0 64 64" version="1.1" xmlns="http://www.w3.org/2000/svg" xmlns:xlink="http://www.w3.org/1999/xlink">
    <!-- Generator: Sketch 3.7.2 (28276) - http://www.bohemiancoding.com/sketch -->
    <title>com-laptop-connected</title>
    <desc>Created with Sketch.</desc>
    <defs></defs>
    <g id="64px-Line" stroke="none" stroke-width="1" fill="none" fill-rule="evenodd">
        <g id="com-laptop-connected"></g>
        <path d="M49,10 L15,10 C14.447,10 14,10.448 14,11 L14,31 C14,31.552 14.447,32 15,32 L49,32 C49.553,32 50,31.552 50,31 L50,11 C50,10.448 49.553,10 49,10 L49,10 Z M48,30 L16,30 L16,12 L48,12 L48,30 L48,30 Z" id="Shape" fill="#000000"></path>
        <path d="M5,56 C4.447,56 4,56.448 4,57 C4,57.552 4.447,58 5,58 L26,58 L26,59 C26,59.552 26.447,60 27,60 L39,60 C39.553,60 40,59.552 40,59 L40,58 L59,58 C59.553,58 60,57.552 60,57 C60,56.448 59.553,56 59,56 L40,56 L40,54 L59,54 C59.553,54 60,53.552 60,53 C60,52.448 59.553,52 59,52 L40,52 L40,51 C40,50.448 39.553,50 39,50 L36,50 L36,42 L54,42 C56.206,42 58,40.206 58,38 L58,35 C58,34.448 57.553,34 57,34 L54,34 L54,10 C54,7.794 52.206,6 50,6 L14,6 C11.794,6 10,7.794 10,10 L10,34 L7,34 C6.447,34 6,34.448 6,35 L6,38 C6,40.206 7.794,42 10,42 L30,42 L30,50 L27,50 C26.447,50 26,50.448 26,51 L26,52 L5,52 C4.447,52 4,52.448 4,53 C4,53.552 4.447,54 5,54 L26,54 L26,56 L5,56 L5,56 Z M12,10 C12,8.897 12.897,8 14,8 L50,8 C51.103,8 52,8.897 52,10 L52,34 L12,34 L12,10 L12,10 Z M8,38 L8,36 L56,36 L56,38 C56,39.103 55.103,40 54,40 L10,40 C8.897,40 8,39.103 8,38 L8,38 Z M32,42 L34,42 L34,50 L32,50 L32,42 L32,42 Z M28,52 L38,52 L38,58 L28,58 L28,52 L28,52 Z" id="Shape" fill="#000000"></path>
    </g>
</svg>