<?xml version="1.0" encoding="UTF-8" standalone="no"?>
<svg width="64px" height="64px" viewBox="0 0 64 64" version="1.1" xmlns="http://www.w3.org/2000/svg" xmlns:xlink="http://www.w3.org/1999/xlink">
    <!-- Generator: Sketch 3.7.2 (28276) - http://www.bohemiancoding.com/sketch -->
    <title>com-warning</title>
    <desc>Created with Sketch.</desc>
    <defs></defs>
    <g id="64px-Line" stroke="none" stroke-width="1" fill="none" fill-rule="evenodd">
        <g id="com-warning"></g>
        <path d="M8,46 L54,46 C56.206,46 58,44.206 58,42 L58,10 C58,7.794 56.206,6 54,6 L8,6 C5.794,6 4,7.794 4,10 L4,42 C4,44.206 5.794,46 8,46 L8,46 Z M54,44 L8,44 C6.897,44 6,43.103 6,42 L6,36 L56,36 L56,42 C56,43.103 55.103,44 54,44 L54,44 Z M8,8 L54,8 C55.103,8 56,8.897 56,10 L56,34 L6,34 L6,10 C6,8.897 6.897,8 8,8 L8,8 Z" id="Shape" fill="#000000"></path>
        <circle id="Oval" fill="#000000" cx="31" cy="40" r="2"></circle>
        <path d="M37.975,52.878 C37.97,52.837 37.98,52.798 37.969,52.757 L36.969,48.757 C36.835,48.221 36.291,47.892 35.757,48.029 C35.221,48.163 34.895,48.706 35.029,49.242 L35.985,53.066 C35.95,53.585 35.528,54 35,54 L27,54 C26.472,54 26.05,53.585 26.014,53.067 L26.97,49.243 C27.105,48.707 26.779,48.164 26.242,48.03 C25.706,47.892 25.164,48.222 25.03,48.758 L24.03,52.758 C24.02,52.799 24.029,52.838 24.024,52.879 C24.019,52.92 24,52.957 24,53 C24,53.044 24.011,53.085 24.013,53.128 C24.015,53.142 24.015,53.155 24.017,53.169 C24.107,54.743 25.403,56 27,56 L35,56 C36.596,56 37.893,54.743 37.983,53.169 C37.985,53.155 37.985,53.142 37.987,53.128 C37.989,53.085 38,53.044 38,53 C38,52.957 37.981,52.92 37.975,52.878 L37.975,52.878 Z" id="Shape" fill="#000000"></path>
        <path d="M23.143,30 L38.858,30 C40.59,30 42.001,28.654 42.001,27 C42.001,26.39 41.73,25.787 41.677,25.672 C41.657,25.63 41.635,25.59 41.61,25.551 L33.537,13.226 C32.947,12.458 31.999,11.999 31.002,11.999 C30.004,11.999 29.057,12.458 28.423,13.288 L20.394,25.551 C20.369,25.59 20.346,25.63 20.327,25.672 C20.271,25.787 20,26.39 20,27 C20,28.654 21.41,30 23.143,30 L23.143,30 Z M22.11,26.578 L30.05,14.445 C30.478,13.887 31.565,13.948 31.904,14.384 L39.888,26.578 C39.935,26.694 39.998,26.894 39.998,27 C39.998,27.551 39.485,28 38.855,28 L23.14,28 C22.51,28 21.997,27.551 21.997,27 C22,26.904 22.056,26.714 22.11,26.578 L22.11,26.578 Z" id="Shape" fill="#000000"></path>
        <path d="M31,22 C31.553,22 32,21.552 32,21 L32,17 C32,16.448 31.553,16 31,16 C30.447,16 30,16.448 30,17 L30,21 C30,21.552 30.447,22 31,22 L31,22 Z" id="Shape" fill="#000000"></path>
        <path d="M30.29,25.71 C30.479,25.89 30.74,26 31,26 C31.26,26 31.52,25.89 31.71,25.71 C31.89,25.52 32,25.26 32,25 C32,24.74 31.89,24.48 31.71,24.29 C31.34,23.92 30.66,23.92 30.29,24.29 C30.2,24.39 30.13,24.49 30.08,24.62 C30.03,24.74 30,24.87 30,25 C30,25.13 30.03,25.26 30.08,25.38 C30.13,25.51 30.2,25.61 30.29,25.71 L30.29,25.71 Z" id="Shape" fill="#000000"></path>
    </g>
</svg>