<?xml version="1.0" encoding="UTF-8" standalone="no"?>
<svg width="64px" height="64px" viewBox="0 0 64 64" version="1.1" xmlns="http://www.w3.org/2000/svg" xmlns:xlink="http://www.w3.org/1999/xlink">
    <!-- Generator: Sketch 3.7.2 (28276) - http://www.bohemiancoding.com/sketch -->
    <title>com-joystick</title>
    <desc>Created with Sketch.</desc>
    <defs></defs>
    <g id="64px-Line" stroke="none" stroke-width="1" fill="none" fill-rule="evenodd">
        <g id="com-joystick"></g>
        <path d="M49,46 L36,46 L36,40 L37.266,40 C38.749,40 40.026,38.893 40.236,37.425 L40.633,34.642 C40.694,34.213 40.685,33.779 40.607,33.348 L40.31,31.748 C40.232,31.328 40.289,30.902 40.474,30.517 L41.045,29.329 C41.418,28.553 41.53,27.697 41.37,26.853 L41.163,25.76 C41.085,25.343 41.139,24.921 41.317,24.539 L41.922,23.246 C42.285,22.472 42.39,21.583 42.218,20.744 L42.03,19.826 C41.943,19.406 41.996,18.962 42.178,18.573 L43.002,16.819 C43.17,16.458 43.284,16.077 43.34,15.686 L43.663,13.424 C43.786,12.562 43.529,11.691 42.959,11.033 C42.389,10.375 41.564,10 40.694,10 L27,10 C25.346,10 24,11.346 24,13 L24,37 C24,38.654 25.346,40 27,40 L28,40 L28,46 L13,46 C11.346,46 10,47.346 10,49 L10,57 C10,58.654 11.346,60 13,60 L49,60 C50.654,60 52,58.654 52,57 L52,49 C52,47.346 50.654,46 49,46 L49,46 Z M26,37 L26,13 C26,12.448 26.448,12 27,12 L40.694,12 C40.988,12 41.256,12.122 41.449,12.345 C41.641,12.568 41.725,12.851 41.683,13.142 L41.36,15.405 C41.333,15.6 41.275,15.791 41.191,15.971 L40.368,17.723 C40.003,18.5 39.897,19.391 40.071,20.23 L40.259,21.147 C40.345,21.567 40.292,22.011 40.112,22.399 L39.507,23.691 C39.149,24.455 39.042,25.297 39.198,26.13 L39.405,27.225 C39.485,27.646 39.428,28.074 39.242,28.462 L38.671,29.65 C38.301,30.421 38.187,31.272 38.343,32.113 L38.64,33.71 C38.679,33.926 38.684,34.145 38.653,34.359 L38.256,37.141 C38.187,37.63 37.761,37.999 37.267,37.999 L27,37.999 C26.448,38 26,37.552 26,37 L26,37 Z M30,40 L34,40 L34,46 L30,46 L30,40 L30,40 Z M50,57 C50,57.552 49.552,58 49,58 L13,58 C12.448,58 12,57.552 12,57 L12,49 C12,48.448 12.448,48 13,48 L49,48 C49.552,48 50,48.448 50,49 L50,57 L50,57 Z" id="Shape" fill="#000000"></path>
        <path d="M40,43 C40,43.553 40.447,44 41,44 L47,44 C47.553,44 48,43.553 48,43 C48,42.447 47.553,42 47,42 L41,42 C40.447,42 40,42.447 40,43 L40,43 Z" id="Shape" fill="#000000"></path>
        <path d="M37,8 C37.553,8 38,7.553 38,7 C38,6.447 37.553,6 37,6 L29,6 C28.447,6 28,6.447 28,7 C28,7.553 28.447,8 29,8 L37,8 L37,8 Z" id="Shape" fill="#000000"></path>
    </g>
</svg>