<?xml version="1.0" encoding="UTF-8" standalone="no"?>
<svg width="64px" height="64px" viewBox="0 0 64 64" version="1.1" xmlns="http://www.w3.org/2000/svg" xmlns:xlink="http://www.w3.org/1999/xlink">
    <!-- Generator: Sketch 3.7.2 (28276) - http://www.bohemiancoding.com/sketch -->
    <title>com-usb-stick</title>
    <desc>Created with Sketch.</desc>
    <defs></defs>
    <g id="64px-Line" stroke="none" stroke-width="1" fill="none" fill-rule="evenodd">
        <g id="com-usb-stick"></g>
        <path d="M58,18.402 C58,18.136 57.895,17.882 57.707,17.694 L46.283,6.292 C45.892,5.902 45.261,5.902 44.87,6.292 L34.153,16.989 L33.431,16.269 C32.254,15.095 30.34,15.095 29.162,16.269 L8.027,37.364 C2.848,42.535 2.643,50.89 7.571,55.991 C10.037,58.544 13.349,59.968 16.898,60 C16.94,60.001 16.98,60.001 17.022,60.001 C20.524,60.001 23.813,58.642 26.293,56.167 L47.712,34.788 C48.283,34.218 48.597,33.461 48.597,32.655 C48.597,31.849 48.283,31.092 47.712,30.522 L46.993,29.805 L57.707,19.111 C57.895,18.922 58,18.667 58,18.402 L58,18.402 Z M46.298,33.371 L24.879,54.75 C22.752,56.873 19.89,58.061 16.916,57.999 C13.908,57.972 11.1,56.766 9.01,54.602 C4.836,50.281 5.029,43.183 9.441,38.78 L30.576,17.685 C30.775,17.487 31.036,17.388 31.297,17.388 C31.559,17.388 31.82,17.487 32.019,17.686 L44.868,30.51 C44.868,30.51 44.869,30.511 44.869,30.512 C44.869,30.513 44.87,30.513 44.871,30.513 L46.299,31.938 C46.491,32.13 46.597,32.385 46.597,32.656 C46.596,32.925 46.49,33.18 46.298,33.371 L46.298,33.371 Z M45.576,28.39 L35.568,18.401 L45.576,8.412 L55.584,18.401 L45.576,28.39 L45.576,28.39 Z" id="Shape" fill="#000000"></path>
        <path d="M43.442,13.418 L40.586,16.269 C40.398,16.457 40.293,16.711 40.293,16.977 C40.293,17.243 40.398,17.497 40.586,17.685 L42.014,19.11 C42.209,19.305 42.465,19.402 42.721,19.402 C42.977,19.402 43.233,19.304 43.429,19.109 C43.82,18.718 43.819,18.085 43.428,17.695 L42.709,16.977 L44.149,15.539 L44.87,16.259 C45.26,16.65 45.893,16.649 46.284,16.258 C46.674,15.867 46.674,15.234 46.283,14.844 L44.855,13.419 C44.465,13.029 43.833,13.029 43.442,13.418 L43.442,13.418 Z" id="Shape" fill="#000000"></path>
        <path d="M44.576,21.252 C44.576,21.518 44.681,21.772 44.869,21.96 L46.297,23.385 C46.492,23.58 46.748,23.677 47.004,23.677 C47.26,23.677 47.517,23.579 47.712,23.384 C48.102,22.993 48.101,22.36 47.711,21.969 L46.992,21.252 L48.432,19.814 L49.154,20.535 C49.545,20.925 50.178,20.924 50.569,20.534 C50.959,20.143 50.958,19.51 50.568,19.119 L49.14,17.694 C48.75,17.305 48.118,17.305 47.727,17.694 L44.871,20.545 C44.682,20.732 44.576,20.987 44.576,21.252 L44.576,21.252 Z" id="Shape" fill="#000000"></path>
    </g>
</svg>