<?xml version="1.0" encoding="UTF-8" standalone="no"?>
<svg width="64px" height="64px" viewBox="0 0 64 64" version="1.1" xmlns="http://www.w3.org/2000/svg" xmlns:xlink="http://www.w3.org/1999/xlink">
    <!-- Generator: Sketch 3.7.2 (28276) - http://www.bohemiancoding.com/sketch -->
    <title>com-circuit</title>
    <desc>Created with Sketch.</desc>
    <defs></defs>
    <g id="64px-Line" stroke="none" stroke-width="1" fill="none" fill-rule="evenodd">
        <g id="com-circuit"></g>
        <path d="M11,58 L53,58 C55.757,58 58,55.757 58,53 L58,11 C58,8.243 55.757,6 53,6 L11,6 C8.243,6 6,8.243 6,11 L6,53 C6,55.757 8.243,58 11,58 L11,58 Z M8,53 L8,48 L23,48 C23.552,48 24,48.449 24,49 L24,56 L11,56 C9.346,56 8,54.654 8,53 L8,53 Z M56,11 L56,18 L47,18 C46.448,18 46,17.551 46,17 L46,8 L53,8 C54.654,8 56,9.346 56,11 L56,11 Z M19,18 C20.654,18 22,19.346 22,21 C22,22.654 20.654,24 19,24 C17.346,24 16,22.654 16,21 C16,19.346 17.346,18 19,18 L19,18 Z M11,8 L18,8 L18,16.101 C15.721,16.566 14,18.585 14,21 C14,23.757 16.243,26 19,26 C21.757,26 24,23.757 24,21 C24,18.585 22.279,16.566 20,16.101 L20,8 L44,8 L44,17 C44,18.654 45.346,20 47,20 L56,20 L56,53 C56,54.654 54.654,56 53,56 L36,56 L36,49 C36,48.449 36.448,48 37,48 L42.101,48 C42.566,50.279 44.585,52 47,52 C49.757,52 52,49.757 52,47 C52,44.243 49.757,42 47,42 C44.586,42 42.566,43.721 42.101,46 L37,46 C35.346,46 34,47.346 34,49 L34,56 L26,56 L26,49 C26,47.346 24.654,46 23,46 L8,46 L8,40 L43,40 C44.654,40 46,38.654 46,37 L46,33.899 C48.279,33.434 50,31.415 50,29 C50,26.243 47.757,24 45,24 C42.243,24 40,26.243 40,29 C40,31.415 41.721,33.434 44,33.899 L44,37 C44,37.551 43.552,38 43,38 L8,38 L8,32 L31,32 C32.654,32 34,30.654 34,29 L34,21.899 C36.279,21.434 38,19.415 38,17 C38,14.243 35.757,12 33,12 C30.243,12 28,14.243 28,17 C28,19.415 29.721,21.434 32,21.899 L32,29 C32,29.551 31.552,30 31,30 L8,30 L8,11 C8,9.346 9.346,8 11,8 L11,8 Z M44,47 C44,45.346 45.346,44 47,44 C48.654,44 50,45.346 50,47 C50,48.654 48.654,50 47,50 C45.346,50 44,48.654 44,47 L44,47 Z M45,32 C43.346,32 42,30.654 42,29 C42,27.346 43.346,26 45,26 C46.654,26 48,27.346 48,29 C48,30.654 46.654,32 45,32 L45,32 Z M33,20 C31.346,20 30,18.654 30,17 C30,15.346 31.346,14 33,14 C34.654,14 36,15.346 36,17 C36,18.654 34.654,20 33,20 L33,20 Z" id="Shape" fill="#000000"></path>
    </g>
</svg>