<?xml version="1.0" encoding="UTF-8" standalone="no"?>
<svg width="64px" height="64px" viewBox="0 0 64 64" version="1.1" xmlns="http://www.w3.org/2000/svg" xmlns:xlink="http://www.w3.org/1999/xlink">
    <!-- Generator: Sketch 3.7.2 (28276) - http://www.bohemiancoding.com/sketch -->
    <title>com-laptop</title>
    <desc>Created with Sketch.</desc>
    <defs></defs>
    <g id="64px-Line" stroke="none" stroke-width="1" fill="none" fill-rule="evenodd">
        <g id="com-laptop"></g>
        <path d="M13,34 L49,34 C49.552,34 50,33.553 50,33 L50,11 C50,10.447 49.552,10 49,10 L13,10 C12.448,10 12,10.447 12,11 L12,33 C12,33.553 12.448,34 13,34 L13,34 Z M14,12 L48,12 L48,32 L14,32 L14,12 L14,12 Z" id="Shape" fill="#000000"></path>
        <path d="M54.755,38.346 C54.585,37.596 54.143,36.977 53.55,36.561 C53.83,36.105 54,35.574 54,35 L54,9 C54,7.346 52.654,6 51,6 L11,6 C9.346,6 8,7.346 8,9 L8,35 C8,35.575 8.17,36.107 8.452,36.563 C7.857,36.985 7.411,37.616 7.236,38.392 L4.074,56.345 C3.873,57.23 4.085,58.146 4.653,58.857 C5.233,59.584 6.103,60 7.039,60 L54.96,60 C55.897,60 56.766,59.584 57.346,58.857 C57.914,58.146 58.126,57.23 57.935,56.392 L54.755,38.346 L54.755,38.346 Z M10,9 C10,8.448 10.449,8 11,8 L51,8 C51.551,8 52,8.448 52,9 L52,35 C52,35.552 51.551,36 51,36 L11,36 C10.449,36 10,35.552 10,35 L10,9 L10,9 Z M55.784,57.609 C55.585,57.857 55.285,58 54.96,58 L7.04,58 C6.715,58 6.415,57.857 6.216,57.609 C6.106,57.471 5.935,57.182 6.034,56.74 L9.196,38.787 C9.299,38.331 9.726,38 10.21,38 L11,38 L51,38 L51.79,38 C52.274,38 52.701,38.331 52.795,38.74 L55.976,56.787 C56.065,57.183 55.894,57.472 55.784,57.609 L55.784,57.609 Z" id="Shape" fill="#000000"></path>
        <path d="M38,46 L24,46 C23.496,46 23.07,46.376 23.008,46.876 L22.008,54.876 C21.972,55.16 22.061,55.446 22.251,55.662 C22.44,55.877 22.714,56 23.001,56 L39.001,56 C39.288,56 39.561,55.877 39.751,55.662 C39.941,55.446 40.029,55.16 39.994,54.876 L38.994,46.876 C38.93,46.376 38.504,46 38,46 L38,46 Z M24.133,54 L24.883,48 L37.117,48 L37.867,54 L24.133,54 L24.133,54 Z" id="Shape" fill="#000000"></path>
    </g>
</svg>