<?xml version="1.0" encoding="UTF-8" standalone="no"?>
<svg width="64px" height="64px" viewBox="0 0 64 64" version="1.1" xmlns="http://www.w3.org/2000/svg" xmlns:xlink="http://www.w3.org/1999/xlink">
    <!-- Generator: Sketch 3.7.2 (28276) - http://www.bohemiancoding.com/sketch -->
    <title>com-edit</title>
    <desc>Created with Sketch.</desc>
    <defs></defs>
    <g id="64px-Line" stroke="none" stroke-width="1" fill="none" fill-rule="evenodd">
        <g id="com-edit"></g>
        <path d="M8,46 L54,46 C56.206,46 58,44.206 58,42 L58,10 C58,7.794 56.206,6 54,6 L8,6 C5.794,6 4,7.794 4,10 L4,42 C4,44.206 5.794,46 8,46 L8,46 Z M54,44 L8,44 C6.897,44 6,43.103 6,42 L6,36 L56,36 L56,42 C56,43.103 55.103,44 54,44 L54,44 Z M8,8 L54,8 C55.103,8 56,8.897 56,10 L56,34 L6,34 L6,10 C6,8.897 6.897,8 8,8 L8,8 Z" id="Shape" fill="#000000"></path>
        <circle id="Oval" fill="#000000" cx="31" cy="40" r="2"></circle>
        <path d="M37.975,52.878 C37.97,52.837 37.98,52.798 37.969,52.757 L36.969,48.757 C36.835,48.221 36.29,47.892 35.757,48.029 C35.221,48.163 34.895,48.706 35.029,49.242 L35.985,53.066 C35.95,53.585 35.528,54 35,54 L27,54 C26.472,54 26.05,53.585 26.014,53.067 L26.97,49.243 C27.105,48.707 26.779,48.164 26.242,48.03 C25.704,47.892 25.163,48.222 25.03,48.758 L24.03,52.758 C24.02,52.799 24.029,52.838 24.024,52.879 C24.019,52.92 24,52.957 24,53 C24,53.044 24.011,53.085 24.013,53.128 C24.015,53.142 24.015,53.155 24.017,53.169 C24.107,54.743 25.403,56 27,56 L35,56 C36.596,56 37.893,54.743 37.983,53.169 C37.985,53.155 37.985,53.142 37.987,53.128 C37.989,53.085 38,53.044 38,53 C38,52.957 37.981,52.92 37.975,52.878 L37.975,52.878 Z" id="Shape" fill="#000000"></path>
        <path d="M21,32 C21.151,32 21.303,31.966 21.444,31.896 L29.634,27.838 C29.732,27.789 29.822,27.725 29.9,27.647 L30.271,27.273 L30.272,27.273 C30.272,27.273 30.272,27.273 30.272,27.272 L39.482,17.995 L41.277,16.309 C42.236,15.348 42.238,13.779 41.277,12.81 L39.203,10.729 C38.271,9.791 36.613,9.814 35.734,10.703 L33.944,12.38 C33.939,12.384 33.938,12.39 33.934,12.395 C33.929,12.4 33.923,12.401 33.918,12.406 L24.328,22.068 C24.252,22.145 24.188,22.235 24.14,22.332 L20.101,30.561 C19.912,30.945 19.989,31.408 20.292,31.71 C20.486,31.899 20.741,32 21,32 L21,32 Z M29.562,25.148 L26.815,22.401 L34.63,14.528 L37.371,17.282 L29.562,25.148 L29.562,25.148 Z M37.456,12 C37.528,12 37.666,12.018 37.786,12.139 L39.86,14.22 C40.046,14.408 40.047,14.71 39.885,14.873 L38.804,15.888 L36.064,13.135 L37.128,12.137 C37.247,12.018 37.385,12 37.456,12 L37.456,12 Z M25.562,23.976 L28.002,26.416 L23.196,28.797 L25.562,23.976 L25.562,23.976 Z" id="Shape" fill="#000000"></path>
    </g>
</svg>