<?xml version="1.0" encoding="UTF-8" standalone="no"?>
<svg width="64px" height="64px" viewBox="0 0 64 64" version="1.1" xmlns="http://www.w3.org/2000/svg" xmlns:xlink="http://www.w3.org/1999/xlink">
    <!-- Generator: Sketch 3.7.2 (28276) - http://www.bohemiancoding.com/sketch -->
    <title>com-usb</title>
    <desc>Created with Sketch.</desc>
    <defs></defs>
    <g id="64px-Line" stroke="none" stroke-width="1" fill="none" fill-rule="evenodd">
        <g id="com-usb"></g>
        <path d="M53.901,23.98 C53.512,23.597 52.887,23.597 52.499,23.98 L46.699,29.687 C46.508,29.875 46.4,30.132 46.4,30.4 C46.4,30.668 46.507,30.925 46.699,31.113 L48.874,33.254 L48.148,33.968 C46.552,35.537 44.267,36.282 42.029,35.973 L29.849,34.261 C29.073,34.15 28.294,34.15 27.528,34.236 L44.499,17.537 L48.148,21.127 C48.337,21.314 48.59,21.414 48.849,21.414 C48.939,21.414 49.029,21.402 49.118,21.377 C49.463,21.28 49.73,21.007 49.818,20.66 L52.718,9.246 C52.804,8.906 52.706,8.545 52.459,8.295 C52.21,8.045 51.85,7.943 51.51,8.028 L39.91,10.882 C39.558,10.969 39.281,11.239 39.184,11.589 C39.088,11.938 39.189,12.312 39.447,12.567 L43.072,16.134 L22.053,36.816 C22.051,36.818 22.049,36.819 22.047,36.821 C22.047,36.821 22.046,36.822 22.046,36.823 L20.28,38.561 C20.37,37.798 20.371,37.022 20.259,36.25 L18.519,24.266 C18.202,22.078 18.961,19.838 20.552,18.273 L21.902,16.939 C22.766,17.616 23.813,18.001 24.933,18.001 L24.974,18.001 C27.722,17.979 29.975,15.725 29.998,12.977 L29.998,12.977 C30.009,11.639 29.497,10.384 28.556,9.443 C27.615,8.502 26.361,7.97 25.022,8.001 C22.274,8.023 20.021,10.277 19.998,13.025 C19.991,13.875 20.217,14.681 20.608,15.404 L19.148,16.847 C17.107,18.856 16.132,21.737 16.54,24.552 L18.28,36.536 C18.598,38.724 17.838,40.963 16.248,42.527 C16.248,42.527 16.248,42.527 16.247,42.528 L15.285,43.474 C14.065,42.522 12.574,42 11,42 C9.13,42 7.373,42.729 6.05,44.051 C4.727,45.373 4,47.13 4,49 C4,50.87 4.728,52.627 6.05,53.949 C7.372,55.271 9.13,56 11,56 C12.87,56 14.627,55.271 15.95,53.949 C17.273,52.627 18,50.869 18,49 C18,47.511 17.531,46.098 16.676,44.914 L23.458,38.241 C25.054,36.674 27.342,35.931 29.572,36.241 L41.752,37.953 C44.6,38.355 47.516,37.395 49.552,35.393 L50.301,34.656 L52.5,36.82 C52.694,37.011 52.948,37.107 53.201,37.107 C53.454,37.107 53.708,37.011 53.902,36.82 L59.702,31.113 C59.893,30.925 60.001,30.668 60.001,30.4 C60.001,30.132 59.894,29.875 59.702,29.687 L53.901,23.98 L53.901,23.98 Z M50.37,10.369 L48.31,18.479 L45.214,15.432 L45.214,15.432 L45.214,15.432 L42.129,12.397 L50.37,10.369 L50.37,10.369 Z M25.04,10 L25.064,10 C25.853,10 26.591,10.303 27.144,10.856 C27.702,11.415 28.006,12.162 28,12.96 C27.986,14.623 26.623,15.987 24.96,16.001 L24.936,16.001 C24.147,16.001 23.409,15.698 22.856,15.145 C22.298,14.586 21.994,13.839 22,13.041 C22.014,11.377 23.377,10.014 25.04,10 L25.04,10 Z M14.536,52.535 C13.592,53.479 12.336,54 11,54 C9.664,54 8.409,53.479 7.464,52.535 C6.519,51.591 6,50.335 6,49 C6,47.665 6.52,46.409 7.464,45.465 C8.408,44.521 9.665,44 11,44 C12.335,44 13.591,44.521 14.536,45.465 C15.481,46.409 16,47.665 16,49 C16,50.335 15.48,51.591 14.536,52.535 L14.536,52.535 Z M53.2,34.704 L48.826,30.4 L53.2,26.096 L57.574,30.4 L53.2,34.704 L53.2,34.704 Z" id="Shape" fill="#000000"></path>
    </g>
</svg>