<?xml version="1.0" encoding="UTF-8" standalone="no"?>
<svg width="64px" height="64px" viewBox="0 0 64 64" version="1.1" xmlns="http://www.w3.org/2000/svg" xmlns:xlink="http://www.w3.org/1999/xlink">
    <!-- Generator: Sketch 3.7.2 (28276) - http://www.bohemiancoding.com/sketch -->
    <title>com-mac</title>
    <desc>Created with Sketch.</desc>
    <defs></defs>
    <g id="64px-Line" stroke="none" stroke-width="1" fill="none" fill-rule="evenodd">
        <g id="com-mac"></g>
        <path d="M26.242,48.03 C25.706,47.893 25.164,48.221 25.03,48.758 L24.03,52.758 C24.02,52.799 24.029,52.838 24.024,52.878 C24.019,52.92 24,52.957 24,53 C24,53.044 24.011,53.085 24.013,53.128 C24.015,53.142 24.015,53.155 24.017,53.169 C24.107,54.743 25.403,56 27,56 L37,56 C38.596,56 39.893,54.743 39.983,53.169 C39.985,53.155 39.985,53.142 39.987,53.128 C39.989,53.085 40,53.044 40,53 C40,52.957 39.981,52.919 39.975,52.878 C39.97,52.838 39.98,52.799 39.969,52.758 L38.969,48.758 C38.835,48.222 38.292,47.895 37.757,48.03 C37.221,48.164 36.895,48.707 37.029,49.242 L37.985,53.067 C37.95,53.586 37.528,54 37,54 L27,54 C26.472,54 26.05,53.586 26.014,53.067 L26.97,49.242 C27.104,48.707 26.778,48.164 26.242,48.03 L26.242,48.03 Z" id="Shape" fill="#000000"></path>
        <path d="M56,8 L8,8 C5.794,8 4,9.794 4,12 L4,42 C4,44.206 5.794,46 8,46 L56,46 C58.206,46 60,44.206 60,42 L60,12 C60,9.794 58.206,8 56,8 L56,8 Z M8,10 L56,10 C57.103,10 58,10.897 58,12 L58,34 L6,34 L6,12 C6,10.897 6.897,10 8,10 L8,10 Z M56,44 L8,44 C6.897,44 6,43.103 6,42 L6,36 L58,36 L58,42 C58,43.103 57.103,44 56,44 L56,44 Z" id="Shape" fill="#000000"></path>
        <circle id="Oval" fill="#000000" cx="32" cy="40" r="2"></circle>
    </g>
</svg>