<?xml version="1.0" encoding="UTF-8" standalone="no"?>
<svg width="64px" height="64px" viewBox="0 0 64 64" version="1.1" xmlns="http://www.w3.org/2000/svg" xmlns:xlink="http://www.w3.org/1999/xlink">
    <!-- Generator: Sketch 3.7.2 (28276) - http://www.bohemiancoding.com/sketch -->
    <title>com-ram</title>
    <desc>Created with Sketch.</desc>
    <defs></defs>
    <g id="64px-Line" stroke="none" stroke-width="1" fill="none" fill-rule="evenodd">
        <g id="com-ram"></g>
        <path d="M5,46.001 L8,46.001 L8,57.001 C8,57.553 8.448,58.001 9,58.001 L13,58.001 C13.552,58.001 14,57.553 14,57.001 L14,46.001 L18,46.001 L18,57.001 C18,57.553 18.448,58.001 19,58.001 L23,58.001 C23.552,58.001 24,57.553 24,57.001 L24,46.001 L28,46.001 L28,57.001 C28,57.553 28.448,58.001 29,58.001 L33,58.001 C33.552,58.001 34,57.553 34,57.001 L34,46.001 L38,46.001 L38,57.001 C38,57.553 38.448,58.001 39,58.001 L43,58.001 C43.552,58.001 44,57.553 44,57.001 L44,46.001 L48,46.001 L48,57.001 C48,57.553 48.448,58.001 49,58.001 L53,58.001 C53.552,58.001 54,57.553 54,57.001 L54,46.001 L57,46.001 C57.552,46.001 58,45.553 58,45.001 L58,21.001 C58,20.449 57.552,20.001 57,20.001 L54,20.001 L54,9.001 C54,8.449 53.552,8.001 53,8.001 L49,8.001 C48.448,8.001 48,8.449 48,9.001 L48,20.001 L44,20.001 L44,9.001 C44,8.449 43.552,8.001 43,8.001 L39,8.001 C38.448,8.001 38,8.449 38,9.001 L38,20.001 L34,20.001 L34,9.001 C34,8.449 33.552,8.001 33,8.001 L29,8.001 C28.448,8.001 28,8.449 28,9.001 L28,20.001 L24,20.001 L24,9.001 C24,8.449 23.552,8.001 23,8.001 L19,8.001 C18.448,8.001 18,8.449 18,9.001 L18,20.001 L14,20.001 L14,9.001 C14,8.449 13.552,8.001 13,8.001 L9,8.001 C8.448,8.001 8,8.449 8,9.001 L8,20.001 L5,20.001 C4.448,20.001 4,20.449 4,21.001 L4,45.001 C4,45.554 4.448,46.001 5,46.001 L5,46.001 Z M12,56.001 L10,56.001 L10,46.001 L12,46.001 L12,56.001 L12,56.001 Z M22,56.001 L20,56.001 L20,46.001 L22,46.001 L22,56.001 L22,56.001 Z M32,56.001 L30,56.001 L30,46.001 L32,46.001 L32,56.001 L32,56.001 Z M42,56.001 L40,56.001 L40,46.001 L42,46.001 L42,56.001 L42,56.001 Z M52,56.001 L50,56.001 L50,46.001 L52,46.001 L52,56.001 L52,56.001 Z M50,10.001 L52,10.001 L52,20.001 L50,20.001 L50,10.001 L50,10.001 Z M40,10.001 L42,10.001 L42,20.001 L40,20.001 L40,10.001 L40,10.001 Z M30,10.001 L32,10.001 L32,20.001 L30,20.001 L30,10.001 L30,10.001 Z M20,10.001 L22,10.001 L22,20.001 L20,20.001 L20,10.001 L20,10.001 Z M10,10.001 L12,10.001 L12,20.001 L10,20.001 L10,10.001 L10,10.001 Z M6,22.001 L9,22.001 L13,22.001 L19,22.001 L23,22.001 L29,22.001 L33,22.001 L39,22.001 L43,22.001 L49,22.001 L53,22.001 L56,22.001 L56,44.001 L53,44.001 L49,44.001 L43,44.001 L39,44.001 L33,44.001 L29,44.001 L23,44.001 L19,44.001 L13,44.001 L9,44.001 L6,44.001 L6,22.001 L6,22.001 Z" id="Shape" fill="#000000"></path>
        <path d="M19,38.001 C19.552,38.001 20,37.553 20,37.001 L20,34.001 L20.382,34.001 L22.106,37.448 C22.281,37.799 22.634,38.001 23.002,38.001 C23.152,38.001 23.305,37.967 23.448,37.896 C23.942,37.649 24.142,37.048 23.895,36.554 L22.429,33.623 C23.36,33.113 24,32.136 24,31.002 C24,29.348 22.654,28.002 21,28.002 L19,28.002 C18.448,28.002 18,28.45 18,29.002 L18,37.002 C18,37.554 18.448,38.001 19,38.001 L19,38.001 Z M21,30.001 C21.551,30.001 22,30.45 22,31.001 C22,31.552 21.551,32.001 21,32.001 L20,32.001 L20,30.001 L21,30.001 L21,30.001 Z" id="Shape" fill="#000000"></path>
        <path d="M27,38.001 C27.552,38.001 28,37.553 28,37.001 L28,34.001 L30,34.001 L30,37.001 C30,37.553 30.448,38.001 31,38.001 C31.552,38.001 32,37.553 32,37.001 L32,31.001 C32,29.347 30.654,28.001 29,28.001 C27.346,28.001 26,29.347 26,31.001 L26,37.001 C26,37.554 26.448,38.001 27,38.001 L27,38.001 Z M29,30.001 C29.551,30.001 30,30.45 30,31.001 L30,32.001 L28,32.001 L28,31.001 C28,30.45 28.449,30.001 29,30.001 L29,30.001 Z" id="Shape" fill="#000000"></path>
        <path d="M35,38.001 C35.552,38.001 36,37.553 36,37.001 L36,32.001 L37.2,33.601 C37.222,33.631 37.257,33.643 37.283,33.669 C37.323,33.712 37.351,33.764 37.4,33.8 C37.435,33.826 37.475,33.838 37.512,33.859 C37.545,33.878 37.576,33.896 37.611,33.911 C37.737,33.965 37.867,34.001 37.999,34.001 L38,34.001 L38.001,34.001 C38.133,34.001 38.263,33.965 38.389,33.911 C38.424,33.896 38.455,33.878 38.488,33.859 C38.525,33.838 38.565,33.827 38.6,33.8 C38.649,33.763 38.677,33.712 38.717,33.669 C38.742,33.642 38.777,33.631 38.8,33.601 L40,32.001 L40,37.001 C40,37.553 40.448,38.001 41,38.001 C41.552,38.001 42,37.553 42,37.001 L42,29.001 C42,28.977 41.988,28.957 41.986,28.933 C41.981,28.863 41.964,28.799 41.945,28.731 C41.928,28.671 41.913,28.613 41.885,28.558 C41.857,28.503 41.82,28.455 41.782,28.405 C41.74,28.35 41.699,28.298 41.646,28.253 C41.628,28.237 41.619,28.216 41.6,28.201 C41.568,28.177 41.53,28.171 41.496,28.151 C41.437,28.116 41.378,28.086 41.312,28.063 C41.246,28.041 41.181,28.031 41.113,28.023 C41.074,28.018 41.04,28 41,28 C40.976,28 40.955,28.012 40.932,28.014 C40.863,28.019 40.799,28.035 40.732,28.054 C40.671,28.071 40.612,28.087 40.557,28.115 C40.502,28.142 40.455,28.179 40.406,28.217 C40.35,28.259 40.298,28.301 40.252,28.354 C40.236,28.372 40.215,28.381 40.2,28.4 L38,31.334 L35.8,28.4 C35.786,28.381 35.764,28.372 35.748,28.354 C35.703,28.301 35.651,28.26 35.595,28.218 C35.545,28.18 35.498,28.143 35.443,28.115 C35.388,28.087 35.33,28.072 35.269,28.055 C35.202,28.036 35.138,28.019 35.068,28.014 C35.044,28.012 35.024,28 34.999,28 C34.959,28 34.925,28.018 34.886,28.023 C34.818,28.031 34.754,28.041 34.688,28.063 C34.621,28.085 34.563,28.116 34.503,28.151 C34.469,28.171 34.431,28.176 34.399,28.2 C34.38,28.214 34.371,28.236 34.353,28.252 C34.3,28.297 34.259,28.349 34.217,28.405 C34.179,28.455 34.141,28.503 34.114,28.558 C34.086,28.613 34.071,28.671 34.054,28.731 C34.035,28.798 34.018,28.863 34.013,28.932 C34.011,28.955 33.999,28.976 33.999,29 L33.999,37 C34,37.554 34.448,38.001 35,38.001 L35,38.001 Z" id="Shape" fill="#000000"></path>
    </g>
</svg>