<?xml version="1.0" encoding="UTF-8" standalone="no"?>
<svg width="64px" height="64px" viewBox="0 0 64 64" version="1.1" xmlns="http://www.w3.org/2000/svg" xmlns:xlink="http://www.w3.org/1999/xlink">
    <!-- Generator: Sketch 3.7.2 (28276) - http://www.bohemiancoding.com/sketch -->
    <title>com-cd</title>
    <desc>Created with Sketch.</desc>
    <defs></defs>
    <g id="64px-Line" stroke="none" stroke-width="1" fill="none" fill-rule="evenodd">
        <g id="com-cd"></g>
        <path d="M31,6 C16.112,6 4,18.112 4,33 C4,47.888 16.112,60 31,60 C45.888,60 58,47.888 58,33 C58,18.112 45.888,6 31,6 L31,6 Z M31,58 C17.215,58 6,46.785 6,33 C6,19.215 17.215,8 31,8 C44.785,8 56,19.215 56,33 C56,46.785 44.785,58 31,58 L31,58 Z" id="Shape" fill="#000000"></path>
        <path d="M31,28 C28.243,28 26,30.243 26,33 C26,35.757 28.243,38 31,38 C33.757,38 36,35.757 36,33 C36,30.243 33.757,28 31,28 L31,28 Z M31,36 C29.346,36 28,34.654 28,33 C28,31.346 29.346,30 31,30 C32.654,30 34,31.346 34,33 C34,34.654 32.654,36 31,36 L31,36 Z" id="Shape" fill="#000000"></path>
        <path d="M42,33 C42,26.935 37.065,22 31,22 C24.935,22 20,26.935 20,33 C20,39.065 24.935,44 31,44 C37.065,44 42,39.065 42,33 L42,33 Z M31,42 C26.037,42 22,37.962 22,33 C22,28.038 26.037,24 31,24 C35.963,24 40,28.038 40,33 C40,37.962 35.963,42 31,42 L31,42 Z" id="Shape" fill="#000000"></path>
        <path d="M26.271,11.486 C26.128,10.952 25.577,10.639 25.047,10.778 C17.129,12.894 10.895,19.128 8.778,27.046 C8.635,27.58 8.952,28.128 9.486,28.271 C9.572,28.294 9.659,28.305 9.745,28.305 C10.186,28.305 10.591,28.01 10.71,27.563 C12.643,20.334 18.334,14.643 25.563,12.711 C26.097,12.568 26.413,12.02 26.271,11.486 L26.271,11.486 Z" id="Shape" fill="#000000"></path>
        <path d="M36.438,53.289 C35.904,53.432 35.587,53.98 35.73,54.514 C35.849,54.961 36.253,55.256 36.695,55.256 C36.781,55.256 36.868,55.245 36.954,55.222 C44.872,53.106 51.106,46.872 53.223,38.954 C53.366,38.42 53.049,37.872 52.515,37.729 C51.991,37.59 51.434,37.903 51.291,38.437 C49.357,45.667 43.666,51.357 36.438,53.289 L36.438,53.289 Z" id="Shape" fill="#000000"></path>
    </g>
</svg>