<?xml version="1.0" encoding="UTF-8" standalone="no"?>
<svg width="64px" height="64px" viewBox="0 0 64 64" version="1.1" xmlns="http://www.w3.org/2000/svg" xmlns:xlink="http://www.w3.org/1999/xlink">
    <!-- Generator: Sketch 3.7.2 (28276) - http://www.bohemiancoding.com/sketch -->
    <title>com-laptop-web</title>
    <desc>Created with Sketch.</desc>
    <defs></defs>
    <g id="64px-Line" stroke="none" stroke-width="1" fill="none" fill-rule="evenodd">
        <g id="com-laptop-web"></g>
        <path d="M59,44 L56,44 L56,16 C56,13.794 54.206,12 52,12 L10,12 C7.794,12 6,13.794 6,16 L6,44 L3,44 C2.448,44 2,44.447 2,45 L2,48 C2,50.206 3.794,52 6,52 L56,52 C58.206,52 60,50.206 60,48 L60,45 C60,44.447 59.552,44 59,44 L59,44 Z M8,16 C8,14.897 8.897,14 10,14 L52,14 C53.103,14 54,14.897 54,16 L54,44 L8,44 L8,16 L8,16 Z M58,48 C58,49.103 57.103,50 56,50 L6,50 C4.897,50 4,49.103 4,48 L4,46 L58,46 L58,48 L58,48 Z" id="Shape" fill="#000000"></path>
        <path d="M51,16 L11,16 C10.448,16 10,16.448 10,17 L10,41 C10,41.553 10.448,42 11,42 L51,42 C51.552,42 52,41.553 52,41 L52,17 C52,16.448 51.552,16 51,16 L51,16 Z M50,40 L12,40 L12,18 L50,18 L50,40 L50,40 Z" id="Shape" fill="#000000"></path>
        <path d="M16.139,32.412 C16.279,32.815 16.659,33.084 17.084,33.084 L17.099,33.084 C17.53,33.077 17.909,32.795 18.038,32.384 L19.021,29.264 L20.05,32.396 C20.185,32.805 20.567,33.083 20.998,33.084 C21.384,33.094 21.812,32.81 21.949,32.4 L23.949,26.4 C24.124,25.876 23.841,25.31 23.317,25.135 C22.792,24.96 22.227,25.244 22.052,25.767 L21.008,28.901 L19.951,25.687 C19.816,25.277 19.432,24.999 19.001,24.999 L18.995,24.999 C18.561,25.002 18.178,25.285 18.048,25.699 L17.039,28.902 L15.946,25.756 C15.764,25.234 15.194,24.958 14.673,25.139 C14.152,25.32 13.875,25.89 14.056,26.412 L16.139,32.412 L16.139,32.412 Z" id="Shape" fill="#000000"></path>
        <path d="M28.139,32.412 C28.279,32.815 28.659,33.084 29.084,33.084 L29.099,33.084 C29.53,33.077 29.909,32.795 30.038,32.384 L31.021,29.264 L32.05,32.396 C32.185,32.805 32.567,33.083 32.998,33.084 C33.443,33.094 33.812,32.81 33.949,32.4 L35.949,26.4 C36.124,25.876 35.841,25.31 35.317,25.135 C34.792,24.96 34.227,25.244 34.052,25.767 L33.008,28.901 L31.951,25.687 C31.815,25.275 31.409,24.973 30.994,24.999 C30.56,25.002 30.177,25.285 30.047,25.699 L29.038,28.902 L27.945,25.756 C27.763,25.234 27.193,24.958 26.672,25.139 C26.151,25.32 25.874,25.89 26.055,26.412 L28.139,32.412 L28.139,32.412 Z" id="Shape" fill="#000000"></path>
        <path d="M40.139,32.412 C40.279,32.815 40.659,33.084 41.084,33.084 L41.099,33.084 C41.53,33.077 41.909,32.795 42.038,32.384 L43.021,29.264 L44.05,32.396 C44.185,32.805 44.567,33.083 44.998,33.084 L45,33.084 C45.43,33.084 45.812,32.809 45.949,32.4 L47.949,26.4 C48.124,25.876 47.841,25.31 47.317,25.135 C46.792,24.96 46.226,25.244 46.052,25.767 L45.008,28.901 L43.951,25.687 C43.815,25.275 43.441,24.973 42.994,24.999 C42.56,25.002 42.177,25.285 42.047,25.699 L41.038,28.902 L39.945,25.756 C39.763,25.234 39.192,24.958 38.672,25.139 C38.151,25.32 37.874,25.89 38.055,26.412 L40.139,32.412 L40.139,32.412 Z" id="Shape" fill="#000000"></path>
    </g>
</svg>