<?xml version="1.0" encoding="UTF-8" standalone="no"?>
<svg width="64px" height="64px" viewBox="0 0 64 64" version="1.1" xmlns="http://www.w3.org/2000/svg" xmlns:xlink="http://www.w3.org/1999/xlink">
    <!-- Generator: Sketch 3.7.2 (28276) - http://www.bohemiancoding.com/sketch -->
    <title>com-chip</title>
    <desc>Created with Sketch.</desc>
    <defs></defs>
    <g id="64px-Line" stroke="none" stroke-width="1" fill="none" fill-rule="evenodd">
        <g id="com-hard-drive"></g>
        <path d="M14,60 L50,60 C52.206,60 54,58.206 54,56 L54,8 C54,5.794 52.206,4 50,4 L14,4 C11.794,4 10,5.794 10,8 L10,56 C10,58.206 11.794,60 14,60 L14,60 Z M12,8 C12,6.897 12.897,6 14,6 L50,6 C51.103,6 52,6.897 52,8 L52,56 C52,57.103 51.103,58 50,58 L14,58 C12.897,58 12,57.103 12,56 L12,8 L12,8 Z" id="Shape" fill="#000000"></path>
        <path d="M32,32 C35.309,32 38,29.309 38,26 C38,22.691 35.309,20 32,20 C28.691,20 26,22.691 26,26 C26,29.309 28.691,32 32,32 L32,32 Z M32,22 C34.206,22 36,23.794 36,26 C36,28.206 34.206,30 32,30 C29.794,30 28,28.206 28,26 C28,23.794 29.794,22 32,22 L32,22 Z" id="Shape" fill="#000000"></path>
        <circle id="Oval" fill="#000000" cx="16" cy="10" r="2"></circle>
        <circle id="Oval" fill="#000000" cx="48" cy="10" r="2"></circle>
        <circle id="Oval" fill="#000000" cx="48" cy="54" r="2"></circle>
        <circle id="Oval" fill="#000000" cx="16" cy="54" r="2"></circle>
        <path d="M21.675,40.734 L18.543,42.644 C18.148,42.867 17.785,43.143 17.465,43.464 C15.516,45.414 15.516,48.586 17.465,50.535 C18.409,51.48 19.664,52 21,52 C22.336,52 23.591,51.48 24.535,50.536 C24.822,50.249 25.073,49.929 25.281,49.584 C25.292,49.567 25.301,49.551 25.31,49.534 L28.865,43.703 C29.898,43.884 30.946,44 32,44 C41.925,44 50,35.925 50,26 C50,16.075 41.925,8 32,8 C22.075,8 14,16.075 14,26 C14,31.882 16.908,37.384 21.675,40.734 L21.675,40.734 Z M23.57,48.546 C23.559,48.562 23.55,48.579 23.542,48.596 C23.423,48.784 23.281,48.961 23.121,49.122 C21.988,50.255 20.012,50.255 18.879,49.122 C17.709,47.952 17.709,46.049 18.88,44.878 C19.075,44.682 19.296,44.515 19.537,44.38 C19.548,44.374 19.559,44.368 19.57,44.361 L29.999,38.001 L23.57,48.546 L23.57,48.546 Z M32,10 C40.822,10 48,17.178 48,26 C48,34.822 40.822,42 32,42 C31.326,42 30.655,41.945 29.988,41.862 L33.854,35.521 C34.094,35.127 34.034,34.62 33.708,34.293 C33.381,33.966 32.872,33.906 32.48,34.146 L23.56,39.585 C18.885,36.674 16,31.525 16,26 C16,17.178 23.178,10 32,10 L32,10 Z" id="Shape" fill="#000000"></path>
    </g>
</svg>