<?xml version="1.0" encoding="UTF-8" standalone="no"?>
<svg width="64px" height="64px" viewBox="0 0 64 64" version="1.1" xmlns="http://www.w3.org/2000/svg" xmlns:xlink="http://www.w3.org/1999/xlink">
    <!-- Generator: Sketch 3.7.2 (28276) - http://www.bohemiancoding.com/sketch -->
    <title>com-upload</title>
    <desc>Created with Sketch.</desc>
    <defs></defs>
    <g id="64px-Line" stroke="none" stroke-width="1" fill="none" fill-rule="evenodd">
        <g id="com-upload"></g>
        <path d="M8,46 L54,46 C56.206,46 58,44.206 58,42 L58,10 C58,7.794 56.206,6 54,6 L8,6 C5.794,6 4,7.794 4,10 L4,42 C4,44.206 5.794,46 8,46 L8,46 Z M54,44 L8,44 C6.897,44 6,43.103 6,42 L6,36 L56,36 L56,42 C56,43.103 55.103,44 54,44 L54,44 Z M8,8 L54,8 C55.103,8 56,8.897 56,10 L56,34 L6,34 L6,10 C6,8.897 6.897,8 8,8 L8,8 Z" id="Shape" fill="#000000"></path>
        <circle id="Oval" fill="#000000" cx="31" cy="40" r="2"></circle>
        <path d="M37.976,52.88 C37.971,52.838 37.981,52.798 37.97,52.757 L36.97,48.757 C36.836,48.221 36.292,47.896 35.757,48.029 C35.221,48.163 34.896,48.706 35.029,49.242 L35.985,53.068 C35.949,53.586 35.527,54 35,54 L27,54 C26.473,54 26.051,53.586 26.014,53.068 L26.97,49.242 C27.104,48.706 26.778,48.163 26.242,48.029 C25.709,47.895 25.164,48.221 25.029,48.757 L24.029,52.757 C24.019,52.799 24.028,52.839 24.023,52.88 C24.019,52.921 24,52.958 24,53 C24,53.044 24.011,53.084 24.013,53.128 C24.015,53.142 24.015,53.155 24.017,53.169 C24.107,54.743 25.404,56 27,56 L35,56 C36.596,56 37.893,54.743 37.983,53.169 C37.985,53.155 37.985,53.142 37.987,53.128 C37.989,53.084 38,53.044 38,53 C38,52.958 37.981,52.921 37.976,52.88 L37.976,52.88 Z" id="Shape" fill="#000000"></path>
        <path d="M25.707,19.707 L30,15.414 L30,29 C30,29.552 30.448,30 31,30 C31.552,30 32,29.552 32,29 L32,15.414 L36.293,19.707 C36.488,19.902 36.744,20 37,20 C37.256,20 37.512,19.902 37.707,19.707 C38.098,19.316 38.098,18.684 37.707,18.293 L31.707,12.293 C31.615,12.201 31.504,12.128 31.382,12.077 C31.138,11.976 30.862,11.976 30.618,12.077 C30.496,12.128 30.385,12.201 30.293,12.293 L24.293,18.293 C23.902,18.684 23.902,19.316 24.293,19.707 C24.684,20.098 25.316,20.098 25.707,19.707 L25.707,19.707 Z" id="Shape" fill="#000000"></path>
    </g>
</svg>