<?xml version="1.0" encoding="UTF-8" standalone="no"?>
<svg width="64px" height="64px" viewBox="0 0 64 64" version="1.1" xmlns="http://www.w3.org/2000/svg" xmlns:xlink="http://www.w3.org/1999/xlink">
    <!-- Generator: Sketch 3.7.2 (28276) - http://www.bohemiancoding.com/sketch -->
    <title>com-ssd</title>
    <desc>Created with Sketch.</desc>
    <defs></defs>
    <g id="64px-Line" stroke="none" stroke-width="1" fill="none" fill-rule="evenodd">
        <g id="com-ssd"></g>
        <path d="M57,26 C57.553,26 58,25.553 58,25 C58,24.447 57.553,24 57,24 L50,24 L50,19 C50,16.243 47.757,14 45,14 L40,14 L40,7 C40,6.447 39.553,6 39,6 C38.447,6 38,6.447 38,7 L38,14 L36,14 L36,7 C36,6.447 35.553,6 35,6 C34.447,6 34,6.447 34,7 L34,14 L32,14 L32,7 C32,6.447 31.553,6 31,6 C30.447,6 30,6.447 30,7 L30,14 L28,14 L28,7 C28,6.447 27.553,6 27,6 C26.447,6 26,6.447 26,7 L26,14 L24,14 L24,7 C24,6.447 23.553,6 23,6 C22.447,6 22,6.447 22,7 L22,14 L17,14 C14.243,14 12,16.243 12,19 L12,24 L5,24 C4.447,24 4,24.447 4,25 C4,25.553 4.447,26 5,26 L12,26 L12,28 L5,28 C4.447,28 4,28.447 4,29 C4,29.553 4.447,30 5,30 L12,30 L12,32 L5,32 C4.447,32 4,32.447 4,33 C4,33.553 4.447,34 5,34 L12,34 L12,36 L5,36 C4.447,36 4,36.447 4,37 C4,37.553 4.447,38 5,38 L12,38 L12,40 L5,40 C4.447,40 4,40.447 4,41 C4,41.553 4.447,42 5,42 L12,42 L12,47 C12,49.757 14.243,52 17,52 L22,52 L22,59 C22,59.553 22.447,60 23,60 C23.553,60 24,59.553 24,59 L24,52 L26,52 L26,59 C26,59.553 26.447,60 27,60 C27.553,60 28,59.553 28,59 L28,52 L30,52 L30,59 C30,59.553 30.447,60 31,60 C31.553,60 32,59.553 32,59 L32,52 L34,52 L34,59 C34,59.553 34.447,60 35,60 C35.553,60 36,59.553 36,59 L36,52 L38,52 L38,59 C38,59.553 38.447,60 39,60 C39.553,60 40,59.553 40,59 L40,52 L45,52 C47.757,52 50,49.757 50,47 L50,42 L57,42 C57.553,42 58,41.553 58,41 C58,40.447 57.553,40 57,40 L50,40 L50,38 L57,38 C57.553,38 58,37.553 58,37 C58,36.447 57.553,36 57,36 L50,36 L50,34 L57,34 C57.553,34 58,33.553 58,33 C58,32.447 57.553,32 57,32 L50,32 L50,30 L57,30 C57.553,30 58,29.553 58,29 C58,28.447 57.553,28 57,28 L50,28 L50,26 L57,26 L57,26 Z M48,47 C48,48.654 46.654,50 45,50 L17,50 C15.346,50 14,48.654 14,47 L14,19 C14,17.346 15.346,16 17,16 L45,16 C46.654,16 48,17.346 48,19 L48,47 L48,47 Z" id="Shape" fill="#000000"></path>
        <path d="M23,30 C23.36,30 23.684,30.186 23.866,30.5 C23.953,30.649 24,30.822 24,31 C24,31.553 24.447,32 25,32 C25.553,32 26,31.553 26,31 C26,30.468 25.858,29.944 25.594,29.492 C25.06,28.572 24.065,28 23,28 C21.346,28 20,29.346 20,31 C20,32.607 21.11,33.167 22.184,33.707 L22.886,34.062 C23.963,34.6 24,34.685 24,35 C24,35.552 23.552,36 23,36 C22.448,36 22,35.552 22,35 C22,34.447 21.553,34 21,34 C20.447,34 20,34.447 20,35 C20,36.654 21.346,38 23,38 C24.654,38 26,36.654 26,35 C26,33.384 24.821,32.794 23.78,32.273 L23.083,31.92 C22,31.376 22,31.311 22,31 C22,30.448 22.448,30 23,30 L23,30 Z" id="Shape" fill="#000000"></path>
        <path d="M31,30 C31.36,30 31.684,30.186 31.866,30.5 C31.953,30.649 32,30.822 32,31 C32,31.553 32.447,32 33,32 C33.553,32 34,31.553 34,31 C34,30.468 33.858,29.944 33.594,29.492 C33.06,28.572 32.065,28 31,28 C29.346,28 28,29.346 28,31 C28,32.607 29.11,33.167 30.184,33.707 L30.886,34.062 C31.963,34.6 32,34.685 32,35 C32,35.552 31.552,36 31,36 C30.448,36 30,35.552 30,35 C30,34.447 29.553,34 29,34 C28.447,34 28,34.447 28,35 C28,36.654 29.346,38 31,38 C32.654,38 34,36.654 34,35 C34,33.384 32.821,32.794 31.78,32.273 L31.083,31.92 C30,31.376 30,31.311 30,31 C30,30.448 30.448,30 31,30 L31,30 Z" id="Shape" fill="#000000"></path>
        <path d="M39,28 L37,28 C36.447,28 36,28.447 36,29 L36,37 C36,37.553 36.447,38 37,38 L39,38 C40.654,38 42,36.654 42,35 L42,31 C42,29.346 40.654,28 39,28 L39,28 Z M39,36 L38,36 L38,30 L39,30 C39.552,30 40,30.448 40,31 L40,35 C40,35.552 39.552,36 39,36 L39,36 Z" id="Shape" fill="#000000"></path>
    </g>
</svg>