<?xml version="1.0" encoding="UTF-8" standalone="no"?>
<svg width="64px" height="64px" viewBox="0 0 64 64" version="1.1" xmlns="http://www.w3.org/2000/svg" xmlns:xlink="http://www.w3.org/1999/xlink">
    <!-- Generator: Sketch 3.7.2 (28276) - http://www.bohemiancoding.com/sketch -->
    <title>com-settings</title>
    <desc>Created with Sketch.</desc>
    <defs></defs>
    <g id="64px-Line" stroke="none" stroke-width="1" fill="none" fill-rule="evenodd">
        <g id="com-settings"></g>
        <circle id="Oval" fill="#000000" cx="31" cy="40" r="2"></circle>
        <path d="M26.242,48.03 C25.705,47.893 25.164,48.222 25.03,48.758 L24.03,52.758 C24.02,52.799 24.029,52.838 24.024,52.879 C24.019,52.92 24,52.957 24,53 C24,53.044 24.011,53.085 24.013,53.128 C24.015,53.142 24.015,53.155 24.017,53.169 C24.107,54.743 25.403,56 27,56 L35,56 C36.596,56 37.893,54.743 37.983,53.169 C37.985,53.155 37.985,53.142 37.987,53.128 C37.989,53.085 38,53.044 38,53 C38,52.957 37.981,52.92 37.975,52.878 C37.97,52.837 37.98,52.798 37.969,52.757 L36.969,48.757 C36.835,48.222 36.291,47.894 35.757,48.029 C35.221,48.163 34.895,48.706 35.029,49.242 L35.985,53.066 C35.95,53.585 35.528,54 35,54 L27,54 C26.472,54 26.05,53.585 26.014,53.067 L26.97,49.243 C27.104,48.707 26.778,48.164 26.242,48.03 L26.242,48.03 Z" id="Shape" fill="#000000"></path>
        <path d="M54,6 L8,6 C5.794,6 4,7.794 4,10 L4,42 C4,44.206 5.794,46 8,46 L54,46 C56.206,46 58,44.206 58,42 L58,10 C58,7.794 56.206,6 54,6 L54,6 Z M8,8 L54,8 C55.103,8 56,8.897 56,10 L56,34 L6,34 L6,10 C6,8.897 6.897,8 8,8 L8,8 Z M54,44 L8,44 C6.897,44 6,43.103 6,42 L6,36 L56,36 L56,42 C56,43.103 55.103,44 54,44 L54,44 Z" id="Shape" fill="#000000"></path>
        <path d="M31,26 C33.757,26 36,23.757 36,21 C36,18.243 33.757,16 31,16 C28.243,16 26,18.243 26,21 C26,23.757 28.243,26 31,26 L31,26 Z M31,18 C32.654,18 34,19.346 34,21 C34,22.654 32.654,24 31,24 C29.346,24 28,22.654 28,21 C28,19.346 29.346,18 31,18 L31,18 Z" id="Shape" fill="#000000"></path>
        <path d="M21.77,23.539 L22.689,23.539 C22.855,24.083 23.075,24.612 23.341,25.11 L22.82,25.63 C22.138,26.313 22.138,27.426 22.821,28.111 L23.889,29.179 C24.573,29.862 25.686,29.862 26.369,29.179 L26.889,28.659 C27.39,28.929 27.915,29.146 28.461,29.312 L28.461,30.23 C28.461,31.206 29.254,31.999 30.23,31.999 L31.769,31.999 C32.745,31.999 33.538,31.206 33.538,30.23 L33.538,29.31 C34.082,29.143 34.611,28.924 35.109,28.658 L35.629,29.178 C36.291,29.841 37.446,29.842 38.112,29.178 L39.176,28.111 C39.508,27.78 39.691,27.339 39.691,26.87 C39.691,26.401 39.508,25.96 39.178,25.63 L38.66,25.112 C38.93,24.611 39.147,24.085 39.313,23.539 L40.229,23.539 C41.205,23.539 41.999,22.745 41.999,21.769 L41.999,20.231 C41.999,19.255 41.205,18.461 40.229,18.461 L39.31,18.461 C39.144,17.918 38.924,17.389 38.658,16.89 L39.179,16.369 C39.86,15.685 39.859,14.573 39.177,13.889 L38.109,12.821 C37.447,12.159 36.289,12.159 35.629,12.821 L35.11,13.339 C34.607,13.068 34.082,12.849 33.537,12.683 L33.537,11.768 C33.537,10.792 32.744,9.999 31.768,9.999 L30.229,9.999 C29.253,9.999 28.46,10.792 28.46,11.768 L28.46,12.682 C27.914,12.848 27.389,13.067 26.886,13.338 L26.367,12.82 C25.683,12.137 24.57,12.137 23.887,12.82 L22.819,13.888 C22.136,14.572 22.136,15.684 22.82,16.369 L23.339,16.887 C23.069,17.388 22.851,17.914 22.685,18.46 L21.769,18.46 C20.793,18.46 19.999,19.254 19.999,20.23 L19.999,21.768 C20,22.745 20.794,23.539 21.77,23.539 L21.77,23.539 Z M22,20.461 L23.464,20.461 C23.94,20.461 24.35,20.126 24.444,19.66 C24.617,18.807 24.949,18.009 25.429,17.289 C25.695,16.892 25.643,16.363 25.305,16.026 L24.409,15.13 L25.13,14.409 L26.026,15.305 C26.363,15.643 26.892,15.695 27.289,15.429 C28.012,14.946 28.81,14.613 29.66,14.441 C30.127,14.347 30.462,13.937 30.462,13.461 L30.462,12 L31.538,12 L31.538,13.461 C31.538,13.937 31.873,14.347 32.34,14.441 C33.188,14.613 33.986,14.946 34.712,15.43 C35.108,15.695 35.636,15.643 35.974,15.305 L36.87,14.409 L37.591,15.13 L36.695,16.026 C36.358,16.363 36.305,16.891 36.57,17.288 C37.043,17.997 37.384,18.818 37.557,19.662 C37.652,20.127 38.062,20.461 38.536,20.461 L40,20.461 L40,21.538 L38.536,21.538 C38.06,21.538 37.65,21.873 37.556,22.339 C37.383,23.193 37.052,23.991 36.572,24.71 C36.306,25.106 36.358,25.635 36.695,25.972 L37.591,26.869 L36.871,27.59 L35.974,26.693 C35.636,26.355 35.106,26.303 34.711,26.569 C34.006,27.04 33.186,27.381 32.338,27.555 C31.873,27.65 31.539,28.059 31.539,28.534 L31.539,30 L30.463,30 L30.463,28.535 C30.463,28.059 30.128,27.65 29.662,27.555 C28.808,27.381 28.01,27.05 27.291,26.569 C26.893,26.304 26.366,26.356 26.028,26.694 L25.131,27.592 L24.41,26.871 L25.306,25.975 C25.643,25.638 25.696,25.109 25.431,24.713 C24.958,24.005 24.618,23.185 24.444,22.339 C24.349,21.874 23.939,21.54 23.465,21.54 L22,21.54 L22,20.461 L22,20.461 Z" id="Shape" fill="#000000"></path>
    </g>
</svg>