<?xml version="1.0" encoding="UTF-8" standalone="no"?>
<svg width="64px" height="64px" viewBox="0 0 64 64" version="1.1" xmlns="http://www.w3.org/2000/svg" xmlns:xlink="http://www.w3.org/1999/xlink">
    <!-- Generator: Sketch 3.7.2 (28276) - http://www.bohemiancoding.com/sketch -->
    <title>com-mouse-wired</title>
    <desc>Created with Sketch.</desc>
    <defs></defs>
    <g id="64px-Line" stroke="none" stroke-width="1" fill="none" fill-rule="evenodd">
        <g id="com-mouse-wired"></g>
        <path d="M53.592,21.876 L54.778,20.778 C59.066,16.489 59.067,9.511 54.778,5.221 C50.488,0.931 43.51,0.934 39.216,5.226 L19.363,25.364 C15.853,28.873 10.144,28.873 6.634,25.364 C4.935,23.664 3.998,21.404 3.998,19 C3.998,18.448 3.551,18 2.998,18 C2.445,18 1.998,18.448 1.998,19 C1.998,21.938 3.143,24.701 5.22,26.778 C7.365,28.922 10.18,29.994 12.996,29.994 C15.814,29.994 18.634,28.92 20.781,26.773 L40.634,6.635 C44.142,3.127 49.851,3.125 53.363,6.635 C56.872,10.145 56.872,15.855 53.391,19.337 L52.176,20.461 L48.013,16.298 C46.531,14.816 44.56,13.999 42.463,13.999 C40.366,13.999 38.396,14.816 36.908,16.303 L30.753,22.48 C30.732,22.498 30.705,22.505 30.685,22.525 C30.665,22.546 30.657,22.572 30.639,22.594 L18.288,34.989 C15.521,37.756 13.997,41.435 13.997,45.348 C13.996,49.262 15.52,52.941 18.288,55.708 C21.056,58.476 24.735,60 28.648,60 C32.562,60 36.241,58.476 39.008,55.708 L51.278,43.439 C51.344,43.399 51.413,43.368 51.47,43.311 C51.527,43.254 51.557,43.184 51.598,43.119 L52.798,41.919 C56.452,38.265 57.35,37.398 57.569,37.193 C57.614,37.161 57.657,37.125 57.697,37.085 C60.757,34.025 60.757,29.045 57.697,25.985 L53.592,21.876 L53.592,21.876 Z M38.329,17.713 C39.47,16.573 40.967,16.003 42.465,16.003 C43.963,16.003 45.46,16.573 46.601,17.713 L50.737,21.849 L41.081,31.505 L32.842,23.266 L33.501,22.607 L38.329,17.713 L38.329,17.713 Z M37.598,54.294 C35.208,56.684 32.032,58 28.652,58 C25.273,58 22.095,56.684 19.706,54.294 C17.316,51.905 16.001,48.728 16.001,45.348 C16.001,41.969 17.317,38.792 19.706,36.403 L31.429,24.68 L49.321,42.572 L37.598,54.294 L37.598,54.294 Z M56.287,35.671 L56.343,35.727 C56.326,35.74 56.309,35.754 56.29,35.768 L56.238,35.723 C56.185,35.784 56.141,35.85 56.105,35.919 C55.284,36.608 53.906,37.986 51.387,40.505 L50.734,41.158 L42.494,32.918 L52.15,23.262 L56.287,27.399 C58.566,29.68 58.566,33.391 56.287,35.671 L56.287,35.671 Z" id="Shape" fill="#000000"></path>
    </g>
</svg>