<?xml version="1.0" encoding="UTF-8" standalone="no"?>
<svg width="64px" height="64px" viewBox="0 0 64 64" version="1.1" xmlns="http://www.w3.org/2000/svg" xmlns:xlink="http://www.w3.org/1999/xlink">
    <!-- Generator: Sketch 3.7.2 (28276) - http://www.bohemiancoding.com/sketch -->
    <title>com-printer</title>
    <desc>Created with Sketch.</desc>
    <defs></defs>
    <g id="64px-Line" stroke="none" stroke-width="1" fill="none" fill-rule="evenodd">
        <g id="com-printer"></g>
        <path d="M54,22 L46,22 L46,12 C46,11.734 45.895,11.48 45.707,11.293 L38.707,4.293 C38.52,4.105 38.265,4 38,4 L17,4 C16.448,4 16,4.447 16,5 L16,22 L8,22 C5.794,22 4,23.794 4,26 L4,44 C4,46.206 5.794,48 8,48 L16,48 L16,59 C16,59.553 16.448,60 17,60 L45,60 C45.552,60 46,59.553 46,59 L46,48 L54,48 C56.206,48 58,46.206 58,44 L58,26 C58,23.794 56.206,22 54,22 L54,22 Z M43.586,12 L38,12 L38,6.414 L43.586,12 L43.586,12 Z M18,6 L36,6 L36,13 C36,13.553 36.448,14 37,14 L44,14 L44,26 L18,26 L18,6 L18,6 Z M44,58 L18,58 L18,38 L44,38 L44,58 L44,58 Z M56,44 C56,45.103 55.103,46 54,46 L46,46 L46,37 C46,36.447 45.552,36 45,36 L17,36 C16.448,36 16,36.447 16,37 L16,46 L8,46 C6.897,46 6,45.103 6,44 L6,26 C6,24.897 6.897,24 8,24 L16,24 L16,27 C16,27.553 16.448,28 17,28 L45,28 C45.552,28 46,27.553 46,27 L46,24 L54,24 C55.103,24 56,24.897 56,26 L56,44 L56,44 Z" id="Shape" fill="#000000"></path>
    </g>
</svg>