<?xml version="1.0" encoding="UTF-8" standalone="no"?>
<svg width="64px" height="64px" viewBox="0 0 64 64" version="1.1" xmlns="http://www.w3.org/2000/svg" xmlns:xlink="http://www.w3.org/1999/xlink">
    <!-- Generator: Sketch 3.7.2 (28276) - http://www.bohemiancoding.com/sketch -->
    <title>com-cross</title>
    <desc>Created with Sketch.</desc>
    <defs></defs>
    <g id="64px-Line" stroke="none" stroke-width="1" fill="none" fill-rule="evenodd">
        <g id="com-cross"></g>
        <path d="M24.293,27.707 C24.488,27.902 24.744,28 25,28 C25.256,28 25.512,27.902 25.707,27.707 L31,22.414 L36.293,27.707 C36.488,27.902 36.744,28 37,28 C37.256,28 37.512,27.902 37.707,27.707 C38.098,27.316 38.098,26.684 37.707,26.293 L32.414,21 L37.707,15.707 C38.098,15.316 38.098,14.684 37.707,14.293 C37.316,13.902 36.684,13.902 36.293,14.293 L31,19.586 L25.707,14.293 C25.316,13.902 24.684,13.902 24.293,14.293 C23.902,14.684 23.902,15.316 24.293,15.707 L29.586,21 L24.293,26.293 C23.902,26.684 23.902,27.316 24.293,27.707 L24.293,27.707 Z" id="Shape" fill="#000000"></path>
        <path d="M8,46 L54,46 C56.206,46 58,44.206 58,42 L58,10 C58,7.794 56.206,6 54,6 L8,6 C5.794,6 4,7.794 4,10 L4,42 C4,44.206 5.794,46 8,46 L8,46 Z M54,44 L8,44 C6.897,44 6,43.103 6,42 L6,36 L56,36 L56,42 C56,43.103 55.103,44 54,44 L54,44 Z M8,8 L54,8 C55.103,8 56,8.897 56,10 L56,34 L6,34 L6,10 C6,8.897 6.897,8 8,8 L8,8 Z" id="Shape" fill="#000000"></path>
        <circle id="Oval" fill="#000000" cx="31" cy="40" r="2"></circle>
        <path d="M37.976,52.88 C37.971,52.838 37.981,52.798 37.97,52.757 L36.97,48.757 C36.836,48.221 36.293,47.896 35.757,48.029 C35.221,48.163 34.896,48.706 35.029,49.242 L35.985,53.068 C35.949,53.586 35.527,54 35,54 L27,54 C26.473,54 26.051,53.586 26.014,53.068 L26.97,49.242 C27.104,48.706 26.778,48.163 26.242,48.029 C25.707,47.895 25.164,48.221 25.029,48.757 L24.029,52.757 C24.019,52.799 24.028,52.839 24.023,52.88 C24.018,52.921 23.999,52.957 23.999,53 C23.999,53.044 24.01,53.084 24.012,53.128 C24.014,53.142 24.014,53.155 24.016,53.169 C24.106,54.743 25.402,56 26.999,56 L34.999,56 C36.595,56 37.892,54.743 37.982,53.169 C37.984,53.155 37.984,53.142 37.986,53.128 C37.988,53.085 37.999,53.044 37.999,53 C38,52.958 37.981,52.921 37.976,52.88 L37.976,52.88 Z" id="Shape" fill="#000000"></path>
    </g>
</svg>