<?xml version="1.0" encoding="UTF-8" standalone="no"?>
<svg width="64px" height="64px" viewBox="0 0 64 64" version="1.1" xmlns="http://www.w3.org/2000/svg" xmlns:xlink="http://www.w3.org/1999/xlink">
    <!-- Generator: Sketch 3.7.2 (28276) - http://www.bohemiancoding.com/sketch -->
    <title>com-monitor</title>
    <desc>Created with Sketch.</desc>
    <defs></defs>
    <g id="64px-Line" stroke="none" stroke-width="1" fill="none" fill-rule="evenodd">
        <g id="com-monitor"></g>
        <path d="M25,48 C24.448,48 24,48.447 24,49 L24,54 L21,54 C20.448,54 20,54.447 20,55 C20,55.553 20.448,56 21,56 L43,56 C43.552,56 44,55.553 44,55 C44,54.447 43.552,54 43,54 L40,54 L40,49 C40,48.447 39.552,48 39,48 C38.448,48 38,48.447 38,49 L38,54 L26,54 L26,49 C26,48.447 25.552,48 25,48 L25,48 Z" id="Shape" fill="#000000"></path>
        <path d="M55,12 L9,12 C8.448,12 8,12.447 8,13 L8,41 C8,41.553 8.448,42 9,42 L55,42 C55.552,42 56,41.553 56,41 L56,13 C56,12.447 55.552,12 55,12 L55,12 Z M54,40 L10,40 L10,14 L54,14 L54,40 L54,40 Z" id="Shape" fill="#000000"></path>
        <path d="M56,8 L8,8 C5.794,8 4,9.794 4,12 L4,42 C4,44.206 5.794,46 8,46 L56,46 C58.206,46 60,44.206 60,42 L60,12 C60,9.794 58.206,8 56,8 L56,8 Z M58,42 C58,43.103 57.103,44 56,44 L8,44 C6.897,44 6,43.103 6,42 L6,12 C6,10.897 6.897,10 8,10 L56,10 C57.103,10 58,10.897 58,12 L58,42 L58,42 Z" id="Shape" fill="#000000"></path>
    </g>
</svg>