<?xml version="1.0" encoding="UTF-8" standalone="no"?>
<svg width="64px" height="64px" viewBox="0 0 64 64" version="1.1" xmlns="http://www.w3.org/2000/svg" xmlns:xlink="http://www.w3.org/1999/xlink">
    <!-- Generator: Sketch 3.7.2 (28276) - http://www.bohemiancoding.com/sketch -->
    <title>com-apple-tv</title>
    <desc>Created with Sketch.</desc>
    <defs></defs>
    <g id="64px-Line" stroke="none" stroke-width="1" fill="none" fill-rule="evenodd">
        <g id="com-apple-tv"></g>
        <path d="M59.562,26.589 L54.953,16.377 C53.617,13.149 49.675,12 46.432,12 L17.569,12 C14.566,12 10.536,13.138 9.062,16.347 L4.383,26.654 C4.095,27.435 3.982,28.241 4.02,29.023 C4.017,29.057 4,29.086 4,29.121 L4,43 C4,45.757 6.243,48 9,48 L55,48 C57.757,48 60,45.757 60,43 L60,29.12 C60,29.076 59.981,29.039 59.975,28.997 C59.998,28.218 59.869,27.405 59.562,26.589 L59.562,26.589 Z M6.231,27.413 L10.88,17.178 C11.883,14.994 15.05,14 17.568,14 L46.431,14 C48.909,14 52.143,14.823 53.117,17.171 L57.713,27.352 C58.162,28.547 58.063,29.748 57.441,30.644 C56.836,31.519 55.795,32 54.513,32 L9.487,32 C8.219,32 7.182,31.516 6.569,30.635 C5.936,29.727 5.823,28.527 6.231,27.413 L6.231,27.413 Z M55,46 L9,46 C7.346,46 6,44.654 6,43 L6,32.888 C6.939,33.607 8.132,34 9.487,34 L54.513,34 C55.851,34 57.057,33.604 57.999,32.895 L57.999,43 C58,44.654 56.654,46 55,46 L55,46 Z" id="Shape" fill="#000000"></path>
        <path d="M32,26 C32.819,26 40,25.916 40,23 C40,20.084 32.819,20 32,20 C31.181,20 24,20.084 24,23 C24,25.916 31.182,26 32,26 L32,26 Z M32,22 C35.137,22 37.155,22.584 37.828,23 C37.155,23.416 35.137,24 32,24 C28.863,24 26.844,23.416 26.171,23 C26.845,22.584 28.863,22 32,22 L32,22 Z" id="Shape" fill="#000000"></path>
    </g>
</svg>