<?xml version="1.0" encoding="UTF-8" standalone="no"?>
<svg width="64px" height="64px" viewBox="0 0 64 64" version="1.1" xmlns="http://www.w3.org/2000/svg" xmlns:xlink="http://www.w3.org/1999/xlink">
    <!-- Generator: Sketch 3.7.2 (28276) - http://www.bohemiancoding.com/sketch -->
    <title>com-card</title>
    <desc>Created with Sketch.</desc>
    <defs></defs>
    <g id="64px-Line" stroke="none" stroke-width="1" fill="none" fill-rule="evenodd">
        <g id="com-card"></g>
        <path d="M53,24 C53.553,24 54,23.552 54,23 L54,7 C54,6.448 53.553,6 53,6 L21,6 C20.734,6 20.48,6.105 20.293,6.293 L10.293,16.293 C10.105,16.48 10,16.735 10,17 L10,55 C10,57.757 12.243,60 15,60 L49,60 C51.757,60 54,57.757 54,55 L54,35 C54,34.447 53.553,34 53,34 L52,34 L52,24 L53,24 L53,24 Z M51,36 L52,36 L52,55 C52,56.654 50.654,58 49,58 L15,58 C13.346,58 12,56.654 12,55 L12,17.414 L21.414,8 L52,8 L52,22 L51,22 C50.447,22 50,22.448 50,23 L50,35 C50,35.553 50.447,36 51,36 L51,36 Z" id="Shape" fill="#000000"></path>
        <path d="M47,30 L17,30 C16.447,30 16,30.448 16,31 L16,51 C16,51.553 16.447,52 17,52 L47,52 C47.553,52 48,51.553 48,51 L48,31 C48,30.448 47.553,30 47,30 L47,30 Z M46,50 L18,50 L18,32 L46,32 L46,50 L46,50 Z" id="Shape" fill="#000000"></path>
        <path d="M41,20 C41.553,20 42,19.552 42,19 L42,13 C42,12.448 41.553,12 41,12 C40.447,12 40,12.448 40,13 L40,19 C40,19.552 40.447,20 41,20 L41,20 Z" id="Shape" fill="#000000"></path>
        <path d="M47,12 C46.447,12 46,12.448 46,13 L46,19 C46,19.552 46.447,20 47,20 C47.553,20 48,19.552 48,19 L48,13 C48,12.448 47.553,12 47,12 L47,12 Z" id="Shape" fill="#000000"></path>
        <path d="M35,20 C35.553,20 36,19.552 36,19 L36,13 C36,12.448 35.553,12 35,12 C34.447,12 34,12.448 34,13 L34,19 C34,19.552 34.447,20 35,20 L35,20 Z" id="Shape" fill="#000000"></path>
        <path d="M29,20 C29.553,20 30,19.552 30,19 L30,13 C30,12.448 29.553,12 29,12 C28.447,12 28,12.448 28,13 L28,19 C28,19.552 28.447,20 29,20 L29,20 Z" id="Shape" fill="#000000"></path>
        <path d="M23,20 C23.553,20 24,19.552 24,19 L24,13 C24,12.448 23.553,12 23,12 C22.447,12 22,12.448 22,13 L22,19 C22,19.552 22.447,20 23,20 L23,20 Z" id="Shape" fill="#000000"></path>
        <path d="M17,26 C17.553,26 18,25.552 18,25 L18,19 C18,18.448 17.553,18 17,18 C16.447,18 16,18.448 16,19 L16,25 C16,25.552 16.447,26 17,26 L17,26 Z" id="Shape" fill="#000000"></path>
    </g>
</svg>