<?xml version="1.0" encoding="UTF-8" standalone="no"?>
<svg width="64px" height="64px" viewBox="0 0 64 64" version="1.1" xmlns="http://www.w3.org/2000/svg" xmlns:xlink="http://www.w3.org/1999/xlink">
    <!-- Generator: Sketch 3.7.2 (28276) - http://www.bohemiancoding.com/sketch -->
    <title>com-hard-drive-external</title>
    <desc>Created with Sketch.</desc>
    <defs></defs>
    <g id="64px-Line" stroke="none" stroke-width="1" fill="none" fill-rule="evenodd">
        <g id="com-hard-drive-external"></g>
        <path d="M9,56 L53,56 C55.757,56 58,53.757 58,51 L58,39 C58,38.155 57.769,37.37 57.398,36.671 C57.392,36.654 57.395,36.636 57.388,36.619 L46.94,11.114 C46.17,9.222 44.352,8 42.31,8 L19.689,8 C17.647,8 15.829,9.222 15.059,11.112 L4.613,36.62 C4.606,36.636 4.609,36.653 4.604,36.669 C4.231,37.368 4,38.154 4,39 L4,51 C4,53.757 6.243,56 9,56 L9,56 Z M56,51 C56,52.654 54.654,54 53,54 L9,54 C7.346,54 6,52.654 6,51 L6,39 C6,37.346 7.346,36 9,36 L53,36 C54.654,36 56,37.346 56,39 L56,51 L56,51 Z M16.911,11.868 C17.374,10.734 18.464,10 19.689,10 L42.31,10 C43.536,10 44.625,10.733 45.088,11.87 L54.221,34.169 C53.829,34.069 53.424,34 53,34 L9,34 C8.576,34 8.172,34.069 7.779,34.168 L16.911,11.868 L16.911,11.868 Z" id="Shape" fill="#000000"></path>
        <path d="M15,42 C13.346,42 12,43.346 12,45 C12,46.654 13.346,48 15,48 C16.654,48 18,46.654 18,45 C18,43.346 16.654,42 15,42 L15,42 Z M15,46 C14.448,46 14,45.551 14,45 C14,44.449 14.448,44 15,44 C15.552,44 16,44.449 16,45 C16,45.551 15.552,46 15,46 L15,46 Z" id="Shape" fill="#000000"></path>
        <path d="M49,44 L37,44 C36.447,44 36,44.448 36,45 C36,45.552 36.447,46 37,46 L49,46 C49.553,46 50,45.552 50,45 C50,44.448 49.553,44 49,44 L49,44 Z" id="Shape" fill="#000000"></path>
    </g>
</svg>