<?xml version="1.0" encoding="UTF-8" standalone="no"?>
<svg width="64px" height="64px" viewBox="0 0 64 64" version="1.1" xmlns="http://www.w3.org/2000/svg" xmlns:xlink="http://www.w3.org/1999/xlink">
    <!-- Generator: Sketch 3.7.2 (28276) - http://www.bohemiancoding.com/sketch -->
    <title>com-laptop-2</title>
    <desc>Created with Sketch.</desc>
    <defs></defs>
    <g id="64px-Line" stroke="none" stroke-width="1" fill="none" fill-rule="evenodd">
        <g id="com-laptop-2"></g>
        <path d="M61,44 L58,44 L58,16 C58,13.794 56.206,12 54,12 L10,12 C7.794,12 6,13.794 6,16 L6,44 L3,44 C2.448,44 2,44.447 2,45 L2,48 C2,50.206 3.794,52 6,52 L58,52 C60.206,52 62,50.206 62,48 L62,45 C62,44.447 61.552,44 61,44 L61,44 Z M8,16 C8,14.897 8.897,14 10,14 L54,14 C55.103,14 56,14.897 56,16 L56,44 L8,44 L8,16 L8,16 Z M60,48 C60,49.103 59.103,50 58,50 L6,50 C4.897,50 4,49.103 4,48 L4,46 L60,46 L60,48 L60,48 Z" id="Shape" fill="#000000"></path>
        <path d="M53,16 L11,16 C10.448,16 10,16.447 10,17 L10,41 C10,41.553 10.448,42 11,42 L53,42 C53.552,42 54,41.553 54,41 L54,17 C54,16.447 53.552,16 53,16 L53,16 Z M52,40 L12,40 L12,18 L52,18 L52,40 L52,40 Z" id="Shape" fill="#000000"></path>
    </g>
</svg>