<?xml version="1.0" encoding="UTF-8" standalone="no"?>
<svg width="64px" height="64px" viewBox="0 0 64 64" version="1.1" xmlns="http://www.w3.org/2000/svg" xmlns:xlink="http://www.w3.org/1999/xlink">
    <!-- Generator: Sketch 3.7.2 (28276) - http://www.bohemiancoding.com/sketch -->
    <title>com-mac-old</title>
    <desc>Created with Sketch.</desc>
    <defs></defs>
    <g id="64px-Line" stroke="none" stroke-width="1" fill="none" fill-rule="evenodd">
        <g id="com-mac-old"></g>
        <path d="M51,6 L11,6 C9.346,6 8,7.346 8,9 L8,35 C8,36.654 9.346,38 11,38 L28,38 L28,40.283 C19.962,41.716 14,48.741 14,57 L14,57.452 C14,58.857 15.143,60 16.548,60 L45.452,60 C46.857,60 48,58.857 48,57.452 L48,57 C48,48.741 42.038,41.716 34,40.283 L34,38 L51,38 C52.654,38 54,36.654 54,35 L54,9 C54,7.346 52.654,6 51,6 L51,6 Z M46,57 L46,57.452 C46,57.754 45.754,58 45.452,58 L16.548,58 C16.246,58 16,57.754 16,57.452 L16,57 C16,49.833 21.085,43.713 28,42.31 L28,43 C28,44.654 29.346,46 31,46 C32.654,46 34,44.654 34,43 L34,42.31 C40.915,43.713 46,49.833 46,57 L46,57 Z M32,43 C32,43.552 31.552,44 31,44 C30.448,44 30,43.552 30,43 L30,38 L32,38 L32,43 L32,43 Z M52,35 C52,35.552 51.552,36 51,36 L11,36 C10.448,36 10,35.552 10,35 L10,9 C10,8.448 10.448,8 11,8 L51,8 C51.552,8 52,8.448 52,9 L52,35 L52,35 Z" id="Shape" fill="#000000"></path>
        <path d="M49,10 L13,10 C12.447,10 12,10.447 12,11 L12,33 C12,33.553 12.447,34 13,34 L49,34 C49.553,34 50,33.553 50,33 L50,11 C50,10.447 49.553,10 49,10 L49,10 Z M48,32 L14,32 L14,12 L48,12 L48,32 L48,32 Z" id="Shape" fill="#000000"></path>
        <path d="M31,48 C29.262,48 28,48.841 28,50 C28,51.159 29.262,52 31,52 C32.738,52 34,51.159 34,50 C34,48.841 32.738,48 31,48 L31,48 Z" id="Shape" fill="#000000"></path>
    </g>
</svg>