<?xml version="1.0" encoding="UTF-8" standalone="no"?>
<svg width="64px" height="64px" viewBox="0 0 64 64" version="1.1" xmlns="http://www.w3.org/2000/svg" xmlns:xlink="http://www.w3.org/1999/xlink">
    <!-- Generator: Sketch 3.7.2 (28276) - http://www.bohemiancoding.com/sketch -->
    <title>com-keyboard-attach</title>
    <desc>Created with Sketch.</desc>
    <defs></defs>
    <g id="64px-Line" stroke="none" stroke-width="1" fill="none" fill-rule="evenodd">
        <g id="com-keyboard-attach"></g>
        <path d="M11,34 L27,34 C27.553,34 28,33.552 28,33 C28,32.448 27.553,32 27,32 L11,32 C10.448,32 10,31.551 10,31 L10,7 C10,6.449 10.448,6 11,6 L51,6 C51.552,6 52,6.449 52,7 L52,31 C52,31.551 51.552,32 51,32 L35,32 C34.447,32 34,32.448 34,33 C34,33.552 34.447,34 35,34 L51,34 C52.654,34 54,32.654 54,31 L54,7 C54,5.346 52.654,4 51,4 L11,4 C9.346,4 8,5.346 8,7 L8,31 C8,32.654 9.346,34 11,34 L11,34 Z" id="Shape" fill="#000000"></path>
        <path d="M35,28 C34.447,28 34,28.448 34,29 C34,29.552 34.447,30 35,30 L49,30 C49.553,30 50,29.552 50,29 L50,9 C50,8.448 49.553,8 49,8 L13,8 C12.447,8 12,8.448 12,9 L12,29 C12,29.552 12.447,30 13,30 L27,30 C27.553,30 28,29.552 28,29 C28,28.448 27.553,28 27,28 L14,28 L14,10 L48,10 L48,28 L35,28 L35,28 Z" id="Shape" fill="#000000"></path>
        <path d="M31,36 C31.553,36 32,35.552 32,35 L32,21.414 L34.293,23.707 C34.488,23.902 34.744,24 35,24 C35.256,24 35.512,23.902 35.707,23.707 C36.098,23.316 36.098,22.684 35.707,22.293 L31.708,18.294 C31.616,18.201 31.505,18.128 31.382,18.077 C31.138,17.976 30.862,17.976 30.618,18.077 C30.495,18.128 30.385,18.201 30.292,18.294 L26.293,22.293 C25.902,22.684 25.902,23.316 26.293,23.707 C26.684,24.098 27.316,24.098 27.707,23.707 L30,21.414 L30,35 C30,35.552 30.447,36 31,36 L31,36 Z" id="Shape" fill="#000000"></path>
        <path d="M54.755,40.345 C54.443,38.964 53.223,38 51.789,38 L10.211,38 C8.777,38 7.558,38.964 7.24,40.372 L4.074,56.345 C3.874,57.23 4.085,58.146 4.653,58.858 C5.233,59.584 6.102,60 7.039,60 L54.961,60 C55.898,60 56.767,59.583 57.347,58.858 C57.915,58.146 58.126,57.23 57.931,56.372 L54.755,40.345 L54.755,40.345 Z M55.784,57.609 C55.586,57.858 55.286,58 54.961,58 L7.039,58 C6.714,58 6.414,57.858 6.216,57.609 C6.107,57.472 5.936,57.182 6.03,56.76 L9.196,40.786 C9.299,40.33 9.725,39.999 10.211,39.999 L51.789,39.999 C52.274,39.999 52.701,40.33 52.799,40.759 L55.975,56.786 C56.064,57.182 55.894,57.472 55.784,57.609 L55.784,57.609 Z" id="Shape" fill="#000000"></path>
        <path d="M38,46 L24,46 C23.496,46 23.07,46.375 23.008,46.876 L22.008,54.876 C21.972,55.161 22.061,55.447 22.25,55.662 C22.44,55.877 22.713,56 23,56 L39,56 C39.287,56 39.56,55.877 39.75,55.662 C39.939,55.447 40.028,55.161 39.992,54.876 L38.992,46.876 C38.93,46.375 38.504,46 38,46 L38,46 Z M24.133,54 L24.883,48 L37.117,48 L37.867,54 L24.133,54 L24.133,54 Z" id="Shape" fill="#000000"></path>
    </g>
</svg>