<?xml version="1.0" encoding="UTF-8" standalone="no"?>
<svg width="64px" height="64px" viewBox="0 0 64 64" version="1.1" xmlns="http://www.w3.org/2000/svg" xmlns:xlink="http://www.w3.org/1999/xlink">
    <!-- Generator: Sketch 3.7.2 (28276) - http://www.bohemiancoding.com/sketch -->
    <title>com-tower</title>
    <desc>Created with Sketch.</desc>
    <defs></defs>
    <g id="64px-Line" stroke="none" stroke-width="1" fill="none" fill-rule="evenodd">
        <g id="com-tower"></g>
        <path d="M21,4 C19.346,4 18,5.346 18,7 L18,57 C18,58.654 19.346,60 21,60 L43,60 C44.654,60 46,58.654 46,57 L46,7 C46,5.346 44.654,4 43,4 L21,4 L21,4 Z M44,7 L44,57 C44,57.551 43.552,58 43,58 L21,58 C20.448,58 20,57.551 20,57 L20,7 C20,6.449 20.448,6 21,6 L43,6 C43.552,6 44,6.449 44,7 L44,7 Z" id="Shape" fill="#000000"></path>
        <path d="M32,42 C29.794,42 28,43.794 28,46 C28,48.206 29.794,50 32,50 C34.206,50 36,48.206 36,46 C36,43.794 34.206,42 32,42 L32,42 Z M32,48 C30.897,48 30,47.103 30,46 C30,44.897 30.897,44 32,44 C33.103,44 34,44.897 34,46 C34,47.103 33.103,48 32,48 L32,48 Z" id="Shape" fill="#000000"></path>
        <path d="M39,14 L25,14 C24.447,14 24,14.448 24,15 C24,15.552 24.447,16 25,16 L39,16 C39.553,16 40,15.552 40,15 C40,14.448 39.553,14 39,14 L39,14 Z" id="Shape" fill="#000000"></path>
        <path d="M39,20 L25,20 C24.447,20 24,20.448 24,21 C24,21.552 24.447,22 25,22 L39,22 C39.553,22 40,21.552 40,21 C40,20.448 39.553,20 39,20 L39,20 Z" id="Shape" fill="#000000"></path>
        <path d="M39,26 L25,26 C24.447,26 24,26.448 24,27 C24,27.552 24.447,28 25,28 L39,28 C39.553,28 40,27.552 40,27 C40,26.448 39.553,26 39,26 L39,26 Z" id="Shape" fill="#000000"></path>
    </g>
</svg>