<?xml version="1.0" encoding="UTF-8" standalone="no"?>
<svg width="64px" height="64px" viewBox="0 0 64 64" version="1.1" xmlns="http://www.w3.org/2000/svg" xmlns:xlink="http://www.w3.org/1999/xlink">
    <!-- Generator: Sketch 3.7.2 (28276) - http://www.bohemiancoding.com/sketch -->
    <title>com-plug</title>
    <desc>Created with Sketch.</desc>
    <defs></defs>
    <g id="64px-Line" stroke="none" stroke-width="1" fill="none" fill-rule="evenodd">
        <g id="com-plug"></g>
        <path d="M5,20 C11.065,20 16,24.935 16,31 L16,47 C16,54.168 21.832,60 29,60 C36.168,60 42,54.168 42,47 L42,37.949 C49.805,37.431 56,30.933 56,23 L56,20 L57,20 C57.553,20 58,19.552 58,19 C58,18.448 57.553,18 57,18 L50,18 L50,9 C50,7.346 48.654,6 47,6 C45.346,6 44,7.346 44,9 L44,18 L38,18 L38,9 C38,7.346 36.654,6 35,6 C33.346,6 32,7.346 32,9 L32,18 L25,18 C24.447,18 24,18.448 24,19 C24,19.552 24.447,20 25,20 L26,20 L26,23 C26,30.934 32.195,37.431 40,37.949 L40,47 C40,53.065 35.065,58 29,58 C22.935,58 18,53.065 18,47 L18,31 C18,23.832 12.168,18 5,18 C4.447,18 4,18.448 4,19 C4,19.552 4.447,20 5,20 L5,20 Z M46,9 C46,8.449 46.448,8 47,8 C47.552,8 48,8.449 48,9 L48,18 L46,18 L46,9 L46,9 Z M34,9 C34,8.449 34.448,8 35,8 C35.552,8 36,8.449 36,9 L36,18 L34,18 L34,9 L34,9 Z M28,23 L28,20 L54,20 L54,23 C54,30.168 48.168,36 41,36 C33.832,36 28,30.168 28,23 L28,23 Z" id="Shape" fill="#000000"></path>
    </g>
</svg>