<?xml version="1.0" encoding="UTF-8" standalone="no"?>
<svg width="64px" height="64px" viewBox="0 0 64 64" version="1.1" xmlns="http://www.w3.org/2000/svg" xmlns:xlink="http://www.w3.org/1999/xlink">
    <!-- Generator: Sketch 3.7.2 (28276) - http://www.bohemiancoding.com/sketch -->
    <title>com-usb-bluetooth</title>
    <desc>Created with Sketch.</desc>
    <defs></defs>
    <g id="64px-Line" stroke="none" stroke-width="1" fill="none" fill-rule="evenodd">
        <g id="com-usb-bluetooth"></g>
        <path d="M31,22 C30.447,22 30,22.448 30,23 C30,23.552 30.448,24 31,24 L31.002,24 C33.405,24 35.665,24.936 37.364,26.635 C39.063,28.335 40,30.595 40,33 C40,33.552 40.447,34 41,34 C41.553,34 42,33.552 42,33 C42,30.062 40.855,27.299 38.778,25.221 C36.701,23.144 33.939,22 31.002,22 L31,22 L31,22 Z" id="Shape" fill="#000000"></path>
        <path d="M47.999,33 C47.999,33.553 48.446,34 48.999,34 C49.552,34 49.999,33.553 49.999,33 C49.999,27.923 48.022,23.151 44.435,19.563 C40.848,15.976 36.078,14 31.002,14 L31,14 C30.447,14 30,14.448 30,15 C30,15.552 30.448,16 31,16 L31.002,16 C35.542,16 39.811,17.768 43.021,20.977 C46.23,24.188 47.999,28.458 47.999,33 L47.999,33 Z" id="Shape" fill="#000000"></path>
        <path d="M56.999,33.998 C57.552,33.998 57.999,33.551 57.999,32.998 C57.999,25.786 55.19,19.006 50.092,13.907 C44.993,8.808 38.213,6 31,5.999 C30.448,5.999 30,6.447 30,6.999 C30,7.551 30.447,7.999 31,7.999 C37.679,8 43.957,10.601 48.678,15.321 C53.399,20.042 55.999,26.32 55.999,32.998 C55.999,33.551 56.446,33.998 56.999,33.998 L56.999,33.998 Z" id="Shape" fill="#000000"></path>
        <path d="M4,47.598 C4,47.864 4.105,48.119 4.294,48.306 L15.718,59.708 C15.912,59.902 16.168,60 16.424,60 C16.68,60 16.936,59.902 17.13,59.708 L27.847,49.011 L28.584,49.746 C29.169,50.329 29.937,50.621 30.704,50.621 C31.471,50.621 32.238,50.33 32.821,49.747 L38.578,44.028 C39.732,42.877 39.748,40.988 38.612,39.817 L24.546,25.303 C23.983,24.722 23.226,24.398 22.416,24.391 C21.602,24.363 20.847,24.695 20.273,25.266 L14.28,31.222 C13.712,31.789 13.399,32.543 13.399,33.346 C13.399,34.149 13.711,34.904 14.28,35.47 L15.008,36.197 L4.294,46.89 C4.105,47.077 4,47.332 4,47.598 L4,47.598 Z M15.691,32.64 L21.683,26.685 L21.684,26.684 C21.873,26.496 22.123,26.392 22.39,26.392 L22.399,26.392 C22.67,26.394 22.921,26.502 23.11,26.696 L37.176,41.211 C37.554,41.601 37.549,42.23 37.166,42.612 L31.408,48.331 C31.019,48.72 30.386,48.72 29.995,48.331 L28.556,46.895 C28.555,46.894 28.555,46.893 28.554,46.893 C28.553,46.893 28.552,46.892 28.552,46.892 L17.131,35.493 L17.131,35.493 L17.131,35.493 L15.692,34.057 C15.503,33.869 15.399,33.617 15.399,33.349 C15.399,33.081 15.503,32.827 15.691,32.64 L15.691,32.64 Z M16.424,37.609 L26.432,47.598 L16.424,57.587 L6.416,47.598 L16.424,37.609 L16.424,37.609 Z" id="Shape" fill="#000000"></path>
        <path d="M15.717,45.456 C16.108,45.845 16.741,45.846 17.132,45.455 C17.522,45.063 17.522,44.431 17.131,44.04 L15.703,42.614 C15.312,42.225 14.681,42.225 14.29,42.614 L11.434,45.465 C11.246,45.653 11.14,45.907 11.14,46.173 C11.14,46.439 11.245,46.693 11.433,46.881 L12.861,48.307 C13.056,48.501 13.312,48.599 13.568,48.599 C13.824,48.599 14.081,48.501 14.276,48.306 C14.666,47.914 14.666,47.282 14.275,46.891 L13.555,46.173 L14.996,44.735 L15.717,45.456 L15.717,45.456 Z" id="Shape" fill="#000000"></path>
        <path d="M17.852,52.874 C18.108,52.874 18.365,52.776 18.56,52.581 C18.95,52.189 18.95,51.557 18.559,51.166 L17.839,50.448 L19.279,49.01 L20.002,49.731 C20.394,50.121 21.026,50.122 21.416,49.729 C21.806,49.338 21.806,48.705 21.414,48.315 L19.985,46.89 C19.594,46.501 18.964,46.501 18.573,46.89 L15.718,49.74 C15.53,49.928 15.424,50.182 15.424,50.448 C15.424,50.714 15.529,50.968 15.717,51.156 L17.145,52.582 C17.34,52.776 17.596,52.874 17.852,52.874 L17.852,52.874 Z" id="Shape" fill="#000000"></path>
    </g>
</svg>