<?xml version="1.0" encoding="UTF-8" standalone="no"?>
<svg width="64px" height="64px" viewBox="0 0 64 64" version="1.1" xmlns="http://www.w3.org/2000/svg" xmlns:xlink="http://www.w3.org/1999/xlink">
    <!-- Generator: Sketch 3.7.2 (28276) - http://www.bohemiancoding.com/sketch -->
    <title>com-search</title>
    <desc>Created with Sketch.</desc>
    <defs></defs>
    <g id="64px-Line" stroke="none" stroke-width="1" fill="none" fill-rule="evenodd">
        <g id="com-search"></g>
        <path d="M26.242,48.03 C25.706,47.893 25.164,48.222 25.03,48.758 L24.03,52.758 C24.02,52.799 24.029,52.838 24.024,52.879 C24.019,52.92 24,52.957 24,53 C24,53.044 24.011,53.085 24.013,53.128 C24.015,53.142 24.015,53.155 24.017,53.169 C24.107,54.743 25.403,56 27,56 L35,56 C36.596,56 37.893,54.743 37.983,53.169 C37.985,53.155 37.985,53.142 37.987,53.128 C37.989,53.085 38,53.044 38,53 C38,52.957 37.981,52.92 37.975,52.878 C37.97,52.837 37.98,52.798 37.969,52.757 L36.969,48.757 C36.835,48.222 36.292,47.894 35.757,48.029 C35.221,48.163 34.895,48.706 35.029,49.242 L35.985,53.066 C35.95,53.585 35.528,54 35,54 L27,54 C26.472,54 26.05,53.585 26.014,53.067 L26.97,49.243 C27.104,48.707 26.778,48.164 26.242,48.03 L26.242,48.03 Z" id="Shape" fill="#000000"></path>
        <path d="M8,46 L54,46 C56.206,46 58,44.206 58,42 L58,10 C58,7.794 56.206,6 54,6 L8,6 C5.794,6 4,7.794 4,10 L4,42 C4,44.206 5.794,46 8,46 L8,46 Z M54,44 L8,44 C6.897,44 6,43.103 6,42 L6,36 L56,36 L56,42 C56,43.103 55.103,44 54,44 L54,44 Z M8,8 L54,8 C55.103,8 56,8.897 56,10 L56,34 L6,34 L6,10 C6,8.897 6.897,8 8,8 L8,8 Z" id="Shape" fill="#000000"></path>
        <circle id="Oval" fill="#000000" cx="31" cy="40" r="2"></circle>
        <path d="M23,30 C23.256,30 23.512,29.902 23.707,29.707 L28.816,24.599 C29.985,25.474 31.43,26 33,26 C36.859,26 40,22.86 40,19 C40,15.14 36.859,12 33,12 C29.141,12 26,15.14 26,19 C26,20.57 26.526,22.016 27.402,23.185 L22.293,28.293 C21.902,28.684 21.902,29.316 22.293,29.707 C22.488,29.902 22.744,30 23,30 L23,30 Z M33,14 C35.757,14 38,16.243 38,19 C38,21.757 35.757,24 33,24 C30.243,24 28,21.757 28,19 C28,16.243 30.243,14 33,14 L33,14 Z" id="Shape" fill="#000000"></path>
    </g>
</svg>