<?xml version="1.0" encoding="UTF-8" standalone="no"?>
<svg width="64px" height="64px" viewBox="0 0 64 64" version="1.1" xmlns="http://www.w3.org/2000/svg" xmlns:xlink="http://www.w3.org/1999/xlink">
    <!-- Generator: Sketch 3.7.2 (28276) - http://www.bohemiancoding.com/sketch -->
    <title>com-tablet</title>
    <desc>Created with Sketch.</desc>
    <defs></defs>
    <g id="64px-Line" stroke="none" stroke-width="1" fill="none" fill-rule="evenodd">
        <g id="com-tablet"></g>
        <path d="M48,4 L18,4 C15.794,4 14,5.794 14,8 L14,56 C14,58.206 15.794,60 18,60 L48,60 C50.206,60 52,58.206 52,56 L52,8 C52,5.794 50.206,4 48,4 L48,4 Z M50,56 C50,57.103 49.103,58 48,58 L18,58 C16.897,58 16,57.103 16,56 L16,8 C16,6.897 16.897,6 18,6 L48,6 C49.103,6 50,6.897 50,8 L50,56 L50,56 Z" id="Shape" fill="#000000"></path>
        <path d="M33,10 C33.13,10 33.26,9.97 33.38,9.92 C33.5,9.87 33.61,9.8 33.71,9.71 C33.9,9.52 34,9.27 34,9 C34,8.87 33.98,8.74 33.92,8.62 C33.87,8.5 33.8,8.39 33.71,8.29 C33.66,8.25 33.61,8.21 33.56,8.17 C33.5,8.13 33.44,8.1 33.38,8.08 C33.32,8.05 33.26,8.03 33.2,8.019 C33,7.979 32.8,7.999 32.62,8.08 C32.49,8.13 32.39,8.2 32.29,8.29 C32.2,8.39 32.13,8.5 32.08,8.62 C32.03,8.74 32,8.87 32,9 C32,9.27 32.1,9.52 32.29,9.71 C32.48,9.899 32.73,10 33,10 L33,10 Z" id="Shape" fill="#000000"></path>
        <path d="M32.29,54.29 C32.11,54.479 32,54.74 32,55 C32,55.13 32.03,55.26 32.08,55.38 C32.13,55.5 32.2,55.609 32.29,55.71 C32.48,55.899 32.73,56 33,56 C33.27,56 33.52,55.899 33.71,55.71 C33.9,55.52 34,55.27 34,55 C34,54.74 33.89,54.479 33.71,54.29 C33.34,53.92 32.67,53.92 32.29,54.29 L32.29,54.29 Z" id="Shape" fill="#000000"></path>
        <path d="M47,12 L19,12 C18.448,12 18,12.447 18,13 L18,51 C18,51.553 18.448,52 19,52 L47,52 C47.552,52 48,51.553 48,51 L48,13 C48,12.447 47.552,12 47,12 L47,12 Z M46,50 L20,50 L20,14 L46,14 L46,50 L46,50 Z" id="Shape" fill="#000000"></path>
    </g>
</svg>