<?xml version="1.0" encoding="UTF-8" standalone="no"?>
<svg width="64px" height="64px" viewBox="0 0 64 64" version="1.1" xmlns="http://www.w3.org/2000/svg" xmlns:xlink="http://www.w3.org/1999/xlink">
    <!-- Generator: Sketch 3.7.2 (28276) - http://www.bohemiancoding.com/sketch -->
    <title>com-mouse-wireless-mac</title>
    <desc>Created with Sketch.</desc>
    <defs></defs>
    <g id="64px-Line" stroke="none" stroke-width="1" fill="none" fill-rule="evenodd">
        <g id="com-mouse-wireless-mac"></g>
        <path d="M15.022,60 C17.81,60 20.612,58.799 22.709,56.704 L34.736,44.691 C36.82,42.608 37.979,39.858 38,36.947 C38.021,34.022 36.887,31.266 34.808,29.189 C30.55,24.936 23.59,24.967 19.292,29.26 L7.265,41.273 C5.181,43.356 4.021,46.106 4.001,49.017 C3.98,51.942 5.115,54.698 7.194,56.775 C9.275,58.855 12.055,60 15.022,60 L15.022,60 Z M8.678,42.688 L20.705,30.675 C22.477,28.905 24.801,28.018 27.116,28.018 C29.396,28.018 31.668,28.879 33.394,30.603 C35.092,32.299 36.017,34.546 36,36.932 C35.983,39.314 35.032,41.566 33.323,43.275 L21.297,55.288 C19.572,57.011 17.285,57.999 15.023,57.999 C12.59,57.999 10.312,57.061 8.607,55.359 C6.91,53.663 5.984,51.416 6.001,49.03 C6.017,46.65 6.968,44.397 8.678,42.688 L8.678,42.688 Z" id="Shape" fill="#000000"></path>
        <path d="M24.965,40.002 C25.221,40.002 25.477,39.904 25.672,39.709 L29.672,35.709 C30.063,35.318 30.063,34.686 29.672,34.295 C29.281,33.904 28.649,33.904 28.258,34.295 L24.258,38.295 C23.867,38.686 23.867,39.318 24.258,39.709 C24.454,39.904 24.709,40.002 24.965,40.002 L24.965,40.002 Z" id="Shape" fill="#000000"></path>
        <path d="M33,22.002 L33,22.002 L33.004,22.002 C35.406,22.002 37.665,22.938 39.364,24.637 C41.064,26.337 42,28.597 42,31.002 C42,31.554 42.448,32.002 43,32.002 C43.552,32.002 44,31.554 44,31.002 C44,28.064 42.856,25.301 40.778,23.223 C38.701,21.146 35.94,20.002 33.004,20.002 L33,20.002 C32.448,20.002 32,20.45 32,21.002 C32,21.554 32.448,22.002 33,22.002 L33,22.002 Z" id="Shape" fill="#000000"></path>
        <path d="M33,14.002 L33.004,14.002 C37.544,14.002 41.812,15.77 45.021,18.979 C48.231,22.19 50,26.459 50,31.001 C50,31.553 50.448,32.001 51,32.001 C51.552,32.001 52,31.553 52,31.001 C52,25.925 50.024,21.153 46.436,17.564 C42.849,13.977 38.079,12.001 33.005,12.001 L33.001,12.001 C32.448,12.001 32.001,12.449 32.001,13.001 C32,13.555 32.448,14.002 33,14.002 L33,14.002 Z" id="Shape" fill="#000000"></path>
        <path d="M33,4 C32.448,4 32,4.448 32,5 C32,5.552 32.448,6 33,6 C39.679,6.001 45.958,8.602 50.679,13.322 C55.4,18.044 58,24.322 58,31 C58,31.552 58.448,32 59,32 C59.552,32 60,31.552 60,31 C60,23.788 57.192,17.008 52.093,11.908 C46.994,6.81 40.214,4.001 33,4 L33,4 Z" id="Shape" fill="#000000"></path>
    </g>
</svg>