<?xml version="1.0" encoding="UTF-8" standalone="no"?>
<svg width="64px" height="64px" viewBox="0 0 64 64" version="1.1" xmlns="http://www.w3.org/2000/svg" xmlns:xlink="http://www.w3.org/1999/xlink">
    <!-- Generator: Sketch 3.7.2 (28276) - http://www.bohemiancoding.com/sketch -->
    <title>com-computer-10</title>
    <desc>Created with Sketch.</desc>
    <defs></defs>
    <g id="64px-Line" stroke="none" stroke-width="1" fill="none" fill-rule="evenodd">
        <g id="com-computer-10"></g>
        <path d="M26,30 C29.309,30 32,26.859 32,23 C32,19.141 29.309,16 26,16 C22.691,16 20,19.141 20,23 C20,26.859 22.691,30 26,30 L26,30 Z M26,18 C28.206,18 30,20.243 30,23 C30,25.757 28.206,28 26,28 C23.794,28 22,25.757 22,23 C22,20.243 23.794,18 26,18 L26,18 Z" id="Shape" fill="#000000"></path>
        <path d="M48,30 C51.309,30 54,26.859 54,23 C54,19.141 51.309,16 48,16 C44.691,16 42,19.141 42,23 C42,26.859 44.691,30 48,30 L48,30 Z M48,18 C50.206,18 52,20.243 52,23 C52,25.757 50.206,28 48,28 C45.794,28 44,25.757 44,23 C44,20.243 45.794,18 48,18 L48,18 Z" id="Shape" fill="#000000"></path>
        <path d="M35.707,19.707 L36,19.414 L36,29 C36,29.553 36.448,30 37,30 C37.552,30 38,29.553 38,29 L38,17 C38,16.596 37.756,16.23 37.383,16.076 C37.008,15.919 36.579,16.006 36.293,16.293 L34.293,18.293 C33.902,18.684 33.902,19.316 34.293,19.707 C34.684,20.098 35.316,20.098 35.707,19.707 L35.707,19.707 Z" id="Shape" fill="#000000"></path>
        <path d="M13.707,19.707 L14,19.414 L14,29 C14,29.553 14.448,30 15,30 C15.552,30 16,29.553 16,29 L16,17 C16,16.596 15.756,16.23 15.383,16.076 C15.007,15.919 14.579,16.006 14.293,16.293 L12.293,18.293 C11.902,18.684 11.902,19.316 12.293,19.707 C12.684,20.098 13.316,20.098 13.707,19.707 L13.707,19.707 Z" id="Shape" fill="#000000"></path>
        <path d="M26.243,50.03 C25.707,49.897 25.165,50.22 25.03,50.758 L24.03,54.758 C24.02,54.799 24.029,54.839 24.024,54.88 C24.019,54.921 24,54.957 24,55 C24,55.044 24.011,55.084 24.013,55.128 C24.015,55.142 24.015,55.155 24.017,55.169 C24.107,56.743 25.403,58 27,58 L37,58 C38.596,58 39.893,56.743 39.983,55.169 C39.985,55.155 39.985,55.142 39.987,55.128 C39.989,55.085 40,55.044 40,55 C40,54.958 39.981,54.921 39.976,54.88 C39.971,54.839 39.981,54.799 39.97,54.758 L38.97,50.758 C38.836,50.221 38.294,49.898 37.757,50.03 C37.221,50.164 36.896,50.707 37.029,51.242 L37.986,55.068 C37.949,55.586 37.527,56 37,56 L27,56 C26.473,56 26.051,55.586 26.014,55.068 L26.971,51.242 C27.104,50.707 26.778,50.164 26.243,50.03 L26.243,50.03 Z" id="Shape" fill="#000000"></path>
        <path d="M56,8 L8,8 C5.794,8 4,9.794 4,12 L4,44 C4,46.206 5.794,48 8,48 L56,48 C58.206,48 60,46.206 60,44 L60,12 C60,9.794 58.206,8 56,8 L56,8 Z M8,10 L56,10 C57.103,10 58,10.897 58,12 L58,36 L6,36 L6,12 C6,10.897 6.897,10 8,10 L8,10 Z M56,46 L8,46 C6.897,46 6,45.103 6,44 L6,38 L58,38 L58,44 C58,45.103 57.103,46 56,46 L56,46 Z" id="Shape" fill="#000000"></path>
        <circle id="Oval" fill="#000000" cx="32" cy="42" r="2"></circle>
    </g>
</svg>