<?xml version="1.0" encoding="UTF-8" standalone="no"?>
<svg width="64px" height="64px" viewBox="0 0 64 64" version="1.1" xmlns="http://www.w3.org/2000/svg" xmlns:xlink="http://www.w3.org/1999/xlink">
    <!-- Generator: Sketch 3.7.2 (28276) - http://www.bohemiancoding.com/sketch -->
    <title>com-camera-2</title>
    <desc>Created with Sketch.</desc>
    <defs></defs>
    <g id="64px-Line" stroke="none" stroke-width="1" fill="none" fill-rule="evenodd">
        <g id="com-camera-2"></g>
        <path d="M31,6 C19.421,6 10,15.421 10,27 C10,38.242 18.887,47.422 30,47.949 L30,58 L23,58 C22.447,58 22,58.447 22,59 C22,59.553 22.447,60 23,60 L39,60 C39.553,60 40,59.553 40,59 C40,58.447 39.553,58 39,58 L32,58 L32,47.949 C43.113,47.422 52,38.241 52,27 C52,15.421 42.579,6 31,6 L31,6 Z M31,46 C20.523,46 12,37.477 12,27 C12,16.523 20.523,8 31,8 C41.477,8 50,16.523 50,27 C50,37.477 41.477,46 31,46 L31,46 Z" id="Shape" fill="#000000"></path>
        <path d="M31,18 C26.037,18 22,22.037 22,27 C22,31.963 26.037,36 31,36 C35.963,36 40,31.963 40,27 C40,22.037 35.963,18 31,18 L31,18 Z M31,34 C27.141,34 24,30.859 24,27 C24,23.141 27.141,20 31,20 C34.859,20 38,23.141 38,27 C38,30.859 34.859,34 31,34 L31,34 Z" id="Shape" fill="#000000"></path>
        <path d="M31,22 C28.243,22 26,24.243 26,27 C26,27.553 26.447,28 27,28 C27.553,28 28,27.553 28,27 C28,25.346 29.346,24 31,24 C31.553,24 32,23.553 32,23 C32,22.447 31.553,22 31,22 L31,22 Z" id="Shape" fill="#000000"></path>
    </g>
</svg>