<?xml version="1.0" encoding="UTF-8" standalone="no"?>
<svg width="64px" height="64px" viewBox="0 0 64 64" version="1.1" xmlns="http://www.w3.org/2000/svg" xmlns:xlink="http://www.w3.org/1999/xlink">
    <!-- Generator: Sketch 3.7.2 (28276) - http://www.bohemiancoding.com/sketch -->
    <title>com-mouse-mac</title>
    <desc>Created with Sketch.</desc>
    <defs></defs>
    <g id="64px-Line" stroke="none" stroke-width="1" fill="none" fill-rule="evenodd">
        <g id="com-mouse-mac"></g>
        <path d="M48.293,28.328 L42.293,34.328 C41.902,34.719 41.902,35.351 42.293,35.742 C42.488,35.937 42.744,36.035 43,36.035 C43.256,36.035 43.512,35.937 43.707,35.742 L49.707,29.742 C50.098,29.351 50.098,28.719 49.707,28.328 C49.316,27.937 48.684,27.938 48.293,28.328 L48.293,28.328 Z" id="Shape" fill="#000000"></path>
        <path d="M56.778,7.222 C54.7,5.144 51.938,4 49,4 C46.062,4 43.299,5.144 41.217,7.227 L21.364,27.365 C17.855,30.874 12.145,30.873 8.635,27.365 C6.935,25.665 5.999,23.405 5.999,21 C5.999,20.447 5.551,20 4.999,20 C4.447,20 3.999,20.447 3.999,21 C3.999,23.939 5.143,26.702 7.221,28.779 C9.365,30.923 12.181,31.995 14.998,31.995 C17.816,31.995 20.636,30.922 22.783,28.774 L42.636,8.636 C46.145,5.126 51.855,5.127 55.365,8.636 C58.873,12.145 58.873,17.856 55.413,21.32 L54.924,21.748 C52.191,19.333 48.726,17.999 45.047,18 C41.053,18 37.298,19.556 34.475,22.38 L20.38,36.475 C14.55,42.305 14.55,51.79 20.38,57.621 C23.204,60.445 26.959,62.001 30.953,62.001 C34.947,62.001 38.702,60.445 41.525,57.621 L55.62,43.526 C61.196,37.95 61.425,29.037 56.333,23.17 L56.778,22.779 C61.066,18.489 61.066,11.511 56.778,7.222 L56.778,7.222 Z M54.206,42.111 L40.111,56.206 C37.665,58.652 34.412,60 30.953,60 C27.493,60 24.241,58.652 21.794,56.206 C16.744,51.156 16.744,42.938 21.794,37.889 L35.889,23.794 C38.335,21.348 41.588,20 45.047,20 C48.507,20 51.759,21.347 54.206,23.794 C59.256,28.844 59.256,37.062 54.206,42.111 L54.206,42.111 Z" id="Shape" fill="#000000"></path>
    </g>
</svg>