<?xml version="1.0" encoding="UTF-8" standalone="no"?>
<svg width="64px" height="64px" viewBox="0 0 64 64" version="1.1" xmlns="http://www.w3.org/2000/svg" xmlns:xlink="http://www.w3.org/1999/xlink">
    <!-- Generator: Sketch 3.7.2 (28276) - http://www.bohemiancoding.com/sketch -->
    <title>com-mouse-wireless</title>
    <desc>Created with Sketch.</desc>
    <defs></defs>
    <g id="64px-Line" stroke="none" stroke-width="1" fill="none" fill-rule="evenodd">
        <g id="com-mouse-wireless"></g>
        <path d="M21.771,25.746 L7.515,39.516 C2.837,44.196 2.837,51.808 7.515,56.487 C9.781,58.754 12.795,60.002 16.001,60.002 C19.207,60.002 22.221,58.754 24.499,56.475 L38.244,42.246 C40.583,39.906 40.583,36.1 38.244,33.761 L30.244,25.761 C27.904,23.421 24.098,23.421 21.771,25.746 L21.771,25.746 Z M23.172,27.173 C23.952,26.394 24.976,26.004 26,26.004 C27.024,26.004 28.049,26.394 28.829,27.173 L32.122,30.466 L25,37.587 L18.804,31.391 L23.172,27.173 L23.172,27.173 Z M23.072,55.072 C21.184,56.961 18.673,58.001 16.001,58.001 C13.329,58.001 10.817,56.961 8.929,55.072 C5.031,51.174 5.031,44.829 8.917,40.942 L17.367,32.78 L31.222,46.635 L23.072,55.072 L23.072,55.072 Z M36.817,40.843 L32.611,45.197 L26.415,39.001 L33.537,31.88 L36.83,35.173 C38.388,36.732 38.388,39.271 36.817,40.843 L36.817,40.843 Z" id="Shape" fill="#000000"></path>
        <path d="M33,22.001 L33,22.001 L33.004,22.001 C35.406,22.001 37.665,22.937 39.364,24.636 C41.064,26.336 42,28.597 42,31.001 C42,31.553 42.448,32.001 43,32.001 C43.552,32.001 44,31.554 44,31.001 C44,28.063 42.856,25.3 40.778,23.222 C38.701,21.145 35.94,20.001 33.004,20.001 L33,20.001 C32.448,20.001 32,20.449 32,21.001 C32,21.554 32.448,22.001 33,22.001 L33,22.001 Z" id="Shape" fill="#000000"></path>
        <path d="M33,14.002 L33.004,14.002 C37.544,14.002 41.812,15.77 45.021,18.98 C48.231,22.191 50,26.459 50,31.001 C50,31.554 50.448,32.001 51,32.001 C51.552,32.001 52,31.554 52,31.001 C52,25.925 50.024,21.153 46.436,17.565 C42.849,13.977 38.079,12.002 33.005,12.002 L33.001,12.002 C32.448,12.002 32.001,12.45 32.001,13.002 C32,13.555 32.448,14.002 33,14.002 L33,14.002 Z" id="Shape" fill="#000000"></path>
        <path d="M33,4 C32.448,4 32,4.447 32,5 C32,5.552 32.448,6 33,6 C39.679,6.001 45.957,8.602 50.678,13.322 C55.399,18.044 57.999,24.321 57.999,30.999 C57.999,31.552 58.447,31.999 58.999,31.999 C59.551,31.999 59.999,31.552 59.999,30.999 C59.999,23.787 57.191,17.008 52.092,11.908 C46.994,6.81 40.214,4.001 33,4 L33,4 Z" id="Shape" fill="#000000"></path>
    </g>
</svg>