<?xml version="1.0" encoding="UTF-8" standalone="no"?>
<svg width="64px" height="64px" viewBox="0 0 64 64" version="1.1" xmlns="http://www.w3.org/2000/svg" xmlns:xlink="http://www.w3.org/1999/xlink">
    <!-- Generator: Sketch 3.7.2 (28276) - http://www.bohemiancoding.com/sketch -->
    <title>com-socket</title>
    <desc>Created with Sketch.</desc>
    <defs></defs>
    <g id="64px-Line" stroke="none" stroke-width="1" fill="none" fill-rule="evenodd">
        <g id="com-socket"></g>
        <path d="M19,32 C19.553,32 20,31.552 20,31 L20,23 C20,22.448 19.553,22 19,22 C18.447,22 18,22.448 18,23 L18,31 C18,31.552 18.447,32 19,32 L19,32 Z" id="Shape" fill="#000000"></path>
        <path d="M43,32 C43.553,32 44,31.552 44,31 L44,23 C44,22.448 43.553,22 43,22 C42.447,22 42,22.448 42,23 L42,31 C42,31.552 42.447,32 43,32 L43,32 Z" id="Shape" fill="#000000"></path>
        <path d="M31,46 C33.757,46 36,43.757 36,41 C36,38.243 33.757,36 31,36 C28.243,36 26,38.243 26,41 C26,43.757 28.243,46 31,46 L31,46 Z M31,38 C32.654,38 34,39.346 34,41 C34,42.654 32.654,44 31,44 C29.346,44 28,42.654 28,41 C28,39.346 29.346,38 31,38 L31,38 Z" id="Shape" fill="#000000"></path>
        <path d="M11,54 L51,54 C51.238,54 51.469,53.915 51.649,53.761 C51.909,53.539 58,48.162 58,33 C58,17.838 51.909,12.461 51.649,12.24 C51.468,12.085 51.238,12 51,12 L11,12 C10.731,12 10.474,12.108 10.285,12.3 C10.029,12.562 4,18.879 4,33 C4,47.121 10.029,53.438 10.285,53.7 C10.474,53.892 10.731,54 11,54 L11,54 Z M11.455,14 L50.589,14 C51.671,15.157 56,20.564 56,33 C56,45.445 51.665,50.851 50.59,52 L11.452,52 C10.331,50.644 6,44.647 6,33 C6,21.414 10.335,15.368 11.455,14 L11.455,14 Z" id="Shape" fill="#000000"></path>
    </g>
</svg>