<?xml version="1.0" encoding="UTF-8" standalone="no"?>
<svg width="64px" height="64px" viewBox="0 0 64 64" version="1.1" xmlns="http://www.w3.org/2000/svg" xmlns:xlink="http://www.w3.org/1999/xlink">
    <!-- Generator: Sketch 3.7.2 (28276) - http://www.bohemiancoding.com/sketch -->
    <title>com-lightning-cable</title>
    <desc>Created with Sketch.</desc>
    <defs></defs>
    <g id="64px-Line" stroke="none" stroke-width="1" fill="none" fill-rule="evenodd">
        <g id="com-lightning-cable"></g>
        <path d="M43.48,14.715 C43.675,14.91 43.931,15.008 44.187,15.008 C44.443,15.008 44.699,14.91 44.894,14.715 L47.796,11.813 C48.187,11.422 48.187,10.79 47.796,10.399 C47.405,10.008 46.773,10.008 46.382,10.399 L43.48,13.301 C43.089,13.691 43.089,14.324 43.48,14.715 L43.48,14.715 Z" id="Shape" fill="#000000"></path>
        <path d="M46.382,17.617 C46.577,17.812 46.833,17.91 47.089,17.91 C47.345,17.91 47.601,17.812 47.796,17.617 L50.699,14.715 C51.09,14.324 51.09,13.692 50.699,13.301 C50.308,12.91 49.676,12.91 49.285,13.301 L46.382,16.203 C45.992,16.594 45.992,17.227 46.382,17.617 L46.382,17.617 Z" id="Shape" fill="#000000"></path>
        <path d="M49.285,20.521 C49.48,20.716 49.736,20.814 49.992,20.814 C50.248,20.814 50.504,20.716 50.699,20.521 L53.602,17.618 C53.993,17.227 53.993,16.595 53.602,16.204 C53.211,15.813 52.579,15.813 52.188,16.204 L49.285,19.107 C48.895,19.497 48.895,20.13 49.285,20.521 L49.285,20.521 Z" id="Shape" fill="#000000"></path>
        <path d="M4.293,56.805 C4.488,57 4.744,57.098 5,57.098 C5.256,57.098 5.512,57 5.707,56.805 L12.257,50.255 L13.746,51.744 L7.196,58.294 C6.805,58.685 6.805,59.317 7.196,59.708 C7.391,59.903 7.647,60.001 7.903,60.001 C8.159,60.001 8.415,59.903 8.61,59.708 L15.16,53.158 L15.904,53.902 C16.099,54.097 16.355,54.195 16.611,54.195 C16.867,54.195 17.123,54.097 17.318,53.902 L25.319,45.901 L27.514,48.096 C28.109,48.692 28.89,48.989 29.673,48.989 C30.454,48.989 31.236,48.691 31.831,48.096 L49.248,30.68 C50.188,29.739 50.373,28.336 49.826,27.2 L56.505,20.521 C58.495,18.531 58.495,15.292 56.505,13.301 L50.699,7.495 C48.708,5.505 45.47,5.505 43.48,7.495 L36.793,14.182 C35.659,13.662 34.227,13.846 33.32,14.752 L15.904,32.168 C15.327,32.745 15.009,33.511 15.009,34.327 C15.009,35.142 15.326,35.909 15.903,36.485 L18.099,38.681 L10.098,46.682 C9.91,46.87 9.805,47.123 9.805,47.389 C9.805,47.655 9.91,47.909 10.098,48.096 L10.843,48.841 L4.293,55.391 C3.902,55.781 3.902,56.414 4.293,56.805 L4.293,56.805 Z M44.894,8.909 C46.104,7.698 48.074,7.699 49.285,8.909 L55.091,14.715 C56.301,15.926 56.301,17.896 55.091,19.107 L48.541,25.657 L38.344,15.46 L44.894,8.909 L44.894,8.909 Z M17.01,34.327 C17.01,34.046 17.119,33.782 17.318,33.583 L34.735,16.166 C34.933,15.967 35.197,15.857 35.479,15.857 C35.761,15.857 36.025,15.966 36.224,16.166 L47.834,27.777 C48.244,28.187 48.244,28.855 47.834,29.265 L30.417,46.681 C30.006,47.091 29.337,47.091 28.928,46.681 L26.026,43.779 L26.026,43.779 L26.026,43.779 L20.221,37.975 C20.221,37.975 20.221,37.974 20.22,37.974 C20.219,37.974 20.219,37.974 20.219,37.973 L17.317,35.071 C17.119,34.872 17.01,34.608 17.01,34.327 L17.01,34.327 Z M19.513,40.095 L23.905,44.487 L16.611,51.781 L12.219,47.389 L19.513,40.095 L19.513,40.095 Z" id="Shape" fill="#000000"></path>
    </g>
</svg>