<?xml version="1.0" encoding="UTF-8" standalone="no"?>
<svg width="64px" height="64px" viewBox="0 0 64 64" version="1.1" xmlns="http://www.w3.org/2000/svg" xmlns:xlink="http://www.w3.org/1999/xlink">
    <!-- Generator: Sketch 3.7.2 (28276) - http://www.bohemiancoding.com/sketch -->
    <title>com-airport</title>
    <desc>Created with Sketch.</desc>
    <defs></defs>
    <g id="64px-Line" stroke="none" stroke-width="1" fill="none" fill-rule="evenodd">
        <g id="com-airport"></g>
        <path d="M45.427,8.47 C45.401,8.412 45.369,8.358 45.334,8.306 C44.321,6.863 42.596,6 40.716,6 L23.284,6 C21.404,6 19.679,6.862 18.666,8.306 C18.63,8.359 18.599,8.414 18.572,8.473 L16.283,13.601 C16.092,14.039 16.018,14.499 16.022,14.951 C16.018,14.989 16,15.021 16,15.06 L16,57 C16,58.654 17.346,60 19,60 L45,60 C46.654,60 48,58.654 48,57 L48,15.06 C48,15.002 47.976,14.951 47.967,14.896 C47.971,14.461 47.908,14.019 47.733,13.591 L45.427,8.47 L45.427,8.47 Z M18.113,14.407 L20.356,9.382 C20.995,8.528 22.107,8 23.284,8 L40.716,8 C41.894,8 43.007,8.527 43.645,9.383 L45.895,14.379 C46.051,14.761 46.016,15.182 45.799,15.504 C45.647,15.731 45.343,16 44.757,16 L19.243,16 C18.762,16 18.381,15.822 18.17,15.5 C17.967,15.19 17.947,14.789 18.113,14.407 L18.113,14.407 Z M45,58 L19,58 C18.448,58 18,57.552 18,57 L18,17.759 C18.385,17.903 18.796,18 19.243,18 L44.757,18 C45.203,18 45.615,17.901 46,17.752 L46,57 C46,57.552 45.552,58 45,58 L45,58 Z" id="Shape" fill="#000000"></path>
        <path d="M32,14 C33.934,14 36,13.475 36,12 C36,10.525 33.934,10 32,10 C30.066,10 28,10.525 28,12 C28,13.475 30.066,14 32,14 L32,14 Z" id="Shape" fill="#000000"></path>
    </g>
</svg>