<?xml version="1.0" encoding="UTF-8" standalone="no"?>
<svg width="64px" height="64px" viewBox="0 0 64 64" version="1.1" xmlns="http://www.w3.org/2000/svg" xmlns:xlink="http://www.w3.org/1999/xlink">
    <!-- Generator: Sketch 3.7.2 (28276) - http://www.bohemiancoding.com/sketch -->
    <title>com-bug</title>
    <desc>Created with Sketch.</desc>
    <defs></defs>
    <g id="64px-Line" stroke="none" stroke-width="1" fill="none" fill-rule="evenodd">
        <g id="com-bug"></g>
        <path d="M59,34 L47.986,34 C47.924,29.934 47.49,26.598 46.765,23.879 C53.157,23.02 58,17.587 58,11 C58,10.447 57.553,10 57,10 C56.447,10 56,10.447 56,11 C56,16.688 51.729,21.349 46.157,21.928 C44.707,17.876 42.517,15.434 40,13.988 L40,13.5 C40,9.364 35.963,6 31,6 C26.037,6 22,9.364 22,13.5 L22,13.988 C19.483,15.434 17.293,17.876 15.843,21.928 C10.271,21.35 6,16.688 6,11 C6,10.447 5.553,10 5,10 C4.447,10 4,10.447 4,11 C4,17.587 8.843,23.021 15.236,23.879 C14.51,26.598 14.077,29.933 14.015,34 L3,34 C2.447,34 2,34.447 2,35 C2,35.553 2.447,36 3,36 L14.006,36 C14.045,39.504 14.309,42.998 15.112,46.137 C8.783,47.051 4,52.464 4,59 C4,59.553 4.447,60 5,60 C5.553,60 6,59.553 6,59 C6,53.367 10.199,48.729 15.699,48.085 C17.73,53.85 22.052,58 31,58 C36.744,58 43.1,56.616 46.157,48.072 C51.729,48.65 56,53.315 56,59 C56,59.553 56.447,60 57,60 C57.553,60 58,59.553 58,59 C58,52.416 53.156,46.98 46.764,46.121 C47.49,43.402 47.923,40.066 47.985,36 L59,36 C59.553,36 60,35.553 60,35 C60,34.447 59.553,34 59,34 L59,34 Z M31,8 C34.666,8 37.677,10.227 37.971,13.049 C35.717,12.227 33.309,12 31,12 C28.691,12 26.283,12.227 24.029,13.049 C24.323,10.227 27.334,8 31,8 L31,8 Z M31,14 C36.116,14 41.311,15.19 44.041,22 L17.958,22 C20.689,15.19 25.884,14 31,14 L31,14 Z M16,35 C16,30.42 16.466,26.823 17.277,24 L30,24 L30,55.983 C22.603,55.75 16,52.663 16,35 L16,35 Z M32,55.983 L32,24 L44.723,24 C45.535,26.823 46,30.42 46,35 C46,39.891 45.49,43.655 44.601,46.56 C44.58,46.603 44.574,46.651 44.559,46.696 C42.22,54.166 37.317,55.815 32,55.983 L32,55.983 Z" id="Shape" fill="#000000"></path>
    </g>
</svg>