<?xml version="1.0" encoding="UTF-8" standalone="no"?>
<svg width="64px" height="64px" viewBox="0 0 64 64" version="1.1" xmlns="http://www.w3.org/2000/svg" xmlns:xlink="http://www.w3.org/1999/xlink">
    <!-- Generator: Sketch 3.7.2 (28276) - http://www.bohemiancoding.com/sketch -->
    <title>com-keyboard</title>
    <desc>Created with Sketch.</desc>
    <defs></defs>
    <g id="64px-Line" stroke="none" stroke-width="1" fill="none" fill-rule="evenodd">
        <g id="com-keyboard"></g>
        <path d="M57,30 L32,30 L32,29 C32,26.243 34.243,24 37,24 L43,24 C46.859,24 50,20.859 50,17 C50,13.141 46.859,10 43,10 L25,10 C22.243,10 20,7.757 20,5 C20,4.447 19.553,4 19,4 C18.447,4 18,4.447 18,5 C18,8.859 21.141,12 25,12 L43,12 C45.757,12 48,14.243 48,17 C48,19.757 45.757,22 43,22 L37,22 C33.141,22 30,25.141 30,29 L30,30 L5,30 C4.447,30 4,30.447 4,31 L4,59 C4,59.553 4.447,60 5,60 L57,60 C57.553,60 58,59.553 58,59 L58,31 C58,30.447 57.553,30 57,30 L57,30 Z M56,58 L6,58 L6,32 L56,32 L56,58 L56,58 Z" id="Shape" fill="#000000"></path>
        <path d="M13,50 L9,50 C8.447,50 8,50.447 8,51 L8,55 C8,55.553 8.447,56 9,56 L13,56 C13.553,56 14,55.553 14,55 L14,51 C14,50.447 13.553,50 13,50 L13,50 Z M12,54 L10,54 L10,52 L12,52 L12,54 L12,54 Z" id="Shape" fill="#000000"></path>
        <path d="M45,50 L17,50 C16.447,50 16,50.447 16,51 L16,55 C16,55.553 16.447,56 17,56 L45,56 C45.553,56 46,55.553 46,55 L46,51 C46,50.447 45.553,50 45,50 L45,50 Z M44,54 L18,54 L18,52 L44,52 L44,54 L44,54 Z" id="Shape" fill="#000000"></path>
        <path d="M13,42 L9,42 C8.447,42 8,42.447 8,43 L8,47 C8,47.553 8.447,48 9,48 L13,48 C13.553,48 14,47.553 14,47 L14,43 C14,42.447 13.553,42 13,42 L13,42 Z M12,46 L10,46 L10,44 L12,44 L12,46 L12,46 Z" id="Shape" fill="#000000"></path>
        <path d="M13,34 L9,34 C8.447,34 8,34.447 8,35 L8,39 C8,39.553 8.447,40 9,40 L13,40 C13.553,40 14,39.553 14,39 L14,35 C14,34.447 13.553,34 13,34 L13,34 Z M12,38 L10,38 L10,36 L12,36 L12,38 L12,38 Z" id="Shape" fill="#000000"></path>
        <path d="M17,48 L21,48 C21.553,48 22,47.553 22,47 L22,43 C22,42.447 21.553,42 21,42 L17,42 C16.447,42 16,42.447 16,43 L16,47 C16,47.553 16.447,48 17,48 L17,48 Z M18,44 L20,44 L20,46 L18,46 L18,44 L18,44 Z" id="Shape" fill="#000000"></path>
        <path d="M17,40 L21,40 C21.553,40 22,39.553 22,39 L22,35 C22,34.447 21.553,34 21,34 L17,34 C16.447,34 16,34.447 16,35 L16,39 C16,39.553 16.447,40 17,40 L17,40 Z M18,36 L20,36 L20,38 L18,38 L18,36 L18,36 Z" id="Shape" fill="#000000"></path>
        <path d="M25,48 L29,48 C29.553,48 30,47.553 30,47 L30,43 C30,42.447 29.553,42 29,42 L25,42 C24.447,42 24,42.447 24,43 L24,47 C24,47.553 24.447,48 25,48 L25,48 Z M26,44 L28,44 L28,46 L26,46 L26,44 L26,44 Z" id="Shape" fill="#000000"></path>
        <path d="M25,40 L29,40 C29.553,40 30,39.553 30,39 L30,35 C30,34.447 29.553,34 29,34 L25,34 C24.447,34 24,34.447 24,35 L24,39 C24,39.553 24.447,40 25,40 L25,40 Z M26,36 L28,36 L28,38 L26,38 L26,36 L26,36 Z" id="Shape" fill="#000000"></path>
        <path d="M33,48 L37,48 C37.553,48 38,47.553 38,47 L38,43 C38,42.447 37.553,42 37,42 L33,42 C32.447,42 32,42.447 32,43 L32,47 C32,47.553 32.447,48 33,48 L33,48 Z M34,44 L36,44 L36,46 L34,46 L34,44 L34,44 Z" id="Shape" fill="#000000"></path>
        <path d="M33,40 L37,40 C37.553,40 38,39.553 38,39 L38,35 C38,34.447 37.553,34 37,34 L33,34 C32.447,34 32,34.447 32,35 L32,39 C32,39.553 32.447,40 33,40 L33,40 Z M34,36 L36,36 L36,38 L34,38 L34,36 L34,36 Z" id="Shape" fill="#000000"></path>
        <path d="M41,48 L45,48 C45.553,48 46,47.553 46,47 L46,43 C46,42.447 45.553,42 45,42 L41,42 C40.447,42 40,42.447 40,43 L40,47 C40,47.553 40.447,48 41,48 L41,48 Z M42,44 L44,44 L44,46 L42,46 L42,44 L42,44 Z" id="Shape" fill="#000000"></path>
        <path d="M41,40 L45,40 C45.553,40 46,39.553 46,39 L46,35 C46,34.447 45.553,34 45,34 L41,34 C40.447,34 40,34.447 40,35 L40,39 C40,39.553 40.447,40 41,40 L41,40 Z M42,36 L44,36 L44,38 L42,38 L42,36 L42,36 Z" id="Shape" fill="#000000"></path>
        <path d="M49,48 L53,48 C53.553,48 54,47.553 54,47 L54,43 C54,42.447 53.553,42 53,42 L49,42 C48.447,42 48,42.447 48,43 L48,47 C48,47.553 48.447,48 49,48 L49,48 Z M50,44 L52,44 L52,46 L50,46 L50,44 L50,44 Z" id="Shape" fill="#000000"></path>
        <path d="M49,56 L53,56 C53.553,56 54,55.553 54,55 L54,51 C54,50.447 53.553,50 53,50 L49,50 C48.447,50 48,50.447 48,51 L48,55 C48,55.553 48.447,56 49,56 L49,56 Z M50,52 L52,52 L52,54 L50,54 L50,52 L50,52 Z" id="Shape" fill="#000000"></path>
        <path d="M49,40 L53,40 C53.553,40 54,39.553 54,39 L54,35 C54,34.447 53.553,34 53,34 L49,34 C48.447,34 48,34.447 48,35 L48,39 C48,39.553 48.447,40 49,40 L49,40 Z M50,36 L52,36 L52,38 L50,38 L50,36 L50,36 Z" id="Shape" fill="#000000"></path>
    </g>
</svg>