<?xml version="1.0" encoding="UTF-8" standalone="no"?>
<svg width="64px" height="64px" viewBox="0 0 64 64" version="1.1" xmlns="http://www.w3.org/2000/svg" xmlns:xlink="http://www.w3.org/1999/xlink">
    <!-- Generator: Sketch 3.7.2 (28276) - http://www.bohemiancoding.com/sketch -->
    <title>com-code</title>
    <desc>Created with Sketch.</desc>
    <defs></defs>
    <g id="64px-Line" stroke="none" stroke-width="1" fill="none" fill-rule="evenodd">
        <g id="com-code"></g>
        <path d="M8,46 L54,46 C56.206,46 58,44.206 58,42 L58,10 C58,7.794 56.206,6 54,6 L8,6 C5.794,6 4,7.794 4,10 L4,42 C4,44.206 5.794,46 8,46 L8,46 Z M54,44 L8,44 C6.897,44 6,43.103 6,42 L6,36 L56,36 L56,42 C56,43.103 55.103,44 54,44 L54,44 Z M8,8 L54,8 C55.103,8 56,8.897 56,10 L56,34 L6,34 L6,10 C6,8.897 6.897,8 8,8 L8,8 Z" id="Shape" fill="#000000"></path>
        <circle id="Oval" fill="#000000" cx="31" cy="40" r="2"></circle>
        <path d="M37.975,52.878 C37.97,52.837 37.98,52.798 37.969,52.757 L36.969,48.757 C36.835,48.222 36.291,47.894 35.757,48.029 C35.221,48.163 34.895,48.706 35.029,49.242 L35.985,53.066 C35.95,53.585 35.528,54 35,54 L27,54 C26.472,54 26.05,53.585 26.014,53.067 L26.97,49.243 C27.105,48.707 26.779,48.164 26.242,48.03 C25.706,47.893 25.164,48.222 25.03,48.758 L24.03,52.758 C24.02,52.799 24.029,52.838 24.024,52.879 C24.019,52.92 24,52.957 24,53 C24,53.044 24.011,53.085 24.013,53.128 C24.015,53.142 24.015,53.155 24.017,53.169 C24.107,54.743 25.403,56 27,56 L35,56 C36.596,56 37.893,54.743 37.983,53.169 C37.985,53.155 37.985,53.142 37.987,53.128 C37.989,53.085 38,53.044 38,53 C38,52.957 37.981,52.92 37.975,52.878 L37.975,52.878 Z" id="Shape" fill="#000000"></path>
        <path d="M24.359,26.768 C24.547,26.924 24.773,27 24.999,27 C25.286,27 25.57,26.877 25.769,26.64 C26.123,26.216 26.065,25.585 25.641,25.232 L20.562,21 L25.64,16.768 C26.064,16.414 26.121,15.784 25.768,15.36 C25.415,14.936 24.785,14.878 24.359,15.232 L18.359,20.232 C18.131,20.422 18,20.703 18,21 C18,21.297 18.132,21.578 18.359,21.768 L24.359,26.768 L24.359,26.768 Z" id="Shape" fill="#000000"></path>
        <path d="M36.231,26.64 C36.429,26.877 36.713,27 37.001,27 C37.227,27 37.453,26.924 37.641,26.768 L43.641,21.768 C43.869,21.578 44,21.297 44,21 C44,20.703 43.868,20.422 43.641,20.232 L37.641,15.232 C37.214,14.878 36.585,14.936 36.232,15.36 C35.879,15.784 35.936,16.415 36.36,16.768 L41.438,21 L36.36,25.232 C35.936,25.585 35.878,26.216 36.231,26.64 L36.231,26.64 Z" id="Shape" fill="#000000"></path>
        <path d="M28.758,29.97 C28.839,29.991 28.921,30 29.001,30 C29.449,30 29.856,29.697 29.97,29.243 L33.97,13.243 C34.105,12.707 33.779,12.164 33.242,12.03 C32.706,11.893 32.164,12.222 32.03,12.758 L28.03,28.758 C27.896,29.293 28.222,29.836 28.758,29.97 L28.758,29.97 Z" id="Shape" fill="#000000"></path>
    </g>
</svg>