<?xml version="1.0" encoding="UTF-8" standalone="no"?>
<svg width="64px" height="64px" viewBox="0 0 64 64" version="1.1" xmlns="http://www.w3.org/2000/svg" xmlns:xlink="http://www.w3.org/1999/xlink">
    <!-- Generator: Sketch 3.7.2 (28276) - http://www.bohemiancoding.com/sketch -->
    <title>com-window-script</title>
    <desc>Created with Sketch.</desc>
    <defs></defs>
    <g id="64px-Line" stroke="none" stroke-width="1" fill="none" fill-rule="evenodd">
        <g id="com-window-script"></g>
        <path d="M8,54 L54,54 C56.206,54 58,52.206 58,50 L58,14 C58,11.794 56.206,10 54,10 L8,10 C5.794,10 4,11.794 4,14 L4,50 C4,52.206 5.794,54 8,54 L8,54 Z M54,52 L8,52 C6.897,52 6,51.103 6,50 L6,22 L56,22 L56,50 C56,51.103 55.103,52 54,52 L54,52 Z M8,12 L54,12 C55.103,12 56,12.897 56,14 L56,20 L6,20 L6,14 C6,12.897 6.897,12 8,12 L8,12 Z" id="Shape" fill="#000000"></path>
        <circle id="Oval" fill="#000000" cx="12" cy="16" r="2"></circle>
        <circle id="Oval" fill="#000000" cx="18" cy="16" r="2"></circle>
        <circle id="Oval" fill="#000000" cx="24" cy="16" r="2"></circle>
        <path d="M11,28 L23,28 C23.552,28 24,27.553 24,27 C24,26.447 23.552,26 23,26 L11,26 C10.448,26 10,26.447 10,27 C10,27.553 10.448,28 11,28 L11,28 Z" id="Shape" fill="#000000"></path>
        <path d="M28,31 C28,30.447 27.552,30 27,30 L11,30 C10.448,30 10,30.447 10,31 C10,31.553 10.448,32 11,32 L27,32 C27.552,32 28,31.553 28,31 L28,31 Z" id="Shape" fill="#000000"></path>
        <path d="M14,35 C14,35.553 14.448,36 15,36 L35,36 C35.552,36 36,35.553 36,35 C36,34.447 35.552,34 35,34 L15,34 C14.448,34 14,34.447 14,35 L14,35 Z" id="Shape" fill="#000000"></path>
        <path d="M39,38 L19,38 C18.448,38 18,38.447 18,39 C18,39.553 18.448,40 19,40 L39,40 C39.552,40 40,39.553 40,39 C40,38.447 39.552,38 39,38 L39,38 Z" id="Shape" fill="#000000"></path>
        <path d="M14,43 C14,43.553 14.448,44 15,44 L27,44 C27.552,44 28,43.553 28,43 C28,42.447 27.552,42 27,42 L15,42 C14.448,42 14,42.447 14,43 L14,43 Z" id="Shape" fill="#000000"></path>
        <path d="M33,46 L13,46 C12.448,46 12,46.447 12,47 C12,47.553 12.448,48 13,48 L33,48 C33.552,48 34,47.553 34,47 C34,46.447 33.552,46 33,46 L33,46 Z" id="Shape" fill="#000000"></path>
    </g>
</svg>