<?xml version="1.0" encoding="UTF-8" standalone="no"?>
<svg width="64px" height="64px" viewBox="0 0 64 64" version="1.1" xmlns="http://www.w3.org/2000/svg" xmlns:xlink="http://www.w3.org/1999/xlink">
    <!-- Generator: Sketch 3.7.2 (28276) - http://www.bohemiancoding.com/sketch -->
    <title>com-apple-cable</title>
    <desc>Created with Sketch.</desc>
    <defs></defs>
    <g id="64px-Line" stroke="none" stroke-width="1" fill="none" fill-rule="evenodd">
        <g id="com-apple-cable"></g>
        <path d="M34.04,12.961 C33.649,12.57 33.017,12.57 32.626,12.961 L29.793,15.794 C29.402,16.185 29.402,16.817 29.793,17.208 C29.988,17.403 30.244,17.501 30.5,17.501 C30.756,17.501 31.012,17.403 31.207,17.208 L34.04,14.375 C34.43,13.984 34.43,13.352 34.04,12.961 L34.04,12.961 Z" id="Shape" fill="#000000"></path>
        <path d="M35.458,15.794 L32.625,18.628 C32.234,19.019 32.234,19.651 32.625,20.042 C32.82,20.237 33.076,20.335 33.332,20.335 C33.588,20.335 33.844,20.237 34.039,20.042 L36.872,17.208 C37.263,16.817 37.263,16.185 36.872,15.794 C36.481,15.403 35.848,15.403 35.458,15.794 L35.458,15.794 Z" id="Shape" fill="#000000"></path>
        <path d="M48.206,27.127 C47.815,26.736 47.182,26.736 46.792,27.127 L43.959,29.961 C43.568,30.352 43.568,30.984 43.959,31.375 C44.154,31.57 44.41,31.668 44.666,31.668 C44.922,31.668 45.178,31.57 45.373,31.375 L48.206,28.541 C48.596,28.15 48.596,27.518 48.206,27.127 L48.206,27.127 Z" id="Shape" fill="#000000"></path>
        <path d="M51.039,31.375 C51.43,30.984 51.43,30.352 51.039,29.961 C50.648,29.57 50.016,29.57 49.625,29.961 L46.792,32.794 C46.401,33.185 46.401,33.817 46.792,34.208 C46.987,34.403 47.243,34.501 47.499,34.501 C47.755,34.501 48.011,34.403 48.206,34.208 L51.039,31.375 L51.039,31.375 Z" id="Shape" fill="#000000"></path>
        <path d="M5,57.167 C5.256,57.167 5.512,57.069 5.707,56.874 L16.333,46.248 L17.752,47.667 L7.126,58.293 C6.735,58.684 6.735,59.316 7.126,59.707 C7.321,59.902 7.577,60 7.833,60 C8.089,60 8.345,59.902 8.54,59.707 L19.166,49.081 L19.876,49.791 C20.064,49.979 20.318,50.084 20.583,50.084 C20.848,50.084 21.103,49.979 21.29,49.791 L29.082,41.998 L39.001,51.917 C39.391,52.306 39.903,52.5 40.415,52.5 C40.928,52.5 41.44,52.306 41.831,51.916 L50.331,43.416 C51.11,42.636 51.11,41.365 50.331,40.585 L50.33,40.584 L53.166,37.749 L53.875,38.458 C54.07,38.653 54.326,38.751 54.582,38.751 C54.838,38.751 55.094,38.653 55.289,38.458 C55.68,38.067 55.68,37.435 55.289,37.044 L54.58,36.335 L57.415,33.501 C58.194,32.721 58.194,31.45 57.415,30.67 L33.332,6.586 C32.551,5.808 31.281,5.807 30.502,6.587 L27.668,9.422 L26.959,8.712 C26.568,8.321 25.936,8.321 25.545,8.712 C25.154,9.103 25.154,9.735 25.545,10.126 L26.254,10.836 L23.418,13.672 L23.417,13.671 C22.66,12.914 21.34,12.915 20.586,13.671 L12.086,22.17 C11.307,22.95 11.307,24.221 12.086,25.001 L22.004,34.919 L14.211,42.711 C13.82,43.102 13.82,43.734 14.211,44.125 L14.921,44.835 L4.295,55.461 C3.904,55.852 3.904,56.484 4.295,56.875 C4.488,57.069 4.744,57.167 5,57.167 L5,57.167 Z M31.917,8 L56,32.086 L52.459,35.627 C52.459,35.627 52.459,35.627 52.458,35.627 C52.457,35.627 52.458,35.627 52.458,35.628 L48.916,39.17 L24.831,15.086 L31.917,8 L31.917,8 Z M21.999,15.083 L21.999,15.083 L22,15.084 L48.916,42.002 L40.414,50.502 L13.498,23.583 L21.999,15.083 L21.999,15.083 Z M23.416,36.332 L27.668,40.584 L20.583,47.67 L16.331,43.417 L23.416,36.332 L23.416,36.332 Z" id="Shape" fill="#000000"></path>
    </g>
</svg>