<?xml version="1.0" encoding="UTF-8" standalone="no"?>
<svg width="64px" height="64px" viewBox="0 0 64 64" version="1.1" xmlns="http://www.w3.org/2000/svg" xmlns:xlink="http://www.w3.org/1999/xlink">
    <!-- Generator: Sketch 3.7.2 (28276) - http://www.bohemiancoding.com/sketch -->
    <title>con-goggles-mask</title>
    <desc>Created with Sketch.</desc>
    <defs></defs>
    <g id="64px-Line" stroke="none" stroke-width="1" fill="none" fill-rule="evenodd">
        <g id="con-goggles-mask"></g>
        <path d="M59,10 L55.899,10 C55.434,7.721 53.415,6 51,6 L13,6 C10.586,6 8.566,7.721 8.101,10 L5,10 C4.447,10 4,10.447 4,11 L4,19 C4,19.553 4.447,20 5,20 L8,20 L8,21 C8,24.859 11.141,28 15,28 L20,28 C26.556,28 29.811,18.719 29.946,18.324 C29.96,18.282 29.971,18.239 29.98,18.196 C30.183,17.182 30.834,16 32,16 C33.481,16 33.919,17.676 34.018,18.188 C34.027,18.234 34.039,18.28 34.054,18.324 C34.19,18.719 37.445,28 44,28 L49,28 C52.859,28 56,24.859 56,21 L56,20 L59,20 C59.553,20 60,19.553 60,19 L60,11 C60,10.447 59.553,10 59,10 L59,10 Z M6,18 L6,12 L8,12 L8,18 L6,18 L6,18 Z M54,21 C54,23.757 51.757,26 49,26 L44,26 C39.099,26 36.236,18.475 35.967,17.733 C35.501,15.463 33.951,14 32,14 C30.064,14 28.515,15.462 28.034,17.73 C27.773,18.453 24.922,26 20,26 L15,26 C12.243,26 10,23.757 10,21 L10,11 C10,9.346 11.346,8 13,8 L51,8 C52.654,8 54,9.346 54,11 L54,21 L54,21 Z M58,18 L56,18 L56,12 L58,12 L58,18 L58,18 Z" id="Shape" fill="#000000"></path>
        <path d="M32,52 C35.309,52 38,49.309 38,46 C38,42.691 35.309,40 32,40 C28.691,40 26,42.691 26,46 C26,49.309 28.691,52 32,52 L32,52 Z M32,42 C34.206,42 36,43.794 36,46 C36,48.206 34.206,50 32,50 C29.794,50 28,48.206 28,46 C28,43.794 29.794,42 32,42 L32,42 Z" id="Shape" fill="#000000"></path>
        <path d="M11.143,52.515 L14.143,57.515 C14.284,57.749 14.514,57.916 14.781,57.976 C14.854,57.993 14.927,58 15.001,58 C15.197,58 15.39,57.942 15.556,57.832 L20.231,54.715 C22.938,56.868 26.9,58 32,58 C37.099,58 41.061,56.868 43.77,54.715 L48.446,57.832 C48.612,57.942 48.804,58 49.001,58 C49.074,58 49.147,57.992 49.221,57.976 C49.488,57.916 49.718,57.749 49.859,57.515 L52.859,52.515 C53.133,52.057 53.001,51.464 52.556,51.168 L47.738,47.957 C47.913,47.031 48.001,46.045 48.001,45 C48.001,43.89 47.911,42.91 47.75,42.035 L52.555,38.832 C52.999,38.536 53.132,37.943 52.858,37.485 L49.858,32.485 C49.717,32.251 49.487,32.084 49.22,32.024 C48.95,31.962 48.673,32.016 48.446,32.168 L43.709,35.327 C43.447,35.095 43.184,34.866 42.921,34.639 C41.786,33.66 40.713,32.735 39.827,31.437 C39.188,30.501 38.649,29.669 38.174,28.937 C36.107,25.753 34.971,24 32,24 C29.029,24 27.893,25.753 25.827,28.937 C25.351,29.669 24.812,30.501 24.174,31.437 C23.288,32.735 22.215,33.66 21.08,34.639 C20.817,34.866 20.554,35.094 20.292,35.327 L15.554,32.168 C15.326,32.017 15.05,31.963 14.78,32.024 C14.513,32.084 14.283,32.251 14.142,32.485 L11.142,37.485 C10.868,37.943 11,38.536 11.445,38.832 L16.25,42.036 C16.09,42.91 16,43.89 16,45 C16,46.044 16.089,47.031 16.263,47.957 L11.445,51.168 C11.001,51.464 10.868,52.057 11.143,52.515 L11.143,52.515 Z M50.652,52.303 L48.681,55.586 L45.236,53.289 C46.063,52.326 46.708,51.221 47.165,49.979 L50.652,52.303 L50.652,52.303 Z M48.682,34.414 L50.653,37.697 L47.184,40.009 C46.675,38.678 45.97,37.641 45.171,36.755 L48.682,34.414 L48.682,34.414 Z M25.826,32.563 C26.474,31.613 27.022,30.769 27.506,30.024 C29.575,26.834 30.191,26 32,26 C33.809,26 34.425,26.834 36.494,30.024 C36.977,30.769 37.525,31.613 38.174,32.563 C39.208,34.078 40.432,35.132 41.614,36.153 C43.968,38.182 46,39.935 46,45 C46,54.092 38.387,56 32,56 C25.613,56 18,54.092 18,45 C18,39.936 20.032,38.183 22.386,36.153 C23.568,35.133 24.792,34.078 25.826,32.563 L25.826,32.563 Z M13.348,37.697 L15.319,34.414 L18.83,36.755 C18.031,37.64 17.326,38.678 16.817,40.009 L13.348,37.697 L13.348,37.697 Z M16.835,49.979 C17.292,51.221 17.937,52.326 18.764,53.289 L15.318,55.586 L13.348,52.303 L16.835,49.979 L16.835,49.979 Z" id="Shape" fill="#000000"></path>
    </g>
</svg>