<?xml version="1.0" encoding="UTF-8" standalone="no"?>
<svg width="64px" height="64px" viewBox="0 0 64 64" version="1.1" xmlns="http://www.w3.org/2000/svg" xmlns:xlink="http://www.w3.org/1999/xlink">
    <!-- Generator: Sketch 3.7.2 (28276) - http://www.bohemiancoding.com/sketch -->
    <title>con-workman</title>
    <desc>Created with Sketch.</desc>
    <defs></defs>
    <g id="64px-Glyph" stroke="none" stroke-width="1" fill="none" fill-rule="evenodd">
        <g id="con-workman" fill="#000000">
            <path d="M29.877,13.999 C28.985,13.999 28.093,13.721 27.251,13.175 C24.644,11.484 24.262,8.452 26.251,5.264 C27.334,3.528 28.696,2.435 30.19,2.104 C31.384,1.84 32.613,2.089 33.749,2.828 C36.355,4.519 36.738,7.549 34.749,10.736 C33.666,12.471 32.305,13.564 30.811,13.896 C30.501,13.965 30.189,13.999 29.877,13.999" id="Fill-126"></path>
            <path d="M10.3271,39.4717 C9.6961,38.8397 8.8061,37.9177 8.0001,36.7557 L8.0001,43.9997 C8.0001,46.4787 6.6651,48.3247 6.6661,48.3247 L6.6661,48.3237 L1.0081,55.4277 C-0.5009,57.0457 -0.0939,58.5027 0.7911,59.3267 C1.2171,59.7247 1.7831,60.0007 2.4221,60.0007 C3.1061,60.0007 3.8741,59.6837 4.6441,58.8587 L12.0421,51.3877 C12.1201,51.3057 13.9701,49.3457 14.2781,46.2637 L14.4901,43.5917 L10.3271,39.4717 Z" id="Fill-127"></path>
            <path d="M61,60 L33,60 C32.447,60 32,59.552 32,59 C32,55.097 34.495,51.678 38.146,50.462 C38.848,46.733 42.111,44 46,44 C48.94,44 51.645,45.627 53.034,48.188 C58.182,49.152 62,53.708 62,59 C62,59.552 61.553,60 61,60" id="Fill-128"></path>
            <path d="M20.2212,31.04 C21.1522,29.727 22.8942,27.416 24.1842,25.717 L24.7622,34.096 L20.2212,31.04 Z M10.9012,24.767 L7.5832,22.533 L9.8482,19.468 C9.8592,19.453 10.9972,18 12.5622,18 L15.9992,18 C14.7892,19.611 12.8292,22.217 10.9012,24.767 L10.9012,24.767 Z M34.5222,43.786 C33.5902,45.151 33.9422,47.022 35.3072,47.955 L36.5262,48.787 C37.5602,45.694 40.0602,43.334 43.1502,42.419 L40.3852,40.523 C39.7232,40.071 38.9282,39.903 38.1372,40.052 C37.3492,40.2 36.6672,40.647 36.2152,41.308 L35.9822,41.649 L29.9872,37.613 C29.9892,37.575 29.9992,37.539 29.9992,37.5 L30.0002,21 C30.0002,17.598 26.0512,14.538 25.5772,14.183 C25.4502,14.094 22.4442,12 19.0002,12 L10.2912,12.001 C10.1862,12.002 7.6982,12.085 6.2352,14.502 L2.3622,21.204 C2.1252,21.594 2.0002,22.043 2.0002,22.5 C2.0002,23.878 3.1212,25 4.5002,25 C5.2282,25 5.9012,24.671 6.3722,24.129 L9.7122,26.378 C6.2562,31.36 8.6862,35.003 11.8792,38.195 C11.8802,38.197 11.8812,38.198 11.8832,38.199 L19.1382,45.377 C19.1442,45.384 19.8732,46.089 20.0052,47.1 L21.0002,57 C21.0002,59.212 22.2912,60 23.5002,60 C24.7092,60 26.0002,59.212 26.0002,57 L26.0002,47 C26.0002,46.258 26.0002,45.138 25.2722,44.04 L19.5242,35.494 C18.8832,34.399 18.6922,33.759 19.1622,32.738 L24.9362,36.624 L25.0032,37.593 C25.1372,39.01 26.1622,40 27.4992,40 C28.1042,40 28.6522,39.775 29.0852,39.416 L34.8542,43.3 L34.5222,43.786 Z" id="Fill-129"></path>
        </g>
    </g>
</svg>