<?xml version="1.0" encoding="UTF-8" standalone="no"?>
<svg width="64px" height="64px" viewBox="0 0 64 64" version="1.1" xmlns="http://www.w3.org/2000/svg" xmlns:xlink="http://www.w3.org/1999/xlink">
    <!-- Generator: Sketch 3.7.2 (28276) - http://www.bohemiancoding.com/sketch -->
    <title>con-cone</title>
    <desc>Created with Sketch.</desc>
    <defs></defs>
    <g id="64px-Line" stroke="none" stroke-width="1" fill="none" fill-rule="evenodd">
        <g id="con-cone"></g>
        <path d="M11,60 L55,60 C55.552,60 56,59.552 56,59 L56,55 C56,53.346 54.654,52 53,52 L47.813,52 L37.979,4.796 C37.882,4.333 37.474,4 37,4 L29,4 C28.526,4 28.118,4.333 28.021,4.796 L18.187,52 L13,52 C11.346,52 10,53.346 10,55 L10,59 C10,59.552 10.448,60 11,60 L11,60 Z M24.813,30 L41.187,30 L43.27,40 L22.73,40 L24.813,30 L24.813,30 Z M27.313,18 L38.687,18 L40.77,28 L25.23,28 L27.313,18 L27.313,18 Z M29.813,6 L36.187,6 L38.27,16 L27.73,16 L29.813,6 L29.813,6 Z M22.313,42 L43.687,42 L45.77,52 L20.23,52 L22.313,42 L22.313,42 Z M12,55 C12,54.449 12.449,54 13,54 L53,54 C53.551,54 54,54.449 54,55 L54,58 L12,58 L12,55 L12,55 Z" id="Shape" fill="#000000"></path>
    </g>
</svg>