<?xml version="1.0" encoding="UTF-8" standalone="no"?>
<svg width="44px" height="44px" viewBox="0 0 44 44" version="1.1" xmlns="http://www.w3.org/2000/svg" xmlns:xlink="http://www.w3.org/1999/xlink">
    <!-- Generator: Sketch 3.7.2 (28276) - http://www.bohemiancoding.com/sketch -->
    <title>con-roller</title>
    <desc>Created with Sketch.</desc>
    <defs></defs>
    <g id="44px-Line" stroke="none" stroke-width="1" fill="none" fill-rule="evenodd">
        <g id="con-roller"></g>
        <path d="M40,6 L40,4 C40,1.794 38.206,0 36,0 L6,0 C3.794,0 2,1.794 2,4 L1,4 C0.448,4 0,4.448 0,5 L0,9 C0,9.552 0.448,10 1,10 L2,10 C2,12.206 3.794,14 6,14 L36,14 C38.206,14 40,12.206 40,10 L40,8 C41.103,8 42,8.897 42,10 L42,14 C42,15.103 41.103,16 40,16 L24,16 C21.794,16 20,17.794 20,20 L20,28 L19,28 C18.448,28 18,28.448 18,29 L18,41 C18,42.654 19.346,44 21,44 C22.654,44 24,42.654 24,41 L24,29 C24,28.448 23.552,28 23,28 L22,28 L22,20 C22,18.897 22.897,18 24,18 L40,18 C42.206,18 44,16.206 44,14 L44,10 C44,7.794 42.206,6 40,6 L40,6 Z M38,10 C38,11.103 37.103,12 36,12 L6,12 C4.897,12 4,11.103 4,10 L4,9 L4,5 L4,4 C4,2.897 4.897,2 6,2 L36,2 C37.103,2 38,2.897 38,4 L38,10 L38,10 Z M22,41 C22,41.551 21.551,42 21,42 C20.449,42 20,41.551 20,41 L20,30 L22,30 L22,41 L22,41 Z" id="Shape" fill="#000000"></path>
    </g>
</svg>