<?xml version="1.0" encoding="UTF-8" standalone="no"?>
<svg width="44px" height="44px" viewBox="0 0 44 44" version="1.1" xmlns="http://www.w3.org/2000/svg" xmlns:xlink="http://www.w3.org/1999/xlink">
    <!-- Generator: Sketch 3.7.2 (28276) - http://www.bohemiancoding.com/sketch -->
    <title>con-spade-fork</title>
    <desc>Created with Sketch.</desc>
    <defs></defs>
    <g id="44px-Line" stroke="none" stroke-width="1" fill="none" fill-rule="evenodd">
        <g id="con-spade-fork"></g>
        <path d="M9,44 L13,44 C15.757,44 18,41.757 18,39 L18,31 C18,30.448 17.553,30 17,30 L15,30 C14.448,30 14,29.551 14,29 L14,11.315 C16.361,10.189 18,7.785 18,5 L18,1 C18,0.448 17.553,0 17,0 L5,0 C4.447,0 4,0.448 4,1 L4,5 C4,7.785 5.639,10.188 8,11.315 L8,29 C8,29.551 7.552,30 7,30 L5,30 C4.447,30 4,30.448 4,31 L4,39 C4,41.757 6.243,44 9,44 L9,44 Z M10,16 L12,16 L12,24 L10,24 L10,16 L10,16 Z M16,2 L16,4 L6,4 L6,2 L16,2 L16,2 Z M6.101,6 L15.899,6 C15.434,8.279 13.415,10 11,10 C8.585,10 6.566,8.279 6.101,6 L6.101,6 Z M11,12 C11.34,12 11.672,11.967 12,11.92 L12,14 L10,14 L10,11.92 C10.328,11.967 10.66,12 11,12 L11,12 Z M6,32 L7,32 C8.654,32 10,30.654 10,29 L10,26 L12,26 L12,29 C12,30.654 13.346,32 15,32 L16,32 L16,39 C16,40.654 14.654,42 13,42 L9,42 C7.346,42 6,40.654 6,39 L6,32 L6,32 Z" id="Shape" fill="#000000"></path>
        <path d="M25,44 C25.553,44 26,43.552 26,43 L26,33 C26,32.449 26.448,32 27,32 C27.552,32 28,32.449 28,33 L28,43 C28,43.552 28.447,44 29,44 C29.553,44 30,43.552 30,43 L30,33 C30,32.449 30.448,32 31,32 C31.552,32 32,32.449 32,33 L32,43 C32,43.552 32.447,44 33,44 C33.553,44 34,43.552 34,43 L34,33 C34,32.449 34.448,32 35,32 C35.552,32 36,32.449 36,33 L36,43 C36,43.552 36.447,44 37,44 C37.553,44 38,43.552 38,43 L38,33 C38,31.346 36.654,30 35,30 C34.448,30 34,29.551 34,29 L34,25.005 C34,25.003 34.001,25.002 34.001,25 C34.001,24.998 34,24.997 34,24.995 L34,15.005 C34,15.003 34.001,15.002 34.001,15 C34.001,14.998 34,14.997 34,14.995 L34,11.315 C36.361,10.189 38,7.785 38,5 L38,1 C38,0.448 37.553,0 37,0 L25,0 C24.447,0 24,0.448 24,1 L24,5 C24,7.785 25.639,10.188 28,11.315 L28,29 C28,29.551 27.552,30 27,30 C25.346,30 24,31.346 24,33 L24,43 C24,43.552 24.447,44 25,44 L25,44 Z M32,24 L30,24 L30,16 L32,16 L32,24 L32,24 Z M31,30 C30.525,30 30.081,30.121 29.681,30.319 C29.879,29.919 30,29.475 30,29 L30,26 L32,26 L32,29 C32,29.475 32.121,29.919 32.319,30.319 C31.919,30.121 31.475,30 31,30 L31,30 Z M36,2 L36,4 L26,4 L26,2 L36,2 L36,2 Z M26.101,6 L35.899,6 C35.434,8.279 33.415,10 31,10 C28.585,10 26.566,8.279 26.101,6 L26.101,6 Z M31,12 C31.34,12 31.672,11.967 32,11.92 L32,14 L30,14 L30,11.92 C30.328,11.967 30.66,12 31,12 L31,12 Z" id="Shape" fill="#000000"></path>
    </g>
</svg>