<?xml version="1.0" encoding="UTF-8" standalone="no"?>
<svg width="64px" height="64px" viewBox="0 0 64 64" version="1.1" xmlns="http://www.w3.org/2000/svg" xmlns:xlink="http://www.w3.org/1999/xlink">
    <!-- Generator: Sketch 3.7.2 (28276) - http://www.bohemiancoding.com/sketch -->
    <title>con-digger</title>
    <desc>Created with Sketch.</desc>
    <defs></defs>
    <g id="64px-Line" stroke="none" stroke-width="1" fill="none" fill-rule="evenodd">
        <g id="con-digger"></g>
        <path d="M26.874,14.515 C26.698,14.197 26.363,14 26,14 L19,14 C18.447,14 18,14.447 18,15 L18,23 C18,23.355 18.188,23.685 18.496,23.864 L30.496,30.864 C30.651,30.954 30.826,31 31,31 C31.172,31 31.344,30.956 31.498,30.867 C31.809,30.688 32,30.358 32,30 L32,24 C32,23.83 31.957,23.663 31.874,23.515 L26.874,14.515 L26.874,14.515 Z M30,28.259 L20,22.426 L20,16 L25.411,16 L30,24.259 L30,28.259 L30,28.259 Z" id="Shape" fill="#000000"></path>
        <path d="M53.242,58.03 C53.17,58.012 46,56.114 46,47 C46,46.447 45.553,46 45,46 C44.447,46 44,46.447 44,47 C44,57.657 52.67,59.948 52.758,59.97 C52.839,59.991 52.921,60 53.001,60 C53.449,60 53.856,59.697 53.97,59.242 C54.104,58.707 53.778,58.164 53.242,58.03 L53.242,58.03 Z" id="Shape" fill="#000000"></path>
        <path d="M10,33 C10,33.553 10.447,34 11,34 L15,34 C15.553,34 16,33.553 16,33 C16,32.447 15.553,32 15,32 L11,32 C10.447,32 10,32.447 10,33 L10,33 Z" id="Shape" fill="#000000"></path>
        <path d="M15,36 L11,36 C10.447,36 10,36.447 10,37 C10,37.553 10.447,38 11,38 L15,38 C15.553,38 16,37.553 16,37 C16,36.447 15.553,36 15,36 L15,36 Z" id="Shape" fill="#000000"></path>
        <path d="M15,40 L11,40 C10.447,40 10,40.447 10,41 C10,41.553 10.447,42 11,42 L15,42 C15.553,42 16,41.553 16,41 C16,40.447 15.553,40 15,40 L15,40 Z" id="Shape" fill="#000000"></path>
        <path d="M56.884,28.493 L49.906,8.033 C49.828,7.631 49.686,7.249 49.513,6.881 L49.498,6.836 C49.474,6.766 49.428,6.713 49.391,6.652 C49.162,6.224 48.889,5.817 48.536,5.465 C47.592,4.521 46.336,4 45,4 C43.664,4 42.408,4.521 41.465,5.465 L31.89,15.04 C31.596,14.456 31.356,13.959 31.212,13.624 C30.254,11.387 29.048,10 26,10 L18,10 C15.794,10 14,11.794 14,14 L14,26 L10,26 C7.794,26 6,27.794 6,30 L6,44 C6,46.206 7.794,48 10,48 L39,48 C39.553,48 40,47.553 40,47 L40,41 C40,40.645 39.812,40.315 39.504,40.136 L36,38.092 L36,25.071 L44.559,16.512 L51.846,30.933 L42.391,38.206 C42.025,38.487 41.899,38.982 42.086,39.404 C42.273,39.826 42.721,40.066 43.177,39.983 L44.865,39.679 C46.51,41.185 49.254,41.985 51.94,41.985 C54.128,41.985 56.279,41.455 57.766,40.342 C59.033,39.395 59.792,38.013 59.963,36.346 C60.206,33.971 59.19,31.109 57.379,29.064 L56.884,28.493 L56.884,28.493 Z M42.879,6.879 C44.012,5.746 45.988,5.746 47.121,6.879 C47.344,7.102 47.515,7.359 47.655,7.632 L47.951,8.499 C47.979,8.663 48,8.83 48,9 C48,9.802 47.688,10.555 47.121,11.121 L35.823,22.42 C35.531,21.888 34.079,19.238 32.853,16.905 L42.879,6.879 L42.879,6.879 Z M38,46 L10,46 C8.897,46 8,45.103 8,44 L8,30 C8,28.897 8.897,28 10,28 L14.729,28 L38,41.574 L38,46 L38,46 Z M16,26.425 L16,14 C16,12.897 16.897,12 18,12 L26,12 C27.987,12 28.611,12.632 29.374,14.412 C30.148,16.218 33.319,22.016 34,23.257 L34,36.925 L16,26.425 L16,26.425 Z M46.047,15.023 L48.535,12.535 C48.746,12.324 48.928,12.093 49.095,11.854 L54.822,28.644 L53.46,29.692 L46.047,15.023 L46.047,15.023 Z M57.974,36.144 C57.86,37.256 57.387,38.13 56.569,38.743 C53.906,40.734 48.09,40.304 45.98,37.971 L55.862,30.369 L55.875,30.384 C57.316,32.012 58.159,34.327 57.974,36.144 L57.974,36.144 Z" id="Shape" fill="#000000"></path>
        <path d="M39,50 L9,50 C6.243,50 4,52.243 4,55 C4,57.757 6.243,60 9,60 L39,60 C41.757,60 44,57.757 44,55 C44,52.243 41.757,50 39,50 L39,50 Z M16,55 C16,53.346 17.346,52 19,52 C20.654,52 22,53.346 22,55 C22,56.654 20.654,58 19,58 C17.346,58 16,56.654 16,55 L16,55 Z M15.026,58 L12.975,58 C13.61,57.162 14.001,56.13 14.001,55 C14.001,53.87 13.61,52.838 12.975,52 L15.026,52 C14.391,52.838 14,53.87 14,55 C14,56.13 14.391,57.162 15.026,58 L15.026,58 Z M22.974,52 L25.025,52 C24.39,52.838 23.999,53.87 23.999,55 C23.999,56.13 24.39,57.162 25.025,58 L22.974,58 C23.609,57.162 24,56.13 24,55 C24,53.87 23.609,52.838 22.974,52 L22.974,52 Z M26,55 C26,53.346 27.346,52 29,52 C30.654,52 32,53.346 32,55 C32,56.654 30.654,58 29,58 C27.346,58 26,56.654 26,55 L26,55 Z M32.974,52 L35.025,52 C34.39,52.838 33.999,53.87 33.999,55 C33.999,56.13 34.39,57.162 35.025,58 L32.974,58 C33.609,57.162 34,56.13 34,55 C34,53.87 33.609,52.838 32.974,52 L32.974,52 Z M6,55 C6,53.346 7.346,52 9,52 C10.654,52 12,53.346 12,55 C12,56.654 10.654,58 9,58 C7.346,58 6,56.654 6,55 L6,55 Z M39,58 C37.346,58 36,56.654 36,55 C36,53.346 37.346,52 39,52 C40.654,52 42,53.346 42,55 C42,56.654 40.654,58 39,58 L39,58 Z" id="Shape" fill="#000000"></path>
    </g>
</svg>