<?xml version="1.0" encoding="UTF-8" standalone="no"?>
<svg width="64px" height="64px" viewBox="0 0 64 64" version="1.1" xmlns="http://www.w3.org/2000/svg" xmlns:xlink="http://www.w3.org/1999/xlink">
    <!-- Generator: Sketch 3.7.2 (28276) - http://www.bohemiancoding.com/sketch -->
    <title>con-helmet-goggles</title>
    <desc>Created with Sketch.</desc>
    <defs></defs>
    <g id="64px-Line" stroke="none" stroke-width="1" fill="none" fill-rule="evenodd">
        <g id="con-helmet-goggles"></g>
        <path d="M56,33 C56,32.734 55.895,32.48 55.707,32.293 L53.996,30.582 C53.836,21.44 48.396,13.411 40,9.845 L40,9.5 C40,7.57 38.43,6 36.5,6 L32,6 L32,5 C32,4.447 31.553,4 31,4 C30.447,4 30,4.447 30,5 L30,6 L25.5,6 C23.57,6 22,7.57 22,9.5 L22,9.845 C13.604,13.411 8.164,21.44 8.004,30.582 L6.293,32.293 C6.105,32.48 6,32.734 6,33 L6,37 C6,37.45 6.301,37.845 6.734,37.964 C7.035,38.047 14.307,40 31,40 C47.693,40 54.965,38.047 55.266,37.964 C55.699,37.845 56,37.45 56,37 L56,33 L56,33 Z M54,36.207 C51.78,36.686 44.457,38 31,38 C17.543,38 10.22,36.686 8,36.207 L8,33.414 L9.707,31.707 C9.895,31.52 10,31.266 10,31 C10,22.781 14.664,15.489 22,12.024 L22,17 C22,17.553 22.447,18 23,18 C23.553,18 24,17.553 24,17 L24,10.528 C24,10.528 24,10.528 24,10.527 L24,9.5 C24,8.673 24.673,8 25.5,8 L30,8 L30,19 C30,19.553 30.447,20 31,20 C31.553,20 32,19.553 32,19 L32,8 L36.5,8 C37.327,8 38,8.673 38,9.5 L38,10.527 C38,10.527 38,10.527 38,10.528 L38,17 C38,17.553 38.447,18 39,18 C39.553,18 40,17.553 40,17 L40,12.024 C47.336,15.489 52,22.782 52,31 C52,31.266 52.105,31.52 52.293,31.707 L54,33.414 L54,36.207 L54,36.207 Z" id="Shape" fill="#000000"></path>
        <path d="M47,30 L15,30 C14.447,30 14,30.447 14,31 C14,31.553 14.447,32 15,32 L47,32 C47.553,32 48,31.553 48,31 C48,30.447 47.553,30 47,30 L47,30 Z" id="Shape" fill="#000000"></path>
        <path d="M55,46 L51.899,46 C51.434,43.721 49.415,42 47,42 L15,42 C12.586,42 10.566,43.721 10.101,46 L7,46 C6.447,46 6,46.447 6,47 L6,53 C6,53.553 6.447,54 7,54 L10.08,54 C10.568,57.386 13.481,60 17,60 L22,60 C27.371,60 29.576,54.2 29.991,51.134 C29.997,51.09 30,51.045 30,51 C30,50.448 30.448,50 31,50 C31.552,50 32,50.448 32,51 C32,51.045 32.003,51.09 32.009,51.134 C32.424,54.2 34.629,60 40,60 L45,60 C48.519,60 51.432,57.386 51.92,54 L55,54 C55.553,54 56,53.553 56,53 L56,47 C56,46.447 55.553,46 55,46 L55,46 Z M8,48 L10,48 L10,52 L8,52 L8,48 L8,48 Z M45,58 L40,58 C35.262,58 34.104,51.568 33.999,50.917 C33.955,49.301 32.626,48 31,48 C29.373,48 28.045,49.302 28.001,50.918 C27.898,51.57 26.757,58 22,58 L17,58 C14.243,58 12,55.757 12,53 L12,47 C12,45.346 13.346,44 15,44 L47,44 C48.654,44 50,45.346 50,47 L50,53 C50,55.757 47.757,58 45,58 L45,58 Z M54,52 L52,52 L52,48 L54,48 L54,52 L54,52 Z" id="Shape" fill="#000000"></path>
    </g>
</svg>