<?xml version="1.0" encoding="UTF-8" standalone="no"?>
<svg width="44px" height="44px" viewBox="0 0 44 44" version="1.1" xmlns="http://www.w3.org/2000/svg" xmlns:xlink="http://www.w3.org/1999/xlink">
    <!-- Generator: Sketch 3.7.2 (28276) - http://www.bohemiancoding.com/sketch -->
    <title>con-screws</title>
    <desc>Created with Sketch.</desc>
    <defs></defs>
    <g id="44px-Line" stroke="none" stroke-width="1" fill="none" fill-rule="evenodd">
        <g id="con-screws"></g>
        <path d="M1,2 L2,2 L2,37 C2,37.107 2.018,37.214 2.052,37.316 L4.052,43.316 C4.188,43.725 4.569,44 5,44 C5.431,44 5.812,43.725 5.948,43.316 L7.948,37.316 C7.982,37.214 8,37.107 8,37 L8,2 L9,2 C9.553,2 10,1.552 10,1 C10,0.448 9.553,0 9,0 L1,0 C0.447,0 0,0.448 0,1 C0,1.552 0.447,2 1,2 L1,2 Z M6,36.838 L5,39.838 L4,36.838 L4,2 L6,2 L6,36.838 L6,36.838 Z" id="Shape" fill="#000000"></path>
        <path d="M18,5.414 L18,19.382 L16.553,20.106 C16.059,20.353 15.859,20.954 16.106,21.448 C16.282,21.799 16.634,22.001 17.002,22.001 C17.152,22.001 17.305,21.967 17.448,21.896 L18,21.618 L18,23.382 L16.553,24.106 C16.059,24.353 15.859,24.954 16.106,25.448 C16.282,25.799 16.634,26.001 17.002,26.001 C17.152,26.001 17.305,25.967 17.448,25.896 L18,25.618 L18,27.382 L16.553,28.106 C16.059,28.353 15.859,28.954 16.106,29.448 C16.282,29.799 16.634,30.001 17.002,30.001 C17.152,30.001 17.305,29.967 17.448,29.896 L18,29.618 L18,31.382 L16.553,32.106 C16.059,32.353 15.859,32.954 16.106,33.448 C16.282,33.799 16.634,34.001 17.002,34.001 C17.152,34.001 17.305,33.967 17.448,33.896 L18,33.618 L18,37 C18,37.107 18.018,37.214 18.052,37.316 L20.052,43.316 C20.188,43.725 20.569,44 21,44 C21.431,44 21.812,43.725 21.948,43.316 L23.948,37.316 C23.982,37.214 24,37.107 24,37 L24,34.618 L25.447,33.894 C25.941,33.647 26.141,33.046 25.894,32.552 C25.646,32.057 25.046,31.857 24.552,32.105 L24,32.382 L24,30.618 L25.447,29.894 C25.941,29.647 26.141,29.046 25.894,28.552 C25.646,28.058 25.046,27.858 24.552,28.105 L24,28.382 L24,26.618 L25.447,25.894 C25.941,25.647 26.141,25.046 25.894,24.552 C25.646,24.058 25.046,23.859 24.552,24.105 L24,24.382 L24,22.618 L25.447,21.894 C25.941,21.647 26.141,21.046 25.894,20.552 C25.646,20.058 25.046,19.857 24.552,20.105 L24,20.382 L24,5.414 L27.707,1.707 C27.993,1.421 28.079,0.991 27.924,0.617 C27.77,0.244 27.404,0 27,0 L15,0 C14.596,0 14.23,0.244 14.076,0.617 C13.921,0.991 14.007,1.421 14.293,1.707 L18,5.414 L18,5.414 Z M20,6.002 L22,6.002 L22,17.382 L20,18.382 L20,6.002 L20,6.002 Z M22,36.838 L21,39.838 L20,36.838 L20,36.618 L22,35.618 L22,36.838 L22,36.838 Z M22,33.382 L20,34.382 L20,32.618 L22,31.618 L22,33.382 L22,33.382 Z M22,29.382 L20,30.382 L20,28.618 L22,27.618 L22,29.382 L22,29.382 Z M22,25.382 L20,26.382 L20,24.618 L22,23.618 L22,25.382 L22,25.382 Z M20,22.382 L20,20.618 L22,19.618 L22,21.382 L20,22.382 L20,22.382 Z M24.586,2 L22.584,4.002 L19.416,4.002 L17.414,2 L24.586,2 L24.586,2 Z" id="Shape" fill="#000000"></path>
        <path d="M37,0 C33.141,0 30,3.14 30,7 C30,7.552 30.447,8 31,8 L34,8 L34,19.382 L32.553,20.106 C32.059,20.353 31.859,20.954 32.106,21.448 C32.282,21.799 32.634,22.001 33.002,22.001 C33.152,22.001 33.305,21.967 33.448,21.896 L34,21.618 L34,23.382 L32.553,24.106 C32.059,24.353 31.859,24.954 32.106,25.448 C32.282,25.799 32.634,26.001 33.002,26.001 C33.152,26.001 33.305,25.967 33.448,25.896 L34,25.618 L34,27.382 L32.553,28.106 C32.059,28.353 31.859,28.954 32.106,29.448 C32.282,29.799 32.634,30.001 33.002,30.001 C33.152,30.001 33.305,29.967 33.448,29.896 L34,29.618 L34,31.382 L32.553,32.106 C32.059,32.353 31.859,32.954 32.106,33.448 C32.282,33.799 32.634,34.001 33.002,34.001 C33.152,34.001 33.305,33.967 33.448,33.896 L34,33.618 L34,37 C34,37.107 34.018,37.214 34.052,37.316 L36.052,43.316 C36.188,43.725 36.569,44 37,44 C37.431,44 37.812,43.725 37.948,43.316 L39.948,37.316 C39.982,37.214 40,37.107 40,37 L40,34.618 L41.447,33.894 C41.941,33.647 42.141,33.046 41.894,32.552 C41.647,32.057 41.046,31.857 40.552,32.105 L40,32.382 L40,30.618 L41.447,29.894 C41.941,29.647 42.141,29.046 41.894,28.552 C41.647,28.058 41.046,27.858 40.552,28.105 L40,28.382 L40,26.618 L41.447,25.894 C41.941,25.647 42.141,25.046 41.894,24.552 C41.647,24.058 41.046,23.859 40.552,24.105 L40,24.382 L40,22.618 L41.447,21.894 C41.941,21.647 42.141,21.046 41.894,20.552 C41.647,20.058 41.046,19.857 40.552,20.105 L40,20.382 L40,8 L43,8 C43.553,8 44,7.552 44,7 C44,3.14 40.859,0 37,0 L37,0 Z M32.101,6 C32.566,3.721 34.585,2 37,2 C39.415,2 41.434,3.721 41.899,6 L39,6 L35,6 L32.101,6 L32.101,6 Z M36,8 L38,8 L38,17.382 L36,18.382 L36,8 L36,8 Z M38,36.838 L37,39.838 L36,36.838 L36,36.618 L38,35.618 L38,36.838 L38,36.838 Z M38,33.382 L36,34.382 L36,32.618 L38,31.618 L38,33.382 L38,33.382 Z M38,29.382 L36,30.382 L36,28.618 L38,27.618 L38,29.382 L38,29.382 Z M38,25.382 L36,26.382 L36,24.618 L38,23.618 L38,25.382 L38,25.382 Z M36,22.382 L36,20.618 L38,19.618 L38,21.382 L36,22.382 L36,22.382 Z" id="Shape" fill="#000000"></path>
    </g>
</svg>