<?xml version="1.0" encoding="UTF-8" standalone="no"?>
<svg width="64px" height="64px" viewBox="0 0 64 64" version="1.1" xmlns="http://www.w3.org/2000/svg" xmlns:xlink="http://www.w3.org/1999/xlink">
    <!-- Generator: Sketch 3.7.2 (28276) - http://www.bohemiancoding.com/sketch -->
    <title>con-drill-bits</title>
    <desc>Created with Sketch.</desc>
    <defs></defs>
    <g id="64px-Line" stroke="none" stroke-width="1" fill="none" fill-rule="evenodd">
        <g id="con-drill-bits"></g>
        <path d="M8,53 C8,53.016 8.003,53.034 8.003,53.05 C8.003,53.059 8.004,53.068 8.005,53.077 C8.062,56.332 11.79,61.089 12.219,61.625 C12.409,61.862 12.697,62 13,62 C13.303,62 13.591,61.862 13.781,61.625 C14.213,61.085 18,56.257 18,53 L18,5 C18,3.346 16.654,2 15,2 L11,2 C9.346,2 8,3.346 8,5 L8,53 L8,53 Z M10,41.618 L16,38.618 L16,42.382 L10,45.382 L10,41.618 L10,41.618 Z M16,36.382 L10,39.382 L10,35.618 L16,32.618 L16,36.382 L16,36.382 Z M10,47.618 L16,44.618 L16,48.382 L10,51.382 L10,47.618 L10,47.618 Z M16,30.382 L10,33.382 L10,29.618 L16,26.618 L16,30.382 L16,30.382 Z M13,59.334 C11.891,57.78 10.372,55.335 10.065,53.585 L16,50.618 L16,53 C16,54.743 14.237,57.597 13,59.334 L13,59.334 Z M11,4 L15,4 C15.552,4 16,4.448 16,5 L16,24.382 L10,27.382 L10,5 C10,4.448 10.448,4 11,4 L11,4 Z" id="Shape" fill="#000000"></path>
        <path d="M29,2 C27.346,2 26,3.346 26,5 L26,57 C26,57.54 26.43,57.983 26.97,58 C27.569,58.018 28.032,58.032 28.399,58.032 L30.106,61.447 C30.276,61.786 30.622,62 31.001,62 C31.38,62 31.726,61.786 31.896,61.447 L33.62,58 L35,58 C35.553,58 36,57.553 36,57 L36,5 C36,3.346 34.654,2 33,2 L29,2 L29,2 Z M28,41.618 L34,38.618 L34,42.382 L28,45.382 L28,41.618 L28,41.618 Z M34,36.382 L28,39.382 L28,35.618 L34,32.618 L34,36.382 L34,36.382 Z M28,47.618 L34,44.618 L34,48.382 L28,51.382 L28,47.618 L28,47.618 Z M34,30.382 L28,33.382 L28,29.618 L34,26.618 L34,30.382 L34,30.382 Z M33,56 C32.621,56 32.275,56.214 32.105,56.553 L31,58.764 L29.895,56.553 C29.847,56.458 29.785,56.37 29.707,56.293 C29.458,56.044 29.101,55.953 28.776,56.025 C28.628,56.03 28.338,56.027 28,56.023 L28,53.618 L34,50.618 L34,56 L33,56 L33,56 Z M34,5 L34,24.382 L28,27.382 L28,5 C28,4.448 28.448,4 29,4 L33,4 C33.552,4 34,4.448 34,5 L34,5 Z" id="Shape" fill="#000000"></path>
        <path d="M51,2 L47,2 C45.346,2 44,3.346 44,5 L44,54 L43,54 C42.447,54 42,54.447 42,55 L42,59 C42,59.431 42.275,59.812 42.684,59.948 L48.684,61.948 C48.787,61.982 48.894,62 49,62 C49.106,62 49.214,61.982 49.316,61.948 L55.316,59.948 C55.724,59.812 56,59.43 56,59 L56,55 C56,54.447 55.553,54 55,54 L54,54 L54,5 C54,3.346 52.654,2 51,2 L51,2 Z M52,36.382 L46,39.382 L46,35.618 L52,32.618 L52,36.382 L52,36.382 Z M46,41.618 L52,38.618 L52,42.382 L46,45.382 L46,41.618 L46,41.618 Z M52,30.382 L46,33.382 L46,29.618 L52,26.618 L52,30.382 L52,30.382 Z M46,47.618 L52,44.618 L52,48.382 L46,51.382 L46,47.618 L46,47.618 Z M47,4 L51,4 C51.552,4 52,4.448 52,5 L52,24.382 L46,27.382 L46,5 C46,4.448 46.448,4 47,4 L47,4 Z M54,58.279 L49,59.946 L44,58.279 L44,56 L45,56 C45.553,56 46,55.553 46,55 L46,53.618 L52,50.618 L52,55 C52,55.553 52.447,56 53,56 L54,56 L54,58.279 L54,58.279 Z" id="Shape" fill="#000000"></path>
    </g>
</svg>