<?xml version="1.0" encoding="UTF-8" standalone="no"?>
<svg width="64px" height="64px" viewBox="0 0 64 64" version="1.1" xmlns="http://www.w3.org/2000/svg" xmlns:xlink="http://www.w3.org/1999/xlink">
    <!-- Generator: Sketch 3.7.2 (28276) - http://www.bohemiancoding.com/sketch -->
    <title>con-barrier</title>
    <desc>Created with Sketch.</desc>
    <defs></defs>
    <g id="64px-Line" stroke="none" stroke-width="1" fill="none" fill-rule="evenodd">
        <g id="con-barrier"></g>
        <path d="M7,28 L11.78,28 L6.019,56.804 C5.96,57.098 6.036,57.403 6.226,57.634 C6.417,57.866 6.7,58 7,58 L13,58 C13.477,58 13.887,57.664 13.98,57.196 L16.62,44 L47.38,44 L50.019,57.196 C50.113,57.664 50.523,58 51,58 L57,58 C57.3,58 57.583,57.866 57.773,57.634 C57.963,57.403 58.039,57.098 57.98,56.804 L52.22,28 L57,28 C58.654,28 60,26.654 60,24.999 L60,19 C60,17.346 58.654,16 57,16 L49,16 L15,16 L7,16 C5.346,16 4,17.346 4,19 L4,24.999 C4,26.654 5.346,28 7,28 L7,28 Z M24.586,18 L16.586,26 L9.414,26 L17.414,18 L24.586,18 L24.586,18 Z M34.586,18 L26.586,26 L19.414,26 L27.414,18 L34.586,18 L34.586,18 Z M44.586,18 L36.586,26 L29.414,26 L37.414,18 L44.586,18 L44.586,18 Z M44.18,28 L46.18,38 L17.82,38 L19.82,28 L44.18,28 L44.18,28 Z M12.18,56 L8.22,56 L13.82,28 L17.781,28 L12.18,56 L12.18,56 Z M17.02,42 L17.42,40 L46.581,40 L46.981,42 L17.02,42 L17.02,42 Z M55.78,56 L51.82,56 L46.22,28 L50.181,28 L55.78,56 L55.78,56 Z M58,24.999 C58,25.551 57.551,26 57,26 L49.414,26 L57.344,18.07 C57.725,18.211 58,18.571 58,19 L58,24.999 L58,24.999 Z M54.586,18 L46.586,26 L39.414,26 L47.414,18 L54.586,18 L54.586,18 Z M6,19 C6,18.449 6.449,18 7,18 L14.586,18 L6.656,25.93 C6.275,25.788 6,25.429 6,24.999 L6,19 L6,19 Z" id="Shape" fill="#000000"></path>
        <path d="M20,11 C20,8.243 17.757,6 15,6 C12.243,6 10,8.243 10,11 C10,13.757 12.243,16 15,16 C17.757,16 20,13.757 20,11 L20,11 Z M15,14 C13.346,14 12,12.654 12,11 C12,9.346 13.346,8 15,8 C16.654,8 18,9.346 18,11 C18,12.654 16.654,14 15,14 L15,14 Z" id="Shape" fill="#000000"></path>
        <path d="M54,11 C54,8.243 51.757,6 49,6 C46.243,6 44,8.243 44,11 C44,13.757 46.243,16 49,16 C51.757,16 54,13.757 54,11 L54,11 Z M49,14 C47.346,14 46,12.654 46,11 C46,9.346 47.346,8 49,8 C50.654,8 52,9.346 52,11 C52,12.654 50.654,14 49,14 L49,14 Z" id="Shape" fill="#000000"></path>
    </g>
</svg>