<?xml version="1.0" encoding="UTF-8" standalone="no"?>
<svg width="44px" height="44px" viewBox="0 0 44 44" version="1.1" xmlns="http://www.w3.org/2000/svg" xmlns:xlink="http://www.w3.org/1999/xlink">
    <!-- Generator: Sketch 3.7.2 (28276) - http://www.bohemiancoding.com/sketch -->
    <title>con-screwdrivers</title>
    <desc>Created with Sketch.</desc>
    <defs></defs>
    <g id="44px-Line" stroke="none" stroke-width="1" fill="none" fill-rule="evenodd">
        <g id="con-screwdrivers"></g>
        <path d="M7,0 C3.122,0 2,1.121 2,5 L2.002,11 C2.002,11.334 2.169,11.646 2.446,11.831 C3.405,12.472 4,13.686 4,15 C4,16.314 3.404,17.528 2.446,18.168 C2.168,18.354 2.001,18.666 2.001,18.999 L2,20.999 C2,21.265 2.105,21.52 2.292,21.707 C2.48,21.895 2.735,22 3,22 L6,22 L6,43 C6,43.553 6.448,44 7,44 C7.552,44 8,43.553 8,43 L8,22 L11,22 C11.265,22 11.52,21.895 11.708,21.707 C11.896,21.519 12,21.265 12,20.999 L11.999,18.999 C11.999,18.666 11.832,18.353 11.554,18.168 C10.596,17.528 10,16.314 10,15 C10,13.686 10.596,12.472 11.555,11.832 C11.833,11.646 12,11.334 12,11 L12,5 C12,1.121 10.878,0 7,0 L7,0 Z M9.998,10.503 C8.754,11.556 8,13.229 8,15 C8,16.772 8.754,18.445 9.999,19.497 L10,20 L4,20 L4,19.497 C5.246,18.445 6,16.772 6,15 C6,13.228 5.245,11.555 4,10.503 L4,5 C4,2.252 4.252,2 7,2 C9.748,2 10,2.252 10,5 L9.998,10.503 L9.998,10.503 Z" id="Shape" fill="#000000"></path>
        <path d="M21,0 C17.122,0 16,1.121 16,5 L16.002,11 C16.002,11.334 16.169,11.646 16.446,11.831 C17.405,12.472 18,13.686 18,15 C18,16.314 17.404,17.528 16.446,18.168 C16.168,18.354 16.001,18.666 16.001,18.999 L16,20.999 C16,21.265 16.105,21.52 16.292,21.707 C16.48,21.895 16.735,22 17,22 L20,22 L20,39 C20,39.553 20.448,40 21,40 C21.552,40 22,39.553 22,39 L22,22 L25,22 C25.265,22 25.52,21.895 25.708,21.707 C25.896,21.519 26,21.265 26,20.999 L25.999,18.999 C25.999,18.666 25.832,18.353 25.554,18.168 C24.596,17.528 24,16.314 24,15 C24,13.686 24.596,12.472 25.555,11.832 C25.833,11.646 26,11.334 26,11 L26,5 C26,1.121 24.878,0 21,0 L21,0 Z M23.998,10.503 C22.754,11.556 22,13.229 22,15 C22,16.772 22.754,18.445 23.999,19.497 L24,20 L18,20 L18,19.497 C19.246,18.445 20,16.772 20,15 C20,13.228 19.245,11.555 18,10.503 L18,5 C18,2.252 18.252,2 21,2 C23.748,2 24,2.252 24,5 L23.998,10.503 L23.998,10.503 Z" id="Shape" fill="#000000"></path>
        <path d="M35,0 C31.122,0 30,1.121 30,5 L30.002,11 C30.002,11.334 30.169,11.646 30.446,11.831 C31.405,12.472 32,13.686 32,15 C32,16.314 31.404,17.528 30.446,18.168 C30.168,18.354 30.001,18.666 30.001,18.999 L30,20.999 C30,21.265 30.105,21.52 30.292,21.707 C30.48,21.895 30.735,22 31,22 L34,22 L34,35 C34,35.553 34.448,36 35,36 C35.552,36 36,35.553 36,35 L36,22 L39,22 C39.265,22 39.52,21.895 39.708,21.707 C39.896,21.519 40,21.265 40,20.999 L39.999,18.999 C39.999,18.666 39.832,18.353 39.554,18.168 C38.596,17.528 38,16.314 38,15 C38,13.686 38.596,12.472 39.555,11.832 C39.833,11.646 40,11.334 40,11 L40,5 C40,1.121 38.878,0 35,0 L35,0 Z M37.998,10.503 C36.754,11.556 36,13.229 36,15 C36,16.772 36.754,18.445 37.999,19.497 L38,20 L32,20 L32,19.497 C33.246,18.445 34,16.772 34,15 C34,13.228 33.245,11.555 32,10.503 L32,5 C32,2.252 32.252,2 35,2 C37.748,2 38,2.252 38,5 L37.998,10.503 L37.998,10.503 Z" id="Shape" fill="#000000"></path>
    </g>
</svg>