<?xml version="1.0" encoding="UTF-8" standalone="no"?>
<svg width="64px" height="64px" viewBox="0 0 64 64" version="1.1" xmlns="http://www.w3.org/2000/svg" xmlns:xlink="http://www.w3.org/1999/xlink">
    <!-- Generator: Sketch 3.7.2 (28276) - http://www.bohemiancoding.com/sketch -->
    <title>con-truck</title>
    <desc>Created with Sketch.</desc>
    <defs></defs>
    <g id="64px-Glyph" stroke="none" stroke-width="1" fill="none" fill-rule="evenodd">
        <g id="con-truck" fill="#000000">
            <polygon id="Fill-17" points="50.7812 22 49.2812 28 56.7182 28 55.2182 22"></polygon>
            <path d="M58.7881,29.6152 C58.5981,29.8582 58.3071,30.0002 58.0001,30.0002 L48.0001,30.0002 C47.6921,30.0002 47.4011,29.8582 47.2121,29.6152 C47.0221,29.3722 46.9551,29.0562 47.0301,28.7572 L49.0301,20.7572 C49.1421,20.3122 49.5411,20.0002 50.0001,20.0002 L56.0001,20.0002 C56.4591,20.0002 56.8581,20.3122 56.9701,20.7572 L58.9701,28.7572 C59.0451,29.0562 58.9771,29.3722 58.7881,29.6152 M63.9621,30.7252 L59.9621,16.7252 C59.8391,16.2962 59.4461,16.0002 59.0001,16.0002 L47.0001,16.0002 C46.5541,16.0002 46.1611,16.2962 46.0381,16.7252 L42.0381,30.7252 C42.0131,30.8142 42.0001,30.9072 42.0001,31.0002 L42.0001,43.0002 C42.0001,36.9342 46.9341,32.0002 53.0001,32.0002 C59.0651,32.0002 64.0001,36.9342 64.0001,43.0002 L64.0001,31.0002 C64.0001,30.9072 63.9871,30.8142 63.9621,30.7252" id="Fill-19"></path>
            <path d="M53,46 C51.346,46 50,44.654 50,43 C50,41.346 51.346,40 53,40 C54.654,40 56,41.346 56,43 C56,44.654 54.654,46 53,46 M53,34 C48.037,34 44,38.038 44,43 C44,47.962 48.037,52 53,52 C57.963,52 62,47.962 62,43 C62,38.038 57.963,34 53,34" id="Fill-21"></path>
            <path d="M9,46 C7.346,46 6,44.654 6,43 C6,41.346 7.346,40 9,40 C10.654,40 12,41.346 12,43 C12,44.654 10.654,46 9,46 M9,34 C4.037,34 0,38.038 0,43 C0,47.962 4.037,52 9,52 C13.963,52 18,47.962 18,43 C18,38.038 13.963,34 9,34" id="Fill-23"></path>
            <path d="M33.9619,21.2749 L29.9619,35.2749 C29.8359,35.7139 29.4359,36.0009 29.0009,36.0009 C28.9089,36.0009 28.8179,35.9879 28.7259,35.9609 C28.1939,35.8099 27.8869,35.2559 28.0379,34.7249 L32.0379,20.7249 C32.1909,20.1939 32.7469,19.8879 33.2749,20.0389 C33.8059,20.1899 34.1129,20.7439 33.9619,21.2749 M25.9599,21.2799 L23.0429,31.2799 C22.9159,31.7169 22.5169,32.0009 22.0829,32.0009 C21.9899,32.0009 21.8969,31.9869 21.8029,31.9599 C21.2729,31.8049 20.9689,31.2499 21.1229,30.7199 L24.0399,20.7199 C24.1939,20.1909 24.7429,19.8819 25.2799,20.0399 C25.8109,20.1949 26.1139,20.7499 25.9599,21.2799 M17.9549,21.2959 L15.7879,28.2959 C15.6549,28.7249 15.2599,29.0009 14.8329,29.0009 C14.7349,29.0009 14.6359,28.9859 14.5369,28.9549 C14.0099,28.7919 13.7149,28.2319 13.8779,27.7039 L16.0449,20.7039 C16.2079,20.1769 16.7659,19.8789 17.2959,20.0449 C17.8229,20.2079 18.1179,20.7679 17.9549,21.2959 M9.9459,21.3219 L8.7549,24.8219 C8.6129,25.2379 8.2249,25.5009 7.8089,25.5009 C7.7019,25.5009 7.5929,25.4829 7.4859,25.4469 C6.9639,25.2689 6.6839,24.7009 6.8619,24.1779 L8.0539,20.6779 C8.2319,20.1549 8.8019,19.8769 9.3219,20.0529 C9.8449,20.2309 10.1249,20.7989 9.9459,21.3219 M54.9999,11.9999 L43.9999,11.9999 C43.5589,11.9999 43.1689,12.2899 43.0419,12.7129 L42.0559,15.9999 L0.9999,15.9999 C0.4469,15.9999 -0.0001,16.4479 -0.0001,16.9999 L-0.0001,26.9999 C-0.0001,27.3869 0.2239,27.7399 0.5739,27.9049 L34.5739,43.9049 C34.7089,43.9679 34.8549,43.9999 34.9999,43.9999 C35.1389,43.9999 35.2769,43.9709 35.4069,43.9129 C35.6729,43.7949 35.8739,43.5659 35.9579,43.2869 L44.7439,13.9999 L54.9999,13.9999 C55.5529,13.9999 55.9999,13.5519 55.9999,12.9999 C55.9999,12.4479 55.5529,11.9999 54.9999,11.9999" id="Fill-25"></path>
        </g>
    </g>
</svg>