<?xml version="1.0" encoding="UTF-8" standalone="no"?>
<svg width="44px" height="44px" viewBox="0 0 44 44" version="1.1" xmlns="http://www.w3.org/2000/svg" xmlns:xlink="http://www.w3.org/1999/xlink">
    <!-- Generator: Sketch 3.7.2 (28276) - http://www.bohemiancoding.com/sketch -->
    <title>con-sand-shovel</title>
    <desc>Created with Sketch.</desc>
    <defs></defs>
    <g id="44px-Line" stroke="none" stroke-width="1" fill="none" fill-rule="evenodd">
        <g id="con-sand-shovel"></g>
        <path d="M14,28 L11,28 C10.448,28 10,28.447 10,29 L10,34 L9,34 C8.448,34 8,34.447 8,35 C8,35.553 8.448,36 9,36 L25,36 C25.552,36 26,35.553 26,35 C26,34.447 25.552,34 25,34 L24,34 L24,29 C24,28.447 23.552,28 23,28 L20,28 L20,10.487 C21.277,9.033 22,6.799 22,5 L22,1 C22,0.447 21.552,0 21,0 L13,0 C12.448,0 12,0.447 12,1 L12,5 C12,6.799 12.723,9.033 14,10.487 L14,28 L14,28 Z M18,24 L16,24 L16,16 L18,16 L18,24 L18,24 Z M17,10 C15.646,10 14.422,7.966 14.091,6 L19.909,6 C19.578,7.966 18.354,10 17,10 L17,10 Z M17,12 C17.35,12 17.682,11.941 18,11.845 L18,14 L16,14 L16,11.845 C16.318,11.941 16.65,12 17,12 L17,12 Z M22,30 L22,34 L12,34 L12,30 L15,30 C15.552,30 16,29.553 16,29 L16,26 L18,26 L18,29 C18,29.553 18.448,30 19,30 L22,30 L22,30 Z M20,2 L20,4 L14,4 L14,2 L20,2 L20,2 Z" id="Shape" fill="#000000"></path>
        <path d="M23,16 C22.448,16 22,16.447 22,17 C22,17.553 22.448,18 23,18 C26.546,18 36.401,29.551 41.961,37.054 C41.359,39.206 33.876,42 22,42 C10.105,42 2.617,39.197 2.037,37.043 C2.986,35.713 6.971,30.259 11.693,25.721 C12.091,25.338 12.104,24.705 11.721,24.307 C11.338,23.909 10.704,23.896 10.307,24.28 C4.77,29.6 0.362,35.942 0.178,36.209 C0.062,36.377 0,36.575 0,36.778 C0,41.52 11.067,44.001 22,44.001 C32.933,44.001 44,41.521 44,36.778 C44,36.565 43.932,36.357 43.805,36.185 C42.285,34.118 28.783,16 23,16 L23,16 Z" id="Shape" fill="#000000"></path>
    </g>
</svg>