<?xml version="1.0" encoding="UTF-8" standalone="no"?>
<svg width="44px" height="44px" viewBox="0 0 44 44" version="1.1" xmlns="http://www.w3.org/2000/svg" xmlns:xlink="http://www.w3.org/1999/xlink">
    <!-- Generator: Sketch 3.7.2 (28276) - http://www.bohemiancoding.com/sketch -->
    <title>con-helmet</title>
    <desc>Created with Sketch.</desc>
    <defs></defs>
    <g id="44px-Line" stroke="none" stroke-width="1" fill="none" fill-rule="evenodd">
        <g id="con-helmet"></g>
        <path d="M36.094,30.504 C35.917,30.591 35.758,30.679 35.602,30.766 C34.501,31.373 33.362,32 22,32 C10.638,32 9.499,31.373 8.398,30.766 C8.242,30.679 8.083,30.592 7.906,30.504 C7.412,30.259 6.81,30.461 6.566,30.956 C6.32,31.451 6.522,32.051 7.017,32.296 C7.166,32.37 7.3,32.444 7.433,32.517 C8.877,33.313 10.123,34 22,34 C33.877,34 35.123,33.313 36.566,32.518 C36.699,32.445 36.833,32.371 36.982,32.297 C37.477,32.051 37.679,31.452 37.433,30.957 C37.189,30.461 36.588,30.259 36.094,30.504 L36.094,30.504 Z" id="Shape" fill="#000000"></path>
        <path d="M42,28.179 L42,25 C42,15.856 38.182,8.41 32,5.349 L32,5 C32,3.346 30.654,2 29,2 L25.444,2 C24.75,0.81 23.475,0 22,0 C20.525,0 19.25,0.81 18.556,2 L15,2 C13.346,2 12,3.346 12,5 L12,5.348 C5.819,8.41 2,15.856 2,25 L2,28.179 C0.929,28.547 0,29.461 0,30.6 C0,30.834 0.082,31.06 0.232,31.241 C0.723,31.83 2,33.727 2,35.399 C2,37.83 3.112,39.563 5.402,40.698 C5.551,40.772 5.714,40.86 5.898,40.959 C7.731,41.945 11.547,44 22,44 C32.453,44 36.269,41.945 38.102,40.958 C38.286,40.859 38.449,40.771 38.599,40.697 C40.888,39.562 42,37.829 42,35.399 C42,33.399 43.751,31.261 43.77,31.239 C43.918,31.06 44,30.833 44,30.6 C44,29.46 43.071,28.547 42,28.179 L42,28.179 Z M40,35.398 C40,37.082 39.337,38.098 37.711,38.904 C37.544,38.987 37.359,39.086 37.153,39.197 C35.464,40.107 31.949,42 22,42 C12.051,42 8.536,40.107 6.847,39.197 C6.641,39.086 6.456,38.987 6.29,38.905 C4.663,38.099 4,37.083 4,35.399 C4,33.299 2.735,31.278 2.108,30.406 C2.284,30.216 2.648,30 3,30 C3.553,30 4,29.552 4,29 L4,25 C4,17.088 7.031,10.608 12,7.623 L12,13 C12,13.552 12.447,14 13,14 C13.553,14 14,13.552 14,13 L14,5 C14,4.449 14.448,4 15,4 L18,4 L18,15 C18,15.552 18.447,16 19,16 C19.553,16 20,15.552 20,15 L20,4 C20,2.897 20.897,2 22,2 C23.103,2 24,2.897 24,4 L24,15 C24,15.552 24.447,16 25,16 C25.553,16 26,15.552 26,15 L26,4 L29,4 C29.552,4 30,4.449 30,5 L30,13 C30,13.552 30.447,14 31,14 C31.553,14 32,13.552 32,13 L32,7.624 C36.968,10.608 40,17.089 40,25 L40,29 C40,29.552 40.447,30 41,30 C41.352,30 41.716,30.216 41.892,30.405 C41.265,31.278 40,33.299 40,35.398 L40,35.398 Z" id="Shape" fill="#000000"></path>
    </g>
</svg>