<?xml version="1.0" encoding="UTF-8" standalone="no"?>
<svg width="44px" height="44px" viewBox="0 0 44 44" version="1.1" xmlns="http://www.w3.org/2000/svg" xmlns:xlink="http://www.w3.org/1999/xlink">
    <!-- Generator: Sketch 3.7.2 (28276) - http://www.bohemiancoding.com/sketch -->
    <title>con-jack-hammer</title>
    <desc>Created with Sketch.</desc>
    <defs></defs>
    <g id="44px-Line" stroke="none" stroke-width="1" fill="none" fill-rule="evenodd">
        <g id="con-jack-hammer"></g>
        <path d="M39,4 C38.448,4 38,4.447 38,5 L38,6 L32,6 L32,3.173 C32,1.424 30.43,0 28.5,0 L13.5,0 C11.57,0 10,1.424 10,3.173 L10,6 L4,6 L4,5 C4,4.447 3.552,4 3,4 C2.448,4 2,4.447 2,5 L2,13 C2,13.553 2.448,14 3,14 C3.552,14 4,13.553 4,13 L4,12 L10,12 L10,13 C10,14.851 11.149,16 13,16 L14,16 L14,19 C14,19.994 14.893,21.239 16,21.754 L16,31 C16,31.553 16.448,32 17,32 L18,32 L18,43 C18,43.553 18.448,44 19,44 L23,44 C23.552,44 24,43.553 24,43 L24,32 L25,32 C25.552,32 26,31.553 26,31 L26,21.754 C27.107,21.239 28,19.994 28,19 L28,16 L29,16 C30.851,16 32,14.851 32,13 L32,12 L38,12 L38,13 C38,13.553 38.448,14 39,14 C39.552,14 40,13.553 40,13 L40,5 C40,4.447 39.552,4 39,4 L39,4 Z M4,10 L4,8 L10,8 L10,10 L4,10 L4,10 Z M22,42 L20,42 L20,32 L22,32 L22,42 L22,42 Z M18,30 L18,22 L24,22 L24,30 L18,30 L18,30 Z M30,13 C30,13.738 29.738,14 29,14 L27,14 C26.448,14 26,14.447 26,15 L26,18.996 C25.978,19.307 25.335,20 25,20 L17,20 C16.664,20 16.022,19.307 16,19 L16,15 C16,14.447 15.552,14 15,14 L13,14 C12.262,14 12,13.738 12,13 L12,3.173 C12,2.537 12.687,2 13.5,2 L28.5,2 C29.313,2 30,2.537 30,3.173 L30,13 L30,13 Z M32,10 L32,8 L38,8 L38,10 L32,10 L32,10 Z" id="Shape" fill="#000000"></path>
        <path d="M21,4 C20.448,4 20,4.447 20,5 L20,11 C20,11.553 20.448,12 21,12 C21.552,12 22,11.553 22,11 L22,5 C22,4.447 21.552,4 21,4 L21,4 Z" id="Shape" fill="#000000"></path>
        <path d="M25,4 C24.448,4 24,4.447 24,5 L24,11 C24,11.553 24.448,12 25,12 C25.552,12 26,11.553 26,11 L26,5 C26,4.447 25.552,4 25,4 L25,4 Z" id="Shape" fill="#000000"></path>
        <path d="M17,4 C16.448,4 16,4.447 16,5 L16,11 C16,11.553 16.448,12 17,12 C17.552,12 18,11.553 18,11 L18,5 C18,4.447 17.552,4 17,4 L17,4 Z" id="Shape" fill="#000000"></path>
        <path d="M32.293,30.293 L28.293,34.293 C27.902,34.684 27.902,35.316 28.293,35.707 L29.586,37 L26.293,40.293 C25.902,40.684 25.902,41.316 26.293,41.707 C26.488,41.902 26.744,42 27,42 C27.256,42 27.512,41.902 27.707,41.707 L31.707,37.707 C32.098,37.316 32.098,36.684 31.707,36.293 L30.414,35 L33.707,31.707 C34.098,31.316 34.098,30.684 33.707,30.293 C33.316,29.902 32.684,29.902 32.293,30.293 L32.293,30.293 Z" id="Shape" fill="#000000"></path>
        <path d="M12.414,37 L13.707,35.707 C14.098,35.316 14.098,34.684 13.707,34.293 L9.707,30.293 C9.316,29.902 8.684,29.902 8.293,30.293 C7.902,30.684 7.902,31.316 8.293,31.707 L11.586,35 L10.293,36.293 C9.902,36.684 9.902,37.316 10.293,37.707 L14.293,41.707 C14.488,41.902 14.744,42 15,42 C15.256,42 15.512,41.902 15.707,41.707 C16.098,41.316 16.098,40.684 15.707,40.293 L12.414,37 L12.414,37 Z" id="Shape" fill="#000000"></path>
    </g>
</svg>