<?xml version="1.0" encoding="UTF-8" standalone="no"?>
<svg width="44px" height="44px" viewBox="0 0 44 44" version="1.1" xmlns="http://www.w3.org/2000/svg" xmlns:xlink="http://www.w3.org/1999/xlink">
    <!-- Generator: Sketch 3.7.2 (28276) - http://www.bohemiancoding.com/sketch -->
    <title>con-square</title>
    <desc>Created with Sketch.</desc>
    <defs></defs>
    <g id="44px-Line" stroke="none" stroke-width="1" fill="none" fill-rule="evenodd">
        <g id="con-square"></g>
        <path d="M43,30 L16,30 L16,1 C16,0.448 15.553,0 15,0 L1,0 C0.447,0 0,0.448 0,1 L0,31 L0,43 C0,43.552 0.447,44 1,44 L43,44 C43.553,44 44,43.552 44,43 L44,31 C44,30.448 43.553,30 43,30 L43,30 Z M2,2 L14,2 L14,30 L2,30 L2,26 L9,26 C9.553,26 10,25.552 10,25 C10,24.448 9.553,24 9,24 L2,24 L2,20 L6,20 C6.553,20 7,19.552 7,19 C7,18.448 6.553,18 6,18 L2,18 L2,14 L9,14 C9.553,14 10,13.552 10,13 C10,12.448 9.553,12 9,12 L2,12 L2,8 L6,8 C6.553,8 7,7.552 7,7 C7,6.448 6.553,6 6,6 L2,6 L2,2 L2,2 Z M42,42 L2,42 L2,32 L42,32 L42,42 L42,42 Z" id="Shape" fill="#000000"></path>
        <path d="M35,40 C36.654,40 38,38.654 38,37 C38,35.346 36.654,34 35,34 C33.346,34 32,35.346 32,37 C32,38.654 33.346,40 35,40 L35,40 Z M35,36 C35.552,36 36,36.449 36,37 C36,37.551 35.552,38 35,38 C34.448,38 34,37.551 34,37 C34,36.449 34.448,36 35,36 L35,36 Z" id="Shape" fill="#000000"></path>
    </g>
</svg>