<?xml version="1.0" encoding="UTF-8" standalone="no"?>
<svg width="64px" height="64px" viewBox="0 0 64 64" version="1.1" xmlns="http://www.w3.org/2000/svg" xmlns:xlink="http://www.w3.org/1999/xlink">
    <!-- Generator: Sketch 3.7.2 (28276) - http://www.bohemiancoding.com/sketch -->
    <title>con-circular-saw</title>
    <desc>Created with Sketch.</desc>
    <defs></defs>
    <g id="64px-Line" stroke="none" stroke-width="1" fill="none" fill-rule="evenodd">
        <g id="con-circular-saw"></g>
        <path d="M32,12 C20.972,12 12,20.972 12,32 C12,43.028 20.972,52 32,52 C43.028,52 52,43.028 52,32 C52,20.972 43.028,12 32,12 L32,12 Z M32,50 C22.075,50 14,41.925 14,32 C14,22.075 22.075,14 32,14 C41.925,14 50,22.075 50,32 C50,41.925 41.925,50 32,50 L32,50 Z" id="Shape" fill="#000000"></path>
        <path d="M59.447,24.105 C59.107,23.936 58.702,23.971 58.4,24.2 L55.633,26.277 C55.336,26.468 54.917,26.587 54.81,26.539 C54.792,26.525 54.728,26.439 54.676,26.229 C54.496,25.5 54.863,24.32 54.998,23.982 L56.803,19.758 C56.927,19.469 56.907,19.138 56.75,18.865 L52.749,11.935 C52.56,11.608 52.209,11.416 51.823,11.437 C51.445,11.459 51.112,11.694 50.964,12.042 L49.607,15.226 C49.444,15.54 49.14,15.852 49.025,15.865 C49.003,15.862 48.904,15.819 48.754,15.664 C48.233,15.121 47.961,13.917 47.909,13.558 L47.36,8.997 C47.322,8.685 47.14,8.407 46.867,8.25 L39.938,4.25 C39.609,4.062 39.202,4.073 38.887,4.281 C38.571,4.49 38.4,4.859 38.445,5.235 L38.862,8.676 C38.88,8.985 38.779,9.44 38.676,9.514 C38.655,9.525 38.55,9.535 38.342,9.476 C37.62,9.266 36.781,8.358 36.556,8.073 L33.8,4.4 C33.612,4.148 33.315,4 33,4 L25,4 C24.621,4 24.275,4.214 24.105,4.553 C23.935,4.892 23.972,5.297 24.199,5.6 L26.281,8.373 C26.451,8.63 26.591,9.074 26.539,9.189 C26.525,9.208 26.439,9.272 26.23,9.323 C25.499,9.504 24.319,9.136 23.982,9.002 L19.758,7.197 C19.468,7.074 19.138,7.094 18.865,7.251 L11.937,11.251 C11.609,11.44 11.416,11.799 11.439,12.177 C11.461,12.556 11.696,12.888 12.044,13.037 L15.232,14.396 C15.508,14.534 15.852,14.849 15.865,14.975 C15.863,14.997 15.82,15.096 15.663,15.246 C15.122,15.766 13.915,16.038 13.556,16.09 L8.995,16.639 C8.683,16.677 8.406,16.86 8.248,17.132 L4.22,24.114 C4.055,24.443 4.085,24.836 4.297,25.137 C4.509,25.437 4.868,25.599 5.235,25.554 L8.676,25.137 C8.984,25.122 9.439,25.221 9.514,25.323 C9.523,25.344 9.535,25.45 9.475,25.658 C9.266,26.38 8.358,27.219 8.073,27.443 L4.4,30.2 C4.149,30.388 4,30.685 4,31 L4,39 C4,39.379 4.214,39.725 4.553,39.895 C4.892,40.063 5.297,40.028 5.6,39.8 L8.372,37.719 C8.63,37.549 9.077,37.413 9.189,37.46 C9.208,37.474 9.272,37.561 9.323,37.771 C9.503,38.5 9.136,39.681 9.002,40.018 L7.197,44.242 C7.073,44.531 7.093,44.862 7.25,45.135 L11.25,52.063 C11.439,52.39 11.786,52.583 12.176,52.561 C12.554,52.539 12.887,52.304 13.035,51.956 L14.392,48.773 C14.555,48.46 14.859,48.147 14.974,48.134 C14.997,48.137 15.095,48.18 15.245,48.336 C15.765,48.878 16.037,50.084 16.09,50.442 L16.639,55.003 C16.677,55.315 16.859,55.593 17.132,55.75 L24.061,59.75 C24.389,59.938 24.795,59.926 25.112,59.719 C25.428,59.51 25.599,59.141 25.554,58.765 L25.137,55.324 C25.119,55.015 25.22,54.56 25.323,54.486 C25.344,54.477 25.45,54.465 25.658,54.525 C26.38,54.734 27.219,55.641 27.443,55.926 L30.199,59.601 C30.387,59.853 30.684,60.001 30.999,60.001 L39,60.001 C39.379,60.001 39.725,59.787 39.895,59.448 C40.065,59.109 40.028,58.704 39.8,58.401 L37.721,55.633 C37.531,55.335 37.413,54.915 37.459,54.81 C37.473,54.791 37.559,54.728 37.769,54.676 C38.499,54.497 39.679,54.864 40.016,54.998 L44.24,56.803 C44.53,56.926 44.861,56.907 45.133,56.749 L52.062,52.749 C52.231,52.651 52.37,52.503 52.458,52.328 C52.581,52.081 52.597,51.795 52.502,51.536 C52.407,51.277 52.21,51.069 51.956,50.961 L48.772,49.605 C48.458,49.443 48.147,49.138 48.134,49.024 C48.136,49.001 48.179,48.903 48.335,48.753 C48.877,48.232 50.082,47.96 50.441,47.908 L55.002,47.359 C55.314,47.321 55.591,47.138 55.749,46.866 L59.749,39.938 C59.938,39.61 59.926,39.203 59.717,38.887 C59.509,38.572 59.14,38.399 58.763,38.445 L55.322,38.862 C55.016,38.875 54.559,38.778 54.484,38.676 C54.475,38.655 54.463,38.549 54.523,38.341 C54.732,37.618 55.64,36.78 55.925,36.556 L59.6,33.8 C59.851,33.612 60,33.315 60,33 L60,25 C60,24.621 59.786,24.275 59.447,24.105 L59.447,24.105 Z M58,32.5 L54.711,34.967 C54.54,35.1 53.029,36.309 52.602,37.783 C52.296,38.838 52.606,39.528 52.919,39.922 C53.706,40.906 55.156,40.869 55.5,40.853 L57.016,40.67 L54.266,45.433 L50.184,45.924 C49.969,45.953 48.057,46.245 46.949,47.31 C46.157,48.071 46.08,48.823 46.156,49.32 C46.344,50.568 47.616,51.263 47.925,51.417 L49.331,52.017 L44.566,54.768 L40.786,53.153 C40.585,53.072 38.783,52.369 37.292,52.735 C36.226,52.997 35.783,53.61 35.599,54.078 C35.138,55.253 35.891,56.493 36.082,56.779 L37,58 L31.5,58 L29.033,54.711 C28.9,54.54 27.691,53.029 26.216,52.603 C25.162,52.295 24.471,52.606 24.078,52.92 C23.092,53.707 23.125,55.157 23.147,55.5 L23.329,57.017 L18.566,54.267 L18.074,50.184 C18.044,49.97 17.751,48.056 16.689,46.951 C15.929,46.158 15.176,46.076 14.678,46.157 C13.43,46.345 12.735,47.618 12.582,47.927 L11.982,49.331 L9.232,44.567 L10.847,40.787 C10.929,40.586 11.631,38.783 11.264,37.294 C11.002,36.227 10.389,35.784 9.92,35.601 C8.744,35.14 7.506,35.894 7.22,36.085 L6,37 L6,31.5 L9.29,29.033 C9.461,28.899 10.971,27.689 11.398,26.217 C11.704,25.162 11.394,24.472 11.081,24.078 C10.294,23.093 8.845,23.129 8.5,23.147 L6.983,23.33 L9.733,18.565 L13.816,18.074 C14.031,18.044 15.944,17.751 17.05,16.69 C17.843,15.928 17.92,15.175 17.844,14.678 C17.655,13.43 16.383,12.734 16.074,12.581 L14.671,11.982 L19.433,9.232 L23.215,10.847 C23.416,10.928 25.22,11.632 26.708,11.264 C27.775,11.001 28.218,10.388 28.401,9.919 C28.861,8.744 28.107,7.506 27.917,7.221 L27,6 L32.5,6 L34.967,9.288 C35.1,9.459 36.31,10.971 37.784,11.397 C38.837,11.702 39.529,11.393 39.922,11.08 C40.908,10.293 40.875,8.843 40.853,8.5 L40.67,6.983 L45.434,9.733 L45.925,13.815 C45.955,14.029 46.247,15.941 47.31,17.049 C48.07,17.841 48.821,17.915 49.32,17.843 C50.567,17.654 51.263,16.382 51.416,16.073 L52.017,14.668 L54.767,19.433 L53.152,23.213 C53.071,23.413 52.367,25.217 52.735,26.706 C52.997,27.772 53.61,28.216 54.079,28.399 C55.255,28.857 56.493,28.105 56.779,27.915 L58,27 L58,32.5 L58,32.5 Z" id="Shape" fill="#000000"></path>
        <path d="M32,26 C28.691,26 26,28.691 26,32 C26,35.309 28.691,38 32,38 C35.309,38 38,35.309 38,32 C38,28.691 35.309,26 32,26 L32,26 Z M32,36 C29.794,36 28,34.206 28,32 C28,29.794 29.794,28 32,28 C34.206,28 36,29.794 36,32 C36,34.206 34.206,36 32,36 L32,36 Z" id="Shape" fill="#000000"></path>
    </g>
</svg>