<?xml version="1.0" encoding="UTF-8" standalone="no"?>
<svg width="44px" height="44px" viewBox="0 0 44 44" version="1.1" xmlns="http://www.w3.org/2000/svg" xmlns:xlink="http://www.w3.org/1999/xlink">
    <!-- Generator: Sketch 3.7.2 (28276) - http://www.bohemiancoding.com/sketch -->
    <title>con-swiss-army-knife</title>
    <desc>Created with Sketch.</desc>
    <defs></defs>
    <g id="44px-Line" stroke="none" stroke-width="1" fill="none" fill-rule="evenodd">
        <g id="con-swiss-army-knife"></g>
        <path d="M0,35.44 C0,37.726 0.891,39.876 2.507,41.492 C4.123,43.109 6.274,44 8.56,44 C10.593,44 12.516,43.292 14.054,42 L43,42 C43.553,42 44,41.552 44,41 L44,35 C44,34.938 43.975,34.883 43.965,34.824 C43.955,34.766 43.959,34.709 43.938,34.652 C43.935,34.645 43.929,34.641 43.927,34.634 C43.898,34.56 43.849,34.499 43.804,34.435 C43.774,34.392 43.753,34.342 43.717,34.305 C43.67,34.257 43.61,34.226 43.554,34.188 C43.504,34.154 43.46,34.112 43.405,34.087 C43.353,34.064 43.295,34.061 43.239,34.047 C43.167,34.029 43.098,34.005 43.024,34.004 C43.016,34.004 43.009,33.999 43.001,33.999 C42.938,33.999 42.883,34.024 42.823,34.035 C42.766,34.045 42.709,34.041 42.654,34.062 L41.026,34.666 L39.567,33.726 C39.301,33.557 38.971,33.519 38.677,33.629 L37.049,34.233 L35.59,33.293 C35.325,33.123 34.995,33.087 34.7,33.196 L33.072,33.8 L31.613,32.86 C31.348,32.69 31.017,32.654 30.723,32.763 L29.095,33.367 L27.636,32.427 C27.37,32.256 27.04,32.22 26.746,32.33 L25.119,32.934 L23.936,32.172 L41.493,14.615 C44.83,11.279 44.83,5.848 41.493,2.51 C38.335,-0.648 33.307,-0.813 29.948,2.003 L13.445,2.003 C5.39,2.003 0.551,6.07 0.35,6.244 C0.128,6.431 0,6.708 0,7 C0,7.292 0.128,7.569 0.35,7.759 C0.551,7.932 5.39,12 13.445,12 L19.894,12 L2.507,29.387 C0.89,31.004 0,33.154 0,35.44 L0,35.44 Z M23.006,33.949 L24.456,34.884 C24.722,35.055 25.053,35.091 25.346,34.981 L26.973,34.377 L28.432,35.317 C28.698,35.488 29.029,35.525 29.322,35.414 L30.95,34.81 L32.409,35.75 C32.675,35.921 33.006,35.957 33.299,35.847 L34.927,35.243 L36.386,36.183 C36.652,36.353 36.982,36.39 37.276,36.28 L38.904,35.676 L40.363,36.616 C40.527,36.721 40.716,36.775 40.905,36.775 C41.022,36.775 41.14,36.754 41.253,36.713 L42,36.437 L42,40 L16.105,40 L21.61,34.495 L23.006,33.949 L23.006,33.949 Z M13.444,10 C8.241,10 4.472,8.099 2.731,7 C4.473,5.901 8.241,4 13.444,4 L27.893,4 L21.893,10 L13.444,10 L13.444,10 Z M30.801,3.921 C32.08,2.642 33.76,2.003 35.441,2.003 C37.121,2.003 38.8,2.642 40.08,3.921 C42.637,6.48 42.637,10.641 40.08,13.198 L20.355,32.923 L20.354,32.924 L13.2,40.078 C11.96,41.317 10.312,42 8.56,42 C6.808,42 5.161,41.317 3.921,40.078 C2.682,38.839 2,37.192 2,35.44 C2,33.688 2.682,32.04 3.921,30.8 L30.801,3.921 L30.801,3.921 Z" id="Shape" fill="#000000"></path>
        <path d="M35.001,12 C36.654,12 38,10.655 38,9.002 C38,7.347 36.654,6 35.001,6 C33.347,6 32,7.347 32,9.002 C32,10.655 33.347,12 35.001,12 L35.001,12 Z M35.001,8 C35.552,8 36,8.45 36,9.002 C36,9.552 35.552,10 35.001,10 C34.449,10 34,9.552 34,9.002 C34,8.45 34.449,8 35.001,8 L35.001,8 Z" id="Shape" fill="#000000"></path>
        <path d="M7.854,36.146 C8.049,36.341 8.305,36.439 8.561,36.439 C8.817,36.439 9.073,36.341 9.268,36.146 L11.081,34.333 L12.894,36.146 C13.089,36.341 13.345,36.439 13.601,36.439 C13.857,36.439 14.113,36.341 14.308,36.146 C14.699,35.755 14.699,35.123 14.308,34.732 L12.495,32.919 L14.308,31.106 C14.699,30.715 14.699,30.083 14.308,29.692 C13.917,29.301 13.285,29.301 12.894,29.692 L11.081,31.505 L9.268,29.692 C8.877,29.301 8.245,29.301 7.854,29.692 C7.463,30.083 7.463,30.715 7.854,31.106 L9.667,32.919 L7.854,34.732 C7.463,35.123 7.463,35.756 7.854,36.146 L7.854,36.146 Z" id="Shape" fill="#000000"></path>
    </g>
</svg>