<?xml version="1.0" encoding="UTF-8" standalone="no"?>
<svg width="64px" height="64px" viewBox="0 0 64 64" version="1.1" xmlns="http://www.w3.org/2000/svg" xmlns:xlink="http://www.w3.org/1999/xlink">
    <!-- Generator: Sketch 3.7.2 (28276) - http://www.bohemiancoding.com/sketch -->
    <title>con-brush</title>
    <desc>Created with Sketch.</desc>
    <defs></defs>
    <g id="64px-Line" stroke="none" stroke-width="1" fill="none" fill-rule="evenodd">
        <g id="con-brush"></g>
        <path d="M53.074,4 C51.223,4 49.484,4.721 48.177,6.03 C46.501,7.705 44.854,10.258 43.11,12.96 C41.126,16.034 38.877,19.518 36.301,22.093 C35.188,23.208 33.244,23.208 32.129,22.093 L27.24,17.205 C26.115,16.08 24.155,16.08 23.032,17.205 L17.444,22.795 L4.872,35.365 C4.31,35.927 4,36.675 4,37.469 C4,38.263 4.311,39.011 4.872,39.573 L24.428,59.13 C24.99,59.692 25.738,60.002 26.533,60.002 C27.328,60.002 28.075,59.692 28.637,59.13 L41.209,46.559 L46.795,40.971 C47.357,40.409 47.668,39.662 47.668,38.867 C47.668,38.072 47.358,37.324 46.796,36.762 L41.907,31.873 C41.349,31.315 41.043,30.575 41.043,29.787 C41.043,28.999 41.35,28.259 41.907,27.702 C44.482,25.125 47.969,22.876 51.045,20.89 C53.746,19.147 56.298,17.501 57.972,15.827 C59.281,14.518 60,12.779 60,10.929 C60,9.078 59.28,7.34 57.972,6.033 C56.664,4.721 54.924,4 53.074,4 L53.074,4 Z M27.222,57.714 C26.854,58.084 26.211,58.082 25.843,57.714 L22.772,54.643 L29.708,47.707 C30.099,47.316 30.099,46.684 29.708,46.293 C29.317,45.902 28.685,45.902 28.294,46.293 L21.359,53.229 L18.773,50.643 L21.708,47.708 C22.099,47.317 22.099,46.685 21.708,46.294 C21.317,45.903 20.685,45.903 20.294,46.294 L17.359,49.229 L13.273,45.143 L20.708,37.708 C21.099,37.317 21.099,36.685 20.708,36.294 C20.317,35.903 19.685,35.903 19.294,36.294 L11.859,43.729 L9.773,41.643 L13.708,37.708 C14.099,37.317 14.099,36.685 13.708,36.294 C13.317,35.903 12.685,35.903 12.294,36.294 L8.359,40.229 L6.287,38.157 C6.102,37.973 6.001,37.729 6.001,37.469 C6.001,37.209 6.103,36.963 6.287,36.779 L18.152,24.916 L39.089,45.852 L27.222,57.714 L27.222,57.714 Z M56.558,14.41 C55.035,15.933 52.57,17.524 49.961,19.207 C46.801,21.246 43.219,23.557 40.493,26.284 C39.558,27.218 39.043,28.461 39.043,29.784 C39.043,31.106 39.558,32.349 40.493,33.284 L45.381,38.173 C45.566,38.358 45.668,38.603 45.668,38.864 C45.668,39.124 45.566,39.368 45.382,39.552 L40.502,44.434 L19.565,23.5 L24.446,18.617 C24.815,18.248 25.456,18.248 25.825,18.617 L30.715,23.506 C31.65,24.442 32.894,24.957 34.216,24.957 C35.538,24.957 36.781,24.442 37.716,23.506 C40.442,20.781 42.751,17.202 44.79,14.044 C46.475,11.434 48.066,8.968 49.591,7.443 C50.522,6.512 51.758,5.999 53.074,5.999 C54.389,5.999 55.627,6.512 56.557,7.443 C57.488,8.372 57.999,9.609 57.999,10.925 C57.999,12.241 57.488,13.479 56.558,14.41 L56.558,14.41 Z" id="Shape" fill="#000000"></path>
        <path d="M53,8 C51.346,8 50,9.346 50,11 C50,12.654 51.346,14 53,14 C54.654,14 56,12.654 56,11 C56,9.346 54.654,8 53,8 L53,8 Z M53,12 C52.448,12 52,11.551 52,11 C52,10.449 52.448,10 53,10 C53.552,10 54,10.449 54,11 C54,11.551 53.552,12 53,12 L53,12 Z" id="Shape" fill="#000000"></path>
    </g>
</svg>