<?xml version="1.0" encoding="UTF-8" standalone="no"?>
<svg width="64px" height="64px" viewBox="0 0 64 64" version="1.1" xmlns="http://www.w3.org/2000/svg" xmlns:xlink="http://www.w3.org/1999/xlink">
    <!-- Generator: Sketch 3.7.2 (28276) - http://www.bohemiancoding.com/sketch -->
    <title>con-brushes</title>
    <desc>Created with Sketch.</desc>
    <defs></defs>
    <g id="64px-Line" stroke="none" stroke-width="1" fill="none" fill-rule="evenodd">
        <g id="con-brushes"></g>
        <path d="M22,11 C22,9.346 20.654,8 19,8 C17.346,8 16,9.346 16,11 C16,12.654 17.346,14 19,14 C20.654,14 22,12.654 22,11 L22,11 Z M19,12 C18.448,12 18,11.551 18,11 C18,10.449 18.448,10 19,10 C19.552,10 20,10.449 20,11 C20,11.551 19.552,12 19,12 L19,12 Z" id="Shape" fill="#000000"></path>
        <path d="M7,60 L31,60 C32.654,60 34,58.654 34,57 L34,39 L34,33 C34,31.346 32.654,30 31,30 L26,30 C24.346,30 23,28.654 23,27 C23,23.354 23.837,20.589 24.646,17.915 C25.342,15.613 26,13.438 26,11 C26,7.14 22.859,4 19,4 C15.141,4 12,7.14 12,11 C12,13.438 12.658,15.613 13.354,17.915 C14.163,20.589 15,23.354 15,27 C15,28.654 13.654,30 12,30 L7,30 C5.346,30 4,31.346 4,33 L4,39 L4,57 C4,58.654 5.346,60 7,60 L7,60 Z M31,58 L28,58 L28,49 C28,48.447 27.553,48 27,48 C26.447,48 26,48.447 26,49 L26,58 L22,58 L22,55 C22,54.447 21.553,54 21,54 C20.447,54 20,54.447 20,55 L20,58 L16,58 L16,47 C16,46.447 15.553,46 15,46 C14.447,46 14,46.447 14,47 L14,58 L12,58 L12,51 C12,50.447 11.553,50 11,50 C10.447,50 10,50.447 10,51 L10,58 L7,58 C6.448,58 6,57.552 6,57 L6,40 L32,40 L32,57 C32,57.552 31.552,58 31,58 L31,58 Z M6,33 C6,32.449 6.448,32 7,32 L12,32 C14.757,32 17,29.757 17,27 C17,23.058 16.08,20.018 15.269,17.336 C14.588,15.086 14,13.142 14,11 C14,8.243 16.243,6 19,6 C21.757,6 24,8.243 24,11 C24,13.142 23.412,15.085 22.731,17.336 C21.92,20.018 21,23.058 21,27 C21,29.757 23.243,32 26,32 L31,32 C31.552,32 32,32.449 32,33 L32,38 L6,38 L6,33 L6,33 Z" id="Shape" fill="#000000"></path>
        <circle id="Oval" fill="#000000" cx="50" cy="52" r="2"></circle>
        <path d="M43,4 C41.346,4 40,5.346 40,7 L40,25 L40,31 C40,32.654 41.346,34 43,34 L44,34 C45.582,34 46,35.962 46,37 C46,40.694 45.438,43.481 44.895,46.177 C44.435,48.457 44,50.611 44,53 C44,57.187 46.411,60 50,60 C53.589,60 56,57.187 56,53 C56,50.61 55.565,48.457 55.105,46.177 C54.562,43.481 54,40.694 54,37 C54,35.962 54.418,34 56,34 L57,34 C58.654,34 60,32.654 60,31 L60,25 L60,7 C60,5.346 58.654,4 57,4 L43,4 L43,4 Z M58,31 C58,31.551 57.552,32 57,32 L56,32 C53.374,32 52,34.516 52,37 C52,40.894 52.608,43.91 53.146,46.572 C53.585,48.751 54,50.81 54,53 C54,55.417 52.949,58 50,58 C47.051,58 46,55.417 46,53 C46,50.81 46.415,48.751 46.854,46.572 C47.392,43.91 48,40.894 48,37 C48,34.516 46.626,32 44,32 L43,32 C42.448,32 42,31.551 42,31 L42,26 L58,26 L58,31 L58,31 Z M58,7 L58,24 L42,24 L42,7 C42,6.449 42.448,6 43,6 L44,6 L44,11.002 C44,11.554 44.447,12.002 45,12.002 C45.553,12.002 46,11.554 46,11.002 L46,6 L48,6 L48,15.002 C48,15.554 48.447,16.002 49,16.002 C49.553,16.002 50,15.554 50,15.002 L50,6 L54,6 L54,11.002 C54,11.554 54.447,12.002 55,12.002 C55.553,12.002 56,11.554 56,11.002 L56,6 L57,6 C57.552,6 58,6.449 58,7 L58,7 Z" id="Shape" fill="#000000"></path>
    </g>
</svg>