<?xml version="1.0" encoding="UTF-8" standalone="no"?>
<svg width="64px" height="64px" viewBox="0 0 64 64" version="1.1" xmlns="http://www.w3.org/2000/svg" xmlns:xlink="http://www.w3.org/1999/xlink">
    <!-- Generator: Sketch 3.7.2 (28276) - http://www.bohemiancoding.com/sketch -->
    <title>con-hammer-chisel</title>
    <desc>Created with Sketch.</desc>
    <defs></defs>
    <g id="64px-Line" stroke="none" stroke-width="1" fill="none" fill-rule="evenodd">
        <g id="con-hammer-chisel"></g>
        <path d="M31,8 L24,8 L24,7 C24,5.346 22.654,4 21,4 L17,4 C15.346,4 14,5.346 14,7 L14,8 L7,8 C5.346,8 4,9.346 4,11 L4,21 C4,22.654 5.346,24 7,24 L14,24 L14,57 C14,58.654 15.346,60 17,60 L21,60 C22.654,60 24,58.654 24,57 L24,24 L31,24 C32.654,24 34,22.654 34,21 L34,11 C34,9.346 32.654,8 31,8 L31,8 Z M16,7 C16,6.448 16.448,6 17,6 L21,6 C21.552,6 22,6.448 22,7 L22,8 L16,8 L16,7 L16,7 Z M22,57 C22,57.552 21.552,58 21,58 L17,58 C16.448,58 16,57.552 16,57 L16,24 L22,24 L22,57 L22,57 Z M32,21 C32,21.552 31.552,22 31,22 L7,22 C6.448,22 6,21.552 6,21 L6,11 C6,10.448 6.448,10 7,10 L31,10 C31.552,10 32,10.448 32,11 L32,21 L32,21 Z" id="Shape" fill="#000000"></path>
        <path d="M54,36 L52.5,36 C52.225,36 52,35.775 52,35.5 L52,10 L53,10 C53.553,10 54,9.553 54,9 C54,6.243 51.757,4 49,4 L47,4 C44.243,4 42,6.243 42,9 C42,9.553 42.447,10 43,10 L44,10 L44,35.5 C44,35.775 43.775,36 43.5,36 L42,36 C38.691,36 36,38.691 36,42 L36,59 C36,59.553 36.447,60 37,60 L59,60 C59.553,60 60,59.553 60,59 L60,42 C60,38.691 57.309,36 54,36 L54,36 Z M47,6 L49,6 C50.302,6 51.402,6.838 51.816,8 L44.185,8 C44.598,6.838 45.698,6 47,6 L47,6 Z M42,38 L43.5,38 C44.879,38 46,36.879 46,35.5 L46,10 L50,10 L50,35.5 C50,36.879 51.121,38 52.5,38 L54,38 C56.206,38 58,39.794 58,42 L58,54 L38,54 L38,42 C38,39.794 39.794,38 42,38 L42,38 Z M38,58 L38,56 L58,56 L58,58 L38,58 L38,58 Z" id="Shape" fill="#000000"></path>
    </g>
</svg>