<?xml version="1.0" encoding="UTF-8" standalone="no"?>
<svg width="64px" height="64px" viewBox="0 0 64 64" version="1.1" xmlns="http://www.w3.org/2000/svg" xmlns:xlink="http://www.w3.org/1999/xlink">
    <!-- Generator: Sketch 3.7.2 (28276) - http://www.bohemiancoding.com/sketch -->
    <title>con-electricity</title>
    <desc>Created with Sketch.</desc>
    <defs></defs>
    <g id="64px-Line" stroke="none" stroke-width="1" fill="none" fill-rule="evenodd">
        <g id="con-electricity"></g>
        <path d="M59.198,45.756 L36.754,11.023 C36.735,10.99 36.715,10.958 36.692,10.927 C35.379,9.094 33.251,8 31,8 C28.749,8 26.621,9.094 25.308,10.926 C25.286,10.957 25.265,10.989 25.247,11.022 L2.802,45.756 C2.774,45.801 2.748,45.847 2.727,45.895 C2.652,46.063 2,47.582 2,49 C2,52.859 5.141,56 9,56 L53,56 C56.859,56 60,52.859 60,49 C60,47.582 59.348,46.063 59.273,45.895 C59.252,45.847 59.227,45.801 59.198,45.756 L59.198,45.756 Z M53,54 L9,54 C6.243,54 4,51.757 4,49 C4,48.205 4.357,47.181 4.528,46.77 L26.962,12.053 C26.964,12.05 26.966,12.046 26.968,12.043 C27.91,10.763 29.412,10 31,10 C32.588,10 34.09,10.763 35.032,12.043 C35.034,12.046 35.036,12.049 35.038,12.053 L57.473,46.771 C57.644,47.18 58,48.198 58,49 C58,51.757 55.757,54 53,54 L53,54 Z" id="Shape" fill="#000000"></path>
        <path d="M39,32 L32.181,32 L33.987,21.165 C34.063,20.71 33.818,20.263 33.394,20.081 C32.969,19.901 32.478,20.032 32.201,20.4 L20.201,36.4 C19.973,36.703 19.937,37.108 20.106,37.447 C20.276,37.786 20.622,38 21.001,38 L27.613,38 L24.052,48.684 C23.901,49.136 24.09,49.631 24.503,49.868 C24.658,49.958 24.83,50.001 25,50.001 C25.28,50.001 25.557,49.883 25.753,49.659 L39.753,33.659 C40.011,33.364 40.073,32.945 39.91,32.588 C39.748,32.229 39.393,32 39,32 L39,32 Z M27.521,44.601 L29.949,37.317 C30.052,37.012 30,36.676 29.812,36.416 C29.624,36.155 29.322,36.001 29,36.001 L23,36.001 L31.34,24.882 L30.014,32.837 C29.965,33.128 30.047,33.423 30.238,33.648 C30.427,33.873 30.707,34.002 31.001,34.002 L36.797,34.002 L27.521,44.601 L27.521,44.601 Z" id="Shape" fill="#000000"></path>
    </g>
</svg>