<?xml version="1.0" encoding="UTF-8" standalone="no"?>
<svg width="44px" height="44px" viewBox="0 0 44 44" version="1.1" xmlns="http://www.w3.org/2000/svg" xmlns:xlink="http://www.w3.org/1999/xlink">
    <!-- Generator: Sketch 3.7.2 (28276) - http://www.bohemiancoding.com/sketch -->
    <title>con-plumb-line</title>
    <desc>Created with Sketch.</desc>
    <defs></defs>
    <g id="44px-Line" stroke="none" stroke-width="1" fill="none" fill-rule="evenodd">
        <g id="con-plumb-line"></g>
        <path d="M10.023,21.117 C10.035,21.216 10.048,21.315 10.087,21.403 C10.089,21.407 10.088,21.411 10.09,21.415 L16.442,35.389 C16.442,35.39 16.443,35.391 16.444,35.393 L20.091,43.416 C20.253,43.772 20.609,44.002 21.001,44.002 C21.393,44.002 21.749,43.773 21.911,43.416 L25.557,35.394 C25.558,35.393 25.558,35.391 25.559,35.39 L31.911,21.417 C31.913,21.413 31.912,21.409 31.914,21.405 C31.953,21.317 31.966,21.218 31.978,21.118 C31.983,21.08 32,21.045 32,21.007 C32,21.006 32.001,21.004 32.001,21.003 C32.001,20.864 31.972,20.731 31.921,20.611 C31.921,20.61 31.921,20.609 31.92,20.608 C31.811,20.354 29.32,14.709 24.001,14.063 L24.001,12 C24.001,10.691 23.31,10 22.001,10 L22.001,1 C22.001,0.447 21.554,0 21.001,0 C20.448,0 20.001,0.447 20.001,1 L20.001,10 C18.692,10 18.001,10.691 18.001,12 L18.001,14.06 C12.682,14.706 10.191,20.351 10.082,20.605 C10.082,20.606 10.082,20.607 10.081,20.608 C10.03,20.728 10.001,20.861 10.001,21 C10.001,21.001 10.002,21.003 10.002,21.004 C10.001,21.043 10.019,21.079 10.023,21.117 L10.023,21.117 Z M23.992,34 L18.007,34 L12.552,22 L29.446,22 L23.992,34 L23.992,34 Z M21,40.583 L18.917,36 L23.084,36 L21,40.583 L21,40.583 Z M22,12 L22,14 L20,14 L20,12 L22,12 L22,12 Z M19,16 L23,16 C26.14,16 28.24,18.401 29.292,20 L12.708,20 C13.76,18.401 15.86,16 19,16 L19,16 Z" id="Shape" fill="#000000"></path>
    </g>
</svg>