<?xml version="1.0" encoding="UTF-8" standalone="no"?>
<svg width="44px" height="44px" viewBox="0 0 44 44" version="1.1" xmlns="http://www.w3.org/2000/svg" xmlns:xlink="http://www.w3.org/1999/xlink">
    <!-- Generator: Sketch 3.7.2 (28276) - http://www.bohemiancoding.com/sketch -->
    <title>con-tape</title>
    <desc>Created with Sketch.</desc>
    <defs></defs>
    <g id="44px-Line" stroke="none" stroke-width="1" fill="none" fill-rule="evenodd">
        <g id="con-tape"></g>
        <path d="M9.832,35.496 C11.415,37.1 13.52,37.989 15.758,38 L15.802,38 C18.058,38 20.177,37.111 21.771,35.496 L33.228,23.886 C33.234,23.88 33.238,23.872 33.244,23.866 C33.247,23.863 33.251,23.862 33.254,23.859 L40.033,16.447 L42.293,18.707 C42.488,18.902 42.744,19 43,19 C43.256,19 43.512,18.902 43.707,18.707 C44.098,18.316 44.098,17.684 43.707,17.293 L40.707,14.293 C40.701,14.287 40.694,14.286 40.688,14.28 C40.682,14.275 40.681,14.267 40.675,14.262 C40.629,14.22 40.572,14.201 40.521,14.169 C40.465,14.134 40.414,14.091 40.354,14.069 C40.291,14.045 40.225,14.042 40.16,14.031 C40.099,14.021 40.04,14.003 39.978,14.004 C39.912,14.005 39.85,14.027 39.786,14.041 C39.725,14.055 39.664,14.06 39.605,14.085 C39.543,14.112 39.491,14.158 39.434,14.199 C39.387,14.232 39.334,14.251 39.292,14.293 C39.287,14.298 39.285,14.306 39.28,14.311 C39.274,14.317 39.267,14.319 39.261,14.325 L33.571,20.547 C33.473,20.394 33.359,20.248 33.227,20.114 L21.771,8.507 C20.175,6.89 18.055,6 15.798,6 L15.78,6 C13.533,6.004 11.42,6.894 9.831,8.505 L2.465,15.97 C-0.817,19.296 -0.817,24.706 2.466,28.031 L9.832,35.496 L9.832,35.496 Z M3.89,17.375 L11.256,9.909 C12.467,8.681 14.076,8.003 15.785,8 L15.799,8 C17.516,8 19.131,8.679 20.348,9.912 L31.804,21.519 C32.065,21.784 32.065,22.212 31.806,22.478 L31.791,22.494 L20.346,34.091 L20.346,34.091 C19.131,35.323 17.518,36 15.8,36 L15.767,36 C14.065,35.991 12.462,35.313 11.255,34.091 L3.89,26.627 C1.372,24.076 1.372,19.926 3.89,17.375 L3.89,17.375 Z" id="Shape" fill="#000000"></path>
        <path d="M16,30 C20.411,30 24,26.412 24,22.002 C24,17.59 20.411,14 15.999,14 C11.588,14 8,17.589 8,22 C8,26.411 11.589,30 16,30 L16,30 Z M15.999,16 C19.308,16 22,18.692 22,22.002 C22,25.309 19.309,28 16,28 C12.691,28 10,25.309 10,22 C10,18.691 12.691,16 15.999,16 L15.999,16 Z" id="Shape" fill="#000000"></path>
    </g>
</svg>