<?xml version="1.0" encoding="UTF-8" standalone="no"?>
<svg width="44px" height="44px" viewBox="0 0 44 44" version="1.1" xmlns="http://www.w3.org/2000/svg" xmlns:xlink="http://www.w3.org/1999/xlink">
    <!-- Generator: Sketch 3.7.2 (28276) - http://www.bohemiancoding.com/sketch -->
    <title>con-retractable-knife</title>
    <desc>Created with Sketch.</desc>
    <defs></defs>
    <g id="44px-Line" stroke="none" stroke-width="1" fill="none" fill-rule="evenodd">
        <g id="con-retractable-knife"></g>
        <path d="M31.61,10.577 C32.087,11.065 32.723,11.333 33.4,11.333 C34.077,11.333 34.713,11.064 35.191,10.576 C36.159,9.584 36.159,7.97 35.191,6.978 C34.237,6.002 32.565,6.002 31.611,6.978 C30.641,7.97 30.641,9.584 31.61,10.577 L31.61,10.577 L31.61,10.577 Z M33.041,8.377 C33.235,8.177 33.565,8.177 33.76,8.377 C33.972,8.594 33.972,8.961 33.76,9.179 C33.566,9.379 33.236,9.379 33.041,9.179 C32.828,8.961 32.828,8.594 33.041,8.377 L33.041,8.377 Z" id="Shape" fill="#000000"></path>
        <path d="M2.832,29.986 L3.806,30.152 L8.13,43.312 C8.239,43.644 8.514,43.895 8.854,43.974 C8.929,43.992 9.005,44 9.08,44 C9.346,44 9.605,43.894 9.795,43.699 L20.285,32.963 L21.071,33.097 C21.127,33.106 21.183,33.111 21.239,33.111 C21.505,33.111 21.762,33.005 21.952,32.812 L39.489,14.976 C42.828,11.559 42.828,5.998 39.489,2.58 C37.864,0.917 35.701,0 33.4,0 L33.399,0 C31.098,0 28.936,0.917 27.31,2.582 C27.31,2.582 24.123,5.858 20.025,10.071 L19.806,9.848 C19.329,9.36 18.694,9.091 18.017,9.091 L18.016,9.091 C17.338,9.091 16.703,9.36 16.225,9.848 L10.85,15.348 C9.883,16.339 9.883,17.952 10.851,18.946 L11.122,19.223 C6.616,23.854 2.796,27.78 2.285,28.303 C2.025,28.569 1.934,28.957 2.049,29.311 C2.164,29.663 2.465,29.923 2.832,29.986 L2.832,29.986 Z M9.516,41.123 L6.037,30.532 L17.89,32.554 L9.516,41.123 L9.516,41.123 Z M12.283,17.547 C12.07,17.329 12.07,16.961 12.282,16.743 L17.656,11.244 C17.753,11.144 17.881,11.089 18.016,11.089 C18.15,11.089 18.278,11.144 18.375,11.244 L18.629,11.504 C16.658,13.53 14.548,15.699 12.517,17.786 L12.283,17.547 L12.283,17.547 Z M28.742,3.978 C29.988,2.703 31.641,2 33.399,2 L33.4,2 C35.158,2 36.813,2.703 38.059,3.978 C40.645,6.625 40.645,10.932 38.061,13.576 L20.893,31.037 L5.044,28.334 C10.309,22.928 28.743,3.978 28.742,3.978 L28.742,3.978 Z" id="Shape" fill="#000000"></path>
    </g>
</svg>