<?xml version="1.0" encoding="UTF-8" standalone="no"?>
<svg width="44px" height="44px" viewBox="0 0 44 44" version="1.1" xmlns="http://www.w3.org/2000/svg" xmlns:xlink="http://www.w3.org/1999/xlink">
    <!-- Generator: Sketch 3.7.2 (28276) - http://www.bohemiancoding.com/sketch -->
    <title>con-saw</title>
    <desc>Created with Sketch.</desc>
    <defs></defs>
    <g id="44px-Line" stroke="none" stroke-width="1" fill="none" fill-rule="evenodd">
        <g id="con-saw"></g>
        <path d="M1.707,31.707 L2.153,31.261 L12.812,41.774 L12.292,42.294 C11.901,42.685 11.901,43.317 12.292,43.708 C12.487,43.903 12.743,44.001 12.999,44.001 C13.255,44.001 13.511,43.903 13.706,43.708 L21.706,35.708 C21.895,35.52 22,35.266 22,35 L22,30 L27,30 C27.552,30 28,29.553 28,29 L28,26 L31,26 C31.552,26 32,25.553 32,25 L32,22 L35,22 C35.552,22 36,21.552 36,21 L36,18 L39,18 C39.552,18 40,17.552 40,17 L40,14 L43,14 C43.404,14 43.769,13.756 43.924,13.383 C44.079,13.009 43.993,12.579 43.707,12.293 L33.707,2.293 C33.316,1.902 32.684,1.902 32.293,2.293 L14.996,19.59 C13.76,18.512 12.055,18.549 10.856,19.73 L0.294,30.292 C-0.097,30.683 -0.097,31.315 0.294,31.706 C0.685,32.097 1.316,32.098 1.707,31.707 L1.707,31.707 Z M39,12 C38.448,12 38,12.448 38,13 L38,16 L35,16 C34.448,16 34,16.448 34,17 L34,20 L31,20 C30.448,20 30,20.448 30,21 L30,24 L27,24 C26.448,24 26,24.447 26,25 L26,28 L22,28 L22,27 C22,26.735 21.895,26.481 21.708,26.294 L19.417,23.996 L36,7.414 L40.586,12 L39,12 L39,12 Z M33,4.414 L34.586,6 L18.006,22.58 L16.423,20.991 L33,4.414 L33,4.414 Z M12.265,21.149 C12.726,20.697 13.298,20.695 13.751,21.143 L14.255,21.649 C14.271,21.667 14.276,21.69 14.293,21.707 C14.31,21.724 14.332,21.729 14.35,21.745 L17.274,24.679 C17.282,24.688 17.285,24.699 17.293,24.708 C17.301,24.716 17.313,24.719 17.321,24.727 L20,27.414 L20,34.587 L14.227,40.36 L3.568,29.847 L12.265,21.149 L12.265,21.149 Z" id="Shape" fill="#000000"></path>
        <path d="M7.293,30.707 L13.293,36.707 C13.488,36.902 13.744,37 14,37 C14.256,37 14.512,36.902 14.707,36.707 L16.707,34.707 C16.895,34.52 17,34.266 17,34 L17,30 C17,29.734 16.895,29.48 16.707,29.293 L12.707,25.293 C12.316,24.902 11.684,24.902 11.293,25.293 L7.293,29.293 C6.902,29.684 6.902,30.316 7.293,30.707 L7.293,30.707 Z M12,27.414 L15,30.414 L15,33.586 L14,34.586 L9.414,30 L12,27.414 L12,27.414 Z" id="Shape" fill="#000000"></path>
    </g>
</svg>