<?xml version="1.0" encoding="UTF-8" standalone="no"?>
<svg width="44px" height="44px" viewBox="0 0 44 44" version="1.1" xmlns="http://www.w3.org/2000/svg" xmlns:xlink="http://www.w3.org/1999/xlink">
    <!-- Generator: Sketch 3.7.2 (28276) - http://www.bohemiancoding.com/sketch -->
    <title>con-spanner</title>
    <desc>Created with Sketch.</desc>
    <defs></defs>
    <g id="44px-Line" stroke="none" stroke-width="1" fill="none" fill-rule="evenodd">
        <g id="con-spanner"></g>
        <path d="M3.585,37.589 C2.808,38.368 2.808,39.636 3.588,40.419 C3.978,40.805 4.489,40.998 5,40.998 C5.511,40.998 6.022,40.805 6.412,40.419 C6.413,40.418 6.414,40.417 6.415,40.415 C7.192,39.636 7.192,38.368 6.417,37.59 C5.661,36.829 4.338,36.83 3.585,37.589 L3.585,37.589 Z" id="Shape" fill="#000000"></path>
        <path d="M41.321,8.915 L36.949,13.289 C36.251,13.987 34.136,13.433 32.351,11.649 C30.566,9.864 30.013,7.75 30.711,7.051 L35.084,2.68 C35.475,2.29 35.475,1.657 35.084,1.266 C33.815,-0.005 31.786,-0.336 29.369,0.336 C27.236,0.928 25.018,2.262 23.285,3.996 C21.835,5.445 21.101,7.355 21.123,9.478 C21.124,9.5 21.115,9.521 21.118,9.544 C21.118,9.548 21.122,9.574 21.126,9.62 C21.132,9.832 21.139,10.045 21.16,10.261 C21.203,11.92 20.97,16.15 17.82,19.3 L1.424,35.696 C0.505,36.615 -0.001,37.837 -0.001,39.136 C-0.001,40.435 0.505,41.657 1.424,42.575 C2.372,43.523 3.617,43.997 4.863,43.997 C6.109,43.997 7.355,43.523 8.303,42.575 L24.699,26.179 C28.657,22.222 34.4,22.877 34.458,22.881 C34.472,22.883 34.485,22.877 34.5,22.878 C34.537,22.878 34.575,22.885 34.611,22.885 C36.658,22.885 38.541,22.175 40.002,20.714 L40.002,20.714 C43.509,17.204 45.444,11.626 42.734,8.915 C42.36,8.54 41.696,8.54 41.321,8.915 L41.321,8.915 Z M23.286,24.765 L6.89,41.161 C5.773,42.278 3.955,42.279 2.838,41.161 C2.296,40.62 1.999,39.901 1.999,39.136 C1.999,38.371 2.297,37.652 2.838,37.111 L19.234,20.715 C21.103,18.846 22.093,16.689 22.615,14.753 C23.338,16.075 24.299,17.357 25.47,18.529 C26.671,19.73 27.952,20.675 29.251,21.385 C27.315,21.906 25.156,22.895 23.286,24.765 L23.286,24.765 Z M38.589,19.3 C37.486,20.403 36.035,20.908 34.435,20.871 C34.294,20.859 34.108,20.848 33.869,20.84 C31.612,20.611 29.112,19.34 26.885,17.114 C24.934,15.163 23.639,12.899 23.239,10.74 C23.208,10.576 23.184,10.402 23.163,10.223 C23.152,9.82 23.129,9.53 23.115,9.39 C23.111,8.111 23.461,6.65 24.701,5.41 C26.199,3.912 28.096,2.765 29.907,2.263 C30.542,2.087 31.134,2 31.664,2 C32.077,2 32.452,2.053 32.78,2.157 L29.299,5.636 C28.45,6.484 28.208,7.776 28.616,9.272 C28.971,10.573 29.796,11.918 30.939,13.062 C33.48,15.603 36.741,16.322 38.365,14.703 L41.849,11.218 C42.489,13.204 41.146,16.741 38.589,19.3 L38.589,19.3 Z" id="Shape" fill="#000000"></path>
    </g>
</svg>