<?xml version="1.0" encoding="UTF-8" standalone="no"?>
<svg width="44px" height="44px" viewBox="0 0 44 44" version="1.1" xmlns="http://www.w3.org/2000/svg" xmlns:xlink="http://www.w3.org/1999/xlink">
    <!-- Generator: Sketch 3.7.2 (28276) - http://www.bohemiancoding.com/sketch -->
    <title>con-jacket</title>
    <desc>Created with Sketch.</desc>
    <defs></defs>
    <g id="44px-Line" stroke="none" stroke-width="1" fill="none" fill-rule="evenodd">
        <g id="con-jacket"></g>
        <path d="M1,44 L17,44 C18.516,44 20.222,43.532 21.198,41.767 C22.256,43.161 23.946,44 26,44 L41,44 C41.553,44 42,43.553 42,43 L42,19 C42,18.447 41.553,18 41,18 C38.103,18 36,15.897 36,13 L36,3 C36,2.569 35.725,2.188 35.316,2.052 L29.316,0.052 C29.245,0.028 29.174,0.029 29.102,0.021 C29.067,0.017 29.036,1.13686838e-13 29,1.13686838e-13 C28.993,1.13686838e-13 28.987,0.003 28.98,0.003 C28.946,0.004 28.914,0.014 28.881,0.018 C28.804,0.027 28.729,0.04 28.658,0.066 C28.623,0.079 28.591,0.097 28.558,0.114 C28.494,0.146 28.434,0.182 28.378,0.227 C28.347,0.252 28.319,0.277 28.292,0.306 C28.239,0.36 28.195,0.419 28.155,0.484 C28.142,0.505 28.121,0.52 28.11,0.543 L28.073,0.615 C27.273,1.144 23.643,2 21,2 C18.356,2 14.726,1.144 13.927,0.615 L13.89,0.543 C13.878,0.52 13.858,0.506 13.845,0.484 C13.805,0.419 13.76,0.359 13.707,0.304 C13.68,0.276 13.653,0.251 13.623,0.227 C13.567,0.182 13.506,0.145 13.441,0.112 C13.408,0.096 13.377,0.077 13.343,0.065 C13.272,0.039 13.197,0.026 13.12,0.017 C13.087,0.013 13.055,0.003 13.021,0.002 C13.014,0.002 13.008,-0.001 13.002,-0.001 C12.966,-0.001 12.935,0.016 12.899,0.02 C12.827,0.028 12.756,0.027 12.685,0.051 L6.685,2.051 C6.275,2.188 6,2.569 6,3 L6,13 C6,15.897 3.897,18 1,18 C0.447,18 0,18.447 0,19 L0,43 C0,43.553 0.447,44 1,44 L1,44 Z M20,32 L2,32 L2,30 L20,30 L20,32 L20,32 Z M22,30 L40,30 L40,32 L22,32 L22,30 L22,30 Z M20,34 L20,36 L2,36 L2,34 L20,34 L20,34 Z M22,34 L40,34 L40,36 L22,36 L22,34 L22,34 Z M40,28 L22,28 L22,26 L40,26 L40,28 L40,28 Z M20,28 L2,28 L2,26 L20,26 L20,28 L20,28 Z M17,42 L2,42 L2,38 L20,38 C20,41.516 18.559,42 17,42 L17,42 Z M26,42 C23.57,42 22,40.43 22,38 L40,38 L40,42 L26,42 L26,42 Z M40,19.927 L40,24 L22,24 L22,16.798 L29.497,2.22 L34,3.721 L34,13 C34,16.648 36.519,19.469 40,19.927 L40,19.927 Z M21,4 C21.053,4 24.189,3.851 26.745,3.197 L21,14.369 L15.255,3.198 C17.811,3.851 20.947,4 21,4 L21,4 Z M8,13 L8,3.721 L12.503,2.22 L20,16.798 L20,24 L2,24 L2,19.927 C5.481,19.469 8,16.648 8,13 L8,13 Z" id="Shape" fill="#000000"></path>
    </g>
</svg>