<?xml version="1.0" encoding="UTF-8" standalone="no"?>
<svg width="64px" height="64px" viewBox="0 0 64 64" version="1.1" xmlns="http://www.w3.org/2000/svg" xmlns:xlink="http://www.w3.org/1999/xlink">
    <!-- Generator: Sketch 3.7.2 (28276) - http://www.bohemiancoding.com/sketch -->
    <title>con-hammer-screwdriver</title>
    <desc>Created with Sketch.</desc>
    <defs></defs>
    <g id="64px-Line" stroke="none" stroke-width="1" fill="none" fill-rule="evenodd">
        <g id="con-hammer-screwdriver"></g>
        <path d="M5.555,17.832 C5.612,17.794 11.368,14 17,14 C18.654,14 20,15.346 20,17 L20,57.5 C20,58.879 21.122,60 22.5,60 L25.5,60 C26.878,60 28,58.879 28,57.5 L28,17 C28,15.346 29.346,14 31,14 C31.963,14 32.852,14.524 33.642,15.559 C35.371,17.825 36.65,18 37,18 L38,18 C39.103,18 40,17.103 40,16 L40,6 C40,4.897 39.103,4 38,4 L37,4 C36.65,4 35.375,4.172 33.678,6.381 C32.853,7.455 31.952,8 31,8 C29.346,8 28,6.654 28,5 C28,4.447 27.552,4 27,4 L21,4 C8.425,4 4.094,16.557 4.051,16.684 C3.916,17.089 4.053,17.536 4.393,17.795 C4.733,18.055 5.199,18.069 5.555,17.832 L5.555,17.832 Z M25.5,58 L22.5,58 C22.224,58 22,57.775 22,57.5 L22,22.002 L26,22.002 L26,57.5 C26,57.775 25.776,58 25.5,58 L25.5,58 Z M21,6 L26.101,6 C26.565,8.279 28.586,10 31,10 C32.606,10 34.041,9.192 35.264,7.6 C36.356,6.179 37.046,6.004 37.005,6 L38,6 L38,16 L37.094,16.006 C37.087,16.005 36.383,15.853 35.232,14.346 C34.06,12.811 32.597,12 31,12 C28.243,12 26,14.243 26,17 L26,20.002 L22,20.002 L22,17 C22,14.243 19.757,12 17,12 C13.269,12 9.595,13.434 7.194,14.62 C9.072,11.268 13.256,6 21,6 L21,6 Z" id="Shape" fill="#000000"></path>
        <path d="M53,4 C51.269,4 46,4 46,9 L46.002,23 C46.002,23.334 46.169,23.646 46.446,23.831 C47.404,24.472 48,25.685 48,27 C48,28.315 47.404,29.528 46.446,30.168 C46.168,30.354 46.001,30.666 46.001,30.999 L46,32.999 C46,33.265 46.105,33.52 46.292,33.707 C46.48,33.895 46.735,34 47,34 L50,34 L50,59 C50,59.553 50.448,60 51,60 L55,60 C55.552,60 56,59.553 56,59 L56,34 L59,34 C59.265,34 59.52,33.895 59.708,33.707 C59.896,33.519 60,33.265 60,32.999 L59.999,30.999 C59.999,30.666 59.832,30.353 59.554,30.168 C58.596,29.528 58,28.314 58,27 C58,25.686 58.596,24.472 59.555,23.832 C59.833,23.646 60,23.334 60,23 L60,9 C60,4 54.731,4 53,4 L53,4 Z M52,58 L52,54 L54,54 L54,58 L52,58 L52,58 Z M54,52 L52,52 L52,34 L54,34 L54,52 L54,52 Z M57.998,22.504 C56.754,23.556 56,25.229 56,27 C56,28.772 56.754,30.445 57.999,31.497 L57.999,32 L48,32 L48,31.497 C49.245,30.445 49.999,28.772 49.999,27 C49.999,25.228 49.244,23.555 47.999,22.503 L47.999,9 C47.999,7.199 48.849,6 52.999,6 C57.149,6 57.999,7.199 57.999,9 L57.998,22.504 L57.998,22.504 Z" id="Shape" fill="#000000"></path>
    </g>
</svg>