<?xml version="1.0" encoding="UTF-8" standalone="no"?>
<svg width="64px" height="64px" viewBox="0 0 64 64" version="1.1" xmlns="http://www.w3.org/2000/svg" xmlns:xlink="http://www.w3.org/1999/xlink">
    <!-- Generator: Sketch 3.7.2 (28276) - http://www.bohemiancoding.com/sketch -->
    <title>con-chisels</title>
    <desc>Created with Sketch.</desc>
    <defs></defs>
    <g id="64px-Line" stroke="none" stroke-width="1" fill="none" fill-rule="evenodd">
        <g id="con-chisels"></g>
        <path d="M46,36 L44.5,36 C44.225,36 44,35.775 44,35.5 L44,10 L45,10 C45.553,10 46,9.553 46,9 C46,6.243 43.757,4 41,4 L39,4 C36.243,4 34,6.243 34,9 C34,9.553 34.447,10 35,10 L36,10 L36,35.5 C36,35.775 35.775,36 35.5,36 L34,36 C30.691,36 28,38.691 28,42 L28,59 C28,59.553 28.447,60 29,60 L51,60 C51.553,60 52,59.553 52,59 L52,42 C52,38.691 49.309,36 46,36 L46,36 Z M39,6 L41,6 C42.302,6 43.402,6.838 43.816,8 L36.185,8 C36.598,6.838 37.698,6 39,6 L39,6 Z M34,38 L35.5,38 C36.879,38 38,36.879 38,35.5 L38,10 L42,10 L42,35.5 C42,36.879 43.121,38 44.5,38 L46,38 C48.206,38 50,39.794 50,42 L50,54 L30,54 L30,42 C30,39.794 31.794,38 34,38 L34,38 Z M30,58 L30,56 L50,56 L50,58 L30,58 L30,58 Z" id="Shape" fill="#000000"></path>
        <path d="M19,4 L17,4 C14.243,4 12,6.243 12,9 C12,9.553 12.447,10 13,10 L14,10 L14,59 C14,59.553 14.447,60 15,60 L21,60 C21.553,60 22,59.553 22,59 L22,10 L23,10 C23.553,10 24,9.553 24,9 C24,6.243 21.757,4 19,4 L19,4 Z M17,6 L19,6 C20.302,6 21.402,6.838 21.816,8 L14.185,8 C14.598,6.838 15.698,6 17,6 L17,6 Z M16,58 L16,56 L20,56 L20,58 L16,58 L16,58 Z M20,54 L16,54 L16,10 L20,10 L20,54 L20,54 Z" id="Shape" fill="#000000"></path>
    </g>
</svg>