<?xml version="1.0" encoding="UTF-8" standalone="no"?>
<svg width="44px" height="44px" viewBox="0 0 44 44" version="1.1" xmlns="http://www.w3.org/2000/svg" xmlns:xlink="http://www.w3.org/1999/xlink">
    <!-- Generator: Sketch 3.7.2 (28276) - http://www.bohemiancoding.com/sketch -->
    <title>con-tin</title>
    <desc>Created with Sketch.</desc>
    <defs></defs>
    <g id="44px-Line" stroke="none" stroke-width="1" fill="none" fill-rule="evenodd">
        <g id="con-tin"></g>
        <path d="M37,24 C37.552,24 38,23.552 38,23 L38,16 C38,7.178 30.822,0 22,0 C13.178,0 6,7.178 6,16 L6,23 C6,23.552 6.448,24 7,24 C7.552,24 8,23.552 8,23 L8,22 L10,22 L10,43 C10,43.552 10.448,44 11,44 L33,44 C33.552,44 34,43.552 34,43 L34,22 L36,22 L36,23 C36,23.552 36.448,24 37,24 L37,24 Z M32,42 L12,42 L12,22 L32,22 L32,42 L32,42 Z M32,20 L12,20 L12,18 L32,18 L32,20 L32,20 Z M34,20 L34,17 C34,16.448 33.552,16 33,16 L11,16 C10.448,16 10,16.448 10,17 L10,20 L8,20 L8,16 C8,8.28 14.28,2 22,2 C29.72,2 36,8.28 36,16 L36,20 L34,20 L34,20 Z" id="Shape" fill="#000000"></path>
    </g>
</svg>