<?xml version="1.0" encoding="UTF-8" standalone="no"?>
<svg width="44px" height="44px" viewBox="0 0 44 44" version="1.1" xmlns="http://www.w3.org/2000/svg" xmlns:xlink="http://www.w3.org/1999/xlink">
    <!-- Generator: Sketch 3.7.2 (28276) - http://www.bohemiancoding.com/sketch -->
    <title>con-toolbox</title>
    <desc>Created with Sketch.</desc>
    <defs></defs>
    <g id="44px-Line" stroke="none" stroke-width="1" fill="none" fill-rule="evenodd">
        <g id="con-toolbox"></g>
        <path d="M43,10 L1,10 C0.448,10 0,10.448 0,11 L0,39 C0,39.553 0.448,40 1,40 L43,40 C43.552,40 44,39.553 44,39 L44,11 C44,10.448 43.552,10 43,10 L43,10 Z M42,12 L42,24 L36,24 L36,21 C36,20.448 35.552,20 35,20 L31,20 C30.448,20 30,20.448 30,21 L30,24 L14,24 L14,21 C14,20.448 13.552,20 13,20 L9,20 C8.448,20 8,20.448 8,21 L8,24.002 L2,24.002 L2,12 L42,12 L42,12 Z M32,22 L34,22 L34,28.002 L32,28.002 L32,22 L32,22 Z M10,22 L12,22 L12,28.002 L10,28.002 L10,22 L10,22 Z M2,38 L2,26.002 L8,26.002 L8,29.002 C8,29.555 8.448,30.002 9,30.002 L13,30.002 C13.552,30.002 14,29.555 14,29.002 L14,26 L30,26 L30,29.002 C30,29.555 30.448,30.002 31,30.002 L35,30.002 C35.552,30.002 36,29.555 36,29.002 L36,26 L42,26 L42,38 L2,38 L2,38 Z" id="Shape" fill="#000000"></path>
        <path d="M14,8 C14,8.552 14.448,9 15,9 C15.552,9 16,8.552 16,8 C16,6.897 16.897,6 18,6 L26,6 C27.103,6 28,6.897 28,8 C28,8.552 28.448,9 29,9 C29.552,9 30,8.552 30,8 C30,5.794 28.206,4 26,4 L18,4 C15.794,4 14,5.794 14,8 L14,8 Z" id="Shape" fill="#000000"></path>
    </g>
</svg>