<?xml version="1.0" encoding="UTF-8" standalone="no"?>
<svg width="64px" height="64px" viewBox="0 0 64 64" version="1.1" xmlns="http://www.w3.org/2000/svg" xmlns:xlink="http://www.w3.org/1999/xlink">
    <!-- Generator: Sketch 3.7.2 (28276) - http://www.bohemiancoding.com/sketch -->
    <title>con-hammer</title>
    <desc>Created with Sketch.</desc>
    <defs></defs>
    <g id="64px-Line" stroke="none" stroke-width="1" fill="none" fill-rule="evenodd">
        <g id="con-hammer"></g>
        <path d="M59.313,21.798 C59.066,21.548 58.048,20.755 55.293,21.124 C53.945,21.3 52.961,21.057 52.286,20.37 C51.117,19.182 51.117,17.249 52.286,16.061 C52.669,15.672 52.669,15.047 52.286,14.659 L46.664,8.947 C37.864,0.003 23.242,5.803 22.623,6.053 C22.2,6.225 21.948,6.661 22.008,7.114 C22.069,7.566 22.428,7.92 22.881,7.973 C22.957,7.982 30.548,8.943 35.351,14.579 C35.367,14.598 35.383,14.615 35.399,14.632 C36.568,15.82 36.568,17.754 35.399,18.943 L2.723,52.143 C1.76,53.122 1.76,54.711 2.723,55.687 L6.237,59.259 C6.707,59.736 7.334,59.999 8.002,59.999 L8.003,59.999 C8.671,59.999 9.298,59.736 9.771,59.258 L39.621,28.928 C39.622,28.927 39.624,28.927 39.625,28.925 C39.626,28.924 39.627,28.922 39.628,28.92 L42.447,26.055 C43.569,24.916 45.521,24.915 46.643,26.056 C47.491,26.916 47.527,28.17 47.408,29.072 C47.032,31.914 47.803,32.947 48.048,33.196 L50.155,35.336 C50.91,36.106 52.235,36.105 52.986,35.337 L61.421,26.772 C62.189,25.991 62.188,24.72 61.421,23.941 L59.313,21.798 L59.313,21.798 Z M8.347,57.855 C8.223,57.981 8.079,58 8.004,58 C7.929,58 7.786,57.981 7.663,57.856 L4.148,54.284 C3.951,54.085 3.952,53.747 4.149,53.547 L33.301,23.927 L37.52,28.213 L8.347,57.855 L8.347,57.855 Z M51.583,33.935 L49.535,31.865 C49.531,31.859 49.139,31.244 49.391,29.336 C49.645,27.41 49.188,25.791 48.068,24.655 C47.128,23.7 45.877,23.175 44.545,23.175 C43.213,23.175 41.962,23.7 41.022,24.655 L38.923,26.788 L34.704,22.502 L36.826,20.346 C38.747,18.393 38.756,15.221 36.852,13.257 C33.762,9.645 29.728,7.788 26.831,6.86 C31.48,5.744 39.791,4.815 45.238,10.35 L50.238,15.43 C48.959,17.383 49.166,20.052 50.86,21.773 C51.99,22.923 53.574,23.371 55.556,23.107 C55.987,23.049 56.348,23.028 56.648,23.028 C57.558,23.028 57.916,23.222 57.891,23.206 L59.996,25.371 L51.583,33.935 L51.583,33.935 Z" id="Shape" fill="#000000"></path>
    </g>
</svg>