<?xml version="1.0" encoding="UTF-8" standalone="no"?>
<svg width="64px" height="64px" viewBox="0 0 64 64" version="1.1" xmlns="http://www.w3.org/2000/svg" xmlns:xlink="http://www.w3.org/1999/xlink">
    <!-- Generator: Sketch 3.7.2 (28276) - http://www.bohemiancoding.com/sketch -->
    <title>con-axe</title>
    <desc>Created with Sketch.</desc>
    <defs></defs>
    <g id="64px-Line" stroke="none" stroke-width="1" fill="none" fill-rule="evenodd">
        <g id="con-axe"></g>
        <path d="M8,57.575 C7.997,58.378 8.306,59.134 8.87,59.704 L10.271,61.118 C10.835,61.686 11.585,62 12.382,62 C13.181,62 13.931,61.687 14.483,61.13 L44.599,31.712 L45.301,32.42 C45.864,32.989 46.614,33.302 47.412,33.302 L47.413,33.302 C48.212,33.302 48.961,32.989 49.523,32.42 L55.127,26.765 C55.691,26.196 56,25.44 55.997,24.637 C55.995,23.841 55.686,23.091 55.127,22.528 L54.424,21.818 L55.127,21.107 C56.285,19.94 56.285,18.039 55.128,16.871 L53.727,15.456 C52.6,14.318 50.631,14.317 49.502,15.456 L48.812,16.153 L48.121,15.456 C47.558,14.887 46.808,14.574 46.01,14.574 L46.009,14.574 C45.571,14.574 45.148,14.669 44.762,14.848 C42.377,12.037 42.247,8.847 42.151,6.473 C42.086,4.865 42.034,3.595 41.273,2.827 C40.894,2.444 40.215,2.008 38.99,2 C36.431,2.021 32.858,3.972 29.886,6.97 C25.495,11.404 23.689,16.264 25.683,18.277 C26.441,19.042 27.71,19.116 29.318,19.211 C31.701,19.351 34.906,19.54 37.702,21.966 C37.192,23.074 37.39,24.435 38.295,25.348 L38.988,26.047 L8.871,55.467 C8.311,56.031 8.002,56.78 8,57.575 L8,57.575 Z M50.925,16.863 C51.296,16.488 51.939,16.49 52.308,16.863 L53.709,18.278 C54.097,18.67 54.098,19.306 53.708,19.698 L53.017,20.396 L50.221,17.574 L50.925,16.863 L50.925,16.863 Z M29.437,17.214 C28.547,17.162 27.328,17.09 27.106,16.869 C26.372,16.128 27.168,12.559 31.309,8.378 C34.287,5.374 37.322,4.014 39.009,4 L39.032,4 C39.412,4 39.703,4.083 39.853,4.234 C40.068,4.458 40.118,5.67 40.154,6.554 C40.264,9.265 40.431,13.363 43.901,16.864 C44.089,17.053 44.344,17.16 44.611,17.16 C44.879,17.16 45.133,17.053 45.322,16.864 C45.507,16.677 45.752,16.574 46.011,16.574 C46.272,16.574 46.517,16.677 46.702,16.864 L48.108,18.284 C48.108,18.284 48.108,18.285 48.109,18.285 L48.11,18.285 L53.708,23.936 C53.895,24.124 53.997,24.374 53.998,24.643 C53.999,24.914 53.896,25.167 53.708,25.357 L48.103,31.013 C47.918,31.2 47.673,31.303 47.414,31.303 L47.413,31.303 C47.153,31.303 46.907,31.2 46.722,31.013 L45.33,29.608 C45.329,29.607 45.328,29.605 45.327,29.604 C45.326,29.603 45.324,29.602 45.322,29.601 L41.123,25.362 L41.123,25.362 L41.123,25.362 L39.716,23.942 C39.328,23.55 39.328,22.914 39.716,22.522 C40.103,22.132 40.103,21.504 39.717,21.114 C36.251,17.615 32.15,17.374 29.437,17.214 L29.437,17.214 Z M10.28,56.887 L40.396,27.469 L43.191,30.291 L13.072,59.712 C12.703,60.084 12.061,60.085 11.691,59.711 L10.291,58.298 C10.102,58.107 9.998,57.853 9.999,57.582 C10.001,57.314 10.104,57.063 10.28,56.887 L10.28,56.887 Z" id="Shape" fill="#000000"></path>
    </g>
</svg>