<?xml version="1.0" encoding="UTF-8" standalone="no"?>
<svg width="64px" height="64px" viewBox="0 0 64 64" version="1.1" xmlns="http://www.w3.org/2000/svg" xmlns:xlink="http://www.w3.org/1999/xlink">
    <!-- Generator: Sketch 3.7.2 (28276) - http://www.bohemiancoding.com/sketch -->
    <title>con-drill</title>
    <desc>Created with Sketch.</desc>
    <defs></defs>
    <g id="64px-Line" stroke="none" stroke-width="1" fill="none" fill-rule="evenodd">
        <g id="con-drill"></g>
        <path d="M11,18 L19,18 C19.552,18 20,17.552 20,17 C20,16.448 19.552,16 19,16 L11,16 C10.448,16 10,16.448 10,17 C10,17.552 10.448,18 11,18 L11,18 Z" id="Shape" fill="#000000"></path>
        <path d="M11,14 L19,14 C19.552,14 20,13.552 20,13 C20,12.448 19.552,12 19,12 L11,12 C10.448,12 10,12.448 10,13 C10,13.552 10.448,14 11,14 L11,14 Z" id="Shape" fill="#000000"></path>
        <path d="M9,26 L9.754,26 L6.024,42.783 C6.016,42.82 6.026,42.855 6.022,42.892 C6.018,42.929 6,42.962 6,43 L6,53 C6,54.654 7.346,56 9,56 L25,56 C26.654,56 28,54.654 28,53 L28,45 C28,43.346 26.654,42 25,42 L19,42 L18.375,42 C17.479,42 16.75,41.271 16.75,40.375 C16.75,40.22 16.771,40.066 16.831,39.851 L18.518,32 L23,32 C23.404,32 23.769,31.756 23.924,31.382 C24.079,31.008 23.993,30.578 23.707,30.292 C22.787,29.373 23.488,27.868 24.574,26 L35,26 C37.414,26 39.434,24.279 39.899,22 L45,22 C46.654,22 48,20.654 48,19 L48,18 L59,18 C59.552,18 60,17.552 60,17 C60,16.448 59.552,16 59,16 L48,16 L48,15 C48,13.346 46.654,12 45,12 L39.899,12 C39.434,9.721 37.415,8 35,8 L9,8 C6.243,8 4,10.243 4,13 L4,21 C4,23.757 6.243,26 9,26 L9,26 Z M19,44 L25,44 C25.551,44 26,44.449 26,45 L26,53 C26,53.551 25.551,54 25,54 L9,54 C8.449,54 8,53.551 8,53 L8,44 L18.375,44 L19,44 L19,44 Z M8.246,42 L11.802,26 L17.763,26 L14.893,39.363 C14.798,39.691 14.75,40.031 14.75,40.375 C14.75,40.962 14.904,41.509 15.152,42 L8.246,42 L8.246,42 Z M21.347,30 L18.948,30 L19.808,26 L22.283,26 C21.628,27.247 21.074,28.676 21.347,30 L21.347,30 Z M46,15 L46,19 C46,19.551 45.551,20 45,20 L40,20 L40,14 L45,14 C45.551,14 46,14.449 46,15 L46,15 Z M6,13 C6,11.346 7.346,10 9,10 L35,10 C36.654,10 38,11.346 38,13 L38,21 C38,22.654 36.654,24 35,24 L9,24 C7.346,24 6,22.654 6,21 L6,13 L6,13 Z" id="Shape" fill="#000000"></path>
    </g>
</svg>