<?xml version="1.0" encoding="UTF-8" standalone="no"?>
<svg width="44px" height="44px" viewBox="0 0 44 44" version="1.1" xmlns="http://www.w3.org/2000/svg" xmlns:xlink="http://www.w3.org/1999/xlink">
    <!-- Generator: Sketch 3.7.2 (28276) - http://www.bohemiancoding.com/sketch -->
    <title>con-screwdriver</title>
    <desc>Created with Sketch.</desc>
    <defs></defs>
    <g id="44px-Line" stroke="none" stroke-width="1" fill="none" fill-rule="evenodd">
        <g id="con-screwdriver"></g>
        <path d="M0,40.667 C0,40.933 0.105,41.188 0.293,41.375 L2.626,43.707 C2.814,43.895 3.068,44 3.333,44 L3.335,44 C3.601,44 3.856,43.894 4.042,43.705 L24.468,23.15 L25.959,24.641 C26.154,24.836 26.41,24.934 26.666,24.934 C26.922,24.934 27.178,24.836 27.373,24.641 L28.473,23.541 C28.709,23.305 28.812,22.966 28.746,22.639 C28.585,21.831 28.902,20.912 29.573,20.241 C30.244,19.571 31.165,19.258 31.97,19.415 C32.294,19.48 32.636,19.378 32.872,19.142 L42.771,9.243 C44.163,7.851 44.12,6.439 43.838,5.5 C43.546,4.524 42.858,3.517 41.67,2.33 C40.483,1.142 39.476,0.454 38.5,0.162 C37.559,-0.12 36.148,-0.161 34.757,1.231 L24.858,11.129 C24.615,11.372 24.518,11.72 24.587,12.046 C24.742,12.85 24.425,13.761 23.757,14.429 C23.087,15.099 22.172,15.414 21.361,15.256 C21.037,15.189 20.695,15.294 20.458,15.53 L19.358,16.632 C18.968,17.023 18.968,17.655 19.359,18.046 L20.848,19.535 L0.294,39.962 C0.106,40.146 0,40.401 0,40.667 L0,40.667 Z M21.53,17.287 C22.833,17.36 24.18,16.835 25.173,15.842 C26.167,14.848 26.695,13.493 26.619,12.196 L36.173,2.643 C36.912,1.902 37.476,1.94 37.929,2.077 C38.566,2.267 39.327,2.812 40.258,3.744 C41.189,4.674 41.734,5.436 41.924,6.073 C42.06,6.526 42.099,7.089 41.359,7.829 L31.803,17.383 C30.49,17.31 29.152,17.836 28.159,18.829 C27.148,19.84 26.629,21.17 26.712,22.475 L26.666,22.521 L21.481,17.337 L21.53,17.287 L21.53,17.287 Z M23.054,21.736 L6.654,38.24 L5.761,37.347 L22.264,20.947 L23.054,21.736 L23.054,21.736 Z M4.343,38.756 L5.245,39.658 L3.332,41.583 L2.418,40.669 L4.343,38.756 L4.343,38.756 Z" id="Shape" fill="#000000"></path>
    </g>
</svg>