<?xml version="1.0" encoding="UTF-8" standalone="no"?>
<svg width="64px" height="64px" viewBox="0 0 64 64" version="1.1" xmlns="http://www.w3.org/2000/svg" xmlns:xlink="http://www.w3.org/1999/xlink">
    <!-- Generator: Sketch 3.7.2 (28276) - http://www.bohemiancoding.com/sketch -->
    <title>con-warning</title>
    <desc>Created with Sketch.</desc>
    <defs></defs>
    <g id="64px-Glyph" stroke="none" stroke-width="1" fill="none" fill-rule="evenodd">
        <g id="con-warning" fill="#000000">
            <path d="M31,22 C29.371,22 28.042,23.304 28.001,24.923 L29.986,36.835 C29.995,36.89 30,36.945 30,37 C30,37.551 30.448,38 31,38 C31.552,38 32,37.551 32,37 C32,36.945 32.005,36.89 32.014,36.835 L33.999,24.923 C33.958,23.304 32.629,22 31,22" id="Fill-161"></path>
            <path d="M31,44 C30.448,44 30,44.449 30,45 C30,45.551 30.448,46 31,46 C31.552,46 32,45.551 32,45 C32,44.449 31.552,44 31,44" id="Fill-162"></path>
            <path d="M35.9863,25.1646 L33.9993,37.0906 C33.9503,38.7026 32.6243,39.9996 31.0003,39.9996 C29.3763,39.9996 28.0503,38.7026 28.0013,37.0906 L26.0133,25.1646 C26.0053,25.1096 26.0003,25.0556 26.0003,24.9996 C26.0003,22.2436 28.2433,19.9996 31.0003,19.9996 C33.7573,19.9996 36.0003,22.2436 36.0003,24.9996 C36.0003,25.0556 35.9953,25.1096 35.9863,25.1646 M31.0003,47.9996 C29.3453,47.9996 28.0003,46.6546 28.0003,44.9996 C28.0003,43.3456 29.3453,41.9996 31.0003,41.9996 C32.6543,41.9996 34.0003,43.3456 34.0003,44.9996 C34.0003,46.6546 32.6543,47.9996 31.0003,47.9996 M59.2733,45.8946 C59.2523,45.8466 59.2263,45.8006 59.1983,45.7556 L36.7543,11.0226 C36.7353,10.9896 36.7153,10.9566 36.6923,10.9266 C35.3793,9.0936 33.2513,7.9996 31.0003,7.9996 C28.7493,7.9996 26.6213,9.0936 25.3073,10.9266 C25.2853,10.9566 25.2643,10.9896 25.2473,11.0216 L2.8023,45.7556 C2.7733,45.8006 2.7483,45.8466 2.7263,45.8946 C2.6523,46.0626 2.0003,47.5816 2.0003,48.9996 C2.0003,52.8596 5.1403,55.9996 9.0003,55.9996 L53.0003,55.9996 C56.8593,55.9996 60.0003,52.8596 60.0003,48.9996 C60.0003,47.5816 59.3473,46.0626 59.2733,45.8946" id="Fill-163"></path>
        </g>
    </g>
</svg>