<?xml version="1.0" encoding="UTF-8" standalone="no"?>
<svg width="64px" height="64px" viewBox="0 0 64 64" version="1.1" xmlns="http://www.w3.org/2000/svg" xmlns:xlink="http://www.w3.org/1999/xlink">
    <!-- Generator: Sketch 3.7.2 (28276) - http://www.bohemiancoding.com/sketch -->
    <title>con-hammer-screwdriver-2</title>
    <desc>Created with Sketch.</desc>
    <defs></defs>
    <g id="64px-Line" stroke="none" stroke-width="1" fill="none" fill-rule="evenodd">
        <g id="con-hammer-screwdriver-2"></g>
        <path d="M26.122,20.213 L13.394,7.485 C12.037,6.129 10.514,5.69 8.864,6.183 C7.656,6.544 6.399,7.407 4.907,8.899 C3.683,10.123 -0.042,13.847 3.493,17.383 L16.222,30.112 C16.434,30.324 16.731,30.424 17.029,30.399 C17.075,30.394 17.121,30.386 17.166,30.376 C18.286,30.168 19.546,30.608 20.464,31.525 C21.394,32.455 21.831,33.734 21.606,34.865 C21.541,35.192 21.643,35.531 21.879,35.767 L23.292,37.181 C23.48,37.369 23.734,37.474 24,37.474 C24.265,37.474 24.52,37.369 24.707,37.181 L26.743,35.146 L51.293,59.696 C51.488,59.891 51.744,59.989 52,59.989 C52.256,59.989 52.512,59.891 52.707,59.696 L55.707,56.696 C56.098,56.305 56.098,55.673 55.707,55.282 L31.157,30.732 L33.192,28.698 C33.38,28.51 33.485,28.257 33.485,27.991 C33.485,27.725 33.38,27.471 33.192,27.284 L31.777,25.869 C31.541,25.633 31.2,25.531 30.874,25.596 C29.746,25.818 28.465,25.385 27.536,24.455 C26.607,23.525 26.169,22.245 26.395,21.115 C26.461,20.788 26.358,20.449 26.122,20.213 L26.122,20.213 Z M52,57.576 L49.172,54.748 L50.758,53.162 L53.586,55.99 L52,57.576 L52,57.576 Z M49.344,51.748 L47.758,53.334 L28.157,33.733 L29.743,32.147 L49.344,51.748 L49.344,51.748 Z M30.714,27.636 L31.071,27.992 L24,35.062 L23.645,34.707 C23.782,33.083 23.132,31.366 21.879,30.113 C20.626,28.859 18.911,28.211 17.283,28.346 L4.908,15.97 C3.635,14.697 3.388,13.247 6.322,10.314 C7.553,9.084 8.572,8.359 9.438,8.1 C10.063,7.912 10.917,7.837 11.98,8.9 L24.355,21.277 C24.219,22.901 24.868,24.618 26.122,25.871 C27.376,27.124 29.098,27.772 30.714,27.636 L30.714,27.636 Z" id="Shape" fill="#000000"></path>
        <path d="M59.313,21.798 C59.066,21.548 58.046,20.755 55.293,21.124 C53.946,21.3 52.961,21.057 52.286,20.37 C51.117,19.182 51.117,17.249 52.286,16.061 C52.669,15.672 52.669,15.047 52.286,14.659 L46.664,8.947 C37.864,0.003 23.242,5.803 22.623,6.053 C22.2,6.225 21.948,6.661 22.008,7.114 C22.069,7.566 22.428,7.92 22.881,7.973 C22.957,7.982 30.548,8.943 35.351,14.579 C35.359,14.589 35.371,14.592 35.38,14.601 C35.389,14.61 35.391,14.622 35.4,14.631 C36.569,15.819 36.569,17.753 35.4,18.942 L32.588,21.799 C32.201,22.193 32.206,22.825 32.6,23.213 C32.795,23.404 33.048,23.5 33.301,23.5 C33.56,23.5 33.818,23.4 34.014,23.201 L34.294,22.917 L38.523,27.213 L35.404,30.409 C35.018,30.805 35.026,31.437 35.422,31.823 C35.817,32.208 36.45,32.202 36.836,31.805 L40.621,27.926 C40.622,27.925 40.624,27.925 40.626,27.923 C40.628,27.922 40.628,27.919 40.63,27.918 L42.449,26.054 C43.571,24.915 45.523,24.914 46.645,26.055 C47.493,26.915 47.529,28.169 47.41,29.071 C47.034,31.914 47.806,32.946 48.05,33.195 L50.157,35.334 C50.534,35.72 51.037,35.932 51.574,35.932 C52.111,35.932 52.614,35.72 52.989,35.336 L61.424,26.771 C62.192,25.99 62.191,24.719 61.424,23.94 L59.313,21.798 L59.313,21.798 Z M51.583,33.935 L49.535,31.864 C49.531,31.858 49.139,31.244 49.391,29.336 C49.645,27.41 49.188,25.791 48.068,24.655 C47.128,23.7 45.877,23.175 44.545,23.175 C43.213,23.175 41.962,23.7 41.019,24.658 L39.919,25.785 L35.696,21.495 L36.826,20.347 C38.733,18.409 38.748,15.276 36.888,13.309 C36.882,13.301 36.881,13.292 36.875,13.285 C36.862,13.269 36.847,13.256 36.833,13.241 C36.831,13.239 36.829,13.235 36.826,13.233 C36.825,13.232 36.824,13.232 36.823,13.231 C33.736,9.639 29.72,7.788 26.831,6.862 C31.48,5.746 39.791,4.817 45.238,10.352 L50.238,15.432 C48.959,17.385 49.166,20.054 50.86,21.775 C51.99,22.925 53.573,23.373 55.556,23.109 C55.987,23.051 56.348,23.03 56.648,23.03 C57.558,23.03 57.916,23.224 57.891,23.208 L59.996,25.373 L51.583,33.935 L51.583,33.935 Z" id="Shape" fill="#000000"></path>
        <path d="M8.003,60 L8.003,60 C8.672,60 9.299,59.737 9.773,59.258 L27.858,40.834 C28.245,40.44 28.239,39.807 27.845,39.42 C27.45,39.034 26.817,39.037 26.43,39.434 L8.347,57.856 C8.223,57.982 8.079,58.001 8.004,58.001 C7.929,58.001 7.786,57.982 7.663,57.857 L4.148,54.285 C3.951,54.086 3.952,53.748 4.15,53.547 L19.37,38.035 C19.757,37.64 19.751,37.008 19.356,36.621 C18.962,36.235 18.329,36.239 17.942,36.635 L2.724,52.145 C1.761,53.124 1.761,54.713 2.724,55.689 L6.238,59.261 C6.708,59.736 7.335,60 8.003,60 L8.003,60 Z" id="Shape" fill="#000000"></path>
    </g>
</svg>