<?xml version="1.0" encoding="UTF-8" standalone="no"?>
<svg width="44px" height="44px" viewBox="0 0 44 44" version="1.1" xmlns="http://www.w3.org/2000/svg" xmlns:xlink="http://www.w3.org/1999/xlink">
    <!-- Generator: Sketch 3.7.2 (28276) - http://www.bohemiancoding.com/sketch -->
    <title>con-protractor</title>
    <desc>Created with Sketch.</desc>
    <defs></defs>
    <g id="44px-Line" stroke="none" stroke-width="1" fill="none" fill-rule="evenodd">
        <g id="con-protractor"></g>
        <path d="M6.691,40.098 C6.886,40.293 7.142,40.391 7.398,40.391 C7.654,40.391 7.91,40.293 8.105,40.098 L9.567,38.636 C13.482,42.19 18.431,43.991 23.394,43.99 C28.669,43.99 33.947,41.981 37.963,37.965 C41.856,34.073 43.999,28.899 43.999,23.395 C43.999,18.227 42.089,13.364 38.636,9.566 L40.097,8.106 C40.285,7.918 40.39,7.664 40.39,7.399 C40.39,7.134 40.285,6.879 40.097,6.692 L33.699,0.294 C33.308,-0.097 32.676,-0.097 32.285,0.294 L29.088,3.491 C29.087,3.492 29.086,3.492 29.085,3.493 C29.084,3.494 29.084,3.495 29.083,3.496 L22.689,9.89 C22.688,9.891 22.687,9.891 22.686,9.892 C22.685,9.893 22.685,9.894 22.684,9.895 L16.29,16.289 C16.289,16.29 16.288,16.29 16.287,16.291 C16.286,16.292 16.286,16.293 16.285,16.294 L0.292,32.287 C-0.099,32.678 -0.099,33.31 0.292,33.701 L6.691,40.098 L6.691,40.098 Z M4.199,31.207 L5.625,32.633 C5.82,32.828 6.076,32.926 6.332,32.926 C6.588,32.926 6.844,32.828 7.039,32.633 C7.43,32.243 7.43,31.61 7.039,31.219 L5.613,29.793 L7.398,28.008 L9.89,30.5 C10.085,30.695 10.341,30.793 10.597,30.793 C10.853,30.793 11.109,30.695 11.304,30.5 C11.695,30.109 11.695,29.477 11.304,29.086 L8.812,26.594 L10.597,24.809 L12.023,26.235 C12.218,26.43 12.474,26.528 12.73,26.528 C12.986,26.528 13.242,26.43 13.437,26.235 C13.828,25.844 13.828,25.212 13.437,24.821 L12.011,23.395 L13.796,21.61 L16.287,24.102 C16.482,24.297 16.738,24.395 16.994,24.395 C17.25,24.395 17.506,24.297 17.701,24.102 C18.092,23.712 18.092,23.079 17.701,22.688 L15.21,20.196 L16.995,18.411 L18.421,19.837 C18.616,20.032 18.872,20.13 19.128,20.13 C19.384,20.13 19.64,20.032 19.835,19.837 C20.226,19.446 20.226,18.813 19.835,18.423 L18.409,16.997 L20.194,15.212 L22.685,17.704 C22.88,17.899 23.136,17.997 23.392,17.997 C23.648,17.997 23.904,17.899 24.099,17.704 C24.49,17.314 24.49,16.681 24.099,16.29 L21.608,13.798 L23.393,12.013 L24.819,13.439 C25.014,13.634 25.27,13.732 25.526,13.732 C25.782,13.732 26.038,13.634 26.233,13.439 C26.624,13.048 26.624,12.415 26.233,12.025 L24.807,10.599 L26.592,8.814 L29.083,11.306 C29.278,11.501 29.534,11.599 29.79,11.599 C30.046,11.599 30.302,11.501 30.497,11.306 C30.888,10.916 30.888,10.283 30.497,9.892 L28.006,7.4 L29.791,5.615 L31.217,7.041 C31.412,7.236 31.668,7.334 31.924,7.334 C32.18,7.334 32.436,7.236 32.631,7.041 C33.022,6.65 33.022,6.017 32.631,5.627 L31.205,4.201 L32.99,2.416 L37.974,7.4 L36.547,8.826 C36.352,9.021 36.254,9.277 36.254,9.533 C36.254,9.789 36.352,10.045 36.547,10.24 C40.062,13.755 41.997,18.427 41.997,23.397 C41.997,28.366 40.061,33.039 36.547,36.553 C29.294,43.806 17.49,43.807 10.235,36.553 C9.844,36.162 9.212,36.162 8.821,36.553 L7.395,37.979 L2.411,32.995 L4.199,31.207 L4.199,31.207 Z" id="Shape" fill="#000000"></path>
        <path d="M14.293,32.46 C16.719,34.886 19.944,36.223 23.376,36.223 C26.808,36.223 30.034,34.887 32.461,32.46 C37.468,27.451 37.468,19.301 32.461,14.293 C32.07,13.902 31.438,13.902 31.047,14.293 L14.293,31.046 C14.098,31.241 14,31.497 14,31.753 C14,32.009 14.098,32.265 14.293,32.46 L14.293,32.46 Z M31.047,31.046 C28.998,33.094 26.274,34.223 23.376,34.223 C20.815,34.223 18.391,33.338 16.449,31.719 L31.719,16.45 C35.257,20.706 35.036,27.055 31.047,31.046 L31.047,31.046 Z" id="Shape" fill="#000000"></path>
    </g>
</svg>