<?xml version="1.0" encoding="UTF-8" standalone="no"?>
<svg width="44px" height="44px" viewBox="0 0 44 44" version="1.1" xmlns="http://www.w3.org/2000/svg" xmlns:xlink="http://www.w3.org/1999/xlink">
    <!-- Generator: Sketch 3.7.2 (28276) - http://www.bohemiancoding.com/sketch -->
    <title>con-set-square</title>
    <desc>Created with Sketch.</desc>
    <defs></defs>
    <g id="44px-Line" stroke="none" stroke-width="1" fill="none" fill-rule="evenodd">
        <g id="con-set-square"></g>
        <path d="M43.383,0.076 C43.009,-0.079 42.579,0.007 42.293,0.293 L0.293,42.293 C0.007,42.579 -0.079,43.009 0.076,43.383 C0.23,43.757 0.596,44 1,44 L43,44 C43.553,44 44,43.552 44,43 L44,1 C44,0.596 43.757,0.231 43.383,0.076 L43.383,0.076 Z M3.414,42 L42,3.414 L42,12 L39,12 C38.447,12 38,12.448 38,13 C38,13.552 38.447,14 39,14 L42,14 L42,18 L37,18 C36.447,18 36,18.448 36,19 C36,19.552 36.447,20 37,20 L42,20 L42,24 L39,24 C38.447,24 38,24.448 38,25 C38,25.552 38.447,26 39,26 L42,26 L42,30 L37,30 C36.447,30 36,30.448 36,31 C36,31.552 36.447,32 37,32 L42,32 L42,36 L39,36 C38.447,36 38,36.448 38,37 C38,37.552 38.447,38 39,38 L42,38 L42,42 L3.414,42 L3.414,42 Z" id="Shape" fill="#000000"></path>
        <path d="M33.383,22.076 C33.01,21.921 32.579,22.006 32.293,22.293 L22.293,32.293 C22.007,32.579 21.921,33.009 22.076,33.383 C22.23,33.757 22.596,34 23,34 L33,34 C33.553,34 34,33.552 34,33 L34,23 C34,22.596 33.757,22.231 33.383,22.076 L33.383,22.076 Z M32,32 L25.414,32 L32,25.414 L32,32 L32,32 Z" id="Shape" fill="#000000"></path>
    </g>
</svg>