<?xml version="1.0" encoding="UTF-8" standalone="no"?>
<svg width="64px" height="64px" viewBox="0 0 64 64" version="1.1" xmlns="http://www.w3.org/2000/svg" xmlns:xlink="http://www.w3.org/1999/xlink">
    <!-- Generator: Sketch 3.7.2 (28276) - http://www.bohemiancoding.com/sketch -->
    <title>db-database</title>
    <desc>Created with Sketch.</desc>
    <defs></defs>
    <g id="64px-Glyph" stroke="none" stroke-width="1" fill="none" fill-rule="evenodd">
        <g id="db-database" fill="#000000">
            <path d="M32,20 C28.77,20 15.16,19.715 10,15.12 L10,25 C10,29.81 21.404,32 32,32 C42.596,32 54,29.81 54,25 L54,15.12 C48.84,19.715 35.23,20 32,20" id="Fill-442"></path>
            <path d="M32,46 C42.596,46 54,43.81 54,39 L54,29.12 C48.84,33.715 35.23,34 32,34 C28.77,34 15.16,33.715 10,29.12 L10,39 C10,43.81 21.404,46 32,46" id="Fill-443"></path>
            <path d="M32,18 C42.596,18 54,15.81 54,11 C54,6.19 42.596,4 32,4 C21.404,4 10,6.19 10,11 C10,15.81 21.404,18 32,18" id="Fill-444"></path>
            <path d="M32,48 C28.77,48 15.16,47.715 10,43.12 L10,53 C10,57.81 21.404,60 32,60 C42.596,60 54,57.81 54,53 L54,43.12 C48.84,47.715 35.23,48 32,48" id="Fill-445"></path>
        </g>
    </g>
</svg>