<?xml version="1.0" encoding="UTF-8" standalone="no"?>
<svg width="64px" height="64px" viewBox="0 0 64 64" version="1.1" xmlns="http://www.w3.org/2000/svg" xmlns:xlink="http://www.w3.org/1999/xlink">
    <!-- Generator: Sketch 3.7.2 (28276) - http://www.bohemiancoding.com/sketch -->
    <title>db-databases</title>
    <desc>Created with Sketch.</desc>
    <defs></defs>
    <g id="64px-Glyph" stroke="none" stroke-width="1" fill="none" fill-rule="evenodd">
        <g id="db-databases" fill="#000000">
            <path d="M21,32 C14.332,32 7.336,30.891 4,28.027 L4,34 C4,38.145 12.538,40 21,40 C29.462,40 38,38.145 38,34 L38,28.027 C34.664,30.891 27.668,32 21,32" id="Fill-408"></path>
            <path d="M21,50 C29.462,50 38,48.145 38,44 L38,38.027 C34.664,40.891 27.668,42 21,42 C14.332,42 7.336,40.891 4,38.027 L4,44 C4,48.145 12.538,50 21,50" id="Fill-409"></path>
            <path d="M21,30 C29.462,30 38,28.145 38,24 C38,19.855 29.461,18 20.999,18 C12.538,18 4,19.855 4,24 C4,28.145 12.538,30 21,30" id="Fill-410"></path>
            <path d="M21,52 C14.332,52 7.336,50.891 4,48.027 L4,54 C4,58.145 12.538,60 21,60 C29.462,60 38,58.145 38,54 L38,48.027 C34.664,50.891 27.668,52 21,52" id="Fill-411"></path>
            <path d="M41,18 C49.462,18 58,16.145 58,12 C58,7.855 49.461,6 40.999,6 C32.538,6 24,7.855 24,12 C24,16.145 32.538,18 41,18" id="Fill-412"></path>
            <path d="M41,40 C40.668,40 40.334,39.995 40,39.989 L40,47.986 C40.333,47.992 40.666,48 41,48 C49.462,48 58,46.145 58,42 L58,36.027 C54.664,38.891 47.668,40 41,40" id="Fill-413"></path>
            <path d="M41,30 C40.668,30 40.334,29.995 40,29.989 L40,37.986 C40.333,37.992 40.666,38 41,38 C49.462,38 58,36.145 58,32 L58,26.027 C54.664,28.891 47.668,30 41,30" id="Fill-414"></path>
            <path d="M41,20 C39.971,20 38.935,19.97 37.904,19.915 C39.729,21.509 40,23.17 40,24 L40,27.986 C40.333,27.992 40.666,28 41,28 C49.462,28 58,26.145 58,22 L58,16.027 C54.664,18.891 47.668,20 41,20" id="Fill-415"></path>
        </g>
    </g>
</svg>