<?xml version="1.0" encoding="UTF-8" standalone="no"?>
<svg width="64px" height="64px" viewBox="0 0 64 64" version="1.1" xmlns="http://www.w3.org/2000/svg" xmlns:xlink="http://www.w3.org/1999/xlink">
    <!-- Generator: Sketch 3.7.2 (28276) - http://www.bohemiancoding.com/sketch -->
    <title>db-location</title>
    <desc>Created with Sketch.</desc>
    <defs></defs>
    <g id="64px-Glyph" stroke="none" stroke-width="1" fill="none" fill-rule="evenodd">
        <g id="db-location" fill="#000000">
            <path d="M25,20 C21.144,20 10.462,19.646 6,15.934 L6,24 C6,28.145 15.543,30 25,30 C34.457,30 44,28.145 44,24 L44,15.934 C39.538,19.646 28.856,20 25,20" id="Fill-359"></path>
            <path d="M25,18 C34.457,18 44,16.145 44,12 C44,7.855 34.457,6 24.999,6 C15.542,6 6,7.855 6,12 C6,16.145 15.543,18 25,18" id="Fill-360"></path>
            <path d="M37.1318,45.8623 C36.6828,44.9523 36.3838,44.0003 36.2018,43.0213 C31.8738,43.8723 27.2628,44.0003 24.9998,44.0003 C21.1438,44.0003 10.4618,43.6453 5.9998,39.9333 L5.9998,48.0003 C5.9998,52.1443 15.5428,54.0003 24.9998,54.0003 C30.7198,54.0003 36.4568,53.3163 40.1088,51.8623 L37.1318,45.8623 Z" id="Fill-361"></path>
            <path d="M36,41 C36,35.976 39.39,31.737 44,30.426 L44,27.934 C39.538,31.646 28.856,32 25,32 C21.144,32 10.462,31.646 6,27.934 L6,36 C6,40.145 15.543,42 25,42 C28.878,42 32.759,41.682 36.002,41.028 C36.002,41.019 36,41.01 36,41" id="Fill-362"></path>
            <path d="M47,44 C45.343,44 44,42.657 44,41 C44,39.343 45.343,38 47,38 C48.657,38 50,39.343 50,41 C50,42.657 48.657,44 47,44 M47,32 C42.037,32 38,36.037 38,41 C38,42.394 38.31,43.729 38.923,44.974 L46.104,59.444 C46.273,59.785 46.62,60 47,60 C47.38,60 47.727,59.785 47.896,59.444 L55.079,44.971 C55.69,43.729 56,42.394 56,41 C56,36.037 51.963,32 47,32" id="Fill-363"></path>
        </g>
    </g>
</svg>