<?xml version="1.0" encoding="UTF-8" standalone="no"?>
<svg width="64px" height="64px" viewBox="0 0 64 64" version="1.1" xmlns="http://www.w3.org/2000/svg" xmlns:xlink="http://www.w3.org/1999/xlink">
    <!-- Generator: Sketch 3.7.2 (28276) - http://www.bohemiancoding.com/sketch -->
    <title>db-merge-columns</title>
    <desc>Created with Sketch.</desc>
    <defs></defs>
    <g id="64px-Glyph" stroke="none" stroke-width="1" fill="none" fill-rule="evenodd">
        <g id="db-merge-columns" fill="#000000">
            <polygon id="Fill-175" points="20 58 30 58 30 46 20 46"></polygon>
            <polygon id="Fill-176" points="20 44 30 44 30 34 20 34"></polygon>
            <polygon id="Fill-177" points="6 44 18 44 18 34 6 34"></polygon>
            <polygon id="Fill-178" points="32 20 42 20 42 8 32 8"></polygon>
            <polygon id="Fill-179" points="20 20 30 20 30 8 20 8"></polygon>
            <path d="M6,32 L56,32 L56,22 L43.019,22 C43.013,22 43.007,22.004 43,22.004 C42.993,22.004 42.987,22 42.981,22 L31.019,22 C31.013,22 31.007,22.004 31,22.004 C30.993,22.004 30.987,22 30.981,22 L19.019,22 C19.013,22 19.007,22.004 19,22.004 C18.993,22.004 18.987,22 18.981,22 L6,22 L6,32 Z" id="Fill-180"></path>
            <path d="M44,20 L56,20 L56,12 C56,9.794 54.206,8 52,8 L44,8 L44,20 Z" id="Fill-181"></path>
            <polygon id="Fill-182" points="32 58 42 58 42 46 32 46"></polygon>
            <path d="M44,46 L44,58 L52,58 C54.206,58 56,56.206 56,54 L56,46 L44,46 Z" id="Fill-183"></path>
            <path d="M18,20 L18,8 L10,8 C7.794,8 6,9.794 6,12 L6,20 L18,20 Z" id="Fill-184"></path>
            <path d="M18,46 L6,46 L6,54 C6,56.206 7.794,58 10,58 L18,58 L18,46 Z" id="Fill-185"></path>
            <polygon id="Fill-186" points="32 44 42 44 42 34 32 34"></polygon>
            <polygon id="Fill-187" points="44 44 56 44 56 34 44 34"></polygon>
        </g>
    </g>
</svg>