<?xml version="1.0" encoding="UTF-8" standalone="no"?>
<svg width="64px" height="64px" viewBox="0 0 64 64" version="1.1" xmlns="http://www.w3.org/2000/svg" xmlns:xlink="http://www.w3.org/1999/xlink">
    <!-- Generator: Sketch 3.7.2 (28276) - http://www.bohemiancoding.com/sketch -->
    <title>db-network-2</title>
    <desc>Created with Sketch.</desc>
    <defs></defs>
    <g id="64px-Line" stroke="none" stroke-width="1" fill="none" fill-rule="evenodd">
        <g id="db-network-2"></g>
        <path d="M57,52 C57.552,52 58,51.552 58,51 C58,50.448 57.552,50 57,50 L38,50 L38,49 C38,48.448 37.552,48 37,48 L34,48 L34,41.919 C41.367,41.525 48,39.653 48,36 L48,28 L48,20 L48,12 C48,7.855 39.461,6 30.999,6 C22.538,6 14,7.855 14,12 L14,20 L14,28 L14,36 C14,39.653 20.633,41.525 28,41.919 L28,48 L25,48 C24.448,48 24,48.448 24,49 L24,50 L5,50 C4.448,50 4,50.448 4,51 C4,51.552 4.448,52 5,52 L24,52 L24,54 L5,54 C4.448,54 4,54.448 4,55 C4,55.552 4.448,56 5,56 L24,56 L24,57 C24,57.552 24.448,58 25,58 L37,58 C37.552,58 38,57.552 38,57 L38,56 L57,56 C57.552,56 58,55.552 58,55 C58,54.448 57.552,54 57,54 L38,54 L38,52 L57,52 L57,52 Z M46,20 C46,21.635 40.658,24 31,24 C21.342,24 16,21.635 16,20 L16,15.061 C19.015,17.068 25.019,18 31,18 C36.981,18 42.985,17.067 46,15.061 L46,20 L46,20 Z M16,23.061 C19.015,25.068 25.019,26 31,26 C36.981,26 42.985,25.067 46,23.061 L46,28 C46,29.635 40.658,32 31,32 C21.342,32 16,29.635 16,28 L16,23.061 L16,23.061 Z M30.999,8 C40.658,8 46,10.365 46,12 C46,13.635 40.658,16 31,16 C21.342,16 16,13.635 16,12 C16,10.365 21.341,8 30.999,8 L30.999,8 Z M16,36 L16,31.061 C19.015,33.068 25.019,34 31,34 C36.981,34 42.985,33.067 46,31.061 L46,36 C46,37.635 40.658,40 31,40 C21.342,40 16,37.635 16,36 L16,36 Z M30,41.986 C30.333,41.992 30.666,42 31,42 C31.334,42 31.667,41.992 32,41.986 L32,48 L30,48 L30,41.986 L30,41.986 Z M36,56 L26,56 L26,50 L36,50 L36,56 L36,56 Z" id="Shape" fill="#000000"></path>
    </g>
</svg>