<?xml version="1.0" encoding="UTF-8" standalone="no"?>
<svg width="64px" height="64px" viewBox="0 0 64 64" version="1.1" xmlns="http://www.w3.org/2000/svg" xmlns:xlink="http://www.w3.org/1999/xlink">
    <!-- Generator: Sketch 3.7.2 (28276) - http://www.bohemiancoding.com/sketch -->
    <title>db-plus</title>
    <desc>Created with Sketch.</desc>
    <defs></defs>
    <g id="64px-Glyph" stroke="none" stroke-width="1" fill="none" fill-rule="evenodd">
        <g id="db-plus" fill="#000000">
            <path d="M23,20 C19.144,20 8.462,19.646 4,15.934 L4,24 C4,28.145 13.543,30 23,30 C32.457,30 42,28.145 42,24 L42,15.934 C37.538,19.646 26.856,20 23,20" id="Fill-403"></path>
            <path d="M23,18 C32.457,18 42,16.145 42,12 C42,7.855 32.457,6 22.999,6 C13.542,6 4,7.855 4,12 C4,16.145 13.543,18 23,18" id="Fill-404"></path>
            <path d="M42,32.3022 L42,27.9332 C37.538,31.6452 26.856,32.0002 23,32.0002 C19.144,32.0002 8.462,31.6452 4,27.9332 L4,36.0002 C4,40.1442 13.543,42.0002 23,42.0002 C25.76,42.0002 28.52,41.8372 31.055,41.5102 C32.895,36.8512 36.992,33.3232 42,32.3022" id="Fill-405"></path>
            <path d="M30,47 C30,45.828 30.149,44.692 30.404,43.598 C27.383,43.935 24.601,44 23,44 C19.144,44 8.462,43.646 4,39.934 L4,48 C4,52.145 13.543,54 23,54 C25.914,54 28.833,53.822 31.482,53.457 C30.542,51.499 30,49.314 30,47" id="Fill-406"></path>
            <path d="M51,48 L46,48 L46,53 C46,53.553 45.553,54 45,54 C44.447,54 44,53.553 44,53 L44,48 L39,48 C38.447,48 38,47.553 38,47 C38,46.447 38.447,46 39,46 L44,46 L44,41 C44,40.447 44.447,40 45,40 C45.553,40 46,40.447 46,41 L46,46 L51,46 C51.553,46 52,46.447 52,47 C52,47.553 51.553,48 51,48 M45,34 C37.832,34 32,39.832 32,47 C32,54.168 37.832,60 45,60 C52.168,60 58,54.168 58,47 C58,39.832 52.168,34 45,34" id="Fill-407"></path>
        </g>
    </g>
</svg>