<?xml version="1.0" encoding="UTF-8" standalone="no"?>
<svg width="64px" height="64px" viewBox="0 0 64 64" version="1.1" xmlns="http://www.w3.org/2000/svg" xmlns:xlink="http://www.w3.org/1999/xlink">
    <!-- Generator: Sketch 3.7.2 (28276) - http://www.bohemiancoding.com/sketch -->
    <title>db-row-height</title>
    <desc>Created with Sketch.</desc>
    <defs></defs>
    <g id="64px-Glyph" stroke="none" stroke-width="1" fill="none" fill-rule="evenodd">
        <g id="db-row-height" fill="#000000">
            <path d="M37.707,39.707 L31.708,45.706 C31.616,45.798 31.505,45.872 31.382,45.923 C31.26,45.974 31.13,46 31,46 C30.87,46 30.74,45.974 30.618,45.923 C30.495,45.872 30.384,45.798 30.292,45.706 L24.293,39.707 C23.902,39.316 23.902,38.684 24.293,38.293 C24.684,37.902 25.316,37.902 25.707,38.293 L30,42.586 L30,23.414 L25.707,27.707 C25.316,28.098 24.684,28.098 24.293,27.707 C23.902,27.316 23.902,26.684 24.293,26.293 L30.292,20.294 C30.384,20.202 30.495,20.128 30.618,20.077 C30.862,19.976 31.138,19.976 31.382,20.077 C31.505,20.128 31.616,20.202 31.708,20.294 L37.707,26.293 C38.098,26.684 38.098,27.316 37.707,27.707 C37.512,27.902 37.256,28 37,28 C36.744,28 36.488,27.902 36.293,27.707 L32,23.414 L32,42.586 L36.293,38.293 C36.684,37.902 37.316,37.902 37.707,38.293 C38.098,38.684 38.098,39.316 37.707,39.707 L37.707,39.707 Z M4,48 L58,48 L58,18 L4,18 L4,48 Z" id="Fill-7"></path>
            <path d="M58,16 L58,9 C58,8.447 57.553,8 57,8 L5,8 C4.447,8 4,8.447 4,9 L4,16 L58,16 Z" id="Fill-9"></path>
            <path d="M4,50 L4,57 C4,57.553 4.447,58 5,58 L57,58 C57.553,58 58,57.553 58,57 L58,50 L4,50 Z" id="Fill-11"></path>
        </g>
    </g>
</svg>