<?xml version="1.0" encoding="UTF-8" standalone="no"?>
<svg width="44px" height="44px" viewBox="0 0 44 44" version="1.1" xmlns="http://www.w3.org/2000/svg" xmlns:xlink="http://www.w3.org/1999/xlink">
    <!-- Generator: Sketch 3.7.2 (28276) - http://www.bohemiancoding.com/sketch -->
    <title>db-search</title>
    <desc>Created with Sketch.</desc>
    <defs></defs>
    <g id="44px-Glyph" stroke="none" stroke-width="1" fill="none" fill-rule="evenodd">
        <g id="db-search" fill="#000000">
            <path d="M15,12 C11.188,12 3.608,11.619 0,8.805 L0,13 C0,16.69 8.08,18 15,18 C21.92,18 30,16.69 30,13 L30,8.805 C26.392,11.619 18.812,12 15,12" id="Fill-363"></path>
            <path d="M15,26 C21.92,26 30,24.69 30,21 L30,16.805 C26.392,19.619 18.812,20 15,20 C11.188,20 3.608,19.619 0,16.805 L0,21 C0,24.69 8.08,26 15,26" id="Fill-364"></path>
            <path d="M26,32 C26,29.718 26.777,27.619 28.068,25.935 C24.136,27.721 18.225,28 15,28 C11.188,28 3.608,27.619 0,24.805 L0,29 C0,32.69 8.08,34 15,34 C18.852,34 23.059,33.592 26.036,32.596 C26.024,32.397 26,32.201 26,32" id="Fill-365"></path>
            <path d="M15,10 C21.92,10 30,8.69 30,5 C30,1.31 21.919,0 14.999,0 C8.08,0 0,1.31 0,5 C0,8.69 8.08,10 15,10" id="Fill-366"></path>
            <path d="M36,38 C34.347,38 32.848,37.328 31.761,36.243 L31.76,36.24 C31.759,36.24 31.758,36.239 31.757,36.239 C30.672,35.152 30,33.653 30,32 C30,28.691 32.691,26 36,26 C39.309,26 42,28.691 42,32 C42,35.309 39.309,38 36,38 M36,24 C31.589,24 28,27.589 28,32 C28,33.846 28.634,35.543 29.688,36.897 L24.293,42.293 C23.902,42.684 23.902,43.316 24.293,43.707 C24.488,43.902 24.744,44 25,44 C25.256,44 25.512,43.902 25.707,43.707 L31.102,38.311 C32.458,39.366 34.154,40 36,40 C40.411,40 44,36.411 44,32 C44,27.589 40.411,24 36,24" id="Fill-367"></path>
        </g>
    </g>
</svg>