<?xml version="1.0" encoding="UTF-8" standalone="no"?>
<svg width="44px" height="44px" viewBox="0 0 44 44" version="1.1" xmlns="http://www.w3.org/2000/svg" xmlns:xlink="http://www.w3.org/1999/xlink">
    <!-- Generator: Sketch 3.7.2 (28276) - http://www.bohemiancoding.com/sketch -->
    <title>db-secure</title>
    <desc>Created with Sketch.</desc>
    <defs></defs>
    <g id="44px-Glyph" stroke="none" stroke-width="1" fill="none" fill-rule="evenodd">
        <g id="db-secure" fill="#000000">
            <path d="M30,29 C30,26.243 32.243,24 35,24 C37.757,24 40,26.243 40,29 L40,30 L30,30 L30,29 Z M43,30 L42,30 L42,29 C42,25.141 38.859,22 35,22 C31.141,22 28,25.141 28,29 L28,30 L27,30 C26.447,30 26,30.447 26,31 L26,43 C26,43.553 26.447,44 27,44 L43,44 C43.553,44 44,43.553 44,43 L44,31 C44,30.447 43.553,30 43,30 L43,30 Z" id="Fill-348"></path>
            <path d="M15,12 C11.188,12 3.608,11.619 0,8.805 L0,13 C0,16.69 8.08,18 15,18 C21.92,18 30,16.69 30,13 L30,8.805 C26.392,11.619 18.812,12 15,12" id="Fill-349"></path>
            <path d="M15,26 C21.92,26 30,24.69 30,21 L30,16.805 C26.392,19.619 18.812,20 15,20 C11.188,20 3.608,19.619 0,16.805 L0,21 C0,24.69 8.08,26 15,26" id="Fill-350"></path>
            <path d="M24,31 C24,29.682 24.854,28.56 26.039,28.158 C26.089,27.622 26.19,27.101 26.33,26.596 C22.547,27.793 17.777,28 15,28 C11.188,28 3.608,27.619 0,24.805 L0,29 C0,32.69 8.08,34 15,34 C18.037,34 21.297,33.747 24,33.152 L24,31 Z" id="Fill-351"></path>
            <path d="M15,10 C21.92,10 30,8.69 30,5 C30,1.31 21.919,0 14.999,0 C8.08,0 0,1.31 0,5 C0,8.69 8.08,10 15,10" id="Fill-352"></path>
        </g>
    </g>
</svg>