<?xml version="1.0" encoding="UTF-8" standalone="no"?>
<svg width="44px" height="44px" viewBox="0 0 44 44" version="1.1" xmlns="http://www.w3.org/2000/svg" xmlns:xlink="http://www.w3.org/1999/xlink">
    <!-- Generator: Sketch 3.7.2 (28276) - http://www.bohemiancoding.com/sketch -->
    <title>db-table-edit</title>
    <desc>Created with Sketch.</desc>
    <defs></defs>
    <g id="44px-Glyph" stroke="none" stroke-width="1" fill="none" fill-rule="evenodd">
        <g id="db-table-edit" fill="#000000">
            <path d="M25.1021,36.4756 L22.1031,42.5576 C21.9141,42.9426 21.9901,43.4046 22.2931,43.7066 C22.4851,43.8996 22.7411,43.9996 23.0001,43.9996 C23.1501,43.9996 23.3021,43.9656 23.4421,43.8966 L29.5301,40.8946 L25.1021,36.4756 Z" id="Fill-77"></path>
            <path d="M41.4141,26.3838 L39.6201,24.5888 C39.2411,24.2088 38.7371,23.9998 38.2001,23.9998 L38.1991,23.9998 C37.6621,23.9998 37.1571,24.2088 36.7781,24.5878 L26.4121,34.9568 L31.0461,39.5828 L41.4151,29.2108 C42.1931,28.4308 42.1931,27.1618 41.4141,26.3838" id="Fill-78"></path>
            <polygon id="Fill-79" points="0 16 8 16 8 10 0 10"></polygon>
            <polygon id="Fill-80" points="0 24 8 24 8 18 0 18"></polygon>
            <polygon id="Fill-81" points="10 16 16 16 16 10 10 10"></polygon>
            <polygon id="Fill-82" points="26 16 34 16 34 10 26 10"></polygon>
            <polygon id="Fill-83" points="10 34 16 34 16 26 10 26"></polygon>
            <polygon id="Fill-84" points="18 16 24 16 24 10 18 10"></polygon>
            <polygon id="Fill-85" points="10 24 16 24 16 18 10 18"></polygon>
            <path d="M8,26 L0,26 L0,30 C0,32.206 1.794,34 4,34 L8,34 L8,26 Z" id="Fill-86"></path>
            <path d="M34,8 L34,4 C34,1.794 32.206,0 30,0 L4,0 C1.794,0 0,1.794 0,4 L0,8 L34,8 Z" id="Fill-87"></path>
            <polygon id="Fill-88" points="18 34 24 34 24 26 18 26"></polygon>
            <polygon id="Fill-89" points="32.5388 26 25.9998 26 25.9998 32.54"></polygon>
            <polygon id="Fill-90" points="26 24 34 24 34 18 26 18"></polygon>
            <polygon id="Fill-91" points="18 24 24 24 24 18 18 18"></polygon>
        </g>
    </g>
</svg>