<?xml version="1.0" encoding="UTF-8" standalone="no"?>
<svg width="44px" height="44px" viewBox="0 0 44 44" version="1.1" xmlns="http://www.w3.org/2000/svg" xmlns:xlink="http://www.w3.org/1999/xlink">
    <!-- Generator: Sketch 3.7.2 (28276) - http://www.bohemiancoding.com/sketch -->
    <title>db-tables-connect</title>
    <desc>Created with Sketch.</desc>
    <defs></defs>
    <g id="44px-Glyph" stroke="none" stroke-width="1" fill="none" fill-rule="evenodd">
        <g id="db-tables-connect" fill="#000000">
            <path d="M7,12 C6.447,12 6,11.553 6,11 L6,7 C6,6.447 6.447,6 7,6 L21,6 C21.553,6 22,6.447 22,7 C22,7.553 21.553,8 21,8 L8,8 L8,11 C8,11.553 7.553,12 7,12" id="Fill-249"></path>
            <polygon id="Fill-250" points="0 24 6 24 6 20 0 20"></polygon>
            <polygon id="Fill-251" points="8 30 12 30 12 26 8 26"></polygon>
            <polygon id="Fill-252" points="14 24 20 24 20 20 14 20"></polygon>
            <polygon id="Fill-253" points="8 24 12 24 12 20 8 20"></polygon>
            <path d="M20,18 L20,15 C20,14.447 19.553,14 19,14 L1,14 C0.447,14 0,14.447 0,15 L0,18 L20,18 Z" id="Fill-254"></path>
            <path d="M14,26 L14,30 L19,30 C19.553,30 20,29.553 20,29 L20,26 L14,26 Z" id="Fill-255"></path>
            <path d="M6,26 L0,26 L0,29 C0,29.553 0.447,30 1,30 L6,30 L6,26 Z" id="Fill-256"></path>
            <path d="M21,40 L7,40 C6.447,40 6,39.553 6,39 L6,35 C6,34.447 6.447,34 7,34 C7.553,34 8,34.447 8,35 L8,38 L21,38 C21.553,38 22,38.447 22,39 C22,39.553 21.553,40 21,40" id="Fill-257"></path>
            <polygon id="Fill-258" points="24 36 30 36 30 32 24 32"></polygon>
            <polygon id="Fill-259" points="32 42 36 42 36 38 32 38"></polygon>
            <polygon id="Fill-260" points="38 36 44 36 44 32 38 32"></polygon>
            <polygon id="Fill-261" points="32 36 36 36 36 32 32 32"></polygon>
            <path d="M44,30 L44,27 C44,26.447 43.553,26 43,26 L25,26 C24.447,26 24,26.447 24,27 L24,30 L44,30 Z" id="Fill-262"></path>
            <path d="M38,38 L38,42 L43,42 C43.553,42 44,41.553 44,41 L44,38 L38,38 Z" id="Fill-263"></path>
            <path d="M30,38 L24,38 L24,41 C24,41.553 24.447,42 25,42 L30,42 L30,38 Z" id="Fill-264"></path>
            <polygon id="Fill-265" points="24 10 30 10 30 6 24 6"></polygon>
            <polygon id="Fill-266" points="32 16 36 16 36 12 32 12"></polygon>
            <polygon id="Fill-267" points="38 10 44 10 44 6 38 6"></polygon>
            <polygon id="Fill-268" points="32 10 36 10 36 6 32 6"></polygon>
            <path d="M44,4 L44,1 C44,0.447 43.553,0 43,0 L25,0 C24.447,0 24,0.447 24,1 L24,4 L44,4 Z" id="Fill-269"></path>
            <path d="M38,12 L38,16 L43,16 C43.553,16 44,15.553 44,15 L44,12 L38,12 Z" id="Fill-270"></path>
            <path d="M30,12 L24,12 L24,15 C24,15.553 24.447,16 25,16 L30,16 L30,12 Z" id="Fill-271"></path>
        </g>
    </g>
</svg>