<?xml version="1.0" encoding="UTF-8" standalone="no"?>
<svg width="44px" height="44px" viewBox="0 0 44 44" version="1.1" xmlns="http://www.w3.org/2000/svg" xmlns:xlink="http://www.w3.org/1999/xlink">
    <!-- Generator: Sketch 3.7.2 (28276) - http://www.bohemiancoding.com/sketch -->
    <title>db-table-stats</title>
    <desc>Created with Sketch.</desc>
    <defs></defs>
    <g id="44px-Glyph" stroke="none" stroke-width="1" fill="none" fill-rule="evenodd">
        <g id="db-table-stats" fill="#000000">
            <path d="M31,44 C26.037,44 22,39.963 22,35 C22,30.037 26.037,26 31,26 C31.553,26 32,26.447 32,27 L32,34.002 L39,34.002 C39.553,34.002 40,34.449 40,35.002 C40,39.964 35.963,44 31,44" id="Fill-36"></path>
            <path d="M43,32 L35,32 C34.447,32 34,31.553 34,31 L34,22.999 C34,22.446 34.447,21.999 35,21.999 C39.963,21.999 44,26.037 44,31 C44,31.553 43.553,32 43,32" id="Fill-37"></path>
            <polygon id="Fill-38" points="0 16 8 16 8 10 0 10"></polygon>
            <polygon id="Fill-39" points="0 24 8 24 8 18 0 18"></polygon>
            <polygon id="Fill-40" points="10 16 16 16 16 10 10 10"></polygon>
            <polygon id="Fill-41" points="26 16 34 16 34 10 26 10"></polygon>
            <polygon id="Fill-42" points="10 34 16 34 16 26 10 26"></polygon>
            <polygon id="Fill-43" points="18 16 24 16 24 10 18 10"></polygon>
            <polygon id="Fill-44" points="10 24 16 24 16 18 10 18"></polygon>
            <path d="M8,26 L0,26 L0,30 C0,32.206 1.794,34 4,34 L8,34 L8,26 Z" id="Fill-45"></path>
            <path d="M34,8 L34,4 C34,1.794 32.206,0 30,0 L4,0 C1.794,0 0,1.794 0,4 L0,8 L34,8 Z" id="Fill-46"></path>
            <path d="M24,26.5215 L24,26.0005 L18,26.0005 L18,34.0005 L20.051,34.0005 C20.323,30.9985 21.8,28.3405 24,26.5215" id="Fill-47"></path>
            <path d="M32,24 L32,22.999 C32,21.697 32.839,20.598 34,20.183 L34,18 L26,18 L26,24 L32,24 Z" id="Fill-48"></path>
            <polygon id="Fill-49" points="18 24 24 24 24 18 18 18"></polygon>
        </g>
    </g>
</svg>