<?xml version="1.0" encoding="UTF-8" standalone="no"?>
<svg width="44px" height="44px" viewBox="0 0 44 44" version="1.1" xmlns="http://www.w3.org/2000/svg" xmlns:xlink="http://www.w3.org/1999/xlink">
    <!-- Generator: Sketch 3.7.2 (28276) - http://www.bohemiancoding.com/sketch -->
    <title>db-tables-connect-2</title>
    <desc>Created with Sketch.</desc>
    <defs></defs>
    <g id="44px-Glyph" stroke="none" stroke-width="1" fill="none" fill-rule="evenodd">
        <g id="db-tables-connect-2" fill="#000000">
            <polygon id="Fill-211" points="8 12 16 12 16 8 8 8"></polygon>
            <polygon id="Fill-212" points="18 18 24 18 24 14 18 14"></polygon>
            <polygon id="Fill-213" points="18 12 24 12 24 8 18 8"></polygon>
            <polygon id="Fill-214" points="26 12 34 12 34 8 26 8"></polygon>
            <path d="M16,14 L8,14 L8,17 C8,17.553 8.447,18 9,18 L16,18 L16,14 Z" id="Fill-215"></path>
            <path d="M34,6 L34,3 C34,2.447 33.553,2 33,2 L9,2 C8.447,2 8,2.447 8,3 L8,6 L34,6 Z" id="Fill-216"></path>
            <path d="M26,14 L26,18 L33,18 C33.553,18 34,17.553 34,17 L34,14 L26,14 Z" id="Fill-217"></path>
            <path d="M35,24 L22,24 L22,23 C22,22.447 21.553,22 21,22 C20.447,22 20,22.447 20,23 L20,24 L7,24 C6.447,24 6,24.447 6,25 L6,27 C6,27.553 6.447,28 7,28 C7.553,28 8,27.553 8,27 L8,26 L34,26 L34,27 C34,27.553 34.447,28 35,28 C35.553,28 36,27.553 36,27 L36,25 C36,24.447 35.553,24 35,24" id="Fill-218"></path>
            <polygon id="Fill-219" points="32 42 36 42 36 40 32 40"></polygon>
            <polygon id="Fill-220" points="32 38 36 38 36 36 32 36"></polygon>
            <polygon id="Fill-221" points="24 38 30 38 30 36 24 36"></polygon>
            <path d="M30,40 L24,40 L24,41 C24,41.553 24.447,42 25,42 L30,42 L30,40 Z" id="Fill-222"></path>
            <path d="M38,40 L38,42 L43,42 C43.553,42 44,41.553 44,41 L44,40 L38,40 Z" id="Fill-223"></path>
            <path d="M44,34 L44,31 C44,30.447 43.553,30 43,30 L25,30 C24.447,30 24,30.447 24,31 L24,34 L44,34 Z" id="Fill-224"></path>
            <polygon id="Fill-225" points="38 38 44 38 44 36 38 36"></polygon>
            <polygon id="Fill-226" points="8 42 12 42 12 40 8 40"></polygon>
            <polygon id="Fill-227" points="8 38 12 38 12 36 8 36"></polygon>
            <polygon id="Fill-228" points="0 38 6 38 6 36 0 36"></polygon>
            <path d="M6,40 L0,40 L0,41 C0,41.553 0.447,42 1,42 L6,42 L6,40 Z" id="Fill-229"></path>
            <path d="M14,40 L14,42 L19,42 C19.553,42 20,41.553 20,41 L20,40 L14,40 Z" id="Fill-230"></path>
            <path d="M20,34 L20,31 C20,30.447 19.553,30 19,30 L1,30 C0.447,30 0,30.447 0,31 L0,34 L20,34 Z" id="Fill-231"></path>
            <polygon id="Fill-232" points="14 38 20 38 20 36 14 36"></polygon>
        </g>
    </g>
</svg>