<?xml version="1.0" encoding="UTF-8" standalone="no"?>
<svg width="44px" height="44px" viewBox="0 0 44 44" version="1.1" xmlns="http://www.w3.org/2000/svg" xmlns:xlink="http://www.w3.org/1999/xlink">
    <!-- Generator: Sketch 3.7.2 (28276) - http://www.bohemiancoding.com/sketch -->
    <title>db-tables-2</title>
    <desc>Created with Sketch.</desc>
    <defs></defs>
    <g id="44px-Line" stroke="none" stroke-width="1" fill="none" fill-rule="evenodd">
        <g id="db-tables-2"></g>
        <path d="M3,44 L31,44 C32.654,44 34,42.654 34,41 L34,21 C34,19.346 32.654,18 31,18 L3,18 C1.346,18 0,19.346 0,21 L0,41 C0,42.654 1.346,44 3,44 L3,44 Z M16,26 L16,30 L10,30 L10,26 L16,26 L16,26 Z M24,26 L24,30 L18,30 L18,26 L24,26 L24,26 Z M32,26 L32,30 L26,30 L26,26 L32,26 L32,26 Z M10,32 L16,32 L16,36 L10,36 L10,32 L10,32 Z M8,36 L2,36 L2,32 L8,32 L8,36 L8,36 Z M16,38 L16,42 L10,42 L10,38 L16,38 L16,38 Z M18,38 L24,38 L24,42 L18,42 L18,38 L18,38 Z M18,36 L18,32 L24,32 L24,36 L18,36 L18,36 Z M26,32 L32,32 L32,36 L26,36 L26,32 L26,32 Z M8,30 L2,30 L2,26 L8,26 L8,30 L8,30 Z M2,41 L2,38 L8,38 L8,42 L3,42 C2.448,42 2,41.551 2,41 L2,41 Z M31,42 L26,42 L26,38 L32,38 L32,41 C32,41.551 31.552,42 31,42 L31,42 Z M3,20 L31,20 C31.552,20 32,20.449 32,21 L32,24 L2,24 L2,21 C2,20.449 2.448,20 3,20 L3,20 Z" id="Shape" fill="#000000"></path>
        <path d="M41,0 L13,0 C11.346,0 10,1.346 10,3 L10,15 C10,15.552 10.447,16 11,16 C11.553,16 12,15.552 12,15 L12,14 L18,14 L18,15 C18,15.552 18.447,16 19,16 C19.553,16 20,15.552 20,15 L20,14 L26,14 L26,15 C26,15.552 26.447,16 27,16 C27.553,16 28,15.552 28,15 L28,14 L34,14 L34,16 C34,16.552 34.447,17 35,17 C35.553,17 36,16.552 36,16 L36,14 L42,14 L42,18 L36,18 C35.447,18 35,18.448 35,19 C35,19.552 35.447,20 36,20 L42,20 L42,23 C42,23.551 41.552,24 41,24 L37,24 C36.447,24 36,24.448 36,25 C36,25.552 36.447,26 37,26 L41,26 C42.654,26 44,24.654 44,23 L44,3 C44,1.346 42.654,0 41,0 L41,0 Z M13,2 L41,2 C41.552,2 42,2.449 42,3 L42,6 L12,6 L12,3 C12,2.449 12.448,2 13,2 L13,2 Z M12,12 L12,8 L18,8 L18,12 L12,12 L12,12 Z M20,12 L20,8 L26,8 L26,12 L20,12 L20,12 Z M28,12 L28,8 L34,8 L34,12 L28,12 L28,12 Z M36,12 L36,8 L42,8 L42,12 L36,12 L36,12 Z" id="Shape" fill="#000000"></path>
    </g>
</svg>