<?xml version="1.0" encoding="UTF-8" standalone="no"?>
<svg width="44px" height="44px" viewBox="0 0 44 44" version="1.1" xmlns="http://www.w3.org/2000/svg" xmlns:xlink="http://www.w3.org/1999/xlink">
    <!-- Generator: Sketch 3.7.2 (28276) - http://www.bohemiancoding.com/sketch -->
    <title>db-table-network-2</title>
    <desc>Created with Sketch.</desc>
    <defs></defs>
    <g id="44px-Glyph" stroke="none" stroke-width="1" fill="none" fill-rule="evenodd">
        <g id="db-table-network-2" fill="#000000">
            <path d="M41,40 L26,40 L26,39 C26,38.447 25.553,38 25,38 L22,38 L22,32 L20,32 L20,38 L17,38 C16.447,38 16,38.447 16,39 L16,40 L1,40 C0.447,40 0,40.447 0,41 C0,41.553 0.447,42 1,42 L16,42 L16,43 C16,43.553 16.447,44 17,44 L25,44 C25.553,44 26,43.553 26,43 L26,42 L41,42 C41.553,42 42,41.553 42,41 C42,40.447 41.553,40 41,40" id="Fill-295"></path>
            <polygon id="Fill-296" points="14 22 20 22 20 16 14 16"></polygon>
            <polygon id="Fill-297" points="4 22 12 22 12 16 4 16"></polygon>
            <polygon id="Fill-298" points="4 14 12 14 12 8 4 8"></polygon>
            <polygon id="Fill-299" points="30 14 38 14 38 8 30 8"></polygon>
            <polygon id="Fill-300" points="14 14 20 14 20 8 14 8"></polygon>
            <polygon id="Fill-301" points="22 14 28 14 28 8 22 8"></polygon>
            <polygon id="Fill-302" points="30 22 38 22 38 16 30 16"></polygon>
            <path d="M12,24 L4,24 L4,27 C4,28.654 5.346,30 7,30 L12,30 L12,24 Z" id="Fill-303"></path>
            <path d="M30,24 L30,30 L35,30 C36.654,30 38,28.654 38,27 L38,24 L30,24 Z" id="Fill-304"></path>
            <path d="M38,6 L38,3 C38,1.346 36.654,0 35,0 L7,0 C5.346,0 4,1.346 4,3 L4,6 L38,6 Z" id="Fill-305"></path>
            <polygon id="Fill-306" points="22 22 28 22 28 16 22 16"></polygon>
            <polygon id="Fill-307" points="14 30 20 30 20 24 14 24"></polygon>
            <polygon id="Fill-308" points="22 30 28 30 28 24 22 24"></polygon>
        </g>
    </g>
</svg>