<?xml version="1.0" encoding="UTF-8" standalone="no"?>
<svg width="44px" height="44px" viewBox="0 0 44 44" version="1.1" xmlns="http://www.w3.org/2000/svg" xmlns:xlink="http://www.w3.org/1999/xlink">
    <!-- Generator: Sketch 3.7.2 (28276) - http://www.bohemiancoding.com/sketch -->
    <title>db-table-cross</title>
    <desc>Created with Sketch.</desc>
    <defs></defs>
    <g id="44px-Glyph" stroke="none" stroke-width="1" fill="none" fill-rule="evenodd">
        <g id="db-table-cross" fill="#000000">
            <path d="M37.707,36.293 C38.098,36.684 38.098,37.316 37.707,37.707 C37.512,37.902 37.256,38 37,38 C36.744,38 36.488,37.902 36.293,37.707 L33,34.414 L29.707,37.707 C29.512,37.902 29.256,38 29,38 C28.744,38 28.488,37.902 28.293,37.707 C27.902,37.316 27.902,36.684 28.293,36.293 L31.586,33 L28.293,29.707 C27.902,29.316 27.902,28.684 28.293,28.293 C28.684,27.902 29.316,27.902 29.707,28.293 L33,31.586 L36.293,28.293 C36.684,27.902 37.316,27.902 37.707,28.293 C38.098,28.684 38.098,29.316 37.707,29.707 L34.414,33 L37.707,36.293 Z M33,22 C26.935,22 22,26.935 22,33 C22,39.065 26.935,44 33,44 C39.065,44 44,39.065 44,33 C44,26.935 39.065,22 33,22 L33,22 Z" id="Fill-120"></path>
            <polygon id="Fill-121" points="0 16 8 16 8 10 0 10"></polygon>
            <polygon id="Fill-122" points="0 24 8 24 8 18 0 18"></polygon>
            <polygon id="Fill-123" points="10 16 16 16 16 10 10 10"></polygon>
            <polygon id="Fill-124" points="26 16 34 16 34 10 26 10"></polygon>
            <polygon id="Fill-125" points="10 34 16 34 16 26 10 26"></polygon>
            <polygon id="Fill-126" points="18 16 24 16 24 10 18 10"></polygon>
            <polygon id="Fill-127" points="10 24 16 24 16 18 10 18"></polygon>
            <path d="M8,26 L0,26 L0,30 C0,32.206 1.794,34 4,34 L8,34 L8,26 Z" id="Fill-128"></path>
            <path d="M34,8 L34,4 C34,1.794 32.206,0 30,0 L4,0 C1.794,0 0,1.794 0,4 L0,8 L34,8 Z" id="Fill-129"></path>
            <path d="M20,33 C20,30.422 20.764,28.023 22.063,26 L18,26 L18,34 L20.051,34 C20.025,33.669 20,33.337 20,33" id="Fill-130"></path>
            <polygon id="Fill-131" points="18 24 24 24 24 18 18 18"></polygon>
            <path d="M33,20 C33.338,20 33.669,20.025 34,20.051 L34,18 L26,18 L26,22.063 C28.023,20.764 30.422,20 33,20" id="Fill-132"></path>
        </g>
    </g>
</svg>