<?xml version="1.0" encoding="UTF-8" standalone="no"?>
<svg width="44px" height="44px" viewBox="0 0 44 44" version="1.1" xmlns="http://www.w3.org/2000/svg" xmlns:xlink="http://www.w3.org/1999/xlink">
    <!-- Generator: Sketch 3.7.2 (28276) - http://www.bohemiancoding.com/sketch -->
    <title>db-table-settings</title>
    <desc>Created with Sketch.</desc>
    <defs></defs>
    <g id="44px-Glyph" stroke="none" stroke-width="1" fill="none" fill-rule="evenodd">
        <g id="db-table-settings" fill="#000000">
            <path d="M33,38 C30.243,38 28,35.757 28,33 C28,30.243 30.243,28 33,28 C35.757,28 38,30.243 38,33 C38,35.757 35.757,38 33,38 M42.23,30.462 L41.311,30.462 C41.146,29.919 40.926,29.39 40.659,28.891 L41.18,28.369 C41.86,27.686 41.86,26.575 41.179,25.889 L40.109,24.819 C39.423,24.137 38.31,24.139 37.63,24.821 L37.111,25.34 C36.608,25.068 36.083,24.85 35.538,24.684 L35.538,23.77 C35.538,22.794 34.745,22 33.77,22 L32.23,22 C31.255,22 30.462,22.794 30.462,23.77 L30.462,24.684 C29.916,24.85 29.391,25.068 28.888,25.339 L28.369,24.82 C27.686,24.14 26.573,24.141 25.889,24.821 L24.82,25.89 C24.138,26.574 24.138,27.687 24.821,28.37 L25.34,28.889 C25.07,29.39 24.852,29.915 24.685,30.462 L23.77,30.462 C22.794,30.462 22,31.255 22,32.23 L22,33.77 C22,34.745 22.794,35.538 23.77,35.538 L24.689,35.538 C24.854,36.082 25.074,36.611 25.341,37.11 L24.821,37.63 C24.14,38.311 24.139,39.424 24.821,40.111 L25.89,41.18 C26.573,41.861 27.686,41.862 28.37,41.179 L28.89,40.659 C29.391,40.929 29.916,41.146 30.462,41.313 L30.462,42.23 C30.462,43.206 31.255,44 32.23,44 L33.77,44 C34.745,44 35.538,43.206 35.538,42.23 L35.538,41.311 C36.082,41.144 36.61,40.924 37.109,40.658 L37.63,41.179 C38.311,41.86 39.424,41.86 40.111,41.179 L41.18,40.109 C41.862,39.425 41.861,38.312 41.179,37.63 L40.661,37.111 C40.931,36.61 41.148,36.085 41.315,35.538 L42.23,35.538 C43.206,35.538 44,34.745 44,33.77 L44,32.23 C44,31.255 43.206,30.462 42.23,30.462" id="Fill-50"></path>
            <polygon id="Fill-51" points="0 16 8 16 8 10 0 10"></polygon>
            <polygon id="Fill-52" points="0 24 8 24 8 18 0 18"></polygon>
            <polygon id="Fill-53" points="10 16 16 16 16 10 10 10"></polygon>
            <polygon id="Fill-54" points="26 16 34 16 34 10 26 10"></polygon>
            <polygon id="Fill-55" points="10 34 16 34 16 26 10 26"></polygon>
            <polygon id="Fill-56" points="18 16 24 16 24 10 18 10"></polygon>
            <polygon id="Fill-57" points="10 24 16 24 16 18 10 18"></polygon>
            <path d="M8,26 L0,26 L0,30 C0,32.206 1.794,34 4,34 L8,34 L8,26 Z" id="Fill-58"></path>
            <path d="M33.9819,30.1787 C33.6729,30.0707 33.3459,29.9997 32.9999,29.9997 C31.3459,29.9997 29.9999,31.3457 29.9999,32.9997 C29.9999,33.3457 30.0709,33.6727 30.1789,33.9817 C32.2399,33.8887 33.8889,32.2397 33.9819,30.1787" id="Fill-59"></path>
            <path d="M34,8 L34,4 C34,1.794 32.206,0 30,0 L4,0 C1.794,0 0,1.794 0,4 L0,8 L34,8 Z" id="Fill-60"></path>
            <path d="M20,33.7695 L20,32.2305 C20,30.5515 21.103,29.1255 22.624,28.6395 C22.258,27.8045 22.216,26.8635 22.487,25.9995 L18,25.9995 L18,33.9995 L20.019,33.9995 C20.014,33.9225 20,33.8485 20,33.7695" id="Fill-61"></path>
            <path d="M28.6396,22.626 C29.1246,21.105 30.5506,20 32.2306,20 L33.7696,20 C33.8476,20 33.9226,20.014 33.9996,20.019 L33.9996,18 L25.9996,18 L25.9996,22.49 C26.8636,22.219 27.8046,22.262 28.6396,22.626" id="Fill-62"></path>
            <polygon id="Fill-63" points="18 24 24 24 24 18 18 18"></polygon>
        </g>
    </g>
</svg>