<?xml version="1.0" encoding="UTF-8" standalone="no"?>
<svg width="44px" height="44px" viewBox="0 0 44 44" version="1.1" xmlns="http://www.w3.org/2000/svg" xmlns:xlink="http://www.w3.org/1999/xlink">
    <!-- Generator: Sketch 3.7.2 (28276) - http://www.bohemiancoding.com/sketch -->
    <title>db-table-list</title>
    <desc>Created with Sketch.</desc>
    <defs></defs>
    <g id="44px-Glyph" stroke="none" stroke-width="1" fill="none" fill-rule="evenodd">
        <g id="db-table-list" fill="#000000">
            <polygon id="Fill-201" points="0 22 22 22 22 14 0 14"></polygon>
            <polygon id="Fill-202" points="24 44 32 44 32 34 24 34"></polygon>
            <polygon id="Fill-203" points="24 22 32 22 32 14 24 14"></polygon>
            <polygon id="Fill-204" points="24 32 32 32 32 24 24 24"></polygon>
            <path d="M44,12 L44,6 C44,3.794 42.206,2 40,2 L4,2 C1.794,2 0,3.794 0,6 L0,12 L44,12 Z" id="Fill-205"></path>
            <path d="M34,34 L34,44 L40,44 C42.206,44 44,42.206 44,40 L44,34 L34,34 Z" id="Fill-206"></path>
            <polygon id="Fill-207" points="0 32 22 32 22 24 0 24"></polygon>
            <path d="M22,34 L0,34 L0,40 C0,42.206 1.794,44 4,44 L22,44 L22,34 Z" id="Fill-208"></path>
            <polygon id="Fill-209" points="34 22 44 22 44 14 34 14"></polygon>
            <polygon id="Fill-210" points="34 32 44 32 44 24 34 24"></polygon>
        </g>
    </g>
</svg>