<?xml version="1.0" encoding="UTF-8" standalone="no"?>
<svg width="44px" height="44px" viewBox="0 0 44 44" version="1.1" xmlns="http://www.w3.org/2000/svg" xmlns:xlink="http://www.w3.org/1999/xlink">
    <!-- Generator: Sketch 3.7.2 (28276) - http://www.bohemiancoding.com/sketch -->
    <title>db-table-search</title>
    <desc>Created with Sketch.</desc>
    <defs></defs>
    <g id="44px-Glyph" stroke="none" stroke-width="1" fill="none" fill-rule="evenodd">
        <g id="db-table-search" fill="#000000">
            <path d="M36,38 C34.347,38 32.848,37.328 31.761,36.243 L31.76,36.24 C31.759,36.24 31.758,36.239 31.757,36.239 C30.672,35.152 30,33.653 30,32 C30,28.691 32.691,26 36,26 C39.309,26 42,28.691 42,32 C42,35.309 39.309,38 36,38 M36,24 C31.589,24 28,27.589 28,32 C28,33.846 28.634,35.542 29.688,36.897 L24.293,42.293 C23.902,42.684 23.902,43.316 24.293,43.707 C24.488,43.902 24.744,44 25,44 C25.256,44 25.512,43.902 25.707,43.707 L31.102,38.311 C32.458,39.366 34.154,40 36,40 C40.411,40 44,36.411 44,32 C44,27.589 40.411,24 36,24" id="Fill-92"></path>
            <polygon id="Fill-93" points="0 16 8 16 8 10 0 10"></polygon>
            <polygon id="Fill-94" points="0 24 8 24 8 18 0 18"></polygon>
            <polygon id="Fill-95" points="10 16 16 16 16 10 10 10"></polygon>
            <polygon id="Fill-96" points="26 16 34 16 34 10 26 10"></polygon>
            <polygon id="Fill-97" points="10 34 16 34 16 26 10 26"></polygon>
            <polygon id="Fill-98" points="18 16 24 16 24 10 18 10"></polygon>
            <polygon id="Fill-99" points="10 24 16 24 16 18 10 18"></polygon>
            <path d="M8,26 L0,26 L0,30 C0,32.206 1.794,34 4,34 L8,34 L8,26 Z" id="Fill-100"></path>
            <path d="M34,8 L34,4 C34,1.794 32.206,0 30,0 L4,0 C1.794,0 0,1.794 0,4 L0,8 L34,8 Z" id="Fill-101"></path>
            <polygon id="Fill-102" points="18 34 24 34 24 26 18 26"></polygon>
            <path d="M34,22.2017 L34,17.9997 L26,17.9997 L26,23.9997 L30.026,23.9997 C31.185,23.1317 32.531,22.5007 34,22.2017" id="Fill-103"></path>
            <path d="M34,33 L34,28.556 C32.81,29.25 32,30.526 32,32 C32,32.716 32.202,33.396 32.555,34 L33,34 C33.553,34 34,33.553 34,33" id="Fill-104"></path>
            <path d="M26,26 L26,32 C26,29.748 26.758,27.674 28.019,26 L26,26 Z" id="Fill-105"></path>
            <polygon id="Fill-106" points="18 24 24 24 24 18 18 18"></polygon>
        </g>
    </g>
</svg>