<?xml version="1.0" encoding="UTF-8" standalone="no"?>
<svg width="64px" height="64px" viewBox="0 0 64 64" version="1.1" xmlns="http://www.w3.org/2000/svg" xmlns:xlink="http://www.w3.org/1999/xlink">
    <!-- Generator: Sketch 3.7.2 (28276) - http://www.bohemiancoding.com/sketch -->
    <title>db-tables</title>
    <desc>Created with Sketch.</desc>
    <defs></defs>
    <g id="64px-Line" stroke="none" stroke-width="1" fill="none" fill-rule="evenodd">
        <g id="db-tables"></g>
        <path d="M56,14 C56,11.794 54.206,10 52,10 L10,10 C7.794,10 6,11.794 6,14 L6,54 C6,56.206 7.794,58 10,58 L52,58 C54.206,58 56,56.206 56,54 L56,14 L56,14 Z M30,22 L30,32 L20,32 L20,22 L30,22 L30,22 Z M42,22 L42,32 L32,32 L32,22 L42,22 L42,22 Z M54,22 L54,32 L44,32 L44,22 L54,22 L54,22 Z M18,32 L8,32 L8,22 L18,22 L18,32 L18,32 Z M8,34 L18,34 L18,44 L8,44 L8,34 L8,34 Z M20,34 L30,34 L30,44 L20,44 L20,34 L20,34 Z M30,46 L30,56 L20,56 L20,46 L30,46 L30,46 Z M32,46 L42,46 L42,56 L32,56 L32,46 L32,46 Z M32,44 L32,34 L42,34 L42,44 L32,44 L32,44 Z M44,34 L54,34 L54,44 L44,44 L44,34 L44,34 Z M10,12 L52,12 C53.103,12 54,12.897 54,14 L54,20 L8,20 L8,14 C8,12.897 8.897,12 10,12 L10,12 Z M8,54 L8,46 L18,46 L18,56 L10,56 C8.897,56 8,55.103 8,54 L8,54 Z M52,56 L44,56 L44,46 L54,46 L54,54 C54,55.103 53.103,56 52,56 L52,56 Z" id="Shape" fill="#000000"></path>
        <path d="M49,6 L13,6 C12.447,6 12,6.448 12,7 C12,7.552 12.447,8 13,8 L49,8 C49.553,8 50,7.552 50,7 C50,6.448 49.553,6 49,6 L49,6 Z" id="Shape" fill="#000000"></path>
    </g>
</svg>