<?xml version="1.0" encoding="UTF-8" standalone="no"?>
<svg width="44px" height="44px" viewBox="0 0 44 44" version="1.1" xmlns="http://www.w3.org/2000/svg" xmlns:xlink="http://www.w3.org/1999/xlink">
    <!-- Generator: Sketch 3.7.2 (28276) - http://www.bohemiancoding.com/sketch -->
    <title>db-table-plus</title>
    <desc>Created with Sketch.</desc>
    <defs></defs>
    <g id="44px-Glyph" stroke="none" stroke-width="1" fill="none" fill-rule="evenodd">
        <g id="db-table-plus" fill="#000000">
            <path d="M38,34 L34,34 L34,38 C34,38.553 33.553,39 33,39 C32.447,39 32,38.553 32,38 L32,34 L28,34 C27.447,34 27,33.553 27,33 C27,32.447 27.447,32 28,32 L32,32 L32,28 C32,27.447 32.447,27 33,27 C33.553,27 34,27.447 34,28 L34,32 L38,32 C38.553,32 39,32.447 39,33 C39,33.553 38.553,34 38,34 M33,22 C26.935,22 22,26.935 22,33 C22,39.065 26.935,44 33,44 C39.065,44 44,39.065 44,33 C44,26.935 39.065,22 33,22" id="Fill-146"></path>
            <polygon id="Fill-147" points="0 16 8 16 8 10 0 10"></polygon>
            <polygon id="Fill-148" points="0 24 8 24 8 18 0 18"></polygon>
            <polygon id="Fill-149" points="10 16 16 16 16 10 10 10"></polygon>
            <polygon id="Fill-150" points="26 16 34 16 34 10 26 10"></polygon>
            <polygon id="Fill-151" points="10 34 16 34 16 26 10 26"></polygon>
            <polygon id="Fill-152" points="18 16 24 16 24 10 18 10"></polygon>
            <polygon id="Fill-153" points="10 24 16 24 16 18 10 18"></polygon>
            <path d="M8,26 L0,26 L0,30 C0,32.206 1.794,34 4,34 L8,34 L8,26 Z" id="Fill-154"></path>
            <path d="M34,8 L34,4 C34,1.794 32.206,0 30,0 L4,0 C1.794,0 0,1.794 0,4 L0,8 L34,8 Z" id="Fill-155"></path>
            <path d="M20,33 C20,30.422 20.764,28.023 22.063,26 L18,26 L18,34 L20.051,34 C20.025,33.669 20,33.337 20,33" id="Fill-156"></path>
            <polygon id="Fill-157" points="18 24 24 24 24 18 18 18"></polygon>
            <path d="M33,20 C33.338,20 33.669,20.025 34,20.051 L34,18 L26,18 L26,22.063 C28.023,20.764 30.422,20 33,20" id="Fill-158"></path>
        </g>
    </g>
</svg>