<?xml version="1.0" encoding="UTF-8" standalone="no"?>
<svg width="44px" height="44px" viewBox="0 0 44 44" version="1.1" xmlns="http://www.w3.org/2000/svg" xmlns:xlink="http://www.w3.org/1999/xlink">
    <!-- Generator: Sketch 3.7.2 (28276) - http://www.bohemiancoding.com/sketch -->
    <title>db-table-network</title>
    <desc>Created with Sketch.</desc>
    <defs></defs>
    <g id="44px-Glyph" stroke="none" stroke-width="1" fill="none" fill-rule="evenodd">
        <g id="db-table-network" fill="#000000">
            <path d="M18,29 C18,28.447 17.553,28 17,28 L3,28 C2.447,28 2,28.447 2,29 L2,38 L18,38 L18,29 Z" id="Fill-309"></path>
            <path d="M4,44 L16,44 C18.206,44 20,42.206 20,40 L-5.68434189e-14,40 C-5.68434189e-14,42.206 1.794,44 4,44" id="Fill-310"></path>
            <path d="M40,29 C40,28.447 39.553,28 39,28 L25,28 C24.447,28 24,28.447 24,29 L24,38 L40,38 L40,29 Z" id="Fill-311"></path>
            <path d="M26,44 L38,44 C40.206,44 42,42.206 42,40 L22,40 C22,42.206 23.794,44 26,44" id="Fill-312"></path>
            <path d="M33,22 L22,22 L22,21 C22,20.447 21.553,20 21,20 C20.447,20 20,20.447 20,21 L20,22 L9,22 C8.447,22 8,22.447 8,23 L8,25 C8,25.553 8.447,26 9,26 C9.553,26 10,25.553 10,25 L10,24 L32,24 L32,25 C32,25.553 32.447,26 33,26 C33.553,26 34,25.553 34,25 L34,23 C34,22.447 33.553,22 33,22" id="Fill-313"></path>
            <polygon id="Fill-314" points="8 10 16 10 16 6 8 6"></polygon>
            <polygon id="Fill-315" points="18 18 24 18 24 12 18 12"></polygon>
            <polygon id="Fill-316" points="18 10 24 10 24 6 18 6"></polygon>
            <path d="M26,12 L26,18 L33,18 C33.553,18 34,17.553 34,17 L34,12 L26,12 Z" id="Fill-317"></path>
            <path d="M16,12 L8,12 L8,17 C8,17.553 8.447,18 9,18 L16,18 L16,12 Z" id="Fill-318"></path>
            <path d="M34,4 L34,1 C34,0.447 33.553,0 33,0 L9,0 C8.447,0 8,0.447 8,1 L8,4 L34,4 Z" id="Fill-319"></path>
            <polygon id="Fill-320" points="26 10 34 10 34 6 26 6"></polygon>
        </g>
    </g>
</svg>