<?xml version="1.0" encoding="UTF-8" standalone="no"?>
<svg width="64px" height="64px" viewBox="0 0 64 64" version="1.1" xmlns="http://www.w3.org/2000/svg" xmlns:xlink="http://www.w3.org/1999/xlink">
    <!-- Generator: Sketch 3.7.2 (28276) - http://www.bohemiancoding.com/sketch -->
    <title>db-warning</title>
    <desc>Created with Sketch.</desc>
    <defs></defs>
    <g id="64px-Line" stroke="none" stroke-width="1" fill="none" fill-rule="evenodd">
        <g id="db-warning"></g>
        <path d="M23,54 C23.689,54 24.366,53.991 25.028,53.972 C25.58,53.956 26.015,53.496 25.999,52.944 C25.983,52.392 25.513,51.955 24.971,51.973 C24.328,51.991 23.67,52 23,52 C12.054,52 6,49.635 6,48 L6,38.189 C8.837,40.673 14.632,42 23,42 C26.321,42 29.4,41.787 32.151,41.365 C32.697,41.282 33.072,40.771 32.988,40.225 C32.905,39.679 32.395,39.306 31.848,39.388 C29.197,39.794 26.22,40 23,40 C12.355,40 6,37.757 6,34 L6,26.913 C9.283,29.021 16.154,30 23,30 C29.846,30 36.717,29.021 40,26.913 L40,30 C40,30.552 40.448,31 41,31 C41.552,31 42,30.552 42,30 L42,24 L42,12 C42,7.855 32.457,6 22.999,6 C13.542,6 4,7.855 4,12 L4,24 L4,34 L4,48 C4,52.145 13.542,54 23,54 L23,54 Z M23,28 C12.054,28 6,25.635 6,24 L6,14.913 C9.283,17.021 16.154,18 23,18 C29.846,18 36.717,17.021 40,14.913 L40,24 C40,25.635 33.946,28 23,28 L23,28 Z M22.999,8 C33.946,8 40,10.365 40,12 C40,13.635 33.946,16 23,16 C12.054,16 6,13.635 6,12 C6,10.365 12.054,8 22.999,8 L22.999,8 Z" id="Shape" fill="#000000"></path>
        <path d="M43,34 C41.713,34 40.498,34.625 39.707,35.733 L28.467,54.128 C28.444,54.166 28.424,54.205 28.405,54.246 C28.364,54.339 28,55.188 28,56 C28,58.206 29.794,60 32,60 L54,60 C56.206,60 58,58.206 58,56 C58,55.188 57.636,54.339 57.595,54.246 C57.577,54.205 57.556,54.166 57.533,54.128 L46.252,35.671 C45.502,34.625 44.286,34 43,34 L43,34 Z M56,56 C56,57.103 55.103,58 54,58 L32,58 C30.897,58 30,57.103 30,56 C30,55.728 30.123,55.33 30.213,55.106 L41.373,36.836 C41.749,36.312 42.357,36 43,36 C43.643,36 44.251,36.313 44.586,36.776 L55.787,55.107 C55.867,55.306 56,55.719 56,56 L56,56 Z" id="Shape" fill="#000000"></path>
        <path d="M43,40 C42.448,40 42,40.448 42,41 L42,49 C42,49.552 42.448,50 43,50 C43.552,50 44,49.552 44,49 L44,41 C44,40.448 43.552,40 43,40 L43,40 Z" id="Shape" fill="#000000"></path>
        <path d="M42.62,52.08 C42.49,52.13 42.39,52.2 42.29,52.29 C42.25,52.34 42.21,52.39 42.17,52.44 C42.13,52.5 42.1,52.56 42.08,52.62 C42.05,52.68 42.03,52.74 42.02,52.8 C42.01,52.87 42,52.94 42,53 C42,53.26 42.11,53.52 42.29,53.71 C42.39,53.8 42.49,53.87 42.62,53.92 C42.74,53.97 42.87,54 43,54 C43.26,54 43.52,53.89 43.71,53.71 C43.8,53.61 43.87,53.5 43.92,53.38 C43.97,53.26 44,53.13 44,53 C44,52.73 43.89,52.48 43.71,52.29 C43.43,52.01 42.98,51.93 42.62,52.08 L42.62,52.08 Z" id="Shape" fill="#000000"></path>
    </g>
</svg>