<?xml version="1.0" encoding="UTF-8" standalone="no"?>
<svg width="64px" height="64px" viewBox="0 0 64 64" version="1.1" xmlns="http://www.w3.org/2000/svg" xmlns:xlink="http://www.w3.org/1999/xlink">
    <!-- Generator: Sketch 3.7.2 (28276) - http://www.bohemiancoding.com/sketch -->
    <title>des-scalpel-block</title>
    <desc>Created with Sketch.</desc>
    <defs></defs>
    <g id="64px-Line" stroke="none" stroke-width="1" fill="none" fill-rule="evenodd">
        <g id="des-scalpel-block"></g>
        <path d="M6.659,10.622 C6.652,10.628 6.643,10.63 6.637,10.637 C6.631,10.644 6.629,10.653 6.622,10.659 C5.003,12.287 4.001,14.529 4.001,17 C4.001,21.962 8.039,26 13.001,26 C15.473,26 17.714,24.998 19.342,23.378 C19.349,23.372 19.358,23.37 19.364,23.363 C19.37,23.356 19.372,23.347 19.379,23.341 C20.998,21.713 22,19.471 22,17 C22,12.038 17.962,8 13,8 C10.528,8 8.287,9.002 6.659,10.622 L6.659,10.622 Z M6,17 C6,15.43 6.526,13.984 7.402,12.815 L17.185,22.598 C16.015,23.474 14.57,24 13,24 C9.14,24 6,20.86 6,17 L6,17 Z M20,17 C20,18.57 19.474,20.016 18.598,21.185 L8.815,11.402 C9.985,10.526 11.43,10 13,10 C16.86,10 20,13.14 20,17 L20,17 Z" id="Shape" fill="#000000"></path>
        <path d="M53.733,6.323 C53.311,5.866 52.451,5.951 52.132,6.496 C51.038,7.776 37.887,20.869 26.483,32.166 C26.418,32.207 26.349,32.237 26.292,32.293 C26.238,32.347 26.21,32.414 26.171,32.475 C24.126,34.501 22.14,36.466 20.296,38.289 C20.107,38.476 20,38.731 19.999,38.997 C19.999,39.264 20.104,39.519 20.292,39.707 L20.585,39.999 L4.292,56.292 C3.968,56.616 3.906,57.119 4.141,57.512 C4.325,57.82 4.654,57.999 4.999,57.999 C5.095,57.999 5.191,57.985 5.286,57.957 L25.286,51.957 C25.571,51.872 25.803,51.664 25.919,51.391 C26.035,51.118 26.024,50.807 25.888,50.542 C25.871,50.509 24.415,47.595 25.84,45.251 L26.296,45.707 C26.491,45.902 26.747,45.999 27.003,45.999 C27.259,45.999 27.515,45.901 27.71,45.706 L59.706,13.706 C59.895,13.52 60,13.265 60,13 C60,12.734 59.895,12.48 59.707,12.292 L53.733,6.323 L53.733,6.323 Z M23.667,50.356 L8.511,54.902 L22,41.414 L24.395,43.808 C22.684,46.145 23.179,48.869 23.667,50.356 L23.667,50.356 Z M27.003,43.586 L22.418,39.004 C23.299,38.133 24.944,36.504 27.027,34.442 L31.587,39.002 L27.003,43.586 L27.003,43.586 Z M33.001,37.587 L28.448,33.034 C31.182,30.325 34.464,27.069 37.745,23.807 C41.753,19.822 45.758,15.829 48.754,12.816 C50.953,10.604 52.266,9.283 53.032,8.448 L57.586,13 L33.001,37.587 L33.001,37.587 Z" id="Shape" fill="#000000"></path>
    </g>
</svg>