<?xml version="1.0" encoding="UTF-8" standalone="no"?>
<svg width="44px" height="44px" viewBox="0 0 44 44" version="1.1" xmlns="http://www.w3.org/2000/svg" xmlns:xlink="http://www.w3.org/1999/xlink">
    <!-- Generator: Sketch 3.7.2 (28276) - http://www.bohemiancoding.com/sketch -->
    <title>des-paintbrush</title>
    <desc>Created with Sketch.</desc>
    <defs></defs>
    <g id="44px-Glyph" stroke="none" stroke-width="1" fill="none" fill-rule="evenodd">
        <g id="des-paintbrush" fill="#000000">
            <path d="M5.9943,40.6992 C4.5243,40.6992 3.3293,39.5042 3.3293,38.0342 C3.3293,36.5642 4.5243,35.3682 5.9943,35.3682 C7.4633,35.3682 8.6583,36.5642 8.6583,38.0342 C8.6583,39.5042 7.4633,40.6992 5.9943,40.6992 L5.9943,40.6992 Z M10.8623,10.7762 L8.0983,13.5452 C7.5983,14.0442 7.3213,14.7082 7.3213,15.4152 C7.3213,16.1222 7.5973,16.7862 8.0973,17.2872 L13.3423,22.5362 C13.7733,22.9692 14.0123,23.5442 14.0123,24.1562 C14.0123,24.7672 13.7743,25.3432 13.3413,25.7742 C11.2313,27.8872 8.9813,29.1662 6.8063,30.4012 C4.9323,31.4662 3.1643,32.4702 1.7363,33.8972 C0.5143,35.1232 -0.1127,36.8162 0.0173,38.5452 C0.1473,40.2692 1.0283,41.8532 2.4343,42.8902 C3.4513,43.6402 4.6453,44.0062 5.8483,44.0062 C7.5243,44.0052 9.2163,43.2982 10.4663,41.9382 C11.7183,40.5762 12.6433,38.9442 13.6243,37.2162 C14.8583,35.0412 16.1353,32.7912 18.2453,30.6802 C19.1083,29.8132 20.6153,29.8132 21.4803,30.6802 L26.7113,35.9152 C27.2153,36.4192 27.8843,36.6962 28.5963,36.6962 L28.5973,36.6962 C29.3073,36.6962 29.9773,36.4192 30.4813,35.9152 L33.2333,33.1592 L10.8623,10.7762 Z" id="Fill-375"></path>
            <path d="M39.302,24.3477 C39.585,23.7797 39.704,23.1277 39.636,22.8867 C39.329,22.8527 38.72,23.0167 38.288,23.1127 C36.981,23.4037 35.352,23.7677 34.325,22.7387 C33.431,21.8437 33.631,20.5137 33.824,19.2287 C33.991,18.1227 34.163,16.9807 33.614,16.4307 C32.703,15.5177 31.728,16.2337 31.45,16.4737 L28.235,19.6947 C27.308,20.5327 25.444,21.1847 23.952,19.6947 C22.469,18.2107 23.112,16.3197 23.906,15.4097 L26.872,12.4397 C27.061,12.2647 27.5,11.7577 27.51,11.2947 C27.513,11.1547 27.483,10.9337 27.19,10.6407 C26.846,10.2957 25.771,10.5617 24.822,10.7937 C23.284,11.1697 21.37,11.6397 20.03,10.2967 C18.669,8.9367 19.049,7.0427 19.355,5.5217 C19.493,4.8307 19.703,3.7867 19.482,3.5657 L18.775,2.8587 L12.276,9.3617 L34.646,31.7447 L37.017,29.3727 L39.302,24.3477 Z" id="Fill-376"></path>
            <path d="M43.2258,19.4199 L24.5958,0.7769 C24.0968,0.2759 23.4328,0.0009 22.7268,0.0009 L22.7258,0.0009 C22.0188,0.0009 21.3548,0.2759 20.8558,0.7759 L20.1878,1.4439 L20.8958,2.1509 C21.8748,3.1309 21.5778,4.6099 21.3158,5.9159 C21.0288,7.3439 20.8828,8.3219 21.4438,8.8829 C21.9518,9.3909 22.9228,9.1989 24.3448,8.8519 C25.8068,8.4919 27.4648,8.0869 28.6038,9.2269 C29.2168,9.8409 29.5308,10.5769 29.5088,11.3559 C29.4698,12.7569 28.3718,13.7789 28.2468,13.8919 L25.3668,16.7749 C25.1978,16.9819 24.7498,17.6629 25.3668,18.2799 C25.9738,18.8859 26.6168,18.4539 26.8648,18.2379 L30.0818,15.0169 C31.0098,14.1839 33.1818,13.1669 35.0288,15.0169 C36.2908,16.2799 36.0198,18.0799 35.8018,19.5259 C35.7168,20.0919 35.5588,21.1439 35.7398,21.3239 C35.9908,21.5759 37.2018,21.3059 37.8528,21.1599 C39.0298,20.8989 40.2428,20.6279 41.0108,21.3979 C42.3208,22.7069 41.2318,24.9619 41.1038,25.2149 L41.0458,25.3429 L43.2268,23.1609 C44.2568,22.1289 44.2568,20.4499 43.2258,19.4199" id="Fill-377"></path>
            <path d="M39.7697,44.001 C37.4367,44.001 35.5387,42.104 35.5387,39.771 C35.5387,36.239 38.9127,32.755 39.0557,32.608 C39.2437,32.416 39.4657,32.272 39.7697,32.309 C40.0357,32.309 40.2897,32.414 40.4767,32.602 C40.6207,32.745 44.0007,36.166 44.0007,39.771 C44.0007,42.104 42.1027,44.001 39.7697,44.001" id="Fill-378"></path>
        </g>
    </g>
</svg>