<?xml version="1.0" encoding="UTF-8" standalone="no"?>
<svg width="64px" height="64px" viewBox="0 0 64 64" version="1.1" xmlns="http://www.w3.org/2000/svg" xmlns:xlink="http://www.w3.org/1999/xlink">
    <!-- Generator: Sketch 3.7.2 (28276) - http://www.bohemiancoding.com/sketch -->
    <title>des-sharpener</title>
    <desc>Created with Sketch.</desc>
    <defs></defs>
    <g id="64px-Line" stroke="none" stroke-width="1" fill="none" fill-rule="evenodd">
        <g id="des-sharpener"></g>
        <path d="M21,52 L41,52 C41.553,52 42,51.552 42,51 L42,15 C42,14.448 41.553,14 41,14 L21,14 C20.447,14 20,14.448 20,15 L20,51 C20,51.552 20.447,52 21,52 L21,52 Z M40,50 L28,50 L28,16 L40,16 L40,50 L40,50 Z M22,16 L26,16 L26,50 L22,50 L22,16 L22,16 Z" id="Shape" fill="#000000"></path>
        <circle id="Oval" fill="#000000" cx="34" cy="32" r="2"></circle>
        <path d="M10,47.281 L10,54 C10,56.206 11.794,58 14,58 L48,58 C50.206,58 52,56.206 52,54 L52,47.282 C52,47.006 51.883,46.743 51.687,46.556 C48.02,42.954 46,38.14 46,33 C46,27.853 48.024,23.035 51.7,19.433 C51.891,19.245 52,18.987 52,18.719 L52,12 C52,9.794 50.206,8 48,8 L14,8 C11.794,8 10,9.794 10,12 L10,18.718 C10,18.987 10.109,19.244 10.301,19.432 C13.976,23.035 16,27.854 16,33 C16,38.147 13.976,42.965 10.3,46.567 C10.108,46.755 10,47.013 10,47.281 L10,47.281 Z M12.001,47.696 C15.873,43.749 18,38.546 18,33 C18,27.453 15.873,22.251 12,18.304 L12,12 C12,10.897 12.897,10 14,10 L48,10 C49.103,10 50,10.897 50,12 L49.999,18.304 C46.127,22.251 44,27.454 44,33 C44,38.547 46.127,43.749 50,47.697 L50,54 C50,55.103 49.103,56 48,56 L14,56 C12.897,56 12,55.103 12,54 L12.001,47.696 L12.001,47.696 Z" id="Shape" fill="#000000"></path>
    </g>
</svg>