<?xml version="1.0" encoding="UTF-8" standalone="no"?>
<svg width="64px" height="64px" viewBox="0 0 64 64" version="1.1" xmlns="http://www.w3.org/2000/svg" xmlns:xlink="http://www.w3.org/1999/xlink">
    <!-- Generator: Sketch 3.7.2 (28276) - http://www.bohemiancoding.com/sketch -->
    <title>des-magnet-plus</title>
    <desc>Created with Sketch.</desc>
    <defs></defs>
    <g id="64px-Line" stroke="none" stroke-width="1" fill="none" fill-rule="evenodd">
        <g id="des-magnet-plus"></g>
        <path d="M18,21 L18,40 C18,51.028 26.972,60 38,60 C49.028,60 58,51.028 58,40 L58,21 C58,20.448 57.553,20 57,20 L45,20 C44.447,20 44,20.448 44,21 L44,40 C44,43.309 41.309,46 38,46 C34.691,46 32,43.309 32,40 L32,21 C32,20.448 31.553,20 31,20 L19,20 C18.447,20 18,20.448 18,21 L18,21 Z M56,22 L56,30 L46,30 L46,22 L56,22 L56,22 Z M38,48 C42.411,48 46,44.411 46,40 L46,32 L56,32 L56,40 C56,49.925 47.925,58 38,58 C28.075,58 20,49.925 20,40 L20,32 L30,32 L30,40 C30,44.411 33.589,48 38,48 L38,48 Z M30,22 L30,30 L20,30 L20,22 L30,22 L30,22 Z" id="Shape" fill="#000000"></path>
        <path d="M5,16 L12,16 L12,23 C12,23.552 12.447,24 13,24 C13.553,24 14,23.552 14,23 L14,16 L21,16 C21.553,16 22,15.552 22,15 C22,14.448 21.553,14 21,14 L14,14 L14,7 C14,6.448 13.553,6 13,6 C12.447,6 12,6.448 12,7 L12,14 L5,14 C4.447,14 4,14.448 4,15 C4,15.552 4.447,16 5,16 L5,16 Z" id="Shape" fill="#000000"></path>
    </g>
</svg>