<?xml version="1.0" encoding="UTF-8" standalone="no"?>
<svg width="44px" height="44px" viewBox="0 0 44 44" version="1.1" xmlns="http://www.w3.org/2000/svg" xmlns:xlink="http://www.w3.org/1999/xlink">
    <!-- Generator: Sketch 3.7.2 (28276) - http://www.bohemiancoding.com/sketch -->
    <title>des-colour-palette</title>
    <desc>Created with Sketch.</desc>
    <defs></defs>
    <g id="44px-Line" stroke="none" stroke-width="1" fill="none" fill-rule="evenodd">
        <g id="des-colour-palette"></g>
        <path d="M43,0 L1,0 C0.448,0 0,0.447 0,1 L0,43 C0,43.553 0.448,44 1,44 L43,44 C43.552,44 44,43.553 44,43 L44,1 C44,0.447 43.552,0 43,0 L43,0 Z M42,26.586 L40.586,28 L38.414,28 L42,24.414 L42,26.586 L42,26.586 Z M42,21.586 L35.586,28 L33.414,28 L42,19.414 L42,21.586 L42,21.586 Z M2,3.414 L3.414,2 L5.586,2 L2,5.586 L2,3.414 L2,3.414 Z M2,8.414 L8.414,2 L10.586,2 L2,10.586 L2,8.414 L2,8.414 Z M14,2 L14,3.586 L3.586,14 L2,14 L2,13.414 L13.414,2 L14,2 L14,2 Z M37.586,16 L30,23.586 L30,21.414 L35.414,16 L37.586,16 L37.586,16 Z M22.414,28 L28,22.414 L28,24.586 L24.586,28 L22.414,28 L22.414,28 Z M17.414,28 L28,17.414 L28,19.586 L19.586,28 L17.414,28 L17.414,28 Z M21.586,16 L16,21.586 L16,19.414 L19.414,16 L21.586,16 L21.586,16 Z M26.586,16 L16,26.586 L16,24.414 L24.414,16 L26.586,16 L26.586,16 Z M16,16.586 L16,16 L16.586,16 L16,16.586 L16,16.586 Z M30,18.586 L30,16 L32.586,16 L30,18.586 L30,18.586 Z M28,14 L16,14 L16,2 L28,2 L28,14 L28,14 Z M6.414,14 L14,6.414 L14,8.586 L8.586,14 L6.414,14 L6.414,14 Z M14,11.414 L14,14 L11.414,14 L14,11.414 L14,11.414 Z M2,16 L14,16 L14,28 L2,28 L2,16 L2,16 Z M16,30 L28,30 L28,42 L16,42 L16,30 L16,30 Z M27.414,28 L28,27.414 L28,28 L27.414,28 L27.414,28 Z M30,28 L30,26.414 L40.414,16 L42,16 L42,16.586 L30.586,28 L30,28 L30,28 Z M42,14 L30,14 L30,2 L42,2 L42,14 L42,14 Z M2,30 L14,30 L14,42 L2,42 L2,30 L2,30 Z M30,42 L30,30 L42,30 L42,42 L30,42 L30,42 Z" id="Shape" fill="#000000"></path>
    </g>
</svg>