<?xml version="1.0" encoding="UTF-8" standalone="no"?>
<svg width="64px" height="64px" viewBox="0 0 64 64" version="1.1" xmlns="http://www.w3.org/2000/svg" xmlns:xlink="http://www.w3.org/1999/xlink">
    <!-- Generator: Sketch 3.7.2 (28276) - http://www.bohemiancoding.com/sketch -->
    <title>des-scissors</title>
    <desc>Created with Sketch.</desc>
    <defs></defs>
    <g id="64px-Line" stroke="none" stroke-width="1" fill="none" fill-rule="evenodd">
        <g id="des-scissors"></g>
        <path d="M10.031,55.451 C10.69,55.862 11.438,56.056 12.222,56.056 C14.304,56.056 16.641,54.682 18.236,52.315 C19.506,50.43 20.035,48.236 19.653,46.445 C19.399,45.253 18.771,44.316 17.839,43.734 C15.433,42.234 11.83,43.61 9.634,46.869 C8.364,48.754 7.835,50.949 8.217,52.74 C8.471,53.933 9.099,54.87 10.031,55.451 L10.031,55.451 Z M11.293,47.987 C12.478,46.228 14.243,45.13 15.647,45.13 C16.064,45.13 16.45,45.227 16.779,45.432 C17.362,45.795 17.599,46.411 17.696,46.863 C17.967,48.134 17.548,49.755 16.575,51.198 C15.039,53.479 12.526,54.65 11.088,53.753 C10.505,53.39 10.268,52.774 10.171,52.322 C9.901,51.052 10.32,49.432 11.293,47.987 L11.293,47.987 Z" id="Shape" fill="#000000"></path>
        <path d="M7.781,58.791 C9.099,59.613 10.601,60.006 12.149,60.006 C15.305,60.006 18.65,58.373 21.015,55.416 C21.446,54.929 25.721,50.086 31.001,44.01 C36.489,50.327 40.936,55.362 40.952,55.379 C43.34,58.364 46.696,60.006 49.856,60.005 C51.402,60.005 52.901,59.612 54.217,58.792 C56.039,57.656 57.306,55.796 57.783,53.557 C58.397,50.682 57.686,47.455 55.835,44.706 C52.437,39.661 46.191,37.727 41.91,40.395 C40.988,40.97 40.223,41.745 39.614,42.648 L36.262,37.924 C43.077,30.003 50.047,21.719 52.17,18.568 C53.619,16.416 54.128,14.239 53.683,12.098 C52.916,8.415 49.577,6.248 49.435,6.158 C48.986,5.871 48.391,5.989 48.082,6.423 L31,30.502 L13.916,6.421 C13.607,5.987 13.013,5.87 12.563,6.156 C12.421,6.247 9.082,8.414 8.315,12.096 C7.87,14.237 8.379,16.414 9.828,18.566 C11.603,21.201 16.961,27.717 25.737,37.92 L22.398,42.627 C21.79,41.726 21.008,40.968 20.088,40.394 C15.806,37.723 9.562,39.66 6.163,44.705 C4.311,47.454 3.601,50.68 4.215,53.556 C4.692,55.795 5.959,57.655 7.781,58.791 L7.781,58.791 Z M38.913,45.112 C38.924,45.127 38.942,45.133 38.954,45.147 C39.023,45.233 39.107,45.302 39.204,45.362 C39.242,45.386 39.273,45.415 39.313,45.434 C39.326,45.44 39.335,45.452 39.349,45.457 C39.445,45.496 39.543,45.503 39.641,45.511 C39.672,45.514 39.7,45.532 39.731,45.532 C39.855,45.532 39.978,45.5 40.097,45.452 C40.113,45.446 40.126,45.437 40.142,45.43 C40.198,45.404 40.256,45.384 40.309,45.347 C40.341,45.324 40.358,45.29 40.387,45.264 C40.418,45.236 40.444,45.206 40.471,45.175 C40.535,45.101 40.587,45.026 40.626,44.939 C40.632,44.925 40.645,44.916 40.651,44.901 C41.13,43.711 41.933,42.739 42.973,42.09 C46.348,39.985 51.376,41.659 54.18,45.821 C55.731,48.123 56.333,50.789 55.832,53.137 C55.463,54.866 54.54,56.233 53.163,57.092 C50.016,59.053 45.439,57.78 42.486,54.09 C42.439,54.037 37.896,48.893 32.328,42.483 C33.178,41.503 34.045,40.5 34.922,39.483 L38.913,45.112 L38.913,45.112 Z M11.487,17.45 C10.353,15.766 9.944,14.107 10.27,12.518 C10.661,10.615 12.019,9.177 12.886,8.427 L29.774,32.231 L26.929,36.241 C18.51,26.446 13.172,19.952 11.487,17.45 L11.487,17.45 Z M7.822,45.823 C9.803,42.881 12.896,41.182 15.731,41.182 C16.907,41.182 18.039,41.474 19.029,42.092 C20.038,42.721 20.823,43.654 21.306,44.794 C21.364,45.011 21.495,45.209 21.693,45.349 C22.004,45.57 22.396,45.587 22.714,45.431 C22.9,45.342 23.046,45.201 23.143,45.034 L49.113,8.428 C49.981,9.179 51.339,10.616 51.729,12.519 C52.056,14.108 51.646,15.768 50.512,17.451 C46.147,23.931 19.782,53.791 19.484,54.13 C16.562,57.781 11.985,59.056 8.838,57.095 C7.461,56.236 6.538,54.869 6.169,53.14 C5.669,50.791 6.271,48.125 7.822,45.823 L7.822,45.823 Z" id="Shape" fill="#000000"></path>
        <path d="M49.778,56.057 C50.562,56.057 51.31,55.862 51.969,55.452 C52.901,54.87 53.529,53.933 53.783,52.742 C54.165,50.951 53.636,48.757 52.366,46.871 C50.171,43.612 46.565,42.237 44.161,43.736 C43.228,44.318 42.601,45.255 42.347,46.447 C41.965,48.238 42.495,50.432 43.764,52.317 C45.359,54.683 47.696,56.057 49.778,56.057 L49.778,56.057 Z M44.303,46.863 C44.4,46.411 44.637,45.795 45.22,45.432 C45.549,45.226 45.935,45.13 46.352,45.13 C47.757,45.13 49.522,46.228 50.706,47.987 C51.679,49.431 52.098,51.052 51.826,52.323 C51.73,52.775 51.493,53.39 50.909,53.754 C49.471,54.651 46.958,53.48 45.422,51.199 C44.451,49.755 44.032,48.134 44.303,46.863 L44.303,46.863 Z" id="Shape" fill="#000000"></path>
    </g>
</svg>