<?xml version="1.0" encoding="UTF-8" standalone="no"?>
<svg width="64px" height="64px" viewBox="0 0 64 64" version="1.1" xmlns="http://www.w3.org/2000/svg" xmlns:xlink="http://www.w3.org/1999/xlink">
    <!-- Generator: Sketch 3.7.2 (28276) - http://www.bohemiancoding.com/sketch -->
    <title>des-pencil-fat</title>
    <desc>Created with Sketch.</desc>
    <defs></defs>
    <g id="64px-Line" stroke="none" stroke-width="1" fill="none" fill-rule="evenodd">
        <g id="des-pencil-fat"></g>
        <path d="M30.005,22.149 L14.005,38.149 C13.614,38.54 13.614,39.172 14.005,39.563 C14.2,39.758 14.456,39.856 14.712,39.856 C14.968,39.856 15.224,39.758 15.419,39.563 L31.419,23.563 C31.81,23.172 31.81,22.54 31.419,22.149 C31.028,21.758 30.396,21.759 30.005,22.149 L30.005,22.149 Z" id="Shape" fill="#000000"></path>
        <path d="M45.49,7.458 C43.533,5.518 40.351,5.52 38.378,7.474 L31.497,14.605 C31.497,14.605 31.497,14.605 31.496,14.605 L4.287,42.298 C4.251,42.335 4.233,42.384 4.203,42.426 C4.158,42.488 4.107,42.545 4.078,42.616 C4.028,42.737 4.001,42.866 4.001,42.999 L4.001,58.999 C4.001,59.552 4.449,59.999 5.001,59.999 L21.001,59.999 C21.134,59.999 21.264,59.972 21.385,59.921 C21.471,59.885 21.542,59.827 21.614,59.77 C21.643,59.747 21.679,59.735 21.706,59.709 L49.33,32.294 C49.332,32.292 49.332,32.29 49.334,32.288 C49.336,32.286 49.339,32.286 49.34,32.284 L56.527,24.928 C57.478,23.986 58.001,22.732 58.001,21.398 C58.001,20.064 57.478,18.81 56.509,17.85 L45.49,7.458 L45.49,7.458 Z M13,52 L20,52 L20,58 L13.27,58 L6,50.729 L6,44 L12,44 L12,51 C12,51.553 12.448,52 13,52 L13,52 Z M6,53.558 L10.442,58 L6,58 L6,53.558 L6,53.558 Z M22,56.599 L22,51 C22,50.447 21.552,50 21,50 L14,50 L14,43 C14,42.447 13.552,42 13,42 L7.385,42 L32.219,16.725 L47.204,31.585 L22,56.599 L22,56.599 Z M55.106,23.519 L48.612,30.166 L33.614,15.291 L39.801,8.878 C40.982,7.708 42.902,7.709 44.099,8.896 L55.117,19.288 C55.686,19.852 55.999,20.601 55.999,21.398 C55.999,22.195 55.687,22.943 55.106,23.519 L55.106,23.519 Z" id="Shape" fill="#000000"></path>
    </g>
</svg>