<?xml version="1.0" encoding="UTF-8" standalone="no"?>
<svg width="64px" height="64px" viewBox="0 0 64 64" version="1.1" xmlns="http://www.w3.org/2000/svg" xmlns:xlink="http://www.w3.org/1999/xlink">
    <!-- Generator: Sketch 3.7.2 (28276) - http://www.bohemiancoding.com/sketch -->
    <title>des-magnet</title>
    <desc>Created with Sketch.</desc>
    <defs></defs>
    <g id="64px-Line" stroke="none" stroke-width="1" fill="none" fill-rule="evenodd">
        <g id="des-magnet"></g>
        <path d="M31,60 C45.888,60 58,47.888 58,33 L58,7 C58,6.448 57.553,6 57,6 L43,6 C42.447,6 42,6.448 42,7 L42,33 C42,39.065 37.065,44 31,44 C24.935,44 20,39.065 20,33 L20,7 C20,6.448 19.553,6 19,6 L5,6 C4.447,6 4,6.448 4,7 L4,33 C4,47.888 16.112,60 31,60 L31,60 Z M56,8 L56,18 L44,18 L44,8 L56,8 L56,8 Z M18,8 L18,18 L6,18 L6,8 L18,8 L18,8 Z M6,20 L18,20 L18,33 C18,40.168 23.832,46 31,46 C38.168,46 44,40.168 44,33 L44,20 L56,20 L56,33 C56,46.785 44.785,58 31,58 C17.215,58 6,46.785 6,33 L6,20 L6,20 Z" id="Shape" fill="#000000"></path>
    </g>
</svg>