<?xml version="1.0" encoding="UTF-8" standalone="no"?>
<svg width="44px" height="44px" viewBox="0 0 44 44" version="1.1" xmlns="http://www.w3.org/2000/svg" xmlns:xlink="http://www.w3.org/1999/xlink">
    <!-- Generator: Sketch 3.7.2 (28276) - http://www.bohemiancoding.com/sketch -->
    <title>des-paint</title>
    <desc>Created with Sketch.</desc>
    <defs></defs>
    <g id="44px-Glyph" stroke="none" stroke-width="1" fill="none" fill-rule="evenodd">
        <g id="des-paint" fill="#000000">
            <path d="M9.0002,20.001 C11.7572,20.001 14.0002,22.244 14.0002,25.001 L14.0002,30.001 C14.0002,31.104 14.8972,32.001 16.0002,32.001 C17.1032,32.001 18.0002,31.104 18.0002,30.001 L18.0002,23.001 C18.0002,21.347 19.3462,20.001 21.0002,20.001 C22.6542,20.001 24.0002,21.347 24.0002,23.001 L24.0002,25.001 C24.0002,25.553 24.4482,26.001 25.0002,26.001 C25.5522,26.001 26.0002,25.553 26.0002,25.001 L26.0002,19.501 C26.0002,17.327 26.9352,15.372 28.4182,14.001 L9.0002,14.001 C8.4472,14.001 8.0002,14.448 8.0002,15.001 L8.0002,20.001 L9.0002,20.001 Z" id="Fill-322"></path>
            <path d="M35.0002,14.001 L33.5002,14.001 C30.4682,14.001 28.0002,16.469 28.0002,19.501 L28.0002,25.001 C28.0002,26.655 26.6542,28.001 25.0002,28.001 C23.3462,28.001 22.0002,26.655 22.0002,25.001 L22.0002,23.001 C22.0002,22.449 21.5522,22.001 21.0002,22.001 C20.4482,22.001 20.0002,22.449 20.0002,23.001 L20.0002,30.001 C20.0002,32.207 18.2062,34.001 16.0002,34.001 C13.7942,34.001 12.0002,32.207 12.0002,30.001 L12.0002,25.001 C12.0002,23.347 10.6542,22.001 9.0002,22.001 L8.0002,22.001 L8.0002,43.001 C8.0002,43.554 8.4472,44.001 9.0002,44.001 L35.0002,44.001 C35.5532,44.001 36.0002,43.554 36.0002,43.001 L36.0002,15.001 C36.0002,14.448 35.5532,14.001 35.0002,14.001" id="Fill-323"></path>
            <path d="M39.0002,24.001 C38.4472,24.001 38.0002,23.554 38.0002,23.001 L38.0002,18.001 C38.0002,9.179 30.8222,2.001 22.0002,2.001 C13.1782,2.001 6.0002,9.179 6.0002,18.001 L6.0002,23.001 C6.0002,23.554 5.5532,24.001 5.0002,24.001 C4.4472,24.001 4.0002,23.554 4.0002,23.001 L4.0002,18.001 C4.0002,8.076 12.0752,0.001 22.0002,0.001 C31.9252,0.001 40.0002,8.076 40.0002,18.001 L40.0002,23.001 C40.0002,23.554 39.5532,24.001 39.0002,24.001" id="Fill-324"></path>
        </g>
    </g>
</svg>