<?xml version="1.0" encoding="UTF-8" standalone="no"?>
<svg width="64px" height="64px" viewBox="0 0 64 64" version="1.1" xmlns="http://www.w3.org/2000/svg" xmlns:xlink="http://www.w3.org/1999/xlink">
    <!-- Generator: Sketch 3.7.2 (28276) - http://www.bohemiancoding.com/sketch -->
    <title>des-technical-pencil-fat</title>
    <desc>Created with Sketch.</desc>
    <defs></defs>
    <g id="64px-Line" stroke="none" stroke-width="1" fill="none" fill-rule="evenodd">
        <g id="des-technical-pencil-fat"></g>
        <path d="M35.01,16.405 L15.463,35.953 C15.072,36.344 15.072,36.976 15.463,37.367 C15.658,37.562 15.914,37.66 16.17,37.66 C16.426,37.66 16.682,37.562 16.877,37.367 L36.424,17.819 C36.815,17.428 36.815,16.796 36.424,16.405 C36.033,16.014 35.401,16.015 35.01,16.405 L35.01,16.405 Z" id="Shape" fill="#000000"></path>
        <path d="M47.595,8.028 C44.895,5.329 40.503,5.329 37.803,8.028 L35.646,10.184 C33.727,8.92 31.113,9.132 29.426,10.82 L18.256,21.99 C17.865,22.381 17.865,23.013 18.256,23.404 C18.647,23.795 19.279,23.795 19.67,23.404 L30.84,12.234 C31.745,11.329 33.093,11.148 34.188,11.668 L10.283,36.304 C10.2,36.389 10.139,36.491 10.092,36.597 C10.034,36.725 10,36.861 10,37 L10,52.586 L4.293,58.293 C3.902,58.684 3.902,59.316 4.293,59.707 C4.488,59.902 4.744,60 5,60 C5.256,60 5.512,59.902 5.707,59.707 L11.414,54 L27,54 C27.144,54 27.284,53.961 27.417,53.9 C27.518,53.853 27.615,53.796 27.697,53.718 L53.169,29 C53.171,28.998 53.172,28.995 53.174,28.993 C53.176,28.992 53.178,28.991 53.18,28.989 L55.972,26.197 C58.671,23.498 58.671,19.104 55.972,16.405 L47.595,8.028 L47.595,8.028 Z M12,39.414 L24.586,52 L12,52 L12,39.414 L12,39.414 Z M27.01,51.597 L12.403,36.99 L35.727,12.953 L51.047,28.272 L27.01,51.597 L27.01,51.597 Z M54.558,24.783 L52.473,26.868 L37.132,11.527 L39.217,9.442 C41.137,7.522 44.261,7.522 46.181,9.442 L54.558,17.819 C56.478,19.739 56.478,22.863 54.558,24.783 L54.558,24.783 Z" id="Shape" fill="#000000"></path>
    </g>
</svg>