<?xml version="1.0" encoding="UTF-8" standalone="no"?>
<svg width="64px" height="64px" viewBox="0 0 64 64" version="1.1" xmlns="http://www.w3.org/2000/svg" xmlns:xlink="http://www.w3.org/1999/xlink">
    <!-- Generator: Sketch 3.7.2 (28276) - http://www.bohemiancoding.com/sketch -->
    <title>des-marker-fat</title>
    <desc>Created with Sketch.</desc>
    <defs></defs>
    <g id="64px-Line" stroke="none" stroke-width="1" fill="none" fill-rule="evenodd">
        <g id="des-marker-fat"></g>
        <path d="M57.069,21.828 L59.128,19.788 C59.317,19.6 59.424,19.345 59.424,19.078 C59.424,18.811 59.319,18.556 59.129,18.368 L49.57,8.861 C49.18,8.473 48.551,8.473 48.162,8.859 L46.083,10.918 L44.011,8.86 L44.01,8.86 C42.857,7.716 40.977,7.716 39.822,8.859 L10.636,37.769 C10.074,38.326 9.764,39.067 9.764,39.855 C9.763,40.644 10.073,41.386 10.634,41.943 L12.31,43.607 L10.246,45.651 C10.056,45.839 9.949,46.094 9.949,46.361 C9.949,46.629 10.055,46.883 10.245,47.072 L11.922,48.736 L4.297,56.289 C4.009,56.575 3.922,57.006 4.076,57.381 C4.23,57.755 4.596,58 5.001,58 L16.001,58 C16.257,58 16.504,57.901 16.689,57.725 L18.881,55.643 L20.585,57.334 C20.779,57.527 21.034,57.624 21.289,57.624 C21.544,57.624 21.798,57.527 21.993,57.335 L24.066,55.281 L25.754,56.958 C26.331,57.529 27.089,57.814 27.847,57.814 C28.605,57.814 29.364,57.529 29.941,56.958 L59.127,28.048 C59.69,27.49 60.001,26.748 60,25.959 C60,25.17 59.689,24.43 59.129,23.874 L57.069,21.828 L57.069,21.828 Z M48.863,10.979 L57.004,19.076 L55.649,20.418 L47.502,12.327 L48.863,10.979 L48.863,10.979 Z M15.601,56 L7.431,56 L13.342,50.146 L17.461,54.234 L15.601,56 L15.601,56 Z M21.29,55.216 L19.628,53.567 C19.626,53.565 19.625,53.562 19.623,53.559 C19.62,53.556 19.616,53.555 19.613,53.552 L12.37,46.364 L13.73,45.017 L22.648,53.872 L21.29,55.216 L21.29,55.216 Z M28.534,55.536 C28.154,55.912 27.539,55.909 27.163,55.537 L24.785,53.176 C24.782,53.174 24.782,53.17 24.779,53.167 C24.776,53.164 24.772,53.164 24.769,53.161 L12.042,40.524 C11.861,40.345 11.762,40.108 11.763,39.857 C11.763,39.606 11.862,39.37 12.042,39.192 L30.795,20.616 L47.274,36.973 L28.534,55.536 L28.534,55.536 Z M57.72,26.626 L48.696,35.565 L32.217,19.208 L41.229,10.28 C41.418,10.092 41.667,9.999 41.915,9.999 C42.164,9.999 42.412,10.093 42.602,10.28 L54.921,22.513 C54.927,22.519 54.928,22.528 54.934,22.534 C54.94,22.54 54.949,22.542 54.956,22.549 L57.721,25.295 C57.902,25.474 58,25.709 58,25.96 C58,26.211 57.901,26.447 57.72,26.626 L57.72,26.626 Z" id="Shape" fill="#000000"></path>
        <path d="M41.212,12.989 L35.652,18.496 C35.26,18.885 35.256,19.518 35.645,19.911 C35.841,20.108 36.098,20.207 36.356,20.207 C36.61,20.207 36.865,20.11 37.06,19.918 L42.62,14.411 C43.012,14.022 43.016,13.389 42.627,12.996 C42.237,12.604 41.605,12.602 41.212,12.989 L41.212,12.989 Z" id="Shape" fill="#000000"></path>
        <path d="M31.508,24.01 C31.118,23.618 30.487,23.615 30.093,24.003 L14.805,39.146 C14.413,39.535 14.409,40.168 14.798,40.561 C14.994,40.758 15.251,40.857 15.509,40.857 C15.763,40.857 16.018,40.76 16.213,40.568 L31.501,25.425 C31.893,25.036 31.896,24.402 31.508,24.01 L31.508,24.01 Z" id="Shape" fill="#000000"></path>
    </g>
</svg>