<?xml version="1.0" encoding="UTF-8" standalone="no"?>
<svg width="44px" height="44px" viewBox="0 0 44 44" version="1.1" xmlns="http://www.w3.org/2000/svg" xmlns:xlink="http://www.w3.org/1999/xlink">
    <!-- Generator: Sketch 3.7.2 (28276) - http://www.bohemiancoding.com/sketch -->
    <title>des-cut-line</title>
    <desc>Created with Sketch.</desc>
    <defs></defs>
    <g id="44px-Line" stroke="none" stroke-width="1" fill="none" fill-rule="evenodd">
        <g id="des-cut-line"></g>
        <path d="M23.862,26.493 C23.582,26.016 22.97,25.86 22.493,26.138 L15.225,30.415 C15.984,28.544 14.962,26.128 12.758,24.831 C11.441,24.057 9.944,23.809 8.653,24.15 C7.689,24.405 6.906,24.984 6.448,25.781 C5.349,27.692 6.38,30.38 8.745,31.772 L10.833,33.001 L8.745,34.23 C6.38,35.623 5.349,38.31 6.448,40.221 C6.906,41.018 7.689,41.597 8.653,41.852 C9.033,41.953 9.431,42.002 9.837,42.002 C10.811,42.002 11.829,41.718 12.759,41.171 C14.964,39.873 15.985,37.457 15.226,35.587 L22.494,39.864 C22.654,39.958 22.828,40.002 23,40.002 C23.343,40.002 23.676,39.826 23.863,39.509 C24.143,39.033 23.985,38.42 23.509,38.14 L14.779,33.002 L23.509,27.864 C23.983,27.582 24.142,26.969 23.862,26.493 L23.862,26.493 Z M8.181,26.776 C8.425,26.353 8.85,26.165 9.164,26.082 C9.374,26.027 9.599,26 9.831,26 C10.45,26 11.127,26.192 11.743,26.555 C13.144,27.379 13.866,28.876 13.321,29.826 C13.077,30.249 12.652,30.437 12.338,30.52 C11.57,30.719 10.606,30.545 9.758,30.047 C8.358,29.223 7.636,27.726 8.181,26.776 L8.181,26.776 Z M11.743,39.445 C10.895,39.944 9.931,40.118 9.163,39.918 C8.849,39.835 8.424,39.647 8.18,39.224 C7.635,38.275 8.357,36.778 9.758,35.953 C10.374,35.591 11.051,35.398 11.67,35.398 C11.903,35.398 12.128,35.425 12.337,35.48 C12.651,35.563 13.076,35.751 13.32,36.174 C13.866,37.124 13.144,38.621 11.743,39.445 L11.743,39.445 Z" id="Shape" fill="#000000"></path>
        <path d="M14.715,0 L12.715,0 C12.163,0 11.715,0.447 11.715,1 C11.715,1.553 12.163,2 12.715,2 L14.715,2 C15.267,2 15.715,1.553 15.715,1 C15.715,0.447 15.267,0 14.715,0 L14.715,0 Z" id="Shape" fill="#000000"></path>
        <path d="M32.715,2 C33.267,2 33.715,1.553 33.715,1 C33.715,0.447 33.267,0 32.715,0 L30.715,0 C30.163,0 29.715,0.447 29.715,1 C29.715,1.553 30.163,2 30.715,2 L32.715,2 L32.715,2 Z" id="Shape" fill="#000000"></path>
        <path d="M19,32 C18.448,32 18,32.447 18,33 C18,33.553 18.448,34 19,34 L21,34 C21.552,34 22,33.553 22,33 C22,32.447 21.552,32 21,32 L19,32 L19,32 Z" id="Shape" fill="#000000"></path>
        <path d="M8.249,15.961 C7.698,15.899 7.207,16.301 7.15,16.852 C7.093,17.401 7.491,17.893 8.041,17.95 C8.356,17.983 8.676,18.001 9,18.001 L10.143,18.001 C10.695,18.001 11.143,17.554 11.143,17.001 C11.143,16.448 10.695,16.001 10.143,16.001 L9,16.001 C8.746,16 8.496,15.986 8.249,15.961 L8.249,15.961 Z" id="Shape" fill="#000000"></path>
        <path d="M24.715,2 L26.715,2 C27.267,2 27.715,1.553 27.715,1 C27.715,0.447 27.267,0 26.715,0 L24.715,0 C24.163,0 23.715,0.447 23.715,1 C23.715,1.553 24.163,2 24.715,2 L24.715,2 Z" id="Shape" fill="#000000"></path>
        <path d="M43.858,23.402 C43.725,22.662 43.499,21.94 43.187,21.257 C42.956,20.754 42.361,20.537 41.861,20.765 C41.359,20.995 41.138,21.589 41.368,22.091 C41.611,22.619 41.786,23.18 41.889,23.755 C41.976,24.238 42.397,24.578 42.872,24.578 C42.931,24.578 42.99,24.573 43.05,24.562 C43.594,24.466 43.956,23.946 43.858,23.402 L43.858,23.402 Z" id="Shape" fill="#000000"></path>
        <path d="M36.978,33.753 C37.06,33.753 37.143,33.743 37.226,33.722 C37.955,33.536 38.659,33.259 39.316,32.899 C39.8,32.633 39.978,32.025 39.712,31.542 C39.446,31.057 38.838,30.879 38.354,31.146 C37.844,31.426 37.298,31.641 36.732,31.786 C36.197,31.923 35.874,32.467 36.01,33.002 C36.125,33.452 36.532,33.753 36.978,33.753 L36.978,33.753 Z" id="Shape" fill="#000000"></path>
        <path d="M41.189,30.166 C41.356,30.273 41.544,30.325 41.73,30.325 C42.059,30.325 42.38,30.163 42.572,29.867 C42.978,29.236 43.304,28.555 43.542,27.844 C43.717,27.32 43.434,26.753 42.91,26.579 C42.385,26.402 41.819,26.687 41.645,27.211 C41.46,27.765 41.207,28.293 40.891,28.783 C40.591,29.248 40.725,29.867 41.189,30.166 L41.189,30.166 Z" id="Shape" fill="#000000"></path>
        <path d="M29.143,17 C29.143,16.447 28.695,16 28.143,16 L26.143,16 C25.591,16 25.143,16.447 25.143,17 C25.143,17.553 25.591,18 26.143,18 L28.143,18 C28.695,18 29.143,17.553 29.143,17 L29.143,17 Z" id="Shape" fill="#000000"></path>
        <path d="M25,34 L27,34 C27.552,34 28,33.553 28,33 C28,32.447 27.552,32 27,32 L25,32 C24.448,32 24,32.447 24,33 C24,33.553 24.448,34 25,34 L25,34 Z" id="Shape" fill="#000000"></path>
        <path d="M38.715,2 C39.267,2 39.715,1.553 39.715,1 C39.715,0.447 39.267,0 38.715,0 L36.715,0 C36.163,0 35.715,0.447 35.715,1 C35.715,1.553 36.163,2 36.715,2 L38.715,2 L38.715,2 Z" id="Shape" fill="#000000"></path>
        <path d="M40.393,17.795 C39.793,17.345 39.138,16.971 38.446,16.683 C37.936,16.473 37.351,16.713 37.139,17.223 C36.927,17.733 37.168,18.318 37.679,18.531 C38.218,18.755 38.727,19.046 39.195,19.395 C39.375,19.53 39.585,19.595 39.794,19.595 C40.098,19.595 40.398,19.457 40.595,19.195 C40.925,18.753 40.835,18.126 40.393,17.795 L40.393,17.795 Z" id="Shape" fill="#000000"></path>
        <path d="M20.715,0 L18.715,0 C18.163,0 17.715,0.447 17.715,1 C17.715,1.553 18.163,2 18.715,2 L20.715,2 C21.267,2 21.715,1.553 21.715,1 C21.715,0.447 21.267,0 20.715,0 L20.715,0 Z" id="Shape" fill="#000000"></path>
        <path d="M19.143,17 C19.143,17.553 19.591,18 20.143,18 L22.143,18 C22.695,18 23.143,17.553 23.143,17 C23.143,16.447 22.695,16 22.143,16 L20.143,16 C19.59,16 19.143,16.447 19.143,17 L19.143,17 Z" id="Shape" fill="#000000"></path>
        <path d="M4.051,4.05 C4.442,3.659 4.442,3.027 4.051,2.636 C3.66,2.245 3.028,2.245 2.637,2.636 C2.106,3.167 1.642,3.763 1.26,4.406 C0.978,4.881 1.134,5.495 1.608,5.777 C1.768,5.873 1.944,5.918 2.118,5.918 C2.459,5.918 2.791,5.743 2.978,5.43 C3.276,4.928 3.638,4.464 4.051,4.05 L4.051,4.05 Z" id="Shape" fill="#000000"></path>
        <path d="M13.143,17 C13.143,17.553 13.591,18 14.143,18 L16.143,18 C16.695,18 17.143,17.553 17.143,17 C17.143,16.447 16.695,16 16.143,16 L14.143,16 C13.59,16 13.143,16.447 13.143,17 L13.143,17 Z" id="Shape" fill="#000000"></path>
        <path d="M8.682,0.007 C7.932,0.032 7.186,0.153 6.466,0.362 C5.936,0.517 5.632,1.073 5.787,1.602 C5.915,2.039 6.314,2.322 6.746,2.322 C6.839,2.322 6.934,2.309 7.027,2.282 C7.587,2.118 8.166,2.025 8.75,2.005 C9.302,1.986 9.734,1.524 9.715,0.972 C9.697,0.42 9.256,-0.057 8.682,0.007 L8.682,0.007 Z" id="Shape" fill="#000000"></path>
        <path d="M43,0 L42.715,0 C42.163,0 41.715,0.447 41.715,1 C41.715,1.553 42.163,2 42.715,2 L43,2 C43.552,2 44,1.553 44,1 C44,0.447 43.552,0 43,0 L43,0 Z" id="Shape" fill="#000000"></path>
        <path d="M31,34 L33,34 C33.552,34 34,33.553 34,33 C34,32.447 33.552,32 33,32 L31,32 C30.448,32 30,32.447 30,33 C30,33.553 30.448,34 31,34 L31,34 Z" id="Shape" fill="#000000"></path>
        <path d="M2.198,14.895 C2.689,15.46 3.25,15.965 3.865,16.393 C4.039,16.515 4.238,16.573 4.435,16.573 C4.751,16.573 5.062,16.424 5.257,16.144 C5.572,15.691 5.461,15.068 5.007,14.752 C4.528,14.418 4.09,14.024 3.708,13.584 C3.346,13.166 2.713,13.12 2.297,13.484 C1.881,13.846 1.836,14.478 2.198,14.895 L2.198,14.895 Z" id="Shape" fill="#000000"></path>
        <path d="M1.18,11.7 C1.25,11.7 1.321,11.693 1.392,11.678 C1.932,11.561 2.275,11.029 2.158,10.489 C2.053,10.003 2,9.502 2,9 L2.004,8.75 C2.024,8.198 1.592,7.734 1.041,7.715 C0.501,7.681 0.026,8.125 0.005,8.678 C0.001,8.784 0,8.893 0,8.999 C0,9.643 0.068,10.286 0.203,10.912 C0.305,11.38 0.719,11.7 1.18,11.7 L1.18,11.7 Z" id="Shape" fill="#000000"></path>
        <path d="M35.143,17 C35.143,16.447 34.695,16 34.143,16 L32.143,16 C31.591,16 31.143,16.447 31.143,17 C31.143,17.553 31.591,18 32.143,18 L34.143,18 C34.695,18 35.143,17.553 35.143,17 L35.143,17 Z" id="Shape" fill="#000000"></path>
        <path d="M5,34 L7,34 C7.552,34 8,33.553 8,33 C8,32.447 7.552,32 7,32 L5,32 C4.448,32 4,32.447 4,33 C4,33.553 4.448,34 5,34 L5,34 Z" id="Shape" fill="#000000"></path>
    </g>
</svg>