<?xml version="1.0" encoding="UTF-8" standalone="no"?>
<svg width="44px" height="44px" viewBox="0 0 44 44" version="1.1" xmlns="http://www.w3.org/2000/svg" xmlns:xlink="http://www.w3.org/1999/xlink">
    <!-- Generator: Sketch 3.7.2 (28276) - http://www.bohemiancoding.com/sketch -->
    <title>des-brush-wide</title>
    <desc>Created with Sketch.</desc>
    <defs></defs>
    <g id="44px-Line" stroke="none" stroke-width="1" fill="none" fill-rule="evenodd">
        <g id="des-brush-wide"></g>
        <path d="M43.395,0.605 C42.141,-0.65 39.751,0.035 35.876,2.758 C32.789,4.927 28.872,8.338 24.848,12.362 C17.941,19.269 12.588,26.981 11.306,28.88 C9.568,28.945 4.09,29.359 1.434,32.015 C0.266,33.183 -0.192,34.518 0.073,35.983 C0.34,37.458 1.345,39.051 3.148,40.853 C4.95,42.655 6.543,43.661 8.018,43.928 C8.287,43.976 8.552,44.001 8.811,44.001 C9.967,44.001 11.032,43.521 11.986,42.567 C14.642,39.911 15.056,34.433 15.121,32.695 C17.02,31.413 24.731,26.06 31.639,19.153 C35.663,15.129 39.074,11.213 41.243,8.125 C43.965,4.248 44.649,1.859 43.395,0.605 L43.395,0.605 Z M16.05,25.684 L18.317,27.951 C16.496,29.315 15.051,30.324 14.26,30.863 L13.138,29.741 C13.677,28.95 14.685,27.504 16.05,25.684 L16.05,25.684 Z M10.571,41.152 C9.865,41.858 9.189,42.106 8.373,41.959 C7.327,41.77 6.044,40.922 4.561,39.438 C3.078,37.954 2.229,36.672 2.04,35.626 C1.893,34.812 2.142,34.133 2.847,33.428 C4.452,31.823 7.621,31.224 9.738,31 C8.272,31.639 6.493,32.665 4.86,34.298 C4.469,34.689 4.469,35.322 4.86,35.712 C5.251,36.103 5.883,36.103 6.274,35.712 C8.101,33.885 10.177,32.918 11.565,32.433 C11.08,33.821 10.113,35.897 8.286,37.724 C7.895,38.114 7.895,38.747 8.286,39.138 C8.481,39.333 8.737,39.431 8.993,39.431 C9.249,39.431 9.505,39.333 9.7,39.138 C11.334,37.505 12.359,35.725 12.998,34.26 C12.775,36.378 12.176,39.547 10.571,41.152 L10.571,41.152 Z M30.224,17.738 C26.697,21.265 22.961,24.373 19.921,26.727 L17.273,24.079 C19.627,21.038 22.736,17.303 26.262,13.776 C35.577,4.462 41.105,1.532 41.974,2.011 C42.473,2.898 39.538,8.424 30.224,17.738 L30.224,17.738 Z" id="Shape" fill="#000000"></path>
    </g>
</svg>