<?xml version="1.0" encoding="UTF-8" standalone="no"?>
<svg width="64px" height="64px" viewBox="0 0 64 64" version="1.1" xmlns="http://www.w3.org/2000/svg" xmlns:xlink="http://www.w3.org/1999/xlink">
    <!-- Generator: Sketch 3.7.2 (28276) - http://www.bohemiancoding.com/sketch -->
    <title>des-pipette</title>
    <desc>Created with Sketch.</desc>
    <defs></defs>
    <g id="64px-Line" stroke="none" stroke-width="1" fill="none" fill-rule="evenodd">
        <g id="des-pipette"></g>
        <path d="M7.244,59.707 C7.432,59.895 7.686,60 7.951,60 C8.216,60 8.471,59.895 8.658,59.707 C10.342,58.023 12.024,58.464 12.084,58.48 C12.438,58.587 12.822,58.493 13.084,58.231 L37.458,33.858 L38.287,34.687 C38.872,35.272 39.64,35.564 40.408,35.564 C41.177,35.564 41.945,35.272 42.53,34.687 L45.602,31.615 C46.169,31.049 46.481,30.295 46.481,29.493 C46.481,28.692 46.169,27.938 45.602,27.372 L44.914,26.684 C47.404,24.957 53.828,20.437 55.868,18.397 C58.699,15.567 58.699,10.961 55.868,8.131 C53.038,5.301 48.432,5.302 45.602,8.131 C43.562,10.171 39.044,16.594 37.316,19.085 L36.627,18.396 C35.458,17.228 33.555,17.229 32.385,18.397 L29.312,21.47 C28.745,22.036 28.433,22.79 28.433,23.591 C28.433,24.393 28.745,25.147 29.312,25.712 L30.142,26.542 L5.768,50.915 C5.513,51.17 5.419,51.556 5.515,51.902 C5.535,51.973 5.977,53.656 4.293,55.34 C4.105,55.528 4,55.781 4,56.047 C4,56.312 4.105,56.567 4.293,56.754 L7.244,59.707 L7.244,59.707 Z M47.016,9.546 C49.067,7.494 52.404,7.496 54.454,9.546 C56.504,11.597 56.504,14.933 54.454,16.984 C52.463,18.975 45.644,23.747 43.477,25.247 L38.754,20.523 C40.254,18.356 45.025,11.538 47.016,9.546 L47.016,9.546 Z M30.727,22.885 L33.799,19.813 C34.189,19.422 34.824,19.423 35.214,19.812 L44.188,28.787 C44.377,28.976 44.481,29.227 44.481,29.494 C44.481,29.762 44.377,30.012 44.188,30.201 L41.115,33.274 C40.724,33.665 40.089,33.665 39.7,33.274 L30.725,24.298 C30.537,24.11 30.433,23.86 30.433,23.592 C30.434,23.325 30.538,23.074 30.727,22.885 L30.727,22.885 Z M7.549,51.964 L31.557,27.957 L36.044,32.444 L12.036,56.451 C11.189,56.358 9.612,56.414 7.999,57.634 L6.367,56.001 C7.586,54.389 7.64,52.811 7.549,51.964 L7.549,51.964 Z" id="Shape" fill="#000000"></path>
    </g>
</svg>