<?xml version="1.0" encoding="UTF-8" standalone="no"?>
<svg width="64px" height="64px" viewBox="0 0 64 64" version="1.1" xmlns="http://www.w3.org/2000/svg" xmlns:xlink="http://www.w3.org/1999/xlink">
    <!-- Generator: Sketch 3.7.2 (28276) - http://www.bohemiancoding.com/sketch -->
    <title>des-ink-well</title>
    <desc>Created with Sketch.</desc>
    <defs></defs>
    <g id="64px-Line" stroke="none" stroke-width="1" fill="none" fill-rule="evenodd">
        <g id="des-ink-well"></g>
        <path d="M27.932,6.647 C27.916,6.604 27.884,6.567 27.861,6.526 C27.821,6.453 27.782,6.38 27.727,6.321 C27.72,6.314 27.718,6.304 27.711,6.297 C27.682,6.268 27.645,6.256 27.614,6.232 C27.553,6.183 27.493,6.136 27.422,6.103 C27.37,6.079 27.316,6.066 27.261,6.052 C27.197,6.034 27.134,6.017 27.067,6.012 C27.005,6.008 26.946,6.015 26.884,6.023 C26.841,6.028 26.8,6.02 26.757,6.03 C26.626,6.063 19.146,8.012 12.797,13.269 C12.673,13.318 12.557,13.391 12.457,13.491 C12.384,13.564 12.327,13.645 12.259,13.72 C7.78,17.605 4,23.193 4,31 C4,39.432 7.502,45.202 8.771,47.016 C8.287,50.75 8,54.742 8,59 C8,59.553 8.448,60 9,60 C9.552,60 10,59.553 10,59 C10,55.028 10.254,51.286 10.691,47.761 C12.224,46.9 20.972,41.566 25.926,29.377 C26.297,28.464 26.618,27.575 26.911,26.701 C26.92,26.677 26.931,26.655 26.94,26.631 C26.945,26.616 26.942,26.602 26.947,26.587 C30.801,14.972 28.07,7.021 27.942,6.663 C27.939,6.657 27.934,6.653 27.932,6.647 L27.932,6.647 Z M6,31 C6,25.803 7.859,21.669 10.475,18.419 C10.319,20.914 10.998,23.146 11.047,23.3 C11.182,23.727 11.576,23.999 12,23.999 C12.1,23.999 12.201,23.984 12.301,23.953 C12.828,23.786 13.12,23.224 12.954,22.698 C12.938,22.647 11.426,17.71 13.696,15.11 C17.175,12.121 21.102,10.216 23.831,9.132 C22.077,11.353 19.602,14.869 17.111,19.696 C14.223,25.292 10.954,33.452 9.225,43.909 C7.83,41.327 6,36.832 6,31 L6,31 Z M11.055,45.158 C14.143,25.208 23.191,12.961 26.487,9.067 C27.049,11.924 27.663,18.126 24.999,26.099 C22.501,32.76 17.035,33.973 16.802,34.021 C16.262,34.13 15.913,34.656 16.021,35.196 C16.116,35.672 16.533,36.001 17,36.001 C17.065,36.001 17.13,35.995 17.197,35.981 C17.342,35.952 19.193,35.551 21.337,34.077 C17.702,40.083 13.317,43.607 11.055,45.158 L11.055,45.158 Z" id="Shape" fill="#000000"></path>
        <path d="M32.895,34.935 L29.87,36.448 C27.483,37.642 26,40.041 26,42.709 L26,56 C26,58.206 27.794,60 30,60 L54,60 C56.206,60 58,58.206 58,56 L58,42.708 C58,40.04 56.517,37.642 54.13,36.447 L51.105,34.934 C50.423,34.593 50,33.908 50,33.145 L50,28 L51,28 C51.552,28 52,27.553 52,27 C52,26.447 51.552,26 51,26 L33,26 C32.448,26 32,26.447 32,27 C32,27.553 32.448,28 33,28 L34,28 L34,33.146 C34,33.908 33.577,34.594 32.895,34.935 L32.895,34.935 Z M48,28 L48,33.146 C48,34.671 48.847,36.042 50.211,36.724 L53.236,38.237 C54.941,39.09 56,40.803 56,42.709 L56,56 C56,57.103 55.103,58 54,58 L30,58 C28.897,58 28,57.103 28,56 L28,42.708 C28,40.803 29.059,39.089 30.764,38.236 L33.789,36.723 C35.153,36.041 36,34.67 36,33.145 L36,28 L48,28 L48,28 Z" id="Shape" fill="#000000"></path>
        <path d="M33.831,39.135 L31.942,40.269 C30.744,40.987 30,42.301 30,43.699 L30,53 C30,53.553 30.448,54 31,54 C31.552,54 32,53.553 32,53 L32,43.698 C32,43 32.372,42.343 32.971,41.983 L34.86,40.849 C35.334,40.565 35.487,39.951 35.203,39.477 C34.919,39.003 34.305,38.851 33.831,39.135 L33.831,39.135 Z" id="Shape" fill="#000000"></path>
    </g>
</svg>