<?xml version="1.0" encoding="UTF-8" standalone="no"?>
<svg width="64px" height="64px" viewBox="0 0 64 64" version="1.1" xmlns="http://www.w3.org/2000/svg" xmlns:xlink="http://www.w3.org/1999/xlink">
    <!-- Generator: Sketch 3.7.2 (28276) - http://www.bohemiancoding.com/sketch -->
    <title>des-glue-pot</title>
    <desc>Created with Sketch.</desc>
    <defs></defs>
    <g id="64px-Line" stroke="none" stroke-width="1" fill="none" fill-rule="evenodd">
        <g id="des-glue-pot"></g>
        <path d="M57,24 C57.287,24 57.56,23.877 57.75,23.662 C57.94,23.447 58.028,23.161 57.993,22.876 L55.993,6.876 C55.931,6.376 55.505,6 55.001,6 L43.001,6 C42.497,6 42.071,6.375 42.009,6.876 L40.009,22.876 C39.973,23.161 40.062,23.447 40.252,23.662 C40.441,23.877 40.715,24 41.002,24 L48.002,24 L48.002,38.073 C44.521,38.531 42.002,41.352 42.002,45 C42.002,46.824 43.446,48.259 44.843,49.647 C45.939,50.736 47.073,51.862 47.074,52.833 C47.074,53.291 46.82,53.768 46.295,54.293 C45.991,54.596 45.916,55.06 46.106,55.444 C46.276,55.788 46.626,56 47.002,56 C47.046,56 47.092,55.997 47.137,55.991 C47.223,55.979 56,54.678 56,45 C56,41.48 53.387,38.567 50,38.08 L50,24 L57,24 L57,24 Z M54,45 C54,50.112 51.137,52.363 49.035,53.327 C49.06,53.162 49.073,52.996 49.073,52.829 C49.07,51.029 47.637,49.605 46.251,48.228 C45.145,47.128 44.001,45.992 44.001,44.999 C44.001,42.148 46.15,39.999 49.001,39.999 C51.757,40 54,42.243 54,45 L54,45 Z M43.883,8 L54.117,8 L55.867,22 L42.133,22 L43.883,8 L43.883,8 Z" id="Shape" fill="#000000"></path>
        <path d="M36,56 L36,32 C36,28.649 32.014,24.054 26,22.241 L26,17 C26,16.448 25.552,16 25,16 L15,16 C14.448,16 14,16.448 14,17 L14,22.241 C7.986,24.054 4,28.65 4,32 L4,56 C4,58.206 5.794,60 8,60 L32,60 C34.206,60 36,58.206 36,56 L36,56 Z M6,56 L6,32 C6,29.688 9.603,25.41 15.248,23.969 C15.69,23.856 16,23.457 16,23 L16,18 L24,18 L24,23 C24,23.457 24.31,23.856 24.752,23.969 C30.397,25.41 34,29.688 34,32 L34,56 C34,57.103 33.103,58 32,58 L8,58 C6.897,58 6,57.103 6,56 L6,56 Z" id="Shape" fill="#000000"></path>
        <path d="M12.538,27.113 C12.353,27.209 8,29.517 8,33 L8,49 C8,49.552 8.448,50 9,50 C9.552,50 10,49.552 10,49 L10,33 C10,31.117 12.5,29.392 13.463,28.886 C13.951,28.63 14.141,28.026 13.885,27.537 C13.63,27.048 13.027,26.856 12.538,27.113 L12.538,27.113 Z" id="Shape" fill="#000000"></path>
    </g>
</svg>