<?xml version="1.0" encoding="UTF-8" standalone="no"?>
<svg width="64px" height="64px" viewBox="0 0 64 64" version="1.1" xmlns="http://www.w3.org/2000/svg" xmlns:xlink="http://www.w3.org/1999/xlink">
    <!-- Generator: Sketch 3.7.2 (28276) - http://www.bohemiancoding.com/sketch -->
    <title>des-eraser</title>
    <desc>Created with Sketch.</desc>
    <defs></defs>
    <g id="64px-Glyph" stroke="none" stroke-width="1" fill="none" fill-rule="evenodd">
        <g id="des-eraser" fill="#000000">
            <path d="M54.1525,15.8955 L40.7625,26.8495 C40.5775,27.0005 40.3535,27.0755 40.1315,27.0755 C39.8415,27.0755 39.5535,26.9505 39.3555,26.7085 C39.0065,26.2815 39.0695,25.6515 39.4975,25.3005 L52.8865,14.3465 C53.3135,13.9975 53.9435,14.0595 54.2945,14.4885 C54.6435,14.9145 54.5805,15.5445 54.1525,15.8955 L54.1525,15.8955 Z M38.2935,32.2825 L34.2115,44.5295 C34.0715,44.9485 33.6815,45.2125 33.2625,45.2125 C33.1585,45.2125 33.0525,45.1965 32.9465,45.1615 C32.4235,44.9875 32.1395,44.4205 32.3145,43.8965 L36.3965,31.6495 C36.5715,31.1255 37.1325,30.8405 37.6615,31.0175 C38.1845,31.1915 38.4685,31.7575 38.2935,32.2825 L38.2935,32.2825 Z M19.0005,27.9995 C18.4475,27.9995 18.0005,27.5525 18.0005,26.9995 C18.0005,26.4475 18.4475,25.9995 19.0005,25.9995 L33.0005,25.9995 C33.5525,25.9995 34.0005,26.4475 34.0005,26.9995 C34.0005,27.5525 33.5525,27.9995 33.0005,27.9995 L19.0005,27.9995 Z M58.8605,10.4845 C57.7215,8.9055 55.9535,7.9995 54.0095,7.9995 L36.5585,7.9995 C34.0315,7.9995 31.5625,8.8835 29.6075,10.4875 L12.6525,24.3945 C11.0455,25.7115 9.8475,27.4525 9.1895,29.4295 L4.3105,44.1035 C3.6945,45.9575 3.9965,47.9305 5.1395,49.5155 C6.2785,51.0945 8.0475,51.9995 9.9915,51.9995 L27.4415,51.9995 C29.9695,51.9995 32.4375,51.1165 34.3925,49.5125 L51.3475,35.6055 C52.9555,34.2885 54.1525,32.5475 54.8105,30.5705 L59.6895,15.8965 C60.3055,14.0415 60.0045,12.0695 58.8605,10.4845 L58.8605,10.4845 Z" id="Fill-460"></path>
        </g>
    </g>
</svg>