<?xml version="1.0" encoding="UTF-8" standalone="no"?>
<svg width="64px" height="64px" viewBox="0 0 64 64" version="1.1" xmlns="http://www.w3.org/2000/svg" xmlns:xlink="http://www.w3.org/1999/xlink">
    <!-- Generator: Sketch 3.7.2 (28276) - http://www.bohemiancoding.com/sketch -->
    <title>des-brush-target</title>
    <desc>Created with Sketch.</desc>
    <defs></defs>
    <g id="64px-Line" stroke="none" stroke-width="1" fill="none" fill-rule="evenodd">
        <g id="des-brush-target"></g>
        <path d="M4.92,16 L6,16 C6.441,19.059 8.861,21.479 11.92,21.92 L11.92,23 C11.92,23.553 12.367,24 12.92,24 C13.473,24 13.92,23.553 13.92,23 L13.92,21.92 C16.979,21.48 19.399,19.059 19.84,16 L20.92,16 C21.473,16 21.92,15.553 21.92,15 C21.92,14.447 21.473,14 20.92,14 L19.84,14 C19.399,10.941 16.979,8.521 13.92,8.08 L13.92,7 C13.92,6.447 13.473,6 12.92,6 C12.367,6 11.92,6.447 11.92,7 L11.92,8.08 C8.861,8.52 6.441,10.941 6,14 L4.92,14 C4.367,14 3.92,14.447 3.92,15 C3.92,15.553 4.367,16 4.92,16 L4.92,16 Z M8.021,16 L11.92,16 L11.92,19.899 C9.964,19.5 8.42,17.956 8.021,16 L8.021,16 Z M13.92,19.899 L13.92,16 L17.819,16 C17.42,17.956 15.876,19.5 13.92,19.899 L13.92,19.899 Z M17.819,14 L13.92,14 L13.92,10.101 C15.876,10.5 17.42,12.044 17.819,14 L17.819,14 Z M11.92,10.101 L11.92,14 L8.021,14 C8.42,12.044 9.964,10.5 11.92,10.101 L11.92,10.101 Z" id="Shape" fill="#000000"></path>
        <path d="M5,60 C16.391,60 19.034,59.359 22.681,55.714 C26.239,52.155 25.077,47.249 24.446,45.377 C26.76,43.648 35.284,37.121 43.648,28.757 C47.832,24.574 61.176,10.624 57.279,6.725 C53.771,3.218 42.235,13.705 35.669,20.27 C27.166,28.772 21.317,38.591 19.883,41.108 C18.179,40.903 13.898,40.7 11.282,43.318 C8.071,46.529 7.77,50.394 7.529,53.499 C7.25,57.089 6.965,58 5,58 C4.447,58 4,58.447 4,59 C4,59.553 4.447,60 5,60 L5,60 Z M37.083,21.684 C49.294,9.473 55.006,7.281 55.865,8.139 C56.837,9.111 53.836,15.743 42.234,27.343 C37.359,32.218 32.438,36.451 28.744,39.464 L25.375,36.095 C28.126,32.01 32.143,26.624 37.083,21.684 L37.083,21.684 Z M24.25,37.796 L27.181,40.727 C25.441,42.116 24.097,43.14 23.342,43.706 L21.661,42.025 C22.118,41.226 23,39.728 24.25,37.796 L24.25,37.796 Z M9.522,53.653 C9.75,50.731 10.007,47.42 12.696,44.731 C14.849,42.578 18.85,42.977 19.94,43.133 L22.393,45.586 C22.739,46.467 24.379,51.187 21.266,54.3 C18.484,57.081 16.391,57.827 8.694,57.971 C9.279,56.777 9.402,55.202 9.522,53.653 L9.522,53.653 Z" id="Shape" fill="#000000"></path>
        <path d="M16.44,45.174 C16.193,45.287 13.995,46.331 13.02,48.115 C11.767,50.413 11.963,52.866 11.972,52.969 C12.017,53.49 12.453,53.883 12.967,53.883 C12.995,53.883 13.025,53.882 13.054,53.879 C13.605,53.831 14.012,53.347 13.964,52.797 C13.962,52.777 13.823,50.818 14.776,49.073 C15.332,48.055 16.767,47.225 17.274,46.991 C17.774,46.76 17.994,46.167 17.763,45.666 C17.534,45.164 16.942,44.945 16.44,45.174 L16.44,45.174 Z" id="Shape" fill="#000000"></path>
    </g>
</svg>