<?xml version="1.0" encoding="UTF-8" standalone="no"?>
<svg width="64px" height="64px" viewBox="0 0 64 64" version="1.1" xmlns="http://www.w3.org/2000/svg" xmlns:xlink="http://www.w3.org/1999/xlink">
    <!-- Generator: Sketch 3.7.2 (28276) - http://www.bohemiancoding.com/sketch -->
    <title>des-craft-knife-fat</title>
    <desc>Created with Sketch.</desc>
    <defs></defs>
    <g id="64px-Glyph" stroke="none" stroke-width="1" fill="none" fill-rule="evenodd">
        <g id="des-craft-knife-fat" fill="#000000">
            <path d="M23.0002,24.9277 C22.7442,24.9277 22.4882,24.8297 22.2932,24.6347 C21.9022,24.2437 21.9022,23.6117 22.2932,23.2207 L28.2932,17.2207 C28.6842,16.8297 29.3162,16.8297 29.7072,17.2207 C30.0982,17.6117 30.0982,18.2437 29.7072,18.6347 L23.7072,24.6347 C23.5122,24.8297 23.2562,24.9277 23.0002,24.9277" id="Fill-37"></path>
            <path d="M27.621,51.999 C27.32,51.831 26.964,51.831 26.663,51.999 L27.621,51.999 Z" id="Fill-39"></path>
            <path d="M24.0413,54 L4.5863,54 L2.2933,56.293 C2.0073,56.579 1.9213,57.009 2.0763,57.383 C2.2303,57.757 2.5963,58 3.0003,58 L23.0003,58 C23.2663,58 23.5193,57.895 23.7073,57.707 L25.7283,55.686 L24.0413,54 Z" id="Fill-41"></path>
            <polygon id="Fill-43" points="14.3138 44.2715 6.5858 52.0005 22.0418 51.9985"></polygon>
            <path d="M42.7072,16.6348 L21.7072,37.6348 C21.5122,37.8298 21.2562,37.9278 21.0002,37.9278 C20.7442,37.9278 20.4882,37.8298 20.2932,37.6348 C19.9022,37.2438 19.9022,36.6118 20.2932,36.2208 L41.2932,15.2208 C41.6842,14.8298 42.3162,14.8298 42.7072,15.2208 C43.0982,15.6118 43.0982,16.2438 42.7072,16.6348 M60.8322,22.8758 L47.1242,9.1678 C45.5692,7.6138 43.0382,7.6138 41.4832,9.1678 L13.8772,36.7748 C13.3122,37.3398 13.0002,38.0908 13.0002,38.8908 C13.0002,39.6908 13.3122,40.4418 13.8772,41.0068 L28.9932,56.1228 C29.5592,56.6888 30.3102,56.9998 31.1092,56.9998 C31.9092,56.9998 32.6602,56.6888 33.2262,56.1228 L60.8322,28.5168 C62.3882,26.9618 62.3882,24.4308 60.8322,22.8758" id="Fill-45"></path>
        </g>
    </g>
</svg>