<?xml version="1.0" encoding="UTF-8" standalone="no"?>
<svg width="64px" height="64px" viewBox="0 0 64 64" version="1.1" xmlns="http://www.w3.org/2000/svg" xmlns:xlink="http://www.w3.org/1999/xlink">
    <!-- Generator: Sketch 3.7.2 (28276) - http://www.bohemiancoding.com/sketch -->
    <title>des-pipette-target</title>
    <desc>Created with Sketch.</desc>
    <defs></defs>
    <g id="64px-Line" stroke="none" stroke-width="1" fill="none" fill-rule="evenodd">
        <g id="des-pipette-target"></g>
        <path d="M13,6 C12.448,6 12,6.448 12,7 L12,8.08 C8.941,8.52 6.521,10.941 6.08,14 L5,14 C4.448,14 4,14.448 4,15 C4,15.552 4.448,16 5,16 L6.08,16 C6.521,19.059 8.941,21.479 12,21.92 L12,23 C12,23.552 12.448,24 13,24 C13.552,24 14,23.552 14,23 L14,21.92 C17.059,21.48 19.479,19.059 19.92,16 L21,16 C21.552,16 22,15.552 22,15 C22,14.448 21.552,14 21,14 L19.92,14 C19.479,10.941 17.059,8.521 14,8.08 L14,7 C14,6.448 13.552,6 13,6 L13,6 Z M12,10.101 L12,14 L8.101,14 C8.5,12.044 10.044,10.5 12,10.101 L12,10.101 Z M8.101,16 L12,16 L12,19.899 C10.044,19.5 8.5,17.956 8.101,16 L8.101,16 Z M14,19.899 L14,16 L17.899,16 C17.5,17.956 15.956,19.5 14,19.899 L14,19.899 Z M17.899,14 L14,14 L14,10.101 C15.956,10.5 17.5,12.044 17.899,14 L17.899,14 Z" id="Shape" fill="#000000"></path>
        <path d="M7.244,59.707 C7.439,59.902 7.695,60 7.951,60 C8.207,60 8.463,59.902 8.658,59.707 C10.344,58.022 12.027,58.466 12.084,58.481 C12.436,58.591 12.822,58.494 13.084,58.232 L37.458,33.858 L38.287,34.687 C38.872,35.272 39.64,35.564 40.409,35.564 C41.177,35.564 41.945,35.272 42.53,34.687 L45.603,31.614 C46.773,30.445 46.773,28.541 45.603,27.371 L44.915,26.683 C47.405,24.956 53.829,20.437 55.869,18.397 C58.7,15.566 58.7,10.961 55.869,8.131 C53.039,5.3 48.433,5.301 45.603,8.131 C43.563,10.171 39.044,16.595 37.317,19.085 L36.629,18.397 C35.459,17.227 33.556,17.226 32.386,18.397 L29.313,21.47 C28.143,22.639 28.143,24.543 29.313,25.713 L30.142,26.543 L5.768,50.917 C5.513,51.172 5.419,51.558 5.515,51.905 C5.535,51.976 5.977,53.658 4.293,55.343 C3.902,55.734 3.902,56.366 4.293,56.757 L7.244,59.707 L7.244,59.707 Z M47.016,9.546 C49.067,7.495 52.404,7.496 54.454,9.546 C56.505,11.597 56.505,14.933 54.454,16.984 C52.463,18.975 45.643,23.746 43.476,25.247 L38.753,20.524 C40.254,18.357 45.025,11.538 47.016,9.546 L47.016,9.546 Z M30.727,22.885 L33.8,19.812 C33.995,19.617 34.251,19.52 34.507,19.52 C34.763,19.52 35.02,19.618 35.215,19.812 L44.189,28.786 C44.579,29.176 44.579,29.81 44.189,30.201 L41.116,33.274 C40.725,33.664 40.09,33.663 39.701,33.274 L38.166,31.739 C38.166,31.739 38.166,31.738 38.165,31.738 C38.164,31.738 38.164,31.738 38.164,31.737 L32.265,25.838 C32.265,25.838 32.265,25.837 32.264,25.837 C32.263,25.837 32.263,25.837 32.263,25.836 L30.728,24.301 C30.337,23.909 30.337,23.275 30.727,22.885 L30.727,22.885 Z M7.549,51.964 L31.556,27.957 L36.043,32.444 L12.035,56.451 C11.188,56.361 9.611,56.414 7.998,57.633 L6.366,56.001 C7.585,54.388 7.64,52.811 7.549,51.964 L7.549,51.964 Z" id="Shape" fill="#000000"></path>
    </g>
</svg>