<?xml version="1.0" encoding="UTF-8" standalone="no"?>
<svg width="64px" height="64px" viewBox="0 0 64 64" version="1.1" xmlns="http://www.w3.org/2000/svg" xmlns:xlink="http://www.w3.org/1999/xlink">
    <!-- Generator: Sketch 3.7.2 (28276) - http://www.bohemiancoding.com/sketch -->
    <title>des-airbrush-fat</title>
    <desc>Created with Sketch.</desc>
    <defs></defs>
    <g id="64px-Line" stroke="none" stroke-width="1" fill="none" fill-rule="evenodd">
        <g id="des-airbrush-fat"></g>
        <path d="M17.728,47.272 C17.984,47.272 18.24,47.174 18.435,46.979 L19.707,45.707 C20.098,45.316 20.098,44.684 19.707,44.293 C19.316,43.902 18.684,43.902 18.293,44.293 L17.021,45.565 C16.63,45.956 16.63,46.588 17.021,46.979 C17.216,47.175 17.472,47.272 17.728,47.272 L17.728,47.272 Z" id="Shape" fill="#000000"></path>
        <path d="M9.95,52.636 L8.535,54.051 C8.144,54.442 8.144,55.074 8.535,55.465 C8.73,55.66 8.986,55.758 9.242,55.758 C9.498,55.758 9.754,55.66 9.949,55.465 L11.364,54.05 C11.755,53.659 11.755,53.027 11.364,52.636 C10.973,52.245 10.341,52.245 9.95,52.636 L9.95,52.636 Z" id="Shape" fill="#000000"></path>
        <path d="M14.192,48.394 L12.778,49.808 C12.387,50.199 12.387,50.831 12.778,51.222 C12.973,51.417 13.229,51.515 13.485,51.515 C13.741,51.515 13.997,51.417 14.192,51.222 L15.606,49.808 C15.997,49.417 15.997,48.785 15.606,48.394 C15.215,48.003 14.583,48.003 14.192,48.394 L14.192,48.394 Z" id="Shape" fill="#000000"></path>
        <path d="M5,60 C5.256,60 5.512,59.902 5.707,59.707 L7.121,58.293 C7.512,57.902 7.512,57.27 7.121,56.879 C6.73,56.488 6.098,56.488 5.707,56.879 L4.293,58.293 C3.902,58.684 3.902,59.316 4.293,59.707 C4.488,59.902 4.744,60 5,60 L5,60 Z" id="Shape" fill="#000000"></path>
        <path d="M21.657,49.138 L21.986,47.165 C22.077,46.62 21.709,46.104 21.165,46.014 C20.608,45.919 20.104,46.291 20.014,46.835 L19.685,48.808 C19.594,49.353 19.962,49.869 20.506,49.959 C20.563,49.969 20.617,49.973 20.672,49.973 C21.152,49.973 21.575,49.626 21.657,49.138 L21.657,49.138 Z" id="Shape" fill="#000000"></path>
        <path d="M18.835,59.986 C18.891,59.996 18.946,60 19.001,60 C19.48,60 19.904,59.654 19.986,59.165 L20.013,59.002 C20.104,58.458 19.737,57.942 19.192,57.851 C18.645,57.752 18.132,58.127 18.041,58.672 L18.014,58.835 C17.923,59.379 18.29,59.895 18.835,59.986 L18.835,59.986 Z" id="Shape" fill="#000000"></path>
        <path d="M20.671,55.056 L21,53.082 C21.091,52.538 20.723,52.022 20.178,51.932 C19.634,51.835 19.117,52.209 19.028,52.754 L18.699,54.728 C18.608,55.272 18.976,55.788 19.521,55.878 C19.577,55.888 19.631,55.892 19.686,55.892 C20.166,55.892 20.59,55.545 20.671,55.056 L20.671,55.056 Z" id="Shape" fill="#000000"></path>
        <path d="M4.835,44.014 C4.29,44.106 3.923,44.621 4.014,45.165 C4.096,45.654 4.52,46 4.999,46 C5.054,46 5.109,45.996 5.165,45.986 L5.328,45.959 C5.873,45.867 6.24,45.352 6.149,44.808 C6.057,44.263 5.538,43.891 4.998,43.987 L4.835,44.014 L4.835,44.014 Z" id="Shape" fill="#000000"></path>
        <path d="M17.986,42.835 C17.894,42.291 17.388,41.916 16.835,42.014 L14.862,42.343 C14.318,42.434 13.95,42.949 14.041,43.494 C14.123,43.982 14.546,44.329 15.026,44.329 C15.081,44.329 15.135,44.325 15.192,44.315 L17.165,43.986 C17.709,43.896 18.077,43.38 17.986,42.835 L17.986,42.835 Z" id="Shape" fill="#000000"></path>
        <path d="M12.068,43.822 C11.977,43.277 11.464,42.905 10.918,43 L8.944,43.329 C8.399,43.42 8.031,43.935 8.122,44.479 C8.203,44.968 8.627,45.315 9.107,45.315 C9.162,45.315 9.216,45.311 9.272,45.301 L11.246,44.972 C11.791,44.882 12.159,44.366 12.068,43.822 L12.068,43.822 Z" id="Shape" fill="#000000"></path>
        <path d="M47.618,45.488 C44.048,46.597 40,47.854 40,52.469 C40,55.719 42.961,57.971 48.8,59.162 C52.853,59.989 56.833,59.999 57,59.999 C57.553,59.999 58,59.552 58,58.999 C58,58.446 57.553,57.999 57,57.999 C53.108,57.999 42,56.983 42,52.469 C42,49.538 44.347,48.598 48.212,47.398 C51.862,46.264 56,44.979 56,40.17 C56,38.504 55.102,37.093 53.469,36.196 C51.584,35.16 49.014,34.951 46.34,35.484 C46.533,35.297 46.73,35.116 46.921,34.925 C51.602,30.247 55.133,24.958 56.865,20.033 C58.682,14.863 58.315,10.648 55.832,8.166 C50.822,3.159 39.061,7.072 29.057,17.071 C29.01,17.117 28.967,17.166 28.921,17.213 L27.208,15.5 C28.925,13.86 30.002,11.555 30.002,8.998 L30.002,6.998 C30.002,6.445 29.555,5.998 29.002,5.998 L13.002,5.998 C12.449,5.998 12.002,6.445 12.002,6.998 L12.002,8.998 C12.002,13.961 16.039,17.998 21.002,17.998 C22.683,17.998 24.253,17.526 25.601,16.721 L27.544,18.664 C21.429,25.369 17.644,33.362 18.004,39.061 C18.02,39.303 18.123,39.533 18.295,39.705 L24.295,45.705 C24.468,45.879 24.699,45.982 24.943,45.996 C25.175,46.01 25.411,46.017 25.65,46.017 C30.222,46.017 36.088,43.572 41.566,39.532 C45.782,36.863 50.259,36.714 52.508,37.949 C53.498,38.493 54.001,39.24 54.001,40.17 C54,43.282 51.589,44.255 47.618,45.488 L47.618,45.488 Z M14,9 L14,8 L28,8 L28,9 C28,12.859 24.859,16 21,16 C17.141,16 14,12.859 14,9 L14,9 Z M54.417,9.582 C56.327,11.491 56.525,14.968 54.978,19.371 C53.343,24.019 49.98,29.042 45.506,33.513 C41.149,37.868 35.928,41.229 31.298,42.884 L21.093,32.678 C22.741,28.052 26.11,22.845 30.47,18.487 C39.376,9.586 50.343,5.511 54.417,9.582 L54.417,9.582 Z M25.431,44.017 L19.982,38.568 C19.953,37.431 20.119,36.178 20.442,34.856 L29.125,43.539 C27.808,43.864 26.561,44.036 25.431,44.017 L25.431,44.017 Z" id="Shape" fill="#000000"></path>
    </g>
</svg>