<?xml version="1.0" encoding="UTF-8" standalone="no"?>
<svg width="64px" height="64px" viewBox="0 0 64 64" version="1.1" xmlns="http://www.w3.org/2000/svg" xmlns:xlink="http://www.w3.org/1999/xlink">
    <!-- Generator: Sketch 3.7.2 (28276) - http://www.bohemiancoding.com/sketch -->
    <title>des-ruler</title>
    <desc>Created with Sketch.</desc>
    <defs></defs>
    <g id="64px-Line" stroke="none" stroke-width="1" fill="none" fill-rule="evenodd">
        <g id="des-ruler"></g>
        <path d="M49.707,4.293 C49.316,3.902 48.684,3.902 48.293,4.293 L4.293,48.293 C3.902,48.684 3.902,49.316 4.293,49.707 L14.293,59.707 C14.488,59.902 14.744,60 15,60 C15.256,60 15.512,59.902 15.707,59.707 L59.707,15.707 C60.098,15.316 60.098,14.684 59.707,14.293 L49.707,4.293 L49.707,4.293 Z M55,17.586 L49.707,12.293 C49.316,11.902 48.684,11.902 48.293,12.293 C47.902,12.684 47.902,13.316 48.293,13.707 L53.586,19 L51,21.586 L48.707,19.293 C48.316,18.902 47.684,18.902 47.293,19.293 C46.902,19.684 46.902,20.316 47.293,20.707 L49.586,23 L47,25.586 L41.707,20.293 C41.316,19.902 40.684,19.902 40.293,20.293 C39.902,20.684 39.902,21.316 40.293,21.707 L45.586,27 L43,29.586 L40.707,27.293 C40.316,26.902 39.684,26.902 39.293,27.293 C38.902,27.684 38.902,28.316 39.293,28.707 L41.586,31 L39,33.586 L33.707,28.293 C33.316,27.902 32.684,27.902 32.293,28.293 C31.902,28.684 31.902,29.316 32.293,29.707 L37.586,35 L35,37.586 L32.707,35.293 C32.316,34.902 31.684,34.902 31.293,35.293 C30.902,35.684 30.902,36.316 31.293,36.707 L33.586,39 L31,41.586 L25.707,36.293 C25.316,35.902 24.684,35.902 24.293,36.293 C23.902,36.684 23.902,37.316 24.293,37.707 L29.586,43 L27,45.586 L24.707,43.293 C24.316,42.902 23.684,42.902 23.293,43.293 C22.902,43.684 22.902,44.316 23.293,44.707 L25.586,47 L23,49.586 L17.707,44.293 C17.316,43.902 16.684,43.902 16.293,44.293 C15.902,44.684 15.902,45.316 16.293,45.707 L21.586,51 L19,53.586 L16.707,51.293 C16.316,50.902 15.684,50.902 15.293,51.293 C14.902,51.684 14.902,52.316 15.293,52.707 L17.586,55 L15,57.586 L6.414,49 L49,6.414 L57.586,15 L55,17.586 L55,17.586 Z" id="Shape" fill="#000000"></path>
    </g>
</svg>