<?xml version="1.0" encoding="UTF-8" standalone="no"?>
<svg width="64px" height="64px" viewBox="0 0 64 64" version="1.1" xmlns="http://www.w3.org/2000/svg" xmlns:xlink="http://www.w3.org/1999/xlink">
    <!-- Generator: Sketch 3.7.2 (28276) - http://www.bohemiancoding.com/sketch -->
    <title>des-feather-pen</title>
    <desc>Created with Sketch.</desc>
    <defs></defs>
    <g id="64px-Line" stroke="none" stroke-width="1" fill="none" fill-rule="evenodd">
        <g id="des-feather-pen"></g>
        <path d="M57.974,6.861 C57.967,6.811 57.963,6.764 57.949,6.715 C57.943,6.695 57.946,6.674 57.939,6.654 C57.913,6.584 57.868,6.528 57.829,6.467 C57.811,6.439 57.807,6.405 57.786,6.379 C57.781,6.373 57.773,6.371 57.768,6.365 C57.684,6.263 57.583,6.179 57.469,6.118 C57.442,6.104 57.411,6.1 57.382,6.089 C57.289,6.05 57.194,6.022 57.092,6.012 C57.076,6.011 57.062,6.001 57.045,6 C56.093,5.953 33.494,5.091 20.302,18.283 C10.559,27.791 12.239,38.585 12.727,40.845 C10.423,44.386 8.19,48.266 6.101,52.561 C5.984,52.802 5.968,53.079 6.057,53.331 C6.146,53.583 6.332,53.789 6.575,53.903 C8.643,54.877 8.023,58.785 8.016,58.824 C7.937,59.277 8.176,59.727 8.598,59.912 C8.728,59.97 8.866,59.997 9.001,59.997 C9.304,59.997 9.599,59.859 9.792,59.608 C10.566,58.604 13.011,55.998 15,55.998 C15.475,55.998 15.883,55.665 15.979,55.201 C16.645,51.982 17.723,48.883 19.083,45.908 C21.535,45.401 35.188,42.224 44.706,32.706 C54.973,22.44 57.863,7.805 57.981,7.186 C57.986,7.161 57.976,7.137 57.979,7.112 C57.99,7.029 57.986,6.947 57.974,6.861 L57.974,6.861 Z M21.707,19.707 C24.022,17.392 26.674,15.536 29.46,14.042 C27.844,16.589 27.991,18.921 28.004,19.084 C28.048,19.605 28.483,19.997 28.998,19.997 C29.024,19.997 29.051,19.996 29.077,19.994 C29.625,19.952 30.036,19.471 29.997,18.923 C29.982,18.711 29.725,13.75 36.504,11.048 C41.479,9.4 46.359,8.629 50.105,8.276 C47.023,9.56 43.067,11.504 38.643,14.382 C31.736,18.876 22.696,26.388 14.407,38.335 C14.111,34.481 14.587,26.656 21.707,19.707 L21.707,19.707 Z M14.177,54.078 C12.618,54.367 11.151,55.412 10.057,56.406 C9.914,55.094 9.467,53.607 8.291,52.64 C20.601,27.824 37.722,16.365 48.103,11.406 C45.006,13.54 41.331,16.274 37.566,19.524 C28.688,27.189 17.498,39.361 14.177,54.078 L14.177,54.078 Z M55.473,9.04 C54.41,12.949 51.628,21.313 45.888,28.393 C40.2,34.445 31.152,34.007 31.057,34.001 C30.541,33.967 30.034,34.39 30.001,34.941 C29.97,35.492 30.389,35.965 30.939,35.997 C30.998,36.001 31.246,36.014 31.646,36.014 C32.962,36.014 35.928,35.867 39.232,34.785 C32.088,40.117 23.841,42.657 20.218,43.583 C29.551,25.633 49.177,12.816 55.473,9.04 L55.473,9.04 Z" id="Shape" fill="#000000"></path>
        <path d="M42,59 C42,58.448 41.553,58 41,58 L13,58 C12.447,58 12,58.448 12,59 C12,59.552 12.447,60 13,60 L41,60 C41.553,60 42,59.552 42,59 L42,59 Z" id="Shape" fill="#000000"></path>
        <path d="M51,60 C51.553,60 52,59.552 52,59 C52,58.448 51.553,58 51,58 L45,58 C44.447,58 44,58.448 44,59 C44,59.552 44.447,60 45,60 L51,60 L51,60 Z" id="Shape" fill="#000000"></path>
        <path d="M57,58 L55,58 C54.447,58 54,58.448 54,59 C54,59.552 54.447,60 55,60 L57,60 C57.553,60 58,59.552 58,59 C58,58.448 57.553,58 57,58 L57,58 Z" id="Shape" fill="#000000"></path>
    </g>
</svg>