<?xml version="1.0" encoding="UTF-8" standalone="no"?>
<svg width="64px" height="64px" viewBox="0 0 64 64" version="1.1" xmlns="http://www.w3.org/2000/svg" xmlns:xlink="http://www.w3.org/1999/xlink">
    <!-- Generator: Sketch 3.7.2 (28276) - http://www.bohemiancoding.com/sketch -->
    <title>des-swatches</title>
    <desc>Created with Sketch.</desc>
    <defs></defs>
    <g id="64px-Line" stroke="none" stroke-width="1" fill="none" fill-rule="evenodd">
        <g id="des-swatches"></g>
        <path d="M7,24 L14.445,24 L7.5,28.01 C6.806,28.41 6.31,29.057 6.103,29.831 C5.896,30.605 6.002,31.414 6.403,32.107 L12.403,42.499 C12.803,43.193 13.45,43.69 14.224,43.897 C14.483,43.966 14.745,44.001 15.005,44.001 C15.526,44.001 16.038,43.865 16.5,43.598 L25.732,38.268 L20.402,47.499 C19.575,48.931 20.067,50.77 21.5,51.598 L31.893,57.598 C32.365,57.87 32.879,57.999 33.387,57.999 C34.425,57.999 35.436,57.461 35.991,56.499 L40,49.555 L40,57 C40,58.654 41.346,60 43,60 L55,60 C56.654,60 58,58.654 58,57 L58,9 C58,7.346 56.654,6 55,6 L43,6 L7,6 C5.346,6 4,7.346 4,9 L4,21 C4,22.654 5.346,24 7,24 L7,24 Z M15.5,41.866 C15.268,41.999 15.001,42.033 14.741,41.966 C14.483,41.897 14.268,41.732 14.135,41.5 L8.135,31.107 C8.001,30.876 7.965,30.607 8.034,30.349 C8.103,30.091 8.268,29.875 8.5,29.742 L40,11.555 L40,13.555 L27.732,34.804 L15.5,41.866 L15.5,41.866 Z M34.259,55.5 C33.984,55.978 33.369,56.142 32.893,55.866 L22.501,49.866 C22.023,49.59 21.858,48.977 22.135,48.499 L40,17.556 L40,45.556 L34.259,55.5 L34.259,55.5 Z M56,9 L56,57 C56,57.551 55.552,58 55,58 L43,58 C42.448,58 42,57.551 42,57 L42,9 C42,8.449 42.448,8 43,8 L55,8 C55.552,8 56,8.449 56,9 L56,9 Z M6,9 C6,8.449 6.448,8 7,8 L40.184,8 C40.072,8.314 40,8.647 40,9 L40,9.245 L17.909,22 L7,22 C6.448,22 6,21.551 6,21 L6,9 L6,9 Z" id="Shape" fill="#000000"></path>
        <path d="M49,18 C50.654,18 52,16.654 52,15 C52,13.346 50.654,12 49,12 C47.346,12 46,13.346 46,15 C46,16.654 47.346,18 49,18 L49,18 Z M49,14 C49.552,14 50,14.449 50,15 C50,15.551 49.552,16 49,16 C48.448,16 48,15.551 48,15 C48,14.449 48.448,14 49,14 L49,14 Z" id="Shape" fill="#000000"></path>
    </g>
</svg>