<?xml version="1.0" encoding="UTF-8" standalone="no"?>
<svg width="64px" height="64px" viewBox="0 0 64 64" version="1.1" xmlns="http://www.w3.org/2000/svg" xmlns:xlink="http://www.w3.org/1999/xlink">
    <!-- Generator: Sketch 3.7.2 (28276) - http://www.bohemiancoding.com/sketch -->
    <title>des-pencil-target</title>
    <desc>Created with Sketch.</desc>
    <defs></defs>
    <g id="64px-Line" stroke="none" stroke-width="1" fill="none" fill-rule="evenodd">
        <g id="des-pencil-target"></g>
        <path d="M5,16 L6.08,16 C6.521,19.059 8.941,21.479 12,21.92 L12,23 C12,23.553 12.448,24 13,24 C13.552,24 14,23.553 14,23 L14,21.92 C17.059,21.48 19.479,19.059 19.92,16 L21,16 C21.552,16 22,15.553 22,15 C22,14.447 21.552,14 21,14 L19.92,14 C19.479,10.941 17.059,8.521 14,8.08 L14,7 C14,6.447 13.552,6 13,6 C12.448,6 12,6.447 12,7 L12,8.08 C8.941,8.52 6.521,10.941 6.08,14 L5,14 C4.448,14 4,14.447 4,15 C4,15.553 4.448,16 5,16 L5,16 Z M8.101,16 L12,16 L12,19.899 C10.044,19.5 8.5,17.956 8.101,16 L8.101,16 Z M14,19.899 L14,16 L17.899,16 C17.5,17.956 15.956,19.5 14,19.899 L14,19.899 Z M17.899,14 L14,14 L14,10.101 C15.956,10.5 17.5,12.044 17.899,14 L17.899,14 Z M12,10.101 L12,14 L8.101,14 C8.5,12.044 10.044,10.5 12,10.101 L12,10.101 Z" id="Shape" fill="#000000"></path>
        <path d="M58,14.104 C58,13.051 57.59,12.06 56.845,11.316 L52.684,7.156 C51.94,6.412 50.95,6.001 49.896,6.001 L49.896,6.001 C48.843,6.001 47.853,6.411 47.108,7.156 L43.639,10.624 L12.389,41.873 C12.312,41.95 12.247,42.04 12.199,42.138 L4.103,58.559 C3.914,58.944 3.99,59.406 4.293,59.708 C4.485,59.9 4.741,60.001 5.001,60.001 C5.151,60.001 5.302,59.967 5.443,59.897 L21.861,51.8 C21.959,51.752 22.049,51.688 22.126,51.611 L23.736,50.002 C23.739,49.999 23.742,49.996 23.745,49.993 L53.378,20.361 L56.845,16.893 C57.59,16.147 58,15.157 58,14.104 L58,14.104 Z M17.484,50.29 L20.4,50.29 L10.773,55.038 L8.961,53.226 L13.222,44.584 L16.483,44.705 L16.483,49.29 C16.484,49.843 16.932,50.29 17.484,50.29 L17.484,50.29 Z M8.028,55.12 L8.88,55.972 L7.199,56.801 L8.028,55.12 L8.028,55.12 Z M22.617,48.29 L18.484,48.29 L18.484,43.741 C18.484,43.203 18.059,42.762 17.521,42.742 L14.461,42.629 L44.347,12.744 L51.256,19.653 L22.617,48.29 L22.617,48.29 Z M55.431,15.478 L52.67,18.24 L45.761,11.331 L48.523,8.57 C48.889,8.203 49.377,8.001 49.896,8.001 L49.896,8.001 C50.415,8.001 50.902,8.203 51.269,8.57 L55.43,12.73 C55.797,13.097 55.999,13.585 55.999,14.104 C56,14.623 55.798,15.11 55.431,15.478 L55.431,15.478 Z" id="Shape" fill="#000000"></path>
    </g>
</svg>