<?xml version="1.0" encoding="UTF-8" standalone="no"?>
<svg width="64px" height="64px" viewBox="0 0 64 64" version="1.1" xmlns="http://www.w3.org/2000/svg" xmlns:xlink="http://www.w3.org/1999/xlink">
    <!-- Generator: Sketch 3.7.2 (28276) - http://www.bohemiancoding.com/sketch -->
    <title>des-magnify</title>
    <desc>Created with Sketch.</desc>
    <defs></defs>
    <g id="64px-Line" stroke="none" stroke-width="1" fill="none" fill-rule="evenodd">
        <g id="des-magnify"></g>
        <path d="M41,40 C50.374,40 58,32.374 58,23 C58,13.626 50.374,6 41,6 C31.626,6 24,13.626 24,23 C24,26.562 25.105,29.867 26.984,32.601 L23.533,36.052 C23.356,36.033 23.181,36 23,36 C21.664,36 20.409,36.52 19.465,37.464 L5.465,51.464 C3.516,53.414 3.516,56.586 5.465,58.535 C6.409,59.48 7.664,60 9,60 C10.336,60 11.591,59.48 12.535,58.536 L26.535,44.536 C27.645,43.425 28.101,41.92 27.946,40.468 L31.398,37.016 C34.133,38.895 37.439,40 41,40 L41,40 Z M41,8 C49.271,8 56,14.729 56,23 C56,31.271 49.271,38 41,38 C32.729,38 26,31.271 26,23 C26,14.729 32.729,8 41,8 L41,8 Z M25.121,43.122 L11.121,57.122 C9.988,58.255 8.012,58.255 6.879,57.122 C5.709,55.952 5.709,54.049 6.879,52.879 L20.879,38.879 C21.445,38.313 22.198,38.001 23,38.001 C23.802,38.001 24.555,38.313 25.121,38.879 C26.291,40.048 26.291,41.952 25.121,43.122 L25.121,43.122 Z M27.231,38.355 C27.034,38.04 26.809,37.738 26.535,37.464 C26.264,37.193 25.962,36.967 25.645,36.769 L28.229,34.184 C28.723,34.747 29.252,35.276 29.815,35.77 L27.231,38.355 L27.231,38.355 Z" id="Shape" fill="#000000"></path>
        <path d="M32,23 C32,18.038 36.037,14 41,14 C41.553,14 42,13.552 42,13 C42,12.448 41.553,12 41,12 C34.935,12 30,16.935 30,23 C30,23.552 30.447,24 31,24 C31.553,24 32,23.552 32,23 L32,23 Z" id="Shape" fill="#000000"></path>
    </g>
</svg>