<?xml version="1.0" encoding="UTF-8" standalone="no"?>
<svg width="64px" height="64px" viewBox="0 0 64 64" version="1.1" xmlns="http://www.w3.org/2000/svg" xmlns:xlink="http://www.w3.org/1999/xlink">
    <!-- Generator: Sketch 3.7.2 (28276) - http://www.bohemiancoding.com/sketch -->
    <title>des-scalpel</title>
    <desc>Created with Sketch.</desc>
    <defs></defs>
    <g id="64px-Line" stroke="none" stroke-width="1" fill="none" fill-rule="evenodd">
        <g id="des-scalpel"></g>
        <path d="M53.732,6.322 C53.31,5.867 52.449,5.949 52.132,6.496 C51.037,7.776 37.887,20.869 26.483,32.166 C26.418,32.207 26.349,32.237 26.292,32.293 C26.238,32.347 26.21,32.414 26.171,32.475 C24.126,34.501 22.14,36.466 20.296,38.289 C20.107,38.476 20,38.731 19.999,38.997 C19.998,39.264 20.103,39.519 20.292,39.707 L20.585,40 L4.292,56.293 C3.968,56.617 3.905,57.119 4.141,57.513 C4.325,57.822 4.655,58 4.999,58 C5.095,58 5.191,57.986 5.286,57.958 L25.286,51.958 C25.57,51.873 25.801,51.665 25.917,51.393 C26.034,51.122 26.023,50.81 25.89,50.546 C25.823,50.411 24.423,47.565 25.839,45.25 L26.296,45.707 C26.491,45.902 26.747,46 27.003,46 C27.259,46 27.515,45.902 27.71,45.707 L59.706,13.707 C59.895,13.52 60,13.265 60,13 C60,12.734 59.895,12.48 59.707,12.293 L53.732,6.322 L53.732,6.322 Z M23.667,50.355 L8.512,54.902 L22,41.414 L24.395,43.807 C22.684,46.145 23.179,48.869 23.667,50.355 L23.667,50.355 Z M27.004,43.586 L22.418,39.004 C23.299,38.133 24.944,36.504 27.027,34.442 L31.587,39.002 L27.004,43.586 L27.004,43.586 Z M33.002,37.587 L28.449,33.034 C31.183,30.325 34.465,27.069 37.746,23.807 C41.754,19.822 45.759,15.828 48.755,12.816 C50.953,10.604 52.267,9.284 53.032,8.449 L57.587,13 L33.002,37.587 L33.002,37.587 Z" id="Shape" fill="#000000"></path>
    </g>
</svg>