<?xml version="1.0" encoding="UTF-8" standalone="no"?>
<svg width="44px" height="44px" viewBox="0 0 44 44" version="1.1" xmlns="http://www.w3.org/2000/svg" xmlns:xlink="http://www.w3.org/1999/xlink">
    <!-- Generator: Sketch 3.7.2 (28276) - http://www.bohemiancoding.com/sketch -->
    <title>des-airbrush</title>
    <desc>Created with Sketch.</desc>
    <defs></defs>
    <g id="44px-Line" stroke="none" stroke-width="1" fill="none" fill-rule="evenodd">
        <g id="des-airbrush"></g>
        <path d="M43.357,0.629 C42.073,-0.637 39.478,0.008 35.418,2.601 C31.904,4.845 27.725,8.295 23.65,12.315 C23.549,12.415 23.457,12.512 23.358,12.611 L21.563,10.817 C23.038,9.723 24,7.974 24,6.001 L24,5.001 C24,4.449 23.552,4.001 23,4.001 L13,4.001 C12.448,4.001 12,4.449 12,5.001 L12,6.001 C12,9.31 14.691,12.001 18,12.001 C18.582,12.001 19.143,11.914 19.676,11.758 L21.962,14.044 C16.022,20.311 13.28,25.48 12.543,27.011 C12.358,27.394 12.436,27.852 12.737,28.152 L15.848,31.263 C16.04,31.455 16.296,31.556 16.556,31.556 C16.7,31.556 16.844,31.525 16.98,31.461 C20.226,29.939 24.738,26.531 29.578,21.976 L29.584,21.973 C32.64,19.281 35.547,19.148 37.108,19.853 C38.255,20.372 38.887,21.388 38.887,22.716 C38.887,24.058 37.17,25.079 35.182,26.261 C31.981,28.164 27.998,30.533 27.998,35.965 C27.998,43.908 40.894,44 41.442,44 L43,44 C43.552,44 44,43.552 44,43 C44,42.448 43.552,42 43,42 L41.445,42 C41.331,42 30,41.918 30,35.965 C30,31.671 33.155,29.794 36.207,27.98 C38.615,26.548 40.889,25.196 40.889,22.716 C40.889,20.587 39.811,18.879 37.933,18.03 C36.747,17.494 35.371,17.387 33.944,17.627 C39.263,11.988 44,5.614 44,2.342 C44,1.451 43.65,0.918 43.357,0.629 L43.357,0.629 Z M14,6 L22,6 C22,8.206 20.206,10 18,10 C15.794,10 14,8.206 14,6 L14,6 Z M16.755,29.341 L14.661,27.247 C14.927,26.733 15.252,26.164 15.603,25.573 L18.411,28.381 C17.834,28.741 17.275,29.071 16.755,29.341 L16.755,29.341 Z M30.11,18.689 C26.506,22.246 23.05,25.189 20.11,27.251 L16.696,23.836 C18.649,20.868 21.445,17.302 25.057,13.738 C34.888,4.036 41.207,1.411 41.953,2.051 C42.572,2.804 39.869,9.059 30.11,18.689 L30.11,18.689 Z" id="Shape" fill="#000000"></path>
        <path d="M7.6,37.4 C7.856,37.4 8.112,37.302 8.307,37.107 L9.407,36.007 C9.798,35.616 9.798,34.984 9.407,34.593 C9.016,34.202 8.384,34.202 7.993,34.593 L6.893,35.693 C6.502,36.084 6.502,36.716 6.893,37.107 C7.088,37.303 7.344,37.4 7.6,37.4 L7.6,37.4 Z" id="Shape" fill="#000000"></path>
        <path d="M10.899,34.101 C11.155,34.101 11.411,34.003 11.606,33.808 L12.706,32.708 C13.097,32.317 13.097,31.685 12.706,31.294 C12.315,30.903 11.683,30.903 11.292,31.294 L10.192,32.394 C9.801,32.785 9.801,33.417 10.192,33.808 C10.388,34.003 10.644,34.101 10.899,34.101 L10.899,34.101 Z" id="Shape" fill="#000000"></path>
        <path d="M1,44 C1.256,44 1.512,43.902 1.707,43.707 L2.807,42.607 C3.198,42.216 3.198,41.584 2.807,41.193 C2.416,40.802 1.784,40.802 1.393,41.193 L0.293,42.293 C-0.098,42.684 -0.098,43.316 0.293,43.707 C0.488,43.902 0.744,44 1,44 L1,44 Z" id="Shape" fill="#000000"></path>
        <path d="M4.3,40.7 C4.556,40.7 4.812,40.602 5.007,40.407 L6.107,39.307 C6.498,38.916 6.498,38.284 6.107,37.893 C5.716,37.502 5.084,37.502 4.693,37.893 L3.593,38.993 C3.202,39.384 3.202,40.016 3.593,40.407 C3.788,40.603 4.044,40.7 4.3,40.7 L4.3,40.7 Z" id="Shape" fill="#000000"></path>
        <path d="M11.733,43.542 C11.825,43.568 11.918,43.581 12.008,43.581 C12.443,43.581 12.843,43.294 12.969,42.855 L13.396,41.359 C13.548,40.828 13.24,40.274 12.709,40.123 C12.177,39.971 11.625,40.279 11.473,40.81 L11.046,42.306 C10.895,42.837 11.203,43.391 11.733,43.542 L11.733,43.542 Z" id="Shape" fill="#000000"></path>
        <path d="M15.534,33.882 L15.961,32.386 C16.113,31.855 15.805,31.301 15.274,31.15 C14.742,30.998 14.19,31.306 14.038,31.837 L13.611,33.333 C13.459,33.864 13.767,34.418 14.298,34.569 C14.39,34.595 14.483,34.608 14.573,34.608 C15.008,34.607 15.409,34.321 15.534,33.882 L15.534,33.882 Z" id="Shape" fill="#000000"></path>
        <path d="M14.252,38.369 L14.679,36.873 C14.831,36.342 14.523,35.788 13.992,35.637 C13.462,35.485 12.908,35.793 12.756,36.324 L12.329,37.82 C12.177,38.351 12.485,38.905 13.016,39.056 C13.108,39.082 13.201,39.095 13.291,39.095 C13.726,39.095 14.126,38.808 14.252,38.369 L14.252,38.369 Z" id="Shape" fill="#000000"></path>
        <path d="M3.876,31.29 C3.724,30.76 3.17,30.452 2.64,30.603 L1.144,31.03 C0.613,31.181 0.306,31.735 0.457,32.266 C0.582,32.705 0.983,32.992 1.418,32.992 C1.509,32.992 1.602,32.979 1.693,32.953 L3.189,32.526 C3.72,32.375 4.028,31.821 3.876,31.29 L3.876,31.29 Z" id="Shape" fill="#000000"></path>
        <path d="M8.363,30.007 C8.212,29.476 7.657,29.168 7.127,29.32 L5.631,29.747 C5.1,29.898 4.793,30.452 4.944,30.983 C5.069,31.422 5.47,31.709 5.905,31.709 C5.996,31.709 6.089,31.696 6.18,31.67 L7.676,31.243 C8.207,31.092 8.515,30.539 8.363,30.007 L8.363,30.007 Z" id="Shape" fill="#000000"></path>
        <path d="M10.393,30.428 C10.484,30.428 10.577,30.415 10.668,30.389 L12.164,29.962 C12.695,29.811 13.002,29.257 12.851,28.726 C12.699,28.196 12.145,27.886 11.615,28.039 L10.119,28.466 C9.588,28.617 9.281,29.171 9.432,29.702 C9.557,30.141 9.958,30.428 10.393,30.428 L10.393,30.428 Z" id="Shape" fill="#000000"></path>
    </g>
</svg>