<?xml version="1.0" encoding="UTF-8" standalone="no"?>
<svg width="64px" height="64px" viewBox="0 0 64 64" version="1.1" xmlns="http://www.w3.org/2000/svg" xmlns:xlink="http://www.w3.org/1999/xlink">
    <!-- Generator: Sketch 3.7.2 (28276) - http://www.bohemiancoding.com/sketch -->
    <title>des-pour-target</title>
    <desc>Created with Sketch.</desc>
    <defs></defs>
    <g id="64px-Line" stroke="none" stroke-width="1" fill="none" fill-rule="evenodd">
        <g id="des-pour-target"></g>
        <path d="M14.555,30.018 C14.148,30.221 13.928,30.673 14.022,31.119 C14.115,31.564 14.498,31.89 14.952,31.913 C14.991,31.914 18.87,32.133 20.232,34.841 C21.845,38.048 31.494,59.202 31.59,59.416 C31.702,59.663 31.91,59.853 32.166,59.943 C32.274,59.982 32.387,60.001 32.5,60.001 C32.653,60.001 32.806,59.966 32.945,59.897 L57.445,47.723 C57.931,47.481 58.135,46.895 57.905,46.403 L43.905,16.577 C43.791,16.333 43.583,16.146 43.329,16.057 C43.075,15.969 42.795,15.986 42.555,16.106 L34,20.355 L34,7 C34,6.448 33.553,6 33,6 C32.447,6 32,6.448 32,7 L32,21.349 L14.555,30.018 L14.555,30.018 Z M42.529,18.351 L55.679,46.366 L32.98,57.645 C31.059,53.436 23.47,36.83 22.018,33.942 C21.091,32.1 19.436,31.098 17.97,30.554 L32,23.583 L32,26.185 C30.839,26.6 30,27.699 30,29.001 C30,30.655 31.346,32.001 33,32.001 C34.654,32.001 36,30.655 36,29.001 C36,27.699 35.161,26.6 34,26.185 L34,22.59 L42.529,18.351 L42.529,18.351 Z M33,28 C33.552,28 34,28.449 34,29 C34,29.551 33.552,30 33,30 C32.448,30 32,29.551 32,29 C32,28.449 32.448,28 33,28 L33,28 Z" id="Shape" fill="#000000"></path>
        <path d="M25.536,32.241 C25.309,31.738 24.721,31.512 24.214,31.741 C23.71,31.968 23.486,32.56 23.714,33.064 L32.464,52.455 C32.631,52.825 32.994,53.044 33.376,53.044 C33.513,53.044 33.652,53.015 33.786,52.955 C34.29,52.728 34.514,52.136 34.286,51.632 L25.536,32.241 L25.536,32.241 Z" id="Shape" fill="#000000"></path>
        <path d="M5,16 L6.08,16 C6.521,19.059 8.941,21.479 12,21.92 L12,23 C12,23.552 12.447,24 13,24 C13.553,24 14,23.552 14,23 L14,21.92 C17.059,21.48 19.479,19.059 19.92,16 L21,16 C21.553,16 22,15.552 22,15 C22,14.448 21.553,14 21,14 L19.92,14 C19.479,10.941 17.059,8.521 14,8.08 L14,7 C14,6.448 13.553,6 13,6 C12.447,6 12,6.448 12,7 L12,8.08 C8.941,8.52 6.521,10.941 6.08,14 L5,14 C4.447,14 4,14.448 4,15 C4,15.552 4.447,16 5,16 L5,16 Z M8.101,16 L12,16 L12,19.899 C10.044,19.5 8.5,17.956 8.101,16 L8.101,16 Z M14,19.899 L14,16 L17.899,16 C17.5,17.956 15.956,19.5 14,19.899 L14,19.899 Z M17.899,14 L14,14 L14,10.101 C15.956,10.5 17.5,12.044 17.899,14 L17.899,14 Z M12,10.101 L12,14 L8.101,14 C8.5,12.044 10.044,10.5 12,10.101 L12,10.101 Z" id="Shape" fill="#000000"></path>
    </g>
</svg>