<?xml version="1.0" encoding="UTF-8" standalone="no"?>
<svg width="64px" height="64px" viewBox="0 0 64 64" version="1.1" xmlns="http://www.w3.org/2000/svg" xmlns:xlink="http://www.w3.org/1999/xlink">
    <!-- Generator: Sketch 3.7.2 (28276) - http://www.bohemiancoding.com/sketch -->
    <title>des-pencil-block</title>
    <desc>Created with Sketch.</desc>
    <defs></defs>
    <g id="64px-Line" stroke="none" stroke-width="1" fill="none" fill-rule="evenodd">
        <g id="des-pencil-block"></g>
        <path d="M13,24 C15.471,24 17.712,22.998 19.34,21.38 C19.347,21.373 19.357,21.371 19.364,21.364 C19.371,21.357 19.373,21.347 19.38,21.341 C20.998,19.713 22,17.472 22,15 C22,10.037 17.962,6 13,6 C10.529,6 8.288,7.002 6.66,8.62 C6.653,8.627 6.643,8.629 6.636,8.636 C6.629,8.643 6.627,8.653 6.62,8.659 C5.002,10.287 4,12.528 4,15 C4,19.963 8.038,24 13,24 L13,24 Z M20,15 C20,16.57 19.474,18.016 18.598,19.185 L8.816,9.402 C9.985,8.525 11.43,8 13,8 C16.86,8 20,11.141 20,15 L20,15 Z M7.402,10.815 L17.184,20.598 C16.015,21.474 14.57,22 13,22 C9.14,22 6,18.859 6,15 C6,13.43 6.526,11.984 7.402,10.815 L7.402,10.815 Z" id="Shape" fill="#000000"></path>
        <path d="M52.684,7.155 C51.94,6.411 50.95,6 49.896,6 L49.896,6 C48.843,6 47.853,6.41 47.108,7.155 L43.639,10.623 L12.389,41.872 C12.312,41.949 12.247,42.039 12.199,42.137 L4.103,58.558 C3.914,58.943 3.99,59.405 4.293,59.707 C4.485,59.899 4.741,60 5,60 C5.15,60 5.301,59.966 5.442,59.896 L21.86,51.799 C21.958,51.751 22.048,51.687 22.125,51.61 L23.735,50.001 C23.738,49.998 23.741,49.995 23.744,49.992 L53.377,20.36 L56.844,16.892 C57.59,16.147 58,15.157 58,14.103 C58,13.05 57.59,12.059 56.845,11.315 L52.684,7.155 L52.684,7.155 Z M17.484,50.29 L20.4,50.29 L10.773,55.038 L8.961,53.226 L13.222,44.584 L16.483,44.705 L16.483,49.29 C16.484,49.843 16.932,50.29 17.484,50.29 L17.484,50.29 Z M8.028,55.12 L8.88,55.972 L7.199,56.801 L8.028,55.12 L8.028,55.12 Z M22.617,48.29 L18.484,48.29 L18.484,43.741 C18.484,43.203 18.059,42.762 17.521,42.742 L14.461,42.629 L44.347,12.744 L51.256,19.653 L22.617,48.29 L22.617,48.29 Z M55.431,15.478 L52.67,18.24 L45.761,11.331 L48.523,8.57 C48.889,8.203 49.377,8.001 49.896,8.001 L49.896,8.001 C50.415,8.001 50.902,8.203 51.269,8.57 L55.43,12.73 C55.797,13.097 55.999,13.585 55.999,14.104 C56,14.623 55.798,15.11 55.431,15.478 L55.431,15.478 Z" id="Shape" fill="#000000"></path>
    </g>
</svg>