<?xml version="1.0" encoding="UTF-8" standalone="no"?>
<svg width="64px" height="64px" viewBox="0 0 64 64" version="1.1" xmlns="http://www.w3.org/2000/svg" xmlns:xlink="http://www.w3.org/1999/xlink">
    <!-- Generator: Sketch 3.7.2 (28276) - http://www.bohemiancoding.com/sketch -->
    <title>des-brush-block</title>
    <desc>Created with Sketch.</desc>
    <defs></defs>
    <g id="64px-Line" stroke="none" stroke-width="1" fill="none" fill-rule="evenodd">
        <g id="des-brush-block"></g>
        <path d="M12.92,24 C15.391,24 17.632,22.998 19.26,21.381 C19.267,21.374 19.277,21.372 19.285,21.364 C19.293,21.356 19.294,21.347 19.301,21.339 C20.919,19.711 21.92,17.471 21.92,15 C21.92,10.037 17.883,6 12.92,6 C10.448,6 8.206,7.002 6.578,8.622 C6.572,8.628 6.563,8.63 6.557,8.636 C6.551,8.642 6.549,8.651 6.543,8.657 C4.923,10.285 3.92,12.528 3.92,15.001 C3.92,19.963 7.957,24 12.92,24 L12.92,24 Z M19.92,15 C19.92,16.569 19.394,18.015 18.518,19.184 L8.736,9.401 C9.905,8.525 11.35,8 12.92,8 C16.779,8 19.92,11.141 19.92,15 L19.92,15 Z M7.322,10.815 L17.104,20.598 C15.935,21.474 14.489,22 12.92,22 C9.061,22 5.92,18.859 5.92,15 C5.92,13.43 6.446,11.984 7.322,10.815 L7.322,10.815 Z" id="Shape" fill="#000000"></path>
        <path d="M5,60 C16.391,60 19.034,59.359 22.681,55.714 C26.239,52.155 25.077,47.249 24.446,45.377 C26.76,43.648 35.284,37.121 43.648,28.757 C47.832,24.574 61.176,10.624 57.279,6.725 C53.77,3.218 42.234,13.705 35.669,20.27 C27.167,28.771 21.318,38.591 19.883,41.107 C18.179,40.902 13.898,40.7 11.282,43.317 C8.071,46.528 7.77,50.393 7.529,53.498 C7.25,57.089 6.965,58 5,58 C4.447,58 4,58.447 4,59 C4,59.553 4.447,60 5,60 L5,60 Z M37.083,21.684 C49.295,9.473 55.008,7.281 55.865,8.139 C56.837,9.111 53.836,15.743 42.234,27.343 C37.359,32.218 32.438,36.451 28.744,39.464 L25.375,36.095 C28.126,32.01 32.143,26.624 37.083,21.684 L37.083,21.684 Z M24.25,37.796 L27.181,40.727 C25.441,42.116 24.097,43.14 23.342,43.706 L21.661,42.025 C22.118,41.226 23,39.728 24.25,37.796 L24.25,37.796 Z M9.522,53.653 C9.75,50.731 10.007,47.42 12.696,44.731 C14.848,42.578 18.85,42.977 19.94,43.133 L22.393,45.586 C22.739,46.467 24.379,51.187 21.266,54.3 C18.484,57.081 16.391,57.827 8.694,57.971 C9.279,56.777 9.402,55.202 9.522,53.653 L9.522,53.653 Z" id="Shape" fill="#000000"></path>
        <path d="M16.44,45.174 C16.193,45.287 13.995,46.331 13.02,48.115 C11.767,50.413 11.963,52.866 11.972,52.969 C12.017,53.49 12.453,53.883 12.967,53.883 C12.995,53.883 13.025,53.882 13.054,53.879 C13.605,53.831 14.012,53.347 13.964,52.797 C13.962,52.777 13.823,50.818 14.776,49.073 C15.332,48.055 16.767,47.225 17.274,46.991 C17.774,46.76 17.994,46.167 17.763,45.666 C17.532,45.165 16.942,44.944 16.44,45.174 L16.44,45.174 Z" id="Shape" fill="#000000"></path>
    </g>
</svg>