<?xml version="1.0" encoding="UTF-8" standalone="no"?>
<svg width="64px" height="64px" viewBox="0 0 64 64" version="1.1" xmlns="http://www.w3.org/2000/svg" xmlns:xlink="http://www.w3.org/1999/xlink">
    <!-- Generator: Sketch 3.7.2 (28276) - http://www.bohemiancoding.com/sketch -->
    <title>des-ruler-fat</title>
    <desc>Created with Sketch.</desc>
    <defs></defs>
    <g id="64px-Line" stroke="none" stroke-width="1" fill="none" fill-rule="evenodd">
        <g id="des-ruler-fat"></g>
        <path d="M37.707,6.293 C37.316,5.902 36.684,5.902 36.293,6.293 L4.293,38.293 C3.902,38.684 3.902,39.316 4.293,39.707 L24.293,59.707 C24.488,59.902 24.744,60 25,60 C25.256,60 25.512,59.902 25.707,59.707 C25.791,59.624 25.856,59.529 25.904,59.429 C26.337,58.88 28.473,56.687 31.57,53.573 C31.57,53.573 31.571,53.573 31.571,53.572 C31.571,53.571 31.571,53.571 31.572,53.571 C33.047,52.088 34.738,50.398 36.571,48.572 L36.571,48.572 L36.571,48.572 C38.155,46.994 39.844,45.318 41.586,43.593 C41.587,43.592 41.589,43.592 41.59,43.591 C41.591,43.59 41.591,43.589 41.592,43.588 C43.232,41.963 44.918,40.296 46.61,38.627 C46.613,38.625 46.616,38.624 46.619,38.621 C46.621,38.619 46.622,38.615 46.625,38.613 C48.309,36.95 49.998,35.286 51.648,33.662 C51.65,33.66 51.654,33.66 51.656,33.657 C51.658,33.655 51.659,33.652 51.661,33.65 C53.766,31.579 55.809,29.572 57.701,27.716 C57.891,27.529 58,27.274 58.001,27.007 C58.002,26.74 57.897,26.484 57.708,26.295 L37.707,6.293 L37.707,6.293 Z M50.951,31.537 L39.707,20.293 C39.316,19.902 38.684,19.902 38.293,20.293 C37.902,20.684 37.902,21.316 38.293,21.707 L49.525,32.938 C48.257,34.185 47.055,35.368 45.91,36.496 L39.707,30.293 C39.316,29.902 38.684,29.902 38.293,30.293 C37.902,30.684 37.902,31.316 38.293,31.707 L44.486,37.899 C43.205,39.162 42.003,40.349 40.877,41.462 L29.707,30.293 C29.316,29.902 28.684,29.902 28.293,30.293 C27.902,30.684 27.902,31.316 28.293,31.707 L39.455,42.869 C38.149,44.162 36.95,45.352 35.855,46.441 L29.707,40.293 C29.316,39.902 28.684,39.902 28.293,40.293 C27.902,40.684 27.902,41.316 28.293,41.707 L34.439,47.853 C33.075,49.214 31.888,50.404 30.857,51.443 L19.707,40.293 C19.316,39.902 18.684,39.902 18.293,40.293 C17.902,40.684 17.902,41.316 18.293,41.707 L29.451,52.865 C27.07,55.283 25.724,56.703 24.97,57.555 L6.414,39 L37,8.414 L55.579,26.993 C53.95,28.591 52.416,30.098 50.951,31.537 L50.951,31.537 Z" id="Shape" fill="#000000"></path>
    </g>
</svg>