<?xml version="1.0" encoding="UTF-8" standalone="no"?>
<svg width="64px" height="64px" viewBox="0 0 64 64" version="1.1" xmlns="http://www.w3.org/2000/svg" xmlns:xlink="http://www.w3.org/1999/xlink">
    <!-- Generator: Sketch 3.7.2 (28276) - http://www.bohemiancoding.com/sketch -->
    <title>des-wand-minus</title>
    <desc>Created with Sketch.</desc>
    <defs></defs>
    <g id="64px-Line" stroke="none" stroke-width="1" fill="none" fill-rule="evenodd">
        <g id="des-wand-minus"></g>
        <path d="M5,16 L21,16 C21.552,16 22,15.553 22,15 C22,14.447 21.552,14 21,14 L5,14 C4.448,14 4,14.447 4,15 C4,15.553 4.448,16 5,16 L5,16 Z" id="Shape" fill="#000000"></path>
        <path d="M47.707,22.293 L43.707,18.293 C43.316,17.902 42.684,17.902 42.293,18.293 L6.293,54.293 C5.902,54.684 5.902,55.316 6.293,55.707 L10.293,59.707 C10.488,59.902 10.744,60 11,60 C11.256,60 11.512,59.902 11.707,59.707 L47.707,23.707 C48.098,23.316 48.098,22.684 47.707,22.293 L47.707,22.293 Z M11,57.586 L8.414,55 L37,26.414 L39.586,29 L11,57.586 L11,57.586 Z M41,27.586 L38.414,25 L43,20.414 L45.586,23 L41,27.586 L41,27.586 Z" id="Shape" fill="#000000"></path>
        <path d="M49,20 C49.552,20 50,19.553 50,19 C50,16.425 51.69,14 53,14 C53.552,14 54,13.553 54,13 C54,12.447 53.552,12 53,12 C51.69,12 50,9.575 50,7 C50,6.447 49.552,6 49,6 C48.448,6 48,6.447 48,7 C48,9.575 46.31,12 45,12 C44.448,12 44,12.447 44,13 C44,13.553 44.448,14 45,14 C46.31,14 48,16.425 48,19 C48,19.553 48.448,20 49,20 L49,20 Z M47.421,13 C48.03,12.48 48.572,11.785 49,10.981 C49.428,11.785 49.97,12.48 50.579,13 C49.97,13.52 49.428,14.215 49,15.019 C48.572,14.215 48.03,13.52 47.421,13 L47.421,13 Z" id="Shape" fill="#000000"></path>
        <path d="M59,30 C58.301,30 57,27.944 57,26 C57,25.447 56.552,25 56,25 C55.448,25 55,25.447 55,26 C55,27.944 53.699,30 53,30 C52.448,30 52,30.447 52,31 C52,31.553 52.448,32 53,32 C53.699,32 55,34.056 55,36 C55,36.553 55.448,37 56,37 C56.552,37 57,36.553 57,36 C57,34.056 58.301,32 59,32 C59.552,32 60,31.553 60,31 C60,30.447 59.552,30 59,30 L59,30 Z M56,32.268 C55.732,31.789 55.418,31.356 55.07,31 C55.419,30.645 55.732,30.212 56,29.732 C56.268,30.211 56.582,30.644 56.93,31 C56.582,31.355 56.268,31.788 56,32.268 L56,32.268 Z" id="Shape" fill="#000000"></path>
        <path d="M44,35 C44,34.447 43.552,34 43,34 C42.448,34 42,34.447 42,35 C42,36.147 41.234,37 41,37 C40.448,37 40,37.447 40,38 C40,38.553 40.448,39 41,39 C41.234,39 42,39.853 42,41 C42,41.553 42.448,42 43,42 C43.552,42 44,41.553 44,41 C44,39.853 44.766,39 45,39 C45.552,39 46,38.553 46,38 C46,37.447 45.552,37 45,37 C44.766,37 44,36.147 44,35 L44,35 Z M43,38.099 C42.974,38.066 42.946,38.033 42.919,38 C42.946,37.968 42.974,37.935 43,37.901 C43.026,37.934 43.054,37.967 43.081,38 C43.054,38.032 43.026,38.065 43,38.099 L43,38.099 Z" id="Shape" fill="#000000"></path>
        <path d="M32,19 C32,19.553 32.448,20 33,20 C33.552,20 34,19.553 34,19 C34,17.853 34.766,17 35,17 C35.552,17 36,16.553 36,16 C36,15.447 35.552,15 35,15 C34.766,15 34,14.147 34,13 C34,12.447 33.552,12 33,12 C32.448,12 32,12.447 32,13 C32,14.147 31.234,15 31,15 C30.448,15 30,15.447 30,16 C30,16.553 30.448,17 31,17 C31.234,17 32,17.853 32,19 L32,19 Z M33,15.901 C33.026,15.934 33.054,15.967 33.081,16 C33.054,16.032 33.026,16.065 33,16.099 C32.974,16.066 32.946,16.033 32.919,16 C32.946,15.968 32.974,15.935 33,15.901 L33,15.901 Z" id="Shape" fill="#000000"></path>
    </g>
</svg>