<?xml version="1.0" encoding="UTF-8" standalone="no"?>
<svg width="64px" height="64px" viewBox="0 0 64 64" version="1.1" xmlns="http://www.w3.org/2000/svg" xmlns:xlink="http://www.w3.org/1999/xlink">
    <!-- Generator: Sketch 3.7.2 (28276) - http://www.bohemiancoding.com/sketch -->
    <title>des-craft-knife</title>
    <desc>Created with Sketch.</desc>
    <defs></defs>
    <g id="64px-Glyph" stroke="none" stroke-width="1" fill="none" fill-rule="evenodd">
        <g id="des-craft-knife" fill="#000000">
            <path d="M25.0002,53.1699 C24.2312,53.1699 23.4642,52.8779 22.8792,52.2929 L15.7072,45.1209 C14.5372,43.9509 14.5372,42.0489 15.7072,40.8789 L47.4142,9.1719 C48.1702,8.4159 49.1742,7.9999 50.2432,7.9999 C51.3122,7.9999 52.3152,8.4159 53.0712,9.1719 L58.8282,14.9289 C59.5842,15.6849 60.0002,16.6889 60.0002,17.7569 C60.0002,18.8259 59.5842,19.8299 58.8282,20.5859 L27.1212,52.2929 C26.5362,52.8779 25.7692,53.1699 25.0002,53.1699" id="Fill-294"></path>
            <path d="M27.0002,27 C26.7442,27 26.4882,26.902 26.2932,26.707 C25.9022,26.316 25.9022,25.684 26.2932,25.293 L32.2932,19.293 C32.6842,18.902 33.3162,18.902 33.7072,19.293 C34.0982,19.684 34.0982,20.316 33.7072,20.707 L27.7072,26.707 C27.5122,26.902 27.2562,27 27.0002,27" id="Fill-295"></path>
            <path d="M14.2932,46.5352 C14.2522,46.4932 14.2242,46.4442 14.1842,46.4022 L8.5862,52.0002 L19.7582,52.0002 L14.2932,46.5352 Z" id="Fill-296"></path>
            <path d="M6.5861,54 L4.2931,56.293 C4.0071,56.579 3.9211,57.009 4.0761,57.383 C4.2311,57.757 4.5961,58 5.0001,58 L17.0001,58 C17.2661,58 17.5201,57.895 17.7071,57.707 L21.4141,54 L6.5861,54 Z" id="Fill-297"></path>
        </g>
    </g>
</svg>