<?xml version="1.0" encoding="UTF-8" standalone="no"?>
<svg width="64px" height="64px" viewBox="0 0 64 64" version="1.1" xmlns="http://www.w3.org/2000/svg" xmlns:xlink="http://www.w3.org/1999/xlink">
    <!-- Generator: Sketch 3.7.2 (28276) - http://www.bohemiancoding.com/sketch -->
    <title>des-pencil-plus</title>
    <desc>Created with Sketch.</desc>
    <defs></defs>
    <g id="64px-Line" stroke="none" stroke-width="1" fill="none" fill-rule="evenodd">
        <g id="des-pencil-plus"></g>
        <path d="M13,6 C12.448,6 12,6.447 12,7 L12,14 L5,14 C4.448,14 4,14.447 4,15 C4,15.553 4.448,16 5,16 L12,16 L12,23 C12,23.553 12.448,24 13,24 C13.552,24 14,23.553 14,23 L14,16 L21,16 C21.552,16 22,15.553 22,15 C22,14.447 21.552,14 21,14 L14,14 L14,7 C14,6.447 13.552,6 13,6 L13,6 Z" id="Shape" fill="#000000"></path>
        <path d="M52.684,7.155 C51.94,6.411 50.95,6 49.896,6 L49.896,6 C48.843,6 47.853,6.41 47.108,7.155 L43.639,10.623 L12.389,41.872 C12.312,41.949 12.247,42.039 12.199,42.137 L4.103,58.558 C3.914,58.943 3.99,59.405 4.293,59.707 C4.485,59.899 4.741,60 5.001,60 C5.151,60 5.302,59.966 5.443,59.896 L21.861,51.799 C21.959,51.751 22.049,51.687 22.126,51.61 L23.736,50.001 C23.739,49.998 23.742,49.995 23.745,49.992 L53.378,20.36 L56.845,16.892 C57.591,16.147 58.001,15.157 58.001,14.103 C58.001,13.05 57.591,12.059 56.846,11.315 L52.684,7.155 L52.684,7.155 Z M17.484,50.29 L20.4,50.29 L10.773,55.038 L8.961,53.226 L13.222,44.584 L16.483,44.705 L16.483,49.29 C16.484,49.843 16.932,50.29 17.484,50.29 L17.484,50.29 Z M8.028,55.12 L8.88,55.972 L7.199,56.801 L8.028,55.12 L8.028,55.12 Z M22.617,48.29 L18.484,48.29 L18.484,43.741 C18.484,43.203 18.059,42.762 17.521,42.742 L14.461,42.629 L44.347,12.744 L51.256,19.653 L22.617,48.29 L22.617,48.29 Z M55.431,15.478 L52.67,18.24 L45.761,11.331 L48.523,8.57 C48.889,8.203 49.377,8.001 49.896,8.001 L49.896,8.001 C50.415,8.001 50.902,8.203 51.269,8.57 L55.43,12.73 C55.797,13.097 55.999,13.585 55.999,14.104 C56,14.623 55.798,15.11 55.431,15.478 L55.431,15.478 Z" id="Shape" fill="#000000"></path>
    </g>
</svg>