<?xml version="1.0" encoding="UTF-8" standalone="no"?>
<svg width="64px" height="64px" viewBox="0 0 64 64" version="1.1" xmlns="http://www.w3.org/2000/svg" xmlns:xlink="http://www.w3.org/1999/xlink">
    <!-- Generator: Sketch 3.7.2 (28276) - http://www.bohemiancoding.com/sketch -->
    <title>des-wand</title>
    <desc>Created with Sketch.</desc>
    <defs></defs>
    <g id="64px-Line" stroke="none" stroke-width="1" fill="none" fill-rule="evenodd">
        <g id="des-wand"></g>
        <path d="M8.293,59.707 C8.488,59.902 8.744,60 9,60 C9.256,60 9.512,59.902 9.707,59.707 L45.707,23.707 C46.098,23.316 46.098,22.684 45.707,22.293 L41.707,18.293 C41.316,17.902 40.684,17.902 40.293,18.293 L4.293,54.293 C3.902,54.684 3.902,55.316 4.293,55.707 L8.293,59.707 L8.293,59.707 Z M41,20.414 L43.586,23 L39,27.586 L36.414,25 L41,20.414 L41,20.414 Z M35,26.414 L37.586,29 L9,57.586 L6.414,55 L35,26.414 L35,26.414 Z" id="Shape" fill="#000000"></path>
        <path d="M51,12 C49.69,12 48,9.575 48,7 C48,6.448 47.552,6 47,6 C46.448,6 46,6.448 46,7 C46,9.575 44.31,12 43,12 C42.448,12 42,12.448 42,13 C42,13.552 42.448,14 43,14 C44.31,14 46,16.425 46,19 C46,19.552 46.448,20 47,20 C47.552,20 48,19.552 48,19 C48,16.425 49.69,14 51,14 C51.552,14 52,13.552 52,13 C52,12.448 51.552,12 51,12 L51,12 Z M47,15.019 C46.572,14.215 46.03,13.52 45.421,13 C46.03,12.48 46.572,11.786 47,10.981 C47.428,11.785 47.97,12.48 48.579,13 C47.97,13.52 47.428,14.214 47,15.019 L47,15.019 Z" id="Shape" fill="#000000"></path>
        <path d="M57,30 C56.301,30 55,27.944 55,26 C55,25.448 54.552,25 54,25 C53.448,25 53,25.448 53,26 C53,27.944 51.699,30 51,30 C50.448,30 50,30.448 50,31 C50,31.552 50.448,32 51,32 C51.699,32 53,34.056 53,36 C53,36.552 53.448,37 54,37 C54.552,37 55,36.552 55,36 C55,34.056 56.301,32 57,32 C57.552,32 58,31.552 58,31 C58,30.448 57.552,30 57,30 L57,30 Z M54,32.268 C53.732,31.789 53.418,31.356 53.07,31 C53.419,30.645 53.732,30.212 54,29.732 C54.268,30.211 54.582,30.644 54.93,31 C54.582,31.355 54.268,31.788 54,32.268 L54,32.268 Z" id="Shape" fill="#000000"></path>
        <path d="M27,22 C27,22.552 27.448,23 28,23 C28.552,23 29,22.552 29,22 C29,20.056 30.301,18 31,18 C31.552,18 32,17.552 32,17 C32,16.448 31.552,16 31,16 C30.301,16 29,13.944 29,12 C29,11.448 28.552,11 28,11 C27.448,11 27,11.448 27,12 C27,13.944 25.699,16 25,16 C24.448,16 24,16.448 24,17 C24,17.552 24.448,18 25,18 C25.699,18 27,20.056 27,22 L27,22 Z M28,15.732 C28.268,16.211 28.582,16.644 28.93,17 C28.581,17.355 28.268,17.788 28,18.268 C27.732,17.789 27.418,17.356 27.07,17 C27.418,16.645 27.732,16.212 28,15.732 L28,15.732 Z" id="Shape" fill="#000000"></path>
        <path d="M40,41 C40,41.552 40.448,42 41,42 C41.552,42 42,41.552 42,41 C42,39.853 42.766,39 43,39 C43.552,39 44,38.552 44,38 C44,37.448 43.552,37 43,37 C42.766,37 42,36.147 42,35 C42,34.448 41.552,34 41,34 C40.448,34 40,34.448 40,35 C40,36.147 39.234,37 39,37 C38.448,37 38,37.448 38,38 C38,38.552 38.448,39 39,39 C39.234,39 40,39.853 40,41 L40,41 Z M41,37.901 C41.026,37.935 41.054,37.968 41.081,38 C41.054,38.032 41.026,38.065 41,38.099 C40.974,38.065 40.946,38.032 40.919,38 C40.946,37.968 40.974,37.935 41,37.901 L41,37.901 Z" id="Shape" fill="#000000"></path>
    </g>
</svg>