<?xml version="1.0" encoding="UTF-8" standalone="no"?>
<svg width="64px" height="64px" viewBox="0 0 64 64" version="1.1" xmlns="http://www.w3.org/2000/svg" xmlns:xlink="http://www.w3.org/1999/xlink">
    <!-- Generator: Sketch 3.7.2 (28276) - http://www.bohemiancoding.com/sketch -->
    <title>des-inkpen-fat</title>
    <desc>Created with Sketch.</desc>
    <defs></defs>
    <g id="64px-Line" stroke="none" stroke-width="1" fill="none" fill-rule="evenodd">
        <g id="des-inkpen-fat"></g>
        <path d="M7,60 C7.253,60 7.505,59.905 7.7,59.715 C10.391,57.077 17.802,56.494 20.43,56.491 C20.982,56.49 21.429,56.043 21.429,55.491 C21.429,52.121 22.611,49.759 23.367,48.591 L23.76,48.981 C23.934,49.153 24.163,49.255 24.407,49.269 C24.639,49.283 24.875,49.29 25.115,49.29 C31.246,49.29 39.571,44.915 46.579,37.956 C46.581,37.954 46.583,37.952 46.584,37.951 L46.584,37.951 L46.584,37.951 C53.624,30.96 57.998,22.795 57.998,16.642 C57.998,14.121 57.227,12.022 55.768,10.573 C50.248,5.095 33.765,3.432 25.014,11.658 C24.891,11.753 24.763,11.838 24.649,11.95 C23.882,12.702 23.461,13.702 23.461,14.767 C23.461,15.833 23.883,16.833 24.649,17.584 C25.434,18.354 26.465,18.738 27.497,18.738 C28.527,18.738 29.559,18.353 30.344,17.584 C31.111,16.833 31.532,15.833 31.532,14.767 C31.532,13.702 31.11,12.702 30.344,11.95 C29.956,11.57 29.507,11.285 29.028,11.093 C34.408,7.769 41.506,7.407 47.019,8.609 C41.391,9.578 34.469,13.478 28.206,19.696 C28.204,19.698 28.202,19.7 28.201,19.701 L28.201,19.701 L28.201,19.701 C20.906,26.946 16.446,35.6 16.836,41.751 C16.852,41.995 16.956,42.225 17.129,42.397 L17.493,42.758 C16.339,43.507 13.995,44.667 10.533,44.667 C10.267,44.667 10.012,44.773 9.825,44.961 C9.637,45.149 9.532,45.405 9.533,45.671 C9.543,48.289 8.982,55.657 6.299,58.285 C6.1,58.481 5.999,58.739 5.999,58.999 C5.999,59.252 6.094,59.505 6.284,59.7 C6.481,59.899 6.74,60 7,60 L7,60 Z M27.499,12.79 C28.022,12.79 28.547,12.985 28.945,13.377 C29.325,13.748 29.534,14.241 29.534,14.765 C29.534,15.289 29.325,15.783 28.945,16.154 L28.945,16.155 C28.147,16.936 26.847,16.937 26.051,16.154 C25.671,15.783 25.462,15.29 25.462,14.765 C25.462,14.278 25.65,13.821 25.982,13.46 C26.014,13.435 26.052,13.423 26.082,13.394 C26.179,13.297 26.283,13.209 26.383,13.115 C26.72,12.899 27.11,12.79 27.499,12.79 L27.499,12.79 Z M45.864,35.824 L30.348,20.42 C39.407,11.783 50.257,7.912 54.36,11.99 C55.449,13.07 56,14.635 56,16.639 C56,21.997 52.042,29.445 45.864,35.824 L45.864,35.824 Z M28.924,21.824 L44.444,37.233 C37.861,43.52 30.34,47.403 24.894,47.287 L19.739,42.169 L19.739,42.168 C19.739,42.168 19.738,42.168 19.738,42.167 L18.816,41.252 C18.669,35.864 22.58,28.37 28.924,21.824 L28.924,21.824 Z M11.516,46.639 C15.264,46.424 17.765,45.022 18.939,44.192 L21.922,47.154 C21.089,48.331 19.678,50.832 19.46,54.514 C17.564,54.587 13.288,54.896 9.843,56.194 C11.153,52.78 11.449,48.532 11.516,46.639 L11.516,46.639 Z" id="Shape" fill="#000000"></path>
        <path d="M48.31,12.103 C44.643,12.491 39.719,15.038 34.801,19.089 C34.374,19.44 34.314,20.07 34.665,20.496 C34.862,20.736 35.148,20.86 35.437,20.86 C35.661,20.86 35.885,20.785 36.072,20.631 C40.628,16.878 45.281,14.434 48.52,14.09 C49.069,14.032 49.467,13.54 49.409,12.99 C49.352,12.441 48.87,12.048 48.31,12.103 L48.31,12.103 Z" id="Shape" fill="#000000"></path>
        <path d="M21.756,38.416 C21.856,38.447 21.957,38.462 22.056,38.462 C22.482,38.462 22.876,38.189 23.01,37.762 C23.955,34.751 26.131,31.114 29.137,27.518 C29.491,27.094 29.435,26.463 29.011,26.109 C28.585,25.755 27.956,25.812 27.602,26.235 C24.432,30.028 22.123,33.909 21.102,37.163 C20.937,37.689 21.229,38.251 21.756,38.416 L21.756,38.416 Z" id="Shape" fill="#000000"></path>
    </g>
</svg>