<?xml version="1.0" encoding="UTF-8" standalone="no"?>
<svg width="64px" height="64px" viewBox="0 0 64 64" version="1.1" xmlns="http://www.w3.org/2000/svg" xmlns:xlink="http://www.w3.org/1999/xlink">
    <!-- Generator: Sketch 3.7.2 (28276) - http://www.bohemiancoding.com/sketch -->
    <title>des-magnify-plus</title>
    <desc>Created with Sketch.</desc>
    <defs></defs>
    <g id="64px-Line" stroke="none" stroke-width="1" fill="none" fill-rule="evenodd">
        <g id="des-magnify-plus"></g>
        <path d="M49,42 C48.448,42 48,42.448 48,43 L48,50 L41,50 C40.448,50 40,50.448 40,51 C40,51.552 40.448,52 41,52 L48,52 L48,59 C48,59.552 48.448,60 49,60 C49.552,60 50,59.552 50,59 L50,52 L57,52 C57.552,52 58,51.552 58,51 C58,50.448 57.552,50 57,50 L50,50 L50,43 C50,42.448 49.552,42 49,42 L49,42 Z" id="Shape" fill="#000000"></path>
        <path d="M32,23 C32,18.038 36.038,14 41,14 C41.552,14 42,13.552 42,13 C42,12.448 41.552,12 41,12 C34.935,12 30,16.935 30,23 C30,23.552 30.448,24 31,24 C31.552,24 32,23.552 32,23 L32,23 Z" id="Shape" fill="#000000"></path>
        <path d="M9,59.998 C10.28,59.998 11.561,59.511 12.536,58.536 L26.536,44.536 C27.646,43.425 28.102,41.92 27.947,40.468 L31.399,37.016 C34.133,38.895 37.439,40 41,40 C50.374,40 58,32.374 58,23 C58,13.626 50.374,6 41,6 C31.626,6 24,13.626 24,23 C24,26.562 25.105,29.867 26.984,32.602 L23.532,36.054 C22.08,35.899 20.574,36.355 19.464,37.465 L5.464,51.465 C3.515,53.415 3.515,56.587 5.464,58.536 C6.439,59.51 7.72,59.998 9,59.998 L9,59.998 Z M41,8 C49.271,8 56,14.729 56,23 C56,31.271 49.271,38 41,38 C32.729,38 26,31.271 26,23 C26,14.729 32.729,8 41,8 L41,8 Z M28.229,34.185 C28.723,34.748 29.252,35.277 29.815,35.771 L27.231,38.355 C27.034,38.04 26.809,37.738 26.535,37.465 C26.261,37.192 25.96,36.966 25.645,36.769 L28.229,34.185 L28.229,34.185 Z M6.878,52.878 L20.878,38.878 C21.463,38.294 22.231,38.001 23,38.001 C23.768,38.001 24.537,38.293 25.122,38.878 C26.291,40.048 26.291,41.951 25.122,43.121 L11.122,57.121 C9.952,58.289 8.049,58.289 6.879,57.121 C5.709,55.952 5.709,54.048 6.878,52.878 L6.878,52.878 Z" id="Shape" fill="#000000"></path>
    </g>
</svg>