<?xml version="1.0" encoding="UTF-8" standalone="no"?>
<svg width="64px" height="64px" viewBox="0 0 64 64" version="1.1" xmlns="http://www.w3.org/2000/svg" xmlns:xlink="http://www.w3.org/1999/xlink">
    <!-- Generator: Sketch 3.7.2 (28276) - http://www.bohemiancoding.com/sketch -->
    <title>des-magnify-fat</title>
    <desc>Created with Sketch.</desc>
    <defs></defs>
    <g id="64px-Line" stroke="none" stroke-width="1" fill="none" fill-rule="evenodd">
        <g id="des-magnify-fat"></g>
        <path d="M41,6 C31.626,6 24,13.626 24,23 C24,26.302 24.961,29.377 26.597,31.989 L24.152,34.434 C21.203,33.47 17.829,34.149 15.489,36.49 L6.489,45.49 C3.175,48.804 3.175,54.197 6.489,57.511 C8.146,59.168 10.322,59.996 12.499,59.996 C14.676,59.996 16.853,59.168 18.509,57.511 L27.509,48.511 C29.849,46.171 30.528,42.798 29.565,39.849 L32.011,37.403 C34.622,39.039 37.697,40 41,40 C50.374,40 58,32.374 58,23 C58,13.626 50.374,6 41,6 L41,6 Z M26.096,47.097 L17.096,56.097 C14.561,58.632 10.438,58.631 7.904,56.097 C5.37,53.563 5.37,49.438 7.904,46.904 L16.904,37.904 C18.172,36.636 19.836,36.004 21.5,36.004 C23.164,36.004 24.829,36.638 26.096,37.904 C28.63,40.438 28.63,44.562 26.096,47.097 L26.096,47.097 Z M28.66,37.927 C28.335,37.418 27.955,36.934 27.511,36.489 C27.067,36.045 26.584,35.665 26.075,35.34 L27.768,33.647 C28.536,34.599 29.402,35.465 30.354,36.233 L28.66,37.927 L28.66,37.927 Z M41,38 C32.729,38 26,31.271 26,23 C26,14.729 32.729,8 41,8 C49.271,8 56,14.729 56,23 C56,31.271 49.271,38 41,38 L41,38 Z" id="Shape" fill="#000000"></path>
        <path d="M41,12 C34.935,12 30,16.935 30,23 C30,23.553 30.448,24 31,24 C31.552,24 32,23.553 32,23 C32,18.037 36.038,14 41,14 C41.552,14 42,13.553 42,13 C42,12.447 41.552,12 41,12 L41,12 Z" id="Shape" fill="#000000"></path>
    </g>
</svg>