<?xml version="1.0" encoding="UTF-8" standalone="no"?>
<svg width="64px" height="64px" viewBox="0 0 64 64" version="1.1" xmlns="http://www.w3.org/2000/svg" xmlns:xlink="http://www.w3.org/1999/xlink">
    <!-- Generator: Sketch 3.7.2 (28276) - http://www.bohemiancoding.com/sketch -->
    <title>des-pour</title>
    <desc>Created with Sketch.</desc>
    <defs></defs>
    <g id="64px-Line" stroke="none" stroke-width="1" fill="none" fill-rule="evenodd">
        <g id="des-pour"></g>
        <path d="M14.951,31.912 C14.99,31.913 18.869,32.132 20.231,34.84 C21.844,38.047 31.493,59.201 31.589,59.415 C31.701,59.662 31.909,59.852 32.165,59.942 C32.274,59.981 32.387,60 32.5,60 C32.653,60 32.806,59.965 32.945,59.896 L57.445,47.722 C57.931,47.48 58.135,46.894 57.905,46.402 L43.905,16.576 C43.791,16.332 43.583,16.145 43.329,16.056 C43.076,15.968 42.796,15.985 42.555,16.105 L34,20.355 L34,7 C34,6.448 33.553,6 33,6 C32.447,6 32,6.448 32,7 L32,21.349 L14.555,30.017 C14.148,30.22 13.928,30.672 14.022,31.118 C14.114,31.563 14.497,31.89 14.951,31.912 L14.951,31.912 Z M32,23.583 L32,26.185 C30.839,26.6 30,27.699 30,29.001 C30,30.655 31.346,32.001 33,32.001 C34.654,32.001 36,30.655 36,29.001 C36,27.699 35.161,26.6 34,26.185 L34,22.59 L42.529,18.352 L55.679,46.367 L32.98,57.645 C31.059,53.436 23.47,36.83 22.018,33.942 C21.091,32.1 19.436,31.098 17.97,30.554 L32,23.583 L32,23.583 Z M33,28 C33.552,28 34,28.449 34,29 C34,29.551 33.552,30 33,30 C32.448,30 32,29.551 32,29 C32,28.449 32.448,28 33,28 L33,28 Z" id="Shape" fill="#000000"></path>
        <path d="M32.464,52.455 C32.631,52.825 32.994,53.044 33.376,53.044 C33.513,53.044 33.652,53.015 33.786,52.955 C34.29,52.728 34.514,52.136 34.286,51.632 L25.536,32.241 C25.308,31.738 24.72,31.512 24.214,31.741 C23.71,31.968 23.486,32.56 23.714,33.064 L32.464,52.455 L32.464,52.455 Z" id="Shape" fill="#000000"></path>
        <path d="M8,44 C10.206,44 12,42.206 12,40 L12,33 C12,32.672 11.839,32.365 11.569,32.178 C11.301,31.991 10.958,31.948 10.648,32.063 C10.377,32.166 4,34.619 4,40 C4,42.355 5.645,44 8,44 L8,44 Z M10,34.597 L10,40 C10,41.103 9.103,42 8,42 C7.033,42 6,41.475 6,40 C6,37.306 8.414,35.495 10,34.597 L10,34.597 Z" id="Shape" fill="#000000"></path>
    </g>
</svg>