<?xml version="1.0" encoding="UTF-8" standalone="no"?>
<svg width="44px" height="44px" viewBox="0 0 44 44" version="1.1" xmlns="http://www.w3.org/2000/svg" xmlns:xlink="http://www.w3.org/1999/xlink">
    <!-- Generator: Sketch 3.7.2 (28276) - http://www.bohemiancoding.com/sketch -->
    <title>des-colour-wheel</title>
    <desc>Created with Sketch.</desc>
    <defs></defs>
    <g id="44px-Line" stroke="none" stroke-width="1" fill="none" fill-rule="evenodd">
        <g id="des-colour-wheel"></g>
        <path d="M40,11.5 C40,11.468 39.991,11.439 39.988,11.408 C39.985,11.379 39.982,11.351 39.977,11.322 C39.956,11.205 39.92,11.093 39.86,10.992 C39.859,10.991 39.859,10.989 39.858,10.987 C39.855,10.982 39.849,10.979 39.846,10.974 C39.787,10.879 39.709,10.798 39.62,10.726 C39.599,10.709 39.58,10.693 39.558,10.678 C39.539,10.665 39.524,10.648 39.504,10.636 L21.504,0.136 C21.479,0.122 21.452,0.115 21.427,0.104 C21.4,0.091 21.374,0.081 21.346,0.07 C21.122,-0.013 20.879,-0.013 20.655,0.07 C20.627,0.08 20.601,0.091 20.574,0.104 C20.548,0.116 20.521,0.122 20.496,0.136 L2.496,10.636 C2.475,10.648 2.46,10.666 2.44,10.679 C2.414,10.697 2.392,10.716 2.367,10.736 C2.279,10.809 2.201,10.891 2.143,10.987 C2.141,10.99 2.138,10.991 2.137,10.994 C2.137,10.995 2.137,10.995 2.136,10.996 C2.077,11.098 2.042,11.211 2.021,11.329 C2.016,11.358 2.012,11.385 2.01,11.414 C2.007,11.443 1.999,11.471 1.999,11.5 L1.999,32.5 C1.999,32.529 2.008,32.557 2.01,32.586 C2.012,32.615 2.016,32.642 2.021,32.671 C2.042,32.789 2.076,32.902 2.136,33.004 C2.136,33.005 2.136,33.005 2.137,33.006 C2.147,33.023 2.162,33.035 2.173,33.052 C2.21,33.108 2.248,33.162 2.296,33.21 C2.329,33.242 2.367,33.266 2.403,33.293 C2.434,33.316 2.461,33.345 2.496,33.365 L20.496,43.865 C20.521,43.879 20.548,43.885 20.573,43.897 C20.6,43.91 20.626,43.92 20.655,43.931 C20.767,43.972 20.882,44 21,44 C21.118,44 21.233,43.972 21.345,43.931 C21.373,43.92 21.4,43.91 21.427,43.897 C21.452,43.885 21.48,43.879 21.504,43.865 L39.504,33.365 C39.538,33.345 39.565,33.317 39.597,33.293 C39.632,33.267 39.669,33.244 39.7,33.213 C39.743,33.171 39.777,33.122 39.811,33.073 C39.826,33.052 39.845,33.036 39.858,33.014 C39.859,33.013 39.859,33.011 39.86,33.009 C39.92,32.908 39.956,32.796 39.977,32.679 C39.982,32.65 39.986,32.622 39.988,32.593 C39.991,32.562 40,32.532 40,32.501 L40,11.5 L40,11.5 Z M4,13.245 L14,19.107 L14,24.893 L4,30.755 L4,13.245 L4,13.245 Z M27.026,17.511 L22,14.192 L22,2.74 L37.036,11.511 L27.026,17.511 L27.026,17.511 Z M20.989,28.078 L16,24.916 L16,19.084 L20.989,15.922 L26,19.23 L26,24.769 L20.989,28.078 L20.989,28.078 Z M20,14.181 L14.979,17.364 L4.98,11.503 L20,2.741 L20,14.181 L20,14.181 Z M14.979,26.637 L20,29.82 L20,41.26 L4.981,32.499 L14.979,26.637 L14.979,26.637 Z M22,29.808 L27.026,26.489 L37.036,32.489 L22,41.259 L22,29.808 L22,29.808 Z M28,24.742 L28,19.259 L38,13.265 L38,30.736 L28,24.742 L28,24.742 Z" id="Shape" fill="#000000"></path>
    </g>
</svg>