<?xml version="1.0" encoding="UTF-8" standalone="no"?>
<svg width="64px" height="64px" viewBox="0 0 64 64" version="1.1" xmlns="http://www.w3.org/2000/svg" xmlns:xlink="http://www.w3.org/1999/xlink">
    <!-- Generator: Sketch 3.7.2 (28276) - http://www.bohemiancoding.com/sketch -->
    <title>des-pen-pot</title>
    <desc>Created with Sketch.</desc>
    <defs></defs>
    <g id="64px-Line" stroke="none" stroke-width="1" fill="none" fill-rule="evenodd">
        <g id="des-pen-pot"></g>
        <path d="M46.766,29.493 L46.766,29.493 L53.7,15.181 C54.049,14.46 54.097,13.646 53.834,12.889 C53.571,12.132 53.029,11.522 52.316,11.177 L46.508,8.301 C45.787,7.951 44.973,7.905 44.216,8.167 C43.459,8.43 42.849,8.972 42.5,9.693 L36,23.114 L36,7 C36,6.448 35.552,6 35,6 L29,6 C26.243,6 24,8.243 24,11 L24,19 C24,19.552 24.448,20 25,20 C25.552,20 26,19.552 26,19 L26,11 C26,9.698 26.839,8.599 28,8.184 L28,30 L26.37,30 L19.245,15.293 L19.245,15.292 L19.245,15.292 L17.501,11.693 C17.152,10.972 16.543,10.43 15.785,10.167 C15.028,9.904 14.214,9.952 13.493,10.301 L11.693,11.173 C10.972,11.522 10.43,12.131 10.167,12.889 C9.904,13.646 9.952,14.46 10.301,15.181 L17.48,30 L17,30 C16.448,30 16,30.448 16,31 L16,55 C16,57.757 18.243,60 21,60 L43,60 C45.757,60 48,57.757 48,55 L48,31 C48,30.448 47.552,30 47,30 L46.52,30 L46.766,29.493 C46.765,29.494 46.765,29.494 46.766,29.493 L46.766,29.493 Z M44.3,10.564 C44.541,10.068 45.14,9.861 45.628,10.096 L51.436,12.972 C51.676,13.089 51.857,13.291 51.945,13.544 C52.032,13.796 52.016,14.068 51.9,14.308 L51.251,15.647 L46.751,13.467 C46.255,13.228 45.656,13.433 45.415,13.931 C45.174,14.428 45.382,15.026 45.879,15.267 L50.379,17.447 L49.301,19.672 L44.751,17.467 C44.253,17.227 43.656,17.434 43.415,17.931 C43.174,18.428 43.382,19.026 43.879,19.267 L48.429,21.472 L47.351,23.697 L42.751,21.468 C42.254,21.229 41.656,21.435 41.415,21.932 C41.174,22.429 41.382,23.027 41.879,23.268 L46.479,25.497 L45.401,27.722 L40.75,25.469 C40.253,25.229 39.655,25.436 39.414,25.933 C39.173,26.43 39.381,27.028 39.878,27.269 L44.529,29.522 L44.298,30 L36,30 L36,27.702 L44.3,10.564 L44.3,10.564 Z M34,20 L30,20 L30,8 L34,8 L34,20 L34,20 Z M30,22 L34,22 L34,30 L30,30 L30,22 L30,22 Z M12.056,13.544 C12.144,13.292 12.325,13.089 12.565,12.972 L14.365,12.1 C14.605,11.983 14.875,11.967 15.129,12.055 C15.381,12.143 15.584,12.324 15.701,12.564 L17.009,15.264 L13.409,17.008 L12.101,14.308 C11.984,14.068 11.968,13.797 12.056,13.544 L12.056,13.544 Z M14.281,18.808 L17.881,17.064 L24.147,30 L19.702,30 L14.281,18.808 L14.281,18.808 Z M46,55 C46,56.654 44.654,58 43,58 L21,58 C19.346,58 18,56.654 18,55 L18,32 L46,32 L46,55 L46,55 Z" id="Shape" fill="#000000"></path>
    </g>
</svg>