<?xml version="1.0" encoding="UTF-8" standalone="no"?>
<svg width="64px" height="64px" viewBox="0 0 64 64" version="1.1" xmlns="http://www.w3.org/2000/svg" xmlns:xlink="http://www.w3.org/1999/xlink">
    <!-- Generator: Sketch 3.7.2 (28276) - http://www.bohemiancoding.com/sketch -->
    <title>des-pipette-block</title>
    <desc>Created with Sketch.</desc>
    <defs></defs>
    <g id="64px-Line" stroke="none" stroke-width="1" fill="none" fill-rule="evenodd">
        <g id="des-pipette-block"></g>
        <path d="M13,26 C15.472,26 17.713,24.998 19.341,23.379 C19.348,23.372 19.357,23.37 19.364,23.363 C19.371,23.356 19.373,23.346 19.38,23.34 C20.998,21.712 22,19.471 22,17 C22,12.038 17.963,8 13,8 C10.528,8 8.287,9.002 6.659,10.621 C6.652,10.628 6.643,10.63 6.636,10.637 C6.629,10.644 6.627,10.654 6.62,10.66 C5.002,12.288 4,14.529 4,17 C4,21.962 8.037,26 13,26 L13,26 Z M6,17 C6,15.431 6.526,13.985 7.401,12.816 L17.184,22.598 C16.016,23.474 14.57,24 13,24 C9.141,24 6,20.86 6,17 L6,17 Z M20,17 C20,18.569 19.474,20.015 18.599,21.184 L8.816,11.402 C9.984,10.526 11.43,10 13,10 C16.859,10 20,13.14 20,17 L20,17 Z" id="Shape" fill="#000000"></path>
        <path d="M7.244,59.707 C7.432,59.895 7.686,60 7.951,60 C8.217,60 8.471,59.895 8.658,59.707 C10.344,58.022 12.026,58.466 12.084,58.481 C12.44,58.59 12.822,58.493 13.084,58.232 L37.457,33.858 L38.287,34.688 C38.853,35.255 39.606,35.567 40.408,35.567 C41.209,35.567 41.963,35.255 42.529,34.688 L45.603,31.615 C46.771,30.446 46.771,28.543 45.602,27.373 L44.914,26.685 C47.404,24.958 53.828,20.439 55.868,18.399 C58.698,15.568 58.698,10.963 55.868,8.133 C53.039,5.302 48.433,5.302 45.602,8.133 C43.562,10.173 39.042,16.597 37.315,19.087 L36.627,18.399 C35.493,17.264 33.515,17.267 32.385,18.399 L29.312,21.472 C28.142,22.641 28.142,24.545 29.312,25.715 L30.141,26.544 L5.768,50.918 C5.506,51.18 5.411,51.564 5.519,51.918 C5.524,51.935 5.987,53.649 4.292,55.344 C4.105,55.53 4,55.784 4,56.049 C4,56.314 4.105,56.569 4.293,56.756 L7.244,59.707 L7.244,59.707 Z M47.017,9.546 C49.068,7.495 52.404,7.495 54.455,9.546 C56.506,11.597 56.506,14.933 54.455,16.984 C52.464,18.975 45.644,23.746 43.477,25.246 L38.754,20.523 C40.254,18.356 45.025,11.537 47.017,9.546 L47.017,9.546 Z M30.727,22.885 L33.801,19.812 C33.989,19.624 34.239,19.52 34.507,19.52 C34.774,19.52 35.025,19.624 35.214,19.813 L44.188,28.787 C44.579,29.177 44.579,29.812 44.189,30.202 L41.116,33.275 C40.737,33.654 40.08,33.652 39.703,33.275 L39.702,33.275 L30.727,24.301 C30.337,23.909 30.337,23.275 30.727,22.885 L30.727,22.885 Z M7.549,51.964 L31.556,27.956 L36.044,32.443 L12.037,56.45 C11.187,56.36 9.612,56.413 8,57.632 L6.367,56 C7.586,54.388 7.64,52.811 7.549,51.964 L7.549,51.964 Z" id="Shape" fill="#000000"></path>
    </g>
</svg>