<?xml version="1.0" encoding="UTF-8" standalone="no"?>
<svg width="64px" height="64px" viewBox="0 0 64 64" version="1.1" xmlns="http://www.w3.org/2000/svg" xmlns:xlink="http://www.w3.org/1999/xlink">
    <!-- Generator: Sketch 3.7.2 (28276) - http://www.bohemiancoding.com/sketch -->
    <title>des-pencil</title>
    <desc>Created with Sketch.</desc>
    <defs></defs>
    <g id="64px-Line" stroke="none" stroke-width="1" fill="none" fill-rule="evenodd">
        <g id="des-pencil"></g>
        <path d="M5,60 C5.15,60 5.301,59.966 5.442,59.897 L21.86,51.8 C21.958,51.752 22.048,51.687 22.125,51.61 L24.027,49.708 C24.028,49.707 24.029,49.707 24.03,49.706 L53.376,20.361 L56.843,16.893 C57.588,16.149 57.999,15.159 57.999,14.105 C57.999,13.051 57.589,12.061 56.844,11.316 L52.683,7.156 C51.94,6.411 50.95,6 49.896,6 L49.896,6 C48.842,6 47.852,6.41 47.108,7.155 L43.639,10.623 L12.389,41.873 C12.312,41.95 12.247,42.04 12.199,42.138 L4.103,58.558 C3.914,58.942 3.99,59.405 4.293,59.707 C4.485,59.899 4.741,60 5,60 L5,60 Z M8.028,55.12 L8.88,55.972 L7.2,56.8 L8.028,55.12 L8.028,55.12 Z M10.774,55.038 L8.962,53.226 L13.511,44 L16,44 L16,49 C16,49.552 16.448,50 17,50 L20.908,50 L20.828,50.08 L10.774,55.038 L10.774,55.038 Z M22.908,48 L18,48 L18,43 C18,42.448 17.552,42 17,42 L15.09,42 L44.347,12.744 L51.256,19.653 L22.908,48 L22.908,48 Z M48.523,8.569 C48.89,8.202 49.377,8 49.896,8 L49.896,8 C50.415,8 50.902,8.202 51.269,8.569 L55.43,12.73 C55.797,13.097 55.999,13.584 55.999,14.104 C55.999,14.623 55.797,15.11 55.43,15.478 L52.669,18.24 L45.76,11.331 L48.523,8.569 L48.523,8.569 Z" id="Shape" fill="#000000"></path>
    </g>
</svg>