<?xml version="1.0" encoding="UTF-8" standalone="no"?>
<svg width="64px" height="64px" viewBox="0 0 64 64" version="1.1" xmlns="http://www.w3.org/2000/svg" xmlns:xlink="http://www.w3.org/1999/xlink">
    <!-- Generator: Sketch 3.7.2 (28276) - http://www.bohemiancoding.com/sketch -->
    <title>des-stamp</title>
    <desc>Created with Sketch.</desc>
    <defs></defs>
    <g id="64px-Line" stroke="none" stroke-width="1" fill="none" fill-rule="evenodd">
        <g id="des-stamp"></g>
        <path d="M23,38 L11,38 C8.243,38 6,40.243 6,43 L6,49 C6,50.302 6.839,51.401 8,51.815 L8,55 C8,56.654 9.346,58 11,58 L53,58 C54.654,58 56,56.654 56,55 L56,51.816 C57.161,51.401 58,50.302 58,49 L58,43 C58,40.243 55.757,38 53,38 L41,38 C38.243,38 36,35.757 36,33 L36,25.793 C36,25.421 36.221,25.076 36.575,24.894 C39.992,23.131 42.119,19.511 41.994,15.67 C41.827,10.484 37.471,6.149 32.284,6.004 C29.561,5.938 26.98,6.932 25.028,8.831 C23.075,10.73 22,13.276 22,16 C22,19.756 24.076,23.162 27.419,24.89 C27.777,25.075 28,25.421 28,25.793 L28,33 C28,35.757 25.757,38 23,38 L23,38 Z M53,56 L11,56 C10.448,56 10,55.552 10,55 L10,52 L54,52 L54,55 C54,55.552 53.552,56 53,56 L53,56 Z M28.337,23.112 C25.662,21.73 24,19.005 24,16 C24,13.821 24.86,11.784 26.423,10.265 C27.985,8.746 30.03,7.929 32.23,8.004 C36.377,8.118 39.862,11.587 39.997,15.734 C40.097,18.808 38.393,21.706 35.66,23.116 C34.637,23.643 34.001,24.669 34.001,25.793 L34.001,33 C34.001,36.859 37.142,40 41.001,40 L53.001,40 C54.655,40 56.001,41.346 56.001,43 L56.001,49 C56.001,49.552 55.553,50 55.001,50 L9.001,50 C8.449,50 8.001,49.552 8.001,49 L8.001,43 C8.001,41.346 9.347,40 11.001,40 L23.001,40 C26.86,40 30.001,36.859 30.001,33 L30.001,25.793 C30,24.67 29.362,23.643 28.337,23.112 L28.337,23.112 Z" id="Shape" fill="#000000"></path>
        <path d="M33,11 C33,10.447 32.553,10 32,10 C28.691,10 26,12.691 26,16 C26,16.553 26.447,17 27,17 C27.553,17 28,16.553 28,16 C28,13.794 29.794,12 32,12 C32.553,12 33,11.553 33,11 L33,11 Z" id="Shape" fill="#000000"></path>
    </g>
</svg>