<?xml version="1.0" encoding="UTF-8" standalone="no"?>
<svg width="64px" height="64px" viewBox="0 0 64 64" version="1.1" xmlns="http://www.w3.org/2000/svg" xmlns:xlink="http://www.w3.org/1999/xlink">
    <!-- Generator: Sketch 3.7.2 (28276) - http://www.bohemiancoding.com/sketch -->
    <title>des-wand-2</title>
    <desc>Created with Sketch.</desc>
    <defs></defs>
    <g id="64px-Line" stroke="none" stroke-width="1" fill="none" fill-rule="evenodd">
        <g id="des-wand-2"></g>
        <path d="M8.293,59.707 C8.488,59.902 8.744,60 9,60 C9.256,60 9.512,59.902 9.707,59.707 L47.707,21.707 C48.098,21.316 48.098,20.684 47.707,20.293 L43.707,16.293 C43.316,15.902 42.684,15.902 42.293,16.293 L4.293,54.293 C3.902,54.684 3.902,55.316 4.293,55.707 L8.293,59.707 L8.293,59.707 Z M43,18.414 L45.586,21 L39,27.586 L36.414,25 L43,18.414 L43,18.414 Z M35,26.414 L37.586,29 L9,57.586 L6.414,55 L35,26.414 L35,26.414 Z" id="Shape" fill="#000000"></path>
        <path d="M44,11 L44,7 C44,6.447 43.553,6 43,6 C42.447,6 42,6.447 42,7 L42,11 C42,11.553 42.447,12 43,12 C43.553,12 44,11.553 44,11 L44,11 Z" id="Shape" fill="#000000"></path>
        <path d="M58,21 C58,20.447 57.553,20 57,20 L53,20 C52.447,20 52,20.447 52,21 C52,21.553 52.447,22 53,22 L57,22 C57.553,22 58,21.553 58,21 L58,21 Z" id="Shape" fill="#000000"></path>
        <path d="M28,21 C28,21.553 28.447,22 29,22 L33,22 C33.553,22 34,21.553 34,21 C34,20.447 33.553,20 33,20 L29,20 C28.447,20 28,20.447 28,21 L28,21 Z" id="Shape" fill="#000000"></path>
        <path d="M42,31 L42,35 C42,35.553 42.447,36 43,36 C43.553,36 44,35.553 44,35 L44,31 C44,30.447 43.553,30 43,30 C42.447,30 42,30.447 42,31 L42,31 Z" id="Shape" fill="#000000"></path>
        <path d="M38.001,13.34 C38.171,13.34 38.343,13.297 38.5,13.206 C38.979,12.93 39.143,12.318 38.866,11.84 L36.866,8.375 C36.589,7.896 35.976,7.732 35.5,8.009 C35.021,8.285 34.857,8.897 35.134,9.375 L37.134,12.84 C37.319,13.16 37.655,13.34 38.001,13.34 L38.001,13.34 Z" id="Shape" fill="#000000"></path>
        <path d="M54.625,13.134 L51.16,15.134 C50.681,15.41 50.517,16.022 50.794,16.5 C50.98,16.82 51.315,17 51.661,17 C51.831,17 52.003,16.957 52.16,16.866 L55.625,14.866 C56.104,14.59 56.268,13.978 55.991,13.5 C55.714,13.021 55.101,12.857 54.625,13.134 L54.625,13.134 Z" id="Shape" fill="#000000"></path>
        <path d="M47.5,28.794 C47.021,29.07 46.857,29.682 47.134,30.16 L49.134,33.625 C49.32,33.945 49.655,34.125 50.001,34.125 C50.171,34.125 50.343,34.082 50.5,33.991 C50.979,33.715 51.143,33.103 50.866,32.625 L48.866,29.16 C48.589,28.682 47.976,28.518 47.5,28.794 L47.5,28.794 Z" id="Shape" fill="#000000"></path>
        <path d="M31.375,13.134 C30.897,12.858 30.285,13.022 30.009,13.5 C29.733,13.978 29.897,14.59 30.375,14.866 L33.84,16.866 C33.997,16.957 34.169,17 34.339,17 C34.685,17 35.021,16.82 35.206,16.5 C35.482,16.021 35.318,15.41 34.84,15.134 L31.375,13.134 L31.375,13.134 Z" id="Shape" fill="#000000"></path>
        <path d="M50.5,8.009 C50.021,7.733 49.41,7.897 49.134,8.375 L47.134,11.84 C46.858,12.319 47.022,12.93 47.5,13.206 C47.657,13.297 47.829,13.34 47.999,13.34 C48.345,13.34 48.681,13.16 48.866,12.84 L50.866,9.375 C51.143,8.896 50.979,8.285 50.5,8.009 L50.5,8.009 Z" id="Shape" fill="#000000"></path>
        <path d="M54.625,28.866 C54.782,28.957 54.954,29 55.124,29 C55.47,29 55.806,28.82 55.991,28.5 C56.267,28.021 56.103,27.41 55.625,27.134 L52.16,25.134 C51.682,24.858 51.07,25.023 50.794,25.5 C50.518,25.979 50.682,26.59 51.16,26.866 L54.625,28.866 L54.625,28.866 Z" id="Shape" fill="#000000"></path>
    </g>
</svg>