<?xml version="1.0" encoding="UTF-8" standalone="no"?>
<svg width="64px" height="64px" viewBox="0 0 64 64" version="1.1" xmlns="http://www.w3.org/2000/svg" xmlns:xlink="http://www.w3.org/1999/xlink">
    <!-- Generator: Sketch 3.7.2 (28276) - http://www.bohemiancoding.com/sketch -->
    <title>des-magnet-block</title>
    <desc>Created with Sketch.</desc>
    <defs></defs>
    <g id="64px-Line" stroke="none" stroke-width="1" fill="none" fill-rule="evenodd">
        <g id="des-magnet-block"></g>
        <path d="M59,20 L47,20 C46.448,20 46,20.448 46,21 L46,40 C46,43.309 43.309,46 40,46 C36.691,46 34,43.309 34,40 L34,21 C34,20.448 33.552,20 33,20 L21,20 C20.448,20 20,20.448 20,21 L20,40 C20,51.028 28.972,60 40,60 C51.028,60 60,51.028 60,40 L60,21 C60,20.448 59.552,20 59,20 L59,20 Z M58,22 L58,30 L48,30 L48,22 L58,22 L58,22 Z M32,22 L32,30 L22,30 L22,22 L32,22 L32,22 Z M40,58 C30.075,58 22,49.925 22,40 L22,32 L32,32 L32,40 C32,44.411 35.589,48 40,48 C44.411,48 48,44.411 48,40 L48,32 L58,32 L58,40 C58,49.925 49.925,58 40,58 L40,58 Z" id="Shape" fill="#000000"></path>
        <path d="M12,22 C14.197,22 16.189,21.109 17.637,19.67 C17.643,19.664 17.651,19.663 17.657,19.657 C17.663,19.651 17.665,19.643 17.67,19.637 C19.109,18.189 20,16.197 20,14 C20,9.589 16.411,6 12,6 C9.803,6 7.811,6.891 6.363,8.33 C6.357,8.336 6.349,8.337 6.343,8.343 C6.337,8.349 6.335,8.357 6.33,8.363 C4.891,9.811 4,11.803 4,14 C4,18.411 7.589,22 12,22 L12,22 Z M18,14 C18,15.294 17.584,16.49 16.885,17.471 L8.529,9.115 C9.51,8.416 10.706,8 12,8 C15.309,8 18,10.691 18,14 L18,14 Z M7.115,10.529 L15.471,18.885 C14.49,19.584 13.294,20 12,20 C8.691,20 6,17.309 6,14 C6,12.706 6.416,11.51 7.115,10.529 L7.115,10.529 Z" id="Shape" fill="#000000"></path>
    </g>
</svg>