<?xml version="1.0" encoding="UTF-8" standalone="no"?>
<svg width="64px" height="64px" viewBox="0 0 64 64" version="1.1" xmlns="http://www.w3.org/2000/svg" xmlns:xlink="http://www.w3.org/1999/xlink">
    <!-- Generator: Sketch 3.7.2 (28276) - http://www.bohemiancoding.com/sketch -->
    <title>des-scalpel-fat</title>
    <desc>Created with Sketch.</desc>
    <defs></defs>
    <g id="64px-Line" stroke="none" stroke-width="1" fill="none" fill-rule="evenodd">
        <g id="des-scalpel-fat"></g>
        <path d="M45.707,6.293 C45.316,5.902 44.684,5.902 44.293,6.293 L16.293,34.293 C16.105,34.48 16,34.734 16,35 C16,35.266 16.105,35.52 16.293,35.707 L19.586,38.999 L4.293,54.292 C3.986,54.599 3.912,55.066 4.109,55.453 C4.281,55.792 4.628,55.999 5,55.999 C5.052,55.999 5.104,55.995 5.156,55.986 L24.156,52.986 C24.66,52.907 25.023,52.461 24.999,51.951 C24.997,51.916 24.878,48.754 26.805,46.215 L30.297,49.706 C30.492,49.901 30.748,49.999 31.004,49.999 C31.26,49.999 31.516,49.901 31.711,49.706 L59.707,21.706 C60.098,21.315 60.098,20.683 59.707,20.292 L45.707,6.293 L45.707,6.293 Z M23.02,51.143 L7.882,53.533 L21.001,40.414 L25.384,44.796 C23.547,47.077 23.111,49.765 23.02,51.143 L23.02,51.143 Z M31.004,47.586 L27.458,44.042 L27.458,44.042 L27.458,44.042 L18.414,35 L23,30.414 L35.588,43.001 L31.004,47.586 L31.004,47.586 Z M37.001,41.587 L24.414,29 L45,8.414 L57.586,21 L37.001,41.587 L37.001,41.587 Z" id="Shape" fill="#000000"></path>
        <path d="M43.293,13.293 L29.293,27.293 C28.902,27.684 28.902,28.316 29.293,28.707 C29.488,28.902 29.744,29 30,29 C30.256,29 30.512,28.902 30.707,28.707 L44.707,14.707 C45.098,14.316 45.098,13.684 44.707,13.293 C44.316,12.902 43.684,12.902 43.293,13.293 L43.293,13.293 Z" id="Shape" fill="#000000"></path>
    </g>
</svg>