<?xml version="1.0" encoding="UTF-8" standalone="no"?>
<svg width="64px" height="64px" viewBox="0 0 64 64" version="1.1" xmlns="http://www.w3.org/2000/svg" xmlns:xlink="http://www.w3.org/1999/xlink">
    <!-- Generator: Sketch 3.7.2 (28276) - http://www.bohemiancoding.com/sketch -->
    <title>des-highlighter-fat</title>
    <desc>Created with Sketch.</desc>
    <defs></defs>
    <g id="64px-Line" stroke="none" stroke-width="1" fill="none" fill-rule="evenodd">
        <g id="des-highlighter-fat"></g>
        <path d="M40.626,8.896 C39.426,7.705 37.474,7.706 36.268,8.901 L27.313,17.9 L26.707,17.294 C26.316,16.903 25.684,16.903 25.293,17.294 C24.902,17.685 24.902,18.317 25.293,18.708 L25.902,19.317 L11.555,33.734 C10.391,34.904 10.393,36.805 11.56,37.972 L13.999,40.411 C14.778,41.19 14.778,42.458 13.999,43.238 L12.291,44.953 C11.903,45.344 11.902,45.974 12.291,46.364 L13.231,47.308 L4.291,56.294 C4.006,56.58 3.922,57.01 4.076,57.383 C4.231,57.756 4.596,57.999 5,57.999 L17.667,57.999 C17.934,57.999 18.188,57.893 18.376,57.704 L20.976,55.088 L21.589,55.704 C21.978,56.095 22.61,56.098 23.003,55.708 L24.724,53.998 L24.725,53.997 C25.504,53.22 26.772,53.22 27.551,53.999 L29.996,56.444 C30.58,57.028 31.349,57.32 32.117,57.32 C32.883,57.32 33.648,57.031 34.231,56.451 L48.688,42.101 L49.293,42.706 C49.488,42.901 49.744,42.999 50,42.999 C50.256,42.999 50.512,42.901 50.707,42.706 C51.098,42.315 51.098,41.683 50.707,41.292 L50.107,40.692 L59.102,31.763 C60.296,30.564 60.296,28.611 59.101,27.41 L40.626,8.896 L40.626,8.896 Z M17.251,56 L7.405,56 L14.642,48.726 L19.565,53.672 L17.251,56 L17.251,56 Z M32.822,55.033 C32.432,55.421 31.798,55.419 31.41,55.031 L28.965,52.586 C28.186,51.807 27.161,51.417 26.137,51.417 C25.115,51.417 24.091,51.805 23.313,52.582 L22.302,53.586 L21.681,52.962 L21.681,52.962 L21.681,52.962 L14.412,45.659 L15.417,44.65 C16.974,43.091 16.973,40.554 15.414,38.997 L12.975,36.558 C12.586,36.168 12.585,35.535 12.974,35.144 L27.318,20.731 L47.276,40.689 L32.822,55.033 L32.822,55.033 Z M57.689,30.35 L48.693,39.28 L28.726,19.314 L37.68,10.316 C38.105,9.895 38.792,9.895 39.213,10.312 L57.684,28.824 C58.104,29.245 58.104,29.933 57.689,30.35 L57.689,30.35 Z" id="Shape" fill="#000000"></path>
        <path d="M25.293,25.293 L16.293,34.293 C15.902,34.684 15.902,35.316 16.293,35.707 C16.488,35.902 16.744,36 17,36 C17.256,36 17.512,35.902 17.707,35.707 L26.707,26.707 C27.098,26.316 27.098,25.684 26.707,25.293 C26.316,24.902 25.684,24.902 25.293,25.293 L25.293,25.293 Z" id="Shape" fill="#000000"></path>
        <path d="M37.293,13.293 L32.293,18.293 C31.902,18.684 31.902,19.316 32.293,19.707 C32.488,19.902 32.744,20 33,20 C33.256,20 33.512,19.902 33.707,19.707 L38.707,14.707 C39.098,14.316 39.098,13.684 38.707,13.293 C38.316,12.902 37.684,12.902 37.293,13.293 L37.293,13.293 Z" id="Shape" fill="#000000"></path>
    </g>
</svg>