<?xml version="1.0" encoding="UTF-8" standalone="no"?>
<svg width="64px" height="64px" viewBox="0 0 64 64" version="1.1" xmlns="http://www.w3.org/2000/svg" xmlns:xlink="http://www.w3.org/1999/xlink">
    <!-- Generator: Sketch 3.7.2 (28276) - http://www.bohemiancoding.com/sketch -->
    <title>des-origami</title>
    <desc>Created with Sketch.</desc>
    <defs></defs>
    <g id="64px-Line" stroke="none" stroke-width="1" fill="none" fill-rule="evenodd">
        <g id="des-origami"></g>
        <path d="M24,23.414 L24,28.586 L14.294,38.293 C14.201,38.385 14.128,38.496 14.077,38.619 C14.027,38.74 14,38.87 14,39 L14,59 C14,59.404 14.243,59.769 14.617,59.924 C14.741,59.975 14.871,60 15,60 C15.26,60 15.516,59.898 15.707,59.707 L25.707,49.707 L47.707,27.707 C47.722,27.692 47.727,27.672 47.741,27.656 C47.802,27.587 47.852,27.512 47.892,27.429 C47.907,27.399 47.923,27.371 47.934,27.34 C47.973,27.232 48,27.119 48,27 L48,19.414 L57.707,9.707 C57.993,9.421 58.079,8.991 57.924,8.617 C57.77,8.244 57.404,8 57,8 L47,8 C46.979,8 46.961,8.011 46.94,8.012 C46.848,8.017 46.76,8.035 46.673,8.066 C46.641,8.077 46.61,8.085 46.58,8.099 C46.477,8.147 46.38,8.207 46.296,8.29 C46.295,8.291 46.293,8.292 46.292,8.293 L38,16.586 L25.708,4.294 C25.707,4.293 25.705,4.292 25.704,4.291 C25.621,4.208 25.524,4.148 25.421,4.1 C25.39,4.085 25.358,4.078 25.325,4.066 C25.24,4.037 25.153,4.019 25.063,4.013 C25.041,4.011 25.022,4 25,4 L7,4 C6.596,4 6.23,4.244 6.076,4.617 C5.921,4.991 6.007,5.421 6.293,5.707 L24,23.414 L24,23.414 Z M24,31.414 L24,46.586 L16.414,39 L24,31.414 L24,31.414 Z M16,41.414 L23.586,49 L16,56.586 L16,41.414 L16,41.414 Z M26,46.586 L26,23 L26,7.414 L37.293,18.707 L45.586,27 L26,46.586 L26,46.586 Z M48,16.586 L48,10 L54.586,10 L48,16.586 L48,16.586 Z M46,11.414 L46,24.586 L39.414,18 L46,11.414 L46,11.414 Z M24,6 L24,20.586 L9.414,6 L24,6 L24,6 Z" id="Shape" fill="#000000"></path>
    </g>
</svg>