<?xml version="1.0" encoding="UTF-8" standalone="no"?>
<svg width="64px" height="64px" viewBox="0 0 64 64" version="1.1" xmlns="http://www.w3.org/2000/svg" xmlns:xlink="http://www.w3.org/1999/xlink">
    <!-- Generator: Sketch 3.7.2 (28276) - http://www.bohemiancoding.com/sketch -->
    <title>des-marker</title>
    <desc>Created with Sketch.</desc>
    <defs></defs>
    <g id="64px-Line" stroke="none" stroke-width="1" fill="none" fill-rule="evenodd">
        <g id="des-marker"></g>
        <path d="M55.377,8.295 C55.189,8.106 54.934,8 54.667,8 C54.4,8 54.146,8.106 53.957,8.295 L51.778,10.489 L51.043,9.749 C51.043,9.749 51.043,9.749 51.042,9.749 C49.894,8.591 47.884,8.591 46.735,9.749 L12.957,43.749 C12.021,44.691 11.839,46.097 12.385,47.235 L10.068,49.567 C9.68,49.957 9.68,50.586 10.067,50.976 L10.812,51.726 L4.289,58.294 C4.005,58.581 3.921,59.01 4.076,59.383 C4.231,59.756 4.596,60 5,60 L13.667,60 C13.934,60 14.188,59.894 14.377,59.705 L16.556,57.511 L17.29,58.251 C17.478,58.44 17.733,58.546 18,58.546 C18.267,58.546 18.521,58.44 18.71,58.251 L21.017,55.928 C21.424,56.125 21.868,56.24 22.333,56.24 L22.334,56.24 C23.148,56.24 23.913,55.92 24.486,55.342 L48.136,31.538 C48.14,31.534 48.146,31.533 48.15,31.529 C48.154,31.525 48.155,31.519 48.16,31.515 L58.267,21.342 C59.449,20.152 59.449,18.215 58.267,17.024 L57.522,16.274 L59.711,14.069 C60.098,13.679 60.098,13.05 59.711,12.66 L55.377,8.295 L55.377,8.295 Z M13.251,58 L7.402,58 L12.222,53.147 L15.146,56.091 L13.251,58 L13.251,58 Z M18,56.126 L17.261,55.382 C17.261,55.382 17.261,55.382 17.261,55.381 C17.261,55.38 17.261,55.381 17.26,55.381 L12.929,51.021 C12.928,51.02 12.928,51.019 12.928,51.019 C12.927,51.019 12.927,51.019 12.926,51.018 L12.187,50.274 L13.667,48.784 L19.48,54.638 L18,56.126 L18,56.126 Z M23.067,53.932 C22.871,54.13 22.61,54.239 22.334,54.239 C22.334,54.239 22.334,54.239 22.333,54.239 C22.056,54.239 21.795,54.13 21.599,53.931 L14.377,46.659 C13.966,46.245 13.966,45.573 14.376,45.159 L37.331,22.053 L46.033,30.816 L23.067,53.932 L23.067,53.932 Z M56.847,19.932 L47.443,29.398 L38.741,20.634 L48.154,11.159 C48.351,10.961 48.612,10.852 48.889,10.852 C49.166,10.852 49.427,10.961 49.623,11.159 L51.072,12.618 L51.072,12.618 L51.072,12.618 L56.845,18.431 C57.257,18.846 57.257,19.518 56.847,19.932 L56.847,19.932 Z M56.111,14.854 L53.187,11.91 L54.667,10.42 L57.591,13.365 L56.111,14.854 L56.111,14.854 Z" id="Shape" fill="#000000"></path>
    </g>
</svg>