<?xml version="1.0" encoding="UTF-8" standalone="no"?>
<svg width="64px" height="64px" viewBox="0 0 64 64" version="1.1" xmlns="http://www.w3.org/2000/svg" xmlns:xlink="http://www.w3.org/1999/xlink">
    <!-- Generator: Sketch 3.7.2 (28276) - http://www.bohemiancoding.com/sketch -->
    <title>des-inkpen</title>
    <desc>Created with Sketch.</desc>
    <defs></defs>
    <g id="64px-Line" stroke="none" stroke-width="1" fill="none" fill-rule="evenodd">
        <g id="des-inkpen"></g>
        <path d="M27.92,15.198 L27.92,15.198 L27.92,15.198 C27.154,15.954 26.733,16.959 26.733,18.029 C26.733,19.099 27.154,20.105 27.92,20.861 C28.706,21.636 29.738,22.024 30.77,22.024 C31.802,22.024 32.834,21.636 33.62,20.861 L33.62,20.861 C34.385,20.106 34.807,19.1 34.807,18.029 C34.807,16.959 34.385,15.953 33.62,15.198 C33.223,14.806 32.761,14.515 32.27,14.321 C37.464,10.969 45.443,8.476 50.753,8.043 C44.981,10.829 37.047,17.494 31.499,22.969 C31.496,22.972 31.493,22.975 31.49,22.978 L31.49,22.978 L31.49,22.978 C24.545,29.833 18.713,37.243 16.268,42.319 C16.106,42.656 16.157,43.044 16.373,43.338 C15.195,44.095 12.788,45.285 9.295,45.285 C8.773,45.285 8.338,45.687 8.298,46.207 C8.291,46.295 7.573,55.056 4.298,58.288 C4.1,58.484 4,58.742 4,59 C4,59.254 4.096,59.508 4.288,59.703 C4.484,59.901 4.742,60 5,60 C5.254,60 5.508,59.904 5.703,59.712 C8.977,56.48 17.872,55.766 17.961,55.759 C18.482,55.719 18.885,55.285 18.885,54.762 C18.885,51.33 20.107,48.938 20.872,47.776 C21.047,47.907 21.25,47.991 21.464,47.991 C21.608,47.991 21.753,47.96 21.888,47.896 C27.033,45.483 34.545,39.725 41.493,32.869 C41.496,32.866 41.499,32.863 41.502,32.86 L41.502,32.86 L41.502,32.86 C51.215,23.273 57.998,13.656 57.998,9.471 C57.998,8.611 57.743,7.923 57.241,7.428 C53.033,3.276 34.162,9.038 27.92,15.198 L27.92,15.198 Z M30.771,16.032 C31.294,16.032 31.818,16.229 32.216,16.622 C32.598,16.998 32.808,17.498 32.808,18.029 C32.808,18.56 32.598,19.06 32.216,19.437 C31.419,20.223 30.122,20.223 29.325,19.437 C28.943,19.06 28.733,18.56 28.733,18.029 C28.733,17.498 28.943,16.998 29.324,16.622 C29.724,16.229 30.247,16.032 30.771,16.032 L30.771,16.032 Z M16.91,53.853 C15.188,54.047 11.338,54.604 8.081,55.953 C9.44,52.746 10.003,48.964 10.201,47.262 C14.023,47.06 16.607,45.62 17.804,44.785 L19.409,46.369 C18.561,47.56 17.117,50.102 16.91,53.853 L16.91,53.853 Z M21.663,45.782 L18.389,42.551 C20.818,37.864 26.008,31.309 32.207,25.09 L39.363,32.152 C33.057,38.271 26.41,43.391 21.663,45.782 L21.663,45.782 Z M40.785,30.745 L33.634,23.688 C45.942,11.716 54.613,7.639 55.837,8.851 C55.978,8.99 55.999,9.299 55.999,9.471 C56,12.442 50.666,20.851 40.785,30.745 L40.785,30.745 Z" id="Shape" fill="#000000"></path>
    </g>
</svg>