<?xml version="1.0" encoding="UTF-8" standalone="no"?>
<svg width="64px" height="64px" viewBox="0 0 64 64" version="1.1" xmlns="http://www.w3.org/2000/svg" xmlns:xlink="http://www.w3.org/1999/xlink">
    <!-- Generator: Sketch 3.7.2 (28276) - http://www.bohemiancoding.com/sketch -->
    <title>des-palette</title>
    <desc>Created with Sketch.</desc>
    <defs></defs>
    <g id="64px-Line" stroke="none" stroke-width="1" fill="none" fill-rule="evenodd">
        <g id="des-palette"></g>
        <path d="M22,16 C19.794,16 18,18.243 18,21 C18,23.757 19.794,26 22,26 C24.206,26 26,23.757 26,21 C26,18.243 24.206,16 22,16 L22,16 Z M22,24 C20.916,24 20,22.626 20,21 C20,19.374 20.916,18 22,18 C23.084,18 24,19.374 24,21 C24,22.626 23.084,24 22,24 L22,24 Z" id="Shape" fill="#000000"></path>
        <path d="M15,40 C12.243,40 10,42.243 10,45 C10,47.757 12.243,50 15,50 C17.757,50 20,47.757 20,45 C20,42.243 17.757,40 15,40 L15,40 Z M15,48 C13.346,48 12,46.654 12,45 C12,43.346 13.346,42 15,42 C16.654,42 18,43.346 18,45 C18,46.654 16.654,48 15,48 L15,48 Z" id="Shape" fill="#000000"></path>
        <path d="M35.908,14.171 C33.964,13.466 31.594,15.013 30.515,17.696 C29.882,19.264 29.832,20.935 30.381,22.166 C30.743,22.979 31.335,23.554 32.093,23.83 C32.41,23.945 32.738,24 33.07,24 C34.775,24 36.582,22.548 37.485,20.303 C38.117,18.735 38.168,17.065 37.62,15.836 C37.257,15.022 36.666,14.447 35.908,14.171 L35.908,14.171 Z M35.63,19.556 L35.63,19.556 C34.941,21.269 33.556,22.233 32.775,21.95 C32.536,21.864 32.345,21.662 32.207,21.352 C31.88,20.618 31.942,19.504 32.37,18.444 C32.979,16.93 34.133,16.002 34.93,16.002 C35.035,16.002 35.134,16.018 35.224,16.051 C35.463,16.138 35.654,16.34 35.793,16.65 C36.12,17.383 36.058,18.497 35.63,19.556 L35.63,19.556 Z" id="Shape" fill="#000000"></path>
        <path d="M40.101,39.442 C39.859,40.432 40.051,41.47 40.657,42.445 C41.626,44.005 43.571,45.24 45.86,45.75 C46.628,45.921 47.383,46.002 48.105,46.002 C51.012,46.002 53.381,44.68 53.899,42.558 C54.141,41.568 53.948,40.529 53.342,39.554 C52.373,37.994 50.428,36.759 48.139,36.249 C44.281,35.392 40.748,36.792 40.101,39.442 L40.101,39.442 Z M51.644,40.61 C51.964,41.126 52.069,41.622 51.956,42.084 L51.956,42.084 C51.59,43.587 48.947,44.388 46.294,43.798 C44.545,43.408 43.036,42.486 42.355,41.39 C42.035,40.874 41.93,40.379 42.043,39.917 C42.327,38.75 43.982,38.007 45.947,38.007 C46.515,38.007 47.11,38.069 47.705,38.202 C49.454,38.591 50.963,39.514 51.644,40.61 L51.644,40.61 Z" id="Shape" fill="#000000"></path>
        <path d="M47.637,22.301 C46.024,21.904 43.882,22.403 41.906,23.638 C38.782,25.591 37.237,28.667 38.388,30.64 C38.793,31.333 39.475,31.816 40.363,32.035 C40.728,32.125 41.119,32.169 41.53,32.169 C42.936,32.169 44.565,31.653 46.093,30.697 C49.217,28.744 50.762,25.668 49.611,23.695 C49.207,23.002 48.524,22.52 47.637,22.301 L47.637,22.301 Z M45.033,29.001 C43.552,29.927 41.905,30.356 40.842,30.093 C40.488,30.006 40.243,29.85 40.116,29.633 C39.609,28.762 40.72,26.739 42.967,25.335 C44.158,24.59 45.456,24.167 46.473,24.167 C46.72,24.167 46.951,24.192 47.159,24.243 C47.513,24.33 47.758,24.486 47.885,24.703 C48.391,25.574 47.28,27.597 45.033,29.001 L45.033,29.001 Z" id="Shape" fill="#000000"></path>
        <path d="M29,8 C14.047,8 4,18.851 4,35 C4,49.187 9.364,58 18,58 C24.106,58 24.261,51.984 24.384,47.15 C24.526,41.61 24.929,39 28,39 C31.497,39 33.25,41.4 35.47,44.439 C38.255,48.253 41.722,53 50,53 C53.735,53 60,51.311 60,40 C60,21.757 46.673,8 29,8 L29,8 Z M50,51 C42.738,51 39.864,47.065 37.085,43.26 C34.837,40.182 32.513,37 28,37 C22.644,37 22.506,42.365 22.385,47.099 C22.243,52.637 21.877,56 18,56 C9.152,56 6,45.152 6,35 C6,19.813 15.028,10 29,10 C45.533,10 58,22.897 58,40 C58,47.299 55.309,51 50,51 L50,51 Z" id="Shape" fill="#000000"></path>
    </g>
</svg>