<?xml version="1.0" encoding="UTF-8" standalone="no"?>
<svg width="64px" height="64px" viewBox="0 0 64 64" version="1.1" xmlns="http://www.w3.org/2000/svg" xmlns:xlink="http://www.w3.org/1999/xlink">
    <!-- Generator: Sketch 3.7.2 (28276) - http://www.bohemiancoding.com/sketch -->
    <title>des-scissors-cut</title>
    <desc>Created with Sketch.</desc>
    <defs></defs>
    <g id="64px-Line" stroke="none" stroke-width="1" fill="none" fill-rule="evenodd">
        <g id="des-scissors-cut"></g>
        <path d="M20.266,19.838 C21.766,17.433 20.388,13.829 17.13,11.635 C15.246,10.364 13.053,9.831 11.261,10.217 C10.069,10.471 9.131,11.099 8.549,12.031 C7.049,14.437 8.426,18.041 11.684,20.234 C13.166,21.233 14.839,21.774 16.358,21.774 C16.77,21.774 17.172,21.734 17.555,21.652 C18.746,21.398 19.684,20.771 20.266,19.838 L20.266,19.838 Z M18.568,18.779 C18.205,19.362 17.589,19.599 17.136,19.696 C15.864,19.968 14.242,19.548 12.8,18.576 C10.519,17.039 9.349,14.527 10.245,13.09 C10.608,12.507 11.224,12.27 11.677,12.173 C11.932,12.118 12.2,12.092 12.479,12.092 C13.59,12.092 14.858,12.516 16.012,13.293 C18.294,14.83 19.465,17.342 18.568,18.779 L18.568,18.779 Z" id="Shape" fill="#000000"></path>
        <path d="M11.261,55.783 C11.644,55.865 12.045,55.905 12.457,55.905 C13.976,55.905 15.648,55.364 17.13,54.365 C20.388,52.171 21.766,48.567 20.266,46.162 C19.684,45.229 18.746,44.601 17.555,44.348 C15.765,43.965 13.57,44.494 11.684,45.766 C8.426,47.959 7.049,51.563 8.549,53.969 C9.131,54.901 10.068,55.529 11.261,55.783 L11.261,55.783 Z M12.801,47.424 C13.956,46.647 15.224,46.223 16.335,46.223 C16.613,46.223 16.882,46.249 17.137,46.304 C17.59,46.401 18.205,46.638 18.569,47.221 C19.465,48.659 18.295,51.17 16.013,52.707 C14.57,53.68 12.949,54.101 11.678,53.827 C11.226,53.73 10.61,53.493 10.246,52.91 C9.35,51.473 10.52,48.961 12.801,47.424 L12.801,47.424 Z" id="Shape" fill="#000000"></path>
        <path d="M5.209,56.219 C6.345,58.041 8.204,59.308 10.443,59.785 C11.121,59.93 11.817,60.001 12.523,60.001 C14.813,60.001 17.193,59.253 19.294,57.837 C24.339,54.439 26.273,48.191 23.605,43.912 C23.029,42.989 22.255,42.225 21.352,41.617 L26.076,38.265 C33.997,45.08 42.28,52.05 45.431,54.172 C47.08,55.283 48.743,55.842 50.395,55.842 C50.898,55.841 51.401,55.789 51.901,55.686 C55.584,54.919 57.752,51.58 57.841,51.438 C58.128,50.988 58.012,50.393 57.577,50.084 L33.498,33 L57.579,15.916 C58.014,15.607 58.13,15.013 57.843,14.562 C57.753,14.42 55.585,11.081 51.903,10.314 C49.761,9.871 47.585,10.378 45.433,11.828 C42.798,13.602 36.282,18.959 26.08,27.737 L21.373,24.398 C22.273,23.79 23.03,23.009 23.605,22.088 C26.273,17.809 24.339,11.562 19.294,8.163 C16.545,6.311 13.32,5.601 10.442,6.215 C8.203,6.693 6.343,7.959 5.208,9.781 C2.71,13.788 4.178,19.491 8.584,23.014 C9.072,23.445 13.914,27.72 19.99,33.001 C13.673,38.49 8.637,42.937 8.621,42.953 C4.178,46.509 2.711,52.212 5.209,56.219 L5.209,56.219 Z M46.55,13.486 C48.234,12.352 49.893,11.939 51.482,12.27 C53.385,12.661 54.823,14.018 55.574,14.886 L31.771,31.773 L27.762,28.929 C37.555,20.51 44.048,15.172 46.55,13.486 L46.55,13.486 Z M6.906,10.84 C7.764,9.463 9.132,8.54 10.86,8.171 C11.403,8.055 11.962,7.998 12.53,7.998 C14.421,7.998 16.407,8.629 18.177,9.821 C22.339,12.625 24.013,17.653 21.907,21.029 C21.277,22.038 20.345,22.823 19.207,23.305 C18.99,23.363 18.791,23.494 18.65,23.692 C18.447,23.979 18.416,24.336 18.536,24.639 C18.537,24.643 18.539,24.647 18.541,24.652 C18.628,24.869 18.783,25.039 18.972,25.147 L55.576,51.115 C54.832,51.98 53.405,53.33 51.495,53.727 C49.903,54.058 48.239,53.651 46.55,52.513 C40.07,48.148 10.21,21.782 9.872,21.484 C6.219,18.562 4.944,13.986 6.906,10.84 L6.906,10.84 Z M9.909,44.483 C9.962,44.437 15.106,39.893 21.516,34.325 C22.496,35.175 23.499,36.042 24.516,36.92 L18.887,40.913 C18.87,40.925 18.862,40.943 18.847,40.956 C18.785,41.006 18.734,41.063 18.686,41.128 C18.648,41.177 18.615,41.225 18.587,41.278 C18.574,41.303 18.552,41.32 18.542,41.347 C18.529,41.38 18.533,41.414 18.523,41.448 C18.502,41.52 18.488,41.589 18.483,41.664 C18.48,41.717 18.481,41.768 18.487,41.82 C18.494,41.898 18.51,41.972 18.536,42.048 C18.552,42.093 18.571,42.134 18.593,42.177 C18.615,42.22 18.622,42.267 18.651,42.308 C18.671,42.336 18.703,42.346 18.725,42.371 C18.772,42.425 18.828,42.466 18.886,42.51 C18.949,42.557 19.006,42.606 19.078,42.636 C19.085,42.639 19.09,42.646 19.097,42.649 C20.286,43.127 21.258,43.929 21.909,44.971 C24.014,48.347 22.341,53.375 18.179,56.179 C15.876,57.73 13.207,58.333 10.862,57.829 C9.133,57.46 7.766,56.537 6.908,55.16 C4.944,52.014 6.219,47.438 9.909,44.483 L9.909,44.483 Z" id="Shape" fill="#000000"></path>
        <path d="M7,34 C7.553,34 8,33.553 8,33 C8,32.447 7.553,32 7,32 L5,32 C4.447,32 4,32.447 4,33 C4,33.553 4.447,34 5,34 L7,34 L7,34 Z" id="Shape" fill="#000000"></path>
        <path d="M15,34 C15.553,34 16,33.553 16,33 C16,32.447 15.553,32 15,32 L13,32 C12.447,32 12,32.447 12,33 C12,33.553 12.447,34 13,34 L15,34 L15,34 Z" id="Shape" fill="#000000"></path>
        <path d="M47,32 C46.447,32 46,32.447 46,33 C46,33.553 46.447,34 47,34 L49,34 C49.553,34 50,33.553 50,33 C50,32.447 49.553,32 49,32 L47,32 L47,32 Z" id="Shape" fill="#000000"></path>
        <path d="M39,32 C38.447,32 38,32.447 38,33 C38,33.553 38.447,34 39,34 L41,34 C41.553,34 42,33.553 42,33 C42,32.447 41.553,32 41,32 L39,32 L39,32 Z" id="Shape" fill="#000000"></path>
        <path d="M57,32 L55,32 C54.447,32 54,32.447 54,33 C54,33.553 54.447,34 55,34 L57,34 C57.553,34 58,33.553 58,33 C58,32.447 57.553,32 57,32 L57,32 Z" id="Shape" fill="#000000"></path>
    </g>
</svg>