<?xml version="1.0" encoding="UTF-8" standalone="no"?>
<svg width="64px" height="64px" viewBox="0 0 64 64" version="1.1" xmlns="http://www.w3.org/2000/svg" xmlns:xlink="http://www.w3.org/1999/xlink">
    <!-- Generator: Sketch 3.7.2 (28276) - http://www.bohemiancoding.com/sketch -->
    <title>des-brush-fat</title>
    <desc>Created with Sketch.</desc>
    <defs></defs>
    <g id="64px-Line" stroke="none" stroke-width="1" fill="none" fill-rule="evenodd">
        <g id="des-brush-fat"></g>
        <path d="M16.137,41.353 C16.035,41.401 13.63,42.536 12.611,44.434 C11.34,46.804 11.366,50.836 11.367,51.006 C11.372,51.555 11.819,51.996 12.367,51.996 L12.377,51.996 C12.929,51.99 13.372,51.538 13.367,50.986 C13.357,49.967 13.517,46.974 14.373,45.379 C14.955,44.295 16.453,43.414 16.981,43.166 C17.48,42.932 17.696,42.337 17.463,41.837 C17.23,41.338 16.636,41.124 16.137,41.353 L16.137,41.353 Z" id="Shape" fill="#000000"></path>
        <path d="M51.748,6 C45.792,6 36.698,11.336 28.578,19.595 C22.049,26.234 18.749,32.078 18.741,36.981 C16.647,36.855 13.099,37.049 10.8,39.388 C7.197,43.052 6.853,47.011 6.575,50.193 C6.347,52.807 6.167,54.873 4.399,56.201 C4.055,56.46 3.915,56.909 4.051,57.317 C4.187,57.725 4.57,58 5,58 C17.351,58 22.462,58 25.713,54.701 C28.411,51.957 28.444,48.43 27.813,45.889 C32.583,45.748 38.238,42.392 44.639,35.882 C55.695,24.639 60.838,12.253 56.348,7.687 C55.249,6.567 53.7,6 51.748,6 L51.748,6 Z M20.731,36.954 C20.74,35.689 21.041,34.064 21.899,32.067 L32.36,42.706 C30.397,43.582 28.801,43.891 27.558,43.902 L20.731,36.954 L20.731,36.954 Z M24.288,53.298 C21.802,55.821 17.391,55.988 7.238,55.999 C8.219,54.366 8.39,52.406 8.568,50.365 C8.843,47.207 9.128,43.941 12.226,40.79 C14.824,38.148 20.005,39.134 20.056,39.143 C20.064,39.144 20.07,39.142 20.078,39.143 L25.137,44.291 C25.154,44.389 25.171,44.487 25.219,44.579 C25.326,44.787 27.812,49.715 24.288,53.298 L24.288,53.298 Z M43.214,34.479 C39.696,38.056 36.719,40.33 34.228,41.752 L22.836,30.167 C24.235,27.625 26.474,24.587 30.004,20.997 C37.648,13.224 46.386,8 51.748,8 C53.144,8 54.213,8.366 54.923,9.089 C58.124,12.345 54.183,23.324 43.214,34.479 L43.214,34.479 Z" id="Shape" fill="#000000"></path>
        <path d="M47.208,11.059 C47.023,11.135 42.609,12.971 36.975,17.667 C31.4,22.314 27.12,27.153 27.077,27.201 C26.712,27.615 26.752,28.247 27.166,28.612 C27.356,28.78 27.592,28.862 27.827,28.862 C28.104,28.862 28.38,28.748 28.578,28.523 C28.62,28.476 32.798,23.752 38.256,19.203 C43.633,14.721 47.925,12.927 47.967,12.909 C48.477,12.699 48.721,12.115 48.512,11.604 C48.301,11.094 47.717,10.85 47.208,11.059 L47.208,11.059 Z" id="Shape" fill="#000000"></path>
    </g>
</svg>