<?xml version="1.0" encoding="UTF-8" standalone="no"?>
<svg width="64px" height="64px" viewBox="0 0 64 64" version="1.1" xmlns="http://www.w3.org/2000/svg" xmlns:xlink="http://www.w3.org/1999/xlink">
    <!-- Generator: Sketch 3.7.2 (28276) - http://www.bohemiancoding.com/sketch -->
    <title>des-technical-pen-fat</title>
    <desc>Created with Sketch.</desc>
    <defs></defs>
    <g id="64px-Line" stroke="none" stroke-width="1" fill="none" fill-rule="evenodd">
        <g id="des-technical-pen-fat"></g>
        <path d="M43.998,5.912 C43.997,5.911 43.997,5.91 43.996,5.909 L43.281,5.19 C42.519,4.422 41.506,4 40.428,4 L40.427,4 C39.349,4 38.336,4.423 37.575,5.19 L22.146,20.746 C21.757,21.138 21.759,21.771 22.152,22.16 C22.347,22.353 22.601,22.45 22.856,22.45 C23.113,22.45 23.371,22.351 23.566,22.154 L38.995,6.598 C39.378,6.212 39.887,5.999 40.427,5.999 L40.428,5.999 C40.969,5.999 41.478,6.212 41.861,6.599 L41.877,6.615 L26.014,22.607 C26.011,22.61 26.006,22.611 26.002,22.615 C25.998,22.619 25.997,22.624 25.994,22.628 L7.433,41.34 C7.045,41.731 7.046,42.361 7.435,42.75 L9.163,44.483 L5.577,48.097 C5.189,48.488 5.19,49.118 5.579,49.507 L9.304,53.242 L4.291,58.295 C3.902,58.687 3.904,59.32 4.297,59.709 C4.491,59.902 4.746,59.999 5.001,59.999 C5.258,59.999 5.516,59.9 5.711,59.703 L10.717,54.658 L14.436,58.387 C14.624,58.575 14.878,58.681 15.144,58.681 L15.145,58.681 C15.412,58.681 15.666,58.575 15.854,58.385 L19.43,54.781 L21.151,56.507 C21.339,56.695 21.593,56.801 21.859,56.801 L21.86,56.801 C22.127,56.801 22.381,56.695 22.569,56.505 L57.712,21.076 C58.1,20.685 58.099,20.055 57.71,19.666 L43.998,5.912 L43.998,5.912 Z M15.141,56.264 L7.697,48.8 L10.575,45.9 L18.017,53.365 L15.141,56.264 L15.141,56.264 Z M21.855,54.384 L20.139,52.663 C20.136,52.66 20.135,52.656 20.132,52.653 C20.129,52.65 20.125,52.65 20.122,52.647 L9.552,42.043 L26.711,24.744 L39.014,37.086 L21.855,54.384 L21.855,54.384 Z M40.423,35.665 L28.12,23.324 L43.288,8.032 L55.59,20.375 L40.423,35.665 L40.423,35.665 Z" id="Shape" fill="#000000"></path>
        <path d="M26.707,29.293 C26.316,28.902 25.684,28.902 25.293,29.293 L14.293,40.293 C13.902,40.684 13.902,41.316 14.293,41.707 C14.488,41.902 14.744,42 15,42 C15.256,42 15.512,41.902 15.707,41.707 L26.707,30.707 C27.098,30.316 27.098,29.684 26.707,29.293 L26.707,29.293 Z" id="Shape" fill="#000000"></path>
        <path d="M42.293,12.293 L32.293,22.293 C31.902,22.684 31.902,23.316 32.293,23.707 C32.488,23.902 32.744,24 33,24 C33.256,24 33.512,23.902 33.707,23.707 L43.707,13.707 C44.098,13.316 44.098,12.684 43.707,12.293 C43.316,11.902 42.684,11.902 42.293,12.293 L42.293,12.293 Z" id="Shape" fill="#000000"></path>
    </g>
</svg>