<?xml version="1.0" encoding="UTF-8" standalone="no"?>
<svg width="64px" height="64px" viewBox="0 0 64 64" version="1.1" xmlns="http://www.w3.org/2000/svg" xmlns:xlink="http://www.w3.org/1999/xlink">
    <!-- Generator: Sketch 3.7.2 (28276) - http://www.bohemiancoding.com/sketch -->
    <title>doc-notepad</title>
    <desc>Created with Sketch.</desc>
    <defs></defs>
    <g id="64px-Line" stroke="none" stroke-width="1" fill="none" fill-rule="evenodd">
        <g id="doc-notepad"></g>
        <path d="M14,60 L48,60 C50.206,60 52,58.206 52,56 L52,12 C52,9.794 50.206,8 48,8 L44,8 L44,5 C44,4.448 43.553,4 43,4 C42.447,4 42,4.448 42,5 L42,8 L38,8 L38,5 C38,4.448 37.553,4 37,4 C36.447,4 36,4.448 36,5 L36,8 L32,8 L32,5 C32,4.448 31.553,4 31,4 C30.447,4 30,4.448 30,5 L30,8 L26,8 L26,5 C26,4.448 25.553,4 25,4 C24.447,4 24,4.448 24,5 L24,8 L20,8 L20,5 C20,4.448 19.553,4 19,4 C18.447,4 18,4.448 18,5 L18,8 L14,8 C11.794,8 10,9.794 10,12 L10,56 C10,58.206 11.794,60 14,60 L14,60 Z M12,12 C12,10.897 12.897,10 14,10 L18,10 L18,13 C18,13.552 18.447,14 19,14 C19.553,14 20,13.552 20,13 L20,10 L24,10 L24,13 C24,13.552 24.447,14 25,14 C25.553,14 26,13.552 26,13 L26,10 L30,10 L30,13 C30,13.552 30.447,14 31,14 C31.553,14 32,13.552 32,13 L32,10 L36,10 L36,13 C36,13.552 36.447,14 37,14 C37.553,14 38,13.552 38,13 L38,10 L42,10 L42,13 C42,13.552 42.447,14 43,14 C43.553,14 44,13.552 44,13 L44,10 L48,10 C49.103,10 50,10.897 50,12 L50,56 C50,57.103 49.103,58 48,58 L14,58 C12.897,58 12,57.103 12,56 L12,12 L12,12 Z" id="Shape" fill="#000000"></path>
        <path d="M17,48 L39,48 C39.553,48 40,47.552 40,47 C40,46.448 39.553,46 39,46 L17,46 C16.447,46 16,46.448 16,47 C16,47.552 16.447,48 17,48 L17,48 Z" id="Shape" fill="#000000"></path>
        <path d="M17,24 L45,24 C45.553,24 46,23.552 46,23 C46,22.448 45.553,22 45,22 L17,22 C16.447,22 16,22.448 16,23 C16,23.552 16.447,24 17,24 L17,24 Z" id="Shape" fill="#000000"></path>
        <path d="M17,30 L45,30 C45.553,30 46,29.552 46,29 C46,28.448 45.553,28 45,28 L17,28 C16.447,28 16,28.448 16,29 C16,29.552 16.447,30 17,30 L17,30 Z" id="Shape" fill="#000000"></path>
        <path d="M17,36 L45,36 C45.553,36 46,35.552 46,35 C46,34.448 45.553,34 45,34 L17,34 C16.447,34 16,34.448 16,35 C16,35.552 16.447,36 17,36 L17,36 Z" id="Shape" fill="#000000"></path>
        <path d="M17,42 L45,42 C45.553,42 46,41.552 46,41 C46,40.448 45.553,40 45,40 L17,40 C16.447,40 16,40.448 16,41 C16,41.552 16.447,42 17,42 L17,42 Z" id="Shape" fill="#000000"></path>
    </g>
</svg>