<?xml version="1.0" encoding="UTF-8" standalone="no"?>
<svg width="64px" height="64px" viewBox="0 0 64 64" version="1.1" xmlns="http://www.w3.org/2000/svg" xmlns:xlink="http://www.w3.org/1999/xlink">
    <!-- Generator: Sketch 3.7.2 (28276) - http://www.bohemiancoding.com/sketch -->
    <title>doc-book</title>
    <desc>Created with Sketch.</desc>
    <defs></defs>
    <g id="64px-Line" stroke="none" stroke-width="1" fill="none" fill-rule="evenodd">
        <g id="doc-book"></g>
        <path d="M12,60 L51,60 C51.553,60 52,59.552 52,59 L52,11 C52,10.448 51.553,10 51,10 L10,10 C10,8.897 10.897,8 12,8 L54,8 L54,55 C54,55.552 54.447,56 55,56 C55.553,56 56,55.552 56,55 L56,7 C56,6.448 55.553,6 55,6 L12,6 C9.794,6 8,7.794 8,10 L8,56 C8,58.206 9.794,60 12,60 L12,60 Z M10,12 L50,12 L50,58 L12,58 C10.897,58 10,57.103 10,56 L10,12 L10,12 Z" id="Shape" fill="#000000"></path>
        <path d="M17,26.002 L43,26.002 C43.553,26.002 44,25.554 44,25.002 C44,24.45 43.553,24.002 43,24.002 L17,24.002 C16.447,24.002 16,24.45 16,25.002 C16,25.554 16.447,26.002 17,26.002 L17,26.002 Z" id="Shape" fill="#000000"></path>
        <path d="M37,28.002 L23,28.002 C22.447,28.002 22,28.45 22,29.002 C22,29.554 22.447,30.002 23,30.002 L37,30.002 C37.553,30.002 38,29.554 38,29.002 C38,28.45 37.553,28.002 37,28.002 L37,28.002 Z" id="Shape" fill="#000000"></path>
    </g>
</svg>