<?xml version="1.0" encoding="UTF-8" standalone="no"?>
<svg width="64px" height="64px" viewBox="0 0 64 64" version="1.1" xmlns="http://www.w3.org/2000/svg" xmlns:xlink="http://www.w3.org/1999/xlink">
    <!-- Generator: Sketch 3.7.2 (28276) - http://www.bohemiancoding.com/sketch -->
    <title>doc-filing</title>
    <desc>Created with Sketch.</desc>
    <defs></defs>
    <g id="64px-Line" stroke="none" stroke-width="1" fill="none" fill-rule="evenodd">
        <g id="doc-filing"></g>
        <path d="M59.859,28.519 C59.829,28.466 59.808,28.408 59.768,28.36 L49.768,16.36 C49.578,16.132 49.297,16 49,16 L13,16 C12.703,16 12.422,16.132 12.232,16.36 L2.232,28.36 C2.192,28.408 2.171,28.465 2.141,28.519 C2.119,28.559 2.091,28.593 2.074,28.636 C2.028,28.751 2,28.874 2,29 L2,49 C2,49.553 2.448,50 3,50 L59,50 C59.552,50 60,49.553 60,49 L60,29 C60,28.874 59.972,28.751 59.926,28.635 C59.909,28.593 59.882,28.558 59.859,28.519 L59.859,28.519 Z M13.468,18 L48.531,18 L56.864,28 L39,28 C38.448,28 38,28.448 38,29 C38,32.86 34.86,36 31,36 C27.14,36 24,32.86 24,29 C24,28.448 23.552,28 23,28 L5.135,28 L13.468,18 L13.468,18 Z M4,48 L4,30 L22.055,30 C22.554,34.494 26.375,38 31,38 C35.625,38 39.446,34.494 39.945,30 L58,30 L58,48 L4,48 L4,48 Z" id="Shape" fill="#000000"></path>
    </g>
</svg>