<?xml version="1.0" encoding="UTF-8" standalone="no"?>
<svg width="64px" height="64px" viewBox="0 0 64 64" version="1.1" xmlns="http://www.w3.org/2000/svg" xmlns:xlink="http://www.w3.org/1999/xlink">
    <!-- Generator: Sketch 3.7.2 (28276) - http://www.bohemiancoding.com/sketch -->
    <title>doc-layers</title>
    <desc>Created with Sketch.</desc>
    <defs></defs>
    <g id="64px-Line" stroke="none" stroke-width="1" fill="none" fill-rule="evenodd">
        <g id="doc-layers"></g>
        <path d="M9,60 L37,60 C37.553,60 38,59.553 38,59 L38,23 C38,22.448 37.553,22 37,22 L9,22 C8.447,22 8,22.448 8,23 L8,59 C8,59.553 8.447,60 9,60 L9,60 Z M10,24 L36,24 L36,58 L10,58 L10,24 L10,24 Z" id="Shape" fill="#000000"></path>
        <path d="M41,50 C40.447,50 40,50.447 40,51 C40,51.553 40.447,52 41,52 L45,52 C45.553,52 46,51.553 46,51 L46,15 C46,14.448 45.553,14 45,14 L17,14 C16.447,14 16,14.448 16,15 L16,18.999 C16,19.551 16.447,19.999 17,19.999 C17.553,19.999 18,19.551 18,18.999 L18,16 L44,16 L44,50 L41,50 L41,50 Z" id="Shape" fill="#000000"></path>
        <path d="M24,7 L24,10.999 C24,11.551 24.447,11.999 25,11.999 C25.553,11.999 26,11.551 26,10.999 L26,8 L52,8 L52,42 L49,42 C48.447,42 48,42.447 48,43 C48,43.553 48.447,44 49,44 L53,44 C53.553,44 54,43.553 54,43 L54,7 C54,6.448 53.553,6 53,6 L25,6 C24.447,6 24,6.448 24,7 L24,7 Z" id="Shape" fill="#000000"></path>
    </g>
</svg>