<?xml version="1.0" encoding="UTF-8" standalone="no"?>
<svg width="64px" height="64px" viewBox="0 0 64 64" version="1.1" xmlns="http://www.w3.org/2000/svg" xmlns:xlink="http://www.w3.org/1999/xlink">
    <!-- Generator: Sketch 3.7.2 (28276) - http://www.bohemiancoding.com/sketch -->
    <title>doc-scroll</title>
    <desc>Created with Sketch.</desc>
    <defs></defs>
    <g id="64px-Line" stroke="none" stroke-width="1" fill="none" fill-rule="evenodd">
        <g id="doc-scroll"></g>
        <path d="M54,6 L14,6 C11.794,6 10,7.794 10,10 L10,52 L7,52 C6.448,52 6,52.447 6,53 L6,56 C6,58.206 7.794,60 10,60 L48,60 C50.206,60 52,58.206 52,56 L52,14 L57,14 C57.552,14 58,13.552 58,13 L58,10 C58,7.794 56.206,6 54,6 L54,6 Z M10,58 C8.897,58 8,57.103 8,56 L8,54 L44,54 L44,56 C44,56.728 44.195,57.411 44.537,58 L10,58 L10,58 Z M50,56 C50,57.103 49.103,58 48,58 C46.897,58 46,57.103 46,56 L46,53 C46,52.447 45.552,52 45,52 L12,52 L12,10 C12,8.897 12.897,8 14,8 L50.556,8 C50.211,8.591 50,9.268 50,10 L50,56 L50,56 Z M56,12 L52,12 L52,10 C52,8.897 52.897,8 54,8 C55.103,8 56,8.897 56,10 L56,12 L56,12 Z" id="Shape" fill="#000000"></path>
        <path d="M43,18 L19,18 C18.448,18 18,18.448 18,19 C18,19.552 18.448,20 19,20 L43,20 C43.552,20 44,19.552 44,19 C44,18.448 43.552,18 43,18 L43,18 Z" id="Shape" fill="#000000"></path>
        <path d="M43,24 L19,24 C18.448,24 18,24.448 18,25 C18,25.552 18.448,26 19,26 L43,26 C43.552,26 44,25.552 44,25 C44,24.448 43.552,24 43,24 L43,24 Z" id="Shape" fill="#000000"></path>
        <path d="M43,30 L19,30 C18.448,30 18,30.448 18,31 C18,31.552 18.448,32 19,32 L43,32 C43.552,32 44,31.552 44,31 C44,30.448 43.552,30 43,30 L43,30 Z" id="Shape" fill="#000000"></path>
        <path d="M43,36 L19,36 C18.448,36 18,36.447 18,37 C18,37.553 18.448,38 19,38 L43,38 C43.552,38 44,37.553 44,37 C44,36.447 43.552,36 43,36 L43,36 Z" id="Shape" fill="#000000"></path>
        <path d="M35,42 L19,42 C18.448,42 18,42.447 18,43 C18,43.553 18.448,44 19,44 L35,44 C35.552,44 36,43.553 36,43 C36,42.447 35.552,42 35,42 L35,42 Z" id="Shape" fill="#000000"></path>
    </g>
</svg>