<?xml version="1.0" encoding="UTF-8" standalone="no"?>
<svg width="64px" height="64px" viewBox="0 0 64 64" version="1.1" xmlns="http://www.w3.org/2000/svg" xmlns:xlink="http://www.w3.org/1999/xlink">
    <!-- Generator: Sketch 3.7.2 (28276) - http://www.bohemiancoding.com/sketch -->
    <title>doc-filing-2</title>
    <desc>Created with Sketch.</desc>
    <defs></defs>
    <g id="64px-Line" stroke="none" stroke-width="1" fill="none" fill-rule="evenodd">
        <g id="doc-filing-2"></g>
        <path d="M57.859,18.519 C57.829,18.466 57.808,18.408 57.768,18.36 L47.768,6.36 C47.578,6.132 47.297,6 47,6 L15,6 C14.703,6 14.422,6.132 14.232,6.36 L4.232,18.36 C4.192,18.408 4.171,18.465 4.141,18.519 C4.119,18.559 4.091,18.593 4.074,18.636 C4.028,18.751 4,18.874 4,19 L4,55 C4,55.553 4.448,56 5,56 L57,56 C57.552,56 58,55.553 58,55 L58,19 C58,18.874 57.972,18.751 57.926,18.635 C57.909,18.593 57.882,18.558 57.859,18.519 L57.859,18.519 Z M39,36 L23,36 L6,36 L6,20 L22.055,20 C22.554,24.494 26.375,28 31,28 C35.625,28 39.446,24.494 39.945,20 L56,20 L56,36 L39,36 L39,36 Z M37.92,38 C37.432,41.386 34.519,44 31,44 C27.481,44 24.568,41.386 24.08,38 L37.92,38 L37.92,38 Z M15.468,8 L46.531,8 L54.864,18 L39,18 C38.448,18 38,18.448 38,19 C38,22.86 34.86,26 31,26 C27.14,26 24,22.86 24,19 C24,18.448 23.552,18 23,18 L7.135,18 L15.468,8 L15.468,8 Z M6,54 L6,38 L22.055,38 C22.554,42.494 26.375,46 31,46 C35.625,46 39.446,42.494 39.945,38 L56,38 L56,54 L6,54 L6,54 Z" id="Shape" fill="#000000"></path>
    </g>
</svg>