<?xml version="1.0" encoding="UTF-8" standalone="no"?>
<svg width="64px" height="64px" viewBox="0 0 64 64" version="1.1" xmlns="http://www.w3.org/2000/svg" xmlns:xlink="http://www.w3.org/1999/xlink">
    <!-- Generator: Sketch 3.7.2 (28276) - http://www.bohemiancoding.com/sketch -->
    <title>doc-box</title>
    <desc>Created with Sketch.</desc>
    <defs></defs>
    <g id="64px-Line" stroke="none" stroke-width="1" fill="none" fill-rule="evenodd">
        <g id="doc-box"></g>
        <path d="M29,40 L17,40 C16.447,40 16,40.447 16,41 C16,41.553 16.447,42 17,42 L29,42 C29.553,42 30,41.553 30,41 C30,40.447 29.553,40 29,40 L29,40 Z" id="Shape" fill="#000000"></path>
        <path d="M57.884,14.555 C57.846,14.479 57.8,14.411 57.744,14.347 C57.721,14.321 57.701,14.295 57.675,14.271 C57.598,14.199 57.511,14.138 57.412,14.094 C57.402,14.09 57.395,14.082 57.385,14.078 C57.384,14.078 57.383,14.077 57.383,14.077 C57.27,14.03 57.153,14.012 57.036,14.008 C57.023,14.008 57.013,14.001 57,14.001 L50,14.001 L50,7.001 C50,6.448 49.553,6.001 49,6.001 L23,6.001 C22.447,6.001 22,6.448 22,7.001 C22,7.554 22.447,8.001 23,8.001 L48,8.001 L48,22.587 L46,24.587 L46,11 C46,10.447 45.553,10 45,10 L19,10 C18.447,10 18,10.447 18,11 C18,11.553 18.447,12 19,12 L44,12 L44,26.586 L42,28.586 L42,15 C42,14.447 41.553,14 41,14 L15,14 C14.447,14 14,14.447 14,15 L14,24.586 L6.294,32.292 C6.201,32.384 6.128,32.495 6.077,32.618 C6.026,32.74 6,32.87 6,33 L6,57 C6,57.553 6.447,58 7,58 L39,58 C39.134,58 39.264,57.973 39.385,57.922 C39.507,57.871 39.617,57.797 39.708,57.705 L57.707,39.706 C57.895,39.52 58,39.266 58,39 L58,15 C58,14.877 57.971,14.761 57.93,14.651 C57.917,14.617 57.901,14.587 57.884,14.555 L57.884,14.555 Z M50,16 L54.586,16 L50,20.586 L50,16 L50,16 Z M16,16 L40,16 L40,30.586 L38.586,32 L16,32 L16,16 L16,16 Z M14,32 L9.414,32 L14,27.414 L14,32 L14,32 Z M8,34 L38,34 L38,56 L8,56 L8,34 L8,34 Z M56,38.586 L40,54.586 L40,33.414 L41.706,31.708 C41.707,31.707 41.708,31.706 41.709,31.705 L45.706,27.708 C45.707,27.707 45.708,27.706 45.709,27.705 L49.706,23.708 C49.707,23.707 49.708,23.706 49.709,23.705 L56.001,17.413 L56.001,38.586 L56,38.586 Z" id="Shape" fill="#000000"></path>
    </g>
</svg>