<?xml version="1.0" encoding="UTF-8" standalone="no"?>
<svg width="64px" height="64px" viewBox="0 0 64 64" version="1.1" xmlns="http://www.w3.org/2000/svg" xmlns:xlink="http://www.w3.org/1999/xlink">
    <!-- Generator: Sketch 3.7.2 (28276) - http://www.bohemiancoding.com/sketch -->
    <title>doc-documents</title>
    <desc>Created with Sketch.</desc>
    <defs></defs>
    <g id="64px-Line" stroke="none" stroke-width="1" fill="none" fill-rule="evenodd">
        <g id="doc-documents"></g>
        <path d="M12,60 L38,60 C40.206,60 42,58.206 42,56 L42,26 C42,25.735 41.895,25.48 41.707,25.293 L32.707,16.293 C32.52,16.105 32.265,16 32,16 L12,16 C9.794,16 8,17.794 8,20 L8,56 C8,58.206 9.794,60 12,60 L12,60 Z M39.586,26 L34,26 C32.897,26 32,25.103 32,24 L32,18.414 L39.586,26 L39.586,26 Z M10,20 C10,18.897 10.897,18 12,18 L30,18 L30,24 C30,26.206 31.794,28 34,28 L40,28 L40,56 C40,57.103 39.103,58 38,58 L12,58 C10.897,58 10,57.103 10,56 L10,20 L10,20 Z" id="Shape" fill="#000000"></path>
        <path d="M23,14 C23.552,14 24,13.552 24,13 L24,10 C24,8.897 24.897,8 26,8 L44,8 L44,14 C44,16.206 45.794,18 48,18 L54,18 L54,46 C54,47.103 53.103,48 52,48 L45,48 C44.448,48 44,48.448 44,49 C44,49.552 44.448,50 45,50 L52,50 C54.206,50 56,48.206 56,46 L56,16 C56,15.735 55.895,15.48 55.707,15.293 L46.707,6.293 C46.52,6.105 46.265,6 46,6 L26,6 C23.794,6 22,7.794 22,10 L22,13 C22,13.552 22.448,14 23,14 L23,14 Z M53.586,16 L48,16 C46.897,16 46,15.103 46,14 L46,8.414 L53.586,16 L53.586,16 Z" id="Shape" fill="#000000"></path>
    </g>
</svg>