<?xml version="1.0" encoding="UTF-8" standalone="no"?>
<svg width="64px" height="64px" viewBox="0 0 64 64" version="1.1" xmlns="http://www.w3.org/2000/svg" xmlns:xlink="http://www.w3.org/1999/xlink">
    <!-- Generator: Sketch 3.7.2 (28276) - http://www.bohemiancoding.com/sketch -->
    <title>doc-pen-sign</title>
    <desc>Created with Sketch.</desc>
    <defs></defs>
    <g id="64px-Line" stroke="none" stroke-width="1" fill="none" fill-rule="evenodd">
        <g id="doc-pen-sign"></g>
        <path d="M18.885,54.762 C18.885,51.329 20.108,48.938 20.874,47.776 C21.049,47.907 21.252,47.991 21.465,47.991 C21.609,47.991 21.754,47.96 21.89,47.896 C27.036,45.483 34.547,39.725 41.494,32.869 C41.497,32.866 41.5,32.863 41.504,32.859 L41.504,32.859 L41.504,32.859 C51.217,23.272 58,13.656 58,9.471 C58,8.612 57.746,7.924 57.243,7.428 C53.04,3.278 34.163,9.038 27.921,15.199 C27.155,15.954 26.733,16.959 26.733,18.029 C26.733,19.099 27.154,20.105 27.921,20.861 C28.706,21.636 29.738,22.023 30.771,22.023 C31.802,22.023 32.834,21.636 33.621,20.861 L33.622,20.861 C34.387,20.105 34.809,19.099 34.809,18.029 C34.808,16.959 34.387,15.954 33.621,15.199 C33.224,14.807 32.763,14.516 32.271,14.322 C37.466,10.969 45.446,8.475 50.756,8.043 C44.984,10.829 37.048,17.494 31.5,22.969 C31.497,22.972 31.494,22.975 31.49,22.979 L31.49,22.979 L31.49,22.979 C24.544,29.834 18.712,37.244 16.267,42.32 C16.106,42.654 16.156,43.04 16.369,43.334 C15.181,44.092 12.759,45.286 9.294,45.286 C8.773,45.286 8.338,45.687 8.297,46.208 C8.29,46.296 7.567,55.062 4.297,58.289 C4.099,58.484 3.999,58.742 3.999,59 C3.999,59.254 4.095,59.509 4.287,59.703 C4.484,59.9 4.742,60 5,60 C5.254,60 5.508,59.904 5.702,59.712 C8.977,56.48 17.871,55.766 17.961,55.759 C18.481,55.719 18.885,55.284 18.885,54.762 L18.885,54.762 Z M40.785,30.746 L33.634,23.689 C45.938,11.722 54.607,7.638 55.839,8.852 C55.98,8.991 56,9.299 56,9.471 C56,12.442 50.665,20.852 40.785,30.746 L40.785,30.746 Z M32.215,19.437 C31.418,20.225 30.122,20.222 29.325,19.437 C28.943,19.06 28.733,18.56 28.733,18.029 C28.733,17.499 28.943,17 29.326,16.623 C29.723,16.229 30.247,16.033 30.77,16.033 C31.293,16.033 31.817,16.229 32.215,16.623 C32.596,16.999 32.806,17.499 32.807,18.029 C32.808,18.56 32.597,19.06 32.215,19.437 L32.215,19.437 Z M32.207,25.09 L39.363,32.152 C33.057,38.271 26.411,43.391 21.663,45.782 L21.44,45.562 L21.44,45.562 L21.44,45.562 L18.388,42.551 C20.817,37.865 26.007,31.309 32.207,25.09 L32.207,25.09 Z M8.081,55.952 C9.44,52.745 10.004,48.964 10.201,47.262 C14.023,47.059 16.606,45.619 17.803,44.784 L19.409,46.369 C18.56,47.56 17.116,50.103 16.909,53.853 C15.188,54.047 11.338,54.604 8.081,55.952 L8.081,55.952 Z" id="Shape" fill="#000000"></path>
        <path d="M53,58 L46,58 C45.52,58 45.065,57.901 44.646,57.732 C45.497,56.712 46,55.482 46,54.333 C46,51.135 44.384,50 43,50 C41.555,50 40,51.355 40,54.333 C40,55.484 40.506,56.719 41.36,57.74 C40.941,57.904 40.484,58 40,58 L38,58 C37.342,58 36.666,57.867 36.017,57.62 C37.288,56.239 38,54.314 38,52 C38,46.585 35.203,46 34,46 C31.57,46 30,48.355 30,52 C30,54.278 30.984,56.223 32.429,57.624 C31.713,57.871 30.899,58 30,58 L15,58 C14.447,58 14,58.447 14,59 C14,59.553 14.447,60 15,60 L30,60 C31.636,60 33.076,59.645 34.269,58.987 C35.447,59.64 36.747,60 38,60 L40,60 C41.103,60 42.124,59.676 43,59.148 C43.876,59.675 44.897,60 46,60 L53,60 C53.553,60 54,59.553 54,59 C54,58.447 53.553,58 53,58 L53,58 Z M34.229,56.58 C32.928,55.516 32,53.915 32,52 C32,50.154 32.523,48 34,48 C35.74,48 36,50.506 36,52 C36,53.985 35.374,55.548 34.229,56.58 L34.229,56.58 Z M43.013,56.566 C42.377,55.856 42,55.008 42,54.333 C42,52.724 42.585,52 43,52 C43.598,52 44,52.938 44,54.333 C44,55.021 43.636,55.862 43.013,56.566 L43.013,56.566 Z" id="Shape" fill="#000000"></path>
    </g>
</svg>