<?xml version="1.0" encoding="UTF-8" standalone="no"?>
<svg width="64px" height="64px" viewBox="0 0 64 64" version="1.1" xmlns="http://www.w3.org/2000/svg" xmlns:xlink="http://www.w3.org/1999/xlink">
    <!-- Generator: Sketch 3.7.2 (28276) - http://www.bohemiancoding.com/sketch -->
    <title>doc-cut-2</title>
    <desc>Created with Sketch.</desc>
    <defs></defs>
    <g id="64px-Line" stroke="none" stroke-width="1" fill="none" fill-rule="evenodd">
        <g id="doc-cut-2"></g>
        <path d="M43,42 C42.448,42 42,42.447 42,43 L42,56 C42,57.103 41.103,58 40,58 L8,58 C6.897,58 6,57.103 6,56 L6,10 C6,8.897 6.897,8 8,8 L30,8 L30,16 C30,18.206 31.794,20 34,20 L42,20 L42,31 C42,31.553 42.448,32 43,32 C43.552,32 44,31.553 44,31 L44,18 C44,17.734 43.895,17.48 43.707,17.293 L32.707,6.293 C32.52,6.105 32.265,6 32,6 L8,6 C5.794,6 4,7.794 4,10 L4,56 C4,58.206 5.794,60 8,60 L40,60 C42.206,60 44,58.206 44,56 L44,43 C44,42.447 43.552,42 43,42 L43,42 Z M41.586,18 L34,18 C32.897,18 32,17.103 32,16 L32,8.414 L41.586,18 L41.586,18 Z" id="Shape" fill="#000000"></path>
        <polygon id="Shape" fill="#000000" points="47.148 41.848 47.148 41.848 47.148 41.847"></polygon>
        <path d="M47.208,37 L53.814,33.691 C53.976,33.622 54.133,33.533 54.292,33.451 L54.633,33.28 C54.636,33.279 54.638,33.276 54.64,33.274 C54.657,33.264 54.675,33.258 54.692,33.248 C57.532,31.576 58.78,28.369 57.474,26.099 C56.935,25.161 56.01,24.48 54.87,24.178 C53.319,23.767 51.517,24.07 49.929,25.004 C47.09,26.676 45.842,29.882 47.147,32.152 C47.574,32.894 48.248,33.467 49.073,33.827 L44.973,35.881 L31.447,29.105 C30.953,28.86 30.353,29.058 30.105,29.551 C29.857,30.045 30.057,30.646 30.551,30.894 L42.741,37 L30.553,43.105 C30.059,43.353 29.859,43.954 30.107,44.448 C30.282,44.798 30.635,45 31.002,45 C31.152,45 31.305,44.966 31.449,44.895 L44.975,38.119 L49.075,40.173 C48.25,40.533 47.576,41.106 47.149,41.848 C45.844,44.119 47.092,47.325 49.931,48.995 C51.055,49.657 52.284,50.001 53.456,50.001 C53.942,50.001 54.417,49.942 54.872,49.822 C56.012,49.52 56.936,48.839 57.476,47.901 C58.782,45.63 57.534,42.423 54.694,40.753 C54.676,40.743 54.658,40.735 54.641,40.725 C54.639,40.724 54.637,40.721 54.635,40.72 L54.583,40.694 C54.36,40.568 54.134,40.455 53.904,40.354 L47.208,37 L47.208,37 Z M50.263,32.141 C49.825,32.025 49.229,31.76 48.883,31.157 C48.883,31.157 48.883,31.157 48.883,31.156 C48.134,29.855 49.079,27.827 50.945,26.728 C51.753,26.252 52.645,26 53.465,26 C53.777,26 54.078,26.037 54.361,26.111 C54.799,26.227 55.395,26.492 55.742,27.096 C56.488,28.392 55.551,30.41 53.697,31.511 L53.535,31.592 C52.453,32.188 51.243,32.399 50.263,32.141 L50.263,32.141 Z M55.741,46.903 C55.393,47.507 54.798,47.772 54.36,47.888 C53.336,48.157 52.06,47.927 50.944,47.271 C49.077,46.173 48.133,44.145 48.882,42.844 L48.882,42.843 C49.229,42.239 49.824,41.975 50.262,41.859 C50.544,41.785 50.845,41.748 51.158,41.748 C51.757,41.748 52.396,41.886 53.012,42.145 L53.69,42.485 C55.549,43.585 56.488,45.606 55.741,46.903 L55.741,46.903 Z" id="Shape" fill="#000000"></path>
    </g>
</svg>