<?xml version="1.0" encoding="UTF-8" standalone="no"?>
<svg width="64px" height="64px" viewBox="0 0 64 64" version="1.1" xmlns="http://www.w3.org/2000/svg" xmlns:xlink="http://www.w3.org/1999/xlink">
    <!-- Generator: Sketch 3.7.2 (28276) - http://www.bohemiancoding.com/sketch -->
    <title>doc-note</title>
    <desc>Created with Sketch.</desc>
    <defs></defs>
    <g id="64px-Line" stroke="none" stroke-width="1" fill="none" fill-rule="evenodd">
        <g id="doc-note"></g>
        <path d="M34,42.333 C34,43.484 34.506,44.719 35.36,45.74 C34.941,45.904 34.484,46 34,46 L32,46 C31.342,46 30.667,45.867 30.017,45.62 C31.288,44.239 32,42.314 32,40 C32,34.585 29.203,34 28,34 C25.57,34 24,36.355 24,40 C24,42.278 24.984,44.223 26.429,45.624 C25.713,45.871 24.9,46 24,46 L21,46 C20.448,46 20,46.447 20,47 C20,47.553 20.448,48 21,48 L24,48 C25.636,48 27.077,47.645 28.269,46.987 C29.447,47.64 30.748,48 32,48 L34,48 C35.102,48 36.124,47.676 37,47.148 C37.876,47.675 38.898,48 40,48 L43,48 C43.552,48 44,47.553 44,47 C44,46.447 43.552,46 43,46 L40,46 C39.52,46 39.065,45.901 38.646,45.732 C39.497,44.712 40,43.482 40,42.333 C40,39.135 38.384,38 37,38 C35.555,38 34,39.355 34,42.333 L34,42.333 Z M28.228,44.58 C26.927,43.516 26,41.915 26,40 C26,38.154 26.524,36 28,36 C29.74,36 30,38.506 30,40 C30,41.985 29.374,43.548 28.228,44.58 L28.228,44.58 Z M38,42.333 C38,43.021 37.636,43.862 37.013,44.566 C36.377,43.856 36,43.008 36,42.333 C36,40.724 36.585,40 37,40 C37.598,40 38,40.938 38,42.333 L38,42.333 Z" id="Shape" fill="#000000"></path>
        <path d="M51,20 L36.867,20 L38.101,17.687 C38.699,17.887 39.336,18 40.001,18 C43.31,18 46.001,15.309 46.001,12 C46.001,8.691 43.31,6 40.001,6 C36.692,6 34.001,8.691 34.001,12 C34.001,13.929 34.92,15.644 36.339,16.742 L34.6,20 L13,20 C12.448,20 12,20.447 12,21 L12,59 C12,59.553 12.448,60 13,60 L51,60 C51.552,60 52,59.553 52,59 L52,21 C52,20.447 51.552,20 51,20 L51,20 Z M40,8 C42.206,8 44,9.794 44,12 C44,14.206 42.206,16 40,16 C37.794,16 36,14.206 36,12 C36,9.794 37.794,8 40,8 L40,8 Z M50,58 L14,58 L14,22 L33.533,22 L31.117,26.529 C30.857,27.016 31.041,27.622 31.529,27.883 C31.679,27.962 31.84,28 31.999,28 C32.356,28 32.703,27.808 32.882,27.471 L35.8,22 L50,22 L50,58 L50,58 Z" id="Shape" fill="#000000"></path>
    </g>
</svg>