<?xml version="1.0" encoding="UTF-8" standalone="no"?>
<svg width="64px" height="64px" viewBox="0 0 64 64" version="1.1" xmlns="http://www.w3.org/2000/svg" xmlns:xlink="http://www.w3.org/1999/xlink">
    <!-- Generator: Sketch 3.7.2 (28276) - http://www.bohemiancoding.com/sketch -->
    <title>doc-contract</title>
    <desc>Created with Sketch.</desc>
    <defs></defs>
    <g id="64px-Line" stroke="none" stroke-width="1" fill="none" fill-rule="evenodd">
        <g id="doc-contract"></g>
        <path d="M30.707,6.293 C30.52,6.105 30.266,6 30,6 L8,6 C5.794,6 4,7.794 4,10 L4,56 C4,58.206 5.794,60 8,60 L38,60 C40.206,60 42,58.206 42,56 L42,18 C42,17.734 41.895,17.48 41.707,17.293 L30.707,6.293 L30.707,6.293 Z M39.586,18 L32,18 C30.897,18 30,17.103 30,16 L30,8.414 L39.586,18 L39.586,18 Z M38,58 L8,58 C6.897,58 6,57.103 6,56 L6,10 C6,8.897 6.897,8 8,8 L28,8 L28,16 C28,18.206 29.794,20 32,20 L40,20 L40,56 C40,57.103 39.103,58 38,58 L38,58 Z" id="Shape" fill="#000000"></path>
        <path d="M11,22 L23,22 C23.553,22 24,21.553 24,21 C24,20.447 23.553,20 23,20 L11,20 C10.447,20 10,20.447 10,21 C10,21.553 10.447,22 11,22 L11,22 Z" id="Shape" fill="#000000"></path>
        <path d="M35,26 L11,26 C10.447,26 10,26.447 10,27 C10,27.553 10.447,28 11,28 L35,28 C35.553,28 36,27.553 36,27 C36,26.447 35.553,26 35,26 L35,26 Z" id="Shape" fill="#000000"></path>
        <path d="M35,32 L11,32 C10.447,32 10,32.447 10,33 C10,33.553 10.447,34 11,34 L35,34 C35.553,34 36,33.553 36,33 C36,32.447 35.553,32 35,32 L35,32 Z" id="Shape" fill="#000000"></path>
        <path d="M35,38 L11,38 C10.447,38 10,38.447 10,39 C10,39.553 10.447,40 11,40 L35,40 C35.553,40 36,39.553 36,39 C36,38.447 35.553,38 35,38 L35,38 Z" id="Shape" fill="#000000"></path>
        <path d="M23,44 C22.447,44 22,44.447 22,45 C22,45.552 21.552,46 21,46 C20.448,46 20,45.552 20,45 C20,44.447 19.553,44 19,44 C18.447,44 18,44.447 18,45 C18,45.552 17.552,46 17,46 C16.448,46 16,45.552 16,45 C16,44.447 15.553,44 15,44 C14.447,44 14,44.447 14,45 C14,45.552 13.552,46 13,46 C12.448,46 12,45.552 12,45 C12,44.447 11.553,44 11,44 C10.447,44 10,44.447 10,45 C10,46.654 11.346,48 13,48 C13.768,48 14.469,47.71 15,47.234 C15.531,47.71 16.232,48 17,48 C17.768,48 18.469,47.71 19,47.234 C19.531,47.71 20.232,48 21,48 C22.654,48 24,46.654 24,45 C24,44.447 23.553,44 23,44 L23,44 Z" id="Shape" fill="#000000"></path>
        <path d="M51.388,8.048 C51.252,8.018 51.125,8 51.019,8 L50.995,8 C50.628,8 50.078,8.12 49.515,8.682 C47.428,10.767 45.952,18.465 46.002,26.99 C46.002,26.994 46,26.996 46,27 C46,27.004 46.002,27.006 46.002,27.01 C46.041,33.496 46.807,39.896 47.951,43.317 C48.067,43.661 48.36,43.9 48.707,43.969 C48.335,45.143 47.592,46.971 46.287,48.298 C45.931,48.66 45.903,49.231 46.221,49.626 C47.268,50.926 49.986,54.785 50,57.006 C50.004,57.556 50.45,57.999 51,57.999 L51.007,57.999 C51.557,57.995 52,57.549 52,56.999 L52,56.992 C51.986,54.785 54.721,50.929 55.776,49.63 C56.096,49.234 56.07,48.661 55.713,48.298 C54.392,46.954 53.655,45.136 53.288,43.969 C53.637,43.901 53.933,43.662 54.049,43.316 C55.145,40.039 55.892,34.02 55.988,27.81 C56.306,27.925 56.644,27.998 57.001,27.998 C58.655,27.998 60.001,26.652 60.001,24.998 C60,15.644 54.925,8.541 51.388,8.048 L51.388,8.048 Z M54.472,12.951 C55.943,15.101 57.327,18.295 57.812,22.125 C57.552,22.051 57.283,21.999 57,21.999 C56.598,21.999 56.216,22.081 55.865,22.225 C55.642,18.645 55.15,15.416 54.472,12.951 L54.472,12.951 Z M51,10.022 C52.049,10.674 53.919,16.645 53.992,26 L48.009,26 C48.081,16.646 49.951,10.674 51,10.022 L51,10.022 Z M50.991,53.406 C50.15,51.632 48.981,49.96 48.299,49.046 C49.74,47.276 50.472,45.143 50.786,44 L51.211,44 C51.52,45.141 52.244,47.262 53.699,49.044 C53.01,49.959 51.833,51.631 50.991,53.406 L50.991,53.406 Z M52.363,42 L49.637,42 C48.739,38.844 48.113,33.447 48.014,28 L53.979,28 C53.881,33.52 53.273,38.822 52.363,42 L52.363,42 Z M57,26 C56.448,26 56,25.552 56,25 C56,24.448 56.448,24 57,24 C57.552,24 58,24.448 58,25 C58,25.552 57.552,26 57,26 L57,26 Z" id="Shape" fill="#000000"></path>
    </g>
</svg>