<?xml version="1.0" encoding="UTF-8" standalone="no"?>
<svg width="64px" height="64px" viewBox="0 0 64 64" version="1.1" xmlns="http://www.w3.org/2000/svg" xmlns:xlink="http://www.w3.org/1999/xlink">
    <!-- Generator: Sketch 3.7.2 (28276) - http://www.bohemiancoding.com/sketch -->
    <title>doc-filing-3</title>
    <desc>Created with Sketch.</desc>
    <defs></defs>
    <g id="64px-Line" stroke="none" stroke-width="1" fill="none" fill-rule="evenodd">
        <g id="doc-filing-3"></g>
        <path d="M59.86,16.52 C59.83,16.466 59.808,16.408 59.768,16.36 L49.768,4.36 C49.578,4.132 49.296,4 48.999,4 L16.999,4 C16.702,4 16.421,4.132 16.23,4.36 L6.23,16.36 C6.19,16.408 6.168,16.466 6.138,16.52 C6.116,16.559 6.089,16.593 6.072,16.635 C6.028,16.751 6,16.874 6,17 L6,59 C6,59.553 6.447,60 7,60 L59,60 C59.553,60 60,59.553 60,59 L60,17 C60,16.874 59.972,16.751 59.927,16.635 C59.91,16.593 59.882,16.559 59.86,16.52 L59.86,16.52 Z M41,44 L25,44 L8,44 L8,32 L24.056,32 C24.555,36.494 28.375,40 33,40 C37.625,40 41.445,36.494 41.944,32 L58,32 L58,44 L41,44 L41,44 Z M39.92,46 C39.432,49.386 36.519,52 33,52 C29.481,52 26.568,49.386 26.08,46 L39.92,46 L39.92,46 Z M24.056,18 C24.555,22.494 28.375,26 33,26 C37.625,26 41.445,22.494 41.944,18 L58,18 L58,30 L41,30 L25,30 L8,30 L8,18 L24.056,18 L24.056,18 Z M39.92,32 C39.432,35.386 36.519,38 33,38 C29.481,38 26.568,35.386 26.08,32 L39.92,32 L39.92,32 Z M17.469,6 L48.531,6 L56.865,16 L41,16 C40.447,16 40,16.448 40,17 C40,20.86 36.859,24 33,24 C29.141,24 26,20.86 26,17 C26,16.448 25.553,16 25,16 L9.135,16 L17.469,6 L17.469,6 Z M8,58 L8,46 L24.056,46 C24.555,50.494 28.375,54 33,54 C37.625,54 41.445,50.494 41.944,46 L58,46 L58,58 L8,58 L8,58 Z" id="Shape" fill="#000000"></path>
    </g>
</svg>