<?xml version="1.0" encoding="UTF-8" standalone="no"?>
<svg width="64px" height="64px" viewBox="0 0 64 64" version="1.1" xmlns="http://www.w3.org/2000/svg" xmlns:xlink="http://www.w3.org/1999/xlink">
    <!-- Generator: Sketch 3.7.2 (28276) - http://www.bohemiancoding.com/sketch -->
    <title>doc-newspaper</title>
    <desc>Created with Sketch.</desc>
    <defs></defs>
    <g id="64px-Line" stroke="none" stroke-width="1" fill="none" fill-rule="evenodd">
        <g id="doc-newspaper"></g>
        <path d="M57,8 L9,8 C8.448,8 8,8.448 8,9 C8,9.552 8.448,10 9,10 L56,10 L56,52 C56,53.103 55.103,54 54,54 L8,54 C6.897,54 6,53.103 6,52 L6,14 L52,14 L52,47 C52,47.553 52.448,48 53,48 C53.552,48 54,47.553 54,47 L54,13 C54,12.448 53.552,12 53,12 L5,12 C4.448,12 4,12.448 4,13 L4,52 C4,54.206 5.794,56 8,56 L54,56 C56.206,56 58,54.206 58,52 L58,9 C58,8.448 57.552,8 57,8 L57,8 Z" id="Shape" fill="#000000"></path>
        <path d="M48,21 C48,20.448 47.552,20 47,20 L11,20 C10.448,20 10,20.448 10,21 L10,25 C10,25.552 10.448,26 11,26 L47,26 C47.552,26 48,25.552 48,25 L48,21 L48,21 Z M46,24 L12,24 L12,22 L46,22 L46,24 L46,24 Z" id="Shape" fill="#000000"></path>
        <path d="M48,31 C48,30.448 47.552,30 47,30 L31,30 C30.448,30 30,30.448 30,31 L30,39 C30,39.553 30.448,40 31,40 L47,40 C47.552,40 48,39.553 48,39 L48,31 L48,31 Z M46,38 L32,38 L32,32 L46,32 L46,38 L46,38 Z" id="Shape" fill="#000000"></path>
        <path d="M27,30 L11,30 C10.448,30 10,30.448 10,31 C10,31.552 10.448,32 11,32 L27,32 C27.552,32 28,31.552 28,31 C28,30.448 27.552,30 27,30 L27,30 Z" id="Shape" fill="#000000"></path>
        <path d="M27,38 L11,38 C10.448,38 10,38.447 10,39 C10,39.553 10.448,40 11,40 L27,40 C27.552,40 28,39.553 28,39 C28,38.447 27.552,38 27,38 L27,38 Z" id="Shape" fill="#000000"></path>
        <path d="M27,34 L11,34 C10.448,34 10,34.447 10,35 C10,35.553 10.448,36 11,36 L27,36 C27.552,36 28,35.553 28,35 C28,34.447 27.552,34 27,34 L27,34 Z" id="Shape" fill="#000000"></path>
        <path d="M27,42 L11,42 C10.448,42 10,42.447 10,43 C10,43.553 10.448,44 11,44 L27,44 C27.552,44 28,43.553 28,43 C28,42.447 27.552,42 27,42 L27,42 Z" id="Shape" fill="#000000"></path>
        <path d="M27,46 L11,46 C10.448,46 10,46.447 10,47 C10,47.553 10.448,48 11,48 L27,48 C27.552,48 28,47.553 28,47 C28,46.447 27.552,46 27,46 L27,46 Z" id="Shape" fill="#000000"></path>
        <path d="M47,46 L31,46 C30.448,46 30,46.447 30,47 C30,47.553 30.448,48 31,48 L47,48 C47.552,48 48,47.553 48,47 C48,46.447 47.552,46 47,46 L47,46 Z" id="Shape" fill="#000000"></path>
        <path d="M47,42 L31,42 C30.448,42 30,42.447 30,43 C30,43.553 30.448,44 31,44 L47,44 C47.552,44 48,43.553 48,43 C48,42.447 47.552,42 47,42 L47,42 Z" id="Shape" fill="#000000"></path>
    </g>
</svg>