<?xml version="1.0" encoding="UTF-8" standalone="no"?>
<svg width="64px" height="64px" viewBox="0 0 64 64" version="1.1" xmlns="http://www.w3.org/2000/svg" xmlns:xlink="http://www.w3.org/1999/xlink">
    <!-- Generator: Sketch 3.7.2 (28276) - http://www.bohemiancoding.com/sketch -->
    <title>doc-lever-arch</title>
    <desc>Created with Sketch.</desc>
    <defs></defs>
    <g id="64px-Line" stroke="none" stroke-width="1" fill="none" fill-rule="evenodd">
        <g id="doc-lever-arch"></g>
        <path d="M7,60 L21,60 C21.552,60 22,59.553 22,59 L22,7 C22,6.448 21.552,6 21,6 L7,6 C6.448,6 6,6.448 6,7 L6,59 C6,59.553 6.448,60 7,60 L7,60 Z M20,32 L8,32 L8,14 L20,14 L20,32 L20,32 Z M8,58 L8,34 L20,34 L20,58 L8,58 L8,58 Z M20,8 L20,12 L8,12 L8,8 L20,8 L20,8 Z" id="Shape" fill="#000000"></path>
        <path d="M11,20 L17,20 C17.552,20 18,19.552 18,19 C18,18.448 17.552,18 17,18 L11,18 C10.448,18 10,18.448 10,19 C10,19.552 10.448,20 11,20 L11,20 Z" id="Shape" fill="#000000"></path>
        <path d="M11,24 L17,24 C17.552,24 18,23.552 18,23 C18,22.448 17.552,22 17,22 L11,22 C10.448,22 10,22.448 10,23 C10,23.552 10.448,24 11,24 L11,24 Z" id="Shape" fill="#000000"></path>
        <path d="M17,26 L11,26 C10.448,26 10,26.448 10,27 C10,27.552 10.448,28 11,28 L17,28 C17.552,28 18,27.552 18,27 C18,26.448 17.552,26 17,26 L17,26 Z" id="Shape" fill="#000000"></path>
        <path d="M14,46 C11.794,46 10,47.794 10,50 C10,52.206 11.794,54 14,54 C16.206,54 18,52.206 18,50 C18,47.794 16.206,46 14,46 L14,46 Z M14,52 C12.897,52 12,51.103 12,50 C12,48.897 12.897,48 14,48 C15.103,48 16,48.897 16,50 C16,51.103 15.103,52 14,52 L14,52 Z" id="Shape" fill="#000000"></path>
        <path d="M25,6 C24.448,6 24,6.448 24,7 L24,59 C24,59.553 24.448,60 25,60 L39,60 C39.552,60 40,59.553 40,59 L40,7 C40,6.448 39.552,6 39,6 L25,6 L25,6 Z M26,14 L38,14 L38,32 L26,32 L26,14 L26,14 Z M38,8 L38,12 L26,12 L26,8 L38,8 L38,8 Z M26,58 L26,34 L38,34 L38,58 L26,58 L26,58 Z" id="Shape" fill="#000000"></path>
        <path d="M29,20 L35,20 C35.552,20 36,19.552 36,19 C36,18.448 35.552,18 35,18 L29,18 C28.448,18 28,18.448 28,19 C28,19.552 28.448,20 29,20 L29,20 Z" id="Shape" fill="#000000"></path>
        <path d="M35,22 L29,22 C28.448,22 28,22.448 28,23 C28,23.552 28.448,24 29,24 L35,24 C35.552,24 36,23.552 36,23 C36,22.448 35.552,22 35,22 L35,22 Z" id="Shape" fill="#000000"></path>
        <path d="M35,26 L29,26 C28.448,26 28,26.448 28,27 C28,27.552 28.448,28 29,28 L35,28 C35.552,28 36,27.552 36,27 C36,26.448 35.552,26 35,26 L35,26 Z" id="Shape" fill="#000000"></path>
        <path d="M32,46 C29.794,46 28,47.794 28,50 C28,52.206 29.794,54 32,54 C34.206,54 36,52.206 36,50 C36,47.794 34.206,46 32,46 L32,46 Z M32,52 C30.897,52 30,51.103 30,50 C30,48.897 30.897,48 32,48 C33.103,48 34,48.897 34,50 C34,51.103 33.103,52 32,52 L32,52 Z" id="Shape" fill="#000000"></path>
        <path d="M57,6 L43,6 C42.448,6 42,6.448 42,7 L42,59 C42,59.553 42.448,60 43,60 L57,60 C57.552,60 58,59.553 58,59 L58,7 C58,6.448 57.552,6 57,6 L57,6 Z M44,14 L56,14 L56,32 L44,32 L44,14 L44,14 Z M56,8 L56,12 L44,12 L44,8 L56,8 L56,8 Z M44,58 L44,34 L56,34 L56,58 L44,58 L44,58 Z" id="Shape" fill="#000000"></path>
        <path d="M47,20 L53,20 C53.552,20 54,19.552 54,19 C54,18.448 53.552,18 53,18 L47,18 C46.448,18 46,18.448 46,19 C46,19.552 46.448,20 47,20 L47,20 Z" id="Shape" fill="#000000"></path>
        <path d="M53,22 L47,22 C46.448,22 46,22.448 46,23 C46,23.552 46.448,24 47,24 L53,24 C53.552,24 54,23.552 54,23 C54,22.448 53.552,22 53,22 L53,22 Z" id="Shape" fill="#000000"></path>
        <path d="M53,26 L47,26 C46.448,26 46,26.448 46,27 C46,27.552 46.448,28 47,28 L53,28 C53.552,28 54,27.552 54,27 C54,26.448 53.552,26 53,26 L53,26 Z" id="Shape" fill="#000000"></path>
        <path d="M50,46 C47.794,46 46,47.794 46,50 C46,52.206 47.794,54 50,54 C52.206,54 54,52.206 54,50 C54,47.794 52.206,46 50,46 L50,46 Z M50,52 C48.897,52 48,51.103 48,50 C48,48.897 48.897,48 50,48 C51.103,48 52,48.897 52,50 C52,51.103 51.103,52 50,52 L50,52 Z" id="Shape" fill="#000000"></path>
    </g>
</svg>