<?xml version="1.0" encoding="UTF-8" standalone="no"?>
<svg width="64px" height="64px" viewBox="0 0 64 64" version="1.1" xmlns="http://www.w3.org/2000/svg" xmlns:xlink="http://www.w3.org/1999/xlink">
    <!-- Generator: Sketch 3.7.2 (28276) - http://www.bohemiancoding.com/sketch -->
    <title>doc-layers-2</title>
    <desc>Created with Sketch.</desc>
    <defs></defs>
    <g id="64px-Line" stroke="none" stroke-width="1" fill="none" fill-rule="evenodd">
        <g id="doc-layers-2"></g>
        <path d="M61.435,22.1 L32.435,8.1 C32.162,7.967 31.839,7.967 31.566,8.1 L2.566,22.1 C2.22,22.267 2.001,22.617 2.001,23 C2.001,23.383 2.221,23.734 2.566,23.9 L31.566,37.9 C31.703,37.966 31.852,38 32.001,38 C32.15,38 32.299,37.967 32.436,37.9 L61.436,23.9 C61.782,23.733 62.001,23.383 62.001,23 C62.001,22.617 61.78,22.266 61.435,22.1 L61.435,22.1 Z M32,35.89 L5.3,23 L32,10.11 L58.7,23 L32,35.89 L32,35.89 Z" id="Shape" fill="#000000"></path>
        <path d="M61.435,32.1 L55.222,29.102 C54.726,28.861 54.126,29.071 53.887,29.568 C53.647,30.066 53.856,30.663 54.353,30.903 L58.7,33.001 L32,45.89 L5.3,33 L9.649,30.9 C10.146,30.66 10.355,30.062 10.115,29.565 C9.877,29.068 9.277,28.858 8.78,29.099 L2.566,32.099 C2.22,32.266 2.001,32.616 2.001,32.999 C2.001,33.382 2.221,33.732 2.566,33.899 L31.566,47.899 C31.703,47.965 31.852,47.999 32.001,47.999 C32.15,47.999 32.299,47.966 32.436,47.899 L61.436,33.899 C61.782,33.732 62.001,33.382 62.001,32.999 C62.001,32.616 61.78,32.266 61.435,32.1 L61.435,32.1 Z" id="Shape" fill="#000000"></path>
        <path d="M61.435,42.1 L55.222,39.102 C54.726,38.863 54.126,39.072 53.887,39.568 C53.647,40.065 53.856,40.663 54.353,40.903 L58.7,43.001 L32,55.89 L5.3,43 L9.649,40.9 C10.146,40.66 10.355,40.062 10.115,39.565 C9.877,39.068 9.277,38.861 8.78,39.099 L2.566,42.099 C2.22,42.266 2.001,42.616 2.001,42.999 C2.001,43.382 2.221,43.732 2.566,43.899 L31.566,57.899 C31.703,57.965 31.852,57.999 32.001,57.999 C32.15,57.999 32.299,57.966 32.436,57.899 L61.436,43.899 C61.782,43.732 62.001,43.382 62.001,42.999 C62.001,42.616 61.78,42.267 61.435,42.1 L61.435,42.1 Z" id="Shape" fill="#000000"></path>
    </g>
</svg>