<?xml version="1.0" encoding="UTF-8" standalone="no"?>
<svg width="64px" height="64px" viewBox="0 0 64 64" version="1.1" xmlns="http://www.w3.org/2000/svg" xmlns:xlink="http://www.w3.org/1999/xlink">
    <!-- Generator: Sketch 3.7.2 (28276) - http://www.bohemiancoding.com/sketch -->
    <title>doc-pile</title>
    <desc>Created with Sketch.</desc>
    <defs></defs>
    <g id="64px-Line" stroke="none" stroke-width="1" fill="none" fill-rule="evenodd">
        <g id="doc-pile"></g>
        <path d="M57.515,23.143 L50,18.634 L50,14 C50,13.645 49.812,13.315 49.504,13.136 L37.504,6.136 C37.182,5.949 36.784,5.956 36.47,6.153 L4.47,26.153 C4.175,26.338 3.997,26.662 4,27.009 C4.003,27.358 4.188,27.679 4.485,27.858 L24.485,39.858 C24.643,39.953 24.822,40.001 25,40.001 C25.184,40.001 25.368,39.95 25.53,39.849 L49.53,24.849 C49.822,24.666 50,24.346 50,24.001 L50,20.967 L55.085,24.018 L24.989,42.828 L5.514,31.143 C5.039,30.859 4.426,31.013 4.142,31.486 C3.858,31.96 4.011,32.574 4.485,32.858 L24.485,44.858 C24.643,44.953 24.822,45.001 25,45.001 C25.184,45.001 25.368,44.95 25.53,44.849 L57.53,24.849 C57.825,24.664 58.003,24.34 58,23.993 C57.997,23.643 57.812,23.321 57.515,23.143 L57.515,23.143 Z M41.915,18.982 L48,15.178 L48,22.633 L41.915,18.982 L41.915,18.982 Z M24.989,37.827 L6.915,26.982 L37.018,8.168 L46.549,13.728 L40.856,17.286 C40.26,17.658 39.909,18.299 39.916,19.001 C39.922,19.702 40.285,20.337 40.887,20.697 L46.76,24.221 L24.989,37.827 L24.989,37.827 Z" id="Shape" fill="#000000"></path>
        <path d="M56.47,28.152 L24.99,47.827 L5.515,36.142 C5.04,35.858 4.427,36.011 4.143,36.485 C3.859,36.959 4.012,37.573 4.486,37.857 L24.486,49.857 C24.644,49.952 24.823,50 25.001,50 C25.185,50 25.369,49.949 25.531,49.848 L57.531,29.848 C57.999,29.556 58.141,28.939 57.848,28.47 C57.556,28.001 56.938,27.858 56.47,28.152 L56.47,28.152 Z" id="Shape" fill="#000000"></path>
        <path d="M56.47,33.152 L24.99,52.827 L5.515,41.142 C5.04,40.858 4.427,41.011 4.143,41.485 C3.859,41.959 4.012,42.573 4.486,42.857 L24.486,54.857 C24.644,54.952 24.823,55 25.001,55 C25.185,55 25.369,54.949 25.531,54.848 L57.531,34.848 C57.999,34.556 58.141,33.939 57.848,33.47 C57.556,33.001 56.938,32.857 56.47,33.152 L56.47,33.152 Z" id="Shape" fill="#000000"></path>
        <path d="M56.47,38.152 L24.99,57.827 L5.515,46.142 C5.04,45.857 4.427,46.011 4.143,46.485 C3.859,46.959 4.012,47.573 4.486,47.857 L24.486,59.857 C24.644,59.952 24.823,60 25.001,60 C25.185,60 25.369,59.949 25.531,59.848 L57.531,39.848 C57.999,39.556 58.141,38.939 57.848,38.47 C57.556,38.001 56.938,37.858 56.47,38.152 L56.47,38.152 Z" id="Shape" fill="#000000"></path>
    </g>
</svg>