<?xml version="1.0" encoding="UTF-8" standalone="no"?>
<svg width="64px" height="64px" viewBox="0 0 64 64" version="1.1" xmlns="http://www.w3.org/2000/svg" xmlns:xlink="http://www.w3.org/1999/xlink">
    <!-- Generator: Sketch 3.7.2 (28276) - http://www.bohemiancoding.com/sketch -->
    <title>doc-resume</title>
    <desc>Created with Sketch.</desc>
    <defs></defs>
    <g id="64px-Line" stroke="none" stroke-width="1" fill="none" fill-rule="evenodd">
        <g id="doc-resume"></g>
        <path d="M14,60 L48,60 C50.206,60 52,58.206 52,56 L52,18 C52,17.735 51.895,17.48 51.707,17.293 L40.707,6.293 C40.52,6.105 40.266,6 40,6 L14,6 C11.794,6 10,7.794 10,10 L10,56 C10,58.206 11.794,60 14,60 L14,60 Z M49.586,18 L42,18 C40.897,18 40,17.103 40,16 L40,8.414 L49.586,18 L49.586,18 Z M12,10 C12,8.897 12.897,8 14,8 L38,8 L38,16 C38,18.206 39.794,20 42,20 L50,20 L50,56 C50,57.103 49.103,58 48,58 L14,58 C12.897,58 12,57.103 12,56 L12,10 L12,10 Z" id="Shape" fill="#000000"></path>
        <path d="M17,38 L45,38 C45.553,38 46,37.552 46,37 C46,36.448 45.553,36 45,36 L17,36 C16.447,36 16,36.448 16,37 C16,37.552 16.447,38 17,38 L17,38 Z" id="Shape" fill="#000000"></path>
        <path d="M17,44 L45,44 C45.553,44 46,43.552 46,43 C46,42.448 45.553,42 45,42 L17,42 C16.447,42 16,42.448 16,43 C16,43.552 16.447,44 17,44 L17,44 Z" id="Shape" fill="#000000"></path>
        <path d="M17,50 L39,50 C39.553,50 40,49.552 40,49 C40,48.448 39.553,48 39,48 L17,48 C16.447,48 16,48.448 16,49 C16,49.552 16.447,50 17,50 L17,50 Z" id="Shape" fill="#000000"></path>
        <path d="M16,31.002 C16,31.554 16.447,32.002 17,32.002 C17.553,32.002 18,31.554 18,31.002 C18,28.245 20.243,26.002 23,26.002 C25.757,26.002 28,28.245 28,31.002 C28,31.554 28.447,32.002 29,32.002 C29.553,32.002 30,31.554 30,31.002 C30,28.304 28.463,25.962 26.221,24.794 C27.3,23.876 28,22.526 28,21.002 C28,18.245 25.757,16.002 23,16.002 C20.243,16.002 18,18.245 18,21.002 C18,22.526 18.7,23.876 19.779,24.794 C17.537,25.962 16,28.304 16,31.002 L16,31.002 Z M20,21.002 C20,19.348 21.346,18.002 23,18.002 C24.654,18.002 26,19.348 26,21.002 C26,22.656 24.654,24.002 23,24.002 C21.346,24.002 20,22.656 20,21.002 L20,21.002 Z" id="Shape" fill="#000000"></path>
    </g>
</svg>