<?xml version="1.0" encoding="UTF-8" standalone="no"?>
<svg width="64px" height="64px" viewBox="0 0 64 64" version="1.1" xmlns="http://www.w3.org/2000/svg" xmlns:xlink="http://www.w3.org/1999/xlink">
    <!-- Generator: Sketch 3.7.2 (28276) - http://www.bohemiancoding.com/sketch -->
    <title>doc-notebook</title>
    <desc>Created with Sketch.</desc>
    <defs></defs>
    <g id="64px-Line" stroke="none" stroke-width="1" fill="none" fill-rule="evenodd">
        <g id="doc-notebook"></g>
        <path d="M23,22 L45,22 C45.553,22 46,21.552 46,21 C46,20.448 45.553,20 45,20 L23,20 C22.447,20 22,20.448 22,21 C22,21.552 22.447,22 23,22 L23,22 Z" id="Shape" fill="#000000"></path>
        <path d="M41,26 L27,26 C26.447,26 26,26.448 26,27 C26,27.552 26.447,28 27,28 L41,28 C41.553,28 42,27.552 42,27 C42,26.448 41.553,26 41,26 L41,26 Z" id="Shape" fill="#000000"></path>
        <path d="M11,50 C10.447,50 10,50.448 10,51 C10,51.552 10.447,52 11,52 L12,52 L12,56 C12,58.206 13.794,60 16,60 L50,60 C52.206,60 54,58.206 54,56 L54,10 C54,7.794 52.206,6 50,6 L16,6 C13.794,6 12,7.794 12,10 L12,14 L11,14 C10.447,14 10,14.448 10,15 C10,15.552 10.447,16 11,16 L12,16 L12,20 L11,20 C10.447,20 10,20.448 10,21 C10,21.552 10.447,22 11,22 L12,22 L12,26 L11,26 C10.447,26 10,26.448 10,27 C10,27.552 10.447,28 11,28 L12,28 L12,32 L11,32 C10.447,32 10,32.448 10,33 C10,33.552 10.447,34 11,34 L12,34 L12,38 L11,38 C10.447,38 10,38.448 10,39 C10,39.552 10.447,40 11,40 L12,40 L12,44 L11,44 C10.447,44 10,44.448 10,45 C10,45.552 10.447,46 11,46 L12,46 L12,50 L11,50 L11,50 Z M14,46 L17,46 C17.553,46 18,45.552 18,45 C18,44.448 17.553,44 17,44 L14,44 L14,40 L17,40 C17.553,40 18,39.552 18,39 C18,38.448 17.553,38 17,38 L14,38 L14,34 L17,34 C17.553,34 18,33.552 18,33 C18,32.448 17.553,32 17,32 L14,32 L14,28 L17,28 C17.553,28 18,27.552 18,27 C18,26.448 17.553,26 17,26 L14,26 L14,22 L17,22 C17.553,22 18,21.552 18,21 C18,20.448 17.553,20 17,20 L14,20 L14,16 L17,16 C17.553,16 18,15.552 18,15 C18,14.448 17.553,14 17,14 L14,14 L14,10 C14,8.897 14.897,8 16,8 L50,8 C51.103,8 52,8.897 52,10 L52,56 C52,57.103 51.103,58 50,58 L16,58 C14.897,58 14,57.103 14,56 L14,52 L17,52 C17.553,52 18,51.552 18,51 C18,50.448 17.553,50 17,50 L14,50 L14,46 L14,46 Z" id="Shape" fill="#000000"></path>
    </g>
</svg>