<?xml version="1.0" encoding="UTF-8" standalone="no"?>
<svg width="64px" height="64px" viewBox="0 0 64 64" version="1.1" xmlns="http://www.w3.org/2000/svg" xmlns:xlink="http://www.w3.org/1999/xlink">
    <!-- Generator: Sketch 3.7.2 (28276) - http://www.bohemiancoding.com/sketch -->
    <title>dri-kettle-old</title>
    <desc>Created with Sketch.</desc>
    <defs></defs>
    <g id="64px-Line" stroke="none" stroke-width="1" fill="none" fill-rule="evenodd">
        <g id="dri-kettle-old"></g>
        <path d="M15,30 C10.038,30 6,34.037 6,39 L6,53 C6,53.553 6.448,54 7,54 C7.552,54 8,53.553 8,53 L8,39 C8,35.141 11.14,32 15,32 C15.552,32 16,31.553 16,31 C16,30.447 15.552,30 15,30 L15,30 Z" id="Shape" fill="#000000"></path>
        <path d="M61,24 L55,24 C52.599,24 51.779,25.951 51.056,27.673 C50.167,29.789 49.319,31.79 45.925,31.981 C44.504,29.778 42.444,28.025 40,27.003 L40,15 C40,12.585 38.279,10.566 36,10.101 L36,10 C36,8.897 35.103,8 34,8 L16,8 C14.897,8 14,8.897 14,10 L14,10.101 C11.721,10.566 10,12.585 10,15 L10,27.003 C5.307,28.966 2,33.603 2,39 L2,55 C2,56.654 3.346,58 5,58 L45,58 C46.654,58 48,56.654 48,55 L48,43.93 C53.992,43.223 56.468,36.381 58.297,31.305 C59.104,29.066 60.209,26 61,26 C61.552,26 62,25.553 62,25 C62,24.447 61.552,24 61,24 L61,24 Z M16,10 L34,10 L34.001,10.996 C34.001,10.997 34,10.998 34,11 C34,11.002 34.001,11.002 34.001,11.004 L34.002,12 L16,12 L16,10 L16,10 Z M12,15 C12,13.691 12.847,12.588 14.018,12.179 C14.11,13.197 14.958,14 16,14 L34,14 C35.042,14 35.89,13.197 35.982,12.179 C37.153,12.588 38,13.692 38,15 L38,26.363 C37.035,26.134 36.034,26 35,26 L28.388,26 L29.949,21.316 C30.051,21.011 29.999,20.675 29.811,20.415 C29.623,20.155 29.321,20 29,20 L21,20 C20.679,20 20.377,20.154 20.189,20.415 C20.001,20.676 19.95,21.012 20.051,21.316 L21.612,26 L15,26 C13.966,26 12.965,26.134 12,26.363 L12,15 L12,15 Z M23.721,26 L22.387,22 L27.613,22 L26.279,26 L23.721,26 L23.721,26 Z M45,56 L5,56 C4.449,56 4,55.552 4,55 L4,39 C4,32.935 8.935,28 15,28 L35,28 C41.065,28 46,32.935 46,39 L46,42.879 C45.995,42.921 45.976,42.957 45.976,43 C45.976,43.043 45.995,43.079 46,43.121 L46,55 C46,55.552 45.551,56 45,56 L45,56 Z M56.416,30.626 C54.711,35.356 52.616,41.162 48,41.914 L48,39 C48,37.184 47.623,35.455 46.947,33.884 C50.85,33.301 52.023,30.534 52.9,28.447 C53.646,26.671 54.021,26 55,26 L58.34,26 C57.654,27.188 57.068,28.813 56.416,30.626 L56.416,30.626 Z" id="Shape" fill="#000000"></path>
        <path d="M58,12 C58,9.86 55.805,8.335 55.555,8.168 C55.095,7.862 54.474,7.985 54.168,8.445 C53.862,8.904 53.986,9.525 54.445,9.832 C54.773,10.051 56,11.061 56,12 C56,13.197 55.633,13.748 55.168,14.445 C54.647,15.225 54,16.197 54,18 C54,20.14 56.195,21.665 56.445,21.832 C56.615,21.945 56.808,22 56.999,22 C57.322,22 57.639,21.844 57.832,21.555 C58.138,21.096 58.014,20.475 57.555,20.168 C57.227,19.949 56,18.939 56,18 C56,16.803 56.367,16.252 56.832,15.555 C57.353,14.774 58,13.803 58,12 L58,12 Z" id="Shape" fill="#000000"></path>
    </g>
</svg>