<?xml version="1.0" encoding="UTF-8" standalone="no"?>
<svg width="64px" height="64px" viewBox="0 0 64 64" version="1.1" xmlns="http://www.w3.org/2000/svg" xmlns:xlink="http://www.w3.org/1999/xlink">
    <!-- Generator: Sketch 3.7.2 (28276) - http://www.bohemiancoding.com/sketch -->
    <title>dri-can</title>
    <desc>Created with Sketch.</desc>
    <defs></defs>
    <g id="64px-Line" stroke="none" stroke-width="1" fill="none" fill-rule="evenodd">
        <g id="dri-can"></g>
        <path d="M46,13 C46,12.447 45.552,12 45,12 L39.277,12 L29.515,6.143 C29.041,5.859 28.427,6.012 28.143,6.486 C27.859,6.96 28.012,7.574 28.486,7.858 L35.39,12 L17,12 C16.448,12 16,12.447 16,13 C16,13.553 16.448,14 17,14 L17.809,14 C17.58,14.648 17.15,15.211 16.534,15.579 C14.948,16.524 14.001,18.148 14.001,19.923 L14.001,52.077 C14.001,53.851 14.948,55.475 16.534,56.42 C17.151,56.788 17.581,57.352 17.81,58 L17,58 C16.448,58 16,58.447 16,59 C16,59.553 16.448,60 17,60 L45,60 C45.552,60 46,59.553 46,59 C46,58.447 45.552,58 45,58 L44.191,58 C44.42,57.352 44.85,56.789 45.466,56.421 C47.052,55.476 47.999,53.852 47.999,52.077 L47.999,19.923 C47.999,18.149 47.052,16.525 45.466,15.58 C44.849,15.212 44.419,14.648 44.19,14 L45,14 C45.552,14 46,13.553 46,13 L46,13 Z M46,46 L16,46 L16,26 L46,26 L46,46 L46,46 Z M44.443,54.703 C43.228,55.427 42.395,56.64 42.113,58 L19.887,58 C19.605,56.64 18.772,55.427 17.557,54.702 C16.582,54.121 16,53.14 16,52.077 L16,48 L46,48 L46,52.077 C46,53.14 45.418,54.121 44.443,54.703 L44.443,54.703 Z M44.443,17.298 C45.418,17.879 46,18.86 46,19.923 L46,24 L16,24 L16,19.923 C16,18.861 16.582,17.879 17.557,17.297 C18.772,16.573 19.605,15.36 19.887,14 L42.113,14 C42.395,15.36 43.228,16.573 44.443,17.298 L44.443,17.298 Z" id="Shape" fill="#000000"></path>
    </g>
</svg>