<?xml version="1.0" encoding="UTF-8" standalone="no"?>
<svg width="64px" height="64px" viewBox="0 0 64 64" version="1.1" xmlns="http://www.w3.org/2000/svg" xmlns:xlink="http://www.w3.org/1999/xlink">
    <!-- Generator: Sketch 3.7.2 (28276) - http://www.bohemiancoding.com/sketch -->
    <title>dri-cubes</title>
    <desc>Created with Sketch.</desc>
    <defs></defs>
    <g id="64px-Line" stroke="none" stroke-width="1" fill="none" fill-rule="evenodd">
        <g id="dri-cubes"></g>
        <path d="M32,26 L15.485,26 C13.614,26 11.857,26.729 10.535,28.051 L6.049,32.535 C4.727,33.858 3.999,35.616 3.999,37.485 L3.999,54.025 C3.999,56.227 5.789,58.021 7.988,58.025 C8.821,58.027 9.788,58.027 10.837,58.027 C15.303,58.027 21.235,58.014 24.53,58.006 C26.39,58.001 28.14,57.273 29.457,55.955 L33.949,51.464 C35.271,50.141 35.999,48.383 35.999,46.514 L35.999,30 C36,27.794 34.206,26 32,26 L32,26 Z M34,46.515 C34,47.85 33.48,49.106 32.536,50.051 L28.044,54.542 C27.103,55.483 25.854,56.004 24.526,56.007 C20.461,56.017 12.374,56.035 7.993,56.026 C6.894,56.024 6,55.127 6,54.026 L6,37.486 C6,36.151 6.52,34.895 7.464,33.95 L11.95,29.466 C12.893,28.522 14.149,28.001 15.485,28.001 L32,28.001 C33.103,28.001 34,28.898 34,30.001 L34,46.515 L34,46.515 Z" id="Shape" fill="#000000"></path>
        <path d="M21,34 L12,34 C11.448,34 11,34.447 11,35 C11,35.553 11.448,36 12,36 L21,36 C21.552,36 22,35.553 22,35 C22,34.447 21.552,34 21,34 L21,34 Z" id="Shape" fill="#000000"></path>
        <path d="M27,38 C26.448,38 26,38.447 26,39 L26,51 C26,51.553 26.448,52 27,52 C27.552,52 28,51.553 28,51 L28,39 C28,38.447 27.552,38 27,38 L27,38 Z" id="Shape" fill="#000000"></path>
        <path d="M30.293,30.293 L28.293,32.293 C27.902,32.684 27.902,33.316 28.293,33.707 C28.488,33.902 28.744,34 29,34 C29.256,34 29.512,33.902 29.707,33.707 L31.707,31.707 C32.098,31.316 32.098,30.684 31.707,30.293 C31.316,29.902 30.684,29.902 30.293,30.293 L30.293,30.293 Z" id="Shape" fill="#000000"></path>
        <path d="M54,8 L37.485,8 C35.614,8 33.857,8.729 32.535,10.051 L28.049,14.535 C26.727,15.858 25.999,17.616 25.999,19.485 L25.999,23.003 C25.999,23.556 26.447,24.003 26.999,24.003 C27.551,24.003 27.999,23.556 27.999,23.003 L27.999,19.485 C27.999,18.15 28.519,16.894 29.463,15.949 L33.949,11.465 C34.892,10.521 36.148,10 37.484,10 L54,10 C55.103,10 56,10.897 56,12 L56,28.515 C56,29.85 55.48,31.106 54.536,32.051 L50.044,36.542 C49.103,37.483 47.854,38.004 46.526,38.007 L38.998,38.023 C38.446,38.024 37.999,38.472 38,39.025 C38.001,39.577 38.448,40.023 39,40.023 L39.002,40.023 L46.531,40.007 C48.391,40.002 50.141,39.274 51.458,37.956 L55.95,33.465 C57.272,32.142 58,30.384 58,28.515 L58,12 C58,9.794 56.206,8 54,8 L54,8 Z" id="Shape" fill="#000000"></path>
        <path d="M43,18 C43.552,18 44,17.553 44,17 C44,16.447 43.552,16 43,16 L34,16 C33.448,16 33,16.447 33,17 C33,17.553 33.448,18 34,18 L43,18 L43,18 Z" id="Shape" fill="#000000"></path>
        <path d="M50,33 L50,21 C50,20.447 49.552,20 49,20 C48.448,20 48,20.447 48,21 L48,33 C48,33.553 48.448,34 49,34 C49.552,34 50,33.553 50,33 L50,33 Z" id="Shape" fill="#000000"></path>
        <path d="M51,16 C51.256,16 51.512,15.902 51.707,15.707 L53.707,13.707 C54.098,13.316 54.098,12.684 53.707,12.293 C53.316,11.902 52.684,11.902 52.293,12.293 L50.293,14.293 C49.902,14.684 49.902,15.316 50.293,15.707 C50.488,15.902 50.744,16 51,16 L51,16 Z" id="Shape" fill="#000000"></path>
    </g>
</svg>