<?xml version="1.0" encoding="UTF-8" standalone="no"?>
<svg width="64px" height="64px" viewBox="0 0 64 64" version="1.1" xmlns="http://www.w3.org/2000/svg" xmlns:xlink="http://www.w3.org/1999/xlink">
    <!-- Generator: Sketch 3.7.2 (28276) - http://www.bohemiancoding.com/sketch -->
    <title>dri-corkscrew</title>
    <desc>Created with Sketch.</desc>
    <defs></defs>
    <g id="64px-Line" stroke="none" stroke-width="1" fill="none" fill-rule="evenodd">
        <g id="dri-corkscrew"></g>
        <path d="M7,22 L20.28,22 L22.052,27.316 C22.188,27.725 22.569,28 23,28 L26,28 L26,34.091 C24.502,34.298 22,34.949 22,37 C22,38.66 24.151,39.231 26.644,39.893 C27.609,40.149 29.313,40.601 29.881,40.996 C29.331,41.367 27.744,41.775 26.75,42.032 C24.308,42.662 22,43.256 22,45 C22,46.749 24.33,47.358 26.796,48.004 C27.745,48.252 29.243,48.644 29.834,48.998 C29.248,49.342 27.779,49.72 26.848,49.96 C24.354,50.602 22,51.209 22,53 C22,53.817 22.41,55.268 25.159,55.81 C25.654,55.908 26,56.314 26,56.797 L26,59 C26,59.552 26.447,60 27,60 C27.553,60 28,59.552 28,59 L28,56.797 C28,55.369 26.968,54.128 25.546,53.848 C24.844,53.709 24.097,53.436 24.009,53.072 C24.401,52.656 26.306,52.165 27.347,51.897 C29.844,51.253 32,50.697 32,49 C32,47.298 29.823,46.729 27.303,46.069 C26.292,45.805 24.679,45.382 24.122,45.003 C24.675,44.633 26.258,44.225 27.25,43.969 C29.692,43.339 32,42.744 32,41.001 C32,39.247 29.647,38.623 27.156,37.961 C26.145,37.692 24.502,37.256 24.033,36.893 C24.268,36.502 25.693,36.067 27.048,36 C27.58,35.973 28,35.533 28,35 L28,28 L31,28 C31.431,28 31.812,27.725 31.948,27.316 L33.72,22 L47,22 C48.654,22 50,20.654 50,19 L50,9 C50,7.346 48.654,6 47,6 L7,6 C5.346,6 4,7.346 4,9 L4,19 C4,20.654 5.346,22 7,22 L7,22 Z M30.279,26 L23.72,26 L22.386,22 L31.612,22 L30.279,26 L30.279,26 Z M6,9 C6,8.449 6.448,8 7,8 L47,8 C47.552,8 48,8.449 48,9 L48,19 C48,19.551 47.552,20 47,20 L7,20 C6.448,20 6,19.551 6,19 L6,9 L6,9 Z" id="Shape" fill="#000000"></path>
        <path d="M38.004,36.91 L36.004,58.91 C35.979,59.19 36.072,59.467 36.262,59.675 C36.452,59.883 36.719,60 37,60 L57,60 C57.281,60 57.549,59.882 57.738,59.674 C57.927,59.466 58.021,59.189 57.996,58.909 L55.996,36.909 C55.949,36.395 55.518,36 55,36 L39,36 C38.482,36 38.051,36.395 38.004,36.91 L38.004,36.91 Z M54.087,38 L55.905,58 L38.094,58 L39.912,38 L54.087,38 L54.087,38 Z" id="Shape" fill="#000000"></path>
        <path d="M43,56 C43.553,56 44,55.552 44,55 C44,54.448 43.553,54 43,54 C42.448,54 42,53.551 42,53 C42,52.448 41.553,52 41,52 C40.447,52 40,52.448 40,53 C40,54.654 41.346,56 43,56 L43,56 Z" id="Shape" fill="#000000"></path>
        <path d="M51,54 C51.553,54 52,53.552 52,53 C52,52.448 51.553,52 51,52 C50.448,52 50,51.551 50,51 C50,50.448 49.553,50 49,50 C48.447,50 48,50.448 48,51 C48,52.654 49.346,54 51,54 L51,54 Z" id="Shape" fill="#000000"></path>
        <path d="M45,46 C45.553,46 46,45.552 46,45 C46,44.448 45.553,44 45,44 C44.448,44 44,43.551 44,43 C44,42.448 43.553,42 43,42 C42.447,42 42,42.448 42,43 C42,44.654 43.346,46 45,46 L45,46 Z" id="Shape" fill="#000000"></path>
    </g>
</svg>