<?xml version="1.0" encoding="UTF-8" standalone="no"?>
<svg width="64px" height="64px" viewBox="0 0 64 64" version="1.1" xmlns="http://www.w3.org/2000/svg" xmlns:xlink="http://www.w3.org/1999/xlink">
    <!-- Generator: Sketch 3.7.2 (28276) - http://www.bohemiancoding.com/sketch -->
    <title>dri-fizzy-glass</title>
    <desc>Created with Sketch.</desc>
    <defs></defs>
    <g id="64px-Line" stroke="none" stroke-width="1" fill="none" fill-rule="evenodd">
        <g id="dri-fizzy-glass"></g>
        <path d="M17,6 C16.448,6 16,6.447 16,7 L16,55 C16,57.757 18.243,60 21,60 L41,60 C43.757,60 46,57.757 46,55 L46,7 C46,6.447 45.552,6 45,6 L17,6 L17,6 Z M44,8 L44,22.421 C43.046,22.923 40.582,24 37,24 C34.629,24 32.973,23.529 31.22,23.031 C29.434,22.524 27.588,22 25,22 C21.876,22 19.457,22.761 18,23.38 L18,8 L44,8 L44,8 Z M41,58 L21,58 C19.346,58 18,56.654 18,55 L18,25.588 C18.982,25.084 21.502,24 25,24 C27.309,24 28.943,24.464 30.673,24.956 C32.481,25.469 34.35,26 37,26 C40.154,26 42.554,25.249 44,24.63 L44,55 C44,56.654 42.654,58 41,58 L41,58 Z" id="Shape" fill="#000000"></path>
        <path d="M27,30 C25.346,30 24,31.346 24,33 C24,34.654 25.346,36 27,36 C28.654,36 30,34.654 30,33 C30,31.346 28.654,30 27,30 L27,30 Z M27,34 C26.449,34 26,33.552 26,33 C26,32.448 26.449,32 27,32 C27.551,32 28,32.448 28,33 C28,33.552 27.551,34 27,34 L27,34 Z" id="Shape" fill="#000000"></path>
        <circle id="Oval" fill="#000000" cx="24" cy="48" r="2"></circle>
        <circle id="Oval" fill="#000000" cx="38" cy="42" r="2"></circle>
    </g>
</svg>