<?xml version="1.0" encoding="UTF-8" standalone="no"?>
<svg width="64px" height="64px" viewBox="0 0 64 64" version="1.1" xmlns="http://www.w3.org/2000/svg" xmlns:xlink="http://www.w3.org/1999/xlink">
    <!-- Generator: Sketch 3.7.2 (28276) - http://www.bohemiancoding.com/sketch -->
    <title>dri-champagne</title>
    <desc>Created with Sketch.</desc>
    <defs></defs>
    <g id="64px-Line" stroke="none" stroke-width="1" fill="none" fill-rule="evenodd">
        <g id="dri-champagne"></g>
        <path d="M50.554,40.056 C53.706,36.373 56.173,26.889 55.979,15.945 C55.977,15.916 55.982,15.888 55.978,15.859 C55.922,12.929 55.687,9.901 55.209,6.846 C55.133,6.359 54.714,6 54.221,6 L39.779,6 C39.287,6 38.868,6.358 38.791,6.844 C36.507,21.313 39.437,35.351 43.461,40.06 C44.263,40.998 45.114,41.595 46,41.852 L46,58 L41,58 C40.448,58 40,58.448 40,59 C40,59.552 40.448,60 41,60 L53,60 C53.552,60 54,59.552 54,59 C54,58.448 53.552,58 53,58 L48,58 L48,41.854 C48.891,41.597 49.747,40.998 50.554,40.056 L50.554,40.056 Z M53.359,8 C53.71,10.475 53.906,12.951 53.969,15.369 C53.321,15.626 52.098,16 50.429,16 C49.117,16 48.191,15.77 47.211,15.526 C46.17,15.267 45.093,15 43.572,15 C42.101,15 40.895,15.255 40.024,15.522 C40.083,13.054 40.279,10.526 40.641,8 L53.359,8 L53.359,8 Z M44.982,38.761 C42.215,35.523 40.083,27.195 40.006,17.643 C40.661,17.385 41.908,16.999 43.572,16.999 C44.848,16.999 45.762,17.226 46.729,17.466 C47.783,17.728 48.873,17.999 50.43,17.999 C51.919,17.999 53.122,17.746 53.987,17.478 C53.933,27.115 51.804,35.519 49.035,38.754 C48.548,39.323 47.801,40 47,40 C46.207,40 45.465,39.326 44.982,38.761 L44.982,38.761 Z" id="Shape" fill="#000000"></path>
        <path d="M29.977,15.859 C29.921,12.929 29.686,9.901 29.208,6.846 C29.132,6.359 28.713,6 28.22,6 L13.779,6 C13.287,6 12.868,6.358 12.791,6.844 C10.507,21.313 13.437,35.351 17.461,40.06 C18.263,40.998 19.114,41.595 20,41.852 L20,58 L15,58 C14.448,58 14,58.448 14,59 C14,59.552 14.448,60 15,60 L27,60 C27.552,60 28,59.552 28,59 C28,58.448 27.552,58 27,58 L22,58 L22,41.854 C22.891,41.597 23.747,40.998 24.554,40.056 C27.706,36.373 30.173,26.889 29.979,15.945 C29.977,15.916 29.982,15.888 29.977,15.859 L29.977,15.859 Z M27.359,8 C27.71,10.475 27.906,12.951 27.969,15.369 C27.321,15.626 26.098,16 24.429,16 C23.117,16 22.191,15.77 21.211,15.526 C20.17,15.267 19.093,15 17.572,15 C16.101,15 14.895,15.255 14.024,15.522 C14.083,13.054 14.279,10.526 14.641,8 L27.359,8 L27.359,8 Z M23.034,38.755 C22.548,39.323 21.801,40 21,40 C20.207,40 19.465,39.326 18.982,38.761 C16.215,35.523 14.083,27.195 14.006,17.643 C14.661,17.385 15.908,16.999 17.572,16.999 C18.848,16.999 19.762,17.226 20.729,17.466 C21.783,17.728 22.873,17.999 24.43,17.999 C25.919,17.999 27.122,17.746 27.987,17.478 C27.932,27.116 25.803,35.52 23.034,38.755 L23.034,38.755 Z" id="Shape" fill="#000000"></path>
    </g>
</svg>