<?xml version="1.0" encoding="UTF-8" standalone="no"?>
<svg width="64px" height="64px" viewBox="0 0 64 64" version="1.1" xmlns="http://www.w3.org/2000/svg" xmlns:xlink="http://www.w3.org/1999/xlink">
    <!-- Generator: Sketch 3.7.2 (28276) - http://www.bohemiancoding.com/sketch -->
    <title>dri-cup-coffee</title>
    <desc>Created with Sketch.</desc>
    <defs></defs>
    <g id="64px-Line" stroke="none" stroke-width="1" fill="none" fill-rule="evenodd">
        <g id="dri-cup-coffee"></g>
        <path d="M54,24 L49,24 L7,24 C6.447,24 6,24.447 6,25 L6,40 C6,48.447 10.933,56.251 18.566,59.881 C18.701,59.944 18.847,59.978 18.996,59.978 L37,59.979 C37.148,59.979 37.295,59.946 37.429,59.882 C45.065,56.254 50,48.45 50,40 L54,40 C57.309,40 60,37.309 60,34 L60,30 C60,26.691 57.309,24 54,24 L54,24 Z M48,40 C48,47.608 43.601,54.64 36.771,57.979 L19.224,57.978 C12.398,54.637 8,47.605 8,40 L8,26 L48,26 L48,40 L48,40 Z M58,34 C58,36.206 56.206,38 54,38 L50,38 L50,26 L54,26 C56.206,26 58,27.794 58,30 L58,34 L58,34 Z" id="Shape" fill="#000000"></path>
        <path d="M18,18 C17.447,18 17,18.447 17,19 C17,19.553 17.447,20 18,20 C20.206,20 22,18.206 22,16 C22,14.272 20.787,13.186 19.614,12.136 C19.312,11.865 19.003,11.589 18.707,11.293 C18.44,11.026 18.142,10.759 17.836,10.486 C16.934,9.682 16,8.85 16,8 C16,6.897 16.897,6 18,6 C18.553,6 19,5.553 19,5 C19,4.447 18.553,4 18,4 C15.794,4 14,5.794 14,8 C14,9.745 15.389,10.984 16.505,11.979 C16.781,12.225 17.052,12.465 17.293,12.707 C17.615,13.029 17.951,13.331 18.279,13.625 C19.347,14.58 20,15.206 20,16 C20,17.103 19.103,18 18,18 L18,18 Z" id="Shape" fill="#000000"></path>
        <path d="M28,18 C27.447,18 27,18.447 27,19 C27,19.553 27.447,20 28,20 C30.206,20 32,18.206 32,16 C32,14.272 30.787,13.186 29.614,12.136 C29.312,11.865 29.003,11.589 28.707,11.293 C28.44,11.026 28.142,10.759 27.836,10.486 C26.934,9.682 26,8.85 26,8 C26,6.897 26.897,6 28,6 C28.553,6 29,5.553 29,5 C29,4.447 28.553,4 28,4 C25.794,4 24,5.794 24,8 C24,9.745 25.389,10.984 26.505,11.979 C26.781,12.225 27.052,12.465 27.293,12.707 C27.615,13.029 27.951,13.331 28.279,13.625 C29.347,14.58 30,15.206 30,16 C30,17.103 29.103,18 28,18 L28,18 Z" id="Shape" fill="#000000"></path>
        <path d="M38,18 C37.447,18 37,18.447 37,19 C37,19.553 37.447,20 38,20 C40.206,20 42,18.206 42,16 C42,14.272 40.787,13.186 39.614,12.136 C39.312,11.865 39.003,11.589 38.707,11.293 C38.44,11.026 38.142,10.759 37.836,10.486 C36.934,9.682 36,8.85 36,8 C36,6.897 36.897,6 38,6 C38.553,6 39,5.553 39,5 C39,4.447 38.553,4 38,4 C35.794,4 34,5.794 34,8 C34,9.745 35.389,10.984 36.505,11.979 C36.781,12.225 37.052,12.465 37.293,12.707 C37.615,13.029 37.951,13.331 38.279,13.625 C39.347,14.58 40,15.206 40,16 C40,17.103 39.103,18 38,18 L38,18 Z" id="Shape" fill="#000000"></path>
    </g>
</svg>