<?xml version="1.0" encoding="UTF-8" standalone="no"?>
<svg width="64px" height="64px" viewBox="0 0 64 64" version="1.1" xmlns="http://www.w3.org/2000/svg" xmlns:xlink="http://www.w3.org/1999/xlink">
    <!-- Generator: Sketch 3.7.2 (28276) - http://www.bohemiancoding.com/sketch -->
    <title>dri-fizzy-bottle</title>
    <desc>Created with Sketch.</desc>
    <defs></defs>
    <g id="64px-Line" stroke="none" stroke-width="1" fill="none" fill-rule="evenodd">
        <g id="dri-fizzy-bottle"></g>
        <path d="M55,34 L39,34 C38.448,34 38,34.447 38,35 L38,56 C38,58.206 39.794,60 42,60 L52,60 C54.206,60 56,58.206 56,56 L56,35 C56,34.447 55.552,34 55,34 L55,34 Z M54,36 L54,42.746 C53.256,42.329 52.274,42 51,42 C49.356,42 47.987,42.541 46.662,43.064 C45.444,43.546 44.294,44 43,44 C41.161,44 40.288,43.083 40,42.698 L40,36 L54,36 L54,36 Z M52,58 L42,58 C40.897,58 40,57.103 40,56 L40,45.267 C40.741,45.68 41.723,46 43,46 C44.675,46 46.059,45.453 47.397,44.925 C48.601,44.449 49.737,44 51,44 C52.816,44 53.707,44.925 54,45.308 L54,56 C54,57.103 53.103,58 52,58 L52,58 Z" id="Shape" fill="#000000"></path>
        <path d="M51,32 C52.654,32 54,30.654 54,29 C54,27.346 52.654,26 51,26 C49.346,26 48,27.346 48,29 C48,30.654 49.346,32 51,32 L51,32 Z M51,28 C51.551,28 52,28.448 52,29 C52,29.552 51.551,30 51,30 C50.449,30 50,29.552 50,29 C50,28.448 50.449,28 51,28 L51,28 Z" id="Shape" fill="#000000"></path>
        <circle id="Oval" fill="#000000" cx="42" cy="26" r="2"></circle>
        <circle id="Oval" fill="#000000" cx="48" cy="20" r="2"></circle>
        <path d="M27.707,59.707 C27.801,59.613 30,57.375 30,54 C30,52.304 29.454,50.934 28.925,49.608 C28.449,48.415 28,47.288 28,46 C28,44.76 28.411,43.938 28.887,42.986 C29.409,41.942 30,40.76 30,39 L30,26 C30,24.301 29.599,22.6 28.815,21.037 L23.591,11.785 C23.833,11.603 24,11.327 24,11 L24,7 C24,6.447 23.552,6 23,6 L15,6 C14.448,6 14,6.447 14,7 L14,11 C14,11.327 14.167,11.603 14.409,11.785 L9.161,21.081 C8.401,22.6 8,24.301 8,26 L8,39 C8,40.76 8.591,41.942 9.113,42.986 C9.589,43.938 10,44.76 10,46 C10,47.288 9.551,48.415 9.075,49.608 C8.546,50.934 8,52.304 8,54 C8,57.375 10.199,59.613 10.293,59.707 C10.48,59.895 10.735,60 11,60 L27,60 C27.265,60 27.52,59.895 27.707,59.707 L27.707,59.707 Z M10,28 L28,28 L28,38 L10,38 L10,28 L10,28 Z M16,8 L22,8 L22,10 L16,10 L16,8 L16,8 Z M10.926,22.02 L16.583,12 L21.416,12 L27.049,21.976 C27.671,23.218 27.999,24.61 27.999,26 L9.999,26 C10,24.609 10.329,23.218 10.926,22.02 L10.926,22.02 Z M11.454,58 C10.978,57.405 10,55.944 10,54 C10,52.688 10.453,51.552 10.933,50.349 C11.458,49.034 12,47.673 12,46 C12,44.287 11.417,43.121 10.902,42.092 C10.556,41.401 10.25,40.77 10.1,40 L27.898,40 C27.748,40.77 27.443,41.4 27.096,42.092 C26.583,43.121 26,44.287 26,46 C26,47.673 26.542,49.033 27.067,50.349 C27.546,51.552 28,52.689 28,54 C28,55.925 27.017,57.4 26.543,58 L11.454,58 L11.454,58 Z" id="Shape" fill="#000000"></path>
    </g>
</svg>