<?xml version="1.0" encoding="UTF-8" standalone="no"?>
<svg width="64px" height="64px" viewBox="0 0 64 64" version="1.1" xmlns="http://www.w3.org/2000/svg" xmlns:xlink="http://www.w3.org/1999/xlink">
    <!-- Generator: Sketch 3.7.2 (28276) - http://www.bohemiancoding.com/sketch -->
    <title>dri-cocktail</title>
    <desc>Created with Sketch.</desc>
    <defs></defs>
    <g id="64px-Line" stroke="none" stroke-width="1" fill="none" fill-rule="evenodd">
        <g id="dri-cocktail"></g>
        <path d="M21.707,24.293 C21.316,23.902 20.684,23.902 20.293,24.293 C19.902,24.684 19.902,25.316 20.293,25.707 L28.293,33.707 C28.488,33.902 28.744,34 29,34 C29.256,34 29.512,33.902 29.707,33.707 C30.098,33.316 30.098,32.684 29.707,32.293 L21.707,24.293 L21.707,24.293 Z" id="Shape" fill="#000000"></path>
        <path d="M52.293,23.707 C52.484,23.898 52.74,24 53,24 C53.129,24 53.259,23.975 53.383,23.924 C53.757,23.769 54,23.404 54,23 L54,7 C54,6.448 53.552,6 53,6 L37,6 C36.596,6 36.231,6.244 36.076,6.617 C35.921,6.991 36.007,7.421 36.293,7.707 L43.586,15 L38.586,20 L11,20 C10.596,20 10.231,20.244 10.076,20.617 C9.921,20.991 10.007,21.421 10.293,21.707 L28,39.414 L28,58 L21,58 C20.448,58 20,58.448 20,59 C20,59.552 20.448,60 21,60 L37,60 C37.552,60 38,59.552 38,59 C38,58.448 37.552,58 37,58 L30,58 L30,39.414 L47.707,21.707 C47.993,21.421 48.079,20.991 47.924,20.617 C47.769,20.243 47.404,20 47,20 L41.414,20 L45,16.414 L52.293,23.707 L52.293,23.707 Z M29,37.586 L13.414,22 L44.586,22 L29,37.586 L29,37.586 Z M52,8 L52,20.586 L39.414,8 L52,8 L52,8 Z" id="Shape" fill="#000000"></path>
    </g>
</svg>