<?xml version="1.0" encoding="UTF-8" standalone="no"?>
<svg width="64px" height="64px" viewBox="0 0 64 64" version="1.1" xmlns="http://www.w3.org/2000/svg" xmlns:xlink="http://www.w3.org/1999/xlink">
    <!-- Generator: Sketch 3.7.2 (28276) - http://www.bohemiancoding.com/sketch -->
    <title>dri-beer-chaser</title>
    <desc>Created with Sketch.</desc>
    <defs></defs>
    <g id="64px-Line" stroke="none" stroke-width="1" fill="none" fill-rule="evenodd">
        <g id="dri-beer-chaser"></g>
        <path d="M38.237,40.354 C38.047,40.579 37.966,40.875 38.014,41.165 L41.014,59.165 C41.094,59.647 41.512,60 42,60 L54,60 C54.489,60 54.906,59.646 54.986,59.165 L57.986,41.165 C58.034,40.875 57.953,40.579 57.763,40.354 C57.573,40.13 57.294,40 57,40 L39,40 C38.706,40 38.427,40.129 38.237,40.354 L38.237,40.354 Z M53.153,58 L42.847,58 L41.514,50 L54.486,50 L53.153,58 L53.153,58 Z M55.819,42 L54.819,48 L41.18,48 L40.18,42 L55.819,42 L55.819,42 Z" id="Shape" fill="#000000"></path>
        <path d="M8,50 L8,59 C8,59.552 8.448,60 9,60 L31,60 C31.552,60 32,59.552 32,59 L32,50 C32,45.59 33.008,40.043 33.984,34.679 C34.975,29.228 36,23.59 36,19 C36,13.504 35.034,5.232 34.993,4.883 C34.934,4.379 34.507,4 34,4 L6,4 C5.493,4 5.066,4.379 5.007,4.883 C4.966,5.232 4,13.504 4,19 C4,23.59 5.025,29.228 6.016,34.679 C6.992,40.043 8,45.59 8,50 L8,50 Z M33.105,6 C33.235,7.197 33.47,9.477 33.667,12 L6.332,12 C6.529,9.477 6.764,7.197 6.894,6 L33.105,6 L33.105,6 Z M6.19,14 L33.81,14 C33.922,15.739 34,17.489 34,19 C34,23.41 32.992,28.957 32.016,34.321 C31.025,39.772 30,45.41 30,50 L30,58 L10,58 L10,50 C10,45.41 8.975,39.772 7.984,34.321 C7.008,28.957 6,23.41 6,19 C6,17.489 6.078,15.739 6.19,14 L6.19,14 Z" id="Shape" fill="#000000"></path>
    </g>
</svg>