<?xml version="1.0" encoding="UTF-8" standalone="no"?>
<svg width="64px" height="64px" viewBox="0 0 64 64" version="1.1" xmlns="http://www.w3.org/2000/svg" xmlns:xlink="http://www.w3.org/1999/xlink">
    <!-- Generator: Sketch 3.7.2 (28276) - http://www.bohemiancoding.com/sketch -->
    <title>dri-beer</title>
    <desc>Created with Sketch.</desc>
    <defs></defs>
    <g id="64px-Line" stroke="none" stroke-width="1" fill="none" fill-rule="evenodd">
        <g id="dri-beer"></g>
        <path d="M46,4 L18,4 C17.493,4 17.066,4.38 17.007,4.883 C16.966,5.232 16,13.505 16,19 C16,23.59 17.025,29.228 18.016,34.679 C18.992,40.043 20,45.59 20,50 L20,59 C20,59.553 20.448,60 21,60 L43,60 C43.552,60 44,59.553 44,59 L44,50 C44,45.59 45.008,40.043 45.984,34.679 C46.975,29.228 48,23.59 48,19 C48,13.505 47.034,5.232 46.993,4.883 C46.934,4.38 46.507,4 46,4 L46,4 Z M45.105,6 C45.235,7.197 45.47,9.477 45.667,12 L18.332,12 C18.529,9.477 18.764,7.197 18.894,6 L45.105,6 L45.105,6 Z M44.016,34.321 C43.025,39.772 42,45.41 42,50 L42,58 L22,58 L22,50 C22,45.41 20.975,39.772 19.984,34.321 C19.008,28.957 18,23.41 18,19 C18,17.49 18.078,15.739 18.19,14 L45.81,14 C45.922,15.739 46,17.489 46,19 C46,23.41 44.992,28.957 44.016,34.321 L44.016,34.321 Z" id="Shape" fill="#000000"></path>
    </g>
</svg>