<?xml version="1.0" encoding="UTF-8" standalone="no"?>
<svg width="64px" height="64px" viewBox="0 0 64 64" version="1.1" xmlns="http://www.w3.org/2000/svg" xmlns:xlink="http://www.w3.org/1999/xlink">
    <!-- Generator: Sketch 3.7.2 (28276) - http://www.bohemiancoding.com/sketch -->
    <title>dri-cup-tea</title>
    <desc>Created with Sketch.</desc>
    <defs></defs>
    <g id="64px-Line" stroke="none" stroke-width="1" fill="none" fill-rule="evenodd">
        <g id="dri-cup-tea"></g>
        <path d="M56,24 L51,24 L13,24 C12.447,24 12,24.448 12,25 L12,40 C12,47.923 16.643,54.764 23.34,58 L5,58 C4.447,58 4,58.448 4,59 C4,59.552 4.447,60 5,60 L59,60 C59.553,60 60,59.552 60,59 C60,58.448 59.553,58 59,58 L40.66,58 C47.357,54.764 52,47.923 52,40 L56,40 C59.309,40 62,37.309 62,34 L62,30 C62,26.691 59.309,24 56,24 L56,24 Z M50,40 C50,49.925 41.925,58 32,58 C22.075,58 14,49.925 14,40 L14,26 L50,26 L50,40 L50,40 Z M60,34 C60,36.206 58.206,38 56,38 L52,38 L52,26 L56,26 C58.206,26 60,27.794 60,30 L60,34 L60,34 Z" id="Shape" fill="#000000"></path>
        <path d="M20.505,11.979 C20.781,12.225 21.052,12.465 21.293,12.707 C21.615,13.029 21.951,13.331 22.279,13.625 C23.347,14.581 24,15.206 24,16 C24,17.103 23.103,18 22,18 C21.447,18 21,18.448 21,19 C21,19.552 21.447,20 22,20 C24.206,20 26,18.206 26,16 C26,14.272 24.787,13.186 23.614,12.135 C23.312,11.865 23.003,11.589 22.707,11.293 C22.44,11.026 22.142,10.759 21.836,10.487 C20.934,9.682 20,8.849 20,8 C20,6.897 20.897,6 22,6 C22.553,6 23,5.552 23,5 C23,4.448 22.553,4 22,4 C19.794,4 18,5.794 18,8 C18,9.745 19.389,10.984 20.505,11.979 L20.505,11.979 Z" id="Shape" fill="#000000"></path>
        <path d="M30.505,11.979 C30.781,12.225 31.052,12.465 31.293,12.707 C31.615,13.029 31.951,13.331 32.279,13.625 C33.347,14.581 34,15.206 34,16 C34,17.103 33.103,18 32,18 C31.447,18 31,18.448 31,19 C31,19.552 31.447,20 32,20 C34.206,20 36,18.206 36,16 C36,14.272 34.787,13.186 33.614,12.135 C33.312,11.865 33.003,11.589 32.707,11.293 C32.44,11.026 32.142,10.759 31.836,10.487 C30.934,9.682 30,8.849 30,8 C30,6.897 30.897,6 32,6 C32.553,6 33,5.552 33,5 C33,4.448 32.553,4 32,4 C29.794,4 28,5.794 28,8 C28,9.745 29.389,10.984 30.505,11.979 L30.505,11.979 Z" id="Shape" fill="#000000"></path>
        <path d="M40.505,11.979 C40.781,12.225 41.052,12.465 41.293,12.707 C41.615,13.029 41.951,13.331 42.279,13.625 C43.347,14.581 44,15.206 44,16 C44,17.103 43.103,18 42,18 C41.447,18 41,18.448 41,19 C41,19.552 41.447,20 42,20 C44.206,20 46,18.206 46,16 C46,14.272 44.787,13.186 43.614,12.135 C43.312,11.865 43.003,11.589 42.707,11.293 C42.44,11.026 42.142,10.759 41.836,10.487 C40.934,9.682 40,8.849 40,8 C40,6.897 40.897,6 42,6 C42.553,6 43,5.552 43,5 C43,4.448 42.553,4 42,4 C39.794,4 38,5.794 38,8 C38,9.745 39.389,10.984 40.505,11.979 L40.505,11.979 Z" id="Shape" fill="#000000"></path>
    </g>
</svg>