<?xml version="1.0" encoding="UTF-8" standalone="no"?>
<svg width="64px" height="64px" viewBox="0 0 64 64" version="1.1" xmlns="http://www.w3.org/2000/svg" xmlns:xlink="http://www.w3.org/1999/xlink">
    <!-- Generator: Sketch 3.7.2 (28276) - http://www.bohemiancoding.com/sketch -->
    <title>dri-takeaway</title>
    <desc>Created with Sketch.</desc>
    <defs></defs>
    <g id="64px-Line" stroke="none" stroke-width="1" fill="none" fill-rule="evenodd">
        <g id="dri-takeaway"></g>
        <path d="M14.052,18.684 L12.052,24.684 C11.949,24.989 12.001,25.325 12.189,25.585 C12.377,25.846 12.679,26 13.001,26 L14.112,26 L18.008,59.117 C18.068,59.62 18.494,60 19.001,60 L43.001,60 C43.508,60 43.935,59.62 43.994,59.117 L47.889,26 L49,26 C49.321,26 49.623,25.846 49.812,25.585 C50,25.324 50.051,24.988 49.949,24.684 L47.949,18.684 C47.812,18.275 47.431,18 47,18 L32,18 L32,13.659 L45.394,7.919 C45.902,7.701 46.137,7.113 45.919,6.607 C45.701,6.098 45.109,5.862 44.607,6.082 L30.607,12.082 C30.238,12.238 30,12.6 30,13 L30,18 L15,18 C14.569,18 14.188,18.275 14.052,18.684 L14.052,18.684 Z M42.11,58 L19.89,58 L16.125,26 L45.876,26 L42.11,58 L42.11,58 Z M46.279,20 L47.612,24 L14.387,24 L15.72,20 L46.279,20 L46.279,20 Z" id="Shape" fill="#000000"></path>
    </g>
</svg>