<?xml version="1.0" encoding="UTF-8" standalone="no"?>
<svg width="64px" height="64px" viewBox="0 0 64 64" version="1.1" xmlns="http://www.w3.org/2000/svg" xmlns:xlink="http://www.w3.org/1999/xlink">
    <!-- Generator: Sketch 3.7.2 (28276) - http://www.bohemiancoding.com/sketch -->
    <title>dri-cafetiere</title>
    <desc>Created with Sketch.</desc>
    <defs></defs>
    <g id="64px-Line" stroke="none" stroke-width="1" fill="none" fill-rule="evenodd">
        <g id="dri-cafetiere"></g>
        <path d="M10.681,21.948 C10.898,22.022 16,23.818 16,29 L16,54 C16,57.309 18.691,60 22,60 L40,60 C43.309,60 46,57.309 46,54 L46,38 L49,38 C51.757,38 54,35.757 54,33 L54,25.002 C54,22.245 51.757,20.002 49,20.002 L46,20.002 L46,20 C46,16.691 43.309,14 40,14 L32,14 L32,9.816 C33.161,9.402 34,8.302 34,7 C34,5.346 32.654,4 31,4 C29.346,4 28,5.346 28,7 C28,8.302 28.839,9.402 30,9.816 L30,14 L22,14 C18.691,14 16,16.691 16,20 L16,20 L11,20 C10.511,20 10.095,20.354 10.015,20.837 C9.935,21.32 10.218,21.79 10.681,21.948 L10.681,21.948 Z M46,22.002 L49,22.002 C50.654,22.002 52,23.348 52,25.002 L52,33 C52,34.654 50.654,36 49,36 L46,36 L46,22.002 L46,22.002 Z M31,6 C31.552,6 32,6.449 32,7 C32,7.551 31.552,8 31,8 C30.448,8 30,7.551 30,7 C30,6.449 30.448,6 31,6 L31,6 Z M40,58 L22,58 C19.794,58 18,56.206 18,54 L18,42.521 C19.588,43.142 22.269,44 25,44 C26.692,44 28.365,43.666 30,43.274 L30,48 L21,48 C20.447,48 20,48.448 20,49 C20,49.552 20.447,50 21,50 L41,50 C41.553,50 42,49.552 42,49 C42,48.448 41.553,48 41,48 L32,48 L32,42.785 C33.717,42.362 35.364,42 37,42 C39.88,42 42.813,43.129 44,43.643 L44,54 C44,56.206 42.206,58 40,58 L40,58 Z M44,22.001 L44,41.478 C42.412,40.857 39.731,39.999 37,39.999 C35.308,39.999 33.635,40.333 32,40.725 L32,22 L44,22.001 L44,22.001 Z M18,20 C18,17.794 19.794,16 22,16 L40,16 C42.206,16 44,17.794 44,20 L44,20.001 L31.005,20.001 C31.003,20.001 31.002,20 31,20 C30.998,20 30.997,20.001 30.995,20.001 L18,20 L18,20 L18,20 Z M30,22.001 L30,41.216 C28.283,41.639 26.636,42.001 25,42.001 C22.12,42.001 19.187,40.872 18,40.358 L18,29 C18,25.809 16.423,23.502 14.662,22 L30,22.001 L30,22.001 Z" id="Shape" fill="#000000"></path>
    </g>
</svg>