<?xml version="1.0" encoding="UTF-8" standalone="no"?>
<svg width="64px" height="64px" viewBox="0 0 64 64" version="1.1" xmlns="http://www.w3.org/2000/svg" xmlns:xlink="http://www.w3.org/1999/xlink">
    <!-- Generator: Sketch 3.7.2 (28276) - http://www.bohemiancoding.com/sketch -->
    <title>dri-cocktail-4</title>
    <desc>Created with Sketch.</desc>
    <defs></defs>
    <g id="64px-Line" stroke="none" stroke-width="1" fill="none" fill-rule="evenodd">
        <g id="dri-cocktail-4"></g>
        <path d="M19.707,22.293 C19.316,21.902 18.684,21.902 18.293,22.293 C17.902,22.684 17.902,23.316 18.293,23.707 L28.293,33.707 C28.488,33.902 28.744,34 29,34 C29.256,34 29.512,33.902 29.707,33.707 C30.098,33.316 30.098,32.684 29.707,32.293 L19.707,22.293 L19.707,22.293 Z" id="Shape" fill="#000000"></path>
        <path d="M50.5,17 C53.533,17 56,14.532 56,11.5 C56,10.344 55.64,9.272 55.028,8.386 L55.707,7.707 C56.098,7.316 56.098,6.684 55.707,6.293 C55.316,5.902 54.683,5.902 54.293,6.293 L53.614,6.972 C52.728,6.361 51.655,6 50.5,6 C47.467,6 45,8.468 45,11.5 C45,12.656 45.36,13.728 45.971,14.614 L42.586,18 L9,18 C8.596,18 8.231,18.243 8.076,18.617 C7.921,18.991 8.007,19.421 8.293,19.707 L28,39.414 L28,58 L21,58 C20.448,58 20,58.447 20,59 C20,59.553 20.448,60 21,60 L37,60 C37.552,60 38,59.553 38,59 C38,58.447 37.552,58 37,58 L30,58 L30,39.414 L49.707,19.707 C49.993,19.421 50.079,18.991 49.924,18.617 C49.769,18.243 49.404,18 49,18 L45.414,18 L47.386,16.028 C48.272,16.64 49.344,17 50.5,17 L50.5,17 Z M29,37.586 L11.414,20 L46.586,20 L29,37.586 L29,37.586 Z M50.5,8 C52.43,8 54,9.57 54,11.5 C54,13.43 52.43,15 50.5,15 C48.57,15 47,13.43 47,11.5 C47,9.57 48.57,8 50.5,8 L50.5,8 Z" id="Shape" fill="#000000"></path>
    </g>
</svg>