<?xml version="1.0" encoding="UTF-8" standalone="no"?>
<svg width="64px" height="64px" viewBox="0 0 64 64" version="1.1" xmlns="http://www.w3.org/2000/svg" xmlns:xlink="http://www.w3.org/1999/xlink">
    <!-- Generator: Sketch 3.7.2 (28276) - http://www.bohemiancoding.com/sketch -->
    <title>dri-glass-ice</title>
    <desc>Created with Sketch.</desc>
    <defs></defs>
    <g id="64px-Line" stroke="none" stroke-width="1" fill="none" fill-rule="evenodd">
        <g id="dri-glass-ice"></g>
        <path d="M16.549,60 L45.451,60 C47.98,60 50.114,58.106 50.416,55.591 L55.993,7.114 C56.026,6.831 55.936,6.547 55.746,6.334 C55.557,6.122 55.285,6 55,6 L7,6 C6.715,6 6.443,6.122 6.254,6.334 C6.064,6.547 5.974,6.831 6.007,7.114 L11.584,55.595 C11.886,58.106 14.02,60 16.549,60 L16.549,60 Z M48.43,55.357 C48.249,56.863 46.969,58 45.451,58 L16.549,58 C15.031,58 13.751,56.864 13.57,55.362 L9.673,21.481 C10.763,20.643 14.71,18 21.143,18 C24.997,18 27.711,18.938 30.585,19.933 C33.524,20.949 36.564,22 40.857,22 C46.433,22 50.448,20.248 52.613,18.995 L48.43,55.357 L48.43,55.357 Z M53.878,8 L52.909,16.423 C51.871,17.182 47.566,20 40.858,20 C36.901,20 34.151,19.049 31.239,18.042 C28.336,17.038 25.333,16 21.143,16 C15.349,16 11.375,17.958 9.413,19.222 L8.122,8 L53.878,8 L53.878,8 Z" id="Shape" fill="#000000"></path>
        <path d="M29,40 L21,40 C19.346,40 18,41.346 18,43 L18,51 C18,52.654 19.346,54 21,54 L29,54 C30.654,54 32,52.654 32,51 L32,43 C32,41.346 30.654,40 29,40 L29,40 Z M30,51 C30,51.551 29.552,52 29,52 L21,52 C20.448,52 20,51.551 20,51 L20,43 C20,42.449 20.448,42 21,42 L29,42 C29.552,42 30,42.449 30,43 L30,51 L30,51 Z" id="Shape" fill="#000000"></path>
        <path d="M48.095,34.815 L42.185,28.904 C40.98,27.701 39.021,27.7 37.816,28.904 L31.906,34.814 C31.322,35.397 31.001,36.174 31.001,36.999 C31.001,37.824 31.322,38.601 31.906,39.184 L37.816,45.095 C38.419,45.697 39.21,45.998 40.001,45.998 C40.792,45.998 41.583,45.697 42.186,45.095 L48.096,39.185 C48.68,38.602 49.001,37.825 49.001,37 C49.001,36.175 48.679,35.399 48.095,34.815 L48.095,34.815 Z M46.681,37.771 L40.771,43.681 C40.347,44.106 39.654,44.105 39.23,43.681 L33.32,37.77 C33.114,37.564 33.001,37.291 33.001,37 C33.001,36.709 33.114,36.436 33.32,36.229 L39.23,30.319 C39.442,30.107 39.721,30 40.001,30 C40.281,30 40.56,30.106 40.772,30.318 L46.682,36.229 L46.682,36.229 C46.888,36.435 47.001,36.708 47.001,36.999 C47.001,37.29 46.887,37.564 46.681,37.771 L46.681,37.771 Z" id="Shape" fill="#000000"></path>
    </g>
</svg>