<?xml version="1.0" encoding="UTF-8" standalone="no"?>
<svg width="64px" height="64px" viewBox="0 0 64 64" version="1.1" xmlns="http://www.w3.org/2000/svg" xmlns:xlink="http://www.w3.org/1999/xlink">
    <!-- Generator: Sketch 3.7.2 (28276) - http://www.bohemiancoding.com/sketch -->
    <title>dri-bottle-champagne</title>
    <desc>Created with Sketch.</desc>
    <defs></defs>
    <g id="64px-Line" stroke="none" stroke-width="1" fill="none" fill-rule="evenodd">
        <g id="dri-bottle-champagne"></g>
        <path d="M25.536,19.06 C24.527,18.173 24,17.68 24,17 L24,6 C24,4.897 23.103,4 22,4 L18,4 C16.897,4 16,4.897 16,6 L16,17 C16,17.68 15.473,18.173 14.464,19.06 C12.686,20.619 10,22.978 10,29 L10,58 C10,59.103 10.897,60 12,60 L28,60 C29.103,60 30,59.103 30,58 L30,29 C30,22.978 27.314,20.619 25.536,19.06 L25.536,19.06 Z M28,46 L16,46 L16,32 L28,32 L28,46 L28,46 Z M28,30 L15,30 C14.448,30 14,30.447 14,31 L14,47 C14,47.553 14.448,48 15,48 L28,48 L28,58 L12,58 L12,29 C12,23.883 14.098,22.042 15.783,20.562 C16.923,19.562 18,18.616 18,17 L18,6 L22,6 L22,17 C22,18.616 23.077,19.562 24.217,20.562 C25.902,22.042 28,23.883 28,29 L28,30 L28,30 Z" id="Shape" fill="#000000"></path>
        <path d="M51,20 L39,20 C38.448,20 38,20.447 38,21 L38,37 C38,40.519 40.613,43.432 44,43.92 L44,58 L41,58 C40.448,58 40,58.447 40,59 C40,59.553 40.448,60 41,60 L49,60 C49.552,60 50,59.553 50,59 C50,58.447 49.552,58 49,58 L46,58 L46,43.92 C49.387,43.432 52,40.519 52,37 L52,21 C52,20.447 51.552,20 51,20 L51,20 Z M50,22 L50,26 L40,26 L40,22 L50,22 L50,22 Z M45,42 C42.243,42 40,39.757 40,37 L40,28 L50,28 L50,37 C50,39.757 47.757,42 45,42 L45,42 Z" id="Shape" fill="#000000"></path>
        <path d="M44,9 C44,10.654 45.346,12 47,12 C48.654,12 50,10.654 50,9 C50,7.346 48.654,6 47,6 C45.346,6 44,7.346 44,9 L44,9 Z M48,9 C48,9.552 47.551,10 47,10 C46.449,10 46,9.552 46,9 C46,8.448 46.449,8 47,8 C47.551,8 48,8.448 48,9 L48,9 Z" id="Shape" fill="#000000"></path>
        <circle id="Oval" fill="#000000" cx="42" cy="16" r="2"></circle>
    </g>
</svg>