<?xml version="1.0" encoding="UTF-8" standalone="no"?>
<svg width="64px" height="64px" viewBox="0 0 64 64" version="1.1" xmlns="http://www.w3.org/2000/svg" xmlns:xlink="http://www.w3.org/1999/xlink">
    <!-- Generator: Sketch 3.7.2 (28276) - http://www.bohemiancoding.com/sketch -->
    <title>dri-jug-glass</title>
    <desc>Created with Sketch.</desc>
    <defs></defs>
    <g id="64px-Line" stroke="none" stroke-width="1" fill="none" fill-rule="evenodd">
        <g id="dri-jug-glass"></g>
        <path d="M40.259,38.329 C40.07,38.538 39.977,38.818 40.005,39.1 L42.005,59.1 C42.056,59.611 42.486,60 43,60 L55,60 C55.514,60 55.944,59.611 55.995,59.1 L57.995,39.1 C58.023,38.819 57.931,38.539 57.741,38.329 C57.551,38.119 57.282,38 57,38 L41,38 C40.718,38 40.448,38.12 40.259,38.329 L40.259,38.329 Z M55.895,40 L54.095,58 L43.906,58 L42.106,40 L55.895,40 L55.895,40 Z" id="Shape" fill="#000000"></path>
        <path d="M45.999,56 C46.026,56 46.055,55.999 46.083,55.997 C46.634,55.951 47.042,55.468 46.996,54.917 L45.996,42.917 C45.951,42.367 45.481,41.957 44.917,42.003 C44.366,42.049 43.958,42.532 44.004,43.083 L45.004,55.083 C45.047,55.605 45.484,56 45.999,56 L45.999,56 Z" id="Shape" fill="#000000"></path>
        <path d="M17,56 C17.553,56 18,55.552 18,55 L18,11 C18,10.448 17.553,10 17,10 C16.447,10 16,10.448 16,11 L16,55 C16,55.552 16.447,56 17,56 L17,56 Z" id="Shape" fill="#000000"></path>
        <path d="M6,15 C6,11.48 8.614,8.568 12,8.08 L12,59 C12,59.552 12.447,60 13,60 L37,60 C37.553,60 38,59.552 38,59 L38,13 C38,8.85 39.199,8 41,8 C41.553,8 42,7.552 42,7 C42,6.448 41.553,6 41,6 L13,6 C8.037,6 4,10.038 4,15 L4,31 C4,31.552 4.447,32 5,32 C5.553,32 6,31.552 6,31 L6,15 L6,15 Z M36,13 L36,58 L14,58 L14,8 L37.058,8 C36,9.681 36,11.968 36,13 L36,13 Z" id="Shape" fill="#000000"></path>
    </g>
</svg>