<?xml version="1.0" encoding="UTF-8" standalone="no"?>
<svg width="64px" height="64px" viewBox="0 0 64 64" version="1.1" xmlns="http://www.w3.org/2000/svg" xmlns:xlink="http://www.w3.org/1999/xlink">
    <!-- Generator: Sketch 3.7.2 (28276) - http://www.bohemiancoding.com/sketch -->
    <title>dri-aperitif</title>
    <desc>Created with Sketch.</desc>
    <defs></defs>
    <g id="64px-Line" stroke="none" stroke-width="1" fill="none" fill-rule="evenodd">
        <g id="dri-aperitif"></g>
        <path d="M47.085,6.002 L15.915,6.002 C15.515,6.002 15.152,6.241 14.995,6.609 C11.052,15.841 10,23.77 10,27 C10,38.242 18.887,47.422 30,47.949 L30,58 L21,58 C20.447,58 20,58.447 20,59 C20,59.553 20.447,60 21,60 L41,60 C41.553,60 42,59.553 42,59 C42,58.447 41.553,58 41,58 L32,58 L32,47.949 C43.113,47.422 52,38.241 52,27 C52,24.287 51.172,16.553 48.038,6.699 C47.906,6.284 47.521,6.002 47.085,6.002 L47.085,6.002 Z M16.579,8.002 L46.35,8.002 C47.279,11 47.999,13.846 48.548,16.415 C47.21,16.946 43.934,18 39,18 C35.624,18 33.447,17.522 31.143,17.017 C28.864,16.517 26.506,16 23,16 C18.64,16 15.351,16.787 13.455,17.399 C14.159,14.592 15.164,11.404 16.579,8.002 L16.579,8.002 Z M31,46 C20.523,46 12,37.477 12,27 C12,25.511 12.24,22.961 12.919,19.717 C14.116,19.241 17.738,18 23,18 C26.289,18 28.438,18.472 30.714,18.971 C33.022,19.477 35.407,20 39,20 C43.904,20 47.278,19.034 48.954,18.406 C49.693,22.291 50,25.348 50,27 C50,37.477 41.477,46 31,46 L31,46 Z" id="Shape" fill="#000000"></path>
        <path d="M31,42 C22.729,42 16,35.271 16,27 C16,26.447 15.553,26 15,26 C14.447,26 14,26.447 14,27 C14,36.374 21.626,44 31,44 C31.553,44 32,43.553 32,43 C32,42.447 31.553,42 31,42 L31,42 Z" id="Shape" fill="#000000"></path>
    </g>
</svg>