<?xml version="1.0" encoding="UTF-8" standalone="no"?>
<svg width="64px" height="64px" viewBox="0 0 64 64" version="1.1" xmlns="http://www.w3.org/2000/svg" xmlns:xlink="http://www.w3.org/1999/xlink">
    <!-- Generator: Sketch 3.7.2 (28276) - http://www.bohemiancoding.com/sketch -->
    <title>dri-wine-glass-2</title>
    <desc>Created with Sketch.</desc>
    <defs></defs>
    <g id="64px-Line" stroke="none" stroke-width="1" fill="none" fill-rule="evenodd">
        <g id="dri-wine-glass-2"></g>
        <path d="M43.8,4 L18.2,4 C17.867,4 17.555,4.166 17.37,4.442 C17.232,4.647 14,9.536 14,16.118 C14,21.653 16.913,26.627 22.425,30.502 C25.551,32.7 28.645,33.948 30,34.437 L30,58 L21,58 C20.447,58 20,58.447 20,59 C20,59.553 20.447,60 21,60 L41,60 C41.553,60 42,59.553 42,59 C42,58.447 41.553,58 41,58 L32,58 L32,34.437 C33.355,33.949 36.449,32.701 39.575,30.502 C45.087,26.627 48,21.653 48,16.118 C48,9.536 44.768,4.647 44.63,4.442 C44.444,4.166 44.133,4 43.8,4 L43.8,4 Z M18.762,6 L43.239,6 C43.975,7.276 45.965,11.172 45.998,16 L16.004,16 C16.036,11.172 18.026,7.276 18.762,6 L18.762,6 Z M31,32.667 C29.003,31.974 17.499,27.578 16.135,18 L45.865,18 C44.501,27.578 32.997,31.974 31,32.667 L31,32.667 Z" id="Shape" fill="#000000"></path>
    </g>
</svg>