<?xml version="1.0" encoding="UTF-8" standalone="no"?>
<svg width="64px" height="64px" viewBox="0 0 64 64" version="1.1" xmlns="http://www.w3.org/2000/svg" xmlns:xlink="http://www.w3.org/1999/xlink">
    <!-- Generator: Sketch 3.7.2 (28276) - http://www.bohemiancoding.com/sketch -->
    <title>dri-tankard</title>
    <desc>Created with Sketch.</desc>
    <defs></defs>
    <g id="64px-Line" stroke="none" stroke-width="1" fill="none" fill-rule="evenodd">
        <g id="dri-tankard"></g>
        <path d="M51,22 L44,22 L44,19.444 C45.19,18.75 46,17.474 46,16 C46,13.901 44.376,12.176 42.319,12.013 C42.267,12.004 42.214,12 42.16,12 L40,12 C38.104,12 37.341,10.988 36.285,9.587 C35.081,7.989 33.581,6 30,6 C27.586,6 26.314,7.271 25.293,8.293 C24.339,9.247 23.586,10 22,10 C20.202,10 19.689,9.587 19.096,9.108 C18.483,8.614 17.721,8 16,8 C13.58,8 12.744,9.329 12.135,10.299 C11.515,11.287 11.066,12 9,12 L8,12 C5.794,12 4,13.794 4,16 C4,18.206 5.794,20 8,20 L8,50.745 C8,51.507 7.687,52.26 7.115,52.866 C6.406,53.621 6,54.764 6,56 C6,58.393 7.607,60 10,60 L42,60 C44.393,60 46,58.393 46,56 C46,54.764 45.594,53.621 44.884,52.865 C44.314,52.26 44,51.507 44,50.745 L44,48 L51,48 C54.859,48 58,44.859 58,41 L58,29 C58,25.141 54.859,22 51,22 L51,22 Z M44,28 L51,28 C51.552,28 52,28.448 52,29 L52,41 C52,41.552 51.552,42 51,42 L44,42 L44,28 L44,28 Z M6,16 C6,14.897 6.897,14 8,14 L9,14 C12.171,14 13.129,12.477 13.828,11.363 C14.381,10.484 14.684,10 16,10 C17.015,10 17.326,10.251 17.841,10.666 C18.579,11.261 19.497,12 22,12 C24.414,12 25.686,10.729 26.707,9.707 C27.661,8.753 28.414,8 30,8 C32.584,8 33.56,9.293 34.688,10.791 C35.821,12.295 37.106,14 40,14 L42,14 C43.103,14 44,14.897 44,16 C44,17.103 43.103,18 42,18 L28,18 C23.589,18 20,21.589 20,26 L20,28 C20,29.103 19.103,30 18,30 C16.897,30 16,29.103 16,28 L16,25 C16,21.141 12.859,18 9,18 L8,18 C6.897,18 6,17.103 6,16 L6,16 Z M42,58 L10,58 C8.195,58 8,56.602 8,56 C8,55.149 8.296,54.53 8.573,54.236 C9.493,53.258 10,52.018 10,50.745 L10,20.101 C12.279,20.566 14,22.585 14,25 L14,28 C14,30.206 15.794,32 18,32 C20.206,32 22,30.206 22,28 L22,26 C22,22.691 24.691,20 28,20 L42,20 L42,50.745 C42,52.018 42.507,53.259 43.427,54.235 C43.704,54.53 44,55.149 44,56 C44,56.602 43.805,58 42,58 L42,58 Z M56,41 C56,43.757 53.757,46 51,46 L44,46 L44,44 L51,44 C52.654,44 54,42.654 54,41 L54,29 C54,27.346 52.654,26 51,26 L44,26 L44,24 L51,24 C53.757,24 56,26.243 56,29 L56,41 L56,41 Z" id="Shape" fill="#000000"></path>
        <path d="M17,52 C16.448,52 16,51.552 16,51 L16,35 C16,34.447 15.553,34 15,34 C14.447,34 14,34.447 14,35 L14,51 C14,52.654 15.346,54 17,54 C17.553,54 18,53.553 18,53 C18,52.447 17.553,52 17,52 L17,52 Z" id="Shape" fill="#000000"></path>
        <path d="M27,52 C26.448,52 26,51.552 26,51 L26,33 C26,32.447 25.553,32 25,32 C24.447,32 24,32.447 24,33 L24,51 C24,52.654 25.346,54 27,54 C27.553,54 28,53.553 28,53 C28,52.447 27.553,52 27,52 L27,52 Z" id="Shape" fill="#000000"></path>
        <path d="M37,52 C36.448,52 36,51.552 36,51 L36,25 C36,24.447 35.553,24 35,24 C34.447,24 34,24.447 34,25 L34,51 C34,52.654 35.346,54 37,54 C37.553,54 38,53.553 38,53 C38,52.447 37.553,52 37,52 L37,52 Z" id="Shape" fill="#000000"></path>
    </g>
</svg>