<?xml version="1.0" encoding="UTF-8" standalone="no"?>
<svg width="64px" height="64px" viewBox="0 0 64 64" version="1.1" xmlns="http://www.w3.org/2000/svg" xmlns:xlink="http://www.w3.org/1999/xlink">
    <!-- Generator: Sketch 3.7.2 (28276) - http://www.bohemiancoding.com/sketch -->
    <title>dri-cup-tea-2</title>
    <desc>Created with Sketch.</desc>
    <defs></defs>
    <g id="64px-Line" stroke="none" stroke-width="1" fill="none" fill-rule="evenodd">
        <g id="dri-cup-tea-2"></g>
        <path d="M11,60 L39,60 C41.757,60 44,57.757 44,55 L44,43.274 C45.467,44.941 47.61,46 50,46 C54.411,46 58,42.411 58,38 L58,32 C58,27.589 54.411,24 50,24 C47.61,24 45.467,25.059 44,26.726 L44,23 C44,21.346 42.654,20 41,20 L9,20 C7.346,20 6,21.346 6,23 L6,55 C6,57.757 8.243,60 11,60 L11,60 Z M50,26 C53.309,26 56,28.691 56,32 L56,38 C56,41.309 53.309,44 50,44 C46.691,44 44,41.309 44,38 L44,32 C44,28.691 46.691,26 50,26 L50,26 Z M8,23 C8,22.448 8.448,22 9,22 L18,22 L18,32.586 L12.293,38.293 C12.105,38.48 12,38.734 12,39 L12,49 C12,49.553 12.447,50 13,50 L25,50 C25.553,50 26,49.553 26,49 L26,39 C26,38.734 25.895,38.48 25.707,38.293 L20,32.586 L20,22 L41,22 C41.552,22 42,22.448 42,23 L42,55 C42,56.654 40.654,58 39,58 L11,58 C9.346,58 8,56.654 8,55 L8,23 L8,23 Z M19,34.414 L24,39.414 L24,48 L14,48 L14,39.414 L19,34.414 L19,34.414 Z" id="Shape" fill="#000000"></path>
        <path d="M18,9.5 C18,7.578 15.743,6.269 15.485,6.126 C15.003,5.856 14.393,6.032 14.126,6.515 C13.857,6.997 14.031,7.606 14.515,7.874 C15.017,8.153 16,8.941 16,9.5 C16,10.399 15.689,10.787 15.219,11.375 C14.676,12.055 14,12.899 14,14.5 C14,16.422 16.257,17.731 16.515,17.874 C16.668,17.96 16.835,18 16.999,18 C17.351,18 17.691,17.814 17.874,17.485 C18.143,17.003 17.969,16.394 17.485,16.126 C16.983,15.847 16,15.059 16,14.5 C16,13.601 16.311,13.213 16.781,12.625 C17.324,11.945 18,11.101 18,9.5 L18,9.5 Z" id="Shape" fill="#000000"></path>
        <path d="M26,9.5 C26,7.578 23.743,6.269 23.485,6.126 C23.003,5.856 22.394,6.032 22.126,6.515 C21.858,6.998 22.031,7.606 22.515,7.874 C23.017,8.153 24,8.941 24,9.5 C24,10.399 23.689,10.787 23.219,11.375 C22.676,12.055 22,12.899 22,14.5 C22,16.422 24.257,17.731 24.515,17.874 C24.668,17.96 24.835,18 24.999,18 C25.351,18 25.691,17.814 25.874,17.485 C26.143,17.003 25.969,16.394 25.485,16.126 C24.983,15.847 24,15.059 24,14.5 C24,13.601 24.311,13.213 24.781,12.625 C25.324,11.945 26,11.101 26,9.5 L26,9.5 Z" id="Shape" fill="#000000"></path>
        <path d="M34,9.5 C34,7.578 31.743,6.269 31.485,6.126 C31.003,5.856 30.393,6.032 30.126,6.515 C29.857,6.997 30.031,7.606 30.515,7.874 C31.017,8.153 32,8.941 32,9.5 C32,10.399 31.689,10.787 31.219,11.375 C30.676,12.055 30,12.899 30,14.5 C30,16.422 32.257,17.731 32.515,17.874 C32.668,17.96 32.835,18 32.999,18 C33.351,18 33.691,17.814 33.874,17.485 C34.143,17.003 33.969,16.394 33.485,16.126 C32.983,15.847 32,15.059 32,14.5 C32,13.601 32.311,13.213 32.781,12.625 C33.324,11.945 34,11.101 34,9.5 L34,9.5 Z" id="Shape" fill="#000000"></path>
    </g>
</svg>