<?xml version="1.0" encoding="UTF-8" standalone="no"?>
<svg width="64px" height="64px" viewBox="0 0 64 64" version="1.1" xmlns="http://www.w3.org/2000/svg" xmlns:xlink="http://www.w3.org/1999/xlink">
    <!-- Generator: Sketch 3.7.2 (28276) - http://www.bohemiancoding.com/sketch -->
    <title>dri-cork</title>
    <desc>Created with Sketch.</desc>
    <defs></defs>
    <g id="64px-Line" stroke="none" stroke-width="1" fill="none" fill-rule="evenodd">
        <g id="dri-cork"></g>
        <path d="M25,52 C25.553,52 26,51.553 26,51 C26,50.447 25.553,50 25,50 C24.448,50 24,49.552 24,49 C24,48.447 23.553,48 23,48 C22.447,48 22,48.447 22,49 C22,50.654 23.346,52 25,52 L25,52 Z" id="Shape" fill="#000000"></path>
        <path d="M41,46 C41.553,46 42,45.553 42,45 C42,44.447 41.553,44 41,44 C40.448,44 40,43.552 40,43 C40,42.447 39.553,42 39,42 C38.447,42 38,42.447 38,43 C38,44.654 39.346,46 41,46 L41,46 Z" id="Shape" fill="#000000"></path>
        <path d="M27,16 C26.448,16 26,15.552 26,15 C26,14.447 25.553,14 25,14 C24.447,14 24,14.447 24,15 C24,16.654 25.346,18 27,18 C27.553,18 28,17.553 28,17 C28,16.447 27.553,16 27,16 L27,16 Z" id="Shape" fill="#000000"></path>
        <path d="M32,6 C20.785,6 12,10.612 12,16.5 L12,25 C12,27.757 14.243,30 17,30 L17.839,30 L14.032,55.501 C13.888,56.624 14.238,57.76 14.991,58.616 C15.765,59.495 16.888,60 18.072,60 L45.927,60 C47.111,60 48.234,59.495 49.008,58.616 C49.761,57.76 50.111,56.624 49.964,55.48 L46.161,30 L47,30 C49.757,30 52,27.757 52,25 L52,16.5 C52,10.612 43.215,6 32,6 L32,6 Z M47.983,55.755 C48.055,56.317 47.886,56.863 47.506,57.295 C47.111,57.743 46.536,58 45.927,58 L18.072,58 C17.463,58 16.887,57.743 16.493,57.295 C16.113,56.863 15.944,56.316 16.014,55.775 L19.862,30 L44.138,30 L47.983,55.755 L47.983,55.755 Z M50,25 C50,26.654 48.654,28 47,28 L17,28 C15.346,28 14,26.654 14,25 L14,16.5 C14,11.893 22.243,8 32,8 C41.757,8 50,11.893 50,16.5 L50,25 L50,25 Z" id="Shape" fill="#000000"></path>
        <path d="M30,40 C30.553,40 31,39.553 31,39 C31,38.447 30.553,38 30,38 C28.897,38 28,37.103 28,36 C28,35.447 27.553,35 27,35 C26.447,35 26,35.447 26,36 C26,38.206 27.794,40 30,40 L30,40 Z" id="Shape" fill="#000000"></path>
        <path d="M42,22 C40.897,22 40,21.103 40,20 C40,19.447 39.553,19 39,19 C38.447,19 38,19.447 38,20 C38,22.206 39.794,24 42,24 C42.553,24 43,23.553 43,23 C43,22.447 42.553,22 42,22 L42,22 Z" id="Shape" fill="#000000"></path>
    </g>
</svg>