<?xml version="1.0" encoding="UTF-8" standalone="no"?>
<svg width="64px" height="64px" viewBox="0 0 64 64" version="1.1" xmlns="http://www.w3.org/2000/svg" xmlns:xlink="http://www.w3.org/1999/xlink">
    <!-- Generator: Sketch 3.7.2 (28276) - http://www.bohemiancoding.com/sketch -->
    <title>dri-straw-lemon</title>
    <desc>Created with Sketch.</desc>
    <defs></defs>
    <g id="64px-Line" stroke="none" stroke-width="1" fill="none" fill-rule="evenodd">
        <g id="dri-straw-lemon"></g>
        <path d="M27,38 C25.346,38 24,39.346 24,41 C24,42.654 25.346,44 27,44 C28.654,44 30,42.654 30,41 C30,39.346 28.654,38 27,38 L27,38 Z M27,42 C26.449,42 26,41.551 26,41 C26,40.449 26.449,40 27,40 C27.551,40 28,40.449 28,41 C28,41.551 27.551,42 27,42 L27,42 Z" id="Shape" fill="#000000"></path>
        <circle id="Oval" fill="#000000" cx="24" cy="52" r="2"></circle>
        <circle id="Oval" fill="#000000" cx="38" cy="48" r="2"></circle>
        <path d="M47,6 C41.272,6 36.558,10.402 36.051,16 L19.82,16 L17.981,6.804 C17.92,6.498 17.72,6.239 17.44,6.102 C17.16,5.965 16.832,5.967 16.553,6.106 L4.553,12.106 C4.059,12.353 3.859,12.954 4.106,13.448 C4.353,13.942 4.953,14.142 5.448,13.895 L16.277,8.48 L17.78,16 L13,16 C12.718,16 12.45,16.119 12.26,16.327 C12.07,16.535 11.978,16.814 12.004,17.095 L15.832,57.284 C15.979,58.833 17.263,60 18.818,60 L41.181,60 C42.736,60 44.02,58.833 44.167,57.284 L46.956,27.998 C46.972,27.998 46.986,28 47,28 C53.065,28 58,23.065 58,17 C58,10.935 53.065,6 47,6 L47,6 Z M45.9,18 L44.724,30.346 C43.636,30.843 40.705,32 37,32 C34.599,32 32.441,31.522 30.156,31.017 C27.895,30.517 25.557,30 23,30 C19.652,30 16.922,30.872 15.385,31.5 L14.1,18 L45.9,18 L45.9,18 Z M42.177,57.095 C42.128,57.611 41.7,58 41.182,58 L18.818,58 C18.3,58 17.872,57.611 17.823,57.095 L15.584,33.592 C16.728,33.07 19.5,32 23,32 C25.339,32 27.469,32.471 29.724,32.97 C32.013,33.477 34.38,34 37,34 C40.22,34 42.899,33.218 44.51,32.603 L42.177,57.095 L42.177,57.095 Z M47.148,25.992 L47.995,17.094 C48.021,16.814 47.929,16.535 47.739,16.326 C47.549,16.117 47.282,16 47,16 L38.059,16 C38.559,11.507 42.376,8 47,8 C51.962,8 56,12.038 56,17 C56,21.912 52.042,25.912 47.148,25.992 L47.148,25.992 Z" id="Shape" fill="#000000"></path>
    </g>
</svg>