<?xml version="1.0" encoding="UTF-8" standalone="no"?>
<svg width="64px" height="64px" viewBox="0 0 64 64" version="1.1" xmlns="http://www.w3.org/2000/svg" xmlns:xlink="http://www.w3.org/1999/xlink">
    <!-- Generator: Sketch 3.7.2 (28276) - http://www.bohemiancoding.com/sketch -->
    <title>dri-cocktail-2</title>
    <desc>Created with Sketch.</desc>
    <defs></defs>
    <g id="64px-Line" stroke="none" stroke-width="1" fill="none" fill-rule="evenodd">
        <g id="dri-cocktail-2"></g>
        <path d="M57,6 L5,6 C4.447,6 4,6.448 4,7 C4,14.947 10.213,21.47 18.036,21.969 C18.509,28.355 23.618,33.462 30,33.951 L30,58 L21,58 C20.447,58 20,58.448 20,59 C20,59.552 20.447,60 21,60 L41,60 C41.553,60 42,59.552 42,59 C42,58.448 41.553,58 41,58 L32,58 L32,33.952 C38.381,33.463 43.491,28.356 43.964,21.97 C51.787,21.47 58,14.947 58,7 C58,6.448 57.553,6 57,6 L57,6 Z M43,20 C42.447,20 42,20.448 42,21 C42,27.065 37.065,32 31,32 C24.935,32 20,27.065 20,21 C20,20.448 19.553,20 19,20 C12.168,20 6.551,14.703 6.038,8 L55.962,8 C55.449,14.703 49.832,20 43,20 L43,20 Z" id="Shape" fill="#000000"></path>
        <path d="M31,30 C31.553,30 32,29.552 32,29 C32,28.448 31.553,28 31,28 C27.141,28 24,24.86 24,21 C24,20.448 23.553,20 23,20 C22.447,20 22,20.448 22,21 C22,25.962 26.037,30 31,30 L31,30 Z" id="Shape" fill="#000000"></path>
        <path d="M8.914,11.397 C10.665,15.408 14.624,18 19,18 C19.553,18 20,17.552 20,17 C20,16.448 19.553,16 19,16 C15.419,16 12.18,13.879 10.748,10.597 C10.526,10.092 9.943,9.86 9.431,10.08 C8.925,10.301 8.693,10.891 8.914,11.397 L8.914,11.397 Z" id="Shape" fill="#000000"></path>
    </g>
</svg>