<?xml version="1.0" encoding="UTF-8" standalone="no"?>
<svg width="64px" height="64px" viewBox="0 0 64 64" version="1.1" xmlns="http://www.w3.org/2000/svg" xmlns:xlink="http://www.w3.org/1999/xlink">
    <!-- Generator: Sketch 3.7.2 (28276) - http://www.bohemiancoding.com/sketch -->
    <title>dri-bottle-wine</title>
    <desc>Created with Sketch.</desc>
    <defs></defs>
    <g id="64px-Line" stroke="none" stroke-width="1" fill="none" fill-rule="evenodd">
        <g id="dri-bottle-wine"></g>
        <path d="M10,60 L26,60 C27.103,60 28,59.103 28,58 L28,29 C28,22.977 25.314,20.62 23.536,19.06 C22.527,18.173 22,17.679 22,17 L22,6 C22,4.897 21.103,4 20,4 L16,4 C14.897,4 14,4.897 14,6 L14,17 C14,17.679 13.473,18.173 12.464,19.06 C10.686,20.62 8,22.977 8,29 L8,58 C8,59.103 8.897,60 10,60 L10,60 Z M26,46 L14,46 L14,32 L26,32 L26,46 L26,46 Z M10,29 C10,23.883 12.098,22.042 13.783,20.562 C14.923,19.562 16,18.616 16,17 L16,6 L20,6 L20,17 C20,18.617 21.077,19.562 22.217,20.562 C23.902,22.042 26,23.883 26,29 L26,30 L13,30 C12.448,30 12,30.448 12,31 L12,47 C12,47.552 12.448,48 13,48 L26,48 L26,58 L10,58 L10,29 L10,29 Z" id="Shape" fill="#000000"></path>
        <path d="M42,45.793 L42,58 L37,58 C36.448,58 36,58.448 36,59 C36,59.552 36.448,60 37,60 L49,60 C49.552,60 50,59.552 50,59 C50,58.448 49.552,58 49,58 L44,58 L44,45.793 C46.403,44.886 54,41.431 54,34 C54,29.746 51.92,26.578 51.832,26.445 C51.646,26.167 51.334,26 51,26 L35,26 C34.666,26 34.354,26.167 34.168,26.445 C34.08,26.578 32,29.746 32,34 C32,41.431 39.597,44.886 42,45.793 L42,45.793 Z M42.999,44.027 C41.587,43.52 35.576,41.071 34.265,36 L51.733,36 C50.419,41.058 44.408,43.517 42.999,44.027 L42.999,44.027 Z M35.572,28 L50.429,28 C50.935,28.924 51.999,31.201 51.999,34 L33.999,34 C34,31.218 35.067,28.929 35.572,28 L35.572,28 Z" id="Shape" fill="#000000"></path>
    </g>
</svg>