<?xml version="1.0" encoding="UTF-8" standalone="no"?>
<svg width="64px" height="64px" viewBox="0 0 64 64" version="1.1" xmlns="http://www.w3.org/2000/svg" xmlns:xlink="http://www.w3.org/1999/xlink">
    <!-- Generator: Sketch 3.7.2 (28276) - http://www.bohemiancoding.com/sketch -->
    <title>dri-coffee-jug</title>
    <desc>Created with Sketch.</desc>
    <defs></defs>
    <g id="64px-Line" stroke="none" stroke-width="1" fill="none" fill-rule="evenodd">
        <g id="dri-coffee-jug"></g>
        <path d="M19.583,57.909 C19.714,57.969 19.856,58 20,58 L38,58 C38.144,58 38.287,57.969 38.417,57.909 C46.328,54.275 51.541,46.578 51.959,38.096 C51.964,38.045 51.967,37.997 51.965,37.947 C51.978,37.631 52,37.317 52,37 C52,29.617 48.43,22.667 42.445,18.346 L45.771,11.694 C46.871,10.602 48.372,10 50,10 C53.309,10 56,12.691 56,16 L56,33 C56,33.552 56.448,34 57,34 C57.552,34 58,33.552 58,33 L58,16 C58,11.589 54.411,8 50,8 C48.003,8 46.146,8.698 44.709,9.962 L9.11,6.006 C8.724,5.959 8.348,6.147 8.146,6.48 C7.944,6.812 7.952,7.231 8.168,7.555 L15.426,18.443 C10.118,22.331 6.746,28.297 6.117,34.788 C6.11,34.821 6.112,34.853 6.108,34.886 C6.043,35.586 6,36.29 6,37 C6,45.914 11.332,54.121 19.583,57.909 L19.583,57.909 Z M37.779,56 L20.221,56 C12.79,52.498 8,45.064 8,37 C8,36.905 8.007,36.811 8.009,36.716 C10.207,37.942 14.554,40 19,40 C22.014,40 24.676,39.067 27.494,38.08 C30.414,37.058 33.432,36 37,36 C42.612,36 48.095,37.938 49.928,38.653 C49.323,46.065 44.699,52.737 37.779,56 L37.779,56 Z M43.464,11.835 L40.382,18 L17.535,18 L11.022,8.231 L43.464,11.835 L43.464,11.835 Z M16.67,20 L41.331,20 C46.638,23.857 49.839,29.987 49.986,36.532 C47.587,35.642 42.423,34 37,34 C33.092,34 29.91,35.115 26.833,36.193 C24.18,37.122 21.673,38 19,38 C14.376,38 9.661,35.396 8.152,34.485 C8.85,28.723 11.919,23.451 16.67,20 L16.67,20 Z" id="Shape" fill="#000000"></path>
    </g>
</svg>