<?xml version="1.0" encoding="UTF-8" standalone="no"?>
<svg width="64px" height="64px" viewBox="0 0 64 64" version="1.1" xmlns="http://www.w3.org/2000/svg" xmlns:xlink="http://www.w3.org/1999/xlink">
    <!-- Generator: Sketch 3.7.2 (28276) - http://www.bohemiancoding.com/sketch -->
    <title>dri-juice-bottle</title>
    <desc>Created with Sketch.</desc>
    <defs></defs>
    <g id="64px-Line" stroke="none" stroke-width="1" fill="none" fill-rule="evenodd">
        <g id="dri-juice-bottle"></g>
        <path d="M52,24 C52,19.612 44.633,14.733 40,12.827 L40,7 C40,6.448 39.553,6 39,6 L25,6 C24.447,6 24,6.448 24,7 L24,12.827 C19.367,14.733 12,19.612 12,24 C12,26.084 13.068,27.924 14.687,29 C13.069,30.076 12,31.916 12,34 C12,36.084 13.068,37.924 14.687,39 C13.069,40.076 12,41.916 12,44 C12,46.084 13.068,47.924 14.687,49 C13.069,50.076 12,51.916 12,54 C12,57.309 14.691,60 18,60 L46,60 C49.309,60 52,57.309 52,54 C52,51.916 50.932,50.076 49.313,49 C50.931,47.924 52,46.084 52,44 C52,41.916 50.932,40.076 49.313,39 C50.931,37.924 52,36.084 52,34 C52,31.916 50.932,30.076 49.313,29 C50.932,27.924 52,26.084 52,24 L52,24 Z M26,12 L26,8 L38,8 L38,12 L26,12 L26,12 Z M46,28 C45.447,28 45,28.448 45,29 C45,29.552 45.447,30 46,30 C48.206,30 50,31.794 50,34 C50,36.206 48.206,38 46,38 C45.447,38 45,38.448 45,39 C45,39.552 45.447,40 46,40 C48.206,40 50,41.794 50,44 C50,46.206 48.206,48 46,48 C45.447,48 45,48.448 45,49 C45,49.552 45.447,50 46,50 C48.206,50 50,51.794 50,54 C50,56.206 48.206,58 46,58 L18,58 C15.794,58 14,56.206 14,54 C14,51.794 15.794,50 18,50 C18.553,50 19,49.552 19,49 C19,48.448 18.553,48 18,48 C15.794,48 14,46.206 14,44 C14,41.794 15.794,40 18,40 C18.553,40 19,39.552 19,39 C19,38.448 18.553,38 18,38 C15.794,38 14,36.206 14,34 C14,31.794 15.794,30 18,30 C18.553,30 19,29.552 19,29 C19,28.448 18.553,28 18,28 C15.794,28 14,26.206 14,24 C14,20.027 24.632,14 27,14 L37,14 C39.368,14 50,20.027 50,24 C50,26.206 48.206,28 46,28 L46,28 Z" id="Shape" fill="#000000"></path>
        <path d="M41,26 L23,26 C22.447,26 22,26.448 22,27 L22,49 C22,49.552 22.447,50 23,50 L41,50 C41.553,50 42,49.552 42,49 L42,27 C42,26.448 41.553,26 41,26 L41,26 Z M40,48 L24,48 L24,28 L40,28 L40,48 L40,48 Z" id="Shape" fill="#000000"></path>
    </g>
</svg>