<?xml version="1.0" encoding="UTF-8" standalone="no"?>
<svg width="64px" height="64px" viewBox="0 0 64 64" version="1.1" xmlns="http://www.w3.org/2000/svg" xmlns:xlink="http://www.w3.org/1999/xlink">
    <!-- Generator: Sketch 3.7.2 (28276) - http://www.bohemiancoding.com/sketch -->
    <title>dri-beer-bottle</title>
    <desc>Created with Sketch.</desc>
    <defs></defs>
    <g id="64px-Line" stroke="none" stroke-width="1" fill="none" fill-rule="evenodd">
        <g id="dri-beer-bottle"></g>
        <path d="M25.536,23.06 C24.526,22.173 24,21.68 24,21 L24,8 C24,6.897 23.103,6 22,6 L14,6 C12.897,6 12,6.897 12,8 L12,21 C12,21.68 11.474,22.173 10.464,23.06 C8.687,24.62 6,26.978 6,33 L6,57 C6,58.654 7.346,60 9,60 L27,60 C28.654,60 30,58.654 30,57 L30,33 C30,26.978 27.313,24.619 25.536,23.06 L25.536,23.06 Z M22,8 L22,12 L14,12 L14,8 L22,8 L22,8 Z M28,44 L22.843,44 C22.352,44 21.934,44.356 21.856,44.841 C21.374,47.83 19.753,50 18,50 C16.246,50 14.625,47.83 14.146,44.842 C14.068,44.357 13.65,44 13.159,44 L8,44 L8,40 L13.157,40 C13.648,40 14.066,39.644 14.144,39.159 C14.626,36.17 16.247,34 18,34 C19.754,34 21.375,36.17 21.854,39.158 C21.932,39.643 22.35,40 22.841,40 L28,40 L28,44 L28,44 Z M27,58 L9,58 C8.448,58 8,57.552 8,57 L8,46 L12.334,45.999 C13.161,49.572 15.413,52 18,52 C20.586,52 22.838,49.573 23.665,46 L28,46 L28,57 C28,57.552 27.552,58 27,58 L27,58 Z M28,38 L23.666,38.001 C22.839,34.428 20.587,32 18,32 C15.414,32 13.162,34.427 12.335,38 L8,38 L8,33 C8,27.883 10.098,26.042 11.783,24.562 C12.923,23.561 14,22.616 14,21 L14,14 L22,14 L22,21 C22,22.616 23.077,23.562 24.217,24.562 C25.903,26.041 28,27.882 28,33 L28,38 L28,38 Z" id="Shape" fill="#000000"></path>
        <path d="M57,36 L35,36 C34.703,36 34.422,36.132 34.232,36.359 C34.042,36.587 33.962,36.886 34.016,37.178 L38.016,59.178 C38.102,59.654 38.516,59.999 38.999,59.999 L52.999,59.999 C53.482,59.999 53.896,59.653 53.982,59.178 L57.982,37.178 C58.036,36.886 57.957,36.586 57.766,36.359 C57.578,36.132 57.297,36 57,36 L57,36 Z M55.802,38 L55.075,42 L36.926,42 L36.199,38 L55.802,38 L55.802,38 Z M52.165,58 L39.835,58 L37.289,44 L54.711,44 L52.165,58 L52.165,58 Z" id="Shape" fill="#000000"></path>
    </g>
</svg>