<?xml version="1.0" encoding="UTF-8" standalone="no"?>
<svg width="64px" height="64px" viewBox="0 0 64 64" version="1.1" xmlns="http://www.w3.org/2000/svg" xmlns:xlink="http://www.w3.org/1999/xlink">
    <!-- Generator: Sketch 3.7.2 (28276) - http://www.bohemiancoding.com/sketch -->
    <title>dri-bottle-opener</title>
    <desc>Created with Sketch.</desc>
    <defs></defs>
    <g id="64px-Line" stroke="none" stroke-width="1" fill="none" fill-rule="evenodd">
        <g id="dri-bottle-opener"></g>
        <path d="M49.069,14.931 C40.259,6.121 31.441,3.557 26.601,8.397 C23.559,11.439 23.033,17.63 23.128,22.289 C23.18,24.844 22.192,27.327 20.418,29.101 L7,42.519 C5.065,44.453 4,47.025 4,49.76 C4,52.495 5.065,55.067 7,57.001 C8.934,58.936 11.505,60 14.241,60 C16.977,60 19.548,58.936 21.482,57.001 L34.9,43.582 C36.675,41.808 39.177,40.806 41.712,40.872 C46.372,40.96 52.561,40.44 55.603,37.398 C58.075,34.927 58.653,31.382 57.276,27.148 C56.012,23.261 53.174,19.036 49.069,14.931 L49.069,14.931 Z M54.189,35.984 C52.203,37.969 47.785,38.994 41.753,38.872 C38.667,38.851 35.644,40.011 33.486,42.168 L20.068,55.587 C16.855,58.799 11.628,58.801 8.414,55.587 C6.857,54.03 6,51.961 6,49.76 C6,47.559 6.857,45.489 8.414,43.933 L21.832,30.514 C23.989,28.358 25.19,25.344 25.128,22.247 C25.005,16.212 26.03,11.796 28.015,9.81 C29.227,8.598 30.819,8.012 32.671,8.012 C36.809,8.012 42.248,10.937 47.655,16.344 C51.482,20.172 54.224,24.228 55.374,27.767 C56.162,30.188 56.595,33.579 54.189,35.984 L54.189,35.984 Z" id="Shape" fill="#000000"></path>
        <path d="M46.001,23.324 C44.922,22.782 43.807,22.22 42.793,21.207 C41.779,20.194 41.218,19.078 40.676,17.999 C39.688,16.033 38.665,14 35.172,14 C33.25,14 31.629,15.251 30.726,17.432 C29.285,20.911 29.842,26.451 33.697,30.305 C36.295,32.903 39.658,34.003 42.64,34.003 C44.082,34.003 45.435,33.745 46.57,33.275 C48.751,32.372 50.001,30.752 50.001,28.829 C50,25.335 47.967,24.312 46.001,23.324 L46.001,23.324 Z M45.803,31.428 C43.007,32.586 38.309,32.09 35.11,28.891 C31.91,25.691 31.414,20.993 32.572,18.198 C32.912,17.377 33.701,16.001 35.171,16.001 C37.432,16.001 37.949,17.03 38.888,18.898 C39.473,20.061 40.136,21.38 41.378,22.622 C42.62,23.864 43.939,24.527 45.102,25.112 C46.97,26.051 47.999,26.569 47.999,28.83 C48,30.299 46.624,31.088 45.803,31.428 L45.803,31.428 Z" id="Shape" fill="#000000"></path>
        <path d="M14,46 C11.794,46 10,47.794 10,50 C10,52.206 11.794,54 14,54 C16.206,54 18,52.206 18,50 C18,47.794 16.206,46 14,46 L14,46 Z M14,52 C12.897,52 12,51.103 12,50 C12,48.897 12.897,48 14,48 C15.103,48 16,48.897 16,50 C16,51.103 15.103,52 14,52 L14,52 Z" id="Shape" fill="#000000"></path>
    </g>
</svg>