<?xml version="1.0" encoding="UTF-8" standalone="no"?>
<svg width="64px" height="64px" viewBox="0 0 64 64" version="1.1" xmlns="http://www.w3.org/2000/svg" xmlns:xlink="http://www.w3.org/1999/xlink">
    <!-- Generator: Sketch 3.7.2 (28276) - http://www.bohemiancoding.com/sketch -->
    <title>dri-teapot</title>
    <desc>Created with Sketch.</desc>
    <defs></defs>
    <g id="64px-Line" stroke="none" stroke-width="1" fill="none" fill-rule="evenodd">
        <g id="dri-teapot"></g>
        <path d="M21.808,26.395 C21.417,26.004 20.785,26.004 20.394,26.395 C17.561,29.228 16,32.995 16,37.001 C16,41.007 17.561,44.774 20.394,47.607 C20.589,47.802 20.845,47.9 21.101,47.9 C21.357,47.9 21.613,47.802 21.808,47.607 C22.199,47.216 22.199,46.584 21.808,46.193 C19.353,43.738 18,40.473 18,37.001 C18,33.529 19.353,30.264 21.808,27.809 C22.198,27.418 22.198,26.785 21.808,26.395 L21.808,26.395 Z" id="Shape" fill="#000000"></path>
        <path d="M59,22 C55.448,22 53.461,23.861 51.707,25.504 C50.427,26.703 49.3,27.749 47.706,27.956 C46.92,26.51 45.938,25.189 44.818,24 L45,24 C45.553,24 46,23.553 46,23 C46,22.447 45.553,22 45,22 L42.619,22 C40.327,20.22 37.627,18.945 34.674,18.364 C35.489,17.474 36,16.3 36,15 C36,12.243 33.757,10 31,10 C28.243,10 26,12.243 26,15 C26,16.299 26.51,17.474 27.326,18.364 C24.373,18.945 21.674,20.22 19.381,22 L17,22 C16.447,22 16,22.447 16,23 C16,23.553 16.447,24 17,24 L17.182,24 C15.867,25.397 14.766,26.991 13.919,28.735 C13.009,28.257 12.02,28 11.001,28 C7.142,28 4.001,31.589 4.001,36 C4.001,40.411 7.142,44 11.001,44 C11.742,44 12.476,43.851 13.177,43.591 C14.789,47.966 17.982,51.664 22.287,53.889 C22.429,53.962 22.586,54 22.746,54 L39.254,54.002 C39.414,54.002 39.571,53.964 39.713,53.891 C43.898,51.727 47.028,48.171 48.681,43.956 C52.508,43.516 53.807,39.48 54.959,35.893 C56.135,32.226 56.994,30 59.002,30 C59.555,30 60.002,29.553 60.002,29 L60.002,23 C60,22.447 59.553,22 59,22 L59,22 Z M28,15 C28,13.346 29.346,12 31,12 C32.654,12 34,13.346 34,15 C34,16.654 32.654,18 31,18 C29.346,18 28,16.654 28,15 L28,15 Z M31,20 C33.885,20 36.601,20.727 38.983,22 L23.017,22 C25.399,20.727 28.115,20 31,20 L31,20 Z M11,42 C8.243,42 6,39.309 6,36 C6,32.691 8.243,30 11,30 C11.745,30 12.473,30.203 13.139,30.583 C12.415,32.591 12,34.746 12,37 C12,38.605 12.21,40.173 12.591,41.682 C12.081,41.889 11.55,42 11,42 L11,42 Z M39.006,52.002 L22.992,52 C17.438,49.031 14,43.306 14,37 C14,31.788 16.363,27.121 20.068,24 L41.932,24 C45.637,27.121 48,31.788 48,37 C48,43.307 44.561,49.033 39.006,52.002 L39.006,52.002 Z M58,28.104 C55.155,28.728 54.088,32.054 53.053,35.281 C52.008,38.537 51.119,40.888 49.407,41.693 C49.79,40.181 50,38.609 50,37 C50,34.46 49.49,32.04 48.582,29.823 C50.461,29.388 51.79,28.167 53.074,26.964 C54.494,25.634 55.845,24.369 58,24.068 L58,28.104 L58,28.104 Z" id="Shape" fill="#000000"></path>
    </g>
</svg>