<?xml version="1.0" encoding="UTF-8" standalone="no"?>
<svg width="64px" height="64px" viewBox="0 0 64 64" version="1.1" xmlns="http://www.w3.org/2000/svg" xmlns:xlink="http://www.w3.org/1999/xlink">
    <!-- Generator: Sketch 3.7.2 (28276) - http://www.bohemiancoding.com/sketch -->
    <title>dri-cocktail-3</title>
    <desc>Created with Sketch.</desc>
    <defs></defs>
    <g id="64px-Line" stroke="none" stroke-width="1" fill="none" fill-rule="evenodd">
        <g id="dri-cocktail-3"></g>
        <path d="M16,34 C16,36.56 17.248,39.534 19.257,41.763 C20.875,43.558 23.688,45.649 28,45.941 L28,58 L21,58 C20.447,58 20,58.448 20,59 C20,59.552 20.447,60 21,60 L37,60 C37.553,60 38,59.552 38,59 C38,58.448 37.553,58 37,58 L30,58 L30,45.947 C37.733,45.404 42,38.704 42,34 C42,31.843 41.528,29.621 41.029,27.269 C40.523,24.883 40,22.416 40,20 C40,15.674 41.696,13.722 41.734,13.679 C42.003,13.389 42.075,12.967 41.918,12.604 C41.76,12.237 41.399,12 41,12 L36.381,12 L37.612,6.77 L46.376,13.781 C46.81,14.127 47.437,14.055 47.782,13.625 C48.127,13.194 48.056,12.564 47.626,12.22 L37.626,4.22 C37.356,4.006 36.999,3.944 36.675,4.055 C36.351,4.166 36.107,4.437 36.028,4.771 L34.325,12 L17,12 C16.604,12 16.25,12.237 16.09,12.598 C15.929,12.959 16,13.385 16.266,13.678 C16.283,13.697 18,15.646 18,20 C18,22.416 17.477,24.883 16.971,27.269 C16.472,29.621 16,31.843 16,34 L16,34 Z M29,44 C21.321,44 18,37.378 18,34 C18,32.053 18.45,29.931 18.927,27.684 C19.077,26.976 19.225,26.258 19.365,25.537 C19.889,25.119 21.541,24 24.286,24 C26.034,24 27.289,24.454 28.618,24.934 C29.399,25.216 30.197,25.501 31.1,25.706 L28.026,38.771 C27.9,39.309 28.233,39.847 28.77,39.974 C28.847,39.992 28.924,40 29,40 C29.453,40 29.864,39.689 29.973,39.229 L33.09,25.98 C33.293,25.99 33.497,26 33.713,26 C35.925,26 37.489,25.413 38.505,24.822 C38.679,25.786 38.872,26.743 39.072,27.684 C39.55,29.931 40,32.053 40,34 C40,37.378 36.679,44 29,44 L29,44 Z M39.211,14 C38.619,15.251 38,17.223 38,20 C38,20.883 38.076,21.757 38.178,22.626 C37.65,23.077 36.26,24 33.714,24 C33.659,24 33.614,23.991 33.559,23.99 L35.91,14 L39.211,14 L39.211,14 Z M33.855,14 L31.561,23.751 C30.766,23.572 30.039,23.32 29.298,23.053 C27.865,22.535 26.385,22 24.286,22 C22.352,22 20.86,22.463 19.778,22.972 C19.905,21.989 20,21 20,20 C20,17.223 19.381,15.251 18.789,14 L33.855,14 L33.855,14 Z" id="Shape" fill="#000000"></path>
    </g>
</svg>