<?xml version="1.0" encoding="UTF-8" standalone="no"?>
<svg width="64px" height="64px" viewBox="0 0 64 64" version="1.1" xmlns="http://www.w3.org/2000/svg" xmlns:xlink="http://www.w3.org/1999/xlink">
    <!-- Generator: Sketch 3.7.2 (28276) - http://www.bohemiancoding.com/sketch -->
    <title>dri-beer-champagne</title>
    <desc>Created with Sketch.</desc>
    <defs></defs>
    <g id="64px-Line" stroke="none" stroke-width="1" fill="none" fill-rule="evenodd">
        <g id="dri-beer-champagne"></g>
        <path d="M52.554,38.056 C55.706,34.373 58.173,24.889 57.979,13.946 C57.977,13.917 57.982,13.889 57.978,13.86 C57.922,10.93 57.687,7.902 57.209,4.847 C57.133,4.36 56.714,4.001 56.221,4.001 L41.78,4.001 C41.288,4.001 40.869,4.359 40.792,4.845 C38.508,19.315 41.438,33.353 45.462,38.062 C46.264,39 47.115,39.597 48.001,39.854 L48.001,58 L43.001,58 C42.449,58 42.001,58.447 42.001,59 C42.001,59.553 42.449,60 43.001,60 L55.001,60 C55.553,60 56.001,59.553 56.001,59 C56.001,58.447 55.553,58 55.001,58 L50.001,58 L50.001,39.854 C50.891,39.597 51.747,38.998 52.554,38.056 L52.554,38.056 Z M55.359,6 C55.71,8.475 55.906,10.951 55.969,13.369 C55.321,13.626 54.098,14 52.429,14 C51.117,14 50.191,13.77 49.211,13.526 C48.17,13.267 47.093,13 45.572,13 C44.101,13 42.895,13.255 42.024,13.522 C42.083,11.054 42.279,8.526 42.641,6 L55.359,6 L55.359,6 Z M46.982,36.761 C44.215,33.524 42.083,25.195 42.006,15.644 C42.661,15.386 43.908,15 45.572,15 C46.848,15 47.762,15.227 48.729,15.468 C49.783,15.73 50.873,16 52.43,16 C53.919,16 55.122,15.747 55.987,15.479 C55.933,25.116 53.804,33.52 51.035,36.756 C50.548,37.323 49.801,38 49,38 C48.207,38 47.465,37.326 46.982,36.761 L46.982,36.761 Z" id="Shape" fill="#000000"></path>
        <path d="M34,4 L6,4 C5.493,4 5.066,4.38 5.007,4.883 C4.966,5.232 4,13.505 4,19 C4,23.59 5.025,29.228 6.016,34.679 C6.992,40.043 8,45.59 8,50 L8,59 C8,59.553 8.448,60 9,60 L31,60 C31.552,60 32,59.553 32,59 L32,50 C32,45.59 33.008,40.043 33.984,34.679 C34.975,29.228 36,23.59 36,19 C36,13.505 35.034,5.232 34.993,4.883 C34.934,4.38 34.507,4 34,4 L34,4 Z M33.105,6 C33.235,7.197 33.47,9.477 33.667,12 L6.332,12 C6.529,9.477 6.764,7.197 6.894,6 L33.105,6 L33.105,6 Z M32.016,34.321 C31.025,39.772 30,45.41 30,50 L30,58 L10,58 L10,50 C10,45.41 8.975,39.772 7.984,34.321 C7.008,28.957 6,23.41 6,19 C6,17.49 6.078,15.739 6.19,14 L33.81,14 C33.922,15.739 34,17.489 34,19 C34,23.41 32.992,28.957 32.016,34.321 L32.016,34.321 Z" id="Shape" fill="#000000"></path>
    </g>
</svg>