<?xml version="1.0" encoding="UTF-8" standalone="no"?>
<svg width="64px" height="64px" viewBox="0 0 64 64" version="1.1" xmlns="http://www.w3.org/2000/svg" xmlns:xlink="http://www.w3.org/1999/xlink">
    <!-- Generator: Sketch 3.7.2 (28276) - http://www.bohemiancoding.com/sketch -->
    <title>ema-reply-all</title>
    <desc>Created with Sketch.</desc>
    <defs></defs>
    <g id="64px-Line" stroke="none" stroke-width="1" fill="none" fill-rule="evenodd">
        <g id="ema-reply-all"></g>
        <path d="M41,40.011 L41,33 C41,32.626 40.792,32.284 40.46,32.112 C40.13,31.94 39.731,31.967 39.423,32.183 L22.423,44.183 C22.158,44.371 22,44.675 22,45 C22,45.325 22.158,45.629 22.423,45.817 L39.423,57.817 C39.73,58.033 40.129,58.06 40.46,57.888 C40.792,57.716 41,57.374 41,57 L41,50 C47.571,50.015 51.757,50.384 58.181,59.572 C58.371,59.845 58.68,59.999 59,59.999 C59.101,59.999 59.201,59.984 59.301,59.953 C59.717,59.822 60,59.436 60,58.999 C60,46.181 54.13,40.291 41,40.011 L41,40.011 Z M40.319,48 L40.16,48 L40,48 C39.447,48 39,48.448 39,49 L39,55.07 L24.734,45 L39,34.93 L39,41 C39,41.552 39.447,42 40,42 C51.595,42 56.964,46.05 57.862,55.812 C51.611,48.062 46.762,48 40.319,48 L40.319,48 Z" id="Shape" fill="#000000"></path>
        <path d="M7,42 L20,42 C20.553,42 21,41.552 21,41 C21,40.448 20.553,40 20,40 L7,40 C6.028,40 6,39.972 6,39 L6,11.214 L26.113,30.364 C26.895,31.146 27.923,31.535 28.947,31.535 C29.967,31.535 30.983,31.15 31.752,30.381 L52,11.101 L52,38 C52,38.552 52.447,39 53,39 C53.553,39 54,38.552 54,38 L54,11 C54,9.009 52.99,8 51,8 L7,8 C5.01,8 4,9.009 4,11 L4,39 C4,41.075 4.925,42 7,42 L7,42 Z M30.355,28.95 C29.576,29.728 28.306,29.73 27.509,28.933 L7.625,10 L50.256,10 L30.355,28.95 L30.355,28.95 Z" id="Shape" fill="#000000"></path>
        <path d="M57,36 C57.553,36 58,35.552 58,35 L58,7 C58,5.009 56.99,4 55,4 L9,4 C8.447,4 8,4.448 8,5 C8,5.552 8.447,6 9,6 L55,6 C55.888,6 56,6.112 56,7 L56,35 C56,35.552 56.447,36 57,36 L57,36 Z" id="Shape" fill="#000000"></path>
    </g>
</svg>