<?xml version="1.0" encoding="UTF-8" standalone="no"?>
<svg width="64px" height="64px" viewBox="0 0 64 64" version="1.1" xmlns="http://www.w3.org/2000/svg" xmlns:xlink="http://www.w3.org/1999/xlink">
    <!-- Generator: Sketch 3.7.2 (28276) - http://www.bohemiancoding.com/sketch -->
    <title>ema-emails-2</title>
    <desc>Created with Sketch.</desc>
    <defs></defs>
    <g id="64px-Line" stroke="none" stroke-width="1" fill="none" fill-rule="evenodd">
        <g id="ema-emails-2"></g>
        <path d="M17,6 C15.01,6 14,7.009 14,9 L14,25 C14,25.552 14.447,26 15,26 C15.553,26 16,25.552 16,25 L16,9.135 L34.113,24.364 C34.9,25.151 35.936,25.541 36.962,25.541 C37.969,25.541 38.965,25.166 39.706,24.422 L58,9.029 L58,33 C58,33.944 57.944,34 57,34 L53,34 C52.447,34 52,34.448 52,35 C52,35.552 52.447,36 53,36 L57,36 C59.047,36 60,35.047 60,33 L60,9 C60,7.009 58.99,6 57,6 L17,6 L17,6 Z M38.355,22.95 C37.575,23.729 36.304,23.728 35.463,22.892 L17.757,8 L56.118,8 L38.355,22.95 L38.355,22.95 Z" id="Shape" fill="#000000"></path>
        <path d="M7,58 L47,58 C49.047,58 50,57.047 50,55 L50,31 C50,29.009 48.99,28 47,28 L7,28 C5.01,28 4,29.009 4,31 L4,55 C4,57.075 4.925,58 7,58 L7,58 Z M47,56 L7,56 C6.028,56 6,55.972 6,55 L6,31.135 L24.113,46.364 C24.9,47.151 25.936,47.541 26.962,47.541 C27.969,47.541 28.965,47.166 29.706,46.422 L48,31.029 L48,55 C48,55.944 47.944,56 47,56 L47,56 Z M7.757,30 L46.118,30 L28.356,44.95 C27.575,45.729 26.306,45.728 25.464,44.892 L7.757,30 L7.757,30 Z" id="Shape" fill="#000000"></path>
    </g>
</svg>