<?xml version="1.0" encoding="UTF-8" standalone="no"?>
<svg width="64px" height="64px" viewBox="0 0 64 64" version="1.1" xmlns="http://www.w3.org/2000/svg" xmlns:xlink="http://www.w3.org/1999/xlink">
    <!-- Generator: Sketch 3.7.2 (28276) - http://www.bohemiancoding.com/sketch -->
    <title>ema-reply</title>
    <desc>Created with Sketch.</desc>
    <defs></defs>
    <g id="64px-Line" stroke="none" stroke-width="1" fill="none" fill-rule="evenodd">
        <g id="ema-reply"></g>
        <path d="M40.46,30.112 C40.129,29.94 39.729,29.967 39.423,30.183 L22.423,42.183 C22.158,42.371 22,42.675 22,43 C22,43.325 22.158,43.629 22.423,43.817 L39.423,55.817 C39.728,56.033 40.13,56.06 40.46,55.888 C40.792,55.716 41,55.374 41,55 L41,48 C47.571,48.015 51.757,48.384 58.18,57.572 C58.371,57.845 58.68,57.999 59,57.999 C59.1,57.999 59.201,57.984 59.3,57.953 C59.717,57.822 60,57.436 60,56.999 C60,44.18 54.13,38.29 41,38.01 L41,31 C41,30.626 40.792,30.284 40.46,30.112 L40.46,30.112 Z M57.862,53.812 C51.612,46.063 46.762,46 40.319,46 L40.16,46 L40,46 C39.448,46 39,46.448 39,47 L39,53.07 L24.734,43 L39,32.93 L39,39 C39,39.552 39.448,40 40,40 C51.595,40 56.963,44.05 57.862,53.812 L57.862,53.812 Z" id="Shape" fill="#000000"></path>
        <path d="M7,40 L20,40 C20.552,40 21,39.552 21,39 C21,38.448 20.552,38 20,38 L7,38 C6.028,38 6,37.972 6,37 L6,9.214 L26.113,28.364 C26.895,29.146 27.923,29.535 28.947,29.535 C29.966,29.535 30.983,29.15 31.751,28.381 L52,9.101 L52,36 C52,36.552 52.448,37 53,37 C53.552,37 54,36.552 54,36 L54,9 C54,7.009 52.991,6 51,6 L7,6 C5.009,6 4,7.009 4,9 L4,37 C4,39.075 4.925,40 7,40 L7,40 Z M30.355,26.95 C29.576,27.729 28.307,27.73 27.509,26.933 L7.625,8 L50.256,8 L30.355,26.95 L30.355,26.95 Z" id="Shape" fill="#000000"></path>
    </g>
</svg>