<?xml version="1.0" encoding="UTF-8" standalone="no"?>
<svg width="64px" height="64px" viewBox="0 0 64 64" version="1.1" xmlns="http://www.w3.org/2000/svg" xmlns:xlink="http://www.w3.org/1999/xlink">
    <!-- Generator: Sketch 3.7.2 (28276) - http://www.bohemiancoding.com/sketch -->
    <title>ema-plane</title>
    <desc>Created with Sketch.</desc>
    <defs></defs>
    <g id="64px-Line" stroke="none" stroke-width="1" fill="none" fill-rule="evenodd">
        <g id="ema-plane"></g>
        <path d="M59.898,4.571 C59.885,4.544 59.867,4.521 59.852,4.495 C59.805,4.415 59.748,4.344 59.679,4.28 C59.664,4.266 59.657,4.246 59.641,4.232 C59.631,4.223 59.618,4.222 59.607,4.214 C59.591,4.201 59.579,4.184 59.562,4.173 C59.479,4.117 59.389,4.075 59.296,4.046 C59.285,4.043 59.274,4.044 59.263,4.04 C59.161,4.012 59.058,4.004 58.953,4.009 C58.919,4.01 58.887,4.016 58.853,4.021 C58.768,4.034 58.686,4.058 58.606,4.093 C58.576,4.106 58.546,4.115 58.517,4.131 C58.504,4.138 58.489,4.141 58.476,4.149 L6.476,36.149 C6.143,36.354 5.96,36.734 6.008,37.122 C6.055,37.51 6.324,37.835 6.697,37.954 L26,44.095 L26,59 C26,59.445 26.295,59.837 26.723,59.961 C26.815,59.987 26.909,60 27,60 C27.337,60 27.66,59.829 27.847,59.533 L35.637,47.161 L50.698,51.953 C50.797,51.984 50.899,52 51.001,52 C51.182,52 51.361,51.951 51.52,51.855 C51.767,51.705 51.937,51.456 51.987,51.171 L59.987,5.171 C60,5.098 59.996,5.027 59.993,4.955 C59.992,4.936 59.997,4.918 59.995,4.899 C59.981,4.784 59.947,4.675 59.898,4.571 L59.898,4.571 Z M54.313,9.059 L26.663,42.207 L9.382,36.708 L54.313,9.059 L54.313,9.059 Z M28,55.535 L28,44.731 L33.667,46.534 L28,55.535 L28,55.535 Z M50.211,49.7 L28.721,42.862 L57.375,8.509 L50.211,49.7 L50.211,49.7 Z" id="Shape" fill="#000000"></path>
    </g>
</svg>