<?xml version="1.0" encoding="UTF-8" standalone="no"?>
<svg width="44px" height="44px" viewBox="0 0 44 44" version="1.1" xmlns="http://www.w3.org/2000/svg" xmlns:xlink="http://www.w3.org/1999/xlink">
    <!-- Generator: Sketch 3.7.2 (28276) - http://www.bohemiancoding.com/sketch -->
    <title>ema-warning</title>
    <desc>Created with Sketch.</desc>
    <defs></defs>
    <g id="44px-Line" stroke="none" stroke-width="1" fill="none" fill-rule="evenodd">
        <g id="ema-warning"></g>
        <path d="M20,28 L2.448,28 C2.222,28 2.096,27.981 2.032,27.967 C2.018,27.903 2,27.778 2,27.552 L2,7.06 L15.293,19.07 C15.92,19.697 16.465,20.008 17.007,20.008 C17.541,20.008 18.071,19.706 18.671,19.106 L32,7.06 L32,15 C32,15.553 32.447,16 33,16 C33.553,16 34,15.553 34,15 L34,6.448 C34,4.846 33.153,4 31.552,4 L2.448,4 C0.846,4 -5.68434189e-14,4.847 -5.68434189e-14,6.448 L-5.68434189e-14,27.552 C-5.68434189e-14,29.199 0.801,30 2.448,30 L20,30 C20.553,30 21,29.553 21,29 C21,28.447 20.553,28 20,28 L20,28 Z M17.293,17.656 C17.16,17.789 17.066,17.874 17,17.928 C16.93,17.869 16.824,17.774 16.671,17.62 L3.811,6 L30.189,6 L17.293,17.656 L17.293,17.656 Z" id="Shape" fill="#000000"></path>
        <path d="M43.61,33.564 L35.844,21.301 C35.825,21.273 35.806,21.244 35.784,21.217 C35.123,20.377 33.909,20 33,20 C31.99,20 31.028,20.456 30.374,21.293 L22.396,33.555 C22.373,33.59 22.352,33.626 22.334,33.664 C22.278,33.779 22,34.386 22,35.001 C22,36.654 23.436,38 25.199,38 L40.801,38 C42.565,38 44,36.654 44,35.001 C44,34.386 43.722,33.779 43.666,33.664 C43.649,33.63 43.631,33.597 43.61,33.564 L43.61,33.564 Z M40.801,36 L25.199,36 C24.538,36 24,35.552 24,35.001 C24,34.909 24.058,34.716 24.114,34.581 L31.997,22.457 C32.223,22.171 32.598,22 33,22 C33.482,22 33.998,22.22 34.19,22.428 L41.883,34.576 C41.932,34.691 41.999,34.898 41.999,35.001 C42,35.552 41.462,36 40.801,36 L40.801,36 Z" id="Shape" fill="#000000"></path>
        <path d="M33,24 C32.447,24 32,24.447 32,25 L32,30 C32,30.553 32.447,31 33,31 C33.553,31 34,30.553 34,30 L34,25 C34,24.447 33.553,24 33,24 L33,24 Z" id="Shape" fill="#000000"></path>
        <path d="M32.8,32.02 C32.74,32.031 32.68,32.05 32.62,32.081 C32.559,32.101 32.5,32.131 32.439,32.171 C32.389,32.201 32.339,32.251 32.29,32.291 C32.2,32.391 32.13,32.491 32.08,32.621 C32.03,32.741 32,32.871 32,33.001 C32,33.271 32.1,33.521 32.29,33.711 C32.479,33.9 32.729,34.001 33,34.001 C33.27,34.001 33.52,33.9 33.71,33.711 C33.899,33.521 34,33.271 34,33.001 C34,32.741 33.89,32.48 33.71,32.291 C33.479,32.06 33.13,31.95 32.8,32.02 L32.8,32.02 Z" id="Shape" fill="#000000"></path>
    </g>
</svg>