<?xml version="1.0" encoding="UTF-8" standalone="no"?>
<svg width="64px" height="64px" viewBox="0 0 64 64" version="1.1" xmlns="http://www.w3.org/2000/svg" xmlns:xlink="http://www.w3.org/1999/xlink">
    <!-- Generator: Sketch 3.7.2 (28276) - http://www.bohemiancoding.com/sketch -->
    <title>ema-picture</title>
    <desc>Created with Sketch.</desc>
    <defs></defs>
    <g id="64px-Line" stroke="none" stroke-width="1" fill="none" fill-rule="evenodd">
        <g id="ema-picture"></g>
        <path d="M61,32 L33,32 C32.447,32 32,32.447 32,33 L32,55 C32,55.13 32.026,55.26 32.077,55.382 C32.178,55.627 32.373,55.822 32.618,55.923 C32.74,55.974 32.87,56 33,56 L61,56 C61.553,56 62,55.553 62,55 L62,33 C62,32.447 61.553,32 61,32 L61,32 Z M60,34 L60,46.587 L53.707,40.293 C53.52,40.105 53.266,40 53,40 C52.734,40 52.48,40.105 52.293,40.293 L47,45.586 L44.707,43.293 C44.316,42.902 43.684,42.902 43.293,43.293 L34,52.586 L34,34 L60,34 L60,34 Z M35.414,54 L44,45.414 L49.293,50.707 C49.684,51.098 50.316,51.098 50.707,50.707 C51.098,50.316 51.098,49.684 50.707,49.293 L48.414,47 L53,42.414 L60,49.416 L60,54 L35.414,54 L35.414,54 Z" id="Shape" fill="#000000"></path>
        <path d="M39,42 C40.654,42 42,40.654 42,39 C42,37.346 40.654,36 39,36 C37.346,36 36,37.346 36,39 C36,40.654 37.346,42 39,42 L39,42 Z M39,38 C39.552,38 40,38.448 40,39 C40,39.552 39.552,40 39,40 C38.448,40 38,39.552 38,39 C38,38.448 38.448,38 39,38 L39,38 Z" id="Shape" fill="#000000"></path>
        <path d="M28,40 L5,40 C4.028,40 4,39.972 4,39 L4,11.249 L23.113,30.363 C23.892,31.143 24.917,31.533 25.941,31.533 C26.965,31.533 27.99,31.143 28.769,30.363 L47.999,11.133 L47.999,28 C47.999,28.553 48.446,29 48.999,29 C49.552,29 49.999,28.553 49.999,28 L49.999,11 C49.999,9.01 48.989,8 46.999,8 L4.999,8 C3.009,8 1.999,9.01 1.999,11 L1.999,39 C1.999,41.075 2.924,42 4.999,42 L27.999,42 C28.552,42 28.999,41.553 28.999,41 C28.999,40.447 28.553,40 28,40 L28,40 Z M27.355,28.949 C26.576,29.728 25.306,29.728 24.527,28.949 L5.579,10 L46.305,10 L27.355,28.949 L27.355,28.949 Z" id="Shape" fill="#000000"></path>
    </g>
</svg>