<?xml version="1.0" encoding="UTF-8" standalone="no"?>
<svg width="64px" height="64px" viewBox="0 0 64 64" version="1.1" xmlns="http://www.w3.org/2000/svg" xmlns:xlink="http://www.w3.org/1999/xlink">
    <!-- Generator: Sketch 3.7.2 (28276) - http://www.bohemiancoding.com/sketch -->
    <title>ema-send-2</title>
    <desc>Created with Sketch.</desc>
    <defs></defs>
    <g id="64px-Line" stroke="none" stroke-width="1" fill="none" fill-rule="evenodd">
        <g id="ema-send-2"></g>
        <path d="M61,16 L21,16 C19.01,16 18,17.009 18,19 L18,47 C18,49.075 18.925,50 21,50 L61,50 C63.047,50 64,49.047 64,47 L64,19 C64,17.009 62.99,16 61,16 L61,16 Z M60.25,18 L42.355,34.95 C41.576,35.728 40.308,35.729 39.507,34.931 L21.631,18 L60.25,18 L60.25,18 Z M61,48 L21,48 C20.028,48 20,47.972 20,47 L20,19.21 L38.113,36.364 C38.895,37.146 39.924,37.536 40.948,37.536 C41.967,37.536 42.982,37.151 43.75,36.383 L62,19.097 L62,47 C62,47.944 61.944,48 61,48 L61,48 Z" id="Shape" fill="#000000"></path>
        <path d="M1,26 L15,26 C15.553,26 16,25.552 16,25 C16,24.448 15.553,24 15,24 L1,24 C0.447,24 0,24.448 0,25 C0,25.552 0.447,26 1,26 L1,26 Z" id="Shape" fill="#000000"></path>
        <path d="M1,34 L15,34 C15.553,34 16,33.552 16,33 C16,32.448 15.553,32 15,32 L1,32 C0.447,32 0,32.448 0,33 C0,33.552 0.447,34 1,34 L1,34 Z" id="Shape" fill="#000000"></path>
        <path d="M16,41 C16,40.448 15.553,40 15,40 L1,40 C0.447,40 0,40.448 0,41 C0,41.552 0.447,42 1,42 L15,42 C15.553,42 16,41.552 16,41 L16,41 Z" id="Shape" fill="#000000"></path>
    </g>
</svg>