<?xml version="1.0" encoding="UTF-8" standalone="no"?>
<svg width="64px" height="64px" viewBox="0 0 64 64" version="1.1" xmlns="http://www.w3.org/2000/svg" xmlns:xlink="http://www.w3.org/1999/xlink">
    <!-- Generator: Sketch 3.7.2 (28276) - http://www.bohemiancoding.com/sketch -->
    <title>ema-open-doc</title>
    <desc>Created with Sketch.</desc>
    <defs></defs>
    <g id="64px-Line" stroke="none" stroke-width="1" fill="none" fill-rule="evenodd">
        <g id="ema-open-doc"></g>
        <path d="M9,62 L55,62 C57.047,62 58,61.047 58,59 L58,27 C58,26.981 57.99,26.963 57.989,26.945 C57.985,26.881 57.968,26.821 57.953,26.758 C57.941,26.711 57.942,26.663 57.923,26.619 C57.916,26.601 57.902,26.588 57.894,26.571 C57.868,26.516 57.829,26.47 57.792,26.42 C57.751,26.364 57.712,26.309 57.66,26.262 C57.646,26.249 57.639,26.232 57.624,26.22 L52,21.731 L52,13 C52,11.009 50.99,10 49,10 L39.777,10 L34.769,5.172 C33.209,3.612 30.672,3.612 29.14,5.145 L23.895,10 L15,10 C13.01,10 12,11.009 12,13 L12,21.01 L6.32,26.266 C6.315,26.271 6.313,26.277 6.309,26.282 C6.254,26.335 6.217,26.403 6.175,26.467 C6.146,26.512 6.106,26.552 6.085,26.601 C6.083,26.607 6.08,26.612 6.077,26.618 C6.055,26.671 6.054,26.728 6.042,26.784 C6.027,26.85 6.005,26.914 6.003,26.982 C6.003,26.988 5.999,26.994 5.999,27 L5.999,59 C6,61.075 6.925,62 9,62 L9,62 Z M22.603,44.017 L8,58.5 L8,29.414 L22.603,44.017 L22.603,44.017 Z M56,29.414 L56,58.61 L41.401,44.012 L56,29.414 L56,29.414 Z M54.562,60 L9.328,60 L30.707,38.795 C31.475,38.027 32.588,38.027 33.355,38.795 L54.562,60 L54.562,60 Z M55.502,27.084 L52,30.586 L52,24.29 L55.502,27.084 L55.502,27.084 Z M30.527,6.586 C31.283,5.83 32.587,5.817 33.368,6.599 L36.896,10 L26.84,10 L30.527,6.586 L30.527,6.586 Z M15,12 L39.367,12 C39.37,12 39.372,12.001 39.375,12.001 C39.377,12.001 39.38,12 39.382,12 L49,12 C49.888,12 50,12.112 50,13 L50,32.586 L39.987,42.599 L34.769,37.381 C33.259,35.869 30.799,35.872 29.295,37.378 L24.022,42.608 L14,32.586 L14,13 C14,12.112 14.112,12 15,12 L15,12 Z M12,30.586 L8.442,27.028 L12,23.736 L12,30.586 L12,30.586 Z" id="Shape" fill="#000000"></path>
        <path d="M19,20 L45,20 C45.553,20 46,19.552 46,19 C46,18.448 45.553,18 45,18 L19,18 C18.447,18 18,18.448 18,19 C18,19.552 18.447,20 19,20 L19,20 Z" id="Shape" fill="#000000"></path>
        <path d="M19,26 L45,26 C45.553,26 46,25.552 46,25 C46,24.448 45.553,24 45,24 L19,24 C18.447,24 18,24.448 18,25 C18,25.552 18.447,26 19,26 L19,26 Z" id="Shape" fill="#000000"></path>
        <path d="M19,32 L45,32 C45.553,32 46,31.552 46,31 C46,30.448 45.553,30 45,30 L19,30 C18.447,30 18,30.448 18,31 C18,31.552 18.447,32 19,32 L19,32 Z" id="Shape" fill="#000000"></path>
    </g>
</svg>