<?xml version="1.0" encoding="UTF-8" standalone="no"?>
<svg width="64px" height="64px" viewBox="0 0 64 64" version="1.1" xmlns="http://www.w3.org/2000/svg" xmlns:xlink="http://www.w3.org/1999/xlink">
    <!-- Generator: Sketch 3.7.2 (28276) - http://www.bohemiancoding.com/sketch -->
    <title>ema-edit</title>
    <desc>Created with Sketch.</desc>
    <defs></defs>
    <g id="64px-Line" stroke="none" stroke-width="1" fill="none" fill-rule="evenodd">
        <g id="ema-edit"></g>
        <path d="M57.204,26.729 C56.272,25.79 54.614,25.815 53.735,26.704 L51.945,28.381 C51.941,28.385 51.939,28.391 51.935,28.395 C51.93,28.399 51.924,28.401 51.92,28.405 L36.7,43.697 C36.699,43.698 36.698,43.698 36.698,43.698 C36.697,43.699 36.697,43.699 36.697,43.7 L36.332,44.067 C36.255,44.144 36.191,44.233 36.143,44.332 L32.104,52.561 C31.915,52.946 31.992,53.408 32.295,53.709 C32.487,53.9 32.742,54.001 33.002,54.001 C33.152,54.001 33.304,53.967 33.445,53.897 L41.635,49.839 C41.733,49.79 41.823,49.726 41.9,49.648 L42.273,49.273 L42.274,49.273 C42.275,49.273 42.274,49.273 42.274,49.272 L57.466,34.012 L57.467,34.012 L59.279,32.309 C60.239,31.348 60.24,29.78 59.28,28.811 L57.204,26.729 L57.204,26.729 Z M37.562,45.976 L40.001,48.415 L35.195,50.795 L37.562,45.976 L37.562,45.976 Z M41.564,47.15 L38.817,44.403 L52.629,30.527 L55.37,33.281 L41.564,47.15 L41.564,47.15 Z M57.886,30.872 L56.805,31.887 L54.065,29.134 L55.129,28.136 C55.247,28.017 55.385,27.999 55.457,27.999 C55.529,27.999 55.666,28.017 55.786,28.138 L57.861,30.219 C58.046,30.407 58.047,30.71 57.886,30.872 L57.886,30.872 Z" id="Shape" fill="#000000"></path>
        <path d="M35,41 C35,40.447 34.552,40 34,40 L7,40 C6.028,40 6,39.972 6,39 L6,11.249 L25.113,30.363 C25.893,31.143 26.917,31.533 27.941,31.533 C28.965,31.533 29.989,31.143 30.769,30.363 L49.999,11.133 L49.999,24 C49.999,24.553 50.447,25 50.999,25 C51.551,25 51.999,24.553 51.999,24 L51.999,11 C51.999,9.01 50.99,8 48.999,8 L6.999,8 C5.008,8 3.999,9.01 3.999,11 L3.999,39 C3.999,41.075 4.924,42 6.999,42 L33.999,42 C34.552,42 35,41.553 35,41 L35,41 Z M29.355,28.949 C28.575,29.728 27.306,29.728 26.527,28.949 L7.579,10 L48.305,10 L29.355,28.949 L29.355,28.949 Z" id="Shape" fill="#000000"></path>
    </g>
</svg>