<?xml version="1.0" encoding="UTF-8" standalone="no"?>
<svg width="64px" height="64px" viewBox="0 0 64 64" version="1.1" xmlns="http://www.w3.org/2000/svg" xmlns:xlink="http://www.w3.org/1999/xlink">
    <!-- Generator: Sketch 3.7.2 (28276) - http://www.bohemiancoding.com/sketch -->
    <title>ema-attach</title>
    <desc>Created with Sketch.</desc>
    <defs></defs>
    <g id="64px-Line" stroke="none" stroke-width="1" fill="none" fill-rule="evenodd">
        <g id="ema-attach"></g>
        <path d="M51.486,29.397 L33.772,46.085 C32.629,47.183 32,48.644 32,50.2 C32,51.756 32.63,53.218 33.772,54.315 C34.939,55.436 36.472,55.996 38.004,55.996 C39.531,55.996 41.057,55.439 42.214,54.327 L54.679,42.772 C55.084,42.397 55.108,41.764 54.733,41.359 C54.356,40.953 53.724,40.929 53.32,41.305 L40.842,52.871 C39.274,54.377 36.725,54.377 35.156,52.871 C34.41,52.155 33.999,51.206 33.999,50.199 C33.999,49.192 34.41,48.243 35.149,47.533 L38.649,44.236 C38.226,44.861 37.999,45.592 37.999,46.359 C37.999,47.403 38.42,48.382 39.186,49.116 C40.738,50.609 43.264,50.607 44.804,49.125 L58.52,36.275 C59.474,35.36 59.999,34.14 59.999,32.839 C59.999,31.538 59.474,30.318 58.52,29.402 C56.579,27.539 53.42,27.538 51.486,29.397 L51.486,29.397 Z M57.145,34.825 L43.429,47.676 C42.64,48.432 41.361,48.433 40.572,47.675 C40.204,47.321 40.001,46.855 40.001,46.361 C40.001,45.867 40.204,45.4 40.562,45.056 L48.683,37.492 C49.087,37.116 49.11,36.483 48.733,36.079 C48.537,35.868 48.269,35.761 48.002,35.761 C47.836,35.761 47.67,35.802 47.52,35.885 L52.867,30.847 C54.045,29.716 55.961,29.715 57.138,30.848 C57.696,31.383 58.002,32.091 58.002,32.842 C58,33.591 57.693,34.299 57.145,34.825 L57.145,34.825 Z" id="Shape" fill="#000000"></path>
        <path d="M7,42 L33,42 C33.553,42 34,41.553 34,41 C34,40.447 33.553,40 33,40 L7,40 C6.028,40 6,39.972 6,39 L6,11.249 L25.113,30.363 C25.892,31.143 26.917,31.533 27.941,31.533 C28.965,31.533 29.99,31.143 30.769,30.363 L49.999,11.133 L49.999,25 C49.999,25.553 50.446,26 50.999,26 C51.552,26 51.999,25.553 51.999,25 L51.999,11 C51.999,9.01 50.989,8 48.999,8 L6.999,8 C5.009,8 3.999,9.01 3.999,11 L3.999,39 C4,41.075 4.925,42 7,42 L7,42 Z M29.355,28.949 C28.576,29.728 27.306,29.728 26.527,28.949 L7.579,10 L48.305,10 L29.355,28.949 L29.355,28.949 Z" id="Shape" fill="#000000"></path>
    </g>
</svg>