<?xml version="1.0" encoding="UTF-8" standalone="no"?>
<svg width="44px" height="44px" viewBox="0 0 44 44" version="1.1" xmlns="http://www.w3.org/2000/svg" xmlns:xlink="http://www.w3.org/1999/xlink">
    <!-- Generator: Sketch 3.7.2 (28276) - http://www.bohemiancoding.com/sketch -->
    <title>ema-upload</title>
    <desc>Created with Sketch.</desc>
    <defs></defs>
    <g id="44px-Line" stroke="none" stroke-width="1" fill="none" fill-rule="evenodd">
        <g id="ema-upload"></g>
        <path d="M21,44 C21.552,44 22,43.552 22,43 L22,27.414 L26.293,31.707 C26.488,31.902 26.744,32 27,32 C27.256,32 27.512,31.902 27.707,31.707 C28.098,31.316 28.098,30.684 27.707,30.293 L21.707,24.293 C21.615,24.201 21.504,24.128 21.382,24.077 C21.138,23.976 20.862,23.976 20.618,24.077 C20.496,24.128 20.385,24.201 20.293,24.293 L14.293,30.293 C13.902,30.684 13.902,31.316 14.293,31.707 C14.488,31.902 14.744,32 15,32 C15.256,32 15.512,31.902 15.707,31.707 L20,27.414 L20,43 C20,43.552 20.448,44 21,44 L21,44 Z" id="Shape" fill="#000000"></path>
        <path d="M2.52,28 L12.125,28 C12.677,28 13.125,27.552 13.125,27 C13.125,26.448 12.677,26 12.125,26 L2.52,26 C2.201,26 2.07,25.961 2.055,25.971 C2.04,25.932 2,25.799 2,25.471 L2,3.332 L18.723,19.03 C19.343,19.654 20.167,19.998 21.044,19.998 C21.921,19.998 22.745,19.654 23.342,19.053 L40,3.339 L40,25.471 C40,25.791 39.965,25.929 39.976,25.95 C39.93,25.966 39.794,26 39.481,26 L30,26 C29.448,26 29,26.448 29,27 C29,27.552 29.448,28 30,28 L39.48,28 C41.199,28 42,27.196 42,25.471 L42,2.529 C42,1.715 41.787,1.092 41.376,0.667 C41.376,0.667 41.376,0.667 41.376,0.666 L41.376,0.666 C40.952,0.228 40.318,0 39.48,0 L2.52,0 C0.872,0 0,0.875 0,2.529 L0,25.47 C0,27.173 0.824,28 2.52,28 L2.52,28 Z M21.947,17.621 C21.464,18.107 20.651,18.132 20.117,17.597 L3.503,2 L38.504,2 L21.947,17.621 L21.947,17.621 Z" id="Shape" fill="#000000"></path>
    </g>
</svg>