<?xml version="1.0" encoding="UTF-8" standalone="no"?>
<svg width="64px" height="64px" viewBox="0 0 64 64" version="1.1" xmlns="http://www.w3.org/2000/svg" xmlns:xlink="http://www.w3.org/1999/xlink">
    <!-- Generator: Sketch 3.7.2 (28276) - http://www.bohemiancoding.com/sketch -->
    <title>ema-postcard</title>
    <desc>Created with Sketch.</desc>
    <defs></defs>
    <g id="64px-Line" stroke="none" stroke-width="1" fill="none" fill-rule="evenodd">
        <g id="ema-postcard"></g>
        <path d="M57,10 L7,10 C5.01,10 4,11.009 4,13 L4,51 C4,53.075 4.925,54 7,54 L57,54 C59.047,54 60,53.047 60,51 L60,13 C60,11.009 58.99,10 57,10 L57,10 Z M58,51 C58,51.944 57.944,52 57,52 L7,52 C6.028,52 6,51.972 6,51 L6,13 C6,12.112 6.112,12 7,12 L57,12 C57.888,12 58,12.112 58,13 L58,51 L58,51 Z" id="Shape" fill="#000000"></path>
        <path d="M53,18 L45,18 C44.447,18 44,18.448 44,19 L44,29 C44,29.552 44.447,30 45,30 L53,30 C53.553,30 54,29.552 54,29 L54,19 C54,18.448 53.553,18 53,18 L53,18 Z M52,28 L46,28 L46,20 L52,20 L52,28 L52,28 Z" id="Shape" fill="#000000"></path>
        <path d="M35,22 L11,22 C10.447,22 10,22.448 10,23 C10,23.552 10.447,24 11,24 L35,24 C35.553,24 36,23.552 36,23 C36,22.448 35.553,22 35,22 L35,22 Z" id="Shape" fill="#000000"></path>
        <path d="M35,28 L11,28 C10.447,28 10,28.448 10,29 C10,29.552 10.447,30 11,30 L35,30 C35.553,30 36,29.552 36,29 C36,28.448 35.553,28 35,28 L35,28 Z" id="Shape" fill="#000000"></path>
        <path d="M35,34 L11,34 C10.447,34 10,34.448 10,35 C10,35.552 10.447,36 11,36 L35,36 C35.553,36 36,35.552 36,35 C36,34.448 35.553,34 35,34 L35,34 Z" id="Shape" fill="#000000"></path>
        <path d="M27,40 L11,40 C10.447,40 10,40.448 10,41 C10,41.552 10.447,42 11,42 L27,42 C27.553,42 28,41.552 28,41 C28,40.448 27.553,40 27,40 L27,40 Z" id="Shape" fill="#000000"></path>
    </g>
</svg>