<?xml version="1.0" encoding="UTF-8" standalone="no"?>
<svg width="64px" height="64px" viewBox="0 0 64 64" version="1.1" xmlns="http://www.w3.org/2000/svg" xmlns:xlink="http://www.w3.org/1999/xlink">
    <!-- Generator: Sketch 3.7.2 (28276) - http://www.bohemiancoding.com/sketch -->
    <title>ema-send</title>
    <desc>Created with Sketch.</desc>
    <defs></defs>
    <g id="64px-Line" stroke="none" stroke-width="1" fill="none" fill-rule="evenodd">
        <g id="ema-send"></g>
        <path d="M9,40 L55,40 C57.047,40 58,39.047 58,37 L58,7 C58,5.009 56.991,4 55,4 L9,4 C7.009,4 6,5.009 6,7 L6,37 C6,39.075 6.925,40 9,40 L9,40 Z M55,38 L9,38 C8.028,38 8,37.972 8,37 L8,7.249 L29.113,28.364 C29.893,29.144 30.917,29.533 31.941,29.533 C32.965,29.533 33.989,29.143 34.769,28.364 L56,7.133 L56,37 C56,37.944 55.944,38 55,38 L55,38 Z M9.579,6 L54.305,6 L33.356,26.95 C32.577,27.729 31.307,27.729 30.528,26.95 L9.579,6 L9.579,6 Z" id="Shape" fill="#000000"></path>
        <path d="M14,51 C14,51.552 14.448,52 15,52 L46.586,52 L40.293,58.293 C39.902,58.684 39.902,59.316 40.293,59.707 C40.488,59.902 40.744,60 41,60 C41.256,60 41.512,59.902 41.707,59.707 L49.707,51.707 C49.799,51.615 49.872,51.504 49.923,51.382 C50.024,51.138 50.024,50.862 49.923,50.618 C49.872,50.496 49.799,50.385 49.707,50.293 L41.707,42.293 C41.316,41.902 40.684,41.902 40.293,42.293 C39.902,42.684 39.902,43.316 40.293,43.707 L46.586,50 L15,50 C14.448,50 14,50.448 14,51 L14,51 Z" id="Shape" fill="#000000"></path>
    </g>
</svg>