<?xml version="1.0" encoding="UTF-8" standalone="no"?>
<svg width="64px" height="64px" viewBox="0 0 64 64" version="1.1" xmlns="http://www.w3.org/2000/svg" xmlns:xlink="http://www.w3.org/1999/xlink">
    <!-- Generator: Sketch 3.7.2 (28276) - http://www.bohemiancoding.com/sketch -->
    <title>ema-download</title>
    <desc>Created with Sketch.</desc>
    <defs></defs>
    <g id="64px-Line" stroke="none" stroke-width="1" fill="none" fill-rule="evenodd">
        <g id="ema-download"></g>
        <path d="M31,32 C30.448,32 30,32.448 30,33 L30,56.586 L23.707,50.293 C23.316,49.902 22.684,49.902 22.293,50.293 C21.902,50.684 21.902,51.316 22.293,51.707 L30.293,59.707 C30.385,59.799 30.496,59.872 30.618,59.923 C30.74,59.973 30.87,60 31,60 C31.13,60 31.26,59.973 31.382,59.923 C31.504,59.872 31.615,59.799 31.707,59.707 L39.707,51.707 C40.098,51.316 40.098,50.684 39.707,50.293 C39.316,49.902 38.684,49.902 38.293,50.293 L32,56.586 L32,33 C32,32.448 31.552,32 31,32 L31,32 Z" id="Shape" fill="#000000"></path>
        <path d="M9,38 L25,38 C25.552,38 26,37.552 26,37 C26,36.448 25.552,36 25,36 L9,36 C8.028,36 8,35.972 8,35 L8,7.214 L28.113,26.364 C28.895,27.146 29.923,27.535 30.947,27.535 C31.966,27.535 32.983,27.15 33.751,26.381 L54,7.101 L54,35 C54,35.944 53.944,36 53,36 L37,36 C36.448,36 36,36.448 36,37 C36,37.552 36.448,38 37,38 L53,38 C55.047,38 56,37.047 56,35 L56,7 C56,5.009 54.991,4 53,4 L9,4 C7.009,4 6,5.009 6,7 L6,35 C6,37.075 6.925,38 9,38 L9,38 Z M32.355,24.95 C31.575,25.729 30.307,25.729 29.509,24.933 L9.625,6 L52.256,6 L32.355,24.95 L32.355,24.95 Z" id="Shape" fill="#000000"></path>
    </g>
</svg>