<?xml version="1.0" encoding="UTF-8" standalone="no"?>
<svg width="64px" height="64px" viewBox="0 0 64 64" version="1.1" xmlns="http://www.w3.org/2000/svg" xmlns:xlink="http://www.w3.org/1999/xlink">
    <!-- Generator: Sketch 3.7.2 (28276) - http://www.bohemiancoding.com/sketch -->
    <title>ema-emails</title>
    <desc>Created with Sketch.</desc>
    <defs></defs>
    <g id="64px-Line" stroke="none" stroke-width="1" fill="none" fill-rule="evenodd">
        <g id="ema-emails"></g>
        <path d="M57,16 L7,16 C5.01,16 4,17.009 4,19 L4,53 C4,55.075 4.925,56 7,56 L57,56 C59.047,56 60,55.047 60,53 L60,19 C60,17.009 58.99,16 57,16 L57,16 Z M56.305,18 L33.356,40.95 C32.577,41.729 31.307,41.729 30.528,40.95 L7.579,18 L56.305,18 L56.305,18 Z M57,54 L7,54 C6.028,54 6,53.972 6,53 L6,19.249 L29.113,42.364 C29.892,43.144 30.917,43.533 31.941,43.533 C32.965,43.533 33.99,43.143 34.769,42.364 L58,19.133 L58,53 C58,53.944 57.944,54 57,54 L57,54 Z" id="Shape" fill="#000000"></path>
        <path d="M9,14 L55,14 C55.553,14 56,13.552 56,13 C56,12.448 55.553,12 55,12 L9,12 C8.447,12 8,12.448 8,13 C8,13.552 8.447,14 9,14 L9,14 Z" id="Shape" fill="#000000"></path>
        <path d="M13,10 L51,10 C51.553,10 52,9.552 52,9 C52,8.448 51.553,8 51,8 L13,8 C12.447,8 12,8.448 12,9 C12,9.552 12.447,10 13,10 L13,10 Z" id="Shape" fill="#000000"></path>
    </g>
</svg>