<?xml version="1.0" encoding="UTF-8" standalone="no"?>
<svg width="64px" height="64px" viewBox="0 0 64 64" version="1.1" xmlns="http://www.w3.org/2000/svg" xmlns:xlink="http://www.w3.org/1999/xlink">
    <!-- Generator: Sketch 3.7.2 (28276) - http://www.bohemiancoding.com/sketch -->
    <title>ema-calendar</title>
    <desc>Created with Sketch.</desc>
    <defs></defs>
    <g id="64px-Line" stroke="none" stroke-width="1" fill="none" fill-rule="evenodd">
        <g id="ema-calendar"></g>
        <path d="M57.5,32 L38.5,32 C37.122,32 36,33.121 36,34.5 L36,53.5 C36,54.879 37.122,56 38.5,56 L57.5,56 C58.878,56 60,54.879 60,53.5 L60,34.5 C60,33.121 58.878,32 57.5,32 L57.5,32 Z M38.5,34 L57.5,34 C57.776,34 58,34.225 58,34.5 L58,38 L38,38 L38,34.5 C38,34.225 38.224,34 38.5,34 L38.5,34 Z M57.5,54 L38.5,54 C38.224,54 38,53.775 38,53.5 L38,40 L58,40 L58,53.5 C58,53.775 57.776,54 57.5,54 L57.5,54 Z" id="Shape" fill="#000000"></path>
        <path d="M49.472,42.118 C49.147,41.944 48.752,41.964 48.446,42.168 L46.946,43.168 C46.487,43.475 46.363,44.095 46.669,44.555 C46.963,44.996 47.548,45.129 48.001,44.867 L48.001,51 C48.001,51.553 48.449,52 49.001,52 C49.553,52 50.001,51.553 50.001,51 L50.001,43 C50,42.631 49.797,42.292 49.472,42.118 L49.472,42.118 Z" id="Shape" fill="#000000"></path>
        <path d="M31,42 L7,42 C6.028,42 6,41.972 6,41 L6,13.249 L25.113,32.363 C25.893,33.143 26.917,33.533 27.941,33.533 C28.965,33.533 29.989,33.143 30.769,32.363 L49.999,13.133 L49.999,27 C49.999,27.553 50.447,28 50.999,28 C51.551,28 51.999,27.553 51.999,27 L51.999,13 C51.999,11.01 50.99,10 48.999,10 L6.999,10 C5.008,10 3.999,11.01 3.999,13 L3.999,41 C3.999,43.075 4.924,44 6.999,44 L30.999,44 C31.551,44 31.999,43.553 31.999,43 C31.999,42.447 31.552,42 31,42 L31,42 Z M29.355,30.949 C28.575,31.728 27.306,31.728 26.527,30.949 L7.579,12 L48.305,12 L29.355,30.949 L29.355,30.949 Z" id="Shape" fill="#000000"></path>
    </g>
</svg>