<?xml version="1.0" encoding="UTF-8" standalone="no"?>
<svg width="64px" height="64px" viewBox="0 0 64 64" version="1.1" xmlns="http://www.w3.org/2000/svg" xmlns:xlink="http://www.w3.org/1999/xlink">
    <!-- Generator: Sketch 3.7.2 (28276) - http://www.bohemiancoding.com/sketch -->
    <title>ema-cross</title>
    <desc>Created with Sketch.</desc>
    <defs></defs>
    <g id="64px-Line" stroke="none" stroke-width="1" fill="none" fill-rule="evenodd">
        <g id="ema-cross"></g>
        <path d="M5,42 L33,42 C33.552,42 34,41.553 34,41 C34,40.447 33.552,40 33,40 L5,40 C4.028,40 4,39.972 4,39 L4,11.249 L23.113,30.363 C23.893,31.143 24.917,31.533 25.941,31.533 C26.965,31.533 27.989,31.143 28.769,30.363 L47.999,11.133 L47.999,25 C47.999,25.553 48.447,26 48.999,26 C49.551,26 49.999,25.553 49.999,25 L49.999,11 C49.999,9.01 48.99,8 46.999,8 L4.999,8 C3.008,8 1.999,9.01 1.999,11 L1.999,39 C2,41.075 2.925,42 5,42 L5,42 Z M27.355,28.949 C26.575,29.728 25.306,29.728 24.527,28.949 L5.579,10 L46.305,10 L27.355,28.949 L27.355,28.949 Z" id="Shape" fill="#000000"></path>
        <path d="M49,28 C41.832,28 36,33.832 36,41 C36,48.168 41.832,54 49,54 C56.168,54 62,48.168 62,41 C62,33.832 56.168,28 49,28 L49,28 Z M49,52 C42.935,52 38,47.065 38,41 C38,34.935 42.935,30 49,30 C55.065,30 60,34.935 60,41 C60,47.065 55.065,52 49,52 L49,52 Z" id="Shape" fill="#000000"></path>
        <path d="M54.707,35.293 C54.316,34.902 53.684,34.902 53.293,35.293 L49,39.586 L44.707,35.293 C44.316,34.902 43.684,34.902 43.293,35.293 C42.902,35.684 42.902,36.316 43.293,36.707 L47.586,41 L43.293,45.293 C42.902,45.684 42.902,46.316 43.293,46.707 C43.488,46.902 43.744,47 44,47 C44.256,47 44.512,46.902 44.707,46.707 L49,42.414 L53.293,46.707 C53.488,46.902 53.744,47 54,47 C54.256,47 54.512,46.902 54.707,46.707 C55.098,46.316 55.098,45.684 54.707,45.293 L50.414,41 L54.707,36.707 C55.098,36.316 55.098,35.684 54.707,35.293 L54.707,35.293 Z" id="Shape" fill="#000000"></path>
    </g>
</svg>