<?xml version="1.0" encoding="UTF-8" standalone="no"?>
<svg width="64px" height="64px" viewBox="0 0 64 64" version="1.1" xmlns="http://www.w3.org/2000/svg" xmlns:xlink="http://www.w3.org/1999/xlink">
    <!-- Generator: Sketch 3.7.2 (28276) - http://www.bohemiancoding.com/sketch -->
    <title>ema-contacts</title>
    <desc>Created with Sketch.</desc>
    <defs></defs>
    <g id="64px-Line" stroke="none" stroke-width="1" fill="none" fill-rule="evenodd">
        <g id="ema-contacts"></g>
        <path d="M9,50 C8.447,50 8,50.448 8,51 C8,51.552 8.447,52 9,52 L12,52 L12,56 C12,58.206 13.794,60 16,60 L50,60 C52.206,60 54,58.206 54,56 L54,10 C54,7.794 52.206,6 50,6 L16,6 C13.794,6 12,7.794 12,10 L12,14 L9,14 C8.447,14 8,14.448 8,15 C8,15.552 8.447,16 9,16 L12,16 L12,20 L9,20 C8.447,20 8,20.448 8,21 C8,21.552 8.447,22 9,22 L12,22 L12,26 L9,26 C8.447,26 8,26.448 8,27 C8,27.552 8.447,28 9,28 L12,28 L12,32 L9,32 C8.447,32 8,32.448 8,33 C8,33.552 8.447,34 9,34 L12,34 L12,38 L9,38 C8.447,38 8,38.448 8,39 C8,39.552 8.447,40 9,40 L12,40 L12,44 L9,44 C8.447,44 8,44.448 8,45 C8,45.552 8.447,46 9,46 L12,46 L12,50 L9,50 L9,50 Z M14,46 L15,46 C15.553,46 16,45.552 16,45 C16,44.448 15.553,44 15,44 L14,44 L14,40 L15,40 C15.553,40 16,39.552 16,39 C16,38.448 15.553,38 15,38 L14,38 L14,34 L15,34 C15.553,34 16,33.552 16,33 C16,32.448 15.553,32 15,32 L14,32 L14,28 L15,28 C15.553,28 16,27.552 16,27 C16,26.448 15.553,26 15,26 L14,26 L14,22 L15,22 C15.553,22 16,21.552 16,21 C16,20.448 15.553,20 15,20 L14,20 L14,16 L15,16 C15.553,16 16,15.552 16,15 C16,14.448 15.553,14 15,14 L14,14 L14,10 C14,8.897 14.897,8 16,8 L50,8 C51.103,8 52,8.897 52,10 L52,56 C52,57.103 51.103,58 50,58 L16,58 C14.897,58 14,57.103 14,56 L14,52 L15,52 C15.553,52 16,51.552 16,51 C16,50.448 15.553,50 15,50 L14,50 L14,46 L14,46 Z" id="Shape" fill="#000000"></path>
        <path d="M34.092,44 C41.162,44 44.726,39.399 44.874,39.203 C45.206,38.764 45.119,38.14 44.682,37.806 C44.244,37.472 43.618,37.557 43.282,37.994 C43.156,38.158 40.135,42.001 34.093,42.001 C27.86,42.001 24.001,36.81 24.001,32.001 C24.001,27.192 27.859,22.001 34.093,22.001 C40.204,22.001 44.001,24.99 44.001,29.802 C44.001,31.572 43.171,33.368 41.725,34.729 C40.513,35.87 39.254,36.331 38.59,36.295 C38.444,36.286 38.259,36.256 38.2,36.164 C38.031,35.901 38.14,35.104 38.361,34.539 L41.133,26.84 C41.321,26.32 41.051,25.747 40.531,25.56 C40.009,25.372 39.438,25.642 39.252,26.162 L38.921,27.082 C38.103,26.066 36.797,25.503 35.2,25.503 C31.221,25.503 26.991,28.535 26.991,34.155 C26.991,37.804 29.645,39.098 31.919,39.098 C33.712,39.098 35.3,38.304 36.494,37.2 C36.501,37.211 36.504,37.224 36.511,37.236 C36.793,37.681 37.364,38.226 38.469,38.292 C39.846,38.368 41.624,37.569 43.094,36.186 C44.941,34.448 46,32.121 46,29.802 C46,23.848 41.326,20.001 34.092,20.001 C26.623,20.001 22,26.23 22,32.001 C22,37.772 26.623,44 34.092,44 L34.092,44 Z M31.919,37.098 C30.825,37.098 28.991,36.716 28.991,34.155 C28.991,29.309 32.8,27.503 35.2,27.503 C36.242,27.503 37.016,27.821 37.439,28.424 C37.852,29.013 37.919,29.862 37.618,30.696 C37.617,30.698 37.618,30.7 37.617,30.702 L36.491,33.829 C36.49,33.831 36.489,33.835 36.488,33.837 C35.867,35.418 34.056,37.098 31.919,37.098 L31.919,37.098 Z" id="Shape" fill="#000000"></path>
    </g>
</svg>