<?xml version="1.0" encoding="UTF-8" standalone="no"?>
<svg width="64px" height="64px" viewBox="0 0 64 64" version="1.1" xmlns="http://www.w3.org/2000/svg" xmlns:xlink="http://www.w3.org/1999/xlink">
    <!-- Generator: Sketch 3.7.2 (28276) - http://www.bohemiancoding.com/sketch -->
    <title>ema-seal</title>
    <desc>Created with Sketch.</desc>
    <defs></defs>
    <g id="64px-Line" stroke="none" stroke-width="1" fill="none" fill-rule="evenodd">
        <g id="ema-seal"></g>
        <path d="M57,12 L7,12 C5.01,12 4,13.009 4,15 L4,49 C4,51.075 4.925,52 7,52 L57,52 C59.047,52 60,51.047 60,49 L60,15 C60,13.009 58.99,12 57,12 L57,12 Z M57,50 L7,50 C6.028,50 6,49.972 6,49 L6,15.249 L21.702,30.952 C21.897,31.147 22.153,31.245 22.409,31.245 C22.665,31.245 22.921,31.147 23.116,30.952 C23.507,30.561 23.507,29.929 23.116,29.538 L7.579,14 L56.305,14 L40.828,29.477 C40.437,29.868 40.437,30.5 40.828,30.891 C41.023,31.086 41.279,31.184 41.535,31.184 C41.791,31.184 42.047,31.086 42.242,30.891 L58,15.133 L58,49 C58,49.944 57.944,50 57,50 L57,50 Z" id="Shape" fill="#000000"></path>
        <path d="M38.646,31.923 C38.483,31.779 38.246,31.57 38.147,31.453 C38.134,31.301 38.155,30.986 38.168,30.769 C38.221,29.924 38.28,28.966 37.657,28.344 C37.033,27.719 36.075,27.779 35.23,27.831 C35.014,27.845 34.699,27.866 34.546,27.852 C34.43,27.753 34.221,27.517 34.076,27.353 C33.518,26.719 32.882,26 32,26 C31.118,26 30.482,26.719 29.923,27.354 C29.778,27.518 29.569,27.754 29.453,27.853 C29.3,27.866 28.986,27.847 28.769,27.832 C27.924,27.779 26.967,27.72 26.344,28.343 C25.719,28.967 25.779,29.925 25.831,30.77 C25.844,30.987 25.864,31.302 25.852,31.454 C25.753,31.571 25.516,31.78 25.353,31.924 C24.719,32.483 24,33.118 24,34 C24,34.882 24.719,35.517 25.354,36.077 C25.517,36.221 25.754,36.43 25.853,36.547 C25.866,36.699 25.845,37.014 25.832,37.231 C25.779,38.076 25.72,39.034 26.343,39.656 C26.967,40.281 27.923,40.221 28.77,40.169 C28.987,40.155 29.302,40.136 29.454,40.148 C29.57,40.246 29.779,40.483 29.924,40.647 C30.483,41.281 31.118,42 32,42 C32.882,42 33.517,41.281 34.077,40.646 C34.222,40.483 34.431,40.246 34.547,40.147 C34.698,40.134 35.014,40.153 35.231,40.168 C36.075,40.221 37.033,40.28 37.656,39.657 C38.281,39.033 38.221,38.075 38.169,37.23 C38.156,37.013 38.136,36.698 38.148,36.546 C38.247,36.429 38.484,36.22 38.647,36.076 C39.281,35.517 40,34.882 40,34 C40,33.118 39.281,32.483 38.646,31.923 L38.646,31.923 Z M37.323,34.578 C36.889,34.96 36.481,35.321 36.29,35.779 C36.102,36.235 36.137,36.779 36.172,37.356 C36.187,37.582 36.21,37.96 36.193,38.193 C35.96,38.21 35.582,38.187 35.356,38.173 C34.779,38.137 34.235,38.104 33.776,38.292 C33.322,38.481 32.961,38.891 32.579,39.323 C32.429,39.493 32.178,39.777 32.001,39.929 C31.824,39.777 31.573,39.493 31.423,39.323 C31.041,38.89 30.68,38.481 30.222,38.291 C29.947,38.177 29.639,38.145 29.311,38.145 C29.097,38.145 28.874,38.159 28.646,38.173 C28.421,38.187 28.043,38.21 27.809,38.193 C27.791,37.96 27.815,37.582 27.83,37.356 C27.865,36.779 27.899,36.235 27.71,35.776 C27.521,35.321 27.112,34.96 26.679,34.578 C26.509,34.428 26.226,34.178 26.074,34 C26.226,33.823 26.51,33.572 26.679,33.422 C27.113,33.04 27.521,32.679 27.712,32.221 C27.9,31.765 27.865,31.221 27.83,30.644 C27.815,30.418 27.792,30.04 27.809,29.807 C28.043,29.789 28.421,29.813 28.646,29.827 C29.224,29.864 29.766,29.897 30.226,29.707 C30.681,29.518 31.041,29.109 31.423,28.676 C31.573,28.506 31.824,28.222 32.001,28.07 C32.178,28.222 32.429,28.506 32.579,28.676 C32.961,29.109 33.321,29.517 33.78,29.708 C34.235,29.896 34.777,29.862 35.356,29.826 C35.582,29.812 35.96,29.788 36.193,29.806 C36.211,30.039 36.187,30.417 36.172,30.643 C36.137,31.22 36.103,31.764 36.292,32.223 C36.481,32.678 36.89,33.039 37.323,33.421 C37.493,33.571 37.776,33.821 37.928,33.999 C37.776,34.177 37.493,34.428 37.323,34.578 L37.323,34.578 Z" id="Shape" fill="#000000"></path>
    </g>
</svg>