<?xml version="1.0" encoding="UTF-8" standalone="no"?>
<svg width="64px" height="64px" viewBox="0 0 64 64" version="1.1" xmlns="http://www.w3.org/2000/svg" xmlns:xlink="http://www.w3.org/1999/xlink">
    <!-- Generator: Sketch 3.7.2 (28276) - http://www.bohemiancoding.com/sketch -->
    <title>ema-postage-stamp</title>
    <desc>Created with Sketch.</desc>
    <defs></defs>
    <g id="64px-Line" stroke="none" stroke-width="1" fill="none" fill-rule="evenodd">
        <g id="ema-postage-stamp"></g>
        <path d="M49,10 L15,10 C14.448,10 14,10.448 14,11 L14,51 C14,51.552 14.448,52 15,52 L49,52 C49.552,52 50,51.552 50,51 L50,11 C50,10.448 49.552,10 49,10 L49,10 Z M48,50 L16,50 L16,12 L48,12 L48,50 L48,50 Z" id="Shape" fill="#000000"></path>
        <path d="M56,14 C56.552,14 57,13.552 57,13 C57,12.448 56.552,12 56,12 C54.897,12 54,11.103 54,10 C54,8.897 54.897,8 56,8 C56.404,8 56.769,7.756 56.924,7.383 C57.079,7.009 56.993,6.579 56.707,6.293 L53.707,3.293 C53.421,3.006 52.992,2.921 52.617,3.076 C52.243,3.231 52,3.596 52,4 C52,5.103 51.103,6 50,6 C48.897,6 48,5.103 48,4 C48,3.448 47.552,3 47,3 C46.448,3 46,3.448 46,4 C46,5.103 45.103,6 44,6 C42.897,6 42,5.103 42,4 C42,3.448 41.552,3 41,3 C40.448,3 40,3.448 40,4 C40,5.103 39.103,6 38,6 C36.897,6 36,5.103 36,4 C36,3.448 35.552,3 35,3 C34.448,3 34,3.448 34,4 C34,5.103 33.103,6 32,6 C30.897,6 30,5.103 30,4 C30,3.448 29.552,3 29,3 C28.448,3 28,3.448 28,4 C28,5.103 27.103,6 26,6 C24.897,6 24,5.103 24,4 C24,3.448 23.552,3 23,3 C22.448,3 22,3.448 22,4 C22,5.103 21.103,6 20,6 C18.897,6 18,5.103 18,4 C18,3.448 17.552,3 17,3 C16.448,3 16,3.448 16,4 C16,5.103 15.103,6 14,6 C12.897,6 12,5.103 12,4 C12,3.596 11.756,3.231 11.383,3.076 C11.008,2.921 10.579,3.006 10.293,3.293 L7.293,6.293 C7.007,6.579 6.921,7.009 7.076,7.383 C7.231,7.757 7.596,8 8,8 C9.103,8 10,8.897 10,10 C10,11.103 9.103,12 8,12 C7.448,12 7,12.448 7,13 C7,13.552 7.448,14 8,14 C9.103,14 10,14.897 10,16 C10,17.103 9.103,18 8,18 C7.448,18 7,18.448 7,19 C7,19.552 7.448,20 8,20 C9.103,20 10,20.897 10,22 C10,23.103 9.103,24 8,24 C7.448,24 7,24.448 7,25 C7,25.552 7.448,26 8,26 C9.103,26 10,26.897 10,28 C10,29.103 9.103,30 8,30 C7.448,30 7,30.448 7,31 C7,31.552 7.448,32 8,32 C9.103,32 10,32.897 10,34 C10,35.103 9.103,36 8,36 C7.448,36 7,36.448 7,37 C7,37.552 7.448,38 8,38 C9.103,38 10,38.897 10,40 C10,41.103 9.103,42 8,42 C7.448,42 7,42.448 7,43 C7,43.552 7.448,44 8,44 C9.103,44 10,44.897 10,46 C10,47.103 9.103,48 8,48 C7.448,48 7,48.448 7,49 C7,49.552 7.448,50 8,50 C9.103,50 10,50.897 10,52 C10,53.103 9.103,54 8,54 C7.596,54 7.231,54.244 7.076,54.617 C6.921,54.991 7.007,55.421 7.293,55.707 L10.293,58.707 C10.579,58.993 11.008,59.078 11.383,58.924 C11.757,58.769 12,58.404 12,58 C12,56.897 12.897,56 14,56 C15.103,56 16,56.897 16,58 C16,58.552 16.448,59 17,59 C17.552,59 18,58.552 18,58 C18,56.897 18.897,56 20,56 C21.103,56 22,56.897 22,58 C22,58.552 22.448,59 23,59 C23.552,59 24,58.552 24,58 C24,56.897 24.897,56 26,56 C27.103,56 28,56.897 28,58 C28,58.552 28.448,59 29,59 C29.552,59 30,58.552 30,58 C30,56.897 30.897,56 32,56 C33.103,56 34,56.897 34,58 C34,58.552 34.448,59 35,59 C35.552,59 36,58.552 36,58 C36,56.897 36.897,56 38,56 C39.103,56 40,56.897 40,58 C40,58.552 40.448,59 41,59 C41.552,59 42,58.552 42,58 C42,56.897 42.897,56 44,56 C45.103,56 46,56.897 46,58 C46,58.552 46.448,59 47,59 C47.552,59 48,58.552 48,58 C48,56.897 48.897,56 50,56 C51.103,56 52,56.897 52,58 C52,58.404 52.244,58.769 52.617,58.924 C52.741,58.975 52.871,59 53,59 C53.26,59 53.516,58.898 53.707,58.707 L56.707,55.707 C56.993,55.421 57.079,54.991 56.924,54.617 C56.769,54.243 56.404,54 56,54 C54.897,54 54,53.103 54,52 C54,50.897 54.897,50 56,50 C56.552,50 57,49.552 57,49 C57,48.448 56.552,48 56,48 C54.897,48 54,47.103 54,46 C54,44.897 54.897,44 56,44 C56.552,44 57,43.552 57,43 C57,42.448 56.552,42 56,42 C54.897,42 54,41.103 54,40 C54,38.897 54.897,38 56,38 C56.552,38 57,37.552 57,37 C57,36.448 56.552,36 56,36 C54.897,36 54,35.103 54,34 C54,32.897 54.897,32 56,32 C56.552,32 57,31.552 57,31 C57,30.448 56.552,30 56,30 C54.897,30 54,29.103 54,28 C54,26.897 54.897,26 56,26 C56.552,26 57,25.552 57,25 C57,24.448 56.552,24 56,24 C54.897,24 54,23.103 54,22 C54,20.897 54.897,20 56,20 C56.552,20 57,19.552 57,19 C57,18.448 56.552,18 56,18 C54.897,18 54,17.103 54,16 C54,14.897 54.897,14 56,14 L56,14 Z M52,10 C52,11.193 52.525,12.267 53.357,13 C52.525,13.733 52,14.807 52,16 C52,17.193 52.525,18.267 53.357,19 C52.525,19.733 52,20.807 52,22 C52,23.193 52.525,24.267 53.357,25 C52.525,25.733 52,26.807 52,28 C52,29.193 52.525,30.267 53.357,31 C52.525,31.733 52,32.807 52,34 C52,35.193 52.525,36.267 53.357,37 C52.525,37.733 52,38.807 52,40 C52,41.193 52.525,42.267 53.357,43 C52.525,43.733 52,44.807 52,46 C52,47.193 52.525,48.267 53.357,49 C52.525,49.733 52,50.807 52,52 C52,53.51 52.841,54.827 54.078,55.507 L53.507,56.078 C52.827,54.841 51.51,54 50,54 C48.807,54 47.733,54.525 47,55.357 C46.267,54.525 45.193,54 44,54 C42.807,54 41.733,54.525 41,55.357 C40.267,54.525 39.193,54 38,54 C36.807,54 35.733,54.525 35,55.357 C34.267,54.525 33.193,54 32,54 C30.807,54 29.733,54.525 29,55.357 C28.267,54.525 27.193,54 26,54 C24.807,54 23.733,54.525 23,55.357 C22.267,54.525 21.193,54 20,54 C18.807,54 17.733,54.525 17,55.357 C16.267,54.525 15.193,54 14,54 C12.49,54 11.173,54.841 10.493,56.078 L9.922,55.507 C11.159,54.827 12,53.51 12,52 C12,50.807 11.475,49.733 10.643,49 C11.475,48.267 12,47.193 12,46 C12,44.807 11.475,43.733 10.643,43 C11.475,42.267 12,41.193 12,40 C12,38.807 11.475,37.733 10.643,37 C11.475,36.267 12,35.193 12,34 C12,32.807 11.475,31.733 10.643,31 C11.475,30.267 12,29.193 12,28 C12,26.807 11.475,25.733 10.643,25 C11.475,24.267 12,23.193 12,22 C12,20.807 11.475,19.733 10.643,19 C11.475,18.267 12,17.193 12,16 C12,14.807 11.475,13.733 10.643,13 C11.475,12.267 12,11.193 12,10 C12,8.49 11.159,7.173 9.922,6.493 L10.493,5.922 C11.173,7.159 12.49,8 14,8 C15.193,8 16.267,7.475 17,6.643 C17.733,7.475 18.807,8 20,8 C21.193,8 22.267,7.475 23,6.643 C23.733,7.475 24.807,8 26,8 C27.193,8 28.267,7.475 29,6.643 C29.733,7.475 30.807,8 32,8 C33.193,8 34.267,7.475 35,6.643 C35.733,7.475 36.807,8 38,8 C39.193,8 40.267,7.475 41,6.643 C41.733,7.475 42.807,8 44,8 C45.193,8 46.267,7.475 47,6.643 C47.733,7.475 48.807,8 50,8 C51.51,8 52.827,7.159 53.507,5.922 L54.078,6.493 C52.841,7.173 52,8.49 52,10 L52,10 Z" id="Shape" fill="#000000"></path>
        <path d="M19,45 C19.552,45 20,44.552 20,44 C20,37.383 25.383,32 32,32 C38.617,32 44,37.383 44,44 C44,44.552 44.448,45 45,45 C45.552,45 46,44.552 46,44 C46,37.801 41.947,32.538 36.354,30.702 C38.545,29.273 40,26.805 40,24 C40,19.589 36.411,16 32,16 C27.589,16 24,19.589 24,24 C24,26.805 25.455,29.273 27.646,30.702 C22.053,32.538 18,37.801 18,44 C18,44.552 18.448,45 19,45 L19,45 Z M26,24 C26,20.691 28.691,18 32,18 C35.309,18 38,20.691 38,24 C38,27.309 35.309,30 32,30 C28.691,30 26,27.309 26,24 L26,24 Z" id="Shape" fill="#000000"></path>
    </g>
</svg>