<?xml version="1.0" encoding="UTF-8" standalone="no"?>
<svg width="64px" height="64px" viewBox="0 0 64 64" version="1.1" xmlns="http://www.w3.org/2000/svg" xmlns:xlink="http://www.w3.org/1999/xlink">
    <!-- Generator: Sketch 3.7.2 (28276) - http://www.bohemiancoding.com/sketch -->
    <title>ema-open-picture</title>
    <desc>Created with Sketch.</desc>
    <defs></defs>
    <g id="64px-Line" stroke="none" stroke-width="1" fill="none" fill-rule="evenodd">
        <g id="ema-open-picture"></g>
        <path d="M6,59 C6,61.075 6.925,62 9,62 L55,62 C57.047,62 58,61.047 58,59 L58,27 C58,26.981 57.99,26.963 57.989,26.944 C57.985,26.88 57.969,26.821 57.953,26.76 C57.941,26.713 57.941,26.664 57.923,26.618 C57.916,26.6 57.902,26.587 57.894,26.569 C57.868,26.515 57.829,26.469 57.793,26.42 C57.751,26.363 57.712,26.307 57.659,26.26 C57.645,26.247 57.638,26.23 57.624,26.218 L52,21.731 L52,17 C52,15.009 50.991,14 49,14 L43.925,14 L34.77,5.172 C33.21,3.612 30.672,3.611 29.142,5.145 L19.574,14 L15,14 C13.009,14 12,15.009 12,17 L12,21.01 L6.321,26.266 C6.316,26.27 6.315,26.277 6.31,26.282 C6.252,26.337 6.214,26.407 6.171,26.475 C6.144,26.518 6.106,26.555 6.087,26.6 L6.078,26.618 C6.054,26.675 6.053,26.736 6.041,26.796 C6.028,26.858 6.006,26.917 6.005,26.981 C6.005,26.988 6.001,26.994 6.001,27.001 L6.001,59 L6,59 Z M22.603,44.017 L8,58.5 L8,29.414 L22.603,44.017 L22.603,44.017 Z M36.293,35.707 C36.684,36.098 37.316,36.098 37.707,35.707 C38.098,35.316 38.098,34.684 37.707,34.293 L34.414,31 L41,24.414 L49.586,33 L39.988,42.598 L34.77,37.38 C33.258,35.868 30.801,35.871 29.296,37.377 L24.023,42.607 L19.414,38 L29,28.414 L36.293,35.707 L36.293,35.707 Z M56,58.61 L41.402,44.012 L56,29.414 L56,58.61 L56,58.61 Z M30.708,38.795 C31.475,38.027 32.588,38.027 33.356,38.795 L54.562,60 L9.328,60 L30.708,38.795 L30.708,38.795 Z M55.502,27.084 L52,30.586 L52,24.29 L55.502,27.084 L55.502,27.084 Z M30.527,6.586 C31.283,5.83 32.587,5.817 33.368,6.599 L41.043,14 L22.518,14 L30.527,6.586 L30.527,6.586 Z M15,16 L43.519,16 L43.522,16 L43.524,16 L49,16 C49.888,16 50,16.112 50,17 L50,30.586 L41.707,22.293 C41.316,21.902 40.684,21.902 40.293,22.293 L33,29.586 L29.707,26.293 C29.316,25.902 28.684,25.902 28.293,26.293 L18,36.586 L14,32.586 L14,17 C14,16.112 14.112,16 15,16 L15,16 Z M12,30.586 L8.442,27.028 L12,23.735 L12,30.586 L12,30.586 Z" id="Shape" fill="#000000"></path>
        <path d="M20,26 C22.206,26 24,24.206 24,22 C24,19.794 22.206,18 20,18 C17.794,18 16,19.794 16,22 C16,24.206 17.794,26 20,26 L20,26 Z M20,20 C21.103,20 22,20.897 22,22 C22,23.103 21.103,24 20,24 C18.897,24 18,23.103 18,22 C18,20.897 18.897,20 20,20 L20,20 Z" id="Shape" fill="#000000"></path>
    </g>
</svg>