<?xml version="1.0" encoding="UTF-8" standalone="no"?>
<svg width="64px" height="64px" viewBox="0 0 64 64" version="1.1" xmlns="http://www.w3.org/2000/svg" xmlns:xlink="http://www.w3.org/1999/xlink">
    <!-- Generator: Sketch 3.7.2 (28276) - http://www.bohemiancoding.com/sketch -->
    <title>ema-flag</title>
    <desc>Created with Sketch.</desc>
    <defs></defs>
    <g id="64px-Line" stroke="none" stroke-width="1" fill="none" fill-rule="evenodd">
        <g id="ema-flag"></g>
        <path d="M59,30 L41,30 C40.448,30 40,30.447 40,31 L40,43 L40,55 C40,55.553 40.448,56 41,56 C41.552,56 42,55.553 42,55 L42,44 L59,44 C59.552,44 60,43.553 60,43 L60,31 C60,30.447 59.552,30 59,30 L59,30 Z M58,42 L42,42 L42,32 L58,32 L58,42 L58,42 Z" id="Shape" fill="#000000"></path>
        <path d="M35,42 L7,42 C6.028,42 6,41.972 6,41 L6,13.249 L25.113,32.363 C25.893,33.143 26.917,33.533 27.941,33.533 C28.965,33.533 29.989,33.143 30.769,32.363 L49.999,13.133 L49.999,25 C49.999,25.553 50.447,26 50.999,26 C51.551,26 51.999,25.553 51.999,25 L51.999,13 C51.999,11.01 50.99,10 48.999,10 L6.999,10 C5.008,10 3.999,11.01 3.999,13 L3.999,41 C3.999,43.075 4.924,44 6.999,44 L34.999,44 C35.551,44 35.999,43.553 35.999,43 C35.999,42.447 35.552,42 35,42 L35,42 Z M29.355,30.949 C28.575,31.728 27.306,31.728 26.527,30.949 L7.579,12 L48.305,12 L29.355,30.949 L29.355,30.949 Z" id="Shape" fill="#000000"></path>
    </g>
</svg>