<?xml version="1.0" encoding="UTF-8" standalone="no"?>
<svg width="64px" height="64px" viewBox="0 0 64 64" version="1.1" xmlns="http://www.w3.org/2000/svg" xmlns:xlink="http://www.w3.org/1999/xlink">
    <!-- Generator: Sketch 3.7.2 (28276) - http://www.bohemiancoding.com/sketch -->
    <title>ema-search</title>
    <desc>Created with Sketch.</desc>
    <defs></defs>
    <g id="64px-Line" stroke="none" stroke-width="1" fill="none" fill-rule="evenodd">
        <g id="ema-search"></g>
        <path d="M50,28 C44.486,28 40,32.486 40,38 C40,40.397 40.85,42.6 42.262,44.324 L34.293,52.293 C33.902,52.684 33.902,53.316 34.293,53.707 C34.488,53.902 34.744,54 35,54 C35.256,54 35.512,53.902 35.707,53.707 L43.676,45.738 C45.401,47.15 47.603,48 50,48 C55.514,48 60,43.514 60,38 C60,32.486 55.514,28 50,28 L50,28 Z M50,46 C45.589,46 42,42.411 42,38 C42,33.589 45.589,30 50,30 C54.411,30 58,33.589 58,38 C58,42.411 54.411,46 50,46 L50,46 Z" id="Shape" fill="#000000"></path>
        <path d="M37,41 C37,40.447 36.553,40 36,40 L7,40 C6.028,40 6,39.972 6,39 L6,11.249 L25.113,30.363 C25.892,31.143 26.917,31.533 27.941,31.533 C28.965,31.533 29.99,31.143 30.769,30.363 L49.999,11.133 L49.999,24 C49.999,24.553 50.446,25 50.999,25 C51.552,25 51.999,24.553 51.999,24 L51.999,11 C51.999,9.01 50.989,8 48.999,8 L6.999,8 C5.009,8 3.999,9.01 3.999,11 L3.999,39 C3.999,41.075 4.924,42 6.999,42 L35.999,42 C36.553,42 37,41.553 37,41 L37,41 Z M29.355,28.949 C28.576,29.728 27.306,29.728 26.527,28.949 L7.579,10 L48.305,10 L29.355,28.949 L29.355,28.949 Z" id="Shape" fill="#000000"></path>
    </g>
</svg>