<?xml version="1.0" encoding="UTF-8" standalone="no"?>
<svg width="44px" height="44px" viewBox="0 0 44 44" version="1.1" xmlns="http://www.w3.org/2000/svg" xmlns:xlink="http://www.w3.org/1999/xlink">
    <!-- Generator: Sketch 3.7.2 (28276) - http://www.bohemiancoding.com/sketch -->
    <title>ema-trash</title>
    <desc>Created with Sketch.</desc>
    <defs></defs>
    <g id="44px-Line" stroke="none" stroke-width="1" fill="none" fill-rule="evenodd">
        <g id="ema-trash"></g>
        <path d="M19,28 L2.448,28 C2.222,28 2.096,27.981 2.032,27.967 C2.018,27.903 2,27.778 2,27.552 L2,7.06 L15.293,19.07 C15.92,19.697 16.465,20.008 17.007,20.008 C17.541,20.008 18.071,19.706 18.671,19.106 L32,7.06 L32,11 C32,11.553 32.447,12 33,12 C33.553,12 34,11.553 34,11 L34,6.448 C34,4.846 33.153,4 31.552,4 L2.448,4 C0.846,4 0,4.847 0,6.448 L0,27.552 C0,29.199 0.801,30 2.448,30 L19,30 C19.553,30 20,29.553 20,29 C20,28.447 19.553,28 19,28 L19,28 Z M17.293,17.656 C17.16,17.789 17.066,17.874 17,17.928 C16.93,17.869 16.824,17.774 16.671,17.62 L3.811,6 L30.189,6 L17.293,17.656 L17.293,17.656 Z" id="Shape" fill="#000000"></path>
        <path d="M43,20.002 L41.01,20.002 C41.007,20.002 41.004,20 41,20 C40.996,20 40.994,20.002 40.99,20.002 L38,20.002 L38,20 C38,17.794 36.206,16 34,16 L32,16 C29.794,16 28,17.794 28,20 L28,20.002 L25.01,20.002 C25.007,20.002 25.004,20 25,20 C24.996,20 24.994,20.002 24.99,20.002 L23,20.002 C22.447,20.002 22,20.449 22,21.002 C22,21.555 22.447,22.002 23,22.002 L24,22.002 L24,36 C24,38.206 25.794,40 28,40 L38,40 C40.206,40 42,38.206 42,36 L42,22.002 L43,22.002 C43.553,22.002 44,21.555 44,21.002 C44,20.449 43.553,20.002 43,20.002 L43,20.002 Z M30,20 C30,18.897 30.897,18 32,18 L34,18 C35.103,18 36,18.897 36,20 L36,20.002 L30,20.002 L30,20 L30,20 Z M40,36 C40,37.103 39.103,38 38,38 L28,38 C26.897,38 26,37.103 26,36 L26,22.002 L40,22.002 L40,36 L40,36 Z" id="Shape" fill="#000000"></path>
        <path d="M29,36 C29.553,36 30,35.553 30,35 L30,25 C30,24.447 29.553,24 29,24 C28.447,24 28,24.447 28,25 L28,35 C28,35.553 28.447,36 29,36 L29,36 Z" id="Shape" fill="#000000"></path>
        <path d="M33,36 C33.553,36 34,35.553 34,35 L34,25 C34,24.447 33.553,24 33,24 C32.447,24 32,24.447 32,25 L32,35 C32,35.553 32.447,36 33,36 L33,36 Z" id="Shape" fill="#000000"></path>
        <path d="M37,36 C37.553,36 38,35.553 38,35 L38,25 C38,24.447 37.553,24 37,24 C36.447,24 36,24.447 36,25 L36,35 C36,35.553 36.447,36 37,36 L37,36 Z" id="Shape" fill="#000000"></path>
    </g>
</svg>