<?xml version="1.0" encoding="UTF-8" standalone="no"?>
<svg width="44px" height="44px" viewBox="0 0 44 44" version="1.1" xmlns="http://www.w3.org/2000/svg" xmlns:xlink="http://www.w3.org/1999/xlink">
    <!-- Generator: Sketch 3.7.2 (28276) - http://www.bohemiancoding.com/sketch -->
    <title>emo-clench</title>
    <desc>Created with Sketch.</desc>
    <defs></defs>
    <g id="44px-Line" stroke="none" stroke-width="1" fill="none" fill-rule="evenodd">
        <g id="emo-clench"></g>
        <path d="M22,0 C9.869,0 0,9.869 0,22 C0,34.131 9.869,44 22,44 C34.131,44 44,34.131 44,22 C44,9.869 34.131,0 22,0 L22,0 Z M22,42 C10.972,42 2,33.028 2,22 C2,10.972 10.972,2 22,2 C33.028,2 42,10.972 42,22 C42,33.028 33.028,42 22,42 L22,42 Z" id="Shape" fill="#000000"></path>
        <path d="M12,15 C12,13.346 13.346,12 15,12 C16.654,12 18,13.346 18,15 L18,17 C18,17.552 18.448,18 19,18 C19.552,18 20,17.552 20,17 L20,15 C20,12.243 17.757,10 15,10 C12.243,10 10,12.243 10,15 L10,17 C10,17.552 10.448,18 11,18 C11.552,18 12,17.552 12,17 L12,15 L12,15 Z" id="Shape" fill="#000000"></path>
        <path d="M29,10 C26.243,10 24,12.243 24,15 L24,17 C24,17.552 24.448,18 25,18 C25.552,18 26,17.552 26,17 L26,15 C26,13.346 27.346,12 29,12 C30.654,12 32,13.346 32,15 L32,17 C32,17.552 32.448,18 33,18 C33.552,18 34,17.552 34,17 L34,15 C34,12.243 31.757,10 29,10 L29,10 Z" id="Shape" fill="#000000"></path>
        <path d="M29,26 L15,26 C13.346,26 12,27.346 12,29 L12,33 C12,34.654 13.346,36 15,36 L29,36 C30.654,36 32,34.654 32,33 L32,29 C32,27.346 30.654,26 29,26 L29,26 Z M30,29 L30,30 L26,30 L26,28 L29,28 C29.551,28 30,28.449 30,29 L30,29 Z M20,30 L20,28 L24,28 L24,30 L20,30 L20,30 Z M24,32 L24,34 L20,34 L20,32 L24,32 L24,32 Z M15,28 L18,28 L18,30 L14,30 L14,29 C14,28.449 14.449,28 15,28 L15,28 Z M14,33 L14,32 L18,32 L18,34 L15,34 C14.449,34 14,33.551 14,33 L14,33 Z M29,34 L26,34 L26,32 L30,32 L30,33 C30,33.551 29.551,34 29,34 L29,34 Z" id="Shape" fill="#000000"></path>
    </g>
</svg>