<?xml version="1.0" encoding="UTF-8" standalone="no"?>
<svg width="44px" height="44px" viewBox="0 0 44 44" version="1.1" xmlns="http://www.w3.org/2000/svg" xmlns:xlink="http://www.w3.org/1999/xlink">
    <!-- Generator: Sketch 3.7.2 (28276) - http://www.bohemiancoding.com/sketch -->
    <title>emo-cool</title>
    <desc>Created with Sketch.</desc>
    <defs></defs>
    <g id="44px-Line" stroke="none" stroke-width="1" fill="none" fill-rule="evenodd">
        <g id="emo-cool"></g>
        <path d="M22,0 C9.869,0 0,9.869 0,22 C0,34.131 9.869,44 22,44 C34.131,44 44,34.131 44,22 C44,9.869 34.131,0 22,0 L22,0 Z M22,2 C29.384,2 35.829,6.032 39.294,12 L4.706,12 C8.171,6.032 14.616,2 22,2 L22,2 Z M6,14 L38,14 L38,16.135 C38,20.28 34.926,23.728 31,23.984 C28.312,24.157 25.729,22.865 24.246,20.611 C23.745,19.848 22.906,19.394 22,19.394 C21.094,19.394 20.255,19.848 19.754,20.61 C18.271,22.865 15.683,24.16 13,23.984 C9.074,23.728 6,20.28 6,16.135 L6,14 L6,14 Z M22,42 C10.972,42 2,33.028 2,22 C2,19.155 2.606,16.452 3.681,14 L4,14 L4,16.135 C4,21.33 7.896,25.655 12.869,25.98 C16.264,26.191 19.548,24.566 21.426,21.709 C21.613,21.425 21.89,21.395 22,21.395 C22.11,21.395 22.388,21.425 22.574,21.71 C24.34,24.394 27.341,26 30.517,26 C30.721,26 30.925,25.993 31.13,25.98 C36.104,25.655 39.999,21.331 39.999,16.135 L39.999,14 L40.318,14 C41.393,16.452 41.999,19.155 41.999,22 C42,33.028 33.028,42 22,42 L22,42 Z" id="Shape" fill="#000000"></path>
        <path d="M30.435,29.102 C29.94,28.861 29.342,29.071 29.1,29.565 C29.012,29.746 26.879,34.001 22,34.001 C17.136,34.001 15.001,29.772 14.901,29.567 C14.662,29.07 14.067,28.859 13.567,29.099 C13.069,29.338 12.859,29.935 13.098,30.433 C13.208,30.66 15.842,36 22,36 C28.158,36 30.792,30.66 30.901,30.433 C31.14,29.937 30.931,29.342 30.435,29.102 L30.435,29.102 Z" id="Shape" fill="#000000"></path>
        <path d="M14,22 C14.553,22 15,21.553 15,21 C15,20.447 14.553,20 14,20 C11.832,20 10,18.168 10,16 C10,15.447 9.553,15 9,15 C8.447,15 8,15.447 8,16 C8,19.252 10.748,22 14,22 L14,22 Z" id="Shape" fill="#000000"></path>
        <path d="M30,22 C30.553,22 31,21.553 31,21 C31,20.447 30.553,20 30,20 C27.869,20 26,18.131 26,16 C26,15.447 25.553,15 25,15 C24.447,15 24,15.447 24,16 C24,19.252 26.748,22 30,22 L30,22 Z" id="Shape" fill="#000000"></path>
    </g>
</svg>