<?xml version="1.0" encoding="UTF-8" standalone="no"?>
<svg width="44px" height="44px" viewBox="0 0 44 44" version="1.1" xmlns="http://www.w3.org/2000/svg" xmlns:xlink="http://www.w3.org/1999/xlink">
    <!-- Generator: Sketch 3.7.2 (28276) - http://www.bohemiancoding.com/sketch -->
    <title>emo-angry</title>
    <desc>Created with Sketch.</desc>
    <defs></defs>
    <g id="44px-Line" stroke="none" stroke-width="1" fill="none" fill-rule="evenodd">
        <g id="emo-angry"></g>
        <path d="M22,0 C9.869,0 0,9.869 0,22 C0,34.131 9.869,44 22,44 C34.131,44 44,34.131 44,22 C44,9.869 34.131,0 22,0 L22,0 Z M22,42 C10.972,42 2,33.028 2,22 C2,10.972 10.972,2 22,2 C33.028,2 42,10.972 42,22 C42,33.028 33.028,42 22,42 L22,42 Z" id="Shape" fill="#000000"></path>
        <circle id="Oval" fill="#000000" cx="30" cy="20" r="2"></circle>
        <circle id="Oval" fill="#000000" cx="14" cy="20" r="2"></circle>
        <path d="M27,30 L17,30 C16.448,30 16,30.448 16,31 C16,31.552 16.448,32 17,32 L27,32 C27.552,32 28,31.552 28,31 C28,30.448 27.552,30 27,30 L27,30 Z" id="Shape" fill="#000000"></path>
        <path d="M32.553,12.105 L24.553,16.105 C24.059,16.352 23.859,16.953 24.106,17.447 C24.281,17.798 24.634,18 25.002,18 C25.152,18 25.305,17.966 25.448,17.895 L33.448,13.895 C33.942,13.648 34.142,13.047 33.895,12.553 C33.647,12.06 33.047,11.858 32.553,12.105 L32.553,12.105 Z" id="Shape" fill="#000000"></path>
        <path d="M18.999,18 C19.366,18 19.719,17.798 19.895,17.447 C20.142,16.953 19.942,16.352 19.448,16.105 L11.448,12.105 C10.953,11.857 10.353,12.059 10.106,12.552 C9.859,13.046 10.059,13.647 10.553,13.894 L18.553,17.894 C18.696,17.966 18.849,18 18.999,18 L18.999,18 Z" id="Shape" fill="#000000"></path>
    </g>
</svg>