<?xml version="1.0" encoding="UTF-8" standalone="no"?>
<svg width="64px" height="64px" viewBox="0 0 64 64" version="1.1" xmlns="http://www.w3.org/2000/svg" xmlns:xlink="http://www.w3.org/1999/xlink">
    <!-- Generator: Sketch 3.7.2 (28276) - http://www.bohemiancoding.com/sketch -->
    <title>emo-ill</title>
    <desc>Created with Sketch.</desc>
    <defs></defs>
    <g id="64px-Glyph" stroke="none" stroke-width="1" fill="none" fill-rule="evenodd">
        <g id="emo-ill" fill="#000000">
            <path d="M45.0508,9.9546 C40.9548,7.4486 36.1438,6.0006 30.9998,6.0006 C23.4808,6.0006 16.6728,9.0936 11.7718,14.0706 L45.0508,9.9546 Z" id="Fill-192"></path>
            <path d="M40,34.001 C36.691,34.001 34,31.31 34,28.001 C34,24.692 36.691,22.001 40,22.001 C43.309,22.001 46,24.692 46,28.001 C46,31.31 43.309,34.001 40,34.001 L40,34.001 Z M42.649,49.939 C42.129,50.123 41.557,49.85 41.373,49.33 C39.821,44.946 35.653,42.001 31,42.001 C26.346,42.001 22.177,44.947 20.626,49.333 C20.481,49.744 20.096,50 19.684,50 C19.573,50 19.461,49.981 19.351,49.942 C18.829,49.759 18.557,49.187 18.741,48.667 C20.573,43.483 25.5,40.001 31,40.001 C36.499,40.001 41.425,43.481 43.258,48.662 C43.442,49.184 43.17,49.755 42.649,49.939 L42.649,49.939 Z M16,28.001 C16,24.692 18.691,22.001 22,22.001 C25.309,22.001 28,24.692 28,28.001 C28,31.31 25.309,34.001 22,34.001 C18.691,34.001 16,31.31 16,28.001 L16,28.001 Z M7.387,19.928 C5.232,23.805 4,28.261 4,33.001 C4,47.889 16.112,60.001 31,60.001 C45.888,60.001 58,47.889 58,33.001 C58,29.113 57.168,25.419 55.682,22.076 L7.387,19.928 Z" id="Fill-193"></path>
            <path d="M47.5164,11.6646 L9.7844,16.3316 C9.3634,16.8656 8.9574,17.4136 8.5764,17.9796 L54.6714,20.0296 C52.8804,16.7736 50.4344,13.9286 47.5164,11.6646" id="Fill-194"></path>
            <path d="M20,28.001 C20,26.898 20.897,26.001 22,26.001 C23.102,26.001 24,26.898 24,28.001 C24,29.104 23.102,30.001 22,30.001 C20.897,30.001 20,29.104 20,28.001 M26,28.001 C26,25.795 24.206,24.001 22,24.001 C19.794,24.001 18,25.795 18,28.001 C18,30.207 19.794,32.001 22,32.001 C24.206,32.001 26,30.207 26,28.001" id="Fill-195"></path>
            <path d="M40,30.001 C38.897,30.001 38,29.104 38,28.001 C38,26.898 38.897,26.001 40,26.001 C41.102,26.001 42,26.898 42,28.001 C42,29.104 41.102,30.001 40,30.001 M40,24.001 C37.794,24.001 36,25.795 36,28.001 C36,30.207 37.794,32.001 40,32.001 C42.206,32.001 44,30.207 44,28.001 C44,25.795 42.206,24.001 40,24.001" id="Fill-196"></path>
        </g>
    </g>
</svg>