<?xml version="1.0" encoding="UTF-8" standalone="no"?>
<svg width="44px" height="44px" viewBox="0 0 44 44" version="1.1" xmlns="http://www.w3.org/2000/svg" xmlns:xlink="http://www.w3.org/1999/xlink">
    <!-- Generator: Sketch 3.7.2 (28276) - http://www.bohemiancoding.com/sketch -->
    <title>emo-crying</title>
    <desc>Created with Sketch.</desc>
    <defs></defs>
    <g id="44px-Line" stroke="none" stroke-width="1" fill="none" fill-rule="evenodd">
        <g id="emo-crying"></g>
        <path d="M22,28 C17.547,28 13.554,30.672 12.063,34.649 C11.87,35.166 12.131,35.742 12.649,35.936 C12.765,35.98 12.883,36 13,36 C13.405,36 13.786,35.752 13.937,35.35 C15.136,32.15 18.376,29.999 22,29.999 C25.622,29.999 28.863,32.148 30.063,35.348 C30.258,35.866 30.834,36.126 31.351,35.932 C31.868,35.738 32.129,35.161 31.936,34.644 C30.444,30.671 26.451,28 22,28 L22,28 Z" id="Shape" fill="#000000"></path>
        <path d="M20,15 L20,13 C20,12.448 19.553,12 19,12 C18.447,12 18,12.448 18,13 L18,15 C18,16.654 16.654,18 15,18 C13.346,18 12,16.654 12,15 L12,13 C12,12.448 11.553,12 11,12 C10.447,12 10,12.448 10,13 L10,15 C10,17.757 12.243,20 15,20 C17.757,20 20,17.757 20,15 L20,15 Z" id="Shape" fill="#000000"></path>
        <path d="M34,13 C34,12.448 33.553,12 33,12 C32.447,12 32,12.448 32,13 L32,15 C32,16.654 30.654,18 29,18 C27.346,18 26,16.654 26,15 L26,13 C26,12.448 25.553,12 25,12 C24.447,12 24,12.448 24,13 L24,15 C24,17.757 26.243,20 29,20 C31.757,20 34,17.757 34,15 L34,13 L34,13 Z" id="Shape" fill="#000000"></path>
        <path d="M22,0 C9.869,0 0,9.869 0,22 C0,34.131 9.869,44 22,44 C34.131,44 44,34.131 44,22 C44,9.869 34.131,0 22,0 L22,0 Z M22,42 C10.972,42 2,33.028 2,22 C2,10.972 10.972,2 22,2 C33.028,2 42,10.972 42,22 C42,33.028 33.028,42 22,42 L22,42 Z" id="Shape" fill="#000000"></path>
        <path d="M9.546,19.109 C8.505,19.64 7.678,20.64 7.085,22.083 C6.875,22.594 7.119,23.178 7.63,23.388 C7.754,23.439 7.883,23.464 8.01,23.464 C8.403,23.464 8.777,23.23 8.935,22.843 C9.341,21.855 9.852,21.198 10.455,20.891 C10.947,20.64 11.143,20.038 10.892,19.546 C10.64,19.054 10.038,18.856 9.546,19.109 L9.546,19.109 Z" id="Shape" fill="#000000"></path>
        <path d="M7.321,24.786 C6.769,24.717 6.271,25.098 6.198,25.645 C5.955,27.47 5.998,28.969 6.001,29.032 C6.018,29.574 6.462,30.001 6.999,30.001 L7.031,30.001 C7.583,29.983 8.016,29.522 7.999,28.97 C7.999,28.956 7.959,27.574 8.181,25.91 C8.254,25.362 7.869,24.859 7.321,24.786 L7.321,24.786 Z" id="Shape" fill="#000000"></path>
        <path d="M34.454,19.109 C33.961,18.856 33.359,19.053 33.109,19.545 C32.858,20.037 33.053,20.639 33.546,20.89 C34.149,21.198 34.659,21.854 35.066,22.842 C35.224,23.229 35.597,23.463 35.991,23.463 C36.118,23.463 36.247,23.439 36.371,23.387 C36.882,23.177 37.126,22.593 36.916,22.082 C36.322,20.641 35.495,19.64 34.454,19.109 L34.454,19.109 Z" id="Shape" fill="#000000"></path>
        <path d="M35.819,25.909 C36.04,27.563 36.001,28.955 36,28.969 C35.983,29.521 36.417,29.982 36.969,29.999 L37.001,29.999 C37.538,29.999 37.982,29.572 37.999,29.031 C38.002,28.969 38.045,27.469 37.802,25.644 C37.729,25.097 37.231,24.716 36.679,24.785 C36.131,24.859 35.746,25.362 35.819,25.909 L35.819,25.909 Z" id="Shape" fill="#000000"></path>
    </g>
</svg>