<?xml version="1.0" encoding="UTF-8" standalone="no"?>
<svg width="44px" height="44px" viewBox="0 0 44 44" version="1.1" xmlns="http://www.w3.org/2000/svg" xmlns:xlink="http://www.w3.org/1999/xlink">
    <!-- Generator: Sketch 3.7.2 (28276) - http://www.bohemiancoding.com/sketch -->
    <title>emo-scream</title>
    <desc>Created with Sketch.</desc>
    <defs></defs>
    <g id="44px-Glyph" stroke="none" stroke-width="1" fill="none" fill-rule="evenodd">
        <g id="emo-scream" fill="#000000">
            <path d="M22,24 C17.375,24 13.555,27.506 13.056,32 L30.944,32 C30.445,27.506 26.625,24 22,24" id="Fill-229"></path>
            <path d="M33,18 L25,18 C24.596,18 24.23,17.757 24.076,17.383 C23.921,17.009 24.007,16.579 24.293,16.293 L30.293,10.293 C30.684,9.902 31.316,9.902 31.707,10.293 C32.098,10.684 32.098,11.316 31.707,11.707 L27.414,16 L33,16 C33.553,16 34,16.447 34,17 C34,17.553 33.553,18 33,18 M32,34 L12,34 C11.447,34 11,33.553 11,33 C11,26.935 15.935,22 22,22 C28.065,22 33,26.935 33,33 C33,33.553 32.553,34 32,34 M10,17 C10,16.447 10.447,16 11,16 L16.586,16 L12.293,11.707 C11.902,11.316 11.902,10.684 12.293,10.293 C12.684,9.902 13.316,9.902 13.707,10.293 L19.707,16.293 C19.993,16.579 20.079,17.009 19.924,17.383 C19.77,17.757 19.404,18 19,18 L11,18 C10.447,18 10,17.553 10,17 M22,0 C9.869,0 0,9.869 0,22 C0,34.131 9.869,44 22,44 C34.131,44 44,34.131 44,22 C44,9.869 34.131,0 22,0" id="Fill-230"></path>
        </g>
    </g>
</svg>