<?xml version="1.0" encoding="UTF-8" standalone="no"?>
<svg width="64px" height="64px" viewBox="0 0 64 64" version="1.1" xmlns="http://www.w3.org/2000/svg" xmlns:xlink="http://www.w3.org/1999/xlink">
    <!-- Generator: Sketch 3.7.2 (28276) - http://www.bohemiancoding.com/sketch -->
    <title>emo-nurse</title>
    <desc>Created with Sketch.</desc>
    <defs></defs>
    <g id="64px-Line" stroke="none" stroke-width="1" fill="none" fill-rule="evenodd">
        <g id="emo-nurse"></g>
        <path d="M41.449,44.108 C40.957,43.862 40.356,44.059 40.106,44.55 C39.994,44.773 37.271,50 31,50 C24.738,50 22.015,44.789 21.894,44.551 C21.647,44.058 21.047,43.86 20.553,44.105 C20.059,44.352 19.859,44.953 20.106,45.447 C20.239,45.715 23.469,52 31,52 C38.531,52 41.761,45.715 41.895,45.447 C42.141,44.954 41.941,44.356 41.449,44.108 L41.449,44.108 Z" id="Shape" fill="#000000"></path>
        <path d="M42.621,8.642 L43.367,5.66 C43.485,5.189 43.248,4.702 42.805,4.504 C39.081,2.842 35.109,2 31,2 C26.891,2 22.919,2.842 19.196,4.503 C18.753,4.701 18.515,5.188 18.634,5.659 L19.38,8.641 C10.014,13.115 4,22.574 4,33 C4,47.888 16.112,60 31,60 C45.888,60 58,47.888 58,33 C58,22.575 51.985,13.115 42.621,8.642 L42.621,8.642 Z M50.994,18 L40.28,18 L42.125,10.623 C45.676,12.39 48.693,14.931 50.994,18 L50.994,18 Z M31,4 C34.545,4 37.979,4.673 41.22,6.001 L38.22,18 L23.78,18 L20.78,6 C24.021,4.673 27.455,4 31,4 L31,4 Z M19.875,10.623 L21.72,18 L11.006,18 C13.307,14.931 16.324,12.39 19.875,10.623 L19.875,10.623 Z M31,58 C17.215,58 6,46.785 6,33 C6,28.313 7.324,23.842 9.664,20 L52.335,20 C54.676,23.842 56,28.313 56,33 C56,46.785 44.785,58 31,58 L31,58 Z" id="Shape" fill="#000000"></path>
        <path d="M40,22 C35.589,22 32,25.589 32,30 C32,34.411 35.589,38 40,38 C44.411,38 48,34.411 48,30 C48,25.589 44.411,22 40,22 L40,22 Z M40,36 C36.691,36 34,33.309 34,30 C34,26.691 36.691,24 40,24 C43.309,24 46,26.691 46,30 C46,33.309 43.309,36 40,36 L40,36 Z" id="Shape" fill="#000000"></path>
        <circle id="Oval" fill="#000000" cx="40" cy="30" r="2"></circle>
        <path d="M30,30 C30,25.589 26.411,22 22,22 C17.589,22 14,25.589 14,30 C14,34.411 17.589,38 22,38 C26.411,38 30,34.411 30,30 L30,30 Z M16,30 C16,26.691 18.691,24 22,24 C25.309,24 28,26.691 28,30 C28,33.309 25.309,36 22,36 C18.691,36 16,33.309 16,30 L16,30 Z" id="Shape" fill="#000000"></path>
        <circle id="Oval" fill="#000000" cx="22" cy="30" r="2"></circle>
        <path d="M27,12 L30,12 L30,15 C30,15.552 30.447,16 31,16 C31.553,16 32,15.552 32,15 L32,12 L35,12 C35.553,12 36,11.552 36,11 C36,10.448 35.553,10 35,10 L32,10 L32,7 C32,6.448 31.553,6 31,6 C30.447,6 30,6.448 30,7 L30,10 L27,10 C26.447,10 26,10.448 26,11 C26,11.552 26.447,12 27,12 L27,12 Z" id="Shape" fill="#000000"></path>
    </g>
</svg>