<?xml version="1.0" encoding="UTF-8" standalone="no"?>
<svg width="44px" height="44px" viewBox="0 0 44 44" version="1.1" xmlns="http://www.w3.org/2000/svg" xmlns:xlink="http://www.w3.org/1999/xlink">
    <!-- Generator: Sketch 3.7.2 (28276) - http://www.bohemiancoding.com/sketch -->
    <title>emo-worried</title>
    <desc>Created with Sketch.</desc>
    <defs></defs>
    <g id="44px-Glyph" stroke="none" stroke-width="1" fill="none" fill-rule="evenodd">
        <g id="emo-worried" fill="#000000">
            <path d="M29,16 C27.346,16 26,17.346 26,19 C26,20.654 27.346,22 29,22 C30.654,22 32,20.654 32,19 C32,17.346 30.654,16 29,16" id="Fill-174"></path>
            <path d="M29.8096,31.9951 C29.4076,31.9951 28.4376,32.2941 27.3656,33.3651 C26.0776,34.6531 25.9066,35.7931 26.0276,35.9791 C26.2086,36.0951 27.3466,35.9221 28.6346,34.6351 C29.9126,33.3561 30.0906,32.2241 29.9746,32.0251 C29.9436,32.0061 29.8866,31.9951 29.8096,31.9951" id="Fill-175"></path>
            <path d="M37,20 C36.447,20 36,19.553 36,19 C36,15.141 32.859,12 29,12 C28.447,12 28,11.553 28,11 C28,10.447 28.447,10 29,10 C33.963,10 38,14.037 38,19 C38,19.553 37.553,20 37,20 M29,24 C26.243,24 24,21.757 24,19 C24,16.243 26.243,14 29,14 C31.757,14 34,16.243 34,19 C34,21.757 31.757,24 29,24 M30.049,36.049 C28.789,37.308 27.357,37.991 26.189,37.991 C25.565,37.991 25.017,37.796 24.61,37.39 C23.442,36.223 24.019,33.885 25.951,31.951 C27.884,30.021 30.223,29.442 31.39,30.61 C32.558,31.777 31.98,34.115 30.049,36.049 M15,24 C12.243,24 10,21.757 10,19 C10,16.243 12.243,14 15,14 C17.757,14 20,16.243 20,19 C20,21.757 17.757,24 15,24 M7,20 C6.447,20 6,19.553 6,19 C6,14.037 10.037,10 15,10 C15.553,10 16,10.447 16,11 C16,11.553 15.553,12 15,12 C11.141,12 8,15.141 8,19 C8,19.553 7.553,20 7,20 M22,0 C9.869,0 0,9.869 0,22 C0,34.131 9.869,44 22,44 C34.131,44 44,34.131 44,22 C44,9.869 34.131,0 22,0" id="Fill-176"></path>
            <path d="M15,16 C13.346,16 12,17.346 12,19 C12,20.654 13.346,22 15,22 C16.654,22 18,20.654 18,19 C18,17.346 16.654,16 15,16" id="Fill-177"></path>
        </g>
    </g>
</svg>