<?xml version="1.0" encoding="UTF-8" standalone="no"?>
<svg width="64px" height="64px" viewBox="0 0 64 64" version="1.1" xmlns="http://www.w3.org/2000/svg" xmlns:xlink="http://www.w3.org/1999/xlink">
    <!-- Generator: Sketch 3.7.2 (28276) - http://www.bohemiancoding.com/sketch -->
    <title>emo-goofy</title>
    <desc>Created with Sketch.</desc>
    <defs></defs>
    <g id="64px-Glyph" stroke="none" stroke-width="1" fill="none" fill-rule="evenodd">
        <g id="emo-goofy" fill="#000000">
            <polygon id="Fill-107" points="32 44.001 36 44.001 36 40.003 32 40.003"></polygon>
            <polygon id="Fill-108" points="26 44.001 30 44.001 30 40.003 26 40.003"></polygon>
            <path d="M38,44.001 C38,45.103 37.102,46.001 36,46.001 L26,46.001 C24.897,46.001 24,45.103 24,44.001 L24,40.003 L18.349,40.003 C19.718,45.777 24.965,50.001 31,50.001 C37.035,50.001 42.282,45.777 43.651,40.003 L38,40.003 L38,44.001 Z" id="Fill-109"></path>
            <path d="M40,28.001 C38.897,28.001 38,27.103 38,26.001 C38,24.898 38.897,24.001 40,24.001 C41.102,24.001 42,24.898 42,26.001 C42,27.103 41.102,28.001 40,28.001 M40,20.001 C36.691,20.001 34,22.692 34,26.001 C34,29.31 36.691,32.001 40,32.001 C43.309,32.001 46,29.31 46,26.001 C46,22.692 43.309,20.001 40,20.001" id="Fill-110"></path>
            <path d="M40,34.001 C35.589,34.001 32,30.412 32,26.001 C32,21.59 35.589,18.001 40,18.001 C44.411,18.001 48,21.59 48,26.001 C48,30.412 44.411,34.001 40,34.001 M31,52.001 C23.585,52.001 17.201,46.474 16.151,39.145 C16.11,38.857 16.196,38.567 16.386,38.348 C16.576,38.129 16.852,38.003 17.142,38.003 L24.99,38.003 C24.994,38.003 24.997,38.001 25,38.001 C25.003,38.001 25.006,38.003 25.01,38.003 L30.99,38.003 C30.994,38.003 30.997,38.001 31,38.001 C31.003,38.001 31.006,38.003 31.01,38.003 L36.99,38.003 C36.994,38.003 36.997,38.001 37,38.001 C37.003,38.001 37.006,38.003 37.01,38.003 L44.858,38.003 C45.148,38.003 45.424,38.129 45.614,38.348 C45.804,38.567 45.89,38.857 45.849,39.145 C44.799,46.474 38.415,52.001 31,52.001 M22,18.001 C26.411,18.001 30,21.59 30,26.001 C30,30.412 26.411,34.001 22,34.001 C17.589,34.001 14,30.412 14,26.001 C14,21.59 17.589,18.001 22,18.001 M31,6.001 C16.112,6.001 4,18.113 4,33.001 C4,47.889 16.112,60.001 31,60.001 C45.888,60.001 58,47.889 58,33.001 C58,18.113 45.888,6.001 31,6.001" id="Fill-111"></path>
            <path d="M22,24.001 C23.102,24.001 24,24.898 24,26.001 C24,27.103 23.102,28.001 22,28.001 C20.897,28.001 20,27.103 20,26.001 C20,24.898 20.897,24.001 22,24.001 M22,32.001 C25.309,32.001 28,29.31 28,26.001 C28,22.692 25.309,20.001 22,20.001 C18.691,20.001 16,22.692 16,26.001 C16,29.31 18.691,32.001 22,32.001" id="Fill-112"></path>
        </g>
    </g>
</svg>