<?xml version="1.0" encoding="UTF-8" standalone="no"?>
<svg width="44px" height="44px" viewBox="0 0 44 44" version="1.1" xmlns="http://www.w3.org/2000/svg" xmlns:xlink="http://www.w3.org/1999/xlink">
    <!-- Generator: Sketch 3.7.2 (28276) - http://www.bohemiancoding.com/sketch -->
    <title>emo-cheeky</title>
    <desc>Created with Sketch.</desc>
    <defs></defs>
    <g id="44px-Line" stroke="none" stroke-width="1" fill="none" fill-rule="evenodd">
        <g id="emo-cheeky"></g>
        <path d="M22,0 C9.869,0 0,9.869 0,22 C0,34.131 9.869,44 22,44 C34.131,44 44,34.131 44,22 C44,9.869 34.131,0 22,0 L22,0 Z M22,42 C10.972,42 2,33.028 2,22 C2,10.972 10.972,2 22,2 C33.028,2 42,10.972 42,22 C42,33.028 33.028,42 22,42 L22,42 Z" id="Shape" fill="#000000"></path>
        <path d="M32.647,26.064 C32.606,26.08 28.486,27.6 22,27.6 C15.514,27.6 11.394,26.08 11.353,26.065 C10.838,25.868 10.259,26.131 10.065,26.648 C9.87,27.164 10.13,27.74 10.646,27.936 C10.694,27.954 11.051,28.085 11.668,28.265 L11.304,29.259 C10.36,31.836 11.657,34.718 14.196,35.683 C14.758,35.897 15.342,36.003 15.926,36.003 C16.614,36.003 17.302,35.855 17.948,35.559 C19.159,35.005 20.081,34.005 20.562,32.688 L21.5,29.594 C21.668,29.596 21.829,29.601 22,29.601 C28.881,29.601 33.175,28.004 33.354,27.937 C33.87,27.741 34.13,27.165 33.935,26.649 C33.741,26.131 33.163,25.868 32.647,26.064 L32.647,26.064 Z M18.666,32.053 C18.389,32.811 17.838,33.409 17.117,33.74 C16.413,34.06 15.629,34.086 14.907,33.813 C13.386,33.235 12.613,31.501 13.182,29.946 L13.619,28.752 C15.084,29.066 17.048,29.383 19.431,29.524 L18.666,32.053 L18.666,32.053 Z" id="Shape" fill="#000000"></path>
        <path d="M29,10 C25.14,10 22,13.141 22,17 C22,20.859 25.14,24 29,24 C32.86,24 36,20.859 36,17 C36,13.141 32.86,10 29,10 L29,10 Z M29,22 C26.243,22 24,19.757 24,17 C24,14.243 26.243,12 29,12 C31.757,12 34,14.243 34,17 C34,19.757 31.757,22 29,22 L29,22 Z" id="Shape" fill="#000000"></path>
        <circle id="Oval" fill="#000000" cx="29" cy="17" r="2"></circle>
        <path d="M15,10 C11.14,10 8,13.141 8,17 C8,20.859 11.14,24 15,24 C18.86,24 22,20.859 22,17 C22,13.141 18.86,10 15,10 L15,10 Z M15,22 C12.243,22 10,19.757 10,17 C10,14.243 12.243,12 15,12 C17.757,12 20,14.243 20,17 C20,19.757 17.757,22 15,22 L15,22 Z" id="Shape" fill="#000000"></path>
        <circle id="Oval" fill="#000000" cx="15" cy="17" r="2"></circle>
    </g>
</svg>