<?xml version="1.0" encoding="UTF-8" standalone="no"?>
<svg width="64px" height="64px" viewBox="0 0 64 64" version="1.1" xmlns="http://www.w3.org/2000/svg" xmlns:xlink="http://www.w3.org/1999/xlink">
    <!-- Generator: Sketch 3.7.2 (28276) - http://www.bohemiancoding.com/sketch -->
    <title>emo-dracula</title>
    <desc>Created with Sketch.</desc>
    <defs></defs>
    <g id="64px-Glyph" stroke="none" stroke-width="1" fill="none" fill-rule="evenodd">
        <g id="emo-dracula" fill="#000000">
            <polygon id="Fill-61" points="39.1302 40.003 34.8702 40.003 37.0002 43.198"></polygon>
            <path d="M37.832,45.5557 C37.646,45.8337 37.335,46.0007 37,46.0007 C36.665,46.0007 36.353,45.8337 36.168,45.5557 L32.466,40.0027 L29.534,40.0027 L25.832,45.5557 C25.646,45.8337 25.335,46.0007 25,46.0007 C24.665,46.0007 24.353,45.8337 24.168,45.5557 L20.466,40.0027 L18.349,40.0027 C19.718,45.7777 24.964,50.0007 31,50.0007 C37.036,50.0007 42.282,45.7777 43.651,40.0027 L41.534,40.0027 L37.832,45.5557 Z" id="Fill-63"></path>
            <path d="M22,24.001 C23.103,24.001 24,24.898 24,26.001 C24,27.103 23.103,28.001 22,28.001 C20.897,28.001 20,27.103 20,26.001 C20,24.898 20.897,24.001 22,24.001 M22,32.001 C25.309,32.001 28,29.31 28,26.001 C28,22.692 25.309,20.001 22,20.001 C18.691,20.001 16,22.692 16,26.001 C16,29.31 18.691,32.001 22,32.001" id="Fill-65"></path>
            <polygon id="Fill-67" points="27.1302 40.003 22.8702 40.003 25.0002 43.198"></polygon>
            <path d="M40,34.001 C35.589,34.001 32,30.412 32,26.001 C32,21.59 35.589,18.001 40,18.001 C44.411,18.001 48,21.59 48,26.001 C48,30.412 44.411,34.001 40,34.001 M31,52.001 C23.585,52.001 17.202,46.474 16.152,39.145 C16.111,38.857 16.197,38.567 16.387,38.348 C16.577,38.129 16.852,38.003 17.142,38.003 L44.858,38.003 C45.148,38.003 45.423,38.129 45.613,38.348 C45.803,38.567 45.889,38.857 45.848,39.145 C44.798,46.474 38.415,52.001 31,52.001 M22,18.001 C26.411,18.001 30,21.59 30,26.001 C30,30.412 26.411,34.001 22,34.001 C17.589,34.001 14,30.412 14,26.001 C14,21.59 17.589,18.001 22,18.001 M31,6.001 C16.112,6.001 4,18.113 4,33.001 C4,47.889 16.112,60.001 31,60.001 C45.888,60.001 58,47.889 58,33.001 C58,18.113 45.888,6.001 31,6.001" id="Fill-69"></path>
            <path d="M40,28.001 C38.897,28.001 38,27.103 38,26.001 C38,24.898 38.897,24.001 40,24.001 C41.103,24.001 42,24.898 42,26.001 C42,27.103 41.103,28.001 40,28.001 M40,20.001 C36.691,20.001 34,22.692 34,26.001 C34,29.31 36.691,32.001 40,32.001 C43.309,32.001 46,29.31 46,26.001 C46,22.692 43.309,20.001 40,20.001" id="Fill-71"></path>
        </g>
    </g>
</svg>