<?xml version="1.0" encoding="UTF-8" standalone="no"?>
<svg width="44px" height="44px" viewBox="0 0 44 44" version="1.1" xmlns="http://www.w3.org/2000/svg" xmlns:xlink="http://www.w3.org/1999/xlink">
    <!-- Generator: Sketch 3.7.2 (28276) - http://www.bohemiancoding.com/sketch -->
    <title>emo-robot</title>
    <desc>Created with Sketch.</desc>
    <defs></defs>
    <g id="44px-Glyph" stroke="none" stroke-width="1" fill="none" fill-rule="evenodd">
        <g id="emo-robot" fill="#000000">
            <path d="M26,22 C24.897,22 24,21.103 24,20 L18,20 C18,21.103 17.102,22 16,22 C14.897,22 14,21.103 14,20 L12,20 L12,24 L30,24 L30,20 L28,20 C28,21.103 27.102,22 26,22" id="Fill-185"></path>
            <path d="M32,25 C32,25.553 31.553,26 31,26 L11,26 C10.447,26 10,25.553 10,25 L10,19 C10,18.447 10.447,18 11,18 L31,18 C31.553,18 32,18.447 32,19 L32,25 Z M28,35 C28,35.553 27.553,36 27,36 L15,36 C14.447,36 14,35.553 14,35 L14,33 C14,32.447 14.447,32 15,32 C15.553,32 16,32.447 16,33 L16,34 L26,34 L26,33 C26,32.447 26.447,32 27,32 C27.553,32 28,32.447 28,33 L28,35 Z M35,8 L22,8 L22,5.816 C23.161,5.401 24,4.302 24,3 C24,1.346 22.654,0 21,0 C19.346,0 18,1.346 18,3 C18,4.302 18.839,5.401 20,5.815 L20,8 L7,8 C4.243,8 2,10.243 2,13 L2,39 C2,41.757 4.243,44 7,44 L35,44 C37.757,44 40,41.757 40,39 L40,13 C40,10.243 37.757,8 35,8 L35,8 Z" id="Fill-186"></path>
        </g>
    </g>
</svg>