<?xml version="1.0" encoding="UTF-8" standalone="no"?>
<svg width="44px" height="44px" viewBox="0 0 44 44" version="1.1" xmlns="http://www.w3.org/2000/svg" xmlns:xlink="http://www.w3.org/1999/xlink">
    <!-- Generator: Sketch 3.7.2 (28276) - http://www.bohemiancoding.com/sketch -->
    <title>emo-chortle</title>
    <desc>Created with Sketch.</desc>
    <defs></defs>
    <g id="44px-Line" stroke="none" stroke-width="1" fill="none" fill-rule="evenodd">
        <g id="emo-chortle"></g>
        <path d="M22,0 C9.869,0 0,9.869 0,22 C0,34.131 9.869,44 22,44 C34.131,44 44,34.131 44,22 C44,9.869 34.131,0 22,0 L22,0 Z M22,42 C10.972,42 2,33.028 2,22 C2,10.972 10.972,2 22,2 C33.028,2 42,10.972 42,22 C42,33.028 33.028,42 22,42 L22,42 Z" id="Shape" fill="#000000"></path>
        <path d="M33.991,27.135 C34.03,26.849 33.944,26.56 33.754,26.342 C33.563,26.125 33.289,26 33,26 L11,26 C10.711,26 10.437,26.125 10.247,26.342 C10.057,26.56 9.971,26.849 10.01,27.135 C10.217,28.654 10.686,30.078 11.36,31.367 C11.367,31.385 11.376,31.401 11.384,31.418 C13.467,35.36 17.497,38 22,38 C26.503,38 30.533,35.36 32.616,31.419 C32.624,31.401 32.633,31.386 32.64,31.368 C33.315,30.079 33.784,28.654 33.991,27.135 L33.991,27.135 Z M31.793,28 C31.622,28.699 31.377,29.365 31.081,30 L12.918,30 C12.622,29.365 12.378,28.699 12.206,28 L31.793,28 L31.793,28 Z M22,36 C18.86,36 15.997,34.446 14.124,32 L29.876,32 C28.003,34.446 25.14,36 22,36 L22,36 Z" id="Shape" fill="#000000"></path>
        <path d="M11,18 C11.552,18 12,17.552 12,17 L12,15 C12,13.346 13.346,12 15,12 C16.654,12 18,13.346 18,15 L18,17 C18,17.552 18.448,18 19,18 C19.552,18 20,17.552 20,17 L20,15 C20,12.243 17.757,10 15,10 C12.243,10 10,12.243 10,15 L10,17 C10,17.552 10.448,18 11,18 L11,18 Z" id="Shape" fill="#000000"></path>
        <path d="M29,10 C26.243,10 24,12.243 24,15 L24,17 C24,17.552 24.448,18 25,18 C25.552,18 26,17.552 26,17 L26,15 C26,13.346 27.346,12 29,12 C30.654,12 32,13.346 32,15 L32,17 C32,17.552 32.448,18 33,18 C33.552,18 34,17.552 34,17 L34,15 C34,12.243 31.757,10 29,10 L29,10 Z" id="Shape" fill="#000000"></path>
    </g>
</svg>