<?xml version="1.0" encoding="UTF-8" standalone="no"?>
<svg width="64px" height="64px" viewBox="0 0 64 64" version="1.1" xmlns="http://www.w3.org/2000/svg" xmlns:xlink="http://www.w3.org/1999/xlink">
    <!-- Generator: Sketch 3.7.2 (28276) - http://www.bohemiancoding.com/sketch -->
    <title>emo-pirate</title>
    <desc>Created with Sketch.</desc>
    <defs></defs>
    <g id="64px-Glyph" stroke="none" stroke-width="1" fill="none" fill-rule="evenodd">
        <g id="emo-pirate" fill="#000000">
            <path d="M22,32.001 C25.309,32.001 28,29.31 28,26.001 L28,22.001 L16,22.001 L16,26.001 C16,29.31 18.691,32.001 22,32.001" id="Fill-53"></path>
            <path d="M14.5104,28.7866 C14.1864,27.9176 14.0004,26.9816 14.0004,26.0006 L14.0004,21.0006 C14.0004,20.4486 14.4474,20.0006 15.0004,20.0006 L28.8704,20.0006 L45.1674,10.0296 C41.0464,7.4786 36.1934,6.0006 31.0004,6.0006 C16.1124,6.0006 4.0004,18.1136 4.0004,33.0006 C4.0004,33.7286 4.0374,34.4466 4.0944,35.1596 L14.5104,28.7866 Z" id="Fill-55"></path>
            <path d="M40,28.001 C38.897,28.001 38,27.103 38,26.001 C38,24.898 38.897,24.001 40,24.001 C41.103,24.001 42,24.898 42,26.001 C42,27.103 41.103,28.001 40,28.001 M40,20.001 C36.691,20.001 34,22.692 34,26.001 C34,29.31 36.691,32.001 40,32.001 C43.309,32.001 46,29.31 46,26.001 C46,22.692 43.309,20.001 40,20.001" id="Fill-57"></path>
            <path d="M40,34.001 C35.589,34.001 32,30.412 32,26.001 C32,21.59 35.589,18.001 40,18.001 C44.411,18.001 48,21.59 48,26.001 C48,30.412 44.411,34.001 40,34.001 M41.895,43.448 C41.761,43.716 38.531,50.001 31,50.001 C23.469,50.001 20.239,43.716 20.105,43.448 C19.858,42.954 20.059,42.353 20.553,42.106 C21.048,41.861 21.647,42.06 21.894,42.553 C22.014,42.79 24.738,48.001 31,48.001 C37.271,48.001 39.994,42.773 40.107,42.552 C40.357,42.06 40.958,41.86 41.449,42.109 C41.941,42.357 42.141,42.955 41.895,43.448 M46.987,11.26 L30,21.653 L30,26.001 C30,30.412 26.411,34.001 22,34.001 C19.285,34.001 16.884,32.638 15.437,30.563 L4.354,37.344 C6.438,50.174 17.591,60.001 31,60.001 C45.888,60.001 58,47.889 58,33.001 C58,24.092 53.661,16.181 46.987,11.26" id="Fill-59"></path>
        </g>
    </g>
</svg>