<?xml version="1.0" encoding="UTF-8" standalone="no"?>
<svg width="64px" height="64px" viewBox="0 0 64 64" version="1.1" xmlns="http://www.w3.org/2000/svg" xmlns:xlink="http://www.w3.org/1999/xlink">
    <!-- Generator: Sketch 3.7.2 (28276) - http://www.bohemiancoding.com/sketch -->
    <title>emo-dazed</title>
    <desc>Created with Sketch.</desc>
    <defs></defs>
    <g id="64px-Glyph" stroke="none" stroke-width="1" fill="none" fill-rule="evenodd">
        <g id="emo-dazed" fill="#000000">
            <path d="M42.3306,21.3281 L42.3276,21.3281 C39.9356,21.3281 37.9896,23.2741 37.9896,25.6661 C37.9896,26.5401 38.3296,27.3611 38.9476,27.9781 C39.4256,28.4571 40.0276,28.7631 40.6796,28.8791 C40.2616,28.3631 39.9996,27.7151 39.9996,27.0011 C39.9996,25.3471 41.3456,24.0011 42.9996,24.0011 C44.6546,24.0011 45.9996,25.3471 45.9996,27.0011 C45.9996,27.2491 45.9616,27.4851 45.9046,27.7161 C45.8836,27.8021 45.8536,27.8861 45.8256,27.9711 C45.7826,28.0931 45.7346,28.2111 45.6776,28.3261 C45.4036,28.9131 44.9696,29.4551 44.3516,29.9031 C43.4486,30.5601 42.3216,30.9361 41.2606,30.9361 L41.2556,30.9361 C39.8496,30.9361 38.5276,30.3881 37.5326,29.3931 C36.5376,28.3971 35.9896,27.0741 35.9896,25.6661 C35.9896,23.4091 37.1796,21.4291 38.9606,20.3061 C36.0926,21.1811 33.9996,23.8511 33.9996,27.0011 C33.9996,30.8601 37.1406,34.0011 40.9996,34.0011 C44.8596,34.0011 47.9996,30.8601 47.9996,27.0011 C47.9996,25.4861 47.4096,24.0611 46.3386,22.9891 C45.2666,21.9181 43.8446,21.3281 42.3306,21.3281" id="Fill-207"></path>
            <path d="M26.3384,22.9893 C25.2674,21.9183 23.8444,21.3283 22.3304,21.3283 L22.3274,21.3283 C19.9354,21.3283 17.9894,23.2743 17.9894,25.6663 C17.9894,26.5403 18.3294,27.3613 18.9474,27.9783 C19.4254,28.4573 20.0274,28.7633 20.6794,28.8793 C20.2614,28.3633 20.0004,27.7153 20.0004,27.0013 C20.0004,25.3463 21.3454,24.0013 23.0004,24.0013 C24.6544,24.0013 26.0004,25.3463 26.0004,27.0013 C26.0004,27.2483 25.9614,27.4853 25.9044,27.7163 C25.8834,27.8023 25.8534,27.8853 25.8254,27.9713 C25.7834,28.0933 25.7344,28.2113 25.6774,28.3263 C25.4044,28.9123 24.9694,29.4553 24.3524,29.9033 C23.4484,30.5593 22.3214,30.9353 21.2604,30.9353 L21.2554,30.9353 C19.8494,30.9353 18.5274,30.3873 17.5324,29.3923 C16.5374,28.3973 15.9894,27.0743 15.9894,25.6663 C15.9894,23.4083 17.1794,21.4283 18.9604,20.3053 C16.0924,21.1813 14.0004,23.8503 14.0004,27.0013 C14.0004,30.8603 17.1404,34.0013 21.0004,34.0013 C24.8594,34.0013 28.0004,30.8603 28.0004,27.0013 C28.0004,25.4863 27.4094,24.0613 26.3384,22.9893" id="Fill-208"></path>
            <path d="M23.9141,27.4004 C23.9641,27.2744 24.0001,27.1424 24.0001,27.0014 C24.0001,26.4494 23.5511,26.0014 23.0001,26.0014 C22.4491,26.0014 22.0001,26.4494 22.0001,27.0014 C22.0001,27.5524 22.4491,28.0014 23.0001,28.0014 C23.4091,28.0014 23.7591,27.7534 23.9141,27.4004" id="Fill-209"></path>
            <path d="M43.9141,27.4004 C43.9631,27.2744 44.0001,27.1424 44.0001,27.0014 C44.0001,26.4494 43.5511,26.0014 43.0001,26.0014 C42.4491,26.0014 42.0001,26.4494 42.0001,27.0014 C42.0001,27.5524 42.4491,28.0014 43.0001,28.0014 C43.4091,28.0014 43.7591,27.7534 43.9141,27.4004" id="Fill-210"></path>
            <path d="M41,36.001 C36.038,36.001 32,31.964 32,27.001 C32,22.038 36.038,18.001 41,18.001 C45.7,18.001 49.564,21.624 49.961,26.224 C49.986,26.48 50,26.74 50,27.001 C50,31.964 45.962,36.001 41,36.001 M35,46.001 L27,46.001 C26.448,46.001 26,45.554 26,45.001 C26,44.448 26.448,44.001 27,44.001 L35,44.001 C35.552,44.001 36,44.448 36,45.001 C36,45.554 35.552,46.001 35,46.001 M12,27.001 C12,22.038 16.038,18.001 21,18.001 C25.7,18.001 29.564,21.624 29.961,26.224 C29.986,26.48 30,26.74 30,27.001 C30,31.964 25.962,36.001 21,36.001 C16.038,36.001 12,31.964 12,27.001 M31,6.001 C16.112,6.001 4,18.113 4,33.001 C4,47.889 16.112,60.001 31,60.001 C45.888,60.001 58,47.889 58,33.001 C58,18.113 45.888,6.001 31,6.001" id="Fill-211"></path>
        </g>
    </g>
</svg>