<?xml version="1.0" encoding="UTF-8" standalone="no"?>
<svg width="44px" height="44px" viewBox="0 0 44 44" version="1.1" xmlns="http://www.w3.org/2000/svg" xmlns:xlink="http://www.w3.org/1999/xlink">
    <!-- Generator: Sketch 3.7.2 (28276) - http://www.bohemiancoding.com/sketch -->
    <title>emo-smiley</title>
    <desc>Created with Sketch.</desc>
    <defs></defs>
    <g id="44px-Glyph" stroke="none" stroke-width="1" fill="none" fill-rule="evenodd">
        <g id="emo-smiley" fill="#000000">
            <path d="M28,20 C28.944,20 30,18.289 30,16 C30,13.711 28.944,12 28,12 C27.056,12 26,13.711 26,16 C26,18.289 27.056,20 28,20" id="Fill-30"></path>
            <path d="M16,20 C16.944,20 18,18.289 18,16 C18,13.711 16.944,12 16,12 C15.056,12 14,13.711 14,16 C14,18.289 15.056,20 16,20" id="Fill-32"></path>
            <path d="M31.0822,30 C31.3782,29.365 31.6222,28.699 31.7942,28 L12.2062,28 C12.3772,28.699 12.6222,29.365 12.9182,30 L31.0822,30 Z" id="Fill-34"></path>
            <path d="M14.1236,32 C15.9966,34.446 18.8596,36 21.9996,36 C25.1396,36 28.0036,34.446 29.8766,32 L14.1236,32 Z" id="Fill-36"></path>
            <path d="M22,38 C17.495,38 13.466,35.36 11.383,31.418 C11.375,31.401 11.366,31.386 11.36,31.369 C10.685,30.08 10.216,28.654 10.009,27.135 C9.97,26.849 10.057,26.56 10.247,26.343 C10.436,26.125 10.711,26 11,26 L33,26 C33.289,26 33.563,26.125 33.753,26.343 C33.943,26.56 34.03,26.849 33.991,27.135 C33.784,28.654 33.315,30.08 32.64,31.369 C32.634,31.386 32.625,31.401 32.617,31.418 C30.534,35.36 26.504,38 22,38 M16,10 C18.243,10 20,12.636 20,16 C20,19.364 18.243,22 16,22 C13.757,22 12,19.364 12,16 C12,12.636 13.757,10 16,10 M28,10 C30.243,10 32,12.636 32,16 C32,19.364 30.243,22 28,22 C25.757,22 24,19.364 24,16 C24,12.636 25.757,10 28,10 M22,0 C9.869,0 0,9.869 0,22 C0,34.131 9.869,44 22,44 C34.131,44 44,34.131 44,22 C44,9.869 34.131,0 22,0" id="Fill-38"></path>
        </g>
    </g>
</svg>