<?xml version="1.0" encoding="UTF-8" standalone="no"?>
<svg width="44px" height="44px" viewBox="0 0 44 44" version="1.1" xmlns="http://www.w3.org/2000/svg" xmlns:xlink="http://www.w3.org/1999/xlink">
    <!-- Generator: Sketch 3.7.2 (28276) - http://www.bohemiancoding.com/sketch -->
    <title>emo-sleep</title>
    <desc>Created with Sketch.</desc>
    <defs></defs>
    <g id="44px-Glyph" stroke="none" stroke-width="1" fill="none" fill-rule="evenodd">
        <g id="emo-sleep" fill="#000000">
            <path d="M21,28 C19.346,28 18,29.346 18,31 C18,32.654 19.346,34 21,34 C22.654,34 24,32.654 24,31 C24,29.346 22.654,28 21,28" id="Fill-113"></path>
            <path d="M34,19 C34,21.757 31.757,24 29,24 C26.243,24 24,21.757 24,19 L24,17 C24,16.447 24.447,16 25,16 C25.553,16 26,16.447 26,17 L26,19 C26,20.654 27.346,22 29,22 C30.654,22 32,20.654 32,19 L32,17 C32,16.447 32.447,16 33,16 C33.553,16 34,16.447 34,17 L34,19 Z M21,36 C18.243,36 16,33.757 16,31 C16,28.243 18.243,26 21,26 C23.757,26 26,28.243 26,31 C26,33.757 23.757,36 21,36 L21,36 Z M8,19 L8,17 C8,16.447 8.447,16 9,16 C9.553,16 10,16.447 10,17 L10,19 C10,20.654 11.346,22 13,22 C14.654,22 16,20.654 16,19 L16,17 C16,16.447 16.447,16 17,16 C17.553,16 18,16.447 18,17 L18,19 C18,21.757 15.757,24 13,24 C10.243,24 8,21.757 8,19 L8,19 Z M19,6 L23,6 C23.369,6 23.708,6.203 23.882,6.528 C24.056,6.854 24.036,7.248 23.832,7.555 L20.868,12 L23,12 C23.553,12 24,12.447 24,13 C24,13.553 23.553,14 23,14 L19,14 C18.631,14 18.292,13.797 18.118,13.472 C17.944,13.146 17.964,12.752 18.168,12.445 L21.132,8 L19,8 C18.447,8 18,7.553 18,7 C18,6.447 18.447,6 19,6 L19,6 Z M38.854,12 L37,12 C36.621,12 36.275,11.786 36.105,11.447 C35.936,11.108 35.973,10.703 36.2,10.4 L36.96,9.387 C35.392,7.552 33.515,5.995 31.41,4.787 L29,8 L33,8 C33.553,8 34,8.447 34,9 C34,9.553 33.553,10 33,10 L27,10 C26.621,10 26.275,9.786 26.105,9.447 C25.936,9.108 25.973,8.703 26.2,8.4 L29.602,3.863 C26.973,2.677 24.067,2 21,2 C9.421,2 0,11.421 0,23 C0,34.579 9.421,44 21,44 C32.579,44 42,34.579 42,23 C42,18.964 40.836,15.204 38.854,12 L38.854,12 Z" id="Fill-114"></path>
            <path d="M43,10 L39,10 L43.8,3.6 C44.027,3.297 44.063,2.892 43.895,2.553 C43.725,2.214 43.379,2 43,2 L37,2 C36.447,2 36,2.447 36,3 C36,3.553 36.447,4 37,4 L41,4 L36.96,9.387 C37.659,10.205 38.286,11.081 38.854,12 L43,12 C43.553,12 44,11.553 44,11 C44,10.447 43.553,10 43,10" id="Fill-115"></path>
            <path d="M27,2 L31,2 L29.602,3.863 C30.222,4.143 30.824,4.451 31.41,4.787 L33.8,1.6 C34.027,1.297 34.063,0.892 33.895,0.553 C33.725,0.214 33.379,0 33,0 L27,0 C26.447,0 26,0.447 26,1 C26,1.553 26.447,2 27,2" id="Fill-116"></path>
        </g>
    </g>
</svg>