<?xml version="1.0" encoding="UTF-8" standalone="no"?>
<svg width="44px" height="44px" viewBox="0 0 44 44" version="1.1" xmlns="http://www.w3.org/2000/svg" xmlns:xlink="http://www.w3.org/1999/xlink">
    <!-- Generator: Sketch 3.7.2 (28276) - http://www.bohemiancoding.com/sketch -->
    <title>emo-smug</title>
    <desc>Created with Sketch.</desc>
    <defs></defs>
    <g id="44px-Glyph" stroke="none" stroke-width="1" fill="none" fill-rule="evenodd">
        <g id="emo-smug" fill="#000000">
            <path d="M29,19 C27.897,19 27,18.103 27,17 C27,15.897 27.897,15 29,15 C30.102,15 31,15.897 31,17 C31,18.103 30.102,19 29,19 M29,12 C26.243,12 24,14.243 24,17 C24,19.757 26.243,22 29,22 C31.757,22 34,19.757 34,17 C34,14.243 31.757,12 29,12" id="Fill-171"></path>
            <path d="M29,24 C25.141,24 22,20.859 22,17 C22,20.859 18.859,24 15,24 C11.141,24 8,20.859 8,17 C8,13.141 11.141,10 15,10 C18.859,10 22,13.141 22,17 C22,13.141 25.141,10 29,10 C32.859,10 36,13.141 36,17 C36,20.859 32.859,24 29,24 M35.475,30.076 C35.323,30.157 35.161,30.195 35.001,30.195 C34.644,30.195 34.3,30.005 34.119,29.67 C34.119,29.67 33.995,29.452 33.774,29.185 C31.305,33.36 26.817,36 22,36 C21.447,36 21,35.553 21,35 C21,34.447 21.447,34 22,34 C26.13,34 29.982,31.718 32.087,28.112 C31.687,28.013 31.374,28 31.369,28 C30.817,27.994 30.375,27.541 30.381,26.988 C30.387,26.44 30.834,26 31.381,26 L31.393,26 C31.531,26.002 32.756,26.04 33.913,26.706 L33.913,26.706 L33.914,26.707 C33.944,26.724 33.975,26.737 34.006,26.756 C35.186,27.476 35.812,28.596 35.881,28.721 C36.143,29.207 35.96,29.814 35.475,30.076 M22,0 C9.869,0 0,9.869 0,22 C0,34.131 9.869,44 22,44 C34.131,44 44,34.131 44,22 C44,9.869 34.131,0 22,0" id="Fill-172"></path>
            <path d="M15,19 C13.897,19 13,18.103 13,17 C13,15.897 13.897,15 15,15 C16.102,15 17,15.897 17,17 C17,18.103 16.102,19 15,19 M15,12 C12.243,12 10,14.243 10,17 C10,19.757 12.243,22 15,22 C17.757,22 20,19.757 20,17 C20,14.243 17.757,12 15,12" id="Fill-173"></path>
        </g>
    </g>
</svg>