<?xml version="1.0" encoding="UTF-8" standalone="no"?>
<svg width="44px" height="44px" viewBox="0 0 44 44" version="1.1" xmlns="http://www.w3.org/2000/svg" xmlns:xlink="http://www.w3.org/1999/xlink">
    <!-- Generator: Sketch 3.7.2 (28276) - http://www.bohemiancoding.com/sketch -->
    <title>emo-thoughtful</title>
    <desc>Created with Sketch.</desc>
    <defs></defs>
    <g id="44px-Glyph" stroke="none" stroke-width="1" fill="none" fill-rule="evenodd">
        <g id="emo-thoughtful" fill="#000000">
            <path d="M15,17 C13.897,17 13,16.102 13,15 C13,13.898 13.897,13 15,13 C16.102,13 17,13.898 17,15 C17,16.102 16.102,17 15,17 M15,12 C12.243,12 10,14.243 10,17 C10,19.757 12.243,22 15,22 C17.757,22 20,19.757 20,17 C20,14.243 17.757,12 15,12" id="Fill-127"></path>
            <path d="M22,30 C20.897,30 20,30.898 20,32 C20,33.102 20.897,34 22,34 C23.102,34 24,33.102 24,32 C24,30.898 23.102,30 22,30" id="Fill-128"></path>
            <path d="M29,24 C25.141,24 22,20.859 22,17 C22,20.859 18.859,24 15,24 C11.141,24 8,20.859 8,17 C8,13.141 11.141,10 15,10 C18.859,10 22,13.141 22,17 C22,13.141 25.141,10 29,10 C32.859,10 36,13.141 36,17 C36,20.859 32.859,24 29,24 M22,36 C19.794,36 18,34.206 18,32 C18,29.794 19.794,28 22,28 C24.206,28 26,29.794 26,32 C26,34.206 24.206,36 22,36 M22,0 C9.869,0 0,9.869 0,22 C0,34.131 9.869,44 22,44 C34.131,44 44,34.131 44,22 C44,9.869 34.131,0 22,0" id="Fill-129"></path>
            <path d="M29,17 C27.897,17 27,16.102 27,15 C27,13.898 27.897,13 29,13 C30.102,13 31,13.898 31,15 C31,16.102 30.102,17 29,17 M29,12 C26.243,12 24,14.243 24,17 C24,19.757 26.243,22 29,22 C31.757,22 34,19.757 34,17 C34,14.243 31.757,12 29,12" id="Fill-130"></path>
        </g>
    </g>
</svg>