<?xml version="1.0" encoding="UTF-8" standalone="no"?>
<svg width="44px" height="44px" viewBox="0 0 44 44" version="1.1" xmlns="http://www.w3.org/2000/svg" xmlns:xlink="http://www.w3.org/1999/xlink">
    <!-- Generator: Sketch 3.7.2 (28276) - http://www.bohemiancoding.com/sketch -->
    <title>emo-scarecrow</title>
    <desc>Created with Sketch.</desc>
    <defs></defs>
    <g id="44px-Glyph" stroke="none" stroke-width="1" fill="none" fill-rule="evenodd">
        <g id="emo-scarecrow" fill="#000000">
            <path d="M29.0625,18 C28.5105,18 28.0315,17.553 28.0315,17 C28.0315,16.447 28.4475,16 29.0005,16 L29.0625,16 C29.6145,16 30.0625,16.447 30.0625,17 C30.0625,17.553 29.6145,18 29.0625,18 M29.0005,14 C27.3455,14 25.9995,15.346 25.9995,17 C25.9995,18.654 27.3455,20 29.0005,20 C30.6545,20 32.0005,18.654 32.0005,17 C32.0005,15.346 30.6545,14 29.0005,14" id="Fill-231"></path>
            <path d="M29,22 C26.243,22 24,19.757 24,17 C24,14.243 26.243,12 29,12 C31.757,12 34,14.243 34,17 C34,19.757 31.757,22 29,22 M32.728,35.685 C32.531,35.895 32.266,36 32,36 C31.754,36 31.508,35.91 31.314,35.728 C31.303,35.718 30.823,35.282 29.913,34.743 L29.561,35.447 C29.386,35.798 29.033,36 28.665,36 C28.516,36 28.363,35.966 28.219,35.895 C27.725,35.647 27.525,35.047 27.772,34.553 L28.122,33.853 C27.432,33.568 26.634,33.302 25.735,33.093 L25.48,34.363 C25.385,34.839 24.968,35.167 24.501,35.167 C24.436,35.167 24.37,35.161 24.304,35.147 C23.762,35.039 23.411,34.513 23.52,33.971 L23.761,32.765 C23.2,32.706 22.618,32.667 22,32.667 C21.382,32.667 20.799,32.706 20.239,32.764 L20.48,33.971 C20.589,34.513 20.238,35.039 19.696,35.147 C19.63,35.161 19.564,35.167 19.499,35.167 C19.032,35.167 18.615,34.839 18.52,34.363 L18.264,33.088 C17.363,33.296 16.564,33.561 15.875,33.846 L16.228,34.553 C16.475,35.047 16.275,35.647 15.781,35.895 C15.637,35.966 15.484,36 15.334,36 C14.967,36 14.614,35.798 14.439,35.447 L14.083,34.736 C13.174,35.278 12.698,35.717 12.686,35.728 C12.283,36.107 11.651,36.088 11.272,35.685 C10.893,35.283 10.913,34.65 11.314,34.272 C11.377,34.213 12.02,33.627 13.188,32.945 L12.772,32.114 C12.525,31.62 12.725,31.02 13.219,30.772 C13.715,30.528 14.314,30.725 14.561,31.22 L14.977,32.051 C15.806,31.7 16.776,31.375 17.872,31.127 L17.686,30.196 C17.578,29.654 17.929,29.128 18.47,29.02 C19.015,28.91 19.539,29.262 19.647,29.804 L19.845,30.793 C20.527,30.716 21.242,30.667 22,30.667 C22.758,30.667 23.473,30.716 24.155,30.793 L24.353,29.804 C24.461,29.262 24.987,28.909 25.53,29.02 C26.071,29.128 26.422,29.654 26.314,30.196 L26.128,31.127 C27.224,31.375 28.194,31.7 29.023,32.051 L29.439,31.22 C29.686,30.725 30.285,30.528 30.781,30.772 C31.275,31.02 31.475,31.62 31.228,32.114 L30.812,32.945 C31.98,33.627 32.623,34.213 32.686,34.272 C33.087,34.65 33.107,35.283 32.728,35.685 M15,12 C17.757,12 20,14.243 20,17 C20,19.757 17.757,22 15,22 C12.243,22 10,19.757 10,17 C10,14.243 12.243,12 15,12 M22,0 C9.869,0 0,9.869 0,22 C0,34.131 9.869,44 22,44 C34.131,44 44,34.131 44,22 C44,9.869 34.131,0 22,0" id="Fill-232"></path>
            <path d="M15,16 L15.062,16 C15.615,16 16.062,16.447 16.062,17 C16.062,17.553 15.615,18 15.062,18 C14.51,18 14.031,17.553 14.031,17 C14.031,16.447 14.448,16 15,16 M15,20 C16.654,20 18,18.654 18,17 C18,15.346 16.654,14 15,14 C13.346,14 12,15.346 12,17 C12,18.654 13.346,20 15,20" id="Fill-233"></path>
        </g>
    </g>
</svg>