<?xml version="1.0" encoding="UTF-8" standalone="no"?>
<svg width="44px" height="44px" viewBox="0 0 44 44" version="1.1" xmlns="http://www.w3.org/2000/svg" xmlns:xlink="http://www.w3.org/1999/xlink">
    <!-- Generator: Sketch 3.7.2 (28276) - http://www.bohemiancoding.com/sketch -->
    <title>emo-clown</title>
    <desc>Created with Sketch.</desc>
    <defs></defs>
    <g id="44px-Line" stroke="none" stroke-width="1" fill="none" fill-rule="evenodd">
        <g id="emo-clown"></g>
        <path d="M22,0 C9.869,0 0,9.869 0,22 C0,34.131 9.869,44 22,44 C34.131,44 44,34.131 44,22 C44,9.869 34.131,0 22,0 L22,0 Z M22,42 C10.972,42 2,33.028 2,22 C2,10.972 10.972,2 22,2 C33.028,2 42,10.972 42,22 C42,33.028 33.028,42 22,42 L22,42 Z" id="Shape" fill="#000000"></path>
        <path d="M35,12 L32,12 L32,9 C32,8.447 31.552,8 31,8 C30.448,8 30,8.447 30,9 L30,12 L26.846,12 C26.294,12 25.846,12.447 25.846,13 C25.846,13.553 26.294,14 26.846,14 L30,14 L30,17 C30,17.553 30.448,18 31,18 C31.552,18 32,17.553 32,17 L32,14 L35,14 C35.552,14 36,13.553 36,13 C36,12.447 35.552,12 35,12 L35,12 Z" id="Shape" fill="#000000"></path>
        <path d="M8.846,14 L12,14 L12,17 C12,17.553 12.448,18 13,18 C13.552,18 14,17.553 14,17 L14,14 L17,14 C17.552,14 18,13.553 18,13 C18,12.447 17.552,12 17,12 L14,12 L14,9 C14,8.447 13.552,8 13,8 C12.448,8 12,8.447 12,9 L12,12 L8.846,12 C8.294,12 7.846,12.447 7.846,13 C7.846,13.553 8.294,14 8.846,14 L8.846,14 Z" id="Shape" fill="#000000"></path>
        <path d="M16,20 C16,23.309 18.691,26 22,26 C25.309,26 28,23.309 28,20 C28,16.691 25.309,14 22,14 C18.691,14 16,16.691 16,20 L16,20 Z M22,16 C24.206,16 26,17.794 26,20 C26,22.206 24.206,24 22,24 C19.794,24 18,22.206 18,20 C18,17.794 19.794,16 22,16 L22,16 Z" id="Shape" fill="#000000"></path>
        <path d="M30.304,24.362 C28.978,24.362 27.688,24.837 26.66,25.71 C25.371,26.84 23.716,27.462 21.999,27.462 C20.334,27.462 18.717,26.874 17.477,25.833 C16.439,24.885 15.093,24.362 13.686,24.362 C10.587,24.362 8.067,26.883 8.067,29.981 C8.067,31.499 8.652,32.916 9.714,33.973 C12.971,37.313 17.333,39.153 21.998,39.153 C26.662,39.153 31.023,37.314 34.27,33.985 C35.319,32.935 35.921,31.476 35.921,29.981 C35.923,26.883 33.403,24.362 30.304,24.362 L30.304,24.362 Z M32.849,32.58 C29.973,35.529 26.12,37.153 22,37.153 C17.876,37.153 14.021,35.526 11.143,32.571 C11.139,32.567 11.135,32.563 11.131,32.559 C10.446,31.879 10.069,30.964 10.069,29.981 C10.069,27.986 11.693,26.362 13.688,26.362 C14.594,26.362 15.461,26.698 16.161,27.337 C17.792,28.707 19.866,29.462 22.001,29.462 C24.202,29.462 26.326,28.664 27.968,27.225 C28.623,26.668 29.453,26.363 30.305,26.363 C32.301,26.363 33.924,27.987 33.924,29.982 C33.923,30.95 33.535,31.895 32.849,32.58 L32.849,32.58 Z" id="Shape" fill="#000000"></path>
        <path d="M29.886,29.327 C27.709,31.249 24.908,32.307 22,32.307 C19.091,32.307 16.291,31.248 14.114,29.326 C13.699,28.96 13.068,29.001 12.702,29.414 C12.336,29.828 12.376,30.46 12.789,30.826 C15.332,33.071 18.603,34.307 21.999,34.307 C25.395,34.307 28.666,33.071 31.208,30.827 C31.622,30.461 31.662,29.829 31.296,29.415 C30.933,29.002 30.3,28.961 29.886,29.327 L29.886,29.327 Z" id="Shape" fill="#000000"></path>
    </g>
</svg>