<?xml version="1.0" encoding="UTF-8" standalone="no"?>
<svg width="44px" height="44px" viewBox="0 0 44 44" version="1.1" xmlns="http://www.w3.org/2000/svg" xmlns:xlink="http://www.w3.org/1999/xlink">
    <!-- Generator: Sketch 3.7.2 (28276) - http://www.bohemiancoding.com/sketch -->
    <title>emo-sick</title>
    <desc>Created with Sketch.</desc>
    <defs></defs>
    <g id="44px-Glyph" stroke="none" stroke-width="1" fill="none" fill-rule="evenodd">
        <g id="emo-sick" fill="#000000">
            <path d="M18,26.9497 L18,29.9997 C18,32.2057 19.794,33.9997 22,33.9997 C24.206,33.9997 26,32.2057 26,29.9997 L26,26.9497 C24.793,26.3477 23.438,25.9997 22,25.9997 C20.562,25.9997 19.207,26.3477 18,26.9497" id="Fill-48"></path>
            <path d="M33.707,18.293 C34.098,18.684 34.098,19.316 33.707,19.707 C33.512,19.902 33.256,20 33,20 C32.744,20 32.488,19.902 32.293,19.707 L29,16.414 L25.707,19.707 C25.512,19.902 25.256,20 25,20 C24.744,20 24.488,19.902 24.293,19.707 C23.902,19.316 23.902,18.684 24.293,18.293 L27.586,15 L24.293,11.707 C23.902,11.316 23.902,10.684 24.293,10.293 C24.684,9.902 25.316,9.902 25.707,10.293 L29,13.586 L32.293,10.293 C32.684,9.902 33.316,9.902 33.707,10.293 C34.098,10.684 34.098,11.316 33.707,11.707 L30.414,15 L33.707,18.293 Z M32,36 C31.448,36 31,35.553 31,35 C31,32.344 29.836,29.96 28,28.311 L28,30 C28,33.309 25.309,36 22,36 C18.691,36 16,33.309 16,30 L16,28.311 C14.164,29.96 13,32.344 13,35 C13,35.553 12.552,36 12,36 C11.448,36 11,35.553 11,35 C11,30.897 13.262,27.318 16.6,25.427 C16.605,25.425 16.608,25.422 16.612,25.42 C18.207,24.52 20.042,24 22,24 C28.065,24 33,28.935 33,35 C33,35.553 32.552,36 32,36 L32,36 Z M10.293,18.293 L13.586,15 L10.293,11.707 C9.902,11.316 9.902,10.684 10.293,10.293 C10.684,9.902 11.316,9.902 11.707,10.293 L15,13.586 L18.293,10.293 C18.684,9.902 19.316,9.902 19.707,10.293 C20.098,10.684 20.098,11.316 19.707,11.707 L16.414,15 L19.707,18.293 C20.098,18.684 20.098,19.316 19.707,19.707 C19.512,19.902 19.256,20 19,20 C18.744,20 18.488,19.902 18.293,19.707 L15,16.414 L11.707,19.707 C11.512,19.902 11.256,20 11,20 C10.744,20 10.488,19.902 10.293,19.707 C9.902,19.316 9.902,18.684 10.293,18.293 L10.293,18.293 Z M22,0 C9.869,0 0,9.869 0,22 C0,34.131 9.869,44 22,44 C34.131,44 44,34.131 44,22 C44,9.869 34.131,0 22,0 L22,0 Z" id="Fill-50"></path>
        </g>
    </g>
</svg>