<?xml version="1.0" encoding="UTF-8" standalone="no"?>
<svg width="64px" height="64px" viewBox="0 0 64 64" version="1.1" xmlns="http://www.w3.org/2000/svg" xmlns:xlink="http://www.w3.org/1999/xlink">
    <!-- Generator: Sketch 3.7.2 (28276) - http://www.bohemiancoding.com/sketch -->
    <title>emo-glasses</title>
    <desc>Created with Sketch.</desc>
    <defs></defs>
    <g id="64px-Glyph" stroke="none" stroke-width="1" fill="none" fill-rule="evenodd">
        <g id="emo-glasses" fill="#000000">
            <path d="M15.0825,22.001 C16.4685,19.614 19.0465,18.001 22.0005,18.001 C24.9535,18.001 27.5315,19.614 28.9175,22.001 L33.0825,22.001 C34.4685,19.614 37.0465,18.001 40.0005,18.001 C42.9535,18.001 45.5315,19.614 46.9175,22.001 L55.6485,22.001 C51.4285,12.582 41.9715,6.001 31.0005,6.001 C20.0295,6.001 10.5725,12.582 6.3515,22.001 L15.0825,22.001 Z" id="Fill-79"></path>
            <path d="M40,24.001 C41.102,24.001 42,24.898 42,26.001 C42,27.103 41.102,28.001 40,28.001 C38.897,28.001 38,27.103 38,26.001 C38,24.898 38.897,24.001 40,24.001 M40,32.001 C43.309,32.001 46,29.31 46,26.001 C46,22.692 43.309,20.001 40,20.001 C36.691,20.001 34,22.692 34,26.001 C34,29.31 36.691,32.001 40,32.001" id="Fill-81"></path>
            <path d="M41.8945,43.4483 C41.7605,43.7163 38.5315,50.0013 31.0005,50.0013 C23.4685,50.0013 20.2395,43.7163 20.1055,43.4483 C19.8585,42.9543 20.0585,42.3533 20.5525,42.1063 C21.0465,41.8633 21.6455,42.0593 21.8935,42.5533 C22.0145,42.7903 24.7385,48.0013 31.0005,48.0013 C37.2715,48.0013 39.9945,42.7733 40.1065,42.5523 C40.3565,42.0583 40.9575,41.8593 41.4495,42.1093 C41.9415,42.3573 42.1405,42.9553 41.8945,43.4483 L41.8945,43.4483 Z M47.7365,24.0013 C47.9025,24.6413 48.0005,25.3093 48.0005,26.0013 C48.0005,30.4123 44.4115,34.0013 40.0005,34.0013 C35.5885,34.0013 32.0005,30.4123 32.0005,26.0013 C32.0005,25.3093 32.0975,24.6413 32.2635,24.0013 L29.7365,24.0013 C29.9025,24.6413 30.0005,25.3093 30.0005,26.0013 C30.0005,30.4123 26.4115,34.0013 22.0005,34.0013 C17.5885,34.0013 14.0005,30.4123 14.0005,26.0013 C14.0005,25.3093 14.0975,24.6413 14.2635,24.0013 L5.5485,24.0013 C4.5495,26.8183 4.0005,29.8453 4.0005,33.0013 C4.0005,47.8883 16.1125,60.0013 31.0005,60.0013 C45.8875,60.0013 58.0005,47.8883 58.0005,33.0013 C58.0005,29.8453 57.4505,26.8183 56.4515,24.0013 L47.7365,24.0013 Z" id="Fill-83"></path>
            <path d="M22,24.001 C23.102,24.001 24,24.898 24,26.001 C24,27.103 23.102,28.001 22,28.001 C20.897,28.001 20,27.103 20,26.001 C20,24.898 20.897,24.001 22,24.001 M22,32.001 C25.309,32.001 28,29.31 28,26.001 C28,22.692 25.309,20.001 22,20.001 C18.691,20.001 16,22.692 16,26.001 C16,29.31 18.691,32.001 22,32.001" id="Fill-85"></path>
        </g>
    </g>
</svg>