<?xml version="1.0" encoding="UTF-8" standalone="no"?>
<svg width="64px" height="64px" viewBox="0 0 64 64" version="1.1" xmlns="http://www.w3.org/2000/svg" xmlns:xlink="http://www.w3.org/1999/xlink">
    <!-- Generator: Sketch 3.7.2 (28276) - http://www.bohemiancoding.com/sketch -->
    <title>emo-money</title>
    <desc>Created with Sketch.</desc>
    <defs></defs>
    <g id="64px-Line" stroke="none" stroke-width="1" fill="none" fill-rule="evenodd">
        <g id="emo-money"></g>
        <path d="M31,6 C16.112,6 4,18.112 4,33 C4,47.888 16.112,60 31,60 C45.888,60 58,47.888 58,33 C58,18.112 45.888,6 31,6 L31,6 Z M31,58 C17.215,58 6,46.785 6,33 C6,19.215 17.215,8 31,8 C44.785,8 56,19.215 56,33 C56,46.785 44.785,58 31,58 L31,58 Z" id="Shape" fill="#000000"></path>
        <path d="M41.449,42.108 C40.956,41.862 40.356,42.059 40.106,42.55 C39.994,42.773 37.271,48 31,48 C24.738,48 22.015,42.789 21.894,42.551 C21.647,42.058 21.046,41.86 20.553,42.105 C20.059,42.352 19.859,42.953 20.106,43.447 C20.239,43.715 23.469,50 31,50 C38.531,50 41.761,43.715 41.895,43.447 C42.141,42.954 41.941,42.356 41.449,42.108 L41.449,42.108 Z" id="Shape" fill="#000000"></path>
        <path d="M39,22 C40.626,22 42,22.916 42,24 C42,24.552 42.447,25 43,25 C43.553,25 44,24.552 44,24 C44,22.068 42.279,20.453 40,20.081 L40,19 C40,18.448 39.553,18 39,18 C38.447,18 38,18.448 38,19 L38,20.081 C35.721,20.453 34,22.068 34,24 C34,26.079 36.462,27.415 38.765,27.972 C40.355,28.356 42,29.22 42,30 C42,31.084 40.626,32 39,32 C37.374,32 36,31.084 36,30 C36,29.448 35.553,29 35,29 C34.447,29 34,29.448 34,30 C34,31.932 35.721,33.547 38,33.919 L38,35 C38,35.552 38.447,36 39,36 C39.553,36 40,35.552 40,35 L40,33.919 C42.279,33.547 44,31.932 44,30 C44,27.921 41.538,26.585 39.235,26.028 C37.645,25.644 36,24.78 36,24 C36,22.916 37.374,22 39,22 L39,22 Z" id="Shape" fill="#000000"></path>
        <path d="M22,35 C22,35.552 22.447,36 23,36 C23.553,36 24,35.552 24,35 L24,33.919 C26.279,33.547 28,31.932 28,30 C28,27.921 25.538,26.585 23.235,26.028 C21.645,25.644 20,24.78 20,24 C20,22.916 21.374,22 23,22 C24.626,22 26,22.916 26,24 C26,24.552 26.447,25 27,25 C27.553,25 28,24.552 28,24 C28,22.068 26.279,20.453 24,20.081 L24,19 C24,18.448 23.553,18 23,18 C22.447,18 22,18.448 22,19 L22,20.081 C19.721,20.453 18,22.068 18,24 C18,26.079 20.462,27.415 22.765,27.972 C24.355,28.356 26,29.22 26,30 C26,31.084 24.626,32 23,32 C21.374,32 20,31.084 20,30 C20,29.448 19.553,29 19,29 C18.447,29 18,29.448 18,30 C18,31.932 19.721,33.547 22,33.919 L22,35 L22,35 Z" id="Shape" fill="#000000"></path>
    </g>
</svg>