<?xml version="1.0" encoding="UTF-8" standalone="no"?>
<svg width="64px" height="64px" viewBox="0 0 64 64" version="1.1" xmlns="http://www.w3.org/2000/svg" xmlns:xlink="http://www.w3.org/1999/xlink">
    <!-- Generator: Sketch 3.7.2 (28276) - http://www.bohemiancoding.com/sketch -->
    <title>emo-ninja</title>
    <desc>Created with Sketch.</desc>
    <defs></defs>
    <g id="64px-Line" stroke="none" stroke-width="1" fill="none" fill-rule="evenodd">
        <g id="emo-ninja"></g>
        <path d="M22,22 C18.691,22 16,24.691 16,28 C16,31.309 18.691,34 22,34 C25.309,34 28,31.309 28,28 C28,24.691 25.309,22 22,22 L22,22 Z M22,32 C19.794,32 18,30.206 18,28 C18,25.794 19.794,24 22,24 C24.206,24 26,25.794 26,28 C26,30.206 24.206,32 22,32 L22,32 Z" id="Shape" fill="#000000"></path>
        <path d="M40,22 C36.691,22 34,24.691 34,28 C34,31.309 36.691,34 40,34 C43.309,34 46,31.309 46,28 C46,24.691 43.309,22 40,22 L40,22 Z M40,32 C37.794,32 36,30.206 36,28 C36,25.794 37.794,24 40,24 C42.206,24 44,25.794 44,28 C44,30.206 42.206,32 40,32 L40,32 Z" id="Shape" fill="#000000"></path>
        <circle id="Oval" fill="#000000" cx="22" cy="28" r="2"></circle>
        <circle id="Oval" fill="#000000" cx="40" cy="28" r="2"></circle>
        <path d="M39,46 L23,46 C22.448,46 22,46.448 22,47 C22,47.552 22.448,48 23,48 L39,48 C39.552,48 40,47.552 40,47 C40,46.448 39.552,46 39,46 L39,46 Z" id="Shape" fill="#000000"></path>
        <path d="M53.764,18.509 C48.964,10.996 40.557,6 31,6 C21.436,6 13.024,11.003 8.226,18.524 C8.208,18.556 8.181,18.582 8.166,18.617 C5.532,22.785 4,27.715 4,33 C4,47.888 16.112,60 31,60 C45.888,60 58,47.888 58,33 C58,27.716 56.468,22.786 53.834,18.618 C53.817,18.578 53.786,18.547 53.764,18.509 L53.764,18.509 Z M31,8 C39.161,8 46.421,11.932 50.986,18 L11.013,18 C15.579,11.932 22.839,8 31,8 L31,8 Z M31,58 C18.927,58 8.826,49.397 6.503,38 L55.497,38 C53.174,49.397 43.073,58 31,58 L31,58 Z M55.814,36 L6.187,36 C6.069,35.016 6.001,34.016 6.001,33 C6.001,28.242 7.338,23.79 9.655,20 L52.347,20 C54.664,23.79 56.001,28.242 56.001,33 C56,34.016 55.932,35.016 55.814,36 L55.814,36 Z" id="Shape" fill="#000000"></path>
    </g>
</svg>