<?xml version="1.0" encoding="UTF-8" standalone="no"?>
<svg width="64px" height="64px" viewBox="0 0 64 64" version="1.1" xmlns="http://www.w3.org/2000/svg" xmlns:xlink="http://www.w3.org/1999/xlink">
    <!-- Generator: Sketch 3.7.2 (28276) - http://www.bohemiancoding.com/sketch -->
    <title>emo-memory</title>
    <desc>Created with Sketch.</desc>
    <defs></defs>
    <g id="64px-Glyph" stroke="none" stroke-width="1" fill="none" fill-rule="evenodd">
        <g id="emo-memory" fill="#000000">
            <path d="M47.7954,42.7725 C47.6424,42.8565 47.4764,42.8965 47.3134,42.8965 C46.9604,42.8965 46.6194,42.7105 46.4374,42.3795 C46.4344,42.3765 46.1834,41.9425 45.7344,41.4835 C42.7214,46.6945 37.0664,50.0015 31.0004,50.0015 C30.4474,50.0015 30.0004,49.5535 30.0004,49.0015 C30.0004,48.4485 30.4474,48.0015 31.0004,48.0015 C36.3714,48.0015 41.3764,45.0645 44.0274,40.4385 C43.3464,40.2275 42.7684,40.2085 42.7594,40.2085 C42.2074,40.2035 41.7654,39.7495 41.7714,39.1985 C41.7774,38.6495 42.2234,38.2085 42.7714,38.2085 L42.7824,38.2085 C42.8494,38.2105 44.4154,38.2415 45.8424,39.0555 C45.8444,39.0565 45.8464,39.0555 45.8484,39.0565 C45.8504,39.0585 45.8524,39.0605 45.8544,39.0615 C45.8774,39.0745 45.9014,39.0835 45.9234,39.0975 C47.3734,39.9575 48.1554,41.3545 48.1884,41.4135 C48.4554,41.8965 48.2794,42.5045 47.7954,42.7725 M27.0004,26.0015 L17.0004,26.0015 C16.4474,26.0015 16.0004,25.5535 16.0004,25.0015 C16.0004,24.4485 16.4474,24.0015 17.0004,24.0015 L27.0004,24.0015 C27.5524,24.0015 28.0004,24.4485 28.0004,25.0015 C28.0004,25.5535 27.5524,26.0015 27.0004,26.0015 M35.0004,24.0015 L45.0004,24.0015 C45.5524,24.0015 46.0004,24.4485 46.0004,25.0015 C46.0004,25.5535 45.5524,26.0015 45.0004,26.0015 L35.0004,26.0015 C34.4474,26.0015 34.0004,25.5535 34.0004,25.0015 C34.0004,24.4485 34.4474,24.0015 35.0004,24.0015 M31.0004,6.0015 C16.1124,6.0015 4.0004,18.1135 4.0004,33.0015 C4.0004,47.8885 16.1124,60.0015 31.0004,60.0015 C45.8874,60.0015 58.0004,47.8885 58.0004,33.0015 C58.0004,18.1135 45.8874,6.0015 31.0004,6.0015" id="Fill-124"></path>
        </g>
    </g>
</svg>