<?xml version="1.0" encoding="UTF-8" standalone="no"?>
<svg width="44px" height="44px" viewBox="0 0 44 44" version="1.1" xmlns="http://www.w3.org/2000/svg" xmlns:xlink="http://www.w3.org/1999/xlink">
    <!-- Generator: Sketch 3.7.2 (28276) - http://www.bohemiancoding.com/sketch -->
    <title>emo-big-eyes</title>
    <desc>Created with Sketch.</desc>
    <defs></defs>
    <g id="44px-Line" stroke="none" stroke-width="1" fill="none" fill-rule="evenodd">
        <g id="emo-big-eyes"></g>
        <path d="M30.435,29.102 C29.941,28.86 29.342,29.071 29.1,29.565 C29.012,29.746 26.879,34.001 22,34.001 C17.136,34.001 15.001,29.772 14.901,29.567 C14.662,29.07 14.066,28.859 13.567,29.099 C13.069,29.338 12.859,29.935 13.098,30.433 C13.208,30.66 15.842,36 22,36 C28.158,36 30.792,30.66 30.901,30.433 C31.14,29.937 30.931,29.342 30.435,29.102 L30.435,29.102 Z" id="Shape" fill="#000000"></path>
        <path d="M30,10 C25.589,10 22,13.589 22,18 C22,22.411 25.589,26 30,26 C34.411,26 38,22.411 38,18 C38,13.589 34.411,10 30,10 L30,10 Z M30,24 C26.691,24 24,21.309 24,18 C24,14.691 26.691,12 30,12 C33.309,12 36,14.691 36,18 C36,21.309 33.309,24 30,24 L30,24 Z" id="Shape" fill="#000000"></path>
        <path d="M31,14.111 C31,13.558 30.553,13.111 30,13.111 C27.305,13.111 25.111,15.304 25.111,18 C25.111,18.553 25.558,19 26.111,19 C26.664,19 27.111,18.553 27.111,18 C27.111,16.407 28.407,15.111 30,15.111 C30.553,15.111 31,14.664 31,14.111 L31,14.111 Z" id="Shape" fill="#000000"></path>
        <circle id="Oval" fill="#000000" cx="30" cy="18" r="2"></circle>
        <path d="M14,10 C9.589,10 6,13.589 6,18 C6,22.411 9.589,26 14,26 C18.411,26 22,22.411 22,18 C22,13.589 18.411,10 14,10 L14,10 Z M14,24 C10.691,24 8,21.309 8,18 C8,14.691 10.691,12 14,12 C17.309,12 20,14.691 20,18 C20,21.309 17.309,24 14,24 L14,24 Z" id="Shape" fill="#000000"></path>
        <path d="M15,14.111 C15,13.558 14.553,13.111 14,13.111 C11.305,13.111 9.111,15.304 9.111,18 C9.111,18.553 9.558,19 10.111,19 C10.664,19 11.111,18.553 11.111,18 C11.111,16.407 12.407,15.111 14,15.111 C14.553,15.111 15,14.664 15,14.111 L15,14.111 Z" id="Shape" fill="#000000"></path>
        <circle id="Oval" fill="#000000" cx="14" cy="18" r="2"></circle>
        <path d="M22,0 C9.869,0 0,9.869 0,22 C0,34.131 9.869,44 22,44 C34.131,44 44,34.131 44,22 C44,9.869 34.131,0 22,0 L22,0 Z M22,42 C10.972,42 2,33.028 2,22 C2,10.972 10.972,2 22,2 C33.028,2 42,10.972 42,22 C42,33.028 33.028,42 22,42 L22,42 Z" id="Shape" fill="#000000"></path>
    </g>
</svg>