<?xml version="1.0" encoding="UTF-8" standalone="no"?>
<svg width="64px" height="64px" viewBox="0 0 64 64" version="1.1" xmlns="http://www.w3.org/2000/svg" xmlns:xlink="http://www.w3.org/1999/xlink">
    <!-- Generator: Sketch 3.7.2 (28276) - http://www.bohemiancoding.com/sketch -->
    <title>emo-freckly</title>
    <desc>Created with Sketch.</desc>
    <defs></defs>
    <g id="64px-Glyph" stroke="none" stroke-width="1" fill="none" fill-rule="evenodd">
        <g id="emo-freckly" fill="#000000">
            <path d="M20,26.001 C20,24.898 20.897,24.001 22,24.001 C23.102,24.001 24,24.898 24,26.001 C24,27.104 23.102,28.001 22,28.001 C20.897,28.001 20,27.104 20,26.001 M28,26.001 C28,22.692 25.309,20.001 22,20.001 C18.691,20.001 16,22.692 16,26.001 C16,29.31 18.691,32.001 22,32.001 C25.309,32.001 28,29.31 28,26.001" id="Fill-231"></path>
            <path d="M40,28.001 C38.897,28.001 38,27.104 38,26.001 C38,24.898 38.897,24.001 40,24.001 C41.102,24.001 42,24.898 42,26.001 C42,27.104 41.102,28.001 40,28.001 M40,20.001 C36.691,20.001 34,22.692 34,26.001 C34,29.31 36.691,32.001 40,32.001 C43.309,32.001 46,29.31 46,26.001 C46,22.692 43.309,20.001 40,20.001" id="Fill-232"></path>
            <path d="M40,34.001 C35.589,34.001 32,30.412 32,26.001 C32,21.59 35.589,18.001 40,18.001 C44.411,18.001 48,21.59 48,26.001 C48,30.412 44.411,34.001 40,34.001 M47.71,37.711 C47.52,37.891 47.26,38.001 47,38.001 C46.74,38.001 46.479,37.9 46.29,37.711 C46.1,37.521 46,37.271 46,37.001 C46,36.73 46.109,36.48 46.29,36.291 C46.66,35.921 47.34,35.921 47.71,36.301 C47.89,36.471 48,36.73 48,37.001 C48,37.271 47.899,37.521 47.71,37.711 M43.71,41.711 C43.52,41.891 43.26,42.001 43,42.001 C42.74,42.001 42.479,41.891 42.29,41.711 C42.1,41.521 42,41.271 42,41.001 C42,40.73 42.109,40.471 42.3,40.291 C42.649,39.931 43.33,39.921 43.71,40.291 C43.89,40.48 44,40.73 44,41.001 C44,41.271 43.899,41.521 43.71,41.711 M39.71,37.711 C39.52,37.9 39.26,38.001 39,38.001 C38.74,38.001 38.479,37.891 38.29,37.711 C38.1,37.521 38,37.271 38,37.001 C38,36.73 38.109,36.471 38.3,36.291 C38.649,35.931 39.33,35.91 39.71,36.291 C39.89,36.48 40,36.74 40,37.001 C40,37.261 39.899,37.521 39.71,37.711 M39.555,47.833 C39.422,47.922 36.242,50.001 31,50.001 C25.758,50.001 22.578,47.922 22.445,47.833 C21.985,47.526 21.861,46.906 22.168,46.446 C22.474,45.987 23.093,45.862 23.552,46.167 C23.593,46.194 26.409,48.001 31,48.001 C35.644,48.001 38.418,46.187 38.445,46.169 C38.905,45.861 39.526,45.986 39.832,46.446 C40.139,46.906 40.015,47.526 39.555,47.833 M22.29,36.291 C22.67,35.91 23.35,35.921 23.71,36.301 C23.89,36.471 24,36.73 24,37.001 C24,37.271 23.899,37.521 23.7,37.711 C23.52,37.891 23.26,38.001 23,38.001 C22.74,38.001 22.49,37.9 22.29,37.711 C22.1,37.511 22,37.261 22,37.001 C22,36.74 22.109,36.48 22.29,36.291 M19.71,41.711 C19.52,41.891 19.26,42.001 19,42.001 C18.74,42.001 18.479,41.891 18.29,41.711 C18.1,41.521 18,41.271 18,41.001 C18,40.73 18.109,40.48 18.29,40.291 C18.66,39.921 19.35,39.921 19.71,40.301 C19.89,40.48 20,40.74 20,41.001 C20,41.261 19.899,41.511 19.71,41.711 M14,26.001 C14,21.59 17.589,18.001 22,18.001 C26.411,18.001 30,21.59 30,26.001 C30,30.412 26.411,34.001 22,34.001 C17.589,34.001 14,30.412 14,26.001 M15.71,37.711 C15.52,37.9 15.26,38.001 15,38.001 C14.74,38.001 14.479,37.891 14.29,37.711 C14.1,37.521 14,37.271 14,37.001 C14,36.73 14.109,36.471 14.3,36.291 C14.649,35.931 15.33,35.921 15.71,36.291 C15.89,36.48 16,36.73 16,37.001 C16,37.271 15.899,37.521 15.71,37.711 M31,6.001 C16.112,6.001 4,18.113 4,33.001 C4,47.889 16.112,60.001 31,60.001 C45.888,60.001 58,47.889 58,33.001 C58,18.113 45.888,6.001 31,6.001" id="Fill-233"></path>
        </g>
    </g>
</svg>