<?xml version="1.0" encoding="UTF-8" standalone="no"?>
<svg width="44px" height="44px" viewBox="0 0 44 44" version="1.1" xmlns="http://www.w3.org/2000/svg" xmlns:xlink="http://www.w3.org/1999/xlink">
    <!-- Generator: Sketch 3.7.2 (28276) - http://www.bohemiancoding.com/sketch -->
    <title>emo-calm</title>
    <desc>Created with Sketch.</desc>
    <defs></defs>
    <g id="44px-Line" stroke="none" stroke-width="1" fill="none" fill-rule="evenodd">
        <g id="emo-calm"></g>
        <path d="M22,0 C9.869,0 0,9.869 0,22 C0,34.131 9.869,44 22,44 C34.131,44 44,34.131 44,22 C44,9.869 34.131,0 22,0 L22,0 Z M22,42 C10.972,42 2,33.028 2,22 C2,10.972 10.972,2 22,2 C33.028,2 42,10.972 42,22 C42,33.028 33.028,42 22,42 L22,42 Z" id="Shape" fill="#000000"></path>
        <path d="M20,15 C20,14.448 19.553,14 19,14 L11,14 C10.447,14 10,14.448 10,15 C10,15.552 10.447,16 11,16 L19,16 C19.553,16 20,15.552 20,15 L20,15 Z" id="Shape" fill="#000000"></path>
        <path d="M33,14 L25,14 C24.447,14 24,14.448 24,15 C24,15.552 24.447,16 25,16 L33,16 C33.553,16 34,15.552 34,15 C34,14.448 33.553,14 33,14 L33,14 Z" id="Shape" fill="#000000"></path>
        <path d="M29,30 L15,30 C14.447,30 14,30.448 14,31 C14,31.552 14.447,32 15,32 L29,32 C29.553,32 30,31.552 30,31 C30,30.448 29.553,30 29,30 L29,30 Z" id="Shape" fill="#000000"></path>
    </g>
</svg>