<?xml version="1.0" encoding="UTF-8" standalone="no"?>
<svg width="44px" height="44px" viewBox="0 0 44 44" version="1.1" xmlns="http://www.w3.org/2000/svg" xmlns:xlink="http://www.w3.org/1999/xlink">
    <!-- Generator: Sketch 3.7.2 (28276) - http://www.bohemiancoding.com/sketch -->
    <title>emo-stunned</title>
    <desc>Created with Sketch.</desc>
    <defs></defs>
    <g id="44px-Glyph" stroke="none" stroke-width="1" fill="none" fill-rule="evenodd">
        <g id="emo-stunned" fill="#000000">
            <path d="M33.707,18.293 C34.098,18.684 34.098,19.316 33.707,19.707 C33.512,19.902 33.256,20 33,20 C32.744,20 32.488,19.902 32.293,19.707 L29,16.414 L25.707,19.707 C25.512,19.902 25.256,20 25,20 C24.744,20 24.488,19.902 24.293,19.707 C23.902,19.316 23.902,18.684 24.293,18.293 L27.586,15 L24.293,11.707 C23.902,11.316 23.902,10.684 24.293,10.293 C24.684,9.902 25.316,9.902 25.707,10.293 L29,13.586 L32.293,10.293 C32.684,9.902 33.316,9.902 33.707,10.293 C34.098,10.684 34.098,11.316 33.707,11.707 L30.414,15 L33.707,18.293 Z M33.555,31.832 C33.422,31.921 30.265,34 27,34 C25.301,34 23.921,33.451 22.587,32.921 C21.396,32.447 20.269,32 19,32 C16.404,32 13.574,33.819 13.546,33.838 C13.083,34.14 12.464,34.009 12.163,33.546 C11.861,33.083 11.991,32.465 12.453,32.163 C12.588,32.074 15.802,30 19,30 C20.652,30 22.012,30.54 23.326,31.063 C24.539,31.545 25.684,32 27,32 C29.667,32 32.418,30.186 32.445,30.168 C32.904,29.861 33.525,29.985 33.832,30.445 C34.138,30.905 34.014,31.525 33.555,31.832 L33.555,31.832 Z M11,20 C10.744,20 10.488,19.902 10.293,19.707 C9.902,19.316 9.902,18.684 10.293,18.293 L13.586,15 L10.293,11.707 C9.902,11.316 9.902,10.684 10.293,10.293 C10.684,9.902 11.316,9.902 11.707,10.293 L15,13.586 L18.293,10.293 C18.684,9.902 19.316,9.902 19.707,10.293 C20.098,10.684 20.098,11.316 19.707,11.707 L16.414,15 L19.707,18.293 C20.098,18.684 20.098,19.316 19.707,19.707 C19.512,19.902 19.256,20 19,20 C18.744,20 18.488,19.902 18.293,19.707 L15,16.414 L11.707,19.707 C11.512,19.902 11.256,20 11,20 L11,20 Z M22,0 C9.869,0 0,9.869 0,22 C0,34.131 9.869,44 22,44 C34.131,44 44,34.131 44,22 C44,9.869 34.131,0 22,0 L22,0 Z" id="Fill-123"></path>
        </g>
    </g>
</svg>