<?xml version="1.0" encoding="UTF-8" standalone="no"?>
<svg width="44px" height="44px" viewBox="0 0 44 44" version="1.1" xmlns="http://www.w3.org/2000/svg" xmlns:xlink="http://www.w3.org/1999/xlink">
    <!-- Generator: Sketch 3.7.2 (28276) - http://www.bohemiancoding.com/sketch -->
    <title>emo-confused</title>
    <desc>Created with Sketch.</desc>
    <defs></defs>
    <g id="44px-Line" stroke="none" stroke-width="1" fill="none" fill-rule="evenodd">
        <g id="emo-confused"></g>
        <path d="M22,0 C9.869,0 0,9.869 0,22 C0,34.131 9.869,44 22,44 C34.131,44 44,34.131 44,22 C44,9.869 34.131,0 22,0 L22,0 Z M22,42 C10.972,42 2,33.028 2,22 C2,10.972 10.972,2 22,2 C33.028,2 42,10.972 42,22 C42,33.028 33.028,42 22,42 L22,42 Z" id="Shape" fill="#000000"></path>
        <path d="M30,10 C26.691,10 24,12.691 24,16 C24,19.309 26.691,22 30,22 C33.309,22 36,19.309 36,16 C36,12.691 33.309,10 30,10 L30,10 Z M30,20 C27.794,20 26,18.206 26,16 C26,13.794 27.794,12 30,12 C32.206,12 34,13.794 34,16 C34,18.206 32.206,20 30,20 L30,20 Z" id="Shape" fill="#000000"></path>
        <path d="M22,16 C22,11.589 18.411,8 14,8 C9.589,8 6,11.589 6,16 C6,20.411 9.589,24 14,24 C18.411,24 22,20.411 22,16 L22,16 Z M8,16 C8,12.691 10.691,10 14,10 C17.309,10 20,12.691 20,16 C20,19.309 17.309,22 14,22 C10.691,22 8,19.309 8,16 L8,16 Z" id="Shape" fill="#000000"></path>
        <circle id="Oval" fill="#000000" cx="14" cy="16" r="2"></circle>
        <circle id="Oval" fill="#000000" cx="30" cy="16" r="2"></circle>
        <path d="M31,32 L30,32 L30,31 C30,28.243 27.757,26 25,26 C22.243,26 20,28.243 20,31 L20,32 L13,32 C12.447,32 12,32.448 12,33 C12,33.552 12.447,34 13,34 L31,34 C31.553,34 32,33.552 32,33 C32,32.448 31.553,32 31,32 L31,32 Z M22,31 C22,29.346 23.346,28 25,28 C26.654,28 28,29.346 28,31 L28,32 L22,32 L22,31 L22,31 Z" id="Shape" fill="#000000"></path>
    </g>
</svg>