<?xml version="1.0" encoding="UTF-8" standalone="no"?>
<svg width="44px" height="44px" viewBox="0 0 44 44" version="1.1" xmlns="http://www.w3.org/2000/svg" xmlns:xlink="http://www.w3.org/1999/xlink">
    <!-- Generator: Sketch 3.7.2 (28276) - http://www.bohemiancoding.com/sketch -->
    <title>emo-sad</title>
    <desc>Created with Sketch.</desc>
    <defs></defs>
    <g id="44px-Glyph" stroke="none" stroke-width="1" fill="none" fill-rule="evenodd">
        <g id="emo-sad" fill="#000000">
            <path d="M12,16 C12,14.897 12.897,14 14,14 C15.102,14 16,14.897 16,16 C16,17.103 15.102,18 14,18 C12.897,18 12,17.103 12,16 M18,16 C18,13.794 16.206,12 14,12 C11.794,12 10,13.794 10,16 C10,18.206 11.794,20 14,20 C16.206,20 18,18.206 18,16" id="Fill-247"></path>
            <path d="M30,18 C28.897,18 28,17.103 28,16 C28,14.897 28.897,14 30,14 C31.102,14 32,14.897 32,16 C32,17.103 31.102,18 30,18 M30,12 C27.794,12 26,13.794 26,16 C26,18.206 27.794,20 30,20 C32.206,20 34,18.206 34,16 C34,13.794 32.206,12 30,12" id="Fill-248"></path>
            <path d="M30,22 C26.691,22 24,19.309 24,16 C24,12.691 26.691,10 30,10 C33.309,10 36,12.691 36,16 C36,19.309 33.309,22 30,22 M31.352,35.936 C31.235,35.979 31.117,36 31,36 C30.596,36 30.214,35.753 30.063,35.352 C28.863,32.15 25.623,30 22,30 C18.377,30 15.137,32.15 13.936,35.352 C13.742,35.869 13.164,36.125 12.648,35.936 C12.132,35.742 11.87,35.166 12.063,34.648 C13.555,30.672 17.548,28 22,28 C26.451,28 30.444,30.672 31.936,34.648 C32.13,35.166 31.868,35.742 31.352,35.936 M8,16 C8,12.691 10.691,10 14,10 C17.309,10 20,12.691 20,16 C20,19.309 17.309,22 14,22 C10.691,22 8,19.309 8,16 M22,0 C9.869,0 0,9.869 0,22 C0,34.131 9.869,44 22,44 C34.131,44 44,34.131 44,22 C44,9.869 34.131,0 22,0" id="Fill-249"></path>
        </g>
    </g>
</svg>