<?xml version="1.0" encoding="UTF-8" standalone="no"?>
<svg width="44px" height="44px" viewBox="0 0 44 44" version="1.1" xmlns="http://www.w3.org/2000/svg" xmlns:xlink="http://www.w3.org/1999/xlink">
    <!-- Generator: Sketch 3.7.2 (28276) - http://www.bohemiancoding.com/sketch -->
    <title>emo-silenced</title>
    <desc>Created with Sketch.</desc>
    <defs></defs>
    <g id="44px-Glyph" stroke="none" stroke-width="1" fill="none" fill-rule="evenodd">
        <g id="emo-silenced" fill="#000000">
            <path d="M15,17 C13.897,17 13,16.103 13,15 C13,13.897 13.897,13 15,13 C16.102,13 17,13.897 17,15 C17,16.103 16.102,17 15,17 M15,10 C12.243,10 10,12.243 10,15 C10,17.757 12.243,20 15,20 C17.757,20 20,17.757 20,15 C20,12.243 17.757,10 15,10" id="Fill-216"></path>
            <polygon id="Fill-217" points="13.3145 28.9404 29.5665 35.6954 30.6855 33.0594 14.4335 26.3044"></polygon>
            <polygon id="Fill-218" points="13.3145 33.0596 14.4335 35.6956 19.3935 33.6336 15.6635 32.0836"></polygon>
            <path d="M29,17 C27.897,17 27,16.103 27,15 C27,13.897 27.897,13 29,13 C30.102,13 31,13.897 31,15 C31,16.103 30.102,17 29,17 M29,10 C26.243,10 24,12.243 24,15 C24,17.757 26.243,20 29,20 C31.757,20 34,17.757 34,15 C34,12.243 31.757,10 29,10" id="Fill-219"></path>
            <path d="M29,22 C25.141,22 22,18.859 22,15 C22,18.859 18.859,22 15,22 C11.141,22 8,18.859 8,15 C8,11.141 11.141,8 15,8 C18.859,8 22,11.141 22,15 C22,11.141 25.141,8 29,8 C32.859,8 36,11.141 36,15 C36,18.859 32.859,22 29,22 L29,22 Z M32.384,31.599 C32.63,31.701 32.825,31.897 32.926,32.145 C33.026,32.391 33.024,32.668 32.921,32.913 L31.021,37.391 C30.858,37.772 30.488,38 30.1,38 C29.972,38 29.841,37.976 29.716,37.924 L22,34.717 L14.284,37.924 C14.159,37.976 14.028,38 13.9,38 C13.512,38 13.142,37.772 12.979,37.391 L11.079,32.913 C10.976,32.668 10.974,32.391 11.074,32.145 C11.175,31.897 11.37,31.701 11.616,31.599 L13.057,31 L11.616,30.401 C11.37,30.299 11.175,30.103 11.074,29.855 C10.974,29.609 10.976,29.332 11.079,29.087 L12.979,24.609 C13.195,24.103 13.778,23.867 14.284,24.076 L22,27.283 L29.716,24.076 C30.22,23.868 30.805,24.103 31.021,24.609 L32.921,29.087 C33.024,29.332 33.026,29.609 32.926,29.855 C32.825,30.103 32.63,30.299 32.384,30.401 L30.943,31 L32.384,31.599 Z M22,0 C9.869,0 0,9.869 0,22 C0,34.131 9.869,44 22,44 C34.131,44 44,34.131 44,22 C44,9.869 34.131,0 22,0 L22,0 Z" id="Fill-220"></path>
            <polygon id="Fill-221" points="29.5664 26.3047 24.6064 28.3667 28.3364 29.9167 30.6854 28.9407"></polygon>
        </g>
    </g>
</svg>