<?xml version="1.0" encoding="UTF-8" standalone="no"?>
<svg width="44px" height="44px" viewBox="0 0 44 44" version="1.1" xmlns="http://www.w3.org/2000/svg" xmlns:xlink="http://www.w3.org/1999/xlink">
    <!-- Generator: Sketch 3.7.2 (28276) - http://www.bohemiancoding.com/sketch -->
    <title>emo-cap</title>
    <desc>Created with Sketch.</desc>
    <defs></defs>
    <g id="44px-Line" stroke="none" stroke-width="1" fill="none" fill-rule="evenodd">
        <g id="emo-cap"></g>
        <path d="M30.435,29.102 C29.939,28.862 29.342,29.07 29.1,29.565 C29.012,29.746 26.879,34.001 22,34.001 C17.124,34.001 14.991,29.751 14.9,29.566 C14.66,29.068 14.063,28.859 13.567,29.1 C13.069,29.339 12.859,29.936 13.098,30.434 C13.208,30.66 15.841,36 22,36 C28.159,36 30.792,30.66 30.901,30.433 C31.14,29.936 30.931,29.341 30.435,29.102 L30.435,29.102 Z" id="Shape" fill="#000000"></path>
        <path d="M20,21 C20,18.243 17.757,16 15,16 C12.243,16 10,18.243 10,21 C10,23.757 12.243,26 15,26 C17.757,26 20,23.757 20,21 L20,21 Z M12,21 C12,19.346 13.346,18 15,18 C16.654,18 18,19.346 18,21 C18,22.654 16.654,24 15,24 C13.346,24 12,22.654 12,21 L12,21 Z" id="Shape" fill="#000000"></path>
        <path d="M16.062,21 C16.062,20.448 15.614,20 15.062,20 L15,20 C14.448,20 14.031,20.448 14.031,21 C14.031,21.552 14.51,22 15.062,22 C15.614,22 16.062,21.552 16.062,21 L16.062,21 Z" id="Shape" fill="#000000"></path>
        <path d="M29,16 C26.243,16 24,18.243 24,21 C24,23.757 26.243,26 29,26 C31.757,26 34,23.757 34,21 C34,18.243 31.757,16 29,16 L29,16 Z M29,24 C27.346,24 26,22.654 26,21 C26,19.346 27.346,18 29,18 C30.654,18 32,19.346 32,21 C32,22.654 30.654,24 29,24 L29,24 Z" id="Shape" fill="#000000"></path>
        <path d="M29.062,20 L29,20 C28.448,20 28.031,20.448 28.031,21 C28.031,21.552 28.51,22 29.062,22 C29.614,22 30.062,21.552 30.062,21 C30.062,20.448 29.615,20 29.062,20 L29.062,20 Z" id="Shape" fill="#000000"></path>
        <path d="M22,0 C12.894,0 5.062,5.562 1.723,13.466 C1.714,13.483 1.71,13.502 1.702,13.519 C0.607,16.13 2.84217094e-14,18.995 2.84217094e-14,21.999 C2.84217094e-14,34.13 9.869,43.999 22,43.999 C34.131,43.999 44,34.13 44,21.999 C44,9.868 34.131,0 22,0 L22,0 Z M22,2 C29.324,2 35.724,5.97 39.208,11.859 C35.635,10.393 28.905,8.077 22,8.077 C15.099,8.077 8.37,10.39 4.793,11.857 C8.278,5.969 14.677,2 22,2 L22,2 Z M40.234,14.486 C39.824,16.042 39.002,17.769 38.153,17.769 C37.73,17.769 36.811,17.065 35.923,16.384 C33.446,14.486 29.302,11.31 22.001,11.308 L21.997,11.308 L21.993,11.308 C14.691,11.31 10.549,14.486 8.074,16.385 C7.186,17.066 6.268,17.77 5.845,17.77 C4.996,17.77 4.172,16.043 3.76,14.487 C6.12,13.41 14.067,10.078 21.999,10.078 C29.921,10.077 37.874,13.41 40.234,14.486 L40.234,14.486 Z M22,42 C10.972,42 2,33.028 2,22 C2,20.329 2.229,18.713 2.617,17.16 C3.271,18.502 4.299,19.769 5.846,19.769 C6.948,19.769 7.93,19.015 9.292,17.971 C11.713,16.114 15.372,13.308 21.998,13.307 C28.623,13.307 32.284,16.114 34.707,17.971 C36.069,19.015 37.053,19.769 38.154,19.769 C39.703,19.769 40.73,18.5 41.383,17.158 C41.772,18.711 42,20.327 42,22 C42,33.028 33.028,42 22,42 L22,42 Z" id="Shape" fill="#000000"></path>
    </g>
</svg>