<?xml version="1.0" encoding="UTF-8" standalone="no"?>
<svg width="44px" height="44px" viewBox="0 0 44 44" version="1.1" xmlns="http://www.w3.org/2000/svg" xmlns:xlink="http://www.w3.org/1999/xlink">
    <!-- Generator: Sketch 3.7.2 (28276) - http://www.bohemiancoding.com/sketch -->
    <title>emo-sexy</title>
    <desc>Created with Sketch.</desc>
    <defs></defs>
    <g id="44px-Glyph" stroke="none" stroke-width="1" fill="none" fill-rule="evenodd">
        <g id="emo-sexy" fill="#000000">
            <path d="M21.9967,32 C21.8047,31.999 21.6127,31.944 21.4457,31.832 L18.9997,30.202 L16.3027,32 L21.9967,32 Z" id="Fill-152"></path>
            <path d="M15.2081,34 C16.3891,34.944 18.4841,36 22.0001,36 C25.5141,36 27.6081,34.945 28.7911,34 L15.2081,34 Z" id="Fill-153"></path>
            <path d="M27.6971,32 L25.0001,30.202 L22.5551,31.832 C22.3881,31.944 22.1961,31.999 22.0031,32 L27.6971,32 Z" id="Fill-154"></path>
            <path d="M18,16 C18,15.869 17.992,15.74 17.986,15.61 C17.541,15.396 16.794,15.109 16,15.109 C15.932,15.109 15.859,15.12 15.789,15.124 C15.92,15.389 16,15.684 16,16 C16,17.102 15.102,18 14,18 C12.897,18 12,17.102 12,16 C12,15.969 12.008,15.939 12.009,15.909 C11.673,15.961 11.336,16 11,16 C10.684,16 10.345,15.961 10.003,15.908 C10.003,15.939 10,15.969 10,16 C10,19.252 11.832,22 14,22 C16.168,22 18,19.252 18,16" id="Fill-155"></path>
            <path d="M13.2471,13.5869 C14.1461,13.3529 15.0761,13.1099 16.0001,13.1099 C16.5611,13.1099 17.0881,13.2049 17.5631,13.3349 C16.8961,11.3789 15.5341,9.9999 14.0001,9.9999 C12.3161,9.9999 10.8381,11.6609 10.2611,13.9259 C10.5241,13.9689 10.7781,13.9999 11.0001,13.9999 C11.6661,13.9999 12.4351,13.7999 13.2471,13.5869" id="Fill-156"></path>
            <path d="M37.3828,14.9238 C37.2638,14.9738 36.7048,15.1978 35.9788,15.4278 C35.9888,15.6178 35.9998,15.8068 35.9998,15.9998 C35.9998,20.4108 33.3088,23.9998 29.9998,23.9998 C26.6918,23.9998 23.9998,20.4108 23.9998,15.9998 C23.9998,15.6218 24.0268,15.2528 24.0648,14.8888 C24.0698,14.8468 24.0688,14.8048 24.0788,14.7628 C24.5278,10.9388 27.0078,7.9998 29.9998,7.9998 C32.6318,7.9998 34.8668,10.2738 35.6748,13.4218 C36.0728,13.2878 36.4148,13.1598 36.6168,13.0758 C37.1308,12.8648 37.7118,13.1098 37.9238,13.6168 C38.1348,14.1268 37.8938,14.7118 37.3828,14.9238 M31.9458,33.2708 C31.9318,33.3198 31.9248,33.3698 31.9038,33.4158 C31.8988,33.4268 31.8998,33.4378 31.8948,33.4468 C31.8018,33.6328 29.5308,37.9998 21.9998,37.9998 C14.4688,37.9998 12.1978,33.6328 12.1058,33.4468 C12.1008,33.4368 12.1008,33.4268 12.0968,33.4158 C12.0758,33.3698 12.0688,33.3198 12.0548,33.2708 C12.0328,33.1948 12.0118,33.1208 12.0088,33.0428 C12.0078,33.0278 11.9998,33.0148 11.9998,32.9998 C11.9998,32.9638 12.0168,32.9328 12.0208,32.8978 C12.0288,32.8198 12.0408,32.7468 12.0658,32.6738 C12.0838,32.6218 12.1078,32.5768 12.1338,32.5288 C12.1658,32.4688 12.2018,32.4138 12.2478,32.3608 C12.2858,32.3158 12.3258,32.2778 12.3718,32.2398 C12.3988,32.2178 12.4158,32.1878 12.4458,32.1678 L18.4458,28.1678 C18.7808,27.9438 19.2188,27.9438 19.5548,28.1678 L21.9998,29.7978 L24.4448,28.1678 C24.7808,27.9438 25.2188,27.9438 25.5548,28.1678 L31.5548,32.1678 C31.5848,32.1878 31.6018,32.2178 31.6288,32.2398 C31.6738,32.2778 31.7148,32.3158 31.7528,32.3608 C31.7978,32.4138 31.8338,32.4688 31.8668,32.5288 C31.8928,32.5768 31.9158,32.6218 31.9348,32.6738 C31.9598,32.7468 31.9718,32.8198 31.9798,32.8978 C31.9828,32.9328 31.9998,32.9638 31.9998,32.9998 C31.9998,33.0148 31.9918,33.0278 31.9918,33.0428 C31.9878,33.1198 31.9668,33.1948 31.9458,33.2708 M7.9998,15.9998 C7.9998,15.8068 8.0118,15.6178 8.0218,15.4278 C7.2958,15.1978 6.7368,14.9738 6.6168,14.9238 C6.1068,14.7118 5.8648,14.1268 6.0758,13.6168 C6.2878,13.1078 6.8708,12.8628 7.3828,13.0758 C7.5858,13.1598 7.9268,13.2878 8.3258,13.4218 C9.1328,10.2738 11.3688,7.9998 13.9998,7.9998 C16.9928,7.9998 19.4728,10.9388 19.9208,14.7628 C19.9308,14.8048 19.9308,14.8468 19.9348,14.8888 C19.9738,15.2528 19.9998,15.6218 19.9998,15.9998 C19.9998,20.4108 17.3088,23.9998 13.9998,23.9998 C10.6918,23.9998 7.9998,20.4108 7.9998,15.9998 M21.9998,-0.0002 C9.8688,-0.0002 -0.0002,9.8688 -0.0002,21.9998 C-0.0002,34.1308 9.8688,43.9998 21.9998,43.9998 C34.1308,43.9998 43.9998,34.1308 43.9998,21.9998 C43.9998,9.8688 34.1308,-0.0002 21.9998,-0.0002" id="Fill-157"></path>
            <path d="M31.9907,15.9087 C31.9917,15.9397 31.9997,15.9687 31.9997,15.9997 C31.9997,17.1027 31.1027,17.9997 29.9997,17.9997 C28.8977,17.9997 27.9997,17.1027 27.9997,15.9997 C27.9997,15.6837 28.0807,15.3887 28.2107,15.1237 C28.1417,15.1197 28.0677,15.1097 27.9997,15.1097 C27.2047,15.1097 26.4597,15.3967 26.0137,15.6107 C26.0077,15.7397 25.9997,15.8687 25.9997,15.9997 C25.9997,19.2517 27.8317,21.9997 29.9997,21.9997 C32.1677,21.9997 33.9997,19.2517 33.9997,15.9997 C33.9997,15.9687 33.9967,15.9387 33.9967,15.9077 C33.6547,15.9607 33.3167,15.9997 32.9997,15.9997 C32.6637,15.9997 32.3267,15.9607 31.9907,15.9087" id="Fill-158"></path>
            <path d="M28,13.1094 C28.924,13.1094 29.853,13.3524 30.753,13.5864 C31.565,13.7994 32.334,14.0004 33,14.0004 C33.222,14.0004 33.476,13.9694 33.739,13.9264 C33.161,11.6614 31.684,10.0004 30,10.0004 C28.466,10.0004 27.104,11.3784 26.436,13.3344 C26.911,13.2054 27.439,13.1094 28,13.1094" id="Fill-159"></path>
        </g>
    </g>
</svg>