<?xml version="1.0" encoding="UTF-8" standalone="no"?>
<svg width="44px" height="44px" viewBox="0 0 44 44" version="1.1" xmlns="http://www.w3.org/2000/svg" xmlns:xlink="http://www.w3.org/1999/xlink">
    <!-- Generator: Sketch 3.7.2 (28276) - http://www.bohemiancoding.com/sketch -->
    <title>emo-clever</title>
    <desc>Created with Sketch.</desc>
    <defs></defs>
    <g id="44px-Line" stroke="none" stroke-width="1" fill="none" fill-rule="evenodd">
        <g id="emo-clever"></g>
        <path d="M34.258,29.53 C33.32,30.568 32.397,30.17 29.911,28.346 C28.338,27.193 26.71,25.999 24.889,25.999 C23.543,25.999 22.612,26.508 22.009,27.033 C21.41,26.507 20.478,25.999 19.112,25.999 C17.293,25.999 15.683,27.2 14.126,28.361 C11.647,30.209 10.722,30.613 9.743,29.529 C9.385,29.131 8.778,29.087 8.365,29.427 C7.952,29.768 7.881,30.372 8.202,30.8 C8.362,31.012 12.177,35.998 17.668,35.998 C19.88,35.998 21.239,35.242 22.031,34.314 C22.834,35.241 24.182,35.998 26.335,35.998 C31.826,35.998 35.641,31.012 35.801,30.8 C36.122,30.372 36.051,29.768 35.638,29.427 C35.223,29.088 34.615,29.132 34.258,29.53 L34.258,29.53 Z M26.333,34 C23.31,34 23.024,32.127 22.998,31.747 C22.97,31.217 22.531,30.808 21.999,30.808 L21.992,30.808 C21.453,30.812 21.014,31.248 20.999,31.787 C20.989,32.157 20.779,34.001 17.666,34.001 C15.469,34.001 13.543,32.953 12.146,31.881 C13.29,31.481 14.386,30.663 15.319,29.967 C16.615,29 17.955,28.001 19.11,28.001 C20.544,28.001 21.042,28.922 21.087,29.012 C21.245,29.362 21.592,29.582 21.975,29.593 C22.352,29.59 22.717,29.387 22.894,29.047 C22.95,28.94 23.479,28.001 24.888,28.001 C26.055,28.001 27.413,28.997 28.727,29.961 C29.696,30.671 30.775,31.462 31.881,31.857 C30.484,32.938 28.546,34 26.333,34 L26.333,34 Z" id="Shape" fill="#000000"></path>
        <circle id="Oval" fill="#000000" cx="15" cy="17" r="2"></circle>
        <circle id="Oval" fill="#000000" cx="29" cy="17" r="2"></circle>
        <path d="M42.714,14.594 C39.666,6.096 31.533,0 22,0 C12.467,0 4.334,6.096 1.286,14.594 C1.278,14.613 1.274,14.632 1.267,14.652 C0.449,16.951 0,19.423 0,22 C0,34.131 9.869,44 22,44 C34.131,44 44,34.131 44,22 C44,19.423 43.551,16.951 42.733,14.651 C42.726,14.632 42.722,14.612 42.714,14.594 L42.714,14.594 Z M22,2 C30.183,2 37.225,6.945 40.318,14 L35.314,14 C34.188,11.639 31.784,10 28.999,10 C26.214,10 23.81,11.639 22.684,14 L21.314,14 C20.188,11.639 17.784,10 14.999,10 C12.214,10 9.81,11.639 8.684,14 L3.68,14 C6.775,6.945 13.817,2 22,2 L22,2 Z M29,12 C31.757,12 34,14.243 34,17 C34,19.757 31.757,22 29,22 C26.243,22 24,19.757 24,17 C24,14.243 26.243,12 29,12 L29,12 Z M15,12 C17.757,12 20,14.243 20,17 C20,19.757 17.757,22 15,22 C12.243,22 10,19.757 10,17 C10,14.243 12.243,12 15,12 L15,12 Z M22,42 C10.972,42 2,33.028 2,22 C2,19.91 2.325,17.895 2.922,16 L8.08,16 C8.033,16.328 8,16.66 8,17 C8,20.859 11.14,24 15,24 C18.86,24 22,20.859 22,17 C22,16.66 21.967,16.328 21.92,16 L22.08,16 C22.033,16.328 22,16.66 22,17 C22,20.859 25.14,24 29,24 C32.86,24 36,20.859 36,17 C36,16.66 35.967,16.328 35.92,16 L41.078,16 C41.675,17.895 42,19.91 42,22 C42,33.028 33.028,42 22,42 L22,42 Z" id="Shape" fill="#000000"></path>
    </g>
</svg>