<?xml version="1.0" encoding="UTF-8" standalone="no"?>
<svg width="64px" height="64px" viewBox="0 0 64 64" version="1.1" xmlns="http://www.w3.org/2000/svg" xmlns:xlink="http://www.w3.org/1999/xlink">
    <!-- Generator: Sketch 3.7.2 (28276) - http://www.bohemiancoding.com/sketch -->
    <title>emo-frightened</title>
    <desc>Created with Sketch.</desc>
    <defs></defs>
    <g id="64px-Glyph" stroke="none" stroke-width="1" fill="none" fill-rule="evenodd">
        <g id="emo-frightened" fill="#000000">
            <path d="M31,44.001 C27.948,44.001 26,45.186 26,46.001 C26,46.816 27.948,48.001 31,48.001 C34.052,48.001 36,46.816 36,46.001 C36,45.186 34.052,44.001 31,44.001" id="Fill-168"></path>
            <path d="M22,30.001 C20.897,30.001 20,29.103 20,28.001 C20,26.899 20.897,26.001 22,26.001 C23.103,26.001 24,26.899 24,28.001 C24,29.103 23.103,30.001 22,30.001 M22,24.001 C19.794,24.001 18,25.795 18,28.001 C18,30.207 19.794,32.001 22,32.001 C24.206,32.001 26,30.207 26,28.001 C26,25.795 24.206,24.001 22,24.001" id="Fill-169"></path>
            <path d="M40,30.001 C38.897,30.001 38,29.103 38,28.001 C38,26.899 38.897,26.001 40,26.001 C41.103,26.001 42,26.899 42,28.001 C42,29.103 41.103,30.001 40,30.001 M40,24.001 C37.794,24.001 36,25.795 36,28.001 C36,30.207 37.794,32.001 40,32.001 C42.206,32.001 44,30.207 44,28.001 C44,25.795 42.206,24.001 40,24.001" id="Fill-170"></path>
            <path d="M47,22.001 C43.14,22.001 40,18.86 40,15.001 C40,14.448 40.448,14.001 41,14.001 C41.552,14.001 42,14.448 42,15.001 C42,17.758 44.243,20.001 47,20.001 C47.552,20.001 48,20.448 48,21.001 C48,21.554 47.552,22.001 47,22.001 M40,34.001 C36.691,34.001 34,31.31 34,28.001 C34,24.692 36.691,22.001 40,22.001 C43.309,22.001 46,24.692 46,28.001 C46,31.31 43.309,34.001 40,34.001 M31,50.001 C27.009,50.001 24,48.281 24,46.001 C24,43.721 27.009,42.001 31,42.001 C34.991,42.001 38,43.721 38,46.001 C38,48.281 34.991,50.001 31,50.001 M16,28.001 C16,24.692 18.691,22.001 22,22.001 C25.309,22.001 28,24.692 28,28.001 C28,31.31 25.309,34.001 22,34.001 C18.691,34.001 16,31.31 16,28.001 M14,21.001 C14,20.448 14.448,20.001 15,20.001 C17.757,20.001 20,17.758 20,15.001 C20,14.448 20.448,14.001 21,14.001 C21.552,14.001 22,14.448 22,15.001 C22,18.86 18.86,22.001 15,22.001 C14.448,22.001 14,21.554 14,21.001 M31,6.001 C16.112,6.001 4,18.113 4,33.001 C4,47.889 16.112,60.001 31,60.001 C45.888,60.001 58,47.889 58,33.001 C58,18.113 45.888,6.001 31,6.001" id="Fill-171"></path>
        </g>
    </g>
</svg>