<?xml version="1.0" encoding="UTF-8" standalone="no"?>
<svg width="64px" height="64px" viewBox="0 0 64 64" version="1.1" xmlns="http://www.w3.org/2000/svg" xmlns:xlink="http://www.w3.org/1999/xlink">
    <!-- Generator: Sketch 3.7.2 (28276) - http://www.bohemiancoding.com/sketch -->
    <title>emo-cyclops</title>
    <desc>Created with Sketch.</desc>
    <defs></defs>
    <g id="64px-Glyph" stroke="none" stroke-width="1" fill="none" fill-rule="evenodd">
        <g id="emo-cyclops" fill="#000000">
            <path d="M41.8945,43.4483 C41.7605,43.7163 38.5315,50.0013 31.0005,50.0013 C23.4685,50.0013 20.2395,43.7163 20.1055,43.4483 C19.8585,42.9543 20.0585,42.3533 20.5525,42.1063 C21.0465,41.8643 21.6455,42.0603 21.8935,42.5533 C22.0145,42.7903 24.7385,48.0013 31.0005,48.0013 C37.2715,48.0013 39.9945,42.7733 40.1065,42.5523 C40.3565,42.0593 40.9565,41.8613 41.4495,42.1093 C41.9415,42.3573 42.1405,42.9553 41.8945,43.4483 M31.0005,16.0013 C35.9625,16.0013 40.0005,20.0383 40.0005,25.0013 C40.0005,29.9643 35.9625,34.0013 31.0005,34.0013 C26.0375,34.0013 22.0005,29.9643 22.0005,25.0013 C22.0005,20.0383 26.0375,16.0013 31.0005,16.0013 M31.0005,6.0013 C16.1125,6.0013 4.0005,18.1133 4.0005,33.0013 C4.0005,47.8883 16.1125,60.0013 31.0005,60.0013 C45.8875,60.0013 58.0005,47.8883 58.0005,33.0013 C58.0005,18.1133 45.8875,6.0013 31.0005,6.0013" id="Fill-141"></path>
            <path d="M31,23.001 C32.102,23.001 33,23.899 33,25.001 C33,26.103 32.102,27.001 31,27.001 C29.897,27.001 29,26.103 29,25.001 C29,23.899 29.897,23.001 31,23.001 M31,32.001 C34.859,32.001 38,28.86 38,25.001 C38,21.142 34.859,18.001 31,18.001 C27.141,18.001 24,21.142 24,25.001 C24,28.86 27.141,32.001 31,32.001" id="Fill-142"></path>
        </g>
    </g>
</svg>