<?xml version="1.0" encoding="UTF-8" standalone="no"?>
<svg width="64px" height="64px" viewBox="0 0 64 64" version="1.1" xmlns="http://www.w3.org/2000/svg" xmlns:xlink="http://www.w3.org/1999/xlink">
    <!-- Generator: Sketch 3.7.2 (28276) - http://www.bohemiancoding.com/sketch -->
    <title>emo-mad</title>
    <desc>Created with Sketch.</desc>
    <defs></defs>
    <g id="64px-Glyph" stroke="none" stroke-width="1" fill="none" fill-rule="evenodd">
        <g id="emo-mad" fill="#000000">
            <path d="M31,42.001 C29.346,42.001 28,43.347 28,45.001 C28,46.655 29.346,48.001 31,48.001 C32.654,48.001 34,46.655 34,45.001 C34,43.347 32.654,42.001 31,42.001" id="Fill-45"></path>
            <path d="M46,28.001 L35,28.001 C34.596,28.001 34.23,27.758 34.076,27.384 C33.921,27.01 34.007,26.58 34.293,26.294 L42.293,18.294 C42.684,17.903 43.316,17.903 43.707,18.294 C44.098,18.685 44.098,19.317 43.707,19.708 L37.414,26.001 L46,26.001 C46.553,26.001 47,26.448 47,27.001 C47,27.554 46.553,28.001 46,28.001 M31,50.001 C28.243,50.001 26,47.758 26,45.001 C26,42.244 28.243,40.001 31,40.001 C33.757,40.001 36,42.244 36,45.001 C36,47.758 33.757,50.001 31,50.001 M15,27.001 C15,26.448 15.447,26.001 16,26.001 L24.586,26.001 L18.293,19.708 C17.902,19.317 17.902,18.685 18.293,18.294 C18.684,17.903 19.316,17.903 19.707,18.294 L27.707,26.294 C27.993,26.58 28.079,27.01 27.924,27.384 C27.77,27.758 27.404,28.001 27,28.001 L16,28.001 C15.447,28.001 15,27.554 15,27.001 M31,6.001 C16.112,6.001 4,18.113 4,33.001 C4,47.889 16.112,60.001 31,60.001 C45.888,60.001 58,47.889 58,33.001 C58,18.113 45.888,6.001 31,6.001" id="Fill-47"></path>
        </g>
    </g>
</svg>