<?xml version="1.0" encoding="UTF-8" standalone="no"?>
<svg width="64px" height="64px" viewBox="0 0 64 64" version="1.1" xmlns="http://www.w3.org/2000/svg" xmlns:xlink="http://www.w3.org/1999/xlink">
    <!-- Generator: Sketch 3.7.2 (28276) - http://www.bohemiancoding.com/sketch -->
    <title>emo-laugh</title>
    <desc>Created with Sketch.</desc>
    <defs></defs>
    <g id="64px-Glyph" stroke="none" stroke-width="1" fill="none" fill-rule="evenodd">
        <g id="emo-laugh" fill="#000000">
            <path d="M38,47.9434 C40.231,46.5134 41.986,44.4454 43.005,42.0014 L38,42.0004 L38,47.9434 Z" id="Fill-280"></path>
            <path d="M24,41.9995 L18.995,41.9985 C20.013,44.4435 21.769,46.5125 24,47.9425 L24,41.9995 Z" id="Fill-281"></path>
            <path d="M36,42.0005 L26,41.9995 L26,49.0005 C26,51.7575 28.243,54.0005 31,54.0005 C33.757,54.0005 36,51.7575 36,49.0005 L36,42.0005 Z" id="Fill-282"></path>
            <path d="M45.3794,41.2862 C44.2164,45.1932 41.4894,48.4462 37.8714,50.3162 C37.2544,53.5492 34.4094,56.0012 31.0004,56.0012 C27.5904,56.0012 24.7454,53.5482 24.1284,50.3162 C20.5104,48.4462 17.7834,45.1932 16.6204,41.2842 C16.5304,40.9812 16.5894,40.6542 16.7774,40.4012 C16.9664,40.1482 17.2634,40.0012 17.5794,40.0012 L44.4214,40.0012 C44.7364,40.0012 45.0334,40.1502 45.2224,40.4032 C45.4114,40.6562 45.4694,40.9832 45.3794,41.2862 L45.3794,41.2862 Z M20.2934,19.7082 C19.9024,19.3172 19.9024,18.6842 20.2934,18.2942 C20.6834,17.9032 21.3164,17.9032 21.7074,18.2942 L27.7074,24.2942 C28.0974,24.6842 28.0974,25.3172 27.7074,25.7082 L21.7074,31.7082 C21.5114,31.9032 21.2564,32.0012 21.0004,32.0012 C20.7444,32.0012 20.4884,31.9032 20.2934,31.7082 C19.9024,31.3172 19.9024,30.6842 20.2934,30.2942 L25.5864,25.0012 L20.2934,19.7082 Z M34.2934,24.2942 L40.2934,18.2942 C40.6834,17.9032 41.3164,17.9032 41.7074,18.2942 C42.0974,18.6842 42.0974,19.3172 41.7074,19.7082 L36.4144,25.0012 L41.7074,30.2942 C42.0974,30.6842 42.0974,31.3172 41.7074,31.7082 C41.5114,31.9032 41.2564,32.0012 41.0004,32.0012 C40.7444,32.0012 40.4884,31.9032 40.2934,31.7082 L34.2934,25.7082 C33.9024,25.3172 33.9024,24.6842 34.2934,24.2942 L34.2934,24.2942 Z M31.0004,6.0012 C16.1124,6.0012 4.0004,18.1132 4.0004,33.0012 C4.0004,47.8892 16.1124,60.0012 31.0004,60.0012 C45.8874,60.0012 58.0004,47.8892 58.0004,33.0012 C58.0004,18.1132 45.8874,6.0012 31.0004,6.0012 L31.0004,6.0012 Z" id="Fill-283"></path>
        </g>
    </g>
</svg>