<?xml version="1.0" encoding="UTF-8" standalone="no"?>
<svg width="44px" height="44px" viewBox="0 0 44 44" version="1.1" xmlns="http://www.w3.org/2000/svg" xmlns:xlink="http://www.w3.org/1999/xlink">
    <!-- Generator: Sketch 3.7.2 (28276) - http://www.bohemiancoding.com/sketch -->
    <title>emo-square-eyes</title>
    <desc>Created with Sketch.</desc>
    <defs></defs>
    <g id="44px-Glyph" stroke="none" stroke-width="1" fill="none" fill-rule="evenodd">
        <g id="emo-square-eyes" fill="#000000">
            <path d="M14,18 C12.897,18 12,17.103 12,16 C12,14.897 12.897,14 14,14 C15.103,14 16,14.897 16,16 C16,17.103 15.103,18 14,18 M18,19.378 L18,12.622 C18,12.279 17.721,12 17.378,12 L10.622,12 C10.279,12 10,12.279 10,12.622 L10,19.378 C10,19.721 10.279,20 10.622,20 L17.378,20 C17.721,20 18,19.721 18,19.378" id="Fill-239"></path>
            <path d="M30,18 C28.897,18 28,17.103 28,16 C28,14.897 28.897,14 30,14 C31.103,14 32,14.897 32,16 C32,17.103 31.103,18 30,18 M33.378,12 L26.622,12 C26.279,12 26,12.279 26,12.622 L26,19.378 C26,19.721 26.279,20 26.622,20 L33.378,20 C33.721,20 34,19.721 34,19.378 L34,12.622 C34,12.279 33.721,12 33.378,12" id="Fill-240"></path>
            <path d="M36,19.3779 C36,20.8239 34.824,21.9999 33.378,21.9999 L26.622,21.9999 C25.176,21.9999 24,20.8239 24,19.3779 L24,12.6219 C24,11.1759 25.176,9.9999 26.622,9.9999 L33.378,9.9999 C34.824,9.9999 36,11.1759 36,12.6219 L36,19.3779 Z M29,31.9999 L15,31.9999 C14.448,31.9999 14,31.5529 14,30.9999 C14,30.4469 14.448,29.9999 15,29.9999 L29,29.9999 C29.552,29.9999 30,30.4469 30,30.9999 C30,31.5529 29.552,31.9999 29,31.9999 L29,31.9999 Z M8,19.3779 L8,12.6219 C8,11.1759 9.176,9.9999 10.622,9.9999 L17.378,9.9999 C18.824,9.9999 20,11.1759 20,12.6219 L20,19.3779 C20,20.8239 18.824,21.9999 17.378,21.9999 L10.622,21.9999 C9.176,21.9999 8,20.8239 8,19.3779 L8,19.3779 Z M22,-0.0001 C9.869,-0.0001 0,9.8689 0,21.9999 C0,34.1309 9.869,43.9999 22,43.9999 C34.131,43.9999 44,34.1309 44,21.9999 C44,9.8689 34.131,-0.0001 22,-0.0001 L22,-0.0001 Z" id="Fill-241"></path>
        </g>
    </g>
</svg>