<?xml version="1.0" encoding="UTF-8" standalone="no"?>
<svg width="64px" height="64px" viewBox="0 0 64 64" version="1.1" xmlns="http://www.w3.org/2000/svg" xmlns:xlink="http://www.w3.org/1999/xlink">
    <!-- Generator: Sketch 3.7.2 (28276) - http://www.bohemiancoding.com/sketch -->
    <title>ext-ps</title>
    <desc>Created with Sketch.</desc>
    <defs></defs>
    <g id="64px-Line" stroke="none" stroke-width="1" fill="none" fill-rule="evenodd">
        <g id="ext-ps"></g>
        <path d="M53,36 L50,36 L50,18 C50,17.734 49.895,17.48 49.707,17.293 L38.707,6.293 C38.52,6.105 38.266,6 38,6 L12,6 C9.794,6 8,7.794 8,10 L8,56 C8,58.206 9.794,60 12,60 L46,60 C48.206,60 50,58.206 50,56 L50,54 L53,54 C53.553,54 54,53.553 54,53 L54,37 C54,36.447 53.553,36 53,36 L53,36 Z M47.586,18 L40,18 C38.897,18 38,17.103 38,16 L38,8.414 L47.586,18 L47.586,18 Z M48,56 C48,57.103 47.103,58 46,58 L12,58 C10.897,58 10,57.103 10,56 L10,10 C10,8.897 10.897,8 12,8 L36,8 L36,16 C36,18.206 37.794,20 40,20 L48,20 L48,36 L15,36 C14.447,36 14,36.447 14,37 L14,53 C14,53.553 14.447,54 15,54 L48,54 L48,56 L48,56 Z M52,52 L16,52 L16,38 L52,38 L52,52 L52,52 Z" id="Shape" fill="#000000"></path>
        <path d="M23,30 C27.963,30 32,25.963 32,21 C32,16.037 27.963,12 23,12 C18.037,12 14,16.037 14,21 C14,25.963 18.037,30 23,30 L23,30 Z M29.92,20 L24,20 L24,14.08 C27.059,14.521 29.479,16.941 29.92,20 L29.92,20 Z M22,14.08 L22,21 C22,21.553 22.447,22 23,22 L29.92,22 C29.432,25.386 26.519,28 23,28 C19.141,28 16,24.859 16,21 C16,17.481 18.614,14.568 22,14.08 L22,14.08 Z" id="Shape" fill="#000000"></path>
        <path d="M29,40.002 L27,40.002 C26.447,40.002 26,40.449 26,41.002 L26,49.002 C26,49.555 26.447,50.002 27,50.002 C27.553,50.002 28,49.555 28,49.002 L28,46.002 L29,46.002 C30.654,46.002 32,44.656 32,43.002 C32,41.348 30.654,40.002 29,40.002 L29,40.002 Z M29,44.002 L28,44.002 L28,42.002 L29,42.002 C29.552,42.002 30,42.45 30,43.002 C30,43.554 29.552,44.002 29,44.002 L29,44.002 Z" id="Shape" fill="#000000"></path>
        <path d="M37,42 C37.36,42 37.684,42.186 37.866,42.5 C37.953,42.649 38,42.822 38,43 C38,43.553 38.447,44 39,44 C39.553,44 40,43.553 40,43 C40,42.468 39.858,41.944 39.594,41.492 C39.06,40.572 38.065,40 37,40 C35.346,40 34,41.346 34,43 C34,43.803 34.312,44.558 34.881,45.124 C35.447,45.689 36.198,46 36.994,46 L37,46 C37.552,46 38,46.448 38,47 C38,47.552 37.552,48 37,48 C36.448,48 36,47.552 36,47 C36,46.447 35.553,46 35,46 C34.447,46 34,46.447 34,47 C34,48.654 35.346,50 37,50 C38.654,50 40,48.654 40,47 C40,45.346 38.654,44 36.998,44 L36.996,44 C36.731,44 36.482,43.896 36.294,43.709 C36.104,43.52 36,43.268 36,43 C36,42.448 36.448,42 37,42 L37,42 Z" id="Shape" fill="#000000"></path>
    </g>
</svg>