<?xml version="1.0" encoding="UTF-8" standalone="no"?>
<svg width="64px" height="64px" viewBox="0 0 64 64" version="1.1" xmlns="http://www.w3.org/2000/svg" xmlns:xlink="http://www.w3.org/1999/xlink">
    <!-- Generator: Sketch 3.7.2 (28276) - http://www.bohemiancoding.com/sketch -->
    <title>ext-sql</title>
    <desc>Created with Sketch.</desc>
    <defs></defs>
    <g id="64px-Line" stroke="none" stroke-width="1" fill="none" fill-rule="evenodd">
        <g id="ext-sql"></g>
        <path d="M12,60 L46,60 C48.206,60 50,58.206 50,56 L50,54 L53,54 C53.552,54 54,53.553 54,53 L54,37 C54,36.447 53.552,36 53,36 L50,36 L50,18 C50,17.735 49.895,17.48 49.707,17.293 L38.707,6.293 C38.52,6.105 38.265,6 38,6 L12,6 C9.794,6 8,7.794 8,10 L8,56 C8,58.206 9.794,60 12,60 L12,60 Z M52,52 L16,52 L16,38 L52,38 L52,52 L52,52 Z M47.586,18 L40,18 C38.897,18 38,17.103 38,16 L38,8.414 L47.586,18 L47.586,18 Z M10,10 C10,8.897 10.897,8 12,8 L36,8 L36,16 C36,18.206 37.794,20 40,20 L48,20 L48,36 L15,36 C14.448,36 14,36.447 14,37 L14,53 C14,53.553 14.448,54 15,54 L48,54 L48,56 C48,57.103 47.103,58 46,58 L12,58 C10.897,58 10,57.103 10,56 L10,10 L10,10 Z" id="Shape" fill="#000000"></path>
        <path d="M17,26 L29,26 C29.552,26 30,25.552 30,25 L30,13 C30,12.448 29.552,12 29,12 L17,12 C16.448,12 16,12.448 16,13 L16,25 C16,25.552 16.448,26 17,26 L17,26 Z M28,20 L18,20 L18,18 L28,18 L28,20 L28,20 Z M18,24 L18,22 L28,22 L28,24 L18,24 L18,24 Z M28,14 L28,16 L18,16 L18,14 L28,14 L28,14 Z" id="Shape" fill="#000000"></path>
        <path d="M43,48 L40,48 L40,41 C40,40.447 39.552,40 39,40 C38.448,40 38,40.447 38,41 L38,49 C38,49.553 38.448,50 39,50 L43,50 C43.552,50 44,49.553 44,49 C44,48.447 43.552,48 43,48 L43,48 Z" id="Shape" fill="#000000"></path>
        <path d="M25,42 C25.36,42 25.683,42.186 25.866,42.5 C25.954,42.649 26,42.822 26,43 C26,43.553 26.448,44 27,44 C27.552,44 28,43.553 28,43 C28,42.468 27.859,41.944 27.593,41.492 C27.059,40.572 26.065,40 25,40 C23.346,40 22,41.346 22,43 C22,43.803 22.313,44.558 22.881,45.124 C23.447,45.689 24.198,46 24.995,46 C25.501,45.993 26,46.446 26,47 C26,47.552 25.551,48 25,48 C24.449,48 24,47.552 24,47 C24,46.447 23.552,46 23,46 C22.448,46 22,46.447 22,47 C22,48.654 23.346,50 25,50 C26.654,50 28,48.654 28,47 C28,45.346 26.654,44 24.998,44 L24.997,44 C24.732,44 24.482,43.896 24.294,43.709 C24.104,43.52 24,43.268 24,43 C24,42.448 24.449,42 25,42 L25,42 Z" id="Shape" fill="#000000"></path>
        <path d="M33,40 C31.346,40 30,41.346 30,43 L30,47 C30,48.654 31.346,50 33,50 C33.462,50 33.894,49.886 34.285,49.699 L34.293,49.707 C34.488,49.902 34.744,50 35,50 C35.256,50 35.512,49.902 35.707,49.707 C36.098,49.316 36.098,48.684 35.707,48.293 L35.699,48.285 C35.886,47.894 36,47.461 36,47 L36,43 C36,41.346 34.654,40 33,40 L33,40 Z M32,43 C32,42.448 32.449,42 33,42 C33.551,42 34,42.448 34,43 L34,46.586 L33.707,46.293 C33.316,45.902 32.684,45.902 32.293,46.293 C32.098,46.488 32,46.744 32,47 L32,43 L32,43 Z M32.269,47.671 C32.191,47.586 32.123,47.491 32.077,47.383 C32.121,47.487 32.188,47.583 32.269,47.671 L32.269,47.671 Z" id="Shape" fill="#000000"></path>
    </g>
</svg>