<?xml version="1.0" encoding="UTF-8" standalone="no"?>
<svg width="64px" height="64px" viewBox="0 0 64 64" version="1.1" xmlns="http://www.w3.org/2000/svg" xmlns:xlink="http://www.w3.org/1999/xlink">
    <!-- Generator: Sketch 3.7.2 (28276) - http://www.bohemiancoding.com/sketch -->
    <title>ext-pct</title>
    <desc>Created with Sketch.</desc>
    <defs></defs>
    <g id="64px-Line" stroke="none" stroke-width="1" fill="none" fill-rule="evenodd">
        <g id="ext-pct"></g>
        <path d="M12,60 L46,60 C48.206,60 50,58.206 50,56 L50,54 L51,54 C51.553,54 52,53.552 52,53 L52,37 C52,36.448 51.553,36 51,36 L50,36 L50,18 C50,17.735 49.895,17.48 49.707,17.293 L38.707,6.293 C38.52,6.105 38.266,6 38,6 L12,6 C9.794,6 8,7.794 8,10 L8,56 C8,58.206 9.794,60 12,60 L12,60 Z M50,52 L16,52 L16,38 L50,38 L50,52 L50,52 Z M47.586,18 L40,18 C38.897,18 38,17.103 38,16 L38,8.414 L47.586,18 L47.586,18 Z M10,10 C10,8.897 10.897,8 12,8 L36,8 L36,16 C36,18.206 37.794,20 40,20 L48,20 L48,36 L15,36 C14.447,36 14,36.448 14,37 L14,53 C14,53.552 14.447,54 15,54 L48,54 L48,56 C48,57.103 47.103,58 46,58 L12,58 C10.897,58 10,57.103 10,56 L10,10 L10,10 Z" id="Shape" fill="#000000"></path>
        <path d="M14.618,25.923 C14.74,25.973 14.87,26 15,26 L31,26 C31.553,26 32,25.552 32,25 L32,13 C32,12.448 31.553,12 31,12 L15,12 C14.447,12 14,12.448 14,13 L14,25 C14,25.13 14.027,25.26 14.077,25.382 C14.178,25.627 14.373,25.822 14.618,25.923 L14.618,25.923 Z M17.414,24 L20,21.414 L21.293,22.707 C21.684,23.098 22.316,23.098 22.707,22.707 L26,19.414 L30,23.414 L30,24 L17.414,24 L17.414,24 Z M30,14 L30,20.586 L26.707,17.293 C26.316,16.902 25.684,16.902 25.293,17.293 L22,20.586 L20.707,19.293 C20.316,18.902 19.684,18.902 19.293,19.293 L16,22.586 L16,14 L30,14 L30,14 Z" id="Shape" fill="#000000"></path>
        <path d="M25,40 L23,40 C22.447,40 22,40.448 22,41 L22,49 C22,49.552 22.447,50 23,50 C23.553,50 24,49.552 24,49 L24,46 L25,46 C26.654,46 28,44.654 28,43 C28,41.346 26.654,40 25,40 L25,40 Z M25,44 L24,44 L24,42 L25,42 C25.552,42 26,42.449 26,43 C26,43.551 25.552,44 25,44 L25,44 Z" id="Shape" fill="#000000"></path>
        <path d="M33,42 C33.552,42 34,42.449 34,43 C34,43.552 34.447,44 35,44 C35.553,44 36,43.552 36,43 C36,41.346 34.654,40 33,40 C31.346,40 30,41.346 30,43 L30,47 C30,48.654 31.346,50 33,50 C34.654,50 36,48.654 36,47 C36,46.448 35.553,46 35,46 C34.447,46 34,46.448 34,47 C34,47.551 33.552,48 33,48 C32.448,48 32,47.551 32,47 L32,43 C32,42.449 32.448,42 33,42 L33,42 Z" id="Shape" fill="#000000"></path>
        <path d="M43,40 L39,40 C38.447,40 38,40.448 38,41 C38,41.552 38.447,42 39,42 L40,42 L40,49 C40,49.552 40.447,50 41,50 C41.553,50 42,49.552 42,49 L42,42 L43,42 C43.553,42 44,41.552 44,41 C44,40.448 43.553,40 43,40 L43,40 Z" id="Shape" fill="#000000"></path>
    </g>
</svg>