<?xml version="1.0" encoding="UTF-8" standalone="no"?>
<svg width="64px" height="64px" viewBox="0 0 64 64" version="1.1" xmlns="http://www.w3.org/2000/svg" xmlns:xlink="http://www.w3.org/1999/xlink">
    <!-- Generator: Sketch 3.7.2 (28276) - http://www.bohemiancoding.com/sketch -->
    <title>ext-otf</title>
    <desc>Created with Sketch.</desc>
    <defs></defs>
    <g id="64px-Line" stroke="none" stroke-width="1" fill="none" fill-rule="evenodd">
        <g id="ext-otf"></g>
        <path d="M53,36 L50,36 L50,18 C50,17.734 49.895,17.48 49.707,17.293 L38.707,6.293 C38.52,6.105 38.266,6 38,6 L12,6 C9.794,6 8,7.794 8,10 L8,56 C8,58.206 9.794,60 12,60 L46,60 C48.206,60 50,58.206 50,56 L50,54 L53,54 C53.553,54 54,53.553 54,53 L54,37 C54,36.447 53.553,36 53,36 L53,36 Z M47.586,18 L40,18 C38.897,18 38,17.103 38,16 L38,8.414 L47.586,18 L47.586,18 Z M48,56 C48,57.103 47.103,58 46,58 L12,58 C10.897,58 10,57.103 10,56 L10,10 C10,8.897 10.897,8 12,8 L36,8 L36,16 C36,18.206 37.794,20 40,20 L48,20 L48,36 L15,36 C14.447,36 14,36.447 14,37 L14,53 C14,53.553 14.447,54 15,54 L48,54 L48,56 L48,56 Z M52,52 L16,52 L16,38 L52,38 L52,52 L52,52 Z" id="Shape" fill="#000000"></path>
        <path d="M17,14 L22,14 L22,25 C22,25.553 22.447,26 23,26 C23.553,26 24,25.553 24,25 L24,14 L29,14 C29.553,14 30,13.553 30,13 C30,12.447 29.553,12 29,12 L17,12 C16.447,12 16,12.447 16,13 C16,13.553 16.447,14 17,14 L17,14 Z" id="Shape" fill="#000000"></path>
        <path d="M43,40 L39,40 C38.447,40 38,40.447 38,41 L38,49 C38,49.553 38.447,50 39,50 C39.553,50 40,49.553 40,49 L40,46 L41,46 C41.553,46 42,45.553 42,45 C42,44.447 41.553,44 41,44 L40,44 L40,42 L43,42 C43.553,42 44,41.553 44,41 C44,40.447 43.553,40 43,40 L43,40 Z" id="Shape" fill="#000000"></path>
        <path d="M35,40 L31,40 C30.447,40 30,40.447 30,41 C30,41.553 30.447,42 31,42 L32,42 L32,49 C32,49.553 32.447,50 33,50 C33.553,50 34,49.553 34,49 L34,42 L35,42 C35.553,42 36,41.553 36,41 C36,40.447 35.553,40 35,40 L35,40 Z" id="Shape" fill="#000000"></path>
        <path d="M25,40 C23.346,40 22,41.346 22,43 L22,47 C22,48.654 23.346,50 25,50 C26.654,50 28,48.654 28,47 L28,43 C28,41.346 26.654,40 25,40 L25,40 Z M25,48 C24.448,48 24,47.552 24,47 L24,43 C24,42.448 24.448,42 25,42 C25.552,42 26,42.448 26,43 L26,47 C26,47.552 25.552,48 25,48 L25,48 Z" id="Shape" fill="#000000"></path>
    </g>
</svg>