<?xml version="1.0" encoding="UTF-8" standalone="no"?>
<svg width="64px" height="64px" viewBox="0 0 64 64" version="1.1" xmlns="http://www.w3.org/2000/svg" xmlns:xlink="http://www.w3.org/1999/xlink">
    <!-- Generator: Sketch 3.7.2 (28276) - http://www.bohemiancoding.com/sketch -->
    <title>ext-dll</title>
    <desc>Created with Sketch.</desc>
    <defs></defs>
    <g id="64px-Line" stroke="none" stroke-width="1" fill="none" fill-rule="evenodd">
        <g id="ext-dll"></g>
        <path d="M53,36 L50,36 L50,18 C50,17.735 49.895,17.48 49.707,17.293 L38.707,6.293 C38.52,6.105 38.265,6 38,6 L12,6 C9.794,6 8,7.794 8,10 L8,56 C8,58.206 9.794,60 12,60 L46,60 C48.206,60 50,58.206 50,56 L50,54 L53,54 C53.552,54 54,53.553 54,53 L54,37 C54,36.447 53.552,36 53,36 L53,36 Z M47.586,18 L40,18 C38.897,18 38,17.103 38,16 L38,8.414 L47.586,18 L47.586,18 Z M48,56 C48,57.103 47.103,58 46,58 L12,58 C10.897,58 10,57.103 10,56 L10,10 C10,8.897 10.897,8 12,8 L36,8 L36,16 C36,18.206 37.794,20 40,20 L48,20 L48,36 L15,36 C14.448,36 14,36.447 14,37 L14,53 C14,53.553 14.448,54 15,54 L48,54 L48,56 L48,56 Z M52,52 L16,52 L16,38 L52,38 L52,52 L52,52 Z" id="Shape" fill="#000000"></path>
        <path d="M43,48 L40,48 L40,41 C40,40.447 39.552,40 39,40 C38.448,40 38,40.447 38,41 L38,49 C38,49.553 38.448,50 39,50 L43,50 C43.552,50 44,49.553 44,49 C44,48.447 43.552,48 43,48 L43,48 Z" id="Shape" fill="#000000"></path>
        <path d="M35,48 L32,48 L32,41 C32,40.447 31.552,40 31,40 C30.448,40 30,40.447 30,41 L30,49 C30,49.553 30.448,50 31,50 L35,50 C35.552,50 36,49.553 36,49 C36,48.447 35.552,48 35,48 L35,48 Z" id="Shape" fill="#000000"></path>
        <path d="M25,40.002 L23,40.002 C22.448,40.002 22,40.449 22,41.002 L22,49.002 C22,49.555 22.448,50.002 23,50.002 L25,50.002 C26.654,50.002 28,48.656 28,47.002 L28,43.002 C28,41.348 26.654,40.002 25,40.002 L25,40.002 Z M25,48.002 L24,48.002 L24,42.002 L25,42.002 C25.551,42.002 26,42.45 26,43.002 L26,47.002 C26,47.554 25.551,48.002 25,48.002 L25,48.002 Z" id="Shape" fill="#000000"></path>
        <path d="M17,24 C17.256,24 17.512,23.902 17.707,23.707 C18.098,23.316 18.098,22.684 17.707,22.293 L14.414,19 L17.707,15.707 C18.098,15.316 18.098,14.684 17.707,14.293 C17.316,13.902 16.684,13.902 16.293,14.293 L12.293,18.293 C11.902,18.684 11.902,19.316 12.293,19.707 L16.293,23.707 C16.488,23.902 16.744,24 17,24 L17,24 Z" id="Shape" fill="#000000"></path>
        <path d="M28.293,23.707 C28.488,23.902 28.744,24 29,24 C29.256,24 29.512,23.902 29.707,23.707 L33.707,19.707 C34.098,19.316 34.098,18.684 33.707,18.293 L29.707,14.293 C29.316,13.902 28.684,13.902 28.293,14.293 C27.902,14.684 27.902,15.316 28.293,15.707 L31.586,19 L28.293,22.293 C27.902,22.684 27.902,23.316 28.293,23.707 L28.293,23.707 Z" id="Shape" fill="#000000"></path>
        <path d="M20.684,25.949 C20.789,25.984 20.896,26.001 21,26.001 C21.419,26.001 21.809,25.736 21.949,25.317 L25.949,13.317 C26.124,12.793 25.841,12.227 25.317,12.052 C24.791,11.875 24.226,12.161 24.052,12.684 L20.052,24.684 C19.876,25.208 20.16,25.774 20.684,25.949 L20.684,25.949 Z" id="Shape" fill="#000000"></path>
    </g>
</svg>