<?xml version="1.0" encoding="UTF-8" standalone="no"?>
<svg width="64px" height="64px" viewBox="0 0 64 64" version="1.1" xmlns="http://www.w3.org/2000/svg" xmlns:xlink="http://www.w3.org/1999/xlink">
    <!-- Generator: Sketch 3.7.2 (28276) - http://www.bohemiancoding.com/sketch -->
    <title>ext-css</title>
    <desc>Created with Sketch.</desc>
    <defs></defs>
    <g id="64px-Line" stroke="none" stroke-width="1" fill="none" fill-rule="evenodd">
        <g id="ext-css"></g>
        <path d="M53,36 L50,36 L50,18 C50,17.735 49.895,17.48 49.707,17.293 L38.707,6.293 C38.52,6.105 38.266,6 38,6 L12,6 C9.794,6 8,7.794 8,10 L8,56 C8,58.206 9.794,60 12,60 L46,60 C48.206,60 50,58.206 50,56 L50,54 L53,54 C53.553,54 54,53.553 54,53 L54,37 C54,36.447 53.553,36 53,36 L53,36 Z M47.586,18 L40,18 C38.897,18 38,17.103 38,16 L38,8.414 L47.586,18 L47.586,18 Z M48,56 C48,57.103 47.103,58 46,58 L12,58 C10.897,58 10,57.103 10,56 L10,10 C10,8.897 10.897,8 12,8 L36,8 L36,16 C36,18.206 37.794,20 40,20 L48,20 L48,36 L15,36 C14.447,36 14,36.447 14,37 L14,53 C14,53.553 14.447,54 15,54 L48,54 L48,56 L48,56 Z M52,52 L16,52 L16,38 L52,38 L52,52 L52,52 Z" id="Shape" fill="#000000"></path>
        <path d="M41,42 C41.36,42 41.684,42.186 41.866,42.5 C41.953,42.649 42,42.822 42,43 C42,43.553 42.447,44 43,44 C43.553,44 44,43.553 44,43 C44,42.468 43.858,41.944 43.594,41.492 C43.06,40.572 42.065,40 41,40 C39.346,40 38,41.346 38,43 C38,43.803 38.312,44.558 38.881,45.124 C39.447,45.689 40.198,46 40.994,46 L41,46 C41.552,46 42,46.448 42,47 C42,47.552 41.552,48 41,48 C40.448,48 40,47.552 40,47 C40,46.447 39.553,46 39,46 C38.447,46 38,46.447 38,47 C38,48.654 39.346,50 41,50 C42.654,50 44,48.654 44,47 C44,45.346 42.654,44 40.998,44 L40.996,44 C40.731,44 40.482,43.896 40.294,43.709 C40.104,43.52 40,43.268 40,43 C40,42.448 40.448,42 41,42 L41,42 Z" id="Shape" fill="#000000"></path>
        <path d="M33,42 C33.36,42 33.684,42.186 33.866,42.5 C33.953,42.649 34,42.822 34,43 C34,43.553 34.447,44 35,44 C35.553,44 36,43.553 36,43 C36,42.468 35.858,41.944 35.594,41.492 C35.06,40.572 34.065,40 33,40 C31.346,40 30,41.346 30,43 C30,43.803 30.312,44.558 30.881,45.124 C31.447,45.689 32.198,46 32.994,46 C33.56,46.03 34,46.446 34,47 C34,47.552 33.552,48 33,48 C32.448,48 32,47.552 32,47 C32,46.447 31.553,46 31,46 C30.447,46 30,46.447 30,47 C30,48.654 31.346,50 33,50 C34.654,50 36,48.654 36,47 C36,45.346 34.654,44 32.998,44 L32.996,44 C32.731,44 32.482,43.896 32.294,43.709 C32.104,43.52 32,43.268 32,43 C32,42.448 32.448,42 33,42 L33,42 Z" id="Shape" fill="#000000"></path>
        <path d="M25,42 C25.552,42 26,42.448 26,43 C26,43.553 26.447,44 27,44 C27.553,44 28,43.553 28,43 C28,41.346 26.654,40 25,40 C23.346,40 22,41.346 22,43 L22,47 C22,48.654 23.346,50 25,50 C26.654,50 28,48.654 28,47 C28,46.447 27.553,46 27,46 C26.447,46 26,46.447 26,47 C26,47.552 25.552,48 25,48 C24.448,48 24,47.552 24,47 L24,43 C24,42.448 24.448,42 25,42 L25,42 Z" id="Shape" fill="#000000"></path>
        <path d="M17,24 C17.256,24 17.512,23.902 17.707,23.707 C18.098,23.316 18.098,22.684 17.707,22.293 L14.414,19 L17.707,15.707 C18.098,15.316 18.098,14.684 17.707,14.293 C17.316,13.902 16.684,13.902 16.293,14.293 L12.293,18.293 C11.902,18.684 11.902,19.316 12.293,19.707 L16.293,23.707 C16.488,23.902 16.744,24 17,24 L17,24 Z" id="Shape" fill="#000000"></path>
        <path d="M28.293,23.707 C28.488,23.902 28.744,24 29,24 C29.256,24 29.512,23.902 29.707,23.707 L33.707,19.707 C34.098,19.316 34.098,18.684 33.707,18.293 L29.707,14.293 C29.316,13.902 28.684,13.902 28.293,14.293 C27.902,14.684 27.902,15.316 28.293,15.707 L31.586,19 L28.293,22.293 C27.902,22.684 27.902,23.316 28.293,23.707 L28.293,23.707 Z" id="Shape" fill="#000000"></path>
        <path d="M20.684,25.949 C20.789,25.984 20.896,26.001 21,26.001 C21.419,26.001 21.809,25.736 21.948,25.317 L25.948,13.317 C26.123,12.793 25.84,12.227 25.316,12.052 C24.787,11.875 24.226,12.161 24.051,12.684 L20.051,24.684 C19.877,25.208 20.16,25.774 20.684,25.949 L20.684,25.949 Z" id="Shape" fill="#000000"></path>
    </g>
</svg>