<?xml version="1.0" encoding="UTF-8" standalone="no"?>
<svg width="64px" height="64px" viewBox="0 0 64 64" version="1.1" xmlns="http://www.w3.org/2000/svg" xmlns:xlink="http://www.w3.org/1999/xlink">
    <!-- Generator: Sketch 3.7.2 (28276) - http://www.bohemiancoding.com/sketch -->
    <title>ext-zip</title>
    <desc>Created with Sketch.</desc>
    <defs></defs>
    <g id="64px-Line" stroke="none" stroke-width="1" fill="none" fill-rule="evenodd">
        <g id="ext-zip"></g>
        <path d="M53,36 L50,36 L50,18 C50,17.734 49.895,17.48 49.707,17.293 L38.707,6.293 C38.52,6.105 38.265,6 38,6 L12,6 C9.794,6 8,7.794 8,10 L8,56 C8,58.206 9.794,60 12,60 L46,60 C48.206,60 50,58.206 50,56 L50,54 L53,54 C53.552,54 54,53.553 54,53 L54,37 C54,36.447 53.552,36 53,36 L53,36 Z M47.586,18 L40,18 C38.897,18 38,17.103 38,16 L38,8.414 L47.586,18 L47.586,18 Z M48,56 C48,57.103 47.103,58 46,58 L12,58 C10.897,58 10,57.103 10,56 L10,10 C10,8.897 10.897,8 12,8 L36,8 L36,16 C36,18.206 37.794,20 40,20 L48,20 L48,36 L15,36 C14.448,36 14,36.447 14,37 L14,53 C14,53.553 14.448,54 15,54 L48,54 L48,56 L48,56 Z M52,52 L16,52 L16,38 L52,38 L52,52 L52,52 Z" id="Shape" fill="#000000"></path>
        <path d="M35,42 C35.552,42 36,41.553 36,41 C36,40.447 35.552,40 35,40 L31,40 C30.448,40 30,40.447 30,41 C30,41.553 30.448,42 31,42 L32,42 L32,48 L31,48 C30.448,48 30,48.447 30,49 C30,49.553 30.448,50 31,50 L35,50 C35.552,50 36,49.553 36,49 C36,48.447 35.552,48 35,48 L34,48 L34,42 L35,42 L35,42 Z" id="Shape" fill="#000000"></path>
        <path d="M27,48 L24.618,48 L27.894,41.447 C28.049,41.137 28.032,40.769 27.85,40.474 C27.668,40.179 27.347,40 27,40 L23,40 C22.448,40 22,40.447 22,41 C22,41.553 22.448,42 23,42 L25.382,42 L22.106,48.553 C21.951,48.863 21.968,49.231 22.15,49.526 C22.332,49.821 22.653,50 23,50 L27,50 C27.552,50 28,49.553 28,49 C28,48.447 27.552,48 27,48 L27,48 Z" id="Shape" fill="#000000"></path>
        <path d="M41,40 L39,40 C38.448,40 38,40.447 38,41 L38,49 C38,49.553 38.448,50 39,50 C39.552,50 40,49.553 40,49 L40,46 L41,46 C42.654,46 44,44.654 44,43 C44,41.346 42.654,40 41,40 L41,40 Z M41,44 L40,44 L40,42 L41,42 C41.551,42 42,42.448 42,43 C42,43.552 41.551,44 41,44 L41,44 Z" id="Shape" fill="#000000"></path>
        <path d="M17,26 C16.448,26 16,26.447 16,27 C16,27.553 16.448,28 17,28 L18,28 L18,29 C18,29.553 18.448,30 19,30 C19.552,30 20,29.553 20,29 L20,28 L21,28 C21.552,28 22,27.553 22,27 C22,26.447 21.552,26 21,26 L20,26 L20,22 L29,22 C29.552,22 30,21.553 30,21 C30,20.447 29.552,20 29,20 L20,20 L20,16 L29,16 C29.552,16 30,15.553 30,15 C30,14.447 29.552,14 29,14 L20,14 L20,13 C20,12.447 19.552,12 19,12 C18.448,12 18,12.447 18,13 L18,14 L17,14 C16.448,14 16,14.447 16,15 C16,15.553 16.448,16 17,16 L18,16 L18,20 L17,20 C16.448,20 16,20.447 16,21 C16,21.553 16.448,22 17,22 L18,22 L18,26 L17,26 L17,26 Z" id="Shape" fill="#000000"></path>
    </g>
</svg>