<?xml version="1.0" encoding="UTF-8" standalone="no"?>
<svg width="44px" height="44px" viewBox="0 0 44 44" version="1.1" xmlns="http://www.w3.org/2000/svg" xmlns:xlink="http://www.w3.org/1999/xlink">
    <!-- Generator: Sketch 3.7.2 (28276) - http://www.bohemiancoding.com/sketch -->
    <title>ext-aiff</title>
    <desc>Created with Sketch.</desc>
    <defs></defs>
    <g id="44px-Line" stroke="none" stroke-width="1" fill="none" fill-rule="evenodd">
        <g id="ext-aiff"></g>
        <path d="M11,24 C9.346,24 8,25.346 8,27 L8,33 C8,33.553 8.448,34 9,34 C9.552,34 10,33.553 10,33 L10,30 L12,30 L12,33 C12,33.553 12.448,34 13,34 C13.552,34 14,33.553 14,33 L14,27 C14,25.346 12.654,24 11,24 L11,24 Z M10,28 L10,27 C10,26.448 10.449,26 11,26 C11.551,26 12,26.448 12,27 L12,28 L10,28 L10,28 Z" id="Shape" fill="#000000"></path>
        <path d="M41,20 L34,20 L34,10 C34,9.735 33.895,9.48 33.707,9.293 L24.707,0.293 C24.52,0.105 24.265,0 24,0 L3,0 C1.346,0 0,1.346 0,3 L0,41 C0,42.654 1.346,44 3,44 L31,44 C32.654,44 34,42.654 34,41 L34,38 L41,38 C41.552,38 42,37.553 42,37 L42,21 C42,20.448 41.552,20 41,20 L41,20 Z M31.586,10 L25,10 C24.449,10 24,9.551 24,9 L24,2.414 L31.586,10 L31.586,10 Z M32,41 C32,41.552 31.551,42 31,42 L3,42 C2.449,42 2,41.552 2,41 L2,3 C2,2.449 2.449,2 3,2 L22,2 L22,9 C22,10.654 23.346,12 25,12 L32,12 L32,20 L5,20 C4.448,20 4,20.448 4,21 L4,37 C4,37.553 4.448,38 5,38 L32,38 L32,41 L32,41 Z M40,36 L6,36 L6,22 L40,22 L40,36 L40,36 Z" id="Shape" fill="#000000"></path>
        <path d="M21,26 C21.552,26 22,25.553 22,25 C22,24.447 21.552,24 21,24 L17,24 C16.448,24 16,24.447 16,25 C16,25.553 16.448,26 17,26 L18,26 L18,32 L17,32 C16.448,32 16,32.447 16,33 C16,33.553 16.448,34 17,34 L21,34 C21.552,34 22,33.553 22,33 C22,32.447 21.552,32 21,32 L20,32 L20,26 L21,26 L21,26 Z" id="Shape" fill="#000000"></path>
        <path d="M29,24 L25,24 C24.448,24 24,24.447 24,25 L24,33 C24,33.553 24.448,34 25,34 C25.552,34 26,33.553 26,33 L26,30 L27,30 C27.552,30 28,29.553 28,29 C28,28.447 27.552,28 27,28 L26,28 L26,26 L29,26 C29.552,26 30,25.553 30,25 C30,24.447 29.552,24 29,24 L29,24 Z" id="Shape" fill="#000000"></path>
        <path d="M32,25 L32,33 C32,33.553 32.448,34 33,34 C33.552,34 34,33.553 34,33 L34,30 L35,30 C35.552,30 36,29.553 36,29 C36,28.447 35.552,28 35,28 L34,28 L34,26 L37,26 C37.552,26 38,25.553 38,25 C38,24.447 37.552,24 37,24 L33,24 C32.448,24 32,24.447 32,25 L32,25 Z" id="Shape" fill="#000000"></path>
    </g>
</svg>