<?xml version="1.0" encoding="UTF-8" standalone="no"?>
<svg width="64px" height="64px" viewBox="0 0 64 64" version="1.1" xmlns="http://www.w3.org/2000/svg" xmlns:xlink="http://www.w3.org/1999/xlink">
    <!-- Generator: Sketch 3.7.2 (28276) - http://www.bohemiancoding.com/sketch -->
    <title>ext-woff</title>
    <desc>Created with Sketch.</desc>
    <defs></defs>
    <g id="64px-Line" stroke="none" stroke-width="1" fill="none" fill-rule="evenodd">
        <g id="ext-woff"></g>
        <path d="M57,36 L50,36 L50,18 C50,17.734 49.895,17.48 49.707,17.293 L38.707,6.293 C38.52,6.105 38.266,6 38,6 L12,6 C9.794,6 8,7.794 8,10 L8,56 C8,58.206 9.794,60 12,60 L46,60 C48.206,60 50,58.206 50,56 L50,54 L57,54 C57.553,54 58,53.553 58,53 L58,37 C58,36.447 57.553,36 57,36 L57,36 Z M47.586,18 L40,18 C38.897,18 38,17.103 38,16 L38,8.414 L47.586,18 L47.586,18 Z M48,56 C48,57.103 47.103,58 46,58 L12,58 C10.897,58 10,57.103 10,56 L10,10 C10,8.897 10.897,8 12,8 L36,8 L36,16 C36,18.206 37.794,20 40,20 L48,20 L48,36 L15,36 C14.447,36 14,36.447 14,37 L14,53 C14,53.553 14.447,54 15,54 L48,54 L48,56 L48,56 Z M56,52 L16,52 L16,38 L56,38 L56,52 L56,52 Z" id="Shape" fill="#000000"></path>
        <path d="M17,14 L22,14 L22,25 C22,25.553 22.447,26 23,26 C23.553,26 24,25.553 24,25 L24,14 L29,14 C29.553,14 30,13.553 30,13 C30,12.447 29.553,12 29,12 L17,12 C16.447,12 16,12.447 16,13 C16,13.553 16.447,14 17,14 L17,14 Z" id="Shape" fill="#000000"></path>
        <path d="M27,40 C26.447,40 26,40.447 26,41 L26,46.001 L24.8,44.401 C24.77,44.361 24.728,44.34 24.694,44.306 C24.66,44.272 24.639,44.23 24.6,44.201 C24.584,44.189 24.565,44.188 24.549,44.177 C24.488,44.136 24.423,44.111 24.355,44.085 C24.3,44.064 24.249,44.04 24.192,44.029 C24.126,44.016 24.061,44.019 23.993,44.019 C23.931,44.019 23.872,44.017 23.812,44.028 C23.751,44.04 23.695,44.065 23.636,44.089 C23.572,44.114 23.51,44.138 23.452,44.176 C23.435,44.187 23.416,44.189 23.399,44.201 C23.359,44.231 23.338,44.274 23.304,44.308 C23.27,44.341 23.228,44.362 23.199,44.401 L21.999,46.001 L21.999,41 C21.999,40.447 21.552,40 20.999,40 C20.446,40 19.999,40.447 19.999,41 L19.999,49 C19.999,49.024 20.011,49.044 20.013,49.068 C20.018,49.138 20.035,49.202 20.054,49.27 C20.071,49.33 20.087,49.389 20.115,49.444 C20.142,49.498 20.179,49.545 20.216,49.594 C20.259,49.651 20.302,49.704 20.356,49.75 C20.373,49.765 20.382,49.786 20.401,49.8 C20.442,49.831 20.489,49.845 20.533,49.869 C20.572,49.89 20.606,49.913 20.648,49.929 C20.762,49.972 20.88,50 21,50 L21,50 L21.001,50 C21.15,50 21.289,49.963 21.416,49.904 C21.451,49.888 21.478,49.86 21.511,49.84 C21.603,49.784 21.686,49.719 21.755,49.637 C21.768,49.621 21.788,49.616 21.8,49.599 L24,46.665 L26.2,49.599 C26.212,49.616 26.232,49.621 26.245,49.637 C26.314,49.719 26.397,49.783 26.489,49.84 C26.522,49.86 26.549,49.888 26.584,49.904 C26.711,49.963 26.85,50 26.999,50 L27,50 L27,50 C27.119,50 27.237,49.972 27.352,49.929 C27.394,49.913 27.428,49.89 27.467,49.869 C27.511,49.845 27.558,49.831 27.599,49.8 C27.618,49.786 27.626,49.765 27.644,49.75 C27.698,49.703 27.741,49.65 27.784,49.593 C27.821,49.544 27.858,49.498 27.885,49.443 C27.913,49.388 27.928,49.329 27.946,49.269 C27.965,49.202 27.982,49.137 27.987,49.068 C27.989,49.044 28.001,49.024 28.001,49 L28.001,41 C28,40.447 27.553,40 27,40 L27,40 Z" id="Shape" fill="#000000"></path>
        <path d="M46,41 L46,49 C46,49.553 46.447,50 47,50 C47.553,50 48,49.553 48,49 L48,46 L49,46 C49.553,46 50,45.553 50,45 C50,44.447 49.553,44 49,44 L48,44 L48,42 L51,42 C51.553,42 52,41.553 52,41 C52,40.447 51.553,40 51,40 L47,40 C46.447,40 46,40.447 46,41 L46,41 Z" id="Shape" fill="#000000"></path>
        <path d="M43,40 L39,40 C38.447,40 38,40.447 38,41 L38,49 C38,49.553 38.447,50 39,50 C39.553,50 40,49.553 40,49 L40,46 L41,46 C41.553,46 42,45.553 42,45 C42,44.447 41.553,44 41,44 L40,44 L40,42 L43,42 C43.553,42 44,41.553 44,41 C44,40.447 43.553,40 43,40 L43,40 Z" id="Shape" fill="#000000"></path>
        <path d="M33,40 C31.346,40 30,41.346 30,43 L30,47 C30,48.654 31.346,50 33,50 C34.654,50 36,48.654 36,47 L36,43 C36,41.346 34.654,40 33,40 L33,40 Z M33,48 C32.448,48 32,47.552 32,47 L32,43 C32,42.448 32.448,42 33,42 C33.552,42 34,42.448 34,43 L34,47 C34,47.552 33.552,48 33,48 L33,48 Z" id="Shape" fill="#000000"></path>
    </g>
</svg>