<?xml version="1.0" encoding="UTF-8" standalone="no"?>
<svg width="64px" height="64px" viewBox="0 0 64 64" version="1.1" xmlns="http://www.w3.org/2000/svg" xmlns:xlink="http://www.w3.org/1999/xlink">
    <!-- Generator: Sketch 3.7.2 (28276) - http://www.bohemiancoding.com/sketch -->
    <title>ext-mp4</title>
    <desc>Created with Sketch.</desc>
    <defs></defs>
    <g id="64px-Glyph" stroke="none" stroke-width="1" fill="none" fill-rule="evenodd">
        <g id="ext-mp4" fill="#000000">
            <path d="M38,16 C38,17.103 38.897,18 40,18 L50,18 C50,17.734 49.895,17.48 49.707,17.293 L38.707,6.293 C38.52,6.105 38.265,6 38,6 L38,16 Z" id="Fill-244"></path>
            <polygon id="Fill-245" points="18 14.0039 18 26.0279 28.012 19.9699"></polygon>
            <path d="M16,13.9717 C16,13.2557 16.375,12.6167 17.004,12.2607 C17.634,11.9067 18.409,11.9167 19.029,12.2887 L29.043,18.3177 C29.642,18.6777 30,19.3067 30,19.9997 C30,20.6937 29.642,21.3227 29.043,21.6827 L19.028,27.7107 C18.711,27.9027 18.352,27.9987 17.992,27.9987 C17.651,27.9987 17.31,27.9117 17.004,27.7397 C16.375,27.3837 16,26.7437 16,26.0287 L16,13.9717 Z M15,33.9997 L50,33.9997 L50,19.9997 L40,19.9997 C37.794,19.9997 36,18.2057 36,15.9997 L36,5.9997 L12,5.9997 C9.794,5.9997 8,7.7937 8,9.9997 L8,55.9997 C8,58.2057 9.794,59.9997 12,59.9997 L46,59.9997 C48.206,59.9997 50,58.2057 50,55.9997 L15,55.9997 C13.343,55.9997 12,54.6567 12,52.9997 L12,36.9997 C12,35.3427 13.343,33.9997 15,33.9997 L15,33.9997 Z" id="Fill-246"></path>
            <polygon id="Fill-247" points="40.8685 46 42.0005 46 42.0005 44.303"></polygon>
            <path d="M35,42 L34,42 L34,44 L35,44 C35.552,44 36,43.552 36,43 C36,42.448 35.552,42 35,42" id="Fill-248"></path>
            <path d="M45,48 L44,48 L44,49 C44,49.553 43.553,50 43,50 C42.447,50 42,49.553 42,49 L42,48 L39,48 L39,48 L38.999,48 C38.883,48 38.767,47.972 38.655,47.93 C38.619,47.917 38.587,47.9 38.553,47.882 C38.517,47.865 38.479,47.854 38.445,47.832 C38.418,47.814 38.404,47.785 38.379,47.765 C38.324,47.721 38.278,47.674 38.234,47.62 C38.194,47.57 38.159,47.521 38.13,47.466 C38.1,47.41 38.078,47.354 38.059,47.294 C38.038,47.227 38.025,47.162 38.019,47.092 C38.016,47.06 38,47.033 38,47 C38,46.969 38.015,46.942 38.018,46.912 C38.024,46.844 38.038,46.781 38.058,46.715 C38.078,46.649 38.101,46.588 38.134,46.528 C38.148,46.501 38.151,46.471 38.168,46.445 L42.168,40.445 C42.186,40.418 42.215,40.403 42.235,40.378 C42.279,40.325 42.325,40.278 42.379,40.235 C42.429,40.194 42.479,40.159 42.535,40.129 C42.59,40.1 42.645,40.078 42.706,40.059 C42.772,40.039 42.837,40.026 42.906,40.019 C42.938,40.016 42.966,40 43,40 C43.032,40 43.059,40.015 43.09,40.018 C43.156,40.024 43.218,40.038 43.283,40.057 C43.35,40.077 43.412,40.101 43.472,40.134 C43.499,40.149 43.529,40.151 43.555,40.168 C43.582,40.186 43.596,40.214 43.621,40.235 C43.676,40.279 43.722,40.326 43.766,40.38 C43.806,40.43 43.841,40.479 43.87,40.534 C43.9,40.59 43.922,40.646 43.941,40.707 C43.962,40.773 43.975,40.838 43.981,40.908 C43.984,40.94 44,40.967 44,41 L44,46 L45,46 C45.553,46 46,46.447 46,47 C46,47.553 45.553,48 45,48 L45,48 Z M35,46 L34,46 L34,49 C34,49.553 33.553,50 33,50 C32.447,50 32,49.553 32,49 L32,41 C32,40.447 32.447,40 33,40 L35,40 C36.654,40 38,41.346 38,43 C38,44.654 36.654,46 35,46 L35,46 Z M30,49 C30,49.553 29.553,50 29,50 C28.447,50 28,49.553 28,49 L28,43.999 L26.8,45.6 C26.777,45.63 26.742,45.642 26.717,45.668 C26.677,45.712 26.649,45.763 26.6,45.8 C26.565,45.826 26.526,45.837 26.489,45.857 C26.455,45.877 26.424,45.895 26.388,45.91 C26.263,45.964 26.133,46 26.001,46 L26,46 L25.999,46 C25.867,46 25.737,45.964 25.612,45.91 C25.576,45.895 25.545,45.877 25.511,45.857 C25.474,45.837 25.435,45.826 25.4,45.8 C25.351,45.763 25.323,45.712 25.283,45.668 C25.258,45.642 25.223,45.63 25.2,45.6 L24,43.999 L24,49 C24,49.553 23.553,50 23,50 C22.447,50 22,49.553 22,49 L22,41 C22,40.976 22.012,40.956 22.014,40.932 C22.018,40.863 22.035,40.798 22.054,40.731 C22.072,40.67 22.087,40.612 22.115,40.557 C22.142,40.502 22.179,40.456 22.216,40.407 C22.259,40.35 22.301,40.297 22.356,40.25 C22.373,40.235 22.382,40.214 22.4,40.2 C22.432,40.177 22.469,40.171 22.502,40.152 C22.562,40.116 22.621,40.085 22.688,40.063 C22.754,40.041 22.82,40.03 22.889,40.022 C22.927,40.018 22.961,40 23,40 C23.023,40 23.043,40.012 23.066,40.013 C23.137,40.018 23.202,40.035 23.271,40.055 C23.33,40.072 23.388,40.087 23.443,40.114 C23.497,40.142 23.544,40.178 23.593,40.216 C23.65,40.259 23.703,40.302 23.75,40.356 C23.765,40.373 23.786,40.382 23.8,40.4 L26,43.334 L28.2,40.4 C28.214,40.382 28.235,40.373 28.25,40.356 C28.297,40.301 28.35,40.258 28.408,40.215 C28.456,40.178 28.502,40.142 28.556,40.115 C28.612,40.087 28.672,40.071 28.734,40.054 C28.8,40.035 28.863,40.019 28.931,40.014 C28.955,40.012 28.975,40 29,40 C29.041,40 29.076,40.018 29.115,40.023 C29.182,40.031 29.246,40.041 29.311,40.063 C29.379,40.085 29.438,40.116 29.499,40.152 C29.531,40.171 29.568,40.177 29.6,40.2 C29.618,40.214 29.627,40.235 29.644,40.25 C29.698,40.297 29.741,40.35 29.784,40.407 C29.821,40.456 29.858,40.502 29.885,40.556 C29.913,40.612 29.928,40.67 29.946,40.731 C29.965,40.798 29.982,40.863 29.986,40.932 C29.988,40.956 30,40.976 30,41 L30,49 Z M53,36 L15,36 C14.448,36 14,36.447 14,37 L14,53 C14,53.553 14.448,54 15,54 L53,54 C53.552,54 54,53.553 54,53 L54,37 C54,36.447 53.552,36 53,36 L53,36 Z" id="Fill-249"></path>
        </g>
    </g>
</svg>