<?xml version="1.0" encoding="UTF-8" standalone="no"?>
<svg width="44px" height="44px" viewBox="0 0 44 44" version="1.1" xmlns="http://www.w3.org/2000/svg" xmlns:xlink="http://www.w3.org/1999/xlink">
    <!-- Generator: Sketch 3.7.2 (28276) - http://www.bohemiancoding.com/sketch -->
    <title>ext-eps</title>
    <desc>Created with Sketch.</desc>
    <defs></defs>
    <g id="44px-Line" stroke="none" stroke-width="1" fill="none" fill-rule="evenodd">
        <g id="ext-eps"></g>
        <path d="M23,24 L21,24 C20.448,24 20,24.448 20,25 L20,33 C20,33.552 20.448,34 21,34 C21.552,34 22,33.552 22,33 L22,30 L23,30 C24.654,30 26,28.654 26,27 C26,25.346 24.654,24 23,24 L23,24 Z M23,28 L22,28 L22,26 L23,26 C23.551,26 24,26.449 24,27 C24,27.551 23.551,28 23,28 L23,28 Z" id="Shape" fill="#000000"></path>
        <path d="M31,26.002 C31.355,26.002 31.686,26.192 31.866,26.501 C31.955,26.653 32,26.821 32,27.002 C32,27.554 32.448,28.002 33,28.002 C33.552,28.002 34,27.554 34,27.002 C34,26.469 33.859,25.946 33.593,25.493 C33.058,24.574 32.065,24.002 31,24.002 C29.346,24.002 28,25.348 28,27.002 C28,27.804 28.312,28.558 28.88,29.125 C29.446,29.689 30.197,30 30.994,30 L30.999,30 C31.55,30 31.999,30.449 31.999,31 C31.999,31.551 31.55,32 30.999,32 C30.448,32 29.999,31.551 29.999,31 C29.999,30.448 29.551,30 28.999,30 C28.447,30 27.999,30.448 27.999,31 C27.999,32.654 29.345,34 30.999,34 C32.653,34 33.999,32.654 33.999,31 C33.999,29.346 32.653,28 30.997,28 L30.996,28 C30.73,28 30.481,27.896 30.293,27.709 C30.104,27.52 30,27.269 30,27.002 C30,26.451 30.449,26.002 31,26.002 L31,26.002 Z" id="Shape" fill="#000000"></path>
        <path d="M17,26 C17.552,26 18,25.552 18,25 C18,24.448 17.552,24 17,24 L13,24 C12.448,24 12,24.448 12,25 L12,33 C12,33.552 12.448,34 13,34 L17,34 C17.552,34 18,33.552 18,33 C18,32.448 17.552,32 17,32 L14,32 L14,30 L15,30 C15.552,30 16,29.552 16,29 C16,28.448 15.552,28 15,28 L14,28 L14,26 L17,26 L17,26 Z" id="Shape" fill="#000000"></path>
        <path d="M39,20 L36,20 L36,10 C36,9.735 35.895,9.48 35.707,9.293 L26.707,0.293 C26.52,0.105 26.265,0 26,0 L5,0 C3.346,0 2,1.346 2,3 L2,41 C2,42.654 3.346,44 5,44 L33,44 C34.654,44 36,42.654 36,41 L36,38 L39,38 C39.552,38 40,37.552 40,37 L40,21 C40,20.448 39.552,20 39,20 L39,20 Z M33.586,10 L27,10 C26.449,10 26,9.551 26,9 L26,2.414 L33.586,10 L33.586,10 Z M34,41 C34,41.551 33.551,42 33,42 L5,42 C4.449,42 4,41.551 4,41 L4,3 C4,2.449 4.449,2 5,2 L24,2 L24,9 C24,10.654 25.346,12 27,12 L34,12 L34,20 L7,20 C6.448,20 6,20.448 6,21 L6,37 C6,37.552 6.448,38 7,38 L34,38 L34,41 L34,41 Z M38,36 L8,36 L8,22 L38,22 L38,36 L38,36 Z" id="Shape" fill="#000000"></path>
    </g>
</svg>