<?xml version="1.0" encoding="UTF-8" standalone="no"?>
<svg width="64px" height="64px" viewBox="0 0 64 64" version="1.1" xmlns="http://www.w3.org/2000/svg" xmlns:xlink="http://www.w3.org/1999/xlink">
    <!-- Generator: Sketch 3.7.2 (28276) - http://www.bohemiancoding.com/sketch -->
    <title>ext-key</title>
    <desc>Created with Sketch.</desc>
    <defs></defs>
    <g id="64px-Glyph" stroke="none" stroke-width="1" fill="none" fill-rule="evenodd">
        <g id="ext-key" fill="#000000">
            <path d="M38,16 C38,17.102 38.897,18 40,18 L50,18 C50,17.734 49.895,17.48 49.707,17.293 L38.707,6.293 C38.52,6.105 38.265,6 38,6 L38,16 Z" id="Fill-115"></path>
            <path d="M17,24.002 L25,24.002 C25.553,24.002 26,24.449 26,25.002 C26,25.555 25.553,26.002 25,26.002 L17,26.002 C16.447,26.002 16,25.555 16,25.002 C16,24.449 16.447,24.002 17,24.002 M17,20.002 L29,20.002 C29.553,20.002 30,20.449 30,21.002 C30,21.555 29.553,22.002 29,22.002 L17,22.002 C16.447,22.002 16,21.555 16,21.002 C16,20.449 16.447,20.002 17,20.002 M17,16.002 L29,16.002 C29.553,16.002 30,16.449 30,17.002 C30,17.555 29.553,18.002 29,18.002 L17,18.002 C16.447,18.002 16,17.555 16,17.002 C16,16.449 16.447,16.002 17,16.002 M17,12 L29,12 C29.553,12 30,12.447 30,13 C30,13.553 29.553,14 29,14 L17,14 C16.447,14 16,13.553 16,13 C16,12.447 16.447,12 17,12 M15,34 L50,34 L50,20 L40,20 C37.794,20 36,18.206 36,16 L36,6 L12,6 C9.794,6 8,7.794 8,10 L8,56 C8,58.206 9.794,60 12,60 L46,60 C48.206,60 50,58.206 50,56 L15,56 C13.343,56 12,54.657 12,53 L12,37 C12,35.343 13.343,34 15,34" id="Fill-117"></path>
            <path d="M45.8945,41.4473 L43.9995,45.2363 L43.9995,49.0003 C43.9995,49.5523 43.5525,50.0003 42.9995,50.0003 C42.4475,50.0003 41.9995,49.5523 41.9995,49.0003 L41.9995,45.2363 L40.1055,41.4473 C39.8585,40.9533 40.0585,40.3523 40.5525,40.1053 C41.0475,39.8593 41.6465,40.0583 41.8945,40.5523 L42.9995,42.7633 L44.1055,40.5523 C44.3535,40.0583 44.9535,39.8593 45.4475,40.1053 C45.9415,40.3523 46.1415,40.9533 45.8945,41.4473 L45.8945,41.4473 Z M34.9995,44.0003 C35.5525,44.0003 35.9995,44.4473 35.9995,45.0003 C35.9995,45.5523 35.5525,46.0003 34.9995,46.0003 L33.9995,46.0003 L33.9995,48.0003 L36.9995,48.0003 C37.5525,48.0003 37.9995,48.4473 37.9995,49.0003 C37.9995,49.5523 37.5525,50.0003 36.9995,50.0003 L32.9995,50.0003 C32.4475,50.0003 31.9995,49.5523 31.9995,49.0003 L31.9995,41.0003 C31.9995,40.4473 32.4475,40.0003 32.9995,40.0003 L36.9995,40.0003 C37.5525,40.0003 37.9995,40.4473 37.9995,41.0003 C37.9995,41.5523 37.5525,42.0003 36.9995,42.0003 L33.9995,42.0003 L33.9995,44.0003 L34.9995,44.0003 Z M29.7995,48.4003 C30.1315,48.8423 30.0415,49.4683 29.5995,49.7993 C29.4195,49.9343 29.2095,50.0003 29.0015,50.0003 C28.6965,50.0003 28.3965,49.8623 28.2005,49.5993 L25.9995,46.6663 L25.9995,49.0003 C25.9995,49.5523 25.5525,50.0003 24.9995,50.0003 C24.4475,50.0003 23.9995,49.5523 23.9995,49.0003 L23.9995,41.0003 C23.9995,40.4473 24.4475,40.0003 24.9995,40.0003 C25.5525,40.0003 25.9995,40.4473 25.9995,41.0003 L25.9995,43.3343 L28.2005,40.4003 C28.5315,39.9583 29.1595,39.8693 29.5995,40.2003 C30.0415,40.5313 30.1315,41.1583 29.7995,41.5993 L27.2495,45.0003 L29.7995,48.4003 Z M52.9995,36.0003 L14.9995,36.0003 C14.4475,36.0003 13.9995,36.4473 13.9995,37.0003 L13.9995,53.0003 C13.9995,53.5523 14.4475,54.0003 14.9995,54.0003 L52.9995,54.0003 C53.5525,54.0003 53.9995,53.5523 53.9995,53.0003 L53.9995,37.0003 C53.9995,36.4473 53.5525,36.0003 52.9995,36.0003 L52.9995,36.0003 Z" id="Fill-119"></path>
        </g>
    </g>
</svg>