<?xml version="1.0" encoding="UTF-8" standalone="no"?>
<svg width="64px" height="64px" viewBox="0 0 64 64" version="1.1" xmlns="http://www.w3.org/2000/svg" xmlns:xlink="http://www.w3.org/1999/xlink">
    <!-- Generator: Sketch 3.7.2 (28276) - http://www.bohemiancoding.com/sketch -->
    <title>ext-mov</title>
    <desc>Created with Sketch.</desc>
    <defs></defs>
    <g id="64px-Glyph" stroke="none" stroke-width="1" fill="none" fill-rule="evenodd">
        <g id="ext-mov" fill="#000000">
            <path d="M38,16 C38,17.103 38.897,18 40,18 L50,18 C50,17.734 49.895,17.48 49.707,17.293 L38.707,6.293 C38.52,6.105 38.265,6 38,6 L38,16 Z" id="Fill-255"></path>
            <path d="M46,45 C46,47.757 43.757,50 41,50 C40.448,50 40,49.553 40,49 L40,41 C40,40.447 40.448,40 41,40 C41.552,40 42,40.447 42,41 L42,47.816 C43.161,47.402 44,46.302 44,45 L44,41 C44,40.447 44.448,40 45,40 C45.552,40 46,40.447 46,41 L46,45 Z M38,47 C38,48.654 36.654,50 35,50 C33.346,50 32,48.654 32,47 L32,43 C32,41.346 33.346,40 35,40 C36.654,40 38,41.346 38,43 L38,47 Z M30,49 C30,49.553 29.552,50 29,50 C28.448,50 28,49.553 28,49 L28,43.999 L26.8,45.6 C26.778,45.629 26.743,45.641 26.718,45.667 C26.678,45.711 26.65,45.763 26.6,45.8 C26.565,45.826 26.525,45.837 26.488,45.858 C26.455,45.877 26.424,45.895 26.388,45.91 C26.263,45.964 26.133,46 26.001,46 L26,46 L25.999,46 C25.867,46 25.737,45.964 25.612,45.91 C25.576,45.895 25.545,45.877 25.512,45.858 C25.475,45.837 25.435,45.826 25.4,45.8 C25.35,45.763 25.322,45.711 25.282,45.667 C25.257,45.641 25.222,45.629 25.2,45.6 L24,43.999 L24,49 C24,49.553 23.552,50 23,50 C22.448,50 22,49.553 22,49 L22,41 C22,40.976 22.012,40.956 22.014,40.932 C22.018,40.862 22.035,40.798 22.054,40.731 C22.072,40.671 22.087,40.612 22.115,40.557 C22.142,40.502 22.179,40.455 22.217,40.405 C22.26,40.349 22.301,40.297 22.354,40.251 C22.372,40.236 22.381,40.215 22.4,40.2 C22.431,40.177 22.469,40.171 22.502,40.152 C22.563,40.116 22.623,40.085 22.691,40.062 C22.755,40.042 22.817,40.032 22.882,40.024 C22.922,40.019 22.958,40 23,40 C23.025,40 23.046,40.013 23.071,40.014 C23.139,40.019 23.201,40.035 23.267,40.054 C23.328,40.071 23.387,40.087 23.443,40.115 C23.498,40.142 23.545,40.179 23.594,40.217 C23.65,40.259 23.703,40.302 23.749,40.355 C23.764,40.373 23.786,40.382 23.8,40.4 L26,43.334 L28.2,40.4 C28.214,40.382 28.236,40.373 28.251,40.355 C28.297,40.301 28.35,40.259 28.407,40.216 C28.456,40.179 28.502,40.142 28.556,40.115 C28.613,40.087 28.672,40.071 28.734,40.054 C28.799,40.035 28.862,40.019 28.929,40.014 C28.954,40.013 28.975,40 29,40 C29.042,40 29.077,40.019 29.118,40.024 C29.184,40.031 29.246,40.042 29.309,40.062 C29.377,40.085 29.437,40.116 29.498,40.152 C29.531,40.171 29.569,40.177 29.6,40.2 C29.619,40.215 29.628,40.236 29.646,40.251 C29.699,40.297 29.74,40.349 29.783,40.405 C29.821,40.455 29.858,40.502 29.885,40.557 C29.913,40.612 29.928,40.67 29.946,40.731 C29.965,40.798 29.982,40.862 29.986,40.932 C29.988,40.956 30,40.976 30,41 L30,49 Z M53,36 L15,36 C14.448,36 14,36.447 14,37 L14,53 C14,53.553 14.448,54 15,54 L53,54 C53.552,54 54,53.553 54,53 L54,37 C54,36.447 53.552,36 53,36 L53,36 Z" id="Fill-256"></path>
            <path d="M35,42 C34.449,42 34,42.448 34,43 L34,47 C34,47.552 34.449,48 35,48 C35.551,48 36,47.552 36,47 L36,43 C36,42.448 35.551,42 35,42" id="Fill-257"></path>
            <polygon id="Fill-258" points="18 14.0039 18 26.0279 28.012 19.9699"></polygon>
            <path d="M16,13.9717 C16,13.2557 16.375,12.6167 17.003,12.2607 C17.634,11.9067 18.41,11.9167 19.029,12.2887 L29.044,18.3177 C29.643,18.6777 30,19.3067 30,19.9997 C30,20.6937 29.643,21.3227 29.044,21.6827 L19.028,27.7107 C18.71,27.9027 18.352,27.9987 17.992,27.9987 C17.651,27.9987 17.31,27.9117 17.003,27.7397 C16.375,27.3837 16,26.7437 16,26.0287 L16,13.9717 Z M15,33.9997 L50,33.9997 L50,19.9997 L40,19.9997 C37.794,19.9997 36,18.2057 36,15.9997 L36,5.9997 L12,5.9997 C9.794,5.9997 8,7.7937 8,9.9997 L8,55.9997 C8,58.2057 9.794,59.9997 12,59.9997 L46,59.9997 C48.206,59.9997 50,58.2057 50,55.9997 L15,55.9997 C13.343,55.9997 12,54.6567 12,52.9997 L12,36.9997 C12,35.3427 13.343,33.9997 15,33.9997 L15,33.9997 Z" id="Fill-259"></path>
        </g>
    </g>
</svg>