<?xml version="1.0" encoding="UTF-8" standalone="no"?>
<svg width="44px" height="44px" viewBox="0 0 44 44" version="1.1" xmlns="http://www.w3.org/2000/svg" xmlns:xlink="http://www.w3.org/1999/xlink">
    <!-- Generator: Sketch 3.7.2 (28276) - http://www.bohemiancoding.com/sketch -->
    <title>ext-avi</title>
    <desc>Created with Sketch.</desc>
    <defs></defs>
    <g id="44px-Line" stroke="none" stroke-width="1" fill="none" fill-rule="evenodd">
        <g id="ext-avi"></g>
        <path d="M33,26 C33.552,26 34,25.552 34,25 C34,24.448 33.552,24 33,24 L29,24 C28.448,24 28,24.448 28,25 C28,25.552 28.448,26 29,26 L30,26 L30,32 L29,32 C28.448,32 28,32.448 28,33 C28,33.552 28.448,34 29,34 L33,34 C33.552,34 34,33.552 34,33 C34,32.448 33.552,32 33,32 L32,32 L32,26 L33,26 L33,26 Z" id="Shape" fill="#000000"></path>
        <path d="M15,24 C13.346,24 12,25.346 12,27 L12,33 C12,33.552 12.448,34 13,34 C13.552,34 14,33.552 14,33 L14,30 L16,30 L16,33 C16,33.552 16.448,34 17,34 C17.552,34 18,33.552 18,33 L18,27 C18,25.346 16.654,24 15,24 L15,24 Z M14,28 L14,27 C14,26.449 14.449,26 15,26 C15.551,26 16,26.449 16,27 L16,28 L14,28 L14,28 Z" id="Shape" fill="#000000"></path>
        <path d="M39,20 L36,20 L36,10 C36,9.735 35.895,9.48 35.707,9.293 L26.707,0.293 C26.52,0.105 26.265,0 26,0 L5,0 C3.346,0 2,1.346 2,3 L2,41 C2,42.654 3.346,44 5,44 L33,44 C34.654,44 36,42.654 36,41 L36,38 L39,38 C39.552,38 40,37.552 40,37 L40,21 C40,20.448 39.552,20 39,20 L39,20 Z M33.586,10 L27,10 C26.449,10 26,9.551 26,9 L26,2.414 L33.586,10 L33.586,10 Z M34,41 C34,41.551 33.551,42 33,42 L5,42 C4.449,42 4,41.551 4,41 L4,3 C4,2.449 4.449,2 5,2 L24,2 L24,9 C24,10.654 25.346,12 27,12 L34,12 L34,20 L7,20 C6.448,20 6,20.448 6,21 L6,37 C6,37.552 6.448,38 7,38 L34,38 L34,41 L34,41 Z M38,36 L8,36 L8,22 L38,22 L38,36 L38,36 Z" id="Shape" fill="#000000"></path>
        <path d="M25,24 C24.448,24 24,24.448 24,25 L24,29 C24,30.302 23.161,31.402 22,31.816 L22,25 C22,24.448 21.552,24 21,24 C20.448,24 20,24.448 20,25 L20,33 C20,33.552 20.448,34 21,34 C23.757,34 26,31.757 26,29 L26,25 C26,24.448 25.552,24 25,24 L25,24 Z" id="Shape" fill="#000000"></path>
    </g>
</svg>