<?xml version="1.0" encoding="UTF-8" standalone="no"?>
<svg width="44px" height="44px" viewBox="0 0 44 44" version="1.1" xmlns="http://www.w3.org/2000/svg" xmlns:xlink="http://www.w3.org/1999/xlink">
    <!-- Generator: Sketch 3.7.2 (28276) - http://www.bohemiancoding.com/sketch -->
    <title>ext-csv</title>
    <desc>Created with Sketch.</desc>
    <defs></defs>
    <g id="44px-Line" stroke="none" stroke-width="1" fill="none" fill-rule="evenodd">
        <g id="ext-csv"></g>
        <path d="M23,26 C23.36,26 23.684,26.186 23.866,26.5 C23.953,26.649 24,26.822 24,27 C24,27.553 24.447,28 25,28 C25.553,28 26,27.553 26,27 C26,26.468 25.858,25.944 25.594,25.492 C25.06,24.572 24.065,24 23,24 C21.346,24 20,25.346 20,27 C20,27.803 20.312,28.558 20.881,29.124 C21.447,29.689 22.198,30 22.994,30 L23,30 C23.552,30 24,30.448 24,31 C24,31.552 23.552,32 23,32 C22.448,32 22,31.552 22,31 C22,30.447 21.553,30 21,30 C20.447,30 20,30.447 20,31 C20,32.654 21.346,34 23,34 C24.654,34 26,32.654 26,31 C26,29.346 24.654,28 22.998,28 L22.996,28 C22.731,28 22.482,27.896 22.294,27.709 C22.104,27.52 22,27.268 22,27 C22,26.448 22.448,26 23,26 L23,26 Z" id="Shape" fill="#000000"></path>
        <path d="M15,26 C15.552,26 16,26.448 16,27 C16,27.553 16.447,28 17,28 C17.553,28 18,27.553 18,27 C18,25.346 16.654,24 15,24 C13.346,24 12,25.346 12,27 L12,31 C12,32.654 13.346,34 15,34 C16.654,34 18,32.654 18,31 C18,30.447 17.553,30 17,30 C16.447,30 16,30.447 16,31 C16,31.552 15.552,32 15,32 C14.448,32 14,31.552 14,31 L14,27 C14,26.448 14.448,26 15,26 L15,26 Z" id="Shape" fill="#000000"></path>
        <path d="M39,20 L36,20 L36,10 C36,9.735 35.895,9.48 35.707,9.293 L26.707,0.293 C26.52,0.105 26.266,0 26,0 L5,0 C3.346,0 2,1.346 2,3 L2,41 C2,42.654 3.346,44 5,44 L33,44 C34.654,44 36,42.654 36,41 L36,38 L39,38 C39.553,38 40,37.553 40,37 L40,21 C40,20.448 39.553,20 39,20 L39,20 Z M33.586,10 L27,10 C26.448,10 26,9.551 26,9 L26,2.414 L33.586,10 L33.586,10 Z M34,41 C34,41.552 33.552,42 33,42 L5,42 C4.448,42 4,41.552 4,41 L4,3 C4,2.449 4.448,2 5,2 L24,2 L24,9 C24,10.654 25.346,12 27,12 L34,12 L34,20 L7,20 C6.447,20 6,20.448 6,21 L6,37 C6,37.553 6.447,38 7,38 L34,38 L34,41 L34,41 Z M38,36 L8,36 L8,22 L38,22 L38,36 L38,36 Z" id="Shape" fill="#000000"></path>
        <path d="M33,24 C32.447,24 32,24.447 32,25 L32,29 C32,30.302 31.161,31.402 30,31.816 L30,25 C30,24.447 29.553,24 29,24 C28.447,24 28,24.447 28,25 L28,33 C28,33.553 28.447,34 29,34 C31.757,34 34,31.757 34,29 L34,25 C34,24.447 33.553,24 33,24 L33,24 Z" id="Shape" fill="#000000"></path>
    </g>
</svg>