<?xml version="1.0" encoding="UTF-8" standalone="no"?>
<svg width="64px" height="64px" viewBox="0 0 64 64" version="1.1" xmlns="http://www.w3.org/2000/svg" xmlns:xlink="http://www.w3.org/1999/xlink">
    <!-- Generator: Sketch 3.7.2 (28276) - http://www.bohemiancoding.com/sketch -->
    <title>ext-tif</title>
    <desc>Created with Sketch.</desc>
    <defs></defs>
    <g id="64px-Line" stroke="none" stroke-width="1" fill="none" fill-rule="evenodd">
        <g id="ext-tif"></g>
        <path d="M12,60 L46,60 C48.206,60 50,58.206 50,56 L50,54 L51,54 C51.552,54 52,53.552 52,53 L52,37 C52,36.448 51.552,36 51,36 L50,36 L50,18 C50,17.735 49.895,17.48 49.707,17.293 L38.707,6.293 C38.52,6.105 38.265,6 38,6 L12,6 C9.794,6 8,7.794 8,10 L8,56 C8,58.206 9.794,60 12,60 L12,60 Z M50,52 L16,52 L16,38 L50,38 L50,52 L50,52 Z M47.586,18 L40,18 C38.897,18 38,17.103 38,16 L38,8.414 L47.586,18 L47.586,18 Z M10,10 C10,8.897 10.897,8 12,8 L36,8 L36,16 C36,18.206 37.794,20 40,20 L48,20 L48,36 L15,36 C14.448,36 14,36.448 14,37 L14,53 C14,53.552 14.448,54 15,54 L48,54 L48,56 C48,57.103 47.103,58 46,58 L12,58 C10.897,58 10,57.103 10,56 L10,10 L10,10 Z" id="Shape" fill="#000000"></path>
        <path d="M35,42.002 C35.552,42.002 36,41.554 36,41.002 C36,40.45 35.552,40.002 35,40.002 L33.01,40.002 C33.007,40.002 33.004,40 33,40 C32.996,40 32.994,40.002 32.99,40.002 L31,40.002 C30.448,40.002 30,40.45 30,41.002 C30,41.554 30.448,42.002 31,42.002 L32,42.002 L32,48.002 L31,48.002 C30.448,48.002 30,48.45 30,49.002 C30,49.554 30.448,50.002 31,50.002 L35,50.002 C35.552,50.002 36,49.554 36,49.002 C36,48.45 35.552,48.002 35,48.002 L34,48.002 L34,42.002 L35,42.002 L35,42.002 Z" id="Shape" fill="#000000"></path>
        <path d="M43,42 L43,40 L39,40.002 C38.448,40.002 38,40.45 38,41.002 L38,49.002 C38,49.554 38.448,50.002 39,50.002 C39.552,50.002 40,49.554 40,49.002 L40,46 L41,46 C41.552,46 42,45.552 42,45 C42,44.448 41.552,44 41,44 L40,44 L40,42 L43,42 L43,42 Z" id="Shape" fill="#000000"></path>
        <path d="M14.618,25.923 C14.74,25.973 14.87,26 15,26 L31,26 C31.552,26 32,25.552 32,25 L32,13 C32,12.448 31.552,12 31,12 L15,12 C14.448,12 14,12.448 14,13 L14,25 C14,25.13 14.027,25.26 14.077,25.382 C14.179,25.627 14.373,25.821 14.618,25.923 L14.618,25.923 Z M17.414,24 L20,21.414 L21.293,22.707 C21.684,23.098 22.316,23.098 22.707,22.707 L26,19.414 L30,23.414 L30,24 L17.414,24 L17.414,24 Z M30,14 L30,20.586 L26.707,17.293 C26.316,16.902 25.684,16.902 25.293,17.293 L22,20.586 L20.707,19.293 C20.316,18.902 19.684,18.902 19.293,19.293 L16,22.586 L16,14 L30,14 L30,14 Z" id="Shape" fill="#000000"></path>
        <path d="M27,40 L23,40 C22.448,40 22,40.448 22,41 C22,41.552 22.448,42 23,42 L24,42 L24,49 C24,49.552 24.448,50 25,50 C25.552,50 26,49.552 26,49 L26,42 L27,42 C27.552,42 28,41.552 28,41 C28,40.448 27.552,40 27,40 L27,40 Z" id="Shape" fill="#000000"></path>
    </g>
</svg>