<?xml version="1.0" encoding="UTF-8" standalone="no"?>
<svg width="64px" height="64px" viewBox="0 0 64 64" version="1.1" xmlns="http://www.w3.org/2000/svg" xmlns:xlink="http://www.w3.org/1999/xlink">
    <!-- Generator: Sketch 3.7.2 (28276) - http://www.bohemiancoding.com/sketch -->
    <title>ext-png</title>
    <desc>Created with Sketch.</desc>
    <defs></defs>
    <g id="64px-Line" stroke="none" stroke-width="1" fill="none" fill-rule="evenodd">
        <g id="ext-png"></g>
        <path d="M12,60 L46,60 C48.206,60 50,58.206 50,56 L50,54 L51,54 C51.552,54 52,53.552 52,53 L52,37 C52,36.448 51.552,36 51,36 L50,36 L50,18 C50,17.735 49.895,17.48 49.707,17.293 L38.707,6.293 C38.52,6.105 38.265,6 38,6 L12,6 C9.794,6 8,7.794 8,10 L8,56 C8,58.206 9.794,60 12,60 L12,60 Z M50,52 L16,52 L16,38 L50,38 L50,52 L50,52 Z M47.586,18 L40,18 C38.897,18 38,17.103 38,16 L38,8.414 L47.586,18 L47.586,18 Z M10,10 C10,8.897 10.897,8 12,8 L36,8 L36,16 C36,18.206 37.794,20 40,20 L48,20 L48,36 L15,36 C14.448,36 14,36.448 14,37 L14,53 C14,53.552 14.448,54 15,54 L48,54 L48,56 C48,57.103 47.103,58 46,58 L12,58 C10.897,58 10,57.103 10,56 L10,10 L10,10 Z" id="Shape" fill="#000000"></path>
        <path d="M41,42 L43,42 C43.552,42 44,41.552 44,41 C44,40.448 43.552,40 43,40 L41,40 C39.346,40 38,41.346 38,43 L38,47 C38,48.654 39.346,50 41,50 C42.654,50 44,48.654 44,47 L44,45 C44,44.448 43.552,44 43,44 L42,44 C41.448,44 41,44.448 41,45 C41,45.552 41.448,46 42,46 L42,47 C42,47.551 41.551,48 41,48 C40.449,48 40,47.551 40,47 L40,43 C40,42.449 40.449,42 41,42 L41,42 Z" id="Shape" fill="#000000"></path>
        <path d="M14.618,25.923 C14.74,25.973 14.87,26 15,26 L31,26 C31.552,26 32,25.552 32,25 L32,13 C32,12.448 31.552,12 31,12 L15,12 C14.448,12 14,12.448 14,13 L14,25 C14,25.13 14.027,25.26 14.077,25.382 C14.179,25.627 14.373,25.821 14.618,25.923 L14.618,25.923 Z M17.414,24 L20,21.414 L21.293,22.707 C21.684,23.098 22.316,23.098 22.707,22.707 L26,19.414 L30,23.414 L30,24 L17.414,24 L17.414,24 Z M30,14 L30,20.586 L26.707,17.293 C26.316,16.902 25.684,16.902 25.293,17.293 L22,20.586 L20.707,19.293 C20.316,18.902 19.684,18.902 19.293,19.293 L16,22.586 L16,14 L30,14 L30,14 Z" id="Shape" fill="#000000"></path>
        <path d="M35,40.002 C34.448,40.002 34,40.45 34,41.002 L34,44.766 L31.895,40.555 C31.872,40.509 31.833,40.479 31.804,40.438 C31.764,40.381 31.728,40.322 31.677,40.274 C31.627,40.227 31.569,40.197 31.511,40.162 C31.459,40.13 31.412,40.095 31.354,40.073 C31.284,40.046 31.21,40.039 31.135,40.029 C31.089,40.023 31.048,40.002 31.001,40.002 C30.991,40.002 30.982,40.008 30.972,40.008 C30.905,40.01 30.84,40.032 30.774,40.048 C30.709,40.064 30.644,40.072 30.585,40.099 C30.575,40.104 30.564,40.102 30.555,40.107 C30.509,40.13 30.48,40.169 30.44,40.197 C30.382,40.238 30.322,40.275 30.274,40.327 C30.229,40.375 30.2,40.432 30.166,40.487 C30.133,40.541 30.097,40.59 30.074,40.65 C30.048,40.718 30.042,40.79 30.031,40.862 C30.024,40.909 30.003,40.952 30.003,41.001 L30.003,49.001 C30.003,49.553 30.451,50.001 31.003,50.001 C31.555,50.001 32.003,49.553 32.003,49.001 L32.003,45.237 L34.108,49.448 C34.155,49.543 34.218,49.625 34.288,49.697 C34.301,49.711 34.318,49.72 34.332,49.733 C34.404,49.799 34.484,49.852 34.571,49.894 C34.6,49.908 34.628,49.92 34.658,49.932 C34.768,49.973 34.882,50.001 35,50.001 L35.002,50.001 L35.002,50.001 L35.003,50.001 C35.121,50.001 35.239,49.973 35.354,49.93 C35.373,49.923 35.392,49.918 35.41,49.91 C35.423,49.904 35.436,49.902 35.449,49.896 C35.495,49.873 35.524,49.834 35.564,49.806 C35.622,49.765 35.682,49.728 35.73,49.676 C35.775,49.628 35.804,49.571 35.838,49.516 C35.871,49.462 35.907,49.413 35.93,49.353 C35.956,49.285 35.962,49.213 35.973,49.141 C35.98,49.094 36.001,49.051 36.001,49.002 L36.001,41.002 C36,40.45 35.552,40.002 35,40.002 L35,40.002 Z" id="Shape" fill="#000000"></path>
        <path d="M25,40.002 L23,40.002 C22.448,40.002 22,40.45 22,41.002 L22,49.002 C22,49.554 22.448,50.002 23,50.002 C23.552,50.002 24,49.554 24,49.002 L24,46.002 L25,46.002 C26.654,46.002 28,44.656 28,43.002 C28,41.348 26.654,40.002 25,40.002 L25,40.002 Z M25,44.002 L24,44.002 L24,42.002 L25,42.002 C25.551,42.002 26,42.451 26,43.002 C26,43.553 25.551,44.002 25,44.002 L25,44.002 Z" id="Shape" fill="#000000"></path>
    </g>
</svg>