<?xml version="1.0" encoding="UTF-8" standalone="no"?>
<svg width="64px" height="64px" viewBox="0 0 64 64" version="1.1" xmlns="http://www.w3.org/2000/svg" xmlns:xlink="http://www.w3.org/1999/xlink">
    <!-- Generator: Sketch 3.7.2 (28276) - http://www.bohemiancoding.com/sketch -->
    <title>ext-tar</title>
    <desc>Created with Sketch.</desc>
    <defs></defs>
    <g id="64px-Line" stroke="none" stroke-width="1" fill="none" fill-rule="evenodd">
        <g id="ext-tar"></g>
        <path d="M53,36 L50,36 L50,18 C50,17.734 49.895,17.48 49.707,17.293 L38.707,6.293 C38.52,6.105 38.265,6 38,6 L12,6 C9.794,6 8,7.794 8,10 L8,56 C8,58.206 9.794,60 12,60 L46,60 C48.206,60 50,58.206 50,56 L50,54 L53,54 C53.552,54 54,53.553 54,53 L54,37 C54,36.447 53.552,36 53,36 L53,36 Z M47.586,18 L40,18 C38.897,18 38,17.103 38,16 L38,8.414 L47.586,18 L47.586,18 Z M48,56 C48,57.103 47.103,58 46,58 L12,58 C10.897,58 10,57.103 10,56 L10,10 C10,8.897 10.897,8 12,8 L36,8 L36,16 C36,18.206 37.794,20 40,20 L48,20 L48,36 L15,36 C14.448,36 14,36.447 14,37 L14,53 C14,53.553 14.448,54 15,54 L48,54 L48,56 L48,56 Z M52,52 L16,52 L16,38 L52,38 L52,52 L52,52 Z" id="Shape" fill="#000000"></path>
        <path d="M17,26 L22.99,26 C22.993,26 22.996,26.002 23,26.002 C23.004,26.002 23.006,26 23.01,26 L29,26 C29.552,26 30,25.553 30,25 L30,13 C30,12.447 29.552,12 29,12 L17,12 C16.448,12 16,12.447 16,13 L16,25 C16,25.553 16.448,26 17,26 L17,26 Z M28,20 L24,20 L24,18 L28,18 L28,20 L28,20 Z M22,20 L18,20 L18,18 L22,18 L22,20 L22,20 Z M18,22 L22,22 L22,24 L18,24 L18,22 L18,22 Z M24,24 L24,22 L28,22 L28,24 L24,24 L24,24 Z M28,16 L24,16 L24,14 L28,14 L28,16 L28,16 Z M22,14 L22,16 L18,16 L18,14 L22,14 L22,14 Z" id="Shape" fill="#000000"></path>
        <path d="M33,40 C31.346,40 30,41.346 30,43 L30,49 C30,49.553 30.448,50 31,50 C31.552,50 32,49.553 32,49 L32,46 L34,46 L34,49 C34,49.553 34.448,50 35,50 C35.552,50 36,49.553 36,49 L36,43 C36,41.346 34.654,40 33,40 L33,40 Z M32,44 L32,43 C32,42.448 32.449,42 33,42 C33.551,42 34,42.448 34,43 L34,44 L32,44 L32,44 Z" id="Shape" fill="#000000"></path>
        <path d="M27,40.002 L23,40.002 C22.448,40.002 22,40.449 22,41.002 C22,41.555 22.448,42.002 23,42.002 L24,42.002 L24,49.002 C24,49.555 24.448,50.002 25,50.002 C25.552,50.002 26,49.555 26,49.002 L26,42.002 L27,42.002 C27.552,42.002 28,41.555 28,41.002 C28,40.449 27.552,40.002 27,40.002 L27,40.002 Z" id="Shape" fill="#000000"></path>
        <path d="M44,43 C44,41.346 42.654,40 41,40 L39,40 C38.448,40 38,40.447 38,41 L38,49 C38,49.553 38.448,50 39,50 C39.552,50 40,49.553 40,49 L40,46 L40.382,46 L42.106,49.447 C42.281,49.798 42.634,50 43.002,50 C43.152,50 43.305,49.966 43.448,49.895 C43.942,49.648 44.142,49.047 43.895,48.553 L42.429,45.622 C43.36,45.112 44,44.134 44,43 L44,43 Z M41,44 L40,44 L40,42 L41,42 C41.551,42 42,42.448 42,43 C42,43.552 41.551,44 41,44 L41,44 Z" id="Shape" fill="#000000"></path>
    </g>
</svg>