<?xml version="1.0" encoding="UTF-8" standalone="no"?>
<svg width="44px" height="44px" viewBox="0 0 44 44" version="1.1" xmlns="http://www.w3.org/2000/svg" xmlns:xlink="http://www.w3.org/1999/xlink">
    <!-- Generator: Sketch 3.7.2 (28276) - http://www.bohemiancoding.com/sketch -->
    <title>ext-mp3</title>
    <desc>Created with Sketch.</desc>
    <defs></defs>
    <g id="44px-Line" stroke="none" stroke-width="1" fill="none" fill-rule="evenodd">
        <g id="ext-mp3"></g>
        <path d="M19.946,24.731 C19.929,24.671 19.913,24.612 19.886,24.557 C19.859,24.503 19.822,24.456 19.784,24.406 C19.741,24.349 19.699,24.297 19.645,24.25 C19.627,24.235 19.619,24.214 19.6,24.199 C19.569,24.176 19.531,24.17 19.498,24.151 C19.438,24.115 19.379,24.084 19.311,24.062 C19.246,24.04 19.182,24.03 19.115,24.022 C19.075,24.017 19.041,23.999 19,23.999 C18.975,23.999 18.955,24.011 18.931,24.013 C18.863,24.018 18.8,24.034 18.734,24.053 C18.672,24.07 18.613,24.086 18.557,24.115 C18.503,24.142 18.456,24.179 18.407,24.216 C18.351,24.259 18.298,24.301 18.252,24.354 C18.237,24.372 18.215,24.38 18.201,24.4 L16.001,27.334 L13.801,24.4 C13.787,24.381 13.765,24.372 13.75,24.354 C13.704,24.301 13.652,24.259 13.596,24.217 C13.546,24.179 13.499,24.142 13.444,24.115 C13.389,24.088 13.332,24.072 13.272,24.055 C13.204,24.036 13.139,24.019 13.068,24.014 C13.043,24.012 13.024,24 13,24 C12.961,24 12.927,24.018 12.889,24.022 C12.82,24.03 12.754,24.04 12.687,24.063 C12.621,24.085 12.562,24.116 12.503,24.151 C12.47,24.171 12.432,24.176 12.4,24.2 C12.381,24.214 12.372,24.235 12.355,24.251 C12.301,24.297 12.259,24.35 12.216,24.407 C12.179,24.457 12.142,24.503 12.114,24.558 C12.086,24.613 12.071,24.671 12.054,24.732 C12.035,24.799 12.018,24.864 12.013,24.934 C12.012,24.956 12,24.976 12,25 L12,33 C12,33.552 12.447,34 13,34 C13.553,34 14,33.552 14,33 L14,28 L15.2,29.6 C15.223,29.631 15.258,29.642 15.284,29.67 C15.324,29.713 15.352,29.764 15.4,29.8 C15.434,29.826 15.474,29.837 15.511,29.858 C15.545,29.877 15.576,29.895 15.611,29.91 C15.736,29.964 15.866,30 15.999,30 L16,30 L16.001,30 C16.134,30 16.264,29.964 16.389,29.91 C16.424,29.895 16.455,29.877 16.489,29.858 C16.525,29.837 16.565,29.826 16.6,29.8 C16.649,29.764 16.676,29.713 16.716,29.67 C16.742,29.643 16.777,29.631 16.8,29.6 L18,28 L18,33 C18,33.552 18.447,34 19,34 C19.553,34 20,33.552 20,33 L20,25 C20,24.976 19.988,24.956 19.986,24.932 C19.982,24.863 19.965,24.798 19.946,24.731 L19.946,24.731 Z" id="Shape" fill="#000000"></path>
        <path d="M41,20 L36,20 L36,10 C36,9.735 35.895,9.48 35.707,9.293 L26.707,0.293 C26.52,0.105 26.266,0 26,0 L5,0 C3.346,0 2,1.346 2,3 L2,41 C2,42.654 3.346,44 5,44 L33,44 C34.654,44 36,42.654 36,41 L36,38 L41,38 C41.553,38 42,37.552 42,37 L42,21 C42,20.448 41.553,20 41,20 L41,20 Z M33.586,10 L27,10 C26.448,10 26,9.551 26,9 L26,2.414 L33.586,10 L33.586,10 Z M34,41 C34,41.551 33.552,42 33,42 L5,42 C4.448,42 4,41.551 4,41 L4,3 C4,2.449 4.448,2 5,2 L24,2 L24,9 C24,10.654 25.346,12 27,12 L34,12 L34,20 L7,20 C6.447,20 6,20.448 6,21 L6,37 C6,37.552 6.447,38 7,38 L34,38 L34,41 L34,41 Z M40,36 L8,36 L8,22 L40,22 L40,36 L40,36 Z" id="Shape" fill="#000000"></path>
        <path d="M25,24 L23,24 C22.447,24 22,24.448 22,25 L22,33 C22,33.552 22.447,34 23,34 C23.553,34 24,33.552 24,33 L24,30 L25,30 C26.654,30 28,28.654 28,27 C28,25.346 26.654,24 25,24 L25,24 Z M25,28 L24,28 L24,26 L25,26 C25.552,26 26,26.449 26,27 C26,27.551 25.552,28 25,28 L25,28 Z" id="Shape" fill="#000000"></path>
        <path d="M30,27.002 C30,27.554 30.447,28.002 31,28.002 C31.553,28.002 32,27.554 32,27.002 C32,26.451 32.448,26.002 33,26.002 C33.552,26.002 34,26.451 34,27.002 C34,27.551 33.555,27.997 33.006,28.001 C33.004,28.001 33.002,28 33,28 C32.447,28 32,28.448 32,29 L32,29.001 L32,29.002 C32,29.554 32.447,30.002 33,30.002 C33.002,30.002 33.004,30.001 33.006,30.001 C33.555,30.005 34,30.451 34,31 C34,31.551 33.552,32 33,32 C32.448,32 32,31.551 32,31 C32,30.448 31.553,30 31,30 C30.447,30 30,30.448 30,31 C30,32.654 31.346,34 33,34 C34.654,34 36,32.654 36,31 C36,30.229 35.7,29.533 35.221,29.001 C35.7,28.469 36,27.773 36,27.002 C36,25.348 34.654,24.002 33,24.002 C31.346,24.002 30,25.348 30,27.002 L30,27.002 Z" id="Shape" fill="#000000"></path>
    </g>
</svg>