<?xml version="1.0" encoding="UTF-8" standalone="no"?>
<svg width="64px" height="64px" viewBox="0 0 64 64" version="1.1" xmlns="http://www.w3.org/2000/svg" xmlns:xlink="http://www.w3.org/1999/xlink">
    <!-- Generator: Sketch 3.7.2 (28276) - http://www.bohemiancoding.com/sketch -->
    <title>ext-psd</title>
    <desc>Created with Sketch.</desc>
    <defs></defs>
    <g id="64px-Line" stroke="none" stroke-width="1" fill="none" fill-rule="evenodd">
        <g id="ext-psd"></g>
        <path d="M12,60 L46,60 C48.206,60 50,58.206 50,56 L50,54 L51,54 C51.552,54 52,53.552 52,53 L52,37 C52,36.448 51.552,36 51,36 L50,36 L50,18 C50,17.735 49.895,17.48 49.707,17.293 L38.707,6.293 C38.52,6.105 38.265,6 38,6 L12,6 C9.794,6 8,7.794 8,10 L8,56 C8,58.206 9.794,60 12,60 L12,60 Z M50,52 L16,52 L16,38 L50,38 L50,52 L50,52 Z M47.586,18 L40,18 C38.897,18 38,17.103 38,16 L38,8.414 L47.586,18 L47.586,18 Z M10,10 C10,8.897 10.897,8 12,8 L36,8 L36,16 C36,18.206 37.794,20 40,20 L48,20 L48,36 L15,36 C14.448,36 14,36.448 14,37 L14,53 C14,53.552 14.448,54 15,54 L48,54 L48,56 C48,57.103 47.103,58 46,58 L12,58 C10.897,58 10,57.103 10,56 L10,10 L10,10 Z" id="Shape" fill="#000000"></path>
        <path d="M14.618,25.923 C14.74,25.973 14.87,26 15,26 L31,26 C31.552,26 32,25.552 32,25 L32,13 C32,12.448 31.552,12 31,12 L15,12 C14.448,12 14,12.448 14,13 L14,25 C14,25.13 14.027,25.26 14.077,25.382 C14.179,25.627 14.373,25.821 14.618,25.923 L14.618,25.923 Z M17.414,24 L20,21.414 L21.293,22.707 C21.684,23.098 22.316,23.098 22.707,22.707 L26,19.414 L30,23.414 L30,24 L17.414,24 L17.414,24 Z M30,14 L30,20.586 L26.707,17.293 C26.316,16.902 25.684,16.902 25.293,17.293 L22,20.586 L20.707,19.293 C20.316,18.902 19.684,18.902 19.293,19.293 L16,22.586 L16,14 L30,14 L30,14 Z" id="Shape" fill="#000000"></path>
        <path d="M25,40 L23,40 C22.448,40 22,40.448 22,41 L22,49 C22,49.552 22.448,50 23,50 C23.552,50 24,49.552 24,49 L24,46 L25,46 C26.654,46 28,44.654 28,43 C28,41.346 26.654,40 25,40 L25,40 Z M25,44 L24,44 L24,42 L25,42 C25.551,42 26,42.449 26,43 C26,43.551 25.551,44 25,44 L25,44 Z" id="Shape" fill="#000000"></path>
        <path d="M41,40 L39,40 C38.448,40 38,40.448 38,41 L38,49 C38,49.552 38.448,50 39,50 L41,50 C42.654,50 44,48.654 44,47 L44,43 C44,41.346 42.654,40 41,40 L41,40 Z M42,47 C42,47.551 41.551,48 41,48 L40,48 L40,42 L41,42 C41.551,42 42,42.449 42,43 L42,47 L42,47 Z" id="Shape" fill="#000000"></path>
        <path d="M33,42.002 C33.36,42.002 33.684,42.188 33.866,42.5 C33.955,42.653 34,42.822 34,43.002 C34,43.554 34.448,44.002 35,44.002 C35.552,44.002 36,43.554 36,43.002 C36,42.469 35.859,41.947 35.593,41.492 C35.057,40.573 34.064,40.002 33,40.002 C31.346,40.002 30,41.348 30,43.002 C30,43.804 30.312,44.558 30.88,45.125 C31.446,45.689 32.197,46 32.994,46 L32.999,46 C33.55,46 33.999,46.449 33.999,47 C33.999,47.551 33.55,48 32.999,48 C32.448,48 31.999,47.551 31.999,47 C31.999,46.448 31.551,46 30.999,46 C30.447,46 29.999,46.448 29.999,47 C29.999,48.654 31.345,50 32.999,50 C34.653,50 35.999,48.654 35.999,47 C35.999,45.346 34.653,44 32.997,44 L32.996,44 C32.73,44 32.481,43.896 32.293,43.709 C32.104,43.52 32,43.269 32,43.002 C32,42.451 32.449,42.002 33,42.002 L33,42.002 Z" id="Shape" fill="#000000"></path>
    </g>
</svg>