<?xml version="1.0" encoding="UTF-8" standalone="no"?>
<svg width="64px" height="64px" viewBox="0 0 64 64" version="1.1" xmlns="http://www.w3.org/2000/svg" xmlns:xlink="http://www.w3.org/1999/xlink">
    <!-- Generator: Sketch 3.7.2 (28276) - http://www.bohemiancoding.com/sketch -->
    <title>ext-db</title>
    <desc>Created with Sketch.</desc>
    <defs></defs>
    <g id="64px-Line" stroke="none" stroke-width="1" fill="none" fill-rule="evenodd">
        <g id="ext-db"></g>
        <path d="M53,36 L50,36 L50,18 C50,17.735 49.895,17.48 49.707,17.293 L38.707,6.293 C38.52,6.105 38.266,6 38,6 L12,6 C9.794,6 8,7.794 8,10 L8,56 C8,58.206 9.794,60 12,60 L46,60 C48.206,60 50,58.206 50,56 L50,54 L53,54 C53.553,54 54,53.553 54,53 L54,37 C54,36.447 53.553,36 53,36 L53,36 Z M47.586,18 L40,18 C38.897,18 38,17.103 38,16 L38,8.414 L47.586,18 L47.586,18 Z M48,56 C48,57.103 47.103,58 46,58 L12,58 C10.897,58 10,57.103 10,56 L10,10 C10,8.897 10.897,8 12,8 L36,8 L36,16 C36,18.206 37.794,20 40,20 L48,20 L48,36 L15,36 C14.447,36 14,36.447 14,37 L14,53 C14,53.553 14.447,54 15,54 L48,54 L48,56 L48,56 Z M52,52 L16,52 L16,38 L52,38 L52,52 L52,52 Z" id="Shape" fill="#000000"></path>
        <path d="M17,26 L22.99,26 C22.993,26 22.996,26.002 23,26.002 C23.004,26.002 23.006,26 23.01,26 L29,26 C29.553,26 30,25.552 30,25 L30,13 C30,12.448 29.553,12 29,12 L17,12 C16.447,12 16,12.448 16,13 L16,25 C16,25.552 16.447,26 17,26 L17,26 Z M28,20 L24,20 L24,18 L28,18 L28,20 L28,20 Z M22,20 L18,20 L18,18 L22,18 L22,20 L22,20 Z M18,22 L22,22 L22,24 L18,24 L18,22 L18,22 Z M24,24 L24,22 L28,22 L28,24 L24,24 L24,24 Z M28,16 L24,16 L24,14 L28,14 L28,16 L28,16 Z M22,14 L22,16 L18,16 L18,14 L22,14 L22,14 Z" id="Shape" fill="#000000"></path>
        <path d="M29,40.002 L27,40.002 C26.447,40.002 26,40.449 26,41.002 L26,49.002 C26,49.555 26.447,50.002 27,50.002 L29,50.002 C30.654,50.002 32,48.656 32,47.002 L32,43.002 C32,41.348 30.654,40.002 29,40.002 L29,40.002 Z M29,48.002 L28,48.002 L28,42.002 L29,42.002 C29.552,42.002 30,42.45 30,43.002 L30,47.002 C30,47.554 29.552,48.002 29,48.002 L29,48.002 Z" id="Shape" fill="#000000"></path>
        <path d="M37,40.002 L35,40.002 C34.447,40.002 34,40.449 34,41.002 L34,49.002 C34,49.555 34.447,50.002 35,50.002 L37,50.002 C37.007,50.002 37.013,49.998 37.019,49.998 C38.664,49.987 40,48.648 40,47 C40,46.229 39.7,45.533 39.221,45.001 C39.7,44.469 40,43.773 40,43.002 C40,41.348 38.654,40.002 37,40.002 L37,40.002 Z M37,44 C36.997,44 36.994,44.002 36.99,44.002 L36,44.002 L36,42.002 L37,42.002 C37.552,42.002 38,42.45 38,43.002 C38,43.552 37.555,43.997 37.006,44.001 C37.004,44.001 37.002,44 37,44 L37,44 Z M37,48 C36.997,48 36.994,48.002 36.99,48.002 L36,48.002 L36,46.002 L37,46.002 C37.002,46.002 37.004,46.001 37.006,46.001 C37.555,46.005 38,46.45 38,47 C38,47.552 37.552,48 37,48 L37,48 Z" id="Shape" fill="#000000"></path>
    </g>
</svg>