<?xml version="1.0" encoding="UTF-8" standalone="no"?>
<svg width="64px" height="64px" viewBox="0 0 64 64" version="1.1" xmlns="http://www.w3.org/2000/svg" xmlns:xlink="http://www.w3.org/1999/xlink">
    <!-- Generator: Sketch 3.7.2 (28276) - http://www.bohemiancoding.com/sketch -->
    <title>ext-svg</title>
    <desc>Created with Sketch.</desc>
    <defs></defs>
    <g id="64px-Line" stroke="none" stroke-width="1" fill="none" fill-rule="evenodd">
        <g id="ext-svg"></g>
        <path d="M12,60 L46,60 C48.206,60 50,58.206 50,56 L50,54 L51,54 C51.553,54 52,53.552 52,53 L52,37 C52,36.448 51.553,36 51,36 L50,36 L50,18 C50,17.735 49.895,17.48 49.707,17.293 L38.707,6.293 C38.52,6.105 38.266,6 38,6 L12,6 C9.794,6 8,7.794 8,10 L8,56 C8,58.206 9.794,60 12,60 L12,60 Z M50,52 L16,52 L16,38 L50,38 L50,52 L50,52 Z M47.586,18 L40,18 C38.897,18 38,17.103 38,16 L38,8.414 L47.586,18 L47.586,18 Z M10,10 C10,8.897 10.897,8 12,8 L36,8 L36,16 C36,18.206 37.794,20 40,20 L48,20 L48,36 L15,36 C14.447,36 14,36.448 14,37 L14,53 C14,53.552 14.447,54 15,54 L48,54 L48,56 C48,57.103 47.103,58 46,58 L12,58 C10.897,58 10,57.103 10,56 L10,10 L10,10 Z" id="Shape" fill="#000000"></path>
        <path d="M14.618,25.923 C14.74,25.973 14.87,26 15,26 L31,26 C31.553,26 32,25.552 32,25 L32,13 C32,12.448 31.553,12 31,12 L15,12 C14.447,12 14,12.448 14,13 L14,25 C14,25.13 14.027,25.26 14.077,25.382 C14.178,25.627 14.373,25.822 14.618,25.923 L14.618,25.923 Z M17.414,24 L20,21.414 L21.293,22.707 C21.684,23.098 22.316,23.098 22.707,22.707 L26,19.414 L30,23.414 L30,24 L17.414,24 L17.414,24 Z M30,14 L30,20.586 L26.707,17.293 C26.316,16.902 25.684,16.902 25.293,17.293 L22,20.586 L20.707,19.293 C20.316,18.902 19.684,18.902 19.293,19.293 L16,22.586 L16,14 L30,14 L30,14 Z" id="Shape" fill="#000000"></path>
        <path d="M25,42.002 C25.355,42.002 25.687,42.192 25.866,42.501 C25.955,42.653 26,42.821 26,43.002 C26,43.554 26.447,44.002 27,44.002 C27.553,44.002 28,43.554 28,43.002 C28,42.469 27.858,41.946 27.593,41.493 C27.059,40.574 26.066,40.002 25,40.002 C23.346,40.002 22,41.348 22,43.002 C22,43.804 22.312,44.558 22.88,45.125 C23.446,45.689 24.197,46 24.994,46 L25,46 C25.552,46 26,46.449 26,47 C26,47.551 25.552,48 25,48 C24.448,48 24,47.551 24,47 C24,46.448 23.553,46 23,46 C22.447,46 22,46.448 22,47 C22,48.654 23.346,50 25,50 C26.654,50 28,48.654 28,47 C28,45.346 26.654,44 24.998,44 L24.996,44 C24.731,44 24.481,43.896 24.293,43.709 C24.105,43.52 24,43.269 24,43.002 C24,42.451 24.448,42.002 25,42.002 L25,42.002 Z" id="Shape" fill="#000000"></path>
        <path d="M35,40.002 C34.447,40.002 34,40.45 34,41.002 L34,45.002 C34,46.306 33.164,47.418 32,47.831 L32,41.002 C32,40.45 31.553,40.002 31,40.002 C30.447,40.002 30,40.45 30,41.002 L30,49.002 C30,49.554 30.447,50.002 31,50.002 C33.757,50.002 36,47.759 36,45.002 L36,41.002 C36,40.45 35.553,40.002 35,40.002 L35,40.002 Z" id="Shape" fill="#000000"></path>
        <path d="M41,42 L43,42 C43.553,42 44,41.552 44,41 C44,40.448 43.553,40 43,40 L41,40 C39.346,40 38,41.346 38,43 L38,47 C38,48.654 39.346,50 41,50 C42.654,50 44,48.654 44,47 L44,45 C44,44.448 43.553,44 43,44 L42,44 C41.447,44 41,44.448 41,45 C41,45.552 41.447,46 42,46 L42,47 C42,47.551 41.552,48 41,48 C40.448,48 40,47.551 40,47 L40,43 C40,42.449 40.448,42 41,42 L41,42 Z" id="Shape" fill="#000000"></path>
    </g>
</svg>