<?xml version="1.0" encoding="UTF-8" standalone="no"?>
<svg width="64px" height="64px" viewBox="0 0 64 64" version="1.1" xmlns="http://www.w3.org/2000/svg" xmlns:xlink="http://www.w3.org/1999/xlink">
    <!-- Generator: Sketch 3.7.2 (28276) - http://www.bohemiancoding.com/sketch -->
    <title>ext-pdf</title>
    <desc>Created with Sketch.</desc>
    <defs></defs>
    <g id="64px-Line" stroke="none" stroke-width="1" fill="none" fill-rule="evenodd">
        <g id="ext-pdf"></g>
        <path d="M53,36 L50,36 L50,18 C50,17.734 49.895,17.48 49.707,17.293 L38.707,6.293 C38.52,6.105 38.265,6 38,6 L12,6 C9.794,6 8,7.794 8,10 L8,56 C8,58.206 9.794,60 12,60 L46,60 C48.206,60 50,58.206 50,56 L50,54 L53,54 C53.552,54 54,53.553 54,53 L54,37 C54,36.447 53.552,36 53,36 L53,36 Z M47.586,18 L40,18 C38.897,18 38,17.103 38,16 L38,8.414 L47.586,18 L47.586,18 Z M48,56 C48,57.103 47.103,58 46,58 L12,58 C10.897,58 10,57.103 10,56 L10,10 C10,8.897 10.897,8 12,8 L36,8 L36,16 C36,18.206 37.794,20 40,20 L48,20 L48,36 L15,36 C14.448,36 14,36.447 14,37 L14,53 C14,53.553 14.448,54 15,54 L48,54 L48,56 L48,56 Z M52,52 L16,52 L16,38 L52,38 L52,52 L52,52 Z" id="Shape" fill="#000000"></path>
        <path d="M23,30 C27.962,30 32,25.963 32,21 C32,16.037 27.962,12 23,12 C18.038,12 14,16.037 14,21 C14,25.963 18.038,30 23,30 L23,30 Z M29.92,20 L24,20 L24,14.08 C27.059,14.521 29.479,16.941 29.92,20 L29.92,20 Z M22,14.08 L22,21 C22,21.553 22.448,22 23,22 L29.92,22 C29.432,25.386 26.519,28 23,28 C19.14,28 16,24.859 16,21 C16,17.481 18.613,14.568 22,14.08 L22,14.08 Z" id="Shape" fill="#000000"></path>
        <path d="M25,40 L23,40 C22.448,40 22,40.447 22,41 L22,49 C22,49.553 22.448,50 23,50 C23.552,50 24,49.553 24,49 L24,46 L25,46 C26.654,46 28,44.654 28,43 C28,41.346 26.654,40 25,40 L25,40 Z M25,44 L24,44 L24,42 L25,42 C25.551,42 26,42.448 26,43 C26,43.552 25.551,44 25,44 L25,44 Z" id="Shape" fill="#000000"></path>
        <path d="M33,40 L31,40 C30.448,40 30,40.447 30,41 L30,49 C30,49.553 30.448,50 31,50 L33,50 C34.654,50 36,48.654 36,47 L36,43 C36,41.346 34.654,40 33,40 L33,40 Z M34,47 C34,47.552 33.551,48 33,48 L32,48 L32,42 L33,42 C33.551,42 34,42.448 34,43 L34,47 L34,47 Z" id="Shape" fill="#000000"></path>
        <path d="M43,40 L39,40 C38.448,40 38,40.447 38,41 L38,49 C38,49.553 38.448,50 39,50 C39.552,50 40,49.553 40,49 L40,46 L41,46 C41.552,46 42,45.553 42,45 C42,44.447 41.552,44 41,44 L40,44 L40,42 L43,42 C43.552,42 44,41.553 44,41 C44,40.447 43.552,40 43,40 L43,40 Z" id="Shape" fill="#000000"></path>
    </g>
</svg>