<?xml version="1.0" encoding="UTF-8" standalone="no"?>
<svg width="44px" height="44px" viewBox="0 0 44 44" version="1.1" xmlns="http://www.w3.org/2000/svg" xmlns:xlink="http://www.w3.org/1999/xlink">
    <!-- Generator: Sketch 3.7.2 (28276) - http://www.bohemiancoding.com/sketch -->
    <title>ext-exe</title>
    <desc>Created with Sketch.</desc>
    <defs></defs>
    <g id="44px-Line" stroke="none" stroke-width="1" fill="none" fill-rule="evenodd">
        <g id="ext-exe"></g>
        <path d="M5,44 L33,44 C34.654,44 36,42.654 36,41 L36,38 L39,38 C39.553,38 40,37.553 40,37 L40,21 C40,20.448 39.553,20 39,20 L36,20 L36,10 C36,9.735 35.895,9.48 35.707,9.293 L26.707,0.293 C26.52,0.105 26.266,0 26,0 L5,0 C3.346,0 2,1.346 2,3 L2,41 C2,42.654 3.346,44 5,44 L5,44 Z M38,36 L8,36 L8,22 L38,22 L38,36 L38,36 Z M33.586,10 L27,10 C26.448,10 26,9.551 26,9 L26,2.414 L33.586,10 L33.586,10 Z M4,3 C4,2.449 4.448,2 5,2 L24,2 L24,9 C24,10.654 25.346,12 27,12 L34,12 L34,20 L7,20 C6.447,20 6,20.448 6,21 L6,37 C6,37.553 6.447,38 7,38 L34,38 L34,41 C34,41.552 33.552,42 33,42 L5,42 C4.448,42 4,41.552 4,41 L4,3 L4,3 Z" id="Shape" fill="#000000"></path>
        <path d="M17,26 C17.553,26 18,25.553 18,25 C18,24.447 17.553,24 17,24 L13,24 C12.447,24 12,24.447 12,25 L12,33 C12,33.553 12.447,34 13,34 L17,34 C17.553,34 18,33.553 18,33 C18,32.447 17.553,32 17,32 L14,32 L14,30 L15,30 C15.553,30 16,29.553 16,29 C16,28.447 15.553,28 15,28 L14,28 L14,26 L17,26 L17,26 Z" id="Shape" fill="#000000"></path>
        <path d="M25.447,24.105 C24.953,23.86 24.353,24.058 24.105,24.552 L23,26.764 L21.895,24.553 C21.647,24.059 21.046,23.861 20.553,24.106 C20.059,24.353 19.859,24.954 20.106,25.448 L21.882,29.001 L20.106,32.554 C19.859,33.048 20.059,33.649 20.553,33.896 C20.697,33.967 20.849,34.001 20.999,34.001 C21.366,34.001 21.719,33.799 21.895,33.448 L23,31.237 L24.105,33.448 C24.281,33.799 24.633,34.001 25.001,34.001 C25.151,34.001 25.304,33.967 25.447,33.896 C25.941,33.649 26.141,33.048 25.894,32.554 L24.118,29 L25.894,25.447 C26.142,24.953 25.941,24.353 25.447,24.105 L25.447,24.105 Z" id="Shape" fill="#000000"></path>
        <path d="M33,26 C33.553,26 34,25.553 34,25 C34,24.447 33.553,24 33,24 L29,24 C28.447,24 28,24.447 28,25 L28,33 C28,33.553 28.447,34 29,34 L33,34 C33.553,34 34,33.553 34,33 C34,32.447 33.553,32 33,32 L30,32 L30,30 L31,30 C31.553,30 32,29.553 32,29 C32,28.447 31.553,28 31,28 L30,28 L30,26 L33,26 L33,26 Z" id="Shape" fill="#000000"></path>
    </g>
</svg>