<?xml version="1.0" encoding="UTF-8" standalone="no"?>
<svg width="44px" height="44px" viewBox="0 0 44 44" version="1.1" xmlns="http://www.w3.org/2000/svg" xmlns:xlink="http://www.w3.org/1999/xlink">
    <!-- Generator: Sketch 3.7.2 (28276) - http://www.bohemiancoding.com/sketch -->
    <title>ext-aac</title>
    <desc>Created with Sketch.</desc>
    <defs></defs>
    <g id="44px-Line" stroke="none" stroke-width="1" fill="none" fill-rule="evenodd">
        <g id="ext-aac"></g>
        <path d="M15,24 C13.346,24 12,25.346 12,27 L12,33 C12,33.552 12.447,34 13,34 C13.553,34 14,33.552 14,33 L14,30 L16,30 L16,33 C16,33.552 16.447,34 17,34 C17.553,34 18,33.552 18,33 L18,27 C18,25.346 16.654,24 15,24 L15,24 Z M14,28 L14,27 C14,26.449 14.448,26 15,26 C15.552,26 16,26.449 16,27 L16,28 L14,28 L14,28 Z" id="Shape" fill="#000000"></path>
        <path d="M39,20 L36,20 L36,10 C36,9.735 35.895,9.48 35.707,9.293 L26.707,0.293 C26.52,0.105 26.266,0 26,0 L5,0 C3.346,0 2,1.346 2,3 L2,41 C2,42.654 3.346,44 5,44 L33,44 C34.654,44 36,42.654 36,41 L36,38 L39,38 C39.553,38 40,37.552 40,37 L40,21 C40,20.448 39.553,20 39,20 L39,20 Z M33.586,10 L27,10 C26.448,10 26,9.551 26,9 L26,2.414 L33.586,10 L33.586,10 Z M34,41 C34,41.551 33.552,42 33,42 L5,42 C4.448,42 4,41.551 4,41 L4,3 C4,2.449 4.448,2 5,2 L24,2 L24,9 C24,10.654 25.346,12 27,12 L34,12 L34,20 L7,20 C6.447,20 6,20.448 6,21 L6,37 C6,37.552 6.447,38 7,38 L34,38 L34,41 L34,41 Z M38,36 L8,36 L8,22 L38,22 L38,36 L38,36 Z" id="Shape" fill="#000000"></path>
        <path d="M23,24 C21.346,24 20,25.346 20,27 L20,33 C20,33.552 20.447,34 21,34 C21.553,34 22,33.552 22,33 L22,30 L24,30 L24,33 C24,33.552 24.447,34 25,34 C25.553,34 26,33.552 26,33 L26,27 C26,25.346 24.654,24 23,24 L23,24 Z M22,28 L22,27 C22,26.449 22.448,26 23,26 C23.552,26 24,26.449 24,27 L24,28 L22,28 L22,28 Z" id="Shape" fill="#000000"></path>
        <path d="M31,26 C31.552,26 32,26.449 32,27 C32,27.552 32.447,28 33,28 C33.553,28 34,27.552 34,27 C34,25.346 32.654,24 31,24 C29.346,24 28,25.346 28,27 L28,31 C28,32.654 29.346,34 31,34 C32.654,34 34,32.654 34,31 C34,30.448 33.553,30 33,30 C32.447,30 32,30.448 32,31 C32,31.551 31.552,32 31,32 C30.448,32 30,31.551 30,31 L30,27 C30,26.449 30.448,26 31,26 L31,26 Z" id="Shape" fill="#000000"></path>
    </g>
</svg>