<?xml version="1.0" encoding="UTF-8" standalone="no"?>
<svg width="44px" height="44px" viewBox="0 0 44 44" version="1.1" xmlns="http://www.w3.org/2000/svg" xmlns:xlink="http://www.w3.org/1999/xlink">
    <!-- Generator: Sketch 3.7.2 (28276) - http://www.bohemiancoding.com/sketch -->
    <title>ext-xml</title>
    <desc>Created with Sketch.</desc>
    <defs></defs>
    <g id="44px-Glyph" stroke="none" stroke-width="1" fill="none" fill-rule="evenodd">
        <g id="ext-xml" fill="#000000">
            <path d="M26,9 C26,9.552 26.449,10 27,10 L36,10 C36,9.734 35.895,9.48 35.707,9.293 L26.707,0.293 C26.52,0.105 26.265,0 26,0 L26,9 Z" id="Fill-121"></path>
            <path d="M7,40 C5.346,40 4,38.654 4,37 L4,21 C4,19.346 5.346,18 7,18 L36,18 L36,12 L27,12 C25.346,12 24,10.654 24,9 L24,0 L5,0 C3.346,0 2,1.346 2,3 L2,41 C2,42.654 3.346,44 5,44 L33,44 C34.654,44 35.999,42.655 36,41.002 L36,41 L36,40 L7,40 Z" id="Fill-123"></path>
            <path d="M35,34 L31,34 C30.448,34 30,33.553 30,33 L30,25 C30,24.447 30.448,24 31,24 C31.552,24 32,24.447 32,25 L32,32 L35,32 C35.552,32 36,32.447 36,33 C36,33.553 35.552,34 35,34 L35,34 Z M28,33 C28,33.553 27.552,34 27,34 C26.448,34 26,33.553 26,33 L26,27.999 L24.8,29.6 C24.778,29.629 24.743,29.641 24.718,29.667 C24.678,29.711 24.65,29.763 24.6,29.8 C24.565,29.826 24.525,29.837 24.488,29.858 C24.455,29.877 24.424,29.895 24.388,29.91 C24.263,29.964 24.133,30 24.001,30 L24,30 L23.999,30 C23.867,30 23.737,29.964 23.612,29.91 C23.576,29.895 23.545,29.877 23.512,29.858 C23.475,29.837 23.435,29.826 23.4,29.8 C23.35,29.763 23.322,29.711 23.282,29.667 C23.257,29.641 23.222,29.629 23.2,29.6 L22,27.999 L22,33 C22,33.553 21.552,34 21,34 C20.448,34 20,33.553 20,33 L20,25 C20,24.976 20.012,24.956 20.014,24.932 C20.018,24.862 20.035,24.798 20.054,24.731 C20.072,24.671 20.087,24.612 20.115,24.557 C20.142,24.502 20.179,24.455 20.217,24.405 C20.26,24.349 20.301,24.297 20.354,24.251 C20.372,24.236 20.381,24.214 20.4,24.2 C20.432,24.177 20.469,24.171 20.502,24.152 C20.563,24.116 20.622,24.085 20.69,24.062 C20.755,24.041 20.818,24.031 20.885,24.023 C20.924,24.019 20.959,24 21,24 C21.025,24 21.045,24.012 21.069,24.014 C21.138,24.019 21.203,24.035 21.269,24.054 C21.33,24.072 21.388,24.087 21.443,24.115 C21.498,24.142 21.545,24.179 21.595,24.217 C21.651,24.26 21.703,24.302 21.749,24.355 C21.764,24.373 21.786,24.381 21.8,24.4 L24,27.334 L26.2,24.4 C26.214,24.382 26.236,24.373 26.251,24.355 C26.297,24.301 26.35,24.259 26.406,24.216 C26.456,24.179 26.502,24.142 26.557,24.115 C26.612,24.087 26.671,24.071 26.732,24.054 C26.799,24.035 26.862,24.019 26.931,24.014 C26.955,24.012 26.975,24 27,24 C27.041,24 27.076,24.019 27.115,24.023 C27.182,24.031 27.246,24.041 27.311,24.063 C27.378,24.085 27.437,24.116 27.497,24.151 C27.531,24.171 27.568,24.176 27.6,24.2 C27.619,24.214 27.628,24.236 27.646,24.251 C27.699,24.297 27.74,24.349 27.783,24.405 C27.821,24.455 27.858,24.502 27.885,24.557 C27.913,24.612 27.928,24.67 27.946,24.731 C27.965,24.798 27.982,24.862 27.986,24.932 C27.988,24.956 28,24.976 28,25 L28,33 Z M17.895,32.553 C18.142,33.047 17.941,33.647 17.447,33.895 C17.304,33.966 17.151,34 17.001,34 C16.634,34 16.281,33.798 16.105,33.447 L15,31.236 L13.895,33.447 C13.719,33.798 13.366,34 12.999,34 C12.849,34 12.696,33.966 12.553,33.895 C12.059,33.647 11.858,33.047 12.105,32.553 L13.882,29 L12.105,25.447 C11.858,24.953 12.059,24.352 12.553,24.105 C13.048,23.859 13.647,24.059 13.895,24.553 L15,26.764 L16.105,24.553 C16.352,24.059 16.953,23.859 17.447,24.105 C17.941,24.352 18.142,24.953 17.895,25.447 L16.118,29 L17.895,32.553 Z M41,20 L7,20 C6.448,20 6,20.447 6,21 L6,37 C6,37.553 6.448,38 7,38 L41,38 C41.552,38 42,37.553 42,37 L42,21 C42,20.447 41.552,20 41,20 L41,20 Z" id="Fill-125"></path>
        </g>
    </g>
</svg>