<?xml version="1.0" encoding="UTF-8" standalone="no"?>
<svg width="44px" height="44px" viewBox="0 0 44 44" version="1.1" xmlns="http://www.w3.org/2000/svg" xmlns:xlink="http://www.w3.org/1999/xlink">
    <!-- Generator: Sketch 3.7.2 (28276) - http://www.bohemiancoding.com/sketch -->
    <title>ext-bmp</title>
    <desc>Created with Sketch.</desc>
    <defs></defs>
    <g id="44px-Line" stroke="none" stroke-width="1" fill="none" fill-rule="evenodd">
        <g id="ext-bmp"></g>
        <path d="M15,24 L13,24 C12.447,24 12,24.448 12,25 L12,33 C12,33.552 12.447,34 13,34 L15,34 C16.654,34 18,32.654 18,31 C18,30.229 17.699,29.532 17.22,29 C17.7,28.468 18,27.771 18,27 C18,25.346 16.654,24 15,24 L15,24 Z M14,28 L14,26 L15,26 C15.552,26 16,26.449 16,27 C16,27.551 15.552,28 15,28 L14,28 L14,28 Z M15,32 L14,32 L14,30 L15,30 C15.552,30 16,30.449 16,31 C16,31.551 15.552,32 15,32 L15,32 Z" id="Shape" fill="#000000"></path>
        <path d="M41,20 L36,20 L36,10 C36,9.735 35.895,9.48 35.707,9.293 L26.707,0.293 C26.52,0.105 26.266,0 26,0 L5,0 C3.346,0 2,1.346 2,3 L2,41 C2,42.654 3.346,44 5,44 L33,44 C34.654,44 36,42.654 36,41 L36,38 L41,38 C41.553,38 42,37.552 42,37 L42,21 C42,20.448 41.553,20 41,20 L41,20 Z M33.586,10 L27,10 C26.448,10 26,9.551 26,9 L26,2.414 L33.586,10 L33.586,10 Z M34,41 C34,41.551 33.552,42 33,42 L5,42 C4.448,42 4,41.551 4,41 L4,3 C4,2.449 4.448,2 5,2 L24,2 L24,9 C24,10.654 25.346,12 27,12 L34,12 L34,20 L7,20 C6.447,20 6,20.448 6,21 L6,37 C6,37.552 6.447,38 7,38 L34,38 L34,41 L34,41 Z M40,36 L8,36 L8,22 L40,22 L40,36 L40,36 Z" id="Shape" fill="#000000"></path>
        <path d="M31,24 C30.447,24 30,24.448 30,25 L30,33 C30,33.552 30.447,34 31,34 C31.553,34 32,33.552 32,33 L32,30 L33,30 C34.654,30 36,28.654 36,27 C36,25.346 34.654,24 33,24 L31,24 L31,24 Z M33,28 L32,28 L32,26 L33,26 C33.552,26 34,26.449 34,27 C34,27.551 33.552,28 33,28 L33,28 Z" id="Shape" fill="#000000"></path>
        <path d="M27.946,24.731 C27.929,24.671 27.913,24.612 27.886,24.557 C27.859,24.503 27.822,24.456 27.784,24.406 C27.741,24.349 27.699,24.297 27.645,24.25 C27.627,24.235 27.619,24.214 27.6,24.199 C27.569,24.175 27.531,24.17 27.498,24.15 C27.438,24.115 27.379,24.084 27.313,24.061 C27.247,24.039 27.182,24.029 27.114,24.021 C27.074,24.018 27.04,24 27,24 C26.976,24 26.955,24.012 26.932,24.014 C26.863,24.019 26.8,24.035 26.734,24.054 C26.672,24.071 26.613,24.087 26.557,24.116 C26.503,24.143 26.457,24.179 26.408,24.216 C26.351,24.259 26.298,24.301 26.252,24.355 C26.237,24.373 26.215,24.381 26.201,24.4 L24.001,27.334 L21.801,24.4 C21.787,24.381 21.765,24.372 21.75,24.354 C21.705,24.301 21.653,24.26 21.597,24.217 C21.547,24.179 21.499,24.141 21.443,24.113 C21.389,24.086 21.332,24.071 21.273,24.054 C21.204,24.034 21.138,24.017 21.067,24.012 C21.043,24.012 21.023,24 21,24 C20.961,24 20.928,24.018 20.891,24.022 C20.821,24.03 20.755,24.04 20.687,24.063 C20.621,24.085 20.563,24.116 20.504,24.151 C20.471,24.171 20.433,24.176 20.401,24.2 C20.382,24.214 20.373,24.235 20.356,24.251 C20.302,24.297 20.26,24.35 20.217,24.407 C20.18,24.457 20.143,24.503 20.115,24.558 C20.087,24.613 20.072,24.671 20.055,24.732 C20.036,24.799 20.019,24.864 20.014,24.934 C20.012,24.956 20,24.976 20,25 L20,33 C20,33.552 20.447,34 21,34 C21.553,34 22,33.552 22,33 L22,28 L23.2,29.6 C23.223,29.631 23.258,29.642 23.284,29.67 C23.324,29.713 23.352,29.764 23.4,29.8 C23.434,29.826 23.474,29.837 23.511,29.858 C23.545,29.877 23.576,29.895 23.611,29.91 C23.736,29.964 23.866,30 23.999,30 L24,30 L24.001,30 C24.134,30 24.264,29.964 24.389,29.91 C24.424,29.895 24.455,29.877 24.489,29.858 C24.525,29.837 24.565,29.826 24.6,29.8 C24.649,29.764 24.676,29.713 24.716,29.67 C24.742,29.643 24.777,29.631 24.8,29.6 L26,28 L26,33 C26,33.552 26.447,34 27,34 C27.553,34 28,33.552 28,33 L28,25 C28,24.976 27.988,24.956 27.986,24.932 C27.982,24.863 27.965,24.798 27.946,24.731 L27.946,24.731 Z" id="Shape" fill="#000000"></path>
    </g>
</svg>