<?xml version="1.0" encoding="UTF-8" standalone="no"?>
<svg width="64px" height="64px" viewBox="0 0 64 64" version="1.1" xmlns="http://www.w3.org/2000/svg" xmlns:xlink="http://www.w3.org/1999/xlink">
    <!-- Generator: Sketch 3.7.2 (28276) - http://www.bohemiancoding.com/sketch -->
    <title>fil-send</title>
    <desc>Created with Sketch.</desc>
    <defs></defs>
    <g id="64px-Line" stroke="none" stroke-width="1" fill="none" fill-rule="evenodd">
        <g id="fil-send"></g>
        <path d="M43.923,34.618 C43.872,34.495 43.799,34.385 43.706,34.292 L35.707,26.293 C35.316,25.902 34.684,25.902 34.293,26.293 C33.902,26.684 33.902,27.316 34.293,27.707 L40.586,34 L21,34 C20.448,34 20,34.447 20,35 C20,35.553 20.448,36 21,36 L40.586,36 L34.293,42.293 C33.902,42.684 33.902,43.316 34.293,43.707 C34.488,43.902 34.744,44 35,44 C35.256,44 35.512,43.902 35.707,43.707 L43.706,35.708 C43.799,35.616 43.872,35.505 43.923,35.382 C44.024,35.138 44.024,34.862 43.923,34.618 L43.923,34.618 Z" id="Shape" fill="#000000"></path>
        <path d="M40.707,6.293 C40.52,6.105 40.265,6 40,6 L16,6 C13.794,6 12,7.794 12,10 L12,56 C12,58.206 13.794,60 16,60 L48,60 C50.206,60 52,58.206 52,56 L52,18 C52,17.734 51.895,17.48 51.707,17.293 L40.707,6.293 L40.707,6.293 Z M49.586,18 L42,18 C40.897,18 40,17.103 40,16 L40,8.414 L49.586,18 L49.586,18 Z M48,58 L16,58 C14.897,58 14,57.103 14,56 L14,10 C14,8.897 14.897,8 16,8 L38,8 L38,16 C38,18.206 39.794,20 42,20 L50,20 L50,56 C50,57.103 49.103,58 48,58 L48,58 Z" id="Shape" fill="#000000"></path>
    </g>
</svg>