<?xml version="1.0" encoding="UTF-8" standalone="no"?>
<svg width="64px" height="64px" viewBox="0 0 64 64" version="1.1" xmlns="http://www.w3.org/2000/svg" xmlns:xlink="http://www.w3.org/1999/xlink">
    <!-- Generator: Sketch 3.7.2 (28276) - http://www.bohemiancoding.com/sketch -->
    <title>fil-edit</title>
    <desc>Created with Sketch.</desc>
    <defs></defs>
    <g id="64px-Line" stroke="none" stroke-width="1" fill="none" fill-rule="evenodd">
        <g id="fil-edit"></g>
        <path d="M41.204,22.729 C40.273,21.79 38.615,21.815 37.735,22.703 L35.945,24.38 C35.94,24.385 35.939,24.391 35.934,24.396 C35.93,24.4 35.924,24.401 35.92,24.405 L22.697,37.698 L22.697,37.698 L22.697,37.698 L22.33,38.067 C22.253,38.144 22.189,38.234 22.142,38.332 L18.103,46.561 C17.914,46.945 17.991,47.408 18.294,47.71 C18.486,47.901 18.741,48.002 19,48.002 C19.151,48.002 19.303,47.968 19.444,47.898 L27.634,43.84 C27.732,43.792 27.822,43.727 27.899,43.649 L41.475,30.003 L43.278,28.31 C44.237,27.349 44.239,25.78 43.278,24.811 L41.204,22.729 L41.204,22.729 Z M23.562,39.976 L26.002,42.416 L21.196,44.797 L23.562,39.976 L23.562,39.976 Z M27.564,41.15 L24.817,38.403 L36.629,26.528 L39.37,29.282 L27.564,41.15 L27.564,41.15 Z M41.886,26.873 L40.805,27.888 L38.065,25.135 L39.129,24.138 C39.247,24.019 39.385,24.001 39.456,24.001 C39.528,24.001 39.666,24.019 39.786,24.14 L41.86,26.221 C42.046,26.407 42.047,26.71 41.886,26.873 L41.886,26.873 Z" id="Shape" fill="#000000"></path>
        <path d="M40.707,6.293 C40.52,6.105 40.266,6 40,6 L14,6 C11.794,6 10,7.794 10,10 L10,56 C10,58.206 11.794,60 14,60 L48,60 C50.206,60 52,58.206 52,56 L52,18 C52,17.735 51.895,17.48 51.707,17.293 L40.707,6.293 L40.707,6.293 Z M49.586,18 L42,18 C40.897,18 40,17.103 40,16 L40,8.414 L49.586,18 L49.586,18 Z M48,58 L14,58 C12.897,58 12,57.103 12,56 L12,10 C12,8.897 12.897,8 14,8 L38,8 L38,16 C38,18.206 39.794,20 42,20 L50,20 L50,56 C50,57.103 49.103,58 48,58 L48,58 Z" id="Shape" fill="#000000"></path>
    </g>
</svg>