<?xml version="1.0" encoding="UTF-8" standalone="no"?>
<svg width="64px" height="64px" viewBox="0 0 64 64" version="1.1" xmlns="http://www.w3.org/2000/svg" xmlns:xlink="http://www.w3.org/1999/xlink">
    <!-- Generator: Sketch 3.7.2 (28276) - http://www.bohemiancoding.com/sketch -->
    <title>fil-attach</title>
    <desc>Created with Sketch.</desc>
    <defs></defs>
    <g id="64px-Line" stroke="none" stroke-width="1" fill="none" fill-rule="evenodd">
        <g id="fil-attach"></g>
        <path d="M35.489,23.395 L19.772,38.086 C18.629,39.183 18,40.645 18,42.201 C18,43.757 18.63,45.219 19.772,46.316 C20.938,47.436 22.47,47.996 24.001,47.996 C25.53,47.996 27.06,47.437 28.222,46.321 L40.577,34.633 C40.978,34.254 40.996,33.62 40.616,33.219 C40.358,32.948 39.989,32.852 39.647,32.935 L42.519,30.276 C43.473,29.361 43.998,28.141 43.998,26.84 C43.998,25.539 43.473,24.319 42.519,23.403 C40.581,21.541 37.421,21.538 35.489,23.395 L35.489,23.395 Z M26.843,44.873 C25.275,46.378 22.726,46.378 21.157,44.873 C20.411,44.156 20,43.207 20,42.201 C20,41.195 20.411,40.245 21.147,39.538 L24.605,36.306 C24.21,36.916 24,37.622 24,38.361 C24,39.405 24.421,40.384 25.187,41.118 C26.706,42.577 29.155,42.608 30.701,41.223 L26.843,44.873 L26.843,44.873 Z M41.148,28.821 L29.428,39.675 C28.639,40.432 27.36,40.432 26.571,39.675 C26.203,39.321 26,38.854 26,38.36 C26,37.866 26.203,37.399 26.561,37.056 L34.682,29.492 C35.086,29.116 35.109,28.483 34.732,28.078 C34.536,27.867 34.268,27.76 34.001,27.76 C33.898,27.76 33.797,27.776 33.699,27.806 L36.865,24.846 C38.043,23.715 39.959,23.715 41.136,24.846 C41.694,25.382 42,26.09 42,26.841 C42,27.591 41.693,28.298 41.148,28.821 L41.148,28.821 Z" id="Shape" fill="#000000"></path>
        <path d="M40.707,6.293 C40.52,6.105 40.266,6 40,6 L14,6 C11.794,6 10,7.794 10,10 L10,56 C10,58.206 11.794,60 14,60 L48,60 C50.206,60 52,58.206 52,56 L52,18 C52,17.735 51.895,17.48 51.707,17.293 L40.707,6.293 L40.707,6.293 Z M49.586,18 L42,18 C40.897,18 40,17.103 40,16 L40,8.414 L49.586,18 L49.586,18 Z M48,58 L14,58 C12.897,58 12,57.103 12,56 L12,10 C12,8.897 12.897,8 14,8 L38,8 L38,16 C38,18.206 39.794,20 42,20 L50,20 L50,56 C50,57.103 49.103,58 48,58 L48,58 Z" id="Shape" fill="#000000"></path>
    </g>
</svg>