<?xml version="1.0" encoding="UTF-8" standalone="no"?>
<svg width="64px" height="64px" viewBox="0 0 64 64" version="1.1" xmlns="http://www.w3.org/2000/svg" xmlns:xlink="http://www.w3.org/1999/xlink">
    <!-- Generator: Sketch 3.7.2 (28276) - http://www.bohemiancoding.com/sketch -->
    <title>fil-location</title>
    <desc>Created with Sketch.</desc>
    <defs></defs>
    <g id="64px-Line" stroke="none" stroke-width="1" fill="none" fill-rule="evenodd">
        <g id="fil-location"></g>
        <path d="M31,27 C28.794,27 27,28.794 27,31 C27,33.206 28.794,35 31,35 C33.206,35 35,33.206 35,31 C35,28.794 33.206,27 31,27 L31,27 Z M31,33 C29.897,33 29,32.103 29,31 C29,29.897 29.897,29 31,29 C32.103,29 33,29.897 33,31 C33,32.103 32.103,33 31,33 L31,33 Z" id="Shape" fill="#000000"></path>
        <path d="M31,22 C26.038,22 22,26.038 22,31 C22,32.393 22.31,33.729 22.952,35.028 L30.134,47.499 C30.312,47.809 30.643,48 31,48 C31.357,48 31.688,47.809 31.867,47.499 L39.079,34.971 C39.69,33.729 40,32.393 40,31 C40,26.038 35.962,22 31,22 L31,22 Z M37.315,34.03 L31,44.997 L24.715,34.088 C24.241,33.123 24,32.084 24,31 C24,27.14 27.14,24 31,24 C34.86,24 38,27.14 38,31 C38,32.084 37.759,33.123 37.315,34.03 L37.315,34.03 Z" id="Shape" fill="#000000"></path>
        <path d="M40.707,6.293 C40.52,6.105 40.265,6 40,6 L14,6 C11.794,6 10,7.794 10,10 L10,56 C10,58.206 11.794,60 14,60 L48,60 C50.206,60 52,58.206 52,56 L52,18 C52,17.735 51.895,17.48 51.707,17.293 L40.707,6.293 L40.707,6.293 Z M49.586,18 L42,18 C40.897,18 40,17.103 40,16 L40,8.414 L49.586,18 L49.586,18 Z M48,58 L14,58 C12.897,58 12,57.103 12,56 L12,10 C12,8.897 12.897,8 14,8 L38,8 L38,16 C38,18.206 39.794,20 42,20 L50,20 L50,56 C50,57.103 49.103,58 48,58 L48,58 Z" id="Shape" fill="#000000"></path>
    </g>
</svg>