<?xml version="1.0" encoding="UTF-8" standalone="no"?>
<svg width="64px" height="64px" viewBox="0 0 64 64" version="1.1" xmlns="http://www.w3.org/2000/svg" xmlns:xlink="http://www.w3.org/1999/xlink">
    <!-- Generator: Sketch 3.7.2 (28276) - http://www.bohemiancoding.com/sketch -->
    <title>fil-cross</title>
    <desc>Created with Sketch.</desc>
    <defs></defs>
    <g id="64px-Line" stroke="none" stroke-width="1" fill="none" fill-rule="evenodd">
        <g id="fil-cross"></g>
        <path d="M39.707,26.293 C39.316,25.902 38.684,25.902 38.293,26.293 L31,33.586 L23.707,26.293 C23.316,25.902 22.684,25.902 22.293,26.293 C21.902,26.684 21.902,27.316 22.293,27.707 L29.586,35 L22.322,42.264 C21.931,42.655 21.931,43.287 22.322,43.678 C22.517,43.873 22.773,43.971 23.029,43.971 C23.285,43.971 23.541,43.873 23.736,43.678 L31,36.414 L38.293,43.707 C38.488,43.902 38.744,44 39,44 C39.256,44 39.512,43.902 39.707,43.707 C40.098,43.316 40.098,42.684 39.707,42.293 L32.414,35 L39.707,27.707 C40.098,27.316 40.098,26.684 39.707,26.293 L39.707,26.293 Z" id="Shape" fill="#000000"></path>
        <path d="M40.707,6.293 C40.52,6.105 40.266,6 40,6 L14,6 C11.794,6 10,7.794 10,10 L10,56 C10,58.206 11.794,60 14,60 L48,60 C50.206,60 52,58.206 52,56 L52,18 C52,17.735 51.895,17.48 51.707,17.293 L40.707,6.293 L40.707,6.293 Z M49.586,18 L42,18 C40.897,18 40,17.103 40,16 L40,8.414 L49.586,18 L49.586,18 Z M48,58 L14,58 C12.897,58 12,57.103 12,56 L12,10 C12,8.897 12.897,8 14,8 L38,8 L38,16 C38,18.206 39.794,20 42,20 L50,20 L50,56 C50,57.103 49.103,58 48,58 L48,58 Z" id="Shape" fill="#000000"></path>
    </g>
</svg>