<?xml version="1.0" encoding="UTF-8" standalone="no"?>
<svg width="64px" height="64px" viewBox="0 0 64 64" version="1.1" xmlns="http://www.w3.org/2000/svg" xmlns:xlink="http://www.w3.org/1999/xlink">
    <!-- Generator: Sketch 3.7.2 (28276) - http://www.bohemiancoding.com/sketch -->
    <title>fil-tick</title>
    <desc>Created with Sketch.</desc>
    <defs></defs>
    <g id="64px-Line" stroke="none" stroke-width="1" fill="none" fill-rule="evenodd">
        <g id="fil-tick"></g>
        <path d="M42.293,26.293 L27,41.588 L21.707,36.293 C21.316,35.902 20.684,35.902 20.293,36.293 C19.902,36.684 19.902,37.316 20.293,37.707 L26.293,43.709 C26.481,43.897 26.749,43.986 27.015,43.986 C27.281,43.986 27.549,43.865 27.737,43.677 L43.708,27.706 C44.099,27.315 44.099,26.683 43.708,26.292 C43.317,25.901 42.684,25.902 42.293,26.293 L42.293,26.293 Z" id="Shape" fill="#000000"></path>
        <path d="M40.707,6.293 C40.52,6.105 40.266,6 40,6 L16,6 C13.794,6 12,7.794 12,10 L12,56 C12,58.206 13.794,60 16,60 L48,60 C50.206,60 52,58.206 52,56 L52,18 C52,17.734 51.895,17.48 51.707,17.293 L40.707,6.293 L40.707,6.293 Z M49.586,18 L42,18 C40.897,18 40,17.103 40,16 L40,8.414 L49.586,18 L49.586,18 Z M48,58 L16,58 C14.897,58 14,57.103 14,56 L14,10 C14,8.897 14.897,8 16,8 L38,8 L38,16 C38,18.206 39.794,20 42,20 L50,20 L50,56 C50,57.103 49.103,58 48,58 L48,58 Z" id="Shape" fill="#000000"></path>
    </g>
</svg>