<?xml version="1.0" encoding="UTF-8" standalone="no"?>
<svg width="64px" height="64px" viewBox="0 0 64 64" version="1.1" xmlns="http://www.w3.org/2000/svg" xmlns:xlink="http://www.w3.org/1999/xlink">
    <!-- Generator: Sketch 3.7.2 (28276) - http://www.bohemiancoding.com/sketch -->
    <title>fil-database</title>
    <desc>Created with Sketch.</desc>
    <defs></defs>
    <g id="64px-Line" stroke="none" stroke-width="1" fill="none" fill-rule="evenodd">
        <g id="fil-database"></g>
        <path d="M32,22 C27.519,22 20,22.52 20,26 L20,31.5 C20,31.612 20.024,31.714 20.036,31.821 C20.025,31.881 20,31.936 20,32 L20,37.5 C20,37.612 20.024,37.714 20.036,37.821 C20.025,37.881 20,37.936 20,38 L20,43.5 C20,47.22 26.526,48 32,48 C37.474,48 44,47.22 44,43.5 L44,38 C44,37.937 43.975,37.881 43.964,37.821 C43.976,37.714 44,37.612 44,37.5 L44,32 C44,31.937 43.975,31.881 43.964,31.821 C43.976,31.714 44,31.612 44,31.5 L44,26 C44,22.52 36.481,22 32,22 L32,22 Z M42,37.5 C42,38.704 38.871,40 32,40 C25.129,40 22,38.704 22,37.5 L22,34.366 C24.354,35.656 28.399,36 32,36 C35.601,36 39.646,35.656 42,34.366 L42,37.5 L42,37.5 Z M42,31.5 C42,32.704 38.871,34 32,34 C25.129,34 22,32.704 22,31.5 L22,28.523 C24.542,29.758 28.965,30 32,30 C35.035,30 39.458,29.758 42,28.523 L42,31.5 L42,31.5 Z M32,24 C38.98,24 42,25.324 42,26 C42,26.676 38.98,28 32,28 C25.02,28 22,26.676 22,26 C22,25.324 25.02,24 32,24 L32,24 Z M32,46 C25.129,46 22,44.704 22,43.5 L22,40.366 C24.354,41.656 28.399,42 32,42 C35.601,42 39.646,41.656 42,40.366 L42,43.5 C42,44.704 38.871,46 32,46 L32,46 Z" id="Shape" fill="#000000"></path>
        <path d="M40.707,6.293 C40.52,6.105 40.265,6 40,6 L16,6 C13.794,6 12,7.794 12,10 L12,56 C12,58.206 13.794,60 16,60 L48,60 C50.206,60 52,58.206 52,56 L52,18 C52,17.734 51.895,17.48 51.707,17.293 L40.707,6.293 L40.707,6.293 Z M49.586,18 L42,18 C40.897,18 40,17.103 40,16 L40,8.414 L49.586,18 L49.586,18 Z M48,58 L16,58 C14.897,58 14,57.103 14,56 L14,10 C14,8.897 14.897,8 16,8 L38,8 L38,16 C38,18.206 39.794,20 42,20 L50,20 L50,56 C50,57.103 49.103,58 48,58 L48,58 Z" id="Shape" fill="#000000"></path>
    </g>
</svg>