<?xml version="1.0" encoding="UTF-8" standalone="no"?>
<svg width="64px" height="64px" viewBox="0 0 64 64" version="1.1" xmlns="http://www.w3.org/2000/svg" xmlns:xlink="http://www.w3.org/1999/xlink">
    <!-- Generator: Sketch 3.7.2 (28276) - http://www.bohemiancoding.com/sketch -->
    <title>fil-settings</title>
    <desc>Created with Sketch.</desc>
    <defs></defs>
    <g id="64px-Line" stroke="none" stroke-width="1" fill="none" fill-rule="evenodd">
        <g id="fil-settings"></g>
        <path d="M32,30 C28.691,30 26,32.691 26,36 C26,39.309 28.691,42 32,42 C35.309,42 38,39.309 38,36 C38,32.691 35.309,30 32,30 L32,30 Z M32,40 C29.794,40 28,38.206 28,36 C28,33.794 29.794,32 32,32 C34.206,32 36,33.794 36,36 C36,38.206 34.206,40 32,40 L32,40 Z" id="Shape" fill="#000000"></path>
        <path d="M44,33 L42.581,33 C42.344,32.166 42.007,31.356 41.585,30.604 L42.42,29.769 C43.19,28.997 43.19,27.741 42.419,26.968 L41.031,25.58 C40.258,24.809 39.001,24.808 38.23,25.58 L37.397,26.413 C36.637,25.984 35.835,25.649 35,25.413 L35,24 C35,22.897 34.103,22 33,22 L31,22 C29.897,22 29,22.897 29,24 L29,25.413 C28.162,25.649 27.36,25.984 26.602,26.413 L25.769,25.58 C24.997,24.809 23.74,24.809 22.968,25.58 L21.58,26.968 C20.808,27.74 20.808,28.997 21.58,29.77 L22.413,30.603 C21.987,31.359 21.653,32.161 21.417,33 L20,33 C18.897,33 18,33.897 18,35 L18,37 C18,38.103 18.897,39 20,39 L21.419,39 C21.656,39.835 21.993,40.645 22.414,41.396 L21.58,42.23 C20.809,43.001 20.808,44.258 21.58,45.032 L22.968,46.42 C23.739,47.192 24.997,47.192 25.77,46.42 L26.603,45.586 C27.359,46.013 28.161,46.346 28.999,46.582 L28.999,48 C28.999,49.103 29.896,50 30.999,50 L32.999,50 C34.102,50 34.999,49.103 34.999,48 L34.999,46.579 C35.835,46.341 36.645,46.005 37.395,45.584 L38.23,46.419 C39.001,47.191 40.259,47.192 41.032,46.419 L42.418,45.031 C42.793,44.657 42.999,44.159 42.999,43.63 C42.999,43.101 42.792,42.603 42.419,42.23 L41.587,41.397 C42.013,40.641 42.346,39.839 42.583,38.999 L44,38.999 C45.103,38.999 46,38.102 46,36.999 L46,34.999 C46,33.897 45.103,33 44,33 L44,33 Z M44,37 L41.797,37 C41.321,37 40.912,37.335 40.817,37.801 C40.583,38.951 40.137,40.025 39.492,40.991 C39.227,41.387 39.279,41.916 39.616,42.253 L41.005,43.617 L39.645,45.005 L38.253,43.612 C37.915,43.275 37.388,43.223 36.989,43.488 C36.042,44.121 34.939,44.58 33.798,44.814 C33.334,44.911 33,45.32 33,45.795 L33,48 L31,48 L31,45.795 C31,45.319 30.665,44.91 30.199,44.815 C29.051,44.582 27.978,44.136 27.01,43.489 C26.841,43.376 26.647,43.321 26.455,43.321 C26.197,43.321 25.94,43.421 25.747,43.614 L24.382,45.007 L22.994,43.646 L24.385,42.255 C24.722,41.918 24.775,41.389 24.51,40.993 C23.875,40.041 23.416,38.937 23.183,37.801 C23.088,37.336 22.679,37.002 22.204,37.002 L20,37.002 L20,35.002 L22.203,35.002 C22.679,35.002 23.088,34.667 23.183,34.201 C23.416,33.052 23.863,31.979 24.509,31.011 C24.774,30.614 24.722,30.086 24.384,29.748 L22.993,28.384 L24.354,26.996 L25.745,28.387 C26.082,28.724 26.612,28.776 27.008,28.511 C27.98,27.861 29.053,27.414 30.197,27.181 C30.663,27.086 30.998,26.677 30.998,26.201 L30.998,24 L32.998,24 L32.998,26.199 C32.998,26.675 33.333,27.084 33.799,27.179 C34.939,27.41 36.013,27.858 36.99,28.51 C37.387,28.774 37.915,28.722 38.252,28.385 L39.616,26.994 L41.004,28.355 L39.612,29.746 C39.275,30.083 39.222,30.612 39.487,31.009 C40.123,31.963 40.583,33.066 40.815,34.201 C40.91,34.666 41.319,35 41.794,35 L44,35 L44,37 L44,37 Z" id="Shape" fill="#000000"></path>
        <path d="M40.707,6.293 C40.52,6.105 40.265,6 40,6 L16,6 C13.794,6 12,7.794 12,10 L12,56 C12,58.206 13.794,60 16,60 L48,60 C50.206,60 52,58.206 52,56 L52,18 C52,17.735 51.895,17.48 51.707,17.293 L40.707,6.293 L40.707,6.293 Z M49.586,18 L42,18 C40.897,18 40,17.103 40,16 L40,8.414 L49.586,18 L49.586,18 Z M48,58 L16,58 C14.897,58 14,57.103 14,56 L14,10 C14,8.897 14.897,8 16,8 L38,8 L38,16 C38,18.206 39.794,20 42,20 L50,20 L50,56 C50,57.103 49.103,58 48,58 L48,58 Z" id="Shape" fill="#000000"></path>
    </g>
</svg>