<?xml version="1.0" encoding="UTF-8" standalone="no"?>
<svg width="64px" height="64px" viewBox="0 0 64 64" version="1.1" xmlns="http://www.w3.org/2000/svg" xmlns:xlink="http://www.w3.org/1999/xlink">
    <!-- Generator: Sketch 3.7.2 (28276) - http://www.bohemiancoding.com/sketch -->
    <title>fil-star</title>
    <desc>Created with Sketch.</desc>
    <defs></defs>
    <g id="64px-Line" stroke="none" stroke-width="1" fill="none" fill-rule="evenodd">
        <g id="fil-star"></g>
        <path d="M41.151,29.65 L34.768,28.675 L31.905,22.574 C31.74,22.224 31.388,22 31,22 C30.612,22 30.26,22.224 30.095,22.575 L27.232,28.676 L20.849,29.651 C20.479,29.708 20.171,29.967 20.052,30.322 C19.933,30.677 20.023,31.07 20.284,31.338 L24.931,36.101 L23.831,42.839 C23.769,43.217 23.93,43.597 24.242,43.818 C24.555,44.039 24.969,44.06 25.302,43.876 L31,40.726 L36.697,43.875 C36.847,43.958 37.014,44 37.18,44 C37.382,44 37.584,43.938 37.756,43.817 C38.068,43.596 38.229,43.216 38.167,42.838 L37.067,36.1 L41.714,31.337 C41.976,31.069 42.066,30.677 41.946,30.321 C41.826,29.965 41.521,29.707 41.151,29.65 L41.151,29.65 Z M35.284,35.065 C35.062,35.292 34.962,35.611 35.013,35.924 L35.863,41.128 L31.484,38.708 C31.334,38.625 31.168,38.583 31.001,38.583 C30.834,38.583 30.668,38.625 30.518,38.708 L26.139,41.128 L26.989,35.924 C27.04,35.611 26.939,35.292 26.718,35.065 L23.077,31.334 L28.063,30.572 C28.392,30.521 28.675,30.31 28.817,30.008 L31,25.354 L33.185,30.009 C33.327,30.311 33.61,30.522 33.939,30.573 L38.925,31.335 L35.284,35.065 L35.284,35.065 Z" id="Shape" fill="#000000"></path>
        <path d="M51.707,17.293 L40.707,6.293 C40.52,6.105 40.266,6 40,6 L14,6 C11.794,6 10,7.794 10,10 L10,56 C10,58.206 11.794,60 14,60 L48,60 C50.206,60 52,58.206 52,56 L52,18 C52,17.735 51.895,17.48 51.707,17.293 L51.707,17.293 Z M49.586,18 L42,18 C40.897,18 40,17.103 40,16 L40,8.414 L49.586,18 L49.586,18 Z M48,58 L14,58 C12.897,58 12,57.103 12,56 L12,10 C12,8.897 12.897,8 14,8 L38,8 L38,16 C38,18.206 39.794,20 42,20 L50,20 L50,56 C50,57.103 49.103,58 48,58 L48,58 Z" id="Shape" fill="#000000"></path>
    </g>
</svg>