<?xml version="1.0" encoding="UTF-8" standalone="no"?>
<svg width="64px" height="64px" viewBox="0 0 64 64" version="1.1" xmlns="http://www.w3.org/2000/svg" xmlns:xlink="http://www.w3.org/1999/xlink">
    <!-- Generator: Sketch 3.7.2 (28276) - http://www.bohemiancoding.com/sketch -->
    <title>fil-statistics</title>
    <desc>Created with Sketch.</desc>
    <defs></defs>
    <g id="64px-Line" stroke="none" stroke-width="1" fill="none" fill-rule="evenodd">
        <g id="fil-statistics"></g>
        <path d="M39,36 L30,36 L30,27 C30,26.447 29.552,26 29,26 C22.935,26 18,30.935 18,37 C18,43.065 22.935,48 29,48 C35.065,48 40,43.065 40,37 C40,36.447 39.552,36 39,36 L39,36 Z M29,46 C24.038,46 20,41.963 20,37 C20,32.375 23.506,28.555 28,28.056 L28,37 C28,37.553 28.448,38 29,38 L37.945,38 C37.446,42.494 33.625,46 29,46 L29,46 Z" id="Shape" fill="#000000"></path>
        <path d="M33,22 C32.448,22 32,22.447 32,23 L32,33 C32,33.553 32.448,34 33,34 L43,34 C43.552,34 44,33.553 44,33 C44,26.935 39.065,22 33,22 L33,22 Z M34,32 L34,24.056 C38.165,24.518 41.482,27.835 41.945,32 L34,32 L34,32 Z" id="Shape" fill="#000000"></path>
        <path d="M40.707,6.293 C40.52,6.105 40.265,6 40,6 L14,6 C11.794,6 10,7.794 10,10 L10,56 C10,58.206 11.794,60 14,60 L48,60 C50.206,60 52,58.206 52,56 L52,18 C52,17.734 51.895,17.48 51.707,17.293 L40.707,6.293 L40.707,6.293 Z M49.586,18 L42,18 C40.897,18 40,17.103 40,16 L40,8.414 L49.586,18 L49.586,18 Z M48,58 L14,58 C12.897,58 12,57.103 12,56 L12,10 C12,8.897 12.897,8 14,8 L38,8 L38,16 C38,18.206 39.794,20 42,20 L50,20 L50,56 C50,57.103 49.103,58 48,58 L48,58 Z" id="Shape" fill="#000000"></path>
    </g>
</svg>