<?xml version="1.0" encoding="UTF-8" standalone="no"?>
<svg width="64px" height="64px" viewBox="0 0 64 64" version="1.1" xmlns="http://www.w3.org/2000/svg" xmlns:xlink="http://www.w3.org/1999/xlink">
    <!-- Generator: Sketch 3.7.2 (28276) - http://www.bohemiancoding.com/sketch -->
    <title>fil-trash</title>
    <desc>Created with Sketch.</desc>
    <defs></defs>
    <g id="64px-Line" stroke="none" stroke-width="1" fill="none" fill-rule="evenodd">
        <g id="fil-trash"></g>
        <path d="M41,26.002 L39.01,26.002 C39.007,26.002 39.004,26 39,26 C38.996,26 38.994,26.002 38.99,26.002 L36,26.002 L36,26 C36,23.794 34.206,22 32,22 L30,22 C27.794,22 26,23.794 26,26 L26,26.002 L23.01,26.002 C23.007,26.002 23.004,26 23,26 C22.996,26 22.994,26.002 22.99,26.002 L21,26.002 C20.448,26.002 20,26.449 20,27.002 C20,27.555 20.448,28.002 21,28.002 L22,28.002 L22,44 C22,46.206 23.794,48 26,48 L36,48 C38.206,48 40,46.206 40,44 L40,28.002 L41,28.002 C41.552,28.002 42,27.555 42,27.002 C42,26.449 41.552,26.002 41,26.002 L41,26.002 Z M28,26 C28,24.897 28.897,24 30,24 L32,24 C33.103,24 34,24.897 34,26 L34,26.002 L28,26.002 L28,26 L28,26 Z M38,44 C38,45.103 37.103,46 36,46 L26,46 C24.897,46 24,45.103 24,44 L24,28.002 L38,28.002 L38,44 L38,44 Z" id="Shape" fill="#000000"></path>
        <path d="M27,44 C27.552,44 28,43.553 28,43 L28,31 C28,30.447 27.552,30 27,30 C26.448,30 26,30.447 26,31 L26,43 C26,43.553 26.448,44 27,44 L27,44 Z" id="Shape" fill="#000000"></path>
        <path d="M31,44 C31.552,44 32,43.553 32,43 L32,31 C32,30.447 31.552,30 31,30 C30.448,30 30,30.447 30,31 L30,43 C30,43.553 30.448,44 31,44 L31,44 Z" id="Shape" fill="#000000"></path>
        <path d="M35,44 C35.552,44 36,43.553 36,43 L36,31 C36,30.447 35.552,30 35,30 C34.448,30 34,30.447 34,31 L34,43 C34,43.553 34.448,44 35,44 L35,44 Z" id="Shape" fill="#000000"></path>
        <path d="M40.707,6.293 C40.52,6.105 40.265,6 40,6 L14,6 C11.794,6 10,7.794 10,10 L10,56 C10,58.206 11.794,60 14,60 L48,60 C50.206,60 52,58.206 52,56 L52,18 C52,17.734 51.895,17.48 51.707,17.293 L40.707,6.293 L40.707,6.293 Z M49.586,18 L42,18 C40.897,18 40,17.103 40,16 L40,8.414 L49.586,18 L49.586,18 Z M48,58 L14,58 C12.897,58 12,57.103 12,56 L12,10 C12,8.897 12.897,8 14,8 L38,8 L38,16 C38,18.206 39.794,20 42,20 L50,20 L50,56 C50,57.103 49.103,58 48,58 L48,58 Z" id="Shape" fill="#000000"></path>
    </g>
</svg>