<?xml version="1.0" encoding="UTF-8" standalone="no"?>
<svg width="64px" height="64px" viewBox="0 0 64 64" version="1.1" xmlns="http://www.w3.org/2000/svg" xmlns:xlink="http://www.w3.org/1999/xlink">
    <!-- Generator: Sketch 3.7.2 (28276) - http://www.bohemiancoding.com/sketch -->
    <title>fil-alarm</title>
    <desc>Created with Sketch.</desc>
    <defs></defs>
    <g id="64px-Line" stroke="none" stroke-width="1" fill="none" fill-rule="evenodd">
        <g id="fil-alarm"></g>
        <path d="M40.707,6.293 C40.52,6.105 40.266,6 40,6 L14,6 C11.794,6 10,7.794 10,10 L10,56 C10,58.206 11.794,60 14,60 L48,60 C50.206,60 52,58.206 52,56 L52,18 C52,17.734 51.895,17.48 51.707,17.293 L40.707,6.293 L40.707,6.293 Z M49.586,18 L42,18 C40.897,18 40,17.103 40,16 L40,8.414 L49.586,18 L49.586,18 Z M48,58 L14,58 C12.897,58 12,57.103 12,56 L12,10 C12,8.897 12.897,8 14,8 L38,8 L38,16 C38,18.206 39.794,20 42,20 L50,20 L50,56 C50,57.103 49.103,58 48,58 L48,58 Z" id="Shape" fill="#000000"></path>
        <path d="M32.262,45.484 C31.58,46.148 30.421,46.149 29.74,45.483 C29.345,45.096 28.713,45.104 28.326,45.499 C27.94,45.894 27.947,46.526 28.342,46.913 C29.058,47.614 30.002,48 31.001,48 C31.998,48 32.942,47.615 33.659,46.916 C34.055,46.53 34.062,45.897 33.677,45.502 C33.292,45.105 32.657,45.1 32.262,45.484 L32.262,45.484 Z" id="Shape" fill="#000000"></path>
        <path d="M41,42 C40.448,42 40,41.552 40,41 L40,33 C40,28.375 36.493,24.558 32,24.059 L32,23 C32,22.447 31.553,22 31,22 C30.447,22 30,22.447 30,23 L30,24.059 C25.507,24.558 22,28.375 22,33 L22,41 C22,41.552 21.552,42 21,42 C20.447,42 20,42.447 20,43 C20,43.553 20.447,44 21,44 L41,44 C41.553,44 42,43.553 42,43 C42,42.447 41.553,42 41,42 L41,42 Z M23.829,42 C23.939,41.688 24,41.351 24,41 L24,33 C24,29.141 27.141,26 31,26 C34.859,26 38,29.141 38,33 L38,41 C38,41.351 38.061,41.688 38.171,42 L23.829,42 L23.829,42 Z" id="Shape" fill="#000000"></path>
    </g>
</svg>