<?xml version="1.0" encoding="UTF-8" standalone="no"?>
<svg width="64px" height="64px" viewBox="0 0 64 64" version="1.1" xmlns="http://www.w3.org/2000/svg" xmlns:xlink="http://www.w3.org/1999/xlink">
    <!-- Generator: Sketch 3.7.2 (28276) - http://www.bohemiancoding.com/sketch -->
    <title>fil-text</title>
    <desc>Created with Sketch.</desc>
    <defs></defs>
    <g id="64px-Line" stroke="none" stroke-width="1" fill="none" fill-rule="evenodd">
        <g id="fil-text"></g>
        <path d="M39,24 L23,24 C22.448,24 22,24.447 22,25 C22,25.553 22.448,26 23,26 L30,26 L30,43 C30,43.553 30.448,44 31,44 C31.552,44 32,43.553 32,43 L32,26 L39,26 C39.552,26 40,25.553 40,25 C40,24.447 39.552,24 39,24 L39,24 Z" id="Shape" fill="#000000"></path>
        <path d="M40.707,6.293 C40.52,6.105 40.265,6 40,6 L14,6 C11.794,6 10,7.794 10,10 L10,56 C10,58.206 11.794,60 14,60 L48,60 C50.206,60 52,58.206 52,56 L52,18 C52,17.734 51.895,17.48 51.707,17.293 L40.707,6.293 L40.707,6.293 Z M49.586,18 L42,18 C40.897,18 40,17.103 40,16 L40,8.414 L49.586,18 L49.586,18 Z M48,58 L14,58 C12.897,58 12,57.103 12,56 L12,10 C12,8.897 12.897,8 14,8 L38,8 L38,16 C38,18.206 39.794,20 42,20 L50,20 L50,56 C50,57.103 49.103,58 48,58 L48,58 Z" id="Shape" fill="#000000"></path>
    </g>
</svg>