<?xml version="1.0" encoding="UTF-8" standalone="no"?>
<svg width="64px" height="64px" viewBox="0 0 64 64" version="1.1" xmlns="http://www.w3.org/2000/svg" xmlns:xlink="http://www.w3.org/1999/xlink">
    <!-- Generator: Sketch 3.7.2 (28276) - http://www.bohemiancoding.com/sketch -->
    <title>fil-protect</title>
    <desc>Created with Sketch.</desc>
    <defs></defs>
    <g id="64px-Line" stroke="none" stroke-width="1" fill="none" fill-rule="evenodd">
        <g id="fil-protect"></g>
        <path d="M41,26 C36.133,26 34.168,24.346 32.435,22.887 C32.159,22.655 31.89,22.428 31.62,22.215 C31.257,21.928 30.745,21.928 30.382,22.215 C30.111,22.428 29.842,22.654 29.566,22.888 C27.831,24.347 25.865,26 21,26 C20.447,26 20,26.447 20,27 L20,34.5 C20,44.105 27.201,46.696 30.661,47.941 C30.771,47.98 30.886,48 31,48 C31.114,48 31.229,47.98 31.338,47.941 C34.799,46.698 42,44.11 42,34.5 L42,27 C42,26.447 41.553,26 41,26 L41,26 Z M40,34.5 C40,41.882 35.417,44.314 31,45.937 C26.583,44.313 22,41.878 22,34.5 L22,27.978 C26.885,27.756 29.072,25.916 30.853,24.417 C30.902,24.376 30.952,24.334 31,24.293 C31.049,24.334 31.098,24.375 31.146,24.416 C32.925,25.914 35.113,27.756 40,27.978 L40,34.5 L40,34.5 Z" id="Shape" fill="#000000"></path>
        <path d="M40.707,6.293 C40.52,6.105 40.266,6 40,6 L14,6 C11.794,6 10,7.794 10,10 L10,56 C10,58.206 11.794,60 14,60 L48,60 C50.206,60 52,58.206 52,56 L52,18 C52,17.734 51.895,17.48 51.707,17.293 L40.707,6.293 L40.707,6.293 Z M49.586,18 L42,18 C40.897,18 40,17.103 40,16 L40,8.414 L49.586,18 L49.586,18 Z M48,58 L14,58 C12.897,58 12,57.103 12,56 L12,10 C12,8.897 12.897,8 14,8 L38,8 L38,16 C38,18.206 39.794,20 42,20 L50,20 L50,56 C50,57.103 49.103,58 48,58 L48,58 Z" id="Shape" fill="#000000"></path>
    </g>
</svg>