<?xml version="1.0" encoding="UTF-8" standalone="no"?>
<svg width="64px" height="64px" viewBox="0 0 64 64" version="1.1" xmlns="http://www.w3.org/2000/svg" xmlns:xlink="http://www.w3.org/1999/xlink">
    <!-- Generator: Sketch 3.7.2 (28276) - http://www.bohemiancoding.com/sketch -->
    <title>fil-audio</title>
    <desc>Created with Sketch.</desc>
    <defs></defs>
    <g id="64px-Line" stroke="none" stroke-width="1" fill="none" fill-rule="evenodd">
        <g id="fil-audio"></g>
        <path d="M31,40 C33.757,40 36,37.757 36,35 L36,27 C36,24.243 33.757,22 31,22 C28.243,22 26,24.243 26,27 L26,35 C26,37.757 28.243,40 31,40 L31,40 Z M28,27 C28,25.346 29.346,24 31,24 C32.654,24 34,25.346 34,27 L34,35 C34,36.654 32.654,38 31,38 C29.346,38 28,36.654 28,35 L28,27 L28,27 Z" id="Shape" fill="#000000"></path>
        <path d="M39,32.002 C38.448,32.002 38,32.45 38,33.002 L38,35.002 C38,38.859 34.864,41.997 31.008,42.002 C31.005,42.002 31.003,42 31,42 C30.997,42 30.995,42.002 30.992,42.002 C27.136,41.998 24,38.86 24,35.002 L24,33.002 C24,32.45 23.552,32.002 23,32.002 C22.448,32.002 22,32.45 22,33.002 L22,35.002 C22,39.626 25.507,43.443 30,43.943 L30,48 L28,48 C27.448,48 27,48.448 27,49 C27,49.552 27.448,50 28,50 L34,50 C34.552,50 35,49.552 35,49 C35,48.448 34.552,48 34,48 L32,48 L32,43.943 C36.493,43.443 40,39.626 40,35.002 L40,33.002 C40,32.45 39.552,32.002 39,32.002 L39,32.002 Z" id="Shape" fill="#000000"></path>
        <path d="M40.707,6.293 C40.52,6.105 40.265,6 40,6 L14,6 C11.794,6 10,7.794 10,10 L10,56 C10,58.206 11.794,60 14,60 L48,60 C50.206,60 52,58.206 52,56 L52,18 C52,17.735 51.895,17.48 51.707,17.293 L40.707,6.293 L40.707,6.293 Z M49.586,18 L42,18 C40.897,18 40,17.103 40,16 L40,8.414 L49.586,18 L49.586,18 Z M48,58 L14,58 C12.897,58 12,57.103 12,56 L12,10 C12,8.897 12.897,8 14,8 L38,8 L38,16 C38,18.206 39.794,20 42,20 L50,20 L50,56 C50,57.103 49.103,58 48,58 L48,58 Z" id="Shape" fill="#000000"></path>
    </g>
</svg>