<?xml version="1.0" encoding="UTF-8" standalone="no"?>
<svg width="64px" height="64px" viewBox="0 0 64 64" version="1.1" xmlns="http://www.w3.org/2000/svg" xmlns:xlink="http://www.w3.org/1999/xlink">
    <!-- Generator: Sketch 3.7.2 (28276) - http://www.bohemiancoding.com/sketch -->
    <title>fil-email</title>
    <desc>Created with Sketch.</desc>
    <defs></defs>
    <g id="64px-Line" stroke="none" stroke-width="1" fill="none" fill-rule="evenodd">
        <g id="fil-email"></g>
        <path d="M45.933,24.669 C45.909,24.602 45.874,24.546 45.837,24.487 C45.814,24.449 45.805,24.406 45.776,24.37 C45.765,24.356 45.748,24.351 45.736,24.337 C45.689,24.285 45.633,24.247 45.576,24.205 C45.526,24.169 45.481,24.13 45.427,24.104 C45.372,24.078 45.312,24.067 45.252,24.051 C45.185,24.033 45.12,24.014 45.05,24.01 C45.032,24.009 45.017,24 44.999,24 L18.999,24 C18.98,24 18.964,24.01 18.944,24.011 C18.876,24.015 18.813,24.033 18.747,24.051 C18.686,24.067 18.625,24.079 18.568,24.106 C18.515,24.131 18.47,24.17 18.421,24.205 C18.363,24.247 18.307,24.286 18.26,24.339 C18.248,24.352 18.231,24.359 18.219,24.373 C18.191,24.408 18.183,24.45 18.16,24.487 C18.123,24.547 18.088,24.604 18.064,24.672 C18.041,24.738 18.033,24.803 18.024,24.871 C18.02,24.915 18,24.954 18,25 L18,43 C18,43.553 18.447,44 19,44 L45,44 C45.553,44 46,43.553 46,43 L46,25 C46,24.954 45.98,24.915 45.974,24.871 C45.965,24.802 45.957,24.735 45.933,24.669 L45.933,24.669 Z M42.182,26 L32.494,33.867 C32.275,34.043 31.846,34.043 31.627,33.867 L21.84,26 L42.182,26 L42.182,26 Z M20,42 L20,27.087 L30.373,35.426 C30.846,35.806 31.452,35.996 32.06,35.996 C32.668,35.996 33.277,35.806 33.752,35.423 L44,27.101 L44,42 L20,42 L20,42 Z" id="Shape" fill="#000000"></path>
        <path d="M40.707,6.293 C40.52,6.105 40.266,6 40,6 L16,6 C13.794,6 12,7.794 12,10 L12,56 C12,58.206 13.794,60 16,60 L48,60 C50.206,60 52,58.206 52,56 L52,18 C52,17.734 51.895,17.48 51.707,17.293 L40.707,6.293 L40.707,6.293 Z M49.586,18 L42,18 C40.897,18 40,17.103 40,16 L40,8.414 L49.586,18 L49.586,18 Z M48,58 L16,58 C14.897,58 14,57.103 14,56 L14,10 C14,8.897 14.897,8 16,8 L38,8 L38,16 C38,18.206 39.794,20 42,20 L50,20 L50,56 C50,57.103 49.103,58 48,58 L48,58 Z" id="Shape" fill="#000000"></path>
    </g>
</svg>