<?xml version="1.0" encoding="UTF-8" standalone="no"?>
<svg width="64px" height="64px" viewBox="0 0 64 64" version="1.1" xmlns="http://www.w3.org/2000/svg" xmlns:xlink="http://www.w3.org/1999/xlink">
    <!-- Generator: Sketch 3.7.2 (28276) - http://www.bohemiancoding.com/sketch -->
    <title>fil-music</title>
    <desc>Created with Sketch.</desc>
    <defs></defs>
    <g id="64px-Line" stroke="none" stroke-width="1" fill="none" fill-rule="evenodd">
        <g id="fil-music"></g>
        <path d="M40.791,24.022 L26.791,27.022 C26.33,27.121 26,27.528 26,28 L26,39.5 C26,39.776 25.776,40 25.5,40 L23,40 C20.056,40 18,41.645 18,44 C18,46.355 20.056,48 23,48 C25.944,48 28,46.355 28,44 L28,34.809 L40,32.238 L40,36.501 C40,36.777 39.776,37.001 39.5,37.001 L37,37.001 C34.056,37.001 32,38.646 32,41.001 C32,43.356 34.056,45.001 37,45.001 C39.944,45.001 42,43.356 42,41.001 L42,25.001 C42,24.699 41.864,24.413 41.629,24.223 C41.395,24.033 41.085,23.961 40.791,24.022 L40.791,24.022 Z M26,44 C26,45.476 24.384,46 23,46 C21.616,46 20,45.476 20,44 C20,42.524 21.616,42 23,42 L25.5,42 C25.671,42 25.838,41.983 26,41.95 L26,44 L26,44 Z M40,41 C40,42.476 38.384,43 37,43 C35.616,43 34,42.476 34,41 C34,39.524 35.616,39 37,39 L39.5,39 C39.671,39 39.838,38.983 40,38.95 L40,41 L40,41 Z M28,32.763 L28,28.809 L40,26.237 L40,30.192 L28,32.763 L28,32.763 Z" id="Shape" fill="#000000"></path>
        <path d="M40.707,6.293 C40.52,6.105 40.265,6 40,6 L14,6 C11.794,6 10,7.794 10,10 L10,56 C10,58.206 11.794,60 14,60 L48,60 C50.206,60 52,58.206 52,56 L52,18 C52,17.735 51.895,17.48 51.707,17.293 L40.707,6.293 L40.707,6.293 Z M49.586,18 L42,18 C40.897,18 40,17.103 40,16 L40,8.414 L49.586,18 L49.586,18 Z M48,58 L14,58 C12.897,58 12,57.103 12,56 L12,10 C12,8.897 12.897,8 14,8 L38,8 L38,16 C38,18.206 39.794,20 42,20 L50,20 L50,56 C50,57.103 49.103,58 48,58 L48,58 Z" id="Shape" fill="#000000"></path>
    </g>
</svg>