<?xml version="1.0" encoding="UTF-8" standalone="no"?>
<svg width="64px" height="64px" viewBox="0 0 64 64" version="1.1" xmlns="http://www.w3.org/2000/svg" xmlns:xlink="http://www.w3.org/1999/xlink">
    <!-- Generator: Sketch 3.7.2 (28276) - http://www.bohemiancoding.com/sketch -->
    <title>fil-movie</title>
    <desc>Created with Sketch.</desc>
    <defs></defs>
    <g id="64px-Line" stroke="none" stroke-width="1" fill="none" fill-rule="evenodd">
        <g id="fil-movie"></g>
        <path d="M41,22 L37,22 L25,22 L21,22 C20.448,22 20,22.447 20,23 L20,29 L20,35 L20,41 L20,47 C20,47.553 20.448,48 21,48 L25,48 L37,48 L41,48 C41.552,48 42,47.553 42,47 L42,41 L42,35 L42,29 L42,23 C42,22.447 41.552,22 41,22 L41,22 Z M40,34 L38,34 L38,30 L40,30 L40,34 L40,34 Z M38,36 L40,36 L40,40 L38,40 L38,36 L38,36 Z M40,28 L38,28 L38,24 L40,24 L40,28 L40,28 Z M36,34 L26,34 L26,24 L36,24 L36,34 L36,34 Z M24,34 L22,34 L22,30 L24,30 L24,34 L24,34 Z M22,36 L24,36 L24,40 L22,40 L22,36 L22,36 Z M22,24 L24,24 L24,28 L22,28 L22,24 L22,24 Z M22,42 L24,42 L24,46 L22,46 L22,42 L22,42 Z M26,36 L36,36 L36,46 L26,46 L26,36 L26,36 Z M38,46 L38,42 L40,42 L40,46 L38,46 L38,46 Z" id="Shape" fill="#000000"></path>
        <path d="M40.707,6.293 C40.52,6.105 40.265,6 40,6 L14,6 C11.794,6 10,7.794 10,10 L10,56 C10,58.206 11.794,60 14,60 L48,60 C50.206,60 52,58.206 52,56 L52,18 C52,17.734 51.895,17.48 51.707,17.293 L40.707,6.293 L40.707,6.293 Z M49.586,18 L42,18 C40.897,18 40,17.103 40,16 L40,8.414 L49.586,18 L49.586,18 Z M48,58 L14,58 C12.897,58 12,57.103 12,56 L12,10 C12,8.897 12.897,8 14,8 L38,8 L38,16 C38,18.206 39.794,20 42,20 L50,20 L50,56 C50,57.103 49.103,58 48,58 L48,58 Z" id="Shape" fill="#000000"></path>
    </g>
</svg>