<?xml version="1.0" encoding="UTF-8" standalone="no"?>
<svg width="64px" height="64px" viewBox="0 0 64 64" version="1.1" xmlns="http://www.w3.org/2000/svg" xmlns:xlink="http://www.w3.org/1999/xlink">
    <!-- Generator: Sketch 3.7.2 (28276) - http://www.bohemiancoding.com/sketch -->
    <title>fil-locked</title>
    <desc>Created with Sketch.</desc>
    <defs></defs>
    <g id="64px-Line" stroke="none" stroke-width="1" fill="none" fill-rule="evenodd">
        <g id="fil-locked"></g>
        <path d="M41,32 L38,32 L38,29 C38,25.14 34.859,22 31,22 C27.141,22 24,25.14 24,29 L24,32 L21,32 C20.447,32 20,32.448 20,33 L20,47 C20,47.552 20.447,48 21,48 L41,48 C41.553,48 42,47.552 42,47 L42,33 C42,32.448 41.553,32 41,32 L41,32 Z M26,29 C26,26.243 28.243,24 31,24 C33.757,24 36,26.243 36,29 L36,32 L26,32 L26,29 L26,29 Z M40,46 L22,46 L22,34 L40,34 L40,46 L40,46 Z" id="Shape" fill="#000000"></path>
        <path d="M31,36 C29.897,36 29,36.897 29,38 C29,38.737 29.405,39.375 30,39.722 L30,43 C30,43.552 30.447,44 31,44 C31.553,44 32,43.552 32,43 L32,39.722 C32.595,39.375 33,38.737 33,38 C33,36.897 32.103,36 31,36 L31,36 Z" id="Shape" fill="#000000"></path>
        <path d="M40.707,6.293 C40.52,6.105 40.266,6 40,6 L14,6 C11.794,6 10,7.794 10,10 L10,56 C10,58.206 11.794,60 14,60 L48,60 C50.206,60 52,58.206 52,56 L52,18 C52,17.735 51.895,17.48 51.707,17.293 L40.707,6.293 L40.707,6.293 Z M49.586,18 L42,18 C40.897,18 40,17.103 40,16 L40,8.414 L49.586,18 L49.586,18 Z M48,58 L14,58 C12.897,58 12,57.103 12,56 L12,10 C12,8.897 12.897,8 14,8 L38,8 L38,16 C38,18.206 39.794,20 42,20 L50,20 L50,56 C50,57.103 49.103,58 48,58 L48,58 Z" id="Shape" fill="#000000"></path>
    </g>
</svg>