<?xml version="1.0" encoding="UTF-8" standalone="no"?>
<svg width="64px" height="64px" viewBox="0 0 64 64" version="1.1" xmlns="http://www.w3.org/2000/svg" xmlns:xlink="http://www.w3.org/1999/xlink">
    <!-- Generator: Sketch 3.7.2 (28276) - http://www.bohemiancoding.com/sketch -->
    <title>fin-note-sterling</title>
    <desc>Created with Sketch.</desc>
    <defs></defs>
    <g id="64px-Line" stroke="none" stroke-width="1" fill="none" fill-rule="evenodd">
        <g id="fin-note-sterling"></g>
        <path d="M61,18 L1,18 C0.447,18 0,18.448 0,19 L0,53 C0,53.552 0.447,54 1,54 L61,54 C61.553,54 62,53.552 62,53 L62,19 C62,18.448 61.553,18 61,18 L61,18 Z M60,52 L2,52 L2,20 L60,20 L60,52 L60,52 Z" id="Shape" fill="#000000"></path>
        <path d="M5,16 L57,16 C57.553,16 58,15.552 58,15 C58,14.448 57.553,14 57,14 L5,14 C4.447,14 4,14.448 4,15 C4,15.552 4.447,16 5,16 L5,16 Z" id="Shape" fill="#000000"></path>
        <path d="M9,12 L53,12 C53.553,12 54,11.552 54,11 C54,10.448 53.553,10 53,10 L9,10 C8.447,10 8,10.448 8,11 C8,11.552 8.447,12 9,12 L9,12 Z" id="Shape" fill="#000000"></path>
        <path d="M5,32 C5.553,32 6,31.552 6,31 L6,24 L13,24 C13.553,24 14,23.552 14,23 C14,22.448 13.553,22 13,22 L5,22 C4.447,22 4,22.448 4,23 L4,31 C4,31.552 4.447,32 5,32 L5,32 Z" id="Shape" fill="#000000"></path>
        <path d="M49,50 L57,50 C57.553,50 58,49.552 58,49 L58,41 C58,40.448 57.553,40 57,40 C56.447,40 56,40.448 56,41 L56,48 L49,48 C48.447,48 48,48.448 48,49 C48,49.552 48.447,50 49,50 L49,50 Z" id="Shape" fill="#000000"></path>
        <path d="M49,24 L56,24 L56,31 C56,31.552 56.447,32 57,32 C57.553,32 58,31.552 58,31 L58,23 C58,22.448 57.553,22 57,22 L49,22 C48.447,22 48,22.448 48,23 C48,23.552 48.447,24 49,24 L49,24 Z" id="Shape" fill="#000000"></path>
        <path d="M5,50 L13,50 C13.553,50 14,49.552 14,49 C14,48.448 13.553,48 13,48 L6,48 L6,41 C6,40.448 5.553,40 5,40 C4.447,40 4,40.448 4,41 L4,49 C4,49.552 4.447,50 5,50 L5,50 Z" id="Shape" fill="#000000"></path>
        <path d="M23,38 L26,38 L26,44 C26,45.103 25.103,46 24,46 C23.447,46 23,46.448 23,47 C23,47.552 23.447,48 24,48 L37,48 C37.553,48 38,47.552 38,47 C38,46.448 37.553,46 37,46 L27.463,46 C27.805,45.411 28,44.728 28,44 L28,38 L33,38 C33.553,38 34,37.552 34,37 C34,36.448 33.553,36 33,36 L28,36 L28,30 C28,27.794 29.794,26 32,26 C34.206,26 36,27.794 36,30 C36,30.552 36.447,31 37,31 C37.553,31 38,30.552 38,30 C38,26.691 35.309,24 32,24 C28.691,24 26,26.691 26,30 L26,36 L23,36 C22.447,36 22,36.448 22,37 C22,37.552 22.447,38 23,38 L23,38 Z" id="Shape" fill="#000000"></path>
    </g>
</svg>