<?xml version="1.0" encoding="UTF-8" standalone="no"?>
<svg width="64px" height="64px" viewBox="0 0 64 64" version="1.1" xmlns="http://www.w3.org/2000/svg" xmlns:xlink="http://www.w3.org/1999/xlink">
    <!-- Generator: Sketch 3.7.2 (28276) - http://www.bohemiancoding.com/sketch -->
    <title>fin-yen</title>
    <desc>Created with Sketch.</desc>
    <defs></defs>
    <g id="64px-Line" stroke="none" stroke-width="1" fill="none" fill-rule="evenodd">
        <g id="fin-yen"></g>
        <path d="M31,60 C45.888,60 58,47.888 58,33 C58,18.112 45.888,6 31,6 C16.112,6 4,18.112 4,33 C4,47.888 16.112,60 31,60 L31,60 Z M31,8 C44.785,8 56,19.215 56,33 C56,46.785 44.785,58 31,58 C17.215,58 6,46.785 6,33 C6,19.215 17.215,8 31,8 L31,8 Z" id="Shape" fill="#000000"></path>
        <path d="M29.057,30 L23,30 C22.448,30 22,30.448 22,31 C22,31.552 22.448,32 23,32 L30,32 L30,36 L23,36 C22.448,36 22,36.448 22,37 C22,37.552 22.448,38 23,38 L30,38 L30,49 C30,49.552 30.448,50 31,50 C31.552,50 32,49.552 32,49 L32,38 L39,38 C39.552,38 40,37.552 40,37 C40,36.448 39.552,36 39,36 L32,36 L32,32 L39,32 C39.552,32 40,31.552 40,31 C40,30.448 39.552,30 39,30 L32.943,30 L41.814,17.581 C42.135,17.132 42.031,16.507 41.581,16.186 C41.132,15.865 40.507,15.969 40.186,16.419 L31,29.279 L21.814,16.419 C21.493,15.969 20.866,15.865 20.419,16.186 C19.969,16.507 19.865,17.132 20.186,17.581 L29.057,30 L29.057,30 Z" id="Shape" fill="#000000"></path>
    </g>
</svg>