<?xml version="1.0" encoding="UTF-8" standalone="no"?>
<svg width="64px" height="64px" viewBox="0 0 64 64" version="1.1" xmlns="http://www.w3.org/2000/svg" xmlns:xlink="http://www.w3.org/1999/xlink">
    <!-- Generator: Sketch 3.7.2 (28276) - http://www.bohemiancoding.com/sketch -->
    <title>fin-coin-rupee</title>
    <desc>Created with Sketch.</desc>
    <defs></defs>
    <g id="64px-Line" stroke="none" stroke-width="1" fill="none" fill-rule="evenodd">
        <g id="fin-coin-rupee"></g>
        <path d="M1,56 L23,56 L33.165,56 C33.717,56 34.165,55.552 34.165,55 C34.165,54.448 33.717,54 33.165,54 L24,54 L24,52 L29.079,52 C29.631,52 30.079,51.552 30.079,51 C30.079,50.448 29.631,50 29.079,50 L24,50 L24,48 L26.719,48 C27.271,48 27.719,47.552 27.719,47 C27.719,46.448 27.271,46 26.719,46 L24,46 L24,44 L25.4,44 C25.952,44 26.4,43.552 26.4,43 C26.4,42.448 25.952,42 25.4,42 L24,42 L24,40 L25,40 C25.552,40 26,39.552 26,39 C26,38.448 25.552,38 25,38 L24,38 L24,36 L25.4,36 C25.952,36 26.4,35.552 26.4,35 C26.4,34.448 25.952,34 25.4,34 L24,34 L24,32 L26.627,32 C27.179,32 27.627,31.552 27.627,31 C27.627,30.448 27.179,30 26.627,30 L24,30 L24,28 L28.999,28 C29.551,28 29.999,27.552 29.999,27 C29.999,26.448 29.551,26 28.999,26 L24,26 L24,24 L32.999,24 C33.551,24 33.999,23.552 33.999,23 C33.999,22.448 33.551,22 32.999,22 L24,22 L24,20 L38.017,20 C38.062,20.511 38.478,20.916 39,20.916 C39.552,20.916 40,20.468 40,19.916 L40,11 C40,10.448 39.552,10 39,10 L17,10 C16.448,10 16,10.448 16,11 L16,18 L1,18 C0.448,18 0,18.448 0,19 L0,55 C0,55.552 0.448,56 1,56 L1,56 Z M2,50 L2,48 L22,48 L22,50 L2,50 L2,50 Z M2,46 L2,44 L22,44 L22,46 L2,46 L2,46 Z M2,42 L2,40 L22,40 L22,42 L2,42 L2,42 Z M2,38 L2,36 L22,36 L22,38 L2,38 L2,38 Z M2,34 L2,32 L22,32 L22,34 L2,34 L2,34 Z M2,30 L2,28 L22,28 L22,30 L2,30 L2,30 Z M2,26 L2,24 L22,24 L22,26 L2,26 L2,26 Z M2,52 L22,52 L22,54 L2,54 L2,52 L2,52 Z M18,16 L38,16 L38,18 L23,18 L18,18 L18,16 L18,16 Z M38,12 L38,14 L18,14 L18,12 L38,12 L38,12 Z M17,20 L22,20 L22,22 L2,22 L2,20 L17,20 L17,20 Z" id="Shape" fill="#000000"></path>
        <path d="M45,22 C35.626,22 28,29.626 28,39 C28,48.374 35.626,56 45,56 C54.374,56 62,48.374 62,39 C62,29.626 54.374,22 45,22 L45,22 Z M45,54 C36.729,54 30,47.271 30,39 C30,30.729 36.729,24 45,24 C53.271,24 60,30.729 60,39 C60,47.271 53.271,54 45,54 L45,54 Z" id="Shape" fill="#000000"></path>
        <path d="M51,32 C51.552,32 52,31.552 52,31 C52,30.448 51.552,30 51,30 L39,30 C38.448,30 38,30.448 38,31 C38,31.552 38.448,32 39,32 L44,32 C45.474,32 46.75,32.81 47.444,34 L39,34 C38.448,34 38,34.448 38,35 C38,35.552 38.448,36 39,36 L48,36 C48,38.206 46.206,40 44,40 L39,40 C38.596,40 38.231,40.244 38.076,40.617 C37.921,40.991 38.007,41.421 38.293,41.707 L46.293,49.707 C46.488,49.902 46.744,50 47,50 C47.256,50 47.512,49.902 47.707,49.707 C48.098,49.316 48.098,48.684 47.707,48.293 L41.414,42 L44,42 C47.309,42 50,39.309 50,36 L51,36 C51.552,36 52,35.552 52,35 C52,34.448 51.552,34 51,34 L49.65,34 C49.385,33.254 48.978,32.578 48.46,32 L51,32 L51,32 Z" id="Shape" fill="#000000"></path>
    </g>
</svg>