<?xml version="1.0" encoding="UTF-8" standalone="no"?>
<svg width="64px" height="64px" viewBox="0 0 64 64" version="1.1" xmlns="http://www.w3.org/2000/svg" xmlns:xlink="http://www.w3.org/1999/xlink">
    <!-- Generator: Sketch 3.7.2 (28276) - http://www.bohemiancoding.com/sketch -->
    <title>fin-notes</title>
    <desc>Created with Sketch.</desc>
    <defs></defs>
    <g id="64px-Line" stroke="none" stroke-width="1" fill="none" fill-rule="evenodd">
        <g id="fin-notes"></g>
        <path d="M61.447,23.895 C61.489,23.874 61.516,23.838 61.554,23.812 C61.61,23.774 61.664,23.738 61.711,23.689 C61.762,23.637 61.798,23.578 61.836,23.517 C61.859,23.481 61.892,23.454 61.911,23.414 C61.918,23.398 61.916,23.381 61.922,23.364 C61.948,23.297 61.958,23.228 61.97,23.157 C61.98,23.098 61.994,23.041 61.993,22.982 C61.992,22.92 61.975,22.861 61.962,22.799 C61.948,22.731 61.936,22.666 61.909,22.602 C61.902,22.585 61.903,22.567 61.895,22.551 C61.874,22.509 61.838,22.483 61.812,22.445 C61.774,22.389 61.738,22.334 61.689,22.287 C61.637,22.237 61.578,22.2 61.517,22.163 C61.48,22.14 61.454,22.107 61.414,22.089 L39.414,12.089 C39.14,11.965 38.824,11.97 38.553,12.105 L2.553,30.105 C2.513,30.125 2.487,30.16 2.451,30.184 C2.393,30.223 2.337,30.261 2.287,30.312 C2.238,30.363 2.202,30.421 2.165,30.481 C2.142,30.518 2.108,30.545 2.089,30.585 C2.082,30.601 2.084,30.618 2.078,30.635 C2.052,30.702 2.042,30.771 2.03,30.842 C2.02,30.901 2.006,30.958 2.007,31.017 C2.008,31.079 2.025,31.138 2.038,31.2 C2.052,31.268 2.064,31.333 2.091,31.397 C2.098,31.414 2.097,31.432 2.105,31.448 C2.147,31.532 2.2,31.607 2.261,31.673 C2.263,31.675 2.264,31.677 2.265,31.679 C2.347,31.768 2.447,31.834 2.553,31.887 C2.566,31.893 2.573,31.905 2.586,31.911 L24.586,41.911 C24.717,41.971 24.858,42.001 25,42.001 C25.153,42.001 25.307,41.966 25.447,41.896 L36,36.618 L36,38.382 L24.979,43.893 L3.413,34.09 C2.913,33.86 2.317,34.083 2.089,34.586 C1.86,35.089 2.083,35.682 2.586,35.91 L24.586,45.91 C24.717,45.97 24.858,46 25,46 C25.153,46 25.307,45.965 25.447,45.895 L36,40.618 L36,42.382 L24.979,47.893 L3.413,38.09 C2.913,37.861 2.317,38.084 2.089,38.586 C1.86,39.089 2.083,39.682 2.586,39.91 L24.586,49.91 C24.717,49.97 24.858,50 25,50 C25.153,50 25.307,49.965 25.447,49.895 L36,44.618 L36,46.382 L24.979,51.892 L3.413,42.089 C2.913,41.86 2.317,42.082 2.089,42.585 C1.86,43.088 2.083,43.681 2.586,43.909 L24.586,53.909 C24.717,53.969 24.858,53.999 25,53.999 C25.153,53.999 25.307,53.964 25.447,53.894 L61.447,35.894 C61.941,35.647 62.141,35.046 61.894,34.552 C61.647,34.059 61.047,33.86 60.552,34.105 L50,39.382 L50,37.618 L61.447,31.894 C61.941,31.647 62.141,31.046 61.894,30.552 C61.647,30.058 61.047,29.859 60.552,30.105 L50,35.382 L50,33.618 L61.447,27.894 C61.941,27.647 62.141,27.046 61.894,26.552 C61.647,26.059 61.047,25.859 60.552,26.105 L50,31.382 L50,29.618 L61.447,23.895 L61.447,23.895 Z M36.979,33.892 L17.321,24.957 L27.02,20.107 L46.678,29.042 L36.979,33.892 L36.979,33.892 Z M39.021,14.107 L58.679,23.042 L48.98,27.892 L29.322,18.957 L39.021,14.107 L39.021,14.107 Z M24.979,39.893 L5.321,30.958 L15.02,26.108 L34.678,35.043 L24.979,39.893 L24.979,39.893 Z M48,40.382 L38,45.382 L38,35.618 L48,30.618 L48,40.382 L48,40.382 Z" id="Shape" fill="#000000"></path>
    </g>
</svg>