<?xml version="1.0" encoding="UTF-8" standalone="no"?>
<svg width="64px" height="64px" viewBox="0 0 64 64" version="1.1" xmlns="http://www.w3.org/2000/svg" xmlns:xlink="http://www.w3.org/1999/xlink">
    <!-- Generator: Sketch 3.7.2 (28276) - http://www.bohemiancoding.com/sketch -->
    <title>fin-euro</title>
    <desc>Created with Sketch.</desc>
    <defs></defs>
    <g id="64px-Line" stroke="none" stroke-width="1" fill="none" fill-rule="evenodd">
        <g id="fin-euro"></g>
        <path d="M31,60 C45.888,60 58,47.888 58,33 C58,18.112 45.888,6 31,6 C16.112,6 4,18.112 4,33 C4,47.888 16.112,60 31,60 L31,60 Z M31,8 C44.785,8 56,19.215 56,33 C56,46.785 44.785,58 31,58 C17.215,58 6,46.785 6,33 C6,19.215 17.215,8 31,8 L31,8 Z" id="Shape" fill="#000000"></path>
        <path d="M14,35 C14,35.552 14.448,36 15,36 L16.494,36 C18.166,42.889 24.026,48 31,48 C34.808,48 38.439,46.476 41.223,43.709 C41.615,43.319 41.617,42.686 41.227,42.294 C40.837,41.902 40.205,41.9 39.812,42.29 C37.406,44.683 34.276,46 31,46 C25.123,46 20.15,41.775 18.547,36 L31,36 C31.552,36 32,35.552 32,35 C32,34.448 31.552,34 31,34 L18.148,34 C18.06,33.345 18,32.681 18,32 C18,31.319 18.061,30.655 18.148,30 L31,30 C31.552,30 32,29.552 32,29 C32,28.448 31.552,28 31,28 L18.547,28 C20.15,22.225 25.122,18 31,18 C34.277,18 37.409,19.318 39.816,21.712 C40.209,22.103 40.841,22.099 41.23,21.708 C41.62,21.316 41.618,20.683 41.226,20.294 C38.441,17.525 34.81,16 31,16 C24.026,16 18.165,21.111 16.494,28 L15,28 C14.448,28 14,28.448 14,29 C14,29.552 14.448,30 15,30 L16.13,30 C16.053,30.657 16,31.321 16,32 C16,32.679 16.053,33.343 16.13,34 L15,34 C14.448,34 14,34.448 14,35 L14,35 Z" id="Shape" fill="#000000"></path>
    </g>
</svg>