<?xml version="1.0" encoding="UTF-8" standalone="no"?>
<svg width="64px" height="64px" viewBox="0 0 64 64" version="1.1" xmlns="http://www.w3.org/2000/svg" xmlns:xlink="http://www.w3.org/1999/xlink">
    <!-- Generator: Sketch 3.7.2 (28276) - http://www.bohemiancoding.com/sketch -->
    <title>fin-card-machine</title>
    <desc>Created with Sketch.</desc>
    <defs></defs>
    <g id="64px-Line" stroke="none" stroke-width="1" fill="none" fill-rule="evenodd">
        <g id="fin-card-machine"></g>
        <path d="M41,18 L35,18 C33.458,18 32,19.458 32,21 L32,29 C32,30.542 33.458,32 35,32 L41,32 C42.542,32 44,30.542 44,29 L44,21 C44,19.458 42.542,18 41,18 L41,18 Z M42,21 L42,24 L40,24 L40,20 L41,20 C41.448,20 42,20.552 42,21 L42,21 Z M35,20 L38,20 L38,24 L34,24 L34,21 C34,20.552 34.552,20 35,20 L35,20 Z M41,30 L35,30 C34.552,30 34,29.448 34,29 L34,26 L42,26 L42,29 C42,29.448 41.448,30 41,30 L41,30 Z" id="Shape" fill="#000000"></path>
        <path d="M27,18 C26.447,18 26,18.447 26,19 L26,25 C26,25.553 26.447,26 27,26 C27.553,26 28,25.553 28,25 L28,19 C28,18.447 27.553,18 27,18 L27,18 Z" id="Shape" fill="#000000"></path>
        <path d="M27,28 C26.447,28 26,28.447 26,29 L26,35 C26,35.553 26.447,36 27,36 C27.553,36 28,35.553 28,35 L28,29 C28,28.447 27.553,28 27,28 L27,28 Z" id="Shape" fill="#000000"></path>
        <path d="M27,38 C26.447,38 26,38.447 26,39 L26,45 C26,45.553 26.447,46 27,46 C27.553,46 28,45.553 28,45 L28,39 C28,38.447 27.553,38 27,38 L27,38 Z" id="Shape" fill="#000000"></path>
        <path d="M27,48 C26.447,48 26,48.447 26,49 L26,55 C26,55.553 26.447,56 27,56 C27.553,56 28,55.553 28,55 L28,49 C28,48.447 27.553,48 27,48 L27,48 Z" id="Shape" fill="#000000"></path>
        <path d="M21,18 C20.447,18 20,18.447 20,19 L20,35 C20,35.553 20.447,36 21,36 C21.553,36 22,35.553 22,35 L22,19 C22,18.447 21.553,18 21,18 L21,18 Z" id="Shape" fill="#000000"></path>
        <path d="M54,6 L10,6 C6.691,6 4,8.691 4,12 L4,18 C4,21.309 6.691,24 10,24 L14,24 L14,56 C14,58.206 15.794,60 18,60 L46,60 C48.206,60 50,58.206 50,56 L50,24 L54,24 C57.309,24 60,21.309 60,18 L60,12 C60,8.691 57.309,6 54,6 L54,6 Z M48,56 C48,57.103 47.103,58 46,58 L18,58 C16.897,58 16,57.103 16,56 L16,16 L48,16 L48,56 L48,56 Z M58,18 C58,20.206 56.206,22 54,22 L50,22 L50,16 L53,16 C53.553,16 54,15.553 54,15 C54,14.447 53.553,14 53,14 L11,14 C10.447,14 10,14.447 10,15 C10,15.553 10.447,16 11,16 L14,16 L14,22 L10,22 C7.794,22 6,20.206 6,18 L6,12 C6,9.794 7.794,8 10,8 L54,8 C56.206,8 58,9.794 58,12 L58,18 L58,18 Z" id="Shape" fill="#000000"></path>
    </g>
</svg>