<?xml version="1.0" encoding="UTF-8" standalone="no"?>
<svg width="64px" height="64px" viewBox="0 0 64 64" version="1.1" xmlns="http://www.w3.org/2000/svg" xmlns:xlink="http://www.w3.org/1999/xlink">
    <!-- Generator: Sketch 3.7.2 (28276) - http://www.bohemiancoding.com/sketch -->
    <title>fin-subscription</title>
    <desc>Created with Sketch.</desc>
    <defs></defs>
    <g id="64px-Line" stroke="none" stroke-width="1" fill="none" fill-rule="evenodd">
        <g id="fin-subscription"></g>
        <path d="M32,44 L32,41.925 C34.833,41.526 37,39.473 37,37 C37,34.596 35.058,32.922 31.226,32.025 C29.298,31.58 27,30.693 27,29 C27,27.346 28.794,26 31,26 C33.206,26 35,27.346 35,29 C35,29.553 35.447,30 36,30 C36.553,30 37,29.553 37,29 C37,26.528 34.833,24.474 32,24.075 L32,22 C32,21.447 31.553,21 31,21 C30.447,21 30,21.447 30,22 L30,24.075 C27.167,24.474 25,26.527 25,29 C25,30.66 26.002,32.871 30.772,33.974 C33.577,34.63 35,35.647 35,37 C35,38.654 33.206,40 31,40 C28.794,40 27,38.654 27,37 C27,36.447 26.553,36 26,36 C25.447,36 25,36.447 25,37 C25,39.472 27.167,41.526 30,41.925 L30,44 C30,44.553 30.447,45 31,45 C31.553,45 32,44.553 32,44 L32,44 Z" id="Shape" fill="#000000"></path>
        <path d="M48,33 C48,23.626 40.374,16 31,16 C21.626,16 14,23.626 14,33 C14,42.374 21.626,50 31,50 C40.374,50 48,42.374 48,33 L48,33 Z M16,33 C16,24.729 22.729,18 31,18 C39.271,18 46,24.729 46,33 C46,41.271 39.271,48 31,48 C22.729,48 16,41.271 16,33 L16,33 Z" id="Shape" fill="#000000"></path>
        <path d="M10.293,28.293 L8.146,30.44 C9.424,18.958 19.183,10 31,10 C31.553,10 32,9.553 32,9 C32,8.447 31.553,8 31,8 C17.992,8 7.277,17.988 6.11,30.696 L3.707,28.293 C3.316,27.902 2.684,27.902 2.293,28.293 C1.902,28.684 1.902,29.316 2.293,29.707 L6.292,33.706 C6.384,33.799 6.495,33.872 6.618,33.923 C6.74,33.974 6.87,34 7,34 C7.13,34 7.26,33.974 7.382,33.923 C7.505,33.872 7.616,33.799 7.708,33.706 L11.707,29.707 C12.098,29.316 12.098,28.684 11.707,28.293 C11.316,27.902 10.684,27.902 10.293,28.293 L10.293,28.293 Z" id="Shape" fill="#000000"></path>
        <path d="M55.708,32.294 C55.616,32.201 55.505,32.128 55.381,32.077 C55.137,31.976 54.862,31.976 54.617,32.077 C54.494,32.128 54.383,32.202 54.291,32.294 L50.292,36.293 C49.901,36.684 49.901,37.316 50.292,37.707 C50.683,38.098 51.315,38.098 51.706,37.707 L53.853,35.56 C52.576,47.042 42.817,56 31,56 C30.447,56 30,56.447 30,57 C30,57.553 30.447,58 31,58 C44.008,58 54.723,48.012 55.89,35.304 L58.293,37.707 C58.488,37.902 58.744,38 59,38 C59.256,38 59.512,37.902 59.707,37.707 C60.098,37.316 60.098,36.684 59.707,36.293 L55.708,32.294 L55.708,32.294 Z" id="Shape" fill="#000000"></path>
    </g>
</svg>