<?xml version="1.0" encoding="UTF-8" standalone="no"?>
<svg width="64px" height="64px" viewBox="0 0 64 64" version="1.1" xmlns="http://www.w3.org/2000/svg" xmlns:xlink="http://www.w3.org/1999/xlink">
    <!-- Generator: Sketch 3.7.2 (28276) - http://www.bohemiancoding.com/sketch -->
    <title>fin-gold-bars</title>
    <desc>Created with Sketch.</desc>
    <defs></defs>
    <g id="64px-Line" stroke="none" stroke-width="1" fill="none" fill-rule="evenodd">
        <g id="fin-gold-bars"></g>
        <path d="M39.828,23.561 C40.014,23.287 40.052,22.937 39.929,22.629 L35.929,12.629 C35.777,12.249 35.409,12 35,12 L25,12 C24.591,12 24.224,12.249 24.071,12.629 L20.071,22.629 C19.948,22.937 19.986,23.286 20.172,23.561 C20.359,23.835 20.668,24 21,24 L39,24 C39.332,24 39.642,23.835 39.828,23.561 L39.828,23.561 Z M22.477,22 L25.677,14 L34.323,14 L37.523,22 L22.477,22 L22.477,22 Z" id="Shape" fill="#000000"></path>
        <path d="M25,26 L15,26 C14.591,26 14.224,26.249 14.071,26.629 L10.071,36.629 C9.948,36.937 9.986,37.286 10.172,37.561 C10.359,37.835 10.668,38 11,38 L29,38 C29.332,38 29.642,37.835 29.828,37.561 C30.014,37.287 30.052,36.937 29.929,36.629 L25.929,26.629 C25.776,26.249 25.409,26 25,26 L25,26 Z M12.477,36 L15.677,28 L24.323,28 L27.523,36 L12.477,36 L12.477,36 Z" id="Shape" fill="#000000"></path>
        <path d="M31,38 L49,38 C49.332,38 49.642,37.835 49.828,37.561 C50.014,37.287 50.052,36.937 49.929,36.629 L45.929,26.629 C45.777,26.249 45.409,26 45,26 L35,26 C34.591,26 34.224,26.249 34.071,26.629 L30.071,36.629 C29.948,36.937 29.986,37.286 30.172,37.561 C30.358,37.835 30.668,38 31,38 L31,38 Z M35.677,28 L44.323,28 L47.523,36 L32.476,36 L35.677,28 L35.677,28 Z" id="Shape" fill="#000000"></path>
        <path d="M35.929,40.629 C35.777,40.249 35.409,40 35,40 L25,40 C24.591,40 24.224,40.249 24.071,40.629 L20.071,50.629 C19.948,50.937 19.986,51.286 20.172,51.561 C20.359,51.835 20.668,52 21,52 L39,52 C39.332,52 39.642,51.835 39.828,51.561 C40.014,51.287 40.052,50.937 39.929,50.629 L35.929,40.629 L35.929,40.629 Z M22.477,50 L25.677,42 L34.323,42 L37.523,50 L22.477,50 L22.477,50 Z" id="Shape" fill="#000000"></path>
        <path d="M55.929,40.629 C55.777,40.249 55.409,40 55,40 L45,40 C44.591,40 44.224,40.249 44.071,40.629 L40.071,50.629 C39.948,50.937 39.986,51.286 40.172,51.561 C40.359,51.835 40.668,52 41,52 L59,52 C59.332,52 59.642,51.835 59.828,51.561 C60.014,51.287 60.052,50.937 59.929,50.629 L55.929,40.629 L55.929,40.629 Z M42.477,50 L45.677,42 L54.323,42 L57.523,50 L42.477,50 L42.477,50 Z" id="Shape" fill="#000000"></path>
        <path d="M15.929,40.629 C15.777,40.249 15.409,40 15,40 L5,40 C4.591,40 4.224,40.249 4.071,40.629 L0.071,50.629 C-0.052,50.937 -0.014,51.286 0.172,51.561 C0.359,51.835 0.668,52 1,52 L19,52 C19.332,52 19.642,51.835 19.828,51.561 C20.014,51.287 20.052,50.937 19.929,50.629 L15.929,40.629 L15.929,40.629 Z M2.477,50 L5.677,42 L14.323,42 L17.523,50 L2.477,50 L2.477,50 Z" id="Shape" fill="#000000"></path>
    </g>
</svg>