<?xml version="1.0" encoding="UTF-8" standalone="no"?>
<svg width="64px" height="64px" viewBox="0 0 64 64" version="1.1" xmlns="http://www.w3.org/2000/svg" xmlns:xlink="http://www.w3.org/1999/xlink">
    <!-- Generator: Sketch 3.7.2 (28276) - http://www.bohemiancoding.com/sketch -->
    <title>fin-dollar</title>
    <desc>Created with Sketch.</desc>
    <defs></defs>
    <g id="64px-Line" stroke="none" stroke-width="1" fill="none" fill-rule="evenodd">
        <g id="fin-dollar"></g>
        <path d="M31,46 C27.14,46 24,43.309 24,40 C24,39.448 23.552,39 23,39 C22.448,39 22,39.448 22,40 C22,44.11 25.507,47.503 30,47.948 L30,51 C30,51.552 30.448,52 31,52 C31.552,52 32,51.552 32,51 L32,47.948 C36.493,47.504 40,44.111 40,40 C40,36.198 37.055,33.517 31.243,32.03 C27.938,31.203 24,29.485 24,26 C24,22.691 27.14,20 31,20 C34.86,20 38,22.691 38,26 C38,26.552 38.448,27 39,27 C39.552,27 40,26.552 40,26 C40,21.89 36.493,18.497 32,18.052 L32,15 C32,14.448 31.552,14 31,14 C30.448,14 30,14.448 30,15 L30,18.052 C25.507,18.496 22,21.889 22,26 C22,28.636 23.52,32.158 30.752,33.969 C35.562,35.199 38,37.229 38,40 C38,43.309 34.86,46 31,46 L31,46 Z" id="Shape" fill="#000000"></path>
        <path d="M31,60 C45.888,60 58,47.888 58,33 C58,18.112 45.888,6 31,6 C16.112,6 4,18.112 4,33 C4,47.888 16.112,60 31,60 L31,60 Z M31,8 C44.785,8 56,19.215 56,33 C56,46.785 44.785,58 31,58 C17.215,58 6,46.785 6,33 C6,19.215 17.215,8 31,8 L31,8 Z" id="Shape" fill="#000000"></path>
    </g>
</svg>