<?xml version="1.0" encoding="UTF-8" standalone="no"?>
<svg width="64px" height="64px" viewBox="0 0 64 64" version="1.1" xmlns="http://www.w3.org/2000/svg" xmlns:xlink="http://www.w3.org/1999/xlink">
    <!-- Generator: Sketch 3.7.2 (28276) - http://www.bohemiancoding.com/sketch -->
    <title>fin-bitcoin</title>
    <desc>Created with Sketch.</desc>
    <defs></defs>
    <g id="64px-Line" stroke="none" stroke-width="1" fill="none" fill-rule="evenodd">
        <g id="fin-bitcoin"></g>
        <path d="M31,6 C16.112,6 4,18.112 4,33 C4,47.888 16.112,60 31,60 C45.888,60 58,47.888 58,33 C58,18.112 45.888,6 31,6 L31,6 Z M31,58 C17.215,58 6,46.785 6,33 C6,19.215 17.215,8 31,8 C44.785,8 56,19.215 56,33 C56,46.785 44.785,58 31,58 L31,58 Z" id="Shape" fill="#000000"></path>
        <path d="M38.831,30.856 C40.738,29.604 42,27.447 42,25 C42,21.141 38.86,18 35,18 L30,18 L30,15 C30,14.447 29.552,14 29,14 C28.448,14 28,14.447 28,15 L28,18 L26,18 L26,15 C26,14.447 25.552,14 25,14 C24.448,14 24,14.447 24,15 L24,18 L21,18 C20.448,18 20,18.447 20,19 C20,19.553 20.448,20 21,20 L24,20 L24,46 L21,46 C20.448,46 20,46.447 20,47 C20,47.553 20.448,48 21,48 L24,48 L24,51 C24,51.553 24.448,52 25,52 C25.552,52 26,51.553 26,51 L26,48 L28,48 L28,51 C28,51.553 28.448,52 29,52 C29.552,52 30,51.553 30,51 L30,48 L35,48 C39.962,48 44,43.963 44,39 C44,35.406 41.883,32.298 38.831,30.856 L38.831,30.856 Z M35,20 C37.757,20 40,22.243 40,25 C40,27.757 37.757,30 35,30 L26,30 L26,20 L35,20 L35,20 Z M35,46 L26,46 L26,32 L35,32 C38.86,32 42,35.141 42,39 C42,42.859 38.86,46 35,46 L35,46 Z" id="Shape" fill="#000000"></path>
    </g>
</svg>