<?xml version="1.0" encoding="UTF-8" standalone="no"?>
<svg width="64px" height="64px" viewBox="0 0 64 64" version="1.1" xmlns="http://www.w3.org/2000/svg" xmlns:xlink="http://www.w3.org/1999/xlink">
    <!-- Generator: Sketch 3.7.2 (28276) - http://www.bohemiancoding.com/sketch -->
    <title>fin-coin-sterling</title>
    <desc>Created with Sketch.</desc>
    <defs></defs>
    <g id="64px-Line" stroke="none" stroke-width="1" fill="none" fill-rule="evenodd">
        <g id="fin-coin-sterling"></g>
        <path d="M33.165,56 C33.717,56 34.165,55.552 34.165,55 C34.165,54.448 33.717,54 33.165,54 L24,54 L24,52 L29.079,52 C29.631,52 30.079,51.552 30.079,51 C30.079,50.448 29.631,50 29.079,50 L24,50 L24,48 L26.719,48 C27.271,48 27.719,47.552 27.719,47 C27.719,46.448 27.271,46 26.719,46 L24,46 L24,44 L25.4,44 C25.952,44 26.4,43.552 26.4,43 C26.4,42.448 25.952,42 25.4,42 L24,42 L24,40 L25,40 C25.552,40 26,39.552 26,39 C26,38.448 25.552,38 25,38 L24,38 L24,36 L25.4,36 C25.952,36 26.4,35.552 26.4,35 C26.4,34.448 25.952,34 25.4,34 L24,34 L24,32 L26.627,32 C27.179,32 27.627,31.552 27.627,31 C27.627,30.448 27.179,30 26.627,30 L24,30 L24,28 L28.999,28 C29.551,28 29.999,27.552 29.999,27 C29.999,26.448 29.551,26 28.999,26 L24,26 L24,24 L32.999,24 C33.551,24 33.999,23.552 33.999,23 C33.999,22.448 33.551,22 32.999,22 L24,22 L24,20 L38.017,20 C38.062,20.511 38.478,20.916 39,20.916 C39.552,20.916 40,20.468 40,19.916 L40,11 C40,10.448 39.552,10 39,10 L17,10 C16.448,10 16,10.448 16,11 L16,18 L1,18 C0.448,18 0,18.448 0,19 L0,55 C0,55.552 0.448,56 1,56 L23,56 L33.165,56 L33.165,56 Z M2,46 L2,44 L22,44 L22,46 L2,46 L2,46 Z M2,42 L2,40 L22,40 L22,42 L2,42 L2,42 Z M2,38 L2,36 L22,36 L22,38 L2,38 L2,38 Z M2,34 L2,32 L22,32 L22,34 L2,34 L2,34 Z M2,30 L2,28 L22,28 L22,30 L2,30 L2,30 Z M2,26 L2,24 L22,24 L22,26 L2,26 L2,26 Z M2,48 L22,48 L22,50 L2,50 L2,48 L2,48 Z M18,16 L38,16 L38,18 L23,18 L18,18 L18,16 L18,16 Z M38,12 L38,14 L18,14 L18,12 L38,12 L38,12 Z M17,20 L22,20 L22,22 L2,22 L2,20 L17,20 L17,20 Z M2,52 L22,52 L22,54 L2,54 L2,52 L2,52 Z" id="Shape" fill="#000000"></path>
        <path d="M46,30 C48.206,30 50,31.794 50,34 C50,34.552 50.448,35 51,35 C51.552,35 52,34.552 52,34 C52,30.691 49.309,28 46,28 C42.691,28 40,30.691 40,34 L40,38 L37,38 C36.448,38 36,38.448 36,39 C36,39.552 36.448,40 37,40 L40,40 L40,44 C40,45.103 39.103,46 38,46 C37.448,46 37,46.448 37,47 C37,47.552 37.448,48 38,48 L51,48 C51.552,48 52,47.552 52,47 C52,46.448 51.552,46 51,46 L41.463,46 C41.804,45.411 42,44.728 42,44 L42,40 L47,40 C47.552,40 48,39.552 48,39 C48,38.448 47.552,38 47,38 L42,38 L42,34 C42,31.794 43.794,30 46,30 L46,30 Z" id="Shape" fill="#000000"></path>
        <path d="M45,22 C35.626,22 28,29.626 28,39 C28,48.374 35.626,56 45,56 C54.374,56 62,48.374 62,39 C62,29.626 54.374,22 45,22 L45,22 Z M45,54 C36.729,54 30,47.271 30,39 C30,30.729 36.729,24 45,24 C53.271,24 60,30.729 60,39 C60,47.271 53.271,54 45,54 L45,54 Z" id="Shape" fill="#000000"></path>
    </g>
</svg>