<?xml version="1.0" encoding="UTF-8" standalone="no"?>
<svg width="64px" height="64px" viewBox="0 0 64 64" version="1.1" xmlns="http://www.w3.org/2000/svg" xmlns:xlink="http://www.w3.org/1999/xlink">
    <!-- Generator: Sketch 3.7.2 (28276) - http://www.bohemiancoding.com/sketch -->
    <title>fin-piggy-bank</title>
    <desc>Created with Sketch.</desc>
    <defs></defs>
    <g id="64px-Line" stroke="none" stroke-width="1" fill="none" fill-rule="evenodd">
        <g id="fin-piggy-bank"></g>
        <circle id="Oval" fill="#000000" cx="48" cy="28" r="2"></circle>
        <path d="M59,26 L54.861,26 C54.038,23.907 52.774,21.947 51.158,20.257 L56.223,15.192 C56.281,15.141 56.334,15.085 56.38,15.02 C56.7,14.578 56.605,13.959 56.168,13.632 C56.153,13.62 56.138,13.61 56.123,13.6 C54.614,12.553 52.843,12 51,12 C48.202,12 45.606,13.279 43.905,15.46 C41.409,14.491 38.754,14 36,14 C25.724,14 17.241,21.014 16.131,30 L13,30 C12.656,30 12.32,29.965 11.996,29.898 C13.235,28.634 14,26.905 14,25 C14,22.243 12.206,20 10,20 C7.794,20 6,22.243 6,25 C6,26.905 6.765,28.635 8.004,29.898 C7.68,29.965 7.344,30 7,30 C5.346,30 4,28.206 4,26 C4,25.447 3.552,25 3,25 C2.448,25 2,25.447 2,26 C2,29.309 4.243,32 7,32 C8.073,32 9.09,31.757 10,31.324 C10.91,31.757 11.927,32 13,32 L16,32 C16,36.523 17.852,40.812 21.227,44.134 L20.046,50.826 C19.9,51.649 20.106,52.467 20.609,53.067 C21.106,53.66 21.86,54 22.678,54 L25.678,54 C27.269,54 28.735,52.759 29.015,51.174 L29.399,48.998 C33.627,50.328 38.377,50.328 42.599,48.997 L42.983,51.174 C43.263,52.759 44.729,54 46.32,54 L49.32,54 C50.137,54 50.892,53.66 51.389,53.067 C51.892,52.466 52.098,51.649 51.952,50.826 L50.771,44.137 C52.572,42.36 53.972,40.258 54.859,38 L59,38 C60.654,38 62,36.654 62,35 L62,29 C62,27.346 60.654,26 59,26 L59,26 Z M10,28.998 C8.786,28.085 8,26.633 8,25 C8,23.374 8.916,22 10,22 C11.084,22 12,23.374 12,25 C12,26.633 11.214,28.085 10,28.998 L10,28.998 Z M60,35 C60,35.552 59.551,36 59,36 L54.164,36 C53.737,36 53.357,36.271 53.218,36.676 C52.405,39.045 50.951,41.25 49.014,43.052 C48.766,43.283 48.651,43.624 48.71,43.958 L49.983,51.174 C50.026,51.418 49.982,51.634 49.857,51.782 C49.737,51.925 49.552,52 49.321,52 L46.321,52 C45.703,52 45.064,51.451 44.953,50.826 L44.365,47.495 C44.313,47.202 44.134,46.947 43.875,46.8 C43.722,46.713 43.552,46.669 43.38,46.669 C43.26,46.669 43.14,46.69 43.026,46.733 C40.806,47.574 38.442,48 35.999,48 C33.56,48 31.197,47.574 29.065,46.774 C28.783,46.632 28.45,46.632 28.168,46.775 C27.886,46.918 27.688,47.184 27.633,47.495 L27.045,50.826 C26.935,51.451 26.295,52 25.677,52 L22.677,52 C22.446,52 22.26,51.925 22.141,51.782 C22.016,51.634 21.972,51.418 22.015,51.174 L23.288,43.955 C23.347,43.621 23.232,43.28 22.984,43.049 C19.771,40.06 18,36.136 18,32 C18,23.178 26.075,16 36,16 C38.758,16 41.404,16.54 43.864,17.605 C44.314,17.8 44.839,17.639 45.103,17.227 C46.398,15.206 48.603,13.999 50.999,13.999 C52.026,13.999 53.025,14.22 53.939,14.645 L49.032,19.552 C48.841,19.743 48.735,20.004 48.739,20.276 C48.743,20.547 48.858,20.804 49.055,20.989 C50.973,22.786 52.413,24.978 53.22,27.332 C53.37,27.77 53.804,28.047 54.255,28 L59,28 C59.551,28 60,28.448 60,29 L60,35 L60,35 Z" id="Shape" fill="#000000"></path>
        <path d="M41.299,18.786 C37.902,17.744 34.105,17.743 30.707,18.784 C30.179,18.946 29.882,19.505 30.044,20.033 C30.206,20.561 30.767,20.861 31.293,20.696 C34.311,19.772 37.696,19.772 40.712,20.698 C40.81,20.728 40.909,20.742 41.006,20.742 C41.434,20.742 41.829,20.466 41.962,20.035 C42.124,19.508 41.827,18.948 41.299,18.786 L41.299,18.786 Z" id="Shape" fill="#000000"></path>
    </g>
</svg>