<?xml version="1.0" encoding="UTF-8" standalone="no"?>
<svg width="64px" height="64px" viewBox="0 0 64 64" version="1.1" xmlns="http://www.w3.org/2000/svg" xmlns:xlink="http://www.w3.org/1999/xlink">
    <!-- Generator: Sketch 3.7.2 (28276) - http://www.bohemiancoding.com/sketch -->
    <title>fin-notes-machine</title>
    <desc>Created with Sketch.</desc>
    <defs></defs>
    <g id="64px-Line" stroke="none" stroke-width="1" fill="none" fill-rule="evenodd">
        <g id="fin-notes-machine"></g>
        <path d="M54,6 L10,6 C6.691,6 4,8.691 4,12 L4,18 C4,21.309 6.691,24 10,24 L14,24 L14,51 C14,51.553 14.447,52 15,52 L49,52 C49.553,52 50,51.553 50,51 L50,24 L54,24 C57.309,24 60,21.309 60,18 L60,12 C60,8.691 57.309,6 54,6 L54,6 Z M48,50 L16,50 L16,16 L48,16 L48,50 L48,50 Z M58,18 C58,20.206 56.206,22 54,22 L50,22 L50,16 L53,16 C53.553,16 54,15.553 54,15 C54,14.447 53.553,14 53,14 L11,14 C10.447,14 10,14.447 10,15 C10,15.553 10.447,16 11,16 L14,16 L14,22 L10,22 C7.794,22 6,20.206 6,18 L6,12 C6,9.794 7.794,8 10,8 L54,8 C56.206,8 58,9.794 58,12 L58,18 L58,18 Z" id="Shape" fill="#000000"></path>
        <path d="M15,56 L49,56 C49.553,56 50,55.553 50,55 C50,54.447 49.553,54 49,54 L15,54 C14.447,54 14,54.447 14,55 C14,55.553 14.447,56 15,56 L15,56 Z" id="Shape" fill="#000000"></path>
        <path d="M15,60 L49,60 C49.553,60 50,59.553 50,59 C50,58.447 49.553,58 49,58 L15,58 C14.447,58 14,58.447 14,59 C14,59.553 14.447,60 15,60 L15,60 Z" id="Shape" fill="#000000"></path>
        <path d="M32,20 C27.589,20 24,23.589 24,28 C24,32.411 27.589,36 32,36 C36.411,36 40,32.411 40,28 C40,23.589 36.411,20 32,20 L32,20 Z M32,34 C28.691,34 26,31.309 26,28 C26,24.691 28.691,22 32,22 C35.309,22 38,24.691 38,28 C38,31.309 35.309,34 32,34 L32,34 Z" id="Shape" fill="#000000"></path>
        <path d="M25,46 L20,46 L20,41 C20,40.447 19.553,40 19,40 C18.447,40 18,40.447 18,41 L18,47 C18,47.553 18.447,48 19,48 L25,48 C25.553,48 26,47.553 26,47 C26,46.447 25.553,46 25,46 L25,46 Z" id="Shape" fill="#000000"></path>
        <path d="M45,40 C44.447,40 44,40.447 44,41 L44,46 L39,46 C38.447,46 38,46.447 38,47 C38,47.553 38.447,48 39,48 L45,48 C45.553,48 46,47.553 46,47 L46,41 C46,40.447 45.553,40 45,40 L45,40 Z" id="Shape" fill="#000000"></path>
    </g>
</svg>