<?xml version="1.0" encoding="UTF-8" standalone="no"?>
<svg width="64px" height="64px" viewBox="0 0 64 64" version="1.1" xmlns="http://www.w3.org/2000/svg" xmlns:xlink="http://www.w3.org/1999/xlink">
    <!-- Generator: Sketch 3.7.2 (28276) - http://www.bohemiancoding.com/sketch -->
    <title>fin-dollar-mobile</title>
    <desc>Created with Sketch.</desc>
    <defs></defs>
    <g id="64px-Line" stroke="none" stroke-width="1" fill="none" fill-rule="evenodd">
        <g id="fin-dollar-mobile"></g>
        <path d="M30,6 L8,6 C5.794,6 4,7.794 4,10 L4,56 C4,58.206 5.794,60 8,60 L30,60 C32.206,60 34,58.206 34,56 L34,10 C34,7.794 32.206,6 30,6 L30,6 Z M6,16 L32,16 L32,50 L6,50 L6,16 L6,16 Z M8,8 L30,8 C31.103,8 32,8.897 32,10 L32,14 L6,14 L6,10 C6,8.897 6.897,8 8,8 L8,8 Z M30,58 L8,58 C6.897,58 6,57.103 6,56 L6,52 L32,52 L32,56 C32,57.103 31.103,58 30,58 L30,58 Z" id="Shape" fill="#000000"></path>
        <path d="M19,12 L25,12 C25.552,12 26,11.553 26,11 C26,10.447 25.552,10 25,10 L19,10 C18.448,10 18,10.447 18,11 C18,11.553 18.448,12 19,12 L19,12 Z" id="Shape" fill="#000000"></path>
        <path d="M15,12 C15.13,12 15.26,11.979 15.38,11.92 C15.5,11.87 15.61,11.8 15.71,11.71 C15.9,11.52 16,11.27 16,11 C16,10.87 15.97,10.74 15.92,10.62 C15.87,10.49 15.8,10.39 15.71,10.29 C15.66,10.25 15.61,10.2 15.55,10.17 C15.5,10.13 15.44,10.1 15.38,10.08 C15.32,10.05 15.26,10.03 15.2,10.019 C14.87,9.95 14.53,10.059 14.29,10.29 C14.2,10.39 14.13,10.49 14.08,10.62 C14.03,10.74 14,10.87 14,11 C14,11.27 14.1,11.52 14.29,11.71 C14.48,11.899 14.73,12 15,12 L15,12 Z" id="Shape" fill="#000000"></path>
        <path d="M19.71,54.29 C19.33,53.92 18.67,53.92 18.29,54.29 C18.2,54.39 18.13,54.49 18.08,54.62 C18.03,54.74 18,54.87 18,55 C18,55.27 18.1,55.52 18.29,55.71 C18.48,55.899 18.73,56 19,56 C19.27,56 19.52,55.899 19.71,55.71 C19.9,55.52 20,55.27 20,55 C20,54.87 19.97,54.74 19.92,54.62 C19.87,54.5 19.8,54.39 19.71,54.29 L19.71,54.29 Z" id="Shape" fill="#000000"></path>
        <path d="M37.363,39.163 C37.558,39.358 37.815,39.456 38.071,39.456 C38.327,39.456 38.583,39.358 38.778,39.163 C40.856,37.086 42.001,34.324 42.001,31.385 C42.001,28.447 40.856,25.685 38.778,23.608 C38.387,23.217 37.754,23.217 37.363,23.608 C36.973,23.999 36.973,24.631 37.363,25.022 C39.063,26.721 40,28.981 40,31.385 C40,33.789 39.063,36.05 37.363,37.749 C36.973,38.14 36.973,38.772 37.363,39.163 L37.363,39.163 Z" id="Shape" fill="#000000"></path>
        <path d="M43.02,44.82 C43.215,45.015 43.471,45.113 43.727,45.113 C43.983,45.113 44.239,45.015 44.434,44.82 C48.023,41.23 50,36.459 50,31.384 C50,26.309 48.023,21.538 44.434,17.95 C44.043,17.559 43.411,17.559 43.02,17.95 C42.629,18.341 42.629,18.973 43.02,19.364 C46.232,22.575 48,26.843 48,31.384 C48,35.925 46.231,40.194 43.02,43.405 C42.629,43.797 42.629,44.43 43.02,44.82 L43.02,44.82 Z" id="Shape" fill="#000000"></path>
        <path d="M48.678,12.293 C48.287,12.684 48.287,13.316 48.678,13.707 C53.4,18.43 56,24.708 56,31.385 C56,38.062 53.399,44.34 48.678,49.062 C48.287,49.453 48.287,50.085 48.678,50.476 C48.873,50.671 49.129,50.769 49.385,50.769 C49.641,50.769 49.897,50.671 50.092,50.476 C55.192,45.376 58,38.596 58,31.385 C58,24.174 55.191,17.394 50.092,12.293 C49.701,11.902 49.068,11.902 48.678,12.293 L48.678,12.293 Z" id="Shape" fill="#000000"></path>
        <path d="M19.218,32.024 C17.643,31.672 15,30.81 15,29 C15,27.346 16.794,26 19,26 C21.206,26 23,27.346 23,29 C23,29.553 23.448,30 24,30 C24.552,30 25,29.553 25,29 C25,26.528 22.833,24.474 20,24.075 L20,22 C20,21.447 19.552,21 19,21 C18.448,21 18,21.447 18,22 L18,24.075 C15.167,24.474 13,26.527 13,29 C13,31.374 15.053,33.141 18.757,33.97 C22.518,34.914 23,36.085 23,37 C23,38.654 21.206,40 19,40 C16.794,40 15,38.654 15,37 C15,36.447 14.552,36 14,36 C13.448,36 13,36.447 13,37 C13,39.472 15.167,41.526 18,41.925 L18,44 C18,44.553 18.448,45 19,45 C19.552,45 20,44.553 20,44 L20,41.925 C22.833,41.526 25,39.473 25,37 C25,33.475 20.818,32.425 19.218,32.024 L19.218,32.024 Z" id="Shape" fill="#000000"></path>
    </g>
</svg>