<?xml version="1.0" encoding="UTF-8" standalone="no"?>
<svg width="64px" height="64px" viewBox="0 0 64 64" version="1.1" xmlns="http://www.w3.org/2000/svg" xmlns:xlink="http://www.w3.org/1999/xlink">
    <!-- Generator: Sketch 3.7.2 (28276) - http://www.bohemiancoding.com/sketch -->
    <title>fin-credit-card</title>
    <desc>Created with Sketch.</desc>
    <defs></defs>
    <g id="64px-Line" stroke="none" stroke-width="1" fill="none" fill-rule="evenodd">
        <g id="fin-credit-card"></g>
        <path d="M8,12 C5.794,12 4,13.794 4,16 L4,48 C4,50.206 5.794,52 8,52 L56,52 C58.206,52 60,50.206 60,48 L60,16 C60,13.794 58.206,12 56,12 L8,12 L8,12 Z M58,16 L58,48 C58,49.103 57.103,50 56,50 L8,50 C6.897,50 6,49.103 6,48 L6,16 C6,14.897 6.897,14 8,14 L56,14 C57.103,14 58,14.897 58,16 L58,16 Z" id="Shape" fill="#000000"></path>
        <path d="M13,28 L21,28 C22.542,28 24,26.542 24,25 L24,21 C24,19.458 22.542,18 21,18 L13,18 C11.458,18 10,19.458 10,21 L10,25 C10,26.542 11.458,28 13,28 L13,28 Z M12,25 L12,24 L16,24 L16,26 L13,26 C12.551,26 12,25.448 12,25 L12,25 Z M22,21 L22,25 C22,25.448 21.449,26 21,26 L18,26 L18,20 L21,20 C21.449,20 22,20.552 22,21 L22,21 Z M13,20 L16,20 L16,22 L12,22 L12,21 C12,20.552 12.551,20 13,20 L13,20 Z" id="Shape" fill="#000000"></path>
        <path d="M11,34 L17,34 C17.552,34 18,33.553 18,33 C18,32.447 17.552,32 17,32 L11,32 C10.448,32 10,32.447 10,33 C10,33.553 10.448,34 11,34 L11,34 Z" id="Shape" fill="#000000"></path>
        <path d="M22,33 C22,33.553 22.448,34 23,34 L29,34 C29.552,34 30,33.553 30,33 C30,32.447 29.552,32 29,32 L23,32 C22.448,32 22,32.447 22,33 L22,33 Z" id="Shape" fill="#000000"></path>
        <path d="M41,32 L35,32 C34.448,32 34,32.447 34,33 C34,33.553 34.448,34 35,34 L41,34 C41.552,34 42,33.553 42,33 C42,32.447 41.552,32 41,32 L41,32 Z" id="Shape" fill="#000000"></path>
        <path d="M53,32 L47,32 C46.448,32 46,32.447 46,33 C46,33.553 46.448,34 47,34 L53,34 C53.552,34 54,33.553 54,33 C54,32.447 53.552,32 53,32 L53,32 Z" id="Shape" fill="#000000"></path>
        <path d="M31,40 L11,40 C10.448,40 10,40.447 10,41 C10,41.553 10.448,42 11,42 L31,42 C31.552,42 32,41.553 32,41 C32,40.447 31.552,40 31,40 L31,40 Z" id="Shape" fill="#000000"></path>
    </g>
</svg>