<?xml version="1.0" encoding="UTF-8" standalone="no"?>
<svg width="64px" height="64px" viewBox="0 0 64 64" version="1.1" xmlns="http://www.w3.org/2000/svg" xmlns:xlink="http://www.w3.org/1999/xlink">
    <!-- Generator: Sketch 3.7.2 (28276) - http://www.bohemiancoding.com/sketch -->
    <title>fin-rupee-bag</title>
    <desc>Created with Sketch.</desc>
    <defs></defs>
    <g id="64px-Line" stroke="none" stroke-width="1" fill="none" fill-rule="evenodd">
        <g id="fin-rupee-bag"></g>
        <path d="M8,46 C8,55.42 14.869,60 29,60 C44.047,60 52,55.159 52,46 C52,37.016 45.029,25.627 37.143,21.093 C37.672,20.552 38,19.814 38,19 C38,17.722 37.194,16.636 36.066,16.205 C36.73,11.03 43.528,5.854 43.601,5.8 C44.001,5.499 44.118,4.947 43.872,4.51 C43.627,4.074 43.099,3.884 42.63,4.071 C42.582,4.091 37.757,6 34.001,6 C32.888,6 31.114,5.521 29.399,5.057 C27.478,4.537 25.493,4 24.001,4 C17.702,4 16.319,6.126 16.106,6.553 C15.859,7.047 16.059,7.648 16.553,7.895 C16.623,7.93 23.258,11.312 23.933,16.206 C22.806,16.637 22,17.723 22,19 C22,19.814 22.329,20.552 22.857,21.093 C14.972,25.627 8,37.017 8,46 L8,46 Z M34.718,20 L25,20 C24.448,20 24,19.551 24,19 C24,18.449 24.448,18 25,18 L35,18 C35.552,18 36,18.449 36,19 C36,19.551 35.552,20 35,20 L34.74,20 L34.718,20 L34.718,20 Z M18.771,6.86 C19.62,6.452 21.195,6 24,6 C25.227,6 27.082,6.502 28.876,6.987 C30.802,7.508 32.621,8 34,8 C35.634,8 37.403,7.691 38.96,7.312 C36.85,9.525 34.485,12.682 34.07,16 L25.932,16 C25.353,11.503 21.014,8.256 18.771,6.86 L18.771,6.86 Z M25.484,22 L34.517,22 C42.356,25.351 50,37.165 50,46 C50,55.918 38.58,58 29,58 C16.037,58 10,54.187 10,46 C10,37.166 17.644,25.35 25.484,22 L25.484,22 Z" id="Shape" fill="#000000"></path>
        <path d="M24,37 C24,37.552 24.447,38 25,38 L34,38 C34,40.206 32.206,42 30,42 L25,42 C24.596,42 24.23,42.244 24.076,42.617 C23.921,42.991 24.007,43.421 24.293,43.707 L32.293,51.707 C32.488,51.902 32.744,52 33,52 C33.256,52 33.512,51.902 33.707,51.707 C34.098,51.316 34.098,50.684 33.707,50.293 L27.414,44 L30,44 C33.309,44 36,41.309 36,38 L37,38 C37.553,38 38,37.552 38,37 C38,36.448 37.553,36 37,36 L35.65,36 C35.385,35.254 34.978,34.578 34.46,34 L37,34 C37.553,34 38,33.552 38,33 C38,32.448 37.553,32 37,32 L25,32 C24.447,32 24,32.448 24,33 C24,33.552 24.447,34 25,34 L30,34 C31.474,34 32.75,34.81 33.444,36 L25,36 C24.447,36 24,36.448 24,37 L24,37 Z" id="Shape" fill="#000000"></path>
    </g>
</svg>