<?xml version="1.0" encoding="UTF-8" standalone="no"?>
<svg width="64px" height="64px" viewBox="0 0 64 64" version="1.1" xmlns="http://www.w3.org/2000/svg" xmlns:xlink="http://www.w3.org/1999/xlink">
    <!-- Generator: Sketch 3.7.2 (28276) - http://www.bohemiancoding.com/sketch -->
    <title>fin-notes-coins</title>
    <desc>Created with Sketch.</desc>
    <defs></defs>
    <g id="64px-Line" stroke="none" stroke-width="1" fill="none" fill-rule="evenodd">
        <g id="fin-notes-coins"></g>
        <path d="M59.447,27.895 C59.489,27.874 59.517,27.837 59.555,27.811 C59.612,27.772 59.667,27.736 59.715,27.686 C59.765,27.634 59.801,27.574 59.838,27.513 C59.861,27.475 59.895,27.448 59.914,27.407 C59.921,27.392 59.918,27.376 59.924,27.362 C59.95,27.295 59.959,27.225 59.971,27.153 C59.98,27.094 59.995,27.038 59.994,26.979 C59.993,26.918 59.975,26.86 59.962,26.8 C59.948,26.731 59.936,26.664 59.908,26.6 C59.901,26.585 59.903,26.569 59.895,26.554 C59.874,26.512 59.838,26.486 59.812,26.448 C59.773,26.39 59.735,26.333 59.684,26.284 C59.634,26.236 59.577,26.203 59.52,26.167 C59.48,26.142 59.451,26.106 59.407,26.086 L41.407,18.086 C41.134,17.965 40.821,17.973 40.553,18.106 L4.553,36.106 C4.509,36.128 4.482,36.165 4.443,36.192 C4.387,36.23 4.333,36.265 4.286,36.315 C4.236,36.368 4.2,36.427 4.163,36.489 C4.14,36.526 4.106,36.554 4.088,36.595 C4.081,36.61 4.084,36.626 4.078,36.64 C4.052,36.707 4.043,36.777 4.031,36.849 C4.022,36.908 4.007,36.964 4.008,37.023 C4.009,37.084 4.027,37.142 4.04,37.202 C4.054,37.271 4.066,37.338 4.094,37.402 C4.101,37.417 4.099,37.433 4.107,37.448 C4.151,37.536 4.207,37.615 4.271,37.684 C4.273,37.686 4.275,37.687 4.277,37.689 C4.358,37.774 4.455,37.837 4.558,37.889 C4.572,37.896 4.581,37.909 4.595,37.915 L22.595,45.915 C22.723,45.972 22.862,46 23,46 C23.153,46 23.307,45.965 23.447,45.895 L34,40.618 L34,42.382 L22.975,47.895 L5.406,40.086 C4.9,39.862 4.311,40.089 4.086,40.594 C3.861,41.099 4.089,41.69 4.593,41.914 L22.593,49.914 C22.723,49.972 22.862,50 23,50 C23.153,50 23.307,49.965 23.447,49.895 L34,44.618 L34,46.382 L22.975,51.895 L5.406,44.086 C4.9,43.861 4.311,44.09 4.086,44.594 C3.861,45.099 4.089,45.69 4.593,45.914 L22.593,53.914 C22.723,53.972 22.862,54 23,54 C23.153,54 23.307,53.965 23.447,53.895 L34,48.618 L34,50.382 L22.975,55.894 L5.406,48.085 C4.9,47.861 4.311,48.089 4.086,48.593 C3.861,49.098 4.089,49.689 4.593,49.913 L22.593,57.913 C22.723,57.972 22.862,58 23,58 C23.153,58 23.307,57.965 23.447,57.895 L59.447,39.895 C59.941,39.648 60.141,39.047 59.894,38.553 C59.647,38.06 59.047,37.861 58.552,38.106 L48,43.382 L48,41.618 L59.447,35.894 C59.941,35.647 60.141,35.046 59.894,34.552 C59.647,34.059 59.047,33.86 58.552,34.105 L48,39.382 L48,37.618 L59.447,31.894 C59.941,31.647 60.141,31.046 59.894,30.552 C59.647,30.058 59.047,29.859 58.552,30.105 L48,35.382 L48,33.618 L59.447,27.895 L59.447,27.895 Z M34.975,37.894 L19.343,30.946 L29.025,26.105 L44.657,33.053 L34.975,37.894 L34.975,37.894 Z M41.025,20.105 L56.657,27.053 L46.975,31.894 L31.343,24.946 L41.025,20.105 L41.025,20.105 Z M22.975,43.895 L7.343,36.947 L17.025,32.106 L32.657,39.054 L22.975,43.895 L22.975,43.895 Z M46,44.382 L36,49.382 L36,39.618 L46,34.618 L46,44.382 L46,44.382 Z" id="Shape" fill="#000000"></path>
        <path d="M21,6 C13.589,6 8,8.579 8,12 C8,15.421 13.589,18 21,18 C28.411,18 34,15.421 34,12 C34,8.579 28.411,6 21,6 L21,6 Z M21,16 C14.704,16 10,13.889 10,12 C10,10.111 14.704,8 21,8 C27.296,8 32,10.111 32,12 C32,13.889 27.296,16 21,16 L21,16 Z" id="Shape" fill="#000000"></path>
        <path d="M33.899,17.438 C34.141,16.942 33.935,16.343 33.438,16.101 C32.942,15.861 32.343,16.067 32.101,16.563 C31.296,18.216 26.823,20 21,20 C15.184,20 10.708,18.218 9.897,16.567 C9.653,16.07 9.055,15.867 8.559,16.11 C8.063,16.353 7.859,16.953 8.102,17.448 C9.418,20.128 14.722,22 21,22 C27.287,22 32.591,20.124 33.899,17.438 L33.899,17.438 Z" id="Shape" fill="#000000"></path>
        <path d="M22,25 C22,24.447 21.552,24 21,24 C15.184,24 10.708,22.218 9.897,20.567 C9.653,20.07 9.055,19.867 8.559,20.11 C8.063,20.353 7.859,20.953 8.102,21.448 C9.418,24.128 14.722,26 21,26 C21.552,26 22,25.553 22,25 L22,25 Z" id="Shape" fill="#000000"></path>
        <path d="M14.533,29.236 C14.979,29.236 15.386,28.935 15.501,28.484 C15.638,27.949 15.315,27.404 14.78,27.267 C12.272,26.625 10.401,25.591 9.898,24.566 C9.654,24.071 9.054,23.866 8.56,24.11 C8.064,24.353 7.86,24.953 8.103,25.449 C8.892,27.053 11.087,28.387 14.285,29.205 C14.368,29.227 14.451,29.236 14.533,29.236 L14.533,29.236 Z" id="Shape" fill="#000000"></path>
        <path d="M9.898,28.567 C9.655,28.073 9.056,27.866 8.56,28.109 C8.064,28.352 7.859,28.952 8.102,29.448 C8.408,30.073 8.927,30.659 9.643,31.19 C9.822,31.323 10.031,31.386 10.238,31.386 C10.544,31.386 10.846,31.246 11.042,30.982 C11.371,30.539 11.278,29.912 10.834,29.583 C10.384,29.25 10.06,28.898 9.898,28.567 L9.898,28.567 Z" id="Shape" fill="#000000"></path>
    </g>
</svg>