<?xml version="1.0" encoding="UTF-8" standalone="no"?>
<svg width="64px" height="64px" viewBox="0 0 64 64" version="1.1" xmlns="http://www.w3.org/2000/svg" xmlns:xlink="http://www.w3.org/1999/xlink">
    <!-- Generator: Sketch 3.7.2 (28276) - http://www.bohemiancoding.com/sketch -->
    <title>fin-dollar-computer</title>
    <desc>Created with Sketch.</desc>
    <defs></defs>
    <g id="64px-Line" stroke="none" stroke-width="1" fill="none" fill-rule="evenodd">
        <g id="fin-dollar-computer"></g>
        <path d="M24.243,50.03 C23.709,49.897 23.164,50.22 23.03,50.758 L22.03,54.758 C22.02,54.799 22.029,54.839 22.024,54.88 C22.019,54.921 22,54.957 22,55 C22,55.044 22.011,55.084 22.013,55.128 C22.015,55.142 22.015,55.155 22.017,55.169 C22.107,56.744 23.403,58 25,58 L37,58 C38.596,58 39.893,56.743 39.983,55.169 C39.985,55.155 39.985,55.142 39.987,55.128 C39.989,55.085 40,55.044 40,55 C40,54.958 39.981,54.921 39.976,54.88 C39.971,54.839 39.981,54.799 39.97,54.758 L38.97,50.758 C38.836,50.221 38.293,49.898 37.757,50.03 C37.221,50.164 36.896,50.707 37.029,51.242 L37.985,55.068 C37.949,55.586 37.527,56 37,56 L25,56 C24.473,56 24.051,55.586 24.014,55.068 L24.97,51.242 C25.104,50.707 24.778,50.164 24.243,50.03 L24.243,50.03 Z" id="Shape" fill="#000000"></path>
        <path d="M54,48 C56.206,48 58,46.206 58,44 L58,10 C58,7.794 56.206,6 54,6 L8,6 C5.794,6 4,7.794 4,10 L4,44 C4,46.206 5.794,48 8,48 L54,48 L54,48 Z M8,8 L54,8 C55.103,8 56,8.897 56,10 L56,38 L6,38 L6,10 C6,8.897 6.897,8 8,8 L8,8 Z M6,44 L6,40 L56,40 L56,44 C56,45.103 55.103,46 54,46 L8,46 C6.897,46 6,45.103 6,44 L6,44 Z" id="Shape" fill="#000000"></path>
        <path d="M31,30 C28.794,30 27,28.654 27,27 C27,26.447 26.552,26 26,26 C25.448,26 25,26.447 25,27 C25,29.472 27.167,31.526 30,31.925 L30,34 C30,34.553 30.448,35 31,35 C31.552,35 32,34.553 32,34 L32,31.925 C34.833,31.526 37,29.473 37,27 C37,23.43 32.662,22.375 31.229,22.026 C28.423,21.366 27,20.348 27,19 C27,17.346 28.794,16 31,16 C33.206,16 35,17.346 35,19 C35,19.553 35.448,20 36,20 C36.552,20 37,19.553 37,19 C37,16.528 34.833,14.474 32,14.075 L32,12 C32,11.447 31.552,11 31,11 C30.448,11 30,11.447 30,12 L30,14.075 C27.167,14.474 25,16.527 25,19 C25,21.399 26.941,23.072 30.764,23.972 C34.561,24.895 35,26.142 35,27 C35,28.654 33.206,30 31,30 L31,30 Z" id="Shape" fill="#000000"></path>
    </g>
</svg>