<?xml version="1.0" encoding="UTF-8" standalone="no"?>
<svg width="64px" height="64px" viewBox="0 0 64 64" version="1.1" xmlns="http://www.w3.org/2000/svg" xmlns:xlink="http://www.w3.org/1999/xlink">
    <!-- Generator: Sketch 3.7.2 (28276) - http://www.bohemiancoding.com/sketch -->
    <title>fin-rupee</title>
    <desc>Created with Sketch.</desc>
    <defs></defs>
    <g id="64px-Line" stroke="none" stroke-width="1" fill="none" fill-rule="evenodd">
        <g id="fin-rupee"></g>
        <path d="M31,60 C45.888,60 58,47.888 58,33 C58,18.112 45.888,6 31,6 C16.112,6 4,18.112 4,33 C4,47.888 16.112,60 31,60 L31,60 Z M31,8 C44.785,8 56,19.215 56,33 C56,46.785 44.785,58 31,58 C17.215,58 6,46.785 6,33 C6,19.215 17.215,8 31,8 L31,8 Z" id="Shape" fill="#000000"></path>
        <path d="M20,25 C20,25.552 20.448,26 21,26 L36.92,26 C36.967,26.328 37,26.66 37,27 C37,30.86 33.86,34 30,34 L21,34 C20.596,34 20.231,34.244 20.076,34.617 C19.921,34.991 20.007,35.421 20.293,35.707 L36.293,51.707 C36.488,51.902 36.744,52 37,52 C37.256,52 37.512,51.902 37.707,51.707 C38.098,51.316 38.098,50.684 37.707,50.293 L23.414,36 L30,36 C34.962,36 39,31.962 39,27 C39,26.662 38.978,26.329 38.941,26 L41,26 C41.552,26 42,25.552 42,25 C42,24.448 41.552,24 41,24 L38.475,24 C37.913,22.417 36.927,21.036 35.644,20 L41,20 C41.552,20 42,19.552 42,19 C42,18.448 41.552,18 41,18 L21,18 C20.448,18 20,18.448 20,19 C20,19.552 20.448,20 21,20 L30,20 C32.785,20 35.189,21.639 36.315,24 L21,24 C20.448,24 20,24.448 20,25 L20,25 Z" id="Shape" fill="#000000"></path>
    </g>
</svg>