<?xml version="1.0" encoding="UTF-8" standalone="no"?>
<svg width="64px" height="64px" viewBox="0 0 64 64" version="1.1" xmlns="http://www.w3.org/2000/svg" xmlns:xlink="http://www.w3.org/1999/xlink">
    <!-- Generator: Sketch 3.7.2 (28276) - http://www.bohemiancoding.com/sketch -->
    <title>fin-euro-bag</title>
    <desc>Created with Sketch.</desc>
    <defs></defs>
    <g id="64px-Line" stroke="none" stroke-width="1" fill="none" fill-rule="evenodd">
        <g id="fin-euro-bag"></g>
        <path d="M8,46 C8,57.571 19.964,60 30,60 C45.477,60 54,55.028 54,46 C54,37.455 46.8,26.18 38.781,21.4 C39.516,20.853 40,19.985 40,19 C40,17.722 39.194,16.636 38.066,16.205 C38.73,11.03 45.528,5.854 45.601,5.8 C46.001,5.499 46.118,4.947 45.872,4.51 C45.627,4.074 45.098,3.884 44.63,4.071 C44.582,4.091 39.757,6 36.001,6 C34.86,6 32.577,5.514 30.368,5.044 C27.846,4.507 25.465,4 24,4 C17.701,4 16.318,6.126 16.105,6.553 C15.987,6.79 15.967,7.065 16.051,7.317 C16.134,7.568 16.315,7.776 16.552,7.895 C16.622,7.93 23.257,11.312 23.932,16.206 C22.806,16.637 22,17.723 22,19 C22,19.985 22.483,20.853 23.219,21.4 C15.2,26.18 8,37.455 8,46 L8,46 Z M25,20 C24.448,20 24,19.551 24,19 C24,18.449 24.448,18 25,18 L37,18 C37.552,18 38,18.449 38,19 C38,19.551 37.552,20 37,20 L25,20 L25,20 Z M18.771,6.86 C19.62,6.452 21.195,6 24,6 C25.254,6 27.642,6.508 29.951,7 C32.367,7.514 34.649,8 36,8 C37.634,8 39.403,7.691 40.96,7.312 C38.85,9.525 36.485,12.682 36.07,16 L25.932,16 C25.353,11.503 21.014,8.256 18.771,6.86 L18.771,6.86 Z M26.415,22 L35.585,22 C43.893,25.45 52,37.272 52,46 C52,56.441 38.217,58 30,58 C16.729,58 10,53.962 10,46 C10,37.272 18.107,25.45 26.415,22 L26.415,22 Z" id="Shape" fill="#000000"></path>
        <path d="M20,43 C20,43.552 20.447,44 21,44 L22.349,44 C23.421,48.61 26.89,52 31.001,52 C33.856,52 36.568,50.324 38.257,47.517 C38.541,47.044 38.388,46.43 37.915,46.145 C37.441,45.859 36.827,46.013 36.542,46.487 C35.199,48.719 33.18,50 31.001,50 C27.96,50 25.373,47.49 24.409,44 L31,44 C31.553,44 32,43.552 32,43 C32,42.448 31.553,42 31,42 L24.046,42 C24.018,41.671 24,41.338 24,41 C24,40.662 24.017,40.329 24.046,40 L31,40 C31.553,40 32,39.552 32,39 C32,38.448 31.553,38 31,38 L24.409,38 C25.373,34.51 27.96,32 31.001,32 C33.181,32 35.2,33.28 36.542,35.513 C36.825,35.986 37.441,36.139 37.914,35.855 C38.388,35.571 38.541,34.957 38.257,34.483 C36.569,31.676 33.858,30 31.001,30 C26.89,30 23.421,33.39 22.349,38 L21,38 C20.447,38 20,38.448 20,39 C20,39.552 20.447,40 21,40 L22.041,40 C22.017,40.33 22,40.662 22,41 C22,41.338 22.017,41.67 22.041,42 L21,42 C20.447,42 20,42.448 20,43 L20,43 Z" id="Shape" fill="#000000"></path>
    </g>
</svg>