<?xml version="1.0" encoding="UTF-8" standalone="no"?>
<svg width="64px" height="64px" viewBox="0 0 64 64" version="1.1" xmlns="http://www.w3.org/2000/svg" xmlns:xlink="http://www.w3.org/1999/xlink">
    <!-- Generator: Sketch 3.7.2 (28276) - http://www.bohemiancoding.com/sketch -->
    <title>fin-note-euro</title>
    <desc>Created with Sketch.</desc>
    <defs></defs>
    <g id="64px-Line" stroke="none" stroke-width="1" fill="none" fill-rule="evenodd">
        <g id="fin-note-euro"></g>
        <path d="M61,18 L1,18 C0.447,18 0,18.448 0,19 L0,53 C0,53.552 0.447,54 1,54 L61,54 C61.553,54 62,53.552 62,53 L62,19 C62,18.448 61.553,18 61,18 L61,18 Z M60,52 L2,52 L2,20 L60,20 L60,52 L60,52 Z" id="Shape" fill="#000000"></path>
        <path d="M5,16 L57,16 C57.553,16 58,15.552 58,15 C58,14.448 57.553,14 57,14 L5,14 C4.447,14 4,14.448 4,15 C4,15.552 4.447,16 5,16 L5,16 Z" id="Shape" fill="#000000"></path>
        <path d="M9,12 L53,12 C53.553,12 54,11.552 54,11 C54,10.448 53.553,10 53,10 L9,10 C8.447,10 8,10.448 8,11 C8,11.552 8.447,12 9,12 L9,12 Z" id="Shape" fill="#000000"></path>
        <path d="M5,32 C5.553,32 6,31.552 6,31 L6,24 L13,24 C13.553,24 14,23.552 14,23 C14,22.448 13.553,22 13,22 L5,22 C4.447,22 4,22.448 4,23 L4,31 C4,31.552 4.447,32 5,32 L5,32 Z" id="Shape" fill="#000000"></path>
        <path d="M49,50 L57,50 C57.553,50 58,49.552 58,49 L58,41 C58,40.448 57.553,40 57,40 C56.447,40 56,40.448 56,41 L56,48 L49,48 C48.447,48 48,48.448 48,49 C48,49.552 48.447,50 49,50 L49,50 Z" id="Shape" fill="#000000"></path>
        <path d="M49,24 L56,24 L56,31 C56,31.552 56.447,32 57,32 C57.553,32 58,31.552 58,31 L58,23 C58,22.448 57.553,22 57,22 L49,22 C48.447,22 48,22.448 48,23 C48,23.552 48.447,24 49,24 L49,24 Z" id="Shape" fill="#000000"></path>
        <path d="M5,50 L13,50 C13.553,50 14,49.552 14,49 C14,48.448 13.553,48 13,48 L6,48 L6,41 C6,40.448 5.553,40 5,40 C4.447,40 4,40.448 4,41 L4,49 C4,49.552 4.447,50 5,50 L5,50 Z" id="Shape" fill="#000000"></path>
        <path d="M20,39 C20,39.552 20.447,40 21,40 L22.642,40 C24.157,44.653 28.222,48 33,48 C35.837,48 38.529,46.827 40.582,44.696 C40.965,44.298 40.953,43.665 40.555,43.282 C40.16,42.9 39.526,42.911 39.141,43.308 C37.469,45.044 35.288,46 33,46 C29.317,46 26.149,43.527 24.757,40 L33,40 C33.553,40 34,39.552 34,39 C34,38.448 33.553,38 33,38 L24.181,38 C24.062,37.354 24,36.685 24,36 C24,35.315 24.063,34.646 24.181,34 L33,34 C33.553,34 34,33.552 34,33 C34,32.448 33.553,32 33,32 L24.757,32 C26.149,28.473 29.318,26 33,26 C35.288,26 37.469,26.956 39.142,28.691 C39.527,29.089 40.159,29.101 40.556,28.717 C40.953,28.334 40.965,27.7 40.581,27.303 C38.528,25.173 35.836,24 33,24 C28.222,24 24.157,27.347 22.642,32 L21,32 C20.447,32 20,32.448 20,33 C20,33.552 20.447,34 21,34 L22.166,34 C22.065,34.652 22,35.317 22,36 C22,36.683 22.065,37.348 22.166,38 L21,38 C20.447,38 20,38.448 20,39 L20,39 Z" id="Shape" fill="#000000"></path>
    </g>
</svg>