<?xml version="1.0" encoding="UTF-8" standalone="no"?>
<svg width="64px" height="64px" viewBox="0 0 64 64" version="1.1" xmlns="http://www.w3.org/2000/svg" xmlns:xlink="http://www.w3.org/1999/xlink">
    <!-- Generator: Sketch 3.7.2 (28276) - http://www.bohemiancoding.com/sketch -->
    <title>fin-gold-bars-2</title>
    <desc>Created with Sketch.</desc>
    <defs></defs>
    <g id="64px-Line" stroke="none" stroke-width="1" fill="none" fill-rule="evenodd">
        <g id="fin-gold-bars-2"></g>
        <path d="M53.922,22.614 C53.921,22.612 53.92,22.609 53.919,22.607 L53.919,22.606 C53.873,22.498 53.805,22.405 53.727,22.322 C53.704,22.297 53.678,22.277 53.652,22.255 C53.588,22.199 53.519,22.152 53.443,22.114 C53.411,22.098 53.382,22.082 53.348,22.07 C53.238,22.028 53.122,22 53,22 L45.659,22 L39.922,8.614 C39.921,8.612 39.92,8.609 39.919,8.607 L39.919,8.606 C39.873,8.498 39.805,8.405 39.727,8.322 C39.704,8.297 39.678,8.277 39.652,8.255 C39.588,8.199 39.519,8.152 39.443,8.114 C39.411,8.098 39.382,8.082 39.348,8.07 C39.238,8.028 39.122,8 39,8 L23,8 C22.878,8 22.762,8.029 22.651,8.07 C22.618,8.082 22.588,8.098 22.557,8.114 C22.481,8.152 22.412,8.199 22.348,8.255 C22.322,8.277 22.296,8.297 22.273,8.322 C22.196,8.405 22.128,8.498 22.081,8.606 L22.081,8.607 C22.08,8.609 22.079,8.611 22.078,8.613 L16.341,22 L9,22 C8.878,22 8.762,22.029 8.651,22.07 C8.618,22.082 8.588,22.098 8.557,22.114 C8.481,22.152 8.412,22.199 8.348,22.255 C8.322,22.277 8.296,22.297 8.273,22.322 C8.196,22.405 8.128,22.498 8.081,22.606 L8.081,22.607 C8.08,22.609 8.079,22.611 8.078,22.613 L2.081,36.606 C2.027,36.73 2,36.864 2,37 L2,55 C2,55.01 2.006,55.019 2.006,55.03 C2.009,55.145 2.031,55.257 2.074,55.365 C2.083,55.387 2.095,55.407 2.105,55.428 C2.125,55.469 2.14,55.512 2.165,55.551 C2.195,55.596 2.233,55.633 2.269,55.672 C2.283,55.687 2.293,55.703 2.308,55.717 C2.389,55.795 2.482,55.855 2.582,55.902 C2.605,55.913 2.629,55.921 2.653,55.93 C2.763,55.971 2.879,56 3,56 L31,56 L59,56 C59.121,56 59.236,55.971 59.347,55.93 C59.371,55.921 59.395,55.913 59.418,55.902 C59.519,55.855 59.612,55.795 59.692,55.717 C59.707,55.703 59.717,55.686 59.731,55.672 C59.767,55.633 59.805,55.596 59.835,55.551 C59.86,55.512 59.876,55.47 59.895,55.429 C59.905,55.407 59.917,55.388 59.926,55.365 C59.968,55.257 59.99,55.145 59.994,55.03 C59.994,55.02 60,55.011 60,55 L60,37 C60,36.864 59.973,36.73 59.919,36.606 L53.922,22.614 L53.922,22.614 Z M58,50.129 L54,40.796 L54,27.872 L58,37.205 L58,50.129 L58,50.129 Z M32,42 L35.484,42 L32,50.129 L32,42 L32,42 Z M30,50.129 L26.516,42 L30,42 L30,50.129 L30,50.129 Z M25,40 L18.517,40 L23.66,28 L38.342,28 L43.485,40 L37,40 L25,40 L25,40 Z M10,24 L16,24 L16,40 L10,40 L10,24 L10,24 Z M38,26 L24,26 L24,10 L38,10 L38,26 L38,26 Z M22,26.796 L18,36.129 L18,23.205 L22,13.872 L22,26.796 L22,26.796 Z M46,24 L52,24 L52,40 L46,40 L46,24 L46,24 Z M44,36.129 L40,26.796 L40,13.872 L44,23.205 L44,36.129 L44,36.129 Z M8,27.872 L8,40.796 L4,50.129 L4,37.205 L8,27.872 L8,27.872 Z M4.517,54 L9.66,42 L17,42 L24.341,42 L29.484,54 L4.517,54 L4.517,54 Z M32.517,54 L37.66,42 L45,42 L52.341,42 L57.484,54 L32.517,54 L32.517,54 Z" id="Shape" fill="#000000"></path>
    </g>
</svg>