<?xml version="1.0" encoding="UTF-8" standalone="no"?>
<svg width="64px" height="64px" viewBox="0 0 64 64" version="1.1" xmlns="http://www.w3.org/2000/svg" xmlns:xlink="http://www.w3.org/1999/xlink">
    <!-- Generator: Sketch 3.7.2 (28276) - http://www.bohemiancoding.com/sketch -->
    <title>fin-calculator</title>
    <desc>Created with Sketch.</desc>
    <defs></defs>
    <g id="64px-Line" stroke="none" stroke-width="1" fill="none" fill-rule="evenodd">
        <g id="fin-calculator"></g>
        <path d="M52,8 L10,8 C7.794,8 6,9.794 6,12 L6,54 C6,56.206 7.794,58 10,58 L52,58 C54.206,58 56,56.206 56,54 L56,12 C56,9.794 54.206,8 52,8 L52,8 Z M54,12 L54,32 L32,32 L32,10 L52,10 C53.103,10 54,10.897 54,12 L54,12 Z M10,10 L30,10 L30,32 L8,32 L8,12 C8,10.897 8.897,10 10,10 L10,10 Z M8,54 L8,34 L30,34 L30,56 L10,56 C8.897,56 8,55.103 8,54 L8,54 Z M52,56 L32,56 L32,34 L54,34 L54,54 C54,55.103 53.103,56 52,56 L52,56 Z" id="Shape" fill="#000000"></path>
        <path d="M13,22 L18,22 L18,27 C18,27.553 18.447,28 19,28 C19.553,28 20,27.553 20,27 L20,22 L25,22 C25.553,22 26,21.553 26,21 C26,20.447 25.553,20 25,20 L20,20 L20,15 C20,14.447 19.553,14 19,14 C18.447,14 18,14.447 18,15 L18,20 L13,20 C12.447,20 12,20.447 12,21 C12,21.553 12.447,22 13,22 L13,22 Z" id="Shape" fill="#000000"></path>
        <path d="M20.414,45 L23.707,41.707 C24.098,41.316 24.098,40.684 23.707,40.293 C23.316,39.902 22.684,39.902 22.293,40.293 L19,43.586 L15.707,40.293 C15.316,39.902 14.684,39.902 14.293,40.293 C13.902,40.684 13.902,41.316 14.293,41.707 L17.586,45 L14.293,48.293 C13.902,48.684 13.902,49.316 14.293,49.707 C14.488,49.902 14.744,50 15,50 C15.256,50 15.512,49.902 15.707,49.707 L19,46.414 L22.293,49.707 C22.488,49.902 22.744,50 23,50 C23.256,50 23.512,49.902 23.707,49.707 C24.098,49.316 24.098,48.684 23.707,48.293 L20.414,45 L20.414,45 Z" id="Shape" fill="#000000"></path>
        <path d="M37,22 L49,22 C49.553,22 50,21.553 50,21 C50,20.447 49.553,20 49,20 L37,20 C36.447,20 36,20.447 36,21 C36,21.553 36.447,22 37,22 L37,22 Z" id="Shape" fill="#000000"></path>
        <path d="M49,42 L37,42 C36.447,42 36,42.447 36,43 C36,43.553 36.447,44 37,44 L49,44 C49.553,44 50,43.553 50,43 C50,42.447 49.553,42 49,42 L49,42 Z" id="Shape" fill="#000000"></path>
        <path d="M49,46 L37,46 C36.447,46 36,46.447 36,47 C36,47.553 36.447,48 37,48 L49,48 C49.553,48 50,47.553 50,47 C50,46.447 49.553,46 49,46 L49,46 Z" id="Shape" fill="#000000"></path>
    </g>
</svg>