<?xml version="1.0" encoding="UTF-8" standalone="no"?>
<svg width="64px" height="64px" viewBox="0 0 64 64" version="1.1" xmlns="http://www.w3.org/2000/svg" xmlns:xlink="http://www.w3.org/1999/xlink">
    <!-- Generator: Sketch 3.7.2 (28276) - http://www.bohemiancoding.com/sketch -->
    <title>fin-conversion</title>
    <desc>Created with Sketch.</desc>
    <defs></defs>
    <g id="64px-Line" stroke="none" stroke-width="1" fill="none" fill-rule="evenodd">
        <g id="fin-conversion"></g>
        <path d="M17,40 C19.206,40 21,41.346 21,43 C21,43.553 21.448,44 22,44 C22.552,44 23,43.553 23,43 C23,40.528 20.833,38.474 18,38.075 L18,36 C18,35.447 17.552,35 17,35 C16.448,35 16,35.447 16,36 L16,38.075 C13.167,38.474 11,40.527 11,43 C11,45.406 12.942,47.08 16.758,47.971 C20.518,48.909 21,50.082 21,51 C21,52.654 19.206,54 17,54 C14.794,54 13,52.654 13,51 C13,50.447 12.552,50 12,50 C11.448,50 11,50.447 11,51 C11,53.472 13.167,55.526 16,55.925 L16,58 C16,58.553 16.448,59 17,59 C17.552,59 18,58.553 18,58 L18,55.925 C20.833,55.526 23,53.473 23,51 C23,47.467 18.817,46.423 17.228,46.026 C14.422,45.371 13,44.354 13,43 C13,41.346 14.794,40 17,40 L17,40 Z" id="Shape" fill="#000000"></path>
        <path d="M17,30 C7.626,30 0,37.626 0,47 C0,56.374 7.626,64 17,64 C26.374,64 34,56.374 34,47 C34,37.626 26.374,30 17,30 L17,30 Z M17,62 C8.729,62 2,55.271 2,47 C2,38.729 8.729,32 17,32 C25.271,32 32,38.729 32,47 C32,55.271 25.271,62 17,62 L17,62 Z" id="Shape" fill="#000000"></path>
        <path d="M48,8 C50.206,8 52,9.794 52,12 C52,12.553 52.448,13 53,13 C53.552,13 54,12.553 54,12 C54,8.691 51.309,6 48,6 C44.691,6 42,8.691 42,12 L42,16 L39,16 C38.448,16 38,16.447 38,17 C38,17.553 38.448,18 39,18 L42,18 L42,22 C42,23.103 41.103,24 40,24 C39.448,24 39,24.447 39,25 C39,25.553 39.448,26 40,26 L53,26 C53.552,26 54,25.553 54,25 C54,24.447 53.552,24 53,24 L43.463,24 C43.804,23.411 44,22.728 44,22 L44,18 L49,18 C49.552,18 50,17.553 50,17 C50,16.447 49.552,16 49,16 L44,16 L44,12 C44,9.794 45.794,8 48,8 L48,8 Z" id="Shape" fill="#000000"></path>
        <path d="M47,0 C37.626,0 30,7.626 30,17 C30,26.374 37.626,34 47,34 C56.374,34 64,26.374 64,17 C64,7.626 56.374,0 47,0 L47,0 Z M47,32 C38.729,32 32,25.271 32,17 C32,8.729 38.729,2 47,2 C55.271,2 62,8.729 62,17 C62,25.271 55.271,32 47,32 L47,32 Z" id="Shape" fill="#000000"></path>
        <path d="M6.292,26.706 C6.384,26.799 6.495,26.872 6.618,26.923 C6.74,26.973 6.87,27 7,27 C7.13,27 7.26,26.973 7.382,26.923 C7.505,26.872 7.615,26.799 7.708,26.706 L13.707,20.707 C14.098,20.316 14.098,19.684 13.707,19.293 C13.316,18.902 12.684,18.902 12.293,19.293 L8.189,23.397 C9.472,13.597 17.857,6 28,6 C28.552,6 29,5.553 29,5 C29,4.447 28.552,4 28,4 C16.644,4 7.271,12.649 6.12,23.706 L1.707,19.293 C1.316,18.902 0.684,18.902 0.293,19.293 C-0.098,19.684 -0.098,20.316 0.293,20.707 L6.292,26.706 L6.292,26.706 Z" id="Shape" fill="#000000"></path>
        <path d="M57.708,37.294 C57.616,37.201 57.505,37.128 57.382,37.077 C57.138,36.976 56.862,36.976 56.618,37.077 C56.495,37.128 56.385,37.201 56.292,37.294 L50.293,43.293 C49.902,43.684 49.902,44.316 50.293,44.707 C50.684,45.098 51.316,45.098 51.707,44.707 L55.811,40.603 C54.528,50.403 46.143,58 36,58 C35.448,58 35,58.447 35,59 C35,59.553 35.448,60 36,60 C47.356,60 56.729,51.351 57.88,40.294 L62.293,44.707 C62.488,44.902 62.744,45 63,45 C63.256,45 63.512,44.902 63.707,44.707 C64.098,44.316 64.098,43.684 63.707,43.293 L57.708,37.294 L57.708,37.294 Z" id="Shape" fill="#000000"></path>
    </g>
</svg>