<?xml version="1.0" encoding="UTF-8" standalone="no"?>
<svg width="64px" height="64px" viewBox="0 0 64 64" version="1.1" xmlns="http://www.w3.org/2000/svg" xmlns:xlink="http://www.w3.org/1999/xlink">
    <!-- Generator: Sketch 3.7.2 (28276) - http://www.bohemiancoding.com/sketch -->
    <title>act-stretching</title>
    <desc>Created with Sketch.</desc>
    <defs></defs>
    <g id="64px-Line" stroke="none" stroke-width="1" fill="none" fill-rule="evenodd">
        <g id="act-stretching"></g>
        <path d="M29,4 C25.962,4 24,6.355 24,10 C24,13.645 25.962,16 29,16 C32.038,16 34,13.645 34,10 C34,6.355 32.038,4 29,4 L29,4 Z M29,14 C26.292,14 26,11.203 26,10 C26,8.797 26.292,6 29,6 C31.708,6 32,8.797 32,10 C32,11.203 31.708,14 29,14 L29,14 Z" id="Shape" fill="#000000"></path>
        <path d="M49.268,57.268 C49.74,56.796 50,56.168 50,55.5 C50,54.832 49.74,54.205 49.319,53.787 L37.758,40.349 C37.398,39.931 36.766,39.884 36.347,40.243 C35.929,40.603 35.881,41.235 36.241,41.654 L47.853,55.147 C48.048,55.342 48.048,55.659 47.853,55.854 C47.726,55.981 47.577,56 47.5,56 C47.423,56 47.274,55.981 47.15,55.857 L34.711,43.297 C34.323,42.904 33.689,42.901 33.297,43.29 C32.904,43.679 32.901,44.312 33.29,44.704 L45.732,57.266 C46.204,57.739 46.832,57.999 47.5,57.999 C48.168,57.999 48.795,57.74 49.268,57.268 L49.268,57.268 Z" id="Shape" fill="#000000"></path>
        <path d="M10.427,22.998 L10.431,22.998 L24,23.934 L24,35.105 L15.884,36.007 C13.561,36.279 12,37.884 12,40 L12,55.5 C12,56.878 13.122,58 14.5,58 C15.817,58 16.867,56.987 16.998,55.569 L17.896,42.544 C17.929,42.215 17.995,42 18.584,42 L30,42 C33.309,42 36,39.309 36,36 L36,23.933 L49.5,23 C50.878,23 52,21.878 52,20.5 C52,19.122 50.878,18 49.5,18 L10.5,18 C9.122,18 8,19.122 8,20.5 C8,21.877 9.119,22.998 10.427,22.998 L10.427,22.998 Z M10.5,20 L49.5,20 C49.776,20 50,20.224 50,20.5 C50,20.776 49.776,21 49.431,21.002 L34.931,22.002 C34.407,22.039 34,22.475 34,23 L34,36 C34,38.206 32.206,40 30,40 L18.583,40 C17.078,40 16.052,40.897 15.903,42.375 L15.005,55.408 C14.979,55.681 14.832,56 14.5,56 C14.224,56 14,55.776 14,55.5 L14,40 C14,38.703 15.093,38.113 16.11,37.994 L25.11,36.994 C25.617,36.938 26,36.51 26,36 L26,23 C26,22.475 25.593,22.039 25.069,22.002 L10.5,21 C10.224,21 10,20.776 10,20.5 C10,20.224 10.224,20 10.5,20 L10.5,20 Z" id="Shape" fill="#000000"></path>
    </g>
</svg>