<?xml version="1.0" encoding="UTF-8" standalone="no"?>
<svg width="64px" height="64px" viewBox="0 0 64 64" version="1.1" xmlns="http://www.w3.org/2000/svg" xmlns:xlink="http://www.w3.org/1999/xlink">
    <!-- Generator: Sketch 3.7.2 (28276) - http://www.bohemiancoding.com/sketch -->
    <title>act-baseball-player</title>
    <desc>Created with Sketch.</desc>
    <defs></defs>
    <g id="64px-Line" stroke="none" stroke-width="1" fill="none" fill-rule="evenodd">
        <g id="act-baseball-player"></g>
        <path d="M35,4 C31.962,4 30,6.355 30,10 C30,13.645 31.962,16 35,16 C38.038,16 40,13.645 40,10 C40,6.355 38.038,4 35,4 L35,4 Z M35,14 C32.292,14 32,11.203 32,10 C32,8.797 32.292,6 35,6 C37.708,6 38,8.797 38,10 C38,11.203 37.708,14 35,14 L35,14 Z" id="Shape" fill="#000000"></path>
        <path d="M41.406,5.525 C41.48,5.525 41.554,5.517 41.628,5.5 L48.51,3.934 C49.027,3.798 49.46,3.468 49.729,3.006 C49.998,2.544 50.07,2.005 49.933,1.487 C49.649,0.423 48.554,-0.213 47.449,0.078 L40.269,2.293 C39.968,2.386 39.729,2.615 39.623,2.911 C39.517,3.207 39.556,3.536 39.729,3.799 L40.571,5.076 C40.759,5.36 41.075,5.525 41.406,5.525 L41.406,5.525 Z" id="Shape" fill="#000000"></path>
        <path d="M50,61.5 C50,61.274 49.97,61.05 49.887,60.76 L42.661,40.65 C42.171,39.339 42.006,38.414 42.006,36.981 L42,24 C42,20.691 39.309,18 36,18 L24,18 L24,9.32 L27.445,8.632 C27.913,8.539 28.249,8.128 28.249,7.652 L28.249,7.359 C28.249,7.048 28.104,6.755 27.857,6.566 C27.61,6.376 27.288,6.313 26.989,6.394 L23.67,7.286 C23.241,6.524 22.434,6.002 21.499,6.002 C20.149,6.002 19.194,6.911 19.003,8.416 L18,20 C18,22.206 19.794,24 22,24 L28,24 L28,36.958 C28,38.555 27.799,39.385 27.347,40.64 L20.144,60.664 C20.048,60.932 20,61.213 20,61.499 C20,62.877 21.122,63.999 22.5,63.999 C23.595,63.999 24.581,63.266 24.867,62.299 L33.223,41.29 C33.227,41.277 33.632,39.999 35,39.999 C36.315,39.999 36.736,41.167 36.804,41.369 L45.152,62.358 C45.511,63.339 46.454,63.999 47.5,63.999 C48.878,64 50,62.878 50,61.5 L50,61.5 Z M47.02,61.646 L38.69,40.709 C38.405,39.772 37.267,38 35,38 C32.733,38 31.595,39.772 31.337,40.63 L22.979,61.643 C22.916,61.853 22.719,62 22.5,62 C22.224,62 22,61.776 22,61.5 C22,61.443 22.009,61.388 22.027,61.338 L29.229,41.317 C29.74,39.896 30,38.831 30,36.958 L30,23 C30,22.448 29.552,22 29,22 L22,22 C20.897,22 20,21.103 19.996,20.086 L20.992,8.627 C21.072,8 21.319,8 21.5,8 C21.776,8 22,8.224 22,8.5 L22,19 C22,19.552 22.448,20 23,20 L36,20 C38.206,20 40,21.794 40,24 L40.006,36.981 C40.006,38.662 40.211,39.805 40.784,41.338 L47.982,61.363 C47.994,61.406 48,61.452 48,61.499 C48,61.775 47.776,61.999 47.5,61.999 C47.258,62 47.09,61.835 47.02,61.646 L47.02,61.646 Z" id="Shape" fill="#000000"></path>
    </g>
</svg>