<?xml version="1.0" encoding="UTF-8" standalone="no"?>
<svg width="64px" height="64px" viewBox="0 0 64 64" version="1.1" xmlns="http://www.w3.org/2000/svg" xmlns:xlink="http://www.w3.org/1999/xlink">
    <!-- Generator: Sketch 3.7.2 (28276) - http://www.bohemiancoding.com/sketch -->
    <title>act-gymnastics</title>
    <desc>Created with Sketch.</desc>
    <defs></defs>
    <g id="64px-Line" stroke="none" stroke-width="1" fill="none" fill-rule="evenodd">
        <g id="act-gymnastics"></g>
        <path d="M28,12 C28,15.645 29.962,18 33,18 C36.038,18 38,15.645 38,12 C38,8.355 36.038,6 33,6 C29.962,6 28,8.355 28,12 L28,12 Z M36,12 C36,13.203 35.708,16 33,16 C30.292,16 30,13.203 30,12 C30,10.797 30.292,8 33,8 C35.708,8 36,10.797 36,12 L36,12 Z" id="Shape" fill="#000000"></path>
        <path d="M49.5,58 C49.423,58 49.274,57.981 49.15,57.856 L36.711,45.296 C36.323,44.903 35.689,44.902 35.297,45.289 C34.904,45.678 34.901,46.311 35.29,46.704 L47.732,59.266 C48.204,59.739 48.832,59.999 49.5,59.999 C50.168,59.999 50.796,59.739 51.268,59.267 C51.74,58.795 52,58.167 52,57.499 C52,56.831 51.74,56.204 51.319,55.786 L39.758,42.348 C39.399,41.93 38.766,41.881 38.347,42.243 C37.929,42.603 37.881,43.234 38.241,43.653 L49.853,57.146 C50.048,57.341 50.048,57.658 49.853,57.853 C49.726,57.981 49.577,58 49.5,58 L49.5,58 Z" id="Shape" fill="#000000"></path>
        <path d="M22.498,24.163 C22.694,24.36 22.951,24.459 23.208,24.459 C23.462,24.459 23.717,24.362 23.912,24.169 C24.305,23.78 24.308,23.148 23.919,22.755 L10.147,8.854 C9.952,8.659 9.952,8.342 10.147,8.147 C10.274,8.019 10.423,8.001 10.501,8.001 C10.578,8.001 10.727,8.02 10.907,8.196 L24.891,20.298 C25.308,20.66 25.94,20.614 26.302,20.196 C26.664,19.778 26.617,19.147 26.2,18.786 L12.269,6.734 C11.326,5.789 9.678,5.788 8.733,6.733 C7.758,7.708 7.758,9.294 8.73,10.265 L22.498,24.163 L22.498,24.163 Z" id="Shape" fill="#000000"></path>
        <path d="M26,26 L26,37.104 L17.884,38.006 C15.561,38.279 14,39.884 14,42 L14,57.5 C14,58.879 15.122,60 16.5,60 C17.817,60 18.867,58.987 18.998,57.568 L19.896,44.544 C19.929,44.216 19.995,44 20.584,44 L32,44 C35.309,44 38,41.309 38,38 L38,25.941 L53.534,25 C54.897,24.981 56,23.867 56,22.5 C56,21.121 54.878,20 53.5,20 L32,20 C28.691,20 26,22.691 26,26 L26,26 Z M54,22.5 C54,22.796 53.735,22.987 53.439,23.002 L36.939,24.002 C36.411,24.034 36,24.472 36,25 L36,38 C36,40.206 34.206,42 32,42 L20.583,42 C19.078,42 18.052,42.897 17.903,44.375 L17.005,57.408 C16.98,57.68 16.832,58 16.501,58 C16.225,58 16.001,57.775 16.001,57.5 L16.001,42 C16.001,40.703 17.094,40.113 18.111,39.994 L27.111,38.994 C27.617,38.937 28.001,38.51 28.001,38 L28.001,26 C28.001,23.794 29.795,22 32.001,22 L53.501,22 C53.776,22 54,22.225 54,22.5 L54,22.5 Z" id="Shape" fill="#000000"></path>
    </g>
</svg>