<?xml version="1.0" encoding="UTF-8" standalone="no"?>
<svg width="64px" height="64px" viewBox="0 0 64 64" version="1.1" xmlns="http://www.w3.org/2000/svg" xmlns:xlink="http://www.w3.org/1999/xlink">
    <!-- Generator: Sketch 3.7.2 (28276) - http://www.bohemiancoding.com/sketch -->
    <title>act-pilates</title>
    <desc>Created with Sketch.</desc>
    <defs></defs>
    <g id="64px-Line" stroke="none" stroke-width="1" fill="none" fill-rule="evenodd">
        <g id="act-pilates"></g>
        <path d="M2.5,24.001 L21,24 C21.552,24 22,23.552 22,23 C22,22.447 21.552,22 21,22 L2.5,22.001 C1.122,22.001 0,23.122 0,24.501 C0,25.838 0.99,26.863 2.446,27 L20.946,27.999 C20.964,28 20.983,28 21.001,28 C21.528,28 21.97,27.587 21.999,27.054 C22.029,26.502 21.606,26.032 21.054,26.001 L2.594,25.005 C2.323,24.98 2.001,24.872 2.001,24.501 C2,24.226 2.224,24.001 2.5,24.001 L2.5,24.001 Z" id="Shape" fill="#000000"></path>
        <path d="M63.101,22.859 L50.268,10.733 C49.325,9.788 47.677,9.787 46.732,10.732 C46.26,11.205 46,11.832 46,12.5 C46,13.168 46.26,13.795 46.699,14.232 L53.743,22.001 L49,22.001 C48.448,22.001 48,22.448 48,23.001 C48,23.554 48.448,24.001 49,24.001 L56,24.001 C56.396,24.001 56.754,23.768 56.914,23.406 C57.075,23.045 57.006,22.622 56.741,22.329 L48.147,12.853 C47.952,12.658 47.952,12.341 48.147,12.146 C48.274,12.019 48.423,12 48.501,12 C48.578,12 48.727,12.019 48.874,12.166 L61.707,24.293 C62.097,24.683 62.097,25.317 61.707,25.707 C61.518,25.895 61.267,26 61,26 L51,26.001 C50.448,26.001 50,26.449 50,27.001 C50,27.554 50.448,28.001 51,28.001 L61,28 C61.801,28 62.555,27.688 63.121,27.121 C64.291,25.951 64.291,24.049 63.101,22.859 L63.101,22.859 Z" id="Shape" fill="#000000"></path>
        <path d="M42.002,22.001 L42,22.001 L32.303,22 L43.267,10.268 C44.242,9.293 44.242,7.707 43.267,6.733 C42.323,5.788 40.662,5.802 39.745,6.72 L26.305,19.685 C24.776,21.163 24,22.932 24,24.944 L24,28 C24,31.309 26.691,34 30,34 L42,34 L42,53.5 C42,54.879 43.122,56 44.5,56 C45.878,56 47,54.879 46.999,53.539 L47.999,28.039 C47.999,28.026 48,28.013 48,28 C48,26.397 47.376,24.891 46.243,23.758 C45.11,22.625 43.604,22.001 42.002,22.001 L42.002,22.001 Z M45,53.5 C45,53.775 44.776,54 44.5,54 C44.224,54 44,53.775 44,53.5 L44,33 C44,32.447 43.552,32 43,32 L30,32 C27.794,32 26,30.206 26,28 L26,24.943 C26,23.474 26.554,22.224 27.694,21.124 L41.147,8.145 C41.274,8.018 41.422,7.999 41.5,7.999 C41.578,7.999 41.727,8.018 41.854,8.145 C41.981,8.272 42,8.423 42,8.5 C42,8.577 41.981,8.726 41.83,8.878 L29.269,22.317 C28.997,22.608 28.924,23.033 29.082,23.398 C29.241,23.763 29.601,24 29.999,24 L41.999,24.001 L42,24.001 C43.068,24.001 44.072,24.417 44.827,25.172 C45.578,25.923 45.994,26.92 45.998,27.982 L45,53.5 L45,53.5 Z" id="Shape" fill="#000000"></path>
        <path d="M21,20 C24.038,20 26,17.645 26,14 C26,10.355 24.038,8 21,8 C17.962,8 16,10.355 16,14 C16,17.645 17.962,20 21,20 L21,20 Z M21,10 C23.708,10 24,12.797 24,14 C24,15.203 23.708,18 21,18 C18.292,18 18,15.203 18,14 C18,12.797 18.292,10 21,10 L21,10 Z" id="Shape" fill="#000000"></path>
    </g>
</svg>