<?xml version="1.0" encoding="UTF-8" standalone="no"?>
<svg width="64px" height="64px" viewBox="0 0 64 64" version="1.1" xmlns="http://www.w3.org/2000/svg" xmlns:xlink="http://www.w3.org/1999/xlink">
    <!-- Generator: Sketch 3.7.2 (28276) - http://www.bohemiancoding.com/sketch -->
    <title>act-skiing</title>
    <desc>Created with Sketch.</desc>
    <defs></defs>
    <g id="64px-Line" stroke="none" stroke-width="1" fill="none" fill-rule="evenodd">
        <g id="act-skiing"></g>
        <path d="M60.788,49.937 L5.229,61.974 C4.971,62.036 4.701,61.992 4.474,61.852 C4.247,61.711 4.088,61.492 4.027,61.232 C3.901,60.694 3.364,60.364 2.824,60.487 C2.286,60.614 1.953,61.152 2.079,61.689 C2.263,62.469 2.739,63.131 3.421,63.553 C3.903,63.851 4.447,64.003 4.994,64.003 C5.22,64.003 5.447,63.978 5.67,63.925 L61.211,51.892 C61.751,51.775 62.093,51.243 61.977,50.703 C61.86,50.162 61.326,49.821 60.788,49.937 L60.788,49.937 Z" id="Shape" fill="#000000"></path>
        <path d="M55.973,20.765 C55.845,20.227 55.308,19.895 54.768,20.024 L52.749,20.505 L52.319,18.761 C52.186,18.224 51.644,17.895 51.109,18.03 C50.573,18.162 50.245,18.704 50.377,19.24 L50.803,20.969 L39.953,23.554 L35.231,15.518 C34.992,15.019 33.38,12.001 29.459,12.001 C24.456,12.001 23.475,15.637 23.459,15.711 L20.243,24.993 C19.87,26.025 19.444,26.476 18.554,26.781 L11.79,29.102 C10.734,29.414 10,30.396 10,31.5 C10,32.879 11.122,34 12.5,34 C12.742,34 12.98,33.966 13.146,33.914 C13.146,33.914 18.424,32.726 20.868,32.179 C23.219,31.653 24.371,30.457 25.052,29.159 L29.022,28.213 L30.209,30.232 C30.618,30.915 30.666,31.411 29.834,32.389 L25.778,37.16 C23.898,39.165 23.453,41.638 24.599,43.794 L29.992,53.391 C30.427,54.115 31.239,54.565 32.112,54.565 C33.49,54.565 34.612,53.444 34.612,52.065 C34.612,51.66 34.512,51.256 34.352,50.957 L30.657,42.718 C30.326,41.981 30.556,41.103 31.223,40.54 L40.714,32.666 C41.806,31.834 43.417,29.48 41.696,26.52 L41.013,25.358 L51.282,22.911 L51.725,24.709 C51.838,25.165 52.246,25.47 52.695,25.47 C52.775,25.47 52.855,25.461 52.935,25.441 C53.471,25.309 53.799,24.767 53.667,24.231 L53.228,22.448 L55.232,21.971 C55.769,21.841 56.101,21.302 55.973,20.765 L55.973,20.765 Z M20.431,30.228 C17.986,30.775 12.706,31.963 12.641,31.98 C12.339,32.071 11.999,31.824 12,31.501 C12,31.277 12.149,31.079 12.363,31.02 C12.381,31.014 12.399,31.009 12.416,31.003 L19.203,28.674 C20.672,28.17 21.546,27.273 22.128,25.66 L25.37,16.297 C25.397,16.203 26.058,14.001 29.459,14.001 C32.312,14.001 33.388,16.294 33.43,16.385 C33.446,16.421 33.464,16.456 33.484,16.49 L37.919,24.039 L29.998,25.926 L27.42,21.537 C27.239,21.229 26.91,21.044 26.558,21.044 C26.525,21.044 26.492,21.046 26.459,21.049 C26.071,21.087 25.74,21.348 25.613,21.717 L23.689,27.27 C23.17,28.761 22.445,29.776 20.431,30.228 L20.431,30.228 Z M25.935,26.893 L26.792,24.418 L27.962,26.41 L25.935,26.893 L25.935,26.893 Z M39.969,27.528 C41.198,29.642 39.673,30.938 39.469,31.099 L29.939,39.005 C28.578,40.154 28.133,41.975 28.832,43.534 L32.556,51.831 C32.594,51.903 32.613,51.981 32.613,52.063 C32.613,52.338 32.389,52.563 32.113,52.563 C31.927,52.563 31.768,52.46 31.722,52.384 L26.355,42.833 C25.325,40.895 26.63,39.175 27.271,38.489 L31.359,33.682 C32.178,32.719 33.128,31.207 31.93,29.209 L31.058,27.725 L38.979,25.838 L39.969,27.528 L39.969,27.528 Z" id="Shape" fill="#000000"></path>
        <path d="M19.189,13.896 C19.498,13.964 19.81,13.999 20.123,13.999 C21.014,13.999 21.908,13.721 22.749,13.175 C25.355,11.484 25.738,8.452 23.748,5.264 C22.665,3.528 21.303,2.435 19.809,2.104 C18.616,1.839 17.386,2.088 16.251,2.827 C13.645,4.519 13.261,7.551 15.251,10.737 C16.334,12.472 17.695,13.563 19.189,13.896 L19.189,13.896 Z M17.341,4.504 C17.861,4.166 18.364,3.999 18.867,3.999 C19.036,3.999 19.206,4.019 19.376,4.056 C20.32,4.266 21.271,5.071 22.052,6.323 C22.709,7.376 23.986,9.989 21.661,11.498 C20.965,11.949 20.298,12.096 19.623,11.944 C18.678,11.734 17.728,10.929 16.948,9.678 L16.948,9.678 C16.291,8.625 15.014,6.015 17.341,4.504 L17.341,4.504 Z" id="Shape" fill="#000000"></path>
    </g>
</svg>