<?xml version="1.0" encoding="UTF-8" standalone="no"?>
<svg width="64px" height="64px" viewBox="0 0 64 64" version="1.1" xmlns="http://www.w3.org/2000/svg" xmlns:xlink="http://www.w3.org/1999/xlink">
    <!-- Generator: Sketch 3.7.2 (28276) - http://www.bohemiancoding.com/sketch -->
    <title>act-swimming</title>
    <desc>Created with Sketch.</desc>
    <defs></defs>
    <g id="64px-Line" stroke="none" stroke-width="1" fill="none" fill-rule="evenodd">
        <g id="act-swimming"></g>
        <path d="M45.251,31.175 C46.093,31.721 46.985,31.999 47.877,31.999 C48.189,31.999 48.501,31.965 48.811,31.896 C50.305,31.563 51.666,30.471 52.749,28.736 C54.738,25.549 54.354,22.518 51.749,20.826 C50.613,20.088 49.383,19.841 48.19,20.103 C46.696,20.434 45.334,21.527 44.251,23.263 C42.262,26.452 42.645,29.483 45.251,31.175 L45.251,31.175 Z M45.948,24.322 C46.729,23.07 47.679,22.265 48.624,22.055 C48.794,22.018 48.964,21.998 49.133,21.998 C49.637,21.998 50.14,22.165 50.659,22.503 C52.986,24.014 51.709,26.624 51.052,27.677 C50.272,28.928 49.322,29.733 48.377,29.943 C47.699,30.093 47.033,29.947 46.339,29.497 C44.014,27.988 45.291,25.375 45.948,24.322 L45.948,24.322 Z" id="Shape" fill="#000000"></path>
        <path d="M37.515,24.144 L28.744,18.881 C26.668,17.635 24.617,17.737 22.489,19.185 L13.227,25.349 C12.47,25.796 11.999,26.621 11.999,27.501 C11.999,28.88 13.12,30.001 14.499,30.001 C14.999,30.001 15.482,29.854 15.828,29.616 L24.321,24.834 C25.6,24.128 25.8,24.187 26.936,24.793 L30.544,26.959 L13.39,37.25 C12.916,37.534 12.763,38.148 13.047,38.622 C13.235,38.934 13.566,39.107 13.905,39.107 C14.08,39.107 14.258,39.061 14.419,38.964 L33.002,27.816 C33.303,27.635 33.487,27.31 33.487,26.959 C33.487,26.608 33.302,26.282 33.002,26.102 L27.923,23.054 C26.102,22.079 25.162,22.084 23.347,23.088 L14.779,27.916 C14.721,27.955 14.626,28.001 14.499,28.001 C14.224,28.001 13.999,27.776 13.999,27.501 C13.999,27.322 14.091,27.161 14.289,27.043 L23.604,20.845 C25.111,19.821 26.301,19.748 27.713,20.596 L36.484,25.859 C39.936,27.931 41.334,33.086 41.773,35.205 C41.885,35.746 42.414,36.086 42.956,35.981 C43.497,35.869 43.845,35.338 43.732,34.798 C43.119,31.845 41.496,26.533 37.515,24.144 L37.515,24.144 Z" id="Shape" fill="#000000"></path>
        <path d="M59.492,42.129 C59.193,41.961 52.075,38 43,38 C38.412,38 35.058,39.032 31.813,40.03 C28.521,41.043 25.412,42 21,42 C12.312,42 5.567,38.173 5.5,38.134 C5.021,37.859 4.41,38.023 4.134,38.5 C3.859,38.979 4.022,39.59 4.499,39.865 C4.791,40.034 11.755,44 21,44 C25.713,44 29.113,42.954 32.401,41.942 C35.646,40.943 38.713,40 43,40 C51.531,40 58.44,43.832 58.509,43.871 C58.988,44.139 59.6,43.973 59.871,43.491 C60.142,43.01 59.973,42.4 59.492,42.129 L59.492,42.129 Z" id="Shape" fill="#000000"></path>
    </g>
</svg>