<?xml version="1.0" encoding="UTF-8" standalone="no"?>
<svg width="64px" height="64px" viewBox="0 0 64 64" version="1.1" xmlns="http://www.w3.org/2000/svg" xmlns:xlink="http://www.w3.org/1999/xlink">
    <!-- Generator: Sketch 3.7.2 (28276) - http://www.bohemiancoding.com/sketch -->
    <title>act-star-jumps</title>
    <desc>Created with Sketch.</desc>
    <defs></defs>
    <g id="64px-Line" stroke="none" stroke-width="1" fill="none" fill-rule="evenodd">
        <g id="act-star-jumps"></g>
        <path d="M31,14 C34.037,14 36,11.645 36,8 C36,4.355 34.037,2 31,2 C27.963,2 26,4.355 26,8 C26,11.645 27.963,14 31,14 L31,14 Z M31,4 C33.708,4 34,6.797 34,8 C34,9.203 33.708,12 31,12 C28.292,12 28,9.203 28,8 C28,6.797 28.292,4 31,4 L31,4 Z" id="Shape" fill="#000000"></path>
        <path d="M6.443,20.999 L6.446,20.999 L24,21.947 L24,34.958 C24,36.555 23.799,37.385 23.347,38.64 L16.144,58.664 C16.049,58.933 16,59.214 16,59.5 C16,60.878 17.121,62 18.5,62 C19.596,62 20.58,61.267 20.866,60.3 L29.223,39.291 C29.228,39.278 29.632,38 31,38 C32.314,38 32.736,39.168 32.804,39.37 L41.158,60.374 C41.52,61.347 42.46,62 43.5,62 C44.879,62 46,60.878 46,59.5 C46,59.274 45.97,59.05 45.888,58.76 L38.661,38.65 C38.171,37.339 38.006,36.414 38.006,34.981 L38,21.947 L55.5,21 C56.879,21 58,19.878 58,18.5 C58,17.122 56.879,16 55.5,16 L6.5,16 C5.121,16 4,17.122 4,18.5 C4,19.877 5.12,20.999 6.443,20.999 L6.443,20.999 Z M6.5,18 L55.5,18 C55.775,18 56,18.224 56,18.5 C56,18.776 55.775,19 55.446,19.001 L36.946,20.001 C36.415,20.03 36,20.469 36,21 L36.006,34.981 C36.006,36.662 36.211,37.805 36.783,39.338 L43.982,59.363 C43.994,59.407 44,59.453 44,59.5 C44,59.776 43.775,60 43.5,60 C43.258,60 43.09,59.835 43.03,59.672 C43.026,59.663 43.023,59.654 43.02,59.646 L34.69,38.709 C34.405,37.772 33.267,36 31,36 C28.733,36 27.595,37.772 27.338,38.63 L18.98,59.643 C18.917,59.853 18.72,60 18.5,60 C18.225,60 18,59.776 18,59.5 C18,59.443 18.01,59.388 18.027,59.338 L25.229,39.317 C25.74,37.896 26,36.831 26,34.958 L26,21 C26,20.469 25.585,20.03 25.054,20.001 L6.5,19 C6.225,19 6,18.776 6,18.5 C6,18.224 6.225,18 6.5,18 L6.5,18 Z" id="Shape" fill="#000000"></path>
    </g>
</svg>