<?xml version="1.0" encoding="UTF-8" standalone="no"?>
<svg width="64px" height="64px" viewBox="0 0 64 64" version="1.1" xmlns="http://www.w3.org/2000/svg" xmlns:xlink="http://www.w3.org/1999/xlink">
    <!-- Generator: Sketch 3.7.2 (28276) - http://www.bohemiancoding.com/sketch -->
    <title>act-yoga</title>
    <desc>Created with Sketch.</desc>
    <defs></defs>
    <g id="64px-Line" stroke="none" stroke-width="1" fill="none" fill-rule="evenodd">
        <g id="act-yoga"></g>
        <path d="M31,2 C27.962,2 26,4.355 26,8 C26,11.645 27.962,14 31,14 C34.038,14 36,11.645 36,8 C36,4.355 34.038,2 31,2 L31,2 Z M31,12 C28.292,12 28,9.203 28,8 C28,6.797 28.292,4 31,4 C33.708,4 34,6.797 34,8 C34,9.203 33.708,12 31,12 L31,12 Z" id="Shape" fill="#000000"></path>
        <path d="M58,18.5 C58,17.121 56.878,16 55.5,16 L6.5,16 C5.122,16 4,17.121 4,18.5 C4,19.878 5.12,20.999 6.443,20.999 L6.445,20.999 L24,21.947 L24,33.958 C24,35.429 23.247,36.947 22.414,38.492 L18.36,45.777 C18.343,45.808 18.328,45.839 18.314,45.872 C18.219,46.094 18,46.661 18,47.125 C18,48.791 19.079,50 20.564,50 L29.5,50 C30.878,50 32,48.879 32,47.5 C32,46.293 31.158,45.25 29.952,45.011 L25.808,44.386 L29.131,39.504 C29.916,38.287 30.133,38 31,38 C31.551,38 32,38.448 32.001,39.05 L33,59 C33,61.212 34.292,62 35.5,62 C36.708,62 38,61.212 38,59 L38,21.948 L55.5,21 C56.878,21 58,19.879 58,18.5 L58,18.5 Z M55.446,19.001 L36.946,20.001 C36.884,20.004 36.832,20.032 36.774,20.046 C36.711,20.061 36.646,20.068 36.588,20.094 C36.529,20.121 36.482,20.163 36.43,20.201 C36.378,20.238 36.322,20.269 36.278,20.316 C36.235,20.362 36.207,20.418 36.173,20.471 C36.138,20.526 36.098,20.576 36.074,20.637 C36.05,20.698 36.046,20.765 36.035,20.831 C36.024,20.888 36,20.94 36,21 L36,59 C36,60 35.675,60 35.5,60 C35.325,60 35,60 34.999,58.95 L34,39 C34,37.346 32.654,36 31,36 C29.011,36 28.253,37.176 27.44,38.438 L23.26,44.575 C23.067,44.859 23.032,45.222 23.17,45.538 C23.308,45.852 23.597,46.075 23.937,46.127 L29.607,46.981 C29.838,47.027 29.999,47.241 29.999,47.501 C29.999,47.776 29.775,48.001 29.499,48.001 L20.563,48.001 C20.014,48.001 19.999,47.216 19.998,47.147 C20.005,47.071 20.069,46.864 20.135,46.699 L24.167,39.454 C25.132,37.663 25.999,35.895 25.999,33.959 L25.999,21 C25.999,20.469 25.583,20.03 25.053,20.001 L6.5,19 C6.224,19 6,18.775 6,18.5 C6,18.225 6.224,18 6.5,18 L55.5,18 C55.776,18 56,18.225 56,18.5 C56,18.775 55.776,19 55.446,19.001 L55.446,19.001 Z" id="Shape" fill="#000000"></path>
    </g>
</svg>