<?xml version="1.0" encoding="UTF-8" standalone="no"?>
<svg width="64px" height="64px" viewBox="0 0 64 64" version="1.1" xmlns="http://www.w3.org/2000/svg" xmlns:xlink="http://www.w3.org/1999/xlink">
    <!-- Generator: Sketch 3.7.2 (28276) - http://www.bohemiancoding.com/sketch -->
    <title>act-roller-blading</title>
    <desc>Created with Sketch.</desc>
    <defs></defs>
    <g id="64px-Line" stroke="none" stroke-width="1" fill="none" fill-rule="evenodd">
        <g id="act-roller-blading"></g>
        <circle id="Oval" fill="#000000" cx="30" cy="62" r="2"></circle>
        <circle id="Oval" fill="#000000" cx="36" cy="62" r="2"></circle>
        <circle id="Oval" fill="#000000" cx="42" cy="62" r="2"></circle>
        <circle id="Oval" fill="#000000" cx="2" cy="38" r="2"></circle>
        <circle id="Oval" fill="#000000" cx="2" cy="44" r="2"></circle>
        <circle id="Oval" fill="#000000" cx="2" cy="50" r="2"></circle>
        <path d="M30.066,35.933 C29.67,35.547 29.037,35.555 28.652,35.951 L24.277,40.443 C23.083,41.636 22.327,42.001 21.043,42.001 L8.5,42.001 C8.224,42.001 8,41.776 8,41.501 C8,41.255 8.176,41.048 8.336,41.019 L19.976,40.121 C22.016,39.983 23.101,38.325 23.145,38.256 L27.341,31.731 C27.639,31.266 27.505,30.648 27.041,30.349 C26.575,30.05 25.958,30.185 25.659,30.649 L21.468,37.168 C21.444,37.204 20.861,38.058 19.832,38.127 L8.098,39.035 C6.883,39.233 6.001,40.27 6.001,41.503 C6.001,42.882 7.123,44.003 8.501,44.003 L21.043,44.003 C22.869,44.003 24.129,43.422 25.701,41.851 L30.086,37.35 C30.47,36.95 30.461,36.317 30.066,35.933 L30.066,35.933 Z" id="Shape" fill="#000000"></path>
        <path d="M61.611,25.007 L54.695,24.236 C54.679,24.234 53.07,23.992 52.29,22.769 L48.086,16.287 C47.607,15.55 47.027,14.889 46.361,14.323 C44.461,12.708 40.588,10 36,10 L28.292,10 C28.187,10.003 25.699,10.085 24.247,12.485 L18.363,22.204 C18.126,22.594 18.001,23.042 18.001,23.5 C18.001,24.879 19.123,26 20.501,26 C21.332,26 22.105,25.589 22.572,24.901 L27.849,17.467 C27.861,17.452 28.999,15.999 30.564,15.999 L34.313,15.999 L30.145,23.6 C27.567,28.134 30.124,32.342 30.237,32.525 L36.982,43.187 C37.022,43.25 37.962,44.769 37.225,46.278 L33.2,54.525 C33.069,54.835 33.003,55.163 33.003,55.5 C33.003,56.879 34.125,58 35.503,58 C36.423,58 37.266,57.497 37.677,56.729 L43.404,47.247 C43.466,47.138 44.897,44.574 43.323,42.113 L39.613,34.069 C38.913,32.552 38.982,31.676 39.936,29.994 L44.512,21.914 L48.444,27.711 C48.5,27.805 49.844,30 52.443,30 L61.454,30 C62.676,30 63.728,29.157 63.956,27.997 C64.087,27.326 63.948,26.66 63.563,26.122 C63.13,25.523 62.429,25.118 61.611,25.007 L61.611,25.007 Z M61.988,27.612 C61.946,27.83 61.709,28 61.449,28 L52.438,28 C50.988,28 50.185,26.731 50.125,26.636 L45.259,19.458 C45.065,19.173 44.742,18.995 44.391,19.02 C44.046,19.034 43.732,19.225 43.561,19.526 L38.192,29.007 C37.103,30.931 36.688,32.513 37.794,34.906 L41.534,43.015 C41.555,43.061 41.58,43.106 41.609,43.149 C42.565,44.59 41.699,46.192 41.677,46.233 L35.94,55.736 C35.871,55.863 35.72,55.999 35.5,55.999 C35.224,55.999 35,55.774 35,55.499 C35,55.432 35.013,55.366 35.017,55.353 L39.02,47.154 C40.26,44.615 38.726,42.203 38.667,42.112 L31.932,31.465 C31.848,31.328 29.903,28.069 31.89,24.574 L36.878,15.479 C37.048,15.169 37.042,14.793 36.861,14.489 C36.681,14.185 36.354,13.999 36.001,13.999 L30.563,13.999 C27.99,13.999 26.325,16.166 26.238,16.281 L20.912,23.783 C20.908,23.79 20.903,23.796 20.899,23.802 C20.804,23.926 20.657,23.999 20.501,23.999 C20.225,23.999 20.001,23.774 20.001,23.499 C20.001,23.407 20.024,23.322 20.074,23.241 L25.958,13.519 C26.829,12.08 28.285,12 28.314,11.998 L36,11.998 C39.949,11.998 43.375,14.408 45.066,15.845 C45.584,16.285 46.035,16.8 46.408,17.373 L50.608,23.849 C51.892,25.864 54.333,26.203 54.455,26.22 L61.366,26.991 C61.609,27.024 61.826,27.137 61.932,27.285 C61.976,27.348 62.022,27.44 61.988,27.612 L61.988,27.612 Z" id="Shape" fill="#000000"></path>
        <path d="M51.749,0.826 C50.614,0.089 49.384,-0.16 48.19,0.103 C46.696,0.434 45.334,1.527 44.251,3.263 C42.262,6.451 42.645,9.483 45.251,11.174 C46.092,11.72 46.986,11.998 47.877,11.998 C48.189,11.998 48.502,11.964 48.811,11.895 C50.305,11.562 51.666,10.47 52.749,8.735 L52.749,8.735 C54.737,5.55 54.354,2.519 51.749,0.826 L51.749,0.826 Z M51.052,7.678 L51.052,7.678 C50.271,8.929 49.321,9.734 48.376,9.944 C47.701,10.094 47.034,9.948 46.339,9.498 C44.014,7.989 45.291,5.376 45.947,4.323 C46.728,3.071 47.679,2.266 48.623,2.056 C48.793,2.019 48.962,1.999 49.132,1.999 C49.635,1.999 50.139,2.166 50.658,2.504 C52.985,4.015 51.709,6.625 51.052,7.678 L51.052,7.678 Z" id="Shape" fill="#000000"></path>
    </g>
</svg>