<?xml version="1.0" encoding="UTF-8" standalone="no"?>
<svg width="64px" height="64px" viewBox="0 0 64 64" version="1.1" xmlns="http://www.w3.org/2000/svg" xmlns:xlink="http://www.w3.org/1999/xlink">
    <!-- Generator: Sketch 3.7.2 (28276) - http://www.bohemiancoding.com/sketch -->
    <title>act-skipping</title>
    <desc>Created with Sketch.</desc>
    <defs></defs>
    <g id="64px-Line" stroke="none" stroke-width="1" fill="none" fill-rule="evenodd">
        <g id="act-skipping"></g>
        <path d="M10.288,45.702 C10.483,45.9 10.741,46 11,46 C11.254,46 11.507,45.904 11.702,45.712 L15.517,41.951 C16.598,42.4 18.022,42.186 18.907,40.309 L24,30.935 L24,61 C24,63.212 25.291,64 26.5,64 C27.709,64 29,63.212 28.999,61.05 L30,41 C30,40.449 30.448,40 31,40 C31.552,40 32,40.449 32.001,41.05 L33,61 C33,63.212 34.291,64 35.5,64 C36.709,64 38,63.212 38,61 L38,30.935 L43.067,40.26 C43.989,42.21 45.442,42.405 46.522,41.937 L50.293,45.708 C50.488,45.902 50.744,46 51,46 C51.256,46 51.512,45.902 51.707,45.707 C52.098,45.316 52.098,44.684 51.707,44.293 L47.888,40.474 C48.08,39.861 48.044,39.089 47.602,38.152 L40.411,21.585 C39.03,18.61 35.65,18 31,18 C27.007,18 23.104,18.432 21.608,21.567 C21.594,21.595 21.583,21.623 21.572,21.652 L14.41,38.124 C13.951,39.097 13.917,39.892 14.124,40.515 L10.298,44.287 C9.904,44.675 9.9,45.309 10.288,45.702 L10.288,45.702 Z M16.231,38.95 L23.428,22.399 C23.43,22.394 23.433,22.389 23.435,22.383 C24.285,20.669 26.415,20 31,20 C35.656,20 37.786,20.681 38.587,22.405 L45.781,38.977 C46.012,39.47 46.008,39.741 45.994,39.835 C45.989,39.869 45.983,39.907 45.955,39.949 C45.954,39.95 45.952,39.95 45.951,39.951 C45.948,39.954 45.947,39.958 45.945,39.961 C45.913,40.003 45.858,40.047 45.755,40.096 C45.608,40.163 45.302,40.308 44.851,39.355 L37.879,26.523 C37.661,26.121 37.196,25.919 36.754,26.031 C36.311,26.144 36,26.542 36,27 L36,61 C36,62 35.675,62 35.5,62 C35.325,62 35,62 34.999,60.95 L34,41 C34,39.346 32.654,38 31,38 C29.346,38 28,39.346 28.001,40.95 L27,61 C27,62 26.675,62 26.5,62 C26.325,62 26,62 26,61 L26,27 C26,26.542 25.689,26.144 25.246,26.031 C24.805,25.92 24.34,26.121 24.121,26.523 L17.124,39.405 C16.698,40.306 16.394,40.166 16.244,40.095 C16.172,40.061 16.129,40.03 16.094,39.999 C16.09,39.995 16.089,39.99 16.085,39.986 C16.08,39.981 16.074,39.98 16.07,39.976 C16.023,39.924 16.011,39.876 16.005,39.835 C15.992,39.741 15.987,39.47 16.231,38.95 L16.231,38.95 Z" id="Shape" fill="#000000"></path>
        <path d="M9.266,42.936 C9.785,42.746 10.051,42.171 9.861,41.653 C8.652,38.355 8,32.672 8,29 C8,14.112 18.317,2 31,2 C43.683,2 54,14.112 54,29 C54,32.672 53.348,38.356 52.139,41.657 C51.949,42.176 52.215,42.75 52.734,42.94 C52.847,42.982 52.963,43.002 53.078,43.002 C53.485,43.002 53.869,42.751 54.016,42.346 C55.318,38.79 56,32.941 56,29 C56,13.009 44.785,0 31,0 C17.215,0 6,13.009 6,29 C6,32.941 6.681,38.789 7.983,42.341 C8.174,42.86 8.75,43.125 9.266,42.936 L9.266,42.936 Z" id="Shape" fill="#000000"></path>
        <path d="M36,10 C36,6.355 34.037,4 31,4 C27.963,4 26,6.355 26,10 C26,13.645 27.963,16 31,16 C34.037,16 36,13.645 36,10 L36,10 Z M28,10 C28,8.797 28.292,6 31,6 C33.708,6 34,8.797 34,10 C34,11.203 33.708,14 31,14 C28.292,14 28,11.203 28,10 L28,10 Z" id="Shape" fill="#000000"></path>
    </g>
</svg>