<?xml version="1.0" encoding="UTF-8" standalone="no"?>
<svg width="64px" height="64px" viewBox="0 0 64 64" version="1.1" xmlns="http://www.w3.org/2000/svg" xmlns:xlink="http://www.w3.org/1999/xlink">
    <!-- Generator: Sketch 3.7.2 (28276) - http://www.bohemiancoding.com/sketch -->
    <title>act-golf-putt</title>
    <desc>Created with Sketch.</desc>
    <defs></defs>
    <g id="64px-Line" stroke="none" stroke-width="1" fill="none" fill-rule="evenodd">
        <g id="act-golf-putt"></g>
        <path d="M38,6 C38,2.355 36.038,0 33,0 C29.962,0 28,2.355 28,6 C28,9.645 29.962,12 33,12 C36.038,12 38,9.645 38,6 L38,6 Z M30,6 C30,4.797 30.292,2 33,2 C35.708,2 36,4.797 36,6 C36,7.203 35.708,10 33,10 C30.292,10 30,7.203 30,6 L30,6 Z" id="Shape" fill="#000000"></path>
        <path d="M25.347,40.64 L18.144,60.664 C18.048,60.932 18,61.213 18,61.499 C18,62.877 19.122,63.999 20.5,63.999 C21.595,63.999 22.581,63.266 22.867,62.299 L31.223,41.29 C31.226,41.281 31.429,40.674 32,40.296 L32,60 C30.897,60 30,60.897 30,62 C30,63.103 30.897,64 32,64 L33,64 C33.552,64 34,63.552 34,63 L34,40.296 C34.541,40.656 34.758,41.232 34.804,41.369 L43.152,62.358 C43.511,63.339 44.454,63.999 45.5,63.999 C46.878,63.999 48,62.877 48,61.499 C48,61.273 47.97,61.049 47.887,60.759 L40.661,40.649 C40.167,39.327 40,38.401 40,36.981 L40,28.648 C42.047,25.3 44,21.669 44,20 C44,16.467 39.477,14 33,14 C26.523,14 22,16.467 22,20 C22,21.553 23.896,25.108 26,28.576 L26,36.958 C26,38.555 25.799,39.385 25.347,40.64 L25.347,40.64 Z M38.784,41.338 L45.982,61.363 C45.994,61.406 46,61.452 46,61.499 C46,61.775 45.776,61.999 45.5,61.999 C45.258,61.999 45.09,61.834 45.02,61.645 L36.69,40.708 C36.451,39.922 35.602,38.562 34,38.139 L34,37.934 C34.254,37.882 34.504,37.804 34.741,37.669 C35.734,37.1 36.19,35.949 35.925,34.89 C36.401,34.201 37.148,33.104 38,31.802 L38,36.98 C38,38.651 38.206,39.794 38.784,41.338 L38.784,41.338 Z M33,16 C38.047,16 42,17.757 42,20 C42,21.761 38.018,28.235 34.962,32.755 L33.997,30.715 L39.069,20.443 C39.314,19.948 39.111,19.348 38.615,19.104 C38.117,18.857 37.52,19.063 37.276,19.558 L32.905,28.409 L28.724,19.573 C28.488,19.074 27.891,18.861 27.392,19.097 C26.893,19.333 26.68,19.93 26.916,20.429 L33.898,35.185 C33.903,35.197 33.913,35.205 33.919,35.216 C33.925,35.228 33.927,35.242 33.934,35.254 C34.071,35.493 33.987,35.799 33.748,35.936 C33.508,36.071 33.202,35.989 33.019,35.676 C29.274,30.281 24,21.853 24,20 C24,17.757 27.953,16 33,16 L33,16 Z M31.33,36.74 C31.502,37.041 31.74,37.275 32,37.472 L32,38.139 C30.399,38.56 29.553,39.91 29.337,40.63 L20.979,61.643 C20.916,61.853 20.719,62 20.5,62 C20.224,62 20,61.776 20,61.5 C20,61.443 20.009,61.388 20.027,61.338 L27.229,41.317 C27.74,39.896 28,38.831 28,36.958 L28,31.765 C29.478,34.055 30.795,35.973 31.33,36.74 L31.33,36.74 Z" id="Shape" fill="#000000"></path>
        <circle id="Oval" fill="#000000" cx="38" cy="62" r="2"></circle>
    </g>
</svg>