<?xml version="1.0" encoding="UTF-8" standalone="no"?>
<svg width="64px" height="64px" viewBox="0 0 64 64" version="1.1" xmlns="http://www.w3.org/2000/svg" xmlns:xlink="http://www.w3.org/1999/xlink">
    <!-- Generator: Sketch 3.7.2 (28276) - http://www.bohemiancoding.com/sketch -->
    <title>act-tennis</title>
    <desc>Created with Sketch.</desc>
    <defs></defs>
    <g id="64px-Line" stroke="none" stroke-width="1" fill="none" fill-rule="evenodd">
        <g id="act-tennis"></g>
        <path d="M30,9 C30,5.355 28.037,3 25,3 C21.963,3 20,5.355 20,9 C20,12.645 21.963,15 25,15 C28.037,15 30,12.645 30,9 L30,9 Z M22,9 C22,7.797 22.292,5 25,5 C27.708,5 28,7.797 28,9 C28,10.203 27.708,13 25,13 C22.292,13 22,10.203 22,9 L22,9 Z" id="Shape" fill="#000000"></path>
        <path d="M57.996,19.356 C57.943,17.798 57.33,16.403 56.268,15.427 C53.74,13.102 49.318,13.7 46.413,16.761 C44.812,18.448 43.934,20.593 44.004,22.645 C44.044,23.823 44.407,24.906 45.039,25.787 L39.923,30.863 L35.61,28.389 C34.973,28.024 34.736,27.747 34.589,26.827 C34.401,25.66 34.119,23.788 34.118,23.788 C34.104,23.662 33.749,20.838 30.977,19.014 C23.575,14.016 15.952,16.942 15.683,17.051 L10.184,18.884 C7.738,19.699 6.538,21.016 6.041,23.427 L4.074,32.892 C3.912,33.539 4.012,34.212 4.355,34.785 C4.699,35.357 5.244,35.762 5.891,35.924 C6.539,36.088 7.211,35.986 7.785,35.643 C8.357,35.299 8.762,34.753 8.909,34.158 L11.515,25.731 C11.744,24.995 12.064,24.668 12.796,24.432 L16.178,23.299 L8.065,60.94 C7.828,62.341 8.558,63.564 9.843,63.915 C10.061,63.974 10.282,64.003 10.502,64.003 C10.933,64.003 11.357,63.891 11.74,63.671 C12.32,63.339 12.736,62.801 12.913,62.145 L18.533,40.44 C18.536,40.422 18.629,40 19.013,40 C19.304,40 19.417,40.231 19.473,40.477 L25.054,62.029 C25.195,62.682 25.582,63.241 26.144,63.603 C26.706,63.965 27.378,64.085 28.026,63.944 C28.678,63.803 29.237,63.416 29.599,62.855 C29.96,62.293 30.082,61.625 29.942,60.975 L25.721,41.109 C25.333,39.285 25.326,38.251 25.69,36.299 C25.988,34.695 27.252,28.143 27.86,25.001 C28.03,25.275 28.173,25.616 28.243,26.033 C28.339,26.611 28.435,27.268 28.528,27.902 L28.662,28.796 C28.979,30.893 30.059,32.298 31.964,33.091 C33.409,33.694 38.374,35.736 38.381,35.736 C39.615,36.349 41.119,35.85 41.735,34.617 C42.177,33.733 42.077,32.795 41.545,32.069 L46.503,27.15 C47.406,27.711 48.462,27.99 49.571,27.99 C51.637,27.99 53.875,27.041 55.586,25.239 C57.188,23.553 58.066,21.409 57.996,19.356 L57.996,19.356 Z M39.947,33.724 C39.824,33.971 39.522,34.07 39.21,33.917 C39.21,33.917 34.189,31.852 32.735,31.246 C31.464,30.716 30.856,29.919 30.64,28.496 L30.509,27.61 C30.413,26.964 30.315,26.294 30.217,25.706 C29.79,23.131 27.681,22.227 27.592,22.19 C27.315,22.074 27,22.09 26.735,22.232 C26.47,22.374 26.284,22.628 26.227,22.923 C26.227,22.923 24.122,33.799 23.725,35.933 C23.315,38.138 23.325,39.444 23.766,41.523 L27.988,61.394 C28.026,61.57 27.962,61.705 27.92,61.77 C27.878,61.835 27.782,61.949 27.606,61.988 C27.43,62.024 27.294,61.962 27.23,61.92 C27.165,61.878 27.05,61.782 27.002,61.566 L21.427,40.045 C21.298,39.337 20.627,37.999 19.016,37.999 C17.42,37.999 16.723,39.329 16.588,39.985 L10.983,61.632 C10.935,61.806 10.816,61.896 10.75,61.934 C10.634,62.001 10.5,62.018 10.37,61.983 C9.981,61.877 10.01,61.452 10.031,61.317 L18.506,22.003 C18.582,21.651 18.463,21.287 18.195,21.047 C18.008,20.88 17.77,20.792 17.528,20.792 C17.422,20.792 17.314,20.809 17.211,20.844 L12.175,22.532 C10.823,22.967 10.031,23.771 9.608,25.14 L6.987,33.62 C6.943,33.795 6.825,33.889 6.758,33.928 C6.692,33.968 6.556,34.032 6.38,33.984 C6.205,33.941 6.112,33.822 6.072,33.756 C6.032,33.69 5.972,33.553 6.025,33.339 L8.002,23.832 C8.356,22.115 9.039,21.374 10.818,20.781 L16.367,18.93 C16.437,18.903 23.355,16.277 29.864,20.675 C29.867,20.677 29.871,20.68 29.875,20.682 C31.849,21.978 32.123,23.939 32.137,24.051 C32.137,24.051 32.425,25.959 32.616,27.143 C32.849,28.595 33.41,29.431 34.616,30.122 L39.682,33.028 C40.104,33.269 40.046,33.526 39.947,33.724 L39.947,33.724 Z M47.085,25.101 C46.412,24.482 46.038,23.61 46.003,22.578 C45.951,21.057 46.63,19.439 47.864,18.139 C49.19,16.742 50.896,15.993 52.416,15.993 C53.368,15.993 54.248,16.287 54.915,16.9 C55.588,17.519 55.963,18.392 55.997,19.424 C56.049,20.945 55.371,22.562 54.136,23.862 C51.979,26.135 48.817,26.692 47.085,25.101 L47.085,25.101 Z" id="Shape" fill="#000000"></path>
    </g>
</svg>