<?xml version="1.0" encoding="UTF-8" standalone="no"?>
<svg width="64px" height="64px" viewBox="0 0 64 64" version="1.1" xmlns="http://www.w3.org/2000/svg" xmlns:xlink="http://www.w3.org/1999/xlink">
    <!-- Generator: Sketch 3.7.2 (28276) - http://www.bohemiancoding.com/sketch -->
    <title>act-hurdles</title>
    <desc>Created with Sketch.</desc>
    <defs></defs>
    <g id="64px-Line" stroke="none" stroke-width="1" fill="none" fill-rule="evenodd">
        <g id="act-hurdles"></g>
        <path d="M37,38 C36.447,38 36,38.448 36,39 L36,62 L33,62 C32.447,62 32,62.448 32,63 C32,63.552 32.447,64 33,64 L41,64 C41.553,64 42,63.552 42,63 C42,62.448 41.553,62 41,62 L38,62 L38,39 C38,38.448 37.553,38 37,38 L37,38 Z" id="Shape" fill="#000000"></path>
        <path d="M39.423,13.175 C40.265,13.721 41.157,13.999 42.049,13.999 C42.361,13.999 42.673,13.965 42.983,13.896 C44.477,13.564 45.838,12.471 46.921,10.736 C48.91,7.549 48.526,4.518 45.921,2.826 C44.785,2.089 43.555,1.837 42.362,2.103 C40.868,2.435 39.506,3.527 38.423,5.263 C36.434,8.452 36.816,11.484 39.423,13.175 L39.423,13.175 Z M40.12,6.322 C40.901,5.07 41.851,4.265 42.796,4.055 C42.966,4.017 43.136,3.998 43.305,3.998 C43.809,3.998 44.312,4.165 44.831,4.503 C47.158,6.013 45.881,8.624 45.224,9.677 C44.444,10.928 43.494,11.733 42.549,11.943 C41.872,12.093 41.205,11.946 40.511,11.496 C38.186,9.988 39.463,7.375 40.12,6.322 L40.12,6.322 Z" id="Shape" fill="#000000"></path>
        <path d="M56,31.5 C56,30.209 54.967,29.136 53.549,29.001 L33.049,28.001 C32.496,27.973 32.028,28.399 32.001,28.951 C31.975,29.503 32.399,29.972 32.951,29.999 L53.404,30.996 C53.7,31.024 54,31.207 54,31.5 C54,31.776 53.775,32 53.5,32 L30,32 C29.447,32 29,32.448 29,33 C29,33.552 29.447,34 30,34 L53.5,34 C54.879,34 56,32.878 56,31.5 L56,31.5 Z" id="Shape" fill="#000000"></path>
        <path d="M8.497,44 L8.5,44 L29,44 C29.801,44 30.555,43.688 31.121,43.121 C31.688,42.555 32,41.801 32,41 C32,40.222 31.706,39.489 31.17,38.928 L25.691,31.862 L36.503,20.919 L39.452,23.867 C40.71,25.148 42.039,26 44.437,26 L53.393,26.001 C54.093,26.001 54.782,25.71 55.282,25.203 C55.754,24.724 56.009,24.106 55.999,23.462 C55.979,22.204 55.034,21.219 53.607,21.007 L45.545,20.132 C44.676,20.049 44.344,19.929 43.641,19.222 L35.746,11.866 C34.32,10.537 32.56,9.609 30.659,9.181 L23.947,7.673 C20.985,7.012 19.43,7.502 17.301,9.762 L10.655,16.819 C9.778,17.927 9.809,19.345 10.732,20.268 C11.714,21.249 13.078,21.273 14.226,20.307 L20.975,14.273 C21.972,13.44 22.168,13.388 23.316,13.686 L26.24,14.458 L17.293,23.293 C17.199,23.387 15,25.619 15,28.5 C15,31.406 17.312,33.561 17.379,33.621 L21.9,38.143 L8.41,39.005 C7.014,39.13 6,40.18 6,41.501 C6,42.169 6.261,42.797 6.732,43.27 C7.205,43.741 7.831,44 8.497,44 L8.497,44 Z M8.563,40.999 L24.235,39.998 C24.628,39.973 24.968,39.721 25.107,39.353 C25.246,38.985 25.157,38.571 24.878,38.293 L18.764,32.18 C18.747,32.163 17,30.516 17,28.5 C17,26.458 18.692,24.722 18.702,24.711 L28.891,14.649 C29.147,14.397 29.247,14.027 29.155,13.68 C29.063,13.333 28.792,13.062 28.445,12.971 L23.823,11.75 C23.256,11.604 22.783,11.523 22.353,11.523 C21.428,11.523 20.704,11.893 19.668,12.758 L12.917,18.793 C12.466,19.173 12.272,18.979 12.146,18.852 C11.869,18.574 12.107,18.205 12.167,18.124 L18.757,11.132 C20.421,9.366 21.222,9.113 23.512,9.623 L30.222,11.131 C31.778,11.481 33.217,12.24 34.384,13.327 L42.25,20.657 C43.22,21.633 43.974,21.989 45.342,22.12 L53.353,22.989 C53.46,23.005 53.995,23.104 54,23.491 C54.002,23.631 53.912,23.743 53.858,23.798 C53.735,23.923 53.557,24 53.394,24 L44.438,24 C42.713,24 41.857,23.46 40.873,22.459 L37.207,18.793 C37.019,18.605 36.766,18.5 36.5,18.5 L36.497,18.5 C36.23,18.501 35.976,18.608 35.789,18.797 L23.653,31.08 C23.3,31.436 23.266,31.999 23.574,32.395 L29.624,40.199 C29.649,40.232 29.678,40.263 29.707,40.293 C29.896,40.482 30,40.733 30,41 C30,41.267 29.896,41.518 29.707,41.707 C29.518,41.896 29.267,42 29,42 L8.499,42 L8.498,42 C8.319,42 8.201,41.909 8.146,41.854 C8.092,41.8 8,41.681 8,41.501 C8,41.072 8.491,41.006 8.563,40.999 L8.563,40.999 Z" id="Shape" fill="#000000"></path>
    </g>
</svg>