<?xml version="1.0" encoding="UTF-8" standalone="no"?>
<svg width="64px" height="64px" viewBox="0 0 64 64" version="1.1" xmlns="http://www.w3.org/2000/svg" xmlns:xlink="http://www.w3.org/1999/xlink">
    <!-- Generator: Sketch 3.7.2 (28276) - http://www.bohemiancoding.com/sketch -->
    <title>act-sprinting</title>
    <desc>Created with Sketch.</desc>
    <defs></defs>
    <g id="64px-Line" stroke="none" stroke-width="1" fill="none" fill-rule="evenodd">
        <g id="act-sprinting"></g>
        <path d="M12.593,50 L28,50 C30.206,50 32,48.206 32,46 L32,43 C32,40.721 32.359,40.058 33.786,38.631 L44,28.416 L44,35.001 C44,38.599 45.402,40.001 49,40.001 L57.5,40 C58.879,40 60,38.878 60,37.5 C60,36.095 58.781,35.128 57.617,35.007 L50,34.111 L50,26.916 C50,25.323 49.574,23.749 48.768,22.365 C47.941,20.948 47.065,19.774 46.166,18.876 C44.543,17.253 42.429,16.216 41.312,15.743 C40.842,15.543 40.358,15.389 39.832,15.269 L31.73,13.428 C29.816,13.01 28.238,13.502 26.733,15.01 L19.732,22.733 C18.757,23.708 18.757,25.294 19.732,26.268 C20.677,27.213 22.359,27.181 23.234,26.299 L30.785,19.404 L34.926,20.66 L28.315,27.271 C27.953,27.597 26.001,29.556 26.001,34.001 L26.001,44.067 L12.356,45.011 C10.96,45.215 10.012,46.205 10.001,47.476 C9.995,48.12 10.252,48.736 10.724,49.213 C11.219,49.713 11.9,50 12.593,50 L12.593,50 Z M12.568,46.998 L27.068,45.998 C27.593,45.961 28,45.525 28,45 L28,34.001 C28,30.23 29.575,28.825 29.631,28.776 C29.657,28.755 29.683,28.732 29.707,28.707 L37.519,20.895 C37.768,20.646 37.868,20.286 37.782,19.945 C37.697,19.604 37.439,19.333 37.102,19.231 L30.821,17.326 C30.726,17.297 30.628,17.283 30.531,17.283 C30.285,17.283 30.044,17.374 29.857,17.545 L21.852,24.855 C21.726,24.981 21.577,25 21.5,25 C21.423,25 21.274,24.981 21.146,24.854 C21.02,24.726 21,24.577 21,24.5 C21,24.423 21.02,24.274 21.181,24.111 L28.182,16.388 C29.166,15.403 30.074,15.11 31.296,15.38 L39.39,17.219 C39.799,17.312 40.172,17.431 40.532,17.583 C41.514,18 43.369,18.906 44.753,20.29 C45.53,21.067 46.301,22.104 47.041,23.373 C47.669,24.451 48.001,25.676 48.001,26.916 L48.001,35 C48.001,35.507 48.381,35.934 48.884,35.993 L57.398,36.994 C57.683,37.024 58.002,37.246 58.002,37.499 C58.002,37.775 57.777,37.999 57.502,37.999 L49.002,38 C46.534,38 46.002,37.467 46.002,35 L46.002,26 C46.002,25.596 45.758,25.231 45.385,25.076 C45.01,24.922 44.581,25.006 44.295,25.293 L32.374,37.216 C30.621,38.967 30,40.104 30,43 L30,46 C30,47.103 29.103,48 28,48 L12.593,48 C12.433,48 12.265,47.927 12.144,47.805 C12.09,47.75 11.999,47.637 12,47.495 C12.004,47.123 12.452,47.018 12.568,46.998 L12.568,46.998 Z" id="Shape" fill="#000000"></path>
        <path d="M15.417,43 C15.678,43 15.939,42.898 16.136,42.696 L23.719,34.868 C24.103,34.472 24.093,33.838 23.696,33.454 C23.301,33.071 22.668,33.079 22.282,33.476 L14.7,41.304 C14.315,41.7 14.325,42.334 14.722,42.718 C14.915,42.906 15.166,43 15.417,43 L15.417,43 Z" id="Shape" fill="#000000"></path>
        <path d="M22.301,39.113 L20.634,40.743 C20.239,41.129 20.232,41.762 20.618,42.157 C20.813,42.357 21.073,42.458 21.333,42.458 C21.585,42.458 21.838,42.363 22.032,42.173 L23.699,40.543 C24.094,40.157 24.101,39.524 23.715,39.129 C23.331,38.735 22.696,38.727 22.301,39.113 L22.301,39.113 Z" id="Shape" fill="#000000"></path>
        <path d="M4.5,58 C5.169,58 5.797,57.74 6.251,57.284 L10.273,53.443 C10.672,53.062 10.687,52.429 10.306,52.029 C9.923,51.629 9.291,51.615 8.892,51.996 L4.852,55.853 C4.726,55.981 4.577,56 4.5,56 C4.423,56 4.274,55.981 4.146,55.854 C3.952,55.659 3.952,55.342 4.144,55.149 L8.277,51.043 C8.669,50.654 8.671,50.021 8.281,49.628 C7.891,49.236 7.259,49.234 6.867,49.624 L2.732,53.733 C2.26,54.205 2,54.833 2,55.5 C2,56.167 2.26,56.795 2.732,57.268 C3.204,57.741 3.832,58 4.5,58 L4.5,58 Z" id="Shape" fill="#000000"></path>
        <path d="M48.251,18.175 C49.093,18.721 49.985,18.999 50.877,18.999 C51.189,18.999 51.501,18.965 51.811,18.896 C53.305,18.564 54.666,17.471 55.749,15.736 C57.738,12.549 57.354,9.518 54.749,7.826 C53.614,7.088 52.383,6.838 51.19,7.103 C49.696,7.435 48.334,8.527 47.251,10.263 C45.262,13.452 45.645,16.484 48.251,18.175 L48.251,18.175 Z M48.948,11.322 C49.729,10.07 50.679,9.265 51.624,9.055 C51.794,9.017 51.964,8.998 52.133,8.998 C52.637,8.998 53.14,9.165 53.659,9.503 C55.986,11.013 54.709,13.624 54.052,14.677 C53.272,15.928 52.322,16.733 51.377,16.943 C50.699,17.094 50.034,16.947 49.339,16.496 C47.014,14.988 48.291,12.375 48.948,11.322 L48.948,11.322 Z" id="Shape" fill="#000000"></path>
    </g>
</svg>