<?xml version="1.0" encoding="UTF-8" standalone="no"?>
<svg width="64px" height="64px" viewBox="0 0 64 64" version="1.1" xmlns="http://www.w3.org/2000/svg" xmlns:xlink="http://www.w3.org/1999/xlink">
    <!-- Generator: Sketch 3.7.2 (28276) - http://www.bohemiancoding.com/sketch -->
    <title>act-ice-skating</title>
    <desc>Created with Sketch.</desc>
    <defs></defs>
    <g id="64px-Line" stroke="none" stroke-width="1" fill="none" fill-rule="evenodd">
        <g id="act-ice-skating"></g>
        <path d="M61,20.001 C60.447,20.001 60,20.448 60,21.001 L60,30.001 C60,31.104 59.103,32 58,32 C57.447,32 57,32.447 57,33 C57,33.553 57.447,34 58,34 C60.206,34 62,32.206 62,30.001 L62,21.001 C62,20.448 61.553,20.001 61,20.001 L61,20.001 Z" id="Shape" fill="#000000"></path>
        <path d="M58,24.502 C58,23.123 56.879,22.002 55.5,22.002 L38,22.001 C37.448,22.001 37,22.448 37,23.001 C37,23.553 37.447,24.001 38,24.001 L55.5,24.002 C55.775,24.002 56,24.227 56,24.502 C56,24.909 55.588,24.99 55.439,25.004 L38.939,26.002 C38.388,26.035 37.968,26.509 38.001,27.061 C38.033,27.591 38.474,28 38.998,28 C39.019,28 39.039,27.999 39.06,27.998 L55.588,26.998 C57.009,26.871 58,25.845 58,24.502 L58,24.502 Z" id="Shape" fill="#000000"></path>
        <path d="M37,58 L28,58 C26.897,58 26,57.103 26,56 C26,55.447 25.553,55 25,55 C24.447,55 24,55.447 24,56 C24,58.206 25.794,60 28,60 L37,60 C37.553,60 38,59.553 38,59 C38,58.447 37.553,58 37,58 L37,58 Z" id="Shape" fill="#000000"></path>
        <path d="M30,53.5 C30,54.879 31.121,56 32.5,56 C33.879,56 35,54.879 34.999,53.539 L35.999,28.039 C36,28.026 36,28.013 36,28 C36,26.397 35.376,24.891 34.243,23.758 C33.11,22.625 31.603,22.001 30.002,22.001 L30,22.001 L18.303,22 L29.268,10.268 C30.243,9.293 30.243,7.707 29.268,6.733 C28.322,5.788 26.661,5.802 25.746,6.72 L12.307,19.685 C10.777,21.163 10.001,22.932 10.001,24.944 L10.001,28 C10.001,31.309 12.692,34 16.001,34 L30.001,34 L30.001,53.5 L30,53.5 Z M16,32 C13.794,32 12,30.206 12,28 L12,24.943 C12,23.474 12.555,22.224 13.694,21.124 L27.147,8.145 C27.274,8.018 27.422,7.999 27.5,7.999 C27.578,7.999 27.726,8.018 27.854,8.145 C27.982,8.272 28,8.423 28,8.5 C28,8.577 27.981,8.726 27.83,8.878 L15.269,22.317 C14.997,22.608 14.923,23.033 15.082,23.398 C15.24,23.763 15.601,24 15.999,24 L29.999,24.001 L30.001,24.001 C31.068,24.001 32.072,24.417 32.827,25.172 C33.579,25.923 33.994,26.92 33.999,27.982 L32.999,53.501 C32.999,53.776 32.774,54.001 32.499,54.001 C32.224,54.001 31.999,53.776 31.999,53.501 L31.999,33 C31.999,32.447 31.552,32 30.999,32 L16,32 L16,32 Z" id="Shape" fill="#000000"></path>
        <path d="M5,12 C1.963,12 0,14.355 0,18 C0,21.645 1.963,24 5,24 C8.037,24 10,21.645 10,18 C10,14.355 8.037,12 5,12 L5,12 Z M5,22 C2.292,22 2,19.203 2,18 C2,16.797 2.292,14 5,14 C7.708,14 8,16.797 8,18 C8,19.203 7.708,22 5,22 L5,22 Z" id="Shape" fill="#000000"></path>
    </g>
</svg>