<?xml version="1.0" encoding="UTF-8" standalone="no"?>
<svg width="64px" height="64px" viewBox="0 0 64 64" version="1.1" xmlns="http://www.w3.org/2000/svg" xmlns:xlink="http://www.w3.org/1999/xlink">
    <!-- Generator: Sketch 3.7.2 (28276) - http://www.bohemiancoding.com/sketch -->
    <title>act-fencing</title>
    <desc>Created with Sketch.</desc>
    <defs></defs>
    <g id="64px-Line" stroke="none" stroke-width="1" fill="none" fill-rule="evenodd">
        <g id="act-fencing"></g>
        <path d="M16.135,40.517 L2.957,59.709 C2.938,59.736 2.921,59.765 2.905,59.793 C2.81,59.923 2.662,60 2.5,60 C2.225,60 2,59.775 2,59.5 C2,59.41 2.022,59.326 2.085,59.22 L14.609,36.158 C14.873,35.673 14.693,35.065 14.208,34.802 C13.721,34.538 13.116,34.719 12.852,35.203 L0.344,58.236 C0.119,58.619 0,59.056 0,59.501 C0,60.88 1.121,62.001 2.5,62.001 C3.366,62.001 4.186,61.54 4.637,60.799 C4.641,60.793 4.644,60.788 4.648,60.782 L17.784,41.65 C18.096,41.194 17.981,40.572 17.526,40.259 C17.068,39.946 16.447,40.062 16.135,40.517 L16.135,40.517 Z" id="Shape" fill="#000000"></path>
        <path d="M37,18 C41.187,18 44,14.785 44,10 C44,5.215 41.187,2 37,2 C36.447,2 36,2.447 36,3 L36,4 C32.691,4 30,6.691 30,10 C30,13.309 32.691,16 36,16 L36,17 C36,17.553 36.447,18 37,18 L37,18 Z M38,4.087 C40.931,4.617 42,7.498 42,10 C42,12.502 40.931,15.383 38,15.913 L38,4.087 L38,4.087 Z M32,10 C32,7.794 33.794,6 36,6 L36,14 C33.794,14 32,12.206 32,10 L32,10 Z" id="Shape" fill="#000000"></path>
        <path d="M61.413,6.09 C60.909,5.858 60.317,6.085 60.09,6.587 L51.123,26.334 C50.443,26.117 49.728,26.001 49,26.001 C48.447,26.001 48,26.448 48,27.001 C48,27.554 48.447,28.001 49,28.001 C50.42,28.001 51.778,28.608 52.727,29.667 C52.925,29.888 53.198,30 53.472,30 C53.71,30 53.949,29.916 54.139,29.745 C54.55,29.376 54.585,28.744 54.217,28.333 C53.831,27.902 53.391,27.531 52.92,27.212 L61.911,7.413 C62.139,6.91 61.916,6.317 61.413,6.09 L61.413,6.09 Z" id="Shape" fill="#000000"></path>
        <path d="M48.611,29.007 L41.695,28.236 C41.678,28.234 40.069,27.992 39.29,26.769 L35.166,20.41 C34.62,19.569 33.972,18.832 33.24,18.222 C31.356,16.645 27.52,14 23,14 L15.909,14 L14.992,4.378 C14.816,2.953 13.816,2 12.5,2 L12.481,2 C11.113,2.01 10,3.162 10,4.569 L10,16 C10,18.206 11.794,20 14,20 L21.311,20 L17.143,27.601 C14.565,32.135 17.122,36.343 17.236,36.526 L23.98,47.188 C24.02,47.251 24.959,48.77 24.223,50.279 L20.198,58.526 C20.067,58.836 20.001,59.164 20.001,59.501 C20.001,60.88 21.122,62.001 22.501,62.001 C23.421,62.001 24.264,61.498 24.676,60.73 L30.403,51.248 C30.465,51.139 31.896,48.575 30.322,46.114 L26.612,38.07 C25.912,36.553 25.981,35.677 26.934,33.995 L31.481,25.967 L35.441,31.712 C35.498,31.806 36.841,34.001 39.44,34.001 L48.451,34.001 C49.673,34.001 50.725,33.158 50.953,31.998 C51.084,31.326 50.944,30.66 50.559,30.123 C50.13,29.523 49.429,29.118 48.611,29.007 L48.611,29.007 Z M48.988,31.612 C48.945,31.83 48.709,32 48.449,32 L39.438,32 C37.989,32 37.185,30.731 37.121,30.63 L32.22,23.516 C32.026,23.233 31.693,23.066 31.353,23.084 C31.009,23.099 30.697,23.29 30.527,23.59 L25.193,33.008 C24.103,34.932 23.689,36.514 24.795,38.907 L28.535,47.016 C28.556,47.062 28.582,47.107 28.61,47.15 C29.565,48.591 28.7,50.193 28.677,50.234 L22.941,59.737 C22.872,59.864 22.72,60 22.501,60 C22.226,60 22.001,59.775 22.001,59.5 C22.001,59.433 22.014,59.367 22.018,59.354 L26.021,51.155 C27.261,48.616 25.727,46.204 25.667,46.113 L18.933,35.466 C18.849,35.329 16.904,32.07 18.89,28.575 L23.878,19.48 C24.048,19.17 24.041,18.794 23.861,18.49 C23.681,18.186 23.354,18 23.001,18 L14.001,18 C12.898,18 12.001,17.103 12.001,16 L12.001,4.569 C12.001,4.267 12.232,4.002 12.496,4 L12.5,4 C12.856,4 12.974,4.338 13.006,4.595 L14.006,15.095 C14.055,15.609 14.485,16 15.001,16 L23.001,16 C26.889,16 30.281,18.353 31.959,19.756 C32.538,20.239 33.053,20.825 33.489,21.498 L37.609,27.851 C38.892,29.866 41.333,30.205 41.455,30.222 L48.366,30.993 C48.609,31.026 48.826,31.139 48.932,31.287 C48.976,31.348 49.022,31.44 48.988,31.612 L48.988,31.612 Z" id="Shape" fill="#000000"></path>
    </g>
</svg>