<?xml version="1.0" encoding="UTF-8" standalone="no"?>
<svg width="64px" height="64px" viewBox="0 0 64 64" version="1.1" xmlns="http://www.w3.org/2000/svg" xmlns:xlink="http://www.w3.org/1999/xlink">
    <!-- Generator: Sketch 3.7.2 (28276) - http://www.bohemiancoding.com/sketch -->
    <title>act-woman</title>
    <desc>Created with Sketch.</desc>
    <defs></defs>
    <g id="64px-Line" stroke="none" stroke-width="1" fill="none" fill-rule="evenodd">
        <g id="act-woman"></g>
        <path d="M31,14 C34.038,14 36,11.645 36,8 C36,4.355 34.038,2 31,2 C27.962,2 26,4.355 26,8 C26,11.645 27.962,14 31,14 L31,14 Z M31,4 C33.708,4 34,6.797 34,8 C34,9.203 33.708,12 31,12 C28.292,12 28,9.203 28,8 C28,6.797 28.292,4 31,4 L31,4 Z" id="Shape" fill="#000000"></path>
        <path d="M21,40 C21.196,40 21.389,39.984 21.576,39.953 L20.025,46.78 C19.958,47.077 20.029,47.388 20.219,47.626 C20.408,47.864 20.696,48.002 21,48.002 L26.133,48 L28.01,61.142 C28.015,61.181 28.023,61.22 28.033,61.258 C28.071,61.401 28.095,61.546 28.118,61.687 C28.256,62.495 28.512,64 31,64 C33.259,64 33.657,62.852 33.853,61.776 C33.882,61.618 33.911,61.45 33.96,61.278 C33.973,61.233 33.983,61.187 33.989,61.141 L35.866,48 L41,48 C41.304,48 41.592,47.862 41.782,47.624 C41.971,47.386 42.043,47.075 41.975,46.778 L40.423,39.951 C40.611,39.983 40.804,40 41,40 C42.654,40 44,38.654 44,37 C44,36.77 43.974,36.541 43.913,36.282 L39.955,21.748 C38.766,17.182 36.927,16 31.01,16 C25.256,16 23.25,17.288 22.069,21.736 L18.09,36.27 C18.03,36.506 18,36.752 18,37 C18,38.654 19.346,40 21,40 L21,40 Z M20.025,36.779 L24,22.257 C24.89,18.907 25.863,18 31.01,18 C36.333,18 37.136,18.86 38.022,22.263 L41.975,36.772 C41.991,36.846 42,36.923 42,37 C42,37.551 41.551,38 41,38 C40.449,38 39.885,37.646 39.811,37.256 L36.975,24.778 C36.853,24.24 36.321,23.903 35.778,24.025 C35.239,24.148 34.902,24.683 35.025,25.222 L39.747,46.001 L35,46.001 C34.502,46.001 34.081,46.367 34.01,46.859 L32.02,60.794 C31.961,61.008 31.922,61.218 31.886,61.418 C31.856,61.586 31.809,61.84 31.778,61.891 C31.776,61.892 31.624,62 31,62 C30.201,62 30.201,62 30.091,61.352 C30.06,61.172 30.028,60.988 29.983,60.805 L27.99,46.859 C27.919,46.366 27.498,46 27,46 L22.253,46.001 L26.975,25.222 C27.098,24.683 26.76,24.148 26.222,24.025 C25.683,23.903 25.148,24.24 25.025,24.778 L22.184,37.281 C22.112,37.665 21.561,38 21,38 C20.449,38 20,37.551 20,37 C20,36.918 20.009,36.84 20.025,36.779 L20.025,36.779 Z" id="Shape" fill="#000000"></path>
    </g>
</svg>