<?xml version="1.0" encoding="UTF-8" standalone="no"?>
<svg width="64px" height="64px" viewBox="0 0 64 64" version="1.1" xmlns="http://www.w3.org/2000/svg" xmlns:xlink="http://www.w3.org/1999/xlink">
    <!-- Generator: Sketch 3.7.2 (28276) - http://www.bohemiancoding.com/sketch -->
    <title>act-kickboxing</title>
    <desc>Created with Sketch.</desc>
    <defs></defs>
    <g id="64px-Line" stroke="none" stroke-width="1" fill="none" fill-rule="evenodd">
        <g id="act-kickboxing"></g>
        <path d="M30.5,8 C30.577,8 30.726,8.019 30.882,8.174 L40.33,16.914 C40.734,17.288 41.367,17.266 41.743,16.858 C42.118,16.453 42.094,15.82 41.687,15.445 L32.268,6.733 C31.326,5.79 29.678,5.787 28.732,6.732 C27.763,7.701 27.744,9.133 28.702,10.236 L36.414,18.655 C36.611,18.87 36.881,18.979 37.151,18.979 C37.392,18.979 37.634,18.892 37.827,18.716 C38.234,18.343 38.262,17.71 37.889,17.303 L30.195,8.904 C30.024,8.708 29.877,8.417 30.147,8.146 C30.274,8.019 30.423,8 30.5,8 L30.5,8 Z" id="Shape" fill="#000000"></path>
        <path d="M22.279,28.522 C22.475,28.727 22.738,28.831 23.002,28.831 C23.251,28.831 23.499,28.739 23.693,28.554 C24.091,28.172 24.106,27.539 23.724,27.14 L8.146,10.854 C8.019,10.726 8,10.578 8,10.5 C8,10.422 8.02,10.274 8.146,10.146 C8.274,10.018 8.422,10 8.5,10 C8.578,10 8.726,10.019 8.87,10.163 L24.169,24.77 C24.568,25.151 25.2,25.137 25.583,24.737 C25.964,24.338 25.949,23.705 25.55,23.323 L10.268,8.732 C9.293,7.757 7.707,7.757 6.733,8.732 C5.759,9.707 5.758,11.293 6.717,12.252 L22.279,28.522 L22.279,28.522 Z" id="Shape" fill="#000000"></path>
        <path d="M50,32 L50,23 C50,21.216 49.234,19.74 47.843,18.844 C46.39,17.906 44.496,17.774 42.9,18.495 L29.658,24.498 C29.508,24.553 26,25.867 26,29 L26,55.5 C26,56.879 27.121,58 28.5,58 C29.788,58 30.837,56.996 30.999,55.551 L31.967,36.674 L34.898,35.418 C35.333,35.781 35.891,36 36.501,36 L46.001,36 C48.206,36 50,34.206 50,32 L50,32 Z M36.095,33.792 C36.076,33.751 36.055,33.713 36.033,33.676 C36.012,33.621 36.001,33.562 36.001,33.5 C36.001,33.093 36.413,33.012 36.618,32.993 L45.118,31.993 C45.621,31.933 46.001,31.507 46.001,31 L46.001,25 C46.001,24.447 45.554,24 45.001,24 C44.448,24 44.001,24.447 44.001,25 L44.001,30.11 L36.412,31.004 C34.992,31.131 34.001,32.157 34.001,33.5 C34.001,33.542 34.002,33.584 34.004,33.625 L30.608,35.081 C30.257,35.231 30.022,35.567 30.003,35.949 L29.009,55.387 C28.983,55.615 28.847,55.999 28.502,55.999 C28.227,55.999 28.002,55.774 28.002,55.499 L28.002,29 C28.002,27.271 30.324,26.385 30.415,26.349 L43.727,20.318 C44.141,20.13 44.596,20.038 45.05,20.038 C45.655,20.038 46.26,20.203 46.761,20.525 C47.326,20.89 48.001,21.616 48.001,23.001 L48.001,32.001 C48.001,33.104 47.104,34.001 46.001,34.001 L36.501,34.001 C36.333,34 36.186,33.918 36.095,33.792 L36.095,33.792 Z" id="Shape" fill="#000000"></path>
        <path d="M53.19,8.104 C51.696,8.436 50.334,9.529 49.251,11.264 C47.262,14.452 47.645,17.484 50.251,19.175 C51.093,19.721 51.985,19.999 52.877,19.999 C53.189,19.999 53.501,19.965 53.811,19.896 C55.305,19.563 56.666,18.471 57.749,16.736 C59.738,13.549 59.355,10.518 56.75,8.826 C55.614,8.089 54.383,7.841 53.19,8.104 L53.19,8.104 Z M55.66,10.504 C57.986,12.014 56.709,14.625 56.052,15.678 C55.272,16.929 54.322,17.734 53.377,17.944 C52.7,18.094 52.034,17.948 51.339,17.498 C49.014,15.989 50.291,13.376 50.948,12.323 C51.729,11.071 52.679,10.266 53.624,10.056 C53.794,10.019 53.964,9.999 54.134,9.999 C54.637,9.999 55.141,10.166 55.66,10.504 L55.66,10.504 Z" id="Shape" fill="#000000"></path>
    </g>
</svg>