<?xml version="1.0" encoding="UTF-8" standalone="no"?>
<svg width="64px" height="64px" viewBox="0 0 64 64" version="1.1" xmlns="http://www.w3.org/2000/svg" xmlns:xlink="http://www.w3.org/1999/xlink">
    <!-- Generator: Sketch 3.7.2 (28276) - http://www.bohemiancoding.com/sketch -->
    <title>act-ice-hockey</title>
    <desc>Created with Sketch.</desc>
    <defs></defs>
    <g id="64px-Line" stroke="none" stroke-width="1" fill="none" fill-rule="evenodd">
        <g id="act-ice-hockey"></g>
        <path d="M2,39 C2,38.447 1.552,38 1,38 C0.448,38 0,38.447 0,39 L0,49 C0,50.654 1.346,52 3,52 C3.552,52 4,51.553 4,51 C4,50.447 3.552,50 3,50 C2.449,50 2,49.552 2,49 L2,43.5 L2,39 L2,39 Z" id="Shape" fill="#000000"></path>
        <path d="M43.749,2.826 C42.614,2.089 41.385,1.84 40.19,2.103 C38.696,2.434 37.334,3.527 36.251,5.263 C34.261,8.451 34.644,11.483 37.251,13.174 C38.092,13.72 38.986,13.998 39.877,13.998 C40.189,13.998 40.502,13.964 40.811,13.895 C42.305,13.562 43.666,12.47 44.749,10.735 L44.749,10.735 C46.738,7.55 46.355,4.519 43.749,2.826 L43.749,2.826 Z M43.052,9.678 L43.052,9.678 C42.271,10.929 41.321,11.734 40.376,11.944 C39.702,12.095 39.034,11.948 38.339,11.498 C36.013,9.989 37.291,7.376 37.947,6.323 C38.728,5.071 39.679,4.266 40.623,4.056 C40.793,4.019 40.962,3.999 41.132,3.999 C41.635,3.999 42.139,4.166 42.659,4.504 C44.986,6.015 43.709,8.625 43.052,9.678 L43.052,9.678 Z" id="Shape" fill="#000000"></path>
        <path d="M20,61 C20,61.553 20.448,62 21,62 L31,62 C32.654,62 34,60.654 34,59 C34,58.447 33.552,58 33,58 C32.448,58 32,58.447 32,59 C32,59.552 31.551,60 31,60 L27.445,60 L21,60 C20.448,60 20,60.447 20,61 L20,61 Z" id="Shape" fill="#000000"></path>
        <path d="M63,60 L61,60 C60.448,60 60,60.447 60,61 C60,61.553 60.448,62 61,62 L63,62 C63.552,62 64,61.553 64,61 C64,60.447 63.552,60 63,60 L63,60 Z" id="Shape" fill="#000000"></path>
        <path d="M57,60 L54,60 C53.023,60 52.234,59.488 51.949,58.684 L45.949,40.684 C45.774,40.161 45.209,39.877 44.684,40.052 C44.16,40.226 43.877,40.792 44.052,41.317 L50.058,59.335 C50.632,60.954 52.18,62 54,62 L57,62 C57.552,62 58,61.553 58,61 C58,60.447 57.552,60 57,60 L57,60 Z" id="Shape" fill="#000000"></path>
        <path d="M4.5,46 L13.042,46 C14.868,46 16.128,45.419 17.7,43.848 L22.085,39.347 C22.47,38.951 22.462,38.318 22.066,37.933 C21.67,37.547 21.037,37.554 20.652,37.951 L16.277,42.443 C15.083,43.636 14.327,44.001 13.043,44.001 L4.5,44.001 C4.224,44.001 4,43.776 4,43.501 C4,43.255 4.176,43.048 4.375,43.015 L11.975,42.12 C14.015,41.982 15.1,40.324 15.144,40.255 L19.34,33.73 C19.638,33.265 19.504,32.647 19.04,32.348 C18.575,32.049 17.957,32.184 17.658,32.648 L13.467,39.167 C13.443,39.203 12.86,40.057 11.791,40.13 L4.097,41.034 C2.882,41.23 2,42.268 2,43.5 C2,44.879 3.122,46 4.5,46 L4.5,46 Z" id="Shape" fill="#000000"></path>
        <path d="M36.146,24.535 L41.124,36.273 C41.459,37.306 42.415,38.001 43.502,38.001 C44.88,38.001 46.002,36.88 46.002,35.501 C46.002,35.268 45.97,35.036 45.906,34.813 C45.895,34.773 45.881,34.734 45.864,34.696 L39.887,17.652 C39.831,17.502 38.471,14 33.5,14 C28.99,14 26.906,17.338 26.809,17.496 L22.087,25.6 C19.509,30.134 22.066,34.342 22.179,34.525 L28.924,45.187 C28.964,45.25 29.904,46.769 29.167,48.278 L25.142,56.525 C25.011,56.835 24.945,57.163 24.945,57.5 C24.945,58.879 26.067,60 27.445,60 C28.365,60 29.208,59.497 29.619,58.729 L35.346,49.247 C35.408,49.138 36.839,46.574 35.265,44.113 L31.555,36.069 C30.855,34.552 30.924,33.676 31.876,31.998 L36.146,24.535 L36.146,24.535 Z M29.739,36.907 L33.479,45.016 C33.5,45.062 33.525,45.107 33.554,45.15 C34.51,46.591 33.644,48.193 33.622,48.234 L27.885,57.737 C27.816,57.864 27.665,58 27.445,58 C27.169,58 26.945,57.775 26.945,57.5 C26.945,57.433 26.958,57.367 26.962,57.354 L30.965,49.155 C32.205,46.616 30.671,44.204 30.612,44.113 L23.877,33.466 C23.793,33.329 21.848,30.07 23.821,26.599 L28.525,18.526 C28.589,18.422 30.143,16 33.5,16 C37.035,16 37.978,18.263 38.005,18.331 L43.992,35.402 C43.998,35.434 44.001,35.467 44.001,35.501 C44.001,35.776 43.777,36.001 43.501,36.001 C43.25,36.001 43.081,35.828 42.995,35.574 L37.2,21.897 C37.052,21.547 36.718,21.312 36.339,21.29 C35.952,21.268 35.6,21.461 35.411,21.791 L30.137,31.008 C29.048,32.932 28.633,34.514 29.739,36.907 L29.739,36.907 Z" id="Shape" fill="#000000"></path>
    </g>
</svg>