<?xml version="1.0" encoding="UTF-8" standalone="no"?>
<svg width="64px" height="64px" viewBox="0 0 64 64" version="1.1" xmlns="http://www.w3.org/2000/svg" xmlns:xlink="http://www.w3.org/1999/xlink">
    <!-- Generator: Sketch 3.7.2 (28276) - http://www.bohemiancoding.com/sketch -->
    <title>act-man</title>
    <desc>Created with Sketch.</desc>
    <defs></defs>
    <g id="64px-Line" stroke="none" stroke-width="1" fill="none" fill-rule="evenodd">
        <g id="act-man"></g>
        <path d="M31,14 C34.038,14 36,11.645 36,8 C36,4.355 34.038,2 31,2 C27.962,2 26,4.355 26,8 C26,11.645 27.962,14 31,14 L31,14 Z M31,4 C33.708,4 34,6.797 34,8 C34,9.203 33.708,12 31,12 C28.292,12 28,9.203 28,8 C28,6.797 28.292,4 31,4 L31,4 Z" id="Shape" fill="#000000"></path>
        <path d="M23,42 C23.352,42 23.686,41.928 24,41.816 L24,61 C24,63.212 25.292,64 26.5,64 C27.708,64 29,63.212 28.999,61.05 L30,41 C30,40.449 30.449,40 31,40 C31.551,40 32,40.449 32.001,41.05 L33,61 C33,63.212 34.292,64 35.5,64 C36.708,64 38,63.212 38,61 L38,41.816 C38.314,41.928 38.648,42 39,42 C40.654,42 42,40.654 41.998,38.941 L40.996,21.91 C40.5,16.457 35.576,16 31,16 C26.428,16 21.507,16.457 21.002,21.941 L20,39 C20,40.654 21.346,42 23,42 L23,42 Z M22.996,22.092 C23.278,19.033 25.298,18 31,18 C36.778,18 38.723,18.994 39.002,22.059 L40,39 C40,39.551 39.551,40 39,40 C38.449,40 38,39.551 38,39 L38,25 C38,24.448 37.552,24 37,24 C36.448,24 36,24.448 36,25 L36,61 C36,62 35.675,62 35.5,62 C35.325,62 35,62 34.999,60.95 L34,41 C34,39.346 32.654,38 31,38 C29.346,38 28,39.346 28.001,40.95 L27,61 C27,62 26.675,62 26.5,62 C26.325,62 26,62 26,61 L26,25 C26,24.448 25.552,24 25,24 C24.448,24 24,24.448 24,25 L24,39 C24,39.551 23.551,40 23,40 C22.449,40 22,39.551 21.998,39.059 L22.996,22.092 L22.996,22.092 Z" id="Shape" fill="#000000"></path>
    </g>
</svg>