<?xml version="1.0" encoding="UTF-8" standalone="no"?>
<svg width="64px" height="64px" viewBox="0 0 64 64" version="1.1" xmlns="http://www.w3.org/2000/svg" xmlns:xlink="http://www.w3.org/1999/xlink">
    <!-- Generator: Sketch 3.7.2 (28276) - http://www.bohemiancoding.com/sketch -->
    <title>act-9-pin-bowling</title>
    <desc>Created with Sketch.</desc>
    <defs></defs>
    <g id="64px-Line" stroke="none" stroke-width="1" fill="none" fill-rule="evenodd">
        <g id="act-9-pin-bowling"></g>
        <path d="M16.189,14.896 C16.498,14.964 16.81,14.999 17.122,14.999 C18.013,14.999 18.907,14.721 19.748,14.175 C22.354,12.484 22.737,9.452 20.748,6.264 C19.665,4.528 18.303,3.435 16.809,3.104 C15.614,2.839 14.386,3.088 13.25,3.827 C10.644,5.519 10.261,8.551 12.25,11.737 C13.334,13.472 14.696,14.564 16.189,14.896 L16.189,14.896 Z M14.34,5.504 C14.86,5.166 15.363,4.999 15.867,4.999 C16.036,4.999 16.206,5.019 16.376,5.056 C17.32,5.266 18.271,6.071 19.051,7.323 C19.708,8.376 20.985,10.989 18.66,12.498 C17.965,12.949 17.297,13.096 16.623,12.944 C15.679,12.735 14.729,11.929 13.948,10.678 C13.292,9.625 12.015,7.014 14.34,5.504 L14.34,5.504 Z" id="Shape" fill="#000000"></path>
        <path d="M47.5,14 L27,14 C21.774,14 14,16.396 14,23 L14,41.5 C14,42.879 15.122,44 16.5,44 C17.819,44 18.869,42.986 18.999,41.554 L19.795,26.825 L22.665,32.565 C23.551,34.3 24,35.621 24,38.02 L24,46 C24,48.206 25.794,50 28,50 L29,50 C29.552,50 30,49.553 30,49 C30,48.447 29.552,48 29,48 L28,48 C26.897,48 26,47.103 26,46 L26,38.021 C26,35.245 25.43,33.584 24.45,31.664 L19.895,22.554 C19.692,22.148 19.242,21.933 18.797,22.022 C18.353,22.115 18.026,22.495 18.002,22.948 L17.004,41.411 C16.995,41.508 16.929,42 16.5,42 C16.224,42 16,41.775 16,41.5 L16,23 C16,17.864 22.578,16 27,16 L47.5,16 C47.776,16 48,16.225 48,16.5 C48,16.775 47.776,17 47.441,17.002 L30.353,18.002 C30.022,18.022 29.722,18.204 29.552,18.489 C29.383,18.774 29.365,19.125 29.507,19.426 L34.702,30.466 C35.912,33.037 36,33.612 36,36.021 L36,59.5 C36,59.775 35.776,60 35.5,60 C35.106,60 35.016,59.632 34.999,59.456 L34,37 C34,35.346 32.654,34 31,34 C29.346,34 28,35.346 28,37 L28,45.001 C28,45.554 28.448,46.001 29,46.001 C29.552,46.001 30,45.554 30,45.001 L30,37 C30,36.448 30.449,36 31,36 C31.551,36 32,36.448 32.001,37.044 L33.004,59.587 C33.128,61.008 34.155,62 35.5,62 C36.878,62 38,60.879 38,59.5 L38,36.021 C38,33.351 37.872,32.505 36.512,29.615 L31.946,19.913 L47.5,19 C48.878,19 50,17.879 50,16.5 C50,15.121 48.878,14 47.5,14 L47.5,14 Z" id="Shape" fill="#000000"></path>
        <path d="M41.576,45.003 L41.076,44.965 C40.521,44.919 40.045,45.335 40.003,45.886 C39.961,46.437 40.374,46.917 40.924,46.959 L41.365,46.991 C42,47.077 42,47.385 42,47.5 C42,47.775 41.776,48 41.5,48 L41,48 C40.448,48 40,48.447 40,49 C40,49.553 40.448,50 41,50 L41.5,50 C42.878,50 44,48.879 44,47.5 C44,46.183 43.072,45.205 41.576,45.003 L41.576,45.003 Z" id="Shape" fill="#000000"></path>
        <path d="M17,52 C14.243,52 12,54.243 12,57 C12,59.757 14.243,62 17,62 C19.757,62 22,59.757 22,57 C22,54.243 19.757,52 17,52 L17,52 Z M17,60 C15.346,60 14,58.654 14,57 C14,55.346 15.346,54 17,54 C18.654,54 20,55.346 20,57 C20,58.654 18.654,60 17,60 L17,60 Z" id="Shape" fill="#000000"></path>
    </g>
</svg>