<?xml version="1.0" encoding="UTF-8" standalone="no"?>
<svg width="64px" height="64px" viewBox="0 0 64 64" version="1.1" xmlns="http://www.w3.org/2000/svg" xmlns:xlink="http://www.w3.org/1999/xlink">
    <!-- Generator: Sketch 3.7.2 (28276) - http://www.bohemiancoding.com/sketch -->
    <title>act-walking</title>
    <desc>Created with Sketch.</desc>
    <defs></defs>
    <g id="64px-Line" stroke="none" stroke-width="1" fill="none" fill-rule="evenodd">
        <g id="act-walking"></g>
        <path d="M33,14 C36.038,14 38,11.645 38,8 C38,4.355 36.038,2 33,2 C29.962,2 28,4.355 28,8 C28,11.645 29.962,14 33,14 L33,14 Z M33,4 C35.708,4 36,6.797 36,8 C36,9.203 35.708,12 33,12 C30.292,12 30,9.203 30,8 C30,6.797 30.292,4 33,4 L33,4 Z" id="Shape" fill="#000000"></path>
        <path d="M14.5,36 C15.687,36 16.708,35.167 16.948,34.011 L19.521,25.714 C19.725,25.057 19.909,24.737 20.79,24.434 L23.788,23.504 L17.036,61.083 C17.014,61.219 17.001,61.359 17.001,61.5 C17.001,62.878 18.123,64 19.501,64 C20.698,64 21.717,63.12 21.973,61.891 C21.973,61.891 25.853,45.906 26.257,44.225 C26.432,43.498 26.798,42.28 27.283,42.28 C27.512,42.28 27.894,42.28 28.409,44.252 L33.065,62.064 C33.328,63.204 34.33,64 35.501,64 C36.879,64 38.001,62.878 38.001,61.5 C38.001,61.279 37.972,61.06 37.915,60.847 C37.914,60.843 37.913,60.84 37.912,60.836 L33.868,41.784 C33.453,39.829 33.405,37.93 33.721,36.154 L34.975,29.633 L35.087,29.898 C35.736,31.24 36.453,32.494 38.116,33.094 L46.739,35.876 C47.374,36.081 48.051,36.028 48.646,35.723 C49.241,35.419 49.681,34.901 49.886,34.265 C50.273,33.069 49.648,31.766 48.378,31.158 L42.018,28.295 C41.373,28.003 40.903,27.565 40.146,26.029 L37.771,20.561 C36.575,18.051 34.525,17.086 34.4,17.03 C29.013,14.822 23.827,16.987 23.686,17.051 L18.221,18.873 C16.426,19.472 14.67,20.476 13.973,23.775 C13.935,23.948 13.767,24.717 12.077,32.891 C12.025,33.091 12,33.295 12,33.5 C12,34.878 13.122,36 14.5,36 L14.5,36 Z M14.026,33.337 C15.72,25.138 15.887,24.375 15.935,24.155 C16.395,21.975 17.315,21.284 18.852,20.772 L24.394,18.92 C24.439,18.899 29.019,16.987 33.596,18.862 C33.611,18.869 35.093,19.592 35.95,21.391 L38.331,26.87 C39.113,28.46 39.832,29.501 41.194,30.119 L47.535,32.973 C47.767,33.084 48.077,33.357 47.982,33.652 C47.926,33.823 47.803,33.908 47.734,33.944 C47.665,33.979 47.524,34.029 47.353,33.974 L38.762,31.203 C37.908,30.894 37.493,30.283 36.908,29.075 L35.536,25.822 C35.365,25.417 34.953,25.172 34.51,25.216 C34.072,25.262 33.716,25.589 33.633,26.022 L31.755,35.791 C31.391,37.835 31.443,39.992 31.912,42.2 L36,61.459 L36,61.501 C36,61.777 35.776,62.001 35.5,62.001 C35.266,62.001 35.065,61.842 35.005,61.587 L30.342,43.747 C30.026,42.536 29.437,40.281 27.281,40.281 C25.148,40.281 24.54,42.807 24.311,43.759 C23.907,45.439 20.028,61.42 20.021,61.452 C19.968,61.705 19.8,62.001 19.5,62.001 C19.224,62.001 19,61.777 19.007,61.425 L26.047,22.239 C26.109,21.895 25.986,21.544 25.725,21.313 C25.464,21.082 25.102,21.003 24.767,21.107 L20.169,22.533 C18.54,23.093 17.968,23.972 17.611,25.121 L15.018,33.482 C15.003,33.53 14.992,33.578 14.985,33.626 C14.928,33.845 14.729,34 14.5,34 C14.224,34 14,33.776 14,33.5 C14,33.46 14.004,33.423 14.026,33.337 L14.026,33.337 Z" id="Shape" fill="#000000"></path>
    </g>
</svg>