<?xml version="1.0" encoding="UTF-8" standalone="no"?>
<svg width="64px" height="64px" viewBox="0 0 64 64" version="1.1" xmlns="http://www.w3.org/2000/svg" xmlns:xlink="http://www.w3.org/1999/xlink">
    <!-- Generator: Sketch 3.7.2 (28276) - http://www.bohemiancoding.com/sketch -->
    <title>act-karate</title>
    <desc>Created with Sketch.</desc>
    <defs></defs>
    <g id="64px-Line" stroke="none" stroke-width="1" fill="none" fill-rule="evenodd">
        <g id="act-karate"></g>
        <path d="M38,12 C38,8.355 36.037,6 33,6 C29.963,6 28,8.355 28,12 C28,15.645 29.963,18 33,18 C36.037,18 38,15.645 38,12 L38,12 Z M30,12 C30,10.797 30.292,8 33,8 C35.708,8 36,10.797 36,12 C36,13.203 35.708,16 33,16 C30.292,16 30,13.203 30,12 L30,12 Z" id="Shape" fill="#000000"></path>
        <path d="M10.5,22 L27,22 C27.553,22 28,21.553 28,21 C28,20.447 27.553,20 27,20 L10.5,20 C9.121,20 8,21.121 8,22.5 C8,23.877 9.119,24.998 10.427,24.998 L10.432,24.998 L24.932,25.998 C24.955,25.999 24.978,26 25.001,26 C25.522,26 25.961,25.597 25.998,25.068 C26.035,24.517 25.62,24.04 25.068,24.002 L10.5,23 C10.225,23 10,22.775 10,22.5 C10,22.225 10.225,22 10.5,22 L10.5,22 Z" id="Shape" fill="#000000"></path>
        <path d="M18.5,60 C19.817,60 20.866,58.987 20.998,57.568 L21.895,44.544 C21.928,44.216 21.994,44 22.583,44 L34,44 C37.309,44 40,41.309 40,38 L40,34.001 L46.999,34 L47.002,34 C47.803,34 48.555,33.688 49.121,33.122 C49.687,32.556 50,31.803 50,31.001 C50,30.36 49.801,29.749 49.425,29.234 C49.386,29.18 49.342,29.131 49.294,29.088 L41.95,21.567 C40.935,20.528 39.606,20.001 38,20.001 L34,20.001 C30.691,20.001 28,22.692 28,26.001 L28,37.105 L19.884,38.007 C17.561,38.279 16,39.884 16,42 L16,57.5 C16,58.879 17.121,60 18.5,60 L18.5,60 Z M18,42 C18,40.703 19.093,40.113 20.11,39.994 L29.11,38.994 C29.617,38.937 30,38.51 30,38 L30,26 C30,23.794 31.794,22 34,22 L38,22 C39.062,22 39.886,22.315 40.519,22.963 L47.847,30.469 C47.948,30.627 48,30.81 48,31.001 C48,31.268 47.896,31.52 47.707,31.708 C47.519,31.896 47.269,32 47.001,32 L47,32 L39.036,32.001 C39.011,31.999 38.989,31.999 38.964,32.001 L34.5,32.001 C34.225,32.001 34,31.776 34,31.501 C34,31.114 34.438,31.017 34.632,30.992 L42.132,29.992 C42.509,29.942 42.825,29.681 42.947,29.321 C43.069,28.961 42.976,28.563 42.707,28.294 L38.707,24.293 C38.316,23.902 37.684,23.902 37.293,24.293 C36.902,24.684 36.902,25.316 37.293,25.707 L39.862,28.277 L34.375,29.008 C32.977,29.185 32,30.209 32,31.5 C32,32.879 33.121,34 34.5,34 L38,34 L38,38 C38,40.206 36.206,42 34,42 L22.583,42 C21.078,42 20.052,42.897 19.902,44.375 L19.004,57.408 C18.979,57.68 18.832,58 18.5,58 C18.225,58 18,57.775 18,57.5 L18,42 L18,42 Z" id="Shape" fill="#000000"></path>
        <path d="M49.731,59.267 C50.203,59.74 50.831,60 51.5,60 C52.168,60 52.795,59.74 53.268,59.268 C53.741,58.796 54,58.168 54,57.5 C54,56.832 53.74,56.205 53.318,55.787 L41.757,42.349 C41.398,41.931 40.765,41.882 40.347,42.244 C39.928,42.604 39.881,43.235 40.242,43.654 L51.853,57.147 C52.047,57.342 52.047,57.659 51.853,57.854 C51.725,57.982 51.577,58 51.499,58 C51.421,58 51.273,57.981 51.149,57.856 L38.71,45.296 C38.321,44.904 37.689,44.901 37.295,45.289 C36.903,45.678 36.899,46.311 37.288,46.704 L49.731,59.267 L49.731,59.267 Z" id="Shape" fill="#000000"></path>
    </g>
</svg>