<?xml version="1.0" encoding="UTF-8" standalone="no"?>
<svg width="64px" height="64px" viewBox="0 0 64 64" version="1.1" xmlns="http://www.w3.org/2000/svg" xmlns:xlink="http://www.w3.org/1999/xlink">
    <!-- Generator: Sketch 3.7.2 (28276) - http://www.bohemiancoding.com/sketch -->
    <title>act-volleyball</title>
    <desc>Created with Sketch.</desc>
    <defs></defs>
    <g id="64px-Line" stroke="none" stroke-width="1" fill="none" fill-rule="evenodd">
        <g id="act-volleyball"></g>
        <path d="M47,9 C47,5.355 45.038,3 42,3 C38.962,3 37,5.355 37,9 C37,12.645 38.962,15 42,15 C45.038,15 47,12.645 47,9 L47,9 Z M39,9 C39,7.797 39.292,5 42,5 C44.708,5 45,7.797 45,9 C45,10.203 44.708,13 42,13 C39.292,13 39,10.203 39,9 L39,9 Z" id="Shape" fill="#000000"></path>
        <path d="M16.17,20.941 C16.175,20.943 16.179,20.947 16.184,20.949 L30.311,25.656 L29.028,30.791 C28.411,33.404 28.006,35.39 28.006,39.036 L28,61.5 C28,62.878 29.122,64 30.5,64 C31.878,64 33,62.878 32.999,61.545 L33.917,41.043 C33.924,40.869 33.992,40 34.594,40 C35.177,40 35.594,40.745 35.858,41.405 L45.208,62.496 C45.474,63.109 45.963,63.58 46.585,63.826 C46.882,63.943 47.192,64.001 47.502,64.001 C47.84,64.001 48.178,63.932 48.498,63.793 C49.696,63.272 50.267,61.893 49.826,60.584 C49.819,60.563 49.811,60.542 49.803,60.521 L42.32,42.431 C41.246,39.493 41.395,37.796 42.107,35.318 L45.86,22.244 C46.186,20.939 45.966,19.746 45.224,18.795 C43.777,16.941 40.3,16.002 34.89,16.002 L16.5,16.002 C15.122,16.002 14,17.124 14,18.502 C14,19.708 14.84,20.654 16.17,20.941 L16.17,20.941 Z M24.095,21.477 L31.245,21.924 L30.798,23.711 L24.095,21.477 L24.095,21.477 Z M16.5,18 L34.887,18 C41.132,18 43.054,19.269 43.644,20.024 C43.873,20.318 44.151,20.817 43.926,21.724 L40.182,34.765 C39.384,37.543 39.189,39.697 40.454,43.156 L47.937,61.248 C48.017,61.511 47.977,61.838 47.699,61.958 C47.536,62.03 47.389,61.993 47.317,61.964 C47.245,61.936 47.113,61.863 47.039,61.692 L37.702,40.63 C36.839,38.456 35.536,37.999 34.595,37.999 C33.095,37.999 31.994,39.215 31.92,40.954 L31,61.5 C31,61.776 30.776,62 30.5,62 C30.224,62 30,61.776 30,61.5 L30.006,39.037 C30.006,35.598 30.372,33.802 30.971,31.264 L33.476,21.243 C33.548,20.955 33.488,20.649 33.313,20.41 C33.138,20.17 32.865,20.021 32.568,20.002 L16.64,19.01 C16.348,18.968 16,18.846 16,18.5 C16,18.224 16.224,18 16.5,18 L16.5,18 Z" id="Shape" fill="#000000"></path>
        <path d="M19,12 C21.757,12 24,9.757 24,7 C24,4.243 21.757,2 19,2 C16.243,2 14,4.243 14,7 C14,9.757 16.243,12 19,12 L19,12 Z M19,4 C20.654,4 22,5.346 22,7 C22,8.654 20.654,10 19,10 C17.346,10 16,8.654 16,7 C16,5.346 17.346,4 19,4 L19,4 Z" id="Shape" fill="#000000"></path>
    </g>
</svg>