<?xml version="1.0" encoding="UTF-8" standalone="no"?>
<svg width="64px" height="64px" viewBox="0 0 64 64" version="1.1" xmlns="http://www.w3.org/2000/svg" xmlns:xlink="http://www.w3.org/1999/xlink">
    <!-- Generator: Sketch 3.7.2 (28276) - http://www.bohemiancoding.com/sketch -->
    <title>act-rugby-player</title>
    <desc>Created with Sketch.</desc>
    <defs></defs>
    <g id="64px-Line" stroke="none" stroke-width="1" fill="none" fill-rule="evenodd">
        <g id="act-rugby-player"></g>
        <path d="M8.5,46 L21.042,46 C22.868,46 24.128,45.419 25.699,43.847 L30.084,39.346 C30.47,38.95 30.462,38.317 30.066,37.932 C29.67,37.548 29.037,37.555 28.652,37.951 L24.276,42.443 C23.083,43.637 22.327,44.001 21.042,44.001 L8.5,44.001 C8.225,44.001 8,43.777 8,43.501 C8,43.255 8.176,43.048 8.336,43.019 L19.976,42.12 C22.016,41.982 23.101,40.325 23.145,40.255 L27.341,33.73 C27.64,33.265 27.506,32.647 27.041,32.348 C26.575,32.051 25.957,32.184 25.659,32.648 L21.467,39.167 C21.443,39.204 20.861,40.057 19.831,40.126 L8.097,41.035 C6.882,41.233 6,42.27 6,43.502 C6,44.878 7.121,46 8.5,46 L8.5,46 Z" id="Shape" fill="#000000"></path>
        <path d="M48.19,2.104 C46.696,2.436 45.334,3.528 44.251,5.264 C42.262,8.452 42.645,11.484 45.251,13.175 C46.093,13.721 46.985,13.999 47.877,13.999 C48.189,13.999 48.501,13.965 48.811,13.896 C50.305,13.564 51.666,12.471 52.749,10.736 C54.738,7.549 54.354,4.518 51.749,2.826 C50.613,2.089 49.384,1.838 48.19,2.104 L48.19,2.104 Z M50.659,4.504 C52.986,6.014 51.709,8.625 51.052,9.678 C50.272,10.929 49.322,11.734 48.377,11.944 C47.699,12.095 47.034,11.948 46.339,11.497 C44.014,9.988 45.291,7.375 45.948,6.322 C46.729,5.07 47.679,4.265 48.624,4.055 C48.794,4.017 48.964,3.998 49.133,3.998 C49.637,3.999 50.14,4.166 50.659,4.504 L50.659,4.504 Z" id="Shape" fill="#000000"></path>
        <path d="M49.857,21.018 L48.253,18.545 C47.616,17.563 46.836,16.696 45.934,15.968 C44.093,14.486 40.354,11.999 36,11.999 L28.291,11.999 C28.187,12.001 25.698,12.083 24.246,14.483 L18.362,24.202 C18.125,24.592 18,25.04 18,25.498 C18,26.876 19.121,27.998 20.5,27.998 C21.331,27.998 22.104,27.587 22.571,26.899 L27.847,19.466 C27.859,19.451 28.996,17.998 30.562,17.998 L34.31,17.998 L30.142,25.599 C27.564,30.134 30.121,34.341 30.235,34.524 L36.979,45.185 C37.019,45.249 37.958,46.768 37.222,48.276 L33.197,56.524 C33.066,56.833 33,57.161 33,57.498 C33,58.876 34.121,59.998 35.5,59.998 C36.42,59.998 37.263,59.495 37.675,58.728 L43.402,49.245 C43.464,49.136 44.895,46.572 43.321,44.111 L39.611,36.067 C38.911,34.551 38.98,33.675 39.933,31.992 L44.404,24.096 L45.631,25.858 C45.211,27.153 45,28.665 45,30.398 C45,31.28 45.718,31.998 46.6,31.998 C48.346,31.998 49.821,31.777 51.112,31.352 L52.88,33.12 C53.465,33.705 54.233,33.997 55.001,33.997 C55.769,33.997 56.537,33.705 57.122,33.12 C57.688,32.554 58.001,31.8 58.001,30.998 C58.001,30.196 57.689,29.443 57.122,28.877 L55.775,27.53 C56.598,25.968 57.001,24.019 57.001,21.598 C57.001,20.716 56.283,19.998 55.401,19.998 C53.198,20 51.353,20.338 49.857,21.018 L49.857,21.018 Z M45.137,21.651 C44.94,21.368 44.605,21.203 44.27,21.223 C43.927,21.239 43.616,21.43 43.447,21.729 L38.193,31.007 C37.103,32.93 36.689,34.512 37.795,36.906 L41.535,45.015 C41.556,45.061 41.582,45.106 41.61,45.149 C42.565,46.59 41.7,48.192 41.677,48.232 L35.941,57.736 C35.872,57.862 35.72,57.998 35.501,57.998 C35.226,57.998 35.001,57.774 35.001,57.498 C35.001,57.43 35.014,57.365 35.018,57.352 L39.021,49.153 C40.261,46.614 38.727,44.201 38.667,44.11 L31.933,33.464 C31.849,33.327 29.904,30.067 31.89,26.573 L36.878,17.478 C37.048,17.168 37.041,16.791 36.861,16.488 C36.681,16.184 36.354,15.997 36.001,15.997 L30.563,15.997 C27.99,15.997 26.325,18.164 26.238,18.279 L20.912,25.781 C20.908,25.787 20.903,25.794 20.899,25.8 C20.804,25.924 20.657,25.997 20.501,25.997 C20.226,25.997 20.001,25.773 20.001,25.497 C20.001,25.405 20.024,25.321 20.074,25.239 L25.958,15.517 C26.829,14.078 28.285,13.998 28.314,13.996 L36,13.996 C39.74,13.996 43.043,16.205 44.679,17.522 C45.415,18.116 46.054,18.825 46.575,19.63 L48.153,22.063 C47.554,22.547 47.045,23.12 46.618,23.776 L45.137,21.651 L45.137,21.651 Z M55.707,31.707 C55.316,32.097 54.684,32.097 54.293,31.707 L52.09,29.504 C52.088,29.502 52.085,29.499 52.083,29.497 L51.293,28.707 C51.105,28.518 51,28.267 51,27.999 C51,27.732 51.104,27.481 51.293,27.292 C51.488,27.097 51.744,27 52,27 C52.256,27 52.512,27.098 52.707,27.292 L55.707,30.292 C55.896,30.48 56,30.731 56,30.998 C56,31.267 55.896,31.518 55.707,31.707 L55.707,31.707 Z M54.121,25.879 C52.95,24.709 51.048,24.71 49.879,25.879 C49.313,26.445 49,27.199 49,28 C49,28.622 49.193,29.212 49.542,29.711 C48.778,29.874 47.938,29.975 47.004,29.996 C47.121,24.604 49.604,22.121 54.995,22.005 C54.96,23.589 54.711,24.93 54.264,26.023 L54.121,25.879 L54.121,25.879 Z" id="Shape" fill="#000000"></path>
    </g>
</svg>