<?xml version="1.0" encoding="UTF-8" standalone="no"?>
<svg width="64px" height="64px" viewBox="0 0 64 64" version="1.1" xmlns="http://www.w3.org/2000/svg" xmlns:xlink="http://www.w3.org/1999/xlink">
    <!-- Generator: Sketch 3.7.2 (28276) - http://www.bohemiancoding.com/sketch -->
    <title>act-cross-country-skiing</title>
    <desc>Created with Sketch.</desc>
    <defs></defs>
    <g id="64px-Line" stroke="none" stroke-width="1" fill="none" fill-rule="evenodd">
        <g id="act-cross-country-skiing"></g>
        <path d="M27.609,34.157 C27.873,33.672 27.692,33.064 27.207,32.801 C26.722,32.538 26.115,32.718 25.851,33.202 L13.343,56.235 C13.118,56.618 12.999,57.055 12.999,57.5 C12.999,58.879 14.121,60 15.499,60 C16.365,60 17.184,59.539 17.636,58.798 C17.639,58.793 17.642,58.788 17.645,58.783 L30.822,39.693 C31.136,39.238 31.022,38.616 30.567,38.301 C30.113,37.989 29.49,38.102 29.176,38.556 L15.957,57.706 C15.937,57.734 15.92,57.763 15.904,57.792 C15.809,57.922 15.66,57.999 15.498,57.999 C15.222,57.999 14.998,57.774 14.998,57.499 C14.998,57.409 15.021,57.325 15.083,57.219 L27.609,34.157 L27.609,34.157 Z" id="Shape" fill="#000000"></path>
        <path d="M61.611,27.007 L54.695,26.236 C54.679,26.234 53.07,25.992 52.29,24.769 L48.086,18.287 C47.607,17.55 47.027,16.889 46.361,16.323 C44.46,14.708 40.587,12 36,12 L28.292,12 C28.187,12.003 25.699,12.085 24.247,14.485 L18.363,24.204 C18.126,24.594 18.001,25.042 18.001,25.5 C18.001,26.157 18.261,26.751 18.677,27.198 L2.164,52.453 C1.862,52.915 1.992,53.535 2.454,53.837 C2.623,53.947 2.813,54 3,54 C3.326,54 3.646,53.841 3.838,53.547 L20.545,27.995 C21.358,27.98 22.114,27.577 22.572,26.902 L27.849,19.468 C27.861,19.453 28.999,18 30.564,18 L34.313,18 L30.145,25.601 C27.567,30.135 30.124,34.343 30.237,34.526 L36.982,45.188 C37.022,45.251 37.962,46.77 37.225,48.279 L33.2,56.526 C33.069,56.836 33.003,57.164 33.003,57.501 C33.003,58.88 34.125,60.001 35.503,60.001 C36.423,60.001 37.266,59.498 37.677,58.73 L43.404,49.248 C43.466,49.139 44.897,46.575 43.323,44.114 L39.613,36.07 C38.913,34.553 38.982,33.677 39.936,31.995 L44.48,23.97 L48.443,29.712 C48.499,29.806 49.843,32.001 52.442,32.001 L60.155,32.001 L44.166,56.454 C43.864,56.916 43.994,57.536 44.456,57.838 C44.625,57.948 44.815,58.001 45.002,58.001 C45.328,58.001 45.648,57.842 45.84,57.548 L62.787,31.629 C63.379,31.275 63.817,30.696 63.954,29.998 C64.085,29.327 63.946,28.661 63.561,28.123 C63.13,27.523 62.429,27.118 61.611,27.007 L61.611,27.007 Z M50.121,28.63 L45.217,21.52 C45.022,21.237 44.7,21.066 44.349,21.088 C44.005,21.104 43.693,21.295 43.523,21.594 L38.192,31.008 C37.103,32.932 36.688,34.514 37.794,36.907 L41.534,45.016 C41.555,45.062 41.58,45.107 41.609,45.15 C42.565,46.591 41.699,48.193 41.677,48.234 L35.94,57.737 C35.871,57.864 35.72,58 35.5,58 C35.224,58 35,57.775 35,57.5 C35,57.433 35.013,57.367 35.017,57.354 L39.02,49.155 C40.26,46.616 38.726,44.204 38.667,44.113 L31.932,33.466 C31.848,33.329 29.903,30.07 31.89,26.575 L36.878,17.48 C37.048,17.17 37.042,16.794 36.861,16.49 C36.681,16.186 36.354,16 36.001,16 L30.563,16 C27.99,16 26.325,18.167 26.238,18.282 L20.912,25.784 C20.908,25.791 20.903,25.797 20.899,25.803 C20.804,25.927 20.657,26 20.501,26 C20.225,26 20.001,25.775 20.001,25.5 C20.001,25.408 20.024,25.323 20.074,25.242 L25.958,15.52 C26.829,14.081 28.285,14.001 28.314,13.999 L36,13.999 C39.948,13.999 43.375,16.409 45.066,17.846 C45.584,18.286 46.035,18.801 46.408,19.374 L50.608,25.85 C51.892,27.865 54.333,28.204 54.455,28.221 L61.366,28.992 C61.609,29.025 61.826,29.138 61.932,29.286 C61.976,29.348 62.022,29.44 61.989,29.612 C61.947,29.83 61.71,30 61.45,30 L52.439,30 C50.989,30 50.186,28.731 50.121,28.63 L50.121,28.63 Z" id="Shape" fill="#000000"></path>
        <path d="M59,60 C58.448,60 58,60.447 58,61 C58,61.552 57.551,62 57,62 L1,62 C0.448,62 0,62.447 0,63 C0,63.553 0.448,64 1,64 L57,64 C58.654,64 60,62.654 60,61 C60,60.447 59.552,60 59,60 L59,60 Z" id="Shape" fill="#000000"></path>
        <path d="M51.749,2.826 C50.614,2.089 49.385,1.84 48.19,2.103 C46.696,2.434 45.334,3.527 44.251,5.263 C42.261,8.451 42.644,11.483 45.251,13.174 C46.092,13.72 46.986,13.998 47.877,13.998 C48.189,13.998 48.502,13.964 48.811,13.895 C50.305,13.562 51.666,12.47 52.749,10.735 L52.749,10.735 C54.738,7.55 54.355,4.519 51.749,2.826 L51.749,2.826 Z M51.052,9.678 L51.052,9.678 C50.271,10.929 49.321,11.734 48.376,11.944 C47.7,12.095 47.034,11.949 46.339,11.498 C44.013,9.989 45.291,7.376 45.947,6.323 C46.728,5.071 47.679,4.266 48.623,4.056 C48.793,4.019 48.962,3.999 49.132,3.999 C49.635,3.999 50.139,4.166 50.659,4.504 C52.986,6.015 51.709,8.625 51.052,9.678 L51.052,9.678 Z" id="Shape" fill="#000000"></path>
    </g>
</svg>