<?xml version="1.0" encoding="UTF-8" standalone="no"?>
<svg width="64px" height="64px" viewBox="0 0 64 64" version="1.1" xmlns="http://www.w3.org/2000/svg" xmlns:xlink="http://www.w3.org/1999/xlink">
    <!-- Generator: Sketch 3.7.2 (28276) - http://www.bohemiancoding.com/sketch -->
    <title>act-water-volleyball</title>
    <desc>Created with Sketch.</desc>
    <defs></defs>
    <g id="64px-Line" stroke="none" stroke-width="1" fill="none" fill-rule="evenodd">
        <g id="act-water-volleyball"></g>
        <path d="M52,19 C52,15.355 50.037,13 47,13 C43.963,13 42,15.355 42,19 C42,22.645 43.963,25 47,25 C50.037,25 52,22.645 52,19 L52,19 Z M44,19 C44,17.797 44.292,15 47,15 C49.708,15 50,17.797 50,19 C50,20.203 49.708,23 47,23 C44.292,23 44,20.203 44,19 L44,19 Z" id="Shape" fill="#000000"></path>
        <path d="M22.5,26 C21.121,26 20,27.121 20,28.5 C20,29.618 20.717,30.522 21.825,30.866 C21.834,30.869 21.839,30.876 21.848,30.88 L35.316,35.639 L33.236,43.962 C33.101,44.497 33.427,45.04 33.964,45.174 C34.045,45.195 34.127,45.204 34.207,45.204 C34.655,45.204 35.062,44.901 35.176,44.446 L38.477,31.242 C38.549,30.955 38.49,30.65 38.316,30.411 C38.141,30.172 37.87,30.021 37.574,30.002 L22.612,29.006 C22.51,28.995 22.002,28.917 22.002,28.5 C22.002,28.225 22.227,28 22.502,28 L39.889,28 C46.133,28 48.056,29.269 48.647,30.024 C48.876,30.318 49.154,30.817 48.925,31.734 L45.835,42.943 C45.689,43.475 46.001,44.026 46.533,44.172 C47.061,44.318 47.616,44.007 47.762,43.474 L50.858,32.242 C51.185,30.937 50.964,29.744 50.222,28.794 C48.775,26.94 45.298,26 39.888,26 L22.5,26 L22.5,26 Z M35.802,33.691 L29.516,31.47 L36.245,31.918 L35.802,33.691 L35.802,33.691 Z" id="Shape" fill="#000000"></path>
        <path d="M18,17 C18,19.757 20.243,22 23,22 C25.757,22 28,19.757 28,17 C28,14.243 25.757,12 23,12 C20.243,12 18,14.243 18,17 L18,17 Z M26,17 C26,18.654 24.654,20 23,20 C21.346,20 20,18.654 20,17 C20,15.346 21.346,14 23,14 C24.654,14 26,15.346 26,17 L26,17 Z" id="Shape" fill="#000000"></path>
        <path d="M59.492,50.129 C59.193,49.961 52.075,46 43,46 C38.412,46 35.058,47.032 31.813,48.03 C28.521,49.043 25.412,50 21,50 C12.312,50 5.567,46.173 5.5,46.134 C5.021,45.858 4.41,46.022 4.134,46.5 C3.859,46.979 4.022,47.59 4.499,47.865 C4.791,48.034 11.755,52 21,52 C25.713,52 29.113,50.954 32.401,49.942 C35.646,48.943 38.713,48 43,48 C51.531,48 58.44,51.832 58.509,51.871 C58.988,52.139 59.6,51.973 59.871,51.491 C60.142,51.01 59.973,50.4 59.492,50.129 L59.492,50.129 Z" id="Shape" fill="#000000"></path>
    </g>
</svg>