<?xml version="1.0" encoding="UTF-8" standalone="no"?>
<svg width="64px" height="64px" viewBox="0 0 64 64" version="1.1" xmlns="http://www.w3.org/2000/svg" xmlns:xlink="http://www.w3.org/1999/xlink">
    <!-- Generator: Sketch 3.7.2 (28276) - http://www.bohemiancoding.com/sketch -->
    <title>fol-audio</title>
    <desc>Created with Sketch.</desc>
    <defs></defs>
    <g id="64px-Line" stroke="none" stroke-width="1" fill="none" fill-rule="evenodd">
        <g id="fol-audio"></g>
        <path d="M35,40 C37.757,40 40,37.757 40,35 L40,29 C40,26.243 37.757,24 35,24 C32.243,24 30,26.243 30,29 L30,35 C30,37.757 32.243,40 35,40 L35,40 Z M32,29 C32,27.346 33.346,26 35,26 C36.654,26 38,27.346 38,29 L38,35 C38,36.654 36.654,38 35,38 C33.346,38 32,36.654 32,35 L32,29 L32,29 Z" id="Shape" fill="#000000"></path>
        <path d="M34,43.943 L34,48 L32,48 C31.448,48 31,48.448 31,49 C31,49.552 31.448,50 32,50 L38,50 C38.552,50 39,49.552 39,49 C39,48.448 38.552,48 38,48 L36,48 L36,43.943 C40.493,43.443 44,39.626 44,35.002 L44,33.002 C44,32.45 43.552,32.002 43,32.002 C42.448,32.002 42,32.45 42,33.002 L42,35.002 C42,38.859 38.864,41.997 35.008,42.002 C35.005,42.002 35.003,42 35,42 C34.997,42 34.995,42.002 34.992,42.002 C31.136,41.998 28,38.86 28,35.002 L28,33.002 C28,32.45 27.552,32.002 27,32.002 C26.448,32.002 26,32.45 26,33.002 L26,35.002 C26,39.626 29.507,43.443 34,43.943 L34,43.943 Z" id="Shape" fill="#000000"></path>
        <path d="M59,18 L56,18 L56,16 C56,13.794 54.206,12 52,12 L28,12 C26,12 25.497,11.329 24.8,10.4 C23.998,9.331 23,8 20,8 L8,8 C5.794,8 4,9.794 4,12 L4,52 C4,54.206 5.794,56 8,56 L56,56 C58.206,56 60,54.206 60,52 L60,19 C60,18.448 59.552,18 59,18 L59,18 Z M8,19 L8,54 C6.897,54 6,53.103 6,52 L6,12 C6,10.897 6.897,10 8,10 L20,10 C22,10 22.503,10.671 23.2,11.6 C24.002,12.669 25,14 28,14 L52,14 C53.103,14 54,14.897 54,16 L54,18 L9,18 C8.448,18 8,18.448 8,19 L8,19 Z M58,52 C58,53.103 57.103,54 56,54 L10,54 L10,20 L58,20 L58,52 L58,52 Z" id="Shape" fill="#000000"></path>
    </g>
</svg>