<?xml version="1.0" encoding="UTF-8" standalone="no"?>
<svg width="44px" height="44px" viewBox="0 0 44 44" version="1.1" xmlns="http://www.w3.org/2000/svg" xmlns:xlink="http://www.w3.org/1999/xlink">
    <!-- Generator: Sketch 3.7.2 (28276) - http://www.bohemiancoding.com/sketch -->
    <title>fol-statistics</title>
    <desc>Created with Sketch.</desc>
    <defs></defs>
    <g id="44px-Line" stroke="none" stroke-width="1" fill="none" fill-rule="evenodd">
        <g id="fol-statistics"></g>
        <path d="M4,42 L38,42 C40.206,42 42,40.206 42,38 L42,13 C42,12.448 41.552,12 41,12 L38,12 L38,10 C38,7.794 36.206,6 34,6 L20,6 C18,6 17.497,5.329 16.8,4.4 C15.998,3.331 15,2 12,2 L4,2 C1.794,2 0,3.794 0,6 L0,38 C0,40.206 1.794,42 4,42 L4,42 Z M40,14 L40,38 C40,39.103 39.103,40 38,40 L6,40 L6,14 L40,14 L40,14 Z M2,6 C2,4.897 2.897,4 4,4 L12,4 C14,4 14.503,4.671 15.2,5.6 C16.002,6.669 17,8 20,8 L34,8 C35.103,8 36,8.897 36,10 L36,12 L5,12 C4.448,12 4,12.448 4,13 L4,40 C2.897,40 2,39.103 2,38 L2,6 L2,6 Z" id="Shape" fill="#000000"></path>
        <path d="M21,36 C24.86,36 28,32.859 28,29 C28,28.447 27.552,28 27,28 L22,28 L22,23 C22,22.448 21.552,22 21,22 C17.14,22 14,25.141 14,29 C14,32.859 17.14,36 21,36 L21,36 Z M20,24.101 L20,29 C20,29.553 20.448,30 21,30 L25.899,30 C25.435,32.279 23.414,34 21,34 C18.243,34 16,31.757 16,29 C16,26.585 17.721,24.565 20,24.101 L20,24.101 Z" id="Shape" fill="#000000"></path>
        <path d="M25,26 L31,26 C31.552,26 32,25.553 32,25 C32,21.14 28.86,18 25,18 C24.448,18 24,18.448 24,19 L24,25 C24,25.553 24.448,26 25,26 L25,26 Z M26,20.101 C27.956,20.499 29.501,22.044 29.899,24 L26,24 L26,20.101 L26,20.101 Z" id="Shape" fill="#000000"></path>
    </g>
</svg>