<?xml version="1.0" encoding="UTF-8" standalone="no"?>
<svg width="64px" height="64px" viewBox="0 0 64 64" version="1.1" xmlns="http://www.w3.org/2000/svg" xmlns:xlink="http://www.w3.org/1999/xlink">
    <!-- Generator: Sketch 3.7.2 (28276) - http://www.bohemiancoding.com/sketch -->
    <title>fol-alarm</title>
    <desc>Created with Sketch.</desc>
    <defs></defs>
    <g id="64px-Line" stroke="none" stroke-width="1" fill="none" fill-rule="evenodd">
        <g id="fol-alarm"></g>
        <path d="M59,18 L56,18 L56,16 C56,13.794 54.206,12 52,12 L28,12 C26,12 25.497,11.329 24.8,10.4 C23.998,9.331 23,8 20,8 L8,8 C5.794,8 4,9.794 4,12 L4,52 C4,54.206 5.794,56 8,56 L56,56 C58.206,56 60,54.206 60,52 L60,19 C60,18.447 59.553,18 59,18 L59,18 Z M8,19 L8,54 C6.897,54 6,53.103 6,52 L6,12 C6,10.897 6.897,10 8,10 L20,10 C22,10 22.503,10.671 23.2,11.6 C24.002,12.669 25,14 28,14 L52,14 C53.103,14 54,14.897 54,16 L54,18 L9,18 C8.447,18 8,18.447 8,19 L8,19 Z M58,52 C58,53.103 57.103,54 56,54 L10,54 L10,20 L58,20 L58,52 L58,52 Z" id="Shape" fill="#000000"></path>
        <path d="M36.262,47.484 C35.58,48.148 34.421,48.149 33.74,47.483 C33.346,47.097 32.714,47.104 32.326,47.499 C31.94,47.894 31.947,48.526 32.342,48.913 C33.058,49.614 34.002,50 35.001,50 C35.998,50 36.942,49.615 37.659,48.916 C38.055,48.53 38.062,47.897 37.677,47.502 C37.291,47.105 36.656,47.101 36.262,47.484 L36.262,47.484 Z" id="Shape" fill="#000000"></path>
        <path d="M25,46 L45,46 C45.553,46 46,45.553 46,45 C46,44.447 45.553,44 45,44 C44.448,44 44,43.552 44,43 L44,35 C44,30.375 40.493,26.558 36,26.059 L36,25 C36,24.447 35.553,24 35,24 C34.447,24 34,24.447 34,25 L34,26.059 C29.507,26.558 26,30.376 26,35 L26,43 C26,43.552 25.552,44 25,44 C24.447,44 24,44.447 24,45 C24,45.553 24.447,46 25,46 L25,46 Z M28,43 L28,35 C28,31.141 31.141,28 35,28 C38.859,28 42,31.141 42,35 L42,43 C42,43.351 42.061,43.688 42.171,44 L27.829,44 C27.939,43.688 28,43.351 28,43 L28,43 Z" id="Shape" fill="#000000"></path>
    </g>
</svg>