<?xml version="1.0" encoding="UTF-8" standalone="no"?>
<svg width="44px" height="44px" viewBox="0 0 44 44" version="1.1" xmlns="http://www.w3.org/2000/svg" xmlns:xlink="http://www.w3.org/1999/xlink">
    <!-- Generator: Sketch 3.7.2 (28276) - http://www.bohemiancoding.com/sketch -->
    <title>fol-settings</title>
    <desc>Created with Sketch.</desc>
    <defs></defs>
    <g id="44px-Line" stroke="none" stroke-width="1" fill="none" fill-rule="evenodd">
        <g id="fol-settings"></g>
        <path d="M4,42 L38,42 C40.206,42 42,40.206 42,38 L42,13 C42,12.448 41.552,12 41,12 L38,12 L38,10 C38,7.794 36.206,6 34,6 L20,6 C18,6 17.497,5.329 16.8,4.4 C15.998,3.331 15,2 12,2 L4,2 C1.794,2 0,3.794 0,6 L0,38 C0,40.206 1.794,42 4,42 L4,42 Z M40,14 L40,38 C40,39.103 39.103,40 38,40 L6,40 L6,14 L40,14 L40,14 Z M2,6 C2,4.897 2.897,4 4,4 L12,4 C14,4 14.503,4.671 15.2,5.6 C16.002,6.669 17,8 20,8 L34,8 C35.103,8 36,8.897 36,10 L36,12 L5,12 C4.448,12 4,12.448 4,13 L4,40 C2.897,40 2,39.103 2,38 L2,6 L2,6 Z" id="Shape" fill="#000000"></path>
        <path d="M15,28 L16.08,28 C16.25,29.183 16.716,30.269 17.402,31.184 L16.637,31.949 C16.246,32.34 16.246,32.972 16.637,33.363 C16.832,33.558 17.088,33.656 17.344,33.656 C17.6,33.656 17.856,33.558 18.051,33.363 L18.816,32.598 C19.731,33.284 20.817,33.749 22,33.92 L22,35 C22,35.552 22.448,36 23,36 C23.552,36 24,35.552 24,35 L24,33.92 C25.183,33.75 26.269,33.284 27.184,32.598 L27.949,33.363 C28.144,33.558 28.4,33.656 28.656,33.656 C28.912,33.656 29.168,33.558 29.363,33.363 C29.754,32.972 29.754,32.34 29.363,31.949 L28.598,31.184 C29.284,30.268 29.749,29.183 29.92,28 L31,28 C31.552,28 32,27.552 32,27 C32,26.448 31.552,26 31,26 L29.92,26 C29.75,24.817 29.284,23.731 28.598,22.816 L29.363,22.051 C29.754,21.66 29.754,21.028 29.363,20.637 C28.972,20.246 28.34,20.246 27.949,20.637 L27.184,21.402 C26.269,20.716 25.183,20.251 24,20.08 L24,19 C24,18.448 23.552,18 23,18 C22.448,18 22,18.448 22,19 L22,20.08 C20.817,20.25 19.731,20.716 18.816,21.402 L18.051,20.637 C17.66,20.246 17.028,20.246 16.637,20.637 C16.246,21.028 16.246,21.66 16.637,22.051 L17.402,22.816 C16.716,23.732 16.251,24.817 16.08,26 L15,26 C14.448,26 14,26.448 14,27 C14,27.552 14.448,28 15,28 L15,28 Z M23,22 C25.757,22 28,24.243 28,27 C28,29.757 25.757,32 23,32 C20.243,32 18,29.757 18,27 C18,24.243 20.243,22 23,22 L23,22 Z" id="Shape" fill="#000000"></path>
    </g>
</svg>