<?xml version="1.0" encoding="UTF-8" standalone="no"?>
<svg width="44px" height="44px" viewBox="0 0 44 44" version="1.1" xmlns="http://www.w3.org/2000/svg" xmlns:xlink="http://www.w3.org/1999/xlink">
    <!-- Generator: Sketch 3.7.2 (28276) - http://www.bohemiancoding.com/sketch -->
    <title>fol-question</title>
    <desc>Created with Sketch.</desc>
    <defs></defs>
    <g id="44px-Line" stroke="none" stroke-width="1" fill="none" fill-rule="evenodd">
        <g id="fol-question"></g>
        <path d="M41,12 L38,12 L38,10 C38,7.794 36.206,6 34,6 L20,6 C18,6 17.497,5.329 16.8,4.4 C15.998,3.331 15,2 12,2 L4,2 C1.794,2 0,3.794 0,6 L0,38 C0,40.206 1.794,42 4,42 L38,42 C40.206,42 42,40.206 42,38 L42,13 C42,12.447 41.553,12 41,12 L41,12 Z M4,13 L4,40 C2.897,40 2,39.103 2,38 L2,6 C2,4.897 2.897,4 4,4 L12,4 C14,4 14.503,4.671 15.2,5.6 C16.002,6.669 17,8 20,8 L34,8 C35.103,8 36,8.897 36,10 L36,12 L5,12 C4.447,12 4,12.447 4,13 L4,13 Z M40,38 C40,39.103 39.103,40 38,40 L6,40 L6,14 L40,14 L40,38 L40,38 Z" id="Shape" fill="#000000"></path>
        <path d="M19,23.334 C19.553,23.334 20,22.887 20,22.334 C20,20.829 21.065,20 23,20 C24.935,20 26,20.829 26,22.334 C26,22.778 25.794,23.256 25.458,23.604 C25.127,23.938 24.702,24.212 24.253,24.503 C23.249,25.152 22,25.961 22,27.637 L22,29 C22,29.553 22.447,30 23,30 C23.553,30 24,29.553 24,29 L24,27.637 C24,27.102 24.388,26.798 25.34,26.182 C25.834,25.863 26.395,25.5 26.887,25.004 C27.594,24.273 28,23.3 28,22.334 C28,19.701 26.037,18 23,18 C19.963,18 18,19.701 18,22.334 C18,22.887 18.447,23.334 19,23.334 L19,23.334 Z" id="Shape" fill="#000000"></path>
        <circle id="Oval" fill="#000000" cx="23" cy="34" r="2"></circle>
    </g>
</svg>