<?xml version="1.0" encoding="UTF-8" standalone="no"?>
<svg width="64px" height="64px" viewBox="0 0 64 64" version="1.1" xmlns="http://www.w3.org/2000/svg" xmlns:xlink="http://www.w3.org/1999/xlink">
    <!-- Generator: Sketch 3.7.2 (28276) - http://www.bohemiancoding.com/sketch -->
    <title>fol-folder-2</title>
    <desc>Created with Sketch.</desc>
    <defs></defs>
    <g id="64px-Line" stroke="none" stroke-width="1" fill="none" fill-rule="evenodd">
        <g id="fol-folder-2"></g>
        <path d="M56,16 C56,13.794 54.206,12 52,12 L28,12 C26,12 25.497,11.329 24.8,10.4 C23.998,9.331 23,8 20,8 L8,8 C5.794,8 4,9.794 4,12 L4,52 C4,54.206 5.794,56 8,56 L56,56 C58.206,56 60,54.206 60,52 L60,20 C60,17.794 58.206,16 56,16 L56,16 Z M6,52 L6,12 C6,10.897 6.897,10 8,10 L20,10 C22,10 22.503,10.671 23.2,11.6 C24.002,12.669 25,14 28,14 L52,14 C53.103,14 54,14.897 54,16 L44,16 C41,16 40.002,17.331 39.2,18.4 C38.503,19.329 38,20 36,20 L12,20 C9.794,20 8,21.794 8,24 L8,54 C6.897,54 6,53.103 6,52 L6,52 Z M56,54 L10,54 L10,24 C10,22.897 10.897,22 12,22 L36,22 C39,22 39.998,20.669 40.8,19.6 C41.497,18.671 42,18 44,18 L56,18 C57.103,18 58,18.897 58,20 L58,52 C58,53.103 57.103,54 56,54 L56,54 Z" id="Shape" fill="#000000"></path>
    </g>
</svg>