<?xml version="1.0" encoding="UTF-8" standalone="no"?>
<svg width="44px" height="44px" viewBox="0 0 44 44" version="1.1" xmlns="http://www.w3.org/2000/svg" xmlns:xlink="http://www.w3.org/1999/xlink">
    <!-- Generator: Sketch 3.7.2 (28276) - http://www.bohemiancoding.com/sketch -->
    <title>fol-music</title>
    <desc>Created with Sketch.</desc>
    <defs></defs>
    <g id="44px-Line" stroke="none" stroke-width="1" fill="none" fill-rule="evenodd">
        <g id="fol-music"></g>
        <path d="M43,12 L40,12 L40,10 C40,7.794 38.206,6 36,6 L20,6 C18,6 17.497,5.329 16.8,4.4 C15.998,3.331 15,2 12,2 L4,2 C1.794,2 0,3.794 0,6 L0,38 C0,40.206 1.794,42 4,42 L40,42 C42.206,42 44,40.206 44,38 L44,13 C44,12.448 43.552,12 43,12 L43,12 Z M4,13 L4,40 C2.897,40 2,39.103 2,38 L2,6 C2,4.897 2.897,4 4,4 L12,4 C14,4 14.503,4.671 15.2,5.6 C16.002,6.669 17,8 20,8 L36,8 C37.103,8 38,8.897 38,10 L38,12 L5,12 C4.448,12 4,12.448 4,13 L4,13 Z M42,38 C42,39.103 41.103,40 40,40 L6,40 L6,14 L42,14 L42,38 L42,38 Z" id="Shape" fill="#000000"></path>
        <path d="M18,36 C20.393,36 22,34.671 22,32.692 L22,21.82 L30,20.22 L30,27.847 C30,27.931 29.931,28 29.847,28 L28,28 C24.39,28 24,30.098 24,31 C24,31.902 24.39,34 28,34 C30.393,34 32,32.671 32,30.692 L32,19 C32,18.7 31.866,18.417 31.634,18.227 C31.403,18.037 31.099,17.959 30.804,18.02 L20.804,20.02 C20.337,20.113 20,20.524 20,21 L20,29.956 C19.998,29.971 19.997,29.985 19.995,30 L18,30 C14.39,30 14,32.098 14,33 C14,33.902 14.39,36 18,36 L18,36 Z M30,30.692 C30,31.905 28.469,32 28,32 C26,32 26,31.273 26,31 C26,30.727 26,30 28,30 L29.847,30 C29.899,30 29.95,29.998 30,29.995 L30,30.692 L30,30.692 Z M18,32 L20,32 L20,32.692 C20,33.905 18.469,34 18,34 C16,34 16,33.273 16,33 C16,32.727 16,32 18,32 L18,32 Z" id="Shape" fill="#000000"></path>
    </g>
</svg>