<?xml version="1.0" encoding="UTF-8" standalone="no"?>
<svg width="44px" height="44px" viewBox="0 0 44 44" version="1.1" xmlns="http://www.w3.org/2000/svg" xmlns:xlink="http://www.w3.org/1999/xlink">
    <!-- Generator: Sketch 3.7.2 (28276) - http://www.bohemiancoding.com/sketch -->
    <title>fol-user</title>
    <desc>Created with Sketch.</desc>
    <defs></defs>
    <g id="44px-Line" stroke="none" stroke-width="1" fill="none" fill-rule="evenodd">
        <g id="fol-user"></g>
        <path d="M4,42 L38,42 C40.206,42 42,40.206 42,38 L42,13 C42,12.448 41.552,12 41,12 L38,12 L38,10 C38,7.794 36.206,6 34,6 L20,6 C18,6 17.497,5.329 16.8,4.4 C15.998,3.331 15,2 12,2 L4,2 C1.794,2 0,3.794 0,6 L0,38 C0,40.206 1.794,42 4,42 L4,42 Z M40,14 L40,38 C40,39.103 39.103,40 38,40 L6,40 L6,14 L40,14 L40,14 Z M2,6 C2,4.897 2.897,4 4,4 L12,4 C14,4 14.503,4.671 15.2,5.6 C16.002,6.669 17,8 20,8 L34,8 C35.103,8 36,8.897 36,10 L36,12 L5,12 C4.448,12 4,12.448 4,13 L4,40 C2.897,40 2,39.103 2,38 L2,6 L2,6 Z" id="Shape" fill="#000000"></path>
        <path d="M15,36 L31,36 C31.552,36 32,35.552 32,35 C32,31.232 29.67,28.002 26.377,26.663 C27.368,25.749 28,24.451 28,23 C28,20.243 25.757,18 23,18 C20.243,18 18,20.243 18,23 C18,24.451 18.632,25.749 19.623,26.663 C16.33,28.002 14,31.232 14,35 C14,35.552 14.448,36 15,36 L15,36 Z M20,23 C20,21.346 21.346,20 23,20 C24.654,20 26,21.346 26,23 C26,24.654 24.654,26 23,26 C21.346,26 20,24.654 20,23 L20,23 Z M23,28 C26.521,28 29.442,30.612 29.929,34 L16.071,34 C16.558,30.612 19.479,28 23,28 L23,28 Z" id="Shape" fill="#000000"></path>
    </g>
</svg>