<?xml version="1.0" encoding="UTF-8" standalone="no"?>
<svg width="44px" height="44px" viewBox="0 0 44 44" version="1.1" xmlns="http://www.w3.org/2000/svg" xmlns:xlink="http://www.w3.org/1999/xlink">
    <!-- Generator: Sketch 3.7.2 (28276) - http://www.bohemiancoding.com/sketch -->
    <title>fol-protect</title>
    <desc>Created with Sketch.</desc>
    <defs></defs>
    <g id="44px-Line" stroke="none" stroke-width="1" fill="none" fill-rule="evenodd">
        <g id="fol-protect"></g>
        <path d="M43,12 L40,12 L40,10 C40,7.794 38.206,6 36,6 L20,6 C18,6 17.497,5.329 16.8,4.4 C15.998,3.331 15,2 12,2 L4,2 C1.794,2 0,3.794 0,6 L0,38 C0,40.206 1.794,42 4,42 L40,42 C42.206,42 44,40.206 44,38 L44,13 C44,12.448 43.553,12 43,12 L43,12 Z M4,13 L4,40 C2.897,40 2,39.103 2,38 L2,6 C2,4.897 2.897,4 4,4 L12,4 C14,4 14.503,4.671 15.2,5.6 C16.002,6.669 17,8 20,8 L36,8 C37.103,8 38,8.897 38,10 L38,12 L5,12 C4.447,12 4,12.448 4,13 L4,13 Z M42,38 C42,39.103 41.103,40 40,40 L6,40 L6,14 L42,14 L42,38 L42,38 Z" id="Shape" fill="#000000"></path>
        <path d="M23.661,35.941 C23.771,35.98 23.886,36 24,36 C24.114,36 24.229,35.98 24.338,35.941 C27.627,34.759 32,32.338 32,25 L32,22 C32,21.448 31.553,21 31,21 C27.646,21 26.613,20.033 25.52,19.009 C25.228,18.736 24.938,18.466 24.62,18.215 C24.257,17.929 23.745,17.928 23.382,18.215 C23.064,18.466 22.773,18.736 22.48,19.011 C21.386,20.034 20.353,21.001 17.001,21.001 C16.448,21.001 16.001,21.449 16.001,22.001 L16.001,25.001 C16,32.336 20.372,34.758 23.661,35.941 L23.661,35.941 Z M18,22.972 C21.385,22.773 22.686,21.556 23.845,20.472 C23.897,20.423 23.949,20.375 24,20.327 C24.051,20.375 24.102,20.423 24.153,20.471 C25.312,21.556 26.614,22.774 30,22.973 L30,25 C30,30.781 26.865,32.841 24,33.934 C21.135,32.84 18,30.781 18,25 L18,22.972 L18,22.972 Z" id="Shape" fill="#000000"></path>
    </g>
</svg>