<?xml version="1.0" encoding="UTF-8" standalone="no"?>
<svg width="44px" height="44px" viewBox="0 0 44 44" version="1.1" xmlns="http://www.w3.org/2000/svg" xmlns:xlink="http://www.w3.org/1999/xlink">
    <!-- Generator: Sketch 3.7.2 (28276) - http://www.bohemiancoding.com/sketch -->
    <title>fol-love</title>
    <desc>Created with Sketch.</desc>
    <defs></defs>
    <g id="44px-Line" stroke="none" stroke-width="1" fill="none" fill-rule="evenodd">
        <g id="fol-love"></g>
        <path d="M23.273,35.687 C23.462,35.887 23.725,36 24,36 C24.275,36 24.539,35.887 24.728,35.686 L32.292,27.668 C33.394,26.599 34,25.178 34,23.666 C34,22.145 33.387,20.717 32.275,19.646 C30.003,17.458 26.307,17.458 24.071,19.612 L24,19.675 L23.967,19.647 C21.695,17.459 17.998,17.459 15.726,19.647 C14.613,20.718 14,22.146 14,23.666 C14,25.187 14.613,26.615 15.692,27.651 L23.273,35.687 L23.273,35.687 Z M17.113,21.087 C17.862,20.365 18.844,20.003 19.833,20.003 C20.833,20.003 21.839,20.375 22.616,21.122 L23.344,21.755 C23.721,22.083 24.281,22.082 24.657,21.755 L25.421,21.088 C26.927,19.637 29.379,19.636 30.887,21.088 C31.604,21.779 31.999,22.694 31.999,23.667 C31.999,24.639 31.604,25.555 30.887,26.245 C30.875,26.256 30.864,26.268 30.853,26.28 L24,33.543 L17.112,26.245 C16.395,25.555 15.999,24.639 15.999,23.666 C16,22.694 16.396,21.778 17.113,21.087 L17.113,21.087 Z" id="Shape" fill="#000000"></path>
        <path d="M43,12 L40,12 L40,10 C40,7.794 38.206,6 36,6 L20,6 C18,6 17.497,5.329 16.8,4.4 C15.998,3.331 15,2 12,2 L4,2 C1.794,2 0,3.794 0,6 L0,38 C0,40.206 1.794,42 4,42 L40,42 C42.206,42 44,40.206 44,38 L44,13 C44,12.448 43.552,12 43,12 L43,12 Z M4,13 L4,40 C2.897,40 2,39.103 2,38 L2,6 C2,4.897 2.897,4 4,4 L12,4 C14,4 14.503,4.671 15.2,5.6 C16.002,6.669 17,8 20,8 L36,8 C37.103,8 38,8.897 38,10 L38,12 L5,12 C4.448,12 4,12.448 4,13 L4,13 Z M42,38 C42,39.103 41.103,40 40,40 L6,40 L6,14 L42,14 L42,38 L42,38 Z" id="Shape" fill="#000000"></path>
    </g>
</svg>