<?xml version="1.0" encoding="UTF-8" standalone="no"?>
<svg width="64px" height="64px" viewBox="0 0 64 64" version="1.1" xmlns="http://www.w3.org/2000/svg" xmlns:xlink="http://www.w3.org/1999/xlink">
    <!-- Generator: Sketch 3.7.2 (28276) - http://www.bohemiancoding.com/sketch -->
    <title>fol-warning</title>
    <desc>Created with Sketch.</desc>
    <defs></defs>
    <g id="64px-Glyph" stroke="none" stroke-width="1" fill="none" fill-rule="evenodd">
        <g id="fol-warning" fill="#000000">
            <path d="M8,17 C8,16.447 8.447,16 9,16 L56,16 C56,13.794 54.206,12 52,12 L28,12 C26,12 25.497,11.329 24.8,10.4 C23.998,9.331 23,8 20,8 L8,8 C5.794,8 4,9.794 4,12 L4,52 C4,54.206 5.794,56 8,56 L8,17 Z" id="Fill-112"></path>
            <path d="M46,50 L24,50 C21.794,50 20,48.206 20,46 C20,45.188 20.364,44.34 20.405,44.245 C20.424,44.205 20.444,44.166 20.467,44.128 L31.707,25.733 C32.497,24.625 33.713,24 35,24 C36.286,24 37.502,24.625 38.252,25.671 L49.533,44.128 C49.556,44.166 49.576,44.205 49.595,44.245 C49.636,44.34 50,45.188 50,46 C50,48.206 48.206,50 46,50 M59,18 L56,18 L10,18 L10,56 L56,56 C58.206,56 60,54.206 60,52 L60,19 C60,18.447 59.553,18 59,18" id="Fill-113"></path>
            <path d="M36,39 C36,39.553 35.553,40 35,40 C34.447,40 34,39.553 34,39 L34,31 C34,30.447 34.447,30 35,30 C35.553,30 36,30.447 36,31 L36,39 Z M35.71,43.71 C35.519,43.89 35.26,44 35,44 C34.74,44 34.479,43.89 34.29,43.71 C34.109,43.52 34,43.26 34,43 C34,42.729 34.109,42.47 34.29,42.29 C34.66,41.92 35.33,41.92 35.71,42.29 C35.89,42.479 36,42.729 36,43 C36,43.26 35.89,43.52 35.71,43.71 L35.71,43.71 Z M36.586,26.776 C36.251,26.312 35.644,26 35,26 C34.356,26 33.749,26.312 33.373,26.837 L22.213,45.106 C22.123,45.33 22,45.728 22,46 C22,47.103 22.897,48 24,48 L46,48 C47.102,48 48,47.103 48,46 C48,45.719 47.867,45.306 47.787,45.106 L36.586,26.776 Z" id="Fill-114"></path>
        </g>
    </g>
</svg>