<?xml version="1.0" encoding="UTF-8" standalone="no"?>
<svg width="44px" height="44px" viewBox="0 0 44 44" version="1.1" xmlns="http://www.w3.org/2000/svg" xmlns:xlink="http://www.w3.org/1999/xlink">
    <!-- Generator: Sketch 3.7.2 (28276) - http://www.bohemiancoding.com/sketch -->
    <title>fol-send</title>
    <desc>Created with Sketch.</desc>
    <defs></defs>
    <g id="44px-Line" stroke="none" stroke-width="1" fill="none" fill-rule="evenodd">
        <g id="fol-send"></g>
        <path d="M13,28 L30.586,28 L26.293,32.293 C25.902,32.684 25.902,33.316 26.293,33.707 C26.488,33.902 26.744,34 27,34 C27.256,34 27.512,33.902 27.707,33.707 L33.706,27.708 C33.799,27.616 33.872,27.505 33.923,27.382 C34.024,27.138 34.024,26.862 33.923,26.618 C33.872,26.495 33.799,26.385 33.706,26.292 L27.707,20.293 C27.316,19.902 26.684,19.902 26.293,20.293 C25.902,20.684 25.902,21.316 26.293,21.707 L30.586,26 L13,26 C12.448,26 12,26.447 12,27 C12,27.553 12.448,28 13,28 L13,28 Z" id="Shape" fill="#000000"></path>
        <path d="M4,42 L38,42 C40.206,42 42,40.206 42,38 L42,13 C42,12.448 41.552,12 41,12 L38,12 L38,10 C38,7.794 36.206,6 34,6 L20,6 C18,6 17.497,5.329 16.8,4.4 C15.998,3.331 15,2 12,2 L4,2 C1.794,2 0,3.794 0,6 L0,38 C0,40.206 1.794,42 4,42 L4,42 Z M40,14 L40,38 C40,39.103 39.103,40 38,40 L6,40 L6,14 L40,14 L40,14 Z M2,6 C2,4.897 2.897,4 4,4 L12,4 C14,4 14.503,4.671 15.2,5.6 C16.002,6.669 17,8 20,8 L34,8 C35.103,8 36,8.897 36,10 L36,12 L5,12 C4.448,12 4,12.448 4,13 L4,40 C2.897,40 2,39.103 2,38 L2,6 L2,6 Z" id="Shape" fill="#000000"></path>
    </g>
</svg>