<?xml version="1.0" encoding="UTF-8" standalone="no"?>
<svg width="44px" height="44px" viewBox="0 0 44 44" version="1.1" xmlns="http://www.w3.org/2000/svg" xmlns:xlink="http://www.w3.org/1999/xlink">
    <!-- Generator: Sketch 3.7.2 (28276) - http://www.bohemiancoding.com/sketch -->
    <title>fol-upload</title>
    <desc>Created with Sketch.</desc>
    <defs></defs>
    <g id="44px-Line" stroke="none" stroke-width="1" fill="none" fill-rule="evenodd">
        <g id="fol-upload"></g>
        <path d="M4,42 L38,42 C40.206,42 42,40.206 42,38 L42,13 C42,12.448 41.552,12 41,12 L38,12 L38,10 C38,7.794 36.206,6 34,6 L20,6 C18,6 17.497,5.329 16.8,4.4 C15.998,3.331 15,2 12,2 L4,2 C1.794,2 0,3.794 0,6 L0,38 C0,40.206 1.794,42 4,42 L4,42 Z M40,14 L40,38 C40,39.103 39.103,40 38,40 L6,40 L6,14 L40,14 L40,14 Z M2,6 C2,4.897 2.897,4 4,4 L12,4 C14,4 14.503,4.671 15.2,5.6 C16.002,6.669 17,8 20,8 L34,8 C35.103,8 36,8.897 36,10 L36,12 L5,12 C4.448,12 4,12.448 4,13 L4,40 C2.897,40 2,39.103 2,38 L2,6 L2,6 Z" id="Shape" fill="#000000"></path>
        <path d="M17,26 C17.256,26 17.512,25.902 17.707,25.707 L22,21.414 L22,35 C22,35.553 22.448,36 23,36 C23.552,36 24,35.553 24,35 L24,21.414 L28.293,25.707 C28.488,25.902 28.744,26 29,26 C29.256,26 29.512,25.902 29.707,25.707 C30.098,25.316 30.098,24.684 29.707,24.293 L23.707,18.293 C23.615,18.201 23.504,18.128 23.382,18.077 C23.137,17.976 22.862,17.976 22.618,18.077 C22.496,18.128 22.385,18.201 22.293,18.293 L16.293,24.293 C15.902,24.684 15.902,25.316 16.293,25.707 C16.488,25.902 16.744,26 17,26 L17,26 Z" id="Shape" fill="#000000"></path>
    </g>
</svg>