<?xml version="1.0" encoding="UTF-8" standalone="no"?>
<svg width="64px" height="64px" viewBox="0 0 64 64" version="1.1" xmlns="http://www.w3.org/2000/svg" xmlns:xlink="http://www.w3.org/1999/xlink">
    <!-- Generator: Sketch 3.7.2 (28276) - http://www.bohemiancoding.com/sketch -->
    <title>fol-calendar</title>
    <desc>Created with Sketch.</desc>
    <defs></defs>
    <g id="64px-Line" stroke="none" stroke-width="1" fill="none" fill-rule="evenodd">
        <g id="fol-calendar"></g>
        <path d="M24.5,48 L43.5,48 C44.879,48 46,46.879 46,45.5 L46,28.5 C46,27.122 44.879,26 43.5,26 L24.5,26 C23.121,26 22,27.122 22,28.5 L22,45.5 C22,46.879 23.121,48 24.5,48 L24.5,48 Z M43.5,46 L24.5,46 C24.225,46 24,45.775 24,45.5 L24,34 L44,34 L44,45.5 C44,45.775 43.775,46 43.5,46 L43.5,46 Z M24.5,28 L43.5,28 C43.775,28 44,28.224 44,28.5 L44,32 L24,32 L24,28.5 C24,28.224 24.225,28 24.5,28 L24.5,28 Z" id="Shape" fill="#000000"></path>
        <path d="M59,18 L56,18 L56,16 C56,13.794 54.206,12 52,12 L28,12 C26,12 25.497,11.329 24.8,10.4 C23.998,9.331 23,8 20,8 L8,8 C5.794,8 4,9.794 4,12 L4,52 C4,54.206 5.794,56 8,56 L56,56 C58.206,56 60,54.206 60,52 L60,19 C60,18.448 59.553,18 59,18 L59,18 Z M8,19 L8,54 C6.897,54 6,53.103 6,52 L6,12 C6,10.897 6.897,10 8,10 L20,10 C22,10 22.503,10.671 23.2,11.6 C24.002,12.669 25,14 28,14 L52,14 C53.103,14 54,14.897 54,16 L54,18 L9,18 C8.447,18 8,18.448 8,19 L8,19 Z M58,52 C58,53.103 57.103,54 56,54 L10,54 L10,20 L58,20 L58,52 L58,52 Z" id="Shape" fill="#000000"></path>
    </g>
</svg>