<?xml version="1.0" encoding="UTF-8" standalone="no"?>
<svg width="44px" height="44px" viewBox="0 0 44 44" version="1.1" xmlns="http://www.w3.org/2000/svg" xmlns:xlink="http://www.w3.org/1999/xlink">
    <!-- Generator: Sketch 3.7.2 (28276) - http://www.bohemiancoding.com/sketch -->
    <title>fol-movie</title>
    <desc>Created with Sketch.</desc>
    <defs></defs>
    <g id="44px-Line" stroke="none" stroke-width="1" fill="none" fill-rule="evenodd">
        <g id="fol-movie"></g>
        <path d="M43,12 L40,12 L40,10 C40,7.794 38.206,6 36,6 L20,6 C18,6 17.497,5.329 16.8,4.4 C15.998,3.331 15,2 12,2 L4,2 C1.794,2 0,3.794 0,6 L0,38 C0,40.206 1.794,42 4,42 L40,42 C42.206,42 44,40.206 44,38 L44,13 C44,12.447 43.552,12 43,12 L43,12 Z M4,13 L4,40 C2.897,40 2,39.103 2,38 L2,6 C2,4.897 2.897,4 4,4 L12,4 C14,4 14.503,4.671 15.2,5.6 C16.002,6.669 17,8 20,8 L36,8 C37.103,8 38,8.897 38,10 L38,12 L5,12 C4.448,12 4,12.447 4,13 L4,13 Z M42,38 C42,39.103 41.103,40 40,40 L6,40 L6,14 L42,14 L42,38 L42,38 Z" id="Shape" fill="#000000"></path>
        <path d="M15,36 L33,36 C33.552,36 34,35.553 34,35 L34,19 C34,18.447 33.552,18 33,18 L15,18 C14.448,18 14,18.447 14,19 L14,35 C14,35.553 14.448,36 15,36 L15,36 Z M18,30 L16,30 L16,28 L18,28 L18,30 L18,30 Z M20,28 L28,28 L28,34 L20,34 L20,28 L20,28 Z M30,28 L32,28 L32,30 L30,30 L30,28 L30,28 Z M32,26 L30,26 L30,24 L32,24 L32,26 L32,26 Z M28,26 L20,26 L20,20 L28,20 L28,26 L28,26 Z M18,26 L16,26 L16,24 L18,24 L18,26 L18,26 Z M16,32 L18,32 L18,34 L16,34 L16,32 L16,32 Z M30,34 L30,32 L32,32 L32,34 L30,34 L30,34 Z M32,22 L30,22 L30,20 L32,20 L32,22 L32,22 Z M18,20 L18,22 L16,22 L16,20 L18,20 L18,20 Z" id="Shape" fill="#000000"></path>
    </g>
</svg>