<?xml version="1.0" encoding="UTF-8" standalone="no"?>
<svg width="44px" height="44px" viewBox="0 0 44 44" version="1.1" xmlns="http://www.w3.org/2000/svg" xmlns:xlink="http://www.w3.org/1999/xlink">
    <!-- Generator: Sketch 3.7.2 (28276) - http://www.bohemiancoding.com/sketch -->
    <title>fol-play</title>
    <desc>Created with Sketch.</desc>
    <defs></defs>
    <g id="44px-Line" stroke="none" stroke-width="1" fill="none" fill-rule="evenodd">
        <g id="fol-play"></g>
        <path d="M43,12 L40,12 L40,10 C40,7.794 38.206,6 36,6 L20,6 C18,6 17.497,5.329 16.8,4.4 C15.998,3.331 15,2 12,2 L4,2 C1.794,2 0,3.794 0,6 L0,38 C0,40.206 1.794,42 4,42 L40,42 C42.206,42 44,40.206 44,38 L44,13 C44,12.448 43.553,12 43,12 L43,12 Z M4,13 L4,40 C2.897,40 2,39.103 2,38 L2,6 C2,4.897 2.897,4 4,4 L12,4 C14,4 14.503,4.671 15.2,5.6 C16.002,6.669 17,8 20,8 L36,8 C37.103,8 38,8.897 38,10 L38,12 L5,12 C4.447,12 4,12.448 4,13 L4,13 Z M42,38 C42,39.103 41.103,40 40,40 L6,40 L6,14 L42,14 L42,38 L42,38 Z" id="Shape" fill="#000000"></path>
        <path d="M18.528,35.882 C18.675,35.961 18.838,36 19,36 C19.194,36 19.388,35.943 19.555,35.832 L31.555,27.832 C31.833,27.646 32,27.334 32,27 C32,26.666 31.833,26.354 31.555,26.168 L19.555,18.168 C19.248,17.963 18.853,17.944 18.529,18.118 C18.203,18.292 18,18.631 18,19 L18,35 C18,35.369 18.203,35.708 18.528,35.882 L18.528,35.882 Z M20,20.869 L29.197,27 L20,33.131 L20,20.869 L20,20.869 Z" id="Shape" fill="#000000"></path>
    </g>
</svg>