<?xml version="1.0" encoding="UTF-8" standalone="no"?>
<svg width="44px" height="44px" viewBox="0 0 44 44" version="1.1" xmlns="http://www.w3.org/2000/svg" xmlns:xlink="http://www.w3.org/1999/xlink">
    <!-- Generator: Sketch 3.7.2 (28276) - http://www.bohemiancoding.com/sketch -->
    <title>fol-star</title>
    <desc>Created with Sketch.</desc>
    <defs></defs>
    <g id="44px-Line" stroke="none" stroke-width="1" fill="none" fill-rule="evenodd">
        <g id="fol-star"></g>
        <path d="M43,12 L40,12 L40,10 C40,7.794 38.206,6 36,6 L20,6 C18,6 17.497,5.329 16.8,4.4 C15.998,3.331 15,2 12,2 L4,2 C1.794,2 0,3.794 0,6 L0,38 C0,40.206 1.794,42 4,42 L40,42 C42.206,42 44,40.206 44,38 L44,13 C44,12.448 43.553,12 43,12 L43,12 Z M4,13 L4,40 C2.897,40 2,39.103 2,38 L2,6 C2,4.897 2.897,4 4,4 L12,4 C14,4 14.503,4.671 15.2,5.6 C16.002,6.669 17,8 20,8 L36,8 C37.103,8 38,8.897 38,10 L38,12 L5,12 C4.447,12 4,12.448 4,13 L4,13 Z M42,38 C42,39.103 41.103,40 40,40 L6,40 L6,14 L42,14 L42,38 L42,38 Z" id="Shape" fill="#000000"></path>
        <path d="M18.932,29.548 L18.069,34.839 C18.007,35.217 18.168,35.597 18.48,35.818 C18.793,36.038 19.207,36.061 19.54,35.876 L24,33.41 L28.461,35.875 C28.611,35.958 28.778,36 28.944,36 C29.146,36 29.348,35.938 29.52,35.817 C29.832,35.596 29.993,35.216 29.931,34.838 L29.068,29.547 L32.715,25.809 C32.977,25.541 33.067,25.149 32.947,24.793 C32.827,24.437 32.52,24.178 32.15,24.122 L27.149,23.358 L24.904,18.574 C24.74,18.224 24.388,18 24,18 C23.612,18 23.26,18.224 23.095,18.575 L20.85,23.359 L15.849,24.123 C15.479,24.18 15.171,24.439 15.052,24.794 C14.933,25.149 15.023,25.542 15.284,25.81 L18.932,29.548 L18.932,29.548 Z M21.68,25.256 C22.009,25.205 22.292,24.994 22.434,24.692 L24,21.354 L25.566,24.692 C25.708,24.994 25.991,25.205 26.32,25.256 L29.924,25.806 L27.283,28.513 C27.061,28.74 26.961,29.059 27.012,29.372 L27.625,33.128 L24.482,31.392 C24.332,31.309 24.166,31.267 23.999,31.267 C23.832,31.267 23.666,31.309 23.516,31.392 L20.373,33.128 L20.986,29.372 C21.037,29.059 20.936,28.74 20.715,28.513 L18.074,25.806 L21.68,25.256 L21.68,25.256 Z" id="Shape" fill="#000000"></path>
    </g>
</svg>