<?xml version="1.0" encoding="UTF-8" standalone="no"?>
<svg width="64px" height="64px" viewBox="0 0 64 64" version="1.1" xmlns="http://www.w3.org/2000/svg" xmlns:xlink="http://www.w3.org/1999/xlink">
    <!-- Generator: Sketch 3.7.2 (28276) - http://www.bohemiancoding.com/sketch -->
    <title>fol-database</title>
    <desc>Created with Sketch.</desc>
    <defs></defs>
    <g id="64px-Line" stroke="none" stroke-width="1" fill="none" fill-rule="evenodd">
        <g id="fol-database"></g>
        <path d="M34,50 C39.474,50 46,49.22 46,45.5 L46,40 C46,39.937 45.975,39.881 45.964,39.821 C45.976,39.714 46,39.613 46,39.5 L46,34 C46,33.937 45.975,33.881 45.964,33.821 C45.976,33.714 46,33.613 46,33.5 L46,28 C46,24.52 38.481,24 34,24 C29.519,24 22,24.52 22,28 L22,33.5 C22,33.613 22.024,33.714 22.036,33.821 C22.025,33.881 22,33.936 22,34 L22,39.5 C22,39.613 22.024,39.714 22.036,39.821 C22.025,39.881 22,39.936 22,40 L22,45.5 C22,49.22 28.526,50 34,50 L34,50 Z M34,48 C27.129,48 24,46.704 24,45.5 L24,42.366 C26.354,43.656 30.399,44 34,44 C37.601,44 41.646,43.656 44,42.366 L44,45.5 C44,46.704 40.871,48 34,48 L34,48 Z M44,33.5 C44,34.704 40.871,36 34,36 C27.129,36 24,34.704 24,33.5 L24,30.523 C26.542,31.758 30.965,32 34,32 C37.035,32 41.458,31.758 44,30.523 L44,33.5 L44,33.5 Z M34,38 C37.601,38 41.646,37.656 44,36.366 L44,39.5 C44,40.704 40.871,42 34,42 C27.129,42 24,40.704 24,39.5 L24,36.366 C26.354,37.656 30.399,38 34,38 L34,38 Z M34,26 C40.98,26 44,27.324 44,28 C44,28.676 40.98,30 34,30 C27.02,30 24,28.676 24,28 C24,27.324 27.02,26 34,26 L34,26 Z" id="Shape" fill="#000000"></path>
        <path d="M59,18 L56,18 L56,16 C56,13.794 54.206,12 52,12 L28,12 C26,12 25.497,11.329 24.8,10.4 C23.998,9.331 23,8 20,8 L8,8 C5.794,8 4,9.794 4,12 L4,52 C4,54.206 5.794,56 8,56 L56,56 C58.206,56 60,54.206 60,52 L60,19 C60,18.447 59.552,18 59,18 L59,18 Z M8,19 L8,54 C6.897,54 6,53.103 6,52 L6,12 C6,10.897 6.897,10 8,10 L20,10 C22,10 22.503,10.671 23.2,11.6 C24.002,12.669 25,14 28,14 L52,14 C53.103,14 54,14.897 54,16 L54,18 L9,18 C8.448,18 8,18.447 8,19 L8,19 Z M58,52 C58,53.103 57.103,54 56,54 L10,54 L10,20 L58,20 L58,52 L58,52 Z" id="Shape" fill="#000000"></path>
    </g>
</svg>