<?xml version="1.0" encoding="UTF-8" standalone="no"?>
<svg width="64px" height="64px" viewBox="0 0 64 64" version="1.1" xmlns="http://www.w3.org/2000/svg" xmlns:xlink="http://www.w3.org/1999/xlink">
    <!-- Generator: Sketch 3.7.2 (28276) - http://www.bohemiancoding.com/sketch -->
    <title>fol-email</title>
    <desc>Created with Sketch.</desc>
    <defs></defs>
    <g id="64px-Line" stroke="none" stroke-width="1" fill="none" fill-rule="evenodd">
        <g id="fol-email"></g>
        <path d="M59,18 L56,18 L56,16 C56,13.794 54.206,12 52,12 L28,12 C26,12 25.497,11.329 24.8,10.4 C23.998,9.331 23,8 20,8 L8,8 C5.794,8 4,9.794 4,12 L4,52 C4,54.206 5.794,56 8,56 L56,56 C58.206,56 60,54.206 60,52 L60,19 C60,18.447 59.553,18 59,18 L59,18 Z M8,19 L8,54 C6.897,54 6,53.103 6,52 L6,12 C6,10.897 6.897,10 8,10 L20,10 C22,10 22.503,10.671 23.2,11.6 C24.002,12.669 25,14 28,14 L52,14 C53.103,14 54,14.897 54,16 L54,18 L9,18 C8.447,18 8,18.447 8,19 L8,19 Z M58,52 C58,53.103 57.103,54 56,54 L10,54 L10,20 L58,20 L58,52 L58,52 Z" id="Shape" fill="#000000"></path>
        <path d="M21,46 L47,46 C47.553,46 48,45.553 48,45 L48,27 C48,26.954 47.98,26.915 47.974,26.871 C47.965,26.802 47.957,26.735 47.933,26.668 C47.909,26.601 47.874,26.545 47.837,26.486 C47.814,26.448 47.805,26.405 47.776,26.369 C47.765,26.355 47.748,26.349 47.736,26.336 C47.69,26.285 47.634,26.247 47.578,26.206 C47.527,26.169 47.481,26.129 47.425,26.103 C47.372,26.077 47.314,26.067 47.256,26.051 C47.187,26.032 47.12,26.013 47.049,26.009 C47.031,26.008 47.017,25.999 46.999,25.999 L20.999,25.999 C20.98,25.999 20.964,26.009 20.945,26.01 C20.877,26.014 20.814,26.032 20.749,26.05 C20.687,26.066 20.626,26.078 20.569,26.106 C20.516,26.131 20.471,26.169 20.423,26.205 C20.365,26.247 20.309,26.286 20.261,26.34 C20.249,26.353 20.232,26.359 20.22,26.374 C20.192,26.409 20.184,26.451 20.161,26.488 C20.124,26.548 20.089,26.605 20.065,26.673 C20.042,26.739 20.034,26.804 20.025,26.872 C20.02,26.915 20,26.954 20,27 L20,45 C20,45.553 20.447,46 21,46 L21,46 Z M22,44 L22,29.087 L32.373,37.426 C32.846,37.806 33.452,37.996 34.06,37.996 C34.668,37.996 35.277,37.806 35.752,37.423 L46,29.101 L46,44 L22,44 L22,44 Z M23.84,28 L44.181,28 L34.493,35.867 C34.274,36.043 33.845,36.043 33.626,35.867 L23.84,28 L23.84,28 Z" id="Shape" fill="#000000"></path>
    </g>
</svg>