<?xml version="1.0" encoding="UTF-8" standalone="no"?>
<svg width="44px" height="44px" viewBox="0 0 44 44" version="1.1" xmlns="http://www.w3.org/2000/svg" xmlns:xlink="http://www.w3.org/1999/xlink">
    <!-- Generator: Sketch 3.7.2 (28276) - http://www.bohemiancoding.com/sketch -->
    <title>fol-information</title>
    <desc>Created with Sketch.</desc>
    <defs></defs>
    <g id="44px-Line" stroke="none" stroke-width="1" fill="none" fill-rule="evenodd">
        <g id="fol-information"></g>
        <path d="M4,42 L38,42 C40.206,42 42,40.206 42,38 L42,13 C42,12.448 41.553,12 41,12 L38,12 L38,10 C38,7.794 36.206,6 34,6 L20,6 C18,6 17.497,5.329 16.8,4.4 C15.998,3.331 15,2 12,2 L4,2 C1.794,2 0,3.794 0,6 L0,38 C0,40.206 1.794,42 4,42 L4,42 Z M40,14 L40,38 C40,39.103 39.103,40 38,40 L6,40 L6,14 L40,14 L40,14 Z M2,6 C2,4.897 2.897,4 4,4 L12,4 C14,4 14.503,4.671 15.2,5.6 C16.002,6.669 17,8 20,8 L34,8 C35.103,8 36,8.897 36,10 L36,12 L5,12 C4.447,12 4,12.448 4,13 L4,40 C2.897,40 2,39.103 2,38 L2,6 L2,6 Z" id="Shape" fill="#000000"></path>
        <path d="M23,32 C23.26,32 23.52,31.89 23.71,31.71 C23.89,31.52 24,31.27 24,31 C24,30.87 23.97,30.74 23.92,30.62 C23.87,30.49 23.8,30.39 23.71,30.29 C23.33,29.92 22.66,29.92 22.29,30.29 C22.2,30.39 22.13,30.5 22.08,30.62 C22.019,30.74 22,30.87 22,31 C22,31.26 22.109,31.52 22.29,31.71 C22.479,31.89 22.74,32 23,32 L23,32 Z" id="Shape" fill="#000000"></path>
        <path d="M23,36 C27.963,36 32,31.962 32,27 C32,22.038 27.963,18 23,18 C18.037,18 14,22.038 14,27 C14,31.962 18.037,36 23,36 L23,36 Z M23,20 C26.859,20 30,23.14 30,27 C30,30.86 26.859,34 23,34 C19.141,34 16,30.86 16,27 C16,23.14 19.141,20 23,20 L23,20 Z" id="Shape" fill="#000000"></path>
        <path d="M23,28.666 C23.553,28.666 24,28.218 24,27.666 L24,23 C24,22.448 23.553,22 23,22 C22.447,22 22,22.448 22,23 L22,27.666 C22,28.218 22.447,28.666 23,28.666 L23,28.666 Z" id="Shape" fill="#000000"></path>
    </g>
</svg>