<?xml version="1.0" encoding="UTF-8" standalone="no"?>
<svg width="64px" height="64px" viewBox="0 0 64 64" version="1.1" xmlns="http://www.w3.org/2000/svg" xmlns:xlink="http://www.w3.org/1999/xlink">
    <!-- Generator: Sketch 3.7.2 (28276) - http://www.bohemiancoding.com/sketch -->
    <title>fol-divider</title>
    <desc>Created with Sketch.</desc>
    <defs></defs>
    <g id="64px-Line" stroke="none" stroke-width="1" fill="none" fill-rule="evenodd">
        <g id="fol-divider"></g>
        <path d="M25.649,49.937 C25.765,49.979 25.883,50 26,50 C26.405,50 26.786,49.752 26.937,49.351 L29.84,41.611 C30.869,41.868 31.928,42 33,42 C34.077,42 35.135,41.86 36.157,41.602 L39.063,49.351 C39.214,49.752 39.595,50 40,50 C40.117,50 40.235,49.979 40.351,49.936 C40.868,49.742 41.13,49.165 40.936,48.648 L38.055,40.967 C40.62,39.88 42.822,37.983 44.258,35.502 C44.535,35.024 44.372,34.412 43.894,34.136 C43.415,33.859 42.804,34.022 42.528,34.5 C41.326,36.576 39.489,38.162 37.351,39.087 L35.77,34.873 C36.526,34.146 37,33.129 37,32 C37,30.142 35.72,28.589 34,28.142 L34,25 C34,24.448 33.552,24 33,24 C32.448,24 32,24.448 32,25 L32,28.142 C30.28,28.589 29,30.142 29,32 C29,33.129 29.474,34.146 30.229,34.874 L28.291,40.041 C28.286,40.055 28.274,40.064 28.27,40.079 C28.267,40.089 28.269,40.098 28.267,40.108 L25.064,48.65 C24.87,49.166 25.132,49.742 25.649,49.937 L25.649,49.937 Z M33,30 C34.103,30 35,30.897 35,32 C35,33.103 34.103,34 33,34 C31.897,34 31,33.103 31,32 C31,30.897 31.897,30 33,30 L33,30 Z M33,36 C33.348,36 33.681,35.941 34.003,35.857 L35.445,39.702 C34.649,39.885 33.833,40 33,40 C32.169,40 31.349,39.903 30.548,39.721 L31.997,35.857 C32.319,35.941 32.651,36 33,36 L33,36 Z" id="Shape" fill="#000000"></path>
        <path d="M59,18 L56,18 L56,16 C56,13.794 54.206,12 52,12 L28,12 C26,12 25.497,11.329 24.8,10.4 C23.998,9.331 23,8 20,8 L8,8 C5.794,8 4,9.794 4,12 L4,52 C4,54.206 5.794,56 8,56 L56,56 C58.206,56 60,54.206 60,52 L60,19 C60,18.448 59.552,18 59,18 L59,18 Z M8,19 L8,54 C6.897,54 6,53.103 6,52 L6,12 C6,10.897 6.897,10 8,10 L20,10 C22,10 22.503,10.671 23.2,11.6 C24.002,12.669 25,14 28,14 L52,14 C53.103,14 54,14.897 54,16 L54,18 L9,18 C8.448,18 8,18.448 8,19 L8,19 Z M58,52 C58,53.103 57.103,54 56,54 L10,54 L10,20 L58,20 L58,52 L58,52 Z" id="Shape" fill="#000000"></path>
    </g>
</svg>