<?xml version="1.0" encoding="UTF-8" standalone="no"?>
<svg width="64px" height="64px" viewBox="0 0 64 64" version="1.1" xmlns="http://www.w3.org/2000/svg" xmlns:xlink="http://www.w3.org/1999/xlink">
    <!-- Generator: Sketch 3.7.2 (28276) - http://www.bohemiancoding.com/sketch -->
    <title>fol-edit</title>
    <desc>Created with Sketch.</desc>
    <defs></defs>
    <g id="64px-Line" stroke="none" stroke-width="1" fill="none" fill-rule="evenodd">
        <g id="fol-edit"></g>
        <path d="M23,50 C23.151,50 23.303,49.966 23.444,49.896 L31.634,45.838 C31.732,45.79 31.822,45.725 31.899,45.647 L45.475,32.001 L47.278,30.308 C48.237,29.347 48.239,27.778 47.278,26.809 L45.204,24.728 C44.273,23.789 42.615,23.814 41.735,24.702 L39.945,26.379 C39.94,26.384 39.939,26.39 39.934,26.395 C39.93,26.399 39.924,26.4 39.92,26.404 L26.697,39.697 L26.697,39.697 L26.697,39.697 L26.33,40.066 C26.253,40.143 26.189,40.233 26.142,40.331 L22.103,48.56 C21.914,48.944 21.991,49.407 22.294,49.709 C22.486,49.899 22.741,50 23,50 L23,50 Z M31.564,43.15 L28.817,40.403 L40.629,28.528 L43.37,31.282 L31.564,43.15 L31.564,43.15 Z M43.456,26 C43.528,26 43.666,26.018 43.786,26.139 L45.86,28.22 C46.046,28.408 46.047,28.71 45.885,28.873 L44.804,29.888 L42.064,27.135 L43.128,26.138 C43.247,26.018 43.385,26 43.456,26 L43.456,26 Z M27.562,41.976 L30.002,44.416 L25.196,46.797 L27.562,41.976 L27.562,41.976 Z" id="Shape" fill="#000000"></path>
        <path d="M59,18 L56,18 L56,16 C56,13.794 54.206,12 52,12 L28,12 C26,12 25.497,11.329 24.8,10.4 C23.998,9.331 23,8 20,8 L8,8 C5.794,8 4,9.794 4,12 L4,52 C4,54.206 5.794,56 8,56 L56,56 C58.206,56 60,54.206 60,52 L60,19 C60,18.448 59.553,18 59,18 L59,18 Z M8,19 L8,54 C6.897,54 6,53.103 6,52 L6,12 C6,10.897 6.897,10 8,10 L20,10 C22,10 22.503,10.671 23.2,11.6 C24.002,12.669 25,14 28,14 L52,14 C53.103,14 54,14.897 54,16 L54,18 L9,18 C8.447,18 8,18.448 8,19 L8,19 Z M58,52 C58,53.103 57.103,54 56,54 L10,54 L10,20 L58,20 L58,52 L58,52 Z" id="Shape" fill="#000000"></path>
    </g>
</svg>