<?xml version="1.0" encoding="UTF-8" standalone="no"?>
<svg width="44px" height="44px" viewBox="0 0 44 44" version="1.1" xmlns="http://www.w3.org/2000/svg" xmlns:xlink="http://www.w3.org/1999/xlink">
    <!-- Generator: Sketch 3.7.2 (28276) - http://www.bohemiancoding.com/sketch -->
    <title>fol-trash</title>
    <desc>Created with Sketch.</desc>
    <defs></defs>
    <g id="44px-Line" stroke="none" stroke-width="1" fill="none" fill-rule="evenodd">
        <g id="fol-trash"></g>
        <path d="M41,12 L38,12 L38,10 C38,7.794 36.206,6 34,6 L20,6 C18,6 17.497,5.329 16.8,4.4 C15.998,3.331 15,2 12,2 L4,2 C1.794,2 0,3.794 0,6 L0,38 C0,40.206 1.794,42 4,42 L38,42 C40.206,42 42,40.206 42,38 L42,13 C42,12.447 41.552,12 41,12 L41,12 Z M4,13 L4,40 C2.897,40 2,39.103 2,38 L2,6 C2,4.897 2.897,4 4,4 L12,4 C14,4 14.503,4.671 15.2,5.6 C16.002,6.669 17,8 20,8 L34,8 C35.103,8 36,8.897 36,10 L36,12 L5,12 C4.448,12 4,12.447 4,13 L4,13 Z M40,38 C40,39.103 39.103,40 38,40 L6,40 L6,14 L40,14 L40,38 L40,38 Z" id="Shape" fill="#000000"></path>
        <path d="M15,22 L16,22 L16,33 C16,34.654 17.346,36 19,36 L27,36 C28.654,36 30,34.654 30,33 L30,22 L31,22 C31.552,22 32,21.553 32,21 C32,20.447 31.552,20 31,20 L26,20 L26,19 C26,18.447 25.552,18 25,18 L21,18 C20.448,18 20,18.447 20,19 L20,20 L15,20 C14.448,20 14,20.447 14,21 C14,21.553 14.448,22 15,22 L15,22 Z M28,33 C28,33.552 27.551,34 27,34 L19,34 C18.449,34 18,33.552 18,33 L18,22 L28,22 L28,33 L28,33 Z" id="Shape" fill="#000000"></path>
        <path d="M21,24 C20.448,24 20,24.447 20,25 L20,31 C20,31.553 20.448,32 21,32 C21.552,32 22,31.553 22,31 L22,25 C22,24.447 21.552,24 21,24 L21,24 Z" id="Shape" fill="#000000"></path>
        <path d="M24,25 L24,31 C24,31.553 24.448,32 25,32 C25.552,32 26,31.553 26,31 L26,25 C26,24.447 25.552,24 25,24 C24.448,24 24,24.447 24,25 L24,25 Z" id="Shape" fill="#000000"></path>
    </g>
</svg>