<?xml version="1.0" encoding="UTF-8" standalone="no"?>
<svg width="64px" height="64px" viewBox="0 0 64 64" version="1.1" xmlns="http://www.w3.org/2000/svg" xmlns:xlink="http://www.w3.org/1999/xlink">
    <!-- Generator: Sketch 3.7.2 (28276) - http://www.bohemiancoding.com/sketch -->
    <title>foo-cheese-2</title>
    <desc>Created with Sketch.</desc>
    <defs></defs>
    <g id="64px-Glyph" stroke="none" stroke-width="1" fill="none" fill-rule="evenodd">
        <g id="foo-cheese-2" fill="#000000">
            <path d="M32,14.0469 C29.818,14.0469 28.044,15.8209 28.044,18.0029 C28.044,20.1849 29.818,21.9589 32,21.9589 C34.182,21.9589 35.956,20.1849 35.956,18.0029 C35.956,15.8209 34.182,14.0469 32,14.0469" id="Fill-178"></path>
            <path d="M43,34.0469 C39.164,34.0469 36.044,37.1669 36.044,41.0029 C36.044,44.8389 39.164,47.9589 43,47.9589 C46.836,47.9589 49.956,44.8389 49.956,41.0029 C49.956,37.1669 46.836,34.0469 43,34.0469" id="Fill-179"></path>
            <path d="M43,50.0469 C38.014,50.0469 33.956,45.9889 33.956,41.0029 C33.956,36.0169 38.014,31.9589 43,31.9589 C47.986,31.9589 52.044,36.0169 52.044,41.0029 C52.044,45.9889 47.986,50.0469 43,50.0469 M25.956,18.0029 C25.956,14.6709 28.668,11.9589 32,11.9589 C35.332,11.9589 38.044,14.6709 38.044,18.0029 C38.044,21.3349 35.332,24.0469 32,24.0469 C28.668,24.0469 25.956,21.3349 25.956,18.0029 M54,5.9589 L10,5.9589 C7.771,5.9589 5.956,7.7739 5.956,10.0029 L5.956,24.9999 C5.956,25.5759 6.424,26.0429 6.999,26.0439 C11.938,26.0459 15.956,30.0659 15.956,35.0029 C15.956,39.9419 11.938,43.9589 7,43.9589 C6.424,43.9589 5.956,44.4269 5.956,45.0029 L5.956,54.0029 C5.956,56.2329 7.771,58.0469 10,58.0469 L54,58.0469 C56.229,58.0469 58.044,56.2329 58.044,54.0029 L58.044,10.0029 C58.044,7.7739 56.229,5.9589 54,5.9589" id="Fill-180"></path>
        </g>
    </g>
</svg>