<?xml version="1.0" encoding="UTF-8" standalone="no"?>
<svg width="44px" height="44px" viewBox="0 0 44 44" version="1.1" xmlns="http://www.w3.org/2000/svg" xmlns:xlink="http://www.w3.org/1999/xlink">
    <!-- Generator: Sketch 3.7.2 (28276) - http://www.bohemiancoding.com/sketch -->
    <title>foo-ham</title>
    <desc>Created with Sketch.</desc>
    <defs></defs>
    <g id="44px-Glyph" stroke="none" stroke-width="1" fill="none" fill-rule="evenodd">
        <g id="foo-ham" fill="#000000">
            <path d="M42.7067,6.1765 C41.7307,5.1995 40.4097,4.7785 39.1337,4.9045 C39.2617,3.6285 38.8377,2.3075 37.8617,1.3315 C36.1337,-0.3935 33.3267,-0.3935 31.6027,1.3315 C30.0267,2.9085 29.8907,5.3895 31.1957,7.1215 C30.8977,7.9775 30.0597,9.8225 28.1377,11.1685 C29.1007,11.7495 29.9947,12.4365 30.7977,13.2405 C31.6497,14.0925 32.3737,15.0425 32.9747,16.0725 C34.3617,14.2225 36.1227,13.2575 36.9657,12.8805 C38.6967,14.1455 41.1447,13.9965 42.7067,12.4355 C44.4317,10.7105 44.4317,7.9025 42.7067,6.1765" id="Fill-54"></path>
            <path d="M8.4285,27.5205 C8.3175,27.5205 8.2355,27.5385 8.1865,27.5765 C7.9125,27.9415 8.6315,30.2365 11.2165,32.8215 C13.7985,35.4035 16.0905,36.1215 16.4645,35.8495 C16.7365,35.4765 16.0165,33.1825 13.4355,30.6025 C11.1915,28.3575 9.1635,27.5205 8.4285,27.5205" id="Fill-57"></path>
            <path d="M17.8782,37.2642 C17.4372,37.7042 16.8712,37.8992 16.2282,37.8992 C14.3432,37.8992 11.7962,36.2302 9.8022,34.2352 C7.1282,31.5622 5.0402,27.8952 6.7742,26.1602 C8.5062,24.4262 12.1772,26.5142 14.8502,29.1882 C17.5242,31.8612 19.6112,35.5282 17.8782,37.2642 M24.9982,35.0302 C23.8052,31.9282 21.4912,28.5632 18.4832,25.5542 C15.4752,22.5462 12.1102,20.2332 9.0082,19.0392 C5.6432,17.7442 2.9142,17.9082 1.3242,19.4992 C-0.2668,21.0892 -0.4298,23.8182 0.8652,27.1832 C2.0582,30.2842 4.3712,33.6492 7.3792,36.6572 C10.3882,39.6662 13.7532,41.9802 16.8552,43.1742 C18.3562,43.7512 19.7302,44.0382 20.9332,44.0382 C22.4272,44.0382 23.6582,43.5942 24.5382,42.7132 C26.1292,41.1242 26.2922,38.3952 24.9982,35.0302" id="Fill-59"></path>
            <path d="M9.7264,17.1732 C13.0834,18.4642 16.6954,20.9382 19.8984,24.1402 C23.1004,27.3432 25.5744,30.9552 26.8654,34.3122 C27.4884,35.9312 27.8084,37.4452 27.8504,38.8252 C34.0314,30.3182 34.9114,20.1812 29.3834,14.6542 C23.8564,9.1272 13.7194,10.0062 5.2134,16.1882 C6.5934,16.2292 8.1074,16.5502 9.7264,17.1732" id="Fill-61"></path>
        </g>
    </g>
</svg>