<?xml version="1.0" encoding="UTF-8" standalone="no"?>
<svg width="64px" height="64px" viewBox="0 0 64 64" version="1.1" xmlns="http://www.w3.org/2000/svg" xmlns:xlink="http://www.w3.org/1999/xlink">
    <!-- Generator: Sketch 3.7.2 (28276) - http://www.bohemiancoding.com/sketch -->
    <title>foo-egg-spoon</title>
    <desc>Created with Sketch.</desc>
    <defs></defs>
    <g id="64px-Glyph" stroke="none" stroke-width="1" fill="none" fill-rule="evenodd">
        <g id="foo-egg-spoon" fill="#000000">
            <path d="M10.2422,31.1973 C10.1352,30.6683 10.4762,30.1523 11.0062,30.0453 C11.5342,29.9463 12.0502,30.2793 12.1582,30.8083 C13.0072,34.9903 16.7252,38.0253 21.0002,38.0253 C21.5402,38.0253 21.9772,38.4633 21.9772,39.0033 C21.9772,39.5433 21.5402,39.9803 21.0002,39.9803 C15.8002,39.9803 11.2752,36.2863 10.2422,31.1973 M29.0002,54.0033 L26.9832,54.0033 C25.5682,53.9823 24.0002,51.3203 24.0002,47.5053 C24.0002,46.0693 24.2472,44.6893 24.6812,43.5423 C31.0242,41.9663 35.5872,36.3663 35.9982,29.0583 C36.0132,28.7843 35.9162,28.5153 35.7262,28.3163 C35.5382,28.1163 35.2752,28.0033 35.0002,28.0033 L7.0282,28.0023 C6.7532,28.0023 6.4902,28.1153 6.3022,28.3153 C6.1122,28.5143 6.0142,28.7833 6.0302,29.0573 C6.4402,36.3633 10.9922,41.9623 17.3192,43.5403 C17.7522,44.6883 18.0002,46.0683 18.0002,47.5053 C18.0002,51.3203 16.4312,53.9823 15.0172,54.0033 L13.0002,54.0033 C10.2432,54.0033 8.0002,56.2463 8.0002,59.0033 C8.0002,59.5553 8.4472,60.0033 9.0002,60.0033 L33.0002,60.0033 C33.5532,60.0033 34.0002,59.5553 34.0002,59.0033 C34.0002,56.2463 31.7572,54.0033 29.0002,54.0033" id="Fill-208"></path>
            <path d="M49,10.003 C47.581,10.003 46,12.467 46,16.003 C46,16.556 45.553,17.003 45,17.003 C44.447,17.003 44,16.556 44,16.003 C44,11.517 46.196,8.003 49,8.003 C49.553,8.003 50,8.45 50,9.003 C50,9.556 49.553,10.003 49,10.003 M58,16.003 C58,9.386 53.963,4.003 49,4.003 C44.037,4.003 40,9.386 40,16.003 C40,21.088 42.411,25.597 45.947,27.293 C45.618,31.575 44,52.724 44,55.003 C44,57.9 46.102,60.003 49,60.003 C51.897,60.003 54,57.9 54,55.003 C54,54.98 53.999,54.956 53.997,54.933 L52.048,27.303 C55.587,25.617 58,21.106 58,16.003" id="Fill-209"></path>
            <path d="M21,8.003 C21.553,8.003 22,8.45 22,9.003 C22,9.556 21.553,10.003 21,10.003 C17.73,10.003 14.556,15.987 14.067,23.072 C14.03,23.6 13.591,24.003 13.07,24.003 C13.047,24.003 13.023,24.002 13,24.001 C12.449,23.963 12.033,23.485 12.071,22.934 C12.571,15.696 15.87,8.003 21,8.003 L21,8.003 Z M34,26.003 L34,25.003 C34,14.903 29.029,4.003 21,4.003 C12.971,4.003 8,14.903 8,25.003 L8,26.003 L34,26.003 Z" id="Fill-210"></path>
        </g>
    </g>
</svg>