<?xml version="1.0" encoding="UTF-8" standalone="no"?>
<svg width="64px" height="64px" viewBox="0 0 64 64" version="1.1" xmlns="http://www.w3.org/2000/svg" xmlns:xlink="http://www.w3.org/1999/xlink">
    <!-- Generator: Sketch 3.7.2 (28276) - http://www.bohemiancoding.com/sketch -->
    <title>foo-cheese</title>
    <desc>Created with Sketch.</desc>
    <defs></defs>
    <g id="64px-Glyph" stroke="none" stroke-width="1" fill="none" fill-rule="evenodd">
        <g id="foo-cheese" fill="#000000">
            <path d="M29,28.003 C27.346,28.003 26,29.349 26,31.003 C26,32.657 27.346,34.003 29,34.003 C30.654,34.003 32,32.657 32,31.003 C32,29.349 30.654,28.003 29,28.003" id="Fill-247"></path>
            <path d="M43,40.003 C40.243,40.003 38,42.246 38,45.003 C38,47.76 40.243,50.003 43,50.003 C45.757,50.003 48,47.76 48,45.003 C48,42.246 45.757,40.003 43,40.003" id="Fill-248"></path>
            <path d="M43,52.003 C39.141,52.003 36,48.862 36,45.003 C36,41.144 39.141,38.003 43,38.003 C46.859,38.003 50,41.144 50,45.003 C50,48.862 46.859,52.003 43,52.003 L43,52.003 Z M29,36.003 C26.243,36.003 24,33.76 24,31.003 C24,28.246 26.243,26.003 29,26.003 C31.757,26.003 34,28.246 34,31.003 C34,33.76 31.757,36.003 29,36.003 L29,36.003 Z M6,22.003 L6,33.003 C6,33.556 6.447,34.003 7,34.003 C10.859,34.003 14,37.144 14,41.003 C14,44.862 10.859,48.003 7,48.003 C6.447,48.003 6,48.45 6,49.003 L6,57.003 C6,57.556 6.447,58.003 7,58.003 L57,58.003 C57.553,58.003 58,57.556 58,57.003 L58,22.003 L6,22.003 Z" id="Fill-249"></path>
            <path d="M57.6561,20.003 C56.9771,18.508 55.0151,14.604 51.7071,11.296 C47.5581,7.148 43.4171,6.076 43.2421,6.033 C43.0421,5.981 42.8291,5.995 42.6381,6.071 L6.8131,20.003 L57.6561,20.003 Z" id="Fill-250"></path>
        </g>
    </g>
</svg>