<?xml version="1.0" encoding="UTF-8" standalone="no"?>
<svg width="64px" height="64px" viewBox="0 0 64 64" version="1.1" xmlns="http://www.w3.org/2000/svg" xmlns:xlink="http://www.w3.org/1999/xlink">
    <!-- Generator: Sketch 3.7.2 (28276) - http://www.bohemiancoding.com/sketch -->
    <title>foo-drumstick</title>
    <desc>Created with Sketch.</desc>
    <defs></defs>
    <g id="64px-Glyph" stroke="none" stroke-width="1" fill="none" fill-rule="evenodd">
        <g id="foo-drumstick" fill="#000000">
            <path d="M52.3213,13.0958 C51.9303,13.4868 51.2983,13.4868 50.9073,13.0958 C46.6973,8.8878 39.8493,8.8868 35.6413,13.0958 C34.6313,14.1058 33.4003,15.7278 32.1763,17.6618 C31.9863,17.9628 31.6613,18.1278 31.3303,18.1278 C31.1473,18.1278 30.9623,18.0778 30.7973,17.9728 C30.3303,17.6778 30.1903,17.0608 30.4863,16.5938 C31.7873,14.5368 33.1163,12.7918 34.2273,11.6818 C39.2183,6.6928 47.3333,6.6968 52.3213,11.6818 C52.7123,12.0728 52.7123,12.7048 52.3213,13.0958 M29.2293,23.0248 C28.6213,24.3098 28.0923,25.5728 27.6573,26.7788 C27.5103,27.1868 27.1263,27.4398 26.7173,27.4398 C26.6043,27.4398 26.4893,27.4208 26.3783,27.3798 C25.8583,27.1928 25.5893,26.6198 25.7763,26.1008 C26.2323,24.8338 26.7863,23.5118 27.4213,22.1688 C27.6563,21.6698 28.2493,21.4558 28.7533,21.6928 C29.2523,21.9288 29.4653,22.5258 29.2293,23.0248 M55.1003,8.9028 C51.9423,5.7428 47.7423,4.0028 43.2743,4.0028 C38.8063,4.0028 34.6063,5.7428 31.4473,8.9028 C28.1183,12.2308 24.4953,18.5298 22.4313,24.5748 C19.8653,32.0978 20.1043,37.8928 23.1073,40.8958 C24.7323,42.5208 27.1743,43.3358 30.2653,43.3358 C32.8863,43.3358 35.9753,42.7488 39.4273,41.5718 C45.4733,39.5078 51.7723,35.8848 55.1003,32.5558 C58.2603,29.3968 60.0003,25.1968 60.0003,20.7288 C60.0003,16.2608 58.2603,12.0608 55.1003,8.9028" id="Fill-132"></path>
            <path d="M24.1429,44.0543 C23.2219,43.5943 22.3999,43.0163 21.6929,42.3093 C20.9889,41.6053 20.4119,40.7813 19.9539,39.8543 L16.1569,43.6513 C15.2329,44.5733 12.3889,44.4003 10.7489,44.0633 C8.8899,43.8053 7.0609,44.4093 5.7319,45.7363 C3.4729,47.9973 3.4419,51.6383 5.6119,53.9533 C5.6399,53.9753 5.6739,53.9863 5.6999,54.0123 C7.9909,56.3033 11.7179,56.3033 14.0089,54.0123 C14.3919,53.6293 15.0109,53.6293 15.3939,54.0123 C15.7759,54.3943 15.7759,55.0133 15.3939,55.3963 C13.8659,56.9243 11.8599,57.6873 9.8549,57.6873 C9.6949,57.6873 9.5359,57.6743 9.3769,57.6643 C9.5369,57.8763 9.7109,58.0793 9.9019,58.2703 C11.0549,59.4243 12.5689,60.0003 14.0839,60.0003 C15.5989,60.0003 17.1129,59.4233 18.2669,58.2703 C19.5959,56.9423 20.2049,55.1113 19.9399,53.2493 C19.9339,53.2123 19.9269,53.1763 19.9169,53.1403 C19.5789,51.5803 19.4009,48.7963 20.3519,47.8463 L24.1429,44.0543 Z" id="Fill-133"></path>
        </g>
    </g>
</svg>