<?xml version="1.0" encoding="UTF-8" standalone="no"?>
<svg width="64px" height="64px" viewBox="0 0 64 64" version="1.1" xmlns="http://www.w3.org/2000/svg" xmlns:xlink="http://www.w3.org/1999/xlink">
    <!-- Generator: Sketch 3.7.2 (28276) - http://www.bohemiancoding.com/sketch -->
    <title>foo-cake</title>
    <desc>Created with Sketch.</desc>
    <defs></defs>
    <g id="64px-Glyph" stroke="none" stroke-width="1" fill="none" fill-rule="evenodd">
        <g id="foo-cake" fill="#000000">
            <path d="M11,42.003 C13.757,42.003 16,44.246 16,47.003 L16,50.003 C16,52.209 17.794,54.003 20,54.003 C22.206,54.003 24,52.209 24,50.003 L24,48.003 C24,45.797 25.794,44.003 28,44.003 C30.206,44.003 32,45.797 32,48.003 L32,49.003 C32,50.657 33.346,52.003 35,52.003 C36.654,52.003 38,50.657 38,49.003 L38,46.003 C38,43.797 39.794,42.003 42,42.003 C44.206,42.003 46,43.797 46,46.003 L46,49.003 C46,49.555 46.448,50.003 47,50.003 C47.552,50.003 48,49.555 48,49.003 C48,46.246 50.243,44.003 53,44.003 C55.757,44.003 58,46.246 58,49.003 L58,38.003 L6,38.003 L6,47.003 C6,44.246 8.243,42.003 11,42.003" id="Fill-86"></path>
            <path d="M56,49.003 C56,47.349 54.654,46.003 53,46.003 C51.346,46.003 50,47.349 50,49.003 C50,50.657 48.654,52.003 47,52.003 C45.346,52.003 44,50.657 44,49.003 L44,46.003 C44,44.9 43.102,44.003 42,44.003 C40.897,44.003 40,44.9 40,46.003 L40,49.003 C40,51.76 37.757,54.003 35,54.003 C32.243,54.003 30,51.76 30,49.003 L30,48.003 C30,46.9 29.102,46.003 28,46.003 C26.897,46.003 26,46.9 26,48.003 L26,50.003 C26,53.312 23.309,56.003 20,56.003 C16.691,56.003 14,53.312 14,50.003 L14,47.003 C14,45.349 12.654,44.003 11,44.003 C9.346,44.003 8,45.349 8,47.003 C8,48.305 7.161,49.405 6,49.819 L6,59.003 C6,59.556 6.447,60.003 7,60.003 L57,60.003 C57.553,60.003 58,59.556 58,59.003 L58,51.819 C56.839,51.405 56,50.305 56,49.003" id="Fill-87"></path>
            <path d="M57.9644,26.8265 C57.9524,26.7615 57.9544,26.6955 57.9284,26.6315 C57.9274,26.6295 57.9234,26.6185 57.9214,26.6155 C57.9214,26.6145 57.9214,26.6135 57.9204,26.6125 C57.7864,26.2805 55.7514,21.3405 51.7074,17.2955 C47.5584,13.1475 43.4174,12.0765 43.2424,12.0335 C43.0434,11.9815 42.8304,11.9945 42.6374,12.0715 L41.6864,12.4415 C41.8844,13.2645 42.0004,14.1195 42.0004,15.0025 C42.0004,21.0685 37.0654,26.0025 31.0004,26.0025 C26.8694,26.0025 23.2664,23.7115 21.3864,20.3355 L6.6374,26.0715 C6.6334,26.0725 6.6314,26.0765 6.6274,26.0785 C6.5384,26.1135 6.4644,26.1715 6.3914,26.2295 C6.3624,26.2515 6.3254,26.2655 6.2994,26.2915 C6.2444,26.3445 6.2104,26.4145 6.1684,26.4795 C6.1414,26.5225 6.1044,26.5595 6.0834,26.6055 C6.0634,26.6515 6.0634,26.7055 6.0504,26.7545 C6.0294,26.8325 6.0044,26.9075 6.0034,26.9885 C6.0034,26.9935 6.0004,26.9975 6.0004,27.0025 L6.0004,28.0025 L58.0004,28.0025 L58.0004,27.0235 L58.0004,27.0205 L58.0004,27.0025 C58.0004,26.9405 57.9754,26.8855 57.9644,26.8265" id="Fill-88"></path>
            <polygon id="Fill-89" points="6 36.003 58 36.003 58 30.003 6 30.003"></polygon>
            <path d="M31,12.003 C29.346,12.003 28,13.349 28,15.003 C28,15.556 27.553,16.003 27,16.003 C26.447,16.003 26,15.556 26,15.003 C26,12.246 28.243,10.003 31,10.003 C31.553,10.003 32,10.45 32,11.003 C32,11.556 31.553,12.003 31,12.003 M31,6.003 C26.029,6.003 22,10.032 22,15.003 C22,19.974 26.029,24.003 31,24.003 C35.971,24.003 40,19.974 40,15.003 C40,10.032 35.971,6.003 31,6.003" id="Fill-90"></path>
        </g>
    </g>
</svg>