<?xml version="1.0" encoding="UTF-8" standalone="no"?>
<svg width="64px" height="64px" viewBox="0 0 64 64" version="1.1" xmlns="http://www.w3.org/2000/svg" xmlns:xlink="http://www.w3.org/1999/xlink">
    <!-- Generator: Sketch 3.7.2 (28276) - http://www.bohemiancoding.com/sketch -->
    <title>foo-sauces</title>
    <desc>Created with Sketch.</desc>
    <defs></defs>
    <g id="64px-Line" stroke="none" stroke-width="1" fill="none" fill-rule="evenodd">
        <g id="foo-sauces"></g>
        <path d="M52,18.08 L52,13 C52,12.447 51.553,12 51,12 L46,12 L46,5 C46,4.447 45.553,4 45,4 L41,4 C40.447,4 40,4.447 40,5 L40,12 L35,12 C34.447,12 34,12.447 34,13 L34,18.08 C31.918,18.38 30.133,19.596 29.064,21.308 C28.155,20.656 27.11,20.237 26,20.079 L26,17 C26,16.447 25.553,16 25,16 L22,16 L22,11 C22,10.447 21.553,10 21,10 L17,10 C16.447,10 16,10.447 16,11 L16,16 L13,16 C12.447,16 12,16.447 12,17 L12,20.08 C8.614,20.568 6,23.481 6,27 L6,55 C6,56.654 7.346,58 9,58 L28.184,58 C28.598,59.161 29.698,60 31,60 L55,60 C56.654,60 58,58.654 58,57 L58,25 C58,21.481 55.386,18.568 52,18.08 L52,18.08 Z M50,18 L48,18 L48,14 L50,14 L50,18 L50,18 Z M44,18 L44,14 L46,14 L46,18 L44,18 L44,18 Z M40,18 L40,14 L42,14 L42,18 L40,18 L40,18 Z M42,6 L44,6 L44,12 L42,12 L42,6 L42,6 Z M38,14 L38,18 L36,18 L36,14 L38,14 L38,14 Z M24,20 L22,20 L22,18 L24,18 L24,20 L24,20 Z M18,20 L18,18 L20,18 L20,20 L18,20 L18,20 Z M20,12 L20,16 L18,16 L18,12 L20,12 L20,12 Z M16,18 L16,20 L14,20 L14,18 L16,18 L16,18 Z M8,55 L8,27 C8,24.243 10.243,22 13,22 L25,22 C26.206,22 27.333,22.443 28.238,23.22 C28.088,23.789 28,24.384 28,25 L28,56 L9,56 C8.448,56 8,55.552 8,55 L8,55 Z M56,57 C56,57.552 55.552,58 55,58 L31,58 C30.448,58 30,57.552 30,57 L30,25 C30,22.243 32.243,20 35,20 L51,20 C53.757,20 56,22.243 56,25 L56,57 L56,57 Z" id="Shape" fill="#000000"></path>
        <path d="M35,22 C33.346,22 32,23.346 32,25 L32,55 C32,55.553 32.447,56 33,56 C33.553,56 34,55.553 34,55 L34,25 C34,24.448 34.448,24 35,24 C35.553,24 36,23.553 36,23 C36,22.447 35.553,22 35,22 L35,22 Z" id="Shape" fill="#000000"></path>
        <path d="M13,24 C11.346,24 10,25.346 10,27 L10,53 C10,53.553 10.447,54 11,54 C11.553,54 12,53.553 12,53 L12,27 C12,26.448 12.448,26 13,26 C13.553,26 14,25.553 14,25 C14,24.447 13.553,24 13,24 L13,24 Z" id="Shape" fill="#000000"></path>
    </g>
</svg>