<?xml version="1.0" encoding="UTF-8" standalone="no"?>
<svg width="44px" height="44px" viewBox="0 0 44 44" version="1.1" xmlns="http://www.w3.org/2000/svg" xmlns:xlink="http://www.w3.org/1999/xlink">
    <!-- Generator: Sketch 3.7.2 (28276) - http://www.bohemiancoding.com/sketch -->
    <title>foo-muffin</title>
    <desc>Created with Sketch.</desc>
    <defs></defs>
    <g id="44px-Glyph" stroke="none" stroke-width="1" fill="none" fill-rule="evenodd">
        <g id="foo-muffin" fill="#000000">
            <path d="M27.9807,41.2343 C27.8857,41.7103 27.4677,42.0383 27.0007,42.0383 C26.9367,42.0383 26.8707,42.0323 26.8037,42.0183 C26.2627,41.9103 25.9117,41.3833 26.0197,40.8413 L28.0197,30.8413 C28.1277,30.2993 28.6497,29.9453 29.1967,30.0573 C29.7377,30.1663 30.0887,30.6923 29.9807,31.2343 L27.9807,41.2343 Z M22.0007,41.0383 C22.0007,41.5903 21.5527,42.0383 21.0007,42.0383 C20.4477,42.0383 20.0007,41.5903 20.0007,41.0383 L20.0007,31.0383 C20.0007,30.4853 20.4477,30.0383 21.0007,30.0383 C21.5527,30.0383 22.0007,30.4853 22.0007,31.0383 L22.0007,41.0383 Z M15.1967,42.0183 C15.1297,42.0323 15.0637,42.0383 14.9987,42.0383 C14.5327,42.0383 14.1147,41.7103 14.0197,41.2343 L12.0197,31.2343 C11.9117,30.6923 12.2627,30.1663 12.8037,30.0573 C13.3467,29.9453 13.8727,30.2993 13.9807,30.8413 L15.9807,40.8413 C16.0887,41.3833 15.7377,41.9103 15.1967,42.0183 L15.1967,42.0183 Z M33.7997,28.0383 L7.3997,28.0383 C6.4917,28.0383 5.6167,27.9023 4.7857,27.6603 L8.2957,40.8903 C8.6287,42.6553 10.2557,44.0383 12.0007,44.0383 L30.0007,44.0383 C31.6977,44.0383 33.2417,42.7343 33.6647,40.9593 L37.2077,27.4403 C36.1407,27.8203 34.9967,28.0383 33.7997,28.0383 L33.7997,28.0383 Z" id="Fill-215"></path>
            <path d="M37.1872,10.3788 C37.0482,6.4188 33.7922,3.2388 29.8002,3.2388 C29.0852,3.2388 28.3872,3.3438 27.7122,3.5418 C26.2272,1.4268 23.7752,0.0378 21.0002,0.0378 C17.5902,0.0378 14.6622,2.1308 13.4272,5.0988 C12.7682,4.9308 12.0912,4.8378 11.4002,4.8378 C7.0492,4.8378 3.4892,8.2468 3.2262,12.5328 C1.2802,13.8678 0.0002,16.1058 0.0002,18.6378 C0.0002,22.7188 3.3192,26.0378 7.4002,26.0378 L33.8002,26.0378 C38.3212,26.0378 42.0002,22.3588 42.0002,17.8378 C42.0002,14.5248 40.0212,11.6718 37.1872,10.3788" id="Fill-216"></path>
        </g>
    </g>
</svg>