<?xml version="1.0" encoding="UTF-8" standalone="no"?>
<svg width="44px" height="44px" viewBox="0 0 44 44" version="1.1" xmlns="http://www.w3.org/2000/svg" xmlns:xlink="http://www.w3.org/1999/xlink">
    <!-- Generator: Sketch 3.7.2 (28276) - http://www.bohemiancoding.com/sketch -->
    <title>foo-iced-bun</title>
    <desc>Created with Sketch.</desc>
    <defs></defs>
    <g id="44px-Glyph" stroke="none" stroke-width="1" fill="none" fill-rule="evenodd">
        <g id="foo-iced-bun" fill="#000000">
            <path d="M27.9865,41.2021 C27.9045,41.6911 27.4815,42.0381 27.0015,42.0381 C26.9465,42.0381 26.8915,42.0341 26.8355,42.0241 C26.2915,41.9331 25.9235,41.4181 26.0135,40.8741 L28.0135,28.8741 C28.1045,28.3301 28.6155,27.9591 29.1645,28.0521 C29.7095,28.1421 30.0775,28.6581 29.9865,29.2021 L27.9865,41.2021 Z M22.0005,41.0381 C22.0005,41.5911 21.5525,42.0381 21.0005,42.0381 C20.4485,42.0381 20.0005,41.5911 20.0005,41.0381 L20.0005,29.0381 C20.0005,28.4851 20.4485,28.0381 21.0005,28.0381 C21.5525,28.0381 22.0005,28.4851 22.0005,29.0381 L22.0005,41.0381 Z M15.1645,42.0241 C15.1095,42.0341 15.0535,42.0381 14.9995,42.0381 C14.5185,42.0381 14.0955,41.6911 14.0135,41.2021 L12.0135,29.2021 C11.9235,28.6581 12.2915,28.1421 12.8355,28.0521 C13.3835,27.9551 13.8955,28.3291 13.9865,28.8741 L15.9865,40.8741 C16.0775,41.4181 15.7095,41.9331 15.1645,42.0241 L15.1645,42.0241 Z M37.0005,26.0381 L5.0005,26.0381 C4.8945,26.0381 4.7955,26.0131 4.6905,26.0071 L8.2955,40.8901 C8.6285,42.6551 10.2565,44.0381 12.0005,44.0381 L30.0005,44.0381 C31.6975,44.0381 33.2415,42.7341 33.6695,40.9411 L37.3065,26.0071 C37.2035,26.0131 37.1055,26.0381 37.0005,26.0381 L37.0005,26.0381 Z" id="Fill-246"></path>
            <path d="M37.7542,18.1457 C35.9272,12.6777 30.3662,9.3607 24.7042,8.3657 C25.5012,7.4797 26.0002,6.3197 26.0002,5.0377 C26.0002,2.2807 23.7572,0.0377 21.0002,0.0377 C18.2432,0.0377 16.0002,2.2807 16.0002,5.0377 C16.0002,6.3377 16.5112,7.5127 17.3262,8.4027 C11.6952,9.4537 6.0552,12.7957 4.2482,18.1447 C2.9592,18.4807 2.0002,19.6447 2.0002,21.0377 C2.0002,22.6927 3.3462,24.0377 5.0002,24.0377 L37.0002,24.0377 C38.6542,24.0377 40.0002,22.6927 40.0002,21.0377 C40.0002,19.6457 39.0422,18.4827 37.7542,18.1457" id="Fill-247"></path>
        </g>
    </g>
</svg>