<?xml version="1.0" encoding="UTF-8" standalone="no"?>
<svg width="44px" height="44px" viewBox="0 0 44 44" version="1.1" xmlns="http://www.w3.org/2000/svg" xmlns:xlink="http://www.w3.org/1999/xlink">
    <!-- Generator: Sketch 3.7.2 (28276) - http://www.bohemiancoding.com/sketch -->
    <title>foo-tin-small</title>
    <desc>Created with Sketch.</desc>
    <defs></defs>
    <g id="44px-Line" stroke="none" stroke-width="1" fill="none" fill-rule="evenodd">
        <g id="foo-tin-small"></g>
        <path d="M22,6 C11.404,6 0,8.19 0,13 L0,33 C0,37.81 11.404,40 22,40 C32.596,40 44,37.81 44,33 L44,13 C44,8.19 32.596,6 22,6 L22,6 Z M22,8 C34.878,8 42,10.956 42,13 C42,13.631 41.316,14.35 39.997,15.041 C39.997,15.027 40,15.014 40,15 C40,10.649 28.792,10 22.111,10 C15.347,10 4,10.649 4,15 C4,15.014 4.003,15.027 4.003,15.042 C2.684,14.35 2,13.631 2,13 C2,10.956 9.122,8 22,8 L22,8 Z M11.38,17.203 C11.364,17.199 11.352,17.187 11.335,17.184 C9.044,16.719 6,15.986 6,15 C6,14.061 10.057,12 22.111,12 C34.116,12 38,14.021 38,15 C38,15.778 36.467,16.421 32.873,17.148 C32.86,17.151 32.85,17.16 32.837,17.163 C29.884,17.672 26.266,18 22,18 C17.841,18 14.292,17.689 11.38,17.203 L11.38,17.203 Z M22,38 C9.122,38 2,35.044 2,33 L2,16.158 C5.729,18.779 14.089,20 22,20 C29.911,20 38.271,18.778 42,16.158 L42,33 C42,35.044 34.878,38 22,38 L22,38 Z" id="Shape" fill="#000000"></path>
    </g>
</svg>