<?xml version="1.0" encoding="UTF-8" standalone="no"?>
<svg width="44px" height="44px" viewBox="0 0 44 44" version="1.1" xmlns="http://www.w3.org/2000/svg" xmlns:xlink="http://www.w3.org/1999/xlink">
    <!-- Generator: Sketch 3.7.2 (28276) - http://www.bohemiancoding.com/sketch -->
    <title>foo-lollipop</title>
    <desc>Created with Sketch.</desc>
    <defs></defs>
    <g id="44px-Glyph" stroke="none" stroke-width="1" fill="none" fill-rule="evenodd">
        <g id="foo-lollipop" fill="#000000">
            <path d="M16.7618,27.3952 C16.7278,27.3672 16.6868,27.3532 16.6568,27.3202 C14.3938,24.8492 12.7508,20.7352 12.7508,17.5382 C12.7508,10.3702 18.5828,4.5382 25.7498,4.5382 C30.2938,4.5382 34.5688,6.9622 36.9088,10.8622 C39.0688,15.3312 38.1748,20.5972 34.7268,24.0482 C31.0648,27.7062 25.1118,27.7062 21.4528,24.0482 C18.4488,21.0412 18.4488,16.1502 21.4518,13.1442 C23.9358,10.6642 27.9748,10.6642 30.4568,13.1442 C31.4558,14.1442 32.0068,15.4732 32.0068,16.8872 C32.0068,18.3022 31.4568,19.6322 30.4558,20.6322 C29.6188,21.4682 28.5058,21.9302 27.3208,21.9302 C26.1368,21.9302 25.0228,21.4682 24.1848,20.6312 C22.7238,19.1702 22.7248,16.7932 24.1848,15.3332 C25.3908,14.1252 27.5008,14.1232 28.7078,15.3312 C29.0978,15.7212 29.0978,16.3552 28.7068,16.7452 C28.3168,17.1362 27.6828,17.1352 27.2928,16.7452 C26.8428,16.2942 26.0528,16.2962 25.5988,16.7472 C24.9178,17.4272 24.9188,18.5362 25.5988,19.2172 C26.5188,20.1362 28.1228,20.1362 29.0418,19.2172 C29.6648,18.5942 30.0068,17.7682 30.0068,16.8882 C30.0068,16.0072 29.6638,15.1802 29.0418,14.5582 C27.3398,12.8572 24.5698,12.8562 22.8658,14.5592 C20.6428,16.7842 20.6428,20.4072 22.8678,22.6332 C25.7458,25.5132 30.4318,25.5112 33.3118,22.6332 C36.1598,19.7842 36.8988,15.4342 35.1508,11.8112 C33.1838,8.5392 29.6528,6.5382 25.7498,6.5382 C19.6858,6.5382 14.7508,11.4722 14.7508,17.5382 C14.7508,20.2402 16.2048,23.8652 18.1308,25.9682 C18.1438,25.9822 18.1468,25.9992 18.1578,26.0132 C24.0968,31.8802 33.6768,31.8832 39.5608,25.9992 C42.3938,23.1662 43.8588,19.4842 43.9868,15.7652 C43.8388,7.0692 36.7298,0.0382 27.9998,0.0382 C19.1778,0.0382 11.9998,7.2152 11.9998,16.0382 C11.9998,20.0902 13.5268,23.7832 16.0188,26.6052 L0.2928,42.3312 C-0.0972,42.7212 -0.0972,43.3542 0.2928,43.7452 C0.4888,43.9402 0.7438,44.0382 0.9998,44.0382 C1.2558,44.0382 1.5118,43.9402 1.7068,43.7452 L17.4328,28.0192 C17.5208,28.0972 17.6168,28.1652 17.7068,28.2412 C17.3868,27.9682 17.0658,27.6962 16.7618,27.3952" id="Fill-214"></path>
        </g>
    </g>
</svg>