<?xml version="1.0" encoding="UTF-8" standalone="no"?>
<svg width="64px" height="64px" viewBox="0 0 64 64" version="1.1" xmlns="http://www.w3.org/2000/svg" xmlns:xlink="http://www.w3.org/1999/xlink">
    <!-- Generator: Sketch 3.7.2 (28276) - http://www.bohemiancoding.com/sketch -->
    <title>foo-fried-egg</title>
    <desc>Created with Sketch.</desc>
    <defs></defs>
    <g id="64px-Glyph" stroke="none" stroke-width="1" fill="none" fill-rule="evenodd">
        <g id="foo-fried-egg" fill="#000000">
            <path d="M30,26.003 C25.589,26.003 22,29.592 22,34.003 C22,34.556 21.553,35.003 21,35.003 C20.447,35.003 20,34.556 20,34.003 C20,28.489 24.486,24.003 30,24.003 C30.553,24.003 31,24.45 31,25.003 C31,25.556 30.553,26.003 30,26.003 M30,22.003 C23.383,22.003 18,27.386 18,34.003 C18,40.62 23.383,46.003 30,46.003 C36.617,46.003 42,40.62 42,34.003 C42,27.386 36.617,22.003 30,22.003" id="Fill-104"></path>
            <path d="M49.8135,10.1778 C49.5985,10.6858 49.0115,10.9248 48.5025,10.7088 C47.3945,10.2398 46.2165,10.0028 45.0005,10.0028 C43.0435,10.0028 41.1815,10.6198 39.6185,11.7878 C39.4385,11.9228 39.2285,11.9878 39.0205,11.9878 C38.7155,11.9878 38.4155,11.8488 38.2185,11.5858 C37.8875,11.1438 37.9785,10.5168 38.4205,10.1868 C40.3335,8.7578 42.6075,8.0028 45.0005,8.0028 C46.4855,8.0028 47.9255,8.2938 49.2825,8.8668 C49.7915,9.0818 50.0285,9.6688 49.8135,10.1778 M30.0005,48.0028 C22.2805,48.0028 16.0005,41.7228 16.0005,34.0028 C16.0005,26.2828 22.2805,20.0028 30.0005,20.0028 C37.7195,20.0028 44.0005,26.2828 44.0005,34.0028 C44.0005,41.7228 37.7195,48.0028 30.0005,48.0028 M10.8695,29.3048 C10.7355,29.7318 10.3405,30.0048 9.9155,30.0048 C9.8165,30.0048 9.7145,29.9898 9.6155,29.9588 C9.0885,29.7928 8.7955,29.2328 8.9605,28.7048 C11.0175,22.1568 16.1535,17.0208 22.6995,14.9648 C23.2295,14.7998 23.7885,15.0928 23.9535,15.6188 C24.1185,16.1468 23.8255,16.7078 23.2985,16.8728 C17.3765,18.7328 12.7295,23.3798 10.8695,29.3048 M9.6065,40.0128 C9.5395,40.0268 9.4715,40.0328 9.4055,40.0328 C8.9405,40.0328 8.5235,39.7068 8.4265,39.2338 C8.1435,37.8518 8.0005,36.4288 8.0005,35.0028 C8.0005,34.4498 8.4475,34.0028 9.0005,34.0028 C9.5525,34.0028 10.0005,34.4498 10.0005,35.0028 C10.0005,36.2938 10.1295,37.5818 10.3855,38.8328 C10.4975,39.3738 10.1475,39.9028 9.6065,40.0128 M45.0005,3.9588 C41.6055,3.9588 38.4005,5.0638 35.7335,7.1528 C35.7295,7.1548 35.7245,7.1588 35.7195,7.1628 C35.7015,7.1788 33.7835,8.7278 32.3695,9.4478 C31.3335,9.9768 29.6365,10.0008 29.0005,9.9588 C15.1915,9.9588 3.9565,21.1948 3.9565,35.0028 C3.9565,48.8118 15.1915,60.0468 29.0005,60.0468 C42.8085,60.0468 54.0435,48.8118 54.0435,34.9848 C54.0435,34.9648 54.0295,33.0138 54.7265,31.4568 C55.4745,29.7888 56.4385,28.7688 56.4925,28.7098 C58.7825,26.0018 60.0435,22.5548 60.0435,19.0028 C60.0435,10.7078 53.2945,3.9588 45.0005,3.9588" id="Fill-105"></path>
        </g>
    </g>
</svg>