<?xml version="1.0" encoding="UTF-8" standalone="no"?>
<svg width="64px" height="64px" viewBox="0 0 64 64" version="1.1" xmlns="http://www.w3.org/2000/svg" xmlns:xlink="http://www.w3.org/1999/xlink">
    <!-- Generator: Sketch 3.7.2 (28276) - http://www.bohemiancoding.com/sketch -->
    <title>foo-doughnut-2</title>
    <desc>Created with Sketch.</desc>
    <defs></defs>
    <g id="64px-Glyph" stroke="none" stroke-width="1" fill="none" fill-rule="evenodd">
        <g id="foo-doughnut-2" fill="#000000">
            <path d="M32,34.003 C24.049,34.003 16,31.942 16,28.003 C16,27.45 16.448,27.003 17,27.003 C17.552,27.003 18,27.45 18,28.003 C18,28.734 19.103,29.612 21.083,30.36 C22.996,27.726 27.23,26.003 32,26.003 C36.769,26.003 41.005,27.726 42.918,30.36 C44.897,29.612 46,28.734 46,28.003 C46,27.45 46.448,27.003 47,27.003 C47.552,27.003 48,27.45 48,28.003 C48,31.942 39.951,34.003 32,34.003 M32,10.003 C13.944,10.003 4,17.461 4,31.003 C4,44.741 13.682,52.003 32,52.003 C50.318,52.003 60,44.741 60,31.003 C60,17.461 50.056,10.003 32,10.003" id="Fill-131"></path>
        </g>
    </g>
</svg>