<?xml version="1.0" encoding="UTF-8" standalone="no"?>
<svg width="64px" height="64px" viewBox="0 0 64 64" version="1.1" xmlns="http://www.w3.org/2000/svg" xmlns:xlink="http://www.w3.org/1999/xlink">
    <!-- Generator: Sketch 3.7.2 (28276) - http://www.bohemiancoding.com/sketch -->
    <title>foo-fish</title>
    <desc>Created with Sketch.</desc>
    <defs></defs>
    <g id="64px-Glyph" stroke="none" stroke-width="1" fill="none" fill-rule="evenodd">
        <g id="foo-fish" fill="#000000">
            <path d="M49.9648,8.046 C51.0668,8.046 51.9628,8.943 51.9628,10.045 C51.9628,11.147 51.0668,12.043 49.9648,12.043 C48.8628,12.043 47.9668,11.147 47.9668,10.045 C47.9668,8.943 48.8628,8.046 49.9648,8.046 L49.9648,8.046 Z M54.3488,27.004 C60.7818,19.6 59.9938,5.599 59.9548,4.986 C59.9238,4.484 59.5248,4.084 59.0228,4.052 C58.4118,4.012 44.4318,3.195 37.0008,9.657 L54.3488,27.004 Z" id="Fill-181"></path>
            <path d="M35.5712,11.0538 C26.2792,20.7148 21.8722,32.7688 20.5022,37.1228 L26.8852,43.5048 C31.2352,42.1488 43.2392,37.7808 52.9522,28.4338 L35.5712,11.0538 Z" id="Fill-182"></path>
            <path d="M19.0336,38.4781 L4.7576,42.0471 C4.3656,42.1461 4.0716,42.4701 4.0116,42.8691 C3.9516,43.2701 4.1396,43.6651 4.4866,43.8731 L14.2636,49.7401 L20.1306,59.5171 C20.3126,59.8211 20.6396,60.0021 20.9876,60.0021 C21.0366,60.0021 21.0846,59.9991 21.1346,59.9911 C21.5346,59.9321 21.8586,59.6381 21.9566,59.2451 L25.5256,44.9701 L19.0336,38.4781 Z" id="Fill-183"></path>
            <path d="M30.0881,21.3214 C30.0811,21.3324 30.0741,21.3444 30.0661,21.3554 C30.0741,21.3444 30.0801,21.3324 30.0881,21.3214" id="Fill-184"></path>
            <path d="M25.8699,20.5543 C27.9459,17.1163 30.5019,13.5603 33.5919,10.2493 C30.1719,10.6063 25.0229,11.5913 22.2799,14.3343 C21.3449,15.2683 21.3289,16.1973 21.4809,16.8113 C21.8729,18.3933 23.9039,19.6673 25.8699,20.5543" id="Fill-185"></path>
            <path d="M43.4573,38.1451 C44.3433,40.1071 45.6153,42.1321 47.1943,42.5231 C47.3663,42.5651 47.5623,42.5951 47.7763,42.5951 C48.3283,42.5951 48.9983,42.3991 49.6733,41.7251 C52.4143,38.9821 53.3993,33.8341 53.7563,30.4131 C50.4373,33.5121 46.8863,36.0701 43.4573,38.1451" id="Fill-186"></path>
        </g>
    </g>
</svg>