<?xml version="1.0" encoding="UTF-8" standalone="no"?>
<svg width="64px" height="64px" viewBox="0 0 64 64" version="1.1" xmlns="http://www.w3.org/2000/svg" xmlns:xlink="http://www.w3.org/1999/xlink">
    <!-- Generator: Sketch 3.7.2 (28276) - http://www.bohemiancoding.com/sketch -->
    <title>foo-roast-chicken</title>
    <desc>Created with Sketch.</desc>
    <defs></defs>
    <g id="64px-Line" stroke="none" stroke-width="1" fill="none" fill-rule="evenodd">
        <g id="foo-roast-chicken"></g>
        <path d="M36,16 C36,16.912 34.847,17.896 34.445,18.168 C33.985,18.475 33.861,19.095 34.168,19.555 C34.36,19.844 34.678,20 35.001,20 C35.191,20 35.385,19.946 35.555,19.832 C35.805,19.665 38,18.139 38,16 C38,14.197 37.353,13.226 36.832,12.445 C36.367,11.748 36,11.197 36,10 C36,9.089 37.151,8.105 37.557,7.831 C38.015,7.524 38.138,6.904 37.832,6.445 C37.525,5.986 36.902,5.86 36.445,6.168 C36.195,6.335 34,7.861 34,10 C34,11.803 34.647,12.774 35.168,13.555 C35.633,14.252 36,14.803 36,16 L36,16 Z" id="Shape" fill="#000000"></path>
        <path d="M28,16 C28,16.912 26.847,17.896 26.445,18.168 C25.985,18.475 25.861,19.095 26.168,19.555 C26.36,19.844 26.678,20 27.001,20 C27.191,20 27.385,19.946 27.555,19.832 C27.805,19.665 30,18.139 30,16 C30,14.197 29.353,13.226 28.832,12.445 C28.367,11.748 28,11.197 28,10 C28,9.089 29.151,8.105 29.557,7.831 C30.015,7.524 30.138,6.904 29.832,6.445 C29.525,5.986 28.903,5.86 28.445,6.168 C28.195,6.335 26,7.861 26,10 C26,11.803 26.647,12.774 27.168,13.555 C27.633,14.252 28,14.803 28,16 L28,16 Z" id="Shape" fill="#000000"></path>
        <path d="M20,16 C20,16.912 18.847,17.896 18.445,18.168 C17.985,18.475 17.861,19.095 18.168,19.555 C18.36,19.844 18.678,20 19.001,20 C19.191,20 19.385,19.946 19.555,19.832 C19.805,19.665 22,18.139 22,16 C22,14.197 21.353,13.226 20.832,12.445 C20.367,11.748 20,11.197 20,10 C20,9.089 21.151,8.105 21.557,7.831 C22.015,7.524 22.138,6.904 21.832,6.445 C21.526,5.986 20.903,5.86 20.445,6.168 C20.195,6.335 18,7.861 18,10 C18,11.803 18.647,12.774 19.168,13.555 C19.633,14.252 20,14.803 20,16 L20,16 Z" id="Shape" fill="#000000"></path>
        <path d="M10.2,59.6 C10.388,59.852 10.685,60 11,60 L51,60 C51.314,60 51.611,59.852 51.8,59.6 L57.8,51.6 C58.028,51.297 58.064,50.892 57.895,50.553 C57.725,50.214 57.379,50 57,50 L52.131,50 C53.023,48.741 54,46.925 54,45 C54,41.28 51.233,36.638 46.577,32.484 C47.153,30.546 47.381,28.659 47.157,27.073 L53.721,20.508 C54.835,21.039 56.206,20.841 57.124,19.923 C58.29,18.756 58.29,16.859 57.124,15.692 C56.584,15.152 55.887,14.863 55.179,14.823 C55.138,14.087 54.832,13.401 54.307,12.876 C53.178,11.746 51.205,11.747 50.077,12.876 C49.512,13.441 49.2,14.193 49.2,14.992 C49.2,15.445 49.301,15.883 49.49,16.28 L42.927,22.842 C40.257,22.464 36.722,23.379 33.575,25.043 C31.3,24.359 29.089,24 27,24 C21.313,24 15.909,25.974 11.782,29.557 C8.216,32.654 6,36.655 6,40 C6,44.81 7.997,48.131 9.565,50 L5,50 C4.621,50 4.275,50.214 4.105,50.553 C3.936,50.892 3.972,51.297 4.2,51.6 L10.2,59.6 L10.2,59.6 Z M51.49,17.107 C51.678,16.919 51.783,16.665 51.783,16.4 C51.783,16.134 51.678,15.88 51.49,15.692 C51.302,15.505 51.199,15.256 51.199,14.991 C51.199,14.726 51.303,14.477 51.49,14.289 C51.865,13.914 52.517,13.914 52.892,14.289 C53.08,14.476 53.183,14.725 53.183,14.99 C53.183,15.255 53.079,15.504 52.892,15.691 C52.697,15.886 52.599,16.142 52.599,16.398 C52.599,16.654 52.697,16.91 52.892,17.106 C53.283,17.497 53.915,17.496 54.306,17.106 C54.692,16.719 55.322,16.718 55.709,17.106 C56.095,17.493 56.095,18.122 55.709,18.508 C55.323,18.894 54.693,18.895 54.306,18.508 C53.931,18.133 53.267,18.133 52.892,18.508 L46.459,24.941 C46.286,24.649 46.091,24.377 45.856,24.141 C45.621,23.906 45.348,23.711 45.057,23.537 L51.49,17.107 L51.49,17.107 Z M41.758,24.738 C42.928,24.738 43.879,24.994 44.443,25.557 C46.607,27.721 44.237,35.616 40.217,39.636 C38.481,41.372 36.661,42.161 34.807,41.973 C32.873,41.78 31.324,40.595 30.365,39.636 C28.884,38.155 25.919,34.229 30.365,29.782 C33.338,26.809 38.432,24.738 41.758,24.738 L41.758,24.738 Z M8,40 C8,34.426 15.578,26 27,26 C28.346,26 29.757,26.175 31.208,26.494 C30.386,27.076 29.618,27.701 28.95,28.369 C24.275,33.044 25.885,37.985 28.95,41.051 C30.139,42.24 32.086,43.712 34.607,43.964 C34.858,43.989 35.108,44.002 35.356,44.002 C37.563,44.002 39.67,43.012 41.63,41.051 C43.36,39.321 44.846,36.97 45.855,34.536 C49.672,38.117 52,42.043 52,45 C52,47.116 50.253,49.248 49.571,50 L12.356,50 C11.422,49.198 8,45.859 8,40 L8,40 Z M55,52 L50.5,58 L11.5,58 L7,52 L55,52 L55,52 Z" id="Shape" fill="#000000"></path>
        <path d="M21.718,28.887 C15.476,30.928 10,36.122 10,40 C10,40.552 10.447,41 11,41 C11.553,41 12,40.552 12,40 C12,37.359 16.612,32.661 22.339,30.788 C22.864,30.616 23.151,30.051 22.979,29.526 C22.808,29.003 22.242,28.716 21.718,28.887 L21.718,28.887 Z" id="Shape" fill="#000000"></path>
        <path d="M31.767,38.233 C31.962,38.428 32.218,38.526 32.474,38.526 C32.73,38.526 32.986,38.428 33.181,38.233 C33.572,37.843 33.572,37.21 33.181,36.819 C32.394,36.031 31.346,34.435 33.181,32.599 C33.572,32.208 33.572,31.575 33.181,31.185 C32.79,30.794 32.158,30.794 31.767,31.185 C29.166,33.787 30.142,36.608 31.767,38.233 L31.767,38.233 Z" id="Shape" fill="#000000"></path>
    </g>
</svg>