<?xml version="1.0" encoding="UTF-8" standalone="no"?>
<svg width="44px" height="44px" viewBox="0 0 44 44" version="1.1" xmlns="http://www.w3.org/2000/svg" xmlns:xlink="http://www.w3.org/1999/xlink">
    <!-- Generator: Sketch 3.7.2 (28276) - http://www.bohemiancoding.com/sketch -->
    <title>foo-pie</title>
    <desc>Created with Sketch.</desc>
    <defs></defs>
    <g id="44px-Line" stroke="none" stroke-width="1" fill="none" fill-rule="evenodd">
        <g id="foo-pie"></g>
        <path d="M2.316,31.834 L6.251,39.046 C6.902,40.409 8.336,42 10.23,42 L31.769,42 C33.623,42 35.139,40.452 35.723,39.094 L39.684,31.834 C41.022,31.417 42,30.2 42,28.749 C42,27.029 40.628,25.63 38.905,25.52 C36.825,19.548 30.212,16 21,16 C11.79,16 5.176,19.547 3.095,25.521 C1.371,25.631 0,27.029 0,28.75 C0,30.2 0.978,31.417 2.316,31.834 L2.316,31.834 Z M33.929,38.217 C33.495,39.217 32.547,40 31.77,40 L10.23,40 C9.473,40 8.558,39.236 8.031,38.136 L4.685,32 L37.317,32 L33.929,38.217 L33.929,38.217 Z M21,18 C29.065,18 34.888,20.868 36.862,25.73 C36.231,25.914 35.814,26.177 35.455,26.411 C34.949,26.74 34.55,26.999 33.308,26.999 C32,26.999 31.383,26.698 30.669,26.35 C29.851,25.951 28.923,25.499 27.153,25.499 C25.384,25.499 24.457,25.951 23.638,26.35 C22.925,26.699 22.308,27 21,27 C19.692,27 19.075,26.699 18.361,26.351 C17.543,25.952 16.615,25.5 14.845,25.5 C13.076,25.5 12.149,25.952 11.33,26.351 C10.617,26.699 10,27 8.692,27 C7.008,27 6.657,26.723 6.251,26.402 C5.929,26.148 5.597,25.918 5.128,25.753 C7.093,20.876 12.923,18 21,18 L21,18 Z M3.308,27.5 C4.413,27.5 4.652,27.688 5.013,27.973 C5.725,28.535 6.494,29 8.693,29 C10.463,29 11.39,28.548 12.209,28.149 C12.923,27.801 13.539,27.5 14.847,27.5 C16.155,27.5 16.772,27.801 17.486,28.149 C18.303,28.547 19.23,29 21,29 C22.77,29 23.697,28.548 24.516,28.149 C25.23,27.801 25.846,27.5 27.154,27.5 C28.462,27.5 29.079,27.801 29.793,28.149 C30.611,28.548 31.539,29 33.309,29 C35.144,29 35.921,28.495 36.546,28.088 C37.052,27.759 37.451,27.5 38.693,27.5 C39.414,27.5 40.001,28.061 40.001,28.75 C40.001,29.439 39.414,30 38.693,30 L3.308,30 C2.587,30 2,29.439 2,28.75 C2,28.061 2.587,27.5 3.308,27.5 L3.308,27.5 Z" id="Shape" fill="#000000"></path>
        <path d="M21,24 C21.553,24 22,23.552 22,23 L22,21 C22,20.448 21.553,20 21,20 C20.447,20 20,20.448 20,21 L20,23 C20,23.552 20.447,24 21,24 L21,24 Z" id="Shape" fill="#000000"></path>
        <path d="M13,24 C13.256,24 13.512,23.902 13.707,23.707 L15.707,21.707 C16.098,21.316 16.098,20.684 15.707,20.293 C15.316,19.902 14.684,19.902 14.293,20.293 L12.293,22.293 C11.902,22.684 11.902,23.316 12.293,23.707 C12.488,23.902 12.744,24 13,24 L13,24 Z" id="Shape" fill="#000000"></path>
        <path d="M28.293,23.707 C28.488,23.902 28.744,24 29,24 C29.256,24 29.512,23.902 29.707,23.707 C30.098,23.316 30.098,22.684 29.707,22.293 L27.707,20.293 C27.316,19.902 26.684,19.902 26.293,20.293 C25.902,20.684 25.902,21.316 26.293,21.707 L28.293,23.707 L28.293,23.707 Z" id="Shape" fill="#000000"></path>
        <path d="M18,3.5 C18,1.579 15.743,0.269 15.486,0.126 C15.001,-0.144 14.396,0.032 14.129,0.512 C13.859,0.993 14.031,1.602 14.512,1.872 C15.136,2.224 16,2.984 16,3.499 C16,4.398 15.689,4.787 15.219,5.374 C14.676,6.053 14,6.898 14,8.499 C14,10.42 16.257,11.73 16.514,11.873 C16.668,11.958 16.834,11.999 16.998,11.999 C17.349,11.999 17.688,11.814 17.871,11.487 C18.141,11.006 17.969,10.397 17.488,10.127 C16.864,9.775 16,9.015 16,8.5 C16,7.601 16.311,7.212 16.781,6.625 C17.324,5.946 18,5.101 18,3.5 L18,3.5 Z" id="Shape" fill="#000000"></path>
        <path d="M24,3.5 C24,1.579 21.743,0.269 21.486,0.126 C21.002,-0.144 20.396,0.032 20.129,0.512 C19.859,0.993 20.031,1.602 20.512,1.872 C21.136,2.224 22,2.984 22,3.499 C22,4.398 21.689,4.787 21.219,5.374 C20.676,6.053 20,6.898 20,8.499 C20,10.42 22.257,11.73 22.514,11.873 C22.668,11.958 22.834,11.999 22.998,11.999 C23.349,11.999 23.688,11.814 23.871,11.487 C24.141,11.006 23.969,10.397 23.488,10.127 C22.864,9.775 22,9.015 22,8.5 C22,7.601 22.311,7.212 22.781,6.625 C23.324,5.946 24,5.101 24,3.5 L24,3.5 Z" id="Shape" fill="#000000"></path>
        <path d="M30,3.5 C30,1.579 27.743,0.269 27.486,0.126 C27.002,-0.144 26.396,0.032 26.129,0.512 C25.859,0.993 26.031,1.602 26.512,1.872 C27.136,2.224 28,2.984 28,3.499 C28,4.398 27.689,4.787 27.219,5.374 C26.676,6.053 26,6.898 26,8.499 C26,10.42 28.257,11.73 28.514,11.873 C28.668,11.958 28.834,11.999 28.998,11.999 C29.349,11.999 29.688,11.814 29.871,11.487 C30.141,11.006 29.969,10.397 29.488,10.127 C28.864,9.775 28,9.015 28,8.5 C28,7.601 28.311,7.212 28.781,6.625 C29.324,5.946 30,5.101 30,3.5 L30,3.5 Z" id="Shape" fill="#000000"></path>
    </g>
</svg>