<?xml version="1.0" encoding="UTF-8" standalone="no"?>
<svg width="44px" height="44px" viewBox="0 0 44 44" version="1.1" xmlns="http://www.w3.org/2000/svg" xmlns:xlink="http://www.w3.org/1999/xlink">
    <!-- Generator: Sketch 3.7.2 (28276) - http://www.bohemiancoding.com/sketch -->
    <title>foo-runny-egg</title>
    <desc>Created with Sketch.</desc>
    <defs></defs>
    <g id="44px-Line" stroke="none" stroke-width="1" fill="none" fill-rule="evenodd">
        <g id="foo-runny-egg"></g>
        <path d="M26.253,29.646 C32.265,28.324 36,23.268 36,16 L36,15 C36,14.448 35.552,14 35,14 L34.466,14 C34.297,8.864 32.859,3.853 30.518,0.435 C30.358,0.202 30.107,0.047 29.828,0.009 C29.547,-0.032 29.265,0.052 29.049,0.235 L26.342,2.516 L25.402,0.566 C25.181,0.108 24.654,-0.11 24.174,0.055 L20.037,1.485 L18.89,0.998 C18.889,0.998 18.889,0.998 18.888,0.997 L16.726,0.079 C16.29,-0.107 15.782,0.041 15.513,0.432 C13.153,3.85 11.704,8.863 11.534,14 L11,14 C10.448,14 10,14.448 10,15 L10,16 C10,23.268 13.735,28.325 19.747,29.646 C20.002,30.707 20.001,32.572 20,33.753 L20,34 C20,38.132 18.328,42 17.568,42 L13,42 C12.448,42 12,42.448 12,43 C12,43.552 12.448,44 13,44 L33,44 C33.552,44 34,43.552 34,43 C34,42.448 33.552,42 33,42 L28.432,42 C27.672,42 26,38.132 26,34 L26,33.753 C25.999,32.572 25.999,30.706 26.253,29.646 L26.253,29.646 Z M20.327,3.501 L20.516,3.436 C20.593,5.036 21.201,6.079 21.316,6.258 C21.961,7.138 22.322,8.418 21.402,9.372 C21.026,9.762 20.528,9.977 20.001,9.977 L20.001,9.977 C19.474,9.977 18.977,9.762 18.6,9.371 C17.693,8.43 18.053,7.141 18.718,6.213 C18.793,6.097 19.413,5.081 19.487,3.423 L19.611,3.475 C19.837,3.573 20.094,3.583 20.327,3.501 L20.327,3.501 Z M16.717,2.248 L17.5,2.581 L17.5,3.112 C17.5,4.335 17.062,5.086 17.065,5.086 L17.065,5.086 C15.693,7 15.731,9.28 17.158,10.761 C17.914,11.546 18.923,11.979 19.999,11.979 L19.999,11.979 C21.074,11.979 22.083,11.546 22.84,10.762 C24.286,9.262 24.321,6.977 22.97,5.14 C22.965,5.133 22.499,4.328 22.499,3.113 L22.499,2.751 L23.985,2.237 L25.098,4.547 C25.232,4.825 25.488,5.026 25.79,5.091 C26.09,5.153 26.407,5.077 26.644,4.878 L29.46,2.505 C31.237,5.555 32.321,9.716 32.47,14.002 L13.531,14.002 C13.685,9.594 14.835,5.319 16.717,2.248 L16.717,2.248 Z M12,16 L34,16 C34,23.402 29.785,28 23,28 C16.215,28 12,23.402 12,16 L12,16 Z M20.173,42 C21.426,39.774 22,36.202 22,34 L22,33.755 C22.001,32.326 21.983,31.017 21.833,29.949 C22.217,29.976 22.602,30 23,30 C23.398,30 23.784,29.976 24.167,29.948 C24.017,31.017 23.999,32.325 24,33.754 L24,34 C24,36.202 24.573,39.774 25.827,42 L20.173,42 L20.173,42 Z" id="Shape" fill="#000000"></path>
        <path d="M24,25 C24,24.448 23.552,24 23,24 C19.803,24 17.016,21.841 16.22,18.75 C16.083,18.215 15.541,17.893 15.003,18.031 C14.468,18.168 14.146,18.714 14.284,19.248 C15.306,23.224 18.891,26 23,26 C23.552,26 24,25.552 24,25 L24,25 Z" id="Shape" fill="#000000"></path>
    </g>
</svg>