<?xml version="1.0" encoding="UTF-8" standalone="no"?>
<svg width="64px" height="64px" viewBox="0 0 64 64" version="1.1" xmlns="http://www.w3.org/2000/svg" xmlns:xlink="http://www.w3.org/1999/xlink">
    <!-- Generator: Sketch 3.7.2 (28276) - http://www.bohemiancoding.com/sketch -->
    <title>foo-chupa</title>
    <desc>Created with Sketch.</desc>
    <defs></defs>
    <g id="64px-Glyph" stroke="none" stroke-width="1" fill="none" fill-rule="evenodd">
        <g id="foo-chupa" fill="#000000">
            <path d="M58.5151,25.4473 C61.1831,19.8313 60.1411,12.9303 55.6071,8.3963 C51.0721,3.8623 44.1721,2.8203 38.5571,5.4883 L58.5151,25.4473 Z" id="Fill-43"></path>
            <path d="M31.4844,12.5587 C28.9584,17.8777 29.7694,24.3477 33.7194,28.8707 L4.2934,58.2957 C3.9024,58.6867 3.9024,59.3197 4.2934,59.7097 C4.4884,59.9057 4.7444,60.0027 5.0004,60.0027 C5.2554,60.0027 5.5114,59.9057 5.7074,59.7097 L35.1364,30.2817 C37.9324,32.7227 41.4674,33.9847 45.0244,33.9847 C47.2224,33.9847 49.4224,33.4967 51.4554,32.5287 L31.4844,12.5587 Z" id="Fill-45"></path>
            <path d="M54.8999,31.3175 L54.8999,30.3175 L54.9009,30.3175 L54.8999,31.3175 Z M36.5149,6.2745 C35.9479,5.7095 35.0659,5.5675 34.3419,5.8505 C34.0999,5.9445 33.8759,6.0875 33.6869,6.2755 L32.2719,7.6905 C31.4929,8.4705 31.4929,9.7395 32.2729,10.5185 L53.4859,31.7315 C53.8639,32.1095 54.3659,32.3175 54.8999,32.3175 C55.4339,32.3175 55.9359,32.1095 56.3149,31.7315 L57.7289,30.3175 C58.5079,29.5385 58.5079,28.2685 57.7289,27.4895 L36.5149,6.2745 Z" id="Fill-47"></path>
        </g>
    </g>
</svg>