<?xml version="1.0" encoding="UTF-8" standalone="no"?>
<svg width="64px" height="64px" viewBox="0 0 64 64" version="1.1" xmlns="http://www.w3.org/2000/svg" xmlns:xlink="http://www.w3.org/1999/xlink">
    <!-- Generator: Sketch 3.7.2 (28276) - http://www.bohemiancoding.com/sketch -->
    <title>foo-fish-bones</title>
    <desc>Created with Sketch.</desc>
    <defs></defs>
    <g id="64px-Line" stroke="none" stroke-width="1" fill="none" fill-rule="evenodd">
        <g id="foo-fish-bones"></g>
        <path d="M59.022,4.048 C58.387,4.006 43.467,3.134 36.268,10.334 C35.877,10.725 35.877,11.357 36.268,11.748 L43.554,19.034 L40.472,22.116 L33.784,15.429 C33.393,15.038 32.761,15.038 32.37,15.429 C31.979,15.82 31.979,16.452 32.37,16.843 L39.058,23.53 L35.976,26.612 L30.41,21.046 C30.019,20.655 29.387,20.655 28.996,21.046 C28.605,21.437 28.605,22.069 28.996,22.46 L34.562,28.026 L31.48,31.108 L27.263,26.891 C26.872,26.5 26.24,26.5 25.849,26.891 C25.458,27.282 25.458,27.914 25.849,28.305 L30.066,32.522 L26.984,35.604 L24.261,32.881 C23.87,32.49 23.238,32.49 22.847,32.881 C22.456,33.272 22.456,33.904 22.847,34.295 L25.57,37.018 L22.987,39.601 L21.696,38.31 C21.667,38.281 21.63,38.27 21.598,38.245 C21.544,38.202 21.49,38.163 21.428,38.132 C21.37,38.103 21.312,38.085 21.251,38.068 C21.189,38.051 21.13,38.037 21.065,38.032 C20.996,38.027 20.931,38.033 20.863,38.041 C20.823,38.046 20.785,38.036 20.745,38.046 L4.758,42.043 C4.366,42.141 4.071,42.466 4.011,42.866 C3.951,43.266 4.139,43.662 4.486,43.87 L14.264,49.736 L20.131,59.513 C20.314,59.817 20.641,59.998 20.988,59.998 C21.037,59.998 21.086,59.995 21.135,59.987 C21.535,59.927 21.86,59.633 21.958,59.24 L25.955,43.254 C25.965,43.214 25.955,43.176 25.96,43.137 C25.969,43.068 25.975,43.002 25.969,42.933 C25.964,42.869 25.95,42.809 25.933,42.748 C25.916,42.687 25.897,42.629 25.869,42.571 C25.838,42.509 25.799,42.455 25.756,42.4 C25.732,42.369 25.72,42.332 25.692,42.303 L24.4,41.012 L26.983,38.429 L29.582,41.028 C29.777,41.223 30.033,41.321 30.289,41.321 C30.545,41.321 30.801,41.223 30.996,41.028 C31.387,40.637 31.387,40.005 30.996,39.614 L28.397,37.015 L31.479,33.933 L35.645,38.099 C35.84,38.294 36.096,38.392 36.352,38.392 C36.608,38.392 36.864,38.294 37.059,38.099 C37.45,37.708 37.45,37.076 37.059,36.685 L32.893,32.519 L35.975,29.437 L41.51,34.972 C41.705,35.167 41.961,35.265 42.217,35.265 C42.473,35.265 42.729,35.167 42.924,34.972 C43.315,34.581 43.315,33.949 42.924,33.558 L37.389,28.023 L40.471,24.941 L47.139,31.608 C47.334,31.803 47.59,31.901 47.846,31.901 C48.102,31.901 48.358,31.803 48.553,31.608 C48.944,31.217 48.944,30.585 48.553,30.194 L41.885,23.527 L44.968,20.445 L52.255,27.732 C52.45,27.927 52.706,28.025 52.962,28.025 C53.218,28.025 53.474,27.927 53.669,27.732 C60.838,20.564 59.995,5.614 59.955,4.982 C59.924,4.481 59.524,4.081 59.022,4.048 L59.022,4.048 Z M20.603,56.416 L15.85,48.494 C15.766,48.353 15.648,48.236 15.507,48.151 L7.585,43.399 L20.681,40.125 L23.877,43.321 L20.603,56.416 L20.603,56.416 Z M52.92,25.571 L45.677,18.328 C45.677,18.328 45.677,18.328 45.677,18.327 C45.677,18.326 45.677,18.327 45.676,18.327 L38.433,11.084 C44.247,6.14 54.837,5.945 57.991,6.013 C58.05,9.165 57.847,19.77 52.92,25.571 L52.92,25.571 Z" id="Shape" fill="#000000"></path>
        <circle id="Oval" fill="#000000" cx="49.965" cy="10.042" r="1.999"></circle>
    </g>
</svg>