<?xml version="1.0" encoding="UTF-8" standalone="no"?>
<svg width="64px" height="64px" viewBox="0 0 64 64" version="1.1" xmlns="http://www.w3.org/2000/svg" xmlns:xlink="http://www.w3.org/1999/xlink">
    <!-- Generator: Sketch 3.7.2 (28276) - http://www.bohemiancoding.com/sketch -->
    <title>foo-cupcake</title>
    <desc>Created with Sketch.</desc>
    <defs></defs>
    <g id="64px-Glyph" stroke="none" stroke-width="1" fill="none" fill-rule="evenodd">
        <g id="foo-cupcake" fill="#000000">
            <path d="M41.9902,55.1446 C41.9192,55.6436 41.4912,56.0026 41.0012,56.0026 C40.9542,56.0026 40.9062,55.9996 40.8582,55.9936 C40.3112,55.9156 39.9312,55.4086 40.0102,54.8616 L42.0102,40.8616 C42.0882,40.3156 42.5962,39.9326 43.1412,40.0126 C43.6882,40.0906 44.0682,40.5976 43.9902,41.1446 L41.9902,55.1446 Z M35.9972,55.0746 C35.9602,55.6006 35.5202,56.0026 35.0012,56.0026 C34.9772,56.0026 34.9532,56.0016 34.9282,55.9996 C34.3782,55.9606 33.9632,55.4826 34.0032,54.9316 L35.0032,40.9316 C35.0422,40.3816 35.5102,39.9536 36.0712,40.0056 C36.6222,40.0446 37.0372,40.5236 36.9972,41.0746 L35.9972,55.0746 Z M29.0712,55.9996 C29.0472,56.0016 29.0222,56.0026 28.9992,56.0026 C28.4792,56.0026 28.0402,55.6006 28.0032,55.0746 L27.0032,41.0746 C26.9632,40.5236 27.3782,40.0446 27.9282,40.0056 C28.4932,39.9486 28.9582,40.3816 28.9972,40.9316 L29.9972,54.9316 C30.0372,55.4826 29.6222,55.9606 29.0712,55.9996 L29.0712,55.9996 Z M23.1412,55.9936 C23.0942,55.9996 23.0462,56.0026 22.9992,56.0026 C22.5092,56.0026 22.0812,55.6436 22.0102,55.1446 L20.0102,41.1446 C19.9312,40.5976 20.3112,40.0906 20.8582,40.0126 C21.4042,39.9346 21.9122,40.3146 21.9902,40.8616 L23.9902,54.8616 C24.0682,55.4086 23.6882,55.9156 23.1412,55.9936 L23.1412,55.9936 Z M49.0002,38.0026 L15.0002,38.0026 C14.1182,38.0026 13.3022,37.9156 12.5392,37.7636 L16.0172,56.1886 C16.4212,58.3276 18.3892,60.0026 20.5002,60.0026 L43.5312,60.0026 C45.5832,60.0026 47.4512,58.4176 47.9822,56.1886 L51.4592,37.7526 C50.6952,37.9116 49.8792,38.0026 49.0002,38.0026 L49.0002,38.0026 Z" id="Fill-143"></path>
            <path d="M41.8135,29.5821 C41.6185,29.8561 41.3105,30.0031 40.9985,30.0031 C40.7985,30.0031 40.5975,29.9431 40.4225,29.8191 C40.2755,29.7161 36.7905,27.2071 34.0935,21.4261 C31.5915,16.0641 33.9905,10.8021 34.0935,10.5801 C34.3285,10.0811 34.9225,9.8641 35.4225,10.0971 C35.9225,10.3301 36.1395,10.9241 35.9075,11.4241 C35.8855,11.4701 33.8075,16.0821 35.9065,20.5801 C38.3635,25.8461 41.5475,28.1651 41.5805,28.1881 C42.0285,28.5091 42.1325,29.1331 41.8135,29.5821 M31.5265,11.8531 C31.4305,11.9121 21.9995,17.8911 21.9995,29.0031 C21.9995,29.5561 21.5525,30.0031 20.9995,30.0031 C20.4475,30.0031 19.9995,29.5561 19.9995,29.0031 C19.9995,16.7521 30.0475,10.4151 30.4755,10.1511 C30.9435,9.8621 31.5595,10.0071 31.8495,10.4781 C32.1405,10.9461 31.9955,11.5621 31.5265,11.8531 M45.2145,16.4201 C43.3385,15.3091 41.5655,14.2591 40.7475,13.3391 C37.9225,10.1611 41.5975,5.8411 41.7545,5.6581 C42.0105,5.3621 42.0715,4.9441 41.9095,4.5881 C41.7465,4.2321 41.3915,4.0031 40.9995,4.0031 C19.0275,4.0031 7.9995,20.0301 7.9995,29.0031 C7.9995,33.6471 10.3555,36.0031 14.9995,36.0031 L48.9995,36.0031 C53.5135,36.0031 55.9995,33.5171 55.9995,29.0031 C55.9995,22.8051 49.7665,19.1141 45.2145,16.4201" id="Fill-144"></path>
        </g>
    </g>
</svg>