<?xml version="1.0" encoding="UTF-8" standalone="no"?>
<svg width="64px" height="64px" viewBox="0 0 64 64" version="1.1" xmlns="http://www.w3.org/2000/svg" xmlns:xlink="http://www.w3.org/1999/xlink">
    <!-- Generator: Sketch 3.7.2 (28276) - http://www.bohemiancoding.com/sketch -->
    <title>foo-sushi</title>
    <desc>Created with Sketch.</desc>
    <defs></defs>
    <g id="64px-Line" stroke="none" stroke-width="1" fill="none" fill-rule="evenodd">
        <g id="foo-sushi"></g>
        <path d="M48.536,6.114 L6.536,28.114 C6.047,28.37 5.858,28.974 6.114,29.464 C6.293,29.805 6.64,30 7.001,30 C7.157,30 7.316,29.964 7.464,29.886 L49.464,7.886 C49.953,7.63 50.142,7.026 49.886,6.536 C49.629,6.048 49.025,5.856 48.536,6.114 L48.536,6.114 Z" id="Shape" fill="#000000"></path>
        <path d="M56.697,16.047 L12.697,30.047 C12.171,30.215 11.88,30.777 12.047,31.303 C12.183,31.729 12.576,32 13,32 C13.101,32 13.203,31.985 13.304,31.953 L57.304,17.953 C57.83,17.785 58.121,17.223 57.954,16.697 C57.785,16.17 57.223,15.878 56.697,16.047 L56.697,16.047 Z" id="Shape" fill="#000000"></path>
        <path d="M16,56 C21.963,56 28,54.282 28,51 L28,43 C28,39.718 21.963,38 16,38 C10.037,38 4,39.718 4,43 L4,51 C4,54.282 10.037,56 16,56 L16,56 Z M16,54 C9.988,54 6,52.194 6,51 L6,45.881 C8.265,47.277 12.143,48 16,48 C19.857,48 23.735,47.277 26,45.881 L26,51 C26,52.194 22.012,54 16,54 L16,54 Z M16,40 C22.012,40 26,41.806 26,43 C26,44.194 22.012,46 16,46 C9.988,46 6,44.194 6,43 C6,41.806 9.988,40 16,40 L16,40 Z" id="Shape" fill="#000000"></path>
        <path d="M13,44 L19,44 C19.552,44 20,43.553 20,43 C20,42.447 19.552,42 19,42 L13,42 C12.448,42 12,42.447 12,43 C12,43.553 12.448,44 13,44 L13,44 Z" id="Shape" fill="#000000"></path>
        <path d="M46,42 C40.037,42 34,43.718 34,47 L34,55 C34,58.282 40.037,60 46,60 C51.963,60 58,58.282 58,55 L58,47 C58,43.718 51.963,42 46,42 L46,42 Z M46,44 C52.012,44 56,45.806 56,47 C56,48.194 52.012,50 46,50 C39.988,50 36,48.194 36,47 C36,45.806 39.988,44 46,44 L46,44 Z M46,58 C39.988,58 36,56.194 36,55 L36,49.881 C38.265,51.277 42.143,52 46,52 C49.857,52 53.735,51.277 56,49.881 L56,55 C56,56.194 52.012,58 46,58 L46,58 Z" id="Shape" fill="#000000"></path>
        <path d="M43,48 L49,48 C49.552,48 50,47.553 50,47 C50,46.447 49.552,46 49,46 L43,46 C42.448,46 42,46.447 42,47 C42,47.553 42.448,48 43,48 L43,48 Z" id="Shape" fill="#000000"></path>
    </g>
</svg>