<?xml version="1.0" encoding="UTF-8" standalone="no"?>
<svg width="44px" height="44px" viewBox="0 0 44 44" version="1.1" xmlns="http://www.w3.org/2000/svg" xmlns:xlink="http://www.w3.org/1999/xlink">
    <!-- Generator: Sketch 3.7.2 (28276) - http://www.bohemiancoding.com/sketch -->
    <title>foo-noodle-box-2</title>
    <desc>Created with Sketch.</desc>
    <defs></defs>
    <g id="44px-Glyph" stroke="none" stroke-width="1" fill="none" fill-rule="evenodd">
        <g id="foo-noodle-box-2" fill="#000000">
            <path d="M41.5998,10.2382 C41.1588,9.9072 40.5318,9.9972 40.2008,10.4382 L35.1998,17.1062 L33.0708,12.5562 C33.0568,12.5252 33.0398,12.4952 33.0228,12.4662 C32.1248,10.9682 30.4818,10.0382 28.7358,10.0382 L15.2648,10.0382 C13.5188,10.0382 11.8748,10.9682 10.9778,12.4662 C10.9598,12.4952 10.9438,12.5252 10.9298,12.5562 L8.8008,17.1062 L3.7998,10.4382 C3.4678,9.9962 2.8418,9.9062 2.4008,10.2382 C1.9578,10.5692 1.8688,11.1962 2.2008,11.6372 L8.0538,19.4422 L12.0138,43.2022 C12.0938,43.6842 12.5108,44.0382 12.9998,44.0382 L30.9998,44.0382 C31.4898,44.0382 31.9068,43.6842 31.9868,43.2022 L35.9468,19.4422 L41.7998,11.6372 C42.1318,11.1962 42.0418,10.5692 41.5998,10.2382" id="Fill-1"></path>
            <path d="M39.0002,2.038 L5.0002,2.038 C4.4472,2.038 4.0002,1.591 4.0002,1.038 C4.0002,0.485 4.4472,0.038 5.0002,0.038 L39.0002,0.038 C39.5532,0.038 40.0002,0.485 40.0002,1.038 C40.0002,1.591 39.5532,2.038 39.0002,2.038" id="Fill-4"></path>
            <path d="M39.0002,6.038 L5.0002,6.038 C4.4472,6.038 4.0002,5.591 4.0002,5.038 C4.0002,4.485 4.4472,4.038 5.0002,4.038 L39.0002,4.038 C39.5532,4.038 40.0002,4.485 40.0002,5.038 C40.0002,5.591 39.5532,6.038 39.0002,6.038" id="Fill-6"></path>
        </g>
    </g>
</svg>