<?xml version="1.0" encoding="UTF-8" standalone="no"?>
<svg width="44px" height="44px" viewBox="0 0 44 44" version="1.1" xmlns="http://www.w3.org/2000/svg" xmlns:xlink="http://www.w3.org/1999/xlink">
    <!-- Generator: Sketch 3.7.2 (28276) - http://www.bohemiancoding.com/sketch -->
    <title>foo-ice-lolly-2</title>
    <desc>Created with Sketch.</desc>
    <defs></defs>
    <g id="44px-Glyph" stroke="none" stroke-width="1" fill="none" fill-rule="evenodd">
        <g id="foo-ice-lolly-2" fill="#000000">
            <path d="M18.0002,34.038 L18.0002,40.038 C18.0002,42.244 19.7942,44.038 22.0002,44.038 C24.2062,44.038 26.0002,42.244 26.0002,40.038 L26.0002,34.038 L18.0002,34.038 Z" id="Fill-180"></path>
            <path d="M29.0002,26.038 C29.5532,26.038 30.0002,26.485 30.0002,27.038 C30.0002,27.591 29.5532,28.038 29.0002,28.038 C27.3462,28.038 26.0002,26.692 26.0002,25.038 L26.0002,7.038 C26.0002,5.384 27.3462,4.038 29.0002,4.038 C29.5532,4.038 30.0002,4.485 30.0002,5.038 C30.0002,5.591 29.5532,6.038 29.0002,6.038 C28.4482,6.038 28.0002,6.486 28.0002,7.038 L28.0002,25.038 C28.0002,25.59 28.4482,26.038 29.0002,26.038 M23.0002,26.038 C23.5532,26.038 24.0002,26.485 24.0002,27.038 C24.0002,27.591 23.5532,28.038 23.0002,28.038 C21.3462,28.038 20.0002,26.692 20.0002,25.038 L20.0002,7.038 C20.0002,5.384 21.3462,4.038 23.0002,4.038 C23.5532,4.038 24.0002,4.485 24.0002,5.038 C24.0002,5.591 23.5532,6.038 23.0002,6.038 C22.4482,6.038 22.0002,6.486 22.0002,7.038 L22.0002,25.038 C22.0002,25.59 22.4482,26.038 23.0002,26.038 M17.0002,26.038 C17.5532,26.038 18.0002,26.485 18.0002,27.038 C18.0002,27.591 17.5532,28.038 17.0002,28.038 C15.3462,28.038 14.0002,26.692 14.0002,25.038 L14.0002,7.038 C14.0002,5.384 15.3462,4.038 17.0002,4.038 C17.5532,4.038 18.0002,4.485 18.0002,5.038 C18.0002,5.591 17.5532,6.038 17.0002,6.038 C16.4482,6.038 16.0002,6.486 16.0002,7.038 L16.0002,25.038 C16.0002,25.59 16.4482,26.038 17.0002,26.038 M30.0002,0.038 L14.0002,0.038 C11.7942,0.038 10.0002,1.832 10.0002,4.038 L10.0002,28.038 C10.0002,30.244 11.7942,32.038 14.0002,32.038 L30.0002,32.038 C32.2062,32.038 34.0002,30.244 34.0002,28.038 L34.0002,4.038 C34.0002,1.832 32.2062,0.038 30.0002,0.038" id="Fill-181"></path>
        </g>
    </g>
</svg>