<?xml version="1.0" encoding="UTF-8" standalone="no"?>
<svg width="64px" height="64px" viewBox="0 0 64 64" version="1.1" xmlns="http://www.w3.org/2000/svg" xmlns:xlink="http://www.w3.org/1999/xlink">
    <!-- Generator: Sketch 3.7.2 (28276) - http://www.bohemiancoding.com/sketch -->
    <title>foo-tin</title>
    <desc>Created with Sketch.</desc>
    <defs></defs>
    <g id="64px-Line" stroke="none" stroke-width="1" fill="none" fill-rule="evenodd">
        <g id="foo-tin"></g>
        <path d="M52,11 C52,6.057 31.857,6 31,6 C30.143,6 10,6.057 10,11 L10,27 C10,31.943 30.143,32 31,32 C31.857,32 52,31.943 52,27 L52,11 L52,11 Z M31,8 C42.665,8 49.37,9.897 49.984,11 C49.722,11.471 48.34,12.086 45.944,12.637 C45.675,11.643 44.235,11.052 41.041,10.595 C38.351,10.212 34.785,10 31,10 C27.215,10 23.649,10.212 20.959,10.596 C17.745,11.055 16.309,11.651 16.053,12.656 C13.589,12.103 12.207,11.492 12,11.058 L12,11.039 C12.477,9.942 19.198,8 31,8 L31,8 Z M33.191,13.976 C32.493,13.992 31.763,14 31,14 C24.891,14 20.854,13.473 18.982,13 C20.854,12.527 24.891,12 31,12 C37.109,12 41.146,12.527 43.018,13 C41.382,13.413 38.093,13.867 33.214,13.976 L33.191,13.976 L33.191,13.976 Z M31,30 C19.164,30 12.435,28.046 12,27 L12,13.362 C14.499,14.633 18.927,15.292 22.888,15.633 C25.097,15.854 27.686,15.979 30.411,15.995 C30.719,15.999 30.93,16 31,16 C31.07,16 31.281,15.999 31.589,15.996 C34.314,15.98 36.903,15.855 39.112,15.634 C43.074,15.293 47.503,14.634 50.001,13.362 L50.007,26.952 C49.565,28.046 42.836,30 31,30 L31,30 Z" id="Shape" fill="#000000"></path>
        <path d="M51.003,29.976 C50.451,29.976 50.007,30.4 50.007,30.953 C49.565,32.046 42.836,34 31,34 C19.164,34 12.435,32.046 12,31 C12,30.447 11.552,30 11,30 C10.448,30 10,30.447 10,31 C10,35.943 30.143,36 31,36 C31.857,36 52,35.943 52,31 C52,30.447 51.556,29.976 51.003,29.976 L51.003,29.976 Z" id="Shape" fill="#000000"></path>
        <path d="M51.003,33.976 C50.451,33.976 50.007,34.4 50.007,34.953 C49.565,36.046 42.836,38 31,38 C19.164,38 12.435,36.046 12,35 C12,34.447 11.552,34 11,34 C10.448,34 10,34.447 10,35 C10,39.943 30.143,40 31,40 C31.857,40 52,39.943 52,35 C52,34.447 51.556,33.976 51.003,33.976 L51.003,33.976 Z" id="Shape" fill="#000000"></path>
        <path d="M50.007,38.952 C49.565,40.046 42.836,42 31,42 C19.164,42 12.435,40.046 12,39 C12,38.447 11.552,38 11,38 C10.448,38 10,38.447 10,39 L10,55 C10,59.943 30.143,60 31,60 C31.857,60 52,59.943 52,55 L52,39 C52,38.447 51.556,37.976 51.003,37.976 C50.45,37.976 50.007,38.399 50.007,38.952 L50.007,38.952 Z M31,58 C19.164,58 12.435,56.046 12,55 L12,41.362 C17.109,43.961 30.309,44 31,44 C31.691,44 44.893,43.961 50.001,41.362 L50.007,54.952 C49.565,56.046 42.836,58 31,58 L31,58 Z" id="Shape" fill="#000000"></path>
    </g>
</svg>