<?xml version="1.0" encoding="UTF-8" standalone="no"?>
<svg width="44px" height="44px" viewBox="0 0 44 44" version="1.1" xmlns="http://www.w3.org/2000/svg" xmlns:xlink="http://www.w3.org/1999/xlink">
    <!-- Generator: Sketch 3.7.2 (28276) - http://www.bohemiancoding.com/sketch -->
    <title>foo-hot-dog</title>
    <desc>Created with Sketch.</desc>
    <defs></defs>
    <g id="44px-Glyph" stroke="none" stroke-width="1" fill="none" fill-rule="evenodd">
        <g id="foo-hot-dog" fill="#000000">
            <path d="M35.6516,13.1786 C34.3286,14.4966 32.1796,14.4966 30.8606,13.1776 C30.3196,12.6366 29.4396,12.6356 28.8986,13.1776 C28.6356,13.4406 28.4916,13.7886 28.4916,14.1586 C28.4916,14.5296 28.6356,14.8776 28.8986,15.1406 C29.5386,15.7816 29.8906,16.6316 29.8906,17.5366 C29.8906,18.4426 29.5386,19.2926 28.8986,19.9316 C28.2586,20.5726 27.4076,20.9256 26.5026,20.9256 L26.5006,20.9256 C25.5956,20.9246 24.7456,20.5716 24.1066,19.9306 C23.5656,19.3916 22.6856,19.3926 22.1446,19.9316 C21.6046,20.4726 21.6046,21.3536 22.1446,21.8946 C23.4656,23.2156 23.4656,25.3646 22.1446,26.6856 C20.8246,28.0056 18.6736,28.0056 17.3536,26.6856 C16.8126,26.1446 15.9316,26.1446 15.3906,26.6856 C14.8496,27.2266 14.8496,28.1076 15.3906,28.6486 C16.7116,29.9696 16.7116,32.1186 15.3906,33.4396 C14.0706,34.7576 11.9216,34.7566 10.6006,33.4406 C10.0766,32.9136 9.1636,32.9146 8.6366,33.4396 C8.3746,33.7006 8.2306,34.0486 8.2306,34.4196 C8.2306,34.7906 8.3746,35.1386 8.6366,35.4016 C9.0276,35.7906 9.0276,36.4246 8.6366,36.8156 C8.4416,37.0106 8.1856,37.1086 7.9296,37.1086 C7.6736,37.1086 7.4186,37.0106 7.2226,36.8156 C6.5836,36.1756 6.2306,35.3256 6.2306,34.4186 C6.2306,33.5136 6.5836,32.6626 7.2236,32.0246 C8.5026,30.7456 10.7376,30.7466 12.0136,32.0256 C12.5546,32.5646 13.4346,32.5656 13.9776,32.0246 C14.5176,31.4846 14.5176,30.6036 13.9766,30.0626 C12.6556,28.7416 12.6556,26.5926 13.9766,25.2716 C15.2976,23.9506 17.4476,23.9506 18.7676,25.2716 C19.3086,25.8126 20.1896,25.8126 20.7306,25.2716 C21.2716,24.7306 21.2716,23.8496 20.7306,23.3086 C19.4116,21.9896 19.4106,19.8396 20.7296,18.5186 C22.0516,17.1986 24.2006,17.1986 25.5206,18.5166 C25.7846,18.7816 26.1316,18.9256 26.5016,18.9256 L26.5026,18.9256 C26.8736,18.9256 27.2216,18.7816 27.4846,18.5176 C27.7476,18.2556 27.8906,17.9076 27.8906,17.5366 C27.8906,17.1656 27.7466,16.8176 27.4846,16.5546 C26.8436,15.9136 26.4916,15.0636 26.4916,14.1586 C26.4916,13.2536 26.8436,12.4036 27.4846,11.7636 C28.8046,10.4416 30.9546,10.4436 32.2746,11.7636 C32.8156,12.3046 33.6956,12.3046 34.2386,11.7636 C34.7786,11.2236 34.7786,10.3426 34.2376,9.8016 C33.8466,9.4106 33.8466,8.7786 34.2376,8.3876 C34.6286,7.9966 35.2606,7.9966 35.6516,8.3876 C36.2916,9.0276 36.6426,9.8776 36.6426,10.7826 C36.6426,11.6886 36.2916,12.5386 35.6516,13.1786 M39.0286,5.0106 C36.4646,2.4476 32.2966,2.4506 29.7346,5.0106 L3.8466,30.8976 C1.2856,33.4606 1.2856,37.6296 3.8466,40.1916 C5.1286,41.4726 6.8106,42.1136 8.4936,42.1136 C10.1756,42.1136 11.8586,41.4726 13.1396,40.1916 L39.0286,14.3026 C40.2696,13.0626 40.9536,11.4116 40.9536,9.6576 C40.9536,7.9026 40.2696,6.2516 39.0286,5.0106" id="Fill-217"></path>
            <path d="M42.3307,12.8678 C41.9047,13.9218 41.2707,14.8898 40.4427,15.7178 L14.5537,41.6058 C14.1497,42.0098 13.7127,42.3678 13.2477,42.6788 C14.5167,43.5778 16.0047,44.0338 17.4977,44.0338 C19.3837,44.0338 21.2707,43.3158 22.7067,41.8798 L41.8417,22.7468 C44.5407,20.0478 44.7027,15.7588 42.3307,12.8678" id="Fill-218"></path>
            <path d="M2.4318,29.4833 L28.3208,3.5963 C29.1618,2.7553 30.1358,2.1273 31.1758,1.7093 C29.8608,0.6273 28.2278,0.0383 26.5028,0.0383 C24.5348,0.0383 22.6848,0.8043 21.2928,2.1963 L2.1578,21.3333 C-0.4142,23.9043 -0.6752,27.9173 1.3608,30.7933 C1.6688,30.3313 2.0248,29.8913 2.4318,29.4833" id="Fill-219"></path>
        </g>
    </g>
</svg>