<?xml version="1.0" encoding="UTF-8" standalone="no"?>
<svg width="64px" height="64px" viewBox="0 0 64 64" version="1.1" xmlns="http://www.w3.org/2000/svg" xmlns:xlink="http://www.w3.org/1999/xlink">
    <!-- Generator: Sketch 3.7.2 (28276) - http://www.bohemiancoding.com/sketch -->
    <title>foo-baked-beans</title>
    <desc>Created with Sketch.</desc>
    <defs></defs>
    <g id="64px-Glyph" stroke="none" stroke-width="1" fill="none" fill-rule="evenodd">
        <g id="foo-baked-beans" fill="#000000">
            <path d="M14.3428,29.9425 C14.2068,30.2045 13.9998,30.9115 13.9998,32.0035 C13.9998,32.5555 13.5528,33.0035 12.9998,33.0035 C12.4468,33.0035 11.9998,32.5555 11.9998,32.0035 C11.9998,30.0695 12.5258,28.0035 13.9998,28.0035 C14.5528,28.0035 14.9998,28.4505 14.9998,29.0035 C14.9998,29.4345 14.7268,29.8025 14.3428,29.9425 M13.9998,26.0035 C11.8318,26.0035 9.9998,28.7515 9.9998,32.0035 C9.9998,35.2545 11.8318,38.0035 13.9998,38.0035 C16.1678,38.0035 17.9998,35.2545 17.9998,32.0035 C17.9998,28.7515 16.1678,26.0035 13.9998,26.0035" id="Fill-57"></path>
            <path d="M43.0098,45.0128 C42.2548,45.7688 41.9058,46.4028 41.8168,46.6788 C41.9858,47.0488 41.9178,47.4998 41.6128,47.8038 C41.4178,47.9978 41.1628,48.0958 40.9068,48.0958 C40.6508,48.0958 40.3948,47.9978 40.1988,47.8018 C39.1658,46.7658 40.2428,44.9508 41.5958,43.5988 C41.9868,43.2078 42.6188,43.2078 43.0098,43.5988 C43.4008,43.9898 43.4008,44.6218 43.0098,45.0128 M44.9618,40.0098 C43.4498,40.0098 41.6518,40.7918 40.2198,42.2228 C37.9568,44.4858 37.3188,47.6708 38.8248,49.1778 C40.3318,50.6848 43.5168,50.0428 45.7808,47.7828 C48.0428,45.5208 48.6818,42.3348 47.1748,40.8278 C46.6208,40.2748 45.8398,40.0098 44.9618,40.0098" id="Fill-59"></path>
            <path d="M18.1992,14.2042 C18.5902,13.8112 19.2222,13.8132 19.6132,14.2022 C19.9182,14.5062 19.9852,14.9572 19.8162,15.3272 C19.9062,15.6032 20.2552,16.2372 21.0102,16.9932 C21.4002,17.3842 21.4002,18.0172 21.0102,18.4072 C20.8142,18.6022 20.5582,18.7002 20.3032,18.7002 C20.0472,18.7002 19.7912,18.6022 19.5952,18.4072 C18.2432,17.0552 17.1662,15.2402 18.1992,14.2042 M25.1752,21.1782 C26.6812,19.6712 26.0432,16.4852 23.7802,14.2222 C22.3492,12.7922 20.5492,12.0102 19.0382,12.0102 C18.1602,12.0102 17.3792,12.2742 16.8252,12.8282 C15.3182,14.3352 15.9572,17.5202 18.2202,19.7832 C20.4812,22.0442 23.6682,22.6832 25.1752,21.1782" id="Fill-61"></path>
            <path d="M35.5957,15.5987 C35.9867,15.2077 36.6187,15.2077 37.0097,15.5987 C37.4007,15.9897 37.4007,16.6217 37.0097,17.0127 C36.2547,17.7687 35.9067,18.4027 35.8167,18.6787 C35.9857,19.0487 35.9177,19.4997 35.6137,19.8037 C35.4177,19.9977 35.1627,20.0957 34.9077,20.0957 C34.6507,20.0957 34.3947,19.9977 34.1997,19.8017 C33.1657,18.7657 34.2437,16.9507 35.5957,15.5987 M39.7807,19.7837 C42.0427,17.5207 42.6817,14.3347 41.1747,12.8277 C40.6207,12.2747 39.8397,12.0097 38.9617,12.0097 C37.4497,12.0097 35.6517,12.7917 34.2197,14.2227 C31.9567,16.4857 31.3187,19.6707 32.8247,21.1777 C34.3307,22.6847 37.5167,22.0437 39.7807,19.7837" id="Fill-63"></path>
            <path d="M30,30.003 C30.553,30.003 31,30.45 31,31.003 C31,31.556 30.553,32.003 30,32.003 C28.908,32.003 28.201,32.21 27.94,32.346 C27.8,32.73 27.432,33.003 27,33.003 C26.447,33.003 26,32.556 26,32.003 C26,30.528 28.066,30.003 30,30.003 M30,36.003 C33.252,36.003 36,34.171 36,32.003 C36,29.835 33.252,28.003 30,28.003 C26.748,28.003 24,29.835 24,32.003 C24,34.171 26.748,36.003 30,36.003" id="Fill-65"></path>
            <path d="M27.0098,48.4073 C26.8148,48.6023 26.5588,48.7003 26.3028,48.7003 C26.0468,48.7003 25.7908,48.6023 25.5958,48.4073 C24.2428,47.0553 23.1658,45.2403 24.1988,44.2043 C24.5898,43.8113 25.2228,43.8133 25.6128,44.2023 C25.9178,44.5063 25.9858,44.9573 25.8168,45.3273 C25.9058,45.6033 26.2548,46.2373 27.0098,46.9933 C27.4008,47.3843 27.4008,48.0163 27.0098,48.4073 M25.0378,42.0093 C24.1598,42.0093 23.3788,42.2743 22.8248,42.8283 C21.3188,44.3353 21.9568,47.5203 24.2198,49.7833 C26.4808,52.0453 29.6678,52.6813 31.1748,51.1773 C32.6818,49.6713 32.0428,46.4853 29.7808,44.2223 C28.3498,42.7923 26.5488,42.0093 25.0378,42.0093" id="Fill-67"></path>
            <path d="M46,36.003 C42.691,36.003 40,32.414 40,28.003 C40,23.592 42.691,20.003 46,20.003 C49.309,20.003 52,23.592 52,28.003 C52,32.414 49.309,36.003 46,36.003 M49.904,44.181 C49.606,45.966 48.645,47.747 47.194,49.197 C45.744,50.648 43.963,51.609 42.178,51.907 C41.787,51.973 41.405,52.005 41.036,52.005 C39.599,52.005 38.339,51.52 37.411,50.592 C36.245,49.426 35.778,47.732 36.096,45.825 C36.394,44.04 37.356,42.259 38.806,40.809 C40.256,39.358 42.037,38.397 43.822,38.099 C45.733,37.779 47.423,38.248 48.589,39.414 C49.755,40.58 50.222,42.273 49.904,44.181 M32.589,52.592 C31.662,53.52 30.401,54.005 28.964,54.005 C28.595,54.005 28.213,53.973 27.822,53.907 C26.037,53.609 24.256,52.648 22.806,51.197 C21.356,49.747 20.394,47.966 20.096,46.181 C19.778,44.273 20.245,42.58 21.411,41.414 C22.576,40.247 24.267,39.777 26.178,40.099 C27.963,40.397 29.744,41.358 31.194,42.809 C32.645,44.259 33.606,46.04 33.904,47.825 C34.222,49.732 33.755,51.426 32.589,52.592 M14,40.003 C10.691,40.003 8,36.414 8,32.003 C8,27.592 10.691,24.003 14,24.003 C17.309,24.003 20,27.592 20,32.003 C20,36.414 17.309,40.003 14,40.003 M15.411,11.414 C16.575,10.247 18.266,9.776 20.178,10.099 C21.963,10.397 23.744,11.358 25.194,12.809 C26.645,14.259 27.606,16.04 27.904,17.825 C28.222,19.733 27.755,21.426 26.589,22.592 C25.662,23.52 24.401,24.005 22.964,24.005 C22.595,24.005 22.213,23.973 21.822,23.907 C20.037,23.609 18.256,22.648 16.806,21.197 C15.356,19.747 14.394,17.966 14.096,16.181 C13.778,14.273 14.245,12.58 15.411,11.414 M30,26.003 C34.411,26.003 38,28.694 38,32.003 C38,35.312 34.411,38.003 30,38.003 C25.589,38.003 22,35.312 22,32.003 C22,28.694 25.589,26.003 30,26.003 M30.096,17.825 C30.394,16.04 31.356,14.259 32.806,12.809 C34.256,11.358 36.037,10.397 37.822,10.099 C39.732,9.776 41.423,10.247 42.589,11.414 C43.755,12.58 44.222,14.273 43.904,16.181 C43.606,17.966 42.645,19.747 41.194,21.197 C39.744,22.648 37.963,23.609 36.178,23.907 C35.787,23.973 35.405,24.005 35.036,24.005 C33.599,24.005 32.339,23.52 31.411,22.592 C30.245,21.426 29.778,19.733 30.096,17.825 M52.743,16.98 C52.298,16.748 51.034,15.983 50.54,15.24 C49.886,14.259 49.375,12.529 49.345,12.437 C47.875,8.588 44.12,6.003 40,6.003 C38.656,6.003 37.354,6.265 36.127,6.781 C36.095,6.795 36.062,6.811 36.032,6.827 C35.324,7.217 33.154,8.199 31.594,8.05 C29.55,7.857 28.038,6.55 27.997,6.515 C26.033,4.895 23.548,4.003 21,4.003 C14.935,4.003 10,8.938 10,15.003 C10,15.913 10.112,16.819 10.36,17.788 C10.52,18.242 10.817,19.587 10.296,20.36 C9.424,21.653 8.097,22.971 8.1,22.971 C5.494,25.25 4,28.543 4,32.003 C4,36.083 6.045,39.847 9.512,42.099 C9.549,42.12 10.42,42.654 11.052,44.009 C11.774,45.558 12.208,48.233 12.219,48.292 C13.306,53.919 18.26,58.003 24,58.003 C25.795,58.003 29.947,57.553 31.873,56.47 C32.571,56.079 34.687,55.065 36.062,55.065 C37.836,55.065 39.644,55.527 39.646,55.527 C40.731,55.843 41.86,56.003 43,56.003 C49.374,56.003 54,50.956 53.999,44.057 C54,44.034 54.13,41.805 54.973,39.66 C55.791,37.575 57.157,35.77 57.268,35.626 C59.029,33.487 60,30.781 60,28.003 C60,23.169 57.123,18.829 52.743,16.98" id="Fill-69"></path>
            <path d="M46.3428,25.9425 C46.2068,26.2045 45.9998,26.9115 45.9998,28.0035 C45.9998,28.5555 45.5528,29.0035 44.9998,29.0035 C44.4468,29.0035 43.9998,28.5555 43.9998,28.0035 C43.9998,26.0695 44.5258,24.0035 45.9998,24.0035 C46.5528,24.0035 46.9998,24.4505 46.9998,25.0035 C46.9998,25.4345 46.7268,25.8025 46.3428,25.9425 M45.9998,22.0035 C43.8318,22.0035 41.9998,24.7515 41.9998,28.0035 C41.9998,31.2545 43.8318,34.0035 45.9998,34.0035 C48.1678,34.0035 49.9998,31.2545 49.9998,28.0035 C49.9998,24.7515 48.1678,22.0035 45.9998,22.0035" id="Fill-71"></path>
        </g>
    </g>
</svg>