<?xml version="1.0" encoding="UTF-8" standalone="no"?>
<svg width="44px" height="44px" viewBox="0 0 44 44" version="1.1" xmlns="http://www.w3.org/2000/svg" xmlns:xlink="http://www.w3.org/1999/xlink">
    <!-- Generator: Sketch 3.7.2 (28276) - http://www.bohemiancoding.com/sketch -->
    <title>foo-ice-lolly-3</title>
    <desc>Created with Sketch.</desc>
    <defs></defs>
    <g id="44px-Glyph" stroke="none" stroke-width="1" fill="none" fill-rule="evenodd">
        <g id="foo-ice-lolly-3" fill="#000000">
            <polygon id="Fill-145" points="10 24.038 34 24.038 34 18.038 10 18.038"></polygon>
            <path d="M10.0002,12.038 L10.0002,16.038 L34.0002,16.038 L34.0002,12.038 C34.0002,11.355 33.9292,10.69 33.8192,10.038 L10.1812,10.038 C10.0712,10.69 10.0002,11.355 10.0002,12.038" id="Fill-146"></path>
            <path d="M10.0002,26.038 L10.0002,28.038 C10.0002,30.244 11.7942,32.038 14.0002,32.038 L30.0002,32.038 C32.2062,32.038 34.0002,30.244 34.0002,28.038 L34.0002,26.038 L10.0002,26.038 Z" id="Fill-147"></path>
            <path d="M33.3002,8.038 C31.6472,3.385 27.2132,0.038 22.0002,0.038 C16.7872,0.038 12.3522,3.385 10.7002,8.038 L33.3002,8.038 Z" id="Fill-148"></path>
            <path d="M18.0002,34.038 L18.0002,40.038 C18.0002,42.244 19.7942,44.038 22.0002,44.038 C24.2062,44.038 26.0002,42.244 26.0002,40.038 L26.0002,34.038 L18.0002,34.038 Z" id="Fill-149"></path>
        </g>
    </g>
</svg>