<?xml version="1.0" encoding="UTF-8" standalone="no"?>
<svg width="44px" height="44px" viewBox="0 0 44 44" version="1.1" xmlns="http://www.w3.org/2000/svg" xmlns:xlink="http://www.w3.org/1999/xlink">
    <!-- Generator: Sketch 3.7.2 (28276) - http://www.bohemiancoding.com/sketch -->
    <title>foo-ice-cream-2</title>
    <desc>Created with Sketch.</desc>
    <defs></defs>
    <g id="44px-Glyph" stroke="none" stroke-width="1" fill="none" fill-rule="evenodd">
        <g id="foo-ice-cream-2" fill="#000000">
            <path d="M13.8049,6.5429 C14.1959,6.1519 14.8279,6.1519 15.2189,6.5429 C15.6099,6.9329 15.6099,7.5659 15.2189,7.9569 L14.1959,8.9809 C13.9999,9.1769 13.7439,9.2739 13.4889,9.2739 C13.2329,9.2739 12.9769,9.1769 12.7819,8.9809 C12.3909,8.5919 12.3909,7.9579 12.7819,7.5669 L13.8049,6.5429 Z M16.2689,5.3309 C16.6589,4.9399 17.2919,4.9399 17.6829,5.3309 L18.7069,6.3539 C19.0979,6.7439 19.0979,7.3779 18.7069,7.7689 C18.5119,7.9639 18.2559,8.0609 17.9999,8.0609 C17.7439,8.0609 17.4889,7.9639 17.2929,7.7689 L16.2689,6.7449 C15.8779,6.3559 15.8779,5.7219 16.2689,5.3309 L16.2689,5.3309 Z M17.3969,2.5029 L18.4199,1.4799 C18.8109,1.0889 19.4439,1.0889 19.8339,1.4799 C20.2249,1.8699 20.2249,2.5029 19.8339,2.8939 L18.8109,3.9169 C18.6149,4.1119 18.3599,4.2099 18.1039,4.2099 C17.8479,4.2099 17.5919,4.1119 17.3969,3.9169 C17.0059,3.5259 17.0059,2.8939 17.3969,2.5029 L17.3969,2.5029 Z M21.9999,4.0379 C22.5529,4.0379 22.9999,4.4849 22.9999,5.0379 C22.9999,5.5909 22.5529,6.0379 21.9999,6.0379 L19.9999,6.0379 C19.4479,6.0379 18.9999,5.5909 18.9999,5.0379 C18.9999,4.4849 19.4479,4.0379 19.9999,4.0379 L21.9999,4.0379 Z M23.1899,2.5029 L24.2139,1.4799 C24.6049,1.0889 25.2379,1.0889 25.6279,1.4799 C26.0189,1.8699 26.0189,2.5039 25.6279,2.8939 L24.6039,3.9169 C24.4089,4.1119 24.1529,4.2099 23.8969,4.2099 C23.6409,4.2099 23.3849,4.1119 23.1899,3.9169 C22.7989,3.5259 22.7989,2.8929 23.1899,2.5029 L23.1899,2.5029 Z M26.7309,4.3079 C27.1209,4.6979 27.1209,5.3309 26.7309,5.7219 L25.7069,6.7449 C25.5119,6.9399 25.2559,7.0379 24.9999,7.0379 C24.7439,7.0379 24.4889,6.9399 24.2929,6.7449 C23.9029,6.3539 23.9029,5.7219 24.2929,5.3309 L25.3169,4.3079 C25.7069,3.9169 26.3399,3.9169 26.7309,4.3079 L26.7309,4.3079 Z M28.6829,7.3069 L29.7069,8.3309 C30.0979,8.7219 30.0979,9.3539 29.7069,9.7449 C29.5119,9.9399 29.2559,10.0379 28.9999,10.0379 C28.7439,10.0379 28.4889,9.9399 28.2929,9.7449 L27.2689,8.7209 C26.8779,8.3299 26.8779,7.6969 27.2689,7.3069 C27.6589,6.9159 28.2919,6.9159 28.6829,7.3069 L28.6829,7.3069 Z M22.9999,9.0379 L20.9999,9.0379 C20.4479,9.0379 19.9999,8.5909 19.9999,8.0379 C19.9999,7.4849 20.4479,7.0379 20.9999,7.0379 L22.9999,7.0379 C23.5529,7.0379 23.9999,7.4849 23.9999,8.0379 C23.9999,8.5909 23.5529,9.0379 22.9999,9.0379 L22.9999,9.0379 Z M29.9219,18.0379 C31.1849,16.0459 31.9999,13.4759 31.9999,11.1769 C31.9999,5.0349 27.0659,0.0379 20.9999,0.0379 C14.9349,0.0379 9.9999,5.0349 9.9999,11.1769 C9.9999,13.4759 10.8149,16.0459 12.0779,18.0379 L29.9219,18.0379 Z" id="Fill-83"></path>
            <path d="M13.3422,20.038 L20.0392,43.314 C20.1622,43.743 20.5552,44.038 21.0002,44.038 C21.4452,44.038 21.8382,43.743 21.9612,43.314 L28.6582,20.038 L13.3422,20.038 Z" id="Fill-84"></path>
        </g>
    </g>
</svg>