<?xml version="1.0" encoding="UTF-8" standalone="no"?>
<svg width="44px" height="44px" viewBox="0 0 44 44" version="1.1" xmlns="http://www.w3.org/2000/svg" xmlns:xlink="http://www.w3.org/1999/xlink">
    <!-- Generator: Sketch 3.7.2 (28276) - http://www.bohemiancoding.com/sketch -->
    <title>foo-pizza-slice</title>
    <desc>Created with Sketch.</desc>
    <defs></defs>
    <g id="44px-Glyph" stroke="none" stroke-width="1" fill="none" fill-rule="evenodd">
        <g id="foo-pizza-slice" transform="translate(-1.000000, 0.000000)" fill="#000000">
            <path d="M29.0002,16.038 C29.0002,14.936 28.1022,14.038 27.0002,14.038 C25.8972,14.038 25.0002,14.936 25.0002,16.038 C25.0002,17.14 25.8972,18.038 27.0002,18.038 C28.1022,18.038 29.0002,17.14 29.0002,16.038" id="Fill-113"></path>
            <path d="M13.0002,12.038 C13.0002,13.14 13.8972,14.038 15.0002,14.038 C16.1022,14.038 17.0002,13.14 17.0002,12.038 C17.0002,10.936 16.1022,10.038 15.0002,10.038 C13.8972,10.038 13.0002,10.936 13.0002,12.038" id="Fill-114"></path>
            <path d="M32.1368,39.1308 C19.6188,35.2438 9.7968,25.4208 5.8978,12.8648 L5.5938,11.9158 L1.7018,13.1238 C1.1748,13.2878 0.8798,13.8478 1.0438,14.3748 C5.4368,28.5328 16.5098,39.6058 30.6648,43.9928 C30.7638,44.0238 30.8638,44.0378 30.9608,44.0378 C31.3878,44.0378 31.7838,43.7638 31.9158,43.3348 L33.1158,39.4718 L32.1368,39.1308 Z" id="Fill-115"></path>
            <path d="M29.0002,26.038 C27.8972,26.038 27.0002,26.936 27.0002,28.038 C27.0002,29.14 27.8972,30.038 29.0002,30.038 C30.1022,30.038 31.0002,29.14 31.0002,28.038 C31.0002,26.936 30.1022,26.038 29.0002,26.038" id="Fill-116"></path>
            <path d="M29.0002,32.038 C26.7942,32.038 25.0002,30.244 25.0002,28.038 C25.0002,25.832 26.7942,24.038 29.0002,24.038 C31.2062,24.038 33.0002,25.832 33.0002,28.038 C33.0002,30.244 31.2062,32.038 29.0002,32.038 M23.0002,16.038 C23.0002,13.832 24.7942,12.038 27.0002,12.038 C29.2062,12.038 31.0002,13.832 31.0002,16.038 C31.0002,18.244 29.2062,20.038 27.0002,20.038 C24.7942,20.038 23.0002,18.244 23.0002,16.038 M44.7062,0.331 C44.4422,0.067 44.0552,-0.027 43.7022,0.083 L16.7422,8.454 C18.0732,9.104 19.0002,10.459 19.0002,12.038 C19.0002,14.244 17.2062,16.038 15.0002,16.038 C12.7942,16.038 11.0002,14.244 11.0002,12.038 C11.0002,11.319 11.2062,10.653 11.5392,10.069 L7.5042,11.323 L7.8052,12.264 C11.5122,24.199 20.8402,33.529 32.7632,37.231 L33.7082,37.561 L41.2202,13.362 C40.5852,13.788 39.8212,14.038 39.0002,14.038 C36.7942,14.038 35.0002,12.244 35.0002,10.038 C35.0002,7.832 36.7942,6.038 39.0002,6.038 C40.6842,6.038 42.1212,7.087 42.7102,8.563 L44.9542,1.335 C45.0642,0.979 44.9692,0.594 44.7062,0.331" id="Fill-117"></path>
            <path d="M37.0002,10.038 C37.0002,11.14 37.8972,12.038 39.0002,12.038 C40.1022,12.038 41.0002,11.14 41.0002,10.038 C41.0002,8.936 40.1022,8.038 39.0002,8.038 C37.8972,8.038 37.0002,8.936 37.0002,10.038" id="Fill-118"></path>
        </g>
    </g>
</svg>