<?xml version="1.0" encoding="UTF-8" standalone="no"?>
<svg width="44px" height="44px" viewBox="0 0 44 44" version="1.1" xmlns="http://www.w3.org/2000/svg" xmlns:xlink="http://www.w3.org/1999/xlink">
    <!-- Generator: Sketch 3.7.2 (28276) - http://www.bohemiancoding.com/sketch -->
    <title>foo-noodles</title>
    <desc>Created with Sketch.</desc>
    <defs></defs>
    <g id="44px-Line" stroke="none" stroke-width="1" fill="none" fill-rule="evenodd">
        <g id="foo-noodles"></g>
        <path d="M43,18 L40,18 C39.999,14.85 38.769,11.988 36.777,9.845 L43.762,1.648 C44.12,1.228 44.07,0.597 43.649,0.238 C43.229,-0.12 42.598,-0.071 42.239,0.351 L35.297,8.497 C34.448,7.844 33.515,7.298 32.509,6.888 L35.848,1.528 C36.14,1.059 35.997,0.443 35.528,0.151 C35.059,-0.141 34.443,0.002 34.151,0.471 L30.534,6.277 C29.716,6.1 28.87,6.002 28,6.002 C25.875,6.002 23.813,6.564 21.991,7.62 C20.226,6.597 18.183,6.002 16,6.002 C9.384,6.002 4.001,11.384 4,18 L1,18 C0.448,18 -5.68434189e-14,18.448 -5.68434189e-14,19 L-5.68434189e-14,21 C-5.68434189e-14,29.254 4.044,35.506 12,39.604 L12,43 C12,43.552 12.448,44 13,44 L31,44 C31.552,44 32,43.552 32,43 L32,39.605 C39.956,35.509 44,29.256 44,21 L44,19 C44,18.448 43.552,18 43,18 L43,18 Z M28,8.002 C33.513,8.002 37.999,12.487 38,18 L36,18 C35.999,13.59 32.411,10.002 28,10.002 C27.076,10.002 26.18,10.159 25.324,10.464 C24.87,9.903 24.363,9.388 23.817,8.917 C25.121,8.316 26.543,8.002 28,8.002 L28,8.002 Z M28,18 C28,17.325 27.93,16.667 27.823,16.022 C27.883,16.017 27.94,16.002 28.001,16.002 C29.103,16.002 30,16.898 30.001,18 L28,18 L28,18 Z M32,18 C31.999,15.795 30.205,14.002 28,14.002 C27.771,14.002 27.549,14.041 27.328,14.079 C27.101,13.426 26.827,12.796 26.496,12.199 C26.983,12.073 27.485,12.002 28,12.002 C31.308,12.002 33.999,14.692 34,18 L32,18 L32,18 Z M16,8.002 C21.513,8.002 25.999,12.487 26,18 L24,18 C23.999,13.59 20.411,10.002 16,10.002 C11.589,10.002 8.001,13.59 8,18 L6,18 C6.001,12.487 10.487,8.002 16,8.002 L16,8.002 Z M20,18 C19.999,15.795 18.205,14.002 16,14.002 C13.795,14.002 12.001,15.795 12,18 L10,18 C10.001,14.692 12.692,12.002 16,12.002 C19.308,12.002 21.999,14.692 22,18 L20,18 L20,18 Z M18,18 L14,18 C14.001,16.898 14.897,16.002 16,16.002 C17.103,16.002 17.999,16.898 18,18 L18,18 Z M30,42 L14,42 L14,40 L30,40 L30,42 L30,42 Z M42,21 C42,28.557 38.213,34.274 30.755,38 L13.245,38 C5.786,34.271 2,28.554 2,21 L2,20 L42,20 L42,21 L42,21 Z" id="Shape" fill="#000000"></path>
        <path d="M14.41,34.112 C9.645,31.653 6.589,28.922 6.077,22.915 C6.03,22.365 5.546,21.952 4.995,22.003 C4.445,22.05 4.037,22.534 4.083,23.085 C4.67,29.985 8.269,33.194 13.492,35.89 C13.638,35.966 13.795,36.001 13.95,36.001 C14.312,36.001 14.662,35.804 14.84,35.459 C15.094,34.969 14.901,34.366 14.41,34.112 L14.41,34.112 Z" id="Shape" fill="#000000"></path>
    </g>
</svg>