<?xml version="1.0" encoding="UTF-8" standalone="no"?>
<svg width="44px" height="44px" viewBox="0 0 44 44" version="1.1" xmlns="http://www.w3.org/2000/svg" xmlns:xlink="http://www.w3.org/1999/xlink">
    <!-- Generator: Sketch 3.7.2 (28276) - http://www.bohemiancoding.com/sketch -->
    <title>foo-jam</title>
    <desc>Created with Sketch.</desc>
    <defs></defs>
    <g id="44px-Glyph" stroke="none" stroke-width="1" fill="none" fill-rule="evenodd">
        <g id="foo-jam" fill="#000000">
            <path d="M14.0002,40.038 C12.8972,40.038 12.0002,39.14 12.0002,38.038 L12.0002,19.038 C12.0002,18.485 12.4472,18.038 13.0002,18.038 C13.5532,18.038 14.0002,18.485 14.0002,19.038 L14.0002,38.038 C14.5532,38.038 15.0002,38.485 15.0002,39.038 C15.0002,39.591 14.5532,40.038 14.0002,40.038 M35.0002,16.038 C33.5612,16.038 32.1632,15.585 31.0002,14.776 C29.8372,15.585 28.4382,16.038 27.0002,16.038 C25.5612,16.038 24.1632,15.585 23.0002,14.776 C21.8372,15.585 20.4382,16.038 19.0002,16.038 C17.5612,16.038 16.1632,15.585 15.0002,14.776 C13.8372,15.585 12.4382,16.038 11.0002,16.038 C9.9252,16.038 8.9112,15.787 8.0002,15.353 L8.0002,39.038 C8.0002,41.748 10.2902,44.038 13.0002,44.038 L33.0002,44.038 C35.7102,44.038 38.0002,41.748 38.0002,39.038 L38.0002,15.353 C37.0892,15.787 36.0742,16.038 35.0002,16.038" id="Fill-133"></path>
            <path d="M38.0002,4.038 L38.0002,2.594 C38.0002,1.184 36.8532,0.038 35.4442,0.038 L10.5002,0.038 C9.0982,0.038 8.0002,1.161 8.0002,2.594 L8.0002,4.038 L38.0002,4.038 Z" id="Fill-134"></path>
            <path d="M38.6184,6.038 L7.3824,6.038 L6.1054,8.591 C6.0364,8.729 6.0004,8.883 6.0004,9.038 C6.0004,11.795 8.2434,14.038 11.0004,14.038 C12.6344,14.038 14.0874,13.25 15.0004,12.035 C15.9134,13.25 17.3664,14.038 19.0004,14.038 C20.6344,14.038 22.0874,13.25 23.0004,12.035 C23.9134,13.25 25.3664,14.038 27.0004,14.038 C28.6344,14.038 30.0874,13.25 31.0004,12.035 C31.9134,13.25 33.3664,14.038 35.0004,14.038 C37.7574,14.038 40.0004,11.795 40.0004,9.038 C40.0004,8.883 39.9644,8.729 39.8944,8.591 L38.6184,6.038 Z" id="Fill-135"></path>
        </g>
    </g>
</svg>