<?xml version="1.0" encoding="UTF-8" standalone="no"?>
<svg width="64px" height="64px" viewBox="0 0 64 64" version="1.1" xmlns="http://www.w3.org/2000/svg" xmlns:xlink="http://www.w3.org/1999/xlink">
    <!-- Generator: Sketch 3.7.2 (28276) - http://www.bohemiancoding.com/sketch -->
    <title>foo-cracked-egg</title>
    <desc>Created with Sketch.</desc>
    <defs></defs>
    <g id="64px-Glyph" stroke="none" stroke-width="1" fill="none" fill-rule="evenodd">
        <g id="foo-cracked-egg" fill="#000000">
            <polygon id="Fill-112" points="31.774 25.1409 34.926 27.6629 35.915 26.6749 35.215 23.1749"></polygon>
            <path d="M43.707,29.71 C43.512,29.905 43.256,30.003 43,30.003 C42.744,30.003 42.488,29.905 42.293,29.71 L40.586,28.003 L37.414,28.003 L36,29.417 L36,32.589 L37.707,34.296 C38.098,34.687 38.098,35.319 37.707,35.71 C37.512,35.905 37.256,36.003 37,36.003 C36.744,36.003 36.488,35.905 36.293,35.71 L34.293,33.71 C34.105,33.523 34,33.269 34,33.003 L34,29.483 L30.181,26.429 L27.8,29.603 C27.787,29.62 27.766,29.626 27.752,29.642 C27.734,29.663 27.727,29.69 27.707,29.71 L25.707,31.71 C25.512,31.905 25.256,32.003 25,32.003 C24.744,32.003 24.488,31.905 24.293,31.71 C23.902,31.319 23.902,30.687 24.293,30.296 L25.312,29.277 L22.553,27.898 C22.059,27.651 21.858,27.05 22.105,26.556 C22.352,26.062 22.953,25.863 23.447,26.108 L26.701,27.735 L29.2,24.403 C29.203,24.4 29.207,24.398 29.21,24.394 C29.214,24.39 29.215,24.383 29.219,24.378 C29.266,24.32 29.328,24.286 29.384,24.241 C29.426,24.207 29.457,24.161 29.504,24.135 L36,20.423 L36,17.003 C36,16.45 36.447,16.003 37,16.003 C37.553,16.003 38,16.45 38,17.003 L38,21.003 C38,21.361 37.808,21.693 37.496,21.871 L37.045,22.129 L37.819,26.003 L41,26.003 C41.266,26.003 41.519,26.108 41.707,26.296 L43.707,28.296 C44.098,28.687 44.098,29.319 43.707,29.71 M33,6.003 C23.589,6.003 14,21.575 14,36.859 C14,52.054 23.559,60.003 33,60.003 C42.441,60.003 52,52.054 52,36.859 C52,21.575 42.411,6.003 33,6.003" id="Fill-113"></path>
        </g>
    </g>
</svg>