<?xml version="1.0" encoding="UTF-8" standalone="no"?>
<svg width="44px" height="44px" viewBox="0 0 44 44" version="1.1" xmlns="http://www.w3.org/2000/svg" xmlns:xlink="http://www.w3.org/1999/xlink">
    <!-- Generator: Sketch 3.7.2 (28276) - http://www.bohemiancoding.com/sketch -->
    <title>foo-kebab</title>
    <desc>Created with Sketch.</desc>
    <defs></defs>
    <g id="44px-Glyph" stroke="none" stroke-width="1" fill="none" fill-rule="evenodd">
        <g id="foo-kebab" fill="#000000">
            <path d="M16.7721,27.2758 C16.7701,27.2738 16.7681,27.2728 16.7671,27.2718 C16.7651,27.2698 16.7641,27.2678 16.7621,27.2658 L12.3741,22.8778 C12.2671,22.7708 12.1251,22.7168 11.9831,22.7168 C11.8411,22.7168 11.6981,22.7708 11.5901,22.8788 C11.3751,23.0938 11.3751,23.4448 11.5911,23.6608 L13.7831,25.8528 C13.7851,25.8548 13.7861,25.8558 13.7881,25.8578 L18.1811,30.2498 C18.1821,30.2518 18.1831,30.2538 18.1851,30.2548 L20.3771,32.4468 C20.5911,32.6608 20.9441,32.6638 21.1611,32.4458 C21.3761,32.2318 21.3761,31.8798 21.1601,31.6638 L16.7721,27.2758 Z" id="Fill-156"></path>
            <path d="M23.3513,20.6772 C22.6383,19.9672 21.7033,19.6122 20.7693,19.6122 C19.8313,19.6122 18.8943,19.9692 18.1813,20.6812 C16.7563,22.1072 16.7543,24.4252 18.1763,25.8522 L18.1863,25.8622 C19.6123,27.2812 21.9303,27.2822 23.3563,25.8572 C24.7823,24.4322 24.7833,22.1142 23.3613,20.6872 L23.3513,20.6772 Z" id="Fill-157"></path>
            <path d="M12.3714,27.2694 C12.2644,27.1634 12.1244,27.1104 11.9824,27.1104 C11.8414,27.1104 11.6984,27.1644 11.5904,27.2724 L8.2974,30.5664 C8.0814,30.7824 8.0814,31.1324 8.2974,31.3484 L12.6894,35.7414 C12.9034,35.9554 13.2564,35.9574 13.4714,35.7414 L16.7664,32.4474 C16.9814,32.2324 16.9824,31.8834 16.7684,31.6664 L12.3714,27.2694 Z" id="Fill-158"></path>
            <path d="M4.6857,30.5663 C4.5787,30.4593 4.4367,30.4043 4.2937,30.4043 C4.1527,30.4043 4.0107,30.4593 3.9037,30.5663 C3.6877,30.7823 3.6877,31.1323 3.9037,31.3483 L12.6897,40.1343 C12.9037,40.3483 13.2557,40.3503 13.4717,40.1343 C13.6877,39.9193 13.6877,39.5683 13.4717,39.3523 L4.6857,30.5663 Z" id="Fill-159"></path>
            <path d="M27.7492,20.6816 L23.3562,16.2886 L21.1602,14.0926 C21.0562,13.9886 20.9162,13.9306 20.7692,13.9306 C20.6212,13.9306 20.4822,13.9876 20.3782,14.0916 C20.1612,14.3086 20.1612,14.6596 20.3772,14.8746 L24.7652,19.2636 C24.7672,19.2646 24.7692,19.2656 24.7702,19.2676 C24.7722,19.2696 24.7732,19.2716 24.7752,19.2726 L29.1632,23.6606 C29.3772,23.8746 29.7292,23.8766 29.9452,23.6606 C30.0512,23.5556 30.1072,23.4166 30.1072,23.2696 C30.1072,23.1216 30.0502,22.9826 29.9452,22.8776 L27.7492,20.6816 Z" id="Fill-160"></path>
            <path d="M28.8479,10.7978 C28.7399,10.6908 28.5989,10.6358 28.4559,10.6358 C28.3149,10.6358 28.1729,10.6908 28.0659,10.7978 L24.7709,14.0928 C24.5549,14.3088 24.5549,14.6588 24.7709,14.8748 L29.1629,19.2678 C29.3769,19.4818 29.7299,19.4838 29.9459,19.2678 L33.2399,15.9728 C33.4559,15.7568 33.4559,15.4058 33.2399,15.1908 L28.8479,10.7978 Z" id="Fill-161"></path>
            <path d="M6.1755,36.4486 L0.2935,42.3306 C-0.0975,42.7216 -0.0975,43.3546 0.2935,43.7446 C0.4885,43.9406 0.7445,44.0376 1.0005,44.0376 C1.2565,44.0376 1.5115,43.9406 1.7075,43.7446 L7.5895,37.8626 L6.1755,36.4486 Z" id="Fill-162"></path>
            <path d="M42.342,1.6962 C41.274,0.6272 39.853,0.0382 38.341,0.0382 C36.828,0.0382 35.407,0.6272 34.339,1.6962 C32.373,3.6612 32.158,6.7242 33.694,8.9292 L31.751,10.8732 L33.165,12.2872 L35.753,9.6992 C36.144,9.3082 36.144,8.6752 35.753,8.2852 C34.326,6.8582 34.326,4.5372 35.753,3.1102 C37.136,1.7282 39.545,1.7272 40.928,3.1102 C41.619,3.8012 42,4.7202 42,5.6972 C42,6.6742 41.619,7.5932 40.928,8.2852 C40.537,8.6752 40.537,9.3082 40.928,9.6992 C41.319,10.0902 41.951,10.0902 42.342,9.6992 C43.411,8.6312 44,7.2102 44,5.6972 C44,4.1852 43.411,2.7642 42.342,1.6962" id="Fill-163"></path>
        </g>
    </g>
</svg>