<?xml version="1.0" encoding="UTF-8" standalone="no"?>
<svg width="64px" height="64px" viewBox="0 0 64 64" version="1.1" xmlns="http://www.w3.org/2000/svg" xmlns:xlink="http://www.w3.org/1999/xlink">
    <!-- Generator: Sketch 3.7.2 (28276) - http://www.bohemiancoding.com/sketch -->
    <title>foo-coissant</title>
    <desc>Created with Sketch.</desc>
    <defs></defs>
    <g id="64px-Glyph" stroke="none" stroke-width="1" fill="none" fill-rule="evenodd">
        <g id="foo-coissant" fill="#000000">
            <path d="M28.7207,41.876 C28.3187,41.876 27.9127,41.798 27.5257,41.638 L6.2097,32.856 C4.2527,32.051 3.6477,29.031 4.1957,27.389 C4.2387,27.206 5.8337,21.084 13.4647,13.447 C21.0967,5.812 27.2147,4.215 27.4717,4.151 C29.5637,3.694 32.0707,4.258 32.8647,6.188 L41.6417,27.517 C42.1237,28.69 41.8567,30.026 40.9607,30.921 L30.9297,40.958 C30.3297,41.558 29.5327,41.876 28.7207,41.876" id="Fill-163"></path>
            <path d="M30.5645,53.6544 C30.1325,53.2824 29.6785,52.8864 29.2465,52.4354 C28.3375,53.0704 27.2645,53.4794 26.1465,53.5814 L16.2385,54.4824 C19.3445,57.6434 23.2325,59.7244 26.7085,59.9784 C26.9325,59.9954 27.1525,60.0034 27.3675,60.0034 C29.0625,60.0034 30.4585,59.4974 31.4315,58.5234 C32.1545,57.8004 32.4935,57.0974 32.4655,56.3774 C32.4235,55.2544 31.5625,54.5124 30.5645,53.6544" id="Fill-164"></path>
            <path d="M59.9756,26.6915 C59.7216,23.2125 57.6386,19.3205 54.4766,16.2125 L53.5756,26.1355 C53.4736,27.2525 53.0666,28.3235 52.4356,29.2305 C52.8866,29.6635 53.2826,30.1185 53.6536,30.5505 C54.5116,31.5485 55.2516,32.4115 56.3746,32.4535 C56.4016,32.4545 56.4286,32.4545 56.4556,32.4545 C57.1476,32.4545 57.8246,32.1145 58.5206,31.4185 C59.6186,30.3205 60.1216,28.6855 59.9756,26.6915" id="Fill-165"></path>
            <path d="M6.9784,31.0098 L6.9814,31.0108 C6.9804,31.0108 6.9794,31.0098 6.9784,31.0098" id="Fill-166"></path>
            <path d="M29.6382,46.5128 C29.6322,46.4998 29.2262,45.6228 28.9592,43.8528 C28.8792,43.8568 28.8012,43.8758 28.7212,43.8758 C28.0472,43.8758 27.3882,43.7448 26.7622,43.4868 L5.7032,34.8108 C6.4142,44.7938 10.6352,49.6298 11.1542,50.1858 C12.0562,51.3558 13.1702,52.5688 14.9972,52.5688 C15.1242,52.5688 15.2552,52.5628 15.3902,52.5508 L25.9642,51.5888 C27.2362,51.4728 28.4242,50.7928 29.1412,49.7718 C29.7852,48.8548 29.9882,47.7668 29.7122,46.7078 C29.6952,46.6428 29.6682,46.5728 29.6382,46.5128" id="Fill-167"></path>
            <path d="M39.717,28.0953 C39.721,28.1053 39.724,28.1143 39.729,28.1243 L39.717,28.0953 Z" id="Fill-168"></path>
            <path d="M50.1821,11.1378 C49.6261,10.6168 44.7941,6.3958 34.8191,5.6828 L43.4911,26.7558 C43.7841,27.4688 43.9071,28.2188 43.8721,28.9538 C45.6261,29.2208 46.4941,29.6228 46.5021,29.6268 C46.5671,29.6598 46.6351,29.6858 46.7051,29.7038 C47.0141,29.7848 47.3251,29.8238 47.6341,29.8238 C48.3831,29.8238 49.1171,29.5898 49.7661,29.1348 C50.7881,28.4168 51.4681,27.2278 51.5831,25.9548 L52.5451,15.3748 C52.7321,13.3108 51.4321,12.1038 50.1821,11.1378" id="Fill-169"></path>
            <path d="M31.0146,6.9493 C31.0146,6.9493 31.0136,6.9483 31.0136,6.9473 C31.0166,6.9553 31.0196,6.9633 31.0236,6.9713 L31.0146,6.9493 Z" id="Fill-170"></path>
        </g>
    </g>
</svg>