<?xml version="1.0" encoding="UTF-8" standalone="no"?>
<svg width="44px" height="44px" viewBox="0 0 44 44" version="1.1" xmlns="http://www.w3.org/2000/svg" xmlns:xlink="http://www.w3.org/1999/xlink">
    <!-- Generator: Sketch 3.7.2 (28276) - http://www.bohemiancoding.com/sketch -->
    <title>foo-hamburger</title>
    <desc>Created with Sketch.</desc>
    <defs></defs>
    <g id="44px-Glyph" stroke="none" stroke-width="1" fill="none" fill-rule="evenodd">
        <g id="foo-hamburger" fill="#000000">
            <path d="M40.6672,38.038 L3.3332,38.038 C1.4952,38.038 0.0002,36.543 0.0002,34.706 L0.0002,31.038 C0.0002,30.485 0.4472,30.038 1.0002,30.038 L43.0002,30.038 C43.5532,30.038 44.0002,30.485 44.0002,31.038 L44.0002,34.706 C44.0002,36.543 42.5052,38.038 40.6672,38.038" id="Fill-85"></path>
            <path d="M43.0002,20.038 L1.0002,20.038 C0.4472,20.038 0.0002,19.591 0.0002,19.038 L0.0002,16.372 C0.0002,11.076 8.0192,8.038 22.0002,8.038 C35.9812,8.038 44.0002,11.076 44.0002,16.372 L44.0002,19.038 C44.0002,19.591 43.5532,20.038 43.0002,20.038" id="Fill-86"></path>
            <path d="M41.0002,28.038 L3.0002,28.038 C1.3462,28.038 0.0002,26.692 0.0002,25.038 C0.0002,23.384 1.3462,22.038 3.0002,22.038 L41.0002,22.038 C42.6542,22.038 44.0002,23.384 44.0002,25.038 C44.0002,26.692 42.6542,28.038 41.0002,28.038" id="Fill-87"></path>
        </g>
    </g>
</svg>