<?xml version="1.0" encoding="UTF-8" standalone="no"?>
<svg width="64px" height="64px" viewBox="0 0 64 64" version="1.1" xmlns="http://www.w3.org/2000/svg" xmlns:xlink="http://www.w3.org/1999/xlink">
    <!-- Generator: Sketch 3.7.2 (28276) - http://www.bohemiancoding.com/sketch -->
    <title>gen-joystick</title>
    <desc>Created with Sketch.</desc>
    <defs></defs>
    <g id="64px-Line" stroke="none" stroke-width="1" fill="none" fill-rule="evenodd">
        <g id="gen-joystick"></g>
        <path d="M54,42 L36,42 L36,23.475 C39.49,22.236 42,18.91 42,15 C42,10.037 37.962,6 33,6 C28.038,6 24,10.037 24,15 C24,18.91 26.51,22.236 30,23.475 L30,42 L24,42 L24,39 C24,38.447 23.552,38 23,38 L15,38 C14.448,38 14,38.447 14,39 L14,42 L10,42 C7.794,42 6,43.794 6,46 L6,54 C6,56.206 7.794,58 10,58 L54,58 C56.206,58 58,56.206 58,54 L58,46 C58,43.794 56.206,42 54,42 L54,42 Z M26,15 C26,11.141 29.14,8 33,8 C36.86,8 40,11.141 40,15 C40,18.859 36.86,22 33,22 C29.14,22 26,18.859 26,15 L26,15 Z M32,23.941 C32.329,23.978 32.662,24 33,24 C33.338,24 33.671,23.978 34,23.941 L34,42 L32,42 L32,23.941 L32,23.941 Z M16,40 L22,40 L22,42 L16,42 L16,40 L16,40 Z M56,54 C56,55.103 55.103,56 54,56 L10,56 C8.897,56 8,55.103 8,54 L8,46 C8,44.897 8.897,44 10,44 L54,44 C55.103,44 56,44.897 56,46 L56,54 L56,54 Z" id="Shape" fill="#000000"></path>
        <path d="M34,11 C34,10.447 33.552,10 33,10 C30.243,10 28,12.243 28,15 C28,15.553 28.448,16 29,16 C29.552,16 30,15.553 30,15 C30,13.346 31.346,12 33,12 C33.552,12 34,11.553 34,11 L34,11 Z" id="Shape" fill="#000000"></path>
    </g>
</svg>