<?xml version="1.0" encoding="UTF-8" standalone="no"?>
<svg width="64px" height="64px" viewBox="0 0 64 64" version="1.1" xmlns="http://www.w3.org/2000/svg" xmlns:xlink="http://www.w3.org/1999/xlink">
    <!-- Generator: Sketch 3.7.2 (28276) - http://www.bohemiancoding.com/sketch -->
    <title>gen-jewel</title>
    <desc>Created with Sketch.</desc>
    <defs></defs>
    <g id="64px-Line" stroke="none" stroke-width="1" fill="none" fill-rule="evenodd">
        <g id="gen-jewel"></g>
        <path d="M59.979,21.104 C59.983,21.068 60,21.037 60,21 C60,20.988 59.994,20.979 59.993,20.967 C59.99,20.874 59.967,20.786 59.939,20.697 C59.929,20.665 59.928,20.63 59.915,20.6 C59.87,20.497 59.805,20.403 59.725,20.318 C59.718,20.31 59.714,20.299 59.707,20.292 L45.71,6.294 C45.618,6.202 45.508,6.128 45.387,6.077 C45.264,6.027 45.134,6 45,6 L19,6 C18.866,6 18.736,6.027 18.615,6.078 C18.493,6.129 18.383,6.203 18.292,6.295 L4.295,20.293 C4.288,20.3 4.284,20.311 4.277,20.319 C4.197,20.404 4.131,20.499 4.086,20.602 C4.073,20.632 4.072,20.667 4.062,20.698 C4.033,20.787 4.01,20.876 4.007,20.969 C4.007,20.98 4,20.99 4,21.002 C4,21.039 4.017,21.07 4.021,21.106 C4.029,21.184 4.04,21.26 4.067,21.335 C4.087,21.39 4.114,21.437 4.143,21.486 C4.164,21.524 4.174,21.565 4.2,21.601 L31.2,57.601 C31.201,57.602 31.202,57.602 31.203,57.603 C31.287,57.714 31.396,57.798 31.516,57.865 C31.544,57.881 31.571,57.894 31.601,57.907 C31.726,57.962 31.858,58.001 32,58.001 C32.142,58.001 32.274,57.962 32.399,57.907 C32.429,57.894 32.456,57.881 32.484,57.865 C32.604,57.798 32.713,57.714 32.797,57.603 C32.798,57.602 32.799,57.602 32.8,57.601 L59.8,21.601 C59.826,21.566 59.836,21.524 59.857,21.487 C59.885,21.437 59.913,21.39 59.933,21.335 C59.96,21.258 59.971,21.183 59.979,21.104 L59.979,21.104 Z M43.576,22 L32,54.056 L20.424,22 L43.576,22 L43.576,22 Z M21.293,20 L32,8.47 L42.707,20 L21.293,20 L21.293,20 Z M44,18.454 L34.293,8 L44,8 L44,18.454 L44,18.454 Z M20,18.454 L20,8 L29.707,8 L20,18.454 L20,18.454 Z M18,20 L7.414,20 L18,9.414 L18,20 L18,20 Z M18.298,22 L28.789,51.051 L7,22 L18.298,22 L18.298,22 Z M45.702,22 L57,22 L35.211,51.051 L45.702,22 L45.702,22 Z M46,20 L46,9.414 L56.586,20 L46,20 L46,20 Z" id="Shape" fill="#000000"></path>
    </g>
</svg>