<?xml version="1.0" encoding="UTF-8" standalone="no"?>
<svg width="64px" height="64px" viewBox="0 0 64 64" version="1.1" xmlns="http://www.w3.org/2000/svg" xmlns:xlink="http://www.w3.org/1999/xlink">
    <!-- Generator: Sketch 3.7.2 (28276) - http://www.bohemiancoding.com/sketch -->
    <title>gen-cog</title>
    <desc>Created with Sketch.</desc>
    <defs></defs>
    <g id="64px-Line" stroke="none" stroke-width="1" fill="none" fill-rule="evenodd">
        <g id="gen-cog"></g>
        <path d="M31,44 C37.065,44 42,39.065 42,33 C42,26.935 37.065,22 31,22 C24.935,22 20,26.935 20,33 C20,39.065 24.935,44 31,44 L31,44 Z M31,24 C35.962,24 40,28.038 40,33 C40,37.962 35.962,42 31,42 C26.038,42 22,37.962 22,33 C22,28.038 26.038,24 31,24 L31,24 Z" id="Shape" fill="#000000"></path>
        <path d="M7,38 L10.607,38 C11.123,40.097 11.967,42.128 13.082,43.953 L10.868,46.168 C9.714,47.322 9.714,49.201 10.868,50.357 L13.643,53.131 C14.761,54.251 16.714,54.251 17.833,53.131 L20.048,50.916 C21.893,52.046 23.889,52.875 26.001,53.389 L26.001,57 C26.001,58.654 27.347,60 29.001,60 L33.001,60 C34.655,60 36.001,58.654 36.001,57 L36.001,53.388 C38.101,52.871 40.132,52.029 41.954,50.917 L44.169,53.131 C45.287,54.251 47.24,54.251 48.359,53.131 L51.133,50.356 C51.693,49.796 52.001,49.052 52.001,48.261 C52.001,47.47 51.692,46.726 51.133,46.166 L48.923,43.956 C50.053,42.111 50.882,40.114 51.396,38 L55,38 C56.654,38 58,36.654 58,35 L58,31 C58,29.346 56.654,28 55,28 L51.393,28 C50.877,25.905 50.033,23.874 48.917,22.046 L51.133,19.831 C52.287,18.676 52.287,16.798 51.133,15.643 L48.357,12.867 C47.202,11.713 45.323,11.713 44.168,12.867 L41.955,15.08 C40.099,13.942 38.102,13.11 36,12.597 L36,9 C36,7.346 34.654,6 33,6 L29,6 C27.346,6 26,7.346 26,9 L26,12.596 C23.893,13.11 21.896,13.942 20.044,15.079 L17.831,12.866 C16.676,11.713 14.797,11.712 13.643,12.866 L10.868,15.641 C10.309,16.2 10.001,16.944 10.001,17.735 C10.001,18.527 10.309,19.271 10.868,19.829 L13.081,22.042 C11.95,23.889 11.12,25.887 10.606,27.999 L7,27.999 C5.346,27.999 4,29.345 4,30.999 L4,34.999 C4,36.654 5.346,38 7,38 L7,38 Z M6,31 C6,30.449 6.449,30 7,30 L11.406,30 C11.882,30 12.291,29.665 12.386,29.199 C12.878,26.775 13.821,24.508 15.187,22.46 C15.452,22.064 15.4,21.535 15.062,21.198 L12.281,18.416 C12.1,18.235 12,17.994 12,17.736 C12,17.479 12.1,17.238 12.281,17.056 L15.056,14.281 C15.431,13.906 16.041,13.906 16.416,14.281 L19.198,17.062 C19.535,17.4 20.064,17.452 20.461,17.187 C22.515,15.813 24.782,14.868 27.198,14.378 C27.664,14.283 27.999,13.874 27.999,13.398 L27.999,9 C27.999,8.449 28.448,8 28.999,8 L32.999,8 C33.55,8 33.999,8.449 33.999,9 L33.999,13.397 C33.999,13.873 34.334,14.282 34.8,14.377 C37.209,14.866 39.476,15.812 41.538,17.187 C41.934,17.451 42.462,17.399 42.8,17.062 L45.581,14.281 C45.956,13.906 46.566,13.906 46.942,14.281 L49.717,17.057 C50.092,17.432 50.092,18.042 49.717,18.417 L46.934,21.2 C46.597,21.537 46.544,22.066 46.809,22.462 C48.152,24.475 49.121,26.805 49.612,29.201 C49.707,29.666 50.116,30 50.591,30 L55,30 C55.551,30 56,30.449 56,31 L56,35 C56,35.551 55.551,36 55,36 L50.594,36 C50.118,36 49.709,36.335 49.614,36.801 C49.121,39.229 48.179,41.496 46.815,43.539 C46.55,43.935 46.602,44.464 46.94,44.801 L49.718,47.58 C49.9,47.762 50.001,48.004 50.001,48.261 C50.001,48.518 49.901,48.76 49.719,48.942 L46.945,51.717 C46.582,52.08 45.949,52.082 45.584,51.717 L42.801,48.934 C42.464,48.597 41.935,48.544 41.538,48.809 C39.535,50.148 37.205,51.116 34.802,51.608 C34.336,51.703 34.002,52.112 34.002,52.587 L34.002,57 C34.002,57.551 33.553,58 33.002,58 L29.002,58 C28.451,58 28.002,57.551 28.002,57 L28.002,52.588 C28.002,52.112 27.667,51.703 27.201,51.608 C24.776,51.116 22.51,50.174 20.466,48.81 C20.297,48.697 20.103,48.642 19.911,48.642 C19.653,48.642 19.397,48.742 19.203,48.935 L16.42,51.718 C16.057,52.081 15.423,52.083 15.059,51.718 L12.284,48.944 C11.909,48.568 11.909,47.958 12.284,47.583 L15.066,44.8 C15.403,44.463 15.456,43.934 15.191,43.537 C13.849,41.529 12.88,39.199 12.389,36.8 C12.294,36.335 11.885,36.001 11.41,36.001 L7,36.001 C6.449,36.001 6,35.552 6,35.001 L6,31 L6,31 Z" id="Shape" fill="#000000"></path>
    </g>
</svg>