<?xml version="1.0" encoding="UTF-8" standalone="no"?>
<svg width="64px" height="64px" viewBox="0 0 64 64" version="1.1" xmlns="http://www.w3.org/2000/svg" xmlns:xlink="http://www.w3.org/1999/xlink">
    <!-- Generator: Sketch 3.7.2 (28276) - http://www.bohemiancoding.com/sketch -->
    <title>gen-flag-2</title>
    <desc>Created with Sketch.</desc>
    <defs></defs>
    <g id="64px-Line" stroke="none" stroke-width="1" fill="none" fill-rule="evenodd">
        <g id="gen-flag-2"></g>
        <path d="M51.367,19.07 L13.367,4.07 C13.059,3.948 12.711,3.987 12.437,4.173 C12.164,4.359 12,4.669 12,5 L12,35 L12,59 C12,59.553 12.448,60 13,60 C13.552,60 14,59.553 14,59 L14,35.68 L51.367,20.93 C51.749,20.78 52,20.41 52,20 C52,19.59 51.749,19.221 51.367,19.07 L51.367,19.07 Z M14,33.53 L14,6.47 L48.276,20 L14,33.53 L14,33.53 Z" id="Shape" fill="#000000"></path>
    </g>
</svg>