<?xml version="1.0" encoding="UTF-8" standalone="no"?>
<svg width="64px" height="64px" viewBox="0 0 64 64" version="1.1" xmlns="http://www.w3.org/2000/svg" xmlns:xlink="http://www.w3.org/1999/xlink">
    <!-- Generator: Sketch 3.7.2 (28276) - http://www.bohemiancoding.com/sketch -->
    <title>gen-gameboy</title>
    <desc>Created with Sketch.</desc>
    <defs></defs>
    <g id="64px-Line" stroke="none" stroke-width="1" fill="none" fill-rule="evenodd">
        <g id="gen-gameboy"></g>
        <path d="M14,60 L41,60 C47.065,60 52,55.065 52,49 L52,10 C52,7.794 50.206,6 48,6 L14,6 C11.794,6 10,7.794 10,10 L10,56 C10,58.206 11.794,60 14,60 L14,60 Z M12,10 C12,8.897 12.897,8 14,8 L48,8 C49.103,8 50,8.897 50,10 L50,49 C50,53.963 45.963,58 41,58 L14,58 C12.897,58 12,57.103 12,56 L12,10 L12,10 Z" id="Shape" fill="#000000"></path>
        <path d="M17,34 L39,34 C42.859,34 46,30.859 46,27 L46,13 C46,12.447 45.553,12 45,12 L17,12 C16.447,12 16,12.447 16,13 L16,33 C16,33.553 16.447,34 17,34 L17,34 Z M18,14 L44,14 L44,27 C44,29.757 41.757,32 39,32 L18,32 L18,14 L18,14 Z" id="Shape" fill="#000000"></path>
        <path d="M17,46 L20,46 L20,49 C20,49.553 20.447,50 21,50 C21.553,50 22,49.553 22,49 L22,46 L25,46 C25.553,46 26,45.553 26,45 C26,44.447 25.553,44 25,44 L22,44 L22,41 C22,40.447 21.553,40 21,40 C20.447,40 20,40.447 20,41 L20,44 L17,44 C16.447,44 16,44.447 16,45 C16,45.553 16.447,46 17,46 L17,46 Z" id="Shape" fill="#000000"></path>
        <path d="M42,38 C39.794,38 38,39.794 38,42 C38,44.206 39.794,46 42,46 C44.206,46 46,44.206 46,42 C46,39.794 44.206,38 42,38 L42,38 Z M42,44 C40.897,44 40,43.103 40,42 C40,40.897 40.897,40 42,40 C43.103,40 44,40.897 44,42 C44,43.103 43.103,44 42,44 L42,44 Z" id="Shape" fill="#000000"></path>
        <path d="M34,44 C31.794,44 30,45.794 30,48 C30,50.206 31.794,52 34,52 C36.206,52 38,50.206 38,48 C38,45.794 36.206,44 34,44 L34,44 Z M34,50 C32.897,50 32,49.103 32,48 C32,46.897 32.897,46 34,46 C35.103,46 36,46.897 36,48 C36,49.103 35.103,50 34,50 L34,50 Z" id="Shape" fill="#000000"></path>
        <path d="M21,22 C21.256,22 21.512,21.902 21.707,21.707 L25.707,17.707 C26.098,17.316 26.098,16.684 25.707,16.293 C25.316,15.902 24.684,15.902 24.293,16.293 L20.293,20.293 C19.902,20.684 19.902,21.316 20.293,21.707 C20.488,21.902 20.744,22 21,22 L21,22 Z" id="Shape" fill="#000000"></path>
        <path d="M30.293,16.293 L20.293,26.293 C19.902,26.684 19.902,27.316 20.293,27.707 C20.488,27.902 20.744,28 21,28 C21.256,28 21.512,27.902 21.707,27.707 L31.707,17.707 C32.098,17.316 32.098,16.684 31.707,16.293 C31.316,15.902 30.684,15.902 30.293,16.293 L30.293,16.293 Z" id="Shape" fill="#000000"></path>
    </g>
</svg>