<?xml version="1.0" encoding="UTF-8" standalone="no"?>
<svg width="64px" height="64px" viewBox="0 0 64 64" version="1.1" xmlns="http://www.w3.org/2000/svg" xmlns:xlink="http://www.w3.org/1999/xlink">
    <!-- Generator: Sketch 3.7.2 (28276) - http://www.bohemiancoding.com/sketch -->
    <title>gen-igloo</title>
    <desc>Created with Sketch.</desc>
    <defs></defs>
    <g id="64px-Line" stroke="none" stroke-width="1" fill="none" fill-rule="evenodd">
        <g id="gen-igloo"></g>
        <path d="M5,60 L57,60 C57.552,60 58,59.552 58,59 L58,51 C58,46.956 55.317,43.527 51.639,42.396 C47.533,33.646 38.673,28 29,28 C15.215,28 4,39.215 4,53 L4,59 C4,59.552 4.448,60 5,60 L5,60 Z M40,58 L34,58 L34,51 C34,47.14 37.14,44 41,44 L43.356,44 C41.312,45.651 40,48.174 40,51 L40,58 L40,58 Z M52,58 L46,58 L46,51 C46,49.346 47.346,48 49,48 C50.654,48 52,49.346 52,51 L52,58 L52,58 Z M56,51 L56,58 L54,58 L54,51 C54,48.243 51.757,46 49,46 C46.243,46 44,48.243 44,51 L44,58 L42,58 L42,51 C42,47.14 45.14,44 49,44 C52.86,44 56,47.14 56,51 L56,51 Z M6,53 C6,40.318 16.318,30 29,30 C37.437,30 45.203,34.667 49.206,42.01 C49.137,42.008 49.069,42 49,42 L41,42 C36.038,42 32,46.038 32,51 L32,58 L6,58 L6,53 L6,53 Z" id="Shape" fill="#000000"></path>
        <path d="M19,52 L14,52 L14,49 C14,48.448 13.552,48 13,48 C12.448,48 12,48.448 12,49 L12,52 L11,52 C10.448,52 10,52.448 10,53 C10,53.552 10.448,54 11,54 L19,54 C19.552,54 20,53.552 20,53 C20,52.448 19.552,52 19,52 L19,52 Z" id="Shape" fill="#000000"></path>
        <path d="M32,41 C32,40.448 31.552,40 31,40 L30,40 L30,37 C30,36.448 29.552,36 29,36 C28.448,36 28,36.448 28,37 L28,40 L19,40 C18.448,40 18,40.448 18,41 C18,41.552 18.448,42 19,42 L22,42 L22,45 C22,45.552 22.448,46 23,46 C23.552,46 24,45.552 24,45 L24,42 L31,42 C31.552,42 32,41.552 32,41 L32,41 Z" id="Shape" fill="#000000"></path>
        <path d="M41.895,8.553 C41.648,8.059 41.048,7.857 40.553,8.106 L38,9.382 L38,7 C38,6.448 37.552,6 37,6 C36.448,6 36,6.448 36,7 L36,9.382 L33.447,8.106 C32.951,7.857 32.352,8.06 32.105,8.553 C31.858,9.047 32.058,9.648 32.552,9.895 L34.763,11 L32.552,12.105 C32.058,12.352 31.858,12.953 32.105,13.447 C32.28,13.798 32.633,14 33.001,14 C33.151,14 33.304,13.966 33.447,13.895 L36,12.619 L36,15 C36,15.552 36.448,16 37,16 C37.552,16 38,15.552 38,15 L38,12.618 L40.553,13.894 C40.697,13.966 40.849,13.999 40.999,13.999 C41.366,13.999 41.719,13.797 41.895,13.446 C42.142,12.952 41.942,12.351 41.448,12.104 L39.236,11 L41.447,9.895 C41.941,9.647 42.142,9.047 41.895,8.553 L41.895,8.553 Z" id="Shape" fill="#000000"></path>
        <path d="M53.895,22.553 C53.648,22.059 53.048,21.858 52.553,22.106 L50,23.382 L50,21 C50,20.448 49.552,20 49,20 C48.448,20 48,20.448 48,21 L48,23.382 L45.447,22.106 C44.952,21.858 44.352,22.06 44.105,22.553 C43.858,23.047 44.058,23.648 44.552,23.895 L46.763,25 L44.552,26.105 C44.058,26.352 43.858,26.953 44.105,27.447 C44.28,27.798 44.633,28 45.001,28 C45.151,28 45.304,27.966 45.447,27.895 L48,26.619 L48,29 C48,29.552 48.448,30 49,30 C49.552,30 50,29.552 50,29 L50,26.618 L52.553,27.894 C52.697,27.966 52.849,27.999 52.999,27.999 C53.366,27.999 53.719,27.797 53.895,27.446 C54.142,26.952 53.942,26.351 53.448,26.104 L51.236,25 L53.447,23.895 C53.941,23.647 54.142,23.047 53.895,22.553 L53.895,22.553 Z" id="Shape" fill="#000000"></path>
        <path d="M17.895,18.553 C17.648,18.059 17.048,17.859 16.553,18.106 L14,19.382 L14,17 C14,16.448 13.552,16 13,16 C12.448,16 12,16.448 12,17 L12,19.382 L9.447,18.106 C8.951,17.859 8.352,18.06 8.105,18.553 C7.858,19.047 8.058,19.648 8.552,19.895 L10.763,21 L8.552,22.105 C8.058,22.352 7.858,22.953 8.105,23.447 C8.28,23.798 8.633,24 9.001,24 C9.151,24 9.304,23.966 9.447,23.895 L12,22.619 L12,25 C12,25.552 12.448,26 13,26 C13.552,26 14,25.552 14,25 L14,22.618 L16.553,23.894 C16.697,23.966 16.849,23.999 16.999,23.999 C17.366,23.999 17.719,23.797 17.895,23.446 C18.142,22.952 17.942,22.351 17.448,22.104 L15.236,21 L17.447,19.895 C17.941,19.647 18.142,19.047 17.895,18.553 L17.895,18.553 Z" id="Shape" fill="#000000"></path>
    </g>
</svg>