<?xml version="1.0" encoding="UTF-8" standalone="no"?>
<svg width="64px" height="64px" viewBox="0 0 64 64" version="1.1" xmlns="http://www.w3.org/2000/svg" xmlns:xlink="http://www.w3.org/1999/xlink">
    <!-- Generator: Sketch 3.7.2 (28276) - http://www.bohemiancoding.com/sketch -->
    <title>gen-baby-cutlery</title>
    <desc>Created with Sketch.</desc>
    <defs></defs>
    <g id="64px-Line" stroke="none" stroke-width="1" fill="none" fill-rule="evenodd">
        <g id="gen-baby-cutlery"></g>
        <path d="M8,33.54 C6.776,34.639 6,36.228 6,38 L6,54 C6,57.309 8.691,60 12,60 C15.309,60 18,57.309 18,54 L18,38 C18,36.229 17.224,34.64 16,33.541 L16,29.167 C19.617,27.589 22,23.991 22,20 L22,10 C22,7.794 20.206,6 18,6 C16.8,6 15.734,6.542 15,7.382 C14.266,6.542 13.2,6 12,6 C10.8,6 9.734,6.542 9,7.382 C8.266,6.542 7.2,6 6,6 C3.794,6 2,7.794 2,10 L2,20 C2,23.993 4.384,27.592 8.002,29.169 L8,33.54 L8,33.54 Z M16,54 C16,56.206 14.206,58 12,58 C9.794,58 8,56.206 8,54 L8,38 C8,35.794 9.794,34 12,34 C14.206,34 16,35.794 16,38 L16,54 L16,54 Z M4,20 L4,10 C4,8.897 4.897,8 6,8 C7.103,8 8,8.897 8,10 L8,17 C8,17.553 8.448,18 9,18 C9.552,18 10,17.553 10,17 L10,10 C10,8.897 10.897,8 12,8 C13.103,8 14,8.897 14,10 L14,17 C14,17.553 14.448,18 15,18 C15.552,18 16,17.553 16,17 L16,10 C16,8.897 16.897,8 18,8 C19.103,8 20,8.897 20,10 L20,20 C20,23.386 17.857,26.417 14.667,27.545 C14.267,27.686 14,28.064 14,28.487 L14,32.35 C13.373,32.127 12.702,32 12,32 C11.298,32 10.627,32.127 10.001,32.35 L10.003,28.491 C10.003,28.066 9.736,27.688 9.336,27.547 C6.144,26.42 4,23.387 4,20 L4,20 Z" id="Shape" fill="#000000"></path>
        <path d="M35.511,4.141 C35.208,3.961 34.834,3.953 34.522,4.121 C27.835,7.754 24,13.906 24,21 C24,23.941 24.625,26.775 25.856,29.425 C26.033,29.807 26.41,30.016 26.823,30 L28,30 L28,33.541 C26.776,34.64 26,36.229 26,38 L26,54 C26,57.309 28.691,60 32,60 C35.309,60 38,57.309 38,54 L38,38 C38,36.229 37.224,34.64 36,33.541 L36,5 C36,4.647 35.814,4.32 35.511,4.141 L35.511,4.141 Z M29,28 L27.412,28 C26.475,25.785 26,23.434 26,21 C26,15.2 28.893,10.093 34,6.76 L34,32.35 C33.373,32.127 32.702,32 32,32 C31.298,32 30.627,32.127 30,32.35 L30,29 C30,28.447 29.552,28 29,28 L29,28 Z M36,54 C36,56.206 34.206,58 32,58 C29.794,58 28,56.206 28,54 L28,38 C28,35.794 29.794,34 32,34 C34.206,34 36,35.794 36,38 L36,54 L36,54 Z" id="Shape" fill="#000000"></path>
        <path d="M52,6 C46.486,6 42,11.383 42,18 C42,22.784 44.386,27.111 48,29.003 L48,33.541 C46.776,34.64 46,36.229 46,38 L46,54 C46,57.309 48.691,60 52,60 C55.309,60 58,57.309 58,54 L58,38 C58,36.229 57.224,34.64 56,33.541 L56,29.005 C59.614,27.114 62,22.786 62,18 C62,11.383 57.514,6 52,6 L52,6 Z M56,54 C56,56.206 54.206,58 52,58 C49.794,58 48,56.206 48,54 L48,38 C48,35.794 49.794,34 52,34 C54.206,34 56,35.794 56,38 L56,54 L56,54 Z M54.604,27.457 C54.238,27.615 54,27.976 54,28.375 L54,32.35 C53.373,32.127 52.702,32 52,32 C51.298,32 50.627,32.127 50,32.35 L50,28.373 C50,27.975 49.763,27.613 49.397,27.455 C46.169,26.06 44,22.26 44,18 C44,12.486 47.589,8 52,8 C56.411,8 60,12.486 60,18 C60,22.262 57.831,26.062 54.604,27.457 L54.604,27.457 Z" id="Shape" fill="#000000"></path>
    </g>
</svg>