<?xml version="1.0" encoding="UTF-8" standalone="no"?>
<svg width="64px" height="64px" viewBox="0 0 64 64" version="1.1" xmlns="http://www.w3.org/2000/svg" xmlns:xlink="http://www.w3.org/1999/xlink">
    <!-- Generator: Sketch 3.7.2 (28276) - http://www.bohemiancoding.com/sketch -->
    <title>gen-controller-xbox</title>
    <desc>Created with Sketch.</desc>
    <defs></defs>
    <g id="64px-Line" stroke="none" stroke-width="1" fill="none" fill-rule="evenodd">
        <g id="gen-controller-xbox"></g>
        <path d="M11,52 C16.629,52 20.406,46.909 23.165,43.192 C23.481,42.766 23.783,42.359 24.071,41.983 C25.037,40.723 26.49,40 28.058,40 L35.941,40 C37.509,40 38.962,40.723 39.928,41.983 C40.216,42.359 40.518,42.766 40.834,43.192 C43.594,46.909 47.371,52 53,52 C57.836,52 60,47.48 60,43 C60,36.222 53.189,22.158 52.895,21.553 C52.74,21.245 49.049,14 43,14 C39.855,14 38.108,15.205 36.566,16.267 C35.218,17.197 34.053,18 32,18 C29.947,18 28.782,17.197 27.434,16.267 C25.892,15.205 24.145,14 21,14 C14.951,14 11.26,21.245 11.101,21.562 C10.811,22.158 4,36.222 4,43 C4,47.48 6.164,52 11,52 L11,52 Z M12.895,22.447 C12.927,22.383 16.174,16 21,16 C23.521,16 24.87,16.93 26.298,17.914 C27.786,18.939 29.325,20 32,20 C34.675,20 36.214,18.939 37.702,17.914 C39.13,16.93 40.479,16 43,16 C47.809,16 51.073,22.384 51.101,22.438 C51.17,22.58 58,36.679 58,43 C58,46.229 56.69,50 53,50 C48.378,50 44.946,45.376 42.441,42 C42.118,41.565 41.81,41.15 41.516,40.766 C40.168,39.008 38.136,38 35.941,38 L28.058,38 C25.863,38 23.83,39.008 22.483,40.766 C22.189,41.15 21.881,41.565 21.558,42 C19.053,45.376 15.621,50 10.999,50 C7.309,50 5.999,46.229 5.999,43 C6,36.682 12.83,22.58 12.895,22.447 L12.895,22.447 Z" id="Shape" fill="#000000"></path>
        <path d="M20,34 C23.309,34 26,31.309 26,28 C26,24.691 23.309,22 20,22 C16.691,22 14,24.691 14,28 C14,31.309 16.691,34 20,34 L20,34 Z M20,24 C22.206,24 24,25.794 24,28 C24,30.206 22.206,32 20,32 C17.794,32 16,30.206 16,28 C16,25.794 17.794,24 20,24 L20,24 Z" id="Shape" fill="#000000"></path>
        <path d="M37,32 C38.654,32 40,30.654 40,29 C40,27.346 38.654,26 37,26 C35.346,26 34,27.346 34,29 C34,30.654 35.346,32 37,32 L37,32 Z M37,28 C37.552,28 38,28.449 38,29 C38,29.551 37.552,30 37,30 C36.448,30 36,29.551 36,29 C36,28.449 36.448,28 37,28 L37,28 Z" id="Shape" fill="#000000"></path>
        <path d="M43,28 C44.654,28 46,26.654 46,25 C46,23.346 44.654,22 43,22 C41.346,22 40,23.346 40,25 C40,26.654 41.346,28 43,28 L43,28 Z M43,24 C43.552,24 44,24.449 44,25 C44,25.551 43.552,26 43,26 C42.448,26 42,25.551 42,25 C42,24.449 42.448,24 43,24 L43,24 Z" id="Shape" fill="#000000"></path>
        <path d="M43,30 C41.346,30 40,31.346 40,33 C40,34.654 41.346,36 43,36 C44.654,36 46,34.654 46,33 C46,31.346 44.654,30 43,30 L43,30 Z M43,34 C42.448,34 42,33.551 42,33 C42,32.449 42.448,32 43,32 C43.552,32 44,32.449 44,33 C44,33.551 43.552,34 43,34 L43,34 Z" id="Shape" fill="#000000"></path>
        <path d="M49,32 C50.654,32 52,30.654 52,29 C52,27.346 50.654,26 49,26 C47.346,26 46,27.346 46,29 C46,30.654 47.346,32 49,32 L49,32 Z M49,28 C49.552,28 50,28.449 50,29 C50,29.551 49.552,30 49,30 C48.448,30 48,29.551 48,29 C48,28.449 48.448,28 49,28 L49,28 Z" id="Shape" fill="#000000"></path>
    </g>
</svg>