<?xml version="1.0" encoding="UTF-8" standalone="no"?>
<svg width="64px" height="64px" viewBox="0 0 64 64" version="1.1" xmlns="http://www.w3.org/2000/svg" xmlns:xlink="http://www.w3.org/1999/xlink">
    <!-- Generator: Sketch 3.7.2 (28276) - http://www.bohemiancoding.com/sketch -->
    <title>gen-sights</title>
    <desc>Created with Sketch.</desc>
    <defs></defs>
    <g id="64px-Line" stroke="none" stroke-width="1" fill="none" fill-rule="evenodd">
        <g id="gen-sights"></g>
        <path d="M59,32 L55.975,32 C55.461,19.01 44.991,8.54 32,8.025 L32,5 C32,4.447 31.553,4 31,4 C30.447,4 30,4.447 30,5 L30,8.025 C17.01,8.539 6.54,19.009 6.025,32 L3,32 C2.447,32 2,32.447 2,33 C2,33.553 2.447,34 3,34 L6.025,34 C6.539,46.99 17.009,57.46 30,57.975 L30,61 C30,61.553 30.447,62 31,62 C31.553,62 32,61.553 32,61 L32,57.975 C44.99,57.461 55.46,46.991 55.975,34 L59,34 C59.553,34 60,33.553 60,33 C60,32.447 59.553,32 59,32 L59,32 Z M53.975,32 L48,32 L48,29 C48,28.447 47.553,28 47,28 C46.447,28 46,28.447 46,29 L46,32 L42,32 L42,29 C42,28.447 41.553,28 41,28 C40.447,28 40,28.447 40,29 L40,32 L32,32 L32,24 L35,24 C35.553,24 36,23.553 36,23 C36,22.447 35.553,22 35,22 L32,22 L32,18 L35,18 C35.553,18 36,17.553 36,17 C36,16.447 35.553,16 35,16 L32,16 L32,10.025 C43.888,10.537 53.463,20.112 53.975,32 L53.975,32 Z M30,10.025 L30,16 L27,16 C26.447,16 26,16.447 26,17 C26,17.553 26.447,18 27,18 L30,18 L30,22 L27,22 C26.447,22 26,22.447 26,23 C26,23.553 26.447,24 27,24 L30,24 L30,32 L22,32 L22,29 C22,28.447 21.553,28 21,28 C20.447,28 20,28.447 20,29 L20,32 L16,32 L16,29 C16,28.447 15.553,28 15,28 C14.447,28 14,28.447 14,29 L14,32 L8.025,32 C8.537,20.112 18.112,10.537 30,10.025 L30,10.025 Z M8.025,34 L14,34 L14,37 C14,37.553 14.447,38 15,38 C15.553,38 16,37.553 16,37 L16,34 L20,34 L20,37 C20,37.553 20.447,38 21,38 C21.553,38 22,37.553 22,37 L22,34 L30,34 L30,42 L27,42 C26.447,42 26,42.447 26,43 C26,43.553 26.447,44 27,44 L30,44 L30,48 L27,48 C26.447,48 26,48.447 26,49 C26,49.553 26.447,50 27,50 L30,50 L30,55.975 C18.112,55.463 8.537,45.888 8.025,34 L8.025,34 Z M32,55.975 L32,50 L35,50 C35.553,50 36,49.553 36,49 C36,48.447 35.553,48 35,48 L32,48 L32,44 L35,44 C35.553,44 36,43.553 36,43 C36,42.447 35.553,42 35,42 L32,42 L32,34 L40,34 L40,37 C40,37.553 40.447,38 41,38 C41.553,38 42,37.553 42,37 L42,34 L46,34 L46,37 C46,37.553 46.447,38 47,38 C47.553,38 48,37.553 48,37 L48,34 L53.975,34 C53.463,45.888 43.888,55.463 32,55.975 L32,55.975 Z" id="Shape" fill="#000000"></path>
    </g>
</svg>