<?xml version="1.0" encoding="UTF-8" standalone="no"?>
<svg width="64px" height="64px" viewBox="0 0 64 64" version="1.1" xmlns="http://www.w3.org/2000/svg" xmlns:xlink="http://www.w3.org/1999/xlink">
    <!-- Generator: Sketch 3.7.2 (28276) - http://www.bohemiancoding.com/sketch -->
    <title>gen-reservation</title>
    <desc>Created with Sketch.</desc>
    <defs></defs>
    <g id="64px-Line" stroke="none" stroke-width="1" fill="none" fill-rule="evenodd">
        <g id="gen-reservation"></g>
        <path d="M49.972,8.767 C49.968,8.751 49.956,8.738 49.951,8.722 C49.915,8.599 49.861,8.487 49.787,8.391 C49.782,8.385 49.782,8.376 49.777,8.37 C49.754,8.341 49.718,8.329 49.692,8.303 C49.624,8.236 49.553,8.173 49.469,8.128 C49.423,8.103 49.375,8.091 49.326,8.074 C49.244,8.045 49.162,8.024 49.074,8.017 C49.047,8.014 49.025,8 49,8 L15,8 C14.526,8 14.118,8.333 14.021,8.796 L4.021,56.796 C3.959,57.091 4.034,57.398 4.224,57.631 C4.414,57.864 4.699,58 5,58 L39,58 C39.474,58 39.882,57.667 39.979,57.204 L41.063,52 L59,52 C59.306,52 59.595,51.86 59.785,51.62 C59.975,51.38 60.044,51.066 59.973,50.769 L49.973,8.769 C49.972,8.768 49.972,8.767 49.972,8.767 L49.972,8.767 Z M38.187,56 L6.23,56 L15.813,10 L47.77,10 L38.187,56 L38.187,56 Z M41.48,50 L49.065,13.59 L57.734,50 L41.48,50 L41.48,50 Z" id="Shape" fill="#000000"></path>
        <path d="M39.728,24.314 C39.35,23.913 38.717,23.893 38.314,24.272 L22.238,39.402 L18.867,33.504 C18.593,33.025 17.983,32.858 17.503,33.132 C17.024,33.406 16.857,34.017 17.131,34.496 L21.131,41.496 C21.283,41.762 21.548,41.944 21.851,41.989 C21.9,41.996 21.95,42 21.999,42 C22.252,42 22.498,41.904 22.685,41.728 L39.685,25.728 C40.087,25.35 40.107,24.717 39.728,24.314 L39.728,24.314 Z" id="Shape" fill="#000000"></path>
    </g>
</svg>