<?xml version="1.0" encoding="UTF-8" standalone="no"?>
<svg width="64px" height="64px" viewBox="0 0 64 64" version="1.1" xmlns="http://www.w3.org/2000/svg" xmlns:xlink="http://www.w3.org/1999/xlink">
    <!-- Generator: Sketch 3.7.2 (28276) - http://www.bohemiancoding.com/sketch -->
    <title>gen-heart-rate</title>
    <desc>Created with Sketch.</desc>
    <defs></defs>
    <g id="64px-Line" stroke="none" stroke-width="1" fill="none" fill-rule="evenodd">
        <g id="gen-heart-rate"></g>
        <path d="M58,33 C58,32.448 57.553,32 57,32 L42.618,32 L40.894,28.553 C40.709,28.184 40.325,27.964 39.907,28.005 C39.497,28.043 39.151,28.329 39.038,28.726 L36.11,38.975 L31.975,20.78 C31.871,20.329 31.473,20.007 31.01,20.002 L30.999,20.002 C30.541,20.002 30.141,20.314 30.029,20.759 L27.219,32 L21,32 C20.447,32 20,32.448 20,33 C20,33.552 20.447,34 21,34 L28,34 C28.459,34 28.858,33.688 28.97,33.243 L30.954,25.309 L35.024,43.222 C35.126,43.667 35.515,43.988 35.972,44 L35.999,44 C36.444,44 36.838,43.705 36.961,43.275 L40.254,31.747 L41.105,33.448 C41.275,33.787 41.621,34.001 42,34.001 L57,34.001 C57.553,34 58,33.552 58,33 L58,33 Z" id="Shape" fill="#000000"></path>
        <path d="M55.225,29.904 C55.727,30.142 56.321,29.928 56.557,29.428 C59.267,23.713 58.08,16.867 53.607,12.393 C50.773,9.56 47.006,8 43,8 C38.993,8 35.227,9.561 32.43,12.359 L31,13.652 L29.606,12.394 C26.773,9.561 23.006,8.001 19,8.001 C14.994,8.001 11.227,9.561 8.394,12.394 C2.545,18.242 2.545,27.759 8.391,33.604 L30.29,55.705 C30.478,55.894 30.733,56.001 31,56.001 C31.267,56.001 31.522,55.895 31.71,55.705 L49.546,37.705 C49.935,37.312 49.932,36.679 49.54,36.29 C49.147,35.902 48.515,35.904 48.126,36.296 L31,53.579 L9.808,32.192 C7.353,29.737 6,26.472 6,23 C6,19.527 7.353,16.263 9.808,13.807 C14.877,8.738 23.124,8.739 28.229,13.842 L30.33,15.741 C30.711,16.086 31.291,16.086 31.672,15.741 L33.809,13.807 C36.264,11.352 39.529,9.999 43.001,9.999 C46.473,9.999 49.738,11.351 52.193,13.807 C56.071,17.685 57.098,23.618 54.751,28.572 C54.513,29.071 54.726,29.667 55.225,29.904 L55.225,29.904 Z" id="Shape" fill="#000000"></path>
    </g>
</svg>