<?xml version="1.0" encoding="UTF-8" standalone="no"?>
<svg width="64px" height="64px" viewBox="0 0 64 64" version="1.1" xmlns="http://www.w3.org/2000/svg" xmlns:xlink="http://www.w3.org/1999/xlink">
    <!-- Generator: Sketch 3.7.2 (28276) - http://www.bohemiancoding.com/sketch -->
    <title>gen-cutting</title>
    <desc>Created with Sketch.</desc>
    <defs></defs>
    <g id="64px-Line" stroke="none" stroke-width="1" fill="none" fill-rule="evenodd">
        <g id="gen-cutting"></g>
        <path d="M22.489,40.187 L15.799,44.16 L16.561,36.094 C16.614,35.544 16.209,35.057 15.66,35.005 C15.12,34.938 14.623,35.356 14.571,35.906 L13.83,43.743 C12.844,42.218 10.559,41.818 8.514,42.856 C7.338,43.454 6.474,44.42 6.143,45.506 C5.896,46.317 5.972,47.143 6.357,47.832 C6.943,48.883 8.116,49.45 9.435,49.45 C10.197,49.45 11.006,49.262 11.781,48.868 C11.795,48.861 11.806,48.851 11.819,48.844 C11.825,48.841 11.832,48.84 11.838,48.836 L13.439,47.886 L13.273,49.642 C13.273,49.647 13.275,49.652 13.275,49.657 C13.274,49.676 13.269,49.694 13.269,49.713 C13.214,52.016 14.73,53.939 16.649,53.998 C16.679,53.999 16.711,54 16.741,54 C17.529,54 18.297,53.683 18.912,53.1 C19.726,52.329 20.211,51.169 20.24,49.917 C20.291,47.737 18.93,45.918 17.16,45.677 L23.512,41.905 C23.987,41.624 24.143,41.009 23.861,40.535 C23.578,40.061 22.964,39.902 22.489,40.187 L22.489,40.187 Z M8.104,46.858 C7.984,46.642 7.968,46.383 8.057,46.09 C8.228,45.528 8.738,44.986 9.421,44.639 C9.915,44.388 10.411,44.279 10.848,44.279 C11.483,44.279 11.994,44.509 12.194,44.867 C12.314,45.083 12.33,45.342 12.241,45.635 C12.078,46.171 11.6,46.683 10.964,47.032 L10.864,47.091 C9.652,47.702 8.438,47.46 8.104,46.858 L8.104,46.858 Z M18.239,49.87 C18.222,50.582 17.96,51.246 17.536,51.647 C17.36,51.814 17.068,52.006 16.711,52 C15.903,51.975 15.246,50.955 15.269,49.772 L15.281,49.643 C15.322,48.976 15.571,48.359 15.971,47.981 C16.142,47.819 16.416,47.629 16.765,47.629 L16.795,47.629 C16.795,47.629 16.796,47.629 16.796,47.63 C17.606,47.655 18.268,48.682 18.239,49.87 L18.239,49.87 Z" id="Shape" fill="#000000"></path>
        <path d="M51.414,27.723 C50.483,27.187 49.296,27.064 48.158,27.388 C46.428,27.88 45.231,29.292 45.094,30.788 L41.039,26.328 C40.668,25.921 40.034,25.89 39.626,26.261 C39.218,26.633 39.188,27.265 39.559,27.674 L44.798,33.438 L37.726,35.449 C37.195,35.6 36.886,36.153 37.038,36.684 C37.163,37.123 37.563,37.411 37.999,37.411 C38.09,37.411 38.182,37.399 38.273,37.373 L43.901,35.773 C43.233,37.141 43.587,39.051 44.889,40.483 C45.761,41.441 46.89,41.995 47.989,42.002 L48.01,42.002 C48.825,42.002 49.565,41.69 50.092,41.125 C51.341,39.787 51.113,37.411 49.571,35.715 C49.57,35.714 49.57,35.712 49.568,35.711 L48.449,34.48 L49.903,34.066 C52.021,33.463 53.369,31.485 52.908,29.657 C52.704,28.848 52.174,28.161 51.414,27.723 L51.414,27.723 Z M48.63,39.758 C48.481,39.919 48.273,40 48.01,40 L48.002,40 C47.469,39.996 46.858,39.674 46.37,39.136 C45.478,38.156 45.369,36.925 45.828,36.433 L45.829,36.433 C45.978,36.272 46.187,36.191 46.449,36.191 L46.458,36.191 C46.99,36.195 47.6,36.517 48.088,37.055 C48.98,38.035 49.09,39.267 48.63,39.758 L48.63,39.758 Z M49.356,32.141 C48.743,32.316 48.104,32.262 47.647,31.998 C47.444,31.88 47.182,31.665 47.092,31.309 C46.896,30.531 47.634,29.617 48.704,29.312 C48.942,29.245 49.184,29.211 49.418,29.211 C49.786,29.211 50.134,29.293 50.413,29.454 C50.616,29.572 50.878,29.787 50.968,30.143 C51.165,30.922 50.427,31.836 49.356,32.141 L49.356,32.141 Z" id="Shape" fill="#000000"></path>
        <path d="M31.084,22.6 C30.486,23.147 29.891,23.708 29.301,24.286 C28.919,24.66 28.541,25.041 28.168,25.427 C27.784,25.824 27.795,26.457 28.191,26.841 C28.385,27.029 28.636,27.122 28.886,27.122 C29.148,27.122 29.408,27.02 29.605,26.817 C29.966,26.443 30.331,26.076 30.699,25.715 C31.273,25.153 31.851,24.608 32.433,24.076 C32.84,23.703 32.869,23.071 32.496,22.663 C32.123,22.255 31.492,22.229 31.084,22.6 L31.084,22.6 Z" id="Shape" fill="#000000"></path>
        <path d="M49.858,10.929 C50.032,11.283 50.386,11.487 50.755,11.487 C50.903,11.487 51.055,11.454 51.196,11.383 C52.385,10.796 53.592,10.236 54.783,9.718 C55.29,9.498 55.522,8.908 55.302,8.403 C55.082,7.896 54.495,7.664 53.987,7.884 C52.766,8.414 51.53,8.988 50.312,9.59 C49.817,9.834 49.613,10.434 49.858,10.929 L49.858,10.929 Z" id="Shape" fill="#000000"></path>
        <path d="M19.397,36.551 C18.677,37.643 17.953,38.792 17.243,39.968 C16.958,40.441 17.11,41.055 17.583,41.341 C17.744,41.439 17.923,41.485 18.099,41.485 C18.438,41.485 18.768,41.313 18.956,41.002 C19.651,39.85 20.362,38.723 21.067,37.653 C21.371,37.191 21.244,36.571 20.783,36.267 C20.32,35.964 19.702,36.092 19.397,36.551 L19.397,36.551 Z" id="Shape" fill="#000000"></path>
        <path d="M45.844,11.961 C44.675,12.624 43.506,13.323 42.37,14.04 C41.902,14.335 41.763,14.952 42.058,15.419 C42.248,15.721 42.573,15.886 42.905,15.886 C43.088,15.886 43.272,15.836 43.437,15.732 C44.547,15.032 45.689,14.349 46.831,13.702 C47.311,13.43 47.48,12.819 47.208,12.339 C46.934,11.857 46.323,11.689 45.844,11.961 L45.844,11.961 Z" id="Shape" fill="#000000"></path>
        <path d="M39.336,18.491 C39.785,18.169 39.888,17.544 39.565,17.095 C39.243,16.646 38.619,16.542 38.169,16.866 C37.071,17.655 35.984,18.477 34.939,19.31 C34.507,19.655 34.437,20.284 34.781,20.716 C34.979,20.963 35.27,21.092 35.564,21.092 C35.783,21.092 36.002,21.021 36.187,20.874 C37.206,20.062 38.266,19.26 39.336,18.491 L39.336,18.491 Z" id="Shape" fill="#000000"></path>
        <path d="M24.787,29.215 C23.952,30.226 23.113,31.3 22.292,32.407 C21.963,32.85 22.056,33.477 22.499,33.805 C22.678,33.938 22.887,34.002 23.094,34.002 C23.4,34.002 23.702,33.862 23.898,33.598 C24.699,32.519 25.517,31.472 26.331,30.488 C26.683,30.062 26.622,29.431 26.196,29.08 C25.769,28.729 25.139,28.789 24.787,29.215 L24.787,29.215 Z" id="Shape" fill="#000000"></path>
        <path d="M10.901,54.374 C10.394,54.157 9.804,54.391 9.587,54.897 C8.596,57.201 8.082,58.597 8.061,58.656 C7.872,59.175 8.138,59.749 8.657,59.938 C8.77,59.98 8.886,60 9,60 C9.407,60 9.79,59.749 9.938,59.344 C9.944,59.33 10.457,57.936 11.424,55.689 C11.643,55.181 11.408,54.593 10.901,54.374 L10.901,54.374 Z" id="Shape" fill="#000000"></path>
        <path d="M10.707,24.337 C10.156,24.279 9.663,24.672 9.602,25.22 C9.541,25.769 9.936,26.264 10.485,26.325 C11.579,26.447 12.903,26.611 14.423,26.831 C14.472,26.838 14.52,26.841 14.567,26.841 C15.056,26.841 15.484,26.482 15.556,25.984 C15.634,25.437 15.255,24.93 14.708,24.851 C13.162,24.629 11.818,24.461 10.707,24.337 L10.707,24.337 Z" id="Shape" fill="#000000"></path>
        <path d="M23.433,28.393 C23.898,28.393 24.314,28.068 24.412,27.594 C24.523,27.054 24.175,26.525 23.634,26.413 C22.249,26.128 20.928,25.875 19.68,25.652 C19.134,25.551 18.618,25.917 18.52,26.461 C18.422,27.005 18.785,27.524 19.329,27.621 C20.561,27.842 21.865,28.091 23.232,28.372 C23.298,28.386 23.366,28.393 23.433,28.393 L23.433,28.393 Z" id="Shape" fill="#000000"></path>
        <path d="M32.451,28.494 C31.116,28.138 29.812,27.809 28.547,27.507 C28.012,27.381 27.47,27.71 27.342,28.247 C27.214,28.784 27.545,29.323 28.082,29.452 C29.332,29.751 30.618,30.075 31.936,30.426 C32.023,30.449 32.109,30.46 32.195,30.46 C32.636,30.46 33.041,30.165 33.16,29.718 C33.302,29.184 32.984,28.636 32.451,28.494 L32.451,28.494 Z" id="Shape" fill="#000000"></path>
        <path d="M40.826,33 C41.25,33 41.642,32.729 41.778,32.305 C41.947,31.779 41.657,31.216 41.131,31.048 C39.902,30.655 38.621,30.258 37.289,29.862 C36.754,29.704 36.202,30.008 36.045,30.536 C35.888,31.066 36.19,31.623 36.719,31.78 C38.037,32.172 39.307,32.563 40.522,32.952 C40.623,32.985 40.726,33 40.826,33 L40.826,33 Z" id="Shape" fill="#000000"></path>
        <path d="M59.444,38.104 C59.391,38.078 58.119,37.449 55.745,36.436 C55.239,36.22 54.649,36.456 54.433,36.963 C54.216,37.472 54.453,38.059 54.96,38.275 C57.275,39.262 58.543,39.888 58.556,39.895 C58.699,39.965 58.85,39.999 58.999,39.999 C59.367,39.999 59.722,39.795 59.895,39.443 C60.142,38.949 59.938,38.35 59.444,38.104 L59.444,38.104 Z" id="Shape" fill="#000000"></path>
    </g>
</svg>