<?xml version="1.0" encoding="UTF-8" standalone="no"?>
<svg width="64px" height="64px" viewBox="0 0 64 64" version="1.1" xmlns="http://www.w3.org/2000/svg" xmlns:xlink="http://www.w3.org/1999/xlink">
    <!-- Generator: Sketch 3.7.2 (28276) - http://www.bohemiancoding.com/sketch -->
    <title>gen-mortar-board</title>
    <desc>Created with Sketch.</desc>
    <defs></defs>
    <g id="64px-Line" stroke="none" stroke-width="1" fill="none" fill-rule="evenodd">
        <g id="gen-mortar-board"></g>
        <path d="M63.48,25.123 L32.48,8.123 C32.181,7.959 31.818,7.959 31.519,8.123 L0.519,25.123 C0.199,25.299 -0.001,25.635 -0.001,26 C-0.001,26.365 0.198,26.701 0.519,26.877 L11.536,32.919 C10.52,35.489 10,38.201 10,41 L10,45 C10,45.552 10.447,46 11,46 C12.705,46 14.38,46.182 16,46.518 L16,57 C16,57.552 16.447,58 17,58 C17.553,58 18,57.552 18,57 L18,47.027 C23.692,48.721 28.496,52.423 31.084,57.404 C31.226,57.724 31.527,57.952 31.884,57.993 C31.923,57.998 31.961,58 31.999,58 C32.37,58 32.715,57.793 32.888,57.458 C36.474,50.498 44.368,46 53,46 C53.553,46 54,45.552 54,45 L54,41 C54,38.202 53.48,35.489 52.463,32.919 L63.481,26.877 C63.801,26.701 64.001,26.365 64.001,26 C64.001,25.635 63.801,25.299 63.48,25.123 L63.48,25.123 Z M12,44.019 L12,41 C12,38.542 12.463,36.164 13.326,33.9 L16,35.366 L16,44.483 C14.693,44.233 13.358,44.069 12,44.019 L12,44.019 Z M52,41 L52,44.019 C43.672,44.331 36.077,48.518 32,54.985 C28.93,50.117 23.867,46.542 18,44.939 L18,36.463 L31.52,43.877 C31.669,43.959 31.834,44 32,44 C32.166,44 32.331,43.959 32.48,43.877 L50.673,33.9 C51.537,36.165 52,38.543 52,41 L52,41 Z M32,41.859 L19.206,34.843 L32.515,26.857 C32.989,26.573 33.142,25.959 32.858,25.485 C32.575,25.012 31.961,24.857 31.486,25.142 L17.175,33.729 L3.08,26 L32,10.141 L60.92,26 L32,41.859 L32,41.859 Z" id="Shape" fill="#000000"></path>
    </g>
</svg>