<?xml version="1.0" encoding="UTF-8" standalone="no"?>
<svg width="64px" height="64px" viewBox="0 0 64 64" version="1.1" xmlns="http://www.w3.org/2000/svg" xmlns:xlink="http://www.w3.org/1999/xlink">
    <!-- Generator: Sketch 3.7.2 (28276) - http://www.bohemiancoding.com/sketch -->
    <title>gen-medical-kit</title>
    <desc>Created with Sketch.</desc>
    <defs></defs>
    <g id="64px-Line" stroke="none" stroke-width="1" fill="none" fill-rule="evenodd">
        <g id="gen-medical-kit"></g>
        <path d="M59,14 L52,14 L52,13 C52,12.448 51.553,12 51,12 L49,12 C48.447,12 48,12.448 48,13 L48,14 L16,14 L16,13 C16,12.448 15.553,12 15,12 L13,12 C12.447,12 12,12.448 12,13 L12,14 L5,14 C4.447,14 4,14.448 4,15 L4,57 C4,57.552 4.447,58 5,58 L59,58 C59.553,58 60,57.552 60,57 L60,15 C60,14.448 59.553,14 59,14 L59,14 Z M58,56 L6,56 L6,16 L13,16 L15,16 L49,16 L51,16 L58,16 L58,56 L58,56 Z" id="Shape" fill="#000000"></path>
        <path d="M28,8 C25.794,8 24,9.794 24,12 C24,12.552 24.447,13 25,13 C25.553,13 26,12.552 26,12 C26,10.897 26.897,10 28,10 L36,10 C37.103,10 38,10.897 38,12 C38,12.552 38.447,13 39,13 C39.553,13 40,12.552 40,12 C40,9.794 38.206,8 36,8 L28,8 L28,8 Z" id="Shape" fill="#000000"></path>
        <path d="M45,32 L36,32 L36,23 C36,22.448 35.553,22 35,22 L29,22 C28.447,22 28,22.448 28,23 L28,32 L19,32 C18.447,32 18,32.448 18,33 L18,39 C18,39.552 18.447,40 19,40 L28,40 L28,49 C28,49.552 28.447,50 29,50 L35,50 C35.553,50 36,49.552 36,49 L36,40 L45,40 C45.553,40 46,39.552 46,39 L46,33 C46,32.448 45.553,32 45,32 L45,32 Z M44,38 L35,38 C34.447,38 34,38.448 34,39 L34,48 L30,48 L30,39 C30,38.448 29.553,38 29,38 L20,38 L20,34 L29,34 C29.553,34 30,33.552 30,33 L30,24 L34,24 L34,33 C34,33.552 34.447,34 35,34 L44,34 L44,38 L44,38 Z" id="Shape" fill="#000000"></path>
    </g>
</svg>