<?xml version="1.0" encoding="UTF-8" standalone="no"?>
<svg width="64px" height="64px" viewBox="0 0 64 64" version="1.1" xmlns="http://www.w3.org/2000/svg" xmlns:xlink="http://www.w3.org/1999/xlink">
    <!-- Generator: Sketch 3.7.2 (28276) - http://www.bohemiancoding.com/sketch -->
    <title>gen-mind-map</title>
    <desc>Created with Sketch.</desc>
    <defs></defs>
    <g id="64px-Line" stroke="none" stroke-width="1" fill="none" fill-rule="evenodd">
        <g id="gen-mind-map"></g>
        <path d="M12,18 C7.589,18 4,21.589 4,26 C4,30.411 7.589,34 12,34 C15.027,34 17.667,32.309 19.025,29.823 L24.441,31.942 C24.159,32.914 24,33.938 24,35 C24,37.673 24.961,40.125 26.552,42.034 L23.184,45.402 C22.015,44.526 20.57,44 19,44 C15.141,44 12,47.14 12,51 C12,54.86 15.141,58 19,58 C22.859,58 26,54.86 26,51 C26,49.43 25.474,47.984 24.598,46.815 L27.966,43.447 C29.874,45.039 32.326,45.999 35,45.999 C37.954,45.999 40.635,44.822 42.613,42.92 L44.881,44.885 C44.326,45.796 44,46.859 44,48 C44,51.309 46.691,54 50,54 C53.309,54 56,51.309 56,48 C56,44.691 53.309,42 50,42 C48.553,42 47.224,42.515 46.186,43.371 L43.922,41.409 C45.224,39.602 46,37.392 46,35 C46,33.156 45.539,31.42 44.734,29.893 L47.584,28.049 C48.682,29.245 50.252,30.001 52,30.001 C55.309,30.001 58,27.31 58,24.001 C58,20.692 55.309,18.001 52,18.001 C48.691,18.001 46,20.692 46,24.001 C46,24.844 46.177,25.646 46.492,26.375 L43.643,28.219 C41.627,25.655 38.506,24 35,24 C34.671,24 34.347,24.021 34.025,24.049 L33.222,19.632 C35.995,18.7 38,16.082 38,13 C38,9.14 34.859,6 31,6 C27.141,6 24,9.14 24,13 C24,16.86 27.141,20 31,20 C31.086,20 31.169,19.99 31.255,19.987 L32.059,24.411 C29.046,25.249 26.555,27.336 25.175,30.081 L19.748,27.957 C19.906,27.33 20,26.677 20,26 C20,21.589 16.411,18 12,18 L12,18 Z M52,20 C54.206,20 56,21.794 56,24 C56,26.206 54.206,28 52,28 C49.794,28 48,26.206 48,24 C48,21.794 49.794,20 52,20 L52,20 Z M26,13 C26,10.243 28.243,8 31,8 C33.757,8 36,10.243 36,13 C36,15.757 33.757,18 31,18 C28.243,18 26,15.757 26,13 L26,13 Z M19,56 C16.243,56 14,53.757 14,51 C14,48.243 16.243,46 19,46 C21.757,46 24,48.243 24,51 C24,53.757 21.757,56 19,56 L19,56 Z M54,48 C54,50.206 52.206,52 50,52 C47.794,52 46,50.206 46,48 C46,45.794 47.794,44 50,44 C52.206,44 54,45.794 54,48 L54,48 Z M35,26 C39.963,26 44,30.038 44,35 C44,39.962 39.963,44 35,44 C30.037,44 26,39.962 26,35 C26,30.038 30.037,26 35,26 L35,26 Z M12,32 C8.691,32 6,29.309 6,26 C6,22.691 8.691,20 12,20 C15.309,20 18,22.691 18,26 C18,29.309 15.309,32 12,32 L12,32 Z" id="Shape" fill="#000000"></path>
    </g>
</svg>