<?xml version="1.0" encoding="UTF-8" standalone="no"?>
<svg width="64px" height="64px" viewBox="0 0 64 64" version="1.1" xmlns="http://www.w3.org/2000/svg" xmlns:xlink="http://www.w3.org/1999/xlink">
    <!-- Generator: Sketch 3.7.2 (28276) - http://www.bohemiancoding.com/sketch -->
    <title>gen-bookmark</title>
    <desc>Created with Sketch.</desc>
    <defs></defs>
    <g id="64px-Line" stroke="none" stroke-width="1" fill="none" fill-rule="evenodd">
        <g id="gen-bookmark"></g>
        <path d="M7,20 L22,20 L22,59 C22,59.399 22.237,59.76 22.604,59.918 C22.971,60.077 23.395,60.001 23.686,59.728 L40,44.373 L56.314,59.728 C56.504,59.906 56.75,60 57,60 C57.134,60 57.269,59.973 57.396,59.918 C57.763,59.76 58,59.399 58,59 L58,15 C58,10.038 53.963,6 49,6 L15,6 C10.037,6 6,10.038 6,15 L6,19 C6,19.552 6.447,20 7,20 L7,20 Z M49,8 C52.859,8 56,11.14 56,15 L56,56.686 L40.686,42.272 C40.301,41.91 39.7,41.91 39.315,42.272 L24,56.686 L24,15 C24,12.174 22.688,9.651 20.644,8 L49,8 L49,8 Z M8,15 C8,11.14 11.141,8 15,8 C18.859,8 22,11.14 22,15 L22,18 L8,18 L8,15 L8,15 Z" id="Shape" fill="#000000"></path>
    </g>
</svg>