<?xml version="1.0" encoding="UTF-8" standalone="no"?>
<svg width="64px" height="64px" viewBox="0 0 64 64" version="1.1" xmlns="http://www.w3.org/2000/svg" xmlns:xlink="http://www.w3.org/1999/xlink">
    <!-- Generator: Sketch 3.7.2 (28276) - http://www.bohemiancoding.com/sketch -->
    <title>gen-controller-ps</title>
    <desc>Created with Sketch.</desc>
    <defs></defs>
    <g id="64px-Line" stroke="none" stroke-width="1" fill="none" fill-rule="evenodd">
        <g id="gen-controller-ps"></g>
        <path d="M52.566,60 L52.613,60 C52.953,59.998 53.361,59.984 53.809,59.904 C55.404,59.62 56.564,58.939 57.259,57.88 C58.074,56.636 58.216,54.964 57.693,52.768 C57.03,49.984 53.896,37.134 52.757,32.464 L52.346,30.779 C51.276,25.691 46.627,22 41.287,22 L32,22 L32,20 C32,17.794 30.206,16 28,16 L24,16 C22.897,16 22,15.103 22,14 C22,12.897 22.897,12 24,12 L34,12 C36.206,12 38,10.206 38,8 L38,7 C38,6.448 37.553,6 37,6 C36.447,6 36,6.448 36,7 L36,8 C36,9.103 35.103,10 34,10 L24,10 C21.794,10 20,11.794 20,14 C20,16.206 21.794,18 24,18 L28,18 C29.103,18 30,18.897 30,20 L30,22 L20.712,22 C15.375,22 10.725,25.692 9.658,30.763 C9.658,30.763 5.121,49.351 4.306,52.768 C3.783,54.964 3.924,56.636 4.74,57.88 C5.435,58.94 6.595,59.621 8.189,59.904 C8.634,59.984 9.044,59.997 9.386,60 C12.319,60.036 13.723,57.957 15.364,55.565 L23.296,44 L38.705,44 L46.637,55.566 C48.269,57.944 49.679,60 52.566,60 L52.566,60 Z M13.715,54.434 C11.944,57.016 11.11,58 9.436,58 L9.403,58 C9.132,57.998 8.84,57.989 8.541,57.936 C7.496,57.75 6.801,57.373 6.414,56.784 C5.924,56.036 5.869,54.841 6.253,53.233 C7.067,49.817 11.603,31.238 11.612,31.191 C12.489,27.024 16.316,24.001 20.713,24.001 L41.289,24.001 C45.693,24.001 49.521,27.031 50.399,31.238 C50.399,31.238 54.934,49.817 55.749,53.233 C56.133,54.841 56.078,56.036 55.588,56.784 C55.201,57.373 54.506,57.75 53.461,57.936 C53.16,57.99 52.868,57.999 52.599,58.001 L52.567,58.001 C50.893,58.001 50.058,57.017 48.288,54.436 L41.126,43.995 C42.594,43.979 44.018,43.683 45.358,43.104 C45.865,42.885 46.098,42.296 45.879,41.79 C45.66,41.283 45.071,41.048 44.565,41.269 C43.438,41.753 42.238,42 41,42 L21,42 C19.747,42 18.535,41.748 17.399,41.251 C16.893,41.028 16.303,41.26 16.083,41.766 C15.861,42.272 16.092,42.862 16.599,43.083 C17.951,43.675 19.39,43.977 20.876,43.993 L13.715,54.434 L13.715,54.434 Z" id="Shape" fill="#000000"></path>
        <path d="M17,34 L20,34 L20,37 C20,37.552 20.447,38 21,38 C21.553,38 22,37.552 22,37 L22,34 L25,34 C25.553,34 26,33.552 26,33 C26,32.448 25.553,32 25,32 L22,32 L22,29 C22,28.448 21.553,28 21,28 C20.447,28 20,28.448 20,29 L20,32 L17,32 C16.447,32 16,32.448 16,33 C16,33.552 16.447,34 17,34 L17,34 Z" id="Shape" fill="#000000"></path>
        <circle id="Oval" fill="#000000" cx="37" cy="33" r="2"></circle>
        <circle id="Oval" fill="#000000" cx="41" cy="29" r="2"></circle>
        <circle id="Oval" fill="#000000" cx="45" cy="33" r="2"></circle>
        <circle id="Oval" fill="#000000" cx="41" cy="37" r="2"></circle>
    </g>
</svg>