<?xml version="1.0" encoding="UTF-8" standalone="no"?>
<svg width="64px" height="64px" viewBox="0 0 64 64" version="1.1" xmlns="http://www.w3.org/2000/svg" xmlns:xlink="http://www.w3.org/1999/xlink">
    <!-- Generator: Sketch 3.7.2 (28276) - http://www.bohemiancoding.com/sketch -->
    <title>gen-light</title>
    <desc>Created with Sketch.</desc>
    <defs></defs>
    <g id="64px-Line" stroke="none" stroke-width="1" fill="none" fill-rule="evenodd">
        <g id="gen-light"></g>
        <path d="M37.98,52.804 C37.872,52.262 37.349,51.908 36.803,52.02 L26.803,54.02 C26.261,54.128 25.91,54.655 26.019,55.197 C26.114,55.673 26.532,56.001 26.998,56.001 C27.063,56.001 27.129,55.995 27.195,55.981 L37.195,53.981 C37.738,53.872 38.089,53.346 37.98,52.804 L37.98,52.804 Z" id="Shape" fill="#000000"></path>
        <path d="M36.804,48.02 L26.804,50.02 C26.262,50.128 25.911,50.655 26.02,51.197 C26.115,51.673 26.533,52.001 26.999,52.001 C27.064,52.001 27.13,51.995 27.196,51.981 L37.196,49.981 C37.738,49.873 38.089,49.346 37.98,48.804 C37.873,48.262 37.349,47.906 36.804,48.02 L36.804,48.02 Z" id="Shape" fill="#000000"></path>
        <path d="M35.78,56.225 L27.78,58.025 C27.241,58.146 26.903,58.681 27.024,59.22 C27.128,59.685 27.541,60 27.999,60 C28.072,60 28.145,59.992 28.22,59.976 L36.22,58.176 C36.759,58.055 37.097,57.52 36.976,56.981 C36.854,56.441 36.318,56.101 35.78,56.225 L35.78,56.225 Z" id="Shape" fill="#000000"></path>
        <path d="M40.133,44.988 C40.982,38.518 45.66,33.754 45.762,33.647 C48.495,30.431 50,26.294 50,22 C50,12.075 41.925,4 32,4 C22.075,4 14,12.075 14,22 C14,26.271 15.504,30.407 18.293,33.707 C18.34,33.754 23.017,38.496 23.862,44.944 C23.953,46.001 24.725,48 27,48 L37,48 C39.17,48 40.067,46.156 40.133,44.988 L40.133,44.988 Z M37,46 L27,46 C26.056,46 25.885,45.055 25.851,44.729 C24.913,37.569 19.92,32.504 19.765,32.355 C17.337,29.478 16,25.8 16,22 C16,13.178 23.178,6 32,6 C40.822,6 48,13.178 48,22 C48,25.82 46.664,29.497 44.293,32.293 C44.081,32.505 39.089,37.568 38.144,44.79 C38.115,45.154 37.946,46 37,46 L37,46 Z" id="Shape" fill="#000000"></path>
        <path d="M32,8 C24.28,8 18,14.28 18,22 C18,22.553 18.448,23 19,23 C19.552,23 20,22.553 20,22 C20,15.383 25.383,10 32,10 C32.552,10 33,9.553 33,9 C33,8.447 32.552,8 32,8 L32,8 Z" id="Shape" fill="#000000"></path>
    </g>
</svg>