<?xml version="1.0" encoding="UTF-8" standalone="no"?>
<svg width="64px" height="64px" viewBox="0 0 64 64" version="1.1" xmlns="http://www.w3.org/2000/svg" xmlns:xlink="http://www.w3.org/1999/xlink">
    <!-- Generator: Sketch 3.7.2 (28276) - http://www.bohemiancoding.com/sketch -->
    <title>gen-rss</title>
    <desc>Created with Sketch.</desc>
    <defs></defs>
    <g id="64px-Line" stroke="none" stroke-width="1" fill="none" fill-rule="evenodd">
        <g id="gen-rss"></g>
        <path d="M54,6 L10,6 C7.794,6 6,7.794 6,10 L6,54 C6,56.206 7.794,58 10,58 L54,58 C56.206,58 58,56.206 58,54 L58,10 C58,7.794 56.206,6 54,6 L54,6 Z M56,54 C56,55.103 55.103,56 54,56 L10,56 C8.897,56 8,55.103 8,54 L8,10 C8,8.897 8.897,8 10,8 L54,8 C55.103,8 56,8.897 56,10 L56,54 L56,54 Z" id="Shape" fill="#000000"></path>
        <path d="M18,42 C15.794,42 14,43.794 14,46 C14,48.206 15.794,50 18,50 C20.206,50 22,48.206 22,46 C22,43.794 20.206,42 18,42 L18,42 Z M18,48 C16.897,48 16,47.103 16,46 C16,44.897 16.897,44 18,44 C19.103,44 20,44.897 20,46 C20,47.103 19.103,48 18,48 L18,48 Z" id="Shape" fill="#000000"></path>
        <path d="M15,28 C14.447,28 14,28.447 14,29 C14,29.553 14.447,30 15,30 C25.477,30 34,38.523 34,49 C34,49.553 34.447,50 35,50 C35.553,50 36,49.553 36,49 C36,37.421 26.579,28 15,28 L15,28 Z" id="Shape" fill="#000000"></path>
        <path d="M15,14 C14.447,14 14,14.447 14,15 C14,15.553 14.447,16 15,16 C33.196,16 48,30.804 48,49 C48,49.553 48.447,50 49,50 C49.553,50 50,49.553 50,49 C50,29.701 34.299,14 15,14 L15,14 Z" id="Shape" fill="#000000"></path>
    </g>
</svg>