<?xml version="1.0" encoding="UTF-8" standalone="no"?>
<svg width="64px" height="64px" viewBox="0 0 64 64" version="1.1" xmlns="http://www.w3.org/2000/svg" xmlns:xlink="http://www.w3.org/1999/xlink">
    <!-- Generator: Sketch 3.7.2 (28276) - http://www.bohemiancoding.com/sketch -->
    <title>gen-light-bulb-on</title>
    <desc>Created with Sketch.</desc>
    <defs></defs>
    <g id="64px-Line" stroke="none" stroke-width="1" fill="none" fill-rule="evenodd">
        <g id="gen-light-bulb-on"></g>
        <path d="M25.999,60 C26.064,60 26.13,59.994 26.196,59.98 L36.196,57.98 C36.738,57.872 37.089,57.345 36.98,56.803 C36.872,56.261 36.349,55.906 35.803,56.019 L25.803,58.019 C25.261,58.127 24.91,58.654 25.019,59.196 C25.114,59.672 25.532,60 25.999,60 L25.999,60 Z" id="Shape" fill="#000000"></path>
        <path d="M26.196,55.98 L36.196,53.98 C36.738,53.872 37.089,53.345 36.98,52.803 C36.872,52.261 36.349,51.907 35.803,52.019 L25.803,54.019 C25.261,54.127 24.91,54.654 25.019,55.196 C25.114,55.672 25.532,56 25.998,56 C26.064,56 26.13,55.994 26.196,55.98 L26.196,55.98 Z" id="Shape" fill="#000000"></path>
        <path d="M31,2 C30.448,2 30,2.447 30,3 L30,7 C30,7.553 30.448,8 31,8 C31.552,8 32,7.553 32,7 L32,3 C32,2.447 31.552,2 31,2 L31,2 Z" id="Shape" fill="#000000"></path>
        <path d="M7,26 C6.448,26 6,26.447 6,27 C6,27.553 6.448,28 7,28 L11,28 C11.552,28 12,27.553 12,27 C12,26.447 11.552,26 11,26 L7,26 L7,26 Z" id="Shape" fill="#000000"></path>
        <path d="M55,26 L51,26 C50.448,26 50,26.447 50,27 C50,27.553 50.448,28 51,28 L55,28 C55.552,28 56,27.553 56,27 C56,26.447 55.552,26 55,26 L55,26 Z" id="Shape" fill="#000000"></path>
        <path d="M48.707,9.293 C48.316,8.902 47.684,8.902 47.293,9.293 L44.293,12.293 C43.902,12.684 43.902,13.316 44.293,13.707 C44.488,13.902 44.744,14 45,14 C45.256,14 45.512,13.902 45.707,13.707 L48.707,10.707 C49.098,10.316 49.098,9.684 48.707,9.293 L48.707,9.293 Z" id="Shape" fill="#000000"></path>
        <path d="M45.707,40.293 C45.316,39.902 44.684,39.902 44.293,40.293 C43.902,40.684 43.902,41.316 44.293,41.707 L47.293,44.707 C47.488,44.902 47.744,45 48,45 C48.256,45 48.512,44.902 48.707,44.707 C49.098,44.316 49.098,43.684 48.707,43.293 L45.707,40.293 L45.707,40.293 Z" id="Shape" fill="#000000"></path>
        <path d="M16.293,13.707 C16.488,13.902 16.744,14 17,14 C17.256,14 17.512,13.902 17.707,13.707 C18.098,13.316 18.098,12.684 17.707,12.293 L14.707,9.293 C14.316,8.902 13.684,8.902 13.293,9.293 C12.902,9.684 12.902,10.316 13.293,10.707 L16.293,13.707 L16.293,13.707 Z" id="Shape" fill="#000000"></path>
        <path d="M13.293,44.707 C13.488,44.902 13.744,45 14,45 C14.256,45 14.512,44.902 14.707,44.707 L17.707,41.707 C18.098,41.316 18.098,40.684 17.707,40.293 C17.316,39.902 16.684,39.902 16.293,40.293 L13.293,43.293 C12.902,43.684 12.902,44.316 13.293,44.707 L13.293,44.707 Z" id="Shape" fill="#000000"></path>
        <path d="M34.757,60.03 L26.757,62.03 C26.221,62.164 25.896,62.707 26.029,63.242 C26.143,63.697 26.55,64 26.998,64 C27.079,64 27.16,63.99 27.242,63.97 L35.242,61.97 C35.778,61.836 36.103,61.293 35.97,60.758 C35.836,60.221 35.293,59.897 34.757,60.03 L34.757,60.03 Z" id="Shape" fill="#000000"></path>
        <path d="M31,10 C20.991,10 14,16.99 14,27 C14,30.994 15.227,34.078 18.218,37.624 C18.256,37.671 22.009,42.436 22.862,48.944 C22.952,50.001 23.724,52 26,52 L36,52 C38.17,52 39.067,50.156 39.133,48.988 C39.989,42.46 43.744,37.671 43.762,37.647 C46.772,34.104 48,31.02 48,27 C48,16.99 41.009,10 31,10 L31,10 Z M28,34 L26,34 C24.897,34 24,33.103 24,32 C24,30.897 24.897,30 26,30 C27.103,30 28,30.897 28,32 L28,34 L28,34 Z M32,50 L30,50 L30,36 L32,36 L32,50 L32,50 Z M42.218,36.376 C42.05,36.587 38.081,41.629 37.144,48.79 C37.115,49.154 36.946,50 36,50 L34,50 L34,36 L36,36 C38.206,36 40,34.206 40,32 C40,29.794 38.206,28 36,28 C33.794,28 32,29.794 32,32 L32,34 L30,34 L30,32 C30,29.794 28.206,28 26,28 C23.794,28 22,29.794 22,32 C22,34.206 23.794,36 26,36 L28,36 L28,50 L26,50 C25.056,50 24.885,49.055 24.851,48.729 C23.92,41.629 19.951,36.586 19.765,36.355 C17.505,33.677 16,31.061 16,27 C16,18.168 22.168,12 31,12 C39.832,12 46,18.168 46,27 C46,31.087 44.496,33.694 42.218,36.376 L42.218,36.376 Z M34,34 L34,32 C34,30.897 34.897,30 36,30 C37.103,30 38,30.897 38,32 C38,33.103 37.103,34 36,34 L34,34 L34,34 Z" id="Shape" fill="#000000"></path>
    </g>
</svg>