<?xml version="1.0" encoding="UTF-8" standalone="no"?>
<svg width="64px" height="64px" viewBox="0 0 64 64" version="1.1" xmlns="http://www.w3.org/2000/svg" xmlns:xlink="http://www.w3.org/1999/xlink">
    <!-- Generator: Sketch 3.7.2 (28276) - http://www.bohemiancoding.com/sketch -->
    <title>gen-lifebelt</title>
    <desc>Created with Sketch.</desc>
    <defs></defs>
    <g id="64px-Line" stroke="none" stroke-width="1" fill="none" fill-rule="evenodd">
        <g id="gen-lifebelt"></g>
        <path d="M6.892,45.134 C6.318,46.338 6,47.659 6,49 C6,53.962 10.038,58 15,58 C16.341,58 17.662,57.682 18.866,57.108 C22.517,58.954 26.637,60 31,60 C35.363,60 39.483,58.954 43.134,57.108 C44.338,57.682 45.659,58 47,58 C51.962,58 56,53.962 56,49 C56,47.659 55.682,46.338 55.108,45.134 C56.954,41.483 58,37.363 58,33 C58,28.637 56.954,24.517 55.108,20.866 C55.682,19.662 56,18.341 56,17 C56,12.038 51.962,8 47,8 C45.659,8 44.338,8.318 43.134,8.892 C39.483,7.046 35.362,6 31,6 C26.638,6 22.517,7.046 18.866,8.892 C17.662,8.318 16.341,8 15,8 C10.038,8 6,12.038 6,17 C6,18.341 6.318,19.662 6.892,20.866 C5.046,24.517 4,28.637 4,33 C4,37.363 5.046,41.483 6.892,45.134 L6.892,45.134 Z M8.443,22.229 L17.327,26.864 C16.482,28.74 16,30.813 16,33 C16,35.187 16.481,37.26 17.326,39.135 L8.442,43.77 C6.878,40.507 6,36.854 6,33 C6,29.146 6.878,25.493 8.443,22.229 L8.443,22.229 Z M18.483,11.373 L23.295,20.154 C21.253,21.383 19.531,23.08 18.271,25.102 L9.383,20.465 C11.575,16.701 14.718,13.561 18.483,11.373 L18.483,11.373 Z M52.616,20.465 L43.728,25.102 C42.469,23.08 40.746,21.383 38.704,20.154 L43.516,11.373 C47.282,13.561 50.425,16.701 52.616,20.465 L52.616,20.465 Z M44,33 C44,40.168 38.168,46 31,46 C23.832,46 18,40.168 18,33 C18,25.832 23.832,20 31,20 C38.168,20 44,25.832 44,33 L44,33 Z M43.517,54.627 L38.705,45.846 C40.747,44.617 42.469,42.92 43.729,40.898 L52.617,45.535 C50.425,49.299 47.282,52.439 43.517,54.627 L43.517,54.627 Z M9.384,45.535 L18.272,40.898 C19.531,42.92 21.254,44.617 23.296,45.846 L18.484,54.627 C14.718,52.439 11.575,49.299 9.384,45.535 L9.384,45.535 Z M15,56 C11.14,56 8,52.86 8,49 C8,48.463 8.063,47.929 8.184,47.41 C10.329,50.795 13.205,53.67 16.59,55.816 C16.07,55.937 15.537,56 15,56 L15,56 Z M20.249,55.566 L25.068,46.772 C26.889,47.559 28.893,48 31,48 C33.107,48 35.111,47.559 36.932,46.772 L41.751,55.566 C38.493,57.125 34.847,58 31,58 C27.153,58 23.507,57.125 20.249,55.566 L20.249,55.566 Z M54,49 C54,52.86 50.86,56 47,56 C46.463,56 45.93,55.937 45.41,55.816 C48.795,53.67 51.67,50.795 53.816,47.41 C53.937,47.929 54,48.463 54,49 L54,49 Z M53.557,43.771 L44.673,39.136 C45.519,37.26 46,35.187 46,33 C46,30.813 45.518,28.74 44.674,26.865 L53.558,22.23 C55.122,25.493 56,29.146 56,33 C56,36.854 55.122,40.507 53.557,43.771 L53.557,43.771 Z M47,10 C50.86,10 54,13.14 54,17 C54,17.537 53.937,18.071 53.816,18.59 C51.67,15.205 48.795,12.33 45.41,10.184 C45.93,10.063 46.463,10 47,10 L47,10 Z M41.751,10.434 L36.932,19.229 C35.111,18.441 33.107,18 31,18 C28.893,18 26.889,18.441 25.068,19.228 L20.249,10.433 C23.508,8.875 27.153,8 31,8 C34.847,8 38.492,8.875 41.751,10.434 L41.751,10.434 Z M8,17 C8,13.14 11.14,10 15,10 C15.537,10 16.07,10.063 16.59,10.184 C13.205,12.33 10.33,15.205 8.184,18.59 C8.063,18.071 8,17.537 8,17 L8,17 Z" id="Shape" fill="#000000"></path>
    </g>
</svg>