<?xml version="1.0" encoding="UTF-8" standalone="no"?>
<svg width="64px" height="64px" viewBox="0 0 64 64" version="1.1" xmlns="http://www.w3.org/2000/svg" xmlns:xlink="http://www.w3.org/1999/xlink">
    <!-- Generator: Sketch 3.7.2 (28276) - http://www.bohemiancoding.com/sketch -->
    <title>gen-target</title>
    <desc>Created with Sketch.</desc>
    <defs></defs>
    <g id="64px-Line" stroke="none" stroke-width="1" fill="none" fill-rule="evenodd">
        <g id="gen-target"></g>
        <path d="M31,6 C16.112,6 4,18.112 4,33 C4,47.888 16.112,60 31,60 C45.888,60 58,47.888 58,33 C58,18.112 45.888,6 31,6 L31,6 Z M31,58 C17.215,58 6,46.785 6,33 C6,19.215 17.215,8 31,8 C44.785,8 56,19.215 56,33 C56,46.785 44.785,58 31,58 L31,58 Z" id="Shape" fill="#000000"></path>
        <path d="M31,14 C20.523,14 12,22.523 12,33 C12,43.477 20.523,52 31,52 C41.477,52 50,43.477 50,33 C50,22.523 41.477,14 31,14 L31,14 Z M31,50 C21.626,50 14,42.374 14,33 C14,23.626 21.626,16 31,16 C40.374,16 48,23.626 48,33 C48,42.374 40.374,50 31,50 L31,50 Z" id="Shape" fill="#000000"></path>
        <path d="M31,22 C24.935,22 20,26.935 20,33 C20,39.065 24.935,44 31,44 C37.065,44 42,39.065 42,33 C42,26.935 37.065,22 31,22 L31,22 Z M31,42 C26.037,42 22,37.963 22,33 C22,28.037 26.037,24 31,24 C35.963,24 40,28.037 40,33 C40,37.963 35.963,42 31,42 L31,42 Z" id="Shape" fill="#000000"></path>
        <path d="M31,30 C29.346,30 28,31.346 28,33 C28,34.654 29.346,36 31,36 C32.654,36 34,34.654 34,33 C34,31.346 32.654,30 31,30 L31,30 Z M31,34 C30.448,34 30,33.552 30,33 C30,32.448 30.448,32 31,32 C31.552,32 32,32.448 32,33 C32,33.552 31.552,34 31,34 L31,34 Z" id="Shape" fill="#000000"></path>
    </g>
</svg>