<?xml version="1.0" encoding="UTF-8" standalone="no"?>
<svg width="64px" height="64px" viewBox="0 0 64 64" version="1.1" xmlns="http://www.w3.org/2000/svg" xmlns:xlink="http://www.w3.org/1999/xlink">
    <!-- Generator: Sketch 3.7.2 (28276) - http://www.bohemiancoding.com/sketch -->
    <title>gen-gecko</title>
    <desc>Created with Sketch.</desc>
    <defs></defs>
    <g id="64px-Line" stroke="none" stroke-width="1" fill="none" fill-rule="evenodd">
        <g id="gen-gecko"></g>
        <path d="M55.005,32 C53.281,32 51.625,32.633 50.341,33.784 C50.315,33.807 50.29,33.832 50.266,33.858 C46.981,36.921 38.73,36.316 35.667,34.636 C37.13,30.761 44.722,22.188 49.245,21.99 C49.278,21.991 49.309,21.991 49.342,21.99 C51.064,21.897 52.684,21.172 53.904,19.95 C56.631,17.221 56.631,12.781 53.904,10.051 C52.583,8.729 50.826,8.001 48.958,8.001 C47.09,8.001 45.333,8.729 44.012,10.051 C42.793,11.272 42.07,12.891 41.975,14.613 C41.973,14.649 41.973,14.684 41.975,14.719 C41.787,19.378 33.132,27.022 29.329,28.328 C27.652,25.221 27.062,17.06 30.118,13.745 C30.144,13.722 30.169,13.697 30.192,13.67 C31.342,12.385 31.976,10.727 31.976,9.001 C31.976,5.141 28.838,2.001 24.981,2.001 C21.124,2.001 17.986,5.141 17.986,9.001 C17.986,10.725 18.619,12.383 19.767,13.668 C19.791,13.694 19.816,13.719 19.842,13.743 C23.041,17.178 22.3,25.713 20.487,28.59 C19.634,28.554 18.576,28.307 17.691,27.481 C16.623,26.482 16.047,24.883 15.98,22.726 C15.982,22.689 15.982,22.653 15.98,22.617 C15.885,20.894 15.162,19.273 13.942,18.053 C12.621,16.731 10.864,16.003 8.995,16.003 L8.995,16.003 C7.126,16.003 5.37,16.732 4.05,18.053 C1.323,20.782 1.323,25.223 4.05,27.952 C5.269,29.171 6.887,29.896 8.608,29.992 C8.646,29.993 8.683,29.994 8.721,29.992 C11.139,30.059 12.937,30.795 13.924,32.121 C14.646,33.093 14.868,34.346 14.531,35.559 C14.523,35.589 14.516,35.62 14.51,35.65 C14.155,36.759 13.975,37.886 13.975,39.003 C13.975,45.068 18.913,50.003 24.981,50.003 C26.126,50.003 27.252,49.828 28.332,49.482 C28.369,49.475 28.405,49.467 28.44,49.456 C29.641,49.1 30.829,49.288 31.793,49.988 C33.129,50.958 33.905,52.835 33.982,55.278 C33.98,55.315 33.98,55.351 33.982,55.387 C34.077,57.11 34.8,58.731 36.02,59.951 C37.341,61.274 39.098,62.002 40.967,62.002 L40.967,62.002 C42.836,62.002 44.592,61.273 45.912,59.951 C48.639,57.222 48.639,52.782 45.912,50.052 C44.693,48.833 43.075,48.108 41.355,48.012 C41.315,48.011 41.275,48.01 41.236,48.012 C39.073,47.952 37.475,47.388 36.486,46.336 C35.663,45.461 35.417,44.396 35.381,43.537 C38.171,41.73 46.829,40.968 50.265,44.141 C50.288,44.167 50.313,44.192 50.34,44.216 C51.624,45.367 53.281,46.002 55.006,46.002 C58.863,46.002 62.001,42.862 62.001,39.002 C62.001,35.142 58.862,32 55.005,32 L55.005,32 Z M55.005,44 C53.799,44 52.639,43.566 51.731,42.775 C51.72,42.764 51.71,42.753 51.698,42.742 C47.438,38.69 36.95,39.521 33.731,42.273 C33.52,42.454 33.393,42.715 33.382,42.994 C33.308,44.852 33.877,46.48 35.028,47.704 C36.411,49.175 38.513,49.952 41.274,50.012 L41.323,50.012 C42.521,50.098 43.645,50.612 44.496,51.463 C46.444,53.413 46.444,56.586 44.496,58.535 C43.554,59.48 42.3,60 40.966,60 C39.632,60 38.377,59.48 37.434,58.535 C36.58,57.681 36.067,56.553 35.983,55.35 L35.983,55.304 C35.904,52.186 34.834,49.722 32.967,48.367 C31.548,47.336 29.749,47.021 28.014,47.495 C27.953,47.503 27.893,47.517 27.834,47.537 C26.917,47.844 25.957,48 24.98,48 C20.014,48 15.974,43.962 15.974,39 C15.974,38.052 16.135,37.091 16.452,36.142 C16.473,36.078 16.488,36.013 16.495,35.947 C16.941,34.179 16.592,32.356 15.527,30.925 C14.566,29.633 12.598,28.073 8.686,27.988 C8.671,27.988 8.657,27.987 8.643,27.988 C7.443,27.903 6.316,27.389 5.464,26.536 C3.516,24.586 3.516,21.414 5.464,19.464 C6.407,18.52 7.661,18 8.994,18 C10.328,18 11.583,18.52 12.526,19.464 C13.38,20.318 13.893,21.446 13.977,22.649 L13.977,22.695 C14.046,25.449 14.836,27.55 16.324,28.941 C17.514,30.053 19.145,30.636 20.909,30.591 C21.232,30.619 21.548,30.492 21.763,30.231 C24.453,26.967 25.231,16.483 21.238,12.309 C21.229,12.3 21.219,12.29 21.21,12.281 C20.419,11.37 19.985,10.208 19.985,9 C19.985,6.243 22.226,4 24.98,4 C27.734,4 29.975,6.243 29.975,9 C29.975,10.208 29.541,11.369 28.751,12.278 C28.74,12.289 28.729,12.3 28.718,12.311 C24.834,16.4 25.5,26.665 28.078,30.079 C28.302,30.376 28.669,30.527 29.04,30.463 C33.177,29.774 43.844,20.762 43.976,14.691 L43.976,14.647 C44.06,13.445 44.574,12.317 45.427,11.464 C46.37,10.52 47.624,10 48.958,10 C50.292,10 51.546,10.52 52.489,11.463 C54.437,13.413 54.437,16.586 52.489,18.535 C51.635,19.391 50.506,19.905 49.304,19.987 L49.263,19.987 C43.382,20.136 34.427,30.631 33.519,34.851 C33.438,35.225 33.578,35.611 33.878,35.847 C37.263,38.514 47.546,39.236 51.701,35.254 C51.711,35.245 51.72,35.235 51.729,35.225 C52.638,34.434 53.798,33.999 55.005,33.999 C57.759,33.999 60,36.242 60,38.999 C60,41.756 57.759,44 55.005,44 L55.005,44 Z" id="Shape" fill="#000000"></path>
    </g>
</svg>