<?xml version="1.0" encoding="UTF-8" standalone="no"?>
<svg width="64px" height="64px" viewBox="0 0 64 64" version="1.1" xmlns="http://www.w3.org/2000/svg" xmlns:xlink="http://www.w3.org/1999/xlink">
    <!-- Generator: Sketch 3.7.2 (28276) - http://www.bohemiancoding.com/sketch -->
    <title>gen-sack</title>
    <desc>Created with Sketch.</desc>
    <defs></defs>
    <g id="64px-Line" stroke="none" stroke-width="1" fill="none" fill-rule="evenodd">
        <g id="gen-sack"></g>
        <path d="M14,31 L14,38 C14,48.191 11.427,51.501 11.38,51.561 C10.737,52.395 10,53.54 10,55 C10,57.757 12.243,60 15,60 L47,60 C49.757,60 52,57.757 52,55 C52,53.564 51.383,52.604 50.601,51.536 C50.575,51.504 48,48.191 48,38 L48,31 C48,25.272 43.598,20.558 38,20.051 L38,17 C38,11.695 45.373,7.932 45.448,7.894 C45.735,7.75 45.935,7.477 45.986,7.16 C46.038,6.843 45.934,6.521 45.707,6.294 C44.615,5.2 41.629,4 40,4 C37.897,4 36.224,4.653 35.184,5.79 C34.379,4.6 32.982,4 31,4 C29.018,4 27.621,4.6 26.816,5.79 C25.776,4.654 24.102,4 22,4 C20.371,4 17.385,5.2 16.293,6.293 C16.065,6.52 15.961,6.843 16.013,7.16 C16.065,7.477 16.266,7.75 16.553,7.894 C16.627,7.932 24,11.68 24,17 L24,20.051 C18.402,20.558 14,25.272 14,31 L14,31 Z M46,31 L46,38 C46,49.072 48.941,52.672 49.022,52.763 C49.711,53.706 50,54.225 50,55 C50,56.654 48.654,58 47,58 L15,58 C13.346,58 12,56.654 12,55 C12,54.313 12.279,53.671 12.935,52.817 C13.06,52.669 16,49.072 16,38 L16,31 C16,26.038 20.037,22 25,22 L37,22 C41.963,22 46,26.038 46,31 L46,31 Z M36,20 L26,20 L26,18 L36,18 L36,20 L36,20 Z M18.896,6.939 C19.92,6.433 21.257,6 22,6 C23.203,6 26,6.292 26,9 C26,9.552 26.447,10 27,10 C27.553,10 28,9.552 28,9 C28,6.785 28.785,6 31,6 C33.215,6 34,6.785 34,9 C34,9.552 34.447,10 35,10 C35.553,10 36,9.552 36,9 C36,6.292 38.797,6 40,6 C40.742,6 42.079,6.433 43.104,6.939 C40.828,8.376 36.637,11.585 36.069,16 L25.931,16 C25.363,11.586 21.173,8.376 18.896,6.939 L18.896,6.939 Z" id="Shape" fill="#000000"></path>
    </g>
</svg>