<?xml version="1.0" encoding="UTF-8" standalone="no"?>
<svg width="64px" height="64px" viewBox="0 0 64 64" version="1.1" xmlns="http://www.w3.org/2000/svg" xmlns:xlink="http://www.w3.org/1999/xlink">
    <!-- Generator: Sketch 3.7.2 (28276) - http://www.bohemiancoding.com/sketch -->
    <title>gen-pill</title>
    <desc>Created with Sketch.</desc>
    <defs></defs>
    <g id="64px-Line" stroke="none" stroke-width="1" fill="none" fill-rule="evenodd">
        <g id="gen-pill"></g>
        <path d="M58,20 C58,16.261 56.544,12.745 53.899,10.101 C51.254,7.457 47.739,6 44,6 C40.261,6 36.745,7.456 34.101,10.101 L10.101,34.101 C7.456,36.746 6,40.261 6,44 C6,47.739 7.456,51.255 10.101,53.899 C12.746,56.543 16.261,58 20,58 C23.739,58 27.255,56.544 29.899,53.899 L53.899,29.899 C56.544,27.255 58,23.739 58,20 L58,20 Z M28.485,52.485 C23.806,57.164 16.193,57.164 11.514,52.485 C6.835,47.806 6.835,40.193 11.514,35.514 L22.807,24.221 L39.778,41.192 L28.485,52.485 L28.485,52.485 Z M41.192,39.778 L24.221,22.807 L35.514,11.514 C37.853,9.175 40.927,8.005 43.999,8.005 C47.071,8.005 50.145,9.174 52.484,11.514 C57.163,16.193 57.163,23.806 52.484,28.485 L41.192,39.778 L41.192,39.778 Z" id="Shape" fill="#000000"></path>
        <path d="M36.929,12.929 C36.538,13.32 36.538,13.952 36.929,14.343 C37.32,14.734 37.952,14.734 38.343,14.343 C41.462,11.224 46.538,11.224 49.657,14.343 C49.852,14.538 50.108,14.636 50.364,14.636 C50.62,14.636 50.876,14.538 51.071,14.343 C51.462,13.952 51.462,13.32 51.071,12.929 C47.172,9.029 40.828,9.029 36.929,12.929 L36.929,12.929 Z" id="Shape" fill="#000000"></path>
    </g>
</svg>