<?xml version="1.0" encoding="UTF-8" standalone="no"?>
<svg width="64px" height="64px" viewBox="0 0 64 64" version="1.1" xmlns="http://www.w3.org/2000/svg" xmlns:xlink="http://www.w3.org/1999/xlink">
    <!-- Generator: Sketch 3.7.2 (28276) - http://www.bohemiancoding.com/sketch -->
    <title>gen-paw-print</title>
    <desc>Created with Sketch.</desc>
    <defs></defs>
    <g id="64px-Line" stroke="none" stroke-width="1" fill="none" fill-rule="evenodd">
        <g id="gen-paw-print"></g>
        <path d="M11.706,41.788 C13.098,41.375 14.239,40.396 15.007,38.961 C16.148,36.827 16.312,33.878 15.445,31.073 C13.95,26.234 9.841,23.152 6.295,24.212 C4.902,24.626 3.761,25.605 2.993,27.04 C1.853,29.174 1.689,32.122 2.556,34.928 C3.854,39.124 7.114,41.996 10.271,41.996 C10.754,41.996 11.235,41.929 11.706,41.788 L11.706,41.788 Z M4.466,34.337 C3.754,32.031 3.862,29.656 4.757,27.983 C5.112,27.317 5.767,26.455 6.864,26.129 C7.15,26.044 7.444,26.003 7.742,26.003 C10.011,26.003 12.514,28.366 13.534,31.663 C14.246,33.97 14.138,36.345 13.243,38.018 C12.888,38.683 12.233,39.544 11.136,39.871 C8.678,40.608 5.621,38.069 4.466,34.337 L4.466,34.337 Z" id="Shape" fill="#000000"></path>
        <path d="M57.706,24.211 C54.145,23.156 50.051,26.236 48.556,31.073 C47.689,33.878 47.853,36.827 48.994,38.961 C49.762,40.397 50.903,41.375 52.295,41.789 C52.767,41.929 53.247,41.996 53.731,41.996 C56.888,41.996 60.148,39.124 61.446,34.927 C62.313,32.122 62.149,29.174 61.009,27.04 C60.24,25.604 59.099,24.626 57.706,24.211 L57.706,24.211 Z M59.534,34.336 C58.379,38.069 55.32,40.607 52.864,39.871 C51.766,39.545 51.112,38.683 50.757,38.018 C49.862,36.344 49.754,33.969 50.466,31.663 C51.62,27.931 54.679,25.399 57.136,26.128 C58.234,26.455 58.888,27.317 59.243,27.983 C60.138,29.656 60.246,32.031 59.534,34.336 L59.534,34.336 Z" id="Shape" fill="#000000"></path>
        <path d="M18.39,28.442 C19.687,29.468 21.118,30.001 22.567,30.001 C22.797,30.001 23.029,29.987 23.259,29.96 C27.613,29.449 30.591,24.119 29.899,18.077 C29.496,14.552 27.892,11.368 25.612,9.56 C24.109,8.369 22.428,7.837 20.742,8.039 C16.388,8.55 13.41,13.88 14.102,19.922 C14.506,23.45 16.108,26.635 18.39,28.442 L18.39,28.442 Z M20.974,10.026 C21.123,10.008 21.273,10 21.423,10 C22.422,10 23.432,10.385 24.368,11.128 C26.242,12.612 27.566,15.296 27.912,18.306 C28.478,23.254 26.287,27.591 23.026,27.974 C21.878,28.107 20.708,27.728 19.631,26.874 C17.757,25.39 16.433,22.706 16.087,19.694 C15.521,14.746 17.713,10.409 20.974,10.026 L20.974,10.026 Z" id="Shape" fill="#000000"></path>
        <path d="M43.259,8.04 C41.573,7.839 39.892,8.369 38.389,9.561 C36.109,11.369 34.505,14.552 34.102,18.078 C33.41,24.12 36.388,29.45 40.742,29.961 C40.972,29.988 41.204,30.002 41.434,30.002 C42.883,30.002 44.314,29.47 45.611,28.443 C47.892,26.635 49.495,23.451 49.899,19.923 C50.591,13.881 47.612,8.551 43.259,8.04 L43.259,8.04 Z M47.912,19.694 C47.566,22.706 46.242,25.389 44.368,26.874 C43.291,27.728 42.124,28.107 40.973,27.974 C37.712,27.591 35.521,23.254 36.087,18.306 C36.433,15.296 37.757,12.613 39.631,11.128 C40.709,10.274 41.885,9.892 43.026,10.026 C46.287,10.409 48.479,14.746 47.912,19.694 L47.912,19.694 Z" id="Shape" fill="#000000"></path>
        <path d="M32,32 C23.847,32 14,40.029 14,50 C14,55.518 19.263,58 23,58 C26.101,58 27.842,56.929 29.24,56.067 C30.209,55.47 30.973,55 32,55 C33.027,55 33.791,55.471 34.76,56.067 C36.158,56.928 37.9,58 41,58 C44.737,58 50,55.518 50,50 C50,40.029 40.153,32 32,32 L32,32 Z M41,56 C38.466,56 37.115,55.168 35.809,54.364 C34.719,53.693 33.593,53 32,53 C30.407,53 29.281,53.693 28.191,54.364 C26.885,55.168 25.534,56 23,56 C20.716,56 16,54.533 16,50 C16,41.383 24.798,34 32,34 C39.202,34 48,41.383 48,50 C48,54.533 43.284,56 41,56 L41,56 Z" id="Shape" fill="#000000"></path>
    </g>
</svg>