<?xml version="1.0" encoding="UTF-8" standalone="no"?>
<svg width="64px" height="64px" viewBox="0 0 64 64" version="1.1" xmlns="http://www.w3.org/2000/svg" xmlns:xlink="http://www.w3.org/1999/xlink">
    <!-- Generator: Sketch 3.7.2 (28276) - http://www.bohemiancoding.com/sketch -->
    <title>gen-cogs</title>
    <desc>Created with Sketch.</desc>
    <defs></defs>
    <g id="64px-Line" stroke="none" stroke-width="1" fill="none" fill-rule="evenodd">
        <g id="gen-cogs"></g>
        <path d="M35.211,15.282 L36.447,15.794 C36.355,16.609 36.356,17.437 36.449,18.244 L35.427,18.667 C34.438,19.076 33.965,20.215 34.375,21.208 L35.098,22.953 C35.507,23.94 36.646,24.414 37.64,24.005 L38.661,23.581 C39.167,24.225 39.746,24.804 40.391,25.315 L39.879,26.551 C39.466,27.551 39.942,28.7 40.942,29.115 L42.719,29.851 C42.962,29.951 43.216,30.001 43.47,30.001 C43.725,30.001 43.981,29.951 44.223,29.85 C44.707,29.649 45.083,29.271 45.283,28.788 L45.796,27.551 C46.609,27.644 47.436,27.643 48.243,27.55 L48.667,28.575 C48.866,29.054 49.24,29.427 49.719,29.625 C50.199,29.823 50.728,29.824 51.206,29.625 L52.952,28.902 C53.432,28.703 53.806,28.329 54.004,27.849 C54.202,27.37 54.202,26.841 54.004,26.364 L53.582,25.343 C54.226,24.836 54.806,24.257 55.316,23.612 L56.549,24.123 C57.033,24.324 57.567,24.324 58.052,24.123 C58.536,23.922 58.913,23.544 59.113,23.061 L59.848,21.285 C60.05,20.801 60.051,20.268 59.851,19.784 C59.651,19.299 59.273,18.921 58.789,18.72 L57.553,18.208 C57.644,17.395 57.643,16.567 57.55,15.759 L58.574,15.335 C59.563,14.924 60.035,13.785 59.625,12.795 L58.902,11.049 C58.493,10.061 57.355,9.589 56.36,9.997 L55.34,10.42 C54.832,9.773 54.253,9.192 53.611,8.683 L54.12,7.453 C54.322,6.969 54.322,6.434 54.121,5.95 C53.921,5.466 53.544,5.089 53.059,4.887 L51.282,4.153 C50.284,3.737 49.133,4.214 48.716,5.215 L48.208,6.445 C47.392,6.35 46.57,6.352 45.755,6.449 L45.332,5.427 C44.921,4.44 43.783,3.969 42.793,4.377 L41.045,5.1 C40.056,5.511 39.585,6.651 39.995,7.639 L40.417,8.66 C39.773,9.167 39.193,9.747 38.682,10.391 L37.45,9.881 C36.966,9.679 36.431,9.679 35.947,9.88 C35.463,10.081 35.086,10.458 34.885,10.942 L34.149,12.719 C33.947,13.203 33.947,13.737 34.148,14.222 C34.35,14.705 34.728,15.083 35.211,15.282 L35.211,15.282 Z M36.685,11.727 L38.644,12.539 C39.084,12.722 39.59,12.569 39.856,12.174 C40.483,11.243 41.273,10.456 42.2,9.835 C42.596,9.57 42.75,9.062 42.568,8.622 L41.813,6.947 L43.486,6.193 L44.21,7.942 C44.392,8.383 44.866,8.634 45.329,8.541 C46.426,8.322 47.54,8.32 48.641,8.534 C49.105,8.627 49.575,8.374 49.757,7.935 L50.517,6 L52.274,6.687 L51.464,8.644 C51.282,9.083 51.435,9.59 51.83,9.856 C52.755,10.479 53.541,11.269 54.165,12.203 C54.43,12.599 54.938,12.752 55.38,12.571 L57.055,11.815 L57.808,13.488 L56.059,14.212 C55.619,14.394 55.368,14.862 55.46,15.33 C55.673,16.408 55.675,17.554 55.465,18.644 C55.375,19.11 55.626,19.575 56.064,19.757 L58.002,20.519 L57.315,22.277 L55.356,21.465 C54.915,21.281 54.41,21.435 54.144,21.83 C53.516,22.762 52.727,23.549 51.801,24.168 C51.405,24.433 51.25,24.941 51.432,25.381 L52.186,27.056 L50.513,27.81 L49.788,26.06 C49.606,25.619 49.141,25.368 48.668,25.462 C47.598,25.675 46.453,25.676 45.359,25.464 C44.895,25.374 44.427,25.624 44.245,26.063 L43.481,28.004 L41.724,27.317 L42.536,25.356 C42.718,24.916 42.565,24.409 42.17,24.144 C41.237,23.517 40.452,22.728 39.835,21.802 C39.645,21.516 39.329,21.356 39.002,21.356 C38.874,21.356 38.743,21.381 38.619,21.433 L36.942,22.19 L36.189,20.517 L37.938,19.793 C38.379,19.61 38.63,19.142 38.537,18.674 C38.323,17.601 38.322,16.456 38.532,15.362 C38.622,14.896 38.371,14.431 37.933,14.249 L35.995,13.487 L36.685,11.727 L36.685,11.727 Z" id="Shape" fill="#000000"></path>
        <path d="M24,48 C28.411,48 32,44.411 32,40 C32,35.589 28.411,32 24,32 C19.589,32 16,35.589 16,40 C16,44.411 19.589,48 24,48 L24,48 Z M24,34 C27.309,34 30,36.691 30,40 C30,43.309 27.309,46 24,46 C20.691,46 18,43.309 18,40 C18,36.691 20.691,34 24,34 L24,34 Z" id="Shape" fill="#000000"></path>
        <path d="M6.461,44 L8.889,44 C9.252,45.378 9.813,46.706 10.565,47.964 L9.098,49.431 C8.149,50.379 8.149,51.924 9.098,52.874 L11.126,54.903 C12.076,55.85 13.619,55.85 14.568,54.902 L16.036,53.433 C17.307,54.196 18.615,54.749 20,55.11 L20,57.537 C20,58.872 21.163,59.999 22.539,59.999 L25.461,59.999 C26.837,59.999 28,58.872 28,57.537 L28,55.107 C29.382,54.743 30.709,54.182 31.964,53.432 L33.433,54.902 C34.382,55.85 35.925,55.849 36.876,54.901 L38.902,52.872 C39.362,52.413 39.616,51.801 39.616,51.151 C39.616,50.501 39.363,49.89 38.903,49.43 L37.438,47.964 C38.199,46.697 38.752,45.388 39.114,43.999 L41.54,43.999 C42.874,43.999 44.001,42.836 44.001,41.46 L44.001,38.537 C44.001,37.162 42.874,35.999 41.54,35.999 L39.112,35.999 C38.75,34.623 38.188,33.294 37.435,32.034 L38.903,30.567 C39.852,29.617 39.852,28.072 38.903,27.124 L36.875,25.096 C35.926,24.148 34.381,24.148 33.433,25.096 L31.966,26.562 C30.688,25.795 29.379,25.24 28,24.88 L28,22.46 C28,21.126 26.837,19.999 25.461,19.999 L22.539,19.999 C21.163,19.999 20,21.126 20,22.46 L20,24.88 C18.616,25.241 17.307,25.796 16.033,26.562 L14.566,25.096 C13.618,24.148 12.074,24.147 11.125,25.096 L9.098,27.123 C8.638,27.583 8.385,28.194 8.385,28.845 C8.385,29.495 8.638,30.107 9.098,30.567 L10.564,32.032 C9.802,33.303 9.248,34.612 8.887,35.999 L6.461,35.999 C5.127,35.999 4,37.161 4,38.537 L4,41.46 C4,42.837 5.127,44 6.461,44 L6.461,44 Z M6,38.538 C6,38.267 6.229,38 6.461,38 L9.682,38 C10.158,38 10.567,37.665 10.662,37.199 C11.005,35.51 11.662,33.955 12.669,32.448 C12.934,32.051 12.882,31.522 12.544,31.185 L10.512,29.154 C10.401,29.043 10.385,28.913 10.385,28.846 C10.385,28.779 10.402,28.649 10.512,28.538 L12.539,26.511 C12.708,26.342 12.983,26.341 13.153,26.511 L15.186,28.543 C15.523,28.881 16.051,28.933 16.449,28.667 C17.962,27.655 19.515,26.997 21.199,26.655 C21.665,26.56 22,26.151 22,25.675 L22,22.461 C22,22.229 22.267,22 22.539,22 L25.461,22 C25.733,22 26,22.229 26,22.461 L26,25.675 C26,26.151 26.335,26.56 26.801,26.655 C28.476,26.995 30.03,27.654 31.553,28.668 C31.949,28.932 32.477,28.879 32.814,28.543 L34.846,26.511 C35.015,26.342 35.29,26.342 35.46,26.511 L37.487,28.539 C37.656,28.708 37.656,28.985 37.487,29.154 L35.454,31.185 C35.117,31.522 35.064,32.051 35.329,32.447 C36.321,33.934 36.996,35.533 37.338,37.201 C37.433,37.666 37.842,38 38.317,38 L41.538,38 C41.77,38 41.999,38.266 41.999,38.538 L41.999,41.461 C41.999,41.733 41.77,42 41.538,42 L38.317,42 C37.841,42 37.432,42.335 37.337,42.801 C36.993,44.495 36.337,46.049 35.332,47.55 C35.066,47.946 35.118,48.475 35.456,48.813 L37.487,50.845 C37.598,50.956 37.614,51.085 37.614,51.152 C37.614,51.219 37.597,51.347 37.486,51.459 L35.46,53.487 C35.289,53.657 35.014,53.657 34.845,53.488 L32.811,51.453 C32.473,51.116 31.945,51.064 31.547,51.329 C30.052,52.329 28.498,52.986 26.796,53.336 C26.331,53.432 25.998,53.841 25.998,54.315 L25.998,57.537 C25.998,57.77 25.731,57.999 25.459,57.999 L22.537,57.999 C22.265,57.999 21.998,57.77 21.998,57.537 L21.998,54.315 C21.998,53.839 21.663,53.43 21.197,53.335 C19.51,52.992 17.957,52.336 16.447,51.328 C16.278,51.215 16.084,51.16 15.892,51.16 C15.634,51.16 15.377,51.26 15.184,51.453 L13.15,53.488 C12.981,53.658 12.705,53.657 12.536,53.488 L10.509,51.461 C10.34,51.291 10.339,51.015 10.509,50.846 L12.542,48.813 C12.879,48.476 12.932,47.947 12.667,47.55 C11.676,46.069 11.001,44.47 10.659,42.799 C10.564,42.334 10.155,42 9.68,42 L6.459,42 C6.227,42 5.998,41.733 5.998,41.461 L5.998,38.538 L6,38.538 Z" id="Shape" fill="#000000"></path>
        <path d="M47,22 C49.757,22 52,19.757 52,17 C52,14.243 49.757,12 47,12 C44.243,12 42,14.243 42,17 C42,19.757 44.243,22 47,22 L47,22 Z M47,14 C48.654,14 50,15.346 50,17 C50,18.654 48.654,20 47,20 C45.346,20 44,18.654 44,17 C44,15.346 45.346,14 47,14 L47,14 Z" id="Shape" fill="#000000"></path>
    </g>
</svg>