<?xml version="1.0" encoding="UTF-8" standalone="no"?>
<svg width="64px" height="64px" viewBox="0 0 64 64" version="1.1" xmlns="http://www.w3.org/2000/svg" xmlns:xlink="http://www.w3.org/1999/xlink">
    <!-- Generator: Sketch 3.7.2 (28276) - http://www.bohemiancoding.com/sketch -->
    <title>gen-paperclip-2</title>
    <desc>Created with Sketch.</desc>
    <defs></defs>
    <g id="64px-Line" stroke="none" stroke-width="1" fill="none" fill-rule="evenodd">
        <g id="gen-paperclip-2"></g>
        <path d="M31,62 C37.065,62 42,57.065 42,51 L42,21 C42,20.448 41.552,20 41,20 C40.448,20 40,20.448 40,21 L40,51 C40,55.962 35.962,60 31,60 C26.038,60 22,55.962 22,51 L22,11 C22,7.14 25.14,4 29,4 C32.86,4 36,7.14 36,11 L36,43 C36,45.757 33.757,48 31,48 C28.243,48 26,45.757 26,43 L26,21 C26,20.448 25.552,20 25,20 C24.448,20 24,20.448 24,21 L24,43 C24,46.86 27.14,50 31,50 C34.86,50 38,46.86 38,43 L38,11 C38,6.038 33.962,2 29,2 C24.038,2 20,6.038 20,11 L20,51 C20,57.065 24.935,62 31,62 L31,62 Z" id="Shape" fill="#000000"></path>
    </g>
</svg>