<?xml version="1.0" encoding="UTF-8" standalone="no"?>
<svg width="64px" height="64px" viewBox="0 0 64 64" version="1.1" xmlns="http://www.w3.org/2000/svg" xmlns:xlink="http://www.w3.org/1999/xlink">
    <!-- Generator: Sketch 3.7.2 (28276) - http://www.bohemiancoding.com/sketch -->
    <title>gen-infinity</title>
    <desc>Created with Sketch.</desc>
    <defs></defs>
    <g id="64px-Line" stroke="none" stroke-width="1" fill="none" fill-rule="evenodd">
        <g id="gen-infinity"></g>
        <path d="M49,18 C44.634,18 42.046,20.069 39.9,22.306 C39.882,22.325 39.866,22.343 39.85,22.363 L22.655,40.309 C22.641,40.324 22.627,40.339 22.613,40.355 C20.502,42.545 18.392,44 15,44 C8.626,44 4,38.953 4,32 C4,25.047 8.626,20 15,20 C18.384,20 20.493,21.449 22.601,23.632 C22.615,23.65 22.63,23.667 22.646,23.684 L28.27,29.684 C28.648,30.087 29.28,30.108 29.684,29.73 C30.087,29.352 30.107,28.719 29.729,28.317 L24.16,22.376 C24.141,22.351 24.12,22.327 24.098,22.305 C21.952,20.068 19.364,18 15,18 C7.589,18 2,24.019 2,32 C2,39.981 7.589,46 15,46 C19.366,46 21.954,43.931 24.1,41.694 C24.115,41.678 24.129,41.662 24.143,41.646 L41.346,23.691 C41.363,23.673 41.379,23.656 41.394,23.637 C43.503,21.452 45.612,20 49,20 C55.374,20 60,25.047 60,32 C60,38.953 55.374,44 49,44 C45.612,44 43.502,42.548 41.394,40.362 C41.381,40.346 41.367,40.331 41.353,40.316 L35.73,34.316 C35.353,33.914 34.72,33.893 34.317,34.27 C33.914,34.648 33.893,35.281 34.271,35.683 L39.842,41.627 C39.86,41.649 39.879,41.671 39.899,41.692 C42.045,43.93 44.633,46 49,46 C56.411,46 62,39.981 62,32 C62,24.019 56.411,18 49,18 L49,18 Z" id="Shape" fill="#000000"></path>
    </g>
</svg>