<?xml version="1.0" encoding="UTF-8" standalone="no"?>
<svg width="64px" height="64px" viewBox="0 0 64 64" version="1.1" xmlns="http://www.w3.org/2000/svg" xmlns:xlink="http://www.w3.org/1999/xlink">
    <!-- Generator: Sketch 3.7.2 (28276) - http://www.bohemiancoding.com/sketch -->
    <title>gen-stroller</title>
    <desc>Created with Sketch.</desc>
    <defs></defs>
    <g id="64px-Line" stroke="none" stroke-width="1" fill="none" fill-rule="evenodd">
        <g id="gen-stroller"></g>
        <path d="M12,57 C12,58.654 13.346,60 15,60 C16.654,60 18,58.654 18,57 C18,55.346 16.654,54 15,54 C13.346,54 12,55.346 12,57 L12,57 Z M16,57 C16,57.552 15.551,58 15,58 C14.449,58 14,57.552 14,57 C14,56.448 14.449,56 15,56 C15.551,56 16,56.448 16,57 L16,57 Z" id="Shape" fill="#000000"></path>
        <path d="M55,54 C53.346,54 52,55.346 52,57 C52,58.654 53.346,60 55,60 C56.654,60 58,58.654 58,57 C58,55.346 56.654,54 55,54 L55,54 Z M55,58 C54.449,58 54,57.552 54,57 C54,56.448 54.449,56 55,56 C55.551,56 56,56.448 56,57 C56,57.552 55.551,58 55,58 L55,58 Z" id="Shape" fill="#000000"></path>
        <path d="M14,11.414 L14,36 L14,51 C14,51.553 14.448,52 15,52 C15.552,52 16,51.553 16,51 L16,41.974 C17.825,44.412 20.727,46 24,46 L48.586,46 L54.293,51.707 C54.488,51.902 54.744,52 55,52 C55.256,52 55.512,51.902 55.707,51.707 C56.098,51.316 56.098,50.684 55.707,50.293 L49.708,44.294 L49.706,44.292 L15.708,10.294 L15.706,10.292 L11.707,6.293 C11.52,6.105 11.265,6 11,6 L5,6 C4.448,6 4,6.447 4,7 C4,7.553 4.448,8 5,8 L10.586,8 L14,11.414 L14,11.414 Z M24,44 C19.589,44 16,40.411 16,36 L16,13.414 L46.586,44 L24,44 L24,44 Z" id="Shape" fill="#000000"></path>
        <path d="M32.757,23.33 C32.267,23.584 32.075,24.187 32.33,24.678 C32.508,25.022 32.857,25.218 33.219,25.218 C33.374,25.218 33.531,25.182 33.678,25.106 C36.344,23.724 38,21.002 38,18.001 C38,13.59 34.411,10.001 30,10.001 C27.064,10.001 24.369,11.605 22.966,14.187 C22.702,14.672 22.882,15.28 23.367,15.543 C23.854,15.807 24.459,15.626 24.723,15.142 C25.776,13.204 27.798,12.001 30,12.001 C33.309,12.001 36,14.692 36,18.001 C36,20.251 34.757,22.293 32.757,23.33 L32.757,23.33 Z" id="Shape" fill="#000000"></path>
    </g>
</svg>