<?xml version="1.0" encoding="UTF-8" standalone="no"?>
<svg width="64px" height="64px" viewBox="0 0 64 64" version="1.1" xmlns="http://www.w3.org/2000/svg" xmlns:xlink="http://www.w3.org/1999/xlink">
    <!-- Generator: Sketch 3.7.2 (28276) - http://www.bohemiancoding.com/sketch -->
    <title>gen-female</title>
    <desc>Created with Sketch.</desc>
    <defs></defs>
    <g id="64px-Line" stroke="none" stroke-width="1" fill="none" fill-rule="evenodd">
        <g id="gen-female"></g>
        <path d="M31,4 C20.523,4 12,12.523 12,23 C12,33.139 19.989,41.424 30,41.949 L30,50 L23,50 C22.448,50 22,50.448 22,51 C22,51.552 22.448,52 23,52 L30,52 L30,59 C30,59.552 30.448,60 31,60 C31.552,60 32,59.552 32,59 L32,52 L39,52 C39.552,52 40,51.552 40,51 C40,50.448 39.552,50 39,50 L32,50 L32,41.949 C42.011,41.424 50,33.139 50,23 C50,12.523 41.477,4 31,4 L31,4 Z M31,40 C21.626,40 14,32.374 14,23 C14,13.626 21.626,6 31,6 C40.374,6 48,13.626 48,23 C48,32.374 40.374,40 31,40 L31,40 Z" id="Shape" fill="#000000"></path>
    </g>
</svg>