<?xml version="1.0" encoding="UTF-8" standalone="no"?>
<svg width="64px" height="64px" viewBox="0 0 64 64" version="1.1" xmlns="http://www.w3.org/2000/svg" xmlns:xlink="http://www.w3.org/1999/xlink">
    <!-- Generator: Sketch 3.7.2 (28276) - http://www.bohemiancoding.com/sketch -->
    <title>gen-land</title>
    <desc>Created with Sketch.</desc>
    <defs></defs>
    <g id="64px-Line" stroke="none" stroke-width="1" fill="none" fill-rule="evenodd">
        <g id="gen-land"></g>
        <path d="M21.761,7.831 L18.24,6.103 C17.763,5.87 17.191,6.047 16.93,6.505 L8.13,21.965 C7.859,22.442 8.022,23.046 8.493,23.322 L43.021,43.554 C45.769,45.163 48.453,45.998 50.483,45.998 C51.975,45.998 53.114,45.547 53.665,44.621 C53.91,44.209 54.146,43.504 53.883,42.479 C53.337,40.36 50.921,37.826 47.578,35.868 L41.553,32.338 L36.371,10.224 C36.312,9.974 36.16,9.756 35.945,9.616 L30.666,6.162 C30.359,5.962 29.966,5.946 29.643,6.119 C29.32,6.294 29.119,6.632 29.119,6.999 L29.119,25.053 L22.32,21.068 L22.32,8.728 C22.32,8.347 22.104,7.999 21.761,7.831 L21.761,7.831 Z M29.614,27.66 C29.921,27.839 30.306,27.843 30.616,27.664 C30.928,27.486 31.119,27.155 31.119,26.797 L31.119,8.85 L34.515,11.073 L39.703,33.215 C39.765,33.482 39.934,33.711 40.171,33.85 L46.567,37.597 C49.815,39.499 51.609,41.672 51.946,42.982 C52.017,43.257 52.017,43.483 51.947,43.602 C51.569,44.239 48.42,44.401 44.034,41.831 L10.357,22.1 L18.204,8.316 L20.32,9.354 L20.321,21.645 C20.321,21.999 20.509,22.328 20.815,22.507 L29.614,27.66 L29.614,27.66 Z" id="Shape" fill="#000000"></path>
        <path d="M4,57 C4,57.553 4.447,58 5,58 L57,58 C57.553,58 58,57.553 58,57 C58,56.447 57.553,56 57,56 L5,56 C4.447,56 4,56.447 4,57 L4,57 Z" id="Shape" fill="#000000"></path>
    </g>
</svg>