<?xml version="1.0" encoding="UTF-8" standalone="no"?>
<svg width="64px" height="64px" viewBox="0 0 64 64" version="1.1" xmlns="http://www.w3.org/2000/svg" xmlns:xlink="http://www.w3.org/1999/xlink">
    <!-- Generator: Sketch 3.7.2 (28276) - http://www.bohemiancoding.com/sketch -->
    <title>gen-extinguisher</title>
    <desc>Created with Sketch.</desc>
    <defs></defs>
    <g id="64px-Line" stroke="none" stroke-width="1" fill="none" fill-rule="evenodd">
        <g id="gen-extinguisher"></g>
        <path d="M14.484,20.643 C14.645,20.74 14.823,20.786 14.999,20.786 C15.338,20.786 15.669,20.614 15.857,20.302 C17.681,17.271 20.609,15.159 24,14.361 L24,16.427 C19.39,17.737 16,21.976 16,27 L16,57 C16,58.654 17.346,60 19,60 L35,60 C36.654,60 38,58.654 38,57 L38,27 C38,21.976 34.61,17.737 30,16.427 L30,14 L32,14 L32,15 C32,15.498 32.366,15.919 32.858,15.99 L46.858,17.99 C46.905,17.997 46.953,18 47,18 C47.239,18 47.472,17.914 47.655,17.755 C47.874,17.565 48,17.29 48,17 L48,9 C48,8.71 47.874,8.435 47.655,8.245 C47.436,8.055 47.146,7.969 46.858,8.011 L32.858,10.011 C32.365,10.081 32,10.503 32,11.001 L32,12.001 L30,12.001 L30,11.001 C30,10.449 29.552,10.001 29,10.001 L27.444,10.001 C27.789,9.41 28,8.733 28,8.001 C28,5.795 26.206,4.001 24,4.001 C21.794,4.001 20,5.795 20,8.001 C20,10.207 21.794,12.001 24,12.001 L24,12.325 C19.893,13.157 16.329,15.639 14.143,19.271 C13.858,19.744 14.011,20.358 14.484,20.643 L14.484,20.643 Z M34,11.867 L46,10.153 L46,15.847 L34,14.133 L34,11.867 L34,11.867 Z M36,27 L36,57 C36,57.551 35.551,58 35,58 L19,58 C18.449,58 18,57.551 18,57 L18,27 C18,22.038 22.038,18 27,18 C31.962,18 36,22.038 36,27 L36,27 Z M28,16.051 C27.67,16.021 27.338,16 27,16 C26.662,16 26.33,16.021 26,16.051 L26,12 L28,12 L28,16.051 L28,16.051 Z M22,8 C22,6.897 22.897,6 24,6 C25.103,6 26,6.897 26,8 C26,9.103 25.103,10 24,10 C22.897,10 22,9.103 22,8 L22,8 Z" id="Shape" fill="#000000"></path>
        <path d="M20,27 C20,27.552 20.448,28 21,28 C21.552,28 22,27.552 22,27 C22,24.243 24.243,22 27,22 C27.552,22 28,21.552 28,21 C28,20.448 27.552,20 27,20 C23.14,20 20,23.14 20,27 L20,27 Z" id="Shape" fill="#000000"></path>
    </g>
</svg>