<?xml version="1.0" encoding="UTF-8" standalone="no"?>
<svg width="64px" height="64px" viewBox="0 0 64 64" version="1.1" xmlns="http://www.w3.org/2000/svg" xmlns:xlink="http://www.w3.org/1999/xlink">
    <!-- Generator: Sketch 3.7.2 (28276) - http://www.bohemiancoding.com/sketch -->
    <title>gen-warning</title>
    <desc>Created with Sketch.</desc>
    <defs></defs>
    <g id="64px-Line" stroke="none" stroke-width="1" fill="none" fill-rule="evenodd">
        <g id="gen-warning"></g>
        <path d="M31,48 C32.654,48 34,46.654 34,45 C34,43.346 32.654,42 31,42 C29.346,42 28,43.346 28,45 C28,46.654 29.346,48 31,48 L31,48 Z M31,44 C31.552,44 32,44.449 32,45 C32,45.551 31.552,46 31,46 C30.448,46 30,45.551 30,45 C30,44.449 30.448,44 31,44 L31,44 Z" id="Shape" fill="#000000"></path>
        <path d="M31,40 C32.654,40 34,38.654 34,37 L34,21 C34,19.346 32.654,18 31,18 C29.346,18 28,19.346 28,21 L28,37 C28,38.654 29.346,40 31,40 L31,40 Z M30,21 C30,20.449 30.448,20 31,20 C31.552,20 32,20.449 32,21 L32,37 C32,37.551 31.552,38 31,38 C30.448,38 30,37.551 30,37 L30,21 L30,21 Z" id="Shape" fill="#000000"></path>
        <path d="M9,56 L53,56 C56.859,56 60,52.86 60,49 C60,47.581 59.348,46.063 59.273,45.895 C59.252,45.847 59.226,45.801 59.198,45.756 L36.754,11.023 C36.735,10.99 36.715,10.958 36.692,10.927 C35.379,9.094 33.251,8 31,8 C28.749,8 26.621,9.094 25.308,10.926 C25.286,10.957 25.265,10.989 25.247,11.022 L2.802,45.756 C2.774,45.8 2.748,45.847 2.727,45.895 C2.652,46.063 2,47.581 2,49 C2,52.86 5.141,56 9,56 L9,56 Z M4.527,46.77 L26.962,12.053 C26.964,12.05 26.966,12.046 26.968,12.043 C27.91,10.763 29.412,10 31,10 C32.588,10 34.09,10.763 35.032,12.043 C35.034,12.046 35.036,12.049 35.038,12.053 L57.473,46.771 C57.644,47.179 58,48.197 58,49 C58,51.757 55.757,54 53,54 L9,54 C6.243,54 4,51.757 4,49 C4,48.205 4.357,47.181 4.527,46.77 L4.527,46.77 Z" id="Shape" fill="#000000"></path>
    </g>
</svg>