<?xml version="1.0" encoding="UTF-8" standalone="no"?>
<svg width="64px" height="64px" viewBox="0 0 64 64" version="1.1" xmlns="http://www.w3.org/2000/svg" xmlns:xlink="http://www.w3.org/1999/xlink">
    <!-- Generator: Sketch 3.7.2 (28276) - http://www.bohemiancoding.com/sketch -->
    <title>gen-gameboy-advance</title>
    <desc>Created with Sketch.</desc>
    <defs></defs>
    <g id="64px-Line" stroke="none" stroke-width="1" fill="none" fill-rule="evenodd">
        <g id="gen-gameboy-advance"></g>
        <path d="M53,12 L11,12 C5.696,12 2,22.014 2,31 C2,39.986 5.696,50 11,50 L53,50 C58.304,50 62,39.986 62,31 C62,22.014 58.304,12 53,12 L53,12 Z M53,48 L11,48 C7.467,48 4,39.579 4,31 C4,22.421 7.467,14 11,14 L53,14 C56.533,14 60,22.421 60,31 C60,39.579 56.533,48 53,48 L53,48 Z" id="Shape" fill="#000000"></path>
        <path d="M15,30 L12,30 L12,27 C12,26.447 11.552,26 11,26 C10.448,26 10,26.447 10,27 L10,30 L7,30 C6.448,30 6,30.447 6,31 C6,31.553 6.448,32 7,32 L10,32 L10,35 C10,35.553 10.448,36 11,36 C11.552,36 12,35.553 12,35 L12,32 L15,32 C15.552,32 16,31.553 16,31 C16,30.447 15.552,30 15,30 L15,30 Z" id="Shape" fill="#000000"></path>
        <path d="M45,18 L19,18 C18.448,18 18,18.447 18,19 L18,43 C18,43.553 18.448,44 19,44 L45,44 C45.552,44 46,43.553 46,43 L46,19 C46,18.447 45.552,18 45,18 L45,18 Z M44,42 L20,42 L20,20 L44,20 L44,42 L44,42 Z" id="Shape" fill="#000000"></path>
        <circle id="Oval" fill="#000000" cx="50" cy="33" r="2"></circle>
        <circle id="Oval" fill="#000000" cx="56" cy="29" r="2"></circle>
        <path d="M23,28 C23.256,28 23.512,27.902 23.707,27.707 L27.707,23.707 C28.098,23.316 28.098,22.684 27.707,22.293 C27.316,21.902 26.684,21.902 26.293,22.293 L22.293,26.293 C21.902,26.684 21.902,27.316 22.293,27.707 C22.488,27.902 22.744,28 23,28 L23,28 Z" id="Shape" fill="#000000"></path>
        <path d="M23,34 C23.256,34 23.512,33.902 23.707,33.707 L33.707,23.707 C34.098,23.316 34.098,22.684 33.707,22.293 C33.316,21.902 32.684,21.902 32.293,22.293 L22.293,32.293 C21.902,32.684 21.902,33.316 22.293,33.707 C22.488,33.902 22.744,34 23,34 L23,34 Z" id="Shape" fill="#000000"></path>
    </g>
</svg>