<?xml version="1.0" encoding="UTF-8" standalone="no"?>
<svg width="64px" height="64px" viewBox="0 0 64 64" version="1.1" xmlns="http://www.w3.org/2000/svg" xmlns:xlink="http://www.w3.org/1999/xlink">
    <!-- Generator: Sketch 3.7.2 (28276) - http://www.bohemiancoding.com/sketch -->
    <title>gen-information</title>
    <desc>Created with Sketch.</desc>
    <defs></defs>
    <g id="64px-Line" stroke="none" stroke-width="1" fill="none" fill-rule="evenodd">
        <g id="gen-information"></g>
        <path d="M31,60 C45.888,60 58,47.888 58,33 C58,18.112 45.888,6 31,6 C16.112,6 4,18.112 4,33 C4,47.888 16.112,60 31,60 L31,60 Z M31,8 C44.785,8 56,19.215 56,33 C56,46.785 44.785,58 31,58 C17.215,58 6,46.785 6,33 C6,19.215 17.215,8 31,8 L31,8 Z" id="Shape" fill="#000000"></path>
        <path d="M31,24 C32.654,24 34,22.654 34,21 C34,19.346 32.654,18 31,18 C29.346,18 28,19.346 28,21 C28,22.654 29.346,24 31,24 L31,24 Z M31,20 C31.552,20 32,20.449 32,21 C32,21.551 31.552,22 31,22 C30.448,22 30,21.551 30,21 C30,20.449 30.448,20 31,20 L31,20 Z" id="Shape" fill="#000000"></path>
        <path d="M31,50 C32.654,50 34,48.654 34,47 L34,29 C34,27.346 32.654,26 31,26 C29.346,26 28,27.346 28,29 L28,47 C28,48.654 29.346,50 31,50 L31,50 Z M30,29 C30,28.449 30.448,28 31,28 C31.552,28 32,28.449 32,29 L32,47 C32,47.551 31.552,48 31,48 C30.448,48 30,47.551 30,47 L30,29 L30,29 Z" id="Shape" fill="#000000"></path>
    </g>
</svg>