<?xml version="1.0" encoding="UTF-8" standalone="no"?>
<svg width="64px" height="64px" viewBox="0 0 64 64" version="1.1" xmlns="http://www.w3.org/2000/svg" xmlns:xlink="http://www.w3.org/1999/xlink">
    <!-- Generator: Sketch 3.7.2 (28276) - http://www.bohemiancoding.com/sketch -->
    <title>hal-frankenstein</title>
    <desc>Created with Sketch.</desc>
    <defs></defs>
    <g id="64px-Line" stroke="none" stroke-width="1" fill="none" fill-rule="evenodd">
        <g id="hal-frankenstein"></g>
        <path d="M35,44 L27,44 C26.448,44 26,44.448 26,45 C26,45.552 26.448,46 27,46 L35,46 C35.552,46 36,45.552 36,45 C36,44.448 35.552,44 35,44 L35,44 Z" id="Shape" fill="#000000"></path>
        <path d="M43,28 L35,28 C34.448,28 34,28.448 34,29 C34,29.552 34.448,30 35,30 L36.184,30 C36.072,30.314 36,30.647 36,31 C36,32.654 37.346,34 39,34 C40.654,34 42,32.654 42,31 C42,30.647 41.928,30.314 41.816,30 L43,30 C43.552,30 44,29.552 44,29 C44,28.448 43.552,28 43,28 L43,28 Z M40,31 C40,31.551 39.551,32 39,32 C38.449,32 38,31.551 38,31 C38,30.449 38.449,30 39,30 C39.551,30 40,30.449 40,31 L40,31 Z" id="Shape" fill="#000000"></path>
        <path d="M25.816,30 L27,30 C27.552,30 28,29.552 28,29 C28,28.448 27.552,28 27,28 L19,28 C18.448,28 18,28.448 18,29 C18,29.552 18.448,30 19,30 L20.184,30 C20.072,30.314 20,30.647 20,31 C20,32.654 21.346,34 23,34 C24.654,34 26,32.654 26,31 C26,30.647 25.928,30.314 25.816,30 L25.816,30 Z M23,32 C22.449,32 22,31.551 22,31 C22,30.449 22.449,30 23,30 C23.551,30 24,30.449 24,31 C24,31.551 23.551,32 23,32 L23,32 Z" id="Shape" fill="#000000"></path>
        <path d="M57,40 L53,40 C52.448,40 52,40.448 52,41 L52,44 L50,44 L50,25.277 L50.143,25.515 C50.374,25.9 50.833,26.083 51.268,25.964 C51.7,25.844 52,25.45 52,25 L52,13 C52,9.14 48.86,6 45,6 L17,6 C13.14,6 10,9.14 10,13 L10,25 C10,25.49 10.355,25.909 10.84,25.987 C10.894,25.996 10.947,26 11,26 C11.424,26 11.811,25.729 11.948,25.316 L12,25.163 L12,44 L10,44 L10,41 C10,40.448 9.552,40 9,40 L5,40 C4.448,40 4,40.448 4,41 L4,49 C4,49.552 4.448,50 5,50 L9,50 C9.552,50 10,49.552 10,49 L10,46 L12,46 L12,47 C12,53.065 16.935,58 23,58 L39,58 C45.065,58 50,53.065 50,47 L50,46 L52,46 L52,49 C52,49.552 52.448,50 53,50 L57,50 C57.552,50 58,49.552 58,49 L58,41 C58,40.448 57.552,40 57,40 L57,40 Z M8,48 L6,48 L6,42 L8,42 L8,48 L8,48 Z M12,13 C12,10.243 14.243,8 17,8 L45,8 C47.757,8 50,10.243 50,13 L50,21.39 L45.857,14.486 C45.69,14.209 45.399,14.028 45.077,14.004 C44.747,13.978 44.439,14.112 44.232,14.361 L39.697,19.803 L35.372,18.073 C35.037,17.939 34.657,17.995 34.376,18.221 L30.141,21.609 L25.768,16.362 C25.573,16.127 25.294,15.992 24.975,16.003 C24.669,16.011 24.384,16.158 24.201,16.402 L18.892,23.48 L13.708,18.296 C13.616,18.204 13.507,18.131 13.385,18.08 C13.263,18.027 13.133,18 13,18 C12.923,18 12.846,18.009 12.77,18.027 C12.73,18.036 12.695,18.055 12.658,18.069 C12.633,18.078 12.608,18.086 12.584,18.097 C12.482,18.144 12.388,18.205 12.308,18.283 C12.294,18.297 12.283,18.313 12.27,18.328 C12.204,18.399 12.15,18.48 12.107,18.569 C12.096,18.592 12.083,18.614 12.073,18.638 C12.067,18.654 12.057,18.667 12.051,18.683 L12,18.838 L12,13 L12,13 Z M48,47 C48,51.962 43.962,56 39,56 L23,56 C18.038,56 14,51.962 14,47 L14,21.414 L18.293,25.707 C18.498,25.912 18.782,26.011 19.071,25.998 C19.36,25.977 19.626,25.832 19.8,25.601 L25.042,18.613 L29.232,23.641 C29.58,24.059 30.199,24.121 30.625,23.782 L35.17,20.146 L39.629,21.93 C40.031,22.089 40.492,21.974 40.769,21.641 L44.868,16.723 L48,21.944 L48,47 L48,47 Z M56,48 L54,48 L54,42 L56,42 L56,48 L56,48 Z" id="Shape" fill="#000000"></path>
    </g>
</svg>