<?xml version="1.0" encoding="UTF-8" standalone="no"?>
<svg width="64px" height="64px" viewBox="0 0 64 64" version="1.1" xmlns="http://www.w3.org/2000/svg" xmlns:xlink="http://www.w3.org/1999/xlink">
    <!-- Generator: Sketch 3.7.2 (28276) - http://www.bohemiancoding.com/sketch -->
    <title>hal-date-31</title>
    <desc>Created with Sketch.</desc>
    <defs></defs>
    <g id="64px-Line" stroke="none" stroke-width="1" fill="none" fill-rule="evenodd">
        <g id="hal-date-31"></g>
        <path d="M41.383,28.076 C41.008,27.92 40.578,28.006 40.293,28.293 L38.293,30.293 C37.902,30.684 37.902,31.316 38.293,31.707 C38.684,32.098 39.316,32.098 39.707,31.707 L40,31.414 L40,45 C40,45.552 40.448,46 41,46 C41.552,46 42,45.552 42,45 L42,29 C42,28.596 41.756,28.231 41.383,28.076 L41.383,28.076 Z" id="Shape" fill="#000000"></path>
        <path d="M12,56 L52,56 C54.206,56 56,54.206 56,52 L56,12 C56,9.794 54.206,8 52,8 L12,8 C9.794,8 8,9.794 8,12 L8,52 C8,54.206 9.794,56 12,56 L12,56 Z M52,54 L12,54 C10.897,54 10,53.103 10,52 L10,22 L54,22 L54,52 C54,53.103 53.103,54 52,54 L52,54 Z M12,10 L52,10 C53.103,10 54,10.897 54,12 L54,20 L10,20 L10,12 C10,10.897 10.897,10 12,10 L12,10 Z" id="Shape" fill="#000000"></path>
        <path d="M34,33 C34,30.243 31.309,28 28,28 C24.691,28 22,30.243 22,33 C22,33.552 22.448,34 23,34 C23.552,34 24,33.552 24,33 C24,31.346 25.794,30 28,30 C30.206,30 32,31.346 32,33 C32,34.654 30.206,36 28,36 C27.448,36 27,36.448 27,37 C27,37.552 27.448,38 28,38 C30.206,38 32,39.346 32,41 C32,42.654 30.206,44 28,44 C25.794,44 24,42.654 24,41 C24,40.448 23.552,40 23,40 C22.448,40 22,40.448 22,41 C22,43.757 24.691,46 28,46 C31.309,46 34,43.757 34,41 C34,39.366 33.055,37.913 31.596,37 C33.055,36.087 34,34.634 34,33 L34,33 Z" id="Shape" fill="#000000"></path>
    </g>
</svg>