<?xml version="1.0" encoding="UTF-8" standalone="no"?>
<svg width="64px" height="64px" viewBox="0 0 64 64" version="1.1" xmlns="http://www.w3.org/2000/svg" xmlns:xlink="http://www.w3.org/1999/xlink">
    <!-- Generator: Sketch 3.7.2 (28276) - http://www.bohemiancoding.com/sketch -->
    <title>hal-pumpkin</title>
    <desc>Created with Sketch.</desc>
    <defs></defs>
    <g id="64px-Line" stroke="none" stroke-width="1" fill="none" fill-rule="evenodd">
        <g id="hal-pumpkin"></g>
        <path d="M45,16 C43.257,16 41.579,16.535 40,17.587 C38.422,16.535 36.744,16 35,16 C34.004,16 33.004,16.184 32.042,16.529 C32.462,8.926 36.169,8 39,8 C39.553,8 40,7.552 40,7 C40,6.448 39.553,6 39,6 C33.401,6 30.39,9.549 30.035,16.554 C29.05,16.189 28.022,16 27,16 C25.257,16 23.579,16.535 22,17.587 C20.422,16.535 18.744,16 17,16 C9.832,16 4,25.42 4,37 C4,48.579 9.832,58 17,58 C18.744,58 20.422,57.465 21.999,56.413 C23.577,57.465 25.255,58 27,58 C28.371,58 29.715,57.665 31,57.003 C32.285,57.665 33.629,58 35,58 C36.744,58 38.423,57.464 40.001,56.412 C41.579,57.465 43.257,58 45,58 C52.168,58 58,48.579 58,37 C58,25.42 52.168,16 45,16 L45,16 Z M45,56 C43.48,56 42.003,55.459 40.607,54.392 L40.596,54.406 C40.247,54.139 39.758,54.114 39.392,54.393 C36.905,56.295 34.071,56.509 31.507,55 C31.195,54.814 30.804,54.814 30.491,55 C27.93,56.508 25.096,56.295 22.611,54.396 C22.593,54.382 22.571,54.38 22.553,54.368 C22.487,54.324 22.418,54.294 22.344,54.267 C22.298,54.25 22.254,54.23 22.206,54.221 C22.124,54.203 22.043,54.203 21.959,54.206 C21.916,54.208 21.875,54.206 21.833,54.214 C21.75,54.228 21.673,54.258 21.594,54.294 C21.553,54.313 21.512,54.328 21.473,54.353 C21.447,54.37 21.416,54.374 21.391,54.393 C19.998,55.459 18.521,56 17,56 C10.935,56 6,47.477 6,37 C6,26.523 10.935,18 17,18 C18.521,18 20.001,18.542 21.396,19.611 C21.43,19.637 21.47,19.644 21.505,19.665 C21.549,19.69 21.591,19.711 21.638,19.73 C21.734,19.769 21.83,19.79 21.931,19.797 C21.955,19.799 21.977,19.813 22.001,19.813 C22.019,19.813 22.036,19.805 22.054,19.805 C22.118,19.802 22.178,19.79 22.24,19.775 C22.29,19.763 22.337,19.746 22.385,19.726 C22.448,19.7 22.506,19.671 22.563,19.631 C22.577,19.621 22.594,19.618 22.608,19.608 C24.004,18.542 25.481,18.001 27,18.001 C28.19,18.001 29.399,18.338 30.497,18.977 C30.809,19.158 31.192,19.157 31.503,18.977 C32.6,18.337 33.809,18 35,18 C36.519,18 37.995,18.54 39.388,19.604 C39.755,19.884 40.241,19.857 40.59,19.592 L40.604,19.611 C42,18.542 43.479,18 45,18 C51.065,18 56,26.523 56,37 C56,47.477 51.065,56 45,56 L45,56 Z" id="Shape" fill="#000000"></path>
        <path d="M29.895,35.447 C30.064,35.108 30.028,34.703 29.8,34.4 L23.8,26.4 C23.423,25.896 22.577,25.896 22.2,26.4 L16.2,34.4 C15.972,34.703 15.936,35.108 16.105,35.447 C16.275,35.786 16.621,36 17,36 L29,36 C29.379,36 29.725,35.786 29.895,35.447 L29.895,35.447 Z M19,34 L23,28.667 L27,34 L19,34 L19,34 Z" id="Shape" fill="#000000"></path>
        <path d="M39.8,26.4 C39.423,25.896 38.577,25.896 38.2,26.4 L32.2,34.4 C31.972,34.703 31.936,35.108 32.105,35.447 C32.275,35.786 32.621,36 33,36 L45,36 C45.379,36 45.725,35.786 45.895,35.447 C46.064,35.108 46.028,34.703 45.8,34.4 L39.8,26.4 L39.8,26.4 Z M35,34 L39,28.667 L43,34 L35,34 L35,34 Z" id="Shape" fill="#000000"></path>
        <path d="M42.293,44.293 L39,47.586 L35.707,44.293 C35.316,43.902 34.684,43.902 34.293,44.293 L31,47.586 L27.707,44.293 C27.316,43.902 26.684,43.902 26.293,44.293 L23,47.586 L19.707,44.293 C19.316,43.902 18.684,43.902 18.293,44.293 C17.902,44.684 17.902,45.316 18.293,45.707 L22.293,49.707 C22.684,50.098 23.316,50.098 23.707,49.707 L27,46.414 L30.293,49.707 C30.684,50.098 31.316,50.098 31.707,49.707 L35,46.414 L38.293,49.707 C38.488,49.902 38.744,50 39,50 C39.256,50 39.512,49.902 39.707,49.707 L43.707,45.707 C44.098,45.316 44.098,44.684 43.707,44.293 C43.316,43.902 42.684,43.902 42.293,44.293 L42.293,44.293 Z" id="Shape" fill="#000000"></path>
    </g>
</svg>