<?xml version="1.0" encoding="UTF-8" standalone="no"?>
<svg width="64px" height="64px" viewBox="0 0 64 64" version="1.1" xmlns="http://www.w3.org/2000/svg" xmlns:xlink="http://www.w3.org/1999/xlink">
    <!-- Generator: Sketch 3.7.2 (28276) - http://www.bohemiancoding.com/sketch -->
    <title>hal-fangs</title>
    <desc>Created with Sketch.</desc>
    <defs></defs>
    <g id="64px-Line" stroke="none" stroke-width="1" fill="none" fill-rule="evenodd">
        <g id="hal-fangs"></g>
        <path d="M52.976,15.689 C52.722,14.362 52.089,13.194 51.217,12.257 C51.179,12.22 51.149,12.178 51.105,12.148 C49.818,10.824 48.035,10 46.079,10 L15.92,10 C13.964,10 12.182,10.824 10.894,12.148 C10.85,12.179 10.82,12.221 10.782,12.257 C9.91,13.194 9.277,14.362 9.023,15.689 L4.197,40.941 C3.581,44.164 4.428,47.464 6.522,49.997 C8.626,52.541 11.729,54 15.036,54 L46.962,54 C50.269,54 53.372,52.541 55.476,49.997 C57.57,47.465 58.417,44.164 57.801,40.941 L52.976,15.689 L52.976,15.689 Z M49.42,13.286 C47.418,21.392 45.845,26.096 44.998,27.617 C43.874,25.613 41.828,18.562 40.262,12 L46.079,12 C47.353,12 48.524,12.487 49.42,13.286 L49.42,13.286 Z M24,12 L30,12 L30,17 C30,17.552 29.551,18 29,18 L25,18 C24.449,18 24,17.552 24,17 L24,12 L24,12 Z M32,12 L38,12 L38,17 C38,17.552 37.551,18 37,18 L33,18 C32.449,18 32,17.552 32,17 L32,12 L32,12 Z M21.737,12 C20.171,18.562 18.125,25.613 17.001,27.617 C16.154,26.096 14.582,21.392 12.579,13.286 C13.475,12.487 14.646,12 15.919,12 L21.737,12 L21.737,12 Z M8.867,49.565 C10.839,41.746 12.245,37.742 13.002,36.383 C14.126,38.388 16.171,45.438 17.737,51.999 L15.037,51.999 C12.721,52 10.531,51.121 8.867,49.565 L8.867,49.565 Z M42,52 L36,52 L36,47 C36,46.448 36.449,46 37,46 L41,46 C41.551,46 42,46.448 42,47 L42,52 L42,52 Z M34,52 L28,52 L28,47 C28,46.448 28.449,46 29,46 L33,46 C33.551,46 34,46.448 34,47 L34,52 L34,52 Z M26,52 L20,52 L20,47 C20,46.448 20.449,46 21,46 L25,46 C25.551,46 26,46.448 26,47 L26,52 L26,52 Z M44.262,52 C45.824,45.452 47.866,38.416 48.991,36.396 C49.558,37.426 50.85,40.517 53.132,49.566 C51.468,51.121 49.279,52 46.963,52 L44.262,52 L44.262,52 Z M54.701,47.622 C51.189,34.011 49.929,34 49,34 C48.326,34 46.879,34 43.747,45.794 C43.282,44.738 42.226,44 41,44 L37,44 C36.232,44 35.531,44.29 35,44.766 C34.469,44.29 33.768,44 33,44 L29,44 C28.232,44 27.531,44.29 27,44.766 C26.469,44.29 25.768,44 25,44 L21,44 C19.774,44 18.718,44.738 18.253,45.794 C15.121,34 13.674,34 13,34 C12.07,34 10.81,34.011 7.299,47.622 C6.164,45.74 5.744,43.509 6.163,41.317 L10.989,16.065 C11.017,15.919 11.069,15.785 11.109,15.644 C14.753,29.989 16.096,30 17,30 C17.674,30 19.121,30 22.253,18.206 C22.718,19.262 23.774,20 25,20 L29,20 C29.768,20 30.469,19.71 31,19.234 C31.531,19.71 32.232,20 33,20 L37,20 C38.226,20 39.282,19.262 39.747,18.206 C42.879,30 44.326,30 45,30 C45.904,30 47.247,29.989 50.891,15.644 C50.931,15.785 50.983,15.919 51.011,16.065 L55.837,41.317 C56.257,43.509 55.836,45.74 54.701,47.622 L54.701,47.622 Z" id="Shape" fill="#000000"></path>
    </g>
</svg>