<?xml version="1.0" encoding="UTF-8" standalone="no"?>
<svg width="64px" height="64px" viewBox="0 0 64 64" version="1.1" xmlns="http://www.w3.org/2000/svg" xmlns:xlink="http://www.w3.org/1999/xlink">
    <!-- Generator: Sketch 3.7.2 (28276) - http://www.bohemiancoding.com/sketch -->
    <title>hal-grave</title>
    <desc>Created with Sketch.</desc>
    <defs></defs>
    <g id="64px-Line" stroke="none" stroke-width="1" fill="none" fill-rule="evenodd">
        <g id="hal-grave"></g>
        <path d="M57,58 L39.272,58 C41.036,56.35 44.356,54 49,54 C49.553,54 50,53.553 50,53 C50,52.447 49.553,52 49,52 C45.153,52 42.129,53.365 39.986,54.837 C40.919,53.142 42.164,51.25 43.707,49.707 C44.098,49.316 44.098,48.684 43.707,48.293 C43.316,47.902 42.684,47.902 42.293,48.293 C40.454,50.132 39.026,52.37 38,54.3 L38,32 L49,32 C49.553,32 50,31.553 50,31 L50,19 C50,18.447 49.553,18 49,18 L38,18 L38,7 C38,6.447 37.553,6 37,6 L25,6 C24.447,6 24,6.447 24,7 L24,18 L13,18 C12.447,18 12,18.447 12,19 L12,31 C12,31.553 12.447,32 13,32 L24,32 L24,54.3 C22.974,52.37 21.546,50.132 19.707,48.293 C19.316,47.902 18.684,47.902 18.293,48.293 C17.902,48.684 17.902,49.316 18.293,49.707 C19.832,51.247 21.077,53.138 22.011,54.835 C19.868,53.363 16.845,52 13,52 C12.447,52 12,52.447 12,53 C12,53.553 12.447,54 13,54 C17.645,54 20.965,56.35 22.728,58 L5,58 C4.447,58 4,58.447 4,59 C4,59.553 4.447,60 5,60 L57,60 C57.553,60 58,59.553 58,59 C58,58.447 57.553,58 57,58 L57,58 Z M14,30 L14,20 L25,20 C25.553,20 26,19.553 26,19 L26,8 L36,8 L36,19 C36,19.553 36.447,20 37,20 L48,20 L48,30 L37,30 C36.447,30 36,30.447 36,31 L36,58 L26,58 L26,31 C26,30.447 25.553,30 25,30 L14,30 L14,30 Z" id="Shape" fill="#000000"></path>
    </g>
</svg>