<?xml version="1.0" encoding="UTF-8" standalone="no"?>
<svg width="64px" height="64px" viewBox="0 0 64 64" version="1.1" xmlns="http://www.w3.org/2000/svg" xmlns:xlink="http://www.w3.org/1999/xlink">
    <!-- Generator: Sketch 3.7.2 (28276) - http://www.bohemiancoding.com/sketch -->
    <title>hal-cauldron</title>
    <desc>Created with Sketch.</desc>
    <defs></defs>
    <g id="64px-Line" stroke="none" stroke-width="1" fill="none" fill-rule="evenodd">
        <g id="hal-cauldron"></g>
        <path d="M12.833,31.057 C11.638,33.618 10,37.127 10,41 C10,46.238 12.355,50.988 16.158,54.428 L12.293,58.293 C11.902,58.684 11.902,59.316 12.293,59.707 C12.488,59.902 12.744,60 13,60 C13.256,60 13.512,59.902 13.707,59.707 L17.714,55.7 C21.336,58.385 25.963,60 31,60 C36.037,60 40.663,58.385 44.286,55.7 L48.293,59.707 C48.488,59.902 48.744,60 49,60 C49.256,60 49.512,59.902 49.707,59.707 C50.098,59.316 50.098,58.684 49.707,58.293 L45.842,54.428 C49.645,50.988 52,46.238 52,41 C52,37.127 50.362,33.618 49.167,31.057 C48.566,29.771 48,28.558 48,28 C48,27.015 48.608,25.67 49.158,24.671 C49.695,24.183 50,23.628 50,23 C50,22.938 49.989,22.879 49.983,22.818 L49.983,22.815 C49.758,20.514 45.382,19.233 40.418,18.582 L45.858,9.515 C46.142,9.041 45.989,8.427 45.515,8.143 C45.04,7.859 44.427,8.013 44.143,8.486 L38.232,18.338 C35.684,18.096 33.121,18 31,18 C24.056,18 12.39,19.022 12.018,22.814 C12.017,22.817 12.018,22.82 12.017,22.822 C12.011,22.882 12,22.939 12,23 C12,23.629 12.306,24.184 12.844,24.673 C13.393,25.67 14,27.011 14,28 C14,28.558 13.434,29.771 12.833,31.057 L12.833,31.057 Z M47.902,22.854 C47.797,23.021 47.671,23.23 47.533,23.47 C46.232,24.331 42.267,25.43 36.064,25.837 L39.293,20.456 C44.355,21.054 47.34,22.115 47.902,22.854 L47.902,22.854 Z M31,20 C33.24,20 35.265,20.091 37.09,20.239 L33.662,25.952 C32.806,25.98 31.927,26 31,26 C21.9,26 16.13,24.555 14.484,23.501 C14.339,23.247 14.206,23.026 14.096,22.852 C14.927,21.771 20.925,20 31,20 L31,20 Z M25.026,32.095 C25.527,33.036 26,33.923 26,35 C26,36.935 24.935,38 23,38 C21.094,38 20,36.907 20,35 C20,33.975 20.465,33.098 20.956,32.17 C21.47,31.201 22,30.2 22,29 C22,28.403 21.915,27.888 21.787,27.445 C22.574,27.545 23.375,27.63 24.174,27.701 C24.068,28.068 24,28.493 24,29 C24,30.169 24.521,31.148 25.026,32.095 L25.026,32.095 Z M19.385,27.079 C19.606,27.338 20,27.946 20,29 C20,29.703 19.624,30.412 19.189,31.233 C18.632,32.286 18,33.478 18,35 C18,38.038 19.963,40 23,40 C26.037,40 28,38.038 28,35 C28,33.424 27.357,32.219 26.791,31.155 C26.366,30.358 26,29.67 26,29 C26,28.272 26.179,27.961 26.291,27.856 C27.967,27.957 29.582,28 31,28 C31.99,28 33.078,27.979 34.214,27.932 C34.222,27.932 34.23,27.935 34.239,27.935 C34.256,27.935 34.272,27.93 34.289,27.929 C38.395,27.757 43.129,27.247 46.32,26.162 C46.127,26.778 46,27.408 46,28 C46,29.001 46.568,30.218 47.354,31.902 C48.471,34.294 50,37.57 50,41 C50,50.374 41.477,58 31,58 C20.523,58 12,50.374 12,41 C12,37.57 13.529,34.294 14.646,31.902 C15.432,30.218 16,29.001 16,28 C16,27.408 15.873,26.778 15.68,26.162 C16.765,26.531 18.028,26.833 19.385,27.079 L19.385,27.079 Z" id="Shape" fill="#000000"></path>
        <path d="M23,16 C25.757,16 28,13.757 28,11 C28,8.243 25.757,6 23,6 C20.243,6 18,8.243 18,11 C18,13.757 20.243,16 23,16 L23,16 Z M23,8 C24.654,8 26,9.346 26,11 C26,12.654 24.654,14 23,14 C21.346,14 20,12.654 20,11 C20,9.346 21.346,8 23,8 L23,8 Z" id="Shape" fill="#000000"></path>
        <path d="M33,16 C34.654,16 36,14.654 36,13 C36,11.346 34.654,10 33,10 C31.346,10 30,11.346 30,13 C30,14.654 31.346,16 33,16 L33,16 Z M33,12 C33.552,12 34,12.449 34,13 C34,13.551 33.552,14 33,14 C32.448,14 32,13.551 32,13 C32,12.449 32.448,12 33,12 L33,12 Z" id="Shape" fill="#000000"></path>
    </g>
</svg>