<?xml version="1.0" encoding="UTF-8" standalone="no"?>
<svg width="64px" height="64px" viewBox="0 0 64 64" version="1.1" xmlns="http://www.w3.org/2000/svg" xmlns:xlink="http://www.w3.org/1999/xlink">
    <!-- Generator: Sketch 3.7.2 (28276) - http://www.bohemiancoding.com/sketch -->
    <title>hal-witch-hat</title>
    <desc>Created with Sketch.</desc>
    <defs></defs>
    <g id="64px-Line" stroke="none" stroke-width="1" fill="none" fill-rule="evenodd">
        <g id="hal-witch-hat"></g>
        <path d="M42.226,35.198 C42.086,34.123 42,33.325 42,33 C42,32.44 43.075,30.776 43.786,29.675 C44.925,27.912 46,26.247 46,25 C46,22.514 29.486,6 27,6 C26.572,6 26.184,6.2 25.935,6.549 C25.104,7.71 25.915,10.731 28.618,18.66 C29.206,20.384 29.866,22.322 29.984,22.897 C29.631,23.418 28.043,24.664 26.97,25.504 C23.878,27.929 22,29.508 22,31 C22,31.521 21.847,32.979 21.623,34.833 C10.896,36.745 4,41.475 4,47 C4,54.29 15.859,60 31,60 C46.141,60 58,54.29 58,47 C58,41.902 51.828,37.315 42.226,35.198 L42.226,35.198 Z M41.949,46.77 C41.451,47.048 40.119,47.412 38,47.672 L38,42 L41.194,42 C41.514,44.072 41.811,45.914 41.949,46.77 L41.949,46.77 Z M22.707,42 L26,42 L26,47.671 C23.871,47.41 22.536,47.044 22.044,46.765 C22.154,45.992 22.413,44.156 22.707,42 L22.707,42 Z M28,40 L36,40 L36,47.863 C34.827,47.947 33.495,48 32,48 C30.505,48 29.173,47.948 28,47.863 L28,40 L28,40 Z M28.204,27.079 C30.836,25.015 32,24.058 32,23 C32,22.435 31.614,21.252 30.511,18.015 C29.636,15.448 27.957,10.522 27.649,8.414 C31.245,10.898 43.214,22.974 43.997,25.073 C43.925,25.776 42.878,27.396 42.107,28.59 C40.976,30.339 40,31.85 40,33 C40,33.488 40.139,34.694 40.342,36.2 C40.344,36.208 40.343,36.216 40.345,36.224 C40.499,37.368 40.69,38.679 40.889,39.999 L38,39.999 L38,38.999 C38,38.447 37.553,37.999 37,37.999 L27,37.999 C26.447,37.999 26,38.447 26,38.999 L26,39.999 L22.977,39.999 C23.485,36.191 24,32.08 23.999,31.021 C24.127,30.275 26.779,28.196 28.204,27.079 L28.204,27.079 Z M31,58 C17.448,58 6,52.962 6,47 C6,42.727 12.255,38.669 21.363,36.913 C21.205,38.145 21.032,39.453 20.86,40.728 C20.834,40.816 20.805,40.904 20.805,41 C20.805,41.019 20.815,41.035 20.816,41.054 C20.505,43.349 20.203,45.505 20.009,46.859 C20.003,46.905 20,46.953 20,47 C20,49.708 28.392,50 32,50 C42.831,50 44,47.902 44,47 C44,46.946 43.996,46.892 43.987,46.839 C43.525,44.006 42.933,40.231 42.516,37.312 C50.638,39.248 56,43.057 56,47 C56,52.962 44.552,58 31,58 L31,58 Z" id="Shape" fill="#000000"></path>
    </g>
</svg>