<?xml version="1.0" encoding="UTF-8" standalone="no"?>
<svg width="64px" height="64px" viewBox="0 0 64 64" version="1.1" xmlns="http://www.w3.org/2000/svg" xmlns:xlink="http://www.w3.org/1999/xlink">
    <!-- Generator: Sketch 3.7.2 (28276) - http://www.bohemiancoding.com/sketch -->
    <title>hal-wand</title>
    <desc>Created with Sketch.</desc>
    <defs></defs>
    <g id="64px-Line" stroke="none" stroke-width="1" fill="none" fill-rule="evenodd">
        <g id="hal-wand"></g>
        <path d="M36.293,26.293 L4.293,58.293 C3.902,58.684 3.902,59.316 4.293,59.707 C4.488,59.902 4.744,60 5,60 C5.256,60 5.512,59.902 5.707,59.707 L37.707,27.707 C38.098,27.316 38.098,26.684 37.707,26.293 C37.316,25.902 36.684,25.902 36.293,26.293 L36.293,26.293 Z" id="Shape" fill="#000000"></path>
        <path d="M57.813,24.419 L53.109,17.833 L55.948,9.316 C56.068,8.957 55.974,8.56 55.707,8.293 C55.439,8.025 55.042,7.932 54.684,8.051 L46.167,10.89 L39.581,6.186 C39.276,5.969 38.875,5.938 38.542,6.111 C38.209,6.282 38,6.625 38,7 L38,15.446 L30.47,20.152 C30.142,20.358 29.961,20.734 30.007,21.118 C30.053,21.502 30.317,21.826 30.684,21.949 L39.209,24.791 L42.052,33.317 C42.174,33.684 42.497,33.948 42.882,33.994 C42.922,33.999 42.961,34.001 43,34.001 C43.342,34.001 43.664,33.825 43.848,33.531 L48.555,26.001 L57,26.001 C57.375,26.001 57.718,25.792 57.89,25.459 C58.061,25.125 58.031,24.724 57.813,24.419 L57.813,24.419 Z M48,24 C47.655,24 47.335,24.178 47.152,24.47 L43.277,30.669 L40.948,23.683 C40.849,23.385 40.615,23.15 40.316,23.051 L33.33,20.722 L39.53,16.847 C39.822,16.664 40,16.344 40,15.999 L40,8.942 L45.419,12.813 C45.68,12.999 46.013,13.048 46.316,12.948 L53.419,10.58 L51.052,17.683 C50.95,17.987 51,18.32 51.187,18.58 L55.057,23.999 L48,23.999 L48,24 Z" id="Shape" fill="#000000"></path>
    </g>
</svg>