<?xml version="1.0" encoding="UTF-8" standalone="no"?>
<svg width="64px" height="64px" viewBox="0 0 64 64" version="1.1" xmlns="http://www.w3.org/2000/svg" xmlns:xlink="http://www.w3.org/1999/xlink">
    <!-- Generator: Sketch 3.7.2 (28276) - http://www.bohemiancoding.com/sketch -->
    <title>hal-skull</title>
    <desc>Created with Sketch.</desc>
    <defs></defs>
    <g id="64px-Line" stroke="none" stroke-width="1" fill="none" fill-rule="evenodd">
        <g id="hal-skull"></g>
        <path d="M29,40 C28.447,40 28,40.448 28,41 L28,47 C28,47.552 28.447,48 29,48 C29.553,48 30,47.552 30,47 L30,41 C30,40.448 29.553,40 29,40 L29,40 Z" id="Shape" fill="#000000"></path>
        <path d="M33,48 C33.553,48 34,47.552 34,47 L34,41 C34,40.448 33.553,40 33,40 C32.447,40 32,40.448 32,41 L32,47 C32,47.552 32.447,48 33,48 L33,48 Z" id="Shape" fill="#000000"></path>
        <path d="M22,38 C26.411,38 30,34.411 30,30 C30,27.263 28.612,24 22,24 C15.388,24 14,27.263 14,30 C14,34.411 17.589,38 22,38 L22,38 Z M22,26 C27.378,26 28,28.283 28,30 C28,33.309 25.309,36 22,36 C18.691,36 16,33.309 16,30 C16,28.283 16.622,26 22,26 L22,26 Z" id="Shape" fill="#000000"></path>
        <path d="M40,38 C44.411,38 48,34.411 48,30 C48,27.263 46.612,24 40,24 C33.388,24 32,27.263 32,30 C32,34.411 35.589,38 40,38 L40,38 Z M40,26 C45.378,26 46,28.283 46,30 C46,33.309 43.309,36 40,36 C36.691,36 34,33.309 34,30 C34,28.283 34.622,26 40,26 L40,26 Z" id="Shape" fill="#000000"></path>
        <path d="M18,51.049 L18,56 C18,58.206 19.794,60 22,60 C23.201,60 24.266,59.458 25,58.618 C25.734,59.458 26.799,60 28,60 C29.201,60 30.266,59.458 31,58.618 C31.734,59.458 32.799,60 34,60 C35.201,60 36.266,59.458 37,58.618 C37.734,59.458 38.799,60 40,60 C42.206,60 44,58.206 44,56 L44,51.049 C51.988,47.363 56,45.278 56,30 C56,16.318 45.252,6 31,6 C16.748,6 6,16.318 6,30 C6,45.363 10.012,47.367 18,51.049 L18,51.049 Z M31,8 C44.327,8 54,17.252 54,30 C54,43.506 51.249,45.467 44,48.845 L44,44 C44,42.897 44.897,42 46,42 L48,42 C48.553,42 49,41.552 49,41 C49,40.448 48.553,40 48,40 L46,40 C43.794,40 42,41.794 42,44 L42,56 C42,57.103 41.103,58 40,58 C38.897,58 38,57.103 38,56 L38,53 C38,52.448 37.553,52 37,52 C36.447,52 36,52.448 36,53 L36,56 C36,57.103 35.103,58 34,58 C32.897,58 32,57.103 32,56 L32,53 C32,52.448 31.553,52 31,52 C30.447,52 30,52.448 30,53 L30,56 C30,57.103 29.103,58 28,58 C26.897,58 26,57.103 26,56 L26,53 C26,52.448 25.553,52 25,52 C24.447,52 24,52.448 24,53 L24,56 C24,57.103 23.103,58 22,58 C20.897,58 20,57.103 20,56 L20,44 C20,41.794 18.206,40 16,40 L14,40 C13.447,40 13,40.448 13,41 C13,41.552 13.447,42 14,42 L16,42 C17.103,42 18,42.897 18,44 L18,48.846 C10.749,45.475 8,43.583 8,30 C8,17.252 17.673,8 31,8 L31,8 Z" id="Shape" fill="#000000"></path>
    </g>
</svg>