<?xml version="1.0" encoding="UTF-8" standalone="no"?>
<svg width="64px" height="64px" viewBox="0 0 64 64" version="1.1" xmlns="http://www.w3.org/2000/svg" xmlns:xlink="http://www.w3.org/1999/xlink">
    <!-- Generator: Sketch 3.7.2 (28276) - http://www.bohemiancoding.com/sketch -->
    <title>hal-axe</title>
    <desc>Created with Sketch.</desc>
    <defs></defs>
    <g id="64px-Line" stroke="none" stroke-width="1" fill="none" fill-rule="evenodd">
        <g id="hal-axe"></g>
        <path d="M34.512,22.771 C36.21,21.052 38.05,19.423 40.026,18.004 C40.243,17.849 40.388,17.613 40.43,17.35 C40.472,17.087 40.408,16.818 40.251,16.603 L32.969,6.593 C32.647,6.149 32.025,6.05 31.577,6.369 C29.591,7.794 27.493,9.074 25.38,10.22 L22.61,6.411 C22.288,5.966 21.666,5.868 21.218,6.187 L16.179,9.804 C15.962,9.959 15.817,10.195 15.775,10.458 C15.733,10.721 15.797,10.99 15.954,11.205 L17.835,13.79 C10.703,16.732 4.883,18.06 4.789,18.081 C4.35,18.179 4.03,18.559 4.008,19.008 C3.994,19.291 3.717,26.012 8.122,32.067 C12.476,38.052 20.055,41.513 20.375,41.658 C20.509,41.718 20.648,41.746 20.785,41.746 C21.164,41.746 21.525,41.53 21.694,41.165 C21.736,41.073 24.385,35.416 29.036,29.186 L51.154,59.587 C51.349,59.857 51.654,59.999 51.964,59.999 C52.166,59.999 52.369,59.938 52.546,59.811 L57.584,56.194 C57.801,56.039 57.946,55.803 57.988,55.541 C58.03,55.277 57.966,55.009 57.809,54.794 L34.512,22.771 L34.512,22.771 Z M18.162,10.843 L21.576,8.392 L23.59,11.16 C22.287,11.82 20.991,12.426 19.721,12.985 L18.162,10.843 L18.162,10.843 Z M9.738,30.891 C6.566,26.531 6.077,21.668 6.01,19.847 C9.256,19.042 21.666,15.651 31.93,8.567 L38.048,16.978 C34.104,19.964 30.736,23.652 27.999,27.211 L27.999,27 C27.999,25.346 26.653,24 24.999,24 C23.345,24 21.999,25.346 21.999,27 L21.999,29 C21.999,29.551 21.551,30 20.999,30 C20.447,30 19.999,29.551 19.999,29 L19.999,25 C19.999,23.346 18.653,22 16.999,22 C15.345,22 13.999,23.346 13.999,25 L13.999,33 C13.999,33.527 13.579,34.398 13.249,34.553 C13.197,34.576 13.085,34.497 13.02,34.446 C11.836,33.393 10.695,32.205 9.738,30.891 L9.738,30.891 Z M20.324,39.404 C19.166,38.806 17.005,37.6 14.763,35.883 C15.569,35.106 16,33.83 16,32.999 L16,24.999 C16,24.448 16.448,23.999 17,23.999 C17.552,23.999 18,24.448 18,24.999 L18,28.999 C18,30.653 19.346,31.999 21,31.999 C22.654,31.999 24,30.653 24,28.999 L24,26.999 C24,26.448 24.448,25.999 25,25.999 C25.552,25.999 26,26.448 26,26.999 L26,29.931 C23.093,34.094 21.151,37.749 20.324,39.404 L20.324,39.404 Z M52.186,57.608 L30.308,27.535 C31.184,26.433 32.118,25.327 33.11,24.244 L55.6,55.157 L52.186,57.608 L52.186,57.608 Z" id="Shape" fill="#000000"></path>
        <path d="M19.003,44 L19,44 C18.694,44 18.405,44.14 18.216,44.38 C17.784,44.926 14,49.808 14,53 C14,55.757 16.243,58 19,58 C21.757,58 24,55.757 24,53 C24,49.871 20.22,44.938 19.788,44.385 C19.6,44.143 19.31,44.001 19.003,44 L19.003,44 Z M19,56 C17.346,56 16,54.654 16,53 C16,51.3 17.757,48.438 18.996,46.683 C20.236,48.454 22,51.336 22,53 C22,54.654 20.654,56 19,56 L19,56 Z" id="Shape" fill="#000000"></path>
    </g>
</svg>