<?xml version="1.0" encoding="UTF-8" standalone="no"?>
<svg width="64px" height="64px" viewBox="0 0 64 64" version="1.1" xmlns="http://www.w3.org/2000/svg" xmlns:xlink="http://www.w3.org/1999/xlink">
    <!-- Generator: Sketch 3.7.2 (28276) - http://www.bohemiancoding.com/sketch -->
    <title>hal-arrow-head</title>
    <desc>Created with Sketch.</desc>
    <defs></defs>
    <g id="64px-Line" stroke="none" stroke-width="1" fill="none" fill-rule="evenodd">
        <g id="hal-arrow-head"></g>
        <path d="M59.924,16.617 C59.769,16.243 59.404,16 59,16 L51,16 C50.735,16 50.48,16.105 50.293,16.293 L46.586,20 L44.595,20 C42.233,14.635 37.402,12 30,12 C22.598,12 17.767,14.635 15.405,20 L7.85,20 L10.624,17.781 C11.056,17.436 11.125,16.807 10.78,16.376 C10.435,15.944 9.805,15.875 9.375,16.22 L4.375,20.22 C4.138,20.409 4,20.696 4,21 C4,21.304 4.138,21.591 4.375,21.781 L9.375,25.781 C9.56,25.928 9.78,26 10,26 C10.293,26 10.584,25.872 10.781,25.625 C11.126,25.194 11.056,24.564 10.625,24.22 L7.851,22 L14.691,22 C14.101,23.984 13.766,26.253 13.71,28.841 C12,29.527 12,32.134 12,34.667 C12,36.489 12,40.153 15.602,40.618 C17.76,49.014 23.102,54 30,54 C36.898,54 42.241,49.013 44.398,40.614 C48,40.115 48,36.202 48,34.667 C48,32.134 48,29.527 46.291,28.841 C46.235,26.253 45.9,23.985 45.31,22 L46.586,22 L50.293,25.707 C50.48,25.895 50.735,26 51,26 L59,26 C59.404,26 59.769,25.756 59.924,25.383 C60.079,25.009 59.993,24.579 59.707,24.293 L56.414,21 L59.707,17.707 C59.993,17.421 60.079,16.991 59.924,16.617 L59.924,16.617 Z M21,20 L17.593,20 C19.748,15.905 23.794,14 30,14 C36.83,14 41.044,16.307 42.999,21.302 C43.013,21.344 43.022,21.386 43.041,21.426 C43.792,23.397 44.191,25.791 44.272,28.611 C40.793,28.252 39.425,25.949 37.747,21.013 C37.628,20.663 37.327,20.408 36.962,20.348 C36.597,20.287 36.229,20.433 36.005,20.727 C32.297,25.575 25.651,28.157 15.728,28.62 C15.8,26.061 16.141,23.86 16.764,22.001 L21,22.001 C21.552,22.001 22,21.553 22,21.001 C22,20.449 21.552,20 21,20 L21,20 Z M43.6,38.667 C43.134,38.667 42.73,38.988 42.625,39.442 C40.79,47.423 36.188,52 30,52 C23.811,52 19.208,47.423 17.375,39.443 C17.271,38.989 16.866,38.667 16.4,38.667 C14.74,38.667 14,38.09 14,34.667 C14,32.478 14.053,30.667 14.7,30.667 L14.7,30.667 L14.731,30.667 C24.933,30.353 32.059,27.94 36.437,23.303 C38.037,27.578 40.041,30.668 45.3,30.668 C45.947,30.668 46,32.48 46,34.668 C46,38.366 44.913,38.667 43.6,38.667 L43.6,38.667 Z M54.293,20.293 C53.902,20.684 53.902,21.316 54.293,21.707 L56.586,24 L51.414,24 L48.414,21 L51.414,18 L56.586,18 L54.293,20.293 L54.293,20.293 Z" id="Shape" fill="#000000"></path>
    </g>
</svg>