<?xml version="1.0" encoding="UTF-8" standalone="no"?>
<svg width="64px" height="64px" viewBox="0 0 64 64" version="1.1" xmlns="http://www.w3.org/2000/svg" xmlns:xlink="http://www.w3.org/1999/xlink">
    <!-- Generator: Sketch 3.7.2 (28276) - http://www.bohemiancoding.com/sketch -->
    <title>hal-masquerade</title>
    <desc>Created with Sketch.</desc>
    <defs></defs>
    <g id="64px-Line" stroke="none" stroke-width="1" fill="none" fill-rule="evenodd">
        <g id="hal-masquerade"></g>
        <path d="M57.561,8.172 C57.231,7.948 56.802,7.942 56.466,8.154 C56.437,8.173 53.515,10 51,10 C48.855,10 47.247,9.097 45.543,8.141 C43.669,7.088 41.73,6 39,6 C34.698,6 32.198,7.988 31,9.33 C29.802,7.988 27.302,6 23,6 C20.27,6 18.331,7.088 16.457,8.141 C14.753,9.097 13.145,10 11,10 C8.497,10 5.562,8.172 5.533,8.154 C5.196,7.942 4.767,7.951 4.438,8.173 C4.11,8.396 3.944,8.792 4.016,9.183 C4.081,9.531 4.704,12.796 6.012,16.752 C6.011,16.774 5.999,16.793 5.999,16.814 L5.999,57 C5.999,57.553 6.447,58 6.999,58 C7.551,58 7.999,57.553 7.999,57 L7.999,21.866 C10.4,27.117 13.98,32 18.999,32 C24.198,32 26.428,29.623 28.056,27.886 C29.218,26.647 29.877,26 30.999,26 C32.121,26 32.78,26.647 33.942,27.886 C35.57,29.622 37.8,32 42.999,32 C53.625,32 57.809,10.114 57.982,9.183 C58.056,8.792 57.89,8.395 57.561,8.172 L57.561,8.172 Z M43,30 C38.667,30 36.933,28.15 35.402,26.518 C34.241,25.28 33.041,24 31,24 C28.959,24 27.759,25.28 26.598,26.518 C25.067,28.15 23.333,30 19,30 C12.305,30 8.013,17.641 6.418,10.864 C7.673,11.422 9.367,12 11,12 C13.668,12 15.583,10.925 17.436,9.885 C19.163,8.916 20.793,8 23,8 C28.123,8 30.044,11.339 30.121,11.476 C30.295,11.797 30.631,11.995 30.996,11.997 L31.002,11.997 C31.364,11.997 31.7,11.798 31.877,11.481 C31.956,11.339 33.877,8 39.001,8 C41.208,8 42.839,8.916 44.565,9.885 C46.417,10.925 48.333,12 51.001,12 C52.634,12 54.329,11.422 55.584,10.864 C53.99,17.641 49.701,30 43,30 L43,30 Z" id="Shape" fill="#000000"></path>
        <path d="M21,14 C16.621,14 14.221,18.339 14.121,18.524 C13.96,18.821 13.96,19.179 14.121,19.476 C14.221,19.661 16.621,24 21,24 C25.379,24 27.779,19.661 27.879,19.476 C28.04,19.179 28.04,18.821 27.879,18.524 C27.779,18.339 25.379,14 21,14 L21,14 Z M21,22 C18.548,22 16.841,19.949 16.182,18.998 C16.838,18.045 18.533,16 21,16 C23.451,16 25.157,18.05 25.818,19.002 C25.162,19.956 23.467,22 21,22 L21,22 Z" id="Shape" fill="#000000"></path>
        <path d="M41,14 C36.621,14 34.221,18.339 34.121,18.524 C33.96,18.821 33.96,19.179 34.121,19.476 C34.221,19.661 36.621,24 41,24 C45.379,24 47.779,19.661 47.879,19.476 C48.04,19.179 48.04,18.821 47.879,18.524 C47.779,18.339 45.379,14 41,14 L41,14 Z M41,22 C38.548,22 36.841,19.949 36.182,18.998 C36.838,18.045 38.533,16 41,16 C43.451,16 45.157,18.05 45.818,19.002 C45.162,19.956 43.467,22 41,22 L41,22 Z" id="Shape" fill="#000000"></path>
    </g>
</svg>