<?xml version="1.0" encoding="UTF-8" standalone="no"?>
<svg width="64px" height="64px" viewBox="0 0 64 64" version="1.1" xmlns="http://www.w3.org/2000/svg" xmlns:xlink="http://www.w3.org/1999/xlink">
    <!-- Generator: Sketch 3.7.2 (28276) - http://www.bohemiancoding.com/sketch -->
    <title>hal-rip</title>
    <desc>Created with Sketch.</desc>
    <defs></defs>
    <g id="64px-Line" stroke="none" stroke-width="1" fill="none" fill-rule="evenodd">
        <g id="hal-rip"></g>
        <path d="M39.647,22.076 C39.103,21.955 38.573,22.296 38.454,22.835 L35.415,36.5 C35.295,37.04 35.635,37.574 36.174,37.693 C36.247,37.709 36.32,37.717 36.392,37.717 C36.85,37.717 37.264,37.4 37.367,36.934 L40.406,23.268 C40.526,22.729 40.187,22.195 39.647,22.076 L39.647,22.076 Z" id="Shape" fill="#000000"></path>
        <path d="M49.3,29.344 C49.59,28.04 49.355,26.701 48.638,25.574 C47.921,24.447 46.808,23.667 45.505,23.377 L43.553,22.943 C43.011,22.823 42.479,23.163 42.36,23.702 L40.628,31.491 C40.626,31.498 40.625,31.505 40.623,31.512 C40.622,31.519 40.62,31.526 40.619,31.533 L39.321,37.369 C39.201,37.909 39.541,38.443 40.08,38.562 C40.153,38.578 40.226,38.586 40.298,38.586 C40.756,38.586 41.17,38.269 41.273,37.803 L42.358,32.922 L43.334,33.139 C44.639,33.431 45.976,33.194 47.103,32.477 C48.23,31.76 49.01,30.647 49.3,29.344 L49.3,29.344 Z M47.348,28.91 C46.988,30.525 45.385,31.543 43.768,31.187 L42.792,30.97 L44.095,25.114 L45.071,25.331 C45.853,25.505 46.521,25.973 46.951,26.649 C47.381,27.325 47.521,28.128 47.348,28.91 L47.348,28.91 Z" id="Shape" fill="#000000"></path>
        <path d="M35.633,26.305 C36.232,23.614 34.529,20.937 31.838,20.339 L29.886,19.905 C29.346,19.783 28.812,20.125 28.693,20.664 L25.653,34.33 C25.533,34.869 25.873,35.404 26.412,35.523 C26.485,35.539 26.558,35.547 26.63,35.547 C27.088,35.547 27.502,35.23 27.605,34.764 L28.69,29.883 L29.667,30.1 C29.789,30.127 29.909,30.125 30.03,30.143 L31.516,36.091 C31.63,36.546 32.037,36.849 32.485,36.849 C32.566,36.849 32.647,36.84 32.728,36.819 C33.264,36.685 33.59,36.142 33.456,35.607 L32.061,30.021 C33.791,29.547 35.218,28.175 35.633,26.305 L35.633,26.305 Z M33.681,25.871 C33.322,27.486 31.715,28.504 30.101,28.148 L29.125,27.931 L30.428,22.075 L31.404,22.292 C33.019,22.65 34.04,24.256 33.681,25.871 L33.681,25.871 Z" id="Shape" fill="#000000"></path>
        <path d="M5,60 L57,60 C57.552,60 58,59.552 58,59 C58,58.448 57.552,58 57,58 L51.122,58 L57.543,29.129 C58.645,24.175 57.751,19.088 55.027,14.806 C52.303,10.524 48.075,7.558 43.121,6.457 C38.167,5.355 33.08,6.249 28.798,8.973 C24.516,11.697 21.55,15.925 20.449,20.879 L12.194,58 L5,58 C4.448,58 4,58.448 4,59 C4,59.552 4.448,60 5,60 L5,60 Z M22.401,21.313 C23.387,16.88 26.04,13.097 29.871,10.66 C33.703,8.222 38.254,7.422 42.686,8.409 C47.119,9.395 50.902,12.048 53.339,15.879 C55.777,19.711 56.576,24.261 55.59,28.694 L49.073,58 L14.242,58 L22.401,21.313 L22.401,21.313 Z" id="Shape" fill="#000000"></path>
    </g>
</svg>