<?xml version="1.0" encoding="UTF-8" standalone="no"?>
<svg width="64px" height="64px" viewBox="0 0 64 64" version="1.1" xmlns="http://www.w3.org/2000/svg" xmlns:xlink="http://www.w3.org/1999/xlink">
    <!-- Generator: Sketch 3.7.2 (28276) - http://www.bohemiancoding.com/sketch -->
    <title>hal-web-2</title>
    <desc>Created with Sketch.</desc>
    <defs></defs>
    <g id="64px-Line" stroke="none" stroke-width="1" fill="none" fill-rule="evenodd">
        <g id="hal-web-2"></g>
        <path d="M57.937,6.687 C57.926,6.654 57.92,6.619 57.906,6.587 C57.858,6.483 57.796,6.383 57.711,6.298 C57.708,6.295 57.704,6.292 57.701,6.289 C57.616,6.205 57.518,6.143 57.414,6.095 C57.381,6.08 57.346,6.074 57.312,6.063 C57.229,6.036 57.147,6.018 57.06,6.012 C57.038,6.011 57.021,6 57,6 L5,6 C4.448,6 4,6.447 4,7 C4,7.553 4.448,8 5,8 L12.321,8 C13.21,10.387 16.142,19.72 12.195,29.989 L4.525,34.119 C4.039,34.382 3.857,34.988 4.119,35.473 C4.381,35.96 4.988,36.142 5.473,35.88 L13.24,31.698 C20.974,31.764 26.523,34.969 29.731,41.239 C31.879,45.439 32.239,49.712 32.296,50.768 L28.119,58.526 C27.857,59.011 28.039,59.618 28.525,59.88 C28.676,59.961 28.838,59.999 28.998,59.999 C29.354,59.999 29.699,59.809 29.879,59.473 L34.009,51.803 C44.784,47.661 54.293,51.1 55.999,51.792 L55.999,59 C55.999,59.553 56.447,60 56.999,60 C57.551,60 57.999,59.553 57.999,59 L57.999,7 C57.999,6.979 57.989,6.962 57.987,6.942 C57.983,6.854 57.965,6.771 57.937,6.687 L57.937,6.687 Z M32.214,8 C32.626,9.853 33.508,14.906 32.162,19.238 L24.553,23.336 C26.014,16.777 24.919,10.604 24.299,8 L32.214,8 L32.214,8 Z M42.242,8 C42.52,9.144 42.927,11.568 42.178,13.845 L34.543,17.956 C35.286,13.99 34.676,9.983 34.263,8 L42.242,8 L42.242,8 Z M56,29.795 C54.196,29.384 50.151,28.68 46.045,29.454 L50.155,21.821 C52.629,21.005 55.114,21.571 56,21.828 L56,29.795 L56,29.795 Z M43.238,15.546 C44.337,15.602 48.285,16.135 48.446,20.775 L44.615,27.89 C43.847,24.858 41.791,20.532 36.304,19.279 L43.238,15.546 L43.238,15.546 Z M46.002,14.058 L54.539,9.461 L49.899,18.078 C49.283,16.467 48.087,14.857 46.002,14.058 L46.002,14.058 Z M44.506,12.591 C44.745,10.783 44.526,9.106 44.294,8 L53.033,8 L44.506,12.591 L44.506,12.591 Z M33.239,20.93 C42.2,21.076 42.999,29.225 43.069,30.762 L39.346,37.677 C38.863,35.118 37.706,31.566 34.92,28.739 C32.725,26.513 29.891,25.121 26.471,24.574 L33.239,20.93 L33.239,20.93 Z M44.761,31.839 C49.347,30.407 54.541,31.491 56,31.853 L56,39.769 C53.64,39.165 47.423,37.937 40.664,39.448 L44.761,31.839 L44.761,31.839 Z M56,19.757 C54.971,19.507 53.288,19.24 51.41,19.489 L56,10.965 L56,19.757 L56,19.757 Z M14.454,8 L22.235,8 C22.796,10.216 24.293,17.463 22.152,24.628 L14.799,28.587 C17.662,19.271 15.549,11.169 14.454,8 L14.454,8 Z M16.548,29.918 L23.237,26.316 C27.571,26.362 31.021,27.64 33.484,30.131 C37.283,33.973 37.652,39.59 37.688,40.756 L33.925,47.744 C32.931,42.264 29.355,31.591 16.548,29.918 L16.548,29.918 Z M35.412,49.2 L39.371,41.848 C46.86,39.608 54.266,41.364 56,41.84 L56,49.644 C53.115,48.584 44.985,46.25 35.412,49.2 L35.412,49.2 Z" id="Shape" fill="#000000"></path>
    </g>
</svg>