<?xml version="1.0" encoding="UTF-8" standalone="no"?>
<svg width="64px" height="64px" viewBox="0 0 64 64" version="1.1" xmlns="http://www.w3.org/2000/svg" xmlns:xlink="http://www.w3.org/1999/xlink">
    <!-- Generator: Sketch 3.7.2 (28276) - http://www.bohemiancoding.com/sketch -->
    <title>hal-broom-hat</title>
    <desc>Created with Sketch.</desc>
    <defs></defs>
    <g id="64px-Line" stroke="none" stroke-width="1" fill="none" fill-rule="evenodd">
        <g id="hal-broom-hat"></g>
        <path d="M20.122,35.479 C20.304,35.812 20.647,36 21.001,36 C21.163,36 21.327,35.961 21.479,35.878 L43.479,23.878 C43.964,23.613 44.143,23.006 43.878,22.522 C43.614,22.037 43.008,21.859 42.521,22.123 L39.262,23.901 L33.025,18.443 C32.374,17.874 32,17.05 32,16.185 L32,12.472 C32,10.567 30.941,8.853 29.236,8 L25.447,6.105 C25.084,5.923 24.65,5.978 24.344,6.244 C24.038,6.51 23.923,6.932 24.051,7.316 L25.63,12.05 C25.834,12.662 25.834,13.336 25.63,13.947 L22.42,23.578 C22.119,24.482 22.082,25.448 22.313,26.371 L23.803,32.331 L20.522,34.121 C20.036,34.387 19.857,34.994 20.122,35.479 L20.122,35.479 Z M24.253,25.888 C24.114,25.333 24.137,24.753 24.317,24.211 L27.527,14.58 C27.866,13.561 27.866,12.438 27.527,11.419 L26.712,8.975 L28.341,9.789 C29.364,10.301 29.999,11.328 29.999,12.472 L29.999,16.185 C29.999,17.626 30.622,18.998 31.707,19.949 L37.389,24.922 L25.616,31.344 L24.253,25.888 L24.253,25.888 Z" id="Shape" fill="#000000"></path>
        <path d="M55.816,23.112 C55.047,22.894 54.238,22.991 53.54,23.384 L25.939,38.939 C13.02,38.401 4.781,43.924 4.435,44.161 C4.066,44.414 3.91,44.881 4.053,45.305 C4.196,45.729 4.617,46.014 5.048,45.986 L7.511,45.87 L6.12,47.931 C5.909,48.244 5.892,48.651 6.078,48.981 C6.263,49.31 6.616,49.508 6.996,49.49 L9.459,49.375 L8.068,51.435 C7.856,51.748 7.839,52.155 8.025,52.485 C8.21,52.814 8.565,53.022 8.943,52.994 L11.406,52.879 L10.015,54.94 C9.804,55.253 9.787,55.66 9.973,55.99 C10.158,56.319 10.515,56.525 10.891,56.499 L13.354,56.383 L11.963,58.444 C11.713,58.815 11.739,59.307 12.028,59.649 C12.223,59.879 12.505,60.003 12.793,60.003 C12.932,60.003 13.073,59.974 13.206,59.914 C13.588,59.741 22.565,55.562 28.867,44.19 L56.471,28.634 C57.909,27.823 58.424,25.988 57.62,24.544 C57.229,23.838 56.588,23.331 55.816,23.112 L55.816,23.112 Z M31.026,38.368 L32.002,40.124 L28.525,42.084 L27.548,40.328 L31.026,38.368 L31.026,38.368 Z M16.204,55.712 C16.34,55.422 16.33,55.081 16.17,54.797 C15.985,54.468 15.626,54.267 15.252,54.288 L12.789,54.404 L14.18,52.343 C14.391,52.03 14.408,51.623 14.222,51.293 C14.037,50.964 13.675,50.764 13.304,50.784 L10.841,50.899 L12.232,48.839 C12.444,48.526 12.461,48.119 12.275,47.789 C12.09,47.46 11.738,47.262 11.357,47.28 L8.894,47.395 L10.285,45.334 C10.496,45.021 10.513,44.614 10.327,44.284 C10.166,43.998 9.877,43.812 9.557,43.779 C13.033,42.33 18.618,40.688 25.6,40.933 L26.99,43.433 C23.548,49.548 19.249,53.483 16.204,55.712 L16.204,55.712 Z M55.488,26.889 L33.745,39.142 L32.769,37.386 L54.522,25.127 C54.752,24.998 55.018,24.967 55.272,25.037 C55.528,25.109 55.741,25.278 55.871,25.514 C56.143,26 55.971,26.616 55.488,26.889 L55.488,26.889 Z" id="Shape" fill="#000000"></path>
    </g>
</svg>