<?xml version="1.0" encoding="UTF-8" standalone="no"?>
<svg width="64px" height="64px" viewBox="0 0 64 64" version="1.1" xmlns="http://www.w3.org/2000/svg" xmlns:xlink="http://www.w3.org/1999/xlink">
    <!-- Generator: Sketch 3.7.2 (28276) - http://www.bohemiancoding.com/sketch -->
    <title>hal-mummy</title>
    <desc>Created with Sketch.</desc>
    <defs></defs>
    <g id="64px-Line" stroke="none" stroke-width="1" fill="none" fill-rule="evenodd">
        <g id="hal-mummy"></g>
        <path d="M23,34 C24.654,34 26,32.654 26,31 C26,29.346 24.654,28 23,28 C21.346,28 20,29.346 20,31 C20,32.654 21.346,34 23,34 L23,34 Z M23,30 C23.551,30 24,30.449 24,31 C24,31.551 23.551,32 23,32 C22.449,32 22,31.551 22,31 C22,30.449 22.449,30 23,30 L23,30 Z" id="Shape" fill="#000000"></path>
        <path d="M39,34 C40.654,34 42,32.654 42,31 C42,29.346 40.654,28 39,28 C37.346,28 36,29.346 36,31 C36,32.654 37.346,34 39,34 L39,34 Z M39,30 C39.551,30 40,30.449 40,31 C40,31.551 39.551,32 39,32 C38.449,32 38,31.551 38,31 C38,30.449 38.449,30 39,30 L39,30 Z" id="Shape" fill="#000000"></path>
        <path d="M12.602,42.63 C12.659,42.858 12.728,43.071 12.788,43.295 C12.796,43.336 12.808,43.373 12.821,43.412 C13.752,46.809 15.092,49.751 16.777,52.178 C16.826,52.283 16.891,52.375 16.969,52.454 C18.444,54.512 20.166,56.19 22.104,57.431 C22.218,57.534 22.348,57.616 22.494,57.659 C25.021,59.18 27.882,60.001 30.999,60.001 C38.025,60.001 43.779,55.895 47.214,48.74 C47.231,48.713 47.242,48.683 47.257,48.655 C48.124,46.834 48.848,44.826 49.398,42.629 C53.456,42.201 54,38.456 54,35.169 C54,31.911 54,28.555 51.792,27.817 C51.748,25.223 51.487,22.877 51.031,20.751 C51.023,20.657 51.013,20.563 50.98,20.476 C50.27,17.321 49.088,14.698 47.442,12.582 C47.358,12.404 47.24,12.249 47.079,12.15 C45.119,9.813 42.543,8.148 39.337,7.15 C39.197,7.066 39.039,7.022 38.873,7.014 C36.559,6.35 33.949,6 31,6 C19.896,6 13.324,10.672 11.08,20.217 C11.046,20.308 11.023,20.398 11.016,20.494 C10.525,22.683 10.253,25.12 10.207,27.815 C8,28.553 8,31.909 8,35.167 C8,38.833 8.579,42.241 12.602,42.63 L12.602,42.63 Z M10.031,36.349 L47.36,42.476 C46.927,44.142 46.404,45.694 45.787,47.113 L14.574,42.219 C14.509,41.959 14.435,41.71 14.375,41.444 C14.271,40.989 13.867,40.667 13.4,40.667 C11.308,40.667 10.215,39.978 10.031,36.349 L10.031,36.349 Z M15.179,44.339 L28.716,46.462 L18.047,50.548 C16.897,48.77 15.934,46.693 15.179,44.339 L15.179,44.339 Z M19.254,52.228 L32.683,47.084 L40.49,48.308 L22.861,55.579 C21.537,54.694 20.334,53.567 19.254,52.228 L19.254,52.228 Z M31,58 C28.891,58 26.926,57.589 25.125,56.81 L44.291,48.904 L44.869,48.994 C41.753,54.791 36.936,58 31,58 L31,58 Z M48.667,40.665 L38.313,38.966 C41.998,38.037 47.175,36.548 51.995,34.515 C51.996,34.733 52,34.933 52,35.167 C52,39.718 50.778,40.646 48.667,40.665 L48.667,40.665 Z M12.891,21.158 C14.759,19.88 24.943,13.184 38.837,9.042 C41.196,9.771 43.154,10.893 44.729,12.429 C40.986,13.421 37.118,14.8 33.39,16.328 C33.353,16.341 33.319,16.354 33.285,16.371 C28.682,18.262 24.302,20.374 20.641,22.267 C20.609,22.279 20.583,22.297 20.553,22.312 C16.872,24.218 13.934,25.891 12.248,26.877 C12.325,24.792 12.534,22.881 12.891,21.158 L12.891,21.158 Z M48.594,19.146 C46.474,18.335 42.751,17.119 38.316,16.561 C40.955,15.601 43.609,14.762 46.189,14.123 C47.216,15.537 48.012,17.211 48.594,19.146 L48.594,19.146 Z M33.926,18.266 C41.109,18.314 47.484,20.817 49.175,21.54 C49.503,23.243 49.713,25.095 49.776,27.142 C46.463,25.82 37.683,22.839 25.031,22.29 C27.787,20.939 30.805,19.551 33.926,18.266 L33.926,18.266 Z M31,8 C32.359,8 33.624,8.083 34.827,8.225 C24.965,11.583 17.317,15.972 13.704,18.242 C16.171,11.242 21.756,8 31,8 L31,8 Z M11.2,29.667 L11.2,29.667 L11.2,29.667 C11.317,29.667 11.432,29.639 11.544,29.598 C11.575,29.586 11.604,29.573 11.634,29.558 C11.664,29.543 11.696,29.536 11.725,29.518 C11.81,29.466 15.639,27.116 21.257,24.197 C38.691,24.247 49.898,29.35 50.356,29.563 C50.49,29.629 50.641,29.667 50.8,29.667 C51.524,29.667 51.82,30.533 51.934,32.366 C43.993,35.832 34.472,37.83 33.096,38.109 L10.007,34.319 C10.036,31.126 10.255,29.667 11.2,29.667 L11.2,29.667 Z" id="Shape" fill="#000000"></path>
    </g>
</svg>