<?xml version="1.0" encoding="UTF-8" standalone="no"?>
<svg width="64px" height="64px" viewBox="0 0 64 64" version="1.1" xmlns="http://www.w3.org/2000/svg" xmlns:xlink="http://www.w3.org/1999/xlink">
    <!-- Generator: Sketch 3.7.2 (28276) - http://www.bohemiancoding.com/sketch -->
    <title>hal-bones</title>
    <desc>Created with Sketch.</desc>
    <defs></defs>
    <g id="64px-Line" stroke="none" stroke-width="1" fill="none" fill-rule="evenodd">
        <g id="hal-bones"></g>
        <path d="M11,26 C12.532,26 13.989,25.511 15.192,24.607 L21.461,30.876 C21.656,31.071 21.912,31.169 22.168,31.169 C22.424,31.169 22.68,31.071 22.875,30.876 C23.266,30.485 23.266,29.853 22.875,29.462 L15.949,22.536 C15.574,22.161 14.91,22.161 14.535,22.536 C13.591,23.48 12.335,24 11,24 C9.665,24 8.409,23.48 7.465,22.536 C6.521,21.592 6,20.335 6,19 C6,17.665 6.521,16.409 7.465,15.464 C9.064,13.865 11.547,13.537 13.5,14.668 C13.979,14.944 14.591,14.781 14.866,14.303 C15.143,13.825 14.979,13.213 14.502,12.937 C13.741,12.497 12.921,12.231 12.088,12.101 C12.268,11.109 12.737,10.194 13.465,9.465 C14.409,8.52 15.665,8 17,8 C18.335,8 19.591,8.52 20.535,9.464 C21.479,10.408 22,11.665 22,13 C22,14.335 21.479,15.591 20.535,16.536 C20.347,16.724 20.242,16.978 20.242,17.243 C20.242,17.508 20.347,17.763 20.535,17.95 L27.461,24.876 C27.656,25.071 27.912,25.169 28.168,25.169 C28.424,25.169 28.68,25.071 28.875,24.876 C29.266,24.485 29.266,23.853 28.875,23.462 L22.606,17.193 C23.511,15.989 24,14.532 24,13 C24,11.13 23.271,9.373 21.949,8.05 C20.627,6.727 18.87,6 17,6 C15.13,6 13.373,6.728 12.051,8.05 C10.952,9.149 10.271,10.55 10.069,12.065 C8.586,12.265 7.165,12.936 6.051,14.05 C4.729,15.373 4,17.13 4,19 C4,20.87 4.729,22.627 6.051,23.95 C7.373,25.273 9.13,26 11,26 L11,26 Z" id="Shape" fill="#000000"></path>
        <path d="M51,40 C49.468,40 48.011,40.489 46.808,41.393 L40.537,35.122 C40.146,34.731 39.514,34.731 39.123,35.122 C38.732,35.513 38.732,36.145 39.123,36.536 L46.052,43.464 C46.427,43.839 47.091,43.839 47.466,43.464 C48.409,42.52 49.665,42 51,42 C52.335,42 53.591,42.52 54.535,43.464 C55.479,44.408 56,45.665 56,47 C56,48.335 55.479,49.591 54.535,50.536 C53.807,51.264 52.892,51.733 51.9,51.912 C51.77,51.079 51.503,50.26 51.063,49.499 C50.787,49.02 50.176,48.856 49.697,49.134 C49.219,49.411 49.055,50.022 49.333,50.5 C50.463,52.455 50.136,54.937 48.536,56.536 C47.591,57.48 46.335,58 45,58 C43.665,58 42.409,57.48 41.465,56.536 C40.521,55.592 40,54.335 40,53 C40,51.665 40.521,50.409 41.465,49.464 C41.653,49.276 41.758,49.022 41.758,48.757 C41.758,48.492 41.653,48.237 41.465,48.05 L34.536,41.122 C34.145,40.731 33.513,40.731 33.122,41.122 C32.731,41.513 32.731,42.145 33.122,42.536 L39.393,48.807 C38.489,50.011 38,51.468 38,53 C38,54.87 38.729,56.627 40.051,57.95 C41.373,59.273 43.13,60 45,60 C46.87,60 48.627,59.272 49.949,57.95 C51.064,56.836 51.736,55.415 51.935,53.931 C53.45,53.73 54.851,53.049 55.949,51.95 C57.271,50.627 58,48.87 58,47 C58,45.13 57.271,43.373 55.949,42.05 C54.627,40.727 52.87,40 51,40 L51,40 Z" id="Shape" fill="#000000"></path>
        <path d="M51.931,12.064 C51.729,10.549 51.048,9.148 49.95,8.05 C48.627,6.728 46.87,6 45,6 C43.13,6 41.373,6.728 40.051,8.05 C38.729,9.372 38,11.13 38,13 C38,14.532 38.489,15.989 39.394,17.193 L15.193,41.393 C13.989,40.489 12.532,40 11,40 C9.13,40 7.373,40.728 6.051,42.05 C4.729,43.372 4,45.13 4,47 C4,48.87 4.729,50.627 6.051,51.95 C7.149,53.049 8.55,53.73 10.065,53.931 C10.265,55.415 10.937,56.836 12.051,57.95 C13.373,59.272 15.13,60 17,60 C18.87,60 20.627,59.272 21.949,57.95 C23.271,56.628 24,54.87 24,53 C24,51.468 23.511,50.011 22.606,48.807 L46.807,24.607 C48.011,25.511 49.468,26 51,26 C52.87,26 54.627,25.272 55.949,23.95 C57.271,22.628 58,20.87 58,19 C58,17.13 57.271,15.373 55.949,14.05 C54.835,12.936 53.414,12.264 51.931,12.064 L51.931,12.064 Z M54.535,22.536 C53.591,23.48 52.335,24 51,24 C49.665,24 48.409,23.48 47.465,22.536 C47.277,22.348 47.024,22.243 46.758,22.243 C46.492,22.243 46.238,22.348 46.051,22.536 L20.535,48.05 C20.347,48.238 20.242,48.492 20.242,48.757 C20.242,49.022 20.347,49.277 20.535,49.464 C21.479,50.409 22,51.665 22,53 C22,54.335 21.479,55.591 20.535,56.536 C19.591,57.481 18.335,58 17,58 C15.665,58 14.409,57.48 13.465,56.536 C11.865,54.937 11.538,52.455 12.668,50.5 C12.945,50.022 12.781,49.411 12.304,49.134 C11.823,48.856 11.212,49.02 10.938,49.499 C10.498,50.26 10.231,51.08 10.101,51.912 C9.109,51.732 8.194,51.264 7.466,50.536 C6.521,49.591 6,48.335 6,47 C6,45.665 6.521,44.409 7.465,43.464 C8.409,42.519 9.665,42 11,42 C12.335,42 13.591,42.52 14.535,43.464 C14.723,43.652 14.976,43.757 15.242,43.757 C15.508,43.757 15.762,43.652 15.949,43.464 L41.465,17.949 C41.653,17.761 41.758,17.507 41.758,17.242 C41.758,16.977 41.653,16.722 41.465,16.535 C40.521,15.591 40,14.335 40,13 C40,11.665 40.521,10.409 41.465,9.464 C42.409,8.519 43.665,8 45,8 C46.335,8 47.591,8.52 48.535,9.464 C49.263,10.193 49.732,11.108 49.912,12.1 C49.079,12.23 48.259,12.496 47.498,12.937 C47.02,13.213 46.856,13.825 47.134,14.303 C47.409,14.781 48.02,14.945 48.5,14.668 C50.454,13.538 52.937,13.866 54.535,15.464 C55.479,16.409 56,17.665 56,19 C56,20.335 55.479,21.591 54.535,22.536 L54.535,22.536 Z" id="Shape" fill="#000000"></path>
    </g>
</svg>