<?xml version="1.0" encoding="UTF-8" standalone="no"?>
<svg width="64px" height="64px" viewBox="0 0 64 64" version="1.1" xmlns="http://www.w3.org/2000/svg" xmlns:xlink="http://www.w3.org/1999/xlink">
    <!-- Generator: Sketch 3.7.2 (28276) - http://www.bohemiancoding.com/sketch -->
    <title>hal-head-cleaver</title>
    <desc>Created with Sketch.</desc>
    <defs></defs>
    <g id="64px-Line" stroke="none" stroke-width="1" fill="none" fill-rule="evenodd">
        <g id="hal-head-cleaver"></g>
        <circle id="Oval" fill="#000000" cx="18" cy="12" r="2"></circle>
        <path d="M55,6 L15,6 C13.346,6 12,7.346 12,9 L12,21 C12,21.552 12.447,22 13,22 L14.118,22 C11.297,24.792 9.834,29.052 9.709,34.841 C8,35.527 8,38.135 8,40.667 C8,42.489 8,46.153 11.603,46.618 C13.76,55.014 19.102,60 26,60 C32.898,60 38.24,55.013 40.398,46.614 C44,46.115 44,42.202 44,40.667 C44,38.135 44,35.527 42.291,34.841 C42.166,29.052 40.703,24.792 37.882,22 L39,22 C39.553,22 40,21.552 40,21 L40,16 L55,16 C55.552,16 56,16.449 56,17 C56,17.552 56.447,18 57,18 C57.553,18 58,17.552 58,17 L58,9 C58,7.346 56.654,6 55,6 L55,6 Z M39.6,44.667 C39.134,44.667 38.73,44.988 38.625,45.442 C36.789,53.423 32.188,58 26,58 C19.811,58 15.209,53.423 13.375,45.443 C13.271,44.989 12.866,44.667 12.4,44.667 C10.74,44.667 10,44.09 10,40.667 C10,38.073 10.111,36.667 10.7,36.667 L10.731,36.667 C20.932,36.353 28.058,33.939 32.436,29.302 C34.037,33.577 36.04,36.667 41.299,36.667 C41.888,36.667 41.999,38.073 41.999,40.667 C42,44.366 40.913,44.667 39.6,44.667 L39.6,44.667 Z M40.272,34.61 C36.792,34.251 35.425,31.948 33.746,27.011 C33.628,26.661 33.326,26.406 32.962,26.346 C32.591,26.286 32.23,26.432 32.006,26.725 C28.298,31.573 21.651,34.155 11.728,34.618 C12.014,24.532 16.441,20 26,20 C35.557,20 39.984,24.529 40.272,34.61 L40.272,34.61 Z M38,20 L35.168,20 C32.74,18.673 29.698,18 26,18 C22.302,18 19.26,18.673 16.832,20 L14,20 L14,9 C14,8.449 14.448,8 15,8 L38,8 L38,20 L38,20 Z M56,14.171 C55.688,14.06 55.351,14 55,14 L40,14 L40,8 L55,8 C55.552,8 56,8.449 56,9 L56,14.171 L56,14.171 Z" id="Shape" fill="#000000"></path>
    </g>
</svg>