<?xml version="1.0" encoding="UTF-8" standalone="no"?>
<svg width="64px" height="64px" viewBox="0 0 64 64" version="1.1" xmlns="http://www.w3.org/2000/svg" xmlns:xlink="http://www.w3.org/1999/xlink">
    <!-- Generator: Sketch 3.7.2 (28276) - http://www.bohemiancoding.com/sketch -->
    <title>hal-scythe</title>
    <desc>Created with Sketch.</desc>
    <defs></defs>
    <g id="64px-Line" stroke="none" stroke-width="1" fill="none" fill-rule="evenodd">
        <g id="hal-scythe"></g>
        <path d="M51,15.993 C50.448,15.993 50,16.44 50,16.993 C50,17.638 49.909,18.264 49.774,18.88 C30.672,1.074 10.904,6.975 10.701,7.038 C10.28,7.17 9.995,7.562 10.001,8.004 C10.006,8.445 10.3,8.831 10.724,8.953 C10.935,9.014 31.616,15.144 38.332,31.457 C37.995,31.689 37.663,31.916 37.338,32.139 C36.272,32.868 35.274,33.551 34.406,34.192 C32.782,35.392 30.622,36.989 28.404,38.987 L23.707,34.289 C23.316,33.898 22.684,33.898 22.293,34.289 C21.902,34.68 21.902,35.312 22.293,35.703 L26.945,40.356 C22.373,44.835 18,51.028 18,59 C18,59.553 18.448,60 19,60 C19.552,60 20,59.553 20,59 C20,51.269 24.445,45.373 29.03,41.102 C29.044,41.09 29.062,41.085 29.075,41.072 C29.084,41.063 29.086,41.051 29.095,41.042 C31.416,38.889 33.769,37.149 35.594,35.8 C36.444,35.172 37.422,34.503 38.467,33.789 C44.178,29.884 52,24.534 52,16.993 C52,16.44 51.552,15.993 51,15.993 L51,15.993 Z M39.995,30.293 C34.485,17.426 21.243,10.807 14.833,8.277 C21.224,7.498 35.326,7.726 49.068,20.957 C47.368,24.63 43.591,27.731 39.995,30.293 L39.995,30.293 Z" id="Shape" fill="#000000"></path>
    </g>
</svg>