<?xml version="1.0" encoding="UTF-8"?>
<svg width="22px" height="22px" viewBox="0 0 22 22" version="1.1" xmlns="http://www.w3.org/2000/svg" xmlns:xlink="http://www.w3.org/1999/xlink">
    <!-- Generator: Sketch 52.2 (67145) - http://www.bohemiancoding.com/sketch -->
    <defs>
        <path d="M12,23 C5.92486775,23 1,18.0751322 1,12 C1,5.92486775 5.92486775,1 12,1 C18.0751322,1 23,5.92486775 23,12 C23,18.0751322 18.0751322,23 12,23 Z M10.35,17.4801205 C10.35,17.9439782 10.5104151,18.3382514 10.83125,18.6629518 C11.1520849,18.9876522 11.5416644,19.15 12,19.15 C12.4583356,19.15 12.8479151,18.9876522 13.16875,18.6629518 C13.4895849,18.3382514 13.65,17.9439782 13.65,17.4801205 C13.65,17.0162627 13.4895849,16.628616 13.16875,16.3171687 C12.8479151,16.0057213 12.4583356,15.85 12,15.85 C11.5416644,15.85 11.1520849,16.0057213 10.83125,16.3171687 C10.5104151,16.628616 10.35,17.0162627 10.35,17.4801205 Z M13.5400004,6.93999997 C13.5400004,6.08948147 12.8505189,5.4 12.0000004,5.4 C11.1494819,5.4 10.4600004,6.08948147 10.4600004,6.93999997 L10.4600004,12.6600779 C10.4600004,13.5105964 11.1494819,14.2000778 12.0000004,14.2000778 C12.8505189,14.2000778 13.5400004,13.5105964 13.5400004,12.6600779 L13.5400004,6.93999997 Z" id="hlx-exclaim-icon-1"></path>
    </defs>
    <g id="Symbols" stroke="none" stroke-width="1" fill="none" fill-rule="evenodd">
        <g id="Icon-/-Warning-/-Fill" transform="translate(-1.000000, -1.000000)">
            <mask id="mask-2" fill="white">
                <use xlink:href="#hlx-exclaim-icon-1"></use>
            </mask>
            <use id="↳Color" fill="#fff" xlink:href="#hlx-exclaim-icon-1"></use>
        </g>
    </g>
</svg>