<?xml version="1.0" encoding="UTF-8"?>
<svg width="22px" height="22px" viewBox="0 0 22 22" version="1.1" xmlns="http://www.w3.org/2000/svg" xmlns:xlink="http://www.w3.org/1999/xlink">
    <!-- Generator: Sketch 52.2 (67145) - http://www.bohemiancoding.com/sketch -->
    <title>↳Color</title>
    <desc>Created with Sketch.</desc>
    <defs>
        <path d="M12,3 C14.0096254,3 15.8693825,3.50239882 17.5793269,4.50721154 C19.2363865,5.45913938 20.5408606,6.76361351 21.4927885,8.42067308 C22.4976012,10.1306175 23,11.9903746 23,14 C23,16.0096254 22.4976012,17.8693825 21.4927885,19.5793269 C20.5408606,21.2363865 19.2363865,22.5408606 17.5793269,23.4927885 C15.8693825,24.4976012 14.0096254,25 12,25 C9.99037457,25 8.13061752,24.4976012 6.42067308,23.4927885 C4.76361351,22.5232323 3.45913937,21.2099442 2.50721154,19.5528846 C1.50239882,17.8429402 1,15.9919971 1,14 C1,12.0080029 1.50239882,10.1570598 2.50721154,8.44711538 C3.47676767,6.79005582 4.79005582,5.47676767 6.44711538,4.50721154 C8.15705983,3.50239882 10.0080029,3 12,3 Z M12,7.38942308 C12.7932732,7.38942308 13.5248364,7.5877384 14.1947115,7.984375 C14.8645867,8.3810116 15.3978346,8.91425947 15.7944712,9.58413462 C16.1911078,10.2540098 16.3894231,10.985573 16.3894231,11.7788462 C16.3894231,12.3782081 16.2131428,12.933491 15.8605769,13.4447115 C15.6490374,13.7620208 15.2700348,14.1630585 14.7235577,14.6478365 C14.1770806,15.1326146 13.806892,15.5072102 13.6129808,15.7716346 C13.4755722,15.9571362 13.3582464,16.2089094 13.2610035,16.5269542 L13.260969,16.5269436 C13.1195659,16.9894196 12.6926849,17.3052885 12.2090746,17.3052885 L11.9218896,17.3053062 C11.4358692,17.3053062 11.0418719,16.9113088 11.0418719,16.4252885 C11.0418719,16.3683729 11.0473934,16.3115915 11.0583589,16.2557422 C11.1158137,15.9631143 11.1828992,15.7312323 11.2596154,15.5600962 C11.4358983,15.1722737 11.7091328,14.8020851 12.0793269,14.4495192 C12.2203533,14.3261212 12.5464718,14.0617007 13.0576923,13.65625 C13.4455148,13.356569 13.7187492,13.0921486 13.8774038,12.8629808 C14.1065717,12.5456715 14.2211538,12.1842969 14.2211538,11.7788462 C14.2211538,11.1794842 14.0008035,10.6682713 13.5600962,10.2451923 C13.1193888,9.82211327 12.599362,9.61057692 12,9.61057692 C11.400638,9.61057692 10.8806112,9.82211327 10.4399038,10.2451923 C10.2556685,10.4220583 10.1003155,10.689035 9.973845,11.0461225 L9.97380803,11.0461094 C9.81825887,11.4852999 9.40287952,11.7788462 8.93695691,11.7788462 L8.69471154,11.7788462 C8.19231338,11.7788462 7.78503921,11.371572 7.78503921,10.8691738 C7.78503921,10.7975472 7.79349882,10.7261712 7.81024226,10.656529 C7.91953656,10.2021015 8.051286,9.84463364 8.20552885,9.58413462 C8.60216544,8.91425947 9.13541332,8.3810116 9.80528846,7.984375 C10.4751636,7.5877384 11.2067268,7.38942308 12,7.38942308 Z M10.9158654,19.5264423 L10.9158654,19.4735577 C10.9158654,18.8748067 11.401249,18.3894231 12,18.3894231 C12.598751,18.3894231 13.0841346,18.8748067 13.0841346,19.4735577 L13.0841346,19.5264423 C13.0841346,20.1251933 12.598751,20.6105769 12,20.6105769 C11.401249,20.6105769 10.9158654,20.1251933 10.9158654,19.5264423 Z" id="hlx-question-icon-1"></path>
    </defs>
    <g id="Symbols" stroke="none" stroke-width="1" fill="none" fill-rule="evenodd">
        <g id="Icon-/-Help-/-Fill" transform="translate(-1.000000, -3.000000)">
            <mask id="mask-2" fill="white">
                <use xlink:href="#hlx-question-icon-1"></use>
            </mask>
            <use id="↳Color" fill="#fff" xlink:href="#hlx-question-icon-1"></use>
        </g>
    </g>
</svg>