<?xml version="1.0" encoding="UTF-8" standalone="no"?>
<svg width="64px" height="64px" viewBox="0 0 64 64" version="1.1" xmlns="http://www.w3.org/2000/svg" xmlns:xlink="http://www.w3.org/1999/xlink">
    <!-- Generator: Sketch 3.7.2 (28276) - http://www.bohemiancoding.com/sketch -->
    <title>hou-coat-stand</title>
    <desc>Created with Sketch.</desc>
    <defs></defs>
    <g id="64px-Line" stroke="none" stroke-width="1" fill="none" fill-rule="evenodd">
        <g id="hou-coat-stand"></g>
        <path d="M41.3,6 C40.8,5.8 40.2,6.1 40.1,6.7 C40,7.3 40.2,7.8 40.8,7.9 C40.9,7.9 44.1,9 44.1,12.9 C44.1,16 41.3,17.3 38.3,18.6 C36.8,19.2 35.3,19.9 34.1,20.9 L34.1,9.7 C35.3,9.3 36.1,8.2 36.1,6.9 C36.1,5.2 34.8,3.9 33.1,3.9 C31.4,3.9 30.1,5.2 30.1,6.9 C30.1,8.2 30.9,9.3 32.1,9.7 L32.1,21 C30.9,20 29.4,19.3 27.9,18.7 C24.9,17.4 22.1,16.1 22.1,13 C22.1,9 25.3,8 25.4,8 C25.9,7.8 26.2,7.3 26.1,6.8 C25.9,6.3 25.4,6 24.9,6.1 C23.3,6.6 20.2,8.7 20.2,13.1 C20.2,17.5 23.9,19.2 27.2,20.6 C30.3,22 32.2,23 32.2,25.1 C32.2,26.8 30.9,28.1 29.2,28.1 C27.5,28.1 26.2,26.8 26.2,25.1 C26.2,24.5 25.8,24.1 25.2,24.1 C24.6,24.1 24.2,24.5 24.2,25.1 C24.2,27.9 26.4,30.1 29.2,30.1 C30.3,30.1 31.4,29.7 32.2,29.1 L32.2,41.1 C32.2,45.2 29.9,47.2 27.5,49.4 C25,51.7 22.2,54.2 22.2,59.1 C22.2,59.7 22.6,60.1 23.2,60.1 C23.8,60.1 24.2,59.7 24.2,59.1 C24.2,55.1 26.5,53.1 28.8,50.9 C30,49.9 31.2,48.7 32.2,47.4 L32.2,59 C32.2,59.6 32.6,60 33.2,60 C33.8,60 34.2,59.6 34.2,59 L34.2,47.3 C35.2,48.7 36.4,49.8 37.6,50.8 C40,53 42.2,55 42.2,59 C42.2,59.6 42.6,60 43.2,60 C43.8,60 44.2,59.6 44.2,59 C44.2,54.1 41.4,51.6 38.9,49.3 C36.5,47.1 34.2,45 34.2,41 L34.2,29 C35,29.6 36.1,30 37.2,30 C40,30 42.2,27.8 42.2,25 C42.2,24.4 41.8,24 41.2,24 C40.6,24 40.2,24.4 40.2,25 C40.2,26.7 38.9,28 37.2,28 C35.5,28 34.2,26.7 34.2,25 C34.2,22.9 36.1,21.9 39.2,20.5 C42.5,19 46.2,17.4 46.2,13 C46,8.6 42.9,6.5 41.3,6 L41.3,6 Z M33,6 C33.6,6 34,6.4 34,7 C34,7.6 33.6,8 33,8 C32.4,8 32,7.6 32,7 C32,6.4 32.4,6 33,6 L33,6 Z" id="Shape" fill="#000000"></path>
    </g>
</svg>