<?xml version="1.0" encoding="UTF-8" standalone="no"?>
<svg width="64px" height="64px" viewBox="0 0 64 64" version="1.1" xmlns="http://www.w3.org/2000/svg" xmlns:xlink="http://www.w3.org/1999/xlink">
    <!-- Generator: Sketch 3.7.2 (28276) - http://www.bohemiancoding.com/sketch -->
    <title>hou-light-table</title>
    <desc>Created with Sketch.</desc>
    <defs></defs>
    <g id="64px-Line" stroke="none" stroke-width="1" fill="none" fill-rule="evenodd">
        <g id="hou-light-table"></g>
        <path d="M20,4.7 L12,30.7 C11.9,31 12,31.3 12.2,31.6 C12.4,31.9 12.7,32 13,32 L30,32 L30,34.2 C23.2,35.2 18,41 18,48 C18,52.8 20.4,57.3 24.5,59.8 C24.7,59.9 24.8,60 25,60 L38.9,60 C39.1,60 39.3,59.9 39.4,59.8 C43.5,57.2 45.9,52.8 45.9,48 C45.9,41 40.7,35.1 33.9,34.2 L33.9,32 L50.9,32 C51.2,32 51.5,31.8 51.7,31.6 C51.9,31.3 51.9,31 51.9,30.7 L43.9,4.7 C43.8,4.3 43.4,4 42.9,4 L20.9,4 C20.6,4 20.2,4.3 20,4.7 L20,4.7 Z M44,48 C44,52 42,55.8 38.6,58 L25.3,58 C21.9,55.8 19.9,52 19.9,48 C19.9,41.4 25.3,36 31.9,36 C38.5,36 44,41.4 44,48 L44,48 Z M42.3,6 L49.7,30 L33,30 L31,30 L14.4,30 L21.8,6 L42.3,6 L42.3,6 Z" id="Shape" fill="#000000"></path>
    </g>
</svg>