<?xml version="1.0" encoding="UTF-8" standalone="no"?>
<svg width="64px" height="64px" viewBox="0 0 64 64" version="1.1" xmlns="http://www.w3.org/2000/svg" xmlns:xlink="http://www.w3.org/1999/xlink">
    <!-- Generator: Sketch 3.7.2 (28276) - http://www.bohemiancoding.com/sketch -->
    <title>hou-cabinet-old</title>
    <desc>Created with Sketch.</desc>
    <defs></defs>
    <g id="64px-Line" stroke="none" stroke-width="1" fill="none" fill-rule="evenodd">
        <g id="hou-cabinet-old"></g>
        <path d="M29,16 L35,16 C35.6,16 36,15.6 36,15 C36,14.4 35.6,14 35,14 L29,14 C28.4,14 28,14.4 28,15 C28,15.6 28.4,16 29,16 L29,16 Z" id="Shape" fill="#000000"></path>
        <path d="M41,40 C41.6,40 42,39.6 42,39 L42,35 C42,34.4 41.6,34 41,34 C40.4,34 40,34.4 40,35 L40,39 C40,39.6 40.4,40 41,40 L41,40 Z" id="Shape" fill="#000000"></path>
        <path d="M45,24 L19,24 C18.4,24 18,24.4 18,25 L18,49 C18,49.6 18.4,50 19,50 L45,50 C45.6,50 46,49.6 46,49 L46,25 C46,24.4 45.6,24 45,24 L45,24 Z M44,48 L20,48 L20,26 L44,26 L44,48 L44,48 Z" id="Shape" fill="#000000"></path>
        <path d="M45,10 L19,10 C18.4,10 18,10.4 18,11 L18,21 C18,21.6 18.4,22 19,22 L45,22 C45.6,22 46,21.6 46,21 L46,11 C46,10.4 45.6,10 45,10 L45,10 Z M44,20 L20,20 L20,12 L44,12 L44,20 L44,20 Z" id="Shape" fill="#000000"></path>
        <path d="M50,8 L51,8 C51.6,8 52,7.6 52,7 C52,6.4 51.6,6 51,6 L13,6 C12.4,6 12,6.4 12,7 C12,7.6 12.4,8 13,8 L14,8 L14,59 C14,59.6 14.4,60 15,60 C15.6,60 16,59.6 16,59 L16,54 L48,54 L48,59 C48,59.6 48.4,60 49,60 C49.6,60 50,59.6 50,59 L50,8 L50,8 Z M16,52 L16,8 L48,8 L48,52 L16,52 L16,52 Z" id="Shape" fill="#000000"></path>
    </g>
</svg>