<?xml version="1.0" encoding="UTF-8" standalone="no"?>
<svg width="64px" height="64px" viewBox="0 0 64 64" version="1.1" xmlns="http://www.w3.org/2000/svg" xmlns:xlink="http://www.w3.org/1999/xlink">
    <!-- Generator: Sketch 3.7.2 (28276) - http://www.bohemiancoding.com/sketch -->
    <title>hou-picture</title>
    <desc>Created with Sketch.</desc>
    <defs></defs>
    <g id="64px-Line" stroke="none" stroke-width="1" fill="none" fill-rule="evenodd">
        <g id="hou-picture"></g>
        <path d="M51,16 L43.4,16 L31.7,6.2 C31.3,5.9 30.8,5.9 30.4,6.2 L18.7,16 L11,16 C10.4,16 10,16.4 10,17 L10,59 C10,59.6 10.4,60 11,60 L51,60 C51.6,60 52,59.6 52,59 L52,17 C52,16.4 51.6,16 51,16 L51,16 Z M31,8.3 L40.2,16 L21.7,16 L31,8.3 L31,8.3 Z M50,58 L12,58 L12,18 L50,18 L50,58 L50,58 Z" id="Shape" fill="#000000"></path>
        <path d="M14,21 L14,55 C14,55.6 14.4,56 15,56 L47,56 C47.6,56 48,55.6 48,55 L48,21 C48,20.4 47.6,20 47,20 L15,20 C14.4,20 14,20.4 14,21 L14,21 Z M16,22 L46,22 L46,54 L16,54 L16,22 L16,22 Z" id="Shape" fill="#000000"></path>
        <path d="M41,40 C36.3,40 33.6,42.1 32,44.2 L32,37.9 C37.8,36.9 38,27.4 38,27 C38,26.7 37.9,26.5 37.7,26.3 C37.5,26.1 37.3,26 37,26 L25,26 L24.9,26 L24.7,26 C24.7,26 24.6,26 24.6,26.1 C24.5,26.1 24.5,26.2 24.4,26.2 C24.4,26.2 24.4,26.2 24.3,26.2 C24.3,26.2 24.3,26.3 24.2,26.3 C24.2,26.4 24.1,26.4 24.1,26.5 C24.1,26.6 24,26.6 24,26.7 L24,26.8 C24,26.8 24,26.8 24,26.9 L24,27 C24,27.4 24.2,36.9 30,37.9 L30,44.2 C28.4,42.1 25.7,40 21,40 C20.7,40 20.4,40.1 20.3,40.3 C20.1,40.5 20,40.8 20.1,41.1 C20.1,41.2 21.3,50 31.1,50 C40.9,50 42.1,41.2 42.1,41.1 C42.1,40.8 42,40.5 41.9,40.3 C41.6,40.1 41.3,40 41,40 L41,40 Z M34.6,33.4 C33.4,30.8 31.7,29.1 30,28 L35.9,28 C35.8,29.3 35.5,31.6 34.6,33.4 L34.6,33.4 Z M26.1,28.3 C28,28.9 31.6,30.7 33.2,35.2 C32.6,35.7 31.9,36 31,36 C27.3,36 26.3,30.8 26.1,28.3 L26.1,28.3 Z M22.3,42.1 C27.3,42.6 29.1,46.1 29.7,48 C24.7,47.4 22.9,43.9 22.3,42.1 L22.3,42.1 Z M32.3,47.9 C32.9,46 34.7,42.5 39.7,42 C39.1,43.9 37.3,47.4 32.3,47.9 L32.3,47.9 Z" id="Shape" fill="#000000"></path>
    </g>
</svg>