<?xml version="1.0" encoding="UTF-8" standalone="no"?>
<svg width="64px" height="64px" viewBox="0 0 64 64" version="1.1" xmlns="http://www.w3.org/2000/svg" xmlns:xlink="http://www.w3.org/1999/xlink">
    <!-- Generator: Sketch 3.7.2 (28276) - http://www.bohemiancoding.com/sketch -->
    <title>hou-bath-shower</title>
    <desc>Created with Sketch.</desc>
    <defs></defs>
    <g id="64px-Line" stroke="none" stroke-width="1" fill="none" fill-rule="evenodd">
        <g id="hou-bath-shower"></g>
        <path d="M60,30 L8,30 L8,10 C8,7.8 9.8,6 12,6 C14.2,6 16,7.8 16,10 L13,10 C12.4,10 12,10.4 12,11 C12,11.6 12.4,12 13,12 L21,12 C21.6,12 22,11.6 22,11 C22,10.4 21.6,10 21,10 L18,10 C18,6.7 15.3,4 12,4 C8.7,4 6,6.7 6,10 L6,30 L4,30 C1.8,30 0,31.8 0,34 L0,35 C0,35.6 0.4,36 1,36 L2.4,36 L8.8,49.4 L8.8,49.5 C9,50 9.3,50.5 9.7,50.9 C9.2,51.2 8.7,51.6 8.4,52.1 L6.4,55.6 C6,56.3 5.9,57.1 6.1,57.9 C6.3,58.7 6.8,59.3 7.5,59.7 C8,60 8.5,60.1 9,60.1 C9.3,60.1 9.5,60.1 9.8,60 C10.6,59.8 11.2,59.3 11.6,58.6 L13.6,55.1 C13.8,54.7 13.9,54.3 14,53.8 C14.7,54 15.3,54.1 16,54.1 L48,54.1 C48.7,54.1 49.4,54 50,53.8 C50,54.2 50.1,54.7 50.4,55.1 L52.4,58.6 C52.8,59.3 53.4,59.8 54.2,60 C54.5,60.1 54.7,60.1 55,60.1 C55.5,60.1 56,60 56.5,59.7 C57.2,59.3 57.7,58.7 57.9,57.9 C58.1,57.1 58,56.3 57.6,55.6 L55.6,52.1 C55.3,51.6 54.9,51.2 54.3,50.9 C54.6,50.5 54.9,50 55.2,49.5 L55.2,49.4 L61.6,36 L63,36 C63.6,36 64,35.6 64,35 L64,34 C64,31.8 62.2,30 60,30 L60,30 Z M4,32 L60,32 C61.1,32 62,32.9 62,34 L2,34 C2,32.9 2.9,32 4,32 L4,32 Z M11.9,54 L9.9,57.5 C9.8,57.7 9.6,57.9 9.3,58 C9,58.1 8.8,58 8.5,57.9 C8.3,57.8 8.1,57.6 8,57.3 C7.9,57 8,56.8 8.1,56.5 L10.1,53 C10.2,52.8 10.4,52.6 10.7,52.5 L11,52.5 C11.2,52.5 11.3,52.5 11.5,52.6 C11.7,52.7 11.9,52.9 12,53.2 C12,53.5 12,53.8 11.9,54 L11.9,54 Z M55.9,56.5 C56,56.7 56.1,57 56,57.3 C55.9,57.6 55.8,57.8 55.5,57.9 C55.3,58 55,58.1 54.7,58 C54.4,57.9 54.2,57.8 54.1,57.5 L52.1,54 C52,53.8 51.9,53.5 52,53.2 C52.1,52.9 52.2,52.7 52.5,52.6 C52.7,52.5 52.8,52.5 53,52.5 L53.3,52.5 C53.6,52.6 53.8,52.7 53.9,53 L55.9,56.5 L55.9,56.5 Z M53.4,48.6 L53.4,48.6 C52.4,50.7 50.3,52 48,52 L16,52 C13.7,52 11.6,50.7 10.6,48.6 L10.6,48.5 L4.6,35.9 L59.4,35.9 L53.4,48.6 L53.4,48.6 Z" id="Shape" fill="#000000"></path>
    </g>
</svg>