<?xml version="1.0" encoding="UTF-8" standalone="no"?>
<svg width="44px" height="44px" viewBox="0 0 44 44" version="1.1" xmlns="http://www.w3.org/2000/svg" xmlns:xlink="http://www.w3.org/1999/xlink">
    <!-- Generator: Sketch 3.7.2 (28276) - http://www.bohemiancoding.com/sketch -->
    <title>hou-wardrobe-old</title>
    <desc>Created with Sketch.</desc>
    <defs></defs>
    <g id="44px-Line" stroke="none" stroke-width="1" fill="none" fill-rule="evenodd">
        <g id="hou-wardrobe-old"></g>
        <path d="M17,12 C16.448,12 16,12.447 16,13 L16,17 C16,17.553 16.448,18 17,18 C17.552,18 18,17.553 18,17 L18,13 C18,12.447 17.552,12 17,12 L17,12 Z" id="Shape" fill="#000000"></path>
        <path d="M25,18 C25.552,18 26,17.553 26,17 L26,13 C26,12.447 25.552,12 25,12 C24.448,12 24,12.447 24,13 L24,17 C24,17.553 24.448,18 25,18 L25,18 Z" id="Shape" fill="#000000"></path>
        <path d="M19,34 L23,34 C23.552,34 24,33.553 24,33 C24,32.447 23.552,32 23,32 L19,32 C18.448,32 18,32.447 18,33 C18,33.553 18.448,34 19,34 L19,34 Z" id="Shape" fill="#000000"></path>
        <path d="M31,28 L11,28 C10.448,28 10,28.447 10,29 L10,37 C10,37.553 10.448,38 11,38 L31,38 C31.552,38 32,37.553 32,37 L32,29 C32,28.447 31.552,28 31,28 L31,28 Z M30,36 L12,36 L12,30 L30,30 L30,36 L30,36 Z" id="Shape" fill="#000000"></path>
        <path d="M31,4 L11,4 C10.448,4 10,4.447 10,5 L10,25 C10,25.553 10.448,26 11,26 L31,26 C31.552,26 32,25.553 32,25 L32,5 C32,4.447 31.552,4 31,4 L31,4 Z M12,6 L20,6 L20,24 L12,24 L12,6 L12,6 Z M30,24 L22,24 L22,6 L30,6 L30,24 L30,24 Z" id="Shape" fill="#000000"></path>
        <path d="M35,44 C35.552,44 36,43.553 36,43 L36,2 L37,2 C37.552,2 38,1.553 38,1 C38,0.447 37.552,0 37,0 L5,0 C4.448,0 4,0.447 4,1 C4,1.553 4.448,2 5,2 L6,2 L6,43 C6,43.553 6.448,44 7,44 C7.552,44 8,43.553 8,43 L8,42 L34,42 L34,43 C34,43.553 34.448,44 35,44 L35,44 Z M8,40 L8,2 L34,2 L34,40 L8,40 L8,40 Z" id="Shape" fill="#000000"></path>
    </g>
</svg>