<?xml version="1.0" encoding="UTF-8" standalone="no"?>
<svg width="64px" height="64px" viewBox="0 0 64 64" version="1.1" xmlns="http://www.w3.org/2000/svg" xmlns:xlink="http://www.w3.org/1999/xlink">
    <!-- Generator: Sketch 3.7.2 (28276) - http://www.bohemiancoding.com/sketch -->
    <title>hou-shower-2</title>
    <desc>Created with Sketch.</desc>
    <defs></defs>
    <g id="64px-Line" stroke="none" stroke-width="1" fill="none" fill-rule="evenodd">
        <g id="hou-shower-2"></g>
        <path d="M49,6 L13,6 C12.4,6 12,6.4 12,7 L12,59 C12,59.6 12.4,60 13,60 L49,60 C49.6,60 50,59.6 50,59 L50,7 C50,6.4 49.6,6 49,6 L49,6 Z M30,8 L30,14 L25,14 C24.4,14 24,14.4 24,15 L24,19 C24,19.6 24.4,20 25,20 L37,20 C37.6,20 38,19.6 38,19 L38,15 C38,14.4 37.6,14 37,14 L32,14 L32,8 L48,8 L48,54 L14,54 L14,8 L30,8 L30,8 Z M36,16 L36,18 L26,18 L26,16 L36,16 L36,16 Z M14,58 L14,56 L48,56 L48,58 L14,58 L14,58 Z" id="Shape" fill="#000000"></path>
        <path d="M31,25 C31.6,25 32,24.6 32,24 L32,23 C32,22.4 31.6,22 31,22 C30.4,22 30,22.4 30,23 L30,24 C30,24.6 30.4,25 31,25 L31,25 Z" id="Shape" fill="#000000"></path>
        <path d="M31,31.9 C31.6,31.9 32,31.5 32,30.9 L32,29.2 C32,28.6 31.6,28.2 31,28.2 C30.4,28.2 30,28.6 30,29.2 L30,30.9 C30,31.5 30.4,31.9 31,31.9 L31,31.9 Z" id="Shape" fill="#000000"></path>
        <path d="M31,45.8 C31.6,45.8 32,45.4 32,44.8 L32,43.1 C32,42.5 31.6,42.1 31,42.1 C30.4,42.1 30,42.5 30,43.1 L30,44.8 C30,45.4 30.4,45.8 31,45.8 L31,45.8 Z" id="Shape" fill="#000000"></path>
        <path d="M31,38.9 C31.6,38.9 32,38.5 32,37.9 L32,36.2 C32,35.6 31.6,35.2 31,35.2 C30.4,35.2 30,35.6 30,36.2 L30,37.9 C30,38.4 30.4,38.9 31,38.9 L31,38.9 Z" id="Shape" fill="#000000"></path>
        <path d="M31,52 C31.6,52 32,51.6 32,51 L32,50 C32,49.4 31.6,49 31,49 C30.4,49 30,49.4 30,50 L30,51 C30,51.6 30.4,52 31,52 L31,52 Z" id="Shape" fill="#000000"></path>
        <path d="M26.7,25 L26.8,25 C27.3,25 27.7,24.6 27.8,24.1 L27.9,23.1 C28,22.6 27.6,22 27.1,22 C26.6,21.9 26,22.3 26,22.8 L25.9,23.8 C25.8,24.4 26.2,24.9 26.7,25 L26.7,25 Z" id="Shape" fill="#000000"></path>
        <path d="M24.7,38.9 L24.8,38.9 C25.3,38.9 25.7,38.5 25.8,38 L26,36.3 C26.1,35.8 25.7,35.2 25.2,35.2 C24.7,35.1 24.1,35.5 24.1,36 L23.9,37.7 C23.8,38.3 24.2,38.8 24.7,38.9 L24.7,38.9 Z" id="Shape" fill="#000000"></path>
        <path d="M25.7,31.9 L25.8,31.9 C26.3,31.9 26.7,31.5 26.8,31 L27,29.3 C27.1,28.8 26.7,28.2 26.2,28.2 C25.7,28.1 25.1,28.5 25.1,29 L24.9,30.7 C24.8,31.3 25.2,31.8 25.7,31.9 L25.7,31.9 Z" id="Shape" fill="#000000"></path>
        <path d="M23.7,45.8 L23.8,45.8 C24.3,45.8 24.7,45.4 24.8,44.9 L25,43.2 C25.1,42.7 24.7,42.1 24.2,42.1 C23.7,42 23.1,42.4 23.1,42.9 L22.9,44.6 C22.8,45.2 23.2,45.7 23.7,45.8 L23.7,45.8 Z" id="Shape" fill="#000000"></path>
        <path d="M22.9,52 L23,52 C23.5,52 23.9,51.6 24,51.1 L24.1,50.1 C24.2,49.6 23.8,49 23.3,49 C22.8,48.9 22.2,49.3 22.2,49.8 L22.1,50.8 C21.9,51.4 22.3,51.9 22.9,52 L22.9,52 Z" id="Shape" fill="#000000"></path>
        <path d="M35.1,25 L35.2,25 C35.7,24.9 36.1,24.4 36,23.9 L35.9,22.9 C35.8,22.4 35.3,22 34.8,22.1 C34.3,22.2 33.9,22.7 34,23.2 L34.1,24.2 C34.2,24.6 34.7,25 35.1,25 L35.1,25 Z" id="Shape" fill="#000000"></path>
        <path d="M35.9,36.3 L36.1,38 C36.2,38.5 36.6,38.9 37.1,38.9 L37.2,38.9 C37.7,38.8 38.1,38.3 38,37.8 L37.8,36.1 C37.7,35.6 37.2,35.2 36.7,35.3 C36.2,35.2 35.8,35.7 35.9,36.3 L35.9,36.3 Z" id="Shape" fill="#000000"></path>
        <path d="M34.9,29.3 L35.1,31 C35.2,31.5 35.6,31.9 36.1,31.9 L36.2,31.9 C36.7,31.8 37.1,31.3 37,30.8 L36.8,29.1 C36.7,28.6 36.2,28.2 35.7,28.3 C35.2,28.3 34.8,28.8 34.9,29.3 L34.9,29.3 Z" id="Shape" fill="#000000"></path>
        <path d="M36.9,43.2 L37.1,44.9 C37.2,45.4 37.6,45.8 38.1,45.8 L38.2,45.8 C38.7,45.7 39.1,45.2 39,44.7 L38.8,43 C38.7,42.5 38.2,42.1 37.7,42.2 C37.2,42.2 36.8,42.7 36.9,43.2 L36.9,43.2 Z" id="Shape" fill="#000000"></path>
        <path d="M37.9,50.2 L38,51.2 C38.1,51.7 38.5,52.1 39,52.1 L39.1,52.1 C39.6,52 40,51.5 39.9,51 L39.8,50 C39.7,49.5 39.2,49.1 38.7,49.2 C38.2,49.1 37.8,49.6 37.9,50.2 L37.9,50.2 Z" id="Shape" fill="#000000"></path>
    </g>
</svg>