<?xml version="1.0" encoding="UTF-8" standalone="no"?>
<svg width="64px" height="64px" viewBox="0 0 64 64" version="1.1" xmlns="http://www.w3.org/2000/svg" xmlns:xlink="http://www.w3.org/1999/xlink">
    <!-- Generator: Sketch 3.7.2 (28276) - http://www.bohemiancoding.com/sketch -->
    <title>hou-picture-portrait</title>
    <desc>Created with Sketch.</desc>
    <defs></defs>
    <g id="64px-Line" stroke="none" stroke-width="1" fill="none" fill-rule="evenodd">
        <g id="hou-picture-portrait"></g>
        <path d="M13,60 L51,60 C51.6,60 52,59.6 52,59 L52,15 C52,14.4 51.6,14 51,14 L43.4,14 L32.7,4.3 C32.3,4 31.7,4 31.4,4.3 L20.7,14 L13,14 C12.4,14 12,14.4 12,15 L12,59 C12,59.6 12.4,60 13,60 L13,60 Z M32,6.4 L40.4,14 L23.6,14 L32,6.4 L32,6.4 Z M14,16 L50,16 L50,58 L14,58 L14,16 L14,16 Z" id="Shape" fill="#000000"></path>
        <path d="M47,18 L17,18 C16.4,18 16,18.4 16,19 L16,55 C16,55.6 16.4,56 17,56 L47,56 C47.6,56 48,55.6 48,55 L48,19 C48,18.4 47.6,18 47,18 L47,18 Z M18,54 C18,46.3 24.3,40 32,40 C39.7,40 46,46.3 46,54 L18,54 L18,54 Z M26,32 C26,28.7 28.7,26 32,26 C35.3,26 38,28.7 38,32 C38,35.3 35.3,38 32,38 C28.7,38 26,35.3 26,32 L26,32 Z M36.5,38.6 C38.6,37.2 40,34.7 40,32 C40,27.6 36.4,24 32,24 C27.6,24 24,27.6 24,32 C24,34.8 25.4,37.2 27.5,38.6 C23.4,39.8 20,42.6 18,46.2 L18,20 L46,20 L46,46.3 C44,42.6 40.5,39.8 36.5,38.6 L36.5,38.6 Z" id="Shape" fill="#000000"></path>
    </g>
</svg>