<?xml version="1.0" encoding="UTF-8" standalone="no"?>
<svg width="64px" height="64px" viewBox="0 0 64 64" version="1.1" xmlns="http://www.w3.org/2000/svg" xmlns:xlink="http://www.w3.org/1999/xlink">
    <!-- Generator: Sketch 3.7.2 (28276) - http://www.bohemiancoding.com/sketch -->
    <title>hou-handle-lock</title>
    <desc>Created with Sketch.</desc>
    <defs></defs>
    <g id="64px-Line" stroke="none" stroke-width="1" fill="none" fill-rule="evenodd">
        <g id="hou-handle-lock"></g>
        <path d="M11,60 L35,60 C36.7,60 38,58.7 38,57 L38,30 L51,30 C53.8,30 56,27.8 56,25 C56,22.2 53.8,20 51,20 L38,20 L38,9 C38,7.3 36.7,6 35,6 L11,6 C9.3,6 8,7.3 8,9 L8,57 C8,58.7 9.3,60 11,60 L11,60 Z M54,25 C54,26.7 52.7,28 51,28 L23,28 C21.3,28 20,26.7 20,25 C20,23.3 21.3,22 23,22 L51,22 C52.7,22 54,23.3 54,25 L54,25 Z M23,30 L27.9,30 C26.6,31.3 24.9,32 23,32 C19.1,32 16,28.9 16,25 C16,21.1 19.1,18 23,18 C24.8,18 26.6,18.7 27.9,20 L23,20 C20.2,20 18,22.2 18,25 C18,27.8 20.2,30 23,30 L23,30 Z M10,9 C10,8.4 10.4,8 11,8 L35,8 C35.6,8 36,8.4 36,9 L36,20 L30.5,20 C28.8,17.5 26,16 23,16 C18,16 14,20 14,25 C14,30 18,34 23,34 C26,34 28.8,32.5 30.5,30 L36,30 L36,57 C36,57.6 35.6,58 35,58 L11,58 C10.4,58 10,57.6 10,57 L10,9 L10,9 Z" id="Shape" fill="#000000"></path>
        <path d="M22,45.8 L22,49 C22,49.6 22.4,50 23,50 C23.6,50 24,49.6 24,49 L24,45.8 C25.2,45.4 26,44.3 26,43 C26,41.3 24.7,40 23,40 C21.3,40 20,41.3 20,43 C20,44.3 20.8,45.4 22,45.8 L22,45.8 Z M23,42 C23.6,42 24,42.4 24,43 C24,43.6 23.6,44 23,44 C22.4,44 22,43.6 22,43 C22,42.4 22.4,42 23,42 L23,42 Z" id="Shape" fill="#000000"></path>
    </g>
</svg>