<?xml version="1.0" encoding="UTF-8" standalone="no"?>
<svg width="64px" height="64px" viewBox="0 0 64 64" version="1.1" xmlns="http://www.w3.org/2000/svg" xmlns:xlink="http://www.w3.org/1999/xlink">
    <!-- Generator: Sketch 3.7.2 (28276) - http://www.bohemiancoding.com/sketch -->
    <title>hou-fire</title>
    <desc>Created with Sketch.</desc>
    <defs></defs>
    <g id="64px-Line" stroke="none" stroke-width="1" fill="none" fill-rule="evenodd">
        <g id="hou-fire"></g>
        <path d="M53,6 L11,6 C9.3,6 8,7.3 8,9 L8,51 C8,52.7 9.3,54 11,54 L12,54 L12,59 C12,59.6 12.4,60 13,60 L17,60 C17.4,60 17.8,59.7 17.9,59.3 L19.7,54 L44.3,54 L46.1,59.3 C46.2,59.7 46.6,60 47,60 L51,60 C51.6,60 52,59.6 52,59 L52,54 L53,54 C54.7,54 56,52.7 56,51 L56,9 C56,7.3 54.7,6 53,6 L53,6 Z M16.3,58 L14,58 L14,54 L17.6,54 L16.3,58 L16.3,58 Z M50,58 L47.7,58 L46.4,54 L50,54 L50,58 L50,58 Z M54,51 C54,51.6 53.6,52 53,52 L11,52 C10.4,52 10,51.6 10,51 L10,9 C10,8.4 10.4,8 11,8 L53,8 C53.6,8 54,8.4 54,9 L54,51 L54,51 Z" id="Shape" fill="#000000"></path>
        <path d="M49,12 L15,12 C14.4,12 14,12.4 14,13 L14,41 C14,41.6 14.4,42 15,42 L49,42 C49.6,42 50,41.6 50,41 L50,13 C50,12.4 49.6,12 49,12 L49,12 Z M24,30 C24,25.4 26.4,21.5 29.8,20.4 C29.4,21.3 29,22.5 29,24 C29,27 30.2,30 33,30 C35.4,30 37.1,27.2 37.7,24.3 C38.7,25.8 40,28.3 40,32 C40,36.4 36.4,40 32,40 C26.1,40 24,34.8 24,30 L24,30 Z M48,40 L38,40 C40.4,38.2 42,35.3 42,32 C42,25 37.8,21.4 37.6,21.2 C37.3,20.9 36.9,20.9 36.5,21.1 C36.1,21.3 35.9,21.6 35.9,22 C35.9,24.5 34.4,28 32.9,28 C31.3,28 30.9,25.1 30.9,24 C30.9,21.2 32.5,19.8 32.5,19.8 C32.8,19.5 33,19.1 32.8,18.7 C32.7,18.3 32.3,18 31.9,18 C26.3,18 21.9,23.3 21.9,30 C21.9,34.5 23.4,38 25.9,40 L15.9,40 L15.9,14 L47.9,14 L47.9,40 L48,40 Z" id="Shape" fill="#000000"></path>
    </g>
</svg>