<?xml version="1.0" encoding="UTF-8" standalone="no"?>
<svg width="64px" height="64px" viewBox="0 0 64 64" version="1.1" xmlns="http://www.w3.org/2000/svg" xmlns:xlink="http://www.w3.org/1999/xlink">
    <!-- Generator: Sketch 3.7.2 (28276) - http://www.bohemiancoding.com/sketch -->
    <title>hou-bathroom-cabinet</title>
    <desc>Created with Sketch.</desc>
    <defs></defs>
    <g id="64px-Line" stroke="none" stroke-width="1" fill="none" fill-rule="evenodd">
        <g id="hou-bathroom-cabinet"></g>
        <path d="M27,36 C26.4,36 26,36.4 26,37 L26,41 C26,41.6 26.4,42 27,42 C27.6,42 28,41.6 28,41 L28,37 C28,36.4 27.6,36 27,36 L27,36 Z" id="Shape" fill="#000000"></path>
        <path d="M35,42 C35.6,42 36,41.6 36,41 L36,37 C36,36.4 35.6,36 35,36 C34.4,36 34,36.4 34,37 L34,41 C34,41.6 34.4,42 35,42 L35,42 Z" id="Shape" fill="#000000"></path>
        <path d="M59,18 L38,18 L38,15 C38,14.4 37.6,14 37,14 L35,14 C34.4,14 34,14.4 34,15 L34,18 L32,18 L32,9 C32,7.3 33.3,6 35,6 C36.7,6 38,7.3 38,9 C38,9.6 38.4,10 39,10 C39.6,10 40,9.6 40,9 C40,6.2 37.8,4 35,4 C32.2,4 30,6.2 30,9 L30,18 L28,18 L28,15 C28,14.4 27.6,14 27,14 L25,14 C24.4,14 24,14.4 24,15 L24,18 L3,18 C2.4,18 2,18.4 2,19 L2,25 L2,53 L2,59 C2,59.6 2.4,60 3,60 C3.6,60 4,59.6 4,59 L4,54 L58,54 L58,59 C58,59.6 58.4,60 59,60 C59.6,60 60,59.6 60,59 L60,53 L60,25 L60,19 C60,18.4 59.6,18 59,18 L59,18 Z M25,20 L27,20 L35,20 L37,20 L58,20 L58,24 L4,24 L4,20 L25,20 L25,20 Z M58,26 L58,52 L32,52 L32,26 L58,26 L58,26 Z M4,26 L30,26 L30,52 L4,52 L4,26 L4,26 Z" id="Shape" fill="#000000"></path>
    </g>
</svg>