<?xml version="1.0" encoding="UTF-8" standalone="no"?>
<svg width="64px" height="64px" viewBox="0 0 64 64" version="1.1" xmlns="http://www.w3.org/2000/svg" xmlns:xlink="http://www.w3.org/1999/xlink">
    <!-- Generator: Sketch 3.7.2 (28276) - http://www.bohemiancoding.com/sketch -->
    <title>hou-sofa</title>
    <desc>Created with Sketch.</desc>
    <defs></defs>
    <g id="64px-Line" stroke="none" stroke-width="1" fill="none" fill-rule="evenodd">
        <g id="hou-sofa"></g>
        <path d="M60,20 L58,20 C57.3,20 56.6,20.2 56,20.6 L56,16 C56,13.8 54.2,12 52,12 L12,12 C9.8,12 8,13.8 8,16 L8,20.6 C7.4,20.3 6.7,20 6,20 L4,20 C1.8,20 0,21.8 0,24 L0,42 C0,44.2 1.8,46 4,46 L4,51 C4,51.6 4.4,52 5,52 L7,52 C7.3,52 7.6,51.8 7.8,51.6 L11.5,46 L52.4,46 L56.1,51.6 C56.3,51.9 56.6,52 56.9,52 L58.9,52 C59.5,52 59.9,51.6 59.9,51 L59.9,46 C62.1,46 63.9,44.2 63.9,42 L63.9,24 C64,21.8 62.2,20 60,20 L60,20 Z M10,34 C10,32.9 10.9,32 12,32 L52,32 C53.1,32 54,32.9 54,34 L54,38 L10,38 L10,34 L10,34 Z M10,16 C10,14.9 10.9,14 12,14 L52,14 C53.1,14 54,14.9 54,16 L54,30.6 C53.4,30.3 52.7,30 52,30 L12,30 C11.3,30 10.6,30.2 10,30.6 L10,16 L10,16 Z M6.5,50 L6,50 L6,46 L9.1,46 L6.5,50 L6.5,50 Z M58,50 L57.5,50 L54.8,46 L57.9,46 L57.9,50 L58,50 Z M62,42 C62,43.1 61.1,44 60,44 L4,44 C2.9,44 2,43.1 2,42 L2,24 C2,22.9 2.9,22 4,22 L6,22 C7.1,22 8,22.9 8,24 L8,39 C8,39.6 8.4,40 9,40 L55,40 C55.6,40 56,39.6 56,39 L56,24 C56,22.9 56.9,22 58,22 L60,22 C61.1,22 62,22.9 62,24 L62,42 L62,42 Z" id="Shape" fill="#000000"></path>
    </g>
</svg>