<?xml version="1.0" encoding="UTF-8" standalone="no"?>
<svg width="44px" height="44px" viewBox="0 0 44 44" version="1.1" xmlns="http://www.w3.org/2000/svg" xmlns:xlink="http://www.w3.org/1999/xlink">
    <!-- Generator: Sketch 3.7.2 (28276) - http://www.bohemiancoding.com/sketch -->
    <title>hou-window-blind</title>
    <desc>Created with Sketch.</desc>
    <defs></defs>
    <g id="44px-Line" stroke="none" stroke-width="1" fill="none" fill-rule="evenodd">
        <g id="hou-window-blind"></g>
        <path d="M43,38 L42,38 L42,1 C42,0.447 41.552,0 41,0 L3,0 C2.448,0 2,0.447 2,1 L2,38 L1,38 C0.448,38 0,38.447 0,39 L0,43 C0,43.553 0.448,44 1,44 L43,44 C43.552,44 44,43.553 44,43 L44,39 C44,38.447 43.552,38 43,38 L43,38 Z M21,28 C21.551,28 22,28.448 22,29 C22,29.552 21.551,30 21,30 C20.449,30 20,29.552 20,29 C20,28.448 20.449,28 21,28 L21,28 Z M4,20 L4,6 L40,6 L40,20 L4,20 L4,20 Z M40,2 L40,4 L4,4 L4,2 L40,2 L40,2 Z M4,22 L20,22 L20,26.184 C18.839,26.598 18,27.698 18,29 C18,30.654 19.346,32 21,32 C22.654,32 24,30.654 24,29 C24,27.698 23.161,26.598 22,26.184 L22,22 L40,22 L40,38 L4,38 L4,22 L4,22 Z M42,42 L2,42 L2,40 L42,40 L42,42 L42,42 Z" id="Shape" fill="#000000"></path>
    </g>
</svg>