<?xml version="1.0" encoding="UTF-8" standalone="no"?>
<svg width="64px" height="64px" viewBox="0 0 64 64" version="1.1" xmlns="http://www.w3.org/2000/svg" xmlns:xlink="http://www.w3.org/1999/xlink">
    <!-- Generator: Sketch 3.7.2 (28276) - http://www.bohemiancoding.com/sketch -->
    <title>hou-table</title>
    <desc>Created with Sketch.</desc>
    <defs></defs>
    <g id="64px-Line" stroke="none" stroke-width="1" fill="none" fill-rule="evenodd">
        <g id="hou-table"></g>
        <path d="M63,12 L1,12 C0.4,12 0,12.4 0,13 C0,13.6 0.4,14 1,14 L4,14 L4,21 L4,53 C4,53.6 4.4,54 5,54 L9,54 C9.6,54 10,53.6 10,53 L10,22 L54,22 L54,53 C54,53.6 54.4,54 55,54 L59,54 C59.6,54 60,53.6 60,53 L60,21 L60,14 L63,14 C63.6,14 64,13.6 64,13 C64,12.4 63.6,12 63,12 L63,12 Z M8,52 L6,52 L6,22 L8,22 L8,52 L8,52 Z M56,52 L56,22 L58,22 L58,52 L56,52 L56,52 Z M58,20 L6,20 L6,14 L58,14 L58,20 L58,20 Z" id="Shape" fill="#000000"></path>
    </g>
</svg>