<?xml version="1.0" encoding="UTF-8" standalone="no"?>
<svg width="64px" height="64px" viewBox="0 0 64 64" version="1.1" xmlns="http://www.w3.org/2000/svg" xmlns:xlink="http://www.w3.org/1999/xlink">
    <!-- Generator: Sketch 3.7.2 (28276) - http://www.bohemiancoding.com/sketch -->
    <title>hou-handle</title>
    <desc>Created with Sketch.</desc>
    <defs></defs>
    <g id="64px-Line" stroke="none" stroke-width="1" fill="none" fill-rule="evenodd">
        <g id="hou-handle"></g>
        <path d="M54,26 L34.8,26 C32.4,20 26.5,16 20,16 C11.2,16 4,23.2 4,32 C4,40.8 11.2,48 20,48 C26.5,48 32.4,44 34.8,38 L54,38 C57.3,38 60,35.3 60,32 C60,28.7 57.3,26 54,26 L54,26 Z M20,46 C12.3,46 6,39.7 6,32 C6,24.3 12.3,18 20,18 C25.4,18 30.3,21.2 32.6,26 L20,26 C16.7,26 14,28.7 14,32 C14,35.3 16.7,38 20,38 L32.6,38 C30.3,42.8 25.4,46 20,46 L20,46 Z M54,36 L20,36 C17.8,36 16,34.2 16,32 C16,29.8 17.8,28 20,28 L54,28 C56.2,28 58,29.8 58,32 C58,34.2 56.2,36 54,36 L54,36 Z" id="Shape" fill="#000000"></path>
        <path d="M21,21 C21,20.4 20.6,20 20,20 C13.4,20 8,25.4 8,32 C8,32.6 8.4,33 9,33 C9.6,33 10,32.6 10,32 C10,26.5 14.5,22 20,22 C20.6,22 21,21.6 21,21 L21,21 Z" id="Shape" fill="#000000"></path>
    </g>
</svg>