<?xml version="1.0" encoding="UTF-8" standalone="no"?>
<svg width="64px" height="64px" viewBox="0 0 64 64" version="1.1" xmlns="http://www.w3.org/2000/svg" xmlns:xlink="http://www.w3.org/1999/xlink">
    <!-- Generator: Sketch 3.7.2 (28276) - http://www.bohemiancoding.com/sketch -->
    <title>hou-stool</title>
    <desc>Created with Sketch.</desc>
    <defs></defs>
    <g id="64px-Line" stroke="none" stroke-width="1" fill="none" fill-rule="evenodd">
        <g id="hou-stool"></g>
        <path d="M48,7 C48,5.3 46.7,4 45,4 L17,4 C15.3,4 14,5.3 14,7 C14,8.7 15.3,10 17,10 L17.9,10 L14,58.9 C14,59.2 14.1,59.5 14.3,59.7 C14.5,59.9 14.8,60 15,60 L19,60 C19.5,60 20,59.6 20,59.1 L21.4,42 L28,42 L28,59 C28,59.6 28.4,60 29,60 L33,60 C33.6,60 34,59.6 34,59 L34,42 L40.6,42 L42,59.1 C42,59.6 42.5,60 43,60 L47,60 C47.3,60 47.5,59.9 47.7,59.7 C47.9,59.5 48,59.2 48,58.9 L44.1,10 L45,10 C46.7,10 48,8.7 48,7 L48,7 Z M16,7 C16,6.4 16.4,6 17,6 L45,6 C45.6,6 46,6.4 46,7 C46,7.6 45.6,8 45,8 L17,8 C16.4,8 16,7.6 16,7 L16,7 Z M34,10 L38.1,10 L40.2,36 L34,36 L34,10 L34,10 Z M28,36 L21.8,36 L23.9,10 L28,10 L28,36 L28,36 Z M18.1,58 L16.1,58 L19.9,10 L21.9,10 L18.1,58 L18.1,58 Z M21.5,40 L21.7,38 L28,38 L28,40 L21.5,40 L21.5,40 Z M32,58 L30,58 L30,10 L32,10 L32,58 L32,58 Z M34,40 L34,38 L40.3,38 L40.5,40 L34,40 L34,40 Z M45.9,58 L43.9,58 L40.1,10 L42.1,10 L45.9,58 L45.9,58 Z" id="Shape" fill="#000000"></path>
    </g>
</svg>