<?xml version="1.0" encoding="UTF-8" standalone="no"?>
<svg width="64px" height="64px" viewBox="0 0 64 64" version="1.1" xmlns="http://www.w3.org/2000/svg" xmlns:xlink="http://www.w3.org/1999/xlink">
    <!-- Generator: Sketch 3.7.2 (28276) - http://www.bohemiancoding.com/sketch -->
    <title>hou-drawers</title>
    <desc>Created with Sketch.</desc>
    <defs></defs>
    <g id="64px-Line" stroke="none" stroke-width="1" fill="none" fill-rule="evenodd">
        <g id="hou-drawers"></g>
        <path d="M13,50 L13.4,50 L10.1,56.6 C9.9,57.1 10.1,57.7 10.5,57.9 C10.7,58 10.8,58 11,58 C11.4,58 11.7,57.8 11.9,57.4 L15.6,50 L48.4,50 L52.1,57.4 C52.3,57.8 52.6,58 53,58 C53.1,58 53.3,58 53.4,57.9 C53.9,57.7 54.1,57.1 53.8,56.6 L50.6,50 L51,50 C54.9,50 58,46.9 58,43 L58,13 C58,9.1 54.9,6 51,6 L13,6 C9.1,6 6,9.1 6,13 L6,43 C6,46.9 9.1,50 13,50 L13,50 Z M8,22 L56,22 L56,34 L8,34 L8,22 L8,22 Z M13,8 L51,8 C53.8,8 56,10.2 56,13 L56,20 L8,20 L8,13 C8,10.2 10.2,8 13,8 L13,8 Z M8,36 L56,36 L56,43 C56,45.8 53.8,48 51,48 L13,48 C10.2,48 8,45.8 8,43 L8,36 L8,36 Z" id="Shape" fill="#000000"></path>
        <circle id="Oval" fill="#000000" cx="32" cy="14" r="2"></circle>
        <circle id="Oval" fill="#000000" cx="32" cy="28" r="2"></circle>
        <circle id="Oval" fill="#000000" cx="32" cy="42" r="2"></circle>
    </g>
</svg>