<?xml version="1.0" encoding="UTF-8" standalone="no"?>
<svg width="64px" height="64px" viewBox="0 0 64 64" version="1.1" xmlns="http://www.w3.org/2000/svg" xmlns:xlink="http://www.w3.org/1999/xlink">
    <!-- Generator: Sketch 3.7.2 (28276) - http://www.bohemiancoding.com/sketch -->
    <title>hou-armchair</title>
    <desc>Created with Sketch.</desc>
    <defs></defs>
    <g id="64px-Line" stroke="none" stroke-width="1" fill="none" fill-rule="evenodd">
        <g id="hou-armchair"></g>
        <path d="M56,20 L52,20 C51.3,20 50.6,20.2 50,20.6 L50,10 C50,7.8 48.2,6 46,6 L18,6 C15.8,6 14,7.8 14,10 L14,20.6 C13.4,20.3 12.7,20 12,20 L8,20 C5.8,20 4,21.8 4,24 L4,46 C4,48.2 5.8,50 8,50 L8,57 C8,57.6 8.4,58 9,58 L13,58 C13.4,58 13.7,57.8 13.9,57.4 L17.6,50 L46.4,50 L50.1,57.4 C50.3,57.7 50.6,58 51,58 L55,58 C55.6,58 56,57.6 56,57 L56,50 C58.2,50 60,48.2 60,46 L60,24 C60,21.8 58.2,20 56,20 L56,20 Z M16,34 C16,32.9 16.9,32 18,32 L46,32 C47.1,32 48,32.9 48,34 L48,42 L16,42 L16,34 L16,34 Z M16,10 C16,8.9 16.9,8 18,8 L46,8 C47.1,8 48,8.9 48,10 L48,30.6 C47.4,30.3 46.7,30 46,30 L18,30 C17.3,30 16.6,30.2 16,30.6 L16,10 L16,10 Z M12.4,56 L10,56 L10,50 L15.4,50 L12.4,56 L12.4,56 Z M54,56 L51.6,56 L48.6,50 L54,50 L54,56 L54,56 Z M58,46 C58,47.1 57.1,48 56,48 L8,48 C6.9,48 6,47.1 6,46 L6,24 C6,22.9 6.9,22 8,22 L12,22 C13.1,22 14,22.9 14,24 L14,43 C14,43.6 14.4,44 15,44 L49,44 C49.6,44 50,43.6 50,43 L50,24 C50,22.9 50.9,22 52,22 L56,22 C57.1,22 58,22.9 58,24 L58,46 L58,46 Z" id="Shape" fill="#000000"></path>
    </g>
</svg>