<?xml version="1.0" encoding="UTF-8" standalone="no"?>
<svg width="64px" height="64px" viewBox="0 0 64 64" version="1.1" xmlns="http://www.w3.org/2000/svg" xmlns:xlink="http://www.w3.org/1999/xlink">
    <!-- Generator: Sketch 3.7.2 (28276) - http://www.bohemiancoding.com/sketch -->
    <title>hou-picture-landscape</title>
    <desc>Created with Sketch.</desc>
    <defs></defs>
    <g id="64px-Line" stroke="none" stroke-width="1" fill="none" fill-rule="evenodd">
        <g id="hou-picture-landscape"></g>
        <path d="M57,18 L47.4,18 L32.7,4.3 C32.3,3.9 31.7,3.9 31.3,4.3 L16.6,18 L7,18 C6.4,18 6,18.4 6,19 L6,59 C6,59.6 6.4,60 7,60 L57,60 C57.6,60 58,59.6 58,59 L58,19 C58,18.4 57.6,18 57,18 L57,18 Z M32,6.4 L44.5,18 L19.6,18 L32,6.4 L32,6.4 Z M56,58 L8,58 L8,20 L17,20 L17,20 L56,20 L56,58 L56,58 Z" id="Shape" fill="#000000"></path>
        <path d="M10,23 L10,55 C10,55.6 10.4,56 11,56 L53,56 C53.6,56 54,55.6 54,55 L54,23 C54,22.4 53.6,22 53,22 L11,22 C10.4,22 10,22.4 10,23 L10,23 Z M12,54 L12,51.4 L23,40.4 L32.3,49.7 C32.7,50.1 33.3,50.1 33.7,49.7 C34.1,49.3 34.1,48.7 33.7,48.3 L31.4,46 L41,36.4 L52,47.4 L52,54 L12,54 L12,54 Z M52,24 L52,44.6 L41.7,34.3 C41.3,33.9 40.7,33.9 40.3,34.3 L30,44.6 L23.7,38.3 C23.3,37.9 22.7,37.9 22.3,38.3 L12,48.6 L12,24 L52,24 L52,24 Z" id="Shape" fill="#000000"></path>
        <path d="M21,36 C23.8,36 26,33.8 26,31 C26,28.2 23.8,26 21,26 C18.2,26 16,28.2 16,31 C16,33.8 18.2,36 21,36 L21,36 Z M21,28 C22.7,28 24,29.3 24,31 C24,32.7 22.7,34 21,34 C19.3,34 18,32.7 18,31 C18,29.3 19.3,28 21,28 L21,28 Z" id="Shape" fill="#000000"></path>
    </g>
</svg>