<?xml version="1.0" encoding="UTF-8" standalone="no"?>
<svg width="44px" height="44px" viewBox="0 0 44 44" version="1.1" xmlns="http://www.w3.org/2000/svg" xmlns:xlink="http://www.w3.org/1999/xlink">
    <!-- Generator: Sketch 3.7.2 (28276) - http://www.bohemiancoding.com/sketch -->
    <title>hou-window-open</title>
    <desc>Created with Sketch.</desc>
    <defs></defs>
    <g id="44px-Line" stroke="none" stroke-width="1" fill="none" fill-rule="evenodd">
        <g id="hou-window-open"></g>
        <path d="M43.447,2.105 C43.107,1.935 42.703,1.972 42.4,2.2 L34.667,8 L9.333,8 L1.6,2.2 C1.296,1.972 0.892,1.935 0.553,2.105 C0.214,2.275 0,2.621 0,3 L0,43 C0,43.379 0.214,43.725 0.553,43.895 C0.695,43.966 0.848,44 1,44 C1.212,44 1.423,43.932 1.6,43.8 L9.333,38 L34.667,38 L42.4,43.8 C42.577,43.932 42.788,44 43,44 C43.152,44 43.306,43.965 43.447,43.895 C43.786,43.726 44,43.379 44,43 L44,3 C44,2.621 43.786,2.275 43.447,2.105 L43.447,2.105 Z M42,22 L40,22 L40,6.5 L42,5 L42,22 L42,22 Z M36,24 L38,24 L38,38 L36,36.5 L36,24 L36,24 Z M36,22 L36,9.5 L38,8 L38,22 L36,22 L36,22 Z M8,22 L6,22 L6,8 L8,9.5 L8,22 L8,22 Z M8,24 L8,36.5 L6,38 L6,24 L8,24 L8,24 Z M4,6.5 L4,22 L2,22 L2,5 L4,6.5 L4,6.5 Z M2,24 L4,24 L4,39.5 L2,41 L2,24 L2,24 Z M34,36 L10,36 L10,10 L34,10 L34,36 L34,36 Z M40,39.5 L40,24 L42,24 L42,41 L40,39.5 L40,39.5 Z" id="Shape" fill="#000000"></path>
    </g>
</svg>