<?xml version="1.0" encoding="UTF-8" standalone="no"?>
<svg width="64px" height="64px" viewBox="0 0 64 64" version="1.1" xmlns="http://www.w3.org/2000/svg" xmlns:xlink="http://www.w3.org/1999/xlink">
    <!-- Generator: Sketch 3.7.2 (28276) - http://www.bohemiancoding.com/sketch -->
    <title>hou-door</title>
    <desc>Created with Sketch.</desc>
    <defs></defs>
    <g id="64px-Line" stroke="none" stroke-width="1" fill="none" fill-rule="evenodd">
        <g id="hou-door"></g>
        <path d="M49,6 L13,6 L13,6 L12.8,6 L12.6,6 C12.5,6 12.5,6.1 12.4,6.1 C12.3,6.1 12.3,6.2 12.2,6.2 L12.1,6.3 C12.1,6.4 12,6.4 12,6.5 L12,6.5 L12,6.7 L12,6.9 L12,58.9 L12,59.1 L12,59.3 L12,59.3 C12,59.3 12,59.4 12.1,59.4 C12.1,59.5 12.2,59.5 12.2,59.6 L12.3,59.7 C12.4,59.8 12.4,59.8 12.5,59.8 L12.6,59.8 C12.7,59.8 12.8,59.9 12.9,59.9 L48.9,59.9 C49.5,59.9 49.9,59.5 49.9,58.9 L49.9,6.9 C50,6.4 49.6,6 49,6 L49,6 Z M14,8.4 L34,15.7 L34,50.3 L14,57.6 L14,8.4 L14,8.4 Z M48,58 L18.7,58 L35.4,51.9 C35.8,51.8 36.1,51.4 36.1,51 L36.1,15 C36.1,14.6 35.8,14.2 35.4,14.1 L18.7,8 L48,8 L48,58 L48,58 Z" id="Shape" fill="#000000"></path>
        <path d="M30,30 C28.8,30 28,31.3 28,33 C28,34.7 28.8,36 30,36 C31.2,36 32,34.7 32,33 C32,31.3 31.2,30 30,30 L30,30 Z" id="Shape" fill="#000000"></path>
    </g>
</svg>