<?xml version="1.0" encoding="UTF-8" standalone="no"?>
<svg width="44px" height="44px" viewBox="0 0 44 44" version="1.1" xmlns="http://www.w3.org/2000/svg" xmlns:xlink="http://www.w3.org/1999/xlink">
    <!-- Generator: Sketch 3.7.2 (28276) - http://www.bohemiancoding.com/sketch -->
    <title>hou-wardrobe</title>
    <desc>Created with Sketch.</desc>
    <defs></defs>
    <g id="44px-Line" stroke="none" stroke-width="1" fill="none" fill-rule="evenodd">
        <g id="hou-wardrobe"></g>
        <path d="M9,38 L11.612,38 L10.051,42.684 C9.876,43.208 10.159,43.774 10.683,43.949 C10.789,43.984 10.896,44 11,44 C11.419,44 11.809,43.735 11.949,43.316 L13.721,38 L28.279,38 L30.051,43.316 C30.191,43.735 30.581,44 31,44 C31.104,44 31.211,43.983 31.316,43.948 C31.84,43.773 32.123,43.207 31.948,42.683 L30.388,38 L33,38 C35.757,38 38,35.757 38,33 L38,5 C38,2.243 35.757,0 33,0 L9,0 C6.243,0 4,2.243 4,5 L4,33 C4,35.757 6.243,38 9,38 L9,38 Z M33,36 L9,36 C7.346,36 6,34.654 6,33 L6,28 L36,28 L36,33 C36,34.654 34.654,36 33,36 L33,36 Z M36,5 L36,26 L22,26 L22,2 L33,2 C34.654,2 36,3.346 36,5 L36,5 Z M9,2 L20,2 L20,26 L6,26 L6,5 C6,3.346 7.346,2 9,2 L9,2 Z" id="Shape" fill="#000000"></path>
        <circle id="Oval" fill="#000000" cx="26" cy="14" r="2"></circle>
        <circle id="Oval" fill="#000000" cx="16" cy="14" r="2"></circle>
        <circle id="Oval" fill="#000000" cx="21" cy="32" r="2"></circle>
    </g>
</svg>