<?xml version="1.0" encoding="UTF-8" standalone="no"?>
<svg width="64px" height="64px" viewBox="0 0 64 64" version="1.1" xmlns="http://www.w3.org/2000/svg" xmlns:xlink="http://www.w3.org/1999/xlink">
    <!-- Generator: Sketch 3.7.2 (28276) - http://www.bohemiancoding.com/sketch -->
    <title>hou-table-office</title>
    <desc>Created with Sketch.</desc>
    <defs></defs>
    <g id="64px-Line" stroke="none" stroke-width="1" fill="none" fill-rule="evenodd">
        <g id="hou-table-office"></g>
        <path d="M59,34 L5,34 C4.4,34 4,34.4 4,35 C4,35.6 4.4,36 5,36 L6,36 L6,43 L6,51 L6,59 C6,59.6 6.4,60 7,60 L25,60 C25.6,60 26,59.6 26,59 L26,51 L26,43 L26,42 L52,42 L52,59 C52,59.6 52.4,60 53,60 L57,60 C57.6,60 58,59.6 58,59 L58,36 L59,36 C59.6,36 60,35.6 60,35 C60,34.4 59.6,34 59,34 L59,34 Z M8,44 L24,44 L24,50 L8,50 L8,44 L8,44 Z M24,36 L24,42 L8,42 L8,36 L24,36 L24,36 Z M8,58 L8,52 L24,52 L24,58 L8,58 L8,58 Z M26,40 L26,36 L52,36 L52,40 L26,40 L26,40 Z M56,58 L54,58 L54,36 L56,36 L56,58 L56,58 Z" id="Shape" fill="#000000"></path>
        <path d="M15,40 L17,40 C17.6,40 18,39.6 18,39 C18,38.4 17.6,38 17,38 L15,38 C14.4,38 14,38.4 14,39 C14,39.6 14.4,40 15,40 L15,40 Z" id="Shape" fill="#000000"></path>
        <path d="M17,46 L15,46 C14.4,46 14,46.4 14,47 C14,47.6 14.4,48 15,48 L17,48 C17.6,48 18,47.6 18,47 C18,46.4 17.6,46 17,46 L17,46 Z" id="Shape" fill="#000000"></path>
        <path d="M17,54 L15,54 C14.4,54 14,54.4 14,55 C14,55.6 14.4,56 15,56 L17,56 C17.6,56 18,55.6 18,55 C18,54.4 17.6,54 17,54 L17,54 Z" id="Shape" fill="#000000"></path>
        <path d="M44,26 C46.2,26 48,24.2 48,22 L48,10 C48,7.8 46.2,6 44,6 L22,6 C19.8,6 18,7.8 18,10 L18,22 C18,24.2 19.8,26 22,26 L28,26 L28,30 L27,30 C26.4,30 26,30.4 26,31 C26,31.6 26.4,32 27,32 L39,32 C39.6,32 40,31.6 40,31 C40,30.4 39.6,30 39,30 L38,30 L38,26 L44,26 L44,26 Z M20,22 L20,10 C20,8.9 20.9,8 22,8 L44,8 C45.1,8 46,8.9 46,10 L46,22 C46,23.1 45.1,24 44,24 L22,24 C20.9,24 20,23.1 20,22 L20,22 Z M36,30 L30,30 L30,26 L36,26 L36,30 L36,30 Z" id="Shape" fill="#000000"></path>
    </g>
</svg>