<?xml version="1.0" encoding="UTF-8" standalone="no"?>
<svg width="64px" height="64px" viewBox="0 0 64 64" version="1.1" xmlns="http://www.w3.org/2000/svg" xmlns:xlink="http://www.w3.org/1999/xlink">
    <!-- Generator: Sketch 3.7.2 (28276) - http://www.bohemiancoding.com/sketch -->
    <title>hou-chair-office</title>
    <desc>Created with Sketch.</desc>
    <defs></defs>
    <g id="64px-Line" stroke="none" stroke-width="1" fill="none" fill-rule="evenodd">
        <g id="hou-chair-office"></g>
        <path d="M12,57 C12,58.7 13.3,60 15,60 C16.7,60 18,58.7 18,57 C18,55.3 16.7,54 15,54 C13.3,54 12,55.3 12,57 L12,57 Z M16,57 C16,57.6 15.6,58 15,58 C14.4,58 14,57.6 14,57 C14,56.4 14.4,56 15,56 C15.6,56 16,56.4 16,57 L16,57 Z" id="Shape" fill="#000000"></path>
        <path d="M28,57 C28,58.7 29.3,60 31,60 C32.7,60 34,58.7 34,57 C34,55.3 32.7,54 31,54 C29.3,54 28,55.3 28,57 L28,57 Z M32,57 C32,57.6 31.6,58 31,58 C30.4,58 30,57.6 30,57 C30,56.4 30.4,56 31,56 C31.6,56 32,56.4 32,57 L32,57 Z" id="Shape" fill="#000000"></path>
        <path d="M44,57 C44,58.7 45.3,60 47,60 C48.7,60 50,58.7 50,57 C50,55.3 48.7,54 47,54 C45.3,54 44,55.3 44,57 L44,57 Z M48,57 C48,57.6 47.6,58 47,58 C46.4,58 46,57.6 46,57 C46,56.4 46.4,56 47,56 C47.6,56 48,56.4 48,57 L48,57 Z" id="Shape" fill="#000000"></path>
        <path d="M11,22 L12,22 L12,32 C12,35.3 14.7,38 18,38 C18.1,38 18.2,38 18.4,37.9 C18.6,37.9 18.8,38 19,38 L27.2,38 L28,41.2 C28.1,41.6 28.5,42 29,42 L30,42 L30,46 C23.9,46.1 14,47.2 14,51 C14,51.6 14.4,52 15,52 C15.6,52 16,51.6 16,51 C16,50.2 20.9,48.2 30,48 L30,51 C30,51.6 30.4,52 31,52 C31.6,52 32,51.6 32,51 L32,48 C41.1,48.1 46,50.1 46,51 C46,51.6 46.4,52 47,52 C47.6,52 48,51.6 48,51 C48,47.3 38.1,46.1 32,46 L32,42 L33,42 C33.5,42 33.9,41.7 34,41.2 L34.8,38 L43,38 C43.2,38 43.4,38 43.6,37.9 C43.7,37.9 43.8,38 44,38 C47.3,38 50,35.3 50,32 L50,22 L51,22 C51.6,22 52,21.6 52,21 C52,20.4 51.6,20 51,20 L47,20 C46.4,20 46,20.4 46,21 C46,21.6 46.4,22 47,22 L48,22 L48,32 C48,33.5 47.2,34.8 46,35.5 L46,35 L46,31 C46,29.3 44.7,28 43,28 L42.1,28 L44,8 C44,5.8 42.2,4 40,4 L22,4 C19.8,4 18,5.8 18,8.1 L19.9,28 L19,28 C17.3,28 16,29.3 16,31 L16,35 L16,35.5 C14.8,34.8 14,33.5 14,32 L14,22 L15,22 C15.6,22 16,21.6 16,21 C16,20.4 15.6,20 15,20 L11,20 C10.4,20 10,20.4 10,21 C10,21.6 10.4,22 11,22 L11,22 Z M32.2,40 L29.8,40 L29.3,38 L32.7,38 L32.2,40 L32.2,40 Z M20,8 C20,6.9 20.9,6 22,6 L40,6 C41.1,6 42,6.9 42,7.9 L40.1,28 L21.9,28 L20,8 L20,8 Z M18,31 C18,30.4 18.4,30 19,30 L43,30 C43.6,30 44,30.4 44,31 L44,35 C44,35.6 43.6,36 43,36 L19,36 C18.4,36 18,35.6 18,35 L18,31 L18,31 Z" id="Shape" fill="#000000"></path>
    </g>
</svg>