<?xml version="1.0" encoding="UTF-8" standalone="no"?>
<svg width="64px" height="64px" viewBox="0 0 64 64" version="1.1" xmlns="http://www.w3.org/2000/svg" xmlns:xlink="http://www.w3.org/1999/xlink">
    <!-- Generator: Sketch 3.7.2 (28276) - http://www.bohemiancoding.com/sketch -->
    <title>hou-drawers-old</title>
    <desc>Created with Sketch.</desc>
    <defs></defs>
    <g id="64px-Line" stroke="none" stroke-width="1" fill="none" fill-rule="evenodd">
        <g id="hou-drawers-old"></g>
        <path d="M51,24 L13,24 C12.4,24 12,24.4 12,25 L12,35 C12,35.6 12.4,36 13,36 L51,36 C51.6,36 52,35.6 52,35 L52,25 C52,24.4 51.6,24 51,24 L51,24 Z M50,34 L14,34 L14,26 L50,26 L50,34 L50,34 Z" id="Shape" fill="#000000"></path>
        <path d="M29,30 L35,30 C35.6,30 36,29.6 36,29 C36,28.4 35.6,28 35,28 L29,28 C28.4,28 28,28.4 28,29 C28,29.6 28.4,30 29,30 L29,30 Z" id="Shape" fill="#000000"></path>
        <path d="M51,38 L13,38 C12.4,38 12,38.4 12,39 L12,49 C12,49.6 12.4,50 13,50 L51,50 C51.6,50 52,49.6 52,49 L52,39 C52,38.4 51.6,38 51,38 L51,38 Z M50,48 L14,48 L14,40 L50,40 L50,48 L50,48 Z" id="Shape" fill="#000000"></path>
        <path d="M29,44 L35,44 C35.6,44 36,43.6 36,43 C36,42.4 35.6,42 35,42 L29,42 C28.4,42 28,42.4 28,43 C28,43.6 28.4,44 29,44 L29,44 Z" id="Shape" fill="#000000"></path>
        <path d="M51,10 L13,10 C12.4,10 12,10.4 12,11 L12,21 C12,21.6 12.4,22 13,22 L51,22 C51.6,22 52,21.6 52,21 L52,11 C52,10.4 51.6,10 51,10 L51,10 Z M50,20 L14,20 L14,12 L50,12 L50,20 L50,20 Z" id="Shape" fill="#000000"></path>
        <path d="M29,16 L35,16 C35.6,16 36,15.6 36,15 C36,14.4 35.6,14 35,14 L29,14 C28.4,14 28,14.4 28,15 C28,15.6 28.4,16 29,16 L29,16 Z" id="Shape" fill="#000000"></path>
        <path d="M55,60 C55.6,60 56,59.6 56,59 L56,8 L57,8 C57.6,8 58,7.6 58,7 C58,6.4 57.6,6 57,6 L7,6 C6.4,6 6,6.4 6,7 C6,7.6 6.4,8 7,8 L8,8 L8,59 C8,59.6 8.4,60 9,60 C9.6,60 10,59.6 10,59 L10,54 L54,54 L54,59 C54,59.6 54.4,60 55,60 L55,60 Z M10,52 L10,8 L54,8 L54,52 L10,52 L10,52 Z" id="Shape" fill="#000000"></path>
    </g>
</svg>