<?xml version="1.0" encoding="UTF-8" standalone="no"?>
<svg width="44px" height="44px" viewBox="0 0 44 44" version="1.1" xmlns="http://www.w3.org/2000/svg" xmlns:xlink="http://www.w3.org/1999/xlink">
    <!-- Generator: Sketch 3.7.2 (28276) - http://www.bohemiancoding.com/sketch -->
    <title>hou-window-blinds</title>
    <desc>Created with Sketch.</desc>
    <defs></defs>
    <g id="44px-Line" stroke="none" stroke-width="1" fill="none" fill-rule="evenodd">
        <g id="hou-window-blinds"></g>
        <path d="M43,38 L42,38 L42,1 C42,0.448 41.553,0 41,0 L3,0 C2.447,0 2,0.448 2,1 L2,38 L1,38 C0.447,38 0,38.448 0,39 L0,43 C0,43.552 0.447,44 1,44 L43,44 C43.553,44 44,43.552 44,43 L44,39 C44,38.448 43.553,38 43,38 L43,38 Z M40,2 L40,4 L4,4 L4,2 L40,2 L40,2 Z M12,28 L12,26 L32,26 L32,28 L12,28 L12,28 Z M12,24 L12,22 L32,22 L32,24 L12,24 L12,24 Z M12,20 L12,18 L32,18 L32,20 L12,20 L12,20 Z M12,16 L12,14 L32,14 L32,16 L12,16 L12,16 Z M12,12 L12,10 L32,10 L32,12 L12,12 L12,12 Z M12,8 L12,6 L32,6 L32,8 L12,8 L12,8 Z M4,6 L10,6 L10,8 L7,8 C6.447,8 6,8.448 6,9 C6,9.552 6.447,10 7,10 L10,10 L10,12 L7,12 C6.447,12 6,12.448 6,13 C6,13.552 6.447,14 7,14 L10,14 L10,16 L7,16 C6.447,16 6,16.448 6,17 C6,17.552 6.447,18 7,18 L10,18 L10,20 L7,20 C6.447,20 6,20.448 6,21 C6,21.552 6.447,22 7,22 L10,22 L10,24 L7,24 C6.447,24 6,24.448 6,25 C6,25.552 6.447,26 7,26 L10,26 L10,28 L7,28 C6.447,28 6,28.448 6,29 C6,29.552 6.447,30 7,30 L37,30 C37.553,30 38,29.552 38,29 C38,28.448 37.553,28 37,28 L34,28 L34,26 L37,26 C37.553,26 38,25.552 38,25 C38,24.448 37.553,24 37,24 L34,24 L34,22 L37,22 C37.553,22 38,21.552 38,21 C38,20.448 37.553,20 37,20 L34,20 L34,18 L37,18 C37.553,18 38,17.552 38,17 C38,16.448 37.553,16 37,16 L34,16 L34,14 L37,14 C37.553,14 38,13.552 38,13 C38,12.448 37.553,12 37,12 L34,12 L34,10 L37,10 C37.553,10 38,9.552 38,9 C38,8.448 37.553,8 37,8 L34,8 L34,6 L40,6 L40,38 L4,38 L4,6 L4,6 Z M42,42 L2,42 L2,40 L42,40 L42,42 L42,42 Z" id="Shape" fill="#000000"></path>
    </g>
</svg>