<?xml version="1.0" encoding="UTF-8" standalone="no"?>
<svg width="64px" height="64px" viewBox="0 0 64 64" version="1.1" xmlns="http://www.w3.org/2000/svg" xmlns:xlink="http://www.w3.org/1999/xlink">
    <!-- Generator: Sketch 3.7.2 (28276) - http://www.bohemiancoding.com/sketch -->
    <title>hou-shower</title>
    <desc>Created with Sketch.</desc>
    <defs></defs>
    <g id="64px-Line" stroke="none" stroke-width="1" fill="none" fill-rule="evenodd">
        <g id="hou-shower"></g>
        <path d="M14,32 L48,32 C49.1,32 50,31.1 50,30 L50,26 C50,24.9 49.1,24 48,24 L36,24 L36,19 C36,18.4 35.6,18 35,18 L34,18 L34,7 C34,5.3 32.7,4 31,4 C29.3,4 28,5.3 28,7 L28,18 L27,18 C26.4,18 26,18.4 26,19 L26,24 L14,24 C12.9,24 12,24.9 12,26 L12,30 C12,31.1 12.9,32 14,32 L14,32 Z M30,7 C30,6.4 30.4,6 31,6 C31.6,6 32,6.4 32,7 L32,18 L30,18 L30,7 L30,7 Z M28,20 L34,20 L34,24 L28,24 L28,20 L28,20 Z M14,26 L48,26 L48,30 L14,30 L14,26 L14,26 Z" id="Shape" fill="#000000"></path>
        <path d="M30,49 C30,49.6 30.4,50 31,50 C31.6,50 32,49.6 32,49 L32,45 C32,44.4 31.6,44 31,44 C30.4,44 30,44.4 30,45 L30,49 L30,49 Z" id="Shape" fill="#000000"></path>
        <path d="M31,40 C31.6,40 32,39.6 32,39 L32,35 C32,34.4 31.6,34 31,34 C30.4,34 30,34.4 30,35 L30,39 C30,39.6 30.4,40 31,40 L31,40 Z" id="Shape" fill="#000000"></path>
        <path d="M30,59 C30,59.6 30.4,60 31,60 C31.6,60 32,59.6 32,59 L32,55 C32,54.4 31.6,54 31,54 C30.4,54 30,54.4 30,55 L30,59 L30,59 Z" id="Shape" fill="#000000"></path>
        <path d="M20.3,54.8 L20,58.8 C20,59.4 20.4,59.8 20.9,59.9 L21,59.9 C21.5,59.9 22,59.5 22,59 L22.3,55 C22.3,54.4 21.9,54 21.4,53.9 C20.9,53.9 20.4,54.3 20.3,54.8 L20.3,54.8 Z" id="Shape" fill="#000000"></path>
        <path d="M21.2,44.9 L20.9,48.9 C20.9,49.5 21.3,49.9 21.8,50 L21.9,50 C22.4,50 22.9,49.6 22.9,49.1 L23.2,45.1 C23.2,44.5 22.8,44.1 22.3,44 C21.7,43.9 21.2,44.3 21.2,44.9 L21.2,44.9 Z" id="Shape" fill="#000000"></path>
        <path d="M22.7,40 C23.2,40 23.7,39.6 23.7,39.1 L24,35.1 C24,34.5 23.6,34.1 23.1,34 C22.6,34 22.1,34.4 22,34.9 L21.7,38.9 C21.6,39.5 22,39.9 22.7,40 C22.6,40 22.6,40 22.7,40 L22.7,40 Z" id="Shape" fill="#000000"></path>
        <path d="M8.9,59.3 L9.1,59.3 C9.5,59.3 10,59 10.1,58.5 L11.1,54.6 C11.2,54.1 10.9,53.5 10.4,53.4 C9.9,53.3 9.3,53.6 9.2,54.1 L8.2,58 C8.1,58.6 8.4,59.1 8.9,59.3 L8.9,59.3 Z" id="Shape" fill="#000000"></path>
        <path d="M11.4,49.6 L11.6,49.6 C12,49.6 12.5,49.3 12.6,48.8 L13.6,44.9 C13.7,44.4 13.4,43.8 12.9,43.7 C12.4,43.6 11.8,43.9 11.7,44.4 L10.7,48.3 C10.5,48.9 10.8,49.4 11.4,49.6 L11.4,49.6 Z" id="Shape" fill="#000000"></path>
        <path d="M15.2,34 C14.7,33.9 14.1,34.2 14,34.7 L13,38.6 C12.9,39.1 13.2,39.7 13.7,39.8 L13.9,39.8 C14.3,39.8 14.8,39.5 14.9,39 L15.9,35.1 C16.1,34.7 15.8,34.2 15.2,34 L15.2,34 Z" id="Shape" fill="#000000"></path>
        <path d="M39.7,55 L40,59 C40,59.5 40.5,59.9 41,59.9 L41.1,59.9 C41.7,59.9 42.1,59.4 42,58.8 L41.7,54.8 C41.7,54.2 41.2,53.8 40.6,53.9 C40,54 39.6,54.5 39.7,55 L39.7,55 Z" id="Shape" fill="#000000"></path>
        <path d="M39.7,44 C39.1,44 38.7,44.5 38.8,45.1 L39.1,49.1 C39.1,49.6 39.6,50 40.1,50 L40.2,50 C40.8,50 41.2,49.5 41.1,48.9 L40.8,44.9 C40.8,44.3 40.3,43.9 39.7,44 L39.7,44 Z" id="Shape" fill="#000000"></path>
        <path d="M38.9,34 C38.3,34 37.9,34.5 38,35.1 L38.3,39.1 C38.3,39.6 38.8,40 39.3,40 L39.4,40 C40,40 40.4,39.5 40.3,38.9 L40,34.9 C40,34.4 39.5,34 38.9,34 L38.9,34 Z" id="Shape" fill="#000000"></path>
        <path d="M50.9,54.6 L51.9,58.5 C52,59 52.4,59.3 52.9,59.3 L53.1,59.3 C53.6,59.2 54,58.6 53.8,58.1 L52.8,54.2 C52.7,53.7 52.1,53.3 51.6,53.5 C51.1,53.6 50.7,54.1 50.9,54.6 L50.9,54.6 Z" id="Shape" fill="#000000"></path>
        <path d="M48,39.9 L48.2,39.9 C48.7,39.8 49.1,39.2 48.9,38.7 L47.9,34.8 C47.8,34.3 47.2,33.9 46.7,34.1 C46.2,34.2 45.8,34.8 46,35.3 L47,39.2 C47.1,39.6 47.5,39.9 48,39.9 L48,39.9 Z" id="Shape" fill="#000000"></path>
        <path d="M49.2,43.7 C48.7,43.8 48.3,44.4 48.5,44.9 L49.5,48.8 C49.6,49.3 50,49.6 50.5,49.6 L50.7,49.6 C51.2,49.5 51.6,48.9 51.4,48.4 L50.4,44.5 C50.3,43.9 49.7,43.6 49.2,43.7 L49.2,43.7 Z" id="Shape" fill="#000000"></path>
    </g>
</svg>