<?xml version="1.0" encoding="UTF-8" standalone="no"?>
<svg width="64px" height="64px" viewBox="0 0 64 64" version="1.1" xmlns="http://www.w3.org/2000/svg" xmlns:xlink="http://www.w3.org/1999/xlink">
    <!-- Generator: Sketch 3.7.2 (28276) - http://www.bohemiancoding.com/sketch -->
    <title>hou-light-wall</title>
    <desc>Created with Sketch.</desc>
    <defs></defs>
    <g id="64px-Line" stroke="none" stroke-width="1" fill="none" fill-rule="evenodd">
        <g id="hou-light-wall"></g>
        <path d="M55.8,33.6 C56,33.4 56.1,33 56,32.8 L50,6.8 C49.9,6.3 49.5,6 49,6 L29,6 C28.5,6 28.1,6.3 28,6.8 L22,32.8 C21.9,33.1 22,33.4 22.2,33.6 C22.4,33.8 22.7,34 23,34 L36,34 L36,40 C36,41.1 35.1,42 34,42 L18,42 L18,35 C18,32.2 15.8,30 13,30 L9,30 C8.4,30 8,30.4 8,31 L8,59 C8,59.6 8.4,60 9,60 L13,60 C15.8,60 18,57.8 18,55 L18,48 L34,48 C38.4,48 42,44.4 42,40 L42,34 L55,34 C55.3,34 55.6,33.9 55.8,33.6 L55.8,33.6 Z M16,55 C16,56.7 14.7,58 13,58 L10,58 L10,32 L13,32 C14.7,32 16,33.3 16,35 L16,55 L16,55 Z M40,40 C40,43.3 37.3,46 34,46 L18,46 L18,44 L34,44 C36.2,44 38,42.2 38,40 L38,34 L40,34 L40,40 L40,40 Z M24.3,32 L29.8,8 L48.2,8 L53.7,32 L24.3,32 L24.3,32 Z" id="Shape" fill="#000000"></path>
    </g>
</svg>