<?xml version="1.0" encoding="UTF-8" standalone="no"?>
<svg width="64px" height="64px" viewBox="0 0 64 64" version="1.1" xmlns="http://www.w3.org/2000/svg" xmlns:xlink="http://www.w3.org/1999/xlink">
    <!-- Generator: Sketch 3.7.2 (28276) - http://www.bohemiancoding.com/sketch -->
    <title>hou-cabinet</title>
    <desc>Created with Sketch.</desc>
    <defs></defs>
    <g id="64px-Line" stroke="none" stroke-width="1" fill="none" fill-rule="evenodd">
        <g id="hou-cabinet"></g>
        <path d="M19.5,51.8 L16.1,58.5 C15.9,59 16.1,59.6 16.5,59.8 C16.6,59.9 16.8,59.9 16.9,59.9 C17.3,59.9 17.6,59.7 17.8,59.3 L21.5,51.9 L42.3,51.9 L46,59.3 C46.2,59.7 46.5,59.9 46.9,59.9 C47,59.9 47.2,59.9 47.3,59.8 C47.8,59.6 48,59 47.7,58.5 L44.3,51.8 C47.4,51.1 49.8,48.3 49.8,45 L49.8,13 C49.8,9.1 46.7,6 42.8,6 L20.8,6 C16.9,6 13.8,9.1 13.8,13 L13.8,45 C14,48.3 16.3,51.1 19.5,51.8 L19.5,51.8 Z M21,8 L43,8 C45.8,8 48,10.2 48,13 L48,20 L16,20 L16,13 C16,10.2 18.2,8 21,8 L21,8 Z M16,22 L48,22 L48,45 C48,47.8 45.8,50 43,50 L21,50 C18.2,50 16,47.8 16,45 L16,22 L16,22 Z" id="Shape" fill="#000000"></path>
        <circle id="Oval" fill="#000000" cx="32" cy="14" r="2"></circle>
        <circle id="Oval" fill="#000000" cx="42" cy="34" r="2"></circle>
    </g>
</svg>