<?xml version="1.0" encoding="UTF-8" standalone="no"?>
<svg width="64px" height="64px" viewBox="0 0 64 64" version="1.1" xmlns="http://www.w3.org/2000/svg" xmlns:xlink="http://www.w3.org/1999/xlink">
    <!-- Generator: Sketch 3.7.2 (28276) - http://www.bohemiancoding.com/sketch -->
    <title>hou-bed-single</title>
    <desc>Created with Sketch.</desc>
    <defs></defs>
    <g id="64px-Line" stroke="none" stroke-width="1" fill="none" fill-rule="evenodd">
        <g id="hou-bed-single"></g>
        <path d="M5,56 L7,56 C7.4,56 7.8,55.7 7.9,55.3 L9.7,50 L52.3,50 L54.1,55.3 C54.2,55.7 54.6,56 55,56 L57,56 C57.6,56 58,55.6 58,55 L58,34 C58,32.6 56.4,31.5 54,30.7 L54,12 C54,9.8 52.2,8 50,8 L12,8 C9.8,8 8,9.8 8,12 L8,30.7 C5.6,31.5 4,32.6 4,34 L4,55 C4,55.6 4.4,56 5,56 L5,56 Z M55.7,54 L53.9,48.7 C53.8,48.3 53.4,48 53,48 L9,48 C8.6,48 8.2,48.3 8.1,48.7 L6.3,54 L6,54 L6,42 L56,42 L56,54 L55.7,54 L55.7,54 Z M10,12 C10,10.9 10.9,10 12,10 L50,10 C51.1,10 52,10.9 52,12 L52,30.1 C50.2,29.6 48.1,29.3 46,29 L46,27 C46,23.6 37,22 31,22 C25,22 16,23.6 16,27 L16,29 C13.9,29.3 11.8,29.7 10,30.1 L10,12 L10,12 Z M44,28.8 C39,28.2 33.9,28 31,28 C28.1,28 23,28.2 18,28.8 L18,27 C18.1,26 23.7,24 31,24 C38.3,24 43.9,26 44,27 L44,28.8 L44,28.8 Z M31,30 C45.8,30 55.6,32.6 56,34 L56,40 L6,40 L6,34 C6.4,32.6 16.2,30 31,30 L31,30 Z" id="Shape" fill="#000000"></path>
    </g>
</svg>