<?xml version="1.0" encoding="UTF-8" standalone="no"?>
<svg width="64px" height="64px" viewBox="0 0 64 64" version="1.1" xmlns="http://www.w3.org/2000/svg" xmlns:xlink="http://www.w3.org/1999/xlink">
    <!-- Generator: Sketch 3.7.2 (28276) - http://www.bohemiancoding.com/sketch -->
    <title>hou-light-ceiling</title>
    <desc>Created with Sketch.</desc>
    <defs></defs>
    <g id="64px-Line" stroke="none" stroke-width="1" fill="none" fill-rule="evenodd">
        <g id="hou-light-ceiling"></g>
        <path d="M31,4 C30.4,4 30,4.4 30,5 L30,16 L25,16 C24.4,16 24,16.4 24,17 L24,23.1 C14.5,26.1 8,35 8,45 C8,45.6 8.4,46 9,46 L24.7,46 C25.9,48.4 28.3,50 31,50 C33.7,50 36.2,48.4 37.3,46 L53,46 C53.6,46 54,45.6 54,45 C54,35 47.5,26.1 38,23.1 L38,17 C38,16.4 37.6,16 37,16 L32,16 L32,5 C32,4.4 31.6,4 31,4 L31,4 Z M31,48 C29.4,48 27.9,47.2 27,46 L35,46 C34.1,47.2 32.6,48 31,48 L31,48 Z M36,23.9 L36,24.1 C36,24.2 36,24.2 36.1,24.3 C36.1,24.4 36.2,24.4 36.2,24.5 L36.3,24.6 C36.3,24.6 36.4,24.7 36.5,24.7 C36.6,24.7 36.6,24.8 36.7,24.8 L36.8,24.8 C45.5,27.3 51.6,35.1 52,44 L25.4,44 L25.4,44 L10,44 C10.4,35.1 16.6,27.2 25.2,24.8 L25.3,24.8 C25.4,24.8 25.4,24.7 25.5,24.7 C25.6,24.7 25.6,24.6 25.6,24.6 L25.7,24.5 C25.7,24.4 25.8,24.4 25.8,24.3 C25.8,24.2 25.8,24.2 25.9,24.1 L25.9,23.9 C25.9,23.9 25.9,23.9 25.9,23.8 L25.9,18 L35.9,18 L36,23.9 C36,23.8 36,23.9 36,23.9 L36,23.9 Z" id="Shape" fill="#000000"></path>
        <path d="M31,26 C22.1,26 14.4,32.1 12.5,40.8 C12.4,41.3 12.7,41.9 13.3,42 L13.5,42 C14,42 14.4,41.7 14.5,41.2 C16.3,33.4 23.1,28 31.1,28 C31.7,28 32.1,27.6 32.1,27 C32.1,26.4 31.6,26 31,26 L31,26 Z" id="Shape" fill="#000000"></path>
        <path d="M30,55 L30,59 C30,59.6 30.4,60 31,60 C31.6,60 32,59.6 32,59 L32,55 C32,54.4 31.6,54 31,54 C30.4,54 30,54.4 30,55 L30,55 Z" id="Shape" fill="#000000"></path>
        <path d="M36.5,52.5 C36,52.8 35.9,53.4 36.1,53.9 L38.1,57.4 C38.3,57.7 38.6,57.9 39,57.9 C39.2,57.9 39.3,57.9 39.5,57.8 C40,57.5 40.1,56.9 39.9,56.4 L37.9,52.9 C37.6,52.4 37,52.2 36.5,52.5 L36.5,52.5 Z" id="Shape" fill="#000000"></path>
        <path d="M41.9,48.1 C41.4,47.8 40.8,48 40.5,48.5 C40.2,49 40.4,49.6 40.9,49.9 L44.4,51.9 C44.6,52 44.7,52 44.9,52 C45.2,52 45.6,51.8 45.8,51.5 C46.1,51 45.9,50.4 45.4,50.1 L41.9,48.1 L41.9,48.1 Z" id="Shape" fill="#000000"></path>
        <path d="M24.1,52.9 L22.1,56.4 C21.8,56.9 22,57.5 22.5,57.8 C22.7,57.9 22.8,57.9 23,57.9 C23.3,57.9 23.7,57.7 23.9,57.4 L25.9,53.9 C26.2,53.4 26,52.8 25.5,52.5 C25,52.2 24.4,52.4 24.1,52.9 L24.1,52.9 Z" id="Shape" fill="#000000"></path>
        <path d="M20.1,48.1 L16.6,50.1 C16.1,50.4 16,51 16.2,51.5 C16.4,51.8 16.7,52 17.1,52 C17.3,52 17.4,52 17.6,51.9 L21.1,49.9 C21.6,49.6 21.7,49 21.5,48.5 C21.2,48 20.6,47.9 20.1,48.1 L20.1,48.1 Z" id="Shape" fill="#000000"></path>
    </g>
</svg>