<?xml version="1.0" encoding="UTF-8" standalone="no"?>
<svg width="64px" height="64px" viewBox="0 0 64 64" version="1.1" xmlns="http://www.w3.org/2000/svg" xmlns:xlink="http://www.w3.org/1999/xlink">
    <!-- Generator: Sketch 3.7.2 (28276) - http://www.bohemiancoding.com/sketch -->
    <title>hou-chair-bar</title>
    <desc>Created with Sketch.</desc>
    <defs></defs>
    <g id="64px-Line" stroke="none" stroke-width="1" fill="none" fill-rule="evenodd">
        <g id="hou-chair-bar"></g>
        <path d="M44,22.6 L44,8 C44,5.8 42.2,4 40,4 L24,4 C21.8,4 20,5.8 20,8 L20,22.6 C18.8,23.3 18,24.6 18,26 L18,29 L18,59 C18,59.6 18.4,60 19,60 L23,60 C23.6,60 24,59.6 24,59 L24,46 L40,46 L40,59 C40,59.6 40.4,60 41,60 L45,60 C45.6,60 46,59.6 46,59 L46,29 L46,26 C46,24.5 45.2,23.2 44,22.6 L44,22.6 Z M22,8 C22,6.9 22.9,6 24,6 L40,6 C41.1,6 42,6.9 42,8 L42,22 L22,22 L22,8 L22,8 Z M20,26 C20,24.9 20.9,24 22,24 L42,24 C43.1,24 44,24.9 44,26 L44,28 L20,28 L20,26 L20,26 Z M40,40 L24,40 L24,30 L40,30 L40,40 L40,40 Z M22,58 L20,58 L20,30 L22,30 L22,58 L22,58 Z M24,44 L24,42 L40,42 L40,44 L24,44 L24,44 Z M42,58 L42,30 L44,30 L44,58 L42,58 L42,58 Z" id="Shape" fill="#000000"></path>
    </g>
</svg>