<?xml version="1.0" encoding="UTF-8" standalone="no"?>
<svg width="64px" height="64px" viewBox="0 0 64 64" version="1.1" xmlns="http://www.w3.org/2000/svg" xmlns:xlink="http://www.w3.org/1999/xlink">
    <!-- Generator: Sketch 3.7.2 (28276) - http://www.bohemiancoding.com/sketch -->
    <title>hou-mirror-table</title>
    <desc>Created with Sketch.</desc>
    <defs></defs>
    <g id="64px-Line" stroke="none" stroke-width="1" fill="none" fill-rule="evenodd">
        <g id="hou-mirror-table"></g>
        <path d="M56,59 L56,47 C56,46.4 55.6,46 55,46 L52,46 L52,21 C52,20.4 51.6,20 51,20 C50.4,20 50,20.4 50,21 L50,24 L48,24 L48,11 C48,10.4 47.6,10 47,10 C44,10 42.4,8.8 40.7,7.4 C38.7,5.8 36.5,4 32,4 C27.5,4 25.2,5.8 23.2,7.4 C21.5,8.8 19.9,10 17,10 C16.4,10 16,10.4 16,11 L16,24 L14,24 L14,21 C14,20.4 13.6,20 13,20 C12.4,20 12,20.4 12,21 L12,46 L9,46 C8.4,46 8,46.4 8,47 L8,59 C8,59.6 8.4,60 9,60 L55,60 C55.6,60 56,59.6 56,59 L56,59 Z M18,12 C21.1,11.7 22.8,10.3 24.5,9 C26.4,7.5 28.2,6.1 32,6.1 C35.7,6.1 37.5,7.5 39.4,9 C41.1,10.4 42.9,11.8 46,12 L46,42 L18,42 L18,12 L18,12 Z M14,26 L16,26 L16,43 C16,43.6 16.4,44 17,44 L47,44 C47.6,44 48,43.6 48,43 L48,26 L50,26 L50,46 L14,46 L14,26 L14,26 Z M54,58 L10,58 L10,48 L54,48 L54,58 L54,58 Z" id="Shape" fill="#000000"></path>
        <path d="M21,20 C21.3,20 21.5,19.9 21.7,19.7 L31.7,9.7 C32.1,9.3 32.1,8.7 31.7,8.3 C31.3,7.9 30.7,7.9 30.3,8.3 L20.3,18.3 C19.9,18.7 19.9,19.3 20.3,19.7 C20.5,19.9 20.7,20 21,20 L21,20 Z" id="Shape" fill="#000000"></path>
        <path d="M21,26 C21.3,26 21.5,25.9 21.7,25.7 L36.7,10.7 C37.1,10.3 37.1,9.7 36.7,9.3 C36.3,8.9 35.7,8.9 35.3,9.3 L20.3,24.3 C19.9,24.7 19.9,25.3 20.3,25.7 C20.5,25.9 20.7,26 21,26 L21,26 Z" id="Shape" fill="#000000"></path>
        <path d="M36.3,39.7 C36.5,39.9 36.8,40 37,40 C37.2,40 37.5,39.9 37.7,39.7 L43.7,33.7 C44.1,33.3 44.1,32.7 43.7,32.3 C43.3,31.9 42.7,31.9 42.3,32.3 L36.3,38.3 C35.9,38.7 35.9,39.3 36.3,39.7 L36.3,39.7 Z" id="Shape" fill="#000000"></path>
        <path d="M35,52 L29,52 C28.4,52 28,52.4 28,53 C28,53.6 28.4,54 29,54 L35,54 C35.6,54 36,53.6 36,53 C36,52.4 35.6,52 35,52 L35,52 Z" id="Shape" fill="#000000"></path>
    </g>
</svg>