<?xml version="1.0" encoding="UTF-8" standalone="no"?>
<svg width="64px" height="64px" viewBox="0 0 64 64" version="1.1" xmlns="http://www.w3.org/2000/svg" xmlns:xlink="http://www.w3.org/1999/xlink">
    <!-- Generator: Sketch 3.7.2 (28276) - http://www.bohemiancoding.com/sketch -->
    <title>hou-light-stand</title>
    <desc>Created with Sketch.</desc>
    <defs></defs>
    <g id="64px-Line" stroke="none" stroke-width="1" fill="none" fill-rule="evenodd">
        <g id="hou-light-stand"></g>
        <path d="M37,4 L25,4 C24.5,4 24.1,4.3 24,4.8 L20,22.8 C19.9,23.1 20,23.4 20.2,23.6 C20.4,23.8 20.7,24 21,24 L30,24 L30,58 L23,58 C22.4,58 22,58.4 22,59 C22,59.6 22.4,60 23,60 L39,60 C39.6,60 40,59.6 40,59 C40,58.4 39.6,58 39,58 L32,58 L32,24 L41,24 C41.3,24 41.6,23.9 41.8,23.6 C42,23.4 42.1,23.1 42,22.8 L38,4.8 C37.9,4.3 37.5,4 37,4 L37,4 Z M22.2,22 L25.8,6 L36.2,6 L39.8,22 L22.2,22 L22.2,22 Z" id="Shape" fill="#000000"></path>
    </g>
</svg>