<?xml version="1.0" encoding="UTF-8" standalone="no"?>
<svg width="64px" height="64px" viewBox="0 0 64 64" version="1.1" xmlns="http://www.w3.org/2000/svg" xmlns:xlink="http://www.w3.org/1999/xlink">
    <!-- Generator: Sketch 3.7.2 (28276) - http://www.bohemiancoding.com/sketch -->
    <title>hou-bed-bunk</title>
    <desc>Created with Sketch.</desc>
    <defs></defs>
    <g id="64px-Line" stroke="none" stroke-width="1" fill="none" fill-rule="evenodd">
        <g id="hou-bed-bunk"></g>
        <path d="M7,60 L11,60 C11.6,60 12,59.6 12,59 L12,52 L50,52 L50,59 C50,59.6 50.4,60 51,60 L55,60 C55.6,60 56,59.6 56,59 L56,5 C56,4.4 55.6,4 55,4 L51,4 C50.4,4 50,4.4 50,5 L50,12.6 C48.1,11.6 45.1,11 42,10.6 L42,9 C42,5.9 37.9,4 31,4 C24.1,4 20,5.9 20,9 L20,10.7 C16.9,11.1 13.9,11.7 12,12.7 L12,5 C12,4.4 11.6,4 11,4 L7,4 C6.4,4 6,4.4 6,5 L6,59 C6,59.6 6.4,60 7,60 L7,60 Z M12,26 L50,26 L50,38.6 C48.1,37.6 45.1,37 42,36.6 L42,35 C42,31.9 37.9,30 31,30 C24.1,30 20,31.9 20,35 L20,36.7 C16.9,37.1 13.9,37.7 12,38.7 L12,26 L12,26 Z M40,36.4 C35.5,36 31.4,36 31,36 C30.6,36 26.5,36 22,36.4 L22,35 C22,33.5 25.1,32 31,32 C36.9,32 40,33.5 40,35 L40,36.4 L40,36.4 Z M12,41 C12.5,39.9 19.2,38 31,38 C42.8,38 49.6,40 50,41 L50,44 L12,44 L12,41 L12,41 Z M50,24 L12,24 L12,20 L50,20 L50,24 L50,24 Z M12,50 L12,46 L50,46 L50,50 L12,50 L12,50 Z M52,6 L54,6 L54,58 L52,58 L52,6 L52,6 Z M22,9 C22,7.5 25.1,6 31,6 C36.9,6 40,7.5 40,9 L40,10.4 C35.5,10 31.4,10 31,10 C30.6,10 26.5,10 22,10.4 L22,9 L22,9 Z M31,12 C42.8,12 49.6,14 50,15 L50,18 L12,18 L12,15 C12.5,13.9 19.2,12 31,12 L31,12 Z M8,6 L10,6 L10,58 L8,58 L8,6 L8,6 Z" id="Shape" fill="#000000"></path>
    </g>
</svg>