<?xml version="1.0" encoding="UTF-8" standalone="no"?>
<svg width="44px" height="44px" viewBox="0 0 44 44" version="1.1" xmlns="http://www.w3.org/2000/svg" xmlns:xlink="http://www.w3.org/1999/xlink">
    <!-- Generator: Sketch 3.7.2 (28276) - http://www.bohemiancoding.com/sketch -->
    <title>hou-window-curtains</title>
    <desc>Created with Sketch.</desc>
    <defs></defs>
    <g id="44px-Line" stroke="none" stroke-width="1" fill="none" fill-rule="evenodd">
        <g id="hou-window-curtains"></g>
        <path d="M1,44 L11,44 C11.552,44 12,43.552 12,43 C12,41.268 11.919,39.602 11.786,38 L30.238,38 C30.09,39.602 30,41.268 30,43 C30,43.552 30.448,44 31,44 L41,44 C41.552,44 42,43.552 42,43 L42,1 C42,0.448 41.552,0 41,0 L32,0 L31,0 L11,0 L1,0 C0.448,0 0,0.448 0,1 L0,43 C0,43.552 0.448,44 1,44 L1,44 Z M2,42 L2,20 L5.358,20 C6.327,22.193 9.793,30.789 9.991,42 L2,42 L2,42 Z M31.113,32 L22,32 L22,20 L34.948,20 C33.973,22.108 32.249,26.35 31.113,32 L31.113,32 Z M22,18 L22,6 L30.59,6 C31.625,10.873 33.773,15.658 34.922,18 L22,18 L22,18 Z M30.232,4 L11.79,4 C11.876,3.326 11.935,2.658 11.967,2 L30.036,2 C30.071,2.658 30.137,3.326 30.232,4 L30.232,4 Z M11.467,6 L20,6 L20,18 L7.561,18 C8.589,15.676 10.531,10.881 11.467,6 L11.467,6 Z M20,20 L20,32 L10.997,32 C9.971,26.336 8.411,22.091 7.538,20 L20,20 L20,20 Z M11.589,36 C11.51,35.318 11.423,34.651 11.326,34 L30.747,34 C30.64,34.651 30.543,35.318 30.455,36 L11.589,36 L11.589,36 Z M32.01,42 C32.232,30.773 36.117,22.139 37.169,20 L40,20 L40,42 L32.01,42 L32.01,42 Z M40,18 L37.162,18 C36.125,15.973 32.406,8.311 32.031,2 L40,2 L40,18 L40,18 Z M9.973,2 C9.637,8.29 6.319,15.918 5.364,18 L2,18 L2,2 L9.973,2 L9.973,2 Z" id="Shape" fill="#000000"></path>
    </g>
</svg>