<?xml version="1.0" encoding="UTF-8" standalone="no"?>
<svg width="44px" height="44px" viewBox="0 0 44 44" version="1.1" xmlns="http://www.w3.org/2000/svg" xmlns:xlink="http://www.w3.org/1999/xlink">
    <!-- Generator: Sketch 3.7.2 (28276) - http://www.bohemiancoding.com/sketch -->
    <title>hou-tv-cabinet</title>
    <desc>Created with Sketch.</desc>
    <defs></defs>
    <g id="44px-Line" stroke="none" stroke-width="1" fill="none" fill-rule="evenodd">
        <g id="hou-tv-cabinet"></g>
        <path d="M30,18 C32.206,18 34,16.206 34,14 L34,4 C34,1.794 32.206,0 30,0 L12,0 C9.794,0 8,1.794 8,4 L8,14 C8,16.206 9.794,18 12,18 L20,18 L20,20 L15,20 C14.447,20 14,20.447 14,21 C14,21.553 14.447,22 15,22 L27,22 C27.553,22 28,21.553 28,21 C28,20.447 27.553,20 27,20 L22,20 L22,18 L30,18 L30,18 Z M10,14 L10,4 C10,2.897 10.897,2 12,2 L30,2 C31.103,2 32,2.897 32,4 L32,14 C32,15.103 31.103,16 30,16 L12,16 C10.897,16 10,15.103 10,14 L10,14 Z" id="Shape" fill="#000000"></path>
        <path d="M17,30 C16.447,30 16,30.447 16,31 L16,33 C16,33.553 16.447,34 17,34 C17.553,34 18,33.553 18,33 L18,31 C18,30.447 17.553,30 17,30 L17,30 Z" id="Shape" fill="#000000"></path>
        <path d="M25,34 C25.553,34 26,33.553 26,33 L26,31 C26,30.447 25.553,30 25,30 C24.447,30 24,30.447 24,31 L24,33 C24,33.553 24.447,34 25,34 L25,34 Z" id="Shape" fill="#000000"></path>
        <path d="M41,24 L1,24 C0.447,24 0,24.447 0,25 C0,25.553 0.447,26 1,26 L2,26 L2,43 C2,43.553 2.447,44 3,44 C3.553,44 4,43.553 4,43 L4,40 L38,40 L38,43 C38,43.553 38.447,44 39,44 C39.553,44 40,43.553 40,43 L40,26 L41,26 C41.553,26 42,25.553 42,25 C42,24.447 41.553,24 41,24 L41,24 Z M4,26 L20,26 L20,38 L4,38 L4,26 L4,26 Z M38,38 L22,38 L22,26 L38,26 L38,38 L38,38 Z" id="Shape" fill="#000000"></path>
    </g>
</svg>