<?xml version="1.0" encoding="UTF-8" standalone="no"?>
<svg width="44px" height="44px" viewBox="0 0 44 44" version="1.1" xmlns="http://www.w3.org/2000/svg" xmlns:xlink="http://www.w3.org/1999/xlink">
    <!-- Generator: Sketch 3.7.2 (28276) - http://www.bohemiancoding.com/sketch -->
    <title>hou-window-roman</title>
    <desc>Created with Sketch.</desc>
    <defs></defs>
    <g id="44px-Line" stroke="none" stroke-width="1" fill="none" fill-rule="evenodd">
        <g id="hou-window-roman"></g>
        <path d="M43,38 L42,38 L42,1 C42,0.448 41.553,0 41,0 L3,0 C2.447,0 2,0.448 2,1 L2,38 L1,38 C0.447,38 0,38.448 0,39 L0,43 C0,43.552 0.447,44 1,44 L43,44 C43.553,44 44,43.552 44,43 L44,39 C44,38.448 43.553,38 43,38 L43,38 Z M40,20 L4,20 L4,12 L40,12 L40,20 L40,20 Z M4,22 L40,22 L40,30 L4,30 L4,22 L4,22 Z M40,2 L40,10 L4,10 L4,2 L40,2 L40,2 Z M4,32 L40,32 L40,38 L4,38 L4,32 L4,32 Z M42,42 L2,42 L2,40 L42,40 L42,42 L42,42 Z" id="Shape" fill="#000000"></path>
    </g>
</svg>