<?xml version="1.0" encoding="UTF-8" standalone="no"?>
<svg width="44px" height="44px" viewBox="0 0 44 44" version="1.1" xmlns="http://www.w3.org/2000/svg" xmlns:xlink="http://www.w3.org/1999/xlink">
    <!-- Generator: Sketch 3.7.2 (28276) - http://www.bohemiancoding.com/sketch -->
    <title>img-attach</title>
    <desc>Created with Sketch.</desc>
    <defs></defs>
    <g id="44px-Line" stroke="none" stroke-width="1" fill="none" fill-rule="evenodd">
        <g id="img-attach"></g>
        <path d="M1,32 L21.982,32 C22.534,32 22.982,31.552 22.982,31 C22.982,30.448 22.534,30 21.982,30 L2,30 L2,4 L38,4 L38,17.071 C38,17.623 38.448,18.071 39,18.071 C39.552,18.071 40,17.623 40,17.071 L40,3 C40,2.448 39.552,2 39,2 L1,2 C0.448,2 0,2.448 0,3 L0,31 C0,31.552 0.448,32 1,32 L1,32 Z" id="Shape" fill="#000000"></path>
        <path d="M33.242,20.656 C33.633,21.047 34.265,21.047 34.656,20.656 C35.047,20.265 35.047,19.633 34.656,19.242 L27.707,12.293 C27.316,11.902 26.684,11.902 26.293,12.293 L19,19.586 L15.707,16.293 C15.316,15.902 14.684,15.902 14.293,16.293 L4.293,26.293 C3.902,26.684 3.902,27.316 4.293,27.707 C4.488,27.902 4.744,28 5,28 C5.256,28 5.512,27.902 5.707,27.707 L15,18.414 L20.293,23.707 C20.684,24.098 21.316,24.098 21.707,23.707 C22.098,23.316 22.098,22.684 21.707,22.293 L20.414,21 L27,14.414 L33.242,20.656 L33.242,20.656 Z" id="Shape" fill="#000000"></path>
        <path d="M8,14 C10.206,14 12,12.206 12,10 C12,7.794 10.206,6 8,6 C5.794,6 4,7.794 4,10 C4,12.206 5.794,14 8,14 L8,14 Z M8,8 C9.103,8 10,8.897 10,10 C10,11.103 9.103,12 8,12 C6.897,12 6,11.103 6,10 C6,8.897 6.897,8 8,8 L8,8 Z" id="Shape" fill="#000000"></path>
        <path d="M37.062,21.137 L23.434,33.975 C22.509,34.863 21.999,36.047 21.999,37.308 C21.999,38.569 22.509,39.752 23.434,40.639 C24.376,41.544 25.615,41.995 26.851,41.995 C28.083,41.995 29.313,41.546 30.246,40.651 L39.835,31.762 C40.24,31.387 40.264,30.754 39.889,30.349 C39.726,30.174 39.516,30.07 39.297,30.038 L42.793,26.763 C43.573,26.014 44.002,25.016 44.002,23.953 C44.002,22.89 43.573,21.891 42.794,21.143 C41.211,19.625 38.637,19.625 37.062,21.137 L37.062,21.137 Z M28.873,39.197 C27.755,40.269 25.936,40.27 24.82,39.197 C24.292,38.69 24.001,38.02 24,37.309 C24,36.598 24.291,35.927 24.813,35.426 L26.693,33.655 C26.642,33.883 26.615,34.117 26.615,34.356 C26.615,35.222 26.964,36.034 27.598,36.642 C28.448,37.458 29.648,37.732 30.736,37.47 L28.873,39.197 L28.873,39.197 Z M41.415,25.313 L30.862,35.199 C30.344,35.697 29.502,35.696 28.984,35.199 C28.747,34.971 28.616,34.671 28.616,34.354 C28.616,34.037 28.747,33.737 28.973,33.519 L35.22,27.701 C35.624,27.325 35.647,26.692 35.27,26.287 C35.141,26.148 34.981,26.054 34.811,26.006 L38.441,22.586 C39.258,21.8 40.587,21.8 41.406,22.586 C41.789,22.954 42,23.44 42,23.954 C42,24.468 41.789,24.954 41.415,25.313 L41.415,25.313 Z" id="Shape" fill="#000000"></path>
    </g>
</svg>