<?xml version="1.0" encoding="UTF-8" standalone="no"?>
<svg width="64px" height="64px" viewBox="0 0 64 64" version="1.1" xmlns="http://www.w3.org/2000/svg" xmlns:xlink="http://www.w3.org/1999/xlink">
    <!-- Generator: Sketch 3.7.2 (28276) - http://www.bohemiancoding.com/sketch -->
    <title>img-mask</title>
    <desc>Created with Sketch.</desc>
    <defs></defs>
    <g id="64px-Glyph" stroke="none" stroke-width="1" fill="none" fill-rule="evenodd">
        <g id="img-mask" fill="#000000">
            <path d="M32,16 C29.252,16 26.665,16.697 24.403,17.923 C25.42,19.018 26,20.462 26,22 C26,25.309 23.309,28 20,28 C18.855,28 17.744,27.662 16.79,27.059 C16.282,28.616 16,30.275 16,32 C16,33.96 16.372,35.83 17.019,37.567 L24.293,30.293 C24.668,29.918 25.332,29.918 25.707,30.293 L31,35.586 L40.293,26.293 C40.684,25.902 41.316,25.902 41.707,26.293 L47.972,32.558 C47.978,32.371 48,32.188 48,32 C48,23.178 40.822,16 32,16" id="Fill-60"></path>
            <path d="M32.4141,37 L37.7071,42.293 C38.0981,42.684 38.0981,43.316 37.7071,43.707 C37.5121,43.902 37.2561,44 37.0001,44 C36.7441,44 36.4881,43.902 36.2931,43.707 L25.0001,32.414 L17.8881,39.526 C20.5861,44.564 25.8971,48 32.0001,48 C39.7591,48 46.2411,42.446 47.6921,35.106 L41.0001,28.414 L32.4141,37 Z" id="Fill-61"></path>
            <path d="M24,22 C24,20.849 23.509,19.781 22.67,19.029 C20.49,20.602 18.726,22.706 17.56,25.154 C18.256,25.696 19.098,26 20,26 C22.206,26 24,24.206 24,22" id="Fill-62"></path>
            <path d="M49.768,34.7456 C49.771,34.8346 49.749,34.9206 49.728,35.0076 C48.29,43.5026 40.898,49.9996 32,49.9996 C24.897,49.9996 18.76,45.8536 15.834,39.8646 C15.784,39.7856 15.742,39.7076 15.717,39.6206 C14.627,37.3026 14,34.7256 14,31.9996 C14,29.5276 14.502,27.1706 15.408,25.0246 C15.418,24.9996 15.428,24.9776 15.439,24.9536 C16.829,21.6996 19.153,18.9386 22.071,17.0006 C22.118,16.9636 22.168,16.9366 22.221,16.9096 C25.04,15.0766 28.394,13.9996 32,13.9996 C41.925,13.9996 50,22.0756 50,31.9996 C50,32.9356 49.906,33.8476 49.768,34.7456 M59,9.9996 L5,9.9996 C4.448,9.9996 4,10.4476 4,10.9996 L4,52.9996 C4,53.5526 4.448,53.9996 5,53.9996 L59,53.9996 C59.552,53.9996 60,53.5526 60,52.9996 L60,10.9996 C60,10.4476 59.552,9.9996 59,9.9996" id="Fill-63"></path>
        </g>
    </g>
</svg>