<?xml version="1.0" encoding="UTF-8" standalone="no"?>
<svg width="64px" height="64px" viewBox="0 0 64 64" version="1.1" xmlns="http://www.w3.org/2000/svg" xmlns:xlink="http://www.w3.org/1999/xlink">
    <!-- Generator: Sketch 3.7.2 (28276) - http://www.bohemiancoding.com/sketch -->
    <title>img-rotate-2</title>
    <desc>Created with Sketch.</desc>
    <defs></defs>
    <g id="64px-Glyph" stroke="none" stroke-width="1" fill="none" fill-rule="evenodd">
        <g id="img-rotate-2" fill="#000000">
            <path d="M37,28.4141 L30.414,35.0001 L31.707,36.2931 C32.098,36.6841 32.098,37.3161 31.707,37.7071 C31.316,38.0981 30.684,38.0981 30.293,37.7071 L25,32.4141 L14.069,43.3451 C14.211,43.7261 14.569,44.0001 15,44.0001 L47,44.0001 C47.553,44.0001 48,43.5531 48,43.0001 L48,39.4141 L37,28.4141 Z" id="Fill-77"></path>
            <path d="M20,24 C21.102,24 22,24.897 22,26 C22,27.102 21.102,28 20,28 C18.897,28 18,27.102 18,26 C18,24.897 18.897,24 20,24 L20,24 Z M24.293,30.293 C24.684,29.902 25.316,29.902 25.707,30.293 L29,33.586 L36.293,26.293 C36.684,25.902 37.316,25.902 37.707,26.293 L48,36.586 L48,21 C48,20.447 47.553,20 47,20 L15,20 C14.447,20 14,20.447 14,21 L14,40.586 L24.293,30.293 Z" id="Fill-78"></path>
            <path d="M47,10 L41.414,10 L43.707,7.707 C44.098,7.316 44.098,6.684 43.707,6.293 C43.316,5.902 42.684,5.902 42.293,6.293 L38.294,10.292 C38.201,10.384 38.128,10.495 38.077,10.618 C37.976,10.862 37.976,11.138 38.077,11.382 C38.128,11.505 38.201,11.616 38.294,11.708 L42.293,15.707 C42.488,15.902 42.744,16 43,16 C43.256,16 43.512,15.902 43.707,15.707 C44.098,15.316 44.098,14.684 43.707,14.293 L41.414,12 L47,12 C51.963,12 56,16.037 56,21 L56,29 C56,29.553 56.447,30 57,30 C57.553,30 58,29.553 58,29 L58,21 C58,14.935 53.065,10 47,10" id="Fill-79"></path>
            <path d="M23.923,53.3818 C24.024,53.1378 24.024,52.8618 23.923,52.6178 C23.872,52.4948 23.798,52.3848 23.706,52.2918 L19.707,48.2928 C19.316,47.9028 18.684,47.9028 18.293,48.2928 C17.902,48.6838 17.902,49.3168 18.293,49.7068 L20.586,51.9998 L15,51.9998 C10.037,51.9998 6,47.9628 6,42.9998 L6,34.9998 C6,34.4478 5.553,33.9998 5,33.9998 C4.447,33.9998 4,34.4478 4,34.9998 L4,42.9998 C4,49.0658 8.935,53.9998 15,53.9998 L20.586,53.9998 L18.293,56.2928 C17.902,56.6838 17.902,57.3168 18.293,57.7068 C18.488,57.9028 18.744,57.9998 19,57.9998 C19.256,57.9998 19.512,57.9028 19.707,57.7068 L23.706,53.7088 C23.798,53.6158 23.872,53.5048 23.923,53.3818" id="Fill-80"></path>
        </g>
    </g>
</svg>