<?xml version="1.0" encoding="UTF-8" standalone="no"?>
<svg width="64px" height="64px" viewBox="0 0 64 64" version="1.1" xmlns="http://www.w3.org/2000/svg" xmlns:xlink="http://www.w3.org/1999/xlink">
    <!-- Generator: Sketch 3.7.2 (28276) - http://www.bohemiancoding.com/sketch -->
    <title>img-laptop</title>
    <desc>Created with Sketch.</desc>
    <defs></defs>
    <g id="64px-Glyph" stroke="none" stroke-width="1" fill="none" fill-rule="evenodd">
        <g id="img-laptop" fill="#000000">
            <path d="M18,26 C19.103,26 20,25.102 20,24 C20,22.897 19.103,22 18,22 C16.897,22 16,22.897 16,24 C16,25.102 16.897,26 18,26" id="Fill-57"></path>
            <path d="M14.293,36.293 L24.293,26.293 C24.684,25.902 25.316,25.902 25.707,26.293 L30,30.586 L38.293,22.293 C38.684,21.902 39.316,21.902 39.707,22.293 L49.707,32.293 C50.098,32.684 50.098,33.316 49.707,33.707 C49.512,33.902 49.256,34 49,34 C48.744,34 48.488,33.902 48.293,33.707 L39,24.414 L31.414,32 L33.707,34.293 C34.098,34.684 34.098,35.316 33.707,35.707 C33.316,36.098 32.684,36.098 32.293,35.707 L25,28.414 L15.707,37.707 C15.512,37.902 15.256,38 15,38 C14.744,38 14.488,37.902 14.293,37.707 C13.902,37.316 13.902,36.684 14.293,36.293 L14.293,36.293 Z M18,20 C20.206,20 22,21.794 22,24 C22,26.206 20.206,28 18,28 C15.794,28 14,26.206 14,24 C14,21.794 15.794,20 18,20 L18,20 Z M12,40 L52,40 L52,18 L12,18 L12,40 Z" id="Fill-58"></path>
            <path d="M10,17 C10,16.447 10.448,16 11,16 L53,16 C53.552,16 54,16.447 54,17 L54,41 C54,41.553 53.552,42 53,42 L11,42 C10.448,42 10,41.553 10,41 L10,17 Z M61,46 L58,46 L58,16 C58,13.794 56.206,12 54,12 L10,12 C7.794,12 6,13.794 6,16 L6,46 L3,46 C2.448,46 2,46.447 2,47 L2,48 C2,50.206 3.794,52 6,52 L58,52 C60.206,52 62,50.206 62,48 L62,47 C62,46.447 61.552,46 61,46 L61,46 Z" id="Fill-59"></path>
        </g>
    </g>
</svg>