<?xml version="1.0" encoding="UTF-8" standalone="no"?>
<svg width="64px" height="64px" viewBox="0 0 64 64" version="1.1" xmlns="http://www.w3.org/2000/svg" xmlns:xlink="http://www.w3.org/1999/xlink">
    <!-- Generator: Sketch 3.7.2 (28276) - http://www.bohemiancoding.com/sketch -->
    <title>img-flip</title>
    <desc>Created with Sketch.</desc>
    <defs></defs>
    <g id="64px-Glyph" stroke="none" stroke-width="1" fill="none" fill-rule="evenodd">
        <g id="img-flip" fill="#000000">
            <path d="M51.707,49.707 C51.512,49.902 51.256,50 51,50 C50.744,50 50.488,49.902 50.293,49.707 L39,38.414 L31.414,46 L33.707,48.293 C34.098,48.684 34.098,49.316 33.707,49.707 C33.316,50.098 32.684,50.098 32.293,49.707 L25,42.414 L13.707,53.707 C13.512,53.902 13.256,54 13,54 C12.744,54 12.488,53.902 12.293,53.707 C11.902,53.316 11.902,52.684 12.293,52.293 L24.293,40.293 C24.684,39.902 25.316,39.902 25.707,40.293 L30,44.586 L38.293,36.293 C38.684,35.902 39.316,35.902 39.707,36.293 L51.707,48.293 C52.098,48.684 52.098,49.316 51.707,49.707 M20,28 C22.206,28 24,29.794 24,32 C24,34.206 22.206,36 20,36 C17.794,36 16,34.206 16,32 C16,29.794 17.794,28 20,28 M55,24 L9,24 C8.447,24 8,24.447 8,25 L8,57 C8,57.553 8.447,58 9,58 L55,58 C55.553,58 56,57.553 56,57 L56,25 C56,24.447 55.553,24 55,24" id="Fill-86"></path>
            <path d="M20,34 C21.102,34 22,33.102 22,32 C22,30.897 21.102,30 20,30 C18.897,30 18,30.897 18,32 C18,33.102 18.897,34 20,34" id="Fill-87"></path>
            <path d="M32,8 C31.76,8 8,8.136 8,13 C8,16.939 23.578,17.777 29.632,17.954 L27.293,20.293 C26.902,20.684 26.902,21.316 27.293,21.707 C27.488,21.902 27.744,22 28,22 C28.256,22 28.512,21.902 28.707,21.707 L32.706,17.708 C32.798,17.616 32.872,17.505 32.923,17.382 C33.024,17.138 33.024,16.862 32.923,16.618 C32.872,16.495 32.798,16.384 32.706,16.292 L28.707,12.293 C28.316,11.902 27.684,11.902 27.293,12.293 C26.902,12.684 26.902,13.316 27.293,13.707 L29.558,15.972 C19.08,15.751 11.269,14.155 10.08,13 C11.359,11.757 20.308,10 32,10 C43.63,10 52.544,11.737 53.898,12.98 C52.885,13.815 47.779,15.18 38.932,15.774 C38.381,15.811 37.964,16.288 38.001,16.84 C38.039,17.391 38.499,17.794 39.066,17.77 C45.391,17.345 56,16.159 56,13 C56,8.136 32.24,8 32,8" id="Fill-88"></path>
        </g>
    </g>
</svg>