<?xml version="1.0" encoding="UTF-8" standalone="no"?>
<svg width="44px" height="44px" viewBox="0 0 44 44" version="1.1" xmlns="http://www.w3.org/2000/svg" xmlns:xlink="http://www.w3.org/1999/xlink">
    <!-- Generator: Sketch 3.7.2 (28276) - http://www.bohemiancoding.com/sketch -->
    <title>img-circle</title>
    <desc>Created with Sketch.</desc>
    <defs></defs>
    <g id="44px-Line" stroke="none" stroke-width="1" fill="none" fill-rule="evenodd">
        <g id="img-circle"></g>
        <path d="M22,0 C9.869,0 0,9.869 0,22 C0,34.131 9.869,44 22,44 C34.131,44 44,34.131 44,22 C44,9.869 34.131,0 22,0 L22,0 Z M22,42 C10.972,42 2,33.028 2,22 C2,10.972 10.972,2 22,2 C33.028,2 42,10.972 42,22 C42,33.028 33.028,42 22,42 L22,42 Z" id="Shape" fill="#000000"></path>
        <path d="M12,18 C14.206,18 16,16.206 16,14 C16,11.794 14.206,10 12,10 C9.794,10 8,11.794 8,14 C8,16.206 9.794,18 12,18 L12,18 Z M12,12 C13.103,12 14,12.897 14,14 C14,15.103 13.103,16 12,16 C10.897,16 10,15.103 10,14 C10,12.897 10.897,12 12,12 L12,12 Z" id="Shape" fill="#000000"></path>
        <path d="M30.293,18.293 L22,26.586 L17.707,22.293 C17.316,21.902 16.684,21.902 16.293,22.293 L7.439,31.147 C7.048,31.538 7.048,32.17 7.439,32.561 C7.634,32.756 7.89,32.854 8.146,32.854 C8.402,32.854 8.658,32.756 8.853,32.561 L17,24.414 L23.293,30.707 C23.684,31.098 24.316,31.098 24.707,30.707 C25.098,30.316 25.098,29.684 24.707,29.293 L23.414,28 L31,20.414 L37.711,27.125 C38.102,27.516 38.734,27.516 39.125,27.125 C39.516,26.734 39.516,26.102 39.125,25.711 L31.707,18.293 C31.316,17.902 30.684,17.902 30.293,18.293 L30.293,18.293 Z" id="Shape" fill="#000000"></path>
    </g>
</svg>