<?xml version="1.0" encoding="UTF-8" standalone="no"?>
<svg width="44px" height="44px" viewBox="0 0 44 44" version="1.1" xmlns="http://www.w3.org/2000/svg" xmlns:xlink="http://www.w3.org/1999/xlink">
    <!-- Generator: Sketch 3.7.2 (28276) - http://www.bohemiancoding.com/sketch -->
    <title>img-usb</title>
    <desc>Created with Sketch.</desc>
    <defs></defs>
    <g id="44px-Glyph" stroke="none" stroke-width="1" fill="none" fill-rule="evenodd">
        <g id="img-usb" fill="#000000">
            <path d="M35.7061,7.6201 L28.3531,0.2921 C27.9641,-0.0949 27.3331,-0.0969 26.9411,0.2921 L23.1321,4.0881 L31.8991,12.8301 L35.7061,9.0361 C35.8941,8.8491 36.0001,8.5941 36.0001,8.3281 C36.0001,8.0621 35.8941,7.8071 35.7061,7.6201" id="Fill-8"></path>
            <path d="M26,28 C27.102,28 28,28.898 28,30 C28,31.102 27.102,32 26,32 C24.897,32 24,31.102 24,30 C24,28.898 24.897,28 26,28 L26,28 Z M28.26,33.327 C28.444,33.125 28.703,33.007 28.977,33 C29.245,32.981 29.514,33.1 29.707,33.293 L32,35.586 L36.293,31.293 C36.684,30.902 37.316,30.902 37.707,31.293 L44,37.586 L44,25 C44,24.447 43.553,24 43,24 L21,24 C20.447,24 20,24.447 20,25 L20,42.413 L28.26,33.327 Z" id="Fill-10"></path>
            <path d="M37,33.4141 L33.414,37.0001 L34.707,38.2931 C35.098,38.6841 35.098,39.3161 34.707,39.7071 C34.316,40.0981 33.684,40.0981 33.293,39.7071 L29.034,35.4481 L21.261,44.0001 L43,44.0001 C43.553,44.0001 44,43.5531 44,43.0001 L44,40.4141 L37,33.4141 Z" id="Fill-12"></path>
            <path d="M18,25 C18,23.346 19.346,22 21,22 L28.386,22 L31.191,19.196 C31.761,18.629 32.073,17.875 32.073,17.072 C32.073,16.27 31.761,15.516 31.191,14.948 L21.001,4.788 C19.828,3.616 17.921,3.619 16.734,4.805 L3.075,19.075 C-1.019,23.169 -1.019,29.831 3.075,33.925 C5.133,35.981 7.809,37.017 10.492,37.017 C13.071,37.016 15.658,36.06 17.707,34.136 L18,33.843 L18,25 Z" id="Fill-15"></path>
        </g>
    </g>
</svg>