<?xml version="1.0" encoding="UTF-8" standalone="no"?>
<svg width="44px" height="44px" viewBox="0 0 44 44" version="1.1" xmlns="http://www.w3.org/2000/svg" xmlns:xlink="http://www.w3.org/1999/xlink">
    <!-- Generator: Sketch 3.7.2 (28276) - http://www.bohemiancoding.com/sketch -->
    <title>img-card</title>
    <desc>Created with Sketch.</desc>
    <defs></defs>
    <g id="44px-Line" stroke="none" stroke-width="1" fill="none" fill-rule="evenodd">
        <g id="img-card"></g>
        <path d="M17,36 L3,36 C2.448,36 2,35.552 2,35 L2,9.414 L9.414,2 L30,2 L30,14 L29,14 C28.447,14 28,14.447 28,15 L28,21 C28,21.553 28.447,22 29,22 L31,22 C31.553,22 32,21.553 32,21 C32,20.447 31.553,20 31,20 L30,20 L30,16 L31,16 C31.553,16 32,15.553 32,15 L32,1 C32,0.447 31.553,0 31,0 L9,0 C8.734,0 8.48,0.105 8.293,0.293 L0.293,8.293 C0.105,8.48 0,8.734 0,9 L0,35 C0,36.654 1.346,38 3,38 L17,38 C17.553,38 18,37.553 18,37 C18,36.447 17.553,36 17,36 L17,36 Z" id="Shape" fill="#000000"></path>
        <path d="M24,5 L24,11 C24,11.553 24.447,12 25,12 C25.553,12 26,11.553 26,11 L26,5 C26,4.447 25.553,4 25,4 C24.447,4 24,4.447 24,5 L24,5 Z" id="Shape" fill="#000000"></path>
        <path d="M20,5 C20,4.447 19.553,4 19,4 C18.447,4 18,4.447 18,5 L18,11 C18,11.553 18.447,12 19,12 C19.553,12 20,11.553 20,11 L20,5 L20,5 Z" id="Shape" fill="#000000"></path>
        <path d="M12,5 L12,11 C12,11.553 12.447,12 13,12 C13.553,12 14,11.553 14,11 L14,5 C14,4.447 13.553,4 13,4 C12.447,4 12,4.447 12,5 L12,5 Z" id="Shape" fill="#000000"></path>
        <path d="M6,9 L6,15 C6,15.553 6.447,16 7,16 C7.553,16 8,15.553 8,15 L8,9 C8,8.447 7.553,8 7,8 C6.447,8 6,8.447 6,9 L6,9 Z" id="Shape" fill="#000000"></path>
        <path d="M43,24 L21,24 C20.447,24 20,24.447 20,25 L20,43 C20,43.01 20.006,43.019 20.006,43.029 C20.008,43.102 20.031,43.171 20.049,43.242 C20.063,43.298 20.068,43.357 20.092,43.409 C20.114,43.457 20.152,43.497 20.181,43.542 C20.224,43.607 20.263,43.673 20.32,43.726 C20.327,43.732 20.329,43.741 20.336,43.747 C20.382,43.789 20.438,43.809 20.489,43.84 C20.537,43.869 20.579,43.905 20.631,43.926 C20.75,43.973 20.875,44 21,44 L43,44 C43.553,44 44,43.553 44,43 L44,25 C44,24.447 43.553,24 43,24 L43,24 Z M42,26 L42,35.586 L37.707,31.293 C37.316,30.902 36.684,30.902 36.293,31.293 L32,35.586 L29.707,33.293 C29.513,33.099 29.25,33.001 28.971,33 C28.696,33.009 28.436,33.13 28.253,33.336 L22,40.371 L22,26 L42,26 L42,26 Z M23.226,42 L29.043,35.457 L33.293,39.707 C33.684,40.098 34.316,40.098 34.707,39.707 C35.098,39.316 35.098,38.684 34.707,38.293 L33.414,37 L37,33.414 L42,38.414 L42,42 L23.226,42 L23.226,42 Z" id="Shape" fill="#000000"></path>
        <circle id="Oval" fill="#000000" cx="26" cy="30" r="2"></circle>
    </g>
</svg>