<?xml version="1.0" encoding="UTF-8" standalone="no"?>
<svg width="44px" height="44px" viewBox="0 0 44 44" version="1.1" xmlns="http://www.w3.org/2000/svg" xmlns:xlink="http://www.w3.org/1999/xlink">
    <!-- Generator: Sketch 3.7.2 (28276) - http://www.bohemiancoding.com/sketch -->
    <title>img-square</title>
    <desc>Created with Sketch.</desc>
    <defs></defs>
    <g id="44px-Glyph" stroke="none" stroke-width="1" fill="none" fill-rule="evenodd">
        <g id="img-square" fill="#000000">
            <path d="M39.707,29.707 C39.512,29.902 39.256,30 39,30 C38.744,30 38.488,29.902 38.293,29.707 L29,20.414 L22.414,27 L24.707,29.293 C25.098,29.684 25.098,30.316 24.707,30.707 C24.316,31.098 23.684,31.098 23.293,30.707 L17,24.414 L5.707,35.707 C5.512,35.902 5.256,36 5,36 C4.744,36 4.488,35.902 4.293,35.707 C3.902,35.316 3.902,34.684 4.293,34.293 L16.293,22.293 C16.684,21.902 17.316,21.902 17.707,22.293 L21,25.586 L28.293,18.293 C28.684,17.902 29.316,17.902 29.707,18.293 L39.707,28.293 C40.098,28.684 40.098,29.316 39.707,29.707 M10,6 C12.206,6 14,7.794 14,10 C14,12.206 12.206,14 10,14 C7.794,14 6,12.206 6,10 C6,7.794 7.794,6 10,6 M43,0 L1,0 C0.447,0 0,0.447 0,1 L0,43 C0,43.553 0.447,44 1,44 L43,44 C43.553,44 44,43.553 44,43 L44,1 C44,0.447 43.553,0 43,0" id="Fill-106"></path>
            <path d="M10,12 C11.102,12 12,11.102 12,10 C12,8.898 11.102,8 10,8 C8.897,8 8,8.898 8,10 C8,11.102 8.897,12 10,12" id="Fill-107"></path>
        </g>
    </g>
</svg>