<?xml version="1.0" encoding="UTF-8" standalone="no"?>
<svg width="64px" height="64px" viewBox="0 0 64 64" version="1.1" xmlns="http://www.w3.org/2000/svg" xmlns:xlink="http://www.w3.org/1999/xlink">
    <!-- Generator: Sketch 3.7.2 (28276) - http://www.bohemiancoding.com/sketch -->
    <title>img-settings</title>
    <desc>Created with Sketch.</desc>
    <defs></defs>
    <g id="64px-Glyph" stroke="none" stroke-width="1" fill="none" fill-rule="evenodd">
        <g id="img-settings" fill="#000000">
            <path d="M15,14 C17.757,14 20,16.243 20,19 C20,21.757 17.757,24 15,24 C12.243,24 10,21.757 10,19 C10,16.243 12.243,14 15,14 M30,45 L30,43 C30,40.797 31.791,39.004 33.993,39 C32.616,37.439 32.674,35.046 34.166,33.554 L35.554,32.166 C36.732,30.987 38.467,30.719 39.916,31.331 L35,26.414 L26.414,35 L27.707,36.293 C28.098,36.684 28.098,37.316 27.707,37.707 C27.316,38.098 26.684,38.098 26.293,37.707 L19,30.414 L9.707,39.707 C9.512,39.902 9.256,40 9,40 C8.744,40 8.488,39.902 8.293,39.707 C7.902,39.316 7.902,38.684 8.293,38.293 L18.293,28.293 C18.684,27.902 19.316,27.902 19.707,28.293 L25,33.586 L34.293,24.293 C34.684,23.902 35.316,23.902 35.707,24.293 L41.506,30.092 C42.186,28.852 43.489,28 45,28 L47,28 C49.203,28 50.996,29.791 51,31.993 C51.848,31.246 52.939,30.936 54,31.035 L54,9 C54,8.447 53.553,8 53,8 L5,8 C4.447,8 4,8.447 4,9 L4,45 C4,45.553 4.447,46 5,46 L30.142,46 C30.059,45.679 30,45.347 30,45" id="Fill-137"></path>
            <path d="M15,22 C16.654,22 18,20.654 18,19 C18,17.346 16.654,16 15,16 C13.346,16 12,17.346 12,19 C12,20.654 13.346,22 15,22" id="Fill-138"></path>
            <path d="M46,40 C43.794,40 42,41.794 42,44 C42,44.732 42.212,45.409 42.556,46 L49.444,46 C49.788,45.409 50,44.732 50,44 C50,41.794 48.206,40 46,40" id="Fill-139"></path>
            <path d="M46,50 C42.691,50 40,47.309 40,44 C40,40.691 42.691,38 46,38 C49.309,38 52,40.691 52,44 C52,47.309 49.309,50 46,50 M58,41 L56.581,41 C56.344,40.166 56.007,39.356 55.585,38.604 L56.421,37.769 C57.191,36.997 57.191,35.74 56.42,34.968 L55.031,33.579 C54.281,32.832 52.977,32.832 52.23,33.58 L51.397,34.413 C50.638,33.983 49.836,33.649 49,33.413 L49,32 C49,30.898 48.102,30 47,30 L45,30 C43.897,30 43,30.898 43,32 L43,33.413 C42.162,33.649 41.359,33.983 40.602,34.412 L39.769,33.579 C39.02,32.833 37.718,32.831 36.968,33.58 L35.58,34.968 C34.808,35.74 34.808,36.997 35.58,37.77 L36.413,38.602 C35.986,39.358 35.653,40.161 35.417,41 L34,41 C32.897,41 32,41.898 32,43 L32,45 C32,46.102 32.897,47 34,47 L35.419,47 C35.656,47.835 35.992,48.645 36.414,49.396 L35.58,50.23 C34.809,51.002 34.808,52.259 35.58,53.032 L36.968,54.42 C37.718,55.17 39.022,55.168 39.77,54.42 L40.603,53.585 C41.359,54.012 42.161,54.345 43,54.581 L43,56 C43,57.102 43.897,58 45,58 L47,58 C48.102,58 49,57.102 49,56 L49,54.579 C49.836,54.341 50.645,54.005 51.395,53.585 L52.23,54.42 C52.977,55.167 54.28,55.168 55.032,54.42 L56.42,53.031 C57.192,52.259 57.192,51.003 56.42,50.23 L55.588,49.398 C56.015,48.642 56.347,47.84 56.583,47 L58,47 C59.102,47 60,46.102 60,45 L60,43 C60,41.898 59.102,41 58,41" id="Fill-140"></path>
        </g>
    </g>
</svg>