<?xml version="1.0" encoding="UTF-8" standalone="no"?>
<svg width="44px" height="44px" viewBox="0 0 44 44" version="1.1" xmlns="http://www.w3.org/2000/svg" xmlns:xlink="http://www.w3.org/1999/xlink">
    <!-- Generator: Sketch 3.7.2 (28276) - http://www.bohemiancoding.com/sketch -->
    <title>img-computer</title>
    <desc>Created with Sketch.</desc>
    <defs></defs>
    <g id="44px-Line" stroke="none" stroke-width="1" fill="none" fill-rule="evenodd">
        <g id="img-computer"></g>
        <path d="M40,2 L4,2 C1.794,2 0,3.794 0,6 L0,30 C0,32.206 1.794,34 4,34 L40,34 C42.206,34 44,32.206 44,30 L44,6 C44,3.794 42.206,2 40,2 L40,2 Z M4,4 L40,4 C41.103,4 42,4.897 42,6 L42,24 L2,24 L2,6 C2,4.897 2.897,4 4,4 L4,4 Z M40,32 L4,32 C2.897,32 2,31.103 2,30 L2,26 L42,26 L42,30 C42,31.103 41.103,32 40,32 L40,32 Z" id="Shape" fill="#000000"></path>
        <path d="M28.97,36.758 C28.836,36.222 28.294,35.896 27.757,36.03 C27.221,36.164 26.896,36.707 27.029,37.242 L27.994,41.102 C27.943,41.605 27.517,42 27,42 L17,42 C16.483,42 16.057,41.605 16.005,41.103 L16.97,37.243 C17.104,36.708 16.778,36.165 16.242,36.031 C15.707,35.896 15.164,36.222 15.029,36.759 L14.029,40.759 C14.009,40.838 13.999,40.919 13.999,41.001 C13.999,42.655 15.345,44.001 16.999,44.001 L26.999,44.001 C28.653,44.001 29.999,42.655 29.999,41.001 C29.999,40.919 29.989,40.838 29.969,40.759 L28.97,36.758 L28.97,36.758 Z" id="Shape" fill="#000000"></path>
        <path d="M23,28 L21,28 C20.448,28 20,28.447 20,29 C20,29.553 20.448,30 21,30 L23,30 C23.552,30 24,29.553 24,29 C24,28.447 23.552,28 23,28 L23,28 Z" id="Shape" fill="#000000"></path>
        <path d="M7,12 C8.654,12 10,10.654 10,9 C10,7.346 8.654,6 7,6 C5.346,6 4,7.346 4,9 C4,10.654 5.346,12 7,12 L7,12 Z M7,8 C7.551,8 8,8.448 8,9 C8,9.552 7.551,10 7,10 C6.449,10 6,9.552 6,9 C6,8.448 6.449,8 7,8 L7,8 Z" id="Shape" fill="#000000"></path>
        <path d="M5,22 C5.256,22 5.512,21.902 5.707,21.707 L15,12.414 L21.293,18.707 C21.684,19.098 22.316,19.098 22.707,18.707 C23.098,18.316 23.098,17.684 22.707,17.293 L21.414,16 L29,8.414 L38.293,17.707 C38.488,17.902 38.744,18 39,18 C39.256,18 39.512,17.902 39.707,17.707 C40.098,17.316 40.098,16.684 39.707,16.293 L29.707,6.293 C29.316,5.902 28.684,5.902 28.293,6.293 L20,14.586 L15.707,10.293 C15.316,9.902 14.684,9.902 14.293,10.293 L4.293,20.293 C3.902,20.684 3.902,21.316 4.293,21.707 C4.488,21.902 4.744,22 5,22 L5,22 Z" id="Shape" fill="#000000"></path>
    </g>
</svg>