<?xml version="1.0" encoding="UTF-8" standalone="no"?>
<svg width="44px" height="44px" viewBox="0 0 44 44" version="1.1" xmlns="http://www.w3.org/2000/svg" xmlns:xlink="http://www.w3.org/1999/xlink">
    <!-- Generator: Sketch 3.7.2 (28276) - http://www.bohemiancoding.com/sketch -->
    <title>img-date</title>
    <desc>Created with Sketch.</desc>
    <defs></defs>
    <g id="44px-Line" stroke="none" stroke-width="1" fill="none" fill-rule="evenodd">
        <g id="img-date"></g>
        <path d="M1,32 L19,32 C19.552,32 20,31.552 20,31 C20,30.448 19.552,30 19,30 L2,30 L2,4 L38,4 L38,19 C38,19.552 38.448,20 39,20 C39.552,20 40,19.552 40,19 L40,3 C40,2.448 39.552,2 39,2 L1,2 C0.448,2 0,2.448 0,3 L0,31 C0,31.552 0.448,32 1,32 L1,32 Z" id="Shape" fill="#000000"></path>
        <path d="M32.293,19.707 C32.684,20.098 33.316,20.098 33.707,19.707 C34.098,19.316 34.098,18.684 33.707,18.293 L27.707,12.293 C27.316,11.902 26.684,11.902 26.293,12.293 L19,19.586 L15.707,16.293 C15.316,15.902 14.684,15.902 14.293,16.293 L4.293,26.293 C3.902,26.684 3.902,27.316 4.293,27.707 C4.488,27.902 4.744,28 5,28 C5.256,28 5.512,27.902 5.707,27.707 L15,18.414 L19.036,22.45 C19.427,22.841 20.059,22.841 20.45,22.45 C20.841,22.059 20.841,21.427 20.45,21.036 L20.414,21 L27,14.414 L32.293,19.707 L32.293,19.707 Z" id="Shape" fill="#000000"></path>
        <path d="M41.5,22 L24.5,22 C23.122,22 22,23.122 22,24.5 L22,39.5 C22,40.878 23.122,42 24.5,42 L41.5,42 C42.878,42 44,40.878 44,39.5 L44,24.5 C44,23.122 42.878,22 41.5,22 L41.5,22 Z M24.5,24 L41.5,24 C41.776,24 42,24.224 42,24.5 L42,28 L24,28 L24,24.5 C24,24.224 24.224,24 24.5,24 L24.5,24 Z M41.5,40 L24.5,40 C24.224,40 24,39.776 24,39.5 L24,30 L42,30 L42,39.5 C42,39.776 41.776,40 41.5,40 L41.5,40 Z" id="Shape" fill="#000000"></path>
        <path d="M33,32 C32.448,32 32,32.448 32,33 L32,37 C32,37.552 32.448,38 33,38 C33.552,38 34,37.552 34,37 L34,33 C34,32.448 33.552,32 33,32 L33,32 Z" id="Shape" fill="#000000"></path>
        <path d="M8,14 C10.206,14 12,12.206 12,10 C12,7.794 10.206,6 8,6 C5.794,6 4,7.794 4,10 C4,12.206 5.794,14 8,14 L8,14 Z M8,8 C9.103,8 10,8.897 10,10 C10,11.103 9.103,12 8,12 C6.897,12 6,11.103 6,10 C6,8.897 6.897,8 8,8 L8,8 Z" id="Shape" fill="#000000"></path>
    </g>
</svg>