<?xml version="1.0" encoding="UTF-8" standalone="no"?>
<svg width="64px" height="64px" viewBox="0 0 64 64" version="1.1" xmlns="http://www.w3.org/2000/svg" xmlns:xlink="http://www.w3.org/1999/xlink">
    <!-- Generator: Sketch 3.7.2 (28276) - http://www.bohemiancoding.com/sketch -->
    <title>img-scale</title>
    <desc>Created with Sketch.</desc>
    <defs></defs>
    <g id="64px-Glyph" stroke="none" stroke-width="1" fill="none" fill-rule="evenodd">
        <g id="img-scale" fill="#000000">
            <path d="M20,24 C21.102,24 22,24.897 22,26 C22,27.102 21.102,28 20,28 C18.897,28 18,27.102 18,26 C18,24.897 18.897,24 20,24 L20,24 Z M24.293,30.293 C24.684,29.902 25.316,29.902 25.707,30.293 L29,33.586 L36.293,26.293 C36.684,25.902 37.316,25.902 37.707,26.293 L48,36.586 L48,21 C48,20.447 47.553,20 47,20 L15,20 C14.447,20 14,20.447 14,21 L14,40.586 L24.293,30.293 Z" id="Fill-92"></path>
            <path d="M37,28.4141 L30.414,35.0001 L31.707,36.2931 C32.098,36.6841 32.098,37.3161 31.707,37.7071 C31.316,38.0981 30.684,38.0981 30.293,37.7071 L25,32.4141 L14.069,43.3451 C14.211,43.7261 14.569,44.0001 15,44.0001 L47,44.0001 C47.553,44.0001 48,43.5531 48,43.0001 L48,39.4141 L37,28.4141 Z" id="Fill-93"></path>
            <path d="M12.707,45.293 C12.316,44.902 11.684,44.902 11.293,45.293 L4,52.586 L4,49 C4,48.447 3.553,48 3,48 C2.447,48 2,48.447 2,49 L2,55 C2,55.13 2.026,55.26 2.077,55.382 C2.178,55.627 2.373,55.822 2.618,55.923 C2.74,55.974 2.87,56 3,56 L9,56 C9.553,56 10,55.553 10,55 C10,54.447 9.553,54 9,54 L5.414,54 L12.707,46.707 C13.098,46.316 13.098,45.684 12.707,45.293" id="Fill-94"></path>
            <path d="M59.923,8.6182 C59.822,8.3732 59.627,8.1782 59.382,8.0772 C59.26,8.0262 59.13,8.0002 59,8.0002 L53,8.0002 C52.447,8.0002 52,8.4472 52,9.0002 C52,9.5532 52.447,10.0002 53,10.0002 L56.586,10.0002 L49.293,17.2932 C48.902,17.6832 48.902,18.3162 49.293,18.7072 C49.488,18.9022 49.744,19.0002 50,19.0002 C50.256,19.0002 50.512,18.9022 50.707,18.7072 L58,11.4142 L58,15.0002 C58,15.5532 58.447,16.0002 59,16.0002 C59.553,16.0002 60,15.5532 60,15.0002 L60,9.0002 C60,8.8702 59.973,8.7402 59.923,8.6182" id="Fill-95"></path>
        </g>
    </g>
</svg>