<?xml version="1.0" encoding="UTF-8" standalone="no"?>
<svg width="64px" height="64px" viewBox="0 0 64 64" version="1.1" xmlns="http://www.w3.org/2000/svg" xmlns:xlink="http://www.w3.org/1999/xlink">
    <!-- Generator: Sketch 3.7.2 (28276) - http://www.bohemiancoding.com/sketch -->
    <title>img-location</title>
    <desc>Created with Sketch.</desc>
    <defs></defs>
    <g id="64px-Glyph" stroke="none" stroke-width="1" fill="none" fill-rule="evenodd">
        <g id="img-location" fill="#000000">
            <path d="M15,14 C17.757,14 20,16.243 20,19 C20,21.757 17.757,24 15,24 C12.243,24 10,21.757 10,19 C10,16.243 12.243,14 15,14 L15,14 Z M39.131,43.863 C38.379,42.335 38,40.702 38,39 C38,36.327 38.96,33.874 40.552,31.966 L35,26.414 L26.414,35 L27.707,36.293 C28.098,36.684 28.098,37.316 27.707,37.707 C27.316,38.098 26.684,38.098 26.293,37.707 L19,30.414 L9.707,39.707 C9.512,39.902 9.256,40 9,40 C8.744,40 8.488,39.902 8.293,39.707 C7.902,39.316 7.902,38.684 8.293,38.293 L18.293,28.293 C18.684,27.902 19.316,27.902 19.707,28.293 L25,33.586 L34.293,24.293 C34.684,23.902 35.316,23.902 35.707,24.293 L41.966,30.552 C43.874,28.96 46.327,28 49,28 C50.801,28 52.498,28.443 54,29.214 L54,9 C54,8.447 53.553,8 53,8 L5,8 C4.447,8 4,8.447 4,9 L4,45 C4,45.553 4.447,46 5,46 L40.191,46 L39.131,43.863 Z" id="Fill-148"></path>
            <path d="M15,22 C16.654,22 18,20.654 18,19 C18,17.346 16.654,16 15,16 C13.346,16 12,17.346 12,19 C12,20.654 13.346,22 15,22" id="Fill-149"></path>
            <path d="M49,42 C47.343,42 46,40.657 46,39 C46,37.343 47.343,36 49,36 C50.657,36 52,37.343 52,39 C52,40.657 50.657,42 49,42 M49,30 C44.037,30 40,34.037 40,39 C40,40.394 40.31,41.73 40.923,42.974 L48.104,57.444 C48.273,57.785 48.62,58 49,58 C49.38,58 49.727,57.785 49.895,57.444 L57.079,42.971 C57.69,41.73 58,40.394 58,39 C58,34.037 53.963,30 49,30" id="Fill-150"></path>
        </g>
    </g>
</svg>