<?xml version="1.0" encoding="UTF-8" standalone="no"?>
<svg width="64px" height="64px" viewBox="0 0 64 64" version="1.1" xmlns="http://www.w3.org/2000/svg" xmlns:xlink="http://www.w3.org/1999/xlink">
    <!-- Generator: Sketch 3.7.2 (28276) - http://www.bohemiancoding.com/sketch -->
    <title>img-phone</title>
    <desc>Created with Sketch.</desc>
    <defs></defs>
    <g id="64px-Glyph" stroke="none" stroke-width="1" fill="none" fill-rule="evenodd">
        <g id="img-phone" fill="#000000">
            <path d="M26.293,32.293 C26.684,31.902 27.316,31.902 27.707,32.293 L32,36.586 L38.293,30.293 C38.684,29.902 39.316,29.902 39.707,30.293 L47.707,38.293 C48.098,38.684 48.098,39.316 47.707,39.707 C47.512,39.902 47.256,40 47,40 C46.744,40 46.488,39.902 46.293,39.707 L39,32.414 L33.414,38 L35.707,40.293 C36.098,40.684 36.098,41.316 35.707,41.707 C35.316,42.098 34.684,42.098 34.293,41.707 L27,34.414 L17.707,43.707 C17.512,43.902 17.256,44 17,44 C16.744,44 16.488,43.902 16.293,43.707 C15.902,43.316 15.902,42.684 16.293,42.293 L26.293,32.293 Z M22,22 C24.206,22 26,23.794 26,26 C26,28.206 24.206,30 22,30 C19.794,30 18,28.206 18,26 C18,23.794 19.794,22 22,22 L22,22 Z M14,48 L50,48 L50,16 L14,16 L14,48 Z" id="Fill-49"></path>
            <path d="M22,28 C23.102,28 24,27.102 24,26 C24,24.897 23.102,24 22,24 C20.897,24 20,24.897 20,26 C20,27.102 20.897,28 22,28" id="Fill-50"></path>
            <path d="M9,34 C8.447,34 8,33.553 8,33 L8,27 C8,26.447 8.447,26 9,26 C9.553,26 10,26.447 10,27 L10,33 C10,33.553 9.553,34 9,34 L9,34 Z M9.7,37.71 C9.52,37.89 9.26,38 9,38 C8.74,38 8.479,37.89 8.29,37.71 C8.109,37.529 8,37.27 8,37 C8,36.739 8.109,36.479 8.29,36.29 C8.66,35.92 9.33,35.92 9.71,36.29 C9.89,36.479 10,36.729 10,37 C10,37.27 9.89,37.529 9.7,37.71 L9.7,37.71 Z M12,16 L8,16 C5.794,16 4,17.794 4,20 L4,44 C4,46.206 5.794,48 8,48 L12,48 L12,16 Z" id="Fill-51"></path>
            <path d="M56,33 C56,33.553 55.553,34 55,34 C54.447,34 54,33.553 54,33 L54,31 C54,30.447 54.447,30 55,30 C55.553,30 56,30.447 56,31 L56,33 Z M56,16 L52,16 L52,48 L56,48 C58.206,48 60,46.206 60,44 L60,20 C60,17.794 58.206,16 56,16 L56,16 Z" id="Fill-52"></path>
        </g>
    </g>
</svg>