<?xml version="1.0" encoding="UTF-8" standalone="no"?>
<svg width="44px" height="44px" viewBox="0 0 44 44" version="1.1" xmlns="http://www.w3.org/2000/svg" xmlns:xlink="http://www.w3.org/1999/xlink">
    <!-- Generator: Sketch 3.7.2 (28276) - http://www.bohemiancoding.com/sketch -->
    <title>img-window</title>
    <desc>Created with Sketch.</desc>
    <defs></defs>
    <g id="44px-Glyph" stroke="none" stroke-width="1" fill="none" fill-rule="evenodd">
        <g id="img-window" fill="#000000">
            <path d="M4.29,6.29 C4.39,6.2 4.49,6.13 4.62,6.08 C4.8,6 5,5.979 5.2,6.02 C5.26,6.029 5.319,6.05 5.38,6.08 C5.439,6.1 5.5,6.13 5.55,6.17 C5.609,6.2 5.66,6.25 5.7,6.29 C5.89,6.479 6,6.739 6,7 C6,7.27 5.899,7.52 5.7,7.71 C5.519,7.899 5.269,8 5,8 C4.87,8 4.74,7.97 4.62,7.92 C4.5,7.87 4.39,7.8 4.29,7.71 C4.2,7.609 4.13,7.5 4.069,7.38 C4.019,7.26 4,7.13 4,7 C4,6.739 4.109,6.479 4.29,6.29 L4.29,6.29 Z M8.29,6.29 C8.34,6.25 8.39,6.2 8.439,6.17 C8.5,6.13 8.56,6.1 8.62,6.08 C8.68,6.05 8.74,6.029 8.81,6.02 C9.13,5.95 9.47,6.06 9.71,6.29 C9.89,6.479 10,6.739 10,7 C10,7.13 9.97,7.26 9.92,7.38 C9.87,7.5 9.8,7.609 9.71,7.71 C9.519,7.899 9.269,8 9,8 C8.729,8 8.479,7.899 8.29,7.71 C8.1,7.52 8,7.27 8,7 C8,6.739 8.109,6.479 8.29,6.29 L8.29,6.29 Z M12.29,6.29 C12.53,6.06 12.88,5.95 13.189,6.02 C13.26,6.029 13.319,6.05 13.38,6.08 C13.439,6.1 13.5,6.13 13.56,6.17 C13.609,6.2 13.66,6.25 13.71,6.29 C13.89,6.479 14,6.739 14,7 C14,7.27 13.899,7.52 13.71,7.71 C13.519,7.899 13.269,8 13,8 C12.729,8 12.479,7.899 12.29,7.71 C12.1,7.52 12,7.27 12,7 C12,6.739 12.109,6.479 12.29,6.29 L12.29,6.29 Z M44,10 L44,6 C44,3.794 42.206,2 40,2 L4,2 C1.794,2 0,3.794 0,6 L0,10 L44,10 Z" id="Fill-40"></path>
            <path d="M10,20 C11.102,20 12,19.102 12,18 C12,16.897 11.102,16 10,16 C8.897,16 8,16.897 8,18 C8,19.102 8.897,20 10,20" id="Fill-41"></path>
            <path d="M39.707,31.707 C39.512,31.902 39.256,32 39,32 C38.744,32 38.488,31.902 38.293,31.707 L29,22.414 L22.414,29 L24.707,31.293 C25.098,31.684 25.098,32.316 24.707,32.707 C24.316,33.098 23.684,33.098 23.293,32.707 L17,26.414 L5.707,37.707 C5.512,37.902 5.256,38 5,38 C4.744,38 4.488,37.902 4.293,37.707 C3.902,37.316 3.902,36.684 4.293,36.293 L16.293,24.293 C16.684,23.902 17.316,23.902 17.707,24.293 L21,27.586 L28.293,20.293 C28.684,19.902 29.316,19.902 29.707,20.293 L39.707,30.293 C40.098,30.684 40.098,31.316 39.707,31.707 L39.707,31.707 Z M10,14 C12.206,14 14,15.794 14,18 C14,20.206 12.206,22 10,22 C7.794,22 6,20.206 6,18 C6,15.794 7.794,14 10,14 L10,14 Z M0,12 L0,38 C0,40.206 1.794,42 4,42 L40,42 C42.206,42 44,40.206 44,38 L44,12 L0,12 Z" id="Fill-42"></path>
        </g>
    </g>
</svg>