<?xml version="1.0" encoding="UTF-8" standalone="no"?>
<svg width="64px" height="64px" viewBox="0 0 64 64" version="1.1" xmlns="http://www.w3.org/2000/svg" xmlns:xlink="http://www.w3.org/1999/xlink">
    <!-- Generator: Sketch 3.7.2 (28276) - http://www.bohemiancoding.com/sketch -->
    <title>img-scale-down</title>
    <desc>Created with Sketch.</desc>
    <defs></defs>
    <g id="64px-Line" stroke="none" stroke-width="1" fill="none" fill-rule="evenodd">
        <g id="img-scale-down"></g>
        <path d="M9,50 C9.256,50 9.512,49.902 9.707,49.707 L19,40.414 L26.293,47.707 C26.684,48.098 27.316,48.098 27.707,47.707 C28.098,47.316 28.098,46.684 27.707,46.293 L25.414,44 L33,36.414 L40.293,43.707 C40.684,44.098 41.316,44.098 41.707,43.707 C42.098,43.316 42.098,42.684 41.707,42.293 L33.707,34.293 C33.316,33.902 32.684,33.902 32.293,34.293 L24,42.586 L19.707,38.293 C19.316,37.902 18.684,37.902 18.293,38.293 L8.293,48.293 C7.902,48.684 7.902,49.316 8.293,49.707 C8.488,49.902 8.744,50 9,50 L9,50 Z" id="Shape" fill="#000000"></path>
        <path d="M5,54 L45,54 L46.5,54 C47.053,54 47.5,53.553 47.5,53 C47.5,52.447 47.053,52 46.5,52 L46,52 L46,25 C46,24.447 45.553,24 45,24 L6,24 L6,23.5 C6,22.947 5.553,22.5 5,22.5 C4.447,22.5 4,22.947 4,23.5 L4,25 L4,53 C4,53.553 4.447,54 5,54 L5,54 Z M44,52 L6,52 L6,26 L44,26 L44,52 L44,52 Z" id="Shape" fill="#000000"></path>
        <path d="M14,36 C16.206,36 18,34.206 18,32 C18,29.794 16.206,28 14,28 C11.794,28 10,29.794 10,32 C10,34.206 11.794,36 14,36 L14,36 Z M14,30 C15.103,30 16,30.897 16,32 C16,33.103 15.103,34 14,34 C12.897,34 12,33.103 12,32 C12,30.897 12.897,30 14,30 L14,30 Z" id="Shape" fill="#000000"></path>
        <path d="M58.293,10.293 L50,18.586 L50,15 C50,14.447 49.553,14 49,14 C48.447,14 48,14.447 48,15 L48,21 C48,21.13 48.026,21.26 48.077,21.382 C48.178,21.627 48.373,21.822 48.618,21.923 C48.74,21.974 48.87,22 49,22 L55,22 C55.553,22 56,21.553 56,21 C56,20.447 55.553,20 55,20 L51.414,20 L59.707,11.707 C60.098,11.316 60.098,10.684 59.707,10.293 C59.316,9.902 58.684,9.902 58.293,10.293 L58.293,10.293 Z" id="Shape" fill="#000000"></path>
        <path d="M59,13.998 C58.447,13.998 58,14.445 58,14.998 L58,16.498 C58,17.051 58.447,17.498 59,17.498 C59.553,17.498 60,17.051 60,16.498 L60,14.998 C60,14.445 59.553,13.998 59,13.998 L59,13.998 Z" id="Shape" fill="#000000"></path>
        <path d="M59,40.954 C58.447,40.954 58,41.401 58,41.954 L58,45.136 C58,45.689 58.447,46.136 59,46.136 C59.553,46.136 60,45.689 60,45.136 L60,41.954 C60,41.401 59.553,40.954 59,40.954 L59,40.954 Z" id="Shape" fill="#000000"></path>
        <path d="M59,31.408 C58.447,31.408 58,31.855 58,32.408 L58,35.59 C58,36.143 58.447,36.59 59,36.59 C59.553,36.59 60,36.143 60,35.59 L60,32.408 C60,31.855 59.553,31.408 59,31.408 L59,31.408 Z" id="Shape" fill="#000000"></path>
        <path d="M59,21.862 C58.447,21.862 58,22.309 58,22.862 L58,26.044 C58,26.597 58.447,27.044 59,27.044 C59.553,27.044 60,26.597 60,26.044 L60,22.862 C60,22.31 59.553,21.862 59,21.862 L59,21.862 Z" id="Shape" fill="#000000"></path>
        <path d="M59,50.5 C58.447,50.5 58,50.947 58,51.5 L58,52 L57.5,52 C56.947,52 56.5,52.447 56.5,53 C56.5,53.553 56.947,54 57.5,54 L59,54 C59.553,54 60,53.553 60,53 L60,51.5 C60,50.947 59.553,50.5 59,50.5 L59,50.5 Z" id="Shape" fill="#000000"></path>
        <path d="M53.1,54 C53.653,54 54.1,53.553 54.1,53 C54.1,52.447 53.653,52 53.1,52 L50.9,52 C50.347,52 49.9,52.447 49.9,53 C49.9,53.553 50.347,54 50.9,54 L53.1,54 L53.1,54 Z" id="Shape" fill="#000000"></path>
        <path d="M5,20.101 C5.553,20.101 6,19.654 6,19.101 L6,16.901 C6,16.348 5.553,15.901 5,15.901 C4.447,15.901 4,16.348 4,16.901 L4,19.101 C4,19.653 4.447,20.101 5,20.101 L5,20.101 Z" id="Shape" fill="#000000"></path>
        <path d="M5,13.5 C5.553,13.5 6,13.053 6,12.5 L6,12 L6.5,12 C7.053,12 7.5,11.553 7.5,11 C7.5,10.447 7.053,10 6.5,10 L5,10 C4.447,10 4,10.447 4,11 L4,12.5 C4,13.053 4.447,13.5 5,13.5 L5,13.5 Z" id="Shape" fill="#000000"></path>
        <path d="M39.677,12 C40.23,12 40.677,11.553 40.677,11 C40.677,10.447 40.23,10 39.677,10 L36.912,10 C36.359,10 35.912,10.447 35.912,11 C35.912,11.553 36.359,12 36.912,12 L39.677,12 L39.677,12 Z" id="Shape" fill="#000000"></path>
        <path d="M31.383,12 C31.936,12 32.383,11.553 32.383,11 C32.383,10.447 31.936,10 31.383,10 L28.618,10 C28.065,10 27.618,10.447 27.618,11 C27.618,11.553 28.065,12 28.618,12 L31.383,12 L31.383,12 Z" id="Shape" fill="#000000"></path>
        <path d="M47.971,12 C48.524,12 48.971,11.553 48.971,11 C48.971,10.447 48.524,10 47.971,10 L45.206,10 C44.653,10 44.206,10.447 44.206,11 C44.206,11.553 44.653,12 45.206,12 L47.971,12 L47.971,12 Z" id="Shape" fill="#000000"></path>
        <path d="M14.794,12 C15.347,12 15.794,11.553 15.794,11 C15.794,10.447 15.347,10 14.794,10 L12.029,10 C11.476,10 11.029,10.447 11.029,11 C11.029,11.553 11.476,12 12.029,12 L14.794,12 L14.794,12 Z" id="Shape" fill="#000000"></path>
        <path d="M23.088,12 C23.641,12 24.088,11.553 24.088,11 C24.088,10.447 23.641,10 23.088,10 L20.323,10 C19.77,10 19.323,10.447 19.323,11 C19.323,11.553 19.77,12 20.323,12 L23.088,12 L23.088,12 Z" id="Shape" fill="#000000"></path>
        <path d="M55,12 C55.553,12 56,11.553 56,11 C56,10.447 55.553,10 55,10 L53.5,10 C52.947,10 52.5,10.447 52.5,11 C52.5,11.553 52.947,12 53.5,12 L55,12 L55,12 Z" id="Shape" fill="#000000"></path>
    </g>
</svg>