<?xml version="1.0" encoding="UTF-8" standalone="no"?>
<svg width="64px" height="64px" viewBox="0 0 64 64" version="1.1" xmlns="http://www.w3.org/2000/svg" xmlns:xlink="http://www.w3.org/1999/xlink">
    <!-- Generator: Sketch 3.7.2 (28276) - http://www.bohemiancoding.com/sketch -->
    <title>img-panoramic</title>
    <desc>Created with Sketch.</desc>
    <defs></defs>
    <g id="64px-Glyph" stroke="none" stroke-width="1" fill="none" fill-rule="evenodd">
        <g id="img-panoramic" fill="#000000">
            <path d="M55.707,37.707 C55.512,37.902 55.256,38 55,38 C54.744,38 54.488,37.902 54.293,37.707 L47,30.414 L41.414,36 L43.707,38.293 C44.098,38.684 44.098,39.316 43.707,39.707 C43.512,39.902 43.256,40 43,40 C42.744,40 42.488,39.902 42.293,39.707 L31,28.414 L22.414,37 L23.707,38.293 C24.098,38.684 24.098,39.316 23.707,39.707 C23.316,40.098 22.684,40.098 22.293,39.707 L17,34.414 L9.707,41.707 C9.512,41.902 9.256,42 9,42 C8.744,42 8.488,41.902 8.293,41.707 C7.902,41.316 7.902,40.684 8.293,40.293 L16.293,32.293 C16.684,31.902 17.316,31.902 17.707,32.293 L21,35.586 L30.293,26.293 C30.684,25.902 31.316,25.902 31.707,26.293 L40,34.586 L46.293,28.293 C46.684,27.902 47.316,27.902 47.707,28.293 L55.707,36.293 C56.098,36.684 56.098,37.316 55.707,37.707 M13,24 C14.654,24 16,25.346 16,27 C16,28.654 14.654,30 13,30 C11.346,30 10,28.654 10,27 C10,25.346 11.346,24 13,24 M59,18 L5,18 C4.447,18 4,18.447 4,19 L4,45 C4,45.553 4.447,46 5,46 L59,46 C59.553,46 60,45.553 60,45 L60,19 C60,18.447 59.553,18 59,18" id="Fill-125"></path>
        </g>
    </g>
</svg>