<?xml version="1.0" encoding="UTF-8" standalone="no"?>
<svg width="64px" height="64px" viewBox="0 0 64 64" version="1.1" xmlns="http://www.w3.org/2000/svg" xmlns:xlink="http://www.w3.org/1999/xlink">
    <!-- Generator: Sketch 3.7.2 (28276) - http://www.bohemiancoding.com/sketch -->
    <title>img-portrait</title>
    <desc>Created with Sketch.</desc>
    <defs></defs>
    <g id="64px-Glyph" stroke="none" stroke-width="1" fill="none" fill-rule="evenodd">
        <g id="img-portrait" fill="#000000">
            <path d="M21,22 C22.654,22 24,20.654 24,19 C24,17.346 22.654,16 21,16 C19.346,16 18,17.346 18,19 C18,20.654 19.346,22 21,22" id="Fill-126"></path>
            <path d="M49.707,47.707 C49.512,47.902 49.256,48 49,48 C48.744,48 48.488,47.902 48.293,47.707 L39,38.414 L31.414,46 L33.707,48.293 C34.098,48.684 34.098,49.316 33.707,49.707 C33.316,50.098 32.684,50.098 32.293,49.707 L25,42.414 L15.707,51.707 C15.512,51.902 15.256,52 15,52 C14.744,52 14.488,51.902 14.293,51.707 C13.902,51.316 13.902,50.684 14.293,50.293 L24.293,40.293 C24.684,39.902 25.316,39.902 25.707,40.293 L30,44.586 L38.293,36.293 C38.684,35.902 39.316,35.902 39.707,36.293 L49.707,46.293 C50.098,46.684 50.098,47.316 49.707,47.707 M21,14 C23.757,14 26,16.243 26,19 C26,21.757 23.757,24 21,24 C18.243,24 16,21.757 16,19 C16,16.243 18.243,14 21,14 M53,6 L11,6 C10.447,6 10,6.447 10,7 L10,59 C10,59.553 10.447,60 11,60 L53,60 C53.553,60 54,59.553 54,59 L54,7 C54,6.447 53.553,6 53,6" id="Fill-127"></path>
        </g>
    </g>
</svg>