<?xml version="1.0" encoding="UTF-8" standalone="no"?>
<svg width="64px" height="64px" viewBox="0 0 64 64" version="1.1" xmlns="http://www.w3.org/2000/svg" xmlns:xlink="http://www.w3.org/1999/xlink">
    <!-- Generator: Sketch 3.7.2 (28276) - http://www.bohemiancoding.com/sketch -->
    <title>img-save</title>
    <desc>Created with Sketch.</desc>
    <defs></defs>
    <g id="64px-Line" stroke="none" stroke-width="1" fill="none" fill-rule="evenodd">
        <g id="img-save"></g>
        <path d="M23,46 L14,46 L14,30 L36,30 L36,33 C36,33.553 36.447,34 37,34 C37.553,34 38,33.553 38,33 L38,29 C38,28.447 37.553,28 37,28 L13,28 C12.447,28 12,28.447 12,29 L12,46 L7,46 C6.448,46 6,45.552 6,45 L6,9 C6,8.448 6.448,8 7,8 L14,8 L14,21 C14,21.553 14.447,22 15,22 L33,22 C33.553,22 34,21.553 34,21 L34,8.078 C34.549,8.201 35.056,8.471 35.465,8.879 L43.121,16.535 C43.687,17.101 44,17.855 44,18.657 L44,33.004 C44,33.557 44.447,34.004 45,34.004 C45.553,34.004 46,33.557 46,33.004 L46,18.657 C46,17.321 45.479,16.065 44.535,15.121 L36.879,7.464 C35.933,6.521 34.678,6 33.343,6 L7,6 C5.346,6 4,7.346 4,9 L4,45 C4,46.654 5.346,48 7,48 L23,48 C23.553,48 24,47.553 24,47 C24,46.447 23.553,46 23,46 L23,46 Z M16,20 L16,8 L32,8 L32,20 L16,20 L16,20 Z" id="Shape" fill="#000000"></path>
        <path d="M57,36 L27,36 C26.447,36 26,36.447 26,37 L26,59 C26,59.13 26.026,59.26 26.077,59.382 C26.178,59.627 26.373,59.822 26.618,59.923 C26.74,59.974 26.87,60 27,60 L57,60 C57.553,60 58,59.553 58,59 L58,37 C58,36.447 57.553,36 57,36 L57,36 Z M56,38 L56,50.586 L49.707,44.293 C49.316,43.902 48.684,43.902 48.293,44.293 L42,50.586 L38.707,47.293 C38.316,46.902 37.684,46.902 37.293,47.293 L28,56.586 L28,38 L56,38 L56,38 Z M29.414,58 L38,49.414 L44.293,55.707 C44.684,56.098 45.316,56.098 45.707,55.707 C46.098,55.316 46.098,54.684 45.707,54.293 L43.414,52 L49,46.414 L56,53.414 L56,58 L29.414,58 L29.414,58 Z" id="Shape" fill="#000000"></path>
        <path d="M33.5,47 C35.43,47 37,45.43 37,43.5 C37,41.57 35.43,40 33.5,40 C31.57,40 30,41.57 30,43.5 C30,45.43 31.57,47 33.5,47 L33.5,47 Z M33.5,42 C34.327,42 35,42.673 35,43.5 C35,44.327 34.327,45 33.5,45 C32.673,45 32,44.327 32,43.5 C32,42.673 32.673,42 33.5,42 L33.5,42 Z" id="Shape" fill="#000000"></path>
    </g>
</svg>