<?xml version="1.0" encoding="UTF-8" standalone="no"?>
<svg width="64px" height="64px" viewBox="0 0 64 64" version="1.1" xmlns="http://www.w3.org/2000/svg" xmlns:xlink="http://www.w3.org/1999/xlink">
    <!-- Generator: Sketch 3.7.2 (28276) - http://www.bohemiancoding.com/sketch -->
    <title>img-ios-frame</title>
    <desc>Created with Sketch.</desc>
    <defs></defs>
    <g id="64px-Glyph" stroke="none" stroke-width="1" fill="none" fill-rule="evenodd">
        <g id="img-ios-frame" fill="#000000">
            <path d="M41.6572,28 L40.0002,28 C38.4672,28 37.1482,28.876 36.4772,30.146 C37.8492,30.568 39.4012,30.256 40.4852,29.172 L41.6572,28 Z" id="Fill-183"></path>
            <path d="M38,24 C38,24.933 37.78,25.814 37.398,26.602 C38.187,26.22 39.067,26 40,26 L43.594,26 C44.847,24.43 44.766,22.138 43.313,20.685 C42.534,19.906 41.51,19.517 40.485,19.517 C39.601,19.517 38.727,19.825 38,20.406 L38,24 Z" id="Fill-184"></path>
            <path d="M41.6572,36 L40.4852,34.828 C39.7052,34.049 38.6802,33.658 37.6572,33.658 C37.2572,33.658 36.8622,33.736 36.4772,33.854 C37.1482,35.124 38.4662,36 40.0002,36 L41.6572,36 Z" id="Fill-185"></path>
            <path d="M22.3428,28 L23.5148,29.172 C24.5988,30.256 26.1508,30.567 27.5228,30.145 C26.8518,28.876 25.5328,28 23.9998,28 L22.3428,28 Z" id="Fill-186"></path>
            <path d="M22.3428,36 L23.9998,36 C25.5338,36 26.8518,35.124 27.5228,33.854 C27.1378,33.736 26.7428,33.658 26.3438,33.658 C25.3198,33.658 24.2948,34.048 23.5148,34.828 L22.3428,36 Z" id="Fill-187"></path>
            <path d="M30.1456,27.5229 C30.5686,26.1509 30.2556,24.5989 29.1716,23.5149 L27.9996,22.3429 L27.9996,23.9999 C27.9996,25.5329 28.8766,26.8519 30.1456,27.5229" id="Fill-188"></path>
            <path d="M33.4141,30.5859 C33.2101,30.3809 33.0461,30.1529 32.8771,29.9279 C32.5901,29.9709 32.2991,29.9999 32.0001,29.9999 C31.7011,29.9999 31.4101,29.9709 31.1221,29.9279 C30.9541,30.1529 30.7901,30.3809 30.5861,30.5859 C30.3811,30.7909 30.1531,30.9539 29.9281,31.1229 C29.9711,31.4099 30.0001,31.7009 30.0001,31.9999 C30.0001,32.2989 29.9711,32.5899 29.9281,32.8779 C30.1531,33.0459 30.3811,33.2099 30.5861,33.4139 C30.7901,33.6189 30.9541,33.8469 31.1221,34.0719 C31.4101,34.0289 31.7011,33.9999 32.0001,33.9999 C32.2991,33.9999 32.5901,34.0289 32.8771,34.0719 C33.0461,33.8469 33.2101,33.6189 33.4141,33.4139 C33.6181,33.2099 33.8461,33.0459 34.0711,32.8769 C34.0291,32.5899 34.0001,32.2989 34.0001,31.9999 C34.0001,31.7009 34.0291,31.4099 34.0711,31.1229 C33.8461,30.9539 33.6181,30.7909 33.4141,30.5859" id="Fill-189"></path>
            <path d="M33.8544,36.4771 C33.4314,37.8491 33.7444,39.4011 34.8284,40.4851 L36.0004,41.6571 L36.0004,40.0001 C36.0004,38.4671 35.1234,37.1481 33.8544,36.4771" id="Fill-190"></path>
            <path d="M36,24 L36,22.343 L34.828,23.515 C33.744,24.599 33.432,26.151 33.854,27.523 C35.124,26.852 36,25.533 36,24" id="Fill-191"></path>
            <path d="M28,40 L28,41.657 L29.172,40.485 C30.256,39.401 30.568,37.849 30.146,36.477 C28.876,37.148 28,38.467 28,40" id="Fill-192"></path>
            <path d="M44.4408,28.0444 L41.8998,30.5864 C41.2278,31.2574 40.4288,31.7134 39.5848,32.0004 C40.4288,32.2864 41.2278,32.7424 41.8998,33.4144 L44.4408,35.9554 C46.4368,35.7334 47.9998,34.0554 47.9998,32.0004 C47.9998,29.9444 46.4368,28.2674 44.4408,28.0444" id="Fill-193"></path>
            <path d="M33.4141,41.8994 C32.7421,41.2274 32.2861,40.4284 32.0001,39.5834 C31.7141,40.4284 31.2581,41.2274 30.5861,41.8994 L28.0441,44.4404 C28.2671,46.4374 29.9451,48.0004 32.0001,48.0004 C34.0551,48.0004 35.7331,46.4374 35.9551,44.4404 L33.4141,41.8994 Z" id="Fill-194"></path>
            <path d="M30.5859,22.1006 C31.2579,22.7726 31.7139,23.5716 31.9999,24.4166 C32.2859,23.5716 32.7419,22.7726 33.4139,22.1006 L35.9559,19.5596 C35.7329,17.5626 34.0549,15.9996 31.9999,15.9996 C29.9449,15.9996 28.2669,17.5626 28.0449,19.5596 L30.5859,22.1006 Z" id="Fill-195"></path>
            <path d="M45.7827,37.7295 C46.9547,39.9895 46.6217,42.8345 44.7277,44.7285 C43.5587,45.8975 42.0227,46.4825 40.4857,46.4825 C39.5337,46.4825 38.5937,46.2305 37.7297,45.7825 C36.9687,48.2235 34.6877,50.0005 31.9997,50.0005 C29.3117,50.0005 27.0317,48.2235 26.2707,45.7835 C25.4067,46.2315 24.4657,46.4835 23.5147,46.4835 C21.9787,46.4835 20.4427,45.8985 19.2727,44.7285 C17.3787,42.8345 17.0447,39.9895 18.2177,37.7295 C15.7767,36.9685 13.9997,34.6875 13.9997,32.0005 C13.9997,29.3125 15.7767,27.0315 18.2177,26.2705 C17.0447,24.0105 17.3787,21.1655 19.2727,19.2715 C21.1637,17.3785 24.0087,17.0435 26.2707,18.2165 C27.0317,15.7765 29.3117,14.0005 31.9997,14.0005 C34.6877,14.0005 36.9687,15.7765 37.7297,18.2175 C39.9907,17.0435 42.8357,17.3775 44.7277,19.2715 C46.6207,21.1645 46.9547,24.0095 45.7827,26.2695 C48.2237,27.0315 49.9997,29.3115 49.9997,32.0005 C49.9997,34.6875 48.2237,36.9685 45.7827,37.7295 M60.9997,10.0005 L2.9997,10.0005 C2.4477,10.0005 1.9997,10.4475 1.9997,11.0005 L1.9997,53.0005 C1.9997,53.5525 2.4477,54.0005 2.9997,54.0005 L60.9997,54.0005 C61.5527,54.0005 61.9997,53.5525 61.9997,53.0005 L61.9997,11.0005 C61.9997,10.4475 61.5527,10.0005 60.9997,10.0005" id="Fill-196"></path>
            <path d="M40,38 C39.067,38 38.187,37.78 37.398,37.398 C37.78,38.186 38,39.067 38,40 L38,43.594 C39.571,44.848 41.862,44.767 43.313,43.315 C44.766,41.862 44.848,39.569 43.594,38 L40,38 Z" id="Fill-197"></path>
            <path d="M26,40 C26,39.067 26.22,38.186 26.602,37.398 C25.813,37.78 24.933,38 24,38 L20.406,38 C19.152,39.569 19.234,41.862 20.686,43.315 C22.138,44.767 24.431,44.848 26,43.594 L26,40 Z" id="Fill-198"></path>
            <path d="M24,26 C24.933,26 25.813,26.22 26.602,26.602 C26.22,25.814 26,24.933 26,24 L26,20.406 C25.273,19.825 24.398,19.517 23.515,19.517 C22.49,19.517 21.466,19.906 20.686,20.685 C19.234,22.138 19.152,24.431 20.406,26 L24,26 Z" id="Fill-199"></path>
            <path d="M22.1006,33.4141 C22.7726,32.7421 23.5706,32.2861 24.4146,32.0001 C23.5706,31.7141 22.7726,31.2581 22.1006,30.5861 L19.5596,28.0441 C17.5626,28.2671 15.9996,29.9451 15.9996,32.0001 C15.9996,34.0551 17.5626,35.7331 19.5596,35.9561 L22.1006,33.4141 Z" id="Fill-200"></path>
        </g>
    </g>
</svg>