<?xml version="1.0" encoding="UTF-8" standalone="no"?>
<svg width="64px" height="64px" viewBox="0 0 64 64" version="1.1" xmlns="http://www.w3.org/2000/svg" xmlns:xlink="http://www.w3.org/1999/xlink">
    <!-- Generator: Sketch 3.7.2 (28276) - http://www.bohemiancoding.com/sketch -->
    <title>img-perspective-2</title>
    <desc>Created with Sketch.</desc>
    <defs></defs>
    <g id="64px-Glyph" stroke="none" stroke-width="1" fill="none" fill-rule="evenodd">
        <g id="img-perspective-2" fill="#000000">
            <path d="M17,26 C18.654,26 20,24.206 20,22 C20,19.794 18.654,18 17,18 C15.346,18 14,19.794 14,22 C14,24.206 15.346,26 17,26" id="Fill-75"></path>
            <path d="M51.707,39.707 C51.316,40.098 50.684,40.098 50.293,39.707 L41,30.414 L31.414,40 L33.707,42.293 C34.098,42.684 34.098,43.316 33.707,43.707 C33.316,44.098 32.684,44.098 32.293,43.707 L25,36.414 L11.707,49.707 C11.512,49.902 11.256,50 11,50 C10.744,50 10.488,49.902 10.293,49.707 C9.902,49.316 9.902,48.684 10.293,48.293 L24.293,34.293 C24.684,33.902 25.316,33.902 25.707,34.293 L30,38.586 L40.293,28.293 C40.684,27.902 41.316,27.902 41.707,28.293 L51.707,38.293 C52.098,38.684 52.098,39.316 51.707,39.707 M17,16 C19.757,16 22,18.691 22,22 C22,25.309 19.757,28 17,28 C14.243,28 12,25.309 12,22 C12,18.691 14.243,16 17,16 M55.242,18.03 L7.242,6.03 C6.945,5.955 6.628,6.023 6.385,6.212 C6.142,6.401 6,6.692 6,7 L6,59 C6,59.308 6.142,59.599 6.385,59.788 C6.563,59.927 6.779,60 7,60 C7.081,60 7.162,59.99 7.242,59.97 L55.242,47.97 C55.688,47.858 56,47.459 56,47 L56,19 C56,18.541 55.688,18.142 55.242,18.03" id="Fill-76"></path>
        </g>
    </g>
</svg>