<?xml version="1.0" encoding="UTF-8" standalone="no"?>
<svg width="44px" height="44px" viewBox="0 0 44 44" version="1.1" xmlns="http://www.w3.org/2000/svg" xmlns:xlink="http://www.w3.org/1999/xlink">
    <!-- Generator: Sketch 3.7.2 (28276) - http://www.bohemiancoding.com/sketch -->
    <title>img-cd</title>
    <desc>Created with Sketch.</desc>
    <defs></defs>
    <g id="44px-Line" stroke="none" stroke-width="1" fill="none" fill-rule="evenodd">
        <g id="img-cd"></g>
        <path d="M17.047,33.905 C8.609,33.511 2,26.524 2,18 C2,9.178 9.178,2 18,2 C26.822,2 34,9.178 34,18 C34,18.861 33.9,19.749 33.688,20.794 C33.578,21.335 33.926,21.863 34.467,21.974 C35.008,22.082 35.536,21.736 35.647,21.195 C35.888,20.015 36.001,19 36.001,18.001 C36.001,8.076 27.926,0.001 18.001,0.001 C8.076,0.001 0.001,8.076 0.001,18.001 C0.001,27.596 7.447,35.459 16.954,35.904 C16.97,35.905 16.986,35.905 17.002,35.905 C17.532,35.905 17.975,35.487 18,34.952 C18.024,34.399 17.599,33.932 17.047,33.905 L17.047,33.905 Z" id="Shape" fill="#000000"></path>
        <path d="M13.962,17.962 C13.962,20.168 15.756,21.962 17.962,21.962 C20.168,21.962 21.962,20.168 21.962,17.962 C21.962,15.756 20.168,13.962 17.962,13.962 C15.756,13.962 13.962,15.756 13.962,17.962 L13.962,17.962 Z M19.962,17.962 C19.962,19.065 19.065,19.962 17.962,19.962 C16.859,19.962 15.962,19.065 15.962,17.962 C15.962,16.859 16.859,15.962 17.962,15.962 C19.065,15.962 19.962,16.859 19.962,17.962 L19.962,17.962 Z" id="Shape" fill="#000000"></path>
        <path d="M23.897,21.903 C24.398,22.138 24.993,21.927 25.229,21.428 C25.741,20.351 26,19.198 26,17.999 C26,13.588 22.411,9.999 18,9.999 C13.589,9.999 10,13.588 10,17.999 C10,21.957 12.951,25.361 16.864,25.919 C16.912,25.926 16.959,25.929 17.006,25.929 C17.496,25.929 17.924,25.569 17.995,25.07 C18.073,24.523 17.692,24.017 17.145,23.939 C14.212,23.521 12,20.969 12,18 C12,14.691 14.691,12 18,12 C21.309,12 24,14.691 24,18 C24,18.899 23.806,19.765 23.423,20.571 C23.186,21.07 23.398,21.666 23.897,21.903 L23.897,21.903 Z" id="Shape" fill="#000000"></path>
        <path d="M17.08,4.994 C17,4.448 16.506,4.061 15.945,4.15 C9.912,5.037 5.064,9.869 4.156,15.9 C4.074,16.446 4.45,16.955 4.997,17.038 C5.047,17.045 5.098,17.049 5.146,17.049 C5.632,17.049 6.059,16.694 6.134,16.197 C6.911,11.029 11.066,6.889 16.236,6.129 C16.783,6.049 17.16,5.541 17.08,4.994 L17.08,4.994 Z" id="Shape" fill="#000000"></path>
        <path d="M43,24 L21,24 C20.447,24 20,24.447 20,25 L20,43 C20,43.01 20.006,43.019 20.006,43.029 C20.008,43.102 20.031,43.171 20.049,43.242 C20.063,43.298 20.068,43.357 20.092,43.409 C20.114,43.457 20.152,43.497 20.181,43.542 C20.224,43.607 20.263,43.673 20.32,43.726 C20.327,43.732 20.329,43.741 20.336,43.747 C20.382,43.789 20.438,43.809 20.489,43.84 C20.537,43.869 20.579,43.905 20.631,43.926 C20.75,43.973 20.875,44 21,44 L43,44 C43.553,44 44,43.553 44,43 L44,25 C44,24.447 43.553,24 43,24 L43,24 Z M42,26 L42,35.586 L37.707,31.293 C37.316,30.902 36.684,30.902 36.293,31.293 L32,35.586 L29.707,33.293 C29.513,33.099 29.248,33.001 28.971,33 C28.696,33.009 28.436,33.13 28.253,33.336 L22,40.371 L22,26 L42,26 L42,26 Z M23.226,42 L29.043,35.457 L33.293,39.707 C33.684,40.098 34.316,40.098 34.707,39.707 C35.098,39.316 35.098,38.684 34.707,38.293 L33.414,37 L37,33.414 L42,38.414 L42,42 L23.226,42 L23.226,42 Z" id="Shape" fill="#000000"></path>
        <circle id="Oval" fill="#000000" cx="26" cy="30" r="2"></circle>
    </g>
</svg>