<?xml version="1.0" encoding="UTF-8" standalone="no"?>
<svg width="64px" height="64px" viewBox="0 0 64 64" version="1.1" xmlns="http://www.w3.org/2000/svg" xmlns:xlink="http://www.w3.org/1999/xlink">
    <!-- Generator: Sketch 3.7.2 (28276) - http://www.bohemiancoding.com/sketch -->
    <title>img-flip-2</title>
    <desc>Created with Sketch.</desc>
    <defs></defs>
    <g id="64px-Glyph" stroke="none" stroke-width="1" fill="none" fill-rule="evenodd">
        <g id="img-flip-2" fill="#000000">
            <path d="M39.707,45.707 C39.316,46.098 38.684,46.098 38.293,45.707 L31,38.414 L23.414,46 L25.707,48.293 C26.098,48.684 26.098,49.316 25.707,49.707 C25.512,49.902 25.256,50 25,50 C24.744,50 24.488,49.902 24.293,49.707 L17,42.414 L9.707,49.707 C9.316,50.098 8.684,50.098 8.293,49.707 C7.902,49.316 7.902,48.684 8.293,48.293 L16.293,40.293 C16.684,39.902 17.316,39.902 17.707,40.293 L22,44.586 L30.293,36.293 C30.684,35.902 31.316,35.902 31.707,36.293 L39.707,44.293 C40.098,44.684 40.098,45.316 39.707,45.707 M15,14 C17.757,14 20,16.243 20,19 C20,21.757 17.757,24 15,24 C12.243,24 10,21.757 10,19 C10,16.243 12.243,14 15,14 M43,10 L5,10 C4.447,10 4,10.447 4,11 L4,57 C4,57.553 4.447,58 5,58 L43,58 C43.553,58 44,57.553 44,57 L44,11 C44,10.447 43.553,10 43,10" id="Fill-43"></path>
            <path d="M15,22 C16.654,22 18,20.654 18,19 C18,17.346 16.654,16 15,16 C13.346,16 12,17.346 12,19 C12,20.654 13.346,22 15,22" id="Fill-44"></path>
            <path d="M55,10 C51.841,10 50.655,20.609 50.229,26.934 C50.192,27.485 50.609,27.962 51.16,27.999 C51.728,28.018 52.188,27.619 52.226,27.068 C52.82,18.221 54.185,13.115 55.02,12.102 C56.263,13.456 58,22.37 58,34 C58,45.692 56.243,54.641 55,55.92 C53.845,54.731 52.249,46.919 52.028,36.442 L54.293,38.707 C54.488,38.902 54.744,39 55,39 C55.256,39 55.512,38.902 55.707,38.707 C56.098,38.316 56.098,37.684 55.707,37.293 L51.708,33.294 C51.616,33.202 51.505,33.128 51.382,33.077 C51.137,32.976 50.862,32.976 50.618,33.077 C50.495,33.128 50.384,33.202 50.292,33.294 L46.293,37.293 C45.902,37.684 45.902,38.316 46.293,38.707 C46.684,39.098 47.316,39.098 47.707,38.707 L50.047,36.368 C50.223,42.422 51.061,58 55,58 C59.864,58 60,34.24 60,34 C60,33.76 59.864,10 55,10" id="Fill-45"></path>
        </g>
    </g>
</svg>