<?xml version="1.0" encoding="UTF-8" standalone="no"?>
<svg width="44px" height="44px" viewBox="0 0 44 44" version="1.1" xmlns="http://www.w3.org/2000/svg" xmlns:xlink="http://www.w3.org/1999/xlink">
    <!-- Generator: Sketch 3.7.2 (28276) - http://www.bohemiancoding.com/sketch -->
    <title>img</title>
    <desc>Created with Sketch.</desc>
    <defs></defs>
    <g id="44px-Glyph" stroke="none" stroke-width="1" fill="none" fill-rule="evenodd">
        <g id="img" fill="#000000">
            <path d="M11,18 C12.654,18 14,16.654 14,15 C14,13.346 12.654,12 11,12 C9.346,12 8,13.346 8,15 C8,16.654 9.346,18 11,18" id="Fill-182"></path>
            <path d="M39.707,29.707 C39.512,29.902 39.256,30 39,30 C38.744,30 38.488,29.902 38.293,29.707 L29,20.414 L22.414,27 L25.707,30.293 C26.098,30.684 26.098,31.316 25.707,31.707 C25.316,32.098 24.684,32.098 24.293,31.707 L17,24.414 L5.707,35.707 C5.512,35.902 5.256,36 5,36 C4.744,36 4.488,35.902 4.293,35.707 C3.902,35.316 3.902,34.684 4.293,34.293 L16.293,22.293 C16.684,21.902 17.316,21.902 17.707,22.293 L21,25.586 L28.293,18.293 C28.684,17.902 29.316,17.902 29.707,18.293 L39.707,28.293 C40.098,28.684 40.098,29.316 39.707,29.707 M11,10 C13.757,10 16,12.243 16,15 C16,17.757 13.757,20 11,20 C8.243,20 6,17.757 6,15 C6,12.243 8.243,10 11,10 M43,4 L1,4 C0.448,4 0,4.447 0,5 L0,39 C0,39.553 0.448,40 1,40 L43,40 C43.552,40 44,39.553 44,39 L44,5 C44,4.447 43.552,4 43,4" id="Fill-183"></path>
        </g>
    </g>
</svg>