<?xml version="1.0" encoding="UTF-8" standalone="no"?>
<svg width="64px" height="64px" viewBox="0 0 64 64" version="1.1" xmlns="http://www.w3.org/2000/svg" xmlns:xlink="http://www.w3.org/1999/xlink">
    <!-- Generator: Sketch 3.7.2 (28276) - http://www.bohemiancoding.com/sketch -->
    <title>ios-playlists</title>
    <desc>Created with Sketch.</desc>
    <defs></defs>
    <g id="64px-Line" stroke="none" stroke-width="1" fill="none" fill-rule="evenodd">
        <g id="ios-playlists"></g>
        <path d="M8,56 L54,56 L54,10 L8,10 L8,56 L8,56 Z M10,12 L52,12 L52,54 L10,54 L10,12 L10,12 Z" id="Shape" fill="#000000"></path>
        <rect id="Rectangle-path" fill="#000000" x="14" y="22" width="18" height="2"></rect>
        <rect id="Rectangle-path" fill="#000000" x="14" y="28" width="18" height="2"></rect>
        <rect id="Rectangle-path" fill="#000000" x="14" y="34" width="18" height="2"></rect>
        <path d="M36,38.5 C36,39.878 34.878,41 33.5,41 L31,41 L31,41.019 C28.201,41.226 26,43.157 26,45.5 C26,48.107 28.103,50 31,50 C34.925,50 38,48.023 38,45.5 L38,24.22 L48,26.22 L48,18.18 L36,15.78 L36,38.5 L36,38.5 Z" id="Shape" fill="#000000"></path>
    </g>
</svg>