<?xml version="1.0" encoding="UTF-8" standalone="no"?>
<svg width="44px" height="44px" viewBox="0 0 44 44" version="1.1" xmlns="http://www.w3.org/2000/svg" xmlns:xlink="http://www.w3.org/1999/xlink">
    <!-- Generator: Sketch 3.7.2 (28276) - http://www.bohemiancoding.com/sketch -->
    <title>ios-world-times</title>
    <desc>Created with Sketch.</desc>
    <defs></defs>
    <g id="44px-Line" stroke="none" stroke-width="1" fill="none" fill-rule="evenodd">
        <g id="ios-world-times"></g>
        <path d="M21,2 C9.42,2 0,11.42 0,23 C0,34.579 9.42,44 21,44 C32.58,44 42,34.579 42,23 C42,11.42 32.58,2 21,2 L21,2 Z M20,10.978 C18.051,10.933 16.143,10.757 14.317,10.457 C15.765,7.035 17.771,4.68 20,4.132 L20,10.978 L20,10.978 Z M20,12.977 L20,22 L12.025,22 C12.117,18.47 12.681,15.158 13.597,12.364 C15.65,12.721 17.803,12.928 20,12.977 L20,12.977 Z M20,24 L20,33.023 C17.804,33.072 15.65,33.279 13.597,33.637 C12.681,30.842 12.117,27.53 12.025,24 L20,24 L20,24 Z M20,35.022 L20,41.868 C17.771,41.32 15.766,38.965 14.317,35.543 C16.143,35.244 18.051,35.068 20,35.022 L20,35.022 Z M22,35.022 C23.949,35.067 25.857,35.243 27.683,35.543 C26.235,38.965 24.229,41.32 22,41.868 L22,35.022 L22,35.022 Z M22,33.023 L22,24 L29.975,24 C29.883,27.53 29.319,30.842 28.403,33.637 C26.35,33.279 24.196,33.072 22,33.023 L22,33.023 Z M22,22 L22,12.977 C24.197,12.928 26.35,12.721 28.403,12.363 C29.318,15.158 29.883,18.47 29.975,21.999 L22,21.999 L22,22 Z M22,10.978 L22,4.132 C24.229,4.68 26.234,7.035 27.683,10.457 C25.857,10.756 23.949,10.932 22,10.978 L22,10.978 Z M26.581,4.84 C29.259,5.665 31.673,7.08 33.704,8.914 C32.459,9.374 31.116,9.756 29.712,10.068 C28.859,7.958 27.799,6.184 26.581,4.84 L26.581,4.84 Z M12.287,10.067 C10.883,9.755 9.54,9.373 8.295,8.913 C10.326,7.08 12.74,5.664 15.418,4.84 C14.201,6.184 13.141,7.958 12.287,10.067 L12.287,10.067 Z M11.607,11.964 C10.675,14.891 10.113,18.304 10.026,22 L2.051,22 C2.283,17.584 4.019,13.57 6.768,10.455 C8.261,11.062 9.884,11.569 11.607,11.964 L11.607,11.964 Z M10.026,24 C10.113,27.696 10.676,31.109 11.608,34.036 C9.885,34.432 8.262,34.939 6.769,35.545 C4.019,32.43 2.283,28.415 2.051,24 L10.026,24 L10.026,24 Z M12.288,35.933 C13.142,38.042 14.202,39.816 15.419,41.161 C12.741,40.336 10.326,38.921 8.295,37.087 C9.541,36.627 10.883,36.245 12.288,35.933 L12.288,35.933 Z M29.712,35.933 C31.116,36.245 32.459,36.627 33.705,37.087 C31.674,38.921 29.26,40.336 26.581,41.161 C27.799,39.816 28.859,38.042 29.712,35.933 L29.712,35.933 Z M30.393,34.036 C31.325,31.109 31.887,27.696 31.975,24 L39.95,24 C39.718,28.416 37.982,32.43 35.232,35.545 C33.738,34.939 32.116,34.432 30.393,34.036 L30.393,34.036 Z M31.974,22 C31.887,18.304 31.324,14.891 30.392,11.964 C32.115,11.568 33.738,11.061 35.231,10.454 C37.981,13.569 39.717,17.584 39.949,21.999 L31.974,21.999 L31.974,22 Z" id="Shape" fill="#000000"></path>
    </g>
</svg>