<?xml version="1.0" encoding="UTF-8" standalone="no"?>
<svg width="44px" height="44px" viewBox="0 0 44 44" version="1.1" xmlns="http://www.w3.org/2000/svg" xmlns:xlink="http://www.w3.org/1999/xlink">
    <!-- Generator: Sketch 3.7.2 (28276) - http://www.bohemiancoding.com/sketch -->
    <title>ios-stop-watch</title>
    <desc>Created with Sketch.</desc>
    <defs></defs>
    <g id="44px-Line" stroke="none" stroke-width="1" fill="none" fill-rule="evenodd">
        <g id="ios-stop-watch"></g>
        <path d="M23,4.107 L23,0 L19,0 L19,4.107 C9.46,5.11 2,13.199 2,23 C2,33.477 10.523,42 21,42 C31.477,42 40,33.477 40,23 C40,13.199 32.54,5.11 23,4.107 L23,4.107 Z M21,40 C11.626,40 4,32.374 4,23 C4,13.626 11.626,6 21,6 C30.374,6 38,13.626 38,23 C38,32.374 30.374,40 21,40 L21,40 Z" id="Shape" fill="#000000"></path>
        <path d="M22,20.184 L22,10 L20,10 L20,20.184 C18.839,20.598 18,21.698 18,23 C18,24.302 18.839,25.402 20,25.816 L20,30 L22,30 L22,25.816 C23.161,25.402 24,24.302 24,23 C24,21.698 23.161,20.598 22,20.184 L22,20.184 Z" id="Shape" fill="#000000"></path>
        <polygon id="Shape" fill="#000000" points="35.293 5.465 36.707 6.879 35.293 8.293 36.707 9.707 38.121 8.293 39.536 9.707 41.657 7.586 37.414 3.344"></polygon>
    </g>
</svg>