<?xml version="1.0" encoding="UTF-8" standalone="no"?>
<svg width="44px" height="44px" viewBox="0 0 44 44" version="1.1" xmlns="http://www.w3.org/2000/svg" xmlns:xlink="http://www.w3.org/1999/xlink">
    <!-- Generator: Sketch 3.7.2 (28276) - http://www.bohemiancoding.com/sketch -->
    <title>ios-search</title>
    <desc>Created with Sketch.</desc>
    <defs></defs>
    <g id="44px-Line" stroke="none" stroke-width="1" fill="none" fill-rule="evenodd">
        <g id="ios-search"></g>
        <path d="M34,17 C34,7.626 26.374,0 17,0 C7.626,0 0,7.626 0,17 C0,26.374 7.626,34 17,34 C20.995,34 24.665,32.606 27.57,30.291 L41.294,44.014 L44.015,41.295 L30.29,27.571 C32.606,24.666 34,20.996 34,17 L34,17 Z M2,17 C2,8.729 8.729,2 17,2 C25.271,2 32,8.729 32,17 C32,20.984 30.428,24.601 27.885,27.29 L27.288,27.887 C24.599,30.429 20.983,32 17,32 C8.729,32 2,25.271 2,17 L2,17 Z" id="Shape" fill="#000000"></path>
    </g>
</svg>