<?xml version="1.0" encoding="UTF-8" standalone="no"?>
<svg width="64px" height="64px" viewBox="0 0 64 64" version="1.1" xmlns="http://www.w3.org/2000/svg" xmlns:xlink="http://www.w3.org/1999/xlink">
    <!-- Generator: Sketch 3.7.2 (28276) - http://www.bohemiancoding.com/sketch -->
    <title>ios-messages</title>
    <desc>Created with Sketch.</desc>
    <defs></defs>
    <g id="64px-Line" stroke="none" stroke-width="1" fill="none" fill-rule="evenodd">
        <g id="ios-messages"></g>
        <path d="M14,46.002 L48,46.002 C55.72,46.002 62,39.722 62,32.002 C62,24.282 55.72,18.002 48,18.002 C40.28,18.002 34,24.282 34,32.002 C34,37.098 36.745,41.553 40.826,44.002 L21.174,44.002 C25.255,41.553 28,37.098 28,32.002 C28,24.282 21.72,18.002 14,18.002 C6.28,18.002 0,24.282 0,32.002 C0,39.722 6.28,46.002 14,46.002 L14,46.002 Z M36,32.002 C36,25.385 41.383,20.002 48,20.002 C54.617,20.002 60,25.385 60,32.002 C60,38.619 54.617,44.002 48,44.002 C41.383,44.002 36,38.619 36,32.002 L36,32.002 Z M14,20.002 C20.617,20.002 26,25.385 26,32.002 C26,38.619 20.617,44.002 14,44.002 C7.383,44.002 2,38.619 2,32.002 C2,25.385 7.383,20.002 14,20.002 L14,20.002 Z" id="Shape" fill="#000000"></path>
    </g>
</svg>