<?xml version="1.0" encoding="UTF-8" standalone="no"?>
<svg width="64px" height="64px" viewBox="0 0 64 64" version="1.1" xmlns="http://www.w3.org/2000/svg" xmlns:xlink="http://www.w3.org/1999/xlink">
    <!-- Generator: Sketch 3.7.2 (28276) - http://www.bohemiancoding.com/sketch -->
    <title>ios-near</title>
    <desc>Created with Sketch.</desc>
    <defs></defs>
    <g id="64px-Line" stroke="none" stroke-width="1" fill="none" fill-rule="evenodd">
        <g id="ios-near"></g>
        <path d="M31,56 C44.785,56 56,44.785 56,31 C56,17.215 44.785,6 31,6 C17.215,6 6,17.215 6,31 C6,44.785 17.215,56 31,56 L31,56 Z M31,8 C43.683,8 54,18.318 54,31 C54,43.682 43.683,54 31,54 C18.317,54 8,43.682 8,31 C8,18.318 18.317,8 31,8 L31,8 Z" id="Shape" fill="#000000"></path>
        <polygon id="Shape" fill="#000000" points="30 46.659 41.994 20.006 15.341 32 30 32"></polygon>
    </g>
</svg>