<?xml version="1.0" encoding="UTF-8" standalone="no"?>
<svg width="64px" height="64px" viewBox="0 0 64 64" version="1.1" xmlns="http://www.w3.org/2000/svg" xmlns:xlink="http://www.w3.org/1999/xlink">
    <!-- Generator: Sketch 3.7.2 (28276) - http://www.bohemiancoding.com/sketch -->
    <title>ios-more</title>
    <desc>Created with Sketch.</desc>
    <defs></defs>
    <g id="64px-Line" stroke="none" stroke-width="1" fill="none" fill-rule="evenodd">
        <g id="ios-more"></g>
        <path d="M11,28 C8.243,28 6,30.243 6,33 C6,35.757 8.243,38 11,38 C13.757,38 16,35.757 16,33 C16,30.243 13.757,28 11,28 L11,28 Z M11,36 C9.346,36 8,34.654 8,33 C8,31.346 9.346,30 11,30 C12.654,30 14,31.346 14,33 C14,34.654 12.654,36 11,36 L11,36 Z" id="Shape" fill="#000000"></path>
        <path d="M31,28 C28.243,28 26,30.243 26,33 C26,35.757 28.243,38 31,38 C33.757,38 36,35.757 36,33 C36,30.243 33.757,28 31,28 L31,28 Z M31,36 C29.346,36 28,34.654 28,33 C28,31.346 29.346,30 31,30 C32.654,30 34,31.346 34,33 C34,34.654 32.654,36 31,36 L31,36 Z" id="Shape" fill="#000000"></path>
        <path d="M51,28 C48.243,28 46,30.243 46,33 C46,35.757 48.243,38 51,38 C53.757,38 56,35.757 56,33 C56,30.243 53.757,28 51,28 L51,28 Z M51,36 C49.346,36 48,34.654 48,33 C48,31.346 49.346,30 51,30 C52.654,30 54,31.346 54,33 C54,34.654 52.654,36 51,36 L51,36 Z" id="Shape" fill="#000000"></path>
    </g>
</svg>