<?xml version="1.0" encoding="UTF-8" standalone="no"?>
<svg width="64px" height="64px" viewBox="0 0 64 64" version="1.1" xmlns="http://www.w3.org/2000/svg" xmlns:xlink="http://www.w3.org/1999/xlink">
    <!-- Generator: Sketch 3.7.2 (28276) - http://www.bohemiancoding.com/sketch -->
    <title>ios-contact</title>
    <desc>Created with Sketch.</desc>
    <defs></defs>
    <g id="64px-Line" stroke="none" stroke-width="1" fill="none" fill-rule="evenodd">
        <g id="ios-contact"></g>
        <path d="M13.542,50.871 L13.493,50.894 L14.635,51.885 C14.679,51.923 14.727,51.955 14.771,51.993 C15.265,52.416 15.774,52.82 16.3,53.203 C16.378,53.26 16.457,53.315 16.535,53.371 C17.083,53.761 17.644,54.132 18.223,54.477 C18.263,54.501 18.304,54.523 18.345,54.547 C20.204,55.643 22.216,56.504 24.342,57.092 C24.364,57.098 24.385,57.104 24.407,57.111 C25.081,57.296 25.766,57.451 26.462,57.58 C26.523,57.591 26.584,57.602 26.645,57.613 C27.315,57.731 27.994,57.825 28.681,57.889 C28.756,57.896 28.832,57.9 28.907,57.906 C29.597,57.963 30.294,58 31,58 C31.705,58 32.401,57.963 33.091,57.906 C33.166,57.9 33.241,57.896 33.316,57.889 C34.004,57.826 34.683,57.731 35.354,57.613 C35.412,57.603 35.47,57.592 35.528,57.582 C36.226,57.454 36.914,57.298 37.591,57.112 C37.607,57.108 37.623,57.103 37.638,57.099 C39.769,56.511 41.787,55.649 43.651,54.55 C43.686,54.529 43.721,54.51 43.756,54.49 C44.34,54.142 44.908,53.768 45.46,53.375 C45.533,53.323 45.605,53.273 45.677,53.22 C46.209,52.833 46.725,52.424 47.225,51.997 C47.264,51.964 47.307,51.935 47.346,51.901 L48.477,50.922 L48.429,50.898 C53.095,46.354 56,40.011 56,33 C56,19.215 44.785,8 31,8 C17.215,8 6,19.215 6,33 C6,39.997 8.893,46.329 13.542,50.871 L13.542,50.871 Z M31,10 C43.683,10 54,20.318 54,33 C54,39.703 51.117,45.744 46.526,49.951 L45.848,49.614 L45.84,49.621 C45.391,49.409 44.35,48.94 42.937,48.449 C41.684,48.053 40.539,47.748 39.433,47.515 L38.336,47.286 C37.744,47.179 37.357,47.124 37.359,47.124 L37.358,47.124 C37.303,46.953 36.849,45.492 36.691,43.835 C36.529,42.113 36.781,41.108 36.791,41.07 L36.796,41.067 C36.839,41.044 37.866,40.483 38.234,39.834 L38.288,39.724 C38.616,38.929 38.857,35.162 38.859,35.124 L40.234,34.457 L41.126,30.634 L41.152,28.916 L40.234,27.873 C40.261,27.747 40.734,25.542 40.734,23.123 C40.734,21.165 40.373,19.344 40.217,18.652 L40.155,18.373 L39.954,18.169 C39.277,17.484 37.513,15.805 35.734,14.999 C33.552,14.01 31.379,13.999 31.357,13.999 C31.344,13.999 31.214,14 30.997,14.014 C30.786,14.001 30.656,13.999 30.639,13.999 C30.618,13.999 28.448,14.01 26.266,14.999 C24.488,15.805 22.723,17.484 22.046,18.169 L21.845,18.373 L21.783,18.652 C21.628,19.344 21.266,21.165 21.266,23.123 C21.266,25.602 21.762,27.856 21.766,27.872 L20.848,28.916 L20.848,30.407 L21.766,34.457 L23.141,35.123 L23.141,35.124 C23.143,35.162 23.38,38.926 23.731,39.76 L23.784,39.866 C24.141,40.494 25.198,41.064 25.208,41.069 L25.208,41.069 C25.228,41.144 25.468,42.144 25.311,43.831 C25.15,45.498 24.693,46.965 24.642,47.125 C24.536,47.14 24.173,47.195 23.637,47.292 L22.567,47.516 C21.462,47.748 20.306,48.057 19.009,48.467 C17.538,48.979 16.423,49.495 16.092,49.653 L16.081,49.644 L15.465,49.942 C10.88,45.735 8,39.698 8,33 C8,20.318 18.317,10 31,10 L31,10 Z" id="Shape" fill="#000000"></path>
    </g>
</svg>