<?xml version="1.0" encoding="UTF-8" standalone="no"?>
<svg width="64px" height="64px" viewBox="0 0 64 64" version="1.1" xmlns="http://www.w3.org/2000/svg" xmlns:xlink="http://www.w3.org/1999/xlink">
    <!-- Generator: Sketch 3.7.2 (28276) - http://www.bohemiancoding.com/sketch -->
    <title>ios-bookmarks</title>
    <desc>Created with Sketch.</desc>
    <defs></defs>
    <g id="64px-Line" stroke="none" stroke-width="1" fill="none" fill-rule="evenodd">
        <g id="ios-bookmarks"></g>
        <path d="M10,50.002 L26,50.002 C28.206,50.002 30,51.795 30,54 L32,54 C32,51.795 33.794,50.002 36,50.002 L52,50.002 C54.206,50.002 56,48.208 56,46.002 L56,14.002 C56,11.796 54.206,10.002 52,10.002 L36,10.002 C33.914,10.002 32.076,11.073 31,12.692 C29.924,11.072 28.086,10.002 26,10.002 L10,10.002 C7.794,10.002 6,11.796 6,14.002 L6,46.002 C6,48.208 7.794,50.002 10,50.002 L10,50.002 Z M36,12.002 L52,12.002 C53.103,12.002 54,12.899 54,14.002 L54,46.002 C54,47.105 53.103,48.002 52,48.002 L36,48.002 C34.465,48.002 33.062,48.582 32,49.533 L32,16.002 C32,13.796 33.794,12.002 36,12.002 L36,12.002 Z M8,14.002 C8,12.899 8.897,12.002 10,12.002 L26,12.002 C28.206,12.002 30,13.796 30,16.002 L30,49.533 C28.938,48.581 27.535,48.002 26,48.002 L10,48.002 C8.897,48.002 8,47.105 8,46.002 L8,14.002 L8,14.002 Z" id="Shape" fill="#000000"></path>
    </g>
</svg>