<?xml version="1.0" encoding="UTF-8" standalone="no"?>
<svg width="64px" height="64px" viewBox="0 0 64 64" version="1.1" xmlns="http://www.w3.org/2000/svg" xmlns:xlink="http://www.w3.org/1999/xlink">
    <!-- Generator: Sketch 3.7.2 (28276) - http://www.bohemiancoding.com/sketch -->
    <title>kit-kettle</title>
    <desc>Created with Sketch.</desc>
    <defs></defs>
    <g id="64px-Line" stroke="none" stroke-width="1" fill="none" fill-rule="evenodd">
        <g id="kit-kettle"></g>
        <path d="M14,21 L14,55 C14,57.757 16.243,60 19,60 L45,60 C47.757,60 50,57.757 50,55 L50,36 L52,36 C55.309,36 58,33.309 58,30 L58,14.002 C58,10.693 55.309,8.002 52,8.002 L49.01,8.002 C49.006,8.002 49.003,8 49,8 L44,8 L44,5 C44,4.448 43.552,4 43,4 L21,4 C20.448,4 20,4.448 20,5 L20,8 L7,8 C6.57,8 6.188,8.275 6.052,8.684 C5.916,9.093 6.056,9.541 6.4,9.8 C6.476,9.857 14,15.574 14,21 L14,21 Z M56,14.002 L56,30 C56,32.206 54.206,34 52,34 L50,34 L50,10.002 L52,10.002 C54.206,10.002 56,11.796 56,14.002 L56,14.002 Z M22,6 L42,6 L42,8 L22,8 L22,6 L22,6 Z M20.99,10 C20.993,10 20.996,10.002 21,10.002 C21.004,10.002 21.006,10 21.01,10 L42.99,10 C42.993,10 42.996,10.002 43,10.002 C43.004,10.002 43.006,10 43.01,10 L48,10 L48,55 C48,56.654 46.654,58 45,58 L19,58 C17.346,58 16,56.654 16,55 L16,21 C16,16.589 12.205,12.325 9.712,10 L20.99,10 L20.99,10 Z" id="Shape" fill="#000000"></path>
        <path d="M25,52 L39,52 C39.552,52 40,51.552 40,51 L40,15 C40,14.448 39.552,14 39,14 L25,14 C24.448,14 24,14.448 24,15 L24,51 C24,51.552 24.448,52 25,52 L25,52 Z M38,16 L38,50 L26,50 L26,46 L31,46 C31.552,46 32,45.552 32,45 C32,44.448 31.552,44 31,44 L26,44 L26,40 L31,40 C31.552,40 32,39.552 32,39 C32,38.448 31.552,38 31,38 L26,38 L26,34 L31,34 C31.552,34 32,33.552 32,33 C32,32.448 31.552,32 31,32 L26,32 L26,28 L31,28 C31.552,28 32,27.552 32,27 C32,26.448 31.552,26 31,26 L26,26 L26,22 L31,22 C31.552,22 32,21.552 32,21 C32,20.448 31.552,20 31,20 L26,20 L26,16 L38,16 L38,16 Z" id="Shape" fill="#000000"></path>
    </g>
</svg>