<?xml version="1.0" encoding="UTF-8" standalone="no"?>
<svg width="64px" height="64px" viewBox="0 0 64 64" version="1.1" xmlns="http://www.w3.org/2000/svg" xmlns:xlink="http://www.w3.org/1999/xlink">
    <!-- Generator: Sketch 3.7.2 (28276) - http://www.bohemiancoding.com/sketch -->
    <title>kit-honey-spoon</title>
    <desc>Created with Sketch.</desc>
    <defs></defs>
    <g id="64px-Line" stroke="none" stroke-width="1" fill="none" fill-rule="evenodd">
        <g id="kit-honey-spoon"></g>
        <path d="M7.104,59.707 C7.292,59.895 7.546,60 7.811,60 C8.076,60 8.331,59.895 8.518,59.707 L36.513,31.711 L40.428,35.626 C40.616,35.814 40.87,35.919 41.135,35.919 C41.4,35.919 41.655,35.814 41.842,35.626 L44.653,32.815 C45.044,32.424 45.044,31.792 44.653,31.401 L40.738,27.486 L42.54,25.684 L48.86,32.004 C49.055,32.199 49.311,32.297 49.567,32.297 C49.823,32.297 50.079,32.199 50.274,32.004 L53.085,29.193 C53.476,28.802 53.476,28.17 53.085,27.779 L46.765,21.459 L48.567,19.657 L52.482,23.572 C52.677,23.767 52.933,23.865 53.189,23.865 C53.445,23.865 53.701,23.767 53.896,23.572 L56.707,20.761 C56.895,20.573 57,20.319 57,20.054 C57,19.789 56.895,19.534 56.707,19.347 L52.792,15.432 L54.896,13.328 C55.287,12.937 55.287,12.305 54.896,11.914 L52.085,9.103 C51.694,8.712 51.062,8.712 50.671,9.103 L48.567,11.207 L44.652,7.292 C44.277,6.917 43.613,6.917 43.238,7.292 L40.427,10.103 C40.036,10.494 40.036,11.126 40.427,11.517 L44.341,15.432 L42.539,17.234 L36.219,10.914 C35.828,10.523 35.196,10.523 34.805,10.914 L31.994,13.725 C31.603,14.116 31.603,14.748 31.994,15.139 L38.314,21.459 L36.512,23.261 L32.598,19.347 C32.207,18.956 31.575,18.956 31.184,19.347 L28.373,22.158 C28.185,22.346 28.08,22.6 28.08,22.865 C28.08,23.13 28.185,23.385 28.373,23.572 L32.288,27.487 L4.292,55.482 C4.104,55.67 3.999,55.924 3.999,56.189 C3.999,56.454 4.104,56.709 4.292,56.896 L7.104,59.707 L7.104,59.707 Z M51.378,11.225 L52.774,12.621 L51.377,14.018 L49.98,12.621 L51.378,11.225 L51.378,11.225 Z M43.946,9.414 L54.586,20.054 L53.189,21.45 L42.549,10.81 L43.946,9.414 L43.946,9.414 Z M45.757,16.847 L47.154,18.243 L45.352,20.045 L43.955,18.648 L45.757,16.847 L45.757,16.847 Z M35.514,13.036 L41.831,19.353 C41.832,19.354 41.832,19.355 41.833,19.356 C41.834,19.357 41.835,19.357 41.836,19.358 L50.964,28.486 L49.567,29.883 L34.116,14.432 L35.514,13.036 L35.514,13.036 Z M39.729,22.874 L41.126,24.271 L39.324,26.073 L37.927,24.676 L39.729,22.874 L39.729,22.874 Z M31.892,21.468 L42.532,32.108 L41.136,33.505 L37.222,29.591 L37.221,29.59 C37.221,29.59 37.22,29.59 37.22,29.589 L34.412,26.781 L34.411,26.78 C34.411,26.78 34.41,26.78 34.41,26.779 L30.496,22.865 L31.892,21.468 L31.892,21.468 Z M33.703,28.901 L35.099,30.297 L7.811,57.586 L6.414,56.189 L33.703,28.901 L33.703,28.901 Z" id="Shape" fill="#000000"></path>
        <path d="M56.286,27.3 C56.111,27.479 52,31.781 52,41 C52,42.168 52.467,43.211 52.962,44.315 C53.472,45.455 54,46.633 54,48 C54,50.28 52.28,52 50,52 C47.682,52 46,50.318 46,48 C46,46.546 46.549,45.315 47.08,44.126 C47.554,43.066 48,42.064 48,41 C48,37.58 45.593,36.186 45.49,36.128 C45.008,35.856 44.399,36.028 44.128,36.509 C43.857,36.99 44.028,37.6 44.509,37.871 C44.524,37.879 45.999,38.771 45.999,40.999 C45.999,41.637 45.653,42.413 45.252,43.31 C44.695,44.562 44,46.12 44,48 C44,51.42 46.58,54 50,54 C53.364,54 56,51.364 56,48 C56,46.206 55.355,44.767 54.787,43.498 C54.365,42.555 54,41.741 54,41 C54,32.689 57.652,28.766 57.717,28.697 C58.101,28.302 58.093,27.671 57.7,27.285 C57.306,26.9 56.672,26.905 56.286,27.3 L56.286,27.3 Z" id="Shape" fill="#000000"></path>
    </g>
</svg>