<?xml version="1.0" encoding="UTF-8" standalone="no"?>
<svg width="64px" height="64px" viewBox="0 0 64 64" version="1.1" xmlns="http://www.w3.org/2000/svg" xmlns:xlink="http://www.w3.org/1999/xlink">
    <!-- Generator: Sketch 3.7.2 (28276) - http://www.bohemiancoding.com/sketch -->
    <title>kit-whisk-electric</title>
    <desc>Created with Sketch.</desc>
    <defs></defs>
    <g id="64px-Line" stroke="none" stroke-width="1" fill="none" fill-rule="evenodd">
        <g id="kit-whisk-electric"></g>
        <path d="M26,24 L44,24 C46.206,24 48,22.206 48,20 L48,14 C48,11.794 46.206,10 44,10 L26,10 C23.794,10 22,11.794 22,14 L22,20 C22,22.206 23.794,24 26,24 L26,24 Z M46,14 L46,20 C46,21.103 45.103,22 44,22 L26,22 C24.897,22 24,21.103 24,20 L24,16 L31,16 C31.552,16 32,15.553 32,15 L32,12 L44,12 C45.103,12 46,12.897 46,14 L46,14 Z M26,12 L30,12 L30,14 L24,14 C24,12.897 24.897,12 26,12 L26,12 Z" id="Shape" fill="#000000"></path>
        <path d="M22,37 L22,34 L47,34 C50.86,34 54,30.859 54,27 L54,11 C54,7.141 50.86,4 47,4 L17,4 C13.14,4 10,7.141 10,11 L10,27 C10,30.519 12.613,33.432 16,33.92 L16,37 C16,37.553 16.448,38 17,38 L17.517,38 L12.611,50.138 C12.206,51.041 12,52.003 12,53 C12,56.859 15.14,60 19,60 C22.86,60 26,56.859 26,53 C26,52.005 25.795,51.044 25.391,50.143 L20.483,38 L21,38 C21.552,38 22,37.553 22,37 L22,37 Z M19,57.909 C18.63,57.439 18,55.763 18,53 C18,52.191 18.055,51.417 18.166,50.682 L19,44.49 L19.834,50.681 C19.835,50.686 19.835,50.691 19.836,50.697 C19.944,51.417 20,52.191 20,53 C20,55.764 19.37,57.439 19,57.909 L19,57.909 Z M18,36 L18,34 L20,34 L20,36 L18,36 L18,36 Z M12,27 L12,11 C12,8.243 14.243,6 17,6 L47,6 C49.757,6 52,8.243 52,11 L52,27 C52,29.757 49.757,32 47,32 L17,32 C14.243,32 12,29.757 12,27 L12,27 Z M14,53 C14,52.288 14.146,51.601 14.45,50.923 L16.947,44.745 L16.186,50.398 C16.062,51.217 16,52.093 16,53 C16,54.544 16.183,56.093 16.566,57.341 C15.043,56.483 14,54.869 14,53 L14,53 Z M23.565,50.958 C23.854,51.601 24,52.288 24,53 C24,54.869 22.957,56.483 21.434,57.341 C21.817,56.093 22,54.545 22,53 C22,52.098 21.938,51.228 21.816,50.413 L21.053,44.746 L23.55,50.923 C23.555,50.935 23.56,50.946 23.565,50.958 L23.565,50.958 Z" id="Shape" fill="#000000"></path>
    </g>
</svg>