<?xml version="1.0" encoding="UTF-8" standalone="no"?>
<svg width="64px" height="64px" viewBox="0 0 64 64" version="1.1" xmlns="http://www.w3.org/2000/svg" xmlns:xlink="http://www.w3.org/1999/xlink">
    <!-- Generator: Sketch 3.7.2 (28276) - http://www.bohemiancoding.com/sketch -->
    <title>kit-salt</title>
    <desc>Created with Sketch.</desc>
    <defs></defs>
    <g id="64px-Line" stroke="none" stroke-width="1" fill="none" fill-rule="evenodd">
        <g id="kit-salt"></g>
        <path d="M33.799,42.198 C36.619,42.198 39.445,41.218 41.85,39.389 L57.593,27.805 C57.827,27.632 57.976,27.366 57.997,27.075 C58.019,26.785 57.913,26.499 57.707,26.293 L37.707,6.293 C37.5,6.086 37.211,5.981 36.925,6.003 C36.634,6.024 36.367,6.173 36.195,6.407 L24.621,22.137 C22.544,24.87 21.56,28.127 21.853,31.308 C22.115,34.134 23.288,36.607 25.34,38.66 C27.392,40.713 29.865,41.886 32.692,42.147 C33.06,42.181 33.429,42.198 33.799,42.198 L33.799,42.198 Z M23.845,31.125 C23.598,28.443 24.439,25.682 26.222,23.336 L37.117,8.53 L55.471,26.884 L40.653,37.788 C38.319,39.561 35.553,40.405 32.877,40.155 C30.529,39.938 28.47,38.96 26.756,37.246 C25.042,35.532 24.062,33.473 23.845,31.125 L23.845,31.125 Z" id="Shape" fill="#000000"></path>
        <path d="M31.71,32.29 C31.439,32.019 30.99,31.92 30.62,32.08 C30.559,32.1 30.5,32.13 30.439,32.17 C30.389,32.2 30.339,32.25 30.29,32.29 C30.2,32.39 30.13,32.5 30.08,32.62 C30.019,32.74 30,32.87 30,33 C30,33.27 30.1,33.52 30.29,33.71 C30.479,33.899 30.729,34 31,34 C31.13,34 31.26,33.97 31.38,33.92 C31.5,33.87 31.609,33.8 31.71,33.71 C31.899,33.52 32,33.27 32,33 C32,32.87 31.97,32.74 31.92,32.62 C31.87,32.49 31.8,32.39 31.71,32.29 L31.71,32.29 Z" id="Shape" fill="#000000"></path>
        <path d="M9,42 C9.27,42 9.52,41.899 9.71,41.71 C9.899,41.52 10,41.27 10,41 C10,40.74 9.89,40.479 9.71,40.29 C9.33,39.92 8.66,39.92 8.29,40.29 C8.1,40.479 8,40.74 8,41 C8,41.26 8.1,41.52 8.29,41.71 C8.39,41.8 8.5,41.87 8.62,41.92 C8.74,41.97 8.87,42 9,42 L9,42 Z" id="Shape" fill="#000000"></path>
        <path d="M5,54 C5.13,54 5.26,53.97 5.38,53.92 C5.5,53.87 5.609,53.8 5.71,53.71 C5.8,53.609 5.87,53.5 5.92,53.38 C5.97,53.26 6,53.13 6,53 C6,52.74 5.89,52.479 5.71,52.29 C5.43,52.01 4.99,51.92 4.62,52.08 C4.49,52.13 4.39,52.2 4.29,52.29 C4.109,52.479 4,52.729 4,53 C4,53.13 4.03,53.26 4.08,53.38 C4.13,53.5 4.2,53.609 4.29,53.71 C4.479,53.899 4.729,54 5,54 L5,54 Z" id="Shape" fill="#000000"></path>
        <path d="M14.62,59.92 C14.74,59.97 14.87,60 15,60 C15.13,60 15.26,59.97 15.38,59.92 C15.5,59.87 15.609,59.8 15.71,59.71 C15.899,59.52 16,59.27 16,59 C16,58.87 15.97,58.74 15.92,58.62 C15.87,58.49 15.8,58.39 15.71,58.29 C15.34,57.92 14.66,57.92 14.29,58.29 C14.2,58.39 14.13,58.49 14.08,58.62 C14.03,58.74 14,58.87 14,59 C14,59.27 14.1,59.52 14.29,59.71 C14.39,59.8 14.49,59.87 14.62,59.92 L14.62,59.92 Z" id="Shape" fill="#000000"></path>
        <path d="M21.55,48.17 C21.5,48.13 21.44,48.1 21.38,48.08 C21.319,48.05 21.26,48.03 21.19,48.019 C20.871,47.95 20.52,48.059 20.291,48.29 C20.201,48.39 20.131,48.49 20.081,48.62 C20.02,48.74 20.001,48.87 20.001,49 C20.001,49.27 20.101,49.52 20.291,49.71 C20.391,49.8 20.491,49.87 20.621,49.92 C20.741,49.97 20.871,50 21.001,50 C21.131,50 21.261,49.97 21.381,49.92 C21.501,49.87 21.61,49.8 21.711,49.71 C21.801,49.609 21.871,49.5 21.921,49.38 C21.971,49.26 22,49.13 22,49 C22,48.87 21.97,48.74 21.92,48.62 C21.87,48.49 21.8,48.39 21.71,48.29 C21.66,48.25 21.609,48.2 21.55,48.17 L21.55,48.17 Z" id="Shape" fill="#000000"></path>
        <path d="M18.29,40.29 C18.109,40.479 18,40.74 18,41 C18,41.27 18.1,41.52 18.29,41.71 C18.39,41.8 18.5,41.87 18.62,41.92 C18.74,41.97 18.87,42 19,42 C19.27,42 19.52,41.899 19.71,41.71 C19.899,41.52 20,41.27 20,41 C20,40.729 19.89,40.479 19.71,40.29 C19.33,39.92 18.66,39.92 18.29,40.29 L18.29,40.29 Z" id="Shape" fill="#000000"></path>
        <path d="M13.71,48.29 C13.33,47.92 12.66,47.92 12.29,48.29 C12.2,48.39 12.13,48.49 12.08,48.62 C12.019,48.74 12,48.87 12,49 C12,49.27 12.1,49.52 12.29,49.71 C12.39,49.8 12.49,49.87 12.62,49.92 C12.74,49.97 12.87,50 13,50 C13.13,50 13.26,49.97 13.38,49.92 C13.5,49.87 13.609,49.8 13.71,49.71 C13.899,49.52 14,49.27 14,49 C14,48.87 13.97,48.74 13.92,48.62 C13.87,48.49 13.8,48.39 13.71,48.29 L13.71,48.29 Z" id="Shape" fill="#000000"></path>
        <path d="M24.62,54.08 C24.49,54.13 24.39,54.2 24.29,54.29 C24.2,54.39 24.13,54.49 24.08,54.62 C24.019,54.74 24,54.87 24,55 C24,55.13 24.02,55.26 24.069,55.38 C24.13,55.5 24.2,55.609 24.29,55.71 C24.39,55.8 24.5,55.87 24.62,55.92 C24.74,55.97 24.87,56 25,56 C25.13,56 25.26,55.97 25.38,55.92 C25.5,55.87 25.609,55.8 25.71,55.71 C25.8,55.609 25.87,55.5 25.92,55.38 C25.97,55.26 26,55.13 26,55 C26,54.87 25.97,54.74 25.92,54.62 C25.87,54.49 25.8,54.39 25.71,54.29 C25.43,54.01 24.979,53.92 24.62,54.08 L24.62,54.08 Z" id="Shape" fill="#000000"></path>
        <path d="M31.71,36.29 C31.34,35.92 30.67,35.92 30.29,36.29 C30.2,36.39 30.13,36.49 30.08,36.62 C30.03,36.74 30,36.87 30,37 C30,37.27 30.1,37.52 30.29,37.71 C30.479,37.899 30.729,38 31,38 C31.13,38 31.26,37.97 31.38,37.92 C31.5,37.87 31.609,37.8 31.71,37.71 C31.899,37.52 32,37.27 32,37 C32,36.87 31.97,36.74 31.92,36.62 C31.87,36.49 31.8,36.39 31.71,36.29 L31.71,36.29 Z" id="Shape" fill="#000000"></path>
        <path d="M27.71,32.29 C27.34,31.92 26.66,31.92 26.29,32.29 C26.2,32.39 26.13,32.5 26.08,32.62 C26.019,32.74 26,32.87 26,33 C26,33.27 26.1,33.52 26.29,33.71 C26.39,33.8 26.5,33.87 26.62,33.92 C26.74,33.97 26.87,34 27,34 C27.27,34 27.52,33.899 27.71,33.71 C27.899,33.52 28,33.27 28,33 C28,32.87 27.97,32.74 27.92,32.62 C27.87,32.49 27.8,32.39 27.71,32.29 L27.71,32.29 Z" id="Shape" fill="#000000"></path>
    </g>
</svg>