<?xml version="1.0" encoding="UTF-8" standalone="no"?>
<svg width="64px" height="64px" viewBox="0 0 64 64" version="1.1" xmlns="http://www.w3.org/2000/svg" xmlns:xlink="http://www.w3.org/1999/xlink">
    <!-- Generator: Sketch 3.7.2 (28276) - http://www.bohemiancoding.com/sketch -->
    <title>kit-spatula-ladle</title>
    <desc>Created with Sketch.</desc>
    <defs></defs>
    <g id="64px-Line" stroke="none" stroke-width="1" fill="none" fill-rule="evenodd">
        <g id="kit-spatula-ladle"></g>
        <path d="M59,6 C52.935,6 48,10.935 48,17 L48,44 L27,44 C26.447,44 26,44.448 26,45 L26,48 C26,54.617 31.383,60 38,60 C44.617,60 50,54.617 50,48 L50,45 L50,17 C50,12.038 54.037,8 59,8 C59.553,8 60,7.552 60,7 C60,6.448 59.553,6 59,6 L59,6 Z M48,48 C48,53.514 43.514,58 38,58 C32.486,58 28,53.514 28,48 L28,46 L48,46 L48,48 L48,48 Z" id="Shape" fill="#000000"></path>
        <path d="M10,28 L14,28 L14,40 L11,40 C10.447,40 10,40.448 10,41 L10,55 C10,57.757 12.243,60 15,60 C17.757,60 20,57.757 20,55 L20,41 C20,40.448 19.553,40 19,40 L16,40 L16,28 L20,28 C22.206,28 24,26.206 24,24 L24,8 C24,5.794 22.206,4 20,4 L10,4 C7.794,4 6,5.794 6,8 L6,24 C6,26.206 7.794,28 10,28 L10,28 Z M18,55 C18,56.654 16.654,58 15,58 C13.346,58 12,56.654 12,55 L12,42 L18,42 L18,55 L18,55 Z M8,8 C8,6.897 8.897,6 10,6 L20,6 C21.103,6 22,6.897 22,8 L22,24 C22,25.103 21.103,26 20,26 L10,26 C8.897,26 8,25.103 8,24 L8,8 L8,8 Z" id="Shape" fill="#000000"></path>
        <path d="M11,24 C11.553,24 12,23.552 12,23 L12,9 C12,8.448 11.553,8 11,8 C10.447,8 10,8.448 10,9 L10,23 C10,23.552 10.447,24 11,24 L11,24 Z" id="Shape" fill="#000000"></path>
        <path d="M15,24 C15.553,24 16,23.552 16,23 L16,9 C16,8.448 15.553,8 15,8 C14.447,8 14,8.448 14,9 L14,23 C14,23.552 14.447,24 15,24 L15,24 Z" id="Shape" fill="#000000"></path>
        <path d="M19,24 C19.553,24 20,23.552 20,23 L20,9 C20,8.448 19.553,8 19,8 C18.447,8 18,8.448 18,9 L18,23 C18,23.552 18.447,24 19,24 L19,24 Z" id="Shape" fill="#000000"></path>
        <path d="M38,56 C38.553,56 39,55.552 39,55 C39,54.448 38.553,54 38,54 C34.691,54 32,51.309 32,48 C32,47.448 31.553,47 31,47 C30.447,47 30,47.448 30,48 C30,52.411 33.589,56 38,56 L38,56 Z" id="Shape" fill="#000000"></path>
    </g>
</svg>