<?xml version="1.0" encoding="UTF-8" standalone="no"?>
<svg width="64px" height="64px" viewBox="0 0 64 64" version="1.1" xmlns="http://www.w3.org/2000/svg" xmlns:xlink="http://www.w3.org/1999/xlink">
    <!-- Generator: Sketch 3.7.2 (28276) - http://www.bohemiancoding.com/sketch -->
    <title>kit-blender</title>
    <desc>Created with Sketch.</desc>
    <defs></defs>
    <g id="64px-Line" stroke="none" stroke-width="1" fill="none" fill-rule="evenodd">
        <g id="kit-blender"></g>
        <path d="M17.712,20.221 L21.974,42.948 L18.136,56.103 C18.133,56.114 18.129,56.124 18.126,56.135 C18.042,56.415 18,56.706 18,57 C18,58.654 19.346,60 21,60 L43.074,60 C44.728,60 46.074,58.654 46.074,57 C46.074,56.706 46.032,56.415 45.948,56.136 C45.944,56.124 45.94,56.112 45.936,56.099 L42.027,42.945 L44.829,28 L49,28 C51.757,28 54,25.757 54,23 L54,15 C54,12.243 51.757,10 49,10 L47.833,10 C46.784,6.519 40.338,4 32,4 C23.662,4 17.215,6.519 16.167,10 L13,10 C12.598,10 12.233,10.242 12.078,10.613 C11.922,10.985 12.004,11.413 12.286,11.701 C12.334,11.749 17.026,16.563 17.712,20.221 L17.712,20.221 Z M44.04,56.739 C44.062,56.823 44.074,56.911 44.074,57 C44.074,57.551 43.626,58 43.074,58 L21,58 C20.448,58 20,57.551 20,57 C20,56.911 20.012,56.823 20.034,56.739 C20.037,56.728 20.041,56.717 20.044,56.706 L23.75,44 L40.254,44 L44.032,56.71 C44.034,56.72 44.037,56.729 44.04,56.739 L44.04,56.739 Z M52,15 L52,23 C52,24.654 50.654,26 49,26 L45.204,26 L47.829,12 L49,12 C50.654,12 52,13.346 52,15 L52,15 Z M32,6 C39.094,6 44.328,7.95 45.659,10 L18.341,10 C19.672,7.95 24.906,6 32,6 L32,6 Z M16.99,12 C16.993,12 16.996,12.002 17,12.002 C17.004,12.002 17.006,12 17.01,12 L45.795,12 L45.42,14.002 L37,14.002 C36.447,14.002 36,14.45 36,15.002 C36,15.554 36.447,16.002 37,16.002 L45.045,16.002 L44.295,20 L39,20 C38.447,20 38,20.448 38,21 C38,21.552 38.447,22 39,22 L43.92,22 L43.17,26 L36,26 C35.447,26 35,26.448 35,27 C35,27.552 35.447,28 36,28 L42.795,28 L42.045,32 L38,32 C37.447,32 37,32.448 37,33 C37,33.552 37.447,34 38,34 L41.67,34 L40.92,38 L35,38 C34.447,38 34,38.448 34,39 C34,39.552 34.447,40 35,40 L40.545,40 L40.17,42 L23.83,42 L19.677,19.853 C19.154,17.056 16.827,13.895 15.238,12 L16.99,12 L16.99,12 Z" id="Shape" fill="#000000"></path>
        <path d="M32,48 C29.794,48 28,49.794 28,52 C28,54.206 29.794,56 32,56 C34.206,56 36,54.206 36,52 C36,49.794 34.206,48 32,48 L32,48 Z M32,54 C30.897,54 30,53.103 30,52 C30,50.897 30.897,50 32,50 C33.103,50 34,50.897 34,52 C34,53.103 33.103,54 32,54 L32,54 Z" id="Shape" fill="#000000"></path>
    </g>
</svg>