<?xml version="1.0" encoding="UTF-8" standalone="no"?>
<svg width="64px" height="64px" viewBox="0 0 64 64" version="1.1" xmlns="http://www.w3.org/2000/svg" xmlns:xlink="http://www.w3.org/1999/xlink">
    <!-- Generator: Sketch 3.7.2 (28276) - http://www.bohemiancoding.com/sketch -->
    <title>kit-pans</title>
    <desc>Created with Sketch.</desc>
    <defs></defs>
    <g id="64px-Line" stroke="none" stroke-width="1" fill="none" fill-rule="evenodd">
        <g id="kit-pans"></g>
        <path d="M59,38 C47.73,38 38.35,43.073 36.731,44 L5,44 C4.448,44 4,44.448 4,45 C4,51.065 8.935,56 15,56 L27,56 C32.862,56 37.654,51.386 37.97,45.601 C40.029,44.473 48.84,40 59,40 C59.552,40 60,39.552 60,39 C60,38.448 59.552,38 59,38 L59,38 Z M27,54 L15,54 C10.375,54 6.554,50.494 6.055,46 L35.945,46 C35.446,50.494 31.625,54 27,54 L27,54 Z" id="Shape" fill="#000000"></path>
        <path d="M59,8 C44.6,8 38.083,12.75 36.617,14 L5,14 C4.448,14 4,14.448 4,15 L4,33 C4,35.757 6.243,38 9,38 L33,38 C35.757,38 38,35.757 38,33 L38,15.451 C39.347,14.342 45.49,10 59,10 C59.552,10 60,9.552 60,9 C60,8.448 59.552,8 59,8 L59,8 Z M36,33 C36,34.654 34.654,36 33,36 L9,36 C7.346,36 6,34.654 6,33 L6,16 L36,16 L36,33 L36,33 Z" id="Shape" fill="#000000"></path>
    </g>
</svg>