<?xml version="1.0" encoding="UTF-8" standalone="no"?>
<svg width="64px" height="64px" viewBox="0 0 64 64" version="1.1" xmlns="http://www.w3.org/2000/svg" xmlns:xlink="http://www.w3.org/1999/xlink">
    <!-- Generator: Sketch 3.7.2 (28276) - http://www.bohemiancoding.com/sketch -->
    <title>kit-cooker-2</title>
    <desc>Created with Sketch.</desc>
    <defs></defs>
    <g id="64px-Line" stroke="none" stroke-width="1" fill="none" fill-rule="evenodd">
        <g id="kit-cooker-2"></g>
        <path d="M56,13.998 L6,13.998 C3.794,13.998 2,15.792 2,17.998 L2,50 C2,52.206 3.794,54 6,54 L8.184,54 C8.598,55.162 9.698,56 11,56 C12.302,56 13.402,55.162 13.816,54 L48.185,54 C48.599,55.162 49.699,56 51.001,56 C52.303,56 53.403,55.162 53.817,54 L56,54 C58.206,54 60,52.206 60,50 L60,17.998 C60,15.792 58.206,13.998 56,13.998 L56,13.998 Z M6,15.998 L56,15.998 C57.103,15.998 58,16.895 58,17.998 L58,23.998 L4,23.998 L4,17.998 C4,16.896 4.897,15.998 6,15.998 L6,15.998 Z M4,50 L4,25.998 L30,25.998 L30,52 L6,52 C4.897,52 4,51.103 4,50 L4,50 Z M56,52 L32,52 L32,25.998 L58,25.998 L58,50 C58,51.103 57.103,52 56,52 L56,52 Z" id="Shape" fill="#000000"></path>
        <circle id="Oval" fill="#000000" cx="10" cy="19.998" r="2"></circle>
        <circle id="Oval" fill="#000000" cx="18" cy="19.998" r="2"></circle>
        <circle id="Oval" fill="#000000" cx="26" cy="19.998" r="2"></circle>
        <circle id="Oval" fill="#000000" cx="36" cy="19.998" r="2"></circle>
        <circle id="Oval" fill="#000000" cx="44" cy="19.998" r="2"></circle>
        <circle id="Oval" fill="#000000" cx="52" cy="19.998" r="2"></circle>
        <path d="M11,10 C10.447,10 10,10.447 10,11 C10,11.553 10.447,12 11,12 L25,12 C25.553,12 26,11.553 26,11 C26,10.447 25.553,10 25,10 L11,10 L11,10 Z" id="Shape" fill="#000000"></path>
        <path d="M39,10 C38.447,10 38,10.447 38,11 C38,11.553 38.447,12 39,12 L51,12 C51.553,12 52,11.553 52,11 C52,10.447 51.553,10 51,10 L39,10 L39,10 Z" id="Shape" fill="#000000"></path>
        <path d="M28,49.002 L28,29 C28,28.447 27.553,28 27,28 L7,28 C6.447,28 6,28.447 6,29 L6,49.002 C6,49.555 6.447,50.002 7,50.002 L27,50.002 C27.553,50.002 28,49.555 28,49.002 L28,49.002 Z M26,48.002 L8,48.002 L8,30 L26,30 L26,48.002 L26,48.002 Z" id="Shape" fill="#000000"></path>
        <path d="M55,28 L35,28 C34.447,28 34,28.447 34,29 L34,49.002 C34,49.555 34.447,50.002 35,50.002 L55,50.002 C55.553,50.002 56,49.555 56,49.002 L56,29 C56,28.447 55.553,28 55,28 L55,28 Z M54,48.002 L36,48.002 L36,30 L54,30 L54,48.002 L54,48.002 Z" id="Shape" fill="#000000"></path>
        <path d="M11,38 C11.256,38 11.512,37.902 11.707,37.707 L15.707,33.707 C16.098,33.316 16.098,32.684 15.707,32.293 C15.316,31.902 14.684,31.902 14.293,32.293 L10.293,36.293 C9.902,36.684 9.902,37.316 10.293,37.707 C10.488,37.902 10.744,38 11,38 L11,38 Z" id="Shape" fill="#000000"></path>
        <path d="M11,44 C11.256,44 11.512,43.902 11.707,43.707 L21.707,33.707 C22.098,33.316 22.098,32.684 21.707,32.293 C21.316,31.902 20.684,31.902 20.293,32.293 L10.293,42.293 C9.902,42.684 9.902,43.316 10.293,43.707 C10.488,43.902 10.744,44 11,44 L11,44 Z" id="Shape" fill="#000000"></path>
        <path d="M39,38 C39.256,38 39.512,37.902 39.707,37.707 L43.707,33.707 C44.098,33.316 44.098,32.684 43.707,32.293 C43.316,31.902 42.684,31.902 42.293,32.293 L38.293,36.293 C37.902,36.684 37.902,37.316 38.293,37.707 C38.488,37.902 38.744,38 39,38 L39,38 Z" id="Shape" fill="#000000"></path>
        <path d="M39,44 C39.256,44 39.512,43.902 39.707,43.707 L49.707,33.707 C50.098,33.316 50.098,32.684 49.707,32.293 C49.316,31.902 48.684,31.902 48.293,32.293 L38.293,42.293 C37.902,42.684 37.902,43.316 38.293,43.707 C38.488,43.902 38.744,44 39,44 L39,44 Z" id="Shape" fill="#000000"></path>
        <path d="M18.293,45.707 C18.488,45.902 18.744,46 19,46 C19.256,46 19.512,45.902 19.707,45.707 L23.707,41.707 C24.098,41.316 24.098,40.684 23.707,40.293 C23.316,39.902 22.684,39.902 22.293,40.293 L18.293,44.293 C17.902,44.684 17.902,45.316 18.293,45.707 L18.293,45.707 Z" id="Shape" fill="#000000"></path>
        <path d="M46.293,45.707 C46.488,45.902 46.744,46 47,46 C47.256,46 47.512,45.902 47.707,45.707 L51.707,41.707 C52.098,41.316 52.098,40.684 51.707,40.293 C51.316,39.902 50.684,39.902 50.293,40.293 L46.293,44.293 C45.902,44.684 45.902,45.316 46.293,45.707 L46.293,45.707 Z" id="Shape" fill="#000000"></path>
    </g>
</svg>