<?xml version="1.0" encoding="UTF-8" standalone="no"?>
<svg width="64px" height="64px" viewBox="0 0 64 64" version="1.1" xmlns="http://www.w3.org/2000/svg" xmlns:xlink="http://www.w3.org/1999/xlink">
    <!-- Generator: Sketch 3.7.2 (28276) - http://www.bohemiancoding.com/sketch -->
    <title>kit-salt-pepper</title>
    <desc>Created with Sketch.</desc>
    <defs></defs>
    <g id="64px-Line" stroke="none" stroke-width="1" fill="none" fill-rule="evenodd">
        <g id="kit-salt-pepper"></g>
        <path d="M27.447,12.105 C27.305,12.034 24.482,10.651 20.041,10.167 C20.196,8.599 20.774,8.053 21.062,7.997 C21.601,7.964 22.016,7.508 21.999,6.968 C21.982,6.428 21.54,6 21,6 L13,6 C12.454,6 11.982,6.437 11.974,6.982 C11.966,7.528 12.37,7.978 12.916,7.996 C13.24,8.047 13.809,8.583 13.96,10.167 C9.518,10.651 6.694,12.034 6.552,12.105 C6.107,12.328 5.893,12.843 6.051,13.316 L9.981,25.104 L6.27,56.649 C6.17,57.5 6.439,58.354 7.008,58.994 C7.577,59.633 8.394,60 9.25,60 L24.752,60 C25.608,60 26.425,59.633 26.994,58.994 C27.563,58.354 27.832,57.5 27.732,56.649 L24.021,25.104 L27.951,13.316 C28.106,12.844 27.892,12.328 27.447,12.105 L27.447,12.105 Z M15.482,8 L18.529,8 C18.299,8.524 18.124,9.188 18.046,10.021 C17.704,10.008 17.356,10 17,10 C16.644,10 16.297,10.008 15.955,10.021 C15.879,9.188 15.708,8.524 15.482,8 L15.482,8 Z M25.744,56.883 C25.778,57.171 25.69,57.448 25.498,57.665 C25.306,57.881 25.04,58 24.751,58 L9.249,58 C8.959,58 8.694,57.881 8.502,57.665 C8.31,57.448 8.222,57.171 8.256,56.884 L11.889,26 L22.11,26 L25.744,56.883 L25.744,56.883 Z M22.279,24 L11.721,24 L8.24,13.557 C9.643,13.013 12.814,12 17,12 C21.166,12 24.351,13.015 25.76,13.559 L22.279,24 L22.279,24 Z" id="Shape" fill="#000000"></path>
        <path d="M57.447,12.105 C57.305,12.034 54.482,10.651 50.041,10.167 C50.196,8.599 50.774,8.053 51.062,7.997 C51.601,7.964 52.016,7.508 51.999,6.968 C51.982,6.428 51.54,6 51,6 L43,6 C42.454,6 41.982,6.437 41.974,6.982 C41.966,7.528 42.37,7.978 42.916,7.996 C43.24,8.047 43.809,8.583 43.96,10.167 C39.518,10.651 36.694,12.034 36.552,12.105 C36.107,12.328 35.893,12.843 36.051,13.316 L39.981,25.104 L36.27,56.649 C36.17,57.5 36.439,58.354 37.008,58.994 C37.577,59.633 38.394,60 39.25,60 L54.752,60 C55.608,60 56.425,59.633 56.994,58.994 C57.563,58.354 57.832,57.5 57.732,56.649 L54.021,25.104 L57.951,13.316 C58.106,12.844 57.892,12.328 57.447,12.105 L57.447,12.105 Z M45.482,8 L48.529,8 C48.299,8.524 48.124,9.188 48.046,10.021 C47.704,10.008 47.356,10 47,10 C46.644,10 46.297,10.008 45.955,10.021 C45.879,9.188 45.708,8.524 45.482,8 L45.482,8 Z M55.744,56.883 C55.778,57.171 55.69,57.448 55.498,57.665 C55.306,57.881 55.04,58 54.751,58 L39.249,58 C38.959,58 38.694,57.881 38.502,57.665 C38.31,57.448 38.222,57.171 38.256,56.884 L41.889,26 L52.11,26 L55.744,56.883 L55.744,56.883 Z M52.279,24 L41.721,24 L38.24,13.557 C39.643,13.013 42.814,12 47,12 C51.166,12 54.351,13.015 55.76,13.559 L52.279,24 L52.279,24 Z" id="Shape" fill="#000000"></path>
        <path d="M47,42 L45,42 C44.448,42 44,42.447 44,43 L44,51 C44,51.553 44.448,52 45,52 C45.552,52 46,51.553 46,51 L46,48 L47,48 C48.654,48 50,46.654 50,45 C50,43.346 48.654,42 47,42 L47,42 Z M47,46 L46,46 L46,44 L47,44 C47.551,44 48,44.448 48,45 C48,45.552 47.551,46 47,46 L47,46 Z" id="Shape" fill="#000000"></path>
        <path d="M16.998,46 L16.997,46 C16.732,46 16.482,45.896 16.294,45.709 C16.104,45.52 16,45.268 16,45 C16,44.448 16.449,44 17,44 C17.456,44 18.005,44.272 18.135,44.496 C18.412,44.973 19.023,45.137 19.502,44.859 C19.98,44.582 20.142,43.969 19.865,43.492 C19.296,42.513 17.993,42 17,42 C15.346,42 14,43.346 14,45 C14,45.803 14.313,46.558 14.881,47.124 C15.447,47.689 16.198,48 16.995,48 L17,48 C17.551,48 18,48.448 18,49 C18,49.552 17.551,50 17,50 C16.546,50 15.996,49.723 15.864,49.496 C15.586,49.02 14.973,48.859 14.497,49.136 C14.019,49.414 13.858,50.027 14.137,50.504 C14.708,51.486 16.01,52 17,52 C18.654,52 20,50.654 20,49 C20,47.346 18.654,46 16.998,46 L16.998,46 Z" id="Shape" fill="#000000"></path>
    </g>
</svg>