<?xml version="1.0" encoding="UTF-8" standalone="no"?>
<svg width="64px" height="64px" viewBox="0 0 64 64" version="1.1" xmlns="http://www.w3.org/2000/svg" xmlns:xlink="http://www.w3.org/1999/xlink">
    <!-- Generator: Sketch 3.7.2 (28276) - http://www.bohemiancoding.com/sketch -->
    <title>kit-egg-cup</title>
    <desc>Created with Sketch.</desc>
    <defs></defs>
    <g id="64px-Line" stroke="none" stroke-width="1" fill="none" fill-rule="evenodd">
        <g id="kit-egg-cup"></g>
        <path d="M54,5 C54,4.448 53.552,4 53,4 L9,4 C8.448,4 8,4.448 8,5 L8,9 C8,19.917 15.648,29.075 25.865,31.415 C26.54,33.597 27,39.195 27,41.754 C27,47.854 24.441,51.958 22.037,52 L19,52 C15.14,52 12,55.14 12,59 C12,59.552 12.448,60 13,60 L49,60 C49.552,60 50,59.552 50,59 C50,55.14 46.86,52 43,52 L39.963,52 C37.559,51.958 35,47.854 35,41.754 C35,39.195 35.461,33.597 36.136,31.415 C46.353,29.074 54,19.916 54,9 L54,5 L54,5 Z M47.899,58 L14.1,58 C14.564,55.721 16.585,54 18.999,54 L21.98,54 C21.987,54 21.993,54.004 21.999,54.004 C22.014,54.004 22.029,54 22.045,54 L39.954,54 C39.969,54 39.984,54.004 40,54.004 C40.007,54.004 40.013,54 40.019,54 L43,54 C45.415,54 47.435,55.721 47.899,58 L47.899,58 Z M36.118,52 L25.882,52 C27.773,49.829 29,46.09 29,41.754 C29,39.883 28.696,34.831 28.026,31.801 C29,31.928 29.992,32 31,32 C32.009,32 33.001,31.928 33.976,31.801 C33.305,34.831 33,39.883 33,41.754 C33,46.09 34.227,49.829 36.118,52 L36.118,52 Z M52,9 C52,20.58 42.58,30 31,30 C19.42,30 10,20.58 10,9 L10,6 L52,6 L52,9 L52,9 Z" id="Shape" fill="#000000"></path>
        <path d="M31,28 C31.552,28 32,27.552 32,27 C32,26.448 31.552,26 31,26 C21.626,26 14,18.374 14,9 C14,8.448 13.552,8 13,8 C12.448,8 12,8.448 12,9 C12,19.477 20.523,28 31,28 L31,28 Z" id="Shape" fill="#000000"></path>
    </g>
</svg>