<?xml version="1.0" encoding="UTF-8" standalone="no"?>
<svg width="64px" height="64px" viewBox="0 0 64 64" version="1.1" xmlns="http://www.w3.org/2000/svg" xmlns:xlink="http://www.w3.org/1999/xlink">
    <!-- Generator: Sketch 3.7.2 (28276) - http://www.bohemiancoding.com/sketch -->
    <title>kit-coffee-maker</title>
    <desc>Created with Sketch.</desc>
    <defs></defs>
    <g id="64px-Line" stroke="none" stroke-width="1" fill="none" fill-rule="evenodd">
        <g id="kit-coffee-maker"></g>
        <path d="M52,6 L31,6 C12.729,6 10,12.892 10,17 C10,19.757 12.243,22 15,22 L18,22 L18,24 L7,24 C6.447,24 6,24.448 6,25 C6,25.552 6.447,26 7,26 L18,26 L18,29 C18,29.552 18.447,30 19,30 L27,30 C27.553,30 28,29.552 28,29 L28,22 L46,22 L46,48 L30.948,48 C32.216,45.894 34,41.743 34,35 C34,34.448 33.553,34 33,34 L13,34 L11,34 C8.243,34 6,36.243 6,39 C6,41.757 8.243,44 11,44 L13.281,44 C13.843,45.763 14.495,47.075 15.052,48 L13,48 C11.346,48 10,49.346 10,51 L10,55 C10,56.654 11.346,58 13,58 L53,58 C54.654,58 56,56.654 56,55 L56,49 L56,20.917 C58.387,19.531 60,16.953 60,14 C60,9.589 56.411,6 52,6 L52,6 Z M26,28 L20,28 L20,22 L26,22 L26,28 L26,28 Z M11,42 C9.346,42 8,40.654 8,39 C8,37.346 9.346,36 11,36 L12.025,36 C12.088,38.317 12.359,40.312 12.743,42 L11,42 L11,42 Z M14.015,36 L31.986,36 C31.776,43.259 29.324,46.982 28.534,48 L17.468,48 C16.677,46.983 14.224,43.26 14.015,36 L14.015,36 Z M54,55 C54,55.551 53.552,56 53,56 L13,56 C12.448,56 12,55.551 12,55 L12,51 C12,50.449 12.448,50 13,50 L54,50 L54,55 L54,55 Z M54,48 L48,48 L48,22 L52,22 C52.692,22 53.359,21.903 54,21.737 L54,48 L54,48 Z M52,20 L15,20 C13.346,20 12,18.654 12,17 C12,11.196 18.748,8 31,8 L52,8 C55.309,8 58,10.691 58,14 C58,17.309 55.309,20 52,20 L52,20 Z" id="Shape" fill="#000000"></path>
        <path d="M50,10 C47.794,10 46,11.794 46,14 C46,16.206 47.794,18 50,18 C52.206,18 54,16.206 54,14 C54,11.794 52.206,10 50,10 L50,10 Z M50,16 C48.897,16 48,15.103 48,14 C48,12.897 48.897,12 50,12 C51.103,12 52,12.897 52,14 C52,15.103 51.103,16 50,16 L50,16 Z" id="Shape" fill="#000000"></path>
    </g>
</svg>