<?xml version="1.0" encoding="UTF-8" standalone="no"?>
<svg width="64px" height="64px" viewBox="0 0 64 64" version="1.1" xmlns="http://www.w3.org/2000/svg" xmlns:xlink="http://www.w3.org/1999/xlink">
    <!-- Generator: Sketch 3.7.2 (28276) - http://www.bohemiancoding.com/sketch -->
    <title>kit-dishwasher</title>
    <desc>Created with Sketch.</desc>
    <defs></defs>
    <g id="64px-Line" stroke="none" stroke-width="1" fill="none" fill-rule="evenodd">
        <g id="kit-dishwasher"></g>
        <path d="M10,58 L12.184,58 C12.598,59.161 13.698,60 15,60 C16.302,60 17.402,59.161 17.816,58 L44.185,58 C44.599,59.161 45.699,60 47.001,60 C48.303,60 49.403,59.161 49.817,58 L52,58 C54.206,58 56,56.206 56,54 L56,10 C56,7.794 54.206,6 52,6 L10,6 C7.794,6 6,7.794 6,10 L6,54 C6,56.206 7.794,58 10,58 L10,58 Z M52,56 L10,56 C8.897,56 8,55.103 8,54 L8,20 L54,20 L54,54 C54,55.103 53.103,56 52,56 L52,56 Z M10,8 L52,8 C53.103,8 54,8.897 54,10 L54,18 L8,18 L8,10 C8,8.897 8.897,8 10,8 L10,8 Z" id="Shape" fill="#000000"></path>
        <path d="M31,16 C32.654,16 34,14.654 34,13 C34,11.346 32.654,10 31,10 C29.346,10 28,11.346 28,13 C28,14.654 29.346,16 31,16 L31,16 Z M31,12 C31.552,12 32,12.449 32,13 C32,13.551 31.552,14 31,14 C30.448,14 30,13.551 30,13 C30,12.449 30.448,12 31,12 L31,12 Z" id="Shape" fill="#000000"></path>
        <path d="M37,14 L41,14 C41.553,14 42,13.552 42,13 C42,12.448 41.553,12 41,12 L37,12 C36.447,12 36,12.448 36,13 C36,13.552 36.447,14 37,14 L37,14 Z" id="Shape" fill="#000000"></path>
        <path d="M45,14 L49,14 C49.553,14 50,13.552 50,13 C50,12.448 49.553,12 49,12 L45,12 C44.447,12 44,12.448 44,13 C44,13.552 44.447,14 45,14 L45,14 Z" id="Shape" fill="#000000"></path>
        <path d="M13,14 L17,14 C17.553,14 18,13.552 18,13 C18,12.448 17.553,12 17,12 L13,12 C12.447,12 12,12.448 12,13 C12,13.552 12.447,14 13,14 L13,14 Z" id="Shape" fill="#000000"></path>
        <path d="M21,14 L25,14 C25.553,14 26,13.552 26,13 C26,12.448 25.553,12 25,12 L21,12 C20.447,12 20,12.448 20,13 C20,13.552 20.447,14 21,14 L21,14 Z" id="Shape" fill="#000000"></path>
        <path d="M51,44 C50.447,44 50,44.448 50,45 L50,48 L12,48 L12,45 C12,44.448 11.553,44 11,44 C10.447,44 10,44.448 10,45 L10,49 C10,49.552 10.447,50 11,50 L51,50 C51.553,50 52,49.552 52,49 L52,45 C52,44.448 51.553,44 51,44 L51,44 Z" id="Shape" fill="#000000"></path>
        <path d="M24,46 C29.514,46 34,41.514 34,36 C34,30.486 29.514,26 24,26 C18.486,26 14,30.486 14,36 C14,41.514 18.486,46 24,46 L24,46 Z M24,28 C28.411,28 32,31.589 32,36 C32,40.411 28.411,44 24,44 C19.589,44 16,40.411 16,36 C16,31.589 19.589,28 24,28 L24,28 Z" id="Shape" fill="#000000"></path>
        <path d="M37,46 L45,46 C45.553,46 46,45.552 46,45 L46,39 C46,36.586 44.279,34.566 42,34.101 L42,28 L45,28 C45.553,28 46,27.552 46,27 C46,26.448 45.553,26 45,26 L37,26 C36.447,26 36,26.448 36,27 C36,27.552 36.447,28 37,28 L40,28 L40,34.101 C37.721,34.566 36,36.585 36,39 L36,45 C36,45.552 36.447,46 37,46 L37,46 Z M38,39 C38,37.346 39.346,36 41,36 C42.654,36 44,37.346 44,39 L44,44 L38,44 L38,39 L38,39 Z" id="Shape" fill="#000000"></path>
        <path d="M20.465,40.536 C20.721,40.536 20.977,40.438 21.172,40.243 C21.563,39.852 21.563,39.219 21.172,38.829 C20.416,38.073 20,37.068 20,36 C20,34.932 20.416,33.927 21.172,33.171 C22.684,31.66 25.317,31.66 26.828,33.171 C27.219,33.562 27.851,33.562 28.242,33.171 C28.633,32.781 28.633,32.148 28.242,31.757 C27.109,30.624 25.603,30 24,30 C22.397,30 20.891,30.624 19.758,31.757 C18.624,32.891 18,34.397 18,36 C18,37.603 18.624,39.109 19.758,40.243 C19.953,40.438 20.209,40.536 20.465,40.536 L20.465,40.536 Z" id="Shape" fill="#000000"></path>
    </g>
</svg>