<?xml version="1.0" encoding="UTF-8" standalone="no"?>
<svg width="64px" height="64px" viewBox="0 0 64 64" version="1.1" xmlns="http://www.w3.org/2000/svg" xmlns:xlink="http://www.w3.org/1999/xlink">
    <!-- Generator: Sketch 3.7.2 (28276) - http://www.bohemiancoding.com/sketch -->
    <title>kit-knife-fork-plate</title>
    <desc>Created with Sketch.</desc>
    <defs></defs>
    <g id="64px-Line" stroke="none" stroke-width="1" fill="none" fill-rule="evenodd">
        <g id="kit-knife-fork-plate"></g>
        <path d="M33,54 C44.579,54 54,44.58 54,33 C54,21.42 44.579,12 33,12 C21.421,12 12,21.42 12,33 C12,44.58 21.421,54 33,54 L33,54 Z M33,14 C43.477,14 52,22.523 52,33 C52,43.477 43.477,52 33,52 C22.523,52 14,43.477 14,33 C14,22.523 22.523,14 33,14 L33,14 Z" id="Shape" fill="#000000"></path>
        <path d="M63,16 L62,16 C59.794,16 58,17.794 58,20 L58,33 C58,33.552 58.447,34 59,34 L62,34 L62,49 C62,49.552 62.447,50 63,50 C63.553,50 64,49.552 64,49 L64,17 C64,16.448 63.553,16 63,16 L63,16 Z M62,32 L60,32 L60,20 C60,18.897 60.897,18 62,18 L62,32 L62,32 Z" id="Shape" fill="#000000"></path>
        <path d="M4,49 C4,49.552 4.447,50 5,50 C5.553,50 6,49.552 6,49 L6,27.899 C8.279,27.434 10,25.415 10,23 L10,17 C10,16.448 9.553,16 9,16 C8.447,16 8,16.448 8,17 L8,23 C8,24.302 7.161,25.402 6,25.816 L6,17 C6,16.448 5.553,16 5,16 C4.447,16 4,16.448 4,17 L4,25.816 C2.839,25.402 2,24.302 2,23 L2,17 C2,16.448 1.553,16 1,16 C0.447,16 0,16.448 0,17 L0,23 C0,25.414 1.721,27.434 4,27.899 L4,49 L4,49 Z" id="Shape" fill="#000000"></path>
        <path d="M23.101,43.899 C23.357,43.899 23.613,43.801 23.808,43.606 C24.199,43.215 24.199,42.583 23.808,42.192 C18.74,37.123 18.74,28.876 23.808,23.807 C26.264,21.351 29.529,19.999 33,19.999 C36.471,19.999 39.736,21.352 42.192,23.807 C42.583,24.198 43.215,24.198 43.606,23.807 C43.997,23.416 43.997,22.784 43.606,22.393 C37.758,16.544 28.241,16.544 22.393,22.393 C16.544,28.241 16.544,37.758 22.393,43.606 C22.589,43.802 22.845,43.899 23.101,43.899 L23.101,43.899 Z" id="Shape" fill="#000000"></path>
    </g>
</svg>