<?xml version="1.0" encoding="UTF-8" standalone="no"?>
<svg width="64px" height="64px" viewBox="0 0 64 64" version="1.1" xmlns="http://www.w3.org/2000/svg" xmlns:xlink="http://www.w3.org/1999/xlink">
    <!-- Generator: Sketch 3.7.2 (28276) - http://www.bohemiancoding.com/sketch -->
    <title>kit-rolling-pin</title>
    <desc>Created with Sketch.</desc>
    <defs></defs>
    <g id="64px-Line" stroke="none" stroke-width="1" fill="none" fill-rule="evenodd">
        <g id="kit-rolling-pin"></g>
        <path d="M55.924,4 C54.835,4 53.812,4.424 53.042,5.194 L49.558,8.677 C47.269,6.393 43.935,4 40,4 C33.702,4 31.483,6.429 29.339,8.776 C28.271,9.946 27.165,11.156 25.493,12.137 C23.277,13.439 20.86,14.029 18.524,14.599 C15.436,15.352 12.521,16.064 10.293,18.292 C7.665,20.92 7.922,24.611 8.148,27.868 C8.274,29.678 8.392,31.388 8.033,32.742 C7.731,33.881 7.103,35.097 6.439,36.386 C4.803,39.555 2.95,43.147 4.889,47.413 C5.475,48.702 6.37,49.766 7.585,50.649 L5.194,53.041 C4.423,53.811 4,54.834 4,55.923 C4,57.012 4.424,58.035 5.194,58.805 C5.964,59.576 6.987,59.999 8.076,59.999 C9.165,59.999 10.188,59.575 10.958,58.805 L15.874,53.89 C16.796,54.171 17.73,54.491 18.56,54.897 C19.695,55.454 20.665,56.087 21.605,56.7 C24.091,58.322 26.663,60 32.001,60 C37.688,60 40.69,54.397 43.34,49.455 C44.754,46.817 46.089,44.326 47.708,42.707 C49.129,41.286 50.55,40.297 51.924,39.34 C55.185,37.069 58.001,35.109 58.001,29 C58.001,23.206 55.71,17.907 54.406,15.359 L58.807,10.958 C60.396,9.369 60.396,6.783 58.807,5.194 C58.036,4.424 57.013,4 55.924,4 L55.924,4 Z M6.71,46.586 C5.172,43.203 6.72,40.204 8.217,37.304 C8.933,35.916 9.609,34.606 9.967,33.257 C10.411,31.58 10.281,29.711 10.144,27.731 C9.928,24.626 9.724,21.691 11.707,19.708 C13.539,17.876 16.069,17.259 18.998,16.543 C21.476,15.939 24.036,15.314 26.507,13.863 C28.439,12.728 29.701,11.346 30.816,10.126 C32.921,7.82 34.584,6 40,6 C43.266,6 46.138,8.088 48.144,10.092 L44.324,13.912 L44.253,13.841 C42.74,12.328 40.106,12.33 38.597,13.841 L13.84,38.598 C13.084,39.353 12.668,40.357 12.668,41.426 C12.668,42.494 13.084,43.498 13.84,44.254 L13.911,44.325 L9.026,49.21 C7.953,48.492 7.194,47.651 6.71,46.586 L6.71,46.586 Z M48.746,21.161 C49.124,21.539 49.332,22.041 49.332,22.575 C49.332,23.109 49.124,23.611 48.746,23.989 L23.989,48.746 C23.233,49.502 21.917,49.502 21.161,48.746 L15.254,42.839 C14.876,42.461 14.668,41.959 14.668,41.425 C14.668,40.891 14.876,40.389 15.254,40.011 L40.011,15.254 C40.389,14.876 40.891,14.668 41.425,14.668 C41.959,14.668 42.461,14.876 42.839,15.254 L48.746,21.161 L48.746,21.161 Z M9.544,57.392 C8.759,58.177 7.394,58.177 6.608,57.392 C6.215,56.999 6,56.479 6,55.924 C6,55.369 6.216,54.849 6.608,54.456 L9.87,51.194 C9.872,51.192 9.874,51.19 9.876,51.188 L15.325,45.739 L18.261,48.676 L9.544,57.392 L9.544,57.392 Z M56,29 C56,34.064 53.924,35.51 50.78,37.699 C49.401,38.659 47.839,39.747 46.293,41.293 C44.465,43.121 43.062,45.738 41.576,48.51 C39.075,53.176 36.489,58 32,58 C27.257,58 25.144,56.621 22.697,55.025 C21.708,54.379 20.684,53.712 19.44,53.102 C18.806,52.791 18.136,52.533 17.462,52.302 L19.676,50.089 L19.747,50.16 C20.503,50.916 21.507,51.332 22.575,51.332 C23.644,51.332 24.648,50.916 25.403,50.16 L50.16,25.403 C50.916,24.648 51.332,23.644 51.332,22.575 C51.332,21.507 50.916,20.503 50.16,19.747 L50.089,19.676 L52.914,16.851 C54.158,19.407 56,24.025 56,29 L56,29 Z M57.392,9.544 L48.675,18.262 L45.739,15.325 L54.457,6.608 C55.242,5.823 56.607,5.823 57.393,6.608 C58.201,7.418 58.201,8.734 57.392,9.544 L57.392,9.544 Z" id="Shape" fill="#000000"></path>
    </g>
</svg>