<?xml version="1.0" encoding="UTF-8" standalone="no"?>
<svg width="64px" height="64px" viewBox="0 0 64 64" version="1.1" xmlns="http://www.w3.org/2000/svg" xmlns:xlink="http://www.w3.org/1999/xlink">
    <!-- Generator: Sketch 3.7.2 (28276) - http://www.bohemiancoding.com/sketch -->
    <title>kit-hat</title>
    <desc>Created with Sketch.</desc>
    <defs></defs>
    <g id="64px-Line" stroke="none" stroke-width="1" fill="none" fill-rule="evenodd">
        <g id="kit-hat"></g>
        <path d="M31,25.998 C30.448,25.998 30,26.446 30,26.998 L30,39 C30,39.553 30.448,40 31,40 C31.552,40 32,39.553 32,39 L32,26.998 C32,26.446 31.552,25.998 31,25.998 L31,25.998 Z" id="Shape" fill="#000000"></path>
        <path d="M39,25.998 C38.448,25.998 38,26.446 38,26.998 L38,39 C38,39.553 38.448,40 39,40 C39.552,40 40,39.553 40,39 L40,26.998 C40,26.446 39.552,25.998 39,25.998 L39,25.998 Z" id="Shape" fill="#000000"></path>
        <path d="M23,25.998 C22.448,25.998 22,26.446 22,26.998 L22,39 C22,39.553 22.448,40 23,40 C23.552,40 24,39.553 24,39 L24,26.998 C24,26.446 23.552,25.998 23,25.998 L23,25.998 Z" id="Shape" fill="#000000"></path>
        <path d="M45,6 C42.417,6 39.967,6.893 38,8.522 C36.097,6.948 33.657,6 31,6 C28.343,6 25.904,6.947 24,8.521 C22.033,6.892 19.583,6 17,6 C10.935,6 6,10.935 6,17 C6,22.042 9.318,26.45 14,27.783 L14,44.184 C12.839,44.598 12,45.698 12,47 L12,55 C12,56.654 13.346,58 15,58 L47,58 C48.654,58 50,56.654 50,55 L50,47 C50,45.698 49.161,44.598 48,44.184 L48,27.783 C52.681,26.45 56,22.04 56,17 C56,10.935 51.065,6 45,6 L45,6 Z M48,55 C48,55.552 47.551,56 47,56 L15,56 C14.449,56 14,55.552 14,55 L14,47 C14,46.448 14.449,46 15,46 L47,46 C47.551,46 48,46.448 48,47 L48,55 L48,55 Z M46.816,26.015 C46.343,26.104 46,26.516 46,26.998 L46,44 L16,44 L16,26.998 C16,26.522 15.665,26.113 15.199,26.018 C11.095,25.185 8,21.308 8,17 C8,12.038 12.038,8 17,8 C19.048,8 20.994,8.685 22.577,9.939 C20.971,11.851 20,14.313 20,17 C20,17.552 20.448,18 21,18 C21.552,18 22,17.552 22,17 C22,12.038 26.038,8 31,8 C35.962,8 40,12.038 40,17 C40,17.552 40.448,18 41,18 C41.552,18 42,17.552 42,17 C42,14.313 41.029,11.852 39.424,9.939 C41.007,8.684 42.953,8 45,8 C49.962,8 54,12.038 54,17 C54,21.301 50.911,25.177 46.816,26.015 L46.816,26.015 Z" id="Shape" fill="#000000"></path>
    </g>
</svg>