<?xml version="1.0" encoding="UTF-8" standalone="no"?>
<svg width="64px" height="64px" viewBox="0 0 64 64" version="1.1" xmlns="http://www.w3.org/2000/svg" xmlns:xlink="http://www.w3.org/1999/xlink">
    <!-- Generator: Sketch 3.7.2 (28276) - http://www.bohemiancoding.com/sketch -->
    <title>kit-scales</title>
    <desc>Created with Sketch.</desc>
    <defs></defs>
    <g id="64px-Line" stroke="none" stroke-width="1" fill="none" fill-rule="evenodd">
        <g id="kit-scales"></g>
        <path d="M31,44 C32.654,44 34,42.654 34,41 C34,40.538 33.887,40.106 33.699,39.715 L37.707,35.707 C38.098,35.316 38.098,34.684 37.707,34.293 C37.316,33.902 36.684,33.902 36.293,34.293 L32.285,38.301 C31.894,38.114 31.462,38 31,38 C29.346,38 28,39.346 28,41 C28,42.654 29.346,44 31,44 L31,44 Z M31,40 C31.552,40 32,40.449 32,41 C32,41.551 31.552,42 31,42 C30.448,42 30,41.551 30,41 C30,40.449 30.448,40 31,40 L31,40 Z" id="Shape" fill="#000000"></path>
        <path d="M17,18 L45,18 C49.963,18 54,13.962 54,9 L54,5 C54,4.448 53.553,4 53,4 L9,4 C8.447,4 8,4.448 8,5 L8,9 C8,13.962 12.037,18 17,18 L17,18 Z M10,6 L52,6 L52,9 C52,12.86 48.859,16 45,16 L17,16 C13.141,16 10,12.86 10,9 L10,6 L10,6 Z" id="Shape" fill="#000000"></path>
        <path d="M13,60 L49,60 C51.757,60 54,57.758 54,55.002 C54,54.508 53.929,54.023 53.788,53.558 C53.785,53.549 53.783,53.54 53.779,53.531 L45.823,25.68 C45.821,25.671 45.819,25.663 45.816,25.654 C45.216,23.502 43.235,22 41,22 L21,22 C18.765,22 16.784,23.502 16.184,25.654 C16.181,25.663 16.179,25.671 16.177,25.68 L8.221,53.531 C8.217,53.54 8.215,53.549 8.212,53.558 C8.071,54.023 8,54.509 8,55.002 C8,57.758 10.243,60 13,60 L13,60 Z M10.113,54.179 C10.119,54.162 10.125,54.145 10.13,54.129 L18.11,26.193 C18.113,26.182 18.116,26.171 18.119,26.16 C18.489,24.887 19.67,24 21,24 L41,24 C42.33,24 43.511,24.887 43.881,26.16 C43.884,26.171 43.887,26.182 43.89,26.193 L51.87,54.129 C51.875,54.146 51.881,54.163 51.887,54.179 C51.962,54.443 52,54.72 52,55.002 C52,56.655 50.654,58 49,58 L13,58 C11.346,58 10,56.655 10,55.002 C10,54.72 10.038,54.443 10.113,54.179 L10.113,54.179 Z" id="Shape" fill="#000000"></path>
        <path d="M31,54 C38.168,54 44,48.168 44,41 C44,33.832 38.168,28 31,28 C23.832,28 18,33.832 18,41 C18,48.168 23.832,54 31,54 L31,54 Z M31,30 C37.065,30 42,34.935 42,41 C42,47.065 37.065,52 31,52 C24.935,52 20,47.065 20,41 C20,34.935 24.935,30 31,30 L31,30 Z" id="Shape" fill="#000000"></path>
    </g>
</svg>