<?xml version="1.0" encoding="UTF-8" standalone="no"?>
<svg width="64px" height="64px" viewBox="0 0 64 64" version="1.1" xmlns="http://www.w3.org/2000/svg" xmlns:xlink="http://www.w3.org/1999/xlink">
    <!-- Generator: Sketch 3.7.2 (28276) - http://www.bohemiancoding.com/sketch -->
    <title>kit-cutting-board</title>
    <desc>Created with Sketch.</desc>
    <defs></defs>
    <g id="64px-Line" stroke="none" stroke-width="1" fill="none" fill-rule="evenodd">
        <g id="kit-cutting-board"></g>
        <path d="M9,4 C6.243,4 4,6.243 4,9 L4,55 C4,57.757 6.243,60 9,60 L39,60 C41.757,60 44,57.757 44,55 L44,9 C44,6.243 41.757,4 39,4 L9,4 L9,4 Z M42,9 L42,55 C42,56.654 40.654,58 39,58 L9,58 C7.346,58 6,56.654 6,55 L6,9 C6,7.346 7.346,6 9,6 L39,6 C40.654,6 42,7.346 42,9 L42,9 Z" id="Shape" fill="#000000"></path>
        <path d="M33,10 L15,10 C13.346,10 12,11.346 12,13 C12,14.654 13.346,16 15,16 L33,16 C34.654,16 36,14.654 36,13 C36,11.346 34.654,10 33,10 L33,10 Z M33,14 L15,14 C14.448,14 14,13.551 14,13 C14,12.449 14.448,12 15,12 L33,12 C33.552,12 34,12.449 34,13 C34,13.551 33.552,14 33,14 L33,14 Z" id="Shape" fill="#000000"></path>
        <path d="M59.493,4.13 C59.18,3.952 58.795,3.957 58.485,4.143 C58.057,4.4 48.001,10.668 48.001,31 L48,37 C48,37.265 48.105,37.52 48.293,37.707 C48.481,37.894 48.734,38 49,38 C50.654,38 52,39.346 52,41 L52.001,49.528 C50.74,50.659 50.001,52.296 50.001,54 L50.001,57 C50.001,58.654 51.347,60 53.001,60 L56,60 C58.206,60 60,58.206 60,56 L60,5 C60,4.64 59.807,4.307 59.493,4.13 L59.493,4.13 Z M50,36.101 L50.001,31 C50.001,20.992 52.595,14.684 54.772,11.154 C55.938,9.262 57.112,7.946 58.001,7.098 L58.001,40 L53.891,40 C53.491,38.045 51.955,36.499 50,36.101 L50,36.101 Z M56,58 L53.001,58 C52.449,58 52.001,57.552 52.001,57 L52.001,54 C52.001,52.75 52.565,51.601 53.553,50.836 C53.824,50.657 54.001,50.351 54.001,50.002 L54,42 L58,42 L58,56 C58,57.103 57.103,58 56,58 L56,58 Z" id="Shape" fill="#000000"></path>
    </g>
</svg>