<?xml version="1.0" encoding="UTF-8" standalone="no"?>
<svg width="64px" height="64px" viewBox="0 0 64 64" version="1.1" xmlns="http://www.w3.org/2000/svg" xmlns:xlink="http://www.w3.org/1999/xlink">
    <!-- Generator: Sketch 3.7.2 (28276) - http://www.bohemiancoding.com/sketch -->
    <title>kit-knife-fork-spoon</title>
    <desc>Created with Sketch.</desc>
    <defs></defs>
    <g id="64px-Line" stroke="none" stroke-width="1" fill="none" fill-rule="evenodd">
        <g id="kit-knife-fork-spoon"></g>
        <path d="M51,4 C46.038,4 42,9.832 42,17 C42,23.265 45.106,27.452 50,27.95 L50,59 C50,59.553 50.448,60 51,60 C51.552,60 52,59.553 52,59 L52,27.95 C56.894,27.452 60,23.265 60,17 C60,9.832 55.962,4 51,4 L51,4 Z M51,26 C46.682,26 44,22.551 44,17 C44,10.935 47.14,6 51,6 C54.86,6 58,10.935 58,17 C58,22.551 55.318,26 51,26 L51,26 Z" id="Shape" fill="#000000"></path>
        <path d="M33,60 C33.552,60 34,59.553 34,59 L34,5 C34,4.448 33.552,4 33,4 C27.869,4 24,13.136 24,25.25 C24,32.038 27.375,37.264 32,37.926 L32,59 C32,59.553 32.448,60 33,60 L33,60 Z M26,25.25 C26,14.867 28.943,7.579 32,6.242 L32,35.883 C28.566,35.157 26,30.754 26,25.25 L26,25.25 Z" id="Shape" fill="#000000"></path>
        <path d="M10,21.92 L10,59 C10,59.553 10.448,60 11,60 C11.552,60 12,59.553 12,59 L12,21.92 C15.387,21.432 18,18.519 18,15 L18,5 C18,4.448 17.552,4 17,4 C16.448,4 16,4.448 16,5 L16,15 C16,17.415 14.279,19.434 12,19.899 L12,5 C12,4.448 11.552,4 11,4 C10.448,4 10,4.448 10,5 L10,19.899 C7.721,19.434 6,17.415 6,15 L6,5 C6,4.448 5.552,4 5,4 C4.448,4 4,4.448 4,5 L4,15 C4,18.52 6.613,21.432 10,21.92 L10,21.92 Z" id="Shape" fill="#000000"></path>
    </g>
</svg>