<?xml version="1.0" encoding="UTF-8" standalone="no"?>
<svg width="64px" height="64px" viewBox="0 0 64 64" version="1.1" xmlns="http://www.w3.org/2000/svg" xmlns:xlink="http://www.w3.org/1999/xlink">
    <!-- Generator: Sketch 3.7.2 (28276) - http://www.bohemiancoding.com/sketch -->
    <title>kit-pin-spatula</title>
    <desc>Created with Sketch.</desc>
    <defs></defs>
    <g id="64px-Line" stroke="none" stroke-width="1" fill="none" fill-rule="evenodd">
        <g id="kit-pin-spatula"></g>
        <path d="M26,18 C26,15.794 24.206,14 22,14 L22,8 C22,5.794 20.206,4 18,4 C15.794,4 14,5.794 14,8 L14,14 C11.794,14 10,15.794 10,18 L10,46 C10,48.206 11.794,50 14,50 L14,56 C14,58.206 15.794,60 18,60 C20.206,60 22,58.206 22,56 L22,50 C24.206,50 26,48.206 26,46 L26,18 L26,18 Z M16,8 C16,6.897 16.897,6 18,6 C19.103,6 20,6.897 20,8 L20,14 L16,14 L16,8 L16,8 Z M20,56 C20,57.103 19.103,58 18,58 C16.897,58 16,57.103 16,56 L16,50 L20,50 L20,56 L20,56 Z M24,46 C24,47.103 23.103,48 22,48 L14,48 C12.897,48 12,47.103 12,46 L12,18 C12,16.897 12.897,16 14,16 L22,16 C23.103,16 24,16.897 24,18 L24,46 L24,46 Z" id="Shape" fill="#000000"></path>
        <path d="M54,24 L54,8 C54,5.794 52.206,4 50,4 L40,4 C37.794,4 36,5.794 36,8 L36,24 C36,26.206 37.794,28 40,28 L44,28 L44,40 L41,40 C40.447,40 40,40.447 40,41 L40,55 C40,57.757 42.243,60 45,60 C47.757,60 50,57.757 50,55 L50,41 C50,40.447 49.553,40 49,40 L46,40 L46,28 L50,28 C52.206,28 54,26.206 54,24 L54,24 Z M48,55 C48,56.654 46.654,58 45,58 C43.346,58 42,56.654 42,55 L42,42 L48,42 L48,55 L48,55 Z M52,24 C52,25.103 51.103,26 50,26 L40,26 C38.897,26 38,25.103 38,24 L38,8 C38,6.897 38.897,6 40,6 L50,6 C51.103,6 52,6.897 52,8 L52,24 L52,24 Z" id="Shape" fill="#000000"></path>
        <path d="M41,8 C40.447,8 40,8.447 40,9 L40,23 C40,23.553 40.447,24 41,24 C41.553,24 42,23.553 42,23 L42,9 C42,8.447 41.553,8 41,8 L41,8 Z" id="Shape" fill="#000000"></path>
        <path d="M45,8 C44.447,8 44,8.447 44,9 L44,23 C44,23.553 44.447,24 45,24 C45.553,24 46,23.553 46,23 L46,9 C46,8.447 45.553,8 45,8 L45,8 Z" id="Shape" fill="#000000"></path>
        <path d="M49,8 C48.447,8 48,8.447 48,9 L48,23 C48,23.553 48.447,24 49,24 C49.553,24 50,23.553 50,23 L50,9 C50,8.447 49.553,8 49,8 L49,8 Z" id="Shape" fill="#000000"></path>
    </g>
</svg>