<?xml version="1.0" encoding="UTF-8" standalone="no"?>
<svg width="64px" height="64px" viewBox="0 0 64 64" version="1.1" xmlns="http://www.w3.org/2000/svg" xmlns:xlink="http://www.w3.org/1999/xlink">
    <!-- Generator: Sketch 3.7.2 (28276) - http://www.bohemiancoding.com/sketch -->
    <title>kit-juicer-modern</title>
    <desc>Created with Sketch.</desc>
    <defs></defs>
    <g id="64px-Line" stroke="none" stroke-width="1" fill="none" fill-rule="evenodd">
        <g id="kit-juicer-modern"></g>
        <path d="M45.739,30.035 C45.507,30.097 41.718,31.17 37.698,34.356 C39.81,29.698 42,23.342 42,17 C42,6.695 33.649,4.147 33.291,4.044 C33.287,4.043 33.283,4.041 33.279,4.04 C33.277,4.039 33.263,4.035 33.262,4.035 C33.242,4.03 33.224,4.035 33.204,4.031 C33.174,4.025 33.147,4.012 33.117,4.009 C33.08,4.005 33.045,4.014 33.009,4.014 C32.968,4.014 32.928,4.005 32.887,4.009 C32.857,4.012 32.83,4.024 32.801,4.03 C32.781,4.034 32.761,4.029 32.741,4.034 C32.651,4.059 24,6.523 24,17 C24,23.342 26.19,29.698 28.303,34.356 C24.283,31.17 20.494,30.097 20.262,30.035 C19.78,29.898 19.271,30.151 19.078,30.615 C18.87,31.113 14,42.984 14,59 C14,59.553 14.448,60 15,60 C15.552,60 16,59.553 16,59 C16,45.812 19.485,35.265 20.591,32.251 C22.69,33.029 28.205,35.527 32,41.307 L32,60 C32,60.553 32.448,61 33,61 C33.552,61 34,60.553 34,60 L34,41.307 C37.781,35.548 43.307,33.036 45.409,32.253 C46.516,35.27 50,45.814 50,59 C50,59.553 50.448,60 51,60 C51.552,60 52,59.553 52,59 C52,42.984 47.13,31.113 46.923,30.615 C46.73,30.151 46.22,29.898 45.739,30.035 L45.739,30.035 Z M34,33.299 L34,7.609 C34.949,9.191 36,12.052 36,17 C36,22.842 34.996,28.812 34,33.299 L34,33.299 Z M32,7.606 L32,33.303 C31.004,28.818 30,22.848 30,17 C30,12.053 31.051,9.188 32,7.606 L32,7.606 Z M40,17 C40,22.646 38.093,28.426 36.16,32.837 C37.107,28.382 38,22.682 38,17 C38,12.994 37.343,10.183 36.531,8.224 C38.292,9.864 40,12.588 40,17 L40,17 Z M29.469,8.223 C28.657,10.182 28,12.993 28,17 C28,22.686 28.894,28.391 29.842,32.848 C27.909,28.439 26,22.655 26,17 C26,12.588 27.708,9.863 29.469,8.223 L29.469,8.223 Z" id="Shape" fill="#000000"></path>
    </g>
</svg>