<?xml version="1.0" encoding="UTF-8" standalone="no"?>
<svg width="64px" height="64px" viewBox="0 0 64 64" version="1.1" xmlns="http://www.w3.org/2000/svg" xmlns:xlink="http://www.w3.org/1999/xlink">
    <!-- Generator: Sketch 3.7.2 (28276) - http://www.bohemiancoding.com/sketch -->
    <title>kit-mixing-bowl</title>
    <desc>Created with Sketch.</desc>
    <defs></defs>
    <g id="64px-Line" stroke="none" stroke-width="1" fill="none" fill-rule="evenodd">
        <g id="kit-mixing-bowl"></g>
        <path d="M57,28 L7,28 C6.447,28 6,28.448 6,29 L6,31 C6,40.656 11.226,49.052 20,53.6 L20,57 C20,57.552 20.447,58 21,58 L43,58 C43.553,58 44,57.552 44,57 L44,53.6 C52.774,49.055 58,40.658 58,31 L58,29 C58,28.448 57.553,28 57,28 L57,28 Z M42,56 L22,56 L22,54 L42,54 L42,56 L42,56 Z M56,31 C56,40.015 51.049,47.846 42.752,52 L21.248,52 C12.95,47.843 8,40.011 8,31 L8,30 L56,30 L56,31 L56,31 Z" id="Shape" fill="#000000"></path>
        <path d="M21.033,49.863 C21.193,49.958 21.369,50.003 21.543,50.003 C21.885,50.003 22.217,49.828 22.404,49.513 C22.685,49.038 22.529,48.425 22.054,48.143 C16.573,44.891 12.865,39.186 12.136,32.883 C12.074,32.335 11.583,31.934 11.028,32.005 C10.48,32.068 10.087,32.565 10.15,33.113 C10.95,40.033 15.019,46.294 21.033,49.863 L21.033,49.863 Z" id="Shape" fill="#000000"></path>
        <path d="M29.688,12.002 C28.144,8.485 23.789,6 19,6 C12.935,6 8,10.038 8,15 C8,19.962 12.935,24 19,24 C23.788,24 28.144,21.516 29.688,18 L53,18 C54.654,18 56,16.654 56,15 C56,13.346 54.654,12 53,12 L29.688,12.002 L29.688,12.002 Z M54,15 C54,15.551 53.552,16 53,16 L29,16 C28.565,16 28.181,16.28 28.048,16.694 C27.074,19.719 23.185,22 19,22 C14.037,22 10,18.86 10,15 C10,11.14 14.037,8 19,8 C23.185,8 27.074,10.282 28.048,13.308 C28.181,13.722 28.566,14.002 29,14.002 L53,14 C53.552,14 54,14.449 54,15 L54,15 Z" id="Shape" fill="#000000"></path>
        <path d="M19,10 C15.075,10 12,12.196 12,15 C12,15.552 12.447,16 13,16 C13.553,16 14,15.552 14,15 C14,13.374 16.29,12 19,12 C19.553,12 20,11.552 20,11 C20,10.448 19.553,10 19,10 L19,10 Z" id="Shape" fill="#000000"></path>
    </g>
</svg>