<?xml version="1.0" encoding="UTF-8" standalone="no"?>
<svg width="64px" height="64px" viewBox="0 0 64 64" version="1.1" xmlns="http://www.w3.org/2000/svg" xmlns:xlink="http://www.w3.org/1999/xlink">
    <!-- Generator: Sketch 3.7.2 (28276) - http://www.bohemiancoding.com/sketch -->
    <title>kit-mixing-bowl-electric</title>
    <desc>Created with Sketch.</desc>
    <defs></defs>
    <g id="64px-Line" stroke="none" stroke-width="1" fill="none" fill-rule="evenodd">
        <g id="kit-mixing-bowl-electric"></g>
        <path d="M35,6 C12.988,6 12,16.89 12,17 C12,17.552 12.447,18 13,18 L16,18 L16,21 C16,21.552 16.447,22 17,22 L19.523,22 L16.323,30 L7,30 C6.447,30 6,30.448 6,31 C6,42.316 9.092,47.583 11.607,50 L9,50 C7.346,50 6,51.346 6,53 L6,57 C6,58.654 7.346,60 9,60 L55,60 C56.654,60 58,58.654 58,57 L58,51 L58,17 C58,14.146 53.774,6 35,6 L35,6 Z M18,18 L24,18 L24,20 L18,20 L18,18 L18,18 Z M41.903,18 C39.845,40.054 35.486,50 33,50 L30.347,50 C32.866,47.576 36,42.295 36,31 C36,30.448 35.553,30 35,30 L25.677,30 L22.477,22 L25,22 C25.553,22 26,21.552 26,21 L26,18 L41.903,18 L41.903,18 Z M56,50 L36.254,50 C41.14,43.683 43.329,24.194 43.913,18 L56,18 L56,50 L56,50 Z M23.523,30 L22,30 L22,26.193 L23.523,30 L23.523,30 Z M20,26.193 L20,30 L18.477,30 L20,26.193 L20,26.193 Z M8.009,32 L16.998,32 L17.001,32 L17.004,32 L24.997,32 L25,32 L25.003,32 L33.992,32 C33.73,46.851 27.657,49.686 26.839,50 L15.144,50 C14.331,49.726 8.264,47.166 8.009,32 L8.009,32 Z M56,57 C56,57.552 55.552,58 55,58 L9,58 C8.448,58 8,57.552 8,57 L8,53 C8,52.448 8.448,52 9,52 L56,52 L56,57 L56,57 Z M14.232,16 C15.269,13.383 20.088,8 35,8 C50.746,8 54.731,13.655 55.701,16 L14.232,16 L14.232,16 Z" id="Shape" fill="#000000"></path>
    </g>
</svg>