<?xml version="1.0" encoding="UTF-8" standalone="no"?>
<svg width="64px" height="64px" viewBox="0 0 64 64" version="1.1" xmlns="http://www.w3.org/2000/svg" xmlns:xlink="http://www.w3.org/1999/xlink">
    <!-- Generator: Sketch 3.7.2 (28276) - http://www.bohemiancoding.com/sketch -->
    <title>kit-pan-heat</title>
    <desc>Created with Sketch.</desc>
    <defs></defs>
    <g id="64px-Line" stroke="none" stroke-width="1" fill="none" fill-rule="evenodd">
        <g id="kit-pan-heat"></g>
        <path d="M17,10 C17,7.86 14.805,6.335 14.555,6.168 C14.094,5.862 13.474,5.986 13.168,6.445 C12.862,6.904 12.986,7.525 13.445,7.832 C13.773,8.051 15,9.061 15,10 C15,11.197 14.633,11.748 14.168,12.445 C13.647,13.225 13,14.197 13,16 C13,18.14 15.195,19.665 15.445,19.832 C15.615,19.945 15.808,20 15.999,20 C16.322,20 16.639,19.844 16.832,19.555 C17.138,19.096 17.014,18.475 16.555,18.168 C16.227,17.949 15,16.939 15,16 C15,14.803 15.367,14.252 15.832,13.555 C16.353,12.774 17,11.803 17,10 L17,10 Z" id="Shape" fill="#000000"></path>
        <path d="M23,10 C23,7.86 20.805,6.335 20.555,6.168 C20.095,5.862 19.474,5.986 19.168,6.445 C18.862,6.904 18.986,7.525 19.445,7.832 C19.773,8.051 21,9.061 21,10 C21,11.197 20.633,11.748 20.168,12.445 C19.647,13.225 19,14.197 19,16 C19,18.14 21.195,19.665 21.445,19.832 C21.615,19.945 21.808,20 21.999,20 C22.322,20 22.639,19.844 22.832,19.555 C23.138,19.096 23.014,18.475 22.555,18.168 C22.227,17.949 21,16.939 21,16 C21,14.803 21.367,14.252 21.832,13.555 C22.353,12.774 23,11.803 23,10 L23,10 Z" id="Shape" fill="#000000"></path>
        <path d="M29,10 C29,7.86 26.805,6.335 26.555,6.168 C26.094,5.862 25.474,5.986 25.168,6.445 C24.862,6.904 24.986,7.525 25.445,7.832 C25.773,8.051 27,9.061 27,10 C27,11.197 26.633,11.748 26.168,12.445 C25.647,13.225 25,14.197 25,16 C25,18.14 27.195,19.665 27.445,19.832 C27.615,19.945 27.808,20 27.999,20 C28.322,20 28.639,19.844 28.832,19.555 C29.138,19.096 29.014,18.475 28.555,18.168 C28.227,17.949 27,16.939 27,16 C27,14.803 27.367,14.252 27.832,13.555 C28.353,12.774 29,11.803 29,10 L29,10 Z" id="Shape" fill="#000000"></path>
        <path d="M5,32 L37,32 C37.552,32 38,31.553 38,31 C38,30.447 37.552,30 37,30 L27.92,30 C27.432,26.614 24.519,24 21,24 C17.481,24 14.568,26.614 14.08,30 L5,30 C4.448,30 4,30.447 4,31 C4,31.553 4.448,32 5,32 L5,32 Z M21,26 C23.414,26 25.434,27.721 25.899,30 L16.101,30 C16.566,27.721 18.586,26 21,26 L21,26 Z" id="Shape" fill="#000000"></path>
        <path d="M59,28 C44.6,28 38.083,32.75 36.617,34 L5,34 C4.448,34 4,34.447 4,35 L4,53 C4,55.757 6.243,58 9,58 L33,58 C35.757,58 38,55.757 38,53 L38,35.451 C39.347,34.342 45.49,30 59,30 C59.552,30 60,29.553 60,29 C60,28.447 59.552,28 59,28 L59,28 Z M36,53 C36,54.654 34.654,56 33,56 L9,56 C7.346,56 6,54.654 6,53 L6,36 L36,36 L36,53 L36,53 Z" id="Shape" fill="#000000"></path>
        <path d="M10,54.002 C10.552,54.002 11,53.555 11,53.002 C11,52.449 10.552,52.002 10,52.002 L10,39 C10,38.447 9.552,38 9,38 C8.448,38 8,38.447 8,39 L8,52.002 C8,53.104 8.897,54.002 10,54.002 L10,54.002 Z" id="Shape" fill="#000000"></path>
    </g>
</svg>