<?xml version="1.0" encoding="UTF-8" standalone="no"?>
<svg width="64px" height="64px" viewBox="0 0 64 64" version="1.1" xmlns="http://www.w3.org/2000/svg" xmlns:xlink="http://www.w3.org/1999/xlink">
    <!-- Generator: Sketch 3.7.2 (28276) - http://www.bohemiancoding.com/sketch -->
    <title>kit-washing-machine</title>
    <desc>Created with Sketch.</desc>
    <defs></defs>
    <g id="64px-Line" stroke="none" stroke-width="1" fill="none" fill-rule="evenodd">
        <g id="kit-washing-machine"></g>
        <path d="M52,6 L12,6 C9.794,6 8,7.794 8,10 L8,54 C8,56.206 9.794,58 12,58 L14.184,58 C14.598,59.162 15.698,60 17,60 C18.302,60 19.402,59.162 19.816,58 L44.185,58 C44.599,59.162 45.699,60 47.001,60 C48.303,60 49.403,59.162 49.817,58 L52,58 C54.206,58 56,56.206 56,54 L56,10 C56,7.794 54.206,6 52,6 L52,6 Z M12,8 L52,8 C53.103,8 54,8.897 54,10 L54,18 L10,18 L10,10 C10,8.897 10.897,8 12,8 L12,8 Z M52,56 L12,56 C10.897,56 10,55.103 10,54 L10,20 L54,20 L54,54 C54,55.103 53.103,56 52,56 L52,56 Z" id="Shape" fill="#000000"></path>
        <path d="M15,16 C16.654,16 18,14.654 18,13 C18,11.346 16.654,10 15,10 C13.346,10 12,11.346 12,13 C12,14.654 13.346,16 15,16 L15,16 Z M15,12 C15.552,12 16,12.448 16,13 C16,13.552 15.552,14 15,14 C14.448,14 14,13.552 14,13 C14,12.448 14.448,12 15,12 L15,12 Z" id="Shape" fill="#000000"></path>
        <path d="M23,16 C24.654,16 26,14.654 26,13 C26,11.346 24.654,10 23,10 C21.346,10 20,11.346 20,13 C20,14.654 21.346,16 23,16 L23,16 Z M23,12 C23.552,12 24,12.448 24,13 C24,13.552 23.552,14 23,14 C22.448,14 22,13.552 22,13 C22,12.448 22.448,12 23,12 L23,12 Z" id="Shape" fill="#000000"></path>
        <path d="M31,16 C32.654,16 34,14.654 34,13 C34,11.346 32.654,10 31,10 C29.346,10 28,11.346 28,13 C28,14.654 29.346,16 31,16 L31,16 Z M31,12 C31.552,12 32,12.448 32,13 C32,13.552 31.552,14 31,14 C30.448,14 30,13.552 30,13 C30,12.448 30.448,12 31,12 L31,12 Z" id="Shape" fill="#000000"></path>
        <path d="M37,14 L41,14 C41.553,14 42,13.553 42,13 C42,12.447 41.553,12 41,12 L37,12 C36.447,12 36,12.447 36,13 C36,13.553 36.447,14 37,14 L37,14 Z" id="Shape" fill="#000000"></path>
        <path d="M45,14 L49,14 C49.553,14 50,13.553 50,13 C50,12.447 49.553,12 49,12 L45,12 C44.447,12 44,12.447 44,13 C44,13.553 44.447,14 45,14 L45,14 Z" id="Shape" fill="#000000"></path>
        <path d="M32,24 C24.28,24 18,30.28 18,38 C18,45.72 24.28,52 32,52 C39.72,52 46,45.72 46,38 C46,30.28 39.72,24 32,24 L32,24 Z M32,50 C25.383,50 20,44.617 20,38 C20,31.383 25.383,26 32,26 C38.617,26 44,31.383 44,38 C44,44.617 38.617,50 32,50 L32,50 Z" id="Shape" fill="#000000"></path>
        <path d="M32,28 C26.486,28 22,32.486 22,38 C22,43.514 26.486,48 32,48 C37.514,48 42,43.514 42,38 C42,32.486 37.514,28 32,28 L32,28 Z M32,46 C27.589,46 24,42.411 24,38 C24,33.589 27.589,30 32,30 C36.411,30 40,33.589 40,38 C40,42.411 36.411,46 32,46 L32,46 Z" id="Shape" fill="#000000"></path>
        <path d="M32,32 C28.691,32 26,34.691 26,38 C26,38.553 26.447,39 27,39 C27.553,39 28,38.553 28,38 C28,35.794 29.794,34 32,34 C32.553,34 33,33.553 33,33 C33,32.447 32.553,32 32,32 L32,32 Z" id="Shape" fill="#000000"></path>
    </g>
</svg>