<?xml version="1.0" encoding="UTF-8" standalone="no"?>
<svg width="64px" height="64px" viewBox="0 0 64 64" version="1.1" xmlns="http://www.w3.org/2000/svg" xmlns:xlink="http://www.w3.org/1999/xlink">
    <!-- Generator: Sketch 3.7.2 (28276) - http://www.bohemiancoding.com/sketch -->
    <title>kit-oven-glove</title>
    <desc>Created with Sketch.</desc>
    <defs></defs>
    <g id="64px-Line" stroke="none" stroke-width="1" fill="none" fill-rule="evenodd">
        <g id="kit-oven-glove"></g>
        <path d="M52,28 C49.817,28 47.807,29.186 46.749,31.096 L45.249,33.66 C45.131,33.869 44.907,34 44.666,34 C44.299,34 44,33.701 44,33.334 L44,22 C44,12.075 35.925,4 26,4 C16.075,4 8,12.075 8,22 L8,59 C8,59.553 8.447,60 9,60 L43,60 C43.354,60 43.681,59.813 43.86,59.51 L57.269,36.87 C57.747,35.994 57.999,35.002 57.999,34 C58,30.691 55.309,28 52,28 L52,28 Z M55.531,35.882 L42.43,58 L10,58 L10,22 C10,13.178 17.178,6 26,6 C34.822,6 42,13.178 42,22 L42,33.334 C42,34.804 43.196,36 44.666,36 C45.628,36 46.519,35.48 46.983,34.656 L48.481,32.094 C48.485,32.087 48.49,32.079 48.494,32.072 C49.198,30.794 50.542,30 52,30 C54.206,30 56,31.794 56,34 C56,34.668 55.832,35.329 55.531,35.882 L55.531,35.882 Z" id="Shape" fill="#000000"></path>
        <path d="M15,22 C15.256,22 15.512,21.902 15.707,21.707 L25.707,11.707 C26.098,11.316 26.098,10.684 25.707,10.293 C25.316,9.902 24.684,9.902 24.293,10.293 L14.293,20.293 C13.902,20.684 13.902,21.316 14.293,21.707 C14.488,21.902 14.744,22 15,22 L15,22 Z" id="Shape" fill="#000000"></path>
        <path d="M15,32 C15.256,32 15.512,31.902 15.707,31.707 L32.707,14.707 C33.098,14.316 33.098,13.684 32.707,13.293 C32.316,12.902 31.684,12.902 31.293,13.293 L14.293,30.293 C13.902,30.684 13.902,31.316 14.293,31.707 C14.488,31.902 14.744,32 15,32 L15,32 Z" id="Shape" fill="#000000"></path>
        <path d="M15,42 C15.256,42 15.512,41.902 15.707,41.707 L37.707,19.707 C38.098,19.316 38.098,18.684 37.707,18.293 C37.316,17.902 36.684,17.902 36.293,18.293 L14.293,40.293 C13.902,40.684 13.902,41.316 14.293,41.707 C14.488,41.902 14.744,42 15,42 L15,42 Z" id="Shape" fill="#000000"></path>
        <path d="M37.707,28.293 C37.316,27.902 36.684,27.902 36.293,28.293 L14.293,50.293 C13.902,50.684 13.902,51.316 14.293,51.707 C14.488,51.902 14.744,52 15,52 C15.256,52 15.512,51.902 15.707,51.707 L37.707,29.707 C38.098,29.316 38.098,28.684 37.707,28.293 L37.707,28.293 Z" id="Shape" fill="#000000"></path>
        <path d="M38.207,37.793 C37.816,37.402 37.184,37.402 36.793,37.793 L22.293,52.293 C21.902,52.684 21.902,53.316 22.293,53.707 C22.488,53.902 22.744,54 23,54 C23.256,54 23.512,53.902 23.707,53.707 L38.207,39.207 C38.598,38.816 38.598,38.184 38.207,37.793 L38.207,37.793 Z" id="Shape" fill="#000000"></path>
        <path d="M38.293,46.293 L32.293,52.293 C31.902,52.684 31.902,53.316 32.293,53.707 C32.488,53.902 32.744,54 33,54 C33.256,54 33.512,53.902 33.707,53.707 L39.707,47.707 C40.098,47.316 40.098,46.684 39.707,46.293 C39.316,45.902 38.684,45.902 38.293,46.293 L38.293,46.293 Z" id="Shape" fill="#000000"></path>
    </g>
</svg>