<?xml version="1.0" encoding="UTF-8" standalone="no"?>
<svg width="64px" height="64px" viewBox="0 0 64 64" version="1.1" xmlns="http://www.w3.org/2000/svg" xmlns:xlink="http://www.w3.org/1999/xlink">
    <!-- Generator: Sketch 3.7.2 (28276) - http://www.bohemiancoding.com/sketch -->
    <title>kit-carving-knife</title>
    <desc>Created with Sketch.</desc>
    <defs></defs>
    <g id="64px-Line" stroke="none" stroke-width="1" fill="none" fill-rule="evenodd">
        <g id="kit-carving-knife"></g>
        <circle id="Oval" fill="#000000" cx="44" cy="54" r="2"></circle>
        <path d="M49.526,4.149 C49.231,3.966 48.863,3.951 48.553,4.105 C48.04,4.362 36,10.616 36,31 L35.999,37 C35.999,37.265 36.104,37.52 36.292,37.707 C36.48,37.894 36.734,38 36.999,38 C38.653,38 39.999,39.346 39.999,41 L40,49.528 C38.739,50.66 38,52.296 38,54 L38,57 C38,58.654 39.346,60 41,60 L46,60 C48.206,60 50,58.206 50,56 L50,5 C50,4.653 49.82,4.332 49.526,4.149 L49.526,4.149 Z M37.999,36.101 L38,31 C38,16.091 44.92,9.188 48,6.854 L48,40 L41.889,40 C41.49,38.045 39.954,36.499 37.999,36.101 L37.999,36.101 Z M46,58 L41,58 C40.449,58 40,57.552 40,57 L40,54 C40,52.751 40.565,51.601 41.552,50.836 C41.822,50.657 42,50.351 42,50.002 L41.999,42 L48,42 L48,56 C48,57.103 47.103,58 46,58 L46,58 Z" id="Shape" fill="#000000"></path>
        <path d="M27,4 C26.448,4 26,4.447 26,5 L26,19 C26,21.757 23.757,24 21,24 C18.243,24 16,21.757 16,19 L16,5 C16,4.447 15.552,4 15,4 C14.448,4 14,4.447 14,5 L14,19 C14,22.519 16.613,25.432 20,25.92 L20,38 L17,38 C16.448,38 16,38.447 16,39 L16,55 C16,57.757 18.243,60 21,60 C23.757,60 26,57.757 26,55 L26,39 C26,38.447 25.552,38 25,38 L22,38 L22,25.92 C25.387,25.432 28,22.519 28,19 L28,5 C28,4.447 27.552,4 27,4 L27,4 Z M24,55 C24,56.654 22.654,58 21,58 C19.346,58 18,56.654 18,55 L18,40 L24,40 L24,55 L24,55 Z" id="Shape" fill="#000000"></path>
    </g>
</svg>