<?xml version="1.0" encoding="UTF-8" standalone="no"?>
<svg width="64px" height="64px" viewBox="0 0 64 64" version="1.1" xmlns="http://www.w3.org/2000/svg" xmlns:xlink="http://www.w3.org/1999/xlink">
    <!-- Generator: Sketch 3.7.2 (28276) - http://www.bohemiancoding.com/sketch -->
    <title>kit-dryer</title>
    <desc>Created with Sketch.</desc>
    <defs></defs>
    <g id="64px-Line" stroke="none" stroke-width="1" fill="none" fill-rule="evenodd">
        <g id="kit-dryer"></g>
        <path d="M52,6 L12,6 C9.794,6 8,7.794 8,10 L8,54 C8,56.206 9.794,58 12,58 L14.184,58 C14.598,59.162 15.698,60 17,60 C18.302,60 19.402,59.162 19.816,58 L44.185,58 C44.599,59.162 45.699,60 47.001,60 C48.303,60 49.403,59.162 49.817,58 L52,58 C54.206,58 56,56.206 56,54 L56,10 C56,7.794 54.206,6 52,6 L52,6 Z M12,8 L52,8 C53.103,8 54,8.897 54,10 L54,18 L10,18 L10,10 C10,8.897 10.897,8 12,8 L12,8 Z M52,56 L12,56 C10.897,56 10,55.103 10,54 L10,20 L54,20 L54,54 C54,55.103 53.103,56 52,56 L52,56 Z" id="Shape" fill="#000000"></path>
        <path d="M15,16 C16.654,16 18,14.654 18,13 C18,11.346 16.654,10 15,10 C13.346,10 12,11.346 12,13 C12,14.654 13.346,16 15,16 L15,16 Z M15,12 C15.552,12 16,12.448 16,13 C16,13.552 15.552,14 15,14 C14.448,14 14,13.552 14,13 C14,12.448 14.448,12 15,12 L15,12 Z" id="Shape" fill="#000000"></path>
        <path d="M23,16 C24.654,16 26,14.654 26,13 C26,11.346 24.654,10 23,10 C21.346,10 20,11.346 20,13 C20,14.654 21.346,16 23,16 L23,16 Z M23,12 C23.552,12 24,12.448 24,13 C24,13.552 23.552,14 23,14 C22.448,14 22,13.552 22,13 C22,12.448 22.448,12 23,12 L23,12 Z" id="Shape" fill="#000000"></path>
        <path d="M31,16 C32.654,16 34,14.654 34,13 C34,11.346 32.654,10 31,10 C29.346,10 28,11.346 28,13 C28,14.654 29.346,16 31,16 L31,16 Z M31,12 C31.552,12 32,12.448 32,13 C32,13.552 31.552,14 31,14 C30.448,14 30,13.552 30,13 C30,12.448 30.448,12 31,12 L31,12 Z" id="Shape" fill="#000000"></path>
        <path d="M37,14 L41,14 C41.553,14 42,13.553 42,13 C42,12.447 41.553,12 41,12 L37,12 C36.447,12 36,12.447 36,13 C36,13.553 36.447,14 37,14 L37,14 Z" id="Shape" fill="#000000"></path>
        <path d="M45,14 L49,14 C49.553,14 50,13.553 50,13 C50,12.447 49.553,12 49,12 L45,12 C44.447,12 44,12.447 44,13 C44,13.553 44.447,14 45,14 L45,14 Z" id="Shape" fill="#000000"></path>
        <path d="M46,24 L18,24 C15.794,24 14,25.794 14,28 L14,48 C14,50.206 15.794,52 18,52 L46,52 C48.206,52 50,50.206 50,48 L50,28 C50,25.794 48.206,24 46,24 L46,24 Z M48,48 C48,49.103 47.103,50 46,50 L18,50 C16.897,50 16,49.103 16,48 L16,28 C16,26.897 16.897,26 18,26 L46,26 C47.103,26 48,26.897 48,28 L48,48 L48,48 Z" id="Shape" fill="#000000"></path>
        <path d="M21,34 C20.447,34 20,34.447 20,35 L20,41 C20,41.553 20.447,42 21,42 C21.553,42 22,41.553 22,41 L22,35 C22,34.447 21.553,34 21,34 L21,34 Z" id="Shape" fill="#000000"></path>
    </g>
</svg>