<?xml version="1.0" encoding="UTF-8" standalone="no"?>
<svg width="64px" height="64px" viewBox="0 0 64 64" version="1.1" xmlns="http://www.w3.org/2000/svg" xmlns:xlink="http://www.w3.org/1999/xlink">
    <!-- Generator: Sketch 3.7.2 (28276) - http://www.bohemiancoding.com/sketch -->
    <title>kit-juicer</title>
    <desc>Created with Sketch.</desc>
    <defs></defs>
    <g id="64px-Line" stroke="none" stroke-width="1" fill="none" fill-rule="evenodd">
        <g id="kit-juicer"></g>
        <path d="M5,34 L8.155,34 L11.396,53.152 C11.835,56.007 14.14,58 17,58 L45,58 C47.724,58 50.186,55.87 50.601,53.167 L53.845,34 L57,34 C57.552,34 58,33.553 58,33 L58,32 C58,28.691 55.309,26 52,26 L45.975,26 C45.447,10.116 31.409,6.075 31.264,6.035 C31.24,6.029 31.216,6.035 31.191,6.031 C31.158,6.024 31.128,6.016 31.095,6.013 C31.07,6.011 31.047,6.005 31.022,6.005 C31.014,6.005 31.008,6.001 31,6.001 C30.992,6.001 30.986,6.005 30.978,6.005 C30.953,6.005 30.929,6.011 30.904,6.014 C30.872,6.017 30.842,6.025 30.811,6.032 C30.786,6.037 30.761,6.03 30.736,6.037 C30.585,6.079 26.981,7.09 23.353,10.167 C20.12,12.91 16.299,17.865 16.026,26.002 L10,26.002 C6.691,26.002 4,28.693 4,32.002 L4,33.002 C4,33.553 4.448,34 5,34 L5,34 Z M48.627,52.848 C48.355,54.615 46.762,56 45,56 L17,56 C15.15,56 13.659,54.704 13.371,52.833 L10.183,34 L51.816,34 L48.627,52.848 L48.627,52.848 Z M43.976,26 L39.986,26 C39.842,18.463 37.961,13.619 35.994,10.601 C39.568,13.124 43.686,17.798 43.976,26 L43.976,26 Z M24.014,26 C24.223,15.694 27.9,10.882 30,8.971 L30,26 L24.014,26 L24.014,26 Z M32,8.949 C34.098,10.83 37.779,15.606 37.986,26 L32,26 L32,8.949 L32,8.949 Z M26.007,10.601 C24.04,13.619 22.158,18.463 22.015,26 L18.025,26 C18.314,17.798 22.432,13.124 26.007,10.601 L26.007,10.601 Z M10,28 L52,28 C54.206,28 56,29.794 56,32 L6,32 C6,29.794 7.794,28 10,28 L10,28 Z" id="Shape" fill="#000000"></path>
    </g>
</svg>