<?xml version="1.0" encoding="UTF-8" standalone="no"?>
<svg width="64px" height="64px" viewBox="0 0 64 64" version="1.1" xmlns="http://www.w3.org/2000/svg" xmlns:xlink="http://www.w3.org/1999/xlink">
    <!-- Generator: Sketch 3.7.2 (28276) - http://www.bohemiancoding.com/sketch -->
    <title>kit-lid</title>
    <desc>Created with Sketch.</desc>
    <defs></defs>
    <g id="64px-Line" stroke="none" stroke-width="1" fill="none" fill-rule="evenodd">
        <g id="kit-lid"></g>
        <path d="M61,48 L3,48 C2.448,48 2,48.447 2,49 C2,49.553 2.448,50 3,50 L61,50 C61.552,50 62,49.553 62,49 C62,48.447 61.552,48 61,48 L61,48 Z" id="Shape" fill="#000000"></path>
        <path d="M10.024,40.958 C9.998,41.51 10.425,41.979 10.976,42.004 C10.992,42.005 11.008,42.005 11.024,42.005 C11.555,42.005 11.997,41.587 12.022,41.052 C12.521,30.369 21.296,22.002 32,22.002 C32.552,22.002 33,21.555 33,21.002 C33,20.449 32.552,20.002 32,20.002 C20.226,20.002 10.573,29.207 10.024,40.958 L10.024,40.958 Z" id="Shape" fill="#000000"></path>
        <path d="M32,10 C27.841,10 24.417,13.191 24.038,17.252 C13.585,20.623 6,30.44 6,42 L6,45 C6,45.553 6.448,46 7,46 L57,46 C57.552,46 58,45.553 58,45 L58,42 C58,30.44 50.415,20.623 39.962,17.252 C39.583,13.191 36.159,10 32,10 L32,10 Z M32,12 C34.851,12 37.24,14.001 37.847,16.671 C35.966,16.237 34.011,16 32,16 C29.989,16 28.034,16.237 26.153,16.671 C26.76,14.001 29.149,12 32,12 L32,12 Z M56,42 L56,44 L8,44 L8,42 C8,28.767 18.767,18 32,18 C45.233,18 56,28.767 56,42 L56,42 Z" id="Shape" fill="#000000"></path>
    </g>
</svg>