<?xml version="1.0" encoding="UTF-8" standalone="no"?>
<svg width="64px" height="64px" viewBox="0 0 64 64" version="1.1" xmlns="http://www.w3.org/2000/svg" xmlns:xlink="http://www.w3.org/1999/xlink">
    <!-- Generator: Sketch 3.7.2 (28276) - http://www.bohemiancoding.com/sketch -->
    <title>kit-knives</title>
    <desc>Created with Sketch.</desc>
    <defs></defs>
    <g id="64px-Line" stroke="none" stroke-width="1" fill="none" fill-rule="evenodd">
        <g id="kit-knives"></g>
        <circle id="Oval" fill="#000000" cx="54" cy="18" r="2"></circle>
        <path d="M56,12 L5,12 C4.447,12 4,12.447 4,13 L4,31 C4,31.553 4.447,32 5,32 L35,32 C35.553,32 36,31.553 36,31 L36,27 C36,24.243 38.243,22 41,22 L49.526,22 C50.664,23.277 52.267,24 54,24 L57,24 C58.654,24 60,22.654 60,21 L60,16 C60,13.794 58.206,12 56,12 L56,12 Z M34,27 L34,30 L6,30 L6,14 L40,14 L40,20.08 C36.614,20.568 34,23.481 34,27 L34,27 Z M58,21 C58,21.552 57.552,22 57,22 L54,22 C52.753,22 51.604,21.438 50.84,20.454 C50.662,20.181 50.353,20 50.002,20 L42,20 L42,14 L56,14 C57.103,14 58,14.897 58,16 L58,21 L58,21 Z" id="Shape" fill="#000000"></path>
        <circle id="Oval" fill="#000000" cx="10" cy="44" r="2"></circle>
        <path d="M59,38 L8,38 C5.794,38 4,39.794 4,42 L4,47 C4,48.654 5.346,50 7,50 L10,50 C11.731,50 13.335,49.277 14.474,48 L23,48.002 C24.654,48.002 26,49.347 26,51 C26,51.553 26.447,52 27,52 L33,52 C53.384,52 59.638,39.96 59.895,39.447 C60.05,39.137 60.034,38.769 59.851,38.474 C59.668,38.179 59.347,38 59,38 L59,38 Z M13.998,46 C13.647,46 13.339,46.181 13.16,46.454 C12.394,47.437 11.247,48 10,48 L7,48 C6.448,48 6,47.552 6,47 L6,42 C6,40.897 6.897,40 8,40 L22,40 L22,46.002 L13.998,46 L13.998,46 Z M52.803,44.272 C49.282,46.886 42.988,50 33,50 L27.899,50 C27.5,48.046 25.954,46.511 24,46.112 L24,40 L57.156,40 C56.331,41.103 54.93,42.694 52.803,44.272 L52.803,44.272 Z" id="Shape" fill="#000000"></path>
    </g>
</svg>