<?xml version="1.0" encoding="UTF-8" standalone="no"?>
<svg width="64px" height="64px" viewBox="0 0 64 64" version="1.1" xmlns="http://www.w3.org/2000/svg" xmlns:xlink="http://www.w3.org/1999/xlink">
    <!-- Generator: Sketch 3.7.2 (28276) - http://www.bohemiancoding.com/sketch -->
    <title>kit-pot-heat</title>
    <desc>Created with Sketch.</desc>
    <defs></defs>
    <g id="64px-Line" stroke="none" stroke-width="1" fill="none" fill-rule="evenodd">
        <g id="kit-pot-heat"></g>
        <path d="M49.001,32 L47,32 L15,32 L12.999,32 C10.242,32 7.999,34.243 7.999,37 L7.999,41 C7.999,43.757 10.242,46 12.999,46 L14,46 L14,54 C14,57.309 16.691,60 20,60 L42,60 C45.309,60 48,57.309 48,54 L48,46 L49.001,46 C51.758,46 54.001,43.757 54.001,41 L54.001,37 C54.001,34.243 51.758,32 49.001,32 L49.001,32 Z M12.999,44 C11.345,44 9.999,42.654 9.999,41 L9.999,37 C9.999,35.346 11.345,34 12.999,34 L14,34 L14,44 L12.999,44 L12.999,44 Z M46,54 C46,56.206 44.206,58 42,58 L20,58 C17.794,58 16,56.206 16,54 L16,34 L46,34 L46,54 L46,54 Z M52.001,41 C52.001,42.654 50.655,44 49.001,44 L48,44 L48,34 L49.001,34 C50.655,34 52.001,35.346 52.001,37 L52.001,41 L52.001,41 Z" id="Shape" fill="#000000"></path>
        <path d="M21,54 C20.448,54 20,53.552 20,53 L20,37 C20,36.447 19.553,36 19,36 C18.447,36 18,36.447 18,37 L18,53 C18,54.654 19.346,56 21,56 C21.553,56 22,55.553 22,55 C22,54.447 21.553,54 21,54 L21,54 Z" id="Shape" fill="#000000"></path>
        <path d="M23,16 C23,18.14 25.195,19.665 25.445,19.832 C25.615,19.945 25.808,20 25.999,20 C26.322,20 26.64,19.844 26.832,19.555 C27.139,19.096 27.015,18.475 26.555,18.168 C26.227,17.949 25,16.939 25,16 C25,14.803 25.367,14.252 25.832,13.555 C26.353,12.775 27,11.803 27,10 C27,7.86 24.805,6.335 24.555,6.168 C24.096,5.861 23.474,5.985 23.168,6.445 C22.861,6.904 22.985,7.525 23.445,7.832 C23.773,8.051 25,9.061 25,10 C25,11.197 24.633,11.748 24.168,12.445 C23.647,13.226 23,14.197 23,16 L23,16 Z" id="Shape" fill="#000000"></path>
        <path d="M29,16 C29,18.14 31.195,19.665 31.445,19.832 C31.615,19.945 31.808,20 31.999,20 C32.322,20 32.64,19.844 32.832,19.555 C33.139,19.096 33.015,18.475 32.555,18.168 C32.227,17.949 31,16.939 31,16 C31,14.803 31.367,14.252 31.832,13.555 C32.353,12.775 33,11.803 33,10 C33,7.86 30.805,6.335 30.555,6.168 C30.096,5.861 29.474,5.985 29.168,6.445 C28.861,6.904 28.985,7.525 29.445,7.832 C29.773,8.051 31,9.061 31,10 C31,11.197 30.633,11.748 30.168,12.445 C29.647,13.226 29,14.197 29,16 L29,16 Z" id="Shape" fill="#000000"></path>
        <path d="M35,16 C35,18.14 37.195,19.665 37.445,19.832 C37.615,19.945 37.808,20 37.999,20 C38.322,20 38.64,19.844 38.832,19.555 C39.139,19.096 39.015,18.475 38.555,18.168 C38.227,17.949 37,16.939 37,16 C37,14.803 37.367,14.252 37.832,13.555 C38.353,12.775 39,11.803 39,10 C39,7.86 36.805,6.335 36.555,6.168 C36.096,5.861 35.473,5.985 35.168,6.445 C34.861,6.904 34.985,7.525 35.445,7.832 C35.773,8.051 37,9.061 37,10 C37,11.197 36.633,11.748 36.168,12.445 C35.647,13.226 35,14.197 35,16 L35,16 Z" id="Shape" fill="#000000"></path>
        <path d="M12,29 C12,29.553 12.447,30 13,30 L49,30 C49.553,30 50,29.553 50,29 C50,28.447 49.553,28 49,28 L37.92,28 C37.432,24.614 34.519,22 31,22 C27.481,22 24.568,24.614 24.08,28 L13,28 C12.447,28 12,28.447 12,29 L12,29 Z M31,24 C33.414,24 35.434,25.721 35.899,28 L26.101,28 C26.566,25.721 28.586,24 31,24 L31,24 Z" id="Shape" fill="#000000"></path>
    </g>
</svg>