<?xml version="1.0" encoding="UTF-8" standalone="no"?>
<svg width="64px" height="64px" viewBox="0 0 64 64" version="1.1" xmlns="http://www.w3.org/2000/svg" xmlns:xlink="http://www.w3.org/1999/xlink">
    <!-- Generator: Sketch 3.7.2 (28276) - http://www.bohemiancoding.com/sketch -->
    <title>kit-pot</title>
    <desc>Created with Sketch.</desc>
    <defs></defs>
    <g id="64px-Line" stroke="none" stroke-width="1" fill="none" fill-rule="evenodd">
        <g id="kit-pot"></g>
        <path d="M7,16.002 L57,16.002 C57.552,16.002 58,15.554 58,15.002 C58,14.45 57.552,14.002 57,14.002 L40,14.002 L40,13 C40,10.243 37.757,8 35,8 L27,8 C24.243,8 22,10.243 22,13 L22,14.002 L7,14.002 C6.448,14.002 6,14.45 6,15.002 C6,15.554 6.448,16.002 7,16.002 L7,16.002 Z M24,13 C24,11.346 25.346,10 27,10 L35,10 C36.654,10 38,11.346 38,13 L38,14.002 L24,14.002 L24,13 L24,13 Z" id="Shape" fill="#000000"></path>
        <path d="M55.001,18 L53,18 L11,18 L8.999,18 C6.242,18 3.999,20.243 3.999,23 L3.999,27 C3.999,29.757 6.242,32 8.999,32 L10,32 L10,50 C10,53.309 12.691,56 16,56 L48,56 C51.309,56 54,53.309 54,50 L54,32 L55.001,32 C57.758,32 60.001,29.757 60.001,27 L60.001,23 C60.001,20.243 57.758,18 55.001,18 L55.001,18 Z M8.999,30 C7.345,30 5.999,28.654 5.999,27 L5.999,23 C5.999,21.346 7.345,20 8.999,20 L10,20 L10,30 L8.999,30 L8.999,30 Z M52,50 C52,52.206 50.206,54 48,54 L16,54 C13.794,54 12,52.206 12,50 L12,20 L52,20 L52,50 L52,50 Z M58.001,27 C58.001,28.654 56.655,30 55.001,30 L54,30 L54,20 L55.001,20 C56.655,20 58.001,21.346 58.001,23 L58.001,27 L58.001,27 Z" id="Shape" fill="#000000"></path>
        <path d="M17,50 C16.449,50 16,49.551 16,49 L16,23 C16,22.448 15.552,22 15,22 C14.448,22 14,22.448 14,23 L14,49 C14,50.654 15.346,52 17,52 C17.552,52 18,51.552 18,51 C18,50.448 17.552,50 17,50 L17,50 Z" id="Shape" fill="#000000"></path>
    </g>
</svg>