<?xml version="1.0" encoding="UTF-8" standalone="no"?>
<svg width="64px" height="64px" viewBox="0 0 64 64" version="1.1" xmlns="http://www.w3.org/2000/svg" xmlns:xlink="http://www.w3.org/1999/xlink">
    <!-- Generator: Sketch 3.7.2 (28276) - http://www.bohemiancoding.com/sketch -->
    <title>kit-pan-boil</title>
    <desc>Created with Sketch.</desc>
    <defs></defs>
    <g id="64px-Line" stroke="none" stroke-width="1" fill="none" fill-rule="evenodd">
        <g id="kit-pan-boil"></g>
        <path d="M59,24 C44.6,24 38.083,28.75 36.617,30 L5,30 C4.447,30 4,30.448 4,31 L4,53 C4,55.757 6.243,58 9,58 L33,58 C35.757,58 38,55.757 38,53 L38,31.451 C39.347,30.343 45.49,26 59,26 C59.553,26 60,25.552 60,25 C60,24.448 59.553,24 59,24 L59,24 Z M36,53 C36,54.654 34.654,56 33,56 L9,56 C7.346,56 6,54.654 6,53 L6,32 L36,32 L36,53 L36,53 Z" id="Shape" fill="#000000"></path>
        <path d="M10,54 C10.553,54 11,53.553 11,53 C11,52.447 10.553,52 10,52 L10,35 C10,34.447 9.553,34 9,34 C8.447,34 8,34.447 8,35 L8,52 C8,53.103 8.897,54 10,54 L10,54 Z" id="Shape" fill="#000000"></path>
        <path d="M30,11 C30,8.243 27.757,6 25,6 C22.243,6 20,8.243 20,11 C20,13.757 22.243,16 25,16 C27.757,16 30,13.757 30,11 L30,11 Z M25,14 C23.346,14 22,12.654 22,11 C22,9.346 23.346,8 25,8 C26.654,8 28,9.346 28,11 C28,12.654 26.654,14 25,14 L25,14 Z" id="Shape" fill="#000000"></path>
        <path d="M12,22 C14.206,22 16,20.206 16,18 C16,15.794 14.206,14 12,14 C9.794,14 8,15.794 8,18 C8,20.206 9.794,22 12,22 L12,22 Z M12,16 C13.103,16 14,16.897 14,18 C14,19.103 13.103,20 12,20 C10.897,20 10,19.103 10,18 C10,16.897 10.897,16 12,16 L12,16 Z" id="Shape" fill="#000000"></path>
        <path d="M20,23 C20,24.654 21.346,26 23,26 C24.654,26 26,24.654 26,23 C26,21.346 24.654,20 23,20 C21.346,20 20,21.346 20,23 L20,23 Z M24,23 C24,23.551 23.552,24 23,24 C22.448,24 22,23.551 22,23 C22,22.449 22.448,22 23,22 C23.552,22 24,22.449 24,23 L24,23 Z" id="Shape" fill="#000000"></path>
    </g>
</svg>