<?xml version="1.0" encoding="UTF-8" standalone="no"?>
<svg width="64px" height="64px" viewBox="0 0 64 64" version="1.1" xmlns="http://www.w3.org/2000/svg" xmlns:xlink="http://www.w3.org/1999/xlink">
    <!-- Generator: Sketch 3.7.2 (28276) - http://www.bohemiancoding.com/sketch -->
    <title>kit-extractor</title>
    <desc>Created with Sketch.</desc>
    <defs></defs>
    <g id="64px-Line" stroke="none" stroke-width="1" fill="none" fill-rule="evenodd">
        <g id="kit-extractor"></g>
        <path d="M59.858,36.517 C59.808,36.429 59.754,36.344 59.68,36.275 C59.673,36.269 59.671,36.259 59.664,36.253 L42,20.551 L42,5 C42,4.447 41.552,4 41,4 L23,4 C22.448,4 22,4.447 22,5 L22,20.551 L4.335,36.253 C4.328,36.259 4.326,36.269 4.319,36.275 C4.245,36.344 4.191,36.429 4.141,36.517 C4.125,36.546 4.099,36.569 4.085,36.6 C4.032,36.723 4,36.857 4,37 L4,43 C4,43.553 4.448,44 5,44 L59,44 C59.552,44 60,43.553 60,43 L60,37 C60,36.857 59.968,36.723 59.914,36.6 C59.901,36.569 59.875,36.546 59.858,36.517 L59.858,36.517 Z M56.37,36 L7.63,36 L23.38,22 L40.62,22 L56.37,36 L56.37,36 Z M40,6 L40,20 L24,20 L24,6 L40,6 L40,6 Z M6,42 L6,38 L58,38 L58,42 L6,42 L6,42 Z" id="Shape" fill="#000000"></path>
        <path d="M24,51.5 C24,49.659 22.356,48.482 21.385,48.077 C20.876,47.863 20.29,48.105 20.077,48.615 C19.864,49.125 20.105,49.71 20.615,49.923 C20.629,49.929 22,50.543 22,51.5 C22,52.056 21.564,52.783 21.143,53.485 C20.581,54.422 20,55.39 20,56.5 C20,58.341 21.644,59.518 22.615,59.923 C22.741,59.976 22.871,60 23,60 C23.392,60 23.763,59.769 23.923,59.385 C24.136,58.875 23.895,58.29 23.385,58.077 C23.371,58.071 22,57.457 22,56.5 C22,55.944 22.436,55.217 22.857,54.515 C23.419,53.578 24,52.61 24,51.5 L24,51.5 Z" id="Shape" fill="#000000"></path>
        <path d="M34,51.5 C34,49.659 32.356,48.482 31.385,48.077 C30.875,47.863 30.289,48.105 30.077,48.615 C29.864,49.125 30.105,49.71 30.615,49.923 C30.629,49.929 32,50.543 32,51.5 C32,52.056 31.564,52.783 31.143,53.485 C30.581,54.422 30,55.39 30,56.5 C30,58.341 31.644,59.518 32.615,59.923 C32.741,59.976 32.871,60 33,60 C33.392,60 33.763,59.769 33.923,59.385 C34.136,58.875 33.895,58.29 33.385,58.077 C33.371,58.071 32,57.457 32,56.5 C32,55.944 32.436,55.217 32.857,54.515 C33.419,53.578 34,52.61 34,51.5 L34,51.5 Z" id="Shape" fill="#000000"></path>
        <path d="M44,51.5 C44,49.659 42.356,48.482 41.385,48.077 C40.876,47.863 40.29,48.105 40.077,48.615 C39.864,49.125 40.105,49.71 40.615,49.923 C40.629,49.929 42,50.543 42,51.5 C42,52.056 41.564,52.783 41.143,53.485 C40.581,54.422 40,55.39 40,56.5 C40,58.341 41.644,59.518 42.615,59.923 C42.741,59.976 42.871,60 43,60 C43.392,60 43.763,59.769 43.923,59.385 C44.136,58.875 43.895,58.29 43.385,58.077 C43.371,58.071 42,57.457 42,56.5 C42,55.944 42.436,55.217 42.857,54.515 C43.419,53.578 44,52.61 44,51.5 L44,51.5 Z" id="Shape" fill="#000000"></path>
    </g>
</svg>