<?xml version="1.0" encoding="UTF-8" standalone="no"?>
<svg width="64px" height="64px" viewBox="0 0 64 64" version="1.1" xmlns="http://www.w3.org/2000/svg" xmlns:xlink="http://www.w3.org/1999/xlink">
    <!-- Generator: Sketch 3.7.2 (28276) - http://www.bohemiancoding.com/sketch -->
    <title>kit-ladle</title>
    <desc>Created with Sketch.</desc>
    <defs></defs>
    <g id="64px-Line" stroke="none" stroke-width="1" fill="none" fill-rule="evenodd">
        <g id="kit-ladle"></g>
        <path d="M12.374,56.82 C14.199,57.621 16.104,58 17.98,58 C23.371,58 28.519,54.871 30.82,49.627 L32.829,45.05 C32.831,45.046 32.83,45.041 32.832,45.037 C32.835,45.031 32.839,45.027 32.842,45.02 L43.945,17.327 C47.424,7.286 58.46,7.968 58.927,7.997 C59.479,8.049 59.956,7.623 59.997,7.073 C60.038,6.523 59.625,6.044 59.075,6.003 C58.948,5.993 46.042,5.163 42.072,16.628 L31.37,43.318 L8.508,33.282 C8.265,33.176 7.989,33.17 7.743,33.266 C7.496,33.362 7.297,33.553 7.191,33.796 L5.182,38.374 C2.079,45.441 5.305,53.716 12.374,56.82 L12.374,56.82 Z M7.012,39.177 L8.619,35.515 L30.596,45.162 L28.989,48.824 C26.329,54.882 19.236,57.647 13.177,54.989 C7.119,52.328 4.353,45.235 7.012,39.177 L7.012,39.177 Z" id="Shape" fill="#000000"></path>
        <path d="M13.981,53.157 C14.112,53.215 14.248,53.242 14.382,53.242 C14.767,53.242 15.133,53.018 15.298,52.643 C15.52,52.138 15.29,51.547 14.784,51.326 C10.745,49.553 8.901,44.824 10.674,40.785 L11.076,39.869 C11.298,39.363 11.068,38.773 10.563,38.551 C10.058,38.329 9.467,38.559 9.245,39.064 L8.843,39.981 C6.627,45.03 8.932,50.94 13.981,53.157 L13.981,53.157 Z" id="Shape" fill="#000000"></path>
    </g>
</svg>