<?xml version="1.0" encoding="UTF-8" standalone="no"?>
<svg width="64px" height="64px" viewBox="0 0 64 64" version="1.1" xmlns="http://www.w3.org/2000/svg" xmlns:xlink="http://www.w3.org/1999/xlink">
    <!-- Generator: Sketch 3.7.2 (28276) - http://www.bohemiancoding.com/sketch -->
    <title>kit-whisk</title>
    <desc>Created with Sketch.</desc>
    <defs></defs>
    <g id="64px-Line" stroke="none" stroke-width="1" fill="none" fill-rule="evenodd">
        <g id="kit-whisk"></g>
        <path d="M6.943,57.096 C6.946,57.099 6.95,57.104 6.952,57.106 C6.958,57.111 6.97,57.121 6.977,57.127 C8.924,59.051 11.128,60.012 13.551,60.012 C17.373,60.012 21.735,57.627 26.47,52.892 C36.456,42.907 42.235,28.505 43.54,25.012 C43.659,25.021 43.777,25.046 43.896,25.046 C45.162,25.046 46.429,24.565 47.393,23.602 L47.393,23.602 L58.553,12.442 C60.48,10.513 60.48,7.376 58.553,5.449 C57.619,4.515 56.377,4 55.056,4 C53.735,4 52.493,4.515 51.559,5.449 L40.4,16.607 C39.346,17.662 38.89,19.077 38.989,20.46 C35.498,21.764 21.095,27.544 11.109,37.53 C3.346,45.294 1.898,52.052 6.923,57.078 C6.929,57.084 6.936,57.089 6.943,57.096 L6.943,57.096 Z M15.311,41.734 C23.025,34.02 32.806,27.763 37.769,24.816 L7.983,54.603 C7.695,52.818 8.267,48.777 15.311,41.734 L15.311,41.734 Z M9.392,56.021 L39.187,26.225 C36.241,31.186 29.982,40.972 22.265,48.688 C15.205,55.75 11.163,56.307 9.392,56.021 L9.392,56.021 Z M25.056,51.479 C20.079,56.456 15.782,58.57 12.212,57.84 C14.882,57.174 18.64,55.143 23.68,50.103 C30.365,43.418 35.964,35.231 39.338,29.821 C36.607,35.76 31.77,44.764 25.056,51.479 L25.056,51.479 Z M41.813,18.02 L52.971,6.863 C53.528,6.307 54.267,6 55.054,6 C55.841,6 56.58,6.307 57.137,6.863 C58.285,8.011 58.285,9.88 57.137,11.028 L45.978,22.188 C44.829,23.334 42.959,23.335 41.813,22.188 C40.666,21.039 40.666,19.169 41.813,18.02 L41.813,18.02 Z M12.521,38.943 C19.235,32.229 28.24,27.391 34.18,24.661 C28.769,28.035 20.581,33.634 13.896,40.32 C8.856,45.36 6.822,49.119 6.161,51.795 C5.427,48.224 7.541,43.923 12.521,38.943 L12.521,38.943 Z" id="Shape" fill="#000000"></path>
    </g>
</svg>