<?xml version="1.0" encoding="UTF-8" standalone="no"?>
<svg width="64px" height="64px" viewBox="0 0 64 64" version="1.1" xmlns="http://www.w3.org/2000/svg" xmlns:xlink="http://www.w3.org/1999/xlink">
    <!-- Generator: Sketch 3.7.2 (28276) - http://www.bohemiancoding.com/sketch -->
    <title>kit-knife-block</title>
    <desc>Created with Sketch.</desc>
    <defs></defs>
    <g id="64px-Line" stroke="none" stroke-width="1" fill="none" fill-rule="evenodd">
        <g id="kit-knife-block"></g>
        <path d="M29.232,20.028 C28.973,20.09 28.751,20.252 28.612,20.479 L9.077,52.479 C8.271,53.798 7.449,56.431 8.485,58.278 C8.925,59.063 9.874,60 11.884,60 L45.092,60 C45.569,60 45.979,59.663 46.071,59.196 C46.165,58.728 45.915,58.259 45.474,58.076 C45.437,58.06 41.715,56.483 40.673,53.65 C40.213,52.399 40.341,51.1 41.066,49.68 C43.47,44.967 49.808,33.601 49.872,33.487 C50.134,33.019 49.979,32.428 49.522,32.148 L29.988,20.148 C29.762,20.008 29.49,19.965 29.232,20.028 L29.232,20.028 Z M39.286,48.771 C38.307,50.692 38.143,52.569 38.802,54.35 C39.369,55.886 40.469,57.101 41.569,58 L11.885,58 C10.623,58 10.327,57.473 10.23,57.299 C9.728,56.404 10.112,54.623 10.785,53.521 L29.798,22.377 L47.661,33.351 C46.142,36.083 41.322,44.78 39.286,48.771 L39.286,48.771 Z" id="Shape" fill="#000000"></path>
        <path d="M47.555,8.168 L41.555,4.168 C41.324,4.014 41.037,3.964 40.771,4.027 C40.501,4.09 40.27,4.263 40.132,4.504 L32.132,18.504 C31.862,18.976 32.019,19.576 32.484,19.857 L38.855,23.697 C39.012,23.792 39.191,23.841 39.372,23.841 C39.453,23.841 39.534,23.831 39.613,23.811 C39.871,23.747 40.092,23.583 40.229,23.355 C41.956,20.477 42.323,18.531 42.618,16.967 C42.851,15.729 43.036,14.751 43.833,13.555 C45.637,10.849 47.436,9.901 47.448,9.895 C47.766,9.735 47.976,9.418 47.999,9.062 C48.021,8.707 47.852,8.366 47.555,8.168 L47.555,8.168 Z M42.168,12.445 C41.145,13.98 40.905,15.251 40.651,16.596 C40.405,17.902 40.13,19.362 39.008,21.453 L34.352,18.647 L41.336,6.425 L45.221,9.015 C44.391,9.692 43.273,10.788 42.168,12.445 L42.168,12.445 Z" id="Shape" fill="#000000"></path>
        <path d="M42.481,25.855 L48.979,29.793 C49.137,29.888 49.316,29.938 49.498,29.938 C49.578,29.938 49.659,29.928 49.738,29.909 C49.997,29.845 50.218,29.681 50.355,29.453 C52.091,26.559 52.417,24.573 52.677,22.977 C52.881,21.726 53.043,20.737 53.831,19.555 C55.635,16.849 57.434,15.901 57.446,15.895 C57.764,15.735 57.974,15.418 57.997,15.062 C58.019,14.707 57.851,14.366 57.554,14.168 L51.554,10.168 C51.322,10.015 51.036,9.963 50.77,10.027 C50.5,10.09 50.269,10.263 50.131,10.504 L42.131,24.504 C41.862,24.975 42.018,25.574 42.481,25.855 L42.481,25.855 Z M51.337,12.426 L55.222,15.016 C54.391,15.692 53.274,16.787 52.168,18.445 C51.14,19.987 50.928,21.282 50.704,22.653 C50.487,23.977 50.245,25.457 49.136,27.548 L44.352,24.65 L51.337,12.426 L51.337,12.426 Z" id="Shape" fill="#000000"></path>
    </g>
</svg>