<?xml version="1.0" encoding="UTF-8" standalone="no"?>
<svg width="64px" height="64px" viewBox="0 0 64 64" version="1.1" xmlns="http://www.w3.org/2000/svg" xmlns:xlink="http://www.w3.org/1999/xlink">
    <!-- Generator: Sketch 3.7.2 (28276) - http://www.bohemiancoding.com/sketch -->
    <title>kit-butter</title>
    <desc>Created with Sketch.</desc>
    <defs></defs>
    <g id="64px-Line" stroke="none" stroke-width="1" fill="none" fill-rule="evenodd">
        <g id="kit-butter"></g>
        <path d="M10,21 L10,30 C10,31.103 10.897,32 12,32 L52,32 C53.103,32 54,31.103 54,30 L54,21 C54,14.935 49.065,10 43,10 L34.12,10 C34.715,7.402 37.44,5.898 37.469,5.883 C37.875,5.668 38.081,5.204 37.971,4.758 C37.859,4.312 37.459,4 37,4 L25,4 C24.538,4 24.137,4.315 24.028,4.765 C23.919,5.213 24.132,5.678 24.542,5.889 C24.573,5.905 27.3,7.349 27.884,10 L21,10 C14.935,10 10,14.935 10,21 L10,21 Z M52,21 L52,30 L12,30 L12,21 C12,16.037 16.037,12 21,12 L43,12 C47.963,12 52,16.037 52,21 L52,21 Z M27.889,6 L34.135,6 C33.221,6.969 32.345,8.31 32.085,10 L29.918,10 C29.663,8.3 28.797,6.964 27.889,6 L27.889,6 Z" id="Shape" fill="#000000"></path>
        <path d="M57,52 L50,52 L50,39 C50,37.346 48.654,36 47,36 L17,36 C15.346,36 14,37.346 14,39 L14,52 L7,52 C6.447,52 6,52.447 6,53 L6,55 C6,57.757 8.243,60 11,60 L53,60 C55.757,60 58,57.757 58,55 L58,53 C58,52.447 57.553,52 57,52 L57,52 Z M16,39 C16,38.448 16.448,38 17,38 L47,38 C47.552,38 48,38.448 48,39 L48,52 L16,52 L16,39 L16,39 Z M56,55 C56,56.654 54.654,58 53,58 L11,58 C9.346,58 8,56.654 8,55 L8,54 L56,54 L56,55 L56,55 Z" id="Shape" fill="#000000"></path>
        <path d="M21,14 C17.141,14 14,17.141 14,21 L14,27 C14,27.553 14.447,28 15,28 C15.553,28 16,27.553 16,27 L16,21 C16,18.243 18.243,16 21,16 C21.553,16 22,15.553 22,15 C22,14.447 21.553,14 21,14 L21,14 Z" id="Shape" fill="#000000"></path>
    </g>
</svg>