<?xml version="1.0" encoding="UTF-8" standalone="no"?>
<svg width="64px" height="64px" viewBox="0 0 64 64" version="1.1" xmlns="http://www.w3.org/2000/svg" xmlns:xlink="http://www.w3.org/1999/xlink">
    <!-- Generator: Sketch 3.7.2 (28276) - http://www.bohemiancoding.com/sketch -->
    <title>lay-horiz-dist-right</title>
    <desc>Created with Sketch.</desc>
    <defs></defs>
    <g id="64px-Line" stroke="none" stroke-width="1" fill="none" fill-rule="evenodd">
        <g id="lay-horiz-dist-right"></g>
        <path d="M26,59 C26,59.553 26.447,60 27,60 C27.553,60 28,59.553 28,59 L28,49 L28,15 L28,5 C28,4.447 27.553,4 27,4 C26.447,4 26,4.447 26,5 L26,14 L15,14 C14.447,14 14,14.447 14,15 L14,49 C14,49.553 14.447,50 15,50 L26,50 L26,59 L26,59 Z M16,48 L16,16 L26,16 L26,48 L16,48 L16,48 Z" id="Shape" fill="#000000"></path>
        <path d="M49,60 C49.553,60 50,59.553 50,59 L50,41 L50,23 L50,5 C50,4.447 49.553,4 49,4 C48.447,4 48,4.447 48,5 L48,22 L37,22 C36.447,22 36,22.447 36,23 L36,41 C36,41.553 36.447,42 37,42 L48,42 L48,59 C48,59.553 48.447,60 49,60 L49,60 Z M38,40 L38,24 L48,24 L48,40 L38,40 L38,40 Z" id="Shape" fill="#000000"></path>
    </g>
</svg>