<?xml version="1.0" encoding="UTF-8" standalone="no"?>
<svg width="44px" height="44px" viewBox="0 0 44 44" version="1.1" xmlns="http://www.w3.org/2000/svg" xmlns:xlink="http://www.w3.org/1999/xlink">
    <!-- Generator: Sketch 3.7.2 (28276) - http://www.bohemiancoding.com/sketch -->
    <title>lay-path-square</title>
    <desc>Created with Sketch.</desc>
    <defs></defs>
    <g id="44px-Line" stroke="none" stroke-width="1" fill="none" fill-rule="evenodd">
        <g id="lay-path-square"></g>
        <path d="M3,42 L7,42 C7.553,42 8,41.552 8,41 L8,40 L36,40 L36,41 C36,41.552 36.447,42 37,42 L41,42 C41.553,42 42,41.552 42,41 L42,37 C42,36.448 41.553,36 41,36 L40,36 L40,8 L41,8 C41.553,8 42,7.552 42,7 L42,3 C42,2.448 41.553,2 41,2 L37,2 C36.447,2 36,2.448 36,3 L36,4 L8,4 L8,3 C8,2.448 7.553,2 7,2 L3,2 C2.447,2 2,2.448 2,3 L2,7 C2,7.552 2.447,8 3,8 L4,8 L4,36 L3,36 C2.447,36 2,36.448 2,37 L2,41 C2,41.552 2.447,42 3,42 L3,42 Z M40,40 L38,40 L38,38 L40,38 L40,40 L40,40 Z M38,4 L40,4 L40,6 L38,6 L38,4 L38,4 Z M4,4 L6,4 L6,6 L4,6 L4,4 L4,4 Z M6,8 L7,8 C7.553,8 8,7.552 8,7 L8,6 L36,6 L36,7 C36,7.552 36.447,8 37,8 L38,8 L38,36 L37,36 C36.447,36 36,36.448 36,37 L36,38 L8,38 L8,37 C8,36.448 7.553,36 7,36 L6,36 L6,8 L6,8 Z M4,38 L6,38 L6,40 L4,40 L4,38 L4,38 Z" id="Shape" fill="#000000"></path>
    </g>
</svg>