<?xml version="1.0" encoding="UTF-8" standalone="no"?>
<svg width="64px" height="64px" viewBox="0 0 64 64" version="1.1" xmlns="http://www.w3.org/2000/svg" xmlns:xlink="http://www.w3.org/1999/xlink">
    <!-- Generator: Sketch 3.7.2 (28276) - http://www.bohemiancoding.com/sketch -->
    <title>lay-horiz-align-right</title>
    <desc>Created with Sketch.</desc>
    <defs></defs>
    <g id="64px-Line" stroke="none" stroke-width="1" fill="none" fill-rule="evenodd">
        <g id="lay-horiz-align-right"></g>
        <path d="M47,34 L13,34 C12.448,34 12,34.447 12,35 L12,47 C12,47.553 12.448,48 13,48 L47,48 C47.552,48 48,47.553 48,47 L48,35 C48,34.447 47.552,34 47,34 L47,34 Z M46,46 L14,46 L14,36 L46,36 L46,46 L46,46 Z" id="Shape" fill="#000000"></path>
        <path d="M47,16 L29,16 C28.448,16 28,16.447 28,17 L28,29 C28,29.553 28.448,30 29,30 L47,30 C47.552,30 48,29.553 48,29 L48,17 C48,16.447 47.552,16 47,16 L47,16 Z M46,28 L30,28 L30,18 L46,18 L46,28 L46,28 Z" id="Shape" fill="#000000"></path>
        <path d="M51,4 C50.448,4 50,4.447 50,5 L50,59 C50,59.553 50.448,60 51,60 C51.552,60 52,59.553 52,59 L52,5 C52,4.447 51.552,4 51,4 L51,4 Z" id="Shape" fill="#000000"></path>
    </g>
</svg>