<?xml version="1.0" encoding="UTF-8" standalone="no"?>
<svg width="44px" height="44px" viewBox="0 0 44 44" version="1.1" xmlns="http://www.w3.org/2000/svg" xmlns:xlink="http://www.w3.org/1999/xlink">
    <!-- Generator: Sketch 3.7.2 (28276) - http://www.bohemiancoding.com/sketch -->
    <title>lay-vert-dist-bottom</title>
    <desc>Created with Sketch.</desc>
    <defs></defs>
    <g id="44px-Line" stroke="none" stroke-width="1" fill="none" fill-rule="evenodd">
        <g id="lay-vert-dist-bottom"></g>
        <path d="M43,38 L36,38 L36,27 C36,26.447 35.553,26 35,26 L9,26 C8.447,26 8,26.447 8,27 L8,38 L1,38 C0.447,38 0,38.447 0,39 C0,39.553 0.447,40 1,40 L9,40 L35,40 L43,40 C43.553,40 44,39.553 44,39 C44,38.447 43.553,38 43,38 L43,38 Z M10,38 L10,28 L34,28 L34,38 L10,38 L10,38 Z" id="Shape" fill="#000000"></path>
        <path d="M43,16 L30,16 L30,5 C30,4.447 29.553,4 29,4 L15,4 C14.447,4 14,4.447 14,5 L14,16 L1,16 C0.447,16 0,16.447 0,17 C0,17.553 0.447,18 1,18 L15,18 L29,18 L43,18 C43.553,18 44,17.553 44,17 C44,16.447 43.553,16 43,16 L43,16 Z M16,16 L16,6 L28,6 L28,16 L16,16 L16,16 Z" id="Shape" fill="#000000"></path>
    </g>
</svg>