<?xml version="1.0" encoding="UTF-8" standalone="no"?>
<svg width="44px" height="44px" viewBox="0 0 44 44" version="1.1" xmlns="http://www.w3.org/2000/svg" xmlns:xlink="http://www.w3.org/1999/xlink">
    <!-- Generator: Sketch 3.7.2 (28276) - http://www.bohemiancoding.com/sketch -->
    <title>lay-transform-centre</title>
    <desc>Created with Sketch.</desc>
    <defs></defs>
    <g id="44px-Line" stroke="none" stroke-width="1" fill="none" fill-rule="evenodd">
        <g id="lay-transform-centre"></g>
        <path d="M1,44 L5,44 C5.552,44 6,43.552 6,43 L6,42 L18,42 L18,43 C18,43.552 18.448,44 19,44 L23,44 C23.552,44 24,43.552 24,43 L24,42 L36,42 L36,43 C36,43.552 36.448,44 37,44 L41,44 C41.552,44 42,43.552 42,43 L42,39 C42,38.448 41.552,38 41,38 L40,38 L40,26 L41,26 C41.552,26 42,25.552 42,25 L42,21 C42,20.448 41.552,20 41,20 L40,20 L40,8 L41,8 C41.552,8 42,7.552 42,7 L42,3 C42,2.448 41.552,2 41,2 L37,2 C36.448,2 36,2.448 36,3 L36,4 L24,4 L24,3 C24,2.448 23.552,2 23,2 L19,2 C18.448,2 18,2.448 18,3 L18,4 L6,4 L6,3 C6,2.448 5.552,2 5,2 L1,2 C0.448,2 0,2.448 0,3 L0,7 C0,7.552 0.448,8 1,8 L2,8 L2,20 L1,20 C0.448,20 0,20.448 0,21 L0,25 C0,25.552 0.448,26 1,26 L2,26 L2,38 L1,38 C0.448,38 0,38.448 0,39 L0,43 C0,43.552 0.448,44 1,44 L1,44 Z M22,42 L20,42 L20,40 L22,40 L22,42 L22,42 Z M40,42 L38,42 L38,40 L40,40 L40,42 L40,42 Z M40,24 L38,24 L38,22 L40,22 L40,24 L40,24 Z M38,4 L40,4 L40,6 L38,6 L38,4 L38,4 Z M20,4 L22,4 L22,6 L20,6 L20,4 L20,4 Z M2,4 L4,4 L4,6 L2,6 L2,4 L2,4 Z M2,22 L4,22 L4,24 L2,24 L2,22 L2,22 Z M4,26 L5,26 C5.552,26 6,25.552 6,25 L6,21 C6,20.448 5.552,20 5,20 L4,20 L4,8 L5,8 C5.552,8 6,7.552 6,7 L6,6 L18,6 L18,7 C18,7.552 18.448,8 19,8 L23,8 C23.552,8 24,7.552 24,7 L24,6 L36,6 L36,7 C36,7.552 36.448,8 37,8 L38,8 L38,20 L37,20 C36.448,20 36,20.448 36,21 L36,25 C36,25.552 36.448,26 37,26 L38,26 L38,38 L37,38 C36.448,38 36,38.448 36,39 L36,40 L24,40 L24,39 C24,38.448 23.552,38 23,38 L19,38 C18.448,38 18,38.448 18,39 L18,40 L6,40 L6,39 C6,38.448 5.552,38 5,38 L4,38 L4,26 L4,26 Z M2,40 L4,40 L4,42 L2,42 L2,40 L2,40 Z" id="Shape" fill="#000000"></path>
        <path d="M19,26 L23,26 C23.552,26 24,25.552 24,25 L24,21 C24,20.448 23.552,20 23,20 L19,20 C18.448,20 18,20.448 18,21 L18,25 C18,25.552 18.448,26 19,26 L19,26 Z M20,22 L22,22 L22,24 L20,24 L20,22 L20,22 Z" id="Shape" fill="#000000"></path>
    </g>
</svg>