<?xml version="1.0" encoding="UTF-8" standalone="no"?>
<svg width="64px" height="64px" viewBox="0 0 64 64" version="1.1" xmlns="http://www.w3.org/2000/svg" xmlns:xlink="http://www.w3.org/1999/xlink">
    <!-- Generator: Sketch 3.7.2 (28276) - http://www.bohemiancoding.com/sketch -->
    <title>lay-path-arc</title>
    <desc>Created with Sketch.</desc>
    <defs></defs>
    <g id="64px-Line" stroke="none" stroke-width="1" fill="none" fill-rule="evenodd">
        <g id="lay-path-arc"></g>
        <path d="M59,22 C60.654,22 62,20.654 62,19 C62,17.346 60.654,16 59,16 C57.698,16 56.598,16.839 56.184,18 L34,18 L34,17 C34,16.448 33.552,16 33,16 L29,16 C28.448,16 28,16.448 28,17 L28,18 L5.816,18 C5.402,16.839 4.302,16 3,16 C1.346,16 0,17.346 0,19 C0,20.654 1.346,22 3,22 C4.302,22 5.402,21.161 5.816,20 L20.452,20 C10.571,23.891 3.289,33.074 2.161,44 L1,44 C0.448,44 0,44.448 0,45 L0,49 C0,49.552 0.448,50 1,50 L5,50 C5.552,50 6,49.552 6,49 L6,45 C6,44.448 5.552,44 5,44 L4.168,44 C5.552,31.539 15.539,21.553 28,20.168 L28,21 C28,21.552 28.448,22 29,22 L33,22 C33.552,22 34,21.552 34,21 L34,20.168 C46.461,21.552 56.448,31.538 57.832,44 L57,44 C56.448,44 56,44.448 56,45 L56,49 C56,49.552 56.448,50 57,50 L61,50 C61.552,50 62,49.552 62,49 L62,45 C62,44.448 61.552,44 61,44 L59.841,44 C58.712,33.074 51.431,23.89 41.55,20 L56.185,20 C56.598,21.161 57.698,22 59,22 L59,22 Z M4,48 L2,48 L2,46 L4,46 L4,48 L4,48 Z M60,48 L58,48 L58,46 L58.904,46 C58.913,46 58.92,46.005 58.929,46.005 C58.952,46.005 58.976,46.004 59,46.003 C59.003,46.003 59.006,46.001 59.009,46.001 L60,46.001 L60,48 L60,48 Z M32,20 L30,20 L30,18 L32,18 L32,20 L32,20 Z" id="Shape" fill="#000000"></path>
    </g>
</svg>