<?xml version="1.0" encoding="UTF-8" standalone="no"?>
<svg width="64px" height="64px" viewBox="0 0 64 64" version="1.1" xmlns="http://www.w3.org/2000/svg" xmlns:xlink="http://www.w3.org/1999/xlink">
    <!-- Generator: Sketch 3.7.2 (28276) - http://www.bohemiancoding.com/sketch -->
    <title>lay-img-perspective-2</title>
    <desc>Created with Sketch.</desc>
    <defs></defs>
    <g id="64px-Line" stroke="none" stroke-width="1" fill="none" fill-rule="evenodd">
        <g id="lay-img-perspective-2"></g>
        <path d="M57.27,20.037 L7.27,6.037 C6.967,5.95 6.645,6.015 6.396,6.203 C6.146,6.393 6,6.688 6,7 L6,59 C6,59.312 6.146,59.607 6.396,59.797 C6.571,59.93 6.784,60 7,60 C7.09,60 7.181,59.988 7.27,59.963 L57.27,45.963 C57.702,45.842 58,45.448 58,45 L58,21 C58,20.552 57.701,20.158 57.27,20.037 L57.27,20.037 Z M56,32 L48,32 L48,19.519 L56,21.759 L56,32 L56,32 Z M32,32 L32,15.039 L46,18.959 L46,32 L32,32 L32,32 Z M46,34 L46,47.041 L32,50.961 L32,34 L46,34 L46,34 Z M30,14.479 L30,32 L8,32 L8,8.318 L30,14.479 L30,14.479 Z M8,34 L30,34 L30,51.521 L8,57.681 L8,34 L8,34 Z M48,46.481 L48,34 L56,34 L56,44.241 L48,46.481 L48,46.481 Z" id="Shape" fill="#000000"></path>
    </g>
</svg>