<?xml version="1.0" encoding="UTF-8" standalone="no"?>
<svg width="44px" height="44px" viewBox="0 0 44 44" version="1.1" xmlns="http://www.w3.org/2000/svg" xmlns:xlink="http://www.w3.org/1999/xlink">
    <!-- Generator: Sketch 3.7.2 (28276) - http://www.bohemiancoding.com/sketch -->
    <title>lay-path-unite</title>
    <desc>Created with Sketch.</desc>
    <defs></defs>
    <g id="44px-Line" stroke="none" stroke-width="1" fill="none" fill-rule="evenodd">
        <g id="lay-path-unite"></g>
        <path d="M43,10 L34,10 L34,1 C34,0.448 33.553,0 33,0 L1,0 C0.447,0 0,0.448 0,1 L0,33 C0,33.552 0.447,34 1,34 L10,34 L10,43 C10,43.552 10.447,44 11,44 L43,44 C43.553,44 44,43.552 44,43 L44,11 C44,10.448 43.553,10 43,10 L43,10 Z M42,42 L12,42 L12,33 C12,32.448 11.553,32 11,32 L2,32 L2,2 L32,2 L32,11 C32,11.552 32.447,12 33,12 L42,12 L42,42 L42,42 Z" id="Shape" fill="#000000"></path>
        <path d="M29,32 L25,32 C24.447,32 24,32.448 24,33 C24,33.552 24.447,34 25,34 L29,34 C29.553,34 30,33.552 30,33 C30,32.448 29.553,32 29,32 L29,32 Z" id="Shape" fill="#000000"></path>
        <path d="M19,32 L15,32 C14.447,32 14,32.448 14,33 C14,33.552 14.447,34 15,34 L19,34 C19.553,34 20,33.552 20,33 C20,32.448 19.553,32 19,32 L19,32 Z" id="Shape" fill="#000000"></path>
        <path d="M33,26 C32.447,26 32,26.448 32,27 L32,31 C32,31.552 32.447,32 33,32 C33.553,32 34,31.552 34,31 L34,27 C34,26.448 33.553,26 33,26 L33,26 Z" id="Shape" fill="#000000"></path>
        <path d="M32,17 L32,21 C32,21.552 32.447,22 33,22 C33.553,22 34,21.552 34,21 L34,17 C34,16.448 33.553,16 33,16 C32.447,16 32,16.448 32,17 L32,17 Z" id="Shape" fill="#000000"></path>
        <path d="M11,12 C10.447,12 10,12.448 10,13 L10,17 C10,17.552 10.447,18 11,18 C11.553,18 12,17.552 12,17 L12,13 C12,12.448 11.553,12 11,12 L11,12 Z" id="Shape" fill="#000000"></path>
        <path d="M19,10 L15,10 C14.447,10 14,10.448 14,11 C14,11.552 14.447,12 15,12 L19,12 C19.553,12 20,11.552 20,11 C20,10.448 19.553,10 19,10 L19,10 Z" id="Shape" fill="#000000"></path>
        <path d="M29,10 L25,10 C24.447,10 24,10.448 24,11 C24,11.552 24.447,12 25,12 L29,12 C29.553,12 30,11.552 30,11 C30,10.448 29.553,10 29,10 L29,10 Z" id="Shape" fill="#000000"></path>
        <path d="M11,22 C10.447,22 10,22.448 10,23 L10,27 C10,27.552 10.447,28 11,28 C11.553,28 12,27.552 12,27 L12,23 C12,22.448 11.553,22 11,22 L11,22 Z" id="Shape" fill="#000000"></path>
    </g>
</svg>