<?xml version="1.0" encoding="UTF-8" standalone="no"?>
<svg width="44px" height="44px" viewBox="0 0 44 44" version="1.1" xmlns="http://www.w3.org/2000/svg" xmlns:xlink="http://www.w3.org/1999/xlink">
    <!-- Generator: Sketch 3.7.2 (28276) - http://www.bohemiancoding.com/sketch -->
    <title>lay-vert-align-centre</title>
    <desc>Created with Sketch.</desc>
    <defs></defs>
    <g id="44px-Line" stroke="none" stroke-width="1" fill="none" fill-rule="evenodd">
        <g id="lay-vert-align-centre"></g>
        <path d="M43,20 L38,20 L38,11 C38,10.447 37.552,10 37,10 L25,10 C24.448,10 24,10.447 24,11 L24,20 L20,20 L20,3 C20,2.447 19.552,2 19,2 L7,2 C6.448,2 6,2.447 6,3 L6,20 L1,20 C0.448,20 0,20.447 0,21 C0,21.553 0.448,22 1,22 L6,22 L6,39 C6,39.553 6.448,40 7,40 L19,40 C19.552,40 20,39.553 20,39 L20,22 L24,22 L24,31 C24,31.553 24.448,32 25,32 L37,32 C37.552,32 38,31.553 38,31 L38,22 L43,22 C43.552,22 44,21.553 44,21 C44,20.447 43.552,20 43,20 L43,20 Z M18,38 L8,38 L8,4 L18,4 L18,38 L18,38 Z M36,30 L26,30 L26,12 L36,12 L36,30 L36,30 Z" id="Shape" fill="#000000"></path>
    </g>
</svg>