<?xml version="1.0" encoding="UTF-8" standalone="no"?>
<svg width="64px" height="64px" viewBox="0 0 64 64" version="1.1" xmlns="http://www.w3.org/2000/svg" xmlns:xlink="http://www.w3.org/1999/xlink">
    <!-- Generator: Sketch 3.7.2 (28276) - http://www.bohemiancoding.com/sketch -->
    <title>lay-crop</title>
    <desc>Created with Sketch.</desc>
    <defs></defs>
    <g id="64px-Line" stroke="none" stroke-width="1" fill="none" fill-rule="evenodd">
        <g id="lay-crop"></g>
        <path d="M57.707,7.707 C58.098,7.316 58.098,6.684 57.707,6.293 C57.316,5.902 56.684,5.902 56.293,6.293 L48.586,14 L24,14 L24,7 C24,6.447 23.553,6 23,6 L15,6 C14.447,6 14,6.447 14,7 L14,14 L7,14 C6.447,14 6,14.447 6,15 L6,23 C6,23.553 6.447,24 7,24 L14,24 L14,49 C14,49.553 14.447,50 15,50 L40,50 L40,57 C40,57.553 40.447,58 41,58 L49,58 C49.553,58 50,57.553 50,57 L50,50 L57,50 C57.553,50 58,49.553 58,49 L58,41 C58,40.447 57.553,40 57,40 L50,40 L50,15.414 L57.707,7.707 L57.707,7.707 Z M40,40 L25.414,40 L40,25.414 L40,40 L40,40 Z M24,38.586 L24,24 L38.586,24 L24,38.586 L24,38.586 Z M8,22 L8,16 L14,16 L14,22 L8,22 L8,22 Z M48,56 L42,56 L42,50 L48,50 L48,56 L48,56 Z M56,48 L16,48 L16,8 L22,8 L22,41 C22,41.13 22.026,41.26 22.077,41.382 C22.178,41.627 22.373,41.822 22.618,41.923 C22.74,41.974 22.87,42 23,42 L56,42 L56,48 L56,48 Z M42,40 L42,23 C42,22.87 41.974,22.74 41.923,22.618 C41.822,22.373 41.627,22.178 41.382,22.077 C41.26,22.026 41.13,22 41,22 L24,22 L24,16 L48,16 L48,40 L42,40 L42,40 Z" id="Shape" fill="#000000"></path>
    </g>
</svg>