<?xml version="1.0" encoding="UTF-8" standalone="no"?>
<svg width="64px" height="64px" viewBox="0 0 64 64" version="1.1" xmlns="http://www.w3.org/2000/svg" xmlns:xlink="http://www.w3.org/1999/xlink">
    <!-- Generator: Sketch 3.7.2 (28276) - http://www.bohemiancoding.com/sketch -->
    <title>lay-horiz-dist-left</title>
    <desc>Created with Sketch.</desc>
    <defs></defs>
    <g id="64px-Line" stroke="none" stroke-width="1" fill="none" fill-rule="evenodd">
        <g id="lay-horiz-dist-left"></g>
        <path d="M15,6 C14.447,6 14,6.447 14,7 L14,15 L14,49 L14,57 C14,57.553 14.447,58 15,58 C15.553,58 16,57.553 16,57 L16,50 L27,50 C27.553,50 28,49.553 28,49 L28,15 C28,14.447 27.553,14 27,14 L16,14 L16,7 C16,6.447 15.553,6 15,6 L15,6 Z M26,16 L26,48 L16,48 L16,16 L26,16 L26,16 Z" id="Shape" fill="#000000"></path>
        <path d="M37,58 C37.553,58 38,57.553 38,57 L38,42 L49,42 C49.553,42 50,41.553 50,41 L50,23 C50,22.447 49.553,22 49,22 L38,22 L38,7 C38,6.447 37.553,6 37,6 C36.447,6 36,6.447 36,7 L36,23 L36,41 L36,57 C36,57.553 36.447,58 37,58 L37,58 Z M48,24 L48,40 L38,40 L38,24 L48,24 L48,24 Z" id="Shape" fill="#000000"></path>
    </g>
</svg>