<?xml version="1.0" encoding="UTF-8" standalone="no"?>
<svg width="44px" height="44px" viewBox="0 0 44 44" version="1.1" xmlns="http://www.w3.org/2000/svg" xmlns:xlink="http://www.w3.org/1999/xlink">
    <!-- Generator: Sketch 3.7.2 (28276) - http://www.bohemiancoding.com/sketch -->
    <title>lay-vert-align-top</title>
    <desc>Created with Sketch.</desc>
    <defs></defs>
    <g id="44px-Line" stroke="none" stroke-width="1" fill="none" fill-rule="evenodd">
        <g id="lay-vert-align-top"></g>
        <path d="M7,6 C6.447,6 6,6.447 6,7 L6,41 C6,41.553 6.447,42 7,42 L19,42 C19.553,42 20,41.553 20,41 L20,7 C20,6.447 19.553,6 19,6 L7,6 L7,6 Z M18,40 L8,40 L8,8 L18,8 L18,40 L18,40 Z" id="Shape" fill="#000000"></path>
        <path d="M25,6 C24.447,6 24,6.447 24,7 L24,25 C24,25.553 24.447,26 25,26 L37,26 C37.553,26 38,25.553 38,25 L38,7 C38,6.447 37.553,6 37,6 L25,6 L25,6 Z M36,24 L26,24 L26,8 L36,8 L36,24 L36,24 Z" id="Shape" fill="#000000"></path>
        <path d="M1,4 L43,4 C43.553,4 44,3.553 44,3 C44,2.447 43.553,2 43,2 L1,2 C0.447,2 0,2.447 0,3 C0,3.553 0.447,4 1,4 L1,4 Z" id="Shape" fill="#000000"></path>
    </g>
</svg>