<?xml version="1.0" encoding="UTF-8" standalone="no"?>
<svg width="64px" height="64px" viewBox="0 0 64 64" version="1.1" xmlns="http://www.w3.org/2000/svg" xmlns:xlink="http://www.w3.org/1999/xlink">
    <!-- Generator: Sketch 3.7.2 (28276) - http://www.bohemiancoding.com/sketch -->
    <title>lay-path-circle</title>
    <desc>Created with Sketch.</desc>
    <defs></defs>
    <g id="64px-Line" stroke="none" stroke-width="1" fill="none" fill-rule="evenodd">
        <g id="lay-path-circle"></g>
        <path d="M5,36 L6.202,36 C7.57,47.471 16.529,56.43 28,57.797 L28,59 C28,59.552 28.447,60 29,60 L33,60 C33.553,60 34,59.552 34,59 L34,57.797 C45.471,56.43 54.43,47.471 55.798,36 L57,36 C57.553,36 58,35.552 58,35 L58,31 C58,30.448 57.553,30 57,30 L55.798,30 C54.429,18.527 45.47,9.57 34,8.202 L34,7 C34,6.448 33.553,6 33,6 L29,6 C28.447,6 28,6.448 28,7 L28,8.202 C16.529,9.57 7.57,18.529 6.202,30 L5,30 C4.447,30 4,30.448 4,31 L4,35 C4,35.552 4.447,36 5,36 L5,36 Z M32,58 L30,58 L30,56 L32,56 L32,58 L32,58 Z M56,34 L54,34 L54,32 L56,32 L56,34 L56,34 Z M30,8 L32,8 L32,8.989 C32,8.993 31.997,8.996 31.997,8.999 C31.996,9.008 32,9.015 32,9.024 L32,10 L30,10 L30,8 L30,8 Z M28,10.217 L28,11 C28,11.552 28.447,12 29,12 L33,12 C33.553,12 34,11.552 34,11 L34,10.216 C44.359,11.559 52.44,19.639 53.783,30 L53,30 C52.447,30 52,30.448 52,31 L52,35 C52,35.552 52.447,36 53,36 L53.783,36 C52.441,46.359 44.359,54.44 34,55.783 L34,55 C34,54.448 33.553,54 33,54 L29,54 C28.447,54 28,54.448 28,55 L28,55.783 C17.641,54.44 9.559,46.359 8.217,36 L9,36 C9.553,36 10,35.552 10,35 L10,31 C10,30.448 9.553,30 9,30 L8.217,30 C9.559,19.641 17.641,11.559 28,10.217 L28,10.217 Z M6,32 L8,32 L8,34 L6,34 L6,32 L6,32 Z" id="Shape" fill="#000000"></path>
    </g>
</svg>