<?xml version="1.0" encoding="UTF-8" standalone="no"?>
<svg width="64px" height="64px" viewBox="0 0 64 64" version="1.1" xmlns="http://www.w3.org/2000/svg" xmlns:xlink="http://www.w3.org/1999/xlink">
    <!-- Generator: Sketch 3.7.2 (28276) - http://www.bohemiancoding.com/sketch -->
    <title>lay-path-intersect</title>
    <desc>Created with Sketch.</desc>
    <defs></defs>
    <g id="64px-Line" stroke="none" stroke-width="1" fill="none" fill-rule="evenodd">
        <g id="lay-path-intersect"></g>
        <path d="M46,45 L46,19 C46,18.448 45.553,18 45,18 L19,18 C18.447,18 18,18.448 18,19 L18,45 C18,45.552 18.447,46 19,46 L45,46 C45.553,46 46,45.552 46,45 L46,45 Z M44,44 L20,44 L20,20 L44,20 L44,44 L44,44 Z" id="Shape" fill="#000000"></path>
        <path d="M38,57 C38,56.448 37.553,56 37,56 L33,56 C32.447,56 32,56.448 32,57 C32,57.552 32.447,58 33,58 L37,58 C37.553,58 38,57.552 38,57 L38,57 Z" id="Shape" fill="#000000"></path>
        <path d="M19,54 C19.553,54 20,53.552 20,53 L20,49 C20,48.448 19.553,48 19,48 C18.447,48 18,48.448 18,49 L18,53 C18,53.552 18.447,54 19,54 L19,54 Z" id="Shape" fill="#000000"></path>
        <path d="M22,56 C21.447,56 21,56.448 21,57 C21,57.552 21.447,58 22,58 L26,58 C26.553,58 27,57.552 27,57 C27,56.448 26.553,56 26,56 L22,56 L22,56 Z" id="Shape" fill="#000000"></path>
        <path d="M44,58 L48,58 C48.553,58 49,57.552 49,57 C49,56.448 48.553,56 48,56 L44,56 C43.447,56 43,56.448 43,57 C43,57.552 43.447,58 44,58 L44,58 Z" id="Shape" fill="#000000"></path>
        <path d="M58,57 L58,55 C58,54.448 57.553,54 57,54 C56.447,54 56,54.448 56,55 L56,56 L55,56 C54.447,56 54,56.448 54,57 C54,57.552 54.447,58 55,58 L57,58 C57.553,58 58,57.552 58,57 L58,57 Z" id="Shape" fill="#000000"></path>
        <path d="M57,43 C56.447,43 56,43.448 56,44 L56,48 C56,48.552 56.447,49 57,49 C57.553,49 58,48.552 58,48 L58,44 C58,43.448 57.553,43 57,43 L57,43 Z" id="Shape" fill="#000000"></path>
        <path d="M53,18 L49,18 C48.447,18 48,18.448 48,19 C48,19.552 48.447,20 49,20 L53,20 C53.553,20 54,19.552 54,19 C54,18.448 53.553,18 53,18 L53,18 Z" id="Shape" fill="#000000"></path>
        <path d="M58,33 C58,32.448 57.553,32 57,32 C56.447,32 56,32.448 56,33 L56,37 C56,37.552 56.447,38 57,38 C57.553,38 58,37.552 58,37 L58,33 L58,33 Z" id="Shape" fill="#000000"></path>
        <path d="M58,22 C58,21.448 57.553,21 57,21 C56.447,21 56,21.448 56,22 L56,26 C56,26.552 56.447,27 57,27 C57.553,27 58,26.552 58,26 L58,22 L58,22 Z" id="Shape" fill="#000000"></path>
        <path d="M7,26 C6.447,26 6,26.448 6,27 L6,31 C6,31.552 6.447,32 7,32 C7.553,32 8,31.552 8,31 L8,27 C8,26.448 7.553,26 7,26 L7,26 Z" id="Shape" fill="#000000"></path>
        <path d="M7,37 C6.447,37 6,37.448 6,38 L6,42 C6,42.552 6.447,43 7,43 C7.553,43 8,42.552 8,42 L8,38 C8,37.448 7.553,37 7,37 L7,37 Z" id="Shape" fill="#000000"></path>
        <path d="M46,15 L46,11 C46,10.448 45.553,10 45,10 C44.447,10 44,10.448 44,11 L44,15 C44,15.552 44.447,16 45,16 C45.553,16 46,15.552 46,15 L46,15 Z" id="Shape" fill="#000000"></path>
        <path d="M21,7 C21,6.448 20.553,6 20,6 L16,6 C15.447,6 15,6.448 15,7 C15,7.552 15.447,8 16,8 L20,8 C20.553,8 21,7.552 21,7 L21,7 Z" id="Shape" fill="#000000"></path>
        <path d="M7,15 C6.447,15 6,15.448 6,16 L6,20 C6,20.552 6.447,21 7,21 C7.553,21 8,20.552 8,20 L8,16 C8,15.448 7.553,15 7,15 L7,15 Z" id="Shape" fill="#000000"></path>
        <path d="M31,8 C31.553,8 32,7.552 32,7 C32,6.448 31.553,6 31,6 L27,6 C26.447,6 26,6.448 26,7 C26,7.552 26.447,8 27,8 L31,8 L31,8 Z" id="Shape" fill="#000000"></path>
        <path d="M16,45 C16,44.448 15.553,44 15,44 L11,44 C10.447,44 10,44.448 10,45 C10,45.552 10.447,46 11,46 L15,46 C15.553,46 16,45.552 16,45 L16,45 Z" id="Shape" fill="#000000"></path>
        <path d="M42,8 C42.553,8 43,7.552 43,7 C43,6.448 42.553,6 42,6 L38,6 C37.447,6 37,6.448 37,7 C37,7.552 37.447,8 38,8 L42,8 L42,8 Z" id="Shape" fill="#000000"></path>
        <path d="M9,6 L7,6 C6.447,6 6,6.448 6,7 L6,9 C6,9.552 6.447,10 7,10 C7.553,10 8,9.552 8,9 L8,8 L9,8 C9.553,8 10,7.552 10,7 C10,6.448 9.553,6 9,6 L9,6 Z" id="Shape" fill="#000000"></path>
    </g>
</svg>