<?xml version="1.0" encoding="UTF-8" standalone="no"?>
<svg width="64px" height="64px" viewBox="0 0 64 64" version="1.1" xmlns="http://www.w3.org/2000/svg" xmlns:xlink="http://www.w3.org/1999/xlink">
    <!-- Generator: Sketch 3.7.2 (28276) - http://www.bohemiancoding.com/sketch -->
    <title>lay-path-curve</title>
    <desc>Created with Sketch.</desc>
    <defs></defs>
    <g id="64px-Line" stroke="none" stroke-width="1" fill="none" fill-rule="evenodd">
        <g id="lay-path-curve"></g>
        <path d="M7,52 L10.683,52 C15.96,56.011 22.223,57.997 28.473,57.997 C36.07,57.996 43.639,55.08 49.359,49.36 C59.775,38.944 60.888,22.357 52,10.67 L52,7 C52,6.448 51.553,6 51,6 L47,6 C46.447,6 46,6.448 46,7 L46,11 C46,11.552 46.447,12 47,12 L50.485,12 C58.676,22.887 57.621,38.27 47.945,47.945 C38.257,57.633 22.89,58.679 12,50.482 L12,47 C12,46.448 11.553,46 11,46 L7,46 C6.447,46 6,46.448 6,47 L6,51 C6,51.552 6.447,52 7,52 L7,52 Z M50,10 L48,10 L48,8 L50,8 L50,10 L50,10 Z M8,48 L10,48 L10,50 L8,50 L8,48 L8,48 Z" id="Shape" fill="#000000"></path>
    </g>
</svg>