<?xml version="1.0" encoding="UTF-8" standalone="no"?>
<svg width="44px" height="44px" viewBox="0 0 44 44" version="1.1" xmlns="http://www.w3.org/2000/svg" xmlns:xlink="http://www.w3.org/1999/xlink">
    <!-- Generator: Sketch 3.7.2 (28276) - http://www.bohemiancoding.com/sketch -->
    <title>lay-path-triangle</title>
    <desc>Created with Sketch.</desc>
    <defs></defs>
    <g id="44px-Line" stroke="none" stroke-width="1" fill="none" fill-rule="evenodd">
        <g id="lay-path-triangle"></g>
        <path d="M1,40 L5,40 C5.553,40 6,39.552 6,39 L6,38 L36,38 L36,39 C36,39.552 36.447,40 37,40 L41,40 C41.553,40 42,39.552 42,39 L42,35 C42,34.448 41.553,34 41,34 L38.493,34 L23.658,7.74 C23.864,7.557 24,7.297 24,7 L24,3 C24,2.448 23.553,2 23,2 L19,2 C18.447,2 18,2.448 18,3 L18,7 C18,7.298 18.136,7.557 18.342,7.74 L3.507,34 L1,34 C0.447,34 0,34.448 0,35 L0,39 C0,39.552 0.447,40 1,40 L1,40 Z M6,36 L6,35 C6,34.702 5.864,34.443 5.658,34.26 L20.493,8 L21.507,8 L36.342,34.26 C36.136,34.443 36,34.702 36,35 L36,36 L6,36 L6,36 Z M40,38 L38,38 L38,36 L40,36 L40,38 L40,38 Z M20,4 L22,4 L22,6 L20,6 L20,4 L20,4 Z M2,36 L4,36 L4,38 L2,38 L2,36 L2,36 Z" id="Shape" fill="#000000"></path>
    </g>
</svg>