<?xml version="1.0" encoding="UTF-8" standalone="no"?>
<svg width="64px" height="64px" viewBox="0 0 64 64" version="1.1" xmlns="http://www.w3.org/2000/svg" xmlns:xlink="http://www.w3.org/1999/xlink">
    <!-- Generator: Sketch 3.7.2 (28276) - http://www.bohemiancoding.com/sketch -->
    <title>lay-lasso-tool</title>
    <desc>Created with Sketch.</desc>
    <defs></defs>
    <g id="64px-Line" stroke="none" stroke-width="1" fill="none" fill-rule="evenodd">
        <g id="lay-lasso-tool"></g>
        <path d="M32,4 C17.084,4 4,13.813 4,25 C4,31.641 6.154,36.491 11.757,40.993 C10.648,42.121 10,43.497 10,45 C10,48.925 14.393,52 20,52 C22.872,52 25.419,51.19 27.227,49.876 C31.63,53.044 31.997,58.982 32.001,59.049 C32.028,59.583 32.47,59.999 32.999,59.999 C33.016,59.999 33.032,59.999 33.049,59.998 C33.6,59.971 34.025,59.504 33.999,58.953 C33.984,58.644 33.618,52.21 28.719,48.468 C29.314,47.724 29.715,46.891 29.891,46 L32,46 C47.178,46 60,36.383 60,25 C60,13.617 47.178,4 32,4 L32,4 Z M12,45 C12,43.983 12.516,43.026 13.389,42.226 C16.434,44.394 20.333,46.512 25.225,48.744 C23.811,49.52 21.978,50 20,50 C15.663,50 12,47.71 12,45 L12,45 Z M26.412,47.089 C21.763,44.984 18.07,43.026 15.17,41.053 C16.524,40.399 18.201,40 20,40 C24.337,40 28,42.29 28,45 C28,45.859 27.629,46.676 26.988,47.391 C26.795,47.291 26.616,47.181 26.412,47.089 L26.412,47.089 Z M32,44 L29.891,44 C29.216,40.567 25.12,38 20,38 C17.424,38 15.112,38.654 13.356,39.737 C7.989,35.557 6,31.15 6,25 C6,14.879 18.149,6 32,6 C45.851,6 58,14.879 58,25 C58,35.121 45.851,44 32,44 L32,44 Z" id="Shape" fill="#000000"></path>
    </g>
</svg>