<?xml version="1.0" encoding="UTF-8" standalone="no"?>
<svg width="44px" height="44px" viewBox="0 0 44 44" version="1.1" xmlns="http://www.w3.org/2000/svg" xmlns:xlink="http://www.w3.org/1999/xlink">
    <!-- Generator: Sketch 3.7.2 (28276) - http://www.bohemiancoding.com/sketch -->
    <title>lay-reflect-horizontal</title>
    <desc>Created with Sketch.</desc>
    <defs></defs>
    <g id="44px-Line" stroke="none" stroke-width="1" fill="none" fill-rule="evenodd">
        <g id="lay-reflect-horizontal"></g>
        <path d="M20,1 L20,43 C20,43.553 20.448,44 21,44 C21.552,44 22,43.553 22,43 L22,1 C22,0.447 21.552,0 21,0 C20.448,0 20,0.447 20,1 L20,1 Z" id="Shape" fill="#000000"></path>
        <path d="M43.397,6.082 C43.033,5.928 42.606,5.997 42.315,6.27 L26.315,21.27 C26.114,21.46 26,21.724 26,22 C26,22.276 26.114,22.54 26.316,22.729 L42.316,37.729 C42.505,37.907 42.751,38 43,38 C43.134,38 43.27,37.973 43.397,37.918 C43.763,37.759 44,37.398 44,37 L44,7 C44,6.602 43.763,6.241 43.397,6.082 L43.397,6.082 Z M42,34.691 L28.462,22 L42,9.309 L42,34.691 L42,34.691 Z" id="Shape" fill="#000000"></path>
        <path d="M13.294,23.828 C13.486,24.008 13.732,24.097 13.976,24.097 C14.243,24.097 14.51,23.991 14.707,23.78 L15.73,22.683 C16.089,22.298 16.089,21.703 15.73,21.318 L14.707,20.221 C14.331,19.817 13.697,19.797 13.294,20.172 C12.89,20.549 12.868,21.182 13.245,21.586 L13.632,22 L13.245,22.414 C12.869,22.818 12.891,23.451 13.294,23.828 L13.294,23.828 Z" id="Shape" fill="#000000"></path>
        <path d="M8.464,16.463 C8.661,16.674 8.928,16.78 9.195,16.78 C9.44,16.78 9.685,16.691 9.877,16.511 C10.281,16.134 10.303,15.501 9.926,15.097 L7.535,12.535 C7.159,12.132 6.525,12.111 6.122,12.486 C5.718,12.863 5.696,13.496 6.073,13.9 L8.464,16.463 L8.464,16.463 Z" id="Shape" fill="#000000"></path>
        <path d="M1,9.5 C1.338,9.5 1.637,9.332 1.818,9.075 C2.126,9.139 2.459,9.057 2.706,8.828 C3.11,8.451 3.132,7.818 2.755,7.414 L1.732,6.317 C1.452,6.017 1.016,5.92 0.634,6.069 C0.252,6.22 0.001,6.589 0.001,7 L0.001,8.5 C-2.34510762e-14,9.053 0.448,9.5 1,9.5 L1,9.5 Z" id="Shape" fill="#000000"></path>
        <path d="M1,19.625 C1.552,19.625 2,19.178 2,18.625 L2,15.25 C2,14.697 1.552,14.25 1,14.25 C0.448,14.25 0,14.697 0,15.25 L0,18.625 C0,19.178 0.448,19.625 1,19.625 L1,19.625 Z" id="Shape" fill="#000000"></path>
        <path d="M1,29.75 C1.552,29.75 2,29.303 2,28.75 L2,25.375 C2,24.822 1.552,24.375 1,24.375 C0.448,24.375 0,24.822 0,25.375 L0,28.75 C0,29.303 0.448,29.75 1,29.75 L1,29.75 Z" id="Shape" fill="#000000"></path>
        <path d="M0.633,37.931 C0.752,37.978 0.876,38 1,38 C1.272,38 1.538,37.889 1.731,37.683 L2.754,36.586 C3.131,36.182 3.109,35.549 2.705,35.172 C2.459,34.943 2.126,34.858 1.817,34.925 C1.636,34.668 1.337,34.5 0.999,34.5 C0.447,34.5 -0.001,34.947 -0.001,35.5 L-0.001,37 C-2.84217094e-14,37.411 0.251,37.779 0.633,37.931 L0.633,37.931 Z" id="Shape" fill="#000000"></path>
        <path d="M6.123,31.512 C6.315,31.692 6.561,31.781 6.805,31.781 C7.072,31.781 7.339,31.675 7.536,31.464 L9.927,28.902 C10.304,28.498 10.282,27.865 9.878,27.488 C9.475,27.112 8.842,27.134 8.465,27.537 L6.074,30.099 C5.697,30.502 5.719,31.135 6.123,31.512 L6.123,31.512 Z" id="Shape" fill="#000000"></path>
    </g>
</svg>