<?xml version="1.0" encoding="UTF-8" standalone="no"?>
<svg width="44px" height="44px" viewBox="0 0 44 44" version="1.1" xmlns="http://www.w3.org/2000/svg" xmlns:xlink="http://www.w3.org/1999/xlink">
    <!-- Generator: Sketch 3.7.2 (28276) - http://www.bohemiancoding.com/sketch -->
    <title>lay-path-pentagon</title>
    <desc>Created with Sketch.</desc>
    <defs></defs>
    <g id="44px-Line" stroke="none" stroke-width="1" fill="none" fill-rule="evenodd">
        <g id="lay-path-pentagon"></g>
        <path d="M1,22 L2.98,22 L7.109,36 L7,36 C6.448,36 6,36.448 6,37 L6,41 C6,41.552 6.448,42 7,42 L11,42 C11.552,42 12,41.552 12,41 L12,40 L30,40 L30,41 C30,41.552 30.448,42 31,42 L35,42 C35.552,42 36,41.552 36,41 L36,37 C36,36.448 35.552,36 35,36 L34.891,36 L39.021,22 L41,22 C41.552,22 42,21.552 42,21 L42,17 C42,16.448 41.552,16 41,16 L37,16 C36.918,16 36.844,16.028 36.768,16.047 L24,6.015 L24,3 C24,2.448 23.552,2 23,2 L19,2 C18.448,2 18,2.448 18,3 L18,6.014 L5.231,16.046 C5.155,16.028 5.082,16 5,16 L1,16 C0.448,16 0,16.448 0,17 L0,21 C0,21.552 0.448,22 1,22 L1,22 Z M10,40 L8,40 L8,38 L10,38 L10,40 L10,40 Z M34,40 L32,40 L32,38 L33.551,38 L33.554,38 L33.557,38 L34,38 L34,40 L34,40 Z M31,36 C30.448,36 30,36.448 30,37 L30,38 L12,38 L12,37 C12,36.448 11.552,36 11,36 L9.193,36 L5.06,21.988 C5.583,21.955 6,21.531 6,21 L6,17.986 L18.769,7.954 C18.845,7.972 18.918,8 19,8 L23,8 C23.082,8 23.155,7.972 23.231,7.953 L36,17.986 L36,21 C36,21.531 36.417,21.955 36.94,21.988 L32.806,36 L31,36 L31,36 Z M38,18 L40,18 L40,20 L38,20 L38,18 L38,18 Z M20,4 L22,4 L22,6 L20,6 L20,4 L20,4 Z M2,18 L4,18 L4,20 L2,20 L2,18 L2,18 Z" id="Shape" fill="#000000"></path>
    </g>
</svg>