<?xml version="1.0" encoding="UTF-8" standalone="no"?>
<svg width="64px" height="64px" viewBox="0 0 64 64" version="1.1" xmlns="http://www.w3.org/2000/svg" xmlns:xlink="http://www.w3.org/1999/xlink">
    <!-- Generator: Sketch 3.7.2 (28276) - http://www.bohemiancoding.com/sketch -->
    <title>lay-path-hexagon</title>
    <desc>Created with Sketch.</desc>
    <defs></defs>
    <g id="64px-Line" stroke="none" stroke-width="1" fill="none" fill-rule="evenodd">
        <g id="lay-path-hexagon"></g>
        <path d="M7,48 L11,48 C11.306,48 11.569,47.855 11.753,47.64 L28,56.503 L28,59 C28,59.552 28.447,60 29,60 L33,60 C33.553,60 34,59.552 34,59 L34,56.503 L50.248,47.64 C50.431,47.856 50.695,48 51,48 L55,48 C55.553,48 56,47.552 56,47 L56,43 C56,42.448 55.553,42 55,42 L54,42 L54,22 L55,22 C55.553,22 56,21.552 56,21 L56,17 C56,16.448 55.553,16 55,16 L51,16 C50.695,16 50.431,16.144 50.248,16.36 L34,7.497 L34,5 C34,4.448 33.553,4 33,4 L29,4 C28.447,4 28,4.448 28,5 L28,7.497 L11.752,16.36 C11.569,16.144 11.305,16 11,16 L7,16 C6.447,16 6,16.448 6,17 L6,21 C6,21.552 6.447,22 7,22 L8,22 L8,42 L7,42 C6.447,42 6,42.448 6,43 L6,47 C6,47.552 6.447,48 7,48 L7,48 Z M32,58 L30,58 L30,56 L32,56 L32,58 L32,58 Z M54,46 L52,46 L52,44 L54,44 L54,46 L54,46 Z M52,18 L54,18 L54,20 L52,20 L52,18 L52,18 Z M30,6 L32,6 L32,8 L30,8 L30,6 L30,6 Z M8,18 L10,18 L10,20 L8,20 L8,18 L8,18 Z M10,22 L11,22 C11.553,22 12,21.552 12,21 L12,18.503 L28.248,9.64 C28.431,9.856 28.695,10 29,10 L33,10 C33.306,10 33.569,9.855 33.753,9.64 L50,18.503 L50,21 C50,21.552 50.447,22 51,22 L52,22 L52,42 L51,42 C50.447,42 50,42.448 50,43 L50,45.497 L33.752,54.36 C33.569,54.144 33.305,54 33,54 L29,54 C28.695,54 28.431,54.144 28.248,54.36 L12,45.497 L12,43 C12,42.448 11.553,42 11,42 L10,42 L10,22 L10,22 Z M8,44 L10,44 L10,46 L8,46 L8,44 L8,44 Z" id="Shape" fill="#000000"></path>
    </g>
</svg>