<?xml version="1.0" encoding="UTF-8" standalone="no"?>
<svg width="44px" height="44px" viewBox="0 0 44 44" version="1.1" xmlns="http://www.w3.org/2000/svg" xmlns:xlink="http://www.w3.org/1999/xlink">
    <!-- Generator: Sketch 3.7.2 (28276) - http://www.bohemiancoding.com/sketch -->
    <title>lay-path-node</title>
    <desc>Created with Sketch.</desc>
    <defs></defs>
    <g id="44px-Line" stroke="none" stroke-width="1" fill="none" fill-rule="evenodd">
        <g id="lay-path-node"></g>
        <path d="M0.063,43.323 C0.073,43.354 0.084,43.382 0.097,43.412 C0.146,43.519 0.207,43.621 0.293,43.706 C0.389,43.802 0.501,43.875 0.622,43.924 C0.743,43.973 0.872,43.999 1,43.999 C1.106,43.999 1.212,43.982 1.316,43.948 L25.316,35.948 C25.731,35.809 26.008,35.417 26,34.979 C25.998,34.905 25.937,27.771 31.287,21.949 C31.675,22.125 32.09,22.221 32.507,22.221 C33.256,22.221 34.001,21.939 34.563,21.377 L43.688,12.724 C44.089,12.344 44.105,11.711 43.726,11.31 C43.346,10.909 42.713,10.893 42.312,11.272 L35.89,17.362 L26.636,8.108 L32.726,1.685 C33.106,1.284 33.089,0.651 32.688,0.271 C32.288,-0.109 31.655,-0.092 31.274,0.309 L22.64,9.414 C22.084,9.97 21.777,10.71 21.777,11.497 C21.777,11.924 21.875,12.334 22.047,12.712 C16.25,18.032 9.09,17.984 9.018,17.997 C8.593,17.993 8.189,18.267 8.051,18.681 L0.051,42.681 C0.018,42.779 0.005,42.88 0.003,42.98 C0.003,43.002 0.008,43.024 0.009,43.046 C0.014,43.143 0.032,43.235 0.063,43.323 L0.063,43.323 Z M24.073,10.813 L25.259,9.562 L34.438,18.741 L33.168,19.945 C32.799,20.313 32.199,20.313 31.832,19.945 L24.055,12.167 C23.876,11.989 23.778,11.752 23.778,11.5 C23.778,11.248 23.876,11.011 24.073,10.813 L24.073,10.813 Z M9.727,19.981 C11.846,19.867 18.016,19.1 23.324,14.265 L29.734,20.675 C24.9,25.983 24.133,32.153 24.019,34.272 L4.703,40.711 L13.715,31.699 C14.106,31.886 14.539,32 15,32 C16.654,32 18,30.654 18,29 C18,27.346 16.654,26 15,26 C13.346,26 12,27.346 12,29 C12,29.462 12.114,29.894 12.301,30.285 L3.289,39.297 L9.727,19.981 L9.727,19.981 Z M14,29 C14,28.449 14.449,28 15,28 C15.551,28 16,28.449 16,29 C16,29.551 15.551,30 15,30 C14.449,30 14,29.551 14,29 L14,29 Z" id="Shape" fill="#000000"></path>
    </g>
</svg>