<?xml version="1.0" encoding="UTF-8" standalone="no"?>
<svg width="64px" height="64px" viewBox="0 0 64 64" version="1.1" xmlns="http://www.w3.org/2000/svg" xmlns:xlink="http://www.w3.org/1999/xlink">
    <!-- Generator: Sketch 3.7.2 (28276) - http://www.bohemiancoding.com/sketch -->
    <title>lay-img-skew</title>
    <desc>Created with Sketch.</desc>
    <defs></defs>
    <g id="64px-Line" stroke="none" stroke-width="1" fill="none" fill-rule="evenodd">
        <g id="lay-img-skew"></g>
        <path d="M28.113,8.538 L4.113,54.538 C3.952,54.848 3.964,55.22 4.144,55.519 C4.326,55.817 4.65,56 5,56 L35,56 C35.373,56 35.714,55.793 35.887,55.462 L59.887,9.462 C60.048,9.152 60.036,8.78 59.856,8.481 C59.674,8.183 59.35,8 59,8 L29,8 C28.627,8 28.286,8.207 28.113,8.538 L28.113,8.538 Z M57.351,10 L34.394,54 L6.65,54 L29.607,10 L57.351,10 L57.351,10 Z" id="Shape" fill="#000000"></path>
        <path d="M5,38 C5.553,38 6,37.552 6,37 L6,34 C6,33.448 5.553,33 5,33 C4.447,33 4,33.448 4,34 L4,37 C4,37.552 4.447,38 5,38 L5,38 Z" id="Shape" fill="#000000"></path>
        <path d="M5,47 C5.553,47 6,46.552 6,46 L6,43 C6,42.448 5.553,42 5,42 C4.447,42 4,42.448 4,43 L4,46 C4,46.552 4.447,47 5,47 L5,47 Z" id="Shape" fill="#000000"></path>
        <path d="M5,29 C5.553,29 6,28.552 6,28 L6,25 C6,24.448 5.553,24 5,24 C4.447,24 4,24.448 4,25 L4,28 C4,28.552 4.447,29 5,29 L5,29 Z" id="Shape" fill="#000000"></path>
        <path d="M25,10 C25.553,10 26,9.552 26,9 C26,8.448 25.553,8 25,8 L22,8 C21.447,8 21,8.448 21,9 C21,9.552 21.447,10 22,10 L25,10 L25,10 Z" id="Shape" fill="#000000"></path>
        <path d="M5,20 C5.553,20 6,19.552 6,19 L6,16 C6,15.448 5.553,15 5,15 C4.447,15 4,15.448 4,16 L4,19 C4,19.552 4.447,20 5,20 L5,20 Z" id="Shape" fill="#000000"></path>
        <path d="M16,10 C16.553,10 17,9.552 17,9 C17,8.448 16.553,8 16,8 L13,8 C12.447,8 12,8.448 12,9 C12,9.552 12.447,10 13,10 L16,10 L16,10 Z" id="Shape" fill="#000000"></path>
        <path d="M5,11 C5.553,11 6,10.552 6,10 L7,10 C7.553,10 8,9.552 8,9 C8,8.448 7.553,8 7,8 L5,8 C4.447,8 4,8.448 4,9 L4,10 C4,10.552 4.447,11 5,11 L5,11 Z" id="Shape" fill="#000000"></path>
    </g>
</svg>