<?xml version="1.0" encoding="UTF-8" standalone="no"?>
<svg width="64px" height="64px" viewBox="0 0 64 64" version="1.1" xmlns="http://www.w3.org/2000/svg" xmlns:xlink="http://www.w3.org/1999/xlink">
    <!-- Generator: Sketch 3.7.2 (28276) - http://www.bohemiancoding.com/sketch -->
    <title>lay-img-scale</title>
    <desc>Created with Sketch.</desc>
    <defs></defs>
    <g id="64px-Line" stroke="none" stroke-width="1" fill="none" fill-rule="evenodd">
        <g id="lay-img-scale"></g>
        <path d="M8,26.25 C8,26.802 8.447,27.25 9,27.25 C9.553,27.25 10,26.802 10,26.25 L10,23.625 C10,23.073 9.553,22.625 9,22.625 C8.447,22.625 8,23.073 8,23.625 L8,26.25 L8,26.25 Z" id="Shape" fill="#000000"></path>
        <path d="M8,18.375 C8,18.927 8.447,19.375 9,19.375 C9.553,19.375 10,18.927 10,18.375 L10,15.75 C10,15.198 9.553,14.75 9,14.75 C8.447,14.75 8,15.198 8,15.75 L8,18.375 L8,18.375 Z" id="Shape" fill="#000000"></path>
        <path d="M9,11.5 C9.553,11.5 10,11.052 10,10.5 L10,10 L10.5,10 C11.053,10 11.5,9.552 11.5,9 C11.5,8.448 11.053,8 10.5,8 L9,8 C8.447,8 8,8.448 8,9 L8,10.5 C8,11.052 8.447,11.5 9,11.5 L9,11.5 Z" id="Shape" fill="#000000"></path>
        <path d="M28.929,10 C29.482,10 29.929,9.552 29.929,9 C29.929,8.448 29.482,8 28.929,8 L25.857,8 C25.304,8 24.857,8.448 24.857,9 C24.857,9.552 25.304,10 25.857,10 L28.929,10 L28.929,10 Z" id="Shape" fill="#000000"></path>
        <path d="M35.071,10 L38.142,10 C38.695,10 39.142,9.552 39.142,9 C39.142,8.448 38.695,8 38.142,8 L35.071,8 C34.518,8 34.071,8.448 34.071,9 C34.071,9.552 34.519,10 35.071,10 L35.071,10 Z" id="Shape" fill="#000000"></path>
        <path d="M47.356,10 C47.909,10 48.356,9.552 48.356,9 C48.356,8.448 47.909,8 47.356,8 L44.285,8 C43.732,8 43.285,8.448 43.285,9 C43.285,9.552 43.732,10 44.285,10 L47.356,10 L47.356,10 Z" id="Shape" fill="#000000"></path>
        <path d="M19.714,10 C20.267,10 20.714,9.552 20.714,9 C20.714,8.448 20.267,8 19.714,8 L16.643,8 C16.09,8 15.643,8.448 15.643,9 C15.643,9.552 16.09,10 16.643,10 L19.714,10 L19.714,10 Z" id="Shape" fill="#000000"></path>
        <path d="M56,9 C56,8.448 55.553,8 55,8 L53.5,8 C52.947,8 52.5,8.448 52.5,9 C52.5,9.552 52.947,10 53.5,10 L54,10 L54,10.5 C54,11.052 54.447,11.5 55,11.5 C55.553,11.5 56,11.052 56,10.5 L56,9 L56,9 Z" id="Shape" fill="#000000"></path>
        <path d="M56,25.857 C56,25.305 55.553,24.857 55,24.857 C54.447,24.857 54,25.305 54,25.857 L54,28.928 C54,29.48 54.447,29.928 55,29.928 C55.553,29.928 56,29.48 56,28.928 L56,25.857 L56,25.857 Z" id="Shape" fill="#000000"></path>
        <path d="M56,35.071 C56,34.519 55.553,34.071 55,34.071 C54.447,34.071 54,34.519 54,35.071 L54,38.142 C54,38.694 54.447,39.142 55,39.142 C55.553,39.142 56,38.694 56,38.142 L56,35.071 L56,35.071 Z" id="Shape" fill="#000000"></path>
        <path d="M55,43.286 C54.447,43.286 54,43.734 54,44.286 L54,47.357 C54,47.909 54.447,48.357 55,48.357 C55.553,48.357 56,47.909 56,47.357 L56,44.286 C56,43.733 55.553,43.286 55,43.286 L55,43.286 Z" id="Shape" fill="#000000"></path>
        <path d="M56,16.643 C56,16.091 55.553,15.643 55,15.643 C54.447,15.643 54,16.091 54,16.643 L54,19.714 C54,20.266 54.447,20.714 55,20.714 C55.553,20.714 56,20.266 56,19.714 L56,16.643 L56,16.643 Z" id="Shape" fill="#000000"></path>
        <path d="M53.5,56 L55,56 C55.553,56 56,55.552 56,55 L56,53.5 C56,52.948 55.553,52.5 55,52.5 C54.447,52.5 54,52.948 54,53.5 L54,54 L53.5,54 C52.947,54 52.5,54.448 52.5,55 C52.5,55.552 52.947,56 53.5,56 L53.5,56 Z" id="Shape" fill="#000000"></path>
        <path d="M37.75,56 L40.375,56 C40.928,56 41.375,55.552 41.375,55 C41.375,54.448 40.928,54 40.375,54 L37.75,54 C37.197,54 36.75,54.448 36.75,55 C36.75,55.552 37.197,56 37.75,56 L37.75,56 Z" id="Shape" fill="#000000"></path>
        <path d="M48.25,56 C48.803,56 49.25,55.552 49.25,55 C49.25,54.448 48.803,54 48.25,54 L45.625,54 C45.072,54 44.625,54.448 44.625,55 C44.625,55.552 45.072,56 45.625,56 L48.25,56 L48.25,56 Z" id="Shape" fill="#000000"></path>
        <path d="M32.5,54 L32,54 L32,33 C32,32.448 31.553,32 31,32 L10,32 L10,31.5 C10,30.948 9.553,30.5 9,30.5 C8.447,30.5 8,30.948 8,31.5 L8,33 L8,55 C8,55.552 8.447,56 9,56 L31,56 L32.5,56 C33.053,56 33.5,55.552 33.5,55 C33.5,54.448 33.053,54 32.5,54 L32.5,54 Z M10,34 L30,34 L30,54 L10,54 L10,34 L10,34 Z" id="Shape" fill="#000000"></path>
        <path d="M35.707,29.707 L48,17.414 L48,23 C48,23.552 48.447,24 49,24 C49.553,24 50,23.552 50,23 L50,15 C50,14.87 49.974,14.74 49.923,14.618 C49.822,14.373 49.627,14.178 49.382,14.077 C49.26,14.027 49.13,14 49,14 L41,14 C40.447,14 40,14.448 40,15 C40,15.552 40.447,16 41,16 L46.586,16 L34.293,28.293 C33.902,28.684 33.902,29.316 34.293,29.707 C34.488,29.902 34.744,30 35,30 C35.256,30 35.512,29.902 35.707,29.707 L35.707,29.707 Z" id="Shape" fill="#000000"></path>
    </g>
</svg>