<?xml version="1.0" encoding="UTF-8" standalone="no"?>
<svg width="44px" height="44px" viewBox="0 0 44 44" version="1.1" xmlns="http://www.w3.org/2000/svg" xmlns:xlink="http://www.w3.org/1999/xlink">
    <!-- Generator: Sketch 3.7.2 (28276) - http://www.bohemiancoding.com/sketch -->
    <title>loc-sign</title>
    <desc>Created with Sketch.</desc>
    <defs></defs>
    <g id="44px-Line" stroke="none" stroke-width="1" fill="none" fill-rule="evenodd">
        <g id="loc-sign"></g>
        <path d="M39,4 L24,4 L24,1 C24,0.447 23.553,0 23,0 L19,0 C18.447,0 18,0.447 18,1 L18,4 L3,4 C2.447,4 2,4.447 2,5 L2,27 C2,27.553 2.447,28 3,28 L18,28 L18,43 C18,43.553 18.447,44 19,44 L23,44 C23.553,44 24,43.553 24,43 L24,28 L39,28 C39.553,28 40,27.553 40,27 L40,5 C40,4.447 39.553,4 39,4 L39,4 Z M20,2 L22,2 L22,4 L20,4 L20,2 L20,2 Z M22,42 L20,42 L20,28 L22,28 L22,42 L22,42 Z M38,26 L4,26 L4,6 L38,6 L38,26 L38,26 Z" id="Shape" fill="#000000"></path>
    </g>
</svg>