<?xml version="1.0" encoding="UTF-8" standalone="no"?>
<svg width="44px" height="44px" viewBox="0 0 44 44" version="1.1" xmlns="http://www.w3.org/2000/svg" xmlns:xlink="http://www.w3.org/1999/xlink">
    <!-- Generator: Sketch 3.7.2 (28276) - http://www.bohemiancoding.com/sketch -->
    <title>loc-search-star</title>
    <desc>Created with Sketch.</desc>
    <defs></defs>
    <g id="44px-Line" stroke="none" stroke-width="1" fill="none" fill-rule="evenodd">
        <g id="loc-search-star"></g>
        <path d="M27.94,13.213 C27.808,12.849 27.479,12.593 27.093,12.557 L20.804,11.966 L17.88,6.526 C17.703,6.198 17.328,5.989 16.987,6 C16.615,6.004 16.276,6.215 16.107,6.547 L13.354,11.966 L6.908,12.557 C6.518,12.593 6.185,12.851 6.055,13.22 C5.925,13.589 6.022,13.999 6.303,14.271 L10.967,18.789 L9.365,24.741 C9.263,25.119 9.391,25.521 9.692,25.77 C9.876,25.922 10.102,26 10.331,26 C10.478,26 10.627,25.968 10.766,25.9 L17.08,22.857 L23.222,25.897 C23.57,26.069 23.986,26.025 24.289,25.782 C24.592,25.539 24.728,25.143 24.637,24.765 L23.19,18.789 L27.707,14.259 C27.981,13.984 28.072,13.577 27.94,13.213 L27.94,13.213 Z M21.38,17.774 C21.134,18.021 21.034,18.377 21.116,18.715 L22.191,23.153 L17.531,20.847 C17.391,20.778 17.24,20.743 17.088,20.743 C16.94,20.743 16.791,20.776 16.653,20.842 L11.866,23.149 L13.054,18.738 C13.149,18.387 13.045,18.013 12.783,17.76 L9.261,14.348 L14.088,13.906 C14.431,13.875 14.734,13.67 14.889,13.364 L17.026,9.158 L19.297,13.385 C19.455,13.679 19.751,13.876 20.084,13.907 L24.793,14.349 L21.38,17.774 L21.38,17.774 Z" id="Shape" fill="#000000"></path>
        <path d="M17,0 C7.626,0 0,7.626 0,17 C0,26.374 7.626,34 17,34 C21.538,34 25.656,32.202 28.708,29.294 C27.699,30.594 27.778,32.47 28.971,33.664 L38.335,43.028 C38.981,43.674 39.831,43.999 40.682,43.999 C41.532,43.999 42.381,43.675 43.028,43.028 C44.322,41.734 44.322,39.63 43.028,38.336 L33.664,28.972 C32.473,27.78 30.595,27.701 29.293,28.709 C32.201,25.657 34,21.539 34,17 C34,7.626 26.374,0 17,0 L17,0 Z M17,32 C8.729,32 2,25.271 2,17 C2,8.729 8.729,2 17,2 C25.271,2 32,8.729 32,17 C32,25.271 25.271,32 17,32 L17,32 Z M30.386,30.386 C30.643,30.129 30.981,30 31.318,30 C31.656,30 31.994,30.129 32.251,30.386 L41.615,39.75 C42.129,40.264 42.129,41.101 41.615,41.614 C41.1,42.128 40.263,42.127 39.751,41.614 L30.387,32.25 C29.872,31.736 29.872,30.899 30.386,30.386 L30.386,30.386 Z" id="Shape" fill="#000000"></path>
    </g>
</svg>