<?xml version="1.0" encoding="UTF-8" standalone="no"?>
<svg width="64px" height="64px" viewBox="0 0 64 64" version="1.1" xmlns="http://www.w3.org/2000/svg" xmlns:xlink="http://www.w3.org/1999/xlink">
    <!-- Generator: Sketch 3.7.2 (28276) - http://www.bohemiancoding.com/sketch -->
    <title>loc-signpost-2</title>
    <desc>Created with Sketch.</desc>
    <defs></defs>
    <g id="64px-Line" stroke="none" stroke-width="1" fill="none" fill-rule="evenodd">
        <g id="loc-signpost-2"></g>
        <path d="M52,20 C52.265,20 52.52,19.895 52.707,19.707 L57.707,14.707 C58.098,14.316 58.098,13.684 57.707,13.293 L52.707,8.293 C52.52,8.105 52.266,8 52,8 L36,8 L36,5 C36,4.447 35.552,4 35,4 L31,4 C30.448,4 30,4.447 30,5 L30,8 L13,8 C12.448,8 12,8.447 12,9 L12,19 C12,19.553 12.448,20 13,20 L30,20 L30,22 L12,22 C11.735,22 11.48,22.105 11.293,22.293 L6.293,27.293 C5.902,27.684 5.902,28.316 6.293,28.707 L11.293,33.707 C11.481,33.895 11.735,34 12,34 L30,34 L30,36 L13,36 C12.448,36 12,36.447 12,37 L12,47 C12,47.553 12.448,48 13,48 L30,48 L30,59 C30,59.553 30.448,60 31,60 L35,60 C35.552,60 36,59.553 36,59 L36,48 L52,48 C52.265,48 52.52,47.895 52.707,47.707 L57.707,42.707 C58.098,42.316 58.098,41.684 57.707,41.293 L52.707,36.293 C52.52,36.105 52.266,36 52,36 L36,36 L36,34 L51,34 C51.552,34 52,33.553 52,33 L52,23 C52,22.447 51.552,22 51,22 L36,22 L36,20 L52,20 L52,20 Z M32,6 L34,6 L34,8 L32,8 L32,6 L32,6 Z M14,10 L51.586,10 L55.586,14 L51.586,18 L14,18 L14,10 L14,10 Z M34,58 L32,58 L32,48 L34,48 L34,58 L34,58 Z M55.586,42 L51.586,46 L14,46 L14,38 L51.586,38 L55.586,42 L55.586,42 Z M34,36 L32,36 L32,34 L34,34 L34,36 L34,36 Z M50,32 L12.414,32 L8.414,28 L12.414,24 L50,24 L50,32 L50,32 Z M34,22 L32,22 L32,20 L34,20 L34,22 L34,22 Z" id="Shape" fill="#000000"></path>
    </g>
</svg>