<?xml version="1.0" encoding="UTF-8" standalone="no"?>
<svg width="44px" height="44px" viewBox="0 0 44 44" version="1.1" xmlns="http://www.w3.org/2000/svg" xmlns:xlink="http://www.w3.org/1999/xlink">
    <!-- Generator: Sketch 3.7.2 (28276) - http://www.bohemiancoding.com/sketch -->
    <title>loc-search-tick</title>
    <desc>Created with Sketch.</desc>
    <defs></defs>
    <g id="44px-Line" stroke="none" stroke-width="1" fill="none" fill-rule="evenodd">
        <g id="loc-search-tick"></g>
        <path d="M24.293,10.293 L13,21.586 L8.707,17.293 C8.316,16.902 7.684,16.902 7.293,17.293 C6.902,17.684 6.902,18.316 7.293,18.707 L12.293,23.707 C12.488,23.902 12.744,24 13,24 C13.256,24 13.512,23.902 13.707,23.707 L25.707,11.707 C26.098,11.316 26.098,10.684 25.707,10.293 C25.316,9.902 24.684,9.902 24.293,10.293 L24.293,10.293 Z" id="Shape" fill="#000000"></path>
        <path d="M17,0 C7.626,0 0,7.626 0,17 C0,26.374 7.626,34 17,34 C21.538,34 25.656,32.202 28.708,29.295 C27.701,30.596 27.78,32.471 28.972,33.664 L38.337,43.028 C38.983,43.674 39.833,43.999 40.683,43.999 C41.533,43.999 42.383,43.675 43.03,43.028 C44.322,41.734 44.322,39.63 43.03,38.336 L33.665,28.972 C32.473,27.78 30.597,27.701 29.296,28.708 C32.202,25.656 34,21.538 34,17 C34,7.626 26.374,0 17,0 L17,0 Z M17,32 C8.729,32 2,25.271 2,17 C2,8.729 8.729,2 17,2 C25.271,2 32,8.729 32,17 C32,25.271 25.271,32 17,32 L17,32 Z M30.386,30.386 C30.643,30.129 30.98,30 31.318,30 C31.656,30 31.993,30.129 32.25,30.386 L41.614,39.75 C42.128,40.264 42.128,41.101 41.614,41.614 C41.101,42.129 40.264,42.128 39.75,41.614 L30.386,32.25 C29.872,31.736 29.872,30.899 30.386,30.386 L30.386,30.386 Z" id="Shape" fill="#000000"></path>
    </g>
</svg>