<?xml version="1.0" encoding="UTF-8" standalone="no"?>
<svg width="44px" height="44px" viewBox="0 0 44 44" version="1.1" xmlns="http://www.w3.org/2000/svg" xmlns:xlink="http://www.w3.org/1999/xlink">
    <!-- Generator: Sketch 3.7.2 (28276) - http://www.bohemiancoding.com/sketch -->
    <title>loc-route</title>
    <desc>Created with Sketch.</desc>
    <defs></defs>
    <g id="44px-Glyph" stroke="none" stroke-width="1" fill="none" fill-rule="evenodd">
        <g id="loc-route" fill="#000000">
            <path d="M37,9 C35.896,9 35,8.104 35,7 C35,5.896 35.896,5 37,5 C38.104,5 39,5.896 39,7 C39,8.104 38.104,9 37,9 M37,0 C33.141,0 30,2.972 30,6.625 C30,7.662 30.245,8.654 30.729,9.572 C30.747,9.605 30.767,9.638 30.788,9.669 L36.174,17.564 C36.36,17.837 36.669,18 37,18 C37.33,18 37.64,17.837 37.826,17.564 L43.213,9.669 C43.234,9.638 43.254,9.604 43.272,9.571 C43.755,8.652 44,7.661 44,6.625 C44,2.972 40.859,0 37,0" id="Fill-234"></path>
            <path d="M7,33 C5.896,33 5,32.104 5,31 C5,29.896 5.896,29 7,29 C8.104,29 9,29.896 9,31 C9,32.104 8.104,33 7,33 M7,24 C3.141,24 0,26.972 0,30.625 C0,31.662 0.245,32.654 0.729,33.572 C0.747,33.605 0.767,33.638 0.788,33.669 L6.174,41.564 C6.36,41.837 6.669,42 7,42 C7.33,42 7.64,41.837 7.826,41.564 L13.213,33.669 C13.234,33.638 13.254,33.604 13.272,33.571 C13.755,32.652 14,31.661 14,30.625 C14,26.972 10.859,24 7,24" id="Fill-235"></path>
            <path d="M19,10 L17.5,10 C16.947,10 16.5,9.553 16.5,9 C16.5,8.447 16.947,8 17.5,8 L19,8 C19.553,8 20,8.447 20,9 C20,9.553 19.553,10 19,10" id="Fill-236"></path>
            <path d="M12.2852,10 L9.1562,10 C8.6032,10 8.1562,9.553 8.1562,9 C8.1562,8.447 8.6032,8 9.1562,8 L12.2852,8 C12.8382,8 13.2852,8.447 13.2852,9 C13.2852,9.553 12.8382,10 12.2852,10 M1.8532,12.914 C1.6792,12.914 1.5012,12.868 1.3402,12.772 C0.8662,12.487 0.7132,11.873 0.9972,11.399 C1.6262,10.353 2.5202,9.484 3.5862,8.888 C4.0682,8.618 4.6772,8.792 4.9472,9.272 C5.2172,9.754 5.0452,10.363 4.5622,10.634 C3.8022,11.06 3.1612,11.681 2.7122,12.429 C2.5242,12.741 2.1932,12.914 1.8532,12.914 M3.0392,20.507 C2.8042,20.507 2.5682,20.425 2.3792,20.258 C1.4592,19.449 0.7652,18.412 0.3732,17.259 C0.1942,16.736 0.4732,16.168 0.9972,15.99 C1.5202,15.809 2.0882,16.092 2.2652,16.614 C2.5472,17.437 3.0422,18.178 3.6992,18.756 C4.1142,19.121 4.1542,19.753 3.7902,20.167 C3.5932,20.392 3.3162,20.507 3.0392,20.507 M11.0152,22 L7.8882,22 C7.3352,22 6.8882,21.553 6.8882,21 C6.8882,20.447 7.3352,20 7.8882,20 L11.0152,20 C11.5682,20 12.0152,20.447 12.0152,21 C12.0152,21.553 11.5682,22 11.0152,22 M19.3582,22 L16.2302,22 C15.6782,22 15.2302,21.553 15.2302,21 C15.2302,20.447 15.6782,20 16.2302,20 L19.3582,20 C19.9112,20 20.3582,20.447 20.3582,21 C20.3582,21.553 19.9112,22 19.3582,22 M27.7022,22 L24.5732,22 C24.0202,22 23.5732,21.553 23.5732,21 C23.5732,20.447 24.0202,20 24.5732,20 L27.7022,20 C28.2552,20 28.7022,20.447 28.7022,21 C28.7022,21.553 28.2552,22 27.7022,22 M36.0452,22 L32.9162,22 C32.3632,22 31.9162,21.553 31.9162,21 C31.9162,20.447 32.3632,20 32.9162,20 L36.0452,20 C36.5972,20 37.0452,20.447 37.0452,21 C37.0452,21.553 36.5972,22 36.0452,22 M42.6592,25.999 C42.2472,25.999 41.8622,25.743 41.7172,25.333 C41.4262,24.512 40.9212,23.776 40.2582,23.207 C39.8392,22.848 39.7912,22.216 40.1502,21.797 C40.5132,21.377 41.1432,21.331 41.5602,21.69 C42.4882,22.486 43.1942,23.516 43.6012,24.665 C43.7862,25.185 43.5142,25.757 42.9932,25.941 C42.8832,25.98 42.7692,25.999 42.6592,25.999 M39.9872,33.205 C39.6402,33.205 39.3052,33.025 39.1192,32.703 C38.8442,32.225 39.0092,31.613 39.4882,31.338 C40.2442,30.903 40.8772,30.275 41.3192,29.522 C41.5972,29.045 42.2102,28.886 42.6872,29.164 C43.1642,29.443 43.3232,30.057 43.0452,30.533 C42.4282,31.586 41.5422,32.464 40.4842,33.072 C40.3272,33.162 40.1562,33.205 39.9872,33.205 M34.9122,34 L31.7832,34 C31.2302,34 30.7832,33.553 30.7832,33 C30.7832,32.447 31.2302,32 31.7832,32 L34.9122,32 C35.4652,32 35.9122,32.447 35.9122,33 C35.9122,33.553 35.4652,34 34.9122,34" id="Fill-237"></path>
            <path d="M26.5,34 L25,34 C24.447,34 24,33.553 24,33 C24,32.447 24.447,32 25,32 L26.5,32 C27.053,32 27.5,32.447 27.5,33 C27.5,33.553 27.053,34 26.5,34" id="Fill-238"></path>
            <path d="M24,39 C23.744,39 23.488,38.902 23.293,38.707 L18.293,33.707 C17.902,33.316 17.902,32.684 18.293,32.293 L23.293,27.293 C23.684,26.902 24.316,26.902 24.707,27.293 C25.098,27.684 25.098,28.316 24.707,28.707 L20.414,33 L24.707,37.293 C25.098,37.684 25.098,38.316 24.707,38.707 C24.512,38.902 24.256,39 24,39" id="Fill-239"></path>
            <path d="M20,15 C19.744,15 19.488,14.902 19.293,14.707 C18.902,14.316 18.902,13.684 19.293,13.293 L23.586,9 L19.293,4.707 C18.902,4.316 18.902,3.684 19.293,3.293 C19.684,2.902 20.316,2.902 20.707,3.293 L25.707,8.293 C26.098,8.684 26.098,9.316 25.707,9.707 L20.707,14.707 C20.512,14.902 20.256,15 20,15" id="Fill-240"></path>
        </g>
    </g>
</svg>