<?xml version="1.0" encoding="UTF-8" standalone="no"?>
<svg width="64px" height="64px" viewBox="0 0 64 64" version="1.1" xmlns="http://www.w3.org/2000/svg" xmlns:xlink="http://www.w3.org/1999/xlink">
    <!-- Generator: Sketch 3.7.2 (28276) - http://www.bohemiancoding.com/sketch -->
    <title>loc-binoculars-2</title>
    <desc>Created with Sketch.</desc>
    <defs></defs>
    <g id="64px-Glyph" stroke="none" stroke-width="1" fill="none" fill-rule="evenodd">
        <g id="loc-binoculars-2" fill="#000000">
            <path d="M15,34 C11.141,34 8,37.141 8,41 C8,41.553 7.553,42 7,42 C6.447,42 6,41.553 6,41 C6,36.037 10.037,32 15,32 C15.553,32 16,32.447 16,33 C16,33.553 15.553,34 15,34 M15,28 C7.832,28 2,33.832 2,41 C2,48.168 7.832,54 15,54 C22.168,54 28,48.168 28,41 C28,33.832 22.168,28 15,28" id="Fill-58"></path>
            <path d="M47,34 C43.141,34 40,37.141 40,41 C40,41.553 39.553,42 39,42 C38.447,42 38,41.553 38,41 C38,36.037 42.037,32 47,32 C47.553,32 48,32.447 48,33 C48,33.553 47.553,34 47,34 M47,28 C39.832,28 34,33.832 34,41 C34,48.168 39.832,54 47,54 C54.168,54 60,48.168 60,41 C60,33.832 54.168,28 47,28" id="Fill-59"></path>
            <path d="M15,26 C20.558,26 25.409,29.045 28,33.548 L28,24 C28,18.486 23.514,14 18,14 C13.595,14 9.866,16.955 8.276,21.688 L5.451,29.441 C8.047,27.293 11.375,26 15,26" id="Fill-60"></path>
            <path d="M47,26 C41.442,26 36.591,29.045 34,33.548 L34,24 C34,18.486 38.486,14 44,14 C48.405,14 52.134,16.955 53.724,21.688 L56.549,29.441 C53.953,27.293 50.625,26 47,26" id="Fill-61"></path>
            <path d="M37,19.3447 C36.447,19.3447 36,18.8977 36,18.3447 L36,15.9997 C36,12.6917 38.691,9.9997 42,9.9997 C45.108,9.9997 47.676,12.3307 47.972,15.4207 C48.024,15.9707 47.622,16.4587 47.072,16.5117 C46.51,16.5727 46.033,16.1617 45.981,15.6127 C45.783,13.5527 44.072,11.9997 42,11.9997 C39.794,11.9997 38,13.7937 38,15.9997 L38,18.3447 C38,18.8977 37.553,19.3447 37,19.3447" id="Fill-62"></path>
            <path d="M31.6842,43.9141 C31.8812,43.8661 32.0722,43.8001 32.2542,43.7171 C32.2552,43.7161 32.2572,43.7151 32.2582,43.7141 C32.0962,42.8321 32.0002,41.9281 32.0002,41.0001 L32.0002,38.1841 C31.6862,38.0721 31.3522,38.0001 31.0002,38.0001 C30.6482,38.0001 30.3142,38.0721 30.0002,38.1841 L30.0002,41.0001 C30.0002,41.9281 29.9032,42.8321 29.7412,43.7141 C29.7432,43.7151 29.7442,43.7161 29.7462,43.7171 C29.9272,43.8001 30.1182,43.8661 30.3152,43.9141 C30.3282,43.9171 30.3382,43.9221 30.3512,43.9251 C30.5592,43.9731 30.7762,44.0001 31.0002,44.0001 C31.2242,44.0001 31.4402,43.9731 31.6492,43.9251 C31.6612,43.9221 31.6722,43.9171 31.6842,43.9141" id="Fill-63"></path>
            <path d="M30,36.1011 C30.323,36.0351 30.658,36.0001 31,36.0001 C31.342,36.0001 31.677,36.0351 32,36.1011 L32,24.0001 C32,22.7031 32.213,21.4561 32.596,20.2851 C32.092,20.1141 31.561,20.0001 31,20.0001 C30.439,20.0001 29.908,20.1141 29.404,20.2851 C29.787,21.4561 30,22.7031 30,24.0001 L30,36.1011 Z" id="Fill-64"></path>
            <path d="M18,12 C21.031,12 23.795,13.138 25.909,14.999 C25.431,12.166 22.967,10 20,10 C18.065,10 16.342,10.904 15.243,12.331 C16.129,12.116 17.05,12 18,12" id="Fill-65"></path>
        </g>
    </g>
</svg>