<?xml version="1.0" encoding="UTF-8" standalone="no"?>
<svg width="44px" height="44px" viewBox="0 0 44 44" version="1.1" xmlns="http://www.w3.org/2000/svg" xmlns:xlink="http://www.w3.org/1999/xlink">
    <!-- Generator: Sketch 3.7.2 (28276) - http://www.bohemiancoding.com/sketch -->
    <title>loc-point-target</title>
    <desc>Created with Sketch.</desc>
    <defs></defs>
    <g id="44px-Line" stroke="none" stroke-width="1" fill="none" fill-rule="evenodd">
        <g id="loc-point-target"></g>
        <path d="M20.134,43.5 C20.313,43.81 20.643,44 21,44 C21.357,44 21.688,43.81 21.866,43.5 L33.971,22.535 L33.972,22.535 C35.299,20.257 36,17.652 36,15 C36,6.729 29.271,0 21,0 C12.729,0 6,6.729 6,15 C6,17.658 6.705,20.271 8.036,22.551 L20.134,43.5 L20.134,43.5 Z M21,2 C28.168,2 34,7.832 34,15 C34,17.299 33.393,19.557 32.243,21.528 C32.243,21.529 32.242,21.53 32.241,21.531 L21,41 L9.766,21.546 C8.61,19.568 8,17.304 8,15 C8,7.832 13.832,2 21,2 L21,2 Z" id="Shape" fill="#000000"></path>
        <path d="M13,16 L14.08,16 C14.521,19.059 16.941,21.479 20,21.92 L20,23 C20,23.552 20.447,24 21,24 C21.553,24 22,23.552 22,23 L22,21.92 C25.059,21.48 27.479,19.059 27.92,16 L29,16 C29.553,16 30,15.552 30,15 C30,14.448 29.553,14 29,14 L27.92,14 C27.479,10.941 25.059,8.521 22,8.08 L22,7 C22,6.448 21.553,6 21,6 C20.447,6 20,6.448 20,7 L20,8.08 C16.941,8.52 14.521,10.941 14.08,14 L13,14 C12.447,14 12,14.448 12,15 C12,15.552 12.447,16 13,16 L13,16 Z M20,10.101 L20,11 C20,11.552 20.447,12 21,12 C21.553,12 22,11.552 22,11 L22,10.101 C23.956,10.5 25.5,12.044 25.899,14 L25,14 C24.447,14 24,14.448 24,15 C24,15.552 24.447,16 25,16 L25.899,16 C25.5,17.956 23.956,19.5 22,19.899 L22,19 C22,18.448 21.553,18 21,18 C20.447,18 20,18.448 20,19 L20,19.899 C18.044,19.5 16.5,17.956 16.101,16 L17,16 C17.553,16 18,15.552 18,15 C18,14.448 17.553,14 17,14 L16.101,14 C16.5,12.044 18.044,10.5 20,10.101 L20,10.101 Z" id="Shape" fill="#000000"></path>
    </g>
</svg>