<?xml version="1.0" encoding="UTF-8" standalone="no"?>
<svg width="64px" height="64px" viewBox="0 0 64 64" version="1.1" xmlns="http://www.w3.org/2000/svg" xmlns:xlink="http://www.w3.org/1999/xlink">
    <!-- Generator: Sketch 3.7.2 (28276) - http://www.bohemiancoding.com/sketch -->
    <title>loc-search-minus</title>
    <desc>Created with Sketch.</desc>
    <defs></defs>
    <g id="64px-Line" stroke="none" stroke-width="1" fill="none" fill-rule="evenodd">
        <g id="loc-search-minus"></g>
        <path d="M44.794,41.166 C43.899,40.271 42.608,39.921 41.392,40.093 C44.268,36.499 46,31.951 46,27 C46,15.42 36.579,6 25,6 C13.421,6 4,15.42 4,27 C4,38.58 13.421,48 25,48 C29.934,48 34.467,46.278 38.055,43.42 C38.029,43.605 38,43.79 38,43.98 C38,45.043 38.414,46.042 39.166,46.794 L51.206,58.835 C51.958,59.587 52.957,60.001 54.02,60.001 C55.082,60.001 56.082,59.587 56.833,58.835 C57.585,58.083 57.999,57.084 57.999,56.021 C57.999,54.958 57.585,53.959 56.833,53.207 L44.794,41.166 L44.794,41.166 Z M6,27 C6,16.523 14.523,8 25,8 C35.477,8 44,16.523 44,27 C44,37.477 35.477,46 25,46 C14.523,46 6,37.477 6,27 L6,27 Z M55.42,57.42 C54.671,58.169 53.367,58.168 52.62,57.42 L40.58,45.379 C40.206,45.005 40,44.508 40,43.979 C40,43.45 40.206,42.953 40.58,42.579 C41.329,41.83 42.633,41.832 43.38,42.579 L55.42,54.62 C55.794,54.994 56,55.491 56,56.02 C56,56.549 55.794,57.046 55.42,57.42 L55.42,57.42 Z" id="Shape" fill="#000000"></path>
        <path d="M33,26 L17,26 C16.447,26 16,26.448 16,27 C16,27.552 16.447,28 17,28 L33,28 C33.553,28 34,27.552 34,27 C34,26.448 33.553,26 33,26 L33,26 Z" id="Shape" fill="#000000"></path>
    </g>
</svg>