<?xml version="1.0" encoding="UTF-8" standalone="no"?>
<svg width="44px" height="44px" viewBox="0 0 44 44" version="1.1" xmlns="http://www.w3.org/2000/svg" xmlns:xlink="http://www.w3.org/1999/xlink">
    <!-- Generator: Sketch 3.7.2 (28276) - http://www.bohemiancoding.com/sketch -->
    <title>loc-arrow</title>
    <desc>Created with Sketch.</desc>
    <defs></defs>
    <g id="44px-Line" stroke="none" stroke-width="1" fill="none" fill-rule="evenodd">
        <g id="loc-arrow"></g>
        <path d="M42.57,0.097 L0.57,20.097 C0.148,20.298 -0.079,20.765 0.024,21.221 C0.127,21.677 0.533,22 1,22 L22,22 L22,43 C22,43.468 22.324,43.872 22.78,43.976 C22.854,43.993 22.927,44 23.001,44 C23.38,44 23.735,43.784 23.903,43.43 L43.903,1.43 C44.085,1.048 44.007,0.592 43.707,0.293 C43.407,-0.007 42.952,-0.082 42.57,0.097 L42.57,0.097 Z M24,38.574 L24,21 C24,20.447 23.552,20 23,20 L5.426,20 L40.886,3.114 L24,38.574 L24,38.574 Z" id="Shape" fill="#000000"></path>
    </g>
</svg>