<?xml version="1.0" encoding="UTF-8" standalone="no"?>
<svg width="64px" height="64px" viewBox="0 0 64 64" version="1.1" xmlns="http://www.w3.org/2000/svg" xmlns:xlink="http://www.w3.org/1999/xlink">
    <!-- Generator: Sketch 3.7.2 (28276) - http://www.bohemiancoding.com/sketch -->
    <title>loc-map-compass</title>
    <desc>Created with Sketch.</desc>
    <defs></defs>
    <g id="64px-Glyph" stroke="none" stroke-width="1" fill="none" fill-rule="evenodd">
        <g id="loc-map-compass" fill="#000000">
            <path d="M32,47 C32,43.068 33.525,39.501 36,36.826 L36,9.719 L22,6.22 L22,50.281 L33.309,53.108 C32.474,51.241 32,49.178 32,47" id="Fill-81"></path>
            <path d="M47,32 C49.53,32 51.909,32.632 54,33.738 L54,7 C54,6.692 53.858,6.401 53.615,6.212 C53.371,6.023 53.055,5.953 52.758,6.03 L38,9.719 L38,35.02 C40.509,33.132 43.618,32 47,32" id="Fill-82"></path>
            <path d="M20,6.2197 L4.758,10.0307 C4.312,10.1417 4,10.5407 4,10.9997 L4,52.9997 C4,53.3077 4.142,53.5987 4.385,53.7877 C4.627,53.9777 4.942,54.0447 5.242,53.9697 L20,50.2817 L20,6.2197 Z" id="Fill-83"></path>
            <polygon id="Fill-84" points="48.7262 47.312 50.7642 43.236 46.6882 45.274"></polygon>
            <polygon id="Fill-85" points="45.2738 46.688 43.2358 50.764 47.3118 48.726"></polygon>
            <path d="M53.8945,41.4473 L49.8945,49.4473 C49.7975,49.6403 49.6405,49.7983 49.4475,49.8943 L41.4475,53.8943 C41.3045,53.9663 41.1525,54.0003 40.9995,54.0003 C40.7415,54.0003 40.4855,53.8993 40.2925,53.7073 C39.9885,53.4023 39.9135,52.9373 40.1055,52.5523 L44.1055,44.5523 C44.2025,44.3593 44.3595,44.2023 44.5525,44.1053 L52.5525,40.1053 C52.9385,39.9143 53.4025,39.9883 53.7075,40.2933 C54.0115,40.5973 54.0865,41.0623 53.8945,41.4473 M46.9995,34.0003 C39.8315,34.0003 33.9995,39.8323 33.9995,47.0003 C33.9995,54.1683 39.8315,60.0003 46.9995,60.0003 C54.1675,60.0003 59.9995,54.1683 59.9995,47.0003 C59.9995,39.8323 54.1675,34.0003 46.9995,34.0003" id="Fill-86"></path>
        </g>
    </g>
</svg>