<?xml version="1.0" encoding="UTF-8" standalone="no"?>
<svg width="44px" height="44px" viewBox="0 0 44 44" version="1.1" xmlns="http://www.w3.org/2000/svg" xmlns:xlink="http://www.w3.org/1999/xlink">
    <!-- Generator: Sketch 3.7.2 (28276) - http://www.bohemiancoding.com/sketch -->
    <title>loc-point</title>
    <desc>Created with Sketch.</desc>
    <defs></defs>
    <g id="44px-Glyph" stroke="none" stroke-width="1" fill="none" fill-rule="evenodd">
        <g id="loc-point" fill="#000000">
            <path d="M21,22 C17.134,22 14,18.866 14,15 C14,11.134 17.134,8 21,8 C24.866,8 28,11.134 28,15 C28,18.866 24.866,22 21,22 M21,0 C12.729,0 6,6.729 6,15 C6,17.658 6.705,20.271 8.039,22.555 C8.04,22.557 8.04,22.558 8.041,22.56 C8.24,22.9 20.134,43.5 20.134,43.5 C20.313,43.81 20.643,44 21,44 C21.357,44 21.687,43.81 21.866,43.5 L33.972,22.535 L33.973,22.535 C35.299,20.258 36,17.651 36,15 C36,6.729 29.271,0 21,0" id="Fill-272"></path>
        </g>
    </g>
</svg>