<?xml version="1.0" encoding="UTF-8" standalone="no"?>
<svg width="64px" height="64px" viewBox="0 0 64 64" version="1.1" xmlns="http://www.w3.org/2000/svg" xmlns:xlink="http://www.w3.org/1999/xlink">
    <!-- Generator: Sketch 3.7.2 (28276) - http://www.bohemiancoding.com/sketch -->
    <title>loc-longitude</title>
    <desc>Created with Sketch.</desc>
    <defs></defs>
    <g id="64px-Glyph" stroke="none" stroke-width="1" fill="none" fill-rule="evenodd">
        <g id="loc-longitude" fill="#000000">
            <path d="M22.8075,48.0141 C22.2545,48.0141 21.8065,47.5661 21.8065,47.0131 C21.8065,46.4601 22.2545,46.0121 22.8075,46.0121 L24.6285,46.0121 C25.1815,46.0121 25.6295,46.4601 25.6295,47.0131 C25.6295,47.5661 25.1815,48.0141 24.6285,48.0141 L22.8075,48.0141 Z M22.8065,17.9861 L24.6275,17.9861 C25.1805,17.9861 25.6285,18.4331 25.6285,18.9871 C25.6285,19.5401 25.1805,19.9881 24.6275,19.9881 L22.8065,19.9881 C22.2535,19.9881 21.8055,19.5401 21.8055,18.9871 C21.8055,18.4331 22.2535,17.9861 22.8065,17.9861 L22.8065,17.9861 Z M26.3645,31.9991 L28.2195,31.9991 C28.7725,31.9991 29.2205,32.4471 29.2205,33.0001 C29.2205,33.5531 28.7725,34.0011 28.2195,34.0011 L26.3645,34.0011 C25.8115,34.0011 25.3635,33.5531 25.3635,33.0001 C25.3635,32.4471 25.8115,31.9991 26.3645,31.9991 L26.3645,31.9991 Z M29.9985,57.9441 L29.9985,47.9951 C29.4905,47.9481 29.0885,47.5341 29.0885,47.0131 C29.0885,46.4921 29.4905,46.0791 29.9985,46.0311 L29.9985,19.9701 C29.4895,19.9221 29.0875,19.5081 29.0875,18.9871 C29.0875,18.4651 29.4895,18.0511 29.9985,18.0041 L29.9985,8.0601 C23.3225,9.0421 18.0405,19.7431 17.9875,32.8021 C18.0815,32.3471 18.4645,31.9991 18.9485,31.9991 L20.8025,31.9991 C21.3555,31.9991 21.8035,32.4471 21.8035,33.0001 C21.8035,33.5531 21.3555,34.0011 20.8025,34.0011 L18.9485,34.0011 C18.4645,34.0011 18.0805,33.6521 17.9865,33.1971 C18.0395,46.2581 23.3225,56.9621 29.9985,57.9441 L29.9985,57.9441 Z" id="Fill-73"></path>
            <path d="M39.1915,17.9859 C39.7445,17.9859 40.1925,18.4339 40.1925,18.9869 C40.1925,19.5399 39.7445,19.9879 39.1915,19.9879 L37.3705,19.9879 C36.8175,19.9879 36.3695,19.5399 36.3695,18.9869 C36.3695,18.4339 36.8175,17.9859 37.3705,17.9859 L39.1915,17.9859 Z M39.1925,48.0139 L37.3715,48.0139 C36.8185,48.0139 36.3705,47.5669 36.3705,47.0129 C36.3705,46.4599 36.8185,46.0119 37.3715,46.0119 L39.1925,46.0119 C39.7455,46.0119 40.1935,46.4599 40.1935,47.0129 C40.1935,47.5669 39.7455,48.0139 39.1925,48.0139 L39.1925,48.0139 Z M35.6355,34.0009 L33.7805,34.0009 C33.2275,34.0009 32.7795,33.5529 32.7795,32.9999 C32.7795,32.4469 33.2275,31.9989 33.7805,31.9989 L35.6355,31.9989 C36.1885,31.9989 36.6365,32.4469 36.6365,32.9999 C36.6365,33.5529 36.1885,34.0009 35.6355,34.0009 L35.6355,34.0009 Z M32.0015,8.0599 L32.0015,18.0049 C32.5095,18.0529 32.9105,18.4659 32.9105,18.9869 C32.9105,19.5069 32.5095,19.9209 32.0015,19.9689 L32.0015,46.0309 C32.5095,46.0789 32.9115,46.4919 32.9115,47.0129 C32.9115,47.5339 32.5095,47.9479 32.0015,47.9959 L32.0015,57.9439 C38.6775,56.9619 43.9605,46.2579 44.0135,33.1969 C43.9185,33.6529 43.5355,34.0009 43.0515,34.0009 L41.1975,34.0009 C40.6445,34.0009 40.1965,33.5529 40.1965,32.9999 C40.1965,32.4469 40.6445,31.9989 41.1975,31.9989 L43.0515,31.9989 C43.5345,31.9989 43.9185,32.3479 44.0125,32.8029 C43.9595,19.7429 38.6775,9.0419 32.0015,8.0599 L32.0015,8.0599 Z" id="Fill-74"></path>
            <path d="M13.3861,34.0009 L11.5321,34.0009 C10.9791,34.0009 10.5311,33.5529 10.5311,32.9999 C10.5311,32.4469 10.9791,31.9989 11.5321,31.9989 L13.3861,31.9989 C13.9391,31.9989 14.3871,32.4469 14.3871,32.9999 C14.3871,33.5529 13.9391,34.0009 13.3861,34.0009 M15.5241,17.9859 L17.3451,17.9859 C17.7431,17.9859 18.0811,18.2219 18.2421,18.5589 C20.7081,11.4189 24.9811,6.6089 29.9991,6.0399 L29.9991,5.9999 C21.0651,6.3279 13.2371,11.0139 8.5561,17.9859 L10.0631,17.9859 C10.6161,17.9859 11.0641,18.4339 11.0641,18.9869 C11.0641,19.5399 10.6161,19.9879 10.0631,19.9879 L7.3251,19.9879 C5.3461,23.5759 4.1641,27.6579 4.0041,31.9989 L5.9701,31.9989 C6.5231,31.9989 6.9711,32.4469 6.9711,32.9999 C6.9711,33.5529 6.5231,34.0009 5.9701,34.0009 L4.0001,34.0009 C4.1611,38.3429 5.3461,42.4249 7.3291,46.0119 L10.0641,46.0119 C10.6171,46.0119 11.0651,46.4599 11.0651,47.0129 C11.0651,47.5669 10.6171,48.0139 10.0641,48.0139 L8.5561,48.0139 C13.2371,54.9859 21.0651,59.6729 29.9991,59.9999 L29.9991,59.9639 C24.9811,59.3959 20.7071,54.5839 18.2411,47.4429 C18.0801,47.7789 17.7431,48.0139 17.3461,48.0139 L15.5251,48.0139 C14.9721,48.0139 14.5241,47.5669 14.5241,47.0129 C14.5241,46.4599 14.9721,46.0119 15.5251,46.0119 L17.3461,46.0119 C17.5211,46.0119 17.6771,46.0689 17.8201,46.1479 C16.6461,42.2769 15.9821,37.8059 15.9821,33.0019 C15.9821,28.1959 16.6471,23.7219 17.8221,19.8509 C17.6781,19.9299 17.5211,19.9879 17.3451,19.9879 L15.5241,19.9879 C14.9711,19.9879 14.5231,19.5399 14.5231,18.9869 C14.5231,18.4339 14.9711,17.9859 15.5241,17.9859" id="Fill-75"></path>
            <path d="M50.4677,34.0009 L48.6137,34.0009 C48.0607,34.0009 47.6127,33.5529 47.6127,32.9999 C47.6127,32.4469 48.0607,31.9989 48.6137,31.9989 L50.4677,31.9989 C51.0207,31.9989 51.4687,32.4469 51.4687,32.9999 C51.4687,33.5529 51.0207,34.0009 50.4677,34.0009 L50.4677,34.0009 Z M56.0297,34.0009 C55.4767,34.0009 55.0287,33.5529 55.0287,32.9999 C55.0287,32.4469 55.4767,31.9989 56.0297,31.9989 L57.9997,31.9989 C57.8387,27.6569 56.6537,23.5759 54.6707,19.9879 L51.9367,19.9879 C51.3827,19.9879 50.9347,19.5399 50.9347,18.9869 C50.9347,18.4339 51.3827,17.9859 51.9367,17.9859 L53.4437,17.9859 C48.7627,11.0149 40.9347,6.3279 32.0017,5.9999 L32.0017,6.0399 C37.0177,6.6089 41.2907,11.4189 43.7577,18.5579 C43.9187,18.2219 44.2547,17.9859 44.6527,17.9859 L46.4737,17.9859 C47.0267,17.9859 47.4747,18.4339 47.4747,18.9869 C47.4747,19.5399 47.0267,19.9879 46.4737,19.9879 L44.6527,19.9879 C44.4777,19.9879 44.3217,19.9309 44.1787,19.8519 C45.3527,23.7229 46.0177,28.1969 46.0177,33.0019 C46.0177,37.8059 45.3537,42.2769 44.1797,46.1479 C44.3227,46.0689 44.4787,46.0119 44.6537,46.0119 L46.4747,46.0119 C47.0277,46.0119 47.4757,46.4599 47.4757,47.0129 C47.4757,47.5669 47.0277,48.0139 46.4747,48.0139 L44.6537,48.0139 C44.2567,48.0139 43.9197,47.7789 43.7587,47.4429 C41.2927,54.5839 37.0187,59.3959 32.0017,59.9639 L32.0017,59.9999 C40.9347,59.6729 48.7627,54.9859 53.4447,48.0139 L51.9367,48.0139 C51.3837,48.0139 50.9357,47.5669 50.9357,47.0129 C50.9357,46.4599 51.3837,46.0119 51.9367,46.0119 L54.6747,46.0119 C56.6537,42.4239 57.8357,38.3429 57.9967,34.0009 L56.0297,34.0009 Z" id="Fill-76"></path>
        </g>
    </g>
</svg>