<?xml version="1.0" encoding="UTF-8" standalone="no"?>
<svg width="44px" height="44px" viewBox="0 0 44 44" version="1.1" xmlns="http://www.w3.org/2000/svg" xmlns:xlink="http://www.w3.org/1999/xlink">
    <!-- Generator: Sketch 3.7.2 (28276) - http://www.bohemiancoding.com/sketch -->
    <title>loc-search-person</title>
    <desc>Created with Sketch.</desc>
    <defs></defs>
    <g id="44px-Line" stroke="none" stroke-width="1" fill="none" fill-rule="evenodd">
        <g id="loc-search-person"></g>
        <path d="M17,34 C21.538,34 25.656,32.202 28.708,29.295 C27.701,30.596 27.78,32.471 28.972,33.664 L38.337,43.028 C38.983,43.674 39.833,43.999 40.683,43.999 C41.533,43.999 42.383,43.675 43.03,43.028 C44.322,41.734 44.322,39.63 43.03,38.336 L33.665,28.972 C32.473,27.78 30.597,27.701 29.296,28.708 C32.203,25.656 34.001,21.538 34.001,17 C34.001,7.626 26.375,-5.68434189e-14 17.001,-5.68434189e-14 C7.627,-5.68434189e-14 0.001,7.626 0.001,17 C0.001,26.374 7.626,34 17,34 L17,34 Z M30.386,30.386 C30.643,30.129 30.98,30 31.318,30 C31.656,30 31.993,30.129 32.25,30.386 L41.614,39.75 C42.128,40.264 42.128,41.101 41.614,41.614 C41.1,42.129 40.264,42.128 39.75,41.614 L30.386,32.25 C29.872,31.736 29.872,30.899 30.386,30.386 L30.386,30.386 Z M17,2 C25.271,2 32,8.729 32,17 C32,25.271 25.271,32 17,32 C8.729,32 2,25.271 2,17 C2,8.729 8.729,2 17,2 L17,2 Z" id="Shape" fill="#000000"></path>
        <path d="M10,23 C10,23.553 10.448,24 11,24 L23,24 C23.552,24 24,23.553 24,23 C24,20.302 22.463,17.96 20.221,16.792 C21.3,15.874 22,14.524 22,13 C22,10.243 19.757,8 17,8 C14.243,8 12,10.243 12,13 C12,14.524 12.7,15.874 13.779,16.792 C11.537,17.96 10,20.302 10,23 L10,23 Z M14,13 C14,11.346 15.346,10 17,10 C18.654,10 20,11.346 20,13 C20,14.654 18.654,16 17,16 C15.346,16 14,14.654 14,13 L14,13 Z M17,18 C19.415,18 21.435,19.721 21.899,22 L12.1,22 C12.565,19.721 14.585,18 17,18 L17,18 Z" id="Shape" fill="#000000"></path>
    </g>
</svg>