<?xml version="1.0" encoding="UTF-8" standalone="no"?>
<svg width="44px" height="44px" viewBox="0 0 44 44" version="1.1" xmlns="http://www.w3.org/2000/svg" xmlns:xlink="http://www.w3.org/1999/xlink">
    <!-- Generator: Sketch 3.7.2 (28276) - http://www.bohemiancoding.com/sketch -->
    <title>loc-point-distance</title>
    <desc>Created with Sketch.</desc>
    <defs></defs>
    <g id="44px-Glyph" stroke="none" stroke-width="1" fill="none" fill-rule="evenodd">
        <g id="loc-point-distance" fill="#000000">
            <path d="M35,11.999 C33.345,11.999 32,10.656 32,8.999 C32,7.343 33.345,6 35,6 C36.656,6 38,7.343 38,8.999 C38,10.656 36.656,11.999 35,11.999 M35,0 C30.037,0 26,4.037 26,9 C26,10.398 26.311,11.734 26.924,12.972 L34.105,27.444 C34.273,27.785 34.62,28 35,28 C35.38,28 35.727,27.785 35.896,27.444 L43.078,12.971 C43.689,11.733 44,10.397 44,9 C44,4.037 39.963,0 35,0" id="Fill-268"></path>
            <path d="M11.8887,23 C9.1267,23 6.8887,20.761 6.8887,18 C6.8887,15.239 9.1267,13 11.8887,13 C14.6487,13 16.8887,15.239 16.8887,18 C16.8887,20.761 14.6487,23 11.8887,23 M23.9997,17.889 C23.9997,11.333 18.6177,6 11.9997,6 C5.3827,6 -0.0003,11.333 -0.0003,17.889 C-0.0003,19.731 0.4137,21.497 1.2257,23.128 L11.1007,43.437 C11.1157,43.468 11.1397,43.492 11.1567,43.521 C11.1667,43.537 11.1677,43.556 11.1787,43.571 C11.1867,43.583 11.1997,43.586 11.2087,43.597 C11.2947,43.711 11.3987,43.804 11.5217,43.871 C11.5447,43.883 11.5657,43.891 11.5887,43.901 C11.7167,43.959 11.8537,44 11.9997,44 L12.0007,44 L12.0007,44 C12.0067,44 12.0127,43.998 12.0197,43.997 C12.1107,43.996 12.1997,43.983 12.2847,43.958 C12.3137,43.949 12.3397,43.932 12.3677,43.92 C12.4307,43.896 12.4927,43.869 12.5497,43.832 C12.5567,43.827 12.5647,43.826 12.5717,43.821 L16.6757,40.966 C17.1287,40.65 17.2417,40.026 16.9257,39.573 C16.6107,39.12 15.9857,39.008 15.5337,39.323 L14.5767,39.989 L22.7707,23.136 C23.5857,21.497 23.9997,19.731 23.9997,17.889" id="Fill-269"></path>
            <path d="M20.21,38.2891 C19.894,38.2891 19.582,38.1391 19.388,37.8601 C19.072,37.4071 19.185,36.7831 19.638,36.4681 L23.742,33.6121 C24.195,33.2971 24.819,33.4081 25.135,33.8621 C25.45,34.3151 25.338,34.9391 24.885,35.2551 L20.78,38.1101 C20.606,38.2311 20.407,38.2891 20.21,38.2891" id="Fill-270"></path>
            <path d="M28.4189,32.5791 C28.1029,32.5791 27.7909,32.4301 27.5969,32.1501 C27.2809,31.6971 27.3939,31.0731 27.8469,30.7581 L31.9509,27.9021 C32.4039,27.5871 33.0279,27.6991 33.3439,28.1521 C33.6589,28.6051 33.5469,29.2291 33.0939,29.5451 L28.9889,32.4001 C28.8149,32.5211 28.6159,32.5791 28.4189,32.5791" id="Fill-271"></path>
        </g>
    </g>
</svg>