<?xml version="1.0" encoding="UTF-8" standalone="no"?>
<svg width="44px" height="44px" viewBox="0 0 44 44" version="1.1" xmlns="http://www.w3.org/2000/svg" xmlns:xlink="http://www.w3.org/1999/xlink">
    <!-- Generator: Sketch 3.7.2 (28276) - http://www.bohemiancoding.com/sketch -->
    <title>loc-point-radius</title>
    <desc>Created with Sketch.</desc>
    <defs></defs>
    <g id="44px-Glyph" stroke="none" stroke-width="1" fill="none" fill-rule="evenodd">
        <g id="loc-point-radius" fill="#000000">
            <path d="M26.861,32.3066 L25.842,34.1956 C29.484,34.5806 31.679,35.4506 31.986,35.9996 C31.583,36.7216 27.927,37.9996 22,37.9996 C15.956,37.9996 12.273,36.6706 11.994,36.0416 C12.208,35.4966 14.422,34.5916 18.158,34.1966 L17.139,32.3066 C13.499,32.7746 10,33.8496 10,35.9996 C10,39.1576 17.543,39.9996 22,39.9996 C26.457,39.9996 34,39.1576 34,35.9996 C34,33.8496 30.501,32.7746 26.861,32.3066" id="Fill-262"></path>
            <path d="M21.8887,16 C19.6797,16 17.8887,14.208 17.8887,12 C17.8887,9.792 19.6797,8 21.8887,8 C24.0967,8 25.8887,9.792 25.8887,12 C25.8887,14.208 24.0967,16 21.8887,16 M21.9997,0 C15.3827,0 9.9997,5.333 9.9997,11.889 C9.9997,13.731 10.4137,15.497 11.2447,17.165 L21.1197,35.475 C21.2937,35.798 21.6327,36 21.9997,36 C22.3667,36 22.7057,35.798 22.8797,35.475 L32.7707,17.136 C33.5857,15.497 33.9997,13.731 33.9997,11.889 C33.9997,5.333 28.6167,0 21.9997,0" id="Fill-263"></path>
            <path d="M28.9248,28.4795 L27.9148,30.3535 C35.2518,31.2505 39.9998,33.7275 39.9998,36.0005 C39.9998,38.8375 32.6078,42.0005 21.9998,42.0005 C11.3928,42.0005 3.9998,38.8375 3.9998,36.0005 C3.9998,33.7275 8.7488,31.2505 16.0848,30.3535 L15.0748,28.4795 C7.9578,29.4835 1.9998,32.0495 1.9998,36.0005 C1.9998,41.1965 12.3048,44.0005 21.9998,44.0005 C31.6958,44.0005 41.9998,41.1965 41.9998,36.0005 C41.9998,32.0495 36.0418,29.4835 28.9248,28.4795" id="Fill-264"></path>
        </g>
    </g>
</svg>