<?xml version="1.0" encoding="UTF-8" standalone="no"?>
<svg width="64px" height="64px" viewBox="0 0 64 64" version="1.1" xmlns="http://www.w3.org/2000/svg" xmlns:xlink="http://www.w3.org/1999/xlink">
    <!-- Generator: Sketch 3.7.2 (28276) - http://www.bohemiancoding.com/sketch -->
    <title>loc-search-secure</title>
    <desc>Created with Sketch.</desc>
    <defs></defs>
    <g id="64px-Line" stroke="none" stroke-width="1" fill="none" fill-rule="evenodd">
        <g id="loc-search-secure"></g>
        <path d="M44.794,41.166 C43.899,40.27 42.608,39.921 41.392,40.092 C44.268,36.498 46,31.95 46,27 C46,15.42 36.58,6 25,6 C13.42,6 4,15.42 4,27 C4,38.579 13.42,48 25,48 C29.934,48 34.467,46.278 38.055,43.42 C38.029,43.605 38,43.79 38,43.98 C38,45.043 38.414,46.042 39.166,46.794 L51.207,58.834 C51.958,59.586 52.958,60 54.021,60 C55.084,60 56.083,59.586 56.835,58.834 C57.586,58.083 58.001,57.083 58.001,56.021 C58.001,54.958 57.587,53.959 56.835,53.207 L44.794,41.166 L44.794,41.166 Z M6,27 C6,16.523 14.523,8 25,8 C35.477,8 44,16.523 44,27 C44,37.477 35.477,46 25,46 C14.523,46 6,37.477 6,27 L6,27 Z M55.42,57.42 C54.672,58.168 53.368,58.168 52.62,57.42 L40.579,45.38 C40.205,45.006 39.999,44.509 39.999,43.98 C39.999,43.452 40.205,42.955 40.579,42.581 C40.953,42.207 41.451,42.001 41.979,42.001 C42.507,42.001 43.005,42.207 43.379,42.581 L55.42,54.621 C55.794,54.995 56,55.492 56,56.021 C56,56.549 55.794,57.046 55.42,57.42 L55.42,57.42 Z" id="Shape" fill="#000000"></path>
        <path d="M33,22 L32,22 L32,21 C32,17.14 28.86,14 25,14 C21.14,14 18,17.14 18,21 L18,22 L17,22 C16.448,22 16,22.448 16,23 L16,35 C16,35.553 16.448,36 17,36 L33,36 C33.552,36 34,35.553 34,35 L34,23 C34,22.448 33.552,22 33,22 L33,22 Z M20,21 C20,18.243 22.243,16 25,16 C27.757,16 30,18.243 30,21 L30,22 L20,22 L20,21 L20,21 Z M32,34 L18,34 L18,24 L32,24 L32,34 L32,34 Z" id="Shape" fill="#000000"></path>
    </g>
</svg>