<?xml version="1.0" encoding="UTF-8" standalone="no"?>
<svg width="64px" height="64px" viewBox="0 0 64 64" version="1.1" xmlns="http://www.w3.org/2000/svg" xmlns:xlink="http://www.w3.org/1999/xlink">
    <!-- Generator: Sketch 3.7.2 (28276) - http://www.bohemiancoding.com/sketch -->
    <title>loc-latitude</title>
    <desc>Created with Sketch.</desc>
    <defs></defs>
    <g id="64px-Glyph" stroke="none" stroke-width="1" fill="none" fill-rule="evenodd">
        <g id="loc-latitude" fill="#000000">
            <path d="M42.2704,17.487 C42.1404,17.544 42.0034,17.571 41.8694,17.571 C41.4834,17.571 41.1164,17.347 40.9514,16.972 C40.6834,16.358 40.3944,15.761 40.0964,15.199 C39.8374,14.71 40.0244,14.104 40.5124,13.845 C40.9984,13.585 41.6064,13.773 41.8654,14.26 C42.1864,14.867 42.4964,15.508 42.7854,16.168 C43.0074,16.673 42.7764,17.264 42.2704,17.487 L42.2704,17.487 Z M38.7624,11.278 C38.5704,11.454 38.3284,11.541 38.0864,11.541 C37.8164,11.541 37.5464,11.432 37.3484,11.216 C36.9054,10.732 36.4434,10.294 35.9754,9.915 C35.5464,9.567 35.4794,8.937 35.8274,8.506 C36.1764,8.079 36.8054,8.012 37.2364,8.359 C37.7804,8.801 38.3144,9.306 38.8244,9.865 C39.1984,10.272 39.1704,10.905 38.7624,11.278 L38.7624,11.278 Z M32.0014,15.387 C32.0014,15.94 31.5534,16.388 31.0004,16.388 C30.4464,16.388 29.9994,15.94 29.9994,15.387 L29.9994,13.533 C29.9994,12.98 30.4464,12.532 31.0004,12.532 C31.5534,12.532 32.0014,12.98 32.0014,13.533 L32.0014,15.387 Z M26.0244,9.916 C25.5564,10.295 25.0954,10.733 24.6514,11.217 C24.4534,11.433 24.1844,11.542 23.9134,11.542 C23.6714,11.542 23.4294,11.455 23.2374,11.279 C22.8294,10.906 22.8014,10.273 23.1754,9.865 C23.6854,9.307 24.2204,8.802 24.7634,8.36 C25.1944,8.013 25.8234,8.079 26.1724,8.507 C26.5204,8.938 26.4534,9.568 26.0244,9.916 L26.0244,9.916 Z M21.9024,15.2 C21.6044,15.762 21.3164,16.359 21.0474,16.973 C20.8824,17.348 20.5154,17.572 20.1294,17.572 C19.9954,17.572 19.8584,17.545 19.7284,17.488 C19.2224,17.265 18.9914,16.675 19.2134,16.169 C19.5034,15.509 19.8124,14.868 20.1334,14.261 C20.3934,13.773 20.9994,13.587 21.4874,13.846 C21.9754,14.105 22.1614,14.711 21.9024,15.2 L21.9024,15.2 Z M32.0014,6 L32.0014,6.035 C32.0424,6.039 32.0824,6.037 32.1244,6.042 C32.6724,6.113 33.0594,6.615 32.9904,7.163 C32.9254,7.669 32.4944,8.037 31.9984,8.037 L31.9874,8.037 C31.9524,8.557 31.5304,8.972 31.0004,8.972 C30.4704,8.972 30.0484,8.557 30.0124,8.037 L30.0034,8.037 C29.5064,8.037 29.0754,7.669 29.0104,7.163 C28.9414,6.615 29.3284,6.113 29.8774,6.042 C29.9184,6.037 29.9584,6.039 29.9994,6.035 L29.9994,6 C21.0644,6.329 13.2214,11.004 8.5414,17.983 L53.4584,17.983 C48.7784,11.004 40.9364,6.329 32.0014,6 L32.0014,6 Z" id="Fill-69"></path>
            <path d="M31,27.3641 C31.553,27.3641 32.001,27.8121 32.001,28.3651 L32.001,30.2201 C32.001,30.7731 31.553,31.2211 31,31.2211 C30.447,31.2211 29.999,30.7731 29.999,30.2201 L29.999,28.3651 C29.999,27.8121 30.447,27.3641 31,27.3641 M19.422,21.6501 C19.252,22.2811 19.096,22.9271 18.955,23.5861 C18.855,24.0561 18.439,24.3781 17.977,24.3781 C17.908,24.3781 17.837,24.3711 17.767,24.3561 C17.226,24.2401 16.881,23.7081 16.998,23.1671 C17.145,22.4731 17.31,21.7941 17.488,21.1301 C17.632,20.5961 18.184,20.2811 18.715,20.4231 C19.249,20.5671 19.565,21.1161 19.422,21.6501 M18.052,30.5141 C18.024,31.0481 17.582,31.4631 17.053,31.4631 C17.036,31.4631 17.018,31.4631 17,31.4621 C16.447,31.4321 16.024,30.9611 16.052,30.4091 C16.089,29.7081 16.14,29.0131 16.206,28.3291 C16.258,27.7781 16.737,27.3551 17.297,27.4271 C17.847,27.4791 18.251,27.9681 18.198,28.5191 C18.136,29.1761 18.088,29.8411 18.052,30.5141 M43.285,20.4241 C43.816,20.2821 44.368,20.5961 44.512,21.1311 C44.69,21.7951 44.855,22.4741 45.002,23.1681 C45.119,23.7091 44.774,24.2411 44.233,24.3561 C44.163,24.3721 44.092,24.3791 44.023,24.3791 C43.561,24.3791 43.145,24.0571 43.045,23.5871 C42.904,22.9281 42.748,22.2821 42.578,21.6511 C42.435,21.1171 42.751,20.5681 43.285,20.4241 M45.794,28.3291 C45.86,29.0131 45.911,29.7081 45.948,30.4091 C45.976,30.9611 45.553,31.4321 45,31.4621 C44.983,31.4631 44.964,31.4631 44.947,31.4631 C44.418,31.4631 43.976,31.0481 43.948,30.5141 C43.912,29.8411 43.864,29.1761 43.802,28.5191 C43.749,27.9681 44.153,27.4791 44.703,27.4271 C45.266,27.3521 45.742,27.7781 45.794,28.3291 M30.816,19.9851 L7.323,19.9851 C5.343,23.5741 4.159,27.6571 4,31.9991 L58,31.9991 C57.841,27.6571 56.657,23.5741 54.677,19.9851 L31.184,19.9851 C31.646,20.0741 32.001,20.4611 32.001,20.9491 L32.001,22.8031 C32.001,23.3561 31.553,23.8041 31,23.8041 C30.447,23.8041 29.999,23.3561 29.999,22.8031 L29.999,20.9491 C29.999,20.4611 30.354,20.0741 30.816,19.9851" id="Fill-70"></path>
            <path d="M31,38.6374 C30.447,38.6374 29.999,38.1894 29.999,37.6364 L29.999,35.7814 C29.999,35.2284 30.447,34.7804 31,34.7804 C31.553,34.7804 32.001,35.2284 32.001,35.7814 L32.001,37.6364 C32.001,38.1894 31.553,38.6374 31,38.6374 M42.573,44.3764 C42.744,43.7464 42.9,43.0994 43.042,42.4394 C43.157,41.9004 43.687,41.5514 44.231,41.6724 C44.771,41.7884 45.115,42.3214 44.998,42.8624 C44.849,43.5554 44.685,44.2334 44.507,44.8964 C44.387,45.3434 43.982,45.6384 43.541,45.6384 C43.455,45.6384 43.367,45.6274 43.28,45.6034 C42.746,45.4604 42.43,44.9104 42.573,44.3764 M43.947,35.5144 C43.976,34.9624 44.403,34.5274 45,34.5674 C45.552,34.5964 45.975,35.0674 45.947,35.6204 C45.909,36.3224 45.858,37.0164 45.791,37.7004 C45.741,38.2184 45.306,38.6064 44.796,38.6064 C44.764,38.6064 44.732,38.6054 44.699,38.6014 C44.149,38.5484 43.746,38.0594 43.799,37.5094 C43.862,36.8534 43.912,36.1874 43.947,35.5144 M18.721,45.6034 C18.634,45.6274 18.546,45.6384 18.46,45.6384 C18.019,45.6384 17.614,45.3434 17.494,44.8964 C17.316,44.2334 17.152,43.5554 17.003,42.8624 C16.886,42.3214 17.23,41.7884 17.77,41.6724 C18.314,41.5514 18.844,41.9004 18.959,42.4394 C19.101,43.0994 19.258,43.7464 19.428,44.3764 C19.571,44.9104 19.255,45.4604 18.721,45.6034 M16.209,37.7004 C16.142,37.0164 16.091,36.3224 16.053,35.6204 C16.025,35.0674 16.448,34.5964 17,34.5674 C17.537,34.5264 18.024,34.9624 18.053,35.5144 C18.088,36.1874 18.138,36.8524 18.201,37.5094 C18.254,38.0594 17.851,38.5484 17.301,38.6014 C17.268,38.6044 17.236,38.6064 17.204,38.6064 C16.694,38.6064 16.259,38.2184 16.209,37.7004 M31.184,46.0164 L54.677,46.0164 C56.657,42.4274 57.841,38.3444 58,34.0024 L4,34.0024 C4.159,38.3444 5.343,42.4274 7.323,46.0164 L30.816,46.0164 C30.354,45.9274 29.999,45.5404 29.999,45.0524 L29.999,43.1984 C29.999,42.6454 30.447,42.1974 31,42.1974 C31.553,42.1974 32.001,42.6454 32.001,43.1984 L32.001,45.0524 C32.001,45.5404 31.646,45.9274 31.184,46.0164" id="Fill-71"></path>
            <path d="M42.7757,49.8569 C42.4877,50.5139 42.1777,51.1549 41.8537,51.7639 C41.6737,52.1019 41.3277,52.2949 40.9697,52.2949 C40.8107,52.2949 40.6497,52.2569 40.4997,52.1769 C40.0127,51.9179 39.8267,51.3119 40.0867,50.8229 C40.3867,50.2589 40.6747,49.6619 40.9437,49.0509 C41.1657,48.5459 41.7547,48.3159 42.2627,48.5379 C42.7687,48.7599 42.9987,49.3509 42.7757,49.8569 L42.7757,49.8569 Z M38.8087,56.1579 C38.3007,56.7119 37.7657,57.2179 37.2177,57.6599 C37.0317,57.8099 36.8097,57.8829 36.5887,57.8829 C36.2967,57.8829 36.0077,57.7559 35.8097,57.5119 C35.4627,57.0819 35.5287,56.4509 35.9587,56.1039 C36.4297,55.7219 36.8927,55.2849 37.3327,54.8039 C37.7067,54.3959 38.3407,54.3689 38.7477,54.7429 C39.1547,55.1169 39.1827,55.7499 38.8087,56.1579 L38.8087,56.1579 Z M32.0007,52.4689 C32.0007,53.0219 31.5537,53.4699 30.9997,53.4699 C30.4467,53.4699 29.9987,53.0219 29.9987,52.4689 L29.9987,50.6149 C29.9987,50.0609 30.4467,49.6139 30.9997,49.6139 C31.5537,49.6139 32.0007,50.0609 32.0007,50.6149 L32.0007,52.4689 Z M26.1907,57.5119 C25.9937,57.7559 25.7037,57.8829 25.4117,57.8829 C25.1907,57.8829 24.9687,57.8099 24.7837,57.6599 C24.2367,57.2179 23.7017,56.7129 23.1917,56.1589 C22.8177,55.7519 22.8447,55.1179 23.2517,54.7439 C23.6587,54.3699 24.2917,54.3959 24.6657,54.8029 C25.1097,55.2859 25.5717,55.7239 26.0417,56.1039 C26.4727,56.4509 26.5387,57.0819 26.1907,57.5119 L26.1907,57.5119 Z M21.4997,52.1769 C21.3507,52.2569 21.1887,52.2949 21.0307,52.2949 C20.6717,52.2949 20.3257,52.1019 20.1457,51.7639 C19.8227,51.1549 19.5127,50.5139 19.2247,49.8569 C19.0017,49.3509 19.2307,48.7599 19.7377,48.5379 C20.2447,48.3159 20.8357,48.5459 21.0557,49.0509 C21.3247,49.6619 21.6137,50.2589 21.9137,50.8229 C22.1737,51.3119 21.9877,51.9179 21.4997,52.1769 L21.4997,52.1769 Z M8.5417,48.0189 C13.2207,54.9979 21.0647,59.6719 29.9987,59.9999 L29.9987,59.9699 C29.9577,59.9649 29.9157,59.9669 29.8737,59.9619 C29.3267,59.8909 28.9397,59.3879 29.0117,58.8389 C29.0767,58.3349 29.5087,57.9789 30.0087,57.9849 C30.0337,57.4539 30.4627,57.0299 30.9997,57.0299 C31.5367,57.0299 31.9657,57.4539 31.9917,57.9849 C32.4917,57.9779 32.9237,58.3349 32.9897,58.8389 C33.0617,59.3879 32.6747,59.8909 32.1267,59.9619 C32.0857,59.9669 32.0427,59.9649 32.0007,59.9699 L32.0007,59.9999 C40.9357,59.6719 48.7787,54.9979 53.4587,48.0189 L8.5417,48.0189 Z" id="Fill-72"></path>
        </g>
    </g>
</svg>