<?xml version="1.0" encoding="UTF-8" standalone="no"?>
<svg width="64px" height="64px" viewBox="0 0 64 64" version="1.1" xmlns="http://www.w3.org/2000/svg" xmlns:xlink="http://www.w3.org/1999/xlink">
    <!-- Generator: Sketch 3.7.2 (28276) - http://www.bohemiancoding.com/sketch -->
    <title>loc-east</title>
    <desc>Created with Sketch.</desc>
    <defs></defs>
    <g id="64px-Glyph" stroke="none" stroke-width="1" fill="none" fill-rule="evenodd">
        <g id="loc-east" fill="#000000">
            <path d="M25.9482,32.6836 C26.0172,32.8886 26.0172,33.1116 25.9482,33.3166 L24.6532,37.2046 L34.4612,32.9996 L24.6532,28.7956 L25.9482,32.6836 Z" id="Fill-127"></path>
            <path d="M51,40 L43,40 C42.447,40 42,39.553 42,39 L42,27 C42,26.447 42.447,26 43,26 L51,26 C51.553,26 52,26.447 52,27 C52,27.553 51.553,28 51,28 L44,28 L44,32 L49,32 C49.553,32 50,32.447 50,33 C50,33.553 49.553,34 49,34 L44,34 L44,38 L51,38 C51.553,38 52,38.447 52,39 C52,39.553 51.553,40 51,40 M37.394,33.919 L23.394,39.919 C23.267,39.974 23.133,40 23,40 C22.754,40 22.511,39.909 22.323,39.736 C22.033,39.47 21.927,39.058 22.052,38.684 L23.946,33 L22.052,27.316 C21.927,26.942 22.033,26.53 22.323,26.264 C22.611,25.997 23.03,25.924 23.394,26.081 L37.394,32.081 C37.762,32.238 38,32.6 38,33 C38,33.4 37.762,33.762 37.394,33.919 M32,6.025 L32,13 C32,13.553 31.553,14 31,14 C30.447,14 30,13.553 30,13 L30,6.025 C15.907,6.542 4.542,17.907 4.025,32 L11,32 C11.553,32 12,32.447 12,33 C12,33.553 11.553,34 11,34 L4.025,34 C4.542,48.093 15.907,59.458 30,59.975 L30,53 C30,52.447 30.447,52 31,52 C31.553,52 32,52.447 32,53 L32,59.975 C46.426,59.446 58,47.552 58,33 C58,18.448 46.426,6.554 32,6.025" id="Fill-128"></path>
        </g>
    </g>
</svg>