<?xml version="1.0" encoding="UTF-8" standalone="no"?>
<svg width="44px" height="44px" viewBox="0 0 44 44" version="1.1" xmlns="http://www.w3.org/2000/svg" xmlns:xlink="http://www.w3.org/1999/xlink">
    <!-- Generator: Sketch 3.7.2 (28276) - http://www.bohemiancoding.com/sketch -->
    <title>loc-point-star</title>
    <desc>Created with Sketch.</desc>
    <defs></defs>
    <g id="44px-Glyph" stroke="none" stroke-width="1" fill="none" fill-rule="evenodd">
        <g id="loc-point-star" fill="#000000">
            <path d="M22.6416,12.6904 L21.0256,9.3494 L19.5066,12.6704 C19.3596,12.9934 19.0516,13.2134 18.6996,13.2504 L15.1006,13.6164 L17.8026,16.5234 C18.0316,16.7694 18.1206,17.1134 18.0416,17.4394 L17.1646,21.0634 L20.5976,19.2234 C20.7456,19.1444 20.9086,19.1054 21.0706,19.1054 C21.2366,19.1054 21.4026,19.1464 21.5516,19.2294 L24.8876,21.0634 L24.0926,17.4174 C24.0246,17.1024 24.1116,16.7754 24.3266,16.5364 L26.9466,13.6164 L23.4386,13.2494 C23.0936,13.2134 22.7926,13.0024 22.6416,12.6904" id="Fill-245"></path>
            <path d="M29.7441,13.4932 L26.1561,17.4912 L27.3101,22.7872 C27.3931,23.1702 27.2451,23.5662 26.9311,23.8022 C26.6161,24.0342 26.1931,24.0632 25.8511,23.8762 L21.0641,21.2432 L16.1391,23.8822 C15.9911,23.9612 15.8291,24.0002 15.6671,24.0002 C15.4501,24.0002 15.2341,23.9292 15.0561,23.7912 C14.7431,23.5502 14.6021,23.1472 14.6951,22.7642 L15.9721,17.4912 L12.2671,13.5062 C12.0091,13.2282 11.9311,12.8282 12.0641,12.4722 C12.1981,12.1172 12.5211,11.8692 12.8981,11.8302 L17.9271,11.3182 L20.0911,6.5842 C20.2521,6.2312 20.6011,6.0042 20.9891,6.0002 C21.3861,5.9752 21.7321,6.2162 21.9001,6.5642 L24.2001,11.3182 L29.1031,11.8312 C29.4771,11.8702 29.7981,12.1152 29.9331,12.4662 C30.0681,12.8162 29.9951,13.2132 29.7441,13.4932 M21.0001,0.0002 C12.7281,0.0002 6.0001,6.7282 6.0001,15.0002 C6.0001,17.6582 6.7051,20.2712 8.0391,22.5542 C8.0401,22.5562 8.0401,22.5572 8.0411,22.5592 C8.2401,22.9002 20.1341,43.5002 20.1341,43.5002 C20.3121,43.8092 20.6421,44.0002 21.0001,44.0002 C21.3571,44.0002 21.6871,43.8092 21.8661,43.5002 L33.9721,22.5352 L33.9731,22.5352 C35.2991,20.2582 36.0001,17.6512 36.0001,15.0002 C36.0001,6.7282 29.2711,0.0002 21.0001,0.0002" id="Fill-246"></path>
        </g>
    </g>
</svg>