<?xml version="1.0" encoding="UTF-8" standalone="no"?>
<svg width="44px" height="44px" viewBox="0 0 44 44" version="1.1" xmlns="http://www.w3.org/2000/svg" xmlns:xlink="http://www.w3.org/1999/xlink">
    <!-- Generator: Sketch 3.7.2 (28276) - http://www.bohemiancoding.com/sketch -->
    <title>loc-sign-warning</title>
    <desc>Created with Sketch.</desc>
    <defs></defs>
    <g id="44px-Line" stroke="none" stroke-width="1" fill="none" fill-rule="evenodd">
        <g id="loc-sign-warning"></g>
        <path d="M22,23 C22,21.346 20.654,20 19,20 C17.346,20 16,21.346 16,23 C16,24.654 17.346,26 19,26 C20.654,26 22,24.654 22,23 L22,23 Z M18,23 C18,22.449 18.449,22 19,22 C19.551,22 20,22.449 20,23 C20,23.551 19.551,24 19,24 C18.449,24 18,23.551 18,23 L18,23 Z" id="Shape" fill="#000000"></path>
        <path d="M19,18 C20.654,18 22,16.654 22,15 L22,9 C22,7.346 20.654,6 19,6 C17.346,6 16,7.346 16,9 L16,15 C16,16.654 17.346,18 19,18 L19,18 Z M18,9 C18,8.449 18.449,8 19,8 C19.551,8 20,8.449 20,9 L20,15 C20,15.551 19.551,16 19,16 C18.449,16 18,15.551 18,15 L18,9 L18,9 Z" id="Shape" fill="#000000"></path>
        <path d="M1,30 L16,30 L16,43 C16,43.552 16.448,44 17,44 L21,44 C21.552,44 22,43.552 22,43 L22,30 L37,30 C37.552,30 38,29.552 38,29 L38,3 C38,2.448 37.552,2 37,2 L22,2 L22,1 C22,0.448 21.552,0 21,0 L17,0 C16.448,0 16,0.448 16,1 L16,2 L1,2 C0.448,2 0,2.448 0,3 L0,29 C0,29.552 0.448,30 1,30 L1,30 Z M20,42 L18,42 L18,30 L20,30 L20,42 L20,42 Z M2,4 L36,4 L36,28 L2,28 L2,4 L2,4 Z" id="Shape" fill="#000000"></path>
    </g>
</svg>