<?xml version="1.0" encoding="UTF-8" standalone="no"?>
<svg width="44px" height="44px" viewBox="0 0 44 44" version="1.1" xmlns="http://www.w3.org/2000/svg" xmlns:xlink="http://www.w3.org/1999/xlink">
    <!-- Generator: Sketch 3.7.2 (28276) - http://www.bohemiancoding.com/sketch -->
    <title>loc-pin</title>
    <desc>Created with Sketch.</desc>
    <defs></defs>
    <g id="44px-Glyph" stroke="none" stroke-width="1" fill="none" fill-rule="evenodd">
        <g id="loc-pin" fill="#000000">
            <path d="M26,16.2695 L26,7.6405 C28.688,6.2815 31,3.2755 31,0.9995 C31,0.4475 30.553,-0.0005 30,-0.0005 L12,-0.0005 C11.447,-0.0005 11,0.4475 11,0.9995 C11,3.2765 13.312,6.2825 16,7.6415 L16,16.2985 C11.727,17.7875 8,21.7695 8,24.9995 C8,25.5525 8.447,25.9995 9,25.9995 L20,25.9995 L20,42.9995 C20,43.5525 20.447,43.9995 21,43.9995 C21.553,43.9995 22,43.5525 22,42.9995 L22,25.9995 L33,25.9995 C33.553,25.9995 34,25.5525 34,24.9995 C34,21.7535 30.273,17.7575 26,16.2695" id="Fill-152"></path>
        </g>
    </g>
</svg>