<?xml version="1.0" encoding="UTF-8" standalone="no"?>
<svg width="64px" height="64px" viewBox="0 0 64 64" version="1.1" xmlns="http://www.w3.org/2000/svg" xmlns:xlink="http://www.w3.org/1999/xlink">
    <!-- Generator: Sketch 3.7.2 (28276) - http://www.bohemiancoding.com/sketch -->
    <title>loc-pin-map</title>
    <desc>Created with Sketch.</desc>
    <defs></defs>
    <g id="64px-Glyph" stroke="none" stroke-width="1" fill="none" fill-rule="evenodd">
        <g id="loc-pin-map" fill="#000000">
            <path d="M22,28.2798 L4.684,34.0518 C4.275,34.1878 4,34.5698 4,34.9998 L4,58.9998 C4,59.3218 4.154,59.6228 4.415,59.8118 C4.588,59.9358 4.793,59.9998 5,59.9998 C5.106,59.9998 5.213,59.9838 5.316,59.9478 L22,54.3868 L22,28.2798 Z" id="Fill-103"></path>
            <path d="M59.585,28.1885 C59.323,27.9995 58.987,27.9475 58.684,28.0515 L42,33.6125 L42,59.7205 L59.316,53.9485 C59.725,53.8125 60,53.4305 60,52.9995 L60,28.9995 C60,28.6785 59.846,28.3775 59.585,28.1885" id="Fill-104"></path>
            <path d="M36,18.2524 L36,9.7004 C38.481,8.7764 40,7.5874 40,5.0004 C40,4.4474 39.553,4.0004 39,4.0004 L23,4.0004 C22.447,4.0004 22,4.4474 22,5.0004 C22,7.5874 23.519,8.7764 26,9.7004 L26,18.2374 C21.073,19.6794 20,22.6774 20,25.0004 C20,25.5524 20.447,26.0004 21,26.0004 L30,26.0004 L30,30.2794 L24,28.2794 L24,54.3874 L40,59.7204 L40,33.6124 L34,31.6124 L34,41.0004 C34,41.5524 33.553,42.0004 33,42.0004 C32.447,42.0004 32,41.5524 32,41.0004 L32,30.9464 L32,26.0004 L41,26.0004 C41.553,26.0004 42,25.5524 42,25.0004 C42,21.6674 39.965,19.4104 36,18.2524" id="Fill-105"></path>
        </g>
    </g>
</svg>