<?xml version="1.0" encoding="UTF-8" standalone="no"?>
<svg width="64px" height="64px" viewBox="0 0 64 64" version="1.1" xmlns="http://www.w3.org/2000/svg" xmlns:xlink="http://www.w3.org/1999/xlink">
    <!-- Generator: Sketch 3.7.2 (28276) - http://www.bohemiancoding.com/sketch -->
    <title>loc-map-route</title>
    <desc>Created with Sketch.</desc>
    <defs></defs>
    <g id="64px-Glyph" stroke="none" stroke-width="1" fill="none" fill-rule="evenodd">
        <g id="loc-map-route" fill="#000000">
            <path d="M36.9482,40.6992 C36.7512,40.9172 36.4792,41.0282 36.2072,41.0282 C35.9682,41.0282 35.7272,40.9432 35.5362,40.7692 C34.8222,40.1242 34.1332,39.3352 33.4272,38.3562 C33.1042,37.9082 33.2052,37.2832 33.6532,36.9612 C34.1022,36.6372 34.7272,36.7382 35.0492,37.1862 C35.6722,38.0502 36.2702,38.7362 36.8782,39.2872 C37.2872,39.6572 37.3192,40.2902 36.9482,40.6992 L36.9482,40.6992 Z M32.1132,34.3772 C31.9592,34.4632 31.7922,34.5042 31.6272,34.5042 C31.2762,34.5042 30.9362,34.3192 30.7532,33.9912 L30.5442,33.6162 C30.1252,32.8662 29.7092,32.1192 29.2842,31.4002 C29.0032,30.9252 29.1602,30.3112 29.6362,30.0312 C30.1092,29.7502 30.7242,29.9082 31.0052,30.3832 C31.4382,31.1162 31.8632,31.8772 32.2902,32.6422 L32.4992,33.0162 C32.7682,33.4982 32.5962,34.1072 32.1132,34.3772 L32.1132,34.3772 Z M40.0002,42.7152 C39.7932,42.5222 39.6602,42.2522 39.6742,41.9472 C39.6862,41.6732 39.8112,41.4262 40.0002,41.2512 L40.0002,11.6132 L24.0002,6.2802 L24.0002,24.5692 C24.2602,24.3162 24.6442,24.2052 25.0102,24.3252 C26.0262,24.6662 26.9662,25.2642 27.8852,26.1522 C28.2822,26.5362 28.2932,27.1692 27.9092,27.5662 C27.7132,27.7682 27.4522,27.8712 27.1902,27.8712 C26.9402,27.8712 26.6892,27.7772 26.4952,27.5902 C25.7952,26.9132 25.1012,26.4662 24.3742,26.2222 C24.2262,26.1722 24.1042,26.0862 24.0002,25.9842 L24.0002,52.3872 L40.0002,57.7202 L40.0002,42.7152 Z" id="Fill-141"></path>
            <path d="M20.4551,26.7813 C19.7771,27.2083 19.1091,27.8113 18.4701,28.5773 C18.2711,28.8133 17.9871,28.9353 17.7011,28.9353 C17.4761,28.9353 17.2481,28.8593 17.0601,28.7033 C16.6371,28.3483 16.5811,27.7173 16.9341,27.2943 C17.7091,26.3683 18.5351,25.6263 19.3911,25.0883 C19.8571,24.7963 20.4751,24.9343 20.7691,25.4023 C21.0631,25.8693 20.9231,26.4863 20.4551,26.7813 L20.4551,26.7813 Z M16.0051,32.6153 C15.3151,34.1103 14.9611,35.2763 14.9581,35.2883 C14.8271,35.7203 14.4301,36.0003 14.0001,36.0003 C13.9051,36.0003 13.8091,35.9863 13.7121,35.9573 C13.1841,35.7983 12.8841,35.2413 13.0421,34.7133 C13.0581,34.6603 13.4361,33.4083 14.1881,31.7773 C14.4191,31.2763 15.0101,31.0533 15.5161,31.2883 C16.0171,31.5193 16.2361,32.1133 16.0051,32.6153 L16.0051,32.6153 Z M22.0001,6.2793 L4.6841,12.0513 C4.2751,12.1873 4.0001,12.5693 4.0001,13.0003 L4.0001,57.0003 C4.0001,57.3213 4.1541,57.6233 4.4151,57.8113 C4.5881,57.9353 4.7931,58.0003 5.0001,58.0003 C5.1061,58.0003 5.2131,57.9833 5.3161,57.9483 L22.0001,52.3873 L22.0001,6.2793 Z" id="Fill-142"></path>
            <path d="M54.5547,28.168 C55.0147,28.475 55.1387,29.095 54.8317,29.555 C54.6397,29.844 54.3227,30 53.9987,30 C53.8087,30 53.6167,29.945 53.4457,29.832 L51.2317,28.356 L48.7997,31.6 C48.6037,31.862 48.3037,32 47.9987,32 C47.7897,32 47.5797,31.935 47.4007,31.8 C46.9577,31.469 46.8687,30.842 47.2007,30.4 L49.5667,27.246 L47.4457,25.832 C46.9857,25.525 46.8617,24.905 47.1677,24.445 C47.4737,23.985 48.0937,23.861 48.5547,24.168 L50.7677,25.644 L53.2007,22.4 C53.5327,21.958 54.1587,21.869 54.5997,22.2 C55.0417,22.531 55.1317,23.158 54.7997,23.6 L52.4337,26.754 L54.5547,28.168 Z M50.7797,37.696 C50.2537,38.719 49.5757,39.613 48.7657,40.356 C48.5727,40.532 48.3307,40.619 48.0897,40.619 C47.8197,40.619 47.5497,40.51 47.3527,40.295 C46.9797,39.888 47.0067,39.255 47.4137,38.882 C48.0497,38.299 48.5827,37.593 48.9997,36.782 C49.2527,36.291 49.8557,36.099 50.3467,36.35 C50.8377,36.603 51.0317,37.205 50.7797,37.696 L50.7797,37.696 Z M59.5847,6.189 C59.3227,6 58.9877,5.947 58.6837,6.052 L41.9997,11.613 L41.9997,40.964 C42.5077,40.927 43.0017,40.867 43.4607,40.777 C43.9977,40.671 44.5277,41.024 44.6337,41.567 C44.7397,42.109 44.3857,42.635 43.8437,42.74 C43.2627,42.854 42.6387,42.917 41.9997,42.956 L41.9997,57.72 L59.3167,51.948 C59.7247,51.813 59.9997,51.431 59.9997,51 L59.9997,7 C59.9997,6.679 59.8457,6.377 59.5847,6.189 L59.5847,6.189 Z" id="Fill-143"></path>
        </g>
    </g>
</svg>