<?xml version="1.0" encoding="UTF-8" standalone="no"?>
<svg width="44px" height="44px" viewBox="0 0 44 44" version="1.1" xmlns="http://www.w3.org/2000/svg" xmlns:xlink="http://www.w3.org/1999/xlink">
    <!-- Generator: Sketch 3.7.2 (28276) - http://www.bohemiancoding.com/sketch -->
    <title>loc-points</title>
    <desc>Created with Sketch.</desc>
    <defs></defs>
    <g id="44px-Glyph" stroke="none" stroke-width="1" fill="none" fill-rule="evenodd">
        <g id="loc-points" fill="#000000">
            <path d="M9.4268,24.0029 C8.4828,22.1059 7.9998,20.0429 7.9998,17.8889 C7.9998,16.0949 8.3558,14.3859 8.9828,12.8109 C7.8288,12.3929 6.9998,11.2979 6.9998,9.9999 C6.9998,8.3429 8.3428,6.9999 9.9998,6.9999 C10.8758,6.9999 11.6578,7.3819 12.2058,7.9809 C13.8928,6.3399 15.9968,5.1289 18.3408,4.4979 C16.5498,1.7909 13.4818,-0.0001 9.9998,-0.0001 C4.4858,-0.0001 -0.0002,4.4859 -0.0002,9.9999 C-0.0002,11.3489 0.2648,12.6579 0.7858,13.8929 C0.7958,13.9169 0.8078,13.9399 0.8198,13.9639 L9.0798,33.3919 C9.2358,33.7609 9.5988,33.9999 9.9998,33.9999 C10.4018,33.9999 10.7638,33.7609 10.9198,33.3919 L12.3528,30.0209 L9.4268,24.0029 Z" id="Fill-265"></path>
            <path d="M34,0 C30.519,0 27.45,1.791 25.659,4.498 C28.003,5.129 30.107,6.34 31.794,7.981 C32.342,7.382 33.124,7 34,7 C35.657,7 37,8.343 37,10 C37,11.298 36.171,12.393 35.018,12.811 C35.644,14.386 36,16.095 36,17.889 C36,20.043 35.516,22.108 34.561,24.026 L31.647,30.021 L33.08,33.392 C33.236,33.761 33.599,34 34,34 C34.401,34 34.764,33.761 34.92,33.392 L43.181,13.964 C43.192,13.94 43.204,13.917 43.214,13.893 C43.735,12.658 44,11.349 44,10 C44,4.486 39.514,0 34,0" id="Fill-266"></path>
            <path d="M21.8887,22 C19.6797,22 17.8887,20.208 17.8887,18 C17.8887,15.792 19.6797,14 21.8887,14 C24.0967,14 25.8887,15.792 25.8887,18 C25.8887,20.208 24.0967,22 21.8887,22 M21.9997,6 C15.3827,6 9.9997,11.333 9.9997,17.889 C9.9997,19.731 10.4137,21.497 11.2257,23.128 L21.1007,43.437 C21.2677,43.781 21.6177,44 21.9997,44 C22.3827,44 22.7327,43.781 22.8997,43.437 L32.7707,23.136 C33.5857,21.497 33.9997,19.731 33.9997,17.889 C33.9997,11.333 28.6177,6 21.9997,6" id="Fill-267"></path>
        </g>
    </g>
</svg>