<?xml version="1.0" encoding="UTF-8" standalone="no"?>
<svg width="44px" height="44px" viewBox="0 0 44 44" version="1.1" xmlns="http://www.w3.org/2000/svg" xmlns:xlink="http://www.w3.org/1999/xlink">
    <!-- Generator: Sketch 3.7.2 (28276) - http://www.bohemiancoding.com/sketch -->
    <title>loc-search-location</title>
    <desc>Created with Sketch.</desc>
    <defs></defs>
    <g id="44px-Line" stroke="none" stroke-width="1" fill="none" fill-rule="evenodd">
        <g id="loc-search-location"></g>
        <path d="M17,12 C15.346,12 14,13.346 14,15 C14,16.654 15.346,18 17,18 C18.654,18 20,16.654 20,15 C20,13.346 18.654,12 17,12 L17,12 Z M17,16 C16.449,16 16,15.551 16,15 C16,14.449 16.449,14 17,14 C17.551,14 18,14.449 18,15 C18,15.551 17.551,16 17,16 L17,16 Z" id="Shape" fill="#000000"></path>
        <path d="M17,8 C13.14,8 10,11.222 10,15.182 C10,16.29 10.239,17.353 10.753,18.419 L16.139,27.51 C16.319,27.814 16.646,28 16.999,28 C17.352,28 17.679,27.813 17.859,27.51 L23.287,18.341 C23.759,17.354 23.998,16.291 23.998,15.182 C24,11.222 20.86,8 17,8 L17,8 Z M21.526,17.399 L17,25.039 L12.517,17.478 C12.175,16.762 12.001,15.989 12.001,15.182 C12.001,12.325 14.244,10 17.001,10 C19.758,10 22.001,12.325 22.001,15.182 C22,15.989 21.826,16.762 21.526,17.399 L21.526,17.399 Z" id="Shape" fill="#000000"></path>
        <path d="M33.664,28.972 C32.472,27.78 30.596,27.701 29.295,28.708 C32.202,25.656 34,21.538 34,17 C34,7.626 26.374,-5.68434189e-14 17,-5.68434189e-14 C7.626,-5.68434189e-14 0,7.626 0,17 C0,26.374 7.626,34 17,34 C21.538,34 25.656,32.202 28.708,29.295 C27.701,30.596 27.78,32.471 28.972,33.664 L38.337,43.028 C38.983,43.674 39.833,43.999 40.683,43.999 C41.533,43.999 42.383,43.675 43.03,43.028 C44.322,41.734 44.322,39.63 43.03,38.336 L33.664,28.972 L33.664,28.972 Z M17,32 C8.729,32 2,25.271 2,17 C2,8.729 8.729,2 17,2 C25.271,2 32,8.729 32,17 C32,25.271 25.271,32 17,32 L17,32 Z M41.614,41.614 C41.1,42.129 40.264,42.128 39.75,41.614 L30.386,32.25 C29.872,31.736 29.872,30.899 30.386,30.386 C30.643,30.129 30.98,30 31.318,30 C31.656,30 31.993,30.129 32.25,30.386 L41.614,39.75 C42.128,40.264 42.128,41.101 41.614,41.614 L41.614,41.614 Z" id="Shape" fill="#000000"></path>
    </g>
</svg>