<?xml version="1.0" encoding="UTF-8" standalone="no"?>
<svg width="64px" height="64px" viewBox="0 0 64 64" version="1.1" xmlns="http://www.w3.org/2000/svg" xmlns:xlink="http://www.w3.org/1999/xlink">
    <!-- Generator: Sketch 3.7.2 (28276) - http://www.bohemiancoding.com/sketch -->
    <title>loc-compass</title>
    <desc>Created with Sketch.</desc>
    <defs></defs>
    <g id="64px-Glyph" stroke="none" stroke-width="1" fill="none" fill-rule="evenodd">
        <g id="loc-compass" fill="#000000">
            <polygon id="Fill-28" points="34.7697 35.3555 42.4257 21.5745 28.6447 29.2305"></polygon>
            <path d="M45.874,19.4854 L35.874,37.4854 C35.83,37.5654 35.774,37.6374 35.71,37.7024 C35.709,37.7034 35.708,37.7054 35.707,37.7074 C35.706,37.7084 35.704,37.7094 35.702,37.7104 C35.638,37.7734 35.565,37.8294 35.485,37.8744 L17.485,47.8744 C17.333,47.9594 17.166,48.0004 17,48.0004 C16.741,48.0004 16.485,47.8994 16.293,47.7074 C15.977,47.3914 15.909,46.9044 16.126,46.5144 L26.126,28.5144 C26.17,28.4344 26.226,28.3624 26.29,28.2984 C26.291,28.2964 26.291,28.2944 26.293,28.2934 C26.294,28.2914 26.296,28.2914 26.298,28.2904 C26.362,28.2264 26.435,28.1704 26.515,28.1264 L44.515,18.1264 C44.904,17.9094 45.392,17.9774 45.707,18.2934 C46.022,18.6084 46.091,19.0954 45.874,19.4854 M31,6.0004 C16.112,6.0004 4,18.1124 4,33.0004 C4,47.8874 16.112,60.0004 31,60.0004 C45.888,60.0004 58,47.8874 58,33.0004 C58,18.1124 45.888,6.0004 31,6.0004" id="Fill-30"></path>
            <polygon id="Fill-32" points="27.2303 30.6445 19.5743 44.4255 33.3553 36.7695"></polygon>
        </g>
    </g>
</svg>