<?xml version="1.0" encoding="UTF-8" standalone="no"?>
<svg width="64px" height="64px" viewBox="0 0 64 64" version="1.1" xmlns="http://www.w3.org/2000/svg" xmlns:xlink="http://www.w3.org/1999/xlink">
    <!-- Generator: Sketch 3.7.2 (28276) - http://www.bohemiancoding.com/sketch -->
    <title>loc-signpost</title>
    <desc>Created with Sketch.</desc>
    <defs></defs>
    <g id="64px-Line" stroke="none" stroke-width="1" fill="none" fill-rule="evenodd">
        <g id="loc-signpost"></g>
        <path d="M48.707,10.293 C48.52,10.105 48.266,10 48,10 L34,10 L34,5 C34,4.448 33.553,4 33,4 L29,4 C28.447,4 28,4.448 28,5 L28,10 L7,10 C6.447,10 6,10.448 6,11 L6,29 C6,29.552 6.447,30 7,30 L28,30 L28,59 C28,59.552 28.447,60 29,60 L33,60 C33.553,60 34,59.552 34,59 L34,30 L48,30 C48.266,30 48.52,29.895 48.707,29.707 L57.707,20.707 C58.098,20.316 58.098,19.684 57.707,19.293 L48.707,10.293 L48.707,10.293 Z M30,6 L32,6 L32,10 L30,10 L30,6 L30,6 Z M32,58 L30,58 L30,30 L32,30 L32,58 L32,58 Z M47.586,28 L8,28 L8,12 L47.586,12 L55.586,20 L47.586,28 L47.586,28 Z" id="Shape" fill="#000000"></path>
    </g>
</svg>