<?xml version="1.0" encoding="UTF-8" standalone="no"?>
<svg width="64px" height="64px" viewBox="0 0 64 64" version="1.1" xmlns="http://www.w3.org/2000/svg" xmlns:xlink="http://www.w3.org/1999/xlink">
    <!-- Generator: Sketch 3.7.2 (28276) - http://www.bohemiancoding.com/sketch -->
    <title>loc-pin-distance-2</title>
    <desc>Created with Sketch.</desc>
    <defs></defs>
    <g id="64px-Line" stroke="none" stroke-width="1" fill="none" fill-rule="evenodd">
        <g id="loc-pin-distance-2"></g>
        <path d="M17,12 C10.935,12 6,16.935 6,23 C6,28.728 10.402,33.442 16,33.949 L16,59 C16,59.019 16.01,59.035 16.011,59.053 C16.014,59.12 16.033,59.183 16.051,59.249 C16.069,59.315 16.083,59.379 16.112,59.438 C16.12,59.455 16.12,59.473 16.129,59.49 C16.234,59.678 16.394,59.811 16.575,59.897 C16.602,59.91 16.629,59.92 16.657,59.931 C16.767,59.972 16.881,60 16.999,60 L17.001,60 L17.001,60 L17.002,60 C17.118,60 17.233,59.972 17.346,59.93 C17.372,59.92 17.397,59.911 17.422,59.899 C17.444,59.889 17.469,59.884 17.491,59.872 L20.106,58.401 C20.587,58.13 20.758,57.52 20.487,57.039 C20.216,56.558 19.606,56.387 19.125,56.657 L18,57.29 L18,33.95 C23.598,33.443 28,28.729 28,23.001 C28,16.935 23.065,12 17,12 L17,12 Z M17,32 C12.038,32 8,27.963 8,23 C8,18.037 12.038,14 17,14 C21.962,14 26,18.037 26,23 C26,27.963 21.962,32 17,32 L17,32 Z" id="Shape" fill="#000000"></path>
        <path d="M17,16 C13.14,16 10,19.141 10,23 C10,23.553 10.448,24 11,24 C11.552,24 12,23.553 12,23 C12,20.243 14.243,18 17,18 C17.552,18 18,17.553 18,17 C18,16.447 17.552,16 17,16 L17,16 Z" id="Shape" fill="#000000"></path>
        <path d="M26.097,52.735 L23.482,54.206 C23.001,54.477 22.83,55.087 23.101,55.568 C23.285,55.894 23.624,56.078 23.974,56.078 C24.14,56.078 24.308,56.037 24.463,55.95 L27.078,54.479 C27.559,54.208 27.73,53.598 27.459,53.117 C27.188,52.636 26.578,52.465 26.097,52.735 L26.097,52.735 Z" id="Shape" fill="#000000"></path>
        <path d="M33.069,48.813 L30.454,50.285 C29.973,50.556 29.803,51.165 30.073,51.646 C30.257,51.972 30.596,52.156 30.946,52.156 C31.112,52.156 31.28,52.115 31.436,52.027 L34.051,50.555 C34.532,50.284 34.703,49.675 34.432,49.194 C34.161,48.714 33.551,48.54 33.069,48.813 L33.069,48.813 Z" id="Shape" fill="#000000"></path>
        <path d="M40.042,44.891 L37.427,46.362 C36.946,46.633 36.775,47.243 37.046,47.724 C37.23,48.05 37.569,48.234 37.919,48.234 C38.085,48.234 38.253,48.193 38.408,48.106 L41.023,46.635 C41.504,46.364 41.675,45.754 41.404,45.273 C41.134,44.792 40.523,44.621 40.042,44.891 L40.042,44.891 Z" id="Shape" fill="#000000"></path>
        <path d="M49,4 C44.038,4 40,8.037 40,13 C40,17.625 43.507,21.441 48,21.941 L48,40.991 C47.704,40.82 47.335,40.789 47.015,40.969 L44.4,42.44 C43.919,42.711 43.748,43.321 44.019,43.802 C44.203,44.128 44.542,44.312 44.892,44.312 C45.058,44.312 45.226,44.271 45.381,44.184 L47.996,42.713 C48.322,42.529 48.49,42.189 48.491,41.84 C48.642,41.932 48.81,42 49.001,42 C49.553,42 50.001,41.553 50.001,41 L50.001,21.941 C54.494,21.441 58.001,17.625 58.001,13 C58,8.037 53.962,4 49,4 L49,4 Z M49,20 C45.14,20 42,16.859 42,13 C42,9.141 45.14,6 49,6 C52.86,6 56,9.141 56,13 C56,16.859 52.86,20 49,20 L49,20 Z" id="Shape" fill="#000000"></path>
        <path d="M49,8 C46.243,8 44,10.243 44,13 C44,13.553 44.448,14 45,14 C45.552,14 46,13.553 46,13 C46,11.346 47.346,10 49,10 C49.552,10 50,9.553 50,9 C50,8.447 49.552,8 49,8 L49,8 Z" id="Shape" fill="#000000"></path>
    </g>
</svg>