<?xml version="1.0" encoding="UTF-8" standalone="no"?>
<svg width="44px" height="44px" viewBox="0 0 44 44" version="1.1" xmlns="http://www.w3.org/2000/svg" xmlns:xlink="http://www.w3.org/1999/xlink">
    <!-- Generator: Sketch 3.7.2 (28276) - http://www.bohemiancoding.com/sketch -->
    <title>loc-point-minus</title>
    <desc>Created with Sketch.</desc>
    <defs></defs>
    <g id="44px-Glyph" stroke="none" stroke-width="1" fill="none" fill-rule="evenodd">
        <g id="loc-point-minus" fill="#000000">
            <path d="M27,16 L15,16 C14.447,16 14,15.553 14,15 C14,14.447 14.447,14 15,14 L27,14 C27.553,14 28,14.447 28,15 C28,15.553 27.553,16 27,16 M21,0 C12.728,0 6,6.729 6,15 C6,17.658 6.705,20.271 8.039,22.555 C8.04,22.557 8.04,22.558 8.041,22.56 C8.24,22.9 20.134,43.5 20.134,43.5 C20.313,43.81 20.643,44 21,44 C21.357,44 21.688,43.81 21.866,43.5 L33.972,22.535 L33.973,22.535 C35.299,20.258 36,17.651 36,15 C36,6.729 29.272,0 21,0" id="Fill-260"></path>
        </g>
    </g>
</svg>