<?xml version="1.0" encoding="UTF-8" standalone="no"?>
<svg width="64px" height="64px" viewBox="0 0 64 64" version="1.1" xmlns="http://www.w3.org/2000/svg" xmlns:xlink="http://www.w3.org/1999/xlink">
    <!-- Generator: Sketch 3.7.2 (28276) - http://www.bohemiancoding.com/sketch -->
    <title>loc-direction-symbol</title>
    <desc>Created with Sketch.</desc>
    <defs></defs>
    <g id="64px-Glyph" stroke="none" stroke-width="1" fill="none" fill-rule="evenodd">
        <g id="loc-direction-symbol" fill="#000000">
            <path d="M47.843,45.5444 L45.409,39.6094 L39.409,41.4094 L37.609,47.4094 L43.544,49.8424 C40.624,52.0264 37.225,53.3784 33.597,53.8244 L37.803,39.8024 L51.824,35.5964 C51.378,39.2254 50.027,42.6244 47.843,45.5444 M43.539,16.1534 L37.606,18.5804 L39.409,24.5904 L45.409,26.3904 L47.843,20.4564 C50.027,23.3774 51.379,26.7764 51.825,30.4034 L37.803,26.1974 L33.597,12.1754 C37.222,12.6204 40.619,13.9704 43.539,16.1534 M18.456,49.8424 L24.391,47.4094 L22.591,41.4094 L16.591,39.6094 L14.157,45.5444 C11.973,42.6234 10.622,39.2244 10.175,35.5964 L24.197,39.8024 L28.403,53.8244 C24.775,53.3794 21.377,52.0274 18.456,49.8424 M14.156,20.4584 L16.588,26.3914 L22.591,24.5904 L24.392,18.5874 L18.458,16.1554 C21.378,13.9724 24.777,12.6214 28.403,12.1754 L24.197,26.1974 L10.175,30.4034 C10.621,26.7774 11.972,23.3794 14.156,20.4584 M57.287,32.0424 L53.915,31.0304 C53.515,26.3354 51.712,21.9704 48.708,18.3464 L49.925,15.3794 C50.078,15.0064 49.992,14.5784 49.707,14.2934 C49.422,14.0074 48.995,13.9254 48.621,14.0744 L45.65,15.2894 C42.026,12.2864 37.663,10.4854 32.97,10.0874 L31.958,6.7124 C31.831,6.2904 31.441,6.0004 31,6.0004 C30.559,6.0004 30.169,6.2904 30.042,6.7124 L29.03,10.0864 C24.336,10.4844 19.971,12.2874 16.348,15.2914 L13.379,14.0744 C13.01,13.9254 12.579,14.0074 12.293,14.2934 C12.008,14.5784 11.922,15.0054 12.074,15.3794 L13.291,18.3474 C10.287,21.9724 8.484,26.3364 8.086,31.0304 L4.713,32.0424 C4.29,32.1694 4,32.5584 4,33.0004 C4,33.4414 4.29,33.8314 4.713,33.9584 L8.086,34.9694 C8.485,39.6654 10.288,44.0294 13.292,47.6524 L12.075,50.6214 C11.922,50.9934 12.008,51.4224 12.293,51.7074 C12.484,51.8984 12.74,52.0004 13,52.0004 C13.128,52.0004 13.257,51.9754 13.379,51.9244 L16.346,50.7084 C19.97,53.7124 24.335,55.5154 29.03,55.9144 L30.042,59.2874 C30.169,59.7104 30.559,60.0004 31,60.0004 C31.441,60.0004 31.831,59.7104 31.958,59.2874 L32.97,55.9144 C37.665,55.5144 42.029,53.7124 45.653,50.7074 L48.621,51.9244 C48.743,51.9754 48.872,52.0004 49,52.0004 C49.26,52.0004 49.516,51.8984 49.707,51.7074 C49.992,51.4224 50.078,50.9934 49.925,50.6214 L48.708,47.6534 C51.712,44.0294 53.515,39.6654 53.914,34.9694 L57.287,33.9584 C57.71,33.8314 58,33.4414 58,33.0004 C58,32.5584 57.71,32.1694 57.287,32.0424" id="Fill-124"></path>
        </g>
    </g>
</svg>