<?xml version="1.0" encoding="UTF-8" standalone="no"?>
<svg width="64px" height="64px" viewBox="0 0 64 64" version="1.1" xmlns="http://www.w3.org/2000/svg" xmlns:xlink="http://www.w3.org/1999/xlink">
    <!-- Generator: Sketch 3.7.2 (28276) - http://www.bohemiancoding.com/sketch -->
    <title>loc-pin-distance</title>
    <desc>Created with Sketch.</desc>
    <defs></defs>
    <g id="64px-Line" stroke="none" stroke-width="1" fill="none" fill-rule="evenodd">
        <g id="loc-pin-distance"></g>
        <path d="M54,18.252 L54,9.7 C56.481,8.776 58,7.586 58,4.999 C58,4.446 57.552,3.999 57,3.999 L41,3.999 C40.448,3.999 40,4.446 40,4.999 C40,7.586 41.519,8.776 44,9.7 L44,18.237 C39.073,19.679 38,22.677 38,25 C38,25.553 38.448,26 39,26 L48,26 L48,40.434 L45.925,41.679 C45.451,41.963 45.298,42.577 45.582,43.051 C45.77,43.363 46.101,43.536 46.44,43.536 C46.615,43.536 46.793,43.49 46.954,43.393 L49.514,41.857 C49.549,41.836 49.569,41.803 49.6,41.779 C49.655,41.737 49.706,41.694 49.751,41.641 C49.793,41.592 49.825,41.54 49.856,41.485 C49.887,41.429 49.915,41.376 49.936,41.314 C49.958,41.248 49.968,41.183 49.977,41.114 C49.982,41.075 50,41.041 50,41 L50,26 L59,26 C59.552,26 60,25.553 60,25 C60,21.667 57.965,19.41 54,18.252 L54,18.252 Z M46,10 L52,10 L52,18 L46,18 L46,10 L46,10 Z M42.14,6 L55.86,6 C55.599,6.693 54.863,7.307 52.836,8 L45.164,8 C43.137,7.307 42.401,6.693 42.14,6 L42.14,6 Z M40.098,24 C40.502,22.049 42.156,20.734 45.12,20 L52.88,20 C56.572,20.915 57.638,22.557 57.913,24 L40.098,24 L40.098,24 Z" id="Shape" fill="#000000"></path>
        <path d="M5,40 L18,40 L18,59 C18,59.024 18.012,59.043 18.013,59.067 C18.017,59.134 18.034,59.197 18.053,59.262 C18.071,59.328 18.089,59.391 18.12,59.45 C18.13,59.471 18.13,59.493 18.143,59.514 C18.181,59.576 18.228,59.63 18.276,59.681 C18.285,59.69 18.291,59.702 18.3,59.711 C18.382,59.792 18.478,59.852 18.58,59.899 C18.605,59.911 18.63,59.92 18.656,59.929 C18.766,59.97 18.881,59.998 18.999,59.998 L19.001,59.998 L19.001,59.998 L19.002,59.998 C19.117,59.998 19.232,59.97 19.344,59.929 C19.375,59.918 19.403,59.906 19.432,59.891 C19.46,59.878 19.489,59.871 19.515,59.855 L22.087,58.311 C22.561,58.027 22.714,57.413 22.43,56.939 C22.146,56.465 21.532,56.312 21.058,56.596 L20,57.233 L20,40 L33,40 C33.552,40 34,39.553 34,39 C34,34.594 31.591,31.951 26,30.254 L26,17.669 C28.744,16.502 32,14.565 32,11 C32,10.447 31.552,10 31,10 L7,10 C6.448,10 6,10.447 6,11 C6,14.564 9.256,16.502 12,17.668 L12,30.253 C6.409,31.954 4,34.597 4,38.999 C4,39.553 4.448,40 5,40 L5,40 Z M14,18 L24,18 L24,30 L14,30 L14,18 L14,18 Z M8.153,12 L29.846,12 C29.363,13.521 27.728,14.812 24.805,16 L13.194,16 C10.272,14.811 8.637,13.52 8.153,12 L8.153,12 Z M13.137,32 L24.864,32 C30.108,33.47 31.661,35.476 31.947,38 L6.053,38 C6.339,35.478 7.894,33.474 13.137,32 L13.137,32 Z" id="Shape" fill="#000000"></path>
        <path d="M32.721,51.769 C32.896,51.769 33.074,51.723 33.235,51.626 L35.808,50.082 C36.282,49.798 36.435,49.184 36.151,48.71 C35.867,48.236 35.253,48.084 34.779,48.367 L32.206,49.911 C31.732,50.195 31.579,50.809 31.863,51.283 C32.05,51.596 32.381,51.769 32.721,51.769 L32.721,51.769 Z" id="Shape" fill="#000000"></path>
        <path d="M39.581,47.652 C39.756,47.652 39.934,47.606 40.095,47.509 L42.668,45.965 C43.142,45.681 43.295,45.067 43.011,44.593 C42.726,44.119 42.112,43.966 41.639,44.25 L39.066,45.794 C38.592,46.078 38.439,46.692 38.723,47.166 C38.91,47.479 39.241,47.652 39.581,47.652 L39.581,47.652 Z" id="Shape" fill="#000000"></path>
        <path d="M25.861,55.884 C26.036,55.884 26.214,55.838 26.374,55.741 L28.947,54.198 C29.421,53.914 29.574,53.3 29.29,52.826 C29.006,52.353 28.391,52.199 27.918,52.483 L25.345,54.026 C24.871,54.31 24.718,54.924 25.002,55.398 C25.19,55.711 25.521,55.884 25.861,55.884 L25.861,55.884 Z" id="Shape" fill="#000000"></path>
    </g>
</svg>