<?xml version="1.0" encoding="UTF-8" standalone="no"?>
<svg width="64px" height="64px" viewBox="0 0 64 64" version="1.1" xmlns="http://www.w3.org/2000/svg" xmlns:xlink="http://www.w3.org/1999/xlink">
    <!-- Generator: Sketch 3.7.2 (28276) - http://www.bohemiancoding.com/sketch -->
    <title>loc-north</title>
    <desc>Created with Sketch.</desc>
    <defs></defs>
    <g id="64px-Glyph" stroke="none" stroke-width="1" fill="none" fill-rule="evenodd">
        <g id="loc-north" fill="#000000">
            <path d="M26.7959,39.3467 L30.6839,38.0517 C30.7859,38.0177 30.8939,37.9997 30.9999,37.9997 C31.1069,37.9997 31.2139,38.0177 31.3169,38.0517 L35.2039,39.3467 L30.9999,29.5387 L26.7959,39.3467 Z" id="Fill-129"></path>
            <path d="M37.7363,41.6768 C37.5433,41.8868 37.2743,41.9998 37.0003,41.9998 C36.8943,41.9998 36.7873,41.9838 36.6833,41.9478 L31.0003,40.0538 L25.3163,41.9478 C24.9443,42.0748 24.5313,41.9668 24.2633,41.6768 C23.9973,41.3878 23.9263,40.9678 24.0813,40.6068 L30.0813,26.6068 C30.2383,26.2388 30.5993,25.9998 31.0003,25.9998 C31.4003,25.9998 31.7613,26.2388 31.9193,26.6068 L37.9193,40.6068 C38.0743,40.9678 38.0033,41.3878 37.7363,41.6768 L37.7363,41.6768 Z M26.0003,10.9998 C26.0003,10.5598 26.2883,10.1708 26.7103,10.0428 C27.1313,9.9158 27.5883,10.0788 27.8323,10.4458 L34.0003,19.6978 L34.0003,10.9998 C34.0003,10.4478 34.4473,9.9998 35.0003,9.9998 C35.5523,9.9998 36.0003,10.4478 36.0003,10.9998 L36.0003,22.9998 C36.0003,23.4408 35.7123,23.8288 35.2903,23.9568 C35.1943,23.9868 35.0963,23.9998 35.0003,23.9998 C34.6723,23.9998 34.3563,23.8378 34.1683,23.5548 L28.0003,14.3028 L28.0003,22.9998 C28.0003,23.5528 27.5523,23.9998 27.0003,23.9998 C26.4473,23.9998 26.0003,23.5528 26.0003,22.9998 L26.0003,10.9998 Z M51.0003,33.9998 C50.4473,33.9998 50.0003,33.5528 50.0003,32.9998 C50.0003,32.4478 50.4473,31.9998 51.0003,31.9998 L57.9743,31.9998 C57.4463,17.5738 45.5523,5.9998 31.0003,5.9998 C16.4473,5.9998 4.5543,17.5738 4.0253,31.9998 L11.0003,31.9998 C11.5523,31.9998 12.0003,32.4478 12.0003,32.9998 C12.0003,33.5528 11.5523,33.9998 11.0003,33.9998 L4.0253,33.9998 C4.5423,48.0938 15.9073,59.4578 30.0003,59.9748 L30.0003,52.9998 C30.0003,52.4478 30.4473,51.9998 31.0003,51.9998 C31.5523,51.9998 32.0003,52.4478 32.0003,52.9998 L32.0003,59.9748 C46.0933,59.4578 57.4583,48.0938 57.9743,33.9998 L51.0003,33.9998 Z" id="Fill-130"></path>
        </g>
    </g>
</svg>