<?xml version="1.0" encoding="UTF-8" standalone="no"?>
<svg width="44px" height="44px" viewBox="0 0 44 44" version="1.1" xmlns="http://www.w3.org/2000/svg" xmlns:xlink="http://www.w3.org/1999/xlink">
    <!-- Generator: Sketch 3.7.2 (28276) - http://www.bohemiancoding.com/sketch -->
    <title>loc-search-love</title>
    <desc>Created with Sketch.</desc>
    <defs></defs>
    <g id="44px-Line" stroke="none" stroke-width="1" fill="none" fill-rule="evenodd">
        <g id="loc-search-love"></g>
        <path d="M16.279,25.692 C16.467,25.888 16.728,26 17.001,26 C17.274,26 17.534,25.889 17.723,25.692 L24.445,18.678 C25.448,17.719 26.001,16.443 26.001,15.082 C26.001,13.714 25.442,12.431 24.427,11.47 C22.37,9.519 19.024,9.518 17.002,11.431 C14.94,9.516 11.62,9.531 9.575,11.47 C8.56,12.432 8.001,13.716 8.001,15.084 C8.001,16.452 8.56,17.734 9.541,18.662 L16.279,25.692 L16.279,25.692 Z M10.95,12.922 C11.596,12.31 12.442,12.002 13.295,12.002 C14.159,12.002 15.03,12.319 15.704,12.956 L16.35,13.51 C16.725,13.832 17.277,13.832 17.651,13.51 L18.334,12.923 C19.635,11.691 21.75,11.69 23.05,12.923 C23.662,13.503 24,14.27 24,15.084 C24,15.898 23.663,16.665 23.05,17.245 C23.039,17.256 23.027,17.267 23.016,17.279 L17,23.555 L10.949,17.244 C10.337,16.664 10,15.897 9.999,15.084 C10,14.271 10.337,13.502 10.95,12.922 L10.95,12.922 Z" id="Shape" fill="#000000"></path>
        <path d="M17,34 C21.538,34 25.656,32.202 28.708,29.295 C27.701,30.596 27.78,32.471 28.972,33.664 L38.337,43.028 C38.983,43.674 39.833,43.999 40.683,43.999 C41.533,43.999 42.383,43.675 43.03,43.028 C44.322,41.734 44.322,39.63 43.03,38.336 L33.665,28.972 C32.473,27.78 30.597,27.701 29.296,28.708 C32.203,25.656 34.001,21.538 34.001,17 C34.001,7.626 26.375,-5.68434189e-14 17.001,-5.68434189e-14 C7.627,-5.68434189e-14 0.001,7.626 0.001,17 C0.001,26.374 7.626,34 17,34 L17,34 Z M30.386,30.386 C30.643,30.129 30.98,30 31.318,30 C31.656,30 31.993,30.129 32.25,30.386 L41.614,39.75 C42.128,40.264 42.128,41.101 41.614,41.614 C41.1,42.129 40.264,42.128 39.75,41.614 L30.386,32.25 C29.872,31.736 29.872,30.899 30.386,30.386 L30.386,30.386 Z M17,2 C25.271,2 32,8.729 32,17 C32,25.271 25.271,32 17,32 C8.729,32 2,25.271 2,17 C2,8.729 8.729,2 17,2 L17,2 Z" id="Shape" fill="#000000"></path>
    </g>
</svg>