<?xml version="1.0" encoding="UTF-8" standalone="no"?>
<svg width="44px" height="44px" viewBox="0 0 44 44" version="1.1" xmlns="http://www.w3.org/2000/svg" xmlns:xlink="http://www.w3.org/1999/xlink">
    <!-- Generator: Sketch 3.7.2 (28276) - http://www.bohemiancoding.com/sketch -->
    <title>loc-search-cross</title>
    <desc>Created with Sketch.</desc>
    <defs></defs>
    <g id="44px-Line" stroke="none" stroke-width="1" fill="none" fill-rule="evenodd">
        <g id="loc-search-cross"></g>
        <path d="M23.707,10.293 C23.316,9.902 22.684,9.902 22.293,10.293 L17,15.586 L11.707,10.293 C11.316,9.902 10.684,9.902 10.293,10.293 C9.902,10.684 9.902,11.316 10.293,11.707 L15.586,17 L10.293,22.293 C9.902,22.684 9.902,23.316 10.293,23.707 C10.488,23.902 10.744,24 11,24 C11.256,24 11.512,23.902 11.707,23.707 L17,18.414 L22.293,23.707 C22.488,23.902 22.744,24 23,24 C23.256,24 23.512,23.902 23.707,23.707 C24.098,23.316 24.098,22.684 23.707,22.293 L18.414,17 L23.707,11.707 C24.098,11.316 24.098,10.684 23.707,10.293 L23.707,10.293 Z" id="Shape" fill="#000000"></path>
        <path d="M17,0 C7.626,0 0,7.626 0,17 C0,26.374 7.626,34 17,34 C21.538,34 25.656,32.202 28.708,29.294 C27.7,30.594 27.778,32.47 28.972,33.663 L38.336,43.028 L38.336,43.028 C38.982,43.674 39.832,43.997 40.682,43.997 C41.532,43.997 42.382,43.674 43.029,43.027 C44.323,41.734 44.323,39.629 43.029,38.335 L33.665,28.97 C32.472,27.777 30.595,27.699 29.295,28.707 C32.203,25.655 34.001,21.537 34.001,16.999 C34,7.626 26.374,0 17,0 L17,0 Z M17,32 C8.729,32 2,25.271 2,17 C2,8.729 8.729,2 17,2 C25.271,2 32,8.729 32,17 C32,25.271 25.271,32 17,32 L17,32 Z M30.386,30.386 C30.9,29.872 31.737,29.871 32.25,30.386 L41.614,39.751 C42.128,40.265 42.128,41.101 41.614,41.614 C41.1,42.128 40.263,42.13 39.75,41.614 L39.75,41.614 L30.386,32.249 C29.872,31.736 29.872,30.899 30.386,30.386 L30.386,30.386 Z" id="Shape" fill="#000000"></path>
    </g>
</svg>