<?xml version="1.0" encoding="UTF-8" standalone="no"?>
<svg width="44px" height="44px" viewBox="0 0 44 44" version="1.1" xmlns="http://www.w3.org/2000/svg" xmlns:xlink="http://www.w3.org/1999/xlink">
    <!-- Generator: Sketch 3.7.2 (28276) - http://www.bohemiancoding.com/sketch -->
    <title>loc-point-tick</title>
    <desc>Created with Sketch.</desc>
    <defs></defs>
    <g id="44px-Glyph" stroke="none" stroke-width="1" fill="none" fill-rule="evenodd">
        <g id="loc-point-tick" fill="#000000">
            <path d="M27.707,10.707 L18.707,19.707 C18.512,19.902 18.256,20 18,20 C17.744,20 17.488,19.902 17.293,19.707 L13.293,15.707 C12.902,15.316 12.902,14.684 13.293,14.293 C13.684,13.902 14.316,13.902 14.707,14.293 L18,17.586 L26.293,9.293 C26.684,8.902 27.316,8.902 27.707,9.293 C28.098,9.684 28.098,10.316 27.707,10.707 M21,0 C12.729,0 6,6.729 6,15 C6,17.658 6.705,20.272 8.039,22.555 C8.04,22.557 8.04,22.558 8.041,22.56 C8.24,22.9 20.134,43.5 20.134,43.5 C20.313,43.81 20.643,44 21,44 C21.357,44 21.688,43.81 21.866,43.5 L33.972,22.535 L33.973,22.535 C35.299,20.258 36,17.651 36,15 C36,6.729 29.272,0 21,0" id="Fill-258"></path>
        </g>
    </g>
</svg>