<?xml version="1.0" encoding="UTF-8" standalone="no"?>
<svg width="44px" height="44px" viewBox="0 0 44 44" version="1.1" xmlns="http://www.w3.org/2000/svg" xmlns:xlink="http://www.w3.org/1999/xlink">
    <!-- Generator: Sketch 3.7.2 (28276) - http://www.bohemiancoding.com/sketch -->
    <title>loc-signpost-3</title>
    <desc>Created with Sketch.</desc>
    <defs></defs>
    <g id="44px-Line" stroke="none" stroke-width="1" fill="none" fill-rule="evenodd">
        <g id="loc-signpost-3"></g>
        <path d="M38.707,4.293 C38.52,4.105 38.266,4 38,4 L26,4 L26,1 C26,0.447 25.553,0 25,0 L21,0 C20.447,0 20,0.447 20,1 L20,4 L7,4 C6.447,4 6,4.447 6,5 L6,15 C6,15.553 6.447,16 7,16 L20,16 L20,18 L6,18 C5.734,18 5.48,18.105 5.293,18.293 L0.293,23.293 C-0.098,23.684 -0.098,24.316 0.293,24.707 L5.293,29.707 C5.48,29.895 5.734,30 6,30 L20,30 L20,43 C20,43.553 20.447,44 21,44 L25,44 C25.553,44 26,43.553 26,43 L26,30 L37,30 C37.553,30 38,29.553 38,29 L38,19 C38,18.447 37.553,18 37,18 L26,18 L26,16 L38,16 C38.266,16 38.52,15.895 38.707,15.707 L43.707,10.707 C44.098,10.316 44.098,9.684 43.707,9.293 L38.707,4.293 L38.707,4.293 Z M22,2 L24,2 L24,4 L22,4 L22,2 L22,2 Z M24,42 L22,42 L22,30 L24,30 L24,42 L24,42 Z M36,28 L6.414,28 L2.414,24 L6.414,20 L36,20 L36,28 L36,28 Z M24,18 L22,18 L22,16 L24,16 L24,18 L24,18 Z M37.586,14 L8,14 L8,6 L37.586,6 L41.586,10 L37.586,14 L37.586,14 Z" id="Shape" fill="#000000"></path>
    </g>
</svg>