<?xml version="1.0" encoding="UTF-8" standalone="no"?>
<svg width="64px" height="64px" viewBox="0 0 64 64" version="1.1" xmlns="http://www.w3.org/2000/svg" xmlns:xlink="http://www.w3.org/1999/xlink">
    <!-- Generator: Sketch 3.7.2 (28276) - http://www.bohemiancoding.com/sketch -->
    <title>loc-pin-map-2</title>
    <desc>Created with Sketch.</desc>
    <defs></defs>
    <g id="64px-Line" stroke="none" stroke-width="1" fill="none" fill-rule="evenodd">
        <g id="loc-pin-map-2"></g>
        <path d="M59.584,28.188 C59.322,28 58.988,27.948 58.683,28.051 L41,33.946 L35.292,32.044 C34.767,31.869 34.202,32.152 34.027,32.676 C33.852,33.2 34.135,33.767 34.659,33.941 L40,35.72 L40,57.613 L24,52.28 L24,30.387 L26.71,31.29 C27.233,31.465 27.8,31.182 27.975,30.658 C28.15,30.134 27.867,29.567 27.343,29.393 L23.316,28.051 C23.217,28.018 23.115,28.003 23.012,28.002 C23.008,28.002 23.004,28 23,28 C22.995,28 22.992,28.002 22.987,28.002 C22.885,28.003 22.782,28.019 22.683,28.051 L4.683,34.051 C4.275,34.188 4,34.569 4,35 L4,59 C4,59.321 4.154,59.623 4.416,59.812 C4.588,59.936 4.793,60 5,60 C5.106,60 5.213,59.983 5.316,59.948 L23,54.054 L40.684,59.949 C40.783,59.982 40.886,59.997 40.988,59.998 C40.992,59.998 40.996,60 41,60 C41.004,60 41.008,59.998 41.012,59.998 C41.115,59.997 41.217,59.981 41.316,59.949 L59.316,53.949 C59.725,53.812 60,53.431 60,53 L60,29 C60,28.679 59.846,28.377 59.584,28.188 L59.584,28.188 Z M6,35.721 L22,30.388 L22,52.281 L6,57.614 L6,35.721 L6,35.721 Z M58,52.279 L42,57.612 L42,35.72 L58,30.387 L58,52.279 L58,52.279 Z" id="Shape" fill="#000000"></path>
        <path d="M31,4 C26.038,4 22,8.037 22,13 C22,17.625 25.507,21.441 30,21.941 L30,41 C30,41.553 30.448,42 31,42 C31.552,42 32,41.553 32,41 L32,21.941 C36.493,21.441 40,17.625 40,13 C40,8.037 35.962,4 31,4 L31,4 Z M31,20 C27.14,20 24,16.859 24,13 C24,9.141 27.14,6 31,6 C34.86,6 38,9.141 38,13 C38,16.859 34.86,20 31,20 L31,20 Z" id="Shape" fill="#000000"></path>
        <path d="M31,8 C28.243,8 26,10.243 26,13 C26,13.553 26.448,14 27,14 C27.552,14 28,13.553 28,13 C28,11.346 29.346,10 31,10 C31.552,10 32,9.553 32,9 C32,8.447 31.552,8 31,8 L31,8 Z" id="Shape" fill="#000000"></path>
    </g>
</svg>