<?xml version="1.0" encoding="UTF-8" standalone="no"?>
<svg width="64px" height="64px" viewBox="0 0 64 64" version="1.1" xmlns="http://www.w3.org/2000/svg" xmlns:xlink="http://www.w3.org/1999/xlink">
    <!-- Generator: Sketch 3.7.2 (28276) - http://www.bohemiancoding.com/sketch -->
    <title>loc-globe</title>
    <desc>Created with Sketch.</desc>
    <defs></defs>
    <g id="64px-Glyph" stroke="none" stroke-width="1" fill="none" fill-rule="evenodd">
        <g id="loc-globe" fill="#000000">
            <path d="M29,48 C18.523,48 10,39.477 10,29 C10,18.523 18.523,10 29,10 C39.477,10 48,18.523 48,29 C48,39.477 39.477,48 29,48" id="Fill-3"></path>
            <path d="M54,29.0161 C54,19.1791 48.276,10.1801 39.419,6.0911 C38.917,5.8621 38.323,6.0801 38.092,6.5801 C37.86,7.0811 38.079,7.6761 38.581,7.9081 C46.732,11.6701 52,19.9561 52,29.0161 C52,41.6751 41.721,51.9761 29.07,52.0141 C29.046,52.0121 29.025,52.0001 29,52.0001 C28.975,52.0001 28.954,52.0121 28.93,52.0141 C25.706,52.0051 22.591,51.3431 19.67,50.0451 C19.167,49.8211 18.575,50.0501 18.35,50.5531 C18.126,51.0581 18.352,51.6491 18.857,51.8731 C21.754,53.1601 24.826,53.8671 28,53.9901 L28,58.0001 L23,58.0001 C22.447,58.0001 22,58.4471 22,59.0001 C22,59.5531 22.447,60.0001 23,60.0001 L35,60.0001 C35.553,60.0001 36,59.5531 36,59.0001 C36,58.4471 35.553,58.0001 35,58.0001 L30,58.0001 L30,53.9911 C43.323,53.4631 54,42.4661 54,29.0161" id="Fill-5"></path>
        </g>
    </g>
</svg>