<?xml version="1.0" encoding="UTF-8" standalone="no"?>
<svg width="64px" height="64px" viewBox="0 0 64 64" version="1.1" xmlns="http://www.w3.org/2000/svg" xmlns:xlink="http://www.w3.org/1999/xlink">
    <!-- Generator: Sketch 3.7.2 (28276) - http://www.bohemiancoding.com/sketch -->
    <title>loc-map</title>
    <desc>Created with Sketch.</desc>
    <defs></defs>
    <g id="64px-Glyph" stroke="none" stroke-width="1" fill="none" fill-rule="evenodd">
        <g id="loc-map" fill="#000000">
            <polygon id="Fill-138" points="40 11.6128 24 6.2798 24 52.3868 40 57.7198"></polygon>
            <path d="M22,6.2798 L4.684,12.0518 C4.275,12.1878 4,12.5698 4,12.9998 L4,56.9998 C4,57.3218 4.154,57.6228 4.415,57.8118 C4.588,57.9358 4.793,57.9998 5,57.9998 C5.106,57.9998 5.213,57.9838 5.316,57.9478 L22,52.3868 L22,6.2798 Z" id="Fill-139"></path>
            <path d="M59.585,6.1885 C59.322,5.9995 58.987,5.9465 58.684,6.0515 L42,11.6125 L42,57.7205 L59.316,51.9485 C59.725,51.8125 60,51.4305 60,50.9995 L60,6.9995 C60,6.6785 59.846,6.3775 59.585,6.1885" id="Fill-140"></path>
        </g>
    </g>
</svg>