<?xml version="1.0" encoding="UTF-8" standalone="no"?>
<svg width="44px" height="44px" viewBox="0 0 44 44" version="1.1" xmlns="http://www.w3.org/2000/svg" xmlns:xlink="http://www.w3.org/1999/xlink">
    <!-- Generator: Sketch 3.7.2 (28276) - http://www.bohemiancoding.com/sketch -->
    <title>loc-point-settings</title>
    <desc>Created with Sketch.</desc>
    <defs></defs>
    <g id="44px-Glyph" stroke="none" stroke-width="1" fill="none" fill-rule="evenodd">
        <g id="loc-point-settings" fill="#000000">
            <path d="M21,10 C18.243,10 16,12.243 16,15 C16,17.757 18.243,20 21,20 C23.757,20 26,17.757 26,15 C26,12.243 23.757,10 21,10" id="Fill-250"></path>
            <path d="M29,16 L27.92,16 C27.75,17.183 27.284,18.269 26.598,19.184 L27.364,19.95 C27.755,20.341 27.755,20.974 27.364,21.364 C27.169,21.56 26.913,21.657 26.657,21.657 C26.401,21.657 26.146,21.56 25.95,21.364 L25.184,20.598 C24.269,21.284 23.183,21.75 22,21.92 L22,23 C22,23.553 21.553,24 21,24 C20.447,24 20,23.553 20,23 L20,21.92 C18.817,21.75 17.731,21.284 16.816,20.598 L16.05,21.364 C15.855,21.56 15.599,21.657 15.343,21.657 C15.087,21.657 14.831,21.56 14.636,21.364 C14.245,20.974 14.245,20.341 14.636,19.95 L15.402,19.184 C14.716,18.269 14.25,17.183 14.08,16 L13,16 C12.447,16 12,15.553 12,15 C12,14.447 12.447,14 13,14 L14.08,14 C14.25,12.817 14.716,11.731 15.402,10.816 L14.636,10.05 C14.245,9.659 14.245,9.026 14.636,8.636 C15.026,8.245 15.659,8.245 16.05,8.636 L16.816,9.402 C17.731,8.716 18.817,8.25 20,8.08 L20,7 C20,6.447 20.447,6 21,6 C21.553,6 22,6.447 22,7 L22,8.08 C23.183,8.25 24.269,8.716 25.184,9.402 L25.95,8.636 C26.341,8.245 26.974,8.245 27.364,8.636 C27.755,9.026 27.755,9.659 27.364,10.05 L26.598,10.816 C27.284,11.731 27.75,12.817 27.92,14 L29,14 C29.553,14 30,14.447 30,15 C30,15.553 29.553,16 29,16 M21,0 C12.729,0 6,6.728 6,15 C6,17.658 6.705,20.272 8.039,22.555 C8.04,22.557 8.04,22.558 8.041,22.56 C8.24,22.9 20.134,43.5 20.134,43.5 C20.312,43.81 20.643,44 21,44 C21.357,44 21.688,43.81 21.866,43.5 L33.972,22.535 L33.973,22.535 C35.299,20.258 36,17.651 36,15 C36,6.728 29.271,0 21,0" id="Fill-251"></path>
        </g>
    </g>
</svg>