<?xml version="1.0" encoding="UTF-8" standalone="no"?>
<svg width="44px" height="44px" viewBox="0 0 44 44" version="1.1" xmlns="http://www.w3.org/2000/svg" xmlns:xlink="http://www.w3.org/1999/xlink">
    <!-- Generator: Sketch 3.7.2 (28276) - http://www.bohemiancoding.com/sketch -->
    <title>loc-telescope</title>
    <desc>Created with Sketch.</desc>
    <defs></defs>
    <g id="44px-Line" stroke="none" stroke-width="1" fill="none" fill-rule="evenodd">
        <g id="loc-telescope"></g>
        <path d="M34.735,1.321 C34.735,1.321 34.735,1.32 34.734,1.32 C34.733,1.32 34.733,1.32 34.733,1.319 L33.707,0.293 C33.316,-0.098 32.684,-0.098 32.293,0.293 C31.902,0.684 31.902,1.316 32.293,1.707 L32.613,2.027 L21.86,12.779 C21.672,12.967 21.567,13.221 21.567,13.486 C21.567,13.751 21.672,14.006 21.86,14.193 L22.288,14.622 L11.644,25.266 C11.456,25.454 11.351,25.708 11.351,25.973 C11.351,26.238 11.456,26.493 11.644,26.68 L12.072,27.108 L2.297,36.883 L1.707,36.293 C1.316,35.902 0.684,35.902 0.293,36.293 C-0.098,36.684 -0.098,37.316 0.293,37.707 L1.589,39.003 C1.589,39.003 1.589,39.004 1.59,39.004 C1.591,39.004 1.591,39.004 1.591,39.005 L6.293,43.707 C6.488,43.902 6.744,44 7,44 C7.256,44 7.512,43.902 7.707,43.707 C8.098,43.316 8.098,42.684 7.707,42.293 L7.117,41.703 L16.892,31.927 L17.32,32.355 C17.515,32.55 17.771,32.648 18.027,32.648 C18.283,32.648 18.539,32.55 18.734,32.355 L29.378,21.71 L29.806,22.139 C29.994,22.327 30.247,22.432 30.513,22.432 C30.779,22.432 31.033,22.327 31.22,22.139 L41.972,11.386 L42.292,11.706 C42.487,11.901 42.743,11.999 42.999,11.999 C43.255,11.999 43.511,11.901 43.706,11.706 C44.097,11.315 44.097,10.683 43.706,10.292 L34.735,1.321 L34.735,1.321 Z M5.703,40.289 L3.711,38.297 L13.486,28.522 L15.478,30.513 L5.703,40.289 L5.703,40.289 Z M18.027,30.234 L13.765,25.973 L23.702,16.036 L27.963,20.297 L18.027,30.234 L18.027,30.234 Z M30.514,20.019 L24.411,13.916 C24.411,13.916 24.411,13.915 24.41,13.915 C24.409,13.915 24.409,13.915 24.409,13.914 L23.982,13.487 L34.028,3.442 L40.56,9.973 L30.514,20.019 L30.514,20.019 Z" id="Shape" fill="#000000"></path>
    </g>
</svg>