<?xml version="1.0" encoding="UTF-8" standalone="no"?>
<svg width="64px" height="64px" viewBox="0 0 64 64" version="1.1" xmlns="http://www.w3.org/2000/svg" xmlns:xlink="http://www.w3.org/1999/xlink">
    <!-- Generator: Sketch 3.7.2 (28276) - http://www.bohemiancoding.com/sketch -->
    <title>loc-south</title>
    <desc>Created with Sketch.</desc>
    <defs></defs>
    <g id="64px-Line" stroke="none" stroke-width="1" fill="none" fill-rule="evenodd">
        <g id="loc-south"></g>
        <path d="M31,6 C16.112,6 4,18.112 4,33 C4,47.888 16.112,60 31,60 C45.888,60 58,47.888 58,33 C58,18.112 45.888,6 31,6 L31,6 Z M31,58 C17.55,58 6.553,47.323 6.025,34 L11,34 C11.553,34 12,33.552 12,33 C12,32.448 11.553,32 11,32 L6.025,32 C6.539,19.01 17.009,8.54 30,8.025 L30,13 C30,13.552 30.447,14 31,14 C31.553,14 32,13.552 32,13 L32,8.025 C44.99,8.539 55.46,19.009 55.975,32 L51,32 C50.447,32 50,32.448 50,33 C50,33.552 50.447,34 51,34 L55.975,34 C55.447,47.323 44.45,58 31,58 L31,58 Z" id="Shape" fill="#000000"></path>
        <path d="M36.684,24.051 L31,25.946 L25.316,24.051 C24.943,23.927 24.532,24.033 24.263,24.322 C23.996,24.612 23.925,25.031 24.08,25.393 L30.08,39.393 C30.238,39.762 30.6,40 31,40 C31.4,40 31.762,39.762 31.919,39.394 L37.919,25.394 C38.074,25.032 38.003,24.613 37.736,24.323 C37.468,24.033 37.057,23.926 36.684,24.051 L36.684,24.051 Z M31,36.461 L26.796,26.652 L30.684,27.948 C30.889,28.016 31.112,28.016 31.317,27.948 L35.205,26.652 L31,36.461 L31,36.461 Z" id="Shape" fill="#000000"></path>
        <path d="M31,44 C32.626,44 34,44.916 34,46 C34,46.552 34.447,47 35,47 C35.553,47 36,46.552 36,46 C36,43.794 33.757,42 31,42 C28.243,42 26,43.794 26,46 C26,48.713 29.204,49.56 30.738,49.965 C32.964,50.569 34,51.215 34,52 C34,53.084 32.626,54 31,54 C29.374,54 28,53.084 28,52 C28,51.448 27.553,51 27,51 C26.447,51 26,51.448 26,52 C26,54.206 28.243,56 31,56 C33.757,56 36,54.206 36,52 C36,49.32 32.68,48.419 31.256,48.033 C28.974,47.43 28,46.822 28,46 C28,44.916 29.374,44 31,44 L31,44 Z" id="Shape" fill="#000000"></path>
    </g>
</svg>