<?xml version="1.0" encoding="UTF-8" standalone="no"?>
<svg width="64px" height="64px" viewBox="0 0 64 64" version="1.1" xmlns="http://www.w3.org/2000/svg" xmlns:xlink="http://www.w3.org/1999/xlink">
    <!-- Generator: Sketch 3.7.2 (28276) - http://www.bohemiancoding.com/sketch -->
    <title>loc-pin-2</title>
    <desc>Created with Sketch.</desc>
    <defs></defs>
    <g id="64px-Glyph" stroke="none" stroke-width="1" fill="none" fill-rule="evenodd">
        <g id="loc-pin-2" fill="#000000">
            <path d="M31,10 C28.243,10 26,12.243 26,15 C26,15.553 25.553,16 25,16 C24.447,16 24,15.553 24,15 C24,11.141 27.141,8 31,8 C31.553,8 32,8.447 32,9 C32,9.553 31.553,10 31,10 M31,4 C24.935,4 20,8.935 20,15 C20,20.728 24.402,25.442 30,25.949 L30,59 C30,59.553 30.447,60 31,60 C31.553,60 32,59.553 32,59 L32,25.949 C37.598,25.442 42,20.728 42,15 C42,8.935 37.065,4 31,4" id="Fill-54"></path>
        </g>
    </g>
</svg>