<?xml version="1.0" encoding="UTF-8" standalone="no"?>
<svg width="64px" height="64px" viewBox="0 0 64 64" version="1.1" xmlns="http://www.w3.org/2000/svg" xmlns:xlink="http://www.w3.org/1999/xlink">
    <!-- Generator: Sketch 3.7.2 (28276) - http://www.bohemiancoding.com/sketch -->
    <title>loc-compass-old</title>
    <desc>Created with Sketch.</desc>
    <defs></defs>
    <g id="64px-Glyph" stroke="none" stroke-width="1" fill="none" fill-rule="evenodd">
        <g id="loc-compass-old" fill="#000000">
            <polygon id="Fill-66" points="33.7566 40.3428 38.5396 31.4608 29.6576 36.2428"></polygon>
            <polygon id="Fill-67" points="28.2434 37.6572 23.4604 46.5392 32.3424 41.7572"></polygon>
            <path d="M41.8809,29.4736 L34.8809,42.4736 C34.7879,42.6466 34.6469,42.7876 34.4739,42.8806 L21.4739,49.8806 C21.3249,49.9606 21.1619,49.9996 20.9999,49.9996 C20.7409,49.9996 20.4849,49.8996 20.2929,49.7066 C19.9809,49.3946 19.9099,48.9146 20.1189,48.5266 L27.1189,35.5266 C27.2119,35.3536 27.3539,35.2116 27.5269,35.1186 L40.5269,28.1186 C40.9109,27.9116 41.3949,27.9796 41.7069,28.2926 C42.0199,28.6056 42.0899,29.0846 41.8809,29.4736 L41.8809,29.4736 Z M29.9999,15.8986 C27.7209,15.4336 25.9999,13.4146 25.9999,10.9996 C25.9999,8.2436 28.2429,5.9996 30.9999,5.9996 C33.7569,5.9996 35.9999,8.2436 35.9999,10.9996 C35.9999,13.4146 34.2789,15.4336 31.9999,15.8986 L31.9999,22.9996 C31.9999,23.5526 31.5529,23.9996 30.9999,23.9996 C30.4469,23.9996 29.9999,23.5526 29.9999,22.9996 L29.9999,15.8986 Z M45.9999,38.9996 C45.9999,38.4476 46.4469,37.9996 46.9999,37.9996 L53.9749,37.9996 C53.5129,27.2656 45.6519,18.4416 35.3799,16.4486 C36.9759,15.1666 37.9999,13.2026 37.9999,10.9996 C37.9999,7.1406 34.8589,3.9996 30.9999,3.9996 C27.1409,3.9996 23.9999,7.1406 23.9999,10.9996 C23.9999,13.2026 25.0239,15.1666 26.6199,16.4486 C16.3479,18.4416 8.4869,27.2656 8.0249,37.9996 L14.9999,37.9996 C15.5529,37.9996 15.9999,38.4476 15.9999,38.9996 C15.9999,39.5526 15.5529,39.9996 14.9999,39.9996 L8.0249,39.9996 C8.5369,51.8886 18.1119,61.4626 29.9999,61.9746 L29.9999,54.9996 C29.9999,54.4476 30.4469,53.9996 30.9999,53.9996 C31.5529,53.9996 31.9999,54.4476 31.9999,54.9996 L31.9999,61.9746 C43.8879,61.4626 53.4629,51.8886 53.9749,39.9996 L46.9999,39.9996 C46.4469,39.9996 45.9999,39.5526 45.9999,38.9996 L45.9999,38.9996 Z" id="Fill-68"></path>
        </g>
    </g>
</svg>