<?xml version="1.0" encoding="UTF-8" standalone="no"?>
<svg width="64px" height="64px" viewBox="0 0 64 64" version="1.1" xmlns="http://www.w3.org/2000/svg" xmlns:xlink="http://www.w3.org/1999/xlink">
    <!-- Generator: Sketch 3.7.2 (28276) - http://www.bohemiancoding.com/sketch -->
    <title>loc-binoculars</title>
    <desc>Created with Sketch.</desc>
    <defs></defs>
    <g id="64px-Glyph" stroke="none" stroke-width="1" fill="none" fill-rule="evenodd">
        <g id="loc-binoculars" fill="#000000">
            <path d="M26,42 L26,17 C26,16.447 25.553,16 25,16 L15.263,16 C13.486,16 11.904,17.193 11.399,18.972 L6.603,42 L26,42 Z" id="Fill-147"></path>
            <path d="M5,44 C4.447,44 4,44.447 4,45 L4,55 C4,56.654 5.346,58 7,58 L23,58 C24.654,58 26,56.654 26,55 L26,44 L5,44 Z" id="Fill-148"></path>
            <path d="M15.2627,14 L24.9997,14 C25.3527,14 25.6857,14.072 25.9997,14.184 L25.9997,11 C25.9997,10.447 25.5527,10 24.9997,10 L14.9997,10 C14.4477,10 13.9997,10.447 13.9997,11 L13.9997,14.155 C14.4117,14.064 14.8307,14 15.2627,14" id="Fill-149"></path>
            <path d="M55.3967,42 L50.5837,18.901 C50.0957,17.193 48.5137,16 46.7377,16 L36.9997,16 C36.4477,16 35.9997,16.447 35.9997,17 L35.9997,42 L55.3967,42 Z" id="Fill-150"></path>
            <path d="M57,44 L36,44 L36,55 C36,56.654 37.346,58 39,58 L55,58 C56.654,58 58,56.654 58,55 L58,45 C58,44.447 57.553,44 57,44" id="Fill-151"></path>
            <path d="M37,14 L46.737,14 C47.17,14 47.589,14.063 48,14.152 L48,11 C48,10.447 47.553,10 47,10 L37,10 C36.447,10 36,10.447 36,11 L36,14.184 C36.314,14.072 36.648,14 37,14" id="Fill-152"></path>
            <path d="M34,16 L32,16 L30,16 L28,16 L28,41.025 C28.838,40.391 29.87,40 31,40 C32.13,40 33.162,40.391 34,41.025 L34,16 Z" id="Fill-153"></path>
        </g>
    </g>
</svg>