<?xml version="1.0" encoding="UTF-8" standalone="no"?>
<svg width="44px" height="44px" viewBox="0 0 44 44" version="1.1" xmlns="http://www.w3.org/2000/svg" xmlns:xlink="http://www.w3.org/1999/xlink">
    <!-- Generator: Sketch 3.7.2 (28276) - http://www.bohemiancoding.com/sketch -->
    <title>loc-sextant</title>
    <desc>Created with Sketch.</desc>
    <defs></defs>
    <g id="44px-Line" stroke="none" stroke-width="1" fill="none" fill-rule="evenodd">
        <g id="loc-sextant"></g>
        <path d="M42.244,32.345 L41.263,33.481 C40.171,34.621 38.991,35.648 37.743,36.57 L24.976,18 L38,18 L38,19 C38,19.553 38.447,20 39,20 C39.553,20 40,19.553 40,19 L40,9 C40,8.447 39.553,8 39,8 C38.447,8 38,8.447 38,9 L38,10 L24.974,10 C25.609,9.162 26,8.13 26,7 C26,4.243 23.757,2 21,2 C18.243,2 16,4.243 16,7 C16,8.13 16.391,9.162 17.026,10 L10,10 L10,9 C10,8.447 9.553,8 9,8 L1,8 C0.447,8 -3.73034936e-14,8.447 -3.73034936e-14,9 L-3.73034936e-14,19 C-3.73034936e-14,19.553 0.447,20 1,20 L9,20 C9.553,20 10,19.553 10,19 L10,18 L16.943,18 L11.571,25.813 C11.152,25.481 10.745,25.13 10.358,24.751 C9.964,24.365 9.332,24.372 8.944,24.767 C8.558,25.162 8.565,25.794 8.96,26.181 C9.43,26.641 9.927,27.061 10.439,27.46 L4.257,36.451 C3.355,35.78 2.483,35.058 1.655,34.274 C1.255,33.894 0.621,33.911 0.242,34.312 C-0.138,34.712 -0.121,35.346 0.28,35.725 C1.425,36.809 2.643,37.789 3.918,38.671 C3.924,38.675 3.927,38.682 3.933,38.687 C3.942,38.693 3.953,38.695 3.962,38.701 C8.95,42.139 14.84,44 20.959,44 C29.339,44 37.063,40.755 42.74,34.827 L43.756,33.655 C44.117,33.237 44.072,32.606 43.655,32.244 C43.238,31.884 42.607,31.928 42.244,32.345 L42.244,32.345 Z M21.959,31.04 C24.757,30.879 27.443,30.045 29.833,28.596 L36.092,37.701 C31.93,40.329 27.093,41.806 21.959,41.976 L21.959,31.04 L21.959,31.04 Z M28.7,26.948 C26.648,28.171 24.35,28.884 21.959,29.04 L21.959,18 L22.549,18 L28.7,26.948 L28.7,26.948 Z M18,7 C18,5.346 19.346,4 21,4 C22.654,4 24,5.346 24,7 C24,8.654 22.654,10 21,10 C19.346,10 18,8.654 18,7 L18,7 Z M8,18 L2,18 L2,10 L8,10 L8,18 L8,18 Z M10,12 L38,12 L38,16 L10,16 L10,12 L10,12 Z M19.37,18 L19.959,18 L19.959,29.029 C17.556,28.873 15.262,28.155 13.224,26.94 L19.37,18 L19.37,18 Z M12.089,28.59 C14.461,30.029 17.146,30.867 19.959,31.028 L19.959,41.975 C14.934,41.796 10.101,40.281 5.899,37.593 L12.089,28.59 L12.089,28.59 Z" id="Shape" fill="#000000"></path>
    </g>
</svg>