<?xml version="1.0" encoding="UTF-8" standalone="no"?>
<svg width="44px" height="44px" viewBox="0 0 44 44" version="1.1" xmlns="http://www.w3.org/2000/svg" xmlns:xlink="http://www.w3.org/1999/xlink">
    <!-- Generator: Sketch 3.7.2 (28276) - http://www.bohemiancoding.com/sketch -->
    <title>loc-point-heart</title>
    <desc>Created with Sketch.</desc>
    <defs></defs>
    <g id="44px-Glyph" stroke="none" stroke-width="1" fill="none" fill-rule="evenodd">
        <g id="loc-point-heart" fill="#000000">
            <path d="M28.4443,16.6787 L21.7213,23.6927 C21.5333,23.8887 21.2723,23.9997 21.0003,23.9997 C20.7273,23.9997 20.4673,23.8887 20.2783,23.6927 L13.5403,16.6617 C12.5583,15.7337 12.0003,14.4507 12.0003,13.0827 C12.0003,11.7147 12.5583,10.4327 13.5743,9.4707 C15.6203,7.5317 18.9393,7.5187 21.0013,9.4327 C23.0233,7.5177 26.3693,7.5207 28.4273,9.4707 C29.4413,10.4317 30.0003,11.7147 30.0003,13.0827 C30.0003,14.4437 29.4483,15.7187 28.4443,16.6787 M21.0003,-0.0003 C12.7283,-0.0003 6.0003,6.7287 6.0003,14.9997 C6.0003,17.6577 6.7053,20.2717 8.0393,22.5547 C8.0403,22.5567 8.0403,22.5577 8.0413,22.5597 C8.2403,22.9007 20.1343,43.4997 20.1343,43.4997 C20.3123,43.8097 20.6423,43.9997 21.0003,43.9997 C21.3573,43.9997 21.6873,43.8097 21.8663,43.4997 L33.9713,22.5357 L33.9723,22.5357 C35.2993,20.2577 36.0003,17.6517 36.0003,14.9997 C36.0003,6.7287 29.2713,-0.0003 21.0003,-0.0003" id="Fill-254"></path>
            <path d="M22.334,10.9219 L21.65,11.5099 C21.275,11.8299 20.725,11.8299 20.35,11.5099 L19.703,10.9559 C19.03,10.3189 18.159,10.0019 17.295,10.0019 C16.442,10.0019 15.596,10.3099 14.949,10.9219 C14.337,11.5019 14,12.2699 14,13.0829 C14,13.8969 14.337,14.6639 14.949,15.2439 L21,21.5549 L27.017,15.2769 C27.027,15.2669 27.039,15.2549 27.051,15.2439 C27.663,14.6639 28,13.8969 28,13.0829 C28,12.2699 27.663,11.5019 27.051,10.9219 C25.751,9.6909 23.636,9.6889 22.334,10.9219" id="Fill-255"></path>
        </g>
    </g>
</svg>