<?xml version="1.0" encoding="UTF-8" standalone="no"?>
<svg width="44px" height="44px" viewBox="0 0 44 44" version="1.1" xmlns="http://www.w3.org/2000/svg" xmlns:xlink="http://www.w3.org/1999/xlink">
    <!-- Generator: Sketch 3.7.2 (28276) - http://www.bohemiancoding.com/sketch -->
    <title>loc-search-code</title>
    <desc>Created with Sketch.</desc>
    <defs></defs>
    <g id="44px-Line" stroke="none" stroke-width="1" fill="none" fill-rule="evenodd">
        <g id="loc-search-code"></g>
        <path d="M11.707,12.293 C11.316,11.902 10.684,11.902 10.293,12.293 L6.293,16.293 C5.902,16.684 5.902,17.316 6.293,17.707 L10.293,21.707 C10.488,21.902 10.744,22 11,22 C11.256,22 11.512,21.902 11.707,21.707 C12.098,21.316 12.098,20.684 11.707,20.293 L8.414,17 L11.707,13.707 C12.098,13.316 12.098,12.684 11.707,12.293 L11.707,12.293 Z" id="Shape" fill="#000000"></path>
        <path d="M33.664,28.972 C32.473,27.78 30.595,27.701 29.293,28.709 C32.201,25.657 34,21.539 34,17 C34,7.626 26.374,0 17,0 C7.626,0 0,7.626 0,17 C0,26.374 7.626,34 17,34 C21.538,34 25.656,32.202 28.708,29.294 C27.699,30.594 27.778,32.47 28.971,33.664 L38.335,43.028 C38.981,43.674 39.831,43.999 40.682,43.999 C41.532,43.999 42.381,43.675 43.028,43.028 C44.322,41.734 44.322,39.63 43.028,38.336 L33.664,28.972 L33.664,28.972 Z M17,32 C8.729,32 2,25.271 2,17 C2,8.729 8.729,2 17,2 C25.271,2 32,8.729 32,17 C32,25.271 25.271,32 17,32 L17,32 Z M41.614,41.614 C41.099,42.128 40.262,42.127 39.75,41.614 L30.386,32.25 C29.872,31.736 29.872,30.899 30.386,30.386 C30.643,30.129 30.981,30 31.318,30 C31.656,30 31.994,30.129 32.251,30.386 L41.615,39.75 C42.128,40.264 42.128,41.101 41.614,41.614 L41.614,41.614 Z" id="Shape" fill="#000000"></path>
        <path d="M27.707,16.293 L23.707,12.293 C23.316,11.902 22.684,11.902 22.293,12.293 C21.902,12.684 21.902,13.316 22.293,13.707 L25.586,17 L22.293,20.293 C21.902,20.684 21.902,21.316 22.293,21.707 C22.488,21.902 22.744,22 23,22 C23.256,22 23.512,21.902 23.707,21.707 L27.707,17.707 C28.098,17.316 28.098,16.684 27.707,16.293 L27.707,16.293 Z" id="Shape" fill="#000000"></path>
        <path d="M19.242,8.03 C18.706,7.893 18.164,8.222 18.03,8.758 L14.03,24.758 C13.895,25.293 14.221,25.836 14.758,25.97 C14.839,25.991 14.921,26 15.001,26 C15.449,26 15.856,25.697 15.97,25.242 L19.97,9.242 C20.104,8.707 19.778,8.164 19.242,8.03 L19.242,8.03 Z" id="Shape" fill="#000000"></path>
    </g>
</svg>