<?xml version="1.0" encoding="UTF-8" standalone="no"?>
<svg width="64px" height="64px" viewBox="0 0 64 64" version="1.1" xmlns="http://www.w3.org/2000/svg" xmlns:xlink="http://www.w3.org/1999/xlink">
    <!-- Generator: Sketch 3.7.2 (28276) - http://www.bohemiancoding.com/sketch -->
    <title>vid-slider-side</title>
    <desc>Created with Sketch.</desc>
    <defs></defs>
    <g id="64px-Line" stroke="none" stroke-width="1" fill="none" fill-rule="evenodd">
        <g id="vid-slider-side"></g>
        <path d="M54,6 L8,6 C5.794,6 4,7.794 4,10 L4,56 C4,58.206 5.794,60 8,60 L54,60 C56.206,60 58,58.206 58,56 L58,10 C58,7.794 56.206,6 54,6 L54,6 Z M56,56 C56,57.103 55.103,58 54,58 L8,58 C6.897,58 6,57.103 6,56 L6,10 C6,8.897 6.897,8 8,8 L54,8 C55.103,8 56,8.897 56,10 L56,56 L56,56 Z" id="Shape" fill="#000000"></path>
        <path d="M51,18 L46,18 L46,15 C46,14.447 45.552,14 45,14 L35,14 C34.448,14 34,14.447 34,15 L34,18 L11,18 C10.448,18 10,18.447 10,19 C10,19.553 10.448,20 11,20 L34,20 L34,23 C34,23.553 34.448,24 35,24 L45,24 C45.552,24 46,23.553 46,23 L46,20 L51,20 C51.552,20 52,19.553 52,19 C52,18.447 51.552,18 51,18 L51,18 Z M44,22 L36,22 L36,16 L44,16 L44,22 L44,22 Z" id="Shape" fill="#000000"></path>
        <path d="M51,32 L28,32 L28,29 C28,28.447 27.552,28 27,28 L17,28 C16.448,28 16,28.447 16,29 L16,32 L11,32 C10.448,32 10,32.447 10,33 C10,33.553 10.448,34 11,34 L16,34 L16,37 C16,37.553 16.448,38 17,38 L27,38 C27.552,38 28,37.553 28,37 L28,34 L51,34 C51.552,34 52,33.553 52,33 C52,32.447 51.552,32 51,32 L51,32 Z M26,36 L18,36 L18,30 L26,30 L26,36 L26,36 Z" id="Shape" fill="#000000"></path>
        <path d="M51,46 L38,46 L38,43 C38,42.447 37.552,42 37,42 L27,42 C26.448,42 26,42.447 26,43 L26,46 L11,46 C10.448,46 10,46.447 10,47 C10,47.553 10.448,48 11,48 L26,48 L26,51 C26,51.553 26.448,52 27,52 L37,52 C37.552,52 38,51.553 38,51 L38,48 L51,48 C51.552,48 52,47.553 52,47 C52,46.447 51.552,46 51,46 L51,46 Z M36,50 L28,50 L28,44 L36,44 L36,50 L36,50 Z" id="Shape" fill="#000000"></path>
    </g>
</svg>