<?xml version="1.0" encoding="UTF-8" standalone="no"?>
<svg width="64px" height="64px" viewBox="0 0 64 64" version="1.1" xmlns="http://www.w3.org/2000/svg" xmlns:xlink="http://www.w3.org/1999/xlink">
    <!-- Generator: Sketch 3.7.2 (28276) - http://www.bohemiancoding.com/sketch -->
    <title>vid-movie-love</title>
    <desc>Created with Sketch.</desc>
    <defs></defs>
    <g id="64px-Line" stroke="none" stroke-width="1" fill="none" fill-rule="evenodd">
        <g id="vid-movie-love"></g>
        <path d="M44.381,34.309 L44,34.653 L43.657,34.344 C42.146,32.833 40.137,32 38,32 C35.862,32 33.854,32.833 32.343,34.344 C30.832,35.855 30,37.864 30,40.001 C30,42.138 30.832,44.147 32.31,45.622 L43.26,57.673 C43.449,57.881 43.718,58.001 44,58.001 C44.282,58.001 44.551,57.882 44.74,57.673 L55.675,45.64 C57.175,44.131 58,42.13 58,40.001 C58,37.864 57.168,35.855 55.657,34.345 C54.146,32.833 52.137,32 50,32 C47.863,32 45.854,32.833 44.381,34.309 L44.381,34.309 Z M56,40 C56,41.603 55.376,43.109 54.243,44.242 C54.231,44.253 54.221,44.264 54.21,44.277 L44,55.513 L33.757,44.242 C32.624,43.109 32,41.603 32,40 C32,38.397 32.624,36.891 33.757,35.757 C34.891,34.623 36.397,33.999 38,33.999 C39.603,33.999 41.109,34.624 42.279,35.791 L43.329,36.74 C43.71,37.085 44.289,37.084 44.67,36.74 L45.758,35.756 C46.892,34.622 48.398,33.998 50,33.998 C51.602,33.998 53.109,34.623 54.243,35.756 C55.376,36.891 56,38.397 56,40 L56,40 Z" id="Shape" fill="#000000"></path>
        <path d="M5,44 L27.413,44 C27.966,44 28.413,43.552 28.413,43 C28.413,42.448 27.966,42 27.413,42 L24,42 L24,38 L27.412,38 C27.965,38 28.412,37.552 28.412,37 C28.412,36.448 27.965,36 27.412,36 L12,36 L12,16 L28,16 L28,33.67 C28,34.222 28.447,34.67 29,34.67 C29.553,34.67 30,34.222 30,33.67 L30,16 L46,16 L46,29.41 C46,29.962 46.447,30.41 47,30.41 C47.553,30.41 48,29.962 48,29.41 L48,16 L53,16 C53.553,16 54,15.552 54,15 L54,9 C54,8.448 53.553,8 53,8 L5,8 C4.447,8 4,8.448 4,9 L4,15 C4,15.552 4.447,16 5,16 L10,16 L10,36 L5,36 C4.447,36 4,36.448 4,37 L4,43 C4,43.552 4.447,44 5,44 L5,44 Z M16,14 L12,14 L12,10 L16,10 L16,14 L16,14 Z M18,10 L22,10 L22,14 L18,14 L18,10 L18,10 Z M24,14 L24,10 L28,10 L28,14 L24,14 L24,14 Z M30,10 L34,10 L34,14 L30,14 L30,10 L30,10 Z M36,10 L40,10 L40,14 L36,14 L36,10 L36,10 Z M42,14 L42,10 L46,10 L46,14 L42,14 L42,14 Z M52,14 L48,14 L48,10 L52,10 L52,14 L52,14 Z M6,14 L6,10 L10,10 L10,14 L6,14 L6,14 Z M22,42 L18,42 L18,38 L22,38 L22,42 L22,42 Z M16,38 L16,42 L12,42 L12,38 L16,38 L16,38 Z M6,38 L10,38 L10,42 L6,42 L6,38 L6,38 Z" id="Shape" fill="#000000"></path>
    </g>
</svg>