<?xml version="1.0" encoding="UTF-8" standalone="no"?>
<svg width="64px" height="64px" viewBox="0 0 64 64" version="1.1" xmlns="http://www.w3.org/2000/svg" xmlns:xlink="http://www.w3.org/1999/xlink">
    <!-- Generator: Sketch 3.7.2 (28276) - http://www.bohemiancoding.com/sketch -->
    <title>vid-movie-search</title>
    <desc>Created with Sketch.</desc>
    <defs></defs>
    <g id="64px-Line" stroke="none" stroke-width="1" fill="none" fill-rule="evenodd">
        <g id="vid-movie-search"></g>
        <path d="M32.293,57.707 C32.488,57.902 32.744,58 33,58 C33.256,58 33.512,57.902 33.707,57.707 L41.676,49.738 C43.4,51.15 45.602,52 48,52 C53.514,52 58,47.514 58,42 C58,36.486 53.514,32 48,32 C42.486,32 38,36.486 38,42 C38,44.397 38.85,46.6 40.262,48.324 L32.293,56.293 C31.902,56.684 31.902,57.316 32.293,57.707 L32.293,57.707 Z M48,34 C52.411,34 56,37.589 56,42 C56,46.411 52.411,50 48,50 C43.589,50 40,46.411 40,42 C40,37.589 43.589,34 48,34 L48,34 Z" id="Shape" fill="#000000"></path>
        <path d="M5,44 L35.039,44 C35.591,44 36.039,43.552 36.039,43 C36.039,42.932 36.013,42.871 36,42.807 L36,38 L36.001,38 C36.553,38 37.001,37.552 37.001,37 C37.001,36.448 36.553,36 36.001,36 L30,36 L30,16 L46,16 L46,29.036 C46,29.588 46.448,30.036 47,30.036 C47.552,30.036 48,29.588 48,29.036 L48,16 L53,16 C53.552,16 54,15.552 54,15 L54,9 C54,8.448 53.552,8 53,8 L5,8 C4.448,8 4,8.448 4,9 L4,15 C4,15.552 4.448,16 5,16 L10,16 L10,36 L5,36 C4.448,36 4,36.448 4,37 L4,43 C4,43.552 4.448,44 5,44 L5,44 Z M22,38 L22,42 L18,42 L18,38 L22,38 L22,38 Z M28,38 L28,42 L24,42 L24,38 L28,38 L28,38 Z M16,42 L12,42 L12,38 L16,38 L16,42 L16,42 Z M34,38 L34,42 L30,42 L30,38 L34,38 L34,38 Z M18,14 L18,10 L22,10 L22,14 L18,14 L18,14 Z M12,14 L12,10 L16,10 L16,14 L12,14 L12,14 Z M24,10 L28,10 L28,14 L24,14 L24,10 L24,10 Z M30,10 L34,10 L34,14 L30,14 L30,10 L30,10 Z M36,10 L40,10 L40,14 L36,14 L36,10 L36,10 Z M42,14 L42,10 L46,10 L46,14 L42,14 L42,14 Z M52,14 L48,14 L48,10 L52,10 L52,14 L52,14 Z M6,14 L6,10 L10,10 L10,14 L6,14 L6,14 Z M12,16 L28,16 L28,36 L12,36 L12,16 L12,16 Z M6,38 L10,38 L10,42 L6,42 L6,38 L6,38 Z" id="Shape" fill="#000000"></path>
    </g>
</svg>