<?xml version="1.0" encoding="UTF-8" standalone="no"?>
<svg width="64px" height="64px" viewBox="0 0 64 64" version="1.1" xmlns="http://www.w3.org/2000/svg" xmlns:xlink="http://www.w3.org/1999/xlink">
    <!-- Generator: Sketch 3.7.2 (28276) - http://www.bohemiancoding.com/sketch -->
    <title>vid-reel-2</title>
    <desc>Created with Sketch.</desc>
    <defs></defs>
    <g id="64px-Line" stroke="none" stroke-width="1" fill="none" fill-rule="evenodd">
        <g id="vid-reel-2"></g>
        <path d="M28,27 C28,25.346 26.654,24 25,24 C23.346,24 22,25.346 22,27 C22,28.654 23.346,30 25,30 C26.654,30 28,28.654 28,27 L28,27 Z M25,28 C24.449,28 24,27.552 24,27 C24,26.448 24.449,26 25,26 C25.551,26 26,26.448 26,27 C26,27.552 25.551,28 25,28 L25,28 Z" id="Shape" fill="#000000"></path>
        <path d="M25,20 C27.757,20 30,17.757 30,15 C30,12.243 27.757,10 25,10 C22.243,10 20,12.243 20,15 C20,17.757 22.243,20 25,20 L25,20 Z M25,12 C26.654,12 28,13.346 28,15 C28,16.654 26.654,18 25,18 C23.346,18 22,16.654 22,15 C22,13.346 23.346,12 25,12 L25,12 Z" id="Shape" fill="#000000"></path>
        <path d="M18.343,24.837 C19.195,22.215 17.755,19.388 15.133,18.536 C12.512,17.684 9.685,19.124 8.833,21.747 C8.42,23.017 8.527,24.371 9.133,25.561 C9.739,26.75 10.773,27.633 12.043,28.046 C12.555,28.212 13.074,28.291 13.585,28.291 C15.692,28.292 17.657,26.947 18.343,24.837 L18.343,24.837 Z M10.914,24.653 C10.551,23.939 10.487,23.127 10.734,22.364 C11.146,21.098 12.324,20.291 13.589,20.291 C13.895,20.291 14.207,20.339 14.513,20.438 C16.086,20.949 16.951,22.645 16.439,24.219 C15.928,25.791 14.23,26.655 12.659,26.144 C11.898,25.897 11.278,25.367 10.914,24.653 L10.914,24.653 Z" id="Shape" fill="#000000"></path>
        <path d="M20.885,32.662 C18.655,31.044 15.522,31.54 13.901,33.769 C12.281,35.999 12.777,39.132 15.007,40.752 C15.871,41.38 16.888,41.709 17.936,41.709 C18.199,41.709 18.464,41.688 18.729,41.646 C20.048,41.437 21.207,40.727 21.992,39.647 C23.612,37.417 23.116,34.283 20.885,32.662 L20.885,32.662 Z M20.374,38.472 C19.903,39.12 19.208,39.546 18.416,39.672 C17.623,39.795 16.831,39.607 16.183,39.136 C14.845,38.163 14.547,36.283 15.519,34.946 C16.105,34.138 17.021,33.71 17.95,33.71 C18.561,33.71 19.178,33.896 19.709,34.281 C21.048,35.253 21.346,37.134 20.374,38.472 L20.374,38.472 Z" id="Shape" fill="#000000"></path>
        <path d="M41.168,21.747 C40.316,19.125 37.49,17.685 34.868,18.536 C32.246,19.388 30.806,22.215 31.658,24.837 C32.344,26.947 34.309,28.292 36.417,28.292 C36.928,28.292 37.447,28.213 37.959,28.047 C39.229,27.634 40.263,26.751 40.869,25.562 C41.474,24.371 41.581,23.017 41.168,21.747 L41.168,21.747 Z M39.086,24.653 C38.722,25.367 38.102,25.897 37.34,26.144 C35.766,26.655 34.07,25.791 33.56,24.219 C33.049,22.645 33.913,20.948 35.486,20.438 C35.793,20.338 36.104,20.291 36.41,20.291 C37.675,20.291 38.854,21.099 39.265,22.364 C39.513,23.127 39.449,23.939 39.086,24.653 L39.086,24.653 Z" id="Shape" fill="#000000"></path>
        <path d="M32.835,31.77 C31.518,31.56 30.194,31.877 29.114,32.664 C26.884,34.284 26.387,37.418 28.008,39.648 C28.793,40.728 29.952,41.438 31.271,41.647 C31.536,41.689 31.801,41.71 32.064,41.71 C33.111,41.71 34.129,41.381 34.993,40.753 C37.223,39.133 37.719,36 36.099,33.77 C35.314,32.688 34.155,31.979 32.835,31.77 L32.835,31.77 Z M33.817,39.136 C33.169,39.607 32.379,39.795 31.584,39.672 C30.792,39.546 30.097,39.12 29.626,38.472 C28.654,37.134 28.951,35.253 30.289,34.282 C30.808,33.905 31.418,33.708 32.046,33.708 C32.204,33.708 32.363,33.721 32.522,33.746 C33.314,33.871 34.009,34.298 34.48,34.946 C35.453,36.283 35.155,38.163 33.817,39.136 L33.817,39.136 Z" id="Shape" fill="#000000"></path>
        <path d="M56,46 L51,46 C48.243,46 46,43.757 46,41 L46,29 C46,28.86 45.97,28.728 45.919,28.606 C45.96,28.074 46,27.542 46,27 C46,15.421 36.58,6 25,6 C13.42,6 4,15.421 4,27 C4,38.579 13.42,48 25,48 C33.401,48 40.645,43.03 44,35.886 L44,41 C44,44.859 47.14,48 51,48 L56,48 C57.103,48 58,48.897 58,50 C58,51.103 57.103,52 56,52 L42,52 C39.794,52 38,53.794 38,56 C38,58.206 39.794,60 42,60 L47,60 C47.552,60 48,59.553 48,59 C48,58.447 47.552,58 47,58 L42,58 C40.897,58 40,57.103 40,56 C40,54.897 40.897,54 42,54 L56,54 C58.206,54 60,52.206 60,50 C60,47.794 58.206,46 56,46 L56,46 Z M25,46 C14.523,46 6,37.477 6,27 C6,16.523 14.523,8 25,8 C35.477,8 44,16.523 44,27 C44,37.477 35.477,46 25,46 L25,46 Z" id="Shape" fill="#000000"></path>
    </g>
</svg>