<?xml version="1.0" encoding="UTF-8" standalone="no"?>
<svg width="64px" height="64px" viewBox="0 0 64 64" version="1.1" xmlns="http://www.w3.org/2000/svg" xmlns:xlink="http://www.w3.org/1999/xlink">
    <!-- Generator: Sketch 3.7.2 (28276) - http://www.bohemiancoding.com/sketch -->
    <title>vid-countdown</title>
    <desc>Created with Sketch.</desc>
    <defs></defs>
    <g id="64px-Line" stroke="none" stroke-width="1" fill="none" fill-rule="evenodd">
        <g id="vid-countdown"></g>
        <path d="M5,34 L6.025,34 C6.54,46.99 17.01,57.46 30,57.975 L30,59 C30,59.552 30.447,60 31,60 C31.553,60 32,59.552 32,59 L32,57.975 C44.99,57.46 55.46,46.99 55.975,34 L57,34 C57.553,34 58,33.552 58,33 C58,32.448 57.553,32 57,32 L47,32 C46.447,32 46,32.448 46,33 C46,33.552 46.447,34 47,34 L47.949,34 C47.446,42.575 40.575,49.447 32,49.949 L32,49 C32,48.448 31.553,48 31,48 C30.447,48 30,48.448 30,49 L30,49.949 C21.425,49.447 14.553,42.575 14.051,34 L15,34 C15.553,34 16,33.552 16,33 C16,32.448 15.553,32 15,32 L14.051,32 C14.554,23.425 21.425,16.553 30,16.051 L30,17 C30,17.552 30.447,18 31,18 C31.553,18 32,17.552 32,17 L32,16.049 C36.163,16.29 40.046,18.006 43.019,20.977 C43.41,21.368 44.042,21.368 44.433,20.977 C44.824,20.586 44.824,19.953 44.433,19.563 C41.083,16.214 36.697,14.292 32,14.049 L32,10.049 C37.764,10.295 43.154,12.63 47.261,16.734 C47.652,17.124 48.284,17.124 48.675,16.734 C49.066,16.344 49.066,15.71 48.675,15.319 C44.189,10.836 38.3,8.271 32,8.025 L32,7 C32,6.448 31.553,6 31,6 C30.447,6 30,6.448 30,7 L30,8.025 C17.01,8.54 6.54,19.01 6.025,32 L5,32 C4.447,32 4,32.448 4,33 C4,33.552 4.447,34 5,34 L5,34 Z M49.949,34 L53.974,34 C53.463,45.888 43.888,55.463 32,55.975 L32,51.95 C41.677,51.442 49.442,43.677 49.949,34 L49.949,34 Z M30,51.949 L30,55.974 C18.112,55.463 8.537,45.888 8.025,34 L12.05,34 C12.558,43.677 20.323,51.442 30,51.949 L30,51.949 Z M30,10.025 L30,14.05 C20.323,14.557 12.558,22.322 12.051,31.999 L8.026,31.999 C8.537,20.112 18.112,10.537 30,10.025 L30,10.025 Z" id="Shape" fill="#000000"></path>
        <path d="M37,29 C37,26.243 34.309,24 31,24 C29.132,24 27.405,24.702 26.262,25.925 C25.885,26.328 25.907,26.961 26.31,27.338 C26.711,27.714 27.346,27.694 27.723,27.29 C28.479,26.482 29.703,26 31,26 C33.206,26 35,27.346 35,29 C35,30.654 33.206,32 31,32 C30.447,32 30,32.448 30,33 C30,33.552 30.447,34 31,34 C33.206,34 35,35.346 35,37 C35,38.654 33.206,40 31,40 C29.706,40 28.482,39.519 27.728,38.714 C27.35,38.312 26.717,38.292 26.315,38.669 C25.912,39.047 25.891,39.68 26.269,40.083 C27.412,41.301 29.136,42 31,42 C34.309,42 37,39.757 37,37 C37,35.364 36.047,33.913 34.585,33 C36.047,32.087 37,30.636 37,29 L37,29 Z" id="Shape" fill="#000000"></path>
    </g>
</svg>