<?xml version="1.0" encoding="UTF-8" standalone="no"?>
<svg width="64px" height="64px" viewBox="0 0 64 64" version="1.1" xmlns="http://www.w3.org/2000/svg" xmlns:xlink="http://www.w3.org/1999/xlink">
    <!-- Generator: Sketch 3.7.2 (28276) - http://www.bohemiancoding.com/sketch -->
    <title>vid-tv-3d</title>
    <desc>Created with Sketch.</desc>
    <defs></defs>
    <g id="64px-Line" stroke="none" stroke-width="1" fill="none" fill-rule="evenodd">
        <g id="vid-tv-3d"></g>
        <path d="M8,48 L30,48 L30,50.133 L16.858,52.01 C16.311,52.088 15.931,52.594 16.009,53.141 C16.087,53.687 16.59,54.068 17.141,53.989 L31,52.01 L44.858,53.989 C44.906,53.996 44.954,53.999 45.001,53.999 C45.491,53.999 45.919,53.639 45.99,53.141 C46.068,52.594 45.688,52.088 45.141,52.01 L32,50.133 L32,48 L54,48 C56.206,48 58,46.206 58,44 L58,14 C58,11.794 56.206,10 54,10 L8,10 C5.794,10 4,11.794 4,14 L4,44 C4,46.206 5.794,48 8,48 L8,48 Z M6,14 C6,12.897 6.897,12 8,12 L54,12 C55.103,12 56,12.897 56,14 L56,44 C56,45.103 55.103,46 54,46 L8,46 C6.897,46 6,45.103 6,44 L6,14 L6,14 Z" id="Shape" fill="#000000"></path>
        <path d="M33,38 L37,38 C40.859,38 44,34.86 44,31 L44,27 C44,23.14 40.859,20 37,20 L33,20 C32.447,20 32,20.448 32,21 L32,37 C32,37.552 32.447,38 33,38 L33,38 Z M34,22 L37,22 C39.757,22 42,24.243 42,27 L42,31 C42,33.757 39.757,36 37,36 L34,36 L34,22 L34,22 Z" id="Shape" fill="#000000"></path>
        <path d="M24,36 C21.794,36 20,34.654 20,33 C20,32.448 19.553,32 19,32 C18.447,32 18,32.448 18,33 C18,35.757 20.691,38 24,38 C27.309,38 30,35.757 30,33 C30,31.366 29.055,29.913 27.597,29 C29.055,28.087 30,26.634 30,25 C30,22.243 27.309,20 24,20 C20.691,20 18,22.243 18,25 C18,25.552 18.447,26 19,26 C19.553,26 20,25.552 20,25 C20,23.346 21.794,22 24,22 C26.206,22 28,23.346 28,25 C28,26.654 26.206,28 24,28 C23.447,28 23,28.448 23,29 C23,29.552 23.447,30 24,30 C26.206,30 28,31.346 28,33 C28,34.654 26.206,36 24,36 L24,36 Z" id="Shape" fill="#000000"></path>
    </g>
</svg>