<?xml version="1.0" encoding="UTF-8" standalone="no"?>
<svg width="64px" height="64px" viewBox="0 0 64 64" version="1.1" xmlns="http://www.w3.org/2000/svg" xmlns:xlink="http://www.w3.org/1999/xlink">
    <!-- Generator: Sketch 3.7.2 (28276) - http://www.bohemiancoding.com/sketch -->
    <title>vid-forward</title>
    <desc>Created with Sketch.</desc>
    <defs></defs>
    <g id="64px-Line" stroke="none" stroke-width="1" fill="none" fill-rule="evenodd">
        <g id="vid-forward"></g>
        <path d="M31,6 C16.112,6 4,18.112 4,33 C4,47.888 16.112,60 31,60 C45.888,60 58,47.888 58,33 C58,18.112 45.888,6 31,6 L31,6 Z M31,58 C17.215,58 6,46.785 6,33 C6,19.215 17.215,8 31,8 C44.785,8 56,19.215 56,33 C56,46.785 44.785,58 31,58 L31,58 Z" id="Shape" fill="#000000"></path>
        <path d="M46.953,30.967 L35.918,22.443 C35.459,22.149 34.981,22.001 34.5,22.001 C33.122,22.001 32,23.122 32,24.501 L32,33.001 L32,41.501 C32,42.88 33.122,44.001 34.5,44.001 C34.981,44.001 35.458,43.853 35.991,43.507 L46.904,35.07 C47.591,34.603 48,33.83 48,33.001 C48,32.17 47.589,31.396 46.953,30.967 L46.953,30.967 Z M45.729,33.451 L34.842,41.872 C34.707,41.958 34.595,42 34.5,42 C34.224,42 34,41.775 34,41.5 L34,24.5 C34,24.225 34.224,24 34.5,24 C34.595,24 34.707,24.042 34.769,24.076 L45.78,32.585 C45.918,32.679 46,32.834 46,33 C46,33.166 45.917,33.321 45.729,33.451 L45.729,33.451 Z" id="Shape" fill="#000000"></path>
        <path d="M30.953,30.967 L19.918,22.443 C19.459,22.149 18.981,22.001 18.5,22.001 C17.122,22.001 16,23.122 16,24.501 L16,41.501 C16,42.88 17.122,44.001 18.5,44.001 C18.981,44.001 19.458,43.853 19.991,43.507 L30.904,35.07 C31.591,34.603 32,33.83 32,33.001 C32,32.17 31.589,31.396 30.953,30.967 L30.953,30.967 Z M29.729,33.451 L18.842,41.872 C18.707,41.958 18.595,42 18.5,42 C18.224,42 18,41.775 18,41.5 L18,24.5 C18,24.225 18.224,24 18.5,24 C18.595,24 18.707,24.042 18.769,24.076 L29.78,32.585 C29.918,32.679 30,32.834 30,33 C30,33.166 29.917,33.321 29.729,33.451 L29.729,33.451 Z" id="Shape" fill="#000000"></path>
    </g>
</svg>