<?xml version="1.0" encoding="UTF-8" standalone="no"?>
<svg width="64px" height="64px" viewBox="0 0 64 64" version="1.1" xmlns="http://www.w3.org/2000/svg" xmlns:xlink="http://www.w3.org/1999/xlink">
    <!-- Generator: Sketch 3.7.2 (28276) - http://www.bohemiancoding.com/sketch -->
    <title>vid-start</title>
    <desc>Created with Sketch.</desc>
    <defs></defs>
    <g id="64px-Line" stroke="none" stroke-width="1" fill="none" fill-rule="evenodd">
        <g id="vid-start"></g>
        <path d="M46.047,20.466 L31.096,30.931 C30.41,31.397 30,32.171 30,33 C30,33.83 30.41,34.604 31.086,35.062 L46.082,45.558 C46.541,45.852 47.019,46 47.5,46 C48.879,46 50,44.879 50,43.5 L50,22.5 C50,20.64 47.956,19.239 46.047,20.466 L46.047,20.466 Z M48,22.5 L48,43.5 C48,43.869 47.577,44.137 47.193,43.896 L32.22,33.416 C32.082,33.321 32,33.166 32,33 C32,32.834 32.082,32.679 32.232,32.577 L47.158,22.128 C47.291,22.043 47.406,22 47.5,22 C47.775,22 48,22.225 48,22.5 L48,22.5 Z" id="Shape" fill="#000000"></path>
        <path d="M31,6 C16.112,6 4,18.112 4,33 C4,47.888 16.112,60 31,60 C45.888,60 58,47.888 58,33 C58,18.112 45.888,6 31,6 L31,6 Z M31,58 C17.215,58 6,46.785 6,33 C6,19.215 17.215,8 31,8 C44.785,8 56,19.215 56,33 C56,46.785 44.785,58 31,58 L31,58 Z" id="Shape" fill="#000000"></path>
        <path d="M25,20 C23.346,20 22,21.346 22,23 L22,43 C22,44.654 23.346,46 25,46 C26.654,46 28,44.654 28,43 L28,23 C28,21.346 26.654,20 25,20 L25,20 Z M26,43 C26,43.552 25.552,44 25,44 C24.448,44 24,43.552 24,43 L24,23 C24,22.448 24.448,22 25,22 C25.552,22 26,22.448 26,23 L26,43 L26,43 Z" id="Shape" fill="#000000"></path>
        <path d="M17,20 C15.346,20 14,21.346 14,23 L14,43 C14,44.654 15.346,46 17,46 C18.654,46 20,44.654 20,43 L20,23 C20,21.346 18.654,20 17,20 L17,20 Z M18,43 C18,43.552 17.552,44 17,44 C16.448,44 16,43.552 16,43 L16,23 C16,22.448 16.448,22 17,22 C17.552,22 18,22.448 18,23 L18,43 L18,43 Z" id="Shape" fill="#000000"></path>
    </g>
</svg>