<?xml version="1.0" encoding="UTF-8" standalone="no"?>
<svg width="64px" height="64px" viewBox="0 0 64 64" version="1.1" xmlns="http://www.w3.org/2000/svg" xmlns:xlink="http://www.w3.org/1999/xlink">
    <!-- Generator: Sketch 3.7.2 (28276) - http://www.bohemiancoding.com/sketch -->
    <title>vid-camera-2</title>
    <desc>Created with Sketch.</desc>
    <defs></defs>
    <g id="64px-Glyph" stroke="none" stroke-width="1" fill="none" fill-rule="evenodd">
        <g id="vid-camera-2" fill="#000000">
            <path d="M17,16 C15.346,16 14,17.346 14,19 C14,19.553 13.552,20 13,20 C12.448,20 12,19.553 12,19 C12,16.243 14.243,14 17,14 C17.552,14 18,14.447 18,15 C18,15.553 17.552,16 17,16 M17,12 C13.14,12 10,15.141 10,19 C10,22.859 13.14,26 17,26 C20.86,26 24,22.859 24,19 C24,15.141 20.86,12 17,12" id="Fill-417"></path>
            <path d="M17,28 C12.038,28 8,23.963 8,19 C8,14.037 12.038,10 17,10 C21.962,10 26,14.037 26,19 C26,23.963 21.962,28 17,28 M17,6 C9.831,6 4,11.832 4,19 C4,26.168 9.831,32 17,32 C24.169,32 30,26.168 30,19 C30,11.832 24.169,6 17,6" id="Fill-418"></path>
            <path d="M17,34 C12.652,34 8.742,32.129 6,29.164 L6,53 C6,55.757 8.243,58 11,58 L23,58 C25.757,58 28,55.757 28,53 L28,29.164 C25.258,32.129 21.348,34 17,34" id="Fill-419"></path>
            <path d="M55,46 L33,46 C31.346,46 30,44.654 30,43 L30,27 C30,25.346 31.346,24 33,24 L55,24 C56.654,24 58,25.346 58,27 L58,43 C58,44.654 56.654,46 55,46" id="Fill-420"></path>
        </g>
    </g>
</svg>