<?xml version="1.0" encoding="UTF-8" standalone="no"?>
<svg width="64px" height="64px" viewBox="0 0 64 64" version="1.1" xmlns="http://www.w3.org/2000/svg" xmlns:xlink="http://www.w3.org/1999/xlink">
    <!-- Generator: Sketch 3.7.2 (28276) - http://www.bohemiancoding.com/sketch -->
    <title>vid-slider</title>
    <desc>Created with Sketch.</desc>
    <defs></defs>
    <g id="64px-Line" stroke="none" stroke-width="1" fill="none" fill-rule="evenodd">
        <g id="vid-slider"></g>
        <path d="M54,6 L8,6 C5.794,6 4,7.794 4,10 L4,56 C4,58.206 5.794,60 8,60 L54,60 C56.206,60 58,58.206 58,56 L58,10 C58,7.794 56.206,6 54,6 L54,6 Z M56,56 C56,57.103 55.103,58 54,58 L8,58 C6.897,58 6,57.103 6,56 L6,10 C6,8.897 6.897,8 8,8 L54,8 C55.103,8 56,8.897 56,10 L56,56 L56,56 Z" id="Shape" fill="#000000"></path>
        <path d="M32,38.101 L32,13 C32,12.448 31.552,12 31,12 C30.448,12 30,12.448 30,13 L30,38.101 C27.721,38.566 26,40.585 26,43 C26,45.415 27.721,47.434 30,47.899 L30,53 C30,53.552 30.448,54 31,54 C31.552,54 32,53.552 32,53 L32,47.899 C34.279,47.434 36,45.415 36,43 C36,40.585 34.279,38.566 32,38.101 L32,38.101 Z M31,46 C29.346,46 28,44.654 28,43 C28,41.346 29.346,40 31,40 C32.654,40 34,41.346 34,43 C34,44.654 32.654,46 31,46 L31,46 Z" id="Shape" fill="#000000"></path>
        <path d="M46,28.101 L46,13 C46,12.448 45.552,12 45,12 C44.448,12 44,12.448 44,13 L44,28.101 C41.721,28.566 40,30.585 40,33 C40,35.415 41.721,37.434 44,37.899 L44,53 C44,53.552 44.448,54 45,54 C45.552,54 46,53.552 46,53 L46,37.899 C48.279,37.434 50,35.415 50,33 C50,30.585 48.279,28.566 46,28.101 L46,28.101 Z M45,36 C43.346,36 42,34.654 42,33 C42,31.346 43.346,30 45,30 C46.654,30 48,31.346 48,33 C48,34.654 46.654,36 45,36 L45,36 Z" id="Shape" fill="#000000"></path>
        <path d="M18,18.101 L18,13 C18,12.448 17.552,12 17,12 C16.448,12 16,12.448 16,13 L16,18.101 C13.721,18.566 12,20.585 12,23 C12,25.415 13.721,27.434 16,27.899 L16,53 C16,53.552 16.448,54 17,54 C17.552,54 18,53.552 18,53 L18,27.899 C20.279,27.434 22,25.415 22,23 C22,20.585 20.279,18.566 18,18.101 L18,18.101 Z M17,26 C15.346,26 14,24.654 14,23 C14,21.346 15.346,20 17,20 C18.654,20 20,21.346 20,23 C20,24.654 18.654,26 17,26 L17,26 Z" id="Shape" fill="#000000"></path>
    </g>
</svg>