<?xml version="1.0" encoding="UTF-8" standalone="no"?>
<svg width="64px" height="64px" viewBox="0 0 64 64" version="1.1" xmlns="http://www.w3.org/2000/svg" xmlns:xlink="http://www.w3.org/1999/xlink">
    <!-- Generator: Sketch 3.7.2 (28276) - http://www.bohemiancoding.com/sketch -->
    <title>vid-remote</title>
    <desc>Created with Sketch.</desc>
    <defs></defs>
    <g id="64px-Line" stroke="none" stroke-width="1" fill="none" fill-rule="evenodd">
        <g id="vid-remote"></g>
        <path d="M16.319,60.092 C19.397,60.092 22.447,58.967 24.707,56.707 C24.717,56.697 24.728,56.686 24.737,56.676 L46.737,32.676 C46.919,32.478 47.013,32.214 46.998,31.946 C46.983,31.676 46.861,31.425 46.658,31.248 L30.658,17.248 C30.262,16.903 29.665,16.922 29.292,17.294 L7.292,39.294 C2.692,43.894 2.794,51.767 7.514,56.486 C9.916,58.887 13.132,60.092 16.319,60.092 L16.319,60.092 Z M8.707,40.707 L30.045,19.368 L44.571,32.079 L23.278,55.308 C19.443,59.125 12.877,59.02 8.929,55.072 C4.976,51.118 4.875,44.54 8.707,40.707 L8.707,40.707 Z" id="Shape" fill="#000000"></path>
        <path d="M28.293,35.707 C28.488,35.902 28.744,36 29,36 C29.256,36 29.512,35.902 29.707,35.707 L32,33.414 L34.293,35.707 C34.488,35.902 34.744,36 35,36 C35.256,36 35.512,35.902 35.707,35.707 C36.098,35.316 36.098,34.684 35.707,34.293 L33.414,32 L35.707,29.707 C36.098,29.316 36.098,28.684 35.707,28.293 C35.316,27.902 34.684,27.902 34.293,28.293 L32,30.586 L29.707,28.293 C29.316,27.902 28.684,27.902 28.293,28.293 C27.902,28.684 27.902,29.316 28.293,29.707 L30.586,32 L28.293,34.293 C27.902,34.684 27.902,35.316 28.293,35.707 L28.293,35.707 Z" id="Shape" fill="#000000"></path>
        <circle id="Oval" fill="#000000" cx="20" cy="36" r="2"></circle>
        <circle id="Oval" fill="#000000" cx="24" cy="40" r="2"></circle>
        <circle id="Oval" fill="#000000" cx="28" cy="44" r="2"></circle>
        <circle id="Oval" fill="#000000" cx="16" cy="40" r="2"></circle>
        <circle id="Oval" fill="#000000" cx="20" cy="44" r="2"></circle>
        <circle id="Oval" fill="#000000" cx="24" cy="48" r="2"></circle>
        <circle id="Oval" fill="#000000" cx="12" cy="44" r="2"></circle>
        <circle id="Oval" fill="#000000" cx="16" cy="48" r="2"></circle>
        <circle id="Oval" fill="#000000" cx="20" cy="52" r="2"></circle>
        <path d="M39,6 C38.448,6 38,6.447 38,7 C38,7.553 38.448,8 39,8 C48.374,8 56,15.626 56,25 C56,25.553 56.448,26 57,26 C57.552,26 58,25.553 58,25 C58,14.523 49.477,6 39,6 L39,6 Z" id="Shape" fill="#000000"></path>
        <path d="M39,14 C45.065,14 50,18.935 50,25 C50,25.553 50.448,26 51,26 C51.552,26 52,25.553 52,25 C52,17.832 46.168,12 39,12 C38.448,12 38,12.447 38,13 C38,13.553 38.448,14 39,14 L39,14 Z" id="Shape" fill="#000000"></path>
        <path d="M39,20 C41.757,20 44,22.243 44,25 C44,25.553 44.448,26 45,26 C45.552,26 46,25.553 46,25 C46,21.141 42.86,18 39,18 C38.448,18 38,18.447 38,19 C38,19.553 38.448,20 39,20 L39,20 Z" id="Shape" fill="#000000"></path>
    </g>
</svg>