<?xml version="1.0" encoding="UTF-8" standalone="no"?>
<svg width="64px" height="64px" viewBox="0 0 64 64" version="1.1" xmlns="http://www.w3.org/2000/svg" xmlns:xlink="http://www.w3.org/1999/xlink">
    <!-- Generator: Sketch 3.7.2 (28276) - http://www.bohemiancoding.com/sketch -->
    <title>vid-megaphone</title>
    <desc>Created with Sketch.</desc>
    <defs></defs>
    <g id="64px-Line" stroke="none" stroke-width="1" fill="none" fill-rule="evenodd">
        <g id="vid-megaphone"></g>
        <path d="M59.569,8.178 C59.301,7.992 58.957,7.949 58.648,8.064 L11.252,25.838 L5.707,20.293 C5.421,20.007 4.992,19.921 4.617,20.076 C4.243,20.23 4,20.596 4,21 L4,41 C4,41.404 4.243,41.77 4.617,41.924 C4.992,42.08 5.421,41.993 5.707,41.707 L11.233,36.181 L23.939,41.475 L22.31,45.372 C21.46,47.407 22.424,49.755 24.458,50.605 L31.84,53.69 C32.337,53.897 32.86,54.002 33.383,54.002 C33.898,54.002 34.412,53.901 34.902,53.7 C35.891,53.294 36.662,52.527 37.074,51.541 L38.709,47.628 L58.616,55.922 C58.739,55.975 58.87,56 59,56 C59.194,56 59.388,55.943 59.555,55.832 C59.833,55.646 60,55.334 60,55 L60,9 C60,8.672 59.839,8.365 59.569,8.178 L59.569,8.178 Z M12,34.333 L12,27.693 L52,12.693 L52,51 L12,34.333 L12,34.333 Z M6,23.414 L10,27.414 L10,34.586 L6,38.586 L6,23.414 L6,23.414 Z M35.228,50.771 C35.022,51.264 34.636,51.647 34.143,51.85 C33.647,52.052 33.102,52.049 32.612,51.845 L25.23,48.76 C24.212,48.335 23.731,47.161 24.156,46.144 L25.786,42.245 L36.862,46.86 L35.228,50.771 L35.228,50.771 Z M58,53.5 L54,51.833 L54,12 C54,11.981 53.99,11.966 53.989,11.947 L58,10.443 L58,53.5 L58,53.5 Z" id="Shape" fill="#000000"></path>
    </g>
</svg>