<?xml version="1.0" encoding="UTF-8" standalone="no"?>
<svg width="64px" height="64px" viewBox="0 0 64 64" version="1.1" xmlns="http://www.w3.org/2000/svg" xmlns:xlink="http://www.w3.org/1999/xlink">
    <!-- Generator: Sketch 3.7.2 (28276) - http://www.bohemiancoding.com/sketch -->
    <title>vid-camera-3</title>
    <desc>Created with Sketch.</desc>
    <defs></defs>
    <g id="64px-Glyph" stroke="none" stroke-width="1" fill="none" fill-rule="evenodd">
        <g id="vid-camera-3" fill="#000000">
            <polygon id="Fill-405" points="48 32.0337 48 43.9667 54 47.5667 54 28.4337"></polygon>
            <path d="M59,28 L56,28 L56,48 L59,48 C59.553,48 60,47.553 60,47 L60,29 C60,28.447 59.553,28 59,28" id="Fill-406"></path>
            <path d="M8,29 C8,28.13 8.167,27.301 8.458,26.532 C7.707,26.193 6.876,26 6,26 L5,26 C4.447,26 4,26.447 4,27 L4,37 C4,37.553 4.447,38 5,38 L6,38 C6.702,38 7.373,37.873 8,37.65 L8,29 Z" id="Fill-407"></path>
            <path d="M40,43 C40,44.654 38.654,46 37,46 C35.346,46 34,44.654 34,43 L34,33 C34,31.346 35.346,30 37,30 C38.654,30 40,31.346 40,33 L40,43 Z M42,24.101 L42,22 C42,17.589 38.411,14 34,14 L17,14 C16.447,14 16,14.447 16,15 C16,15.553 16.447,16 17,16 L34,16 C37.309,16 40,18.691 40,22 L40,24 L15,24 C12.243,24 10,26.243 10,29 L10,47 C10,49.757 12.243,52 15,52 L41,52 C43.757,52 46,49.757 46,47 L46,29 C46,26.585 44.279,24.566 42,24.101 L42,24.101 Z" id="Fill-408"></path>
            <path d="M37,32 C36.448,32 36,32.448 36,33 L36,43 C36,43.552 36.448,44 37,44 C37.552,44 38,43.552 38,43 L38,33 C38,32.448 37.552,32 37,32" id="Fill-409"></path>
        </g>
    </g>
</svg>