<?xml version="1.0" encoding="UTF-8" standalone="no"?>
<svg width="64px" height="64px" viewBox="0 0 64 64" version="1.1" xmlns="http://www.w3.org/2000/svg" xmlns:xlink="http://www.w3.org/1999/xlink">
    <!-- Generator: Sketch 3.7.2 (28276) - http://www.bohemiancoding.com/sketch -->
    <title>vid-hd</title>
    <desc>Created with Sketch.</desc>
    <defs></defs>
    <g id="64px-Line" stroke="none" stroke-width="1" fill="none" fill-rule="evenodd">
        <g id="vid-hd"></g>
        <path d="M53,12 L9,12 C6.243,12 4,14.243 4,17 L4,49 C4,51.757 6.243,54 9,54 L53,54 C55.757,54 58,51.757 58,49 L58,17 C58,14.243 55.757,12 53,12 L53,12 Z M56,49 C56,50.654 54.654,52 53,52 L9,52 C7.346,52 6,50.654 6,49 L6,17 C6,15.346 7.346,14 9,14 L53,14 C54.654,14 56,15.346 56,17 L56,49 L56,49 Z" id="Shape" fill="#000000"></path>
        <path d="M29,24 C28.447,24 28,24.447 28,25 L28,32 L20,32 L20,25 C20,24.447 19.553,24 19,24 C18.447,24 18,24.447 18,25 L18,41 C18,41.553 18.447,42 19,42 C19.553,42 20,41.553 20,41 L20,34 L28,34 L28,41 C28,41.553 28.447,42 29,42 C29.553,42 30,41.553 30,41 L30,25 C30,24.447 29.553,24 29,24 L29,24 Z" id="Shape" fill="#000000"></path>
        <path d="M39,24 L35,24 C34.447,24 34,24.447 34,25 L34,41 C34,41.553 34.447,42 35,42 L39,42 C42.859,42 46,38.859 46,35 L46,31 C46,27.141 42.859,24 39,24 L39,24 Z M44,35 C44,37.757 41.757,40 39,40 L36,40 L36,26 L39,26 C41.757,26 44,28.243 44,31 L44,35 L44,35 Z" id="Shape" fill="#000000"></path>
    </g>
</svg>