<?xml version="1.0" encoding="UTF-8" standalone="no"?>
<svg width="64px" height="64px" viewBox="0 0 64 64" version="1.1" xmlns="http://www.w3.org/2000/svg" xmlns:xlink="http://www.w3.org/1999/xlink">
    <!-- Generator: Sketch 3.7.2 (28276) - http://www.bohemiancoding.com/sketch -->
    <title>vid-tv-old</title>
    <desc>Created with Sketch.</desc>
    <defs></defs>
    <g id="64px-Line" stroke="none" stroke-width="1" fill="none" fill-rule="evenodd">
        <g id="vid-tv-old"></g>
        <path d="M53,18 L33.414,18 L45.707,5.707 C46.098,5.316 46.098,4.684 45.707,4.293 C45.316,3.902 44.684,3.902 44.293,4.293 L31,17.586 L17.707,4.293 C17.316,3.902 16.684,3.902 16.293,4.293 C15.902,4.684 15.902,5.316 16.293,5.707 L28.586,18 L9,18 C6.243,18 4,20.243 4,23 L4,53 C4,55.757 6.243,58 9,58 L53,58 C55.757,58 58,55.757 58,53 L58,23 C58,20.243 55.757,18 53,18 L53,18 Z M56,53 C56,54.654 54.654,56 53,56 L9,56 C7.346,56 6,54.654 6,53 L6,23 C6,21.346 7.346,20 9,20 L53,20 C54.654,20 56,21.346 56,23 L56,53 L56,53 Z" id="Shape" fill="#000000"></path>
        <path d="M43,22 L11,22 C9.346,22 8,23.346 8,25 L8,51 C8,52.654 9.346,54 11,54 L43,54 C44.654,54 46,52.654 46,51 L46,25 C46,23.346 44.654,22 43,22 L43,22 Z M44,51 C44,51.552 43.552,52 43,52 L11,52 C10.448,52 10,51.552 10,51 L10,25 C10,24.448 10.448,24 11,24 L43,24 C43.552,24 44,24.448 44,25 L44,51 L44,51 Z" id="Shape" fill="#000000"></path>
        <path d="M51,24 C49.346,24 48,25.346 48,27 C48,28.654 49.346,30 51,30 C52.654,30 54,28.654 54,27 C54,25.346 52.654,24 51,24 L51,24 Z M51,28 C50.448,28 50,27.552 50,27 C50,26.448 50.448,26 51,26 C51.552,26 52,26.448 52,27 C52,27.552 51.552,28 51,28 L51,28 Z" id="Shape" fill="#000000"></path>
        <path d="M51,32 C49.346,32 48,33.346 48,35 C48,36.654 49.346,38 51,38 C52.654,38 54,36.654 54,35 C54,33.346 52.654,32 51,32 L51,32 Z M51,36 C50.448,36 50,35.552 50,35 C50,34.448 50.448,34 51,34 C51.552,34 52,34.448 52,35 C52,35.552 51.552,36 51,36 L51,36 Z" id="Shape" fill="#000000"></path>
        <path d="M51,40 C49.346,40 48,41.346 48,43 C48,44.654 49.346,46 51,46 C52.654,46 54,44.654 54,43 C54,41.346 52.654,40 51,40 L51,40 Z M51,44 C50.448,44 50,43.552 50,43 C50,42.448 50.448,42 51,42 C51.552,42 52,42.448 52,43 C52,43.552 51.552,44 51,44 L51,44 Z" id="Shape" fill="#000000"></path>
        <path d="M15,26 C13.346,26 12,27.346 12,29 L12,45 C12,45.553 12.447,46 13,46 C13.553,46 14,45.553 14,45 L14,29 C14,28.448 14.448,28 15,28 C15.553,28 16,27.553 16,27 C16,26.447 15.553,26 15,26 L15,26 Z" id="Shape" fill="#000000"></path>
    </g>
</svg>