<?xml version="1.0" encoding="UTF-8" standalone="no"?>
<svg width="64px" height="64px" viewBox="0 0 64 64" version="1.1" xmlns="http://www.w3.org/2000/svg" xmlns:xlink="http://www.w3.org/1999/xlink">
    <!-- Generator: Sketch 3.7.2 (28276) - http://www.bohemiancoding.com/sketch -->
    <title>vid-rewind</title>
    <desc>Created with Sketch.</desc>
    <defs></defs>
    <g id="64px-Line" stroke="none" stroke-width="1" fill="none" fill-rule="evenodd">
        <g id="vid-rewind"></g>
        <path d="M31,6 C16.112,6 4,18.112 4,33 C4,47.888 16.112,60 31,60 C45.888,60 58,47.888 58,33 C58,18.112 45.888,6 31,6 L31,6 Z M31,58 C17.215,58 6,46.785 6,33 C6,19.215 17.215,8 31,8 C44.785,8 56,19.215 56,33 C56,46.785 44.785,58 31,58 L31,58 Z" id="Shape" fill="#000000"></path>
        <path d="M27.5,22 C27.019,22 26.542,22.148 26.009,22.494 L15.098,30.93 C14.41,31.396 14,32.17 14,33 C14,33.83 14.411,34.604 15.047,35.033 L26.082,43.557 C26.541,43.851 27.019,43.999 27.5,43.999 C28.878,43.999 30,42.878 30,41.499 L30,33 L30,24.5 C30,23.121 28.878,22 27.5,22 L27.5,22 Z M28,41.5 C28,41.775 27.776,42 27.5,42 C27.405,42 27.293,41.958 27.231,41.924 L16.219,33.414 C16.081,33.321 15.999,33.166 15.999,33 C15.999,32.834 16.081,32.679 16.27,32.549 L27.157,24.128 C27.292,24.042 27.404,24 27.499,24 C27.775,24 27.999,24.225 27.999,24.5 L27.999,41.5 L28,41.5 Z" id="Shape" fill="#000000"></path>
        <path d="M43.5,22 C43.019,22 42.542,22.148 42.009,22.494 L31.098,30.93 C30.41,31.396 30,32.17 30,33 C30,33.83 30.411,34.604 31.047,35.033 L42.082,43.557 C42.541,43.851 43.019,43.999 43.5,43.999 C44.878,43.999 46,42.878 46,41.499 L46,24.499 C46,23.121 44.878,22 43.5,22 L43.5,22 Z M44,41.5 C44,41.775 43.776,42 43.5,42 C43.405,42 43.293,41.958 43.231,41.924 L32.219,33.414 C32.081,33.321 31.999,33.166 31.999,33 C31.999,32.834 32.081,32.679 32.27,32.549 L43.157,24.128 C43.292,24.042 43.404,24 43.499,24 C43.775,24 43.999,24.225 43.999,24.5 L43.999,41.5 L44,41.5 Z" id="Shape" fill="#000000"></path>
    </g>
</svg>