<?xml version="1.0" encoding="UTF-8" standalone="no"?>
<svg width="64px" height="64px" viewBox="0 0 64 64" version="1.1" xmlns="http://www.w3.org/2000/svg" xmlns:xlink="http://www.w3.org/1999/xlink">
    <!-- Generator: Sketch 3.7.2 (28276) - http://www.bohemiancoding.com/sketch -->
    <title>vid-mirror</title>
    <desc>Created with Sketch.</desc>
    <defs></defs>
    <g id="64px-Line" stroke="none" stroke-width="1" fill="none" fill-rule="evenodd">
        <g id="vid-mirror"></g>
        <path d="M57,10 L5,10 C4.447,10 4,10.447 4,11 L4,55 C4,55.553 4.447,56 5,56 L17,56 L45,56 L57,56 C57.553,56 58,55.553 58,55 L58,11 C58,10.447 57.553,10 57,10 L57,10 Z M44,54 L18,54 L18,24 L44,24 L44,54 L44,54 Z M56,54 L46,54 L46,23 C46,22.447 45.553,22 45,22 L17,22 C16.447,22 16,22.447 16,23 L16,54 L6,54 L6,12 L56,12 L56,54 L56,54 Z" id="Shape" fill="#000000"></path>
        <path d="M11,52 C12.654,52 14,50.654 14,49 C14,47.346 12.654,46 11,46 C9.346,46 8,47.346 8,49 C8,50.654 9.346,52 11,52 L11,52 Z M11,48 C11.552,48 12,48.448 12,49 C12,49.552 11.552,50 11,50 C10.448,50 10,49.552 10,49 C10,48.448 10.448,48 11,48 L11,48 Z" id="Shape" fill="#000000"></path>
        <path d="M11,44 C12.654,44 14,42.654 14,41 C14,39.346 12.654,38 11,38 C9.346,38 8,39.346 8,41 C8,42.654 9.346,44 11,44 L11,44 Z M11,40 C11.552,40 12,40.448 12,41 C12,41.552 11.552,42 11,42 C10.448,42 10,41.552 10,41 C10,40.448 10.448,40 11,40 L11,40 Z" id="Shape" fill="#000000"></path>
        <path d="M11,36 C12.654,36 14,34.654 14,33 C14,31.346 12.654,30 11,30 C9.346,30 8,31.346 8,33 C8,34.654 9.346,36 11,36 L11,36 Z M11,32 C11.552,32 12,32.448 12,33 C12,33.552 11.552,34 11,34 C10.448,34 10,33.552 10,33 C10,32.448 10.448,32 11,32 L11,32 Z" id="Shape" fill="#000000"></path>
        <path d="M11,28 C12.654,28 14,26.654 14,25 C14,23.346 12.654,22 11,22 C9.346,22 8,23.346 8,25 C8,26.654 9.346,28 11,28 L11,28 Z M11,24 C11.552,24 12,24.448 12,25 C12,25.552 11.552,26 11,26 C10.448,26 10,25.552 10,25 C10,24.448 10.448,24 11,24 L11,24 Z" id="Shape" fill="#000000"></path>
        <path d="M11,20 C12.654,20 14,18.654 14,17 C14,15.346 12.654,14 11,14 C9.346,14 8,15.346 8,17 C8,18.654 9.346,20 11,20 L11,20 Z M11,16 C11.552,16 12,16.448 12,17 C12,17.552 11.552,18 11,18 C10.448,18 10,17.552 10,17 C10,16.448 10.448,16 11,16 L11,16 Z" id="Shape" fill="#000000"></path>
        <path d="M19,20 C20.654,20 22,18.654 22,17 C22,15.346 20.654,14 19,14 C17.346,14 16,15.346 16,17 C16,18.654 17.346,20 19,20 L19,20 Z M19,16 C19.552,16 20,16.448 20,17 C20,17.552 19.552,18 19,18 C18.448,18 18,17.552 18,17 C18,16.448 18.448,16 19,16 L19,16 Z" id="Shape" fill="#000000"></path>
        <path d="M27,20 C28.654,20 30,18.654 30,17 C30,15.346 28.654,14 27,14 C25.346,14 24,15.346 24,17 C24,18.654 25.346,20 27,20 L27,20 Z M27,16 C27.552,16 28,16.448 28,17 C28,17.552 27.552,18 27,18 C26.448,18 26,17.552 26,17 C26,16.448 26.448,16 27,16 L27,16 Z" id="Shape" fill="#000000"></path>
        <path d="M35,20 C36.654,20 38,18.654 38,17 C38,15.346 36.654,14 35,14 C33.346,14 32,15.346 32,17 C32,18.654 33.346,20 35,20 L35,20 Z M35,16 C35.552,16 36,16.448 36,17 C36,17.552 35.552,18 35,18 C34.448,18 34,17.552 34,17 C34,16.448 34.448,16 35,16 L35,16 Z" id="Shape" fill="#000000"></path>
        <path d="M43,20 C44.654,20 46,18.654 46,17 C46,15.346 44.654,14 43,14 C41.346,14 40,15.346 40,17 C40,18.654 41.346,20 43,20 L43,20 Z M43,16 C43.552,16 44,16.448 44,17 C44,17.552 43.552,18 43,18 C42.448,18 42,17.552 42,17 C42,16.448 42.448,16 43,16 L43,16 Z" id="Shape" fill="#000000"></path>
        <path d="M51,20 C52.654,20 54,18.654 54,17 C54,15.346 52.654,14 51,14 C49.346,14 48,15.346 48,17 C48,18.654 49.346,20 51,20 L51,20 Z M51,16 C51.552,16 52,16.448 52,17 C52,17.552 51.552,18 51,18 C50.448,18 50,17.552 50,17 C50,16.448 50.448,16 51,16 L51,16 Z" id="Shape" fill="#000000"></path>
        <path d="M51,28 C52.654,28 54,26.654 54,25 C54,23.346 52.654,22 51,22 C49.346,22 48,23.346 48,25 C48,26.654 49.346,28 51,28 L51,28 Z M51,24 C51.552,24 52,24.448 52,25 C52,25.552 51.552,26 51,26 C50.448,26 50,25.552 50,25 C50,24.448 50.448,24 51,24 L51,24 Z" id="Shape" fill="#000000"></path>
        <path d="M51,36 C52.654,36 54,34.654 54,33 C54,31.346 52.654,30 51,30 C49.346,30 48,31.346 48,33 C48,34.654 49.346,36 51,36 L51,36 Z M51,32 C51.552,32 52,32.448 52,33 C52,33.552 51.552,34 51,34 C50.448,34 50,33.552 50,33 C50,32.448 50.448,32 51,32 L51,32 Z" id="Shape" fill="#000000"></path>
        <path d="M51,44 C52.654,44 54,42.654 54,41 C54,39.346 52.654,38 51,38 C49.346,38 48,39.346 48,41 C48,42.654 49.346,44 51,44 L51,44 Z M51,40 C51.552,40 52,40.448 52,41 C52,41.552 51.552,42 51,42 C50.448,42 50,41.552 50,41 C50,40.448 50.448,40 51,40 L51,40 Z" id="Shape" fill="#000000"></path>
        <path d="M51,52 C52.654,52 54,50.654 54,49 C54,47.346 52.654,46 51,46 C49.346,46 48,47.346 48,49 C48,50.654 49.346,52 51,52 L51,52 Z M51,48 C51.552,48 52,48.448 52,49 C52,49.552 51.552,50 51,50 C50.448,50 50,49.552 50,49 C50,48.448 50.448,48 51,48 L51,48 Z" id="Shape" fill="#000000"></path>
        <path d="M21,32 C21.256,32 21.512,31.902 21.707,31.707 L25.707,27.707 C26.098,27.316 26.098,26.684 25.707,26.293 C25.316,25.902 24.684,25.902 24.293,26.293 L20.293,30.293 C19.902,30.684 19.902,31.316 20.293,31.707 C20.488,31.902 20.744,32 21,32 L21,32 Z" id="Shape" fill="#000000"></path>
        <path d="M37,52 C37.256,52 37.512,51.902 37.707,51.707 L41.707,47.707 C42.098,47.316 42.098,46.684 41.707,46.293 C41.316,45.902 40.684,45.902 40.293,46.293 L36.293,50.293 C35.902,50.684 35.902,51.316 36.293,51.707 C36.488,51.902 36.744,52 37,52 L37,52 Z" id="Shape" fill="#000000"></path>
        <path d="M21,38 C21.256,38 21.512,37.902 21.707,37.707 L31.707,27.707 C32.098,27.316 32.098,26.684 31.707,26.293 C31.316,25.902 30.684,25.902 30.293,26.293 L20.293,36.293 C19.902,36.684 19.902,37.316 20.293,37.707 C20.488,37.902 20.744,38 21,38 L21,38 Z" id="Shape" fill="#000000"></path>
    </g>
</svg>