<?xml version="1.0" encoding="UTF-8" standalone="no"?>
<svg width="64px" height="64px" viewBox="0 0 64 64" version="1.1" xmlns="http://www.w3.org/2000/svg" xmlns:xlink="http://www.w3.org/1999/xlink">
    <!-- Generator: Sketch 3.7.2 (28276) - http://www.bohemiancoding.com/sketch -->
    <title>vid-cover</title>
    <desc>Created with Sketch.</desc>
    <defs></defs>
    <g id="64px-Line" stroke="none" stroke-width="1" fill="none" fill-rule="evenodd">
        <g id="vid-cover"></g>
        <path d="M5,54 C5.552,54 6,53.552 6,53 L6,11 C6,10.448 5.552,10 5,10 C4.448,10 4,10.448 4,11 L4,53 C4,53.552 4.448,54 5,54 L5,54 Z" id="Shape" fill="#000000"></path>
        <path d="M10.528,49.882 C10.676,49.961 10.838,50 11,50 C11.194,50 11.387,49.943 11.555,49.832 L17.555,45.832 C18.014,45.526 18.138,44.905 17.832,44.445 C17.525,43.985 16.904,43.861 16.445,44.168 L12,47.131 L12,16.869 L16.445,19.832 C16.904,20.138 17.525,20.014 17.832,19.555 C18.138,19.096 18.014,18.474 17.555,18.168 L11.555,14.168 C11.247,13.962 10.853,13.944 10.529,14.118 C10.203,14.292 10,14.631 10,15 L10,49 C10,49.369 10.203,49.708 10.528,49.882 L10.528,49.882 Z" id="Shape" fill="#000000"></path>
        <path d="M47.555,44.168 C47.094,43.861 46.474,43.985 46.168,44.445 C45.862,44.904 45.986,45.526 46.445,45.832 L52.445,49.832 C52.613,49.944 52.806,50 53,50 C53.162,50 53.324,49.961 53.472,49.882 C53.797,49.708 54,49.369 54,49 L54,15 C54,14.631 53.797,14.292 53.472,14.118 C53.147,13.944 52.753,13.963 52.446,14.168 L46.446,18.168 C45.987,18.474 45.863,19.095 46.169,19.555 C46.475,20.014 47.095,20.138 47.556,19.832 L52,16.869 L52,47.132 L47.555,44.168 L47.555,44.168 Z" id="Shape" fill="#000000"></path>
        <path d="M59,54 C59.552,54 60,53.552 60,53 L60,11 C60,10.448 59.552,10 59,10 C58.448,10 58,10.448 58,11 L58,53 C58,53.552 58.448,54 59,54 L59,54 Z" id="Shape" fill="#000000"></path>
        <path d="M21,44 L43,44 C43.552,44 44,43.552 44,43 L44,21 C44,20.448 43.552,20 43,20 L21,20 C20.448,20 20,20.448 20,21 L20,43 C20,43.552 20.448,44 21,44 L21,44 Z M22,22 L42,22 L42,42 L22,42 L22,22 L22,22 Z" id="Shape" fill="#000000"></path>
        <path d="M37.332,30.767 L30.36,26.267 C29.894,25.947 29.294,25.913 28.795,26.176 C28.304,26.434 28,26.935 28,27.485 L28,36.517 C28,37.066 28.305,37.568 28.795,37.826 C29.021,37.945 29.267,38.003 29.509,38.003 C29.804,38.003 30.093,37.918 30.336,37.751 L37.356,33.219 C37.759,32.94 38,32.485 38,32 C38,31.515 37.759,31.06 37.332,30.767 L37.332,30.767 Z M30,35.586 L30,28.414 L35.555,32 L30,35.586 L30,35.586 Z" id="Shape" fill="#000000"></path>
    </g>
</svg>