<?xml version="1.0" encoding="UTF-8" standalone="no"?>
<svg width="64px" height="64px" viewBox="0 0 64 64" version="1.1" xmlns="http://www.w3.org/2000/svg" xmlns:xlink="http://www.w3.org/1999/xlink">
    <!-- Generator: Sketch 3.7.2 (28276) - http://www.bohemiancoding.com/sketch -->
    <title>vid-remote-2</title>
    <desc>Created with Sketch.</desc>
    <defs></defs>
    <g id="64px-Line" stroke="none" stroke-width="1" fill="none" fill-rule="evenodd">
        <g id="vid-remote-2"></g>
        <path d="M54.338,12.375 C49.81,7.837 43.558,5.143 41.078,4.194 C40.288,3.894 39.406,3.945 38.659,4.341 C38.39,4.485 38.056,4.639 37.664,4.821 C35.633,5.764 32.232,7.344 28.292,11.293 C24.596,14.996 23.59,17.86 22.781,20.162 C22.238,21.709 21.808,22.931 20.683,24.058 C19.358,25.386 18.419,26.065 17.333,26.851 C15.963,27.843 14.41,28.968 11.766,31.619 C7.723,35.67 4.995,41.392 4.254,43.05 C4.006,43.607 3.937,44.216 4.056,44.814 C4.446,46.78 5.711,51.709 9.022,55.025 C11.941,57.951 14.75,59.282 16.165,59.816 C16.493,59.939 16.836,60.001 17.178,60.001 C17.591,60.001 18.004,59.911 18.394,59.733 C20.508,58.762 25.969,55.959 31.017,50.901 C34.654,47.258 35.564,45.86 36.296,44.737 C36.819,43.933 37.233,43.299 38.562,41.966 C39.874,40.652 41.072,40.145 42.589,39.503 C44.553,38.672 46.997,37.638 50.223,34.405 C54.692,29.927 58.227,24.619 59.539,22.545 C60.018,21.79 60.13,20.881 59.849,20.051 C59.343,18.562 57.976,16.02 54.338,12.375 L54.338,12.375 Z M57.85,21.476 C56.573,23.495 53.135,28.658 48.807,32.995 C45.858,35.95 43.707,36.86 41.81,37.663 C40.228,38.332 38.734,38.964 37.146,40.556 C35.67,42.035 35.161,42.818 34.621,43.647 C33.904,44.747 33.092,45.994 29.601,49.491 C24.783,54.318 19.575,56.992 17.561,57.917 C17.337,58.02 17.092,58.029 16.87,57.946 C15.607,57.469 13.093,56.274 10.439,53.615 C7.432,50.602 6.295,45.821 6.018,44.427 C5.981,44.235 6.001,44.047 6.081,43.867 C6.786,42.289 9.381,36.842 13.183,33.033 C15.714,30.496 17.199,29.422 18.508,28.473 C19.614,27.671 20.66,26.914 22.1,25.472 C23.546,24.024 24.091,22.471 24.668,20.826 C25.448,18.605 26.332,16.088 29.708,12.706 C33.397,9.01 36.596,7.523 38.507,6.636 C38.938,6.436 39.305,6.265 39.6,6.108 C39.735,6.037 39.88,6.001 40.029,6.001 C40.141,6.001 40.256,6.022 40.366,6.063 C42.723,6.965 48.667,9.524 52.923,13.788 C56.467,17.339 57.598,19.64 57.955,20.695 C58.041,20.949 58.003,21.234 57.85,21.476 L57.85,21.476 Z" id="Shape" fill="#000000"></path>
        <circle id="Oval" fill="#000000" cx="24" cy="31" r="2"></circle>
        <circle id="Oval" fill="#000000" cx="28" cy="35" r="2"></circle>
        <path d="M42,23 C42,21.346 40.654,20 39,20 C37.346,20 36,21.346 36,23 C36,24.654 37.346,26 39,26 C40.654,26 42,24.654 42,23 L42,23 Z M39,24 C38.448,24 38,23.552 38,23 C38,22.448 38.448,22 39,22 C39.552,22 40,22.448 40,23 C40,23.552 39.552,24 39,24 L39,24 Z" id="Shape" fill="#000000"></path>
        <circle id="Oval" fill="#000000" cx="32" cy="39" r="2"></circle>
        <circle id="Oval" fill="#000000" cx="20" cy="35" r="2"></circle>
        <circle id="Oval" fill="#000000" cx="24" cy="39" r="2"></circle>
        <circle id="Oval" fill="#000000" cx="28" cy="43" r="2"></circle>
        <circle id="Oval" fill="#000000" cx="16" cy="39" r="2"></circle>
        <circle id="Oval" fill="#000000" cx="20" cy="43" r="2"></circle>
        <circle id="Oval" fill="#000000" cx="16" cy="47" r="2"></circle>
        <circle id="Oval" fill="#000000" cx="24" cy="47" r="2"></circle>
        <path d="M32.02,21.196 C32.092,21.557 32.358,21.85 32.71,21.957 C32.806,21.986 32.903,22 33,22 C33.262,22 33.517,21.897 33.707,21.707 L37.707,17.707 C37.968,17.446 38.063,17.063 37.957,16.71 C37.851,16.357 37.558,16.092 37.196,16.02 L32.196,15.02 C31.867,14.957 31.529,15.056 31.293,15.293 C31.057,15.529 30.954,15.868 31.02,16.196 L32.02,21.196 L32.02,21.196 Z M34.972,17.614 L33.615,18.971 L33.275,17.274 L34.972,17.614 L34.972,17.614 Z" id="Shape" fill="#000000"></path>
        <path d="M45.98,24.804 C45.908,24.443 45.642,24.15 45.29,24.043 C44.935,23.936 44.554,24.032 44.293,24.293 L40.293,28.293 C40.032,28.554 39.937,28.937 40.043,29.29 C40.149,29.643 40.442,29.908 40.804,29.98 L45.804,30.98 C45.869,30.993 45.935,31 46,31 C46.263,31 46.518,30.896 46.707,30.707 C46.943,30.471 47.046,30.132 46.98,29.804 L45.98,24.804 L45.98,24.804 Z M43.028,28.386 L44.385,27.029 L44.725,28.726 L43.028,28.386 L43.028,28.386 Z" id="Shape" fill="#000000"></path>
        <path d="M45.804,15.02 L40.804,16.02 C40.443,16.092 40.15,16.358 40.043,16.71 C39.937,17.064 40.032,17.446 40.293,17.707 L44.293,21.707 C44.483,21.897 44.738,22 45,22 C45.097,22 45.194,21.986 45.29,21.957 C45.643,21.851 45.908,21.558 45.98,21.196 L46.98,16.196 C47.045,15.868 46.943,15.529 46.707,15.293 C46.471,15.057 46.132,14.957 45.804,15.02 L45.804,15.02 Z M44.386,18.972 L43.029,17.615 L44.726,17.275 L44.386,18.972 L44.386,18.972 Z" id="Shape" fill="#000000"></path>
        <path d="M33.707,24.293 C33.446,24.032 33.065,23.936 32.71,24.043 C32.357,24.149 32.092,24.442 32.02,24.804 L31.02,29.804 C30.955,30.132 31.057,30.471 31.293,30.707 C31.482,30.896 31.737,31 32,31 C32.065,31 32.131,30.993 32.196,30.98 L37.196,29.98 C37.557,29.908 37.85,29.642 37.957,29.29 C38.063,28.936 37.968,28.554 37.707,28.293 L33.707,24.293 L33.707,24.293 Z M33.274,28.726 L33.614,27.029 L34.971,28.386 L33.274,28.726 L33.274,28.726 Z" id="Shape" fill="#000000"></path>
    </g>
</svg>