<?xml version="1.0" encoding="UTF-8" standalone="no"?>
<svg width="64px" height="64px" viewBox="0 0 64 64" version="1.1" xmlns="http://www.w3.org/2000/svg" xmlns:xlink="http://www.w3.org/1999/xlink">
    <!-- Generator: Sketch 3.7.2 (28276) - http://www.bohemiancoding.com/sketch -->
    <title>vid-movie-tick</title>
    <desc>Created with Sketch.</desc>
    <defs></defs>
    <g id="64px-Line" stroke="none" stroke-width="1" fill="none" fill-rule="evenodd">
        <g id="vid-movie-tick"></g>
        <path d="M45,32 C37.832,32 32,37.832 32,45 C32,52.168 37.832,58 45,58 C52.168,58 58,52.168 58,45 C58,37.832 52.168,32 45,32 L45,32 Z M45,56 C38.935,56 34,51.065 34,45 C34,38.935 38.935,34 45,34 C51.065,34 56,38.935 56,45 C56,51.065 51.065,56 45,56 L45,56 Z" id="Shape" fill="#000000"></path>
        <path d="M51.293,40.293 L43,48.586 L39.707,45.293 C39.316,44.902 38.684,44.902 38.293,45.293 C37.902,45.684 37.902,46.316 38.293,46.707 L42.293,50.707 C42.488,50.902 42.744,51 43,51 C43.256,51 43.512,50.902 43.707,50.707 L52.707,41.707 C53.098,41.316 53.098,40.684 52.707,40.293 C52.316,39.902 51.684,39.902 51.293,40.293 L51.293,40.293 Z" id="Shape" fill="#000000"></path>
        <path d="M5,44 L29,44 C29.553,44 30,43.552 30,43 L30,38 L31,38 C31.553,38 32,37.552 32,37 C32,36.448 31.553,36 31,36 L30,36 L30,16 L46,16 L46,29.134 C46,29.686 46.447,30.134 47,30.134 C47.553,30.134 48,29.686 48,29.134 L48,16 L53,16 C53.553,16 54,15.552 54,15 L54,9 C54,8.448 53.553,8 53,8 L5,8 C4.447,8 4,8.448 4,9 L4,15 C4,15.552 4.447,16 5,16 L10,16 L10,36 L5,36 C4.447,36 4,36.448 4,37 L4,43 C4,43.552 4.447,44 5,44 L5,44 Z M22,38 L22,42 L18,42 L18,38 L22,38 L22,38 Z M16,42 L12,42 L12,38 L16,38 L16,42 L16,42 Z M28,42 L24,42 L24,38 L28,38 L28,42 L28,42 Z M18,14 L18,10 L22,10 L22,14 L18,14 L18,14 Z M12,14 L12,10 L16,10 L16,14 L12,14 L12,14 Z M24,10 L28,10 L28,14 L24,14 L24,10 L24,10 Z M30,10 L34,10 L34,14 L30,14 L30,10 L30,10 Z M36,10 L40,10 L40,14 L36,14 L36,10 L36,10 Z M42,14 L42,10 L46,10 L46,14 L42,14 L42,14 Z M52,14 L48,14 L48,10 L52,10 L52,14 L52,14 Z M6,14 L6,10 L10,10 L10,14 L6,14 L6,14 Z M12,16 L28,16 L28,36 L12,36 L12,16 L12,16 Z M6,38 L10,38 L10,42 L6,42 L6,38 L6,38 Z" id="Shape" fill="#000000"></path>
    </g>
</svg>