<?xml version="1.0" encoding="UTF-8" standalone="no"?>
<svg width="64px" height="64px" viewBox="0 0 64 64" version="1.1" xmlns="http://www.w3.org/2000/svg" xmlns:xlink="http://www.w3.org/1999/xlink">
    <!-- Generator: Sketch 3.7.2 (28276) - http://www.bohemiancoding.com/sketch -->
    <title>vid-clapper</title>
    <desc>Created with Sketch.</desc>
    <defs></defs>
    <g id="64px-Line" stroke="none" stroke-width="1" fill="none" fill-rule="evenodd">
        <g id="vid-clapper"></g>
        <path d="M12.036,28.822 C12.025,28.882 12,28.937 12,29 L12,37 L12,59 C12,59.552 12.448,60 13,60 L53,60 C53.552,60 54,59.552 54,59 L54,37 L54,29 C54,28.448 53.552,28 53,28 L17.889,28 L50.408,13.48 C50.905,13.258 51.133,12.679 50.922,12.178 L47.725,4.611 C47.62,4.363 47.42,4.169 47.17,4.07 C46.92,3.97 46.64,3.976 46.396,4.087 L35.373,9.009 L35.373,9.009 L9.593,20.52 C9.096,20.742 8.868,21.321 9.079,21.822 L12.036,28.822 L12.036,28.822 Z M14,58 L14,38 L52,38 L52,58 L14,58 L14,58 Z M34.586,30 L28.586,36 L19.414,36 L25.414,30 L34.586,30 L34.586,30 Z M46.586,30 L40.586,36 L31.414,36 L37.414,30 L46.586,30 L46.586,30 Z M16.586,36 L14,36 L14,30 L22.586,30 L16.586,36 L16.586,36 Z M52,36 L43.414,36 L49.414,30 L52,30 L52,36 L52,36 Z M24.74,15.947 L32.726,19.185 L24.218,22.984 L16.232,19.746 L24.74,15.947 L24.74,15.947 Z M35.782,11.017 L43.768,14.255 L35.26,18.054 L27.274,14.816 L35.782,11.017 L35.782,11.017 Z M48.697,12.053 L46.301,13.123 L38.315,9.886 L46.28,6.329 L48.697,12.053 L48.697,12.053 Z M13.699,20.877 L21.685,24.114 L13.72,27.671 L11.302,21.947 L13.699,20.877 L13.699,20.877 Z" id="Shape" fill="#000000"></path>
    </g>
</svg>