<?xml version="1.0" encoding="UTF-8" standalone="no"?>
<svg width="64px" height="64px" viewBox="0 0 64 64" version="1.1" xmlns="http://www.w3.org/2000/svg" xmlns:xlink="http://www.w3.org/1999/xlink">
    <!-- Generator: Sketch 3.7.2 (28276) - http://www.bohemiancoding.com/sketch -->
    <title>vid-dvd-case</title>
    <desc>Created with Sketch.</desc>
    <defs></defs>
    <g id="64px-Line" stroke="none" stroke-width="1" fill="none" fill-rule="evenodd">
        <g id="vid-dvd-case"></g>
        <path d="M11,60 L47,60 C47.13,60 47.26,59.974 47.382,59.923 C47.505,59.872 47.615,59.799 47.708,59.706 L51.706,55.707 C51.799,55.615 51.872,55.504 51.923,55.381 C51.974,55.26 52,55.13 52,55 L52,7 C52,6.87 51.974,6.74 51.923,6.618 C51.822,6.373 51.627,6.179 51.382,6.077 C51.26,6.026 51.13,6 51,6 L15,6 C14.87,6 14.74,6.026 14.618,6.077 C14.495,6.128 14.385,6.201 14.292,6.294 L10.294,10.293 C10.201,10.385 10.128,10.496 10.077,10.619 C10.027,10.74 10,10.87 10,11 L10,59 C10,59.552 10.447,60 11,60 L11,60 Z M15.414,8 L48.586,8 L46.586,10 L13.414,10 L15.414,8 L15.414,8 Z M50,54.586 L48,56.586 L48,11.414 L50,9.414 L50,54.586 L50,54.586 Z M12,12 L46,12 L46,58 L12,58 L12,12 L12,12 Z" id="Shape" fill="#000000"></path>
        <path d="M26.543,28.274 C26.032,27.936 25.379,27.908 24.837,28.199 C24.32,28.478 24,29.007 24,29.581 L24,40.42 C24,40.994 24.32,41.523 24.837,41.801 C25.088,41.936 25.364,42.003 25.636,42.003 C25.949,42.003 26.258,41.915 26.519,41.742 L35.288,36.307 C35.733,36.013 36,35.524 36,35 C36,34.476 35.733,33.987 35.264,33.678 L26.543,28.274 L26.543,28.274 Z M26,39.71 L26,30.29 L33.601,35 L26,39.71 L26,39.71 Z" id="Shape" fill="#000000"></path>
        <path d="M29,24 C22.935,24 18,28.935 18,35 C18,41.065 22.935,46 29,46 C35.065,46 40,41.065 40,35 C40,28.935 35.065,24 29,24 L29,24 Z M29,44 C24.037,44 20,39.962 20,35 C20,30.038 24.037,26 29,26 C33.963,26 38,30.038 38,35 C38,39.962 33.963,44 29,44 L29,44 Z" id="Shape" fill="#000000"></path>
    </g>
</svg>