<?xml version="1.0" encoding="UTF-8" standalone="no"?>
<svg width="64px" height="64px" viewBox="0 0 64 64" version="1.1" xmlns="http://www.w3.org/2000/svg" xmlns:xlink="http://www.w3.org/1999/xlink">
    <!-- Generator: Sketch 3.7.2 (28276) - http://www.bohemiancoding.com/sketch -->
    <title>vid-tv-size</title>
    <desc>Created with Sketch.</desc>
    <defs></defs>
    <g id="64px-Line" stroke="none" stroke-width="1" fill="none" fill-rule="evenodd">
        <g id="vid-tv-size"></g>
        <path d="M54,10 L8,10 C5.794,10 4,11.794 4,14 L4,44 C4,46.206 5.794,48 8,48 L30,48 L30,50.133 L16.858,52.01 C16.311,52.088 15.931,52.594 16.009,53.141 C16.087,53.687 16.59,54.068 17.141,53.989 L31,52.01 L44.858,53.989 C44.906,53.996 44.954,53.999 45.001,53.999 C45.491,53.999 45.919,53.639 45.99,53.141 C46.068,52.594 45.688,52.088 45.141,52.01 L32,50.133 L32,48 L54,48 C56.206,48 58,46.206 58,44 L58,14 C58,11.794 56.206,10 54,10 L54,10 Z M56,44 C56,45.103 55.103,46 54,46 L8,46 C6.897,46 6,45.103 6,44 L6,14 C6,12.897 6.897,12 8,12 L54,12 C55.103,12 56,12.897 56,14 L56,44 L56,44 Z" id="Shape" fill="#000000"></path>
        <path d="M51.989,16.877 C51.972,16.742 51.931,16.609 51.857,16.485 C51.783,16.361 51.684,16.262 51.573,16.184 C51.541,16.161 51.502,16.153 51.467,16.134 C51.381,16.088 51.294,16.046 51.199,16.027 C51.186,16.024 51.177,16.015 51.164,16.013 L45.164,15.013 C44.621,14.922 44.103,15.29 44.014,15.835 C43.923,16.38 44.291,16.895 44.836,16.986 L48.157,17.54 L12.803,38.752 L13.948,35.316 C14.123,34.792 13.84,34.226 13.316,34.051 C12.788,33.874 12.226,34.16 12.051,34.683 L10.051,40.683 C10.047,40.694 10.051,40.706 10.047,40.718 C10.018,40.814 10.014,40.913 10.015,41.015 C10.016,41.051 10.005,41.086 10.009,41.122 C10.026,41.257 10.067,41.39 10.141,41.514 C10.211,41.63 10.305,41.72 10.407,41.796 C10.426,41.811 10.443,41.825 10.463,41.838 C10.569,41.905 10.685,41.951 10.807,41.975 C10.817,41.977 10.824,41.984 10.834,41.986 L16.834,42.986 C16.89,42.995 16.944,43 16.999,43 C17.479,43 17.903,42.653 17.984,42.165 C18.075,41.62 17.707,41.105 17.162,41.014 L13.841,40.46 L49.195,19.248 L48.05,22.684 C47.875,23.208 48.158,23.774 48.682,23.949 C48.787,23.984 48.894,24.001 48.998,24.001 C49.417,24.001 49.807,23.736 49.946,23.317 L51.946,17.317 C51.95,17.306 51.946,17.294 51.95,17.282 C51.979,17.186 51.983,17.087 51.982,16.985 C51.983,16.948 51.994,16.913 51.989,16.877 L51.989,16.877 Z" id="Shape" fill="#000000"></path>
    </g>
</svg>