<?xml version="1.0" encoding="UTF-8" standalone="no"?>
<svg width="64px" height="64px" viewBox="0 0 64 64" version="1.1" xmlns="http://www.w3.org/2000/svg" xmlns:xlink="http://www.w3.org/1999/xlink">
    <!-- Generator: Sketch 3.7.2 (28276) - http://www.bohemiancoding.com/sketch -->
    <title>vid-pause</title>
    <desc>Created with Sketch.</desc>
    <defs></defs>
    <g id="64px-Line" stroke="none" stroke-width="1" fill="none" fill-rule="evenodd">
        <g id="vid-pause"></g>
        <path d="M27.2,20 L24.8,20 C23.256,20 22,21.153 22,22.57 L22,43.427 C22,44.845 23.256,45.999 24.8,45.999 L27.2,45.999 C28.744,45.999 30,44.845 30,43.427 L30,22.57 C30,21.153 28.744,20 27.2,20 L27.2,20 Z M28,43.428 C28,43.733 27.626,44 27.2,44 L24.8,44 C24.374,44 24,43.732 24,43.428 L24,22.57 C24,22.266 24.374,22 24.8,22 L27.2,22 C27.626,22 28,22.267 28,22.57 L28,43.428 L28,43.428 Z" id="Shape" fill="#000000"></path>
        <path d="M37.2,20 L34.8,20 C33.256,20 32,21.153 32,22.57 L32,43.427 C32,44.845 33.256,45.999 34.8,45.999 L37.2,45.999 C38.744,45.999 40,44.845 40,43.427 L40,22.57 C40,21.153 38.744,20 37.2,20 L37.2,20 Z M38,43.428 C38,43.733 37.626,44 37.2,44 L34.8,44 C34.374,44 34,43.732 34,43.428 L34,22.57 C34,22.266 34.374,22 34.8,22 L37.2,22 C37.626,22 38,22.267 38,22.57 L38,43.428 L38,43.428 Z" id="Shape" fill="#000000"></path>
        <path d="M31,6 C16.112,6 4,18.112 4,33 C4,47.888 16.112,60 31,60 C45.888,60 58,47.888 58,33 C58,18.112 45.888,6 31,6 L31,6 Z M31,58 C17.215,58 6,46.785 6,33 C6,19.215 17.215,8 31,8 C44.785,8 56,19.215 56,33 C56,46.785 44.785,58 31,58 L31,58 Z" id="Shape" fill="#000000"></path>
    </g>
</svg>