<?xml version="1.0" encoding="UTF-8" standalone="no"?>
<svg width="64px" height="64px" viewBox="0 0 64 64" version="1.1" xmlns="http://www.w3.org/2000/svg" xmlns:xlink="http://www.w3.org/1999/xlink">
    <!-- Generator: Sketch 3.7.2 (28276) - http://www.bohemiancoding.com/sketch -->
    <title>vid-reel</title>
    <desc>Created with Sketch.</desc>
    <defs></defs>
    <g id="64px-Line" stroke="none" stroke-width="1" fill="none" fill-rule="evenodd">
        <g id="vid-reel"></g>
        <path d="M31,60 C45.888,60 58,47.888 58,33 C58,18.112 45.888,6 31,6 C16.112,6 4,18.112 4,33 C4,47.888 16.112,60 31,60 L31,60 Z M31,8 C44.785,8 56,19.215 56,33 C56,46.785 44.785,58 31,58 C17.215,58 6,46.785 6,33 C6,19.215 17.215,8 31,8 L31,8 Z" id="Shape" fill="#000000"></path>
        <path d="M36,33 C36,30.243 33.757,28 31,28 C28.243,28 26,30.243 26,33 C26,35.757 28.243,38 31,38 C33.757,38 36,35.757 36,33 L36,33 Z M31,36 C29.346,36 28,34.654 28,33 C28,31.346 29.346,30 31,30 C32.654,30 34,31.346 34,33 C34,34.654 32.654,36 31,36 L31,36 Z" id="Shape" fill="#000000"></path>
        <path d="M31,24 C34.859,24 38,20.86 38,17 C38,13.14 34.859,10 31,10 C27.141,10 24,13.14 24,17 C24,20.86 27.141,24 31,24 L31,24 Z M31,12 C33.757,12 36,14.243 36,17 C36,19.757 33.757,22 31,22 C28.243,22 26,19.757 26,17 C26,14.243 28.243,12 31,12 L31,12 Z" id="Shape" fill="#000000"></path>
        <path d="M15.79,35.06 C16.88,35.06 17.962,34.802 18.961,34.293 C20.627,33.444 21.863,31.997 22.44,30.219 C23.018,28.441 22.869,26.544 22.02,24.878 C21.171,23.212 19.724,21.977 17.946,21.399 C16.166,20.821 14.27,20.97 12.604,21.819 C10.939,22.668 9.703,24.115 9.125,25.893 C8.547,27.671 8.696,29.568 9.545,31.234 C10.394,32.9 11.841,34.135 13.619,34.713 C14.332,34.945 15.062,35.06 15.79,35.06 L15.79,35.06 Z M11.328,30.326 C10.722,29.136 10.615,27.781 11.028,26.511 C11.44,25.24 12.323,24.207 13.512,23.601 C14.226,23.238 14.998,23.054 15.777,23.054 C16.297,23.054 16.819,23.136 17.327,23.302 L17.328,23.302 C18.599,23.715 19.632,24.597 20.238,25.787 C20.844,26.977 20.951,28.332 20.538,29.602 C20.126,30.872 19.243,31.905 18.053,32.512 C16.863,33.119 15.509,33.226 14.238,32.812 C12.968,32.398 11.935,31.516 11.328,30.326 L11.328,30.326 Z" id="Shape" fill="#000000"></path>
        <path d="M25.71,40.281 C22.587,38.012 18.202,38.708 15.933,41.829 C15.933,41.829 15.933,41.829 15.932,41.829 C13.664,44.952 14.359,49.338 17.481,51.606 C18.721,52.507 20.161,52.94 21.586,52.94 C23.753,52.94 25.891,51.94 27.258,50.057 C28.358,48.544 28.802,46.694 28.509,44.847 C28.217,43.002 27.223,41.38 25.71,40.281 L25.71,40.281 Z M25.641,48.883 C24.019,51.112 20.888,51.61 18.657,49.989 C16.427,48.369 15.93,45.236 17.552,43.005 C19.171,40.776 22.306,40.277 24.535,41.9 C25.615,42.685 26.326,43.844 26.535,45.163 C26.743,46.481 26.426,47.803 25.641,48.883 L25.641,48.883 Z" id="Shape" fill="#000000"></path>
        <path d="M43.039,34.293 C44.038,34.802 45.12,35.06 46.21,35.06 C46.938,35.06 47.668,34.945 48.38,34.714 C50.158,34.136 51.606,32.901 52.454,31.235 C53.303,29.568 53.452,27.672 52.874,25.894 C52.297,24.116 51.061,22.669 49.395,21.82 C47.729,20.97 45.832,20.82 44.054,21.4 C42.276,21.978 40.828,23.213 39.98,24.879 C39.132,26.545 38.982,28.441 39.56,30.219 C40.137,31.997 41.373,33.444 43.039,34.293 L43.039,34.293 Z M41.762,25.786 C42.368,24.596 43.402,23.714 44.671,23.301 C45.18,23.135 45.702,23.053 46.223,23.053 C47.001,23.053 47.774,23.237 48.488,23.6 C49.677,24.206 50.56,25.24 50.972,26.51 C51.385,27.78 51.279,29.135 50.672,30.325 C50.065,31.515 49.032,32.398 47.763,32.81 C46.493,33.224 45.137,33.117 43.948,32.51 C42.758,31.904 41.875,30.87 41.463,29.6 C41.049,28.331 41.155,26.976 41.762,25.786 L41.762,25.786 Z" id="Shape" fill="#000000"></path>
        <path d="M46.067,41.83 C43.798,38.707 39.411,38.015 36.29,40.282 C34.777,41.381 33.783,43.003 33.491,44.85 C33.198,46.697 33.642,48.547 34.742,50.06 C36.109,51.943 38.247,52.943 40.414,52.943 C41.84,52.943 43.279,52.509 44.519,51.609 C47.642,49.339 48.336,44.953 46.067,41.83 L46.067,41.83 L46.067,41.83 Z M43.344,49.989 C41.114,51.609 37.981,51.114 36.36,48.883 C35.575,47.802 35.257,46.481 35.466,45.162 C35.675,43.843 36.386,42.684 37.466,41.899 C38.352,41.255 39.379,40.946 40.398,40.946 C41.946,40.946 43.473,41.66 44.45,43.005 C46.07,45.236 45.574,48.369 43.344,49.989 L43.344,49.989 Z" id="Shape" fill="#000000"></path>
    </g>
</svg>