<?xml version="1.0" encoding="UTF-8" standalone="no"?>
<svg width="64px" height="64px" viewBox="0 0 64 64" version="1.1" xmlns="http://www.w3.org/2000/svg" xmlns:xlink="http://www.w3.org/1999/xlink">
    <!-- Generator: Sketch 3.7.2 (28276) - http://www.bohemiancoding.com/sketch -->
    <title>vid-camera-movie</title>
    <desc>Created with Sketch.</desc>
    <defs></defs>
    <g id="64px-Line" stroke="none" stroke-width="1" fill="none" fill-rule="evenodd">
        <g id="vid-camera-movie"></g>
        <path d="M56,18 L48,18 C47.29,18 46.639,17.626 46.278,17.019 C46.262,16.983 46.246,16.949 46.227,16.915 L43.552,12.16 C42.86,10.827 41.499,10 40,10 L24,10 C22.5,10 21.14,10.827 20.465,12.13 L17.774,16.914 C17.754,16.947 17.738,16.982 17.723,17.018 C17.361,17.626 16.71,18 16,18 L8,18 C5.794,18 4,19.794 4,22 L4,50 C4,52.206 5.794,54 8,54 L56,54 C58.206,54 60,52.206 60,50 L60,22 C60,19.794 58.206,18 56,18 L56,18 Z M58,50 C58,51.103 57.103,52 56,52 L8,52 C6.897,52 6,51.103 6,50 L6,22 C6,20.897 6.897,20 8,20 L16,20 C17.482,20 18.836,19.186 19.534,17.875 C19.548,17.849 19.561,17.821 19.572,17.794 L22.222,13.081 C22.569,12.414 23.25,12 24,12 L40,12 C40.75,12 41.431,12.414 41.793,13.11 L44.427,17.794 C44.439,17.821 44.452,17.849 44.466,17.875 C45.164,19.186 46.518,20 48,20 L56,20 C57.103,20 58,20.897 58,22 L58,50 L58,50 Z" id="Shape" fill="#000000"></path>
        <path d="M9,14 C8.447,14 8,14.447 8,15 C8,15.553 8.447,16 9,16 L15,16 C15.553,16 16,15.553 16,15 C16,14.447 15.553,14 15,14 L9,14 L9,14 Z" id="Shape" fill="#000000"></path>
        <path d="M43,24 L11,24 C10.447,24 10,24.447 10,25 L10,47 C10,47.553 10.447,48 11,48 L43,48 C43.553,48 44,47.553 44,47 L44,25 C44,24.447 43.553,24 43,24 L43,24 Z M42,46 L12,46 L12,26 L42,26 L42,46 L42,46 Z" id="Shape" fill="#000000"></path>
        <path d="M22.796,41.825 C23.022,41.943 23.268,42.002 23.51,42.002 C23.805,42.002 24.095,41.916 24.336,41.749 L31.356,37.217 C31.76,36.94 32,36.485 32,36 C32,35.515 31.76,35.06 31.332,34.768 L24.361,30.267 C23.896,29.949 23.296,29.912 22.796,30.175 C22.305,30.433 22,30.935 22,31.484 L22,40.517 C22,41.065 22.305,41.567 22.796,41.825 L22.796,41.825 Z M24,32.414 L29.555,36 L24,39.586 L24,32.414 L24,32.414 Z" id="Shape" fill="#000000"></path>
    </g>
</svg>