<?xml version="1.0" encoding="UTF-8" standalone="no"?>
<svg width="64px" height="64px" viewBox="0 0 64 64" version="1.1" xmlns="http://www.w3.org/2000/svg" xmlns:xlink="http://www.w3.org/1999/xlink">
    <!-- Generator: Sketch 3.7.2 (28276) - http://www.bohemiancoding.com/sketch -->
    <title>vid-countdown-2</title>
    <desc>Created with Sketch.</desc>
    <defs></defs>
    <g id="64px-Line" stroke="none" stroke-width="1" fill="none" fill-rule="evenodd">
        <g id="vid-countdown-2"></g>
        <path d="M5,34 L6,34 L6,55 C6,56.654 7.346,58 9,58 L30,58 L30,59 C30,59.552 30.447,60 31,60 C31.553,60 32,59.552 32,59 L32,58 L53,58 C54.654,58 56,56.654 56,55 L56,34 L57,34 C57.553,34 58,33.552 58,33 C58,32.448 57.553,32 57,32 L56,32 L56,11 C56,9.346 54.654,8 53,8 L32,8 L32,7 C32,6.448 31.553,6 31,6 C30.447,6 30,6.448 30,7 L30,8 L9,8 C7.346,8 6,9.346 6,11 L6,32 L5,32 C4.447,32 4,32.448 4,33 C4,33.552 4.447,34 5,34 L5,34 Z M9,56 C8.448,56 8,55.551 8,55 L8,34 L10.051,34 C10.562,44.78 19.221,53.438 30,53.949 L30,56 L9,56 L9,56 Z M19,32 L18.051,32 C18.539,25.63 23.63,20.539 30,20.051 L30,21 C30,21.552 30.447,22 31,22 C31.553,22 32,21.552 32,21 L32,20.051 C38.37,20.539 43.461,25.63 43.949,32 L43,32 C42.447,32 42,32.448 42,33 C42,33.552 42.447,34 43,34 L43.949,34 C43.461,40.37 38.37,45.461 32,45.949 L32,45 C32,44.448 31.553,44 31,44 C30.447,44 30,44.448 30,45 L30,45.949 C23.63,45.461 18.539,40.37 18.051,34 L19,34 C19.553,34 20,33.552 20,33 C20,32.448 19.553,32 19,32 L19,32 Z M32,47.949 C39.473,47.453 45.453,41.472 45.949,34 L49.949,34 C49.442,43.677 41.677,51.442 32,51.949 L32,47.949 L32,47.949 Z M45.949,32 C45.453,24.527 39.472,18.547 32,18.051 L32,14.051 C41.677,14.558 49.442,22.323 49.949,32 L45.949,32 L45.949,32 Z M30,18.051 C22.527,18.547 16.547,24.528 16.051,32 L12.051,32 C12.558,22.323 20.323,14.558 30,14.051 L30,18.051 L30,18.051 Z M16.051,34 C16.547,41.473 22.528,47.453 30,47.949 L30,51.949 C20.323,51.442 12.558,43.677 12.051,34 L16.051,34 L16.051,34 Z M54,55 C54,55.551 53.552,56 53,56 L32,56 L32,53.949 C42.78,53.438 51.438,44.78 51.949,34 L54,34 L54,55 L54,55 Z M53,10 C53.552,10 54,10.449 54,11 L54,32 L51.949,32 C51.438,21.22 42.779,12.562 32,12.051 L32,10 L53,10 L53,10 Z M8,11 C8,10.449 8.448,10 9,10 L30,10 L30,12.051 C19.22,12.562 10.562,21.22 10.051,32 L8,32 L8,11 L8,11 Z" id="Shape" fill="#000000"></path>
        <path d="M26.926,40.835 C27.153,40.947 27.396,41.001 27.635,41.001 C27.975,41.001 28.307,40.892 28.578,40.684 L37.348,34.343 C37.763,34.023 38,33.534 38,33 C38,32.466 37.763,31.977 37.323,31.639 L28.601,25.334 C28.114,24.959 27.469,24.895 26.925,25.165 C26.354,25.446 25.999,26.025 25.999,26.677 L25.999,39.323 C26,39.975 26.354,40.554 26.926,40.835 L26.926,40.835 Z M28,27.367 L35.792,33 L28,38.634 L28,27.367 L28,27.367 Z" id="Shape" fill="#000000"></path>
    </g>
</svg>