<?xml version="1.0" encoding="UTF-8" standalone="no"?>
<svg width="64px" height="64px" viewBox="0 0 64 64" version="1.1" xmlns="http://www.w3.org/2000/svg" xmlns:xlink="http://www.w3.org/1999/xlink">
    <!-- Generator: Sketch 3.7.2 (28276) - http://www.bohemiancoding.com/sketch -->
    <title>vid-sd</title>
    <desc>Created with Sketch.</desc>
    <defs></defs>
    <g id="64px-Line" stroke="none" stroke-width="1" fill="none" fill-rule="evenodd">
        <g id="vid-sd"></g>
        <path d="M9,54 L53,54 C55.757,54 58,51.757 58,49 L58,17 C58,14.243 55.757,12 53,12 L9,12 C6.243,12 4,14.243 4,17 L4,49 C4,51.757 6.243,54 9,54 L9,54 Z M6,17 C6,15.346 7.346,14 9,14 L53,14 C54.654,14 56,15.346 56,17 L56,49 C56,50.654 54.654,52 53,52 L9,52 C7.346,52 6,50.654 6,49 L6,17 L6,17 Z" id="Shape" fill="#000000"></path>
        <path d="M35,42 L39,42 C42.859,42 46,38.859 46,35 L46,31 C46,27.141 42.859,24 39,24 L35,24 C34.447,24 34,24.447 34,25 L34,41 C34,41.553 34.447,42 35,42 L35,42 Z M36,26 L39,26 C41.757,26 44,28.243 44,31 L44,35 C44,37.757 41.757,40 39,40 L36,40 L36,26 L36,26 Z" id="Shape" fill="#000000"></path>
        <path d="M24,40 C21.794,40 20,38.654 20,37 C20,36.447 19.553,36 19,36 C18.447,36 18,36.447 18,37 C18,39.757 20.691,42 24,42 C27.309,42 30,39.757 30,37 C30,33.901 26.711,32.831 24.312,32.05 C21.452,31.109 20,30.378 20,29 C20,27.346 21.794,26 24,26 C26.206,26 28,27.346 28,29 C28,29.553 28.447,30 29,30 C29.553,30 30,29.553 30,29 C30,26.243 27.309,24 24,24 C20.691,24 18,26.243 18,29 C18,32.076 21.287,33.159 23.69,33.951 C26.548,34.882 28,35.608 28,37 C28,38.654 26.206,40 24,40 L24,40 Z" id="Shape" fill="#000000"></path>
    </g>
</svg>