<?xml version="1.0" encoding="UTF-8" standalone="no"?>
<svg width="64px" height="64px" viewBox="0 0 64 64" version="1.1" xmlns="http://www.w3.org/2000/svg" xmlns:xlink="http://www.w3.org/1999/xlink">
    <!-- Generator: Sketch 3.7.2 (28276) - http://www.bohemiancoding.com/sketch -->
    <title>vid-award</title>
    <desc>Created with Sketch.</desc>
    <defs></defs>
    <g id="64px-Glyph" stroke="none" stroke-width="1" fill="none" fill-rule="evenodd">
        <g id="vid-award" fill="#000000">
            <path d="M47.9521,18.1523 C47.8351,17.7883 47.5201,17.5233 47.1421,17.4683 L36.6041,15.9593 L31.8941,6.5523 C31.5551,5.8753 30.4451,5.8753 30.1051,6.5523 L25.3951,15.9593 L14.8581,17.4683 C14.4791,17.5233 14.1651,17.7883 14.0481,18.1523 C13.9311,18.5163 14.0311,18.9153 14.3071,19.1793 L21.9241,26.4983 L20.1261,36.8283 C20.0611,37.2013 20.2121,37.5783 20.5171,37.8033 C20.8201,38.0283 21.2251,38.0633 21.5621,37.8923 L30.0001,33.6263 L30.0001,40.4333 L22.4281,44.9773 C20.9311,45.8753 20.0001,47.5183 20.0001,49.2643 L20.0001,58.0003 L19.0001,58.0003 C18.4471,58.0003 18.0001,58.4473 18.0001,59.0003 C18.0001,59.5523 18.4471,60.0003 19.0001,60.0003 L43.0001,60.0003 C43.5531,60.0003 44.0001,59.5523 44.0001,59.0003 C44.0001,58.4473 43.5531,58.0003 43.0001,58.0003 L42.0001,58.0003 L42.0001,49.2643 C42.0001,47.5183 41.0691,45.8753 39.5721,44.9773 L32.0001,40.4333 L32.0001,33.6263 L40.4371,37.8923 C40.5801,37.9643 40.7341,38.0003 40.8891,38.0003 C41.0991,38.0003 41.3091,37.9333 41.4831,37.8033 C41.7881,37.5783 41.9381,37.2013 41.8741,36.8283 L40.0761,26.4983 L47.6921,19.1793 C47.9691,18.9153 48.0691,18.5163 47.9521,18.1523" id="Fill-89"></path>
        </g>
    </g>
</svg>