<?xml version="1.0" encoding="UTF-8" standalone="no"?>
<svg width="64px" height="64px" viewBox="0 0 64 64" version="1.1" xmlns="http://www.w3.org/2000/svg" xmlns:xlink="http://www.w3.org/1999/xlink">
    <!-- Generator: Sketch 3.7.2 (28276) - http://www.bohemiancoding.com/sketch -->
    <title>vid-camera</title>
    <desc>Created with Sketch.</desc>
    <defs></defs>
    <g id="64px-Line" stroke="none" stroke-width="1" fill="none" fill-rule="evenodd">
        <g id="vid-camera"></g>
        <path d="M5,30 C5.553,30 6,29.552 6,29 L6,25 C6,24.448 5.553,24 5,24 C4.447,24 4,24.448 4,25 L4,29 C4,29.552 4.447,30 5,30 L5,30 Z" id="Shape" fill="#000000"></path>
        <path d="M59,22 L55,22 C54.881,22 54.766,22.028 54.655,22.069 C54.625,22.08 54.597,22.092 54.569,22.106 C54.542,22.12 54.512,22.127 54.485,22.142 L46,27.234 L46,23 C46,20.243 43.757,18 41,18 L13,18 C10.243,18 8,20.243 8,23 L8,43 C8,45.757 10.243,48 13,48 L41,48 C43.757,48 46,45.757 46,43 L46,38.766 L54.485,43.857 C54.511,43.873 54.541,43.879 54.569,43.893 C54.598,43.907 54.625,43.919 54.655,43.93 C54.766,43.971 54.88,43.999 55,43.999 L59,43.999 C59.553,43.999 60,43.551 60,42.999 L60,22.999 C60,22.448 59.553,22 59,22 L59,22 Z M44,43 C44,44.654 42.654,46 41,46 L13,46 C11.346,46 10,44.654 10,43 L10,23 C10,21.346 11.346,20 13,20 L41,20 C42.654,20 44,21.346 44,23 L44,43 L44,43 Z M46,29.566 L54,24.766 L54,41.233 L46,36.433 L46,29.566 L46,29.566 Z M58,42 L56,42 L56,24 L58,24 L58,42 L58,42 Z" id="Shape" fill="#000000"></path>
    </g>
</svg>