<?xml version="1.0" encoding="UTF-8" standalone="no"?>
<svg width="64px" height="64px" viewBox="0 0 64 64" version="1.1" xmlns="http://www.w3.org/2000/svg" xmlns:xlink="http://www.w3.org/1999/xlink">
    <!-- Generator: Sketch 3.7.2 (28276) - http://www.bohemiancoding.com/sketch -->
    <title>vid-camera-4</title>
    <desc>Created with Sketch.</desc>
    <defs></defs>
    <g id="64px-Line" stroke="none" stroke-width="1" fill="none" fill-rule="evenodd">
        <g id="vid-camera-4"></g>
        <path d="M5,22 L6,22 C7.538,22 8.937,21.414 10,20.459 L10,34 C10,36.206 11.794,38 14,38 L18.279,38 L23.596,53.949 C24.005,55.176 25.148,56 26.442,56 L34.226,56 C35.202,56 36.089,55.546 36.66,54.755 C37.231,53.963 37.381,52.978 37.073,52.051 L32.388,38 L44,38 C46.206,38 48,36.206 48,34 L48,28.766 L56.485,33.857 C56.643,33.952 56.821,34 57,34 C57.17,34 57.34,33.957 57.493,33.87 C57.806,33.692 58,33.36 58,33 L58,15 C58,14.64 57.806,14.308 57.493,14.13 C57.18,13.952 56.795,13.957 56.486,14.143 L48,19.234 L48,14 C48,11.794 46.206,10 44,10 L14,10 C12.499,10 11.204,10.841 10.52,12.066 C9.419,10.803 7.803,10 6,10 L5,10 C4.448,10 4,10.447 4,11 L4,21 C4,21.553 4.448,22 5,22 L5,22 Z M35.174,52.684 C35.277,52.993 35.227,53.322 35.036,53.585 C34.846,53.849 34.55,54 34.225,54 L26.441,54 C26.01,54 25.629,53.726 25.493,53.316 L20.388,38 L30.28,38 L35.174,52.684 L35.174,52.684 Z M56,16.767 L56,31.234 L48,26.434 L48,21.567 L56,16.767 L56,16.767 Z M12,14 C12,12.897 12.897,12 14,12 L44,12 C45.103,12 46,12.897 46,14 L46,34 C46,35.103 45.103,36 44,36 L14,36 C12.897,36 12,35.103 12,34 L12,14 L12,14 Z M6,12 C8.206,12 10,13.794 10,16 C10,18.206 8.206,20 6,20 L6,12 L6,12 Z" id="Shape" fill="#000000"></path>
    </g>
</svg>