<?xml version="1.0" encoding="UTF-8" standalone="no"?>
<svg width="64px" height="64px" viewBox="0 0 64 64" version="1.1" xmlns="http://www.w3.org/2000/svg" xmlns:xlink="http://www.w3.org/1999/xlink">
    <!-- Generator: Sketch 3.7.2 (28276) - http://www.bohemiancoding.com/sketch -->
    <title>vid-camera-off</title>
    <desc>Created with Sketch.</desc>
    <defs></defs>
    <g id="64px-Line" stroke="none" stroke-width="1" fill="none" fill-rule="evenodd">
        <g id="vid-camera-off"></g>
        <path d="M5,30 C5.553,30 6,29.552 6,29 L6,25 C6,24.448 5.553,24 5,24 C4.447,24 4,24.448 4,25 L4,29 C4,29.552 4.447,30 5,30 L5,30 Z" id="Shape" fill="#000000"></path>
        <path d="M13,20 L39.344,20 C39.897,20 40.344,19.552 40.344,19 C40.344,18.448 39.897,18 39.344,18 L13,18 C10.243,18 8,20.243 8,23 L8,43 C8,45.077 9.307,46.959 11.252,47.686 C11.367,47.729 11.485,47.749 11.602,47.749 C12.007,47.749 12.389,47.5 12.539,47.098 C12.732,46.581 12.47,46.005 11.952,45.811 C10.784,45.376 10,44.246 10,43 L10,23 C10,21.346 11.346,20 13,20 L13,20 Z" id="Shape" fill="#000000"></path>
        <path d="M59,22 L55,22 C54.881,22 54.766,22.028 54.655,22.069 C54.625,22.08 54.597,22.092 54.569,22.106 C54.542,22.12 54.512,22.127 54.485,22.142 L46,27.234 L46,24.662 C46,24.11 45.553,23.662 45,23.662 C44.447,23.662 44,24.11 44,24.662 L44,43 C44,44.654 42.654,46 41,46 L22.655,46 C22.102,46 21.655,46.448 21.655,47 C21.655,47.552 22.102,48 22.655,48 L41,48 C43.757,48 46,45.757 46,43 L46,38.766 L54.485,43.857 C54.511,43.873 54.541,43.879 54.569,43.893 C54.598,43.907 54.625,43.919 54.655,43.93 C54.766,43.971 54.88,43.999 55,43.999 L59,43.999 C59.553,43.999 60,43.551 60,42.999 L60,22.999 C60,22.448 59.553,22 59,22 L59,22 Z M46,29.566 L54,24.766 L54,41.233 L46,36.433 L46,29.566 L46,29.566 Z M58,42 L56,42 L56,24 L58,24 L58,42 L58,42 Z" id="Shape" fill="#000000"></path>
        <path d="M6.293,57.707 C6.488,57.902 6.744,58 7,58 C7.256,58 7.512,57.902 7.707,57.707 L53.707,11.707 C54.098,11.316 54.098,10.684 53.707,10.293 C53.316,9.902 52.684,9.902 52.293,10.293 L6.293,56.293 C5.902,56.684 5.902,57.316 6.293,57.707 L6.293,57.707 Z" id="Shape" fill="#000000"></path>
    </g>
</svg>