<?xml version="1.0" encoding="UTF-8" standalone="no"?>
<svg width="64px" height="64px" viewBox="0 0 64 64" version="1.1" xmlns="http://www.w3.org/2000/svg" xmlns:xlink="http://www.w3.org/1999/xlink">
    <!-- Generator: Sketch 3.7.2 (28276) - http://www.bohemiancoding.com/sketch -->
    <title>vid-player-dvd</title>
    <desc>Created with Sketch.</desc>
    <defs></defs>
    <g id="64px-Line" stroke="none" stroke-width="1" fill="none" fill-rule="evenodd">
        <g id="vid-player-dvd"></g>
        <path d="M48,23 C48,13.626 40.374,6 31,6 C21.626,6 14,13.626 14,23 C14,32.374 21.626,40 31,40 C40.374,40 48,32.374 48,23 L48,23 Z M16,23 C16,14.729 22.729,8 31,8 C39.271,8 46,14.729 46,23 C46,31.271 39.271,38 31,38 C22.729,38 16,31.271 16,23 L16,23 Z" id="Shape" fill="#000000"></path>
        <path d="M28.859,11.148 C28.716,10.614 28.164,10.295 27.635,10.44 C23.158,11.635 19.635,15.159 18.44,19.635 C18.297,20.168 18.614,20.716 19.148,20.859 C19.234,20.882 19.321,20.893 19.407,20.893 C19.848,20.893 20.253,20.598 20.372,20.151 C21.384,16.365 24.365,13.383 28.151,12.372 C28.686,12.229 29.002,11.682 28.859,11.148 L28.859,11.148 Z" id="Shape" fill="#000000"></path>
        <path d="M33.141,34.852 C33.26,35.299 33.664,35.594 34.106,35.594 C34.192,35.594 34.279,35.583 34.365,35.56 C38.842,34.365 42.365,30.841 43.56,26.365 C43.703,25.832 43.386,25.284 42.852,25.141 C42.326,24.999 41.771,25.315 41.628,25.849 C40.616,29.635 37.635,32.617 33.849,33.628 C33.314,33.771 32.998,34.318 33.141,34.852 L33.141,34.852 Z" id="Shape" fill="#000000"></path>
        <path d="M34,23 C34,21.346 32.654,20 31,20 C29.346,20 28,21.346 28,23 C28,24.654 29.346,26 31,26 C32.654,26 34,24.654 34,23 L34,23 Z M30,23 C30,22.448 30.448,22 31,22 C31.552,22 32,22.448 32,23 C32,23.552 31.552,24 31,24 C30.448,24 30,23.552 30,23 L30,23 Z" id="Shape" fill="#000000"></path>
        <path d="M38,23 C38,19.141 34.859,16 31,16 C27.141,16 24,19.141 24,23 C24,26.859 27.141,30 31,30 C34.859,30 38,26.859 38,23 L38,23 Z M26,23 C26,20.243 28.243,18 31,18 C33.757,18 36,20.243 36,23 C36,25.757 33.757,28 31,28 C28.243,28 26,25.757 26,23 L26,23 Z" id="Shape" fill="#000000"></path>
        <path d="M8,45 L8,57 C8,57.553 8.447,58 9,58 L14.184,58 C14.598,59.162 15.698,60 17,60 C18.302,60 19.402,59.162 19.816,58 L42.185,58 C42.599,59.162 43.699,60 45.001,60 C46.303,60 47.403,59.162 47.817,58 L53,58 C53.553,58 54,57.553 54,57 L54,45 C54,44.447 53.553,44 53,44 L9,44 C8.447,44 8,44.447 8,45 L8,45 Z M10,46 L52,46 L52,56 L10,56 L10,46 L10,46 Z" id="Shape" fill="#000000"></path>
        <path d="M25,52 L47,52 C47.553,52 48,51.553 48,51 C48,50.447 47.553,50 47,50 L25,50 C24.447,50 24,50.447 24,51 C24,51.553 24.447,52 25,52 L25,52 Z" id="Shape" fill="#000000"></path>
        <path d="M17,52 C17.553,52 18,51.553 18,51 C18,50.447 17.553,50 17,50 L15,50 C14.447,50 14,50.447 14,51 C14,51.553 14.447,52 15,52 L17,52 L17,52 Z" id="Shape" fill="#000000"></path>
    </g>
</svg>