<?xml version="1.0" encoding="UTF-8" standalone="no"?>
<svg width="64px" height="64px" viewBox="0 0 64 64" version="1.1" xmlns="http://www.w3.org/2000/svg" xmlns:xlink="http://www.w3.org/1999/xlink">
    <!-- Generator: Sketch 3.7.2 (28276) - http://www.bohemiancoding.com/sketch -->
    <title>vid-next</title>
    <desc>Created with Sketch.</desc>
    <defs></defs>
    <g id="64px-Line" stroke="none" stroke-width="1" fill="none" fill-rule="evenodd">
        <g id="vid-next"></g>
        <path d="M34.914,30.938 L19.918,20.442 C19.459,20.148 18.981,20 18.5,20 C17.122,20 16,21.121 16,22.5 L16,43.5 C16,44.879 17.122,46 18.5,46 C18.981,46 19.458,45.852 19.953,45.534 L34.904,35.069 C35.591,34.602 36,33.829 36,33 C36,32.17 35.589,31.396 34.914,30.938 L34.914,30.938 Z M33.768,33.423 L18.842,43.872 C18.709,43.957 18.594,44 18.5,44 C18.224,44 18,43.775 18,43.5 L18,22.5 C18,22.225 18.224,22 18.5,22 C18.594,22 18.708,22.043 18.807,22.104 L33.78,32.584 C33.918,32.678 34,32.833 34,32.999 C34,33.165 33.917,33.321 33.768,33.423 L33.768,33.423 Z" id="Shape" fill="#000000"></path>
        <path d="M31,6 C16.112,6 4,18.112 4,33 C4,47.888 16.112,60 31,60 C45.888,60 58,47.888 58,33 C58,18.112 45.888,6 31,6 L31,6 Z M31,58 C17.215,58 6,46.785 6,33 C6,19.215 17.215,8 31,8 C44.785,8 56,19.215 56,33 C56,46.785 44.785,58 31,58 L31,58 Z" id="Shape" fill="#000000"></path>
        <path d="M41,20 C39.346,20 38,21.346 38,23 L38,43 C38,44.654 39.346,46 41,46 C42.654,46 44,44.654 44,43 L44,23 C44,21.346 42.654,20 41,20 L41,20 Z M42,43 C42,43.552 41.551,44 41,44 C40.449,44 40,43.552 40,43 L40,23 C40,22.448 40.449,22 41,22 C41.551,22 42,22.448 42,23 L42,43 L42,43 Z" id="Shape" fill="#000000"></path>
    </g>
</svg>