<?xml version="1.0" encoding="UTF-8" standalone="no"?>
<svg width="64px" height="64px" viewBox="0 0 64 64" version="1.1" xmlns="http://www.w3.org/2000/svg" xmlns:xlink="http://www.w3.org/1999/xlink">
    <!-- Generator: Sketch 3.7.2 (28276) - http://www.bohemiancoding.com/sketch -->
    <title>vid-movie-settings</title>
    <desc>Created with Sketch.</desc>
    <defs></defs>
    <g id="64px-Line" stroke="none" stroke-width="1" fill="none" fill-rule="evenodd">
        <g id="vid-movie-settings"></g>
        <path d="M46,38 C42.691,38 40,40.691 40,44 C40,47.309 42.691,50 46,50 C49.309,50 52,47.309 52,44 C52,40.691 49.309,38 46,38 L46,38 Z M46,48 C43.794,48 42,46.206 42,44 C42,41.794 43.794,40 46,40 C48.206,40 50,41.794 50,44 C50,46.206 48.206,48 46,48 L46,48 Z" id="Shape" fill="#000000"></path>
        <path d="M58,41 L56.581,41 C56.344,40.166 56.007,39.356 55.585,38.604 L56.42,37.769 C57.19,36.997 57.19,35.741 56.419,34.968 L55.031,33.58 C54.258,32.808 53.001,32.809 52.23,33.58 L51.397,34.413 C50.637,33.984 49.835,33.649 49,33.413 L49,32 C49,30.897 48.103,30 47,30 L45,30 C43.897,30 43,30.897 43,32 L43,33.413 C42.162,33.649 41.36,33.984 40.602,34.413 L39.769,33.58 C38.997,32.808 37.74,32.809 36.968,33.58 L35.58,34.968 C34.808,35.74 34.808,36.997 35.58,37.77 L36.413,38.603 C35.987,39.359 35.653,40.161 35.417,41 L34,41 C32.897,41 32,41.897 32,43 L32,45 C32,46.103 32.897,47 34,47 L35.419,47 C35.656,47.835 35.993,48.645 36.414,49.396 L35.58,50.23 C34.809,51.001 34.808,52.258 35.58,53.032 L36.968,54.42 C37.739,55.192 38.997,55.192 39.77,54.42 L40.603,53.586 C41.359,54.013 42.161,54.346 42.999,54.582 L42.999,56 C42.999,57.103 43.896,58 44.999,58 L46.999,58 C48.102,58 48.999,57.103 48.999,56 L48.999,54.579 C49.835,54.341 50.645,54.005 51.395,53.584 L52.23,54.419 C53.001,55.191 54.259,55.192 55.032,54.419 L56.418,53.031 C56.793,52.657 56.999,52.159 56.999,51.63 C56.999,51.101 56.792,50.603 56.419,50.23 L55.587,49.397 C56.013,48.641 56.346,47.839 56.583,46.999 L58,46.999 C59.103,46.999 60,46.102 60,44.999 L60,42.999 C60,41.897 59.103,41 58,41 L58,41 Z M58,45 L55.797,45 C55.321,45 54.912,45.335 54.817,45.801 C54.583,46.951 54.137,48.025 53.492,48.991 C53.227,49.387 53.279,49.916 53.616,50.253 L55.005,51.617 L53.645,53.005 L52.253,51.612 C51.916,51.275 51.387,51.223 50.989,51.488 C50.042,52.121 48.939,52.58 47.798,52.814 C47.333,52.909 46.999,53.319 46.999,53.793 L46.999,56 L44.999,56 L44.999,53.795 C44.999,53.319 44.664,52.91 44.198,52.815 C43.05,52.582 41.977,52.136 41.009,51.489 C40.84,51.376 40.646,51.321 40.454,51.321 C40.196,51.321 39.939,51.421 39.746,51.614 L38.381,53.007 L36.993,51.646 L38.384,50.255 C38.721,49.918 38.774,49.389 38.509,48.993 C37.874,48.041 37.415,46.937 37.182,45.801 C37.087,45.336 36.678,45.002 36.203,45.002 L34,45.002 L34,43.002 L36.203,43.002 C36.679,43.002 37.088,42.667 37.183,42.201 C37.416,41.052 37.863,39.979 38.509,39.011 C38.774,38.614 38.722,38.086 38.384,37.748 L36.993,36.384 L38.354,34.996 L39.745,36.387 C40.083,36.724 40.611,36.776 41.008,36.511 C41.98,35.861 43.053,35.414 44.197,35.181 C44.663,35.086 44.998,34.677 44.998,34.201 L44.998,32 L46.998,32 L46.998,34.199 C46.998,34.675 47.333,35.084 47.799,35.179 C48.939,35.41 50.013,35.858 50.99,36.51 C51.388,36.775 51.915,36.722 52.252,36.385 L53.616,34.994 L55.004,36.355 L53.612,37.746 C53.275,38.083 53.222,38.612 53.487,39.009 C54.123,39.963 54.583,41.066 54.815,42.201 C54.91,42.666 55.319,43 55.794,43 L58,43 L58,45 L58,45 Z" id="Shape" fill="#000000"></path>
        <path d="M5,44 L29,44 C29.552,44 30,43.552 30,43 L30,38 L32.042,38 C32.594,38 33.042,37.552 33.042,37 C33.042,36.448 32.594,36 32.042,36 L30,36 L30,16 L46,16 L46,26.996 C46,27.548 46.448,27.996 47,27.996 C47.552,27.996 48,27.548 48,26.996 L48,16 L53,16 C53.552,16 54,15.552 54,15 L54,9 C54,8.448 53.552,8 53,8 L5,8 C4.448,8 4,8.448 4,9 L4,15 C4,15.552 4.448,16 5,16 L10,16 L10,36 L5,36 C4.448,36 4,36.448 4,37 L4,43 C4,43.552 4.448,44 5,44 L5,44 Z M22,38 L22,42 L18,42 L18,38 L22,38 L22,38 Z M16,42 L12,42 L12,38 L16,38 L16,42 L16,42 Z M28,42 L24,42 L24,38 L28,38 L28,42 L28,42 Z M18,14 L18,10 L22,10 L22,14 L18,14 L18,14 Z M12,14 L12,10 L16,10 L16,14 L12,14 L12,14 Z M24,10 L28,10 L28,14 L24,14 L24,10 L24,10 Z M30,10 L34,10 L34,14 L30,14 L30,10 L30,10 Z M36,10 L40,10 L40,14 L36,14 L36,10 L36,10 Z M42,14 L42,10 L46,10 L46,14 L42,14 L42,14 Z M52,14 L48,14 L48,10 L52,10 L52,14 L52,14 Z M6,14 L6,10 L10,10 L10,14 L6,14 L6,14 Z M12,16 L28,16 L28,36 L12,36 L12,16 L12,16 Z M6,38 L10,38 L10,42 L6,42 L6,38 L6,38 Z" id="Shape" fill="#000000"></path>
    </g>
</svg>