<?xml version="1.0" encoding="UTF-8" standalone="no"?>
<svg width="64px" height="64px" viewBox="0 0 64 64" version="1.1" xmlns="http://www.w3.org/2000/svg" xmlns:xlink="http://www.w3.org/1999/xlink">
    <!-- Generator: Sketch 3.7.2 (28276) - http://www.bohemiancoding.com/sketch -->
    <title>vid-cd-movie-2</title>
    <desc>Created with Sketch.</desc>
    <defs></defs>
    <g id="64px-Line" stroke="none" stroke-width="1" fill="none" fill-rule="evenodd">
        <g id="vid-cd-movie-2"></g>
        <path d="M22.701,11.29 C22.563,10.756 22.019,10.435 21.482,10.572 C15.154,12.208 10.208,17.155 8.572,23.483 C8.434,24.018 8.755,24.564 9.29,24.702 C9.374,24.723 9.458,24.734 9.541,24.734 C9.986,24.734 10.392,24.435 10.509,23.984 C11.963,18.36 16.36,13.963 21.984,12.509 C22.518,12.37 22.839,11.824 22.701,11.29 L22.701,11.29 Z" id="Shape" fill="#000000"></path>
        <path d="M26,50 C29.299,50 32.472,49.288 35.429,47.882 C35.928,47.645 36.14,47.049 35.903,46.549 C35.666,46.049 35.07,45.838 34.57,46.075 C31.883,47.353 29,48 26,48 C14.972,48 6,39.028 6,28 C6,16.972 14.972,8 26,8 C37.028,8 46,16.972 46,28 C46,30.012 45.702,31.998 45.115,33.901 C44.952,34.429 45.248,34.989 45.776,35.151 C46.306,35.314 46.863,35.018 47.026,34.49 C47.672,32.395 48,30.211 48,27.999 C48,15.868 38.131,5.999 26,5.999 C13.869,5.999 4,15.868 4,27.999 C4,40.13 13.869,50 26,50 L26,50 Z" id="Shape" fill="#000000"></path>
        <path d="M26,22 C22.691,22 20,24.691 20,28 C20,31.309 22.691,34 26,34 C29.309,34 32,31.309 32,28 C32,24.691 29.309,22 26,22 L26,22 Z M26,32 C23.794,32 22,30.206 22,28 C22,25.794 23.794,24 26,24 C28.206,24 30,25.794 30,28 C30,30.206 28.206,32 26,32 L26,32 Z" id="Shape" fill="#000000"></path>
        <path d="M34.471,41.576 C33.09,42.44 31.591,43.084 30.017,43.492 C29.482,43.631 29.161,44.176 29.299,44.711 C29.416,45.162 29.821,45.461 30.267,45.461 C30.35,45.461 30.434,45.451 30.518,45.429 C32.289,44.971 33.976,44.245 35.531,43.273 C35.999,42.98 36.141,42.363 35.849,41.895 C35.556,41.427 34.941,41.285 34.471,41.576 L34.471,41.576 Z" id="Shape" fill="#000000"></path>
        <path d="M42.244,34.029 C42.67,34.029 43.065,33.754 43.198,33.326 C43.281,33.059 43.357,32.79 43.428,32.518 C43.566,31.983 43.245,31.437 42.711,31.299 C42.173,31.164 41.63,31.483 41.492,32.016 C41.43,32.257 41.363,32.495 41.289,32.731 C41.124,33.258 41.419,33.819 41.946,33.983 C42.045,34.015 42.146,34.029 42.244,34.029 L42.244,34.029 Z" id="Shape" fill="#000000"></path>
        <path d="M56.173,44.661 L44.47,36.708 C43.781,36.245 42.979,36 42.15,36 C39.861,36 38,37.862 38,40.15 L38,55.849 C38,58.138 39.862,59.999 42.15,59.999 C42.979,59.999 43.781,59.754 44.464,59.294 L56.171,51.539 C57.316,50.765 58,49.478 58,48.098 C58,46.718 57.316,45.432 56.173,44.661 L56.173,44.661 Z M55.059,49.878 L43.354,57.632 C42.996,57.872 42.58,58 42.15,58 C40.964,58 40,57.035 40,55.85 L40,40.15 C40,38.964 40.965,38 42.15,38 C42.58,38 42.996,38.127 43.35,38.365 L55.052,46.317 C55.646,46.717 56,47.384 56,48.099 C56,48.814 55.646,49.482 55.059,49.878 L55.059,49.878 Z" id="Shape" fill="#000000"></path>
        <path d="M26,18 C20.486,18 16,22.486 16,28 C16,33.514 20.486,38 26,38 C31.514,38 36,33.514 36,28 C36,22.486 31.514,18 26,18 L26,18 Z M26,36 C21.589,36 18,32.411 18,28 C18,23.589 21.589,20 26,20 C30.411,20 34,23.589 34,28 C34,32.411 30.411,36 26,36 L26,36 Z" id="Shape" fill="#000000"></path>
    </g>
</svg>