<?xml version="1.0" encoding="UTF-8" standalone="no"?>
<svg width="64px" height="64px" viewBox="0 0 64 64" version="1.1" xmlns="http://www.w3.org/2000/svg" xmlns:xlink="http://www.w3.org/1999/xlink">
    <!-- Generator: Sketch 3.7.2 (28276) - http://www.bohemiancoding.com/sketch -->
    <title>vid-tablet</title>
    <desc>Created with Sketch.</desc>
    <defs></defs>
    <g id="64px-Line" stroke="none" stroke-width="1" fill="none" fill-rule="evenodd">
        <g id="vid-tablet"></g>
        <path d="M18,60 L48,60 C50.206,60 52,58.206 52,56 L52,8 C52,5.794 50.206,4 48,4 L18,4 C15.794,4 14,5.794 14,8 L14,56 C14,58.206 15.794,60 18,60 L18,60 Z M16,8 C16,6.897 16.897,6 18,6 L48,6 C49.103,6 50,6.897 50,8 L50,56 C50,57.103 49.103,58 48,58 L18,58 C16.897,58 16,57.103 16,56 L16,8 L16,8 Z" id="Shape" fill="#000000"></path>
        <path d="M32.29,9.71 C32.34,9.75 32.39,9.8 32.44,9.83 C32.5,9.87 32.56,9.9 32.62,9.92 C32.68,9.95 32.74,9.97 32.8,9.98 C32.87,9.99 32.94,10 33,10 C33.26,10 33.52,9.89 33.71,9.71 C33.8,9.61 33.87,9.51 33.92,9.38 C33.97,9.26 34,9.13 34,9 C34,8.74 33.89,8.48 33.71,8.29 C33.47,8.06 33.13,7.96 32.8,8.02 C32.74,8.03 32.68,8.05 32.62,8.08 C32.56,8.1 32.5,8.13 32.44,8.17 C32.39,8.21 32.34,8.25 32.29,8.29 C32.11,8.48 32,8.74 32,9 C32,9.13 32.03,9.26 32.08,9.38 C32.13,9.51 32.2,9.61 32.29,9.71 L32.29,9.71 Z" id="Shape" fill="#000000"></path>
        <path d="M33.71,54.29 C33.33,53.92 32.66,53.92 32.29,54.29 C32.2,54.39 32.13,54.49 32.08,54.62 C32.03,54.74 32,54.87 32,55 C32,55.26 32.11,55.52 32.29,55.71 C32.34,55.75 32.39,55.79 32.44,55.83 C32.5,55.87 32.56,55.9 32.62,55.92 C32.68,55.95 32.74,55.97 32.8,55.98 C32.87,55.99 32.94,56 33,56 C33.26,56 33.52,55.89 33.71,55.71 C33.89,55.52 34,55.26 34,55 C34,54.87 33.97,54.74 33.92,54.62 C33.87,54.49 33.8,54.39 33.71,54.29 L33.71,54.29 Z" id="Shape" fill="#000000"></path>
        <path d="M19,52 L47,52 C47.552,52 48,51.552 48,51 L48,13 C48,12.448 47.552,12 47,12 L19,12 C18.448,12 18,12.448 18,13 L18,51 C18,51.552 18.448,52 19,52 L19,52 Z M20,14 L46,14 L46,50 L20,50 L20,14 L20,14 Z" id="Shape" fill="#000000"></path>
        <path d="M39.323,30.639 L30.601,24.334 C30.114,23.96 29.472,23.896 28.925,24.165 C28.354,24.446 28,25.026 28,25.677 L28,38.323 C28,38.974 28.354,39.554 28.925,39.835 C29.152,39.947 29.395,40.001 29.634,40.001 C29.973,40.001 30.306,39.892 30.577,39.684 L39.347,33.343 C39.762,33.022 40,32.533 40,32 C40,31.467 39.762,30.978 39.323,30.639 L39.323,30.639 Z M30,37.634 L30,26.367 L37.792,32 L30,37.634 L30,37.634 Z" id="Shape" fill="#000000"></path>
    </g>
</svg>