<?xml version="1.0" encoding="UTF-8" standalone="no"?>
<svg width="64px" height="64px" viewBox="0 0 64 64" version="1.1" xmlns="http://www.w3.org/2000/svg" xmlns:xlink="http://www.w3.org/1999/xlink">
    <!-- Generator: Sketch 3.7.2 (28276) - http://www.bohemiancoding.com/sketch -->
    <title>vid-phone</title>
    <desc>Created with Sketch.</desc>
    <defs></defs>
    <g id="64px-Line" stroke="none" stroke-width="1" fill="none" fill-rule="evenodd">
        <g id="vid-phone"></g>
        <path d="M20,6 C17.794,6 16,7.794 16,10 L16,56 C16,58.206 17.794,60 20,60 L44,60 C46.206,60 48,58.206 48,56 L48,10 C48,7.794 46.206,6 44,6 L20,6 L20,6 Z M46,50 L18,50 L18,16 L46,16 L46,50 L46,50 Z M44,58 L20,58 C18.897,58 18,57.103 18,56 L18,52 L46,52 L46,56 C46,57.103 45.103,58 44,58 L44,58 Z M46,10 L46,14 L18,14 L18,10 C18,8.897 18.897,8 20,8 L44,8 C45.103,8 46,8.897 46,10 L46,10 Z" id="Shape" fill="#000000"></path>
        <path d="M37,10 L31,10 C30.448,10 30,10.448 30,11 C30,11.552 30.448,12 31,12 L37,12 C37.552,12 38,11.552 38,11 C38,10.448 37.552,10 37,10 L37,10 Z" id="Shape" fill="#000000"></path>
        <path d="M27.71,10.29 C27.33,9.92 26.67,9.92 26.29,10.29 C26.2,10.39 26.13,10.49 26.08,10.62 C26.03,10.74 26,10.87 26,11 C26,11.27 26.11,11.52 26.29,11.71 C26.48,11.89 26.74,12 27,12 C27.26,12 27.52,11.89 27.71,11.71 C27.89,11.52 28,11.27 28,11 C28,10.87 27.97,10.74 27.92,10.62 C27.87,10.49 27.8,10.39 27.71,10.29 L27.71,10.29 Z" id="Shape" fill="#000000"></path>
        <path d="M33,54 L31,54 C30.448,54 30,54.448 30,55 C30,55.552 30.448,56 31,56 L33,56 C33.552,56 34,55.552 34,55 C34,54.448 33.552,54 33,54 L33,54 Z" id="Shape" fill="#000000"></path>
        <path d="M26.968,41.811 C27.22,41.939 27.492,42.001 27.761,42.001 C28.118,42.001 28.469,41.891 28.758,41.678 L39.276,34.435 C39.729,34.102 40,33.566 40,32.999 C40,32.432 39.729,31.896 39.251,31.546 L28.782,24.338 C28.25,23.947 27.554,23.89 26.968,24.188 C26.371,24.491 26,25.098 26,25.773 L26,40.225 C26,40.901 26.371,41.508 26.968,41.811 L26.968,41.811 Z M28,26.228 L37.835,32.999 L28,39.772 L28,26.228 L28,26.228 Z" id="Shape" fill="#000000"></path>
    </g>
</svg>