<?xml version="1.0" encoding="UTF-8" standalone="no"?>
<svg width="64px" height="64px" viewBox="0 0 64 64" version="1.1" xmlns="http://www.w3.org/2000/svg" xmlns:xlink="http://www.w3.org/1999/xlink">
    <!-- Generator: Sketch 3.7.2 (28276) - http://www.bohemiancoding.com/sketch -->
    <title>vid-show</title>
    <desc>Created with Sketch.</desc>
    <defs></defs>
    <g id="64px-Line" stroke="none" stroke-width="1" fill="none" fill-rule="evenodd">
        <g id="vid-show"></g>
        <path d="M16,44 C16,40.355 14.038,38 11,38 C7.962,38 6,40.355 6,44 C6,47.645 7.962,50 11,50 C14.038,50 16,47.645 16,44 L16,44 Z M11,48 C8.292,48 8,45.203 8,44 C8,42.797 8.292,40 11,40 C13.708,40 14,42.797 14,44 C14,45.203 13.708,48 11,48 L11,48 Z" id="Shape" fill="#000000"></path>
        <path d="M3.997,57.076 C4.334,52.664 5.251,52 11,52 C16.749,52 17.666,52.664 18,57 L18,59 C18,59.552 18.448,60 19,60 C19.552,60 20,59.552 20,59 L19.997,56.924 C19.547,51.046 17.249,50 11,50 C4.751,50 2.453,51.046 2,57 L2,59 C2,59.552 2.448,60 3,60 C3.552,60 4,59.552 4,59 L3.997,57.076 L3.997,57.076 Z" id="Shape" fill="#000000"></path>
        <path d="M36,44 C36,40.355 34.038,38 31,38 C27.962,38 26,40.355 26,44 C26,47.645 27.962,50 31,50 C34.038,50 36,47.645 36,44 L36,44 Z M31,48 C28.292,48 28,45.203 28,44 C28,42.797 28.292,40 31,40 C33.708,40 34,42.797 34,44 C34,45.203 33.708,48 31,48 L31,48 Z" id="Shape" fill="#000000"></path>
        <path d="M22,57 L22,59 C22,59.552 22.448,60 23,60 C23.552,60 24,59.552 24,59 L23.997,57.076 C24.334,52.664 25.251,52 31,52 C36.749,52 37.666,52.664 38,57 L38,59 C38,59.552 38.448,60 39,60 C39.552,60 40,59.552 40,59 L39.997,56.924 C39.547,51.046 37.249,50 31,50 C24.751,50 22.453,51.046 22,57 L22,57 Z" id="Shape" fill="#000000"></path>
        <path d="M56,44 C56,40.355 54.038,38 51,38 C47.962,38 46,40.355 46,44 C46,47.645 47.962,50 51,50 C54.038,50 56,47.645 56,44 L56,44 Z M51,48 C48.292,48 48,45.203 48,44 C48,42.797 48.292,40 51,40 C53.708,40 54,42.797 54,44 C54,45.203 53.708,48 51,48 L51,48 Z" id="Shape" fill="#000000"></path>
        <path d="M51,50 C44.751,50 42.453,51.046 42,57 L42,59 C42,59.552 42.448,60 43,60 C43.552,60 44,59.552 44,59 L43.997,57.076 C44.334,52.664 45.251,52 51,52 C56.749,52 57.666,52.664 58,57 L58,59 C58,59.552 58.448,60 59,60 C59.552,60 60,59.552 60,59 L59.997,56.924 C59.547,51.046 57.249,50 51,50 L51,50 Z" id="Shape" fill="#000000"></path>
        <path d="M5,34 L57,34 C57.552,34 58,33.552 58,33 L58,7 C58,6.448 57.552,6 57,6 L5,6 C4.448,6 4,6.448 4,7 L4,33 C4,33.552 4.448,34 5,34 L5,34 Z M6,8 L56,8 L56,32 L6,32 L6,8 L6,8 Z" id="Shape" fill="#000000"></path>
        <path d="M37.323,18.639 L28.601,12.334 C28.114,11.96 27.472,11.896 26.925,12.165 C26.354,12.446 26,13.026 26,13.677 L26,26.323 C26,26.974 26.354,27.554 26.925,27.835 C27.152,27.947 27.395,28.001 27.634,28.001 C27.973,28.001 28.306,27.892 28.577,27.684 L37.347,21.343 C37.762,21.022 38,20.533 38,20 C38,19.467 37.762,18.978 37.323,18.639 L37.323,18.639 Z M28,25.634 L28,14.367 L35.792,20 L28,25.634 L28,25.634 Z" id="Shape" fill="#000000"></path>
    </g>
</svg>