<?xml version="1.0" encoding="UTF-8" standalone="no"?>
<svg width="64px" height="64px" viewBox="0 0 64 64" version="1.1" xmlns="http://www.w3.org/2000/svg" xmlns:xlink="http://www.w3.org/1999/xlink">
    <!-- Generator: Sketch 3.7.2 (28276) - http://www.bohemiancoding.com/sketch -->
    <title>vid-star</title>
    <desc>Created with Sketch.</desc>
    <defs></defs>
    <g id="64px-Line" stroke="none" stroke-width="1" fill="none" fill-rule="evenodd">
        <g id="vid-star"></g>
        <path d="M55,6 L7,6 C5.346,6 4,7.346 4,9 L4,57 C4,58.654 5.346,60 7,60 L55,60 C56.654,60 58,58.654 58,57 L58,9 C58,7.346 56.654,6 55,6 L55,6 Z M56,57 C56,57.552 55.551,58 55,58 L7,58 C6.449,58 6,57.552 6,57 L6,9 C6,8.448 6.449,8 7,8 L55,8 C55.551,8 56,8.448 56,9 L56,57 L56,57 Z" id="Shape" fill="#000000"></path>
        <path d="M51.151,27.29 L37.859,25.259 L31.905,12.575 C31.741,12.224 31.388,12 31,12 C30.612,12 30.259,12.224 30.095,12.575 L24.141,25.259 L10.849,27.29 C10.478,27.347 10.171,27.605 10.052,27.961 C9.933,28.317 10.023,28.708 10.284,28.977 L19.931,38.866 L17.652,52.84 C17.59,53.218 17.75,53.598 18.063,53.819 C18.377,54.039 18.787,54.063 19.123,53.877 L31,47.31 L42.877,53.875 C43.028,53.959 43.195,54 43.361,54 C43.563,54 43.765,53.938 43.937,53.817 C44.25,53.596 44.41,53.216 44.348,52.838 L42.069,38.864 L51.716,28.975 C51.978,28.706 52.068,28.315 51.948,27.959 C51.828,27.603 51.521,27.347 51.151,27.29 L51.151,27.29 Z M40.284,37.83 C40.062,38.058 39.962,38.376 40.013,38.689 L42.042,51.128 L31.483,45.291 C31.333,45.208 31.166,45.166 30.999,45.166 C30.832,45.166 30.666,45.208 30.515,45.291 L19.956,51.128 L21.985,38.689 C22.036,38.376 21.936,38.057 21.714,37.83 L13.073,28.973 L24.969,27.156 C25.299,27.106 25.582,26.894 25.723,26.593 L31,15.354 L36.275,26.592 C36.417,26.894 36.7,27.106 37.029,27.155 L48.925,28.972 L40.284,37.83 L40.284,37.83 Z" id="Shape" fill="#000000"></path>
        <path d="M25,32 C24.448,32 24,32.447 24,33 C24,33.553 24.448,34 25,34 L37,34 C37.552,34 38,33.553 38,33 C38,32.447 37.552,32 37,32 L25,32 L25,32 Z" id="Shape" fill="#000000"></path>
        <path d="M35,36 L27,36 C26.448,36 26,36.447 26,37 C26,37.553 26.448,38 27,38 L35,38 C35.552,38 36,37.553 36,37 C36,36.447 35.552,36 35,36 L35,36 Z" id="Shape" fill="#000000"></path>
    </g>
</svg>