<?xml version="1.0" encoding="UTF-8" standalone="no"?>
<svg width="44px" height="44px" viewBox="0 0 44 44" version="1.1" xmlns="http://www.w3.org/2000/svg" xmlns:xlink="http://www.w3.org/1999/xlink">
    <!-- Generator: Sketch 3.7.2 (28276) - http://www.bohemiancoding.com/sketch -->
    <title>vid-3d-glasses</title>
    <desc>Created with Sketch.</desc>
    <defs></defs>
    <g id="44px-Line" stroke="none" stroke-width="1" fill="none" fill-rule="evenodd">
        <g id="vid-3d-glasses"></g>
        <path d="M19,24 L5,24 C4.447,24 4,24.447 4,25 L4,35 C4,35.553 4.447,36 5,36 L13,36 C13.234,36 13.461,35.918 13.641,35.769 L19.641,30.769 C19.869,30.579 20,30.297 20,30 L20,25 C20,24.447 19.553,24 19,24 L19,24 Z M18,29.531 L12.638,34 L6,34 L6,26 L18,26 L18,29.531 L18,29.531 Z" id="Shape" fill="#000000"></path>
        <path d="M39,24 L25,24 C24.447,24 24,24.447 24,25 L24,30 C24,30.297 24.132,30.578 24.359,30.769 L30.359,35.769 C30.539,35.918 30.765,36 31,36 L39,36 C39.553,36 40,35.553 40,35 L40,25 C40,24.447 39.553,24 39,24 L39,24 Z M38,34 L31.362,34 L26,29.531 L26,26 L38,26 L38,34 L38,34 Z" id="Shape" fill="#000000"></path>
        <path d="M35.885,6.749 C34.989,4.971 33.174,3.9 31.204,4.005 C29.213,4.091 27.517,5.294 26.803,7.085 L26.097,8.57 C25.86,9.069 26.073,9.666 26.571,9.903 C27.07,10.138 27.668,9.926 27.904,9.429 L28.635,7.885 C29.085,6.758 30.078,6.055 31.29,6.002 C32.484,5.945 33.554,6.564 34.103,7.657 L40.472,20 L3.529,20 L9.901,7.649 C10.448,6.565 11.511,5.947 12.711,6.003 C13.923,6.056 14.916,6.759 15.392,7.944 L16.098,9.429 C16.336,9.926 16.931,10.138 17.431,9.903 C17.929,9.666 18.142,9.069 17.905,8.57 L17.224,7.143 C16.484,5.293 14.788,4.09 12.797,4.004 C10.826,3.9 9.013,4.969 8.12,6.739 L0.731,21.06 C0.282,21.584 0.001,22.256 0.001,22.999 L0.001,36.999 C0.001,38.653 1.347,39.999 3.001,39.999 L13.522,39.999 C14.714,39.999 15.87,39.571 16.775,38.795 L22.002,34.316 L27.229,38.795 C28.134,39.571 29.29,39.999 30.482,39.999 L41,39.999 C42.654,39.999 44,38.653 44,36.999 L44,22.999 C44,22.256 43.719,21.584 43.27,21.06 L35.885,6.749 L35.885,6.749 Z M42,37 C42,37.552 41.552,38 41,38 L30.479,38 C29.764,38 29.071,37.743 28.527,37.277 L22.65,32.241 C22.464,32.08 22.231,32 22,32 C21.769,32 21.536,32.08 21.35,32.241 L15.473,37.278 C14.929,37.743 14.236,38 13.521,38 L3,38 C2.448,38 2,37.552 2,37 L2,23 C2,22.448 2.448,22 3,22 L41,22 C41.552,22 42,22.448 42,23 L42,37 L42,37 Z" id="Shape" fill="#000000"></path>
    </g>
</svg>