<?xml version="1.0" encoding="UTF-8" standalone="no"?>
<svg width="64px" height="64px" viewBox="0 0 64 64" version="1.1" xmlns="http://www.w3.org/2000/svg" xmlns:xlink="http://www.w3.org/1999/xlink">
    <!-- Generator: Sketch 3.7.2 (28276) - http://www.bohemiancoding.com/sketch -->
    <title>vid-go-pro</title>
    <desc>Created with Sketch.</desc>
    <defs></defs>
    <g id="64px-Line" stroke="none" stroke-width="1" fill="none" fill-rule="evenodd">
        <g id="vid-go-pro"></g>
        <path d="M53,8 L29,8 L9,8 C6.243,8 4,10.243 4,13 L4,51 C4,53.757 6.243,56 9,56 L53,56 C55.757,56 58,53.757 58,51 L58,37 L58,13 C58,10.243 55.757,8 53,8 L53,8 Z M56,13 L56,37 C56,38.654 54.654,40 53,40 L29,40 C27.346,40 26,38.654 26,37 L26,13 C26,11.346 27.346,10 29,10 L53,10 C54.654,10 56,11.346 56,13 L56,13 Z M53,54 L9,54 C7.346,54 6,52.654 6,51 L6,13 C6,11.346 7.346,10 9,10 L25.026,10 C24.391,10.838 24,11.87 24,13 L24,37 C24,39.757 26.243,42 29,42 L53,42 C54.13,42 55.162,41.609 56,40.975 L56,51 C56,52.654 54.654,54 53,54 L53,54 Z" id="Shape" fill="#000000"></path>
        <path d="M28,13 L28,37 C28,37.553 28.448,38 29,38 L53,38 C53.552,38 54,37.553 54,37 L54,13 C54,12.447 53.552,12 53,12 L29,12 C28.448,12 28,12.447 28,13 L28,13 Z M30,14 L52,14 L52,36 L30,36 L30,14 L30,14 Z" id="Shape" fill="#000000"></path>
        <path d="M41,18 C37.14,18 34,21.141 34,25 C34,28.859 37.14,32 41,32 C44.86,32 48,28.859 48,25 C48,21.141 44.86,18 41,18 L41,18 Z M41,30 C38.243,30 36,27.757 36,25 C36,22.243 38.243,20 41,20 C43.757,20 46,22.243 46,25 C46,27.757 43.757,30 41,30 L41,30 Z" id="Shape" fill="#000000"></path>
        <path d="M19,16 L9,16 C8.448,16 8,16.447 8,17 L8,35 C8,35.553 8.448,36 9,36 L19,36 C19.552,36 20,35.553 20,35 L20,17 C20,16.447 19.552,16 19,16 L19,16 Z M18,34 L10,34 L10,18 L18,18 L18,34 L18,34 Z" id="Shape" fill="#000000"></path>
        <path d="M14,40 C10.691,40 8,42.691 8,46 C8,49.309 10.691,52 14,52 C17.309,52 20,49.309 20,46 C20,42.691 17.309,40 14,40 L14,40 Z M14,50 C11.794,50 10,48.206 10,46 C10,43.794 11.794,42 14,42 C16.206,42 18,43.794 18,46 C18,48.206 16.206,50 14,50 L14,50 Z" id="Shape" fill="#000000"></path>
    </g>
</svg>