<?xml version="1.0" encoding="UTF-8" standalone="no"?>
<svg width="64px" height="64px" viewBox="0 0 64 64" version="1.1" xmlns="http://www.w3.org/2000/svg" xmlns:xlink="http://www.w3.org/1999/xlink">
    <!-- Generator: Sketch 3.7.2 (28276) - http://www.bohemiancoding.com/sketch -->
    <title>vid-screen</title>
    <desc>Created with Sketch.</desc>
    <defs></defs>
    <g id="64px-Line" stroke="none" stroke-width="1" fill="none" fill-rule="evenodd">
        <g id="vid-screen"></g>
        <path d="M54,10 L8,10 C5.794,10 4,11.794 4,14 L4,52 C4,54.206 5.794,56 8,56 L54,56 C56.206,56 58,54.206 58,52 L58,14 C58,11.794 56.206,10 54,10 L54,10 Z M8,12 L54,12 C55.103,12 56,12.897 56,14 L56,20 L6,20 L6,14 C6,12.897 6.897,12 8,12 L8,12 Z M54,54 L8,54 C6.897,54 6,53.103 6,52 L6,22 L56,22 L56,52 C56,53.103 55.103,54 54,54 L54,54 Z" id="Shape" fill="#000000"></path>
        <circle id="Oval" fill="#000000" cx="12" cy="16" r="2"></circle>
        <circle id="Oval" fill="#000000" cx="18" cy="16" r="2"></circle>
        <circle id="Oval" fill="#000000" cx="24" cy="16" r="2"></circle>
        <path d="M37.323,36.64 L28.601,30.334 C28.115,29.961 27.474,29.896 26.925,30.165 C26.354,30.446 26,31.025 26,31.678 L26,44.323 C26,44.975 26.354,45.554 26.925,45.836 C27.152,45.947 27.395,46.002 27.634,46.002 C27.973,46.002 28.306,45.894 28.577,45.685 L37.346,39.343 C37.761,39.024 37.999,38.535 37.999,38.001 C37.999,37.467 37.762,36.978 37.323,36.64 L37.323,36.64 Z M28,43.634 L28,32.366 L35.792,38 L28,43.634 L28,43.634 Z" id="Shape" fill="#000000"></path>
    </g>
</svg>