<?xml version="1.0" encoding="UTF-8" standalone="no"?>
<svg width="64px" height="64px" viewBox="0 0 64 64" version="1.1" xmlns="http://www.w3.org/2000/svg" xmlns:xlink="http://www.w3.org/1999/xlink">
    <!-- Generator: Sketch 3.7.2 (28276) - http://www.bohemiancoding.com/sketch -->
    <title>vid-drama</title>
    <desc>Created with Sketch.</desc>
    <defs></defs>
    <g id="64px-Line" stroke="none" stroke-width="1" fill="none" fill-rule="evenodd">
        <g id="vid-drama"></g>
        <path d="M37.889,59.932 C38.266,59.976 38.667,59.998 39.09,59.998 C44.874,59.998 54.497,55.796 55.675,46.328 L57.992,27.703 C58.03,27.396 57.925,27.089 57.705,26.871 C57.499,26.666 52.551,21.849 42.758,20.694 C32.969,19.541 26.986,23.064 26.736,23.215 C26.473,23.373 26.298,23.644 26.26,23.948 L23.943,42.574 C23.462,46.443 24.525,50.17 27.018,53.351 C30.161,57.363 34.856,59.574 37.889,59.932 L37.889,59.932 Z M25.927,42.821 L28.181,24.709 C29.629,23.985 34.806,21.768 42.524,22.681 C50.184,23.583 54.701,26.935 55.943,27.978 L53.691,46.082 C52.604,54.816 42.839,58.501 38.124,57.945 C35.49,57.634 31.384,55.678 28.593,52.119 C27.087,50.199 25.403,47.028 25.927,42.821 L25.927,42.821 Z" id="Shape" fill="#000000"></path>
        <path d="M33.669,47.178 C33.306,46.764 32.677,46.724 32.261,47.086 C31.845,47.449 31.803,48.081 32.166,48.497 C32.26,48.604 34.515,51.135 38.919,51.653 C39.44,51.715 39.939,51.742 40.412,51.742 C43.946,51.742 46.14,50.233 46.243,50.161 C46.693,49.845 46.801,49.225 46.487,48.773 C46.173,48.322 45.549,48.21 45.097,48.521 C45.074,48.537 42.758,50.088 39.153,49.667 C35.566,49.245 33.703,47.216 33.669,47.178 L33.669,47.178 Z" id="Shape" fill="#000000"></path>
        <path d="M32.118,33.788 C32.158,33.762 33.103,33.119 34.732,33.311 C36.361,33.502 37.116,34.341 37.138,34.367 C37.336,34.605 37.621,34.728 37.909,34.728 C38.134,34.728 38.36,34.653 38.547,34.498 C38.972,34.144 39.03,33.515 38.678,33.09 C38.553,32.94 37.386,31.61 34.967,31.325 C32.549,31.035 31.098,32.055 30.94,32.173 C30.501,32.497 30.41,33.111 30.728,33.556 C31.046,34.001 31.668,34.104 32.118,33.788 L32.118,33.788 Z" id="Shape" fill="#000000"></path>
        <path d="M44.878,35.284 C44.916,35.258 45.827,34.615 47.482,34.814 C49.131,35.008 49.858,35.835 49.878,35.858 C50.076,36.103 50.365,36.231 50.658,36.231 C50.878,36.231 51.099,36.159 51.284,36.01 C51.715,35.663 51.782,35.034 51.436,34.604 C51.314,34.453 50.175,33.117 47.715,32.828 C45.26,32.541 43.83,33.567 43.674,33.685 C43.24,34.017 43.159,34.63 43.484,35.07 C43.811,35.51 44.436,35.602 44.878,35.284 L44.878,35.284 Z" id="Shape" fill="#000000"></path>
        <path d="M33.812,10.221 L34.766,17.738 C34.836,18.286 35.337,18.667 35.884,18.604 C36.432,18.535 36.82,18.034 36.75,17.486 L35.73,9.454 C35.691,9.149 35.515,8.88 35.252,8.723 C35.001,8.573 29.008,5.06 19.224,6.241 C9.435,7.421 4.497,12.25 4.292,12.455 C4.072,12.674 3.967,12.981 4.006,13.289 L6.367,31.908 C7.373,39.839 14.277,44.379 20.675,45.361 C20.726,45.369 20.778,45.373 20.827,45.373 C21.312,45.373 21.738,45.019 21.814,44.524 C21.898,43.978 21.523,43.468 20.977,43.384 C16.758,42.736 9.35,39.536 8.351,31.655 L6.055,13.554 C7.289,12.507 11.768,9.153 19.461,8.226 C27.139,7.302 32.358,9.503 33.812,10.221 L33.812,10.221 Z" id="Shape" fill="#000000"></path>
        <path d="M16.646,37.961 C16.923,37.961 17.199,37.847 17.397,37.624 C17.413,37.606 19.023,35.828 22.142,35.234 C22.684,35.13 23.04,34.607 22.937,34.064 C22.833,33.523 22.318,33.168 21.767,33.269 C17.934,33.999 15.973,36.213 15.891,36.307 C15.531,36.722 15.575,37.349 15.988,37.712 C16.177,37.879 16.411,37.961 16.646,37.961 L16.646,37.961 Z" id="Shape" fill="#000000"></path>
        <path d="M18.539,20.622 C18.866,20.177 18.77,19.551 18.326,19.224 C18.167,19.108 16.711,18.098 14.295,18.386 C11.878,18.678 10.714,20.009 10.59,20.16 C10.241,20.581 10.301,21.198 10.717,21.553 C10.904,21.712 11.133,21.789 11.362,21.789 C11.643,21.789 11.924,21.672 12.123,21.444 C12.154,21.409 12.907,20.568 14.535,20.372 C16.178,20.172 17.113,20.814 17.141,20.835 C17.586,21.161 18.211,21.067 18.539,20.622 L18.539,20.622 Z" id="Shape" fill="#000000"></path>
        <path d="M24.104,20.262 C24.397,20.262 24.688,20.134 24.885,19.888 C24.892,19.879 25.635,19.035 27.28,18.837 C28.933,18.636 29.847,19.272 29.874,19.29 C30.312,19.625 30.941,19.54 31.274,19.099 C31.609,18.66 31.523,18.033 31.083,17.699 C30.928,17.58 29.492,16.553 27.042,16.851 C24.583,17.148 23.446,18.485 23.325,18.636 C22.979,19.068 23.049,19.697 23.479,20.042 C23.664,20.189 23.886,20.262 24.104,20.262 L24.104,20.262 Z" id="Shape" fill="#000000"></path>
    </g>
</svg>