<?xml version="1.0" encoding="UTF-8" standalone="no"?>
<svg width="44px" height="44px" viewBox="0 0 44 44" version="1.1" xmlns="http://www.w3.org/2000/svg" xmlns:xlink="http://www.w3.org/1999/xlink">
    <!-- Generator: Sketch 3.7.2 (28276) - http://www.bohemiancoding.com/sketch -->
    <title>vid-tv-internet</title>
    <desc>Created with Sketch.</desc>
    <defs></defs>
    <g id="44px-Glyph" stroke="none" stroke-width="1" fill="none" fill-rule="evenodd">
        <g id="vid-tv-internet" fill="#000000">
            <path d="M22.5586,20.2285 L23.3746,17.9625 L23.3746,17.9605 C23.5646,17.4355 23.5286,16.9105 23.2786,16.5545 C22.9566,16.0965 22.3366,16.0015 21.8726,16.0015 C20.2326,16.0015 17.6296,17.2405 17.6296,20.5665 C17.6296,22.1105 18.6396,22.4345 19.4866,22.4345 C20.9186,22.4345 22.1356,21.3025 22.5556,20.2365 C22.5566,20.2345 22.5576,20.2305 22.5586,20.2285" id="Fill-200"></path>
            <path d="M24.2744,21.8457 L24.2754,21.8457 C24.2914,21.8457 24.3184,21.8497 24.3534,21.8517 C24.8034,21.8807 25.6494,21.5217 26.4304,20.7847 C27.4274,19.8457 28.0004,18.6127 28.0004,17.4007 C28.0004,14.0697 25.3424,11.9997 21.0664,11.9997 C16.7024,11.9997 14.0004,15.6337 14.0004,18.9997 C14.0004,22.3667 16.7024,25.9997 21.0664,25.9997 C25.3154,25.9997 27.4454,23.3067 27.5344,23.1927 C27.8704,22.7577 28.4954,22.6707 28.9334,23.0077 C29.3714,23.3417 29.4584,23.9647 29.1264,24.4037 C29.0144,24.5497 26.3424,27.9997 21.0664,27.9997 C15.4664,27.9997 12.0004,23.3277 12.0004,18.9997 C12.0004,14.6717 15.4664,9.9997 21.0664,9.9997 C26.4934,9.9997 30.0004,12.9057 30.0004,17.4007 C30.0004,19.1607 29.1984,20.9257 27.8014,22.2417 C26.6644,23.3137 25.3414,23.9397 24.2334,23.8477 C23.4994,23.8037 23.0544,23.5017 22.7794,23.1897 C21.8444,23.9627 20.6814,24.4347 19.4864,24.4347 C17.5664,24.4347 15.6304,23.2387 15.6304,20.5667 C15.6304,16.3017 18.8464,14.0007 21.8734,14.0007 C22.9334,14.0007 23.8244,14.3327 24.4694,14.9237 L24.5634,14.6607 C24.7504,14.1417 25.3204,13.8677 25.8424,14.0597 C26.3624,14.2457 26.6314,14.8197 26.4444,15.3387 L24.4274,20.9387 C24.3044,21.2577 24.2394,21.6737 24.2744,21.8457 M38.0004,3.9997 L4.0004,3.9997 C1.7944,3.9997 0.0004,5.7937 0.0004,7.9997 L0.0004,29.9997 C0.0004,32.2057 1.7944,33.9997 4.0004,33.9997 L20.0004,33.9997 L20.0004,36.1327 L6.8584,38.0097 C6.3114,38.0877 5.9314,38.5947 6.0094,39.1417 C6.0884,39.6887 6.5894,40.0667 7.1414,39.9907 L21.0004,38.0097 L34.8584,39.9907 C34.9064,39.9967 34.9544,39.9997 35.0014,39.9997 C35.4914,39.9997 35.9194,39.6407 35.9904,39.1417 C36.0684,38.5947 35.6884,38.0877 35.1414,38.0097 L22.0004,36.1327 L22.0004,33.9997 L38.0004,33.9997 C40.2064,33.9997 42.0004,32.2057 42.0004,29.9997 L42.0004,7.9997 C42.0004,5.7937 40.2064,3.9997 38.0004,3.9997" id="Fill-201"></path>
        </g>
    </g>
</svg>