<?xml version="1.0" encoding="UTF-8" standalone="no"?>
<svg width="64px" height="64px" viewBox="0 0 64 64" version="1.1" xmlns="http://www.w3.org/2000/svg" xmlns:xlink="http://www.w3.org/1999/xlink">
    <!-- Generator: Sketch 3.7.2 (28276) - http://www.bohemiancoding.com/sketch -->
    <title>vid-movie-location</title>
    <desc>Created with Sketch.</desc>
    <defs></defs>
    <g id="64px-Line" stroke="none" stroke-width="1" fill="none" fill-rule="evenodd">
        <g id="vid-movie-location"></g>
        <path d="M49,35 C46.794,35 45,36.794 45,39 C45,41.206 46.794,43 49,43 C51.206,43 53,41.206 53,39 C53,36.794 51.206,35 49,35 L49,35 Z M49,41 C47.897,41 47,40.103 47,39 C47,37.897 47.897,37 49,37 C50.103,37 51,37.897 51,39 C51,40.103 50.103,41 49,41 L49,41 Z" id="Shape" fill="#000000"></path>
        <path d="M49,30 C44.038,30 40,34.038 40,39 C40,40.393 40.31,41.729 40.923,42.974 L48.105,57.445 C48.273,57.785 48.62,58 49,58 C49.38,58 49.727,57.785 49.896,57.444 L57.079,42.97 C57.69,41.729 58,40.393 58,39 C58,34.038 53.962,30 49,30 L49,30 Z M55.286,42.085 L49,54.75 L42.715,42.087 C42.241,41.123 42,40.084 42,39 C42,35.14 45.14,32 49,32 C52.86,32 56,35.14 56,39 C56,40.084 55.759,41.123 55.286,42.085 L55.286,42.085 Z" id="Shape" fill="#000000"></path>
        <path d="M47,28.169 C47.552,28.169 48,27.721 48,27.169 L48,16 L53,16 C53.552,16 54,15.552 54,15 L54,9 C54,8.448 53.552,8 53,8 L5,8 C4.448,8 4,8.448 4,9 L4,15 C4,15.552 4.448,16 5,16 L10,16 L10,36 L5,36 C4.448,36 4,36.448 4,37 L4,43 C4,43.552 4.448,44 5,44 L37.684,44 C38.236,44 38.684,43.552 38.684,43 C38.684,42.448 38.236,42 37.684,42 L36,42 L36,38 L37.167,38 C37.719,38 38.167,37.552 38.167,37 C38.167,36.448 37.719,36 37.167,36 L30,36 L30,16 L46,16 L46,27.169 C46,27.722 46.448,28.169 47,28.169 L47,28.169 Z M52,14 L48,14 L48,10 L52,10 L52,14 L52,14 Z M40,10 L40,14 L36,14 L36,10 L40,10 L40,10 Z M18,14 L18,10 L22,10 L22,14 L18,14 L18,14 Z M12,14 L12,10 L16,10 L16,14 L12,14 L12,14 Z M24,10 L28,10 L28,14 L24,14 L24,10 L24,10 Z M6,14 L6,10 L10,10 L10,14 L6,14 L6,14 Z M6,38 L10,38 L10,42 L6,42 L6,38 L6,38 Z M22,38 L22,42 L18,42 L18,38 L22,38 L22,38 Z M28,38 L28,42 L24,42 L24,38 L28,38 L28,38 Z M16,42 L12,42 L12,38 L16,38 L16,42 L16,42 Z M34,38 L34,42 L30,42 L30,38 L34,38 L34,38 Z M28,36 L12,36 L12,16 L28,16 L28,36 L28,36 Z M30,10 L34,10 L34,14 L30,14 L30,10 L30,10 Z M42,14 L42,10 L46,10 L46,14 L42,14 L42,14 Z" id="Shape" fill="#000000"></path>
    </g>
</svg>