<?xml version="1.0" encoding="UTF-8" standalone="no"?>
<svg width="64px" height="64px" viewBox="0 0 64 64" version="1.1" xmlns="http://www.w3.org/2000/svg" xmlns:xlink="http://www.w3.org/1999/xlink">
    <!-- Generator: Sketch 3.7.2 (28276) - http://www.bohemiancoding.com/sketch -->
    <title>vid-usb</title>
    <desc>Created with Sketch.</desc>
    <defs></defs>
    <g id="64px-Line" stroke="none" stroke-width="1" fill="none" fill-rule="evenodd">
        <g id="vid-usb"></g>
        <path d="M40.354,6.292 C39.963,5.903 39.332,5.903 38.941,6.292 L29.714,15.499 L29.002,14.788 C27.83,13.619 25.923,13.618 24.751,14.788 L8.004,31.499 C2.855,36.638 2.651,44.944 7.551,50.015 C10.002,52.552 13.294,53.967 16.822,53.999 C16.864,54 16.904,54 16.946,54 C20.428,54 23.698,52.649 26.164,50.188 L27.707,48.649 C28.098,48.259 28.099,47.626 27.709,47.235 C27.319,46.843 26.687,46.843 26.295,47.233 L24.751,48.772 C22.663,50.856 19.895,52 16.945,52 C16.91,52 16.875,52 16.841,51.999 C13.854,51.972 11.066,50.773 8.99,48.625 C4.844,44.335 5.035,37.287 9.417,32.915 L26.164,16.204 C26.557,15.811 27.197,15.811 27.589,16.204 L41.78,30.364 C41.969,30.553 42.074,30.804 42.074,31.072 C42.074,31.34 41.969,31.591 41.779,31.78 L39.263,34.292 C38.872,34.683 38.871,35.315 39.262,35.706 C39.653,36.099 40.285,36.097 40.676,35.708 L43.192,33.196 C43.761,32.629 44.074,31.875 44.074,31.072 C44.074,30.269 43.761,29.515 43.192,28.948 L42.483,28.24 L51.707,19.036 C51.895,18.848 52,18.594 52,18.328 C52,18.062 51.895,17.807 51.707,17.62 L40.354,6.292 L40.354,6.292 Z M41.066,26.827 L31.13,16.912 L39.647,8.413 L49.584,18.328 L41.066,26.827 L41.066,26.827 Z" id="Shape" fill="#000000"></path>
        <path d="M38.941,11.956 L34.684,16.204 C34.496,16.392 34.391,16.646 34.391,16.912 C34.391,17.178 34.496,17.433 34.684,17.62 L36.103,19.036 C36.298,19.23 36.554,19.328 36.81,19.328 C37.066,19.328 37.323,19.23 37.518,19.034 C37.908,18.643 37.907,18.011 37.517,17.62 L36.807,16.912 L39.649,14.077 L40.361,14.788 C40.752,15.178 41.385,15.178 41.776,14.786 C42.166,14.395 42.165,13.763 41.775,13.372 L40.356,11.956 C39.963,11.567 39.332,11.567 38.941,11.956 L38.941,11.956 Z" id="Shape" fill="#000000"></path>
        <path d="M38.647,21.16 C38.647,21.426 38.752,21.681 38.94,21.868 L40.359,23.284 C40.554,23.478 40.81,23.576 41.066,23.576 C41.322,23.576 41.579,23.478 41.774,23.282 C42.164,22.891 42.163,22.259 41.773,21.868 L41.063,21.16 L43.905,18.325 L44.617,19.036 C45.008,19.425 45.641,19.426 46.032,19.034 C46.422,18.643 46.421,18.011 46.031,17.62 L44.612,16.204 C44.222,15.816 43.59,15.814 43.199,16.204 L38.942,20.452 C38.753,20.64 38.647,20.895 38.647,21.16 L38.647,21.16 Z" id="Shape" fill="#000000"></path>
        <path d="M30,39 L30,59 C30,59.553 30.448,60 31,60 L57,60 C57.552,60 58,59.553 58,59 L58,39 C58,38.447 57.552,38 57,38 L31,38 C30.448,38 30,38.447 30,39 L30,39 Z M32,40 L56,40 L56,58 L32,58 L32,40 L32,40 Z" id="Shape" fill="#000000"></path>
        <path d="M42.431,42.338 C41.99,41.975 41.398,41.899 40.887,42.139 C40.348,42.393 40,42.959 40,43.581 L40,54.419 C40,55.041 40.348,55.607 40.887,55.861 C41.088,55.955 41.3,56.001 41.51,56.001 C41.835,56.001 42.154,55.891 42.407,55.682 L49.427,50.244 C49.792,49.943 50.001,49.49 50.001,49.001 C50.001,48.512 49.792,48.059 49.403,47.738 L42.431,42.338 L42.431,42.338 Z M42,53.467 L42,44.534 L47.766,49 L42,53.467 L42,53.467 Z" id="Shape" fill="#000000"></path>
    </g>
</svg>