<?xml version="1.0" encoding="UTF-8" standalone="no"?>
<svg width="64px" height="64px" viewBox="0 0 64 64" version="1.1" xmlns="http://www.w3.org/2000/svg" xmlns:xlink="http://www.w3.org/1999/xlink">
    <!-- Generator: Sketch 3.7.2 (28276) - http://www.bohemiancoding.com/sketch -->
    <title>vid-player-vhs</title>
    <desc>Created with Sketch.</desc>
    <defs></defs>
    <g id="64px-Line" stroke="none" stroke-width="1" fill="none" fill-rule="evenodd">
        <g id="vid-player-vhs"></g>
        <path d="M57,40 L7,40 C6.447,40 6,40.447 6,41 L6,57 C6,57.553 6.447,58 7,58 L12.184,58 C12.598,59.162 13.698,60 15,60 C16.302,60 17.402,59.162 17.816,58 L46.185,58 C46.599,59.162 47.699,60 49.001,60 C50.303,60 51.403,59.162 51.817,58 L57,58 C57.553,58 58,57.553 58,57 L58,41 C58,40.447 57.553,40 57,40 L57,40 Z M56,56 L8,56 L8,42 L56,42 L56,56 L56,56 Z" id="Shape" fill="#000000"></path>
        <path d="M15,52 C16.654,52 18,50.654 18,49 C18,47.346 16.654,46 15,46 C13.346,46 12,47.346 12,49 C12,50.654 13.346,52 15,52 L15,52 Z M15,48 C15.552,48 16,48.448 16,49 C16,49.552 15.552,50 15,50 C14.448,50 14,49.552 14,49 C14,48.448 14.448,48 15,48 L15,48 Z" id="Shape" fill="#000000"></path>
        <path d="M27,52 L51,52 C51.553,52 52,51.553 52,51 L52,47 C52,46.447 51.553,46 51,46 L27,46 C26.447,46 26,46.447 26,47 L26,51 C26,51.553 26.447,52 27,52 L27,52 Z M28,48 L50,48 L50,50 L28,50 L28,48 L28,48 Z" id="Shape" fill="#000000"></path>
        <path d="M51,34 C52.654,34 54,32.654 54,31 L54,9 C54,7.346 52.654,6 51,6 L13,6 C11.346,6 10,7.346 10,9 L10,31 C10,32.654 11.346,34 13,34 L51,34 L51,34 Z M40,26 L40,14 L42,14 C45.309,14 48,16.691 48,20 C48,23.309 45.309,26 42,26 L40,26 L40,26 Z M26,26 L26,14 L38,14 L38,26 L26,26 L26,26 Z M22,26 C18.691,26 16,23.309 16,20 C16,16.691 18.691,14 22,14 L24,14 L24,26 L22,26 L22,26 Z M12,14 L16.726,14 C15.059,15.467 14,17.61 14,20 C14,22.39 15.059,24.533 16.726,26 L12,26 L12,14 L12,14 Z M50,20 C50,17.61 48.941,15.467 47.274,14 L52,14 L52,26 L47.274,26 C48.941,24.533 50,22.39 50,20 L50,20 Z M13,8 L51,8 C51.552,8 52,8.448 52,9 L52,12 L12,12 L12,9 C12,8.448 12.448,8 13,8 L13,8 Z M12,31 L12,28 L52,28 L52,31 C52,31.552 51.552,32 51,32 L13,32 C12.448,32 12,31.552 12,31 L12,31 Z" id="Shape" fill="#000000"></path>
    </g>
</svg>