<?xml version="1.0" encoding="UTF-8" standalone="no"?>
<svg width="64px" height="64px" viewBox="0 0 64 64" version="1.1" xmlns="http://www.w3.org/2000/svg" xmlns:xlink="http://www.w3.org/1999/xlink">
    <!-- Generator: Sketch 3.7.2 (28276) - http://www.bohemiancoding.com/sketch -->
    <title>vid-movie</title>
    <desc>Created with Sketch.</desc>
    <defs></defs>
    <g id="64px-Line" stroke="none" stroke-width="1" fill="none" fill-rule="evenodd">
        <g id="vid-movie"></g>
        <path d="M15,4 L9,4 C8.448,4 8,4.447 8,5 L8,59 C8,59.553 8.448,60 9,60 L15,60 C15.552,60 16,59.553 16,59 L16,54 L46,54 L46,59 C46,59.553 46.448,60 47,60 L53,60 C53.552,60 54,59.553 54,59 L54,5 C54,4.447 53.552,4 53,4 L47,4 C46.448,4 46,4.447 46,5 L46,10 L16,10 L16,5 C16,4.447 15.552,4 15,4 L15,4 Z M14,6 L14,10 L10,10 L10,6 L14,6 L14,6 Z M14,42 L14,46 L10,46 L10,42 L14,42 L14,42 Z M10,40 L10,36 L14,36 L14,40 L10,40 L10,40 Z M14,34 L10,34 L10,30 L14,30 L14,34 L14,34 Z M10,28 L10,24 L14,24 L14,28 L10,28 L10,28 Z M14,22 L10,22 L10,18 L14,18 L14,22 L14,22 Z M10,48 L14,48 L14,52 L10,52 L10,48 L10,48 Z M14,16 L10,16 L10,12 L14,12 L14,16 L14,16 Z M14,58 L10,58 L10,54 L14,54 L14,58 L14,58 Z M16,52 L16,34 L46,34 L46,52 L16,52 L16,52 Z M48,22 L48,18 L52,18 L52,22 L48,22 L48,22 Z M52,24 L52,28 L48,28 L48,24 L52,24 L52,24 Z M48,30 L52,30 L52,34 L48,34 L48,30 L48,30 Z M52,36 L52,40 L48,40 L48,36 L52,36 L52,36 Z M48,42 L52,42 L52,46 L48,46 L48,42 L48,42 Z M48,48 L52,48 L52,52 L48,52 L48,48 L48,48 Z M52,16 L48,16 L48,12 L52,12 L52,16 L52,16 Z M48,58 L48,54 L52,54 L52,58 L48,58 L48,58 Z M48,6 L52,6 L52,10 L48,10 L48,6 L48,6 Z M46,12 L46,32 L16,32 L16,12 L46,12 L46,12 Z" id="Shape" fill="#000000"></path>
    </g>
</svg>