<?xml version="1.0" encoding="UTF-8" standalone="no"?>
<svg width="64px" height="64px" viewBox="0 0 64 64" version="1.1" xmlns="http://www.w3.org/2000/svg" xmlns:xlink="http://www.w3.org/1999/xlink">
    <!-- Generator: Sketch 3.7.2 (28276) - http://www.bohemiancoding.com/sketch -->
    <title>vid-bluray</title>
    <desc>Created with Sketch.</desc>
    <defs></defs>
    <g id="64px-Line" stroke="none" stroke-width="1" fill="none" fill-rule="evenodd">
        <g id="vid-bluray"></g>
        <path d="M54,42 L10,42 C7.794,42 6,43.794 6,46 L6,56 C6,58.206 7.794,60 10,60 L54,60 C56.206,60 58,58.206 58,56 L58,46 C58,43.794 56.206,42 54,42 L54,42 Z M56,56 C56,57.103 55.103,58 54,58 L10,58 C8.897,58 8,57.103 8,56 L8,46 C8,44.897 8.897,44 10,44 L54,44 C55.103,44 56,44.897 56,46 L56,56 L56,56 Z" id="Shape" fill="#000000"></path>
        <path d="M22.701,11.29 C22.563,10.756 22.019,10.435 21.482,10.572 C15.154,12.208 10.208,17.155 8.572,23.483 C8.434,24.018 8.755,24.564 9.29,24.702 C9.374,24.723 9.458,24.734 9.541,24.734 C9.986,24.734 10.392,24.435 10.509,23.984 C11.963,18.36 16.36,13.963 21.984,12.509 C22.518,12.37 22.839,11.824 22.701,11.29 L22.701,11.29 Z" id="Shape" fill="#000000"></path>
        <path d="M26,34 C29.309,34 32,31.309 32,28 C32,24.691 29.309,22 26,22 C22.691,22 20,24.691 20,28 C20,31.309 22.691,34 26,34 L26,34 Z M26,24 C28.206,24 30,25.794 30,28 C30,30.206 28.206,32 26,32 C23.794,32 22,30.206 22,28 C22,25.794 23.794,24 26,24 L26,24 Z" id="Shape" fill="#000000"></path>
        <path d="M26,38 C31.514,38 36,33.514 36,28 C36,22.486 31.514,18 26,18 C20.486,18 16,22.486 16,28 C16,33.514 20.486,38 26,38 L26,38 Z M26,20 C30.411,20 34,23.589 34,28 C34,32.411 30.411,36 26,36 C21.589,36 18,32.411 18,28 C18,23.589 21.589,20 26,20 L26,20 Z" id="Shape" fill="#000000"></path>
        <path d="M42.71,31.299 C42.173,31.16 41.629,31.483 41.491,32.017 C40.893,34.331 39.754,36.522 38.198,38.354 C37.841,38.775 37.892,39.406 38.313,39.764 C38.501,39.924 38.731,40.002 38.96,40.002 C39.243,40.002 39.525,39.882 39.723,39.649 C41.473,37.588 42.755,35.122 43.428,32.518 C43.566,31.982 43.245,31.437 42.71,31.299 L42.71,31.299 Z" id="Shape" fill="#000000"></path>
        <path d="M43.367,39.852 C43.838,40.141 44.453,39.995 44.743,39.525 C46.873,36.067 48,32.082 48,28 C48,15.869 38.131,6 26,6 C13.869,6 4,15.869 4,28 C4,32.181 5.178,36.249 7.406,39.763 C7.596,40.064 7.921,40.228 8.252,40.228 C8.435,40.228 8.62,40.178 8.786,40.073 C9.253,39.777 9.391,39.159 9.096,38.693 C7.07,35.499 6,31.801 6,28 C6,16.972 14.972,8 26,8 C37.028,8 46,16.972 46,28 C46,31.711 44.977,35.333 43.04,38.476 C42.75,38.946 42.897,39.562 43.367,39.852 L43.367,39.852 Z" id="Shape" fill="#000000"></path>
        <path d="M22,54 L20,54 L20,47 C20,46.448 19.552,46 19,46 C18.448,46 18,46.448 18,47 L18,55 C18,55.552 18.448,56 19,56 L22,56 C22.552,56 23,55.552 23,55 C23,54.448 22.552,54 22,54 L22,54 Z" id="Shape" fill="#000000"></path>
        <path d="M29,46 C28.448,46 28,46.448 28,47 L28,53 C28,53.551 27.551,54 27,54 C26.449,54 26,53.551 26,53 L26,47 C26,46.448 25.552,46 25,46 C24.448,46 24,46.448 24,47 L24,53 C24,54.654 25.346,56 27,56 C28.654,56 30,54.654 30,53 L30,47 C30,46.448 29.552,46 29,46 L29,46 Z" id="Shape" fill="#000000"></path>
        <path d="M43,46 C41.346,46 40,47.346 40,49 L40,55 C40,55.552 40.448,56 41,56 C41.552,56 42,55.552 42,55 L42,52 L44,52 L44,55 C44,55.552 44.448,56 45,56 C45.552,56 46,55.552 46,55 L46,49 C46,47.346 44.654,46 43,46 L43,46 Z M42,50 L42,49 C42,48.449 42.449,48 43,48 C43.551,48 44,48.449 44,49 L44,50 L42,50 L42,50 Z" id="Shape" fill="#000000"></path>
        <path d="M13,46 L11,46 C10.448,46 10,46.448 10,47 L10,55 C10,55.552 10.448,56 11,56 L13,56 C14.654,56 16,54.654 16,53 C16,52.229 15.699,51.532 15.22,51 C15.7,50.468 16,49.771 16,49 C16,47.346 14.654,46 13,46 L13,46 Z M12,50 L12,48 L13,48 C13.551,48 14,48.449 14,49 C14,49.551 13.551,50 13,50 L12,50 L12,50 Z M13,54 L12,54 L12,52 L13,52 C13.551,52 14,52.449 14,53 C14,53.551 13.551,54 13,54 L13,54 Z" id="Shape" fill="#000000"></path>
        <path d="M38,49 C38,47.346 36.654,46 35,46 L33,46 C32.448,46 32,46.448 32,47 L32,55 C32,55.552 32.448,56 33,56 C33.552,56 34,55.552 34,55 L34,52 L34.382,52 L36.106,55.447 C36.281,55.798 36.634,56 37.002,56 C37.152,56 37.305,55.966 37.448,55.895 C37.942,55.648 38.142,55.047 37.895,54.553 L36.429,51.622 C37.36,51.111 38,50.134 38,49 L38,49 Z M35,50 L34,50 L34,48 L35,48 C35.551,48 36,48.449 36,49 C36,49.551 35.551,50 35,50 L35,50 Z" id="Shape" fill="#000000"></path>
        <path d="M53.293,46.293 L51,48.586 L48.707,46.293 C48.316,45.902 47.684,45.902 47.293,46.293 C46.902,46.684 46.902,47.316 47.293,47.707 L50,50.414 L50,55 C50,55.552 50.448,56 51,56 C51.552,56 52,55.552 52,55 L52,50.414 L54.707,47.707 C55.098,47.316 55.098,46.684 54.707,46.293 C54.316,45.902 53.684,45.902 53.293,46.293 L53.293,46.293 Z" id="Shape" fill="#000000"></path>
    </g>
</svg>