<?xml version="1.0" encoding="UTF-8" standalone="no"?>
<svg width="64px" height="64px" viewBox="0 0 64 64" version="1.1" xmlns="http://www.w3.org/2000/svg" xmlns:xlink="http://www.w3.org/1999/xlink">
    <!-- Generator: Sketch 3.7.2 (28276) - http://www.bohemiancoding.com/sketch -->
    <title>vid-clapper-3</title>
    <desc>Created with Sketch.</desc>
    <defs></defs>
    <g id="64px-Line" stroke="none" stroke-width="1" fill="none" fill-rule="evenodd">
        <g id="vid-clapper-3"></g>
        <path d="M57,10 L7,10 C6.448,10 6,10.447 6,11 L6,19 L6,27 L6,55 C6,55.553 6.448,56 7,56 L57,56 C57.552,56 58,55.553 58,55 L58,27 L58,19 L58,11 C58,10.447 57.552,10 57,10 L57,10 Z M35.414,26 L41.414,20 L48.586,20 L42.586,26 L35.414,26 L35.414,26 Z M25.414,26 L31.414,20 L38.586,20 L32.586,26 L25.414,26 L25.414,26 Z M15.414,26 L21.414,20 L28.586,20 L22.586,26 L15.414,26 L15.414,26 Z M8,26 L8,20 L18.586,20 L12.586,26 L8,26 L8,26 Z M22.586,12 L28.586,18 L21.414,18 L15.414,12 L22.586,12 L22.586,12 Z M32.586,12 L38.586,18 L31.414,18 L25.414,12 L32.586,12 L32.586,12 Z M42.586,12 L48.586,18 L41.414,18 L35.414,12 L42.586,12 L42.586,12 Z M51.414,20 L56,20 L56,26 L45.414,26 L51.414,20 L51.414,20 Z M56,18 L51.414,18 L45.414,12 L56,12 L56,18 L56,18 Z M12.586,12 L18.586,18 L8,18 L8,12 L12.586,12 L12.586,12 Z M8,54 L8,28 L56,28 L56,54 L8,54 L8,54 Z" id="Shape" fill="#000000"></path>
        <path d="M51,36 L13,36 C12.448,36 12,36.447 12,37 C12,37.553 12.448,38 13,38 L51,38 C51.552,38 52,37.553 52,37 C52,36.447 51.552,36 51,36 L51,36 Z" id="Shape" fill="#000000"></path>
        <path d="M31,42 L13,42 C12.448,42 12,42.447 12,43 C12,43.553 12.448,44 13,44 L31,44 C31.552,44 32,43.553 32,43 C32,42.447 31.552,42 31,42 L31,42 Z" id="Shape" fill="#000000"></path>
    </g>
</svg>