<?xml version="1.0" encoding="UTF-8" standalone="no"?>
<svg width="64px" height="64px" viewBox="0 0 64 64" version="1.1" xmlns="http://www.w3.org/2000/svg" xmlns:xlink="http://www.w3.org/1999/xlink">
    <!-- Generator: Sketch 3.7.2 (28276) - http://www.bohemiancoding.com/sketch -->
    <title>vid-end</title>
    <desc>Created with Sketch.</desc>
    <defs></defs>
    <g id="64px-Line" stroke="none" stroke-width="1" fill="none" fill-rule="evenodd">
        <g id="vid-end"></g>
        <path d="M32.914,30.938 L17.918,20.442 C17.459,20.148 16.981,20 16.5,20 C15.121,20 14,21.121 14,22.5 L14,43.5 C14,44.879 15.121,46 16.5,46 C16.981,46 17.459,45.852 17.953,45.534 L32.904,35.069 C33.59,34.602 34,33.829 34,33 C34,32.17 33.59,31.396 32.914,30.938 L32.914,30.938 Z M31.768,33.423 L16.842,43.872 C16.709,43.957 16.594,44 16.5,44 C16.225,44 16,43.775 16,43.5 L16,22.5 C16,22.225 16.225,22 16.5,22 C16.594,22 16.709,22.043 16.807,22.104 L31.78,32.584 C31.919,32.678 32.001,32.833 32.001,32.999 C32.001,33.165 31.918,33.321 31.768,33.423 L31.768,33.423 Z" id="Shape" fill="#000000"></path>
        <path d="M31,6 C16.112,6 4,18.112 4,33 C4,47.888 16.112,60 31,60 C45.888,60 58,47.888 58,33 C58,18.112 45.888,6 31,6 L31,6 Z M31,58 C17.215,58 6,46.785 6,33 C6,19.215 17.215,8 31,8 C44.785,8 56,19.215 56,33 C56,46.785 44.785,58 31,58 L31,58 Z" id="Shape" fill="#000000"></path>
        <path d="M39,20 C37.346,20 36,21.346 36,23 L36,43 C36,44.654 37.346,46 39,46 C40.654,46 42,44.654 42,43 L42,23 C42,21.346 40.654,20 39,20 L39,20 Z M40,43 C40,43.552 39.552,44 39,44 C38.448,44 38,43.552 38,43 L38,23 C38,22.448 38.448,22 39,22 C39.552,22 40,22.448 40,23 L40,43 L40,43 Z" id="Shape" fill="#000000"></path>
        <path d="M44,23 L44,43 C44,44.654 45.346,46 47,46 C48.654,46 50,44.654 50,43 L50,23 C50,21.346 48.654,20 47,20 C45.346,20 44,21.346 44,23 L44,23 Z M48,23 L48,43 C48,43.552 47.552,44 47,44 C46.448,44 46,43.552 46,43 L46,23 C46,22.448 46.448,22 47,22 C47.552,22 48,22.448 48,23 L48,23 Z" id="Shape" fill="#000000"></path>
    </g>
</svg>