<?xml version="1.0" encoding="UTF-8" standalone="no"?>
<svg width="64px" height="64px" viewBox="0 0 64 64" version="1.1" xmlns="http://www.w3.org/2000/svg" xmlns:xlink="http://www.w3.org/1999/xlink">
    <!-- Generator: Sketch 3.7.2 (28276) - http://www.bohemiancoding.com/sketch -->
    <title>vid-ticket</title>
    <desc>Created with Sketch.</desc>
    <defs></defs>
    <g id="64px-Line" stroke="none" stroke-width="1" fill="none" fill-rule="evenodd">
        <g id="vid-ticket"></g>
        <path d="M4.293,47.059 L16.941,59.707 C17.332,60.098 17.964,60.098 18.355,59.707 C21.84,56.223 27.51,56.222 30.995,59.707 C31.19,59.902 31.446,60 31.702,60 C31.958,60 32.214,59.902 32.409,59.707 L57.706,34.41 C58.097,34.019 58.097,33.387 57.706,32.996 C54.222,29.511 54.222,23.841 57.706,20.356 C58.097,19.965 58.097,19.333 57.706,18.942 L45.058,6.294 C44.667,5.903 44.035,5.903 43.644,6.294 C40.159,9.778 34.488,9.779 31.004,6.294 C30.613,5.903 29.981,5.903 29.59,6.294 L4.293,31.591 C3.902,31.982 3.902,32.614 4.293,33.005 C7.777,36.49 7.777,42.16 4.293,45.645 C3.902,46.035 3.902,46.668 4.293,47.059 L4.293,47.059 Z M6.382,32.33 L30.329,8.383 C34.367,11.747 40.281,11.747 44.319,8.383 L55.617,19.681 C52.253,23.72 52.253,29.633 55.617,33.671 L31.67,57.618 C27.632,54.255 21.719,54.255 17.68,57.618 L6.382,46.32 C9.746,42.281 9.746,36.368 6.382,32.33 L6.382,32.33 Z" id="Shape" fill="#000000"></path>
        <path d="M22,38.972 L22.008,38.972 L28.561,38.92 L32.373,44.292 C32.562,44.559 32.868,44.713 33.188,44.713 C33.241,44.713 33.294,44.709 33.347,44.7 C33.723,44.639 34.032,44.37 34.144,44.006 L36.056,37.768 L42.294,35.856 C42.658,35.744 42.928,35.436 42.988,35.059 C43.049,34.683 42.89,34.305 42.579,34.084 L37.207,30.272 L37.259,23.72 C37.262,23.341 37.05,22.992 36.712,22.821 C36.373,22.649 35.967,22.684 35.663,22.91 L30.436,26.798 L24.223,24.664 C23.862,24.539 23.461,24.632 23.191,24.903 C22.921,25.173 22.828,25.573 22.952,25.935 L25.086,32.148 L21.198,37.375 C20.971,37.679 20.937,38.086 21.109,38.424 C21.279,38.76 21.624,38.972 22,38.972 L22,38.972 Z M27.005,32.919 C27.202,32.654 27.255,32.31 27.149,31.998 L25.508,27.222 L30.284,28.863 C30.596,28.969 30.941,28.916 31.205,28.719 L35.242,25.716 L35.202,30.78 C35.2,31.107 35.357,31.414 35.623,31.603 L39.762,34.541 L34.96,36.013 C34.643,36.11 34.394,36.359 34.297,36.676 L32.825,41.478 L29.888,37.339 C29.7,37.074 29.396,36.918 29.073,36.918 L29.065,36.918 L24.001,36.958 L27.005,32.919 L27.005,32.919 Z" id="Shape" fill="#000000"></path>
        <path d="M22,46 C22,43.794 20.206,42 18,42 C15.794,42 14,43.794 14,46 C14,48.206 15.794,50 18,50 C20.206,50 22,48.206 22,46 L22,46 Z M16,46 C16,44.897 16.897,44 18,44 C19.103,44 20,44.897 20,46 C20,47.103 19.103,48 18,48 C16.897,48 16,47.103 16,46 L16,46 Z" id="Shape" fill="#000000"></path>
        <path d="M44,24 C46.206,24 48,22.206 48,20 C48,17.794 46.206,16 44,16 C41.794,16 40,17.794 40,20 C40,22.206 41.794,24 44,24 L44,24 Z M44,18 C45.103,18 46,18.897 46,20 C46,21.103 45.103,22 44,22 C42.897,22 42,21.103 42,20 C42,18.897 42.897,18 44,18 L44,18 Z" id="Shape" fill="#000000"></path>
    </g>
</svg>