<?xml version="1.0" encoding="UTF-8" standalone="no"?>
<svg width="64px" height="64px" viewBox="0 0 64 64" version="1.1" xmlns="http://www.w3.org/2000/svg" xmlns:xlink="http://www.w3.org/1999/xlink">
    <!-- Generator: Sketch 3.7.2 (28276) - http://www.bohemiancoding.com/sketch -->
    <title>vid-movie-attach</title>
    <desc>Created with Sketch.</desc>
    <defs></defs>
    <g id="64px-Line" stroke="none" stroke-width="1" fill="none" fill-rule="evenodd">
        <g id="vid-movie-attach"></g>
        <path d="M49.486,33.397 L31.772,50.085 C30.629,51.182 30,52.644 30,54.2 C30,55.756 30.629,57.218 31.772,58.315 C32.939,59.436 34.473,59.996 36.004,59.996 C37.531,59.996 39.057,59.439 40.214,58.328 L52.679,46.773 C53.084,46.398 53.108,45.765 52.733,45.36 C52.357,44.954 51.724,44.932 51.32,45.306 L38.842,56.873 C37.275,58.378 34.724,58.378 33.157,56.873 C32.411,56.156 32,55.207 32,54.201 C32,53.195 32.411,52.245 33.15,51.535 L36.65,48.238 C36.227,48.863 36,49.595 36,50.361 C36,51.405 36.421,52.384 37.186,53.118 C38.737,54.608 41.262,54.609 42.805,53.127 L56.521,40.277 C57.475,39.362 58,38.142 58,36.841 C58,35.54 57.475,34.32 56.521,33.404 C54.58,31.539 51.421,31.54 49.486,33.397 L49.486,33.397 Z M55.145,38.825 L41.429,51.676 C40.642,52.432 39.36,52.432 38.572,51.676 C38.204,51.322 38.001,50.855 38.001,50.361 C38.001,49.867 38.204,49.4 38.562,49.057 L46.683,41.493 C47.087,41.117 47.11,40.484 46.733,40.079 C46.536,39.868 46.269,39.761 46.001,39.761 C45.835,39.761 45.668,39.802 45.519,39.885 L50.866,34.848 C52.043,33.717 53.959,33.717 55.137,34.848 C55.695,35.384 56.001,36.092 56.001,36.843 C56,37.591 55.693,38.298 55.145,38.825 L55.145,38.825 Z" id="Shape" fill="#000000"></path>
        <path d="M5,44 L35,44 L35,44 L35,44 C35.552,44 36,43.552 36,43 L36,38 L41.287,38 C41.839,38 42.287,37.552 42.287,37 C42.287,36.448 41.839,36 41.287,36 L30,36 L30,16 L46,16 L46,31.619 C46,32.171 46.448,32.619 47,32.619 C47.552,32.619 48,32.171 48,31.619 L48,16 L53,16 C53.552,16 54,15.552 54,15 L54,9 C54,8.448 53.552,8 53,8 L5,8 C4.448,8 4,8.448 4,9 L4,15 C4,15.552 4.448,16 5,16 L10,16 L10,36 L5,36 C4.448,36 4,36.448 4,37 L4,43 C4,43.552 4.448,44 5,44 L5,44 Z M22,38 L22,42 L18,42 L18,38 L22,38 L22,38 Z M28,38 L28,42 L24,42 L24,38 L28,38 L28,38 Z M16,42 L12,42 L12,38 L16,38 L16,42 L16,42 Z M34,38 L34,42 L30,42 L30,38 L34,38 L34,38 Z M18,14 L18,10 L22,10 L22,14 L18,14 L18,14 Z M12,14 L12,10 L16,10 L16,14 L12,14 L12,14 Z M24,10 L28,10 L28,14 L24,14 L24,10 L24,10 Z M30,10 L34,10 L34,14 L30,14 L30,10 L30,10 Z M36,10 L40,10 L40,14 L36,14 L36,10 L36,10 Z M42,14 L42,10 L46,10 L46,14 L42,14 L42,14 Z M52,14 L48,14 L48,10 L52,10 L52,14 L52,14 Z M6,14 L6,10 L10,10 L10,14 L6,14 L6,14 Z M12,16 L28,16 L28,36 L12,36 L12,16 L12,16 Z M6,38 L10,38 L10,42 L6,42 L6,38 L6,38 Z" id="Shape" fill="#000000"></path>
    </g>
</svg>