<?xml version="1.0" encoding="UTF-8" standalone="no"?>
<svg width="64px" height="64px" viewBox="0 0 64 64" version="1.1" xmlns="http://www.w3.org/2000/svg" xmlns:xlink="http://www.w3.org/1999/xlink">
    <!-- Generator: Sketch 3.7.2 (28276) - http://www.bohemiancoding.com/sketch -->
    <title>mus-book-music</title>
    <desc>Created with Sketch.</desc>
    <defs></defs>
    <g id="64px-Line" stroke="none" stroke-width="1" fill="none" fill-rule="evenodd">
        <g id="mus-book-music"></g>
        <path d="M55,56 C55.553,56 56,55.552 56,55 L56,7 C56,6.448 55.553,6 55,6 L12,6 C9.794,6 8,7.794 8,10 L8,56 C8,58.206 9.794,60 12,60 L51,60 C51.553,60 52,59.552 52,59 L52,11 C52,10.448 51.553,10 51,10 L10,10 C10,8.897 10.897,8 12,8 L54,8 L54,55 C54,55.552 54.447,56 55,56 L55,56 Z M50,12 L50,58 L12,58 C10.897,58 10,57.103 10,56 L10,12 L50,12 L50,12 Z" id="Shape" fill="#000000"></path>
        <path d="M21,48 C23.944,48 26,46.355 26,44 L26,32.83 L40,30.205 L40,36.5 C40,36.776 39.775,37 39.5,37 L37,37 C34.056,37 32,38.645 32,41 C32,43.355 34.056,45 37,45 C39.944,45 42,43.355 42,41 L42,23 C42,22.703 41.867,22.42 41.639,22.23 C41.41,22.039 41.107,21.963 40.816,22.017 L24.816,25.017 C24.343,25.106 24,25.519 24,26 L24,39.5 C24,39.776 23.775,40 23.5,40 L21,40 C18.056,40 16,41.645 16,44 C16,46.355 18.056,48 21,48 L21,48 Z M40,41 C40,42.476 38.384,43 37,43 C35.616,43 34,42.476 34,41 C34,39.524 35.616,39 37,39 L39.5,39 C39.671,39 39.838,38.983 40,38.95 L40,41 L40,41 Z M40,24.205 L40,28.17 L26,30.795 L26,26.83 L40,24.205 L40,24.205 Z M21,42 L23.5,42 C23.671,42 23.838,41.983 24,41.95 L24,44 C24,45.476 22.384,46 21,46 C19.616,46 18,45.476 18,44 C18,42.524 19.616,42 21,42 L21,42 Z" id="Shape" fill="#000000"></path>
    </g>
</svg>