<?xml version="1.0" encoding="UTF-8" standalone="no"?>
<svg width="64px" height="64px" viewBox="0 0 64 64" version="1.1" xmlns="http://www.w3.org/2000/svg" xmlns:xlink="http://www.w3.org/1999/xlink">
    <!-- Generator: Sketch 3.7.2 (28276) - http://www.bohemiancoding.com/sketch -->
    <title>mus-stereo</title>
    <desc>Created with Sketch.</desc>
    <defs></defs>
    <g id="64px-Line" stroke="none" stroke-width="1" fill="none" fill-rule="evenodd">
        <g id="mus-stereo"></g>
        <path d="M7,52 L57,52 C58.654,52 60,50.654 60,49 L60,23 C60,21.346 58.654,20 57,20 L42,20 L42,15 C42,13.346 40.654,12 39,12 L25,12 C23.346,12 22,13.346 22,15 L22,20 L7,20 C5.346,20 4,21.346 4,23 L4,49 C4,50.654 5.346,52 7,52 L7,52 Z M24,15 C24,14.448 24.449,14 25,14 L39,14 C39.551,14 40,14.448 40,15 L40,20 L24,20 L24,15 L24,15 Z M6,23 C6,22.448 6.449,22 7,22 L57,22 C57.551,22 58,22.448 58,23 L58,49 C58,49.552 57.551,50 57,50 L7,50 C6.449,50 6,49.552 6,49 L6,23 L6,23 Z" id="Shape" fill="#000000"></path>
        <path d="M16,44 C20.411,44 24,40.411 24,36 C24,31.589 20.411,28 16,28 C11.589,28 8,31.589 8,36 C8,40.411 11.589,44 16,44 L16,44 Z M16,30 C19.309,30 22,32.691 22,36 C22,39.309 19.309,42 16,42 C12.691,42 10,39.309 10,36 C10,32.691 12.691,30 16,30 L16,30 Z" id="Shape" fill="#000000"></path>
        <path d="M48,44 C52.411,44 56,40.411 56,36 C56,31.589 52.411,28 48,28 C43.589,28 40,31.589 40,36 C40,40.411 43.589,44 48,44 L48,44 Z M48,30 C51.309,30 54,32.691 54,36 C54,39.309 51.309,42 48,42 C44.691,42 42,39.309 42,36 C42,32.691 44.691,30 48,30 L48,30 Z" id="Shape" fill="#000000"></path>
        <path d="M27,30 L37,30 C37.552,30 38,29.553 38,29 C38,28.447 37.552,28 37,28 L27,28 C26.448,28 26,28.447 26,29 C26,29.553 26.448,30 27,30 L27,30 Z" id="Shape" fill="#000000"></path>
        <path d="M27,44 L37,44 C37.552,44 38,43.553 38,43 C38,42.447 37.552,42 37,42 L27,42 C26.448,42 26,42.447 26,43 C26,43.553 26.448,44 27,44 L27,44 Z" id="Shape" fill="#000000"></path>
        <path d="M27,40 L37,40 C37.552,40 38,39.553 38,39 L38,33 C38,32.447 37.552,32 37,32 L27,32 C26.448,32 26,32.447 26,33 L26,39 C26,39.553 26.448,40 27,40 L27,40 Z M28,34 L36,34 L36,38 L28,38 L28,34 L28,34 Z" id="Shape" fill="#000000"></path>
        <path d="M16,40 C18.206,40 20,38.206 20,36 C20,33.794 18.206,32 16,32 C13.794,32 12,33.794 12,36 C12,38.206 13.794,40 16,40 L16,40 Z M16,34 C17.103,34 18,34.897 18,36 C18,37.103 17.103,38 16,38 C14.897,38 14,37.103 14,36 C14,34.897 14.897,34 16,34 L16,34 Z" id="Shape" fill="#000000"></path>
        <path d="M48,40 C50.206,40 52,38.206 52,36 C52,33.794 50.206,32 48,32 C45.794,32 44,33.794 44,36 C44,38.206 45.794,40 48,40 L48,40 Z M48,34 C49.103,34 50,34.897 50,36 C50,37.103 49.103,38 48,38 C46.897,38 46,37.103 46,36 C46,34.897 46.897,34 48,34 L48,34 Z" id="Shape" fill="#000000"></path>
    </g>
</svg>