<?xml version="1.0" encoding="UTF-8" standalone="no"?>
<svg width="64px" height="64px" viewBox="0 0 64 64" version="1.1" xmlns="http://www.w3.org/2000/svg" xmlns:xlink="http://www.w3.org/1999/xlink">
    <!-- Generator: Sketch 3.7.2 (28276) - http://www.bohemiancoding.com/sketch -->
    <title>mus-maracas</title>
    <desc>Created with Sketch.</desc>
    <defs></defs>
    <g id="64px-Line" stroke="none" stroke-width="1" fill="none" fill-rule="evenodd">
        <g id="mus-maracas"></g>
        <path d="M38,52 C38,56.959 40.719,58 43,58 C45.281,58 48,56.959 48,52 C48,50.472 47.513,49.376 47.041,48.316 C46.529,47.166 46,45.977 46,43.997 C46,40.633 47.17,38.021 48.524,34.997 C50.153,31.359 52,27.235 52,21 C52,11.415 47.351,8 43,8 C38.649,8 34,11.415 34,21 C34,27.179 35.842,31.307 37.467,34.948 C38.826,37.994 40,40.625 40,43.997 C40,45.95 39.473,47.143 38.962,48.295 C38.489,49.364 38,50.47 38,52 L38,52 Z M40.791,49.104 C41.357,47.824 42,46.373 42,43.997 C42,40.199 40.686,37.253 39.293,34.133 C37.674,30.505 36,26.753 36,21 C36,10.793 41.357,10 43,10 C47.383,10 50,14.112 50,21 C50,26.808 48.321,30.555 46.699,34.179 C45.31,37.279 44,40.206 44,43.997 C44,46.402 44.645,47.851 45.214,49.129 C45.653,50.117 46,50.897 46,52 C46,55.516 44.559,56 43,56 C41.441,56 40,55.516 40,52 C40,50.892 40.35,50.104 40.791,49.104 L40.791,49.104 Z" id="Shape" fill="#000000"></path>
        <path d="M30,21 C30,11.415 25.351,8 21,8 C16.649,8 12,11.415 12,21 C12,27.179 13.842,31.307 15.467,34.948 C16.826,37.994 18,40.625 18,43.997 C18,45.95 17.473,47.143 16.962,48.295 C16.489,49.364 16,50.47 16,52 C16,56.959 18.719,58 21,58 C23.281,58 26,56.959 26,52 C26,50.472 25.513,49.376 25.041,48.316 C24.529,47.166 24,45.977 24,43.997 C24,40.633 25.17,38.021 26.524,34.997 C28.153,31.359 30,27.235 30,21 L30,21 Z M22,43.997 C22,46.402 22.645,47.851 23.214,49.129 C23.653,50.117 24,50.897 24,52 C24,55.516 22.559,56 21,56 C19.441,56 18,55.516 18,52 C18,50.892 18.35,50.104 18.791,49.104 C19.357,47.824 20,46.373 20,43.997 C20,40.199 18.686,37.253 17.293,34.133 C15.674,30.505 14,26.753 14,21 C14,10.793 19.357,10 21,10 C25.383,10 28,14.112 28,21 C28,26.808 26.321,30.555 24.699,34.179 C23.311,37.279 22,40.206 22,43.997 L22,43.997 Z" id="Shape" fill="#000000"></path>
        <path d="M40.318,13.269 C38.229,15.216 38.017,20.388 38,20.971 C37.984,21.523 38.418,21.984 38.97,22 L39.001,22 C39.539,22 39.983,21.572 40,21.03 C40.057,19.147 40.564,15.773 41.682,14.731 C42.086,14.355 42.109,13.722 41.732,13.318 C41.354,12.914 40.722,12.892 40.318,13.269 L40.318,13.269 Z" id="Shape" fill="#000000"></path>
        <path d="M18.318,13.269 C16.229,15.216 16.017,20.388 16,20.971 C15.984,21.523 16.418,21.984 16.97,22 L17.001,22 C17.539,22 17.983,21.572 18,21.03 C18.057,19.147 18.564,15.773 19.682,14.731 C20.086,14.355 20.109,13.722 19.732,13.318 C19.354,12.914 18.722,12.892 18.318,13.269 L18.318,13.269 Z" id="Shape" fill="#000000"></path>
        <path d="M11.087,12.089 C10.583,11.86 9.991,12.085 9.764,12.588 C8.61,15.138 8,18.046 8,21 C8,23.958 8.61,26.868 9.764,29.418 C9.931,29.788 10.295,30.006 10.676,30.006 C10.814,30.006 10.953,29.978 11.087,29.917 C11.59,29.689 11.814,29.097 11.586,28.594 C10.549,26.301 10,23.675 10,21 C10,18.329 10.549,15.705 11.586,13.412 C11.813,12.909 11.59,12.316 11.087,12.089 L11.087,12.089 Z" id="Shape" fill="#000000"></path>
        <path d="M5.731,27.999 C5.812,27.999 5.894,27.989 5.975,27.969 C6.511,27.835 6.836,27.291 6.702,26.756 C6.236,24.899 6,22.963 6,21 C6,19.053 6.232,17.134 6.69,15.294 C6.823,14.758 6.497,14.215 5.961,14.082 C5.425,13.945 4.883,14.274 4.749,14.811 C4.252,16.809 4,18.891 4,21 C4,23.127 4.257,25.228 4.763,27.242 C4.877,27.696 5.284,27.999 5.731,27.999 L5.731,27.999 Z" id="Shape" fill="#000000"></path>
        <path d="M52.913,29.911 C53.047,29.972 53.186,30 53.324,30 C53.705,30 54.069,29.782 54.236,29.412 C55.389,26.862 56,23.952 56,20.994 C56,18.04 55.39,15.132 54.236,12.582 C54.008,12.079 53.417,11.855 52.913,12.083 C52.41,12.311 52.186,12.903 52.414,13.406 C53.451,15.699 54,18.323 54,20.994 C54,23.669 53.451,26.295 52.414,28.588 C52.187,29.091 52.41,29.684 52.913,29.911 L52.913,29.911 Z" id="Shape" fill="#000000"></path>
        <path d="M58.039,14.077 C57.503,14.21 57.177,14.753 57.31,15.289 C57.768,17.128 58,19.047 58,20.995 C58,22.958 57.764,24.894 57.298,26.75 C57.163,27.286 57.488,27.829 58.025,27.963 C58.106,27.984 58.188,27.993 58.269,27.993 C58.716,27.993 59.123,27.69 59.238,27.237 C59.744,25.222 60.001,23.122 60.001,20.995 C60.001,18.885 59.749,16.803 59.252,14.806 C59.117,14.269 58.573,13.94 58.039,14.077 L58.039,14.077 Z" id="Shape" fill="#000000"></path>
    </g>
</svg>