<?xml version="1.0" encoding="UTF-8" standalone="no"?>
<svg width="64px" height="64px" viewBox="0 0 64 64" version="1.1" xmlns="http://www.w3.org/2000/svg" xmlns:xlink="http://www.w3.org/1999/xlink">
    <!-- Generator: Sketch 3.7.2 (28276) - http://www.bohemiancoding.com/sketch -->
    <title>mus-tape</title>
    <desc>Created with Sketch.</desc>
    <defs></defs>
    <g id="64px-Line" stroke="none" stroke-width="1" fill="none" fill-rule="evenodd">
        <g id="mus-tape"></g>
        <path d="M57,14 L7,14 C5.346,14 4,15.346 4,17 L4,49 C4,50.654 5.346,52 7,52 L57,52 C58.654,52 60,50.654 60,49 L60,17 C60,15.346 58.654,14 57,14 L57,14 Z M18.443,50 L20.45,44.648 C20.596,44.26 20.971,44 21.386,44 L42.615,44 C43.029,44 43.405,44.261 43.551,44.649 L45.558,50 L18.443,50 L18.443,50 Z M58,49 C58,49.552 57.552,50 57,50 L47.693,50 L45.422,43.947 C44.986,42.782 43.858,42 42.613,42 L21.384,42 C20.14,42 19.011,42.782 18.575,43.946 L16.307,50 L7,50 C6.448,50 6,49.552 6,49 L6,17 C6,16.448 6.448,16 7,16 L57,16 C57.552,16 58,16.448 58,17 L58,49 L58,49 Z" id="Shape" fill="#000000"></path>
        <path d="M37,26 L27,26 C26.447,26 26,26.447 26,27 L26,37 C26,37.553 26.447,38 27,38 L37,38 C37.553,38 38,37.553 38,37 L38,27 C38,26.447 37.553,26 37,26 L37,26 Z M36,36 L28,36 L28,28 L36,28 L36,36 L36,36 Z" id="Shape" fill="#000000"></path>
        <path d="M16,26 C12.691,26 10,28.691 10,32 C10,35.309 12.691,38 16,38 C19.309,38 22,35.309 22,32 C22,28.691 19.309,26 16,26 L16,26 Z M16,36 C13.794,36 12,34.206 12,32 C12,29.794 13.794,28 16,28 C18.206,28 20,29.794 20,32 C20,34.206 18.206,36 16,36 L16,36 Z" id="Shape" fill="#000000"></path>
        <path d="M48,26 C44.691,26 42,28.691 42,32 C42,35.309 44.691,38 48,38 C51.309,38 54,35.309 54,32 C54,28.691 51.309,26 48,26 L48,26 Z M48,36 C45.794,36 44,34.206 44,32 C44,29.794 45.794,28 48,28 C50.206,28 52,29.794 52,32 C52,34.206 50.206,36 48,36 L48,36 Z" id="Shape" fill="#000000"></path>
    </g>
</svg>