<?xml version="1.0" encoding="UTF-8" standalone="no"?>
<svg width="64px" height="64px" viewBox="0 0 64 64" version="1.1" xmlns="http://www.w3.org/2000/svg" xmlns:xlink="http://www.w3.org/1999/xlink">
    <!-- Generator: Sketch 3.7.2 (28276) - http://www.bohemiancoding.com/sketch -->
    <title>mus-ipod-nano</title>
    <desc>Created with Sketch.</desc>
    <defs></defs>
    <g id="64px-Line" stroke="none" stroke-width="1" fill="none" fill-rule="evenodd">
        <g id="mus-ipod-nano"></g>
        <path d="M10,58 L54,58 C56.206,58 58,56.206 58,54 L58,10 C58,7.794 56.206,6 54,6 L10,6 C7.794,6 6,7.794 6,10 L6,54 C6,56.206 7.794,58 10,58 L10,58 Z M8,10 C8,8.897 8.897,8 10,8 L54,8 C55.103,8 56,8.897 56,10 L56,54 C56,55.103 55.103,56 54,56 L10,56 C8.897,56 8,55.103 8,54 L8,10 L8,10 Z" id="Shape" fill="#000000"></path>
        <path d="M32,54 C44.131,54 54,44.131 54,32 C54,19.869 44.131,10 32,10 C19.869,10 10,19.869 10,32 C10,44.131 19.869,54 32,54 L32,54 Z M32,12 C43.028,12 52,20.972 52,32 C52,43.028 43.028,52 32,52 C20.972,52 12,43.028 12,32 C12,20.972 20.972,12 32,12 L32,12 Z" id="Shape" fill="#000000"></path>
        <path d="M32,46 C39.72,46 46,39.72 46,32 C46,24.28 39.72,18 32,18 C24.28,18 18,24.28 18,32 C18,39.72 24.28,46 32,46 L32,46 Z M32,20 C38.617,20 44,25.383 44,32 C44,38.617 38.617,44 32,44 C25.383,44 20,38.617 20,32 C20,25.383 25.383,20 32,20 L32,20 Z" id="Shape" fill="#000000"></path>
        <path d="M35,36 C35.553,36 36,35.552 36,35 L36,29 C36,28.448 35.553,28 35,28 C34.447,28 34,28.448 34,29 L34,35 C34,35.552 34.447,36 35,36 L35,36 Z" id="Shape" fill="#000000"></path>
        <path d="M39,36 C39.553,36 40,35.552 40,35 L40,29 C40,28.448 39.553,28 39,28 C38.447,28 38,28.448 38,29 L38,35 C38,35.552 38.447,36 39,36 L39,36 Z" id="Shape" fill="#000000"></path>
        <path d="M24.528,36.882 C24.675,36.961 24.838,37 25,37 C25.194,37 25.388,36.943 25.555,36.832 L31.555,32.832 C31.833,32.646 32,32.334 32,32 C32,31.666 31.833,31.354 31.555,31.168 L25.555,27.168 C25.249,26.962 24.853,26.944 24.529,27.118 C24.203,27.292 24,27.631 24,28 L24,36 C24,36.369 24.203,36.708 24.528,36.882 L24.528,36.882 Z M26,29.869 L29.197,32 L26,34.131 L26,29.869 L26,29.869 Z" id="Shape" fill="#000000"></path>
    </g>
</svg>