<?xml version="1.0" encoding="UTF-8" standalone="no"?>
<svg width="64px" height="64px" viewBox="0 0 64 64" version="1.1" xmlns="http://www.w3.org/2000/svg" xmlns:xlink="http://www.w3.org/1999/xlink">
    <!-- Generator: Sketch 3.7.2 (28276) - http://www.bohemiancoding.com/sketch -->
    <title>mus-slider-side</title>
    <desc>Created with Sketch.</desc>
    <defs></defs>
    <g id="64px-Line" stroke="none" stroke-width="1" fill="none" fill-rule="evenodd">
        <g id="mus-slider-side"></g>
        <path d="M57,14 L50,14 L50,11 C50,10.447 49.552,10 49,10 L35,10 C34.448,10 34,10.447 34,11 L34,14 L7,14 C6.448,14 6,14.447 6,15 C6,15.553 6.448,16 7,16 L34,16 L34,19 C34,19.553 34.448,20 35,20 L49,20 C49.552,20 50,19.553 50,19 L50,16 L57,16 C57.552,16 58,15.553 58,15 C58,14.447 57.552,14 57,14 L57,14 Z M48,18 L36,18 L36,12 L48,12 L48,18 L48,18 Z" id="Shape" fill="#000000"></path>
        <path d="M57,32 L30,32 L30,29 C30,28.447 29.552,28 29,28 L15,28 C14.448,28 14,28.447 14,29 L14,32 L7,32 C6.448,32 6,32.447 6,33 C6,33.553 6.448,34 7,34 L14,34 L14,37 C14,37.553 14.448,38 15,38 L29,38 C29.552,38 30,37.553 30,37 L30,34 L57,34 C57.552,34 58,33.553 58,33 C58,32.447 57.552,32 57,32 L57,32 Z M28,36 L16,36 L16,30 L28,30 L28,36 L28,36 Z" id="Shape" fill="#000000"></path>
        <path d="M57,50 L40,50 L40,47 C40,46.447 39.552,46 39,46 L25,46 C24.448,46 24,46.447 24,47 L24,50 L7,50 C6.448,50 6,50.447 6,51 C6,51.553 6.448,52 7,52 L24,52 L24,55 C24,55.553 24.448,56 25,56 L39,56 C39.552,56 40,55.553 40,55 L40,52 L57,52 C57.552,52 58,51.553 58,51 C58,50.447 57.552,50 57,50 L57,50 Z M38,54 L26,54 L26,48 L38,48 L38,54 L38,54 Z" id="Shape" fill="#000000"></path>
    </g>
</svg>