<?xml version="1.0" encoding="UTF-8" standalone="no"?>
<svg width="64px" height="64px" viewBox="0 0 64 64" version="1.1" xmlns="http://www.w3.org/2000/svg" xmlns:xlink="http://www.w3.org/1999/xlink">
    <!-- Generator: Sketch 3.7.2 (28276) - http://www.bohemiancoding.com/sketch -->
    <title>mus-ipod-headphones</title>
    <desc>Created with Sketch.</desc>
    <defs></defs>
    <g id="64px-Line" stroke="none" stroke-width="1" fill="none" fill-rule="evenodd">
        <g id="mus-ipod-headphones"></g>
        <path d="M59.243,34.03 L56,33.219 L56,31 L56,30 C56,16.767 45.233,6 32,6 C18.767,6 8,16.767 8,30 L8,31 L8,33.219 L4.757,34.03 C4.312,34.141 4,34.541 4,35 L4,42 C4,42.459 4.312,42.859 4.757,42.97 L8,43.781 L8,44 C8,46.206 9.794,48 12,48 C14.206,48 16,46.206 16,44 L16,34 C16,31.794 14.206,30 12,30 L10,30 C10,17.869 19.869,8 32,8 C44.131,8 54,17.869 54,30 L52,30 C49.794,30 48,31.794 48,34 L48,44 C48,46.206 49.794,48 52,48 C54.206,48 56,46.206 56,44 L56,43.781 L59.243,42.97 C59.688,42.859 60,42.459 60,42 L60,35 C60,34.541 59.688,34.141 59.243,34.03 L59.243,34.03 Z M6,41.219 L6,35.781 L8,35.281 L8,41.719 L6,41.219 L6,41.219 Z M12,32 C13.103,32 14,32.897 14,34 L14,44 C14,45.103 13.103,46 12,46 C10.897,46 10,45.103 10,44 L10,32 L12,32 L12,32 Z M54,44 C54,45.103 53.103,46 52,46 C50.897,46 50,45.103 50,44 L50,34 C50,32.897 50.897,32 52,32 L54,32 L54,44 L54,44 Z M58,41.219 L56,41.719 L56,35.281 L58,35.781 L58,41.219 L58,41.219 Z" id="Shape" fill="#000000"></path>
        <path d="M40,58 C42.206,58 44,56.206 44,54 L44,24 C44,21.794 42.206,20 40,20 L24,20 C21.794,20 20,21.794 20,24 L20,54 C20,56.206 21.794,58 24,58 L40,58 L40,58 Z M22,54 L22,24 C22,22.897 22.897,22 24,22 L40,22 C41.103,22 42,22.897 42,24 L42,54 C42,55.103 41.103,56 40,56 L24,56 C22.897,56 22,55.103 22,54 L22,54 Z" id="Shape" fill="#000000"></path>
        <path d="M25,36 L39,36 C39.552,36 40,35.552 40,35 L40,25 C40,24.448 39.552,24 39,24 L25,24 C24.448,24 24,24.448 24,25 L24,35 C24,35.552 24.448,36 25,36 L25,36 Z M26,26 L38,26 L38,34 L26,34 L26,26 L26,26 Z" id="Shape" fill="#000000"></path>
        <path d="M32,54 C36.411,54 40,50.411 40,46 C40,41.589 36.411,38 32,38 C27.589,38 24,41.589 24,46 C24,50.411 27.589,54 32,54 L32,54 Z M32,40 C35.309,40 38,42.691 38,46 C38,49.309 35.309,52 32,52 C28.691,52 26,49.309 26,46 C26,42.691 28.691,40 32,40 L32,40 Z" id="Shape" fill="#000000"></path>
        <path d="M32,50 C34.206,50 36,48.206 36,46 C36,43.794 34.206,42 32,42 C29.794,42 28,43.794 28,46 C28,48.206 29.794,50 32,50 L32,50 Z M32,44 C33.103,44 34,44.897 34,46 C34,47.103 33.103,48 32,48 C30.897,48 30,47.103 30,46 C30,44.897 30.897,44 32,44 L32,44 Z" id="Shape" fill="#000000"></path>
    </g>
</svg>