<?xml version="1.0" encoding="UTF-8" standalone="no"?>
<svg width="64px" height="64px" viewBox="0 0 64 64" version="1.1" xmlns="http://www.w3.org/2000/svg" xmlns:xlink="http://www.w3.org/1999/xlink">
    <!-- Generator: Sketch 3.7.2 (28276) - http://www.bohemiancoding.com/sketch -->
    <title>mus-digital-radio</title>
    <desc>Created with Sketch.</desc>
    <defs></defs>
    <g id="64px-Line" stroke="none" stroke-width="1" fill="none" fill-rule="evenodd">
        <g id="mus-digital-radio"></g>
        <path d="M36,44 C33.794,44 32,45.794 32,48 C32,50.206 33.794,52 36,52 C38.206,52 40,50.206 40,48 C40,45.794 38.206,44 36,44 L36,44 Z M36,50 C34.897,50 34,49.103 34,48 C34,46.897 34.897,46 36,46 C37.103,46 38,46.897 38,48 C38,49.103 37.103,50 36,50 L36,50 Z" id="Shape" fill="#000000"></path>
        <path d="M46,44 C43.794,44 42,45.794 42,48 C42,50.206 43.794,52 46,52 C48.206,52 50,50.206 50,48 C50,45.794 48.206,44 46,44 L46,44 Z M46,50 C44.897,50 44,49.103 44,48 C44,46.897 44.897,46 46,46 C47.103,46 48,46.897 48,48 C48,49.103 47.103,50 46,50 L46,50 Z" id="Shape" fill="#000000"></path>
        <path d="M49,30 L33,30 C32.447,30 32,30.448 32,31 L32,39 C32,39.552 32.447,40 33,40 L49,40 C49.553,40 50,39.552 50,39 L50,31 C50,30.448 49.553,30 49,30 L49,30 Z M48,38 L34,38 L34,32 L48,32 L48,38 L48,38 Z" id="Shape" fill="#000000"></path>
        <path d="M45,24 L22.736,24 L44.965,11.19 C45.5,11.688 46.212,12 47,12 C48.654,12 50,10.654 50,9 C50,7.346 48.654,6 47,6 C45.346,6 44,7.346 44,9 C44,9.142 44.023,9.278 44.042,9.415 L18.705,24.016 C9.468,24.174 2,31.726 2,41 C2,47.605 5.794,53.329 11.311,56.142 L10.106,58.553 C9.859,59.047 10.059,59.648 10.553,59.895 C10.697,59.967 10.849,60 10.999,60 C11.366,60 11.719,59.798 11.895,59.447 L13.148,56.94 C14.976,57.614 16.941,58 19,58 L45,58 C47.059,58 49.024,57.614 50.852,56.94 L52.105,59.447 C52.281,59.798 52.633,60 53.001,60 C53.151,60 53.304,59.966 53.447,59.895 C53.941,59.648 54.141,59.047 53.894,58.553 L52.689,56.142 C58.206,53.329 62,47.605 62,41 C62,31.626 54.374,24 45,24 L45,24 Z M47,8 C47.552,8 48,8.449 48,9 C48,9.551 47.552,10 47,10 C46.448,10 46,9.551 46,9 C46,8.449 46.448,8 47,8 L47,8 Z M45,56 L19,56 C10.729,56 4,49.271 4,41 C4,32.729 10.729,26 19,26 L45,26 C53.271,26 60,32.729 60,41 C60,49.271 53.271,56 45,56 L45,56 Z" id="Shape" fill="#000000"></path>
        <path d="M27.763,34.379 C27.738,34.348 27.721,34.312 27.692,34.284 C25.679,31.684 22.536,30 19,30 C15.465,30 12.323,31.683 10.31,34.282 C10.273,34.318 10.249,34.364 10.218,34.406 C8.832,36.245 8,38.524 8,41 C8,43.487 8.839,45.776 10.237,47.621 C10.262,47.652 10.279,47.688 10.308,47.716 C12.321,50.316 15.464,52 19,52 C22.535,52 25.678,50.317 27.691,47.717 C27.724,47.685 27.744,47.644 27.773,47.608 C29.164,45.766 30,43.481 30,41 C30,38.513 29.161,36.224 27.763,34.379 L27.763,34.379 Z M26.478,46 L11.521,46 C11.108,45.384 10.777,44.71 10.524,44 L27.474,44 C27.223,44.71 26.892,45.384 26.478,46 L26.478,46 Z M10.059,42 C10.022,41.671 10,41.338 10,41 C10,40.662 10.022,40.329 10.059,40 L27.941,40 C27.978,40.329 28,40.662 28,41 C28,41.338 27.978,41.671 27.941,42 L10.059,42 L10.059,42 Z M11.522,36 L26.479,36 C26.892,36.616 27.223,37.29 27.476,38 L10.526,38 C10.777,37.29 11.108,36.616 11.522,36 L11.522,36 Z M24.644,34 L13.355,34 C14.9,32.751 16.863,32 18.999,32 C21.135,32 23.099,32.751 24.644,34 L24.644,34 Z M13.356,48 L24.645,48 C23.1,49.249 21.137,50 19.001,50 C16.865,50 14.901,49.249 13.356,48 L13.356,48 Z" id="Shape" fill="#000000"></path>
    </g>
</svg>