<?xml version="1.0" encoding="UTF-8" standalone="no"?>
<svg width="64px" height="64px" viewBox="0 0 64 64" version="1.1" xmlns="http://www.w3.org/2000/svg" xmlns:xlink="http://www.w3.org/1999/xlink">
    <!-- Generator: Sketch 3.7.2 (28276) - http://www.bohemiancoding.com/sketch -->
    <title>mus-speaker</title>
    <desc>Created with Sketch.</desc>
    <defs></defs>
    <g id="64px-Line" stroke="none" stroke-width="1" fill="none" fill-rule="evenodd">
        <g id="mus-speaker"></g>
        <path d="M47,60 C48.654,60 50,58.654 50,57 L50,9 C50,7.346 48.654,6 47,6 L15,6 C13.346,6 12,7.346 12,9 L12,57 C12,58.654 13.346,60 15,60 L47,60 L47,60 Z M14,57 L14,9 C14,8.449 14.448,8 15,8 L47,8 C47.552,8 48,8.449 48,9 L48,57 C48,57.551 47.552,58 47,58 L15,58 C14.448,58 14,57.551 14,57 L14,57 Z" id="Shape" fill="#000000"></path>
        <path d="M22.552,50.034 L21.293,51.293 C20.902,51.684 20.902,52.316 21.293,52.707 C21.488,52.902 21.744,53 22,53 C22.256,53 22.512,52.902 22.707,52.707 L23.966,51.448 C25.874,53.04 28.326,54 31,54 C33.674,54 36.125,53.04 38.034,51.448 L39.293,52.707 C39.488,52.902 39.744,53 40,53 C40.256,53 40.512,52.902 40.707,52.707 C41.098,52.316 41.098,51.684 40.707,51.293 L39.448,50.034 C41.04,48.126 42,45.674 42,43 C42,40.326 41.04,37.875 39.448,35.966 L40.707,34.707 C41.098,34.316 41.098,33.683 40.707,33.293 C40.316,32.902 39.684,32.902 39.293,33.293 L38.034,34.552 C36.126,32.96 33.674,32 31,32 C28.327,32 25.875,32.96 23.966,34.552 L22.707,33.293 C22.316,32.902 21.684,32.902 21.293,33.293 C20.902,33.684 20.902,34.316 21.293,34.707 L22.552,35.966 C20.96,37.875 20,40.327 20,43 C20,45.673 20.96,48.125 22.552,50.034 L22.552,50.034 Z M40,43 C40,47.962 35.963,52 31,52 C26.037,52 22,47.962 22,43 C22,38.038 26.037,34 31,34 C35.963,34 40,38.038 40,43 L40,43 Z" id="Shape" fill="#000000"></path>
        <path d="M31,48 C33.757,48 36,45.757 36,43 C36,40.243 33.757,38 31,38 C28.243,38 26,40.243 26,43 C26,45.757 28.243,48 31,48 L31,48 Z M31,40 C32.654,40 34,41.346 34,43 C34,44.654 32.654,46 31,46 C29.346,46 28,44.654 28,43 C28,41.346 29.346,40 31,40 L31,40 Z" id="Shape" fill="#000000"></path>
        <path d="M31,30 C35.963,30 40,25.962 40,21 C40,16.038 35.963,12 31,12 C26.037,12 22,16.038 22,21 C22,25.962 26.037,30 31,30 L31,30 Z M31,14 C34.859,14 38,17.14 38,21 C38,24.86 34.859,28 31,28 C27.141,28 24,24.86 24,21 C24,17.14 27.141,14 31,14 L31,14 Z" id="Shape" fill="#000000"></path>
        <path d="M31,24 C32.654,24 34,22.654 34,21 C34,19.346 32.654,18 31,18 C29.346,18 28,19.346 28,21 C28,22.654 29.346,24 31,24 L31,24 Z M31,20 C31.552,20 32,20.449 32,21 C32,21.551 31.552,22 31,22 C30.448,22 30,21.551 30,21 C30,20.449 30.448,20 31,20 L31,20 Z" id="Shape" fill="#000000"></path>
    </g>
</svg>