<?xml version="1.0" encoding="UTF-8" standalone="no"?>
<svg width="64px" height="64px" viewBox="0 0 64 64" version="1.1" xmlns="http://www.w3.org/2000/svg" xmlns:xlink="http://www.w3.org/1999/xlink">
    <!-- Generator: Sketch 3.7.2 (28276) - http://www.bohemiancoding.com/sketch -->
    <title>mus-note</title>
    <desc>Created with Sketch.</desc>
    <defs></defs>
    <g id="64px-Line" stroke="none" stroke-width="1" fill="none" fill-rule="evenodd">
        <g id="mus-note"></g>
        <path d="M24,54 C24,51.794 22.206,50 20,50 C17.794,50 16,51.794 16,54 C16,55.141 16.485,56.165 17.254,56.894 C17.265,56.904 17.27,56.918 17.283,56.928 C17.335,56.97 17.386,57.005 17.438,57.045 C17.578,57.163 17.719,57.276 17.873,57.374 C21.373,59.904 24.831,59.997 25.001,60 C25.071,60 32.001,59.897 32.001,51 L32.001,49.973 C37.353,49.695 46.001,47.169 46.001,39 C46.001,36.63 45.226,34.659 43.696,33.143 C40.515,29.988 35.237,30.001 35.001,30 C33.959,30 32.956,30.122 32.001,30.338 L32.001,26.274 C38.247,23.151 44.001,20.131 44.001,15 C44.001,10.848 42.168,6 37.001,6 C31.538,6 30.033,11.88 30.001,15 L30.001,25.038 C23.022,28.527 16.001,32.209 16.001,39 C16.001,47.169 24.649,49.695 30.001,49.973 L30.001,51 C30.001,57.739 25.507,57.993 25.019,58 C24.999,58 23.783,57.964 22.128,57.375 C23.248,56.666 24,55.423 24,54 L24,54 Z M32,15.012 C32.004,14.726 32.149,8 37,8 C41.64,8 42,13.358 42,15 C42,18.712 37.318,21.355 32,24.037 L32,15.012 L32,15.012 Z M32,32.396 C32.939,32.146 33.944,32 35.007,32 L35.009,32 C35.134,32 39.737,32.026 42.293,34.569 C43.426,35.695 44,37.186 44,39 C44,42.667 41.883,45.289 37.706,46.793 C35.495,47.589 33.25,47.86 32,47.953 L32,32.396 L32,32.396 Z M24.294,46.793 C20.117,45.289 18,42.667 18,39 C18,33.684 23.875,30.362 30,27.275 L30,30.949 C25.175,32.816 22,36.958 22,38.999 C22,39.551 22.447,39.999 23,39.999 C23.553,39.999 24,39.551 24,38.999 C24,38.026 26.268,34.836 30,33.118 L30,47.951 C28.749,47.86 26.504,47.589 24.294,46.793 L24.294,46.793 Z M18.574,55.398 C18.22,55.037 18,54.544 18,54 C18,52.897 18.897,52 20,52 C21.103,52 22,52.897 22,54 C22,55.103 21.103,56 20,56 C19.637,56 19.3,55.896 19.006,55.725 C18.862,55.62 18.718,55.513 18.574,55.398 L18.574,55.398 Z" id="Shape" fill="#000000"></path>
    </g>
</svg>