<?xml version="1.0" encoding="UTF-8" standalone="no"?>
<svg width="64px" height="64px" viewBox="0 0 64 64" version="1.1" xmlns="http://www.w3.org/2000/svg" xmlns:xlink="http://www.w3.org/1999/xlink">
    <!-- Generator: Sketch 3.7.2 (28276) - http://www.bohemiancoding.com/sketch -->
    <title>mus-dial</title>
    <desc>Created with Sketch.</desc>
    <defs></defs>
    <g id="64px-Line" stroke="none" stroke-width="1" fill="none" fill-rule="evenodd">
        <g id="mus-dial"></g>
        <path d="M5.691,18.722 C10.208,14.387 16.355,12 23,12 C36.785,12 48,23.215 48,37 C48,42.482 46.259,47.687 42.964,52.05 C42.633,52.488 42.718,53.112 43.154,53.446 L50.142,58.794 C50.317,58.928 50.531,59 50.749,59 C50.793,59 50.837,58.997 50.881,58.991 C51.145,58.956 51.383,58.818 51.544,58.607 C55.767,53.08 57.999,46.473 57.999,39.499 C57.999,22.13 43.868,7.999 26.499,7.999 C18.207,7.999 10.321,11.298 4.293,17.29 C3.904,17.677 3.899,18.306 4.282,18.698 C4.668,19.091 5.296,19.101 5.691,18.722 L5.691,18.722 Z M26.5,10 C42.767,10 56,23.234 56,39.5 C56,45.696 54.119,51.582 50.55,56.588 L45.145,52.451 C48.325,47.908 50,42.588 50,36.999 C50,22.69 38.811,10.945 24.722,10.053 C25.312,10.018 25.905,10 26.5,10 L26.5,10 Z" id="Shape" fill="#000000"></path>
        <path d="M42,37 C42,26.523 33.477,18 23,18 C12.523,18 4,26.523 4,37 C4,47.477 12.523,56 23,56 C33.477,56 42,47.477 42,37 L42,37 Z M6,37 C6,27.626 13.626,20 23,20 C32.374,20 40,27.626 40,37 C40,46.374 32.374,54 23,54 C13.626,54 6,46.374 6,37 L6,37 Z" id="Shape" fill="#000000"></path>
        <path d="M27,34 C27.256,34 27.512,33.902 27.707,33.707 L33.707,27.707 C34.098,27.316 34.098,26.684 33.707,26.293 C33.316,25.902 32.684,25.902 32.293,26.293 L26.293,32.293 C25.902,32.684 25.902,33.316 26.293,33.707 C26.488,33.902 26.744,34 27,34 L27,34 Z" id="Shape" fill="#000000"></path>
    </g>
</svg>