<?xml version="1.0" encoding="UTF-8" standalone="no"?>
<svg width="64px" height="64px" viewBox="0 0 64 64" version="1.1" xmlns="http://www.w3.org/2000/svg" xmlns:xlink="http://www.w3.org/1999/xlink">
    <!-- Generator: Sketch 3.7.2 (28276) - http://www.bohemiancoding.com/sketch -->
    <title>mus-drum-sticks</title>
    <desc>Created with Sketch.</desc>
    <defs></defs>
    <g id="64px-Line" stroke="none" stroke-width="1" fill="none" fill-rule="evenodd">
        <g id="mus-drum-sticks"></g>
        <path d="M4.199,42.327 L6.642,45.598 C6.806,45.818 7.054,45.961 7.326,45.993 C7.365,45.997 7.404,46 7.443,46 C7.676,46 7.902,45.919 8.083,45.768 L45.161,14.866 C45.366,14.928 45.576,14.98 45.796,15.009 C45.981,15.032 46.167,15.044 46.356,15.044 C47.529,15.044 48.757,14.59 49.8,13.756 C51.998,12.001 52.661,9.208 51.309,7.397 C50.749,6.647 49.89,6.163 48.892,6.035 C47.559,5.862 46.099,6.32 44.888,7.286 C43.407,8.469 42.644,10.119 42.704,11.627 L4.393,40.934 C3.958,41.267 3.871,41.888 4.199,42.327 L4.199,42.327 Z M46.136,8.849 C46.817,8.306 47.618,8 48.336,8 C48.438,8 48.539,8.006 48.637,8.019 C48.96,8.061 49.408,8.194 49.706,8.594 C50.385,9.504 49.856,11.152 48.552,12.194 C47.773,12.816 46.836,13.129 46.051,13.025 C45.876,13.003 45.667,12.948 45.463,12.845 C45.45,12.838 45.439,12.828 45.425,12.822 C45.265,12.735 45.109,12.621 44.982,12.45 C44.303,11.541 44.831,9.891 46.136,8.849 L46.136,8.849 Z M43.372,13.634 C43.375,13.638 43.376,13.642 43.379,13.646 C43.395,13.667 43.416,13.683 43.432,13.703 L7.612,43.556 L6.392,41.922 L43.372,13.634 L43.372,13.634 Z" id="Shape" fill="#000000"></path>
        <path d="M54.53,21.32 C55.993,21.32 57.572,20.54 58.713,19.112 C59.68,17.901 60.136,16.442 59.964,15.108 C59.836,14.11 59.352,13.251 58.602,12.691 C56.792,11.338 53.998,12.002 52.243,14.2 C51.276,15.41 50.82,16.87 50.991,18.204 C51.019,18.424 51.072,18.634 51.133,18.839 L20.231,55.917 C20.055,56.128 19.974,56.401 20.006,56.674 C20.038,56.946 20.181,57.194 20.401,57.358 L23.672,59.801 C23.851,59.935 24.061,60 24.269,60 C24.57,60 24.868,59.865 25.064,59.607 L54.362,21.308 C54.419,21.311 54.474,21.32 54.53,21.32 L54.53,21.32 Z M53.806,15.448 C54.539,14.531 55.571,13.997 56.436,13.997 C56.801,13.997 57.136,14.092 57.406,14.294 C57.806,14.593 57.94,15.041 57.981,15.363 C58.082,16.151 57.772,17.086 57.15,17.864 C56.108,19.169 54.461,19.698 53.549,19.018 C53.379,18.891 53.265,18.735 53.177,18.575 C53.17,18.561 53.161,18.55 53.154,18.536 C53.051,18.332 52.997,18.123 52.974,17.949 C52.874,17.162 53.185,16.227 53.806,15.448 L53.806,15.448 Z M24.078,57.607 L22.444,56.387 L52.297,20.567 C52.318,20.583 52.333,20.605 52.354,20.62 C52.358,20.623 52.362,20.624 52.366,20.627 L24.078,57.607 L24.078,57.607 Z" id="Shape" fill="#000000"></path>
    </g>
</svg>