<?xml version="1.0" encoding="UTF-8" standalone="no"?>
<svg width="64px" height="64px" viewBox="0 0 64 64" version="1.1" xmlns="http://www.w3.org/2000/svg" xmlns:xlink="http://www.w3.org/1999/xlink">
    <!-- Generator: Sketch 3.7.2 (28276) - http://www.bohemiancoding.com/sketch -->
    <title>mus-saxophone</title>
    <desc>Created with Sketch.</desc>
    <defs></defs>
    <g id="64px-Line" stroke="none" stroke-width="1" fill="none" fill-rule="evenodd">
        <g id="mus-saxophone"></g>
        <path d="M26,31 C26,30.744 25.902,30.488 25.707,30.293 C25.316,29.902 24.684,29.902 24.293,30.293 L10.293,44.293 C10.098,44.488 10,44.744 10,45 C10,45.256 10.098,45.512 10.293,45.707 C10.684,46.098 11.316,46.098 11.707,45.707 C12.42,44.994 13.58,44.995 14.292,45.707 L25.782,57.218 C27.544,58.98 29.886,59.968 32.378,60 L32.492,60 C34.917,60 37.234,59.029 39.026,57.259 C40.916,55.392 42,52.82 42,50.201 L42,13 C42,12.449 42.449,12 43,12 L47,12 L53,12 C53.348,12 53.67,11.819 53.852,11.523 C54.034,11.227 54.049,10.857 53.892,10.547 C53.797,10.361 51.53,6 47,6 L43,6 C38.038,6 34,10.038 34,15 L34,42.586 L25.707,34.293 C24.994,33.58 24.994,32.42 25.707,31.707 C25.902,31.512 26,31.256 26,31 L26,31 Z M51.055,10 L48,10 L48,8.119 C49.331,8.413 50.362,9.238 51.055,10 L51.055,10 Z M32.586,44 C33.16,44.575 34.017,44.745 34.765,44.434 C35.515,44.123 36,43.398 36,42.586 L36,15 C36,11.14 39.14,8 43,8 L46,8 L46,10 L43,10 C41.346,10 40,11.346 40,13 L40,50.201 C40,52.289 39.133,54.343 37.621,55.836 C36.184,57.255 34.345,58.045 32.404,57.999 C30.437,57.974 28.588,57.194 27.197,55.803 L15.707,44.292 C15.239,43.824 14.679,43.503 14.085,43.328 L23.329,34.084 C23.504,34.678 23.825,35.238 24.293,35.706 L32.586,44 L32.586,44 Z" id="Shape" fill="#000000"></path>
        <path d="M30,29 C30,29.552 30.448,30 31,30 C31.552,30 32,29.552 32,29 L32,27 C32,26.448 31.552,26 31,26 C30.448,26 30,26.448 30,27 L30,29 L30,29 Z" id="Shape" fill="#000000"></path>
        <path d="M30,23 C30,23.552 30.448,24 31,24 C31.552,24 32,23.552 32,23 L32,21 C32,20.448 31.552,20 31,20 C30.448,20 30,20.448 30,21 L30,23 L30,23 Z" id="Shape" fill="#000000"></path>
        <path d="M31,18 C31.552,18 32,17.552 32,17 L32,15 C32,14.448 31.552,14 31,14 C30.448,14 30,14.448 30,15 L30,17 C30,17.552 30.448,18 31,18 L31,18 Z" id="Shape" fill="#000000"></path>
        <path d="M18.293,42.293 C17.902,42.684 17.902,43.316 18.293,43.707 L28.293,53.707 C30.342,55.757 32.075,56.011 32.808,56.011 C32.994,56.011 33.116,55.995 33.162,55.987 C33.695,55.9 34.046,55.407 33.975,54.872 C33.904,54.336 33.394,53.952 32.868,54.009 C32.812,54.018 31.533,54.119 29.707,52.293 L19.707,42.293 C19.316,41.902 18.684,41.902 18.293,42.293 L18.293,42.293 Z" id="Shape" fill="#000000"></path>
    </g>
</svg>