<?xml version="1.0" encoding="UTF-8" standalone="no"?>
<svg width="64px" height="64px" viewBox="0 0 64 64" version="1.1" xmlns="http://www.w3.org/2000/svg" xmlns:xlink="http://www.w3.org/1999/xlink">
    <!-- Generator: Sketch 3.7.2 (28276) - http://www.bohemiancoding.com/sketch -->
    <title>mus-forward</title>
    <desc>Created with Sketch.</desc>
    <defs></defs>
    <g id="64px-Line" stroke="none" stroke-width="1" fill="none" fill-rule="evenodd">
        <g id="mus-forward"></g>
        <path d="M60.245,29.69 L38.299,14.728 C37.545,14.245 36.771,14 36,14 C33.794,14 32,15.794 32,18 L32,33 L32,48 C32,50.206 33.794,52 36,52 C36.771,52 37.545,51.755 38.323,51.256 L60.243,36.313 C61.343,35.567 61.999,34.329 61.999,33.001 C62,31.671 61.343,30.433 60.245,29.69 L60.245,29.69 Z M59.118,34.657 L37.22,49.588 C36.787,49.865 36.388,50 36,50 C34.897,50 34,49.103 34,48 L34,18 C34,16.897 34.897,16 36,16 C36.388,16 36.787,16.135 37.196,16.396 L59.121,31.343 C59.671,31.716 59.999,32.335 59.999,32.999 C59.999,33.663 59.671,34.283 59.118,34.657 L59.118,34.657 Z" id="Shape" fill="#000000"></path>
        <path d="M30.245,29.69 L8.299,14.728 C7.545,14.245 6.771,14 6,14 C3.794,14 2,15.794 2,18 L2,48 C2,50.206 3.794,52 6,52 C6.771,52 7.545,51.755 8.323,51.256 L30.243,36.313 C31.343,35.567 31.999,34.329 31.999,33.001 C32,31.671 31.343,30.433 30.245,29.69 L30.245,29.69 Z M29.118,34.657 L7.22,49.588 C6.787,49.865 6.388,50 6,50 C4.897,50 4,49.103 4,48 L4,18 C4,16.897 4.897,16 6,16 C6.388,16 6.787,16.135 7.196,16.396 L29.121,31.343 C29.671,31.716 29.999,32.335 29.999,32.999 C29.999,33.663 29.671,34.283 29.118,34.657 L29.118,34.657 Z" id="Shape" fill="#000000"></path>
    </g>
</svg>