<?xml version="1.0" encoding="UTF-8" standalone="no"?>
<svg width="64px" height="64px" viewBox="0 0 64 64" version="1.1" xmlns="http://www.w3.org/2000/svg" xmlns:xlink="http://www.w3.org/1999/xlink">
    <!-- Generator: Sketch 3.7.2 (28276) - http://www.bohemiancoding.com/sketch -->
    <title>mus-book-audio</title>
    <desc>Created with Sketch.</desc>
    <defs></defs>
    <g id="64px-Line" stroke="none" stroke-width="1" fill="none" fill-rule="evenodd">
        <g id="mus-book-audio"></g>
        <path d="M53,56 C53.552,56 54,55.552 54,55 L54,7 C54,6.448 53.552,6 53,6 L12,6 C9.794,6 8,7.794 8,10 L8,56 C8,58.206 9.794,60 12,60 L49,60 C49.552,60 50,59.552 50,59 L50,11 C50,10.448 49.552,10 49,10 L10,10 C10,8.897 10.897,8 12,8 L52,8 L52,55 C52,55.552 52.448,56 53,56 L53,56 Z M48,12 L48,58 L12,58 C10.897,58 10,57.103 10,56 L10,12 L48,12 L48,12 Z" id="Shape" fill="#000000"></path>
        <path d="M29,40 C31.757,40 34,37.757 34,35 L34,25 C34,22.243 31.757,20 29,20 C26.243,20 24,22.243 24,25 L24,35 C24,37.757 26.243,40 29,40 L29,40 Z M26,25 C26,23.346 27.346,22 29,22 C30.654,22 32,23.346 32,25 L32,35 C32,36.654 30.654,38 29,38 C27.346,38 26,36.654 26,35 L26,25 L26,25 Z" id="Shape" fill="#000000"></path>
        <path d="M28,43.943 L28,48 L26,48 C25.448,48 25,48.448 25,49 C25,49.552 25.448,50 26,50 L32,50 C32.552,50 33,49.552 33,49 C33,48.448 32.552,48 32,48 L30,48 L30,43.943 C34.493,43.443 38,39.626 38,35.002 L38,31.002 C38,30.45 37.552,30.002 37,30.002 C36.448,30.002 36,30.45 36,31.002 L36,35.002 C36,38.859 32.864,41.997 29.008,42.002 C29.005,42.002 29.003,42.001 29,42.001 C28.997,42.001 28.995,42.002 28.992,42.002 C25.136,41.998 22,38.86 22,35.002 L22,31.002 C22,30.45 21.552,30.002 21,30.002 C20.448,30.002 20,30.45 20,31.002 L20,35.002 C20,39.626 23.507,43.443 28,43.943 L28,43.943 Z" id="Shape" fill="#000000"></path>
    </g>
</svg>