<?xml version="1.0" encoding="UTF-8" standalone="no"?>
<svg width="64px" height="64px" viewBox="0 0 64 64" version="1.1" xmlns="http://www.w3.org/2000/svg" xmlns:xlink="http://www.w3.org/1999/xlink">
    <!-- Generator: Sketch 3.7.2 (28276) - http://www.bohemiancoding.com/sketch -->
    <title>mus-note-3</title>
    <desc>Created with Sketch.</desc>
    <defs></defs>
    <g id="64px-Line" stroke="none" stroke-width="1" fill="none" fill-rule="evenodd">
        <g id="mus-note-3"></g>
        <path d="M48.002,35.062 C48.035,35.59 48.474,36 48.999,36 L49.031,36 C49.571,35.982 50,35.541 50,35.001 L50,31.001 C50,30.648 49.962,22.322 46.682,19.269 C44.563,17.298 42.387,16.722 40.283,16.165 C38.626,15.727 37.06,15.313 35.607,14.206 C32.506,11.844 32.001,6.955 31.996,6.906 C31.991,6.856 31.966,6.814 31.954,6.767 C31.937,6.698 31.924,6.631 31.894,6.569 C31.867,6.513 31.829,6.468 31.793,6.419 C31.753,6.365 31.717,6.311 31.668,6.267 C31.621,6.225 31.567,6.196 31.513,6.163 C31.458,6.129 31.406,6.094 31.344,6.071 C31.283,6.048 31.218,6.043 31.152,6.032 C31.1,6.022 31.054,6 31,6 C30.983,6 30.969,6.009 30.952,6.01 C30.936,6.011 30.922,6.004 30.906,6.005 C30.855,6.01 30.814,6.035 30.766,6.047 C30.698,6.064 30.631,6.077 30.569,6.107 C30.514,6.134 30.469,6.172 30.42,6.208 C30.366,6.248 30.311,6.284 30.266,6.334 C30.224,6.38 30.196,6.433 30.164,6.486 C30.129,6.542 30.094,6.594 30.07,6.657 C30.047,6.719 30.041,6.786 30.031,6.853 C30.023,6.903 30.001,6.948 30.001,7 L30.001,42 C30.001,43.103 29.104,44 28.001,44 L23.001,44 C17.618,44 14.001,46.813 14.001,51 C14.001,55.187 17.618,58 23.001,58 C28.384,58 32.001,55.187 32.001,51 L32.001,22.233 C32.605,23.131 33.382,24.024 34.395,24.795 C36.283,26.233 38.183,26.526 40.021,26.809 C41.862,27.093 43.601,27.361 45.376,28.782 C47.698,30.64 47.999,35.018 48.002,35.062 L48.002,35.062 Z M30,51 C30,54.69 26.229,56 23,56 C19.771,56 16,54.69 16,51 C16,47.31 19.771,46 23,46 L28,46 C28.728,46 29.411,45.805 30,45.463 L30,51 L30,51 Z M35.606,23.205 C32.685,20.98 32.066,17.38 32,16.934 L32,13.065 C32.604,14.063 33.381,15.024 34.394,15.795 C36.165,17.145 37.998,17.629 39.771,18.098 C41.723,18.615 43.568,19.103 45.319,20.733 C46.92,22.222 47.611,25.846 47.869,28.54 C47.515,28.053 47.104,27.602 46.626,27.22 C44.433,25.466 42.251,25.13 40.325,24.833 C38.588,24.565 37.088,24.334 35.606,23.205 L35.606,23.205 Z" id="Shape" fill="#000000"></path>
    </g>
</svg>