<?xml version="1.0" encoding="UTF-8" standalone="no"?>
<svg width="64px" height="64px" viewBox="0 0 64 64" version="1.1" xmlns="http://www.w3.org/2000/svg" xmlns:xlink="http://www.w3.org/1999/xlink">
    <!-- Generator: Sketch 3.7.2 (28276) - http://www.bohemiancoding.com/sketch -->
    <title>mus-levels</title>
    <desc>Created with Sketch.</desc>
    <defs></defs>
    <g id="64px-Line" stroke="none" stroke-width="1" fill="none" fill-rule="evenodd">
        <g id="mus-levels"></g>
        <path d="M17.855,31.015 C18.049,31.297 18.362,31.449 18.68,31.449 C18.875,31.449 19.072,31.392 19.245,31.273 C19.7,30.96 19.815,30.337 19.503,29.882 L16.143,24.992 C15.831,24.537 15.208,24.423 14.752,24.734 C14.297,25.047 14.182,25.67 14.494,26.125 L17.855,31.015 L17.855,31.015 Z" id="Shape" fill="#000000"></path>
        <path d="M25.704,27.594 C25.801,28.067 26.218,28.392 26.683,28.392 C26.75,28.392 26.817,28.386 26.886,28.371 C27.427,28.26 27.775,27.731 27.664,27.19 L26.487,21.467 C26.376,20.926 25.85,20.575 25.306,20.689 C24.765,20.8 24.417,21.329 24.528,21.87 L25.704,27.594 L25.704,27.594 Z" id="Shape" fill="#000000"></path>
        <path d="M21.606,28.95 C21.768,29.33 22.138,29.557 22.526,29.557 C22.657,29.557 22.791,29.531 22.919,29.476 C23.427,29.259 23.663,28.671 23.445,28.164 L21.134,22.758 C20.917,22.25 20.327,22.013 19.822,22.232 C19.314,22.449 19.078,23.037 19.296,23.544 L21.606,28.95 L21.606,28.95 Z" id="Shape" fill="#000000"></path>
        <path d="M14.586,33.715 C14.78,33.905 15.033,34 15.285,34 C15.544,34 15.804,33.899 16,33.699 C16.386,33.304 16.379,32.671 15.984,32.285 L11.698,28.091 C11.305,27.705 10.67,27.712 10.284,28.107 C9.898,28.502 9.905,29.135 10.3,29.521 L14.586,33.715 L14.586,33.715 Z" id="Shape" fill="#000000"></path>
        <path d="M31,28 C31.552,28 32,27.552 32,27 L32,21.169 L32,21 C32,20.448 31.552,20 31,20 C30.448,20 30,20.448 30,21 L30,21.169 L30,27 C30,27.552 30.448,28 31,28 L31,28 Z" id="Shape" fill="#000000"></path>
        <path d="M42.754,31.104 C42.927,31.223 43.124,31.28 43.319,31.28 C43.637,31.28 43.95,31.129 44.144,30.846 L47.504,25.956 C47.816,25.501 47.701,24.878 47.246,24.565 C46.791,24.253 46.168,24.367 45.855,24.823 L42.495,29.713 C42.184,30.168 42.299,30.791 42.754,31.104 L42.754,31.104 Z" id="Shape" fill="#000000"></path>
        <path d="M35.115,28.203 C35.183,28.217 35.251,28.224 35.318,28.224 C35.783,28.224 36.199,27.898 36.297,27.426 L37.474,21.703 C37.585,21.162 37.237,20.633 36.696,20.522 C36.149,20.406 35.626,20.759 35.515,21.3 L34.338,27.023 C34.226,27.562 34.574,28.091 35.115,28.203 L35.115,28.203 Z" id="Shape" fill="#000000"></path>
        <path d="M39.081,29.307 C39.209,29.362 39.342,29.388 39.474,29.388 C39.862,29.388 40.232,29.16 40.394,28.781 L42.705,23.375 C42.922,22.867 42.686,22.279 42.179,22.063 C41.669,21.846 41.083,22.082 40.867,22.589 L38.556,27.995 C38.337,28.502 38.573,29.09 39.081,29.307 L39.081,29.307 Z" id="Shape" fill="#000000"></path>
        <path d="M46,33.53 C46.196,33.73 46.456,33.831 46.715,33.831 C46.967,33.831 47.22,33.736 47.414,33.546 L51.7,29.352 C52.095,28.966 52.102,28.332 51.716,27.938 C51.328,27.542 50.696,27.536 50.302,27.922 L46.016,32.116 C45.62,32.502 45.613,33.135 46,33.53 L46,33.53 Z" id="Shape" fill="#000000"></path>
        <path d="M8,50 L54,50 C56.206,50 58,48.206 58,46 L58,18 C58,15.794 56.206,14 54,14 L8,14 C5.794,14 4,15.794 4,18 L4,46 C4,48.206 5.794,50 8,50 L8,50 Z M35.899,48 L26.101,48 C26.566,45.721 28.585,44 31,44 C33.415,44 35.434,45.721 35.899,48 L35.899,48 Z M6,18 C6,16.897 6.897,16 8,16 L54,16 C55.103,16 56,16.897 56,18 L56,46 C56,47.103 55.103,48 54,48 L37.92,48 C37.681,46.34 36.861,44.871 35.669,43.799 L41.832,34.554 C42.138,34.095 42.014,33.473 41.555,33.167 C41.095,32.859 40.475,32.985 40.168,33.444 L34.006,42.687 C33.094,42.251 32.077,42 31,42 C27.48,42 24.568,44.613 24.08,48 L8,48 C6.897,48 6,47.103 6,46 L6,18 L6,18 Z" id="Shape" fill="#000000"></path>
    </g>
</svg>