<?xml version="1.0" encoding="UTF-8" standalone="no"?>
<svg width="64px" height="64px" viewBox="0 0 64 64" version="1.1" xmlns="http://www.w3.org/2000/svg" xmlns:xlink="http://www.w3.org/1999/xlink">
    <!-- Generator: Sketch 3.7.2 (28276) - http://www.bohemiancoding.com/sketch -->
    <title>mus-guitar</title>
    <desc>Created with Sketch.</desc>
    <defs></defs>
    <g id="64px-Line" stroke="none" stroke-width="1" fill="none" fill-rule="evenodd">
        <g id="mus-guitar"></g>
        <path d="M26,32 C22.691,32 20,34.691 20,38 C20,41.309 22.691,44 26,44 C29.309,44 32,41.309 32,38 C32,34.691 29.309,32 26,32 L26,32 Z M26,42 C23.794,42 22,40.206 22,38 C22,35.794 23.794,34 26,34 C28.206,34 30,35.794 30,38 C30,40.206 28.206,42 26,42 L26,42 Z" id="Shape" fill="#000000"></path>
        <path d="M13.707,44.293 C13.316,43.902 12.684,43.902 12.293,44.293 C11.902,44.684 11.902,45.316 12.293,45.707 L18.293,51.707 C18.488,51.902 18.744,52 19,52 C19.256,52 19.512,51.902 19.707,51.707 C20.098,51.316 20.098,50.684 19.707,50.293 L13.707,44.293 L13.707,44.293 Z" id="Shape" fill="#000000"></path>
        <path d="M29.681,21.501 C26.619,20.331 24.127,20.586 22.474,22.24 C20.838,23.875 20.363,25.229 19.944,26.423 C19.558,27.52 19.226,28.466 18.006,29.687 C16.908,30.785 15.405,31.151 13.664,31.576 C11.492,32.106 9.029,32.706 6.836,34.9 C4.783,36.953 3.744,40.423 4.057,44.184 C4.392,48.217 6.173,52.034 9.071,54.932 C12.559,58.42 17.092,59.992 21.135,59.992 C24.361,59.992 27.276,58.992 29.102,57.166 C31.295,54.973 31.896,52.51 32.426,50.338 C32.85,48.597 33.217,47.094 34.315,45.996 C35.535,44.776 36.482,44.443 37.579,44.058 C38.773,43.639 40.127,43.163 41.762,41.528 C44.637,38.653 42.872,33.468 39.36,29.036 L48.502,19.894 L48.539,19.931 C48.539,19.931 48.539,19.931 48.54,19.932 C48.939,20.331 49.465,20.531 49.991,20.531 C50.516,20.531 51.043,20.331 51.443,19.931 L57.401,13.973 C58.2,13.173 58.2,11.87 57.4,11.07 L52.933,6.603 C52.154,5.825 50.802,5.828 50.029,6.603 L44.071,12.561 C43.27,13.361 43.27,14.664 44.071,15.464 L44.109,15.502 L34.967,24.644 C33.214,23.253 31.377,22.149 29.681,21.501 L29.681,21.501 Z M40.346,40.113 C39.033,41.426 38.051,41.771 36.914,42.17 C35.755,42.577 34.441,43.039 32.899,44.581 C31.405,46.075 30.935,48.001 30.481,49.863 C29.991,51.874 29.483,53.954 27.686,55.751 C24.295,59.142 15.867,58.9 10.483,53.517 C7.92,50.953 6.344,47.58 6.048,44.018 C5.783,40.836 6.606,37.956 8.248,36.314 C10.046,34.517 12.125,34.009 14.137,33.519 C15.999,33.065 17.924,32.595 19.418,31.101 C20.96,29.559 21.422,28.245 21.829,27.086 C22.228,25.949 22.573,24.967 23.887,23.654 C24.526,23.015 25.358,22.784 26.224,22.784 C27.163,22.784 28.144,23.055 28.966,23.369 C31.186,24.217 33.704,25.95 35.877,28.122 C36.355,28.6 36.813,29.101 37.25,29.614 C37.268,29.635 37.275,29.662 37.295,29.682 C37.305,29.692 37.319,29.695 37.33,29.705 C40.538,33.518 42.405,38.053 40.346,40.113 L40.346,40.113 Z M51.517,8.016 L55.985,12.559 L50.029,18.516 C50.008,18.537 49.973,18.538 49.952,18.516 L45.484,13.973 L51.517,8.016 L51.517,8.016 Z M45.521,16.915 L47.086,18.479 L38.056,27.508 C37.806,27.237 37.553,26.968 37.292,26.708 C37.031,26.446 36.762,26.193 36.492,25.943 L45.521,16.915 L45.521,16.915 Z" id="Shape" fill="#000000"></path>
    </g>
</svg>