<?xml version="1.0" encoding="UTF-8" standalone="no"?>
<svg width="64px" height="64px" viewBox="0 0 64 64" version="1.1" xmlns="http://www.w3.org/2000/svg" xmlns:xlink="http://www.w3.org/1999/xlink">
    <!-- Generator: Sketch 3.7.2 (28276) - http://www.bohemiancoding.com/sketch -->
    <title>mus-vol-med</title>
    <desc>Created with Sketch.</desc>
    <defs></defs>
    <g id="64px-Line" stroke="none" stroke-width="1" fill="none" fill-rule="evenodd">
        <g id="mus-vol-med"></g>
        <path d="M12,22 C9.794,22 8,23.794 8,26 L8,38 C8,40.206 9.794,42 12,42 L18.639,42 L37.197,57.398 C37.721,57.792 38.345,58 39,58 C40.654,58 42,56.656 42,55.004 L42,42.377 C45.714,40.231 48,36.313 48,32.001 C48,27.689 45.714,23.77 42,21.625 L42,8.998 C42,7.346 40.654,6.002 39,6.002 C38.345,6.002 37.721,6.21 37.158,6.634 L18.639,22 L12,22 L12,22 Z M46,32 C46,35.184 44.494,38.101 42,39.971 L42,24.03 C44.494,25.899 46,28.816 46,32 L46,32 Z M19.639,23.77 L38.397,8.202 C38.573,8.07 38.781,8 39,8 C39.551,8 40,8.447 40,8.996 L40,55.004 C40,55.553 39.551,56 39,56 C38.781,56 38.573,55.93 38.436,55.829 L19.639,40.23 C19.459,40.081 19.234,40 19,40 L12,40 C10.897,40 10,39.103 10,38 L10,26 C10,24.897 10.897,24 12,24 L19,24 C19.233,24 19.459,23.918 19.639,23.77 L19.639,23.77 Z" id="Shape" fill="#000000"></path>
        <path d="M48.905,42.803 C48.479,43.155 48.418,43.785 48.77,44.211 C48.968,44.451 49.254,44.575 49.542,44.575 C49.766,44.575 49.992,44.5 50.178,44.346 C53.878,41.292 56,36.792 56,32 C56,27.237 53.898,22.754 50.234,19.701 C49.809,19.347 49.179,19.405 48.826,19.829 C48.473,20.253 48.53,20.884 48.954,21.237 C52.161,23.909 54,27.832 54,32 C54,36.193 52.143,40.131 48.905,42.803 L48.905,42.803 Z" id="Shape" fill="#000000"></path>
    </g>
</svg>