<?xml version="1.0" encoding="UTF-8" standalone="no"?>
<svg width="64px" height="64px" viewBox="0 0 64 64" version="1.1" xmlns="http://www.w3.org/2000/svg" xmlns:xlink="http://www.w3.org/1999/xlink">
    <!-- Generator: Sketch 3.7.2 (28276) - http://www.bohemiancoding.com/sketch -->
    <title>mus-end</title>
    <desc>Created with Sketch.</desc>
    <defs></defs>
    <g id="64px-Line" stroke="none" stroke-width="1" fill="none" fill-rule="evenodd">
        <g id="mus-end"></g>
        <path d="M36.223,28.676 L8.299,10.729 C7.545,10.245 6.771,10 6,10 C3.794,10 2,11.794 2,14 L2,50 C2,52.206 3.794,54 6,54 C6.771,54 7.545,53.755 8.301,53.271 L36.244,35.313 C37.344,34.567 38,33.329 38,32.001 C38,30.671 37.343,29.433 36.223,28.676 L36.223,28.676 Z M35.141,33.643 L7.221,51.588 C6.787,51.865 6.388,52 6,52 C4.897,52 4,51.103 4,50 L4,14 C4,12.897 4.897,12 6,12 C6.388,12 6.787,12.135 7.219,12.411 L35.121,30.344 C35.672,30.717 36,31.336 36,32 C36,32.664 35.672,33.283 35.141,33.643 L35.141,33.643 Z" id="Shape" fill="#000000"></path>
        <path d="M58,10 C55.794,10 54,11.794 54,14 L54,50 C54,52.206 55.794,54 58,54 C60.206,54 62,52.206 62,50 L62,14 C62,11.794 60.206,10 58,10 L58,10 Z M60,50 C60,51.103 59.103,52 58,52 C56.897,52 56,51.103 56,50 L56,14 C56,12.897 56.897,12 58,12 C59.103,12 60,12.897 60,14 L60,50 L60,50 Z" id="Shape" fill="#000000"></path>
        <path d="M46,10 C43.794,10 42,11.794 42,14 L42,50 C42,52.206 43.794,54 46,54 C48.206,54 50,52.206 50,50 L50,14 C50,11.794 48.206,10 46,10 L46,10 Z M48,50 C48,51.103 47.103,52 46,52 C44.897,52 44,51.103 44,50 L44,14 C44,12.897 44.897,12 46,12 C47.103,12 48,12.897 48,14 L48,50 L48,50 Z" id="Shape" fill="#000000"></path>
    </g>
</svg>