<?xml version="1.0" encoding="UTF-8" standalone="no"?>
<svg width="64px" height="64px" viewBox="0 0 64 64" version="1.1" xmlns="http://www.w3.org/2000/svg" xmlns:xlink="http://www.w3.org/1999/xlink">
    <!-- Generator: Sketch 3.7.2 (28276) - http://www.bohemiancoding.com/sketch -->
    <title>mus-radio-mic-old</title>
    <desc>Created with Sketch.</desc>
    <defs></defs>
    <g id="64px-Line" stroke="none" stroke-width="1" fill="none" fill-rule="evenodd">
        <g id="mus-radio-mic-old"></g>
        <path d="M27,6 C22.037,6 18,10.037 18,15 L18,31 C18,35.963 22.037,40 27,40 L35,40 C39.963,40 44,35.963 44,31 L44,15 C44,10.037 39.963,6 35,6 L27,6 L27,6 Z M42,15 L42,18 L37,18 C36.447,18 36,18.447 36,19 C36,19.553 36.447,20 37,20 L42,20 L42,22 L37,22 C36.447,22 36,22.447 36,23 C36,23.553 36.447,24 37,24 L42,24 L42,26 L37,26 C36.447,26 36,26.447 36,27 C36,27.553 36.447,28 37,28 L42,28 L42,31 C42,34.859 38.859,38 35,38 L27,38 C23.141,38 20,34.859 20,31 L20,28 L25,28 C25.553,28 26,27.553 26,27 C26,26.447 25.553,26 25,26 L20,26 L20,24 L25,24 C25.553,24 26,23.553 26,23 C26,22.447 25.553,22 25,22 L20,22 L20,20 L25,20 C25.553,20 26,19.553 26,19 C26,18.447 25.553,18 25,18 L20,18 L20,15 C20,11.481 22.614,8.568 26,8.08 L26,13 C26,13.553 26.447,14 27,14 C27.553,14 28,13.553 28,13 L28,8 L30,8 L30,13 C30,13.553 30.447,14 31,14 C31.553,14 32,13.553 32,13 L32,8 L34,8 L34,13 C34,13.553 34.447,14 35,14 C35.553,14 36,13.553 36,13 L36,8.08 C39.386,8.568 42,11.481 42,15 L42,15 Z" id="Shape" fill="#000000"></path>
        <path d="M37,60 C37.553,60 38,59.553 38,59 C38,58.447 37.553,58 37,58 L32,58 L32,44 L36,44 C42.617,44 48,38.617 48,32 L48,23 C48,22.447 47.553,22 47,22 C46.447,22 46,22.447 46,23 L46,32 C46,37.514 41.514,42 36,42 L26,42 C20.486,42 16,37.514 16,32 L16,23 C16,22.447 15.553,22 15,22 C14.447,22 14,22.447 14,23 L14,32 C14,38.617 19.383,44 26,44 L30,44 L30,58 L25,58 C24.447,58 24,58.447 24,59 C24,59.553 24.447,60 25,60 L37,60 L37,60 Z" id="Shape" fill="#000000"></path>
    </g>
</svg>