<?xml version="1.0" encoding="UTF-8" standalone="no"?>
<svg width="64px" height="64px" viewBox="0 0 64 64" version="1.1" xmlns="http://www.w3.org/2000/svg" xmlns:xlink="http://www.w3.org/1999/xlink">
    <!-- Generator: Sketch 3.7.2 (28276) - http://www.bohemiancoding.com/sketch -->
    <title>mus-plug</title>
    <desc>Created with Sketch.</desc>
    <defs></defs>
    <g id="64px-Line" stroke="none" stroke-width="1" fill="none" fill-rule="evenodd">
        <g id="mus-plug"></g>
        <path d="M5.709,20.705 L12.327,14.048 C13.63,12.728 15.36,12 17.201,12 C19.042,12 20.772,12.728 22.075,14.048 C24.773,16.784 24.773,21.236 22.075,23.973 L6.714,39.55 C3.252,43.06 3.252,48.773 6.714,52.283 C8.396,53.988 10.632,54.927 13.012,54.927 C15.392,54.927 17.628,53.988 19.31,52.283 L19.994,51.589 L23.472,55.115 L23.472,55.115 C24.034,55.685 24.784,55.999 25.58,55.999 C26.376,55.999 27.126,55.685 27.688,55.115 L44.445,38.122 C45.597,36.954 45.597,35.054 44.445,33.885 L43.741,33.171 L57.013,19.712 C57.163,19.559 57.261,19.362 57.291,19.15 L57.989,14.193 C58.033,13.881 57.927,13.567 57.705,13.345 C57.48,13.122 57.166,13.019 56.855,13.064 L51.967,13.772 C51.751,13.803 51.552,13.904 51.399,14.06 L43.031,22.546 C43.031,22.546 43.03,22.546 43.03,22.547 C43.03,22.548 43.029,22.548 43.029,22.549 L38.147,27.5 L37.463,26.806 C36.901,26.236 36.151,25.921 35.355,25.921 L35.354,25.921 C34.556,25.921 33.808,26.236 33.247,26.806 L16.489,43.799 C15.337,44.967 15.337,46.868 16.489,48.036 L18.589,50.166 L17.885,50.88 C16.582,52.201 14.852,52.928 13.011,52.928 C11.17,52.928 9.44,52.2 8.137,50.88 C5.439,48.144 5.439,43.692 8.137,40.956 L23.498,25.379 C26.96,21.868 26.96,16.156 23.498,12.646 C21.816,10.941 19.58,10.002 17.2,10.002 C14.82,10.002 12.584,10.941 10.905,12.643 L4.29,19.297 C3.9,19.689 3.902,20.322 4.294,20.711 C4.688,21.1 5.32,21.098 5.709,20.705 L5.709,20.705 Z M47.923,20.435 L50.708,23.259 L47.923,26.083 L45.138,23.259 L47.923,20.435 L47.923,20.435 Z M52.588,15.704 L55.824,15.235 L55.357,18.544 L52.112,21.835 L49.327,19.011 L52.588,15.704 L52.588,15.704 Z M43.734,24.683 L46.519,27.507 L42.338,31.747 L39.553,28.923 L43.734,24.683 L43.734,24.683 Z M17.913,45.203 L34.672,28.209 C34.855,28.023 35.098,27.921 35.355,27.92 L35.356,27.92 C35.614,27.92 35.857,28.023 36.041,28.209 L41.635,33.883 L41.635,33.883 L41.635,33.883 L43.021,35.289 C43.41,35.683 43.41,36.323 43.021,36.717 L26.264,53.71 C25.897,54.083 25.262,54.083 24.895,53.71 L17.913,46.63 C17.524,46.237 17.524,45.596 17.913,45.203 L17.913,45.203 Z" id="Shape" fill="#000000"></path>
    </g>
</svg>