<?xml version="1.0" encoding="UTF-8" standalone="no"?>
<svg width="64px" height="64px" viewBox="0 0 64 64" version="1.1" xmlns="http://www.w3.org/2000/svg" xmlns:xlink="http://www.w3.org/1999/xlink">
    <!-- Generator: Sketch 3.7.2 (28276) - http://www.bohemiancoding.com/sketch -->
    <title>mus-mic-2</title>
    <desc>Created with Sketch.</desc>
    <defs></defs>
    <g id="64px-Line" stroke="none" stroke-width="1" fill="none" fill-rule="evenodd">
        <g id="mus-mic-2"></g>
        <path d="M45.25,27.987 C51.2,27.853 56,22.981 56,17 C56,10.935 51.065,6 45,6 C40.583,6 36.541,8.715 34.847,12.778 L6.364,36.228 C5.968,36.554 5.883,37.127 6.168,37.555 L10.168,43.555 C10.359,43.841 10.675,44 11.001,44 C11.144,44 11.29,43.969 11.426,43.905 L32,34.223 L32,58 L23,58 C22.448,58 22,58.448 22,59 C22,59.552 22.448,60 23,60 L43,60 C43.552,60 44,59.552 44,59 C44,58.448 43.552,58 43,58 L34,58 L34,33.282 L45.25,27.987 L45.25,27.987 Z M45,8 C49.962,8 54,12.038 54,17 C54,21.791 50.234,25.708 45.51,25.974 L36.824,13.292 C38.271,10.114 41.482,8 45,8 L45,8 Z M11.354,41.728 L8.333,37.197 L35.47,14.855 L43.511,26.595 L11.354,41.728 L11.354,41.728 Z" id="Shape" fill="#000000"></path>
        <path d="M20.14,22.852 L22.64,20.769 C23.064,20.415 23.121,19.785 22.768,19.361 C22.414,18.936 21.784,18.879 21.36,19.233 L18.86,21.316 C18.436,21.67 18.379,22.3 18.732,22.724 C18.93,22.961 19.214,23.084 19.501,23.084 C19.726,23.083 19.953,23.007 20.14,22.852 L20.14,22.852 Z" id="Shape" fill="#000000"></path>
    </g>
</svg>