<?xml version="1.0" encoding="UTF-8" standalone="no"?>
<svg width="64px" height="64px" viewBox="0 0 64 64" version="1.1" xmlns="http://www.w3.org/2000/svg" xmlns:xlink="http://www.w3.org/1999/xlink">
    <!-- Generator: Sketch 3.7.2 (28276) - http://www.bohemiancoding.com/sketch -->
    <title>mus-cd-mp3</title>
    <desc>Created with Sketch.</desc>
    <defs></defs>
    <g id="64px-Line" stroke="none" stroke-width="1" fill="none" fill-rule="evenodd">
        <g id="mus-cd-mp3"></g>
        <path d="M22,60 L54,60 C56.206,60 58,58.206 58,56 L58,46 C58,43.794 56.206,42 54,42 L22,42 C19.794,42 18,43.794 18,46 L18,56 C18,58.206 19.794,60 22,60 L22,60 Z M20,46 C20,44.897 20.897,44 22,44 L54,44 C55.103,44 56,44.897 56,46 L56,56 C56,57.103 55.103,58 54,58 L22,58 C20.897,58 20,57.103 20,56 L20,46 L20,46 Z" id="Shape" fill="#000000"></path>
        <path d="M27,56 C27.553,56 28,55.553 28,55 L28,50 L29.2,51.6 C29.223,51.63 29.258,51.642 29.283,51.669 C29.323,51.712 29.351,51.764 29.4,51.8 C29.434,51.826 29.474,51.837 29.51,51.858 C29.544,51.878 29.575,51.896 29.611,51.911 C29.736,51.965 29.866,52.001 29.998,52.001 L29.999,52.001 L30,52.001 C30.132,52.001 30.262,51.965 30.387,51.911 C30.423,51.896 30.454,51.878 30.488,51.858 C30.524,51.837 30.564,51.826 30.598,51.8 C30.647,51.763 30.675,51.712 30.715,51.669 C30.74,51.642 30.775,51.63 30.798,51.6 L31.998,50 L31.998,55 C31.998,55.553 32.445,56 32.998,56 C33.551,56 33.998,55.553 33.998,55 L33.998,47 C33.998,46.976 33.986,46.956 33.984,46.933 C33.979,46.863 33.963,46.799 33.943,46.731 C33.926,46.67 33.91,46.612 33.882,46.557 C33.855,46.503 33.818,46.456 33.781,46.408 C33.738,46.351 33.695,46.298 33.641,46.251 C33.624,46.236 33.615,46.215 33.596,46.201 C33.565,46.178 33.528,46.172 33.495,46.153 C33.434,46.117 33.375,46.086 33.307,46.063 C33.242,46.042 33.178,46.031 33.111,46.024 C33.071,46.019 33.037,46.001 32.996,46.001 C32.972,46.001 32.951,46.013 32.927,46.015 C32.859,46.02 32.796,46.036 32.73,46.055 C32.668,46.073 32.608,46.088 32.552,46.117 C32.499,46.143 32.453,46.179 32.405,46.216 C32.347,46.259 32.294,46.302 32.247,46.357 C32.232,46.374 32.211,46.383 32.197,46.401 L29.997,49.335 L27.797,46.401 C27.783,46.382 27.762,46.374 27.747,46.356 C27.701,46.302 27.648,46.26 27.592,46.217 C27.542,46.179 27.495,46.142 27.44,46.114 C27.386,46.087 27.329,46.072 27.269,46.054 C27.201,46.034 27.135,46.017 27.064,46.012 C27.043,46.012 27.023,46 27,46 C26.96,46 26.927,46.018 26.889,46.022 C26.82,46.03 26.755,46.04 26.688,46.063 C26.621,46.086 26.562,46.116 26.502,46.151 C26.469,46.171 26.432,46.176 26.4,46.2 C26.381,46.214 26.373,46.235 26.355,46.25 C26.301,46.296 26.258,46.35 26.215,46.406 C26.178,46.455 26.141,46.502 26.114,46.556 C26.086,46.611 26.071,46.67 26.053,46.73 C26.034,46.797 26.017,46.862 26.012,46.932 C26.012,46.956 26,46.976 26,47 L26,55 C26,55.553 26.447,56 27,56 L27,56 Z" id="Shape" fill="#000000"></path>
        <path d="M37,56 C37.553,56 38,55.553 38,55 L38,52 L39,52 C40.654,52 42,50.654 42,49 C42,47.346 40.654,46 39,46 L37,46 C36.447,46 36,46.447 36,47 L36,55 C36,55.553 36.447,56 37,56 L37,56 Z M39,50 L38,50 L38,48 L39,48 C39.552,48 40,48.448 40,49 C40,49.552 39.552,50 39,50 L39,50 Z" id="Shape" fill="#000000"></path>
        <path d="M47,54 C46.448,54 46,53.552 46,53 C46,52.447 45.553,52 45,52 C44.447,52 44,52.447 44,53 C44,54.654 45.346,56 47,56 C48.654,56 50,54.654 50,53 C50,52.229 49.7,51.533 49.22,51.001 C49.699,50.469 50,49.772 50,49.002 C50,47.348 48.654,46.002 47,46.002 C45.346,46.002 44,47.348 44,49.002 C44,49.555 44.447,50.002 45,50.002 C45.553,50.002 46,49.555 46,49.002 C46,48.45 46.448,48.002 47,48.002 C47.552,48.002 48,48.45 48,49.002 C48,49.551 47.555,49.997 47.006,50.001 L47,50.001 C46.447,50.001 46,50.448 46,51.001 C46,51.001 46,51.001 46,51.002 C46,51.003 46,51.002 46,51.003 C46,51.556 46.447,52.003 47,52.003 L47.006,52.003 C47.555,52.006 48,52.452 48,53.002 C48,53.552 47.552,54 47,54 L47,54 Z" id="Shape" fill="#000000"></path>
        <path d="M22.7,11.29 C22.562,10.755 22.014,10.431 21.482,10.572 C15.155,12.208 10.208,17.154 8.572,23.482 C8.433,24.016 8.755,24.562 9.29,24.7 C9.374,24.722 9.458,24.732 9.541,24.732 C9.985,24.732 10.392,24.433 10.508,23.982 C11.963,18.359 16.36,13.961 21.983,12.507 C22.518,12.37 22.839,11.824 22.7,11.29 L22.7,11.29 Z" id="Shape" fill="#000000"></path>
        <path d="M26,34 C29.309,34 32,31.309 32,28 C32,24.691 29.309,22 26,22 C22.691,22 20,24.691 20,28 C20,31.309 22.691,34 26,34 L26,34 Z M26,24 C28.206,24 30,25.794 30,28 C30,30.206 28.206,32 26,32 C23.794,32 22,30.206 22,28 C22,25.794 23.794,24 26,24 L26,24 Z" id="Shape" fill="#000000"></path>
        <path d="M39.723,39.648 C41.473,37.588 42.754,35.123 43.428,32.516 C43.567,31.982 43.245,31.436 42.71,31.298 C42.174,31.153 41.63,31.48 41.492,32.016 C40.892,34.331 39.754,36.523 38.199,38.353 C37.841,38.774 37.892,39.405 38.313,39.762 C38.501,39.922 38.731,40 38.959,40 C39.244,40.001 39.525,39.881 39.723,39.648 L39.723,39.648 Z" id="Shape" fill="#000000"></path>
        <path d="M26,38 C31.514,38 36,33.514 36,28 C36,22.486 31.514,18 26,18 C20.486,18 16,22.486 16,28 C16,33.514 20.486,38 26,38 L26,38 Z M26,20 C30.411,20 34,23.589 34,28 C34,32.411 30.411,36 26,36 C21.589,36 18,32.411 18,28 C18,23.589 21.589,20 26,20 L26,20 Z" id="Shape" fill="#000000"></path>
        <path d="M14.525,46.774 C14.688,46.874 14.869,46.921 15.046,46.921 C15.383,46.921 15.711,46.751 15.9,46.443 C16.189,45.972 16.041,45.356 15.57,45.068 C9.578,41.398 6,35.018 6,28 C6,16.972 14.972,8 26,8 C37.028,8 46,16.972 46,28 C46,31.712 44.977,35.335 43.04,38.477 C42.751,38.947 42.896,39.563 43.367,39.853 C43.836,40.142 44.452,39.995 44.743,39.526 C46.874,36.068 48,32.083 48,28 C48,15.869 38.131,6 26,6 C13.869,6 4,15.869 4,28 C4,35.719 7.935,42.737 14.525,46.774 L14.525,46.774 Z" id="Shape" fill="#000000"></path>
    </g>
</svg>