<?xml version="1.0" encoding="UTF-8" standalone="no"?>
<svg width="64px" height="64px" viewBox="0 0 64 64" version="1.1" xmlns="http://www.w3.org/2000/svg" xmlns:xlink="http://www.w3.org/1999/xlink">
    <!-- Generator: Sketch 3.7.2 (28276) - http://www.bohemiancoding.com/sketch -->
    <title>mus-xylophone</title>
    <desc>Created with Sketch.</desc>
    <defs></defs>
    <g id="64px-Line" stroke="none" stroke-width="1" fill="none" fill-rule="evenodd">
        <g id="mus-xylophone"></g>
        <path d="M57,24 L45,24 C44.448,24 44,24.448 44,25 L44,32 L38,32 L38,21 C38,20.448 37.552,20 37,20 L25,20 C24.448,20 24,20.448 24,21 L24,32 L18,32 L18,17 C18,16.448 17.552,16 17,16 L5,16 C4.448,16 4,16.448 4,17 L4,57 C4,57.552 4.448,58 5,58 L17,58 C17.552,58 18,57.552 18,57 L18,42 L24,42 L24,53 C24,53.552 24.448,54 25,54 L37,54 C37.552,54 38,53.552 38,53 L38,42 L44,42 L44,49 C44,49.552 44.448,50 45,50 L57,50 C57.552,50 58,49.552 58,49 L58,25 C58,24.448 57.552,24 57,24 L57,24 Z M16,56 L6,56 L6,18 L16,18 L16,56 L16,56 Z M18,40 L18,34 L24,34 L24,40 L18,40 L18,40 Z M36,52 L26,52 L26,22 L36,22 L36,52 L36,52 Z M38,40 L38,34 L44,34 L44,40 L38,40 L38,40 Z M56,48 L46,48 L46,26 L56,26 L56,48 L56,48 Z" id="Shape" fill="#000000"></path>
        <path d="M11,20 C9.346,20 8,21.346 8,23 C8,24.654 9.346,26 11,26 C12.654,26 14,24.654 14,23 C14,21.346 12.654,20 11,20 L11,20 Z M11,24 C10.449,24 10,23.551 10,23 C10,22.449 10.449,22 11,22 C11.551,22 12,22.449 12,23 C12,23.551 11.551,24 11,24 L11,24 Z" id="Shape" fill="#000000"></path>
        <path d="M11,48 C9.346,48 8,49.346 8,51 C8,52.654 9.346,54 11,54 C12.654,54 14,52.654 14,51 C14,49.346 12.654,48 11,48 L11,48 Z M11,52 C10.449,52 10,51.551 10,51 C10,50.449 10.449,50 11,50 C11.551,50 12,50.449 12,51 C12,51.551 11.551,52 11,52 L11,52 Z" id="Shape" fill="#000000"></path>
        <path d="M31,44 C29.346,44 28,45.346 28,47 C28,48.654 29.346,50 31,50 C32.654,50 34,48.654 34,47 C34,45.346 32.654,44 31,44 L31,44 Z M31,48 C30.449,48 30,47.551 30,47 C30,46.449 30.449,46 31,46 C31.551,46 32,46.449 32,47 C32,47.551 31.551,48 31,48 L31,48 Z" id="Shape" fill="#000000"></path>
        <path d="M31,24 C29.346,24 28,25.346 28,27 C28,28.654 29.346,30 31,30 C32.654,30 34,28.654 34,27 C34,25.346 32.654,24 31,24 L31,24 Z M31,28 C30.449,28 30,27.551 30,27 C30,26.449 30.449,26 31,26 C31.551,26 32,26.449 32,27 C32,27.551 31.551,28 31,28 L31,28 Z" id="Shape" fill="#000000"></path>
        <path d="M51,34 C52.654,34 54,32.654 54,31 C54,29.346 52.654,28 51,28 C49.346,28 48,29.346 48,31 C48,32.654 49.346,34 51,34 L51,34 Z M51,30 C51.551,30 52,30.449 52,31 C52,31.551 51.551,32 51,32 C50.449,32 50,31.551 50,31 C50,30.449 50.449,30 51,30 L51,30 Z" id="Shape" fill="#000000"></path>
        <path d="M51,46 C52.654,46 54,44.654 54,43 C54,41.346 52.654,40 51,40 C49.346,40 48,41.346 48,43 C48,44.654 49.346,46 51,46 L51,46 Z M51,42 C51.551,42 52,42.449 52,43 C52,43.551 51.551,44 51,44 C50.449,44 50,43.551 50,43 C50,42.449 50.449,42 51,42 L51,42 Z" id="Shape" fill="#000000"></path>
        <path d="M44.327,12.063 L7.161,6.013 C6.619,5.919 6.102,6.293 6.014,6.839 C5.925,7.384 6.295,7.898 6.84,7.986 L44.002,14.035 C44.022,17.327 46.704,19.999 50,19.999 C53.309,19.999 56,17.308 56,13.999 C56,10.69 53.309,7.999 50,7.999 C47.37,8 45.135,9.704 44.327,12.063 L44.327,12.063 Z M54,14 C54,16.206 52.206,18 50,18 C47.794,18 46,16.206 46,14 C46,11.794 47.794,10 50,10 C52.206,10 54,11.794 54,14 L54,14 Z" id="Shape" fill="#000000"></path>
    </g>
</svg>