<?xml version="1.0" encoding="UTF-8" standalone="no"?>
<svg width="64px" height="64px" viewBox="0 0 64 64" version="1.1" xmlns="http://www.w3.org/2000/svg" xmlns:xlink="http://www.w3.org/1999/xlink">
    <!-- Generator: Sketch 3.7.2 (28276) - http://www.bohemiancoding.com/sketch -->
    <title>mus-rewind</title>
    <desc>Created with Sketch.</desc>
    <defs></defs>
    <g id="64px-Line" stroke="none" stroke-width="1" fill="none" fill-rule="evenodd">
        <g id="mus-rewind"></g>
        <path d="M25.677,14.744 L3.757,29.687 C2.657,30.433 2.001,31.671 2.001,32.999 C2.001,34.328 2.658,35.566 3.756,36.309 L25.702,51.271 C26.456,51.754 27.23,52 28.001,52 C30.207,52 32.001,50.206 32.001,48 L32.001,33 L32.001,18 C32,15.022 28.68,12.818 25.677,14.744 L25.677,14.744 Z M30,48 C30,49.49 28.376,50.609 26.804,49.604 L4.879,34.657 C4.329,34.284 4.001,33.665 4.001,33.001 C4.001,32.337 4.33,31.718 4.883,31.344 L26.781,16.413 C27.214,16.136 27.613,16.001 28.001,16.001 C29.104,16.001 30.001,16.898 30.001,18.001 L30.001,48 L30,48 Z" id="Shape" fill="#000000"></path>
        <path d="M55.677,14.744 L33.757,29.687 C32.657,30.433 32.001,31.671 32.001,32.999 C32.001,34.328 32.658,35.566 33.756,36.309 L55.702,51.271 C56.456,51.754 57.23,52 58.001,52 C60.207,52 62.001,50.206 62.001,48 L62.001,18 C62,15.022 58.679,12.818 55.677,14.744 L55.677,14.744 Z M60,48 C60,49.49 58.375,50.609 56.804,49.604 L34.879,34.657 C34.329,34.284 34.001,33.665 34.001,33.001 C34.001,32.337 34.33,31.718 34.883,31.344 L56.781,16.413 C57.214,16.136 57.613,16.001 58.001,16.001 C59.104,16.001 60.001,16.898 60.001,18.001 L60.001,48 L60,48 Z" id="Shape" fill="#000000"></path>
    </g>
</svg>