<?xml version="1.0" encoding="UTF-8" standalone="no"?>
<svg width="64px" height="64px" viewBox="0 0 64 64" version="1.1" xmlns="http://www.w3.org/2000/svg" xmlns:xlink="http://www.w3.org/1999/xlink">
    <!-- Generator: Sketch 3.7.2 (28276) - http://www.bohemiancoding.com/sketch -->
    <title>mus-ipod-earbuds</title>
    <desc>Created with Sketch.</desc>
    <defs></defs>
    <g id="64px-Line" stroke="none" stroke-width="1" fill="none" fill-rule="evenodd">
        <g id="mus-ipod-earbuds"></g>
        <path d="M6,31 C6,31.553 6.447,32 7,32 L27,32 C27.553,32 28,31.553 28,31 L28,15 C28,14.447 27.553,14 27,14 L7,14 C6.447,14 6,14.447 6,15 L6,31 L6,31 Z M8,16 L26,16 L26,30 L8,30 L8,16 L8,16 Z" id="Shape" fill="#000000"></path>
        <path d="M17,34 C10.935,34 6,38.935 6,45 C6,51.065 10.935,56 17,56 C23.065,56 28,51.065 28,45 C28,38.935 23.065,34 17,34 L17,34 Z M17,54 C12.037,54 8,49.963 8,45 C8,40.037 12.037,36 17,36 C21.963,36 26,40.037 26,45 C26,49.963 21.963,54 17,54 L17,54 Z" id="Shape" fill="#000000"></path>
        <path d="M17,40 C14.243,40 12,42.243 12,45 C12,47.757 14.243,50 17,50 C19.757,50 22,47.757 22,45 C22,42.243 19.757,40 17,40 L17,40 Z M17,48 C15.346,48 14,46.654 14,45 C14,43.346 15.346,42 17,42 C18.654,42 20,43.346 20,45 C20,46.654 18.654,48 17,48 L17,48 Z" id="Shape" fill="#000000"></path>
        <path d="M55.5,10 C54.447,10 52,10.39 52,14 C52,17.61 54.447,18 55.5,18 C56.425,18 57.284,17.75 58,17.323 L58,34 C58,36.206 56.206,38 54,38 C52.807,38 51.733,38.525 51,39.357 C50.267,38.525 49.193,38 48,38 C45.794,38 44,36.206 44,34 L44,17.323 C44.716,17.75 45.575,18 46.5,18 C47.553,18 50,17.61 50,14 C50,10.39 47.553,10 46.5,10 C44.019,10 42,11.794 42,14 L42,34 C42,37.309 44.691,40 48,40 C49.103,40 50,40.897 50,42 L50,52 C50,55.309 47.309,58 44,58 C40.691,58 38,55.309 38,52 L38,10 C38,6.691 35.309,4 32,4 L22,4 C18.691,4 16,6.691 16,10 L6,10 C3.794,10 2,11.794 2,14 L2,56 C2,58.206 3.794,60 6,60 L28,60 C30.206,60 32,58.206 32,56 L32,14 C32,11.794 30.206,10 28,10 L18,10 C18,7.794 19.794,6 22,6 L32,6 C34.206,6 36,7.794 36,10 L36,52 C36,56.411 39.589,60 44,60 C48.411,60 52,56.411 52,52 L52,42 C52,40.897 52.897,40 54,40 C57.309,40 60,37.309 60,34 L60,14 C60,11.794 57.981,10 55.5,10 L55.5,10 Z M46.5,12 C47.259,12 48,12.154 48,14 C48,15.846 47.259,16 46.5,16 C45.121,16 44,15.103 44,14 C44,12.897 45.121,12 46.5,12 L46.5,12 Z M28,12 C29.103,12 30,12.897 30,14 L30,56 C30,57.103 29.103,58 28,58 L6,58 C4.897,58 4,57.103 4,56 L4,14 C4,12.897 4.897,12 6,12 L28,12 L28,12 Z M55.5,16 C54.741,16 54,15.846 54,14 C54,12.154 54.741,12 55.5,12 C56.879,12 58,12.897 58,14 C58,15.103 56.879,16 55.5,16 L55.5,16 Z" id="Shape" fill="#000000"></path>
    </g>
</svg>