<?xml version="1.0" encoding="UTF-8" standalone="no"?>
<svg width="64px" height="64px" viewBox="0 0 64 64" version="1.1" xmlns="http://www.w3.org/2000/svg" xmlns:xlink="http://www.w3.org/1999/xlink">
    <!-- Generator: Sketch 3.7.2 (28276) - http://www.bohemiancoding.com/sketch -->
    <title>mus-guitar-electric</title>
    <desc>Created with Sketch.</desc>
    <defs></defs>
    <g id="64px-Line" stroke="none" stroke-width="1" fill="none" fill-rule="evenodd">
        <g id="mus-guitar-electric"></g>
        <path d="M25.368,44.466 C25.563,44.66 25.818,44.758 26.074,44.758 C26.33,44.758 26.585,44.66 26.78,44.466 L29.767,41.49 C29.955,41.302 30.061,41.048 30.061,40.782 C30.061,40.516 29.955,40.261 29.767,40.074 L23.793,34.123 C23.403,33.734 22.772,33.734 22.382,34.123 L19.395,37.098 C19.207,37.286 19.101,37.541 19.101,37.807 C19.101,38.073 19.207,38.328 19.395,38.515 L25.368,44.466 L25.368,44.466 Z M23.086,36.242 L27.643,40.782 L26.073,42.346 L21.516,37.806 L23.086,36.242 L23.086,36.242 Z" id="Shape" fill="#000000"></path>
        <path d="M19.394,50.417 C19.589,50.612 19.844,50.709 20.1,50.709 C20.356,50.709 20.611,50.611 20.806,50.418 L23.793,47.441 C23.981,47.253 24.087,46.999 24.087,46.733 C24.087,46.467 23.981,46.212 23.793,46.025 L17.819,40.074 C17.429,39.683 16.798,39.685 16.408,40.074 L13.421,43.049 C13.233,43.237 13.127,43.492 13.127,43.758 C13.127,44.024 13.233,44.279 13.421,44.466 L19.394,50.417 L19.394,50.417 Z M17.112,42.193 L21.669,46.733 L20.099,48.297 L15.542,43.757 L17.112,42.193 L17.112,42.193 Z" id="Shape" fill="#000000"></path>
        <path d="M19.291,60.02 C21.764,60.02 24.078,59.059 26.032,57.112 C28.438,54.716 29.408,51.671 30.188,49.222 C30.739,47.493 31.215,45.999 32.006,45.211 C32.959,44.262 34.353,43.899 35.828,43.515 C37.399,43.106 39.024,42.683 40.22,41.491 C41.136,40.579 41.6,39.591 41.6,38.553 C41.6,37.528 41.122,36.51 40.22,35.612 C39.523,34.918 38.559,34.508 37.443,34.032 C36.756,33.739 36.025,33.425 35.284,33.018 L48.475,19.877 L48.517,19.919 C48.917,20.317 49.443,20.518 49.969,20.518 C50.495,20.518 51.021,20.318 51.422,19.918 L57.396,13.968 C57.785,13.58 57.999,13.066 58,12.517 C58.001,11.968 57.786,11.453 57.396,11.064 L52.915,6.599 C52.114,5.802 50.811,5.801 50.011,6.6 L44.036,12.551 C43.647,12.939 43.433,13.454 43.433,14.003 C43.433,14.552 43.647,15.067 44.037,15.456 L44.072,15.491 L31.65,27.865 C31.613,27.272 31.605,26.652 31.601,26.017 C31.585,23.684 31.567,21.039 29.766,19.246 L29.766,19.247 C28.905,18.389 28.002,18.055 27.081,18.242 C24.927,18.689 23.664,21.865 22.203,25.543 C21.296,27.826 20.358,30.188 19.393,31.148 C18.205,32.331 16.715,32.722 14.99,33.175 C12.693,33.779 10.09,34.463 7.445,37.099 C5.191,39.344 4,42.014 4,44.82 C4,48.183 5.708,51.663 8.939,54.881 C12.357,58.285 15.968,60.02 19.291,60.02 L19.291,60.02 Z M51.504,8.016 L55.985,12.551 L50.01,18.502 C49.989,18.523 49.951,18.523 49.928,18.502 C49.928,18.502 49.928,18.502 49.928,18.501 L45.447,13.968 L51.504,8.016 L51.504,8.016 Z M45.488,16.902 L47.059,18.466 L33.587,31.886 C33.307,31.66 33.028,31.42 32.752,31.146 C32.484,30.879 32.283,30.563 32.126,30.211 L45.488,16.902 L45.488,16.902 Z M8.856,38.515 C11.12,36.26 13.346,35.675 15.499,35.11 C17.42,34.605 19.235,34.129 20.805,32.565 C22.063,31.311 23.034,28.868 24.062,26.281 C25.043,23.811 26.388,20.428 27.487,20.2 C27.512,20.195 27.537,20.192 27.563,20.192 C27.824,20.192 28.132,20.442 28.355,20.663 C29.573,21.877 29.587,23.894 29.602,26.031 C29.618,28.407 29.635,30.864 31.343,32.564 C33.172,34.386 35.107,35.21 36.662,35.872 C37.588,36.267 38.388,36.607 38.811,37.029 C39.336,37.551 39.603,38.064 39.603,38.553 C39.603,39.039 39.337,39.551 38.811,40.074 C37.998,40.884 36.7,41.221 35.326,41.579 C33.735,41.993 31.932,42.463 30.597,43.793 C29.459,44.927 28.914,46.636 28.284,48.615 C27.533,50.971 26.682,53.643 24.623,55.694 C20.856,59.448 15.52,58.613 10.352,53.464 C7.506,50.629 6.002,47.64 6.002,44.819 C6,42.524 6.961,40.403 8.856,38.515 L8.856,38.515 Z" id="Shape" fill="#000000"></path>
    </g>
</svg>