<?xml version="1.0" encoding="UTF-8" standalone="no"?>
<svg width="64px" height="64px" viewBox="0 0 64 64" version="1.1" xmlns="http://www.w3.org/2000/svg" xmlns:xlink="http://www.w3.org/1999/xlink">
    <!-- Generator: Sketch 3.7.2 (28276) - http://www.bohemiancoding.com/sketch -->
    <title>mus-trumpet</title>
    <desc>Created with Sketch.</desc>
    <defs></defs>
    <g id="64px-Line" stroke="none" stroke-width="1" fill="none" fill-rule="evenodd">
        <g id="mus-trumpet"></g>
        <path d="M11.414,28 L5.707,22.293 C5.421,22.007 4.992,21.922 4.617,22.076 C4.243,22.231 4,22.596 4,23 L4,35 C4,35.404 4.243,35.769 4.617,35.924 C4.992,36.079 5.421,35.993 5.707,35.707 L11.414,30 L14.026,30 C11.588,31.825 10,34.727 10,38 C10,43.514 14.486,48 20,48 L38,48 C43.514,48 48,43.514 48,38 C48,34.727 46.412,31.825 43.974,30 L45,30 C48.516,30 54.149,33.938 58.115,41.466 C58.291,41.8 58.636,42 59,42 C59.079,42 59.16,41.991 59.24,41.971 C59.686,41.861 60,41.46 60,41 L60,17 C60,16.535 59.679,16.131 59.226,16.026 C58.772,15.919 58.307,16.143 58.102,16.56 C54.464,23.991 48.636,28 45,28 L38,28 L38,24 L39,24 C39.553,24 40,23.552 40,23 C40,22.448 39.553,22 39,22 L35,22 C34.447,22 34,22.448 34,23 C34,23.552 34.447,24 35,24 L36,24 L36,28 L30,28 L30,24 L31,24 C31.553,24 32,23.552 32,23 C32,22.448 31.553,22 31,22 L27,22 C26.447,22 26,22.448 26,23 C26,23.552 26.447,24 27,24 L28,24 L28,28 L22,28 L22,24 L23,24 C23.553,24 24,23.552 24,23 C24,22.448 23.553,22 23,22 L19,22 C18.447,22 18,22.448 18,23 C18,23.552 18.447,24 19,24 L20,24 L20,28 L11.414,28 L11.414,28 Z M6,32.586 L6,25.414 L9.586,29 L6,32.586 L6,32.586 Z M58,20.777 L58,37.379 C55.365,33.468 52.138,30.48 49.026,29.009 C52.023,27.642 55.312,24.874 58,20.777 L58,20.777 Z M12,38 C12,34.28 14.555,31.155 18,30.263 L18,45.737 C14.555,44.845 12,41.72 12,38 L12,38 Z M20,30 L22,30 L22,46 L20,46 L20,30 L20,30 Z M30,30 L30,46 L28,46 L28,30 L30,30 L30,30 Z M32,30 L34,30 L34,46 L32,46 L32,30 L32,30 Z M26,46 L24,46 L24,30 L26,30 L26,46 L26,46 Z M36,46 L36,30 L38,30 L38,46 L36,46 L36,46 Z M46,38 C46,41.72 43.445,44.845 40,45.737 L40,30.263 C43.445,31.155 46,34.28 46,38 L46,38 Z" id="Shape" fill="#000000"></path>
    </g>
</svg>