<?xml version="1.0" encoding="UTF-8" standalone="no"?>
<svg width="64px" height="64px" viewBox="0 0 64 64" version="1.1" xmlns="http://www.w3.org/2000/svg" xmlns:xlink="http://www.w3.org/1999/xlink">
    <!-- Generator: Sketch 3.7.2 (28276) - http://www.bohemiancoding.com/sketch -->
    <title>mus-pan-pipes</title>
    <desc>Created with Sketch.</desc>
    <defs></defs>
    <g id="64px-Line" stroke="none" stroke-width="1" fill="none" fill-rule="evenodd">
        <g id="mus-pan-pipes"></g>
        <path d="M59,16 L58,16 L58,9 C58,7.346 56.654,6 55,6 L47,6 L37,6 L27,6 L17,6 L9,6 C7.346,6 6,7.346 6,9 L6,16 L5,16 C4.448,16 4,16.447 4,17 L4,23 C4,23.553 4.448,24 5,24 L6,24 L6,55 C6,56.654 7.346,58 9,58 L15,58 C16.654,58 18,56.654 18,55 L18,52 L25,52 C26.654,52 28,50.654 28,49 L28,46 L35,46 C36.654,46 38,44.654 38,43 L38,40 L45,40 C46.654,40 48,38.654 48,37 L48,34 L55,34 C56.654,34 58,32.654 58,31 L58,24 L59,24 C59.552,24 60,23.553 60,23 L60,17 C60,16.447 59.552,16 59,16 L59,16 Z M56,9 L56,16 L48,16 L48,8 L55,8 C55.551,8 56,8.448 56,9 L56,9 Z M46,16 L38,16 L38,8 L46,8 L46,16 L46,16 Z M36,16 L28,16 L28,8 L36,8 L36,16 L36,16 Z M26,16 L18,16 L18,8 L26,8 L26,16 L26,16 Z M8,9 C8,8.448 8.449,8 9,8 L16,8 L16,16 L8,16 L8,9 L8,9 Z M16,55 C16,55.552 15.551,56 15,56 L9,56 C8.449,56 8,55.552 8,55 L8,24 L16,24 L16,55 L16,55 Z M26,49 C26,49.552 25.551,50 25,50 L18,50 L18,24 L26,24 L26,49 L26,49 Z M36,43 C36,43.552 35.551,44 35,44 L28,44 L28,24 L36,24 L36,43 L36,43 Z M46,37 C46,37.552 45.551,38 45,38 L38,38 L38,24 L46,24 L46,37 L46,37 Z M56,31 C56,31.552 55.551,32 55,32 L48,32 L48,24 L56,24 L56,31 L56,31 Z M58,22 L47.019,22 C47.012,22 47.007,21.996 47,21.996 C46.993,21.996 46.988,22 46.981,22 L37.005,22 C37.003,22 37.002,21.999 37,21.999 C36.998,21.999 36.997,22 36.995,22 L27.014,22 C27.009,22 27.005,21.997 26.999,21.997 C26.993,21.997 26.991,22 26.985,22 L7.024,22 C7.015,22 7.008,21.995 7,21.995 C6.992,21.995 6.984,22 6.976,22 L6,22 L6,18 L36.995,18 C36.997,18 36.998,18.001 37,18.001 C37.002,18.001 37.003,18 37.005,18 L58,18 L58,22 L58,22 Z" id="Shape" fill="#000000"></path>
    </g>
</svg>