<?xml version="1.0" encoding="UTF-8" standalone="no"?>
<svg width="64px" height="64px" viewBox="0 0 64 64" version="1.1" xmlns="http://www.w3.org/2000/svg" xmlns:xlink="http://www.w3.org/1999/xlink">
    <!-- Generator: Sketch 3.7.2 (28276) - http://www.bohemiancoding.com/sketch -->
    <title>mus-sound-2</title>
    <desc>Created with Sketch.</desc>
    <defs></defs>
    <g id="64px-Line" stroke="none" stroke-width="1" fill="none" fill-rule="evenodd">
        <g id="mus-sound-2"></g>
        <path d="M59,32 L55.847,32 L53.987,20.835 C53.906,20.345 53.474,19.997 52.98,20 C52.484,20.01 52.07,20.383 52.008,20.876 L49.968,37.194 L46.991,14.868 C46.925,14.37 46.5,14 46,14 L45.973,14 C45.462,14.014 45.043,14.411 45.003,14.921 L42.93,41.182 L39.996,8.909 C39.949,8.393 39.517,7.999 39,7.999 L38.986,7.999 C38.463,8.006 38.034,8.415 38.002,8.937 L35.878,42.928 L32.997,6.92 C32.955,6.4 32.521,6 32,6 C31.479,6 31.045,6.4 31.003,6.92 L28.122,42.928 L25.998,8.937 C25.966,8.416 25.537,8.007 25.014,7.999 L25,7.999 C24.483,7.999 24.051,8.393 24.004,8.909 L21.07,41.182 L18.997,14.921 C18.957,14.411 18.538,14.014 18.027,14 C17.47,13.985 17.076,14.361 17.008,14.867 L14.031,37.193 L11.991,20.875 C11.929,20.382 11.515,20.009 11.019,19.999 C10.539,19.997 10.093,20.345 10.012,20.834 L8.153,32 L5,32 C4.447,32 4,32.448 4,33 C4,33.552 4.447,34 5,34 L9,34 C9.489,34 9.906,33.646 9.986,33.165 L10.858,27.932 L13.007,45.125 C13.069,45.624 13.492,45.999 13.995,46.001 L13.999,46.001 C14.5,46.001 14.924,45.63 14.99,45.133 L17.744,24.479 L20.002,53.08 C20.043,53.598 20.474,53.998 20.993,54.001 C21.507,54.017 21.948,53.609 21.995,53.091 L24.814,22.077 L27.001,57.063 C27.034,57.586 27.466,57.996 27.99,58.001 L27.999,58.001 C28.52,58.001 28.954,57.601 28.996,57.081 L32,19.54 L35.003,57.08 C35.045,57.6 35.48,58 36,58 L36.009,58 C36.533,57.996 36.965,57.586 36.998,57.062 L39.185,22.076 L42.004,53.09 C42.051,53.608 42.508,54.014 43.006,54 C43.526,53.997 43.956,53.597 43.997,53.079 L46.255,24.478 L49.009,45.132 C49.075,45.629 49.499,46 50,46 L50.004,46 C50.507,45.998 50.93,45.623 50.992,45.124 L53.141,27.931 L54.013,33.164 C54.093,33.646 54.51,33.999 54.999,33.999 L58.999,33.999 C59.552,33.999 59.999,33.551 59.999,32.999 C59.999,32.447 59.553,32 59,32 L59,32 Z" id="Shape" fill="#000000"></path>
    </g>
</svg>