<?xml version="1.0" encoding="UTF-8" standalone="no"?>
<svg width="64px" height="64px" viewBox="0 0 64 64" version="1.1" xmlns="http://www.w3.org/2000/svg" xmlns:xlink="http://www.w3.org/1999/xlink">
    <!-- Generator: Sketch 3.7.2 (28276) - http://www.bohemiancoding.com/sketch -->
    <title>mus-tuning</title>
    <desc>Created with Sketch.</desc>
    <defs></defs>
    <g id="64px-Line" stroke="none" stroke-width="1" fill="none" fill-rule="evenodd">
        <g id="mus-tuning"></g>
        <path d="M10,60 C13.309,60 16,57.309 16,54 C16,52.706 15.584,51.51 14.885,50.529 L25.38,40.033 C27.154,41.471 29.341,42.196 31.493,42.196 C33.788,42.196 36.043,41.371 37.706,39.707 L57.706,19.707 C58.097,19.316 58.097,18.684 57.706,18.293 C57.315,17.902 56.683,17.902 56.292,18.293 L36.292,38.293 C33.655,40.931 28.869,40.769 26.049,37.95 C23.23,35.13 23.069,30.344 25.706,27.707 L45.706,7.707 C46.097,7.316 46.097,6.684 45.706,6.293 C45.315,5.902 44.683,5.902 44.292,6.293 L24.292,26.293 C21.069,29.517 20.996,34.953 23.967,38.618 L13.47,49.115 C12.49,48.416 11.294,48 10,48 C6.691,48 4,50.691 4,54 C4,57.309 6.691,60 10,60 L10,60 Z M10,50 C12.206,50 14,51.794 14,54 C14,56.206 12.206,58 10,58 C7.794,58 6,56.206 6,54 C6,51.794 7.794,50 10,50 L10,50 Z" id="Shape" fill="#000000"></path>
        <path d="M57.707,26.293 C57.316,25.902 56.684,25.902 56.293,26.293 L40.293,42.293 C39.902,42.684 39.902,43.316 40.293,43.707 C40.488,43.902 40.744,44 41,44 C41.256,44 41.512,43.902 41.707,43.707 L57.707,27.707 C58.098,27.316 58.098,26.684 57.707,26.293 L57.707,26.293 Z" id="Shape" fill="#000000"></path>
        <path d="M57.707,34.293 C57.316,33.902 56.684,33.902 56.293,34.293 L48.293,42.293 C47.902,42.684 47.902,43.316 48.293,43.707 C48.488,43.902 48.744,44 49,44 C49.256,44 49.512,43.902 49.707,43.707 L57.707,35.707 C58.098,35.316 58.098,34.684 57.707,34.293 L57.707,34.293 Z" id="Shape" fill="#000000"></path>
        <path d="M21,16 C21.256,16 21.512,15.902 21.707,15.707 L29.707,7.707 C30.098,7.316 30.098,6.684 29.707,6.293 C29.316,5.902 28.684,5.902 28.293,6.293 L20.293,14.293 C19.902,14.684 19.902,15.316 20.293,15.707 C20.488,15.902 20.744,16 21,16 L21,16 Z" id="Shape" fill="#000000"></path>
        <path d="M21,24 C21.256,24 21.512,23.902 21.707,23.707 L37.707,7.707 C38.098,7.316 38.098,6.684 37.707,6.293 C37.316,5.902 36.684,5.902 36.293,6.293 L20.293,22.293 C19.902,22.684 19.902,23.316 20.293,23.707 C20.488,23.902 20.744,24 21,24 L21,24 Z" id="Shape" fill="#000000"></path>
    </g>
</svg>