<?xml version="1.0" encoding="UTF-8" standalone="no"?>
<svg width="64px" height="64px" viewBox="0 0 64 64" version="1.1" xmlns="http://www.w3.org/2000/svg" xmlns:xlink="http://www.w3.org/1999/xlink">
    <!-- Generator: Sketch 3.7.2 (28276) - http://www.bohemiancoding.com/sketch -->
    <title>mus-eject</title>
    <desc>Created with Sketch.</desc>
    <defs></defs>
    <g id="64px-Line" stroke="none" stroke-width="1" fill="none" fill-rule="evenodd">
        <g id="mus-eject"></g>
        <path d="M50,48 L14,48 C11.794,48 10,49.794 10,52 L10,54 C10,56.206 11.794,58 14,58 L50,58 C52.206,58 54,56.206 54,54 L54,52 C54,49.794 52.206,48 50,48 L50,48 Z M52,54 C52,55.103 51.103,56 50,56 L14,56 C12.897,56 12,55.103 12,54 L12,52 C12,50.897 12.897,50 14,50 L50,50 C51.103,50 52,50.897 52,52 L52,54 L52,54 Z" id="Shape" fill="#000000"></path>
        <path d="M35.312,9.756 C34.566,8.656 33.328,8 32,8 C30.67,8 29.433,8.657 28.675,9.777 L10.728,37.701 C10.245,38.455 10,39.229 10,40 C10,42.206 11.794,44 14,44 L50,44 C52.206,44 54,42.206 54,40 C54,39.229 53.755,38.455 53.271,37.699 L35.312,9.756 L35.312,9.756 Z M50,42 L14,42 C12.897,42 12,41.103 12,40 C12,39.612 12.135,39.213 12.412,38.781 L30.344,10.879 C30.717,10.328 31.337,10 32.001,10 C32.666,10 33.284,10.328 33.643,10.859 L51.589,38.779 C51.866,39.213 52.001,39.612 52.001,40 C52,41.103 51.103,42 50,42 L50,42 Z" id="Shape" fill="#000000"></path>
    </g>
</svg>