<?xml version="1.0" encoding="UTF-8" standalone="no"?>
<svg width="64px" height="64px" viewBox="0 0 64 64" version="1.1" xmlns="http://www.w3.org/2000/svg" xmlns:xlink="http://www.w3.org/1999/xlink">
    <!-- Generator: Sketch 3.7.2 (28276) - http://www.bohemiancoding.com/sketch -->
    <title>mus-speaker-2</title>
    <desc>Created with Sketch.</desc>
    <defs></defs>
    <g id="64px-Line" stroke="none" stroke-width="1" fill="none" fill-rule="evenodd">
        <g id="mus-speaker-2"></g>
        <path d="M30,52 C41.028,52 50,43.028 50,32 C50,20.972 41.028,12 30,12 C18.972,12 10,20.972 10,32 C10,43.028 18.972,52 30,52 L30,52 Z M30,14 C39.925,14 48,22.075 48,32 C48,41.925 39.925,50 30,50 C20.075,50 12,41.925 12,32 C12,22.075 20.075,14 30,14 L30,14 Z" id="Shape" fill="#000000"></path>
        <path d="M30,40 C34.411,40 38,36.411 38,32 C38,27.589 34.411,24 30,24 C25.589,24 22,27.589 22,32 C22,36.411 25.589,40 30,40 L30,40 Z M30,26 C33.309,26 36,28.691 36,32 C36,35.309 33.309,38 30,38 C26.691,38 24,35.309 24,32 C24,28.691 26.691,26 30,26 L30,26 Z" id="Shape" fill="#000000"></path>
        <path d="M4,52 C4,53.603 4.624,55.109 5.758,56.243 C6.891,57.376 8.398,58 10,58 C11.602,58 13.109,57.376 14.242,56.243 L16.351,54.134 C20.449,56.666 25.15,58 30,58 C34.851,58 39.552,56.666 43.648,54.134 L45.757,56.243 C46.89,57.376 48.397,58 49.999,58 C51.601,58 53.108,57.376 54.241,56.243 C55.375,55.11 55.999,53.603 55.999,52 C55.999,50.397 55.375,48.891 54.241,47.757 L52.133,45.648 C54.666,41.551 56,36.85 56,32 C56,27.149 54.665,22.449 52.133,18.352 L54.242,16.243 C55.376,15.11 56,13.603 56,12 C56,10.397 55.376,8.891 54.242,7.757 C53.109,6.624 51.602,6 50,6 C48.398,6 46.891,6.624 45.758,7.757 L43.649,9.866 C39.551,7.334 34.85,6 30,6 C25.149,6 20.448,7.334 16.352,9.866 L14.243,7.757 C13.11,6.624 11.603,6 10.001,6 C8.399,6 6.892,6.624 5.759,7.757 C4.625,8.89 4.001,10.397 4.001,12 C4.001,13.603 4.625,15.109 5.759,16.243 L7.867,18.352 C5.334,22.449 4,27.15 4,32 C4,36.85 5.334,41.551 7.866,45.648 L5.758,47.757 C4.624,48.891 4,50.397 4,52 L4,52 Z M7.172,49.171 L9.849,46.493 C10.185,46.157 10.239,45.63 9.976,45.234 C7.375,41.307 6,36.731 6,32 C6,27.269 7.375,22.692 9.977,18.766 C10.24,18.37 10.186,17.843 9.85,17.507 L7.172,14.829 C6.416,14.073 6,13.069 6,12 C6,10.931 6.416,9.927 7.172,9.171 C8.684,7.66 11.317,7.66 12.828,9.171 L15.508,11.85 C15.854,12.197 16.402,12.239 16.799,11.953 C16.801,11.952 16.803,11.951 16.804,11.95 C20.722,9.366 25.284,8 30,8 C34.722,8 39.289,9.369 43.211,11.96 C43.351,12.058 43.515,12.122 43.69,12.139 C44.026,12.177 44.348,12.035 44.556,11.786 L47.171,9.171 C48.683,7.66 51.316,7.66 52.827,9.171 C53.583,9.927 53.999,10.931 53.999,12 C53.999,13.069 53.583,14.073 52.827,14.829 L50.15,17.507 C49.814,17.843 49.76,18.37 50.023,18.766 C52.625,22.693 54,27.269 54,32 C54,36.731 52.625,41.308 50.023,45.234 C49.76,45.63 49.814,46.157 50.15,46.493 L52.828,49.171 C53.584,49.927 54,50.931 54,52 C54,53.069 53.584,54.073 52.828,54.829 C51.316,56.34 48.683,56.34 47.172,54.829 L44.492,52.15 C44.299,51.957 44.043,51.858 43.786,51.858 C43.582,51.858 43.377,51.92 43.201,52.047 C43.199,52.048 43.197,52.049 43.196,52.05 C39.278,54.634 34.716,56 30,56 C25.278,56 20.711,54.631 16.789,52.04 C16.649,51.942 16.485,51.878 16.31,51.861 C15.98,51.83 15.653,51.965 15.444,52.214 L12.829,54.829 C11.317,56.34 8.684,56.34 7.173,54.829 C6.417,54.073 6.001,53.069 6.001,52 C6.001,50.931 6.416,49.927 7.172,49.171 L7.172,49.171 Z" id="Shape" fill="#000000"></path>
        <circle id="Oval" fill="#000000" cx="10" cy="12" r="2"></circle>
        <circle id="Oval" fill="#000000" cx="50" cy="12" r="2"></circle>
        <circle id="Oval" fill="#000000" cx="50" cy="52" r="2"></circle>
        <circle id="Oval" fill="#000000" cx="10" cy="52" r="2"></circle>
    </g>
</svg>