<?xml version="1.0" encoding="UTF-8" standalone="no"?>
<svg width="64px" height="64px" viewBox="0 0 64 64" version="1.1" xmlns="http://www.w3.org/2000/svg" xmlns:xlink="http://www.w3.org/1999/xlink">
    <!-- Generator: Sketch 3.7.2 (28276) - http://www.bohemiancoding.com/sketch -->
    <title>mus-cd-case</title>
    <desc>Created with Sketch.</desc>
    <defs></defs>
    <g id="64px-Line" stroke="none" stroke-width="1" fill="none" fill-rule="evenodd">
        <g id="mus-cd-case"></g>
        <path d="M5,60 L53,60 C53.13,60 53.26,59.974 53.382,59.923 C53.505,59.872 53.615,59.799 53.708,59.706 L57.706,55.707 C57.799,55.615 57.872,55.504 57.923,55.381 C57.974,55.26 58,55.13 58,55 L58,7 C58,6.87 57.974,6.74 57.923,6.618 C57.822,6.373 57.627,6.179 57.382,6.077 C57.26,6.026 57.13,6 57,6 L9,6 C8.87,6 8.74,6.026 8.618,6.077 C8.495,6.128 8.385,6.201 8.292,6.294 L4.294,10.293 C4.201,10.385 4.128,10.496 4.077,10.619 C4.027,10.74 4,10.87 4,11 L4,59 C4,59.552 4.447,60 5,60 L5,60 Z M9.414,8 L54.586,8 L52.586,10 L7.414,10 L9.414,8 L9.414,8 Z M56,54.586 L54,56.586 L54,11.414 L56,9.414 L56,54.586 L56,54.586 Z M6,12 L52,12 L52,58 L6,58 L6,12 L6,12 Z" id="Shape" fill="#000000"></path>
        <path d="M29,16 C18.523,16 10,24.523 10,35 C10,45.477 18.523,54 29,54 C39.477,54 48,45.477 48,35 C48,24.523 39.477,16 29,16 L29,16 Z M29,52 C19.626,52 12,44.374 12,35 C12,25.626 19.626,18 29,18 C38.374,18 46,25.626 46,35 C46,44.374 38.374,52 29,52 L29,52 Z" id="Shape" fill="#000000"></path>
        <path d="M29,30 C26.243,30 24,32.243 24,35 C24,37.757 26.243,40 29,40 C31.757,40 34,37.757 34,35 C34,32.243 31.757,30 29,30 L29,30 Z M29,38 C27.346,38 26,36.654 26,35 C26,33.346 27.346,32 29,32 C30.654,32 32,33.346 32,35 C32,36.654 30.654,38 29,38 L29,38 Z" id="Shape" fill="#000000"></path>
        <path d="M26.342,21.215 C26.199,20.681 25.648,20.367 25.118,20.507 C19.953,21.887 15.888,25.953 14.508,31.117 C14.365,31.651 14.682,32.199 15.216,32.342 C15.302,32.365 15.389,32.376 15.475,32.376 C15.916,32.376 16.321,32.081 16.44,31.634 C17.636,27.159 21.16,23.636 25.634,22.44 C26.168,22.297 26.484,21.749 26.342,21.215 L26.342,21.215 Z" id="Shape" fill="#000000"></path>
        <path d="M32.366,47.56 C31.832,47.703 31.515,48.251 31.658,48.785 C31.777,49.232 32.181,49.527 32.623,49.527 C32.709,49.527 32.796,49.516 32.882,49.493 C38.047,48.113 42.113,44.047 43.493,38.881 C43.636,38.347 43.319,37.799 42.785,37.656 C42.259,37.515 41.704,37.831 41.561,38.364 C40.365,42.841 36.842,46.364 32.366,47.56 L32.366,47.56 Z" id="Shape" fill="#000000"></path>
        <path d="M38,35 C38,30.038 33.963,26 29,26 C24.037,26 20,30.038 20,35 C20,39.962 24.037,44 29,44 C33.963,44 38,39.962 38,35 L38,35 Z M29,42 C25.141,42 22,38.86 22,35 C22,31.14 25.141,28 29,28 C32.859,28 36,31.14 36,35 C36,38.86 32.859,42 29,42 L29,42 Z" id="Shape" fill="#000000"></path>
    </g>
</svg>