<?xml version="1.0" encoding="UTF-8" standalone="no"?>
<svg width="64px" height="64px" viewBox="0 0 64 64" version="1.1" xmlns="http://www.w3.org/2000/svg" xmlns:xlink="http://www.w3.org/1999/xlink">
    <!-- Generator: Sketch 3.7.2 (28276) - http://www.bohemiancoding.com/sketch -->
    <title>mus-harp</title>
    <desc>Created with Sketch.</desc>
    <defs></defs>
    <g id="64px-Line" stroke="none" stroke-width="1" fill="none" fill-rule="evenodd">
        <g id="mus-harp"></g>
        <path d="M57.389,6.08 C57.017,5.924 56.589,6.005 56.301,6.285 C56.263,6.322 52.388,10 45,10 C41.117,10 37.125,9.5 33.265,9.017 C29.275,8.517 25.149,8 21,8 C12.309,8 6,12.626 6,19 C6,19.062 6.025,19.116 6.035,19.176 C6.042,19.213 6.031,19.251 6.042,19.287 L18.042,59.287 C18.169,59.71 18.559,60 19,60 L33,60 C33.339,60 33.655,59.828 33.84,59.543 C34.025,59.258 34.051,58.899 33.912,58.59 L32.553,55.571 C37.645,53.584 59.303,43.364 54.045,15.196 C57.927,11.961 58,7.073 58,7 C58,6.598 57.758,6.237 57.389,6.08 L57.389,6.08 Z M19.744,58 L8.344,20 L14.354,20 L31.454,58 L19.744,58 L19.744,58 Z M28.765,16.613 C29.505,16.71 30.303,16.813 31.124,16.916 L21.842,31.767 L20.003,27.681 L27.058,16.392 C27.596,16.46 28.164,16.534 28.765,16.613 L28.765,16.613 Z M28.48,46.518 L46.198,18.17 C47.777,26.972 45.343,34.621 38.928,40.91 C35.056,44.705 30.792,46.882 29.009,47.694 L28.48,46.518 L28.48,46.518 Z M27.493,44.325 L25.654,40.239 L39.683,17.792 C41.112,17.892 42.544,17.959 43.957,17.982 L27.493,44.325 L27.493,44.325 Z M24.667,38.046 L22.828,33.96 L33.314,17.183 C34.64,17.339 36.022,17.485 37.437,17.613 L24.667,38.046 L24.667,38.046 Z M19.016,25.488 L16.015,18.819 C16.172,16.353 19.452,16.001 23,16.001 C23.451,16.001 24.09,16.051 24.864,16.132 L19.016,25.488 L19.016,25.488 Z M31.738,53.759 L29.827,49.513 C34.205,47.496 51.811,38.015 48.147,17.751 C49.754,17.484 51.096,17.014 52.221,16.416 C56.723,43.033 36.237,52.108 31.738,53.759 L31.738,53.759 Z M45,16 C39.521,16 33.454,15.208 29.023,14.63 C28.192,14.522 27.422,14.422 26.71,14.333 C26.708,14.333 26.706,14.333 26.704,14.332 C25.109,14.134 23.83,14 23,14 C20.501,14 14.901,14.007 14.103,18 L8.067,18 C8.698,13.242 13.837,10 21,10 C25.023,10 29.087,10.509 33.016,11.001 C36.938,11.492 40.992,12 45,12 C50.032,12 53.584,10.471 55.63,9.238 C54.854,11.908 52.447,16 45,16 L45,16 Z" id="Shape" fill="#000000"></path>
    </g>
</svg>