<?xml version="1.0" encoding="UTF-8" standalone="no"?>
<svg width="64px" height="64px" viewBox="0 0 64 64" version="1.1" xmlns="http://www.w3.org/2000/svg" xmlns:xlink="http://www.w3.org/1999/xlink">
    <!-- Generator: Sketch 3.7.2 (28276) - http://www.bohemiancoding.com/sketch -->
    <title>mus-radio-mic</title>
    <desc>Created with Sketch.</desc>
    <defs></defs>
    <g id="64px-Line" stroke="none" stroke-width="1" fill="none" fill-rule="evenodd">
        <g id="mus-radio-mic"></g>
        <path d="M44,33 L44,25 C44,24.447 43.552,24 43,24 C42.448,24 42,24.447 42,25 L42,33 C42,39.065 37.065,44 31,44 C24.935,44 20,39.065 20,33 L20,25 C20,24.447 19.552,24 19,24 C18.448,24 18,24.447 18,25 L18,33 C18,39.831 23.299,45.436 30,45.949 L30,58 L25,58 C24.448,58 24,58.447 24,59 C24,59.553 24.448,60 25,60 L37,60 C37.552,60 38,59.553 38,59 C38,58.447 37.552,58 37,58 L32,58 L32,45.949 C38.701,45.436 44,39.831 44,33 L44,33 Z" id="Shape" fill="#000000"></path>
        <path d="M31,42 C35.962,42 40,37.963 40,33 L40,15 C40,10.037 35.962,6 31,6 C26.038,6 22,10.037 22,15 L22,33 C22,37.963 26.038,42 31,42 L31,42 Z M24,15 C24,11.141 27.14,8 31,8 C34.86,8 38,11.141 38,15 L38,33 C38,36.859 34.86,40 31,40 C27.14,40 24,36.859 24,33 L24,15 L24,15 Z" id="Shape" fill="#000000"></path>
    </g>
</svg>