<?xml version="1.0" encoding="UTF-8" standalone="no"?>
<svg width="64px" height="64px" viewBox="0 0 64 64" version="1.1" xmlns="http://www.w3.org/2000/svg" xmlns:xlink="http://www.w3.org/1999/xlink">
    <!-- Generator: Sketch 3.7.2 (28276) - http://www.bohemiancoding.com/sketch -->
    <title>mus-headphones</title>
    <desc>Created with Sketch.</desc>
    <defs></defs>
    <g id="64px-Line" stroke="none" stroke-width="1" fill="none" fill-rule="evenodd">
        <g id="mus-headphones"></g>
        <path d="M59.242,40.03 L56,39.22 L56,37 L56,36 C56,22.767 45.233,12 32,12 C18.767,12 8,22.767 8,36 L8,37 L8,39.22 L4.758,40.031 C4.313,40.142 4,40.542 4,41.001 L4,48.001 C4,48.46 4.312,48.859 4.758,48.971 L8,49.78 L8,50 C8,52.206 9.794,54 12,54 C14.206,54 16,52.206 16,50 L16,40 C16,37.794 14.206,36 12,36 L10,36 C10,23.869 19.869,14 32,14 C44.131,14 54,23.869 54,36 L52,36 C49.794,36 48,37.794 48,40 L48,50 C48,52.206 49.794,54 52,54 C54.206,54 56,52.206 56,50 L56,49.78 L59.242,48.969 C59.687,48.858 60,48.458 60,47.999 L60,40.999 C60,40.541 59.688,40.142 59.242,40.03 L59.242,40.03 Z M6,47.219 L6,41.781 L8,41.281 L8,47.719 L6,47.219 L6,47.219 Z M12,38 C13.103,38 14,38.897 14,40 L14,50 C14,51.103 13.103,52 12,52 C10.897,52 10,51.103 10,50 L10,38 L12,38 L12,38 Z M54,50 C54,51.103 53.103,52 52,52 C50.897,52 50,51.103 50,50 L50,40 C50,38.897 50.897,38 52,38 L54,38 L54,50 L54,50 Z M58,47.219 L56,47.719 L56,41.281 L58,41.781 L58,47.219 L58,47.219 Z" id="Shape" fill="#000000"></path>
    </g>
</svg>