<?xml version="1.0" encoding="UTF-8" standalone="no"?>
<svg width="64px" height="64px" viewBox="0 0 64 64" version="1.1" xmlns="http://www.w3.org/2000/svg" xmlns:xlink="http://www.w3.org/1999/xlink">
    <!-- Generator: Sketch 3.7.2 (28276) - http://www.bohemiancoding.com/sketch -->
    <title>mus-french-horn</title>
    <desc>Created with Sketch.</desc>
    <defs></defs>
    <g id="64px-Line" stroke="none" stroke-width="1" fill="none" fill-rule="evenodd">
        <g id="mus-french-horn"></g>
        <path d="M5,58 C8.583,58 10.783,55.207 11.566,54 L29,54 C31.976,54 34.784,53.293 37.294,52.067 C37.379,52.041 37.454,52.002 37.527,51.955 C43.729,48.823 48,42.408 48,35 L48,23 C48,16.665 57.481,9.884 57.577,9.816 C57.932,9.565 58.085,9.112 57.952,8.697 C57.821,8.282 57.436,8 57,8 L37,8 C36.564,8 36.179,8.282 36.047,8.697 C35.915,9.113 36.068,9.565 36.423,9.817 C36.519,9.884 46,16.654 46,23 L46,26.565 C42.885,20.315 36.445,16 29,16 C18.523,16 10,24.523 10,35 C10,42.406 14.269,48.819 20.467,51.953 C20.491,51.968 20.512,51.987 20.538,52 L11.584,52 C10.827,50.772 8.707,48 5,48 C4.448,48 4,48.448 4,49 L4,57 C4,57.552 4.448,58 5,58 L5,58 Z M39.873,10 L54.127,10 C51.898,11.91 48.629,15.129 47,18.752 C45.371,15.129 42.102,11.91 39.873,10 L39.873,10 Z M12,35 C12,25.626 19.626,18 29,18 C38.374,18 46,25.626 46,35 C46,41.067 42.795,46.387 38,49.396 L38,36 L39,36 C39.552,36 40,35.552 40,35 C40,34.448 39.552,34 39,34 L35,34 C34.448,34 34,34.448 34,35 C34,35.552 34.448,36 35,36 L36,36 L36,50.474 C34.151,51.314 32.129,51.825 30,51.949 L30,36 L31,36 C31.552,36 32,35.552 32,35 C32,34.448 31.552,34 31,34 L27,34 C26.448,34 26,34.448 26,35 C26,35.552 26.448,36 27,36 L28,36 L28,51.949 C25.871,51.824 23.849,51.314 22,50.474 L22,36 L23,36 C23.552,36 24,35.552 24,35 C24,34.448 23.552,34 23,34 L19,34 C18.448,34 18,34.448 18,35 C18,35.552 18.448,36 19,36 L20,36 L20,49.396 C15.205,46.387 12,41.067 12,35 L12,35 Z M6,50.1 C8.071,50.521 9.334,52.172 9.842,52.982 C9.306,53.788 7.989,55.45 6,55.891 L6,50.1 L6,50.1 Z" id="Shape" fill="#000000"></path>
    </g>
</svg>