<?xml version="1.0" encoding="UTF-8" standalone="no"?>
<svg width="64px" height="64px" viewBox="0 0 64 64" version="1.1" xmlns="http://www.w3.org/2000/svg" xmlns:xlink="http://www.w3.org/1999/xlink">
    <!-- Generator: Sketch 3.7.2 (28276) - http://www.bohemiancoding.com/sketch -->
    <title>mus-drums</title>
    <desc>Created with Sketch.</desc>
    <defs></defs>
    <g id="64px-Line" stroke="none" stroke-width="1" fill="none" fill-rule="evenodd">
        <g id="mus-drums"></g>
        <path d="M56,29 L56,19 C56,18.448 55.553,18 55,18 L42,18 L42,14 L51,14 C51.553,14 52,13.552 52,13 C52,12.448 51.553,12 51,12 L42,12 L42,10 L51,10 C51.553,10 52,9.552 52,9 C52,8.448 51.553,8 51,8 L42,8 L42,7 C42,6.448 41.553,6 41,6 C40.447,6 40,6.448 40,7 L40,8 L31,8 C30.447,8 30,8.448 30,9 C30,9.552 30.447,10 31,10 L40,10 L40,12 L31,12 C30.447,12 30,12.448 30,13 C30,13.552 30.447,14 31,14 L40,14 L40,18 L35,18 C34.447,18 34,18.448 34,19 L34,24.118 C33.343,24.045 32.677,24 32,24 C31.323,24 30.657,24.045 30,24.118 L30,19 C30,18.448 29.553,18 29,18 L9,18 C8.447,18 8,18.448 8,19 L8,29 C8,29.552 8.447,30 9,30 L18.622,30 C15.759,33.188 14,37.388 14,42 C14,46.604 15.752,50.795 18.605,53.981 L14.293,58.293 C13.902,58.684 13.902,59.316 14.293,59.707 C14.488,59.902 14.744,60 15,60 C15.256,60 15.512,59.902 15.707,59.707 L20.019,55.395 C23.205,58.249 27.397,60 32,60 C36.603,60 40.795,58.248 43.981,55.395 L48.293,59.707 C48.488,59.902 48.744,60 49,60 C49.256,60 49.512,59.902 49.707,59.707 C50.098,59.316 50.098,58.684 49.707,58.293 L45.395,53.981 C48.248,50.795 50,46.603 50,42 C50,37.388 48.241,33.188 45.378,30 L55,30 C55.553,30 56,29.552 56,29 L56,29 Z M10,20 L28,20 L28,24.463 C25.288,25.082 22.806,26.307 20.711,28 L10,28 L10,20 L10,20 Z M32,58 C23.178,58 16,50.822 16,42 C16,33.178 23.178,26 32,26 C40.822,26 48,33.178 48,42 C48,50.822 40.822,58 32,58 L32,58 Z M54,28 L43.289,28 C41.194,26.307 38.713,25.082 36,24.463 L36,20 L54,20 L54,28 L54,28 Z" id="Shape" fill="#000000"></path>
    </g>
</svg>