<?xml version="1.0" encoding="UTF-8" standalone="no"?>
<svg width="64px" height="64px" viewBox="0 0 64 64" version="1.1" xmlns="http://www.w3.org/2000/svg" xmlns:xlink="http://www.w3.org/1999/xlink">
    <!-- Generator: Sketch 3.7.2 (28276) - http://www.bohemiancoding.com/sketch -->
    <title>mus-record</title>
    <desc>Created with Sketch.</desc>
    <defs></defs>
    <g id="64px-Line" stroke="none" stroke-width="1" fill="none" fill-rule="evenodd">
        <g id="mus-record"></g>
        <path d="M31,60 C45.888,60 58,47.888 58,33 C58,18.112 45.888,6 31,6 C16.112,6 4,18.112 4,33 C4,47.888 16.112,60 31,60 L31,60 Z M31,8 C44.785,8 56,19.215 56,33 C56,46.785 44.785,58 31,58 C17.215,58 6,46.785 6,33 C6,19.215 17.215,8 31,8 L31,8 Z" id="Shape" fill="#000000"></path>
        <path d="M31,38 C33.757,38 36,35.757 36,33 C36,30.243 33.757,28 31,28 C28.243,28 26,30.243 26,33 C26,35.757 28.243,38 31,38 L31,38 Z M31,30 C32.654,30 34,31.346 34,33 C34,34.654 32.654,36 31,36 C29.346,36 28,34.654 28,33 C28,31.346 29.346,30 31,30 L31,30 Z" id="Shape" fill="#000000"></path>
        <path d="M20,33 C20,39.065 24.935,44 31,44 C37.065,44 42,39.065 42,33 C42,26.935 37.065,22 31,22 C24.935,22 20,26.935 20,33 L20,33 Z M31,24 C35.963,24 40,28.038 40,33 C40,37.962 35.963,42 31,42 C26.037,42 22,37.962 22,33 C22,28.038 26.037,24 31,24 L31,24 Z" id="Shape" fill="#000000"></path>
        <path d="M12.644,28.082 C12.501,28.616 12.818,29.164 13.352,29.307 C13.438,29.33 13.525,29.341 13.611,29.341 C14.052,29.341 14.457,29.046 14.576,28.599 C16.139,22.747 20.746,18.14 26.598,16.576 C27.132,16.433 27.449,15.885 27.306,15.351 C27.164,14.818 26.611,14.504 26.082,14.643 C19.54,16.392 14.391,21.541 12.644,28.082 L12.644,28.082 Z" id="Shape" fill="#000000"></path>
        <path d="M35.402,49.425 C34.868,49.568 34.551,50.116 34.694,50.65 C34.813,51.097 35.217,51.392 35.659,51.392 C35.745,51.392 35.832,51.381 35.918,51.358 C42.46,49.609 47.609,44.459 49.356,37.919 C49.499,37.385 49.182,36.837 48.648,36.694 C48.124,36.555 47.567,36.868 47.424,37.402 C45.861,43.253 41.255,47.86 35.402,49.425 L35.402,49.425 Z" id="Shape" fill="#000000"></path>
        <path d="M9.486,28.271 C9.572,28.294 9.659,28.305 9.745,28.305 C10.186,28.305 10.591,28.01 10.71,27.563 C12.643,20.334 18.334,14.643 25.563,12.711 C26.097,12.568 26.414,12.02 26.271,11.486 C26.128,10.952 25.577,10.639 25.047,10.778 C17.129,12.894 10.895,19.128 8.778,27.046 C8.636,27.58 8.952,28.127 9.486,28.271 L9.486,28.271 Z" id="Shape" fill="#000000"></path>
        <path d="M36.438,53.289 C35.904,53.432 35.587,53.98 35.73,54.514 C35.849,54.961 36.253,55.256 36.695,55.256 C36.781,55.256 36.868,55.245 36.954,55.222 C44.872,53.106 51.106,46.872 53.223,38.954 C53.366,38.42 53.049,37.872 52.515,37.729 C51.991,37.59 51.434,37.903 51.291,38.437 C49.357,45.667 43.666,51.357 36.438,53.289 L36.438,53.289 Z" id="Shape" fill="#000000"></path>
        <path d="M16.508,29.117 C16.365,29.651 16.682,30.199 17.216,30.342 C17.302,30.365 17.389,30.376 17.475,30.376 C17.916,30.376 18.321,30.081 18.44,29.634 C19.636,25.159 23.16,21.636 27.634,20.44 C28.168,20.297 28.485,19.749 28.342,19.215 C28.199,18.681 27.647,18.365 27.118,18.507 C21.953,19.888 17.888,23.953 16.508,29.117 L16.508,29.117 Z" id="Shape" fill="#000000"></path>
        <path d="M34.366,45.56 C33.832,45.703 33.515,46.251 33.658,46.785 C33.777,47.232 34.181,47.527 34.623,47.527 C34.709,47.527 34.796,47.516 34.882,47.493 C40.047,46.113 44.112,42.047 45.492,36.883 C45.635,36.349 45.318,35.801 44.784,35.658 C44.259,35.52 43.703,35.833 43.56,36.366 C42.364,40.841 38.841,44.364 34.366,45.56 L34.366,45.56 Z" id="Shape" fill="#000000"></path>
    </g>
</svg>