<?xml version="1.0" encoding="UTF-8" standalone="no"?>
<svg width="64px" height="64px" viewBox="0 0 64 64" version="1.1" xmlns="http://www.w3.org/2000/svg" xmlns:xlink="http://www.w3.org/1999/xlink">
    <!-- Generator: Sketch 3.7.2 (28276) - http://www.bohemiancoding.com/sketch -->
    <title>mus-note-2</title>
    <desc>Created with Sketch.</desc>
    <defs></defs>
    <g id="64px-Line" stroke="none" stroke-width="1" fill="none" fill-rule="evenodd">
        <g id="mus-note-2"></g>
        <path d="M15,46 C9.617,46 6,48.813 6,53 C6,57.187 9.617,60 15,60 C20.383,60 24,57.187 24,53 L24,25.839 L56,20.192 L56,38 C56,39.103 55.103,40 54,40 L49,40 C43.617,40 40,42.813 40,47 C40,51.187 43.617,54 49,54 C54.383,54 58,51.187 58,47 L58,7 C58,6.705 57.869,6.424 57.643,6.234 C57.417,6.045 57.118,5.964 56.827,6.015 L22.827,12.015 C22.348,12.1 22,12.515 22,13 L22,44 C22,45.103 21.103,46 20,46 L15,46 L15,46 Z M56,47 C56,50.69 52.229,52 49,52 C45.771,52 42,50.69 42,47 C42,43.31 45.771,42 49,42 L54,42 C54.728,42 55.411,41.805 56,41.463 L56,47 L56,47 Z M56,8.192 L56,18.161 L24,23.808 L24,13.839 L56,8.192 L56,8.192 Z M22,47.463 L22,53 C22,56.69 18.229,58 15,58 C11.771,58 8,56.69 8,53 C8,49.31 11.771,48 15,48 L20,48 C20.728,48 21.411,47.805 22,47.463 L22,47.463 Z" id="Shape" fill="#000000"></path>
    </g>
</svg>