<?xml version="1.0" encoding="UTF-8" standalone="no"?>
<svg width="64px" height="64px" viewBox="0 0 64 64" version="1.1" xmlns="http://www.w3.org/2000/svg" xmlns:xlink="http://www.w3.org/1999/xlink">
    <!-- Generator: Sketch 3.7.2 (28276) - http://www.bohemiancoding.com/sketch -->
    <title>mus-cover</title>
    <desc>Created with Sketch.</desc>
    <defs></defs>
    <g id="64px-Line" stroke="none" stroke-width="1" fill="none" fill-rule="evenodd">
        <g id="mus-cover"></g>
        <path d="M5,10 C4.447,10 4,10.447 4,11 L4,53 C4,53.553 4.447,54 5,54 C5.553,54 6,53.553 6,53 L6,11 C6,10.447 5.553,10 5,10 L5,10 Z" id="Shape" fill="#000000"></path>
        <path d="M16.445,19.832 C16.906,20.138 17.526,20.014 17.832,19.555 C18.139,19.095 18.015,18.475 17.555,18.168 L11.555,14.168 C11.248,13.964 10.853,13.944 10.529,14.118 C10.203,14.292 10,14.631 10,15 L10,49 C10,49.369 10.203,49.708 10.528,49.882 C10.675,49.961 10.838,50 11,50 C11.194,50 11.388,49.943 11.555,49.832 L17.555,45.832 C18.015,45.525 18.139,44.905 17.832,44.445 C17.526,43.985 16.906,43.861 16.445,44.168 L12,47.132 L12,16.868 L16.445,19.832 L16.445,19.832 Z" id="Shape" fill="#000000"></path>
        <path d="M53.472,14.118 C53.148,13.944 52.752,13.964 52.446,14.168 L46.446,18.168 C45.986,18.475 45.862,19.095 46.169,19.555 C46.475,20.014 47.094,20.138 47.556,19.832 L52.001,16.868 L52.001,47.132 L47.556,44.168 C47.094,43.861 46.475,43.985 46.169,44.445 C45.862,44.905 45.986,45.525 46.446,45.832 L52.446,49.832 C52.613,49.943 52.806,50 53.001,50 C53.163,50 53.325,49.961 53.473,49.882 C53.798,49.708 54.001,49.369 54.001,49 L54.001,15 C54,14.631 53.797,14.292 53.472,14.118 L53.472,14.118 Z" id="Shape" fill="#000000"></path>
        <path d="M59,10 C58.447,10 58,10.447 58,11 L58,53 C58,53.553 58.447,54 59,54 C59.553,54 60,53.553 60,53 L60,11 C60,10.447 59.553,10 59,10 L59,10 Z" id="Shape" fill="#000000"></path>
        <path d="M43,44 C43.553,44 44,43.553 44,43 L44,21 C44,20.447 43.553,20 43,20 L21,20 C20.447,20 20,20.447 20,21 L20,43 C20,43.553 20.447,44 21,44 L43,44 L43,44 Z M22,22 L42,22 L42,42 L22,42 L22,22 L22,22 Z" id="Shape" fill="#000000"></path>
        <path d="M33.707,24.293 C33.421,24.007 32.991,23.922 32.617,24.076 C32.243,24.23 32,24.596 32,25 L32,31.5 C32,31.775 31.775,32 31.5,32 L30,32 C27.645,32 26,33.645 26,36 C26,38.598 28.061,40 30,40 C31.939,40 34,38.598 34,36 L34,27.414 L36.293,29.707 C36.684,30.098 37.316,30.098 37.707,29.707 C38.098,29.316 38.098,28.684 37.707,28.293 L33.707,24.293 L33.707,24.293 Z M32,36 C32,37.374 30.963,38 30,38 C29.037,38 28,37.374 28,36 C28,34.748 28.748,34 30,34 L31.5,34 C31.671,34 31.838,33.982 32,33.95 L32,36 L32,36 Z" id="Shape" fill="#000000"></path>
    </g>
</svg>