<?xml version="1.0" encoding="UTF-8" standalone="no"?>
<svg width="64px" height="64px" viewBox="0 0 64 64" version="1.1" xmlns="http://www.w3.org/2000/svg" xmlns:xlink="http://www.w3.org/1999/xlink">
    <!-- Generator: Sketch 3.7.2 (28276) - http://www.bohemiancoding.com/sketch -->
    <title>mus-speakers</title>
    <desc>Created with Sketch.</desc>
    <defs></defs>
    <g id="64px-Line" stroke="none" stroke-width="1" fill="none" fill-rule="evenodd">
        <g id="mus-speakers"></g>
        <path d="M24,46 C26.206,46 28,44.206 28,42 L28,10 C28,7.794 26.206,6 24,6 L10,6 C7.794,6 6,7.794 6,10 L6,42 C6,44.206 7.794,46 10,46 L16,46 L16,56 L11,56 C10.447,56 10,56.447 10,57 C10,57.553 10.447,58 11,58 L23,58 C23.553,58 24,57.553 24,57 C24,56.447 23.553,56 23,56 L18,56 L18,46 L24,46 L24,46 Z M10,8 L24,8 C25.103,8 26,8.897 26,10 L26,38 L8,38 L8,10 C8,8.897 8.897,8 10,8 L10,8 Z M8,42 L8,40 L26,40 L26,42 C26,43.103 25.103,44 24,44 L10,44 C8.897,44 8,43.103 8,42 L8,42 Z" id="Shape" fill="#000000"></path>
        <path d="M17,36 C20.859,36 24,32.859 24,29 C24,25.141 20.859,22 17,22 C13.141,22 10,25.141 10,29 C10,32.859 13.141,36 17,36 L17,36 Z M17,24 C19.757,24 22,26.243 22,29 C22,31.757 19.757,34 17,34 C14.243,34 12,31.757 12,29 C12,26.243 14.243,24 17,24 L17,24 Z" id="Shape" fill="#000000"></path>
        <path d="M17,20 C19.757,20 22,17.757 22,15 C22,12.243 19.757,10 17,10 C14.243,10 12,12.243 12,15 C12,17.757 14.243,20 17,20 L17,20 Z M17,12 C18.654,12 20,13.346 20,15 C20,16.654 18.654,18 17,18 C15.346,18 14,16.654 14,15 C14,13.346 15.346,12 17,12 L17,12 Z" id="Shape" fill="#000000"></path>
        <path d="M17,32 C18.654,32 20,30.654 20,29 C20,27.346 18.654,26 17,26 C15.346,26 14,27.346 14,29 C14,30.654 15.346,32 17,32 L17,32 Z M17,28 C17.552,28 18,28.448 18,29 C18,29.552 17.552,30 17,30 C16.448,30 16,29.552 16,29 C16,28.448 16.448,28 17,28 L17,28 Z" id="Shape" fill="#000000"></path>
        <path d="M16.29,15.71 C16.479,15.899 16.729,16 17,16 C17.27,16 17.52,15.899 17.71,15.71 C17.8,15.609 17.87,15.5 17.92,15.38 C17.97,15.26 18,15.13 18,15 C18,14.87 17.97,14.74 17.92,14.62 C17.87,14.49 17.8,14.39 17.71,14.29 C17.33,13.92 16.66,13.92 16.29,14.29 C16.2,14.39 16.13,14.49 16.08,14.62 C16.03,14.74 16,14.87 16,15 C16,15.13 16.03,15.26 16.08,15.38 C16.13,15.5 16.2,15.609 16.29,15.71 L16.29,15.71 Z" id="Shape" fill="#000000"></path>
        <path d="M54,46 C56.206,46 58,44.206 58,42 L58,10 C58,7.794 56.206,6 54,6 L40,6 C37.794,6 36,7.794 36,10 L36,42 C36,44.206 37.794,46 40,46 L46,46 L46,56 L41,56 C40.447,56 40,56.447 40,57 C40,57.553 40.447,58 41,58 L53,58 C53.553,58 54,57.553 54,57 C54,56.447 53.553,56 53,56 L48,56 L48,46 L54,46 L54,46 Z M40,8 L54,8 C55.103,8 56,8.897 56,10 L56,38 L38,38 L38,10 C38,8.897 38.897,8 40,8 L40,8 Z M38,42 L38,40 L56,40 L56,42 C56,43.103 55.103,44 54,44 L40,44 C38.897,44 38,43.103 38,42 L38,42 Z" id="Shape" fill="#000000"></path>
        <path d="M47,36 C50.859,36 54,32.859 54,29 C54,25.141 50.859,22 47,22 C43.141,22 40,25.141 40,29 C40,32.859 43.141,36 47,36 L47,36 Z M47,24 C49.757,24 52,26.243 52,29 C52,31.757 49.757,34 47,34 C44.243,34 42,31.757 42,29 C42,26.243 44.243,24 47,24 L47,24 Z" id="Shape" fill="#000000"></path>
        <path d="M47,20 C49.757,20 52,17.757 52,15 C52,12.243 49.757,10 47,10 C44.243,10 42,12.243 42,15 C42,17.757 44.243,20 47,20 L47,20 Z M47,12 C48.654,12 50,13.346 50,15 C50,16.654 48.654,18 47,18 C45.346,18 44,16.654 44,15 C44,13.346 45.346,12 47,12 L47,12 Z" id="Shape" fill="#000000"></path>
        <path d="M47,32 C48.654,32 50,30.654 50,29 C50,27.346 48.654,26 47,26 C45.346,26 44,27.346 44,29 C44,30.654 45.346,32 47,32 L47,32 Z M47,28 C47.552,28 48,28.448 48,29 C48,29.552 47.552,30 47,30 C46.448,30 46,29.552 46,29 C46,28.448 46.448,28 47,28 L47,28 Z" id="Shape" fill="#000000"></path>
        <path d="M46.62,15.92 C46.74,15.97 46.87,16 47,16 C47.13,16 47.26,15.97 47.38,15.92 C47.5,15.87 47.609,15.8 47.71,15.71 C47.899,15.52 48,15.27 48,15 C48,14.87 47.97,14.74 47.92,14.62 C47.87,14.49 47.8,14.39 47.71,14.29 C47.66,14.25 47.609,14.2 47.56,14.17 C47.5,14.13 47.44,14.1 47.38,14.08 C47.319,14.05 47.26,14.03 47.2,14.019 C47,13.979 46.8,13.999 46.62,14.08 C46.49,14.13 46.39,14.2 46.29,14.29 C46.2,14.39 46.13,14.49 46.08,14.62 C46.03,14.74 46,14.87 46,15 C46,15.27 46.1,15.52 46.29,15.71 C46.39,15.8 46.49,15.87 46.62,15.92 L46.62,15.92 Z" id="Shape" fill="#000000"></path>
    </g>
</svg>