<?xml version="1.0" encoding="UTF-8" standalone="no"?>
<svg width="64px" height="64px" viewBox="0 0 64 64" version="1.1" xmlns="http://www.w3.org/2000/svg" xmlns:xlink="http://www.w3.org/1999/xlink">
    <!-- Generator: Sketch 3.7.2 (28276) - http://www.bohemiancoding.com/sketch -->
    <title>mus-cd-audio</title>
    <desc>Created with Sketch.</desc>
    <defs></defs>
    <g id="64px-Line" stroke="none" stroke-width="1" fill="none" fill-rule="evenodd">
        <g id="mus-cd-audio"></g>
        <path d="M51,30 C48.243,30 46,32.243 46,35 L46,45 C46,47.757 48.243,50 51,50 C53.757,50 56,47.757 56,45 L56,35 C56,32.243 53.757,30 51,30 L51,30 Z M54,45 C54,46.654 52.654,48 51,48 C49.346,48 48,46.654 48,45 L48,35 C48,33.346 49.346,32 51,32 C52.654,32 54,33.346 54,35 L54,45 L54,45 Z" id="Shape" fill="#000000"></path>
        <path d="M59,40.002 C58.447,40.002 58,40.45 58,41.002 L58,45.002 C58,48.859 54.864,51.997 51.008,52.002 C51.005,52.002 51.003,52.001 51,52.001 C50.997,52.001 50.995,52.002 50.992,52.002 C47.136,51.998 44,48.86 44,45.002 L44,41.002 C44,40.45 43.553,40.002 43,40.002 C42.447,40.002 42,40.45 42,41.002 L42,45.002 C42,49.626 45.507,53.443 50,53.943 L50,58 L48,58 C47.447,58 47,58.448 47,59 C47,59.552 47.447,60 48,60 L54,60 C54.553,60 55,59.552 55,59 C55,58.448 54.553,58 54,58 L52,58 L52,53.943 C56.493,53.443 60,49.626 60,45.002 L60,41.002 C60,40.45 59.553,40.002 59,40.002 L59,40.002 Z" id="Shape" fill="#000000"></path>
        <path d="M22.7,11.29 C22.562,10.755 22.016,10.434 21.482,10.572 C15.155,12.208 10.208,17.155 8.572,23.483 C8.433,24.018 8.755,24.564 9.29,24.702 C9.374,24.723 9.458,24.734 9.541,24.734 C9.985,24.734 10.392,24.435 10.508,23.984 C11.962,18.36 16.36,13.963 21.983,12.509 C22.518,12.37 22.839,11.824 22.7,11.29 L22.7,11.29 Z" id="Shape" fill="#000000"></path>
        <path d="M26,50 C31.004,50 35.72,48.363 39.637,45.265 C40.071,44.923 40.144,44.294 39.801,43.861 C39.459,43.429 38.831,43.354 38.397,43.697 C34.836,46.512 30.549,48 26,48 C14.972,48 6,39.028 6,28 C6,16.972 14.972,8 26,8 C37.028,8 46,16.972 46,28 C46,28.552 46.447,29 47,29 C47.553,29 48,28.552 48,28 C48,15.869 38.131,6 26,6 C13.869,6 4,15.869 4,28 C4,40.131 13.869,50 26,50 L26,50 Z" id="Shape" fill="#000000"></path>
        <path d="M26,34 C29.309,34 32,31.309 32,28 C32,24.691 29.309,22 26,22 C22.691,22 20,24.691 20,28 C20,31.309 22.691,34 26,34 L26,34 Z M26,24 C28.206,24 30,25.794 30,28 C30,30.206 28.206,32 26,32 C23.794,32 22,30.206 22,28 C22,25.794 23.794,24 26,24 L26,24 Z" id="Shape" fill="#000000"></path>
        <path d="M30.267,45.46 C30.35,45.46 30.434,45.45 30.518,45.428 C36.845,43.792 41.792,38.845 43.428,32.517 C43.567,31.982 43.245,31.436 42.71,31.298 C42.176,31.16 41.63,31.481 41.492,32.016 C40.037,37.641 35.64,42.037 30.017,43.491 C29.482,43.629 29.161,44.175 29.299,44.71 C29.416,45.161 29.822,45.46 30.267,45.46 L30.267,45.46 Z" id="Shape" fill="#000000"></path>
        <path d="M26,38 C31.514,38 36,33.514 36,28 C36,22.486 31.514,18 26,18 C20.486,18 16,22.486 16,28 C16,33.514 20.486,38 26,38 L26,38 Z M26,20 C30.411,20 34,23.589 34,28 C34,32.411 30.411,36 26,36 C21.589,36 18,32.411 18,28 C18,23.589 21.589,20 26,20 L26,20 Z" id="Shape" fill="#000000"></path>
    </g>
</svg>