<?xml version="1.0" encoding="UTF-8" standalone="no"?>
<svg width="64px" height="64px" viewBox="0 0 64 64" version="1.1" xmlns="http://www.w3.org/2000/svg" xmlns:xlink="http://www.w3.org/1999/xlink">
    <!-- Generator: Sketch 3.7.2 (28276) - http://www.bohemiancoding.com/sketch -->
    <title>mus-player</title>
    <desc>Created with Sketch.</desc>
    <defs></defs>
    <g id="64px-Line" stroke="none" stroke-width="1" fill="none" fill-rule="evenodd">
        <g id="mus-player"></g>
        <path d="M8,54 L54,54 C56.206,54 58,52.206 58,50 L58,12 C58,9.794 56.206,8 54,8 L8,8 C5.794,8 4,9.794 4,12 L4,50 C4,52.206 5.794,54 8,54 L8,54 Z M6,12 C6,10.897 6.897,10 8,10 L54,10 C55.103,10 56,10.897 56,12 L56,50 C56,51.103 55.103,52 54,52 L8,52 C6.897,52 6,51.103 6,50 L6,12 L6,12 Z" id="Shape" fill="#000000"></path>
        <path d="M49,42 C47.346,42 46,43.346 46,45 C46,46.654 47.346,48 49,48 C50.654,48 52,46.654 52,45 C52,43.346 50.654,42 49,42 L49,42 Z M49,46 C48.449,46 48,45.552 48,45 C48,44.448 48.449,44 49,44 C49.551,44 50,44.448 50,45 C50,45.552 49.551,46 49,46 L49,46 Z" id="Shape" fill="#000000"></path>
        <path d="M25,48 C34.374,48 42,40.374 42,31 C42,29.308 41.744,27.676 41.281,26.132 L44.246,23.167 C45.037,23.691 45.982,24 46.999,24 C49.756,24 51.999,21.757 51.999,19 C51.999,16.243 49.756,14 46.999,14 C44.242,14 41.999,16.243 41.999,19 C41.999,20.017 42.308,20.962 42.832,21.752 L40.51,24.075 C37.853,18.146 31.907,14 25,14 C15.626,14 8,21.626 8,31 C8,40.374 15.626,48 25,48 L25,48 Z M47,16 C48.654,16 50,17.346 50,19 C50,20.654 48.654,22 47,22 C45.346,22 44,20.654 44,19 C44,17.346 45.346,16 47,16 L47,16 Z M25,16 C31.368,16 36.808,19.995 38.98,25.605 L26.586,38 L23,38 C22.448,38 22,38.447 22,39 C22,39.553 22.448,40 23,40 L27,40 C27.265,40 27.52,39.895 27.707,39.707 L39.641,27.772 C39.87,28.813 40,29.891 40,31 C40,39.271 33.271,46 25,46 C16.729,46 10,39.271 10,31 C10,22.729 16.729,16 25,16 L25,16 Z" id="Shape" fill="#000000"></path>
        <path d="M25,34 C26.654,34 28,32.654 28,31 C28,29.346 26.654,28 25,28 C23.346,28 22,29.346 22,31 C22,32.654 23.346,34 25,34 L25,34 Z M25,30 C25.551,30 26,30.448 26,31 C26,31.552 25.551,32 25,32 C24.449,32 24,31.552 24,31 C24,30.448 24.449,30 25,30 L25,30 Z" id="Shape" fill="#000000"></path>
        <path d="M13,56 C12.448,56 12,56.447 12,57 C12,57.553 12.448,58 13,58 L17,58 C17.552,58 18,57.553 18,57 C18,56.447 17.552,56 17,56 L13,56 L13,56 Z" id="Shape" fill="#000000"></path>
    </g>
</svg>