<?xml version="1.0" encoding="UTF-8" standalone="no"?>
<svg width="64px" height="64px" viewBox="0 0 64 64" version="1.1" xmlns="http://www.w3.org/2000/svg" xmlns:xlink="http://www.w3.org/1999/xlink">
    <!-- Generator: Sketch 3.7.2 (28276) - http://www.bohemiancoding.com/sketch -->
    <title>mus-piano</title>
    <desc>Created with Sketch.</desc>
    <defs></defs>
    <g id="64px-Line" stroke="none" stroke-width="1" fill="none" fill-rule="evenodd">
        <g id="mus-piano"></g>
        <path d="M9,50 L10,50 L10,57 C10,58.654 11.346,60 13,60 L51,60 C52.654,60 54,58.654 54,57 L54,50 L55,50 C56.654,50 58,48.654 58,47 L58,21.396 C58,13.149 51.729,6.395 43.724,6.018 C36.069,5.664 29.391,11.077 28.188,18.624 L28.188,18.624 C27.935,20.218 27.375,21.716 26.524,23.077 L26.315,23.411 C24.721,25.962 22.193,27.822 19.199,28.649 C11.427,30.794 6,37.93 6,46 L6,47 C6,48.654 7.346,50 9,50 L9,50 Z M52,57 C52,57.551 51.551,58 51,58 L13,58 C12.449,58 12,57.551 12,57 L12,50 L16,50 L16,54 C16,54.552 16.448,55 17,55 C17.552,55 18,54.552 18,54 L18,50 L22,50 L22,54 C22,54.552 22.448,55 23,55 C23.552,55 24,54.552 24,54 L24,50 L28,50 L28,54 C28,54.552 28.448,55 29,55 C29.552,55 30,54.552 30,54 L30,50 L34,50 L34,54 C34,54.552 34.448,55 35,55 C35.552,55 36,54.552 36,54 L36,50 L40,50 L40,54 C40,54.552 40.448,55 41,55 C41.552,55 42,54.552 42,54 L42,50 L46,50 L46,54 C46,54.552 46.448,55 47,55 C47.552,55 48,54.552 48,54 L48,50 L52,50 L52,57 L52,57 Z M8,46 C8,38.826 12.824,32.483 19.73,30.576 C23.209,29.616 26.15,27.447 28.01,24.471 L28.219,24.137 C29.213,22.547 29.866,20.798 30.162,18.938 L30.162,18.938 C31.204,12.399 36.996,7.715 43.63,8.016 C50.567,8.343 56,14.22 56,21.396 L56,47 C56,47.551 55.551,48 55,48 L9,48 C8.449,48 8,47.551 8,47 L8,46 L8,46 Z" id="Shape" fill="#000000"></path>
    </g>
</svg>