<?xml version="1.0" encoding="UTF-8" standalone="no"?>
<svg width="64px" height="64px" viewBox="0 0 64 64" version="1.1" xmlns="http://www.w3.org/2000/svg" xmlns:xlink="http://www.w3.org/1999/xlink">
    <!-- Generator: Sketch 3.7.2 (28276) - http://www.bohemiancoding.com/sketch -->
    <title>mus-equaliser</title>
    <desc>Created with Sketch.</desc>
    <defs></defs>
    <g id="64px-Line" stroke="none" stroke-width="1" fill="none" fill-rule="evenodd">
        <g id="mus-equaliser"></g>
        <path d="M6,59 C6,59.552 6.448,60 7,60 L15,60 C15.552,60 16,59.552 16,59 L16,55 C16,54.448 15.552,54 15,54 L7,54 C6.448,54 6,54.448 6,55 L6,59 L6,59 Z M8,56 L14,56 L14,58 L8,58 L8,56 L8,56 Z" id="Shape" fill="#000000"></path>
        <path d="M6,51 C6,51.552 6.448,52 7,52 L15,52 C15.552,52 16,51.552 16,51 L16,47 C16,46.448 15.552,46 15,46 L7,46 C6.448,46 6,46.448 6,47 L6,51 L6,51 Z M8,48 L14,48 L14,50 L8,50 L8,48 L8,48 Z" id="Shape" fill="#000000"></path>
        <path d="M15,38 L7,38 C6.448,38 6,38.448 6,39 L6,43 C6,43.552 6.448,44 7,44 L15,44 C15.552,44 16,43.552 16,43 L16,39 C16,38.448 15.552,38 15,38 L15,38 Z M14,42 L8,42 L8,40 L14,40 L14,42 L14,42 Z" id="Shape" fill="#000000"></path>
        <path d="M20,51 C20,51.552 20.448,52 21,52 L29,52 C29.552,52 30,51.552 30,51 L30,47 C30,46.448 29.552,46 29,46 L21,46 C20.448,46 20,46.448 20,47 L20,51 L20,51 Z M22,48 L28,48 L28,50 L22,50 L22,48 L22,48 Z" id="Shape" fill="#000000"></path>
        <path d="M20,43 C20,43.552 20.448,44 21,44 L29,44 C29.552,44 30,43.552 30,43 L30,39 C30,38.448 29.552,38 29,38 L21,38 C20.448,38 20,38.448 20,39 L20,43 L20,43 Z M22,40 L28,40 L28,42 L22,42 L22,40 L22,40 Z" id="Shape" fill="#000000"></path>
        <path d="M20,35 C20,35.552 20.448,36 21,36 L29,36 C29.552,36 30,35.552 30,35 L30,31 C30,30.448 29.552,30 29,30 L21,30 C20.448,30 20,30.448 20,31 L20,35 L20,35 Z M22,32 L28,32 L28,34 L22,34 L22,32 L22,32 Z" id="Shape" fill="#000000"></path>
        <path d="M34,51 C34,51.552 34.448,52 35,52 L43,52 C43.552,52 44,51.552 44,51 L44,47 C44,46.448 43.552,46 43,46 L35,46 C34.448,46 34,46.448 34,47 L34,51 L34,51 Z M36,48 L42,48 L42,50 L36,50 L36,48 L36,48 Z" id="Shape" fill="#000000"></path>
        <path d="M34,43 C34,43.552 34.448,44 35,44 L43,44 C43.552,44 44,43.552 44,43 L44,39 C44,38.448 43.552,38 43,38 L35,38 C34.448,38 34,38.448 34,39 L34,43 L34,43 Z M36,40 L42,40 L42,42 L36,42 L36,40 L36,40 Z" id="Shape" fill="#000000"></path>
        <path d="M35,36 L43,36 C43.552,36 44,35.552 44,35 L44,31 C44,30.448 43.552,30 43,30 L35,30 C34.448,30 34,30.448 34,31 L34,35 C34,35.552 34.448,36 35,36 L35,36 Z M36,32 L42,32 L42,34 L36,34 L36,32 L36,32 Z" id="Shape" fill="#000000"></path>
        <path d="M20,27 C20,27.552 20.448,28 21,28 L29,28 C29.552,28 30,27.552 30,27 L30,23 C30,22.448 29.552,22 29,22 L21,22 C20.448,22 20,22.448 20,23 L20,27 L20,27 Z M22,24 L28,24 L28,26 L22,26 L22,24 L22,24 Z" id="Shape" fill="#000000"></path>
        <path d="M57,46 L49,46 C48.448,46 48,46.448 48,47 L48,51 C48,51.552 48.448,52 49,52 L57,52 C57.552,52 58,51.552 58,51 L58,47 C58,46.448 57.552,46 57,46 L57,46 Z M56,50 L50,50 L50,48 L56,48 L56,50 L56,50 Z" id="Shape" fill="#000000"></path>
        <path d="M57,38 L49,38 C48.448,38 48,38.448 48,39 L48,43 C48,43.552 48.448,44 49,44 L57,44 C57.552,44 58,43.552 58,43 L58,39 C58,38.448 57.552,38 57,38 L57,38 Z M56,42 L50,42 L50,40 L56,40 L56,42 L56,42 Z" id="Shape" fill="#000000"></path>
        <path d="M57,30 L49,30 C48.448,30 48,30.448 48,31 L48,35 C48,35.552 48.448,36 49,36 L57,36 C57.552,36 58,35.552 58,35 L58,31 C58,30.448 57.552,30 57,30 L57,30 Z M56,34 L50,34 L50,32 L56,32 L56,34 L56,34 Z" id="Shape" fill="#000000"></path>
        <path d="M57,22 L49,22 C48.448,22 48,22.448 48,23 L48,27 C48,27.552 48.448,28 49,28 L57,28 C57.552,28 58,27.552 58,27 L58,23 C58,22.448 57.552,22 57,22 L57,22 Z M56,26 L50,26 L50,24 L56,24 L56,26 L56,26 Z" id="Shape" fill="#000000"></path>
        <path d="M57,14 L49,14 C48.448,14 48,14.448 48,15 L48,19 C48,19.552 48.448,20 49,20 L57,20 C57.552,20 58,19.552 58,19 L58,15 C58,14.448 57.552,14 57,14 L57,14 Z M56,18 L50,18 L50,16 L56,16 L56,18 L56,18 Z" id="Shape" fill="#000000"></path>
        <path d="M20,19 C20,19.552 20.448,20 21,20 L29,20 C29.552,20 30,19.552 30,19 L30,15 C30,14.448 29.552,14 29,14 L21,14 C20.448,14 20,14.448 20,15 L20,19 L20,19 Z M22,16 L28,16 L28,18 L22,18 L22,16 L22,16 Z" id="Shape" fill="#000000"></path>
        <path d="M21,12 L29,12 C29.552,12 30,11.552 30,11 L30,7 C30,6.448 29.552,6 29,6 L21,6 C20.448,6 20,6.448 20,7 L20,11 C20,11.552 20.448,12 21,12 L21,12 Z M22,8 L28,8 L28,10 L22,10 L22,8 L22,8 Z" id="Shape" fill="#000000"></path>
        <path d="M20,59 C20,59.552 20.448,60 21,60 L29,60 C29.552,60 30,59.552 30,59 L30,55 C30,54.448 29.552,54 29,54 L21,54 C20.448,54 20,54.448 20,55 L20,59 L20,59 Z M22,56 L28,56 L28,58 L22,58 L22,56 L22,56 Z" id="Shape" fill="#000000"></path>
        <path d="M34,59 C34,59.552 34.448,60 35,60 L43,60 C43.552,60 44,59.552 44,59 L44,55 C44,54.448 43.552,54 43,54 L35,54 C34.448,54 34,54.448 34,55 L34,59 L34,59 Z M36,56 L42,56 L42,58 L36,58 L36,56 L36,56 Z" id="Shape" fill="#000000"></path>
        <path d="M57,54 L49,54 C48.448,54 48,54.448 48,55 L48,59 C48,59.552 48.448,60 49,60 L57,60 C57.552,60 58,59.552 58,59 L58,55 C58,54.448 57.552,54 57,54 L57,54 Z M56,58 L50,58 L50,56 L56,56 L56,58 L56,58 Z" id="Shape" fill="#000000"></path>
    </g>
</svg>