<?xml version="1.0" encoding="UTF-8" standalone="no"?>
<svg width="64px" height="64px" viewBox="0 0 64 64" version="1.1" xmlns="http://www.w3.org/2000/svg" xmlns:xlink="http://www.w3.org/1999/xlink">
    <!-- Generator: Sketch 3.7.2 (28276) - http://www.bohemiancoding.com/sketch -->
    <title>mus-triangle</title>
    <desc>Created with Sketch.</desc>
    <defs></defs>
    <g id="64px-Line" stroke="none" stroke-width="1" fill="none" fill-rule="evenodd">
        <g id="mus-triangle"></g>
        <path d="M54.565,50.825 C55.02,50.513 55.136,49.89 54.825,49.435 L36.457,22.616 C35.334,21.217 33.745,20.328 32,20.079 L32,7 C32,6.448 31.553,6 31,6 C30.447,6 30,6.448 30,7 L30,20.08 C28.254,20.33 26.659,21.226 25.5,22.673 L7.562,48.581 C5.846,50.717 5.519,53.583 6.708,56.06 C7.873,58.49 10.253,59.999 12.92,59.999 L51,59.999 C51.553,59.999 52,59.551 52,58.999 C52,58.447 51.553,57.999 51,57.999 L12.919,57.999 C11,57.999 9.352,56.951 8.51,55.195 C7.657,53.418 7.892,51.362 9.163,49.776 L27.101,23.868 C27.842,22.946 28.866,22.334 29.999,22.105 L29.999,23 C29.999,23.552 30.446,24 30.999,24 C31.552,24 31.999,23.552 31.999,23 L31.999,22.104 C33.131,22.331 34.146,22.932 34.852,23.807 L53.174,50.565 C53.488,51.021 54.109,51.138 54.565,50.825 L54.565,50.825 Z" id="Shape" fill="#000000"></path>
        <path d="M57.707,16.293 C57.316,15.902 56.684,15.902 56.293,16.293 L43.978,28.608 C43.587,28.999 43.587,29.631 43.978,30.022 C44.173,30.217 44.429,30.315 44.685,30.315 C44.941,30.315 45.197,30.217 45.392,30.022 L57.707,17.707 C58.098,17.316 58.098,16.684 57.707,16.293 L57.707,16.293 Z" id="Shape" fill="#000000"></path>
        <path d="M38.222,34.364 L30.293,42.293 C29.902,42.684 29.902,43.316 30.293,43.707 C30.488,43.902 30.744,44 31,44 C31.256,44 31.512,43.902 31.707,43.707 L39.636,35.778 C40.027,35.387 40.027,34.755 39.636,34.364 C39.245,33.973 38.612,33.974 38.222,34.364 L38.222,34.364 Z" id="Shape" fill="#000000"></path>
    </g>
</svg>