<?xml version="1.0" encoding="UTF-8" standalone="no"?>
<svg width="64px" height="64px" viewBox="0 0 64 64" version="1.1" xmlns="http://www.w3.org/2000/svg" xmlns:xlink="http://www.w3.org/1999/xlink">
    <!-- Generator: Sketch 3.7.2 (28276) - http://www.bohemiancoding.com/sketch -->
    <title>mus-drum</title>
    <desc>Created with Sketch.</desc>
    <defs></defs>
    <g id="64px-Line" stroke="none" stroke-width="1" fill="none" fill-rule="evenodd">
        <g id="mus-drum"></g>
        <path d="M54,25 C54,22.486 50.533,20.629 45.525,19.461 L57.625,9.781 C58.056,9.435 58.126,8.806 57.781,8.375 C57.435,7.944 56.807,7.874 56.375,8.219 L42.966,18.947 C39.334,18.32 35.159,18 31,18 C26.841,18 22.666,18.32 19.034,18.946 L5.625,8.218 C5.193,7.873 4.565,7.946 4.219,8.374 C3.874,8.806 3.945,9.435 4.375,9.78 L16.475,19.46 C11.467,20.629 8,22.486 8,25 L8,51 C8,55.596 19.57,58 31,58 C42.43,58 54,55.596 54,51 L54,25 L54,25 Z M18.509,21.089 L24.375,25.781 C24.56,25.928 24.78,26 24.999,26 C25.293,26 25.583,25.871 25.781,25.625 C26.126,25.193 26.055,24.564 25.625,24.219 L21.165,20.651 C24.006,20.252 27.302,20 31,20 C34.698,20 37.994,20.251 40.835,20.651 L36.375,24.219 C35.944,24.565 35.874,25.194 36.219,25.625 C36.417,25.872 36.707,26 37.001,26 C37.22,26 37.44,25.929 37.625,25.781 L43.491,21.089 C48.882,22.137 52,23.743 52,25 C52,27.039 43.819,30 31,30 C18.181,30 10,27.039 10,25 C10,23.743 13.119,22.137 18.509,21.089 L18.509,21.089 Z M30,31.994 L30,55.986 C25.263,55.927 21.203,55.467 18,54.805 L18,30.864 C21.579,31.561 25.774,31.942 30,31.994 L30,31.994 Z M32,31.994 C36.226,31.942 40.421,31.561 44,30.865 L44,54.806 C40.797,55.468 36.737,55.928 32,55.987 L32,31.994 L32,31.994 Z M10,51 L10,28.041 C11.413,29.013 13.498,29.809 16,30.427 L16,54.342 C12.168,53.334 10,52.047 10,51 L10,51 Z M46,54.341 L46,30.426 C48.502,29.808 50.587,29.012 52,28.04 L52,51 C52,52.047 49.832,53.334 46,54.341 L46,54.341 Z" id="Shape" fill="#000000"></path>
    </g>
</svg>