<?xml version="1.0" encoding="UTF-8" standalone="no"?>
<svg width="64px" height="64px" viewBox="0 0 64 64" version="1.1" xmlns="http://www.w3.org/2000/svg" xmlns:xlink="http://www.w3.org/1999/xlink">
    <!-- Generator: Sketch 3.7.2 (28276) - http://www.bohemiancoding.com/sketch -->
    <title>mus-cd</title>
    <desc>Created with Sketch.</desc>
    <defs></defs>
    <g id="64px-Line" stroke="none" stroke-width="1" fill="none" fill-rule="evenodd">
        <g id="mus-cd"></g>
        <path d="M58,56 L58,46 C58,43.794 56.206,42 54,42 L24,42 C21.794,42 20,43.794 20,46 L20,56 C20,58.206 21.794,60 24,60 L54,60 C56.206,60 58,58.206 58,56 L58,56 Z M22,56 L22,46 C22,44.897 22.897,44 24,44 L54,44 C55.103,44 56,44.897 56,46 L56,56 C56,57.103 55.103,58 54,58 L24,58 C22.897,58 22,57.103 22,56 L22,56 Z" id="Shape" fill="#000000"></path>
        <path d="M22.701,11.29 C22.563,10.756 22.019,10.435 21.482,10.572 C15.154,12.208 10.208,17.155 8.572,23.483 C8.434,24.018 8.755,24.564 9.29,24.702 C9.374,24.723 9.458,24.734 9.541,24.734 C9.986,24.734 10.392,24.435 10.509,23.984 C11.963,18.36 16.36,13.963 21.984,12.509 C22.518,12.37 22.839,11.824 22.701,11.29 L22.701,11.29 Z" id="Shape" fill="#000000"></path>
        <path d="M26,34 C29.309,34 32,31.309 32,28 C32,24.691 29.309,22 26,22 C22.691,22 20,24.691 20,28 C20,31.309 22.691,34 26,34 L26,34 Z M26,24 C28.206,24 30,25.794 30,28 C30,30.206 28.206,32 26,32 C23.794,32 22,30.206 22,28 C22,25.794 23.794,24 26,24 L26,24 Z" id="Shape" fill="#000000"></path>
        <path d="M39.724,39.647 C41.474,37.587 42.755,35.122 43.429,32.517 C43.567,31.982 43.246,31.436 42.711,31.298 C42.174,31.159 41.63,31.482 41.492,32.016 C40.894,34.33 39.756,36.521 38.2,38.352 C37.843,38.773 37.894,39.404 38.315,39.762 C38.503,39.922 38.733,40 38.962,40 C39.244,40 39.526,39.88 39.724,39.647 L39.724,39.647 Z" id="Shape" fill="#000000"></path>
        <path d="M26,38 C31.514,38 36,33.514 36,28 C36,22.486 31.514,18 26,18 C20.486,18 16,22.486 16,28 C16,33.514 20.486,38 26,38 L26,38 Z M26,20 C30.411,20 34,23.589 34,28 C34,32.411 30.411,36 26,36 C21.589,36 18,32.411 18,28 C18,23.589 21.589,20 26,20 L26,20 Z" id="Shape" fill="#000000"></path>
        <path d="M14.526,46.774 C15.19,47.181 15.881,47.555 16.58,47.887 C16.718,47.952 16.864,47.983 17.008,47.983 C17.382,47.983 17.741,47.772 17.912,47.411 C18.148,46.912 17.935,46.316 17.436,46.079 C16.801,45.778 16.174,45.438 15.57,45.068 C9.578,41.398 6,35.018 6,28 C6,16.972 14.972,8 26,8 C37.028,8 46,16.972 46,28 C46,31.711 44.977,35.333 43.04,38.476 C42.75,38.946 42.897,39.562 43.367,39.852 C43.837,40.141 44.454,39.995 44.743,39.525 C46.873,36.067 48,32.082 48,28 C48,15.869 38.131,6 26,6 C13.869,6 4,15.869 4,28 C4,35.719 7.935,42.738 14.526,46.774 L14.526,46.774 Z" id="Shape" fill="#000000"></path>
        <path d="M35,47.999 C35.551,47.999 36,48.448 36,48.999 C36,49.551 36.448,49.999 37,49.999 C37.552,49.999 38,49.551 38,48.999 C38,47.345 36.654,45.999 35,45.999 C33.346,45.999 32,47.345 32,48.999 L32,52.999 C32,54.653 33.346,55.999 35,55.999 C36.654,55.999 38,54.653 38,52.999 C38,52.447 37.552,51.999 37,51.999 C36.448,51.999 36,52.447 36,52.999 C36,53.55 35.551,53.999 35,53.999 C34.449,53.999 34,53.55 34,52.999 L34,48.999 C34,48.448 34.449,47.999 35,47.999 L35,47.999 Z" id="Shape" fill="#000000"></path>
        <path d="M43,46.001 L41,46.001 C40.448,46.001 40,46.449 40,47.001 L40,55.001 C40,55.553 40.448,56.001 41,56.001 L43,56.001 C44.654,56.001 46,54.655 46,53.001 L46,49.001 C46,47.347 44.654,46.001 43,46.001 L43,46.001 Z M43,54.001 L42,54.001 L42,48.001 L43,48.001 C43.551,48.001 44,48.45 44,49.001 L44,53.001 C44,53.552 43.551,54.001 43,54.001 L43,54.001 Z" id="Shape" fill="#000000"></path>
    </g>
</svg>