<?xml version="1.0" encoding="UTF-8" standalone="no"?>
<svg width="64px" height="64px" viewBox="0 0 64 64" version="1.1" xmlns="http://www.w3.org/2000/svg" xmlns:xlink="http://www.w3.org/1999/xlink">
    <!-- Generator: Sketch 3.7.2 (28276) - http://www.bohemiancoding.com/sketch -->
    <title>mus-mic</title>
    <desc>Created with Sketch.</desc>
    <defs></defs>
    <g id="64px-Line" stroke="none" stroke-width="1" fill="none" fill-rule="evenodd">
        <g id="mus-mic"></g>
        <path d="M20.501,44.499 C20.757,44.499 21.013,44.401 21.208,44.206 L25.436,39.978 C25.827,39.587 25.827,38.955 25.436,38.564 C25.045,38.173 24.413,38.173 24.022,38.564 L19.794,42.792 C19.403,43.183 19.403,43.815 19.794,44.206 C19.99,44.401 20.246,44.499 20.501,44.499 L20.501,44.499 Z" id="Shape" fill="#000000"></path>
        <path d="M5,60 C5.256,60 5.512,59.902 5.707,59.707 L14.864,50.55 L18.385,54.071 C18.579,54.265 18.835,54.364 19.093,54.364 C19.306,54.364 19.52,54.296 19.7,54.158 L43.403,36.032 C47.143,35.97 50.76,34.384 53.622,31.523 C59.451,25.694 59.451,16.209 53.622,10.379 C47.793,4.549 38.308,4.55 32.478,10.379 C29.622,13.235 28.042,16.848 27.976,20.587 L9.842,44.3 C9.538,44.698 9.575,45.26 9.929,45.614 L13.45,49.135 L4.293,58.292 C3.902,58.683 3.902,59.315 4.293,59.706 C4.488,59.902 4.744,60 5,60 L5,60 Z M33.217,12.532 L51.469,30.783 C49.133,32.824 46.332,33.961 43.45,34.029 L29.977,20.556 C30.044,17.67 31.177,14.868 33.217,12.532 L33.217,12.532 Z M52.207,11.793 C57.017,16.604 57.234,24.283 52.878,29.365 L34.634,11.121 C39.716,6.766 47.396,6.983 52.207,11.793 L52.207,11.793 Z M29.058,22.465 L41.535,34.942 L19.18,52.037 L15.573,48.43 C15.573,48.43 15.573,48.429 15.572,48.429 C15.571,48.429 15.571,48.429 15.571,48.428 L11.964,44.821 L29.058,22.465 L29.058,22.465 Z" id="Shape" fill="#000000"></path>
    </g>
</svg>