<?xml version="1.0" encoding="UTF-8" standalone="no"?>
<svg width="64px" height="64px" viewBox="0 0 64 64" version="1.1" xmlns="http://www.w3.org/2000/svg" xmlns:xlink="http://www.w3.org/1999/xlink">
    <!-- Generator: Sketch 3.7.2 (28276) - http://www.bohemiancoding.com/sketch -->
    <title>mus-stop</title>
    <desc>Created with Sketch.</desc>
    <defs></defs>
    <g id="64px-Line" stroke="none" stroke-width="1" fill="none" fill-rule="evenodd">
        <g id="mus-stop"></g>
        <path d="M50,10 L14,10 C11.794,10 10,11.794 10,14 L10,50 C10,52.206 11.794,54 14,54 L50,54 C52.206,54 54,52.206 54,50 L54,14 C54,11.794 52.206,10 50,10 L50,10 Z M52,50 C52,51.103 51.103,52 50,52 L14,52 C12.897,52 12,51.103 12,50 L12,14 C12,12.897 12.897,12 14,12 L50,12 C51.103,12 52,12.897 52,14 L52,50 L52,50 Z" id="Shape" fill="#000000"></path>
    </g>
</svg>