<?xml version="1.0" encoding="UTF-8" standalone="no"?>
<svg width="64px" height="64px" viewBox="0 0 64 64" version="1.1" xmlns="http://www.w3.org/2000/svg" xmlns:xlink="http://www.w3.org/1999/xlink">
    <!-- Generator: Sketch 3.7.2 (28276) - http://www.bohemiancoding.com/sketch -->
    <title>mus-previous</title>
    <desc>Created with Sketch.</desc>
    <defs></defs>
    <g id="64px-Line" stroke="none" stroke-width="1" fill="none" fill-rule="evenodd">
        <g id="mus-previous"></g>
        <path d="M12,10 C9.794,10 8,11.794 8,14 L8,50 C8,52.206 9.794,54 12,54 C14.206,54 16,52.206 16,50 L16,14 C16,11.794 14.206,10 12,10 L12,10 Z M14,50 C14,51.103 13.103,52 12,52 C10.897,52 10,51.103 10,50 L10,14 C10,12.897 10.897,12 12,12 C13.103,12 14,12.897 14,14 L14,50 L14,50 Z" id="Shape" fill="#000000"></path>
        <path d="M54,10 C53.229,10 52.455,10.245 51.699,10.729 L23.756,28.687 C22.656,29.433 22,30.671 22,31.999 C22,33.328 22.657,34.566 23.777,35.323 L51.701,53.27 C52.455,53.753 53.228,53.999 54,53.999 C56.206,53.999 58,52.205 58,49.999 L58,13.999 C58,11.794 56.206,10 54,10 L54,10 Z M56,50 C56,51.103 55.103,52 54,52 C53.612,52 53.213,51.865 52.781,51.589 L24.879,33.656 C24.328,33.283 24,32.664 24,32 C24,31.336 24.328,30.717 24.859,30.357 L52.779,12.412 C53.213,12.135 53.612,12 54,12 C55.103,12 56,12.897 56,14 L56,50 L56,50 Z" id="Shape" fill="#000000"></path>
    </g>
</svg>