<?xml version="1.0" encoding="UTF-8" standalone="no"?>
<svg width="64px" height="64px" viewBox="0 0 64 64" version="1.1" xmlns="http://www.w3.org/2000/svg" xmlns:xlink="http://www.w3.org/1999/xlink">
    <!-- Generator: Sketch 3.7.2 (28276) - http://www.bohemiancoding.com/sketch -->
    <title>net-cable</title>
    <desc>Created with Sketch.</desc>
    <defs></defs>
    <g id="64px-Line" stroke="none" stroke-width="1" fill="none" fill-rule="evenodd">
        <g id="net-cable"></g>
        <path d="M47.707,4.293 C47.316,3.902 46.684,3.902 46.293,4.293 L34,16.586 L33.707,16.293 C33.316,15.902 32.684,15.902 32.293,16.293 L16.293,32.293 C15.902,32.684 15.902,33.316 16.293,33.707 L20.586,38 L19,39.586 L15.707,36.293 C15.316,35.902 14.684,35.902 14.293,36.293 C13.902,36.684 13.902,37.316 14.293,37.707 L17.586,41 L16,42.586 L13.707,40.293 C13.316,39.902 12.684,39.902 12.293,40.293 C11.902,40.684 11.902,41.316 12.293,41.707 L14.586,44 L13,45.586 L11.707,44.293 C11.316,43.902 10.684,43.902 10.293,44.293 C9.902,44.684 9.902,45.316 10.293,45.707 L11.586,47 L4.293,54.293 C3.902,54.684 3.902,55.316 4.293,55.707 C4.488,55.902 4.744,56 5,56 C5.256,56 5.512,55.902 5.707,55.707 L13,48.414 L15.586,51 L8.293,58.293 C7.902,58.684 7.902,59.316 8.293,59.707 C8.488,59.902 8.744,60 9,60 C9.256,60 9.512,59.902 9.707,59.707 L17,52.414 L18.293,53.707 C18.488,53.902 18.744,54 19,54 C19.256,54 19.512,53.902 19.707,53.707 C20.098,53.316 20.098,52.684 19.707,52.293 L18.414,51 L20,49.414 L22.293,51.707 C22.488,51.902 22.744,52 23,52 C23.256,52 23.512,51.902 23.707,51.707 C24.098,51.316 24.098,50.684 23.707,50.293 L21.414,48 L23,46.414 L26.293,49.707 C26.488,49.902 26.744,50 27,50 C27.256,50 27.512,49.902 27.707,49.707 C28.098,49.316 28.098,48.684 27.707,48.293 L24.414,45 L26,43.414 L30.293,47.707 C30.488,47.902 30.744,48 31,48 C31.256,48 31.512,47.902 31.707,47.707 L47.707,31.707 C48.098,31.316 48.098,30.684 47.707,30.293 L47.414,30 L59.707,17.707 C60.098,17.316 60.098,16.684 59.707,16.293 L47.707,4.293 L47.707,4.293 Z M50.352,9.766 L38.766,21.352 L37.877,20.463 L49.425,8.839 L50.352,9.766 L50.352,9.766 Z M51.766,11.18 L52.727,12.141 L41.141,23.727 L40.18,22.766 L51.766,11.18 L51.766,11.18 Z M42.555,25.141 L54.141,13.555 L55.162,14.576 L43.538,26.124 L42.555,25.141 L42.555,25.141 Z M47,6.414 L48.01,7.424 L36.462,19.048 L35.414,18 L47,6.414 L47,6.414 Z M17,49.586 L14.414,47 L16,45.414 L18.586,48 L17,49.586 L17,49.586 Z M20,46.586 L17.414,44 L19,42.414 L21.586,45 L20,46.586 L20,46.586 Z M23,43.586 L20.414,41 L22,39.414 L24.586,42 L23,43.586 L23,43.586 Z M31,45.586 L18.414,33 L33,18.414 L45.586,31 L31,45.586 L31,45.586 Z M46,28.586 L44.952,27.538 L56.576,15.99 L57.586,17 L46,28.586 L46,28.586 Z" id="Shape" fill="#000000"></path>
        <path d="M33.707,22.293 C33.316,21.902 32.684,21.902 32.293,22.293 L30.293,24.293 C27.805,26.78 27.694,31.555 30.069,33.931 C31.175,35.038 32.828,35.661 34.635,35.661 C34.731,35.661 34.827,35.659 34.924,35.655 C36.793,35.588 38.536,34.877 39.706,33.707 L41.706,31.707 C42.097,31.316 42.097,30.684 41.706,30.293 L33.707,22.293 L33.707,22.293 Z M38.293,32.293 C37.488,33.098 36.201,33.607 34.852,33.657 C33.484,33.691 32.257,33.29 31.484,32.516 C29.884,30.915 29.999,27.415 31.708,25.706 L33.001,24.413 L39.587,30.999 L38.293,32.293 L38.293,32.293 Z" id="Shape" fill="#000000"></path>
    </g>
</svg>