<?xml version="1.0" encoding="UTF-8" standalone="no"?>
<svg width="64px" height="64px" viewBox="0 0 64 64" version="1.1" xmlns="http://www.w3.org/2000/svg" xmlns:xlink="http://www.w3.org/1999/xlink">
    <!-- Generator: Sketch 3.7.2 (28276) - http://www.bohemiancoding.com/sketch -->
    <title>net-upload-2</title>
    <desc>Created with Sketch.</desc>
    <defs></defs>
    <g id="64px-Line" stroke="none" stroke-width="1" fill="none" fill-rule="evenodd">
        <g id="net-upload-2"></g>
        <path d="M55,48 C54.447,48 54,48.447 54,49 L54,55 C54,55.552 53.552,56 53,56 L9,56 C8.448,56 8,55.552 8,55 L8,49 C8,48.447 7.553,48 7,48 C6.447,48 6,48.447 6,49 L6,55 C6,56.654 7.346,58 9,58 L53,58 C54.654,58 56,56.654 56,55 L56,49 C56,48.447 55.553,48 55,48 L55,48 Z" id="Shape" fill="#000000"></path>
        <path d="M31,48 C31.553,48 32,47.553 32,47 L32,9.414 L40.293,17.707 C40.488,17.902 40.744,18 41,18 C41.256,18 41.512,17.902 41.707,17.707 C42.098,17.316 42.098,16.684 41.707,16.293 L31.708,6.294 C31.616,6.201 31.505,6.128 31.382,6.077 C31.138,5.976 30.863,5.976 30.618,6.077 C30.495,6.128 30.384,6.202 30.292,6.294 L20.293,16.293 C19.902,16.684 19.902,17.316 20.293,17.707 C20.684,18.098 21.316,18.098 21.707,17.707 L30,9.414 L30,47 C30,47.553 30.447,48 31,48 L31,48 Z" id="Shape" fill="#000000"></path>
    </g>
</svg>