<?xml version="1.0" encoding="UTF-8" standalone="no"?>
<svg width="64px" height="64px" viewBox="0 0 64 64" version="1.1" xmlns="http://www.w3.org/2000/svg" xmlns:xlink="http://www.w3.org/1999/xlink">
    <!-- Generator: Sketch 3.7.2 (28276) - http://www.bohemiancoding.com/sketch -->
    <title>net-wifi-laptop</title>
    <desc>Created with Sketch.</desc>
    <defs></defs>
    <g id="64px-Line" stroke="none" stroke-width="1" fill="none" fill-rule="evenodd">
        <g id="net-wifi-laptop"></g>
        <path d="M61,46 L58,46 L58,16 C58,13.794 56.206,12 54,12 L10,12 C7.794,12 6,13.794 6,16 L6,46 L3,46 C2.448,46 2,46.447 2,47 L2,50 C2,52.206 3.794,54 6,54 L58,54 C60.206,54 62,52.206 62,50 L62,47 C62,46.447 61.552,46 61,46 L61,46 Z M8,16 C8,14.897 8.897,14 10,14 L54,14 C55.103,14 56,14.897 56,16 L56,46 L8,46 L8,16 L8,16 Z M60,50 C60,51.103 59.103,52 58,52 L6,52 C4.897,52 4,51.103 4,50 L4,48 L60,48 L60,50 L60,50 Z" id="Shape" fill="#000000"></path>
        <path d="M53,16 L11,16 C10.448,16 10,16.447 10,17 L10,43 C10,43.553 10.448,44 11,44 L53,44 C53.552,44 54,43.553 54,43 L54,17 C54,16.447 53.552,16 53,16 L53,16 Z M52,42 L12,42 L12,18 L52,18 L52,42 L52,42 Z" id="Shape" fill="#000000"></path>
        <circle id="Oval" fill="#000000" cx="32" cy="36" r="2"></circle>
        <path d="M32,30 C30.397,30 28.891,30.624 27.757,31.758 C27.366,32.149 27.366,32.781 27.757,33.172 C28.148,33.563 28.78,33.563 29.171,33.172 C30.683,31.66 33.317,31.66 34.828,33.172 C35.023,33.367 35.279,33.465 35.535,33.465 C35.791,33.465 36.047,33.367 36.242,33.172 C36.633,32.781 36.633,32.149 36.242,31.758 C35.109,30.624 33.603,30 32,30 L32,30 Z" id="Shape" fill="#000000"></path>
        <path d="M24.929,28.929 C24.538,29.32 24.538,29.952 24.929,30.343 C25.32,30.734 25.952,30.734 26.343,30.343 C29.462,27.224 34.537,27.224 37.656,30.343 C37.851,30.538 38.107,30.636 38.363,30.636 C38.619,30.636 38.875,30.538 39.07,30.343 C39.461,29.952 39.461,29.32 39.07,28.929 C35.172,25.03 28.828,25.03 24.929,28.929 L24.929,28.929 Z" id="Shape" fill="#000000"></path>
        <path d="M23.515,27.515 C25.782,25.248 28.795,24 32,24 C35.205,24 38.219,25.248 40.485,27.515 C40.68,27.71 40.936,27.808 41.192,27.808 C41.448,27.808 41.704,27.71 41.899,27.515 C42.29,27.124 42.29,26.492 41.899,26.101 C39.255,23.456 35.74,22 32,22 C28.26,22 24.745,23.456 22.101,26.101 C21.71,26.492 21.71,27.124 22.101,27.515 C22.492,27.906 23.124,27.905 23.515,27.515 L23.515,27.515 Z" id="Shape" fill="#000000"></path>
    </g>
</svg>