<?xml version="1.0" encoding="UTF-8" standalone="no"?>
<svg width="64px" height="64px" viewBox="0 0 64 64" version="1.1" xmlns="http://www.w3.org/2000/svg" xmlns:xlink="http://www.w3.org/1999/xlink">
    <!-- Generator: Sketch 3.7.2 (28276) - http://www.bohemiancoding.com/sketch -->
    <title>net-wifi-search</title>
    <desc>Created with Sketch.</desc>
    <defs></defs>
    <g id="64px-Line" stroke="none" stroke-width="1" fill="none" fill-rule="evenodd">
        <g id="net-wifi-search"></g>
        <path d="M29,60 C29.256,60 29.512,59.902 29.707,59.707 L37.676,51.738 C39.4,53.15 41.602,54 44,54 C49.514,54 54,49.514 54,44 C54,38.486 49.514,34 44,34 C38.486,34 34,38.486 34,44 C34,46.397 34.85,48.6 36.262,50.324 L28.293,58.293 C27.902,58.684 27.902,59.316 28.293,59.707 C28.488,59.902 28.744,60 29,60 L29,60 Z M44,36 C48.411,36 52,39.589 52,44 C52,48.411 48.411,52 44,52 C39.589,52 36,48.411 36,44 C36,39.589 39.589,36 44,36 L44,36 Z" id="Shape" fill="#000000"></path>
        <path d="M45,6 C23.495,6 6,23.495 6,45 C6,45.553 6.448,46 7,46 C7.552,46 8,45.553 8,45 C8,24.598 24.598,8 45,8 C45.552,8 46,7.553 46,7 C46,6.447 45.552,6 45,6 L45,6 Z" id="Shape" fill="#000000"></path>
        <path d="M46,16 C46,15.447 45.552,15 45,15 C28.458,15 15,28.458 15,45 C15,45.553 15.448,46 16,46 C16.552,46 17,45.553 17,45 C17,29.561 29.561,17 45,17 C45.552,17 46,16.553 46,16 L46,16 Z" id="Shape" fill="#000000"></path>
        <path d="M25,46 C25.552,46 26,45.553 26,45 C26,34.523 34.523,26 45,26 C45.552,26 46,25.553 46,25 C46,24.447 45.552,24 45,24 C33.42,24 24,33.421 24,45 C24,45.553 24.448,46 25,46 L25,46 Z" id="Shape" fill="#000000"></path>
    </g>
</svg>