<?xml version="1.0" encoding="UTF-8" standalone="no"?>
<svg width="64px" height="64px" viewBox="0 0 64 64" version="1.1" xmlns="http://www.w3.org/2000/svg" xmlns:xlink="http://www.w3.org/1999/xlink">
    <!-- Generator: Sketch 3.7.2 (28276) - http://www.bohemiancoding.com/sketch -->
    <title>net-wifi-tick</title>
    <desc>Created with Sketch.</desc>
    <defs></defs>
    <g id="64px-Line" stroke="none" stroke-width="1" fill="none" fill-rule="evenodd">
        <g id="net-wifi-tick"></g>
        <path d="M58,47 C58,39.832 52.168,34 45,34 C37.832,34 32,39.832 32,47 C32,54.168 37.832,60 45,60 C52.168,60 58,54.168 58,47 L58,47 Z M45,58 C38.935,58 34,53.065 34,47 C34,40.935 38.935,36 45,36 C51.065,36 56,40.935 56,47 C56,53.065 51.065,58 45,58 L45,58 Z" id="Shape" fill="#000000"></path>
        <path d="M52.707,42.293 C52.316,41.902 51.684,41.902 51.293,42.293 L43,50.586 L39.707,47.293 C39.316,46.902 38.684,46.902 38.293,47.293 C37.902,47.684 37.902,48.316 38.293,48.707 L42.293,52.707 C42.488,52.902 42.744,53 43,53 C43.256,53 43.512,52.902 43.707,52.707 L52.707,43.707 C53.098,43.316 53.098,42.684 52.707,42.293 L52.707,42.293 Z" id="Shape" fill="#000000"></path>
        <path d="M5,46 C5.553,46 6,45.553 6,45 C6,24.598 22.598,8 43,8 C43.553,8 44,7.552 44,7 C44,6.448 43.553,6 43,6 C21.495,6 4,23.495 4,45 C4,45.553 4.447,46 5,46 L5,46 Z" id="Shape" fill="#000000"></path>
        <path d="M43,15 C26.458,15 13,28.458 13,45 C13,45.553 13.447,46 14,46 C14.553,46 15,45.553 15,45 C15,29.561 27.561,17 43,17 C43.553,17 44,16.552 44,16 C44,15.448 43.553,15 43,15 L43,15 Z" id="Shape" fill="#000000"></path>
        <path d="M44,25 C44,24.448 43.553,24 43,24 C31.421,24 22,33.421 22,45 C22,45.553 22.447,46 23,46 C23.553,46 24,45.553 24,45 C24,34.523 32.523,26 43,26 C43.553,26 44,25.552 44,25 L44,25 Z" id="Shape" fill="#000000"></path>
    </g>
</svg>