<?xml version="1.0" encoding="UTF-8" standalone="no"?>
<svg width="64px" height="64px" viewBox="0 0 64 64" version="1.1" xmlns="http://www.w3.org/2000/svg" xmlns:xlink="http://www.w3.org/1999/xlink">
    <!-- Generator: Sketch 3.7.2 (28276) - http://www.bohemiancoding.com/sketch -->
    <title>net-sync</title>
    <desc>Created with Sketch.</desc>
    <defs></defs>
    <g id="64px-Line" stroke="none" stroke-width="1" fill="none" fill-rule="evenodd">
        <g id="net-sync"></g>
        <path d="M53.707,8.293 C53.615,8.201 53.504,8.128 53.382,8.077 C53.138,7.976 52.862,7.976 52.618,8.077 C52.496,8.128 52.385,8.201 52.293,8.293 L46.293,14.293 C45.902,14.684 45.902,15.316 46.293,15.707 C46.488,15.902 46.744,16 47,16 C47.256,16 47.512,15.902 47.707,15.707 L52,11.414 L52,35 C52,35.552 52.448,36 53,36 C53.552,36 54,35.552 54,35 L54,11.414 L58.293,15.707 C58.488,15.902 58.744,16 59,16 C59.256,16 59.512,15.902 59.707,15.707 C60.098,15.316 60.098,14.684 59.707,14.293 L53.707,8.293 L53.707,8.293 Z" id="Shape" fill="#000000"></path>
        <path d="M49,28 C48.448,28 48,28.448 48,29 L48,52.586 L43.707,48.293 C43.316,47.902 42.684,47.902 42.293,48.293 C41.902,48.684 41.902,49.316 42.293,49.707 L48.293,55.707 C48.385,55.799 48.496,55.872 48.618,55.923 C48.74,55.973 48.87,56 49,56 C49.13,56 49.26,55.973 49.382,55.923 C49.504,55.872 49.615,55.799 49.707,55.707 L55.707,49.707 C56.098,49.316 56.098,48.684 55.707,48.293 C55.316,47.902 54.684,47.902 54.293,48.293 L50,52.586 L50,29 C50,28.448 49.552,28 49,28 L49,28 Z" id="Shape" fill="#000000"></path>
        <path d="M4.256,35.038 C4.592,37.229 5.273,39.305 6.262,41.203 L6.262,41.203 C6.262,41.204 6.263,41.205 6.263,41.206 C7.8,44.156 10.041,46.682 12.776,48.543 C12.821,48.577 12.865,48.608 12.915,48.634 C16.09,50.757 19.902,52 24,52 C30.461,52 36.199,48.907 39.858,44.138 C39.962,44.051 40.055,43.949 40.119,43.82 C40.126,43.805 40.125,43.788 40.131,43.773 C42.552,40.465 43.999,36.403 43.999,32 C43.999,28.659 43.165,25.512 41.71,22.74 C41.709,22.738 41.707,22.736 41.707,22.733 C39.433,18.406 35.619,15.024 30.999,13.289 C30.904,13.233 30.802,13.199 30.693,13.177 C28.597,12.429 26.35,12 24,12 C19.685,12 15.695,13.388 12.424,15.721 C12.302,15.779 12.193,15.858 12.103,15.961 C7.198,19.61 4,25.431 4,32 C4,32.938 4.088,33.855 4.213,34.759 C4.212,34.855 4.23,34.945 4.256,35.038 L4.256,35.038 Z M23.624,38.311 C20.517,38.06 17.662,38.151 15.104,38.409 C14.379,37.176 13.772,35.903 13.35,34.613 C12.816,32.977 12.514,31.279 12.377,29.592 C14.818,27.862 17.765,26.257 21.167,25.289 C24.534,24.331 27.924,23.888 30.967,23.72 C30.952,25.09 30.842,26.555 30.593,28.097 C29.943,32.14 27.7,35.594 24.954,38.439 C24.518,38.391 24.076,38.347 23.624,38.311 L23.624,38.311 Z M23.034,40.282 C21.661,41.487 20.229,42.554 18.848,43.477 C17.966,42.477 17.112,41.411 16.328,40.296 C18.383,40.137 20.637,40.113 23.034,40.282 L23.034,40.282 Z M11.448,35.234 C11.831,36.406 12.352,37.554 12.958,38.674 C10.975,38.967 9.233,39.346 7.773,39.739 C7.072,38.276 6.564,36.708 6.28,35.06 C7.308,33.904 8.732,32.46 10.519,31.003 C10.7,32.425 10.995,33.848 11.448,35.234 L11.448,35.234 Z M8.765,41.542 C10.264,41.158 12.044,40.793 14.061,40.533 C14.983,41.954 16.031,43.306 17.127,44.569 C15.763,45.398 14.517,46.069 13.49,46.582 C11.609,45.223 10.004,43.512 8.765,41.542 L8.765,41.542 Z M22.536,49.926 C19.986,49.719 17.581,48.993 15.441,47.831 C16.362,47.343 17.398,46.758 18.494,46.079 C19.873,47.534 21.267,48.829 22.536,49.926 L22.536,49.926 Z M25.649,49.917 C24.314,48.849 22.282,47.121 20.211,44.964 C22.032,43.728 23.93,42.251 25.687,40.54 C31.18,41.242 35.329,42.741 37.615,43.74 C34.649,47.174 30.419,49.48 25.649,49.917 L25.649,49.917 Z M38.879,42.114 C36.777,41.159 32.766,39.613 27.376,38.761 C29.914,35.865 31.926,32.411 32.569,28.413 C32.84,26.731 32.957,25.134 32.968,23.642 C35.958,23.585 38.468,23.772 40.075,23.946 C41.296,26.373 42,29.102 42,31.999 C42,35.748 40.846,39.229 38.879,42.114 L38.879,42.114 Z M38.832,21.823 C37.256,21.696 35.229,21.601 32.919,21.645 C32.793,19.395 32.442,17.46 32.059,15.928 C34.781,17.299 37.115,19.328 38.832,21.823 L38.832,21.823 Z M29.708,14.943 C30.194,16.488 30.757,18.827 30.922,21.72 C27.733,21.893 24.167,22.356 20.621,23.365 C17.457,24.265 14.671,25.676 12.287,27.237 C12.297,23.324 13.058,19.678 13.715,17.25 C16.633,15.208 20.176,14 24,14 C25.996,14 27.912,14.34 29.708,14.943 L29.708,14.943 Z M11.143,19.426 C10.606,22.031 10.176,25.26 10.316,28.622 C8.608,29.914 7.17,31.234 6.021,32.409 C6.018,32.272 6,32.138 6,32 C6,27.109 7.967,22.674 11.143,19.426 L11.143,19.426 Z" id="Shape" fill="#000000"></path>
    </g>
</svg>