<?xml version="1.0" encoding="UTF-8" standalone="no"?>
<svg width="64px" height="64px" viewBox="0 0 64 64" version="1.1" xmlns="http://www.w3.org/2000/svg" xmlns:xlink="http://www.w3.org/1999/xlink">
    <!-- Generator: Sketch 3.7.2 (28276) - http://www.bohemiancoding.com/sketch -->
    <title>net-wifi-plus</title>
    <desc>Created with Sketch.</desc>
    <defs></defs>
    <g id="64px-Line" stroke="none" stroke-width="1" fill="none" fill-rule="evenodd">
        <g id="net-wifi-plus"></g>
        <path d="M45,58 C52.168,58 58,52.168 58,45 C58,37.832 52.168,32 45,32 C37.832,32 32,37.832 32,45 C32,52.168 37.832,58 45,58 L45,58 Z M45,34 C51.065,34 56,38.935 56,45 C56,51.065 51.065,56 45,56 C38.935,56 34,51.065 34,45 C34,38.935 38.935,34 45,34 L45,34 Z" id="Shape" fill="#000000"></path>
        <path d="M39,46 L44,46 L44,51 C44,51.553 44.447,52 45,52 C45.553,52 46,51.553 46,51 L46,46 L51,46 C51.553,46 52,45.553 52,45 C52,44.447 51.553,44 51,44 L46,44 L46,39 C46,38.447 45.553,38 45,38 C44.447,38 44,38.447 44,39 L44,44 L39,44 C38.447,44 38,44.447 38,45 C38,45.553 38.447,46 39,46 L39,46 Z" id="Shape" fill="#000000"></path>
        <path d="M5,46 C5.553,46 6,45.553 6,45 C6,24.598 22.598,8 43,8 C43.553,8 44,7.552 44,7 C44,6.448 43.553,6 43,6 C21.495,6 4,23.495 4,45 C4,45.553 4.447,46 5,46 L5,46 Z" id="Shape" fill="#000000"></path>
        <path d="M44,16 C44,15.448 43.553,15 43,15 C26.458,15 13,28.458 13,45 C13,45.553 13.447,46 14,46 C14.553,46 15,45.553 15,45 C15,29.561 27.561,17 43,17 C43.553,17 44,16.552 44,16 L44,16 Z" id="Shape" fill="#000000"></path>
        <path d="M23,46 C23.553,46 24,45.553 24,45 C24,34.523 32.523,26 43,26 C43.553,26 44,25.552 44,25 C44,24.448 43.553,24 43,24 C31.421,24 22,33.421 22,45 C22,45.553 22.447,46 23,46 L23,46 Z" id="Shape" fill="#000000"></path>
    </g>
</svg>