<?xml version="1.0" encoding="UTF-8" standalone="no"?>
<svg width="64px" height="64px" viewBox="0 0 64 64" version="1.1" xmlns="http://www.w3.org/2000/svg" xmlns:xlink="http://www.w3.org/1999/xlink">
    <!-- Generator: Sketch 3.7.2 (28276) - http://www.bohemiancoding.com/sketch -->
    <title>net-secure</title>
    <desc>Created with Sketch.</desc>
    <defs></defs>
    <g id="64px-Line" stroke="none" stroke-width="1" fill="none" fill-rule="evenodd">
        <g id="net-secure"></g>
        <path d="M59,40 L57,40 L57,38 C57,33.589 53.411,30 49,30 C44.589,30 41,33.589 41,38 L41,40 L39,40 C38.447,40 38,40.448 38,41 L38,59 C38,59.552 38.447,60 39,60 L59,60 C59.553,60 60,59.552 60,59 L60,41 C60,40.448 59.553,40 59,40 L59,40 Z M43,38 C43,34.691 45.691,32 49,32 C52.309,32 55,34.691 55,38 L55,40 L43,40 L43,38 L43,38 Z M58,58 L40,58 L40,42 L58,42 L58,58 L58,58 Z" id="Shape" fill="#000000"></path>
        <path d="M49,46 C47.897,46 47,46.897 47,48 C47,48.737 47.405,49.375 48,49.722 L48,53 C48,53.552 48.447,54 49,54 C49.553,54 50,53.552 50,53 L50,49.722 C50.595,49.375 51,48.737 51,48 C51,46.897 50.103,46 49,46 L49,46 Z" id="Shape" fill="#000000"></path>
        <path d="M4.27,30.195 C4.624,32.497 5.34,34.678 6.379,36.671 L6.379,36.672 C6.381,36.678 6.385,36.681 6.387,36.687 C8,39.772 10.346,42.414 13.208,44.364 C13.257,44.402 13.306,44.437 13.361,44.465 C16.695,46.694 20.698,48 25.001,48 C28.692,48 32.324,47.028 35.502,45.19 C35.98,44.913 36.144,44.301 35.866,43.823 C35.591,43.345 34.979,43.181 34.5,43.458 C32.121,44.834 29.459,45.664 26.719,45.912 C25.304,44.78 23.137,42.936 20.933,40.636 C22.869,39.325 24.891,37.756 26.757,35.934 C31.109,36.49 34.625,37.517 36.927,38.345 C37.039,38.385 37.154,38.405 37.266,38.405 C37.676,38.405 38.06,38.151 38.207,37.743 C38.394,37.223 38.124,36.651 37.604,36.464 C35.464,35.694 32.32,34.759 28.452,34.154 C31.147,31.098 33.287,27.447 33.968,23.216 C34.255,21.429 34.377,19.734 34.387,18.152 C37.58,18.088 40.256,18.29 41.956,18.474 C43.253,21.042 44,23.932 44,27 C44,27.241 43.995,27.481 43.986,27.721 C43.965,28.273 44.394,28.738 44.946,28.759 C45.509,28.795 45.964,28.352 45.984,27.799 C45.995,27.534 46,27.269 46,27.001 C46,23.489 45.123,20.182 43.592,17.271 C43.589,17.26 43.581,17.251 43.577,17.24 C41.186,12.708 37.185,9.168 32.341,7.352 C32.243,7.294 32.137,7.258 32.025,7.236 C29.825,6.45 27.467,6 25,6 C20.464,6 16.271,7.46 12.834,9.915 C12.715,9.972 12.609,10.05 12.52,10.15 C7.363,13.98 4,20.097 4,27 C4,27.986 4.092,28.949 4.224,29.9 C4.223,30.001 4.241,30.097 4.27,30.195 L4.27,30.195 Z M11.838,30.387 C12.248,31.641 12.807,32.87 13.459,34.066 C11.324,34.378 9.453,34.786 7.891,35.208 C7.138,33.645 6.593,31.968 6.292,30.204 C7.392,28.966 8.923,27.412 10.852,25.849 C11.041,27.374 11.352,28.9 11.838,30.387 L11.838,30.387 Z M8.882,37.012 C10.484,36.599 12.392,36.204 14.563,35.926 C15.548,37.448 16.672,38.897 17.848,40.247 C16.384,41.14 15.033,41.865 13.934,42.415 C11.917,40.961 10.2,39.126 8.882,37.012 L8.882,37.012 Z M23.609,45.929 C20.827,45.726 18.206,44.938 15.882,43.661 C16.881,43.134 18.013,42.496 19.212,41.752 C20.715,43.34 22.235,44.747 23.609,45.929 L23.609,45.929 Z M16.832,35.689 C19.058,35.512 21.504,35.48 24.115,35.672 C22.626,36.988 21.068,38.15 19.569,39.15 C18.61,38.063 17.68,36.904 16.832,35.689 L16.832,35.689 Z M31.993,22.899 C31.305,27.174 28.94,30.836 26.037,33.84 C25.563,33.788 25.091,33.735 24.6,33.695 C21.32,33.431 18.307,33.528 15.609,33.802 C14.836,32.491 14.187,31.138 13.739,29.765 C13.172,28.03 12.855,26.228 12.712,24.438 C15.291,22.607 18.406,20.907 22.005,19.884 C25.574,18.869 29.168,18.402 32.389,18.227 C32.375,19.688 32.258,21.252 31.993,22.899 L31.993,22.899 Z M40.725,16.35 C39.04,16.211 36.847,16.103 34.338,16.154 C34.205,13.715 33.821,11.624 33.405,9.986 C36.357,11.45 38.885,13.643 40.725,16.35 L40.725,16.35 Z M31.05,9.005 C31.567,10.643 32.169,13.139 32.34,16.229 C28.973,16.409 25.205,16.896 21.456,17.962 C18.097,18.918 15.141,20.422 12.618,22.084 C12.617,17.914 13.428,14.022 14.126,11.442 C17.212,9.28 20.956,8 25,8 C27.117,8 29.147,8.363 31.05,9.005 L31.05,9.005 Z M11.557,13.587 C10.973,16.364 10.497,19.846 10.651,23.469 C8.803,24.865 7.256,26.292 6.028,27.554 C6.023,27.368 6,27.187 6,27 C6,21.77 8.125,17.026 11.557,13.587 L11.557,13.587 Z" id="Shape" fill="#000000"></path>
    </g>
</svg>