<?xml version="1.0" encoding="UTF-8" standalone="no"?>
<svg width="64px" height="64px" viewBox="0 0 64 64" version="1.1" xmlns="http://www.w3.org/2000/svg" xmlns:xlink="http://www.w3.org/1999/xlink">
    <!-- Generator: Sketch 3.7.2 (28276) - http://www.bohemiancoding.com/sketch -->
    <title>net-tick</title>
    <desc>Created with Sketch.</desc>
    <defs></defs>
    <g id="64px-Line" stroke="none" stroke-width="1" fill="none" fill-rule="evenodd">
        <g id="net-tick"></g>
        <path d="M46,60 C53.168,60 59,54.168 59,47 C59,39.832 53.168,34 46,34 C38.832,34 33,39.832 33,47 C33,54.168 38.832,60 46,60 L46,60 Z M46,36 C52.065,36 57,40.935 57,47 C57,53.065 52.065,58 46,58 C39.935,58 35,53.065 35,47 C35,40.935 39.935,36 46,36 L46,36 Z" id="Shape" fill="#000000"></path>
        <path d="M43.293,52.707 C43.488,52.902 43.744,53 44,53 C44.256,53 44.512,52.902 44.707,52.707 L53.707,43.707 C54.098,43.316 54.098,42.684 53.707,42.293 C53.316,41.902 52.684,41.902 52.293,42.293 L44,50.586 L40.707,47.293 C40.316,46.902 39.684,46.902 39.293,47.293 C38.902,47.684 38.902,48.316 39.293,48.707 L43.293,52.707 L43.293,52.707 Z" id="Shape" fill="#000000"></path>
        <path d="M33.994,37.131 C34.53,37.269 35.075,36.95 35.214,36.416 C35.353,35.882 35.033,35.335 34.499,35.196 C32.847,34.765 31.157,34.425 29.448,34.159 C32.145,31.102 34.288,27.449 34.969,23.216 C35.256,21.429 35.378,19.734 35.388,18.152 C38.58,18.088 41.256,18.29 42.957,18.474 C44.252,21.042 45,23.932 45,27 C45,28.289 44.87,29.578 44.614,30.831 C44.504,31.372 44.853,31.9 45.394,32.011 C45.931,32.118 46.463,31.772 46.574,31.231 C46.856,29.847 47,28.423 47,27 C47,23.488 46.123,20.181 44.592,17.269 C44.59,17.262 44.585,17.257 44.583,17.25 C42.193,12.714 38.191,9.17 33.344,7.352 C33.246,7.294 33.139,7.258 33.026,7.236 C30.826,6.45 28.467,6 26,6 C21.468,6 17.278,7.458 13.842,9.909 C13.711,9.971 13.592,10.054 13.497,10.167 C8.353,13.998 5,20.107 5,27 C5,27.987 5.092,28.95 5.225,29.901 C5.224,30 5.242,30.095 5.269,30.19 C5.623,32.493 6.339,34.675 7.378,36.669 L7.378,36.671 C7.41,36.782 7.461,36.882 7.524,36.972 C9.132,39.938 11.433,42.474 14.209,44.365 C14.257,44.402 14.306,44.436 14.359,44.464 C17.694,46.695 21.696,48 26,48 C27.415,48 28.83,47.858 30.205,47.579 C30.747,47.469 31.096,46.941 30.986,46.4 C30.875,45.858 30.345,45.507 29.807,45.619 C29.121,45.759 28.422,45.851 27.72,45.914 C26.305,44.782 24.138,42.938 21.933,40.637 C23.87,39.325 25.892,37.755 27.76,35.933 C29.873,36.202 31.962,36.601 33.994,37.131 L33.994,37.131 Z M32.994,22.899 C32.306,27.175 29.94,30.837 27.036,33.843 C26.558,33.791 26.08,33.735 25.6,33.696 C22.32,33.432 19.308,33.529 16.61,33.803 C15.837,32.492 15.188,31.139 14.74,29.766 C14.173,28.03 13.855,26.228 13.712,24.438 C16.29,22.608 19.406,20.909 23.005,19.885 C26.574,18.87 30.168,18.403 33.389,18.228 C33.375,19.688 33.258,21.252 32.994,22.899 L32.994,22.899 Z M7.292,30.204 C8.391,28.966 9.923,27.412 11.852,25.848 C12.041,27.373 12.352,28.9 12.838,30.387 C13.248,31.641 13.807,32.87 14.46,34.067 C12.325,34.379 10.453,34.787 8.891,35.208 C8.138,33.645 7.593,31.968 7.292,30.204 L7.292,30.204 Z M41.725,16.35 C40.04,16.211 37.847,16.104 35.338,16.154 C35.205,13.714 34.82,11.623 34.404,9.985 C37.357,11.45 39.885,13.643 41.725,16.35 L41.725,16.35 Z M32.05,9.005 C32.567,10.643 33.169,13.139 33.341,16.229 C29.974,16.409 26.206,16.896 22.458,17.962 C19.098,18.918 16.142,20.422 13.62,22.083 C13.618,17.913 14.429,14.021 15.127,11.443 C18.211,9.28 21.956,8 26,8 C28.117,8 30.147,8.363 32.05,9.005 L32.05,9.005 Z M12.556,13.588 C11.972,16.365 11.496,19.846 11.65,23.469 C9.801,24.865 8.255,26.292 7.028,27.554 C7.023,27.368 7,27.187 7,27 C7,21.77 9.125,17.027 12.556,13.588 L12.556,13.588 Z M9.882,37.012 C11.485,36.599 13.392,36.204 15.564,35.926 C16.549,37.448 17.673,38.896 18.849,40.246 C17.385,41.139 16.034,41.865 14.935,42.414 C12.917,40.961 11.2,39.126 9.882,37.012 L9.882,37.012 Z M24.609,45.929 C21.827,45.726 19.206,44.938 16.882,43.661 C17.881,43.134 19.013,42.496 20.212,41.752 C21.715,43.34 23.235,44.747 24.609,45.929 L24.609,45.929 Z M17.833,35.69 C20.059,35.513 22.505,35.481 25.115,35.672 C23.626,36.988 22.068,38.15 20.569,39.15 C19.61,38.064 18.681,36.904 17.833,35.69 L17.833,35.69 Z" id="Shape" fill="#000000"></path>
    </g>
</svg>