<?xml version="1.0" encoding="UTF-8" standalone="no"?>
<svg width="64px" height="64px" viewBox="0 0 64 64" version="1.1" xmlns="http://www.w3.org/2000/svg" xmlns:xlink="http://www.w3.org/1999/xlink">
    <!-- Generator: Sketch 3.7.2 (28276) - http://www.bohemiancoding.com/sketch -->
    <title>net-wifi-router</title>
    <desc>Created with Sketch.</desc>
    <defs></defs>
    <g id="64px-Line" stroke="none" stroke-width="1" fill="none" fill-rule="evenodd">
        <g id="net-wifi-router"></g>
        <path d="M59,38 L5,38 C4.448,38 4,38.447 4,39 L4,55 C4,55.553 4.448,56 5,56 L10,56 L10,57 C10,57.553 10.448,58 11,58 L15,58 C15.552,58 16,57.553 16,57 L16,56 L48,56 L48,57 C48,57.553 48.448,58 49,58 L53,58 C53.552,58 54,57.553 54,57 L54,56 L59,56 C59.552,56 60,55.553 60,55 L60,39 C60,38.447 59.552,38 59,38 L59,38 Z M58,54 L6,54 L6,40 L58,40 L58,54 L58,54 Z" id="Shape" fill="#000000"></path>
        <path d="M13,50 C14.654,50 16,48.654 16,47 C16,45.346 14.654,44 13,44 C11.346,44 10,45.346 10,47 C10,48.654 11.346,50 13,50 L13,50 Z M13,46 C13.551,46 14,46.448 14,47 C14,47.552 13.551,48 13,48 C12.449,48 12,47.552 12,47 C12,46.448 12.449,46 13,46 L13,46 Z" id="Shape" fill="#000000"></path>
        <path d="M21,50 C22.654,50 24,48.654 24,47 C24,45.346 22.654,44 21,44 C19.346,44 18,45.346 18,47 C18,48.654 19.346,50 21,50 L21,50 Z M21,46 C21.551,46 22,46.448 22,47 C22,47.552 21.551,48 21,48 C20.449,48 20,47.552 20,47 C20,46.448 20.449,46 21,46 L21,46 Z" id="Shape" fill="#000000"></path>
        <path d="M29,50 C30.654,50 32,48.654 32,47 C32,45.346 30.654,44 29,44 C27.346,44 26,45.346 26,47 C26,48.654 27.346,50 29,50 L29,50 Z M29,46 C29.551,46 30,46.448 30,47 C30,47.552 29.551,48 29,48 C28.449,48 28,47.552 28,47 C28,46.448 28.449,46 29,46 L29,46 Z" id="Shape" fill="#000000"></path>
        <path d="M54.627,17.373 C54.883,17.373 55.139,17.275 55.334,17.08 C55.725,16.689 55.725,16.057 55.334,15.666 C42.468,2.799 21.531,2.799 8.665,15.666 C8.274,16.057 8.274,16.689 8.665,17.08 C9.056,17.471 9.688,17.471 10.079,17.08 C22.166,4.994 41.833,4.994 53.92,17.08 C54.116,17.275 54.372,17.373 54.627,17.373 L54.627,17.373 Z" id="Shape" fill="#000000"></path>
        <path d="M47.556,24.443 C47.812,24.443 48.068,24.345 48.263,24.15 C48.654,23.759 48.654,23.127 48.263,22.736 C39.295,13.769 24.704,13.769 15.737,22.736 C15.346,23.127 15.346,23.759 15.737,24.15 C16.128,24.541 16.76,24.541 17.151,24.15 C25.339,15.962 38.662,15.962 46.849,24.15 C47.044,24.346 47.3,24.443 47.556,24.443 L47.556,24.443 Z" id="Shape" fill="#000000"></path>
        <path d="M22.808,29.808 C22.417,30.199 22.417,30.831 22.808,31.222 C23.199,31.613 23.831,31.613 24.222,31.222 C28.511,26.933 35.49,26.933 39.779,31.222 C39.974,31.417 40.23,31.515 40.486,31.515 C40.742,31.515 40.998,31.417 41.193,31.222 C41.584,30.831 41.584,30.199 41.193,29.808 C36.124,24.739 27.876,24.739 22.808,29.808 L22.808,29.808 Z" id="Shape" fill="#000000"></path>
    </g>
</svg>