<?xml version="1.0" encoding="UTF-8" standalone="no"?>
<svg width="64px" height="64px" viewBox="0 0 64 64" version="1.1" xmlns="http://www.w3.org/2000/svg" xmlns:xlink="http://www.w3.org/1999/xlink">
    <!-- Generator: Sketch 3.7.2 (28276) - http://www.bohemiancoding.com/sketch -->
    <title>net-wifi-signal-3</title>
    <desc>Created with Sketch.</desc>
    <defs></defs>
    <g id="64px-Line" stroke="none" stroke-width="1" fill="none" fill-rule="evenodd">
        <g id="net-wifi-signal-3"></g>
        <path d="M38,50 C38,46.691 35.309,44 32,44 C28.691,44 26,46.691 26,50 C26,53.309 28.691,56 32,56 C35.309,56 38,53.309 38,50 L38,50 Z M28,50 C28,47.794 29.794,46 32,46 C34.206,46 36,47.794 36,50 C36,52.206 34.206,54 32,54 C29.794,54 28,52.206 28,50 L28,50 Z" id="Shape" fill="#000000"></path>
        <path d="M4.293,19.477 C3.902,19.868 3.902,20.5 4.293,20.891 C4.684,21.282 5.316,21.282 5.707,20.891 C20.205,6.395 43.795,6.395 58.293,20.891 C58.488,21.086 58.744,21.184 59,21.184 C59.256,21.184 59.512,21.086 59.707,20.891 C60.098,20.5 60.098,19.868 59.707,19.477 C44.43,4.199 19.57,4.199 4.293,19.477 L4.293,19.477 Z" id="Shape" fill="#000000"></path>
        <path d="M51,29.87 C51.256,29.87 51.512,29.772 51.707,29.577 C52.098,29.186 52.098,28.554 51.707,28.163 C46.443,22.899 39.444,20 32,20 C24.556,20 17.557,22.899 12.293,28.163 C11.902,28.554 11.902,29.186 12.293,29.577 C12.684,29.968 13.316,29.968 13.707,29.577 C23.793,19.491 40.207,19.491 50.293,29.577 C50.488,29.772 50.744,29.87 51,29.87 L51,29.87 Z" id="Shape" fill="#000000"></path>
        <path d="M43,38.557 C43.256,38.557 43.512,38.459 43.707,38.264 C44.098,37.873 44.098,37.241 43.707,36.85 C37.252,30.395 26.748,30.395 20.293,36.85 C19.902,37.241 19.902,37.873 20.293,38.264 C20.684,38.655 21.316,38.655 21.707,38.264 C27.383,32.588 36.617,32.588 42.293,38.264 C42.488,38.459 42.744,38.557 43,38.557 L43,38.557 Z" id="Shape" fill="#000000"></path>
    </g>
</svg>