<?xml version="1.0" encoding="UTF-8" standalone="no"?>
<svg width="64px" height="64px" viewBox="0 0 64 64" version="1.1" xmlns="http://www.w3.org/2000/svg" xmlns:xlink="http://www.w3.org/1999/xlink">
    <!-- Generator: Sketch 3.7.2 (28276) - http://www.bohemiancoding.com/sketch -->
    <title>net-wifi-warning</title>
    <desc>Created with Sketch.</desc>
    <defs></defs>
    <g id="64px-Line" stroke="none" stroke-width="1" fill="none" fill-rule="evenodd">
        <g id="net-wifi-warning"></g>
        <path d="M59.533,54.128 L48.252,35.671 C47.502,34.625 46.286,34 45,34 C43.713,34 42.498,34.625 41.707,35.733 L30.467,54.128 C30.444,54.166 30.424,54.205 30.405,54.245 C30.364,54.34 30,55.188 30,56 C30,58.206 31.794,60 34,60 L56,60 C58.206,60 60,58.206 60,56 C60,55.188 59.636,54.34 59.595,54.245 C59.577,54.205 59.556,54.166 59.533,54.128 L59.533,54.128 Z M56,58 L34,58 C32.897,58 32,57.103 32,56 C32,55.728 32.123,55.33 32.213,55.106 L43.373,36.836 C43.749,36.312 44.357,35.999 45,35.999 C45.643,35.999 46.251,36.311 46.586,36.775 L57.787,55.105 C57.867,55.304 58,55.717 58,55.999 C58,57.103 57.103,58 56,58 L56,58 Z" id="Shape" fill="#000000"></path>
        <path d="M45,40 C44.448,40 44,40.447 44,41 L44,49 C44,49.553 44.448,50 45,50 C45.552,50 46,49.553 46,49 L46,41 C46,40.447 45.552,40 45,40 L45,40 Z" id="Shape" fill="#000000"></path>
        <path d="M45.92,52.62 C45.9,52.559 45.87,52.5 45.83,52.439 C45.79,52.389 45.75,52.339 45.71,52.29 C45.43,52.01 44.99,51.92 44.62,52.08 C44.49,52.13 44.39,52.2 44.29,52.29 C44.11,52.479 44,52.74 44,53 C44,53.13 44.02,53.26 44.08,53.38 C44.13,53.5 44.2,53.609 44.29,53.71 C44.48,53.899 44.73,54 45,54 C45.13,54 45.26,53.97 45.38,53.92 C45.5,53.87 45.61,53.8 45.71,53.71 C45.8,53.609 45.87,53.5 45.93,53.38 C45.98,53.26 46,53.13 46,53 C46,52.93 45.99,52.87 45.98,52.8 C45.97,52.74 45.95,52.68 45.92,52.62 L45.92,52.62 Z" id="Shape" fill="#000000"></path>
        <path d="M43,8 C43.552,8 44,7.553 44,7 C44,6.447 43.552,6 43,6 C21.495,6 4,23.495 4,45 C4,45.553 4.448,46 5,46 C5.552,46 6,45.553 6,45 C6,24.598 22.598,8 43,8 L43,8 Z" id="Shape" fill="#000000"></path>
        <path d="M43,17 C43.552,17 44,16.553 44,16 C44,15.447 43.552,15 43,15 C26.458,15 13,28.458 13,45 C13,45.553 13.448,46 14,46 C14.552,46 15,45.553 15,45 C15,29.561 27.561,17 43,17 L43,17 Z" id="Shape" fill="#000000"></path>
        <path d="M43,24 C31.42,24 22,33.421 22,45 C22,45.553 22.448,46 23,46 C23.552,46 24,45.553 24,45 C24,34.523 32.523,26 43,26 C43.552,26 44,25.553 44,25 C44,24.447 43.552,24 43,24 L43,24 Z" id="Shape" fill="#000000"></path>
    </g>
</svg>