<?xml version="1.0" encoding="UTF-8" standalone="no"?>
<svg width="64px" height="64px" viewBox="0 0 64 64" version="1.1" xmlns="http://www.w3.org/2000/svg" xmlns:xlink="http://www.w3.org/1999/xlink">
    <!-- Generator: Sketch 3.7.2 (28276) - http://www.bohemiancoding.com/sketch -->
    <title>net-link</title>
    <desc>Created with Sketch.</desc>
    <defs></defs>
    <g id="64px-Line" stroke="none" stroke-width="1" fill="none" fill-rule="evenodd">
        <g id="net-link"></g>
        <path d="M11,56 C14.52,56 17.432,53.386 17.92,50 L28,50 C30.206,50 32,48.206 32,46 L32,18 C32,16.897 32.897,16 34,16 L44.08,16 C44.568,19.387 47.481,22 51,22 C54.86,22 58,18.86 58,15 C58,11.14 54.86,8 51,8 C47.48,8 44.568,10.613 44.08,14 L34,14 C31.794,14 30,15.794 30,18 L30,46 C30,47.103 29.103,48 28,48 L17.92,48 C17.432,44.614 14.519,42 11,42 C7.14,42 4,45.141 4,49 C4,52.859 7.14,56 11,56 L11,56 Z M51,10 C53.757,10 56,12.243 56,15 C56,17.757 53.757,20 51,20 C48.243,20 46,17.757 46,15 C46,12.243 48.243,10 51,10 L51,10 Z M11,44 C13.757,44 16,46.243 16,49 C16,51.757 13.757,54 11,54 C8.243,54 6,51.757 6,49 C6,46.243 8.243,44 11,44 L11,44 Z" id="Shape" fill="#000000"></path>
    </g>
</svg>