<?xml version="1.0" encoding="UTF-8" standalone="no"?>
<svg width="64px" height="64px" viewBox="0 0 64 64" version="1.1" xmlns="http://www.w3.org/2000/svg" xmlns:xlink="http://www.w3.org/1999/xlink">
    <!-- Generator: Sketch 3.7.2 (28276) - http://www.bohemiancoding.com/sketch -->
    <title>net-internet</title>
    <desc>Created with Sketch.</desc>
    <defs></defs>
    <g id="64px-Line" stroke="none" stroke-width="1" fill="none" fill-rule="evenodd">
        <g id="net-internet"></g>
        <path d="M4.284,36.89 C5.393,44.541 9.72,51.164 15.847,55.334 C15.897,55.374 15.948,55.41 16.005,55.44 C20.297,58.318 25.455,60 31,60 C39.772,60 47.577,55.793 52.512,49.293 C52.597,49.213 52.673,49.123 52.727,49.012 C52.729,49.009 52.728,49.005 52.73,49.002 C56.039,44.521 58,38.986 58,33 C58,28.326 56.805,23.927 54.707,20.089 L54.707,20.089 C50.121,11.702 41.214,6 31,6 C25.143,6 19.72,7.881 15.291,11.062 C15.237,11.089 15.193,11.129 15.145,11.166 C8.398,16.078 4,24.033 4,33 C4,34.307 4.098,35.59 4.279,36.848 C4.28,36.862 4.283,36.876 4.284,36.89 L4.284,36.89 Z M40.388,27.716 C39.476,33.388 36.323,38.232 32.468,42.195 C31.81,42.122 31.139,42.058 30.456,42.003 C26.151,41.656 22.172,41.781 18.634,42.155 C17.576,40.384 16.685,38.551 16.076,36.689 C15.313,34.354 14.897,31.928 14.716,29.522 C18.118,27.088 22.244,24.821 27.023,23.461 C31.801,22.102 36.616,21.492 40.902,21.276 C40.9,23.282 40.754,25.437 40.388,27.716 L40.388,27.716 Z M30.576,44.023 C28.399,46.006 26.09,47.73 23.887,49.187 C22.464,47.588 21.082,45.862 19.848,44.049 C23.019,43.766 26.526,43.694 30.296,43.996 C30.39,44.004 30.481,44.015 30.576,44.023 L30.576,44.023 Z M14.174,37.311 C14.744,39.056 15.53,40.766 16.461,42.424 C13.411,42.851 10.752,43.445 8.578,44.042 C7.511,41.883 6.747,39.549 6.341,37.096 C7.865,35.369 10.05,33.142 12.844,30.928 C13.077,33.071 13.492,35.221 14.174,37.311 L14.174,37.311 Z M9.563,45.848 C11.785,45.257 14.486,44.68 17.581,44.29 C18.941,46.413 20.515,48.428 22.159,50.293 C20.05,51.595 18.11,52.632 16.569,53.396 C13.746,51.392 11.353,48.823 9.563,45.848 L9.563,45.848 Z M30.084,57.977 C25.884,57.825 21.948,56.632 18.521,54.649 C19.984,53.891 21.696,52.941 23.526,51.796 C25.781,54.197 28.083,56.292 30.084,57.977 L30.084,57.977 Z M33.146,57.902 C31.252,56.393 28.263,53.852 25.253,50.677 C27.881,48.918 30.647,46.79 33.182,44.3 C41.218,45.306 47.193,47.559 50.248,48.936 C46.087,53.951 40.007,57.315 33.146,57.902 L33.146,57.902 Z M51.486,47.303 C48.633,45.982 42.815,43.683 34.896,42.514 C38.539,38.496 41.457,33.661 42.362,28.034 C42.751,25.615 42.903,23.328 42.9,21.202 C47.32,21.097 50.999,21.387 53.257,21.639 C55.006,25.05 56,28.91 56,33 C56,38.317 54.327,43.247 51.486,47.303 L51.486,47.303 Z M52.027,19.504 C49.717,19.295 46.53,19.116 42.852,19.204 C42.679,15.597 42.079,12.56 41.464,10.304 C45.798,12.31 49.461,15.52 52.027,19.504 L52.027,19.504 Z M39.098,9.354 C39.804,11.547 40.648,14.986 40.855,19.279 C36.424,19.498 31.434,20.128 26.477,21.539 C21.939,22.83 17.968,24.895 14.615,27.159 C14.537,21.434 15.657,16.058 16.608,12.578 C20.681,9.698 25.644,8 31,8 C33.834,8 36.556,8.481 39.098,9.354 L39.098,9.354 Z M14.027,14.667 C13.172,18.433 12.416,23.386 12.655,28.55 C9.951,30.578 7.73,32.671 6.045,34.451 C6.018,33.97 6,33.487 6,33 C6,25.762 9.095,19.236 14.027,14.667 L14.027,14.667 Z" id="Shape" fill="#000000"></path>
    </g>
</svg>