<?xml version="1.0" encoding="UTF-8" standalone="no"?>
<svg width="64px" height="64px" viewBox="0 0 64 64" version="1.1" xmlns="http://www.w3.org/2000/svg" xmlns:xlink="http://www.w3.org/1999/xlink">
    <!-- Generator: Sketch 3.7.2 (28276) - http://www.bohemiancoding.com/sketch -->
    <title>net-phone</title>
    <desc>Created with Sketch.</desc>
    <defs></defs>
    <g id="64px-Line" stroke="none" stroke-width="1" fill="none" fill-rule="evenodd">
        <g id="net-phone"></g>
        <path d="M20,60 L44,60 C46.206,60 48,58.206 48,56 L48,8 C48,5.794 46.206,4 44,4 L20,4 C17.794,4 16,5.794 16,8 L16,56 C16,58.206 17.794,60 20,60 L20,60 Z M46,50 L18,50 L18,14 L46,14 L46,50 L46,50 Z M44,58 L20,58 C18.897,58 18,57.103 18,56 L18,52 L46,52 L46,56 C46,57.103 45.103,58 44,58 L44,58 Z M20,6 L44,6 C45.103,6 46,6.897 46,8 L46,12 L18,12 L18,8 C18,6.897 18.897,6 20,6 L20,6 Z" id="Shape" fill="#000000"></path>
        <path d="M31,10 L37,10 C37.552,10 38,9.552 38,9 C38,8.448 37.552,8 37,8 L31,8 C30.448,8 30,8.448 30,9 C30,9.552 30.448,10 31,10 L31,10 Z" id="Shape" fill="#000000"></path>
        <path d="M27,10 C27.26,10 27.52,9.89 27.71,9.71 C27.89,9.52 28,9.26 28,9 C28,8.74 27.89,8.48 27.71,8.29 C27.33,7.92 26.66,7.92 26.29,8.29 C26.11,8.48 26,8.74 26,9 C26,9.26 26.11,9.52 26.29,9.71 C26.48,9.89 26.74,10 27,10 L27,10 Z" id="Shape" fill="#000000"></path>
        <path d="M33,54 L31,54 C30.448,54 30,54.448 30,55 C30,55.552 30.448,56 31,56 L33,56 C33.552,56 34,55.552 34,55 C34,54.448 33.552,54 33,54 L33,54 Z" id="Shape" fill="#000000"></path>
        <path d="M20,32 C20,32.554 20.051,33.096 20.124,33.631 C20.125,33.683 20.138,33.731 20.147,33.782 C20.331,35.01 20.699,36.175 21.227,37.252 C21.233,37.31 21.225,37.367 21.241,37.425 C21.296,37.615 21.413,37.761 21.551,37.882 C22.47,39.507 23.75,40.903 25.291,41.946 C25.316,41.963 25.341,41.978 25.367,41.993 C27.27,43.258 29.549,44 32,44 C35.865,44 39.299,42.156 41.496,39.309 C41.58,39.229 41.657,39.139 41.711,39.028 C41.713,39.025 41.712,39.021 41.714,39.018 C43.145,37.042 44,34.622 44,32 C44,26.875 40.764,22.502 36.232,20.785 C36.188,20.761 36.14,20.751 36.093,20.734 C34.814,20.268 33.439,20 32,20 C29.425,20 27.042,20.823 25.085,22.209 C25.026,22.24 24.979,22.285 24.928,22.327 C21.947,24.513 20,28.029 20,32 L20,32 Z M32.363,35.295 C32.178,35.277 32.006,35.25 31.816,35.235 C30.086,35.095 28.489,35.129 27.075,35.251 C26.733,34.64 26.441,34.015 26.235,33.382 C25.963,32.55 25.806,31.682 25.723,30.816 C27.063,29.891 28.648,29.04 30.476,28.52 C32.222,28.023 33.982,27.769 35.593,27.655 C35.569,28.299 35.517,28.967 35.403,29.674 C35.053,31.841 33.845,33.729 32.363,35.295 L32.363,35.295 Z M29.835,41.757 C29.184,41.612 28.557,41.405 27.961,41.14 C28.213,40.998 28.473,40.845 28.743,40.682 C29.109,41.061 29.475,41.42 29.835,41.757 L29.835,41.757 Z M25.958,39.949 C25.147,39.331 24.432,38.595 23.842,37.762 C24.452,37.628 25.194,37.492 26.037,37.381 C26.451,38 26.901,38.597 27.373,39.164 C26.839,39.48 26.356,39.744 25.958,39.949 L25.958,39.949 Z M22.188,33.91 C22.641,33.41 23.211,32.834 23.9,32.229 C24.007,32.825 24.142,33.42 24.333,34.003 C24.5,34.515 24.71,35.021 24.951,35.516 C24.133,35.649 23.414,35.8 22.816,35.948 C22.536,35.301 22.325,34.619 22.188,33.91 L22.188,33.91 Z M28.354,37.178 C28.974,37.149 29.625,37.143 30.303,37.161 C29.891,37.488 29.48,37.793 29.074,38.074 C28.828,37.785 28.588,37.484 28.354,37.178 L28.354,37.178 Z M23.875,26.193 C23.714,27.318 23.629,28.559 23.666,29.839 C23.065,30.303 22.521,30.767 22.04,31.216 C22.185,29.352 22.843,27.632 23.875,26.193 L23.875,26.193 Z M33.086,41.938 C32.403,41.385 31.449,40.564 30.453,39.563 C31.344,38.934 32.251,38.209 33.111,37.388 C35.754,37.745 37.836,38.419 39.17,38.955 C37.589,40.584 35.463,41.68 33.086,41.938 L33.086,41.938 Z M40.449,37.325 C39.255,36.808 37.291,36.098 34.734,35.627 C36.025,34.016 37.031,32.139 37.377,29.99 C37.513,29.145 37.574,28.344 37.596,27.578 C38.998,27.568 40.19,27.649 41.031,27.733 C41.646,29.029 42,30.472 42,32 C42,33.958 41.426,35.781 40.449,37.325 L40.449,37.325 Z M39.699,25.627 C39.058,25.593 38.335,25.573 37.55,25.579 C37.491,24.825 37.395,24.135 37.276,23.521 C38.191,24.093 39.013,24.8 39.699,25.627 L39.699,25.627 Z M34.961,22.448 C35.196,23.232 35.44,24.329 35.551,25.655 C33.79,25.774 31.855,26.048 29.928,26.596 C28.341,27.047 26.927,27.722 25.671,28.476 C25.76,26.531 26.133,24.783 26.415,23.71 C28.01,22.631 29.933,22 32,22 C33.031,22 34.025,22.157 34.961,22.448 L34.961,22.448 Z" id="Shape" fill="#000000"></path>
    </g>
</svg>