<?xml version="1.0" encoding="UTF-8" standalone="no"?>
<svg width="64px" height="64px" viewBox="0 0 64 64" version="1.1" xmlns="http://www.w3.org/2000/svg" xmlns:xlink="http://www.w3.org/1999/xlink">
    <!-- Generator: Sketch 3.7.2 (28276) - http://www.bohemiancoding.com/sketch -->
    <title>net-wifi-phone</title>
    <desc>Created with Sketch.</desc>
    <defs></defs>
    <g id="64px-Line" stroke="none" stroke-width="1" fill="none" fill-rule="evenodd">
        <g id="net-wifi-phone"></g>
        <circle id="Oval" fill="#000000" cx="32" cy="38" r="2"></circle>
        <path d="M32,32 C30.397,32 28.891,32.624 27.757,33.758 C27.366,34.149 27.366,34.781 27.757,35.172 C28.148,35.563 28.78,35.563 29.171,35.172 C30.683,33.66 33.317,33.66 34.828,35.172 C35.023,35.367 35.279,35.465 35.535,35.465 C35.791,35.465 36.047,35.367 36.242,35.172 C36.633,34.781 36.633,34.149 36.242,33.758 C35.109,32.624 33.603,32 32,32 L32,32 Z" id="Shape" fill="#000000"></path>
        <path d="M24.929,30.929 C24.538,31.32 24.538,31.952 24.929,32.343 C25.32,32.734 25.952,32.734 26.343,32.343 C29.462,29.224 34.537,29.224 37.656,32.343 C37.851,32.538 38.107,32.636 38.363,32.636 C38.619,32.636 38.875,32.538 39.07,32.343 C39.461,31.952 39.461,31.32 39.07,30.929 C35.172,27.03 28.828,27.03 24.929,30.929 L24.929,30.929 Z" id="Shape" fill="#000000"></path>
        <path d="M41.899,28.101 C39.255,25.456 35.74,24 32,24 C28.26,24 24.745,25.456 22.101,28.101 C21.71,28.492 21.71,29.124 22.101,29.515 C22.492,29.906 23.124,29.906 23.515,29.515 C25.782,27.248 28.795,26 32,26 C35.205,26 38.219,27.248 40.485,29.515 C40.68,29.71 40.936,29.808 41.192,29.808 C41.448,29.808 41.704,29.71 41.899,29.515 C42.29,29.124 42.29,28.491 41.899,28.101 L41.899,28.101 Z" id="Shape" fill="#000000"></path>
        <path d="M44,4 L20,4 C17.794,4 16,5.794 16,8 L16,56 C16,58.206 17.794,60 20,60 L44,60 C46.206,60 48,58.206 48,56 L48,8 C48,5.794 46.206,4 44,4 L44,4 Z M18,14 L46,14 L46,50 L18,50 L18,14 L18,14 Z M20,6 L44,6 C45.103,6 46,6.897 46,8 L46,12 L18,12 L18,8 C18,6.897 18.897,6 20,6 L20,6 Z M44,58 L20,58 C18.897,58 18,57.103 18,56 L18,52 L46,52 L46,56 C46,57.103 45.103,58 44,58 L44,58 Z" id="Shape" fill="#000000"></path>
        <path d="M31,10 L37,10 C37.552,10 38,9.553 38,9 C38,8.447 37.552,8 37,8 L31,8 C30.448,8 30,8.447 30,9 C30,9.553 30.448,10 31,10 L31,10 Z" id="Shape" fill="#000000"></path>
        <path d="M26.29,9.71 C26.39,9.8 26.5,9.87 26.62,9.92 C26.74,9.97 26.87,10 27,10 C27.13,10 27.26,9.97 27.38,9.92 C27.5,9.87 27.61,9.8 27.71,9.71 C27.8,9.609 27.87,9.5 27.92,9.38 C27.97,9.26 28,9.13 28,9 C28,8.74 27.89,8.479 27.71,8.29 C27.61,8.2 27.5,8.13 27.38,8.08 C27.01,7.93 26.57,8.01 26.29,8.29 C26.11,8.479 26,8.74 26,9 C26,9.13 26.03,9.26 26.08,9.38 C26.13,9.5 26.2,9.609 26.29,9.71 L26.29,9.71 Z" id="Shape" fill="#000000"></path>
        <path d="M33,54 L31,54 C30.448,54 30,54.447 30,55 C30,55.553 30.448,56 31,56 L33,56 C33.552,56 34,55.553 34,55 C34,54.447 33.552,54 33,54 L33,54 Z" id="Shape" fill="#000000"></path>
    </g>
</svg>