<?xml version="1.0" encoding="UTF-8" standalone="no"?>
<svg width="64px" height="64px" viewBox="0 0 64 64" version="1.1" xmlns="http://www.w3.org/2000/svg" xmlns:xlink="http://www.w3.org/1999/xlink">
    <!-- Generator: Sketch 3.7.2 (28276) - http://www.bohemiancoding.com/sketch -->
    <title>net-wifi-settings</title>
    <desc>Created with Sketch.</desc>
    <defs></defs>
    <g id="64px-Line" stroke="none" stroke-width="1" fill="none" fill-rule="evenodd">
        <g id="net-wifi-settings"></g>
        <path d="M46,40 C42.691,40 40,42.691 40,46 C40,49.309 42.691,52 46,52 C49.309,52 52,49.309 52,46 C52,42.691 49.309,40 46,40 L46,40 Z M46,50 C43.794,50 42,48.206 42,46 C42,43.794 43.794,42 46,42 C48.206,42 50,43.794 50,46 C50,48.206 48.206,50 46,50 L46,50 Z" id="Shape" fill="#000000"></path>
        <path d="M58,43 L56.581,43 C56.344,42.166 56.007,41.356 55.585,40.604 L56.421,39.769 C57.192,38.998 57.192,37.741 56.42,36.968 L55.032,35.58 C54.261,34.808 53.003,34.806 52.23,35.58 L51.397,36.413 C50.637,35.983 49.835,35.649 49,35.413 L49,34 C49,32.897 48.103,32 47,32 L45,32 C43.897,32 43,32.897 43,34 L43,35.413 C42.162,35.649 41.36,35.983 40.602,36.412 L39.769,35.58 C38.998,34.809 37.74,34.809 36.968,35.58 L35.58,36.968 C34.808,37.74 34.808,38.997 35.58,39.77 L36.413,40.603 C35.986,41.359 35.653,42.162 35.417,43 L34,43 C32.897,43 32,43.897 32,45 L32,47 C32,48.103 32.897,49 34,49 L35.419,49 C35.656,49.835 35.992,50.645 36.414,51.396 L35.58,52.23 C34.809,53.001 34.808,54.258 35.58,55.032 L36.968,56.42 C37.74,57.193 38.999,57.19 39.77,56.42 L40.604,55.585 C41.36,56.012 42.162,56.345 43,56.581 L43,58 C43,59.103 43.897,60 45,60 L47,60 C48.103,60 49,59.103 49,58 L49,56.579 C49.836,56.341 50.646,56.005 51.396,55.585 L52.231,56.42 C53.003,57.193 54.261,57.19 55.034,56.42 L56.419,55.032 C56.794,54.658 57.001,54.16 57.001,53.631 C57.001,53.102 56.794,52.604 56.421,52.231 L55.589,51.399 C56.015,50.642 56.348,49.84 56.584,49.001 L58,49.001 C59.103,49.001 60,48.104 60,47.001 L60,45.001 C60,43.897 59.103,43 58,43 L58,43 Z M58,47 L55.797,47 C55.321,47 54.911,47.335 54.817,47.801 C54.584,48.952 54.138,50.026 53.493,50.991 C53.227,51.387 53.279,51.916 53.616,52.254 L55.005,53.617 L53.646,55.006 L52.254,53.613 C51.916,53.274 51.386,53.224 50.991,53.489 C50.044,54.123 48.94,54.581 47.8,54.815 C47.335,54.911 47.001,55.32 47.001,55.794 L47.001,58 L45.001,58 L45.001,55.795 C45.001,55.319 44.666,54.909 44.2,54.815 C43.052,54.583 41.978,54.136 41.011,53.49 C40.841,53.377 40.648,53.321 40.455,53.321 C40.197,53.321 39.941,53.421 39.748,53.614 L38.383,55.007 L36.995,53.646 L38.386,52.255 C38.723,51.918 38.776,51.39 38.511,50.993 C37.875,50.041 37.416,48.936 37.184,47.801 C37.089,47.335 36.679,47.001 36.205,47.001 L34,47.001 L34,45.001 L36.203,45.001 C36.679,45.001 37.089,44.666 37.183,44.2 C37.415,43.051 37.862,41.977 38.508,41.01 C38.774,40.614 38.722,40.084 38.384,39.747 L36.993,38.383 L38.353,36.995 L39.745,38.386 C40.083,38.723 40.612,38.775 41.008,38.51 C41.981,37.86 43.054,37.412 44.198,37.181 C44.664,37.086 44.999,36.676 44.999,36.201 L44.999,34 L46.999,34 L46.999,36.199 C46.999,36.675 47.334,37.085 47.8,37.179 C48.941,37.41 50.015,37.858 50.991,38.509 C51.387,38.775 51.915,38.721 52.253,38.384 L53.617,36.993 L55.005,38.354 L53.613,39.745 C53.276,40.082 53.223,40.61 53.488,41.007 C54.125,41.961 54.584,43.065 54.816,44.199 C54.911,44.665 55.321,44.999 55.795,44.999 L58,44.999 L58,47 L58,47 Z" id="Shape" fill="#000000"></path>
        <path d="M43,6 C21.495,6 4,23.495 4,45 C4,45.553 4.447,46 5,46 C5.553,46 6,45.553 6,45 C6,24.598 22.598,8 43,8 C43.553,8 44,7.553 44,7 C44,6.447 43.553,6 43,6 L43,6 Z" id="Shape" fill="#000000"></path>
        <path d="M43,15 C26.458,15 13,28.458 13,45 C13,45.553 13.447,46 14,46 C14.553,46 15,45.553 15,45 C15,29.561 27.561,17 43,17 C43.553,17 44,16.553 44,16 C44,15.447 43.553,15 43,15 L43,15 Z" id="Shape" fill="#000000"></path>
        <path d="M43,24 C31.421,24 22,33.421 22,45 C22,45.553 22.447,46 23,46 C23.553,46 24,45.553 24,45 C24,34.523 32.523,26 43,26 C43.553,26 44,25.553 44,25 C44,24.447 43.553,24 43,24 L43,24 Z" id="Shape" fill="#000000"></path>
    </g>
</svg>