<?xml version="1.0" encoding="UTF-8" standalone="no"?>
<svg width="64px" height="64px" viewBox="0 0 64 64" version="1.1" xmlns="http://www.w3.org/2000/svg" xmlns:xlink="http://www.w3.org/1999/xlink">
    <!-- Generator: Sketch 3.7.2 (28276) - http://www.bohemiancoding.com/sketch -->
    <title>net-wifi-transmitter</title>
    <desc>Created with Sketch.</desc>
    <defs></defs>
    <g id="64px-Line" stroke="none" stroke-width="1" fill="none" fill-rule="evenodd">
        <g id="net-wifi-transmitter"></g>
        <path d="M31,24 C29.346,24 28,25.346 28,27 C28,28.654 29.346,30 31,30 C32.654,30 34,28.654 34,27 C34,25.346 32.654,24 31,24 L31,24 Z M31,28 C30.449,28 30,27.552 30,27 C30,26.448 30.449,26 31,26 C31.551,26 32,26.448 32,27 C32,27.552 31.551,28 31,28 L31,28 Z" id="Shape" fill="#000000"></path>
        <path d="M31,34 C30.448,34 30,34.447 30,35 L30,57 C30,57.553 30.448,58 31,58 C31.552,58 32,57.553 32,57 L32,35 C32,34.447 31.552,34 31,34 L31,34 Z" id="Shape" fill="#000000"></path>
        <path d="M37.363,19.223 C36.973,19.614 36.973,20.246 37.363,20.637 C39.063,22.336 40,24.596 40,27 C40,29.404 39.063,31.665 37.363,33.364 C36.972,33.755 36.972,34.387 37.363,34.778 C37.558,34.973 37.815,35.071 38.071,35.071 C38.327,35.071 38.583,34.973 38.778,34.778 C40.855,32.701 42,29.939 42,27 C42,24.062 40.855,21.3 38.777,19.223 C38.387,18.832 37.753,18.832 37.363,19.223 L37.363,19.223 Z" id="Shape" fill="#000000"></path>
        <path d="M22,27 C22,24.597 22.936,22.337 24.636,20.637 C25.027,20.246 25.027,19.614 24.636,19.223 C24.245,18.832 23.613,18.832 23.222,19.223 C21.144,21.3 20,24.062 20,27 C20,29.99 21.18,32.787 23.322,34.876 C23.517,35.065 23.768,35.16 24.02,35.16 C24.28,35.16 24.54,35.059 24.736,34.858 C25.122,34.462 25.114,33.83 24.718,33.444 C22.965,31.735 22,29.446 22,27 L22,27 Z" id="Shape" fill="#000000"></path>
        <path d="M44.434,13.566 C44.043,13.175 43.411,13.175 43.02,13.566 C42.629,13.957 42.629,14.589 43.02,14.98 C46.231,18.191 48,22.46 48,27 C48,31.54 46.231,35.81 43.02,39.021 C42.629,39.412 42.629,40.044 43.02,40.435 C43.215,40.63 43.471,40.728 43.727,40.728 C43.983,40.728 44.239,40.63 44.434,40.435 C48.023,36.846 50,32.074 50,27 C50,21.926 48.023,17.154 44.434,13.566 L44.434,13.566 Z" id="Shape" fill="#000000"></path>
        <path d="M14,27 C14,22.459 15.769,18.19 18.979,14.98 C19.37,14.589 19.37,13.957 18.979,13.566 C18.588,13.175 17.956,13.175 17.565,13.566 C13.977,17.154 12,21.925 12,27 C12,32.125 14.01,36.931 17.661,40.53 C17.856,40.722 18.11,40.818 18.363,40.818 C18.621,40.818 18.88,40.718 19.075,40.52 C19.463,40.126 19.458,39.494 19.065,39.106 C15.799,35.885 14,31.586 14,27 L14,27 Z" id="Shape" fill="#000000"></path>
        <path d="M6,27 C6,20.478 8.532,14.497 13.322,9.707 C13.713,9.316 13.713,8.684 13.322,8.293 C12.931,7.902 12.299,7.902 11.908,8.293 C6.734,13.467 4,19.936 4,27 C4,34.056 6.767,40.525 12.002,45.711 C12.197,45.903 12.451,46 12.706,46 C12.963,46 13.221,45.901 13.416,45.704 C13.805,45.311 13.802,44.678 13.409,44.289 C8.562,39.488 6,33.51 6,27 L6,27 Z" id="Shape" fill="#000000"></path>
        <path d="M48.678,8.293 C48.287,8.684 48.287,9.316 48.678,9.707 C53.468,14.498 56,20.479 56,27 C56,33.522 53.468,39.503 48.678,44.293 C48.287,44.684 48.287,45.316 48.678,45.707 C48.873,45.902 49.129,46 49.385,46 C49.641,46 49.897,45.902 50.092,45.707 C55.266,40.533 58,34.064 58,27 C58,19.937 55.266,13.468 50.092,8.293 C49.701,7.902 49.068,7.902 48.678,8.293 L48.678,8.293 Z" id="Shape" fill="#000000"></path>
    </g>
</svg>