<?xml version="1.0" encoding="UTF-8" standalone="no"?>
<svg width="64px" height="64px" viewBox="0 0 64 64" version="1.1" xmlns="http://www.w3.org/2000/svg" xmlns:xlink="http://www.w3.org/1999/xlink">
    <!-- Generator: Sketch 3.7.2 (28276) - http://www.bohemiancoding.com/sketch -->
    <title>net-connection-folder</title>
    <desc>Created with Sketch.</desc>
    <defs></defs>
    <g id="64px-Line" stroke="none" stroke-width="1" fill="none" fill-rule="evenodd">
        <g id="net-connection-folder"></g>
        <path d="M59,52 C59.553,52 60,51.553 60,51 C60,50.447 59.553,50 59,50 L40,50 L40,49 C40,48.447 39.553,48 39,48 L36,48 L36,42 L52,42 C54.206,42 56,40.206 56,38 L56,15 C56,14.447 55.553,14 55,14 L52,14 C52,11.794 50.206,10 48,10 L30,10 C28,10 27.497,9.329 26.8,8.4 C25.998,7.331 25,6 22,6 L12,6 C9.794,6 8,7.794 8,10 L8,38 C8,40.206 9.794,42 12,42 L30,42 L30,48 L27,48 C26.447,48 26,48.447 26,49 L26,50 L5,50 C4.447,50 4,50.447 4,51 C4,51.553 4.447,52 5,52 L26,52 L26,54 L5,54 C4.447,54 4,54.447 4,55 C4,55.553 4.447,56 5,56 L26,56 L26,57 C26,57.553 26.447,58 27,58 L39,58 C39.553,58 40,57.553 40,57 L40,56 L59,56 C59.553,56 60,55.553 60,55 C60,54.447 59.553,54 59,54 L40,54 L40,52 L59,52 L59,52 Z M12,15 L12,40 C10.897,40 10,39.103 10,38 L10,10 C10,8.897 10.897,8 12,8 L22,8 C24,8 24.503,8.671 25.2,9.6 C26.002,10.669 27,12 30,12 L48,12 C49.103,12 50,12.897 50,14 L13,14 C12.447,14 12,14.447 12,15 L12,15 Z M14,16 L54,16 L54,38 C54,39.103 53.103,40 52,40 L14,40 L14,16 L14,16 Z M32,42 L34,42 L34,48 L32,48 L32,42 L32,42 Z M38,56 L28,56 L28,50 L38,50 L38,56 L38,56 Z" id="Shape" fill="#000000"></path>
    </g>
</svg>