<?xml version="1.0" encoding="UTF-8" standalone="no"?>
<svg width="64px" height="64px" viewBox="0 0 64 64" version="1.1" xmlns="http://www.w3.org/2000/svg" xmlns:xlink="http://www.w3.org/1999/xlink">
    <!-- Generator: Sketch 3.7.2 (28276) - http://www.bohemiancoding.com/sketch -->
    <title>net-search</title>
    <desc>Created with Sketch.</desc>
    <defs></defs>
    <g id="64px-Line" stroke="none" stroke-width="1" fill="none" fill-rule="evenodd">
        <g id="net-search"></g>
        <path d="M50,34 C44.486,34 40,38.486 40,44 C40,46.398 40.85,48.6 42.262,50.324 L34.293,58.293 C33.902,58.684 33.902,59.316 34.293,59.707 C34.488,59.902 34.744,60 35,60 C35.256,60 35.512,59.902 35.707,59.707 L43.676,51.738 C45.4,53.15 47.603,54 50,54 C55.514,54 60,49.514 60,44 C60,38.486 55.514,34 50,34 L50,34 Z M50,52 C45.589,52 42,48.411 42,44 C42,39.589 45.589,36 50,36 C54.411,36 58,39.589 58,44 C58,48.411 54.411,52 50,52 L50,52 Z" id="Shape" fill="#000000"></path>
        <path d="M4.27,30.195 C4.624,32.497 5.34,34.678 6.379,36.671 L6.379,36.672 C6.381,36.678 6.385,36.682 6.387,36.687 C8,39.772 10.346,42.414 13.208,44.364 C13.257,44.402 13.306,44.437 13.361,44.465 C16.695,46.694 20.698,48 25.001,48 C29.605,48 33.978,46.537 37.644,43.77 C38.084,43.437 38.172,42.81 37.839,42.369 C37.506,41.928 36.879,41.841 36.439,42.173 C33.584,44.329 30.254,45.603 26.725,45.918 C25.31,44.787 23.14,42.941 20.933,40.637 C22.87,39.325 24.893,37.755 26.761,35.932 C31.713,36.562 35.629,37.808 38.161,38.812 C38.281,38.86 38.406,38.883 38.529,38.883 C38.926,38.883 39.303,38.644 39.459,38.251 C39.662,37.737 39.411,37.156 38.897,36.953 C36.506,36.005 32.925,34.856 28.449,34.159 C31.146,31.102 33.288,27.449 33.969,23.217 C34.256,21.43 34.378,19.735 34.388,18.153 C37.581,18.089 40.257,18.291 41.957,18.475 C43.254,21.043 44.001,23.933 44.001,27.001 C44.001,28.718 43.772,30.42 43.32,32.062 C43.174,32.595 43.486,33.145 44.018,33.292 C44.549,33.437 45.101,33.125 45.247,32.593 C45.747,30.779 46,28.897 46,27.001 C46,23.489 45.123,20.182 43.592,17.271 C43.589,17.26 43.581,17.251 43.577,17.24 C41.186,12.708 37.185,9.168 32.341,7.352 C32.243,7.294 32.137,7.258 32.025,7.236 C29.825,6.45 27.467,6 25,6 C20.464,6 16.271,7.46 12.834,9.915 C12.715,9.972 12.609,10.05 12.52,10.15 C7.363,13.98 4,20.097 4,27 C4,27.986 4.092,28.949 4.224,29.9 C4.223,30.001 4.241,30.097 4.27,30.195 L4.27,30.195 Z M11.838,30.387 C12.248,31.641 12.807,32.869 13.459,34.066 C11.323,34.378 9.453,34.786 7.891,35.208 C7.138,33.645 6.593,31.968 6.292,30.204 C7.392,28.966 8.923,27.412 10.852,25.849 C11.041,27.374 11.352,28.9 11.838,30.387 L11.838,30.387 Z M8.882,37.012 C10.485,36.599 12.392,36.204 14.563,35.926 C15.548,37.449 16.672,38.897 17.848,40.247 C16.384,41.14 15.033,41.865 13.934,42.415 C11.917,40.961 10.2,39.126 8.882,37.012 L8.882,37.012 Z M23.609,45.929 C20.827,45.726 18.206,44.938 15.882,43.661 C16.881,43.134 18.013,42.496 19.212,41.752 C20.715,43.34 22.235,44.747 23.609,45.929 L23.609,45.929 Z M16.832,35.689 C19.058,35.512 21.504,35.48 24.115,35.672 C22.626,36.988 21.068,38.15 19.569,39.15 C18.61,38.063 17.68,36.904 16.832,35.689 L16.832,35.689 Z M31.993,22.899 C31.305,27.175 28.939,30.837 26.034,33.843 C25.559,33.791 25.091,33.735 24.599,33.696 C21.318,33.432 18.306,33.529 15.608,33.803 C14.835,32.492 14.186,31.139 13.738,29.766 C13.171,28.031 12.854,26.229 12.711,24.439 C15.29,22.608 18.405,20.908 22.004,19.885 C25.573,18.87 29.167,18.403 32.388,18.228 C32.375,19.688 32.258,21.252 31.993,22.899 L31.993,22.899 Z M40.725,16.35 C39.04,16.211 36.846,16.103 34.338,16.154 C34.205,13.715 33.821,11.624 33.405,9.986 C36.357,11.45 38.885,13.643 40.725,16.35 L40.725,16.35 Z M31.05,9.005 C31.567,10.643 32.169,13.139 32.34,16.229 C28.973,16.409 25.205,16.896 21.456,17.962 C18.097,18.918 15.141,20.422 12.618,22.084 C12.617,17.914 13.428,14.022 14.126,11.442 C17.212,9.28 20.956,8 25,8 C27.117,8 29.147,8.363 31.05,9.005 L31.05,9.005 Z M11.557,13.587 C10.973,16.364 10.497,19.846 10.651,23.469 C8.803,24.865 7.256,26.292 6.028,27.554 C6.023,27.368 6,27.187 6,27 C6,21.77 8.125,17.026 11.557,13.587 L11.557,13.587 Z" id="Shape" fill="#000000"></path>
    </g>
</svg>