<?xml version="1.0" encoding="UTF-8" standalone="no"?>
<svg width="64px" height="64px" viewBox="0 0 64 64" version="1.1" xmlns="http://www.w3.org/2000/svg" xmlns:xlink="http://www.w3.org/1999/xlink">
    <!-- Generator: Sketch 3.7.2 (28276) - http://www.bohemiancoding.com/sketch -->
    <title>net-open</title>
    <desc>Created with Sketch.</desc>
    <defs></defs>
    <g id="64px-Line" stroke="none" stroke-width="1" fill="none" fill-rule="evenodd">
        <g id="net-open"></g>
        <path d="M53,8 C49.141,8 46,11.14 46,15 C46,17.301 47.121,19.34 48.84,20.616 L41.4,34.433 C40.65,34.158 39.844,34 39,34 C37.741,34 36.562,34.339 35.54,34.923 L30.038,27.848 C31.25,26.589 32,24.882 32,23 C32,19.14 28.859,16 25,16 C21.141,16 18,19.14 18,23 C18,25.301 19.121,27.34 20.84,28.616 L13.4,42.433 C12.65,42.158 11.844,42 11,42 C7.141,42 4,45.141 4,49 C4,52.859 7.141,56 11,56 C14.859,56 18,52.859 18,49 C18,46.699 16.879,44.66 15.16,43.384 L22.6,29.567 C23.35,29.842 24.156,30 25,30 C26.259,30 27.438,29.661 28.46,29.077 L33.962,36.152 C32.75,37.412 32,39.119 32,41 C32,44.859 35.141,48 39,48 C42.859,48 46,44.859 46,41 C46,38.699 44.879,36.66 43.16,35.384 L50.6,21.567 C51.35,21.842 52.156,22 53,22 C56.859,22 60,18.86 60,15 C60,11.14 56.859,8 53,8 L53,8 Z M16,49 C16,51.757 13.757,54 11,54 C8.243,54 6,51.757 6,49 C6,46.243 8.243,44 11,44 C13.757,44 16,46.243 16,49 L16,49 Z M20,23 C20,20.243 22.243,18 25,18 C27.757,18 30,20.243 30,23 C30,25.757 27.757,28 25,28 C22.243,28 20,25.757 20,23 L20,23 Z M44,41 C44,43.757 41.757,46 39,46 C36.243,46 34,43.757 34,41 C34,38.243 36.243,36 39,36 C41.757,36 44,38.243 44,41 L44,41 Z M53,20 C50.243,20 48,17.757 48,15 C48,12.243 50.243,10 53,10 C55.757,10 58,12.243 58,15 C58,17.757 55.757,20 53,20 L53,20 Z" id="Shape" fill="#000000"></path>
    </g>
</svg>