<?xml version="1.0" encoding="UTF-8" standalone="no"?>
<svg width="64px" height="64px" viewBox="0 0 64 64" version="1.1" xmlns="http://www.w3.org/2000/svg" xmlns:xlink="http://www.w3.org/1999/xlink">
    <!-- Generator: Sketch 3.7.2 (28276) - http://www.bohemiancoding.com/sketch -->
    <title>net-connection</title>
    <desc>Created with Sketch.</desc>
    <defs></defs>
    <g id="64px-Line" stroke="none" stroke-width="1" fill="none" fill-rule="evenodd">
        <g id="net-connection"></g>
        <path d="M5,56 C4.447,56 4,56.448 4,57 C4,57.552 4.447,58 5,58 L24,58 L24,59 C24,59.552 24.447,60 25,60 L37,60 C37.553,60 38,59.552 38,59 L38,58 L57,58 C57.553,58 58,57.552 58,57 C58,56.448 57.553,56 57,56 L38,56 L38,54 L57,54 C57.553,54 58,53.552 58,53 C58,52.448 57.553,52 57,52 L38,52 L38,51 C38,50.448 37.553,50 37,50 L34,50 L34,43.74 C38.897,42.958 43.167,40.308 46.063,36.535 C46.164,36.449 46.255,36.349 46.317,36.222 C46.323,36.209 46.322,36.195 46.328,36.181 C48.626,33.039 50,29.181 50,25 C50,16.866 44.853,9.93 37.652,7.226 C37.566,7.176 37.473,7.147 37.376,7.125 C35.38,6.41 33.239,6 31,6 C26.9,6 23.109,7.319 20.001,9.536 C19.895,9.588 19.803,9.66 19.721,9.745 C15.048,13.21 12,18.749 12,25 C12,25.891 12.083,26.761 12.202,27.62 C12.202,27.708 12.219,27.791 12.241,27.876 C12.54,29.829 13.132,31.682 13.98,33.393 C13.977,33.494 13.976,33.596 14.006,33.698 C14.073,33.929 14.225,34.107 14.409,34.233 C15.859,36.828 17.894,39.053 20.342,40.718 C20.384,40.749 20.426,40.778 20.471,40.803 C22.694,42.289 25.252,43.3 28,43.739 L28,50 L25,50 C24.447,50 24,50.448 24,51 L24,52 L5,52 C4.447,52 4,52.448 4,53 C4,53.552 4.447,54 5,54 L24,54 L24,56 L5,56 L5,56 Z M23.003,39.993 C23.846,39.544 24.779,39.018 25.774,38.402 C27.031,39.726 28.299,40.91 29.462,41.922 C27.145,41.713 24.96,41.042 23.003,39.993 L23.003,39.993 Z M32.579,41.92 C31.324,40.915 29.427,39.3 27.489,37.288 C29.194,36.127 30.966,34.745 32.61,33.146 C37.746,33.805 41.636,35.198 43.809,36.142 C41.016,39.349 37.051,41.506 32.579,41.92 L32.579,41.92 Z M14.268,27.915 C15.225,26.841 16.542,25.506 18.187,24.157 C18.36,25.475 18.639,26.794 19.059,28.079 C19.411,29.156 19.887,30.212 20.439,31.243 C18.503,31.519 16.873,31.876 15.623,32.203 C14.991,30.859 14.531,29.422 14.268,27.915 L14.268,27.915 Z M20.96,27.458 C20.458,25.922 20.173,24.328 20.043,22.743 C22.346,21.114 25.125,19.604 28.331,18.692 C31.495,17.792 34.681,17.372 37.547,17.21 C37.531,18.489 37.426,19.855 37.195,21.292 C36.582,25.102 34.471,28.358 31.884,31.044 C31.477,31.001 31.067,30.96 30.647,30.926 C27.684,30.687 24.964,30.763 22.582,30.989 C21.912,29.842 21.352,28.658 20.96,27.458 L20.96,27.458 Z M29.962,32.886 C28.703,33.983 27.393,34.955 26.128,35.803 C25.324,34.888 24.545,33.918 23.827,32.904 C25.692,32.769 27.759,32.738 29.962,32.886 L29.962,32.886 Z M45.079,34.516 C43.086,33.614 39.328,32.172 34.291,31.367 C36.673,28.631 38.564,25.377 39.169,21.61 C39.422,20.034 39.535,18.535 39.548,17.135 C42.335,17.085 44.681,17.257 46.193,17.419 C47.339,19.705 48,22.274 48,25 C48,28.523 46.922,31.799 45.079,34.516 L45.079,34.516 Z M44.939,15.296 C43.474,15.181 41.611,15.098 39.5,15.137 C39.381,13.076 39.063,11.295 38.713,9.87 C41.207,11.146 43.345,13.014 44.939,15.296 L44.939,15.296 Z M36.364,8.881 C36.819,10.332 37.343,12.515 37.502,15.212 C34.49,15.379 31.128,15.818 27.784,16.769 C24.817,17.613 22.199,18.929 19.956,20.389 C19.978,16.735 20.687,13.334 21.302,11.057 C24.055,9.136 27.395,8 31,8 C32.875,8 34.676,8.317 36.364,8.881 L36.364,8.881 Z M18.73,13.265 C18.24,15.696 17.856,18.675 17.982,21.775 C16.413,22.963 15.084,24.176 14.013,25.265 C14.012,25.176 14,25.089 14,25 C14,20.449 15.808,16.319 18.73,13.265 L18.73,13.265 Z M16.615,34.017 C17.847,33.716 19.53,33.373 21.55,33.125 C22.411,34.451 23.388,35.714 24.41,36.894 C23.153,37.656 22.003,38.276 21.049,38.754 C19.284,37.474 17.778,35.867 16.615,34.017 L16.615,34.017 Z M30,43.949 C30.333,43.967 30.662,44 31,44 C31.338,44 31.667,43.967 32,43.949 L32,50 L30,50 L30,43.949 L30,43.949 Z M26,52 L36,52 L36,58 L26,58 L26,52 L26,52 Z" id="Shape" fill="#000000"></path>
    </g>
</svg>