<?xml version="1.0" encoding="UTF-8" standalone="no"?>
<svg width="64px" height="64px" viewBox="0 0 64 64" version="1.1" xmlns="http://www.w3.org/2000/svg" xmlns:xlink="http://www.w3.org/1999/xlink">
    <!-- Generator: Sketch 3.7.2 (28276) - http://www.bohemiancoding.com/sketch -->
    <title>net-download-2</title>
    <desc>Created with Sketch.</desc>
    <defs></defs>
    <g id="64px-Line" stroke="none" stroke-width="1" fill="none" fill-rule="evenodd">
        <g id="net-download-2"></g>
        <path d="M55,48 C54.447,48 54,48.447 54,49 L54,55 C54,55.552 53.552,56 53,56 L9,56 C8.448,56 8,55.552 8,55 L8,49 C8,48.447 7.553,48 7,48 C6.447,48 6,48.447 6,49 L6,55 C6,56.654 7.346,58 9,58 L53,58 C54.654,58 56,56.654 56,55 L56,49 C56,48.447 55.553,48 55,48 L55,48 Z" id="Shape" fill="#000000"></path>
        <path d="M20.293,36.293 C19.902,36.684 19.902,37.316 20.293,37.707 L30.292,47.706 C30.384,47.799 30.495,47.872 30.618,47.923 C30.74,47.974 30.87,48 31,48 C31.13,48 31.26,47.974 31.382,47.923 C31.505,47.872 31.616,47.799 31.708,47.706 L41.707,37.707 C42.098,37.316 42.098,36.684 41.707,36.293 C41.316,35.902 40.684,35.902 40.293,36.293 L32,44.586 L32,7 C32,6.447 31.553,6 31,6 C30.447,6 30,6.447 30,7 L30,44.586 L21.707,36.293 C21.316,35.902 20.684,35.902 20.293,36.293 L20.293,36.293 Z" id="Shape" fill="#000000"></path>
    </g>
</svg>