<?xml version="1.0" encoding="UTF-8" standalone="no"?>
<svg width="64px" height="64px" viewBox="0 0 64 64" version="1.1" xmlns="http://www.w3.org/2000/svg" xmlns:xlink="http://www.w3.org/1999/xlink">
    <!-- Generator: Sketch 3.7.2 (28276) - http://www.bohemiancoding.com/sketch -->
    <title>net-tree</title>
    <desc>Created with Sketch.</desc>
    <defs></defs>
    <g id="64px-Line" stroke="none" stroke-width="1" fill="none" fill-rule="evenodd">
        <g id="net-tree"></g>
        <path d="M11,58 C14.86,58 18,54.859 18,51 C18,47.481 15.387,44.568 12,44.08 L12,36 C12,34.897 12.897,34 14,34 L48,34 C49.103,34 50,34.897 50,36 L50,44.08 C46.613,44.568 44,47.481 44,51 C44,54.859 47.14,58 51,58 C54.86,58 58,54.859 58,51 C58,47.481 55.387,44.568 52,44.08 L52,36 C52,33.794 50.206,32 48,32 L32,32 L32,21.92 C35.387,21.432 38,18.519 38,15 C38,11.14 34.86,8 31,8 C27.14,8 24,11.14 24,15 C24,18.52 26.613,21.432 30,21.92 L30,32 L14,32 C11.794,32 10,33.794 10,36 L10,44.08 C6.613,44.568 4,47.481 4,51 C4,54.859 7.14,58 11,58 L11,58 Z M56,51 C56,53.757 53.757,56 51,56 C48.243,56 46,53.757 46,51 C46,48.243 48.243,46 51,46 C53.757,46 56,48.243 56,51 L56,51 Z M26,15 C26,12.243 28.243,10 31,10 C33.757,10 36,12.243 36,15 C36,17.757 33.757,20 31,20 C28.243,20 26,17.757 26,15 L26,15 Z M11,46 C13.757,46 16,48.243 16,51 C16,53.757 13.757,56 11,56 C8.243,56 6,53.757 6,51 C6,48.243 8.243,46 11,46 L11,46 Z" id="Shape" fill="#000000"></path>
    </g>
</svg>