<?xml version="1.0" encoding="UTF-8" standalone="no"?>
<svg width="64px" height="64px" viewBox="0 0 64 64" version="1.1" xmlns="http://www.w3.org/2000/svg" xmlns:xlink="http://www.w3.org/1999/xlink">
    <!-- Generator: Sketch 3.7.2 (28276) - http://www.bohemiancoding.com/sketch -->
    <title>net-computer</title>
    <desc>Created with Sketch.</desc>
    <defs></defs>
    <g id="64px-Line" stroke="none" stroke-width="1" fill="none" fill-rule="evenodd">
        <g id="net-computer"></g>
        <path d="M26.243,50.03 C25.708,49.897 25.165,50.222 25.03,50.758 L24.03,54.758 C24.02,54.8 24.029,54.84 24.024,54.881 C24.019,54.921 24,54.958 24,55 C24,55.044 24.011,55.084 24.013,55.128 C24.015,55.142 24.015,55.155 24.017,55.169 C24.107,56.743 25.404,58 27,58 L37,58 C38.596,58 39.893,56.743 39.983,55.169 C39.985,55.155 39.985,55.142 39.987,55.128 C39.989,55.084 40,55.044 40,55 C40,54.958 39.981,54.921 39.976,54.88 C39.971,54.838 39.981,54.798 39.97,54.757 L38.97,50.757 C38.836,50.221 38.294,49.897 37.757,50.029 C37.221,50.163 36.896,50.706 37.029,51.242 L37.985,55.068 C37.949,55.586 37.527,56 37,56 L27,56 C26.473,56 26.051,55.586 26.014,55.068 L26.97,51.242 C27.104,50.707 26.778,50.164 26.243,50.03 L26.243,50.03 Z" id="Shape" fill="#000000"></path>
        <path d="M56,6 L8,6 C5.794,6 4,7.794 4,10 L4,44 C4,46.206 5.794,48 8,48 L56,48 C58.206,48 60,46.206 60,44 L60,10 C60,7.794 58.206,6 56,6 L56,6 Z M8,8 L56,8 C57.103,8 58,8.897 58,10 L58,36 L6,36 L6,10 C6,8.897 6.897,8 8,8 L8,8 Z M56,46 L8,46 C6.897,46 6,45.103 6,44 L6,38 L58,38 L58,44 C58,45.103 57.103,46 56,46 L56,46 Z" id="Shape" fill="#000000"></path>
        <circle id="Oval" fill="#000000" cx="32" cy="42" r="2"></circle>
        <path d="M20.147,23.781 C20.331,25.009 20.699,26.174 21.227,27.251 C21.233,27.309 21.225,27.366 21.241,27.424 C21.296,27.614 21.413,27.76 21.552,27.882 C22.471,29.507 23.751,30.903 25.292,31.945 C25.317,31.962 25.342,31.977 25.368,31.992 C27.27,33.258 29.549,34 32,34 C35.865,34 39.299,32.156 41.496,29.309 C41.58,29.229 41.657,29.139 41.711,29.028 C41.713,29.025 41.712,29.021 41.714,29.018 C43.145,27.042 44,24.622 44,22 C44,16.875 40.764,12.502 36.233,10.786 C36.188,10.762 36.139,10.751 36.091,10.734 C34.812,10.268 33.438,10 32,10 C29.424,10 27.042,10.823 25.085,12.21 C25.028,12.24 24.982,12.285 24.931,12.325 C21.948,14.511 20,18.028 20,22 C20,22.554 20.051,23.096 20.124,23.631 C20.125,23.682 20.138,23.73 20.147,23.781 L20.147,23.781 Z M32.363,25.295 C32.178,25.277 32.006,25.25 31.816,25.235 C30.086,25.095 28.489,25.13 27.075,25.251 C26.733,24.64 26.441,24.015 26.235,23.382 C25.963,22.55 25.806,21.682 25.723,20.816 C27.063,19.891 28.648,19.04 30.476,18.52 C32.222,18.023 33.981,17.768 35.593,17.654 C35.569,18.298 35.517,18.967 35.403,19.673 C35.053,21.841 33.845,23.729 32.363,25.295 L32.363,25.295 Z M29.835,31.757 C29.184,31.612 28.557,31.405 27.961,31.14 C28.213,30.998 28.473,30.845 28.743,30.682 C29.109,31.061 29.475,31.42 29.835,31.757 L29.835,31.757 Z M25.958,29.949 C25.147,29.331 24.432,28.595 23.842,27.762 C24.452,27.628 25.194,27.492 26.037,27.381 C26.451,28 26.901,28.597 27.373,29.164 C26.839,29.48 26.356,29.744 25.958,29.949 L25.958,29.949 Z M28.354,27.178 C28.975,27.149 29.625,27.143 30.303,27.161 C29.89,27.488 29.479,27.793 29.074,28.074 C28.828,27.785 28.588,27.484 28.354,27.178 L28.354,27.178 Z M24.333,24.003 C24.5,24.516 24.71,25.021 24.951,25.517 C24.133,25.65 23.414,25.8 22.816,25.949 C22.537,25.302 22.326,24.62 22.188,23.911 C22.641,23.411 23.211,22.835 23.9,22.23 C24.007,22.825 24.142,23.419 24.333,24.003 L24.333,24.003 Z M33.086,31.938 C32.403,31.385 31.449,30.564 30.453,29.563 C31.344,28.934 32.251,28.209 33.111,27.388 C35.754,27.745 37.836,28.419 39.17,28.955 C37.589,30.584 35.463,31.68 33.086,31.938 L33.086,31.938 Z M40.449,27.325 C39.255,26.808 37.291,26.098 34.734,25.627 C36.025,24.016 37.031,22.139 37.377,19.99 C37.513,19.145 37.574,18.344 37.596,17.577 C38.998,17.567 40.19,17.648 41.031,17.732 C41.646,19.029 42,20.472 42,22 C42,23.958 41.426,25.781 40.449,27.325 L40.449,27.325 Z M39.699,15.627 C39.058,15.593 38.334,15.573 37.55,15.579 C37.491,14.825 37.395,14.135 37.276,13.521 C38.191,14.093 39.013,14.8 39.699,15.627 L39.699,15.627 Z M34.961,12.448 C35.196,13.232 35.44,14.329 35.551,15.655 C33.79,15.774 31.855,16.048 29.928,16.596 C28.341,17.047 26.927,17.722 25.671,18.476 C25.76,16.531 26.133,14.783 26.415,13.71 C28.01,12.631 29.933,12 32,12 C33.031,12 34.025,12.157 34.961,12.448 L34.961,12.448 Z M23.875,16.193 C23.714,17.318 23.629,18.559 23.666,19.839 C23.065,20.303 22.521,20.767 22.04,21.216 C22.185,19.352 22.843,17.632 23.875,16.193 L23.875,16.193 Z" id="Shape" fill="#000000"></path>
    </g>
</svg>