<?xml version="1.0" encoding="UTF-8" standalone="no"?>
<svg width="64px" height="64px" viewBox="0 0 64 64" version="1.1" xmlns="http://www.w3.org/2000/svg" xmlns:xlink="http://www.w3.org/1999/xlink">
    <!-- Generator: Sketch 3.7.2 (28276) - http://www.bohemiancoding.com/sketch -->
    <title>net-protect</title>
    <desc>Created with Sketch.</desc>
    <defs></defs>
    <g id="64px-Line" stroke="none" stroke-width="1" fill="none" fill-rule="evenodd">
        <g id="net-protect"></g>
        <path d="M59,36 C54.133,36 52.168,34.346 50.435,32.886 C50.159,32.654 49.89,32.428 49.62,32.215 C49.257,31.929 48.745,31.929 48.382,32.215 C48.111,32.428 47.842,32.654 47.566,32.887 C45.831,34.346 43.865,36 39,36 C38.447,36 38,36.448 38,37 L38,44.5 C38,52.924 43.766,58 49.161,59.941 C49.27,59.981 49.386,60 49.5,60 C49.614,60 49.729,59.98 49.838,59.941 C54.751,58.176 60,53.193 60,44.5 L60,37 C60,36.448 59.553,36 59,36 L59,36 Z M58,44.5 C58,51.954 53.673,56.291 49.501,57.932 C47.297,57.062 40,53.499 40,44.5 L40,37.978 C44.885,37.756 47.072,35.915 48.853,34.417 C48.902,34.375 48.952,34.334 49,34.292 C49.049,34.333 49.098,34.374 49.146,34.416 C50.925,35.914 53.113,37.756 58,37.978 L58,44.5 L58,44.5 Z" id="Shape" fill="#000000"></path>
        <path d="M4.27,30.195 C4.624,32.497 5.34,34.678 6.379,36.671 L6.379,36.672 C6.381,36.678 6.385,36.682 6.387,36.687 C7.999,39.772 10.346,42.414 13.208,44.364 C13.257,44.402 13.306,44.437 13.361,44.465 C16.695,46.694 20.698,48 25.001,48 C28.692,48 32.324,47.028 35.502,45.19 C35.98,44.913 36.144,44.301 35.866,43.823 C35.591,43.345 34.978,43.181 34.5,43.458 C32.121,44.834 29.459,45.664 26.719,45.912 C25.304,44.78 23.137,42.936 20.933,40.636 C22.868,39.325 24.89,37.756 26.756,35.935 C29.478,36.281 32.15,36.839 34.723,37.616 C34.82,37.645 34.916,37.659 35.012,37.659 C35.442,37.659 35.839,37.38 35.969,36.948 C36.129,36.42 35.83,35.862 35.301,35.702 C33.077,35.03 30.779,34.527 28.443,34.164 C31.142,31.106 33.287,27.451 33.969,23.215 C34.256,21.428 34.378,19.733 34.388,18.151 C37.581,18.087 40.257,18.289 41.957,18.473 C43.254,21.041 44.001,23.931 44.001,26.999 C44.001,28.443 43.838,29.884 43.517,31.282 C43.393,31.821 43.729,32.357 44.268,32.481 C44.804,32.605 45.342,32.269 45.466,31.731 C45.82,30.187 46,28.595 46,27 C46,23.488 45.123,20.181 43.592,17.27 C43.589,17.259 43.581,17.25 43.577,17.239 C41.186,12.707 37.185,9.167 32.341,7.351 C32.243,7.293 32.137,7.257 32.025,7.235 C29.825,6.45 27.467,6 25,6 C20.464,6 16.271,7.46 12.834,9.915 C12.716,9.972 12.612,10.049 12.524,10.147 C7.365,13.977 4,20.095 4,27 C4,27.986 4.092,28.949 4.224,29.9 C4.223,30.001 4.241,30.097 4.27,30.195 L4.27,30.195 Z M11.838,30.387 C12.248,31.641 12.807,32.87 13.459,34.066 C11.324,34.378 9.453,34.786 7.891,35.208 C7.138,33.645 6.593,31.968 6.292,30.204 C7.392,28.966 8.923,27.412 10.852,25.849 C11.041,27.374 11.352,28.9 11.838,30.387 L11.838,30.387 Z M8.882,37.012 C10.485,36.599 12.392,36.204 14.563,35.926 C15.549,37.449 16.672,38.897 17.848,40.247 C16.384,41.14 15.033,41.865 13.934,42.415 C11.917,40.961 10.2,39.126 8.882,37.012 L8.882,37.012 Z M23.609,45.929 C20.827,45.726 18.206,44.938 15.882,43.661 C16.881,43.134 18.013,42.496 19.212,41.752 C20.715,43.34 22.235,44.747 23.609,45.929 L23.609,45.929 Z M16.832,35.689 C19.058,35.512 21.504,35.48 24.115,35.672 C22.626,36.988 21.068,38.15 19.569,39.15 C18.61,38.063 17.68,36.904 16.832,35.689 L16.832,35.689 Z M31.993,22.899 C31.305,27.178 28.936,30.842 26.029,33.848 C25.552,33.797 25.078,33.734 24.599,33.696 C21.318,33.432 18.306,33.529 15.608,33.803 C14.835,32.492 14.186,31.139 13.738,29.766 C13.171,28.031 12.854,26.229 12.711,24.439 C15.29,22.608 18.405,20.908 22.004,19.885 C25.573,18.87 29.167,18.403 32.388,18.228 C32.375,19.688 32.258,21.252 31.993,22.899 L31.993,22.899 Z M40.725,16.35 C39.04,16.211 36.847,16.103 34.338,16.154 C34.205,13.715 33.821,11.624 33.405,9.986 C36.357,11.45 38.885,13.643 40.725,16.35 L40.725,16.35 Z M31.05,9.005 C31.567,10.643 32.169,13.139 32.34,16.229 C28.973,16.409 25.205,16.896 21.456,17.962 C18.097,18.918 15.141,20.422 12.618,22.084 C12.617,17.914 13.428,14.022 14.126,11.442 C17.212,9.28 20.956,8 25,8 C27.117,8 29.147,8.363 31.05,9.005 L31.05,9.005 Z M11.557,13.587 C10.973,16.364 10.497,19.846 10.651,23.469 C8.803,24.865 7.256,26.292 6.028,27.554 C6.023,27.368 6,27.187 6,27 C6,21.77 8.125,17.026 11.557,13.587 L11.557,13.587 Z" id="Shape" fill="#000000"></path>
    </g>
</svg>