<?xml version="1.0" encoding="UTF-8" standalone="no"?>
<svg width="64px" height="64px" viewBox="0 0 64 64" version="1.1" xmlns="http://www.w3.org/2000/svg" xmlns:xlink="http://www.w3.org/1999/xlink">
    <!-- Generator: Sketch 3.7.2 (28276) - http://www.bohemiancoding.com/sketch -->
    <title>net-settings</title>
    <desc>Created with Sketch.</desc>
    <defs></defs>
    <g id="64px-Line" stroke="none" stroke-width="1" fill="none" fill-rule="evenodd">
        <g id="net-settings"></g>
        <path d="M46,40 C42.691,40 40,42.691 40,46 C40,49.309 42.691,52 46,52 C49.309,52 52,49.309 52,46 C52,42.691 49.309,40 46,40 L46,40 Z M46,50 C43.794,50 42,48.206 42,46 C42,43.794 43.794,42 46,42 C48.206,42 50,43.794 50,46 C50,48.206 48.206,50 46,50 L46,50 Z" id="Shape" fill="#000000"></path>
        <path d="M58,43 L56.581,43 C56.344,42.166 56.007,41.356 55.585,40.604 L56.421,39.769 C57.192,38.997 57.192,37.741 56.42,36.968 L55.032,35.58 C54.261,34.808 53.003,34.806 52.23,35.58 L51.397,36.413 C50.637,35.984 49.835,35.649 49,35.413 L49,34 C49,32.897 48.103,32 47,32 L45,32 C43.897,32 43,32.897 43,34 L43,35.413 C42.162,35.649 41.36,35.984 40.602,36.413 L39.769,35.58 C38.998,34.808 37.74,34.808 36.968,35.58 L35.58,36.968 C34.808,37.74 34.808,38.997 35.58,39.77 L36.413,40.603 C35.986,41.359 35.653,42.161 35.417,43 L34,43 C32.897,43 32,43.897 32,45 L32,47 C32,48.103 32.897,49 34,49 L35.419,49 C35.656,49.834 35.992,50.645 36.414,51.396 L35.58,52.23 C34.809,53.001 34.808,54.258 35.58,55.032 L36.968,56.42 C37.74,57.192 38.999,57.191 39.77,56.42 L40.604,55.586 C41.36,56.013 42.162,56.346 43,56.582 L43,58 C43,59.103 43.897,60 45,60 L47,60 C48.103,60 49,59.103 49,58 L49,56.579 C49.836,56.341 50.646,56.005 51.396,55.584 L52.231,56.419 C53.003,57.191 54.261,57.191 55.034,56.419 L56.419,55.032 C56.794,54.658 57.001,54.16 57.001,53.631 C57.001,53.102 56.794,52.604 56.421,52.231 L55.589,51.398 C56.015,50.642 56.348,49.84 56.584,49 L58,49 C59.103,49 60,48.103 60,47 L60,45 C60,43.897 59.103,43 58,43 L58,43 Z M58,47 L55.797,47 C55.321,47 54.911,47.335 54.817,47.801 C54.584,48.951 54.138,50.025 53.493,50.991 C53.227,51.387 53.279,51.916 53.616,52.253 L55.005,53.617 L53.646,55.005 L52.254,53.612 C51.916,53.274 51.386,53.222 50.991,53.488 C50.044,54.121 48.94,54.58 47.8,54.814 C47.335,54.909 47.001,55.319 47.001,55.793 L47.001,58 L45.001,58 L45.001,55.795 C45.001,55.319 44.666,54.91 44.2,54.815 C43.052,54.582 41.978,54.136 41.011,53.489 C40.841,53.376 40.648,53.321 40.455,53.321 C40.197,53.321 39.941,53.421 39.748,53.614 L38.383,55.007 L36.995,53.646 L38.386,52.255 C38.723,51.918 38.776,51.39 38.511,50.993 C37.875,50.041 37.416,48.937 37.184,47.801 C37.089,47.336 36.679,47.002 36.205,47.002 L34,47.002 L34,45.002 L36.203,45.002 C36.679,45.002 37.089,44.667 37.183,44.201 C37.415,43.052 37.862,41.979 38.508,41.011 C38.774,40.614 38.722,40.086 38.384,39.748 L36.993,38.384 L38.353,36.997 L39.745,38.388 C40.083,38.725 40.612,38.777 41.008,38.512 C41.981,37.862 43.054,37.414 44.198,37.182 C44.664,37.087 44.999,36.678 44.999,36.202 L44.999,34 L46.999,34 L46.999,36.199 C46.999,36.675 47.334,37.084 47.8,37.179 C48.941,37.41 50.015,37.858 50.991,38.51 C51.387,38.774 51.915,38.722 52.253,38.385 L53.617,36.994 L55.005,38.355 L53.613,39.746 C53.276,40.083 53.223,40.612 53.488,41.009 C54.125,41.963 54.584,43.066 54.816,44.201 C54.911,44.666 55.321,45 55.795,45 L58,45 L58,47 L58,47 Z" id="Shape" fill="#000000"></path>
        <path d="M4.27,30.195 C4.624,32.497 5.34,34.678 6.379,36.671 L6.379,36.672 C6.411,36.783 6.461,36.884 6.525,36.973 C8.132,39.938 10.433,42.473 13.208,44.364 C13.257,44.402 13.306,44.437 13.361,44.465 C16.695,46.694 20.698,48 25.001,48 C26.415,48 27.828,47.858 29.201,47.58 C29.742,47.47 30.092,46.942 29.981,46.401 C29.873,45.861 29.35,45.511 28.802,45.62 C28.118,45.759 27.421,45.852 26.72,45.915 C25.305,44.783 23.137,42.939 20.932,40.638 C22.868,39.327 24.89,37.757 26.757,35.936 C28.653,36.177 30.529,36.52 32.36,36.972 C32.895,37.106 33.438,36.777 33.57,36.241 C33.703,35.705 33.375,35.163 32.839,35.031 C31.4,34.676 29.933,34.387 28.452,34.157 C31.147,31.101 33.288,27.449 33.969,23.219 C34.256,21.432 34.378,19.737 34.388,18.155 C37.581,18.091 40.257,18.293 41.957,18.477 C43.254,21.045 44.001,23.935 44.001,27.003 C44.001,27.639 43.97,28.279 43.907,28.905 C43.852,29.455 44.254,29.945 44.803,29.999 C45.348,30.054 45.842,29.652 45.897,29.103 C45.965,28.412 46.001,27.705 46.001,27.003 C46.001,23.491 45.124,20.184 43.593,17.273 C43.59,17.262 43.582,17.253 43.578,17.242 C41.187,12.71 37.186,9.17 32.342,7.354 C32.244,7.296 32.138,7.26 32.026,7.238 C29.825,6.45 27.467,6 25,6 C20.464,6 16.271,7.46 12.834,9.915 C12.715,9.972 12.609,10.05 12.52,10.15 C7.363,13.98 4,20.097 4,27 C4,27.986 4.092,28.949 4.224,29.9 C4.223,30.001 4.241,30.097 4.27,30.195 L4.27,30.195 Z M11.838,30.387 C12.248,31.641 12.807,32.87 13.459,34.066 C11.323,34.378 9.452,34.786 7.891,35.208 C7.138,33.645 6.593,31.968 6.292,30.204 C7.392,28.966 8.923,27.412 10.852,25.849 C11.041,27.374 11.352,28.9 11.838,30.387 L11.838,30.387 Z M8.882,37.012 C10.485,36.599 12.392,36.204 14.563,35.926 C15.548,37.449 16.672,38.897 17.848,40.247 C16.384,41.14 15.033,41.865 13.934,42.415 C11.917,40.961 10.2,39.126 8.882,37.012 L8.882,37.012 Z M23.609,45.929 C20.827,45.726 18.206,44.938 15.882,43.661 C16.881,43.134 18.013,42.496 19.212,41.752 C20.715,43.34 22.235,44.747 23.609,45.929 L23.609,45.929 Z M16.832,35.689 C19.058,35.512 21.504,35.48 24.115,35.672 C22.626,36.988 21.068,38.15 19.569,39.15 C18.61,38.063 17.68,36.904 16.832,35.689 L16.832,35.689 Z M31.993,22.899 C31.305,27.174 28.941,30.835 26.037,33.84 C25.558,33.788 25.08,33.734 24.6,33.695 C21.32,33.431 18.307,33.528 15.609,33.802 C14.836,32.492 14.187,31.138 13.739,29.765 C13.172,28.03 12.855,26.228 12.712,24.438 C15.291,22.607 18.406,20.907 22.005,19.884 C25.574,18.869 29.168,18.402 32.389,18.227 C32.375,19.688 32.258,21.252 31.993,22.899 L31.993,22.899 Z M40.725,16.35 C39.04,16.211 36.847,16.103 34.338,16.154 C34.205,13.715 33.821,11.624 33.405,9.986 C36.357,11.45 38.885,13.643 40.725,16.35 L40.725,16.35 Z M31.05,9.005 C31.567,10.643 32.169,13.139 32.34,16.229 C28.973,16.409 25.204,16.896 21.456,17.962 C18.097,18.918 15.141,20.422 12.618,22.084 C12.617,17.914 13.428,14.022 14.126,11.442 C17.212,9.28 20.956,8 25,8 C27.117,8 29.147,8.363 31.05,9.005 L31.05,9.005 Z M11.557,13.587 C10.973,16.364 10.497,19.846 10.651,23.469 C8.803,24.865 7.256,26.292 6.028,27.554 C6.023,27.368 6,27.187 6,27 C6,21.77 8.125,17.026 11.557,13.587 L11.557,13.587 Z" id="Shape" fill="#000000"></path>
    </g>
</svg>