<?xml version="1.0" encoding="UTF-8" standalone="no"?>
<svg width="64px" height="64px" viewBox="0 0 64 64" version="1.1" xmlns="http://www.w3.org/2000/svg" xmlns:xlink="http://www.w3.org/1999/xlink">
    <!-- Generator: Sketch 3.7.2 (28276) - http://www.bohemiancoding.com/sketch -->
    <title>net-wifi-protect</title>
    <desc>Created with Sketch.</desc>
    <defs></defs>
    <g id="64px-Line" stroke="none" stroke-width="1" fill="none" fill-rule="evenodd">
        <g id="net-wifi-protect"></g>
        <path d="M59,36 C54.133,36 52.168,34.346 50.434,32.887 C50.158,32.655 49.89,32.428 49.619,32.215 C49.256,31.928 48.744,31.928 48.381,32.215 C48.11,32.428 47.841,32.654 47.565,32.888 C45.831,34.347 43.866,36 39,36 C38.448,36 38,36.447 38,37 L38,44.5 C38,52.925 43.766,58 49.162,59.941 C49.271,59.98 49.386,60 49.5,60 C49.614,60 49.729,59.98 49.838,59.941 C54.75,58.176 60,53.193 60,44.5 L60,37 C60,36.447 59.552,36 59,36 L59,36 Z M58,44.5 C58,51.954 53.672,56.291 49.501,57.932 C47.297,57.062 40,53.499 40,44.5 L40,37.978 C44.885,37.756 47.073,35.916 48.852,34.417 C48.901,34.376 48.951,34.334 49,34.293 C49.048,34.334 49.097,34.375 49.146,34.416 C50.926,35.914 53.113,37.756 58,37.978 L58,44.5 L58,44.5 Z" id="Shape" fill="#000000"></path>
        <path d="M5,46 C5.552,46 6,45.553 6,45 C6,24.598 22.598,8 43,8 C43.552,8 44,7.553 44,7 C44,6.447 43.552,6 43,6 C21.495,6 4,23.495 4,45 C4,45.553 4.448,46 5,46 L5,46 Z" id="Shape" fill="#000000"></path>
        <path d="M43,15 C26.458,15 13,28.458 13,45 C13,45.553 13.448,46 14,46 C14.552,46 15,45.553 15,45 C15,29.561 27.561,17 43,17 C43.552,17 44,16.553 44,16 C44,15.447 43.552,15 43,15 L43,15 Z" id="Shape" fill="#000000"></path>
        <path d="M43,24 C31.42,24 22,33.421 22,45 C22,45.553 22.448,46 23,46 C23.552,46 24,45.553 24,45 C24,34.523 32.523,26 43,26 C43.552,26 44,25.553 44,25 C44,24.447 43.552,24 43,24 L43,24 Z" id="Shape" fill="#000000"></path>
    </g>
</svg>