<?xml version="1.0" encoding="UTF-8" standalone="no"?>
<svg width="64px" height="64px" viewBox="0 0 64 64" version="1.1" xmlns="http://www.w3.org/2000/svg" xmlns:xlink="http://www.w3.org/1999/xlink">
    <!-- Generator: Sketch 3.7.2 (28276) - http://www.bohemiancoding.com/sketch -->
    <title>net-wifi-computer</title>
    <desc>Created with Sketch.</desc>
    <defs></defs>
    <g id="64px-Line" stroke="none" stroke-width="1" fill="none" fill-rule="evenodd">
        <g id="net-wifi-computer"></g>
        <circle id="Oval" fill="#000000" cx="32" cy="28" r="2"></circle>
        <path d="M32,22 C30.397,22 28.891,22.624 27.757,23.758 C27.366,24.149 27.366,24.781 27.757,25.172 C28.148,25.563 28.78,25.563 29.171,25.172 C30.683,23.66 33.317,23.66 34.828,25.172 C35.023,25.367 35.279,25.465 35.535,25.465 C35.791,25.465 36.047,25.367 36.242,25.172 C36.633,24.781 36.633,24.149 36.242,23.758 C35.109,22.624 33.603,22 32,22 L32,22 Z" id="Shape" fill="#000000"></path>
        <path d="M24.929,20.929 C24.538,21.32 24.538,21.952 24.929,22.343 C25.32,22.734 25.952,22.734 26.343,22.343 C29.462,19.224 34.537,19.224 37.656,22.343 C37.851,22.538 38.107,22.636 38.363,22.636 C38.619,22.636 38.875,22.538 39.07,22.343 C39.461,21.952 39.461,21.32 39.07,20.929 C35.172,17.03 28.828,17.03 24.929,20.929 L24.929,20.929 Z" id="Shape" fill="#000000"></path>
        <path d="M23.515,19.515 C25.782,17.248 28.795,16 32,16 C35.205,16 38.219,17.248 40.485,19.515 C40.68,19.71 40.936,19.808 41.192,19.808 C41.448,19.808 41.704,19.71 41.899,19.515 C42.29,19.124 42.29,18.492 41.899,18.101 C39.255,15.456 35.74,14 32,14 C28.26,14 24.745,15.456 22.101,18.101 C21.71,18.492 21.71,19.124 22.101,19.515 C22.492,19.906 23.124,19.905 23.515,19.515 L23.515,19.515 Z" id="Shape" fill="#000000"></path>
        <path d="M56,6 L8,6 C5.794,6 4,7.794 4,10 L4,44 C4,46.206 5.794,48 8,48 L56,48 C58.206,48 60,46.206 60,44 L60,10 C60,7.794 58.206,6 56,6 L56,6 Z M8,8 L56,8 C57.103,8 58,8.897 58,10 L58,36 L6,36 L6,10 C6,8.897 6.897,8 8,8 L8,8 Z M56,46 L8,46 C6.897,46 6,45.103 6,44 L6,38 L58,38 L58,44 C58,45.103 57.103,46 56,46 L56,46 Z" id="Shape" fill="#000000"></path>
        <circle id="Oval" fill="#000000" cx="32" cy="42" r="2"></circle>
        <path d="M39.976,54.88 C39.971,54.839 39.981,54.799 39.97,54.758 L38.97,50.758 C38.836,50.221 38.294,49.898 37.757,50.03 C37.221,50.164 36.896,50.707 37.029,51.242 L37.986,55.068 C37.949,55.586 37.527,56 37,56 L27,56 C26.473,56 26.051,55.586 26.014,55.068 L26.971,51.242 C27.105,50.707 26.779,50.164 26.243,50.03 C25.708,49.897 25.165,50.22 25.03,50.758 L24.03,54.758 C24.02,54.799 24.029,54.839 24.024,54.88 C24.019,54.921 24,54.957 24,55 C24,55.044 24.011,55.084 24.013,55.128 C24.015,55.142 24.015,55.155 24.017,55.169 C24.107,56.743 25.403,58 27,58 L37,58 C38.596,58 39.893,56.743 39.983,55.169 C39.985,55.155 39.985,55.142 39.987,55.128 C39.989,55.085 40,55.044 40,55 C40,54.958 39.981,54.921 39.976,54.88 L39.976,54.88 Z" id="Shape" fill="#000000"></path>
    </g>
</svg>