<?xml version="1.0" encoding="UTF-8" standalone="no"?>
<svg width="64px" height="64px" viewBox="0 0 64 64" version="1.1" xmlns="http://www.w3.org/2000/svg" xmlns:xlink="http://www.w3.org/1999/xlink">
    <!-- Generator: Sketch 3.7.2 (28276) - http://www.bohemiancoding.com/sketch -->
    <title>peo-fighter-pilot</title>
    <desc>Created with Sketch.</desc>
    <defs></defs>
    <g id="64px-Glyph" stroke="none" stroke-width="1" fill="none" fill-rule="evenodd">
        <g id="peo-fighter-pilot" fill="#000000">
            <path d="M48,54.877 L48,47 C48,46.447 47.553,46 47,46 C46.447,46 46,46.447 46,47 L46,55.33 C45.964,55.368 46.03,55.393 46,55.436 C45.705,55.869 44.93,56.242 44,56.561 L44,36.635 C51.27,40.206 54,46.77 54,52 C54,53.457 51.924,54.442 48,54.877 L48,54.877 Z M40,50 L42,50 L42,48 L40,48 L40,50 Z M38,25.832 C38.687,25.742 39.437,25.613 40.104,25.432 L40.039,26.255 L38,27.341 L38,25.832 Z M38,42 L35,42 C33.346,42 32,40.654 32,39 L32,34.936 C34.172,34.678 35.777,33.598 36.777,32.287 C37.204,33.186 37.692,33.844 38,34.208 L38,42 Z M38,46 L24,46 L24,34.285 C24.281,33.952 24.813,33.248 25.266,32.252 C26.25,33.576 27.84,34.671 30,34.934 L30,39 C30,41.757 32.243,44 35,44 L38,44 L38,46 Z M38,57.67 C35.765,57.892 33.318,58 31.008,58 C28.654,58 26.221,57.889 24,57.672 L24,52 L38,52 L38,57.67 Z M21.961,26.255 L21.896,25.432 C22.563,25.613 23.313,25.742 24,25.832 L24,27.341 L21.961,26.255 Z M31,30 C30.447,30 30,30.447 30,31 L30,32.913 C27.281,32.459 26.083,30.212 26.083,29.002 C26.117,28.285 28.359,26.124 31.01,24.217 C33.686,26.085 36,28.284 36,29 C36,30.254 34.809,32.481 32,32.918 L32,31 C32,30.447 31.553,30 31,30 L31,30 Z M19.804,13.02 C19.308,13.119 18.963,13.573 19.003,14.078 L19.737,23.473 C18.612,21.522 18,19.308 18,17 C18,9.832 23.832,4 31,4 C38.168,4 44,9.832 44,17 C44,19.307 43.388,21.522 42.264,23.473 L42.997,14.078 C43.037,13.573 42.692,13.119 42.196,13.02 C41.988,12.977 37.029,12 31,12 C24.971,12 20.012,12.977 19.804,13.02 L19.804,13.02 Z M20,50 L22,50 L22,48 L20,48 L20,50 Z M18,56.621 C17.066,56.331 16.375,55.996 16,55.617 L16,47 C16,46.447 15.553,46 15,46 C14.447,46 14,46.447 14,47 L14,54.9 C10.028,54.489 8,53.52 8,52 C8,46.768 10.73,40.211 18,36.639 L18,56.621 Z M39.551,32.945 C39.179,32.508 38.244,31.244 38.049,29.581 L41.473,27.758 C41.666,27.654 41.795,27.49 41.885,27.308 C44.535,24.51 46,20.863 46,17 C46,8.729 39.271,2 31,2 C22.729,2 16,8.729 16,17 C16,20.863 17.465,24.508 20.113,27.305 C20.203,27.488 20.333,27.654 20.527,27.758 L23.953,29.582 C23.768,31.236 22.887,32.486 22.523,32.932 C21.123,33.264 19.816,33.672 18.617,34.157 C18.614,34.158 18.611,34.159 18.607,34.161 C9.393,37.9 6,45.787 6,52 C6,56.106 11.982,56.77 14.517,56.967 C17.219,59.694 26.85,60 31.008,60 C33.871,60 39.376,59.846 43.333,58.81 C43.355,58.802 43.379,58.801 43.4,58.791 C45.045,58.354 46.423,57.768 47.211,56.967 C49.816,56.767 56,56.094 56,52 C56,44.992 51.674,35.852 39.551,32.945 L39.551,32.945 Z" id="Fill-43"></path>
        </g>
    </g>
</svg>