<?xml version="1.0" encoding="UTF-8" standalone="no"?>
<svg width="64px" height="64px" viewBox="0 0 64 64" version="1.1" xmlns="http://www.w3.org/2000/svg" xmlns:xlink="http://www.w3.org/1999/xlink">
    <!-- Generator: Sketch 3.7.2 (28276) - http://www.bohemiancoding.com/sketch -->
    <title>peo-lawyer-male</title>
    <desc>Created with Sketch.</desc>
    <defs></defs>
    <g id="64px-Glyph" stroke="none" stroke-width="1" fill="none" fill-rule="evenodd">
        <g id="peo-lawyer-male" fill="#000000">
            <path d="M33.3965,36 L36.8825,32.493 C37.2855,33.285 37.7175,33.873 38.0005,34.208 L38.0005,36 L33.3965,36 Z M33.6745,49.721 L32.0395,44 L33.2555,39.747 L37.5895,48.416 L33.6745,49.721 Z M28.3255,49.721 L24.4105,48.416 L29.6185,38 L31.0005,38 L31.6735,38 L28.3255,49.721 Z M24.0005,34.284 C24.2555,33.982 24.7135,33.368 25.1375,32.513 L28.6035,36 L24.0005,36 L24.0005,34.284 Z M23.0005,12 C22.4475,12 22.0005,12.447 22.0005,13 L22.0005,22 L19.0005,22 C18.7505,22 18.0005,20.936 18.0005,19 C18.0005,17.064 18.7505,16 19.0005,16 C19.5525,16 20.0005,15.553 20.0005,15 C20.0005,8.935 24.9345,4 31.0005,4 C37.0655,4 42.0005,8.935 42.0005,15 C42.0005,15.553 42.4475,16 43.0005,16 C43.2495,16 44.0005,17.064 44.0005,19 C44.0005,20.936 43.2495,22 43.0005,22 L40.0005,22 L40.0005,13 C40.0005,12.448 39.5515,12 39.0005,12 L23.0005,12 Z M31.0075,30 C28.3705,30 25.5665,27.109 24.0005,22.797 L24.0005,14 L38.0005,14 L38.0075,22.818 C36.4395,27.119 33.6415,30 31.0075,30 L31.0075,30 Z M25.9465,29.683 L25.9465,29.683 C27.4925,31.164 29.2435,32 31.0075,32 C32.7685,32 34.5145,31.168 36.0565,29.693 C36.0565,29.695 36.0575,29.696 36.0575,29.697 C36.0805,29.929 36.1045,30.158 36.1475,30.377 L31.0005,35.578 L25.8565,30.382 C25.8995,30.157 25.9235,29.922 25.9465,29.683 L25.9465,29.683 Z M39.5505,32.945 C39.5065,32.893 39.4495,32.822 39.3905,32.747 C39.3485,32.693 39.3015,32.628 39.2545,32.563 C39.2195,32.515 39.1865,32.472 39.1485,32.417 C39.0555,32.281 38.9565,32.128 38.8575,31.958 C38.8445,31.936 38.8325,31.91 38.8195,31.888 C38.7345,31.738 38.6495,31.575 38.5685,31.403 C38.5445,31.351 38.5215,31.295 38.4985,31.242 C38.4315,31.089 38.3695,30.927 38.3115,30.76 C38.2875,30.69 38.2635,30.62 38.2425,30.548 C38.1905,30.378 38.1495,30.201 38.1125,30.02 C38.0985,29.946 38.0795,29.874 38.0675,29.798 C38.0275,29.541 38.0005,29.276 38.0005,29 L38.0005,27.318 C38.6415,26.337 39.2135,25.225 39.6955,24 L43.0005,24 C44.7105,24 46.0005,21.851 46.0005,19 C46.0005,16.721 45.1685,14.91 43.9625,14.268 C43.5805,7.441 37.9205,2 31.0005,2 C24.0795,2 18.4195,7.441 18.0375,14.268 C16.8315,14.91 16.0005,16.721 16.0005,19 C16.0005,21.851 17.2895,24 19.0005,24 L22.3205,24 C22.7975,25.215 23.3655,26.318 24.0005,27.294 L24.0005,29 C24.0005,29.276 23.9745,29.541 23.9355,29.798 C23.9245,29.873 23.9065,29.944 23.8925,30.017 C23.8575,30.199 23.8185,30.378 23.7685,30.548 C23.7485,30.618 23.7275,30.686 23.7055,30.754 C23.6485,30.925 23.5875,31.091 23.5215,31.248 C23.5015,31.296 23.4825,31.346 23.4615,31.393 C23.3775,31.58 23.2895,31.757 23.2005,31.918 C23.1965,31.927 23.1915,31.937 23.1865,31.946 C23.0905,32.119 22.9935,32.274 22.9025,32.413 C22.8725,32.458 22.8455,32.495 22.8165,32.536 C22.7655,32.61 22.7165,32.68 22.6715,32.741 C22.6175,32.811 22.5665,32.879 22.5245,32.93 C22.5245,32.93 22.5235,32.931 22.5235,32.932 C10.3445,35.824 6.0005,44.977 6.0005,52 C6.0005,56.106 11.9815,56.77 14.5165,56.967 C17.2185,59.694 26.8495,60 31.0075,60 C35.0835,60 44.5255,59.694 47.2105,56.967 C49.8165,56.767 56.0005,56.094 56.0005,52 C56.0005,44.992 51.6735,35.852 39.5505,32.945 L39.5505,32.945 Z" id="Fill-15"></path>
        </g>
    </g>
</svg>