<?xml version="1.0" encoding="UTF-8" standalone="no"?>
<svg width="64px" height="64px" viewBox="0 0 64 64" version="1.1" xmlns="http://www.w3.org/2000/svg" xmlns:xlink="http://www.w3.org/1999/xlink">
    <!-- Generator: Sketch 3.7.2 (28276) - http://www.bohemiancoding.com/sketch -->
    <title>peo-office-worker-male</title>
    <desc>Created with Sketch.</desc>
    <defs></defs>
    <g id="64px-Glyph" stroke="none" stroke-width="1" fill="none" fill-rule="evenodd">
        <g id="peo-office-worker-male" fill="#000000">
            <path d="M48,54.877 L48,45 C48,44.447 47.553,44 47,44 C46.447,44 46,44.447 46,45 L46,55.33 C45.964,55.368 46.03,55.393 46,55.436 C44.983,56.928 39.448,57.728 33.969,57.94 L32.07,42.51 L34.266,40.315 L35.493,41.736 C35.686,41.959 35.963,42.083 36.25,42.083 C36.314,42.083 36.377,42.077 36.441,42.065 C36.793,41.996 37.081,41.744 37.197,41.405 L39.387,34.971 C50.144,37.686 54,45.783 54,52 C54,53.457 51.924,54.442 48,54.877 L48,54.877 Z M16,55.623 L16,45 C16,44.447 15.553,44 15,44 C14.447,44 14,44.447 14,45 L14,54.9 C10.028,54.489 8,53.52 8,52 C8,45.775 11.866,37.68 22.646,34.967 L24.977,41.423 C25.098,41.76 25.391,42.006 25.743,42.067 C26.096,42.129 26.455,41.999 26.685,41.725 L27.805,40.385 L29.93,42.51 L28.031,57.94 C22.557,57.73 17.311,56.943 16,55.623 L16,55.623 Z M31,32 C32.756,32 34.498,31.174 36.037,29.708 C36.076,30.09 36.148,30.473 36.249,30.853 L31,33.849 L25.76,30.853 C25.856,30.474 25.927,30.092 25.964,29.709 C27.503,31.175 29.245,32 31,32 L31,32 Z M23.457,22.111 C23.092,21.767 22,20.284 22,19 C22,17.289 22.309,17 23,17 C27.639,17 31.119,14.297 32.754,12.723 C33.736,14.39 35.785,17 39,17 C39.691,17 40,17.289 40,19 C40,20.285 38.91,21.767 38.545,22.109 C38.322,22.224 38.145,22.419 38.058,22.666 C36.501,27.053 33.664,30 31,30 C28.336,30 25.499,27.053 23.942,22.666 C23.855,22.42 23.679,22.225 23.457,22.111 L23.457,22.111 Z M32.551,35.267 L37.583,32.394 L37.92,33.071 L35.865,39.107 L32.551,35.267 Z M24.422,32.393 L29.467,35.275 L26.267,39.105 L24.086,33.063 L24.422,32.393 Z M39.98,33.06 C39.992,32.887 39.975,32.714 39.896,32.556 L38.904,30.556 C38.781,30.309 38.562,30.124 38.299,30.043 C38.236,30.024 38.172,30.032 38.107,30.025 C38.039,29.682 38,29.339 38,29 L38,27.309 C38.708,26.223 39.335,24.981 39.846,23.602 C40.893,22.714 42,20.53 42,19 C42,18.434 41.944,17.938 41.853,17.492 C41.938,17.344 42,17.183 42,17 C42,8.859 37.888,4 31,4 C24.112,4 20,8.859 20,17 C20,17.183 20.063,17.344 20.148,17.492 C20.056,17.938 20,18.434 20,19 C20,20.53 21.107,22.714 22.154,23.602 C22.664,24.981 23.292,26.223 24,27.309 L24,29 C24,29.34 23.964,29.684 23.898,30.026 C23.836,30.032 23.771,30.024 23.711,30.043 C23.447,30.122 23.229,30.307 23.105,30.553 L22.105,32.553 C22.025,32.714 22.008,32.89 22.02,33.066 C10.232,36.091 6,45.076 6,52 C6,56.106 11.982,56.77 14.517,56.967 C17.219,59.694 26.85,60 31.008,60 C35.083,60 44.525,59.694 47.211,56.967 C49.816,56.767 56,56.094 56,52 C56,45.078 51.77,36.082 39.98,33.06 L39.98,33.06 Z" id="Fill-101"></path>
        </g>
    </g>
</svg>