<?xml version="1.0" encoding="UTF-8" standalone="no"?>
<svg width="64px" height="64px" viewBox="0 0 64 64" version="1.1" xmlns="http://www.w3.org/2000/svg" xmlns:xlink="http://www.w3.org/1999/xlink">
    <!-- Generator: Sketch 3.7.2 (28276) - http://www.bohemiancoding.com/sketch -->
    <title>peo-surgeon</title>
    <desc>Created with Sketch.</desc>
    <defs></defs>
    <g id="64px-Glyph" stroke="none" stroke-width="1" fill="none" fill-rule="evenodd">
        <g id="peo-surgeon" fill="#000000">
            <path d="M24,49 C24,48.448 23.551,48 23,48 C22.449,48 22,48.448 22,49 C22,49.552 22.449,50 23,50 C23.551,50 24,49.552 24,49" id="Fill-85"></path>
            <path d="M31,41.4951 L24.277,33.9321 C24.599,33.5021 25.018,32.8361 25.361,32.0001 C25.635,31.3331 25.862,30.5591 25.945,29.6911 C27.489,31.1681 29.238,32.0001 31,32.0001 C32.763,32.0001 34.512,31.1671 36.057,29.6881 C36.143,30.5571 36.377,31.3321 36.66,32.0001 C37.005,32.8121 37.425,33.4651 37.758,33.9001 L31,41.4951 Z M22,18.4511 L22,17.0001 C22,16.7021 22.012,16.3591 22.03,16.0001 L27.025,16.0001 C27.94,17.2071 29.373,18.0001 31,18.0001 C32.627,18.0001 34.06,17.2071 34.975,16.0001 L39.97,16.0001 C39.988,16.3591 40,16.7021 40,17.0001 L40,18.4511 C38.591,19.3311 34.065,22.0001 31,22.0001 C27.935,22.0001 23.409,19.3311 22,18.4511 L22,18.4511 Z M34,13.0001 C34,14.6541 32.654,16.0001 31,16.0001 C30.001,16.0001 29.12,15.5041 28.575,14.7511 C28.524,14.5601 28.432,14.3921 28.289,14.2641 C28.108,13.8781 28,13.4531 28,13.0001 C28,11.3461 29.346,10.0001 31,10.0001 C32.654,10.0001 34,11.3461 34,13.0001 L34,13.0001 Z M42,33.6611 L42,34.3651 C42,36.8571 41.432,40.2331 41.145,41.7841 C43.265,42.7911 44.449,45.1931 43.84,47.5491 L42.586,52.3901 C42.585,52.3921 42.584,52.3931 42.583,52.3941 C42.353,53.2751 41.558,53.8881 40.648,53.8881 C40.48,53.8881 40.314,53.8671 40.15,53.8251 C39.08,53.5461 38.437,52.4521 38.713,51.3871 C38.982,50.3421 40.098,49.6741 41.15,49.9521 L41.902,47.0471 C42.318,45.4451 41.353,43.8061 39.752,43.3911 C38.975,43.1901 38.168,43.3031 37.478,43.7091 C36.787,44.1161 36.296,44.7671 36.096,45.5431 L35.343,48.4471 C35.859,48.5811 36.294,48.9081 36.565,49.3681 C36.836,49.8281 36.912,50.3671 36.777,50.8851 C36.547,51.7681 35.751,52.3841 34.842,52.3841 C34.673,52.3841 34.505,52.3621 34.342,52.3201 C33.273,52.0441 32.631,50.9511 32.904,49.8841 L32.904,49.8811 L34.158,45.0411 C34.494,43.7481 35.312,42.6631 36.463,41.9861 C37.303,41.4921 38.247,41.2661 39.198,41.3051 C39.478,39.7681 40,36.6131 40,34.3651 L40,33.0721 C39.847,33.0331 39.707,32.9821 39.551,32.9451 C39.397,32.7631 39.141,32.4371 38.881,32.0001 C38.445,31.2681 38,30.2201 38,29.0001 L38,27.3091 C38.708,26.2231 39.335,24.9811 39.846,23.6021 C40.892,22.7141 42,20.5301 42,19.0001 L42,17.0001 C42,8.8591 37.888,4.0001 31,4.0001 C24.112,4.0001 20,8.8591 20,17.0001 L20,19.0001 C20,20.5301 21.108,22.7141 22.154,23.6021 C22.665,24.9811 23.292,26.2231 24,27.3091 L24,29.0001 C24,30.2251 23.573,31.2691 23.157,32.0001 L23.156,32.0001 C22.913,32.4281 22.673,32.7481 22.523,32.9321 C22.342,32.9751 22.178,33.0321 22,33.0781 L22,34.3271 C22,39.6331 23.066,44.3571 23.498,46.0511 C24.914,46.2891 26,47.5161 26,49.0001 C26,50.6541 24.654,52.0001 23,52.0001 C21.346,52.0001 20,50.6541 20,49.0001 C20,47.8851 20.618,46.9221 21.522,46.4041 C21.043,44.5121 20,39.7701 20,34.3271 L20,33.6681 C9.748,37.1541 6,45.4881 6,52.0001 C6,55.8491 11.254,56.6741 14,56.9241 L14,47.0001 C14,46.4471 14.447,46.0001 15,46.0001 C15.553,46.0001 16,46.4471 16,47.0001 L16,57.9551 C19.772,59.7681 27.421,60.0001 31.008,60.0001 C34.605,60.0001 42.378,59.7591 46,57.8271 L46,47.0001 C46,46.4471 46.447,46.0001 47,46.0001 C47.553,46.0001 48,46.4471 48,47.0001 L48,56.8971 C50.885,56.6161 56,55.7271 56,52.0001 C56,45.4881 52.255,37.1431 42,33.6611 L42,33.6611 Z" id="Fill-87"></path>
            <path d="M31,14 C31.26,14 31.52,13.89 31.71,13.71 C31.89,13.52 32,13.27 32,13 C32,12.74 31.89,12.479 31.71,12.29 C31.34,11.92 30.67,11.92 30.29,12.29 C30.1,12.479 30,12.74 30,13 C30,13.26 30.109,13.52 30.29,13.71 C30.479,13.89 30.74,14 31,14" id="Fill-89"></path>
        </g>
    </g>
</svg>