<?xml version="1.0" encoding="UTF-8" standalone="no"?>
<svg width="64px" height="64px" viewBox="0 0 64 64" version="1.1" xmlns="http://www.w3.org/2000/svg" xmlns:xlink="http://www.w3.org/1999/xlink">
    <!-- Generator: Sketch 3.7.2 (28276) - http://www.bohemiancoding.com/sketch -->
    <title>peo-evening-dress-male</title>
    <desc>Created with Sketch.</desc>
    <defs></defs>
    <g id="64px-Glyph" stroke="none" stroke-width="1" fill="none" fill-rule="evenodd">
        <g id="peo-evening-dress-male" fill="#000000">
            <path d="M34.5527,37.8945 C34.6937,37.9645 34.8477,37.9995 34.9997,37.9995 C35.1827,37.9995 35.3647,37.9505 35.5257,37.8505 C35.8207,37.6675 35.9997,37.3465 35.9997,36.9995 L35.9997,32.9995 C35.9997,32.6535 35.8207,32.3325 35.5257,32.1495 C35.2307,31.9655 34.8637,31.9515 34.5527,32.1055 L30.9997,33.8815 L27.4477,32.1055 C27.1377,31.9515 26.7697,31.9655 26.4747,32.1495 C26.1797,32.3325 25.9997,32.6535 25.9997,32.9995 L25.9997,36.9995 C25.9997,37.3465 26.1797,37.6675 26.4747,37.8505 C26.7697,38.0345 27.1377,38.0485 27.4477,37.8945 L30.9997,36.1185 L34.5527,37.8945 Z" id="Fill-31"></path>
            <path d="M30.29,40.29 C30.109,40.479 30,40.74 30,41 C30,41.26 30.109,41.52 30.29,41.71 C30.481,41.89 30.74,42 31,42 C31.26,42 31.52,41.89 31.71,41.71 C31.89,41.52 32,41.26 32,41 C32,40.74 31.89,40.479 31.71,40.29 C31.33,39.92 30.66,39.93 30.29,40.29" id="Fill-33"></path>
            <path d="M30.29,46.29 C30.109,46.479 30,46.74 30,47 C30,47.26 30.109,47.52 30.29,47.71 C30.481,47.89 30.74,48 31,48 C31.26,48 31.52,47.89 31.71,47.71 C31.89,47.52 32,47.27 32,47 C32,46.74 31.89,46.479 31.71,46.29 C31.34,45.92 30.67,45.92 30.29,46.29" id="Fill-35"></path>
            <path d="M30.29,52.29 C30.109,52.479 30,52.74 30,53 C30,53.26 30.109,53.52 30.29,53.71 C30.481,53.89 30.74,54 31,54 C31.26,54 31.52,53.89 31.71,53.71 C31.89,53.52 32,53.26 32,53 C32,52.74 31.89,52.479 31.71,52.29 C31.34,51.92 30.66,51.92 30.29,52.29" id="Fill-37"></path>
            <path d="M43.9229,51.3818 C43.8209,51.6268 43.6269,51.8208 43.3819,51.9228 C43.2599,51.9738 43.1309,51.9998 42.9999,51.9998 L35.7079,51.9998 L36.6939,47.8918 L38.2929,46.2928 C38.6839,45.9028 39.3169,45.9028 39.7069,46.2928 L43.7059,50.2918 C43.7989,50.3848 43.8719,50.4948 43.9229,50.6178 C44.0239,50.8618 44.0239,51.1378 43.9229,51.3818 M30.9999,29.9998 C28.3359,29.9998 25.4989,27.0528 23.9429,22.6658 C23.8559,22.4198 23.6789,22.2248 23.4569,22.1108 C23.0919,21.7668 21.9999,20.2838 21.9999,18.9998 C21.9999,17.2888 22.3089,16.9998 22.9999,16.9998 C27.6389,16.9998 31.1189,14.2968 32.7539,12.7228 C33.7359,14.3898 35.7849,16.9998 38.9999,16.9998 C39.6919,16.9998 39.9999,17.2888 39.9999,18.9998 C39.9999,20.2848 38.9099,21.7668 38.5449,22.1098 C38.3219,22.2238 38.1449,22.4188 38.0579,22.6658 C36.5009,27.0528 33.6639,29.9998 30.9999,29.9998 M39.5509,32.9458 C39.1369,32.4568 37.9999,30.9478 37.9999,28.9998 L37.9999,27.3088 C38.7079,26.2228 39.3349,24.9818 39.8459,23.6018 C40.8929,22.7138 41.9999,20.5308 41.9999,18.9998 C41.9999,18.4338 41.9439,17.9388 41.8529,17.4918 C41.9379,17.3438 41.9999,17.1828 41.9999,16.9998 C41.9999,8.8598 37.8879,3.9998 30.9999,3.9998 C24.1119,3.9998 19.9999,8.8598 19.9999,16.9998 C19.9999,17.1828 20.0629,17.3438 20.1479,17.4918 C20.0559,17.9388 19.9999,18.4338 19.9999,18.9998 C19.9999,20.5308 21.1079,22.7138 22.1539,23.6018 C22.6639,24.9818 23.2919,26.2228 23.9999,27.3088 L23.9999,28.9998 C23.9999,30.9408 22.9279,32.4348 22.5239,32.9318 C10.3459,35.8238 5.9999,44.9768 5.9999,51.9998 C5.9999,55.8518 11.2559,56.6748 13.9999,56.9238 L13.9999,46.9998 C13.9999,46.4478 14.4469,45.9998 14.9999,45.9998 C15.5529,45.9998 15.9999,46.4478 15.9999,46.9998 L15.9999,57.9578 C19.1229,59.4568 24.8969,59.8728 28.8289,59.9708 C28.8859,59.9818 28.9409,59.9998 28.9989,59.9998 C29.0549,59.9998 29.1109,59.9898 29.1679,59.9808 C29.5289,59.9878 29.8689,59.9928 30.1909,59.9958 L24.0739,34.1938 C24.6029,33.5478 25.7329,31.9068 25.9449,29.6918 C27.4889,31.1678 29.2379,31.9998 30.9999,31.9998 C32.7629,31.9998 34.5119,31.1658 36.0569,29.6888 C36.2679,31.8168 37.3589,33.4298 37.9399,34.1368 L31.8089,59.9958 C32.1299,59.9918 32.4689,59.9868 32.8279,59.9798 C32.8859,59.9898 32.9439,59.9998 33.0009,59.9998 C33.0619,59.9998 33.1169,59.9808 33.1759,59.9708 C37.1459,59.8678 42.9979,59.4298 45.9999,57.8228 L45.9999,46.9998 C45.9999,46.4478 46.4469,45.9998 46.9999,45.9998 C47.5529,45.9998 47.9999,46.4478 47.9999,46.9998 L47.9999,56.8968 C50.8869,56.6148 55.9999,55.7228 55.9999,51.9998 C55.9999,44.9918 51.6739,35.8518 39.5509,32.9458" id="Fill-39"></path>
        </g>
    </g>
</svg>