<?xml version="1.0" encoding="UTF-8" standalone="no"?>
<svg width="64px" height="64px" viewBox="0 0 64 64" version="1.1" xmlns="http://www.w3.org/2000/svg" xmlns:xlink="http://www.w3.org/1999/xlink">
    <!-- Generator: Sketch 3.7.2 (28276) - http://www.bohemiancoding.com/sketch -->
    <title>peo-nurse</title>
    <desc>Created with Sketch.</desc>
    <defs></defs>
    <g id="64px-Glyph" stroke="none" stroke-width="1" fill="none" fill-rule="evenodd">
        <g id="peo-nurse" fill="#000000">
            <path d="M29,11 L30,11 L30,12 C30,12.553 30.447,13 31,13 C31.553,13 32,12.553 32,12 L32,11 L33,11 C33.553,11 34,10.553 34,10 C34,9.447 33.553,9 33,9 L32,9 L32,8 C32,7.447 31.553,7 31,7 C30.447,7 30,7.447 30,8 L30,9 L29,9 C28.447,9 28,9.447 28,10 C28,10.553 28.447,11 29,11" id="Fill-91"></path>
            <path d="M40,53 C40,54.654 38.654,56 37,56 C35.346,56 34,54.654 34,53 C34,51.698 34.839,50.599 36,50.185 L36,48 L35,48 C34.447,48 34,47.553 34,47 C34,46.447 34.447,46 35,46 L39,46 C39.553,46 40,46.447 40,47 C40,47.553 39.553,48 39,48 L38,48 L38,50.185 C39.161,50.599 40,51.698 40,53 L40,53 Z M31,41.393 L26.391,35.59 C26.864,35.066 27.43,34.221 27.749,33.06 C28.798,33.671 29.9,34 31.008,34 C32.136,34 33.258,33.655 34.325,33.022 C34.631,34.162 35.178,35.01 35.647,35.543 L31,41.393 Z M23.008,19 C26.538,19 29.395,17.418 31.254,16 L33.643,16 C35.165,17.957 37.008,19 39.008,19 C39.699,19 40.008,19.289 40.008,21 C40.008,22.285 38.917,23.767 38.552,24.109 C38.33,24.224 38.152,24.419 38.065,24.666 C36.509,29.053 33.673,32 31.008,32 C28.343,32 25.507,29.053 23.95,24.666 C23.944,24.65 23.932,24.64 23.926,24.625 C23.887,24.531 23.836,24.446 23.772,24.37 C23.755,24.348 23.739,24.326 23.72,24.306 C23.645,24.228 23.561,24.16 23.465,24.111 C23.099,23.766 22.008,22.283 22.008,21 C22.008,19.289 22.316,19 23.008,19 L23.008,19 Z M31,6 C34.977,6 37.048,6.923 37.866,7.412 L36.219,14 L25.781,14 L24.775,9.977 C24.77,9.836 24.737,9.697 24.673,9.569 L24.134,7.413 C24.961,6.919 27.031,6 31,6 L31,6 Z M45.952,37.714 C45.943,37.685 45.947,37.656 45.936,37.629 C42.06,27.94 42.008,19.088 42.008,19 C42.008,15.224 41.076,12.066 39.329,9.805 L39.97,7.242 C40.056,6.901 39.955,6.541 39.707,6.293 C39.473,6.059 37.234,4 31,4 C24.766,4 22.527,6.059 22.293,6.293 C22.045,6.541 21.944,6.901 22.03,7.242 L22.675,9.819 C20.935,12.08 20.008,15.231 20.008,19 C20.008,19.088 19.955,27.94 16.079,37.629 C16.068,37.655 16.072,37.684 16.065,37.71 C8.954,42.356 8,50.176 8,54 C8,57.852 13.258,58.676 16,58.924 L16,47 C16,46.447 16.447,46 17,46 C17.553,46 18,46.447 18,47 L18,60.018 C21.457,61.772 27.951,62 31.008,62 C34.063,62 40.548,61.772 44,60.014 L44,47 C44,46.447 44.447,46 45,46 C45.553,46 46,46.447 46,47 L46,58.924 C48.744,58.674 54,57.848 54,54 C54,50.18 53.049,42.361 45.952,37.714 L45.952,37.714 Z" id="Fill-93"></path>
        </g>
    </g>
</svg>