<?xml version="1.0" encoding="UTF-8" standalone="no"?>
<svg width="64px" height="64px" viewBox="0 0 64 64" version="1.1" xmlns="http://www.w3.org/2000/svg" xmlns:xlink="http://www.w3.org/1999/xlink">
    <!-- Generator: Sketch 3.7.2 (28276) - http://www.bohemiancoding.com/sketch -->
    <title>peo-soldier</title>
    <desc>Created with Sketch.</desc>
    <defs></defs>
    <g id="64px-Glyph" stroke="none" stroke-width="1" fill="none" fill-rule="evenodd">
        <g id="peo-soldier" fill="#000000">
            <path d="M48.0078,54.877 L48.0078,47 C48.0078,46.464 47.5838,46.035 47.0538,46.01 L47.0538,46.009 C46.7538,45.874 45.9998,44.484 45.9998,42 C45.9998,40.467 46.2768,39.074 46.5848,38.135 C48.5678,39.518 50.0838,41.164 51.2178,42.904 L49.4108,42.089 C48.9028,41.857 48.3138,42.086 48.0888,42.589 C47.8608,43.092 48.0848,43.685 48.5888,43.911 L52.7318,45.78 C52.9568,46.33 53.1458,46.879 53.3068,47.424 L50.4188,46.092 C49.9148,45.86 49.3228,46.08 49.0918,46.581 C48.8608,47.083 49.0798,47.677 49.5808,47.908 L53.8408,49.873 C53.9438,50.609 53.9998,51.324 53.9998,52 C53.9998,53.457 51.9318,54.442 48.0078,54.877 M30.9998,37 C27.6758,37 25.0188,35.848 23.4768,34.733 C23.5958,34.683 23.7068,34.609 23.8028,34.511 C23.8858,34.425 25.6778,32.506 25.9458,29.684 C27.4918,31.164 29.2428,32 31.0078,32 C32.7678,32 34.5148,31.17 36.0568,29.695 C36.3398,32.523 38.2058,34.452 38.2928,34.538 C38.3698,34.615 38.4628,34.666 38.5548,34.712 C37.0168,35.833 34.3448,37 30.9998,37 M23.9498,22.666 C23.8628,22.42 23.6868,22.225 23.4648,22.11 C23.1808,21.844 22.4458,20.876 22.1438,19.833 L23.6768,16 L38.3228,16 L39.8648,19.856 C39.5588,20.891 38.8328,21.846 38.5518,22.109 C38.3298,22.224 38.1528,22.42 38.0658,22.666 C36.5088,27.053 33.6728,30 31.0078,30 C28.3428,30 25.5068,27.053 23.9498,22.666 M14.9458,46.009 C14.9518,46.007 14.9718,46 14.9998,46 L14.9998,46.002 C14.4508,46.006 14.0078,46.45 14.0078,47 L14.0078,54.9 C10.0358,54.488 7.9998,53.52 7.9998,52 C7.9998,47.707 9.9748,41.938 15.4158,38.141 C15.7248,39.079 15.9998,40.47 15.9998,42 C15.9998,44.484 15.2458,45.874 14.9458,46.009 M47.8218,36.558 C47.8898,36.459 47.9458,36.352 47.9738,36.23 C48.0798,35.778 47.8618,35.313 47.4468,35.106 L41.4468,32.106 C41.1368,31.951 40.7688,31.966 40.4748,32.149 C40.1798,32.332 39.9998,32.653 39.9998,33 C39.9998,33.016 39.9908,33.036 39.9888,33.053 C39.8418,33.016 39.6958,32.976 39.5458,32.94 C39.1278,32.446 37.9998,30.94 37.9998,29 L37.9998,27.319 C38.2728,26.902 38.5318,26.463 38.7778,26 L42.9998,26 C43.1208,26 43.2358,25.971 43.3478,25.93 C43.3708,25.921 43.3938,25.914 43.4158,25.903 C43.5168,25.857 43.6108,25.796 43.6918,25.719 C43.7058,25.703 43.7178,25.686 43.7318,25.671 C43.7668,25.633 43.8028,25.598 43.8318,25.555 C43.9208,25.422 45.9998,22.266 45.9998,19 C45.9998,16.434 44.7398,15.058 43.9888,14.465 C43.7078,7.544 37.9888,2 30.9998,2 C24.0108,2 18.2918,7.544 18.0108,14.465 C17.2598,15.058 15.9998,16.434 15.9998,19 C15.9998,22.266 18.0788,25.422 18.1678,25.555 C18.1938,25.594 18.2288,25.623 18.2598,25.658 C18.2788,25.681 18.2968,25.704 18.3188,25.725 C18.4008,25.802 18.4918,25.865 18.5938,25.91 C18.6158,25.92 18.6408,25.924 18.6638,25.933 C18.7538,25.965 18.8468,25.982 18.9438,25.988 C18.9628,25.99 18.9798,26 18.9998,26 L23.2368,26 C23.4788,26.454 23.7338,26.887 23.9998,27.297 L23.9998,29 C23.9998,30.934 22.9348,32.425 22.5278,32.927 C22.3528,32.968 22.1838,33.014 22.0118,33.059 C22.0098,33.039 21.9998,33.018 21.9998,33 C21.9998,32.653 21.8208,32.332 21.5258,32.149 C21.2308,31.966 20.8618,31.951 20.5528,32.106 L14.5528,35.106 C14.1378,35.313 13.9198,35.778 14.0268,36.23 C14.0558,36.354 14.1118,36.462 14.1818,36.561 C8.1788,40.797 5.9998,47.215 5.9998,52 C5.9998,56.106 11.9818,56.77 14.5168,56.967 C17.2188,59.694 26.8498,60 31.0078,60 C35.0828,60 44.5258,59.694 47.2108,56.967 C49.8168,56.767 55.9998,56.094 55.9998,52 C55.9998,47.211 53.8218,40.79 47.8218,36.558" id="Fill-53"></path>
        </g>
    </g>
</svg>