<?xml version="1.0" encoding="UTF-8" standalone="no"?>
<svg width="64px" height="64px" viewBox="0 0 64 64" version="1.1" xmlns="http://www.w3.org/2000/svg" xmlns:xlink="http://www.w3.org/1999/xlink">
    <!-- Generator: Sketch 3.7.2 (28276) - http://www.bohemiancoding.com/sketch -->
    <title>peo-graduate-female</title>
    <desc>Created with Sketch.</desc>
    <defs></defs>
    <g id="64px-Glyph" stroke="none" stroke-width="1" fill="none" fill-rule="evenodd">
        <g id="peo-graduate-female" fill="#000000">
            <path d="M31.7471,51.6646 C31.7341,51.6796 31.7151,51.6846 31.7021,51.6976 C31.6861,51.7126 31.6801,51.7336 31.6641,51.7476 C31.6101,51.7956 31.5461,51.8206 31.4861,51.8546 C31.4481,51.8766 31.4161,51.9046 31.3761,51.9216 C31.2551,51.9706 31.1281,51.9996 31.0001,51.9996 C30.8721,51.9996 30.7461,51.9706 30.6251,51.9216 C30.5831,51.9046 30.5491,51.8746 30.5101,51.8526 C30.4511,51.8186 30.3891,51.7936 30.3361,51.7476 C30.3201,51.7336 30.3141,51.7136 30.3001,51.6986 C30.2851,51.6846 30.2651,51.6796 30.2521,51.6636 L17.0791,36.8296 C17.6941,36.5296 18.3341,36.2476 19.0111,35.9926 L31.0011,49.4946 L43.0041,35.9936 C43.6821,36.2486 44.3201,36.5326 44.9351,36.8326 L31.7471,51.6646 Z M25.2431,36.4246 C25.3861,36.4016 25.5251,36.3586 25.6521,36.2716 C25.7281,36.2186 27.1691,35.1686 27.7491,33.0606 C28.7991,33.6706 29.9001,33.9996 31.0081,33.9996 C32.1371,33.9996 33.2581,33.6546 34.3251,33.0216 C34.8981,35.1566 36.3541,36.2176 36.4311,36.2716 C36.5581,36.3586 36.6971,36.4016 36.8381,36.4236 L36.8351,36.4446 C36.8441,36.4456 36.8521,36.4486 36.8611,36.4496 L31.0021,41.6606 L25.1721,36.4496 C25.1971,36.4456 25.2201,36.4396 25.2451,36.4356 L25.2431,36.4246 Z M22.0081,18.9996 C22.0081,18.6656 22.0331,18.3506 22.0491,18.0286 C25.9541,18.3136 29.6621,21.1036 30.2271,21.6346 C30.2371,21.6466 30.2531,21.6516 30.2631,21.6616 C30.3241,21.7316 30.3991,21.7826 30.4781,21.8316 C30.5151,21.8556 30.5471,21.8876 30.5881,21.9066 C30.7151,21.9636 30.8511,21.9996 31.0001,21.9996 C31.1481,21.9996 31.2851,21.9636 31.4121,21.9066 C31.4531,21.8876 31.4841,21.8556 31.5211,21.8316 C31.6011,21.7826 31.6761,21.7316 31.7371,21.6616 C31.7471,21.6516 31.7631,21.6466 31.7721,21.6346 C32.3401,21.1026 36.0561,18.3066 39.9671,18.0276 C39.9821,18.3506 40.0081,18.6656 40.0081,18.9996 C40.0081,19.0906 40.0121,19.6916 40.0721,20.6776 C40.0371,20.7806 40.0081,20.8856 40.0081,20.9996 C40.0081,22.2856 38.9181,23.7666 38.5531,24.1096 C38.3301,24.2236 38.1521,24.4186 38.0651,24.6656 C36.5091,29.0526 33.6721,31.9996 31.0081,31.9996 C28.3441,31.9996 25.5071,29.0526 23.9501,24.6656 C23.9441,24.6506 23.9311,24.6396 23.9251,24.6236 C23.8871,24.5316 23.8371,24.4486 23.7751,24.3726 C23.7561,24.3496 23.7391,24.3266 23.7191,24.3046 C23.6431,24.2286 23.5601,24.1606 23.4651,24.1106 C23.0991,23.7656 22.0081,22.2836 22.0081,20.9996 C22.0081,20.8856 21.9781,20.7806 21.9431,20.6776 C22.0041,19.6916 22.0081,19.0906 22.0081,18.9996 L22.0081,18.9996 Z M45.8031,37.2756 C42.0661,27.7256 42.0081,19.0866 42.0081,18.9996 C42.0081,16.8606 41.6981,14.9336 41.1191,13.2276 L49.2671,10.9636 C49.7011,10.8436 50.0001,10.4496 50.0001,9.9996 C50.0001,9.5506 49.7011,9.1566 49.2671,9.0366 L31.2671,4.0366 C31.1761,4.0106 31.0961,3.9976 31.0001,3.9996 C30.9151,4.0006 30.8141,4.0136 30.7321,4.0366 L12.7321,9.0366 C12.2991,9.1566 12.0001,9.5506 12.0001,9.9996 C12.0001,10.4496 12.2991,10.8436 12.7321,10.9636 L16.0001,11.8706 L16.0001,18.9996 C16.0001,19.5526 16.4471,19.9996 17.0001,19.9996 C17.5531,19.9996 18.0001,19.5526 18.0001,18.9996 L18.0001,12.4266 L20.8951,13.2316 C20.3161,14.9346 20.0081,16.8606 20.0081,18.9996 C20.0081,19.0866 19.9491,27.7206 16.2171,37.2666 C10.7621,40.2536 8.0001,45.1796 8.0001,51.9996 C8.0001,56.1016 13.9631,56.7696 16.5001,56.9656 C19.0861,59.6946 27.4221,59.9996 31.0081,59.9996 C34.5901,59.9996 42.9161,59.6946 45.5001,56.9656 C48.0381,56.7696 54.0001,56.1016 54.0001,51.9996 C54.0001,45.1866 51.2441,40.2636 45.8031,37.2756 L45.8031,37.2756 Z" id="Fill-61"></path>
        </g>
    </g>
</svg>