<?xml version="1.0" encoding="UTF-8" standalone="no"?>
<svg width="64px" height="64px" viewBox="0 0 64 64" version="1.1" xmlns="http://www.w3.org/2000/svg" xmlns:xlink="http://www.w3.org/1999/xlink">
    <!-- Generator: Sketch 3.7.2 (28276) - http://www.bohemiancoding.com/sketch -->
    <title>peo-nude-female</title>
    <desc>Created with Sketch.</desc>
    <defs></defs>
    <g id="64px-Glyph" stroke="none" stroke-width="1" fill="none" fill-rule="evenodd">
        <g id="peo-nude-female" fill="#000000">
            <path d="M46,54.8994 L46,47.0004 C46,46.4474 45.553,46.0004 45,46.0004 C44.447,46.0004 44,46.4474 44,47.0004 L44,52.9604 C43.999,52.9744 44,52.9864 44,53.0004 C44,55.7564 41.309,58.0004 38,58.0004 C34.691,58.0004 32,55.7564 32,53.0004 C32,52.4474 31.553,52.0004 31,52.0004 C30.447,52.0004 30,52.4474 30,53.0004 C30,55.7564 27.309,58.0004 24,58.0004 C20.691,58.0004 18,55.7564 18,53.0004 L18,47.0004 C18,46.4474 17.553,46.0004 17,46.0004 C16.447,46.0004 16,46.4474 16,47.0004 L16,54.9004 C12.033,54.4894 10,53.5194 10,52.0004 C10,46.3684 11.98,36.5974 25.245,34.4354 L25.243,34.4244 C25.386,34.4014 25.525,34.3584 25.652,34.2714 C25.728,34.2184 27.17,33.1694 27.749,31.0594 C28.799,31.6694 29.9,32.0004 31.008,32.0004 C32.136,32.0004 33.258,31.6554 34.325,31.0224 C34.898,33.1564 36.354,34.2174 36.432,34.2714 C36.558,34.3584 36.697,34.4014 36.838,34.4234 L36.835,34.4444 C50.03,36.6264 52,46.3794 52,52.0004 C52,53.5194 49.962,54.4884 46,54.8994 M23.95,22.6664 C23.863,22.4194 23.686,22.2244 23.465,22.1104 C23.1,21.7664 22.008,20.2844 22.008,19.0004 C22.008,17.2894 22.316,17.0004 23.008,17.0004 C27.647,17.0004 31.128,14.2974 32.763,12.7224 C33.743,14.3894 35.793,17.0004 39.008,17.0004 C39.699,17.0004 40.008,17.2894 40.008,19.0004 C40.008,20.2854 38.917,21.7664 38.552,22.1094 C38.33,22.2234 38.152,22.4194 38.065,22.6664 C36.509,27.0524 33.673,30.0004 31.008,30.0004 C28.343,30.0004 25.507,27.0524 23.95,22.6664 M45.952,35.7134 C45.943,35.6854 45.947,35.6564 45.936,35.6284 C42.06,25.9394 42.008,17.0884 42.008,17.0004 C42.008,8.8594 37.896,4.0004 31.008,4.0004 C24.12,4.0004 20.008,8.8594 20.008,17.0004 C20.008,17.0884 19.955,25.9394 16.079,35.6284 C16.068,35.6554 16.072,35.6834 16.065,35.7104 C8.954,40.3564 8,48.1754 8,52.0004 C8,56.3544 14.72,56.8384 16.928,56.9974 L16.929,56.9854 C16.953,56.9874 16.975,57.0004 17,57.0004 C17.135,57.0004 17.262,56.9714 17.379,56.9234 C18.819,58.7784 21.25,60.0004 24,60.0004 C27.01,60.0004 29.635,58.5364 31,56.3804 C32.365,58.5364 34.99,60.0004 38,60.0004 C40.751,60.0004 43.182,58.7774 44.622,56.9214 C44.741,56.9714 44.871,57.0004 45.008,57.0004 C45.03,57.0004 45.049,56.9884 45.071,56.9874 L45.072,56.9974 C47.28,56.8384 54,56.3544 54,52.0004 C54,48.1794 53.049,40.3614 45.952,35.7134" id="Fill-17"></path>
            <path d="M24,50 C22.897,50 22,50.897 22,52 C22,53.102 22.897,54 24,54 C25.103,54 26,53.102 26,52 C26,50.897 25.103,50 24,50" id="Fill-19"></path>
            <path d="M38,50 C36.897,50 36,50.897 36,52 C36,53.102 36.897,54 38,54 C39.103,54 40,53.102 40,52 C40,50.897 39.103,50 38,50" id="Fill-21"></path>
        </g>
    </g>
</svg>