<?xml version="1.0" encoding="UTF-8" standalone="no"?>
<svg width="64px" height="64px" viewBox="0 0 64 64" version="1.1" xmlns="http://www.w3.org/2000/svg" xmlns:xlink="http://www.w3.org/1999/xlink">
    <!-- Generator: Sketch 3.7.2 (28276) - http://www.bohemiancoding.com/sketch -->
    <title>peo-nun</title>
    <desc>Created with Sketch.</desc>
    <defs></defs>
    <g id="64px-Glyph" stroke="none" stroke-width="1" fill="none" fill-rule="evenodd">
        <g id="peo-nun" fill="#000000">
            <path d="M31,48 C22.464,48 15.065,44.431 14.121,39.964 C16.411,37.401 19.916,35.304 25.245,34.435 L25.243,34.425 C25.309,34.414 25.371,34.4 25.435,34.377 L28.24,37.651 C28.439,37.881 28.719,38 29,38 C29.23,38 29.462,37.921 29.65,37.759 C30.07,37.4 30.119,36.769 29.76,36.349 L26.874,32.982 C27.215,32.491 27.534,31.841 27.749,31.06 C28.799,31.67 29.9,32 31.008,32 C32.136,32 33.258,31.655 34.325,31.023 C34.532,31.793 34.842,32.434 35.175,32.925 L32.24,36.349 C31.881,36.769 31.93,37.4 32.35,37.759 C32.538,37.921 32.77,38 33,38 C33.281,38 33.561,37.881 33.76,37.651 L36.59,34.348 C36.672,34.385 36.753,34.41 36.838,34.424 L36.835,34.445 C42.12,35.318 45.602,37.408 47.879,39.96 C46.942,44.428 39.541,48 31,48 M40.008,19 C40.008,20.286 38.917,21.767 38.552,22.11 C38.33,22.224 38.152,22.419 38.065,22.665 C36.509,27.053 33.673,30 31.008,30 C28.343,30 25.507,27.053 23.95,22.665 C23.863,22.42 23.686,22.225 23.465,22.11 C23.1,21.767 22.008,20.284 22.008,19 C22.008,17.038 22.353,16 23.008,16 L39.008,16 C39.662,16 40.008,17.038 40.008,19 M22.107,12.55 C22.2,12.364 24.475,8 31.008,8 C36.837,8 39.264,11.474 39.786,12.357 C39.932,12.531 40.02,12.755 40.02,13 C40.02,13.552 39.572,14 39.02,14 C39.016,14.001 39.008,14 39,14 L23,14 C22.653,14 22.331,13.82 22.148,13.524 C21.967,13.229 21.951,12.86 22.107,12.55 M49.803,39.163 C49.749,39.074 49.684,38.999 49.605,38.932 C48.627,37.774 47.435,36.69 45.986,35.736 L43.995,14.906 C43.944,7.781 38.136,2 31,2 C23.867,2 18.064,7.775 18.006,14.894 C17.991,15.025 17.001,23.977 16.026,35.734 C14.577,36.686 13.385,37.77 12.405,38.925 C12.318,38.999 12.247,39.082 12.19,39.181 C8.577,43.62 8,49.022 8,52 C8,55.852 13.258,56.675 16,56.924 L16,51 C16,50.448 16.447,50 17,50 C17.553,50 18,50.448 18,51 L18,58.018 C21.456,59.773 27.951,60 31.008,60 C34.06,60 40.546,59.773 44,58.018 L44,51 C44,50.448 44.447,50 45,50 C45.553,50 46,50.448 46,51 L46,56.924 C48.742,56.675 54,55.852 54,52 C54,49.02 53.424,43.606 49.803,39.163" id="Fill-55"></path>
            <path d="M33,40 L32,40 L32,39 C32,38.448 31.553,38 31,38 C30.447,38 30,38.448 30,39 L30,40 L29,40 C28.447,40 28,40.448 28,41 C28,41.552 28.447,42 29,42 L30,42 L30,45 C30,45.552 30.447,46 31,46 C31.553,46 32,45.552 32,45 L32,42 L33,42 C33.553,42 34,41.552 34,41 C34,40.448 33.553,40 33,40" id="Fill-57"></path>
        </g>
    </g>
</svg>