<?xml version="1.0" encoding="UTF-8" standalone="no"?>
<svg width="64px" height="64px" viewBox="0 0 64 64" version="1.1" xmlns="http://www.w3.org/2000/svg" xmlns:xlink="http://www.w3.org/1999/xlink">
    <!-- Generator: Sketch 3.7.2 (28276) - http://www.bohemiancoding.com/sketch -->
    <title>peo-girl</title>
    <desc>Created with Sketch.</desc>
    <defs></defs>
    <g id="64px-Glyph" stroke="none" stroke-width="1" fill="none" fill-rule="evenodd">
        <g id="peo-girl" fill="#000000">
            <path d="M31,41 C27.363,41 24.367,38.211 24.033,34.66 C24.427,34.578 24.83,34.503 25.245,34.436 L25.243,34.425 C25.386,34.401 25.525,34.358 25.652,34.271 C25.729,34.219 27.169,33.169 27.749,31.061 C28.798,31.671 29.9,32 31.008,32 C32.136,32 33.258,31.655 34.325,31.023 C34.898,33.156 36.354,34.218 36.432,34.271 C36.558,34.358 36.697,34.401 36.838,34.424 L36.835,34.444 C37.223,34.508 37.599,34.58 37.967,34.657 C37.634,38.209 34.638,41 31,41 M23.95,22.666 C23.944,22.65 23.932,22.641 23.926,22.625 C23.887,22.531 23.836,22.445 23.771,22.369 C23.754,22.348 23.739,22.325 23.72,22.306 C23.644,22.229 23.562,22.16 23.465,22.11 C23.099,21.766 22.008,20.283 22.008,19 C22.008,17.037 22.354,16 23.008,16 L30,16 C30.46,16 30.831,15.684 30.947,15.261 L32.99,12.218 L35.106,15.447 C35.152,15.541 35.215,15.623 35.284,15.695 C35.299,15.71 35.317,15.721 35.333,15.734 C35.404,15.799 35.482,15.852 35.567,15.893 C35.597,15.906 35.625,15.919 35.656,15.931 C35.766,15.971 35.88,15.999 35.998,16 L36,16 L39.008,16 C39.662,16 40.008,17.037 40.008,19 C40.008,20.285 38.917,21.767 38.552,22.109 C38.33,22.224 38.152,22.419 38.065,22.666 C36.509,27.053 33.673,30 31.008,30 C28.343,30 25.507,27.053 23.95,22.666 M37.451,32.526 C37.119,32.24 36.231,31.303 36.111,29.641 C37.616,28.184 38.924,26.115 39.854,23.602 C40.879,22.731 41.958,20.619 42,19.095 L42,25 C42,27.757 44.243,30 47,30 L51,30 C51.553,30 52,29.553 52,29 C52,28.447 51.553,28 51,28 C50.448,28 50,27.552 50,27 L50,19 C50,16.243 47.757,14 45,14 L41.799,14 C40.89,7.682 37.001,4 31.008,4 C25.014,4 21.125,7.683 20.216,14 L17,14 C14.243,14 12,16.243 12,19 L12,27 C12,27.552 11.552,28 11,28 C10.447,28 10,28.447 10,29 C10,29.553 10.447,30 11,30 L15,30 C17.757,30 20,27.757 20,25 L20,18.996 L20,17 C20,16.984 20.009,16.971 20.009,16.955 C20.009,16.969 20.008,16.982 20.008,16.996 L20,18.996 C20,19.015 20.01,19.031 20.011,19.049 C20.033,20.58 21.13,22.725 22.167,23.6 C23.109,26.148 24.438,28.242 25.968,29.702 C25.833,31.307 24.981,32.221 24.65,32.512 C9.636,35.102 8,46.986 8,52 C8,55.852 13.258,56.676 16,56.924 L16,49 C16,48.447 16.447,48 17,48 C17.553,48 18,48.447 18,49 L18,58.018 C21.457,59.773 27.951,60 31.008,60 C34.063,60 40.548,59.771 44,58.014 L44,49 C44,48.447 44.447,48 45,48 C45.553,48 46,48.447 46,49 L46,56.924 C48.744,56.674 54,55.848 54,52 C54,46.998 52.374,35.145 37.451,32.526" id="Fill-49"></path>
        </g>
    </g>
</svg>