<?xml version="1.0" encoding="UTF-8" standalone="no"?>
<svg width="64px" height="64px" viewBox="0 0 64 64" version="1.1" xmlns="http://www.w3.org/2000/svg" xmlns:xlink="http://www.w3.org/1999/xlink">
    <!-- Generator: Sketch 3.7.2 (28276) - http://www.bohemiancoding.com/sketch -->
    <title>peo-graduate-male</title>
    <desc>Created with Sketch.</desc>
    <defs></defs>
    <g id="64px-Glyph" stroke="none" stroke-width="1" fill="none" fill-rule="evenodd">
        <g id="peo-graduate-male" fill="#000000">
            <path d="M38.5449,24.1094 C38.3219,24.2234 38.1449,24.4184 38.0579,24.6664 C36.5009,29.0524 33.6639,32.0004 30.9999,32.0004 C28.3359,32.0004 25.4989,29.0524 23.9419,24.6664 C23.9369,24.6504 23.9239,24.6394 23.9169,24.6234 C23.8789,24.5324 23.8289,24.4494 23.7679,24.3734 C23.7479,24.3494 23.7309,24.3264 23.7109,24.3044 C23.6359,24.2284 23.5529,24.1604 23.4569,24.1104 C23.0909,23.7654 21.9999,22.2834 21.9999,21.0004 C21.9999,19.9554 22.0839,18.9684 22.2369,18.0414 C26.0729,18.4004 29.6699,21.1114 30.2279,21.6344 C30.2369,21.6464 30.2529,21.6514 30.2629,21.6624 C30.3239,21.7314 30.3989,21.7824 30.4789,21.8324 C30.5159,21.8554 30.5469,21.8874 30.5879,21.9064 C30.7149,21.9634 30.8519,22.0004 30.9999,22.0004 C31.1489,22.0004 31.2849,21.9634 31.4119,21.9064 C31.4529,21.8874 31.4839,21.8554 31.5219,21.8324 C31.6009,21.7824 31.6759,21.7314 31.7369,21.6624 C31.7469,21.6514 31.7629,21.6464 31.7729,21.6344 C32.3299,21.1114 35.9269,18.4004 39.7629,18.0414 C39.9159,18.9684 39.9999,19.9554 39.9999,21.0004 C39.9999,22.2854 38.9099,23.7664 38.5449,24.1094 L38.5449,24.1094 Z M30.9999,41.6704 L24.3399,35.8434 C24.9219,35.0474 25.7649,33.5784 25.9449,31.6894 C27.4889,33.1664 29.2379,34.0004 30.9999,34.0004 C32.7629,34.0004 34.5119,33.1664 36.0569,31.6884 C36.2409,33.5484 37.0899,35.0054 37.6959,35.8184 L30.9999,41.6704 Z M12.7329,10.9634 L15.9999,11.8714 L15.9999,19.0004 C15.9999,19.5524 16.4469,20.0004 16.9999,20.0004 C17.5529,20.0004 17.9999,19.5524 17.9999,19.0004 L17.9999,12.4264 L21.6369,13.4374 C20.5679,15.5024 19.9999,18.0804 19.9999,21.0004 C19.9999,22.5334 21.1109,24.7154 22.1589,25.5994 C22.6699,26.9784 23.2929,28.2214 23.9999,29.3064 L23.9999,31.0004 C23.9999,32.9274 22.9409,34.4154 22.5309,34.9224 C21.1879,35.2364 19.9559,35.6014 18.8199,36.0064 L30.9999,49.5074 L43.1919,36.0084 C42.0729,35.6084 40.8619,35.2464 39.5419,34.9344 C39.1209,34.4374 37.9999,32.9344 37.9999,31.0004 L37.9999,29.3084 C38.7079,28.2224 39.3349,26.9814 39.8459,25.6014 C40.8929,24.7134 41.9999,22.5304 41.9999,21.0004 C41.9999,18.0814 41.4329,15.5024 40.3629,13.4374 L49.2679,10.9634 C49.7009,10.8434 49.9999,10.4494 49.9999,10.0004 C49.9999,9.5504 49.7009,9.1564 49.2679,9.0364 L31.2679,4.0364 C31.1759,4.0104 31.0959,3.9984 30.9999,4.0004 C30.9149,4.0014 30.8149,4.0134 30.7329,4.0364 L12.7329,9.0364 C12.2989,9.1564 11.9999,9.5504 11.9999,10.0004 C11.9999,10.4494 12.2989,10.8434 12.7329,10.9634 L12.7329,10.9634 Z" id="Fill-63"></path>
            <path d="M45.1709,36.8018 L31.7479,51.6638 C31.7349,51.6788 31.7169,51.6838 31.7029,51.6968 C31.6879,51.7128 31.6809,51.7338 31.6639,51.7478 C31.6099,51.7968 31.5449,51.8218 31.4849,51.8568 C31.4469,51.8768 31.4149,51.9058 31.3769,51.9208 C31.2559,51.9708 31.1289,51.9998 30.9999,51.9998 C30.8709,51.9998 30.7439,51.9708 30.6229,51.9208 C30.5839,51.9058 30.5509,51.8758 30.5139,51.8548 C30.4529,51.8198 30.3899,51.7948 30.3359,51.7468 C30.3189,51.7328 30.3129,51.7128 30.2979,51.6968 C30.2839,51.6838 30.2659,51.6788 30.2519,51.6638 L16.8419,36.7988 C7.1949,41.0868 5.9999,48.5898 5.9999,51.9998 C5.9999,56.1068 11.9829,56.7708 14.5169,56.9668 C17.2189,59.6948 26.8499,59.9998 31.0079,59.9998 C35.0829,59.9998 44.5259,59.6948 47.2109,56.9668 C49.8169,56.7668 55.9999,56.0938 55.9999,51.9998 C55.9999,48.5938 54.8069,41.0938 45.1709,36.8018" id="Fill-65"></path>
        </g>
    </g>
</svg>