<?xml version="1.0" encoding="UTF-8" standalone="no"?>
<svg width="44px" height="44px" viewBox="0 0 44 44" version="1.1" xmlns="http://www.w3.org/2000/svg" xmlns:xlink="http://www.w3.org/1999/xlink">
    <!-- Generator: Sketch 3.7.2 (28276) - http://www.bohemiancoding.com/sketch -->
    <title>peo-doctor</title>
    <desc>Created with Sketch.</desc>
    <defs></defs>
    <g id="44px-Line" stroke="none" stroke-width="1" fill="none" fill-rule="evenodd">
        <g id="peo-doctor"></g>
        <path d="M27.423,24.069 C27.05,23.768 26,22.763 26,21 L26,20.744 C26.868,19.572 27.609,18.194 28.165,16.798 C28.987,16.426 30,15.523 30,14 C30,13.487 29.963,13.044 29.901,12.65 C29.961,12.522 30,12.382 30,12.23 C30,5.919 26.551,2 21,2 C15.449,2 12,5.92 12,12.23 C12,12.381 12.039,12.521 12.099,12.65 C12.037,13.044 12,13.487 12,14 C12,15.523 13.012,16.425 13.835,16.798 C14.391,18.194 15.131,19.572 16,20.745 L16,21 C16,22.767 14.945,23.772 14.579,24.068 C13.902,24.219 13.267,24.402 12.653,24.6 C12.632,24.608 12.611,24.612 12.591,24.621 C4.831,27.155 2,33.241 2,38 C2,39.572 3.15,41.518 8.558,41.969 C10.82,43.838 18.393,44 20.914,44 L21,44 C23.43,44 31.151,43.847 33.439,41.97 C38.85,41.518 40,39.572 40,38 C40,32.865 36.701,26.163 27.423,24.069 L27.423,24.069 Z M21,29.586 L16.445,25.031 C16.924,24.505 17.454,23.708 17.756,22.645 C18.761,23.484 19.86,24 21,24 C22.14,24 23.239,23.483 24.244,22.645 C24.546,23.71 25.078,24.509 25.558,25.035 L21,29.586 L21,29.586 Z M21,4 C25.818,4 27.355,7.345 27.815,10.032 C27.675,10.01 27.536,10 27.4,10 C24.938,10 23.966,7.72 23.928,7.628 C23.809,7.332 23.555,7.11 23.246,7.031 C22.936,6.95 22.607,7.027 22.361,7.23 C22.327,7.258 18.961,10 14.599,10 C14.463,10 14.324,10.01 14.184,10.032 C14.645,7.345 16.182,4 21,4 L21,4 Z M14.742,15.01 C14.618,14.969 14,14.725 14,14 C14,13.087 14.104,12 14.6,12 C18.256,12 21.231,10.41 22.683,9.459 C23.43,10.529 24.909,12 27.4,12 C27.896,12 28,13.087 28,14 C28,14.725 27.382,14.969 27.259,15.01 C26.9,15.061 26.591,15.305 26.463,15.653 C25.126,19.271 22.778,22 21,22 C19.221,22 16.873,19.271 15.538,15.654 C15.409,15.306 15.101,15.062 14.742,15.01 L14.742,15.01 Z M34.005,39.901 L34,34.999 C34,34.447 33.552,34 33,34 C33,34 33,34 32.999,34 C32.447,34 31.999,34.449 32,35.001 L32.005,40.578 C30.762,41.445 25.463,42.043 20.918,42 C16.417,42 11.232,41.441 10,40.583 L10,35 C10,34.448 9.552,34 9,34 C8.448,34 8,34.448 8,35 L8,39.901 C5.507,39.6 4,38.899 4,38 C4,34.184 6.179,29.361 12.042,26.956 C12.189,29.628 12.712,31.7 13.034,32.753 C12.405,33.303 12,34.101 12,35 C12,36.654 13.346,38 15,38 C16.654,38 18,36.654 18,35 C18,33.346 16.654,32 15,32 C14.966,32 14.935,32.009 14.901,32.01 C14.59,30.946 14.096,28.88 14.012,26.282 C14.234,26.22 14.464,26.164 14.694,26.109 L20.292,31.707 C20.333,31.748 20.386,31.767 20.432,31.8 C20.604,31.922 20.797,32 20.999,32 C21.127,32 21.255,31.976 21.375,31.927 C21.421,31.908 21.458,31.869 21.501,31.844 C21.571,31.802 21.645,31.769 21.705,31.708 L27.309,26.111 C27.959,26.269 28.574,26.452 29.156,26.659 C29.139,27.836 28.85,28.623 28.608,29.067 C27.82,28.92 27.007,29.011 26.255,29.34 C25.231,29.787 24.443,30.615 24.071,31.596 L22.17,35.554 C22.167,35.561 22.168,35.569 22.165,35.576 C22.157,35.595 22.146,35.61 22.138,35.629 C21.734,36.683 22.249,37.879 23.287,38.296 C23.531,38.394 23.786,38.442 24.04,38.442 C24.314,38.442 24.588,38.385 24.847,38.272 C25.353,38.051 25.742,37.643 25.941,37.123 C26.332,36.105 25.859,34.96 24.889,34.507 L25.906,32.387 C26.118,31.835 26.526,31.404 27.054,31.173 C27.564,30.95 28.129,30.942 28.645,31.15 C29.743,31.591 30.283,32.873 29.88,33.932 L28.837,36.105 C28.78,36.075 28.727,36.039 28.666,36.015 C28.161,35.811 27.606,35.819 27.105,36.037 C26.599,36.258 26.209,36.666 26.01,37.187 C25.606,38.241 26.121,39.437 27.159,39.854 C27.403,39.952 27.658,40 27.912,40 C28.186,40 28.46,39.943 28.719,39.831 C29.189,39.626 29.551,39.255 29.761,38.788 C29.767,38.777 29.776,38.769 29.781,38.758 L31.715,34.724 C32.389,32.967 31.799,31.032 30.415,29.918 C30.707,29.356 30.989,28.551 31.103,27.485 C36.107,30.025 38,34.452 38,38 C38,38.899 36.495,39.6 34.005,39.901 L34.005,39.901 Z M15,34 C15.551,34 16,34.449 16,35 C16,35.551 15.551,36 15,36 C14.449,36 14,35.551 14,35 C14,34.449 14.449,34 15,34 L15,34 Z M24.075,36.407 L24.033,36.44 L24.048,36.313 C24.07,36.321 24.091,36.365 24.075,36.407 L24.075,36.407 Z M27.906,37.998 L27.92,37.87 C27.942,37.879 27.965,37.922 27.949,37.967 L27.961,37.972 C27.956,37.986 27.955,38 27.951,38.013 L27.906,37.998 L27.906,37.998 Z" id="Shape" fill="#000000"></path>
    </g>
</svg>