<?xml version="1.0" encoding="UTF-8" standalone="no"?>
<svg width="44px" height="44px" viewBox="0 0 44 44" version="1.1" xmlns="http://www.w3.org/2000/svg" xmlns:xlink="http://www.w3.org/1999/xlink">
    <!-- Generator: Sketch 3.7.2 (28276) - http://www.bohemiancoding.com/sketch -->
    <title>peo-astronaut</title>
    <desc>Created with Sketch.</desc>
    <defs></defs>
    <g id="44px-Line" stroke="none" stroke-width="1" fill="none" fill-rule="evenodd">
        <g id="peo-astronaut"></g>
        <path d="M27.681,24.141 C27.921,23.386 28,22.632 28,22 L28,21.479 C30.441,19.46 32,16.409 32,13 C32,6.935 27.065,2 21,2 C14.935,2 10,6.935 10,13 C10,16.408 11.559,19.459 14,21.479 L14,22 C14,22.63 14.078,23.379 14.316,24.132 C5.242,26.125 2,32.59 2,37.997 C2,39.57 3.15,41.518 8.558,41.97 C10.82,43.838 18.393,44 20.913,44 L20.999,44 C23.429,44 31.15,43.847 33.438,41.97 C38.85,41.519 40,39.57 40,37.997 C40,32.611 36.76,26.163 27.681,24.141 L27.681,24.141 Z M26.099,20.408 C24.648,21.41 22.892,22 21,22 C19.108,22 17.352,21.41 15.901,20.408 L14.128,11.542 C15.249,11.012 17.805,10 21,10 C24.196,10 26.752,11.012 27.872,11.542 L26.099,20.408 L26.099,20.408 Z M16.605,24.365 C16.588,24.335 16.571,24.307 16.551,24.28 C16.259,23.819 16.115,23.31 16.051,22.81 C17.541,23.565 19.219,24 21,24 C22.781,24 24.459,23.565 25.949,22.81 C25.885,23.308 25.742,23.813 25.453,24.273 C25.432,24.302 25.415,24.332 25.397,24.363 C24.765,25.289 23.5,26 21,26 C18.502,26 17.238,25.29 16.605,24.365 L16.605,24.365 Z M28.689,17.653 L29.888,11.656 C29.955,12.096 30,12.542 30,13 C30,14.704 29.515,16.293 28.689,17.653 L28.689,17.653 Z M21,4 C24.969,4 28.339,6.585 29.533,10.158 C29.526,10.154 29.522,10.147 29.515,10.143 C29.369,10.055 25.887,8 21,8 C16.113,8 12.631,10.055 12.485,10.143 C12.478,10.147 12.474,10.154 12.467,10.158 C13.661,6.585 17.031,4 21,4 L21,4 Z M12,13 C12,12.542 12.045,12.096 12.112,11.656 L13.311,17.653 C12.485,16.293 12,14.704 12,13 L12,13 Z M21,28 C23.934,28 25.658,27.125 26.665,25.97 L27.135,26.064 C28.097,26.272 28.95,26.541 29.75,26.837 L26.335,30.252 C25.946,30.091 25.501,30 25,30 L17,30 C16.499,30 16.054,30.091 15.665,30.251 L12.237,26.824 C13.032,26.532 13.878,26.266 14.833,26.062 L15.332,25.967 C16.338,27.123 18.062,28 21,28 L21,28 Z M16,33 C16,32.675 16.063,32.455 16.183,32.296 C16.204,32.278 16.231,32.271 16.251,32.251 C16.271,32.231 16.278,32.204 16.296,32.183 C16.455,32.062 16.675,32 17,32 L25,32 C25.325,32 25.545,32.062 25.704,32.183 C25.722,32.204 25.729,32.231 25.749,32.251 C25.769,32.271 25.796,32.278 25.817,32.296 C25.937,32.455 26,32.675 26,33 L26,38 L16,38 L16,33 L16,33 Z M4,37.997 C4,36.147 4.536,30.754 10.271,27.686 L14.251,31.665 C14.091,32.054 14,32.499 14,33 L14,41.583 C12.098,41.338 10.592,40.996 10,40.584 L10,35 C10,34.447 9.552,34 9,34 C8.448,34 8,34.447 8,35 L8,39.901 C5.507,39.6 4,38.898 4,37.997 L4,37.997 Z M20.918,42 C19.294,42 17.585,41.926 16,41.792 L16,40 L26,40 L26,41.798 C24.36,41.938 22.587,42.012 20.918,42 L20.918,42 Z M34.005,39.9 L34,34.999 C34,34.447 33.552,34 33,34 C33,34 33,34 32.999,34 C32.447,34.001 31.999,34.448 32,35.001 L32.005,40.578 C31.414,40.988 29.905,41.336 28,41.585 L28,33 C28,32.499 27.909,32.054 27.749,31.665 L31.714,27.7 C37.463,30.778 38,36.153 38,37.997 C38,38.897 36.495,39.599 34.005,39.9 L34.005,39.9 Z" id="Shape" fill="#000000"></path>
        <path d="M23,34 L19,34 C18.448,34 18,34.447 18,35 C18,35.553 18.448,36 19,36 L23,36 C23.552,36 24,35.553 24,35 C24,34.447 23.552,34 23,34 L23,34 Z" id="Shape" fill="#000000"></path>
    </g>
</svg>