<?xml version="1.0" encoding="UTF-8" standalone="no"?>
<svg width="44px" height="44px" viewBox="0 0 44 44" version="1.1" xmlns="http://www.w3.org/2000/svg" xmlns:xlink="http://www.w3.org/1999/xlink">
    <!-- Generator: Sketch 3.7.2 (28276) - http://www.bohemiancoding.com/sketch -->
    <title>peo-chef-female</title>
    <desc>Created with Sketch.</desc>
    <defs></defs>
    <g id="44px-Line" stroke="none" stroke-width="1" fill="none" fill-rule="evenodd">
        <g id="peo-chef-female"></g>
        <path d="M32.809,28.031 C29.997,21.02 29.994,18.056 29.999,13.616 L30,13 L30,8.996 C31.245,8.058 32,6.577 32,5 C32,2.243 29.757,0 27,0 C25.909,0 24.857,0.359 23.998,1.005 C23.145,0.365 22.096,0 21,0 C19.904,0 18.855,0.366 18.002,1.005 C17.143,0.359 16.091,0 15,0 C12.243,0 10,2.243 10,5 C10,6.577 10.755,8.058 12,8.995 L12,13 L12.001,13.627 C12.006,18.201 12.003,20.998 9.203,27.982 C4.508,30.555 4,34.417 4,37.997 C4,39.568 5.147,41.513 10.539,41.968 C12.646,43.847 19.004,44 21.005,44 C22.999,43.99 29.349,43.81 31.454,41.968 C36.851,41.515 38,39.57 38,37.997 C38,35.359 37.995,30.942 32.809,28.031 L32.809,28.031 Z M21.084,28.712 L16.837,26.558 C17.198,26.069 17.535,25.423 17.756,24.646 C18.761,25.484 19.86,26 21,26 C22.137,26 23.234,25.487 24.237,24.652 C24.504,25.594 24.954,26.329 25.389,26.848 C24.028,27.65 22.523,28.256 21.084,28.712 L21.084,28.712 Z M14.001,14 L27.999,14 C27.999,14.66 28.001,15.3 28.014,15.93 C28.012,15.954 28,15.975 28,16 C28,16.725 27.383,16.969 27.259,17.01 C26.9,17.062 26.591,17.306 26.462,17.654 C25.127,21.271 22.778,24 21,24 C19.222,24 16.873,21.271 15.538,17.653 C15.409,17.305 15.101,17.061 14.741,17.009 C14.618,16.968 14,16.724 14,15.999 C14,15.976 13.988,15.957 13.987,15.934 C13.999,15.308 14.001,14.668 14.001,14 L14.001,14 Z M27.438,26.081 C27.079,25.795 26,24.787 26,23 L26,22.745 C26.869,21.573 27.609,20.194 28.165,18.799 C28.172,18.796 28.18,18.791 28.188,18.787 C28.428,21.012 28.979,23.479 30.223,26.874 C29.386,26.578 28.464,26.311 27.438,26.081 L27.438,26.081 Z M15,2 C15.6,2 16.174,2.19 16.664,2.518 C16.401,2.994 16.563,3.593 17.034,3.866 C17.192,3.958 17.364,4.001 17.534,4.001 C17.88,4.001 18.216,3.822 18.4,3.502 C18.936,2.576 19.932,2.001 21,2.001 C22.068,2.001 23.063,2.575 23.599,3.5 C23.875,3.978 24.487,4.142 24.965,3.864 C25.436,3.592 25.598,2.993 25.336,2.518 C25.825,2.19 26.4,2 27,2 C28.654,2 30,3.346 30,5 C30,6.067 29.425,7.063 28.5,7.6 C28.465,7.62 28.444,7.653 28.413,7.677 C28.354,7.721 28.299,7.764 28.252,7.82 C28.212,7.867 28.182,7.916 28.152,7.969 C28.118,8.027 28.087,8.082 28.066,8.146 C28.044,8.209 28.036,8.272 28.027,8.339 C28.021,8.382 28.002,8.421 28.002,8.465 L28.002,12 L14.002,12 L14.002,8.464 C14.002,8.416 13.981,8.374 13.975,8.328 C13.966,8.267 13.959,8.208 13.939,8.15 C13.916,8.081 13.883,8.021 13.846,7.96 C13.817,7.911 13.79,7.865 13.753,7.822 C13.703,7.764 13.646,7.719 13.585,7.673 C13.554,7.65 13.535,7.619 13.501,7.599 C12.574,7.063 12,6.067 12,5 C12,3.346 13.346,2 15,2 L15,2 Z M13.819,18.791 C13.824,18.793 13.829,18.797 13.835,18.799 C14.391,20.195 15.132,21.573 16,22.746 L16,23 C16,24.767 14.946,25.771 14.579,26.068 C13.54,26.298 12.623,26.568 11.777,26.86 C13.032,23.45 13.583,21.017 13.819,18.791 L13.819,18.791 Z M6,37.997 C6,33.756 6.704,29.798 15.209,27.977 C15.21,27.977 15.212,27.976 15.213,27.975 L18.176,29.478 C16.295,29.879 14.946,30.001 14.915,30.003 C14.397,30.048 14,30.48 14,31 L14,41.332 C13.08,41.125 12.369,40.877 12,40.597 L12,35 C12,34.447 11.553,34 11,34 C10.447,34 10,34.447 10,35 L10,39.901 C7.507,39.6 6,38.898 6,37.997 L6,37.997 Z M32.005,39.9 L32,34.999 C31.999,34.447 31.552,34 31,34 L30.999,34 C30.446,34.001 29.999,34.448 30,35.001 L30.005,40.585 C28.887,41.417 24.62,41.981 21,42 C19.347,42 17.561,41.883 16,41.677 L16,31.893 C18.086,31.615 23.272,30.691 27.18,28.082 C35.301,29.956 36,33.838 36,37.997 C36,38.897 34.495,39.599 32.005,39.9 L32.005,39.9 Z" id="Shape" fill="#000000"></path>
        <path d="M18.29,34.29 C18.2,34.39 18.13,34.49 18.08,34.62 C18.03,34.74 18,34.87 18,35 C18,35.13 18.03,35.26 18.08,35.38 C18.13,35.5 18.2,35.609 18.29,35.71 C18.479,35.899 18.729,36 19,36 C19.27,36 19.52,35.899 19.71,35.71 C19.8,35.609 19.87,35.5 19.92,35.38 C19.97,35.26 20,35.13 20,35 C20,34.74 19.89,34.479 19.71,34.29 C19.34,33.92 18.66,33.92 18.29,34.29 L18.29,34.29 Z" id="Shape" fill="#000000"></path>
        <path d="M19.71,38.29 C19.34,37.92 18.67,37.92 18.29,38.29 C18.2,38.39 18.13,38.49 18.08,38.62 C18.03,38.74 18,38.87 18,39 C18,39.13 18.03,39.26 18.08,39.38 C18.13,39.5 18.2,39.609 18.29,39.71 C18.479,39.899 18.729,40 19,40 C19.27,40 19.52,39.899 19.71,39.71 C19.899,39.52 20,39.27 20,39 C20,38.87 19.97,38.74 19.92,38.62 C19.87,38.5 19.8,38.39 19.71,38.29 L19.71,38.29 Z" id="Shape" fill="#000000"></path>
    </g>
</svg>