<?xml version="1.0" encoding="UTF-8" standalone="no"?>
<svg width="64px" height="64px" viewBox="0 0 64 64" version="1.1" xmlns="http://www.w3.org/2000/svg" xmlns:xlink="http://www.w3.org/1999/xlink">
    <!-- Generator: Sketch 3.7.2 (28276) - http://www.bohemiancoding.com/sketch -->
    <title>peo-shopkeeper-female</title>
    <desc>Created with Sketch.</desc>
    <defs></defs>
    <g id="64px-Line" stroke="none" stroke-width="1" fill="none" fill-rule="evenodd">
        <g id="peo-shopkeeper-female"></g>
        <path d="M45.952,35.714 C45.943,35.686 45.948,35.657 45.936,35.629 C42.06,25.94 42.007,17.088 42.007,17 C42.007,8.859 37.895,4 31.007,4 C24.119,4 20.007,8.859 20.007,17 C20.007,17.088 19.954,25.939 16.078,35.629 C16.067,35.656 16.071,35.683 16.063,35.71 C8.953,40.356 8,48.176 8,52 C8,56.102 13.962,56.77 16.5,56.966 C19.085,59.695 27.421,60 31.008,60 C34.59,60 42.916,59.694 45.5,56.966 C48.038,56.77 54,56.102 54,52 C54,48.179 53.049,40.362 45.952,35.714 L45.952,35.714 Z M43.289,34.26 C41.615,33.511 39.679,32.917 37.451,32.527 C37.119,32.24 36.23,31.302 36.112,29.641 C37.617,28.184 38.924,26.115 39.854,23.602 C40.074,23.415 40.296,23.161 40.511,22.877 C40.946,25.939 41.764,29.938 43.289,34.26 L43.289,34.26 Z M38,44 L24,44 L24,34.668 C24.024,34.663 24.049,34.658 24.073,34.653 C24.639,39.616 28.641,41.621 30.835,41.986 C30.889,41.996 30.944,41.999 30.997,41.999 L30.999,41.999 L31,41.999 L31.001,41.999 L31.003,41.999 C31.056,41.999 31.11,41.995 31.165,41.986 C33.359,41.621 37.363,39.615 37.928,34.649 C37.952,34.654 37.977,34.658 38.001,34.663 L38.001,44 L38,44 Z M22.008,19 C22.008,17.289 22.317,17 23.008,17 C27.647,17 31.128,14.297 32.762,12.723 C33.743,14.39 35.793,17 39.008,17 C39.699,17 40.008,17.289 40.008,19 C40.008,20.285 38.918,21.767 38.552,22.109 C38.33,22.223 38.153,22.419 38.065,22.666 C36.508,27.053 33.672,30 31.007,30 C28.342,30 25.506,27.053 23.949,22.666 C23.862,22.42 23.685,22.225 23.464,22.11 C23.1,21.767 22.008,20.284 22.008,19 L22.008,19 Z M30.996,39.979 C30.145,39.79 26.298,38.663 26.028,33.959 C26.518,33.509 27.34,32.546 27.749,31.059 C28.798,31.669 29.9,31.999 31.008,31.999 C32.136,31.999 33.258,31.654 34.326,31.021 C34.709,32.449 35.475,33.4 35.977,33.881 C35.743,38.622 31.844,39.785 30.996,39.979 L30.996,39.979 Z M31.008,6 C37.836,6 39.539,11.428 39.91,15.125 C39.633,15.051 39.339,15 39.008,15 C35.742,15 33.953,10.671 33.936,10.627 C33.803,10.298 33.505,10.063 33.153,10.012 C32.803,9.955 32.449,10.099 32.227,10.375 C32.19,10.422 28.464,15 23.008,15 C22.677,15 22.383,15.051 22.106,15.125 C22.477,11.428 24.18,6 31.008,6 L31.008,6 Z M21.505,22.877 C21.72,23.161 21.942,23.415 22.162,23.602 C23.105,26.151 24.436,28.246 25.967,29.706 C25.831,31.309 24.981,32.222 24.65,32.513 C22.387,32.903 20.422,33.501 18.727,34.258 C20.252,29.937 21.069,25.938 21.505,22.877 L21.505,22.877 Z M10,52 C10,46.864 11.651,38.29 22,35.179 L22,46 C22,51.536 19.935,52 18,52 L18,43 C18,42.447 17.552,42 17,42 C16.448,42 16,42.447 16,43 L16,54.9 C12.034,54.49 10,53.52 10,52 L10,52 Z M31.008,58 C25.711,58 19.533,57.255 18,55.631 L18,54 C22.038,54 24,51.383 24,46 L38,46 C38,49.222 40.52,54 44,54 L44,55.631 C42.468,57.255 36.297,58 31.008,58 L31.008,58 Z M46,54.9 L46,43 C46,42.447 45.552,42 45,42 C44.448,42 44,42.447 44,43 L44,52 C42.069,52 40,48.479 40,46 L40,35.174 C50.35,38.282 52,46.865 52,52 C52,53.52 49.966,54.49 46,54.9 L46,54.9 Z" id="Shape" fill="#000000"></path>
    </g>
</svg>