<?xml version="1.0" encoding="UTF-8" standalone="no"?>
<svg width="44px" height="44px" viewBox="0 0 44 44" version="1.1" xmlns="http://www.w3.org/2000/svg" xmlns:xlink="http://www.w3.org/1999/xlink">
    <!-- Generator: Sketch 3.7.2 (28276) - http://www.bohemiancoding.com/sketch -->
    <title>peo-caller-female</title>
    <desc>Created with Sketch.</desc>
    <defs></defs>
    <g id="44px-Line" stroke="none" stroke-width="1" fill="none" fill-rule="evenodd">
        <g id="peo-caller-female"></g>
        <path d="M10.54,41.968 C12.638,43.828 18.999,43.995 21.002,44 C23.002,43.995 29.362,43.828 31.46,41.968 C36.853,41.513 38,39.57 38,38 C38,35.506 37.996,29.779 32.817,26.291 C29.913,18.954 29.998,12.088 30,12 C30,5.738 26.636,2 21,2 C15.364,2 12,5.738 12,12.02 C12.002,12.089 12.095,18.924 9.176,26.287 C4.004,29.769 4,35.502 4,38 C4,39.57 5.147,41.513 10.54,41.968 L10.54,41.968 Z M21.002,29.884 C19.958,29.318 17.176,27.505 17.018,24.28 C17.312,23.834 17.573,23.29 17.756,22.646 C18.761,23.484 19.86,24 21,24 C22.14,24 23.239,23.483 24.244,22.645 C24.427,23.29 24.688,23.835 24.982,24.28 C24.826,27.527 22.054,29.321 21.002,29.884 L21.002,29.884 Z M14.6,12 C18.255,12 21.231,10.41 22.684,9.459 C23.43,10.529 24.908,12 27.4,12 C27.895,12 28,13.087 28,14 C28,14.725 27.383,14.969 27.259,15.01 C27.191,15.02 27.128,15.042 27.065,15.065 C27.048,15.071 27.031,15.072 27.015,15.079 C26.907,15.124 26.811,15.192 26.725,15.271 C26.715,15.28 26.703,15.283 26.693,15.292 C25.744,16.241 24.566,16.666 23.636,16.855 C23.274,16.34 22.677,16 22,16 C20.897,16 20,16.897 20,18 C20,19.103 20.897,20 22,20 C22.793,20 23.475,19.532 23.798,18.86 C24.193,18.791 24.625,18.682 25.079,18.531 C23.809,20.622 22.261,22 21,22 C19.222,22 16.873,19.271 15.538,15.654 C15.409,15.306 15.101,15.062 14.741,15.01 C14.618,14.969 14,14.725 14,14 C14,13.087 14.104,12 14.6,12 L14.6,12 Z M26,21 L26,20.744 C26.868,19.572 27.609,18.194 28.165,16.798 C28.218,16.774 28.273,16.742 28.327,16.713 C28.617,18.965 29.169,21.836 30.192,24.918 C29.36,24.586 28.442,24.299 27.423,24.069 C27.051,23.769 26,22.763 26,21 L26,21 Z M21,4 C25.932,4 27.424,7.405 27.844,10.035 C27.695,10.011 27.546,10 27.4,10 C24.938,10 23.966,7.72 23.928,7.628 C23.809,7.332 23.555,7.11 23.245,7.031 C22.935,6.95 22.606,7.027 22.36,7.23 C22.327,7.258 18.96,10 14.598,10 C14.453,10 14.305,10.011 14.156,10.035 C14.58,7.396 16.074,4 21,4 L21,4 Z M13.672,16.713 C13.726,16.742 13.782,16.774 13.835,16.798 C14.391,18.194 15.132,19.572 16,20.745 L16,21 C16,22.767 14.945,23.773 14.578,24.069 C13.556,24.298 12.635,24.585 11.801,24.916 C12.827,21.833 13.381,18.962 13.672,16.713 L13.672,16.713 Z M15.209,25.978 C15.224,25.975 15.236,25.965 15.251,25.961 C16.309,30.023 20.407,31.834 20.606,31.919 C20.62,31.925 20.634,31.922 20.648,31.928 C20.76,31.97 20.878,32 21,32 C21.123,32 21.24,31.97 21.353,31.927 C21.367,31.922 21.381,31.924 21.395,31.918 C21.594,31.833 25.692,30.022 26.75,25.96 C26.764,25.964 26.776,25.973 26.79,25.976 C28.699,26.388 30.208,27.003 31.417,27.758 C31.455,27.785 31.495,27.806 31.536,27.828 C35.365,30.289 36,34.242 36,38 C36,38.899 34.495,39.599 32.005,39.901 L32,34.999 C31.999,34.447 31.552,34 31,34 L30.999,34 C30.446,34 29.999,34.449 30,35.001 L30.005,40.593 C28.906,41.431 24.633,41.991 21.002,42 C17.372,41.991 13.107,41.433 12,40.596 L12,35 C12,34.448 11.553,34 11,34 C10.447,34 10,34.448 10,35 L10,39.901 C7.507,39.6 6,38.899 6,38 C6,33.029 7.094,27.714 15.209,25.978 L15.209,25.978 Z" id="Shape" fill="#000000"></path>
    </g>
</svg>