<?xml version="1.0" encoding="UTF-8" standalone="no"?>
<svg width="64px" height="64px" viewBox="0 0 64 64" version="1.1" xmlns="http://www.w3.org/2000/svg" xmlns:xlink="http://www.w3.org/1999/xlink">
    <!-- Generator: Sketch 3.7.2 (28276) - http://www.bohemiancoding.com/sketch -->
    <title>peo-office-worker-female</title>
    <desc>Created with Sketch.</desc>
    <defs></defs>
    <g id="64px-Glyph" stroke="none" stroke-width="1" fill="none" fill-rule="evenodd">
        <g id="peo-office-worker-female" fill="#000000">
            <path d="M36.1445,48.124 C35.9585,48.315 35.7025,48.425 35.4345,48.427 L35.4275,48.427 C35.1625,48.427 34.9085,48.321 34.7205,48.134 L31.9995,45.414 L31.9995,57.991 C31.6675,57.996 31.3355,58 31.0075,58 C30.6745,58 30.3375,57.997 29.9995,57.99 L29.9995,45.414 L27.3005,48.114 C27.2515,48.169 27.1955,48.22 27.1325,48.264 C26.9585,48.388 26.7545,48.448 26.5535,48.448 C26.2905,48.448 26.0315,48.346 25.8365,48.146 C23.3775,45.607 20.4885,41.479 20.0605,35.865 C20.6815,35.609 21.3415,35.376 22.0405,35.168 C22.2515,39.942 24.4585,43.595 26.5815,46.004 L30.2925,42.294 C30.3845,42.201 30.4955,42.128 30.6185,42.077 C30.8625,41.977 31.1375,41.977 31.3815,42.077 C31.5045,42.128 31.6155,42.201 31.7075,42.294 L35.4005,45.986 C37.5305,43.578 39.7475,39.93 39.9585,35.162 C40.6585,35.371 41.3185,35.604 41.9395,35.859 C41.5095,41.464 38.6115,45.587 36.1445,48.124 M35.9765,33.882 C35.7625,38.51 32.2695,41.072 31.0025,41.848 C29.7575,41.074 26.2805,38.506 26.0295,33.959 C26.5185,33.508 27.3405,32.546 27.7495,31.06 C28.7985,31.67 29.9005,32 31.0075,32 C32.1365,32 33.2575,31.654 34.3255,31.022 C34.7085,32.451 35.4745,33.4 35.9765,33.882 M23.0075,17 C27.6465,17 31.1265,14.297 32.7615,12.723 C33.7445,14.39 35.7925,17 39.0075,17 C39.6995,17 40.0075,17.289 40.0075,19 C40.0075,20.285 38.9175,21.767 38.5525,22.109 C38.3305,22.224 38.1525,22.419 38.0655,22.666 C36.5085,27.053 33.6715,30 31.0075,30 C28.3435,30 25.5065,27.053 23.9505,22.666 C23.8635,22.42 23.6865,22.225 23.4645,22.111 C23.0995,21.767 22.0075,20.284 22.0075,19 C22.0075,17.289 22.3165,17 23.0075,17 M45.9525,35.714 C45.9435,35.685 45.9475,35.657 45.9365,35.629 C42.0605,25.94 42.0075,17.088 42.0075,17 C42.0075,8.859 37.8955,4 31.0075,4 C24.1205,4 20.0075,8.859 20.0075,17 C20.0075,17.088 19.9555,25.94 16.0795,35.629 C16.0685,35.655 16.0725,35.684 16.0645,35.71 C8.9535,40.356 7.9995,48.176 7.9995,52 C7.9995,55.852 13.2575,56.676 15.9995,56.924 L15.9995,45 C15.9995,44.447 16.4475,44 16.9995,44 C17.5525,44 17.9995,44.447 17.9995,45 L17.9995,58 C17.9995,58.006 17.9975,58.011 17.9965,58.016 C21.4525,59.772 27.9505,60 31.0075,60 C34.0635,60 40.5485,59.758 43.9995,58 L43.9995,45 C43.9995,44.447 44.4475,44 44.9995,44 C45.5525,44 45.9995,44.447 45.9995,45 L45.9995,56.924 C48.7445,56.674 53.9995,55.848 53.9995,52 C53.9995,48.18 53.0485,40.361 45.9525,35.714" id="Fill-99"></path>
        </g>
    </g>
</svg>