<?xml version="1.0" encoding="UTF-8" standalone="no"?>
<svg width="64px" height="64px" viewBox="0 0 64 64" version="1.1" xmlns="http://www.w3.org/2000/svg" xmlns:xlink="http://www.w3.org/1999/xlink">
    <!-- Generator: Sketch 3.7.2 (28276) - http://www.bohemiancoding.com/sketch -->
    <title>peo-scientist-male</title>
    <desc>Created with Sketch.</desc>
    <defs></defs>
    <g id="64px-Line" stroke="none" stroke-width="1" fill="none" fill-rule="evenodd">
        <g id="peo-scientist-male"></g>
        <path d="M39.551,32.945 C39.136,32.458 38,30.948 38,29 L38,27.309 C38.708,26.224 39.335,24.983 39.846,23.602 C40.892,22.714 42,20.53 42,19 C42,18.433 41.944,17.939 41.852,17.492 C41.938,17.344 42,17.183 42,17 C42,8.86 37.888,4 31,4 C24.112,4 20,8.86 20,17 C20,17.183 20.062,17.344 20.148,17.492 C20.056,17.939 20,18.433 20,19 C20,20.53 21.108,22.714 22.154,23.602 C22.664,24.982 23.291,26.223 24,27.309 L24,29 C24,30.941 22.927,32.437 22.523,32.932 C10.345,35.824 6,44.977 6,52 C6,56.106 11.981,56.771 14.517,56.966 C17.219,59.695 26.85,60 31.008,60 L31.009,60 L31.009,60 C35.085,60 44.526,59.695 47.211,56.966 C49.816,56.766 56,56.094 56,52 C56,44.992 51.674,35.853 39.551,32.945 L39.551,32.945 Z M41.675,38.453 L37.629,40.071 C37.164,40.257 36.908,40.759 37.03,41.244 L37.917,44.763 L32.003,52.155 L32,47.283 L39.557,35.015 C39.798,35.077 40.04,35.14 40.274,35.207 L41.675,38.453 L41.675,38.453 Z M24.371,40.071 L20.325,38.453 L21.725,35.212 C21.962,35.143 22.208,35.082 22.453,35.018 L30,47.283 L30.003,52.153 L24.09,44.762 L24.97,41.242 C25.092,40.757 24.836,40.257 24.371,40.071 L24.371,40.071 Z M31,45.093 L26.167,37.239 C27.568,37.722 29.227,38 31,38 C32.784,38 34.439,37.725 35.835,37.244 L31,45.093 L31,45.093 Z M31,6 C37.828,6 39.531,11.428 39.902,15.125 C39.625,15.051 39.331,15 39,15 C35.734,15 33.945,10.67 33.928,10.627 C33.795,10.298 33.496,10.063 33.146,10.011 C32.788,9.962 32.441,10.098 32.219,10.375 C32.183,10.421 28.456,15 23,15 C22.669,15 22.375,15.051 22.098,15.125 C22.469,11.428 24.172,6 31,6 L31,6 Z M23.457,22.11 C23.092,21.767 22,20.284 22,19 C22,17.289 22.309,17 23,17 C27.639,17 31.12,14.297 32.755,12.722 C33.735,14.39 35.785,17 39,17 C39.691,17 40,17.289 40,19 C40,20.286 38.909,21.767 38.544,22.11 C38.322,22.224 38.145,22.42 38.058,22.666 C36.501,27.053 33.665,30 31,30 C28.335,30 25.499,27.053 23.942,22.666 C23.855,22.42 23.679,22.225 23.457,22.11 L23.457,22.11 Z M31,32 C32.763,32 34.512,31.167 36.056,29.689 C36.24,31.538 37.08,32.991 37.686,33.805 C36.841,34.947 34.334,36 31,36 C27.731,36 25.22,34.96 24.344,33.839 C24.925,33.042 25.765,31.576 25.946,29.691 C27.489,31.167 29.238,32 31,32 L31,32 Z M16,55.614 L16,45 C16,44.448 15.553,44 15,44 C14.447,44 14,44.448 14,45 L14,54.899 C10.033,54.488 8,53.519 8,52 C8,46.499 11.016,39.53 19.159,36.111 L18.082,38.604 C17.975,38.852 17.973,39.132 18.075,39.382 C18.179,39.632 18.378,39.829 18.629,39.929 L22.818,41.605 L22.03,44.758 C21.954,45.061 22.024,45.382 22.218,45.625 L30.005,55.358 L30.007,57.992 C23.863,57.912 17.452,57.099 16,55.614 L16,55.614 Z M48,54.878 L48,45 C48,44.448 47.553,44 47,44 C46.447,44 46,44.448 46,45 L46,55.337 C45.966,55.373 45.921,55.395 45.893,55.437 C44.755,57.106 38.088,57.913 32.008,57.993 L32.006,55.355 L39.79,45.626 C39.985,45.382 40.055,45.061 39.978,44.757 L39.184,41.605 L43.372,39.93 C43.623,39.829 43.822,39.632 43.926,39.383 C44.029,39.133 44.027,38.853 43.919,38.605 L42.839,36.103 C50.985,39.519 54,46.498 54,52 C54,53.458 51.928,54.443 48,54.878 L48,54.878 Z" id="Shape" fill="#000000"></path>
        <path d="M43,50 L37,50 C36.447,50 36,50.448 36,51 C36,51.552 36.447,52 37,52 L43,52 C43.553,52 44,51.552 44,51 C44,50.448 43.553,50 43,50 L43,50 Z" id="Shape" fill="#000000"></path>
    </g>
</svg>