<?xml version="1.0" encoding="UTF-8" standalone="no"?>
<svg width="64px" height="64px" viewBox="0 0 64 64" version="1.1" xmlns="http://www.w3.org/2000/svg" xmlns:xlink="http://www.w3.org/1999/xlink">
    <!-- Generator: Sketch 3.7.2 (28276) - http://www.bohemiancoding.com/sketch -->
    <title>peo-pilot</title>
    <desc>Created with Sketch.</desc>
    <defs></defs>
    <g id="64px-Glyph" stroke="none" stroke-width="1" fill="none" fill-rule="evenodd">
        <g id="peo-pilot" fill="#000000">
            <path d="M48,54.877 L48,45 C48,44.447 47.553,44 47,44 C46.447,44 46,44.447 46,45 L46,55.33 C45.964,55.368 46.03,55.393 46,55.436 C44.983,56.928 39.448,57.729 33.969,57.94 L32.07,42.51 L34.266,40.314 L35.493,41.736 C35.686,41.959 35.963,42.083 36.25,42.083 C36.314,42.083 36.377,42.077 36.441,42.064 C36.793,41.996 37.081,41.744 37.197,41.405 L39.387,34.971 C50.144,37.686 54,45.783 54,52 C54,53.457 51.924,54.442 48,54.877 L48,54.877 Z M31,33.849 L25.76,30.854 C25.856,30.473 25.928,30.09 25.965,29.706 C27.504,31.172 29.244,32 31,32 C32.756,32 34.498,31.174 36.037,29.708 C36.076,30.09 36.148,30.473 36.249,30.854 L31,33.849 Z M28.031,57.94 C22.557,57.731 17.311,56.943 16,55.623 L16,45 C16,44.447 15.553,44 15,44 C14.447,44 14,44.447 14,45 L14,54.9 C10.028,54.489 8,53.52 8,52 C8,45.775 11.866,37.68 22.646,34.967 L24.977,41.423 C25.098,41.76 25.391,42.006 25.743,42.067 C26.096,42.129 26.455,41.999 26.685,41.725 L27.805,40.385 L29.93,42.51 L28.031,57.94 Z M24.422,32.393 L29.467,35.275 L26.267,39.106 L24.086,33.064 L24.422,32.393 Z M37.92,33.071 L35.865,39.107 L32.551,35.267 L37.583,32.394 L37.92,33.071 Z M23.942,22.666 C23.937,22.65 23.924,22.64 23.917,22.623 C23.879,22.532 23.829,22.449 23.768,22.373 C23.748,22.35 23.731,22.326 23.711,22.305 C23.636,22.229 23.553,22.16 23.457,22.11 C23.091,21.766 22,20.283 22,19 C22,18.992 21.996,18.986 21.996,18.98 C21.996,18.973 22,18.967 22,18.959 L22,17 C22,16.921 21.973,16.852 21.955,16.777 C23.915,17.354 27.035,18 31.186,18 C35.211,18 38.158,17.391 40.035,16.824 C40.024,16.883 40,16.938 40,17 L40,18.959 C40,18.967 40.004,18.973 40.004,18.98 C40.004,18.986 40,18.992 40,19 C40,20.285 38.91,21.767 38.545,22.109 C38.489,22.138 38.447,22.186 38.398,22.223 C38.364,22.249 38.324,22.262 38.293,22.293 C36.744,23.842 34.876,24.502 33.578,24.785 C33.211,24.311 32.645,24 32,24 C30.896,24 30,24.898 30,26 C30,27.102 30.896,28 32,28 C32.827,28 33.538,27.496 33.842,26.778 C34.604,26.623 35.533,26.363 36.518,25.912 C34.957,28.441 32.935,30 31,30 C28.336,30 25.499,27.053 23.942,22.666 L23.942,22.666 Z M28,6 L30,6 C30.365,6 30.705,6.106 31,6.278 C31.295,6.106 31.635,6 32,6 L34,6 C34.553,6 35,6.447 35,7 C35,7.553 34.553,8 34,8 L32,8 C32,8.553 31.553,9 31,9 C30.447,9 30,8.553 30,8 L30,7.998 L28,8 C27.447,8 27,7.553 27,7 C27,6.447 27.447,6 28,6 L28,6 Z M39.98,33.061 C39.992,32.887 39.975,32.714 39.896,32.556 L38.904,30.556 C38.781,30.309 38.562,30.124 38.299,30.043 C38.236,30.024 38.172,30.032 38.107,30.025 C38.039,29.682 38,29.339 38,29 L38,27.309 C38.708,26.223 39.335,24.981 39.846,23.602 C40.893,22.714 42,20.53 42,19 C42,18.992 41.996,18.986 41.996,18.98 C41.996,18.973 42,18.967 42,18.959 L42,17 C42,16.701 41.862,16.44 41.654,16.257 C42.164,16.048 42.443,15.898 42.482,15.876 C42.728,15.74 42.905,15.509 42.972,15.237 C43.037,14.966 42.987,14.678 42.832,14.445 L41.356,12.231 C42.385,11.388 44,9.78 44,8 C44,5.051 39.137,2 31,2 C22.863,2 18,5.051 18,8 C18,9.78 19.615,11.388 20.644,12.231 L19.168,14.445 C19.009,14.684 18.96,14.98 19.033,15.257 C19.107,15.534 19.297,15.767 19.553,15.895 C19.594,15.915 19.873,16.051 20.367,16.242 C20.148,16.426 20,16.691 20,17 L20,18.959 C20,18.967 20.004,18.973 20.004,18.98 C20.004,18.986 20,18.992 20,19 C20,20.533 21.111,22.716 22.159,23.6 C22.67,24.979 23.293,26.222 24,27.307 L24,29 C24,29.34 23.964,29.684 23.898,30.026 C23.836,30.033 23.771,30.024 23.711,30.043 C23.447,30.122 23.229,30.307 23.105,30.553 L22.105,32.553 C22.025,32.714 22.008,32.89 22.02,33.066 C10.232,36.091 6,45.076 6,52 C6,56.106 11.982,56.77 14.517,56.967 C17.219,59.694 26.85,60 31.008,60 C35.083,60 44.525,59.694 47.211,56.967 C49.816,56.767 56,56.094 56,52 C56,45.078 51.77,36.082 39.98,33.061 L39.98,33.061 Z" id="Fill-67"></path>
        </g>
    </g>
</svg>