<?xml version="1.0" encoding="UTF-8" standalone="no"?>
<svg width="44px" height="44px" viewBox="0 0 44 44" version="1.1" xmlns="http://www.w3.org/2000/svg" xmlns:xlink="http://www.w3.org/1999/xlink">
    <!-- Generator: Sketch 3.7.2 (28276) - http://www.bohemiancoding.com/sketch -->
    <title>peo-caller-male</title>
    <desc>Created with Sketch.</desc>
    <defs></defs>
    <g id="44px-Line" stroke="none" stroke-width="1" fill="none" fill-rule="evenodd">
        <g id="peo-caller-male"></g>
        <path d="M27.505,24.091 L26.731,23.317 C26.359,22.794 26,22.03 26,21 L26,20.745 C26.869,19.572 27.609,18.194 28.165,16.798 C28.987,16.425 30,15.523 30,14 C30,13.488 29.963,13.044 29.901,12.65 C29.961,12.521 30,12.381 30,12.23 C30,5.919 26.552,2 21,2 C15.448,2 12,5.92 12,12.23 C12,12.381 12.039,12.521 12.099,12.65 C12.037,13.044 12,13.488 12,14 C12,15.523 13.013,16.425 13.835,16.798 C14.391,18.194 15.132,19.572 16,20.745 L16,21 C16,22.031 15.641,22.794 15.269,23.317 L14.496,24.09 C5.282,26.188 2,32.869 2,38 C2,39.572 3.149,41.518 8.559,41.969 C10.82,43.838 18.394,44 20.913,44 L21,44 C23.43,44 31.151,43.847 33.439,41.97 C38.85,41.518 40,39.572 40,38 C40,32.881 36.718,26.207 27.505,24.091 L27.505,24.091 Z M21,25.834 L17.373,23.658 C17.525,23.354 17.651,23.015 17.756,22.646 C18.761,23.484 19.86,24 21,24 C22.14,24 23.239,23.484 24.244,22.645 C24.349,23.015 24.475,23.353 24.627,23.657 L21,25.834 L21,25.834 Z M16.2,25.286 L19.388,27.199 L17.438,29.149 L16.162,25.322 C16.175,25.31 16.187,25.298 16.2,25.286 L16.2,25.286 Z M25.8,25.286 C25.813,25.298 25.825,25.31 25.838,25.322 L24.562,29.149 L22.612,27.199 L25.8,25.286 L25.8,25.286 Z M21,4 C25.818,4 27.355,7.345 27.815,10.032 C27.676,10.01 27.536,10 27.4,10 C24.938,10 23.966,7.72 23.928,7.628 C23.809,7.332 23.555,7.11 23.245,7.031 C22.935,6.95 22.606,7.027 22.36,7.23 C22.327,7.258 18.96,10 14.598,10 C14.462,10 14.323,10.01 14.183,10.032 C14.645,7.345 16.182,4 21,4 L21,4 Z M14.741,15.01 C14.618,14.969 14,14.725 14,14 C14,13.087 14.104,12 14.6,12 C18.255,12 21.231,10.41 22.684,9.459 C23.43,10.529 24.908,12 27.4,12 C27.895,12 28,13.087 28,14 C28,14.725 27.383,14.969 27.259,15.01 C27.191,15.02 27.128,15.042 27.065,15.065 C27.048,15.071 27.031,15.072 27.015,15.079 C26.907,15.124 26.812,15.192 26.726,15.271 C26.716,15.28 26.704,15.283 26.694,15.292 C25.745,16.241 24.567,16.666 23.637,16.855 C23.274,16.34 22.677,16 22,16 C20.897,16 20,16.897 20,18 C20,19.103 20.897,20 22,20 C22.793,20 23.475,19.532 23.798,18.86 C24.193,18.791 24.625,18.681 25.08,18.531 C23.81,20.622 22.262,22 21,22 C19.222,22 16.873,19.271 15.538,15.654 C15.409,15.306 15.102,15.062 14.741,15.01 L14.741,15.01 Z M4,38 C4,33.721 6.742,28.179 14.345,26.197 L16.051,31.316 C16.16,31.645 16.432,31.893 16.77,31.973 C17.109,32.054 17.462,31.952 17.707,31.707 L20,29.414 L20,41.992 C15.737,41.923 11.15,41.383 10,40.583 L10,35 C10,34.448 9.553,34 9,34 C8.447,34 8,34.448 8,35 L8,39.901 C5.507,39.6 4,38.899 4,38 L4,38 Z M34.005,39.901 L34,34.999 C33.999,34.447 33.552,34 33,34 L32.999,34 C32.446,34 31.999,34.449 32,35.001 L32.005,40.578 C30.859,41.373 26.269,41.915 22,41.991 L22,29.414 L24.293,31.707 C24.482,31.897 24.738,32 25,32 C25.076,32 25.153,31.991 25.229,31.973 C25.567,31.893 25.838,31.645 25.948,31.316 L27.654,26.198 C35.258,28.195 38,33.731 38,38 C38,38.899 36.495,39.599 34.005,39.901 L34.005,39.901 Z" id="Shape" fill="#000000"></path>
    </g>
</svg>