<?xml version="1.0" encoding="UTF-8" standalone="no"?>
<svg width="44px" height="44px" viewBox="0 0 44 44" version="1.1" xmlns="http://www.w3.org/2000/svg" xmlns:xlink="http://www.w3.org/1999/xlink">
    <!-- Generator: Sketch 3.7.2 (28276) - http://www.bohemiancoding.com/sketch -->
    <title>pho-camera-pinhole</title>
    <desc>Created with Sketch.</desc>
    <defs></defs>
    <g id="44px-Glyph" stroke="none" stroke-width="1" fill="none" fill-rule="evenodd">
        <g id="pho-camera-pinhole" fill="#000000">
            <path d="M8,10 C6.897,10 6,10.898 6,12 C6,13.103 6.897,14 8,14 C9.102,14 10,13.103 10,12 C10,10.898 9.102,10 8,10" id="Fill-137"></path>
            <polygon id="Fill-138" points="28 12.5859 26 14.5859 26 29.4139 28 31.4139"></polygon>
            <polygon id="Fill-139" points="32 14.5859 30 16.5859 30 27.4139 32 29.4139"></polygon>
            <polygon id="Fill-140" points="24 10.5859 22 12.5859 22 31.4139 24 33.4139"></polygon>
            <path d="M8,16 C5.794,16 4,14.206 4,12 C4,9.794 5.794,8 8,8 C10.206,8 12,9.794 12,12 C12,14.206 10.206,16 8,16 M43,40 L38,40 L38,38 L38,28.387 L38,15.613 L38,11 C38,10.447 37.553,10 37,10 C36.447,10 36,10.447 36,11 L36,16.586 L34,18.586 L34,25.414 L36,27.414 L36,40 L17.816,40 C17.928,39.686 18,39.353 18,39 L18,33.414 L20,35.414 L20,8.586 L18,10.586 L18,5 C18,3.346 16.654,2 15,2 L3,2 C1.346,2 0,3.346 0,5 L0,39 C0,40.654 1.346,42 3,42 L13,42 L15,42 L43,42 C43.553,42 44,41.553 44,41 C44,40.447 43.553,40 43,40" id="Fill-141"></path>
            <path d="M43.585,14.1885 C43.323,13.9995 42.988,13.9475 42.684,14.0515 L40,14.9465 L40,29.0535 L42.684,29.9485 C42.787,29.9835 42.894,29.9995 43,29.9995 C43.207,29.9995 43.412,29.9355 43.585,29.8115 C43.846,29.6225 44,29.3215 44,28.9995 L44,14.9995 C44,14.6785 43.846,14.3765 43.585,14.1885" id="Fill-142"></path>
        </g>
    </g>
</svg>