<?xml version="1.0" encoding="UTF-8" standalone="no"?>
<svg width="44px" height="44px" viewBox="0 0 44 44" version="1.1" xmlns="http://www.w3.org/2000/svg" xmlns:xlink="http://www.w3.org/1999/xlink">
    <!-- Generator: Sketch 3.7.2 (28276) - http://www.bohemiancoding.com/sketch -->
    <title>pho-plus-minus</title>
    <desc>Created with Sketch.</desc>
    <defs></defs>
    <g id="44px-Line" stroke="none" stroke-width="1" fill="none" fill-rule="evenodd">
        <g id="pho-plus-minus"></g>
        <path d="M7,16 L12,16 L12,21 C12,21.552 12.447,22 13,22 C13.553,22 14,21.552 14,21 L14,16 L19,16 C19.553,16 20,15.552 20,15 C20,14.448 19.553,14 19,14 L14,14 L14,9 C14,8.448 13.553,8 13,8 C12.447,8 12,8.448 12,9 L12,14 L7,14 C6.447,14 6,14.448 6,15 C6,15.552 6.447,16 7,16 L7,16 Z" id="Shape" fill="#000000"></path>
        <path d="M35,30 L23,30 C22.447,30 22,30.448 22,31 C22,31.552 22.447,32 23,32 L35,32 C35.553,32 36,31.552 36,31 C36,30.448 35.553,30 35,30 L35,30 Z" id="Shape" fill="#000000"></path>
        <path d="M40.535,3.464 C40.53,3.459 40.522,3.457 40.517,3.452 C39.613,2.556 38.371,2 37,2 L5,2 C2.243,2 0,4.243 0,7 L0,39 C0,40.371 0.556,41.614 1.453,42.518 C1.458,42.523 1.46,42.53 1.465,42.536 C1.47,42.541 1.478,42.543 1.483,42.548 C2.387,43.444 3.629,44 5,44 L37,44 C39.757,44 42,41.757 42,39 L42,7 C42,5.629 41.444,4.386 40.547,3.482 C40.542,3.477 40.54,3.47 40.535,3.464 L40.535,3.464 Z M2,7 C2,5.346 3.346,4 5,4 L37,4 C37.462,4 37.894,4.113 38.285,4.3 L2.301,40.285 C2.114,39.895 2,39.462 2,39 L2,7 L2,7 Z M40,39 C40,40.654 38.654,42 37,42 L5,42 C4.538,42 4.106,41.887 3.715,41.7 L39.699,5.715 C39.886,6.106 40,6.539 40,7.001 L40,39 L40,39 Z" id="Shape" fill="#000000"></path>
    </g>
</svg>