<?xml version="1.0" encoding="UTF-8" standalone="no"?>
<svg width="64px" height="64px" viewBox="0 0 64 64" version="1.1" xmlns="http://www.w3.org/2000/svg" xmlns:xlink="http://www.w3.org/1999/xlink">
    <!-- Generator: Sketch 3.7.2 (28276) - http://www.bohemiancoding.com/sketch -->
    <title>pho-flash</title>
    <desc>Created with Sketch.</desc>
    <defs></defs>
    <g id="64px-Line" stroke="none" stroke-width="1" fill="none" fill-rule="evenodd">
        <g id="pho-flash"></g>
        <path d="M39.433,6.098 C39.026,5.903 38.54,6.004 38.245,6.345 L12.245,36.345 C11.989,36.641 11.929,37.06 12.092,37.415 C12.254,37.771 12.61,38 13.001,38 L29.803,38 L26.018,58.821 C25.936,59.271 26.17,59.72 26.587,59.91 C26.72,59.971 26.861,60 27.001,60 C27.297,60 27.587,59.868 27.782,59.625 L51.782,29.625 C52.022,29.325 52.068,28.914 51.902,28.567 C51.734,28.22 51.385,28 51,28 L36.198,28 L39.983,7.179 C40.064,6.735 39.839,6.293 39.433,6.098 L39.433,6.098 Z M34.017,28.821 C33.963,29.113 34.042,29.413 34.233,29.64 C34.422,29.868 34.704,29.999 35.001,29.999 L48.92,29.999 L28.693,55.283 L31.984,37.178 C32.038,36.886 31.959,36.586 31.768,36.359 C31.578,36.132 31.297,36 31,36 L15.19,36 L37.362,10.417 L34.017,28.821 L34.017,28.821 Z" id="Shape" fill="#000000"></path>
    </g>
</svg>