<?xml version="1.0" encoding="UTF-8" standalone="no"?>
<svg width="44px" height="44px" viewBox="0 0 44 44" version="1.1" xmlns="http://www.w3.org/2000/svg" xmlns:xlink="http://www.w3.org/1999/xlink">
    <!-- Generator: Sketch 3.7.2 (28276) - http://www.bohemiancoding.com/sketch -->
    <title>pho-flash-off</title>
    <desc>Created with Sketch.</desc>
    <defs></defs>
    <g id="44px-Line" stroke="none" stroke-width="1" fill="none" fill-rule="evenodd">
        <g id="pho-flash-off"></g>
        <path d="M42.293,0.293 L0.293,42.293 C-0.098,42.684 -0.098,43.316 0.293,43.707 C0.488,43.902 0.744,44 1,44 C1.256,44 1.512,43.902 1.707,43.707 L43.707,1.707 C44.098,1.316 44.098,0.684 43.707,0.293 C43.316,-0.098 42.684,-0.098 42.293,0.293 L42.293,0.293 Z" id="Shape" fill="#000000"></path>
        <path d="M25.968,13.194 C26.51,13.285 27.029,12.917 27.118,12.372 L28.986,1.164 C29.059,0.723 28.832,0.287 28.427,0.096 C28.025,-0.096 27.542,0.005 27.246,0.341 L6.246,24.341 C5.988,24.636 5.926,25.055 6.089,25.412 C6.251,25.769 6.607,25.999 6.999,25.999 L13.343,25.999 C13.896,25.999 14.343,25.552 14.343,24.999 C14.343,24.446 13.896,23.999 13.343,23.999 L9.203,23.999 L26.433,4.306 L25.144,12.042 C25.055,12.588 25.423,13.104 25.968,13.194 L25.968,13.194 Z" id="Shape" fill="#000000"></path>
        <path d="M20.434,28.394 C19.887,28.299 19.373,28.671 19.284,29.216 L17.014,42.836 C16.939,43.285 17.178,43.73 17.595,43.914 C17.726,43.972 17.864,44 18,44 C18.298,44 18.59,43.866 18.784,43.621 L37.784,19.621 C38.022,19.32 38.067,18.91 37.9,18.565 C37.733,18.22 37.384,18 37,18 L30.656,18 C30.103,18 29.656,18.448 29.656,19 C29.656,19.552 30.103,20 30.656,20 L34.932,20 L19.623,39.338 L21.255,29.544 C21.347,28.999 20.979,28.484 20.434,28.394 L20.434,28.394 Z" id="Shape" fill="#000000"></path>
    </g>
</svg>