<?xml version="1.0" encoding="UTF-8" standalone="no"?>
<svg width="64px" height="64px" viewBox="0 0 64 64" version="1.1" xmlns="http://www.w3.org/2000/svg" xmlns:xlink="http://www.w3.org/1999/xlink">
    <!-- Generator: Sketch 3.7.2 (28276) - http://www.bohemiancoding.com/sketch -->
    <title>pho-shadow</title>
    <desc>Created with Sketch.</desc>
    <defs></defs>
    <g id="64px-Line" stroke="none" stroke-width="1" fill="none" fill-rule="evenodd">
        <g id="pho-shadow"></g>
        <path d="M26,21 C26,16.038 21.963,12 17,12 C12.037,12 8,16.038 8,21 C8,25.962 12.037,30 17,30 C21.963,30 26,25.962 26,21 L26,21 Z M17,28 C13.141,28 10,24.86 10,21 C10,17.14 13.141,14 17,14 C20.859,14 24,17.14 24,21 C24,24.86 20.859,28 17,28 L17,28 Z" id="Shape" fill="#000000"></path>
        <path d="M5,54 L29,54 C29.553,54 30,53.552 30,53 L30,43 C30,35.832 24.168,30 17,30 C9.832,30 4,35.832 4,43 L4,53 C4,53.552 4.447,54 5,54 L5,54 Z M6,43 C6,36.935 10.935,32 17,32 C23.065,32 28,36.935 28,43 L28,52 L6,52 L6,43 L6,43 Z" id="Shape" fill="#000000"></path>
        <path d="M29.166,21.752 C28.775,21.361 28.143,21.361 27.752,21.752 C27.361,22.143 27.361,22.775 27.752,23.166 L58.293,53.707 C58.488,53.902 58.744,54 59,54 C59.256,54 59.512,53.902 59.707,53.707 C60.098,53.316 60.098,52.684 59.707,52.293 L29.166,21.752 L29.166,21.752 Z" id="Shape" fill="#000000"></path>
        <path d="M53.294,53.708 C53.489,53.903 53.745,54.001 54.001,54.001 C54.257,54.001 54.513,53.903 54.708,53.708 C55.099,53.317 55.099,52.685 54.708,52.294 L28.103,25.689 C27.712,25.298 27.08,25.298 26.689,25.689 C26.298,26.08 26.298,26.712 26.689,27.103 L53.294,53.708 L53.294,53.708 Z" id="Shape" fill="#000000"></path>
        <path d="M49.002,54.002 C49.258,54.002 49.514,53.904 49.709,53.709 C50.1,53.318 50.1,52.686 49.709,52.295 L31.307,33.893 C30.916,33.502 30.284,33.502 29.893,33.893 C29.502,34.284 29.502,34.916 29.893,35.307 L48.295,53.709 C48.49,53.905 48.746,54.002 49.002,54.002 L49.002,54.002 Z" id="Shape" fill="#000000"></path>
        <path d="M43.291,53.705 C43.486,53.9 43.742,53.998 43.998,53.998 C44.254,53.998 44.51,53.9 44.705,53.705 C45.096,53.314 45.096,52.682 44.705,52.291 L33.69,41.276 C33.299,40.885 32.667,40.885 32.276,41.276 C31.885,41.667 31.885,42.299 32.276,42.69 L43.291,53.705 L43.291,53.705 Z" id="Shape" fill="#000000"></path>
        <path d="M39,54 C39.256,54 39.512,53.902 39.707,53.707 C40.098,53.316 40.098,52.684 39.707,52.293 L33.705,46.291 C33.314,45.9 32.682,45.9 32.291,46.291 C31.9,46.682 31.9,47.314 32.291,47.705 L38.293,53.707 C38.488,53.903 38.744,54 39,54 L39,54 Z" id="Shape" fill="#000000"></path>
        <path d="M32.291,51.291 C31.9,51.682 31.9,52.315 32.291,52.706 L33.295,53.709 C33.49,53.904 33.746,54.002 34.002,54.002 C34.258,54.002 34.514,53.904 34.709,53.709 C35.1,53.318 35.1,52.685 34.709,52.295 L33.705,51.291 C33.314,50.901 32.682,50.9 32.291,51.291 L32.291,51.291 Z" id="Shape" fill="#000000"></path>
    </g>
</svg>