<?xml version="1.0" encoding="UTF-8" standalone="no"?>
<svg width="44px" height="44px" viewBox="0 0 44 44" version="1.1" xmlns="http://www.w3.org/2000/svg" xmlns:xlink="http://www.w3.org/1999/xlink">
    <!-- Generator: Sketch 3.7.2 (28276) - http://www.bohemiancoding.com/sketch -->
    <title>pho-4-3</title>
    <desc>Created with Sketch.</desc>
    <defs></defs>
    <g id="44px-Glyph" stroke="none" stroke-width="1" fill="none" fill-rule="evenodd">
        <g id="pho-4-3" fill="#000000">
            <polygon id="Fill-210" points="12 20 9 24 12 24"></polygon>
            <path d="M44,10 L44,7 C44,4.243 41.757,2 39,2 L5,2 C2.243,2 0,4.243 0,7 L0,10 L44,10 Z" id="Fill-211"></path>
            <path d="M0,36 L0,39 C0,41.757 2.243,44 5,44 L39,44 C41.757,44 44,41.757 44,39 L44,36 L0,36 Z" id="Fill-212"></path>
            <path d="M12.2002,16.4004 C12.4582,16.0564 12.9092,15.9144 13.3162,16.0514 C13.7242,16.1874 14.0002,16.5694 14.0002,17.0004 L14.0002,24.0004 L15.0002,24.0004 C15.5522,24.0004 16.0002,24.4474 16.0002,25.0004 C16.0002,25.5524 15.5522,26.0004 15.0002,26.0004 L14.0002,26.0004 L14.0002,29.0004 C14.0002,29.5524 13.5522,30.0004 13.0002,30.0004 C12.4482,30.0004 12.0002,29.5524 12.0002,29.0004 L12.0002,26.0004 L7.0002,26.0004 C6.6212,26.0004 6.2752,25.7864 6.1052,25.4474 C5.9362,25.1084 5.9732,24.7034 6.2002,24.4004 L12.2002,16.4004 Z M20.2902,24.2904 C20.6602,23.9204 21.3402,23.9204 21.7102,24.2904 C21.8002,24.3804 21.8692,24.5004 21.9202,24.6204 C21.9702,24.7394 22.0002,24.8704 22.0002,25.0004 C22.0002,25.2694 21.9002,25.5194 21.7102,25.7104 C21.5202,25.8994 21.2702,26.0004 21.0002,26.0004 C20.7302,26.0004 20.4802,25.8994 20.2902,25.7104 C20.0992,25.5194 20.0002,25.2694 20.0002,25.0004 C20.0002,24.7394 20.1102,24.4794 20.2902,24.2904 L20.2902,24.2904 Z M20.2902,20.2904 C20.6702,19.9204 21.3292,19.9204 21.7102,20.2904 C21.8892,20.4794 22.0002,20.7294 22.0002,21.0004 C22.0002,21.1304 21.9702,21.2594 21.9202,21.3804 C21.8692,21.5094 21.8002,21.6204 21.7102,21.7104 C21.6102,21.7994 21.5002,21.8704 21.3802,21.9294 C21.2602,21.9794 21.1302,22.0004 21.0002,22.0004 C20.7302,22.0004 20.4802,21.8994 20.2902,21.7104 C20.0992,21.5194 20.0002,21.2694 20.0002,21.0004 C20.0002,20.7394 20.1102,20.4794 20.2902,20.2904 L20.2902,20.2904 Z M31.0002,24.0004 C30.4482,24.0004 30.0002,23.5524 30.0002,23.0004 C30.0002,22.4474 30.4482,22.0004 31.0002,22.0004 C32.6262,22.0004 34.0002,21.0844 34.0002,20.0004 C34.0002,18.9164 32.6262,18.0004 31.0002,18.0004 C29.3742,18.0004 28.0002,18.9164 28.0002,20.0004 C28.0002,20.5524 27.5522,21.0004 27.0002,21.0004 C26.4482,21.0004 26.0002,20.5524 26.0002,20.0004 C26.0002,17.7944 28.2432,16.0004 31.0002,16.0004 C33.7572,16.0004 36.0002,17.7944 36.0002,20.0004 C36.0002,21.1934 35.3432,22.2664 34.3042,23.0004 C35.3432,23.7334 36.0002,24.8064 36.0002,26.0004 C36.0002,28.2064 33.7572,30.0004 31.0002,30.0004 C28.2432,30.0004 26.0002,28.2064 26.0002,26.0004 C26.0002,25.4474 26.4482,25.0004 27.0002,25.0004 C27.5522,25.0004 28.0002,25.4474 28.0002,26.0004 C28.0002,27.0844 29.3742,28.0004 31.0002,28.0004 C32.6262,28.0004 34.0002,27.0844 34.0002,26.0004 C34.0002,24.9164 32.6262,24.0004 31.0002,24.0004 L31.0002,24.0004 Z M0.0002,34.0004 L44.0002,34.0004 L44.0002,12.0004 L0.0002,12.0004 L0.0002,34.0004 Z" id="Fill-213"></path>
        </g>
    </g>
</svg>