<?xml version="1.0" encoding="UTF-8" standalone="no"?>
<svg width="44px" height="44px" viewBox="0 0 44 44" version="1.1" xmlns="http://www.w3.org/2000/svg" xmlns:xlink="http://www.w3.org/1999/xlink">
    <!-- Generator: Sketch 3.7.2 (28276) - http://www.bohemiancoding.com/sketch -->
    <title>pho-brightness</title>
    <desc>Created with Sketch.</desc>
    <defs></defs>
    <g id="44px-Glyph" stroke="none" stroke-width="1" fill="none" fill-rule="evenodd">
        <g id="pho-brightness" fill="#000000">
            <path d="M21,36 C13.832,36 8,30.168 8,23 C8,15.832 13.832,10 21,10 C28.168,10 34,15.832 34,23 C34,30.168 28.168,36 21,36" id="Fill-243"></path>
            <path d="M5,24 L1,24 C0.447,24 0,23.553 0,23 C0,22.447 0.447,22 1,22 L5,22 C5.553,22 6,22.447 6,23 C6,23.553 5.553,24 5,24" id="Fill-244"></path>
            <path d="M41,24 L37,24 C36.447,24 36,23.553 36,23 C36,22.447 36.447,22 37,22 L41,22 C41.553,22 42,22.447 42,23 C42,23.553 41.553,24 41,24" id="Fill-245"></path>
            <path d="M21,8 C20.447,8 20,7.553 20,7 L20,3 C20,2.447 20.447,2 21,2 C21.553,2 22,2.447 22,3 L22,7 C22,7.553 21.553,8 21,8" id="Fill-246"></path>
            <path d="M21,44 C20.447,44 20,43.553 20,43 L20,39 C20,38.447 20.447,38 21,38 C21.553,38 22,38.447 22,39 L22,43 C22,43.553 21.553,44 21,44" id="Fill-247"></path>
            <path d="M9.6865,12.6865 C9.4305,12.6865 9.1745,12.5885 8.9795,12.3935 L6.1505,9.5645 C5.7595,9.1735 5.7595,8.5415 6.1505,8.1505 C6.5405,7.7595 7.1735,7.7595 7.5645,8.1505 L10.3935,10.9795 C10.7845,11.3705 10.7845,12.0025 10.3935,12.3935 C10.1985,12.5885 9.9425,12.6865 9.6865,12.6865" id="Fill-248"></path>
            <path d="M35.1426,38.1426 C34.8866,38.1426 34.6306,38.0446 34.4356,37.8496 L31.6066,35.0206 C31.2156,34.6296 31.2156,33.9966 31.6066,33.6066 C31.9976,33.2156 32.6296,33.2156 33.0206,33.6066 L35.8496,36.4356 C36.2406,36.8266 36.2406,37.4586 35.8496,37.8496 C35.6546,38.0446 35.3986,38.1426 35.1426,38.1426" id="Fill-249"></path>
            <path d="M32.3135,12.6865 C32.0575,12.6865 31.8015,12.5885 31.6065,12.3935 C31.2155,12.0025 31.2155,11.3705 31.6065,10.9795 L34.4355,8.1505 C34.8265,7.7595 35.4595,7.7595 35.8495,8.1505 C36.2405,8.5415 36.2405,9.1735 35.8495,9.5645 L33.0205,12.3935 C32.8255,12.5885 32.5695,12.6865 32.3135,12.6865" id="Fill-250"></path>
            <path d="M6.8574,38.1426 C6.6014,38.1426 6.3454,38.0446 6.1504,37.8496 C5.7594,37.4586 5.7594,36.8266 6.1504,36.4356 L8.9794,33.6066 C9.3704,33.2156 10.0034,33.2156 10.3934,33.6066 C10.7844,33.9966 10.7844,34.6296 10.3934,35.0206 L7.5644,37.8496 C7.3694,38.0446 7.1134,38.1426 6.8574,38.1426" id="Fill-251"></path>
        </g>
    </g>
</svg>