<?xml version="1.0" encoding="UTF-8" standalone="no"?>
<svg width="64px" height="64px" viewBox="0 0 64 64" version="1.1" xmlns="http://www.w3.org/2000/svg" xmlns:xlink="http://www.w3.org/1999/xlink">
    <!-- Generator: Sketch 3.7.2 (28276) - http://www.bohemiancoding.com/sketch -->
    <title>pho-preview</title>
    <desc>Created with Sketch.</desc>
    <defs></defs>
    <g id="64px-Line" stroke="none" stroke-width="1" fill="none" fill-rule="evenodd">
        <g id="pho-preview"></g>
        <path d="M56,18 L48,18 C47.291,18 46.639,17.626 46.278,17.019 C46.263,16.983 46.246,16.949 46.227,16.915 L43.552,12.16 C42.86,10.827 41.499,10 40,10 L24,10 C22.5,10 21.139,10.827 20.464,12.13 L17.773,16.914 C17.754,16.947 17.737,16.982 17.723,17.018 C17.362,17.626 16.71,18 16,18 L8,18 C5.794,18 4,19.794 4,22 L4,50 C4,52.206 5.794,54 8,54 L56,54 C58.206,54 60,52.206 60,50 L60,22 C60,19.794 58.206,18 56,18 L56,18 Z M58,50 C58,51.103 57.103,52 56,52 L8,52 C6.897,52 6,51.103 6,50 L6,22 C6,20.897 6.897,20 8,20 L16,20 C17.482,20 18.836,19.186 19.534,17.875 C19.548,17.849 19.561,17.821 19.573,17.794 L22.222,13.081 C22.569,12.414 23.25,12 24,12 L40,12 C40.75,12 41.431,12.414 41.792,13.11 L44.427,17.794 C44.439,17.821 44.451,17.849 44.466,17.875 C45.164,19.186 46.518,20 48,20 L56,20 C57.103,20 58,20.897 58,22 L58,50 L58,50 Z" id="Shape" fill="#000000"></path>
        <path d="M15,16 C15.552,16 16,15.553 16,15 C16,14.447 15.552,14 15,14 L9,14 C8.448,14 8,14.447 8,15 C8,15.553 8.448,16 9,16 L15,16 L15,16 Z" id="Shape" fill="#000000"></path>
        <path d="M43,24 L11,24 C10.448,24 10,24.447 10,25 L10,47 C10,47.553 10.448,48 11,48 L43,48 C43.552,48 44,47.553 44,47 L44,25 C44,24.447 43.552,24 43,24 L43,24 Z M42,26 L42,38.586 L33.707,30.293 C33.316,29.902 32.684,29.902 32.293,30.293 L25,37.586 L21.707,34.293 C21.316,33.902 20.684,33.902 20.293,34.293 L12,42.586 L12,26 L42,26 L42,26 Z M12,46 L12,45.414 L21,36.414 L26.293,41.707 C26.684,42.098 27.316,42.098 27.707,41.707 C28.098,41.316 28.098,40.684 27.707,40.293 L26.414,39 L33,32.414 L42,41.414 L42,46 L12,46 L12,46 Z" id="Shape" fill="#000000"></path>
        <circle id="Oval" fill="#000000" cx="16" cy="30" r="2"></circle>
    </g>
</svg>