<?xml version="1.0" encoding="UTF-8" standalone="no"?>
<svg width="44px" height="44px" viewBox="0 0 44 44" version="1.1" xmlns="http://www.w3.org/2000/svg" xmlns:xlink="http://www.w3.org/1999/xlink">
    <!-- Generator: Sketch 3.7.2 (28276) - http://www.bohemiancoding.com/sketch -->
    <title>pho-photos</title>
    <desc>Created with Sketch.</desc>
    <defs></defs>
    <g id="44px-Line" stroke="none" stroke-width="1" fill="none" fill-rule="evenodd">
        <g id="pho-photos"></g>
        <path d="M2.037,15.342 L7.662,35.527 L7.662,35.528 C7.662,35.528 7.662,35.529 7.663,35.529 L9.82,43.268 C9.891,43.527 10.065,43.746 10.299,43.875 C10.448,43.957 10.615,43.999 10.782,43.999 C10.878,43.999 10.974,43.985 11.068,43.957 L36.536,36.346 C37.058,36.19 37.359,35.645 37.213,35.119 L35.932,30.522 L41.963,8.879 C42.109,8.354 41.809,7.809 41.286,7.652 L15.818,0.041 C15.562,-0.036 15.284,-0.006 15.048,0.123 C14.814,0.253 14.64,0.472 14.569,0.73 L11.578,11.464 L2.713,14.113 C2.191,14.271 1.891,14.816 2.037,15.342 L2.037,15.342 Z M11.472,41.75 L9.847,35.919 L33.399,28.88 L35.024,34.712 L11.472,41.75 L11.472,41.75 Z M16.222,2.25 L39.774,9.288 L34.895,26.799 L29.432,7.194 C29.361,6.935 29.187,6.716 28.953,6.587 C28.718,6.457 28.44,6.427 28.183,6.505 L13.844,10.791 L16.222,2.25 L16.222,2.25 Z M27.778,8.712 L32.861,26.954 L9.309,33.993 L4.226,15.75 L27.778,8.712 L27.778,8.712 Z" id="Shape" fill="#000000"></path>
        <path d="M10.54,31.888 C10.687,31.964 10.845,32 10.999,32 C11.361,32 11.71,31.804 11.888,31.46 L15.423,24.633 L18.404,26.337 L18.405,26.338 L18.406,26.338 L20.31,27.426 C20.789,27.7 21.4,27.533 21.674,27.054 C21.948,26.575 21.781,25.964 21.302,25.69 L20.215,25.068 L22.47,20.836 L29.298,24.739 C29.777,25.014 30.388,24.846 30.662,24.367 C30.936,23.888 30.769,23.277 30.29,23.003 L22.568,18.588 C22.333,18.454 22.054,18.419 21.795,18.495 C21.535,18.57 21.317,18.747 21.19,18.985 L18.477,24.074 L15.51,22.378 C15.275,22.243 14.992,22.209 14.731,22.287 C14.47,22.364 14.252,22.544 14.127,22.786 L10.112,30.539 C9.858,31.03 10.05,31.634 10.54,31.888 L10.54,31.888 Z" id="Shape" fill="#000000"></path>
        <path d="M11,22 C12.654,22 14,20.654 14,19 C14,17.346 12.654,16 11,16 C9.346,16 8,17.346 8,19 C8,20.654 9.346,22 11,22 L11,22 Z M11,18 C11.552,18 12,18.448 12,19 C12,19.552 11.552,20 11,20 C10.448,20 10,19.552 10,19 C10,18.448 10.448,18 11,18 L11,18 Z" id="Shape" fill="#000000"></path>
    </g>
</svg>