<?xml version="1.0" encoding="UTF-8" standalone="no"?>
<svg width="44px" height="44px" viewBox="0 0 44 44" version="1.1" xmlns="http://www.w3.org/2000/svg" xmlns:xlink="http://www.w3.org/1999/xlink">
    <!-- Generator: Sketch 3.7.2 (28276) - http://www.bohemiancoding.com/sketch -->
    <title>pho-macro</title>
    <desc>Created with Sketch.</desc>
    <defs></defs>
    <g id="44px-Line" stroke="none" stroke-width="1" fill="none" fill-rule="evenodd">
        <g id="pho-macro"></g>
        <path d="M5,44 L37,44 C39.757,44 42,41.757 42,39 L42,7 C42,4.243 39.757,2 37,2 L5,2 C2.243,2 0,4.243 0,7 L0,39 C0,41.757 2.243,44 5,44 L5,44 Z M2,7 C2,5.346 3.346,4 5,4 L37,4 C38.654,4 40,5.346 40,7 L40,39 C40,40.654 38.654,42 37,42 L5,42 C3.346,42 2,40.654 2,39 L2,7 L2,7 Z" id="Shape" fill="#000000"></path>
        <path d="M21,38 C28.196,38 32,34.196 32,27 C32,26.448 31.553,26 31,26 C26.833,26 23.812,27.283 22,29.754 L22,23.92 C25.386,23.432 28,20.52 28,17 L28,9 C28,8.448 27.553,8 27,8 C25.617,8 24.642,9.119 24,10.286 C23.358,9.119 22.383,8 21,8 C19.624,8 18.651,9.108 18.01,10.269 C17.373,9.108 16.4,8 15,8 C14.447,8 14,8.448 14,9 L14,17 C14,20.52 16.614,23.432 20,23.92 L20,29.754 C18.188,27.283 15.167,26 11,26 C10.447,26 10,26.448 10,27 C10,34.196 13.804,38 21,38 L21,38 Z M29.97,28.03 C29.665,33.057 27.058,35.665 22.031,35.969 C22.335,30.943 24.942,28.335 29.97,28.03 L29.97,28.03 Z M16,17 L16,10.827 C16.445,11.504 16.836,12.474 17.03,13.244 C17.141,13.686 17.539,13.997 17.995,13.999 L18,13.999 C18.454,13.999 18.852,13.693 18.968,13.253 C19.318,11.923 20.242,10 21,10 C21.758,10 22.683,11.923 23.032,13.253 C23.148,13.692 23.546,13.999 24,13.999 C24.454,13.999 24.852,13.692 24.968,13.253 C25.168,12.489 25.56,11.528 26,10.849 L26,17 C26,19.757 23.757,22 21,22 C18.243,22 16,19.757 16,17 L16,17 Z M19.97,35.97 C14.943,35.665 12.335,33.057 12.031,28.031 C17.058,28.335 19.665,30.943 19.97,35.97 L19.97,35.97 Z" id="Shape" fill="#000000"></path>
    </g>
</svg>