<?xml version="1.0" encoding="UTF-8" standalone="no"?>
<svg width="44px" height="44px" viewBox="0 0 44 44" version="1.1" xmlns="http://www.w3.org/2000/svg" xmlns:xlink="http://www.w3.org/1999/xlink">
    <!-- Generator: Sketch 3.7.2 (28276) - http://www.bohemiancoding.com/sketch -->
    <title>pho-lens</title>
    <desc>Created with Sketch.</desc>
    <defs></defs>
    <g id="44px-Line" stroke="none" stroke-width="1" fill="none" fill-rule="evenodd">
        <g id="pho-lens"></g>
        <path d="M15,24 C14.447,24 14,24.447 14,25 L14,33 C14,33.553 14.447,34 15,34 C15.553,34 16,33.553 16,33 L16,25 C16,24.447 15.553,24 15,24 L15,24 Z" id="Shape" fill="#000000"></path>
        <path d="M19,34 C19.553,34 20,33.553 20,33 L20,25 C20,24.447 19.553,24 19,24 C18.447,24 18,24.447 18,25 L18,33 C18,33.553 18.447,34 19,34 L19,34 Z" id="Shape" fill="#000000"></path>
        <path d="M23,34 C23.553,34 24,33.553 24,33 L24,25 C24,24.447 23.553,24 23,24 C22.447,24 22,24.447 22,25 L22,33 C22,33.553 22.447,34 23,34 L23,34 Z" id="Shape" fill="#000000"></path>
        <path d="M27,34 C27.553,34 28,33.553 28,33 L28,25 C28,24.447 27.553,24 27,24 C26.447,24 26,24.447 26,25 L26,33 C26,33.553 26.447,34 27,34 L27,34 Z" id="Shape" fill="#000000"></path>
        <path d="M17,44 L25,44 C25.553,44 26,43.553 26,43 L26,38 L30,38 C31.103,38 32,37.103 32,36 L32,22 C33.103,22 34,21.103 34,20 L34,7.303 L37.832,1.555 C38.036,1.248 38.056,0.854 37.882,0.529 C37.708,0.204 37.369,0 37,0 C35.467,0 34.118,0.526 32.813,1.036 C31.543,1.532 30.344,2 29,2 C27.668,2 26.493,1.538 25.249,1.048 C23.939,0.533 22.586,0 21,0 C19.422,0 18.092,0.528 16.805,1.039 C15.56,1.533 14.383,2 13,2 C11.642,2 10.513,1.544 9.317,1.062 C8.022,0.54 6.684,0 5,0 C4.631,0 4.292,0.203 4.118,0.528 C3.944,0.853 3.964,1.248 4.168,1.554 L8,7.302 L8,20 C8,21.103 8.897,22 10,22 L10,36 C10,37.103 10.897,38 12,38 L16,38 L16,43 C16,43.553 16.447,44 17,44 L17,44 Z M24,42 L18,42 L18,38 L24,38 L24,42 L24,42 Z M32,20 L10,20 L10,8 L32,8 L32,20 L32,20 Z M9.535,6 L7.114,2.369 C7.6,2.527 8.079,2.72 8.569,2.917 C9.89,3.45 11.254,4 13,4 C14.766,4 16.241,3.415 17.543,2.898 C18.706,2.436 19.805,2 21,2 C22.206,2 23.329,2.441 24.517,2.909 C25.88,3.445 27.289,4 29,4 C30.721,4 32.154,3.44 33.541,2.899 C33.988,2.725 34.426,2.554 34.859,2.409 L32.465,6 L9.535,6 L9.535,6 Z M12,22 L30,22 L30,36 L12,36 L12,22 L12,22 Z" id="Shape" fill="#000000"></path>
    </g>
</svg>