<?xml version="1.0" encoding="UTF-8" standalone="no"?>
<svg width="64px" height="64px" viewBox="0 0 64 64" version="1.1" xmlns="http://www.w3.org/2000/svg" xmlns:xlink="http://www.w3.org/1999/xlink">
    <!-- Generator: Sketch 3.7.2 (28276) - http://www.bohemiancoding.com/sketch -->
    <title>pho-timer</title>
    <desc>Created with Sketch.</desc>
    <defs></defs>
    <g id="64px-Line" stroke="none" stroke-width="1" fill="none" fill-rule="evenodd">
        <g id="pho-timer"></g>
        <path d="M35.951,8.514 C35.702,5.988 33.59,4 31,4 C28.243,4 26,6.243 26,9 C26,11.757 28.243,14 31,14 C33.226,14 35.096,12.527 35.741,10.512 C46.372,12.732 54,22.03 54,33 C54,45.683 43.682,56 31,56 C18.318,56 8,45.683 8,33 C8,26.856 10.393,21.08 14.737,16.736 C15.128,16.345 15.128,15.713 14.737,15.322 C14.346,14.931 13.714,14.931 13.323,15.322 C8.601,20.044 6,26.322 6,33 C6,46.785 17.215,58 31,58 C44.785,58 56,46.785 56,33 C56,21.007 47.612,10.852 35.951,8.514 L35.951,8.514 Z M31,12 C29.346,12 28,10.654 28,9 C28,7.346 29.346,6 31,6 C32.654,6 34,7.346 34,9 C34,10.654 32.654,12 31,12 L31,12 Z" id="Shape" fill="#000000"></path>
        <path d="M17.156,20.536 L26.767,35.663 C26.964,35.975 27.199,36.268 27.465,36.535 C28.44,37.51 29.72,37.997 31.001,37.997 C32.281,37.997 33.562,37.51 34.537,36.535 C35.48,35.591 36,34.336 36,33 C36,31.664 35.48,30.409 34.536,29.465 C34.28,29.208 33.995,28.98 33.685,28.781 L18.536,19.156 C18.14,18.903 17.623,18.962 17.293,19.293 C16.961,19.624 16.905,20.141 17.156,20.536 L17.156,20.536 Z M32.609,30.467 C32.794,30.586 32.966,30.725 33.121,30.879 C33.687,31.445 33.999,32.198 33.999,33 C33.999,33.802 33.687,34.555 33.121,35.121 C31.952,36.291 30.049,36.29 28.879,35.122 C28.717,34.96 28.576,34.783 28.458,34.596 C28.458,34.594 28.457,34.593 28.456,34.592 L21.249,23.249 L32.609,30.467 L32.609,30.467 Z" id="Shape" fill="#000000"></path>
    </g>
</svg>