<?xml version="1.0" encoding="UTF-8" standalone="no"?>
<svg width="44px" height="44px" viewBox="0 0 44 44" version="1.1" xmlns="http://www.w3.org/2000/svg" xmlns:xlink="http://www.w3.org/1999/xlink">
    <!-- Generator: Sketch 3.7.2 (28276) - http://www.bohemiancoding.com/sketch -->
    <title>pho-compose</title>
    <desc>Created with Sketch.</desc>
    <defs></defs>
    <g id="44px-Glyph" stroke="none" stroke-width="1" fill="none" fill-rule="evenodd">
        <g id="pho-compose" fill="#000000">
            <path d="M36,15 C36,15.553 35.553,16 35,16 C34.447,16 34,15.553 34,15 L34,10 L29,10 C28.447,10 28,9.553 28,9 C28,8.447 28.447,8 29,8 L35,8 C35.553,8 36,8.447 36,9 L36,15 Z M36,37 C36,37.553 35.553,38 35,38 L29,38 C28.447,38 28,37.553 28,37 C28,36.447 28.447,36 29,36 L34,36 L34,31 C34,30.447 34.447,30 35,30 C35.553,30 36,30.447 36,31 L36,37 Z M13,10 L8,10 L8,15 C8,15.553 7.553,16 7,16 C6.447,16 6,15.553 6,15 L6,9 C6,8.447 6.447,8 7,8 L13,8 C13.553,8 14,8.447 14,9 C14,9.553 13.553,10 13,10 L13,10 Z M13,38 L7,38 C6.447,38 6,37.553 6,37 L6,31 C6,30.447 6.447,30 7,30 C7.553,30 8,30.447 8,31 L8,36 L13,36 C13.553,36 14,36.447 14,37 C14,37.553 13.553,38 13,38 L13,38 Z M37,2 L5,2 C2.243,2 0,4.243 0,7 L0,39 C0,41.757 2.243,44 5,44 L37,44 C39.757,44 42,41.757 42,39 L42,7 C42,4.243 39.757,2 37,2 L37,2 Z" id="Fill-206"></path>
        </g>
    </g>
</svg>