<?xml version="1.0" encoding="UTF-8" standalone="no"?>
<svg width="44px" height="44px" viewBox="0 0 44 44" version="1.1" xmlns="http://www.w3.org/2000/svg" xmlns:xlink="http://www.w3.org/1999/xlink">
    <!-- Generator: Sketch 3.7.2 (28276) - http://www.bohemiancoding.com/sketch -->
    <title>pho-camera-tripod</title>
    <desc>Created with Sketch.</desc>
    <defs></defs>
    <g id="44px-Glyph" stroke="none" stroke-width="1" fill="none" fill-rule="evenodd">
        <g id="pho-camera-tripod" fill="#000000">
            <path d="M21,16 C18.243,16 16,13.757 16,11 C16,8.243 18.243,6 21,6 C23.757,6 26,8.243 26,11 C26,13.757 23.757,16 21,16 M33,4 L27.618,4 L25.895,0.553 C25.725,0.214 25.379,0 25,0 L17,0 C16.621,0 16.275,0.214 16.105,0.553 L14.382,4 L9,4 C8.447,4 8,4.447 8,5 L8,19 C8,19.553 8.447,20 9,20 L33,20 C33.553,20 34,19.553 34,19 L34,5 C34,4.447 33.553,4 33,4" id="Fill-122"></path>
            <path d="M21,8 C19.346,8 18,9.346 18,11 C18,12.654 19.346,14 21,14 C22.654,14 24,12.654 24,11 C24,9.346 22.654,8 21,8" id="Fill-124"></path>
            <path d="M35.8193,42.4268 L22.9203,23.9998 L25.0003,23.9998 C25.5523,23.9998 26.0003,23.5528 26.0003,22.9998 C26.0003,22.4468 25.5523,21.9998 25.0003,21.9998 L17.0003,21.9998 C16.4473,21.9998 16.0003,22.4468 16.0003,22.9998 C16.0003,23.5528 16.4473,23.9998 17.0003,23.9998 L19.0793,23.9998 L6.1803,42.4268 C5.8643,42.8788 5.9733,43.5028 6.4273,43.8198 C6.6013,43.9418 6.8013,43.9998 6.9993,43.9998 C7.3143,43.9998 7.6253,43.8518 7.8193,43.5728 L20.0003,26.1728 L20.0003,42.9998 C20.0003,43.5528 20.4473,43.9998 21.0003,43.9998 C21.5523,43.9998 22.0003,43.5528 22.0003,42.9998 L22.0003,26.1728 L34.1803,43.5728 C34.3753,43.8518 34.6853,43.9998 35.0013,43.9998 C35.1993,43.9998 35.3993,43.9418 35.5733,43.8198 C36.0263,43.5028 36.1353,42.8788 35.8193,42.4268" id="Fill-126"></path>
        </g>
    </g>
</svg>