<?xml version="1.0" encoding="UTF-8" standalone="no"?>
<svg width="44px" height="44px" viewBox="0 0 44 44" version="1.1" xmlns="http://www.w3.org/2000/svg" xmlns:xlink="http://www.w3.org/1999/xlink">
    <!-- Generator: Sketch 3.7.2 (28276) - http://www.bohemiancoding.com/sketch -->
    <title>pho-flash-auto</title>
    <desc>Created with Sketch.</desc>
    <defs></defs>
    <g id="44px-Line" stroke="none" stroke-width="1" fill="none" fill-rule="evenodd">
        <g id="pho-flash-auto"></g>
        <path d="M41.589,36.615 C41.588,36.613 41.587,36.611 41.586,36.608 L36.931,24.638 C36.782,24.253 36.411,24 35.999,24 C35.587,24 35.217,24.253 35.067,24.638 L30.412,36.608 C30.411,36.61 30.41,36.612 30.41,36.614 L28.068,42.637 C27.868,43.152 28.123,43.731 28.637,43.931 C29.151,44.131 29.731,43.876 29.931,43.362 L32.016,38 L39.982,38 L42.067,43.362 C42.222,43.758 42.6,44 43,44 C43.121,44 43.243,43.979 43.362,43.932 C43.877,43.732 44.132,43.153 43.931,42.638 L41.589,36.615 L41.589,36.615 Z M32.795,36 L36,27.759 L39.205,36 L32.795,36 L32.795,36 Z" id="Shape" fill="#000000"></path>
        <path d="M22.428,0.096 C22.026,-0.096 21.543,0.005 21.247,0.341 L0.247,24.341 C-0.011,24.636 -0.073,25.055 0.09,25.412 C0.252,25.769 0.608,25.999 1,25.999 L13.819,25.999 L11.013,42.835 C10.938,43.284 11.177,43.729 11.594,43.913 C11.725,43.971 11.863,43.999 11.999,43.999 C12.297,43.999 12.589,43.865 12.783,43.62 L31.783,19.62 C32.021,19.319 32.066,18.909 31.899,18.564 C31.732,18.219 31.384,18 31,18 L20.181,18 L22.987,1.165 C23.06,0.724 22.832,0.287 22.428,0.096 L22.428,0.096 Z M18.014,18.835 C17.965,19.125 18.047,19.421 18.238,19.646 C18.427,19.87 18.707,20 19.001,20 L28.934,20 L13.625,39.337 L15.987,25.164 C16.036,24.874 15.954,24.578 15.763,24.353 C15.573,24.129 15.294,24 15,24 L3.204,24 L20.434,4.307 L18.014,18.835 L18.014,18.835 Z" id="Shape" fill="#000000"></path>
    </g>
</svg>