<?xml version="1.0" encoding="UTF-8" standalone="no"?>
<svg width="64px" height="64px" viewBox="0 0 64 64" version="1.1" xmlns="http://www.w3.org/2000/svg" xmlns:xlink="http://www.w3.org/1999/xlink">
    <!-- Generator: Sketch 3.7.2 (28276) - http://www.bohemiancoding.com/sketch -->
    <title>pho-slr-flash</title>
    <desc>Created with Sketch.</desc>
    <defs></defs>
    <g id="64px-Line" stroke="none" stroke-width="1" fill="none" fill-rule="evenodd">
        <g id="pho-slr-flash"></g>
        <path d="M14,38 C12.897,38 12,38.897 12,40 L12,58 C12,59.103 12.897,60 14,60 L48,60 C49.103,60 50,59.103 50,58 L50,40 C50,38.897 49.103,38 48,38 L42.071,38 C41.736,38 41.425,37.833 41.239,37.555 L38.426,33.336 C37.868,32.5 36.935,32 35.929,32 L26.07,32 C25.065,32 24.132,32.5 23.574,33.336 L20.762,37.555 C20.576,37.833 20.265,38 19.93,38 L14,38 L14,38 Z M22.426,38.664 L25.238,34.445 C25.424,34.167 25.735,34 26.07,34 L35.929,34 C36.264,34 36.575,34.167 36.761,34.445 L39.574,38.664 C40.132,39.5 41.065,40 42.071,40 L48,40 L48.001,58 L14,58 L14,40 L19.93,40 C20.935,40 21.868,39.5 22.426,38.664 L22.426,38.664 Z" id="Shape" fill="#000000"></path>
        <path d="M14,35 C14,35.552 14.448,36 15,36 L19,36 C19.552,36 20,35.552 20,35 C20,34.448 19.552,34 19,34 L15,34 C14.448,34 14,34.448 14,35 L14,35 Z" id="Shape" fill="#000000"></path>
        <path d="M31,56 C35.962,56 40,51.962 40,47 C40,42.038 35.962,38 31,38 C26.038,38 22,42.038 22,47 C22,51.962 26.038,56 31,56 L31,56 Z M31,40 C34.86,40 38,43.14 38,47 C38,50.86 34.86,54 31,54 C27.14,54 24,50.86 24,47 C24,43.14 27.14,40 31,40 L31,40 Z" id="Shape" fill="#000000"></path>
        <path d="M27,48 C27.552,48 28,47.552 28,47 C28,45.346 29.346,44 31,44 C31.552,44 32,43.552 32,43 C32,42.448 31.552,42 31,42 C28.243,42 26,44.243 26,47 C26,47.552 26.448,48 27,48 L27,48 Z" id="Shape" fill="#000000"></path>
        <path d="M25,30 L37,30 C38.654,30 40,28.654 40,27 L40,9 C40,7.346 38.654,6 37,6 L25,6 C23.346,6 22,7.346 22,9 L22,27 C22,28.654 23.346,30 25,30 L25,30 Z M37,28 L25,28 C24.449,28 24,27.551 24,27 L24,20 L38,20 L38,27 C38,27.551 37.551,28 37,28 L37,28 Z M25,8 L37,8 C37.551,8 38,8.449 38,9 L38,18 L24,18 L24,9 C24,8.449 24.449,8 25,8 L25,8 Z" id="Shape" fill="#000000"></path>
        <path d="M9,14 L15,14 C15.552,14 16,13.552 16,13 C16,12.448 15.552,12 15,12 L9,12 C8.448,12 8,12.448 8,13 C8,13.552 8.448,14 9,14 L9,14 Z" id="Shape" fill="#000000"></path>
        <path d="M10.485,5.857 L15.485,8.857 C15.646,8.954 15.824,9 15.999,9 C16.339,9 16.67,8.827 16.857,8.515 C17.141,8.041 16.988,7.427 16.514,7.143 L11.514,4.143 C11.039,3.858 10.426,4.012 10.142,4.486 C9.858,4.959 10.012,5.573 10.485,5.857 L10.485,5.857 Z" id="Shape" fill="#000000"></path>
        <path d="M16.857,17.485 C16.573,17.011 15.959,16.859 15.485,17.142 L10.485,20.142 C10.011,20.426 9.858,21.04 10.142,21.514 C10.33,21.827 10.661,22 11.001,22 C11.176,22 11.354,21.954 11.515,21.857 L16.515,18.857 C16.988,18.573 17.142,17.959 16.857,17.485 L16.857,17.485 Z" id="Shape" fill="#000000"></path>
        <path d="M46,13 C46,13.552 46.448,14 47,14 L53,14 C53.552,14 54,13.552 54,13 C54,12.448 53.552,12 53,12 L47,12 C46.448,12 46,12.448 46,13 L46,13 Z" id="Shape" fill="#000000"></path>
        <path d="M46.001,9 C46.176,9 46.354,8.954 46.515,8.857 L51.515,5.857 C51.989,5.573 52.142,4.959 51.858,4.485 C51.573,4.011 50.959,3.859 50.486,4.142 L45.486,7.142 C45.012,7.426 44.859,8.04 45.143,8.514 C45.33,8.827 45.661,9 46.001,9 L46.001,9 Z" id="Shape" fill="#000000"></path>
        <path d="M45.485,18.857 L50.485,21.857 C50.646,21.954 50.824,22 50.999,22 C51.339,22 51.67,21.827 51.857,21.515 C52.141,21.041 51.988,20.427 51.514,20.143 L46.514,17.143 C46.04,16.859 45.426,17.012 45.142,17.486 C44.858,17.959 45.012,18.573 45.485,18.857 L45.485,18.857 Z" id="Shape" fill="#000000"></path>
    </g>
</svg>