<?xml version="1.0" encoding="UTF-8" standalone="no"?>
<svg width="44px" height="44px" viewBox="0 0 44 44" version="1.1" xmlns="http://www.w3.org/2000/svg" xmlns:xlink="http://www.w3.org/1999/xlink">
    <!-- Generator: Sketch 3.7.2 (28276) - http://www.bohemiancoding.com/sketch -->
    <title>pho-filters</title>
    <desc>Created with Sketch.</desc>
    <defs></defs>
    <g id="44px-Line" stroke="none" stroke-width="1" fill="none" fill-rule="evenodd">
        <g id="pho-filters"></g>
        <path d="M39.521,13.587 L17.521,0.147 C17.211,-0.042 16.826,-0.047 16.51,0.128 C16.195,0.305 16,0.639 16,1 L16,7.77 L3.521,0.146 C3.211,-0.043 2.826,-0.048 2.51,0.127 C2.195,0.305 2,0.639 2,1 L2,29.56 C2,29.909 2.181,30.232 2.479,30.414 L24.479,43.854 C24.639,43.952 24.82,44 25,44 C25.168,44 25.337,43.957 25.489,43.872 C25.804,43.695 26,43.361 26,43 L26,36.23 L38.479,43.853 C38.639,43.951 38.82,43.999 39,43.999 C39.168,43.999 39.337,43.956 39.489,43.871 C39.804,43.694 40,43.36 40,42.999 L40,14.439 C40,14.092 39.819,13.769 39.521,13.587 L39.521,13.587 Z M4,28.999 L4,2.783 L16,10.114 L16,11.383 C16,11.936 16.448,12.383 17,12.383 C17.552,12.383 18,11.936 18,11.383 L18,11.336 L24,15.002 L24,32.665 L23.909,32.609 C23.438,32.321 22.823,32.469 22.534,32.941 C22.246,33.413 22.395,34.028 22.866,34.316 L24,35.009 L24,41.217 L4,28.999 L4,28.999 Z M38,41.217 L26,33.886 L26,14.44 C26,14.091 25.819,13.768 25.521,13.586 L18,8.992 L18,2.784 L38,15.002 L38,41.217 L38,41.217 Z" id="Shape" fill="#000000"></path>
        <path d="M20.78,30.697 L19.216,29.742 C18.745,29.454 18.129,29.603 17.841,30.074 C17.553,30.546 17.702,31.161 18.174,31.449 L19.738,32.404 C19.901,32.504 20.08,32.55 20.258,32.55 C20.595,32.55 20.924,32.38 21.112,32.071 C21.4,31.601 21.252,30.985 20.78,30.697 L20.78,30.697 Z" id="Shape" fill="#000000"></path>
        <path d="M17,23.381 C17.552,23.381 18,22.934 18,22.381 L18,20.548 C18,19.995 17.552,19.548 17,19.548 C16.448,19.548 16,19.995 16,20.548 L16,22.381 C16,22.934 16.448,23.381 17,23.381 L17,23.381 Z" id="Shape" fill="#000000"></path>
        <path d="M17,17.882 C17.552,17.882 18,17.435 18,16.882 L18,15.049 C18,14.496 17.552,14.049 17,14.049 C16.448,14.049 16,14.496 16,15.049 L16,16.882 C16,17.435 16.448,17.882 17,17.882 L17,17.882 Z" id="Shape" fill="#000000"></path>
        <path d="M18,27.88 L18,26.047 C18,25.494 17.552,25.047 17,25.047 C16.448,25.047 16,25.494 16,26.047 L16,27.88 C16,28.433 16.448,28.88 17,28.88 C17.552,28.88 18,28.433 18,27.88 L18,27.88 Z" id="Shape" fill="#000000"></path>
    </g>
</svg>