<?xml version="1.0" encoding="UTF-8" standalone="no"?>
<svg width="44px" height="44px" viewBox="0 0 44 44" version="1.1" xmlns="http://www.w3.org/2000/svg" xmlns:xlink="http://www.w3.org/1999/xlink">
    <!-- Generator: Sketch 3.7.2 (28276) - http://www.bohemiancoding.com/sketch -->
    <title>pho-filter</title>
    <desc>Created with Sketch.</desc>
    <defs></defs>
    <g id="44px-Line" stroke="none" stroke-width="1" fill="none" fill-rule="evenodd">
        <g id="pho-filter"></g>
        <path d="M27,6 C25.26,6 23.582,6.265 22,6.753 C20.418,6.265 18.74,6 17,6 C7.626,6 0,13.626 0,23 C0,32.374 7.626,40 17,40 C18.74,40 20.418,39.735 22,39.247 C23.582,39.735 25.26,40 27,40 C36.374,40 44,32.374 44,23 C44,13.626 36.374,6 27,6 L27,6 Z M17,38 C8.729,38 2,31.271 2,23 C2,14.729 8.729,8 17,8 C17.61,8 18.208,8.047 18.799,8.119 C17.739,8.705 16.756,9.409 15.85,10.199 C15.776,10.251 15.71,10.308 15.653,10.378 C14.36,11.542 13.247,12.897 12.359,14.405 C12.302,14.48 12.247,14.555 12.213,14.645 C11.518,15.871 10.979,17.191 10.604,18.581 C10.566,18.662 10.552,18.751 10.537,18.842 C10.199,20.175 10,21.563 10,23 C10,26.038 10.811,28.885 12.212,31.355 C12.247,31.446 12.301,31.522 12.359,31.597 C13.247,33.104 14.359,34.458 15.652,35.621 C15.709,35.691 15.775,35.748 15.85,35.801 C16.756,36.592 17.739,37.295 18.799,37.881 C18.208,37.953 17.61,38 17,38 L17,38 Z M27.164,34 L16.836,34 C16.175,33.389 15.571,32.72 15.028,32 L28.971,32 C28.429,32.72 27.825,33.389 27.164,34 L27.164,34 Z M24.452,36 C23.676,36.447 22.856,36.821 22,37.125 C21.145,36.821 20.325,36.447 19.548,36 L24.452,36 L24.452,36 Z M31.698,26 L12.303,26 C12.17,25.349 12.096,24.679 12.051,24 L31.95,24 C31.904,24.679 31.83,25.349 31.698,26 L31.698,26 Z M31.949,22 L12.05,22 C12.095,21.321 12.169,20.651 12.302,20 L31.697,20 C31.83,20.651 31.904,21.321 31.949,22 L31.949,22 Z M30.257,30 L13.744,30 C13.405,29.36 13.121,28.69 12.876,28 L31.126,28 C30.88,28.69 30.596,29.36 30.257,30 L30.257,30 Z M12.875,18 C13.12,17.31 13.404,16.64 13.743,16 L30.256,16 C30.595,16.64 30.879,17.31 31.124,18 L12.875,18 L12.875,18 Z M15.028,14 C15.571,13.28 16.175,12.611 16.836,12 L27.163,12 C27.824,12.611 28.428,13.28 28.971,14 L15.028,14 L15.028,14 Z M19.548,10 C20.324,9.553 21.144,9.179 22,8.875 C22.855,9.179 23.675,9.553 24.452,10 L19.548,10 L19.548,10 Z M27,38 C26.39,38 25.792,37.953 25.201,37.881 C26.26,37.295 27.243,36.592 28.15,35.801 C28.224,35.748 28.29,35.692 28.348,35.621 C29.641,34.458 30.752,33.103 31.641,31.597 C31.699,31.521 31.754,31.445 31.788,31.354 C32.483,30.129 33.022,28.809 33.397,27.419 C33.435,27.338 33.449,27.248 33.465,27.157 C33.802,25.824 34.001,24.436 34.001,22.999 C34.001,21.562 33.802,20.174 33.465,18.84 C33.45,18.749 33.435,18.659 33.398,18.578 C33.023,17.188 32.484,15.868 31.789,14.643 C31.755,14.553 31.7,14.477 31.643,14.402 C30.755,12.895 29.642,11.54 28.349,10.376 C28.292,10.306 28.226,10.25 28.152,10.197 C27.246,9.406 26.262,8.703 25.203,8.117 C25.792,8.047 26.39,8 27,8 C35.271,8 42,14.729 42,23 C42,31.271 35.271,38 27,38 L27,38 Z" id="Shape" fill="#000000"></path>
    </g>
</svg>