<?xml version="1.0" encoding="UTF-8" standalone="no"?>
<svg width="44px" height="44px" viewBox="0 0 44 44" version="1.1" xmlns="http://www.w3.org/2000/svg" xmlns:xlink="http://www.w3.org/1999/xlink">
    <!-- Generator: Sketch 3.7.2 (28276) - http://www.bohemiancoding.com/sketch -->
    <title>pho-polaroids</title>
    <desc>Created with Sketch.</desc>
    <defs></defs>
    <g id="44px-Line" stroke="none" stroke-width="1" fill="none" fill-rule="evenodd">
        <g id="pho-polaroids"></g>
        <path d="M41,4 L3,4 C2.447,4 2,4.447 2,5 L2,43 C2,43.553 2.447,44 3,44 L41,44 C41.553,44 42,43.553 42,43 L42,5 C42,4.447 41.553,4 41,4 L41,4 Z M40,42 L4,42 L4,6 L40,6 L40,42 L40,42 Z" id="Shape" fill="#000000"></path>
        <path d="M7,36 L37,36 C37.553,36 38,35.553 38,35 L38,9 C38,8.447 37.553,8 37,8 L7,8 C6.447,8 6,8.447 6,9 L6,35 C6,35.553 6.447,36 7,36 L7,36 Z M8,34 L8,31.414 L15,24.414 L22.293,31.707 C22.488,31.902 22.744,32 23,32 C23.256,32 23.512,31.902 23.707,31.707 C24.098,31.316 24.098,30.684 23.707,30.293 L21.414,28 L29,20.414 L36,27.414 L36,34 L8,34 L8,34 Z M36,10 L36,24.586 L29.707,18.293 C29.316,17.902 28.684,17.902 28.293,18.293 L20,26.586 L15.707,22.293 C15.316,21.902 14.684,21.902 14.293,22.293 L8,28.586 L8,10 L36,10 L36,10 Z" id="Shape" fill="#000000"></path>
        <path d="M14,20 C16.206,20 18,18.206 18,16 C18,13.794 16.206,12 14,12 C11.794,12 10,13.794 10,16 C10,18.206 11.794,20 14,20 L14,20 Z M14,14 C15.103,14 16,14.897 16,16 C16,17.103 15.103,18 14,18 C12.897,18 12,17.103 12,16 C12,14.897 12.897,14 14,14 L14,14 Z" id="Shape" fill="#000000"></path>
        <path d="M6,1 C6,1.553 6.447,2 7,2 L37,2 C37.553,2 38,1.553 38,1 C38,0.447 37.553,0 37,0 L7,0 C6.447,0 6,0.447 6,1 L6,1 Z" id="Shape" fill="#000000"></path>
    </g>
</svg>