<?xml version="1.0" encoding="UTF-8" standalone="no"?>
<svg width="44px" height="44px" viewBox="0 0 44 44" version="1.1" xmlns="http://www.w3.org/2000/svg" xmlns:xlink="http://www.w3.org/1999/xlink">
    <!-- Generator: Sketch 3.7.2 (28276) - http://www.bohemiancoding.com/sketch -->
    <title>pho-camera</title>
    <desc>Created with Sketch.</desc>
    <defs></defs>
    <g id="44px-Glyph" stroke="none" stroke-width="1" fill="none" fill-rule="evenodd">
        <g id="pho-camera" fill="#000000">
            <path d="M7,8 L5,8 C4.447,8 4,7.553 4,7 C4,6.447 4.447,6 5,6 L7,6 C7.553,6 8,6.447 8,7 C8,7.553 7.553,8 7,8" id="Fill-192"></path>
            <path d="M22,16 C18.691,16 16,18.691 16,22 C16,25.309 18.691,28 22,28 C25.309,28 28,25.309 28,22 C28,18.691 25.309,16 22,16" id="Fill-193"></path>
            <path d="M22,30 C17.589,30 14,26.411 14,22 C14,17.589 17.589,14 22,14 C26.411,14 30,17.589 30,22 C30,26.411 26.411,30 22,30 M22,12 C16.486,12 12,16.486 12,22 C12,27.514 16.486,32 22,32 C27.514,32 32,27.514 32,22 C32,16.486 27.514,12 22,12" id="Fill-194"></path>
            <path d="M22,34 C15.383,34 10,28.617 10,22 C10,15.383 15.383,10 22,10 C28.617,10 34,15.383 34,22 C34,28.617 28.617,34 22,34 M40,10 L35,10 C34.29,10 33.639,9.626 33.278,9.019 C33.259,8.973 33.236,8.928 33.21,8.886 L31.553,6.159 C30.86,4.827 29.499,4 28,4 L16,4 C14.5,4 13.14,4.827 12.481,6.101 L10.79,8.885 C10.764,8.928 10.741,8.972 10.723,9.017 C10.362,9.626 9.71,10 9,10 L4,10 C1.794,10 0,11.794 0,14 L0,34 C0,36.206 1.794,38 4,38 L40,38 C42.206,38 44,36.206 44,34 L44,14 C44,11.794 42.206,10 40,10" id="Fill-195"></path>
        </g>
    </g>
</svg>