<?xml version="1.0" encoding="UTF-8" standalone="no"?>
<svg width="44px" height="44px" viewBox="0 0 44 44" version="1.1" xmlns="http://www.w3.org/2000/svg" xmlns:xlink="http://www.w3.org/1999/xlink">
    <!-- Generator: Sketch 3.7.2 (28276) - http://www.bohemiancoding.com/sketch -->
    <title>pho-portrait-photo</title>
    <desc>Created with Sketch.</desc>
    <defs></defs>
    <g id="44px-Line" stroke="none" stroke-width="1" fill="none" fill-rule="evenodd">
        <g id="pho-portrait-photo"></g>
        <path d="M43,6 L1,6 C0.448,6 0,6.447 0,7 L0,39 C0,39.553 0.448,40 1,40 L43,40 C43.552,40 44,39.553 44,39 L44,7 C44,6.447 43.552,6 43,6 L43,6 Z M42,38 L2,38 L2,8 L42,8 L42,38 L42,38 Z" id="Shape" fill="#000000"></path>
        <path d="M13,34 C13.552,34 14,33.553 14,33 L14,32 C14,27.589 17.589,24 22,24 C26.411,24 30,27.589 30,32 L30,33 C30,33.553 30.448,34 31,34 C31.552,34 32,33.553 32,33 L32,32 C32,27.792 29.384,24.19 25.696,22.717 C27.096,21.617 28,19.914 28,18 C28,14.691 25.309,12 22,12 C18.691,12 16,14.691 16,18 C16,19.914 16.904,21.617 18.304,22.717 C14.616,24.19 12,27.792 12,32 L12,33 C12,33.553 12.448,34 13,34 L13,34 Z M18,18 C18,15.794 19.794,14 22,14 C24.206,14 26,15.794 26,18 C26,20.206 24.206,22 22,22 C19.794,22 18,20.206 18,18 L18,18 Z" id="Shape" fill="#000000"></path>
    </g>
</svg>