<?xml version="1.0" encoding="UTF-8" standalone="no"?>
<svg width="44px" height="44px" viewBox="0 0 44 44" version="1.1" xmlns="http://www.w3.org/2000/svg" xmlns:xlink="http://www.w3.org/1999/xlink">
    <!-- Generator: Sketch 3.7.2 (28276) - http://www.bohemiancoding.com/sketch -->
    <title>pho-contrast</title>
    <desc>Created with Sketch.</desc>
    <defs></defs>
    <g id="44px-Glyph" stroke="none" stroke-width="1" fill="none" fill-rule="evenodd">
        <g id="pho-contrast" fill="#000000">
            <path d="M7.1816,36 L19.9996,36 L19.9996,38 L9.3816,38 C8.5966,37.391 7.8616,36.723 7.1816,36 L7.1816,36 Z M9.3816,8 L19.9996,8 L19.9996,10 L7.1816,10 C7.8616,9.277 8.5966,8.609 9.3816,8 L9.3816,8 Z M19.9996,41.949 C17.3406,41.81 14.8276,41.127 12.5656,40 L19.9996,40 L19.9996,41.949 Z M19.9996,28 L19.9996,30 L3.3526,30 C3.0946,29.351 2.8766,28.682 2.6896,28 L19.9996,28 Z M19.9996,20 L19.9996,22 L2.0506,22 C2.0866,21.323 2.1556,20.656 2.2606,20 L19.9996,20 Z M19.9996,26 L2.2606,26 C2.1556,25.344 2.0866,24.677 2.0506,24 L19.9996,24 L19.9996,26 Z M19.9996,6 L12.5656,6 C14.8276,4.873 17.3406,4.19 19.9996,4.051 L19.9996,6 Z M5.5366,12 L19.9996,12 L19.9996,14 L4.2726,14 C4.6496,13.303 5.0796,12.642 5.5366,12 L5.5366,12 Z M3.3526,16 L19.9996,16 L19.9996,18 L2.6896,18 C2.8766,17.318 3.0946,16.649 3.3526,16 L3.3526,16 Z M4.2726,32 L19.9996,32 L19.9996,34 L5.5366,34 C5.0796,33.358 4.6496,32.697 4.2726,32 L4.2726,32 Z M20.9996,2 C16.3676,2 12.0946,3.526 8.6186,6.077 C8.4736,6.136 8.3546,6.234 8.2536,6.35 C6.7866,7.476 5.4756,8.787 4.3496,10.254 C4.2336,10.355 4.1356,10.475 4.0756,10.62 C3.1876,11.831 2.4196,13.133 1.8036,14.522 C1.7766,14.57 1.7506,14.618 1.7316,14.671 C0.6226,17.227 -0.0004,20.041 -0.0004,23 C-0.0004,25.96 0.6226,28.775 1.7326,31.332 C1.7506,31.383 1.7756,31.427 1.8016,31.474 C2.4176,32.864 3.1866,34.168 4.0756,35.38 C4.1356,35.525 4.2336,35.645 4.3496,35.746 C5.4756,37.213 6.7866,38.524 8.2536,39.65 C8.3546,39.766 8.4736,39.864 8.6186,39.923 C12.0946,42.474 16.3676,44 20.9996,44 C32.5796,44 41.9996,34.579 41.9996,23 C41.9996,11.421 32.5796,2 20.9996,2 L20.9996,2 Z" id="Fill-242"></path>
        </g>
    </g>
</svg>