<?xml version="1.0" encoding="UTF-8" standalone="no"?>
<svg width="64px" height="64px" viewBox="0 0 64 64" version="1.1" xmlns="http://www.w3.org/2000/svg" xmlns:xlink="http://www.w3.org/1999/xlink">
    <!-- Generator: Sketch 3.7.2 (28276) - http://www.bohemiancoding.com/sketch -->
    <title>pho-umbrella</title>
    <desc>Created with Sketch.</desc>
    <defs></defs>
    <g id="64px-Line" stroke="none" stroke-width="1" fill="none" fill-rule="evenodd">
        <g id="pho-umbrella"></g>
        <path d="M49.707,11.707 C50.098,11.316 50.098,10.684 49.707,10.293 C49.316,9.902 48.684,9.902 48.293,10.293 L47.401,11.186 C43.718,7.847 39.006,6 34,6 C28.658,6 23.635,8.08 19.858,11.858 C19.467,12.249 19.467,12.881 19.858,13.272 L27.209,20.623 C27.209,20.623 27.209,20.624 27.21,20.624 L27.211,20.624 L32.586,26 L20.293,38.293 C20.105,38.48 20,38.734 20,39 L20,48.586 L10.293,58.293 C9.902,58.684 9.902,59.316 10.293,59.707 C10.684,60.098 11.316,60.098 11.707,59.707 L20,51.414 L20,59 C20,59.553 20.448,60 21,60 C21.552,60 22,59.553 22,59 L22,51.414 L30.293,59.707 C30.488,59.902 30.744,60 31,60 C31.256,60 31.512,59.902 31.707,59.707 C32.098,59.316 32.098,58.684 31.707,58.293 L22,48.586 L22,39.414 L34,27.414 L46.728,40.142 C46.923,40.337 47.179,40.435 47.435,40.435 C47.691,40.435 47.947,40.337 48.142,40.142 C55.701,32.583 55.91,20.442 48.813,12.601 L49.707,11.707 L49.707,11.707 Z M29.356,19.942 C36.798,13.034 45.588,12.632 46.705,13.264 C47.363,14.47 46.945,23.227 40.058,30.644 L29.356,19.942 L29.356,19.942 Z M34,8 C37.664,8 41.156,9.093 44.117,11.115 C42.784,11.204 41.324,11.461 40.006,11.806 C36.847,12.635 32.259,14.472 27.931,18.516 L21.999,12.584 C25.303,9.621 29.527,8 34,8 L34,8 Z M47.416,38.001 L41.485,32.07 C45.53,27.741 47.367,23.153 48.196,19.994 C48.542,18.678 48.798,17.221 48.888,15.889 C53.464,22.622 52.977,31.792 47.416,38.001 L47.416,38.001 Z" id="Shape" fill="#000000"></path>
    </g>
</svg>