<?xml version="1.0" encoding="UTF-8" standalone="no"?>
<svg width="44px" height="44px" viewBox="0 0 44 44" version="1.1" xmlns="http://www.w3.org/2000/svg" xmlns:xlink="http://www.w3.org/1999/xlink">
    <!-- Generator: Sketch 3.7.2 (28276) - http://www.bohemiancoding.com/sketch -->
    <title>pho-film</title>
    <desc>Created with Sketch.</desc>
    <defs></defs>
    <g id="44px-Line" stroke="none" stroke-width="1" fill="none" fill-rule="evenodd">
        <g id="pho-film"></g>
        <path d="M25,18 C25.552,18 26,17.553 26,17 L26,16 L27,16 C27.552,16 28,15.553 28,15 C28,14.447 27.552,14 27,14 L25,14 C24.448,14 24,14.447 24,15 L24,17 C24,17.553 24.448,18 25,18 L25,18 Z" id="Shape" fill="#000000"></path>
        <path d="M31,18 C31.552,18 32,17.553 32,17 L32,16 L33,16 C33.552,16 34,15.553 34,15 C34,14.447 33.552,14 33,14 L31,14 C30.448,14 30,14.447 30,15 L30,17 C30,17.553 30.448,18 31,18 L31,18 Z" id="Shape" fill="#000000"></path>
        <path d="M25,34 C25.552,34 26,33.553 26,33 L26,32 L27,32 C27.552,32 28,31.553 28,31 C28,30.447 27.552,30 27,30 L25,30 C24.448,30 24,30.447 24,31 L24,33 C24,33.553 24.448,34 25,34 L25,34 Z" id="Shape" fill="#000000"></path>
        <path d="M31,34 C31.552,34 32,33.553 32,33 L32,32 L33,32 C33.552,32 34,31.553 34,31 C34,30.447 33.552,30 33,30 L31,30 C30.448,30 30,30.447 30,31 L30,33 C30,33.553 30.448,34 31,34 L31,34 Z" id="Shape" fill="#000000"></path>
        <path d="M37,18 C37.552,18 38,17.553 38,17 L38,16 L39,16 C39.552,16 40,15.553 40,15 C40,14.447 39.552,14 39,14 L37,14 C36.448,14 36,14.447 36,15 L36,17 C36,17.553 36.448,18 37,18 L37,18 Z" id="Shape" fill="#000000"></path>
        <path d="M43,10 L22,10 C23.103,10 24,9.103 24,8 L24,6 C24,4.897 23.103,4 22,4 L16,4 L16,1 C16,0.447 15.552,0 15,0 L9,0 C8.448,0 8,0.447 8,1 L8,4 L2,4 C0.897,4 0,4.897 0,6 L0,8 C0,9.103 0.897,10 2,10 L2,38 C0.897,38 0,38.897 0,40 L0,42 C0,43.103 0.897,44 2,44 L22,44 C23.103,44 24,43.103 24,42 L24,40 C24,38.897 23.103,38 22,38 L37,38 C37.552,38 38,37.553 38,37 C38,34.57 40.57,32 43,32 C43.552,32 44,31.553 44,31 L44,11 C44,10.447 43.552,10 43,10 L43,10 Z M10,2 L14,2 L14,4 L10,4 L10,2 L10,2 Z M2,6 L22,6 L22,8 L2,8 L2,6 L2,6 Z M4,10 L20,10 L20,38 L4,38 L4,10 L4,10 Z M22,42 L2,42 L2,40 L22,40 L22,42 L22,42 Z M42,30.091 C39.172,30.599 36.599,33.172 36.091,36 L22,36 L22,12 L42,12 L42,30.091 L42,30.091 Z" id="Shape" fill="#000000"></path>
    </g>
</svg>