<?xml version="1.0" encoding="UTF-8" standalone="no"?>
<svg width="64px" height="64px" viewBox="0 0 64 64" version="1.1" xmlns="http://www.w3.org/2000/svg" xmlns:xlink="http://www.w3.org/1999/xlink">
    <!-- Generator: Sketch 3.7.2 (28276) - http://www.bohemiancoding.com/sketch -->
    <title>pho-lighting</title>
    <desc>Created with Sketch.</desc>
    <defs></defs>
    <g id="64px-Line" stroke="none" stroke-width="1" fill="none" fill-rule="evenodd">
        <g id="pho-lighting"></g>
        <path d="M19,26 C19.081,26 19.162,25.99 19.242,25.97 L25.626,24.374 L24.03,30.757 C23.955,31.056 24.022,31.372 24.212,31.615 C24.402,31.858 24.692,32 25,32 L30,32 L30,50.586 L22.293,58.293 C21.902,58.684 21.902,59.316 22.293,59.707 C22.684,60.098 23.316,60.098 23.707,59.707 L30,53.414 L30,59 C30,59.552 30.447,60 31,60 C31.553,60 32,59.552 32,59 L32,53.414 L38.293,59.707 C38.488,59.902 38.744,60 39,60 C39.256,60 39.512,59.902 39.707,59.707 C40.098,59.316 40.098,58.684 39.707,58.293 L32,50.586 L32,32 L37,32 C37.308,32 37.599,31.858 37.788,31.615 C37.977,31.372 38.045,31.056 37.97,30.757 L36.374,24.374 L42.758,25.97 C42.838,25.99 42.919,26 43,26 C43.221,26 43.438,25.927 43.615,25.788 C43.858,25.599 44,25.308 44,25 L44,13 C44,12.692 43.858,12.401 43.615,12.212 C43.371,12.022 43.054,11.954 42.758,12.03 L36.374,13.626 L37.97,7.243 C38.045,6.944 37.978,6.628 37.788,6.385 C37.598,6.142 37.308,6 37,6 L25,6 C24.692,6 24.401,6.142 24.212,6.385 C24.023,6.628 23.955,6.944 24.03,7.243 L25.626,13.626 L19.242,12.03 C18.944,11.956 18.628,12.023 18.385,12.212 C18.142,12.401 18,12.692 18,13 L18,25 C18,25.308 18.142,25.599 18.385,25.788 C18.562,25.927 18.779,26 19,26 L19,26 Z M31,16 C32.654,16 34,17.346 34,19 C34,20.654 32.654,22 31,22 C29.346,22 28,20.654 28,19 C28,17.346 29.346,16 31,16 L31,16 Z M26.281,30 L27.781,24 L34.219,24 L35.719,30 L26.281,30 L26.281,30 Z M42,23.719 L36,22.219 L36,15.781 L42,14.281 L42,23.719 L42,23.719 Z M35.719,8 L34.219,14 L27.781,14 L26.281,8 L35.719,8 L35.719,8 Z M20,14.281 L26,15.781 L26,22.219 L20,23.719 L20,14.281 L20,14.281 Z" id="Shape" fill="#000000"></path>
    </g>
</svg>