<?xml version="1.0" encoding="UTF-8" standalone="no"?>
<svg width="44px" height="44px" viewBox="0 0 44 44" version="1.1" xmlns="http://www.w3.org/2000/svg" xmlns:xlink="http://www.w3.org/1999/xlink">
    <!-- Generator: Sketch 3.7.2 (28276) - http://www.bohemiancoding.com/sketch -->
    <title>pho-1-1</title>
    <desc>Created with Sketch.</desc>
    <defs></defs>
    <g id="44px-Glyph" stroke="none" stroke-width="1" fill="none" fill-rule="evenodd">
        <g id="pho-1-1" fill="#000000">
            <path d="M31,30 C30.448,30 30,29.553 30,29 L30,19.414 L29.707,19.707 C29.316,20.098 28.684,20.098 28.293,19.707 C27.902,19.316 27.902,18.684 28.293,18.293 L30.293,16.293 C30.579,16.006 31.008,15.919 31.383,16.076 C31.756,16.23 32,16.596 32,17 L32,29 C32,29.553 31.552,30 31,30 L31,30 Z M23.71,21.71 C23.52,21.899 23.27,22 23,22 C22.73,22 22.48,21.899 22.29,21.71 C22.1,21.52 22,21.27 22,21 C22,20.93 22.01,20.87 22.02,20.8 C22.03,20.739 22.05,20.68 22.08,20.62 C22.1,20.56 22.13,20.5 22.17,20.44 C22.2,20.39 22.25,20.34 22.29,20.29 C22.66,19.92 23.33,19.92 23.71,20.29 C23.89,20.479 24,20.739 24,21 C24,21.27 23.9,21.52 23.71,21.71 L23.71,21.71 Z M23.71,25.71 C23.52,25.899 23.26,26 23,26 C22.73,26 22.48,25.899 22.29,25.71 C22.1,25.52 22,25.27 22,25 C22,24.739 22.11,24.479 22.29,24.29 C22.57,24.01 23.01,23.93 23.38,24.08 C23.51,24.13 23.62,24.2 23.71,24.29 C23.8,24.39 23.87,24.5 23.92,24.62 C23.97,24.739 24,24.87 24,25 C24,25.27 23.9,25.52 23.71,25.71 L23.71,25.71 Z M16,29 C16,29.553 15.552,30 15,30 C14.448,30 14,29.553 14,29 L14,19.414 L13.707,19.707 C13.316,20.098 12.684,20.098 12.293,19.707 C11.902,19.316 11.902,18.684 12.293,18.293 L14.293,16.293 C14.579,16.006 15.008,15.919 15.383,16.076 C15.756,16.23 16,16.596 16,17 L16,29 Z M0,34 L44,34 L44,12 L0,12 L0,34 Z" id="Fill-207"></path>
            <path d="M0,36 L0,39 C0,41.757 2.243,44 5,44 L39,44 C41.757,44 44,41.757 44,39 L44,36 L0,36 Z" id="Fill-208"></path>
            <path d="M44,10 L44,7 C44,4.243 41.757,2 39,2 L5,2 C2.243,2 0,4.243 0,7 L0,10 L44,10 Z" id="Fill-209"></path>
        </g>
    </g>
</svg>