<?xml version="1.0" encoding="UTF-8" standalone="no"?>
<svg width="44px" height="44px" viewBox="0 0 44 44" version="1.1" xmlns="http://www.w3.org/2000/svg" xmlns:xlink="http://www.w3.org/1999/xlink">
    <!-- Generator: Sketch 3.7.2 (28276) - http://www.bohemiancoding.com/sketch -->
    <title>pho-flip</title>
    <desc>Created with Sketch.</desc>
    <defs></defs>
    <g id="44px-Line" stroke="none" stroke-width="1" fill="none" fill-rule="evenodd">
        <g id="pho-flip"></g>
        <path d="M40,12 L35,12 C34.29,12 33.639,11.626 33.278,11.019 C33.258,10.973 33.236,10.928 33.21,10.886 L31.553,8.159 C30.86,6.827 29.499,6 28,6 L16,6 C14.5,6 13.14,6.827 12.481,8.101 L10.79,10.885 C10.764,10.928 10.741,10.972 10.723,11.017 C10.362,11.626 9.71,12 9,12 L4,12 C1.794,12 0,13.794 0,16 L0,36 C0,38.206 1.794,40 4,40 L40,40 C42.206,40 44,38.206 44,36 L44,16 C44,13.794 42.206,12 40,12 L40,12 Z M42,36 C42,37.103 41.103,38 40,38 L4,38 C2.897,38 2,37.103 2,36 L2,16 C2,14.897 2.897,14 4,14 L9,14 C10.482,14 11.836,13.186 12.534,11.875 C12.543,11.858 12.552,11.842 12.559,11.824 L14.222,9.081 C14.569,8.414 15.25,8 16,8 L28,8 C28.75,8 29.431,8.414 29.81,9.14 L31.442,11.826 C31.45,11.843 31.458,11.859 31.466,11.876 C32.164,13.187 33.518,14.001 35,14.001 L40,14.001 C41.103,14.001 42,14.898 42,16.001 L42,36 L42,36 Z" id="Shape" fill="#000000"></path>
        <path d="M36.293,20.293 L33.921,22.665 C33.254,16.675 28.165,12 22,12 C18.794,12 15.78,13.249 13.515,15.516 C13.124,15.907 13.124,16.539 13.515,16.93 C13.906,17.321 14.538,17.321 14.929,16.93 C16.818,15.04 19.328,14 22,14 C26.987,14 31.121,17.673 31.868,22.454 L29.707,20.293 C29.316,19.902 28.684,19.902 28.293,20.293 C27.902,20.684 27.902,21.316 28.293,21.707 L32.278,25.691 C32.46,25.883 32.714,26.006 33,26.006 C33.286,26.006 33.54,25.883 33.722,25.691 L37.707,21.707 C38.098,21.316 38.098,20.684 37.707,20.293 C37.316,19.902 36.684,19.902 36.293,20.293 L36.293,20.293 Z" id="Shape" fill="#000000"></path>
        <path d="M29.071,31.07 C27.181,32.96 24.671,34 22,34 C17.013,34 12.879,30.327 12.132,25.546 L14.293,27.707 C14.488,27.902 14.744,28 15,28 C15.256,28 15.512,27.902 15.707,27.707 C16.098,27.316 16.098,26.684 15.707,26.293 L11.722,22.309 C11.54,22.117 11.286,21.994 11,21.994 C10.714,21.994 10.46,22.117 10.278,22.309 L6.293,26.293 C5.902,26.684 5.902,27.316 6.293,27.707 C6.684,28.098 7.316,28.098 7.707,27.707 L10.079,25.335 C10.746,31.325 15.835,36 22,36 C25.205,36 28.219,34.752 30.485,32.484 C30.876,32.093 30.876,31.461 30.485,31.07 C30.094,30.679 29.462,30.68 29.071,31.07 L29.071,31.07 Z" id="Shape" fill="#000000"></path>
        <path d="M5,8 C4.447,8 4,8.447 4,9 C4,9.553 4.447,10 5,10 L7,10 C7.553,10 8,9.553 8,9 C8,8.447 7.553,8 7,8 L5,8 L5,8 Z" id="Shape" fill="#000000"></path>
    </g>
</svg>