<?xml version="1.0" encoding="UTF-8" standalone="no"?>
<svg width="44px" height="44px" viewBox="0 0 44 44" version="1.1" xmlns="http://www.w3.org/2000/svg" xmlns:xlink="http://www.w3.org/1999/xlink">
    <!-- Generator: Sketch 3.7.2 (28276) - http://www.bohemiancoding.com/sketch -->
    <title>pho-meter</title>
    <desc>Created with Sketch.</desc>
    <defs></defs>
    <g id="44px-Line" stroke="none" stroke-width="1" fill="none" fill-rule="evenodd">
        <g id="pho-meter"></g>
        <path d="M15.219,43.707 C15.414,43.902 15.67,44 15.926,44 C16.182,44 16.438,43.902 16.633,43.707 L27.408,32.933 L30.146,35.67 C30.341,35.865 30.597,35.963 30.853,35.963 C31.109,35.963 31.365,35.865 31.56,35.67 L37.301,29.929 C37.692,29.538 37.692,28.906 37.301,28.515 L34.564,25.778 L36.145,24.197 C36.146,24.196 36.147,24.195 36.148,24.194 L36.153,24.189 C36.156,24.186 36.157,24.181 36.16,24.178 C36.216,24.12 36.269,24.056 36.311,23.983 L42.598,13.124 C43.959,11.264 45.401,6.762 41.32,2.682 C37.239,-1.4 32.738,0.043 30.878,1.404 L20.02,7.691 C19.978,7.715 19.952,7.755 19.914,7.784 C19.882,7.808 19.842,7.82 19.814,7.849 L18.225,9.438 L15.487,6.701 C15.096,6.31 14.464,6.31 14.073,6.701 L8.332,12.442 C7.941,12.833 7.941,13.465 8.332,13.856 L11.07,16.594 L0.295,27.369 C0.107,27.557 0.002,27.81 0.002,28.076 C0.002,28.342 0.107,28.596 0.295,28.783 L15.219,43.707 L15.219,43.707 Z M35.179,29.222 L30.852,33.549 L28.821,31.519 L33.148,27.192 L35.179,29.222 L35.179,29.222 Z M31.927,3.105 C31.959,3.087 31.993,3.064 32.022,3.043 C32.182,2.924 36.003,0.194 39.904,4.095 C43.805,7.996 41.074,11.817 40.959,11.973 C40.935,12.005 40.913,12.038 40.894,12.072 L35.232,21.853 L22.146,8.767 L31.927,3.105 L31.927,3.105 Z M10.451,13.147 L14.778,8.82 L16.809,10.85 L12.482,15.177 L10.451,13.147 L10.451,13.147 Z M13.188,17.3 L13.188,17.3 L13.189,17.299 L20.519,9.969 L34.031,23.482 L32.443,25.07 C32.443,25.07 32.442,25.07 32.442,25.071 C32.442,25.072 32.442,25.072 32.441,25.072 L26.701,30.811 L26.7,30.811 C26.7,30.811 26.7,30.811 26.699,30.812 L15.925,41.585 L2.413,28.073 L13.188,17.3 L13.188,17.3 Z" id="Shape" fill="#000000"></path>
        <path d="M25.111,30.222 C25.367,30.222 25.623,30.124 25.818,29.929 L31.559,24.189 C31.747,24.001 31.852,23.748 31.852,23.482 C31.852,23.216 31.747,22.962 31.559,22.775 L21.226,12.441 C20.851,12.066 20.187,12.066 19.812,12.441 L14.071,18.182 C13.883,18.37 13.778,18.624 13.778,18.889 C13.778,19.154 13.883,19.409 14.071,19.596 L24.404,29.929 C24.6,30.124 24.855,30.222 25.111,30.222 L25.111,30.222 Z M20.519,14.562 L29.438,23.482 L25.111,27.808 L16.192,18.889 L20.519,14.562 L20.519,14.562 Z" id="Shape" fill="#000000"></path>
        <path d="M34.923,14.923 C38.147,14.923 40.769,12.3 40.769,9.076 C40.769,5.853 38.146,3.23 34.923,3.23 C31.7,3.23 29.077,5.853 29.077,9.076 C29.077,12.3 31.699,14.923 34.923,14.923 L34.923,14.923 Z M34.923,5.231 C37.044,5.231 38.769,6.956 38.769,9.077 C38.769,11.198 37.043,12.924 34.923,12.924 C32.803,12.924 31.077,11.198 31.077,9.077 C31.077,6.956 32.802,5.231 34.923,5.231 L34.923,5.231 Z" id="Shape" fill="#000000"></path>
    </g>
</svg>