<?xml version="1.0" encoding="UTF-8" standalone="no"?>
<svg width="64px" height="64px" viewBox="0 0 64 64" version="1.1" xmlns="http://www.w3.org/2000/svg" xmlns:xlink="http://www.w3.org/1999/xlink">
    <!-- Generator: Sketch 3.7.2 (28276) - http://www.bohemiancoding.com/sketch -->
    <title>pho-redeye-off</title>
    <desc>Created with Sketch.</desc>
    <defs></defs>
    <g id="64px-Glyph" stroke="none" stroke-width="1" fill="none" fill-rule="evenodd">
        <g id="pho-redeye-off" fill="#000000">
            <path d="M28.5677,39.6753 C29.3227,39.8813 30.1127,40.0013 30.9317,40.0013 C35.8937,40.0013 39.9317,35.9643 39.9317,31.0013 C39.9317,30.1813 39.8117,29.3913 39.6057,28.6363 L28.5677,39.6753 Z" id="Fill-190"></path>
            <path d="M25,32.001 C24.448,32.001 24,31.554 24,31.001 C24,27.142 27.14,24.001 31,24.001 C31.552,24.001 32,24.448 32,25.001 C32,25.554 31.552,26.001 31,26.001 C28.243,26.001 26,28.244 26,31.001 C26,31.554 25.552,32.001 25,32.001 M20,31.001 C20,24.936 24.935,20.001 31,20.001 C34.182,20.001 37.037,21.373 39.047,23.541 L37.635,24.952 C35.989,23.146 33.631,22.001 31,22.001 C26.038,22.001 22,26.038 22,31.001 C22,33.631 23.146,35.989 24.952,37.635 L23.538,39.048 C21.371,37.039 20,34.183 20,31.001 M57.707,6.294 C57.316,5.903 56.684,5.903 56.293,6.294 L45.073,17.514 C40.828,15.26 36.033,14.001 31,14.001 C19.581,14.001 9.302,20.344 4.175,30.555 C4.033,30.838 4.033,31.171 4.175,31.453 C7.18,37.434 11.97,42.056 17.704,44.883 L4.293,58.294 C3.902,58.685 3.902,59.317 4.293,59.708 C4.488,59.903 4.744,60.001 5,60.001 C5.256,60.001 5.512,59.903 5.707,59.708 L57.707,7.708 C58.098,7.317 58.098,6.685 57.707,6.294" id="Fill-191"></path>
            <path d="M48.5497,19.6934 L41.1877,27.0554 C41.6617,28.2824 41.9317,29.6094 41.9317,31.0014 C41.9317,37.0664 36.9977,42.0014 30.9317,42.0014 C29.5397,42.0014 28.2127,41.7304 26.9867,41.2574 L21.6977,46.5454 C24.6297,47.4864 27.7327,48.0014 30.9317,48.0014 C42.3477,48.0014 52.6257,41.6604 57.7547,31.4524 C57.8967,31.1704 57.8967,30.8374 57.7547,30.5544 C55.5407,26.1444 52.3627,22.4614 48.5497,19.6934" id="Fill-192"></path>
        </g>
    </g>
</svg>