<?xml version="1.0" encoding="UTF-8" standalone="no"?>
<svg width="64px" height="64px" viewBox="0 0 64 64" version="1.1" xmlns="http://www.w3.org/2000/svg" xmlns:xlink="http://www.w3.org/1999/xlink">
    <!-- Generator: Sketch 3.7.2 (28276) - http://www.bohemiancoding.com/sketch -->
    <title>pho-quick-shoot</title>
    <desc>Created with Sketch.</desc>
    <defs></defs>
    <g id="64px-Glyph" stroke="none" stroke-width="1" fill="none" fill-rule="evenodd">
        <g id="pho-quick-shoot" fill="#000000">
            <path d="M41,36.001 L5,36.001 C4.447,36.001 4,35.554 4,35.001 L4,13.001 C4,12.448 4.447,12.001 5,12.001 L41,12.001 C41.553,12.001 42,12.448 42,13.001 L42,35.001 C42,35.554 41.553,36.001 41,36.001" id="Fill-232"></path>
            <path d="M45,40.001 L9,40.001 C8.447,40.001 8,39.554 8,39.001 C8,38.448 8.447,38.001 9,38.001 L44,38.001 L44,17.001 C44,16.448 44.447,16.001 45,16.001 C45.553,16.001 46,16.448 46,17.001 L46,39.001 C46,39.554 45.553,40.001 45,40.001" id="Fill-233"></path>
            <path d="M49,44.001 L13,44.001 C12.447,44.001 12,43.554 12,43.001 C12,42.448 12.447,42.001 13,42.001 L48,42.001 L48,21.001 C48,20.448 48.447,20.001 49,20.001 C49.553,20.001 50,20.448 50,21.001 L50,43.001 C50,43.554 49.553,44.001 49,44.001" id="Fill-234"></path>
            <path d="M53,48.001 L17,48.001 C16.447,48.001 16,47.554 16,47.001 C16,46.448 16.447,46.001 17,46.001 L52,46.001 L52,25.001 C52,24.448 52.447,24.001 53,24.001 C53.553,24.001 54,24.448 54,25.001 L54,47.001 C54,47.554 53.553,48.001 53,48.001" id="Fill-235"></path>
            <path d="M57,52.001 L21,52.001 C20.447,52.001 20,51.554 20,51.001 C20,50.448 20.447,50.001 21,50.001 L56,50.001 L56,29.001 C56,28.448 56.447,28.001 57,28.001 C57.553,28.001 58,28.448 58,29.001 L58,51.001 C58,51.554 57.553,52.001 57,52.001" id="Fill-236"></path>
        </g>
    </g>
</svg>