<?xml version="1.0" encoding="UTF-8" standalone="no"?>
<svg width="64px" height="64px" viewBox="0 0 64 64" version="1.1" xmlns="http://www.w3.org/2000/svg" xmlns:xlink="http://www.w3.org/1999/xlink">
    <!-- Generator: Sketch 3.7.2 (28276) - http://www.bohemiancoding.com/sketch -->
    <title>pho-landscape</title>
    <desc>Created with Sketch.</desc>
    <defs></defs>
    <g id="64px-Line" stroke="none" stroke-width="1" fill="none" fill-rule="evenodd">
        <g id="pho-landscape"></g>
        <path d="M11,58 L53,58 C55.757,58 58,55.757 58,53 L58,13 C58,10.243 55.757,8 53,8 L11,8 C8.243,8 6,10.243 6,13 L6,53 C6,55.757 8.243,58 11,58 L11,58 Z M8,13 C8,11.346 9.346,10 11,10 L53,10 C54.654,10 56,11.346 56,13 L56,53 C56,54.654 54.654,56 53,56 L11,56 C9.346,56 8,54.654 8,53 L8,13 L8,13 Z" id="Shape" fill="#000000"></path>
        <path d="M20,28 C23.309,28 26,25.309 26,22 C26,18.691 23.309,16 20,16 C16.691,16 14,18.691 14,22 C14,25.309 16.691,28 20,28 L20,28 Z M20,18 C22.206,18 24,19.794 24,22 C24,24.206 22.206,26 20,26 C17.794,26 16,24.206 16,22 C16,19.794 17.794,18 20,18 L20,18 Z" id="Shape" fill="#000000"></path>
        <path d="M13,48 C13.256,48 13.512,47.902 13.707,47.707 L27,34.414 L38.293,45.707 C38.684,46.098 39.316,46.098 39.707,45.707 C40.098,45.316 40.098,44.684 39.707,44.293 L34.414,39 L41,32.414 L50.293,41.707 C50.488,41.902 50.744,42 51,42 C51.256,42 51.512,41.902 51.707,41.707 C52.098,41.316 52.098,40.684 51.707,40.293 L41.707,30.293 C41.316,29.902 40.684,29.902 40.293,30.293 L33,37.586 L27.707,32.293 C27.316,31.902 26.684,31.902 26.293,32.293 L12.293,46.293 C11.902,46.684 11.902,47.316 12.293,47.707 C12.488,47.902 12.744,48 13,48 L13,48 Z" id="Shape" fill="#000000"></path>
    </g>
</svg>