<?xml version="1.0" encoding="UTF-8" standalone="no"?>
<svg width="44px" height="44px" viewBox="0 0 44 44" version="1.1" xmlns="http://www.w3.org/2000/svg" xmlns:xlink="http://www.w3.org/1999/xlink">
    <!-- Generator: Sketch 3.7.2 (28276) - http://www.bohemiancoding.com/sketch -->
    <title>pho-camera-compact</title>
    <desc>Created with Sketch.</desc>
    <defs></defs>
    <g id="44px-Glyph" stroke="none" stroke-width="1" fill="none" fill-rule="evenodd">
        <g id="pho-camera-compact" fill="#000000">
            <path d="M11,8 L5,8 C4.448,8 4,7.553 4,7 C4,6.447 4.448,6 5,6 L11,6 C11.552,6 12,6.447 12,7 C12,7.553 11.552,8 11,8" id="Fill-151"></path>
            <polygon id="Fill-152" points="32 20 38 20 38 16 32 16"></polygon>
            <path d="M13,32 C9.14,32 6,28.859 6,25 C6,21.141 9.14,18 13,18 C16.86,18 20,21.141 20,25 C20,28.859 16.86,32 13,32 M26,25 C26,14.033 3.148,12.016 2.917,11.997 L0.314,11.691 C0.119,12.088 0,12.528 0,13 L0,37 C0,37.464 0.115,37.898 0.304,38.291 L2.89,38.006 C3.148,37.984 26,35.957 26,25" id="Fill-153"></path>
            <path d="M13,20 C10.243,20 8,22.243 8,25 C8,27.757 10.243,30 13,30 C15.757,30 18,27.757 18,25 C18,22.243 15.757,20 13,20" id="Fill-154"></path>
            <path d="M40,21 C40,21.553 39.552,22 39,22 L31,22 C30.448,22 30,21.553 30,21 L30,15 C30,14.447 30.448,14 31,14 L39,14 C39.552,14 40,14.447 40,15 L40,21 Z M41,10 L3.059,10 L3.117,10.007 C4.1,10.088 28,12.212 28,25 C28,37.788 4.1,39.912 3.083,39.997 L3.056,40 L41,40 C42.654,40 44,38.654 44,37 L44,13 C44,11.346 42.654,10 41,10 L41,10 Z" id="Fill-155"></path>
        </g>
    </g>
</svg>