<?xml version="1.0" encoding="UTF-8" standalone="no"?>
<svg width="44px" height="44px" viewBox="0 0 44 44" version="1.1" xmlns="http://www.w3.org/2000/svg" xmlns:xlink="http://www.w3.org/1999/xlink">
    <!-- Generator: Sketch 3.7.2 (28276) - http://www.bohemiancoding.com/sketch -->
    <title>pho-polaroid</title>
    <desc>Created with Sketch.</desc>
    <defs></defs>
    <g id="44px-Line" stroke="none" stroke-width="1" fill="none" fill-rule="evenodd">
        <g id="pho-polaroid"></g>
        <path d="M43,0 L1,0 C0.447,0 0,0.447 0,1 L0,43 C0,43.553 0.447,44 1,44 L43,44 C43.553,44 44,43.553 44,43 L44,1 C44,0.447 43.553,0 43,0 L43,0 Z M42,42 L2,42 L2,2 L42,2 L42,42 L42,42 Z" id="Shape" fill="#000000"></path>
        <path d="M5,34 L39,34 C39.553,34 40,33.553 40,33 L40,5 C40,4.447 39.553,4 39,4 L5,4 C4.447,4 4,4.447 4,5 L4,33 C4,33.553 4.447,34 5,34 L5,34 Z M6,32 L6,29.414 L15,20.414 L22.293,27.707 C22.684,28.098 23.316,28.098 23.707,27.707 C24.098,27.316 24.098,26.684 23.707,26.293 L21.414,24 L29,16.414 L38,25.414 L38,32 L6,32 L6,32 Z M38,6 L38,22.586 L29.707,14.293 C29.316,13.902 28.684,13.902 28.293,14.293 L20,22.586 L15.707,18.293 C15.316,17.902 14.684,17.902 14.293,18.293 L6,26.586 L6,6 L38,6 L38,6 Z" id="Shape" fill="#000000"></path>
        <path d="M12,16 C14.206,16 16,14.206 16,12 C16,9.794 14.206,8 12,8 C9.794,8 8,9.794 8,12 C8,14.206 9.794,16 12,16 L12,16 Z M12,10 C13.103,10 14,10.897 14,12 C14,13.103 13.103,14 12,14 C10.897,14 10,13.103 10,12 C10,10.897 10.897,10 12,10 L12,10 Z" id="Shape" fill="#000000"></path>
    </g>
</svg>