<?xml version="1.0" encoding="UTF-8" standalone="no"?>
<svg width="44px" height="44px" viewBox="0 0 44 44" version="1.1" xmlns="http://www.w3.org/2000/svg" xmlns:xlink="http://www.w3.org/1999/xlink">
    <!-- Generator: Sketch 3.7.2 (28276) - http://www.bohemiancoding.com/sketch -->
    <title>pho-macro-photo</title>
    <desc>Created with Sketch.</desc>
    <defs></defs>
    <g id="44px-Line" stroke="none" stroke-width="1" fill="none" fill-rule="evenodd">
        <g id="pho-macro-photo"></g>
        <path d="M21,34 C28.045,34 29.968,28.12 30,25.011 C30.003,24.743 29.898,24.487 29.711,24.297 C29.523,24.107 29.267,24 29,24 C25.577,24 23.374,25.365 22,27.125 L22,21.897 C25.993,21.1 26,15.5 26,13.001 C26,12.448 25.553,12.001 25,12.001 L17,12.001 C16.447,12.001 16,12.448 16,13.001 L16,13.182 C15.999,14.81 15.998,16.837 16.545,18.554 C17.265,20.814 18.681,21.648 20,21.9 L20,27.171 C18.624,25.39 16.419,24.001 13,24.001 C12.447,24.001 12,24.448 12,25.001 C12,28.113 13.881,34 21,34 L21,34 Z M27.893,26.062 C27.592,27.886 26.449,31.424 22.102,31.937 C22.393,30.117 23.521,26.575 27.893,26.062 L27.893,26.062 Z M18.45,17.945 C18.078,16.776 18.012,15.312 18.002,14 L23.989,14 C23.903,17.64 23.287,20 21,20 C19.689,20 18.903,19.366 18.45,17.945 L18.45,17.945 Z M19.888,31.937 C15.521,31.422 14.393,27.881 14.102,26.064 C18.421,26.578 19.578,30.112 19.888,31.937 L19.888,31.937 Z" id="Shape" fill="#000000"></path>
        <path d="M41,6 L1,6 C0.447,6 0,6.447 0,7 L0,39 C0,39.553 0.447,40 1,40 L41,40 C41.553,40 42,39.553 42,39 L42,7 C42,6.447 41.553,6 41,6 L41,6 Z M40,38 L2,38 L2,8 L40,8 L40,38 L40,38 Z" id="Shape" fill="#000000"></path>
    </g>
</svg>