<?xml version="1.0" encoding="UTF-8" standalone="no"?>
<svg width="64px" height="64px" viewBox="0 0 64 64" version="1.1" xmlns="http://www.w3.org/2000/svg" xmlns:xlink="http://www.w3.org/1999/xlink">
    <!-- Generator: Sketch 3.7.2 (28276) - http://www.bohemiancoding.com/sketch -->
    <title>pho-redeye</title>
    <desc>Created with Sketch.</desc>
    <defs></defs>
    <g id="64px-Line" stroke="none" stroke-width="1" fill="none" fill-rule="evenodd">
        <g id="pho-redeye"></g>
        <path d="M31,22 C24.935,22 20,26.935 20,33 C20,39.065 24.935,44 31,44 C37.065,44 42,39.065 42,33 C42,26.935 37.065,22 31,22 L31,22 Z M31,42 C26.038,42 22,37.963 22,33 C22,28.038 26.038,24 31,24 C35.962,24 40,28.038 40,33 C40,37.963 35.962,42 31,42 L31,42 Z" id="Shape" fill="#000000"></path>
        <path d="M31,26 C27.14,26 24,29.14 24,33 C24,33.553 24.448,34 25,34 C25.552,34 26,33.553 26,33 C26,30.243 28.243,28 31,28 C31.552,28 32,27.552 32,27 C32,26.448 31.552,26 31,26 L31,26 Z" id="Shape" fill="#000000"></path>
        <path d="M31,16 C19.538,16 9.233,22.342 4.106,32.551 C3.964,32.833 3.964,33.167 4.106,33.449 C9.238,43.658 19.543,50 31,50 C42.46,50 52.765,43.658 57.894,33.449 C58.036,33.167 58.036,32.833 57.894,32.551 C52.767,22.342 42.462,16 31,16 L31,16 Z M31,48 C20.473,48 10.987,42.266 6.124,33 C10.983,23.734 20.468,18 31,18 C41.532,18 51.017,23.734 55.876,33 C51.015,42.266 41.53,48 31,48 L31,48 Z" id="Shape" fill="#000000"></path>
    </g>
</svg>