<?xml version="1.0" encoding="UTF-8" standalone="no"?>
<svg width="64px" height="64px" viewBox="0 0 64 64" version="1.1" xmlns="http://www.w3.org/2000/svg" xmlns:xlink="http://www.w3.org/1999/xlink">
    <!-- Generator: Sketch 3.7.2 (28276) - http://www.bohemiancoding.com/sketch -->
    <title>pho-macro-album</title>
    <desc>Created with Sketch.</desc>
    <defs></defs>
    <g id="64px-Line" stroke="none" stroke-width="1" fill="none" fill-rule="evenodd">
        <g id="pho-macro-album"></g>
        <path d="M57,14 L5,14 C4.447,14 4,14.447 4,15 L4,57 C4,57.553 4.447,58 5,58 L57,58 C57.553,58 58,57.553 58,57 L58,15 C58,14.447 57.553,14 57,14 L57,14 Z M56,56 L6,56 L6,16 L56,16 L56,56 L56,56 Z" id="Shape" fill="#000000"></path>
        <path d="M31,50 C40.77,50 41.981,41.213 41.992,41.124 C42.028,40.84 41.939,40.554 41.75,40.338 C41.56,40.123 41.287,40 41,40 C36.266,40 33.552,42.064 32,44.202 L32,35.925 C37.988,35.169 38,27.616 38,23 C38,22.447 37.553,22 37,22 C35.638,22 34.654,22.909 34.009,23.826 C33.369,22.908 32.386,22 31,22 C29.623,22 28.642,22.902 28.001,23.815 C27.361,22.9 26.38,22 25,22 C24.447,22 24,22.447 24,23 C24,28.498 24.012,35.26 30,35.933 L30,44.202 C28.448,42.065 25.734,40 21,40 C20.713,40 20.44,40.123 20.25,40.338 C20.061,40.554 19.972,40.84 20.008,41.124 C20.019,41.213 21.23,50 31,50 L31,50 Z M39.722,42.062 C39.118,43.944 37.325,47.429 32.279,47.937 C32.883,46.056 34.676,42.57 39.722,42.062 L39.722,42.062 Z M26.009,24.53 C26.539,25.087 26.921,25.931 27.052,26.316 C27.188,26.724 27.571,26.999 28,26.999 L28.003,26.999 C28.434,26.998 28.816,26.72 28.951,26.31 C29.147,25.711 29.947,24 31,24 C32.033,24 32.849,25.717 33.052,26.316 C33.187,26.721 33.565,26.995 33.992,26.999 C34.375,27.022 34.802,26.733 34.944,26.33 C35.109,25.862 35.496,25.087 35.987,24.56 C35.896,29.698 35.198,34 31,34 C26.716,34 26.082,30.306 26.009,24.53 L26.009,24.53 Z M29.722,47.938 C24.675,47.43 22.882,43.943 22.279,42.063 C27.324,42.57 29.117,46.056 29.722,47.938 L29.722,47.938 Z" id="Shape" fill="#000000"></path>
        <path d="M8,11 C8,11.553 8.447,12 9,12 L53,12 C53.553,12 54,11.553 54,11 C54,10.447 53.553,10 53,10 L9,10 C8.447,10 8,10.447 8,11 L8,11 Z" id="Shape" fill="#000000"></path>
        <path d="M49,8 C49.553,8 50,7.553 50,7 C50,6.447 49.553,6 49,6 L13,6 C12.447,6 12,6.447 12,7 C12,7.553 12.447,8 13,8 L49,8 L49,8 Z" id="Shape" fill="#000000"></path>
    </g>
</svg>