<?xml version="1.0" encoding="UTF-8" standalone="no"?>
<svg width="44px" height="44px" viewBox="0 0 44 44" version="1.1" xmlns="http://www.w3.org/2000/svg" xmlns:xlink="http://www.w3.org/1999/xlink">
    <!-- Generator: Sketch 3.7.2 (28276) - http://www.bohemiancoding.com/sketch -->
    <title>pho-portrait</title>
    <desc>Created with Sketch.</desc>
    <defs></defs>
    <g id="44px-Line" stroke="none" stroke-width="1" fill="none" fill-rule="evenodd">
        <g id="pho-portrait"></g>
        <path d="M39,2 L5,2 C2.243,2 0,4.243 0,7 L0,39 C0,41.757 2.243,44 5,44 L39,44 C41.757,44 44,41.757 44,39 L44,7 C44,4.243 41.757,2 39,2 L39,2 Z M42,39 C42,40.654 40.654,42 39,42 L5,42 C3.346,42 2,40.654 2,39 L2,7 C2,5.346 3.346,4 5,4 L39,4 C40.654,4 42,5.346 42,7 L42,39 L42,39 Z" id="Shape" fill="#000000"></path>
        <path d="M26.354,22.702 C28.545,21.273 30,18.805 30,16 C30,11.589 26.411,8 22,8 C17.589,8 14,11.589 14,16 C14,18.805 15.455,21.273 17.646,22.702 C12.053,24.538 8,29.801 8,36 L8,37 C8,37.552 8.447,38 9,38 C9.553,38 10,37.552 10,37 L10,36 C10,29.383 15.383,24 22,24 C28.617,24 34,29.383 34,36 L34,37 C34,37.552 34.447,38 35,38 C35.553,38 36,37.552 36,37 L36,36 C36,29.801 31.947,24.538 26.354,22.702 L26.354,22.702 Z M16,16 C16,12.691 18.691,10 22,10 C25.309,10 28,12.691 28,16 C28,19.309 25.309,22 22,22 C18.691,22 16,19.309 16,16 L16,16 Z" id="Shape" fill="#000000"></path>
    </g>
</svg>