<?xml version="1.0" encoding="UTF-8" standalone="no"?>
<svg width="44px" height="44px" viewBox="0 0 44 44" version="1.1" xmlns="http://www.w3.org/2000/svg" xmlns:xlink="http://www.w3.org/1999/xlink">
    <!-- Generator: Sketch 3.7.2 (28276) - http://www.bohemiancoding.com/sketch -->
    <title>pho-camera-polaroid</title>
    <desc>Created with Sketch.</desc>
    <defs></defs>
    <g id="44px-Glyph" stroke="none" stroke-width="1" fill="none" fill-rule="evenodd">
        <g id="pho-camera-polaroid" fill="#000000">
            <path d="M35,38 L9,38 C8.447,38 8,37.553 8,37 C8,36.447 8.447,36 9,36 L35,36 C35.553,36 36,36.447 36,37 C36,37.553 35.553,38 35,38 M41,34 L3,34 C1.346,34 0,35.346 0,37 L0,41 C0,42.654 1.346,44 3,44 L41,44 C42.654,44 44,42.654 44,41 L44,37 C44,35.346 42.654,34 41,34" id="Fill-168"></path>
            <path d="M30,0 L3,0 C1.346,0 0,1.346 0,3 L0,7 C0,8.654 1.346,10 3,10 L30,10 L30,0 Z" id="Fill-169"></path>
            <path d="M41,0 L32,0 L32,10 L41,10 C42.654,10 44,8.654 44,7 L44,3 C44,1.346 42.654,0 41,0" id="Fill-170"></path>
            <path d="M22,30 C17.589,30 14,26.411 14,22 C14,17.589 17.589,14 22,14 C26.411,14 30,17.589 30,22 C30,26.411 26.411,30 22,30 L22,30 Z M4,32 L40,32 L40,12 L4,12 L4,32 Z" id="Fill-171"></path>
            <path d="M22,20 C20.897,20 20,20.898 20,22 C20,22.553 19.553,23 19,23 C18.447,23 18,22.553 18,22 C18,19.794 19.794,18 22,18 C22.553,18 23,18.447 23,19 C23,19.553 22.553,20 22,20 M22,16 C18.691,16 16,18.691 16,22 C16,25.309 18.691,28 22,28 C25.309,28 28,25.309 28,22 C28,18.691 25.309,16 22,16" id="Fill-172"></path>
        </g>
    </g>
</svg>