<?xml version="1.0" encoding="UTF-8" standalone="no"?>
<svg width="44px" height="44px" viewBox="0 0 44 44" version="1.1" xmlns="http://www.w3.org/2000/svg" xmlns:xlink="http://www.w3.org/1999/xlink">
    <!-- Generator: Sketch 3.7.2 (28276) - http://www.bohemiancoding.com/sketch -->
    <title>pho-flash-pro</title>
    <desc>Created with Sketch.</desc>
    <defs></defs>
    <g id="44px-Line" stroke="none" stroke-width="1" fill="none" fill-rule="evenodd">
        <g id="pho-flash-pro"></g>
        <path d="M10,15 L10,27 C10,28.302 10.839,29.401 12,29.815 L12,35 C12,36.654 13.346,38 15,38 L18,38 L18,41 C18,41.552 18.448,42 19,42 L23,42 C23.552,42 24,41.552 24,41 L24,38 L27,38 C28.654,38 30,36.654 30,35 L30,29.816 C31.161,29.401 32,28.302 32,27 L32,15 C32,13.346 30.654,12 29,12 L13,12 C11.346,12 10,13.346 10,15 L10,15 Z M22,40 L20,40 L20,38 L22,38 L22,40 L22,40 Z M27,36 L15,36 C14.449,36 14,35.551 14,35 L14,30 L28,30 L28,35 C28,35.551 27.551,36 27,36 L27,36 Z M12,15 C12,14.449 12.449,14 13,14 L29,14 C29.551,14 30,14.449 30,15 L30,27 C30,27.551 29.551,28 29,28 L13,28 C12.449,28 12,27.551 12,27 L12,15 L12,15 Z" id="Shape" fill="#000000"></path>
        <path d="M1,22 L5,22 C5.552,22 6,21.552 6,21 C6,20.448 5.552,20 5,20 L1,20 C0.448,20 0,20.448 0,21 C0,21.552 0.448,22 1,22 L1,22 Z" id="Shape" fill="#000000"></path>
        <path d="M37,22 L41,22 C41.552,22 42,21.552 42,21 C42,20.448 41.552,20 41,20 L37,20 C36.448,20 36,20.448 36,21 C36,21.552 36.448,22 37,22 L37,22 Z" id="Shape" fill="#000000"></path>
        <path d="M9.293,10.707 C9.488,10.902 9.744,11 10,11 C10.256,11 10.512,10.902 10.707,10.707 C11.098,10.316 11.098,9.684 10.707,9.293 L7.707,6.293 C7.316,5.902 6.684,5.902 6.293,6.293 C5.902,6.684 5.902,7.316 6.293,7.707 L9.293,10.707 L9.293,10.707 Z" id="Shape" fill="#000000"></path>
        <path d="M33.293,31.293 C32.902,31.684 32.902,32.316 33.293,32.707 L36.293,35.707 C36.488,35.902 36.744,36 37,36 C37.256,36 37.512,35.902 37.707,35.707 C38.098,35.316 38.098,34.684 37.707,34.293 L34.707,31.293 C34.316,30.902 33.684,30.902 33.293,31.293 L33.293,31.293 Z" id="Shape" fill="#000000"></path>
        <path d="M7.293,31.293 L4.293,34.293 C3.902,34.684 3.902,35.316 4.293,35.707 C4.488,35.902 4.744,36 5,36 C5.256,36 5.512,35.902 5.707,35.707 L8.707,32.707 C9.098,32.316 9.098,31.684 8.707,31.293 C8.316,30.902 7.684,30.902 7.293,31.293 L7.293,31.293 Z" id="Shape" fill="#000000"></path>
        <path d="M32,11 C32.256,11 32.512,10.902 32.707,10.707 L35.707,7.707 C36.098,7.316 36.098,6.684 35.707,6.293 C35.316,5.902 34.684,5.902 34.293,6.293 L31.293,9.293 C30.902,9.684 30.902,10.316 31.293,10.707 C31.488,10.902 31.744,11 32,11 L32,11 Z" id="Shape" fill="#000000"></path>
        <path d="M21,8 C21.552,8 22,7.552 22,7 L22,3 C22,2.448 21.552,2 21,2 C20.448,2 20,2.448 20,3 L20,7 C20,7.552 20.448,8 21,8 L21,8 Z" id="Shape" fill="#000000"></path>
    </g>
</svg>