<?xml version="1.0" encoding="UTF-8" standalone="no"?>
<svg width="44px" height="44px" viewBox="0 0 44 44" version="1.1" xmlns="http://www.w3.org/2000/svg" xmlns:xlink="http://www.w3.org/1999/xlink">
    <!-- Generator: Sketch 3.7.2 (28276) - http://www.bohemiancoding.com/sketch -->
    <title>pho-iso</title>
    <desc>Created with Sketch.</desc>
    <defs></defs>
    <g id="44px-Line" stroke="none" stroke-width="1" fill="none" fill-rule="evenodd">
        <g id="pho-iso"></g>
        <path d="M40,12 L35,12 C34.291,12 33.639,11.626 33.278,11.018 C33.259,10.973 33.236,10.928 33.211,10.885 L31.553,8.158 C30.86,6.827 29.499,6 28,6 L16,6 C14.5,6 13.139,6.828 12.481,8.101 L10.79,10.885 C10.764,10.927 10.742,10.971 10.723,11.017 C10.362,11.625 9.71,12 9,12 L4,12 C1.794,12 0,13.794 0,16 L0,36 C0,38.206 1.794,40 4,40 L40,40 C42.206,40 44,38.206 44,36 L44,16 C44,13.794 42.206,12 40,12 L40,12 Z M42,36 C42,37.103 41.103,38 40,38 L4,38 C2.897,38 2,37.103 2,36 L2,16 C2,14.897 2.897,14 4,14 L9,14 C10.482,14 11.836,13.186 12.534,11.875 C12.543,11.858 12.551,11.841 12.559,11.824 L14.222,9.081 C14.569,8.415 15.25,8 16,8 L28,8 C28.75,8 29.431,8.414 29.81,9.139 L31.441,11.825 C31.449,11.842 31.457,11.859 31.466,11.875 C32.164,13.186 33.518,14 35,14 L40,14 C41.103,14 42,14.897 42,16 L42,36 L42,36 Z" id="Shape" fill="#000000"></path>
        <path d="M19,20 C20.654,20 22,21.122 22,22.5 C22,23.053 22.448,23.5 23,23.5 C23.552,23.5 24,23.053 24,22.5 C24,20.019 21.757,18 19,18 C16.243,18 14,20.019 14,22.5 C14,25.436 17.289,26.498 18.705,26.955 C21.045,27.679 22,28.415 22,29.5 C22,30.879 20.654,32 19,32 C17.346,32 16,30.879 16,29.5 C16,28.947 15.552,28.5 15,28.5 C14.448,28.5 14,28.947 14,29.5 C14,31.981 16.243,34 19,34 C21.757,34 24,31.981 24,29.5 C24,26.497 20.703,25.479 19.308,25.049 C16.958,24.289 16,23.551 16,22.5 C16,21.122 17.346,20 19,20 L19,20 Z" id="Shape" fill="#000000"></path>
        <path d="M32,18 C30.592,18 26,18.577 26,26 C26,27.877 26.433,34 32,34 C37.567,34 38,27.877 38,26 C38,18.577 33.408,18 32,18 L32,18 Z M32,32 C28.694,32 28,28.737 28,26 C28,22.131 29.42,20 32,20 C34.58,20 36,22.131 36,26 C36,28.737 35.306,32 32,32 L32,32 Z" id="Shape" fill="#000000"></path>
        <path d="M11,20 C11.552,20 12,19.552 12,19 C12,18.448 11.552,18 11,18 L7,18 C6.448,18 6,18.448 6,19 C6,19.552 6.448,20 7,20 L8,20 L8,32 L7,32 C6.448,32 6,32.447 6,33 C6,33.553 6.448,34 7,34 L11,34 C11.552,34 12,33.553 12,33 C12,32.447 11.552,32 11,32 L10,32 L10,20 L11,20 L11,20 Z" id="Shape" fill="#000000"></path>
        <path d="M7,10 C7.552,10 8,9.552 8,9 C8,8.448 7.552,8 7,8 L5,8 C4.448,8 4,8.448 4,9 C4,9.552 4.448,10 5,10 L7,10 L7,10 Z" id="Shape" fill="#000000"></path>
    </g>
</svg>