<?xml version="1.0" encoding="UTF-8" standalone="no"?>
<svg width="64px" height="64px" viewBox="0 0 64 64" version="1.1" xmlns="http://www.w3.org/2000/svg" xmlns:xlink="http://www.w3.org/1999/xlink">
    <!-- Generator: Sketch 3.7.2 (28276) - http://www.bohemiancoding.com/sketch -->
    <title>pre-pie-chart</title>
    <desc>Created with Sketch.</desc>
    <defs></defs>
    <g id="64px-Line" stroke="none" stroke-width="1" fill="none" fill-rule="evenodd">
        <g id="pre-pie-chart"></g>
        <path d="M29,60 C42.785,60 54,48.785 54,35 C54,34.448 53.553,34 53,34 L30,34 L30,11 C30,10.448 29.553,10 29,10 C15.215,10 4,21.215 4,35 C4,48.785 15.215,60 29,60 L29,60 Z M28,12.021 L28,35 C28,35.552 28.447,36 29,36 L51.979,36 C51.453,48.22 41.347,58 29,58 C16.317,58 6,47.682 6,35 C6,22.653 15.78,12.547 28,12.021 L28,12.021 Z" id="Shape" fill="#000000"></path>
        <path d="M33,6 C32.447,6 32,6.448 32,7 L32,31 C32,31.552 32.447,32 33,32 L57,32 C57.553,32 58,31.552 58,31 C58,17.215 46.785,6 33,6 L33,6 Z M34,30 L34,8.021 C45.889,8.532 55.467,18.111 55.979,30 L34,30 L34,30 Z" id="Shape" fill="#000000"></path>
    </g>
</svg>