<?xml version="1.0" encoding="UTF-8" standalone="no"?>
<svg width="64px" height="64px" viewBox="0 0 64 64" version="1.1" xmlns="http://www.w3.org/2000/svg" xmlns:xlink="http://www.w3.org/1999/xlink">
    <!-- Generator: Sketch 3.7.2 (28276) - http://www.bohemiancoding.com/sketch -->
    <title>pre-presenter-podium</title>
    <desc>Created with Sketch.</desc>
    <defs></defs>
    <g id="64px-Line" stroke="none" stroke-width="1" fill="none" fill-rule="evenodd">
        <g id="pre-presenter-podium"></g>
        <path d="M38,12 C38,7.065 35.317,4 31,4 C26.683,4 24,7.065 24,12 C24,16.935 26.683,20 31,20 C35.317,20 38,16.935 38,12 L38,12 Z M26,12 C26,10.196 26.487,6 31,6 C35.513,6 36,10.196 36,12 C36,13.804 35.513,18 31,18 C26.487,18 26,13.804 26,12 L26,12 Z" id="Shape" fill="#000000"></path>
        <path d="M14.004,32.914 C13.956,33.465 14.364,33.949 14.914,33.996 C15.47,34.047 15.948,33.635 15.996,33.086 C16.589,26.208 20.234,24 31,24 C41.766,24 45.411,26.208 46.004,33.086 C46.049,33.607 46.485,34 46.999,34 C47.027,34 47.057,33.999 47.086,33.996 C47.636,33.949 48.044,33.465 47.996,32.914 C47.21,23.786 41.169,22 31,22 C20.831,22 14.79,23.786 14.004,32.914 L14.004,32.914 Z" id="Shape" fill="#000000"></path>
        <path d="M55,36 L7,36 C6.447,36 6,36.447 6,37 L6,41 C6,41.127 6.024,41.253 6.071,41.371 L6.078,41.389 C6.078,41.389 6.078,41.389 6.078,41.39 L10.071,51.371 C10.223,51.751 10.591,52 11,52 L16,52 L16,59 C16,59.553 16.447,60 17,60 C17.553,60 18,59.553 18,59 L18,46 L44,46 L44,59 C44,59.553 44.447,60 45,60 C45.553,60 46,59.553 46,59 L46,52 L51,52 C51.409,52 51.776,51.751 51.929,51.371 L55.921,41.39 L55.921,41.389 L55.928,41.371 C55.975,41.253 55.999,41.127 55.999,41 L55.999,37 C56,36.447 55.553,36 55,36 L55,36 Z M54,38 L54,40 L8,40 L8,38 L54,38 L54,38 Z M50.323,50 L46,50 L46,45 C46,44.447 45.553,44 45,44 L17,44 C16.447,44 16,44.447 16,45 L16,50 L11.677,50 L8.477,42 L53.523,42 L50.323,50 L50.323,50 Z" id="Shape" fill="#000000"></path>
    </g>
</svg>