<?xml version="1.0" encoding="UTF-8" standalone="no"?>
<svg width="64px" height="64px" viewBox="0 0 64 64" version="1.1" xmlns="http://www.w3.org/2000/svg" xmlns:xlink="http://www.w3.org/1999/xlink">
    <!-- Generator: Sketch 3.7.2 (28276) - http://www.bohemiancoding.com/sketch -->
    <title>pre-doc-graph</title>
    <desc>Created with Sketch.</desc>
    <defs></defs>
    <g id="64px-Line" stroke="none" stroke-width="1" fill="none" fill-rule="evenodd">
        <g id="pre-doc-graph"></g>
        <path d="M40.707,6.293 C40.52,6.105 40.266,6 40,6 L14,6 C11.794,6 10,7.794 10,10 L10,56 C10,58.206 11.794,60 14,60 L48,60 C50.206,60 52,58.206 52,56 L52,18 C52,17.734 51.895,17.48 51.707,17.293 L40.707,6.293 L40.707,6.293 Z M49.586,18 L42,18 C40.897,18 40,17.103 40,16 L40,8.414 L49.586,18 L49.586,18 Z M48,58 L14,58 C12.897,58 12,57.103 12,56 L12,10 C12,8.897 12.897,8 14,8 L38,8 L38,16 C38,18.206 39.794,20 42,20 L50,20 L50,56 C50,57.103 49.103,58 48,58 L48,58 Z" id="Shape" fill="#000000"></path>
        <path d="M45,38 L17,38 C16.447,38 16,38.447 16,39 C16,39.553 16.447,40 17,40 L45,40 C45.553,40 46,39.553 46,39 C46,38.447 45.553,38 45,38 L45,38 Z" id="Shape" fill="#000000"></path>
        <path d="M45,44 L17,44 C16.447,44 16,44.447 16,45 C16,45.553 16.447,46 17,46 L45,46 C45.553,46 46,45.553 46,45 C46,44.447 45.553,44 45,44 L45,44 Z" id="Shape" fill="#000000"></path>
        <path d="M39,50 L17,50 C16.447,50 16,50.447 16,51 C16,51.553 16.447,52 17,52 L39,52 C39.553,52 40,51.553 40,51 C40,50.447 39.553,50 39,50 L39,50 Z" id="Shape" fill="#000000"></path>
        <path d="M19,32 L33,32 C33.553,32 34,31.553 34,31 C34,30.447 33.553,30 33,30 L32,30 L32,25 C32,24.447 31.553,24 31,24 C30.447,24 30,24.447 30,25 L30,30 L28,30 L28,19 C28,18.447 27.553,18 27,18 C26.447,18 26,18.447 26,19 L26,30 L24,30 L24,21 C24,20.447 23.553,20 23,20 C22.447,20 22,20.447 22,21 L22,30 L20,30 L20,15 C20,14.447 19.553,14 19,14 C18.447,14 18,14.447 18,15 L18,31 C18,31.553 18.447,32 19,32 L19,32 Z" id="Shape" fill="#000000"></path>
    </g>
</svg>