<?xml version="1.0" encoding="UTF-8" standalone="no"?>
<svg width="64px" height="64px" viewBox="0 0 64 64" version="1.1" xmlns="http://www.w3.org/2000/svg" xmlns:xlink="http://www.w3.org/1999/xlink">
    <!-- Generator: Sketch 3.7.2 (28276) - http://www.bohemiancoding.com/sketch -->
    <title>pre-col-graph-decrease</title>
    <desc>Created with Sketch.</desc>
    <defs></defs>
    <g id="64px-Line" stroke="none" stroke-width="1" fill="none" fill-rule="evenodd">
        <g id="pre-col-graph-decrease"></g>
        <path d="M57,56 L52,56 L52,41 C52,40.447 51.552,40 51,40 L43,40 C42.448,40 42,40.447 42,41 L42,56 L38,56 L38,31 C38,30.447 37.552,30 37,30 L29,30 C28.448,30 28,30.447 28,31 L28,56 L24,56 L24,21 C24,20.447 23.552,20 23,20 L15,20 C14.448,20 14,20.447 14,21 L14,56 L8,56 L8,7 C8,6.447 7.552,6 7,6 C6.448,6 6,6.447 6,7 L6,57 C6,57.553 6.448,58 7,58 L15,58 L23,58 L29,58 L37,58 L43,58 L51,58 L57,58 C57.552,58 58,57.553 58,57 C58,56.447 57.552,56 57,56 L57,56 Z M16,56 L16,22 L22,22 L22,56 L16,56 L16,56 Z M30,56 L30,32 L36,32 L36,56 L30,56 L30,56 Z M44,56 L44,42 L50,42 L50,56 L44,56 L44,56 Z" id="Shape" fill="#000000"></path>
        <path d="M50,32.622 C30.729,14.087 13.942,10.185 13.217,10.024 C12.677,9.909 12.144,10.245 12.024,10.784 C11.904,11.323 12.244,11.857 12.783,11.977 C12.955,12.015 29.682,15.9 48.548,34 L43,34 C42.448,34 42,34.447 42,35 C42,35.553 42.448,36 43,36 L51,36 C51.13,36 51.26,35.973 51.382,35.923 C51.627,35.822 51.821,35.627 51.923,35.382 C51.973,35.26 52,35.13 52,35 L52,27 C52,26.447 51.552,26 51,26 C50.448,26 50,26.447 50,27 L50,32.622 L50,32.622 Z" id="Shape" fill="#000000"></path>
    </g>
</svg>