<?xml version="1.0" encoding="UTF-8" standalone="no"?>
<svg width="64px" height="64px" viewBox="0 0 64 64" version="1.1" xmlns="http://www.w3.org/2000/svg" xmlns:xlink="http://www.w3.org/1999/xlink">
    <!-- Generator: Sketch 3.7.2 (28276) - http://www.bohemiancoding.com/sketch -->
    <title>pre-presenter-board</title>
    <desc>Created with Sketch.</desc>
    <defs></defs>
    <g id="64px-Line" stroke="none" stroke-width="1" fill="none" fill-rule="evenodd">
        <g id="pre-presenter-board"></g>
        <path d="M18,12 C18,8.355 16.038,6 13,6 C9.962,6 8,8.355 8,12 C8,15.645 9.962,18 13,18 C16.038,18 18,15.645 18,12 L18,12 Z M13,16 C10.292,16 10,13.203 10,12 C10,10.797 10.292,8 13,8 C15.708,8 16,10.797 16,12 C16,13.203 15.708,16 13,16 L13,16 Z" id="Shape" fill="#000000"></path>
        <path d="M6,39.829 L6,57 C6,59.212 7.292,60 8.5,60 C9.708,60 11,59.212 10.999,57.056 L12,39 C12,38.448 12.449,38 13,38 C13.551,38 14,38.448 14.001,39.056 L15,57 C15,59.212 16.292,60 17.5,60 C18.708,60 20,59.212 20,57 L20,23.923 L31.5,23 C32.878,23 34,21.879 34,20.5 C34,19.121 32.878,18 31.5,18 L13,18 C8.428,18 3.507,18.456 3.003,23.923 L2,37 C2,38.654 3.346,40 5,40 C5.351,40 5.687,39.939 6,39.829 L6,39.829 Z M3.997,37.077 L4.996,24.092 C5.278,21.032 7.298,20 13,20 L31.5,20 C31.776,20 32,20.225 32,20.5 C32,20.775 31.776,21 31.42,21.003 L18.92,22.003 C18.4,22.045 18,22.479 18,23 L18,57 C18,58 17.675,58 17.5,58 C17.325,58 17,58 16.999,56.944 L16,39 C16,37.346 14.654,36 13,36 C11.346,36 10,37.346 10.001,38.944 L9,57 C9,58 8.675,58 8.5,58 C8.325,58 8,58 8,57 L8,27 C8,26.447 7.552,26 7,26 C6.448,26 6,26.447 6,27 L6,37 C6,37.552 5.551,38 5,38 C4.449,38 4,37.552 3.997,37.077 L3.997,37.077 Z" id="Shape" fill="#000000"></path>
        <path d="M59,10 L23,10 C22.448,10 22,10.447 22,11 L22,15 C22,15.553 22.448,16 23,16 C23.552,16 24,15.553 24,15 L24,12 L58,12 L58,40 L24,40 L24,27 C24,26.447 23.552,26 23,26 C22.448,26 22,26.447 22,27 L22,41 C22,41.553 22.448,42 23,42 L31.674,42 L28.038,54.726 C27.886,55.256 28.194,55.81 28.725,55.962 C28.817,55.987 28.91,56 29,56 C29.435,56 29.835,55.714 29.961,55.274 L33.754,42 L48.246,42 L52.039,55.274 C52.164,55.714 52.564,56 53,56 C53.091,56 53.184,55.987 53.275,55.962 C53.806,55.81 54.113,55.256 53.962,54.726 L50.326,42 L59,42 C59.552,42 60,41.553 60,41 L60,11 C60,10.447 59.552,10 59,10 L59,10 Z" id="Shape" fill="#000000"></path>
        <path d="M61,6 L44,6 L44,5 C44,4.447 43.552,4 43,4 L39,4 C38.448,4 38,4.447 38,5 L38,6 L21,6 C20.448,6 20,6.447 20,7 C20,7.553 20.448,8 21,8 L61,8 C61.552,8 62,7.553 62,7 C62,6.447 61.552,6 61,6 L61,6 Z" id="Shape" fill="#000000"></path>
        <path d="M41.707,22.293 C41.316,21.902 40.684,21.902 40.293,22.293 L30.293,32.293 C29.902,32.684 29.902,33.316 30.293,33.707 C30.488,33.902 30.744,34 31,34 C31.256,34 31.512,33.902 31.707,33.707 L41,24.414 L44.293,27.707 C44.684,28.098 45.316,28.098 45.707,27.707 L52,21.414 L52,25 C52,25.553 52.448,26 53,26 C53.552,26 54,25.553 54,25 L54,19 C54,18.87 53.973,18.74 53.923,18.618 C53.822,18.373 53.627,18.178 53.382,18.077 C53.26,18.026 53.13,18 53,18 L47,18 C46.448,18 46,18.447 46,19 C46,19.553 46.448,20 47,20 L50.586,20 L45,25.586 L41.707,22.293 L41.707,22.293 Z" id="Shape" fill="#000000"></path>
    </g>
</svg>