<?xml version="1.0" encoding="UTF-8" standalone="no"?>
<svg width="64px" height="64px" viewBox="0 0 64 64" version="1.1" xmlns="http://www.w3.org/2000/svg" xmlns:xlink="http://www.w3.org/1999/xlink">
    <!-- Generator: Sketch 3.7.2 (28276) - http://www.bohemiancoding.com/sketch -->
    <title>pre-bar-chart</title>
    <desc>Created with Sketch.</desc>
    <defs></defs>
    <g id="64px-Line" stroke="none" stroke-width="1" fill="none" fill-rule="evenodd">
        <g id="pre-bar-chart"></g>
        <path d="M11,50 L17,50 C17.552,50 18,49.552 18,49 L18,37 C18,36.448 17.552,36 17,36 L11,36 C10.448,36 10,36.448 10,37 L10,49 C10,49.552 10.448,50 11,50 L11,50 Z M12,38 L16,38 L16,48 L12,48 L12,38 L12,38 Z" id="Shape" fill="#000000"></path>
        <path d="M23,50 L29,50 C29.552,50 30,49.552 30,49 L30,23 C30,22.448 29.552,22 29,22 L23,22 C22.448,22 22,22.448 22,23 L22,49 C22,49.552 22.448,50 23,50 L23,50 Z M24,24 L28,24 L28,48 L24,48 L24,24 L24,24 Z" id="Shape" fill="#000000"></path>
        <path d="M35,50 L41,50 C41.552,50 42,49.552 42,49 L42,29 C42,28.448 41.552,28 41,28 L35,28 C34.448,28 34,28.448 34,29 L34,49 C34,49.552 34.448,50 35,50 L35,50 Z M36,30 L40,30 L40,48 L36,48 L36,30 L36,30 Z" id="Shape" fill="#000000"></path>
        <path d="M47,50 L53,50 C53.552,50 54,49.552 54,49 L54,15 C54,14.448 53.552,14 53,14 L47,14 C46.448,14 46,14.448 46,15 L46,49 C46,49.552 46.448,50 47,50 L47,50 Z M48,16 L52,16 L52,48 L48,48 L48,16 L48,16 Z" id="Shape" fill="#000000"></path>
        <path d="M59,8 L5,8 C4.448,8 4,8.448 4,9 L4,55 C4,55.552 4.448,56 5,56 L59,56 C59.552,56 60,55.552 60,55 L60,9 C60,8.448 59.552,8 59,8 L59,8 Z M58,54 L6,54 L6,10 L58,10 L58,54 L58,54 Z" id="Shape" fill="#000000"></path>
    </g>
</svg>