<?xml version="1.0" encoding="UTF-8" standalone="no"?>
<svg width="64px" height="64px" viewBox="0 0 64 64" version="1.1" xmlns="http://www.w3.org/2000/svg" xmlns:xlink="http://www.w3.org/1999/xlink">
    <!-- Generator: Sketch 3.7.2 (28276) - http://www.bohemiancoding.com/sketch -->
    <title>pre-line-graph</title>
    <desc>Created with Sketch.</desc>
    <defs></defs>
    <g id="64px-Line" stroke="none" stroke-width="1" fill="none" fill-rule="evenodd">
        <g id="pre-line-graph"></g>
        <path d="M5,54 C4.447,54 4,54.448 4,55 C4,55.552 4.447,56 5,56 L8,56 L8,59 C8,59.552 8.447,60 9,60 C9.553,60 10,59.552 10,59 L10,56 L57,56 C57.553,56 58,55.552 58,55 C58,54.448 57.553,54 57,54 L10,54 L10,47.659 L22.896,42.132 L28.445,45.832 C28.841,46.096 29.369,46.044 29.707,45.707 L37.593,37.822 L44.928,34.154 L56.446,41.832 C56.907,42.139 57.527,42.014 57.833,41.555 C58.14,41.096 58.016,40.474 57.556,40.168 L45.556,32.168 C45.258,31.969 44.876,31.945 44.554,32.106 L36.554,36.106 C36.458,36.154 36.37,36.217 36.294,36.294 L28.874,43.714 L23.556,40.169 C23.274,39.981 22.916,39.949 22.608,40.082 L10,45.484 L10,39.255 L21.086,18.931 L24.168,23.555 C24.306,23.762 24.517,23.91 24.758,23.971 L32.758,25.971 C33.123,26.064 33.513,25.939 33.759,25.652 L44.857,12.705 L56.143,31.516 C56.427,31.989 57.04,32.143 57.515,31.859 C57.989,31.575 58.142,30.961 57.858,30.487 L45.858,10.487 C45.693,10.212 45.405,10.032 45.085,10.005 C44.77,9.98 44.451,10.107 44.242,10.351 L32.643,23.882 L25.618,22.126 L21.833,16.448 C21.639,16.157 21.303,15.99 20.957,16.004 C20.606,16.02 20.291,16.217 20.123,16.524 L10,35.078 L10,7 C10,6.448 9.553,6 9,6 C8.447,6 8,6.448 8,7 L8,47.005 L8,47.006 L8,54 L5,54 L5,54 Z" id="Shape" fill="#000000"></path>
    </g>
</svg>