<?xml version="1.0" encoding="UTF-8" standalone="no"?>
<svg width="64px" height="64px" viewBox="0 0 64 64" version="1.1" xmlns="http://www.w3.org/2000/svg" xmlns:xlink="http://www.w3.org/1999/xlink">
    <!-- Generator: Sketch 3.7.2 (28276) - http://www.bohemiancoding.com/sketch -->
    <title>pre-laptop-charts</title>
    <desc>Created with Sketch.</desc>
    <defs></defs>
    <g id="64px-Line" stroke="none" stroke-width="1" fill="none" fill-rule="evenodd">
        <g id="pre-laptop-charts"></g>
        <path d="M17,38 L31,38 C31.553,38 32,37.552 32,37 C32,36.448 31.553,36 31,36 L30,36 L30,31 C30,30.448 29.553,30 29,30 C28.447,30 28,30.448 28,31 L28,36 L26,36 L26,25 C26,24.448 25.553,24 25,24 C24.447,24 24,24.448 24,25 L24,36 L22,36 L22,27 C22,26.448 21.553,26 21,26 C20.447,26 20,26.448 20,27 L20,36 L18,36 L18,21 C18,20.448 17.553,20 17,20 C16.447,20 16,20.448 16,21 L16,37 C16,37.552 16.447,38 17,38 L17,38 Z" id="Shape" fill="#000000"></path>
        <path d="M61,44 L58,44 L58,16 C58,13.794 56.206,12 54,12 L10,12 C7.794,12 6,13.794 6,16 L6,44 L3,44 C2.447,44 2,44.448 2,45 L2,48 C2,50.206 3.794,52 6,52 L58,52 C60.206,52 62,50.206 62,48 L62,45 C62,44.448 61.553,44 61,44 L61,44 Z M8,16 C8,14.897 8.897,14 10,14 L54,14 C55.103,14 56,14.897 56,16 L56,44 L8,44 L8,16 L8,16 Z M60,48 C60,49.103 59.103,50 58,50 L6,50 C4.897,50 4,49.103 4,48 L4,46 L60,46 L60,48 L60,48 Z" id="Shape" fill="#000000"></path>
        <path d="M53,16 L11,16 C10.447,16 10,16.448 10,17 L10,41 C10,41.552 10.447,42 11,42 L53,42 C53.553,42 54,41.552 54,41 L54,17 C54,16.448 53.553,16 53,16 L53,16 Z M52,40 L12,40 L12,18 L52,18 L52,40 L52,40 Z" id="Shape" fill="#000000"></path>
        <path d="M34.625,35.345 C34.63,35.35 34.632,35.358 34.637,35.363 C34.642,35.368 34.649,35.37 34.655,35.375 C36.283,36.996 38.526,38 41,38 C45.963,38 50,33.962 50,29 C50,24.038 45.963,20 41,20 C38.526,20 36.283,21.004 34.655,22.625 C34.65,22.63 34.642,22.632 34.637,22.637 C34.632,22.642 34.63,22.649 34.625,22.655 C33.004,24.283 32,26.526 32,29 C32,31.474 33.004,33.717 34.625,35.345 L34.625,35.345 Z M35.402,24.816 L39.586,29 L35.402,33.184 C34.526,32.015 34,30.57 34,29 C34,27.43 34.526,25.985 35.402,24.816 L35.402,24.816 Z M40,26.586 L36.816,23.402 C37.732,22.716 38.817,22.251 40,22.08 L40,26.586 L40,26.586 Z M41,36 C39.43,36 37.985,35.474 36.816,34.598 L41.414,30 L47.92,30 C47.432,33.387 44.519,36 41,36 L41,36 Z M47.92,28 L42,28 L42,22.08 C45.059,22.521 47.479,24.941 47.92,28 L47.92,28 Z" id="Shape" fill="#000000"></path>
    </g>
</svg>