<?xml version="1.0" encoding="UTF-8" standalone="no"?>
<svg width="64px" height="64px" viewBox="0 0 64 64" version="1.1" xmlns="http://www.w3.org/2000/svg" xmlns:xlink="http://www.w3.org/1999/xlink">
    <!-- Generator: Sketch 3.7.2 (28276) - http://www.bohemiancoding.com/sketch -->
    <title>pre-presentation-audience</title>
    <desc>Created with Sketch.</desc>
    <defs></defs>
    <g id="64px-Line" stroke="none" stroke-width="1" fill="none" fill-rule="evenodd">
        <g id="pre-presentation-audience"></g>
        <path d="M16,44 C16,40.355 14.037,38 11,38 C7.963,38 6,40.355 6,44 C6,47.645 7.963,50 11,50 C14.037,50 16,47.645 16,44 L16,44 Z M11,48 C8.292,48 8,45.203 8,44 C8,42.797 8.292,40 11,40 C13.708,40 14,42.797 14,44 C14,45.203 13.708,48 11,48 L11,48 Z" id="Shape" fill="#000000"></path>
        <path d="M3.997,57.076 C4.335,52.664 5.251,52 11,52 C16.749,52 17.665,52.664 18,57 L18,59 C18,59.553 18.447,60 19,60 C19.553,60 20,59.553 20,59 L19.997,56.924 C19.548,51.046 17.249,50 11,50 C4.751,50 2.452,51.046 2,57 L2,59 C2,59.553 2.447,60 3,60 C3.553,60 4,59.553 4,59 L3.997,57.076 L3.997,57.076 Z" id="Shape" fill="#000000"></path>
        <path d="M36,44 C36,40.355 34.037,38 31,38 C27.963,38 26,40.355 26,44 C26,47.645 27.963,50 31,50 C34.037,50 36,47.645 36,44 L36,44 Z M31,48 C28.292,48 28,45.203 28,44 C28,42.797 28.292,40 31,40 C33.708,40 34,42.797 34,44 C34,45.203 33.708,48 31,48 L31,48 Z" id="Shape" fill="#000000"></path>
        <path d="M39.997,56.924 C39.548,51.046 37.249,50 31,50 C24.751,50 22.452,51.046 22,57 L22,59 C22,59.553 22.447,60 23,60 C23.553,60 24,59.553 24,59 L23.997,57.076 C24.335,52.664 25.251,52 31,52 C36.749,52 37.665,52.664 38,57 L38,59 C38,59.553 38.447,60 39,60 C39.553,60 40,59.553 40,59 L39.997,56.924 L39.997,56.924 Z" id="Shape" fill="#000000"></path>
        <path d="M56,44 C56,40.355 54.037,38 51,38 C47.963,38 46,40.355 46,44 C46,47.645 47.963,50 51,50 C54.037,50 56,47.645 56,44 L56,44 Z M51,48 C48.292,48 48,45.203 48,44 C48,42.797 48.292,40 51,40 C53.708,40 54,42.797 54,44 C54,45.203 53.708,48 51,48 L51,48 Z" id="Shape" fill="#000000"></path>
        <path d="M51,50 C44.751,50 42.452,51.046 42,57 L42,59 C42,59.553 42.447,60 43,60 C43.553,60 44,59.553 44,59 L43.997,57.076 C44.335,52.664 45.251,52 51,52 C56.749,52 57.665,52.664 58,57 L58,59 C58,59.553 58.447,60 59,60 C59.553,60 60,59.553 60,59 L59.997,56.924 C59.548,51.046 57.249,50 51,50 L51,50 Z" id="Shape" fill="#000000"></path>
        <path d="M50,35 L50,11 C50,10.447 49.553,10 49,10 L13,10 C12.447,10 12,10.447 12,11 L12,35 C12,35.553 12.447,36 13,36 L21.78,36 L20.019,44.804 C19.911,45.346 20.262,45.872 20.803,45.981 C20.869,45.995 20.935,46.001 21,46.001 C21.467,46.001 21.885,45.673 21.979,45.197 L23.82,36 L38.181,36 L40.02,45.196 C40.115,45.672 40.533,46 40.999,46 C41.063,46 41.13,45.994 41.196,45.98 C41.737,45.872 42.089,45.345 41.98,44.803 L40.22,36 L49,36 C49.553,36 50,35.553 50,35 L50,35 Z M48,34 L14,34 L14,12 L48,12 L48,34 L48,34 Z" id="Shape" fill="#000000"></path>
        <path d="M52,7 C52,6.447 51.553,6 51,6 L34,6 L34,5 C34,4.447 33.553,4 33,4 L29,4 C28.447,4 28,4.447 28,5 L28,6 L11,6 C10.447,6 10,6.447 10,7 C10,7.553 10.447,8 11,8 L51,8 C51.553,8 52,7.553 52,7 L52,7 Z" id="Shape" fill="#000000"></path>
        <path d="M19,32 C19.256,32 19.512,31.902 19.707,31.707 L29,22.414 L32.293,25.707 C32.684,26.098 33.316,26.098 33.707,25.707 L42,17.414 L42,21 C42,21.553 42.447,22 43,22 C43.553,22 44,21.553 44,21 L44,15 C44,14.87 43.974,14.74 43.923,14.618 C43.822,14.373 43.627,14.178 43.382,14.077 C43.26,14.026 43.13,14 43,14 L37,14 C36.447,14 36,14.447 36,15 C36,15.553 36.447,16 37,16 L40.586,16 L33,23.586 L29.707,20.293 C29.316,19.902 28.684,19.902 28.293,20.293 L18.293,30.293 C17.902,30.684 17.902,31.316 18.293,31.707 C18.488,31.902 18.744,32 19,32 L19,32 Z" id="Shape" fill="#000000"></path>
    </g>
</svg>