<?xml version="1.0" encoding="UTF-8" standalone="no"?>
<svg width="44px" height="44px" viewBox="0 0 44 44" version="1.1" xmlns="http://www.w3.org/2000/svg" xmlns:xlink="http://www.w3.org/1999/xlink">
    <!-- Generator: Sketch 3.7.2 (28276) - http://www.bohemiancoding.com/sketch -->
    <title>pre-col-graph-increase</title>
    <desc>Created with Sketch.</desc>
    <defs></defs>
    <g id="44px-Glyph" stroke="none" stroke-width="1" fill="none" fill-rule="evenodd">
        <g id="pre-col-graph-increase" fill="#000000">
            <path d="M43,42 L40,42 L40,17 C40,16.448 39.553,16 39,16 L31,16 C30.447,16 30,16.448 30,17 L30,42 L28,42 L28,25 C28,24.448 27.553,24 27,24 L19,24 C18.447,24 18,24.448 18,25 L18,42 L16,42 L16,29 C16,28.448 15.553,28 15,28 L7,28 C6.447,28 6,28.448 6,29 L6,42 L2,42 L2,1 C2,0.448 1.553,0 1,0 C0.447,0 0,0.448 0,1 L0,43 C0,43.552 0.447,44 1,44 L7,44 L15,44 L19,44 L27,44 L31,44 L39,44 L43,44 C43.553,44 44,43.552 44,43 C44,42.448 43.553,42 43,42" id="Fill-43"></path>
            <path d="M39.9871,2.9357 C39.9831,2.8667 39.9651,2.8027 39.9471,2.7367 C39.9301,2.6757 39.9151,2.6157 39.8881,2.5607 C39.8611,2.5057 39.8231,2.4597 39.7861,2.4097 C39.7441,2.3537 39.7031,2.3007 39.6501,2.2547 C39.6331,2.2397 39.6251,2.2187 39.6071,2.2057 C39.5751,2.1807 39.5361,2.1737 39.5011,2.1537 C39.4411,2.1177 39.3831,2.0867 39.3161,2.0637 C39.2511,2.0417 39.1871,2.0327 39.1201,2.0247 C39.0791,2.0187 39.0431,1.9997 39.0001,1.9997 L31.0001,1.9997 C30.4471,1.9997 30.0001,2.4477 30.0001,2.9997 C30.0001,3.5527 30.4471,3.9997 31.0001,3.9997 L36.9221,3.9997 C24.3051,19.1907 6.0081,23.5007 5.8181,23.5447 C5.2801,23.6667 4.9431,24.2017 5.0651,24.7407 C5.1701,25.2047 5.5821,25.5197 6.0391,25.5197 C6.1121,25.5197 6.1861,25.5117 6.2611,25.4947 C7.0531,25.3157 25.0031,21.0937 38.0001,5.8167 L38.0001,10.9997 C38.0001,11.5527 38.4471,11.9997 39.0001,11.9997 C39.5531,11.9997 40.0001,11.5527 40.0001,10.9997 L40.0001,2.9997 C40.0001,2.9777 39.9881,2.9577 39.9871,2.9357" id="Fill-45"></path>
        </g>
    </g>
</svg>