<?xml version="1.0" encoding="UTF-8" standalone="no"?>
<svg width="64px" height="64px" viewBox="0 0 64 64" version="1.1" xmlns="http://www.w3.org/2000/svg" xmlns:xlink="http://www.w3.org/1999/xlink">
    <!-- Generator: Sketch 3.7.2 (28276) - http://www.bohemiancoding.com/sketch -->
    <title>pre-presenter-audience</title>
    <desc>Created with Sketch.</desc>
    <defs></defs>
    <g id="64px-Line" stroke="none" stroke-width="1" fill="none" fill-rule="evenodd">
        <g id="pre-presenter-audience"></g>
        <path d="M22,12 C22,8.355 20.037,6 17,6 C13.963,6 12,8.355 12,12 C12,15.645 13.963,18 17,18 C20.037,18 22,15.645 22,12 L22,12 Z M17,16 C14.292,16 14,13.203 14,12 C14,10.797 14.292,8 17,8 C19.708,8 20,10.797 20,12 C20,13.203 19.708,16 17,16 L17,16 Z" id="Shape" fill="#000000"></path>
        <path d="M10,27 L10,35 C10,35.553 10.447,36 11,36 C11.553,36 12,35.553 12,35 L12,27 C12,26.447 11.553,26 11,26 C10.447,26 10,26.447 10,27 L10,27 Z" id="Shape" fill="#000000"></path>
        <path d="M57.839,6.455 C57.536,5.991 56.917,5.86 56.455,6.161 L37.2,18.677 C36.753,18.26 36.158,18 35.5,18 L17,18 C12.428,18 7.508,18.456 7.004,23.917 L6.004,35.917 C5.958,36.468 6.366,36.95 6.917,36.996 C7.481,37.05 7.951,36.633 7.996,36.083 L8.996,24.092 C9.278,21.032 11.298,20 17,20 L35.5,20 C35.775,20 36,20.225 36,20.5 C36,20.775 35.775,21 35.42,21.003 L22.92,22.003 C22.4,22.045 22,22.479 22,23 L22,49 C22,49.553 22.447,50 23,50 C23.553,50 24,49.553 24,49 L24,23.923 L35.5,23 C36.863,23 37.97,21.903 37.995,20.546 L57.545,7.839 C58.008,7.537 58.14,6.918 57.839,6.455 L57.839,6.455 Z" id="Shape" fill="#000000"></path>
        <path d="M16,44 C16,40.355 14.037,38 11,38 C7.963,38 6,40.355 6,44 C6,47.645 7.963,50 11,50 C14.037,50 16,47.645 16,44 L16,44 Z M11,48 C8.292,48 8,45.203 8,44 C8,42.797 8.292,40 11,40 C13.708,40 14,42.797 14,44 C14,45.203 13.708,48 11,48 L11,48 Z" id="Shape" fill="#000000"></path>
        <path d="M11,52 C16.749,52 17.665,52.664 18,57 L18,59 C18,59.553 18.447,60 19,60 C19.553,60 20,59.553 20,59 L19.997,56.924 C19.548,51.046 17.249,50 11,50 C4.751,50 2.452,51.046 2,57 L2,59 C2,59.553 2.447,60 3,60 C3.553,60 4,59.553 4,59 L3.997,57.076 C4.335,52.664 5.251,52 11,52 L11,52 Z" id="Shape" fill="#000000"></path>
        <path d="M36,44 C36,40.355 34.037,38 31,38 C27.963,38 26,40.355 26,44 C26,47.645 27.963,50 31,50 C34.037,50 36,47.645 36,44 L36,44 Z M31,48 C28.292,48 28,45.203 28,44 C28,42.797 28.292,40 31,40 C33.708,40 34,42.797 34,44 C34,45.203 33.708,48 31,48 L31,48 Z" id="Shape" fill="#000000"></path>
        <path d="M39,60 C39.553,60 40,59.553 40,59 L39.997,56.924 C39.548,51.046 37.249,50 31,50 C24.751,50 22.452,51.046 22,57 L22,59 C22,59.553 22.447,60 23,60 C23.553,60 24,59.553 24,59 L23.997,57.076 C24.335,52.664 25.251,52 31,52 C36.749,52 37.665,52.664 38,57 L38,59 C38,59.553 38.447,60 39,60 L39,60 Z" id="Shape" fill="#000000"></path>
        <path d="M56,44 C56,40.355 54.037,38 51,38 C47.963,38 46,40.355 46,44 C46,47.645 47.963,50 51,50 C54.037,50 56,47.645 56,44 L56,44 Z M51,48 C48.292,48 48,45.203 48,44 C48,42.797 48.292,40 51,40 C53.708,40 54,42.797 54,44 C54,45.203 53.708,48 51,48 L51,48 Z" id="Shape" fill="#000000"></path>
        <path d="M51,50 C44.751,50 42.452,51.046 42,57 L42,59 C42,59.553 42.447,60 43,60 C43.553,60 44,59.553 44,59 L43.997,57.076 C44.335,52.664 45.251,52 51,52 C56.749,52 57.665,52.664 58,57 L58,59 C58,59.553 58.447,60 59,60 C59.553,60 60,59.553 60,59 L59.997,56.924 C59.548,51.046 57.249,50 51,50 L51,50 Z" id="Shape" fill="#000000"></path>
    </g>
</svg>