<?xml version="1.0" encoding="UTF-8" standalone="no"?>
<svg width="64px" height="64px" viewBox="0 0 64 64" version="1.1" xmlns="http://www.w3.org/2000/svg" xmlns:xlink="http://www.w3.org/1999/xlink">
    <!-- Generator: Sketch 3.7.2 (28276) - http://www.bohemiancoding.com/sketch -->
    <title>pre-podium-audience</title>
    <desc>Created with Sketch.</desc>
    <defs></defs>
    <g id="64px-Line" stroke="none" stroke-width="1" fill="none" fill-rule="evenodd">
        <g id="pre-podium-audience"></g>
        <path d="M36,10 C36,6.355 34.037,4 31,4 C27.963,4 26,6.355 26,10 C26,13.645 27.963,16 31,16 C34.037,16 36,13.645 36,10 L36,10 Z M31,14 C28.292,14 28,11.203 28,10 C28,8.797 28.292,6 31,6 C33.708,6 34,8.797 34,10 C34,11.203 33.708,14 31,14 L31,14 Z" id="Shape" fill="#000000"></path>
        <path d="M16,44 C16,40.355 14.037,38 11,38 C7.963,38 6,40.355 6,44 C6,47.645 7.963,50 11,50 C14.037,50 16,47.645 16,44 L16,44 Z M11,48 C8.292,48 8,45.203 8,44 C8,42.797 8.292,40 11,40 C13.708,40 14,42.797 14,44 C14,45.203 13.708,48 11,48 L11,48 Z" id="Shape" fill="#000000"></path>
        <path d="M3.997,57.076 C4.335,52.664 5.251,52 11,52 C16.749,52 17.665,52.664 18,57 L18,59 C18,59.553 18.447,60 19,60 C19.553,60 20,59.553 20,59 L19.997,56.924 C19.548,51.046 17.249,50 11,50 C4.751,50 2.452,51.046 2,57 L2,59 C2,59.553 2.447,60 3,60 C3.553,60 4,59.553 4,59 L3.997,57.076 L3.997,57.076 Z" id="Shape" fill="#000000"></path>
        <path d="M36,44 C36,40.355 34.037,38 31,38 C27.963,38 26,40.355 26,44 C26,47.645 27.963,50 31,50 C34.037,50 36,47.645 36,44 L36,44 Z M31,48 C28.292,48 28,45.203 28,44 C28,42.797 28.292,40 31,40 C33.708,40 34,42.797 34,44 C34,45.203 33.708,48 31,48 L31,48 Z" id="Shape" fill="#000000"></path>
        <path d="M39.997,56.924 C39.548,51.046 37.249,50 31,50 C24.751,50 22.452,51.046 22,57 L22,59 C22,59.553 22.447,60 23,60 C23.553,60 24,59.553 24,59 L23.997,57.076 C24.335,52.664 25.251,52 31,52 C36.749,52 37.665,52.664 38,57 L38,59 C38,59.553 38.447,60 39,60 C39.553,60 40,59.553 40,59 L39.997,56.924 L39.997,56.924 Z" id="Shape" fill="#000000"></path>
        <path d="M56,44 C56,40.355 54.037,38 51,38 C47.963,38 46,40.355 46,44 C46,47.645 47.963,50 51,50 C54.037,50 56,47.645 56,44 L56,44 Z M51,48 C48.292,48 48,45.203 48,44 C48,42.797 48.292,40 51,40 C53.708,40 54,42.797 54,44 C54,45.203 53.708,48 51,48 L51,48 Z" id="Shape" fill="#000000"></path>
        <path d="M51,50 C44.751,50 42.452,51.046 42,57 L42,59 C42,59.553 42.447,60 43,60 C43.553,60 44,59.553 44,59 L43.997,57.076 C44.335,52.664 45.251,52 51,52 C56.749,52 57.665,52.664 58,57 L58,59 C58,59.553 58.447,60 59,60 C59.553,60 60,59.553 60,59 L59.997,56.924 C59.548,51.046 57.249,50 51,50 L51,50 Z" id="Shape" fill="#000000"></path>
        <path d="M40,40 L41,40 C41.352,40 41.677,39.815 41.857,39.515 L47.857,29.515 C47.873,29.489 47.88,29.459 47.893,29.432 C47.907,29.403 47.919,29.376 47.93,29.345 C47.971,29.234 48,29.12 48,29 L48,25 C48,24.447 47.553,24 47,24 L41.999,24 L41.996,21.908 C41.513,16.672 35.865,16 31,16 C26.135,16 20.487,16.672 20,22 L20,24 L15,24 C14.447,24 14,24.447 14,25 L14,29 C14,29.119 14.029,29.234 14.07,29.345 C14.081,29.375 14.093,29.403 14.107,29.431 C14.12,29.458 14.127,29.488 14.143,29.515 L20.143,39.515 C20.324,39.816 20.649,40 21,40 L22,40 L22,49 C22,49.553 22.447,50 23,50 C23.553,50 24,49.553 24,49 L24,34 L38,34 L38,49 C38,49.553 38.447,50 39,50 C39.553,50 40,49.553 40,49 L40,40 L40,40 Z M21.996,22.092 C22.264,19.186 24.873,18 31,18 C37.127,18 39.736,19.186 40,22 L40,24 L21.999,24 L21.996,22.092 L21.996,22.092 Z M46,26 L46,28 L16,28 L16,26 L46,26 L46,26 Z M23,32 C22.447,32 22,32.447 22,33 L22,38 L21.566,38 L16.766,30 L45.233,30 L40.433,38 L40,38 L40,33 C40,32.447 39.553,32 39,32 L23,32 L23,32 Z" id="Shape" fill="#000000"></path>
    </g>
</svg>