<?xml version="1.0" encoding="UTF-8" standalone="no"?>
<svg width="64px" height="64px" viewBox="0 0 64 64" version="1.1" xmlns="http://www.w3.org/2000/svg" xmlns:xlink="http://www.w3.org/1999/xlink">
    <!-- Generator: Sketch 3.7.2 (28276) - http://www.bohemiancoding.com/sketch -->
    <title>pre-board</title>
    <desc>Created with Sketch.</desc>
    <defs></defs>
    <g id="64px-Line" stroke="none" stroke-width="1" fill="none" fill-rule="evenodd">
        <g id="pre-board"></g>
        <path d="M54,49 L54,13 C54,12.448 53.552,12 53,12 L9,12 C8.448,12 8,12.448 8,13 L8,49 C8,49.552 8.448,50 9,50 L30,50 L30,50.586 L22.293,58.293 C21.902,58.684 21.902,59.316 22.293,59.707 C22.488,59.902 22.744,60 23,60 C23.256,60 23.512,59.902 23.707,59.707 L31,52.414 L38.293,59.707 C38.488,59.902 38.744,60 39,60 C39.256,60 39.512,59.902 39.707,59.707 C40.098,59.316 40.098,58.684 39.707,58.293 L32,50.586 L32,50 L53,50 C53.552,50 54,49.552 54,49 L54,49 Z M52,48 L10,48 L10,14 L52,14 L52,48 L52,48 Z" id="Shape" fill="#000000"></path>
        <path d="M5,10 L57,10 C57.552,10 58,9.552 58,9 C58,8.448 57.552,8 57,8 L34,8 L34,7 C34,6.448 33.552,6 33,6 L29,6 C28.448,6 28,6.448 28,7 L28,8 L5,8 C4.448,8 4,8.448 4,9 C4,9.552 4.448,10 5,10 L5,10 Z" id="Shape" fill="#000000"></path>
        <path d="M15,40 C15.256,40 15.512,39.902 15.707,39.707 L21,34.414 L24.293,37.707 C24.684,38.098 25.316,38.098 25.707,37.707 L35,28.414 L38.293,31.707 C38.684,32.098 39.316,32.098 39.707,31.707 L46,25.414 L46,29 C46,29.552 46.448,30 47,30 C47.552,30 48,29.552 48,29 L48,23 C48,22.87 47.973,22.74 47.923,22.618 C47.822,22.374 47.627,22.179 47.382,22.077 C47.26,22.027 47.13,22 47,22 L41,22 C40.448,22 40,22.448 40,23 C40,23.552 40.448,24 41,24 L44.586,24 L39,29.586 L35.707,26.293 C35.316,25.902 34.684,25.902 34.293,26.293 L25,35.586 L21.707,32.293 C21.316,31.902 20.684,31.902 20.293,32.293 L14.293,38.293 C13.902,38.684 13.902,39.316 14.293,39.707 C14.488,39.902 14.744,40 15,40 L15,40 Z" id="Shape" fill="#000000"></path>
    </g>
</svg>