<?xml version="1.0" encoding="UTF-8" standalone="no"?>
<svg width="64px" height="64px" viewBox="0 0 64 64" version="1.1" xmlns="http://www.w3.org/2000/svg" xmlns:xlink="http://www.w3.org/1999/xlink">
    <!-- Generator: Sketch 3.7.2 (28276) - http://www.bohemiancoding.com/sketch -->
    <title>pre-doc-pie-chart-2</title>
    <desc>Created with Sketch.</desc>
    <defs></defs>
    <g id="64px-Line" stroke="none" stroke-width="1" fill="none" fill-rule="evenodd">
        <g id="pre-doc-pie-chart-2"></g>
        <path d="M40.707,6.293 C40.52,6.105 40.266,6 40,6 L14,6 C11.794,6 10,7.794 10,10 L10,56 C10,58.206 11.794,60 14,60 L48,60 C50.206,60 52,58.206 52,56 L52,18 C52,17.734 51.895,17.48 51.707,17.293 L40.707,6.293 L40.707,6.293 Z M49.586,18 L42,18 C40.897,18 40,17.103 40,16 L40,8.414 L49.586,18 L49.586,18 Z M48,58 L14,58 C12.897,58 12,57.103 12,56 L12,10 C12,8.897 12.897,8 14,8 L38,8 L38,16 C38,18.206 39.794,20 42,20 L50,20 L50,56 C50,57.103 49.103,58 48,58 L48,58 Z" id="Shape" fill="#000000"></path>
        <path d="M31,22 C27.43,22 24.194,23.448 21.842,25.785 C21.832,25.795 21.818,25.798 21.808,25.808 C21.798,25.818 21.795,25.832 21.785,25.842 C19.448,28.194 18,31.43 18,35 C18,38.57 19.448,41.806 21.785,44.158 C21.795,44.168 21.798,44.182 21.808,44.192 C21.818,44.202 21.832,44.205 21.842,44.215 C24.194,46.552 27.43,48 31,48 C38.168,48 44,42.168 44,35 C44,27.832 38.168,22 31,22 L31,22 Z M41.949,34 L32,34 L32,24.051 C37.268,24.528 41.472,28.732 41.949,34 L41.949,34 Z M30,32.586 L23.966,26.552 C25.633,25.161 27.717,24.258 30,24.051 L30,32.586 L30,32.586 Z M22.552,27.966 L29.586,35 L22.552,42.034 C20.96,40.125 20,37.673 20,35 C20,32.327 20.96,29.875 22.552,27.966 L22.552,27.966 Z M31,46 C28.327,46 25.875,45.039 23.966,43.448 L31.414,36 L41.949,36 C41.442,41.598 36.728,46 31,46 L31,46 Z" id="Shape" fill="#000000"></path>
    </g>
</svg>