<?xml version="1.0" encoding="UTF-8" standalone="no"?>
<svg width="64px" height="64px" viewBox="0 0 64 64" version="1.1" xmlns="http://www.w3.org/2000/svg" xmlns:xlink="http://www.w3.org/1999/xlink">
    <!-- Generator: Sketch 3.7.2 (28276) - http://www.bohemiancoding.com/sketch -->
    <title>pre-doc-graph-2</title>
    <desc>Created with Sketch.</desc>
    <defs></defs>
    <g id="64px-Line" stroke="none" stroke-width="1" fill="none" fill-rule="evenodd">
        <g id="pre-doc-graph-2"></g>
        <path d="M40.707,6.293 C40.52,6.105 40.266,6 40,6 L14,6 C11.794,6 10,7.794 10,10 L10,56 C10,58.206 11.794,60 14,60 L48,60 C50.206,60 52,58.206 52,56 L52,18 C52,17.734 51.895,17.48 51.707,17.293 L40.707,6.293 L40.707,6.293 Z M49.586,18 L42,18 C40.897,18 40,17.103 40,16 L40,8.414 L49.586,18 L49.586,18 Z M48,58 L14,58 C12.897,58 12,57.103 12,56 L12,10 C12,8.897 12.897,8 14,8 L38,8 L38,16 C38,18.206 39.794,20 42,20 L50,20 L50,56 C50,57.103 49.103,58 48,58 L48,58 Z" id="Shape" fill="#000000"></path>
        <path d="M21,46 L25,46 C25.553,46 26,45.553 26,45 L26,35 C26,34.447 25.553,34 25,34 L21,34 C20.447,34 20,34.447 20,35 L20,45 C20,45.553 20.447,46 21,46 L21,46 Z M22,36 L24,36 L24,44 L22,44 L22,36 L22,36 Z" id="Shape" fill="#000000"></path>
        <path d="M29,46 L33,46 C33.553,46 34,45.553 34,45 L34,21 C34,20.447 33.553,20 33,20 L29,20 C28.447,20 28,20.447 28,21 L28,45 C28,45.553 28.447,46 29,46 L29,46 Z M30,22 L32,22 L32,44 L30,44 L30,22 L30,22 Z" id="Shape" fill="#000000"></path>
        <path d="M37,46 L41,46 C41.553,46 42,45.553 42,45 L42,27 C42,26.447 41.553,26 41,26 L37,26 C36.447,26 36,26.447 36,27 L36,45 C36,45.553 36.447,46 37,46 L37,46 Z M38,28 L40,28 L40,44 L38,44 L38,28 L38,28 Z" id="Shape" fill="#000000"></path>
        <path d="M45,48 L18,48 L18,17 C18,16.447 17.553,16 17,16 C16.447,16 16,16.447 16,17 L16,49 C16,49.553 16.447,50 17,50 L45,50 C45.553,50 46,49.553 46,49 C46,48.447 45.553,48 45,48 L45,48 Z" id="Shape" fill="#000000"></path>
    </g>
</svg>