<?xml version="1.0" encoding="UTF-8" standalone="no"?>
<svg width="64px" height="64px" viewBox="0 0 64 64" version="1.1" xmlns="http://www.w3.org/2000/svg" xmlns:xlink="http://www.w3.org/1999/xlink">
    <!-- Generator: Sketch 3.7.2 (28276) - http://www.bohemiancoding.com/sketch -->
    <title>pre-briefcase</title>
    <desc>Created with Sketch.</desc>
    <defs></defs>
    <g id="64px-Line" stroke="none" stroke-width="1" fill="none" fill-rule="evenodd">
        <g id="pre-briefcase"></g>
        <path d="M59,14 L52,14 L52,13 C52,12.447 51.553,12 51,12 L49,12 C48.447,12 48,12.447 48,13 L48,14 L16,14 L16,13 C16,12.447 15.553,12 15,12 L13,12 C12.447,12 12,12.447 12,13 L12,14 L5,14 C4.447,14 4,14.447 4,15 L4,55 C4,55.553 4.447,56 5,56 L59,56 C59.553,56 60,55.553 60,55 L60,15 C60,14.447 59.553,14 59,14 L59,14 Z M58,54 L6,54 L6,16 L13,16 L15,16 L49,16 L51,16 L58,16 L58,54 L58,54 Z" id="Shape" fill="#000000"></path>
        <path d="M36,8 L28,8 C25.794,8 24,9.794 24,12 C24,12.553 24.447,13 25,13 C25.553,13 26,12.553 26,12 C26,10.897 26.897,10 28,10 L36,10 C37.103,10 38,10.897 38,12 C38,12.553 38.447,13 39,13 C39.553,13 40,12.553 40,12 C40,9.794 38.206,8 36,8 L36,8 Z" id="Shape" fill="#000000"></path>
    </g>
</svg>