<?xml version="1.0" encoding="UTF-8" standalone="no"?>
<svg width="64px" height="64px" viewBox="0 0 64 64" version="1.1" xmlns="http://www.w3.org/2000/svg" xmlns:xlink="http://www.w3.org/1999/xlink">
    <!-- Generator: Sketch 3.7.2 (28276) - http://www.bohemiancoding.com/sketch -->
    <title>pre-node-graph</title>
    <desc>Created with Sketch.</desc>
    <defs></defs>
    <g id="64px-Line" stroke="none" stroke-width="1" fill="none" fill-rule="evenodd">
        <g id="pre-node-graph"></g>
        <path d="M59,54 L10,54 L10,7 C10,6.448 9.552,6 9,6 C8.448,6 8,6.448 8,7 L8,54 L5,54 C4.448,54 4,54.448 4,55 C4,55.552 4.448,56 5,56 L8,56 L8,59 C8,59.552 8.448,60 9,60 C9.552,60 10,59.552 10,59 L10,56 L59,56 C59.552,56 60,55.552 60,55 C60,54.448 59.552,54 59,54 L59,54 Z" id="Shape" fill="#000000"></path>
        <path d="M53,20 C54.654,20 56,18.654 56,17 C56,15.346 54.654,14 53,14 C51.346,14 50,15.346 50,17 C50,17.543 50.156,18.046 50.409,18.485 L42.075,28.207 C41.741,28.078 41.38,28 41,28 C40.193,28 39.463,28.324 38.923,28.844 L31.963,25.364 C31.978,25.243 32,25.125 32,25 C32,23.346 30.654,22 29,22 C27.346,22 26,23.346 26,25 C26,25.543 26.156,26.046 26.41,26.486 L18.076,36.208 C17.741,36.078 17.38,36 17,36 C15.346,36 14,37.346 14,39 C14,40.654 15.346,42 17,42 C18.654,42 20,40.654 20,39 C20,38.457 19.844,37.954 19.59,37.514 L27.924,27.792 C28.259,27.922 28.62,28 29,28 C29.807,28 30.537,27.676 31.076,27.157 L38.036,30.637 C38.021,30.757 37.999,30.876 37.999,31 C37.999,32.654 39.345,34 40.999,34 C42.653,34 43.999,32.654 43.999,31 C43.999,30.457 43.843,29.954 43.589,29.514 L51.922,19.792 C52.259,19.922 52.62,20 53,20 L53,20 Z M53,16 C53.551,16 54,16.449 54,17 C54,17.551 53.551,18 53,18 C52.449,18 52,17.551 52,17 C52,16.449 52.449,16 53,16 L53,16 Z M17,40 C16.449,40 16,39.551 16,39 C16,38.449 16.449,38 17,38 C17.551,38 18,38.449 18,39 C18,39.551 17.551,40 17,40 L17,40 Z M29,26 C28.449,26 28,25.551 28,25 C28,24.449 28.449,24 29,24 C29.551,24 30,24.449 30,25 C30,25.551 29.551,26 29,26 L29,26 Z M41,32 C40.449,32 40,31.551 40,31 C40,30.449 40.449,30 41,30 C41.551,30 42,30.449 42,31 C42,31.551 41.551,32 41,32 L41,32 Z" id="Shape" fill="#000000"></path>
    </g>
</svg>