<?xml version="1.0" encoding="UTF-8" standalone="no"?>
<svg width="64px" height="64px" viewBox="0 0 64 64" version="1.1" xmlns="http://www.w3.org/2000/svg" xmlns:xlink="http://www.w3.org/1999/xlink">
    <!-- Generator: Sketch 3.7.2 (28276) - http://www.bohemiancoding.com/sketch -->
    <title>pre-bar-graph</title>
    <desc>Created with Sketch.</desc>
    <defs></defs>
    <g id="64px-Line" stroke="none" stroke-width="1" fill="none" fill-rule="evenodd">
        <g id="pre-bar-graph"></g>
        <path d="M57,54 L10,54 L10,50 L37,50 C37.553,50 38,49.552 38,49 L38,43 C38,42.448 37.553,42 37,42 L10,42 L10,40 L47,40 C47.553,40 48,39.552 48,39 L48,33 C48,32.448 47.553,32 47,32 L10,32 L10,30 L27,30 C27.553,30 28,29.552 28,29 L28,23 C28,22.448 27.553,22 27,22 L10,22 L10,20 L55,20 C55.553,20 56,19.552 56,19 L56,13 C56,12.448 55.553,12 55,12 L10,12 L10,7 C10,6.448 9.553,6 9,6 C8.447,6 8,6.448 8,7 L8,13 L8,19 L8,23 L8,29 L8,33 L8,39 L8,43 L8,49 L8,54 L5,54 C4.447,54 4,54.448 4,55 C4,55.552 4.447,56 5,56 L8,56 L8,59 C8,59.552 8.447,60 9,60 C9.553,60 10,59.552 10,59 L10,56 L57,56 C57.553,56 58,55.552 58,55 C58,54.448 57.553,54 57,54 L57,54 Z M36,44 L36,48 L10,48 L10,44 L36,44 L36,44 Z M46,34 L46,38 L10,38 L10,34 L46,34 L46,34 Z M26,24 L26,28 L10,28 L10,24 L26,24 L26,24 Z M54,14 L54,18 L10,18 L10,14 L54,14 L54,14 Z" id="Shape" fill="#000000"></path>
    </g>
</svg>