<?xml version="1.0" encoding="UTF-8" standalone="no"?>
<svg width="64px" height="64px" viewBox="0 0 64 64" version="1.1" xmlns="http://www.w3.org/2000/svg" xmlns:xlink="http://www.w3.org/1999/xlink">
    <!-- Generator: Sketch 3.7.2 (28276) - http://www.bohemiancoding.com/sketch -->
    <title>pre-venn-diagram</title>
    <desc>Created with Sketch.</desc>
    <defs></defs>
    <g id="64px-Line" stroke="none" stroke-width="1" fill="none" fill-rule="evenodd">
        <g id="pre-venn-diagram"></g>
        <path d="M50.993,24.871 C50.923,14.454 42.433,6 32,6 C21.567,6 13.077,14.454 13.007,24.871 C7.611,28.226 4,34.192 4,41 C4,51.477 12.523,60 23,60 C26.255,60 29.319,59.175 32,57.727 C34.681,59.175 37.745,60 41,60 C51.477,60 60,51.477 60,41 C60,34.192 56.389,28.226 50.993,24.871 L50.993,24.871 Z M41.865,38.819 C41.235,33.344 38.269,28.579 33.991,25.53 C36.131,24.556 38.5,24 41,24 C43.872,24 46.576,24.722 48.95,25.984 C48.645,31.272 45.924,35.912 41.865,38.819 L41.865,38.819 Z M15.05,25.984 C17.424,24.722 20.128,24 23,24 C25.5,24 27.869,24.556 30.009,25.53 C25.731,28.578 22.765,33.343 22.135,38.819 C18.076,35.912 15.355,31.272 15.05,25.984 L15.05,25.984 Z M32,42 C29.128,42 26.424,41.278 24.05,40.016 C24.376,34.361 27.467,29.449 32,26.604 C36.533,29.448 39.624,34.361 39.95,40.016 C37.576,41.278 34.872,42 32,42 L32,42 Z M39.937,42.24 C39.534,47.787 36.464,52.595 32,55.396 C27.535,52.595 24.466,47.787 24.063,42.24 C26.482,43.358 29.165,44 32,44 C34.835,44 37.518,43.358 39.937,42.24 L39.937,42.24 Z M32,8 C40.956,8 48.298,14.965 48.937,23.76 C46.518,22.642 43.835,22 41,22 C37.745,22 34.681,22.825 32,24.273 C29.319,22.825 26.255,22 23,22 C20.165,22 17.482,22.642 15.063,23.76 C15.702,14.965 23.044,8 32,8 L32,8 Z M23,58 C13.626,58 6,50.374 6,41 C6,35.305 8.824,30.268 13.135,27.181 C13.812,33.072 17.196,38.137 22.006,41.129 C22.049,47.455 25.204,53.046 30.008,56.47 C27.869,57.444 25.5,58 23,58 L23,58 Z M41,58 C38.5,58 36.131,57.444 33.991,56.47 C38.796,53.046 41.951,47.456 41.993,41.129 C46.803,38.138 50.187,33.072 50.864,27.181 C55.176,30.268 58,35.305 58,41 C58,50.374 50.374,58 41,58 L41,58 Z" id="Shape" fill="#000000"></path>
    </g>
</svg>