<?xml version="1.0" encoding="UTF-8" standalone="no"?>
<svg width="64px" height="64px" viewBox="0 0 64 64" version="1.1" xmlns="http://www.w3.org/2000/svg" xmlns:xlink="http://www.w3.org/1999/xlink">
    <!-- Generator: Sketch 3.7.2 (28276) - http://www.bohemiancoding.com/sketch -->
    <title>pre-board-bar</title>
    <desc>Created with Sketch.</desc>
    <defs></defs>
    <g id="64px-Line" stroke="none" stroke-width="1" fill="none" fill-rule="evenodd">
        <g id="pre-board-bar"></g>
        <path d="M53,50 C53.552,50 54,49.552 54,49 L54,13 C54,12.448 53.552,12 53,12 L9,12 C8.448,12 8,12.448 8,13 L8,49 C8,49.552 8.448,50 9,50 L30,50 L30,50.586 L22.293,58.293 C21.902,58.684 21.902,59.316 22.293,59.707 C22.488,59.902 22.744,60 23,60 C23.256,60 23.512,59.902 23.707,59.707 L31,52.414 L38.293,59.707 C38.488,59.902 38.744,60 39,60 C39.256,60 39.512,59.902 39.707,59.707 C40.098,59.316 40.098,58.684 39.707,58.293 L32,50.586 L32,50 L53,50 L53,50 Z M10,14 L52,14 L52,48 L10,48 L10,14 L10,14 Z" id="Shape" fill="#000000"></path>
        <path d="M21,34 L17,34 C16.448,34 16,34.448 16,35 L16,41 C16,41.552 16.448,42 17,42 L21,42 C21.552,42 22,41.552 22,41 L22,35 C22,34.448 21.552,34 21,34 L21,34 Z M20,40 L18,40 L18,36 L20,36 L20,40 L20,40 Z" id="Shape" fill="#000000"></path>
        <path d="M29,22 L25,22 C24.448,22 24,22.448 24,23 L24,41 C24,41.552 24.448,42 25,42 L29,42 C29.552,42 30,41.552 30,41 L30,23 C30,22.448 29.552,22 29,22 L29,22 Z M28,40 L26,40 L26,24 L28,24 L28,40 L28,40 Z" id="Shape" fill="#000000"></path>
        <path d="M33,42 L37,42 C37.552,42 38,41.552 38,41 L38,27 C38,26.448 37.552,26 37,26 L33,26 C32.448,26 32,26.448 32,27 L32,41 C32,41.552 32.448,42 33,42 L33,42 Z M34,28 L36,28 L36,40 L34,40 L34,28 L34,28 Z" id="Shape" fill="#000000"></path>
        <path d="M41,42 L45,42 C45.552,42 46,41.552 46,41 L46,19 C46,18.448 45.552,18 45,18 L41,18 C40.448,18 40,18.448 40,19 L40,41 C40,41.552 40.448,42 41,42 L41,42 Z M42,20 L44,20 L44,40 L42,40 L42,20 L42,20 Z" id="Shape" fill="#000000"></path>
        <path d="M5,10 L57,10 C57.552,10 58,9.552 58,9 C58,8.448 57.552,8 57,8 L34,8 L34,7 C34,6.448 33.552,6 33,6 L29,6 C28.448,6 28,6.448 28,7 L28,8 L5,8 C4.448,8 4,8.448 4,9 C4,9.552 4.448,10 5,10 L5,10 Z" id="Shape" fill="#000000"></path>
    </g>
</svg>