<?xml version="1.0" encoding="UTF-8" standalone="no"?>
<svg width="64px" height="64px" viewBox="0 0 64 64" version="1.1" xmlns="http://www.w3.org/2000/svg" xmlns:xlink="http://www.w3.org/1999/xlink">
    <!-- Generator: Sketch 3.7.2 (28276) - http://www.bohemiancoding.com/sketch -->
    <title>pre-board-pie</title>
    <desc>Created with Sketch.</desc>
    <defs></defs>
    <g id="64px-Line" stroke="none" stroke-width="1" fill="none" fill-rule="evenodd">
        <g id="pre-board-pie"></g>
        <path d="M53,50 C53.552,50 54,49.552 54,49 L54,13 C54,12.448 53.552,12 53,12 L9,12 C8.448,12 8,12.448 8,13 L8,49 C8,49.552 8.448,50 9,50 L30,50 L30,50.586 L22.293,58.293 C21.902,58.684 21.902,59.316 22.293,59.707 C22.488,59.902 22.744,60 23,60 C23.256,60 23.512,59.902 23.707,59.707 L31,52.414 L38.293,59.707 C38.488,59.902 38.744,60 39,60 C39.256,60 39.512,59.902 39.707,59.707 C40.098,59.316 40.098,58.684 39.707,58.293 L32,50.586 L32,50 L53,50 L53,50 Z M10,14 L52,14 L52,48 L10,48 L10,14 L10,14 Z" id="Shape" fill="#000000"></path>
        <path d="M5,10 L57,10 C57.552,10 58,9.552 58,9 C58,8.448 57.552,8 57,8 L34,8 L34,7 C34,6.448 33.552,6 33,6 L29,6 C28.448,6 28,6.448 28,7 L28,8 L5,8 C4.448,8 4,8.448 4,9 C4,9.552 4.448,10 5,10 L5,10 Z" id="Shape" fill="#000000"></path>
        <path d="M21.84,40.214 C24.192,42.552 27.43,44 31,44 C38.168,44 44,38.168 44,31 C44,23.832 38.168,18 31,18 C27.43,18 24.192,19.448 21.84,21.786 C21.83,21.795 21.817,21.798 21.807,21.808 C21.797,21.818 21.794,21.831 21.785,21.841 C19.448,24.192 18,27.43 18,31 C18,34.57 19.448,37.808 21.786,40.16 C21.795,40.17 21.798,40.183 21.808,40.193 C21.818,40.203 21.83,40.205 21.84,40.214 L21.84,40.214 Z M31,42 C28.327,42 25.875,41.039 23.966,39.448 L31.414,32 L41.949,32 C41.442,37.598 36.728,42 31,42 L31,42 Z M30,28.586 L23.966,22.552 C25.633,21.161 27.717,20.258 30,20.051 L30,28.586 L30,28.586 Z M41.949,30 L32,30 L32,20.051 C37.268,20.528 41.472,24.732 41.949,30 L41.949,30 Z M22.552,23.966 L29.586,31 L22.552,38.034 C20.96,36.125 20,33.673 20,31 C20,28.327 20.96,25.875 22.552,23.966 L22.552,23.966 Z" id="Shape" fill="#000000"></path>
    </g>
</svg>