<?xml version="1.0" encoding="UTF-8" standalone="no"?>
<svg width="64px" height="64px" viewBox="0 0 64 64" version="1.1" xmlns="http://www.w3.org/2000/svg" xmlns:xlink="http://www.w3.org/1999/xlink">
    <!-- Generator: Sketch 3.7.2 (28276) - http://www.bohemiancoding.com/sketch -->
    <title>pre-presenter-pie</title>
    <desc>Created with Sketch.</desc>
    <defs></defs>
    <g id="64px-Line" stroke="none" stroke-width="1" fill="none" fill-rule="evenodd">
        <g id="pre-presenter-pie"></g>
        <path d="M50,23 C50,17.448 46.935,14 42,14 C37.065,14 34,17.448 34,23 C34,28.552 37.065,32 42,32 C46.935,32 50,28.552 50,23 L50,23 Z M36,23 C36,20.896 36.584,16 42,16 C47.416,16 48,20.896 48,23 C48,25.104 47.416,30 42,30 C36.584,30 36,25.104 36,23 L36,23 Z" id="Shape" fill="#000000"></path>
        <path d="M42,34 L10,34 C7.794,34 6,35.794 6,38 C6,40.203 7.791,41.996 9.907,41.996 L9.914,41.996 L32,43.917 L32,59 C32,59.553 32.448,60 33,60 C33.552,60 34,59.553 34,59 L34,43 C34,42.481 33.604,42.049 33.086,42.004 L10,40 C8.897,40 8,39.103 8,38 C8,36.897 8.897,36 10,36 L42,36 C52.704,36 55.322,37.699 56,45 L56,59 C56,59.553 56.448,60 57,60 C57.552,60 58,59.553 58,59 L57.996,44.908 C57.129,35.516 52.57,34 42,34 L42,34 Z" id="Shape" fill="#000000"></path>
        <path d="M51,60 C51.552,60 52,59.553 52,59 L52,47 C52,46.447 51.552,46 51,46 C50.448,46 50,46.447 50,47 L50,59 C50,59.553 50.448,60 51,60 L51,60 Z" id="Shape" fill="#000000"></path>
        <path d="M7.222,24.778 C7.231,24.787 7.243,24.789 7.252,24.798 C9.242,26.775 11.981,28 15.001,28 C21.066,28 26.001,23.065 26.001,17 C26.001,10.935 21.066,6 15.001,6 C11.981,6 9.242,7.225 7.252,9.202 C7.243,9.21 7.231,9.213 7.222,9.222 C7.213,9.231 7.211,9.243 7.202,9.251 C5.225,11.241 4,13.98 4,17 C4,20.02 5.225,22.759 7.202,24.749 C7.21,24.758 7.213,24.77 7.222,24.778 L7.222,24.778 Z M15,26 C12.878,26 10.929,25.258 9.389,24.025 L15.414,18 L23.941,18 C23.442,22.493 19.624,26 15,26 L15,26 Z M14,14.586 L9.389,9.975 C10.684,8.939 12.267,8.252 14,8.059 L14,14.586 L14,14.586 Z M23.941,16 L16,16 L16,8.059 C20.164,8.522 23.478,11.835 23.941,16 L23.941,16 Z M7.975,11.389 L13.586,17 L7.975,22.611 C6.742,21.071 6,19.122 6,17 C6,14.878 6.742,12.929 7.975,11.389 L7.975,11.389 Z" id="Shape" fill="#000000"></path>
    </g>
</svg>