<?xml version="1.0" encoding="UTF-8" standalone="no"?>
<svg width="64px" height="64px" viewBox="0 0 64 64" version="1.1" xmlns="http://www.w3.org/2000/svg" xmlns:xlink="http://www.w3.org/1999/xlink">
    <!-- Generator: Sketch 3.7.2 (28276) - http://www.bohemiancoding.com/sketch -->
    <title>pre-chart-down</title>
    <desc>Created with Sketch.</desc>
    <defs></defs>
    <g id="64px-Line" stroke="none" stroke-width="1" fill="none" fill-rule="evenodd">
        <g id="pre-chart-down"></g>
        <path d="M59,8 L5,8 C4.447,8 4,8.448 4,9 L4,55 C4,55.552 4.447,56 5,56 L59,56 C59.553,56 60,55.552 60,55 L60,9 C60,8.448 59.553,8 59,8 L59,8 Z M58,54 L6,54 L6,10 L58,10 L58,54 L58,54 Z" id="Shape" fill="#000000"></path>
        <path d="M20.293,29.707 C20.684,30.098 21.316,30.098 21.707,29.707 L25,26.414 L36.293,37.707 C36.684,38.098 37.316,38.098 37.707,37.707 L41,34.414 L48.586,42 L45,42 C44.447,42 44,42.448 44,43 C44,43.552 44.447,44 45,44 L51,44 C51.13,44 51.26,43.973 51.382,43.923 C51.627,43.822 51.822,43.627 51.923,43.382 C51.974,43.26 52,43.13 52,43 L52,37 C52,36.448 51.553,36 51,36 C50.447,36 50,36.448 50,37 L50,40.586 L41.707,32.293 C41.316,31.902 40.684,31.902 40.293,32.293 L37,35.586 L25.707,24.293 C25.316,23.902 24.684,23.902 24.293,24.293 L21,27.586 L13.707,20.293 C13.316,19.902 12.684,19.902 12.293,20.293 C11.902,20.684 11.902,21.316 12.293,21.707 L20.293,29.707 L20.293,29.707 Z" id="Shape" fill="#000000"></path>
    </g>
</svg>