<?xml version="1.0" encoding="UTF-8" standalone="no"?>
<svg width="64px" height="64px" viewBox="0 0 64 64" version="1.1" xmlns="http://www.w3.org/2000/svg" xmlns:xlink="http://www.w3.org/1999/xlink">
    <!-- Generator: Sketch 3.7.2 (28276) - http://www.bohemiancoding.com/sketch -->
    <title>pre-podium-mic</title>
    <desc>Created with Sketch.</desc>
    <defs></defs>
    <g id="64px-Line" stroke="none" stroke-width="1" fill="none" fill-rule="evenodd">
        <g id="pre-podium-mic"></g>
        <path d="M13,14 C12.447,14 12,14.447 12,15 L12,19 C12,19.127 12.024,19.253 12.071,19.371 L12.078,19.389 C12.078,19.389 12.078,19.389 12.078,19.39 L16.071,29.371 C16.223,29.751 16.591,30 17,30 L20,30 L20,58 L15,58 C14.447,58 14,58.447 14,59 C14,59.553 14.447,60 15,60 L47,60 C47.553,60 48,59.553 48,59 C48,58.447 47.553,58 47,58 L42,58 L42,30 L45,30 C45.409,30 45.776,29.751 45.929,29.371 L49.921,19.39 L49.921,19.389 L49.928,19.371 C49.975,19.253 49.999,19.127 49.999,19 L49.999,15 C49.999,14.447 49.552,14 48.999,14 L31.999,14 L31.999,9.816 C33.16,9.402 33.999,8.302 33.999,7 C33.999,5.346 32.653,4 30.999,4 C29.345,4 27.999,5.346 27.999,7 C27.999,8.302 28.838,9.402 29.999,9.816 L29.999,14 L13,14 L13,14 Z M31,6 C31.552,6 32,6.448 32,7 C32,7.552 31.552,8 31,8 C30.448,8 30,7.552 30,7 C30,6.448 30.448,6 31,6 L31,6 Z M22,58 L22,24 L40,24 L40,58 L22,58 L22,58 Z M44.323,28 L42,28 L42,23 C42,22.447 41.553,22 41,22 L21,22 C20.447,22 20,22.447 20,23 L20,28 L17.677,28 L14.477,20 L47.523,20 L44.323,28 L44.323,28 Z M48,18 L14,18 L14,16 L48,16 L48,18 L48,18 Z" id="Shape" fill="#000000"></path>
    </g>
</svg>