<?xml version="1.0" encoding="UTF-8" standalone="no"?>
<svg width="64px" height="64px" viewBox="0 0 64 64" version="1.1" xmlns="http://www.w3.org/2000/svg" xmlns:xlink="http://www.w3.org/1999/xlink">
    <!-- Generator: Sketch 3.7.2 (28276) - http://www.bohemiancoding.com/sketch -->
    <title>pre-scatter-graph</title>
    <desc>Created with Sketch.</desc>
    <defs></defs>
    <g id="64px-Line" stroke="none" stroke-width="1" fill="none" fill-rule="evenodd">
        <g id="pre-scatter-graph"></g>
        <path d="M9,6 C8.447,6 8,6.448 8,7 L8,54 L5,54 C4.447,54 4,54.448 4,55 C4,55.552 4.447,56 5,56 L8,56 L8,59 C8,59.552 8.447,60 9,60 C9.553,60 10,59.552 10,59 L10,56 L57,56 C57.553,56 58,55.552 58,55 C58,54.448 57.553,54 57,54 L10,54 L10,7 C10,6.448 9.553,6 9,6 L9,6 Z" id="Shape" fill="#000000"></path>
        <path d="M15,44 C14.447,44 14,44.448 14,45 L14,46 L13,46 C12.447,46 12,46.448 12,47 C12,47.552 12.447,48 13,48 L14,48 L14,49 C14,49.552 14.447,50 15,50 C15.553,50 16,49.552 16,49 L16,48 L17,48 C17.553,48 18,47.552 18,47 C18,46.448 17.553,46 17,46 L16,46 L16,45 C16,44.448 15.553,44 15,44 L15,44 Z" id="Shape" fill="#000000"></path>
        <path d="M26,42 L25,42 C24.447,42 24,42.448 24,43 C24,43.552 24.447,44 25,44 L26,44 L26,45 C26,45.552 26.447,46 27,46 C27.553,46 28,45.552 28,45 L28,44 L29,44 C29.553,44 30,43.552 30,43 C30,42.448 29.553,42 29,42 L28,42 L28,41 C28,40.448 27.553,40 27,40 C26.447,40 26,40.448 26,41 L26,42 L26,42 Z" id="Shape" fill="#000000"></path>
        <path d="M19,38 L20,38 L20,39 C20,39.552 20.447,40 21,40 C21.553,40 22,39.552 22,39 L22,38 L23,38 C23.553,38 24,37.552 24,37 C24,36.448 23.553,36 23,36 L22,36 L22,35 C22,34.448 21.553,34 21,34 C20.447,34 20,34.448 20,35 L20,36 L19,36 C18.447,36 18,36.448 18,37 C18,37.552 18.447,38 19,38 L19,38 Z" id="Shape" fill="#000000"></path>
        <path d="M37,38 C37.553,38 38,37.552 38,37 L38,36 L39,36 C39.553,36 40,35.552 40,35 C40,34.448 39.553,34 39,34 L38,34 L38,33 C38,32.448 37.553,32 37,32 C36.447,32 36,32.448 36,33 L36,34 L35,34 C34.447,34 34,34.448 34,35 C34,35.552 34.447,36 35,36 L36,36 L36,37 C36,37.552 36.447,38 37,38 L37,38 Z" id="Shape" fill="#000000"></path>
        <path d="M35,24 C34.447,24 34,24.448 34,25 L34,26 L33,26 C32.447,26 32,26.448 32,27 C32,27.552 32.447,28 33,28 L34,28 L34,29 C34,29.552 34.447,30 35,30 C35.553,30 36,29.552 36,29 L36,28 L37,28 C37.553,28 38,27.552 38,27 C38,26.448 37.553,26 37,26 L36,26 L36,25 C36,24.448 35.553,24 35,24 L35,24 Z" id="Shape" fill="#000000"></path>
        <path d="M47,42 C47.553,42 48,41.552 48,41 L48,40 L49,40 C49.553,40 50,39.552 50,39 C50,38.448 49.553,38 49,38 L48,38 L48,37 C48,36.448 47.553,36 47,36 C46.447,36 46,36.448 46,37 L46,38 L45,38 C44.447,38 44,38.448 44,39 C44,39.552 44.447,40 45,40 L46,40 L46,41 C46,41.552 46.447,42 47,42 L47,42 Z" id="Shape" fill="#000000"></path>
        <path d="M29,32 C28.447,32 28,32.448 28,33 L28,34 L27,34 C26.447,34 26,34.448 26,35 C26,35.552 26.447,36 27,36 L28,36 L28,37 C28,37.552 28.447,38 29,38 C29.553,38 30,37.552 30,37 L30,36 L31,36 C31.553,36 32,35.552 32,35 C32,34.448 31.553,34 31,34 L30,34 L30,33 C30,32.448 29.553,32 29,32 L29,32 Z" id="Shape" fill="#000000"></path>
        <path d="M42,22 L41,22 C40.447,22 40,22.448 40,23 C40,23.552 40.447,24 41,24 L42,24 L42,25 C42,25.552 42.447,26 43,26 C43.553,26 44,25.552 44,25 L44,24 L45,24 C45.553,24 46,23.552 46,23 C46,22.448 45.553,22 45,22 L44,22 L44,21 C44,20.448 43.553,20 43,20 C42.447,20 42,20.448 42,21 L42,22 L42,22 Z" id="Shape" fill="#000000"></path>
        <path d="M45,12 C44.447,12 44,12.448 44,13 L44,14 L43,14 C42.447,14 42,14.448 42,15 C42,15.552 42.447,16 43,16 L44,16 L44,17 C44,17.552 44.447,18 45,18 C45.553,18 46,17.552 46,17 L46,16 L47,16 C47.553,16 48,15.552 48,15 C48,14.448 47.553,14 47,14 L46,14 L46,13 C46,12.448 45.553,12 45,12 L45,12 Z" id="Shape" fill="#000000"></path>
        <path d="M49,24 C48.447,24 48,24.448 48,25 L48,26 L47,26 C46.447,26 46,26.448 46,27 C46,27.552 46.447,28 47,28 L48,28 L48,29 C48,29.552 48.447,30 49,30 C49.553,30 50,29.552 50,29 L50,28 L51,28 C51.553,28 52,27.552 52,27 C52,26.448 51.553,26 51,26 L50,26 L50,25 C50,24.448 49.553,24 49,24 L49,24 Z" id="Shape" fill="#000000"></path>
        <path d="M21,22 C20.447,22 20,22.448 20,23 L20,24 L19,24 C18.447,24 18,24.448 18,25 C18,25.552 18.447,26 19,26 L20,26 L20,27 C20,27.552 20.447,28 21,28 C21.553,28 22,27.552 22,27 L22,26 L23,26 C23.553,26 24,25.552 24,25 C24,24.448 23.553,24 23,24 L22,24 L22,23 C22,22.448 21.553,22 21,22 L21,22 Z" id="Shape" fill="#000000"></path>
        <path d="M53,8 C52.447,8 52,8.448 52,9 L52,10 L51,10 C50.447,10 50,10.448 50,11 C50,11.552 50.447,12 51,12 L52,12 L52,13 C52,13.552 52.447,14 53,14 C53.553,14 54,13.552 54,13 L54,12 L55,12 C55.553,12 56,11.552 56,11 C56,10.448 55.553,10 55,10 L54,10 L54,9 C54,8.448 53.553,8 53,8 L53,8 Z" id="Shape" fill="#000000"></path>
    </g>
</svg>