<?xml version="1.0" encoding="UTF-8" standalone="no"?>
<svg width="64px" height="64px" viewBox="0 0 64 64" version="1.1" xmlns="http://www.w3.org/2000/svg" xmlns:xlink="http://www.w3.org/1999/xlink">
    <!-- Generator: Sketch 3.7.2 (28276) - http://www.bohemiancoding.com/sketch -->
    <title>pre-col-stacked-graph</title>
    <desc>Created with Sketch.</desc>
    <defs></defs>
    <g id="64px-Line" stroke="none" stroke-width="1" fill="none" fill-rule="evenodd">
        <g id="pre-col-stacked-graph"></g>
        <path d="M57,54 L52,54 L52,11 C52,10.448 51.553,10 51,10 L45,10 C44.447,10 44,10.448 44,11 L44,54 L42,54 L42,27 C42,26.448 41.553,26 41,26 L35,26 C34.447,26 34,26.448 34,27 L34,54 L32,54 L32,19 C32,18.448 31.553,18 31,18 L25,18 C24.447,18 24,18.448 24,19 L24,54 L22,54 L22,35 C22,34.448 21.553,34 21,34 L15,34 C14.447,34 14,34.448 14,35 L14,54 L10,54 L10,7 C10,6.448 9.553,6 9,6 C8.447,6 8,6.448 8,7 L8,54 L5,54 C4.447,54 4,54.448 4,55 C4,55.552 4.447,56 5,56 L8,56 L8,59 C8,59.552 8.447,60 9,60 C9.553,60 10,59.552 10,59 L10,56 L15,56 L21,56 L25,56 L31,56 L35,56 L41,56 L45,56 L51,56 L57,56 C57.553,56 58,55.552 58,55 C58,54.448 57.553,54 57,54 L57,54 Z M50,12 L50,24 L46,24 L46,12 L50,12 L50,12 Z M40,28 L40,34 L36,34 L36,28 L40,28 L40,28 Z M30,20 L30,30 L26,30 L26,20 L30,20 L30,20 Z M20,36 L20,40 L16,40 L16,36 L20,36 L20,36 Z M16,54 L16,42 L20,42 L20,54 L16,54 L16,54 Z M26,54 L26,32 L30,32 L30,54 L26,54 L26,54 Z M36,54 L36,36 L40,36 L40,54 L36,54 L36,54 Z M46,54 L46,26 L50,26 L50,54 L46,54 L46,54 Z" id="Shape" fill="#000000"></path>
    </g>
</svg>