<?xml version="1.0" encoding="UTF-8" standalone="no"?>
<svg width="64px" height="64px" viewBox="0 0 64 64" version="1.1" xmlns="http://www.w3.org/2000/svg" xmlns:xlink="http://www.w3.org/1999/xlink">
    <!-- Generator: Sketch 3.7.2 (28276) - http://www.bohemiancoding.com/sketch -->
    <title>pre-presenter-increase</title>
    <desc>Created with Sketch.</desc>
    <defs></defs>
    <g id="64px-Line" stroke="none" stroke-width="1" fill="none" fill-rule="evenodd">
        <g id="pre-presenter-increase"></g>
        <path d="M50,23 C50,17.448 46.935,14 42,14 C37.065,14 34,17.448 34,23 C34,28.552 37.065,32 42,32 C46.935,32 50,28.552 50,23 L50,23 Z M36,23 C36,20.896 36.584,16 42,16 C47.416,16 48,20.896 48,23 C48,25.104 47.416,30 42,30 C36.584,30 36,25.104 36,23 L36,23 Z" id="Shape" fill="#000000"></path>
        <path d="M42,34 L10,34 C7.794,34 6,35.794 6,38 C6,40.203 7.791,41.996 9.907,41.996 L9.914,41.996 L32,43.917 L32,59 C32,59.553 32.448,60 33,60 C33.552,60 34,59.553 34,59 L34,43 C34,42.481 33.604,42.049 33.086,42.004 L10,40 C8.897,40 8,39.103 8,38 C8,36.897 8.897,36 10,36 L42,36 C52.704,36 55.322,37.699 56,45 L56,59 C56,59.553 56.448,60 57,60 C57.552,60 58,59.553 58,59 L57.996,44.908 C57.129,35.516 52.57,34 42,34 L42,34 Z" id="Shape" fill="#000000"></path>
        <path d="M7,6 C6.448,6 6,6.447 6,7 L6,29 C6,29.553 6.448,30 7,30 L29,30 C29.552,30 30,29.553 30,29 C30,28.447 29.552,28 29,28 L8,28 L8,7 C8,6.447 7.552,6 7,6 L7,6 Z" id="Shape" fill="#000000"></path>
        <path d="M19.707,16.293 C19.316,15.902 18.684,15.902 18.293,16.293 L10.293,24.293 C9.902,24.684 9.902,25.316 10.293,25.707 C10.488,25.902 10.744,26 11,26 C11.256,26 11.512,25.902 11.707,25.707 L19,18.414 L20.293,19.707 C20.684,20.098 21.316,20.098 21.707,19.707 L28,13.414 L28,17 C28,17.553 28.448,18 29,18 C29.552,18 30,17.553 30,17 L30,11 C30,10.87 29.973,10.74 29.923,10.618 C29.822,10.373 29.627,10.178 29.382,10.077 C29.26,10.026 29.13,10 29,10 L23,10 C22.448,10 22,10.447 22,11 C22,11.553 22.448,12 23,12 L26.586,12 L21,17.586 L19.707,16.293 L19.707,16.293 Z" id="Shape" fill="#000000"></path>
        <path d="M51,46 C50.448,46 50,46.447 50,47 L50,59 C50,59.553 50.448,60 51,60 C51.552,60 52,59.553 52,59 L52,47 C52,46.447 51.552,46 51,46 L51,46 Z" id="Shape" fill="#000000"></path>
    </g>
</svg>