<?xml version="1.0" encoding="UTF-8" standalone="no"?>
<svg width="64px" height="64px" viewBox="0 0 64 64" version="1.1" xmlns="http://www.w3.org/2000/svg" xmlns:xlink="http://www.w3.org/1999/xlink">
    <!-- Generator: Sketch 3.7.2 (28276) - http://www.bohemiancoding.com/sketch -->
    <title>sec-prisoner</title>
    <desc>Created with Sketch.</desc>
    <defs></defs>
    <g id="64px-Line" stroke="none" stroke-width="1" fill="none" fill-rule="evenodd">
        <g id="sec-prisoner"></g>
        <path d="M44,10 C44,6.843 36.457,6 32,6 C27.543,6 20,6.843 20,10 L20,18 C20,18.294 20.084,18.561 20.207,18.816 C20.068,20.07 20,21.463 20,23.183 C20,31.312 23.152,40 32,40 C40.848,40 44,31.312 44,23.183 C44,21.465 43.932,20.07 43.794,18.816 C43.916,18.561 44,18.294 44,18 L44,10 L44,10 Z M22.08,18.117 C22.053,18.071 22.033,18.023 22,17.982 L22,16.378 C24.547,17.61 28.979,18 32,18 C35.023,18 39.459,17.61 42.005,16.375 L42.006,17.957 C41.726,18.67 38.043,20 32,20 C26.29,20 22.691,18.813 22.08,18.117 L22.08,18.117 Z M42.003,13.962 C41.709,14.676 38.03,16 32,16 C25.957,16 22.274,14.67 22,14 L22,12.377 C24.547,13.61 28.979,14 32,14 C35.022,14 39.456,13.61 42.002,12.377 L42.003,13.962 L42.003,13.962 Z M32,8 C37.924,8 41.581,9.278 41.986,10 C41.581,10.722 37.924,12 32,12 C25.983,12 22.308,10.682 22,10.052 L22,10.034 C22.308,9.318 25.983,8 32,8 L32,8 Z M32,38 C22.482,38 22,25.657 22,23.183 C22,22.145 22.028,21.241 22.078,20.412 C24.636,21.616 29.009,22 32,22 C34.991,22 39.364,21.616 41.922,20.412 C41.973,21.241 42,22.144 42,23.183 C42,25.657 41.518,38 32,38 L32,38 Z" id="Shape" fill="#000000"></path>
        <path d="M57.901,45.694 C57.899,45.689 57.9,45.685 57.898,45.68 C57.895,45.673 57.888,45.668 57.884,45.661 C57.177,44.293 56.235,43.115 54.945,42.105 C54.944,42.105 54.943,42.104 54.942,42.103 C52.511,40.201 48.844,38.888 43.151,38.012 C42.61,37.926 42.095,38.302 42.011,38.848 C41.927,39.394 42.302,39.905 42.847,39.989 C46.925,40.616 49.834,41.416 51.948,42.513 C47.106,43.464 40.026,44 32,44 C23.973,44 16.893,43.464 12.051,42.512 C14.165,41.415 17.074,40.615 21.152,39.988 C21.698,39.904 22.072,39.393 21.988,38.847 C21.904,38.301 21.385,37.924 20.848,38.011 C15.156,38.887 11.488,40.199 9.057,42.101 C9.051,42.105 9.047,42.111 9.041,42.114 C7.758,43.122 6.82,44.297 6.115,45.66 C6.112,45.667 6.105,45.671 6.102,45.678 C6.1,45.682 6.101,45.687 6.099,45.691 C4.958,47.915 4.424,50.637 4.008,53.966 C4.002,54.008 4,54.05 4,54.091 C4,59.574 25.432,60 32,60 C38.568,60 60,59.574 60,54.091 C60,54.049 59.998,54.008 59.992,53.967 C59.576,50.639 59.042,47.917 57.901,45.694 L57.901,45.694 Z M7.499,47.37 C11.995,49.024 20.995,50 32,50 C43.003,50 52.004,49.024 56.501,47.371 C56.911,48.355 57.214,49.459 57.46,50.694 C55.141,52.34 46.515,54 32,54 C17.488,54 8.86,52.34 6.539,50.694 C6.786,49.458 7.088,48.354 7.499,47.37 L7.499,47.37 Z M32,46 C41.228,46 49.269,45.293 54.215,44.057 C54.728,44.523 55.164,45.033 55.541,45.586 C51.234,47.085 42.441,48 32,48 C21.558,48 12.765,47.085 8.459,45.586 C8.836,45.033 9.272,44.523 9.785,44.057 C14.731,45.293 22.771,46 32,46 L32,46 Z M32,58 C14.042,58 6.166,55.465 6.002,54.133 C6.06,53.671 6.121,53.226 6.183,52.793 C10.751,55.135 22.081,56 32,56 C41.92,56 53.249,55.135 57.816,52.792 C57.879,53.225 57.939,53.67 57.997,54.132 C57.834,55.465 49.958,58 32,58 L32,58 Z" id="Shape" fill="#000000"></path>
    </g>
</svg>