<?xml version="1.0" encoding="UTF-8" standalone="no"?>
<svg width="64px" height="64px" viewBox="0 0 64 64" version="1.1" xmlns="http://www.w3.org/2000/svg" xmlns:xlink="http://www.w3.org/1999/xlink">
    <!-- Generator: Sketch 3.7.2 (28276) - http://www.bohemiancoding.com/sketch -->
    <title>sec-key</title>
    <desc>Created with Sketch.</desc>
    <defs></defs>
    <g id="64px-Line" stroke="none" stroke-width="1" fill="none" fill-rule="evenodd">
        <g id="sec-key"></g>
        <path d="M4.077,57.383 C4.128,57.505 4.201,57.616 4.293,57.708 L4.293,57.708 C4.299,57.714 4.307,57.715 4.313,57.721 C4.401,57.805 4.503,57.875 4.617,57.923 C4.74,57.973 4.87,58 5,58 L13,58 C13.265,58 13.52,57.895 13.707,57.707 L15.414,56 L17,56 C17.552,56 18,55.552 18,55 L18,52 L21,52 C21.552,52 22,51.552 22,51 L22,48 L25,48 C25.552,48 26,47.552 26,47 L26,44 L33,44 C33.265,44 33.52,43.895 33.707,43.707 L39.616,37.798 C40.407,37.916 41.202,37.993 42,37.993 C46.097,37.993 50.194,36.433 53.313,33.314 C59.551,27.076 59.551,16.924 53.313,10.685 C47.075,4.448 36.925,4.447 30.686,10.685 C27.665,13.708 26,17.726 26,22 C26,23.371 26.189,24.71 26.522,26.004 L4.294,48.232 C4.106,48.42 4.001,48.674 4.001,48.939 L4.001,57 L4.001,57 C4,57.131 4.027,57.26 4.077,57.383 L4.077,57.383 Z M32.586,42 L25,42 C24.448,42 24,42.448 24,43 L24,46 L21,46 C20.448,46 20,46.448 20,47 L20,50 L17,50 C16.448,50 16,50.448 16,51 L16,54 L15,54 C14.735,54 14.48,54.105 14.293,54.293 L12.586,56 L7.41,56 L30.379,32.976 C30.484,33.087 30.577,33.206 30.686,33.315 C32.598,35.227 34.879,36.546 37.3,37.286 L32.586,42 L32.586,42 Z M32.101,12.1 C34.831,9.371 38.415,8.007 42.001,8.007 C45.585,8.007 49.171,9.372 51.9,12.1 C57.358,17.559 57.358,26.442 51.9,31.901 C46.441,37.359 37.56,37.359 32.101,31.901 C29.456,29.257 28,25.741 28,22.001 C28,18.26 29.457,14.744 32.101,12.1 L32.101,12.1 Z M27.215,28.139 C27.699,29.305 28.339,30.404 29.095,31.433 L6,54.582 L6,49.354 L27.215,28.139 L27.215,28.139 Z" id="Shape" fill="#000000"></path>
        <path d="M45,24 C47.757,24 50,21.757 50,19 C50,16.243 47.757,14 45,14 C42.243,14 40,16.243 40,19 C40,21.757 42.243,24 45,24 L45,24 Z M45,16 C46.654,16 48,17.346 48,19 C48,20.654 46.654,22 45,22 C43.346,22 42,20.654 42,19 C42,17.346 43.346,16 45,16 L45,16 Z" id="Shape" fill="#000000"></path>
    </g>
</svg>