<?xml version="1.0" encoding="UTF-8" standalone="no"?>
<svg width="64px" height="64px" viewBox="0 0 64 64" version="1.1" xmlns="http://www.w3.org/2000/svg" xmlns:xlink="http://www.w3.org/1999/xlink">
    <!-- Generator: Sketch 3.7.2 (28276) - http://www.bohemiancoding.com/sketch -->
    <title>sec-prison-door</title>
    <desc>Created with Sketch.</desc>
    <defs></defs>
    <g id="64px-Line" stroke="none" stroke-width="1" fill="none" fill-rule="evenodd">
        <g id="sec-prison-door"></g>
        <path d="M49,4 L17,4 C16.447,4 16,4.447 16,5 L16,12 L15,12 C14.447,12 14,12.447 14,13 L14,19 C14,19.553 14.447,20 15,20 L16,20 L16,44 L15,44 C14.447,44 14,44.447 14,45 L14,51 C14,51.553 14.447,52 15,52 L16,52 L16,59 C16,59.553 16.447,60 17,60 L49,60 C49.553,60 50,59.553 50,59 L50,5 C50,4.447 49.553,4 49,4 L49,4 Z M48,58 L18,58 L18,6 L48,6 L48,58 L48,58 Z" id="Shape" fill="#000000"></path>
        <path d="M25,28 L41,28 C41.553,28 42,27.553 42,27 L42,13 C42,12.447 41.553,12 41,12 L25,12 C24.447,12 24,12.447 24,13 L24,27 C24,27.553 24.447,28 25,28 L25,28 Z M32,26 L30,26 L30,14 L32,14 L32,26 L32,26 Z M34,14 L36,14 L36,26 L34,26 L34,14 L34,14 Z M40,26 L38,26 L38,14 L40,14 L40,26 L40,26 Z M26,14 L28,14 L28,26 L26,26 L26,14 L26,14 Z" id="Shape" fill="#000000"></path>
        <path d="M42,39 C42,39.553 42.447,40 43,40 C43.553,40 44,39.553 44,39 L44,33 C44,32.447 43.553,32 43,32 C42.447,32 42,32.447 42,33 L42,39 L42,39 Z" id="Shape" fill="#000000"></path>
    </g>
</svg>