<?xml version="1.0" encoding="UTF-8" standalone="no"?>
<svg width="64px" height="64px" viewBox="0 0 64 64" version="1.1" xmlns="http://www.w3.org/2000/svg" xmlns:xlink="http://www.w3.org/1999/xlink">
    <!-- Generator: Sketch 3.7.2 (28276) - http://www.bohemiancoding.com/sketch -->
    <title>sec-id-neck</title>
    <desc>Created with Sketch.</desc>
    <defs></defs>
    <g id="64px-Line" stroke="none" stroke-width="1" fill="none" fill-rule="evenodd">
        <g id="sec-id-neck"></g>
        <path d="M26,39 C26,36.243 23.757,34 21,34 C18.243,34 16,36.243 16,39 C16,41.757 18.243,44 21,44 C23.757,44 26,41.757 26,39 L26,39 Z M21,42 C19.346,42 18,40.654 18,39 C18,37.346 19.346,36 21,36 C22.654,36 24,37.346 24,39 C24,40.654 22.654,42 21,42 L21,42 Z" id="Shape" fill="#000000"></path>
        <path d="M13,54 C13.553,54 14,53.552 14,53 C14,49.14 17.141,46 21,46 C24.859,46 28,49.14 28,53 C28,53.552 28.447,54 29,54 C29.553,54 30,53.552 30,53 C30,48.038 25.963,44 21,44 C16.037,44 12,48.038 12,53 C12,53.552 12.447,54 13,54 L13,54 Z" id="Shape" fill="#000000"></path>
        <path d="M10,60 L52,60 C54.206,60 56,58.206 56,56 L56,28 C56,25.794 54.206,24 52,24 L41.367,24 L51.843,7.537 C52.14,7.071 52.002,6.453 51.536,6.156 C51.069,5.86 50.452,5.997 50.155,6.463 L36.451,28 L26.821,28 L31.905,20.011 L31.906,20.01 L39.843,7.538 C40.14,7.072 40.002,6.454 39.536,6.157 C39.069,5.861 38.452,5.998 38.155,6.464 L31.068,17.6 L23.836,6.457 C23.536,5.994 22.916,5.863 22.453,6.163 C21.989,6.464 21.857,7.083 22.158,7.546 L29.887,19.456 L26.996,24 L23.004,24 L11.843,6.463 C11.547,5.997 10.93,5.859 10.462,6.156 C9.996,6.452 9.858,7.071 10.155,7.537 L20.633,24 L10,24 C7.794,24 6,25.794 6,28 L6,56 C6,58.206 7.794,60 10,60 L10,60 Z M8,28 C8,26.897 8.897,26 10,26 L22.434,26 C22.442,26 22.45,26.003 22.458,26.003 C22.465,26.003 22.472,26 22.479,26 L25.724,26 L24.157,28.463 C23.961,28.771 23.949,29.161 24.124,29.482 C24.3,29.802 24.636,30.001 25.001,30.001 L37.001,30.001 C37.343,30.001 37.661,29.826 37.845,29.538 L40.096,26.001 L52,26.001 C53.103,26.001 54,26.898 54,28.001 L54,56.001 C54,57.104 53.103,58.001 52,58.001 L10,58.001 C8.897,58.001 8,57.104 8,56.001 L8,28 L8,28 Z" id="Shape" fill="#000000"></path>
        <path d="M35,38 L49,38 C49.553,38 50,37.552 50,37 C50,36.448 49.553,36 49,36 L35,36 C34.447,36 34,36.448 34,37 C34,37.552 34.447,38 35,38 L35,38 Z" id="Shape" fill="#000000"></path>
        <path d="M35,44 L49,44 C49.553,44 50,43.552 50,43 C50,42.448 49.553,42 49,42 L35,42 C34.447,42 34,42.448 34,43 C34,43.552 34.447,44 35,44 L35,44 Z" id="Shape" fill="#000000"></path>
        <path d="M35,50 L49,50 C49.553,50 50,49.552 50,49 C50,48.448 49.553,48 49,48 L35,48 C34.447,48 34,48.448 34,49 C34,49.552 34.447,50 35,50 L35,50 Z" id="Shape" fill="#000000"></path>
    </g>
</svg>