<?xml version="1.0" encoding="UTF-8" standalone="no"?>
<svg width="64px" height="64px" viewBox="0 0 64 64" version="1.1" xmlns="http://www.w3.org/2000/svg" xmlns:xlink="http://www.w3.org/1999/xlink">
    <!-- Generator: Sketch 3.7.2 (28276) - http://www.bohemiancoding.com/sketch -->
    <title>sec-watch-tower</title>
    <desc>Created with Sketch.</desc>
    <defs></defs>
    <g id="64px-Line" stroke="none" stroke-width="1" fill="none" fill-rule="evenodd">
        <g id="sec-watch-tower"></g>
        <path d="M45.515,8.143 L35.515,2.143 C35.199,1.954 34.802,1.954 34.486,2.143 L24.486,8.143 C24.185,8.323 24,8.648 24,9 L24,11 C24,11.553 24.447,12 25,12 L28,12 L28,18 L27,18 C26.447,18 26,18.447 26,19 L26,27 C26,27.553 26.447,28 27,28 L27.875,28 L24.006,60.883 C23.942,61.432 24.334,61.929 24.882,61.993 C24.922,61.998 24.961,62 25,62 C25.5,62 25.933,61.626 25.992,61.117 L26.639,55.617 L34.999,50.816 L43.359,55.617 L44.006,61.117 C44.066,61.626 44.498,62 44.998,62 C45.037,62 45.076,61.998 45.116,61.993 C45.664,61.929 46.056,61.431 45.992,60.883 L42.125,28 L43,28 C43.553,28 44,27.553 44,27 L44,19 C44,18.447 43.553,18 43,18 L42,18 L42,12 L45,12 C45.553,12 46,11.553 46,11 L46,9 C46,8.648 45.815,8.323 45.515,8.143 L45.515,8.143 Z M28,20 L42,20 L42,26 L28,26 L28,20 L28,20 Z M41.217,37.406 L37.556,35.85 L40.868,34.442 L41.217,37.406 L41.217,37.406 Z M41.486,39.693 L42.047,44.461 L35,48.509 L27.953,44.461 L28.514,39.693 L35,36.936 L41.486,39.693 L41.486,39.693 Z M28.783,37.406 L29.132,34.442 L32.444,35.85 L28.783,37.406 L28.783,37.406 Z M26.931,53.143 L27.698,46.622 L32.992,49.662 L26.931,53.143 L26.931,53.143 Z M37.008,49.662 L42.302,46.622 L43.069,53.143 L37.008,49.662 L37.008,49.662 Z M40.625,32.373 L35,34.764 L29.375,32.373 L29.89,28 L40.111,28 L40.625,32.373 L40.625,32.373 Z M40,18 L30,18 L30,12 L40,12 L40,18 L40,18 Z M44,10 L26,10 L26,9.566 L35,4.166 L44,9.566 L44,10 L44,10 Z" id="Shape" fill="#000000"></path>
    </g>
</svg>