<?xml version="1.0" encoding="UTF-8" standalone="no"?>
<svg width="64px" height="64px" viewBox="0 0 64 64" version="1.1" xmlns="http://www.w3.org/2000/svg" xmlns:xlink="http://www.w3.org/1999/xlink">
    <!-- Generator: Sketch 3.7.2 (28276) - http://www.bohemiancoding.com/sketch -->
    <title>sec-walkie-talkie</title>
    <desc>Created with Sketch.</desc>
    <defs></defs>
    <g id="64px-Line" stroke="none" stroke-width="1" fill="none" fill-rule="evenodd">
        <g id="sec-walkie-talkie"></g>
        <path d="M10,62 L30,62 C32.206,62 34,60.206 34,58 L34,20 C34,18.526 33.19,17.25 32,16.556 L32,6 C32,3.794 30.206,2 28,2 C25.794,2 24,3.794 24,6 L24,16 L18,16 L18,13 C18,12.447 17.552,12 17,12 L11,12 C10.448,12 10,12.447 10,13 L10,16 C7.794,16 6,17.794 6,20 L6,58 C6,60.206 7.794,62 10,62 L10,62 Z M26,6 C26,4.897 26.897,4 28,4 C29.103,4 30,4.897 30,6 L30,16 L26,16 L26,6 L26,6 Z M12,14 L16,14 L16,16 L12,16 L12,14 L12,14 Z M8,20 C8,18.897 8.897,18 10,18 L30,18 C31.103,18 32,18.897 32,20 L32,58 C32,59.103 31.103,60 30,60 L10,60 C8.897,60 8,59.103 8,58 L8,20 L8,20 Z" id="Shape" fill="#000000"></path>
        <path d="M11,36 L29,36 C29.552,36 30,35.553 30,35 L30,21 C30,20.447 29.552,20 29,20 L11,20 C10.448,20 10,20.447 10,21 L10,35 C10,35.553 10.448,36 11,36 L11,36 Z M12,22 L28,22 L28,34 L12,34 L12,22 L12,22 Z" id="Shape" fill="#000000"></path>
        <path d="M37.363,39.779 C37.558,39.974 37.814,40.072 38.07,40.072 C38.326,40.072 38.582,39.974 38.777,39.779 C40.855,37.701 42,34.938 42,32 C42,29.062 40.855,26.301 38.777,24.223 C38.386,23.832 37.754,23.832 37.363,24.223 C36.972,24.614 36.972,25.246 37.363,25.637 C39.063,27.337 40,29.597 40,32 C40,34.404 39.063,36.665 37.363,38.365 C36.973,38.756 36.973,39.389 37.363,39.779 L37.363,39.779 Z" id="Shape" fill="#000000"></path>
        <path d="M43.02,45.436 C43.215,45.631 43.471,45.729 43.727,45.729 C43.983,45.729 44.239,45.631 44.434,45.436 C48.023,41.846 50,37.075 50,32 C50,26.927 48.023,22.156 44.434,18.566 C44.043,18.175 43.411,18.175 43.02,18.566 C42.629,18.957 42.629,19.589 43.02,19.98 C46.232,23.192 48,27.46 48,32 C48,36.54 46.231,40.81 43.02,44.021 C42.629,44.412 42.629,45.045 43.02,45.436 L43.02,45.436 Z" id="Shape" fill="#000000"></path>
        <path d="M49.385,51.385 C49.641,51.385 49.897,51.287 50.092,51.092 C55.192,45.992 58,39.212 58,32 C58,24.79 55.191,18.01 50.092,12.908 C49.701,12.517 49.069,12.517 48.678,12.908 C48.287,13.299 48.287,13.931 48.678,14.322 C53.399,19.046 56,25.324 56,32 C56,38.678 53.399,44.956 48.678,49.678 C48.287,50.069 48.287,50.701 48.678,51.092 C48.873,51.287 49.129,51.385 49.385,51.385 L49.385,51.385 Z" id="Shape" fill="#000000"></path>
        <path d="M11,44 L29,44 C29.552,44 30,43.553 30,43 C30,42.447 29.552,42 29,42 L11,42 C10.448,42 10,42.447 10,43 C10,43.553 10.448,44 11,44 L11,44 Z" id="Shape" fill="#000000"></path>
        <path d="M11,48 L29,48 C29.552,48 30,47.553 30,47 C30,46.447 29.552,46 29,46 L11,46 C10.448,46 10,46.447 10,47 C10,47.553 10.448,48 11,48 L11,48 Z" id="Shape" fill="#000000"></path>
        <path d="M11,52 L29,52 C29.552,52 30,51.553 30,51 C30,50.447 29.552,50 29,50 L11,50 C10.448,50 10,50.447 10,51 C10,51.553 10.448,52 11,52 L11,52 Z" id="Shape" fill="#000000"></path>
        <path d="M11,56 L29,56 C29.552,56 30,55.553 30,55 C30,54.447 29.552,54 29,54 L11,54 C10.448,54 10,54.447 10,55 C10,55.553 10.448,56 11,56 L11,56 Z" id="Shape" fill="#000000"></path>
    </g>
</svg>