<?xml version="1.0" encoding="UTF-8" standalone="no"?>
<svg width="64px" height="64px" viewBox="0 0 64 64" version="1.1" xmlns="http://www.w3.org/2000/svg" xmlns:xlink="http://www.w3.org/1999/xlink">
    <!-- Generator: Sketch 3.7.2 (28276) - http://www.bohemiancoding.com/sketch -->
    <title>sec-safe</title>
    <desc>Created with Sketch.</desc>
    <defs></defs>
    <g id="64px-Line" stroke="none" stroke-width="1" fill="none" fill-rule="evenodd">
        <g id="sec-safe"></g>
        <path d="M8,58 L12,58 L12,59 C12,59.552 12.448,60 13,60 L17,60 C17.552,60 18,59.552 18,59 L18,58 L44,58 L44,59 C44,59.552 44.448,60 45,60 L49,60 C49.552,60 50,59.552 50,59 L50,58 L54,58 C56.206,58 58,56.206 58,54 L58,8 C58,5.794 56.206,4 54,4 L8,4 C5.794,4 4,5.794 4,8 L4,54 C4,56.206 5.794,58 8,58 L8,58 Z M6,8 C6,6.897 6.897,6 8,6 L54,6 C55.103,6 56,6.897 56,8 L56,54 C56,55.103 55.103,56 54,56 L49,56 L45,56 L17,56 L13,56 L8,56 C6.897,56 6,55.103 6,54 L6,8 L6,8 Z" id="Shape" fill="#000000"></path>
        <path d="M9,44 L10,44 L10,51 C10,51.552 10.448,52 11,52 L51,52 C51.552,52 52,51.552 52,51 L52,11 C52,10.448 51.552,10 51,10 L11,10 C10.448,10 10,10.448 10,11 L10,18 L9,18 C8.448,18 8,18.448 8,19 L8,23 C8,23.552 8.448,24 9,24 L10,24 L10,38 L9,38 C8.448,38 8,38.448 8,39 L8,43 C8,43.552 8.448,44 9,44 L9,44 Z M12,12 L50,12 L50,50 L12,50 L12,43 L12,39 L12,23 L12,19 L12,12 L12,12 Z" id="Shape" fill="#000000"></path>
        <path d="M20.293,41.707 C20.488,41.902 20.744,42 21,42 C21.256,42 21.512,41.902 21.707,41.707 L26.816,36.598 C27.985,37.474 29.43,38 31,38 C32.57,38 34.015,37.474 35.184,36.598 L40.293,41.707 C40.488,41.902 40.744,42 41,42 C41.256,42 41.512,41.902 41.707,41.707 C42.098,41.316 42.098,40.684 41.707,40.293 L36.598,35.184 C37.474,34.015 38,32.57 38,31 C38,29.43 37.474,27.985 36.598,26.816 L41.707,21.707 C42.098,21.316 42.098,20.684 41.707,20.293 C41.316,19.902 40.684,19.902 40.293,20.293 L35.184,25.402 C34.015,24.526 32.57,24 31,24 C29.43,24 27.985,24.526 26.816,25.402 L21.707,20.293 C21.316,19.902 20.684,19.902 20.293,20.293 C19.902,20.684 19.902,21.316 20.293,21.707 L25.402,26.816 C24.526,27.985 24,29.43 24,31 C24,32.57 24.526,34.015 25.402,35.184 L20.293,40.293 C19.902,40.684 19.902,41.316 20.293,41.707 L20.293,41.707 Z M34.531,27.464 C34.532,27.465 34.532,27.466 34.533,27.466 C34.534,27.466 34.535,27.467 34.535,27.468 C35.44,28.374 36,29.623 36,31 C36,33.757 33.757,36 31,36 C29.626,36 28.38,35.442 27.476,34.542 C27.473,34.539 27.472,34.535 27.469,34.532 C27.466,34.529 27.462,34.528 27.459,34.525 C26.558,33.62 26,32.374 26,31 C26,28.243 28.243,26 31,26 C32.377,26 33.626,26.56 34.531,27.464 L34.531,27.464 Z" id="Shape" fill="#000000"></path>
    </g>
</svg>