<?xml version="1.0" encoding="UTF-8" standalone="no"?>
<svg width="64px" height="64px" viewBox="0 0 64 64" version="1.1" xmlns="http://www.w3.org/2000/svg" xmlns:xlink="http://www.w3.org/1999/xlink">
    <!-- Generator: Sketch 3.7.2 (28276) - http://www.bohemiancoding.com/sketch -->
    <title>sec-cctv</title>
    <desc>Created with Sketch.</desc>
    <defs></defs>
    <g id="64px-Line" stroke="none" stroke-width="1" fill="none" fill-rule="evenodd">
        <g id="sec-cctv"></g>
        <path d="M59,36 L58,36 C55.794,36 54,37.794 54,40 L54,46 L45,46 C41.141,46 38,42.86 38,39 L38,33.637 C38.013,33.634 38.025,33.633 38.038,33.629 C41.114,32.772 43.188,29.929 43.153,26.808 L53.27,23.963 C53.791,23.817 54.101,23.282 53.969,22.757 L49.969,6.757 C49.904,6.496 49.736,6.272 49.503,6.136 C49.27,6.001 48.992,5.966 48.732,6.036 L4.732,18.216 C4.37,18.316 4.094,18.611 4.019,18.979 C3.944,19.347 4.081,19.726 4.373,19.96 L9.802,24.31 L12.066,32.516 C12.136,32.772 12.306,32.989 12.537,33.12 C12.688,33.206 12.859,33.25 13.03,33.25 C13.12,33.25 13.21,33.238 13.297,33.214 L18.957,31.645 L20.374,32.78 C20.554,32.924 20.774,33 20.999,33 C21.09,33 21.181,32.988 21.27,32.963 L30.153,30.465 C31.392,32.542 33.625,33.812 36,33.872 L36,39 C36,43.962 40.037,48 45,48 L54,48 L54,54 C54,56.206 55.794,58 58,58 L59,58 C59.553,58 60,57.552 60,57 L60,37 C60,36.448 59.553,36 59,36 L59,36 Z M13.729,31.019 L12.467,26.444 L17.034,30.103 L13.729,31.019 L13.729,31.019 Z M21.225,30.898 L7.152,19.622 L48.279,8.237 L51.795,22.3 L21.225,30.898 L21.225,30.898 Z M32.184,29.894 L41.119,27.381 C40.916,29.385 39.515,31.142 37.501,31.703 C35.496,32.264 33.397,31.491 32.184,29.894 L32.184,29.894 Z M58,56 C56.897,56 56,55.103 56,54 L56,40 C56,38.897 56.897,38 58,38 L58,56 L58,56 Z" id="Shape" fill="#000000"></path>
    </g>
</svg>