<?xml version="1.0" encoding="UTF-8" standalone="no"?>
<svg width="64px" height="64px" viewBox="0 0 64 64" version="1.1" xmlns="http://www.w3.org/2000/svg" xmlns:xlink="http://www.w3.org/1999/xlink">
    <!-- Generator: Sketch 3.7.2 (28276) - http://www.bohemiancoding.com/sketch -->
    <title>sec-id</title>
    <desc>Created with Sketch.</desc>
    <defs></defs>
    <g id="64px-Line" stroke="none" stroke-width="1" fill="none" fill-rule="evenodd">
        <g id="sec-id"></g>
        <path d="M26,31 C26,28.243 23.757,26 21,26 C18.243,26 16,28.243 16,31 C16,33.757 18.243,36 21,36 C23.757,36 26,33.757 26,31 L26,31 Z M21,34 C19.346,34 18,32.654 18,31 C18,29.346 19.346,28 21,28 C22.654,28 24,29.346 24,31 C24,32.654 22.654,34 21,34 L21,34 Z" id="Shape" fill="#000000"></path>
        <path d="M13,46 C13.553,46 14,45.552 14,45 C14,41.14 17.141,38 21,38 C24.859,38 28,41.14 28,45 C28,45.552 28.447,46 29,46 C29.553,46 30,45.552 30,45 C30,40.038 25.963,36 21,36 C16.037,36 12,40.038 12,45 C12,45.552 12.447,46 13,46 L13,46 Z" id="Shape" fill="#000000"></path>
        <path d="M8,56 L56,56 C58.206,56 60,54.206 60,52 L60,20 C60,17.794 58.206,16 56,16 L36,16 L36,9 C36,8.448 35.553,8 35,8 L29,8 C28.447,8 28,8.448 28,9 L28,16 L8,16 C5.794,16 4,17.794 4,20 L4,52 C4,54.206 5.794,56 8,56 L8,56 Z M30,10 L34,10 L34,20 L30,20 L30,10 L30,10 Z M6,20 C6,18.897 6.897,18 8,18 L28,18 L28,20 L27,20 C26.447,20 26,20.448 26,21 C26,21.552 26.447,22 27,22 L29,22 L35,22 L37,22 C37.553,22 38,21.552 38,21 C38,20.448 37.553,20 37,20 L36,20 L36,18 L56,18 C57.103,18 58,18.897 58,20 L58,52 C58,53.103 57.103,54 56,54 L8,54 C6.897,54 6,53.103 6,52 L6,20 L6,20 Z" id="Shape" fill="#000000"></path>
        <path d="M37,32 L51,32 C51.553,32 52,31.552 52,31 C52,30.448 51.553,30 51,30 L37,30 C36.447,30 36,30.448 36,31 C36,31.552 36.447,32 37,32 L37,32 Z" id="Shape" fill="#000000"></path>
        <path d="M37,38 L51,38 C51.553,38 52,37.552 52,37 C52,36.448 51.553,36 51,36 L37,36 C36.447,36 36,36.448 36,37 C36,37.552 36.447,38 37,38 L37,38 Z" id="Shape" fill="#000000"></path>
        <path d="M37,44 L51,44 C51.553,44 52,43.552 52,43 C52,42.448 51.553,42 51,42 L37,42 C36.447,42 36,42.448 36,43 C36,43.552 36.447,44 37,44 L37,44 Z" id="Shape" fill="#000000"></path>
    </g>
</svg>