<?xml version="1.0" encoding="UTF-8" standalone="no"?>
<svg width="64px" height="64px" viewBox="0 0 64 64" version="1.1" xmlns="http://www.w3.org/2000/svg" xmlns:xlink="http://www.w3.org/1999/xlink">
    <!-- Generator: Sketch 3.7.2 (28276) - http://www.bohemiancoding.com/sketch -->
    <title>sec-siren</title>
    <desc>Created with Sketch.</desc>
    <defs></defs>
    <g id="64px-Line" stroke="none" stroke-width="1" fill="none" fill-rule="evenodd">
        <g id="sec-siren"></g>
        <path d="M50,59 L50,56 C50,53.794 48.206,52 46,52 L46,29 C46,20.729 39.271,14 31,14 C22.729,14 16,20.729 16,29 L16,52 C13.794,52 12,53.794 12,56 L12,59 C12,59.552 12.448,60 13,60 L49,60 C49.552,60 50,59.552 50,59 L50,59 Z M18,29 C18,21.832 23.832,16 31,16 C38.168,16 44,21.832 44,29 L44,52 L18,52 L18,29 L18,29 Z M48,58 L14,58 L14,56 C14,54.897 14.897,54 16,54 L46,54 C47.103,54 48,54.897 48,56 L48,58 L48,58 Z" id="Shape" fill="#000000"></path>
        <path d="M31,18 C24.935,18 20,22.935 20,29 C20,29.552 20.448,30 21,30 C21.552,30 22,29.552 22,29 C22,24.038 26.038,20 31,20 C31.552,20 32,19.552 32,19 C32,18.448 31.552,18 31,18 L31,18 Z" id="Shape" fill="#000000"></path>
        <path d="M32,11 L32,5 C32,4.448 31.552,4 31,4 C30.448,4 30,4.448 30,5 L30,11 C30,11.552 30.448,12 31,12 C31.552,12 32,11.552 32,11 L32,11 Z" id="Shape" fill="#000000"></path>
        <path d="M48,29 C48,29.552 48.448,30 49,30 L55,30 C55.552,30 56,29.552 56,29 C56,28.448 55.552,28 55,28 L49,28 C48.448,28 48,28.448 48,29 L48,29 Z" id="Shape" fill="#000000"></path>
        <path d="M7,30 L13,30 C13.552,30 14,29.552 14,29 C14,28.448 13.552,28 13,28 L7,28 C6.448,28 6,28.448 6,29 C6,29.552 6.448,30 7,30 L7,30 Z" id="Shape" fill="#000000"></path>
        <path d="M55,44 C55.552,44 56,43.552 56,43 C56,42.448 55.552,42 55,42 L49,42 C48.448,42 48,42.448 48,43 C48,43.552 48.448,44 49,44 L55,44 L55,44 Z" id="Shape" fill="#000000"></path>
        <path d="M7,44 L13,44 C13.552,44 14,43.552 14,43 C14,42.448 13.552,42 13,42 L7,42 C6.448,42 6,42.448 6,43 C6,43.552 6.448,44 7,44 L7,44 Z" id="Shape" fill="#000000"></path>
        <path d="M44.435,16.979 L48.678,12.737 C49.069,12.347 49.069,11.714 48.678,11.323 C48.287,10.932 47.655,10.932 47.264,11.323 L43.021,15.565 C42.63,15.955 42.63,16.588 43.021,16.979 C43.216,17.174 43.472,17.272 43.728,17.272 C43.984,17.272 44.239,17.174 44.435,16.979 L44.435,16.979 Z" id="Shape" fill="#000000"></path>
        <path d="M18.272,17.271 C18.528,17.271 18.784,17.173 18.979,16.978 C19.37,16.587 19.37,15.954 18.979,15.564 L14.736,11.322 C14.345,10.931 13.713,10.931 13.322,11.322 C12.931,11.713 12.931,12.346 13.322,12.736 L17.565,16.978 C17.761,17.174 18.017,17.271 18.272,17.271 L18.272,17.271 Z" id="Shape" fill="#000000"></path>
    </g>
</svg>