<?xml version="1.0" encoding="UTF-8" standalone="no"?>
<svg width="64px" height="64px" viewBox="0 0 64 64" version="1.1" xmlns="http://www.w3.org/2000/svg" xmlns:xlink="http://www.w3.org/1999/xlink">
    <!-- Generator: Sketch 3.7.2 (28276) - http://www.bohemiancoding.com/sketch -->
    <title>sec-court</title>
    <desc>Created with Sketch.</desc>
    <defs></defs>
    <g id="64px-Line" stroke="none" stroke-width="1" fill="none" fill-rule="evenodd">
        <g id="sec-court"></g>
        <path d="M59,54 L58,54 L58,51 C58,50.447 57.552,50 57,50 L54,50 L54,47 C54,46.447 53.552,46 53,46 L52,46 L52,26 L53,26 C53.552,26 54,25.553 54,25 L54,22 L57,22 C57.552,22 58,21.553 58,21 L58,17 C58,16.98 57.99,16.964 57.989,16.945 C57.984,16.86 57.965,16.779 57.939,16.699 C57.927,16.661 57.921,16.622 57.905,16.586 C57.862,16.491 57.802,16.406 57.731,16.328 C57.72,16.316 57.714,16.301 57.703,16.289 C57.622,16.209 57.527,16.141 57.419,16.091 L31.419,4.091 C31.153,3.968 30.847,3.968 30.581,4.091 L4.581,16.091 C4.473,16.141 4.378,16.209 4.297,16.289 C4.286,16.3 4.28,16.316 4.269,16.328 C4.198,16.406 4.139,16.491 4.095,16.586 C4.079,16.622 4.073,16.661 4.061,16.699 C4.035,16.779 4.016,16.859 4.011,16.945 C4.01,16.964 4,16.98 4,17 L4,21 C4,21.553 4.448,22 5,22 L8,22 L8,25 C8,25.553 8.448,26 9,26 L10,26 L10,46 L9,46 C8.448,46 8,46.447 8,47 L8,50 L5,50 C4.448,50 4,50.447 4,51 L4,54 L3,54 C2.448,54 2,54.447 2,55 L2,59 C2,59.553 2.448,60 3,60 L59,60 C59.552,60 60,59.553 60,59 L60,55 C60,54.447 59.552,54 59,54 L59,54 Z M42,50 L42,47 C42,46.447 41.552,46 41,46 L40,46 L40,26 L41,26 C41.552,26 42,25.553 42,25 L42,22 L44,22 L44,25 C44,25.553 44.448,26 45,26 L46,26 L46,46 L45,46 C44.448,46 44,46.447 44,47 L44,50 L42,50 L42,50 Z M30,50 L30,47 C30,46.447 29.552,46 29,46 L28,46 L28,26 L29,26 C29.552,26 30,25.553 30,25 L30,22 L32,22 L32,25 C32,25.553 32.448,26 33,26 L34,26 L34,46 L33,46 C32.448,46 32,46.447 32,47 L32,50 L30,50 L30,50 Z M18,50 L18,47 C18,46.447 17.552,46 17,46 L16,46 L16,26 L17,26 C17.552,26 18,25.553 18,25 L18,22 L20,22 L20,25 C20,25.553 20.448,26 21,26 L22,26 L22,46 L21,46 C20.448,46 20,46.447 20,47 L20,50 L18,50 L18,50 Z M26,46 L24,46 L24,26 L26,26 L26,46 L26,46 Z M27,24 L23,24 L22,24 L22,22 L28,22 L28,24 L27,24 L27,24 Z M22,48 L23,48 L27,48 L28,48 L28,50 L22,50 L22,48 L22,48 Z M38,46 L36,46 L36,26 L38,26 L38,46 L38,46 Z M39,24 L35,24 L34,24 L34,22 L40,22 L40,24 L39,24 L39,24 Z M34,48 L35,48 L39,48 L40,48 L40,50 L34,50 L34,48 L34,48 Z M46,48 L47,48 L51,48 L52,48 L52,50 L46,50 L46,48 L46,48 Z M50,46 L48,46 L48,26 L50,26 L50,46 L50,46 Z M52,24 L51,24 L47,24 L46,24 L46,22 L52,22 L52,24 L52,24 Z M31,6.102 L52.447,16 L9.552,16 L31,6.102 L31,6.102 Z M6,18 L56,18 L56,20 L53,20 L45,20 L41,20 L33,20 L29,20 L21,20 L17,20 L9,20 L6,20 L6,18 L6,18 Z M16,22 L16,24 L15,24 L11,24 L10,24 L10,22 L16,22 L16,22 Z M12,26 L14,26 L14,46 L12,46 L12,26 L12,26 Z M10,48 L11,48 L15,48 L16,48 L16,50 L10,50 L10,48 L10,48 Z M6,52 L9,52 L17,52 L21,52 L29,52 L33,52 L41,52 L45,52 L53,52 L56,52 L56,54 L6,54 L6,52 L6,52 Z M58,58 L4,58 L4,56 L5,56 L57,56 L58,56 L58,58 L58,58 Z" id="Shape" fill="#000000"></path>
    </g>
</svg>