<?xml version="1.0" encoding="UTF-8" standalone="no"?>
<svg width="64px" height="64px" viewBox="0 0 64 64" version="1.1" xmlns="http://www.w3.org/2000/svg" xmlns:xlink="http://www.w3.org/1999/xlink">
    <!-- Generator: Sketch 3.7.2 (28276) - http://www.bohemiancoding.com/sketch -->
    <title>sec-police-helmet</title>
    <desc>Created with Sketch.</desc>
    <defs></defs>
    <g id="64px-Line" stroke="none" stroke-width="1" fill="none" fill-rule="evenodd">
        <g id="sec-police-helmet"></g>
        <path d="M57,46 C53.657,46 53.122,41.605 52.524,34.435 C51.737,24.989 50.7,12.588 38.668,9.01 C38.186,6.105 35.055,4 31,4 C26.944,4 23.813,6.105 23.332,9.009 C11.3,12.587 10.263,24.988 9.476,34.435 C8.878,41.605 8.343,46 5,46 C4.447,46 4,46.447 4,47 L4,48 C4,49.299 5.012,50 5.963,50 C8.745,50 14.228,52.78 19.065,55.233 C24.108,57.791 28.464,60 31,60 C33.537,60 37.893,57.791 42.937,55.233 C47.774,52.78 53.256,50 56.038,50 C56.989,50 58.001,49.299 58.001,48 L58.001,47 C58,46.447 57.553,46 57,46 L57,46 Z M31,6 C33.51,6 35.589,7.015 36.387,8.469 C34.765,8.169 32.982,8 31,8 C29.018,8 27.235,8.169 25.613,8.469 C26.41,7.015 28.49,6 31,6 L31,6 Z M31,10 C48.482,10 49.618,23.641 50.531,34.601 C50.831,38.202 51.116,41.548 51.993,44 L10.006,44 C10.883,41.548 11.168,38.202 11.468,34.601 C12.382,23.641 13.518,10 31,10 L31,10 Z M55.995,48 C52.73,48.024 47.292,50.782 42.032,53.449 C37.62,55.687 33.059,58 31,58 C28.941,58 24.38,55.687 19.969,53.45 C14.717,50.786 9.287,48.032 6,47.988 L6,47.92 C7.315,47.698 8.277,47.015 9.001,46 L52.998,46 C53.722,47.014 54.681,47.696 55.994,47.919 L55.994,48 L55.995,48 Z" id="Shape" fill="#000000"></path>
        <path d="M31,34 C34.309,34 37,31.309 37,28 C37,24.691 34.309,22 31,22 C27.691,22 25,24.691 25,28 C25,31.309 27.691,34 31,34 L31,34 Z M31,24 C33.206,24 35,25.794 35,28 C35,30.206 33.206,32 31,32 C28.794,32 27,30.206 27,28 C27,25.794 28.794,24 31,24 L31,24 Z" id="Shape" fill="#000000"></path>
        <path d="M17.936,28.998 C17.963,29 20.734,29.224 21.771,30.932 C23.022,32.99 22.073,35.624 22.065,35.648 C21.935,35.993 22.005,36.38 22.247,36.658 C22.49,36.936 22.865,37.06 23.224,36.975 C23.934,36.813 26.081,36.565 27.475,37.35 C28.847,38.122 29.794,40.454 30.043,41.286 C30.169,41.71 30.559,42 31.001,42 L31.002,42 C31.444,42 31.834,41.709 31.96,41.285 C32.206,40.454 33.147,38.128 34.527,37.35 C36.194,36.411 38.755,36.969 38.778,36.975 C39.138,37.06 39.512,36.936 39.755,36.658 C39.996,36.381 40.067,35.993 39.937,35.648 C39.927,35.623 38.968,33.01 40.231,30.932 C41.276,29.212 44.041,29 44.066,28.998 C44.592,28.964 45.002,28.527 45.002,28 C45.002,27.473 44.593,27.036 44.066,27.002 C44.039,27 41.268,26.776 40.231,25.068 C38.98,23.01 39.929,20.376 39.937,20.352 C40.067,20.007 39.997,19.62 39.755,19.342 C39.513,19.065 39.139,18.939 38.778,19.025 C38.069,19.186 35.92,19.435 34.527,18.65 C33.155,17.878 32.208,15.546 31.959,14.714 C31.833,14.29 31.443,14 31.001,14 L31,14 C30.558,14 30.168,14.291 30.042,14.715 C29.796,15.546 28.855,17.872 27.475,18.65 C25.809,19.588 23.247,19.031 23.224,19.025 C22.866,18.939 22.49,19.064 22.247,19.342 C22.006,19.619 21.935,20.007 22.065,20.352 C22.075,20.377 23.034,22.99 21.771,25.068 C20.731,26.779 17.988,26.998 17.934,27.002 C17.408,27.037 17,27.474 17,28 C17,28.527 17.409,28.964 17.936,28.998 L17.936,28.998 Z M23.479,26.107 C24.53,24.378 24.509,22.465 24.31,21.173 C25.481,21.239 27.108,21.152 28.456,20.392 C29.593,19.751 30.43,18.605 31,17.556 C31.57,18.605 32.407,19.751 33.544,20.392 C34.893,21.151 36.521,21.238 37.69,21.173 C37.491,22.465 37.47,24.377 38.521,26.107 C39.043,26.967 39.792,27.573 40.566,28 C39.792,28.427 39.044,29.032 38.521,29.893 C37.47,31.622 37.491,33.535 37.69,34.827 C36.523,34.766 34.892,34.849 33.544,35.608 C32.407,36.249 31.57,37.395 31,38.444 C30.43,37.395 29.593,36.249 28.456,35.608 C27.335,34.977 26.02,34.809 24.937,34.809 C24.717,34.809 24.507,34.816 24.31,34.827 C24.509,33.535 24.53,31.623 23.479,29.893 C22.957,29.033 22.208,28.427 21.434,28 C22.209,27.573 22.957,26.968 23.479,26.107 L23.479,26.107 Z" id="Shape" fill="#000000"></path>
    </g>
</svg>