<?xml version="1.0" encoding="UTF-8" standalone="no"?>
<svg width="64px" height="64px" viewBox="0 0 64 64" version="1.1" xmlns="http://www.w3.org/2000/svg" xmlns:xlink="http://www.w3.org/1999/xlink">
    <!-- Generator: Sketch 3.7.2 (28276) - http://www.bohemiancoding.com/sketch -->
    <title>sec-barbed-wire</title>
    <desc>Created with Sketch.</desc>
    <defs></defs>
    <g id="64px-Line" stroke="none" stroke-width="1" fill="none" fill-rule="evenodd">
        <g id="sec-barbed-wire"></g>
        <path d="M59,56 L32,56 C21.552,56 12.789,48.677 10.556,38.896 L12.553,39.894 C12.697,39.965 12.849,39.999 12.999,39.999 C13.366,39.999 13.719,39.797 13.895,39.446 C14.142,38.952 13.942,38.351 13.448,38.104 L10.141,36.45 C10.111,36.185 10.089,35.918 10.069,35.65 L10.553,35.892 C10.697,35.963 10.849,35.997 10.999,35.997 C11.366,35.997 11.719,35.795 11.895,35.444 C12.142,34.95 11.942,34.349 11.448,34.102 L10.016,33.386 C10.033,32.766 10.073,32.151 10.141,31.544 L13.448,29.89 C13.942,29.643 14.142,29.042 13.895,28.548 C13.648,28.054 13.047,27.856 12.553,28.101 L10.556,29.099 C12.429,20.894 18.899,14.424 27.104,12.551 L26.106,14.548 C25.859,15.042 26.059,15.643 26.553,15.89 C26.697,15.961 26.849,15.995 26.999,15.995 C27.366,15.995 27.719,15.793 27.895,15.442 L29.549,12.135 C29.814,12.105 30.081,12.083 30.349,12.063 L30.107,12.547 C29.86,13.041 30.06,13.642 30.554,13.889 C30.698,13.96 30.85,13.994 31,13.994 C31.367,13.994 31.72,13.792 31.896,13.441 L32.612,12.009 C33.232,12.026 33.847,12.066 34.454,12.134 L36.108,15.441 C36.284,15.792 36.636,15.994 37.004,15.994 C37.154,15.994 37.307,15.96 37.45,15.889 C37.944,15.642 38.144,15.041 37.897,14.547 L36.899,12.55 C45.104,14.423 51.574,20.893 53.447,29.098 L51.45,28.1 C50.955,27.855 50.356,28.053 50.108,28.547 C49.861,29.041 50.061,29.642 50.555,29.889 L53.862,31.543 C53.892,31.808 53.914,32.075 53.934,32.343 L53.45,32.101 C52.957,31.855 52.356,32.054 52.108,32.548 C51.861,33.042 52.061,33.643 52.555,33.89 L53.983,34.604 C53.966,35.223 53.927,35.839 53.859,36.449 L50.555,38.101 C50.061,38.348 49.861,38.949 50.108,39.443 C50.356,39.937 50.955,40.135 51.45,39.89 L53.443,38.894 C52.214,44.281 48.993,49.071 44.304,52.239 C43.846,52.549 43.726,53.171 44.034,53.628 C44.344,54.085 44.964,54.205 45.423,53.898 C50.807,50.261 54.428,44.666 55.595,38.411 L58.556,39.891 C58.7,39.962 58.852,39.996 59.002,39.996 C59.369,39.996 59.722,39.794 59.898,39.443 C60.145,38.949 59.945,38.348 59.451,38.101 L55.881,36.316 C55.904,36.073 55.933,35.831 55.949,35.586 L56.557,35.89 C56.701,35.961 56.853,35.995 57.003,35.995 C57.37,35.995 57.723,35.793 57.899,35.442 C58.146,34.948 57.946,34.347 57.452,34.1 L55.989,33.368 C55.974,32.797 55.944,32.23 55.89,31.67 L59.452,29.889 C59.946,29.642 60.146,29.041 59.899,28.547 C59.651,28.053 59.051,27.855 58.557,28.1 L55.591,29.583 C53.78,19.881 46.117,12.219 36.416,10.408 L37.899,7.442 C38.146,6.948 37.946,6.347 37.452,6.1 C36.958,5.854 36.358,6.053 36.11,6.547 L34.329,10.109 C34.085,10.086 33.839,10.069 33.593,10.053 L33.899,9.442 C34.146,8.948 33.946,8.347 33.452,8.1 C32.958,7.854 32.357,8.053 32.11,8.547 L31.378,10.01 C30.807,10.025 30.24,10.055 29.68,10.109 L27.899,6.547 C27.651,6.053 27.051,5.854 26.557,6.1 C26.063,6.347 25.863,6.948 26.11,7.442 L27.593,10.408 C17.891,12.219 10.229,19.882 8.418,29.583 L5.452,28.1 C4.958,27.855 4.357,28.053 4.11,28.547 C3.863,29.041 4.063,29.642 4.557,29.889 L8.119,31.67 C8.096,31.914 8.079,32.16 8.063,32.406 L7.452,32.1 C6.958,31.854 6.357,32.053 6.11,32.547 C5.863,33.041 6.063,33.642 6.557,33.889 L8.02,34.621 C8.035,35.192 8.065,35.759 8.119,36.319 L4.557,38.1 C4.063,38.347 3.863,38.948 4.11,39.442 C4.357,39.936 4.958,40.134 5.452,39.889 L8.418,38.406 C10.491,49.544 20.274,58 32,58 L59,58 C59.553,58 60,57.553 60,57 C60,56.447 59.553,56 59,56 L59,56 Z" id="Shape" fill="#000000"></path>
        <path d="M19,56 L5,56 C4.447,56 4,56.447 4,57 C4,57.553 4.447,58 5,58 L19,58 C19.553,58 20,57.553 20,57 C20,56.447 19.553,56 19,56 L19,56 Z" id="Shape" fill="#000000"></path>
    </g>
</svg>