<?xml version="1.0" encoding="UTF-8" standalone="no"?>
<svg width="64px" height="64px" viewBox="0 0 64 64" version="1.1" xmlns="http://www.w3.org/2000/svg" xmlns:xlink="http://www.w3.org/1999/xlink">
    <!-- Generator: Sketch 3.7.2 (28276) - http://www.bohemiancoding.com/sketch -->
    <title>sec-combination-lock</title>
    <desc>Created with Sketch.</desc>
    <defs></defs>
    <g id="64px-Line" stroke="none" stroke-width="1" fill="none" fill-rule="evenodd">
        <g id="sec-combination-lock"></g>
        <path d="M14,58 L48,58 C50.206,58 52,56.206 52,54 L52,23 C52,22.448 51.552,22 51,22 L46,22 L46,17 C46,8.729 39.271,2 31,2 C22.729,2 16,8.729 16,17 L16,22 L11,22 C10.448,22 10,22.448 10,23 L10,54 C10,56.206 11.794,58 14,58 L14,58 Z M18,17 C18,9.832 23.832,4 31,4 C38.168,4 44,9.832 44,17 L44,22 L18,22 L18,17 L18,17 Z M12,24 L50,24 L50,54 C50,55.103 49.103,56 48,56 L14,56 C12.897,56 12,55.103 12,54 L12,24 L12,24 Z" id="Shape" fill="#000000"></path>
        <path d="M25,42 L24,42 L24,35 C24,34.596 23.756,34.231 23.383,34.076 C23.008,33.92 22.579,34.006 22.293,34.293 L20.293,36.293 C19.902,36.684 19.902,37.316 20.293,37.707 C20.684,38.098 21.316,38.098 21.707,37.707 L22,37.414 L22,42 L21,42 C20.448,42 20,42.448 20,43 C20,43.552 20.448,44 21,44 L25,44 C25.552,44 26,43.552 26,43 C26,42.448 25.552,42 25,42 L25,42 Z" id="Shape" fill="#000000"></path>
        <path d="M31,40 C32.654,40 34,38.654 34,37 C34,35.346 32.654,34 31,34 L29,34 C28.448,34 28,34.448 28,35 C28,35.552 28.448,36 29,36 L31,36 C31.551,36 32,36.449 32,37 C32,37.551 31.551,38 31,38 C29.346,38 28,39.346 28,41 L28,43 C28,43.552 28.448,44 29,44 L33,44 C33.552,44 34,43.552 34,43 C34,42.448 33.552,42 33,42 L30,42 L30,41 C30,40.449 30.449,40 31,40 L31,40 Z" id="Shape" fill="#000000"></path>
        <path d="M39,34 L37,34 C36.448,34 36,34.448 36,35 C36,35.552 36.448,36 37,36 L39,36 C39.551,36 40,36.449 40,37 C40,37.551 39.551,38 39,38 L37,38 C36.448,38 36,38.448 36,39 C36,39.552 36.448,40 37,40 L39,40 C39.551,40 40,40.449 40,41 C40,41.551 39.551,42 39,42 L37,42 C36.448,42 36,42.448 36,43 C36,43.552 36.448,44 37,44 L39,44 C40.654,44 42,42.654 42,41 C42,40.229 41.699,39.532 41.22,39 C41.7,38.468 42,37.771 42,37 C42,35.346 40.654,34 39,34 L39,34 Z" id="Shape" fill="#000000"></path>
        <path d="M17,48 L45,48 C45.552,48 46,47.552 46,47 L46,31 C46,30.448 45.552,30 45,30 L17,30 C16.448,30 16,30.448 16,31 L16,47 C16,47.552 16.448,48 17,48 L17,48 Z M18,32 L44,32 L44,46 L18,46 L18,32 L18,32 Z" id="Shape" fill="#000000"></path>
    </g>
</svg>