<?xml version="1.0" encoding="UTF-8" standalone="no"?>
<svg width="64px" height="64px" viewBox="0 0 64 64" version="1.1" xmlns="http://www.w3.org/2000/svg" xmlns:xlink="http://www.w3.org/1999/xlink">
    <!-- Generator: Sketch 3.7.2 (28276) - http://www.bohemiancoding.com/sketch -->
    <title>sec-walkie-talkies</title>
    <desc>Created with Sketch.</desc>
    <defs></defs>
    <g id="64px-Line" stroke="none" stroke-width="1" fill="none" fill-rule="evenodd">
        <g id="sec-walkie-talkies"></g>
        <path d="M12,62 L32,62 C34.206,62 36,60.206 36,58 L36,20 C36,18.526 35.19,17.25 34,16.556 L34,6 C34,3.794 32.206,2 30,2 C27.794,2 26,3.794 26,6 L26,16 L20,16 L20,13 C20,12.447 19.552,12 19,12 L13,12 C12.448,12 12,12.447 12,13 L12,16 C9.794,16 8,17.794 8,20 L8,58 C8,60.206 9.794,62 12,62 L12,62 Z M28,6 C28,4.897 28.897,4 30,4 C31.103,4 32,4.897 32,6 L32,16 L28,16 L28,6 L28,6 Z M14,14 L18,14 L18,16 L14,16 L14,14 L14,14 Z M10,20 C10,18.897 10.897,18 12,18 L32,18 C33.103,18 34,18.897 34,20 L34,58 C34,59.103 33.103,60 32,60 L12,60 C10.897,60 10,59.103 10,58 L10,20 L10,20 Z" id="Shape" fill="#000000"></path>
        <path d="M13,36 L31,36 C31.552,36 32,35.553 32,35 L32,21 C32,20.447 31.552,20 31,20 L13,20 C12.448,20 12,20.447 12,21 L12,35 C12,35.553 12.448,36 13,36 L13,36 Z M14,22 L30,22 L30,34 L14,34 L14,22 L14,22 Z" id="Shape" fill="#000000"></path>
        <path d="M13,44 L31,44 C31.552,44 32,43.553 32,43 C32,42.447 31.552,42 31,42 L13,42 C12.448,42 12,42.447 12,43 C12,43.553 12.448,44 13,44 L13,44 Z" id="Shape" fill="#000000"></path>
        <path d="M13,48 L31,48 C31.552,48 32,47.553 32,47 C32,46.447 31.552,46 31,46 L13,46 C12.448,46 12,46.447 12,47 C12,47.553 12.448,48 13,48 L13,48 Z" id="Shape" fill="#000000"></path>
        <path d="M13,52 L31,52 C31.552,52 32,51.553 32,51 C32,50.447 31.552,50 31,50 L13,50 C12.448,50 12,50.447 12,51 C12,51.553 12.448,52 13,52 L13,52 Z" id="Shape" fill="#000000"></path>
        <path d="M13,56 L31,56 C31.552,56 32,55.553 32,55 C32,54.447 31.552,54 31,54 L13,54 C12.448,54 12,54.447 12,55 C12,55.553 12.448,56 13,56 L13,56 Z" id="Shape" fill="#000000"></path>
        <path d="M39,34 C38.448,34 38,34.447 38,35 C38,35.553 38.448,36 39,36 L51,36 C51.552,36 52,35.553 52,35 L52,25 C52,24.447 51.552,24 51,24 L39,24 C38.448,24 38,24.447 38,25 C38,25.553 38.448,26 39,26 L50,26 L50,34 L39,34 L39,34 Z" id="Shape" fill="#000000"></path>
        <path d="M54,11 C54,9.346 52.654,8 51,8 C49.346,8 48,9.346 48,11 L48,20 L44,20 L44,17 C44,16.447 43.552,16 43,16 L38,16 C37.448,16 37,16.447 37,17 C37,17.553 37.448,18 38,18 L42,18 L42,20 L39,20 C38.448,20 38,20.447 38,21 C38,21.553 38.448,22 39,22 L52,22 C53.103,22 54,22.897 54,24 L54,54 C54,55.103 53.103,56 52,56 L39,56 C38.448,56 38,56.447 38,57 C38,57.553 38.448,58 39,58 L52,58 C54.206,58 56,56.206 56,54 L56,24 C56,22.526 55.19,21.25 54,20.556 L54,11 L54,11 Z M50,20 L50,11 C50,10.448 50.449,10 51,10 C51.551,10 52,10.448 52,11 L52,20 L50,20 L50,20 Z" id="Shape" fill="#000000"></path>
        <path d="M39,42 L51,42 C51.552,42 52,41.553 52,41 C52,40.447 51.552,40 51,40 L39,40 C38.448,40 38,40.447 38,41 C38,41.553 38.448,42 39,42 L39,42 Z" id="Shape" fill="#000000"></path>
        <path d="M39,46 L51,46 C51.552,46 52,45.553 52,45 C52,44.447 51.552,44 51,44 L39,44 C38.448,44 38,44.447 38,45 C38,45.553 38.448,46 39,46 L39,46 Z" id="Shape" fill="#000000"></path>
        <path d="M39,50 L51,50 C51.552,50 52,49.553 52,49 C52,48.447 51.552,48 51,48 L39,48 C38.448,48 38,48.447 38,49 C38,49.553 38.448,50 39,50 L39,50 Z" id="Shape" fill="#000000"></path>
        <path d="M39,54 L51,54 C51.552,54 52,53.553 52,53 C52,52.447 51.552,52 51,52 L39,52 C38.448,52 38,52.447 38,53 C38,53.553 38.448,54 39,54 L39,54 Z" id="Shape" fill="#000000"></path>
    </g>
</svg>