<?xml version="1.0" encoding="UTF-8" standalone="no"?>
<svg width="64px" height="64px" viewBox="0 0 64 64" version="1.1" xmlns="http://www.w3.org/2000/svg" xmlns:xlink="http://www.w3.org/1999/xlink">
    <!-- Generator: Sketch 3.7.2 (28276) - http://www.bohemiancoding.com/sketch -->
    <title>sec-padlock-closed-2</title>
    <desc>Created with Sketch.</desc>
    <defs></defs>
    <g id="64px-Line" stroke="none" stroke-width="1" fill="none" fill-rule="evenodd">
        <g id="sec-padlock-closed-2"></g>
        <path d="M14,58 L48,58 C50.206,58 52,56.206 52,54 L52,23 C52,22.448 51.553,22 51,22 L46,22 L46,17 C46,8.729 39.271,2 31,2 C22.729,2 16,8.729 16,17 L16,22 L11,22 C10.447,22 10,22.448 10,23 L10,54 C10,56.206 11.794,58 14,58 L14,58 Z M18,17 C18,9.832 23.832,4 31,4 C38.168,4 44,9.832 44,17 L44,22 L18,22 L18,17 L18,17 Z M12,24 L50,24 L50,54 C50,55.103 49.103,56 48,56 L14,56 C12.897,56 12,55.103 12,54 L12,24 L12,24 Z" id="Shape" fill="#000000"></path>
        <path d="M30,39.816 L30,47 C30,47.552 30.447,48 31,48 C31.553,48 32,47.552 32,47 L32,39.816 C33.161,39.402 34,38.302 34,37 C34,35.346 32.654,34 31,34 C29.346,34 28,35.346 28,37 C28,38.302 28.839,39.402 30,39.816 L30,39.816 Z M31,36 C31.552,36 32,36.449 32,37 C32,37.551 31.552,38 31,38 C30.448,38 30,37.551 30,37 C30,36.449 30.448,36 31,36 L31,36 Z" id="Shape" fill="#000000"></path>
    </g>
</svg>