<?xml version="1.0" encoding="UTF-8" standalone="no"?>
<svg width="64px" height="64px" viewBox="0 0 64 64" version="1.1" xmlns="http://www.w3.org/2000/svg" xmlns:xlink="http://www.w3.org/1999/xlink">
    <!-- Generator: Sketch 3.7.2 (28276) - http://www.bohemiancoding.com/sketch -->
    <title>sec-handle-halt</title>
    <desc>Created with Sketch.</desc>
    <defs></defs>
    <g id="64px-Line" stroke="none" stroke-width="1" fill="none" fill-rule="evenodd">
        <g id="sec-handle-halt"></g>
        <path d="M40,20 C42.206,20 44,18.206 44,16 L44,15 C44,7.832 38.168,2 31,2 C23.832,2 18,7.832 18,15 L18,57 C18,59.757 20.243,62 23,62 L39,62 C41.757,62 44,59.757 44,57 L44,31 C44,29.577 43.384,27.574 40.494,26.13 L28.806,19.496 C28.791,19.488 28.776,19.48 28.761,19.473 C27.058,18.618 26,16.904 26,15 C26,12.243 28.243,10 31,10 C33.757,10 36,12.243 36,15 L36,16 C36,18.206 37.794,20 40,20 L40,20 Z M31,8 C27.14,8 24,11.141 24,15 C24,17.656 25.471,20.048 27.84,21.248 L39.552,27.894 C41.2,28.718 42,29.733 42,31 L42,57 C42,58.654 40.654,60 39,60 L23,60 C21.346,60 20,58.654 20,57 L20,15 C20,8.935 24.935,4 31,4 C37.065,4 42,8.935 42,15 L42,16 C42,17.103 41.103,18 40,18 C38.897,18 38,17.103 38,16 L38,15 C38,11.141 34.86,8 31,8 L31,8 Z" id="Shape" fill="#000000"></path>
        <path d="M24.625,47.345 C24.63,47.35 24.632,47.358 24.637,47.363 C24.642,47.368 24.649,47.37 24.655,47.375 C26.283,48.996 28.526,50 31,50 C35.962,50 40,45.963 40,41 C40,38.526 38.996,36.283 37.375,34.655 C37.37,34.65 37.368,34.642 37.363,34.637 C37.358,34.632 37.351,34.63 37.345,34.625 C35.717,33.004 33.474,32 31,32 C26.038,32 22,36.037 22,41 C22,43.474 23.004,45.717 24.625,47.345 L24.625,47.345 Z M31,48 C29.43,48 27.985,47.474 26.816,46.598 L36.599,36.815 C37.474,37.985 38,39.43 38,41 C38,44.859 34.86,48 31,48 L31,48 Z M31,34 C32.57,34 34.015,34.526 35.184,35.402 L25.401,45.185 C24.526,44.015 24,42.57 24,41 C24,37.141 27.14,34 31,34 L31,34 Z" id="Shape" fill="#000000"></path>
    </g>
</svg>