<?xml version="1.0" encoding="UTF-8" standalone="no"?>
<svg width="64px" height="64px" viewBox="0 0 64 64" version="1.1" xmlns="http://www.w3.org/2000/svg" xmlns:xlink="http://www.w3.org/1999/xlink">
    <!-- Generator: Sketch 3.7.2 (28276) - http://www.bohemiancoding.com/sketch -->
    <title>sec-gavel</title>
    <desc>Created with Sketch.</desc>
    <defs></defs>
    <g id="64px-Line" stroke="none" stroke-width="1" fill="none" fill-rule="evenodd">
        <g id="sec-gavel"></g>
        <path d="M56,52 L28,52 C25.794,52 24,53.794 24,56 L24,59 C24,59.553 24.448,60 25,60 L59,60 C59.552,60 60,59.553 60,59 L60,56 C60,53.794 58.206,52 56,52 L56,52 Z M58,58 L26,58 L26,56 C26,54.897 26.897,54 28,54 L56,54 C57.103,54 58,54.897 58,56 L58,58 L58,58 Z" id="Shape" fill="#000000"></path>
        <path d="M35.025,32.975 C35.707,33.658 36.604,33.998 37.5,33.998 C38.396,33.998 39.292,33.657 39.975,32.975 L48.975,23.975 C50.34,22.611 50.34,20.39 48.975,19.026 C48.095,18.145 46.86,17.841 45.727,18.097 L35.904,8.274 C36.159,7.141 35.855,5.907 34.975,5.027 C33.611,3.662 31.39,3.662 30.026,5.027 L21.026,14.027 C19.661,15.391 19.661,17.612 21.026,18.976 C21.708,19.659 22.605,19.999 23.501,19.999 C23.825,19.999 24.145,19.939 24.459,19.85 L34.152,29.543 C33.816,30.724 34.096,32.046 35.025,32.975 L35.025,32.975 Z M35.244,27.807 L26.193,18.756 L34.876,10.073 L43.927,19.124 L35.244,27.807 L35.244,27.807 Z M47.561,20.439 C48.145,21.024 48.145,21.975 47.561,22.56 L38.561,31.56 C37.976,32.144 37.025,32.144 36.44,31.56 C35.856,30.975 35.856,30.024 36.44,29.439 L45.44,20.439 C45.732,20.147 46.116,20.001 46.501,20.001 C46.886,20.001 47.268,20.147 47.561,20.439 L47.561,20.439 Z M22.439,17.561 C21.855,16.976 21.855,16.025 22.439,15.44 L31.439,6.44 C31.731,6.148 32.115,6.002 32.5,6.002 C32.885,6.002 33.268,6.148 33.561,6.44 C34.145,7.025 34.145,7.976 33.561,8.561 L24.561,17.561 C23.976,18.145 23.024,18.145 22.439,17.561 L22.439,17.561 Z" id="Shape" fill="#000000"></path>
        <path d="M28.756,27.381 L6.092,49.988 L4.012,47.851 L26.713,25.15 L25.299,23.736 L2.598,46.437 C1.803,47.232 1.803,48.527 2.598,49.322 L4.678,51.402 C5.063,51.788 5.575,52 6.121,52 L6.122,52 C6.667,52 7.179,51.787 7.563,51.402 L30.17,28.795 L28.756,27.381 L28.756,27.381 Z" id="Shape" fill="#000000"></path>
    </g>
</svg>