<?xml version="1.0" encoding="UTF-8" standalone="no"?>
<svg width="64px" height="64px" viewBox="0 0 64 64" version="1.1" xmlns="http://www.w3.org/2000/svg" xmlns:xlink="http://www.w3.org/1999/xlink">
    <!-- Generator: Sketch 3.7.2 (28276) - http://www.bohemiancoding.com/sketch -->
    <title>sec-shield-diagonal</title>
    <desc>Created with Sketch.</desc>
    <defs></defs>
    <g id="64px-Line" stroke="none" stroke-width="1" fill="none" fill-rule="evenodd">
        <g id="sec-shield-diagonal"></g>
        <path d="M31.661,59.941 C31.771,59.98 31.886,60 32,60 C32.114,60 32.229,59.98 32.338,59.941 C42.811,56.178 54,46.336 54,30 L54,13 C54,12.448 53.553,12 53,12 C43.515,12 35.587,6.556 32.619,4.215 C32.256,3.929 31.744,3.929 31.381,4.215 C28.411,6.556 20.48,12 11,12 C10.447,12 10,12.448 10,13 L10,30 C10,46.333 21.189,56.175 31.661,59.941 L31.661,59.941 Z M32,57.934 C30.157,57.238 25.852,55.353 21.706,51.708 L52,21.414 L52,30 C52,49.163 36.051,56.406 32,57.934 L32,57.934 Z M52,18.586 L20.247,50.339 C18.485,48.577 16.815,46.469 15.442,43.972 L46.249,13.165 C48.075,13.604 49.998,13.906 52.001,13.981 L52.001,18.586 L52,18.586 Z M12,13.981 C21.058,13.644 28.6,8.829 32,6.262 C34.336,8.026 38.629,10.853 44.028,12.558 L14.496,42.091 C12.973,38.722 12,34.725 12,30 L12,13.981 L12,13.981 Z" id="Shape" fill="#000000"></path>
    </g>
</svg>