<?xml version="1.0" encoding="UTF-8" standalone="no"?>
<svg width="64px" height="64px" viewBox="0 0 64 64" version="1.1" xmlns="http://www.w3.org/2000/svg" xmlns:xlink="http://www.w3.org/1999/xlink">
    <!-- Generator: Sketch 3.7.2 (28276) - http://www.bohemiancoding.com/sketch -->
    <title>sec-handcuffs</title>
    <desc>Created with Sketch.</desc>
    <defs></defs>
    <g id="64px-Line" stroke="none" stroke-width="1" fill="none" fill-rule="evenodd">
        <g id="sec-handcuffs"></g>
        <path d="M6,47 C6,53.065 10.935,58 17,58 C23.065,58 28,53.065 28,47 C28,40.935 23.065,36 17,36 C10.935,36 6,40.935 6,47 L6,47 Z M26,47 C26,51.963 21.963,56 17,56 C12.037,56 8,51.963 8,47 C8,42.037 12.037,38 17,38 C21.963,38 26,42.037 26,47 L26,47 Z" id="Shape" fill="#000000"></path>
        <path d="M47,6 C40.935,6 36,10.935 36,17 C36,23.065 40.935,28 47,28 C53.065,28 58,23.065 58,17 C58,10.935 53.065,6 47,6 L47,6 Z M47,26 C42.037,26 38,21.963 38,17 C38,12.037 42.037,8 47,8 C51.963,8 56,12.037 56,17 C56,21.963 51.963,26 47,26 L47,26 Z" id="Shape" fill="#000000"></path>
        <path d="M47,2 C42.275,2 37.828,4.233 34.999,8 L30,8 C28.897,8 28,8.897 28,10 L28,14.184 C27.686,14.072 27.352,14 27,14 L23,14 C21.346,14 20,15.346 20,17 C20,17.462 20.114,17.894 20.301,18.285 L18.286,20.3 C17.894,20.114 17.462,20 17,20 C15.346,20 14,21.346 14,23 L14,27 C14,27.352 14.072,27.686 14.184,28 L10,28 C8.897,28 8,28.897 8,30 L8,34.999 C4.233,37.828 2,42.274 2,47 C2,55.271 8.729,62 17,62 C25.271,62 32,55.271 32,47 C32,42.275 29.767,37.828 26,34.999 L26,30 C26,28.897 25.103,28 24,28 L19.816,28 C19.928,27.686 20,27.352 20,27 L20,23 C20,22.538 19.886,22.106 19.699,21.715 L21.714,19.7 C22.105,19.887 22.538,20.001 22.999,20.001 L26.999,20.001 C27.351,20.001 27.685,19.929 27.999,19.817 L27.999,24 C27.999,25.103 28.896,26 29.999,26 L34.998,26 C37.827,29.767 42.273,32 46.999,32 C55.27,32 61.999,25.271 61.999,17 C61.999,8.729 55.271,2 47,2 L47,2 Z M22.313,16.28 C22.402,16.196 22.503,16.125 22.618,16.078 C22.507,16.123 22.404,16.193 22.313,16.28 L22.313,16.28 Z M24.001,35.51 C24.001,35.837 24.161,36.143 24.429,36.33 C27.917,38.765 30,42.753 30,47 C30,54.168 24.168,60 17,60 C9.832,60 4,54.168 4,47 C4,42.752 6.083,38.763 9.572,36.33 C9.84,36.142 10,35.837 10,35.51 L10,30 L24,30 L24.001,35.51 L24.001,35.51 Z M18,27 C18,27.552 17.552,28 17,28 C16.448,28 16,27.552 16,27 L16,23 C16,23.256 16.098,23.512 16.293,23.707 C16.488,23.902 16.744,24 17,24 C17.256,24 17.512,23.902 17.707,23.707 L18,23.414 L18,27 L18,27 Z M16.28,22.313 C16.193,22.405 16.123,22.507 16.078,22.618 C16.125,22.503 16.195,22.401 16.28,22.313 L16.28,22.313 Z M27,18 L23.414,18 L23.707,17.707 C24.098,17.316 24.098,16.684 23.707,16.293 C23.512,16.098 23.256,16 23,16 L27,16 C27.552,16 28,16.448 28,17 C28,17.552 27.552,18 27,18 L27,18 Z M47,30 C42.752,30 38.763,27.917 36.33,24.428 C36.142,24.16 35.837,24 35.51,24 L30,24 L30,10 L35.51,9.999 C35.837,9.999 36.143,9.839 36.33,9.571 C38.765,6.083 42.753,4 47,4 C54.168,4 60,9.832 60,17 C60,24.168 54.168,30 47,30 L47,30 Z" id="Shape" fill="#000000"></path>
    </g>
</svg>