<?xml version="1.0" encoding="UTF-8" standalone="no"?>
<svg width="64px" height="64px" viewBox="0 0 64 64" version="1.1" xmlns="http://www.w3.org/2000/svg" xmlns:xlink="http://www.w3.org/1999/xlink">
    <!-- Generator: Sketch 3.7.2 (28276) - http://www.bohemiancoding.com/sketch -->
    <title>sec-scales-justice</title>
    <desc>Created with Sketch.</desc>
    <defs></defs>
    <g id="64px-Line" stroke="none" stroke-width="1" fill="none" fill-rule="evenodd">
        <g id="sec-scales-justice"></g>
        <path d="M52,13 C52,12.447 51.552,12 51,12 L33.816,12 C33.514,11.153 32.847,10.486 32,10.184 L32,5 C32,4.447 31.552,4 31,4 C30.448,4 30,4.447 30,5 L30,10.184 C29.153,10.486 28.486,11.153 28.184,12 L11,12 C10.448,12 10,12.447 10,13 C10,13.553 10.448,14 11,14 L13,14 L28.184,14 C28.486,14.847 29.153,15.514 30,15.816 L30,54 L18,54 C15.794,54 14,55.794 14,58 L14,59 C14,59.553 14.448,60 15,60 L47,60 C47.552,60 48,59.553 48,59 L48,58 C48,55.794 46.206,54 44,54 L32,54 L32,15.816 C32.847,15.514 33.514,14.847 33.816,14 L49,14 L51,14 C51.552,14 52,13.553 52,13 L52,13 Z M44,56 C45.103,56 46,56.897 46,58 L16,58 C16,56.897 16.897,56 18,56 L44,56 L44,56 Z M31,14 C30.449,14 30,13.552 30,13 C30,12.448 30.449,12 31,12 C31.551,12 32,12.448 32,13 C32,13.552 31.551,14 31,14 L31,14 Z" id="Shape" fill="#000000"></path>
        <path d="M12.051,14.684 L6.279,32 L5,32 C4.448,32 4,32.447 4,33 C4,37.963 8.038,42 13,42 C17.962,42 22,37.963 22,33 C22,32.447 21.552,32 21,32 L19.721,32 L13.949,14.684 C13.812,14.275 13.431,14 13,14 C12.569,14 12.188,14.275 12.051,14.684 L12.051,14.684 Z M13,40 C9.479,40 6.558,37.388 6.071,34 L19.928,34 C19.442,37.388 16.521,40 13,40 L13,40 Z M17.613,32 L8.388,32 L13,18.162 L17.613,32 L17.613,32 Z" id="Shape" fill="#000000"></path>
        <path d="M57,32 L55.721,32 L49.949,14.684 C49.812,14.275 49.431,14 49,14 C48.569,14 48.188,14.275 48.051,14.684 L42.279,32 L41,32 C40.448,32 40,32.447 40,33 C40,37.963 44.038,42 49,42 C53.962,42 58,37.963 58,33 C58,32.447 57.552,32 57,32 L57,32 Z M49,18.162 L53.613,32 L44.388,32 L49,18.162 L49,18.162 Z M49,40 C45.479,40 42.558,37.388 42.071,34 L55.928,34 C55.442,37.388 52.521,40 49,40 L49,40 Z" id="Shape" fill="#000000"></path>
    </g>
</svg>