<?xml version="1.0" encoding="UTF-8" standalone="no"?>
<svg width="64px" height="64px" viewBox="0 0 64 64" version="1.1" xmlns="http://www.w3.org/2000/svg" xmlns:xlink="http://www.w3.org/1999/xlink">
    <!-- Generator: Sketch 3.7.2 (28276) - http://www.bohemiancoding.com/sketch -->
    <title>sec-alarmbell-ring</title>
    <desc>Created with Sketch.</desc>
    <defs></defs>
    <g id="64px-Line" stroke="none" stroke-width="1" fill="none" fill-rule="evenodd">
        <g id="sec-alarmbell-ring"></g>
        <path d="M36,32 C36,29.794 34.206,28 32,28 C29.794,28 28,29.794 28,32 C28,34.206 29.794,36 32,36 C34.206,36 36,34.206 36,32 L36,32 Z M30,32 C30,30.897 30.897,30 32,30 C33.103,30 34,30.897 34,32 C34,33.103 33.103,34 32,34 C30.897,34 30,33.103 30,32 L30,32 Z" id="Shape" fill="#000000"></path>
        <path d="M33,19 C33,18.448 32.553,18 32,18 C24.28,18 18,24.28 18,32 C18,32.552 18.447,33 19,33 C19.553,33 20,32.552 20,32 C20,25.383 25.383,20 32,20 C32.553,20 33,19.552 33,19 L33,19 Z" id="Shape" fill="#000000"></path>
        <path d="M54,34 C51.794,34 50,35.794 50,38 C50,39.429 50.759,40.676 51.89,41.384 C50.505,44.318 48.498,46.899 45.996,48.962 C45.976,47.412 44.775,46.156 43.254,46.025 C47.361,42.724 50,37.667 50,32 C50,22.075 41.925,14 32,14 C22.075,14 14,22.075 14,32 C14,37.667 16.639,42.724 20.746,46.026 C19.212,46.157 18,47.433 18,49 L18,57 C18,58.654 19.346,60 21,60 L43,60 C44.654,60 46,58.654 46,57 L46,51.479 C49.397,49.035 52.079,45.773 53.815,41.982 C53.877,41.985 53.937,42.001 54,42.001 C56.206,42.001 58,40.207 58,38.001 C58,35.795 56.206,34 54,34 L54,34 Z M16,32 C16,23.178 23.178,16 32,16 C40.822,16 48,23.178 48,32 C48,40.822 40.822,48 32,48 C23.178,48 16,40.822 16,32 L16,32 Z M44,57 C44,57.551 43.552,58 43,58 L21,58 C20.448,58 20,57.551 20,57 L20,49 C20,48.449 20.448,48 21,48 L23.792,48 C26.257,49.27 29.043,50 32,50 C34.957,50 37.744,49.27 40.208,48 L43,48 C43.552,48 44,48.449 44,49 L44,57 L44,57 Z M54,40 C52.897,40 52,39.103 52,38 C52,36.897 52.897,36 54,36 C55.103,36 56,36.897 56,38 C56,39.103 55.103,40 54,40 L54,40 Z" id="Shape" fill="#000000"></path>
        <path d="M23,12 C23.553,12 24,11.552 24,11 C24,10.448 23.553,10 23,10 C15.832,10 10,15.832 10,23 C10,23.552 10.447,24 11,24 C11.553,24 12,23.552 12,23 C12,16.935 16.935,12 23,12 L23,12 Z" id="Shape" fill="#000000"></path>
        <path d="M23,6 C23.553,6 24,5.552 24,5 C24,4.448 23.553,4 23,4 C12.523,4 4,12.523 4,23 C4,23.552 4.447,24 5,24 C5.553,24 6,23.552 6,23 C6,13.626 13.626,6 23,6 L23,6 Z" id="Shape" fill="#000000"></path>
        <path d="M52,23 C52,23.552 52.447,24 53,24 C53.553,24 54,23.552 54,23 C54,15.832 48.168,10 41,10 C40.447,10 40,10.448 40,11 C40,11.552 40.447,12 41,12 C47.065,12 52,16.935 52,23 L52,23 Z" id="Shape" fill="#000000"></path>
        <path d="M41,4 C40.447,4 40,4.448 40,5 C40,5.552 40.447,6 41,6 C50.374,6 58,13.626 58,23 C58,23.552 58.447,24 59,24 C59.553,24 60,23.552 60,23 C60,12.523 51.477,4 41,4 L41,4 Z" id="Shape" fill="#000000"></path>
    </g>
</svg>