<?xml version="1.0" encoding="UTF-8" standalone="no"?>
<svg width="64px" height="64px" viewBox="0 0 64 64" version="1.1" xmlns="http://www.w3.org/2000/svg" xmlns:xlink="http://www.w3.org/1999/xlink">
    <!-- Generator: Sketch 3.7.2 (28276) - http://www.bohemiancoding.com/sketch -->
    <title>sha-dodecahedron</title>
    <desc>Created with Sketch.</desc>
    <defs></defs>
    <g id="64px-Line" stroke="none" stroke-width="1" fill="none" fill-rule="evenodd">
        <g id="sha-dodecahedron"></g>
        <path d="M46.786,9.382 C46.771,9.362 46.749,9.35 46.733,9.331 C46.722,9.319 46.719,9.304 46.707,9.292 C46.692,9.277 46.673,9.272 46.657,9.259 C46.588,9.197 46.512,9.147 46.428,9.107 C46.401,9.094 46.377,9.077 46.349,9.067 C46.337,9.063 46.328,9.054 46.316,9.05 L31.316,4.05 C31.111,3.982 30.888,3.982 30.683,4.05 L15.683,9.05 C15.671,9.054 15.662,9.062 15.65,9.067 C15.622,9.077 15.598,9.094 15.571,9.107 C15.487,9.147 15.411,9.197 15.342,9.259 C15.327,9.273 15.307,9.278 15.292,9.292 C15.281,9.303 15.277,9.319 15.266,9.331 C15.249,9.349 15.228,9.362 15.213,9.382 L4.213,23.382 C4.075,23.559 4,23.776 4,24 L4,40 C4,40.047 4.014,40.093 4.021,40.139 C4.026,40.174 4.027,40.207 4.036,40.241 C4.064,40.352 4.104,40.459 4.168,40.554 L14.168,55.554 C14.306,55.761 14.517,55.909 14.758,55.969 L30.758,59.969 C30.837,59.99 30.919,59.999 31,59.999 C31.081,59.999 31.163,59.989 31.242,59.969 L47.242,55.969 C47.483,55.909 47.694,55.761 47.832,55.554 L57.832,40.554 C57.896,40.458 57.936,40.351 57.964,40.241 C57.973,40.207 57.974,40.174 57.979,40.139 C57.986,40.092 58,40.047 58,40 L58,24 C58,23.776 57.925,23.559 57.786,23.382 L46.786,9.382 L46.786,9.382 Z M56,38.079 L47.844,32.37 L42.144,15.27 L45.91,11.504 L56,24.346 L56,38.079 L56,38.079 Z M31,43.75 L16.177,32.632 L21.721,16 L40.28,16 L45.824,32.632 L31,43.75 L31,43.75 Z M31,6.054 L44.149,10.437 L40.586,14 L21.414,14 L17.851,10.437 L31,6.054 L31,6.054 Z M16.09,11.504 L19.856,15.27 L14.156,32.37 L6,38.079 L6,24.345 L16.09,11.504 L16.09,11.504 Z M6.374,40.259 L14.98,34.235 L30,45.5 L30,57.719 L15.617,54.124 L6.374,40.259 L6.374,40.259 Z M46.383,54.124 L32,57.719 L32,45.5 L47.02,34.235 L55.626,40.259 L46.383,54.124 L46.383,54.124 Z" id="Shape" fill="#000000"></path>
    </g>
</svg>