<?xml version="1.0" encoding="UTF-8" standalone="no"?>
<svg width="64px" height="64px" viewBox="0 0 64 64" version="1.1" xmlns="http://www.w3.org/2000/svg" xmlns:xlink="http://www.w3.org/1999/xlink">
    <!-- Generator: Sketch 3.7.2 (28276) - http://www.bohemiancoding.com/sketch -->
    <title>sha-hexagon-cylinder</title>
    <desc>Created with Sketch.</desc>
    <defs></defs>
    <g id="64px-Line" stroke="none" stroke-width="1" fill="none" fill-rule="evenodd">
        <g id="sha-hexagon-cylinder"></g>
        <path d="M16.324,57.737 C16.374,57.783 16.437,57.808 16.494,57.843 C16.539,57.87 16.576,57.905 16.625,57.924 C16.744,57.972 16.87,58 17,58 L45,58 C45.13,58 45.256,57.972 45.375,57.924 C45.424,57.904 45.462,57.869 45.506,57.842 C45.563,57.808 45.626,57.782 45.676,57.737 L57.676,46.737 C57.883,46.548 58,46.28 58,46 L58,18 C58,17.993 57.996,17.987 57.996,17.979 C57.996,17.973 57.999,17.968 57.999,17.961 C57.998,17.92 57.975,17.885 57.969,17.845 C57.954,17.751 57.938,17.66 57.899,17.577 C57.878,17.532 57.845,17.497 57.817,17.455 C57.768,17.382 57.719,17.313 57.653,17.255 C57.639,17.243 57.633,17.224 57.618,17.213 L43.618,6.213 C43.441,6.075 43.224,6 43,6 L19,6 C18.776,6 18.559,6.075 18.382,6.214 L4.382,17.214 C4.367,17.226 4.361,17.244 4.347,17.256 C4.281,17.314 4.232,17.382 4.183,17.455 C4.155,17.497 4.122,17.532 4.101,17.577 C4.062,17.66 4.047,17.751 4.032,17.845 C4.026,17.885 4.003,17.92 4.002,17.961 C4.002,17.967 4.005,17.972 4.005,17.979 C4.005,17.986 4.001,17.992 4.001,18 L4.001,46 C4.001,46.28 4.118,46.548 4.325,46.737 L16.324,57.737 L16.324,57.737 Z M6,20.273 L16,29.44 L16,54.727 L6,45.56 L6,20.273 L6,20.273 Z M44,56 L18,56 L18,30 L44,30 L44,56 L44,56 Z M46,54.727 L46,29.44 L56,20.273 L56,45.56 L46,54.727 L46,54.727 Z M19.346,8 L42.655,8 L55.457,18.059 L44.611,28 L17.388,28 L6.543,18.059 L19.346,8 L19.346,8 Z" id="Shape" fill="#000000"></path>
    </g>
</svg>