<?xml version="1.0" encoding="UTF-8" standalone="no"?>
<svg width="64px" height="64px" viewBox="0 0 64 64" version="1.1" xmlns="http://www.w3.org/2000/svg" xmlns:xlink="http://www.w3.org/1999/xlink">
    <!-- Generator: Sketch 3.7.2 (28276) - http://www.bohemiancoding.com/sketch -->
    <title>sha-star-cylinder-2</title>
    <desc>Created with Sketch.</desc>
    <defs></defs>
    <g id="64px-Line" stroke="none" stroke-width="1" fill="none" fill-rule="evenodd">
        <g id="sha-star-cylinder-2"></g>
        <path d="M61.991,16.866 C61.983,16.809 61.957,16.759 61.94,16.705 C61.927,16.663 61.919,16.62 61.901,16.58 C61.862,16.496 61.808,16.424 61.749,16.355 C61.73,16.333 61.718,16.306 61.697,16.286 C61.612,16.203 61.512,16.136 61.401,16.087 C61.371,16.074 61.338,16.072 61.307,16.062 C61.236,16.038 61.166,16.011 61.088,16.004 L39.8,14.093 L31.77,4.364 C31.76,4.352 31.745,4.348 31.735,4.337 C31.669,4.264 31.589,4.209 31.504,4.158 C31.47,4.137 31.443,4.108 31.406,4.092 C31.283,4.035 31.146,4 31,4 C30.854,4 30.717,4.035 30.592,4.091 C30.556,4.107 30.528,4.137 30.494,4.157 C30.409,4.208 30.329,4.263 30.264,4.336 C30.254,4.347 30.239,4.351 30.229,4.363 L22.199,14.092 L0.911,16.003 C0.834,16.01 0.764,16.038 0.692,16.061 C0.661,16.071 0.628,16.073 0.598,16.086 C0.488,16.135 0.388,16.202 0.302,16.285 C0.281,16.305 0.27,16.332 0.251,16.354 C0.191,16.423 0.138,16.496 0.099,16.58 C0.081,16.619 0.073,16.662 0.06,16.704 C0.043,16.758 0.017,16.808 0.009,16.865 C0.005,16.891 0.013,16.916 0.012,16.942 C0.01,16.963 0,16.98 0,17 L0,43 C0,43.018 0.007,43.034 0.008,43.052 C0.009,43.065 0.003,43.077 0.004,43.09 C0.006,43.117 0.021,43.139 0.026,43.165 C0.039,43.243 0.059,43.317 0.09,43.389 C0.106,43.427 0.123,43.463 0.143,43.498 C0.181,43.564 0.228,43.622 0.28,43.678 C0.305,43.705 0.326,43.733 0.354,43.756 C0.426,43.818 0.507,43.867 0.596,43.907 C0.612,43.914 0.624,43.926 0.64,43.932 C0.643,43.933 0.645,43.935 0.648,43.937 L12,48.193 L12,61 C12,61.018 12.005,61.035 12.006,61.052 C12.007,61.074 12.011,61.095 12.014,61.117 C12.027,61.229 12.054,61.338 12.103,61.438 C12.105,61.442 12.105,61.446 12.107,61.45 C12.158,61.552 12.231,61.64 12.315,61.72 C12.332,61.736 12.347,61.752 12.365,61.767 C12.382,61.781 12.396,61.799 12.414,61.812 C12.492,61.868 12.577,61.908 12.666,61.939 C12.672,61.941 12.676,61.946 12.683,61.949 C12.698,61.954 12.713,61.952 12.727,61.956 C12.801,61.977 12.876,61.989 12.953,61.993 C12.968,61.994 12.984,62 12.999,62 C13.01,62 13.02,61.995 13.03,61.995 C13.113,61.992 13.194,61.98 13.275,61.957 C13.286,61.954 13.298,61.953 13.309,61.95 C13.311,61.949 13.313,61.95 13.315,61.949 L31,56.054 L48.684,61.949 C48.686,61.949 48.687,61.949 48.689,61.95 C48.789,61.983 48.893,62.001 49,62.001 C49.106,62.001 49.211,61.983 49.312,61.95 C49.314,61.95 49.315,61.95 49.317,61.949 C49.326,61.946 49.331,61.939 49.339,61.936 C49.425,61.905 49.509,61.867 49.585,61.812 C49.603,61.799 49.617,61.781 49.634,61.767 C49.652,61.752 49.668,61.736 49.684,61.72 C49.768,61.64 49.841,61.552 49.892,61.45 C49.894,61.446 49.895,61.442 49.896,61.438 C49.945,61.338 49.972,61.229 49.985,61.117 C49.988,61.095 49.992,61.075 49.993,61.052 C49.994,61.034 49.999,61.017 49.999,61 L49.999,48.193 L61.351,43.936 C61.354,43.935 61.356,43.933 61.359,43.931 C61.375,43.925 61.388,43.913 61.404,43.906 C61.492,43.866 61.574,43.817 61.645,43.756 C61.673,43.732 61.694,43.704 61.719,43.678 C61.771,43.622 61.818,43.564 61.856,43.498 C61.877,43.462 61.893,43.427 61.91,43.389 C61.941,43.318 61.961,43.243 61.974,43.166 C61.979,43.14 61.993,43.117 61.996,43.09 C61.997,43.077 61.991,43.065 61.992,43.052 C61.993,43.034 62,43.018 62,43 L62,17 C62,16.98 61.99,16.963 61.989,16.943 C61.987,16.917 61.995,16.892 61.991,16.866 L61.991,16.866 Z M22,16.119 L22,18 C22,18.553 22.447,19 23,19 C23.553,19 24,18.553 24,18 L24,15.052 L30,7.783 L30,8 C30,8.553 30.447,9 31,9 C31.553,9 32,8.553 32,8 L32,7.783 L38,15.053 L38,18 C38,18.553 38.447,19 39,19 C39.553,19 40,18.553 40,18 L40,16.119 L56.542,17.603 L44.648,22.063 C44.641,22.066 44.637,22.071 44.63,22.074 C44.566,22.1 44.514,22.143 44.457,22.181 C44.406,22.215 44.35,22.241 44.307,22.282 C44.265,22.322 44.239,22.374 44.205,22.421 C44.165,22.477 44.119,22.528 44.091,22.59 C44.07,22.637 44.065,22.691 44.051,22.742 C44.031,22.816 44.008,22.888 44.006,22.966 C44.006,22.978 43.999,22.987 43.999,22.999 L43.999,25.999 C43.999,26.552 44.446,26.999 44.999,26.999 C45.092,26.999 45.176,26.97 45.261,26.946 L47.418,33.418 L45.928,32.922 C45.786,32.544 45.427,32.272 44.999,32.272 C44.804,32.272 44.632,32.342 44.479,32.439 L39.958,30.932 C39.973,30.863 40,30.799 40,30.726 L40,25.272 C40,24.719 39.553,24.272 39,24.272 C38.447,24.272 38,24.719 38,25.272 L38,30.279 L31.316,28.051 C31.213,28.017 31.106,27.999 31,27.999 C30.894,27.999 30.786,28.017 30.684,28.051 L24,30.28 L24,25.273 C24,24.72 23.553,24.273 23,24.273 C22.447,24.273 22,24.72 22,25.273 L22,30.727 C22,30.8 22.027,30.864 22.042,30.933 L17.521,32.44 C17.367,32.344 17.196,32.273 17.001,32.273 C16.573,32.273 16.214,32.545 16.072,32.923 L14.582,33.419 L16.739,26.947 C16.824,26.971 16.908,27 17.001,27 C17.554,27 18.001,26.553 18.001,26 L18.001,23 C18.001,22.988 17.995,22.979 17.994,22.967 C17.991,22.889 17.969,22.817 17.949,22.743 C17.935,22.692 17.93,22.638 17.909,22.591 C17.881,22.528 17.835,22.477 17.795,22.422 C17.761,22.375 17.735,22.323 17.693,22.283 C17.65,22.241 17.594,22.216 17.543,22.182 C17.486,22.144 17.435,22.101 17.37,22.075 C17.363,22.072 17.359,22.067 17.352,22.064 L5.458,17.604 L22,16.119 L22,16.119 Z M48,40.846 C47.483,40.844 47.054,41.225 47.007,41.744 C46.958,42.294 47.363,42.779 47.914,42.829 L48,42.837 L48,46.807 L46,47.557 L46,46 C46,45.447 45.553,45 45,45 C44.447,45 44,45.447 44,46 L44,49 C44,49.053 44.022,49.1 44.03,49.151 C44.039,49.207 44.033,49.262 44.051,49.317 L44.598,50.957 C44.738,51.376 45.127,51.641 45.546,51.641 C45.65,51.641 45.758,51.624 45.862,51.589 C46.385,51.414 46.669,50.848 46.494,50.324 L46.253,49.598 L47.999,48.943 L47.999,57.25 C47.919,57.256 47.839,57.253 47.759,57.28 C47.236,57.454 46.952,58.02 47.127,58.545 L47.418,59.419 L32,54.28 L32,33.783 L32.139,33.951 C32.337,34.19 32.623,34.314 32.911,34.314 C33.135,34.314 33.36,34.239 33.547,34.085 C33.973,33.733 34.033,33.103 33.682,32.677 L32,30.64 L32,30.387 L44,34.387 L44,38.727 C44,39.28 44.447,39.727 45,39.727 C45.553,39.727 46,39.28 46,38.727 L46,35.054 L48,35.721 L48,40.846 L48,40.846 Z M15.214,54.359 C14.72,54.195 14.209,54.442 14,54.902 L14,48.942 L15.385,49.461 C15.5,49.504 15.618,49.524 15.736,49.524 C15.868,49.524 15.994,49.489 16.114,49.44 C16.278,49.768 16.609,49.999 17.001,49.999 C17.554,49.999 18.001,49.552 18.001,48.999 L18.001,45.999 C18.001,45.446 17.554,44.999 17.001,44.999 C16.448,44.999 16.001,45.446 16.001,45.999 L16.001,47.556 L14.001,46.806 L14.001,42.836 L14.087,42.828 C14.637,42.778 15.043,42.293 14.993,41.742 C14.947,41.225 14.502,40.851 14.001,40.846 L14.001,35.719 L16.001,35.052 L16.001,38.725 C16.001,39.278 16.448,39.725 17.001,39.725 C17.554,39.725 18.001,39.278 18.001,38.725 L18.001,34.385 L30.001,30.385 L30.001,30.638 L28.319,32.675 C27.967,33.101 28.028,33.732 28.454,34.083 C28.88,34.434 29.51,34.373 29.862,33.948 L30.001,33.78 L30.001,54.277 L14.582,59.416 L15.847,55.621 C16.021,55.1 15.737,54.533 15.214,54.359 L15.214,54.359 Z M4.771,43.346 C4.923,43.153 5.009,42.906 4.985,42.642 C4.935,42.092 4.446,41.689 3.899,41.736 L2,41.906 L2,18.443 L15.747,23.597 L12.052,34.683 C12.019,34.781 12.005,34.882 12.004,34.982 C12.004,34.988 12,34.993 12,35 L12,41.008 L9.617,41.222 C9.067,41.272 8.661,41.757 8.711,42.308 C8.758,42.828 9.194,43.218 9.706,43.218 C9.736,43.218 9.767,43.217 9.797,43.214 L12,43.016 L12,46.056 L4.771,43.346 L4.771,43.346 Z M50,43.016 L52.203,43.214 C52.233,43.217 52.264,43.218 52.293,43.218 C52.805,43.218 53.241,42.827 53.288,42.307 C53.337,41.757 52.932,41.272 52.381,41.222 L50,41.008 L50,35 C50,34.994 49.997,34.989 49.996,34.982 C49.994,34.882 49.98,34.781 49.948,34.683 L46.253,23.597 L60,18.443 L60,41.906 L58.102,41.735 C57.542,41.686 57.066,42.091 57.016,42.641 C56.992,42.905 57.078,43.152 57.23,43.345 L50,46.057 L50,43.016 L50,43.016 Z" id="Shape" fill="#000000"></path>
        <path d="M19.714,42.319 C19.743,42.319 19.774,42.318 19.804,42.315 L22.792,42.047 C22.856,42.041 22.912,42.011 22.973,41.994 C22.983,41.994 22.991,41.999 23,41.999 C23.528,41.999 23.949,41.587 23.986,41.068 L25.385,39.373 C25.737,38.947 25.676,38.316 25.25,37.965 C24.876,37.658 24.358,37.684 23.995,37.976 C23.982,37.435 23.544,37 23,37 C22.447,37 22,37.447 22,38 L22,40.111 L19.626,40.324 C19.075,40.374 18.67,40.859 18.719,41.409 C18.766,41.929 19.202,42.319 19.714,42.319 L19.714,42.319 Z" id="Shape" fill="#000000"></path>
        <path d="M42.373,40.323 L40,40.111 L40,38 C40,37.447 39.553,37 39,37 C38.455,37 38.017,37.436 38.005,37.977 C37.642,37.685 37.123,37.659 36.749,37.965 C36.323,38.317 36.263,38.947 36.614,39.373 L38.014,41.069 C38.052,41.587 38.472,41.999 39,41.999 C39.009,41.999 39.017,41.994 39.026,41.994 C39.087,42.011 39.143,42.042 39.207,42.047 L42.195,42.315 C42.225,42.318 42.256,42.319 42.285,42.319 C42.797,42.319 43.233,41.928 43.28,41.408 C43.329,40.858 42.924,40.373 42.373,40.323 L42.373,40.323 Z" id="Shape" fill="#000000"></path>
        <path d="M31,23 C31.553,23 32,22.553 32,22 L32,16 C32,15.447 31.553,15 31,15 C30.447,15 30,15.447 30,16 L30,22 C30,22.553 30.447,23 31,23 L31,23 Z" id="Shape" fill="#000000"></path>
    </g>
</svg>