<?xml version="1.0" encoding="UTF-8" standalone="no"?>
<svg width="64px" height="64px" viewBox="0 0 64 64" version="1.1" xmlns="http://www.w3.org/2000/svg" xmlns:xlink="http://www.w3.org/1999/xlink">
    <!-- Generator: Sketch 3.7.2 (28276) - http://www.bohemiancoding.com/sketch -->
    <title>sha-circle-triangle-square</title>
    <desc>Created with Sketch.</desc>
    <defs></defs>
    <g id="64px-Line" stroke="none" stroke-width="1" fill="none" fill-rule="evenodd">
        <g id="sha-circle-triangle-square"></g>
        <path d="M59,34 L44.012,34 L33.938,6.654 C33.794,6.261 33.419,6 33,6 C32.581,6 32.206,6.261 32.062,6.654 L22.303,33.143 C20.681,32.415 18.89,32 17,32 C9.832,32 4,37.832 4,45 C4,52.168 9.832,58 17,58 C23.83,58 29.436,52.701 29.949,46 L38,46 L38,55 C38,55.552 38.447,56 39,56 L59,56 C59.553,56 60,55.552 60,55 L60,35 C60,34.448 59.553,34 59,34 L59,34 Z M17,56 C10.935,56 6,51.065 6,45 C6,38.935 10.935,34 17,34 C23.065,34 28,38.935 28,45 C28,51.065 23.065,56 17,56 L17,56 Z M29.949,44 C29.631,39.86 27.374,36.26 24.078,34.111 L33,9.893 L41.881,34 L39,34 C38.447,34 38,34.448 38,35 L38,44 L29.949,44 L29.949,44 Z M58,54 L40,54 L40,36 L43.306,36 C43.309,36 43.312,36.001 43.316,36.001 C43.319,36.001 43.321,36 43.324,36 L58,36 L58,54 L58,54 Z" id="Shape" fill="#000000"></path>
    </g>
</svg>