<?xml version="1.0" encoding="UTF-8" standalone="no"?>
<svg width="64px" height="64px" viewBox="0 0 64 64" version="1.1" xmlns="http://www.w3.org/2000/svg" xmlns:xlink="http://www.w3.org/1999/xlink">
    <!-- Generator: Sketch 3.7.2 (28276) - http://www.bohemiancoding.com/sketch -->
    <title>sha-pyramid</title>
    <desc>Created with Sketch.</desc>
    <defs></defs>
    <g id="64px-Line" stroke="none" stroke-width="1" fill="none" fill-rule="evenodd">
        <g id="sha-pyramid"></g>
        <path d="M4.018,45.076 C4.023,45.141 4.031,45.201 4.049,45.264 C4.066,45.326 4.09,45.381 4.118,45.439 C4.146,45.496 4.177,45.549 4.216,45.6 C4.257,45.654 4.304,45.699 4.357,45.744 C4.386,45.769 4.404,45.803 4.437,45.826 C4.461,45.842 4.489,45.844 4.513,45.858 C4.538,45.873 4.555,45.896 4.582,45.909 L30.582,57.909 C30.587,57.911 30.592,57.91 30.597,57.912 C30.721,57.967 30.857,58.001 31.001,58.001 C31.145,58.001 31.281,57.968 31.405,57.912 C31.41,57.91 31.415,57.911 31.42,57.909 L57.42,45.909 C57.44,45.9 57.452,45.882 57.472,45.871 C57.503,45.854 57.536,45.846 57.566,45.826 C57.599,45.804 57.616,45.77 57.646,45.744 C57.698,45.699 57.746,45.654 57.787,45.6 C57.826,45.549 57.856,45.496 57.885,45.439 C57.913,45.382 57.937,45.326 57.954,45.264 C57.971,45.202 57.979,45.141 57.985,45.076 C57.99,45.013 57.991,44.952 57.984,44.888 C57.977,44.822 57.959,44.76 57.938,44.696 C57.926,44.658 57.928,44.619 57.911,44.582 C57.899,44.555 57.875,44.538 57.86,44.513 C57.846,44.488 57.844,44.461 57.828,44.437 L31.828,6.437 C31.825,6.433 31.82,6.431 31.817,6.427 C31.748,6.329 31.661,6.245 31.559,6.176 C31.53,6.156 31.497,6.146 31.466,6.13 C31.411,6.1 31.359,6.065 31.297,6.046 C31.275,6.039 31.253,6.042 31.231,6.037 C31.189,6.027 31.148,6.024 31.105,6.019 C31.027,6.011 30.951,6.011 30.874,6.021 C30.832,6.026 30.792,6.032 30.751,6.043 C30.662,6.066 30.58,6.103 30.501,6.149 C30.48,6.161 30.457,6.162 30.437,6.176 C30.431,6.18 30.428,6.187 30.422,6.191 C30.328,6.258 30.244,6.338 30.176,6.437 L30.16,6.46 L30.16,6.46 L4.176,44.436 C4.16,44.46 4.158,44.488 4.144,44.512 C4.129,44.537 4.106,44.554 4.093,44.581 C4.076,44.618 4.078,44.657 4.066,44.695 C4.045,44.759 4.028,44.821 4.02,44.887 C4.012,44.952 4.013,45.012 4.018,45.076 L4.018,45.076 Z M32,10.232 L55.507,44.588 L32,55.437 L32,10.232 L32,10.232 Z M30,55.437 L6.493,44.588 L30,10.232 L30,55.437 L30,55.437 Z" id="Shape" fill="#000000"></path>
    </g>
</svg>