<?xml version="1.0" encoding="UTF-8" standalone="no"?>
<svg width="64px" height="64px" viewBox="0 0 64 64" version="1.1" xmlns="http://www.w3.org/2000/svg" xmlns:xlink="http://www.w3.org/1999/xlink">
    <!-- Generator: Sketch 3.7.2 (28276) - http://www.bohemiancoding.com/sketch -->
    <title>sha-dodecahedron-2</title>
    <desc>Created with Sketch.</desc>
    <defs></defs>
    <g id="64px-Line" stroke="none" stroke-width="1" fill="none" fill-rule="evenodd">
        <g id="sha-dodecahedron-2"></g>
        <path d="M32,13 L32,11 C32,10.447 31.553,10 31,10 C30.447,10 30,10.447 30,11 L30,13 C30,13.553 30.447,14 31,14 C31.553,14 32,13.553 32,13 L32,13 Z" id="Shape" fill="#000000"></path>
        <path d="M30,17 L30,18.465 L28.781,19.277 C28.321,19.584 28.197,20.204 28.504,20.664 C28.809,21.123 29.43,21.246 29.891,20.941 L31,20.202 L32.109,20.941 C32.28,21.054 32.472,21.109 32.663,21.109 C32.986,21.109 33.304,20.953 33.496,20.664 C33.803,20.204 33.679,19.584 33.219,19.277 L32,18.465 L32,17 C32,16.447 31.553,16 31,16 C30.447,16 30,16.447 30,17 L30,17 Z" id="Shape" fill="#000000"></path>
        <path d="M42.193,48.779 L42.727,47.579 C42.951,47.074 42.724,46.483 42.219,46.259 C41.716,46.036 41.124,46.262 40.899,46.767 L40.351,48 L39,48 C38.447,48 38,48.447 38,49 C38,49.553 38.447,50 39,50 L40.586,50 L41.707,51.121 C41.902,51.316 42.158,51.414 42.414,51.414 C42.67,51.414 42.926,51.316 43.121,51.121 C43.512,50.73 43.512,50.098 43.121,49.707 L42.193,48.779 L42.193,48.779 Z" id="Shape" fill="#000000"></path>
        <path d="M19.807,48.779 L18.879,49.707 C18.488,50.098 18.488,50.73 18.879,51.121 C19.074,51.316 19.33,51.414 19.586,51.414 C19.842,51.414 20.098,51.316 20.293,51.121 L21.414,50 L23,50 C23.553,50 24,49.553 24,49 C24,48.447 23.553,48 23,48 L21.649,48 L21.101,46.767 C20.876,46.262 20.286,46.037 19.781,46.259 C19.276,46.484 19.05,47.074 19.273,47.579 L19.807,48.779 L19.807,48.779 Z" id="Shape" fill="#000000"></path>
        <path d="M18.317,42.963 C18.822,42.738 19.048,42.148 18.825,41.643 L17.004,37.544 C16.779,37.039 16.191,36.811 15.684,37.036 C15.179,37.261 14.953,37.851 15.176,38.356 L16.997,42.455 C17.163,42.828 17.528,43.049 17.912,43.049 C18.047,43.049 18.186,43.021 18.317,42.963 L18.317,42.963 Z" id="Shape" fill="#000000"></path>
        <path d="M23.542,22.771 L19.35,25.566 C18.89,25.873 18.766,26.493 19.073,26.953 C19.265,27.242 19.583,27.398 19.906,27.398 C20.096,27.398 20.289,27.343 20.46,27.23 L24.652,24.435 C25.112,24.128 25.236,23.508 24.929,23.048 C24.622,22.588 24.003,22.465 23.542,22.771 L23.542,22.771 Z" id="Shape" fill="#000000"></path>
        <path d="M42.651,25.565 L38.459,22.77 C37.997,22.464 37.377,22.587 37.072,23.047 C36.765,23.507 36.889,24.127 37.349,24.434 L41.541,27.229 C41.712,27.342 41.904,27.397 42.095,27.397 C42.418,27.397 42.736,27.241 42.928,26.952 C43.235,26.492 43.111,25.872 42.651,25.565 L42.651,25.565 Z" id="Shape" fill="#000000"></path>
        <path d="M46.317,37.037 C45.813,36.813 45.221,37.041 44.997,37.545 L43.176,41.644 C42.952,42.149 43.179,42.74 43.684,42.964 C43.816,43.023 43.954,43.05 44.089,43.05 C44.473,43.05 44.838,42.828 45.004,42.456 L46.825,38.357 C47.049,37.853 46.822,37.262 46.317,37.037 L46.317,37.037 Z" id="Shape" fill="#000000"></path>
        <path d="M57.946,23.68 C57.91,23.573 57.857,23.472 57.786,23.382 L46.786,9.382 C46.77,9.362 46.749,9.349 46.732,9.331 C46.722,9.32 46.718,9.305 46.707,9.293 C46.692,9.278 46.673,9.274 46.657,9.26 C46.588,9.199 46.513,9.149 46.43,9.109 C46.402,9.095 46.377,9.078 46.348,9.068 C46.337,9.064 46.328,9.056 46.316,9.052 L31.316,4.052 C31.217,4.019 31.115,4.004 31.012,4.003 C31.008,4.003 31.004,4.001 31,4.001 C30.996,4.001 30.992,4.003 30.988,4.003 C30.885,4.004 30.782,4.019 30.684,4.052 L15.684,9.052 C15.673,9.056 15.663,9.064 15.652,9.068 C15.623,9.079 15.598,9.096 15.57,9.109 C15.487,9.149 15.412,9.199 15.343,9.26 C15.328,9.274 15.308,9.278 15.293,9.293 C15.282,9.304 15.278,9.319 15.268,9.331 C15.251,9.349 15.23,9.363 15.214,9.382 L4.214,23.382 C4.143,23.472 4.09,23.573 4.054,23.68 C4.046,23.703 4.048,23.727 4.042,23.75 C4.021,23.832 4,23.914 4,24 L4,40 C4,40.047 4.014,40.093 4.021,40.139 C4.026,40.174 4.027,40.207 4.036,40.241 C4.064,40.352 4.104,40.459 4.168,40.554 L14.168,55.554 C14.188,55.584 14.22,55.603 14.243,55.631 C14.263,55.655 14.271,55.684 14.293,55.707 C14.313,55.727 14.339,55.733 14.359,55.751 C14.414,55.798 14.472,55.835 14.536,55.869 C14.588,55.897 14.638,55.923 14.693,55.941 C14.716,55.948 14.734,55.965 14.758,55.97 L30.758,59.97 C30.837,59.991 30.919,60 31,60 C31.081,60 31.163,59.99 31.242,59.97 L47.242,55.97 C47.265,55.964 47.284,55.948 47.307,55.941 C47.362,55.923 47.412,55.897 47.464,55.869 C47.528,55.835 47.586,55.798 47.641,55.751 C47.662,55.733 47.688,55.726 47.707,55.707 C47.729,55.685 47.738,55.655 47.757,55.631 C47.78,55.603 47.812,55.584 47.832,55.554 L57.832,40.554 C57.896,40.458 57.936,40.351 57.964,40.241 C57.973,40.207 57.974,40.174 57.979,40.139 C57.986,40.092 58,40.047 58,40 L58,24 C58,23.914 57.979,23.832 57.958,23.749 C57.952,23.726 57.954,23.702 57.946,23.68 L57.946,23.68 Z M46.845,53.431 L46.293,52.879 C45.902,52.488 45.27,52.488 44.879,52.879 C44.488,53.27 44.488,53.902 44.879,54.293 L45.045,54.459 L32,57.719 L32,50 L33.286,50 C33.839,50 34.286,49.553 34.286,49 C34.286,48.447 33.839,48 33.286,48 L32,48 L32,45.5 L47.02,34.235 L55.626,40.259 L46.845,53.431 L46.845,53.431 Z M17.121,52.879 C16.73,52.488 16.098,52.488 15.707,52.879 L15.155,53.431 L6.374,40.259 L14.98,34.235 L30,45.5 L30,48 L28.715,48 C28.162,48 27.715,48.447 27.715,49 C27.715,49.553 28.162,50 28.715,50 L30,50 L30,57.719 L16.956,54.459 L17.122,54.293 C17.512,53.902 17.512,53.27 17.121,52.879 L17.121,52.879 Z M6,26.204 L6.224,26.4 C6.413,26.566 6.648,26.647 6.882,26.647 C7.16,26.647 7.437,26.532 7.635,26.305 C7.998,25.89 7.956,25.258 7.54,24.894 L6.372,23.872 L16.089,11.504 L19.855,15.27 L15.248,29.09 C14.919,28.849 14.467,28.819 14.108,29.059 L13.081,29.744 L11.775,28.601 C11.36,28.238 10.729,28.278 10.364,28.696 C10.001,29.111 10.043,29.743 10.459,30.107 L12.174,31.608 L12.897,33.234 C12.899,33.238 12.902,33.241 12.905,33.246 L6,38.079 L6,26.204 L6,26.204 Z M31,8 C31.553,8 32,7.553 32,7 L32,6.387 L44.149,10.437 L40.586,14 L31,14 L21.414,14 L17.851,10.437 L30,6.387 L30,7 C30,7.553 30.447,8 31,8 L31,8 Z M31,43.75 L16.177,32.633 L21.721,16 L31,16 L40.279,16 L45.823,32.633 L31,43.75 L31,43.75 Z M14.257,31.364 L14.559,31.163 L14.391,31.666 L14.257,31.364 L14.257,31.364 Z M47.609,31.666 L47.441,31.163 L47.743,31.364 L47.609,31.666 L47.609,31.666 Z M49.094,33.245 C49.096,33.241 49.1,33.238 49.102,33.233 L49.825,31.607 L51.54,30.106 C51.956,29.742 51.998,29.11 51.635,28.695 C51.269,28.277 50.638,28.237 50.224,28.6 L48.918,29.743 L47.891,29.058 C47.531,28.819 47.079,28.849 46.751,29.089 L42.145,15.27 L45.911,11.504 L55.628,23.872 L54.46,24.894 C54.044,25.258 54.002,25.89 54.365,26.305 C54.563,26.532 54.84,26.647 55.118,26.647 C55.352,26.647 55.587,26.566 55.776,26.4 L56,26.204 L56,38.08 L49.094,33.245 L49.094,33.245 Z" id="Shape" fill="#000000"></path>
    </g>
</svg>