<?xml version="1.0" encoding="UTF-8" standalone="no"?>
<svg width="64px" height="64px" viewBox="0 0 64 64" version="1.1" xmlns="http://www.w3.org/2000/svg" xmlns:xlink="http://www.w3.org/1999/xlink">
    <!-- Generator: Sketch 3.7.2 (28276) - http://www.bohemiancoding.com/sketch -->
    <title>sha-sphere-cone-cube</title>
    <desc>Created with Sketch.</desc>
    <defs></defs>
    <g id="64px-Line" stroke="none" stroke-width="1" fill="none" fill-rule="evenodd">
        <g id="sha-sphere-cone-cube"></g>
        <path d="M59.948,36.684 C59.947,36.681 59.945,36.679 59.944,36.676 C59.906,36.565 59.845,36.466 59.772,36.375 C59.746,36.343 59.717,36.318 59.688,36.29 C59.633,36.237 59.575,36.191 59.508,36.151 C59.468,36.127 59.429,36.106 59.386,36.088 C59.361,36.078 59.342,36.06 59.316,36.052 L47.316,32.052 C47.111,31.984 46.888,31.984 46.683,32.052 L44.208,32.877 C44.202,32.863 44.204,32.848 44.198,32.834 L32.906,8.579 C32.742,8.226 32.389,8 32,8 C31.611,8 31.258,8.226 31.094,8.578 L20.017,32.368 C19.047,32.136 18.04,32 17,32 C9.832,32 4,37.832 4,45 C4,52.168 9.832,58 17,58 C23.16,58 28.322,53.689 29.655,47.928 C30.429,47.971 31.211,48 32,48 C32.211,48 33.202,47.999 34,47.995 L34,53 C34,53.431 34.275,53.812 34.684,53.948 L46.684,57.948 C46.787,57.982 46.894,58 47,58 C47.106,58 47.214,57.982 47.316,57.948 L59.316,53.948 C59.724,53.812 60,53.43 60,53 L60,37 C60,36.891 59.982,36.785 59.948,36.685 L59.948,36.684 L59.948,36.684 Z M47,34.054 L55.839,37 L47,39.946 L38.161,37 L47,34.054 L47,34.054 Z M17,56 C10.935,56 6,51.065 6,45 C6,38.935 10.935,34 17,34 C23.065,34 28,38.935 28,45 C28,51.065 23.065,56 17,56 L17,56 Z M32,46 C31.312,46 30.629,45.977 29.952,45.942 C29.975,45.63 30,45.318 30,45 C30,39.58 26.663,34.928 21.937,32.98 L32,11.369 L42.308,33.51 L34.683,36.052 C34.657,36.061 34.638,36.078 34.613,36.088 C34.57,36.106 34.531,36.127 34.491,36.151 C34.425,36.191 34.366,36.237 34.311,36.29 C34.282,36.318 34.252,36.343 34.227,36.376 C34.154,36.466 34.094,36.565 34.056,36.676 C34.055,36.679 34.052,36.681 34.051,36.684 L34.051,36.685 C34.018,36.785 33.999,36.891 33.999,37 L33.999,45.995 C33.208,45.998 32.21,46 32,46 L32,46 Z M36,38.387 L46,41.72 L46,55.612 L36,52.278 L36,38.387 L36,38.387 Z M48,55.613 L48,41.72 L58,38.387 L58,52.279 L48,55.613 L48,55.613 Z" id="Shape" fill="#000000"></path>
        <path d="M17,36 C12.037,36 8,40.037 8,45 C8,45.553 8.447,46 9,46 C9.553,46 10,45.553 10,45 C10,41.141 13.141,38 17,38 C17.553,38 18,37.553 18,37 C18,36.447 17.553,36 17,36 L17,36 Z" id="Shape" fill="#000000"></path>
    </g>
</svg>