<?xml version="1.0" encoding="UTF-8" standalone="no"?>
<svg width="64px" height="64px" viewBox="0 0 64 64" version="1.1" xmlns="http://www.w3.org/2000/svg" xmlns:xlink="http://www.w3.org/1999/xlink">
    <!-- Generator: Sketch 3.7.2 (28276) - http://www.bohemiancoding.com/sketch -->
    <title>sha-cube</title>
    <desc>Created with Sketch.</desc>
    <defs></defs>
    <g id="64px-Line" stroke="none" stroke-width="1" fill="none" fill-rule="evenodd">
        <g id="sha-cube"></g>
        <path d="M57.988,16.92 C57.98,16.819 57.956,16.723 57.92,16.631 C57.914,16.615 57.916,16.597 57.908,16.581 C57.901,16.565 57.887,16.556 57.879,16.541 C57.83,16.447 57.769,16.36 57.692,16.286 C57.683,16.277 57.676,16.265 57.667,16.257 C57.594,16.191 57.511,16.135 57.419,16.092 L31.419,4.092 C31.153,3.97 30.847,3.97 30.581,4.092 L4.581,16.092 C4.489,16.134 4.407,16.191 4.333,16.256 C4.323,16.265 4.317,16.277 4.307,16.286 C4.23,16.36 4.17,16.447 4.12,16.541 C4.112,16.556 4.098,16.565 4.091,16.581 C4.084,16.597 4.086,16.615 4.079,16.631 C4.042,16.723 4.019,16.819 4.011,16.92 C4.009,16.941 4.002,16.961 4.002,16.982 C4.002,16.988 3.999,16.994 3.999,17 L3.999,47 C3.999,47.39 4.226,47.744 4.58,47.908 L30.58,59.908 C30.585,59.91 30.59,59.909 30.595,59.911 C30.719,59.966 30.855,60 30.999,60 C31.143,60 31.279,59.967 31.403,59.911 C31.408,59.909 31.413,59.91 31.418,59.908 L57.418,47.908 C57.773,47.744 58,47.39 58,47 L58,17 C58,16.994 57.998,16.988 57.997,16.982 C57.997,16.961 57.99,16.941 57.988,16.92 L57.988,16.92 Z M31,6.102 L54.614,17 L31,27.898 L7.386,17 L31,6.102 L31,6.102 Z M6,18.563 L30,29.64 L30,57.437 L6,46.36 L6,18.563 L6,18.563 Z M32,57.437 L32,29.64 L56,18.563 L56,46.36 L32,57.437 L32,57.437 Z" id="Shape" fill="#000000"></path>
    </g>
</svg>