<?xml version="1.0" encoding="UTF-8" standalone="no"?>
<svg width="64px" height="64px" viewBox="0 0 64 64" version="1.1" xmlns="http://www.w3.org/2000/svg" xmlns:xlink="http://www.w3.org/1999/xlink">
    <!-- Generator: Sketch 3.7.2 (28276) - http://www.bohemiancoding.com/sketch -->
    <title>sha-pyramid-2</title>
    <desc>Created with Sketch.</desc>
    <defs></defs>
    <g id="64px-Line" stroke="none" stroke-width="1" fill="none" fill-rule="evenodd">
        <g id="sha-pyramid-2"></g>
        <path d="M57.981,44.887 C57.975,44.834 57.966,44.784 57.951,44.731 C57.94,44.693 57.933,44.656 57.918,44.619 C57.913,44.606 57.915,44.593 57.909,44.58 C57.897,44.553 57.873,44.536 57.858,44.511 C57.844,44.486 57.842,44.459 57.826,44.435 L31.826,6.435 C31.823,6.431 31.818,6.429 31.816,6.425 C31.746,6.326 31.659,6.242 31.557,6.173 C31.529,6.154 31.498,6.145 31.468,6.129 C31.412,6.099 31.359,6.064 31.297,6.045 C31.276,6.038 31.254,6.041 31.232,6.036 C31.19,6.026 31.148,6.023 31.105,6.018 C31.027,6.01 30.951,6.009 30.874,6.019 C30.832,6.024 30.793,6.03 30.752,6.041 C30.663,6.064 30.579,6.101 30.499,6.148 C30.479,6.16 30.456,6.161 30.437,6.174 C30.431,6.178 30.429,6.184 30.423,6.189 C30.329,6.256 30.244,6.336 30.176,6.435 L30.16,6.458 L30.16,6.458 L4.176,44.434 C4.16,44.458 4.158,44.486 4.144,44.51 C4.129,44.535 4.106,44.552 4.093,44.579 C4.087,44.592 4.089,44.605 4.084,44.618 C4.069,44.655 4.061,44.692 4.051,44.73 C4.036,44.782 4.027,44.832 4.021,44.886 C4.017,44.924 4.007,44.961 4.007,44.999 C4.007,45.035 4.015,45.069 4.019,45.105 C4.025,45.159 4.035,45.209 4.05,45.262 C4.061,45.302 4.068,45.341 4.084,45.379 C4.089,45.392 4.087,45.405 4.093,45.418 C4.105,45.445 4.125,45.465 4.14,45.49 C4.158,45.521 4.177,45.55 4.199,45.58 C4.22,45.609 4.236,45.642 4.26,45.669 C4.266,45.676 4.274,45.68 4.281,45.687 C4.319,45.727 4.363,45.76 4.406,45.793 C4.418,45.802 4.424,45.816 4.437,45.825 C4.441,45.828 4.446,45.828 4.45,45.831 C4.48,45.851 4.512,45.864 4.544,45.881 C4.558,45.889 4.567,45.902 4.582,45.909 L30.582,57.909 C30.587,57.911 30.592,57.91 30.597,57.912 C30.721,57.967 30.857,58.001 31.001,58.001 C31.145,58.001 31.281,57.968 31.405,57.912 C31.41,57.91 31.415,57.911 31.42,57.909 L57.42,45.909 C57.435,45.902 57.444,45.889 57.458,45.881 C57.489,45.865 57.521,45.852 57.55,45.833 C57.555,45.83 57.561,45.829 57.566,45.826 C57.579,45.817 57.585,45.803 57.597,45.794 C57.641,45.761 57.684,45.728 57.722,45.688 C57.728,45.681 57.737,45.677 57.743,45.67 C57.767,45.644 57.783,45.61 57.804,45.581 C57.825,45.551 57.845,45.523 57.863,45.491 C57.877,45.466 57.897,45.446 57.91,45.419 C57.916,45.406 57.914,45.393 57.919,45.38 C57.935,45.342 57.942,45.303 57.953,45.263 C57.967,45.211 57.978,45.16 57.984,45.106 C57.988,45.07 57.996,45.036 57.996,45 C57.995,44.962 57.985,44.926 57.981,44.887 L57.981,44.887 Z M32,34.563 L32.397,34.746 C32.533,34.808 32.675,34.838 32.815,34.838 C33.193,34.838 33.555,34.623 33.724,34.257 C33.955,33.756 33.736,33.161 33.235,32.93 L32,32.36 L32,10.232 L54.651,43.337 C54.496,43.436 54.359,43.564 54.276,43.743 C54.066,44.198 54.241,44.717 54.648,44.984 L32,55.437 L32,34.563 L32,34.563 Z M30,32.36 L28.765,32.93 C28.264,33.161 28.045,33.756 28.276,34.257 C28.508,34.759 29.101,34.978 29.603,34.746 L30,34.563 L30,55.437 L7.353,44.984 C7.76,44.717 7.934,44.198 7.725,43.743 C7.642,43.564 7.505,43.436 7.35,43.337 L30,10.232 L30,32.36 L30,32.36 Z" id="Shape" fill="#000000"></path>
        <path d="M20.582,38.809 C20.722,38.809 20.865,38.78 21,38.717 L24.441,37.129 C24.942,36.898 25.161,36.303 24.93,35.802 C24.699,35.3 24.105,35.082 23.603,35.313 L20.162,36.901 C19.661,37.132 19.442,37.727 19.673,38.228 C19.842,38.594 20.204,38.809 20.582,38.809 L20.582,38.809 Z" id="Shape" fill="#000000"></path>
        <path d="M11.979,42.779 C12.119,42.779 12.262,42.75 12.397,42.687 L15.838,41.099 C16.339,40.868 16.558,40.273 16.327,39.772 C16.096,39.269 15.502,39.051 15,39.283 L11.559,40.871 C11.058,41.102 10.839,41.697 11.07,42.198 C11.239,42.564 11.601,42.779 11.979,42.779 L11.979,42.779 Z" id="Shape" fill="#000000"></path>
        <path d="M41.838,36.9 L38.397,35.312 C37.895,35.082 37.301,35.299 37.07,35.801 C36.839,36.302 37.058,36.897 37.559,37.128 L41,38.716 C41.136,38.778 41.278,38.808 41.418,38.808 C41.796,38.808 42.158,38.593 42.327,38.227 C42.559,37.727 42.34,37.132 41.838,36.9 L41.838,36.9 Z" id="Shape" fill="#000000"></path>
        <path d="M50.441,40.871 L47,39.283 C46.498,39.052 45.904,39.269 45.673,39.772 C45.442,40.273 45.661,40.868 46.162,41.099 L49.603,42.687 C49.739,42.749 49.881,42.779 50.021,42.779 C50.399,42.779 50.761,42.564 50.93,42.198 C51.162,41.697 50.943,41.103 50.441,40.871 L50.441,40.871 Z" id="Shape" fill="#000000"></path>
    </g>
</svg>