<?xml version="1.0" encoding="UTF-8" standalone="no"?>
<svg width="64px" height="64px" viewBox="0 0 64 64" version="1.1" xmlns="http://www.w3.org/2000/svg" xmlns:xlink="http://www.w3.org/1999/xlink">
    <!-- Generator: Sketch 3.7.2 (28276) - http://www.bohemiancoding.com/sketch -->
    <title>sha-rect-rounded-cylinder</title>
    <desc>Created with Sketch.</desc>
    <defs></defs>
    <g id="64px-Line" stroke="none" stroke-width="1" fill="none" fill-rule="evenodd">
        <g id="sha-rect-rounded-cylinder"></g>
        <path d="M55.62,14.087 L35.763,4.923 C33.093,3.69 28.909,3.689 26.237,4.923 L26.237,4.923 L6.379,14.088 C4.309,15.044 4,16.323 4,17.001 L4,47.001 C4,47.679 4.309,48.958 6.38,49.914 L26.237,59.079 C27.572,59.695 29.286,60.004 31,60.004 C32.714,60.004 34.428,59.695 35.763,59.079 L55.621,49.914 C57.691,48.958 58,47.679 58,47.001 L58,17.001 C58,16.323 57.691,15.043 55.62,14.087 L55.62,14.087 Z M7.218,15.903 L27.075,6.738 L27.075,6.738 C28.138,6.247 29.569,6.002 30.999,6.002 C32.43,6.002 33.86,6.248 34.924,6.739 L54.781,15.903 C55.623,16.292 55.999,16.734 55.999,17 C55.999,17.266 55.623,17.708 54.781,18.097 L34.924,27.262 C32.796,28.244 29.201,28.244 27.074,27.262 L7.217,18.097 C6.376,17.708 6,17.266 6,17 C6,16.734 6.376,16.292 7.218,15.903 L7.218,15.903 Z M54.782,48.097 L34.925,57.262 C32.797,58.244 29.202,58.244 27.075,57.262 L7.218,48.097 C6.376,47.708 6,47.266 6,47 L6,19.71 C6.125,19.778 6.239,19.848 6.38,19.913 L26.237,29.079 C27.572,29.695 29.285,30.003 30.999,30.003 C32.712,30.003 34.427,29.695 35.762,29.079 L55.62,19.914 C55.761,19.849 55.874,19.779 55.999,19.711 L55.999,47 C56,47.266 55.624,47.708 54.782,48.097 L54.782,48.097 Z" id="Shape" fill="#000000"></path>
        <path d="M31,34 C30.448,34 30,34.447 30,35 L30,53 C30,53.553 30.448,54 31,54 C31.552,54 32,53.553 32,53 L32,35 C32,34.447 31.552,34 31,34 L31,34 Z" id="Shape" fill="#000000"></path>
    </g>
</svg>