<?xml version="1.0" encoding="UTF-8" standalone="no"?>
<svg width="64px" height="64px" viewBox="0 0 64 64" version="1.1" xmlns="http://www.w3.org/2000/svg" xmlns:xlink="http://www.w3.org/1999/xlink">
    <!-- Generator: Sketch 3.7.2 (28276) - http://www.bohemiancoding.com/sketch -->
    <title>sha-spheres</title>
    <desc>Created with Sketch.</desc>
    <defs></defs>
    <g id="64px-Line" stroke="none" stroke-width="1" fill="none" fill-rule="evenodd">
        <g id="sha-spheres"></g>
        <path d="M48,26 C47.258,26 46.534,26.075 45.823,26.187 C45.936,25.465 46,24.735 46,24 C46,16.28 39.72,10 32,10 C24.28,10 18,16.28 18,24 C18,24.735 18.064,25.466 18.177,26.187 C17.466,26.075 16.742,26 16,26 C8.28,26 2,32.28 2,40 C2,47.72 8.28,54 16,54 C23.72,54 30,47.72 30,40 C30,39.258 29.925,38.534 29.813,37.823 C30.534,37.936 31.265,38 32,38 C32.735,38 33.465,37.936 34.187,37.823 C34.075,38.534 34,39.258 34,40 C34,47.72 40.28,54 48,54 C55.72,54 62,47.72 62,40 C62,32.28 55.72,26 48,26 L48,26 Z M16,52 C9.383,52 4,46.617 4,40 C4,33.383 9.383,28 16,28 C22.617,28 28,33.383 28,40 C28,46.617 22.617,52 16,52 L16,52 Z M29.308,35.673 C27.925,31.43 24.57,28.076 20.328,26.692 C20.126,25.812 20,24.913 20,24 C20,17.383 25.383,12 32,12 C38.617,12 44,17.383 44,24 C44,24.912 43.874,25.811 43.673,26.692 C39.431,28.075 36.076,31.43 34.693,35.672 C32.928,36.076 31.07,36.076 29.308,35.673 L29.308,35.673 Z M48,52 C41.383,52 36,46.617 36,40 C36,33.383 41.383,28 48,28 C54.617,28 60,33.383 60,40 C60,46.617 54.617,52 48,52 L48,52 Z" id="Shape" fill="#000000"></path>
        <path d="M16,30 C10.486,30 6,34.486 6,40 C6,40.553 6.448,41 7,41 C7.552,41 8,40.553 8,40 C8,35.589 11.589,32 16,32 C16.552,32 17,31.553 17,31 C17,30.447 16.552,30 16,30 L16,30 Z" id="Shape" fill="#000000"></path>
        <path d="M32,14 C26.486,14 22,18.486 22,24 C22,24.553 22.448,25 23,25 C23.552,25 24,24.553 24,24 C24,19.589 27.589,16 32,16 C32.552,16 33,15.553 33,15 C33,14.447 32.552,14 32,14 L32,14 Z" id="Shape" fill="#000000"></path>
        <path d="M48,30 C42.486,30 38,34.486 38,40 C38,40.553 38.448,41 39,41 C39.552,41 40,40.553 40,40 C40,35.589 43.589,32 48,32 C48.552,32 49,31.553 49,31 C49,30.447 48.552,30 48,30 L48,30 Z" id="Shape" fill="#000000"></path>
    </g>
</svg>