<?xml version="1.0" encoding="UTF-8" standalone="no"?>
<svg width="64px" height="64px" viewBox="0 0 64 64" version="1.1" xmlns="http://www.w3.org/2000/svg" xmlns:xlink="http://www.w3.org/1999/xlink">
    <!-- Generator: Sketch 3.7.2 (28276) - http://www.bohemiancoding.com/sketch -->
    <title>sha-star</title>
    <desc>Created with Sketch.</desc>
    <defs></defs>
    <g id="64px-Line" stroke="none" stroke-width="1" fill="none" fill-rule="evenodd">
        <g id="sha-star"></g>
        <path d="M59.104,26.005 L40.678,24.066 L32.913,6.594 C32.753,6.233 32.396,6 32,6 C31.604,6 31.247,6.233 31.086,6.594 L23.321,24.066 L4.895,26.005 C4.504,26.046 4.175,26.311 4.051,26.683 C3.927,27.055 4.031,27.465 4.319,27.732 L17.905,40.347 L14.021,58.793 C13.939,59.181 14.094,59.58 14.416,59.811 C14.738,60.042 15.165,60.061 15.507,59.861 L32,50.16 L48.493,59.862 C48.65,59.954 48.825,60 49,60 C49.205,60 49.41,59.937 49.584,59.812 C49.905,59.581 50.061,59.182 49.979,58.794 L46.095,40.348 L59.681,27.733 C59.968,27.466 60.073,27.056 59.949,26.684 C59.825,26.312 59.495,26.046 59.104,26.005 L59.104,26.005 Z M44.319,39.267 C44.062,39.506 43.949,39.862 44.021,40.206 L47.554,56.99 L32.506,48.138 C32.351,48.046 32.175,48 32,48 C31.825,48 31.649,48.046 31.493,48.138 L16.445,56.99 L19.978,40.206 C20.05,39.862 19.937,39.506 19.68,39.267 L7.292,27.764 L24.104,25.994 C24.459,25.956 24.768,25.732 24.914,25.406 L32,9.462 L39.086,25.406 C39.232,25.733 39.54,25.957 39.896,25.994 L56.708,27.764 L44.319,39.267 L44.319,39.267 Z" id="Shape" fill="#000000"></path>
    </g>
</svg>