<?xml version="1.0" encoding="UTF-8" standalone="no"?>
<svg width="64px" height="64px" viewBox="0 0 64 64" version="1.1" xmlns="http://www.w3.org/2000/svg" xmlns:xlink="http://www.w3.org/1999/xlink">
    <!-- Generator: Sketch 3.7.2 (28276) - http://www.bohemiancoding.com/sketch -->
    <title>sha-rect-rounded</title>
    <desc>Created with Sketch.</desc>
    <defs></defs>
    <g id="64px-Line" stroke="none" stroke-width="1" fill="none" fill-rule="evenodd">
        <g id="sha-rect-rounded"></g>
        <path d="M16,56 L48,56 C52.411,56 56,52.411 56,48 L56,16 C56,11.589 52.411,8 48,8 L16,8 C11.589,8 8,11.589 8,16 L8,48 C8,52.411 11.589,56 16,56 L16,56 Z M10,16 C10,12.691 12.691,10 16,10 L48,10 C51.309,10 54,12.691 54,16 L54,48 C54,51.309 51.309,54 48,54 L16,54 C12.691,54 10,51.309 10,48 L10,16 L10,16 Z" id="Shape" fill="#000000"></path>
    </g>
</svg>