<?xml version="1.0" encoding="UTF-8" standalone="no"?>
<svg width="64px" height="64px" viewBox="0 0 64 64" version="1.1" xmlns="http://www.w3.org/2000/svg" xmlns:xlink="http://www.w3.org/1999/xlink">
    <!-- Generator: Sketch 3.7.2 (28276) - http://www.bohemiancoding.com/sketch -->
    <title>sha-star-cylinder</title>
    <desc>Created with Sketch.</desc>
    <defs></defs>
    <g id="64px-Line" stroke="none" stroke-width="1" fill="none" fill-rule="evenodd">
        <g id="sha-star-cylinder"></g>
        <path d="M61.991,16.866 C61.983,16.809 61.958,16.76 61.941,16.707 C61.928,16.664 61.92,16.621 61.901,16.581 C61.862,16.496 61.807,16.422 61.747,16.353 C61.729,16.332 61.718,16.307 61.698,16.287 C61.613,16.203 61.512,16.136 61.401,16.087 C61.372,16.074 61.339,16.072 61.309,16.062 C61.237,16.038 61.167,16.01 61.089,16.003 L39.801,14.092 L31.771,4.363 C31.581,4.133 31.298,4 31,4 C30.702,4 30.419,4.133 30.229,4.363 L22.198,14.092 L0.911,16.003 C0.833,16.01 0.763,16.038 0.691,16.062 C0.661,16.072 0.628,16.074 0.599,16.087 C0.488,16.136 0.388,16.203 0.302,16.287 C0.282,16.306 0.271,16.332 0.253,16.353 C0.193,16.423 0.139,16.496 0.099,16.581 C0.08,16.621 0.073,16.665 0.059,16.708 C0.042,16.761 0.017,16.81 0.009,16.866 C0.006,16.892 0.013,16.916 0.012,16.941 C0.011,16.962 0,16.979 0,17 L0,43 C0,43.403 0.243,43.768 0.615,43.923 L12,48.667 L12,61 C12,61.321 12.154,61.623 12.416,61.812 C12.677,62 13.012,62.051 13.317,61.949 L31,56.054 L48.684,61.949 C48.788,61.984 48.894,62.001 49,62.001 C49.207,62.001 49.412,61.937 49.584,61.813 C49.845,61.625 50,61.323 50,61.001 L50,48.668 L61.385,43.924 C61.758,43.769 62,43.404 62,43.001 L62,17.001 C62,16.98 61.989,16.963 61.988,16.942 C61.987,16.916 61.994,16.891 61.991,16.866 L61.991,16.866 Z M22.792,16.047 C23.058,16.023 23.304,15.894 23.474,15.688 L31,6.571 L38.525,15.688 C38.695,15.894 38.941,16.023 39.207,16.047 L56.542,17.603 L44.649,22.063 C44.145,22.252 43.881,22.806 44.051,23.316 L47.419,33.419 L31.316,28.051 C31.213,28.017 31.107,28 31,28 C30.893,28 30.787,28.017 30.684,28.051 L14.581,33.419 L17.949,23.316 C18.119,22.806 17.855,22.252 17.351,22.063 L5.458,17.603 L22.792,16.047 L22.792,16.047 Z M2,42.333 L2,18.443 L15.747,23.598 L12.052,34.683 C12.019,34.781 12.006,34.882 12.004,34.983 C12.004,34.989 12.001,34.994 12.001,34.999 L12.001,46.499 L2,42.333 L2,42.333 Z M14,47.995 L14,47.995 L14,35.72 L30,30.387 L30,54.279 L14,59.612 L14,47.995 L14,47.995 Z M32,54.28 L32,30.388 L48,35.721 L48,47.995 C48,47.995 48,47.995 48,47.996 L48,59.613 L32,54.28 L32,54.28 Z M50,46.5 L50,35 C50,34.994 49.997,34.989 49.997,34.984 C49.996,34.883 49.982,34.782 49.949,34.684 L46.254,23.599 L60,18.443 L60,42.333 L50,46.5 L50,46.5 Z" id="Shape" fill="#000000"></path>
    </g>
</svg>