<?xml version="1.0" encoding="UTF-8" standalone="no"?>
<svg width="64px" height="64px" viewBox="0 0 64 64" version="1.1" xmlns="http://www.w3.org/2000/svg" xmlns:xlink="http://www.w3.org/1999/xlink">
    <!-- Generator: Sketch 3.7.2 (28276) - http://www.bohemiancoding.com/sketch -->
    <title>sho-till-old</title>
    <desc>Created with Sketch.</desc>
    <defs></defs>
    <g id="64px-Line" stroke="none" stroke-width="1" fill="none" fill-rule="evenodd">
        <g id="sho-till-old"></g>
        <path d="M56,60 C58.206,60 60,58.206 60,56 L60,48 C60,45.794 58.206,44 56,44 L56,29 C56,24.209 55.299,18.077 50,16.433 L50,10 C50,7.794 48.206,6 46,6 L16,6 C13.794,6 12,7.794 12,10 L12,16.433 C6.701,18.077 6,24.209 6,29 L6,44 C3.794,44 2,45.794 2,48 L2,56 C2,58.206 3.794,60 6,60 L56,60 L56,60 Z M14,10 C14,8.897 14.897,8 16,8 L46,8 C47.103,8 48,8.897 48,10 L48,16.059 C47.674,16.031 47.353,16 47,16 L28,16 L28,12 C28,10.897 27.103,10 26,10 L20,10 C18.897,10 18,10.897 18,12 L18,16 L15,16 C14.647,16 14.326,16.032 14,16.059 L14,10 L14,10 Z M20,16 L20,12 L26,12 L26,16 L20,16 L20,16 Z M8,29 C8,21.187 10.028,18 15,18 L47,18 C51.972,18 54,21.187 54,29 L54,44 L8,44 L8,29 L8,29 Z M4,56 L4,48 C4,46.897 4.897,46 6,46 L56,46 C57.103,46 58,46.897 58,48 L58,56 C58,57.103 57.103,58 56,58 L6,58 C4.897,58 4,57.103 4,56 L4,56 Z" id="Shape" fill="#000000"></path>
        <path d="M17,22 C14.149,22 12,23.29 12,25 C12,26.504 13.662,27.68 16,27.943 L16,29 C16,29.552 16.447,30 17,30 C17.553,30 18,29.552 18,29 L18,27.943 C20.338,27.68 22,26.503 22,25 C22,23.29 19.851,22 17,22 L17,22 Z M17,26 C15.064,26 14,25.249 14,25 C14,24.751 15.064,24 17,24 C18.936,24 20,24.751 20,25 C20,25.249 18.936,26 17,26 L17,26 Z" id="Shape" fill="#000000"></path>
        <path d="M31,22 C28.149,22 26,23.29 26,25 C26,26.504 27.662,27.68 30,27.943 L30,29 C30,29.552 30.447,30 31,30 C31.553,30 32,29.552 32,29 L32,27.943 C34.338,27.68 36,26.503 36,25 C36,23.29 33.851,22 31,22 L31,22 Z M31,26 C29.064,26 28,25.249 28,25 C28,24.751 29.064,24 31,24 C32.936,24 34,24.751 34,25 C34,25.249 32.936,26 31,26 L31,26 Z" id="Shape" fill="#000000"></path>
        <path d="M45,22 C42.149,22 40,23.29 40,25 C40,26.504 41.662,27.68 44,27.943 L44,29 C44,29.552 44.447,30 45,30 C45.553,30 46,29.552 46,29 L46,27.943 C48.338,27.68 50,26.503 50,25 C50,23.29 47.851,22 45,22 L45,22 Z M45,26 C43.064,26 42,25.249 42,25 C42,24.751 43.064,24 45,24 C46.936,24 48,24.751 48,25 C48,25.249 46.936,26 45,26 L45,26 Z" id="Shape" fill="#000000"></path>
        <path d="M45,32 C42.149,32 40,33.29 40,35 C40,36.504 41.662,37.68 44,37.943 L44,39 C44,39.552 44.447,40 45,40 C45.553,40 46,39.552 46,39 L46,37.943 C48.338,37.68 50,36.503 50,35 C50,33.29 47.851,32 45,32 L45,32 Z M45,36 C43.064,36 42,35.249 42,35 C42,34.751 43.064,34 45,34 C46.936,34 48,34.751 48,35 C48,35.249 46.936,36 45,36 L45,36 Z" id="Shape" fill="#000000"></path>
        <path d="M31,32 C28.149,32 26,33.29 26,35 C26,36.504 27.662,37.68 30,37.943 L30,39 C30,39.552 30.447,40 31,40 C31.553,40 32,39.552 32,39 L32,37.943 C34.338,37.68 36,36.503 36,35 C36,33.29 33.851,32 31,32 L31,32 Z M31,36 C29.064,36 28,35.249 28,35 C28,34.751 29.064,34 31,34 C32.936,34 34,34.751 34,35 C34,35.249 32.936,36 31,36 L31,36 Z" id="Shape" fill="#000000"></path>
        <path d="M17,32 C14.149,32 12,33.29 12,35 C12,36.504 13.662,37.68 16,37.943 L16,39 C16,39.552 16.447,40 17,40 C17.553,40 18,39.552 18,39 L18,37.943 C20.338,37.68 22,36.503 22,35 C22,33.29 19.851,32 17,32 L17,32 Z M17,36 C15.064,36 14,35.249 14,35 C14,34.751 15.064,34 17,34 C18.936,34 20,34.751 20,35 C20,35.249 18.936,36 17,36 L17,36 Z" id="Shape" fill="#000000"></path>
        <path d="M29,52.001 L33,52.001 C33.553,52.001 34,51.553 34,51.001 C34,50.449 33.553,50.001 33,50.001 L29,50.001 C28.447,50.001 28,50.449 28,51.001 C28,51.553 28.447,52.001 29,52.001 L29,52.001 Z" id="Shape" fill="#000000"></path>
    </g>
</svg>