<?xml version="1.0" encoding="UTF-8" standalone="no"?>
<svg width="64px" height="64px" viewBox="0 0 64 64" version="1.1" xmlns="http://www.w3.org/2000/svg" xmlns:xlink="http://www.w3.org/1999/xlink">
    <!-- Generator: Sketch 3.7.2 (28276) - http://www.bohemiancoding.com/sketch -->
    <title>sho-purse</title>
    <desc>Created with Sketch.</desc>
    <defs></defs>
    <g id="64px-Line" stroke="none" stroke-width="1" fill="none" fill-rule="evenodd">
        <g id="sho-purse"></g>
        <path d="M26.054,15.833 C26.468,19.301 29.422,22 33,22 L51,22 C51.552,22 52,21.552 52,21 C52,20.448 51.552,20 51,20 L33,20 C30.514,20 28.462,18.171 28.08,15.791 C29.2,15.356 30,14.273 30,13 C30,11.346 28.654,10 27,10 C25.346,10 24,11.346 24,13 C24,14.322 24.865,15.434 26.054,15.833 L26.054,15.833 Z M27,12 C27.551,12 28,12.449 28,13 C28,13.551 27.551,14 27,14 C26.449,14 26,13.551 26,13 C26,12.449 26.449,12 27,12 L27,12 Z" id="Shape" fill="#000000"></path>
        <path d="M33.933,15.795 C33.886,16.092 33.816,16.384 33.715,16.669 C33.531,17.19 33.804,17.761 34.325,17.944 C34.435,17.983 34.547,18.002 34.658,18.002 C35.07,18.002 35.456,17.745 35.601,17.334 C35.772,16.849 35.868,16.346 35.929,15.838 C37.127,15.444 38,14.328 38,13 C38,11.346 36.654,10 35,10 C33.346,10 32,11.346 32,13 C32,14.277 32.806,15.363 33.933,15.795 L33.933,15.795 Z M35,12 C35.551,12 36,12.449 36,13 C36,13.551 35.551,14 35,14 C34.449,14 34,13.551 34,13 C34,12.449 34.449,12 35,12 L35,12 Z" id="Shape" fill="#000000"></path>
        <path d="M11,22 L25,22 C25.552,22 26,21.552 26,21 C26,20.448 25.552,20 25,20 L11,20 C10.448,20 10,20.448 10,21 C10,21.552 10.448,22 11,22 L11,22 Z" id="Shape" fill="#000000"></path>
        <path d="M11,54 L51,54 C53.421,54 58,52.537 58,47 C58,34.103 53.607,24 48,24 L14,24 C8.393,24 4,34.103 4,47 C4,52.537 8.579,54 11,54 L11,54 Z M14,26 L48,26 C52.714,26 56,37.067 56,47 C56,51.82 51.516,51.996 50.998,52 L11,52 C10.796,52 6,51.943 6,47 C6,37.067 9.286,26 14,26 L14,26 Z" id="Shape" fill="#000000"></path>
    </g>
</svg>