<?xml version="1.0" encoding="UTF-8" standalone="no"?>
<svg width="64px" height="64px" viewBox="0 0 64 64" version="1.1" xmlns="http://www.w3.org/2000/svg" xmlns:xlink="http://www.w3.org/1999/xlink">
    <!-- Generator: Sketch 3.7.2 (28276) - http://www.bohemiancoding.com/sketch -->
    <title>sho-bag-2</title>
    <desc>Created with Sketch.</desc>
    <defs></defs>
    <g id="64px-Line" stroke="none" stroke-width="1" fill="none" fill-rule="evenodd">
        <g id="sho-bag-2"></g>
        <path d="M7,60 L57,60 C57.283,60 57.554,59.88 57.743,59.669 C57.932,59.459 58.024,59.177 57.994,58.896 L53.994,20.896 C53.941,20.386 53.512,20 53,20 L44,20 L44,16 C44,9.383 38.617,4 32,4 C25.383,4 20,9.383 20,16 L20,20 L11,20 C10.488,20 10.059,20.386 10.005,20.896 L6.005,58.896 C5.975,59.178 6.067,59.459 6.256,59.669 C6.446,59.88 6.717,60 7,60 L7,60 Z M22,16 C22,10.486 26.486,6 32,6 C37.514,6 42,10.486 42,16 L42,20 L22,20 L22,16 L22,16 Z M11.9,22 L20,22 L20,26.184 C18.839,26.598 18,27.698 18,29 C18,30.654 19.346,32 21,32 C22.654,32 24,30.654 24,29 C24,27.698 23.161,26.598 22,26.184 L22,22 L42,22 L42,26.184 C40.839,26.598 40,27.698 40,29 C40,30.654 41.346,32 43,32 C44.654,32 46,30.654 46,29 C46,27.698 45.161,26.598 44,26.184 L44,22 L52.1,22 L55.89,58 L8.112,58 L11.9,22 L11.9,22 Z M21,28 C21.551,28 22,28.449 22,29 C22,29.551 21.551,30 21,30 C20.449,30 20,29.551 20,29 C20,28.449 20.449,28 21,28 L21,28 Z M43,28 C43.551,28 44,28.449 44,29 C44,29.551 43.551,30 43,30 C42.449,30 42,29.551 42,29 C42,28.449 42.449,28 43,28 L43,28 Z" id="Shape" fill="#000000"></path>
    </g>
</svg>