<?xml version="1.0" encoding="UTF-8" standalone="no"?>
<svg width="64px" height="64px" viewBox="0 0 64 64" version="1.1" xmlns="http://www.w3.org/2000/svg" xmlns:xlink="http://www.w3.org/1999/xlink">
    <!-- Generator: Sketch 3.7.2 (28276) - http://www.bohemiancoding.com/sketch -->
    <title>sho-gift-tall</title>
    <desc>Created with Sketch.</desc>
    <defs></defs>
    <g id="64px-Line" stroke="none" stroke-width="1" fill="none" fill-rule="evenodd">
        <g id="sho-gift-tall"></g>
        <path d="M41.31,10.238 C42.362,8.683 42.204,6.548 40.828,5.171 C39.269,3.611 36.732,3.611 35.155,5.189 L31,9.55 L26.828,5.171 C25.268,3.613 22.732,3.612 21.171,5.171 C19.796,6.548 19.638,8.684 20.69,10.238 C19.129,10.783 18,12.255 18,14 L18,21 C18,21.553 18.448,22 19,22 L20,22 L20,56 C20,58.206 21.794,60 24,60 L38,60 C40.206,60 42,58.206 42,56 L42,22 L43,22 C43.552,22 44,21.553 44,21 L44,14 C44,12.255 42.87,10.784 41.31,10.238 L41.31,10.238 Z M36.586,6.585 C37.366,5.806 38.635,5.806 39.414,6.585 C40.194,7.365 40.194,8.635 39.414,9.414 C39.036,9.792 38.534,10 38,10 L33.333,10 L36.586,6.585 L36.586,6.585 Z M22.586,6.585 C23.366,5.807 24.634,5.806 25.397,6.567 L28.667,10 L24,10 C23.466,10 22.964,9.792 22.586,9.414 C21.806,8.635 21.807,7.365 22.586,6.585 L22.586,6.585 Z M20,14 C20,12.897 20.897,12 22,12 L30,12 L30,20 L20,20 L20,14 L20,14 Z M22,56 L22,22 L30,22 L30,58 L24,58 C22.897,58 22,57.103 22,56 L22,56 Z M40,56 C40,57.103 39.103,58 38,58 L32,58 L32,22 L40,22 L40,56 L40,56 Z M42,20 L32,20 L32,12 L40,12 C41.103,12 42,12.897 42,14 L42,20 L42,20 Z" id="Shape" fill="#000000"></path>
    </g>
</svg>