<?xml version="1.0" encoding="UTF-8" standalone="no"?>
<svg width="64px" height="64px" viewBox="0 0 64 64" version="1.1" xmlns="http://www.w3.org/2000/svg" xmlns:xlink="http://www.w3.org/1999/xlink">
    <!-- Generator: Sketch 3.7.2 (28276) - http://www.bohemiancoding.com/sketch -->
    <title>sho-market-stall</title>
    <desc>Created with Sketch.</desc>
    <defs></defs>
    <g id="64px-Line" stroke="none" stroke-width="1" fill="none" fill-rule="evenodd">
        <g id="sho-market-stall"></g>
        <path d="M57,4 L7,4 C6.448,4 6,4.447 6,5 L6,9 L6,24 C6,25.771 6.776,27.36 8,28.46 L8,59 C8,59.553 8.448,60 9,60 C9.552,60 10,59.553 10,59 L10,54 L54,54 L54,59 C54,59.553 54.448,60 55,60 C55.552,60 56,59.553 56,59 L56,28.46 C57.224,27.361 58,25.772 58,24 L58,9 L58,5 C58,4.447 57.552,4 57,4 L57,4 Z M56,6 L56,8 L8,8 L8,6 L56,6 L56,6 Z M46,23 L46,24 C46,26.206 44.206,28 42,28 C39.794,28 38,26.206 38,24 L38,23 L38,10 L46,10 L46,23 L46,23 Z M8,24 L8,10 L16,10 L16,23 L16,24 C16,26.206 14.206,28 12,28 C9.794,28 8,26.206 8,24 L8,24 Z M18,23 L18,10 L26,10 L26,23 L26,24 C26,26.206 24.206,28 22,28 C19.794,28 18,26.206 18,24 L18,23 L18,23 Z M28,23 L28,10 L36,10 L36,23 L36,24 C36,26.206 34.206,28 32,28 C29.794,28 28,26.206 28,24 L28,23 L28,23 Z M10,52 L10,46.001 L54,46.001 L54,52 L10,52 L10,52 Z M54,44.001 L10,44.001 L10,29.65 C10.627,29.873 11.298,30 12,30 C14.084,30 15.924,28.932 17,27.313 C18.076,28.931 19.916,30 22,30 C24.084,30 25.924,28.932 27,27.313 C28.076,28.931 29.916,30 32,30 C34.084,30 35.924,28.932 37,27.313 C38.076,28.931 39.916,30 42,30 C44.084,30 45.924,28.932 47,27.313 C48.076,28.931 49.916,30 52,30 C52.702,30 53.373,29.872 54,29.65 L54,44.001 L54,44.001 Z M56,24 C56,26.206 54.206,28 52,28 C49.794,28 48,26.206 48,24 L48,23 L48,10 L56,10 L56,24 L56,24 Z" id="Shape" fill="#000000"></path>
    </g>
</svg>