<?xml version="1.0" encoding="UTF-8" standalone="no"?>
<svg width="64px" height="64px" viewBox="0 0 64 64" version="1.1" xmlns="http://www.w3.org/2000/svg" xmlns:xlink="http://www.w3.org/1999/xlink">
    <!-- Generator: Sketch 3.7.2 (28276) - http://www.bohemiancoding.com/sketch -->
    <title>sho-box-sealed</title>
    <desc>Created with Sketch.</desc>
    <defs></defs>
    <g id="64px-Line" stroke="none" stroke-width="1" fill="none" fill-rule="evenodd">
        <g id="sho-box-sealed"></g>
        <path d="M57.98,16.853 C57.965,16.754 57.937,16.66 57.894,16.571 C57.887,16.557 57.888,16.541 57.881,16.527 C57.878,16.521 57.872,16.519 57.869,16.513 C57.812,16.412 57.737,16.324 57.649,16.248 C57.625,16.228 57.601,16.212 57.576,16.195 C57.542,16.17 57.512,16.141 57.474,16.121 L31.474,2.121 C31.179,1.963 30.822,1.963 30.527,2.121 L4.527,16.121 C4.489,16.141 4.459,16.171 4.424,16.196 C4.399,16.214 4.375,16.229 4.351,16.249 C4.262,16.326 4.187,16.414 4.13,16.515 C4.127,16.52 4.121,16.523 4.118,16.529 C4.11,16.543 4.111,16.559 4.104,16.574 C4.061,16.663 4.034,16.757 4.019,16.855 C4.014,16.886 4.008,16.915 4.007,16.946 C4.007,16.963 4,16.981 4,17 L4,47 C4,47.368 4.202,47.706 4.526,47.881 L30.526,61.881 C30.544,61.891 30.564,61.894 30.582,61.903 C30.606,61.914 30.629,61.922 30.654,61.931 C30.766,61.973 30.882,62.001 31,62.001 C31.118,62.001 31.234,61.973 31.346,61.931 C31.371,61.922 31.394,61.914 31.418,61.903 C31.436,61.895 31.456,61.891 31.474,61.881 L57.474,47.881 C57.798,47.706 58,47.368 58,47 L58,17 C58,16.981 57.993,16.963 57.992,16.943 C57.991,16.913 57.984,16.883 57.98,16.853 L57.98,16.853 Z M31,4.136 L54.89,17 L46.999,21.249 L23.083,8.399 L31,4.136 L31,4.136 Z M31,29.864 L7.11,17 L16.972,11.689 L40.889,24.539 L31,29.864 L31,29.864 Z M20.972,9.535 L44.889,22.385 L42.999,23.403 L19.082,10.553 L20.972,9.535 L20.972,9.535 Z M44,25.136 L46,24.059 L46,34.382 L44,35.382 L44,25.136 L44,25.136 Z M6,18.674 L30,31.597 L30,59.325 L6,46.402 L6,18.674 L6,18.674 Z M32,59.326 L32,31.598 L42,26.213 L42,37 C42,37.347 42.18,37.668 42.475,37.851 C42.635,37.951 42.818,38 43,38 C43.153,38 43.306,37.965 43.447,37.895 L47.447,35.895 C47.786,35.725 48,35.379 48,35 L48,22.982 L56,18.674 L56,46.402 L32,59.326 L32,59.326 Z" id="Shape" fill="#000000"></path>
    </g>
</svg>