<?xml version="1.0" encoding="UTF-8" standalone="no"?>
<svg width="64px" height="64px" viewBox="0 0 64 64" version="1.1" xmlns="http://www.w3.org/2000/svg" xmlns:xlink="http://www.w3.org/1999/xlink">
    <!-- Generator: Sketch 3.7.2 (28276) - http://www.bohemiancoding.com/sketch -->
    <title>sho-box-open</title>
    <desc>Created with Sketch.</desc>
    <defs></defs>
    <g id="64px-Line" stroke="none" stroke-width="1" fill="none" fill-rule="evenodd">
        <g id="sho-box-open"></g>
        <path d="M61.474,25.119 L53.824,21 L61.474,16.881 C61.8,16.705 62.002,16.364 62,15.994 C61.998,15.624 61.792,15.286 61.464,15.114 L40.464,4.114 C40.169,3.96 39.818,3.963 39.526,4.119 L31,8.71 L22.474,4.119 C22.182,3.962 21.83,3.96 21.536,4.114 L0.536,15.114 C0.208,15.286 0.002,15.624 5.01820807e-14,15.994 C-0.002,16.364 0.2,16.705 0.526,16.881 L8.176,21 L0.526,25.119 C0.2,25.295 -0.002,25.636 5.01820807e-14,26.006 C0.002,26.376 0.208,26.714 0.536,26.886 L10,31.843 L10,46 C10,46.364 10.198,46.7 10.519,46.876 L30.519,57.876 C30.538,57.887 30.559,57.891 30.579,57.9 C30.605,57.912 30.63,57.921 30.657,57.931 C30.768,57.972 30.883,58 31.001,58 C31.118,58 31.233,57.972 31.345,57.931 C31.372,57.921 31.397,57.912 31.423,57.9 C31.443,57.891 31.464,57.887 31.483,57.876 L51.483,46.876 C51.802,46.7 52,46.364 52,46 L52,31.843 L61.464,26.886 C61.792,26.714 61.998,26.376 62,26.006 C62.002,25.636 61.8,25.295 61.474,25.119 L61.474,25.119 Z M40.007,6.132 L58.868,16.012 L51.714,19.864 L33.109,9.846 L40.007,6.132 L40.007,6.132 Z M31.025,31.005 C31.016,31.005 31.009,31 31,31 C30.991,31 30.984,31.005 30.975,31.005 L12.396,21 L31,10.982 L49.604,21 L31.025,31.005 L31.025,31.005 Z M3.132,16.012 L21.993,6.132 L28.891,9.846 L10.286,19.864 L3.132,16.012 L3.132,16.012 Z M10.286,22.136 L28.891,32.154 L21.993,35.868 L3.132,25.988 L10.286,22.136 L10.286,22.136 Z M12,32.891 L21.536,37.886 C21.682,37.962 21.841,38 22,38 C22.163,38 22.326,37.96 22.474,37.881 L30,33.828 L30,55.308 L12,45.409 L12,32.891 L12,32.891 Z M50,45.409 L32,55.308 L32,33.828 L39.526,37.881 C39.674,37.96 39.837,38 40,38 C40.159,38 40.318,37.962 40.464,37.886 L50,32.891 L50,45.409 L50,45.409 Z M40.007,35.868 L33.109,32.154 L51.714,22.136 L58.868,25.988 L40.007,35.868 L40.007,35.868 Z" id="Shape" fill="#000000"></path>
    </g>
</svg>