<?xml version="1.0" encoding="UTF-8" standalone="no"?>
<svg width="64px" height="64px" viewBox="0 0 64 64" version="1.1" xmlns="http://www.w3.org/2000/svg" xmlns:xlink="http://www.w3.org/1999/xlink">
    <!-- Generator: Sketch 3.7.2 (28276) - http://www.bohemiancoding.com/sketch -->
    <title>sho-tag</title>
    <desc>Created with Sketch.</desc>
    <defs></defs>
    <g id="64px-Line" stroke="none" stroke-width="1" fill="none" fill-rule="evenodd">
        <g id="sho-tag"></g>
        <path d="M47,22 C49.757,22 52,19.757 52,17 C52,14.243 49.757,12 47,12 C44.243,12 42,14.243 42,17 C42,19.757 44.243,22 47,22 L47,22 Z M47,14 C48.654,14 50,15.346 50,17 C50,18.654 48.654,20 47,20 C45.346,20 44,18.654 44,17 C44,15.346 45.346,14 47,14 L47,14 Z" id="Shape" fill="#000000"></path>
        <path d="M6,38 C6,39.068 6.416,40.073 7.172,40.829 L23.172,56.829 C23.927,57.585 24.932,58.001 26,58.001 L26,58.001 C27.068,58 28.072,57.584 28.815,56.842 L56.828,29.829 C57.584,29.073 58,28.069 58,27 L58,10 C58,7.794 56.206,6 54,6 L37,6 C35.932,6 34.927,6.416 34.159,7.185 L7.172,35.173 C6.416,35.928 6,36.932 6,38 L6,38 Z M8.599,36.574 L35.586,8.586 C35.964,8.208 36.466,8 37,8 L54,8 C55.103,8 56,8.897 56,10 L56,27 C56,27.534 55.792,28.036 55.427,28.401 L27.414,55.414 C26.634,56.193 25.366,56.193 24.586,55.414 L8.586,39.414 C8.208,39.037 8,38.534 8,38 C8,37.467 8.208,36.965 8.599,36.574 L8.599,36.574 Z" id="Shape" fill="#000000"></path>
    </g>
</svg>