<?xml version="1.0" encoding="UTF-8" standalone="no"?>
<svg width="64px" height="64px" viewBox="0 0 64 64" version="1.1" xmlns="http://www.w3.org/2000/svg" xmlns:xlink="http://www.w3.org/1999/xlink">
    <!-- Generator: Sketch 3.7.2 (28276) - http://www.bohemiancoding.com/sketch -->
    <title>sho-tags</title>
    <desc>Created with Sketch.</desc>
    <defs></defs>
    <g id="64px-Line" stroke="none" stroke-width="1" fill="none" fill-rule="evenodd">
        <g id="sho-tags"></g>
        <path d="M41,22 C43.757,22 46,19.757 46,17 C46,14.243 43.757,12 41,12 C38.243,12 36,14.243 36,17 C36,19.757 38.243,22 41,22 L41,22 Z M41,14 C42.654,14 44,15.346 44,17 C44,18.654 42.654,20 41,20 C39.346,20 38,18.654 38,17 C38,15.346 39.346,14 41,14 L41,14 Z" id="Shape" fill="#000000"></path>
        <path d="M4,36.958 C4,38.028 4.417,39.035 5.174,39.792 L18.208,52.826 C18.966,53.583 19.972,54 21.043,54 C22.113,54 23.12,53.583 23.862,52.84 L50.826,26.879 C51.583,26.121 51.999,25.115 51.999,24.046 L51.999,10.009 C51.999,7.799 50.201,6.001 47.991,6.001 L33.954,6.001 C32.883,6.001 31.877,6.418 31.107,7.189 L5.173,34.125 C4.417,34.881 4,35.888 4,36.958 L4,36.958 Z M6.601,35.524 L32.535,8.588 C32.914,8.209 33.418,8 33.955,8 L47.992,8 C49.099,8 50,8.901 50,10.008 L50,24.045 C50,24.581 49.791,25.085 49.426,25.452 L22.462,51.412 C21.703,52.171 20.38,52.169 19.623,51.412 L6.589,38.378 C6.21,37.999 6.001,37.494 6.001,36.958 C6.001,36.422 6.208,35.917 6.601,35.524 L6.601,35.524 Z" id="Shape" fill="#000000"></path>
        <path d="M56,10 L55,10 C54.448,10 54,10.448 54,11 C54,11.552 54.448,12 55,12 L56,12 C57.103,12 58,12.897 58,14 L58,28 C58,28.568 57.765,29.185 57.428,29.522 L30.535,55.415 C29.756,56.195 28.488,56.195 27.746,55.456 L26.746,54.335 C26.378,53.924 25.746,53.887 25.334,54.255 C24.922,54.622 24.886,55.255 25.253,55.667 L26.292,56.829 C27.047,57.585 28.052,58.001 29.12,58.001 L29.12,58.001 C30.188,58 31.192,57.584 31.934,56.843 L58.827,30.95 C59.55,30.227 59.999,29.097 59.999,28.001 L59.999,14.001 C60,11.795 58.206,10 56,10 L56,10 Z" id="Shape" fill="#000000"></path>
    </g>
</svg>