<?xml version="1.0" encoding="UTF-8" standalone="no"?>
<svg width="64px" height="64px" viewBox="0 0 64 64" version="1.1" xmlns="http://www.w3.org/2000/svg" xmlns:xlink="http://www.w3.org/1999/xlink">
    <!-- Generator: Sketch 3.7.2 (28276) - http://www.bohemiancoding.com/sketch -->
    <title>sho-box-sealed-up</title>
    <desc>Created with Sketch.</desc>
    <defs></defs>
    <g id="64px-Line" stroke="none" stroke-width="1" fill="none" fill-rule="evenodd">
        <g id="sho-box-sealed-up"></g>
        <path d="M27.479,52.968 L9.481,43.276 C8.992,43.015 8.387,43.197 8.126,43.682 C7.864,44.168 8.047,44.775 8.532,45.037 L26.53,54.729 C26.681,54.81 26.843,54.848 27.004,54.848 C27.36,54.848 27.705,54.658 27.886,54.323 C28.146,53.837 27.964,53.23 27.479,52.968 L27.479,52.968 Z" id="Shape" fill="#000000"></path>
        <path d="M57.98,16.853 C57.965,16.754 57.937,16.66 57.894,16.571 C57.887,16.557 57.888,16.541 57.881,16.527 C57.878,16.521 57.872,16.519 57.869,16.513 C57.812,16.412 57.737,16.324 57.649,16.248 C57.625,16.228 57.601,16.212 57.576,16.195 C57.542,16.17 57.512,16.141 57.474,16.121 L31.474,2.121 C31.179,1.963 30.822,1.963 30.527,2.121 L4.527,16.121 C4.489,16.141 4.459,16.171 4.425,16.195 C4.4,16.213 4.375,16.228 4.351,16.249 C4.262,16.325 4.187,16.413 4.131,16.514 C4.128,16.519 4.122,16.522 4.119,16.528 C4.111,16.542 4.112,16.558 4.105,16.573 C4.062,16.662 4.035,16.756 4.02,16.854 C4.015,16.885 4.009,16.914 4.008,16.945 C4.007,16.963 4,16.981 4,17 L4,47 C4,47.368 4.202,47.706 4.526,47.881 L30.526,61.881 C30.544,61.891 30.564,61.894 30.582,61.903 C30.606,61.914 30.629,61.922 30.654,61.931 C30.766,61.973 30.882,62.001 31,62.001 C31.118,62.001 31.234,61.973 31.346,61.931 C31.371,61.922 31.394,61.914 31.418,61.903 C31.436,61.895 31.456,61.891 31.474,61.881 L57.474,47.881 C57.798,47.706 58,47.368 58,47 L58,17 C58,16.981 57.993,16.963 57.992,16.943 C57.991,16.913 57.984,16.883 57.98,16.853 L57.98,16.853 Z M31,4.136 L54.89,17 L46.999,21.249 L23.083,8.399 L31,4.136 L31,4.136 Z M31,29.864 L7.11,17 L16.972,11.689 L40.889,24.539 L31,29.864 L31,29.864 Z M20.972,9.535 L44.889,22.385 L42.999,23.403 L19.082,10.553 L20.972,9.535 L20.972,9.535 Z M44,25.136 L46,24.059 L46,34.382 L44,35.382 L44,25.136 L44,25.136 Z M6,18.674 L30,31.597 L30,59.325 L6,46.402 L6,18.674 L6,18.674 Z M32,59.326 L32,31.598 L42,26.213 L42,37 C42,37.347 42.18,37.668 42.475,37.851 C42.635,37.951 42.818,38 43,38 C43.153,38 43.306,37.965 43.447,37.895 L47.447,35.895 C47.786,35.725 48,35.379 48,35 L48,22.982 L56,18.674 L56,46.402 L32,59.326 L32,59.326 Z" id="Shape" fill="#000000"></path>
        <path d="M10.555,35.832 L12,34.868 L12,43 C12,43.553 12.447,44 13,44 C13.553,44 14,43.553 14,43 L14,36 L15.2,37.6 C15.396,37.863 15.696,38 16.001,38 C16.21,38 16.42,37.935 16.6,37.8 C17.042,37.469 17.132,36.842 16.8,36.401 L13.8,32.401 C13.786,32.382 13.764,32.372 13.748,32.354 C13.705,32.305 13.657,32.265 13.606,32.225 C13.554,32.185 13.504,32.147 13.447,32.118 C13.396,32.092 13.343,32.076 13.287,32.059 C13.217,32.038 13.149,32.022 13.076,32.017 C13.05,32.013 13.027,32 13,32 C12.968,32 12.941,32.015 12.91,32.018 C12.839,32.024 12.772,32.038 12.703,32.06 C12.642,32.079 12.586,32.102 12.531,32.132 C12.503,32.147 12.472,32.15 12.445,32.168 L9.445,34.168 C8.985,34.475 8.861,35.095 9.168,35.555 C9.474,36.014 10.093,36.138 10.555,35.832 L10.555,35.832 Z" id="Shape" fill="#000000"></path>
        <path d="M20.555,40.832 L22,39.868 L22,48 C22,48.553 22.447,49 23,49 C23.553,49 24,48.553 24,48 L24,41 L25.2,42.6 C25.396,42.863 25.696,43 26.001,43 C26.21,43 26.42,42.935 26.6,42.8 C27.042,42.469 27.132,41.842 26.8,41.401 L23.8,37.401 C23.786,37.382 23.764,37.372 23.749,37.354 C23.706,37.304 23.658,37.265 23.606,37.224 C23.555,37.184 23.505,37.146 23.448,37.117 C23.397,37.091 23.344,37.075 23.289,37.058 C23.218,37.036 23.15,37.021 23.076,37.015 C23.049,37.013 23.027,37 23,37 C22.969,37 22.943,37.015 22.912,37.018 C22.84,37.024 22.772,37.038 22.701,37.06 C22.641,37.079 22.586,37.102 22.531,37.131 C22.503,37.146 22.472,37.149 22.444,37.167 L19.444,39.167 C18.984,39.474 18.86,40.094 19.167,40.554 C19.474,41.014 20.093,41.137 20.555,40.832 L20.555,40.832 Z" id="Shape" fill="#000000"></path>
    </g>
</svg>