<?xml version="1.0" encoding="UTF-8" standalone="no"?>
<svg width="64px" height="64px" viewBox="0 0 64 64" version="1.1" xmlns="http://www.w3.org/2000/svg" xmlns:xlink="http://www.w3.org/1999/xlink">
    <!-- Generator: Sketch 3.7.2 (28276) - http://www.bohemiancoding.com/sketch -->
    <title>sho-tag-sterling</title>
    <desc>Created with Sketch.</desc>
    <defs></defs>
    <g id="64px-Line" stroke="none" stroke-width="1" fill="none" fill-rule="evenodd">
        <g id="sho-tag-sterling"></g>
        <path d="M47,12 C44.243,12 42,14.243 42,17 C42,19.757 44.243,22 47,22 C49.757,22 52,19.757 52,17 C52,14.243 49.757,12 47,12 L47,12 Z M47,20 C45.346,20 44,18.654 44,17 C44,15.346 45.346,14 47,14 C48.654,14 50,15.346 50,17 C50,18.654 48.654,20 47,20 L47,20 Z" id="Shape" fill="#000000"></path>
        <path d="M37,6 C35.932,6 34.927,6.416 34.159,7.185 L7.172,35.173 C6.416,35.928 6,36.932 6,38 C6,39.068 6.416,40.073 7.172,40.829 L23.172,56.829 C23.927,57.585 24.932,58.001 26,58.001 L26,58.001 C27.068,58 28.072,57.584 28.815,56.842 L56.828,29.829 C57.584,29.074 58,28.069 58,27.001 L58,10.001 C58,7.795 56.206,6.001 54,6.001 L37,6.001 L37,6 Z M56,10 L56,27 C56,27.534 55.792,28.036 55.427,28.401 L27.414,55.414 C26.634,56.193 25.366,56.193 24.586,55.414 L8.586,39.414 C8.208,39.037 8,38.534 8,38 C8,37.467 8.208,36.965 8.599,36.574 L35.586,8.586 C35.964,8.208 36.466,8 37,8 L54,8 C55.103,8 56,8.897 56,10 L56,10 Z" id="Shape" fill="#000000"></path>
        <path d="M30.757,26.758 L27.928,29.586 L25.807,27.465 C25.416,27.074 24.784,27.074 24.393,27.465 C24.002,27.856 24.002,28.488 24.393,28.879 L26.514,31 L23.685,33.828 C22.93,34.584 21.613,34.584 20.858,33.828 L20.858,33.828 C20.467,33.437 19.835,33.437 19.444,33.828 C19.053,34.219 19.053,34.851 19.444,35.242 L19.444,35.242 L28.636,44.434 C28.831,44.629 29.087,44.727 29.343,44.727 C29.599,44.727 29.855,44.629 30.05,44.434 C30.441,44.043 30.441,43.411 30.05,43.02 L23.309,36.279 C23.98,36.099 24.596,35.747 25.1,35.242 L27.928,32.414 L31.464,35.95 C31.659,36.145 31.915,36.243 32.171,36.243 C32.427,36.243 32.683,36.145 32.878,35.95 C33.269,35.559 33.269,34.927 32.878,34.536 L29.342,31 L32.171,28.172 C33.731,26.612 36.269,26.612 37.828,28.172 C38.584,28.927 39,29.931 39,30.999 C39,32.067 38.584,33.071 37.828,33.827 C37.437,34.218 37.437,34.85 37.828,35.241 C38.219,35.632 38.851,35.632 39.242,35.241 C40.375,34.108 41,32.601 41,30.999 C41,29.397 40.375,27.89 39.242,26.757 C36.903,24.419 33.096,24.418 30.757,26.758 L30.757,26.758 Z" id="Shape" fill="#000000"></path>
    </g>
</svg>