<?xml version="1.0" encoding="UTF-8" standalone="no"?>
<svg width="64px" height="64px" viewBox="0 0 64 64" version="1.1" xmlns="http://www.w3.org/2000/svg" xmlns:xlink="http://www.w3.org/1999/xlink">
    <!-- Generator: Sketch 3.7.2 (28276) - http://www.bohemiancoding.com/sketch -->
    <title>sho-basket-warning</title>
    <desc>Created with Sketch.</desc>
    <defs></defs>
    <g id="64px-Line" stroke="none" stroke-width="1" fill="none" fill-rule="evenodd">
        <g id="sho-basket-warning"></g>
        <path d="M61.533,54.128 L50.252,35.671 C49.502,34.625 48.286,34 47,34 C45.713,34 44.497,34.625 43.707,35.733 L32.467,54.128 C32.445,54.166 32.424,54.205 32.405,54.246 C32.364,54.339 32,55.188 32,56 C32,58.206 33.794,60 36,60 L58,60 C60.206,60 62,58.206 62,56 C62,55.188 61.636,54.339 61.595,54.246 C61.576,54.205 61.556,54.166 61.533,54.128 L61.533,54.128 Z M58,58 L36,58 C34.897,58 34,57.103 34,56 C34,55.728 34.123,55.33 34.213,55.106 L45.373,36.836 C45.749,36.312 46.356,36 47,36 C47.644,36 48.251,36.313 48.586,36.776 L59.787,55.107 C59.867,55.306 60,55.719 60,56 C60,57.103 59.103,58 58,58 L58,58 Z" id="Shape" fill="#000000"></path>
        <path d="M47,40 C46.447,40 46,40.448 46,41 L46,49 C46,49.552 46.447,50 47,50 C47.553,50 48,49.552 48,49 L48,41 C48,40.448 47.553,40 47,40 L47,40 Z" id="Shape" fill="#000000"></path>
        <path d="M47.71,52.29 C47.609,52.2 47.5,52.13 47.38,52.08 C47.01,51.93 46.569,52.02 46.29,52.29 C46.2,52.39 46.13,52.5 46.08,52.62 C46.03,52.74 46,52.87 46,53 C46,53.26 46.109,53.52 46.29,53.71 C46.479,53.89 46.74,54 47,54 C47.13,54 47.26,53.97 47.38,53.92 C47.5,53.87 47.609,53.8 47.71,53.71 C47.89,53.52 48,53.26 48,53 C48,52.87 47.97,52.74 47.92,52.62 C47.87,52.5 47.8,52.39 47.71,52.29 L47.71,52.29 Z" id="Shape" fill="#000000"></path>
        <path d="M27.53,6.152 C27.061,5.86 26.444,6.002 26.152,6.47 L16.152,22.47 C15.859,22.938 16.002,23.555 16.469,23.848 C16.634,23.951 16.818,24 16.998,24 C17.331,24 17.657,23.833 17.847,23.53 L27.847,7.53 C28.141,7.062 27.998,6.445 27.53,6.152 L27.53,6.152 Z" id="Shape" fill="#000000"></path>
        <path d="M43.001,24 C43.182,24 43.365,23.951 43.53,23.848 C43.998,23.555 44.14,22.938 43.847,22.47 L33.847,6.47 C33.555,6.002 32.938,5.859 32.469,6.152 C32.001,6.445 31.859,7.062 32.152,7.53 L42.152,23.53 C42.342,23.833 42.668,24 43.001,24 L43.001,24 Z" id="Shape" fill="#000000"></path>
        <path d="M22,21 C22,21.552 22.447,22 23,22 L37,22 C37.553,22 38,21.552 38,21 C38,20.448 37.553,20 37,20 L23,20 C22.447,20 22,20.448 22,21 L22,21 Z" id="Shape" fill="#000000"></path>
        <path d="M51.519,33.978 C51.589,33.993 51.66,34 51.728,34 C52.19,34 52.605,33.678 52.706,33.208 L53.926,27.462 C55.014,26.814 55.795,25.627 55.993,24.132 C55.999,24.089 56.002,24.045 56.002,24.001 L56.002,21.001 C56.002,20.449 55.555,20.001 55.002,20.001 L47.002,20.001 C46.449,20.001 46.002,20.449 46.002,21.001 C46.002,21.553 46.449,22.001 47.002,22.001 L54.002,22.001 L54.002,23.931 C53.845,24.972 53.172,26.001 52.002,26.001 L8.002,26.001 C6.819,26.001 6.087,24.926 6.002,24.001 L6.002,22.001 L13.002,22.001 C13.555,22.001 14.002,21.553 14.002,21.001 C14.002,20.449 13.555,20.001 13.002,20.001 L5.002,20.001 C4.449,20.001 4.002,20.449 4.002,21.001 L4.006,24.088 C4.135,25.569 4.944,26.795 6.077,27.461 L10.012,46.151 C10.234,48.35 11.939,50.001 14.002,50.001 L32.002,50.001 C32.555,50.001 33.002,49.553 33.002,49.001 C33.002,48.449 32.555,48.001 32.002,48.001 L14.002,48.001 C12.819,48.001 12.087,46.926 11.998,45.914 C11.995,45.874 11.989,45.834 11.98,45.795 L8.232,28 L51.765,28 L50.748,32.792 C50.634,33.333 50.979,33.864 51.519,33.978 L51.519,33.978 Z" id="Shape" fill="#000000"></path>
    </g>
</svg>