<?xml version="1.0" encoding="UTF-8" standalone="no"?>
<svg width="64px" height="64px" viewBox="0 0 64 64" version="1.1" xmlns="http://www.w3.org/2000/svg" xmlns:xlink="http://www.w3.org/1999/xlink">
    <!-- Generator: Sketch 3.7.2 (28276) - http://www.bohemiancoding.com/sketch -->
    <title>sho-coat-hanger</title>
    <desc>Created with Sketch.</desc>
    <defs></defs>
    <g id="64px-Line" stroke="none" stroke-width="1" fill="none" fill-rule="evenodd">
        <g id="sho-coat-hanger"></g>
        <path d="M56.548,44.193 C53.855,42.221 35.266,30.503 32,28.447 L32,25 C32,24.447 31.552,24 31,24 C28.243,24 26,21.757 26,19 C26,16.243 28.243,14 31,14 C33.757,14 36,16.243 36,19 C36,19.553 36.448,20 37,20 C37.552,20 38,19.553 38,19 C38,15.141 34.86,12 31,12 C27.14,12 24,15.141 24,19 C24,22.519 26.613,25.432 30,25.92 L30,28.447 C26.735,30.503 8.146,42.221 5.452,44.193 C2.723,46.191 1.477,48.809 2.202,51.025 C2.802,52.86 4.657,54 7.043,54 L54.957,54 C57.344,54 59.199,52.86 59.798,51.025 C60.523,48.81 59.277,46.191 56.548,44.193 L56.548,44.193 Z M57.897,50.404 C57.57,51.403 56.471,52 54.957,52 L7.043,52 C5.528,52 4.429,51.403 4.103,50.404 C3.663,49.058 4.657,47.254 6.634,45.806 C9.22,43.913 27.617,32.312 31,30.181 C34.383,32.312 52.78,43.913 55.366,45.806 C57.344,47.254 58.337,49.059 57.897,50.404 L57.897,50.404 Z" id="Shape" fill="#000000"></path>
    </g>
</svg>