<?xml version="1.0" encoding="UTF-8" standalone="no"?>
<svg width="64px" height="64px" viewBox="0 0 64 64" version="1.1" xmlns="http://www.w3.org/2000/svg" xmlns:xlink="http://www.w3.org/1999/xlink">
    <!-- Generator: Sketch 3.7.2 (28276) - http://www.bohemiancoding.com/sketch -->
    <title>sho-cart-stall</title>
    <desc>Created with Sketch.</desc>
    <defs></defs>
    <g id="64px-Line" stroke="none" stroke-width="1" fill="none" fill-rule="evenodd">
        <g id="sho-cart-stall"></g>
        <path d="M61,40.003 L52,40.003 L52,26.46 C53.224,25.361 54,23.772 54,22 L54,9 L54,5 C54,4.447 53.552,4 53,4 L3,4 C2.448,4 2,4.447 2,5 L2,9 L2,22 C2,23.771 2.776,25.36 4,26.46 L4,51.002 C4,51.268 4.105,51.522 4.293,51.709 C4.481,51.896 4.735,52.002 5,52.002 L8,52.002 C8.001,56.412 11.589,60 16,60 C20.411,60 23.999,56.412 24,52.001 L44,52 L44,59 C44,59.553 44.448,60 45,60 C45.552,60 46,59.553 46,59 L46,52 L51,52 C51.552,52 52,51.553 52,51 L52,42.003 L61,42.003 C61.552,42.003 62,41.556 62,41.003 C62,40.45 61.552,40.003 61,40.003 L61,40.003 Z M52,22 C52,24.206 50.206,26 48,26 C45.794,26 44,24.206 44,22 L44,21 L44,10 L52,10 L52,22 L52,22 Z M4,22 L4,10 L12,10 L12,21 L12,22 C12,24.206 10.206,26 8,26 C5.794,26 4,24.206 4,22 L4,22 Z M14,21 L14,10 L22,10 L22,21 L22,22 C22,24.206 20.206,26 18,26 C15.794,26 14,24.206 14,22 L14,21 L14,21 Z M24,21 L24,10 L32,10 L32,21 L32,22 C32,24.206 30.206,26 28,26 C25.794,26 24,24.206 24,22 L24,21 L24,21 Z M34,21 L34,10 L42,10 L42,21 L42,22 C42,24.206 40.206,26 38,26 C35.794,26 34,24.206 34,22 L34,21 L34,21 Z M52,6 L52,8 L4,8 L4,6 L52,6 L52,6 Z M8,28 C10.084,28 11.924,26.932 13,25.313 C14.076,26.931 15.916,28 18,28 C20.084,28 21.924,26.932 23,25.313 C24.076,26.931 25.916,28 28,28 C30.084,28 31.924,26.932 33,25.313 C34.076,26.931 35.916,28 38,28 C40.084,28 41.924,26.932 43,25.313 C44.076,26.931 45.916,28 48,28 C48.702,28 49.373,27.872 50,27.65 L50,40.003 L6,40.003 L6,27.65 C6.627,27.872 7.298,28 8,28 L8,28 Z M16.015,50.002 C16.01,50.002 16.005,50 16,50 C15.995,50 15.99,50.001 15.985,50.002 L10.349,50.002 C11.175,47.674 13.392,46 16,46 C18.607,46 20.825,47.674 21.65,50.001 L16.015,50.002 L16.015,50.002 Z M16,58 C12.692,58 10.001,55.31 10,52.002 L14,52.002 C14.001,53.104 14.897,54 16,54 C17.103,54 17.999,53.103 18,52.001 L22,52.001 C21.999,55.309 19.308,58 16,58 L16,58 Z M50,50 L45.001,50 L45,50 L44.999,50 L23.737,50.001 C22.846,46.556 19.72,44 16,44 C12.28,44 9.154,46.556 8.263,50.002 L6,50.002 L6,42.003 L50,42.003 L50,50 L50,50 Z" id="Shape" fill="#000000"></path>
    </g>
</svg>