<?xml version="1.0" encoding="UTF-8" standalone="no"?>
<svg width="64px" height="64px" viewBox="0 0 64 64" version="1.1" xmlns="http://www.w3.org/2000/svg" xmlns:xlink="http://www.w3.org/1999/xlink">
    <!-- Generator: Sketch 3.7.2 (28276) - http://www.bohemiancoding.com/sketch -->
    <title>sho-tag-euro</title>
    <desc>Created with Sketch.</desc>
    <defs></defs>
    <g id="64px-Line" stroke="none" stroke-width="1" fill="none" fill-rule="evenodd">
        <g id="sho-tag-euro"></g>
        <path d="M47,12 C44.243,12 42,14.243 42,17 C42,19.757 44.243,22 47,22 C49.757,22 52,19.757 52,17 C52,14.243 49.757,12 47,12 L47,12 Z M47,20 C45.346,20 44,18.654 44,17 C44,15.346 45.346,14 47,14 C48.654,14 50,15.346 50,17 C50,18.654 48.654,20 47,20 L47,20 Z" id="Shape" fill="#000000"></path>
        <path d="M54,6 L37,6 C35.932,6 34.927,6.416 34.159,7.185 L7.172,35.173 C6.416,35.928 6,36.932 6,38 C6,39.068 6.416,40.073 7.172,40.829 L23.172,56.829 C23.927,57.585 24.932,58.001 26,58.001 L26,58.001 C27.068,58 28.072,57.584 28.815,56.842 L56.828,29.829 C57.584,29.074 58,28.069 58,27.001 L58,10.001 C58,7.795 56.206,6 54,6 L54,6 Z M56,27 C56,27.534 55.792,28.036 55.427,28.401 L27.414,55.414 C26.634,56.193 25.366,56.193 24.586,55.414 L8.586,39.414 C8.208,39.037 8,38.534 8,38 C8,37.467 8.208,36.965 8.599,36.574 L35.586,8.586 C35.964,8.208 36.466,8 37,8 L54,8 C55.103,8 56,8.897 56,10 L56,27 L56,27 Z" id="Shape" fill="#000000"></path>
        <path d="M32.946,24.062 C31.25,24.25 29.579,24.859 28.055,25.813 L27.106,24.864 C26.715,24.473 26.083,24.473 25.692,24.864 C25.301,25.255 25.301,25.887 25.692,26.278 L26.427,27.013 C26.176,27.23 25.93,27.455 25.692,27.692 C25.454,27.929 25.229,28.176 25.013,28.427 L24.278,27.692 C23.887,27.301 23.255,27.301 22.864,27.692 C22.473,28.083 22.473,28.715 22.864,29.106 L23.813,30.055 C22.859,31.579 22.251,33.25 22.062,34.945 C21.761,37.657 22.548,40.104 24.278,41.834 C25.762,43.318 27.83,44.107 30.084,44.107 C30.898,44.107 31.736,44.004 32.579,43.795 C33.115,43.661 33.441,43.118 33.307,42.582 C33.173,42.047 32.631,41.723 32.095,41.853 C29.567,42.485 27.234,41.96 25.693,40.419 C24.401,39.127 23.818,37.262 24.05,35.165 C24.189,33.913 24.615,32.673 25.273,31.514 L29.935,36.176 C30.13,36.371 30.386,36.469 30.642,36.469 C30.898,36.469 31.154,36.371 31.349,36.176 C31.74,35.785 31.74,35.153 31.349,34.762 L26.431,29.845 C26.644,29.592 26.867,29.344 27.106,29.106 C27.344,28.868 27.592,28.645 27.846,28.432 L32.764,33.35 C32.959,33.545 33.215,33.643 33.471,33.643 C33.727,33.643 33.983,33.545 34.178,33.35 C34.569,32.959 34.569,32.326 34.178,31.935 L29.516,27.273 C30.675,26.615 31.916,26.189 33.168,26.05 C35.263,25.819 37.129,26.401 38.421,27.694 C39.963,29.235 40.485,31.568 39.856,34.096 C39.722,34.631 40.048,35.174 40.585,35.308 C41.117,35.434 41.663,35.115 41.797,34.579 C42.589,31.401 41.856,28.298 39.836,26.28 C38.104,24.549 35.658,23.763 32.946,24.062 L32.946,24.062 Z" id="Shape" fill="#000000"></path>
    </g>
</svg>