<?xml version="1.0" encoding="UTF-8" standalone="no"?>
<svg width="64px" height="64px" viewBox="0 0 64 64" version="1.1" xmlns="http://www.w3.org/2000/svg" xmlns:xlink="http://www.w3.org/1999/xlink">
    <!-- Generator: Sketch 3.7.2 (28276) - http://www.bohemiancoding.com/sketch -->
    <title>sho-till-portable</title>
    <desc>Created with Sketch.</desc>
    <defs></defs>
    <g id="64px-Line" stroke="none" stroke-width="1" fill="none" fill-rule="evenodd">
        <g id="sho-till-portable"></g>
        <path d="M21,32 L45,32 C45.553,32 46,31.552 46,31 L46,25 C46,24.448 45.553,24 45,24 L21,24 C20.447,24 20,24.448 20,25 L20,31 C20,31.552 20.447,32 21,32 L21,32 Z M22,26 L44,26 L44,30 L22,30 L22,26 L22,26 Z" id="Shape" fill="#000000"></path>
        <path d="M43,34 L39,34 C38.447,34 38,34.448 38,35 L38,39 C38,39.552 38.447,40 39,40 L43,40 C43.553,40 44,39.552 44,39 L44,35 C44,34.448 43.553,34 43,34 L43,34 Z M42,38 L40,38 L40,36 L42,36 L42,38 L42,38 Z" id="Shape" fill="#000000"></path>
        <path d="M31,40 L35,40 C35.553,40 36,39.552 36,39 L36,35 C36,34.448 35.553,34 35,34 L31,34 C30.447,34 30,34.448 30,35 L30,39 C30,39.552 30.447,40 31,40 L31,40 Z M32,36 L34,36 L34,38 L32,38 L32,36 L32,36 Z" id="Shape" fill="#000000"></path>
        <path d="M27,34 L23,34 C22.447,34 22,34.448 22,35 L22,39 C22,39.552 22.447,40 23,40 L27,40 C27.553,40 28,39.552 28,39 L28,35 C28,34.448 27.553,34 27,34 L27,34 Z M26,38 L24,38 L24,36 L26,36 L26,38 L26,38 Z" id="Shape" fill="#000000"></path>
        <path d="M43,42 L39,42 C38.447,42 38,42.448 38,43 L38,47 C38,47.552 38.447,48 39,48 L43,48 C43.553,48 44,47.552 44,47 L44,43 C44,42.448 43.553,42 43,42 L43,42 Z M42,46 L40,46 L40,44 L42,44 L42,46 L42,46 Z" id="Shape" fill="#000000"></path>
        <path d="M30,47 C30,47.552 30.447,48 31,48 L35,48 C35.553,48 36,47.552 36,47 L36,43 C36,42.448 35.553,42 35,42 L31,42 C30.447,42 30,42.448 30,43 L30,47 L30,47 Z M32,44 L34,44 L34,46 L32,46 L32,44 L32,44 Z" id="Shape" fill="#000000"></path>
        <path d="M27,42 L23,42 C22.447,42 22,42.448 22,43 L22,47 C22,47.552 22.447,48 23,48 L27,48 C27.553,48 28,47.552 28,47 L28,43 C28,42.448 27.553,42 27,42 L27,42 Z M26,46 L24,46 L24,44 L26,44 L26,46 L26,46 Z" id="Shape" fill="#000000"></path>
        <path d="M43,50 L31,50 C30.447,50 30,50.448 30,51 L30,55 C30,55.552 30.447,56 31,56 L43,56 C43.553,56 44,55.552 44,55 L44,51 C44,50.448 43.553,50 43,50 L43,50 Z M42,54 L32,54 L32,52 L42,52 L42,54 L42,54 Z" id="Shape" fill="#000000"></path>
        <path d="M27,50 L23,50 C22.447,50 22,50.448 22,51 L22,55 C22,55.552 22.447,56 23,56 L27,56 C27.553,56 28,55.552 28,55 L28,51 C28,50.448 27.553,50 27,50 L27,50 Z M26,54 L24,54 L24,52 L26,52 L26,54 L26,54 Z" id="Shape" fill="#000000"></path>
        <path d="M20,60 L46,60 C48.206,60 50,58.206 50,56 L50,20 C50,17.794 48.206,16 46,16 L42,16 L42,5 C42,4.448 41.553,4 41,4 C40.447,4 40,4.448 40,5 C40,5.551 39.552,6 39,6 C38.448,6 38,5.551 38,5 C38,4.448 37.553,4 37,4 C36.447,4 36,4.448 36,5 C36,5.551 35.552,6 35,6 C34.448,6 34,5.551 34,5 C34,4.448 33.553,4 33,4 C32.447,4 32,4.448 32,5 C32,5.551 31.552,6 31,6 C30.448,6 30,5.551 30,5 C30,4.448 29.553,4 29,4 C28.447,4 28,4.448 28,5 C28,5.551 27.552,6 27,6 C26.448,6 26,5.551 26,5 C26,4.448 25.553,4 25,4 C24.447,4 24,4.448 24,5 L24,16 L20,16 C17.794,16 16,17.794 16,20 L16,56 C16,58.206 17.794,60 20,60 L20,60 Z M26,7.829 C26.997,8.183 28.227,7.928 29,7.235 C29.531,7.711 30.232,8.001 31,8.001 C31.768,8.001 32.469,7.711 33,7.235 C33.531,7.711 34.232,8.001 35,8.001 C35.768,8.001 36.469,7.711 37,7.235 C37.774,7.928 39.004,8.184 40,7.829 L40,20 L26,20 L26,7.829 L26,7.829 Z M18,20 C18,18.897 18.897,18 20,18 L24,18 L24,20 L23,20 C22.447,20 22,20.448 22,21 C22,21.552 22.447,22 23,22 L43,22 C43.553,22 44,21.552 44,21 C44,20.448 43.553,20 43,20 L42,20 L42,18 L46,18 C47.103,18 48,18.897 48,20 L48,56 C48,57.103 47.103,58 46,58 L20,58 C18.897,58 18,57.103 18,56 L18,20 L18,20 Z" id="Shape" fill="#000000"></path>
    </g>
</svg>