<?xml version="1.0" encoding="UTF-8" standalone="no"?>
<svg width="64px" height="64px" viewBox="0 0 64 64" version="1.1" xmlns="http://www.w3.org/2000/svg" xmlns:xlink="http://www.w3.org/1999/xlink">
    <!-- Generator: Sketch 3.7.2 (28276) - http://www.bohemiancoding.com/sketch -->
    <title>sho-basket-cross</title>
    <desc>Created with Sketch.</desc>
    <defs></defs>
    <g id="64px-Line" stroke="none" stroke-width="1" fill="none" fill-rule="evenodd">
        <g id="sho-basket-cross"></g>
        <path d="M27.53,6.152 C27.061,5.86 26.444,6.002 26.152,6.47 L16.152,22.47 C15.859,22.938 16.002,23.555 16.469,23.848 C16.634,23.951 16.818,24 16.998,24 C17.331,24 17.657,23.833 17.847,23.53 L27.847,7.53 C28.141,7.062 27.998,6.445 27.53,6.152 L27.53,6.152 Z" id="Shape" fill="#000000"></path>
        <path d="M43.001,24 C43.182,24 43.365,23.951 43.53,23.848 C43.998,23.555 44.14,22.938 43.847,22.47 L33.847,6.47 C33.555,6.002 32.939,5.859 32.469,6.152 C32.001,6.445 31.859,7.062 32.152,7.53 L42.152,23.53 C42.342,23.833 42.668,24 43.001,24 L43.001,24 Z" id="Shape" fill="#000000"></path>
        <path d="M23,22 L37,22 C37.553,22 38,21.552 38,21 C38,20.448 37.553,20 37,20 L23,20 C22.447,20 22,20.448 22,21 C22,21.552 22.447,22 23,22 L23,22 Z" id="Shape" fill="#000000"></path>
        <path d="M47,34 C39.832,34 34,39.832 34,47 C34,54.168 39.832,60 47,60 C54.168,60 60,54.168 60,47 C60,39.832 54.168,34 47,34 L47,34 Z M47,58 C40.935,58 36,53.065 36,47 C36,40.935 40.935,36 47,36 C53.065,36 58,40.935 58,47 C58,53.065 53.065,58 47,58 L47,58 Z" id="Shape" fill="#000000"></path>
        <path d="M52.707,41.293 C52.316,40.902 51.684,40.902 51.293,41.293 L47,45.586 L42.707,41.293 C42.316,40.902 41.684,40.902 41.293,41.293 C40.902,41.684 40.902,42.316 41.293,42.707 L45.586,47 L41.293,51.293 C40.902,51.684 40.902,52.316 41.293,52.707 C41.488,52.902 41.744,53 42,53 C42.256,53 42.512,52.902 42.707,52.707 L47,48.414 L51.293,52.707 C51.488,52.902 51.744,53 52,53 C52.256,53 52.512,52.902 52.707,52.707 C53.098,52.316 53.098,51.684 52.707,51.293 L48.414,47 L52.707,42.707 C53.098,42.316 53.098,41.684 52.707,41.293 L52.707,41.293 Z" id="Shape" fill="#000000"></path>
        <path d="M6.075,27.46 L10.01,46.15 C10.232,48.349 11.937,50 14,50 L31,50 C31.553,50 32,49.552 32,49 C32,48.448 31.553,48 31,48 L14,48 C12.817,48 12.085,46.925 11.996,45.913 C11.993,45.873 11.987,45.833 11.978,45.794 L8.232,28 L51.767,28 L51.179,30.792 C51.065,31.333 51.411,31.863 51.951,31.977 C52.02,31.992 52.09,31.998 52.158,31.998 C52.621,31.998 53.036,31.675 53.136,31.204 L53.924,27.461 C55.012,26.813 55.793,25.626 55.99,24.131 C55.996,24.088 55.999,24.044 55.999,24 L55.999,21 C55.999,20.448 55.552,20 54.999,20 L46.999,20 C46.446,20 45.999,20.448 45.999,21 C45.999,21.552 46.446,22 46.999,22 L53.999,22 L53.999,23.93 C53.842,24.971 53.169,26 51.999,26 L7.999,26 C6.816,26 6.084,24.925 5.999,24 L5.999,22 L12.999,22 C13.552,22 13.999,21.552 13.999,21 C13.999,20.448 13.552,20 12.999,20 L4.999,20 C4.446,20 3.999,20.448 3.999,21 L4.003,24.087 C4.133,25.568 4.941,26.794 6.075,27.46 L6.075,27.46 Z" id="Shape" fill="#000000"></path>
    </g>
</svg>