<?xml version="1.0" encoding="UTF-8" standalone="no"?>
<svg width="64px" height="64px" viewBox="0 0 64 64" version="1.1" xmlns="http://www.w3.org/2000/svg" xmlns:xlink="http://www.w3.org/1999/xlink">
    <!-- Generator: Sketch 3.7.2 (28276) - http://www.bohemiancoding.com/sketch -->
    <title>sho-wallet</title>
    <desc>Created with Sketch.</desc>
    <defs></defs>
    <g id="64px-Line" stroke="none" stroke-width="1" fill="none" fill-rule="evenodd">
        <g id="sho-wallet"></g>
        <path d="M45,32 C43.346,32 42,33.346 42,35 C42,36.654 43.346,38 45,38 C46.654,38 48,36.654 48,35 C48,33.346 46.654,32 45,32 L45,32 Z M45,36 C44.449,36 44,35.551 44,35 C44,34.449 44.449,34 45,34 C45.551,34 46,34.449 46,35 C46,35.551 45.551,36 45,36 L45,36 Z" id="Shape" fill="#000000"></path>
        <path d="M56,20.101 L56,20 L56,16 C56,12.691 53.309,10 50,10 L10,10 C6.691,10 4,12.691 4,16 L4,50 C4,53.309 6.691,56 10,56 L50,56 C53.309,56 56,53.309 56,50 L56,41.899 C58.279,41.434 60,39.415 60,37 L60,25 C60,22.586 58.279,20.566 56,20.101 L56,20.101 Z M58,25 C58,26.302 57.161,27.402 56,27.816 L56,22.185 C57.161,22.598 58,23.698 58,25 L58,25 Z M50,54 L10,54 C7.794,54 6,52.206 6,50 L6,16 C6,13.794 7.794,12 10,12 L50,12 C52.032,12 53.697,13.529 53.949,15.494 C52.892,14.567 51.513,14 50,14 L9,14 C8.448,14 8,14.448 8,15 C8,15.552 8.448,16 9,16 L50,16 C52.206,16 54,17.794 54,20 L54,28 L45,28 C41.14,28 38,31.14 38,35 C38,38.86 41.14,42 45,42 L54,42 L54,50 C54,52.206 52.206,54 50,54 L50,54 Z M55,40 L45,40 C42.243,40 40,37.757 40,35 C40,32.243 42.243,30 45,30 L55,30 C56.13,30 57.162,29.609 58,28.974 L58,37 C58,38.654 56.654,40 55,40 L55,40 Z" id="Shape" fill="#000000"></path>
    </g>
</svg>