<?xml version="1.0" encoding="UTF-8" standalone="no"?>
<svg width="64px" height="64px" viewBox="0 0 64 64" version="1.1" xmlns="http://www.w3.org/2000/svg" xmlns:xlink="http://www.w3.org/1999/xlink">
    <!-- Generator: Sketch 3.7.2 (28276) - http://www.bohemiancoding.com/sketch -->
    <title>sho-wallet-coins</title>
    <desc>Created with Sketch.</desc>
    <defs></defs>
    <g id="64px-Line" stroke="none" stroke-width="1" fill="none" fill-rule="evenodd">
        <g id="sho-wallet-coins"></g>
        <path d="M43,40 C41.346,40 40,41.346 40,43 C40,44.654 41.346,46 43,46 C44.654,46 46,44.654 46,43 C46,41.346 44.654,40 43,40 L43,40 Z M43,44 C42.449,44 42,43.551 42,43 C42,42.449 42.449,42 43,42 C43.551,42 44,42.449 44,43 C44,43.551 43.551,44 43,44 L43,44 Z" id="Shape" fill="#000000"></path>
        <path d="M14,60 L48,60 C51.309,60 54,57.309 54,54 L54,49.899 C56.279,49.434 58,47.415 58,45 L58,33 C58,30.586 56.279,28.566 54,28.101 L54,28 C54,24.691 51.309,22 48,22 L34,22 C34,17.589 30.411,14 26,14 C21.589,14 18,17.589 18,22 L14,22 C10.691,22 8,24.691 8,28 L8,54 C8,57.309 10.691,60 14,60 L14,60 Z M53,48 L43,48 C40.243,48 38,45.757 38,43 C38,40.243 40.243,38 43,38 L53,38 C54.13,38 55.162,37.609 56,36.974 L56,45 C56,46.654 54.654,48 53,48 L53,48 Z M56,33 C56,34.302 55.161,35.402 54,35.816 L54,32 L54,30.184 C55.161,30.598 56,31.698 56,33 L56,33 Z M48,24 C50.032,24 51.697,25.529 51.949,27.494 C50.892,26.567 49.513,26 48,26 L32.922,26 C33.286,25.373 33.559,24.702 33.74,24 L48,24 L48,24 Z M26,16 C29.309,16 32,18.691 32,22 C32,23.493 31.452,24.899 30.462,26 L21.537,26 C20.547,24.899 20,23.496 20,22 C20,18.691 22.691,16 26,16 L26,16 Z M10,28 C10,25.794 11.794,24 14,24 L18.26,24 C18.44,24.702 18.712,25.374 19.076,26 L13,26 C12.448,26 12,26.448 12,27 C12,27.552 12.448,28 13,28 L21.081,28 C21.09,28 21.098,28.005 21.106,28.005 C21.114,28.005 21.122,28 21.131,28 L48,28 C50.206,28 52,29.794 52,32 L52,36 L43,36 C39.14,36 36,39.14 36,43 C36,46.86 39.14,50 43,50 L52,50 L52,54 C52,56.206 50.206,58 48,58 L14,58 C11.794,58 10,56.206 10,54 L10,28 L10,28 Z" id="Shape" fill="#000000"></path>
        <path d="M40,20 C44.411,20 48,16.411 48,12 C48,7.589 44.411,4 40,4 C35.589,4 32,7.589 32,12 C32,16.411 35.589,20 40,20 L40,20 Z M40,6 C43.309,6 46,8.691 46,12 C46,15.309 43.309,18 40,18 C36.691,18 34,15.309 34,12 C34,8.691 36.691,6 40,6 L40,6 Z" id="Shape" fill="#000000"></path>
    </g>
</svg>