<?xml version="1.0" encoding="UTF-8" standalone="no"?>
<svg width="64px" height="64px" viewBox="0 0 64 64" version="1.1" xmlns="http://www.w3.org/2000/svg" xmlns:xlink="http://www.w3.org/1999/xlink">
    <!-- Generator: Sketch 3.7.2 (28276) - http://www.bohemiancoding.com/sketch -->
    <title>sho-box-closed</title>
    <desc>Created with Sketch.</desc>
    <defs></defs>
    <g id="64px-Line" stroke="none" stroke-width="1" fill="none" fill-rule="evenodd">
        <g id="sho-box-closed"></g>
        <path d="M57.98,16.853 C57.965,16.754 57.937,16.66 57.894,16.571 C57.887,16.557 57.888,16.541 57.881,16.527 C57.878,16.521 57.872,16.519 57.87,16.513 C57.813,16.412 57.738,16.323 57.648,16.247 C57.625,16.228 57.602,16.213 57.577,16.195 C57.542,16.17 57.512,16.14 57.473,16.12 L31.473,2.12 C31.178,1.962 30.821,1.962 30.526,2.12 L4.526,16.12 C4.488,16.14 4.458,16.17 4.424,16.194 C4.399,16.212 4.374,16.227 4.35,16.248 C4.261,16.324 4.186,16.412 4.13,16.513 C4.127,16.518 4.121,16.521 4.118,16.527 C4.11,16.541 4.111,16.557 4.104,16.572 C4.061,16.661 4.034,16.755 4.019,16.853 C4.014,16.884 4.008,16.913 4.007,16.944 C4.007,16.963 4,16.981 4,17 L4,47 C4,47.368 4.202,47.706 4.526,47.881 L30.526,61.881 C30.544,61.891 30.564,61.894 30.582,61.903 C30.606,61.914 30.629,61.922 30.654,61.931 C30.766,61.973 30.882,62.001 31,62.001 C31.118,62.001 31.234,61.973 31.346,61.931 C31.371,61.922 31.394,61.914 31.418,61.903 C31.436,61.895 31.456,61.891 31.474,61.881 L57.474,47.881 C57.798,47.706 58,47.368 58,47 L58,17 C58,16.981 57.993,16.963 57.992,16.943 C57.991,16.913 57.984,16.883 57.98,16.853 L57.98,16.853 Z M31,4.136 L54.89,17 L44.543,22.572 L20.627,9.722 L31,4.136 L31,4.136 Z M31,29.864 L7.11,17 L18.516,10.858 L42.433,23.708 L31,29.864 L31,29.864 Z M6,18.674 L30,31.597 L30,59.325 L6,46.402 L6,18.674 L6,18.674 Z M32,59.326 L32,31.598 L56,18.675 L56,46.403 L32,59.326 L32,59.326 Z" id="Shape" fill="#000000"></path>
    </g>
</svg>