<?xml version="1.0" encoding="UTF-8" standalone="no"?>
<svg width="64px" height="64px" viewBox="0 0 64 64" version="1.1" xmlns="http://www.w3.org/2000/svg" xmlns:xlink="http://www.w3.org/1999/xlink">
    <!-- Generator: Sketch 3.7.2 (28276) - http://www.bohemiancoding.com/sketch -->
    <title>sho-cash-box</title>
    <desc>Created with Sketch.</desc>
    <defs></defs>
    <g id="64px-Line" stroke="none" stroke-width="1" fill="none" fill-rule="evenodd">
        <g id="sho-cash-box"></g>
        <path d="M3,24 L4,24 L4,50 C4,52.206 5.794,54 8,54 L54,54 C56.206,54 58,52.206 58,50 L58,24 L59,24 C59.552,24 60,23.553 60,23 L60,16 C60,13.794 58.206,12 56,12 L6,12 C3.794,12 2,13.794 2,16 L2,23 C2,23.553 2.448,24 3,24 L3,24 Z M56,50 C56,51.103 55.103,52 54,52 L8,52 C6.897,52 6,51.103 6,50 L6,24 L56,24 L56,50 L56,50 Z M4,16 C4,14.897 4.897,14 6,14 L56,14 C57.103,14 58,14.897 58,16 L58,22 L4,22 L4,16 L4,16 Z" id="Shape" fill="#000000"></path>
        <path d="M30,37.816 L30,41 C30,41.553 30.448,42 31,42 C31.552,42 32,41.553 32,41 L32,37.816 C33.161,37.402 34,36.302 34,35 C34,33.346 32.654,32 31,32 C29.346,32 28,33.346 28,35 C28,36.302 28.839,37.402 30,37.816 L30,37.816 Z M31,34 C31.551,34 32,34.448 32,35 C32,35.552 31.551,36 31,36 C30.449,36 30,35.552 30,35 C30,34.448 30.449,34 31,34 L31,34 Z" id="Shape" fill="#000000"></path>
    </g>
</svg>