<?xml version="1.0" encoding="UTF-8" standalone="no"?>
<svg width="64px" height="64px" viewBox="0 0 64 64" version="1.1" xmlns="http://www.w3.org/2000/svg" xmlns:xlink="http://www.w3.org/1999/xlink">
    <!-- Generator: Sketch 3.7.2 (28276) - http://www.bohemiancoding.com/sketch -->
    <title>sho-tag-cut</title>
    <desc>Created with Sketch.</desc>
    <defs></defs>
    <g id="64px-Line" stroke="none" stroke-width="1" fill="none" fill-rule="evenodd">
        <g id="sho-tag-cut"></g>
        <path d="M47,12 C44.243,12 42,14.243 42,17 C42,19.757 44.243,22 47,22 C49.757,22 52,19.757 52,17 C52,14.243 49.757,12 47,12 L47,12 Z M47,20 C45.346,20 44,18.654 44,17 C44,15.346 45.346,14 47,14 C48.654,14 50,15.346 50,17 C50,18.654 48.654,20 47,20 L47,20 Z" id="Shape" fill="#000000"></path>
        <path d="M53.992,6 L39.955,6 C38.885,6 37.878,6.417 37.105,7.19 L26.277,18.514 C26.1,18.7 26,18.948 26,19.205 L26,23 C26,23.552 26.447,24 27,24 L32,24 L32,29 C32,29.552 32.447,30 33,30 L34,30 L34,35 C34,35.553 34.447,36 35,36 L38,36 L38,42.58 C38,42.98 38.239,43.343 38.607,43.5 C38.734,43.554 38.867,43.58 39,43.58 C39.253,43.58 39.502,43.484 39.692,43.302 L56.827,26.879 C57.583,26.121 58,25.115 58,24.046 L58,10.009 C58,7.798 56.202,6 53.992,6 L53.992,6 Z M56,24.045 C56,24.581 55.791,25.085 55.427,25.45 L40,40.236 L40,35 C40,34.447 39.553,34 39,34 L36,34 L36,29 C36,28.448 35.553,28 35,28 L34,28 L34,23 C34,22.448 33.553,22 33,22 L28,22 L28,19.606 L38.535,8.588 C38.914,8.209 39.419,8 39.955,8 L53.992,8 C55.099,8 56,8.901 56,10.008 L56,24.045 L56,24.045 Z" id="Shape" fill="#000000"></path>
        <path d="M23.375,22.278 C22.998,22.124 22.564,22.216 22.281,22.509 L7.174,38.123 C5.612,39.685 5.612,42.228 7.174,43.791 L20.208,56.825 C20.966,57.582 21.973,57.999 23.043,57.999 C24.113,57.999 25.12,57.582 25.865,56.836 L35.696,47.297 C35.89,47.109 36,46.85 36,46.579 L36,39 C36,38.447 35.553,38 35,38 L32,38 L32,33 C32,32.448 31.553,32 31,32 L30,32 L30,27 C30,26.448 29.553,26 29,26 L24,26 L24,23.205 C24,22.798 23.753,22.431 23.375,22.278 L23.375,22.278 Z M28,28 L28,33 C28,33.553 28.447,34 29,34 L30,34 L30,39 C30,39.553 30.447,40 31,40 L34,40 L34,46.157 L24.462,55.412 C23.703,56.171 22.381,56.169 21.622,55.412 L8.588,42.378 C7.805,41.595 7.805,40.321 8.6,39.526 L22,25.676 L22,27 C22,27.552 22.447,28 23,28 L28,28 L28,28 Z" id="Shape" fill="#000000"></path>
    </g>
</svg>