<?xml version="1.0" encoding="UTF-8" standalone="no"?>
<svg width="64px" height="64px" viewBox="0 0 64 64" version="1.1" xmlns="http://www.w3.org/2000/svg" xmlns:xlink="http://www.w3.org/1999/xlink">
    <!-- Generator: Sketch 3.7.2 (28276) - http://www.bohemiancoding.com/sketch -->
    <title>sho-sale-percentage</title>
    <desc>Created with Sketch.</desc>
    <defs></defs>
    <g id="64px-Line" stroke="none" stroke-width="1" fill="none" fill-rule="evenodd">
        <g id="sho-sale-percentage"></g>
        <path d="M56.573,27.111 C56.496,26.723 56.977,25.421 57.264,24.642 C57.865,23.017 58.188,22.061 57.868,21.285 C57.547,20.509 56.639,20.06 55.063,19.335 C54.31,18.988 53.05,18.409 52.832,18.08 C52.612,17.751 52.559,16.366 52.526,15.538 C52.458,13.805 52.391,12.795 51.797,12.201 C51.203,11.608 50.193,11.541 48.46,11.473 C47.632,11.441 46.246,11.387 45.918,11.167 C45.589,10.947 45.01,9.688 44.663,8.937 C43.937,7.36 43.488,6.453 42.711,6.13 C41.937,5.809 40.98,6.134 39.356,6.734 C38.578,7.021 37.269,7.501 36.886,7.424 C36.498,7.347 35.48,6.405 34.871,5.842 C33.601,4.666 32.839,4 32,4 C31.16,4 30.399,4.667 29.126,5.844 C28.518,6.406 27.499,7.348 27.11,7.426 C26.729,7.507 25.421,7.023 24.642,6.735 C23.017,6.134 22.061,5.811 21.285,6.131 C20.509,6.453 20.06,7.36 19.335,8.936 C18.989,9.688 18.409,10.948 18.08,11.167 C17.752,11.386 16.366,11.44 15.538,11.473 C13.805,11.54 12.795,11.608 12.2,12.202 C11.607,12.796 11.541,13.805 11.472,15.538 C11.44,16.366 11.386,17.752 11.167,18.08 C10.947,18.409 9.688,18.989 8.935,19.335 C7.36,20.06 6.452,20.508 6.13,21.286 C5.81,22.06 6.134,23.018 6.734,24.643 C7.021,25.421 7.503,26.723 7.425,27.111 C7.348,27.499 6.405,28.516 5.843,29.125 C4.667,30.399 4,31.161 4,32 C4,32.839 4.667,33.602 5.845,34.875 C6.407,35.483 7.35,36.501 7.427,36.89 C7.504,37.277 7.024,38.578 6.736,39.357 C6.135,40.982 5.811,41.939 6.132,42.715 C6.453,43.491 7.361,43.94 8.937,44.665 C9.69,45.011 10.95,45.591 11.168,45.92 C11.388,46.248 11.441,47.634 11.474,48.462 C11.542,50.195 11.609,51.205 12.203,51.8 C12.797,52.393 13.807,52.459 15.54,52.528 C16.368,52.56 17.754,52.614 18.082,52.833 C18.411,53.053 18.991,54.312 19.337,55.065 C20.063,56.64 20.511,57.548 21.289,57.871 C22.064,58.191 23.021,57.864 24.644,57.266 C25.423,56.978 26.734,56.499 27.113,56.575 C27.501,56.652 28.518,57.595 29.127,58.157 C30.398,59.333 31.16,60 32,60 C32.84,60 33.601,59.334 34.874,58.155 C35.482,57.593 36.5,56.65 36.89,56.573 C37.282,56.494 38.581,56.977 39.358,57.264 C40.983,57.865 41.938,58.189 42.714,57.868 C43.49,57.547 43.94,56.639 44.665,55.062 C45.012,54.309 45.591,53.05 45.92,52.832 C46.248,52.612 47.634,52.559 48.462,52.526 C50.195,52.458 51.205,52.391 51.8,51.797 C52.393,51.203 52.459,50.193 52.528,48.46 C52.56,47.632 52.614,46.246 52.833,45.918 C53.053,45.589 54.312,45.009 55.065,44.663 C56.64,43.937 57.548,43.489 57.871,42.711 C58.189,41.937 57.866,40.98 57.266,39.356 C56.979,38.578 56.497,37.276 56.575,36.887 C56.652,36.499 57.595,35.482 58.157,34.873 C59.335,33.6 60.002,32.837 60.002,31.998 C60.002,31.159 59.335,30.397 58.157,29.123 C57.593,28.517 56.65,27.499 56.573,27.111 L56.573,27.111 Z M56.687,33.517 C55.716,34.567 54.8,35.558 54.613,36.497 C54.425,37.439 54.893,38.708 55.389,40.051 C55.613,40.656 55.94,41.54 55.988,41.937 C55.675,42.183 54.816,42.578 54.228,42.848 C52.93,43.446 51.704,44.011 51.169,44.809 C50.637,45.607 50.584,46.956 50.528,48.384 C50.503,49.031 50.466,49.975 50.359,50.36 C49.974,50.467 49.031,50.504 48.383,50.529 C46.955,50.585 45.606,50.637 44.808,51.171 C44.01,51.705 43.446,52.93 42.848,54.228 C42.577,54.817 42.182,55.675 41.935,55.989 C41.539,55.941 40.656,55.614 40.05,55.39 C38.708,54.895 37.439,54.426 36.497,54.614 C35.555,54.802 34.564,55.718 33.515,56.689 C33.04,57.128 32.347,57.77 31.999,57.965 C31.651,57.77 30.958,57.128 30.482,56.688 C29.432,55.717 28.441,54.801 27.502,54.614 C27.356,54.585 27.202,54.571 27.041,54.571 C26.165,54.571 25.083,54.971 23.948,55.39 C23.343,55.614 22.459,55.941 22.062,55.989 C21.816,55.676 21.421,54.817 21.151,54.229 C20.553,52.931 19.988,51.705 19.19,51.17 C18.392,50.638 17.043,50.585 15.615,50.529 C14.968,50.504 14.024,50.467 13.639,50.36 C13.532,49.975 13.495,49.032 13.47,48.384 C13.414,46.956 13.362,45.607 12.828,44.809 C12.294,44.011 11.068,43.446 9.77,42.848 C9.182,42.577 8.324,42.183 8.01,41.936 C8.058,41.54 8.385,40.657 8.609,40.05 C9.105,38.707 9.574,37.44 9.385,36.498 C9.197,35.558 8.281,34.566 7.311,33.517 C6.871,33.041 6.229,32.348 6.034,32 C6.229,31.652 6.871,30.958 7.311,30.483 C8.282,29.434 9.198,28.443 9.385,27.503 C9.573,26.561 9.105,25.293 8.609,23.95 C8.385,23.344 8.058,22.46 8.01,22.064 C8.323,21.818 9.182,21.423 9.77,21.152 C11.068,20.554 12.294,19.99 12.829,19.191 C13.361,18.394 13.414,17.045 13.47,15.616 C13.495,14.969 13.532,14.025 13.639,13.641 C14.024,13.534 14.967,13.496 15.615,13.472 C17.043,13.416 18.392,13.364 19.19,12.831 C19.988,12.297 20.553,11.071 21.151,9.773 C21.422,9.185 21.816,8.327 22.063,8.013 C22.458,8.061 23.342,8.388 23.948,8.612 C25.29,9.108 26.558,9.578 27.5,9.388 C28.441,9.201 29.434,8.284 30.482,7.313 C30.958,6.874 31.651,6.232 31.999,6.037 C32.347,6.232 33.039,6.873 33.515,7.313 C34.565,8.284 35.556,9.201 36.496,9.388 C37.434,9.575 38.706,9.109 40.05,8.612 C40.655,8.388 41.539,8.062 41.935,8.013 C42.181,8.327 42.577,9.186 42.848,9.774 C43.446,11.072 44.01,12.298 44.808,12.831 C45.606,13.364 46.955,13.416 48.383,13.472 C49.03,13.497 49.974,13.534 50.359,13.641 C50.466,14.025 50.503,14.969 50.528,15.616 C50.584,17.044 50.636,18.393 51.17,19.191 C51.703,19.989 52.93,20.554 54.228,21.151 C54.816,21.422 55.673,21.817 55.988,22.063 C55.94,22.459 55.613,23.342 55.389,23.948 C54.893,25.291 54.424,26.559 54.613,27.501 C54.801,28.442 55.717,29.433 56.687,30.482 C57.127,30.958 57.769,31.651 57.964,31.999 C57.769,32.348 57.127,33.041 56.687,33.517 L56.687,33.517 Z" id="Shape" fill="#000000"></path>
        <path d="M42.293,20.293 L20.293,42.293 C19.902,42.684 19.902,43.316 20.293,43.707 C20.488,43.902 20.744,44 21,44 C21.256,44 21.512,43.902 21.707,43.707 L43.707,21.707 C44.098,21.316 44.098,20.684 43.707,20.293 C43.316,19.902 42.684,19.902 42.293,20.293 L42.293,20.293 Z" id="Shape" fill="#000000"></path>
        <path d="M25,30 C27.757,30 30,27.757 30,25 C30,22.243 27.757,20 25,20 C22.243,20 20,22.243 20,25 C20,27.757 22.243,30 25,30 L25,30 Z M25,22 C26.654,22 28,23.346 28,25 C28,26.654 26.654,28 25,28 C23.346,28 22,26.654 22,25 C22,23.346 23.346,22 25,22 L25,22 Z" id="Shape" fill="#000000"></path>
        <path d="M39,34 C36.243,34 34,36.243 34,39 C34,41.757 36.243,44 39,44 C41.757,44 44,41.757 44,39 C44,36.243 41.757,34 39,34 L39,34 Z M39,42 C37.346,42 36,40.654 36,39 C36,37.346 37.346,36 39,36 C40.654,36 42,37.346 42,39 C42,40.654 40.654,42 39,42 L39,42 Z" id="Shape" fill="#000000"></path>
    </g>
</svg>