<?xml version="1.0" encoding="UTF-8" standalone="no"?>
<svg width="64px" height="64px" viewBox="0 0 64 64" version="1.1" xmlns="http://www.w3.org/2000/svg" xmlns:xlink="http://www.w3.org/1999/xlink">
    <!-- Generator: Sketch 3.7.2 (28276) - http://www.bohemiancoding.com/sketch -->
    <title>sho-bag</title>
    <desc>Created with Sketch.</desc>
    <defs></defs>
    <g id="64px-Line" stroke="none" stroke-width="1" fill="none" fill-rule="evenodd">
        <g id="sho-bag"></g>
        <path d="M7,60 L57,60 C57.552,60 58,59.552 58,59 L58,21 C58,20.448 57.552,20 57,20 L44,20 L44,16 C44,9.383 38.617,4 32,4 C25.383,4 20,9.383 20,16 L20,20 L7,20 C6.448,20 6,20.448 6,21 L6,59 C6,59.552 6.448,60 7,60 L7,60 Z M22,16 C22,10.486 26.486,6 32,6 C37.514,6 42,10.486 42,16 L42,20 L22,20 L22,16 L22,16 Z M8,22 L20,22 L20,27 C20,27.552 20.448,28 21,28 C21.552,28 22,27.552 22,27 L22,22 L42,22 L42,27 C42,27.552 42.448,28 43,28 C43.552,28 44,27.552 44,27 L44,22 L56,22 L56,58 L8,58 L8,22 L8,22 Z" id="Shape" fill="#000000"></path>
    </g>
</svg>