<?xml version="1.0" encoding="UTF-8" standalone="no"?>
<svg width="64px" height="64px" viewBox="0 0 64 64" version="1.1" xmlns="http://www.w3.org/2000/svg" xmlns:xlink="http://www.w3.org/1999/xlink">
    <!-- Generator: Sketch 3.7.2 (28276) - http://www.bohemiancoding.com/sketch -->
    <title>sho-basket-search</title>
    <desc>Created with Sketch.</desc>
    <defs></defs>
    <g id="64px-Line" stroke="none" stroke-width="1" fill="none" fill-rule="evenodd">
        <g id="sho-basket-search"></g>
        <path d="M50,34 C44.486,34 40,38.486 40,44 C40,46.398 40.85,48.6 42.262,50.324 L34.293,58.293 C33.902,58.684 33.902,59.316 34.293,59.707 C34.488,59.902 34.744,60 35,60 C35.256,60 35.512,59.902 35.707,59.707 L43.676,51.738 C45.4,53.15 47.603,54 50,54 C55.514,54 60,49.514 60,44 C60,38.486 55.514,34 50,34 L50,34 Z M50,52 C45.589,52 42,48.411 42,44 C42,39.589 45.589,36 50,36 C54.411,36 58,39.589 58,44 C58,48.411 54.411,52 50,52 L50,52 Z" id="Shape" fill="#000000"></path>
        <path d="M27.53,6.152 C27.061,5.86 26.444,6.002 26.152,6.47 L16.152,22.47 C15.859,22.938 16.002,23.555 16.469,23.848 C16.634,23.951 16.818,24 16.998,24 C17.331,24 17.657,23.833 17.847,23.53 L27.847,7.53 C28.141,7.062 27.998,6.445 27.53,6.152 L27.53,6.152 Z" id="Shape" fill="#000000"></path>
        <path d="M43.001,24 C43.182,24 43.365,23.951 43.53,23.848 C43.998,23.555 44.14,22.938 43.847,22.47 L33.847,6.47 C33.555,6.002 32.939,5.859 32.469,6.152 C32.001,6.445 31.859,7.062 32.152,7.53 L42.152,23.53 C42.342,23.833 42.668,24 43.001,24 L43.001,24 Z" id="Shape" fill="#000000"></path>
        <path d="M22,21 C22,21.552 22.447,22 23,22 L37,22 C37.553,22 38,21.552 38,21 C38,20.448 37.553,20 37,20 L23,20 C22.447,20 22,20.448 22,21 L22,21 Z" id="Shape" fill="#000000"></path>
        <path d="M13,22 C13.553,22 14,21.552 14,21 C14,20.448 13.553,20 13,20 L5,20 C4.447,20 4,20.448 4,21 L4.004,24.087 C4.133,25.568 4.942,26.794 6.075,27.46 L10.01,46.15 C10.232,48.349 11.937,50 14,50 L38,50 C38.553,50 39,49.552 39,49 C39,48.448 38.553,48 38,48 L14,48 C12.817,48 12.085,46.925 11.996,45.913 C11.993,45.873 11.987,45.833 11.978,45.794 L8.232,28 L51.764,28 L51.168,30.792 C51.053,31.332 51.397,31.863 51.937,31.979 C52.007,31.994 52.078,32.001 52.147,32.001 C52.609,32.001 53.024,31.679 53.124,31.209 L53.923,27.462 C55.012,26.814 55.793,25.627 55.991,24.131 C55.997,24.088 56,24.044 56,24 L56,21 C56,20.448 55.553,20 55,20 L47,20 C46.447,20 46,20.448 46,21 C46,21.552 46.447,22 47,22 L54,22 L54,23.93 C53.843,24.971 53.17,26 52,26 L8,26 C6.817,26 6.085,24.925 6,24 L6,22 L13,22 L13,22 Z" id="Shape" fill="#000000"></path>
    </g>
</svg>