<?xml version="1.0" encoding="UTF-8" standalone="no"?>
<svg width="64px" height="64px" viewBox="0 0 64 64" version="1.1" xmlns="http://www.w3.org/2000/svg" xmlns:xlink="http://www.w3.org/1999/xlink">
    <!-- Generator: Sketch 3.7.2 (28276) - http://www.bohemiancoding.com/sketch -->
    <title>sho-tag-yen-yuan</title>
    <desc>Created with Sketch.</desc>
    <defs></defs>
    <g id="64px-Line" stroke="none" stroke-width="1" fill="none" fill-rule="evenodd">
        <g id="sho-tag-yen-yuan"></g>
        <path d="M47,22 C49.757,22 52,19.757 52,17 C52,14.243 49.757,12 47,12 C44.243,12 42,14.243 42,17 C42,19.757 44.243,22 47,22 L47,22 Z M47,14 C48.654,14 50,15.346 50,17 C50,18.654 48.654,20 47,20 C45.346,20 44,18.654 44,17 C44,15.346 45.346,14 47,14 L47,14 Z" id="Shape" fill="#000000"></path>
        <path d="M6,38 C6,39.068 6.416,40.073 7.172,40.829 L23.172,56.829 C23.927,57.585 24.932,58.001 26,58.001 L26.001,58.001 C27.068,58 28.073,57.584 28.815,56.842 L56.828,29.829 C57.584,29.074 58,28.069 58,27.001 L58,10.001 C58,7.795 56.206,6.001 54,6.001 L37,6.001 C35.932,6.001 34.928,6.417 34.159,7.186 L7.172,35.174 C6.416,35.928 6,36.932 6,38 L6,38 Z M8.599,36.574 L35.586,8.586 C35.964,8.208 36.466,8 37,8 L54,8 C55.103,8 56,8.897 56,10 L56,27 C56,27.534 55.792,28.036 55.427,28.401 L27.414,55.414 C26.635,56.193 25.365,56.193 24.586,55.414 L8.586,39.414 C8.208,39.037 8,38.534 8,38 C8,37.467 8.208,36.965 8.599,36.574 L8.599,36.574 Z" id="Shape" fill="#000000"></path>
        <path d="M23,42.001 C23.256,42.001 23.512,41.903 23.707,41.708 L28.272,37.143 L30.393,39.264 C30.588,39.459 30.844,39.557 31.1,39.557 C31.356,39.557 31.612,39.459 31.807,39.264 C32.198,38.873 32.198,38.241 31.807,37.85 L29.686,35.729 L31.101,34.315 L33.222,36.436 C33.417,36.631 33.673,36.729 33.929,36.729 C34.185,36.729 34.441,36.631 34.636,36.436 C35.027,36.045 35.027,35.413 34.636,35.022 L33.197,33.583 L41.197,31.983 C41.738,31.875 42.09,31.348 41.981,30.806 C41.873,30.265 41.351,29.915 40.804,30.022 L32.275,31.728 L33.981,23.199 C34.089,22.657 33.738,22.131 33.197,22.022 C32.649,21.913 32.128,22.265 32.02,22.806 L30.42,30.806 L28.98,29.366 C28.589,28.975 27.957,28.975 27.566,29.366 C27.175,29.757 27.175,30.389 27.566,30.78 L29.687,32.901 L28.273,34.315 L26.152,32.194 C25.761,31.803 25.129,31.803 24.738,32.194 C24.347,32.585 24.347,33.218 24.738,33.609 L26.859,35.73 L22.294,40.296 C21.903,40.687 21.903,41.319 22.294,41.71 C22.488,41.903 22.744,42.001 23,42.001 L23,42.001 Z" id="Shape" fill="#000000"></path>
    </g>
</svg>