<?xml version="1.0" encoding="UTF-8" standalone="no"?>
<svg width="64px" height="64px" viewBox="0 0 64 64" version="1.1" xmlns="http://www.w3.org/2000/svg" xmlns:xlink="http://www.w3.org/1999/xlink">
    <!-- Generator: Sketch 3.7.2 (28276) - http://www.bohemiancoding.com/sketch -->
    <title>sho-sale-half</title>
    <desc>Created with Sketch.</desc>
    <defs></defs>
    <g id="64px-Line" stroke="none" stroke-width="1" fill="none" fill-rule="evenodd">
        <g id="sho-sale-half"></g>
        <path d="M7.427,36.89 C7.504,37.277 7.024,38.578 6.736,39.357 C6.135,40.982 5.811,41.939 6.132,42.715 C6.453,43.491 7.361,43.94 8.937,44.665 C9.69,45.011 10.95,45.591 11.168,45.92 C11.388,46.248 11.441,47.634 11.474,48.462 C11.542,50.195 11.609,51.205 12.203,51.8 C12.797,52.393 13.807,52.459 15.54,52.528 C16.368,52.56 17.754,52.614 18.082,52.833 C18.411,53.053 18.991,54.312 19.337,55.065 C20.063,56.64 20.511,57.548 21.289,57.871 C22.063,58.191 23.021,57.864 24.644,57.266 C25.423,56.978 26.731,56.499 27.113,56.575 C27.501,56.652 28.518,57.595 29.127,58.157 C30.398,59.333 31.16,60 32,60 C32.84,60 33.601,59.334 34.874,58.155 C35.482,57.593 36.5,56.65 36.89,56.573 C37.282,56.494 38.581,56.977 39.358,57.264 C40.982,57.865 41.936,58.189 42.714,57.868 C43.49,57.547 43.94,56.639 44.665,55.062 C45.012,54.309 45.591,53.05 45.92,52.832 C46.248,52.612 47.634,52.559 48.462,52.526 C50.195,52.458 51.205,52.391 51.8,51.797 C52.393,51.203 52.459,50.193 52.528,48.46 C52.56,47.632 52.614,46.246 52.833,45.918 C53.053,45.589 54.312,45.009 55.065,44.663 C56.64,43.937 57.548,43.489 57.871,42.711 C58.189,41.937 57.866,40.98 57.266,39.356 C56.979,38.578 56.497,37.276 56.575,36.887 C56.652,36.499 57.595,35.482 58.157,34.873 C59.335,33.6 60.002,32.837 60.002,31.998 C60.002,31.159 59.335,30.397 58.157,29.123 C57.595,28.515 56.652,27.497 56.575,27.109 C56.498,26.721 56.979,25.419 57.266,24.64 C57.867,23.015 58.19,22.059 57.87,21.283 C57.549,20.507 56.641,20.058 55.065,19.333 C54.312,18.986 53.052,18.407 52.834,18.078 C52.614,17.749 52.561,16.364 52.528,15.536 C52.46,13.803 52.393,12.793 51.799,12.199 C51.205,11.606 50.195,11.539 48.462,11.471 C47.634,11.439 46.248,11.385 45.92,11.165 C45.591,10.945 45.012,9.686 44.665,8.935 C43.939,7.358 43.49,6.451 42.713,6.128 C41.939,5.807 40.982,6.132 39.358,6.732 C38.58,7.019 37.274,7.499 36.888,7.422 C36.5,7.345 35.482,6.403 34.873,5.84 C33.601,4.666 32.839,4 32,4 C31.16,4 30.399,4.667 29.126,5.844 C28.518,6.406 27.499,7.348 27.11,7.426 C26.727,7.507 25.421,7.023 24.642,6.735 C23.017,6.134 22.061,5.811 21.285,6.131 C20.509,6.453 20.06,7.36 19.335,8.936 C18.989,9.688 18.409,10.948 18.08,11.167 C17.752,11.386 16.366,11.44 15.538,11.473 C13.805,11.54 12.795,11.608 12.2,12.202 C11.607,12.796 11.541,13.805 11.472,15.538 C11.44,16.366 11.386,17.752 11.167,18.08 C10.947,18.409 9.688,18.989 8.935,19.335 C7.36,20.06 6.452,20.508 6.13,21.286 C5.81,22.06 6.134,23.018 6.734,24.643 C7.021,25.421 7.503,26.723 7.425,27.111 C7.348,27.499 6.405,28.516 5.843,29.125 C4.667,30.399 4,31.161 4,32 C4,32.839 4.667,33.602 5.845,34.875 C6.407,35.483 7.35,36.501 7.427,36.89 L7.427,36.89 Z M7.313,30.483 C8.284,29.434 9.2,28.443 9.387,27.503 C9.575,26.561 9.107,25.293 8.611,23.95 C8.387,23.344 8.06,22.46 8.012,22.064 C8.325,21.818 9.184,21.423 9.772,21.152 C11.07,20.554 12.296,19.99 12.831,19.191 C13.363,18.394 13.416,17.045 13.472,15.616 C13.497,14.969 13.534,14.025 13.641,13.641 C14.026,13.534 14.969,13.496 15.617,13.472 C17.045,13.416 18.394,13.364 19.192,12.831 C19.99,12.297 20.555,11.071 21.153,9.773 C21.424,9.185 21.818,8.327 22.065,8.013 C22.46,8.061 23.344,8.388 23.95,8.612 C25.293,9.108 26.562,9.578 27.502,9.388 C28.443,9.201 29.436,8.284 30.484,7.313 C30.96,6.874 31.653,6.232 32.001,6.037 C32.349,6.232 33.041,6.873 33.517,7.313 C34.567,8.284 35.558,9.201 36.498,9.388 C37.435,9.575 38.708,9.109 40.052,8.612 C40.657,8.388 41.541,8.062 41.937,8.013 C42.183,8.327 42.579,9.186 42.85,9.774 C43.448,11.072 44.012,12.298 44.81,12.831 C45.608,13.364 46.957,13.416 48.385,13.472 C49.032,13.497 49.976,13.534 50.361,13.641 C50.468,14.025 50.505,14.969 50.53,15.616 C50.586,17.044 50.638,18.393 51.172,19.191 C51.705,19.989 52.932,20.554 54.23,21.151 C54.818,21.422 55.675,21.817 55.99,22.063 C55.942,22.459 55.615,23.342 55.391,23.948 C54.895,25.291 54.426,26.559 54.615,27.501 C54.803,28.442 55.719,29.433 56.689,30.482 C57.129,30.958 57.771,31.651 57.966,31.999 C57.771,32.347 57.129,33.04 56.689,33.516 C55.718,34.566 54.802,35.557 54.615,36.496 C54.427,37.438 54.895,38.707 55.391,40.05 C55.615,40.655 55.942,41.539 55.99,41.936 C55.677,42.182 54.818,42.577 54.23,42.847 C52.932,43.445 51.706,44.01 51.171,44.808 C50.639,45.606 50.586,46.955 50.53,48.383 C50.505,49.03 50.468,49.974 50.361,50.359 C49.976,50.466 49.033,50.503 48.385,50.528 C46.957,50.584 45.608,50.636 44.81,51.17 C44.012,51.704 43.448,52.929 42.85,54.227 C42.579,54.816 42.184,55.674 41.937,55.988 C41.541,55.94 40.658,55.613 40.052,55.389 C38.71,54.894 37.442,54.425 36.499,54.613 C35.558,54.801 34.566,55.717 33.517,56.688 C33.042,57.127 32.349,57.769 32.001,57.964 C31.653,57.769 30.96,57.127 30.484,56.687 C29.434,55.716 28.443,54.8 27.504,54.613 C27.358,54.584 27.204,54.57 27.043,54.57 C26.167,54.57 25.085,54.97 23.95,55.389 C23.345,55.613 22.461,55.94 22.064,55.988 C21.818,55.675 21.423,54.816 21.153,54.228 C20.555,52.93 19.99,51.704 19.192,51.169 C18.394,50.637 17.045,50.584 15.617,50.528 C14.97,50.503 14.026,50.466 13.641,50.359 C13.534,49.974 13.497,49.031 13.472,48.383 C13.416,46.955 13.364,45.606 12.83,44.808 C12.296,44.01 11.07,43.445 9.772,42.847 C9.184,42.576 8.326,42.182 8.012,41.935 C8.06,41.539 8.387,40.656 8.611,40.049 C9.107,38.706 9.576,37.439 9.387,36.497 C9.199,35.557 8.283,34.565 7.313,33.516 C6.873,33.04 6.231,32.347 6.036,31.999 C6.231,31.652 6.873,30.958 7.313,30.483 L7.313,30.483 Z" id="Shape" fill="#000000"></path>
        <path d="M21,42 C21.256,42 21.512,41.902 21.707,41.707 L43.707,19.707 C44.098,19.316 44.098,18.684 43.707,18.293 C43.316,17.902 42.684,17.902 42.293,18.293 L20.293,40.293 C19.902,40.684 19.902,41.316 20.293,41.707 C20.488,41.902 20.744,42 21,42 L21,42 Z" id="Shape" fill="#000000"></path>
        <path d="M36,35 C36,35.553 36.447,36 37,36 C37.553,36 38,35.553 38,35 C38,33.507 38.928,32 41,32 C43.072,32 44,33.507 44,35 C44,36.991 42.669,37.869 40.496,39.137 C38.389,40.365 36,41.759 36,45 C36,45.553 36.447,46 37,46 L45,46 C45.553,46 46,45.553 46,45 C46,44.447 45.553,44 45,44 L38.134,44 C38.522,42.671 39.734,41.896 41.504,40.863 C43.611,39.634 46,38.241 46,35 C46,32.515 44.282,30 41,30 C37.718,30 36,32.515 36,35 L36,35 Z" id="Shape" fill="#000000"></path>
        <path d="M23,18 C23.351,18 23.688,17.939 24,17.829 L24,29 C24,29.552 24.447,30 25,30 C25.553,30 26,29.552 26,29 L26,15 C26,14.448 25.553,14 25,14 C24.447,14 24,14.448 24,15 C24,15.551 23.552,16 23,16 C22.447,16 22,16.448 22,17 C22,17.552 22.447,18 23,18 L23,18 Z" id="Shape" fill="#000000"></path>
    </g>
</svg>