<?xml version="1.0" encoding="UTF-8" standalone="no"?>
<svg width="64px" height="64px" viewBox="0 0 64 64" version="1.1" xmlns="http://www.w3.org/2000/svg" xmlns:xlink="http://www.w3.org/1999/xlink">
    <!-- Generator: Sketch 3.7.2 (28276) - http://www.bohemiancoding.com/sketch -->
    <title>sho-cart</title>
    <desc>Created with Sketch.</desc>
    <defs></defs>
    <g id="64px-Line" stroke="none" stroke-width="1" fill="none" fill-rule="evenodd">
        <g id="sho-cart"></g>
        <path d="M10,53 C10,54.654 11.346,56 13,56 C14.654,56 16,54.654 16,53 C16,51.346 14.654,50 13,50 C11.346,50 10,51.346 10,53 L10,53 Z M14,53 C14,53.551 13.552,54 13,54 C12.448,54 12,53.551 12,53 C12,52.449 12.448,52 13,52 C13.552,52 14,52.449 14,53 L14,53 Z" id="Shape" fill="#000000"></path>
        <path d="M57,50 C55.346,50 54,51.346 54,53 C54,54.654 55.346,56 57,56 C58.654,56 60,54.654 60,53 C60,51.346 58.654,50 57,50 L57,50 Z M57,54 C56.448,54 56,53.551 56,53 C56,52.449 56.448,52 57,52 C57.552,52 58,52.449 58,53 C58,53.551 57.552,54 57,54 L57,54 Z" id="Shape" fill="#000000"></path>
        <path d="M5,10 L9.264,10 L17.717,37.238 C13.178,38.462 10,43.644 10,47 C10,47.552 10.447,48 11,48 L59,48 C59.553,48 60,47.552 60,47 C60,46.448 59.553,46 59,46 L12.121,46 C12.714,43.329 15.426,39.39 19.1,38.995 L59.1,34.995 C59.611,34.944 60,34.514 60,34 L60,13 C60,12.448 59.553,12 59,12 L11.978,12 L10.955,8.704 C10.825,8.285 10.438,8 10,8 L5,8 C4.447,8 4,8.448 4,9 C4,9.552 4.447,10 5,10 L5,10 Z M58,14 L58,33.095 L19.713,36.924 L12.599,14 L58,14 L58,14 Z" id="Shape" fill="#000000"></path>
    </g>
</svg>