<?xml version="1.0" encoding="UTF-8" standalone="no"?>
<svg width="64px" height="64px" viewBox="0 0 64 64" version="1.1" xmlns="http://www.w3.org/2000/svg" xmlns:xlink="http://www.w3.org/1999/xlink">
    <!-- Generator: Sketch 3.7.2 (28276) - http://www.bohemiancoding.com/sketch -->
    <title>spa-moon</title>
    <desc>Created with Sketch.</desc>
    <defs></defs>
    <g id="64px-Glyph" stroke="none" stroke-width="1" fill="none" fill-rule="evenodd">
        <g id="spa-moon" fill="#000000">
            <path d="M46.9523,29.0693 C46.4263,29.2193 45.8703,28.9043 45.7233,28.3713 C45.2843,26.7823 44.5513,26.0403 44.3193,25.9993 C44.1113,26.1683 43.7263,27.6313 44.2773,29.6293 C44.7163,31.2173 45.4493,31.9603 45.6813,32.0013 C46.1683,31.7413 46.7353,31.9353 46.9953,32.4233 C47.2543,32.9113 47.0303,33.5233 46.5423,33.7823 C46.2683,33.9263 45.9733,34.0003 45.6703,34.0003 C45.4003,34.0003 45.1263,33.9423 44.8573,33.8263 C43.7943,33.3683 42.8563,31.9973 42.3493,30.1603 C41.7093,27.8393 41.8843,25.0523 43.4573,24.2173 C43.9753,23.9443 44.5733,23.9263 45.1423,24.1733 C46.2063,24.6323 47.1433,26.0033 47.6503,27.8403 C47.7983,28.3723 47.4843,28.9233 46.9523,29.0693 M37.2433,49.1533 C36.7123,49.3183 36.1553,49.0243 35.9903,48.4983 C35.8893,48.1763 34.9403,47.7943 33.6903,48.1333 C32.7923,48.3783 32.2603,48.8533 32.0783,49.1853 C32.0293,49.2743 31.9783,49.4013 32.0103,49.5023 C32.1113,49.8243 33.0593,50.2073 34.3093,49.8673 C34.8433,49.7203 35.3913,50.0353 35.5373,50.5693 C35.6823,51.1023 35.3683,51.6523 34.8353,51.7973 C34.3313,51.9333 33.8323,51.9993 33.3573,51.9993 C31.7843,51.9993 30.4723,51.2843 30.1023,50.0993 C29.9103,49.4883 29.9873,48.8403 30.3233,48.2253 C30.8263,47.3073 31.8893,46.5513 33.1653,46.2033 C35.3313,45.6133 37.4163,46.3573 37.8983,47.9003 C38.0633,48.4273 37.7693,48.9893 37.2433,49.1533 M18.1003,20.8183 C18.7233,22.2043 22.3783,22.5293 26.3353,20.8943 C26.8453,20.6833 27.4303,20.9263 27.6413,21.4363 C27.8523,21.9473 27.6093,22.5313 27.0983,22.7423 C25.0283,23.5983 23.0123,24.0143 21.2773,24.0143 C18.8523,24.0143 16.9783,23.2013 16.2763,21.6383 C15.8993,20.7993 15.9093,19.8293 16.3063,18.8333 C17.1413,16.7293 19.6683,14.5943 22.9013,13.2583 C27.8653,11.2063 32.5183,11.6803 33.7253,14.3613 C33.9513,14.8653 33.7273,15.4573 33.2233,15.6833 C32.7193,15.9083 32.1273,15.6833 31.9003,15.1813 C31.2773,13.7963 27.6223,13.4703 23.6653,15.1053 C20.9563,16.2253 18.7973,17.9783 18.1643,19.5713 C17.9703,20.0603 17.9483,20.4803 18.1003,20.8183 M18.8433,35.8323 C18.3183,36.0103 17.7533,35.7203 17.5803,35.1963 C17.0113,33.4763 16.0613,32.3983 15.3733,32.0923 C15.0263,31.9383 14.8503,32.0163 14.7923,32.0423 C14.1003,32.3483 13.6093,34.3553 14.4203,36.8023 C14.9893,38.5233 15.9383,39.6013 16.6273,39.9073 C16.9723,40.0593 17.1493,39.9833 17.2083,39.9583 C17.7113,39.7323 18.3033,39.9623 18.5263,40.4673 C18.7503,40.9723 18.5213,41.5633 18.0163,41.7863 C17.6933,41.9293 17.3523,42.0013 17.0033,42.0013 C16.6143,42.0013 16.2153,41.9123 15.8163,41.7353 C14.4423,41.1263 13.2113,39.5173 12.5213,37.4303 C11.4393,34.1633 12.0683,31.0593 13.9833,30.2133 C14.6683,29.9113 15.4293,29.9293 16.1843,30.2643 C17.5573,30.8743 18.7893,32.4823 19.4783,34.5693 C19.6523,35.0943 19.3673,35.6593 18.8433,35.8323 M31.0003,6.0003 C16.1123,6.0003 4.0003,18.1123 4.0003,33.0003 C4.0003,47.8873 16.1123,60.0003 31.0003,60.0003 C45.8883,60.0003 58.0003,47.8873 58.0003,33.0003 C58.0003,18.1123 45.8883,6.0003 31.0003,6.0003" id="Fill-313"></path>
        </g>
    </g>
</svg>