<?xml version="1.0" encoding="UTF-8" standalone="no"?>
<svg width="44px" height="44px" viewBox="0 0 44 44" version="1.1" xmlns="http://www.w3.org/2000/svg" xmlns:xlink="http://www.w3.org/1999/xlink">
    <!-- Generator: Sketch 3.7.2 (28276) - http://www.bohemiancoding.com/sketch -->
    <title>spa-stormtrooper</title>
    <desc>Created with Sketch.</desc>
    <defs></defs>
    <g id="44px-Glyph" stroke="none" stroke-width="1" fill="none" fill-rule="evenodd">
        <g id="spa-stormtrooper" fill="#000000">
            <polygon id="Fill-198" points="20 42 24 42 24 36 20 36"></polygon>
            <path d="M13.0002,20 C15.7862,20 18.5322,17.562 19.5652,16 L10.0992,16 C10.3102,17.468 10.9652,20 13.0002,20" id="Fill-199"></path>
            <path d="M31.0002,20 C33.1162,20 33.7372,17.459 33.9212,16 L24.4182,16 C25.4262,17.569 28.1412,20 31.0002,20" id="Fill-200"></path>
            <path d="M18.0002,27.0695 C17.2602,27.6935 16.5272,28.4005 15.8362,29.1135 C16.5422,28.8385 17.2692,28.5915 18.0002,28.3845 L18.0002,27.0695 Z" id="Fill-201"></path>
            <path d="M37.986,14 C37.803,6.917 35.465,0 22,0 C8.535,0 6.197,6.917 6.014,14 L37.986,14 Z" id="Fill-202"></path>
            <path d="M26.0002,28.3844 C26.7132,28.5854 27.4222,28.8254 28.1122,29.0924 C27.4352,28.3984 26.7202,27.7114 26.0002,27.1014 L26.0002,28.3844 Z" id="Fill-203"></path>
            <path d="M24.0002,25.6635 C23.2842,25.2555 22.6012,24.9995 22.0002,24.9995 C21.3922,24.9995 20.7112,25.2485 20.0002,25.6465 L20.0002,27.9345 C20.6902,27.8195 21.3642,27.7495 22.0002,27.7495 C22.6362,27.7495 23.3102,27.8195 24.0002,27.9335 L24.0002,25.6635 Z" id="Fill-204"></path>
            <path d="M38.7072,28.707 C38.5122,28.902 38.2562,29 38.0002,29 C37.7442,29 37.4882,28.902 37.2932,28.707 L35.2932,26.707 C34.9022,26.316 34.9022,25.684 35.2932,25.293 C35.6842,24.902 36.3162,24.902 36.7072,25.293 L38.7072,27.293 C39.0982,27.684 39.0982,28.316 38.7072,28.707 L38.7072,28.707 Z M36.2072,31.207 C36.0122,31.402 35.7562,31.5 35.5002,31.5 C35.2442,31.5 34.9882,31.402 34.7932,31.207 L32.7932,29.207 C32.4022,28.816 32.4022,28.184 32.7932,27.793 C33.1842,27.402 33.8162,27.402 34.2072,27.793 L36.2072,29.793 C36.5982,30.184 36.5982,30.816 36.2072,31.207 L36.2072,31.207 Z M33.7072,33.707 C33.3162,34.098 32.6842,34.098 32.2932,33.707 C30.9392,32.353 25.6602,29.75 22.0002,29.75 C18.2802,29.75 13.0992,32.317 11.7072,33.707 C11.5122,33.902 11.2562,34 11.0002,34 C10.7442,34 10.4872,33.902 10.2922,33.707 C9.9022,33.316 9.9022,32.683 10.2932,32.293 C10.5762,32.01 11.0302,31.483 11.5572,30.874 C14.0962,27.929 18.3472,23 22.0002,23 C25.5822,23 29.8782,27.935 32.4432,30.884 C32.9692,31.487 33.4222,32.007 33.7072,32.293 C34.0982,32.684 34.0982,33.316 33.7072,33.707 L33.7072,33.707 Z M31.0002,40 C29.2622,40 28.0002,39.159 28.0002,38 C28.0002,36.841 29.2622,36 31.0002,36 C32.7382,36 34.0002,36.841 34.0002,38 C34.0002,39.159 32.7382,40 31.0002,40 L31.0002,40 Z M13.0002,40 C11.2622,40 10.0002,39.159 10.0002,38 C10.0002,36.841 11.2622,36 13.0002,36 C14.7382,36 16.0002,36.841 16.0002,38 C16.0002,39.159 14.7382,40 13.0002,40 L13.0002,40 Z M8.5002,31.5 C8.2442,31.5 7.9882,31.402 7.7932,31.207 C7.4022,30.816 7.4022,30.184 7.7932,29.793 L9.7932,27.793 C10.1842,27.402 10.8162,27.402 11.2072,27.793 C11.5982,28.184 11.5982,28.816 11.2072,29.207 L9.2072,31.207 C9.0122,31.402 8.7562,31.5 8.5002,31.5 L8.5002,31.5 Z M6.7072,28.707 C6.5122,28.902 6.2562,29 6.0002,29 C5.7442,29 5.4882,28.902 5.2932,28.707 C4.9022,28.316 4.9022,27.684 5.2932,27.293 L7.2932,25.293 C7.6842,24.902 8.3162,24.902 8.7072,25.293 C9.0982,25.684 9.0982,26.316 8.7072,26.707 L6.7072,28.707 Z M39.7072,23.293 C38.8592,22.443 38.0452,21.342 38.0002,21 L38.0002,16 L35.9472,16 C35.6922,18.498 34.4592,22 31.0002,22 C27.1712,22 23.1492,18.512 22.2062,16 L21.7942,16 C20.8512,18.512 16.8292,22 13.0002,22 C9.6182,22 8.3552,18.584 8.0672,16 L6.0002,16 L6.0012,20.983 C5.9552,21.342 5.1412,22.443 4.3142,23.272 C4.2202,23.361 2.0002,25.491 2.0002,29 C2.0002,35.794 7.3892,44 14.0802,44 C15.7312,44 17.0492,43.508 18.0002,42.978 L18.0002,35 C18.0002,34.448 18.4472,34 19.0002,34 L25.0002,34 C25.5532,34 26.0002,34.448 26.0002,35 L26.0002,42.978 C26.9512,43.508 28.2692,44 29.9202,44 C36.6112,44 42.0002,35.794 42.0002,29 C42.0002,25.491 39.7802,23.361 39.7072,23.293 L39.7072,23.293 Z" id="Fill-205"></path>
        </g>
    </g>
</svg>