<?xml version="1.0" encoding="UTF-8" standalone="no"?>
<svg width="44px" height="44px" viewBox="0 0 44 44" version="1.1" xmlns="http://www.w3.org/2000/svg" xmlns:xlink="http://www.w3.org/1999/xlink">
    <!-- Generator: Sketch 3.7.2 (28276) - http://www.bohemiancoding.com/sketch -->
    <title>spa-enterprise</title>
    <desc>Created with Sketch.</desc>
    <defs></defs>
    <g id="44px-Line" stroke="none" stroke-width="1" fill="none" fill-rule="evenodd">
        <g id="spa-enterprise"></g>
        <path d="M31,18 C33.757,18 36,15.757 36,13 C36,10.243 33.757,8 31,8 C28.243,8 26,10.243 26,13 C26,15.757 28.243,18 31,18 L31,18 Z M31,10 C32.654,10 34,11.346 34,13 C34,14.654 32.654,16 31,16 C29.346,16 28,14.654 28,13 C28,11.346 29.346,10 31,10 L31,10 Z" id="Shape" fill="#000000"></path>
        <path d="M3,31.999 C3.769,31.999 4.536,31.707 5.121,31.122 L5.121,31.122 L10.242,26 L13.882,26 C12.963,27.522 12.416,28.574 12.366,28.671 C11.947,29.47 11.743,30.688 12.545,31.489 C12.934,31.879 13.432,31.999 13.899,31.999 C14.536,31.999 15.116,31.776 15.287,31.704 C15.324,31.688 15.361,31.67 15.396,31.65 C15.499,31.591 16.535,30.993 18,30.071 L18,33.758 L12.882,38.876 C12.881,38.877 12.88,38.877 12.879,38.878 L12.879,38.878 C12.312,39.445 12,40.199 12,41 C12,41.801 12.312,42.555 12.879,43.121 C13.464,43.706 14.232,43.998 15,43.998 C15.768,43.998 16.536,43.706 17.121,43.121 C17.122,43.12 17.122,43.119 17.123,43.118 L27.121,33.121 C27.688,32.555 28,31.801 28,31 C28,30.199 27.688,29.445 27.121,28.879 C26.278,28.036 25.056,27.81 24,28.183 L24,25.917 C24.499,25.531 24.985,25.138 25.455,24.741 C27.14,25.54 29.015,26 31,26 C38.168,26 44,20.168 44,13 C44,5.832 38.168,0 31,0 C23.832,0 18,5.832 18,13 C18,14.977 18.457,16.845 19.249,18.524 C18.825,19.011 18.415,19.503 18.02,20 L15.817,20 C15.93,19.682 15.999,19.347 15.999,19 C15.999,18.199 15.687,17.445 15.12,16.879 C13.95,15.709 12.048,15.709 10.878,16.879 L0.881,26.876 C0.88,26.877 0.879,26.877 0.878,26.878 C0.312,27.445 0,28.199 0,29 C0,29.801 0.312,30.555 0.879,31.121 C1.464,31.706 2.231,31.999 3,31.999 L3,31.999 Z M2.293,29.707 C2.104,29.518 2,29.267 2,29 C2,28.733 2.104,28.482 2.293,28.293 C2.488,28.098 2.744,28 3,28 C3.256,28 3.512,28.098 3.707,28.293 C3.896,28.482 4,28.733 4,29 C4,29.267 3.896,29.518 3.707,29.707 L3.707,29.707 C3.316,30.097 2.684,30.097 2.293,29.707 L2.293,29.707 Z M14.293,41.707 C14.104,41.518 14,41.267 14,41 C14,40.733 14.104,40.482 14.293,40.293 L14.293,40.293 C14.488,40.098 14.744,40 15,40 C15.256,40 15.512,40.098 15.707,40.293 C15.896,40.482 16,40.733 16,41 C16,41.267 15.896,41.518 15.707,41.707 C15.316,42.097 14.684,42.097 14.293,41.707 L14.293,41.707 Z M25.707,30.293 C25.896,30.482 26,30.733 26,31 C26,31.267 25.896,31.518 25.707,31.707 L17.7,39.714 C17.555,39.409 17.367,39.124 17.121,38.878 C16.872,38.629 16.585,38.444 16.284,38.301 L24.293,30.292 C24.684,29.903 25.316,29.903 25.707,30.293 L25.707,30.293 Z M22,29.758 L20,31.758 L20,28.777 C20.643,28.349 21.318,27.884 22,27.399 L22,29.758 L22,29.758 Z M31,2 C37.065,2 42,6.935 42,13 C42,19.065 37.065,24 31,24 C24.935,24 20,19.065 20,13 C20,6.935 24.935,2 31,2 L31,2 Z M23.604,23.677 C19.878,26.702 15.062,29.531 14.463,29.879 C14.317,29.933 14.145,29.975 14.011,29.992 C14.032,29.869 14.082,29.71 14.141,29.594 C14.168,29.541 16.71,24.656 20.302,20.368 C21.194,21.66 22.314,22.781 23.604,23.677 L23.604,23.677 Z M15.142,24 L12.243,24 L14.243,22 L16.514,22 C16.019,22.69 15.56,23.362 15.142,24 L15.142,24 Z M12.293,18.293 C12.684,17.903 13.316,17.903 13.707,18.293 C13.896,18.482 14,18.733 14,19 C14,19.267 13.896,19.518 13.707,19.707 L13.122,20.292 C13.121,20.293 13.121,20.293 13.12,20.294 L9.122,24.292 C9.121,24.293 9.121,24.293 9.12,24.294 L5.699,27.715 C5.554,27.41 5.366,27.125 5.12,26.879 C4.871,26.63 4.584,26.445 4.283,26.302 L12.293,18.293 L12.293,18.293 Z" id="Shape" fill="#000000"></path>
    </g>
</svg>