<?xml version="1.0" encoding="UTF-8" standalone="no"?>
<svg width="44px" height="44px" viewBox="0 0 44 44" version="1.1" xmlns="http://www.w3.org/2000/svg" xmlns:xlink="http://www.w3.org/1999/xlink">
    <!-- Generator: Sketch 3.7.2 (28276) - http://www.bohemiancoding.com/sketch -->
    <title>spa-darkside</title>
    <desc>Created with Sketch.</desc>
    <defs></defs>
    <g id="44px-Line" stroke="none" stroke-width="1" fill="none" fill-rule="evenodd">
        <g id="spa-darkside"></g>
        <path d="M42.763,14.74 C41.904,12.291 40.628,10.038 39.013,8.07 C38.999,8.055 38.995,8.035 38.98,8.02 C38.976,8.016 38.971,8.015 38.967,8.011 C38.229,7.117 37.418,6.286 36.549,5.519 C36.538,5.507 36.534,5.49 36.522,5.478 C36.497,5.453 36.464,5.443 36.436,5.421 C34.547,3.774 32.376,2.445 30.004,1.515 C29.971,1.5 29.939,1.487 29.905,1.476 C27.449,0.527 24.785,0.001 21.999,0.001 C9.868,0.001 -0.001,9.87 -0.001,22.001 C-0.001,34.132 9.868,44.001 21.999,44.001 C34.13,44.001 43.999,34.132 43.999,22.001 C43.999,19.492 43.571,17.082 42.794,14.833 C42.784,14.801 42.777,14.77 42.763,14.74 L42.763,14.74 Z M39.987,30.688 C39.914,30.689 39.843,30.692 39.77,30.692 C39.112,30.692 38.463,30.656 37.821,30.593 L41.317,27.097 C40.987,28.347 40.54,29.546 39.987,30.688 L39.987,30.688 Z M30.179,28.235 L41.357,17.057 C41.508,17.648 41.632,18.247 41.729,18.857 L31.639,28.947 C31.143,28.726 30.652,28.495 30.179,28.235 L30.179,28.235 Z M24.659,23.755 L38.156,10.258 C38.463,10.68 38.752,11.113 39.027,11.559 L25.7,24.886 C25.335,24.526 24.994,24.143 24.659,23.755 L24.659,23.755 Z M22,2 C22.51,2 23.009,2.039 23.509,2.076 L20.594,4.991 C20.897,3.974 21.286,2.981 21.754,2.012 C21.838,2.011 21.917,2 22,2 L22,2 Z M27.738,2.848 L19.776,10.81 C19.776,10.77 19.77,10.732 19.77,10.692 C19.77,9.961 19.814,9.239 19.89,8.524 L26.01,2.404 C26.596,2.524 27.171,2.678 27.738,2.848 L27.738,2.848 Z M31.285,4.301 L20.319,15.267 C20.178,14.666 20.066,14.054 19.981,13.433 L29.821,3.593 C30.32,3.808 30.806,4.049 31.285,4.301 L31.285,4.301 Z M34.313,6.272 L21.595,18.99 C21.364,18.486 21.157,17.97 20.968,17.445 L33.062,5.351 C33.494,5.64 33.906,5.953 34.313,6.272 L34.313,6.272 Z M22.569,20.845 L35.829,7.585 C36.199,7.94 36.549,8.313 36.891,8.695 L23.417,22.169 C23.115,21.741 22.836,21.297 22.569,20.845 L22.569,20.845 Z M40.024,13.39 C40.262,13.886 40.48,14.391 40.677,14.909 L28.434,27.152 C28.008,26.858 27.593,26.548 27.192,26.222 L40.024,13.39 L40.024,13.39 Z M41.972,21.442 C41.977,21.629 42,21.811 42,22 C42,22.564 41.961,23.118 41.915,23.671 L35.391,30.195 C34.811,30.065 34.237,29.916 33.677,29.737 L41.972,21.442 L41.972,21.442 Z M22,42 C10.972,42 2,33.028 2,22 C2,11.824 9.645,3.416 19.49,2.175 C18.366,4.857 17.77,7.766 17.77,10.692 C17.77,13.076 18.156,15.37 18.861,17.521 C18.87,17.549 18.877,17.576 18.889,17.603 C19.287,18.804 19.783,19.96 20.373,21.06 C20.379,21.076 20.389,21.089 20.396,21.104 C20.963,22.156 21.617,23.153 22.341,24.094 C22.39,24.219 22.462,24.336 22.563,24.437 C22.592,24.466 22.631,24.478 22.663,24.503 C23.374,25.381 24.147,26.207 24.982,26.966 C24.991,26.975 24.993,26.988 25.003,26.997 C25.022,27.016 25.047,27.022 25.067,27.039 C26.932,28.718 29.085,30.081 31.441,31.048 C31.47,31.061 31.498,31.072 31.528,31.082 C33.817,32.011 36.295,32.565 38.888,32.668 C35.338,38.267 29.104,42 22,42 L22,42 Z" id="Shape" fill="#000000"></path>
    </g>
</svg>