<?xml version="1.0" encoding="UTF-8" standalone="no"?>
<svg width="64px" height="64px" viewBox="0 0 64 64" version="1.1" xmlns="http://www.w3.org/2000/svg" xmlns:xlink="http://www.w3.org/1999/xlink">
    <!-- Generator: Sketch 3.7.2 (28276) - http://www.bohemiancoding.com/sketch -->
    <title>spa-moon-flag-2</title>
    <desc>Created with Sketch.</desc>
    <defs></defs>
    <g id="64px-Glyph" stroke="none" stroke-width="1" fill="none" fill-rule="evenodd">
        <g id="spa-moon-flag-2" fill="#000000">
            <path d="M52.0626,10.0205 C51.9636,9.4785 51.4536,9.1175 50.8986,9.2175 L42.1606,10.8215 C41.1006,11.0135 40.0736,10.3095 39.8776,9.2475 C39.8476,9.0875 39.7926,8.9375 39.7446,8.7855 L44.4956,33.9945 C45.1056,34.1965 45.7666,34.2695 46.4426,34.1475 L55.1806,32.5425 C55.7236,32.4435 56.0836,31.9215 55.9836,31.3785 L52.0626,10.0205 Z" id="Fill-277"></path>
            <path d="M49.9582,54.1914 C49.8382,54.7304 49.3092,55.0644 48.7662,54.9524 C48.2272,54.8334 47.8862,54.2984 48.0052,53.7594 C47.8942,53.2774 45.8182,51.7214 42.2272,50.7044 C38.6782,49.7034 36.4772,49.9754 36.0092,50.2854 C36.2272,50.8134 38.2872,52.3084 41.7732,53.2954 C42.3052,53.4464 42.6132,53.9994 42.4632,54.5304 C42.3392,54.9704 41.9372,55.2574 41.5022,55.2574 C41.4112,55.2574 41.3192,55.2464 41.2282,55.2194 C38.2992,54.3904 33.4872,52.3164 34.0412,49.8084 C34.1192,49.4564 34.3462,48.9544 34.9842,48.5734 C36.6542,47.5744 40.1022,48.0264 42.7712,48.7804 C45.7012,49.6094 50.5122,51.6824 49.9582,54.1914 M21.3942,52.3004 C20.9852,52.6694 20.3532,52.6414 19.9822,52.2304 C19.7332,51.9554 18.5292,51.7994 17.2112,52.4974 C16.4552,52.8964 16.0562,53.3934 16.0042,53.6854 C16.2682,54.0454 17.4722,54.2014 18.7892,53.5024 C19.2732,53.2434 19.8812,53.4294 20.1412,53.9194 C20.3992,54.4064 20.2132,55.0114 19.7252,55.2704 C18.8052,55.7574 17.8192,56.0004 16.9302,56.0004 C15.9402,56.0004 15.0692,55.7014 14.5352,55.1114 C14.0962,54.6264 13.9192,53.9964 14.0352,53.3374 C14.2112,52.3394 15.0272,51.3884 16.2752,50.7294 C18.2212,49.6994 20.4512,49.7694 21.4652,50.8884 C21.8362,51.2984 21.8052,51.9294 21.3942,52.3004 M59.8172,56.4234 C53.4452,47.3914 43.0462,42.0004 32.0002,42.0004 C30.1052,42.0004 28.2332,42.1694 26.3942,42.4784 L27.9632,50.4354 C28.0692,50.9774 27.7172,51.5024 27.1752,51.6104 C27.1092,51.6234 27.0452,51.6284 26.9802,51.6284 C26.5132,51.6284 26.0952,51.2984 26.0002,50.8224 L22.4042,32.6714 L39.5482,29.3914 C40.6122,29.2044 41.6372,29.9024 41.8312,30.9664 C41.8682,31.1684 41.9332,31.3564 41.9992,31.5444 L37.2272,6.2194 C36.6012,6.0104 35.9332,5.9444 35.2662,6.0654 L16.8192,9.4524 C16.5572,9.5004 16.3232,9.6524 16.1732,9.8734 C16.0222,10.0944 15.9672,10.3664 16.0192,10.6284 L22.4782,43.3824 C15.1692,45.5174 8.6732,50.0574 4.1832,56.4234 C3.8642,56.8754 3.9732,57.4994 4.4242,57.8174 C4.5942,57.9384 4.7902,57.9974 4.9842,58.0004 L59.0012,58.0004 C59.2002,58.0004 59.4012,57.9404 59.5762,57.8174 C60.0272,57.4994 60.1362,56.8754 59.8172,56.4234" id="Fill-278"></path>
        </g>
    </g>
</svg>