<?xml version="1.0" encoding="UTF-8" standalone="no"?>
<svg width="44px" height="44px" viewBox="0 0 44 44" version="1.1" xmlns="http://www.w3.org/2000/svg" xmlns:xlink="http://www.w3.org/1999/xlink">
    <!-- Generator: Sketch 3.7.2 (28276) - http://www.bohemiancoding.com/sketch -->
    <title>spa-shooting-star</title>
    <desc>Created with Sketch.</desc>
    <defs></defs>
    <g id="44px-Glyph" stroke="none" stroke-width="1" fill="none" fill-rule="evenodd">
        <g id="spa-shooting-star" fill="#000000">
            <path d="M21.0002,24 C20.7442,24 20.4882,23.902 20.2932,23.707 C19.9022,23.316 19.9022,22.684 20.2932,22.293 L42.2932,0.293 C42.6842,-0.098 43.3162,-0.098 43.7072,0.293 C44.0982,0.684 44.0982,1.316 43.7072,1.707 L21.7072,23.707 C21.5122,23.902 21.2562,24 21.0002,24" id="Fill-158"></path>
            <path d="M17.0002,18 C16.7442,18 16.4882,17.902 16.2932,17.707 C15.9022,17.316 15.9022,16.684 16.2932,16.293 L28.2932,4.293 C28.6842,3.902 29.3162,3.902 29.7072,4.293 C30.0982,4.684 30.0982,5.316 29.7072,5.707 L17.7072,17.707 C17.5122,17.902 17.2562,18 17.0002,18" id="Fill-159"></path>
            <path d="M29.0002,26 C28.7442,26 28.4882,25.902 28.2932,25.707 C27.9022,25.316 27.9022,24.684 28.2932,24.293 L36.2932,16.293 C36.6842,15.902 37.3162,15.902 37.7072,16.293 C38.0982,16.684 38.0982,17.316 37.7072,17.707 L29.7072,25.707 C29.5122,25.902 29.2562,26 29.0002,26" id="Fill-160"></path>
            <path d="M21.0002,44 C20.8552,44 20.7102,43.969 20.5752,43.905 L13.0002,40.347 L5.4252,43.905 C5.0782,44.069 4.6632,44.018 4.3642,43.772 C4.0662,43.526 3.9352,43.131 4.0302,42.756 L5.8932,35.345 L0.2902,29.705 C0.0182,29.43 -0.0718,29.022 0.0602,28.658 C0.1922,28.294 0.5232,28.04 0.9092,28.004 L8.6522,27.296 L12.1102,20.544 C12.4522,19.875 13.5482,19.875 13.8902,20.544 L17.3482,27.296 L25.0912,28.004 C25.4772,28.04 25.8082,28.294 25.9392,28.658 C26.0722,29.022 25.9822,29.43 25.7102,29.705 L20.1072,35.345 L21.9702,42.756 C22.0642,43.131 21.9342,43.526 21.6362,43.772 C21.4532,43.922 21.2272,44 21.0002,44" id="Fill-161"></path>
        </g>
    </g>
</svg>