<?xml version="1.0" encoding="UTF-8" standalone="no"?>
<svg width="44px" height="44px" viewBox="0 0 44 44" version="1.1" xmlns="http://www.w3.org/2000/svg" xmlns:xlink="http://www.w3.org/1999/xlink">
    <!-- Generator: Sketch 3.7.2 (28276) - http://www.bohemiancoding.com/sketch -->
    <title>spa-constellation</title>
    <desc>Created with Sketch.</desc>
    <defs></defs>
    <g id="44px-Line" stroke="none" stroke-width="1" fill="none" fill-rule="evenodd">
        <g id="spa-constellation"></g>
        <path d="M43,2 L42,2 L42,1 C42,0.448 41.552,0 41,0 C40.448,0 40,0.448 40,1 L40,2 L39,2 C38.448,2 38,2.448 38,3 C38,3.552 38.448,4 39,4 L40,4 L40,5 C40,5.552 40.448,6 41,6 C41.552,6 42,5.552 42,5 L42,4 L43,4 C43.552,4 44,3.552 44,3 C44,2.448 43.552,2 43,2 L43,2 Z" id="Shape" fill="#000000"></path>
        <path d="M27,8 L28,8 L28,9 C28,9.552 28.448,10 29,10 C29.552,10 30,9.552 30,9 L30,8 L31,8 C31.552,8 32,7.552 32,7 C32,6.448 31.552,6 31,6 L30,6 L30,5 C30,4.448 29.552,4 29,4 C28.448,4 28,4.448 28,5 L28,6 L27,6 C26.448,6 26,6.448 26,7 C26,7.552 26.448,8 27,8 L27,8 Z" id="Shape" fill="#000000"></path>
        <path d="M17,38 C16.448,38 16,38.448 16,39 L16,40 L15,40 C14.448,40 14,40.448 14,41 C14,41.552 14.448,42 15,42 L16,42 L16,43 C16,43.552 16.448,44 17,44 C17.552,44 18,43.552 18,43 L18,42 L19,42 C19.552,42 20,41.552 20,41 C20,40.448 19.552,40 19,40 L18,40 L18,39 C18,38.448 17.552,38 17,38 L17,38 Z" id="Shape" fill="#000000"></path>
        <path d="M1,32 L2,32 L2,33 C2,33.552 2.448,34 3,34 C3.552,34 4,33.552 4,33 L4,32 L5,32 C5.552,32 6,31.552 6,31 C6,30.448 5.552,30 5,30 L4,30 L4,29 C4,28.448 3.552,28 3,28 C2.448,28 2,28.448 2,29 L2,30 L1,30 C0.448,30 0,30.448 0,31 C0,31.552 0.448,32 1,32 L1,32 Z" id="Shape" fill="#000000"></path>
        <path d="M17,18 L18,18 L18,19 C18,19.552 18.448,20 19,20 C19.552,20 20,19.552 20,19 L20,18 L21,18 C21.552,18 22,17.552 22,17 C22,16.448 21.552,16 21,16 L20,16 L20,15 C20,14.448 19.552,14 19,14 C18.448,14 18,14.448 18,15 L18,16 L17,16 C16.448,16 16,16.448 16,17 C16,17.552 16.448,18 17,18 L17,18 Z" id="Shape" fill="#000000"></path>
        <path d="M29,30 L28,30 L28,29 C28,28.448 27.552,28 27,28 C26.448,28 26,28.448 26,29 L26,30 L25,30 C24.448,30 24,30.448 24,31 C24,31.552 24.448,32 25,32 L26,32 L26,33 C26,33.552 26.448,34 27,34 C27.552,34 28,33.552 28,33 L28,32 L29,32 C29.552,32 30,31.552 30,31 C30,30.448 29.552,30 29,30 L29,30 Z" id="Shape" fill="#000000"></path>
        <path d="M33.669,6.444 C33.773,6.444 33.88,6.427 33.985,6.392 L36.629,5.511 C37.153,5.336 37.437,4.77 37.262,4.246 C37.088,3.722 36.521,3.436 35.997,3.613 L33.353,4.494 C32.829,4.669 32.545,5.235 32.72,5.759 C32.86,6.179 33.25,6.444 33.669,6.444 L33.669,6.444 Z" id="Shape" fill="#000000"></path>
        <path d="M22.156,14.844 C22.412,14.844 22.668,14.746 22.863,14.551 L26.459,10.955 C26.85,10.564 26.85,9.932 26.459,9.541 C26.068,9.15 25.436,9.15 25.045,9.541 L21.449,13.137 C21.058,13.528 21.058,14.16 21.449,14.551 C21.645,14.746 21.9,14.844 22.156,14.844 L22.156,14.844 Z" id="Shape" fill="#000000"></path>
        <path d="M6.478,28.915 C6.711,28.915 6.945,28.834 7.134,28.669 L16.263,20.724 C16.68,20.361 16.723,19.73 16.361,19.313 C15.998,18.897 15.366,18.853 14.95,19.215 L5.821,27.16 C5.404,27.523 5.361,28.154 5.723,28.571 C5.921,28.799 6.199,28.915 6.478,28.915 L6.478,28.915 Z" id="Shape" fill="#000000"></path>
        <path d="M6,33.143 C5.679,33.592 5.783,34.217 6.232,34.538 L12.085,38.719 C12.261,38.845 12.464,38.906 12.665,38.906 C12.977,38.906 13.285,38.76 13.479,38.487 C13.8,38.038 13.696,37.413 13.247,37.092 L7.394,32.911 C6.945,32.588 6.32,32.693 6,33.143 L6,33.143 Z" id="Shape" fill="#000000"></path>
        <path d="M24.443,27.523 C24.611,27.523 24.782,27.481 24.938,27.391 C25.417,27.117 25.584,26.506 25.31,26.027 L22.421,20.972 C22.147,20.493 21.537,20.327 21.057,20.6 C20.578,20.874 20.411,21.485 20.685,21.964 L23.574,27.019 C23.759,27.343 24.096,27.523 24.443,27.523 L24.443,27.523 Z" id="Shape" fill="#000000"></path>
        <path d="M19.637,38.363 C19.832,38.558 20.088,38.656 20.344,38.656 C20.6,38.656 20.856,38.558 21.051,38.363 L24.379,35.035 C24.77,34.644 24.77,34.012 24.379,33.621 C23.988,33.23 23.356,33.23 22.965,33.621 L19.637,36.949 C19.246,37.34 19.246,37.973 19.637,38.363 L19.637,38.363 Z" id="Shape" fill="#000000"></path>
    </g>
</svg>