<?xml version="1.0" encoding="UTF-8" standalone="no"?>
<svg width="44px" height="44px" viewBox="0 0 44 44" version="1.1" xmlns="http://www.w3.org/2000/svg" xmlns:xlink="http://www.w3.org/1999/xlink">
    <!-- Generator: Sketch 3.7.2 (28276) - http://www.bohemiancoding.com/sketch -->
    <title>spa-stars</title>
    <desc>Created with Sketch.</desc>
    <defs></defs>
    <g id="44px-Glyph" stroke="none" stroke-width="1" fill="none" fill-rule="evenodd">
        <g id="spa-stars" fill="#000000">
            <path d="M40.0002,24 C39.8482,24 39.6942,23.965 39.5532,23.895 L35.0002,21.618 L30.4472,23.895 C30.1072,24.065 29.7032,24.027 29.3992,23.799 C29.0962,23.571 28.9482,23.192 29.0172,22.819 L29.9232,17.902 L26.2862,14.201 C26.0162,13.925 25.9282,13.518 26.0612,13.155 C26.1942,12.792 26.5242,12.539 26.9092,12.504 L31.8542,12.055 L34.1052,7.553 C34.4452,6.875 35.5552,6.875 35.8942,7.553 L38.1452,12.055 L43.0912,12.504 C43.4762,12.539 43.8062,12.792 43.9382,13.155 C44.0722,13.518 43.9842,13.925 43.7142,14.201 L40.0772,17.902 L40.9832,22.819 C41.0522,23.192 40.9042,23.571 40.6012,23.799 C40.4252,23.932 40.2132,24 40.0002,24" id="Fill-70"></path>
            <path d="M12.0002,15 C11.8482,15 11.6942,14.965 11.5532,14.895 L8.0002,13.118 L4.4472,14.895 C4.1202,15.059 3.7312,15.03 3.4302,14.822 C3.1302,14.613 2.9672,14.258 3.0062,13.894 L3.4532,9.685 L0.3142,6.728 C0.0342,6.464 -0.0688,6.062 0.0472,5.696 C0.1642,5.329 0.4812,5.062 0.8632,5.009 L5.1562,4.415 L7.1072,0.549 C7.4472,-0.124 8.5532,-0.124 8.8932,0.549 L10.8442,4.415 L15.1372,5.009 C15.5192,5.062 15.8362,5.329 15.9532,5.696 C16.0692,6.062 15.9662,6.464 15.6852,6.728 L12.5472,9.685 L12.9942,13.894 C13.0332,14.258 12.8702,14.613 12.5702,14.822 C12.3992,14.94 12.2002,15 12.0002,15" id="Fill-71"></path>
            <path d="M25.0002,44 C24.8552,44 24.7102,43.969 24.5752,43.905 L17.0002,40.347 L9.4252,43.905 C9.0782,44.069 8.6632,44.019 8.3642,43.772 C8.0662,43.526 7.9352,43.131 8.0302,42.756 L9.8932,35.345 L4.2902,29.705 C4.0182,29.43 3.9282,29.022 4.0602,28.658 C4.1922,28.294 4.5232,28.04 4.9092,28.004 L12.6522,27.296 L16.1102,20.544 C16.4522,19.876 17.5482,19.876 17.8902,20.544 L21.3482,27.296 L29.0912,28.004 C29.4772,28.04 29.8082,28.294 29.9392,28.658 C30.0722,29.022 29.9822,29.43 29.7102,29.705 L24.1072,35.345 L25.9702,42.756 C26.0642,43.131 25.9342,43.526 25.6362,43.772 C25.4532,43.922 25.2272,44 25.0002,44" id="Fill-72"></path>
        </g>
    </g>
</svg>