<?xml version="1.0" encoding="UTF-8" standalone="no"?>
<svg width="64px" height="64px" viewBox="0 0 64 64" version="1.1" xmlns="http://www.w3.org/2000/svg" xmlns:xlink="http://www.w3.org/1999/xlink">
    <!-- Generator: Sketch 3.7.2 (28276) - http://www.bohemiancoding.com/sketch -->
    <title>spa-alien</title>
    <desc>Created with Sketch.</desc>
    <defs></defs>
    <g id="64px-Line" stroke="none" stroke-width="1" fill="none" fill-rule="evenodd">
        <g id="spa-alien"></g>
        <path d="M32,4 C19.869,4 10,13.869 10,26 C10,31.961 12.345,37.542 16.604,41.714 C18.899,44.012 20.71,47.261 22.461,50.403 C25.211,55.338 27.81,60 32,60 C36.19,60 38.788,55.339 41.538,50.404 C43.277,47.284 45.075,44.059 47.347,41.763 C47.356,41.755 47.365,41.746 47.374,41.738 C51.647,37.562 54,31.973 54,26 C54,13.869 44.131,4 32,4 L32,4 Z M46.038,40.247 C46.021,40.262 46.005,40.277 45.989,40.293 C43.493,42.789 41.612,46.165 39.792,49.43 C37.335,53.837 35.016,58 32,58 C28.984,58 26.665,53.837 24.208,49.43 C22.388,46.165 20.506,42.789 18.011,40.293 L18.002,40.284 C18,40.283 18,40.282 18,40.282 L17.998,40.28 C17.999,40.28 17.997,40.279 17.997,40.279 C14.129,36.486 12,31.416 12,26 C12,14.972 20.972,6 32,6 C43.028,6 52,14.972 52,26 C52,31.401 49.883,36.457 46.038,40.247 L46.038,40.247 Z" id="Shape" fill="#000000"></path>
        <path d="M35,48 L29,48 C28.448,48 28,48.448 28,49 C28,49.552 28.448,50 29,50 L35,50 C35.552,50 36,49.552 36,49 C36,48.448 35.552,48 35,48 L35,48 Z" id="Shape" fill="#000000"></path>
        <path d="M34,39 C34,39.552 34.448,40 35,40 C38.05,40 48,39.207 48,29 C48,28.448 47.552,28 47,28 C37.767,28 34,31.187 34,39 L34,39 Z M45.956,30.015 C45.667,33.247 43.819,37.627 36.022,37.977 C36.239,33.118 38.192,30.246 45.956,30.015 L45.956,30.015 Z" id="Shape" fill="#000000"></path>
        <path d="M30,39 C30,31.187 26.233,28 17,28 C16.448,28 16,28.448 16,29 C16,39.207 25.95,40 29,40 C29.552,40 30,39.552 30,39 L30,39 Z M18.044,30.015 C25.808,30.245 27.76,33.118 27.978,37.977 C20.182,37.627 18.333,33.247 18.044,30.015 L18.044,30.015 Z" id="Shape" fill="#000000"></path>
    </g>
</svg>