<?xml version="1.0" encoding="UTF-8" standalone="no"?>
<svg width="44px" height="44px" viewBox="0 0 44 44" version="1.1" xmlns="http://www.w3.org/2000/svg" xmlns:xlink="http://www.w3.org/1999/xlink">
    <!-- Generator: Sketch 3.7.2 (28276) - http://www.bohemiancoding.com/sketch -->
    <title>spa-capsule-landing</title>
    <desc>Created with Sketch.</desc>
    <defs></defs>
    <g id="44px-Line" stroke="none" stroke-width="1" fill="none" fill-rule="evenodd">
        <g id="spa-capsule-landing"></g>
        <path d="M41.224,2.913 C41.221,2.91 41.218,2.906 41.214,2.903 C41.208,2.898 41.204,2.892 41.198,2.887 C41.157,2.847 41.122,2.803 41.08,2.763 C37.226,-0.907 30.955,-0.908 27.099,2.763 C26.308,3.516 25.656,4.399 25.161,5.388 C25.13,5.45 25.118,5.517 25.1,5.582 C25.094,5.606 25.077,5.625 25.072,5.65 L22.016,21.816 C22.002,21.89 22.001,21.964 22.003,22.038 C21.999,22.038 21.996,22.037 21.992,22.037 C21.995,21.964 21.993,21.89 21.979,21.816 L18.923,5.65 C18.918,5.625 18.902,5.607 18.896,5.582 C18.879,5.516 18.866,5.45 18.835,5.387 C18.34,4.398 17.688,3.515 16.897,2.763 C13.04,-0.908 6.769,-0.907 2.916,2.763 C2.865,2.811 2.822,2.864 2.773,2.913 C2.744,2.941 2.716,2.968 2.69,3 C0.96,4.765 0,7.053 0,9.488 C0,12.031 1.037,14.419 2.919,16.212 C3.705,16.961 4.627,17.579 5.66,18.049 C5.677,18.057 5.696,18.054 5.714,18.061 C5.733,18.068 5.746,18.084 5.765,18.09 L19.836,22.673 C19.656,22.79 19.481,22.917 19.321,23.066 C19.292,23.09 19.265,23.115 19.239,23.142 C19.024,23.354 18.831,23.597 18.67,23.853 L10.67,36.342 C10.646,36.38 10.625,36.419 10.606,36.46 C10,37.763 10,38.478 10,39 C10,42.318 14.038,44 22,44 C30.028,44 34.099,42.318 34.099,39 L34.1,38.893 C34.109,38.235 34.057,37.497 33.33,36.343 L25.332,23.856 C25.161,23.586 24.965,23.342 24.806,23.19 C24.755,23.127 24.696,23.07 24.631,23.023 C24.484,22.89 24.323,22.781 24.16,22.674 L38.234,18.089 C38.253,18.083 38.266,18.068 38.285,18.06 C38.303,18.053 38.322,18.056 38.339,18.048 C39.372,17.578 40.294,16.959 41.08,16.211 C42.963,14.418 43.999,12.03 44,9.487 C44,7.052 43.04,4.764 41.306,2.999 C41.281,2.968 41.253,2.941 41.224,2.913 L41.224,2.913 Z M9.909,2 C11.941,2 13.973,2.737 15.521,4.21 C15.969,4.636 16.361,5.117 16.692,5.644 L14.326,7.897 C13.219,6.395 10.706,3.839 6.085,2.937 C7.272,2.317 8.589,2 9.909,2 L9.909,2 Z M9.423,12.569 C8.158,11.8 5.206,9.516 4.568,4.721 C9.588,5.306 12.013,8.046 12.866,9.289 L9.423,12.569 L9.423,12.569 Z M2,9.488 C2,8.331 2.283,7.217 2.805,6.207 C3.751,10.535 6.36,12.91 7.938,13.983 L5.895,15.929 C5.305,15.602 4.77,15.212 4.299,14.763 C2.817,13.352 2,11.478 2,9.488 L2,9.488 Z M7.978,16.707 L17.303,7.825 L19.703,20.525 L7.978,16.707 L7.978,16.707 Z M12.393,40 L31.682,40 C30.542,41.269 27.102,42 22,42 C16.857,42 13.491,41.284 12.393,40 L12.393,40 Z M31.642,37.415 C31.789,37.648 31.878,37.833 31.946,38 L12.146,38 C12.203,37.817 12.278,37.614 12.392,37.363 L20.359,24.924 C20.439,24.797 20.529,24.682 20.628,24.581 C20.642,24.569 20.656,24.556 20.67,24.543 C21.404,23.842 22.599,23.843 23.33,24.543 C23.345,24.557 23.359,24.57 23.374,24.583 C23.471,24.682 23.561,24.798 23.643,24.928 C23.644,24.929 23.645,24.931 23.646,24.933 L31.642,37.415 L31.642,37.415 Z M31.137,9.292 C31.992,8.059 34.433,5.309 39.432,4.722 C38.794,9.516 35.843,11.799 34.577,12.569 L31.137,9.292 L31.137,9.292 Z M28.479,4.21 C31.032,1.78 34.901,1.36 37.915,2.938 C33.294,3.839 30.781,6.396 29.674,7.898 L27.308,5.645 C27.638,5.118 28.03,4.637 28.479,4.21 L28.479,4.21 Z M26.697,7.825 L36.022,16.707 L24.297,20.526 L26.697,7.825 L26.697,7.825 Z M39.701,14.763 C39.23,15.212 38.696,15.602 38.105,15.929 L36.062,13.983 C37.64,12.91 40.249,10.535 41.195,6.207 C41.717,7.217 42,8.331 42,9.488 C42,11.478 41.183,13.352 39.701,14.763 L39.701,14.763 Z" id="Shape" fill="#000000"></path>
        <path d="M18,32 C18,34.206 19.794,36 22,36 C24.206,36 26,34.206 26,32 C26,29.794 24.206,28 22,28 C19.794,28 18,29.794 18,32 L18,32 Z M24,32 C24,33.103 23.103,34 22,34 C20.897,34 20,33.103 20,32 C20,30.897 20.897,30 22,30 C23.103,30 24,30.897 24,32 L24,32 Z" id="Shape" fill="#000000"></path>
    </g>
</svg>