<?xml version="1.0" encoding="UTF-8" standalone="no"?>
<svg width="44px" height="44px" viewBox="0 0 44 44" version="1.1" xmlns="http://www.w3.org/2000/svg" xmlns:xlink="http://www.w3.org/1999/xlink">
    <!-- Generator: Sketch 3.7.2 (28276) - http://www.bohemiancoding.com/sketch -->
    <title>spa-lander</title>
    <desc>Created with Sketch.</desc>
    <defs></defs>
    <g id="44px-Line" stroke="none" stroke-width="1" fill="none" fill-rule="evenodd">
        <g id="spa-lander"></g>
        <path d="M43,42 L41.58,42 L34,28.735 L34,27 C34,26.447 33.553,26 33,26 L27.414,26 L35.706,17.708 C35.798,17.616 35.872,17.507 35.923,17.385 C35.973,17.264 36.001,17.134 36.001,17 L36.001,11 C36.001,10.866 35.974,10.736 35.923,10.615 C35.872,10.493 35.798,10.383 35.706,10.292 L25.709,0.295 C25.617,0.203 25.507,0.129 25.386,0.078 C25.265,0.028 25.135,1.13686838e-13 25.001,1.13686838e-13 L19.001,1.13686838e-13 C18.867,1.13686838e-13 18.737,0.027 18.616,0.078 C18.494,0.129 18.384,0.203 18.293,0.295 L8.296,10.292 C8.204,10.384 8.13,10.493 8.079,10.615 C8.029,10.736 8.001,10.866 8.001,11 L8.001,17 C8.001,17.134 8.028,17.264 8.079,17.385 C8.13,17.507 8.204,17.617 8.296,17.708 L16.588,26 L11,26 C10.447,26 10,26.447 10,27 L10,28.735 L2.42,42 L1,42 C0.447,42 0,42.447 0,43 C0,43.553 0.447,44 1,44 L6,44 C6.553,44 7,43.553 7,43 C7,42.447 6.553,42 6,42 L4.723,42 L10,32.765 L10,35 C10,35.553 10.447,36 11,36 L17.54,36 C16.586,37.063 16,38.462 16,40 L16,41 C16,41.553 16.447,42 17,42 L27,42 C27.553,42 28,41.553 28,41 L28,40 C28,38.462 27.414,37.063 26.46,36 L33,36 C33.553,36 34,35.553 34,35 L34,32.765 L39.277,42 L38,42 C37.447,42 37,42.447 37,43 C37,43.553 37.447,44 38,44 L43,44 C43.553,44 44,43.553 44,43 C44,42.447 43.553,42 43,42 L43,42 Z M18,34 L18,28 L26,28 L26,34 L18,34 L18,34 Z M26,18 L32.586,18 L26,24.586 L26,18 L26,18 Z M26,16 L26,12 L34,12 L34,16 L26,16 L26,16 Z M26,10 L26,3.414 L32.586,10 L26,10 L26,10 Z M24,26 L20,26 L20,2 L24,2 L24,26 L24,26 Z M18,10 L11.414,10 L18,3.414 L18,10 L18,10 Z M18,12 L18,16 L10,16 L10,12 L18,12 L18,12 Z M18,18 L18,24.586 L11.414,18 L18,18 L18,18 Z M12,28 L16,28 L16,34 L12,34 L12,28 L12,28 Z M26,40 L18,40 C18,37.794 19.794,36 22,36 C24.206,36 26,37.794 26,40 L26,40 Z M32,34 L28,34 L28,28 L32,28 L32,34 L32,34 Z" id="Shape" fill="#000000"></path>
    </g>
</svg>