<?xml version="1.0" encoding="UTF-8" standalone="no"?>
<svg width="64px" height="64px" viewBox="0 0 64 64" version="1.1" xmlns="http://www.w3.org/2000/svg" xmlns:xlink="http://www.w3.org/1999/xlink">
    <!-- Generator: Sketch 3.7.2 (28276) - http://www.bohemiancoding.com/sketch -->
    <title>spa-saturn</title>
    <desc>Created with Sketch.</desc>
    <defs></defs>
    <g id="64px-Glyph" stroke="none" stroke-width="1" fill="none" fill-rule="evenodd">
        <g id="spa-saturn" fill="#000000">
            <path d="M40.8435,40.8438 C36.9505,44.7358 31.8015,49.3698 26.5085,53.3058 C28.2645,53.7588 30.1045,53.9998 32.0005,53.9998 C44.1315,53.9998 54.0005,44.1308 54.0005,31.9998 C54.0005,30.1078 53.7595,28.2698 53.3085,26.5168 C49.8675,31.1648 45.6155,36.0728 40.8435,40.8438" id="Fill-160"></path>
            <path d="M20.5963,50.7925 C16.7683,52.4605 13.8083,52.7285 12.5393,51.4595 C11.2663,50.1855 11.5283,47.2355 13.2033,43.3995 C15.0403,46.4155 17.5803,48.9555 20.5963,50.7925 M50.7913,20.5995 C48.9533,17.5825 46.4143,15.0415 43.3973,13.2045 C47.2353,11.5285 50.1873,11.2675 51.4603,12.5415 C52.7293,13.8085 52.4613,16.7705 50.7913,20.5995 M58.8503,5.1505 C55.0393,1.3395 44.6063,8.0235 39.8323,11.4425 C37.3973,10.5115 34.7583,10.0005 32.0003,10.0005 C19.8693,10.0005 10.0003,19.8695 10.0003,32.0005 C10.0003,34.7575 10.5163,37.3945 11.4463,39.8275 C8.0293,44.6005 1.3383,55.0395 5.1493,58.8495 C5.9313,59.6305 7.0173,59.9915 8.3433,59.9915 C15.2083,59.9915 28.5203,50.3375 39.4293,39.4295 C46.4703,32.3895 52.3903,25.0555 56.1003,18.7765 C58.8753,14.0805 61.6043,7.9045 58.8503,5.1505" id="Fill-161"></path>
        </g>
    </g>
</svg>