<?xml version="1.0" encoding="UTF-8" standalone="no"?>
<svg width="44px" height="44px" viewBox="0 0 44 44" version="1.1" xmlns="http://www.w3.org/2000/svg" xmlns:xlink="http://www.w3.org/1999/xlink">
    <!-- Generator: Sketch 3.7.2 (28276) - http://www.bohemiancoding.com/sketch -->
    <title>spa-meteor-2</title>
    <desc>Created with Sketch.</desc>
    <defs></defs>
    <g id="44px-Line" stroke="none" stroke-width="1" fill="none" fill-rule="evenodd">
        <g id="spa-meteor-2"></g>
        <path d="M13.002,22 C8.038,22 4,26.037 4,31 C4,35.962 8.038,39.999 13.002,40 C17.963,40 22,35.963 22,31 C22,26.037 17.963,22 13.002,22 L13.002,22 Z M13.002,38 C9.141,37.999 6,34.859 6,31 C6,27.141 9.141,24 13.002,24 C16.861,24 20,27.141 20,31 C20,34.859 16.861,38 13.002,38 L13.002,38 Z" id="Shape" fill="#000000"></path>
        <path d="M21.586,10.189 C21.255,9.95 20.812,9.937 20.466,10.154 C18.982,11.092 5.902,19.39 3.808,21.806 C-1.26,26.875 -1.26,35.123 3.808,40.192 C6.342,42.726 9.671,43.993 13,43.993 C16.329,43.993 19.658,42.726 22.192,40.192 C22.207,40.177 22.221,40.163 22.234,40.147 C24.164,37.962 31.536,26.071 31.849,25.566 C32.07,25.21 32.045,24.752 31.785,24.421 C31.526,24.092 31.087,23.955 30.688,24.089 L27.511,25.126 L43.821,1.568 C44.1,1.165 44.046,0.619 43.692,0.278 C43.339,-0.061 42.791,-0.094 42.399,0.199 L20.652,16.509 L21.969,11.241 C22.069,10.846 21.917,10.429 21.586,10.189 L21.586,10.189 Z M38.67,5.497 L24.177,26.431 C23.933,26.785 23.941,27.253 24.198,27.598 C24.455,27.943 24.904,28.087 25.31,27.951 L28.695,26.846 C25.922,31.266 21.998,37.377 20.755,38.802 C16.464,43.067 9.502,43.06 5.221,38.78 C0.932,34.491 0.932,27.512 5.269,23.171 C6.678,21.548 14.652,16.265 19.419,13.196 L18.028,18.759 C17.925,19.169 18.092,19.6 18.445,19.834 C18.798,20.068 19.26,20.054 19.598,19.801 L38.67,5.497 L38.67,5.497 Z" id="Shape" fill="#000000"></path>
        <path d="M10,28 C10.391,27.609 10.391,26.977 10,26.586 C9.609,26.195 8.977,26.195 8.586,26.586 C7.806,27.365 7.806,28.635 8.585,29.413 C8.962,29.791 9.464,30 9.999,30 L10,30 C10.535,30 11.037,29.792 11.415,29.414 C11.806,29.023 11.806,28.391 11.415,28 C11.024,27.609 10.391,27.609 10,28 L10,28 Z" id="Shape" fill="#000000"></path>
        <path d="M10,34 C10.391,33.609 10.391,32.977 10,32.586 C9.609,32.195 8.977,32.195 8.586,32.586 C7.806,33.365 7.806,34.635 8.585,35.413 C8.962,35.791 9.464,36 9.999,36 L10,36 C10.535,36 11.037,35.792 11.415,35.414 C11.806,35.023 11.806,34.391 11.415,34 C11.024,33.609 10.391,33.609 10,34 L10,34 Z" id="Shape" fill="#000000"></path>
        <path d="M16.293,31.707 C15.903,31.317 15.903,30.683 16.293,30.293 C16.683,29.901 16.683,29.269 16.292,28.878 C15.901,28.489 15.269,28.488 14.878,28.879 C13.71,30.049 13.71,31.951 14.878,33.121 C15.463,33.706 16.231,33.998 16.999,33.998 C17.767,33.998 18.535,33.706 19.12,33.121 C19.511,32.73 19.511,32.098 19.12,31.707 C18.729,31.316 18.097,31.316 17.706,31.707 C17.317,32.098 16.683,32.098 16.293,31.707 L16.293,31.707 Z" id="Shape" fill="#000000"></path>
    </g>
</svg>