<?xml version="1.0" encoding="UTF-8" standalone="no"?>
<svg width="64px" height="64px" viewBox="0 0 64 64" version="1.1" xmlns="http://www.w3.org/2000/svg" xmlns:xlink="http://www.w3.org/1999/xlink">
    <!-- Generator: Sketch 3.7.2 (28276) - http://www.bohemiancoding.com/sketch -->
    <title>spa-alien-abduction</title>
    <desc>Created with Sketch.</desc>
    <defs></defs>
    <g id="64px-Line" stroke="none" stroke-width="1" fill="none" fill-rule="evenodd">
        <g id="spa-alien-abduction"></g>
        <path d="M23.839,31.621 L20.013,54.837 C20.004,54.891 20,54.945 20,55 C20,58.131 24.112,60 31,60 C37.888,60 42,58.131 42,55 C42,54.945 41.996,54.891 41.987,54.837 L38.159,31.621 C49.716,30.373 58,26.155 58,21 C58,16.53 51.912,12.692 42.096,10.943 C39.35,7.915 35.399,6 31,6 C26.601,6 22.65,7.915 19.904,10.942 C10.088,12.691 4,16.53 4,21 C4,26.154 12.283,30.373 23.839,31.621 L23.839,31.621 Z M39.998,55.069 C39.905,56.537 36.818,58 31,58 C25.182,58 22.095,56.537 22.002,55.068 L25.836,31.804 C27.504,31.931 29.228,31.999 31,31.999 C32.771,31.999 34.495,31.93 36.162,31.804 L39.998,55.069 L39.998,55.069 Z M31,8 C38.168,8 44,13.832 44,21 C44,22.206 40.538,24 31,24 C21.462,24 18,22.206 18,21 C18,13.832 23.832,8 31,8 L31,8 Z M18.127,13.341 C16.785,15.586 16,18.2 16,21 C16,25.351 25.398,26 31,26 C36.602,26 46,25.351 46,21 C46,18.2 45.215,15.586 43.874,13.341 C51.216,14.991 56,17.952 56,21 C56,25.346 45.955,30 31,30 C28.968,30 27.03,29.911 25.193,29.752 C25.182,29.75 25.174,29.742 25.163,29.741 C25.14,29.737 25.119,29.746 25.096,29.744 C13.463,28.716 6,24.745 6,21 C6,17.952 10.784,14.991 18.127,13.341 L18.127,13.341 Z" id="Shape" fill="#000000"></path>
        <path d="M20.951,20.994 C20.984,20.997 21.018,20.999 21.051,20.999 C21.559,20.999 21.994,20.614 22.045,20.098 C22.503,15.482 26.354,12 31.001,12 C31.553,12 32.001,11.552 32.001,11 C32.001,10.448 31.553,10 31.001,10 C25.322,10 20.616,14.256 20.055,19.9 C20,20.45 20.401,20.939 20.951,20.994 L20.951,20.994 Z" id="Shape" fill="#000000"></path>
        <path d="M29,44 C29,44.737 29.405,45.375 30,45.722 L30,46 L28,46 C27.448,46 27,46.448 27,47 C27,47.552 27.448,48 28,48 L30,48 L30,49.807 L28.071,54.629 C27.866,55.142 28.115,55.724 28.628,55.929 C28.75,55.977 28.876,56 29,56 C29.397,56 29.772,55.762 29.929,55.371 L31,52.693 L32.071,55.371 C32.228,55.762 32.603,56 33,56 C33.124,56 33.249,55.977 33.371,55.928 C33.884,55.722 34.133,55.141 33.928,54.628 L32,49.807 L32,48 L34,48 C34.552,48 35,47.552 35,47 C35,46.448 34.552,46 34,46 L32,46 L32,45.722 C32.595,45.375 33,44.737 33,44 C33,42.897 32.103,42 31,42 C29.897,42 29,42.897 29,44 L29,44 Z" id="Shape" fill="#000000"></path>
    </g>
</svg>