<?xml version="1.0" encoding="UTF-8" standalone="no"?>
<svg width="44px" height="44px" viewBox="0 0 44 44" version="1.1" xmlns="http://www.w3.org/2000/svg" xmlns:xlink="http://www.w3.org/1999/xlink">
    <!-- Generator: Sketch 3.7.2 (28276) - http://www.bohemiancoding.com/sketch -->
    <title>spa-darth-vader</title>
    <desc>Created with Sketch.</desc>
    <defs></defs>
    <g id="44px-Line" stroke="none" stroke-width="1" fill="none" fill-rule="evenodd">
        <g id="spa-darth-vader"></g>
        <path d="M35.75,22.171 C35.266,20.883 33.923,16.958 33.923,13.116 C33.923,9.636 32.898,6.886 30.877,4.941 C28.56,2.712 25.56,2.166 24,2.037 L24,1 C24,0.447 23.553,0 23,0 L19,0 C18.447,0 18,0.447 18,1 L18,2.036 C16.44,2.165 13.44,2.712 11.123,4.94 C9.102,6.884 8.077,9.634 8.077,13.115 C8.077,16.952 6.729,20.89 6.247,22.175 C6.158,22.369 6.1,22.527 6.067,22.63 C5.287,24.199 0,34.984 0,39 C0,40.122 0.511,40.784 0.939,41.142 C2.588,42.515 5.95,41.901 9.202,41.307 C10.162,41.131 11.073,40.97 11.871,40.87 L12.072,41.371 C12.073,41.374 12.076,41.377 12.077,41.381 C12.082,41.394 12.091,41.404 12.097,41.417 C12.04,41.602 12,41.796 12,42 C12,43.103 12.897,44 14,44 C15.103,44 16,43.103 16,42 L26,42 C26,43.103 26.897,44 28,44 C29.103,44 30,43.103 30,42 C30,41.796 29.96,41.603 29.903,41.417 C29.909,41.404 29.918,41.394 29.923,41.381 C29.924,41.378 29.927,41.375 29.928,41.372 L30.129,40.871 C30.926,40.971 31.838,41.132 32.798,41.308 C34.6,41.637 36.436,41.973 37.995,41.973 C39.25,41.973 40.325,41.755 41.06,41.143 C41.489,40.786 41.999,40.123 41.999,39.001 C41.999,34.985 36.712,24.2 35.932,22.631 C35.899,22.527 35.84,22.367 35.75,22.171 L35.75,22.171 Z M32.22,30 L24,30 L24,29 C24,27.346 22.654,26 21,26 C19.346,26 18,27.346 18,29 L18,30 L9.78,30 L8.211,23.723 C9.43,25.557 11.516,28 13.999,28 C18.719,28 19.905,24.364 19.954,24.21 C19.983,24.113 19.999,24.013 19.999,23.912 L19.999,20.972 C20.265,21.1 20.407,21.191 20.409,21.193 C20.752,21.443 21.228,21.445 21.58,21.199 C21.585,21.196 21.73,21.103 21.999,20.973 L21.999,23.913 C21.999,24.014 22.015,24.114 22.044,24.211 C22.093,24.365 23.279,28.001 27.999,28.001 C30.482,28.001 32.568,25.557 33.787,23.724 L32.22,30 L32.22,30 Z M13.18,38.757 L10.477,32 L17.234,32 L13.18,38.757 L13.18,38.757 Z M19.566,32 L20,32 L20,40 L18,40 L18,34.611 L19.566,32 L19.566,32 Z M20,30 L20,29 C20,28.448 20.448,28 21,28 C21.552,28 22,28.448 22,29 L22,30 L20,30 L20,30 Z M22,32 L22.434,32 L24,34.611 L24,40 L22,40 L22,32 L22,32 Z M26,37.944 L27.234,40 L26,40 L26,37.944 L26,37.944 Z M28.82,38.757 L24.767,32 L31.524,32 L28.82,38.757 L28.82,38.757 Z M9.226,21.554 C10.194,20.765 11.868,20 14.731,20 C16.077,20 17.149,20.143 18.001,20.327 L18.001,23.728 C17.788,24.222 16.825,25.999 14.001,25.999 C12.158,26 10.152,23.166 9.226,21.554 L9.226,21.554 Z M24,20.327 C24.852,20.143 25.923,20 27.27,20 C30.134,20 31.809,20.766 32.776,21.554 C31.852,23.165 29.849,26 28,26 C25.166,26 24.207,24.212 24,23.73 L24,20.327 L24,20.327 Z M12.497,6.394 C14.29,4.661 16.687,4.182 18,4.05 L18,13 C18,13.553 18.447,14 19,14 C19.553,14 20,13.553 20,13 L20,3 L20,2.615 L20,2 L22,2 L22,3 C22,3.271 22.11,3.532 22.307,3.721 C22.502,3.909 22.74,4.011 23.039,3.999 C23.067,3.999 26.892,3.883 29.49,6.382 C31.104,7.935 31.923,10.2 31.923,13.115 C31.923,15.259 32.295,17.391 32.73,19.154 C31.452,18.491 29.697,18 27.27,18 C23.956,18 21.925,18.77 21,19.234 C20.075,18.769 18.045,18 14.73,18 C12.303,18 10.548,18.491 9.27,19.154 C9.705,17.391 10.077,15.259 10.077,13.115 C10.077,10.207 10.892,7.946 12.497,6.394 L12.497,6.394 Z M8.843,39.339 C6.439,39.779 3.147,40.378 2.221,39.606 C2.111,39.515 2,39.372 2,39 C2,36.528 4.77,30.061 6.701,25.927 L8.03,31.242 C8.033,31.255 8.042,31.263 8.046,31.276 C8.055,31.308 8.059,31.34 8.071,31.371 L11.103,38.951 C10.392,39.056 9.629,39.195 8.843,39.339 L8.843,39.339 Z M14.766,40 L16,37.944 L16,40 L14.766,40 L14.766,40 Z M39.779,39.605 C38.853,40.377 35.562,39.779 33.157,39.338 C32.371,39.194 31.608,39.056 30.896,38.95 L33.928,31.37 C33.939,31.341 33.943,31.311 33.951,31.281 C33.955,31.267 33.965,31.255 33.969,31.241 L35.298,25.925 C37.23,30.06 40,36.527 40,39 C40,39.372 39.889,39.515 39.779,39.605 L39.779,39.605 Z" id="Shape" fill="#000000"></path>
    </g>
</svg>