<?xml version="1.0" encoding="UTF-8" standalone="no"?>
<svg width="64px" height="64px" viewBox="0 0 64 64" version="1.1" xmlns="http://www.w3.org/2000/svg" xmlns:xlink="http://www.w3.org/1999/xlink">
    <!-- Generator: Sketch 3.7.2 (28276) - http://www.bohemiancoding.com/sketch -->
    <title>spa-saucer</title>
    <desc>Created with Sketch.</desc>
    <defs></defs>
    <g id="64px-Line" stroke="none" stroke-width="1" fill="none" fill-rule="evenodd">
        <g id="spa-saucer"></g>
        <path d="M19.896,33.058 C20.208,33.402 20.523,33.745 20.86,34.054 C22.364,35.433 24.115,36.463 26,37.13 L26,40.184 C24.839,40.598 24,41.698 24,43 C24,43.462 24.113,43.894 24.3,44.285 L22.9,45.685 C21.504,44.597 19.799,44 18,44 C15.863,44 13.854,44.833 12.343,46.344 C11.952,46.735 11.952,47.368 12.343,47.758 L16.586,52 L14.293,54.293 C13.902,54.684 13.902,55.316 14.293,55.707 C14.488,55.902 14.744,56 15,56 C15.256,56 15.512,55.902 15.707,55.707 L18,53.414 L22.243,57.656 C22.438,57.851 22.694,57.949 22.95,57.949 C23.206,57.949 23.462,57.851 23.657,57.657 C25.168,56.146 26,54.137 26,52 C26,50.2 25.404,48.496 24.315,47.099 L25.715,45.699 C26.106,45.886 26.538,46 27,46 C28.654,46 30,44.654 30,43 C30,41.698 29.161,40.598 28,40.184 L28,37.69 C28.98,37.889 29.983,38 31,38 C32.018,38 33.02,37.887 34,37.687 L34,40.184 C32.839,40.598 32,41.698 32,43 C32,44.654 33.346,46 35,46 C35.462,46 35.894,45.886 36.286,45.699 L38,47.414 L38,55 C38,55.552 38.448,56 39,56 L42,56 C42.552,56 43,55.552 43,55 C43,54.448 42.552,54 42,54 L40,54 L40,48 L46,48 L46,50 C46,50.552 46.448,51 47,51 C47.552,51 48,50.552 48,50 L48,47 C48,46.448 47.552,46 47,46 L39.414,46 L37.7,44.285 C37.887,43.894 38,43.462 38,43 C38,41.698 37.161,40.598 36,40.184 L36,37.131 C38.321,36.31 40.42,34.92 42.108,33.057 C51.556,31.362 58,27.546 58,23 C58,18.53 51.912,14.692 42.096,12.943 C39.35,9.915 35.399,8 31,8 C26.601,8 22.65,9.915 19.904,12.942 C10.088,14.691 4,18.53 4,23 C4,27.546 10.446,31.364 19.896,33.058 L19.896,33.058 Z M22.892,55.477 L14.523,47.109 C15.531,46.389 16.736,46 18,46 C19.603,46 21.109,46.624 22.243,47.758 C23.376,48.891 24,50.397 24,52 C24,53.264 23.612,54.469 22.892,55.477 L22.892,55.477 Z M27,44 C26.729,44 26.484,43.89 26.303,43.713 C26.3,43.71 26.299,43.706 26.296,43.703 C26.293,43.7 26.289,43.699 26.286,43.696 C26.11,43.516 26,43.271 26,43 C26,42.449 26.449,42 27,42 C27.551,42 28,42.449 28,43 C28,43.551 27.551,44 27,44 L27,44 Z M34,43 C34,42.449 34.449,42 35,42 C35.551,42 36,42.449 36,43 C36,43.269 35.891,43.511 35.718,43.691 C35.713,43.696 35.707,43.697 35.702,43.702 C35.697,43.707 35.696,43.713 35.691,43.718 C35.511,43.891 35.269,44 35,44 C34.449,44 34,43.551 34,43 L34,43 Z M31,36 C28.275,36 25.655,35.143 23.463,33.579 C25.848,33.852 28.373,34 31,34 C33.626,34 36.149,33.852 38.533,33.579 C36.352,35.133 33.73,36 31,36 L31,36 Z M31,10 C38.168,10 44,15.832 44,23 C44,24.206 40.538,26 31,26 C21.462,26 18,24.206 18,23 C18,15.832 23.832,10 31,10 L31,10 Z M18.127,15.341 C16.785,17.586 16,20.2 16,23 C16,27.351 25.398,28 31,28 C36.602,28 46,27.351 46,23 C46,20.2 45.215,17.586 43.874,15.341 C51.216,16.991 56,19.952 56,23 C56,27.346 45.955,32 31,32 C16.045,32 6,27.346 6,23 C6,19.952 10.784,16.991 18.127,15.341 L18.127,15.341 Z" id="Shape" fill="#000000"></path>
        <path d="M20.951,22.994 C20.984,22.997 21.018,22.999 21.051,22.999 C21.559,22.999 21.994,22.614 22.045,22.098 C22.503,17.481 26.353,14 31,14 C31.552,14 32,13.552 32,13 C32,12.448 31.552,12 31,12 C25.321,12 20.615,16.256 20.054,21.9 C20,22.45 20.401,22.939 20.951,22.994 L20.951,22.994 Z" id="Shape" fill="#000000"></path>
    </g>
</svg>