<?xml version="1.0" encoding="UTF-8" standalone="no"?>
<svg width="44px" height="44px" viewBox="0 0 44 44" version="1.1" xmlns="http://www.w3.org/2000/svg" xmlns:xlink="http://www.w3.org/1999/xlink">
    <!-- Generator: Sketch 3.7.2 (28276) - http://www.bohemiancoding.com/sketch -->
    <title>spa-capsule-entry</title>
    <desc>Created with Sketch.</desc>
    <defs></defs>
    <g id="44px-Line" stroke="none" stroke-width="1" fill="none" fill-rule="evenodd">
        <g id="spa-capsule-entry"></g>
        <path d="M18.713,22.003 C18.458,21.997 18.19,22.028 17.935,22.087 L6.498,24.594 C5.868,24.684 5.35,24.928 4.956,25.322 C3.318,26.962 3.369,30.517 8.424,35.579 C10.43,37.583 12.414,38.976 14.162,39.609 C14.949,39.894 15.626,40.005 16.203,40.005 C17.476,40.005 18.263,39.462 18.676,39.048 C19.074,38.651 19.32,38.126 19.408,37.488 L21.909,26.073 C21.966,25.828 21.996,25.583 21.997,25.344 C22.003,25.262 21.998,25.181 21.985,25.102 C21.935,24.297 21.599,23.544 21.028,22.969 C20.442,22.383 19.66,22.043 18.82,22.008 C18.786,22.005 18.75,22.003 18.713,22.003 L18.713,22.003 Z M9.839,34.166 C7.742,32.066 6.579,30.214 6.171,28.841 L15.156,37.831 C15.043,37.797 14.936,37.763 14.843,37.729 C13.815,37.357 12.112,36.437 9.839,34.166 L9.839,34.166 Z M19.992,25.286 C19.992,25.315 19.994,25.344 19.998,25.372 C19.995,25.451 19.982,25.535 19.959,25.632 L17.446,37.102 C17.44,37.133 17.433,37.164 17.429,37.195 C17.427,37.215 17.418,37.239 17.415,37.261 L6.744,26.585 C6.766,26.581 6.791,26.573 6.812,26.57 C6.86,26.564 6.908,26.555 6.955,26.542 L18.378,24.038 C18.472,24.016 18.56,24.004 18.643,24.003 C18.666,24.005 18.689,24.006 18.712,24.006 C18.958,24.012 19.314,24.081 19.613,24.381 C19.851,24.622 19.985,24.943 19.992,25.286 L19.992,25.286 Z" id="Shape" fill="#000000"></path>
        <path d="M12.875,26.878 C11.71,28.048 11.71,29.951 12.878,31.125 C13.463,31.707 14.232,31.998 15,31.998 C15.768,31.998 16.537,31.707 17.122,31.125 L17.125,31.122 C18.289,29.953 18.29,28.05 17.122,26.875 C15.951,25.711 14.049,25.712 12.875,26.878 L12.875,26.878 Z M15.709,29.708 C15.316,30.096 14.68,30.096 14.292,29.71 C13.902,29.318 13.902,28.681 14.289,28.293 C14.486,28.097 14.744,28 15.002,28 C15.258,28 15.514,28.096 15.707,28.289 C16.096,28.681 16.097,29.317 15.709,29.708 L15.709,29.708 Z" id="Shape" fill="#000000"></path>
        <path d="M21.586,10.189 C21.255,9.95 20.812,9.936 20.466,10.154 C18.982,11.092 5.901,19.39 3.807,21.806 C-1.261,26.875 -1.261,35.123 3.807,40.192 C6.263,42.648 9.528,44 13,44 C16.473,44 19.737,42.647 22.192,40.192 C22.207,40.177 22.221,40.163 22.234,40.148 C24.165,37.964 31.537,26.073 31.85,25.567 C32.071,25.21 32.046,24.753 31.786,24.423 C31.527,24.092 31.088,23.961 30.689,24.09 L27.512,25.128 L43.822,1.569 C44.101,1.166 44.047,0.619 43.693,0.279 C43.339,-0.061 42.792,-0.095 42.4,0.199 L20.653,16.509 L21.97,11.241 C22.07,10.846 21.917,10.429 21.586,10.189 L21.586,10.189 Z M38.67,5.498 L24.178,26.431 C23.934,26.784 23.942,27.254 24.199,27.598 C24.456,27.942 24.902,28.084 25.311,27.951 L28.697,26.846 C25.923,31.266 21.999,37.378 20.756,38.802 C18.681,40.865 15.928,42.002 13,42.002 C10.062,42.002 7.299,40.857 5.221,38.78 C0.933,34.491 0.933,27.512 5.269,23.171 C6.678,21.548 14.654,16.264 19.421,13.196 L18.03,18.759 C17.927,19.17 18.094,19.601 18.447,19.835 C18.8,20.069 19.261,20.057 19.6,19.802 L38.67,5.498 L38.67,5.498 Z" id="Shape" fill="#000000"></path>
    </g>
</svg>