<?xml version="1.0" encoding="UTF-8" standalone="no"?>
<svg width="64px" height="64px" viewBox="0 0 64 64" version="1.1" xmlns="http://www.w3.org/2000/svg" xmlns:xlink="http://www.w3.org/1999/xlink">
    <!-- Generator: Sketch 3.7.2 (28276) - http://www.bohemiancoding.com/sketch -->
    <title>spa-r2d2</title>
    <desc>Created with Sketch.</desc>
    <defs></defs>
    <g id="64px-Glyph" stroke="none" stroke-width="1" fill="none" fill-rule="evenodd">
        <g id="spa-r2d2" fill="#000000">
            <path d="M55.9288,54.6284 L51.9998,44.8064 L51.9998,30.0004 L52.9998,30.0004 C53.5528,30.0004 53.9998,29.5524 53.9998,29.0004 L53.9998,21.0004 C53.9998,20.4474 53.5528,20.0004 52.9998,20.0004 L49.9998,20.0004 L49.9998,43.0004 C49.9998,43.8014 49.6878,44.5544 49.1208,45.1214 L45.1648,49.0774 L44.0198,54.8034 C43.9608,55.0974 44.0368,55.4024 44.2268,55.6334 C44.4168,55.8654 44.7008,56.0004 44.9998,56.0004 L54.9998,56.0004 C55.3318,56.0004 55.6418,55.8354 55.8278,55.5604 C56.0138,55.2854 56.0518,54.9364 55.9288,54.6284" id="Fill-145"></path>
            <path d="M10.0717,54.6284 L14.0007,44.8064 L14.0007,30.0004 L13.0007,30.0004 C12.4477,30.0004 12.0007,29.5524 12.0007,29.0004 L12.0007,21.0004 C12.0007,20.4474 12.4477,20.0004 13.0007,20.0004 L16.0007,20.0004 L16.0007,43.0004 C16.0007,43.8014 16.3127,44.5544 16.8797,45.1214 L20.8357,49.0774 L21.9807,54.8034 C22.0397,55.0974 21.9637,55.4024 21.7737,55.6334 C21.5837,55.8654 21.3007,56.0004 21.0007,56.0004 L11.0007,56.0004 C10.6687,56.0004 10.3587,55.8354 10.1727,55.5604 C9.9867,55.2854 9.9487,54.9364 10.0717,54.6284" id="Fill-146"></path>
            <path d="M41.0002,44 L25.0002,44 C24.4472,44 24.0002,43.552 24.0002,43 C24.0002,42.448 24.4472,42 25.0002,42 L41.0002,42 C41.5532,42 42.0002,42.448 42.0002,43 C42.0002,43.552 41.5532,44 41.0002,44 L41.0002,44 Z M18.0002,22 L18.0002,43 C18.0002,43.265 18.1052,43.52 18.2932,43.707 L22.2932,47.707 C22.4802,47.895 22.7342,48 23.0002,48 L32.0002,48 L32.0002,50 L31.0002,50 C30.6212,50 30.2752,50.214 30.1052,50.553 L26.1052,58.553 C25.9502,58.863 25.9672,59.231 26.1492,59.526 C26.3322,59.82 26.6532,60 27.0002,60 L39.0002,60 C39.3472,60 39.6682,59.82 39.8512,59.526 C40.0332,59.231 40.0502,58.863 39.8942,58.553 L35.8942,50.553 C35.7252,50.214 35.3792,50 35.0002,50 L34.0002,50 L34.0002,48 L43.0002,48 C43.2662,48 43.5192,47.895 43.7072,47.707 L47.7072,43.707 C47.8942,43.52 48.0002,43.265 48.0002,43 L48.0002,22 L18.0002,22 Z" id="Fill-147"></path>
            <path d="M40.0002,18 C38.8972,18 38.0002,17.103 38.0002,16 C38.0002,14.897 38.8972,14 40.0002,14 C41.1022,14 42.0002,14.897 42.0002,16 C42.0002,17.103 41.1022,18 40.0002,18 M33.0002,16 C31.3462,16 30.0002,14.654 30.0002,13 C30.0002,11.346 31.3462,10 33.0002,10 C34.6542,10 36.0002,11.346 36.0002,13 C36.0002,14.654 34.6542,16 33.0002,16 M33.0002,4 C24.7282,4 18.0002,10.729 18.0002,19 L18.0002,20 L48.0002,20 L48.0002,19 C48.0002,10.729 41.2712,4 33.0002,4" id="Fill-148"></path>
        </g>
    </g>
</svg>