<?xml version="1.0" encoding="UTF-8" standalone="no"?>
<svg width="64px" height="64px" viewBox="0 0 64 64" version="1.1" xmlns="http://www.w3.org/2000/svg" xmlns:xlink="http://www.w3.org/1999/xlink">
    <!-- Generator: Sketch 3.7.2 (28276) - http://www.bohemiancoding.com/sketch -->
    <title>spa-orbit-2</title>
    <desc>Created with Sketch.</desc>
    <defs></defs>
    <g id="64px-Glyph" stroke="none" stroke-width="1" fill="none" fill-rule="evenodd">
        <g id="spa-orbit-2" fill="#000000">
            <path d="M24.9309,46.4365 C24.7989,45.9005 24.2539,45.5685 23.7209,45.7045 C23.1039,45.8555 22.5349,45.9305 21.9969,45.9655 C21.9779,43.7875 20.2119,42.0215 18.0329,42.0035 C18.0659,41.5055 18.1319,40.9815 18.2639,40.4155 C18.3899,39.8775 18.0559,39.3385 17.5179,39.2135 C16.9799,39.0865 16.4419,39.4225 16.3169,39.9595 C16.1069,40.8595 16.0009,41.7095 16.0009,42.4875 C16.0009,42.5105 16.0039,42.5315 16.0039,42.5545 C14.8119,43.2475 13.9999,44.5245 13.9999,46.0005 C13.9999,48.2065 15.7949,50.0005 17.9999,50.0005 C19.4749,50.0005 20.7519,49.1885 21.4449,47.9975 C21.4729,47.9975 21.4969,47.9985 21.5249,47.9985 C22.3449,47.9985 23.2439,47.8795 24.1989,47.6455 C24.7349,47.5135 25.0629,46.9725 24.9309,46.4365" id="Fill-111"></path>
            <path d="M39.5046,37.5186 C39.1856,37.8576 38.8586,38.1946 38.5246,38.5276 C38.1306,38.9206 37.7336,39.3046 37.3336,39.6786 C37.1406,39.8596 36.8956,39.9486 36.6506,39.9486 C36.3836,39.9486 36.1166,39.8416 35.9196,39.6306 C35.5436,39.2276 35.5646,38.5946 35.9676,38.2176 C36.3516,37.8596 36.7326,37.4916 37.1116,37.1126 C37.4326,36.7916 37.7446,36.4706 38.0496,36.1476 C38.4286,35.7456 39.0616,35.7256 39.4626,36.1056 C39.8646,36.4846 39.8836,37.1176 39.5046,37.5186 M44.7236,28.8216 C44.3496,28.6016 43.8996,28.6596 43.5846,28.9196 C42.4916,24.8126 39.2766,21.5716 35.1836,20.4416 C35.2616,20.3976 35.3416,20.3466 35.4186,20.3036 C35.9016,20.0366 36.0766,19.4276 35.8086,18.9446 C35.5406,18.4616 34.9326,18.2856 34.4486,18.5556 C33.6726,18.9866 32.8806,19.4766 32.0906,20.0046 C32.0606,20.0046 32.0306,19.9996 32.0006,19.9996 C25.3836,19.9996 20.0006,25.3826 20.0006,31.9996 C20.0006,32.0296 20.0046,32.0586 20.0046,32.0886 C19.5426,32.7806 19.1046,33.4776 18.7126,34.1686 C18.4406,34.6496 18.6086,35.2596 19.0876,35.5326 C19.2446,35.6206 19.4136,35.6636 19.5816,35.6636 C19.9226,35.6636 20.2526,35.4866 20.4396,35.1726 C21.5606,39.2516 24.7786,42.4596 28.8616,43.5696 C28.4786,43.8716 28.3506,44.4046 28.6006,44.8396 C28.7856,45.1616 29.1226,45.3416 29.4686,45.3416 C29.6376,45.3416 29.8096,45.2986 29.9656,45.2086 C30.6036,44.8426 31.2526,44.4286 31.9026,43.9956 C31.9356,43.9956 31.9676,43.9996 32.0006,43.9996 C38.6166,43.9996 44.0006,38.6176 44.0006,31.9996 C44.0006,31.9686 43.9956,31.9376 43.9956,31.9056 C44.3796,31.3296 44.7486,30.7546 45.0806,30.1896 C45.3596,29.7126 45.1996,29.1006 44.7236,28.8216" id="Fill-112"></path>
            <path d="M46.613,25.2021 C46.528,25.2021 46.443,25.1911 46.357,25.1691 C45.823,25.0281 45.505,24.4801 45.646,23.9461 C45.881,23.0561 46,22.2371 46,21.5131 L45.996,21.2761 C45.975,20.7231 46.406,20.2601 46.958,20.2391 C47.508,20.1961 47.974,20.6481 47.995,21.2001 C47.999,21.3041 48,21.4081 48,21.5131 C48,22.4091 47.859,23.4001 47.579,24.4581 C47.461,24.9061 47.056,25.2021 46.613,25.2021" id="Fill-113"></path>
            <path d="M40.4899,18.2236 C40.0259,18.2236 39.6109,17.8996 39.5119,17.4276 C39.3989,16.8866 39.7459,16.3576 40.2869,16.2446 C41.5069,15.9906 42.6339,15.9346 43.6189,16.0806 C44.1659,16.1626 44.5419,16.6716 44.4599,17.2186 C44.3789,17.7646 43.8629,18.1356 43.3239,18.0596 C42.5709,17.9456 41.6789,17.9976 40.6949,18.2026 C40.6259,18.2166 40.5569,18.2236 40.4899,18.2236" id="Fill-114"></path>
            <path d="M13.3957,60 C12.2327,60 11.1767,59.871 10.2237,59.616 C9.6897,59.474 9.3727,58.926 9.5157,58.393 C9.6577,57.858 10.2047,57.542 10.7397,57.685 C11.5267,57.895 12.4117,58.001 13.3697,58.001 C13.9217,58.001 14.4107,58.448 14.4107,59.001 C14.4107,59.553 14.0047,60 13.4527,60 L13.4527,59 L13.4037,60 L13.3957,60 Z" id="Fill-115"></path>
            <path d="M19.3444,58.9941 C18.9164,58.9941 18.5204,58.7181 18.3884,58.2861 C18.2274,57.7591 18.5244,57.1991 19.0524,57.0381 C19.9404,56.7671 20.8624,56.4361 21.7924,56.0581 C22.3044,55.8481 22.8884,56.0971 23.0954,56.6071 C23.3044,57.1191 23.0584,57.7021 22.5464,57.9101 C21.5604,58.3111 20.5824,58.6611 19.6374,58.9501 C19.5394,58.9801 19.4414,58.9941 19.3444,58.9941" id="Fill-116"></path>
            <path d="M5.9245,56.0439 C5.5575,56.0439 5.2045,55.8419 5.0295,55.4909 C4.5605,54.5539 4.2475,53.4799 4.1005,52.3009 C4.0325,51.7529 4.4215,51.2529 4.9695,51.1849 C5.5115,51.1219 6.0175,51.5049 6.0855,52.0529 C6.2045,53.0069 6.4505,53.8619 6.8185,54.5969 C7.0655,55.0909 6.8645,55.6909 6.3705,55.9389 C6.2275,56.0099 6.0745,56.0439 5.9245,56.0439" id="Fill-117"></path>
            <path d="M27.5564,55.3486 C27.2084,55.3486 26.8704,55.1666 26.6854,54.8426 C26.4134,54.3626 26.5814,53.7516 27.0614,53.4796 C27.8884,53.0096 28.7384,52.4956 29.5864,51.9546 C30.0514,51.6586 30.6714,51.7946 30.9674,52.2596 C31.2644,52.7256 31.1274,53.3436 30.6624,53.6406 C29.7854,54.2016 28.9064,54.7316 28.0494,55.2176 C27.8934,55.3066 27.7234,55.3486 27.5564,55.3486" id="Fill-118"></path>
            <path d="M35.0275,50.3408 C34.7285,50.3408 34.4325,50.2068 34.2355,49.9508 C33.8975,49.5138 33.9795,48.8858 34.4165,48.5488 C35.1865,47.9548 35.9555,47.3368 36.7225,46.6948 C37.1465,46.3388 37.7765,46.3958 38.1315,46.8198 C38.4865,47.2418 38.4305,47.8728 38.0075,48.2278 C37.2185,48.8878 36.4285,49.5238 35.6375,50.1328 C35.4555,50.2738 35.2405,50.3408 35.0275,50.3408" id="Fill-119"></path>
            <path d="M5.5764,47.2295 C5.4984,47.2295 5.4194,47.2205 5.3414,47.2015 C4.8044,47.0725 4.4734,46.5325 4.6034,45.9955 C4.8344,45.0375 5.1344,44.0375 5.4934,43.0225 C5.6784,42.5025 6.2504,42.2305 6.7704,42.4145 C7.2904,42.5985 7.5634,43.1695 7.3784,43.6905 C7.0424,44.6405 6.7624,45.5745 6.5474,46.4635 C6.4364,46.9215 6.0274,47.2295 5.5764,47.2295" id="Fill-120"></path>
            <path d="M41.8161,44.4385 C41.5561,44.4385 41.2961,44.3365 41.0991,44.1355 C40.7141,43.7405 40.7231,43.1075 41.1191,42.7215 C41.3881,42.4595 41.6571,42.1945 41.9261,41.9255 C42.3601,41.4915 42.7871,41.0545 43.2061,40.6165 C43.5881,40.2175 44.2211,40.2035 44.6201,40.5845 C45.0191,40.9665 45.0331,41.5995 44.6521,41.9995 C44.2221,42.4475 43.7851,42.8935 43.3411,43.3385 C43.0651,43.6145 42.7901,43.8865 42.5131,44.1555 C42.3191,44.3445 42.0681,44.4385 41.8161,44.4385" id="Fill-121"></path>
            <path d="M8.8679,38.876 C8.7109,38.876 8.5519,38.839 8.4029,38.761 C7.9139,38.503 7.7269,37.898 7.9839,37.409 C8.4429,36.539 8.9489,35.644 9.4859,34.748 C9.7699,34.273 10.3839,34.119 10.8579,34.405 C11.3309,34.69 11.4849,35.304 11.2009,35.777 C10.6819,36.642 10.1949,37.504 9.7539,38.343 C9.5739,38.682 9.2269,38.876 8.8679,38.876" id="Fill-122"></path>
            <path d="M47.9104,37.8213 C47.6864,37.8213 47.4614,37.7473 47.2754,37.5943 C46.8484,37.2433 46.7874,36.6123 47.1384,36.1863 C47.7744,35.4123 48.3864,34.6363 48.9714,33.8623 C49.3044,33.4223 49.9314,33.3333 50.3724,33.6683 C50.8124,34.0013 50.9004,34.6293 50.5674,35.0693 C49.9654,35.8653 49.3374,36.6623 48.6834,37.4563 C48.4854,37.6973 48.1984,37.8213 47.9104,37.8213" id="Fill-123"></path>
            <path d="M13.6765,31.2764 C13.4705,31.2764 13.2625,31.2124 13.0845,31.0824 C12.6395,30.7534 12.5445,30.1284 12.8725,29.6834 C13.4635,28.8804 14.0815,28.0764 14.7255,27.2724 C15.0715,26.8404 15.7015,26.7724 16.1305,27.1174 C16.5615,27.4624 16.6315,28.0914 16.2855,28.5224 C15.6595,29.3044 15.0575,30.0874 14.4825,30.8694 C14.2865,31.1354 13.9835,31.2764 13.6765,31.2764" id="Fill-124"></path>
            <path d="M53.1726,30.5264 C52.9916,30.5264 52.8096,30.4774 52.6446,30.3754 C52.1756,30.0834 52.0326,29.4664 52.3246,28.9984 C52.8536,28.1494 53.3546,27.2944 53.8156,26.4564 C54.0826,25.9724 54.6906,25.7974 55.1736,26.0624 C55.6576,26.3294 55.8346,26.9364 55.5676,27.4214 C55.0896,28.2904 54.5696,29.1764 54.0226,30.0544 C53.8326,30.3594 53.5066,30.5264 53.1726,30.5264" id="Fill-125"></path>
            <path d="M19.4357,24.3652 C19.1907,24.3652 18.9457,24.2762 18.7527,24.0962 C18.3497,23.7192 18.3287,23.0862 18.7057,22.6822 C19.3387,22.0042 19.9907,21.3302 20.6597,20.6602 L20.8207,20.5002 C21.2127,20.1122 21.8457,20.1142 22.2347,20.5062 C22.6237,20.8982 22.6207,21.5312 22.2287,21.9202 L22.0777,22.0712 C21.4217,22.7282 20.7857,23.3872 20.1657,24.0482 C19.9697,24.2592 19.7027,24.3652 19.4357,24.3652" id="Fill-126"></path>
            <path d="M57.2439,22.5107 C57.1239,22.5107 57.0029,22.4897 56.8849,22.4447 C56.3689,22.2457 56.1119,21.6667 56.3109,21.1517 C56.6729,20.2097 56.9819,19.2837 57.2289,18.3977 C57.3769,17.8657 57.9299,17.5517 58.4609,17.7027 C58.9929,17.8517 59.3039,18.4027 59.1559,18.9347 C58.8909,19.8807 58.5619,20.8677 58.1769,21.8697 C58.0239,22.2677 57.6449,22.5107 57.2439,22.5107" id="Fill-127"></path>
            <path d="M25.9299,18.1387 C25.6479,18.1387 25.3689,18.0207 25.1709,17.7897 C24.8109,17.3697 24.8589,16.7397 25.2789,16.3797 C26.0579,15.7107 26.8409,15.0657 27.6229,14.4467 C28.0559,14.1037 28.6849,14.1757 29.0279,14.6107 C29.3709,15.0427 29.2979,15.6717 28.8649,16.0147 C28.1019,16.6177 27.3399,17.2457 26.5799,17.8977 C26.3919,18.0597 26.1599,18.1387 25.9299,18.1387" id="Fill-128"></path>
            <path d="M58.9851,13.7451 C58.4541,13.7451 58.0121,13.3271 57.9871,12.7921 C57.9411,11.8141 57.7771,10.9241 57.4981,10.1431 C57.3121,9.6231 57.5831,9.0511 58.1031,8.8651 C58.6241,8.6811 59.1951,8.9501 59.3811,9.4701 C59.7271,10.4361 59.9301,11.5231 59.9851,12.6981 C60.0101,13.2501 59.5841,13.7191 59.0321,13.7441 C59.0171,13.7451 59.0011,13.7451 58.9851,13.7451" id="Fill-129"></path>
            <path d="M46.5095,5.4893 C46.3655,4.9573 45.8185,4.6403 45.2835,4.7843 C44.5725,4.9763 43.8315,5.2183 43.0825,5.4813 C42.3485,4.5853 41.2465,4.0003 40.0005,4.0003 C37.7945,4.0003 36.0005,5.7943 36.0005,8.0003 C36.0005,8.4633 36.0945,8.9013 36.2405,9.3153 C35.9265,9.0823 35.4915,9.0453 35.1345,9.2563 C34.2795,9.7603 33.4105,10.3043 32.5495,10.8723 C32.0885,11.1753 31.9615,11.7963 32.2645,12.2573 C32.4575,12.5483 32.7755,12.7073 33.1005,12.7073 C33.2895,12.7073 33.4805,12.6533 33.6505,12.5423 C34.4835,11.9923 35.3255,11.4663 36.1525,10.9783 C36.4635,10.7943 36.6215,10.4653 36.6265,10.1283 C37.3355,11.2493 38.5785,12.0003 40.0005,12.0003 C42.2055,12.0003 44.0005,10.2063 44.0005,8.0003 C44.0005,7.7613 43.9695,7.5303 43.9295,7.3023 C44.5685,7.0823 45.1995,6.8793 45.8045,6.7163 C46.3385,6.5713 46.6535,6.0223 46.5095,5.4893" id="Fill-130"></path>
            <path d="M54.3977,6.6377 C54.2767,6.6377 54.1547,6.6167 54.0347,6.5697 C53.2677,6.2707 52.3837,6.0867 51.4097,6.0247 C50.8577,5.9897 50.4397,5.5137 50.4757,4.9627 C50.5117,4.4107 50.9907,4.0097 51.5377,4.0287 C52.7167,4.1037 53.8017,4.3317 54.7617,4.7057 C55.2757,4.9067 55.5307,5.4867 55.3297,6.0007 C55.1757,6.3967 54.7977,6.6377 54.3977,6.6377" id="Fill-131"></path>
        </g>
    </g>
</svg>