<?xml version="1.0" encoding="UTF-8" standalone="no"?>
<svg width="44px" height="44px" viewBox="0 0 44 44" version="1.1" xmlns="http://www.w3.org/2000/svg" xmlns:xlink="http://www.w3.org/1999/xlink">
    <!-- Generator: Sketch 3.7.2 (28276) - http://www.bohemiancoding.com/sketch -->
    <title>spa-shuttle</title>
    <desc>Created with Sketch.</desc>
    <defs></defs>
    <g id="44px-Glyph" stroke="none" stroke-width="1" fill="none" fill-rule="evenodd">
        <g id="spa-shuttle" fill="#000000">
            <path d="M26.0002,38 L35.9632,38 C35.6292,33.646 33.1262,31.047 30.4872,28.308 C28.9232,26.684 27.2552,24.945 26.0002,22.748 L26.0002,38 Z" id="Fill-208"></path>
            <path d="M16.0002,38 L16.0002,22.73 C14.7462,24.929 13.0782,26.676 11.5142,28.308 C8.8752,31.06 6.3732,33.67 6.0382,38 L16.0002,38 Z" id="Fill-209"></path>
            <path d="M22.5558,22.2236 C22.0028,22.2236 21.5558,21.7756 21.5558,21.2236 C21.5558,20.9176 21.3068,20.6676 20.9998,20.6676 C20.6938,20.6676 20.4448,20.9176 20.4448,21.2236 C20.4448,21.7756 19.9968,22.2236 19.4448,22.2236 C18.8918,22.2236 18.4448,21.7756 18.4448,21.2236 C18.4448,19.8146 19.5908,18.6676 20.9998,18.6676 C22.4098,18.6676 23.5558,19.8146 23.5558,21.2236 C23.5558,21.7756 23.1088,22.2236 22.5558,22.2236 L22.5558,22.2236 Z M17.9998,15.9996 L17.9998,37.9996 L19.9998,37.9996 L19.9998,30.9996 C19.9998,30.4476 20.4478,29.9996 20.9998,29.9996 C21.5528,29.9996 21.9998,30.4476 21.9998,30.9996 L21.9998,37.9996 L23.9998,37.9996 L23.9998,15.9996 L17.9998,15.9996 Z" id="Fill-210"></path>
            <path d="M10.0002,15 C10.0002,13.649 10.2322,12.012 10.6682,10.295 C10.2552,9.922 9.5422,9.944 9.2002,10.4 L6.2002,14.401 C6.0702,14.575 6.0002,14.785 6.0002,15.001 L6.0002,31.843 C7.1162,30.021 8.5662,28.494 10.0002,26.997 L10.0002,15 Z" id="Fill-211"></path>
            <path d="M21.0002,8 C18.9122,8 18.2052,11.764 18.0422,14 L23.9522,14 C23.7762,11.765 23.0552,8 21.0002,8" id="Fill-212"></path>
            <path d="M35.8,14.8474 L32.8,10.8454 C32.611,10.5944 32.315,10.4464 32,10.4464 C31.785,10.4464 31.593,10.5354 31.423,10.6604 C31.801,12.2434 32,13.7454 32,15.0004 L32,26.9954 C33.435,28.4854 34.884,30.0044 36,31.8244 L36,15.4474 C36,15.2314 35.93,15.0204 35.8,14.8474" id="Fill-213"></path>
            <path d="M16.0002,15 C16.0002,14.632 16.0572,6 21.0002,6 C25.8962,6 25.9982,14.627 26.0002,14.995 C26.0002,19.517 27.7692,22.329 30.0002,24.857 L30.0002,15 C30.0002,9.349 25.7942,0 21.0002,0 C16.2062,0 12.0002,9.349 12.0002,15 L12.0002,24.848 C14.2312,22.309 16.0002,19.493 16.0002,15" id="Fill-214"></path>
            <path d="M6.5565,40 C6.2125,40.591 6.0005,41.268 6.0005,42 L6.0005,43 C6.0005,43.552 6.4475,44 7.0005,44 L13.0005,44 C13.5525,44 14.0005,43.552 14.0005,43 L14.0005,42 C14.0005,41.268 13.7885,40.591 13.4435,40 L6.5565,40 Z" id="Fill-215"></path>
            <path d="M28.5565,40 C28.2125,40.591 28.0005,41.268 28.0005,42 L28.0005,43 C28.0005,43.552 28.4475,44 29.0005,44 L35.0005,44 C35.5525,44 36.0005,43.552 36.0005,43 L36.0005,42 C36.0005,41.268 35.7885,40.591 35.4435,40 L28.5565,40 Z" id="Fill-216"></path>
            <path d="M16.6958,40 C16.2648,40.591 15.9998,41.268 15.9998,42 L15.9998,43 C15.9998,43.552 16.4478,44 16.9998,44 L24.9998,44 C25.5528,44 25.9998,43.552 25.9998,43 L25.9998,42 C25.9998,41.268 25.7348,40.591 25.3048,40 L16.6958,40 Z" id="Fill-217"></path>
        </g>
    </g>
</svg>