<?xml version="1.0" encoding="UTF-8" standalone="no"?>
<svg width="44px" height="44px" viewBox="0 0 44 44" version="1.1" xmlns="http://www.w3.org/2000/svg" xmlns:xlink="http://www.w3.org/1999/xlink">
    <!-- Generator: Sketch 3.7.2 (28276) - http://www.bohemiancoding.com/sketch -->
    <title>spa-meteors</title>
    <desc>Created with Sketch.</desc>
    <defs></defs>
    <g id="44px-Line" stroke="none" stroke-width="1" fill="none" fill-rule="evenodd">
        <g id="spa-meteors"></g>
        <path d="M2,32 C2,38.615 7.383,43.998 14,44 C20.614,44 25.998,38.617 26,32 C25.998,25.383 20.614,20 14,20 C7.383,20 2,25.383 2,32 L2,32 Z M24,32 C23.998,37.514 19.513,42 14,42 C8.486,41.998 4,37.512 4,32 C4,26.486 8.486,22 14,22 C19.513,22 23.998,26.486 24,32 L24,32 Z" id="Shape" fill="#000000"></path>
        <path d="M20,36 C21.068,36 22.072,35.584 22.828,34.828 C23.219,34.437 23.219,33.805 22.828,33.414 C22.437,33.023 21.805,33.023 21.414,33.414 C20.658,34.17 19.342,34.17 18.586,33.414 C17.807,32.634 17.807,31.366 18.586,30.586 C18.977,30.195 18.977,29.563 18.586,29.172 C18.195,28.781 17.563,28.781 17.172,29.172 C15.612,30.732 15.612,33.269 17.172,34.828 C17.927,35.583 18.931,36 20,36 L20,36 Z" id="Shape" fill="#000000"></path>
        <path d="M11.707,35.707 C11.316,36.097 10.684,36.097 10.293,35.707 C9.903,35.317 9.903,34.683 10.293,34.293 C10.684,33.902 10.684,33.27 10.293,32.879 C9.902,32.488 9.27,32.488 8.879,32.879 C7.709,34.048 7.709,35.952 8.879,37.121 C9.464,37.706 10.232,37.998 11,37.998 C11.768,37.998 12.536,37.706 13.121,37.121 C13.512,36.73 13.512,36.098 13.121,35.707 C12.73,35.316 12.098,35.316 11.707,35.707 L11.707,35.707 Z" id="Shape" fill="#000000"></path>
        <path d="M12,26 C12.391,25.609 12.391,24.977 12,24.586 C11.609,24.195 10.977,24.195 10.586,24.586 C9.806,25.366 9.806,26.634 10.586,27.414 C10.976,27.804 11.488,27.999 12,27.999 C12.512,27.999 13.024,27.804 13.414,27.414 C13.805,27.023 13.805,26.391 13.414,26 C13.023,25.609 12.391,25.609 12,26 L12,26 Z" id="Shape" fill="#000000"></path>
        <path d="M33.002,4 C26.936,4 22,8.938 22,15.009 C22,21.07 26.936,26 33.002,26 C39.066,26 44,21.069 44,15.009 C44,8.938 39.066,4 33.002,4 L33.002,4 Z M33.002,24 C28.038,24 24,19.967 24,15.009 C24,10.042 28.038,6 33.002,6 C37.964,6 42,10.042 42,15.009 C42,19.967 37.964,24 33.002,24 L33.002,24 Z" id="Shape" fill="#000000"></path>
        <path d="M29.999,20.001 L29.999,20.001 C30.391,19.609 30.391,18.977 30,18.586 C29.609,18.195 28.977,18.195 28.586,18.586 C27.806,19.366 27.806,20.634 28.586,21.414 C28.976,21.804 29.488,21.999 30,21.999 C30.512,21.999 31.024,21.804 31.414,21.414 C31.805,21.023 31.805,20.391 31.414,20 C31.023,19.609 30.39,19.61 29.999,20.001 L29.999,20.001 Z" id="Shape" fill="#000000"></path>
        <path d="M36.586,15.414 C35.807,14.634 35.807,13.366 36.586,12.586 C36.977,12.195 36.977,11.563 36.586,11.172 C36.195,10.781 35.563,10.781 35.172,11.172 C33.612,12.732 33.612,15.269 35.172,16.828 C35.928,17.584 36.932,18 38,18 C39.069,18 40.073,17.583 40.828,16.828 C41.219,16.437 41.219,15.804 40.828,15.413 C40.437,15.023 39.805,15.023 39.414,15.413 C38.658,16.17 37.342,16.17 36.586,15.414 L36.586,15.414 Z" id="Shape" fill="#000000"></path>
        <path d="M30.268,13.268 C30.659,12.877 30.659,12.245 30.268,11.854 C29.877,11.463 29.245,11.463 28.854,11.854 C28.726,11.981 28.578,12 28.5,12 C28.422,12 28.274,11.981 28.146,11.854 C27.952,11.659 27.952,11.342 28.146,11.147 C28.537,10.756 28.537,10.124 28.146,9.733 C27.755,9.342 27.123,9.342 26.732,9.733 C25.757,10.708 25.757,12.294 26.731,13.268 C27.203,13.741 27.831,14.001 28.5,14.001 C29.168,14 29.795,13.74 30.268,13.268 L30.268,13.268 Z" id="Shape" fill="#000000"></path>
        <path d="M0,9.008 C0,13.966 4.038,18 9.002,18 C13.964,18 18,13.966 18,9.008 C18,4.041 13.964,0 9.002,0 C4.038,0 0,4.041 0,9.008 L0,9.008 Z M9.002,2 C12.86,2 16,5.144 16,9.008 C16,12.863 12.86,16 9.002,16 C5.141,16 2,12.863 2,9.008 C2,5.144 5.141,2 9.002,2 L9.002,2 Z" id="Shape" fill="#000000"></path>
        <path d="M4.586,13.414 C4.976,13.804 5.488,13.999 6,13.999 C6.512,13.999 7.024,13.804 7.414,13.414 C7.805,13.023 7.805,12.391 7.414,12 C7.023,11.609 6.39,11.61 5.999,12 L6,12 C6.391,11.609 6.391,10.977 6,10.586 C5.609,10.195 4.977,10.195 4.586,10.586 C3.806,11.366 3.806,12.634 4.586,13.414 L4.586,13.414 Z" id="Shape" fill="#000000"></path>
        <path d="M10.586,13.414 C10.976,13.804 11.488,13.999 12,13.999 C12.512,13.999 13.024,13.804 13.414,13.414 C13.805,13.023 13.805,12.391 13.414,12 C13.023,11.609 12.39,11.61 11.999,12 L12,12 C12.391,11.609 12.391,10.977 12,10.586 C11.609,10.195 10.977,10.195 10.586,10.586 C9.806,11.366 9.806,12.634 10.586,13.414 L10.586,13.414 Z" id="Shape" fill="#000000"></path>
        <path d="M8.5,9 C9.168,9 9.795,8.74 10.268,8.268 C10.659,7.877 10.659,7.245 10.268,6.854 C9.877,6.463 9.245,6.463 8.854,6.854 C8.726,6.981 8.578,7 8.5,7 C8.422,7 8.274,6.981 8.146,6.854 C7.952,6.659 7.952,6.342 8.146,6.147 C8.537,5.756 8.537,5.124 8.146,4.733 C7.755,4.342 7.123,4.342 6.732,4.733 C5.757,5.708 5.757,7.294 6.731,8.268 C7.203,8.74 7.831,9 8.5,9 L8.5,9 Z" id="Shape" fill="#000000"></path>
    </g>
</svg>