<?xml version="1.0" encoding="UTF-8" standalone="no"?>
<svg width="44px" height="44px" viewBox="0 0 44 44" version="1.1" xmlns="http://www.w3.org/2000/svg" xmlns:xlink="http://www.w3.org/1999/xlink">
    <!-- Generator: Sketch 3.7.2 (28276) - http://www.bohemiancoding.com/sketch -->
    <title>spa-telescope</title>
    <desc>Created with Sketch.</desc>
    <defs></defs>
    <g id="44px-Glyph" stroke="none" stroke-width="1" fill="none" fill-rule="evenodd">
        <g id="spa-telescope" fill="#000000">
            <path d="M5.0248,25.6502 L11.2778,22.5972 L8.6038,17.3642 C8.5958,17.3472 8.5918,17.3292 8.5838,17.3122 L2.3398,20.3972 L1.8908,19.5182 C1.6388,19.0272 1.0368,18.8322 0.5448,19.0832 C0.0538,19.3342 -0.1412,19.9372 0.1098,20.4292 L3.7008,27.4552 C3.8778,27.8012 4.2288,28.0002 4.5928,28.0002 C4.7458,28.0002 4.9008,27.9652 5.0468,27.8902 C5.5388,27.6392 5.7328,27.0362 5.4818,26.5452 L5.0248,25.6502 Z" id="Fill-189"></path>
            <path d="M43.8908,7.5713 L40.2998,0.5453 C40.0508,0.0583 39.4568,-0.1387 38.9658,0.1033 L22.8888,8.0473 C22.6488,8.1653 22.4668,8.3753 22.3828,8.6293 C22.2988,8.8833 22.3198,9.1603 22.4408,9.3983 L25.9338,16.2333 C25.9728,16.4863 26.0008,16.7433 26.0008,17.0003 C26.0008,19.7573 23.7578,22.0003 21.0008,22.0003 C19.6958,22.0003 18.4698,21.4933 17.5508,20.6143 L24.2378,17.3093 L20.6608,10.3083 C20.6518,10.2923 20.6488,10.2743 20.6398,10.2573 L10.8328,15.1023 C10.5928,15.2213 10.4108,15.4303 10.3268,15.6843 C10.2428,15.9383 10.2638,16.2163 10.3848,16.4543 L13.0768,21.7233 C13.2538,22.0693 13.6048,22.2683 13.9688,22.2683 C14.1178,22.2683 14.2688,22.2353 14.4108,22.1653 L15.6728,21.5413 C16.2328,22.1993 16.9028,22.7403 17.6458,23.1453 L8.1028,42.5593 C7.8598,43.0543 8.0638,43.6543 8.5598,43.8973 C8.7018,43.9673 8.8518,44.0003 8.9998,44.0003 C9.3698,44.0003 9.7238,43.7953 9.8978,43.4413 L19.5358,23.8343 C19.6898,23.8673 19.8438,23.9003 19.9998,23.9223 L19.9998,43.0003 C19.9998,43.5523 20.4478,44.0003 20.9998,44.0003 C21.5528,44.0003 21.9998,43.5523 21.9998,43.0003 L21.9998,23.9203 C22.1578,23.8973 22.3148,23.8753 22.4688,23.8423 L32.1028,43.4413 C32.2758,43.7953 32.6308,44.0003 33.0008,44.0003 C33.1488,44.0003 33.2988,43.9673 33.4408,43.8973 C33.9368,43.6543 34.1408,43.0543 33.8968,42.5593 L24.3528,23.1423 C26.5248,21.9533 28.0008,19.6463 28.0008,17.0003 C28.0008,16.8553 27.9718,16.7133 27.9628,16.5683 L43.4428,8.9233 C43.6828,8.8043 43.8658,8.5943 43.9498,8.3413 C44.0338,8.0873 44.0128,7.8093 43.8908,7.5713" id="Fill-190"></path>
        </g>
    </g>
</svg>