<?xml version="1.0" encoding="UTF-8" standalone="no"?>
<svg width="64px" height="64px" viewBox="0 0 64 64" version="1.1" xmlns="http://www.w3.org/2000/svg" xmlns:xlink="http://www.w3.org/1999/xlink">
    <!-- Generator: Sketch 3.7.2 (28276) - http://www.bohemiancoding.com/sketch -->
    <title>spa-ray-gun</title>
    <desc>Created with Sketch.</desc>
    <defs></defs>
    <g id="64px-Glyph" stroke="none" stroke-width="1" fill="none" fill-rule="evenodd">
        <g id="spa-ray-gun" fill="#000000">
            <path d="M27.0002,44.001 C25.2632,44.001 24.1062,43.062 23.3432,41.969 C18.0592,41.821 13.5262,39.937 9.8672,37.54 C9.8492,37.964 9.8012,38.417 9.6742,38.934 L6.2092,51.714 C6.1472,51.92 5.6332,53.767 6.5572,55.008 C6.8942,55.46 7.5502,56 8.7592,56 L13.9902,56 C14.9612,56 16.9792,56 17.8522,53.149 L21.0832,42.066 C22.1462,44.083 24.0182,46.001 27.0002,46.001 C27.5532,46.001 28.0002,45.554 28.0002,45.001 C28.0002,44.448 27.5532,44.001 27.0002,44.001" id="Fill-236"></path>
            <path d="M33.3165,27.9482 L21.3165,31.9482 C21.2135,31.9832 21.1055,32.0002 21.0005,32.0002 C20.7145,32.0002 20.4375,31.8782 20.2445,31.6552 C19.9795,31.3492 19.9245,30.9142 20.1055,30.5522 L23.0895,24.5862 L11.2745,27.9622 C10.7505,28.1082 10.1905,27.8062 10.0385,27.2742 C9.8865,26.7442 10.1945,26.1902 10.7255,26.0382 L24.7255,22.0382 C25.1055,21.9312 25.5155,22.0552 25.7695,22.3612 C26.0225,22.6672 26.0725,23.0932 25.8945,23.4472 L22.9735,29.2882 L32.6835,26.0522 C33.2125,25.8782 33.7735,26.1602 33.9485,26.6832 C34.1235,27.2082 33.8395,27.7742 33.3165,27.9482 M36.0005,35.0002 L36.0005,19.0002 C36.0005,18.1852 36.1365,17.3852 36.3725,16.6152 C32.1715,14.8952 27.3045,14.0002 24.0005,14.0002 C12.8495,14.0002 5.0435,22.6682 2.2045,26.3942 C1.9325,26.7512 1.9315,27.2462 2.2035,27.6032 C5.0265,31.3312 12.8015,40.0002 24.0005,40.0002 C27.3045,40.0002 32.1715,39.1052 36.3725,37.3842 C36.1365,36.6142 36.0005,35.8142 36.0005,35.0002" id="Fill-237"></path>
            <path d="M14.3799,14.04 C9.5829,11.008 5.4139,10.067 5.2139,10.023 C4.9209,9.958 4.6099,10.03 4.3729,10.221 C4.1379,10.411 3.9999,10.697 3.9999,11 C3.9999,14.961 4.4199,18.326 4.7899,20.526 C7.2399,18.185 10.4729,15.719 14.3799,14.04" id="Fill-238"></path>
            <path d="M59.0002,28 C58.4482,28 58.0002,27.548 58.0002,26.992 C58.0002,26.445 58.4482,26 59.0002,26 C59.5522,26 60.0002,26.445 60.0002,26.992 C60.0002,27.548 59.5522,28 59.0002,28 M59.0002,24 C57.6962,24 56.5952,24.839 56.1832,26 L54.0002,26 L54.0002,19 C54.0002,18.447 53.5532,18 53.0002,18 C52.4472,18 52.0002,18.447 52.0002,19 L52.0002,26 L50.0002,26 L50.0002,21 C50.0002,20.447 49.5532,20 49.0002,20 C48.4472,20 48.0002,20.447 48.0002,21 L48.0002,26 L46.0002,26 L46.0002,13 C46.0002,12.447 45.5532,12 45.0002,12 C41.4022,12 38.0002,15.402 38.0002,19 L38.0002,35 C38.0002,38.598 41.4022,42 45.0002,42 C45.5532,42 46.0002,41.553 46.0002,41 L46.0002,28 L48.0002,28 L48.0002,33 C48.0002,33.553 48.4472,34 49.0002,34 C49.5532,34 50.0002,33.553 50.0002,33 L50.0002,28 L52.0002,28 L52.0002,35 C52.0002,35.553 52.4472,36 53.0002,36 C53.5532,36 54.0002,35.553 54.0002,35 L54.0002,28 L56.1862,28 C56.6022,29.162 57.7002,30 59.0002,30 C60.6542,30 62.0002,28.65 62.0002,26.992 C62.0002,25.343 60.6542,24 59.0002,24" id="Fill-239"></path>
        </g>
    </g>
</svg>