<?xml version="1.0" encoding="UTF-8" standalone="no"?>
<svg width="64px" height="64px" viewBox="0 0 64 64" version="1.1" xmlns="http://www.w3.org/2000/svg" xmlns:xlink="http://www.w3.org/1999/xlink">
    <!-- Generator: Sketch 3.7.2 (28276) - http://www.bohemiancoding.com/sketch -->
    <title>spa-saucer-3</title>
    <desc>Created with Sketch.</desc>
    <defs></defs>
    <g id="64px-Glyph" stroke="none" stroke-width="1" fill="none" fill-rule="evenodd">
        <g id="spa-saucer-3" fill="#000000">
            <path d="M45.1396,17.5784 C46.9436,20.2774 48.0006,23.5164 48.0006,27.0004 C48.0006,31.6454 42.2806,34.0004 31.0006,34.0004 C19.7196,34.0004 14.0006,31.6454 14.0006,27.0004 C14.0006,23.5164 15.0566,20.2774 16.8606,17.5784 C8.8466,19.5264 4.0006,23.0124 4.0006,27.0004 C4.0006,33.1684 15.8596,38.0004 31.0006,38.0004 C46.1406,38.0004 58.0006,33.1684 58.0006,27.0004 C58.0006,23.0124 53.1536,19.5264 45.1396,17.5784" id="Fill-196"></path>
            <path d="M31.0002,18 C26.3532,18 22.5042,21.481 22.0442,26.098 C21.9922,26.614 21.5582,26.999 21.0502,26.999 C21.0172,26.999 20.9832,26.998 20.9502,26.994 C20.4002,26.94 19.9992,26.45 20.0542,25.9 C20.6152,20.256 25.3212,16 31.0002,16 C31.5532,16 32.0002,16.448 32.0002,17 C32.0002,17.552 31.5532,18 31.0002,18 M31.0002,12 C22.7282,12 16.0002,18.729 16.0002,27 C16.0002,31.351 25.3982,32 31.0002,32 C36.6022,32 46.0002,31.351 46.0002,27 C46.0002,18.729 39.2712,12 31.0002,12" id="Fill-197"></path>
            <path d="M38.8469,39.7733 C38.9719,39.6963 39.0899,39.6093 39.2129,39.5293 C36.6359,39.8353 33.8879,40.0003 30.9999,40.0003 C28.1099,40.0003 25.3599,39.8343 22.7799,39.5283 C22.9049,39.6103 23.0229,39.7023 23.1489,39.7803 L16.1629,50.4523 C15.8609,50.9143 15.9899,51.5343 16.4519,51.8373 C16.6209,51.9473 16.8119,52.0003 16.9989,52.0003 C17.3249,52.0003 17.6449,51.8413 17.8369,51.5483 L24.9349,40.7043 C26.5279,41.4103 28.2369,41.8363 29.9999,41.9533 L29.9999,45.0003 C29.9999,45.5523 30.4479,46.0003 30.9999,46.0003 C31.5529,46.0003 31.9999,45.5523 31.9999,45.0003 L31.9999,41.9463 C33.7649,41.8283 35.4779,41.4123 37.0679,40.7083 L44.1629,51.5483 C44.3559,51.8413 44.6749,52.0003 45.0009,52.0003 C45.1889,52.0003 45.3789,51.9473 45.5479,51.8373 C46.0099,51.5343 46.1399,50.9143 45.8369,50.4523 L38.8469,39.7733 Z" id="Fill-198"></path>
        </g>
    </g>
</svg>