<?xml version="1.0" encoding="UTF-8" standalone="no"?>
<svg width="64px" height="64px" viewBox="0 0 64 64" version="1.1" xmlns="http://www.w3.org/2000/svg" xmlns:xlink="http://www.w3.org/1999/xlink">
    <!-- Generator: Sketch 3.7.2 (28276) - http://www.bohemiancoding.com/sketch -->
    <title>spa-moon-flag</title>
    <desc>Created with Sketch.</desc>
    <defs></defs>
    <g id="64px-Glyph" stroke="none" stroke-width="1" fill="none" fill-rule="evenodd">
        <g id="spa-moon-flag" fill="#000000">
            <path d="M48.9523,33.0693 C48.4263,33.2163 47.8693,32.9043 47.7233,32.3713 C47.2843,30.7823 46.5513,30.0403 46.3193,29.9993 C46.1113,30.1683 45.7263,31.6313 46.2773,33.6293 C46.7163,35.2173 47.4493,35.9603 47.6813,36.0013 C48.1673,35.7413 48.7363,35.9353 48.9953,36.4233 C49.2543,36.9113 49.0303,37.5233 48.5423,37.7823 C48.2683,37.9263 47.9733,38.0003 47.6703,38.0003 C47.4003,38.0003 47.1263,37.9423 46.8573,37.8263 C45.7943,37.3683 44.8563,35.9973 44.3493,34.1603 C43.7093,31.8393 43.8843,29.0523 45.4573,28.2173 C45.9753,27.9443 46.5723,27.9273 47.1423,28.1733 C48.2063,28.6323 49.1433,30.0033 49.6503,31.8403 C49.7983,32.3723 49.4843,32.9233 48.9523,33.0693 M41.2433,49.1533 C40.7133,49.3183 40.1543,49.0243 39.9903,48.4983 C39.8893,48.1763 38.9403,47.7943 37.6903,48.1333 C36.7923,48.3783 36.2603,48.8533 36.0783,49.1853 C36.0293,49.2743 35.9783,49.4013 36.0103,49.5023 C36.1103,49.8243 37.0593,50.2073 38.3093,49.8673 C38.8413,49.7203 39.3913,50.0353 39.5373,50.5693 C39.6823,51.1023 39.3683,51.6523 38.8353,51.7973 C38.3313,51.9333 37.8323,51.9993 37.3573,51.9993 C35.7843,51.9993 34.4723,51.2843 34.1013,50.0993 C33.9103,49.4883 33.9873,48.8403 34.3233,48.2253 C34.8263,47.3073 35.8893,46.5513 37.1653,46.2033 C39.3313,45.6133 41.4163,46.3573 41.8983,47.9003 C42.0633,48.4273 41.7693,48.9893 41.2433,49.1533 M33.0983,28.7423 C31.0283,29.5983 29.0123,30.0143 27.2773,30.0143 C24.8523,30.0143 22.9783,29.2013 22.2763,27.6383 C21.8993,26.7993 21.9093,25.8293 22.3063,24.8333 C23.1403,22.7293 25.6683,20.5943 28.9013,19.2583 C33.8653,17.2063 38.5183,17.6803 39.7243,20.3613 C39.9513,20.8653 39.7263,21.4573 39.2233,21.6833 C38.7193,21.9093 38.1273,21.6833 37.9003,21.1813 C37.2773,19.7973 33.6223,19.4713 29.6653,21.1053 C26.9563,22.2253 24.7973,23.9783 24.1643,25.5713 C23.9703,26.0603 23.9483,26.4803 24.1003,26.8183 C24.7233,28.2033 28.3783,28.5283 32.3353,26.8943 C32.8453,26.6833 33.4303,26.9263 33.6403,27.4363 C33.8513,27.9473 33.6093,28.5313 33.0983,28.7423 M22.8433,39.8323 C22.3193,40.0103 21.7533,39.7203 21.5803,39.1963 C21.0113,37.4763 20.0613,36.3983 19.3733,36.0923 C19.0273,35.9373 18.8493,36.0153 18.7923,36.0423 C18.0993,36.3483 17.6093,38.3553 18.4203,40.8023 C18.9893,42.5233 19.9383,43.6013 20.6273,43.9073 C20.9723,44.0603 21.1493,43.9823 21.2083,43.9583 C21.7103,43.7303 22.3043,43.9623 22.5263,44.4673 C22.7503,44.9723 22.5213,45.5633 22.0163,45.7863 C21.6933,45.9293 21.3523,46.0013 21.0033,46.0013 C20.6143,46.0013 20.2153,45.9123 19.8163,45.7353 C18.4423,45.1263 17.2113,43.5173 16.5213,41.4303 C15.4393,38.1633 16.0683,35.0593 17.9833,34.2133 C18.6683,33.9113 19.4293,33.9293 20.1833,34.2643 C21.5573,34.8743 22.7893,36.4823 23.4783,38.5693 C23.6523,39.0943 23.3673,39.6593 22.8433,39.8323 M33.0003,10.0003 C25.7043,10.0003 19.1403,13.1513 14.5673,18.1523 L13.4143,17.0003 L19.7073,10.7073 C20.0983,10.3163 20.0983,9.6833 19.7073,9.2933 L14.7073,4.2933 C14.3163,3.9023 13.6833,3.9023 13.2933,4.2933 L6.2933,11.2933 C5.9023,11.6833 5.9023,12.3163 6.2933,12.7073 L13.2653,19.6793 L13.2653,19.6793 L16.2933,22.7073 C16.6833,23.0973 16.6833,23.7303 16.2933,24.1213 C16.0983,24.3163 15.8423,24.4143 15.5863,24.4143 C15.3303,24.4143 15.0743,24.3163 14.8793,24.1213 L12.0853,21.3273 C9.5063,25.2593 8.0003,29.9563 8.0003,35.0003 C8.0003,48.7853 19.2153,60.0003 33.0003,60.0003 C46.7853,60.0003 58.0003,48.7853 58.0003,35.0003 C58.0003,21.2153 46.7853,10.0003 33.0003,10.0003" id="Fill-287"></path>
        </g>
    </g>
</svg>