<?xml version="1.0" encoding="UTF-8" standalone="no"?>
<svg width="64px" height="64px" viewBox="0 0 64 64" version="1.1" xmlns="http://www.w3.org/2000/svg" xmlns:xlink="http://www.w3.org/1999/xlink">
    <!-- Generator: Sketch 3.7.2 (28276) - http://www.bohemiancoding.com/sketch -->
    <title>spa-rocket</title>
    <desc>Created with Sketch.</desc>
    <defs></defs>
    <g id="64px-Glyph" stroke="none" stroke-width="1" fill="none" fill-rule="evenodd">
        <g id="spa-rocket" fill="#000000">
            <path d="M45.0002,16 C43.3462,16 42.0002,17.346 42.0002,19 C42.0002,20.654 43.3462,22 45.0002,22 C46.6542,22 48.0002,20.654 48.0002,19 C48.0002,17.346 46.6542,16 45.0002,16" id="Fill-59"></path>
            <path d="M28.0002,46.2556 L28.0002,58.9996 C28.0002,59.4206 28.2642,59.7966 28.6602,59.9406 C28.7712,59.9806 28.8862,59.9996 29.0002,59.9996 C29.2912,59.9996 29.5752,59.8726 29.7682,59.6406 L39.7682,47.6406 C39.9182,47.4606 40.0002,47.2336 40.0002,46.9996 L40.0002,39.5046 C34.9192,42.7886 30.0332,45.2656 28.0002,46.2556" id="Fill-60"></path>
            <path d="M24.4954,24 L17.0004,24 C16.7664,24 16.5394,24.082 16.3604,24.232 L4.3604,34.232 C4.0364,34.501 3.9164,34.944 4.0594,35.34 C4.2034,35.736 4.5794,36 5.0004,36 L17.7444,36 C18.7354,33.966 21.2124,29.08 24.4954,24" id="Fill-61"></path>
            <path d="M21.468,43.9463 L17.707,47.7073 C17.512,47.9023 17.256,48.0003 17,48.0003 C16.744,48.0003 16.489,47.9023 16.293,47.7073 C15.902,47.3163 15.902,46.6833 16.293,46.2933 L20.054,42.5323 L17.879,40.3573 C17.767,40.2453 17.666,40.1253 17.575,40.0003 L17,40.0003 C5.19,40.0003 4.045,58.1713 4.002,58.9443 C3.986,59.2283 4.092,59.5063 4.293,59.7073 C4.481,59.8953 4.736,60.0003 5,60.0003 C5.019,60.0003 5.037,59.9993 5.056,59.9983 C5.829,59.9553 24,58.8103 24,47.0003 L24,46.4153 C23.876,46.3243 23.753,46.2313 23.643,46.1213 L21.468,43.9463 Z" id="Fill-62"></path>
            <path d="M45.0002,24 C42.2432,24 40.0002,21.757 40.0002,19 C40.0002,16.243 42.2432,14 45.0002,14 C47.7572,14 50.0002,16.243 50.0002,19 C50.0002,21.757 47.7572,24 45.0002,24 M57.1312,6.869 C54.5312,4.27 41.4362,7.702 33.6232,15.515 C25.9022,23.236 19.3672,37.224 19.0932,37.815 C18.9172,38.196 18.9962,38.646 19.2932,38.943 L21.4682,41.118 L32.2932,30.293 C32.6842,29.902 33.3162,29.902 33.7072,30.293 C34.0982,30.684 34.0982,31.316 33.7072,31.707 L22.8822,42.532 L25.0572,44.707 C25.2492,44.899 25.5042,45 25.7642,45 C25.9062,45 26.0502,44.97 26.1852,44.907 C26.7762,44.633 40.7642,38.098 48.4852,30.377 C56.2982,22.564 59.7302,9.468 57.1312,6.869" id="Fill-63"></path>
        </g>
    </g>
</svg>