<?xml version="1.0" encoding="UTF-8" standalone="no"?>
<svg width="64px" height="64px" viewBox="0 0 64 64" version="1.1" xmlns="http://www.w3.org/2000/svg" xmlns:xlink="http://www.w3.org/1999/xlink">
    <!-- Generator: Sketch 3.7.2 (28276) - http://www.bohemiancoding.com/sketch -->
    <title>spa-rover</title>
    <desc>Created with Sketch.</desc>
    <defs></defs>
    <g id="64px-Glyph" stroke="none" stroke-width="1" fill="none" fill-rule="evenodd">
        <g id="spa-rover" fill="#000000">
            <path d="M15.0002,52 C13.3462,52 12.0002,50.654 12.0002,49 C12.0002,47.346 13.3462,46 15.0002,46 C16.6542,46 18.0002,47.346 18.0002,49 C18.0002,50.654 16.6542,52 15.0002,52" id="Fill-300"></path>
            <path d="M31.0002,52 C29.3462,52 28.0002,50.654 28.0002,49 C28.0002,47.346 29.3462,46 31.0002,46 C32.6542,46 34.0002,47.346 34.0002,49 C34.0002,50.654 32.6542,52 31.0002,52" id="Fill-301"></path>
            <path d="M47.0002,52 C45.3462,52 44.0002,50.654 44.0002,49 C44.0002,47.346 45.3462,46 47.0002,46 C48.6542,46 50.0002,47.346 50.0002,49 C50.0002,50.654 48.6542,52 47.0002,52" id="Fill-302"></path>
            <path d="M47.0002,54 C44.2432,54 42.0002,51.757 42.0002,49 C42.0002,46.243 44.2432,44 47.0002,44 C49.7572,44 52.0002,46.243 52.0002,49 C52.0002,51.757 49.7572,54 47.0002,54 M31.0002,54 C28.2432,54 26.0002,51.757 26.0002,49 C26.0002,46.243 28.2432,44 31.0002,44 C33.7572,44 36.0002,46.243 36.0002,49 C36.0002,51.757 33.7572,54 31.0002,54 M15.0002,54 C12.2432,54 10.0002,51.757 10.0002,49 C10.0002,46.243 12.2432,44 15.0002,44 C17.7572,44 20.0002,46.243 20.0002,49 C20.0002,51.757 17.7572,54 15.0002,54 M24.2852,28.305 C24.2892,28.301 24.2932,28.3 24.2972,28.297 C24.3002,28.293 24.3012,28.289 24.3042,28.285 C24.4852,28.11 24.7292,28 25.0002,28 C25.5522,28 26.0002,28.448 26.0002,29 C26.0002,29.552 25.5522,30 25.0002,30 C24.4482,30 24.0002,29.552 24.0002,29 C24.0002,28.729 24.1102,28.485 24.2852,28.305 M37.0002,28 C37.2682,28 37.5102,28.109 37.6902,28.281 C37.6952,28.287 37.6962,28.294 37.7012,28.299 C37.7062,28.304 37.7132,28.305 37.7192,28.31 C37.8912,28.49 38.0002,28.731 38.0002,29 C38.0002,29.552 37.5522,30 37.0002,30 C36.4482,30 36.0002,29.552 36.0002,29 C36.0002,28.448 36.4482,28 37.0002,28 M51.0002,36 L38.0002,36 L38.0002,31.816 C39.1612,31.401 40.0002,30.302 40.0002,29 C40.0002,28.538 39.8862,28.106 39.6992,27.715 L43.4142,24 L55.0002,24 C55.5532,24 56.0002,23.553 56.0002,23 L56.0002,17 C56.0002,16.447 55.5532,16 55.0002,16 C54.4472,16 54.0002,16.447 54.0002,17 L54.0002,22 L44.0002,22 L44.0002,12 L49.0002,12 C49.5532,12 50.0002,11.553 50.0002,11 C50.0002,10.447 49.5532,10 49.0002,10 L43.0002,10 C42.4472,10 42.0002,10.447 42.0002,11 L42.0002,22.586 L38.2852,26.301 C37.8942,26.113 37.4622,26 37.0002,26 C35.3462,26 34.0002,27.346 34.0002,29 C34.0002,30.302 34.8382,31.401 36.0002,31.815 L36.0002,36 L26.0002,36 L26.0002,31.816 C27.1612,31.401 28.0002,30.302 28.0002,29 C28.0002,27.346 26.6542,26 25.0002,26 C24.5382,26 24.1062,26.113 23.7152,26.301 L20.4492,23.035 C24.0072,18.754 23.7552,12.341 19.7072,8.293 C19.3162,7.902 18.6842,7.902 18.2932,8.293 L12.0002,14.586 L7.7072,10.293 C7.3162,9.902 6.6842,9.902 6.2932,10.293 C5.9022,10.684 5.9022,11.316 6.2932,11.707 L10.5862,16 L4.2932,22.293 C3.9022,22.684 3.9022,23.316 4.2932,23.707 C6.4502,25.864 9.2802,26.945 12.1022,26.945 C14.5732,26.945 17.0362,26.111 19.0352,24.45 L22.3012,27.715 C22.1132,28.106 22.0002,28.538 22.0002,29 C22.0002,30.302 22.8382,31.401 24.0002,31.815 L24.0002,36 L11.0002,36 C7.1412,36 4.0002,39.141 4.0002,43 L4.0002,47 C4.0002,48.654 5.3462,50 7.0002,50 L8.0802,50 C8.5682,53.386 11.4812,56 15.0002,56 C18.5192,56 21.4322,53.386 21.9202,50 L24.0802,50 C24.5682,53.386 27.4812,56 31.0002,56 C34.5192,56 37.4322,53.386 37.9202,50 L40.0802,50 C40.5682,53.386 43.4812,56 47.0002,56 C50.5192,56 53.4322,53.386 53.9202,50 L55.0002,50 C56.6542,50 58.0002,48.654 58.0002,47 L58.0002,43 C58.0002,39.141 54.8592,36 51.0002,36" id="Fill-303"></path>
        </g>
    </g>
</svg>