<?xml version="1.0" encoding="UTF-8" standalone="no"?>
<svg width="44px" height="44px" viewBox="0 0 44 44" version="1.1" xmlns="http://www.w3.org/2000/svg" xmlns:xlink="http://www.w3.org/1999/xlink">
    <!-- Generator: Sketch 3.7.2 (28276) - http://www.bohemiancoding.com/sketch -->
    <title>spa-launch</title>
    <desc>Created with Sketch.</desc>
    <defs></defs>
    <g id="44px-Line" stroke="none" stroke-width="1" fill="none" fill-rule="evenodd">
        <g id="spa-launch"></g>
        <path d="M13,21.998 L18.988,21.998 C18.992,21.998 18.996,22 19,22 L25,22 C25.004,22 25.008,21.998 25.012,21.998 L31,21.998 C31.552,21.998 32,21.551 32,20.998 L32,17.922 C32,17.659 31.896,17.407 31.712,17.22 L27.469,12.918 C27.487,12.537 27.5,12.154 27.5,11.769 C27.5,5.284 22.911,0.502 22.716,0.302 C22.34,-0.085 21.66,-0.085 21.284,0.302 C21.089,0.502 16.5,5.283 16.5,11.77 C16.5,12.154 16.513,12.537 16.531,12.918 L12.288,17.22 C12.103,17.408 12,17.659 12,17.922 L12,20.998 C12,21.551 12.448,21.998 13,21.998 L13,21.998 Z M30,18.332 L30,19.998 L26.328,19.998 C26.606,18.945 26.976,17.344 27.225,15.519 L30,18.332 L30,18.332 Z M22.001,2.543 C23.205,4.078 25.5,7.557 25.5,11.769 C25.5,15.144 24.653,18.572 24.253,20 L19.747,20 C19.347,18.571 18.5,15.144 18.5,11.77 C18.5,7.572 20.798,4.083 22.001,2.543 L22.001,2.543 Z M14,18.332 L16.774,15.519 C17.024,17.344 17.393,18.945 17.671,19.998 L14,19.998 L14,18.332 L14,18.332 Z" id="Shape" fill="#000000"></path>
        <path d="M27.438,33.002 C26.886,33.002 26.438,33.449 26.438,34.002 C26.438,34.555 26.886,35.002 27.438,35.002 C30.27,35.002 30.905,37.016 30.97,37.253 C31.086,37.702 31.491,38.002 31.937,38.002 C32.018,38.002 32.099,37.992 32.181,37.972 C32.717,37.838 33.042,37.295 32.909,36.76 C32.583,35.46 31.021,33.002 27.438,33.002 L27.438,33.002 Z" id="Shape" fill="#000000"></path>
        <path d="M20.254,33.054 C18.968,32.624 17.774,32.878 16.887,33.764 C16.751,33.9 16.632,34.041 16.53,34.18 C15.363,33.731 13.721,33.555 12.481,34.795 C10.895,36.381 11.146,38.152 11.543,38.949 C11.717,39.296 12.063,39.493 12.425,39.493 C12.571,39.493 12.718,39.462 12.859,39.395 C13.351,39.163 13.562,38.57 13.34,38.073 C13.299,37.98 12.964,37.139 13.894,36.209 C14.791,35.313 16.371,36.327 16.382,36.334 C16.642,36.508 16.966,36.548 17.261,36.448 C17.555,36.346 17.786,36.114 17.885,35.818 C17.987,35.513 18.414,34.549 19.62,34.95 C20.145,35.127 20.711,34.842 20.885,34.318 C21.061,33.794 20.778,33.228 20.254,33.054 L20.254,33.054 Z" id="Shape" fill="#000000"></path>
        <path d="M37.102,31.549 C36.512,28.94 34.161,27 31.375,27 C30.621,27 29.88,27.151 29.187,27.429 C27.466,25.314 24.847,24 22,24 C18.528,24 15.448,25.973 13.869,28.875 C13.107,28.63 12.315,28.5 11.5,28.5 C7.819,28.5 4.701,31.064 3.933,34.583 C1.704,34.973 0,36.911 0,39.25 C0,41.869 2.131,44 4.75,44 L39.25,44 C41.869,44 44,41.869 44,39.25 C44,35.265 40.976,31.976 37.102,31.549 L37.102,31.549 Z M39.25,42 L4.75,42 C3.233,42 2,40.767 2,39.25 C2,37.739 3.224,36.511 4.733,36.502 C4.753,36.503 4.773,36.505 4.792,36.505 C4.794,36.505 4.796,36.504 4.798,36.504 C5.38,36.514 5.933,36.699 6.398,37.048 C6.841,37.38 7.466,37.29 7.798,36.848 C8.129,36.407 8.04,35.78 7.598,35.449 C7.107,35.081 6.557,34.83 5.978,34.675 C6.667,32.241 8.889,30.501 11.5,30.501 C12.049,30.501 12.583,30.585 13.1,30.734 C12.94,31.294 12.832,31.876 12.782,32.474 C12.736,33.025 13.145,33.508 13.696,33.553 C13.724,33.556 13.752,33.557 13.78,33.557 C14.295,33.557 14.732,33.162 14.776,32.64 C15.086,28.916 18.259,26 22.001,26 C25.251,26 28.125,28.185 28.99,31.312 C29.137,31.844 29.683,32.155 30.22,32.009 C30.752,31.862 31.064,31.311 30.917,30.779 C30.76,30.211 30.546,29.672 30.291,29.157 C30.642,29.055 31.006,28.999 31.375,28.999 C33.073,28.999 34.522,30.086 35.042,31.598 C34.691,31.653 34.343,31.727 34.003,31.83 C33.474,31.99 33.175,32.548 33.336,33.077 C33.496,33.605 34.053,33.904 34.583,33.744 C35.121,33.581 35.682,33.499 36.251,33.499 C39.421,33.499 42.001,36.078 42.001,39.249 C42,40.767 40.767,42 39.25,42 L39.25,42 Z" id="Shape" fill="#000000"></path>
    </g>
</svg>