<?xml version="1.0" encoding="UTF-8" standalone="no"?>
<svg width="64px" height="64px" viewBox="0 0 64 64" version="1.1" xmlns="http://www.w3.org/2000/svg" xmlns:xlink="http://www.w3.org/1999/xlink">
    <!-- Generator: Sketch 3.7.2 (28276) - http://www.bohemiancoding.com/sketch -->
    <title>spa-capsule-entry-2</title>
    <desc>Created with Sketch.</desc>
    <defs></defs>
    <g id="64px-Line" stroke="none" stroke-width="1" fill="none" fill-rule="evenodd">
        <g id="spa-capsule-entry-2"></g>
        <path d="M26.543,33.01 C26.504,33.005 26.466,33.003 26.428,33.002 C26.058,33.001 25.684,33.038 25.331,33.123 L7.46,37.04 C6.576,37.16 5.859,37.491 5.33,38.024 C2.354,41 4.481,46.977 10.749,53.252 C15.139,57.638 19.384,59.995 22.557,59.995 C23.916,59.995 25.079,59.561 25.973,58.67 C26.507,58.134 26.838,57.416 26.958,56.536 L30.874,38.667 C30.961,38.289 31.001,37.932 30.997,37.622 C31.004,37.527 30.998,37.434 30.978,37.346 C30.915,36.215 30.446,35.158 29.646,34.348 C28.825,33.526 27.726,33.052 26.543,33.01 L26.543,33.01 Z M6.025,41.524 L22.474,57.975 C20.167,57.965 16.563,56.233 12.164,51.838 C7.767,47.437 6.034,43.832 6.025,41.524 L6.025,41.524 Z M28.923,38.231 L24.995,56.149 C24.988,56.179 24.981,56.21 24.977,56.24 C24.922,56.683 24.782,57.018 24.567,57.241 L6.757,39.428 C6.976,39.212 7.313,39.073 7.761,39.017 C7.805,39.012 7.847,39.003 7.889,38.993 L25.775,35.072 C25.969,35.026 26.157,35.003 26.346,35.002 C26.375,35.005 26.405,35.007 26.434,35.008 C27.122,35.024 27.76,35.291 28.227,35.758 C28.703,36.239 28.972,36.879 28.985,37.56 C28.986,37.602 28.99,37.644 28.996,37.685 C28.991,37.856 28.968,38.034 28.923,38.231 L28.923,38.231 Z" id="Shape" fill="#000000"></path>
        <path d="M17.704,40.452 C16.1,42.06 16.1,44.679 17.706,46.291 C18.511,47.092 19.567,47.492 20.624,47.492 C21.681,47.492 22.737,47.092 23.542,46.291 L23.545,46.287 C25.146,44.679 25.146,42.061 23.542,40.449 C21.936,38.851 19.318,38.852 17.704,40.452 L17.704,40.452 Z M22.129,44.875 C21.297,45.701 19.947,45.7 19.121,44.876 C18.293,44.046 18.293,42.694 19.116,41.868 C19.533,41.455 20.081,41.248 20.627,41.248 C21.172,41.248 21.715,41.453 22.127,41.863 C22.953,42.693 22.954,44.044 22.129,44.875 L22.129,44.875 Z" id="Shape" fill="#000000"></path>
        <path d="M58.293,4.293 L32.293,30.295 C31.902,30.686 31.902,31.318 32.293,31.709 C32.488,31.904 32.744,32.002 33,32.002 C33.256,32.002 33.512,31.904 33.707,31.709 L59.707,5.707 C60.098,5.316 60.098,4.684 59.707,4.293 C59.316,3.902 58.684,3.902 58.293,4.293 L58.293,4.293 Z" id="Shape" fill="#000000"></path>
        <path d="M41.707,10.293 C41.316,9.902 40.684,9.902 40.293,10.293 L22.293,28.293 C21.902,28.684 21.902,29.316 22.293,29.707 C22.488,29.902 22.744,30 23,30 C23.256,30 23.512,29.902 23.707,29.707 L41.707,11.707 C42.098,11.316 42.098,10.684 41.707,10.293 L41.707,10.293 Z" id="Shape" fill="#000000"></path>
        <path d="M35.707,41.707 L47.707,29.707 C48.098,29.316 48.098,28.684 47.707,28.293 C47.316,27.902 46.684,27.902 46.293,28.293 L34.293,40.293 C33.902,40.684 33.902,41.316 34.293,41.707 C34.488,41.902 34.744,42 35,42 C35.256,42 35.512,41.902 35.707,41.707 L35.707,41.707 Z" id="Shape" fill="#000000"></path>
    </g>
</svg>