<?xml version="1.0" encoding="UTF-8" standalone="no"?>
<svg width="64px" height="64px" viewBox="0 0 64 64" version="1.1" xmlns="http://www.w3.org/2000/svg" xmlns:xlink="http://www.w3.org/1999/xlink">
    <!-- Generator: Sketch 3.7.2 (28276) - http://www.bohemiancoding.com/sketch -->
    <title>spa-observatory</title>
    <desc>Created with Sketch.</desc>
    <defs></defs>
    <g id="64px-Glyph" stroke="none" stroke-width="1" fill="none" fill-rule="evenodd">
        <g id="spa-observatory" fill="#000000">
            <path d="M56.0002,45 L56.0002,41 C56.0002,40.449 55.5522,40 55.0002,40 L7.0002,40 C6.4482,40 6.0002,40.449 6.0002,41 L6.0002,45 C6.0002,45.551 6.4482,46 7.0002,46 L55.0002,46 C55.5522,46 56.0002,45.551 56.0002,45" id="Fill-40"></path>
            <path d="M8.0002,48 L8.0002,59 C8.0002,59.552 8.4472,60 9.0002,60 L53.0002,60 C53.5532,60 54.0002,59.552 54.0002,59 L54.0002,48 L8.0002,48 Z" id="Fill-41"></path>
            <path d="M31.0002,28 C28.2432,28 26.0002,25.757 26.0002,23 C26.0002,20.243 28.2432,18 31.0002,18 C33.7572,18 36.0002,20.243 36.0002,23 C36.0002,25.757 33.7572,28 31.0002,28" id="Fill-42"></path>
            <path d="M26.0002,38 L26.0002,7 C26.0002,6.448 25.5532,6 25.0002,6 L21.0002,6 C19.3462,6 18.0002,7.346 18.0002,9 L18.0002,38 L26.0002,38 Z" id="Fill-43"></path>
            <path d="M16.0002,38 L16.0002,12.068 C10.9462,16.41 8.0002,22.729 8.0002,29.5 L8.0002,38 L16.0002,38 Z" id="Fill-44"></path>
            <path d="M44.0002,38 L44.0002,9 C44.0002,7.346 42.6542,6 41.0002,6 L37.0002,6 C36.4472,6 36.0002,6.448 36.0002,7 L36.0002,38 L44.0002,38 Z" id="Fill-45"></path>
            <path d="M54.0002,38 L54.0002,29.5 C54.0002,22.729 51.0542,16.41 46.0002,12.068 L46.0002,38 L54.0002,38 Z" id="Fill-46"></path>
        </g>
    </g>
</svg>