<?xml version="1.0" encoding="UTF-8" standalone="no"?>
<svg width="44px" height="44px" viewBox="0 0 44 44" version="1.1" xmlns="http://www.w3.org/2000/svg" xmlns:xlink="http://www.w3.org/1999/xlink">
    <!-- Generator: Sketch 3.7.2 (28276) - http://www.bohemiancoding.com/sketch -->
    <title>spa-earth-moon</title>
    <desc>Created with Sketch.</desc>
    <defs></defs>
    <g id="44px-Line" stroke="none" stroke-width="1" fill="none" fill-rule="evenodd">
        <g id="spa-earth-moon"></g>
        <path d="M29.999,6.001 L29.999,6.001 C30.391,5.609 30.391,4.977 30,4.586 C29.609,4.195 28.977,4.195 28.586,4.586 C27.806,5.366 27.806,6.634 28.586,7.414 C28.976,7.804 29.488,7.999 30,7.999 C30.512,7.999 31.024,7.804 31.414,7.414 C31.805,7.023 31.804,6.391 31.414,6 C31.023,5.609 30.389,5.61 29.999,6.001 L29.999,6.001 Z" id="Shape" fill="#000000"></path>
        <path d="M37.707,9.707 C37.33,10.085 36.671,10.085 36.293,9.707 C36.104,9.518 36,9.267 36,9 C36,8.733 36.104,8.482 36.293,8.293 C36.684,7.902 36.684,7.269 36.293,6.878 C35.902,6.487 35.269,6.488 34.878,6.878 C34.311,7.445 33.999,8.198 33.999,9 C33.999,9.802 34.311,10.555 34.877,11.121 C35.444,11.688 36.197,12 36.999,12 C37.801,12 38.554,11.688 39.121,11.121 C39.511,10.73 39.511,10.097 39.121,9.706 C38.73,9.317 38.097,9.316 37.707,9.707 L37.707,9.707 Z" id="Shape" fill="#000000"></path>
        <path d="M32,0 C27.647,0 23.606,2.406 21.506,6.185 C20.684,6.076 19.851,6 19,6 C8.523,6 0,14.523 0,25 C0,35.477 8.523,44 19,44 C29.477,44 38,35.477 38,25 C38,24.149 37.924,23.316 37.815,22.494 C41.594,20.394 44,16.353 44,12 C44,5.383 38.617,0 32,0 L32,0 Z M19,42 C9.626,42 2,34.374 2,25 C2,15.626 9.626,8 19,8 C28.374,8 36,15.626 36,25 C36,34.374 28.374,42 19,42 L19,42 Z M37.413,20.397 C35.717,13.618 30.382,8.283 23.603,6.587 C25.429,3.769 28.597,2 32,2 C37.514,2 42,6.486 42,12 C42,15.403 40.231,18.572 37.413,20.397 L37.413,20.397 Z" id="Shape" fill="#000000"></path>
    </g>
</svg>