<?xml version="1.0" encoding="UTF-8" standalone="no"?>
<svg width="44px" height="44px" viewBox="0 0 44 44" version="1.1" xmlns="http://www.w3.org/2000/svg" xmlns:xlink="http://www.w3.org/1999/xlink">
    <!-- Generator: Sketch 3.7.2 (28276) - http://www.bohemiancoding.com/sketch -->
    <title>spa-capsule-rocket</title>
    <desc>Created with Sketch.</desc>
    <defs></defs>
    <g id="44px-Line" stroke="none" stroke-width="1" fill="none" fill-rule="evenodd">
        <g id="spa-capsule-rocket"></g>
        <path d="M9.723,43.707 C9.918,43.902 10.174,44 10.43,44 C10.686,44 10.942,43.902 11.137,43.707 L13.908,40.936 C13.909,40.935 13.909,40.934 13.91,40.933 C16.466,38.377 17.744,35.776 17.707,33.205 C17.707,33.173 17.7,33.145 17.699,33.113 L22.293,37.707 C22.488,37.902 22.744,38 23,38 C23.256,38 23.512,37.902 23.707,37.707 L39.707,21.707 C39.71,21.704 39.71,21.701 39.713,21.698 C39.794,21.615 39.857,21.516 39.905,21.409 C39.918,21.381 39.927,21.353 39.937,21.324 C39.949,21.29 39.967,21.259 39.975,21.224 L43.913,4.044 C43.969,3.803 43.997,3.561 43.998,3.324 C44.003,3.254 44.001,3.184 43.991,3.115 C43.947,2.298 43.612,1.538 43.036,0.958 C42.448,0.376 41.673,0.04 40.845,0.007 C40.806,0.003 40.768,0.001 40.73,0.001 L40.704,0.001 C40.454,0.001 40.202,0.03 39.956,0.088 L22.778,4.025 C22.743,4.033 22.712,4.051 22.678,4.063 C22.649,4.073 22.621,4.082 22.593,4.095 C22.486,4.144 22.387,4.206 22.304,4.287 C22.301,4.29 22.298,4.29 22.295,4.293 L6.295,20.293 C5.904,20.684 5.904,21.316 6.295,21.707 L10.889,26.301 C10.857,26.3 10.829,26.293 10.796,26.293 C8.223,26.281 5.624,27.534 3.067,30.092 L0.296,32.863 C-0.095,33.254 -0.095,33.886 0.296,34.277 L9.723,43.707 L9.723,43.707 Z M40.405,2.037 C40.495,2.016 40.584,2.004 40.67,2.002 C40.692,2.003 40.714,2.005 40.736,2.005 C40.975,2.009 41.324,2.078 41.622,2.374 C41.921,2.674 41.989,3.024 41.994,3.266 C41.995,3.285 41.996,3.304 41.997,3.323 C41.996,3.41 41.984,3.503 41.963,3.597 L38.429,19.014 L24.986,5.57 L40.405,2.037 L40.405,2.037 Z M8.414,21 L23,6.414 L37.586,21 L23,35.586 L15.718,28.304 C15.716,28.302 15.709,28.295 15.707,28.293 C15.705,28.291 15.698,28.285 15.696,28.282 L8.414,21 L8.414,21 Z M14.276,29.69 L14.322,29.736 C14.383,29.797 15.677,31.112 15.706,33.234 C15.732,35.019 14.883,36.886 13.181,38.795 L7.711,33.325 L5.205,30.818 C7.099,29.127 8.984,28.263 10.729,28.292 C12.903,28.31 14.212,29.624 14.276,29.69 L14.276,29.69 Z M3.771,32.213 L4.294,32.736 L11.787,40.23 L10.43,41.586 L2.414,33.57 L3.771,32.213 L3.771,32.213 Z" id="Shape" fill="#000000"></path>
        <path d="M40,8 C40,5.794 38.206,4 36,4 C33.794,4 32,5.794 32,8 C32,10.206 33.794,12 36,12 C38.206,12 40,10.206 40,8 L40,8 Z M36,10 C34.897,10 34,9.103 34,8 C34,6.897 34.897,6 36,6 C37.103,6 38,6.897 38,8 C38,9.103 37.103,10 36,10 L36,10 Z" id="Shape" fill="#000000"></path>
    </g>
</svg>