<?xml version="1.0" encoding="UTF-8" standalone="no"?>
<svg width="44px" height="44px" viewBox="0 0 44 44" version="1.1" xmlns="http://www.w3.org/2000/svg" xmlns:xlink="http://www.w3.org/1999/xlink">
    <!-- Generator: Sketch 3.7.2 (28276) - http://www.bohemiancoding.com/sketch -->
    <title>spa-jupiter</title>
    <desc>Created with Sketch.</desc>
    <defs></defs>
    <g id="44px-Line" stroke="none" stroke-width="1" fill="none" fill-rule="evenodd">
        <g id="spa-jupiter"></g>
        <path d="M22,0 C9.869,0 0,9.869 0,22 C0,34.131 9.869,44 22,44 C34.131,44 44,34.131 44,22 C44,9.869 34.131,0 22,0 L22,0 Z M22,42 C10.972,42 2,33.028 2,22 C2,10.972 10.972,2 22,2 C33.028,2 42,10.972 42,22 C42,33.028 33.028,42 22,42 L22,42 Z" id="Shape" fill="#000000"></path>
        <path d="M32,11 C32,10.448 31.552,10 31,10 L11,10 C10.448,10 10,10.448 10,11 C10,11.552 10.448,12 11,12 L31,12 C31.552,12 32,11.552 32,11 L32,11 Z" id="Shape" fill="#000000"></path>
        <path d="M22,17 C22,17.552 22.448,18 23,18 L37,18 C37.552,18 38,17.552 38,17 C38,16.448 37.552,16 37,16 L23,16 C22.448,16 22,16.448 22,17 L22,17 Z" id="Shape" fill="#000000"></path>
        <path d="M26.999,22 C23.074,22 20,24.196 20,27 C20,29.804 23.074,32 26.999,32 C30.925,32 34,29.804 34,27 C34,24.196 30.925,22 26.999,22 L26.999,22 Z M26.999,30 C24.289,30 22,28.626 22,27 C22,25.374 24.289,24 26.999,24 C29.71,24 32,25.374 32,27 C32,28.626 29.71,30 26.999,30 L26.999,30 Z" id="Shape" fill="#000000"></path>
        <path d="M27,34 L13,34 C12.448,34 12,34.448 12,35 C12,35.552 12.448,36 13,36 L27,36 C27.552,36 28,35.552 28,35 C28,34.448 27.552,34 27,34 L27,34 Z" id="Shape" fill="#000000"></path>
    </g>
</svg>