<?xml version="1.0" encoding="UTF-8" standalone="no"?>
<svg width="44px" height="44px" viewBox="0 0 44 44" version="1.1" xmlns="http://www.w3.org/2000/svg" xmlns:xlink="http://www.w3.org/1999/xlink">
    <!-- Generator: Sketch 3.7.2 (28276) - http://www.bohemiancoding.com/sketch -->
    <title>spa-helmet</title>
    <desc>Created with Sketch.</desc>
    <defs></defs>
    <g id="44px-Line" stroke="none" stroke-width="1" fill="none" fill-rule="evenodd">
        <g id="spa-helmet"></g>
        <path d="M41.666,14 L38.95,14 C36.471,7.021 29.819,2 22,2 C14.181,2 7.529,7.021 5.05,14 L4,14 L4,3 C4,2.447 3.552,2 3,2 C2.448,2 2,2.447 2,3 L2,14.033 C0.549,14.199 0,15.391 0,16.221 L0,23.78 C0,24.673 0.622,26.001 2.334,26.001 L5.05,26.001 C5.633,27.643 6.445,29.174 7.453,30.558 C7.38,30.618 7.303,30.673 7.235,30.742 C6.006,31.986 5.998,34.435 6.001,34.711 C6.004,34.969 6.106,35.215 6.287,35.399 C10.46,39.655 16.041,42 22,42 C27.96,42 33.542,39.655 37.715,35.398 C37.896,35.213 37.998,34.967 38.001,34.71 C38.004,34.435 37.997,31.985 36.767,30.741 C36.698,30.672 36.622,30.616 36.548,30.556 C37.555,29.172 38.367,27.642 38.95,26 L41.666,26 C43.378,26 44,24.672 44,23.779 L44,16.22 C44,15.328 43.378,14 41.666,14 L41.666,14 Z M22,4 C30.822,4 38,11.178 38,20 C38,22.802 37.271,25.436 36,27.729 L36,16 C36,15.636 35.801,15.3 35.482,15.124 C30.487,12.378 25.378,11.917 22.027,12 C18.617,11.923 13.512,12.378 8.518,15.124 C8.199,15.3 8,15.636 8,16 L8,27.729 C6.729,25.436 6,22.803 6,20 C6,11.178 13.178,4 22,4 L22,4 Z M22,36 C17.22,36 12.934,33.882 10,30.547 L10,16.6 C14.435,14.313 18.934,13.909 22.027,13.999 C25.068,13.914 29.564,14.313 34,16.6 L34,30.547 C31.066,33.882 26.78,36 22,36 L22,36 Z M2.334,24 C2.099,24 2.013,23.963 2,23.779 L2,16.247 C2.013,16.037 2.099,16 2.334,16 L4.464,16 C4.17,17.289 4,18.624 4,20 C4,21.376 4.17,22.711 4.464,24 L2.334,24 L2.334,24 Z M35.344,32.146 C35.736,32.541 35.939,33.53 35.989,34.293 C32.229,37.978 27.279,40 22,40 C16.723,40 11.773,37.978 8.013,34.296 C8.063,33.531 8.266,32.541 8.658,32.147 C8.677,32.127 8.697,32.12 8.717,32.105 C12.011,35.716 16.738,38 22,38 C27.265,38 31.994,35.714 35.288,32.099 C35.307,32.116 35.325,32.127 35.344,32.146 L35.344,32.146 Z M41.666,24 L39.536,24 C39.83,22.711 40,21.376 40,20 C40,18.624 39.83,17.289 39.536,16 L41.666,16 C41.901,16 41.987,16.037 42,16.221 L42,23.753 C41.987,23.963 41.901,24 41.666,24 L41.666,24 Z" id="Shape" fill="#000000"></path>
        <path d="M22.027,16.007 C19.629,15.953 16.038,16.274 12.519,18.208 C12.199,18.384 12,18.719 12,19.084 L12,25 C12,25.553 12.448,26 13,26 C13.552,26 14,25.553 14,25 L14,19.688 C16.961,18.209 19.942,17.94 21.973,18.006 C22.517,18.025 22.985,17.585 22.999,17.032 C23.014,16.481 22.579,16.021 22.027,16.007 L22.027,16.007 Z" id="Shape" fill="#000000"></path>
    </g>
</svg>