<?xml version="1.0" encoding="UTF-8" standalone="no"?>
<svg width="44px" height="44px" viewBox="0 0 44 44" version="1.1" xmlns="http://www.w3.org/2000/svg" xmlns:xlink="http://www.w3.org/1999/xlink">
    <!-- Generator: Sketch 3.7.2 (28276) - http://www.bohemiancoding.com/sketch -->
    <title>spa-dalek</title>
    <desc>Created with Sketch.</desc>
    <defs></defs>
    <g id="44px-Line" stroke="none" stroke-width="1" fill="none" fill-rule="evenodd">
        <g id="spa-dalek"></g>
        <path d="M17,16 C16.549,16 16.154,16.302 16.035,16.737 L15.145,20 L5.815,20 C5.401,18.839 4.301,18 2.999,18 C2.447,18 1.999,18.447 1.999,19 L1.999,23 C1.999,23.553 2.447,24 2.999,24 C4.301,24 5.401,23.161 5.815,22 L14.599,22 L10.202,38.121 C8.937,38.473 8,39.623 8,41 C8,42.654 9.346,44 11,44 L37,44 C38.654,44 40,42.654 40,41 C40,39.672 39.127,38.555 37.928,38.162 L35.996,16.909 C35.949,16.395 35.517,16 35,16 L34,16 L34,14 L35,14 C35.552,14 36,13.553 36,13 C36,12.447 35.552,12 35,12 L34,12 L34,10 L35,10 C35.284,10 35.555,9.879 35.745,9.668 C35.934,9.456 36.025,9.174 35.995,8.892 C35.367,3.159 31.818,0.001 26.001,0.001 C21.255,0.001 18.02,2.107 16.647,6 L11.816,6 C11.402,4.839 10.302,4 9,4 C8.448,4 8,4.447 8,5 L8,9 C8,9.553 8.448,10 9,10 C10.302,10 11.402,9.161 11.816,8 L16.136,8 C16.086,8.291 16.04,8.585 16.006,8.891 C15.975,9.173 16.066,9.455 16.256,9.667 C16.445,9.879 16.716,10 17.001,10 L18.001,10 L18.001,12 L17.001,12 C16.449,12 16.001,12.447 16.001,13 C16.001,13.553 16.449,14 17.001,14 L18.001,14 L18.001,16 L17,16 L17,16 Z M17.764,18 L21.855,18 L19.128,38 L12.31,38 L17.764,18 L17.764,18 Z M21.145,38 L23.872,18 L28,18 L28,38 L21.145,38 L21.145,38 Z M37,42 L11,42 C10.449,42 10,41.552 10,41 C10,40.448 10.449,40 11,40 L37,40 C37.551,40 38,40.448 38,41 C38,41.552 37.551,42 37,42 L37,42 Z M35.905,38 L30,38 L30,18 L34.087,18 L35.905,38 L35.905,38 Z M26,2.001 C30.404,2.001 33.036,4.018 33.836,8 L18.165,8 C18.968,4.018 21.599,2.001 26,2.001 L26,2.001 Z M20,10 L32,10 L32,12 L20,12 L20,10 L20,10 Z M20,14 L32,14 L32,16 L20,16 L20,14 L20,14 Z" id="Shape" fill="#000000"></path>
        <path d="M25.02,6 C25.572,6 26.02,5.553 26.02,5 C26.02,4.447 25.572,4 25.02,4 L25.01,4 C24.458,4 24.015,4.447 24.015,5 C24.015,5.553 24.468,6 25.02,6 L25.02,6 Z" id="Shape" fill="#000000"></path>
    </g>
</svg>