<?xml version="1.0" encoding="UTF-8" standalone="no"?>
<svg width="44px" height="44px" viewBox="0 0 44 44" version="1.1" xmlns="http://www.w3.org/2000/svg" xmlns:xlink="http://www.w3.org/1999/xlink">
    <!-- Generator: Sketch 3.7.2 (28276) - http://www.bohemiancoding.com/sketch -->
    <title>spa-shuttle-2</title>
    <desc>Created with Sketch.</desc>
    <defs></defs>
    <g id="44px-Glyph" stroke="none" stroke-width="1" fill="none" fill-rule="evenodd">
        <g id="spa-shuttle-2" fill="#000000">
            <path d="M9.4721,27.7141 C8.6741,28.1191 7.9271,28.6591 7.2931,29.2931 L6.2931,30.2931 C5.9021,30.6831 5.9021,31.3161 6.2931,31.7071 L12.2931,37.7071 C12.4881,37.9021 12.7441,38.0001 13.0001,38.0001 C13.2561,38.0001 13.5121,37.9021 13.7071,37.7071 L14.7071,36.7071 L14.7081,36.7061 C15.3411,36.0711 15.8791,35.3231 16.2831,34.5251 L9.4721,27.7141 Z" id="Fill-87"></path>
            <path d="M26.2346,25.127 L18.8696,17.76 C18.6096,17.503 18.2016,17.499 17.9416,17.759 L10.1426,25.557 L13.5836,28.997 L20.2936,22.292 C20.6836,21.903 21.3166,21.902 21.7076,22.293 C22.0976,22.684 22.0976,23.317 21.7076,23.707 L14.9986,30.412 L18.4436,33.857 L26.2366,26.063 C26.4926,25.806 26.4916,25.386 26.2346,25.127" id="Fill-88"></path>
            <path d="M41.8503,9.8046 C42.0603,9.4686 42.2643,9.1286 42.4533,8.7846 C44.7223,4.6456 43.8423,2.4256 42.7063,1.2946 C41.9353,0.5206 40.9413,0.1276 39.7543,0.1266 L39.7493,0.1266 C38.0013,0.1266 36.0263,1.0136 34.2003,2.1546 L41.8503,9.8046 Z" id="Fill-89"></path>
            <path d="M34.9826,13.7046 C34.7876,13.9016 34.5306,13.9996 34.2736,13.9996 C34.0186,13.9996 33.7636,13.9036 33.5686,13.7096 C33.1766,13.3206 33.1746,12.6866 33.5646,12.2956 C34.1076,11.7476 34.1516,10.8366 33.6576,10.3466 C33.3396,10.0266 32.9306,9.9926 32.7216,10.0016 C32.3386,10.0156 31.9686,10.1736 31.7056,10.4356 C31.3126,10.8246 30.6796,10.8226 30.2916,10.4316 C29.9016,10.0396 29.9036,9.4066 30.2956,9.0176 C30.9116,8.4056 31.7686,8.0356 32.6466,8.0026 C33.5966,7.9716 34.4426,8.2986 35.0716,8.9326 C36.3386,10.1906 36.3006,12.3786 34.9826,13.7046 L34.9826,13.7046 Z M32.5166,3.2986 C30.4486,4.8186 28.7856,6.4246 28.2356,6.9756 C27.8626,7.3496 27.4596,7.7536 27.0436,8.1706 C24.0836,11.1016 19.9016,10.6696 15.4686,10.2106 C10.2726,9.6706 4.3776,9.0596 0.2116,14.3836 C-0.0984,14.7816 -0.0644,15.3496 0.2936,15.7066 L8.7286,24.1426 L16.5266,16.3456 C17.5546,15.3146 19.2376,15.3126 20.2796,16.3416 L27.6506,23.7146 C28.6836,24.7546 28.6836,26.4406 27.6516,27.4756 L19.8576,35.2716 L28.2936,43.7066 C28.4816,43.8946 28.7356,43.9996 29.0006,43.9996 C29.0206,43.9996 29.0406,43.9996 29.0606,43.9976 C29.3466,43.9806 29.6116,43.8416 29.7876,43.6166 C33.6526,38.6786 33.3746,33.3316 33.1276,28.6146 C32.8936,24.0926 32.6946,20.1816 35.7586,17.0306 C36.2526,16.5356 36.6926,16.0956 37.0286,15.7596 C37.7706,15.0166 39.2816,13.4196 40.7026,11.4856 L32.5166,3.2986 Z" id="Fill-90"></path>
        </g>
    </g>
</svg>