<?xml version="1.0" encoding="UTF-8" standalone="no"?>
<svg width="44px" height="44px" viewBox="0 0 44 44" version="1.1" xmlns="http://www.w3.org/2000/svg" xmlns:xlink="http://www.w3.org/1999/xlink">
    <!-- Generator: Sketch 3.7.2 (28276) - http://www.bohemiancoding.com/sketch -->
    <title>spa-star-trek</title>
    <desc>Created with Sketch.</desc>
    <defs></defs>
    <g id="44px-Glyph" stroke="none" stroke-width="1" fill="none" fill-rule="evenodd">
        <g id="spa-star-trek" fill="#000000">
            <path d="M7.0002,44 C6.8522,44 6.7032,43.967 6.5632,43.9 C6.1452,43.697 5.9222,43.232 6.0242,42.779 C6.0492,42.673 8.4472,32.129 11.4862,21.72 C17.8272,0 20.7512,0 22.0002,0 C23.9332,0 26.8732,2.238 32.5062,19.693 C35.5462,29.116 37.9462,38.662 37.9702,38.757 C38.0952,39.255 37.8222,39.767 37.3392,39.941 C36.8592,40.114 36.3202,39.895 36.0982,39.431 C33.2392,33.453 28.9472,27 27.0002,27 C22.2612,27 11.5182,39.003 7.7772,43.629 C7.5832,43.87 7.2942,44 7.0002,44" id="Fill-120"></path>
            <path d="M34.4094,19.0786 C35.6274,22.8546 36.7354,26.6196 37.6344,29.8106 C39.7534,27.8756 41.0004,25.5306 41.0004,22.9996 C41.0004,18.7776 37.5394,15.0716 32.3184,12.9326 C32.9794,14.7616 33.6734,16.7996 34.4094,19.0786" id="Fill-121"></path>
            <path d="M26.8243,29.0093 C25.2123,29.1753 22.1003,31.5213 18.6303,34.8003 C19.7263,34.9243 20.8483,35.0003 22.0003,35.0003 C25.1093,35.0003 28.0353,34.5193 30.6263,33.6823 C28.9733,31.1153 27.5393,29.4133 26.8243,29.0093" id="Fill-122"></path>
            <path d="M7.027,30.3697 C7.784,27.4797 8.645,24.3147 9.567,21.1587 C10.513,17.9187 11.388,15.1337 12.204,12.7317 C6.696,14.8327 3,18.6397 3,22.9997 C3,25.7817 4.512,28.3347 7.027,30.3697" id="Fill-123"></path>
        </g>
    </g>
</svg>