<?xml version="1.0" encoding="UTF-8" standalone="no"?>
<svg width="64px" height="64px" viewBox="0 0 64 64" version="1.1" xmlns="http://www.w3.org/2000/svg" xmlns:xlink="http://www.w3.org/1999/xlink">
    <!-- Generator: Sketch 3.7.2 (28276) - http://www.bohemiancoding.com/sketch -->
    <title>spa-rocket-orbit</title>
    <desc>Created with Sketch.</desc>
    <defs></defs>
    <g id="64px-Glyph" stroke="none" stroke-width="1" fill="none" fill-rule="evenodd">
        <g id="spa-rocket-orbit" fill="#000000">
            <path d="M12.8486,47.7917 C10.7136,49.2967 9.2526,49.8117 8.2636,49.8557 C7.8186,49.8737 7.4566,49.7917 7.1396,49.6187 C7.0916,49.5917 7.0396,49.5697 6.9946,49.5387 C6.9066,49.4797 6.8236,49.4097 6.7426,49.3337 C6.7266,49.3187 6.7076,49.3077 6.6926,49.2927 C5.6166,48.2177 5.7936,45.2547 7.1656,41.3667 C7.3486,40.8467 7.0756,40.2747 6.5546,40.0917 C6.0316,39.9067 5.4636,40.1807 5.2786,40.7017 C4.0886,44.0767 3.1226,48.5517 5.2786,50.7067 C5.4776,50.9067 5.6916,51.0777 5.9176,51.2257 C6.0836,51.3367 6.2646,51.4207 6.4456,51.5057 C6.4916,51.5257 6.5346,51.5547 6.5816,51.5737 C7.1646,51.8217 7.8116,51.9537 8.5376,51.9537 C10.2306,51.9537 12.3186,51.2987 14.7986,50.1287 C14.1036,49.3897 13.4506,48.6107 12.8486,47.7917" id="Fill-149"></path>
            <path d="M38.0002,38.5859 L40.0002,36.5859 L40.0002,32.2919 C37.9622,33.7249 36.0012,34.7399 34.7432,35.3289 L38.0002,38.5859 Z" id="Fill-150"></path>
            <path d="M29.4142,26 L27.4142,28 L30.6702,31.257 C31.2602,29.998 32.2752,28.038 33.7082,26 L29.4142,26 Z" id="Fill-151"></path>
            <path d="M37.9962,23.9561 C35.2372,26.7151 33.3592,30.2461 32.4872,32.0991 L38.2932,26.2931 C38.6832,25.9021 39.3162,25.9021 39.7072,26.2931 C40.0982,26.6831 40.0982,27.3161 39.7072,27.7071 L33.9052,33.5081 C35.7612,32.6341 39.2942,30.7531 42.0452,28.0041 C45.8702,24.1781 46.0952,21.1971 45.9892,20.0101 C44.8152,19.9041 41.8262,20.1251 37.9962,23.9561" id="Fill-152"></path>
            <path d="M43.4592,29.418 C42.9882,29.889 42.4982,30.331 42.0002,30.751 L42.0002,37 C42.0002,37.265 41.8942,37.52 41.7072,37.707 L38.7072,40.707 C38.5122,40.902 38.2562,41 38.0002,41 C37.7442,41 37.4882,40.902 37.2932,40.707 L32.2952,35.709 C32.2942,35.708 32.2932,35.708 32.2922,35.707 L30.2922,33.707 C30.2912,33.706 30.2902,33.704 30.2892,33.703 L25.2932,28.707 C24.9022,28.316 24.9022,27.684 25.2932,27.293 L28.2932,24.293 C28.4802,24.106 28.7342,24 29.0002,24 L35.2492,24 C35.6702,23.503 36.1122,23.012 36.5822,22.542 C42.4142,16.709 46.9752,18.14 47.1652,18.204 C47.4642,18.303 47.6982,18.538 47.7972,18.836 C47.8612,19.027 49.2912,23.585 43.4592,29.418 M33.0002,8 C19.1932,8 8.0002,19.193 8.0002,33 C8.0002,38.536 9.8032,43.649 12.8482,47.792 C15.8152,45.701 20.0872,41.696 26.2332,34.358 C26.5882,33.935 27.2212,33.879 27.6422,34.233 C28.0652,34.588 28.1212,35.219 27.7672,35.642 C24.0222,40.113 20.7412,43.628 17.8862,46.236 C21.7302,44.017 26.1162,41.074 30.4422,38.17 C30.9002,37.86 31.5232,37.984 31.8302,38.443 C32.1382,38.901 32.0162,39.523 31.5582,39.83 C24.7182,44.421 19.1492,48.075 14.7982,50.128 C14.1032,49.39 13.4512,48.611 12.8492,47.792 C17.3992,53.981 24.7292,58 33.0002,58 C46.8072,58 58.0002,46.807 58.0002,33 C58.0002,19.193 46.8072,8 33.0002,8" id="Fill-153"></path>
        </g>
    </g>
</svg>