<?xml version="1.0" encoding="UTF-8" standalone="no"?>
<svg width="44px" height="44px" viewBox="0 0 44 44" version="1.1" xmlns="http://www.w3.org/2000/svg" xmlns:xlink="http://www.w3.org/1999/xlink">
    <!-- Generator: Sketch 3.7.2 (28276) - http://www.bohemiancoding.com/sketch -->
    <title>spa-sputnik</title>
    <desc>Created with Sketch.</desc>
    <defs></defs>
    <g id="44px-Glyph" stroke="none" stroke-width="1" fill="none" fill-rule="evenodd">
        <g id="spa-sputnik" fill="#000000">
            <path d="M34.0002,4.001 C34.5532,4.001 35.0002,4.449 35.0002,5.001 C35.0002,5.553 34.5532,6.001 34.0002,6.001 C31.7942,6.001 30.0002,7.795 30.0002,10.001 C30.0002,10.553 29.5532,11.001 29.0002,11.001 C28.4472,11.001 28.0002,10.553 28.0002,10.001 C28.0002,6.692 30.6912,4.001 34.0002,4.001 M41.0712,2.929 C37.4332,-0.711 31.6642,-0.951 27.7422,2.203 C27.7392,2.205 27.7352,2.205 27.7322,2.207 L0.4092,22.193 C-0.0358,22.519 -0.1328,23.144 0.1922,23.59 C0.3892,23.858 0.6922,24 1.0012,24 C1.2062,24 1.4122,23.937 1.5912,23.807 L24.4242,7.106 C24.1452,8.033 24.0002,9.005 24.0002,10 C24.0002,11.457 24.3202,12.862 24.9072,14.149 L8.3522,28.238 C7.9322,28.596 7.8812,29.227 8.2382,29.648 C8.4362,29.88 8.7182,30 9.0002,30 C9.2292,30 9.4602,29.922 9.6482,29.762 L25.9372,15.899 C26.2382,16.309 26.5622,16.704 26.9292,17.07 C27.1162,17.257 27.3232,17.414 27.5222,17.584 L8.2682,38.319 C7.8922,38.724 7.9152,39.357 8.3192,39.733 C8.5122,39.912 8.7562,40 9.0002,40 C9.2692,40 9.5362,39.893 9.7322,39.681 L35.9182,11.507 C36.2922,11.102 36.9272,11.079 37.3312,11.455 C37.7352,11.831 37.7592,12.463 37.3832,12.868 L31.1452,19.586 C32.0602,19.857 33.0192,20 34.0002,20 C34.9962,20 35.9702,19.855 36.8982,19.575 L20.1932,42.41 C19.8672,42.855 19.9642,43.481 20.4092,43.807 C20.5882,43.937 20.7942,44 20.9992,44 C21.3082,44 21.6112,43.858 21.8072,43.59 L42.1202,15.823 C42.1212,15.822 42.1212,15.82 42.1222,15.819 C43.3362,14.133 44.0002,12.12 44.0002,10 C44.0002,7.329 42.9602,4.817 41.0712,2.929" id="Fill-139"></path>
        </g>
    </g>
</svg>