<?xml version="1.0" encoding="UTF-8" standalone="no"?>
<svg width="44px" height="44px" viewBox="0 0 44 44" version="1.1" xmlns="http://www.w3.org/2000/svg" xmlns:xlink="http://www.w3.org/1999/xlink">
    <!-- Generator: Sketch 3.7.2 (28276) - http://www.bohemiancoding.com/sketch -->
    <title>spa-ufo</title>
    <desc>Created with Sketch.</desc>
    <defs></defs>
    <g id="44px-Glyph" stroke="none" stroke-width="1" fill="none" fill-rule="evenodd">
        <g id="spa-ufo" fill="#000000">
            <path d="M2.5163,34 C3.9303,35.702 9.9703,42 22.0003,42 C34.0303,42 40.0703,35.702 41.4843,34 L2.5163,34 Z" id="Fill-42"></path>
            <path d="M44.0002,31 L44.0002,29 C44.0002,28.449 43.5522,28 43.0002,28 L1.0002,28 C0.4482,28 0.0002,28.449 0.0002,29 L0.0002,31 C0.0002,31.551 0.4482,32 1.0002,32 L43.0002,32 C43.5522,32 44.0002,31.551 44.0002,31" id="Fill-43"></path>
            <path d="M14.0002,19.0348 L14.0002,11.9998 C14.0002,7.5888 17.5892,3.9998 22.0002,3.9998 C26.4112,3.9998 30.0002,7.5888 30.0002,11.9998 L30.0002,19.0348 C27.7012,18.4048 25.0442,17.9998 22.0002,17.9998 C18.9562,17.9998 16.2992,18.4048 14.0002,19.0348 M32.0002,19.6758 L32.0002,11.9998 C32.0002,6.4858 27.5142,1.9998 22.0002,1.9998 C16.4862,1.9998 12.0002,6.4858 12.0002,11.9998 L12.0002,19.6758 C6.4962,21.6668 3.4622,24.8608 2.5162,25.9998 L41.4842,25.9998 C40.5372,24.8608 37.5042,21.6668 32.0002,19.6758" id="Fill-44"></path>
            <path d="M22.0002,14 C20.8972,14 20.0002,13.103 20.0002,12 C20.0002,10.897 20.8972,10 22.0002,10 C23.1022,10 24.0002,10.897 24.0002,12 C24.0002,13.103 23.1022,14 22.0002,14 M22.0002,5.895 C18.6912,5.895 16.0002,8.587 16.0002,11.895 L16.0002,16.54 C17.8272,16.206 19.8152,16 22.0002,16 C24.1852,16 26.1732,16.206 28.0002,16.54 L28.0002,11.895 C28.0002,8.587 25.3092,5.895 22.0002,5.895" id="Fill-45"></path>
        </g>
    </g>
</svg>