<?xml version="1.0" encoding="UTF-8" standalone="no"?>
<svg width="44px" height="44px" viewBox="0 0 44 44" version="1.1" xmlns="http://www.w3.org/2000/svg" xmlns:xlink="http://www.w3.org/1999/xlink">
    <!-- Generator: Sketch 3.7.2 (28276) - http://www.bohemiancoding.com/sketch -->
    <title>spa-earth</title>
    <desc>Created with Sketch.</desc>
    <defs></defs>
    <g id="44px-Line" stroke="none" stroke-width="1" fill="none" fill-rule="evenodd">
        <g id="spa-earth"></g>
        <path d="M44,22 C44,14.856 40.576,8.5 35.284,4.478 C35.26,4.455 35.232,4.437 35.205,4.416 C31.713,1.787 27.416,0.178 22.757,0.019 L22.749,0.019 C22.5,0.011 22.251,0 22,0 C15.881,0 10.34,2.513 6.348,6.559 C6.321,6.587 6.293,6.61 6.27,6.641 C2.394,10.609 0,16.029 0,22 C0,34.131 9.869,44 22,44 C32.185,44 40.773,37.042 43.267,27.63 C43.27,27.617 43.275,27.605 43.278,27.591 C43.748,25.805 44,23.932 44,22 L44,22 Z M42,22 C42,22.961 41.909,23.899 41.777,24.824 L40.676,23.172 L39.102,18.453 C38.995,18.129 38.728,17.883 38.396,17.8 L32.381,16.295 L31.232,13.995 L34.14,9.632 C34.189,9.558 34.229,9.478 34.256,9.394 L35.084,6.909 C39.311,10.578 42,15.976 42,22 L42,22 Z M24.183,5.987 L23.001,11.894 L22.707,11.6 C22.316,11.209 21.684,11.209 21.293,11.6 L18.063,14.83 C17.795,15.098 17.702,15.494 17.822,15.853 L19.437,20.7 C19.553,21.052 19.855,21.309 20.221,21.37 L24.825,22.138 L27.14,23.873 L25.18,27.138 C25.135,27.213 25.1,27.294 25.076,27.378 L23.519,32.829 L20.955,35.905 L19.75,29.88 C19.702,29.639 19.566,29.424 19.369,29.276 L16.538,27.152 L16.538,25.506 L18.819,21.705 C19.012,21.382 19.008,20.977 18.808,20.659 C18.608,20.339 18.243,20.155 17.87,20.194 L9.452,20.96 L5.352,16.86 L7.945,7.788 C11.56,4.212 16.524,1.998 21.999,1.998 C22.065,1.998 22.128,2.007 22.193,2.008 L24.183,5.987 L24.183,5.987 Z M22,42 C10.972,42 2,33.028 2,22 C2,18.412 2.963,15.049 4.624,12.135 L3.268,16.879 C3.168,17.228 3.266,17.604 3.523,17.86 L8.37,22.707 C8.58,22.917 8.876,23.026 9.168,22.996 L16.091,22.366 L14.681,24.716 C14.587,24.871 14.538,25.049 14.538,25.231 L14.538,27.654 C14.538,27.968 14.686,28.265 14.938,28.454 L17.864,30.648 L19.404,38.35 C19.479,38.728 19.765,39.028 20.138,39.123 C20.22,39.144 20.302,39.153 20.384,39.153 C20.677,39.153 20.959,39.024 21.153,38.794 L25.191,33.948 C25.28,33.841 25.345,33.716 25.384,33.582 L26.963,28.055 L29.318,24.13 C29.582,23.691 29.47,23.123 29.06,22.816 L25.829,20.393 C25.701,20.296 25.552,20.233 25.393,20.206 L21.142,19.497 L19.913,15.809 L21.999,13.722 L22.907,14.63 C23.168,14.891 23.55,14.989 23.904,14.88 C24.257,14.774 24.522,14.481 24.594,14.119 L26.209,6.043 C26.253,5.825 26.223,5.599 26.123,5.399 L24.511,2.175 C27.79,2.589 30.822,3.791 33.411,5.598 L32.399,8.633 L29.243,13.367 C29.044,13.666 29.02,14.048 29.181,14.369 L30.796,17.599 C30.927,17.86 31.165,18.051 31.448,18.121 L37.376,19.604 L38.819,23.929 C38.846,24.013 38.885,24.093 38.935,24.167 L41.195,27.558 C38.781,35.889 31.097,42 22,42 L22,42 Z" id="Shape" fill="#000000"></path>
    </g>
</svg>