<?xml version="1.0" encoding="UTF-8" standalone="no"?>
<svg width="44px" height="44px" viewBox="0 0 44 44" version="1.1" xmlns="http://www.w3.org/2000/svg" xmlns:xlink="http://www.w3.org/1999/xlink">
    <!-- Generator: Sketch 3.7.2 (28276) - http://www.bohemiancoding.com/sketch -->
    <title>spa-tie-fighter</title>
    <desc>Created with Sketch.</desc>
    <defs></defs>
    <g id="44px-Glyph" stroke="none" stroke-width="1" fill="none" fill-rule="evenodd">
        <g id="spa-tie-fighter" fill="#000000">
            <path d="M2.0002,32.5859 L2.0002,25.9999 L5.0002,25.9999 C5.5532,25.9999 6.0002,25.5519 6.0002,24.9999 L6.0002,18.9999 C6.0002,18.4479 5.5532,17.9999 5.0002,17.9999 L2.0002,17.9999 L2.0002,11.4139 L11.7072,1.7069 C12.0982,1.3159 12.0982,0.6839 11.7072,0.2929 C11.3162,-0.0981 10.6842,-0.0981 10.2932,0.2929 L0.2932,10.2929 C0.1052,10.4809 0.0002,10.7349 0.0002,10.9999 L0.0002,32.9999 C0.0002,33.2649 0.1052,33.5199 0.2932,33.7069 L10.2932,43.7069 C10.4882,43.9019 10.7442,43.9999 11.0002,43.9999 C11.2562,43.9999 11.5122,43.9019 11.7072,43.7069 C12.0982,43.3159 12.0982,42.6839 11.7072,42.2929 L2.0002,32.5859 Z" id="Fill-168"></path>
            <path d="M43.7072,10.293 L33.7072,0.293 C33.3162,-0.098 32.6842,-0.098 32.2932,0.293 C31.9022,0.684 31.9022,1.316 32.2932,1.707 L42.0002,11.414 L42.0002,18 L39.0002,18 C38.4472,18 38.0002,18.448 38.0002,19 L38.0002,25 C38.0002,25.552 38.4472,26 39.0002,26 L42.0002,26 L42.0002,32.586 L32.2932,42.293 C31.9022,42.684 31.9022,43.316 32.2932,43.707 C32.4882,43.902 32.7442,44 33.0002,44 C33.2562,44 33.5122,43.902 33.7072,43.707 L43.7072,33.707 C43.8942,33.52 44.0002,33.265 44.0002,33 L44.0002,11 C44.0002,10.735 43.8942,10.48 43.7072,10.293" id="Fill-169"></path>
            <path d="M22.0002,18 C19.7942,18 18.0002,19.794 18.0002,22 C18.0002,24.206 19.7942,26 22.0002,26 C24.2062,26 26.0002,24.206 26.0002,22 C26.0002,19.794 24.2062,18 22.0002,18" id="Fill-170"></path>
            <path d="M22.0002,28 C18.6912,28 16.0002,25.309 16.0002,22 C16.0002,18.691 18.6912,16 22.0002,16 C25.3092,16 28.0002,18.691 28.0002,22 C28.0002,25.309 25.3092,28 22.0002,28 L22.0002,28 Z M36.0002,19 C36.0002,18.669 36.0672,18.356 36.1662,18.058 L30.0872,16.142 C28.2682,13.638 25.3252,12 22.0002,12 C18.6752,12 15.7322,13.638 13.9132,16.142 L7.8342,18.058 C7.9332,18.356 8.0002,18.669 8.0002,19 L8.0002,25 C8.0002,25.331 7.9332,25.644 7.8342,25.942 L13.9132,27.858 C15.7322,30.362 18.6752,32 22.0002,32 C25.3252,32 28.2682,30.362 30.0872,27.858 L36.1662,25.942 C36.0672,25.644 36.0002,25.331 36.0002,25 L36.0002,19 Z" id="Fill-171"></path>
        </g>
    </g>
</svg>