<?xml version="1.0" encoding="UTF-8" standalone="no"?>
<svg width="64px" height="64px" viewBox="0 0 64 64" version="1.1" xmlns="http://www.w3.org/2000/svg" xmlns:xlink="http://www.w3.org/1999/xlink">
    <!-- Generator: Sketch 3.7.2 (28276) - http://www.bohemiancoding.com/sketch -->
    <title>spa-astronaut</title>
    <desc>Created with Sketch.</desc>
    <defs></defs>
    <g id="64px-Line" stroke="none" stroke-width="1" fill="none" fill-rule="evenodd">
        <g id="spa-astronaut"></g>
        <path d="M35,26 L27,26 C26.448,26 26,26.448 26,27 L26,35 C26,35.552 26.448,36 27,36 L35,36 C35.552,36 36,35.552 36,35 L36,27 C36,26.448 35.552,26 35,26 L35,26 Z M34,34 L28,34 L28,28 L34,28 L34,34 L34,34 Z" id="Shape" fill="#000000"></path>
        <path d="M18,18 L18,21.96 C16.786,22.555 15.603,23.327 14.59,24.34 L7.467,31.461 C5.767,33.162 5.284,36.349 7.467,38.532 C9.651,40.716 12.838,40.234 14.521,38.549 L20,33.333 L20,55 C20,57.405 21.912,60 25,60 C28.088,60 30,57.405 30,55 L30,43 C30,42.449 30.449,42 31,42 C31.551,42 32,42.449 32,43 L32,55 C32,57.405 33.912,60.001 37,60.001 C40.088,60.001 42,57.405 42,55 L42,33.333 L47.461,38.533 C48.363,39.436 49.685,39.995 51.053,39.995 C52.262,39.995 53.508,39.557 54.532,38.533 C56.715,36.35 56.232,33.163 54.532,31.462 L47.41,24.341 C46.397,23.328 45.214,22.556 44,21.961 L44,18 C44,15.794 42.206,14 40,14 L39.92,14 C39.968,13.557 40,13.121 40,12.707 C40,7.906 35.962,4 31,4 C26.038,4 22,7.906 22,12.707 C22,13.121 22.032,13.557 22.08,14 L22,14 C19.794,14 18,15.794 18,18 L18,18 Z M13.125,37.118 C12.269,37.973 10.329,38.565 8.882,37.118 C7.435,35.671 8.027,33.731 8.882,32.875 L11.003,30.754 L15.298,35.049 L13.125,37.118 L13.125,37.118 Z M25,58 C22.954,58 22,56.21 22,55 L22,52 L28,52 L28,55 C28,56.21 27.046,58 25,58 L25,58 Z M37,58.001 C34.954,58.001 34,56.21 34,55 L34,52 L40,52 L40,55 C40,56.21 39.046,58.001 37,58.001 L37,58.001 Z M53.118,37.118 C51.669,38.565 49.729,37.972 48.857,37.101 L46.702,35.049 L50.997,30.754 L53.118,32.875 C53.973,33.731 54.565,35.671 53.118,37.118 L53.118,37.118 Z M49.583,29.34 L45.254,33.669 L41.69,30.275 C41.655,30.241 41.61,30.228 41.571,30.2 C41.507,30.154 41.446,30.104 41.371,30.074 C41.291,30.042 41.208,30.035 41.124,30.024 C41.082,30.02 41.044,30 41,30 C40.996,30 40.993,30.002 40.989,30.002 C40.891,30.003 40.796,30.03 40.702,30.06 C40.671,30.07 40.636,30.068 40.607,30.081 C40.569,30.097 40.54,30.13 40.504,30.151 C40.427,30.196 40.348,30.24 40.286,30.304 C40.283,30.307 40.279,30.308 40.276,30.311 C40.243,30.345 40.23,30.389 40.204,30.426 C40.156,30.492 40.106,30.554 40.075,30.631 C40.045,30.705 40.04,30.783 40.028,30.861 C40.021,30.909 40,30.951 40,31.001 L40,50.001 L34,50.001 L34,43.001 C34,41.347 32.654,40.001 31,40.001 C29.346,40.001 28,41.347 28,43.001 L28,50.001 L22,50.001 L22,31.001 C22,30.601 21.762,30.239 21.394,30.082 C21.027,29.924 20.601,30.001 20.311,30.277 L16.747,33.671 L12.418,29.342 L16.005,25.756 C16.975,24.786 18.155,24.072 19.362,23.538 C19.38,23.531 19.397,23.524 19.415,23.516 C22.093,22.345 24.892,22.077 25.884,22.019 C27.226,23.216 28.92,24 31,24 C33.08,24 34.774,23.216 36.118,22.016 C37.107,22.072 39.896,22.336 42.573,23.505 C42.599,23.518 42.625,23.529 42.653,23.539 C43.854,24.072 45.028,24.785 45.996,25.754 L49.583,29.34 L49.583,29.34 Z M24.016,13.118 C24.686,12.552 26.773,11.148 31,11.148 C35.235,11.148 37.322,12.557 37.984,13.117 C37.824,16.97 35.411,22 31,22 C26.59,22 24.177,16.971 24.016,13.118 L24.016,13.118 Z M40,16 C41.103,16 42,16.897 42,18 L42,21.133 C40.403,20.587 38.878,20.304 37.733,20.157 C38.585,18.89 39.186,17.44 39.556,16 L40,16 L40,16 Z M31,6 C34.059,6 36.658,7.892 37.609,10.517 C36.212,9.818 34.077,9.148 31,9.148 C27.923,9.148 25.788,9.818 24.391,10.517 C25.342,7.892 27.941,6 31,6 L31,6 Z M24.267,20.157 C23.122,20.303 21.597,20.587 20,21.133 L20,18 C20,16.897 20.897,16 22,16 L22.445,16 C22.814,17.44 23.415,18.89 24.267,20.157 L24.267,20.157 Z" id="Shape" fill="#000000"></path>
    </g>
</svg>