<?xml version="1.0" encoding="UTF-8" standalone="no"?>
<svg width="64px" height="64px" viewBox="0 0 64 64" version="1.1" xmlns="http://www.w3.org/2000/svg" xmlns:xlink="http://www.w3.org/1999/xlink">
    <!-- Generator: Sketch 3.7.2 (28276) - http://www.bohemiancoding.com/sketch -->
    <title>spa-planet</title>
    <desc>Created with Sketch.</desc>
    <defs></defs>
    <g id="64px-Glyph" stroke="none" stroke-width="1" fill="none" fill-rule="evenodd">
        <g id="spa-planet" fill="#000000">
            <path d="M57.0002,34 C50.8312,34 46.0002,31.462 40.4062,28.523 C32.8032,24.528 24.1852,20 9.0942,20 L7.3452,20 C5.2162,23.859 4.0002,28.291 4.0002,33.002 C4.0002,33.337 4.0132,33.668 4.0252,34 L5.0762,34 C12.7262,34 18.7782,39.022 24.6312,43.879 C30.6282,48.854 36.8282,54 44.8562,54 L47.9452,54 C53.8302,49.242 57.6792,42.068 57.9752,34 L57.0002,34 Z" id="Fill-170"></path>
            <path d="M44.8566,56 C36.1066,56 29.6246,50.62 23.3546,45.418 C17.5176,40.575 12.0036,36 5.0766,36 L4.1706,36 C5.6676,49.48 17.1266,60 31.0006,60 C36.1746,60 41.0116,58.534 45.1236,56 L44.8566,56 Z" id="Fill-171"></path>
            <path d="M9.0939,18 C24.6779,18 33.9139,22.853 41.3359,26.753 C46.6959,29.568 51.3239,32 56.9999,32 L57.9749,32 C57.4449,17.574 45.5519,6 30.9999,6 C21.6589,6 13.4129,10.77 8.5629,18 L9.0939,18 Z" id="Fill-172"></path>
        </g>
    </g>
</svg>