<?xml version="1.0" encoding="UTF-8" standalone="no"?>
<svg width="44px" height="44px" viewBox="0 0 44 44" version="1.1" xmlns="http://www.w3.org/2000/svg" xmlns:xlink="http://www.w3.org/1999/xlink">
    <!-- Generator: Sketch 3.7.2 (28276) - http://www.bohemiancoding.com/sketch -->
    <title>spa-moon-earth</title>
    <desc>Created with Sketch.</desc>
    <defs></defs>
    <g id="44px-Line" stroke="none" stroke-width="1" fill="none" fill-rule="evenodd">
        <g id="spa-moon-earth"></g>
        <path d="M18.828,33.414 C18.437,33.023 17.804,33.023 17.414,33.414 C16.658,34.17 15.342,34.17 14.586,33.414 C13.806,32.635 13.806,31.365 14.586,30.586 C14.977,30.195 14.977,29.563 14.586,29.172 C14.195,28.781 13.563,28.781 13.172,29.172 C11.612,30.732 11.612,33.269 13.172,34.828 C13.927,35.584 14.932,36 16,36 C17.068,36 18.073,35.584 18.828,34.828 C19.219,34.438 19.219,33.805 18.828,33.414 L18.828,33.414 Z" id="Shape" fill="#000000"></path>
        <path d="M8,29.999 C8.512,29.999 9.024,29.804 9.414,29.414 C9.805,29.023 9.804,28.391 9.414,28.001 C9.023,27.609 8.389,27.61 7.999,28.001 L8,28 C8.391,27.609 8.391,26.977 8,26.586 C7.609,26.195 6.977,26.195 6.586,26.586 C5.806,27.365 5.806,28.635 6.586,29.414 C6.976,29.804 7.488,29.999 8,29.999 L8,29.999 Z" id="Shape" fill="#000000"></path>
        <path d="M9.707,35.707 C9.33,36.086 8.671,36.086 8.293,35.707 C7.903,35.317 7.903,34.683 8.293,34.293 C8.684,33.902 8.684,33.27 8.293,32.879 C7.902,32.488 7.27,32.488 6.879,32.879 C5.709,34.049 5.709,35.951 6.879,37.121 C7.446,37.687 8.199,38 9.001,38 C9.803,38 10.556,37.688 11.123,37.121 C11.513,36.73 11.513,36.097 11.123,35.707 C10.73,35.316 10.097,35.316 9.707,35.707 L9.707,35.707 Z" id="Shape" fill="#000000"></path>
        <path d="M24,0 C12.972,0 4,8.972 4,20 C4,20.965 4.086,21.928 4.223,22.878 C1.643,25.081 0,28.35 0,32 C0,38.617 5.383,44 12,44 C15.65,44 18.919,42.357 21.121,39.777 C22.07,39.914 23.033,40 24,40 C35.028,40 44,31.028 44,20 C44,8.972 35.028,0 24,0 L24,0 Z M12,42 C6.486,42 2,37.514 2,32 C2,26.486 6.486,22 12,22 C17.514,22 22,26.486 22,32 C22,37.514 17.514,42 12,42 L12,42 Z M24,38 C23.471,38 22.943,37.977 22.418,37.931 C23.419,36.18 24,34.158 24,32 C24,25.383 18.617,20 12,20 C9.842,20 7.821,20.58 6.069,21.582 C6.023,21.057 6,20.528 6,20 C6,10.075 14.075,2 24,2 C33.925,2 42,10.075 42,20 C42,29.925 33.925,38 24,38 L24,38 Z" id="Shape" fill="#000000"></path>
    </g>
</svg>