<?xml version="1.0" encoding="UTF-8" standalone="no"?>
<svg width="64px" height="64px" viewBox="0 0 64 64" version="1.1" xmlns="http://www.w3.org/2000/svg" xmlns:xlink="http://www.w3.org/1999/xlink">
    <!-- Generator: Sketch 3.7.2 (28276) - http://www.bohemiancoding.com/sketch -->
    <title>spa-robot-2</title>
    <desc>Created with Sketch.</desc>
    <defs></defs>
    <g id="64px-Glyph" stroke="none" stroke-width="1" fill="none" fill-rule="evenodd">
        <g id="spa-robot-2" fill="#000000">
            <path d="M48.0002,34.1011 L48.0002,23.0001 C48.0002,20.2431 45.7572,18.0001 43.0002,18.0001 L42.5932,18.0001 C42.5022,17.8441 42.4232,17.6821 42.3102,17.5371 C41.5472,16.5601 40.3972,16.0001 39.1572,16.0001 L22.8432,16.0001 C21.6022,16.0001 20.4532,16.5601 19.6902,17.5371 C19.5772,17.6821 19.4982,17.8441 19.4072,18.0001 L19.0002,18.0001 C16.2432,18.0001 14.0002,20.2431 14.0002,23.0001 L14.0002,34.1011 C11.7212,34.5661 10.0002,36.5851 10.0002,39.0001 L10.0002,41.0001 C10.0002,41.5521 10.4472,42.0001 11.0002,42.0001 C11.5532,42.0001 12.0002,41.5521 12.0002,41.0001 L12.0002,39.0001 C12.0002,37.3461 13.3462,36.0001 15.0002,36.0001 C16.6542,36.0001 18.0002,37.3461 18.0002,39.0001 L18.0002,41.0001 C18.0002,41.5521 18.4472,42.0001 19.0002,42.0001 C19.5532,42.0001 20.0002,41.5521 20.0002,41.0001 L20.0002,39.0001 C20.0002,36.5851 18.2792,34.5661 16.0002,34.1011 L16.0002,23.0001 C16.0002,21.3981 17.2652,20.0981 18.8462,20.0151 C18.8482,20.3331 18.8832,20.6531 18.9622,20.9701 L21.6512,31.7271 C21.9852,33.0651 23.1832,34.0001 24.5612,34.0001 L25.0262,34.0001 C24.3912,34.8381 24.0002,35.8701 24.0002,37.0001 L24.0002,44.0001 L22.8092,44.0001 C21.8722,44.0001 21.0492,44.6651 20.8532,45.5811 L18.0222,58.7901 C17.9592,59.0861 18.0322,59.3941 18.2232,59.6281 C18.4122,59.8631 18.6982,60.0001 19.0002,60.0001 L27.0002,60.0001 C27.5532,60.0001 28.0002,59.5521 28.0002,59.0001 L28.0002,46.0001 C28.0002,44.8971 27.1022,44.0001 26.0002,44.0001 L26.0002,37.0001 C26.0002,35.3461 27.3462,34.0001 29.0002,34.0001 L33.0002,34.0001 C34.6542,34.0001 36.0002,35.3461 36.0002,37.0001 L36.0002,44.0001 C34.8972,44.0001 34.0002,44.8971 34.0002,46.0001 L34.0002,59.0001 C34.0002,59.5521 34.4472,60.0001 35.0002,60.0001 L43.0002,60.0001 C43.3022,60.0001 43.5882,59.8631 43.7772,59.6281 C43.9682,59.3941 44.0412,59.0861 43.9772,58.7901 L41.1462,45.5811 C40.9512,44.6651 40.1282,44.0001 39.1912,44.0001 L38.0002,44.0001 L38.0002,37.0001 C38.0002,35.8701 37.6092,34.8381 36.9742,34.0001 L37.4382,34.0001 C38.8172,34.0001 40.0152,33.0651 40.3492,31.7271 L43.0392,20.9701 C43.1182,20.6531 43.1532,20.3331 43.1542,20.0151 C44.7362,20.0981 46.0002,21.3991 46.0002,23.0001 L46.0002,34.1011 C43.7212,34.5661 42.0002,36.5851 42.0002,39.0001 L42.0002,41.0001 C42.0002,41.5521 42.4472,42.0001 43.0002,42.0001 C43.5532,42.0001 44.0002,41.5521 44.0002,41.0001 L44.0002,39.0001 C44.0002,37.3461 45.3462,36.0001 47.0002,36.0001 C48.6542,36.0001 50.0002,37.3461 50.0002,39.0001 L50.0002,41.0001 C50.0002,41.5521 50.4472,42.0001 51.0002,42.0001 C51.5532,42.0001 52.0002,41.5521 52.0002,41.0001 L52.0002,39.0001 C52.0002,36.5851 50.2792,34.5661 48.0002,34.1011" id="Fill-1"></path>
            <path d="M29.0002,10 L33.0002,10 C33.5532,10 34.0002,10.448 34.0002,11 C34.0002,11.552 33.5532,12 33.0002,12 L29.0002,12 C28.4472,12 28.0002,11.552 28.0002,11 C28.0002,10.448 28.4472,10 29.0002,10 L29.0002,10 Z M38.0002,14.062 L38.0002,9 C38.0002,7.346 36.6542,6 35.0002,6 L27.0002,6 C25.3462,6 24.0002,7.346 24.0002,9 L24.0002,14.062 L38.0002,14.062 Z" id="Fill-4"></path>
        </g>
    </g>
</svg>