<?xml version="1.0" encoding="UTF-8" standalone="no"?>
<svg width="64px" height="64px" viewBox="0 0 64 64" version="1.1" xmlns="http://www.w3.org/2000/svg" xmlns:xlink="http://www.w3.org/1999/xlink">
    <!-- Generator: Sketch 3.7.2 (28276) - http://www.bohemiancoding.com/sketch -->
    <title>spa-satellite</title>
    <desc>Created with Sketch.</desc>
    <defs></defs>
    <g id="64px-Glyph" stroke="none" stroke-width="1" fill="none" fill-rule="evenodd">
        <g id="spa-satellite" fill="#000000">
            <path d="M27.3644,36.6367 C25.6654,34.9367 23.4044,33.9997 21.0004,33.9997 C18.5964,33.9997 16.3364,34.9367 14.6354,36.6367 C14.4484,36.8237 14.3434,37.0777 14.3434,37.3437 C14.3434,37.6097 14.4484,37.8637 14.6354,38.0507 L19.5864,42.9997 L16.2934,46.2927 C15.9024,46.6837 15.9024,47.3167 16.2934,47.7067 C16.4884,47.9027 16.7444,47.9997 17.0004,47.9997 C17.2564,47.9997 17.5114,47.9027 17.7074,47.7067 L21.0004,44.4137 L25.9504,49.3637 C26.1454,49.5587 26.4014,49.6567 26.6574,49.6567 C26.9134,49.6567 27.1694,49.5587 27.3644,49.3637 C29.0644,47.6637 30.0004,45.4047 30.0004,42.9997 C30.0004,40.5957 29.0644,38.3357 27.3644,36.6367" id="Fill-279"></path>
            <path d="M19.0002,52 C15.1412,52 12.0002,48.859 12.0002,45 C12.0002,44.447 12.4472,44 13.0002,44 C13.5532,44 14.0002,44.447 14.0002,45 C14.0002,47.757 16.2432,50 19.0002,50 C19.5532,50 20.0002,50.447 20.0002,51 C20.0002,51.553 19.5532,52 19.0002,52" id="Fill-280"></path>
            <path d="M19.0002,56 C12.9352,56 8.0002,51.065 8.0002,45 C8.0002,44.447 8.4472,44 9.0002,44 C9.5532,44 10.0002,44.447 10.0002,45 C10.0002,49.963 14.0372,54 19.0002,54 C19.5532,54 20.0002,54.447 20.0002,55 C20.0002,55.553 19.5532,56 19.0002,56" id="Fill-281"></path>
            <path d="M19.0002,60 C10.7282,60 4.0002,53.272 4.0002,45 C4.0002,44.447 4.4472,44 5.0002,44 C5.5532,44 6.0002,44.447 6.0002,45 C6.0002,52.168 11.8322,58 19.0002,58 C19.5532,58 20.0002,58.447 20.0002,59 C20.0002,59.553 19.5532,60 19.0002,60" id="Fill-282"></path>
            <path d="M59.7072,38.293 L49.7072,28.293 C49.3162,27.902 48.6842,27.902 48.2932,28.293 L44.0002,32.586 L42.6562,31.242 L47.9492,25.949 C49.2722,24.628 50.0002,22.87 50.0002,21 C50.0002,19.13 49.2722,17.372 47.9492,16.051 C46.6282,14.728 44.8702,14 43.0002,14 C41.1302,14 39.3722,14.728 38.0512,16.051 L32.7952,21.307 L31.4512,19.963 L35.7072,15.707 C36.0982,15.316 36.0982,14.684 35.7072,14.293 L25.7072,4.293 C25.3162,3.902 24.6842,3.902 24.2932,4.293 L14.2932,14.293 C13.9022,14.684 13.9022,15.316 14.2932,15.707 L24.2932,25.707 C24.4882,25.902 24.7442,26 25.0002,26 C25.2562,26 25.5122,25.902 25.7072,25.707 L30.0372,21.377 L31.3812,22.721 L28.0512,26.051 C26.7282,27.372 26.0002,29.13 26.0002,31 C26.0002,32.87 26.7282,34.628 28.0512,35.949 C29.3722,37.272 31.1302,38 33.0002,38 C34.8702,38 36.6282,37.272 37.9492,35.949 L41.2422,32.656 L42.5862,34 L38.2932,38.293 C37.9022,38.684 37.9022,39.316 38.2932,39.707 L48.2932,49.707 C48.4882,49.902 48.7442,50 49.0002,50 C49.2562,50 49.5122,49.902 49.7072,49.707 L59.7072,39.707 C60.0982,39.316 60.0982,38.684 59.7072,38.293" id="Fill-283"></path>
        </g>
    </g>
</svg>