<?xml version="1.0" encoding="UTF-8" standalone="no"?>
<svg width="44px" height="44px" viewBox="0 0 44 44" version="1.1" xmlns="http://www.w3.org/2000/svg" xmlns:xlink="http://www.w3.org/1999/xlink">
    <!-- Generator: Sketch 3.7.2 (28276) - http://www.bohemiancoding.com/sketch -->
    <title>spo-baseball</title>
    <desc>Created with Sketch.</desc>
    <defs></defs>
    <g id="44px-Glyph" stroke="none" stroke-width="1" fill="none" fill-rule="evenodd">
        <g id="spo-baseball" fill="#000000">
            <path d="M36.2771,8.636 L35.5081,9.318 C34.6611,10.131 33.9111,11.032 33.2501,12 L34.0001,12 C34.5531,12 35.0001,12.448 35.0001,13 C35.0001,13.552 34.5531,14 34.0001,14 L32.0761,14 C31.7511,14.643 31.4701,15.313 31.2201,16 L33.0901,16 C33.6431,16 34.0901,16.448 34.0901,17 C34.0901,17.552 33.6431,18 33.0901,18 L30.6151,18 C30.4551,18.653 30.3271,19.32 30.2311,20 L32.1171,20 C32.6701,20 33.1171,20.448 33.1171,21 C33.1171,21.552 32.6701,22 32.1171,22 L30.0461,22 C30.0301,22.334 30.0001,22.662 30.0001,23 C30.0001,23.338 30.0301,23.667 30.0461,24 L32.1171,24 C32.6701,24 33.1171,24.448 33.1171,25 C33.1171,25.552 32.6701,26 32.1171,26 L30.2311,26 C30.3271,26.68 30.4551,27.347 30.6161,28 L33.0901,28 C33.6431,28 34.0901,28.448 34.0901,29 C34.0901,29.552 33.6431,30 33.0901,30 L31.2221,30 C31.4731,30.687 31.7541,31.356 32.0801,32 L34.0001,32 C34.5531,32 35.0001,32.448 35.0001,33 C35.0001,33.552 34.5531,34 34.0001,34 L33.2541,34 C33.9211,34.976 34.6801,35.886 35.5371,36.709 L36.2771,37.364 C39.8141,33.604 42.0001,28.558 42.0001,23 C42.0001,17.442 39.8141,12.396 36.2771,8.636" id="Fill-152"></path>
            <path d="M6.4912,36.6821 C7.3382,35.8691 8.0882,34.9681 8.7502,34.0001 L7.0002,34.0001 C6.4472,34.0001 6.0002,33.5521 6.0002,33.0001 C6.0002,32.4481 6.4472,32.0001 7.0002,32.0001 L9.9232,32.0001 C10.2482,31.3571 10.5292,30.6871 10.7802,30.0001 L7.9102,30.0001 C7.3572,30.0001 6.9102,29.5521 6.9102,29.0001 C6.9102,28.4481 7.3572,28.0001 7.9102,28.0001 L11.3852,28.0001 C11.5452,27.3471 11.6732,26.6801 11.7692,26.0001 L8.8832,26.0001 C8.3302,26.0001 7.8832,25.5521 7.8832,25.0001 C7.8832,24.4481 8.3302,24.0001 8.8832,24.0001 L11.9542,24.0001 C11.9692,23.6661 12.0002,23.3381 12.0002,23.0001 C12.0002,22.6621 11.9692,22.3331 11.9542,22.0001 L8.8832,22.0001 C8.3302,22.0001 7.8832,21.5521 7.8832,21.0001 C7.8832,20.4481 8.3302,20.0001 8.8832,20.0001 L11.7692,20.0001 C11.6732,19.3201 11.5452,18.6531 11.3842,18.0001 L7.9102,18.0001 C7.3572,18.0001 6.9102,17.5521 6.9102,17.0001 C6.9102,16.4481 7.3572,16.0001 7.9102,16.0001 L10.7782,16.0001 C10.5272,15.3131 10.2452,14.6441 9.9192,14.0001 L7.0002,14.0001 C6.4472,14.0001 6.0002,13.5521 6.0002,13.0001 C6.0002,12.4481 6.4472,12.0001 7.0002,12.0001 L8.7462,12.0001 C8.0782,11.0241 7.3202,10.1131 6.4632,9.2911 L5.7232,8.6351 C2.1862,12.3961 0.0002,17.4421 0.0002,23.0001 C0.0002,28.5571 2.1852,33.6031 5.7222,37.3631 L6.4912,36.6821 Z" id="Fill-153"></path>
            <path d="M34.1816,38.1792 C32.8916,36.9412 31.8116,35.5282 30.9116,34.0002 L28.2816,34.0002 C27.7286,34.0002 27.2816,33.5522 27.2816,33.0002 C27.2816,32.4482 27.7286,32.0002 28.2816,32.0002 L29.8786,32.0002 C29.5886,31.3502 29.3306,30.6842 29.1076,30.0002 L26.7906,30.0002 C26.2386,30.0002 25.7906,29.5522 25.7906,29.0002 C25.7906,28.4482 26.2386,28.0002 26.7906,28.0002 L28.5616,28.0002 C28.4156,27.3442 28.3006,26.6782 28.2136,26.0002 L26.0856,26.0002 C25.5336,26.0002 25.0856,25.5522 25.0856,25.0002 C25.0856,24.4482 25.5336,24.0002 26.0856,24.0002 L28.0466,24.0002 C28.0316,23.6662 27.9996,23.3382 27.9996,23.0002 C27.9996,22.6622 28.0316,22.3342 28.0456,22.0002 L25.9996,22.0002 C25.4476,22.0002 24.9996,21.5522 24.9996,21.0002 C24.9996,20.4482 25.4476,20.0002 25.9996,20.0002 L28.2136,20.0002 C28.3006,19.3222 28.4146,18.6552 28.5606,18.0002 L26.7906,18.0002 C26.2386,18.0002 25.7906,17.5522 25.7906,17.0002 C25.7906,16.4482 26.2386,16.0002 26.7906,16.0002 L29.1056,16.0002 C29.3286,15.3162 29.5866,14.6492 29.8756,14.0002 L28.2826,14.0002 C27.7296,14.0002 27.2826,13.5522 27.2826,13.0002 C27.2826,12.4482 27.7296,12.0002 28.2826,12.0002 L30.9076,12.0002 C31.8026,10.4792 32.8736,9.0752 34.1526,7.8472 L34.8356,7.2422 C31.1356,3.9902 26.3016,2.0002 20.9996,2.0002 C15.6986,2.0002 10.8646,3.9902 7.1656,7.2422 L7.8186,7.8212 C9.1086,9.0592 10.1886,10.4722 11.0886,12.0002 L12.7176,12.0002 C13.2706,12.0002 13.7176,12.4482 13.7176,13.0002 C13.7176,13.5522 13.2706,14.0002 12.7176,14.0002 L12.1216,14.0002 C12.4116,14.6492 12.6696,15.3162 12.8926,16.0002 L14.2086,16.0002 C14.7616,16.0002 15.2086,16.4482 15.2086,17.0002 C15.2086,17.5522 14.7616,18.0002 14.2086,18.0002 L13.4386,18.0002 C13.5846,18.6552 13.6996,19.3222 13.7866,20.0002 L14.9996,20.0002 C15.5526,20.0002 15.9996,20.4482 15.9996,21.0002 C15.9996,21.5522 15.5526,22.0002 14.9996,22.0002 L13.9536,22.0002 C13.9676,22.3342 13.9996,22.6622 13.9996,23.0002 C13.9996,23.3382 13.9676,23.6662 13.9536,24.0002 L14.9146,24.0002 C15.4666,24.0002 15.9146,24.4482 15.9146,25.0002 C15.9146,25.5522 15.4666,26.0002 14.9146,26.0002 L13.7866,26.0002 C13.6996,26.6782 13.5846,27.3442 13.4396,28.0002 L14.2086,28.0002 C14.7616,28.0002 15.2086,28.4482 15.2086,29.0002 C15.2086,29.5522 14.7616,30.0002 14.2086,30.0002 L12.8936,30.0002 C12.6706,30.6842 12.4136,31.3502 12.1236,32.0002 L12.7186,32.0002 C13.2716,32.0002 13.7186,32.4482 13.7186,33.0002 C13.7186,33.5522 13.2716,34.0002 12.7186,34.0002 L11.0916,34.0002 C10.1966,35.5202 9.1256,36.9252 7.8466,38.1522 L7.1646,38.7572 C10.8636,42.0102 15.6986,44.0002 20.9996,44.0002 C26.3006,44.0002 31.1356,42.0102 34.8346,38.7582 L34.1816,38.1792 Z" id="Fill-154"></path>
        </g>
    </g>
</svg>