<?xml version="1.0" encoding="UTF-8" standalone="no"?>
<svg width="44px" height="44px" viewBox="0 0 44 44" version="1.1" xmlns="http://www.w3.org/2000/svg" xmlns:xlink="http://www.w3.org/1999/xlink">
    <!-- Generator: Sketch 3.7.2 (28276) - http://www.bohemiancoding.com/sketch -->
    <title>spo-archery</title>
    <desc>Created with Sketch.</desc>
    <defs></defs>
    <g id="44px-Glyph" stroke="none" stroke-width="1" fill="none" fill-rule="evenodd">
        <g id="spo-archery" fill="#000000">
            <path d="M43.5547,20.168 L37.5547,16.168 C37.2477,15.963 36.8527,15.944 36.5287,16.118 C36.2027,16.293 35.9997,16.631 35.9997,17 L35.9997,20 L32.9757,20 C32.4607,7.183 22.2177,0.446 21.7717,0.159 C21.3057,-0.139 20.6877,-0.006 20.3897,0.46 C20.1117,0.891 20.2217,1.444 20.6077,1.762 L8.5807,14 L8.9997,14 C9.6557,14 10.2737,14.219 10.7887,14.606 L22.1977,2.997 C24.9567,5.321 30.5757,11.114 30.9747,20 L13.4137,20 L9.7067,16.293 C9.5197,16.106 9.2657,16 8.9997,16 L0.9997,16 C0.5957,16 0.2307,16.244 0.0757,16.617 C-0.0793,16.991 0.0067,17.421 0.2927,17.707 L3.5857,21 L0.2927,24.293 C0.0067,24.579 -0.0793,25.009 0.0757,25.383 C0.2307,25.756 0.5957,26 0.9997,26 L8.9997,26 C9.2657,26 9.5197,25.895 9.7067,25.707 L13.4137,22 L30.9747,22 C30.5747,30.864 24.9537,36.67 22.1947,39 L10.7887,27.394 C10.2737,27.781 9.6557,28 8.9997,28 L8.5807,28 L20.6077,40.238 C20.2217,40.556 20.1127,41.111 20.3907,41.542 C20.5817,41.838 20.9037,42 21.2317,42 C21.4167,42 21.6037,41.949 21.7717,41.841 C22.2177,41.554 32.4607,34.817 32.9757,22 L35.9997,22 L35.9997,25 C35.9997,25.369 36.2027,25.708 36.5287,25.882 C36.6757,25.961 36.8377,26 36.9997,26 C37.1947,26 37.3877,25.943 37.5547,25.832 L43.5547,21.832 C43.8327,21.647 43.9997,21.335 43.9997,21 C43.9997,20.666 43.8327,20.354 43.5547,20.168" id="Fill-22"></path>
        </g>
    </g>
</svg>