<?xml version="1.0" encoding="UTF-8" standalone="no"?>
<svg width="64px" height="64px" viewBox="0 0 64 64" version="1.1" xmlns="http://www.w3.org/2000/svg" xmlns:xlink="http://www.w3.org/1999/xlink">
    <!-- Generator: Sketch 3.7.2 (28276) - http://www.bohemiancoding.com/sketch -->
    <title>spo-tennis-court</title>
    <desc>Created with Sketch.</desc>
    <defs></defs>
    <g id="64px-Line" stroke="none" stroke-width="1" fill="none" fill-rule="evenodd">
        <g id="spo-tennis-court"></g>
        <path d="M32,54.184 L32,54 C32,53.447 31.553,53 31,53 C30.447,53 30,53.447 30,54 L30,54.184 C28.839,54.598 28,55.698 28,57 C28,58.654 29.346,60 31,60 C32.654,60 34,58.654 34,57 C34,55.698 33.161,54.598 32,54.184 L32,54.184 Z M31,58 C30.448,58 30,57.552 30,57 C30,56.448 30.448,56 31,56 C31.552,56 32,56.448 32,57 C32,57.552 31.552,58 31,58 L31,58 Z" id="Shape" fill="#000000"></path>
        <path d="M57,14 L5,14 C4.447,14 4,14.447 4,15 L4,51 C4,51.553 4.447,52 5,52 L57,52 C57.553,52 58,51.553 58,51 L58,15 C58,14.447 57.553,14 57,14 L57,14 Z M31.847,44 C31.936,43.851 32,43.686 32,43.5 L32,41.4 C32,40.847 31.553,40.4 31,40.4 C30.447,40.4 30,40.847 30,41.4 L30,43.5 C30,43.686 30.065,43.851 30.153,44 L18,44 L18,34 L44,34 L44,44 L31.847,44 L31.847,44 Z M6,44 L6,22 L16,22 L16,44 L6,44 L6,44 Z M30.153,22 C30.064,22.149 30,22.314 30,22.5 L30,24.601 C30,25.154 30.447,25.601 31,25.601 C31.553,25.601 32,25.154 32,24.601 L32,22.5 C32,22.314 31.935,22.149 31.847,22 L44,22 L44,32 L18,32 L18,22 L30.153,22 L30.153,22 Z M46,22 L56,22 L56,44 L46,44 L46,22 L46,22 Z M30.04,16 C30.026,16.067 30,16.129 30,16.2 L30,18.3 C30,18.853 30.447,19.3 31,19.3 C31.553,19.3 32,18.853 32,18.3 L32,16.2 C32,16.129 31.974,16.067 31.96,16 L56,16 L56,20 L6,20 L6,16 L30.04,16 L30.04,16 Z M31.96,50 C31.974,49.933 32,49.871 32,49.8 L32,47.7 C32,47.147 31.553,46.7 31,46.7 C30.447,46.7 30,47.147 30,47.7 L30,49.8 C30,49.871 30.026,49.933 30.04,50 L6,50 L6,46 L56,46 L56,50 L31.96,50 L31.96,50 Z" id="Shape" fill="#000000"></path>
        <path d="M31,13 C31.553,13 32,12.553 32,12 L32,11.816 C33.161,11.402 34,10.302 34,9 C34,7.346 32.654,6 31,6 C29.346,6 28,7.346 28,9 C28,10.302 28.839,11.402 30,11.816 L30,12 C30,12.553 30.447,13 31,13 L31,13 Z M31,8 C31.552,8 32,8.448 32,9 C32,9.552 31.552,10 31,10 C30.448,10 30,9.552 30,9 C30,8.448 30.448,8 31,8 L31,8 Z" id="Shape" fill="#000000"></path>
        <path d="M31,34.101 C30.447,34.101 30,34.548 30,35.101 L30,37.201 C30,37.754 30.447,38.201 31,38.201 C31.553,38.201 32,37.754 32,37.201 L32,35.101 C32,34.548 31.553,34.101 31,34.101 L31,34.101 Z" id="Shape" fill="#000000"></path>
        <path d="M31,31.9 C31.553,31.9 32,31.453 32,30.9 L32,28.8 C32,28.247 31.553,27.8 31,27.8 C30.447,27.8 30,28.247 30,28.8 L30,30.901 C30,31.453 30.447,31.9 31,31.9 L31,31.9 Z" id="Shape" fill="#000000"></path>
    </g>
</svg>