<?xml version="1.0" encoding="UTF-8" standalone="no"?>
<svg width="64px" height="64px" viewBox="0 0 64 64" version="1.1" xmlns="http://www.w3.org/2000/svg" xmlns:xlink="http://www.w3.org/1999/xlink">
    <!-- Generator: Sketch 3.7.2 (28276) - http://www.bohemiancoding.com/sketch -->
    <title>spo-studs</title>
    <desc>Created with Sketch.</desc>
    <defs></defs>
    <g id="64px-Line" stroke="none" stroke-width="1" fill="none" fill-rule="evenodd">
        <g id="spo-studs"></g>
        <path d="M56.425,37.803 L49.248,34.44 C46.637,33.329 44.195,31.11 42.935,29.407 L38.646,23.583 C37.737,22.516 36.21,22.223 34.935,22.872 C32.757,23.98 25.745,24.272 22.335,23.059 C19.439,22.03 17.015,18.388 16.78,15.82 C16.703,14.974 16.122,14.287 15.3,14.069 C14.475,13.852 13.622,14.161 13.112,14.895 L6.159,25.737 C5.579,26.568 5.337,27.569 5.475,28.554 C5.584,29.332 5.797,30.364 6.209,31.486 L4.39,34.031 C3.737,34.92 3.929,36.175 4.817,36.827 L6.429,38.012 C6.784,38.274 7.199,38.4 7.609,38.4 C8.225,38.4 8.834,38.116 9.227,37.581 L9.87,36.696 C10.021,36.818 10.171,36.941 10.332,37.058 C10.614,37.263 10.902,37.435 11.19,37.608 L10.66,38.355 C10.008,39.243 10.198,40.498 11.086,41.151 L12.698,42.336 C13.052,42.597 13.466,42.723 13.877,42.723 C14.494,42.723 15.106,42.438 15.503,41.898 L17.312,39.362 C17.922,39.388 18.5,39.382 19.019,39.348 L19.02,39.348 C20.446,39.256 21.836,39.646 22.9,40.414 L30.887,46.753 C31.821,47.402 32.886,47.797 34.001,47.938 L34.001,50 C34.001,51.103 34.898,52 36.001,52 L38.001,52 C39.104,52 40.001,51.103 40.001,50 L40.001,48 L42.001,48 L42.001,50 C42.001,51.103 42.898,52 44.001,52 L46.001,52 C47.104,52 48.001,51.103 48.001,50 L48.001,48 L50.001,48 L50.001,50 C50.001,51.103 50.898,52 52.001,52 L54.001,52 C55.104,52 56.001,51.103 56.001,50 L56.001,48 C58.207,48 60.001,46.206 60.001,44 L60.001,42.99 C60,40.685 58.493,38.537 56.425,37.803 L56.425,37.803 Z M6.008,35.203 L7.185,33.557 C7.528,34.143 7.936,34.726 8.419,35.287 L7.612,36.398 L6.008,35.203 L6.008,35.203 Z M13.882,40.721 L12.28,39.523 L13.013,38.49 C13.697,38.752 14.38,38.952 15.047,39.087 L13.882,40.721 L13.882,40.721 Z M38,50 L36,50 L36,48 L38,48 L38,50 L38,50 Z M46,50 L44,50 L44,48 L46,48 L46,50 L46,50 Z M54,50 L52,50 L52,48 L54,48 L54,50 L54,50 Z M58,44 C58,45.103 57.103,46 56,46 L34.879,46 C33.855,46 32.868,45.691 32.078,45.145 L24.107,38.818 C22.771,37.85 21.127,37.332 19.424,37.332 C19.246,37.332 19.069,37.337 18.891,37.349 C16.899,37.474 13.993,37.246 11.506,35.439 C8.554,33.292 7.7,30.03 7.454,28.276 C7.386,27.792 7.508,27.297 7.819,26.848 L14.788,16 C15.084,19.243 17.918,23.61 21.665,24.942 C25.338,26.248 33.022,26.088 35.842,24.653 C36.289,24.424 36.816,24.517 37.078,24.823 L37.368,25.217 L34.293,28.292 C33.902,28.683 33.902,29.315 34.293,29.706 C34.488,29.901 34.744,29.999 35,29.999 C35.256,29.999 35.512,29.901 35.707,29.706 L38.567,26.846 L39.912,28.673 L37.293,31.292 C36.902,31.683 36.902,32.315 37.293,32.706 C37.488,32.901 37.744,32.999 38,32.999 C38.256,32.999 38.512,32.901 38.707,32.706 L41.111,30.302 L41.325,30.593 C41.688,31.083 42.105,31.565 42.549,32.036 L40.293,34.292 C39.902,34.683 39.902,35.315 40.293,35.706 C40.488,35.901 40.744,35.999 41,35.999 C41.256,35.999 41.512,35.901 41.707,35.706 L43.997,33.416 C45.388,34.613 46.946,35.632 48.432,36.264 L55.664,39.649 C57.018,40.132 58,41.538 58,42.99 L58,44 L58,44 Z" id="Shape" fill="#000000"></path>
    </g>
</svg>