<?xml version="1.0" encoding="UTF-8" standalone="no"?>
<svg width="44px" height="44px" viewBox="0 0 44 44" version="1.1" xmlns="http://www.w3.org/2000/svg" xmlns:xlink="http://www.w3.org/1999/xlink">
    <!-- Generator: Sketch 3.7.2 (28276) - http://www.bohemiancoding.com/sketch -->
    <title>spo-basketball</title>
    <desc>Created with Sketch.</desc>
    <defs></defs>
    <g id="44px-Glyph" stroke="none" stroke-width="1" fill="none" fill-rule="evenodd">
        <g id="spo-basketball" fill="#000000">
            <path d="M12.2578,21.999 C12.0088,17.159 9.9888,12.675 6.4628,9.291 L5.7298,8.628 C2.4038,12.161 0.2958,16.835 0.0508,21.999 L12.2578,21.999 Z" id="Fill-138"></path>
            <path d="M12.2579,23.999 L0.0509,23.999 C0.2949,29.164 2.4029,33.838 5.7299,37.371 L6.4829,36.689 C9.9899,33.323 12.0089,28.84 12.2579,23.999" id="Fill-139"></path>
            <path d="M35.5371,36.709 L36.2651,37.377 C39.5951,33.844 41.7041,29.166 41.9491,23.999 L29.7421,23.999 C29.9911,28.839 32.0111,33.324 35.5371,36.709" id="Fill-140"></path>
            <path d="M34.8352,7.2423 C31.3712,4.1973 26.9072,2.2833 22.0002,2.0503 L22.0002,21.9993 L27.7422,21.9993 C27.9932,16.6093 30.2292,11.6133 34.1522,7.8473 L34.8352,7.2423 Z" id="Fill-141"></path>
            <path d="M35.5078,9.3179 C32.0098,12.6769 29.9908,17.1589 29.7418,21.9989 L41.9488,21.9989 C41.7038,16.8389 39.5998,12.1679 36.2768,8.6359 L35.5078,9.3179 Z" id="Fill-142"></path>
            <path d="M34.168,38.1675 C30.23,34.3875 27.992,29.3895 27.742,23.9985 L22,23.9985 L22,43.9495 C26.901,43.7165 31.361,41.8075 34.823,38.7685 L34.168,38.1675 Z" id="Fill-143"></path>
            <path d="M7.8262,7.8276 C11.7692,11.6116 14.0072,16.6096 14.2582,21.9986 L20.0002,21.9986 L20.0002,2.0506 C15.0962,2.2836 10.6352,4.1946 7.1722,7.2356 L7.8262,7.8276 Z" id="Fill-144"></path>
            <path d="M20,23.999 L14.258,23.999 C14.008,29.39 11.77,34.387 7.847,38.152 L7.171,38.764 C10.634,41.805 15.096,43.717 20,43.949 L20,23.999 Z" id="Fill-145"></path>
        </g>
    </g>
</svg>