<?xml version="1.0" encoding="UTF-8" standalone="no"?>
<svg width="64px" height="64px" viewBox="0 0 64 64" version="1.1" xmlns="http://www.w3.org/2000/svg" xmlns:xlink="http://www.w3.org/1999/xlink">
    <!-- Generator: Sketch 3.7.2 (28276) - http://www.bohemiancoding.com/sketch -->
    <title>spo-tennis</title>
    <desc>Created with Sketch.</desc>
    <defs></defs>
    <g id="64px-Line" stroke="none" stroke-width="1" fill="none" fill-rule="evenodd">
        <g id="spo-tennis"></g>
        <path d="M37.968,43.206 C42.668,42.497 47.262,40.112 50.967,36.408 C59.026,28.349 60.339,16.55 53.895,10.105 C47.452,3.66 35.651,4.974 27.592,13.033 C23.876,16.749 21.487,21.361 20.786,26.077 C20.781,26.108 20.764,26.134 20.761,26.166 C20.759,26.2 20.755,26.243 20.752,26.278 C20.734,26.41 20.702,26.542 20.687,26.674 C20.636,27.11 20.619,27.537 20.598,27.966 C20.155,32.091 18.949,39.244 16.612,41.582 L4.9,53.295 C3.703,54.492 3.703,56.44 4.9,57.637 L6.364,59.101 C6.963,59.7 7.749,59.999 8.535,59.999 C9.321,59.999 10.107,59.699 10.706,59.101 L22.418,47.389 C24.728,45.079 31.738,43.876 35.885,43.422 C36.361,43.402 36.84,43.37 37.326,43.313 C37.443,43.299 37.559,43.271 37.676,43.255 C37.727,43.251 37.788,43.246 37.837,43.243 C37.884,43.239 37.923,43.216 37.968,43.206 L37.968,43.206 Z M29.006,14.447 C36.285,7.168 46.816,5.854 52.481,11.519 C58.145,17.184 56.832,27.714 49.553,34.994 C46.101,38.446 41.83,40.652 37.486,41.262 C37.19,41.285 36.628,41.331 35.876,41.411 C31.986,41.585 28.536,40.379 26.078,37.922 C23.635,35.479 22.424,32.058 22.584,28.194 C22.671,27.383 22.721,26.784 22.743,26.491 C23.357,22.155 25.56,17.893 29.006,14.447 L29.006,14.447 Z M21.77,45.327 L18.673,42.23 C20.031,40.372 20.958,37.401 21.582,34.522 C22.273,36.331 23.293,37.966 24.663,39.336 C26.027,40.7 27.644,41.735 29.443,42.426 C26.575,43.049 23.62,43.975 21.77,45.327 L21.77,45.327 Z M9.292,57.687 C8.875,58.105 8.196,58.105 7.778,57.687 L6.314,56.223 C5.897,55.806 5.897,55.126 6.314,54.709 L17.319,43.703 L20.297,46.681 L9.292,57.687 L9.292,57.687 Z" id="Shape" fill="#000000"></path>
        <path d="M50,44 C45.589,44 42,47.589 42,52 C42,56.411 45.589,60 50,60 C54.411,60 58,56.411 58,52 C58,47.589 54.411,44 50,44 L50,44 Z M50,58 C46.691,58 44,55.309 44,52 C44,48.691 46.691,46 50,46 C53.309,46 56,48.691 56,52 C56,55.309 53.309,58 50,58 L50,58 Z" id="Shape" fill="#000000"></path>
    </g>
</svg>