<?xml version="1.0" encoding="UTF-8" standalone="no"?>
<svg width="64px" height="64px" viewBox="0 0 64 64" version="1.1" xmlns="http://www.w3.org/2000/svg" xmlns:xlink="http://www.w3.org/1999/xlink">
    <!-- Generator: Sketch 3.7.2 (28276) - http://www.bohemiancoding.com/sketch -->
    <title>spo-flag</title>
    <desc>Created with Sketch.</desc>
    <defs></defs>
    <g id="64px-Line" stroke="none" stroke-width="1" fill="none" fill-rule="evenodd">
        <g id="spo-flag"></g>
        <path d="M36.871,33.667 C37.419,34.045 37.786,34.621 37.906,35.288 C38.122,36.485 38.786,37.519 39.776,38.203 C40.746,38.871 41.914,39.121 43.066,38.905 L53.184,37.009 C53.724,36.908 54.08,36.39 53.984,35.849 L49.444,10.608 C49.397,10.346 49.247,10.113 49.027,9.962 C48.808,9.811 48.54,9.756 48.275,9.802 L40.507,11.257 L40.506,11.257 L40.505,11.257 L38.158,11.697 C37.529,11.814 36.898,11.678 36.372,11.315 C35.823,10.937 35.455,10.361 35.335,9.695 L35.335,9.694 L35.335,9.693 C35.12,8.497 34.456,7.462 33.466,6.78 C32.496,6.111 31.327,5.862 30.175,6.077 L25.399,6.972 L25.398,6.972 L25.397,6.972 L8.816,10.079 C8.555,10.128 8.325,10.278 8.175,10.497 C8.025,10.716 7.968,10.985 8.018,11.246 L11.128,27.816 L11.128,27.819 C11.128,27.82 11.129,27.821 11.129,27.822 L12.778,36.607 C12.779,36.611 12.78,36.616 12.781,36.62 L17.017,59.184 C17.107,59.664 17.527,59.999 17.998,59.999 C18.059,59.999 18.121,59.994 18.184,59.982 C18.727,59.88 19.084,59.357 18.982,58.815 L14.928,37.22 L35.081,33.283 C35.706,33.167 36.343,33.303 36.871,33.667 L36.871,33.667 Z M21.307,24.899 L20.144,18.432 L26.237,17.29 L27.401,23.759 L21.307,24.899 L21.307,24.899 Z M27.755,25.728 L28.963,32.442 L22.878,33.631 L21.662,26.868 L27.755,25.728 L27.755,25.728 Z M11.698,20.015 L18.177,18.801 L19.34,25.267 L12.909,26.469 L11.698,20.015 L11.698,20.015 Z M19.79,16.464 L18.675,10.266 L24.768,9.124 L25.883,15.322 L19.79,16.464 L19.79,16.464 Z M28.203,16.922 L32.082,16.195 C32.708,16.078 33.342,16.215 33.87,16.578 C34.257,16.846 34.549,17.215 34.732,17.643 L35.699,23.02 C34.885,22.647 33.983,22.525 33.089,22.695 L29.366,23.391 L28.203,16.922 L28.203,16.922 Z M50.287,26.59 L44.476,27.679 L43.312,21.209 L49.124,20.124 L50.287,26.59 L50.287,26.59 Z M42.51,28.047 L41.073,28.316 C40.446,28.432 39.813,28.296 39.286,27.934 C38.899,27.667 38.609,27.299 38.425,26.872 L37.457,21.492 C38.024,21.751 38.633,21.891 39.254,21.891 C39.524,21.891 39.794,21.866 40.065,21.815 L41.345,21.576 L42.51,28.047 L42.51,28.047 Z M42.698,36.938 C42.07,37.054 41.439,36.918 40.912,36.556 C40.363,36.178 39.995,35.601 39.875,34.933 L38.992,30.022 C39.514,30.236 40.066,30.357 40.63,30.357 C40.9,30.357 41.171,30.332 41.442,30.281 L42.865,30.014 L44.064,36.681 L42.698,36.938 L42.698,36.938 Z M46.03,36.314 L44.831,29.647 L50.642,28.558 L51.841,35.224 L46.03,36.314 L46.03,36.314 Z M48.77,18.155 L42.958,19.24 L41.843,13.04 L47.654,11.952 L48.77,18.155 L48.77,18.155 Z M38.526,13.662 L39.876,13.409 L40.991,19.608 L39.697,19.85 C39.069,19.967 38.437,19.83 37.91,19.468 C37.362,19.09 36.994,18.514 36.874,17.847 C36.829,17.598 36.754,17.36 36.671,17.127 L35.997,13.382 C36.79,13.723 37.662,13.823 38.526,13.662 L38.526,13.662 Z M30.544,8.041 C31.167,7.924 31.803,8.06 32.33,8.424 C32.878,8.802 33.246,9.379 33.366,10.048 L33.366,10.049 L34.164,14.485 C33.393,14.169 32.55,14.073 31.714,14.23 L27.849,14.954 L26.734,8.756 L30.544,8.041 L30.544,8.041 Z M16.709,10.634 L17.824,16.832 L11.33,18.049 L10.168,11.859 L16.709,10.634 L16.709,10.634 Z M14.56,35.255 L13.279,28.434 L19.695,27.234 L20.914,34.013 L14.56,35.255 L14.56,35.255 Z M30.926,32.058 L29.721,25.36 L33.457,24.662 C34.084,24.544 34.718,24.682 35.245,25.046 C35.794,25.424 36.161,26 36.281,26.669 C36.326,26.92 36.402,27.159 36.486,27.394 L37.244,31.61 C36.7,31.375 36.119,31.244 35.525,31.244 C35.254,31.244 34.98,31.269 34.707,31.32 L30.926,32.058 L30.926,32.058 Z" id="Shape" fill="#000000"></path>
    </g>
</svg>