<?xml version="1.0" encoding="UTF-8" standalone="no"?>
<svg width="64px" height="64px" viewBox="0 0 64 64" version="1.1" xmlns="http://www.w3.org/2000/svg" xmlns:xlink="http://www.w3.org/1999/xlink">
    <!-- Generator: Sketch 3.7.2 (28276) - http://www.bohemiancoding.com/sketch -->
    <title>spo-golf</title>
    <desc>Created with Sketch.</desc>
    <defs></defs>
    <g id="64px-Line" stroke="none" stroke-width="1" fill="none" fill-rule="evenodd">
        <g id="spo-golf"></g>
        <path d="M31,60 C46.14,60 58,54.29 58,47 C58,43.281 54.947,39.881 49.404,37.426 C48.901,37.203 48.309,37.43 48.085,37.936 C47.861,38.441 48.089,39.031 48.595,39.255 C53.301,41.339 56,44.163 56,47 C56,52.962 44.551,58 31,58 C17.449,58 6,52.962 6,47 C6,41.038 17.449,36 31,36 C34.402,36 37.703,36.303 40.811,36.902 C41.356,37.006 41.878,36.652 41.982,36.109 C42.086,35.567 41.732,35.043 41.189,34.938 C37.957,34.315 34.529,34 31,34 C15.86,34 4,39.71 4,47 C4,54.29 15.86,60 31,60 L31,60 Z" id="Shape" fill="#000000"></path>
        <path d="M18,46 C18,48.206 19.794,50 22,50 C24.206,50 26,48.206 26,46 C26,43.794 24.206,42 22,42 C19.794,42 18,43.794 18,46 L18,46 Z M24,46 C24,47.103 23.103,48 22,48 C20.897,48 20,47.103 20,46 C20,44.897 20.897,44 22,44 C23.103,44 24,44.897 24,46 L24,46 Z" id="Shape" fill="#000000"></path>
        <path d="M45,50 C45.552,50 46,49.552 46,49 L46,7 C46,6.973 45.987,6.951 45.985,6.925 C45.98,6.858 45.964,6.795 45.945,6.729 C45.926,6.664 45.906,6.602 45.875,6.543 C45.863,6.52 45.862,6.494 45.848,6.471 C45.828,6.439 45.796,6.421 45.773,6.392 C45.73,6.338 45.687,6.289 45.634,6.245 C45.584,6.203 45.533,6.17 45.477,6.139 C45.422,6.109 45.368,6.083 45.307,6.063 C45.241,6.041 45.175,6.03 45.106,6.022 C45.07,6.017 45.038,6 45,6 C44.973,6 44.951,6.013 44.925,6.015 C44.858,6.02 44.795,6.036 44.729,6.055 C44.663,6.074 44.602,6.094 44.542,6.125 C44.519,6.137 44.493,6.138 44.47,6.152 L28.47,16.152 C28.163,16.344 27.984,16.686 28.001,17.048 C28.018,17.41 28.23,17.733 28.553,17.895 L44,25.618 L44,49 C44,49.552 44.448,50 45,50 L45,50 Z M31.042,16.903 L44,8.804 L44,23.382 L31.042,16.903 L31.042,16.903 Z" id="Shape" fill="#000000"></path>
    </g>
</svg>