<?xml version="1.0" encoding="UTF-8" standalone="no"?>
<svg width="64px" height="64px" viewBox="0 0 64 64" version="1.1" xmlns="http://www.w3.org/2000/svg" xmlns:xlink="http://www.w3.org/1999/xlink">
    <!-- Generator: Sketch 3.7.2 (28276) - http://www.bohemiancoding.com/sketch -->
    <title>spo-hoop</title>
    <desc>Created with Sketch.</desc>
    <defs></defs>
    <g id="64px-Line" stroke="none" stroke-width="1" fill="none" fill-rule="evenodd">
        <g id="spo-hoop"></g>
        <path d="M54,6 L8,6 C5.794,6 4,7.794 4,10 C4,11.977 5.445,13.613 7.333,13.933 C8.723,16.971 16,33.984 16,57 C16,57.13 16.026,57.26 16.077,57.382 C16.178,57.627 16.373,57.822 16.618,57.923 C16.74,57.974 16.87,58 17,58 C17.13,58 17.26,57.974 17.382,57.923 C17.505,57.872 17.616,57.799 17.708,57.706 L24,51.414 L30.293,57.707 C30.488,57.902 30.744,58 31,58 C31.256,58 31.512,57.902 31.707,57.707 L38,51.414 L44.292,57.706 C44.384,57.799 44.495,57.872 44.618,57.923 C44.74,57.974 44.87,58 45,58 C45.13,58 45.26,57.974 45.382,57.923 C45.627,57.822 45.822,57.627 45.923,57.382 C45.974,57.26 46,57.13 46,57 C46,33.984 53.277,16.971 54.667,13.933 C56.555,13.613 58,11.978 58,10 C58,7.794 56.206,6 54,6 L54,6 Z M14.586,14 L15.586,15 L11.524,19.062 C10.727,16.817 10.027,15.102 9.55,14 L14.586,14 L14.586,14 Z M28.586,14 L29.586,15 L24,20.586 L18.414,15 L19.414,14 L28.586,14 L28.586,14 Z M42.586,14 L43.586,15 L38,20.586 L32.414,15 L33.414,14 L42.586,14 L42.586,14 Z M52.45,14 C51.973,15.102 51.273,16.818 50.476,19.062 L46.414,15 L47.414,14 L52.45,14 L52.45,14 Z M47.275,29.86 L46.415,29 L47.863,27.552 C47.664,28.3 47.468,29.065 47.275,29.86 L47.275,29.86 Z M31,27.586 L25.414,22 L31,16.414 L36.586,22 L31,27.586 L31,27.586 Z M38,23.414 L43.586,29 L38,34.586 L32.414,29 L38,23.414 L38,23.414 Z M29.586,29 L24,34.586 L18.414,29 L24,23.414 L29.586,29 L29.586,29 Z M17,27.586 L13.018,23.604 C12.758,22.748 12.499,21.934 12.246,21.168 L17,16.414 L22.586,22 L17,27.586 L17,27.586 Z M14.137,27.551 L15.585,28.999 L14.725,29.86 C14.532,29.065 14.336,28.3 14.137,27.551 L14.137,27.551 Z M17,30.414 L22.586,36 L17,41.586 L16.931,41.517 C16.47,38.161 15.891,35.031 15.255,32.158 L17,30.414 L17,30.414 Z M24,37.414 L29.586,43 L24,48.586 L18.414,43 L24,37.414 L24,37.414 Z M25.414,36 L31,30.414 L36.586,36 L31,41.586 L25.414,36 L25.414,36 Z M38,37.414 L43.586,43 L38,48.586 L32.414,43 L38,37.414 L38,37.414 Z M45.069,41.517 L45,41.586 L39.414,36 L45,30.414 L46.744,32.158 C46.109,35.031 45.53,38.161 45.069,41.517 L45.069,41.517 Z M48.982,23.605 L45,27.586 L39.414,22 L45,16.414 L49.754,21.168 C49.501,21.935 49.242,22.748 48.982,23.605 L48.982,23.605 Z M17.974,54.612 C17.9,51.168 17.666,47.872 17.325,44.74 L22.586,50.001 L17.974,54.612 L17.974,54.612 Z M31,55.586 L25.414,50 L31,44.414 L36.586,50 L31,55.586 L31,55.586 Z M44.675,44.739 C44.334,47.871 44.1,51.167 44.026,54.611 L39.414,50 L44.675,44.739 L44.675,44.739 Z M54,12 L8,12 C6.897,12 6,11.103 6,10 C6,8.897 6.897,8 8,8 L54,8 C55.103,8 56,8.897 56,10 C56,11.103 55.103,12 54,12 L54,12 Z" id="Shape" fill="#000000"></path>
    </g>
</svg>