<?xml version="1.0" encoding="UTF-8" standalone="no"?>
<svg width="64px" height="64px" viewBox="0 0 64 64" version="1.1" xmlns="http://www.w3.org/2000/svg" xmlns:xlink="http://www.w3.org/1999/xlink">
    <!-- Generator: Sketch 3.7.2 (28276) - http://www.bohemiancoding.com/sketch -->
    <title>spo-podium</title>
    <desc>Created with Sketch.</desc>
    <defs></defs>
    <g id="64px-Glyph" stroke="none" stroke-width="1" fill="none" fill-rule="evenodd">
        <g id="spo-podium" fill="#000000">
            <path d="M54,46.999 C54,48.653 52.654,49.999 51,49.999 L49,49.999 C48.448,49.999 48,49.552 48,48.999 C48,48.446 48.448,47.999 49,47.999 L51,47.999 C51.551,47.999 52,47.551 52,46.999 C52,46.447 51.551,45.999 51,45.999 L49,45.999 C48.448,45.999 48,45.552 48,44.999 C48,44.446 48.448,43.999 49,43.999 L51,43.999 C51.551,43.999 52,43.551 52,42.999 C52,42.447 51.551,41.999 51,41.999 L49,41.999 C48.448,41.999 48,41.552 48,40.999 C48,40.446 48.448,39.999 49,39.999 L51,39.999 C52.654,39.999 54,41.345 54,42.999 C54,43.771 53.699,44.467 53.22,44.999 C53.699,45.531 54,46.227 54,46.999 L54,46.999 Z M33,25.999 L29,25.999 C28.448,25.999 28,25.552 28,24.999 C28,24.446 28.448,23.999 29,23.999 L30,23.999 L30,19.413 L29.707,19.706 C29.316,20.097 28.684,20.097 28.293,19.706 C27.902,19.315 27.902,18.683 28.293,18.292 L30.293,16.292 C30.579,16.006 31.008,15.919 31.383,16.075 C31.756,16.229 32,16.595 32,16.999 L32,23.999 L33,23.999 C33.552,23.999 34,24.446 34,24.999 C34,25.552 33.552,25.999 33,25.999 L33,25.999 Z M13,35.999 C13.552,35.999 14,36.446 14,36.999 C14,37.552 13.552,37.999 13,37.999 L9,37.999 C8.448,37.999 8,37.552 8,36.999 L8,34.999 C8,33.345 9.346,31.999 11,31.999 C11.551,31.999 12,31.551 12,30.999 C12,30.447 11.551,29.999 11,29.999 L9,29.999 C8.448,29.999 8,29.552 8,28.999 C8,28.446 8.448,27.999 9,27.999 L11,27.999 C12.654,27.999 14,29.345 14,30.999 C14,32.653 12.654,33.999 11,33.999 C10.449,33.999 10,34.447 10,34.999 L10,35.999 L13,35.999 Z M61,33.999 L42,33.999 L42,10.999 C42,10.446 41.552,9.999 41,9.999 L21,9.999 C20.448,9.999 20,10.446 20,10.999 L20,21.999 L1,21.999 C0.448,21.999 0,22.446 0,22.999 L0,54.999 C0,55.552 0.448,55.999 1,55.999 L21,55.999 L41,55.999 L61,55.999 C61.552,55.999 62,55.552 62,54.999 L62,34.999 C62,34.446 61.552,33.999 61,33.999 L61,33.999 Z" id="Fill-187"></path>
        </g>
    </g>
</svg>