<?xml version="1.0" encoding="UTF-8" standalone="no"?>
<svg width="64px" height="64px" viewBox="0 0 64 64" version="1.1" xmlns="http://www.w3.org/2000/svg" xmlns:xlink="http://www.w3.org/1999/xlink">
    <!-- Generator: Sketch 3.7.2 (28276) - http://www.bohemiancoding.com/sketch -->
    <title>spo-rugby-ball</title>
    <desc>Created with Sketch.</desc>
    <defs></defs>
    <g id="64px-Line" stroke="none" stroke-width="1" fill="none" fill-rule="evenodd">
        <g id="spo-rugby-ball"></g>
        <path d="M10,58 C26.429,58 38.271,54.143 46.207,46.207 C54.143,38.271 58,26.428 58,10 C58,8.902 57.554,7.906 56.835,7.182 C56.832,7.179 56.831,7.175 56.828,7.171 C56.825,7.168 56.82,7.167 56.817,7.164 C56.094,6.446 55.098,6 54,6 C37.571,6 25.729,9.857 17.793,17.793 C9.857,25.729 6,37.572 6,54 C6,56.206 7.794,58 10,58 L10,58 Z M10,56 C9.822,56 9.653,55.969 9.489,55.925 L26,39.414 L29.293,42.707 C29.488,42.902 29.744,43 30,43 C30.256,43 30.512,42.902 30.707,42.707 C31.098,42.316 31.098,41.684 30.707,41.293 L27.414,38 L30,35.414 L33.293,38.707 C33.488,38.902 33.744,39 34,39 C34.256,39 34.512,38.902 34.707,38.707 C35.098,38.316 35.098,37.684 34.707,37.293 L31.414,34 L34,31.414 L37.293,34.707 C37.488,34.902 37.744,35 38,35 C38.256,35 38.512,34.902 38.707,34.707 C39.098,34.316 39.098,33.684 38.707,33.293 L35.414,30 L38,27.414 L41.293,30.707 C41.488,30.902 41.744,31 42,31 C42.256,31 42.512,30.902 42.707,30.707 C43.098,30.316 43.098,29.684 42.707,29.293 L39.414,26 L55.925,9.489 C55.969,9.653 56,9.822 56,10 C56,41.383 41.383,56 10,56 L10,56 Z M54,8 C54.178,8 54.347,8.031 54.511,8.075 L38,24.586 L34.707,21.293 C34.316,20.902 33.684,20.902 33.293,21.293 C32.902,21.684 32.902,22.316 33.293,22.707 L36.586,26 L34,28.586 L30.707,25.293 C30.316,24.902 29.684,24.902 29.293,25.293 C28.902,25.684 28.902,26.316 29.293,26.707 L32.586,30 L30,32.586 L26.707,29.293 C26.316,28.902 25.684,28.902 25.293,29.293 C24.902,29.684 24.902,30.316 25.293,30.707 L28.586,34 L26,36.586 L22.707,33.293 C22.316,32.902 21.684,32.902 21.293,33.293 C20.902,33.684 20.902,34.316 21.293,34.707 L24.586,38 L8.075,54.511 C8.031,54.347 8,54.178 8,54 C8,22.617 22.617,8 54,8 L54,8 Z" id="Shape" fill="#000000"></path>
    </g>
</svg>