<?xml version="1.0" encoding="UTF-8" standalone="no"?>
<svg width="64px" height="64px" viewBox="0 0 64 64" version="1.1" xmlns="http://www.w3.org/2000/svg" xmlns:xlink="http://www.w3.org/1999/xlink">
    <!-- Generator: Sketch 3.7.2 (28276) - http://www.bohemiancoding.com/sketch -->
    <title>spo-football-post</title>
    <desc>Created with Sketch.</desc>
    <defs></defs>
    <g id="64px-Line" stroke="none" stroke-width="1" fill="none" fill-rule="evenodd">
        <g id="spo-football-post"></g>
        <path d="M52,32 L52,7 C52,6.448 51.553,6 51,6 C50.447,6 50,6.448 50,7 L50,32 C50,34.206 48.206,36 46,36 L16,36 C13.794,36 12,34.206 12,32 L12,7 C12,6.448 11.553,6 11,6 C10.447,6 10,6.448 10,7 L10,32 C10,35.309 12.691,38 16,38 L30,38 L30,44 C28.897,44 28,44.897 28,46 L28,58 C28,59.103 28.897,60 30,60 L32,60 C33.103,60 34,59.103 34,58 L34,46 C34,44.897 33.103,44 32,44 L32,38 L46,38 C49.309,38 52,35.309 52,32 L52,32 Z M32.001,58 L30,58 L30,46 L32,46 L32.001,58 L32.001,58 Z" id="Shape" fill="#000000"></path>
    </g>
</svg>