<?xml version="1.0" encoding="UTF-8" standalone="no"?>
<svg width="64px" height="64px" viewBox="0 0 64 64" version="1.1" xmlns="http://www.w3.org/2000/svg" xmlns:xlink="http://www.w3.org/1999/xlink">
    <!-- Generator: Sketch 3.7.2 (28276) - http://www.bohemiancoding.com/sketch -->
    <title>spo-fishing</title>
    <desc>Created with Sketch.</desc>
    <defs></defs>
    <g id="64px-Line" stroke="none" stroke-width="1" fill="none" fill-rule="evenodd">
        <g id="spo-fishing"></g>
        <path d="M10,46 C13.309,46 16,43.309 16,40 L16,27.816 C17.161,27.402 18,26.302 18,25 C18,23.346 16.654,22 15,22 C13.346,22 12,23.346 12,25 C12,26.302 12.839,27.402 14,27.816 L14,40 C14,42.206 12.206,44 10,44 C7.794,44 6,42.206 6,40 L6,37.414 L6.293,37.707 C6.684,38.098 7.316,38.098 7.707,37.707 C8.098,37.316 8.098,36.684 7.707,36.293 L5.707,34.293 C5.421,34.007 4.992,33.921 4.617,34.076 C4.243,34.23 4,34.596 4,35 L4,40 C4,43.309 6.691,46 10,46 L10,46 Z M15,24 C15.552,24 16,24.448 16,25 C16,25.552 15.552,26 15,26 C14.448,26 14,25.552 14,25 C14,24.448 14.448,24 15,24 L15,24 Z" id="Shape" fill="#000000"></path>
        <path d="M16,19 L16,7 C16,6.447 15.553,6 15,6 C14.447,6 14,6.447 14,7 L14,19 C14,19.553 14.447,20 15,20 C15.553,20 16,19.553 16,19 L16,19 Z" id="Shape" fill="#000000"></path>
        <path d="M16.105,48.553 C15.964,48.834 15.964,49.166 16.105,49.448 C16.321,49.878 21.503,60 32,60 C37.492,60 42.476,55.205 46.936,50.465 C50.706,54.518 53.965,58 57,58 C57.553,58 58,57.553 58,57 L58,41 C58,40.447 57.553,40 57,40 C53.965,40 50.705,43.482 46.936,47.535 C42.476,42.795 37.493,38 32,38 C21.503,38 16.321,48.122 16.105,48.553 L16.105,48.553 Z M48.327,48.976 C51.184,45.905 53.906,42.979 56,42.202 L56,55.8 C53.906,55.023 51.185,52.097 48.327,49.026 C48.319,49.018 48.311,49.009 48.305,49.002 C48.312,48.992 48.319,48.983 48.327,48.976 L48.327,48.976 Z M45.568,49 C41.366,53.472 36.71,58 32,58 C23.932,58 19.239,50.877 18.144,49 C19.24,47.123 23.932,40 32,40 C36.71,40 41.366,44.528 45.568,49 L45.568,49 Z" id="Shape" fill="#000000"></path>
        <circle id="Oval" fill="#000000" cx="26" cy="46" r="2"></circle>
    </g>
</svg>