<?xml version="1.0" encoding="UTF-8" standalone="no"?>
<svg width="64px" height="64px" viewBox="0 0 64 64" version="1.1" xmlns="http://www.w3.org/2000/svg" xmlns:xlink="http://www.w3.org/1999/xlink">
    <!-- Generator: Sketch 3.7.2 (28276) - http://www.bohemiancoding.com/sketch -->
    <title>spo-golf-ball</title>
    <desc>Created with Sketch.</desc>
    <defs></defs>
    <g id="64px-Line" stroke="none" stroke-width="1" fill="none" fill-rule="evenodd">
        <g id="spo-golf-ball"></g>
        <path d="M50,25 C50,14.523 41.477,6 31,6 C20.523,6 12,14.523 12,25 C12,35.477 20.523,44 31,44 C41.477,44 50,35.477 50,25 L50,25 Z M31,42 C21.626,42 14,34.374 14,25 C14,15.626 21.626,8 31,8 C40.374,8 48,15.626 48,25 C48,34.374 40.374,42 31,42 L31,42 Z" id="Shape" fill="#000000"></path>
        <path d="M37.365,45.239 C37.139,45.15 36.892,45.146 36.668,45.226 C32.997,46.252 29.005,46.252 25.332,45.226 C24.981,45.103 24.583,45.183 24.306,45.449 C23.971,45.772 23.903,46.284 24.142,46.684 L24.143,46.686 C24.227,46.827 24.345,46.944 24.483,47.027 C24.99,47.375 30,51.017 30,59 C30,59.552 30.448,60 31,60 C31.552,60 32,59.552 32,59 C32,51.051 36.967,47.406 37.506,47.035 C37.88,46.815 38.08,46.368 37.97,45.928 C37.892,45.614 37.667,45.357 37.365,45.239 L37.365,45.239 Z M31,52.861 C30.248,50.702 29.181,49.038 28.188,47.83 C30.048,48.056 31.951,48.056 33.811,47.83 C32.819,49.038 31.752,50.702 31,52.861 L31,52.861 Z" id="Shape" fill="#000000"></path>
        <path d="M22.293,29.607 C21.784,30.114 20.9,30.115 20.394,29.607 C20.14,29.354 20,29.016 20,28.657 C20,28.299 20.14,27.961 20.394,27.708 C20.785,27.317 20.785,26.684 20.394,26.293 C20.003,25.902 19.37,25.903 18.979,26.293 C18.347,26.925 18,27.764 18,28.657 C18,29.551 18.348,30.39 18.979,31.021 C19.61,31.652 20.45,32 21.343,32 C22.236,32 23.075,31.652 23.707,31.021 C24.098,30.63 24.098,29.998 23.707,29.607 C23.316,29.216 22.684,29.216 22.293,29.607 L22.293,29.607 Z" id="Shape" fill="#000000"></path>
        <path d="M30.293,35.607 C29.784,36.114 28.9,36.114 28.394,35.607 C28.14,35.354 28,35.016 28,34.657 C28,34.299 28.14,33.961 28.394,33.708 C28.785,33.317 28.785,32.684 28.394,32.293 C28.003,31.902 27.37,31.903 26.979,32.293 C26.347,32.925 26,33.764 26,34.657 C26,35.551 26.348,36.39 26.979,37.021 C27.61,37.652 28.45,38 29.343,38 C30.236,38 31.075,37.652 31.707,37.021 C32.098,36.63 32.098,35.998 31.707,35.607 C31.316,35.216 30.684,35.216 30.293,35.607 L30.293,35.607 Z" id="Shape" fill="#000000"></path>
        <path d="M30.293,27.607 C29.784,28.114 28.9,28.114 28.394,27.607 C28.14,27.354 28,27.016 28,26.657 C28,26.299 28.14,25.961 28.394,25.708 C28.785,25.317 28.785,24.684 28.394,24.293 C28.003,23.902 27.37,23.903 26.979,24.293 C26.347,24.925 26,25.764 26,26.657 C26,27.551 26.348,28.39 26.979,29.021 C27.61,29.652 28.45,30 29.343,30 C30.236,30 31.075,29.652 31.707,29.021 C32.098,28.63 32.098,27.998 31.707,27.607 C31.316,27.216 30.684,27.216 30.293,27.607 L30.293,27.607 Z" id="Shape" fill="#000000"></path>
    </g>
</svg>