<?xml version="1.0" encoding="UTF-8" standalone="no"?>
<svg width="44px" height="44px" viewBox="0 0 44 44" version="1.1" xmlns="http://www.w3.org/2000/svg" xmlns:xlink="http://www.w3.org/1999/xlink">
    <!-- Generator: Sketch 3.7.2 (28276) - http://www.bohemiancoding.com/sketch -->
    <title>spo-baseball-pitch</title>
    <desc>Created with Sketch.</desc>
    <defs></defs>
    <g id="44px-Glyph" stroke="none" stroke-width="1" fill="none" fill-rule="evenodd">
        <g id="spo-baseball-pitch" fill="#000000">
            <path d="M26,21.8989 L26,17.9999 L22.101,17.9999 C22.5,19.9559 24.044,21.4999 26,21.8989" id="Fill-91"></path>
            <path d="M26,38.1011 C23.721,38.5661 22,40.5851 22,43.0001 L22,44.0001 L26,44.0001 L26,38.1011 Z" id="Fill-92"></path>
            <path d="M14,26 C16.206,26 18,27.794 18,30 C18,32.206 16.206,34 14,34 C11.794,34 10,32.206 10,30 C10,27.794 11.794,26 14,26 M1,24 L0,24 L0,36 L1,36 C4.86,36 8,39.14 8,43 L8,44 L20,44 L20,43 C20,39.481 22.613,36.568 26,36.08 L26,23.92 C22.941,23.48 20.52,21.059 20.08,18 L7.92,18 C7.432,21.387 4.519,24 1,24" id="Fill-93"></path>
            <path d="M6,43 C6,40.243 3.757,38 1,38 L0,38 L0,43 C0,43.552 0.448,44 1,44 L6,44 L6,43 Z" id="Fill-94"></path>
            <path d="M0,22 L1,22 C3.414,22 5.434,20.279 5.899,18 L0,18 L0,22 Z" id="Fill-95"></path>
            <path d="M1,2 C0.448,2 0,2.448 0,3 L0,16 L27,16 C27.552,16 28,16.448 28,17 L28,44 L41,44 C41.552,44 42,43.552 42,43 C42,20.393 23.607,2 1,2" id="Fill-96"></path>
            <path d="M14,32 C15.103,32 16,31.103 16,30 C16,28.897 15.103,28 14,28 C12.897,28 12,28.897 12,30 C12,31.103 12.897,32 14,32" id="Fill-97"></path>
        </g>
    </g>
</svg>