<?xml version="1.0" encoding="UTF-8" standalone="no"?>
<svg width="44px" height="44px" viewBox="0 0 44 44" version="1.1" xmlns="http://www.w3.org/2000/svg" xmlns:xlink="http://www.w3.org/1999/xlink">
    <!-- Generator: Sketch 3.7.2 (28276) - http://www.bohemiancoding.com/sketch -->
    <title>spo-darts</title>
    <desc>Created with Sketch.</desc>
    <defs></defs>
    <g id="44px-Line" stroke="none" stroke-width="1" fill="none" fill-rule="evenodd">
        <g id="spo-darts"></g>
        <path d="M39.366,7.892 C38.59,8.103 37.755,8.328 37.074,8.34 L39.531,5.883 C39.922,5.492 39.922,4.86 39.531,4.469 C39.14,4.078 38.508,4.078 38.117,4.469 L35.659,6.927 C35.671,6.245 35.896,5.41 36.108,4.634 C36.504,3.186 36.879,1.818 35.985,0.923 C35.062,1.15907284e-13 32.325,-1.559 26.887,3.878 C23.19,7.576 23.399,14.267 23.577,16.439 C21.495,17.611 14.383,21.86 7.325,28.918 L4.961,31.281 C4.456,31.786 4.178,32.457 4.178,33.171 C4.178,33.885 4.456,34.556 4.961,35.06 L6.244,36.343 L0.293,42.294 C-0.098,42.685 -0.098,43.317 0.293,43.708 C0.488,43.903 0.744,44.001 1,44.001 C1.256,44.001 1.512,43.903 1.707,43.708 L7.658,37.757 L8.94,39.039 C9.445,39.544 10.116,39.822 10.83,39.822 C11.544,39.822 12.215,39.544 12.72,39.039 L15.083,36.675 C22.141,29.617 26.39,22.505 27.562,20.423 C29.733,20.605 36.424,20.811 40.123,17.113 C45.562,11.674 44.002,8.939 43.078,8.015 C42.181,7.12 40.814,7.495 39.366,7.892 L39.366,7.892 Z M11.306,37.624 C11.053,37.877 10.61,37.879 10.356,37.624 L6.377,33.644 C6.25,33.518 6.18,33.349 6.18,33.17 C6.18,32.99 6.25,32.821 6.377,32.694 L8.034,31.038 L12.963,35.967 L11.306,37.624 L11.306,37.624 Z M38.708,15.698 C35.048,19.357 27.214,18.38 27.135,18.369 C26.721,18.312 26.315,18.523 26.119,18.894 C26.076,18.974 21.918,26.771 14.365,34.542 L9.457,29.634 C17.217,22.093 25.025,17.923 25.105,17.88 C25.476,17.685 25.686,17.278 25.63,16.863 C25.619,16.785 24.63,8.963 28.301,5.291 C31.486,2.106 33.745,1.51 34.52,2.264 C34.61,2.53 34.351,3.478 34.179,4.105 C33.79,5.523 33.343,7.221 33.996,8.588 L28.66,13.924 C28.269,14.315 28.269,14.947 28.66,15.338 C28.855,15.533 29.111,15.631 29.367,15.631 C29.623,15.631 29.879,15.533 30.074,15.338 L35.41,10.002 C36.777,10.654 38.476,10.207 39.893,9.82 C40.521,9.648 41.468,9.387 41.662,9.428 C42.488,10.254 41.894,12.512 38.708,15.698 L38.708,15.698 Z" id="Shape" fill="#000000"></path>
    </g>
</svg>