<?xml version="1.0" encoding="UTF-8" standalone="no"?>
<svg width="44px" height="44px" viewBox="0 0 44 44" version="1.1" xmlns="http://www.w3.org/2000/svg" xmlns:xlink="http://www.w3.org/1999/xlink">
    <!-- Generator: Sketch 3.7.2 (28276) - http://www.bohemiancoding.com/sketch -->
    <title>spo-football</title>
    <desc>Created with Sketch.</desc>
    <defs></defs>
    <g id="44px-Line" stroke="none" stroke-width="1" fill="none" fill-rule="evenodd">
        <g id="spo-football"></g>
        <path d="M3.52,44 C31.137,44 44,31.137 44,3.52 C44,1.58 42.421,0 40.48,0 C12.863,0 0,12.863 0,40.48 C0,42.421 1.579,44 3.52,44 L3.52,44 Z M40.48,2 C41.318,2 42,2.682 42,3.52 C42,29.772 29.772,42 3.52,42 C2.682,42 2,41.318 2,40.48 C2,14.228 14.228,2 40.48,2 L40.48,2 Z" id="Shape" fill="#000000"></path>
        <path d="M14.586,28 L12.293,30.293 C11.902,30.684 11.902,31.316 12.293,31.707 C12.488,31.902 12.744,32 13,32 C13.256,32 13.512,31.902 13.707,31.707 L16,29.414 L19.293,32.707 C19.488,32.902 19.744,33 20,33 C20.256,33 20.512,32.902 20.707,32.707 C21.098,32.316 21.098,31.684 20.707,31.293 L17.414,28 L20,25.414 L23.293,28.707 C23.488,28.902 23.744,29 24,29 C24.256,29 24.512,28.902 24.707,28.707 C25.098,28.316 25.098,27.684 24.707,27.293 L21.414,24 L24,21.414 L27.293,24.707 C27.488,24.902 27.744,25 28,25 C28.256,25 28.512,24.902 28.707,24.707 C29.098,24.316 29.098,23.684 28.707,23.293 L25.414,20 L28,17.414 L31.293,20.707 C31.488,20.902 31.744,21 32,21 C32.256,21 32.512,20.902 32.707,20.707 C33.098,20.316 33.098,19.684 32.707,19.293 L29.414,16 L31.707,13.707 C32.098,13.316 32.098,12.684 31.707,12.293 C31.316,11.902 30.684,11.902 30.293,12.293 L28,14.586 L24.707,11.293 C24.316,10.902 23.684,10.902 23.293,11.293 C22.902,11.684 22.902,12.316 23.293,12.707 L26.586,16 L24,18.586 L20.707,15.293 C20.316,14.902 19.684,14.902 19.293,15.293 C18.902,15.684 18.902,16.316 19.293,16.707 L22.586,20 L20,22.586 L16.707,19.293 C16.316,18.902 15.684,18.902 15.293,19.293 C14.902,19.684 14.902,20.316 15.293,20.707 L18.586,24 L16,26.586 L12.707,23.293 C12.316,22.902 11.684,22.902 11.293,23.293 C10.902,23.684 10.902,24.316 11.293,24.707 L14.586,28 L14.586,28 Z" id="Shape" fill="#000000"></path>
    </g>
</svg>