<?xml version="1.0" encoding="UTF-8" standalone="no"?>
<svg width="44px" height="44px" viewBox="0 0 44 44" version="1.1" xmlns="http://www.w3.org/2000/svg" xmlns:xlink="http://www.w3.org/1999/xlink">
    <!-- Generator: Sketch 3.7.2 (28276) - http://www.bohemiancoding.com/sketch -->
    <title>spo-cricket</title>
    <desc>Created with Sketch.</desc>
    <defs></defs>
    <g id="44px-Line" stroke="none" stroke-width="1" fill="none" fill-rule="evenodd">
        <g id="spo-cricket"></g>
        <path d="M40.221,0.293 C39.83,-0.098 39.198,-0.098 38.807,0.293 L28.786,10.314 L26.85,9.668 C25.895,9.35 24.86,9.594 24.145,10.307 L0.777,33.675 C-0.094,34.546 -0.247,35.926 0.413,36.957 C1,37.874 1.988,39.255 3.367,40.634 C4.746,42.013 6.127,43.001 7.044,43.589 C7.473,43.862 7.962,43.996 8.449,43.996 C9.135,43.996 9.817,43.732 10.326,43.224 L33.694,19.855 C34.407,19.142 34.651,18.105 34.332,17.15 L33.687,15.214 L43.708,5.193 C43.896,5.005 44.001,4.751 44.001,4.486 C44.001,4.221 43.896,3.966 43.708,3.779 L40.221,0.293 L40.221,0.293 Z M32.279,18.441 L8.911,41.81 C8.7,42.021 8.368,42.063 8.121,41.905 C7.288,41.371 6.032,40.472 4.78,39.22 C3.528,37.968 2.63,36.712 2.096,35.879 C1.938,35.633 1.978,35.301 2.19,35.089 L25.558,11.722 C25.681,11.598 25.844,11.533 26.012,11.533 C26.08,11.533 26.149,11.544 26.216,11.567 L28.515,12.333 L31.668,15.485 L32.434,17.784 C32.512,18.015 32.452,18.268 32.279,18.441 L32.279,18.441 Z M32.542,13.53 L30.47,11.458 L39.514,2.414 L41.586,4.486 L32.542,13.53 L32.542,13.53 Z" id="Shape" fill="#000000"></path>
        <path d="M34,44 C37.309,44 40,41.309 40,38 C40,34.691 37.309,32 34,32 C30.691,32 28,34.691 28,38 C28,41.309 30.691,44 34,44 L34,44 Z M34,34 C36.206,34 38,35.794 38,38 C38,40.206 36.206,42 34,42 C31.794,42 30,40.206 30,38 C30,35.794 31.794,34 34,34 L34,34 Z" id="Shape" fill="#000000"></path>
    </g>
</svg>