<?xml version="1.0" encoding="UTF-8" standalone="no"?>
<svg width="44px" height="44px" viewBox="0 0 44 44" version="1.1" xmlns="http://www.w3.org/2000/svg" xmlns:xlink="http://www.w3.org/1999/xlink">
    <!-- Generator: Sketch 3.7.2 (28276) - http://www.bohemiancoding.com/sketch -->
    <title>spo-archery-target</title>
    <desc>Created with Sketch.</desc>
    <defs></defs>
    <g id="44px-Glyph" stroke="none" stroke-width="1" fill="none" fill-rule="evenodd">
        <g id="spo-archery-target" fill="#000000">
            <path d="M43.9228,7.3821 C44.0238,7.1381 44.0238,6.8621 43.9228,6.6181 C43.8218,6.3731 43.6268,6.1781 43.3818,6.0771 C43.2598,6.0271 43.1298,6.0001 42.9998,6.0001 L37.9998,6.0001 L37.9998,1.0001 C37.9998,0.8701 37.9738,0.7401 37.9228,0.6181 C37.8218,0.3731 37.6268,0.1781 37.3818,0.0771 C37.1378,-0.0239 36.8628,-0.0239 36.6178,0.0771 C36.4958,0.1281 36.3848,0.2011 36.2928,0.2931 L30.2928,6.2931 C30.2008,6.3851 30.1278,6.4951 30.0768,6.6181 C30.0268,6.7401 29.9998,6.8701 29.9998,7.0001 L29.9998,12.5861 L18.2928,24.2931 C17.9028,24.6831 17.9028,25.3161 18.2928,25.7071 C18.4888,25.9021 18.7438,26.0001 18.9998,26.0001 C19.2558,26.0001 19.5118,25.9021 19.7068,25.7071 L31.4138,14.0001 L36.9998,14.0001 C37.1298,14.0001 37.2598,13.9731 37.3818,13.9231 C37.5048,13.8721 37.6148,13.7991 37.7078,13.7071 L43.7068,7.7071 C43.7988,7.6151 43.8718,7.5041 43.9228,7.3821" id="Fill-166"></path>
            <path d="M33.1019,37.6882 C36.1359,34.3202 37.9999,29.8792 37.9999,25.0002 C37.9999,21.7392 37.1549,18.6812 35.6979,16.0002 L32.2419,16.0002 L30.0529,18.1892 C31.2789,20.1732 31.9999,22.5012 31.9999,25.0002 C31.9999,32.1682 26.1689,38.0002 18.9999,38.0002 C11.8319,38.0002 5.9999,32.1682 5.9999,25.0002 C5.9999,17.8312 11.8319,12.0002 18.9999,12.0002 C22.9439,12.0002 26.4759,13.7712 28.8619,16.5522 L33.1019,12.3122 C29.6219,8.4482 24.5979,6.0002 18.9999,6.0002 C8.5229,6.0002 -0.0001,14.5232 -0.0001,25.0002 C-0.0001,29.8792 1.8639,34.3202 4.8979,37.6882 L0.2929,42.2932 C-0.0981,42.6832 -0.0981,43.3162 0.2929,43.7072 C0.4879,43.9022 0.7439,44.0002 0.9999,44.0002 C1.2559,44.0002 1.5119,43.9022 1.7069,43.7072 L6.3119,39.1022 C9.6799,42.1362 14.1209,44.0002 18.9999,44.0002 C23.8789,44.0002 28.3199,42.1362 31.6879,39.1022 L36.2929,43.7072 C36.4879,43.9022 36.7439,44.0002 36.9999,44.0002 C37.2559,44.0002 37.5119,43.9022 37.7069,43.7072 C38.0979,43.3162 38.0979,42.6832 37.7069,42.2932 L33.1019,37.6882 Z" id="Fill-167"></path>
            <path d="M25.5873,22.6549 C25.8493,23.3889 26.0003,24.1769 26.0003,24.9999 C26.0003,28.8599 22.8603,31.9999 19.0003,31.9999 C15.1403,31.9999 12.0003,28.8599 12.0003,24.9999 C12.0003,21.1399 15.1403,17.9999 19.0003,17.9999 C21.2903,17.9999 23.3203,19.1109 24.5983,20.8159 L27.4483,17.9659 C25.4283,15.5449 22.3923,13.9999 19.0003,13.9999 C12.9343,13.9999 8.0003,18.9349 8.0003,24.9999 C8.0003,31.0649 12.9343,35.9999 19.0003,35.9999 C25.0653,35.9999 30.0003,31.0649 30.0003,24.9999 C30.0003,23.0549 29.4883,21.2299 28.5993,19.6429 L25.5873,22.6549 Z" id="Fill-168"></path>
            <path d="M21.1211,27.1211 C20.9261,27.3161 20.6701,27.4141 20.4141,27.4141 C20.1581,27.4141 19.9021,27.3161 19.7071,27.1211 C19.3161,26.7301 19.3161,26.0981 19.7071,25.7071 L23.1671,22.2471 C22.2711,20.8951 20.7391,20.0001 19.0001,20.0001 C16.2431,20.0001 14.0001,22.2431 14.0001,25.0001 C14.0001,27.7571 16.2431,30.0001 19.0001,30.0001 C21.7571,30.0001 24.0001,27.7571 24.0001,25.0001 C24.0001,24.7641 23.9621,24.5391 23.9301,24.3121 L21.1211,27.1211 Z" id="Fill-169"></path>
        </g>
    </g>
</svg>