<?xml version="1.0" encoding="UTF-8" standalone="no"?>
<svg width="64px" height="64px" viewBox="0 0 64 64" version="1.1" xmlns="http://www.w3.org/2000/svg" xmlns:xlink="http://www.w3.org/1999/xlink">
    <!-- Generator: Sketch 3.7.2 (28276) - http://www.bohemiancoding.com/sketch -->
    <title>spo-weights</title>
    <desc>Created with Sketch.</desc>
    <defs></defs>
    <g id="64px-Line" stroke="none" stroke-width="1" fill="none" fill-rule="evenodd">
        <g id="spo-weights"></g>
        <path d="M59,28 L56,28 L56,22 C56,19.794 54.206,18 52,18 C51.268,18 50.591,18.212 50,18.556 L50,18 C50,15.794 48.206,14 46,14 C43.794,14 42,15.794 42,18 L42,28 L22,28 L22,18 C22,15.794 20.206,14 18,14 C15.794,14 14,15.794 14,18 L14,18.556 C13.409,18.212 12.732,18 12,18 C9.794,18 8,19.794 8,22 L8,28 L5,28 C4.447,28 4,28.447 4,29 L4,35 C4,35.553 4.447,36 5,36 L8,36 L8,42 C8,44.206 9.794,46 12,46 C12.732,46 13.409,45.788 14,45.444 L14,46 C14,48.206 15.794,50 18,50 C20.206,50 22,48.206 22,46 L22,36 L42,36 L42,46 C42,48.206 43.794,50 46,50 C48.206,50 50,48.206 50,46 L50,45.444 C50.591,45.788 51.268,46 52,46 C54.206,46 56,44.206 56,42 L56,36 L59,36 C59.553,36 60,35.553 60,35 L60,29 C60,28.447 59.553,28 59,28 L59,28 Z M6,34 L6,30 L8,30 L8,34 L6,34 L6,34 Z M12,44 C10.897,44 10,43.103 10,42 L10,22 C10,20.897 10.897,20 12,20 C13.103,20 14,20.897 14,22 L14,42 C14,43.103 13.103,44 12,44 L12,44 Z M20,46 C20,47.103 19.103,48 18,48 C16.897,48 16,47.103 16,46 L16,42 L16,22 L16,18 C16,16.897 16.897,16 18,16 C19.103,16 20,16.897 20,18 L20,46 L20,46 Z M22,34 L22,30 L42,30 L42,34 L22,34 L22,34 Z M48,46 C48,47.103 47.103,48 46,48 C44.897,48 44,47.103 44,46 L44,18 C44,16.897 44.897,16 46,16 C47.103,16 48,16.897 48,18 L48,22 L48,42 L48,46 L48,46 Z M54,42 C54,43.103 53.103,44 52,44 C50.897,44 50,43.103 50,42 L50,22 C50,20.897 50.897,20 52,20 C53.103,20 54,20.897 54,22 L54,42 L54,42 Z M58,34 L56,34 L56,30 L58,30 L58,34 L58,34 Z" id="Shape" fill="#000000"></path>
    </g>
</svg>