<?xml version="1.0" encoding="UTF-8" standalone="no"?>
<svg width="64px" height="64px" viewBox="0 0 64 64" version="1.1" xmlns="http://www.w3.org/2000/svg" xmlns:xlink="http://www.w3.org/1999/xlink">
    <!-- Generator: Sketch 3.7.2 (28276) - http://www.bohemiancoding.com/sketch -->
    <title>spo-pins</title>
    <desc>Created with Sketch.</desc>
    <defs></defs>
    <g id="64px-Glyph" stroke="none" stroke-width="1" fill="none" fill-rule="evenodd">
        <g id="spo-pins" fill="#000000">
            <path d="M25.2826,15.999 L36.7176,15.999 C36.8596,15.566 37.0086,15.17 37.1536,14.79 C37.5886,13.648 37.9996,12.569 37.9996,10.999 C37.9996,7.139 34.8596,3.999 30.9996,3.999 C27.1406,3.999 23.9996,7.139 23.9996,10.999 C23.9996,12.569 24.4106,13.648 24.8466,14.79 C24.9916,15.17 25.1406,15.566 25.2826,15.999" id="Fill-125"></path>
            <path d="M36.4701,23.999 C36.1781,22.949 36.0001,21.944 36.0001,20.999 C36.0001,19.8 36.0871,18.825 36.2241,17.999 L25.7761,17.999 C25.9131,18.825 26.0001,19.8 26.0001,20.999 C26.0001,21.944 25.8221,22.949 25.5301,23.999 L36.4701,23.999 Z" id="Fill-126"></path>
            <path d="M38.582,29.5429 C38.063,28.3299 37.558,27.1449 37.132,25.9989 L24.868,25.9989 C24.442,27.1449 23.937,28.3299 23.418,29.5429 C21.815,33.2849 20,37.5269 20,41.9989 C20,50.0549 23.918,59.0249 24.085,59.4029 C24.245,59.7649 24.604,59.9989 25,59.9989 L37,59.9989 C37.397,59.9989 37.755,59.7649 37.915,59.4029 C38.082,59.0249 42,50.0549 42,41.9989 C42,37.5269 40.185,33.2849 38.582,29.5429" id="Fill-127"></path>
            <path d="M52.5305,27.999 C52.2055,26.992 52.0005,25.995 52.0005,24.999 C52.0005,23.8 52.0875,22.825 52.2245,21.999 L41.7755,21.999 C41.9135,22.825 42.0005,23.8 42.0005,24.999 C42.0005,25.995 41.7855,26.992 41.4615,27.999 L52.5305,27.999 Z" id="Fill-128"></path>
            <path d="M41.2826,19.999 L52.7176,19.999 C52.8596,19.566 53.0086,19.17 53.1536,18.79 C53.5886,17.648 53.9996,16.569 53.9996,14.999 C53.9996,11.139 50.8596,7.999 46.9996,7.999 C43.1406,7.999 39.9996,11.139 39.9996,14.999 C39.9996,16.569 40.4106,17.648 40.8466,18.79 C40.9916,19.17 41.1406,19.566 41.2826,19.999" id="Fill-129"></path>
            <path d="M54.5576,32.602 C54.1166,31.719 53.6886,30.854 53.3086,29.999 L40.9476,29.999 C42.4726,33.607 43.9996,37.62 43.9996,41.999 C43.9996,49.174 41.0876,56.937 40.0816,59.405 C40.1006,59.439 40.1226,59.48 40.1296,59.492 C40.3076,59.805 40.6396,59.999 40.9996,59.999 L46.9996,59.999 L52.9996,59.999 C53.3606,59.999 53.6926,59.805 53.8706,59.492 C54.0396,59.194 57.9996,52.107 57.9996,43.999 C57.9996,39.497 56.1706,35.834 54.5576,32.602" id="Fill-130"></path>
            <path d="M9.4695,27.999 C9.7945,26.992 10.0005,25.995 10.0005,24.999 C10.0005,23.8 9.9135,22.825 9.7755,21.999 L20.2245,21.999 C20.0865,22.825 20.0005,23.8 20.0005,24.999 C20.0005,25.995 20.2145,26.992 20.5385,27.999 L9.4695,27.999 Z" id="Fill-131"></path>
            <path d="M20.7174,19.999 L9.2824,19.999 C9.1404,19.566 8.9914,19.17 8.8464,18.79 C8.4114,17.648 8.0004,16.569 8.0004,14.999 C8.0004,11.139 11.1404,7.999 15.0004,7.999 C18.8594,7.999 22.0004,11.139 22.0004,14.999 C22.0004,16.569 21.5884,17.648 21.1534,18.79 C21.0084,19.17 20.8594,19.566 20.7174,19.999" id="Fill-132"></path>
            <path d="M7.4424,32.602 C7.8834,31.719 8.3114,30.854 8.6914,29.999 L21.0524,29.999 C19.5274,33.607 18.0004,37.62 18.0004,41.999 C18.0004,49.174 20.9124,56.937 21.9184,59.405 C21.8994,59.439 21.8774,59.48 21.8704,59.492 C21.6924,59.805 21.3604,59.999 21.0004,59.999 L15.0004,59.999 L9.0004,59.999 C8.6394,59.999 8.3074,59.805 8.1294,59.492 C7.9604,59.194 4.0004,52.107 4.0004,43.999 C4.0004,39.497 5.8294,35.834 7.4424,32.602" id="Fill-133"></path>
        </g>
    </g>
</svg>