<?xml version="1.0" encoding="UTF-8" standalone="no"?>
<svg width="44px" height="44px" viewBox="0 0 44 44" version="1.1" xmlns="http://www.w3.org/2000/svg" xmlns:xlink="http://www.w3.org/1999/xlink">
    <!-- Generator: Sketch 3.7.2 (28276) - http://www.bohemiancoding.com/sketch -->
    <title>spo-cricket-2</title>
    <desc>Created with Sketch.</desc>
    <defs></defs>
    <g id="44px-Line" stroke="none" stroke-width="1" fill="none" fill-rule="evenodd">
        <g id="spo-cricket-2"></g>
        <path d="M28,17 L28,41 C28,41.553 28.447,42 29,42 C29.553,42 30,41.553 30,41 L30,17 C30,16.448 29.553,16 29,16 C28.447,16 28,16.448 28,17 L28,17 Z" id="Shape" fill="#000000"></path>
        <path d="M35,42 C35.553,42 36,41.553 36,41 L36,17 C36,16.448 35.553,16 35,16 C34.447,16 34,16.448 34,17 L34,41 C34,41.553 34.447,42 35,42 L35,42 Z" id="Shape" fill="#000000"></path>
        <path d="M41,42 C41.553,42 42,41.553 42,41 L42,17 C42,16.448 41.553,16 41,16 C40.447,16 40,16.448 40,17 L40,41 C40,41.553 40.447,42 41,42 L41,42 Z" id="Shape" fill="#000000"></path>
        <path d="M33,14 L31,14 C30.447,14 30,14.448 30,15 C30,15.552 30.447,16 31,16 L33,16 C33.553,16 34,15.552 34,15 C34,14.448 33.553,14 33,14 L33,14 Z" id="Shape" fill="#000000"></path>
        <path d="M37,16 L39,16 C39.553,16 40,15.552 40,15 C40,14.448 39.553,14 39,14 L37,14 C36.447,14 36,14.448 36,15 C36,15.552 36.447,16 37,16 L37,16 Z" id="Shape" fill="#000000"></path>
        <path d="M19,40 L15.478,40 C14.925,40 14.478,40.447 14.478,41 C14.478,41.553 14.925,42 15.478,42 L19,42 C20.654,42 22,40.654 22,39 L22,18.236 C22,17.092 21.364,16.064 20.342,15.552 L18,14.382 L18,3 C18,2.448 17.553,2 17,2 L13,2 C12.447,2 12,2.448 12,3 L12,14.382 L9.658,15.553 C8.636,16.065 8,17.093 8,18.237 L8,27.057 C8,27.61 8.447,28.057 9,28.057 C9.553,28.057 10,27.61 10,27.057 L10,18.237 C10,17.856 10.212,17.513 10.553,17.342 L13.448,15.895 C13.787,15.726 14.001,15.379 14.001,15 L14.001,4 L16.001,4 L16.001,15 C16.001,15.379 16.215,15.725 16.554,15.895 L19.449,17.342 C19.79,17.512 20.002,17.855 20.002,18.237 L20.002,39 C20,39.552 19.552,40 19,40 L19,40 Z" id="Shape" fill="#000000"></path>
        <path d="M8,30 C4.691,30 2,32.691 2,36 C2,39.309 4.691,42 8,42 C11.309,42 14,39.309 14,36 C14,32.691 11.309,30 8,30 L8,30 Z M8,40 C5.794,40 4,38.206 4,36 C4,33.794 5.794,32 8,32 C10.206,32 12,33.794 12,36 C12,38.206 10.206,40 8,40 L8,40 Z" id="Shape" fill="#000000"></path>
    </g>
</svg>