<?xml version="1.0" encoding="UTF-8" standalone="no"?>
<svg width="64px" height="64px" viewBox="0 0 64 64" version="1.1" xmlns="http://www.w3.org/2000/svg" xmlns:xlink="http://www.w3.org/1999/xlink">
    <!-- Generator: Sketch 3.7.2 (28276) - http://www.bohemiancoding.com/sketch -->
    <title>spo-horse</title>
    <desc>Created with Sketch.</desc>
    <defs></defs>
    <g id="64px-Line" stroke="none" stroke-width="1" fill="none" fill-rule="evenodd">
        <g id="spo-horse"></g>
        <path d="M49,16 L46,16 L46,11 C46,10.447 45.552,10 45,10 L37,10 C36.448,10 36,10.447 36,11 L36,16 L26,16 L26,11 C26,10.447 25.552,10 25,10 L17,10 C16.448,10 16,10.447 16,11 L16,16 L13,16 C8.038,16 4,20.037 4,25 L4,31 C4,33.757 6.243,36 9,36 L13.461,36 L6.086,52.594 C5.861,53.099 6.089,53.69 6.593,53.914 C6.725,53.973 6.863,54 6.999,54 C7.382,54 7.748,53.778 7.913,53.406 L15.65,36 L46.351,36 L54.087,53.406 C54.253,53.779 54.618,54 55.001,54 C55.137,54 55.274,53.973 55.407,53.914 C55.911,53.689 56.139,53.099 55.914,52.594 L48.539,36 L53,36 C55.757,36 58,33.757 58,31 L58,25 C58,20.037 53.962,16 49,16 L49,16 Z M38,12 L44,12 L44,16 L38,16 L38,12 L38,12 Z M18,12 L24,12 L24,16 L18,16 L18,12 L18,12 Z M56,31 C56,32.654 54.654,34 53,34 L46.984,34 L46.979,34 L15.021,34 L15.016,34 L9,34 C7.346,34 6,32.654 6,31 L6,25 C6,21.141 9.14,18 13,18 L49,18 C52.86,18 56,21.141 56,25 L56,31 L56,31 Z" id="Shape" fill="#000000"></path>
    </g>
</svg>