<?xml version="1.0" encoding="UTF-8" standalone="no"?>
<svg width="44px" height="44px" viewBox="0 0 44 44" version="1.1" xmlns="http://www.w3.org/2000/svg" xmlns:xlink="http://www.w3.org/1999/xlink">
    <!-- Generator: Sketch 3.7.2 (28276) - http://www.bohemiancoding.com/sketch -->
    <title>spo-pin-bowl</title>
    <desc>Created with Sketch.</desc>
    <defs></defs>
    <g id="44px-Line" stroke="none" stroke-width="1" fill="none" fill-rule="evenodd">
        <g id="spo-pin-bowl"></g>
        <path d="M14,30 C14,37.72 20.28,44 28,44 C35.72,44 42,37.72 42,30 C42,22.28 35.72,16 28,16 C20.28,16 14,22.28 14,30 L14,30 Z M40,30 C40,36.617 34.617,42 28,42 C21.383,42 16,36.617 16,30 C16,23.383 21.383,18 28,18 C34.617,18 40,23.383 40,30 L40,30 Z" id="Shape" fill="#000000"></path>
        <circle id="Oval" fill="#000000" cx="28" cy="28.015" r="2"></circle>
        <circle id="Oval" fill="#000000" cx="28" cy="22.015" r="2"></circle>
        <circle id="Oval" fill="#000000" cx="22" cy="26.015" r="2"></circle>
        <path d="M4.2,44 L13.8,44 C14.193,44 14.548,43.771 14.71,43.414 C14.728,43.376 15.137,42.472 15.665,41.028 C15.854,40.509 15.588,39.935 15.069,39.745 C14.55,39.555 13.975,39.822 13.786,40.34 C13.53,41.04 13.303,41.609 13.14,42 L4.86,42 C4.121,40.211 2,34.656 2,29.778 C2,26.67 3.314,23.685 4.585,20.799 C5.004,19.847 5.414,18.915 5.765,18 L12.234,18 C12.567,18.868 12.941,19.722 13.299,20.536 C13.463,20.911 13.83,21.134 14.215,21.134 C14.349,21.134 14.486,21.107 14.616,21.049 C15.122,20.826 15.351,20.237 15.129,19.731 C13.999,17.162 13.199,15.207 13.199,13.445 C13.199,11.014 13.68,9.786 14.105,8.704 C14.461,7.794 14.798,6.934 14.798,5.667 C14.798,2.542 12.196,-5.68434189e-14 8.998,-5.68434189e-14 C5.8,-5.68434189e-14 3.198,2.542 3.198,5.667 C3.198,6.934 3.535,7.794 3.891,8.704 C4.316,9.787 4.797,11.014 4.797,13.445 C4.797,15.348 3.804,17.605 2.752,19.993 C1.46,22.926 -0.003,26.249 -0.003,29.778 C-0.003,36.095 3.152,43.118 3.287,43.414 C3.452,43.771 3.808,44 4.2,44 L4.2,44 Z M6.426,16 C6.657,15.132 6.8,14.28 6.8,13.444 C6.8,12.913 6.774,12.443 6.737,12 L11.263,12 C11.226,12.443 11.2,12.913 11.2,13.444 C11.2,14.276 11.347,15.136 11.577,16 L6.426,16 L6.426,16 Z M9,2 C11.096,2 12.8,3.645 12.8,5.667 C12.8,6.556 12.567,7.151 12.244,7.974 C12.021,8.543 11.773,9.183 11.574,10.001 L6.426,10.001 C6.227,9.183 5.979,8.543 5.756,7.974 C5.434,7.151 5.2,6.557 5.2,5.667 C5.2,3.679 6.94,2 9,2 L9,2 Z" id="Shape" fill="#000000"></path>
    </g>
</svg>