<?xml version="1.0" encoding="UTF-8" standalone="no"?>
<svg width="64px" height="64px" viewBox="0 0 64 64" version="1.1" xmlns="http://www.w3.org/2000/svg" xmlns:xlink="http://www.w3.org/1999/xlink">
    <!-- Generator: Sketch 3.7.2 (28276) - http://www.bohemiancoding.com/sketch -->
    <title>spo-sneaker</title>
    <desc>Created with Sketch.</desc>
    <defs></defs>
    <g id="64px-Line" stroke="none" stroke-width="1" fill="none" fill-rule="evenodd">
        <g id="spo-sneaker"></g>
        <path d="M56.063,38.106 L47.08,36.384 C45.326,35.982 43.909,34.455 42.492,32.793 L34.645,23.581 C33.735,22.514 32.21,22.221 30.934,22.87 C28.585,24.068 24.029,24.938 21.258,23.131 C19.246,21.818 18.109,19.425 17.779,15.818 C17.702,14.972 17.121,14.285 16.299,14.067 C15.47,13.843 14.62,14.159 14.132,14.861 L6.778,25.411 C6.778,25.411 6.778,25.411 6.777,25.412 C6.777,25.412 6.777,25.412 6.777,25.413 L4.54,28.622 C4.078,29.284 3.905,30.087 4.052,30.88 C4.198,31.674 4.647,32.361 5.314,32.816 L17.614,41.186 C17.615,41.187 17.615,41.188 17.616,41.188 C17.617,41.189 17.619,41.189 17.62,41.19 L31.191,50.424 C31.269,50.477 31.354,50.514 31.433,50.564 C31.455,50.58 31.467,50.604 31.49,50.619 C31.546,50.655 31.607,50.676 31.667,50.699 C33.072,51.537 34.658,52 36.305,52 L55,52 C57.757,52 60,49.757 60,47 L60,42.99 C60,40.646 58.396,38.641 56.063,38.106 L56.063,38.106 Z M15.788,16 C16.177,20.257 17.608,23.137 20.165,24.807 C23.8,27.177 29.257,25.97 31.842,24.654 C32.289,24.427 32.816,24.519 33.123,24.88 L34.518,26.517 L30.629,28.072 C30.116,28.277 29.866,28.859 30.071,29.372 C30.227,29.764 30.603,30.001 31,30.001 C31.124,30.001 31.25,29.979 31.371,29.93 L35.887,28.124 L37.822,30.395 L33.629,32.072 C33.116,32.277 32.866,32.859 33.071,33.372 C33.227,33.764 33.603,34.001 34,34.001 C34.124,34.001 34.25,33.979 34.371,33.93 L39.19,32.002 L40.97,34.092 C41.022,34.153 41.075,34.212 41.127,34.273 L36.628,36.072 C36.115,36.277 35.865,36.859 36.07,37.372 C36.226,37.764 36.602,38.001 36.999,38.001 C37.123,38.001 37.249,37.979 37.37,37.93 L42.573,35.849 C43.751,37.022 45.041,37.97 46.666,38.343 L55.649,40.065 C57.032,40.381 57.998,41.586 57.998,42.992 L57.998,43.995 L37.068,43.995 C36.458,43.995 35.869,43.815 35.363,43.474 L9.009,25.712 L15.788,16 L15.788,16 Z M55,50 L54,50 L54,49 C54,48.447 53.553,48 53,48 C52.447,48 52,48.447 52,49 L52,50 L50,50 L50,49 C50,48.447 49.553,48 49,48 C48.447,48 48,48.447 48,49 L48,50 L46,50 L46,49 C46,48.447 45.553,48 45,48 C44.447,48 44,48.447 44,49 L44,50 L42,50 L42,49 C42,48.447 41.553,48 41,48 C40.447,48 40,48.447 40,49 L40,50 L38,50 L38,49 C38,48.447 37.553,48 37,48 C36.447,48 36,48.447 36,49 L36,49.977 C35.118,49.939 34.262,49.742 33.463,49.39 L34.016,48.524 C34.313,48.058 34.177,47.44 33.711,47.143 C33.245,46.846 32.627,46.984 32.33,47.448 L31.738,48.375 L29.915,47.134 L30.556,46.196 C30.868,45.74 30.751,45.118 30.295,44.806 C29.838,44.494 29.216,44.612 28.905,45.067 L28.261,46.009 L26.467,44.788 L27.113,43.843 C27.425,43.388 27.308,42.765 26.852,42.453 C26.395,42.141 25.774,42.259 25.462,42.714 L24.813,43.663 L23.019,42.442 L23.67,41.49 C23.982,41.034 23.865,40.412 23.409,40.1 C22.952,39.788 22.331,39.905 22.019,40.361 L21.365,41.317 L19.571,40.096 L20.227,39.136 C20.539,38.68 20.422,38.058 19.966,37.746 C19.51,37.434 18.887,37.551 18.576,38.007 L17.917,38.971 L16.123,37.75 L16.784,36.783 C17.096,36.327 16.979,35.705 16.523,35.393 C16.066,35.081 15.444,35.199 15.133,35.654 L14.469,36.625 L12.675,35.404 L13.341,34.429 C13.653,33.973 13.536,33.351 13.08,33.039 C12.623,32.727 12.002,32.845 11.69,33.3 L11.021,34.279 L9.227,33.058 L9.898,32.076 C10.21,31.62 10.093,30.998 9.637,30.686 C9.18,30.374 8.559,30.492 8.247,30.947 L7.573,31.933 L6.434,31.158 C6.211,31.008 6.063,30.778 6.014,30.514 C5.965,30.249 6.023,29.982 6.176,29.762 L7.861,27.347 L34.242,45.127 C35.079,45.691 36.054,45.989 37.064,45.989 L58,45.989 L58,47 C58,48.654 56.654,50 55,50 L55,50 Z" id="Shape" fill="#000000"></path>
    </g>
</svg>