<?xml version="1.0" encoding="UTF-8" standalone="no"?>
<svg width="44px" height="44px" viewBox="0 0 44 44" version="1.1" xmlns="http://www.w3.org/2000/svg" xmlns:xlink="http://www.w3.org/1999/xlink">
    <!-- Generator: Sketch 3.7.2 (28276) - http://www.bohemiancoding.com/sketch -->
    <title>spo-baseball-bat</title>
    <desc>Created with Sketch.</desc>
    <defs></defs>
    <g id="44px-Glyph" stroke="none" stroke-width="1" fill="none" fill-rule="evenodd">
        <g id="spo-baseball-bat" fill="#000000">
            <path d="M7.5056,41.7273 L17.0706,32.1633 L11.8376,26.9303 L2.2726,36.4943 L1.7066,35.9283 C1.3166,35.5383 0.6836,35.5383 0.2926,35.9283 C-0.0974,36.3193 -0.0974,36.9523 0.2926,37.3433 L1.5646,38.6143 C1.5646,38.6143 1.5646,38.6153 1.5656,38.6153 C1.5656,38.6163 1.5666,38.6163 1.5666,38.6163 L6.6576,43.7073 C6.8526,43.9023 7.1086,44.0003 7.3646,44.0003 C7.6206,44.0003 7.8756,43.9023 8.0716,43.7073 C8.4616,43.3163 8.4616,42.6833 8.0716,42.2933 L7.5056,41.7273 Z" id="Fill-55"></path>
            <path d="M42.916,3.6294 L40.37,1.0844 C38.974,-0.3136 36.536,-0.3156 35.138,1.0844 L24.398,11.8234 C22.704,13.5174 21.43,15.4594 20.198,17.3374 C18.991,19.1774 17.852,20.9164 16.363,22.4044 L13.251,25.5164 L18.484,30.7484 L21.596,27.6374 C23.09,26.1434 24.841,24.9934 26.695,23.7744 C28.569,22.5434 30.508,21.2704 32.176,19.6024 L42.916,8.8624 C44.358,7.4194 44.358,5.0724 42.916,3.6294" id="Fill-56"></path>
            <path d="M38,44 C34.691,44 32,41.309 32,38 C32,34.691 34.691,32 38,32 C41.309,32 44,34.691 44,38 C44,41.309 41.309,44 38,44" id="Fill-57"></path>
        </g>
    </g>
</svg>