<?xml version="1.0" encoding="UTF-8" standalone="no"?>
<svg width="64px" height="64px" viewBox="0 0 64 64" version="1.1" xmlns="http://www.w3.org/2000/svg" xmlns:xlink="http://www.w3.org/1999/xlink">
    <!-- Generator: Sketch 3.7.2 (28276) - http://www.bohemiancoding.com/sketch -->
    <title>spo-table-tennis</title>
    <desc>Created with Sketch.</desc>
    <defs></defs>
    <g id="64px-Line" stroke="none" stroke-width="1" fill="none" fill-rule="evenodd">
        <g id="spo-table-tennis"></g>
        <path d="M7.577,55.145 C8.147,55.713 8.896,55.999 9.644,55.999 C10.393,55.999 11.142,55.714 11.712,55.145 L19.875,46.982 C21.061,45.795 22.519,46.257 25.206,47.243 C27.226,47.983 29.687,48.886 32.632,48.885 C33.163,48.885 33.711,48.852 34.274,48.787 C34.279,48.787 34.284,48.79 34.288,48.79 C34.315,48.79 34.34,48.777 34.367,48.775 C37.946,48.338 42.165,46.46 47.085,41.54 C55.727,32.898 56.338,19.447 48.446,11.555 C40.554,3.663 27.102,4.274 18.461,12.916 C13.537,17.84 11.659,22.06 11.224,25.641 C11.222,25.67 11.212,25.697 11.213,25.727 C10.788,29.409 11.884,32.411 12.758,34.795 C13.743,37.483 14.201,38.941 13.021,40.124 L4.855,48.289 C3.717,49.43 3.717,51.284 4.856,52.425 L7.577,55.145 L7.577,55.145 Z M22.504,44.352 L25.972,40.884 L31.972,46.884 C29.699,46.753 27.711,46.028 25.895,45.363 C24.729,44.936 23.592,44.521 22.504,44.352 L22.504,44.352 Z M19.876,14.328 C27.737,6.467 39.92,5.856 47.033,12.967 C54.144,20.079 53.534,32.262 45.672,40.124 C41.35,44.446 37.753,46.238 34.66,46.745 L26.68,38.765 C26.68,38.765 26.68,38.764 26.679,38.764 C26.678,38.764 26.678,38.764 26.678,38.763 L21.238,33.323 C21.237,33.322 21.237,33.322 21.237,33.321 C21.237,33.32 21.236,33.32 21.235,33.32 L13.255,25.341 C13.761,22.247 15.553,18.65 19.876,14.328 L19.876,14.328 Z M14.637,34.105 C13.972,32.289 13.247,30.302 13.116,28.029 L19.116,34.028 L15.649,37.495 C15.479,36.408 15.064,35.271 14.637,34.105 L14.637,34.105 Z M6.271,49.701 L20.529,35.443 L24.557,39.471 L10.298,53.729 C9.94,54.089 9.351,54.09 8.99,53.73 L6.27,51.009 C5.911,50.648 5.911,50.062 6.271,49.701 L6.271,49.701 Z" id="Shape" fill="#000000"></path>
        <path d="M52,44 C47.589,44 44,47.589 44,52 C44,56.411 47.589,60 52,60 C56.411,60 60,56.411 60,52 C60,47.589 56.411,44 52,44 L52,44 Z M52,58 C48.691,58 46,55.309 46,52 C46,48.691 48.691,46 52,46 C55.309,46 58,48.691 58,52 C58,55.309 55.309,58 52,58 L52,58 Z" id="Shape" fill="#000000"></path>
    </g>
</svg>