<?xml version="1.0" encoding="UTF-8" standalone="no"?>
<svg width="64px" height="64px" viewBox="0 0 64 64" version="1.1" xmlns="http://www.w3.org/2000/svg" xmlns:xlink="http://www.w3.org/1999/xlink">
    <!-- Generator: Sketch 3.7.2 (28276) - http://www.bohemiancoding.com/sketch -->
    <title>spo-whistle</title>
    <desc>Created with Sketch.</desc>
    <defs></defs>
    <g id="64px-Line" stroke="none" stroke-width="1" fill="none" fill-rule="evenodd">
        <g id="spo-whistle"></g>
        <path d="M6,23 L6,29 C6,29.441 6.289,29.83 6.711,29.957 L23.861,35.127 C25.14,35.511 25.999,36.665 25.999,38 C25.999,42.414 27.757,46.523 30.95,49.572 C33.956,52.443 37.851,54 41.989,54 C42.243,54 42.498,53.994 42.753,53.982 C50.917,53.606 57.606,46.918 57.982,38.753 C58.185,34.332 56.619,30.141 53.571,26.949 C50.522,23.757 46.412,21.999 41.999,21.999 L32.999,21.999 C32.734,21.999 32.479,22.104 32.292,22.292 L29,25.586 L25.707,22.293 C25.52,22.105 25.265,22 25,22 L7,22 C6.448,22 6,22.447 6,23 L6,23 Z M8,24 L24.586,24 L28.293,27.707 C28.684,28.098 29.316,28.098 29.707,27.707 L33.414,24 L42,24 C45.862,24 49.458,25.538 52.126,28.332 C54.792,31.124 56.163,34.792 55.985,38.662 C55.656,45.804 49.804,51.655 42.663,51.984 C38.788,52.169 35.125,50.793 32.333,48.126 C29.539,45.458 28,41.862 28,38 C28,35.775 26.568,33.851 24.438,33.212 L8,28.257 L8,24 L8,24 Z" id="Shape" fill="#000000"></path>
        <path d="M42,46 C46.411,46 50,42.411 50,38 C50,33.589 46.411,30 42,30 C37.589,30 34,33.589 34,38 C34,42.411 37.589,46 42,46 L42,46 Z M42,32 C45.309,32 48,34.691 48,38 C48,41.309 45.309,44 42,44 C38.691,44 36,41.309 36,38 C36,34.691 38.691,32 42,32 L42,32 Z" id="Shape" fill="#000000"></path>
        <path d="M30,17 L30,11 C30,10.447 29.552,10 29,10 C28.448,10 28,10.447 28,11 L28,17 C28,17.553 28.448,18 29,18 C29.552,18 30,17.553 30,17 L30,17 Z" id="Shape" fill="#000000"></path>
        <path d="M25,20 C25.256,20 25.512,19.902 25.707,19.707 C26.098,19.316 26.098,18.684 25.707,18.293 L21.707,14.293 C21.316,13.902 20.684,13.902 20.293,14.293 C19.902,14.684 19.902,15.316 20.293,15.707 L24.293,19.707 C24.488,19.902 24.744,20 25,20 L25,20 Z" id="Shape" fill="#000000"></path>
        <path d="M33,20 C33.256,20 33.512,19.902 33.707,19.707 L38.207,15.207 C38.598,14.816 38.598,14.184 38.207,13.793 C37.816,13.402 37.184,13.402 36.793,13.793 L32.293,18.293 C31.902,18.684 31.902,19.316 32.293,19.707 C32.488,19.902 32.744,20 33,20 L33,20 Z" id="Shape" fill="#000000"></path>
    </g>
</svg>