<?xml version="1.0" encoding="UTF-8" standalone="no"?>
<svg width="44px" height="44px" viewBox="0 0 44 44" version="1.1" xmlns="http://www.w3.org/2000/svg" xmlns:xlink="http://www.w3.org/1999/xlink">
    <!-- Generator: Sketch 3.7.2 (28276) - http://www.bohemiancoding.com/sketch -->
    <title>spo-rings</title>
    <desc>Created with Sketch.</desc>
    <defs></defs>
    <g id="44px-Line" stroke="none" stroke-width="1" fill="none" fill-rule="evenodd">
        <g id="spo-rings"></g>
        <path d="M36,26.513 L36,1 C36,0.447 35.552,0 35,0 C34.448,0 34,0.447 34,1 L34,22 L32,22 L32,1 C32,0.447 31.552,0 31,0 C30.448,0 30,0.447 30,1 L30,26.513 C26.431,27.771 24,31.156 24,35 C24,39.963 28.038,44 33,44 C37.962,44 42,39.963 42,35 C42,31.156 39.569,27.771 36,26.513 L36,26.513 Z M34,24 L34,29 C34,29.552 33.551,30 33,30 C32.449,30 32,29.552 32,29 L32,24 L34,24 L34,24 Z M33,42 C29.14,42 26,38.859 26,35 C26,32.258 27.596,29.825 30,28.685 L30,29 C30,30.654 31.346,32 33,32 C34.654,32 36,30.654 36,29 L36,28.685 C38.404,29.826 40,32.258 40,35 C40,38.859 36.86,42 33,42 L33,42 Z" id="Shape" fill="#000000"></path>
        <path d="M14,26.513 L14,1 C14,0.447 13.552,0 13,0 C12.448,0 12,0.447 12,1 L12,22 L10,22 L10,1 C10,0.447 9.552,0 9,0 C8.448,0 8,0.447 8,1 L8,26.513 C4.431,27.771 2,31.156 2,35 C2,39.963 6.038,44 11,44 C15.962,44 20,39.963 20,35 C20,31.156 17.569,27.771 14,26.513 L14,26.513 Z M12,24 L12,29 C12,29.552 11.551,30 11,30 C10.449,30 10,29.552 10,29 L10,24 L12,24 L12,24 Z M11,42 C7.14,42 4,38.859 4,35 C4,32.258 5.596,29.825 8,28.685 L8,29 C8,30.654 9.346,32 11,32 C12.654,32 14,30.654 14,29 L14,28.685 C16.404,29.826 18,32.258 18,35 C18,38.859 14.86,42 11,42 L11,42 Z" id="Shape" fill="#000000"></path>
    </g>
</svg>