<?xml version="1.0" encoding="UTF-8" standalone="no"?>
<svg width="64px" height="64px" viewBox="0 0 64 64" version="1.1" xmlns="http://www.w3.org/2000/svg" xmlns:xlink="http://www.w3.org/1999/xlink">
    <!-- Generator: Sketch 3.7.2 (28276) - http://www.bohemiancoding.com/sketch -->
    <title>tel-record</title>
    <desc>Created with Sketch.</desc>
    <defs></defs>
    <g id="64px-Line" stroke="none" stroke-width="1" fill="none" fill-rule="evenodd">
        <g id="tel-record"></g>
        <path d="M49,36 C44.038,36 40,40.038 40,45 C40,49.962 44.038,54 49,54 C53.962,54 58,49.962 58,45 L58,21 C58,16.038 53.962,12 49,12 C44.038,12 40,16.038 40,21 C40,25.962 44.038,30 49,30 C51.826,30 54.349,28.688 56,26.644 L56,39.356 C54.349,37.312 51.826,36 49,36 L49,36 Z M49,28 C45.14,28 42,24.86 42,21 C42,17.14 45.14,14 49,14 C52.86,14 56,17.14 56,21 C56,24.86 52.86,28 49,28 L49,28 Z M49,52 C45.14,52 42,48.86 42,45 C42,41.14 45.14,38 49,38 C52.86,38 56,41.14 56,45 C56,48.86 52.86,52 49,52 L49,52 Z" id="Shape" fill="#000000"></path>
        <path d="M8,60 L30,60 C32.206,60 34,58.206 34,56 L34,10 C34,7.794 32.206,6 30,6 L8,6 C5.794,6 4,7.794 4,10 L4,56 C4,58.206 5.794,60 8,60 L8,60 Z M32,50 L6,50 L6,16 L32,16 L32,50 L32,50 Z M30,58 L8,58 C6.897,58 6,57.103 6,56 L6,52 L32,52 L32,56 C32,57.103 31.103,58 30,58 L30,58 Z M8,8 L30,8 C31.103,8 32,8.897 32,10 L32,14 L6,14 L6,10 C6,8.897 6.897,8 8,8 L8,8 Z" id="Shape" fill="#000000"></path>
        <path d="M19,12 L23,12 C23.552,12 24,11.552 24,11 C24,10.448 23.552,10 23,10 L19,10 C18.448,10 18,10.448 18,11 C18,11.552 18.448,12 19,12 L19,12 Z" id="Shape" fill="#000000"></path>
        <path d="M15,12 C15.26,12 15.52,11.89 15.71,11.71 C15.89,11.52 16,11.26 16,11 C16,10.74 15.89,10.48 15.71,10.29 C15.33,9.92 14.67,9.92 14.29,10.29 C14.11,10.48 14,10.74 14,11 C14,11.26 14.11,11.52 14.29,11.71 C14.48,11.89 14.74,12 15,12 L15,12 Z" id="Shape" fill="#000000"></path>
        <path d="M19.38,54.08 C19.01,53.93 18.57,54.01 18.29,54.29 C18.11,54.48 18,54.74 18,55 C18,55.13 18.03,55.26 18.08,55.38 C18.13,55.5 18.2,55.61 18.29,55.71 C18.34,55.75 18.39,55.79 18.44,55.83 C18.5,55.87 18.56,55.9 18.62,55.92 C18.68,55.95 18.74,55.97 18.8,55.98 C18.87,55.99 18.94,56 19,56 C19.26,56 19.52,55.89 19.71,55.71 C19.8,55.61 19.87,55.51 19.92,55.38 C19.98,55.26 20,55.13 20,55 C20,54.74 19.89,54.48 19.71,54.29 C19.61,54.2 19.5,54.13 19.38,54.08 L19.38,54.08 Z" id="Shape" fill="#000000"></path>
    </g>
</svg>