<?xml version="1.0" encoding="UTF-8" standalone="no"?>
<svg width="64px" height="64px" viewBox="0 0 64 64" version="1.1" xmlns="http://www.w3.org/2000/svg" xmlns:xlink="http://www.w3.org/1999/xlink">
    <!-- Generator: Sketch 3.7.2 (28276) - http://www.bohemiancoding.com/sketch -->
    <title>tel-cordless-block</title>
    <desc>Created with Sketch.</desc>
    <defs></defs>
    <g id="64px-Line" stroke="none" stroke-width="1" fill="none" fill-rule="evenodd">
        <g id="tel-cordless-block"></g>
        <path d="M28,6 L8,6 C5.794,6 4,7.794 4,10 L4,56 C4,58.206 5.794,60 8,60 L28,60 C30.206,60 32,58.206 32,56 L32,10 C32,7.794 30.206,6 28,6 L28,6 Z M30,56 C30,57.103 29.103,58 28,58 L8,58 C6.897,58 6,57.103 6,56 L6,10 C6,8.897 6.897,8 8,8 L28,8 C29.103,8 30,8.897 30,10 L30,56 L30,56 Z" id="Shape" fill="#000000"></path>
        <path d="M27,12 L9,12 C8.447,12 8,12.447 8,13 L8,25 C8,25.553 8.447,26 9,26 L27,26 C27.553,26 28,25.553 28,25 L28,13 C28,12.447 27.553,12 27,12 L27,12 Z M26,24 L10,24 L10,14 L26,14 L26,24 L26,24 Z" id="Shape" fill="#000000"></path>
        <path d="M11,34 L13,34 C13.553,34 14,33.553 14,33 C14,32.447 13.553,32 13,32 L11,32 C10.447,32 10,32.447 10,33 C10,33.553 10.447,34 11,34 L11,34 Z" id="Shape" fill="#000000"></path>
        <path d="M17,34 L19,34 C19.553,34 20,33.553 20,33 C20,32.447 19.553,32 19,32 L17,32 C16.447,32 16,32.447 16,33 C16,33.553 16.447,34 17,34 L17,34 Z" id="Shape" fill="#000000"></path>
        <path d="M25,32 L23,32 C22.447,32 22,32.447 22,33 C22,33.553 22.447,34 23,34 L25,34 C25.553,34 26,33.553 26,33 C26,32.447 25.553,32 25,32 L25,32 Z" id="Shape" fill="#000000"></path>
        <path d="M11,40 L13,40 C13.553,40 14,39.553 14,39 C14,38.447 13.553,38 13,38 L11,38 C10.447,38 10,38.447 10,39 C10,39.553 10.447,40 11,40 L11,40 Z" id="Shape" fill="#000000"></path>
        <path d="M17,40 L19,40 C19.553,40 20,39.553 20,39 C20,38.447 19.553,38 19,38 L17,38 C16.447,38 16,38.447 16,39 C16,39.553 16.447,40 17,40 L17,40 Z" id="Shape" fill="#000000"></path>
        <path d="M25,38 L23,38 C22.447,38 22,38.447 22,39 C22,39.553 22.447,40 23,40 L25,40 C25.553,40 26,39.553 26,39 C26,38.447 25.553,38 25,38 L25,38 Z" id="Shape" fill="#000000"></path>
        <path d="M11,46 L13,46 C13.553,46 14,45.553 14,45 C14,44.447 13.553,44 13,44 L11,44 C10.447,44 10,44.447 10,45 C10,45.553 10.447,46 11,46 L11,46 Z" id="Shape" fill="#000000"></path>
        <path d="M16,50 L11,50 C10.447,50 10,50.447 10,51 C10,51.553 10.447,52 11,52 L16,52 C16.553,52 17,51.553 17,51 C17,50.447 16.553,50 16,50 L16,50 Z" id="Shape" fill="#000000"></path>
        <path d="M25,50 L20,50 C19.447,50 19,50.447 19,51 C19,51.553 19.447,52 20,52 L25,52 C25.553,52 26,51.553 26,51 C26,50.447 25.553,50 25,50 L25,50 Z" id="Shape" fill="#000000"></path>
        <path d="M20,45 C20,44.447 19.553,44 19,44 L17,44 C16.447,44 16,44.447 16,45 C16,45.553 16.447,46 17,46 L19,46 C19.553,46 20,45.553 20,45 L20,45 Z" id="Shape" fill="#000000"></path>
        <path d="M25,44 L23,44 C22.447,44 22,44.447 22,45 C22,45.553 22.447,46 23,46 L25,46 C25.553,46 26,45.553 26,45 C26,44.447 25.553,44 25,44 L25,44 Z" id="Shape" fill="#000000"></path>
        <path d="M47,6 C43.98,6 41.241,7.225 39.251,9.202 C39.242,9.21 39.23,9.213 39.221,9.222 C39.212,9.231 39.21,9.243 39.201,9.251 C37.225,11.241 36,13.98 36,17 C36,23.065 40.935,28 47,28 C50.02,28 52.759,26.775 54.749,24.798 C54.758,24.79 54.77,24.787 54.779,24.778 C54.788,24.769 54.79,24.757 54.799,24.749 C56.777,22.759 58.001,20.02 58.001,17 C58,10.935 53.065,6 47,6 L47,6 Z M56,17 C56,19.122 55.258,21.071 54.025,22.611 L41.389,9.975 C42.929,8.742 44.878,8 47,8 C51.963,8 56,12.037 56,17 L56,17 Z M38,17 C38,14.878 38.742,12.929 39.975,11.389 L52.611,24.025 C51.071,25.258 49.122,26 47,26 C42.037,26 38,21.963 38,17 L38,17 Z" id="Shape" fill="#000000"></path>
    </g>
</svg>