<?xml version="1.0" encoding="UTF-8" standalone="no"?>
<svg width="64px" height="64px" viewBox="0 0 64 64" version="1.1" xmlns="http://www.w3.org/2000/svg" xmlns:xlink="http://www.w3.org/1999/xlink">
    <!-- Generator: Sketch 3.7.2 (28276) - http://www.bohemiancoding.com/sketch -->
    <title>tel-phone-phone</title>
    <desc>Created with Sketch.</desc>
    <defs></defs>
    <g id="64px-Line" stroke="none" stroke-width="1" fill="none" fill-rule="evenodd">
        <g id="tel-phone-phone"></g>
        <path d="M16,18 C13.794,18 12,19.794 12,22 L12,56 C12,58.206 13.794,60 16,60 L32,60 C34.206,60 36,58.206 36,56 L36,22 C36,19.794 34.206,18 32,18 L16,18 L16,18 Z M34,50 L14,50 L14,28 L34,28 L34,50 L34,50 Z M32,58 L16,58 C14.897,58 14,57.103 14,56 L14,52 L34,52 L34,56 C34,57.103 33.103,58 32,58 L32,58 Z M34,22 L34,26 L14,26 L14,22 C14,20.897 14.897,20 16,20 L32,20 C33.103,20 34,20.897 34,22 L34,22 Z" id="Shape" fill="#000000"></path>
        <path d="M29,22 L23,22 C22.448,22 22,22.448 22,23 C22,23.552 22.448,24 23,24 L29,24 C29.552,24 30,23.552 30,23 C30,22.448 29.552,22 29,22 L29,22 Z" id="Shape" fill="#000000"></path>
        <path d="M18.29,22.29 C18.11,22.48 18,22.74 18,23 C18,23.26 18.11,23.52 18.29,23.71 C18.48,23.89 18.74,24 19,24 C19.26,24 19.52,23.89 19.71,23.71 C19.89,23.52 20,23.26 20,23 C20,22.74 19.89,22.48 19.71,22.29 C19.33,21.92 18.67,21.92 18.29,22.29 L18.29,22.29 Z" id="Shape" fill="#000000"></path>
        <path d="M25,54 L23,54 C22.448,54 22,54.448 22,55 C22,55.552 22.448,56 23,56 L25,56 C25.552,56 26,55.552 26,55 C26,54.448 25.552,54 25,54 L25,54 Z" id="Shape" fill="#000000"></path>
        <path d="M38,45 C38,45.552 38.448,46 39,46 L48,46 C50.206,46 52,44.206 52,42 L52,8 C52,5.794 50.206,4 48,4 L32,4 C29.794,4 28,5.794 28,8 L28,15 C28,15.552 28.448,16 29,16 C29.552,16 30,15.552 30,15 L30,14 L50,14 L50,36 L39,36 C38.448,36 38,36.448 38,37 C38,37.552 38.448,38 39,38 L50,38 L50,42 C50,43.103 49.103,44 48,44 L39,44 C38.448,44 38,44.448 38,45 L38,45 Z M30,12 L30,8 C30,6.897 30.897,6 32,6 L48,6 C49.103,6 50,6.897 50,8 L50,12 L30,12 L30,12 Z" id="Shape" fill="#000000"></path>
        <path d="M45,8 L39,8 C38.448,8 38,8.448 38,9 C38,9.552 38.448,10 39,10 L45,10 C45.552,10 46,9.552 46,9 C46,8.448 45.552,8 45,8 L45,8 Z" id="Shape" fill="#000000"></path>
        <path d="M35.71,8.29 C35.34,7.92 34.67,7.92 34.29,8.29 C34.2,8.39 34.13,8.5 34.08,8.62 C34.03,8.74 34,8.87 34,9 C34,9.26 34.11,9.52 34.29,9.71 C34.48,9.89 34.74,10 35,10 C35.26,10 35.52,9.89 35.71,9.71 C35.89,9.52 36,9.26 36,9 C36,8.87 35.97,8.74 35.92,8.62 C35.87,8.5 35.8,8.39 35.71,8.29 L35.71,8.29 Z" id="Shape" fill="#000000"></path>
        <path d="M43,42 C43.552,42 44,41.552 44,41 C44,40.448 43.552,40 43,40 L41,40 C40.448,40 40,40.448 40,41 C40,41.552 40.448,42 41,42 L43,42 L43,42 Z" id="Shape" fill="#000000"></path>
    </g>
</svg>