<?xml version="1.0" encoding="UTF-8" standalone="no"?>
<svg width="64px" height="64px" viewBox="0 0 64 64" version="1.1" xmlns="http://www.w3.org/2000/svg" xmlns:xlink="http://www.w3.org/1999/xlink">
    <!-- Generator: Sketch 3.7.2 (28276) - http://www.bohemiancoding.com/sketch -->
    <title>tel-cable</title>
    <desc>Created with Sketch.</desc>
    <defs></defs>
    <g id="64px-Line" stroke="none" stroke-width="1" fill="none" fill-rule="evenodd">
        <g id="tel-cable"></g>
        <path d="M56.711,20.912 L54.284,18.46 L54.284,18.46 L54.284,18.46 L51.846,15.997 C51.845,15.996 51.845,15.996 51.845,15.995 C51.845,15.994 51.844,15.994 51.843,15.994 L49.471,13.597 C49.471,13.597 49.471,13.596 49.47,13.596 C49.47,13.596 49.469,13.596 49.469,13.595 L44.725,8.802 C44.707,8.781 44.7,8.755 44.68,8.736 C44.663,8.719 44.64,8.713 44.621,8.698 L42.246,6.299 C41.87,5.918 41.2,5.918 40.824,6.299 L14.824,32.57 C14.439,32.96 14.439,33.587 14.824,33.976 L19.593,38.794 L4.289,54.257 C3.901,54.65 3.904,55.282 4.296,55.671 C4.491,55.863 4.745,55.96 5,55.96 C5.258,55.96 5.515,55.861 5.711,55.663 L21,40.214 L23.593,42.834 L8.289,58.297 C7.901,58.69 7.904,59.322 8.296,59.711 C8.492,59.903 8.746,60 9,60 C9.258,60 9.515,59.901 9.711,59.703 L25,44.255 L29.289,48.589 C29.477,48.779 29.733,48.886 30,48.886 C30.267,48.886 30.523,48.78 30.711,48.589 L56,23.037 L57.593,24.647 L43.289,39.1 C43.194,39.196 43.12,39.31 43.07,39.435 L39.07,49.539 C38.866,50.053 39.118,50.634 39.632,50.837 C39.753,50.885 39.878,50.907 40,50.907 C40.398,50.907 40.775,50.668 40.93,50.275 L44.855,40.362 L59.711,25.35 C60.096,24.96 60.096,24.333 59.711,23.944 L56.711,20.912 L56.711,20.912 Z M30,46.464 L21.705,38.083 C21.705,38.083 21.705,38.082 21.704,38.081 C21.703,38.08 21.703,38.081 21.703,38.08 L16.943,33.27 L41.536,8.421 L42.564,9.46 L31.309,20.914 C30.922,21.309 30.928,21.941 31.322,22.328 C31.516,22.519 31.77,22.615 32.023,22.615 C32.282,22.615 32.541,22.515 32.736,22.316 L43.972,10.882 L45.019,11.939 L33.753,23.403 C33.366,23.798 33.372,24.43 33.766,24.817 C33.96,25.008 34.214,25.104 34.467,25.104 C34.726,25.104 34.985,25.004 35.18,24.805 L46.426,13.36 L47.36,14.304 L36.056,25.726 C35.668,26.119 35.671,26.751 36.063,27.14 C36.258,27.332 36.512,27.429 36.767,27.429 C37.025,27.429 37.282,27.33 37.478,27.132 L48.767,15.725 L49.735,16.703 L38.43,28.127 C38.042,28.52 38.045,29.152 38.437,29.541 C38.632,29.733 38.886,29.83 39.141,29.83 C39.399,29.83 39.656,29.731 39.852,29.533 L51.141,18.127 L52.169,19.166 L40.827,30.545 C40.437,30.937 40.438,31.569 40.829,31.959 C41.024,32.153 41.28,32.251 41.535,32.251 C41.791,32.251 42.048,32.153 42.243,31.957 L53.575,20.588 L54.593,21.616 L30,46.464 L30,46.464 Z" id="Shape" fill="#000000"></path>
        <path d="M27.711,27.985 C27.523,27.795 27.267,27.688 27,27.688 C26.733,27.688 26.477,27.794 26.289,27.985 L22.289,32.026 C21.904,32.416 21.904,33.043 22.289,33.432 L30.289,41.515 C30.477,41.705 30.733,41.812 31,41.812 C31.267,41.812 31.523,41.706 31.711,41.515 L35.711,37.474 C36.096,37.084 36.096,36.457 35.711,36.068 L27.711,27.985 L27.711,27.985 Z M31,39.391 L24.407,32.73 L27,30.11 L33.593,36.771 L31,39.391 L31,39.391 Z" id="Shape" fill="#000000"></path>
    </g>
</svg>