<?xml version="1.0" encoding="UTF-8" standalone="no"?>
<svg width="44px" height="44px" viewBox="0 0 44 44" version="1.1" xmlns="http://www.w3.org/2000/svg" xmlns:xlink="http://www.w3.org/1999/xlink">
    <!-- Generator: Sketch 3.7.2 (28276) - http://www.bohemiancoding.com/sketch -->
    <title>tel-block</title>
    <desc>Created with Sketch.</desc>
    <defs></defs>
    <g id="44px-Glyph" stroke="none" stroke-width="1" fill="none" fill-rule="evenodd">
        <g id="tel-block" fill="#000000">
            <path d="M30,8 C30,6.706 30.416,5.51 31.115,4.529 L39.471,12.885 C38.49,13.584 37.294,14 36,14 C32.691,14 30,11.309 30,8 M42,8 C42,9.294 41.584,10.49 40.885,11.471 L32.529,3.115 C33.51,2.416 34.706,2 36,2 C39.309,2 42,4.691 42,8 M41.672,13.635 C43.11,12.188 44,10.196 44,8 C44,3.589 40.411,0 36,0 C33.803,0 31.812,0.891 30.365,2.329 C30.358,2.335 30.349,2.337 30.343,2.343 C30.336,2.35 30.335,2.359 30.328,2.365 C28.89,3.812 28,5.804 28,8 C28,12.411 31.589,16 36,16 C38.197,16 40.188,15.109 41.635,13.671 C41.642,13.665 41.651,13.663 41.657,13.657 C41.664,13.65 41.665,13.641 41.672,13.635" id="Fill-139"></path>
            <polygon id="Fill-140" points="0 34 24 34 24 10 0 10"></polygon>
            <path d="M6.29,4.29 C6.67,3.92 7.34,3.92 7.71,4.29 C7.89,4.48 8,4.74 8,5 C8,5.26 7.89,5.52 7.71,5.71 C7.519,5.89 7.26,6 7,6 C6.74,6 6.479,5.89 6.29,5.71 C6.109,5.52 6,5.26 6,5 C6,4.74 6.109,4.48 6.29,4.29 L6.29,4.29 Z M11,4 L17,4 C17.553,4 18,4.448 18,5 C18,5.552 17.553,6 17,6 L11,6 C10.447,6 10,5.552 10,5 C10,4.448 10.447,4 11,4 L11,4 Z M24,8 L24,4 C24,1.794 22.206,0 20,0 L4,0 C1.794,0 0,1.794 0,4 L0,8 L24,8 Z" id="Fill-141"></path>
            <path d="M13,40 L11,40 C10.447,40 10,39.552 10,39 C10,38.448 10.447,38 11,38 L13,38 C13.553,38 14,38.448 14,39 C14,39.552 13.553,40 13,40 L13,40 Z M0,36 L0,40 C0,42.206 1.794,44 4,44 L20,44 C22.206,44 24,42.206 24,40 L24,36 L0,36 Z" id="Fill-142"></path>
        </g>
    </g>
</svg>