<?xml version="1.0" encoding="UTF-8" standalone="no"?>
<svg width="64px" height="64px" viewBox="0 0 64 64" version="1.1" xmlns="http://www.w3.org/2000/svg" xmlns:xlink="http://www.w3.org/1999/xlink">
    <!-- Generator: Sketch 3.7.2 (28276) - http://www.bohemiancoding.com/sketch -->
    <title>tel-wifi</title>
    <desc>Created with Sketch.</desc>
    <defs></defs>
    <g id="64px-Line" stroke="none" stroke-width="1" fill="none" fill-rule="evenodd">
        <g id="tel-wifi"></g>
        <path d="M8,60 L32,60 C34.206,60 36,58.206 36,56 L36,8 C36,5.794 34.206,4 32,4 L8,4 C5.794,4 4,5.794 4,8 L4,56 C4,58.206 5.794,60 8,60 L8,60 Z M34,50 L6,50 L6,14 L34,14 L34,50 L34,50 Z M32,58 L8,58 C6.897,58 6,57.103 6,56 L6,52 L34,52 L34,56 C34,57.103 33.103,58 32,58 L32,58 Z M8,6 L32,6 C33.103,6 34,6.897 34,8 L34,12 L6,12 L6,8 C6,6.897 6.897,6 8,6 L8,6 Z" id="Shape" fill="#000000"></path>
        <path d="M19,10 L25,10 C25.553,10 26,9.552 26,9 C26,8.448 25.553,8 25,8 L19,8 C18.447,8 18,8.448 18,9 C18,9.552 18.447,10 19,10 L19,10 Z" id="Shape" fill="#000000"></path>
        <path d="M14.62,9.92 C14.74,9.97 14.87,10 15,10 C15.26,10 15.52,9.89 15.71,9.71 C15.89,9.52 16,9.26 16,9 C16,8.87 15.97,8.74 15.92,8.62 C15.87,8.5 15.8,8.39 15.71,8.29 C15.43,8.01 14.98,7.92 14.62,8.08 C14.49,8.13 14.39,8.2 14.29,8.29 C14.2,8.39 14.13,8.5 14.08,8.62 C14.02,8.74 14,8.87 14,9 C14,9.26 14.109,9.52 14.29,9.71 C14.39,9.8 14.49,9.87 14.62,9.92 L14.62,9.92 Z" id="Shape" fill="#000000"></path>
        <path d="M21,54 L19,54 C18.447,54 18,54.448 18,55 C18,55.552 18.447,56 19,56 L21,56 C21.553,56 22,55.552 22,55 C22,54.448 21.553,54 21,54 L21,54 Z" id="Shape" fill="#000000"></path>
        <path d="M39.293,39.163 C39.488,39.358 39.744,39.456 40,39.456 C40.256,39.456 40.512,39.358 40.707,39.164 C42.785,37.087 43.93,34.324 43.93,31.385 C43.93,28.447 42.785,25.684 40.707,23.607 C40.316,23.217 39.684,23.217 39.293,23.607 C38.902,23.997 38.902,24.631 39.293,25.022 C40.993,26.721 41.93,28.981 41.93,31.385 C41.93,33.79 40.993,36.05 39.293,37.749 C38.902,38.139 38.902,38.772 39.293,39.163 L39.293,39.163 Z" id="Shape" fill="#000000"></path>
        <path d="M44.949,44.82 C45.144,45.015 45.4,45.113 45.656,45.113 C45.912,45.113 46.168,45.015 46.363,44.82 C49.953,41.231 51.929,36.459 51.929,31.384 C51.929,26.31 49.952,21.539 46.363,17.95 C45.972,17.559 45.34,17.559 44.949,17.95 C44.558,18.341 44.558,18.974 44.949,19.364 C48.161,22.575 49.929,26.843 49.929,31.384 C49.929,35.925 48.16,40.194 44.949,43.405 C44.559,43.797 44.559,44.43 44.949,44.82 L44.949,44.82 Z" id="Shape" fill="#000000"></path>
        <path d="M57.93,31.385 C57.93,38.062 55.329,44.34 50.608,49.062 C50.217,49.453 50.217,50.085 50.608,50.476 C50.803,50.671 51.059,50.769 51.315,50.769 C51.571,50.769 51.827,50.671 52.022,50.476 C57.122,45.376 59.93,38.597 59.93,31.385 C59.93,24.174 57.121,17.394 52.022,12.293 C51.631,11.902 50.999,11.902 50.608,12.293 C50.217,12.683 50.217,13.316 50.608,13.707 C55.329,18.43 57.93,24.708 57.93,31.385 L57.93,31.385 Z" id="Shape" fill="#000000"></path>
    </g>
</svg>