<?xml version="1.0" encoding="UTF-8" standalone="no"?>
<svg width="64px" height="64px" viewBox="0 0 64 64" version="1.1" xmlns="http://www.w3.org/2000/svg" xmlns:xlink="http://www.w3.org/1999/xlink">
    <!-- Generator: Sketch 3.7.2 (28276) - http://www.bohemiancoding.com/sketch -->
    <title>tel-plus</title>
    <desc>Created with Sketch.</desc>
    <defs></defs>
    <g id="64px-Line" stroke="none" stroke-width="1" fill="none" fill-rule="evenodd">
        <g id="tel-plus"></g>
        <path d="M12,56 L29.15,56 C29.703,56 30.15,55.552 30.15,55 C30.15,54.448 29.703,54 29.15,54 L12,54 C10.897,54 10,53.103 10,52 L10,48 L27,48 C27.553,48 28,47.552 28,47 C28,46.448 27.553,46 27,46 L10,46 L10,14 L34,14 L34,33.149 C34,33.701 34.447,34.149 35,34.149 C35.553,34.149 36,33.701 36,33.149 L36,8 C36,5.794 34.206,4 32,4 L12,4 C9.794,4 8,5.794 8,8 L8,52 C8,54.206 9.794,56 12,56 L12,56 Z M12,6 L32,6 C33.103,6 34,6.897 34,8 L34,12 L10,12 L10,8 C10,6.897 10.897,6 12,6 L12,6 Z" id="Shape" fill="#000000"></path>
        <path d="M21,10 L27,10 C27.553,10 28,9.552 28,9 C28,8.448 27.553,8 27,8 L21,8 C20.447,8 20,8.448 20,9 C20,9.552 20.447,10 21,10 L21,10 Z" id="Shape" fill="#000000"></path>
        <path d="M16.08,9.38 C16.1,9.44 16.13,9.5 16.17,9.56 C16.21,9.61 16.25,9.66 16.29,9.71 C16.479,9.89 16.74,10 17,10 C17.069,10 17.13,9.99 17.2,9.98 C17.26,9.97 17.319,9.95 17.38,9.92 C17.44,9.9 17.5,9.87 17.56,9.83 C17.61,9.79 17.661,9.75 17.71,9.71 C17.75,9.66 17.79,9.61 17.83,9.56 C17.87,9.5 17.899,9.44 17.92,9.38 C17.95,9.32 17.97,9.26 17.98,9.2 C17.99,9.13 18,9.07 18,9 C18,8.74 17.89,8.48 17.71,8.29 C17.66,8.25 17.609,8.21 17.56,8.17 C17.5,8.13 17.44,8.1 17.38,8.08 C17.319,8.05 17.26,8.03 17.2,8.02 C17,7.98 16.8,8 16.62,8.08 C16.49,8.13 16.39,8.2 16.29,8.29 C16.109,8.48 16,8.74 16,9 C16,9.07 16,9.13 16.02,9.2 C16.03,9.26 16.05,9.32 16.08,9.38 L16.08,9.38 Z" id="Shape" fill="#000000"></path>
        <path d="M21,50 C20.447,50 20,50.448 20,51 C20,51.552 20.447,52 21,52 L23,52 C23.553,52 24,51.552 24,51 C24,50.448 23.553,50 23,50 L21,50 L21,50 Z" id="Shape" fill="#000000"></path>
        <path d="M30,47 C30,54.168 35.832,60 43,60 C50.168,60 56,54.168 56,47 C56,39.832 50.168,34 43,34 C35.832,34 30,39.832 30,47 L30,47 Z M43,36 C49.065,36 54,40.935 54,47 C54,53.065 49.065,58 43,58 C36.935,58 32,53.065 32,47 C32,40.935 36.935,36 43,36 L43,36 Z" id="Shape" fill="#000000"></path>
        <path d="M37,48 L42,48 L42,53 C42,53.552 42.447,54 43,54 C43.553,54 44,53.552 44,53 L44,48 L49,48 C49.553,48 50,47.552 50,47 C50,46.448 49.553,46 49,46 L44,46 L44,41 C44,40.448 43.553,40 43,40 C42.447,40 42,40.448 42,41 L42,46 L37,46 C36.447,46 36,46.448 36,47 C36,47.552 36.447,48 37,48 L37,48 Z" id="Shape" fill="#000000"></path>
    </g>
</svg>