<?xml version="1.0" encoding="UTF-8" standalone="no"?>
<svg width="64px" height="64px" viewBox="0 0 64 64" version="1.1" xmlns="http://www.w3.org/2000/svg" xmlns:xlink="http://www.w3.org/1999/xlink">
    <!-- Generator: Sketch 3.7.2 (28276) - http://www.bohemiancoding.com/sketch -->
    <title>tel-fixed-receive</title>
    <desc>Created with Sketch.</desc>
    <defs></defs>
    <g id="64px-Line" stroke="none" stroke-width="1" fill="none" fill-rule="evenodd">
        <g id="tel-fixed-receive"></g>
        <path d="M16.865,62 L18.995,62 C18.997,62 18.998,62.001 19,62.001 C19.002,62.001 19.003,62 19.005,62 L22.547,62 C24.451,61.999 26.001,60.449 26.001,58.546 L26.001,47.455 C26.001,45.551 24.452,44.001 22.547,44.001 L17.273,44.001 C15.969,44.001 13.365,39.244 13.365,32.999 C13.366,30.197 13.923,27.289 14.893,25.02 C15.841,22.804 16.836,22 17.275,22 L17.275,22 L22.547,21.998 C24.452,21.998 26.001,20.448 26.001,18.543 L26.001,7.453 C26.001,5.549 24.452,4 22.547,4 L19.004,4 C19.003,4 19.002,3.999 19,3.999 C18.998,3.999 18.998,4 18.996,4 L16.862,3.999 C9.771,4.001 4,17.012 4,33.001 C4,40.297 5.294,47.578 7.552,52.978 C9.984,58.796 13.291,62 16.865,62 L16.865,62 L16.865,62 Z M24,47.455 L24,58.546 C24,59.347 23.347,59.999 22.546,60 L20,60 L20,46.001 L22.546,46.001 C23.348,46.001 24,46.653 24,47.455 L24,47.455 Z M24,7.454 L24,18.544 C24,19.347 23.348,19.999 22.545,19.999 L20,20 L20,6 L22.546,6.001 C23.348,6.001 24,6.653 24,7.454 L24,7.454 Z M9.397,52.206 C7.238,47.042 6,40.041 6,33.001 C6,18.618 11.077,6.001 16.863,5.999 L18,5.999 L18,20 L17.274,20 L17.272,20 C15.718,20 14.22,21.504 13.052,24.233 C11.98,26.741 11.364,29.935 11.363,32.998 C11.363,39.136 13.89,46 17.271,46 L18,46 L18,60 L16.865,60 L16.865,60 C14.189,60 11.468,57.159 9.397,52.206 L9.397,52.206 Z" id="Shape" fill="#000000"></path>
        <path d="M59,31.999 L29.414,31.999 L35.707,25.706 C36.098,25.315 36.098,24.683 35.707,24.292 C35.316,23.901 34.684,23.901 34.293,24.292 L26.294,32.291 C26.201,32.383 26.128,32.494 26.077,32.617 C25.976,32.861 25.976,33.137 26.077,33.381 C26.128,33.504 26.201,33.614 26.294,33.707 L34.293,41.706 C34.488,41.901 34.744,41.999 35,41.999 C35.256,41.999 35.512,41.901 35.707,41.706 C36.098,41.315 36.098,40.683 35.707,40.292 L29.414,33.999 L59,33.999 C59.552,33.999 60,33.552 60,32.999 C60,32.446 59.552,31.999 59,31.999 L59,31.999 Z" id="Shape" fill="#000000"></path>
    </g>
</svg>