<?xml version="1.0" encoding="UTF-8" standalone="no"?>
<svg width="64px" height="64px" viewBox="0 0 64 64" version="1.1" xmlns="http://www.w3.org/2000/svg" xmlns:xlink="http://www.w3.org/1999/xlink">
    <!-- Generator: Sketch 3.7.2 (28276) - http://www.bohemiancoding.com/sketch -->
    <title>tel-headset-generic</title>
    <desc>Created with Sketch.</desc>
    <defs></defs>
    <g id="64px-Line" stroke="none" stroke-width="1" fill="none" fill-rule="evenodd">
        <g id="tel-headset-generic"></g>
        <path d="M41.418,28.736 L43.588,28.302 C44.896,28.042 45.857,26.939 45.976,25.63 L47.447,24.894 C47.786,24.724 48,24.378 48,23.999 L48,20.999 C48,20.62 47.786,20.274 47.447,20.104 L45.952,19.356 C45.465,12.127 39.816,6.35 32.675,6.014 C28.811,5.826 25.133,7.2 22.338,9.868 C19.692,12.392 18.171,15.748 18.014,19.374 L16.553,20.104 C16.214,20.274 16,20.62 16,20.999 L16,23.999 C16,24.378 16.214,24.724 16.553,24.894 L18.553,25.894 C18.863,26.048 19.231,26.033 19.526,25.85 C19.82,25.668 20,25.347 20,25 L20,20.021 L20,19.98 C20.005,16.675 21.326,13.599 23.718,11.317 C26.114,9.03 29.26,7.848 32.581,8.014 C38.984,8.315 43.999,13.742 43.999,20.368 L43.999,25.361 C43.999,25.837 43.661,26.249 43.195,26.341 L41.887,26.603 C41.953,26.084 41.999,25.554 41.999,25.001 L41.999,20.001 C41.999,14.487 37.513,10.001 31.999,10.001 C26.485,10.001 21.999,14.487 21.999,20.001 L21.999,25.001 C21.999,31.795 27.19,36.001 31.999,36.001 C35.851,36 39.939,33.298 41.418,28.736 L41.418,28.736 Z M32,34 C28.153,34 24,30.559 24,25 L24,20 C24,15.589 27.589,12 32,12 C36.411,12 40,15.589 40,20 L40,25 C40,25.709 39.931,26.382 39.805,27.019 L34.804,28.019 C34.262,28.127 33.911,28.654 34.02,29.196 C34.115,29.672 34.533,30 34.999,30 C35.064,30 35.13,29.994 35.196,29.98 L39.081,29.203 C37.646,32.235 34.749,34 32,34 L32,34 Z" id="Shape" fill="#000000"></path>
        <path d="M32,36 C19.869,36 10,45.869 10,58 L10,59 C10,59.553 10.448,60 11,60 L53,60 C53.552,60 54,59.553 54,59 L54,58 C54,45.869 44.131,36 32,36 L32,36 Z M12,58 C12,46.972 20.972,38 32,38 C43.028,38 52,46.972 52,58 L12,58 L12,58 Z" id="Shape" fill="#000000"></path>
    </g>
</svg>