<?xml version="1.0" encoding="UTF-8" standalone="no"?>
<svg width="64px" height="64px" viewBox="0 0 64 64" version="1.1" xmlns="http://www.w3.org/2000/svg" xmlns:xlink="http://www.w3.org/1999/xlink">
    <!-- Generator: Sketch 3.7.2 (28276) - http://www.bohemiancoding.com/sketch -->
    <title>tel-cordless-base-2</title>
    <desc>Created with Sketch.</desc>
    <defs></defs>
    <g id="64px-Line" stroke="none" stroke-width="1" fill="none" fill-rule="evenodd">
        <g id="tel-cordless-base-2"></g>
        <path d="M25,22 L39,22 C39.552,22 40,21.553 40,21 L40,11 C40,10.447 39.552,10 39,10 L25,10 C24.448,10 24,10.447 24,11 L24,21 C24,21.553 24.448,22 25,22 L25,22 Z M26,12 L38,12 L38,20 L26,20 L26,12 L26,12 Z" id="Shape" fill="#000000"></path>
        <path d="M25,28 L27,28 C27.552,28 28,27.553 28,27 C28,26.447 27.552,26 27,26 L25,26 C24.448,26 24,26.447 24,27 C24,27.553 24.448,28 25,28 L25,28 Z" id="Shape" fill="#000000"></path>
        <path d="M31,28 L33,28 C33.552,28 34,27.553 34,27 C34,26.447 33.552,26 33,26 L31,26 C30.448,26 30,26.447 30,27 C30,27.553 30.448,28 31,28 L31,28 Z" id="Shape" fill="#000000"></path>
        <path d="M39,26 L37,26 C36.448,26 36,26.447 36,27 C36,27.553 36.448,28 37,28 L39,28 C39.552,28 40,27.553 40,27 C40,26.447 39.552,26 39,26 L39,26 Z" id="Shape" fill="#000000"></path>
        <path d="M25,34 L27,34 C27.552,34 28,33.553 28,33 C28,32.447 27.552,32 27,32 L25,32 C24.448,32 24,32.447 24,33 C24,33.553 24.448,34 25,34 L25,34 Z" id="Shape" fill="#000000"></path>
        <path d="M31,34 L33,34 C33.552,34 34,33.553 34,33 C34,32.447 33.552,32 33,32 L31,32 C30.448,32 30,32.447 30,33 C30,33.553 30.448,34 31,34 L31,34 Z" id="Shape" fill="#000000"></path>
        <path d="M39,32 L37,32 C36.448,32 36,32.447 36,33 C36,33.553 36.448,34 37,34 L39,34 C39.552,34 40,33.553 40,33 C40,32.447 39.552,32 39,32 L39,32 Z" id="Shape" fill="#000000"></path>
        <path d="M25,40 L27,40 C27.552,40 28,39.553 28,39 C28,38.447 27.552,38 27,38 L25,38 C24.448,38 24,38.447 24,39 C24,39.553 24.448,40 25,40 L25,40 Z" id="Shape" fill="#000000"></path>
        <path d="M30,44 L25,44 C24.448,44 24,44.447 24,45 C24,45.553 24.448,46 25,46 L30,46 C30.552,46 31,45.553 31,45 C31,44.447 30.552,44 30,44 L30,44 Z" id="Shape" fill="#000000"></path>
        <path d="M39,44 L34,44 C33.448,44 33,44.447 33,45 C33,45.553 33.448,46 34,46 L39,46 C39.552,46 40,45.553 40,45 C40,44.447 39.552,44 39,44 L39,44 Z" id="Shape" fill="#000000"></path>
        <path d="M34,39 C34,38.447 33.552,38 33,38 L31,38 C30.448,38 30,38.447 30,39 C30,39.553 30.448,40 31,40 L33,40 C33.552,40 34,39.553 34,39 L34,39 Z" id="Shape" fill="#000000"></path>
        <path d="M39,38 L37,38 C36.448,38 36,38.447 36,39 C36,39.553 36.448,40 37,40 L39,40 C39.552,40 40,39.553 40,39 C40,38.447 39.552,38 39,38 L39,38 Z" id="Shape" fill="#000000"></path>
        <path d="M44,39.657 L44,10 C44,7.794 42.206,6 40,6 L24,6 C21.794,6 20,7.794 20,10 L20,39.657 C16.19,41.634 14,44.459 14,47.5 C14,53.202 17.123,60 32,60 C43.607,60 50,55.561 50,47.5 C50,44.46 47.81,41.633 44,39.657 L44,39.657 Z M22,10 C22,8.897 22.897,8 24,8 L40,8 C41.103,8 42,8.897 42,10 L42,48.331 C40.661,48.841 37.06,50 32,50 C26.965,50 23.345,48.839 22,48.329 L22,10 L22,10 Z M32,58 C21.383,58 16,54.468 16,47.5 C16,45.465 17.445,43.492 20,41.938 L20,49 C20,49.388 20.224,49.74 20.574,49.905 C20.756,49.99 25.106,52 32,52 C38.894,52 43.244,49.99 43.426,49.905 C43.776,49.74 44,49.388 44,49 L44,41.937 C46.555,43.491 48,45.464 48,47.5 C48,56.179 39.299,58 32,58 L32,58 Z" id="Shape" fill="#000000"></path>
    </g>
</svg>