<?xml version="1.0" encoding="UTF-8" standalone="no"?>
<svg width="64px" height="64px" viewBox="0 0 64 64" version="1.1" xmlns="http://www.w3.org/2000/svg" xmlns:xlink="http://www.w3.org/1999/xlink">
    <!-- Generator: Sketch 3.7.2 (28276) - http://www.bohemiancoding.com/sketch -->
    <title>tel-flip</title>
    <desc>Created with Sketch.</desc>
    <defs></defs>
    <g id="64px-Line" stroke="none" stroke-width="1" fill="none" fill-rule="evenodd">
        <g id="tel-flip"></g>
        <path d="M50.593,24.968 C52.758,25.933 54,27.038 54,28 C54,30.251 47.475,33.123 36.933,33.834 C36.382,33.871 35.965,34.348 36.003,34.899 C36.039,35.427 36.478,35.832 37,35.832 C37.022,35.832 37.045,35.832 37.068,35.83 C45.801,35.24 56,32.835 56,28 C56,26.134 54.455,24.5 51.407,23.141 C50.903,22.918 50.311,23.143 50.086,23.647 C49.862,24.152 50.088,24.743 50.593,24.968 L50.593,24.968 Z" id="Shape" fill="#000000"></path>
        <path d="M30.601,35.985 L28.293,38.293 C27.902,38.684 27.902,39.316 28.293,39.707 C28.488,39.902 28.744,40 29,40 C29.256,40 29.512,39.902 29.707,39.707 L33.707,35.707 C33.905,35.509 34.001,35.249 33.998,34.99 C33.998,34.987 34,34.984 34,34.98 C33.999,34.905 33.972,34.839 33.955,34.769 C33.943,34.719 33.943,34.666 33.923,34.618 C33.868,34.482 33.785,34.363 33.679,34.265 L29.707,30.293 C29.316,29.902 28.684,29.902 28.293,30.293 C27.902,30.684 27.902,31.316 28.293,31.707 L30.563,33.977 C17.793,33.74 10,30.415 10,28 C10,27.038 11.242,25.933 13.407,24.968 C13.911,24.743 14.138,24.152 13.913,23.647 C13.687,23.143 13.095,22.917 12.592,23.141 C9.545,24.5 8,26.134 8,28 C8,32.988 19.396,35.77 30.601,35.985 L30.601,35.985 Z" id="Shape" fill="#000000"></path>
        <path d="M17,30.306 C17.552,30.306 18,29.858 18,29.306 L18,14 L46,14 L46,29.305 C46,29.857 46.448,30.305 47,30.305 C47.552,30.305 48,29.857 48,29.305 L48,8 C48,5.794 46.206,4 44,4 L20,4 C17.794,4 16,5.794 16,8 L16,29.306 C16,29.858 16.448,30.306 17,30.306 L17,30.306 Z M20,6 L44,6 C45.103,6 46,6.897 46,8 L46,12 L18,12 L18,8 C18,6.897 18.897,6 20,6 L20,6 Z" id="Shape" fill="#000000"></path>
        <path d="M17,36.307 C16.448,36.307 16,36.755 16,37.307 L16,56 C16,58.206 17.794,60 20,60 L44,60 C46.206,60 48,58.206 48,56 L48,37.305 C48,36.753 47.552,36.305 47,36.305 C46.448,36.305 46,36.753 46,37.305 L46,50 L18,50 L18,37.307 C18,36.754 17.552,36.307 17,36.307 L17,36.307 Z M46,52 L46,56 C46,57.103 45.103,58 44,58 L20,58 C18.897,58 18,57.103 18,56 L18,52 L46,52 L46,52 Z" id="Shape" fill="#000000"></path>
        <path d="M31,10 L37,10 C37.552,10 38,9.552 38,9 C38,8.448 37.552,8 37,8 L31,8 C30.448,8 30,8.448 30,9 C30,9.552 30.448,10 31,10 L31,10 Z" id="Shape" fill="#000000"></path>
        <path d="M26.62,9.92 C26.74,9.97 26.87,10 27,10 C27.26,10 27.52,9.89 27.71,9.71 C27.75,9.66 27.79,9.61 27.83,9.55 C27.87,9.5 27.9,9.44 27.92,9.38 C27.95,9.32 27.97,9.26 27.98,9.2 C27.99,9.13 28,9.07 28,9 C28,8.74 27.89,8.48 27.71,8.29 C27.43,8.01 26.99,7.92 26.62,8.08 C26.5,8.13 26.39,8.2 26.29,8.29 C26.11,8.48 26,8.74 26,9 C26,9.26 26.11,9.52 26.29,9.71 C26.39,9.8 26.5,9.87 26.62,9.92 L26.62,9.92 Z" id="Shape" fill="#000000"></path>
        <path d="M31,56 L33,56 C33.552,56 34,55.552 34,55 C34,54.448 33.552,54 33,54 L31,54 C30.448,54 30,54.448 30,55 C30,55.552 30.448,56 31,56 L31,56 Z" id="Shape" fill="#000000"></path>
    </g>
</svg>