<?xml version="1.0" encoding="UTF-8" standalone="no"?>
<svg width="64px" height="64px" viewBox="0 0 64 64" version="1.1" xmlns="http://www.w3.org/2000/svg" xmlns:xlink="http://www.w3.org/1999/xlink">
    <!-- Generator: Sketch 3.7.2 (28276) - http://www.bohemiancoding.com/sketch -->
    <title>tel-phone</title>
    <desc>Created with Sketch.</desc>
    <defs></defs>
    <g id="64px-Line" stroke="none" stroke-width="1" fill="none" fill-rule="evenodd">
        <g id="tel-phone"></g>
        <path d="M20,60 L44,60 C46.206,60 48,58.206 48,56 L48,8 C48,5.794 46.206,4 44,4 L20,4 C17.794,4 16,5.794 16,8 L16,56 C16,58.206 17.794,60 20,60 L20,60 Z M46,50 L18,50 L18,14 L46,14 L46,50 L46,50 Z M44,58 L20,58 C18.897,58 18,57.103 18,56 L18,52 L46,52 L46,56 C46,57.103 45.103,58 44,58 L44,58 Z M20,6 L44,6 C45.103,6 46,6.897 46,8 L46,12 L18,12 L18,8 C18,6.897 18.897,6 20,6 L20,6 Z" id="Shape" fill="#000000"></path>
        <path d="M31,10 L37,10 C37.552,10 38,9.552 38,9 C38,8.448 37.552,8 37,8 L31,8 C30.448,8 30,8.448 30,9 C30,9.552 30.448,10 31,10 L31,10 Z" id="Shape" fill="#000000"></path>
        <path d="M26.29,9.71 C26.48,9.89 26.74,10 27,10 C27.26,10 27.52,9.89 27.71,9.71 C27.8,9.61 27.87,9.51 27.92,9.38 C27.97,9.26 28,9.13 28,9 C28,8.74 27.89,8.48 27.71,8.29 C27.43,8.02 26.99,7.93 26.62,8.08 C26.5,8.13 26.39,8.2 26.29,8.29 C26.11,8.48 26,8.74 26,9 C26,9.13 26.03,9.26 26.08,9.38 C26.13,9.5 26.2,9.61 26.29,9.71 L26.29,9.71 Z" id="Shape" fill="#000000"></path>
        <path d="M33,54 L31,54 C30.448,54 30,54.448 30,55 C30,55.552 30.448,56 31,56 L33,56 C33.552,56 34,55.552 34,55 C34,54.448 33.552,54 33,54 L33,54 Z" id="Shape" fill="#000000"></path>
    </g>
</svg>