<?xml version="1.0" encoding="UTF-8" standalone="no"?>
<svg width="64px" height="64px" viewBox="0 0 64 64" version="1.1" xmlns="http://www.w3.org/2000/svg" xmlns:xlink="http://www.w3.org/1999/xlink">
    <!-- Generator: Sketch 3.7.2 (28276) - http://www.bohemiancoding.com/sketch -->
    <title>tel-string-cups</title>
    <desc>Created with Sketch.</desc>
    <defs></defs>
    <g id="64px-Line" stroke="none" stroke-width="1" fill="none" fill-rule="evenodd">
        <g id="tel-string-cups"></g>
        <path d="M57,52 L55.883,52 L53.992,36.876 C53.93,36.376 53.504,36 53,36 L48,36 L48,29 C48,24.037 43.962,20 39,20 C34.038,20 30,24.037 30,29 L30,39 C30,42.859 26.86,46 23,46 C19.14,46 16,42.859 16,39 L16,30 L21,30 C21.504,30 21.93,29.624 21.992,29.124 L23.883,14 L25,14 C25.552,14 26,13.553 26,13 L26,7 C26,6.447 25.552,6 25,6 L5,6 C4.448,6 4,6.447 4,7 L4,13 C4,13.553 4.448,14 5,14 L6.117,14 L8.008,29.124 C8.07,29.624 8.496,30 9,30 L14,30 L14,39 C14,43.963 18.038,48 23,48 C27.962,48 32,43.963 32,39 L32,29 C32,25.141 35.14,22 39,22 C42.86,22 46,25.141 46,29 L46,36 L41,36 C40.496,36 40.07,36.376 40.008,36.876 L38.117,52 L37,52 C36.448,52 36,52.447 36,53 L36,59 C36,59.553 36.448,60 37,60 L57,60 C57.552,60 58,59.553 58,59 L58,53 C58,52.447 57.552,52 57,52 L57,52 Z M7,12 L6,12 L6,8 L24,8 L24,12 L23,12 L7,12 L7,12 Z M8.133,14 L21.867,14 L20.117,28 L9.883,28 L8.133,14 L8.133,14 Z M41.883,38 L52.117,38 L53.867,52 L40.133,52 L41.883,38 L41.883,38 Z M56,58 L38,58 L38,54 L39,54 L55,54 L56,54 L56,58 L56,58 Z" id="Shape" fill="#000000"></path>
    </g>
</svg>