<?xml version="1.0" encoding="UTF-8" standalone="no"?>
<svg width="64px" height="64px" viewBox="0 0 64 64" version="1.1" xmlns="http://www.w3.org/2000/svg" xmlns:xlink="http://www.w3.org/1999/xlink">
    <!-- Generator: Sketch 3.7.2 (28276) - http://www.bohemiancoding.com/sketch -->
    <title>tel-3g</title>
    <desc>Created with Sketch.</desc>
    <defs></defs>
    <g id="64px-Line" stroke="none" stroke-width="1" fill="none" fill-rule="evenodd">
        <g id="tel-3g"></g>
        <path d="M43,60 C43.552,60 44,59.553 44,59 L44,49 C44,48.939 43.976,48.886 43.965,48.828 C43.953,48.762 43.95,48.694 43.926,48.633 C43.902,48.572 43.861,48.523 43.825,48.469 C43.791,48.416 43.763,48.358 43.72,48.313 C43.675,48.266 43.618,48.236 43.565,48.198 C43.513,48.162 43.467,48.119 43.409,48.093 C43.348,48.066 43.28,48.06 43.214,48.045 C43.157,48.032 43.105,48.006 43.044,48.003 C43.036,48.003 43.029,48.007 43.022,48.006 C43.014,48.006 43.008,48.002 43,48.002 L37,48.002 C36.448,48.002 36,48.449 36,49.002 C36,49.555 36.448,50.002 37,50.002 L41.925,50.002 C41.396,55.242 38.672,58.002 34,58.002 C28.767,58.002 26,54.544 26,48.002 C26,41.554 28.841,38.002 34,38.002 C36.564,38.002 39.919,38.919 41.342,43.288 C41.513,43.813 42.08,44.1 42.602,43.93 C43.127,43.759 43.414,43.195 43.243,42.669 C41.843,38.368 38.561,36 34,36 C30.993,36 24,37.169 24,48 C24,55.626 27.645,60 34,60 C37.572,60 40.297,58.597 42,56.022 L42,59 C42,59.553 42.448,60 43,60 L43,60 Z" id="Shape" fill="#000000"></path>
        <path d="M13,58 C9.14,58 6,55.757 6,53 C6,52.447 5.552,52 5,52 C4.448,52 4,52.447 4,53 C4,56.859 8.038,60 13,60 C17.962,60 22,56.859 22,53 C22,50.52 20.333,48.336 17.824,47.093 C20.352,46.042 22,44.173 22,42 C22,38.636 18.047,36 13,36 C7.953,36 4,38.636 4,42 C4,42.553 4.448,43 5,43 C5.552,43 6,42.553 6,42 C6,39.832 9.206,38 13,38 C16.794,38 20,39.832 20,42 C20,44.168 16.794,46 13,46 C12.448,46 12,46.447 12,47 C12,47.553 12.448,48 13,48 C16.86,48 20,50.243 20,53 C20,55.757 16.86,58 13,58 L13,58 Z" id="Shape" fill="#000000"></path>
        <path d="M57,32 C57.552,32 58,31.553 58,31 C58,17.215 46.785,6 33,6 C32.448,6 32,6.447 32,7 C32,7.553 32.448,8 33,8 C45.682,8 56,18.317 56,31 C56,31.553 56.448,32 57,32 L57,32 Z" id="Shape" fill="#000000"></path>
        <path d="M49,32 C49.552,32 50,31.553 50,31 C50,21.626 42.374,14 33,14 C32.448,14 32,14.447 32,15 C32,15.553 32.448,16 33,16 C41.271,16 48,22.729 48,31 C48,31.553 48.448,32 49,32 L49,32 Z" id="Shape" fill="#000000"></path>
        <path d="M40,31 C40,31.553 40.448,32 41,32 C41.552,32 42,31.553 42,31 C42,26.037 37.962,22 33,22 C32.448,22 32,22.447 32,23 C32,23.553 32.448,24 33,24 C36.86,24 40,27.141 40,31 L40,31 Z" id="Shape" fill="#000000"></path>
    </g>
</svg>