<?xml version="1.0" encoding="UTF-8" standalone="no"?>
<svg width="64px" height="64px" viewBox="0 0 64 64" version="1.1" xmlns="http://www.w3.org/2000/svg" xmlns:xlink="http://www.w3.org/1999/xlink">
    <!-- Generator: Sketch 3.7.2 (28276) - http://www.bohemiancoding.com/sketch -->
    <title>tel-send</title>
    <desc>Created with Sketch.</desc>
    <defs></defs>
    <g id="64px-Line" stroke="none" stroke-width="1" fill="none" fill-rule="evenodd">
        <g id="tel-send"></g>
        <path d="M12,60 L36,60 C38.206,60 40,58.206 40,56 L40,37 C40,36.448 39.553,36 39,36 C38.447,36 38,36.448 38,37 L38,50 L10,50 L10,14 L38,14 L38,25 C38,25.552 38.447,26 39,26 C39.553,26 40,25.552 40,25 L40,8 C40,5.794 38.206,4 36,4 L12,4 C9.794,4 8,5.794 8,8 L8,56 C8,58.206 9.794,60 12,60 L12,60 Z M38,52 L38,56 C38,57.103 37.103,58 36,58 L12,58 C10.897,58 10,57.103 10,56 L10,52 L38,52 L38,52 Z M12,6 L36,6 C37.103,6 38,6.897 38,8 L38,12 L10,12 L10,8 C10,6.897 10.897,6 12,6 L12,6 Z" id="Shape" fill="#000000"></path>
        <path d="M23,10 L29,10 C29.553,10 30,9.552 30,9 C30,8.448 29.553,8 29,8 L23,8 C22.447,8 22,8.448 22,9 C22,9.552 22.447,10 23,10 L23,10 Z" id="Shape" fill="#000000"></path>
        <path d="M19,10 C19.13,10 19.26,9.97 19.38,9.92 C19.5,9.87 19.609,9.8 19.71,9.71 C19.75,9.66 19.79,9.61 19.83,9.56 C19.87,9.5 19.899,9.44 19.92,9.38 C19.95,9.32 19.97,9.26 19.98,9.2 C19.991,9.13 20.001,9.06 20.001,9 C20.001,8.94 19.991,8.87 19.98,8.8 C19.97,8.74 19.951,8.68 19.92,8.62 C19.899,8.56 19.87,8.5 19.83,8.44 C19.79,8.39 19.75,8.34 19.71,8.29 C19.609,8.2 19.5,8.13 19.38,8.08 C19.14,7.98 18.859,7.98 18.62,8.08 C18.49,8.13 18.39,8.2 18.29,8.29 C18.109,8.48 18,8.73 18,9 C18,9.27 18.109,9.52 18.29,9.71 C18.479,9.89 18.74,10 19,10 L19,10 Z" id="Shape" fill="#000000"></path>
        <path d="M23,56 L25,56 C25.553,56 26,55.552 26,55 C26,54.448 25.553,54 25,54 L23,54 C22.447,54 22,54.448 22,55 C22,55.552 22.447,56 23,56 L23,56 Z" id="Shape" fill="#000000"></path>
        <path d="M55.923,31.382 C56.024,31.138 56.024,30.862 55.923,30.618 C55.872,30.495 55.799,30.385 55.706,30.292 L47.707,22.293 C47.316,21.902 46.684,21.902 46.293,22.293 C45.902,22.684 45.902,23.316 46.293,23.707 L52.586,30 L25,30 C24.447,30 24,30.448 24,31 C24,31.552 24.447,32 25,32 L52.586,32 L46.293,38.293 C45.902,38.684 45.902,39.316 46.293,39.707 C46.488,39.902 46.744,40 47,40 C47.256,40 47.512,39.902 47.707,39.707 L55.706,31.708 C55.799,31.615 55.872,31.505 55.923,31.382 L55.923,31.382 Z" id="Shape" fill="#000000"></path>
    </g>
</svg>