<?xml version="1.0" encoding="UTF-8" standalone="no"?>
<svg width="44px" height="44px" viewBox="0 0 44 44" version="1.1" xmlns="http://www.w3.org/2000/svg" xmlns:xlink="http://www.w3.org/1999/xlink">
    <!-- Generator: Sketch 3.7.2 (28276) - http://www.bohemiancoding.com/sketch -->
    <title>tel-4g</title>
    <desc>Created with Sketch.</desc>
    <defs></defs>
    <g id="44px-Glyph" stroke="none" stroke-width="1" fill="none" fill-rule="evenodd">
        <g id="tel-4g" fill="#000000">
            <path d="M33,44 C32.447,44 32,43.552 32,43 L32,36 L29,36 C28.447,36 28,35.552 28,35 C28,34.448 28.447,34 29,34 L33,34 C33.553,34 34,34.448 34,35 L34,43 C34,43.552 33.553,44 33,44" id="Fill-84"></path>
            <path d="M43,20 C42.447,20 42,19.552 42,19 C42,9.626 34.374,2 25,2 C24.447,2 24,1.552 24,1 C24,0.448 24.447,0 25,0 C35.477,0 44,8.523 44,19 C44,19.552 43.553,20 43,20" id="Fill-85"></path>
            <path d="M26,44 C23.595,44 18,43.025 18,34 C18,27.738 20.99,24 26,24 C29.605,24 32.305,26.039 33.405,29.594 C33.568,30.122 33.273,30.682 32.746,30.845 C32.218,31.012 31.658,30.713 31.495,30.186 C30.424,26.726 27.916,26 26,26 C22.131,26 20,28.841 20,34 C20,37.649 21.041,42 26,42 C29.84,42 31.803,39.697 32.001,34.958 C32.024,34.406 32.512,33.985 33.042,34.001 C33.594,34.024 34.023,34.49 33.999,35.042 C33.673,42.836 28.848,44 26,44" id="Fill-86"></path>
            <path d="M37,20 C36.447,20 36,19.552 36,19 C36,12.935 31.065,8 25,8 C24.447,8 24,7.552 24,7 C24,6.448 24.447,6 25,6 C32.168,6 38,11.831 38,19 C38,19.552 37.553,20 37,20" id="Fill-87"></path>
            <path d="M31,20 C30.447,20 30,19.552 30,19 C30,16.243 27.757,14 25,14 C24.447,14 24,13.552 24,13 C24,12.448 24.447,12 25,12 C28.859,12 32,15.14 32,19 C32,19.552 31.553,20 31,20" id="Fill-88"></path>
            <path d="M2.9434,38 L10.0004,38 L10.0004,28.121 L2.9434,38 Z M11.0004,44 C10.4474,44 10.0004,43.552 10.0004,43 L10.0004,40 L1.0004,40 C0.6254,40 0.2824,39.79 0.1104,39.458 C-0.0606,39.124 -0.0316,38.724 0.1864,38.419 L10.1864,24.419 C10.4394,24.065 10.8914,23.915 11.3054,24.048 C11.7184,24.18 12.0004,24.565 12.0004,25 L12.0004,38 L15.0004,38 C15.5524,38 16.0004,38.448 16.0004,39 C16.0004,39.552 15.5524,40 15.0004,40 L12.0004,40 L12.0004,43 C12.0004,43.552 11.5524,44 11.0004,44 L11.0004,44 Z" id="Fill-89"></path>
        </g>
    </g>
</svg>