<?xml version="1.0" encoding="UTF-8" standalone="no"?>
<svg width="64px" height="64px" viewBox="0 0 64 64" version="1.1" xmlns="http://www.w3.org/2000/svg" xmlns:xlink="http://www.w3.org/1999/xlink">
    <!-- Generator: Sketch 3.7.2 (28276) - http://www.bohemiancoding.com/sketch -->
    <title>tel-settings</title>
    <desc>Created with Sketch.</desc>
    <defs></defs>
    <g id="64px-Line" stroke="none" stroke-width="1" fill="none" fill-rule="evenodd">
        <g id="tel-settings"></g>
        <path d="M35,32 C35.553,32 36,31.552 36,31 L36,8 C36,5.794 34.206,4 32,4 L12,4 C9.794,4 8,5.794 8,8 L8,52 C8,54.206 9.794,56 12,56 L26,56 C26.553,56 27,55.552 27,55 C27,54.448 26.553,54 26,54 L12,54 C10.897,54 10,53.103 10,52 L10,48 L23,48 C23.553,48 24,47.552 24,47 C24,46.448 23.553,46 23,46 L10,46 L10,14 L34,14 L34,31 C34,31.552 34.447,32 35,32 L35,32 Z M10,12 L10,8 C10,6.897 10.897,6 12,6 L32,6 C33.103,6 34,6.897 34,8 L34,12 L10,12 L10,12 Z" id="Shape" fill="#000000"></path>
        <path d="M27,8 L21,8 C20.447,8 20,8.448 20,9 C20,9.552 20.447,10 21,10 L27,10 C27.553,10 28,9.552 28,9 C28,8.448 27.553,8 27,8 L27,8 Z" id="Shape" fill="#000000"></path>
        <path d="M16.62,8.08 C16.49,8.13 16.39,8.2 16.29,8.29 C16.109,8.48 16,8.74 16,9 C16,9.26 16.109,9.52 16.29,9.71 C16.39,9.8 16.49,9.87 16.62,9.92 C16.74,9.97 16.87,10 17,10 C17.26,10 17.52,9.89 17.71,9.71 C17.89,9.52 18,9.26 18,9 C18,8.74 17.89,8.48 17.71,8.29 C17.43,8.01 16.979,7.92 16.62,8.08 L16.62,8.08 Z" id="Shape" fill="#000000"></path>
        <path d="M23,50 L21,50 C20.447,50 20,50.448 20,51 C20,51.552 20.447,52 21,52 L23,52 C23.553,52 24,51.552 24,51 C24,50.448 23.553,50 23,50 L23,50 Z" id="Shape" fill="#000000"></path>
        <path d="M40,52 C43.309,52 46,49.309 46,46 C46,42.691 43.309,40 40,40 C36.691,40 34,42.691 34,46 C34,49.309 36.691,52 40,52 L40,52 Z M40,42 C42.206,42 44,43.794 44,46 C44,48.206 42.206,50 40,50 C37.794,50 36,48.206 36,46 C36,43.794 37.794,42 40,42 L40,42 Z" id="Shape" fill="#000000"></path>
        <path d="M33.769,35.579 C32.997,34.808 31.741,34.809 30.968,35.58 L29.58,36.968 C28.808,37.74 28.808,38.997 29.58,39.77 L30.413,40.603 C29.986,41.359 29.653,42.161 29.417,43 L28,43 C26.897,43 26,43.897 26,45 L26,47 C26,48.103 26.897,49 28,49 L29.419,49 C29.656,49.834 29.992,50.645 30.414,51.396 L29.58,52.23 C28.809,53.001 28.808,54.258 29.58,55.032 L30.968,56.42 C31.739,57.193 32.998,57.191 33.77,56.42 L34.604,55.586 C35.36,56.013 36.162,56.346 37,56.582 L37,58 C37,59.103 37.897,60 39,60 L41,60 C42.103,60 43,59.103 43,58 L43,56.579 C43.836,56.341 44.646,56.005 45.396,55.584 L46.231,56.419 C47.002,57.189 48.258,57.191 49.033,56.419 L50.421,55.03 C51.193,54.258 51.193,53.001 50.421,52.229 L49.589,51.396 C50.016,50.64 50.348,49.838 50.584,48.998 L52,48.998 C53.103,48.998 54,48.101 54,46.998 L54,44.998 C54,43.895 53.103,42.998 52,42.998 L50.581,42.998 C50.344,42.164 50.007,41.354 49.585,40.602 L50.421,39.767 C51.192,38.995 51.192,37.739 50.42,36.966 L49.031,35.577 C48.26,34.806 47.002,34.806 46.23,35.578 L45.397,36.411 C44.637,35.982 43.835,35.647 43,35.411 L43,34 C43,32.897 42.103,32 41,32 L39,32 C37.897,32 37,32.897 37,34 L37,35.413 C36.162,35.649 35.359,35.984 34.602,36.412 L33.769,35.579 L33.769,35.579 Z M38.199,37.179 C38.665,37.084 39,36.675 39,36.199 L39,34 L41,34 L41,36.199 C41,36.675 41.335,37.084 41.801,37.179 C42.942,37.41 44.016,37.858 44.992,38.51 C45.388,38.774 45.916,38.722 46.254,38.385 L47.618,36.994 L49.006,38.355 L47.614,39.746 C47.277,40.083 47.224,40.612 47.489,41.009 C48.126,41.963 48.585,43.066 48.817,44.201 C48.912,44.666 49.322,45 49.796,45 L52,45 L52,47 L49.797,47 C49.321,47 48.911,47.335 48.817,47.801 C48.584,48.951 48.138,50.025 47.493,50.991 C47.227,51.387 47.279,51.916 47.617,52.254 L49.007,53.617 L47.646,55.006 L46.254,53.613 C45.916,53.275 45.386,53.223 44.991,53.489 C44.044,54.122 42.94,54.581 41.8,54.815 C41.335,54.91 41.001,55.32 41.001,55.794 L41.001,58 L39.001,58 L39.001,55.795 C39.001,55.319 38.666,54.91 38.2,54.815 C37.052,54.582 35.978,54.136 35.011,53.489 C34.841,53.376 34.648,53.321 34.455,53.321 C34.197,53.321 33.941,53.421 33.748,53.614 L32.383,55.007 L30.995,53.646 L32.386,52.255 C32.723,51.918 32.776,51.39 32.511,50.993 C31.875,50.041 31.416,48.937 31.184,47.801 C31.089,47.336 30.679,47.002 30.205,47.002 L28,47.002 L28,45.002 L30.203,45.002 C30.679,45.002 31.089,44.667 31.183,44.201 C31.415,43.052 31.862,41.979 32.508,41.011 C32.774,40.614 32.722,40.086 32.384,39.748 L30.993,38.384 L32.354,36.996 L33.745,38.387 C34.083,38.725 34.613,38.775 35.008,38.511 C35.98,37.859 37.054,37.412 38.199,37.179 L38.199,37.179 Z" id="Shape" fill="#000000"></path>
    </g>
</svg>