<?xml version="1.0" encoding="UTF-8" standalone="no"?>
<svg width="64px" height="64px" viewBox="0 0 64 64" version="1.1" xmlns="http://www.w3.org/2000/svg" xmlns:xlink="http://www.w3.org/1999/xlink">
    <!-- Generator: Sketch 3.7.2 (28276) - http://www.bohemiancoding.com/sketch -->
    <title>tel-fixed-handset</title>
    <desc>Created with Sketch.</desc>
    <defs></defs>
    <g id="64px-Line" stroke="none" stroke-width="1" fill="none" fill-rule="evenodd">
        <g id="tel-fixed-handset"></g>
        <path d="M49.82,37.779 C48.282,36.24 45.78,36.24 44.242,37.779 L39.383,42.638 C38.862,43.159 37.239,43.278 34.793,42.363 C32.154,41.376 29.282,39.452 26.914,37.084 C24.546,34.716 22.623,31.844 21.637,29.206 C20.723,26.761 20.841,25.14 21.363,24.617 L26.22,19.758 C26.965,19.013 27.376,18.023 27.376,16.969 C27.376,15.915 26.965,14.925 26.22,14.18 L17.197,5.157 C15.659,3.619 13.157,3.62 11.619,5.157 L8.844,7.931 C8.843,7.932 8.842,7.932 8.841,7.933 C8.84,7.934 8.84,7.935 8.839,7.936 L6.411,10.363 C0.372,16.404 6.013,31.508 19.253,44.748 C25.467,50.963 32.389,55.747 38.742,58.222 C41.797,59.411 44.568,60.004 46.961,60.004 C49.753,60.004 52.03,59.196 53.638,57.588 L56.062,55.164 C56.064,55.162 56.066,55.162 56.068,55.16 C56.07,55.158 56.07,55.156 56.072,55.154 L58.843,52.382 C60.381,50.844 60.381,48.342 58.843,46.804 L49.82,37.779 L49.82,37.779 Z M13.033,6.57 C13.412,6.191 13.91,6.002 14.408,6.002 C14.906,6.002 15.404,6.191 15.783,6.57 L24.806,15.593 C25.564,16.351 25.564,17.585 24.806,18.343 L22.738,20.412 L10.963,8.639 L13.033,6.57 L13.033,6.57 Z M52.225,56.172 C49.87,58.529 45.22,58.596 39.469,56.357 C33.368,53.981 26.691,49.355 20.668,43.333 C8.636,31.301 2.755,16.85 7.826,11.776 L9.549,10.054 L21.325,21.828 L19.95,23.204 C18.704,24.448 18.637,26.892 19.764,29.907 C20.863,32.846 22.9,35.897 25.5,38.499 C28.101,41.101 31.152,43.138 34.092,44.237 C37.109,45.365 39.553,45.299 40.797,44.053 L42.172,42.678 L53.946,54.451 L52.225,56.172 L52.225,56.172 Z M57.43,50.967 L55.361,53.036 L43.587,41.263 L45.657,39.193 C46.392,38.459 47.672,38.459 48.407,39.193 L57.43,48.216 C58.188,48.975 58.188,50.209 57.43,50.967 L57.43,50.967 Z" id="Shape" fill="#000000"></path>
    </g>
</svg>