<?xml version="1.0" encoding="UTF-8" standalone="no"?>
<svg width="64px" height="64px" viewBox="0 0 64 64" version="1.1" xmlns="http://www.w3.org/2000/svg" xmlns:xlink="http://www.w3.org/1999/xlink">
    <!-- Generator: Sketch 3.7.2 (28276) - http://www.bohemiancoding.com/sketch -->
    <title>tel-chat</title>
    <desc>Created with Sketch.</desc>
    <defs></defs>
    <g id="64px-Line" stroke="none" stroke-width="1" fill="none" fill-rule="evenodd">
        <g id="tel-chat"></g>
        <path d="M8,60 L30,60 C32.206,60 34,58.206 34,56 L34,37 C34,36.448 33.553,36 33,36 C32.447,36 32,36.448 32,37 L32,50 L6,50 L6,18 L21,18 C21.553,18 22,17.552 22,17 C22,16.448 21.553,16 21,16 L6,16 L6,12 C6,10.897 6.897,10 8,10 L21,10 C21.553,10 22,9.552 22,9 C22,8.448 21.553,8 21,8 L8,8 C5.794,8 4,9.794 4,12 L4,56 C4,58.206 5.794,60 8,60 L8,60 Z M32,52 L32,56 C32,57.103 31.103,58 30,58 L8,58 C6.897,58 6,57.103 6,56 L6,52 L32,52 L32,52 Z" id="Shape" fill="#000000"></path>
        <path d="M21,12 L17,12 C16.447,12 16,12.448 16,13 C16,13.552 16.447,14 17,14 L21,14 C21.553,14 22,13.552 22,13 C22,12.448 21.553,12 21,12 L21,12 Z" id="Shape" fill="#000000"></path>
        <path d="M12.29,12.29 C12.109,12.48 12,12.74 12,13 C12,13.26 12.109,13.52 12.29,13.71 C12.479,13.89 12.74,14 13,14 C13.26,14 13.52,13.89 13.71,13.71 C13.89,13.52 14,13.26 14,13 C14,12.74 13.89,12.48 13.71,12.29 C13.33,11.92 12.66,11.92 12.29,12.29 L12.29,12.29 Z" id="Shape" fill="#000000"></path>
        <path d="M17,56 L21,56 C21.553,56 22,55.552 22,55 C22,54.448 21.553,54 21,54 L17,54 C16.447,54 16,54.448 16,55 C16,55.552 16.447,56 17,56 L17,56 Z" id="Shape" fill="#000000"></path>
        <path d="M56,4 L28,4 C25.794,4 24,5.794 24,8 L24,24 C24,26.206 25.794,28 28,28 L32,28 L32,33 C32,33.391 32.228,33.745 32.582,33.909 C32.716,33.97 32.858,34 33,34 C33.234,34 33.466,33.917 33.65,33.759 L40.37,28 L56,28 C58.206,28 60,26.206 60,24 L60,8 C60,5.794 58.206,4 56,4 L56,4 Z M58,24 C58,25.103 57.103,26 56,26 L40,26 C39.762,26 39.53,26.085 39.35,26.241 L34,30.826 L34,27 C34,26.448 33.553,26 33,26 L28,26 C26.897,26 26,25.103 26,24 L26,8 C26,6.897 26.897,6 28,6 L56,6 C57.103,6 58,6.897 58,8 L58,24 L58,24 Z" id="Shape" fill="#000000"></path>
    </g>
</svg>