<?xml version="1.0" encoding="UTF-8" standalone="no"?>
<svg width="64px" height="64px" viewBox="0 0 64 64" version="1.1" xmlns="http://www.w3.org/2000/svg" xmlns:xlink="http://www.w3.org/1999/xlink">
    <!-- Generator: Sketch 3.7.2 (28276) - http://www.bohemiancoding.com/sketch -->
    <title>tel-search</title>
    <desc>Created with Sketch.</desc>
    <defs></defs>
    <g id="64px-Line" stroke="none" stroke-width="1" fill="none" fill-rule="evenodd">
        <g id="tel-search"></g>
        <path d="M32,4 L12,4 C9.794,4 8,5.794 8,8 L8,52 C8,54.206 9.794,56 12,56 L32,56 C32.553,56 33,55.552 33,55 C33,54.448 32.553,54 32,54 L12,54 C10.897,54 10,53.103 10,52 L10,48 L25,48 C25.553,48 26,47.552 26,47 C26,46.448 25.553,46 25,46 L10,46 L10,14 L34,14 L34,31 C34,31.552 34.447,32 35,32 C35.553,32 36,31.552 36,31 L36,8 C36,5.794 34.206,4 32,4 L32,4 Z M10,12 L10,8 C10,6.897 10.897,6 12,6 L32,6 C33.103,6 34,6.897 34,8 L34,12 L10,12 L10,12 Z" id="Shape" fill="#000000"></path>
        <path d="M27,8 L21,8 C20.447,8 20,8.448 20,9 C20,9.552 20.447,10 21,10 L27,10 C27.553,10 28,9.552 28,9 C28,8.448 27.553,8 27,8 L27,8 Z" id="Shape" fill="#000000"></path>
        <path d="M17.92,8.62 C17.899,8.56 17.87,8.5 17.83,8.45 C17.79,8.39 17.75,8.34 17.71,8.29 C17.34,7.92 16.67,7.92 16.29,8.29 C16.109,8.48 16,8.74 16,9 C16,9.26 16.109,9.52 16.29,9.71 C16.479,9.89 16.74,10 17,10 C17.26,10 17.52,9.89 17.71,9.71 C17.89,9.52 18,9.26 18,9 C18,8.93 17.99,8.87 17.979,8.8 C17.97,8.74 17.95,8.68 17.92,8.62 L17.92,8.62 Z" id="Shape" fill="#000000"></path>
        <path d="M21,50 C20.447,50 20,50.448 20,51 C20,51.552 20.447,52 21,52 L23,52 C23.553,52 24,51.552 24,51 C24,50.448 23.553,50 23,50 L21,50 L21,50 Z" id="Shape" fill="#000000"></path>
        <path d="M38,34 C32.486,34 28,38.486 28,44 C28,49.514 32.486,54 38,54 C40.397,54 42.6,53.15 44.324,51.738 L52.293,59.707 C52.488,59.902 52.744,60 53,60 C53.256,60 53.512,59.902 53.707,59.707 C54.098,59.316 54.098,58.684 53.707,58.293 L45.738,50.324 C47.15,48.6 48,46.398 48,44 C48,38.486 43.514,34 38,34 L38,34 Z M30,44 C30,39.589 33.589,36 38,36 C42.411,36 46,39.589 46,44 C46,48.411 42.411,52 38,52 C33.589,52 30,48.411 30,44 L30,44 Z" id="Shape" fill="#000000"></path>
    </g>
</svg>