<?xml version="1.0" encoding="UTF-8" standalone="no"?>
<svg width="64px" height="64px" viewBox="0 0 64 64" version="1.1" xmlns="http://www.w3.org/2000/svg" xmlns:xlink="http://www.w3.org/1999/xlink">
    <!-- Generator: Sketch 3.7.2 (28276) - http://www.bohemiancoding.com/sketch -->
    <title>tel-shake</title>
    <desc>Created with Sketch.</desc>
    <defs></defs>
    <g id="64px-Line" stroke="none" stroke-width="1" fill="none" fill-rule="evenodd">
        <g id="tel-shake"></g>
        <path d="M17,28 C17.552,28 18,27.552 18,27 L18,16 L46,16 L46,27 C46,27.552 46.448,28 47,28 C47.552,28 48,27.552 48,27 L48,10 C48,7.794 46.206,6 44,6 L20,6 C17.794,6 16,7.794 16,10 L16,27 C16,27.552 16.448,28 17,28 L17,28 Z M20,8 L44,8 C45.103,8 46,8.897 46,10 L46,14 L18,14 L18,10 C18,8.897 18.897,8 20,8 L20,8 Z" id="Shape" fill="#000000"></path>
        <path d="M17,41 C16.448,41 16,41.448 16,42 L16,56 C16,58.206 17.794,60 20,60 L44,60 C46.206,60 48,58.206 48,56 L48,42 C48,41.448 47.552,41 47,41 C46.448,41 46,41.448 46,42 L46,50 L18,50 L18,42 C18,41.448 17.552,41 17,41 L17,41 Z M46,52 L46,56 C46,57.103 45.103,58 44,58 L20,58 C18.897,58 18,57.103 18,56 L18,52 L46,52 L46,52 Z" id="Shape" fill="#000000"></path>
        <path d="M31,12 L37,12 C37.552,12 38,11.552 38,11 C38,10.448 37.552,10 37,10 L31,10 C30.448,10 30,10.448 30,11 C30,11.552 30.448,12 31,12 L31,12 Z" id="Shape" fill="#000000"></path>
        <path d="M27,12 C27.06,12 27.13,11.99 27.2,11.98 C27.26,11.97 27.32,11.95 27.38,11.92 C27.44,11.9 27.5,11.87 27.56,11.83 C27.61,11.79 27.66,11.75 27.71,11.71 C27.89,11.52 28,11.26 28,11 C28,10.74 27.89,10.48 27.71,10.29 C27.66,10.25 27.61,10.21 27.56,10.17 C27.5,10.13 27.44,10.1 27.38,10.08 C27.32,10.05 27.26,10.03 27.2,10.02 C26.87,9.96 26.53,10.06 26.29,10.29 C26.11,10.48 26,10.74 26,11 C26,11.26 26.11,11.52 26.29,11.71 C26.48,11.89 26.74,12 27,12 L27,12 Z" id="Shape" fill="#000000"></path>
        <path d="M31,56 L33,56 C33.552,56 34,55.552 34,55 C34,54.448 33.552,54 33,54 L31,54 C30.448,54 30,54.448 30,55 C30,55.552 30.448,56 31,56 L31,56 Z" id="Shape" fill="#000000"></path>
        <path d="M60.694,12.693 L51.173,11.015 C50.629,10.918 50.111,11.282 50.015,11.827 C49.919,12.37 50.283,12.889 50.827,12.985 L60.348,14.663 C60.875,14.756 61.333,15.047 61.64,15.484 C61.946,15.92 62.063,16.45 61.971,16.975 L61.277,20.908 L51.177,19.128 C50.632,19.03 50.115,19.395 50.019,19.94 C49.923,20.484 50.287,21.002 50.831,21.098 L60.93,22.877 L56.416,48.447 L51.177,47.525 C50.633,47.429 50.115,47.793 50.019,48.337 C49.923,48.881 50.287,49.399 50.831,49.495 L56.069,50.417 L55.375,54.35 C55.184,55.434 54.15,56.164 53.059,55.969 L51.178,55.638 C50.63,55.543 50.116,55.906 50.02,56.45 C49.924,56.994 50.288,57.512 50.832,57.608 L52.713,57.939 C52.947,57.98 53.179,58 53.409,58 C55.313,58 57.005,56.633 57.346,54.697 L63.076,22.24 L63.076,22.24 L63.076,22.24 L63.944,17.323 C64.13,16.271 63.895,15.21 63.281,14.336 C62.664,13.461 61.747,12.878 60.694,12.693 L60.694,12.693 Z" id="Shape" fill="#000000"></path>
        <path d="M12.826,15.072 L10.893,15.413 C10.349,15.509 9.986,16.028 10.082,16.572 C10.167,17.057 10.589,17.398 11.066,17.398 C11.124,17.398 11.182,17.393 11.241,17.383 L13.174,17.042 C13.718,16.946 14.081,16.427 13.985,15.883 C13.889,15.339 13.372,14.974 12.826,15.072 L12.826,15.072 Z" id="Shape" fill="#000000"></path>
        <path d="M6.42,16.38 C6.33,16.48 6.26,16.59 6.21,16.71 C6.15,16.83 6.13,16.96 6.13,17.09 C6.13,17.22 6.15,17.35 6.21,17.47 C6.26,17.6 6.33,17.71 6.42,17.8 C6.61,17.98 6.86,18.09 7.13,18.09 C7.39,18.09 7.65,17.98 7.83,17.8 C7.93,17.71 8,17.6 8.05,17.47 C8.1,17.35 8.13,17.22 8.13,17.09 C8.13,16.96 8.1,16.83 8.05,16.71 C8,16.59 7.93,16.48 7.83,16.38 C7.46,16.01 6.79,16.01 6.42,16.38 L6.42,16.38 Z" id="Shape" fill="#000000"></path>
        <path d="M0.929,22.24 L6.659,54.697 C7,56.634 8.692,58 10.596,58 C10.825,58 11.058,57.98 11.292,57.939 L13.173,57.608 C13.717,57.512 14.08,56.994 13.985,56.45 C13.889,55.906 13.371,55.543 12.827,55.638 L10.946,55.969 C9.857,56.162 8.821,55.434 8.63,54.349 L7.936,50.416 L13.174,49.494 C13.718,49.398 14.081,48.88 13.986,48.336 C13.89,47.793 13.372,47.427 12.828,47.524 L7.589,48.446 L3.075,22.876 L13.175,21.097 C13.719,21.001 14.082,20.483 13.987,19.939 C13.891,19.395 13.373,19.032 12.829,19.127 L2.728,20.907 L2.034,16.974 C1.941,16.449 2.058,15.919 2.364,15.483 C2.67,15.046 3.129,14.755 3.655,14.662 L13.176,12.984 C13.72,12.888 14.083,12.37 13.988,11.826 C13.892,11.282 13.37,10.917 12.83,11.014 L3.309,12.692 C2.257,12.877 1.34,13.461 0.727,14.334 C0.114,15.209 -0.121,16.27 0.064,17.321 L0.929,22.24 L0.929,22.24 L0.929,22.24 L0.929,22.24 Z" id="Shape" fill="#000000"></path>
        <path d="M50.826,17.036 L56.698,18.076 C56.757,18.086 56.816,18.091 56.873,18.091 C57.349,18.091 57.771,17.75 57.857,17.265 C57.953,16.721 57.59,16.203 57.046,16.106 L51.174,15.066 C50.63,14.973 50.112,15.333 50.015,15.877 C49.919,16.42 50.282,16.939 50.826,17.036 L50.826,17.036 Z" id="Shape" fill="#000000"></path>
        <path d="M10.272,34.339 C10.07,34.561 9.958,34.861 10.016,35.179 C10.07,35.475 10.256,35.704 10.495,35.847 L15.09,39.064 C15.265,39.186 15.465,39.245 15.663,39.245 C15.978,39.245 16.288,39.097 16.483,38.819 C16.799,38.366 16.69,37.743 16.237,37.426 L13.611,35.588 C17.395,35.007 24.984,34 32,34 C39.013,34 46.604,35.007 50.388,35.586 L47.762,37.424 C47.31,37.741 47.2,38.364 47.516,38.817 C47.711,39.095 48.021,39.243 48.336,39.243 C48.534,39.243 48.734,39.184 48.909,39.062 L53.484,35.859 C53.734,35.718 53.927,35.483 53.983,35.178 C54.041,34.859 53.929,34.56 53.727,34.338 L50.543,29.792 C50.227,29.34 49.604,29.23 49.15,29.546 C48.698,29.863 48.588,30.486 48.904,30.939 L50.784,33.623 C46.967,33.038 39.193,32 32,32 C24.807,32 17.033,33.038 13.215,33.624 L15.095,30.94 C15.411,30.487 15.302,29.864 14.849,29.547 C14.396,29.23 13.773,29.34 13.456,29.793 L10.272,34.339 L10.272,34.339 Z" id="Shape" fill="#000000"></path>
    </g>
</svg>