<?xml version="1.0" encoding="UTF-8" standalone="no"?>
<svg width="64px" height="64px" viewBox="0 0 64 64" version="1.1" xmlns="http://www.w3.org/2000/svg" xmlns:xlink="http://www.w3.org/1999/xlink">
    <!-- Generator: Sketch 3.7.2 (28276) - http://www.bohemiancoding.com/sketch -->
    <title>tel-phone-2</title>
    <desc>Created with Sketch.</desc>
    <defs></defs>
    <g id="64px-Line" stroke="none" stroke-width="1" fill="none" fill-rule="evenodd">
        <g id="tel-phone-2"></g>
        <path d="M29,10 L35,10 C35.552,10 36,9.552 36,9 C36,8.448 35.552,8 35,8 L29,8 C28.448,8 28,8.448 28,9 C28,9.552 28.448,10 29,10 L29,10 Z" id="Shape" fill="#000000"></path>
        <path d="M33,54 L31,54 C30.448,54 30,54.448 30,55 C30,55.552 30.448,56 31,56 L33,56 C33.552,56 34,55.552 34,55 C34,54.448 33.552,54 33,54 L33,54 Z" id="Shape" fill="#000000"></path>
        <path d="M32,60 C43.514,60 48,58.038 48,53 L48,11 C48,5.962 43.514,4 32,4 C20.486,4 16,5.962 16,11 L16,53 C16,58.038 20.486,60 32,60 L32,60 Z M46,50 L18,50 L18,14 L46,14 L46,50 L46,50 Z M32,58 C19.082,58 18,55.419 18,53 L18,52 L46,52 L46,53 C46,55.419 44.918,58 32,58 L32,58 Z M32,6 C44.918,6 46,8.581 46,11 L46,12 L18,12 L18,11 C18,8.581 19.082,6 32,6 L32,6 Z" id="Shape" fill="#000000"></path>
    </g>
</svg>