<?xml version="1.0" encoding="UTF-8" standalone="no"?>
<svg width="64px" height="64px" viewBox="0 0 64 64" version="1.1" xmlns="http://www.w3.org/2000/svg" xmlns:xlink="http://www.w3.org/1999/xlink">
    <!-- Generator: Sketch 3.7.2 (28276) - http://www.bohemiancoding.com/sketch -->
    <title>tel-phone-tv</title>
    <desc>Created with Sketch.</desc>
    <defs></defs>
    <g id="64px-Line" stroke="none" stroke-width="1" fill="none" fill-rule="evenodd">
        <g id="tel-phone-tv"></g>
        <path d="M8,58 L24,58 C26.206,58 28,56.206 28,54 L28,20 C28,17.794 26.206,16 24,16 L8,16 C5.794,16 4,17.794 4,20 L4,54 C4,56.206 5.794,58 8,58 L8,58 Z M26,48 L6,48 L6,26 L26,26 L26,48 L26,48 Z M24,56 L8,56 C6.897,56 6,55.103 6,54 L6,50 L26,50 L26,54 C26,55.103 25.103,56 24,56 L24,56 Z M8,18 L24,18 C25.103,18 26,18.897 26,20 L26,24 L6,24 L6,20 C6,18.897 6.897,18 8,18 L8,18 Z" id="Shape" fill="#000000"></path>
        <path d="M15,22 L21,22 C21.553,22 22,21.552 22,21 C22,20.448 21.553,20 21,20 L15,20 C14.447,20 14,20.448 14,21 C14,21.552 14.447,22 15,22 L15,22 Z" id="Shape" fill="#000000"></path>
        <path d="M11,22 C11.06,22 11.13,21.99 11.189,21.98 C11.259,21.97 11.319,21.95 11.379,21.92 C11.439,21.9 11.499,21.87 11.549,21.83 C11.609,21.8 11.659,21.75 11.709,21.71 C11.889,21.52 11.999,21.26 11.999,21 C11.999,20.74 11.889,20.48 11.709,20.29 C11.659,20.25 11.608,20.21 11.549,20.17 C11.499,20.13 11.439,20.1 11.379,20.08 C11.318,20.05 11.259,20.03 11.189,20.02 C10.87,19.96 10.519,20.06 10.29,20.29 C10.109,20.48 10,20.74 10,21 C10,21.26 10.109,21.52 10.29,21.71 C10.479,21.89 10.74,22 11,22 L11,22 Z" id="Shape" fill="#000000"></path>
        <path d="M17,52 L15,52 C14.447,52 14,52.448 14,53 C14,53.552 14.447,54 15,54 L17,54 C17.553,54 18,53.552 18,53 C18,52.448 17.553,52 17,52 L17,52 Z" id="Shape" fill="#000000"></path>
        <path d="M56,6 L20,6 C17.794,6 16,7.794 16,10 L16,13 C16,13.552 16.447,14 17,14 C17.553,14 18,13.552 18,13 L18,10 C18,8.897 18.897,8 20,8 L56,8 C57.103,8 58,8.897 58,10 L58,36 C58,37.103 57.103,38 56,38 L31,38 C30.447,38 30,38.448 30,39 C30,39.552 30.447,40 31,40 L38,40 L38,42.133 L30.845,43.155 C30.298,43.233 29.918,43.739 29.996,44.286 C30.074,44.832 30.579,45.212 31.128,45.134 L39,44.01 L52.858,45.989 C52.906,45.996 52.954,45.999 53.001,45.999 C53.491,45.999 53.919,45.639 53.99,45.141 C54.068,44.594 53.688,44.088 53.141,44.01 L40,42.133 L40,40 L56,40 C58.206,40 60,38.206 60,36 L60,10 C60,7.794 58.206,6 56,6 L56,6 Z" id="Shape" fill="#000000"></path>
    </g>
</svg>