<?xml version="1.0" encoding="UTF-8" standalone="no"?>
<svg width="64px" height="64px" viewBox="0 0 64 64" version="1.1" xmlns="http://www.w3.org/2000/svg" xmlns:xlink="http://www.w3.org/1999/xlink">
    <!-- Generator: Sketch 3.7.2 (28276) - http://www.bohemiancoding.com/sketch -->
    <title>tel-cordless-call</title>
    <desc>Created with Sketch.</desc>
    <defs></defs>
    <g id="64px-Line" stroke="none" stroke-width="1" fill="none" fill-rule="evenodd">
        <g id="tel-cordless-call"></g>
        <path d="M28,6 L8,6 C5.794,6 4,7.794 4,10 L4,56 C4,58.206 5.794,60 8,60 L28,60 C30.206,60 32,58.206 32,56 L32,10 C32,7.794 30.206,6 28,6 L28,6 Z M30,56 C30,57.103 29.103,58 28,58 L8,58 C6.897,58 6,57.103 6,56 L6,10 C6,8.897 6.897,8 8,8 L28,8 C29.103,8 30,8.897 30,10 L30,56 L30,56 Z" id="Shape" fill="#000000"></path>
        <path d="M27,12 L9,12 C8.447,12 8,12.447 8,13 L8,25 C8,25.553 8.447,26 9,26 L27,26 C27.553,26 28,25.553 28,25 L28,13 C28,12.447 27.553,12 27,12 L27,12 Z M26,24 L10,24 L10,14 L26,14 L26,24 L26,24 Z" id="Shape" fill="#000000"></path>
        <path d="M11,34 L13,34 C13.553,34 14,33.553 14,33 C14,32.447 13.553,32 13,32 L11,32 C10.447,32 10,32.447 10,33 C10,33.553 10.447,34 11,34 L11,34 Z" id="Shape" fill="#000000"></path>
        <path d="M17,34 L19,34 C19.553,34 20,33.553 20,33 C20,32.447 19.553,32 19,32 L17,32 C16.447,32 16,32.447 16,33 C16,33.553 16.447,34 17,34 L17,34 Z" id="Shape" fill="#000000"></path>
        <path d="M25,32 L23,32 C22.447,32 22,32.447 22,33 C22,33.553 22.447,34 23,34 L25,34 C25.553,34 26,33.553 26,33 C26,32.447 25.553,32 25,32 L25,32 Z" id="Shape" fill="#000000"></path>
        <path d="M11,40 L13,40 C13.553,40 14,39.553 14,39 C14,38.447 13.553,38 13,38 L11,38 C10.447,38 10,38.447 10,39 C10,39.553 10.447,40 11,40 L11,40 Z" id="Shape" fill="#000000"></path>
        <path d="M17,40 L19,40 C19.553,40 20,39.553 20,39 C20,38.447 19.553,38 19,38 L17,38 C16.447,38 16,38.447 16,39 C16,39.553 16.447,40 17,40 L17,40 Z" id="Shape" fill="#000000"></path>
        <path d="M25,38 L23,38 C22.447,38 22,38.447 22,39 C22,39.553 22.447,40 23,40 L25,40 C25.553,40 26,39.553 26,39 C26,38.447 25.553,38 25,38 L25,38 Z" id="Shape" fill="#000000"></path>
        <path d="M11,46 L13,46 C13.553,46 14,45.553 14,45 C14,44.447 13.553,44 13,44 L11,44 C10.447,44 10,44.447 10,45 C10,45.553 10.447,46 11,46 L11,46 Z" id="Shape" fill="#000000"></path>
        <path d="M16,50 L11,50 C10.447,50 10,50.447 10,51 C10,51.553 10.447,52 11,52 L16,52 C16.553,52 17,51.553 17,51 C17,50.447 16.553,50 16,50 L16,50 Z" id="Shape" fill="#000000"></path>
        <path d="M25,50 L20,50 C19.447,50 19,50.447 19,51 C19,51.553 19.447,52 20,52 L25,52 C25.553,52 26,51.553 26,51 C26,50.447 25.553,50 25,50 L25,50 Z" id="Shape" fill="#000000"></path>
        <path d="M20,45 C20,44.447 19.553,44 19,44 L17,44 C16.447,44 16,44.447 16,45 C16,45.553 16.447,46 17,46 L19,46 C19.553,46 20,45.553 20,45 L20,45 Z" id="Shape" fill="#000000"></path>
        <path d="M25,44 L23,44 C22.447,44 22,44.447 22,45 C22,45.553 22.447,46 23,46 L25,46 C25.553,46 26,45.553 26,45 C26,44.447 25.553,44 25,44 L25,44 Z" id="Shape" fill="#000000"></path>
        <path d="M37.363,24.223 C36.972,24.614 36.972,25.246 37.363,25.637 C39.063,27.337 40,29.597 40,32 C40,34.404 39.063,36.665 37.363,38.365 C36.972,38.756 36.972,39.388 37.363,39.779 C37.558,39.974 37.814,40.072 38.07,40.072 C38.326,40.072 38.582,39.974 38.777,39.779 C40.855,37.701 42,34.938 42,32 C42,29.062 40.855,26.301 38.777,24.223 C38.387,23.832 37.754,23.832 37.363,24.223 L37.363,24.223 Z" id="Shape" fill="#000000"></path>
        <path d="M44.434,18.566 C44.043,18.175 43.411,18.175 43.02,18.566 C42.629,18.957 42.629,19.589 43.02,19.98 C46.232,23.192 48,27.46 48,32 C48,36.54 46.231,40.81 43.02,44.021 C42.629,44.412 42.629,45.044 43.02,45.435 C43.215,45.63 43.471,45.728 43.727,45.728 C43.983,45.728 44.239,45.63 44.434,45.435 C48.024,41.845 50,37.074 50,31.999 C50,26.927 48.023,22.156 44.434,18.566 L44.434,18.566 Z" id="Shape" fill="#000000"></path>
        <path d="M48.293,12.293 C47.902,12.684 47.902,13.316 48.293,13.707 C53.047,18.463 56,25.473 56,32 C56,38.529 53.047,45.539 48.293,50.293 C47.902,50.684 47.902,51.316 48.293,51.707 C48.488,51.902 48.744,52 49,52 C49.256,52 49.512,51.902 49.707,51.707 C54.899,46.515 58,39.147 58,32 C58,24.854 54.9,17.488 49.707,12.293 C49.316,11.902 48.684,11.902 48.293,12.293 L48.293,12.293 Z" id="Shape" fill="#000000"></path>
    </g>
</svg>