<?xml version="1.0" encoding="UTF-8" standalone="no"?>
<svg width="64px" height="64px" viewBox="0 0 64 64" version="1.1" xmlns="http://www.w3.org/2000/svg" xmlns:xlink="http://www.w3.org/1999/xlink">
    <!-- Generator: Sketch 3.7.2 (28276) - http://www.bohemiancoding.com/sketch -->
    <title>tel-mast</title>
    <desc>Created with Sketch.</desc>
    <defs></defs>
    <g id="64px-Line" stroke="none" stroke-width="1" fill="none" fill-rule="evenodd">
        <g id="tel-mast"></g>
        <path d="M24.636,15.222 C24.245,14.831 23.613,14.831 23.222,15.222 C18.933,19.511 18.933,26.49 23.222,30.779 C23.417,30.974 23.673,31.072 23.929,31.072 C24.185,31.072 24.441,30.974 24.636,30.779 C25.027,30.388 25.027,29.756 24.636,29.365 C21.127,25.856 21.127,20.146 24.636,16.636 C25.026,16.245 25.026,15.612 24.636,15.222 L24.636,15.222 Z" id="Shape" fill="#000000"></path>
        <path d="M37.364,30.778 C37.559,30.973 37.815,31.071 38.071,31.071 C38.327,31.071 38.583,30.973 38.778,30.778 C43.067,26.489 43.067,19.51 38.778,15.221 C38.387,14.83 37.755,14.83 37.364,15.221 C36.973,15.612 36.973,16.244 37.364,16.635 C40.873,20.144 40.873,25.854 37.364,29.364 C36.974,29.755 36.974,30.388 37.364,30.778 L37.364,30.778 Z" id="Shape" fill="#000000"></path>
        <path d="M18.979,10.979 C15.769,14.19 14,18.459 14,23 C14,27.541 15.769,31.81 18.979,35.021 C19.174,35.216 19.43,35.314 19.686,35.314 C19.942,35.314 20.198,35.216 20.393,35.021 C20.784,34.63 20.784,33.997 20.393,33.607 C17.56,30.774 15.999,27.007 15.999,23.001 C15.999,18.995 17.56,15.228 20.393,12.395 C20.784,12.005 20.784,11.372 20.393,10.981 C20.002,10.59 19.37,10.589 18.979,10.979 L18.979,10.979 Z" id="Shape" fill="#000000"></path>
        <path d="M41.606,33.606 C41.215,33.996 41.215,34.629 41.606,35.02 C41.801,35.215 42.057,35.313 42.313,35.313 C42.569,35.313 42.825,35.215 43.02,35.02 C46.231,31.81 48,27.541 48,23 C48,18.459 46.231,14.19 43.021,10.979 C42.63,10.588 41.998,10.588 41.607,10.979 C41.216,11.37 41.216,12.003 41.607,12.393 C44.44,15.226 46.001,18.993 46.001,22.999 C46.001,27.005 44.439,30.773 41.606,33.606 L41.606,33.606 Z" id="Shape" fill="#000000"></path>
        <path d="M14.736,6.293 C5.68,15.349 5.68,30.651 14.736,39.707 C14.931,39.902 15.187,40 15.443,40 C15.699,40 15.955,39.902 16.15,39.707 C16.541,39.316 16.541,38.684 16.15,38.293 C8.004,30.146 8.004,15.854 16.15,7.707 C16.541,7.316 16.541,6.684 16.15,6.293 C15.759,5.902 15.127,5.902 14.736,6.293 L14.736,6.293 Z" id="Shape" fill="#000000"></path>
        <path d="M47.264,39.707 C56.32,30.651 56.32,15.349 47.264,6.293 C46.873,5.902 46.241,5.902 45.85,6.293 C45.459,6.684 45.459,7.316 45.85,7.707 C53.996,15.854 53.996,30.146 45.85,38.293 C45.459,38.684 45.459,39.316 45.85,39.707 C46.045,39.902 46.301,40 46.557,40 C46.813,40 47.068,39.902 47.264,39.707 L47.264,39.707 Z" id="Shape" fill="#000000"></path>
        <path d="M17,60 C17.26,60 17.52,59.899 17.715,59.699 C18.993,58.392 20.47,56.399 21.978,54 L40.022,54 C41.531,56.399 43.007,58.391 44.285,59.699 C44.48,59.899 44.74,60 45,60 C45.252,60 45.505,59.905 45.699,59.715 C46.094,59.329 46.101,58.696 45.715,58.301 C42.666,55.181 38.431,47.924 35.476,40.673 C35.474,40.666 35.47,40.66 35.468,40.653 C33.59,36.04 32.232,31.432 32.028,27.892 C34.293,27.417 36.001,25.405 36.001,23 C36.001,20.243 33.758,18 31.001,18 C28.244,18 26.001,20.243 26.001,23 C26.001,25.404 27.708,27.416 29.974,27.892 C29.77,31.431 28.413,36.037 26.536,40.648 C26.532,40.658 26.527,40.667 26.524,40.677 C23.569,47.927 19.335,55.182 16.286,58.301 C15.899,58.696 15.907,59.329 16.302,59.715 C16.495,59.905 16.748,60 17,60 L17,60 Z M27.848,42.705 L29.519,44.236 L25.329,48.074 C26.215,46.342 27.066,44.534 27.848,42.705 L27.848,42.705 Z M36.672,48.075 L32.48,44.236 L34.152,42.705 C34.934,44.534 35.786,46.343 36.672,48.075 L36.672,48.075 Z M37.995,52 L24.004,52 L30.999,45.592 L37.995,52 L37.995,52 Z M31,42.88 L28.659,40.735 C29.611,38.333 30.418,35.937 31.001,33.676 C31.584,35.937 32.391,38.332 33.343,40.735 L31,42.88 L31,42.88 Z M28,23 C28,21.346 29.346,20 31,20 C32.654,20 34,21.346 34,23 C34,24.654 32.654,26 31,26 C29.346,26 28,24.654 28,23 L28,23 Z" id="Shape" fill="#000000"></path>
    </g>
</svg>