<?xml version="1.0" encoding="UTF-8" standalone="no"?>
<svg width="64px" height="64px" viewBox="0 0 64 64" version="1.1" xmlns="http://www.w3.org/2000/svg" xmlns:xlink="http://www.w3.org/1999/xlink">
    <!-- Generator: Sketch 3.7.2 (28276) - http://www.bohemiancoding.com/sketch -->
    <title>tel-location</title>
    <desc>Created with Sketch.</desc>
    <defs></defs>
    <g id="64px-Line" stroke="none" stroke-width="1" fill="none" fill-rule="evenodd">
        <g id="tel-location"></g>
        <path d="M36,4 L16,4 C13.794,4 12,5.794 12,8 L12,52 C12,54.206 13.794,56 16,56 L35,56 C35.553,56 36,55.552 36,55 C36,54.448 35.553,54 35,54 L16,54 C14.897,54 14,53.103 14,52 L14,48 L31,48 C31.553,48 32,47.552 32,47 C32,46.448 31.553,46 31,46 L14,46 L14,14 L38,14 L38,29 C38,29.552 38.447,30 39,30 C39.553,30 40,29.552 40,29 L40,8 C40,5.794 38.206,4 36,4 L36,4 Z M14,12 L14,8 C14,6.897 14.897,6 16,6 L36,6 C37.103,6 38,6.897 38,8 L38,12 L14,12 L14,12 Z" id="Shape" fill="#000000"></path>
        <path d="M31,8 L25,8 C24.447,8 24,8.448 24,9 C24,9.552 24.447,10 25,10 L31,10 C31.553,10 32,9.552 32,9 C32,8.448 31.553,8 31,8 L31,8 Z" id="Shape" fill="#000000"></path>
        <path d="M21.55,8.17 C21.5,8.13 21.44,8.1 21.38,8.08 C21.319,8.05 21.26,8.03 21.19,8.02 C20.871,7.96 20.52,8.06 20.291,8.29 C20.251,8.34 20.201,8.39 20.171,8.45 C20.131,8.5 20.101,8.56 20.081,8.62 C20.051,8.68 20.031,8.74 20.02,8.8 C20.01,8.87 20,8.93 20,9 C20,9.26 20.109,9.52 20.29,9.71 C20.479,9.89 20.74,10 21,10 C21.06,10 21.13,9.99 21.189,9.98 C21.259,9.97 21.319,9.95 21.379,9.92 C21.439,9.9 21.499,9.87 21.549,9.83 C21.609,9.79 21.659,9.75 21.709,9.71 C21.889,9.52 21.999,9.27 21.999,9 C21.999,8.73 21.889,8.48 21.709,8.29 C21.66,8.25 21.609,8.21 21.55,8.17 L21.55,8.17 Z" id="Shape" fill="#000000"></path>
        <path d="M25,50 C24.447,50 24,50.448 24,51 C24,51.552 24.447,52 25,52 L27,52 C27.553,52 28,51.552 28,51 C28,50.448 27.553,50 27,50 L25,50 L25,50 Z" id="Shape" fill="#000000"></path>
        <path d="M43,37 C40.794,37 39,38.794 39,41 C39,43.206 40.794,45 43,45 C45.206,45 47,43.206 47,41 C47,38.794 45.206,37 43,37 L43,37 Z M43,43 C41.897,43 41,42.103 41,41 C41,39.897 41.897,39 43,39 C44.103,39 45,39.897 45,41 C45,42.103 44.103,43 43,43 L43,43 Z" id="Shape" fill="#000000"></path>
        <path d="M43,32 C38.037,32 34,36.038 34,41 C34,42.393 34.31,43.729 34.923,44.974 L42.105,59.445 C42.274,59.785 42.621,60.001 43.001,60.001 C43.381,60.001 43.728,59.786 43.897,59.445 L51.081,44.971 C51.69,43.729 52,42.393 52,41 C52,36.038 47.963,32 43,32 L43,32 Z M49.286,44.085 L43,56.75 L36.716,44.087 C36.241,43.123 36,42.084 36,41 C36,37.14 39.141,34 43,34 C46.859,34 50,37.14 50,41 C50,42.084 49.759,43.123 49.286,44.085 L49.286,44.085 Z" id="Shape" fill="#000000"></path>
    </g>
</svg>