<?xml version="1.0" encoding="UTF-8" standalone="no"?>
<svg width="64px" height="64px" viewBox="0 0 64 64" version="1.1" xmlns="http://www.w3.org/2000/svg" xmlns:xlink="http://www.w3.org/1999/xlink">
    <!-- Generator: Sketch 3.7.2 (28276) - http://www.bohemiancoding.com/sketch -->
    <title>tel-cross</title>
    <desc>Created with Sketch.</desc>
    <defs></defs>
    <g id="64px-Line" stroke="none" stroke-width="1" fill="none" fill-rule="evenodd">
        <g id="tel-cross"></g>
        <path d="M30,47 C30,54.168 35.832,60 43,60 C50.168,60 56,54.168 56,47 C56,39.832 50.168,34 43,34 C35.832,34 30,39.832 30,47 L30,47 Z M54,47 C54,53.065 49.065,58 43,58 C36.935,58 32,53.065 32,47 C32,40.935 36.935,36 43,36 C49.065,36 54,40.935 54,47 L54,47 Z" id="Shape" fill="#000000"></path>
        <path d="M38.707,41.293 C38.316,40.902 37.684,40.902 37.293,41.293 C36.902,41.684 36.902,42.316 37.293,42.707 L41.586,47 L37.293,51.293 C36.902,51.684 36.902,52.316 37.293,52.707 C37.488,52.902 37.744,53 38,53 C38.256,53 38.512,52.902 38.707,52.707 L43,48.414 L47.293,52.707 C47.488,52.902 47.744,53 48,53 C48.256,53 48.512,52.902 48.707,52.707 C49.098,52.316 49.098,51.684 48.707,51.293 L44.414,47 L48.707,42.707 C49.098,42.316 49.098,41.684 48.707,41.293 C48.316,40.902 47.684,40.902 47.293,41.293 L43,45.586 L38.707,41.293 L38.707,41.293 Z" id="Shape" fill="#000000"></path>
        <path d="M12,56 L29.15,56 C29.702,56 30.15,55.552 30.15,55 C30.15,54.448 29.702,54 29.15,54 L12,54 C10.897,54 10,53.103 10,52 L10,48 L27,48 C27.552,48 28,47.552 28,47 C28,46.448 27.552,46 27,46 L10,46 L10,14 L34,14 L34,33.149 C34,33.701 34.448,34.149 35,34.149 C35.552,34.149 36,33.701 36,33.149 L36,8 C36,5.794 34.206,4 32,4 L12,4 C9.794,4 8,5.794 8,8 L8,52 C8,54.206 9.794,56 12,56 L12,56 Z M12,6 L32,6 C33.103,6 34,6.897 34,8 L34,12 L10,12 L10,8 C10,6.897 10.897,6 12,6 L12,6 Z" id="Shape" fill="#000000"></path>
        <path d="M21,10 L27,10 C27.552,10 28,9.552 28,9 C28,8.448 27.552,8 27,8 L21,8 C20.448,8 20,8.448 20,9 C20,9.552 20.448,10 21,10 L21,10 Z" id="Shape" fill="#000000"></path>
        <path d="M16.08,9.38 C16.1,9.44 16.13,9.5 16.17,9.56 C16.21,9.61 16.25,9.66 16.29,9.71 C16.48,9.89 16.74,10 17,10 C17.26,10 17.52,9.89 17.71,9.71 C17.75,9.66 17.79,9.61 17.83,9.56 C17.87,9.5 17.9,9.44 17.92,9.38 C17.95,9.32 17.97,9.26 17.98,9.2 C17.99,9.13 18,9.07 18,9 C18,8.74 17.89,8.48 17.71,8.29 C17.33,7.92 16.66,7.92 16.29,8.29 C16.11,8.48 16,8.74 16,9 C16,9.07 16.01,9.13 16.02,9.2 C16.03,9.26 16.05,9.32 16.08,9.38 L16.08,9.38 Z" id="Shape" fill="#000000"></path>
        <path d="M21,50 C20.448,50 20,50.448 20,51 C20,51.552 20.448,52 21,52 L23,52 C23.552,52 24,51.552 24,51 C24,50.448 23.552,50 23,50 L21,50 L21,50 Z" id="Shape" fill="#000000"></path>
    </g>
</svg>