<?xml version="1.0" encoding="UTF-8" standalone="no"?>
<svg width="64px" height="64px" viewBox="0 0 64 64" version="1.1" xmlns="http://www.w3.org/2000/svg" xmlns:xlink="http://www.w3.org/1999/xlink">
    <!-- Generator: Sketch 3.7.2 (28276) - http://www.bohemiancoding.com/sketch -->
    <title>tel-warning</title>
    <desc>Created with Sketch.</desc>
    <defs></defs>
    <g id="64px-Line" stroke="none" stroke-width="1" fill="none" fill-rule="evenodd">
        <g id="tel-warning"></g>
        <path d="M8,8 L8,52 C8,54.206 9.794,56 12,56 L23,56 C23.552,56 24,55.552 24,55 C24,54.448 23.552,54 23,54 L12,54 C10.897,54 10,53.103 10,52 L10,48 L27,48 C27.552,48 28,47.552 28,47 C28,46.448 27.552,46 27,46 L10,46 L10,14 L34,14 L34,35 C34,35.552 34.448,36 35,36 C35.552,36 36,35.552 36,35 L36,8 C36,5.794 34.206,4 32,4 L12,4 C9.794,4 8,5.794 8,8 L8,8 Z M34,8 L34,12 L10,12 L10,8 C10,6.897 10.897,6 12,6 L32,6 C33.103,6 34,6.897 34,8 L34,8 Z" id="Shape" fill="#000000"></path>
        <path d="M21,10 L27,10 C27.552,10 28,9.552 28,9 C28,8.448 27.552,8 27,8 L21,8 C20.448,8 20,8.448 20,9 C20,9.552 20.448,10 21,10 L21,10 Z" id="Shape" fill="#000000"></path>
        <path d="M16.62,9.92 C16.74,9.97 16.87,10 17,10 C17.13,10 17.26,9.97 17.38,9.92 C17.51,9.87 17.61,9.8 17.71,9.71 C17.89,9.52 18,9.26 18,9 C18,8.74 17.89,8.48 17.71,8.29 C17.33,7.92 16.67,7.92 16.29,8.29 C16.11,8.48 16,8.74 16,9 C16,9.26 16.11,9.52 16.29,9.71 C16.39,9.8 16.49,9.87 16.62,9.92 L16.62,9.92 Z" id="Shape" fill="#000000"></path>
        <path d="M21,50 C20.448,50 20,50.448 20,51 C20,51.552 20.448,52 21,52 L23,52 C23.552,52 24,51.552 24,51 C24,50.448 23.552,50 23,50 L21,50 L21,50 Z" id="Shape" fill="#000000"></path>
        <path d="M56,56 C56,55.188 55.636,54.339 55.595,54.246 C55.577,54.205 55.556,54.166 55.533,54.128 L44.252,35.671 C43.502,34.625 42.286,34 41,34 C39.713,34 38.498,34.625 37.707,35.733 L26.467,54.128 C26.444,54.166 26.424,54.205 26.405,54.246 C26.364,54.339 26,55.188 26,56 C26,58.206 27.794,60 30,60 L52,60 C54.206,60 56,58.206 56,56 L56,56 Z M28,56 C28,55.728 28.123,55.33 28.213,55.106 L39.373,36.836 C39.749,36.312 40.357,36 41,36 C41.643,36 42.251,36.313 42.586,36.776 L53.787,55.107 C53.867,55.306 54,55.719 54,56 C54,57.103 53.103,58 52,58 L30,58 C28.897,58 28,57.103 28,56 L28,56 Z" id="Shape" fill="#000000"></path>
        <path d="M41,40 C40.448,40 40,40.448 40,41 L40,49 C40,49.552 40.448,50 41,50 C41.552,50 42,49.552 42,49 L42,41 C42,40.448 41.552,40 41,40 L41,40 Z" id="Shape" fill="#000000"></path>
        <path d="M41.92,52.62 C41.9,52.56 41.87,52.5 41.83,52.44 C41.79,52.39 41.75,52.34 41.71,52.29 C41.66,52.25 41.61,52.2 41.56,52.17 C41.5,52.13 41.44,52.1 41.38,52.08 C41.32,52.05 41.26,52.03 41.2,52.02 C41,51.98 40.8,52 40.62,52.08 C40.5,52.13 40.39,52.2 40.29,52.29 C40.11,52.48 40,52.74 40,53 C40,53.26 40.11,53.52 40.29,53.71 C40.39,53.8 40.5,53.87 40.62,53.92 C40.74,53.97 40.87,54 41,54 C41.07,54 41.13,53.99 41.2,53.98 C41.26,53.97 41.32,53.95 41.38,53.92 C41.44,53.9 41.5,53.87 41.56,53.83 C41.61,53.8 41.66,53.75 41.71,53.71 C41.89,53.52 42,53.26 42,53 C42,52.93 41.99,52.87 41.98,52.8 C41.97,52.74 41.95,52.68 41.92,52.62 L41.92,52.62 Z" id="Shape" fill="#000000"></path>
    </g>
</svg>