<?xml version="1.0" encoding="UTF-8" standalone="no"?>
<svg width="64px" height="64px" viewBox="0 0 64 64" version="1.1" xmlns="http://www.w3.org/2000/svg" xmlns:xlink="http://www.w3.org/1999/xlink">
    <!-- Generator: Sketch 3.7.2 (28276) - http://www.bohemiancoding.com/sketch -->
    <title>tel-fixed</title>
    <desc>Created with Sketch.</desc>
    <defs></defs>
    <g id="64px-Line" stroke="none" stroke-width="1" fill="none" fill-rule="evenodd">
        <g id="tel-fixed"></g>
        <path d="M31,26 C22.02,26 18,30.521 18,35 C18,39.479 22.02,44 31,44 C39.98,44 44,39.479 44,35 C44,30.521 39.98,26 31,26 L31,26 Z M31,42 C24.421,42 20,39.187 20,35 C20,30.813 24.421,28 31,28 C37.579,28 42,30.813 42,35 C42,39.187 37.579,42 31,42 L31,42 Z" id="Shape" fill="#000000"></path>
        <path d="M31,30 C27.01,30 24,31.72 24,34 C24,36.28 27.01,38 31,38 C34.99,38 38,36.28 38,34 C38,31.72 34.99,30 31,30 L31,30 Z M31,36 C27.948,36 26,34.815 26,34 C26,33.185 27.948,32 31,32 C34.052,32 36,33.185 36,34 C36,34.815 34.052,36 31,36 L31,36 Z" id="Shape" fill="#000000"></path>
        <path d="M31,10 C13.084,10 4,15.047 4,25 C4,26.654 5.346,28 7,28 L14.148,28 L8.448,43.693 C8.15,44.347 8,45.044 8,45.761 L8,51 C8,53.757 10.243,56 13,56 L49,56 C51.757,56 54,53.757 54,51 L54,45.915 C54,45.109 53.803,44.308 53.429,43.594 L47.828,28 L55,28 C56.654,28 58,26.654 58,25 C58,15.047 48.916,10 31,10 L31,10 Z M51.634,44.479 C51.873,44.918 52,45.416 52,45.916 L52,51 C52,52.654 50.654,54 49,54 L13,54 C11.346,54 10,52.654 10,51 L10,45.762 C10,45.331 10.091,44.913 10.298,44.449 L17.912,23.495 C18.447,22.571 19.435,22.001 20.507,22.001 L41.488,22.001 C42.562,22.001 43.551,22.574 44.087,23.502 L51.57,44.339 C51.588,44.387 51.609,44.434 51.634,44.479 L51.634,44.479 Z M55,26 L47.11,26 L45.942,22.747 C45.924,22.698 45.903,22.651 45.879,22.606 C45.002,20.999 43.32,20 41.489,20 L20.508,20 C18.683,20 17.003,20.994 16.124,22.594 C16.1,22.639 16.078,22.686 16.062,22.734 L14.874,26 L7,26 C6.448,26 6,25.552 6,25 C6,16.374 14.411,12 31,12 C47.589,12 56,16.374 56,25 C56,25.552 55.552,26 55,26 L55,26 Z" id="Shape" fill="#000000"></path>
    </g>
</svg>