<?xml version="1.0" encoding="UTF-8" standalone="no"?>
<svg width="64px" height="64px" viewBox="0 0 64 64" version="1.1" xmlns="http://www.w3.org/2000/svg" xmlns:xlink="http://www.w3.org/1999/xlink">
    <!-- Generator: Sketch 3.7.2 (28276) - http://www.bohemiancoding.com/sketch -->
    <title>tel-phone-mac</title>
    <desc>Created with Sketch.</desc>
    <defs></defs>
    <g id="64px-Line" stroke="none" stroke-width="1" fill="none" fill-rule="evenodd">
        <g id="tel-phone-mac"></g>
        <path d="M8,58 L24,58 C26.206,58 28,56.206 28,54 L28,20 C28,17.794 26.206,16 24,16 L8,16 C5.794,16 4,17.794 4,20 L4,54 C4,56.206 5.794,58 8,58 L8,58 Z M26,48 L6,48 L6,26 L26,26 L26,48 L26,48 Z M24,56 L8,56 C6.897,56 6,55.103 6,54 L6,50 L26,50 L26,54 C26,55.103 25.103,56 24,56 L24,56 Z M8,18 L24,18 C25.103,18 26,18.897 26,20 L26,24 L6,24 L6,20 C6,18.897 6.897,18 8,18 L8,18 Z" id="Shape" fill="#000000"></path>
        <path d="M15,22 L21,22 C21.553,22 22,21.552 22,21 C22,20.448 21.553,20 21,20 L15,20 C14.447,20 14,20.448 14,21 C14,21.552 14.447,22 15,22 L15,22 Z" id="Shape" fill="#000000"></path>
        <path d="M10.439,21.83 C10.5,21.87 10.559,21.9 10.62,21.92 C10.68,21.95 10.74,21.97 10.8,21.98 C10.87,21.99 10.93,22 11,22 C11.06,22 11.13,21.99 11.189,21.98 C11.259,21.97 11.319,21.95 11.379,21.92 C11.439,21.9 11.499,21.87 11.549,21.83 C11.609,21.79 11.659,21.75 11.709,21.71 C11.889,21.52 11.999,21.26 11.999,21 C11.999,20.74 11.889,20.48 11.709,20.29 C11.469,20.06 11.129,19.95 10.799,20.02 C10.739,20.03 10.679,20.05 10.619,20.08 C10.558,20.1 10.499,20.13 10.438,20.17 C10.388,20.21 10.338,20.25 10.289,20.29 C10.108,20.48 9.999,20.74 9.999,21 C9.999,21.26 10.108,21.52 10.289,21.71 C10.34,21.75 10.39,21.79 10.439,21.83 L10.439,21.83 Z" id="Shape" fill="#000000"></path>
        <path d="M17,52 L15,52 C14.447,52 14,52.448 14,53 C14,53.552 14.447,54 15,54 L17,54 C17.553,54 18,53.552 18,53 C18,52.448 17.553,52 17,52 L17,52 Z" id="Shape" fill="#000000"></path>
        <path d="M32.242,42.03 C31.707,41.892 31.163,42.222 31.03,42.758 L30.03,46.758 C30.02,46.799 30.029,46.838 30.024,46.879 C30.019,46.92 30,46.957 30,47 C30,47.044 30.011,47.085 30.013,47.128 C30.015,47.142 30.015,47.155 30.017,47.169 C30.107,48.743 31.403,50 33,50 L41,50 C42.596,50 43.893,48.743 43.983,47.169 C43.985,47.155 43.985,47.142 43.987,47.128 C43.989,47.085 44,47.044 44,47 C44,46.957 43.981,46.92 43.975,46.878 C43.97,46.837 43.98,46.798 43.969,46.758 L42.969,42.758 C42.835,42.223 42.292,41.894 41.757,42.03 C41.221,42.164 40.895,42.707 41.029,43.243 L41.985,47.068 C41.95,47.586 41.528,48 41,48 L33,48 C32.472,48 32.05,47.586 32.014,47.067 L32.97,43.242 C33.104,42.707 32.778,42.164 32.242,42.03 L32.242,42.03 Z" id="Shape" fill="#000000"></path>
        <path d="M56,6 L18,6 C15.794,6 14,7.794 14,10 L14,13 C14,13.552 14.447,14 15,14 C15.553,14 16,13.552 16,13 L16,10 C16,8.897 16.897,8 18,8 L56,8 C57.103,8 58,8.897 58,10 L58,30 L31,30 C30.447,30 30,30.448 30,31 C30,31.552 30.447,32 31,32 L58,32 L58,36 C58,37.103 57.103,38 56,38 L31,38 C30.447,38 30,38.448 30,39 C30,39.552 30.447,40 31,40 L56,40 C58.206,40 60,38.206 60,36 L60,10 C60,7.794 58.206,6 56,6 L56,6 Z" id="Shape" fill="#000000"></path>
        <path d="M36.62,35.92 C36.68,35.95 36.74,35.97 36.8,35.98 C36.87,35.99 36.94,36 37,36 C37.06,36 37.13,35.99 37.189,35.98 C37.259,35.97 37.319,35.95 37.379,35.92 C37.439,35.9 37.499,35.87 37.549,35.83 C37.609,35.79 37.659,35.75 37.709,35.71 C37.889,35.52 37.999,35.26 37.999,35 C37.999,34.74 37.889,34.48 37.709,34.29 C37.659,34.25 37.608,34.2 37.549,34.17 C37.499,34.13 37.439,34.1 37.379,34.08 C37.318,34.05 37.259,34.03 37.189,34.02 C37.069,33.99 36.929,33.99 36.799,34.02 C36.739,34.03 36.679,34.05 36.619,34.08 C36.558,34.1 36.499,34.13 36.438,34.17 C36.388,34.2 36.338,34.25 36.289,34.29 C36.108,34.48 35.999,34.74 35.999,35 C35.999,35.26 36.108,35.52 36.289,35.71 C36.339,35.75 36.389,35.79 36.438,35.83 C36.5,35.87 36.56,35.9 36.62,35.92 L36.62,35.92 Z" id="Shape" fill="#000000"></path>
    </g>
</svg>