<?xml version="1.0" encoding="UTF-8" standalone="no"?>
<svg width="64px" height="64px" viewBox="0 0 64 64" version="1.1" xmlns="http://www.w3.org/2000/svg" xmlns:xlink="http://www.w3.org/1999/xlink">
    <!-- Generator: Sketch 3.7.2 (28276) - http://www.bohemiancoding.com/sketch -->
    <title>tel-sim</title>
    <desc>Created with Sketch.</desc>
    <defs></defs>
    <g id="64px-Line" stroke="none" stroke-width="1" fill="none" fill-rule="evenodd">
        <g id="tel-sim"></g>
        <path d="M15,60 L47,60 C50.859,60 54,56.86 54,53 L54,23.485 C54,21.614 53.271,19.857 51.949,18.535 L41.465,8.049 C40.142,6.727 38.384,5.999 36.515,5.999 L15,5.999 C11.141,5.999 8,9.139 8,12.999 L8,52.999 C8,56.86 11.141,60 15,60 L15,60 Z M10,13 C10,10.243 12.243,8 15,8 L36.515,8 C37.85,8 39.106,8.52 40.051,9.464 L50.535,19.95 C51.479,20.893 52,22.149 52,23.485 L52,53 C52,55.757 49.757,58 47,58 L15,58 C12.243,58 10,55.757 10,53 L10,13 L10,13 Z" id="Shape" fill="#000000"></path>
        <path d="M22,52 L40,52 C42.206,52 44,50.206 44,48 L44,30 C44,27.794 42.206,26 40,26 L22,26 C19.794,26 18,27.794 18,30 L18,48 C18,50.206 19.794,52 22,52 L22,52 Z M20,48 L20,44 L26,44 L26,50 L22,50 C20.897,50 20,49.103 20,48 L20,48 Z M34,44 L34,50 L28,50 L28,44 L34,44 L34,44 Z M40,50 L36,50 L36,44 L42,44 L42,48 C42,49.103 41.103,50 40,50 L40,50 Z M42,30 L42,42 L20,42 L20,36 L35,36 C35.553,36 36,35.552 36,35 L36,28 L40,28 C41.103,28 42,28.897 42,30 L42,30 Z M28,34 L28,28 L34,28 L34,34 L28,34 L28,34 Z M22,28 L26,28 L26,34 L20,34 L20,30 C20,28.897 20.897,28 22,28 L22,28 Z" id="Shape" fill="#000000"></path>
    </g>
</svg>