<?xml version="1.0" encoding="UTF-8" standalone="no"?>
<svg width="64px" height="64px" viewBox="0 0 64 64" version="1.1" xmlns="http://www.w3.org/2000/svg" xmlns:xlink="http://www.w3.org/1999/xlink">
    <!-- Generator: Sketch 3.7.2 (28276) - http://www.bohemiancoding.com/sketch -->
    <title>tel-cordless-power</title>
    <desc>Created with Sketch.</desc>
    <defs></defs>
    <g id="64px-Line" stroke="none" stroke-width="1" fill="none" fill-rule="evenodd">
        <g id="tel-cordless-power"></g>
        <path d="M55,30 L50.181,30 L51.987,19.164 C52.066,18.694 51.801,18.233 51.355,18.064 C50.911,17.895 50.406,18.066 50.153,18.469 L40.153,34.469 C39.961,34.778 39.95,35.166 40.127,35.484 C40.302,35.803 40.636,36 41,36 L45.819,36 L44.013,46.836 C43.934,47.306 44.199,47.767 44.645,47.936 C44.762,47.979 44.881,48 45,48 C45.337,48 45.661,47.829 45.849,47.53 L55.849,31.53 C56.041,31.221 56.052,30.833 55.875,30.515 C55.698,30.197 55.364,30 55,30 L55,30 Z M46.811,42.215 L47.986,35.164 C48.034,34.874 47.953,34.578 47.763,34.353 C47.573,34.128 47.294,34 47,34 L42.804,34 L49.189,23.785 L48.014,30.836 C47.966,31.126 48.047,31.422 48.237,31.647 C48.427,31.872 48.706,32 49,32 L53.196,32 L46.811,42.215 L46.811,42.215 Z" id="Shape" fill="#000000"></path>
        <path d="M30,6 L10,6 C7.794,6 6,7.794 6,10 L6,56 C6,58.206 7.794,60 10,60 L30,60 C32.206,60 34,58.206 34,56 L34,10 C34,7.794 32.206,6 30,6 L30,6 Z M32,56 C32,57.103 31.103,58 30,58 L10,58 C8.897,58 8,57.103 8,56 L8,10 C8,8.897 8.897,8 10,8 L30,8 C31.103,8 32,8.897 32,10 L32,56 L32,56 Z" id="Shape" fill="#000000"></path>
        <path d="M29,12 L11,12 C10.448,12 10,12.447 10,13 L10,25 C10,25.553 10.448,26 11,26 L29,26 C29.552,26 30,25.553 30,25 L30,13 C30,12.447 29.552,12 29,12 L29,12 Z M28,24 L12,24 L12,14 L28,14 L28,24 L28,24 Z" id="Shape" fill="#000000"></path>
        <path d="M13,34 L15,34 C15.552,34 16,33.553 16,33 C16,32.447 15.552,32 15,32 L13,32 C12.448,32 12,32.447 12,33 C12,33.553 12.448,34 13,34 L13,34 Z" id="Shape" fill="#000000"></path>
        <path d="M19,34 L21,34 C21.552,34 22,33.553 22,33 C22,32.447 21.552,32 21,32 L19,32 C18.448,32 18,32.447 18,33 C18,33.553 18.448,34 19,34 L19,34 Z" id="Shape" fill="#000000"></path>
        <path d="M27,32 L25,32 C24.448,32 24,32.447 24,33 C24,33.553 24.448,34 25,34 L27,34 C27.552,34 28,33.553 28,33 C28,32.447 27.552,32 27,32 L27,32 Z" id="Shape" fill="#000000"></path>
        <path d="M13,40 L15,40 C15.552,40 16,39.553 16,39 C16,38.447 15.552,38 15,38 L13,38 C12.448,38 12,38.447 12,39 C12,39.553 12.448,40 13,40 L13,40 Z" id="Shape" fill="#000000"></path>
        <path d="M19,40 L21,40 C21.552,40 22,39.553 22,39 C22,38.447 21.552,38 21,38 L19,38 C18.448,38 18,38.447 18,39 C18,39.553 18.448,40 19,40 L19,40 Z" id="Shape" fill="#000000"></path>
        <path d="M27,38 L25,38 C24.448,38 24,38.447 24,39 C24,39.553 24.448,40 25,40 L27,40 C27.552,40 28,39.553 28,39 C28,38.447 27.552,38 27,38 L27,38 Z" id="Shape" fill="#000000"></path>
        <path d="M13,46 L15,46 C15.552,46 16,45.553 16,45 C16,44.447 15.552,44 15,44 L13,44 C12.448,44 12,44.447 12,45 C12,45.553 12.448,46 13,46 L13,46 Z" id="Shape" fill="#000000"></path>
        <path d="M18,50 L13,50 C12.448,50 12,50.447 12,51 C12,51.553 12.448,52 13,52 L18,52 C18.552,52 19,51.553 19,51 C19,50.447 18.552,50 18,50 L18,50 Z" id="Shape" fill="#000000"></path>
        <path d="M27,50 L22,50 C21.448,50 21,50.447 21,51 C21,51.553 21.448,52 22,52 L27,52 C27.552,52 28,51.553 28,51 C28,50.447 27.552,50 27,50 L27,50 Z" id="Shape" fill="#000000"></path>
        <path d="M22,45 C22,44.447 21.552,44 21,44 L19,44 C18.448,44 18,44.447 18,45 C18,45.553 18.448,46 19,46 L21,46 C21.552,46 22,45.553 22,45 L22,45 Z" id="Shape" fill="#000000"></path>
        <path d="M27,44 L25,44 C24.448,44 24,44.447 24,45 C24,45.553 24.448,46 25,46 L27,46 C27.552,46 28,45.553 28,45 C28,44.447 27.552,44 27,44 L27,44 Z" id="Shape" fill="#000000"></path>
    </g>
</svg>