<?xml version="1.0" encoding="UTF-8" standalone="no"?>
<svg width="64px" height="64px" viewBox="0 0 64 64" version="1.1" xmlns="http://www.w3.org/2000/svg" xmlns:xlink="http://www.w3.org/1999/xlink">
    <!-- Generator: Sketch 3.7.2 (28276) - http://www.bohemiancoding.com/sketch -->
    <title>tel-cordless-cordless</title>
    <desc>Created with Sketch.</desc>
    <defs></defs>
    <g id="64px-Line" stroke="none" stroke-width="1" fill="none" fill-rule="evenodd">
        <g id="tel-cordless-cordless"></g>
        <path d="M24,6 L8,6 C5.794,6 4,7.794 4,10 L4,54 C4,56.206 5.794,58 8,58 L24,58 C26.206,58 28,56.206 28,54 L28,10 C28,7.794 26.206,6 24,6 L24,6 Z M26,54 C26,55.103 25.103,56 24,56 L8,56 C6.897,56 6,55.103 6,54 L6,10 C6,8.897 6.897,8 8,8 L24,8 C25.103,8 26,8.897 26,10 L26,54 L26,54 Z" id="Shape" fill="#000000"></path>
        <path d="M23,12 L9,12 C8.447,12 8,12.447 8,13 L8,25 C8,25.553 8.447,26 9,26 L23,26 C23.553,26 24,25.553 24,25 L24,13 C24,12.447 23.553,12 23,12 L23,12 Z M22,24 L10,24 L10,14 L22,14 L22,24 L22,24 Z" id="Shape" fill="#000000"></path>
        <path d="M9,32 L11,32 C11.553,32 12,31.553 12,31 C12,30.447 11.553,30 11,30 L9,30 C8.447,30 8,30.447 8,31 C8,31.553 8.447,32 9,32 L9,32 Z" id="Shape" fill="#000000"></path>
        <path d="M15,32 L17,32 C17.553,32 18,31.553 18,31 C18,30.447 17.553,30 17,30 L15,30 C14.447,30 14,30.447 14,31 C14,31.553 14.447,32 15,32 L15,32 Z" id="Shape" fill="#000000"></path>
        <path d="M23,30 L21,30 C20.447,30 20,30.447 20,31 C20,31.553 20.447,32 21,32 L23,32 C23.553,32 24,31.553 24,31 C24,30.447 23.553,30 23,30 L23,30 Z" id="Shape" fill="#000000"></path>
        <path d="M9,38 L11,38 C11.553,38 12,37.553 12,37 C12,36.447 11.553,36 11,36 L9,36 C8.447,36 8,36.447 8,37 C8,37.553 8.447,38 9,38 L9,38 Z" id="Shape" fill="#000000"></path>
        <path d="M15,38 L17,38 C17.553,38 18,37.553 18,37 C18,36.447 17.553,36 17,36 L15,36 C14.447,36 14,36.447 14,37 C14,37.553 14.447,38 15,38 L15,38 Z" id="Shape" fill="#000000"></path>
        <path d="M23,36 L21,36 C20.447,36 20,36.447 20,37 C20,37.553 20.447,38 21,38 L23,38 C23.553,38 24,37.553 24,37 C24,36.447 23.553,36 23,36 L23,36 Z" id="Shape" fill="#000000"></path>
        <path d="M9,44 L11,44 C11.553,44 12,43.553 12,43 C12,42.447 11.553,42 11,42 L9,42 C8.447,42 8,42.447 8,43 C8,43.553 8.447,44 9,44 L9,44 Z" id="Shape" fill="#000000"></path>
        <path d="M14,48 L9,48 C8.447,48 8,48.447 8,49 C8,49.553 8.447,50 9,50 L14,50 C14.553,50 15,49.553 15,49 C15,48.447 14.553,48 14,48 L14,48 Z" id="Shape" fill="#000000"></path>
        <path d="M23,48 L18,48 C17.447,48 17,48.447 17,49 C17,49.553 17.447,50 18,50 L23,50 C23.553,50 24,49.553 24,49 C24,48.447 23.553,48 23,48 L23,48 Z" id="Shape" fill="#000000"></path>
        <path d="M18,43 C18,42.447 17.553,42 17,42 L15,42 C14.447,42 14,42.447 14,43 C14,43.553 14.447,44 15,44 L17,44 C17.553,44 18,43.553 18,43 L18,43 Z" id="Shape" fill="#000000"></path>
        <path d="M23,42 L21,42 C20.447,42 20,42.447 20,43 C20,43.553 20.447,44 21,44 L23,44 C23.553,44 24,43.553 24,43 C24,42.447 23.553,42 23,42 L23,42 Z" id="Shape" fill="#000000"></path>
        <path d="M54,6 L38,6 C35.794,6 34,7.794 34,10 L34,54 C34,56.206 35.794,58 38,58 L54,58 C56.206,58 58,56.206 58,54 L58,10 C58,7.794 56.206,6 54,6 L54,6 Z M56,54 C56,55.103 55.103,56 54,56 L38,56 C36.897,56 36,55.103 36,54 L36,10 C36,8.897 36.897,8 38,8 L54,8 C55.103,8 56,8.897 56,10 L56,54 L56,54 Z" id="Shape" fill="#000000"></path>
        <path d="M53,12 L39,12 C38.447,12 38,12.447 38,13 L38,25 C38,25.553 38.447,26 39,26 L53,26 C53.553,26 54,25.553 54,25 L54,13 C54,12.447 53.553,12 53,12 L53,12 Z M52,24 L40,24 L40,14 L52,14 L52,24 L52,24 Z" id="Shape" fill="#000000"></path>
        <path d="M39,32 L41,32 C41.553,32 42,31.553 42,31 C42,30.447 41.553,30 41,30 L39,30 C38.447,30 38,30.447 38,31 C38,31.553 38.447,32 39,32 L39,32 Z" id="Shape" fill="#000000"></path>
        <path d="M45,32 L47,32 C47.553,32 48,31.553 48,31 C48,30.447 47.553,30 47,30 L45,30 C44.447,30 44,30.447 44,31 C44,31.553 44.447,32 45,32 L45,32 Z" id="Shape" fill="#000000"></path>
        <path d="M53,30 L51,30 C50.447,30 50,30.447 50,31 C50,31.553 50.447,32 51,32 L53,32 C53.553,32 54,31.553 54,31 C54,30.447 53.553,30 53,30 L53,30 Z" id="Shape" fill="#000000"></path>
        <path d="M39,38 L41,38 C41.553,38 42,37.553 42,37 C42,36.447 41.553,36 41,36 L39,36 C38.447,36 38,36.447 38,37 C38,37.553 38.447,38 39,38 L39,38 Z" id="Shape" fill="#000000"></path>
        <path d="M45,38 L47,38 C47.553,38 48,37.553 48,37 C48,36.447 47.553,36 47,36 L45,36 C44.447,36 44,36.447 44,37 C44,37.553 44.447,38 45,38 L45,38 Z" id="Shape" fill="#000000"></path>
        <path d="M53,36 L51,36 C50.447,36 50,36.447 50,37 C50,37.553 50.447,38 51,38 L53,38 C53.553,38 54,37.553 54,37 C54,36.447 53.553,36 53,36 L53,36 Z" id="Shape" fill="#000000"></path>
        <path d="M39,44 L41,44 C41.553,44 42,43.553 42,43 C42,42.447 41.553,42 41,42 L39,42 C38.447,42 38,42.447 38,43 C38,43.553 38.447,44 39,44 L39,44 Z" id="Shape" fill="#000000"></path>
        <path d="M44,48 L39,48 C38.447,48 38,48.447 38,49 C38,49.553 38.447,50 39,50 L44,50 C44.553,50 45,49.553 45,49 C45,48.447 44.553,48 44,48 L44,48 Z" id="Shape" fill="#000000"></path>
        <path d="M53,48 L48,48 C47.447,48 47,48.447 47,49 C47,49.553 47.447,50 48,50 L53,50 C53.553,50 54,49.553 54,49 C54,48.447 53.553,48 53,48 L53,48 Z" id="Shape" fill="#000000"></path>
        <path d="M48,43 C48,42.447 47.553,42 47,42 L45,42 C44.447,42 44,42.447 44,43 C44,43.553 44.447,44 45,44 L47,44 C47.553,44 48,43.553 48,43 L48,43 Z" id="Shape" fill="#000000"></path>
        <path d="M53,42 L51,42 C50.447,42 50,42.447 50,43 C50,43.553 50.447,44 51,44 L53,44 C53.553,44 54,43.553 54,43 C54,42.447 53.553,42 53,42 L53,42 Z" id="Shape" fill="#000000"></path>
    </g>
</svg>