<?xml version="1.0" encoding="UTF-8" standalone="no"?>
<svg width="64px" height="64px" viewBox="0 0 64 64" version="1.1" xmlns="http://www.w3.org/2000/svg" xmlns:xlink="http://www.w3.org/1999/xlink">
    <!-- Generator: Sketch 3.7.2 (28276) - http://www.bohemiancoding.com/sketch -->
    <title>tel-hands-free</title>
    <desc>Created with Sketch.</desc>
    <defs></defs>
    <g id="64px-Line" stroke="none" stroke-width="1" fill="none" fill-rule="evenodd">
        <g id="tel-hands-free"></g>
        <path d="M56.497,42.998 L37.826,28.318 C36.542,13.927 30.578,6 21,6 C11.626,6 4,17.663 4,32 C4,46.337 11.626,58 21,58 C23.38,58 25.679,57.271 27.834,55.834 C28.293,55.527 28.417,54.906 28.111,54.447 C27.804,53.987 27.184,53.863 26.724,54.17 C24.904,55.385 22.978,56 21,56 C12.729,56 6,45.233 6,32 C6,18.767 12.729,8 21,8 C31.392,8 34.643,18.792 35.635,26.595 L33.443,24.871 C32.289,23.952 30.735,23.742 29.39,24.324 C27.368,25.2 23.61,27.193 21.161,30.693 C18.711,34.194 18.133,38.398 18.006,40.592 C17.922,42.054 18.655,43.436 19.921,44.2 L45.015,59.427 C45.649,59.809 46.358,60.002 47.072,60.002 C47.691,60.002 48.312,59.856 48.889,59.565 C50.795,58.6 53.446,56.911 55.246,54.337 C57.049,51.761 57.724,48.698 57.972,46.583 C58.135,45.204 57.585,43.864 56.497,42.998 L56.497,42.998 Z M53.607,53.192 C52.045,55.425 49.688,56.921 47.987,57.781 C47.363,58.094 46.638,58.071 46.05,57.717 L20.957,42.491 C20.957,42.49 20.956,42.49 20.956,42.49 C20.327,42.11 19.962,41.427 20.004,40.708 C20.118,38.726 20.633,34.937 22.8,31.84 C24.967,28.743 28.357,26.952 30.184,26.16 C30.432,26.053 30.695,26 30.957,26 C31.398,26 31.837,26.149 32.201,26.439 L55.256,44.566 C55.794,44.995 56.067,45.662 55.985,46.35 C55.804,47.896 55.254,50.839 53.607,53.192 L53.607,53.192 Z" id="Shape" fill="#000000"></path>
        <path d="M32,32 C28.691,32 26,34.691 26,38 C26,41.309 28.691,44 32,44 C35.309,44 38,41.309 38,38 C38,34.691 35.309,32 32,32 L32,32 Z M32,42 C29.794,42 28,40.206 28,38 C28,35.794 29.794,34 32,34 C34.206,34 36,35.794 36,38 C36,40.206 34.206,42 32,42 L32,42 Z" id="Shape" fill="#000000"></path>
    </g>
</svg>