<?xml version="1.0" encoding="UTF-8" standalone="no"?>
<svg width="64px" height="64px" viewBox="0 0 64 64" version="1.1" xmlns="http://www.w3.org/2000/svg" xmlns:xlink="http://www.w3.org/1999/xlink">
    <!-- Generator: Sketch 3.7.2 (28276) - http://www.bohemiancoding.com/sketch -->
    <title>tel-phone-computer</title>
    <desc>Created with Sketch.</desc>
    <defs></defs>
    <g id="64px-Line" stroke="none" stroke-width="1" fill="none" fill-rule="evenodd">
        <g id="tel-phone-computer"></g>
        <path d="M31,42 C30.448,42 30,42.448 30,43 L30,49 C30,49.552 30.448,50 31,50 L47,50 C47.552,50 48,49.552 48,49 C48,48.448 47.552,48 47,48 L44,48 L44,43 C44,42.448 43.552,42 43,42 C42.448,42 42,42.448 42,43 L42,48 L32,48 L32,43 C32,42.448 31.552,42 31,42 L31,42 Z" id="Shape" fill="#000000"></path>
        <path d="M31,34 C30.448,34 30,34.448 30,35 C30,35.552 30.448,36 31,36 L55,36 C55.552,36 56,35.552 56,35 L56,11 C56,10.448 55.552,10 55,10 L19,10 C18.448,10 18,10.448 18,11 L18,13 C18,13.552 18.448,14 19,14 C19.552,14 20,13.552 20,13 L20,12 L54,12 L54,34 L31,34 L31,34 Z" id="Shape" fill="#000000"></path>
        <path d="M56,6 L18,6 C15.794,6 14,7.794 14,10 L14,13 C14,13.552 14.448,14 15,14 C15.552,14 16,13.552 16,13 L16,10 C16,8.897 16.897,8 18,8 L56,8 C57.103,8 58,8.897 58,10 L58,36 C58,37.103 57.103,38 56,38 L31,38 C30.448,38 30,38.448 30,39 C30,39.552 30.448,40 31,40 L56,40 C58.206,40 60,38.206 60,36 L60,10 C60,7.794 58.206,6 56,6 L56,6 Z" id="Shape" fill="#000000"></path>
        <path d="M12,21 C12,21.552 12.448,22 13,22 L19,22 C19.552,22 20,21.552 20,21 C20,20.448 19.552,20 19,20 L13,20 C12.448,20 12,20.448 12,21 L12,21 Z" id="Shape" fill="#000000"></path>
        <path d="M17,52 L15,52 C14.448,52 14,52.448 14,53 C14,53.552 14.448,54 15,54 L17,54 C17.552,54 18,53.552 18,53 C18,52.448 17.552,52 17,52 L17,52 Z" id="Shape" fill="#000000"></path>
        <path d="M4,22 L4,52 C4,56.149 7.701,58 16,58 C24.299,58 28,56.149 28,52 L28,22 C28,17.851 24.299,16 16,16 C7.701,16 4,17.851 4,22 L4,22 Z M26,48 L6,48 L6,26 L26,26 L26,48 L26,48 Z M16,56 C6,56 6,53.197 6,52 L6,50 L26,50 L26,52 C26,53.197 26,56 16,56 L16,56 Z M26,22 L26,24 L6,24 L6,22 C6,20.803 6,18 16,18 C26,18 26,20.803 26,22 L26,22 Z" id="Shape" fill="#000000"></path>
    </g>
</svg>