<?xml version="1.0" encoding="UTF-8" standalone="no"?>
<svg width="64px" height="64px" viewBox="0 0 64 64" version="1.1" xmlns="http://www.w3.org/2000/svg" xmlns:xlink="http://www.w3.org/1999/xlink">
    <!-- Generator: Sketch 3.7.2 (28276) - http://www.bohemiancoding.com/sketch -->
    <title>tel-cordless-record</title>
    <desc>Created with Sketch.</desc>
    <defs></defs>
    <g id="64px-Line" stroke="none" stroke-width="1" fill="none" fill-rule="evenodd">
        <g id="tel-cordless-record"></g>
        <path d="M30,6 L10,6 C7.794,6 6,7.794 6,10 L6,56 C6,58.206 7.794,60 10,60 L30,60 C32.206,60 34,58.206 34,56 L34,10 C34,7.794 32.206,6 30,6 L30,6 Z M32,56 C32,57.103 31.103,58 30,58 L10,58 C8.897,58 8,57.103 8,56 L8,10 C8,8.897 8.897,8 10,8 L30,8 C31.103,8 32,8.897 32,10 L32,56 L32,56 Z" id="Shape" fill="#000000"></path>
        <path d="M29,12 L11,12 C10.447,12 10,12.447 10,13 L10,25 C10,25.553 10.447,26 11,26 L29,26 C29.553,26 30,25.553 30,25 L30,13 C30,12.447 29.553,12 29,12 L29,12 Z M28,24 L12,24 L12,14 L28,14 L28,24 L28,24 Z" id="Shape" fill="#000000"></path>
        <path d="M13,34 L15,34 C15.553,34 16,33.553 16,33 C16,32.447 15.553,32 15,32 L13,32 C12.447,32 12,32.447 12,33 C12,33.553 12.447,34 13,34 L13,34 Z" id="Shape" fill="#000000"></path>
        <path d="M19,34 L21,34 C21.553,34 22,33.553 22,33 C22,32.447 21.553,32 21,32 L19,32 C18.447,32 18,32.447 18,33 C18,33.553 18.447,34 19,34 L19,34 Z" id="Shape" fill="#000000"></path>
        <path d="M27,32 L25,32 C24.447,32 24,32.447 24,33 C24,33.553 24.447,34 25,34 L27,34 C27.553,34 28,33.553 28,33 C28,32.447 27.553,32 27,32 L27,32 Z" id="Shape" fill="#000000"></path>
        <path d="M13,40 L15,40 C15.553,40 16,39.553 16,39 C16,38.447 15.553,38 15,38 L13,38 C12.447,38 12,38.447 12,39 C12,39.553 12.447,40 13,40 L13,40 Z" id="Shape" fill="#000000"></path>
        <path d="M19,40 L21,40 C21.553,40 22,39.553 22,39 C22,38.447 21.553,38 21,38 L19,38 C18.447,38 18,38.447 18,39 C18,39.553 18.447,40 19,40 L19,40 Z" id="Shape" fill="#000000"></path>
        <path d="M27,38 L25,38 C24.447,38 24,38.447 24,39 C24,39.553 24.447,40 25,40 L27,40 C27.553,40 28,39.553 28,39 C28,38.447 27.553,38 27,38 L27,38 Z" id="Shape" fill="#000000"></path>
        <path d="M13,46 L15,46 C15.553,46 16,45.553 16,45 C16,44.447 15.553,44 15,44 L13,44 C12.447,44 12,44.447 12,45 C12,45.553 12.447,46 13,46 L13,46 Z" id="Shape" fill="#000000"></path>
        <path d="M18,50 L13,50 C12.447,50 12,50.447 12,51 C12,51.553 12.447,52 13,52 L18,52 C18.553,52 19,51.553 19,51 C19,50.447 18.553,50 18,50 L18,50 Z" id="Shape" fill="#000000"></path>
        <path d="M27,50 L22,50 C21.447,50 21,50.447 21,51 C21,51.553 21.447,52 22,52 L27,52 C27.553,52 28,51.553 28,51 C28,50.447 27.553,50 27,50 L27,50 Z" id="Shape" fill="#000000"></path>
        <path d="M22,45 C22,44.447 21.553,44 21,44 L19,44 C18.447,44 18,44.447 18,45 C18,45.553 18.447,46 19,46 L21,46 C21.553,46 22,45.553 22,45 L22,45 Z" id="Shape" fill="#000000"></path>
        <path d="M27,44 L25,44 C24.447,44 24,44.447 24,45 C24,45.553 24.447,46 25,46 L27,46 C27.553,46 28,45.553 28,45 C28,44.447 27.553,44 27,44 L27,44 Z" id="Shape" fill="#000000"></path>
        <path d="M49,12 C44.037,12 40,16.037 40,21 C40,25.963 44.037,30 49,30 C51.826,30 54.349,28.688 56,26.645 L56,39.356 C54.349,37.312 51.826,36.001 49,36.001 C44.037,36.001 40,40.038 40,45.001 C40,49.964 44.037,54.001 49,54.001 C53.963,54.001 58,49.964 58,45.001 L58,21.001 C58,16.037 53.963,12 49,12 L49,12 Z M49,52 C45.141,52 42,48.859 42,45 C42,41.141 45.141,38 49,38 C52.859,38 56,41.141 56,45 C56,48.859 52.859,52 49,52 L49,52 Z M49,28 C45.141,28 42,24.859 42,21 C42,17.141 45.141,14 49,14 C52.859,14 56,17.141 56,21 C56,24.859 52.859,28 49,28 L49,28 Z" id="Shape" fill="#000000"></path>
    </g>
</svg>