<?xml version="1.0" encoding="UTF-8" standalone="no"?>
<svg width="64px" height="64px" viewBox="0 0 64 64" version="1.1" xmlns="http://www.w3.org/2000/svg" xmlns:xlink="http://www.w3.org/1999/xlink">
    <!-- Generator: Sketch 3.7.2 (28276) - http://www.bohemiancoding.com/sketch -->
    <title>tel-fixed-call</title>
    <desc>Created with Sketch.</desc>
    <defs></defs>
    <g id="64px-Line" stroke="none" stroke-width="1" fill="none" fill-rule="evenodd">
        <g id="tel-fixed-call"></g>
        <path d="M49.82,37.779 C48.283,36.24 45.779,36.24 44.242,37.779 L39.383,42.638 C38.862,43.159 37.239,43.277 34.793,42.363 C32.154,41.376 29.282,39.452 26.914,37.084 C24.547,34.716 22.623,31.844 21.637,29.206 C20.723,26.761 20.841,25.14 21.364,24.617 L26.221,19.758 C26.966,19.013 27.376,18.023 27.376,16.969 C27.376,15.915 26.966,14.925 26.221,14.18 L17.198,5.157 C15.661,3.618 13.157,3.62 11.62,5.157 L8.845,7.931 C8.844,7.932 8.843,7.932 8.842,7.933 C8.841,7.934 8.841,7.935 8.84,7.936 L6.412,10.363 C0.373,16.404 6.014,31.508 19.254,44.748 C25.468,50.963 32.39,55.747 38.743,58.222 C41.798,59.411 44.568,60.004 46.961,60.004 C49.754,60.004 52.03,59.196 53.639,57.588 L56.063,55.164 C56.065,55.162 56.067,55.162 56.069,55.16 C56.071,55.158 56.071,55.156 56.073,55.154 L58.844,52.382 C60.382,50.844 60.382,48.342 58.844,46.804 L49.82,37.779 L49.82,37.779 Z M13.033,6.57 C13.412,6.191 13.91,6.002 14.408,6.002 C14.906,6.002 15.404,6.191 15.783,6.57 L24.806,15.593 C25.564,16.351 25.564,17.585 24.806,18.343 L22.738,20.412 L10.963,8.639 L13.033,6.57 L13.033,6.57 Z M52.225,56.172 C49.868,58.528 45.217,58.595 39.469,56.357 C33.367,53.981 26.691,49.355 20.668,43.333 C8.636,31.301 2.755,16.85 7.826,11.776 L9.549,10.054 L21.325,21.828 L19.949,23.204 C18.704,24.448 18.637,26.892 19.763,29.907 C20.862,32.846 22.899,35.897 25.499,38.499 C28.099,41.101 31.151,43.138 34.092,44.237 C37.108,45.364 39.551,45.299 40.796,44.053 L42.171,42.678 L53.945,54.451 L52.225,56.172 L52.225,56.172 Z M57.43,50.967 L55.361,53.036 L43.587,41.263 L45.657,39.193 C46.391,38.459 47.673,38.459 48.407,39.193 L57.43,48.216 C58.188,48.975 58.188,50.209 57.43,50.967 L57.43,50.967 Z" id="Shape" fill="#000000"></path>
        <path d="M33,22 C35.404,22 37.664,22.936 39.363,24.635 C41.064,26.336 42.001,28.597 42,31 C42,31.552 42.447,32 43,32 C43.552,32 44,31.553 44,31 C44.001,28.062 42.856,25.3 40.777,23.221 C38.7,21.144 35.938,20 33,20 C32.447,20 32,20.447 32,21 C32,21.553 32.447,22 33,22 L33,22 Z" id="Shape" fill="#000000"></path>
        <path d="M33,14 C37.542,14 41.811,15.768 45.021,18.978 C48.232,22.189 50,26.458 50,31 C50,31.553 50.447,32 51,32 C51.553,32 52,31.553 52,31 C52,25.924 50.023,21.152 46.435,17.563 C42.847,13.976 38.076,12 33,12 C32.447,12 32,12.447 32,13 C32,13.553 32.447,14 33,14 L33,14 Z" id="Shape" fill="#000000"></path>
        <path d="M33,4 C32.447,4 32,4.447 32,5 C32,5.553 32.447,6 33,6 C39.679,6 45.957,8.6 50.678,13.32 C55.399,18.042 58,24.321 58,31 C58,31.553 58.447,32 59,32 C59.553,32 60,31.553 60,31 C60,23.787 57.191,17.006 52.092,11.906 C46.993,6.808 40.213,4 33,4 L33,4 Z" id="Shape" fill="#000000"></path>
    </g>
</svg>