<?xml version="1.0" encoding="UTF-8" standalone="no"?>
<svg width="64px" height="64px" viewBox="0 0 64 64" version="1.1" xmlns="http://www.w3.org/2000/svg" xmlns:xlink="http://www.w3.org/1999/xlink">
    <!-- Generator: Sketch 3.7.2 (28276) - http://www.bohemiancoding.com/sketch -->
    <title>tel-fixed-send</title>
    <desc>Created with Sketch.</desc>
    <defs></defs>
    <g id="64px-Line" stroke="none" stroke-width="1" fill="none" fill-rule="evenodd">
        <g id="tel-fixed-send"></g>
        <path d="M17.273,22.001 L17.273,22.001 L22.545,21.999 C24.45,21.999 25.999,20.449 25.999,18.544 L25.999,7.454 C25.999,5.55 24.45,4.001 22.545,4.001 L19.004,4 C19.003,4 19.002,3.999 19,3.999 C18.998,3.999 18.998,4 18.996,4 L16.862,3.999 C9.771,4.001 4,17.012 4,33.001 C4,40.297 5.294,47.578 7.552,52.978 C9.984,58.796 13.291,62 16.864,62 L16.865,62 L18.995,62 C18.997,62 18.998,62.001 19,62.001 C19.002,62.001 19.003,62 19.005,62 L22.547,62 C24.451,61.999 26.001,60.449 26.001,58.546 L26.001,47.455 C26.001,45.551 24.452,44.001 22.547,44.001 L17.273,44.001 C15.969,44.001 13.365,39.244 13.365,32.999 C13.366,30.197 13.923,27.289 14.893,25.02 C15.839,22.805 16.834,22.001 17.273,22.001 L17.273,22.001 Z M24,7.454 L24,18.544 C24,19.347 23.348,19.999 22.545,19.999 L20,20 L20,6 L22.546,6.001 C23.348,6.001 24,6.653 24,7.454 L24,7.454 Z M24,47.455 L24,58.546 C24,59.347 23.347,59.999 22.546,60 L20,60 L20,46.001 L22.546,46.001 C23.348,46.001 24,46.653 24,47.455 L24,47.455 Z M17.271,46.001 L18,46.001 L18,60 L16.865,60 L16.865,60 C14.19,60 11.468,57.159 9.398,52.206 C7.239,47.042 6.001,40.041 6.001,33.001 C6.001,18.618 11.078,6.001 16.864,5.999 L18.001,5.999 L18.001,20 L17.275,20 L17.273,20 C15.719,20 14.221,21.504 13.053,24.233 C11.981,26.741 11.365,29.935 11.364,32.998 C11.363,39.137 13.89,46.001 17.271,46.001 L17.271,46.001 Z" id="Shape" fill="#000000"></path>
        <path d="M59.923,32.617 C59.872,32.494 59.799,32.384 59.706,32.291 L51.707,24.292 C51.316,23.901 50.684,23.901 50.293,24.292 C49.902,24.683 49.902,25.315 50.293,25.706 L56.586,31.999 L27,31.999 C26.448,31.999 26,32.446 26,32.999 C26,33.552 26.448,33.999 27,33.999 L56.586,33.999 L50.293,40.292 C49.902,40.683 49.902,41.315 50.293,41.706 C50.488,41.901 50.744,41.999 51,41.999 C51.256,41.999 51.512,41.901 51.707,41.706 L59.706,33.707 C59.799,33.615 59.872,33.504 59.923,33.381 C60.024,33.137 60.024,32.861 59.923,32.617 L59.923,32.617 Z" id="Shape" fill="#000000"></path>
    </g>
</svg>