<?xml version="1.0" encoding="UTF-8" standalone="no"?>
<svg width="64px" height="64px" viewBox="0 0 64 64" version="1.1" xmlns="http://www.w3.org/2000/svg" xmlns:xlink="http://www.w3.org/1999/xlink">
    <!-- Generator: Sketch 3.7.2 (28276) - http://www.bohemiancoding.com/sketch -->
    <title>tel-headset</title>
    <desc>Created with Sketch.</desc>
    <defs></defs>
    <g id="64px-Line" stroke="none" stroke-width="1" fill="none" fill-rule="evenodd">
        <g id="tel-headset"></g>
        <path d="M57.243,30.03 L54,29.22 L54,27 L54,26 C54,13.869 44.131,4 32,4 C19.869,4 10,13.869 10,26 L10,27 L10,29.22 L6.757,30.031 C6.312,30.142 6,30.542 6,31.001 L6,38.001 C6,38.46 6.312,38.859 6.757,38.971 L10,39.78 L10,40 C10,42.206 11.794,44 14,44 C16.206,44 18,42.206 18,40 L18,30 C18,27.794 16.206,26 14,26 L12,26 C12,14.972 20.972,6 32,6 C43.028,6 52,14.972 52,26 L50,26 C47.794,26 46,27.794 46,30 L46,40 C46,42.206 47.794,44 50,44 C50.689,44 51.327,43.809 51.894,43.501 C51.124,49.486 45.803,54.4 38.585,55.674 C37.942,54.678 36.601,54 35,54 C32.757,54 31,55.317 31,57 C31,58.683 32.757,60 35,60 C36.946,60 38.522,59.007 38.906,57.645 C47.696,56.106 54,49.641 54,42 L54,40 L54,39.78 L57.243,38.969 C57.688,38.858 58,38.458 58,37.999 L58,30.999 C58,30.541 57.688,30.142 57.243,30.03 L57.243,30.03 Z M8,37.219 L8,31.781 L10,31.28 L10,37.719 L8,37.219 L8,37.219 Z M14,28 C15.103,28 16,28.897 16,30 L16,40 C16,41.103 15.103,42 14,42 C12.897,42 12,41.103 12,40 L12,28 L14,28 L14,28 Z M35,58 C33.779,58 33,57.408 33,57 C33,56.592 33.779,56 35,56 C36.14,56 36.886,56.515 36.981,56.916 C36.982,56.922 36.979,56.928 36.98,56.934 C36.982,56.951 36.993,56.965 36.996,56.982 C36.996,56.988 37,56.995 37,57 C37,57.408 36.221,58 35,58 L35,58 Z M50,42 C48.897,42 48,41.103 48,40 L48,30 C48,28.897 48.897,28 50,28 L52,28 L52,40 C52,41.103 51.103,42 50,42 L50,42 Z M56,37.219 L54,37.72 L54,31.281 L56,31.782 L56,37.219 L56,37.219 Z" id="Shape" fill="#000000"></path>
    </g>
</svg>