<?xml version="1.0" encoding="UTF-8" standalone="no"?>
<svg width="64px" height="64px" viewBox="0 0 64 64" version="1.1" xmlns="http://www.w3.org/2000/svg" xmlns:xlink="http://www.w3.org/1999/xlink">
    <!-- Generator: Sketch 3.7.2 (28276) - http://www.bohemiancoding.com/sketch -->
    <title>tel-fixed-new</title>
    <desc>Created with Sketch.</desc>
    <defs></defs>
    <g id="64px-Line" stroke="none" stroke-width="1" fill="none" fill-rule="evenodd">
        <g id="tel-fixed-new"></g>
        <path d="M8,56 L18,56 C19.474,56 20.75,55.19 21.444,54 L57,54 C57.553,54 58,53.553 58,53 L58,13 C58,12.447 57.553,12 57,12 L22,12 C22,9.794 20.206,8 18,8 L8,8 C5.794,8 4,9.794 4,12 L4,52 C4,54.206 5.794,56 8,56 L8,56 Z M56,14 L56,52 L22,52 L22,14 L56,14 L56,14 Z M6,12 C6,10.897 6.897,10 8,10 L18,10 C19.103,10 20,10.897 20,12 L20,52 C20,53.103 19.103,54 18,54 L8,54 C6.897,54 6,53.103 6,52 L6,12 L6,12 Z" id="Shape" fill="#000000"></path>
        <path d="M27,24 L51,24 C51.553,24 52,23.553 52,23 L52,19 C52,18.447 51.553,18 51,18 L27,18 C26.447,18 26,18.447 26,19 L26,23 C26,23.553 26.447,24 27,24 L27,24 Z M28,20 L50,20 L50,22 L28,22 L28,20 L28,20 Z" id="Shape" fill="#000000"></path>
        <path d="M33,42 L29,42 C28.447,42 28,42.447 28,43 L28,47 C28,47.553 28.447,48 29,48 L33,48 C33.553,48 34,47.553 34,47 L34,43 C34,42.447 33.553,42 33,42 L33,42 Z M32,46 L30,46 L30,44 L32,44 L32,46 L32,46 Z" id="Shape" fill="#000000"></path>
        <path d="M41,42 L37,42 C36.447,42 36,42.447 36,43 L36,47 C36,47.553 36.447,48 37,48 L41,48 C41.553,48 42,47.553 42,47 L42,43 C42,42.447 41.553,42 41,42 L41,42 Z M40,46 L38,46 L38,44 L40,44 L40,46 L40,46 Z" id="Shape" fill="#000000"></path>
        <path d="M49,42 L45,42 C44.447,42 44,42.447 44,43 L44,47 C44,47.553 44.447,48 45,48 L49,48 C49.553,48 50,47.553 50,47 L50,43 C50,42.447 49.553,42 49,42 L49,42 Z M48,46 L46,46 L46,44 L48,44 L48,46 L48,46 Z" id="Shape" fill="#000000"></path>
        <path d="M33,34 L29,34 C28.447,34 28,34.447 28,35 L28,39 C28,39.553 28.447,40 29,40 L33,40 C33.553,40 34,39.553 34,39 L34,35 C34,34.447 33.553,34 33,34 L33,34 Z M32,38 L30,38 L30,36 L32,36 L32,38 L32,38 Z" id="Shape" fill="#000000"></path>
        <path d="M41,34 L37,34 C36.447,34 36,34.447 36,35 L36,39 C36,39.553 36.447,40 37,40 L41,40 C41.553,40 42,39.553 42,39 L42,35 C42,34.447 41.553,34 41,34 L41,34 Z M40,38 L38,38 L38,36 L40,36 L40,38 L40,38 Z" id="Shape" fill="#000000"></path>
        <path d="M49,34 L45,34 C44.447,34 44,34.447 44,35 L44,39 C44,39.553 44.447,40 45,40 L49,40 C49.553,40 50,39.553 50,39 L50,35 C50,34.447 49.553,34 49,34 L49,34 Z M48,38 L46,38 L46,36 L48,36 L48,38 L48,38 Z" id="Shape" fill="#000000"></path>
        <path d="M33,26 L29,26 C28.447,26 28,26.447 28,27 L28,31 C28,31.553 28.447,32 29,32 L33,32 C33.553,32 34,31.553 34,31 L34,27 C34,26.447 33.553,26 33,26 L33,26 Z M32,30 L30,30 L30,28 L32,28 L32,30 L32,30 Z" id="Shape" fill="#000000"></path>
        <path d="M41,26 L37,26 C36.447,26 36,26.447 36,27 L36,31 C36,31.553 36.447,32 37,32 L41,32 C41.553,32 42,31.553 42,31 L42,27 C42,26.447 41.553,26 41,26 L41,26 Z M40,30 L38,30 L38,28 L40,28 L40,30 L40,30 Z" id="Shape" fill="#000000"></path>
        <path d="M49,26 L45,26 C44.447,26 44,26.447 44,27 L44,31 C44,31.553 44.447,32 45,32 L49,32 C49.553,32 50,31.553 50,31 L50,27 C50,26.447 49.553,26 49,26 L49,26 Z M48,30 L46,30 L46,28 L48,28 L48,30 L48,30 Z" id="Shape" fill="#000000"></path>
    </g>
</svg>