<svg xmlns="http://www.w3.org/2000/svg" width="12" height="12" viewBox="0 0 12 12">
    <path fill="#0F75D4" fill-rule="evenodd" d="M5.82 6.509l4.712-4.237a.839.839 0 0 1 1.143.03.741.741 0 0 1-.031 1.086L6.25 8.238a.835.835 0 0 1-1.219-.119L2.874 5.18a.744.744 0 0 1 .204-1.064A.836.836 0 0 1 4.2 4.3L5.82 6.51zm4.69-.686h-.001l1.067-1.094c.095.4.155.809.155 1.223 0 3.07-2.632 5.568-5.866 5.568C2.632 11.52 0 9.022 0 5.952 0 2.882 2.632.384 5.865.384c1.4 0 2.754.477 3.815 1.345l-.825.846a4.785 4.785 0 0 0-2.99-1.039c-2.565 0-4.652 1.98-4.652 4.416 0 2.435 2.087 4.416 4.652 4.416 2.566 0 4.653-1.981 4.653-4.416 0-.043-.007-.086-.009-.129z"/>
</svg>
