<?xml version="1.0" encoding="UTF-8" standalone="no"?>
<svg width="64px" height="64px" viewBox="0 0 64 64" version="1.1" xmlns="http://www.w3.org/2000/svg" xmlns:xlink="http://www.w3.org/1999/xlink">
    <!-- Generator: Sketch 3.7.2 (28276) - http://www.bohemiancoding.com/sketch -->
    <title>tim-calendar-warning</title>
    <desc>Created with Sketch.</desc>
    <defs></defs>
    <g id="64px-Line" stroke="none" stroke-width="1" fill="none" fill-rule="evenodd">
        <g id="tim-calendar-warning"></g>
        <path d="M52,8 L10,8 C7.794,8 6,9.794 6,12 L6,54 C6,56.206 7.794,58 10,58 L52,58 C54.206,58 56,56.206 56,54 L56,12 C56,9.794 54.206,8 52,8 L52,8 Z M10,10 L52,10 C53.103,10 54,10.897 54,12 L54,20 L8,20 L8,12 C8,10.897 8.897,10 10,10 L10,10 Z M52,56 L10,56 C8.897,56 8,55.103 8,54 L8,22 L54,22 L54,54 C54,55.103 53.103,56 52,56 L52,56 Z" id="Shape" fill="#000000"></path>
        <path d="M19,18 C20.654,18 22,16.654 22,15 C22,13.346 20.654,12 19,12 C17.346,12 16,13.346 16,15 C16,16.654 17.346,18 19,18 L19,18 Z M19,14 C19.551,14 20,14.448 20,15 C20,15.552 19.551,16 19,16 C18.449,16 18,15.552 18,15 C18,14.448 18.449,14 19,14 L19,14 Z" id="Shape" fill="#000000"></path>
        <path d="M43,18 C44.654,18 46,16.654 46,15 C46,13.346 44.654,12 43,12 C41.346,12 40,13.346 40,15 C40,16.654 41.346,18 43,18 L43,18 Z M43,14 C43.551,14 44,14.448 44,15 C44,15.552 43.551,16 43,16 C42.449,16 42,15.552 42,15 C42,14.448 42.449,14 43,14 L43,14 Z" id="Shape" fill="#000000"></path>
        <path d="M45.533,46.128 L34.252,27.671 C33.502,26.625 32.286,26 31,26 C29.713,26 28.498,26.625 27.707,27.733 L16.467,46.128 C16.444,46.166 16.424,46.205 16.405,46.245 C16.364,46.34 16,47.188 16,48 C16,50.206 17.794,52 20,52 L42,52 C44.206,52 46,50.206 46,48 C46,47.188 45.636,46.34 45.595,46.245 C45.577,46.205 45.556,46.166 45.533,46.128 L45.533,46.128 Z M42,50 L20,50 C18.897,50 18,49.103 18,48 C18,47.728 18.123,47.33 18.213,47.106 L29.373,28.836 C29.749,28.312 30.357,27.999 31,27.999 C31.643,27.999 32.251,28.311 32.586,28.775 L43.787,47.105 C43.867,47.304 44,47.717 44,47.999 C44,49.103 43.103,50 42,50 L42,50 Z" id="Shape" fill="#000000"></path>
        <path d="M31,32 C30.448,32 30,32.447 30,33 L30,41 C30,41.553 30.448,42 31,42 C31.552,42 32,41.553 32,41 L32,33 C32,32.447 31.552,32 31,32 L31,32 Z" id="Shape" fill="#000000"></path>
        <path d="M30.62,44.08 C30.5,44.13 30.39,44.2 30.29,44.29 C30.11,44.479 30,44.74 30,45 C30,45.13 30.03,45.26 30.08,45.38 C30.13,45.5 30.2,45.609 30.29,45.71 C30.48,45.899 30.73,46 31,46 C31.13,46 31.26,45.97 31.38,45.92 C31.5,45.87 31.61,45.8 31.71,45.71 C31.8,45.609 31.87,45.5 31.92,45.38 C31.97,45.26 32,45.13 32,45 C32,44.74 31.89,44.479 31.71,44.29 C31.43,44.01 30.98,43.93 30.62,44.08 L30.62,44.08 Z" id="Shape" fill="#000000"></path>
    </g>
</svg>