<?xml version="1.0" encoding="UTF-8" standalone="no"?>
<svg width="64px" height="64px" viewBox="0 0 64 64" version="1.1" xmlns="http://www.w3.org/2000/svg" xmlns:xlink="http://www.w3.org/1999/xlink">
    <!-- Generator: Sketch 3.7.2 (28276) - http://www.bohemiancoding.com/sketch -->
    <title>tim-calendar-edit</title>
    <desc>Created with Sketch.</desc>
    <defs></defs>
    <g id="64px-Line" stroke="none" stroke-width="1" fill="none" fill-rule="evenodd">
        <g id="tim-calendar-edit"></g>
        <path d="M52,8 L10,8 C7.794,8 6,9.794 6,12 L6,54 C6,56.206 7.794,58 10,58 L52,58 C54.206,58 56,56.206 56,54 L56,12 C56,9.794 54.206,8 52,8 L52,8 Z M10,10 L52,10 C53.103,10 54,10.897 54,12 L54,20 L8,20 L8,12 C8,10.897 8.897,10 10,10 L10,10 Z M52,56 L10,56 C8.897,56 8,55.103 8,54 L8,22 L54,22 L54,54 C54,55.103 53.103,56 52,56 L52,56 Z" id="Shape" fill="#000000"></path>
        <path d="M19,18 C20.654,18 22,16.654 22,15 C22,13.346 20.654,12 19,12 C17.346,12 16,13.346 16,15 C16,16.654 17.346,18 19,18 L19,18 Z M19,14 C19.551,14 20,14.448 20,15 C20,15.552 19.551,16 19,16 C18.449,16 18,15.552 18,15 C18,14.448 18.449,14 19,14 L19,14 Z" id="Shape" fill="#000000"></path>
        <path d="M43,18 C44.654,18 46,16.654 46,15 C46,13.346 44.654,12 43,12 C41.346,12 40,13.346 40,15 C40,16.654 41.346,18 43,18 L43,18 Z M43,14 C43.551,14 44,14.448 44,15 C44,15.552 43.551,16 43,16 C42.449,16 42,15.552 42,15 C42,14.448 42.449,14 43,14 L43,14 Z" id="Shape" fill="#000000"></path>
        <path d="M41.204,26.729 C40.272,25.79 38.614,25.815 37.735,26.704 L35.945,28.381 C35.94,28.385 35.939,28.391 35.935,28.396 C35.931,28.4 35.924,28.401 35.92,28.406 L22.697,41.699 L22.697,41.699 L22.697,41.699 L22.33,42.068 C22.253,42.145 22.189,42.235 22.142,42.333 L18.103,50.562 C17.914,50.947 17.991,51.409 18.294,51.71 C18.486,51.901 18.741,52.002 19.001,52.002 C19.151,52.002 19.303,51.968 19.444,51.898 L27.634,47.84 C27.732,47.791 27.822,47.727 27.899,47.649 L41.467,34.01 L43.277,32.309 C44.237,31.348 44.238,29.78 43.278,28.811 L41.204,26.729 L41.204,26.729 Z M23.562,43.976 L26.001,46.415 L21.195,48.795 L23.562,43.976 L23.562,43.976 Z M27.564,45.15 L24.817,42.403 L36.629,30.528 L39.371,33.282 L27.564,45.15 L27.564,45.15 Z M41.886,30.872 L40.805,31.887 L38.065,29.134 L39.129,28.136 C39.247,28.017 39.385,27.999 39.457,27.999 C39.529,27.999 39.666,28.017 39.786,28.138 L41.861,30.219 C42.046,30.407 42.047,30.71 41.886,30.872 L41.886,30.872 Z" id="Shape" fill="#000000"></path>
    </g>
</svg>