<?xml version="1.0" encoding="UTF-8" standalone="no"?>
<svg width="64px" height="64px" viewBox="0 0 64 64" version="1.1" xmlns="http://www.w3.org/2000/svg" xmlns:xlink="http://www.w3.org/1999/xlink">
    <!-- Generator: Sketch 3.7.2 (28276) - http://www.bohemiancoding.com/sketch -->
    <title>tim-zone+4</title>
    <desc>Created with Sketch.</desc>
    <defs></defs>
    <g id="64px-Line" stroke="none" stroke-width="1" fill="none" fill-rule="evenodd">
        <g id="tim-zone+4"></g>
        <path d="M13,8 C12.447,8 12,8.448 12,9 L12,14 L7,14 C6.447,14 6,14.448 6,15 C6,15.552 6.447,16 7,16 L12,16 L12,21 C12,21.552 12.447,22 13,22 C13.553,22 14,21.552 14,21 L14,16 L19,16 C19.553,16 20,15.552 20,15 C20,14.448 19.553,14 19,14 L14,14 L14,9 C14,8.448 13.553,8 13,8 L13,8 Z" id="Shape" fill="#000000"></path>
        <path d="M43,30 C34.729,30 28,36.729 28,44.999 C28,53.253 34.703,59.97 42.952,59.996 C42.968,59.996 42.983,60 43,60 C43.017,60 43.031,59.996 43.048,59.996 C51.297,59.97 58,53.254 58,44.999 C58,36.729 51.271,30 43,30 L43,30 Z M42,36.973 C40.781,36.928 39.594,36.801 38.462,36.599 C39.398,34.285 40.68,32.742 42,32.213 L42,36.973 L42,36.973 Z M42,38.972 L42,44 L37.025,44 C37.097,41.958 37.379,40.106 37.818,38.508 C39.154,38.764 40.56,38.922 42,38.972 L42,38.972 Z M42,46 L42,51.026 C40.56,51.076 39.154,51.235 37.817,51.491 C37.378,49.893 37.097,48.041 37.025,46 L42,46 L42,46 Z M42,53.025 L42,57.789 C40.679,57.26 39.397,55.715 38.461,53.4 C39.593,53.198 40.781,53.071 42,53.025 L42,53.025 Z M44,53.025 C45.219,53.07 46.407,53.197 47.539,53.4 C46.603,55.715 45.32,57.26 44,57.789 L44,53.025 L44,53.025 Z M44,51.026 L44,46 L48.975,46 C48.903,48.042 48.622,49.893 48.183,51.491 C46.846,51.235 45.44,51.076 44,51.026 L44,51.026 Z M44,44 L44,38.972 C45.44,38.922 46.846,38.764 48.182,38.508 C48.621,40.106 48.903,41.958 48.975,44 L44,44 L44,44 Z M44,36.973 L44,32.213 C45.32,32.742 46.602,34.286 47.538,36.599 C46.406,36.801 45.219,36.927 44,36.973 L44,36.973 Z M47.786,32.924 C49.247,33.505 50.574,34.345 51.72,35.386 C51.031,35.682 50.286,35.942 49.494,36.16 C49.017,34.92 48.441,33.831 47.786,32.924 L47.786,32.924 Z M36.507,36.16 C35.715,35.941 34.97,35.682 34.281,35.386 C35.427,34.346 36.754,33.506 38.215,32.925 C37.559,33.831 36.983,34.92 36.507,36.16 L36.507,36.16 Z M35.885,38.06 C35.397,39.849 35.099,41.856 35.026,44 L30.051,44 C30.255,41.335 31.261,38.895 32.835,36.919 C33.759,37.366 34.781,37.75 35.885,38.06 L35.885,38.06 Z M35.026,46 C35.098,48.144 35.396,50.151 35.884,51.94 C34.781,52.249 33.76,52.633 32.835,53.08 C31.261,51.105 30.255,48.665 30.051,46.001 L35.026,46.001 L35.026,46 Z M36.505,53.84 C36.981,55.079 37.555,56.166 38.21,57.073 C36.751,56.492 35.426,55.653 34.282,54.614 C34.971,54.317 35.715,54.058 36.505,53.84 L36.505,53.84 Z M49.495,53.84 C50.286,54.058 51.029,54.318 51.719,54.614 C50.574,55.653 49.25,56.492 47.791,57.073 C48.444,56.166 49.019,55.078 49.495,53.84 L49.495,53.84 Z M50.116,51.94 C50.604,50.151 50.902,48.144 50.974,46 L55.949,46 C55.745,48.664 54.738,51.104 53.165,53.079 C52.24,52.633 51.219,52.249 50.116,51.94 L50.116,51.94 Z M50.974,44 C50.901,41.856 50.603,39.848 50.115,38.06 C51.219,37.751 52.241,37.367 53.166,36.92 C54.74,38.896 55.746,41.336 55.95,44.001 L50.974,44.001 L50.974,44 Z" id="Shape" fill="#000000"></path>
        <path d="M33.306,4.048 C32.892,3.916 32.44,4.066 32.187,4.419 L22.187,18.419 C21.969,18.724 21.94,19.125 22.111,19.458 C22.283,19.791 22.626,20 23.001,20 L32.001,20 L32.001,25 C32.001,25.552 32.448,26 33.001,26 C33.554,26 34.001,25.552 34.001,25 L34.001,20 L37.001,20 C37.554,20 38.001,19.552 38.001,19 C38.001,18.448 37.554,18 37.001,18 L34.001,18 L34.001,5 C34,4.565 33.719,4.18 33.306,4.048 L33.306,4.048 Z M32,18 L24.943,18 L32,8.121 L32,18 L32,18 Z" id="Shape" fill="#000000"></path>
    </g>
</svg>