<?xml version="1.0" encoding="UTF-8" standalone="no"?>
<svg width="64px" height="64px" viewBox="0 0 64 64" version="1.1" xmlns="http://www.w3.org/2000/svg" xmlns:xlink="http://www.w3.org/1999/xlink">
    <!-- Generator: Sketch 3.7.2 (28276) - http://www.bohemiancoding.com/sketch -->
    <title>tim-wrist-watch-square</title>
    <desc>Created with Sketch.</desc>
    <defs></defs>
    <g id="64px-Line" stroke="none" stroke-width="1" fill="none" fill-rule="evenodd">
        <g id="tim-wrist-watch-square"></g>
        <path d="M37,32 L32,32 L32,23 C32,22.448 31.552,22 31,22 C30.448,22 30,22.448 30,23 L30,33 C30,33.552 30.448,34 31,34 L37,34 C37.552,34 38,33.552 38,33 C38,32.448 37.552,32 37,32 L37,32 Z" id="Shape" fill="#000000"></path>
        <path d="M37,4 L25,4 C22.953,4 22,4.953 22,7 L22,18 C19.794,18 18,19.794 18,22 L18,44 C18,46.206 19.794,48 22,48 L22,59 C22,61.047 22.953,62 25,62 L37,62 C39.075,62 40,61.075 40,59 L40,48 C42.206,48 44,46.206 44,44 L44,38 L47,38 C47.552,38 48,37.552 48,37 L48,29 C48,28.448 47.552,28 47,28 L44,28 L44,22 C44,19.794 42.206,18 40,18 L40,7 C40,4.925 39.075,4 37,4 L37,4 Z M38,59 C38,59.972 37.972,60 37,60 L25,60 C24.056,60 24,59.944 24,59 L24,48 L38,48 L38,59 L38,59 Z M46,30 L46,36 L44,36 L44,30 L46,30 L46,30 Z M42,22 L42,44 C42,45.103 41.103,46 40,46 L22,46 C20.897,46 20,45.103 20,44 L20,22 C20,20.897 20.897,20 22,20 L40,20 C41.103,20 42,20.897 42,22 L42,22 Z M24,18 L24,7 C24,6.056 24.056,6 25,6 L37,6 C37.972,6 38,6.028 38,7 L38,18 L24,18 L24,18 Z" id="Shape" fill="#000000"></path>
    </g>
</svg>