<?xml version="1.0" encoding="UTF-8" standalone="no"?>
<svg width="64px" height="64px" viewBox="0 0 64 64" version="1.1" xmlns="http://www.w3.org/2000/svg" xmlns:xlink="http://www.w3.org/1999/xlink">
    <!-- Generator: Sketch 3.7.2 (28276) - http://www.bohemiancoding.com/sketch -->
    <title>tim-sand-timer-end</title>
    <desc>Created with Sketch.</desc>
    <defs></defs>
    <g id="64px-Line" stroke="none" stroke-width="1" fill="none" fill-rule="evenodd">
        <g id="tim-sand-timer-end"></g>
        <path d="M25.555,30.54 C22.388,32.114 20,36.396 20,40.5 L20,58 L17,58 C16.447,58 16,58.448 16,59 C16,59.552 16.447,60 17,60 L45,60 C45.553,60 46,59.552 46,59 C46,58.448 45.553,58 45,58 L42,58 L42,40.5 C42,36.396 39.612,32.114 36.501,30.57 C36.179,30.383 36,30.115 36,30 C36,29.82 36.241,29.45 36.444,29.332 C40.079,27.531 42,24.65 42,21 L42,4 L45,4 C45.553,4 46,3.552 46,3 C46,2.448 45.553,2 45,2 L17,2 C16.447,2 16,2.448 16,3 C16,3.552 16.447,4 17,4 L20,4 L20,21 C20,24.65 21.921,27.531 25.502,29.303 C25.759,29.45 26,29.82 26,30 C26,30.115 25.821,30.383 25.555,30.54 L25.555,30.54 Z M26.444,27.54 C23.495,26.079 22,23.879 22,21 L22,4 L40,4 L40,21 C40,23.878 38.505,26.079 35.502,27.568 C34.756,27.998 34,28.97 34,30 C34,31.058 34.774,31.882 35.555,32.331 C38.048,33.57 40,37.158 40,40.5 L40,58 L22,58 L22,40.5 C22,37.158 23.952,33.57 26.501,32.301 C27.226,31.882 28,31.057 28,30 C28,28.97 27.244,27.998 26.444,27.54 L26.444,27.54 Z" id="Shape" fill="#000000"></path>
        <path d="M24,39 L24,55 C24,55.552 24.447,56 25,56 L37,56 C37.553,56 38,55.552 38,55 L38,38.997 C38,38.663 37.833,38.35 37.555,38.165 L31.555,34.168 C31.219,33.944 30.782,33.944 30.446,34.168 L24.446,38.168 C24.167,38.354 24,38.666 24,39 L24,39 Z M26,39.535 L31,36.202 L36,39.533 L36,54 L26,54 L26,39.535 L26,39.535 Z" id="Shape" fill="#000000"></path>
    </g>
</svg>