<?xml version="1.0" encoding="UTF-8" standalone="no"?>
<svg width="64px" height="64px" viewBox="0 0 64 64" version="1.1" xmlns="http://www.w3.org/2000/svg" xmlns:xlink="http://www.w3.org/1999/xlink">
    <!-- Generator: Sketch 3.7.2 (28276) - http://www.bohemiancoding.com/sketch -->
    <title>tim-stop-watch</title>
    <desc>Created with Sketch.</desc>
    <defs></defs>
    <g id="64px-Line" stroke="none" stroke-width="1" fill="none" fill-rule="evenodd">
        <g id="tim-stop-watch"></g>
        <path d="M31,60 C42.58,60 52,50.58 52,39 C52,34.291 50.423,29.954 47.795,26.447 L50.777,23.465 C51.168,23.074 51.168,22.442 50.777,22.051 L47.949,19.223 C47.558,18.832 46.926,18.832 46.535,19.223 L43.553,22.205 C41.338,20.545 38.792,19.317 36.026,18.633 C38.422,17.194 40,14.758 40,12 C40,7.589 35.962,4 31,4 C26.038,4 22,7.589 22,12 C22,14.758 23.578,17.194 25.974,18.633 C23.208,19.316 20.661,20.545 18.447,22.205 L15.465,19.223 C15.074,18.832 14.442,18.832 14.051,19.223 L11.223,22.051 C10.832,22.442 10.832,23.074 11.223,23.465 L14.205,26.447 C11.577,29.954 10,34.291 10,39 C10,50.58 19.42,60 31,60 L31,60 Z M31,58 C20.523,58 12,49.477 12,39 C12,28.523 20.523,20 31,20 C41.477,20 50,28.523 50,39 C50,49.477 41.477,58 31,58 L31,58 Z M28,14 L28,12 L34,12 L34,14 L28,14 L28,14 Z M32,16 L32,17.932 C31.672,17.972 31.34,18 31,18 C30.66,18 30.328,17.972 30,17.932 L30,16 L32,16 L32,16 Z M47.242,21.344 L48.656,22.758 L46.515,24.899 C46.066,24.405 45.595,23.934 45.101,23.485 L47.242,21.344 L47.242,21.344 Z M24,12 C24,8.691 27.14,6 31,6 C34.86,6 38,8.691 38,12 C38,14.387 36.361,16.448 34,17.413 L34,16 L35,16 C35.552,16 36,15.552 36,15 L36,11 C36,10.448 35.552,10 35,10 L27,10 C26.448,10 26,10.448 26,11 L26,15 C26,15.552 26.448,16 27,16 L28,16 L28,17.413 C25.639,16.448 24,14.387 24,12 L24,12 Z M13.344,22.758 L14.758,21.344 L16.899,23.485 C16.405,23.934 15.934,24.405 15.485,24.899 L13.344,22.758 L13.344,22.758 Z" id="Shape" fill="#000000"></path>
        <path d="M40.293,28.293 L32.276,36.31 C31.165,35.809 29.766,35.991 28.878,36.879 C28.311,37.446 28,38.199 28,39 C28,39.462 28.114,39.894 28.301,40.285 L26.293,42.293 C25.902,42.684 25.902,43.316 26.293,43.707 C26.488,43.902 26.744,44 27,44 C27.256,44 27.512,43.902 27.707,43.707 L29.714,41.7 C30.105,41.887 30.537,42 30.999,42 C32.654,42 34,40.654 34,39.001 C34,38.547 33.89,38.112 33.7,37.714 L41.707,29.707 C42.098,29.316 42.098,28.684 41.707,28.293 C41.316,27.902 40.684,27.902 40.293,28.293 L40.293,28.293 Z M30.999,40 C30.448,40 30,39.551 30,38.999 C30,38.732 30.104,38.481 30.292,38.293 C30.481,38.104 30.732,38 30.999,38 C31.266,38 31.517,38.104 31.706,38.292 C31.706,38.292 31.706,38.293 31.707,38.293 C31.707,38.293 31.708,38.294 31.709,38.294 C31.897,38.482 32,38.733 32,39 C32,39.551 31.551,40 30.999,40 L30.999,40 Z" id="Shape" fill="#000000"></path>
    </g>
</svg>