<?xml version="1.0" encoding="UTF-8" standalone="no"?>
<svg width="64px" height="64px" viewBox="0 0 64 64" version="1.1" xmlns="http://www.w3.org/2000/svg" xmlns:xlink="http://www.w3.org/1999/xlink">
    <!-- Generator: Sketch 3.7.2 (28276) - http://www.bohemiancoding.com/sketch -->
    <title>tim-zone-9</title>
    <desc>Created with Sketch.</desc>
    <defs></defs>
    <g id="64px-Line" stroke="none" stroke-width="1" fill="none" fill-rule="evenodd">
        <g id="tim-zone-9"></g>
        <path d="M7,16 L19,16 C19.552,16 20,15.553 20,15 C20,14.447 19.552,14 19,14 L7,14 C6.448,14 6,14.447 6,15 C6,15.553 6.448,16 7,16 L7,16 Z" id="Shape" fill="#000000"></path>
        <path d="M43,30 C34.729,30 28,36.729 28,44.999 C28,53.253 34.703,59.97 42.952,59.996 C42.968,59.996 42.983,60 43,60 C43.017,60 43.031,59.996 43.048,59.996 C51.297,59.97 58,53.254 58,44.999 C58,36.729 51.271,30 43,30 L43,30 Z M42,36.973 C40.781,36.928 39.594,36.801 38.462,36.599 C39.398,34.285 40.68,32.742 42,32.213 L42,36.973 L42,36.973 Z M42,38.972 L42,44 L37.025,44 C37.097,41.958 37.379,40.106 37.818,38.508 C39.154,38.764 40.56,38.922 42,38.972 L42,38.972 Z M42,46 L42,51.026 C40.56,51.076 39.154,51.235 37.817,51.491 C37.378,49.893 37.097,48.041 37.025,46 L42,46 L42,46 Z M42,53.025 L42,57.789 C40.679,57.26 39.397,55.715 38.461,53.4 C39.593,53.198 40.781,53.071 42,53.025 L42,53.025 Z M44,53.025 C45.219,53.07 46.407,53.197 47.539,53.4 C46.603,55.715 45.32,57.26 44,57.789 L44,53.025 L44,53.025 Z M44,51.026 L44,46 L48.975,46 C48.903,48.042 48.622,49.893 48.183,51.491 C46.846,51.235 45.44,51.076 44,51.026 L44,51.026 Z M44,44 L44,38.972 C45.44,38.922 46.846,38.764 48.182,38.508 C48.621,40.106 48.903,41.958 48.975,44 L44,44 L44,44 Z M44,36.973 L44,32.213 C45.32,32.742 46.602,34.286 47.538,36.599 C46.406,36.801 45.219,36.927 44,36.973 L44,36.973 Z M47.785,32.924 C49.247,33.505 50.574,34.346 51.72,35.386 C51.03,35.682 50.285,35.942 49.493,36.16 C49.017,34.92 48.441,33.831 47.785,32.924 L47.785,32.924 Z M36.507,36.16 C35.715,35.941 34.97,35.682 34.28,35.386 C35.426,34.345 36.753,33.505 38.215,32.924 C37.559,33.831 36.983,34.92 36.507,36.16 L36.507,36.16 Z M35.885,38.06 C35.397,39.849 35.099,41.856 35.026,44 L30.051,44 C30.255,41.335 31.261,38.895 32.834,36.92 C33.759,37.367 34.781,37.751 35.885,38.06 L35.885,38.06 Z M35.026,46 C35.098,48.144 35.396,50.151 35.884,51.94 C34.781,52.249 33.76,52.633 32.835,53.08 C31.261,51.105 30.255,48.665 30.051,46 L35.026,46 L35.026,46 Z M36.505,53.839 C36.981,55.078 37.555,56.166 38.21,57.072 C36.75,56.491 35.425,55.652 34.281,54.613 C34.97,54.317 35.714,54.058 36.505,53.839 L36.505,53.839 Z M49.495,53.839 C50.286,54.057 51.03,54.317 51.719,54.613 C50.574,55.652 49.249,56.491 47.79,57.072 C48.444,56.166 49.019,55.078 49.495,53.839 L49.495,53.839 Z M50.116,51.94 C50.604,50.151 50.902,48.144 50.974,46 L55.949,46 C55.745,48.665 54.738,51.104 53.165,53.08 C52.24,52.633 51.218,52.249 50.116,51.94 L50.116,51.94 Z M50.974,44 C50.901,41.856 50.603,39.849 50.115,38.06 C51.219,37.751 52.241,37.367 53.166,36.92 C54.739,38.895 55.745,41.335 55.949,44 L50.974,44 L50.974,44 Z" id="Shape" fill="#000000"></path>
        <path d="M31.5,24 C29.607,24 27.809,22.847 26.564,20.837 C26.273,20.368 25.657,20.222 25.188,20.513 C24.719,20.804 24.573,21.42 24.864,21.89 C26.481,24.502 28.9,26 31.5,26 C36.187,26 40,21.065 40,15 C40,11.219 38.803,8.113 36.816,6.175 C36.798,6.157 36.778,6.14 36.76,6.122 C36.069,5.461 35.285,4.941 34.422,4.582 C34.42,4.581 34.417,4.58 34.415,4.579 C34.211,4.495 34.003,4.42 33.791,4.354 C33.745,4.339 33.699,4.326 33.653,4.312 C33.467,4.258 33.279,4.208 33.087,4.169 C32.985,4.147 32.88,4.132 32.776,4.114 C32.627,4.09 32.479,4.062 32.326,4.046 C32.055,4.017 31.78,3.999 31.501,3.999 C27.365,3.999 24.001,7.302 24.001,11.362 C24.001,15.502 27.436,18.999 31.501,18.999 C34.24,18.999 36.688,17.408 37.997,15.106 C37.954,20.02 35.058,24 31.5,24 L31.5,24 Z M31.5,17 C28.519,17 26,14.419 26,11.363 C26,8.406 28.467,6 31.5,6 C31.711,6 31.916,6.015 32.119,6.036 C32.239,6.049 32.358,6.068 32.475,6.089 C32.54,6.1 32.604,6.111 32.668,6.124 C35.141,6.648 36.999,8.797 36.999,11.363 C37,14.419 34.481,17 31.5,17 L31.5,17 Z" id="Shape" fill="#000000"></path>
    </g>
</svg>