<?xml version="1.0" encoding="UTF-8" standalone="no"?>
<svg width="64px" height="64px" viewBox="0 0 64 64" version="1.1" xmlns="http://www.w3.org/2000/svg" xmlns:xlink="http://www.w3.org/1999/xlink">
    <!-- Generator: Sketch 3.7.2 (28276) - http://www.bohemiancoding.com/sketch -->
    <title>tim-calendar-flag</title>
    <desc>Created with Sketch.</desc>
    <defs></defs>
    <g id="64px-Line" stroke="none" stroke-width="1" fill="none" fill-rule="evenodd">
        <g id="tim-calendar-flag"></g>
        <path d="M52,8 L10,8 C7.794,8 6,9.794 6,12 L6,54 C6,56.206 7.794,58 10,58 L52,58 C54.206,58 56,56.206 56,54 L56,12 C56,9.794 54.206,8 52,8 L52,8 Z M10,10 L52,10 C53.103,10 54,10.897 54,12 L54,20 L8,20 L8,12 C8,10.897 8.897,10 10,10 L10,10 Z M52,56 L10,56 C8.897,56 8,55.103 8,54 L8,22 L54,22 L54,54 C54,55.103 53.103,56 52,56 L52,56 Z" id="Shape" fill="#000000"></path>
        <path d="M19,18 C20.654,18 22,16.654 22,15 C22,13.346 20.654,12 19,12 C17.346,12 16,13.346 16,15 C16,16.654 17.346,18 19,18 L19,18 Z M19,14 C19.551,14 20,14.448 20,15 C20,15.552 19.551,16 19,16 C18.449,16 18,15.552 18,15 C18,14.448 18.449,14 19,14 L19,14 Z" id="Shape" fill="#000000"></path>
        <path d="M43,18 C44.654,18 46,16.654 46,15 C46,13.346 44.654,12 43,12 C41.346,12 40,13.346 40,15 C40,16.654 41.346,18 43,18 L43,18 Z M43,14 C43.551,14 44,14.448 44,15 C44,15.552 43.551,16 43,16 C42.449,16 42,15.552 42,15 C42,14.448 42.449,14 43,14 L43,14 Z" id="Shape" fill="#000000"></path>
        <path d="M41,26 L23,26 C22.448,26 22,26.447 22,27 L22,39 L22,51 C22,51.553 22.448,52 23,52 C23.552,52 24,51.553 24,51 L24,40 L41,40 C41.552,40 42,39.553 42,39 L42,27 C42,26.447 41.552,26 41,26 L41,26 Z M40,38 L24,38 L24,28 L40,28 L40,38 L40,38 Z" id="Shape" fill="#000000"></path>
    </g>
</svg>