<?xml version="1.0" encoding="UTF-8" standalone="no"?>
<svg width="64px" height="64px" viewBox="0 0 64 64" version="1.1" xmlns="http://www.w3.org/2000/svg" xmlns:xlink="http://www.w3.org/1999/xlink">
    <!-- Generator: Sketch 3.7.2 (28276) - http://www.bohemiancoding.com/sketch -->
    <title>tim-clock-face</title>
    <desc>Created with Sketch.</desc>
    <defs></defs>
    <g id="64px-Line" stroke="none" stroke-width="1" fill="none" fill-rule="evenodd">
        <g id="tim-clock-face"></g>
        <path d="M43,46 C43.256,46 43.512,45.902 43.707,45.707 C44.098,45.316 44.098,44.684 43.707,44.293 L32,32.586 L32,17 C32,16.448 31.553,16 31,16 C30.447,16 30,16.448 30,17 L30,33 C30,33.13 30.027,33.26 30.077,33.382 C30.128,33.505 30.201,33.615 30.294,33.708 L42.293,45.707 C42.488,45.902 42.744,46 43,46 L43,46 Z" id="Shape" fill="#000000"></path>
        <path d="M31,12 C31.553,12 32,11.552 32,11 L32,7 C32,6.448 31.553,6 31,6 C30.447,6 30,6.448 30,7 L30,11 C30,11.552 30.447,12 31,12 L31,12 Z" id="Shape" fill="#000000"></path>
        <path d="M32,59 L32,55 C32,54.448 31.553,54 31,54 C30.447,54 30,54.448 30,55 L30,59 C30,59.552 30.447,60 31,60 C31.553,60 32,59.552 32,59 L32,59 Z" id="Shape" fill="#000000"></path>
        <path d="M10,33 C10,32.448 9.553,32 9,32 L5,32 C4.447,32 4,32.448 4,33 C4,33.552 4.447,34 5,34 L9,34 C9.553,34 10,33.552 10,33 L10,33 Z" id="Shape" fill="#000000"></path>
        <path d="M57,32 L53,32 C52.447,32 52,32.448 52,33 C52,33.552 52.447,34 53,34 L57,34 C57.553,34 58,33.552 58,33 C58,32.448 57.553,32 57,32 L57,32 Z" id="Shape" fill="#000000"></path>
        <path d="M18.134,12.716 C18.32,13.037 18.655,13.216 19.001,13.216 C19.171,13.216 19.343,13.173 19.5,13.082 C19.979,12.806 20.143,12.194 19.866,11.716 L18.866,9.984 C18.589,9.505 17.976,9.341 17.5,9.618 C17.021,9.894 16.857,10.506 17.134,10.984 L18.134,12.716 L18.134,12.716 Z" id="Shape" fill="#000000"></path>
        <path d="M43.134,56.017 C43.32,56.338 43.655,56.517 44.001,56.517 C44.171,56.517 44.343,56.474 44.5,56.383 C44.979,56.107 45.143,55.495 44.866,55.017 L43.866,53.286 C43.589,52.807 42.975,52.642 42.5,52.92 C42.021,53.196 41.857,53.808 42.134,54.286 L43.134,56.017 L43.134,56.017 Z" id="Shape" fill="#000000"></path>
        <path d="M9.716,44.134 L7.984,45.134 C7.505,45.41 7.341,46.022 7.618,46.5 C7.804,46.821 8.139,47 8.485,47 C8.655,47 8.827,46.957 8.984,46.866 L10.716,45.866 C11.195,45.59 11.359,44.978 11.082,44.5 C10.805,44.021 10.192,43.858 9.716,44.134 L9.716,44.134 Z" id="Shape" fill="#000000"></path>
        <path d="M50.919,21.5 C51.105,21.821 51.44,22 51.786,22 C51.956,22 52.128,21.957 52.285,21.866 L54.016,20.866 C54.495,20.59 54.659,19.978 54.382,19.5 C54.105,19.021 53.492,18.856 53.016,19.134 L51.285,20.134 C50.807,20.41 50.643,21.022 50.919,21.5 L50.919,21.5 Z" id="Shape" fill="#000000"></path>
        <path d="M7.982,20.866 L9.714,21.868 C9.872,21.959 10.044,22.002 10.214,22.002 C10.56,22.002 10.896,21.823 11.08,21.502 C11.357,21.024 11.193,20.412 10.716,20.136 L8.984,19.134 C8.503,18.856 7.892,19.021 7.618,19.499 C7.341,19.978 7.505,20.589 7.982,20.866 L7.982,20.866 Z" id="Shape" fill="#000000"></path>
        <path d="M50.919,44.502 C50.643,44.981 50.808,45.592 51.286,45.868 L53.017,46.866 C53.174,46.957 53.346,47 53.515,47 C53.861,47 54.198,46.82 54.382,46.5 C54.658,46.021 54.493,45.41 54.015,45.134 L52.284,44.136 C51.806,43.86 51.193,44.025 50.919,44.502 L50.919,44.502 Z" id="Shape" fill="#000000"></path>
        <path d="M17.5,56.382 C17.657,56.473 17.829,56.516 17.999,56.516 C18.345,56.516 18.681,56.337 18.866,56.016 L19.867,54.284 C20.143,53.805 19.979,53.194 19.501,52.918 C19.023,52.64 18.411,52.805 18.135,53.283 L17.134,55.015 C16.857,55.495 17.021,56.106 17.5,56.382 L17.5,56.382 Z" id="Shape" fill="#000000"></path>
        <path d="M43,13.216 C43.346,13.216 43.682,13.037 43.867,12.716 L44.866,10.984 C45.142,10.505 44.977,9.894 44.5,9.618 C44.019,9.342 43.41,9.505 43.134,9.985 L42.135,11.717 C41.859,12.196 42.024,12.807 42.501,13.083 C42.659,13.173 42.83,13.216 43,13.216 L43,13.216 Z" id="Shape" fill="#000000"></path>
    </g>
</svg>