<?xml version="1.0" encoding="UTF-8" standalone="no"?>
<svg width="64px" height="64px" viewBox="0 0 64 64" version="1.1" xmlns="http://www.w3.org/2000/svg" xmlns:xlink="http://www.w3.org/1999/xlink">
    <!-- Generator: Sketch 3.7.2 (28276) - http://www.bohemiancoding.com/sketch -->
    <title>tim-add</title>
    <desc>Created with Sketch.</desc>
    <defs></defs>
    <g id="64px-Line" stroke="none" stroke-width="1" fill="none" fill-rule="evenodd">
        <g id="tim-add"></g>
        <path d="M23,42 C33.477,42 42,33.477 42,23 C42,12.523 33.477,4 23,4 C12.523,4 4,12.523 4,23 C4,33.477 12.523,42 23,42 L23,42 Z M23,6 C32.374,6 40,13.626 40,23 C40,32.374 32.374,40 23,40 C13.626,40 6,32.374 6,23 C6,13.626 13.626,6 23,6 L23,6 Z" id="Shape" fill="#000000"></path>
        <path d="M22.293,23.707 L28.293,29.707 C28.488,29.902 28.744,30 29,30 C29.256,30 29.512,29.902 29.707,29.707 C30.098,29.316 30.098,28.684 29.707,28.293 L24,22.586 L24,15 C24,14.448 23.552,14 23,14 C22.448,14 22,14.448 22,15 L22,23 C22,23.13 22.027,23.26 22.077,23.382 C22.128,23.505 22.201,23.615 22.293,23.707 L22.293,23.707 Z" id="Shape" fill="#000000"></path>
        <path d="M23,10 C23.13,10 23.26,9.98 23.38,9.92 C23.5,9.87 23.61,9.8 23.71,9.71 C23.89,9.52 24,9.26 24,9 C24,8.87 23.97,8.74 23.92,8.62 C23.87,8.5 23.8,8.39 23.71,8.29 C23.61,8.2 23.51,8.13 23.38,8.08 C23.02,7.92 22.57,8.01 22.29,8.29 C22.2,8.39 22.13,8.5 22.08,8.62 C22.03,8.74 22,8.87 22,9 C22,9.26 22.11,9.52 22.29,9.71 C22.48,9.89 22.74,10 23,10 L23,10 Z" id="Shape" fill="#000000"></path>
        <path d="M23,38 C23.13,38 23.26,37.97 23.38,37.92 C23.5,37.87 23.61,37.8 23.71,37.71 C23.89,37.52 24,37.26 24,37 C24,36.87 23.97,36.74 23.92,36.62 C23.87,36.5 23.8,36.39 23.71,36.29 C23.61,36.2 23.51,36.13 23.38,36.08 C23.01,35.93 22.57,36.01 22.29,36.29 C22.2,36.39 22.13,36.5 22.08,36.62 C22.03,36.74 22,36.87 22,37 C22,37.26 22.11,37.52 22.29,37.71 C22.48,37.89 22.74,38 23,38 L23,38 Z" id="Shape" fill="#000000"></path>
        <path d="M10,23 C10,22.74 9.89,22.48 9.71,22.29 C9.34,21.92 8.66,21.92 8.29,22.29 C8.11,22.48 8,22.74 8,23 C8,23.13 8.03,23.26 8.08,23.38 C8.13,23.5 8.2,23.61 8.29,23.71 C8.48,23.89 8.74,24 9,24 C9.07,24 9.13,23.99 9.2,23.98 C9.26,23.97 9.32,23.95 9.38,23.92 C9.44,23.9 9.5,23.87 9.56,23.83 C9.61,23.8 9.66,23.75 9.71,23.71 C9.8,23.61 9.87,23.5 9.92,23.38 C9.97,23.26 10,23.13 10,23 L10,23 Z" id="Shape" fill="#000000"></path>
        <path d="M36,23 C36,23.26 36.11,23.52 36.29,23.71 C36.39,23.8 36.49,23.87 36.62,23.92 C36.74,23.97 36.87,24 37,24 C37.26,24 37.52,23.89 37.71,23.71 C37.75,23.66 37.8,23.61 37.83,23.56 C37.87,23.5 37.9,23.44 37.92,23.38 C37.95,23.32 37.97,23.26 37.98,23.2 C37.99,23.13 38,23.06 38,23 C38,22.74 37.89,22.48 37.71,22.29 C37.43,22.01 36.99,21.92 36.62,22.08 C36.49,22.13 36.39,22.2 36.29,22.29 C36.2,22.39 36.13,22.49 36.08,22.62 C36.03,22.74 36,22.87 36,23 L36,23 Z" id="Shape" fill="#000000"></path>
        <path d="M15.08,11.26 C15.1,11.32 15.13,11.38 15.17,11.43 C15.21,11.49 15.25,11.54 15.29,11.58 C15.34,11.63 15.39,11.67 15.44,11.71 L15.62,11.8 C15.68,11.82 15.74,11.84 15.8,11.86 C15.87,11.87 15.93,11.88 16,11.88 C16.13,11.88 16.26,11.85 16.38,11.8 C16.5,11.75 16.61,11.68 16.71,11.58 C16.89,11.4 17,11.14 17,10.88 C17,10.74 16.98,10.62 16.92,10.49 C16.87,10.37 16.8,10.26 16.71,10.17 C16.61,10.07 16.5,10 16.38,9.95 C16.2,9.88 16,9.86 15.8,9.89 C15.74,9.91 15.68,9.93 15.62,9.95 L15.44,10.04 C15.39,10.08 15.34,10.12 15.29,10.17 C15.2,10.26 15.13,10.37 15.08,10.49 C15.03,10.62 15,10.74 15,10.88 C15,10.94 15.01,11.01 15.02,11.07 C15.03,11.13 15.05,11.2 15.08,11.26 L15.08,11.26 Z" id="Shape" fill="#000000"></path>
        <path d="M30.92,34.74 C30.9,34.68 30.87,34.62 30.83,34.57 C30.79,34.51 30.75,34.46 30.71,34.42 C30.34,34.04 29.66,34.05 29.29,34.42 C29.11,34.6 29,34.86 29,35.12 C29,35.39 29.11,35.65 29.29,35.83 C29.34,35.88 29.39,35.92 29.44,35.96 L29.62,36.05 C29.68,36.07 29.74,36.09 29.81,36.11 C29.87,36.12 29.94,36.13 30,36.13 C30.26,36.13 30.52,36.02 30.71,35.83 C30.75,35.79 30.79,35.73 30.83,35.68 C30.87,35.63 30.9,35.57 30.92,35.51 C30.95,35.45 30.97,35.38 30.98,35.32 C30.99,35.25 31,35.19 31,35.12 C31,35.06 30.99,34.99 30.98,34.93 C30.97,34.86 30.95,34.8 30.92,34.74 L30.92,34.74 Z" id="Shape" fill="#000000"></path>
        <path d="M11.71,30.55 C11.74,30.5 11.77,30.44 11.8,30.38 C11.82,30.32 11.84,30.26 11.86,30.2 C11.87,30.13 11.88,30.07 11.88,30 C11.88,29.87 11.85,29.74 11.8,29.62 C11.75,29.5 11.68,29.39 11.58,29.29 C11.54,29.25 11.49,29.2 11.43,29.17 C11.38,29.13 11.32,29.1 11.26,29.08 C11.2,29.05 11.14,29.03 11.07,29.02 C10.75,28.96 10.4,29.06 10.17,29.29 C10.08,29.39 10,29.5 9.95,29.62 C9.9,29.74 9.88,29.87 9.88,30 C9.88,30.07 9.88,30.13 9.9,30.2 C9.91,30.26 9.93,30.32 9.95,30.38 C9.98,30.44 10.01,30.5 10.04,30.55 C10.08,30.61 10.12,30.66 10.17,30.71 C10.35,30.89 10.61,31 10.88,31 C11.14,31 11.4,30.89 11.58,30.71 C11.63,30.66 11.67,30.61 11.71,30.55 L11.71,30.55 Z" id="Shape" fill="#000000"></path>
        <path d="M35.12,17 C35.19,17 35.25,16.99 35.32,16.98 C35.38,16.97 35.45,16.95 35.51,16.92 C35.57,16.9 35.63,16.87 35.68,16.83 C35.73,16.79 35.78,16.75 35.83,16.71 C36.02,16.52 36.12,16.26 36.12,16 C36.12,15.87 36.1,15.74 36.05,15.62 C36,15.49 35.92,15.38 35.83,15.29 C35.79,15.25 35.73,15.2 35.68,15.17 C35.63,15.13 35.57,15.1 35.51,15.08 C35.45,15.05 35.38,15.03 35.32,15.02 C35.12,14.98 34.92,15 34.74,15.08 C34.62,15.13 34.51,15.2 34.42,15.29 C34.32,15.38 34.25,15.49 34.2,15.62 C34.15,15.74 34.12,15.87 34.12,16 C34.12,16.26 34.23,16.52 34.42,16.71 C34.6,16.89 34.86,17 35.12,17 L35.12,17 Z" id="Shape" fill="#000000"></path>
        <path d="M10.17,16.71 C10.26,16.8 10.37,16.87 10.49,16.92 C10.62,16.97 10.74,17 10.88,17 C11.14,17 11.4,16.89 11.58,16.71 C11.67,16.61 11.75,16.5 11.8,16.38 C11.85,16.26 11.87,16.13 11.87,16 C11.87,15.74 11.77,15.48 11.58,15.29 C11.31,15.01 10.86,14.92 10.49,15.08 C10.37,15.13 10.26,15.2 10.17,15.29 C9.98,15.48 9.88,15.74 9.88,16 C9.88,16.13 9.9,16.26 9.95,16.38 C10,16.5 10.07,16.61 10.17,16.71 L10.17,16.71 Z" id="Shape" fill="#000000"></path>
        <path d="M35.12,31 C35.19,31 35.25,30.99 35.32,30.98 C35.38,30.97 35.45,30.95 35.51,30.92 C35.57,30.9 35.63,30.87 35.68,30.83 C35.73,30.79 35.78,30.75 35.83,30.71 C36.02,30.52 36.12,30.26 36.12,30 C36.12,29.94 36.12,29.87 36.1,29.81 C36.09,29.74 36.07,29.68 36.05,29.62 C36.02,29.56 35.99,29.5 35.95,29.44 C35.92,29.39 35.88,29.34 35.83,29.29 C35.79,29.25 35.73,29.2 35.68,29.17 C35.63,29.13 35.57,29.1 35.51,29.08 C35.45,29.05 35.38,29.03 35.32,29.02 C35.12,28.98 34.92,29 34.74,29.08 C34.62,29.13 34.51,29.2 34.42,29.29 C34.37,29.34 34.33,29.39 34.29,29.44 C34.26,29.5 34.23,29.56 34.2,29.62 C34.18,29.68 34.16,29.74 34.14,29.81 C34.13,29.87 34.12,29.94 34.12,30 C34.12,30.26 34.23,30.52 34.42,30.71 C34.6,30.89 34.86,31 35.12,31 L35.12,31 Z" id="Shape" fill="#000000"></path>
        <path d="M15.08,35.51 C15.1,35.57 15.13,35.63 15.17,35.68 C15.21,35.73 15.25,35.79 15.29,35.83 C15.34,35.88 15.39,35.92 15.44,35.96 L15.62,36.05 C15.68,36.07 15.74,36.09 15.8,36.1 C15.87,36.12 15.93,36.12 16,36.12 C16.13,36.12 16.26,36.1 16.38,36.05 C16.5,36 16.61,35.92 16.71,35.83 C16.89,35.65 17,35.39 17,35.12 C17,34.99 16.98,34.86 16.92,34.74 C16.87,34.62 16.8,34.51 16.71,34.42 C16.61,34.32 16.5,34.25 16.38,34.2 C16.01,34.05 15.57,34.14 15.29,34.42 C15.2,34.51 15.13,34.62 15.08,34.74 C15.03,34.86 15,34.99 15,35.12 C15,35.19 15.01,35.25 15.02,35.32 C15.03,35.38 15.05,35.45 15.08,35.51 L15.08,35.51 Z" id="Shape" fill="#000000"></path>
        <path d="M29.44,11.71 L29.62,11.8 C29.68,11.83 29.74,11.84 29.81,11.86 C29.87,11.87 29.94,11.88 30,11.88 C30.26,11.88 30.52,11.77 30.71,11.58 C30.89,11.4 31,11.14 31,10.88 C31,10.75 30.97,10.62 30.92,10.49 C30.87,10.37 30.8,10.26 30.71,10.17 C30.47,9.94 30.13,9.83 29.81,9.9 C29.74,9.91 29.68,9.93 29.62,9.95 C29.56,9.98 29.5,10.01 29.44,10.05 C29.39,10.08 29.34,10.12 29.29,10.17 C29.2,10.26 29.13,10.37 29.08,10.49 C29.03,10.62 29,10.75 29,10.88 C29,11.14 29.11,11.4 29.29,11.58 C29.34,11.63 29.39,11.67 29.44,11.71 L29.44,11.71 Z" id="Shape" fill="#000000"></path>
        <path d="M59,46 L48,46 L48,35 C48,34.448 47.552,34 47,34 C46.448,34 46,34.448 46,35 L46,46 L35,46 C34.448,46 34,46.448 34,47 C34,47.552 34.448,48 35,48 L46,48 L46,59 C46,59.552 46.448,60 47,60 C47.552,60 48,59.552 48,59 L48,48 L59,48 C59.552,48 60,47.552 60,47 C60,46.448 59.552,46 59,46 L59,46 Z" id="Shape" fill="#000000"></path>
    </g>
</svg>