<?xml version="1.0" encoding="UTF-8" standalone="no"?>
<svg width="64px" height="64px" viewBox="0 0 64 64" version="1.1" xmlns="http://www.w3.org/2000/svg" xmlns:xlink="http://www.w3.org/1999/xlink">
    <!-- Generator: Sketch 3.7.2 (28276) - http://www.bohemiancoding.com/sketch -->
    <title>tim-carriage-clock</title>
    <desc>Created with Sketch.</desc>
    <defs></defs>
    <g id="64px-Line" stroke="none" stroke-width="1" fill="none" fill-rule="evenodd">
        <g id="tim-carriage-clock"></g>
        <path d="M15,62 L19,62 C19.553,62 20,61.552 20,61 L20,60 L48,60 L48,61 C48,61.552 48.447,62 49,62 L51,62 C51.553,62 52,61.552 52,61 L52,54.999 C52,53.697 51.161,52.597 50,52.183 L50,17.816 C51.161,17.402 52,16.302 52,15 C52,13.346 50.654,12 49,12 L45,12 C44.448,12 44,11.551 44,11 C44,10.44 44.692,10.126 45.273,9.962 C47.646,9.287 48,7.816 48,7 C48,5.346 46.654,4 45,4 L21,4 C19.346,4 18,5.346 18,7 C18,7.816 18.354,9.287 20.728,9.962 C21.308,10.126 22,10.44 22,11 C22,11.551 21.552,12 21,12 L17,12 C15.346,12 14,13.346 14,15 C14,16.302 14.839,17.402 16,17.816 L16,52.184 C14.839,52.598 14,53.698 14,55 L14,61 C14,61.552 14.447,62 15,62 L15,62 Z M18,51.999 L18,18 L48,18 L48,51.999 L18,51.999 L18,51.999 Z M21.273,8.038 C20.429,7.798 20,7.448 20,7 C20,6.449 20.448,6 21,6 L45,6 C45.552,6 46,6.449 46,7 C46,7.448 45.571,7.798 44.728,8.038 C42.994,8.528 42,9.608 42,11 C42,11.352 42.072,11.686 42.184,12 L23.815,12 C23.927,11.686 23.999,11.352 23.999,11 C24,9.608 23.006,8.528 21.273,8.038 L21.273,8.038 Z M17,14 L49,14 C49.552,14 50,14.449 50,15 C50,15.551 49.552,16 49,16 L17,16 C16.448,16 16,15.551 16,15 C16,14.449 16.448,14 17,14 L17,14 Z M16,54.999 C16,54.448 16.448,53.999 17,53.999 L49,53.999 C49.552,53.999 50,54.448 50,54.999 L50,59 C50,58.448 49.553,58 49,58 L19,58 C18.447,58 18,58.448 18,59 L18,60 L16,60 L16,54.999 L16,54.999 Z" id="Shape" fill="#000000"></path>
        <path d="M24,35 C24,34.448 23.553,34 23,34 L21,34 C20.447,34 20,34.448 20,35 C20,35.552 20.447,36 21,36 L23,36 C23.553,36 24,35.552 24,35 L24,35 Z" id="Shape" fill="#000000"></path>
        <path d="M45,34 L43,34 C42.447,34 42,34.448 42,35 C42,35.552 42.447,36 43,36 L45,36 C45.553,36 46,35.552 46,35 C46,34.448 45.553,34 45,34 L45,34 Z" id="Shape" fill="#000000"></path>
        <path d="M33,44 C32.447,44 32,44.448 32,45 L32,47 C32,47.552 32.447,48 33,48 C33.553,48 34,47.552 34,47 L34,45 C34,44.448 33.553,44 33,44 L33,44 Z" id="Shape" fill="#000000"></path>
        <path d="M33,26 C33.553,26 34,25.552 34,25 L34,23 C34,22.448 33.553,22 33,22 C32.447,22 32,22.448 32,23 L32,25 C32,25.552 32.447,26 33,26 L33,26 Z" id="Shape" fill="#000000"></path>
        <path d="M23.84,39.134 L22.109,40.134 C21.63,40.41 21.466,41.022 21.743,41.5 C21.929,41.821 22.264,42 22.61,42 C22.78,42 22.952,41.957 23.109,41.866 L24.84,40.866 C25.319,40.59 25.483,39.978 25.206,39.5 C24.929,39.021 24.315,38.857 23.84,39.134 L23.84,39.134 Z" id="Shape" fill="#000000"></path>
        <path d="M41.661,31 C41.831,31 42.003,30.957 42.16,30.866 L43.892,29.866 C44.371,29.59 44.535,28.978 44.258,28.5 C43.981,28.021 43.367,27.857 42.892,28.134 L41.16,29.134 C40.681,29.41 40.517,30.022 40.794,30.5 C40.979,30.821 41.315,31 41.661,31 L41.661,31 Z" id="Shape" fill="#000000"></path>
        <path d="M38.866,43.16 C38.589,42.681 37.976,42.517 37.5,42.794 C37.021,43.07 36.857,43.682 37.134,44.16 L38.134,45.892 C38.32,46.213 38.655,46.392 39.001,46.392 C39.171,46.392 39.343,46.349 39.5,46.258 C39.979,45.982 40.143,45.37 39.866,44.892 L38.866,43.16 L38.866,43.16 Z" id="Shape" fill="#000000"></path>
        <path d="M27.134,26.84 C27.32,27.161 27.655,27.34 28.001,27.34 C28.171,27.34 28.343,27.297 28.5,27.206 C28.979,26.93 29.143,26.318 28.866,25.84 L27.866,24.108 C27.589,23.629 26.976,23.466 26.5,23.742 C26.021,24.018 25.857,24.63 26.134,25.108 L27.134,26.84 L27.134,26.84 Z" id="Shape" fill="#000000"></path>
        <path d="M28.5,42.794 C28.022,42.517 27.41,42.682 27.134,43.16 L26.135,44.891 C25.859,45.37 26.023,45.981 26.501,46.257 C26.658,46.348 26.83,46.391 27,46.391 C27.346,46.391 27.682,46.212 27.867,45.891 L28.866,44.16 C29.143,43.682 28.979,43.07 28.5,42.794 L28.5,42.794 Z" id="Shape" fill="#000000"></path>
        <path d="M39.5,23.741 C39.022,23.465 38.41,23.629 38.134,24.107 L37.134,25.839 C36.858,26.318 37.022,26.929 37.5,27.205 C37.657,27.296 37.829,27.339 37.999,27.339 C38.345,27.339 38.681,27.16 38.866,26.839 L39.866,25.107 C40.143,24.629 39.979,24.018 39.5,23.741 L39.5,23.741 Z" id="Shape" fill="#000000"></path>
        <path d="M43.893,40.134 L42.161,39.134 C41.683,38.857 41.071,39.021 40.795,39.5 C40.519,39.979 40.683,40.59 41.161,40.866 L42.893,41.866 C43.05,41.957 43.222,42 43.392,42 C43.738,42 44.074,41.821 44.259,41.5 C44.535,41.021 44.371,40.41 43.893,40.134 L43.893,40.134 Z" id="Shape" fill="#000000"></path>
        <path d="M24.84,29.134 L23.108,28.134 C22.629,27.857 22.018,28.021 21.742,28.5 C21.466,28.979 21.63,29.59 22.108,29.866 L23.84,30.866 C23.997,30.957 24.169,31 24.339,31 C24.685,31 25.021,30.821 25.206,30.5 C25.482,30.021 25.318,29.41 24.84,29.134 L24.84,29.134 Z" id="Shape" fill="#000000"></path>
        <path d="M28.293,31.707 L32.293,35.707 C32.488,35.902 32.744,36 33,36 C33.256,36 33.512,35.902 33.707,35.707 L37.707,31.707 C38.098,31.316 38.098,30.684 37.707,30.293 C37.316,29.902 36.684,29.902 36.293,30.293 L33,33.586 L29.707,30.293 C29.316,29.902 28.684,29.902 28.293,30.293 C27.902,30.684 27.902,31.316 28.293,31.707 L28.293,31.707 Z" id="Shape" fill="#000000"></path>
    </g>
</svg>