<?xml version="1.0" encoding="UTF-8" standalone="no"?>
<svg width="64px" height="64px" viewBox="0 0 64 64" version="1.1" xmlns="http://www.w3.org/2000/svg" xmlns:xlink="http://www.w3.org/1999/xlink">
    <!-- Generator: Sketch 3.7.2 (28276) - http://www.bohemiancoding.com/sketch -->
    <title>tim-past</title>
    <desc>Created with Sketch.</desc>
    <defs></defs>
    <g id="64px-Line" stroke="none" stroke-width="1" fill="none" fill-rule="evenodd">
        <g id="tim-past"></g>
        <path d="M35,8 C21.215,8 10,19.215 10,33 L10,34.586 L3.707,28.293 C3.316,27.902 2.684,27.902 2.293,28.293 C1.902,28.684 1.902,29.316 2.293,29.707 L10.293,37.707 C10.385,37.799 10.496,37.872 10.618,37.923 C10.74,37.973 10.87,38 11,38 C11.13,38 11.26,37.973 11.382,37.923 C11.504,37.872 11.615,37.799 11.707,37.707 L19.707,29.707 C20.098,29.316 20.098,28.684 19.707,28.293 C19.316,27.902 18.684,27.902 18.293,28.293 L12,34.586 L12,33 C12,20.318 22.318,10 35,10 C47.682,10 58,20.318 58,33 C58,45.682 47.682,56 35,56 C34.448,56 34,56.448 34,57 C34,57.552 34.448,58 35,58 C48.785,58 60,46.785 60,33 C60,19.215 48.785,8 35,8 L35,8 Z" id="Shape" fill="#000000"></path>
        <path d="M35,16 C34.448,16 34,16.448 34,17 L34,33 C34,33.552 34.448,34 35,34 L47,34 C47.552,34 48,33.552 48,33 C48,32.448 47.552,32 47,32 L36,32 L36,17 C36,16.448 35.552,16 35,16 L35,16 Z" id="Shape" fill="#000000"></path>
    </g>
</svg>