<?xml version="1.0" encoding="UTF-8" standalone="no"?>
<svg width="64px" height="64px" viewBox="0 0 64 64" version="1.1" xmlns="http://www.w3.org/2000/svg" xmlns:xlink="http://www.w3.org/1999/xlink">
    <!-- Generator: Sketch 3.7.2 (28276) - http://www.bohemiancoding.com/sketch -->
    <title>tim-wrist-watch</title>
    <desc>Created with Sketch.</desc>
    <defs></defs>
    <g id="64px-Line" stroke="none" stroke-width="1" fill="none" fill-rule="evenodd">
        <g id="tim-wrist-watch"></g>
        <path d="M31,34 L37,34 C37.552,34 38,33.552 38,33 C38,32.448 37.552,32 37,32 L32,32 L32,25 C32,24.448 31.552,24 31,24 C30.448,24 30,24.448 30,25 L30,33 C30,33.552 30.448,34 31,34 L31,34 Z" id="Shape" fill="#000000"></path>
        <path d="M37,4 L25,4 C22.953,4 22,4.953 22,7 L22,14.913 L20.043,26.033 C18.756,28.049 18,30.436 18,33 C18,35.564 18.756,37.951 20.043,39.968 L22,51.087 L22,59 C22,61.047 22.953,62 25,62 L37,62 C39.075,62 40,61.075 40,59 L40,51.087 L41.957,39.967 C42.725,38.764 43.298,37.428 43.637,35.999 L47,35.999 C47.552,35.999 48,35.551 48,34.999 L48,30.999 C48,30.447 47.552,29.999 47,29.999 L43.637,29.999 C43.298,28.571 42.725,27.235 41.957,26.031 L40,14.913 L40,7 C40,4.925 39.075,4 37,4 L37,4 Z M23.985,15.173 C23.995,15.116 24,15.058 24,15 L24,7 C24,6.056 24.056,6 25,6 L37,6 C37.972,6 38,6.028 38,7 L38,15 C38,15.058 38.005,15.116 38.015,15.173 L39.411,23.105 C37.141,21.173 34.207,20 31,20 C27.793,20 24.859,21.173 22.589,23.105 L23.985,15.173 L23.985,15.173 Z M31,22 C37.065,22 42,26.935 42,33 C42,39.065 37.065,44 31,44 C24.935,44 20,39.065 20,33 C20,26.935 24.935,22 31,22 L31,22 Z M38.015,50.827 C38.005,50.884 38,50.942 38,51 L38,59 C38,59.972 37.972,60 37,60 L25,60 C24.056,60 24,59.944 24,59 L24,51 C24,50.942 23.995,50.884 23.985,50.827 L22.589,42.895 C24.859,44.827 27.793,46 31,46 C34.207,46 37.141,44.827 39.411,42.895 L38.015,50.827 L38.015,50.827 Z M46,32 L46,34 L43.949,34 C43.974,33.669 44,33.338 44,33 C44,32.662 43.975,32.331 43.949,32 L46,32 L46,32 Z" id="Shape" fill="#000000"></path>
    </g>
</svg>