<?xml version="1.0" encoding="UTF-8" standalone="no"?>
<svg width="64px" height="64px" viewBox="0 0 64 64" version="1.1" xmlns="http://www.w3.org/2000/svg" xmlns:xlink="http://www.w3.org/1999/xlink">
    <!-- Generator: Sketch 3.7.2 (28276) - http://www.bohemiancoding.com/sketch -->
    <title>tim-sand-timer-start</title>
    <desc>Created with Sketch.</desc>
    <defs></defs>
    <g id="64px-Line" stroke="none" stroke-width="1" fill="none" fill-rule="evenodd">
        <g id="tim-sand-timer-start"></g>
        <path d="M25.555,30.54 C22.388,32.114 20,36.396 20,40.5 L20,58 L17,58 C16.447,58 16,58.448 16,59 C16,59.552 16.447,60 17,60 L45,60 C45.553,60 46,59.552 46,59 C46,58.448 45.553,58 45,58 L42,58 L42,40.5 C42,36.396 39.612,32.114 36.501,30.57 C36.179,30.383 36,30.115 36,30 C36,29.82 36.241,29.45 36.444,29.332 C40.079,27.531 42,24.65 42,21 L42,4 L45,4 C45.553,4 46,3.552 46,3 C46,2.448 45.553,2 45,2 L17,2 C16.447,2 16,2.448 16,3 C16,3.552 16.447,4 17,4 L20,4 L20,21 C20,24.65 21.921,27.531 25.502,29.303 C25.759,29.45 26,29.82 26,30 C26,30.115 25.821,30.383 25.555,30.54 L25.555,30.54 Z M26.444,27.54 C23.495,26.079 22,23.879 22,21 L22,4 L40,4 L40,21 C40,23.878 38.505,26.079 35.502,27.568 C34.756,27.998 34,28.97 34,30 C34,31.058 34.774,31.882 35.555,32.331 C38.048,33.57 40,37.158 40,40.5 L40,58 L22,58 L22,40.5 C22,37.158 23.952,33.57 26.501,32.301 C27.226,31.882 28,31.057 28,30 C28,28.97 27.244,27.998 26.444,27.54 L26.444,27.54 Z" id="Shape" fill="#000000"></path>
        <path d="M30,30 L30,31 C30,31.552 30.447,32 31,32 C31.553,32 32,31.552 32,31 L32,30 C32,26.824 34.452,25.852 34.494,25.833 C34.638,25.791 38,24.731 38,20 L38,8 C38,7.735 37.895,7.48 37.707,7.293 C37.575,7.161 36.347,6 34,6 C32.877,6 31.8,6.27 30.758,6.53 C29.79,6.772 28.877,7 28,7 C26.481,7 25.727,6.311 25.707,6.293 C25.421,6.007 24.991,5.921 24.617,6.076 C24.243,6.231 24,6.596 24,7 L24,20 C24,24.731 27.362,25.791 27.45,25.815 C27.476,25.824 30,26.779 30,30 L30,30 Z M26,20 L26,8.686 C26.539,8.867 27.205,9 28,9 C29.123,9 30.2,8.73 31.242,8.47 C32.21,8.228 33.123,8 34,8 C34.986,8 35.65,8.291 36,8.5 L36,20 C36,23.193 33.994,23.893 33.866,23.935 C33.762,23.973 32.11,24.597 30.999,26.342 C29.886,24.595 28.224,23.968 28.092,23.921 C28.006,23.893 26,23.193 26,20 L26,20 Z" id="Shape" fill="#000000"></path>
    </g>
</svg>