<?xml version="1.0" encoding="UTF-8" standalone="no"?>
<svg width="64px" height="64px" viewBox="0 0 64 64" version="1.1" xmlns="http://www.w3.org/2000/svg" xmlns:xlink="http://www.w3.org/1999/xlink">
    <!-- Generator: Sketch 3.7.2 (28276) - http://www.bohemiancoding.com/sketch -->
    <title>tim-calendar-time</title>
    <desc>Created with Sketch.</desc>
    <defs></defs>
    <g id="64px-Line" stroke="none" stroke-width="1" fill="none" fill-rule="evenodd">
        <g id="tim-calendar-time"></g>
        <path d="M31,26 C23.832,26 18,31.832 18,39 C18,46.168 23.832,52 31,52 C38.168,52 44,46.168 44,39 C44,31.832 38.168,26 31,26 L31,26 Z M31,50 C24.935,50 20,45.065 20,39 C20,32.935 24.935,28 31,28 C37.065,28 42,32.935 42,39 C42,45.065 37.065,50 31,50 L31,50 Z" id="Shape" fill="#000000"></path>
        <path d="M37,38 L32,38 L32,31 C32,30.447 31.553,30 31,30 C30.447,30 30,30.447 30,31 L30,39 C30,39.553 30.447,40 31,40 L37,40 C37.553,40 38,39.553 38,39 C38,38.447 37.553,38 37,38 L37,38 Z" id="Shape" fill="#000000"></path>
        <path d="M19,18 C20.654,18 22,16.654 22,15 C22,13.346 20.654,12 19,12 C17.346,12 16,13.346 16,15 C16,16.654 17.346,18 19,18 L19,18 Z M19,14 C19.552,14 20,14.448 20,15 C20,15.552 19.552,16 19,16 C18.448,16 18,15.552 18,15 C18,14.448 18.448,14 19,14 L19,14 Z" id="Shape" fill="#000000"></path>
        <path d="M43,18 C44.654,18 46,16.654 46,15 C46,13.346 44.654,12 43,12 C41.346,12 40,13.346 40,15 C40,16.654 41.346,18 43,18 L43,18 Z M43,14 C43.552,14 44,14.448 44,15 C44,15.552 43.552,16 43,16 C42.448,16 42,15.552 42,15 C42,14.448 42.448,14 43,14 L43,14 Z" id="Shape" fill="#000000"></path>
        <path d="M52,8 L10,8 C7.794,8 6,9.794 6,12 L6,54 C6,56.206 7.794,58 10,58 L52,58 C54.206,58 56,56.206 56,54 L56,12 C56,9.794 54.206,8 52,8 L52,8 Z M10,10 L52,10 C53.103,10 54,10.897 54,12 L54,20 L8,20 L8,12 C8,10.897 8.897,10 10,10 L10,10 Z M52,56 L10,56 C8.897,56 8,55.103 8,54 L8,22 L54,22 L54,54 C54,55.103 53.103,56 52,56 L52,56 Z" id="Shape" fill="#000000"></path>
    </g>
</svg>