<?xml version="1.0" encoding="UTF-8" standalone="no"?>
<svg width="64px" height="64px" viewBox="0 0 64 64" version="1.1" xmlns="http://www.w3.org/2000/svg" xmlns:xlink="http://www.w3.org/1999/xlink">
    <!-- Generator: Sketch 3.7.2 (28276) - http://www.bohemiancoding.com/sketch -->
    <title>tim-calendar-heart</title>
    <desc>Created with Sketch.</desc>
    <defs></defs>
    <g id="64px-Line" stroke="none" stroke-width="1" fill="none" fill-rule="evenodd">
        <g id="tim-calendar-heart"></g>
        <path d="M52,8 L10,8 C7.794,8 6,9.794 6,12 L6,54 C6,56.206 7.794,58 10,58 L52,58 C54.206,58 56,56.206 56,54 L56,12 C56,9.794 54.206,8 52,8 L52,8 Z M10,10 L52,10 C53.103,10 54,10.897 54,12 L54,20 L8,20 L8,12 C8,10.897 8.897,10 10,10 L10,10 Z M52,56 L10,56 C8.897,56 8,55.103 8,54 L8,22 L54,22 L54,54 C54,55.103 53.103,56 52,56 L52,56 Z" id="Shape" fill="#000000"></path>
        <path d="M19,18 C20.654,18 22,16.654 22,15 C22,13.346 20.654,12 19,12 C17.346,12 16,13.346 16,15 C16,16.654 17.346,18 19,18 L19,18 Z M19,14 C19.551,14 20,14.448 20,15 C20,15.552 19.551,16 19,16 C18.449,16 18,15.552 18,15 C18,14.448 18.449,14 19,14 L19,14 Z" id="Shape" fill="#000000"></path>
        <path d="M43,18 C44.654,18 46,16.654 46,15 C46,13.346 44.654,12 43,12 C41.346,12 40,13.346 40,15 C40,16.654 41.346,18 43,18 L43,18 Z M43,14 C43.551,14 44,14.448 44,15 C44,15.552 43.551,16 43,16 C42.449,16 42,15.552 42,15 C42,14.448 42.449,14 43,14 L43,14 Z" id="Shape" fill="#000000"></path>
        <path d="M37,26 C34.863,26 32.854,26.832 31.381,28.309 L31,28.652 L30.658,28.343 C29.146,26.832 27.137,26 25,26 C22.863,26 20.854,26.832 19.343,28.344 C17.832,29.855 17,31.864 17,34 C17,36.138 17.832,38.146 19.31,39.622 L30.261,51.673 C30.45,51.881 30.719,52 31.001,52 C31.283,52 31.552,51.881 31.741,51.673 L42.676,39.639 C44.176,38.131 45.001,36.129 45.001,34 C45.001,31.863 44.169,29.854 42.658,28.344 C41.146,26.832 39.137,26 37,26 L37,26 Z M41.244,38.242 C41.233,38.253 41.222,38.264 41.211,38.276 L31,49.513 L20.756,38.242 C19.623,37.109 18.999,35.602 18.999,34 C18.999,32.398 19.623,30.891 20.756,29.758 C21.889,28.624 23.396,28 24.999,28 C26.602,28 28.109,28.624 29.279,29.793 L30.329,30.742 C30.709,31.086 31.289,31.086 31.67,30.742 L32.758,29.758 C33.891,28.624 35.397,28 36.999,28 C38.602,28 40.109,28.624 41.243,29.758 C42.376,30.891 43,32.398 43,34 C43,35.602 42.376,37.109 41.244,38.242 L41.244,38.242 Z" id="Shape" fill="#000000"></path>
    </g>
</svg>