<?xml version="1.0" encoding="UTF-8" standalone="no"?>
<svg width="64px" height="64px" viewBox="0 0 64 64" version="1.1" xmlns="http://www.w3.org/2000/svg" xmlns:xlink="http://www.w3.org/1999/xlink">
    <!-- Generator: Sketch 3.7.2 (28276) - http://www.bohemiancoding.com/sketch -->
    <title>tim-pocket-watch-chain</title>
    <desc>Created with Sketch.</desc>
    <defs></defs>
    <g id="64px-Line" stroke="none" stroke-width="1" fill="none" fill-rule="evenodd">
        <g id="tim-pocket-watch-chain"></g>
        <path d="M47.24,26.557 C48.914,25.277 50,23.265 50,21 C50,17.48 47.387,14.568 44,14.08 L44,13.002 C44,8.04 39.962,4.002 35,4.002 C30.038,4.002 26,8.04 26,13.002 L26,23 C26,26.86 22.86,30 19,30 C15.14,30 12,26.86 12,23 L12,6 L17,6 C17.552,6 18,5.552 18,5 C18,4.448 17.552,4 17,4 L5,4 C4.448,4 4,4.448 4,5 C4,5.552 4.448,6 5,6 L10,6 L10,23 C10,27.962 14.038,32 19,32 C23.962,32 28,27.962 28,23 L28,13.002 C28,9.142 31.14,6.002 35,6.002 C38.86,6.002 42,9.142 42,13.002 L42,14.08 C38.613,14.568 36,17.481 36,21 C36,23.265 37.086,25.277 38.76,26.557 C31.435,28.448 26,35.092 26,43 C26,52.374 33.626,60 43,60 C52.374,60 60,52.374 60,43 C60,35.092 54.565,28.448 47.24,26.557 L47.24,26.557 Z M42,22 L42,20 L44,20 L44,22 L42,22 L42,22 Z M38,21 C38,18.243 40.243,16 43,16 C45.757,16 48,18.243 48,21 C48,23.414 46.279,25.434 44,25.899 L44,24 L45,24 C45.552,24 46,23.552 46,23 L46,19 C46,18.448 45.552,18 45,18 L41,18 C40.448,18 40,18.448 40,19 L40,23 C40,23.552 40.448,24 41,24 L42,24 L42,25.899 C39.721,25.434 38,23.414 38,21 L38,21 Z M43,58 C34.729,58 28,51.271 28,43 C28,34.729 34.729,28 43,28 C51.271,28 58,34.729 58,43 C58,51.271 51.271,58 43,58 L43,58 Z" id="Shape" fill="#000000"></path>
        <path d="M44,42.586 L44,33 C44,32.448 43.552,32 43,32 C42.448,32 42,32.448 42,33 L42,43.414 L48.293,49.707 C48.488,49.902 48.744,50 49,50 C49.256,50 49.512,49.902 49.707,49.707 C50.098,49.316 50.098,48.684 49.707,48.293 L44,42.586 L44,42.586 Z" id="Shape" fill="#000000"></path>
    </g>
</svg>