<?xml version="1.0" encoding="UTF-8" standalone="no"?>
<svg width="64px" height="64px" viewBox="0 0 64 64" version="1.1" xmlns="http://www.w3.org/2000/svg" xmlns:xlink="http://www.w3.org/1999/xlink">
    <!-- Generator: Sketch 3.7.2 (28276) - http://www.bohemiancoding.com/sketch -->
    <title>tim-zone-12</title>
    <desc>Created with Sketch.</desc>
    <defs></defs>
    <g id="64px-Line" stroke="none" stroke-width="1" fill="none" fill-rule="evenodd">
        <g id="tim-zone-12"></g>
        <path d="M19,14 L7,14 C6.447,14 6,14.447 6,15 C6,15.553 6.447,16 7,16 L19,16 C19.553,16 20,15.553 20,15 C20,14.447 19.553,14 19,14 L19,14 Z" id="Shape" fill="#000000"></path>
        <path d="M43,30 C34.729,30 28,36.729 28,44.999 C28,53.253 34.703,59.97 42.952,59.996 C42.968,59.996 42.983,60 43,60 C43.017,60 43.031,59.996 43.048,59.996 C51.297,59.97 58,53.254 58,44.999 C58,36.729 51.271,30 43,30 L43,30 Z M42,36.973 C40.781,36.928 39.593,36.801 38.462,36.599 C39.398,34.285 40.68,32.742 42,32.213 L42,36.973 L42,36.973 Z M42,38.972 L42,44 L37.025,44 C37.097,41.958 37.379,40.106 37.818,38.508 C39.154,38.764 40.56,38.922 42,38.972 L42,38.972 Z M42,46 L42,51.026 C40.56,51.076 39.154,51.235 37.817,51.491 C37.378,49.893 37.097,48.041 37.025,46 L42,46 L42,46 Z M42,53.025 L42,57.789 C40.679,57.26 39.397,55.715 38.46,53.4 C39.593,53.198 40.781,53.071 42,53.025 L42,53.025 Z M44,53.025 C45.219,53.07 46.407,53.197 47.54,53.4 C46.604,55.715 45.321,57.26 44,57.789 L44,53.025 L44,53.025 Z M44,51.026 L44,46 L48.975,46 C48.903,48.042 48.622,49.893 48.183,51.491 C46.846,51.235 45.44,51.076 44,51.026 L44,51.026 Z M44,44 L44,38.972 C45.44,38.922 46.846,38.764 48.182,38.508 C48.621,40.106 48.903,41.958 48.975,44 L44,44 L44,44 Z M44,36.973 L44,32.213 C45.32,32.742 46.602,34.286 47.538,36.599 C46.407,36.801 45.219,36.927 44,36.973 L44,36.973 Z M47.785,32.924 C49.247,33.505 50.573,34.346 51.72,35.386 C51.03,35.682 50.285,35.942 49.493,36.16 C49.017,34.92 48.441,33.831 47.785,32.924 L47.785,32.924 Z M36.507,36.16 C35.715,35.941 34.97,35.682 34.28,35.386 C35.426,34.346 36.753,33.505 38.215,32.924 C37.559,33.831 36.983,34.92 36.507,36.16 L36.507,36.16 Z M35.885,38.06 C35.397,39.849 35.099,41.856 35.026,44 L30.051,44 C30.255,41.335 31.261,38.895 32.834,36.92 C33.759,37.367 34.781,37.751 35.885,38.06 L35.885,38.06 Z M35.026,46 C35.098,48.144 35.396,50.151 35.884,51.94 C34.781,52.249 33.76,52.633 32.835,53.08 C31.261,51.105 30.255,48.665 30.051,46 L35.026,46 L35.026,46 Z M36.505,53.839 C36.981,55.078 37.555,56.166 38.21,57.072 C36.751,56.491 35.426,55.652 34.281,54.613 C34.971,54.317 35.714,54.058 36.505,53.839 L36.505,53.839 Z M49.495,53.839 C50.286,54.057 51.03,54.317 51.719,54.613 C50.574,55.652 49.249,56.491 47.79,57.072 C48.444,56.166 49.019,55.078 49.495,53.839 L49.495,53.839 Z M50.116,51.94 C50.604,50.151 50.902,48.144 50.974,46 L55.949,46 C55.745,48.665 54.738,51.104 53.165,53.08 C52.24,52.633 51.218,52.249 50.116,51.94 L50.116,51.94 Z M50.974,44 C50.901,41.856 50.603,39.849 50.115,38.06 C51.219,37.751 52.241,37.367 53.166,36.92 C54.739,38.895 55.745,41.336 55.949,44 L50.974,44 L50.974,44 Z" id="Shape" fill="#000000"></path>
        <path d="M38.496,16.636 C35.451,18.412 32,20.426 32,25 C32,25.553 32.447,26 33,26 L45,26 C45.553,26 46,25.553 46,25 C46,24.447 45.553,24 45,24 L34.079,24 C34.53,21.266 36.855,19.909 39.504,18.364 C42.549,16.588 46,14.574 46,10 C46,6.243 43.383,4 39,4 C34.404,4 32,7.521 32,11 C32,11.553 32.447,12 33,12 C33.553,12 34,11.553 34,11 C34,8.592 35.564,6 39,6 C41.281,6 44,6.694 44,10 C44,13.426 41.449,14.913 38.496,16.636 L38.496,16.636 Z" id="Shape" fill="#000000"></path>
        <path d="M23,10 C24.287,10 25.265,9.654 26,9.127 L26,25 C26,25.553 26.447,26 27,26 C27.553,26 28,25.553 28,25 L28,5 L28,4.997 L28,4.996 L28,4.993 L28,4.987 L28,4.986 L28,4.985 C27.992,4.439 27.548,4 27,4 C26.449,4 26.003,4.445 26,4.995 C25.994,5.499 25.821,8 23,8 C22.447,8 22,8.447 22,9 C22,9.553 22.447,10 23,10 L23,10 Z" id="Shape" fill="#000000"></path>
    </g>
</svg>