<?xml version="1.0" encoding="UTF-8" standalone="no"?>
<svg width="64px" height="64px" viewBox="0 0 64 64" version="1.1" xmlns="http://www.w3.org/2000/svg" xmlns:xlink="http://www.w3.org/1999/xlink">
    <!-- Generator: Sketch 3.7.2 (28276) - http://www.bohemiancoding.com/sketch -->
    <title>tim-minus</title>
    <desc>Created with Sketch.</desc>
    <defs></defs>
    <g id="64px-Line" stroke="none" stroke-width="1" fill="none" fill-rule="evenodd">
        <g id="tim-minus"></g>
        <path d="M23,42 C33.477,42 42,33.477 42,23 C42,12.523 33.477,4 23,4 C12.523,4 4,12.523 4,23 C4,33.477 12.523,42 23,42 L23,42 Z M23,6 C32.374,6 40,13.626 40,23 C40,32.374 32.374,40 23,40 C13.626,40 6,32.374 6,23 C6,13.626 13.626,6 23,6 L23,6 Z" id="Shape" fill="#000000"></path>
        <path d="M22.293,23.707 L28.293,29.707 C28.488,29.902 28.744,30 29,30 C29.256,30 29.512,29.902 29.707,29.707 C30.098,29.316 30.098,28.684 29.707,28.293 L24,22.586 L24,15 C24,14.448 23.552,14 23,14 C22.448,14 22,14.448 22,15 L22,23 C22,23.13 22.027,23.26 22.077,23.382 C22.128,23.505 22.201,23.615 22.293,23.707 L22.293,23.707 Z" id="Shape" fill="#000000"></path>
        <path d="M23,10 C23.26,10 23.52,9.89 23.71,9.71 C23.89,9.52 24,9.26 24,9 C24,8.74 23.89,8.48 23.71,8.29 C23.33,7.92 22.66,7.92 22.29,8.29 C22.2,8.38 22.13,8.49 22.08,8.62 C22.03,8.74 22,8.87 22,9 C22,9.26 22.11,9.52 22.29,9.71 C22.48,9.89 22.74,10 23,10 L23,10 Z" id="Shape" fill="#000000"></path>
        <path d="M23,38 C23.26,38 23.52,37.89 23.71,37.71 C23.89,37.52 24,37.26 24,37 C24,36.74 23.89,36.48 23.71,36.29 C23.33,35.92 22.66,35.92 22.29,36.29 C22.11,36.48 22,36.74 22,37 C22,37.26 22.11,37.52 22.29,37.71 C22.48,37.89 22.74,38 23,38 L23,38 Z" id="Shape" fill="#000000"></path>
        <path d="M10,23 C10,22.94 9.99,22.87 9.98,22.8 C9.97,22.74 9.95,22.68 9.92,22.62 C9.9,22.56 9.87,22.5 9.83,22.44 C9.79,22.39 9.75,22.34 9.71,22.29 C9.43,22.02 8.99,21.93 8.62,22.08 C8.5,22.13 8.39,22.2 8.29,22.29 C8.25,22.34 8.2,22.39 8.17,22.44 C8.13,22.5 8.1,22.56 8.08,22.62 C8.05,22.68 8.03,22.74 8.02,22.8 C8.01,22.87 8,22.94 8,23 C8,23.13 8.03,23.26 8.08,23.38 C8.13,23.5 8.2,23.61 8.29,23.71 C8.39,23.8 8.5,23.87 8.62,23.92 C8.74,23.97 8.87,24 9,24 C9.26,24 9.52,23.89 9.71,23.71 C9.8,23.61 9.87,23.5 9.92,23.38 C9.97,23.26 10,23.13 10,23 L10,23 Z" id="Shape" fill="#000000"></path>
        <path d="M36.29,23.71 C36.48,23.89 36.74,24 37,24 C37.13,24 37.26,23.97 37.38,23.92 C37.5,23.87 37.61,23.8 37.71,23.71 C37.89,23.52 38,23.26 38,23 C38,22.74 37.89,22.48 37.71,22.29 C37.61,22.2 37.5,22.13 37.38,22.08 C37.02,21.92 36.57,22.01 36.29,22.29 C36.11,22.48 36,22.74 36,23 C36,23.26 36.11,23.52 36.29,23.71 L36.29,23.71 Z" id="Shape" fill="#000000"></path>
        <path d="M15.62,11.8 C15.74,11.85 15.87,11.87 16,11.87 C16.26,11.87 16.52,11.77 16.71,11.58 C16.89,11.4 17,11.14 17,10.88 C17,10.61 16.89,10.35 16.71,10.17 C16.43,9.89 15.99,9.8 15.62,9.95 C15.5,10 15.39,10.08 15.29,10.17 C15.2,10.26 15.13,10.37 15.08,10.49 C15.03,10.61 15,10.74 15,10.88 C15,11.14 15.11,11.4 15.29,11.58 C15.39,11.67 15.5,11.75 15.62,11.8 L15.62,11.8 Z" id="Shape" fill="#000000"></path>
        <path d="M29.29,34.42 C29.11,34.6 29,34.86 29,35.12 C29,35.39 29.11,35.65 29.29,35.83 C29.48,36.02 29.74,36.12 30,36.12 C30.26,36.12 30.52,36.02 30.71,35.83 C30.89,35.65 31,35.39 31,35.12 C31,34.86 30.89,34.6 30.71,34.42 C30.33,34.04 29.67,34.04 29.29,34.42 L29.29,34.42 Z" id="Shape" fill="#000000"></path>
        <path d="M11.88,30 C11.88,29.74 11.77,29.48 11.58,29.29 C11.49,29.2 11.38,29.13 11.26,29.08 C10.89,28.93 10.45,29.02 10.17,29.29 C9.98,29.48 9.88,29.74 9.88,30 C9.88,30.26 9.98,30.52 10.17,30.71 C10.36,30.89 10.61,31 10.88,31 C11.14,31 11.4,30.89 11.58,30.71 C11.77,30.52 11.88,30.26 11.88,30 L11.88,30 Z" id="Shape" fill="#000000"></path>
        <path d="M35.13,17 C35.39,17 35.65,16.89 35.83,16.71 C36.02,16.52 36.12,16.26 36.12,16 C36.12,15.74 36.02,15.48 35.83,15.29 C35.46,14.92 34.79,14.92 34.42,15.29 C34.23,15.48 34.12,15.74 34.12,16 C34.12,16.26 34.23,16.52 34.42,16.71 C34.6,16.89 34.86,17 35.13,17 L35.13,17 Z" id="Shape" fill="#000000"></path>
        <path d="M10.87,17 C11.14,17 11.4,16.89 11.58,16.71 C11.77,16.52 11.88,16.26 11.88,16 C11.88,15.74 11.77,15.48 11.58,15.29 C11.21,14.92 10.54,14.92 10.17,15.29 C9.98,15.48 9.87,15.74 9.87,16 C9.87,16.26 9.98,16.52 10.17,16.71 C10.36,16.89 10.61,17 10.87,17 L10.87,17 Z" id="Shape" fill="#000000"></path>
        <path d="M35.13,31 C35.39,31 35.65,30.89 35.83,30.71 C36.02,30.52 36.12,30.26 36.12,30 C36.12,29.74 36.02,29.48 35.83,29.29 C35.46,28.92 34.79,28.92 34.42,29.29 C34.23,29.48 34.12,29.74 34.12,30 C34.12,30.26 34.23,30.52 34.42,30.71 C34.6,30.89 34.86,31 35.13,31 L35.13,31 Z" id="Shape" fill="#000000"></path>
        <path d="M16,36.13 C16.26,36.13 16.52,36.02 16.71,35.83 C16.89,35.64 17,35.39 17,35.12 C17,34.86 16.89,34.6 16.71,34.42 C16.43,34.14 15.99,34.05 15.62,34.2 C15.5,34.25 15.39,34.32 15.29,34.42 C15.11,34.6 15,34.86 15,35.12 C15,35.39 15.11,35.65 15.29,35.83 C15.48,36.02 15.74,36.13 16,36.13 L16,36.13 Z" id="Shape" fill="#000000"></path>
        <path d="M30,11.88 C30.26,11.88 30.52,11.77 30.71,11.58 C30.89,11.4 31,11.14 31,10.88 C31,10.61 30.89,10.36 30.71,10.17 C30.33,9.8 29.67,9.8 29.29,10.17 C29.11,10.35 29,10.61 29,10.88 C29,11.14 29.11,11.4 29.29,11.58 C29.48,11.77 29.74,11.88 30,11.88 L30,11.88 Z" id="Shape" fill="#000000"></path>
        <path d="M59,46 L35,46 C34.448,46 34,46.448 34,47 C34,47.552 34.448,48 35,48 L59,48 C59.552,48 60,47.552 60,47 C60,46.448 59.552,46 59,46 L59,46 Z" id="Shape" fill="#000000"></path>
    </g>
</svg>