<?xml version="1.0" encoding="UTF-8" standalone="no"?>
<svg width="64px" height="64px" viewBox="0 0 64 64" version="1.1" xmlns="http://www.w3.org/2000/svg" xmlns:xlink="http://www.w3.org/1999/xlink">
    <!-- Generator: Sketch 3.7.2 (28276) - http://www.bohemiancoding.com/sketch -->
    <title>tim-sun-dial</title>
    <desc>Created with Sketch.</desc>
    <defs></defs>
    <g id="64px-Line" stroke="none" stroke-width="1" fill="none" fill-rule="evenodd">
        <g id="tim-sun-dial"></g>
        <path d="M14,19 L14,27 C14,27.552 14.448,28 15,28 L28,28 L28,51 C28,52.654 26.654,54 25,54 L21,54 C19.346,54 18,55.346 18,57 L18,59 C18,59.552 18.448,60 19,60 L47,60 C47.552,60 48,59.552 48,59 L48,57 C48,55.346 46.654,54 45,54 L41,54 C39.346,54 38,52.654 38,51 L38,28 L51,28 C51.552,28 52,27.552 52,27 L52,19 C52,18.448 51.552,18 51,18 L32.958,18 C30.932,18 29.405,17.047 28.874,15.452 C28.464,14.224 28.763,12.928 29.6,12.3 L35.6,7.8 C36.042,7.469 36.131,6.842 35.8,6.4 C35.47,5.96 34.843,5.868 34.4,6.2 L18.667,18 L15,18 C14.448,18 14,18.448 14,19 L14,19 Z M41,56 L45,56 C45.551,56 46,56.449 46,57 L46,58 L20,58 L20,57 C20,56.449 20.449,56 21,56 L25,56 C27.757,56 30,53.757 30,51 L30,28 L36,28 L36,51 C36,53.757 38.243,56 41,56 L41,56 Z M26.694,14.479 C26.708,15.008 26.798,15.549 26.977,16.084 C27.195,16.738 27.576,17.403 28.11,18 L22,18 L26.694,14.479 L26.694,14.479 Z M16,20 L50,20 L50,26 L16,26 L16,20 L16,20 Z" id="Shape" fill="#000000"></path>
    </g>
</svg>