<?xml version="1.0" encoding="UTF-8" standalone="no"?>
<svg width="64px" height="64px" viewBox="0 0 64 64" version="1.1" xmlns="http://www.w3.org/2000/svg" xmlns:xlink="http://www.w3.org/1999/xlink">
    <!-- Generator: Sketch 3.7.2 (28276) - http://www.bohemiancoding.com/sketch -->
    <title>tim-alarm-square</title>
    <desc>Created with Sketch.</desc>
    <defs></defs>
    <g id="64px-Line" stroke="none" stroke-width="1" fill="none" fill-rule="evenodd">
        <g id="tim-alarm-square"></g>
        <path d="M10,58 L12,58 L12,59 C12,59.552 12.447,60 13,60 L19,60 C19.553,60 20,59.552 20,59 L20,58 L42,58 L42,59 C42,59.552 42.447,60 43,60 L49,60 C49.553,60 50,59.552 50,59 L50,58 L52,58 C54.206,58 56,56.206 56,54 L56,12 C56,9.794 54.206,8 52,8 L42,8 L42,7.002 C42,5.347 40.654,4 39,4 L23,4 C21.346,4 20,5.347 20,7.002 L20,8 L10,8 C7.794,8 6,9.794 6,12 L6,54 C6,56.206 7.794,58 10,58 L10,58 Z M22,7.002 C22,6.45 22.448,6 23,6 L39,6 C39.552,6 40,6.45 40,7.002 L40,8 L22,8 L22,7.002 L22,7.002 Z M8,12 C8,10.897 8.897,10 10,10 L20.99,10 C20.993,10 20.996,10.002 21,10.002 C21.004,10.002 21.006,10 21.01,10 L40.99,10 C40.993,10 40.996,10.002 41,10.002 C41.004,10.002 41.006,10 41.01,10 L52,10 C53.103,10 54,10.897 54,12 L54,54 C54,55.103 53.103,56 52,56 L10,56 C8.897,56 8,55.103 8,54 L8,12 L8,12 Z" id="Shape" fill="#000000"></path>
        <path d="M13,54 L49,54 C50.99,54 52,52.991 52,51 L52,15 C52,12.925 51.075,12 49,12 L13,12 C10.953,12 10,12.953 10,15 L10,51 C10,52.991 11.01,54 13,54 L13,54 Z M12,15 C12,14.056 12.056,14 13,14 L49,14 C49.972,14 50,14.028 50,15 L50,51 C50,51.888 49.888,52 49,52 L13,52 C12.112,52 12,51.888 12,51 L12,15 L12,15 Z" id="Shape" fill="#000000"></path>
        <path d="M38.293,41.707 C38.488,41.902 38.744,42 39,42 C39.256,42 39.512,41.902 39.707,41.707 C40.098,41.316 40.098,40.684 39.707,40.293 L32,32.586 L32,23 C32,22.448 31.553,22 31,22 C30.447,22 30,22.448 30,23 L30,33 C30,33.265 30.105,33.52 30.293,33.707 L38.293,41.707 L38.293,41.707 Z" id="Shape" fill="#000000"></path>
        <path d="M31,20 C31.553,20 32,19.552 32,19 L32,17 C32,16.448 31.553,16 31,16 C30.447,16 30,16.448 30,17 L30,19 C30,19.552 30.447,20 31,20 L31,20 Z" id="Shape" fill="#000000"></path>
        <path d="M44,33 C44,33.552 44.447,34 45,34 L47,34 C47.553,34 48,33.552 48,33 C48,32.448 47.553,32 47,32 L45,32 C44.447,32 44,32.448 44,33 L44,33 Z" id="Shape" fill="#000000"></path>
        <path d="M15,34 L17,34 C17.553,34 18,33.552 18,33 C18,32.448 17.553,32 17,32 L15,32 C14.447,32 14,32.448 14,33 C14,33.552 14.447,34 15,34 L15,34 Z" id="Shape" fill="#000000"></path>
        <path d="M31,50 C31.553,50 32,49.552 32,49 L32,47 C32,46.448 31.553,46 31,46 C30.447,46 30,46.448 30,47 L30,49 C30,49.552 30.447,50 31,50 L31,50 Z" id="Shape" fill="#000000"></path>
        <path d="M23.134,21.376 C23.32,21.697 23.655,21.876 24.001,21.876 C24.171,21.876 24.343,21.833 24.5,21.742 C24.979,21.466 25.143,20.854 24.866,20.376 L23.866,18.643 C23.589,18.164 22.976,18 22.5,18.276 C22.021,18.552 21.857,19.164 22.134,19.642 L23.134,21.376 L23.134,21.376 Z" id="Shape" fill="#000000"></path>
        <path d="M43.125,27 C43.295,27 43.467,26.957 43.624,26.866 L45.356,25.866 C45.835,25.59 45.999,24.978 45.722,24.5 C45.445,24.021 44.832,23.858 44.356,24.134 L42.624,25.134 C42.145,25.41 41.981,26.022 42.258,26.5 C42.443,26.821 42.779,27 43.125,27 L43.125,27 Z" id="Shape" fill="#000000"></path>
        <path d="M18.375,39.134 L16.644,40.134 C16.165,40.41 16.001,41.022 16.278,41.5 C16.464,41.821 16.799,42 17.145,42 C17.315,42 17.487,41.957 17.644,41.866 L19.375,40.866 C19.854,40.59 20.018,39.978 19.741,39.5 C19.464,39.021 18.852,38.857 18.375,39.134 L18.375,39.134 Z" id="Shape" fill="#000000"></path>
        <path d="M38.866,44.624 C38.589,44.145 37.975,43.981 37.5,44.258 C37.021,44.534 36.857,45.146 37.134,45.624 L38.134,47.356 C38.32,47.677 38.655,47.856 39.001,47.856 C39.171,47.856 39.343,47.813 39.5,47.722 C39.979,47.446 40.143,46.834 39.866,46.356 L38.866,44.624 L38.866,44.624 Z" id="Shape" fill="#000000"></path>
        <path d="M16.644,25.866 L18.375,26.866 C18.532,26.957 18.704,27 18.874,27 C19.22,27 19.556,26.821 19.741,26.5 C20.017,26.022 19.853,25.41 19.375,25.134 L17.644,24.134 C17.166,23.856 16.554,24.021 16.278,24.5 C16.001,24.978 16.165,25.59 16.644,25.866 L16.644,25.866 Z" id="Shape" fill="#000000"></path>
        <path d="M37.5,21.743 C37.658,21.834 37.829,21.877 37.999,21.877 C38.345,21.877 38.681,21.698 38.866,21.377 L39.866,19.644 C40.142,19.166 39.978,18.554 39.5,18.278 C39.019,18.002 38.41,18.165 38.134,18.645 L37.134,20.378 C36.857,20.855 37.021,21.467 37.5,21.743 L37.5,21.743 Z" id="Shape" fill="#000000"></path>
        <path d="M22.5,47.723 C22.657,47.814 22.829,47.857 22.999,47.857 C23.345,47.857 23.681,47.678 23.866,47.357 L24.866,45.625 C25.142,45.146 24.978,44.535 24.5,44.259 C24.021,43.982 23.41,44.147 23.134,44.625 L22.134,46.357 C21.857,46.835 22.021,47.446 22.5,47.723 L22.5,47.723 Z" id="Shape" fill="#000000"></path>
        <path d="M42.624,40.866 L44.356,41.866 C44.513,41.957 44.685,42 44.855,42 C45.201,42 45.537,41.821 45.722,41.5 C45.998,41.021 45.834,40.41 45.356,40.134 L43.624,39.134 C43.145,38.857 42.534,39.021 42.258,39.5 C41.981,39.979 42.146,40.59 42.624,40.866 L42.624,40.866 Z" id="Shape" fill="#000000"></path>
    </g>
</svg>