<?xml version="1.0" encoding="UTF-8" standalone="no"?>
<svg width="64px" height="64px" viewBox="0 0 64 64" version="1.1" xmlns="http://www.w3.org/2000/svg" xmlns:xlink="http://www.w3.org/1999/xlink">
    <!-- Generator: Sketch 3.7.2 (28276) - http://www.bohemiancoding.com/sketch -->
    <title>tim-calendar-search</title>
    <desc>Created with Sketch.</desc>
    <defs></defs>
    <g id="64px-Line" stroke="none" stroke-width="1" fill="none" fill-rule="evenodd">
        <g id="tim-calendar-search"></g>
        <path d="M52,8 L10,8 C7.794,8 6,9.794 6,12 L6,54 C6,56.206 7.794,58 10,58 L52,58 C54.206,58 56,56.206 56,54 L56,12 C56,9.794 54.206,8 52,8 L52,8 Z M10,10 L52,10 C53.103,10 54,10.897 54,12 L54,20 L8,20 L8,12 C8,10.897 8.897,10 10,10 L10,10 Z M52,56 L10,56 C8.897,56 8,55.103 8,54 L8,22 L54,22 L54,54 C54,55.103 53.103,56 52,56 L52,56 Z" id="Shape" fill="#000000"></path>
        <path d="M19,18 C20.654,18 22,16.654 22,15 C22,13.346 20.654,12 19,12 C17.346,12 16,13.346 16,15 C16,16.654 17.346,18 19,18 L19,18 Z M19,14 C19.552,14 20,14.448 20,15 C20,15.552 19.552,16 19,16 C18.448,16 18,15.552 18,15 C18,14.448 18.448,14 19,14 L19,14 Z" id="Shape" fill="#000000"></path>
        <path d="M43,18 C44.654,18 46,16.654 46,15 C46,13.346 44.654,12 43,12 C41.346,12 40,13.346 40,15 C40,16.654 41.346,18 43,18 L43,18 Z M43,14 C43.552,14 44,14.448 44,15 C44,15.552 43.552,16 43,16 C42.448,16 42,15.552 42,15 C42,14.448 42.448,14 43,14 L43,14 Z" id="Shape" fill="#000000"></path>
        <path d="M34,26 C28.486,26 24,30.486 24,36 C24,38.397 24.85,40.599 26.262,42.324 L18.293,50.293 C17.902,50.684 17.902,51.316 18.293,51.707 C18.488,51.902 18.744,52 19,52 C19.256,52 19.512,51.902 19.707,51.707 L27.676,43.738 C29.401,45.15 31.603,46 34,46 C39.514,46 44,41.514 44,36 C44,30.486 39.514,26 34,26 L34,26 Z M34,44 C29.589,44 26,40.411 26,36 C26,31.589 29.589,28 34,28 C38.411,28 42,31.589 42,36 C42,40.411 38.411,44 34,44 L34,44 Z" id="Shape" fill="#000000"></path>
    </g>
</svg>