<?xml version="1.0" encoding="UTF-8" standalone="no"?>
<svg width="64px" height="64px" viewBox="0 0 64 64" version="1.1" xmlns="http://www.w3.org/2000/svg" xmlns:xlink="http://www.w3.org/1999/xlink">
    <!-- Generator: Sketch 3.7.2 (28276) - http://www.bohemiancoding.com/sketch -->
    <title>tim-metronome</title>
    <desc>Created with Sketch.</desc>
    <defs></defs>
    <g id="64px-Line" stroke="none" stroke-width="1" fill="none" fill-rule="evenodd">
        <g id="tim-metronome"></g>
        <path d="M49.783,57.623 C49.972,57.385 50.043,57.073 49.975,56.775 L37.975,4.775 C37.87,4.321 37.466,4 37,4 L25,4 C24.534,4 24.13,4.321 24.025,4.775 L12.025,56.775 C11.957,57.072 12.027,57.384 12.217,57.623 C12.407,57.861 12.695,58 13,58 L16,58 L16,59 C16,59.552 16.448,60 17,60 L21,60 C21.552,60 22,59.552 22,59 L22,58 L40,58 L40,59 C40,59.552 40.448,60 41,60 L45,60 C45.552,60 46,59.552 46,59 L46,58 L49,58 C49.305,58 49.593,57.861 49.783,57.623 L49.783,57.623 Z M25.795,6 L36.204,6 L44.512,42 L32,42 L32,24 L33,24 C33.431,24 33.812,23.725 33.949,23.316 L35.949,17.315 C36.051,17.01 35.999,16.675 35.811,16.414 C35.623,16.153 35.321,15.999 35,15.999 L32,15.999 L32,9 C32,8.448 31.552,8 31,8 C30.448,8 30,8.448 30,9 L30,15.999 L27,15.999 C26.679,15.999 26.377,16.153 26.189,16.414 C26.001,16.675 25.95,17.01 26.051,17.315 L28.051,23.316 C28.187,23.724 28.569,24 29,24 L30,24 L30,42 L17.488,42 L25.795,6 L25.795,6 Z M30.995,17.999 C30.997,17.999 30.998,18 31,18 C31.002,18 31.003,17.999 31.005,17.999 L33.613,17.999 L32.279,22 L29.72,22 L28.387,17.999 L30.995,17.999 L30.995,17.999 Z M14.257,56 L17.026,44 L44.974,44 L47.743,56 L14.257,56 L14.257,56 Z" id="Shape" fill="#000000"></path>
    </g>
</svg>