<?xml version="1.0" encoding="UTF-8" standalone="no"?>
<svg width="64px" height="64px" viewBox="0 0 64 64" version="1.1" xmlns="http://www.w3.org/2000/svg" xmlns:xlink="http://www.w3.org/1999/xlink">
    <!-- Generator: Sketch 3.7.2 (28276) - http://www.bohemiancoding.com/sketch -->
    <title>tim-24-hour</title>
    <desc>Created with Sketch.</desc>
    <defs></defs>
    <g id="64px-Line" stroke="none" stroke-width="1" fill="none" fill-rule="evenodd">
        <g id="tim-24-hour"></g>
        <path d="M53.708,31.294 C53.616,31.201 53.505,31.128 53.382,31.077 C53.138,30.976 52.862,30.976 52.618,31.077 C52.495,31.128 52.385,31.201 52.292,31.294 L46.293,37.293 C45.902,37.684 45.902,38.316 46.293,38.707 C46.684,39.098 47.316,39.098 47.707,38.707 L51.811,34.603 C50.528,44.403 42.144,52 32,52 C23.233,52 15.354,46.141 12.839,37.753 C12.681,37.224 12.124,36.925 11.594,37.082 C11.065,37.241 10.765,37.798 10.923,38.327 C13.69,47.555 22.357,54 32,54 C43.356,54 52.729,45.351 53.88,34.294 L58.293,38.707 C58.488,38.902 58.744,39 59,39 C59.256,39 59.512,38.902 59.707,38.707 C60.098,38.316 60.098,37.684 59.707,37.293 L53.708,31.294 L53.708,31.294 Z" id="Shape" fill="#000000"></path>
        <path d="M10.618,32.923 C10.74,32.973 10.87,33 11,33 C11.13,33 11.26,32.973 11.382,32.923 C11.505,32.872 11.615,32.799 11.708,32.706 L17.707,26.707 C18.098,26.316 18.098,25.684 17.707,25.293 C17.316,24.902 16.684,24.902 16.293,25.293 L12.189,29.397 C13.472,19.597 21.856,12 32,12 C40.783,12 48.666,17.873 51.171,26.281 C51.328,26.809 51.884,27.114 52.414,26.954 C52.943,26.796 53.245,26.239 53.087,25.71 C50.332,16.46 41.661,10 32,10 C20.644,10 11.271,18.649 10.12,29.706 L5.707,25.293 C5.316,24.902 4.684,24.902 4.293,25.293 C3.902,25.684 3.902,26.316 4.293,26.707 L10.292,32.706 C10.385,32.799 10.495,32.872 10.618,32.923 L10.618,32.923 Z" id="Shape" fill="#000000"></path>
        <path d="M25.481,34.877 C27.494,33.77 30,32.392 30,29 C30,26.056 27.944,24 25,24 C22.056,24 20,26.056 20,29 C20,29.552 20.447,30 21,30 C21.553,30 22,29.552 22,29 C22,27.55 22.788,26 25,26 C27.212,26 28,27.55 28,29 C28,31.103 26.677,31.938 24.518,33.125 C22.505,34.231 20,35.609 20,39 C20,39.552 20.447,40 21,40 L29,40 C29.553,40 30,39.552 30,39 C30,38.448 29.553,38 29,38 L22.12,38 C22.491,36.594 23.702,35.855 25.481,34.877 L25.481,34.877 Z" id="Shape" fill="#000000"></path>
        <path d="M39,40 C39.553,40 40,39.552 40,39 L40,36 L43,36 C43.553,36 44,35.552 44,35 C44,34.448 43.553,34 43,34 L40,34 L40,25 C40,24.575 39.731,24.197 39.331,24.056 C38.931,23.918 38.485,24.043 38.219,24.375 L30.219,34.375 C29.979,34.675 29.933,35.086 30.099,35.433 C30.266,35.78 30.615,36 31,36 L38,36 L38,39 C38,39.552 38.447,40 39,40 L39,40 Z M33.081,34 L38,27.851 L38,34 L33.081,34 L33.081,34 Z" id="Shape" fill="#000000"></path>
    </g>
</svg>