<?xml version="1.0" encoding="UTF-8" standalone="no"?>
<svg width="64px" height="64px" viewBox="0 0 64 64" version="1.1" xmlns="http://www.w3.org/2000/svg" xmlns:xlink="http://www.w3.org/1999/xlink">
    <!-- Generator: Sketch 3.7.2 (28276) - http://www.bohemiancoding.com/sketch -->
    <title>tim-digital-time</title>
    <desc>Created with Sketch.</desc>
    <defs></defs>
    <g id="64px-Line" stroke="none" stroke-width="1" fill="none" fill-rule="evenodd">
        <g id="tim-digital-time"></g>
        <path d="M3,22 C2.447,22 2,22.448 2,23 L2,31 C2,31.552 2.447,32 3,32 C3.553,32 4,31.552 4,31 L4,23 C4,22.448 3.553,22 3,22 L3,22 Z" id="Shape" fill="#000000"></path>
        <path d="M33,32 C33.553,32 34,31.552 34,31 L34,25 C34,24.448 33.553,24 33,24 C32.447,24 32,24.448 32,25 L32,31 C32,31.552 32.447,32 33,32 L33,32 Z" id="Shape" fill="#000000"></path>
        <path d="M33,42 C33.553,42 34,41.552 34,41 L34,35 C34,34.448 33.553,34 33,34 C32.447,34 32,34.448 32,35 L32,41 C32,41.552 32.447,42 33,42 L33,42 Z" id="Shape" fill="#000000"></path>
        <path d="M44,31 C44,31.552 44.447,32 45,32 C45.553,32 46,31.552 46,31 L46,25 C46,24.448 45.553,24 45,24 C44.447,24 44,24.448 44,25 L44,31 L44,31 Z" id="Shape" fill="#000000"></path>
        <path d="M46,35 C46,34.448 45.553,34 45,34 C44.447,34 44,34.448 44,35 L44,41 C44,41.552 44.447,42 45,42 C45.553,42 46,41.552 46,41 L46,35 L46,35 Z" id="Shape" fill="#000000"></path>
        <path d="M20,31 C20,31.552 20.447,32 21,32 C21.553,32 22,31.552 22,31 L22,25 C22,24.448 21.553,24 21,24 C20.447,24 20,24.448 20,25 L20,31 L20,31 Z" id="Shape" fill="#000000"></path>
        <path d="M27,32 C27.553,32 28,31.552 28,31 L28,29 C28,28.448 27.553,28 27,28 C26.447,28 26,28.448 26,29 L26,31 C26,31.552 26.447,32 27,32 L27,32 Z" id="Shape" fill="#000000"></path>
        <path d="M27,38 C27.553,38 28,37.552 28,37 L28,35 C28,34.448 27.553,34 27,34 C26.447,34 26,34.448 26,35 L26,37 C26,37.552 26.447,38 27,38 L27,38 Z" id="Shape" fill="#000000"></path>
        <path d="M9,42 C9.553,42 10,41.552 10,41 L10,35 C10,34.448 9.553,34 9,34 C8.447,34 8,34.448 8,35 L8,41 C8,41.552 8.447,42 9,42 L9,42 Z" id="Shape" fill="#000000"></path>
        <path d="M11,34 L19,34 C19.553,34 20,33.552 20,33 C20,32.448 19.553,32 19,32 L11,32 C10.447,32 10,32.448 10,33 C10,33.552 10.447,34 11,34 L11,34 Z" id="Shape" fill="#000000"></path>
        <path d="M35,24 L43,24 C43.553,24 44,23.552 44,23 C44,22.448 43.553,22 43,22 L35,22 C34.447,22 34,22.448 34,23 C34,23.552 34.447,24 35,24 L35,24 Z" id="Shape" fill="#000000"></path>
        <path d="M43,44 C43.553,44 44,43.552 44,43 C44,42.448 43.553,42 43,42 L35,42 C34.447,42 34,42.448 34,43 C34,43.552 34.447,44 35,44 L43,44 L43,44 Z" id="Shape" fill="#000000"></path>
        <path d="M49,32 C49.553,32 50,31.552 50,31 L50,25 C50,24.448 49.553,24 49,24 C48.447,24 48,24.448 48,25 L48,31 C48,31.552 48.447,32 49,32 L49,32 Z" id="Shape" fill="#000000"></path>
        <path d="M49,42 C49.553,42 50,41.552 50,41 L50,35 C50,34.448 49.553,34 49,34 C48.447,34 48,34.448 48,35 L48,41 C48,41.552 48.447,42 49,42 L49,42 Z" id="Shape" fill="#000000"></path>
        <path d="M61,24 C60.447,24 60,24.448 60,25 L60,31 C60,31.552 60.447,32 61,32 C61.553,32 62,31.552 62,31 L62,25 C62,24.448 61.553,24 61,24 L61,24 Z" id="Shape" fill="#000000"></path>
        <path d="M61,34 C60.447,34 60,34.448 60,35 L60,41 C60,41.552 60.447,42 61,42 C61.553,42 62,41.552 62,41 L62,35 C62,34.448 61.553,34 61,34 L61,34 Z" id="Shape" fill="#000000"></path>
        <path d="M51,24 L59,24 C59.553,24 60,23.552 60,23 C60,22.448 59.553,22 59,22 L51,22 C50.447,22 50,22.448 50,23 C50,23.552 50.447,24 51,24 L51,24 Z" id="Shape" fill="#000000"></path>
        <path d="M59,42 L51,42 C50.447,42 50,42.448 50,43 C50,43.552 50.447,44 51,44 L59,44 C59.553,44 60,43.552 60,43 C60,42.448 59.553,42 59,42 L59,42 Z" id="Shape" fill="#000000"></path>
        <path d="M10,24 L19,24 C19.553,24 20,23.552 20,23 C20,22.448 19.553,22 19,22 L10,22 C9.447,22 9,22.448 9,23 C9,23.552 9.447,24 10,24 L10,24 Z" id="Shape" fill="#000000"></path>
        <path d="M11,44 L20,44 C20.553,44 21,43.552 21,43 C21,42.448 20.553,42 20,42 L11,42 C10.447,42 10,42.448 10,43 C10,43.552 10.447,44 11,44 L11,44 Z" id="Shape" fill="#000000"></path>
        <path d="M3,34 C2.447,34 2,34.448 2,35 L2,43 C2,43.552 2.447,44 3,44 C3.553,44 4,43.552 4,43 L4,35 C4,34.448 3.553,34 3,34 L3,34 Z" id="Shape" fill="#000000"></path>
    </g>
</svg>