<?xml version="1.0" encoding="UTF-8" standalone="no"?>
<svg width="64px" height="64px" viewBox="0 0 64 64" version="1.1" xmlns="http://www.w3.org/2000/svg" xmlns:xlink="http://www.w3.org/1999/xlink">
    <!-- Generator: Sketch 3.7.2 (28276) - http://www.bohemiancoding.com/sketch -->
    <title>tim-calendar-location</title>
    <desc>Created with Sketch.</desc>
    <defs></defs>
    <g id="64px-Line" stroke="none" stroke-width="1" fill="none" fill-rule="evenodd">
        <g id="tim-calendar-location"></g>
        <path d="M52,8 L10,8 C7.794,8 6,9.794 6,12 L6,54 C6,56.206 7.794,58 10,58 L52,58 C54.206,58 56,56.206 56,54 L56,12 C56,9.794 54.206,8 52,8 L52,8 Z M10,10 L52,10 C53.103,10 54,10.897 54,12 L54,20 L8,20 L8,12 C8,10.897 8.897,10 10,10 L10,10 Z M52,56 L10,56 C8.897,56 8,55.103 8,54 L8,22 L54,22 L54,54 C54,55.103 53.103,56 52,56 L52,56 Z" id="Shape" fill="#000000"></path>
        <path d="M19,18 C20.654,18 22,16.654 22,15 C22,13.346 20.654,12 19,12 C17.346,12 16,13.346 16,15 C16,16.654 17.346,18 19,18 L19,18 Z M19,14 C19.552,14 20,14.448 20,15 C20,15.552 19.552,16 19,16 C18.448,16 18,15.552 18,15 C18,14.448 18.448,14 19,14 L19,14 Z" id="Shape" fill="#000000"></path>
        <path d="M43,18 C44.654,18 46,16.654 46,15 C46,13.346 44.654,12 43,12 C41.346,12 40,13.346 40,15 C40,16.654 41.346,18 43,18 L43,18 Z M43,14 C43.552,14 44,14.448 44,15 C44,15.552 43.552,16 43,16 C42.448,16 42,15.552 42,15 C42,14.448 42.448,14 43,14 L43,14 Z" id="Shape" fill="#000000"></path>
        <path d="M31,31 C28.794,31 27,32.794 27,35 C27,37.206 28.794,39 31,39 C33.206,39 35,37.206 35,35 C35,32.794 33.206,31 31,31 L31,31 Z M31,37 C29.897,37 29,36.103 29,35 C29,33.897 29.897,33 31,33 C32.103,33 33,33.897 33,35 C33,36.103 32.103,37 31,37 L31,37 Z" id="Shape" fill="#000000"></path>
        <path d="M31,26 C26.037,26 22,30.037 22,35 C22,36.394 22.31,37.729 22.952,39.028 L30.134,51.499 C30.312,51.809 30.643,52 31,52 C31.357,52 31.688,51.809 31.866,51.499 L39.079,38.971 C39.69,37.729 40,36.394 40,35 C40,30.037 35.963,26 31,26 L31,26 Z M37.315,38.03 L31,48.996 L24.716,38.088 C24.241,37.123 24,36.084 24,35 C24,31.141 27.141,28 31,28 C34.859,28 38,31.141 38,35 C38,36.084 37.759,37.123 37.315,38.03 L37.315,38.03 Z" id="Shape" fill="#000000"></path>
    </g>
</svg>