<?xml version="1.0" encoding="UTF-8" standalone="no"?>
<svg width="64px" height="64px" viewBox="0 0 64 64" version="1.1" xmlns="http://www.w3.org/2000/svg" xmlns:xlink="http://www.w3.org/1999/xlink">
    <!-- Generator: Sketch 3.7.2 (28276) - http://www.bohemiancoding.com/sketch -->
    <title>tim-clock</title>
    <desc>Created with Sketch.</desc>
    <defs></defs>
    <g id="64px-Line" stroke="none" stroke-width="1" fill="none" fill-rule="evenodd">
        <g id="tim-clock"></g>
        <path d="M31,6 C16.112,6 4,18.112 4,33 C4,47.888 16.112,60 31,60 C45.888,60 58,47.888 58,33 C58,18.112 45.888,6 31,6 L31,6 Z M31,58 C17.215,58 6,46.785 6,33 C6,19.215 17.215,8 31,8 C44.785,8 56,19.215 56,33 C56,46.785 44.785,58 31,58 L31,58 Z" id="Shape" fill="#000000"></path>
        <path d="M30.068,33.337 C30.092,33.405 30.13,33.462 30.168,33.521 C30.192,33.56 30.202,33.604 30.232,33.64 L40.232,45.64 C40.43,45.877 40.714,46 41,46 C41.226,46 41.453,45.924 41.64,45.768 C42.064,45.414 42.121,44.784 41.768,44.36 L32,32.638 L32,17 C32,16.448 31.552,16 31,16 C30.448,16 30,16.448 30,17 L30,33 C30,33.048 30.021,33.088 30.027,33.134 C30.037,33.203 30.044,33.271 30.068,33.337 L30.068,33.337 Z" id="Shape" fill="#000000"></path>
        <path d="M31,14 C31.552,14 32,13.552 32,13 L32,11 C32,10.448 31.552,10 31,10 C30.448,10 30,10.448 30,11 L30,13 C30,13.552 30.448,14 31,14 L31,14 Z" id="Shape" fill="#000000"></path>
        <path d="M31,52 C30.448,52 30,52.448 30,53 L30,55 C30,55.552 30.448,56 31,56 C31.552,56 32,55.552 32,55 L32,53 C32,52.448 31.552,52 31,52 L31,52 Z" id="Shape" fill="#000000"></path>
        <path d="M20.866,13.447 C20.589,12.968 19.978,12.804 19.5,13.081 C19.022,13.357 18.858,13.969 19.134,14.447 L20.134,16.179 C20.32,16.5 20.655,16.679 21.001,16.679 C21.17,16.679 21.342,16.636 21.5,16.545 C21.978,16.269 22.142,15.657 21.866,15.179 L20.866,13.447 L20.866,13.447 Z" id="Shape" fill="#000000"></path>
        <path d="M41.866,49.82 C41.589,49.341 40.979,49.177 40.5,49.454 C40.022,49.73 39.858,50.342 40.134,50.82 L41.134,52.552 C41.32,52.873 41.655,53.052 42.001,53.052 C42.17,53.052 42.342,53.009 42.5,52.918 C42.978,52.642 43.142,52.03 42.866,51.552 L41.866,49.82 L41.866,49.82 Z" id="Shape" fill="#000000"></path>
        <path d="M14.18,22.134 L12.448,21.134 C11.967,20.857 11.358,21.022 11.082,21.5 C10.806,21.979 10.97,22.59 11.448,22.866 L13.18,23.866 C13.337,23.957 13.509,24 13.679,24 C14.025,24 14.361,23.821 14.546,23.5 C14.822,23.021 14.658,22.41 14.18,22.134 L14.18,22.134 Z" id="Shape" fill="#000000"></path>
        <path d="M50.553,43.134 L48.821,42.134 C48.342,41.857 47.731,42.022 47.455,42.5 C47.179,42.978 47.343,43.59 47.821,43.866 L49.553,44.866 C49.71,44.957 49.882,45 50.052,45 C50.398,45 50.734,44.821 50.919,44.5 C51.195,44.021 51.031,43.41 50.553,43.134 L50.553,43.134 Z" id="Shape" fill="#000000"></path>
        <path d="M12,33 C12,32.448 11.552,32 11,32 L9,32 C8.448,32 8,32.448 8,33 C8,33.552 8.448,34 9,34 L11,34 C11.552,34 12,33.552 12,33 L12,33 Z" id="Shape" fill="#000000"></path>
        <path d="M50,33 C50,33.552 50.448,34 51,34 L53,34 C53.552,34 54,33.552 54,33 C54,32.448 53.552,32 53,32 L51,32 C50.448,32 50,32.448 50,33 L50,33 Z" id="Shape" fill="#000000"></path>
        <path d="M13.18,42.134 L11.448,43.134 C10.97,43.41 10.806,44.022 11.082,44.5 C11.268,44.821 11.603,45 11.949,45 C12.118,45 12.29,44.957 12.448,44.866 L14.18,43.866 C14.658,43.59 14.822,42.978 14.546,42.5 C14.269,42.021 13.659,41.857 13.18,42.134 L13.18,42.134 Z" id="Shape" fill="#000000"></path>
        <path d="M47.454,23.5 C47.64,23.821 47.975,24 48.321,24 C48.49,24 48.662,23.957 48.82,23.866 L50.552,22.866 C51.03,22.59 51.194,21.978 50.918,21.5 C50.641,21.022 50.031,20.857 49.552,21.134 L47.82,22.134 C47.342,22.41 47.178,23.021 47.454,23.5 L47.454,23.5 Z" id="Shape" fill="#000000"></path>
        <path d="M21.5,49.454 C21.019,49.177 20.41,49.342 20.134,49.82 L19.134,51.552 C18.858,52.031 19.022,52.642 19.5,52.918 C19.658,53.009 19.83,53.052 19.999,53.052 C20.345,53.052 20.681,52.873 20.866,52.552 L21.866,50.82 C22.142,50.342 21.978,49.73 21.5,49.454 L21.5,49.454 Z" id="Shape" fill="#000000"></path>
        <path d="M42.5,13.081 C42.02,12.805 41.41,12.969 41.134,13.447 L40.134,15.179 C39.858,15.658 40.022,16.269 40.5,16.545 C40.658,16.636 40.83,16.679 40.999,16.679 C41.345,16.679 41.681,16.5 41.866,16.179 L42.866,14.447 C43.142,13.969 42.978,13.357 42.5,13.081 L42.5,13.081 Z" id="Shape" fill="#000000"></path>
    </g>
</svg>