<?xml version="1.0" encoding="UTF-8" standalone="no"?>
<svg width="64px" height="64px" viewBox="0 0 64 64" version="1.1" xmlns="http://www.w3.org/2000/svg" xmlns:xlink="http://www.w3.org/1999/xlink">
    <!-- Generator: Sketch 3.7.2 (28276) - http://www.bohemiancoding.com/sketch -->
    <title>tim-calendar</title>
    <desc>Created with Sketch.</desc>
    <defs></defs>
    <g id="64px-Line" stroke="none" stroke-width="1" fill="none" fill-rule="evenodd">
        <g id="tim-calendar"></g>
        <path d="M52,8 L12,8 C9.794,8 8,9.794 8,12 L8,52 C8,54.206 9.794,56 12,56 L52,56 C54.206,56 56,54.206 56,52 L56,12 C56,9.794 54.206,8 52,8 L52,8 Z M12,10 L52,10 C53.103,10 54,10.897 54,12 L54,20 L10,20 L10,12 C10,10.897 10.897,10 12,10 L12,10 Z M52,54 L12,54 C10.897,54 10,53.103 10,52 L10,22 L54,22 L54,52 C54,53.103 53.103,54 52,54 L52,54 Z" id="Shape" fill="#000000"></path>
        <rect id="Rectangle-path" fill="#000000" x="24" y="24" width="4" height="4"></rect>
        <rect id="Rectangle-path" fill="#000000" x="30" y="24" width="4" height="4"></rect>
        <rect id="Rectangle-path" fill="#000000" x="36" y="24" width="4" height="4"></rect>
        <rect id="Rectangle-path" fill="#000000" x="42" y="24" width="4" height="4"></rect>
        <rect id="Rectangle-path" fill="#000000" x="48" y="24" width="4" height="4"></rect>
        <rect id="Rectangle-path" fill="#000000" x="12" y="30" width="4" height="4"></rect>
        <rect id="Rectangle-path" fill="#000000" x="18" y="30" width="4" height="4"></rect>
        <rect id="Rectangle-path" fill="#000000" x="24" y="30" width="4" height="4"></rect>
        <rect id="Rectangle-path" fill="#000000" x="30" y="30" width="4" height="4"></rect>
        <rect id="Rectangle-path" fill="#000000" x="36" y="30" width="4" height="4"></rect>
        <rect id="Rectangle-path" fill="#000000" x="42" y="30" width="4" height="4"></rect>
        <rect id="Rectangle-path" fill="#000000" x="48" y="30" width="4" height="4"></rect>
        <rect id="Rectangle-path" fill="#000000" x="12" y="36" width="4" height="4"></rect>
        <rect id="Rectangle-path" fill="#000000" x="18" y="36" width="4" height="4"></rect>
        <rect id="Rectangle-path" fill="#000000" x="24" y="36" width="4" height="4"></rect>
        <rect id="Rectangle-path" fill="#000000" x="30" y="36" width="4" height="4"></rect>
        <rect id="Rectangle-path" fill="#000000" x="36" y="36" width="4" height="4"></rect>
        <rect id="Rectangle-path" fill="#000000" x="42" y="36" width="4" height="4"></rect>
        <rect id="Rectangle-path" fill="#000000" x="48" y="36" width="4" height="4"></rect>
        <rect id="Rectangle-path" fill="#000000" x="42" y="42" width="4" height="4"></rect>
        <rect id="Rectangle-path" fill="#000000" x="48" y="42" width="4" height="4"></rect>
        <rect id="Rectangle-path" fill="#000000" x="12" y="42" width="4" height="4"></rect>
        <rect id="Rectangle-path" fill="#000000" x="18" y="42" width="4" height="4"></rect>
        <rect id="Rectangle-path" fill="#000000" x="24" y="42" width="4" height="4"></rect>
        <rect id="Rectangle-path" fill="#000000" x="30" y="42" width="4" height="4"></rect>
        <rect id="Rectangle-path" fill="#000000" x="36" y="42" width="4" height="4"></rect>
        <rect id="Rectangle-path" fill="#000000" x="12" y="48" width="4" height="4"></rect>
        <rect id="Rectangle-path" fill="#000000" x="18" y="48" width="4" height="4"></rect>
        <rect id="Rectangle-path" fill="#000000" x="24" y="48" width="4" height="4"></rect>
        <rect id="Rectangle-path" fill="#000000" x="30" y="48" width="4" height="4"></rect>
    </g>
</svg>