<?xml version="1.0" encoding="UTF-8" standalone="no"?>
<svg width="64px" height="64px" viewBox="0 0 64 64" version="1.1" xmlns="http://www.w3.org/2000/svg" xmlns:xlink="http://www.w3.org/1999/xlink">
    <!-- Generator: Sketch 3.7.2 (28276) - http://www.bohemiancoding.com/sketch -->
    <title>tim-calendar-settings</title>
    <desc>Created with Sketch.</desc>
    <defs></defs>
    <g id="64px-Line" stroke="none" stroke-width="1" fill="none" fill-rule="evenodd">
        <g id="tim-calendar-settings"></g>
        <path d="M52,8 L10,8 C7.794,8 6,9.794 6,12 L6,54 C6,56.206 7.794,58 10,58 L52,58 C54.206,58 56,56.206 56,54 L56,12 C56,9.794 54.206,8 52,8 L52,8 Z M10,10 L52,10 C53.103,10 54,10.897 54,12 L54,20 L8,20 L8,12 C8,10.897 8.897,10 10,10 L10,10 Z M52,56 L10,56 C8.897,56 8,55.103 8,54 L8,22 L54,22 L54,54 C54,55.103 53.103,56 52,56 L52,56 Z" id="Shape" fill="#000000"></path>
        <path d="M19,18 C20.654,18 22,16.654 22,15 C22,13.346 20.654,12 19,12 C17.346,12 16,13.346 16,15 C16,16.654 17.346,18 19,18 L19,18 Z M19,14 C19.552,14 20,14.448 20,15 C20,15.552 19.552,16 19,16 C18.448,16 18,15.552 18,15 C18,14.448 18.448,14 19,14 L19,14 Z" id="Shape" fill="#000000"></path>
        <path d="M43,18 C44.654,18 46,16.654 46,15 C46,13.346 44.654,12 43,12 C41.346,12 40,13.346 40,15 C40,16.654 41.346,18 43,18 L43,18 Z M43,14 C43.552,14 44,14.448 44,15 C44,15.552 43.552,16 43,16 C42.448,16 42,15.552 42,15 C42,14.448 42.448,14 43,14 L43,14 Z" id="Shape" fill="#000000"></path>
        <path d="M31,34 C28.243,34 26,36.243 26,39 C26,41.757 28.243,44 31,44 C33.757,44 36,41.757 36,39 C36,36.243 33.757,34 31,34 L31,34 Z M31,42 C29.346,42 28,40.654 28,39 C28,37.346 29.346,36 31,36 C32.654,36 34,37.346 34,39 C34,40.654 32.654,42 31,42 L31,42 Z" id="Shape" fill="#000000"></path>
        <path d="M42.077,36.153 L40.825,36.153 C40.61,35.417 40.313,34.701 39.943,34.032 L40.673,33.303 C41.413,32.561 41.413,31.352 40.672,30.609 L39.39,29.327 C38.648,28.584 37.438,28.587 36.696,29.328 L35.968,30.056 C35.293,29.68 34.584,29.384 33.846,29.171 L33.846,27.924 C33.846,26.863 32.983,26.001 31.922,26.001 L30.076,26.001 C29.015,26.001 28.152,26.863 28.152,27.924 L28.152,29.17 C27.412,29.384 26.702,29.68 26.029,30.056 L25.301,29.327 C24.56,28.588 23.352,28.585 22.607,29.328 L21.326,30.609 C20.583,31.352 20.583,32.561 21.326,33.304 L22.054,34.032 C21.68,34.703 21.385,35.413 21.172,36.154 L19.922,36.154 C18.861,36.154 17.999,37.017 17.999,38.078 L17.999,39.924 C17.999,40.985 18.861,41.848 19.922,41.848 L21.174,41.848 C21.389,42.585 21.686,43.301 22.055,43.969 L21.326,44.698 C20.584,45.44 20.584,46.649 21.326,47.393 L22.607,48.674 C23.349,49.418 24.56,49.416 25.302,48.674 L26.031,47.945 C26.703,48.318 27.412,48.613 28.152,48.826 L28.152,50.078 C28.152,51.139 29.015,52.001 30.076,52.001 L31.922,52.001 C32.983,52.001 33.846,51.139 33.846,50.078 L33.846,48.823 C34.584,48.609 35.3,48.312 35.966,47.944 L36.695,48.673 C37.437,49.415 38.646,49.415 39.39,48.673 L40.671,47.391 C41.414,46.648 41.414,45.44 40.671,44.697 L39.944,43.969 C40.317,43.298 40.612,42.588 40.825,41.847 L42.075,41.847 C43.136,41.847 43.998,40.984 43.998,39.923 L43.998,38.077 C44,37.017 43.138,36.153 42.077,36.153 L42.077,36.153 Z M42,39.847 L40.043,39.847 C39.567,39.847 39.157,40.182 39.063,40.648 C38.85,41.701 38.443,42.681 37.852,43.565 C37.586,43.961 37.638,44.491 37.976,44.828 L39.192,46.045 L38.045,47.193 L36.827,45.974 C36.489,45.636 35.959,45.584 35.564,45.85 C34.698,46.429 33.689,46.848 32.646,47.062 C32.181,47.158 31.847,47.567 31.847,48.041 L31.847,50 L30.154,50 L30.154,48.041 C30.154,47.565 29.819,47.155 29.353,47.061 C28.303,46.849 27.323,46.441 26.437,45.849 C26.04,45.585 25.512,45.636 25.174,45.974 L23.956,47.193 L22.808,46.045 L24.026,44.828 C24.363,44.491 24.416,43.963 24.151,43.565 C23.57,42.695 23.15,41.686 22.937,40.647 C22.842,40.181 22.432,39.847 21.958,39.847 L20,39.847 L20,38.154 L21.957,38.154 C22.433,38.154 22.843,37.819 22.937,37.353 C23.15,36.302 23.557,35.321 24.149,34.436 C24.415,34.04 24.363,33.51 24.025,33.173 L22.807,31.956 L23.955,30.808 L25.172,32.026 C25.51,32.364 26.038,32.414 26.436,32.15 C27.324,31.555 28.305,31.146 29.352,30.934 C29.818,30.839 30.153,30.429 30.153,29.954 L30.153,28 L31.846,28 L31.846,29.953 C31.846,30.429 32.181,30.839 32.647,30.933 C33.689,31.144 34.67,31.553 35.565,32.15 C35.961,32.415 36.489,32.363 36.827,32.025 L38.044,30.807 L39.192,31.955 L37.974,33.172 C37.637,33.509 37.584,34.037 37.849,34.434 C38.431,35.307 38.85,36.316 39.063,37.353 C39.158,37.819 39.568,38.153 40.042,38.153 L42,38.153 L42,39.847 L42,39.847 Z" id="Shape" fill="#000000"></path>
    </g>
</svg>