<?xml version="1.0" encoding="UTF-8" standalone="no"?>
<svg width="64px" height="64px" viewBox="0 0 64 64" version="1.1" xmlns="http://www.w3.org/2000/svg" xmlns:xlink="http://www.w3.org/1999/xlink">
    <!-- Generator: Sketch 3.7.2 (28276) - http://www.bohemiancoding.com/sketch -->
    <title>tra-foglights</title>
    <desc>Created with Sketch.</desc>
    <defs></defs>
    <g id="64px-Line" stroke="none" stroke-width="1" fill="none" fill-rule="evenodd">
        <g id="tra-foglights"></g>
        <path d="M36.96,50 L39,50 C44.203,50 49.06,47.938 52.673,44.193 C56.285,40.45 58.173,35.519 57.987,30.308 C57.629,20.213 48.917,12 38.568,12 L36.96,12 C35.315,12 33.86,12.979 33.254,14.493 C32.039,17.526 30,23.704 30,31 C30,38.296 32.039,44.474 33.254,47.506 C33.86,49.021 35.315,50 36.96,50 L36.96,50 Z M35.111,15.237 C35.412,14.486 36.137,14 36.96,14 L38.568,14 C47.853,14 55.668,21.348 55.989,30.379 C56.154,35.042 54.466,39.454 51.234,42.803 C48,46.155 43.655,48 39,48 L36.96,48 C36.138,48 35.412,47.515 35.111,46.763 C33.949,43.864 32,37.96 32,31 C32,24.04 33.949,18.136 35.111,15.237 L35.111,15.237 Z" id="Shape" fill="#000000"></path>
        <path d="M5,32 L13,32 C13.553,32 14,31.552 14,31 C14,30.448 13.553,30 13,30 L5,30 C4.447,30 4,30.448 4,31 C4,31.552 4.447,32 5,32 L5,32 Z" id="Shape" fill="#000000"></path>
        <path d="M25,32 C25.553,32 26,31.552 26,31 C26,30.448 25.553,30 25,30 L21,30 C20.447,30 20,30.448 20,31 C20,31.552 20.447,32 21,32 L25,32 L25,32 Z" id="Shape" fill="#000000"></path>
        <path d="M5,22 L9,22 C9.553,22 10,21.552 10,21 C10,20.448 9.553,20 9,20 L5,20 C4.447,20 4,20.448 4,21 C4,21.552 4.447,22 5,22 L5,22 Z" id="Shape" fill="#000000"></path>
        <path d="M16,21 C16,21.552 16.447,22 17,22 L25,22 C25.553,22 26,21.552 26,21 C26,20.448 25.553,20 25,20 L17,20 C16.447,20 16,20.448 16,21 L16,21 Z" id="Shape" fill="#000000"></path>
        <path d="M5,42 L9,42 C9.553,42 10,41.552 10,41 C10,40.448 9.553,40 9,40 L5,40 C4.447,40 4,40.448 4,41 C4,41.552 4.447,42 5,42 L5,42 Z" id="Shape" fill="#000000"></path>
        <path d="M16,41 C16,41.552 16.447,42 17,42 L25,42 C25.553,42 26,41.552 26,41 C26,40.448 25.553,40 25,40 L17,40 C16.447,40 16,40.448 16,41 L16,41 Z" id="Shape" fill="#000000"></path>
        <path d="M16,31 C16,32.659 15.108,34.015 14.164,35.451 C13.101,37.069 12,38.743 12,41 C12,43.312 13.159,45.062 14.182,46.607 C15.117,48.02 16,49.353 16,51 C16,51.552 16.447,52 17,52 C17.553,52 18,51.552 18,51 C18,48.751 16.907,47.1 15.85,45.503 C14.898,44.066 14,42.709 14,41 C14,39.341 14.892,37.985 15.836,36.549 C16.899,34.931 18,33.257 18,31 C18,28.706 16.855,27.001 15.846,25.497 C14.896,24.083 14,22.748 14,21 C14,19.365 14.875,18.053 15.801,16.665 C16.832,15.118 18,13.366 18,11 C18,10.448 17.553,10 17,10 C16.447,10 16,10.448 16,11 C16,12.76 15.095,14.118 14.137,15.555 C13.086,17.13 12,18.759 12,21 C12,23.357 13.161,25.086 14.186,26.612 C15.118,28.002 16,29.315 16,31 L16,31 Z" id="Shape" fill="#000000"></path>
    </g>
</svg>