<?xml version="1.0" encoding="UTF-8" standalone="no"?>
<svg width="64px" height="64px" viewBox="0 0 64 64" version="1.1" xmlns="http://www.w3.org/2000/svg" xmlns:xlink="http://www.w3.org/1999/xlink">
    <!-- Generator: Sketch 3.7.2 (28276) - http://www.bohemiancoding.com/sketch -->
    <title>tra-gears</title>
    <desc>Created with Sketch.</desc>
    <defs></defs>
    <g id="64px-Line" stroke="none" stroke-width="1" fill="none" fill-rule="evenodd">
        <g id="tra-gears"></g>
        <path d="M10,44.08 C6.613,44.568 4,47.481 4,51 C4,54.86 7.14,58 11,58 C14.86,58 18,54.86 18,51 C18,47.48 15.387,44.568 12,44.08 L12,34 L30,34 L30,44.08 C26.613,44.568 24,47.481 24,51 C24,54.86 27.14,58 31,58 C34.86,58 38,54.86 38,51 C38,47.48 35.387,44.568 32,44.08 L32,34 L51,34 C51.552,34 52,33.552 52,33 L52,21.92 C55.387,21.432 58,18.519 58,15 C58,11.14 54.86,8 51,8 C47.14,8 44,11.14 44,15 C44,18.52 46.613,21.432 50,21.92 L50,32 L32,32 L32,21.92 C35.387,21.432 38,18.519 38,15 C38,11.14 34.86,8 31,8 C27.14,8 24,11.14 24,15 C24,18.52 26.613,21.432 30,21.92 L30,32 L12,32 L12,21.92 C15.387,21.432 18,18.519 18,15 C18,11.14 14.86,8 11,8 C7.14,8 4,11.14 4,15 C4,18.52 6.613,21.432 10,21.92 L10,44.08 L10,44.08 Z M36,51 C36,53.757 33.757,56 31,56 C28.243,56 26,53.757 26,51 C26,48.243 28.243,46 31,46 C33.757,46 36,48.243 36,51 L36,51 Z M46,15 C46,12.243 48.243,10 51,10 C53.757,10 56,12.243 56,15 C56,17.757 53.757,20 51,20 C48.243,20 46,17.757 46,15 L46,15 Z M26,15 C26,12.243 28.243,10 31,10 C33.757,10 36,12.243 36,15 C36,17.757 33.757,20 31,20 C28.243,20 26,17.757 26,15 L26,15 Z M16,51 C16,53.757 13.757,56 11,56 C8.243,56 6,53.757 6,51 C6,48.243 8.243,46 11,46 C13.757,46 16,48.243 16,51 L16,51 Z M6,15 C6,12.243 8.243,10 11,10 C13.757,10 16,12.243 16,15 C16,17.757 13.757,20 11,20 C8.243,20 6,17.757 6,15 L6,15 Z" id="Shape" fill="#000000"></path>
    </g>
</svg>