<?xml version="1.0" encoding="UTF-8" standalone="no"?>
<svg width="64px" height="64px" viewBox="0 0 64 64" version="1.1" xmlns="http://www.w3.org/2000/svg" xmlns:xlink="http://www.w3.org/1999/xlink">
    <!-- Generator: Sketch 3.7.2 (28276) - http://www.bohemiancoding.com/sketch -->
    <title>tra-screen-wipe</title>
    <desc>Created with Sketch.</desc>
    <defs></defs>
    <g id="64px-Line" stroke="none" stroke-width="1" fill="none" fill-rule="evenodd">
        <g id="tra-screen-wipe"></g>
        <path d="M16.642,47.934 C16.757,47.978 16.879,48 17,48 C17.143,48 17.286,47.969 17.419,47.908 C17.47,47.884 21.63,45.991 27.034,45.273 L30.064,53.352 C30.215,53.753 30.596,54 31.001,54 C31.118,54 31.236,53.979 31.352,53.937 C31.869,53.743 32.131,53.166 31.937,52.649 L29.096,45.072 C29.723,45.03 30.356,45 31.001,45 C38.18,45 44.519,47.879 44.583,47.908 C44.827,48.02 45.108,48.029 45.36,47.933 C45.612,47.835 45.814,47.641 45.92,47.393 L57.92,19.393 C58.118,18.931 57.942,18.394 57.509,18.138 C57.083,17.888 46.923,12 31,12 C15.077,12 4.917,17.888 4.492,18.139 C4.059,18.395 3.883,18.932 4.081,19.394 L16.081,47.394 C16.187,47.642 16.389,47.837 16.642,47.934 L16.642,47.934 Z M31,14 C43.922,14 53.087,18.115 55.719,19.449 L44.472,45.692 C42.367,44.854 37.033,43 31,43 C30.102,43 29.222,43.045 28.363,43.118 L19.937,20.649 C19.743,20.132 19.167,19.873 18.649,20.064 C18.132,20.258 17.87,20.835 18.064,21.352 L26.314,43.353 C22.323,43.931 19.064,45.081 17.528,45.693 L6.281,19.449 C8.906,18.113 18.049,14 31,14 L31,14 Z" id="Shape" fill="#000000"></path>
    </g>
</svg>