<?xml version="1.0" encoding="UTF-8" standalone="no"?>
<svg width="64px" height="64px" viewBox="0 0 64 64" version="1.1" xmlns="http://www.w3.org/2000/svg" xmlns:xlink="http://www.w3.org/1999/xlink">
    <!-- Generator: Sketch 3.7.2 (28276) - http://www.bohemiancoding.com/sketch -->
    <title>tra-lights</title>
    <desc>Created with Sketch.</desc>
    <defs></defs>
    <g id="64px-Line" stroke="none" stroke-width="1" fill="none" fill-rule="evenodd">
        <g id="tra-lights"></g>
        <path d="M36.96,50 L39,50 C44.203,50 49.059,47.938 52.673,44.193 C56.285,40.45 58.173,35.519 57.987,30.308 C57.629,20.213 48.917,12 38.568,12 L36.96,12 C35.316,12 33.861,12.979 33.254,14.493 C32.039,17.526 30,23.704 30,31 C30,38.296 32.039,44.474 33.254,47.507 C33.861,49.021 35.316,50 36.96,50 L36.96,50 Z M35.111,15.237 C35.412,14.486 36.138,14 36.96,14 L38.568,14 C47.853,14 55.668,21.348 55.988,30.379 C56.154,35.042 54.466,39.454 51.234,42.803 C48,46.155 43.656,48 39,48 L36.96,48 C36.138,48 35.412,47.514 35.111,46.763 C33.949,43.864 32,37.96 32,31 C32,24.04 33.949,18.136 35.111,15.237 L35.111,15.237 Z" id="Shape" fill="#000000"></path>
        <path d="M5,32 L25,32 C25.552,32 26,31.552 26,31 C26,30.448 25.552,30 25,30 L5,30 C4.448,30 4,30.448 4,31 C4,31.552 4.448,32 5,32 L5,32 Z" id="Shape" fill="#000000"></path>
        <path d="M5,22 L25,22 C25.552,22 26,21.552 26,21 C26,20.448 25.552,20 25,20 L5,20 C4.448,20 4,20.448 4,21 C4,21.552 4.448,22 5,22 L5,22 Z" id="Shape" fill="#000000"></path>
        <path d="M5,42 L25,42 C25.552,42 26,41.552 26,41 C26,40.448 25.552,40 25,40 L5,40 C4.448,40 4,40.448 4,41 C4,41.552 4.448,42 5,42 L5,42 Z" id="Shape" fill="#000000"></path>
    </g>
</svg>