<?xml version="1.0" encoding="UTF-8" standalone="no"?>
<svg width="64px" height="64px" viewBox="0 0 64 64" version="1.1" xmlns="http://www.w3.org/2000/svg" xmlns:xlink="http://www.w3.org/1999/xlink">
    <!-- Generator: Sketch 3.7.2 (28276) - http://www.bohemiancoding.com/sketch -->
    <title>tra-lights-dipped</title>
    <desc>Created with Sketch.</desc>
    <defs></defs>
    <g id="64px-Line" stroke="none" stroke-width="1" fill="none" fill-rule="evenodd">
        <g id="tra-lights-dipped"></g>
        <path d="M36.96,50 L39,50 C44.203,50 49.06,47.938 52.673,44.193 C56.285,40.45 58.173,35.519 57.987,30.308 C57.629,20.213 48.917,12 38.568,12 L36.96,12 C35.315,12 33.86,12.979 33.254,14.493 C32.039,17.526 30,23.704 30,31 C30,38.296 32.039,44.474 33.254,47.506 C33.86,49.021 35.315,50 36.96,50 L36.96,50 Z M35.111,15.237 C35.412,14.486 36.137,14 36.96,14 L38.568,14 C47.853,14 55.668,21.348 55.989,30.379 C56.154,35.042 54.466,39.454 51.234,42.803 C48,46.155 43.655,48 39,48 L36.96,48 C36.138,48 35.412,47.515 35.111,46.763 C33.949,43.864 32,37.96 32,31 C32,24.04 33.949,18.136 35.111,15.237 L35.111,15.237 Z" id="Shape" fill="#000000"></path>
        <path d="M5.001,42 C5.151,42 5.304,41.966 5.447,41.895 L25.447,31.895 C25.941,31.648 26.141,31.047 25.894,30.553 C25.646,30.059 25.046,29.859 24.552,30.106 L4.552,40.106 C4.058,40.353 3.858,40.954 4.105,41.448 C4.281,41.798 4.634,42 5.001,42 L5.001,42 Z" id="Shape" fill="#000000"></path>
        <path d="M5.001,32 C5.151,32 5.304,31.966 5.447,31.895 L25.447,21.895 C25.941,21.648 26.141,21.047 25.894,20.553 C25.646,20.059 25.046,19.859 24.552,20.106 L4.552,30.106 C4.058,30.353 3.858,30.954 4.105,31.448 C4.281,31.798 4.634,32 5.001,32 L5.001,32 Z" id="Shape" fill="#000000"></path>
        <path d="M5.001,52 C5.151,52 5.304,51.966 5.447,51.895 L25.447,41.895 C25.941,41.648 26.141,41.047 25.894,40.553 C25.646,40.059 25.046,39.859 24.552,40.106 L4.552,50.106 C4.058,50.353 3.858,50.954 4.105,51.448 C4.281,51.798 4.634,52 5.001,52 L5.001,52 Z" id="Shape" fill="#000000"></path>
    </g>
</svg>