<?xml version="1.0" encoding="UTF-8" standalone="no"?>
<svg width="64px" height="64px" viewBox="0 0 64 64" version="1.1" xmlns="http://www.w3.org/2000/svg" xmlns:xlink="http://www.w3.org/1999/xlink">
    <!-- Generator: Sketch 3.7.2 (28276) - http://www.bohemiancoding.com/sketch -->
    <title>tra-helmet-2</title>
    <desc>Created with Sketch.</desc>
    <defs></defs>
    <g id="64px-Line" stroke="none" stroke-width="1" fill="none" fill-rule="evenodd">
        <g id="tra-helmet-2"></g>
        <path d="M25,48 C22.349,48 19.581,46.186 19.554,46.167 C19.092,45.861 18.473,45.987 18.168,46.446 C17.862,46.906 17.986,47.526 18.445,47.832 C18.578,47.921 21.734,50 25,50 C25.553,50 26,49.553 26,49 C26,48.447 25.553,48 25,48 L25,48 Z" id="Shape" fill="#000000"></path>
        <path d="M42.454,46.162 C42.426,46.181 39.596,48 37,48 C36.447,48 36,48.447 36,49 C36,49.553 36.447,50 37,50 C40.198,50 43.411,47.926 43.547,47.837 C44.009,47.535 44.139,46.917 43.838,46.454 C43.534,45.991 42.914,45.862 42.454,46.162 L42.454,46.162 Z" id="Shape" fill="#000000"></path>
        <path d="M55,26 L54,26 L54,23 C54,22.447 53.553,22 53,22 L52.895,22 C49.873,12.546 40.989,6 31,6 C21.011,6 12.128,12.546 9.105,22 L9,22 C8.447,22 8,22.447 8,23 L8,26 L7,26 C6.447,26 6,26.447 6,27 L6,31 C6,31.553 6.447,32 7,32 L8,32 L8,35 C8,40.242 10.559,46.542 14.679,51.44 C19.32,56.96 25.116,60 31,60 C43.171,60 54,46.02 54,35 L54,32 L55,32 C55.553,32 56,31.553 56,31 L56,27 C56,26.447 55.553,26 55,26 L55,26 Z M10,24 L52,24 L52,30.847 C51.558,32.181 47.168,44 31,44 C14.703,44 10.458,32.284 10,30.851 L10,24 L10,24 Z M31,8 C39.905,8 47.852,13.697 50.792,22 L11.209,22 C14.148,13.697 22.095,8 31,8 L31,8 Z M31,58 C20.038,58 10.275,45.486 10.012,35.415 C10.652,36.434 11.473,37.557 12.517,38.681 C15.618,42.02 21.342,46 31,46 C43.179,46 49.247,39.71 51.99,35.351 C51.766,47.378 40.167,58 31,58 L31,58 Z" id="Shape" fill="#000000"></path>
        <path d="M19.707,27.707 C20.098,27.316 20.098,26.684 19.707,26.293 C19.316,25.902 18.684,25.902 18.293,26.293 L13.293,31.293 C12.902,31.684 12.902,32.316 13.293,32.707 C13.488,32.902 13.744,33 14,33 C14.256,33 14.512,32.902 14.707,32.707 L19.707,27.707 L19.707,27.707 Z" id="Shape" fill="#000000"></path>
        <path d="M16.293,35.707 C16.488,35.902 16.744,36 17,36 C17.256,36 17.512,35.902 17.707,35.707 L25.707,27.707 C26.098,27.316 26.098,26.684 25.707,26.293 C25.316,25.902 24.684,25.902 24.293,26.293 L16.293,34.293 C15.902,34.684 15.902,35.316 16.293,35.707 L16.293,35.707 Z" id="Shape" fill="#000000"></path>
    </g>
</svg>