<?xml version="1.0" encoding="UTF-8" standalone="no"?>
<svg width="64px" height="64px" viewBox="0 0 64 64" version="1.1" xmlns="http://www.w3.org/2000/svg" xmlns:xlink="http://www.w3.org/1999/xlink">
    <!-- Generator: Sketch 3.7.2 (28276) - http://www.bohemiancoding.com/sketch -->
    <title>tra-p-plate</title>
    <desc>Created with Sketch.</desc>
    <defs></defs>
    <g id="64px-Line" stroke="none" stroke-width="1" fill="none" fill-rule="evenodd">
        <g id="tra-p-plate"></g>
        <path d="M9,8 C7.346,8 6,9.346 6,11 L6,55 C6,56.654 7.346,58 9,58 L53,58 C54.654,58 56,56.654 56,55 L56,11 C56,9.346 54.654,8 53,8 L9,8 L9,8 Z M54,11 L54,55 C54,55.551 53.552,56 53,56 L9,56 C8.448,56 8,55.551 8,55 L8,11 C8,10.449 8.448,10 9,10 L53,10 C53.552,10 54,10.449 54,11 L54,11 Z" id="Shape" fill="#000000"></path>
        <path d="M34,18 L21,18 C20.447,18 20,18.448 20,19 L20,47 C20,47.552 20.447,48 21,48 L27,48 C27.553,48 28,47.552 28,47 L28,38 L34,38 C39.514,38 44,33.514 44,28 C44,22.486 39.514,18 34,18 L34,18 Z M34,36 L27,36 C26.447,36 26,36.448 26,37 L26,46 L22,46 L22,20 L34,20 C38.411,20 42,23.589 42,28 C42,32.411 38.411,36 34,36 L34,36 Z" id="Shape" fill="#000000"></path>
        <path d="M34,24 L27,24 C26.447,24 26,24.448 26,25 L26,31 C26,31.552 26.447,32 27,32 L34,32 C36.206,32 38,30.206 38,28 C38,25.794 36.206,24 34,24 L34,24 Z M34,30 L28,30 L28,26 L34,26 C35.103,26 36,26.897 36,28 C36,29.103 35.103,30 34,30 L34,30 Z" id="Shape" fill="#000000"></path>
    </g>
</svg>