<?xml version="1.0" encoding="UTF-8" standalone="no"?>
<svg width="44px" height="44px" viewBox="0 0 44 44" version="1.1" xmlns="http://www.w3.org/2000/svg" xmlns:xlink="http://www.w3.org/1999/xlink">
    <!-- Generator: Sketch 3.7.2 (28276) - http://www.bohemiancoding.com/sketch -->
    <title>tra-traction</title>
    <desc>Created with Sketch.</desc>
    <defs></defs>
    <g id="44px-Line" stroke="none" stroke-width="1" fill="none" fill-rule="evenodd">
        <g id="tra-traction"></g>
        <path d="M37,4 L32.271,4 L31.506,1.864 C31.171,0.749 30.164,0 29,0 L15,0 C13.836,0 12.829,0.749 12.511,1.814 L11.729,4 L7,4 C6.448,4 6,4.447 6,5 L6,9 C6,9.553 6.448,10 7,10 L8.184,10 C8.072,10.314 8,10.648 8,11 L8,17 C8,17.553 8.448,18 9,18 L10,18 L10,20 C10,21.103 10.897,22 12,22 L14,22 C15.103,22 16,21.103 16,20 L16,18 L28,18 L28,20 C28,21.103 28.897,22 30,22 L32,22 C33.103,22 34,21.103 34,20 L34,18 L35,18 C35.552,18 36,17.553 36,17 L36,11 C36,10.648 35.928,10.314 35.816,10 L37,10 C37.552,10 38,9.553 38,9 L38,5 C38,4.447 37.552,4 37,4 L37,4 Z M15,2 L29,2 C29.274,2 29.511,2.177 29.606,2.488 L31.58,8 L12.42,8 L14.411,2.438 C14.489,2.177 14.726,2 15,2 L15,2 Z M8,6 L11.012,6 L10.296,8 L8,8 L8,6 L8,6 Z M14,20 L12,20 L12,18 L14,18 L14,20 L14,20 Z M32,20 L30,20 L30,18 L32,18 L32,20 L32,20 Z M34,11 L34,16 L10,16 L10,11 C10,10.448 10.449,10 11,10 L33,10 C33.551,10 34,10.448 34,11 L34,11 Z M36,8 L33.704,8 L32.987,6 L36,6 L36,8 L36,8 Z" id="Shape" fill="#000000"></path>
        <path d="M17.761,33.229 C19.845,32.191 22,31.117 22,29 C22,25.08 15.84,24.107 15.138,24.01 C14.596,23.926 14.086,24.314 14.01,24.863 C13.933,25.41 14.315,25.915 14.862,25.991 C16.538,26.225 20,27.268 20,29.001 C20,29.881 18.408,30.674 16.869,31.44 C14.587,32.577 12,33.866 12,36.539 C12,41.114 19.812,43.679 20.703,43.956 C20.802,43.986 20.902,44.001 21,44.001 C21.426,44.001 21.821,43.727 21.955,43.299 C22.119,42.772 21.825,42.211 21.298,42.046 C19.404,41.455 14,39.174 14,36.539 C14,35.103 15.912,34.15 17.761,33.229 L17.761,33.229 Z" id="Shape" fill="#000000"></path>
        <path d="M33.71,33.005 C35.721,32.139 38,31.156 38,29 C38,25.08 31.84,24.107 31.138,24.01 C30.596,23.926 30.086,24.314 30.01,24.863 C29.933,25.41 30.315,25.915 30.862,25.991 C32.538,26.225 36,27.268 36,29.001 C36,29.842 34.434,30.517 32.919,31.169 C30.728,32.113 28,33.289 28,36.001 C28,40.532 35.761,43.602 36.646,43.937 C36.763,43.981 36.882,44.001 37,44.001 C37.404,44.001 37.784,43.755 37.936,43.355 C38.131,42.838 37.872,42.261 37.355,42.065 C35.446,41.341 30,38.672 30,36 C30,34.701 31.469,33.971 33.71,33.005 L33.71,33.005 Z" id="Shape" fill="#000000"></path>
    </g>
</svg>