<?xml version="1.0" encoding="UTF-8" standalone="no"?>
<svg width="64px" height="64px" viewBox="0 0 64 64" version="1.1" xmlns="http://www.w3.org/2000/svg" xmlns:xlink="http://www.w3.org/1999/xlink">
    <!-- Generator: Sketch 3.7.2 (28276) - http://www.bohemiancoding.com/sketch -->
    <title>tra-r-plate</title>
    <desc>Created with Sketch.</desc>
    <defs></defs>
    <g id="64px-Line" stroke="none" stroke-width="1" fill="none" fill-rule="evenodd">
        <g id="tra-r-plate"></g>
        <path d="M56,55 L56,11 C56,9.346 54.654,8 53,8 L9,8 C7.346,8 6,9.346 6,11 L6,55 C6,56.654 7.346,58 9,58 L53,58 C54.654,58 56,56.654 56,55 L56,55 Z M8,55 L8,11 C8,10.449 8.449,10 9,10 L53,10 C53.551,10 54,10.449 54,11 L54,55 C54,55.551 53.551,56 53,56 L9,56 C8.449,56 8,55.551 8,55 L8,55 Z" id="Shape" fill="#000000"></path>
        <path d="M44,28 C44,22.486 39.514,18 34,18 L21,18 C20.448,18 20,18.448 20,19 L20,47 C20,47.552 20.448,48 21,48 L27,48 C27.552,48 28,47.552 28,47 L28,38 L30.322,38 L34.072,47.372 C34.224,47.751 34.592,48 35,48 L41,48 C41.332,48 41.642,47.835 41.828,47.561 C42.014,47.287 42.052,46.937 41.929,46.629 L38.123,37.115 C41.678,35.511 44,31.97 44,28 L44,28 Z M36.507,35.6 C36.245,35.686 36.03,35.877 35.914,36.127 C35.797,36.377 35.789,36.665 35.892,36.921 L39.524,46 L35.678,46 L31.929,36.628 C31.777,36.249 31.409,36 31.001,36 L27.001,36 C26.449,36 26.001,36.448 26.001,37 L26.001,46 L22.001,46 L22.001,20 L34.001,20 C38.412,20 42.001,23.589 42.001,28 C42,31.462 39.792,34.517 36.507,35.6 L36.507,35.6 Z" id="Shape" fill="#000000"></path>
        <path d="M34,24 L27,24 C26.448,24 26,24.448 26,25 L26,31 C26,31.552 26.448,32 27,32 L34,32 C36.206,32 38,30.206 38,28 C38,25.794 36.206,24 34,24 L34,24 Z M34,30 L28,30 L28,26 L34,26 C35.103,26 36,26.897 36,28 C36,29.103 35.103,30 34,30 L34,30 Z" id="Shape" fill="#000000"></path>
    </g>
</svg>