<?xml version="1.0" encoding="UTF-8" standalone="no"?>
<svg width="64px" height="64px" viewBox="0 0 64 64" version="1.1" xmlns="http://www.w3.org/2000/svg" xmlns:xlink="http://www.w3.org/1999/xlink">
    <!-- Generator: Sketch 3.7.2 (28276) - http://www.bohemiancoding.com/sketch -->
    <title>tra-steer</title>
    <desc>Created with Sketch.</desc>
    <defs></defs>
    <g id="64px-Line" stroke="none" stroke-width="1" fill="none" fill-rule="evenodd">
        <g id="tra-steer"></g>
        <path d="M32,4 C16.561,4 4,16.561 4,32 C4,47.439 16.561,60 32,60 C47.439,60 60,47.439 60,32 C60,16.561 47.439,4 32,4 L32,4 Z M32,58 C17.663,58 6,46.337 6,32 C6,17.663 17.663,6 32,6 C46.337,6 58,17.663 58,32 C58,46.337 46.337,58 32,58 L32,58 Z" id="Shape" fill="#000000"></path>
        <path d="M32,8 C18.767,8 8,18.767 8,32 C8,45.233 18.767,56 32,56 C45.233,56 56,45.233 56,32 C56,18.767 45.233,8 32,8 L32,8 Z M32,10 C42.715,10 51.66,17.701 53.604,27.858 L37.309,26.028 C35.843,24.723 33.975,24 32,24 C30.023,24 28.156,24.722 26.69,26.028 L10.396,27.859 C12.34,17.702 21.285,10 32,10 L32,10 Z M10.396,36.141 L26.095,37.904 L27.858,53.603 C19.044,51.917 12.083,44.956 10.396,36.141 L10.396,36.141 Z M29.905,53.898 L27.994,36.889 C27.941,36.425 27.575,36.059 27.111,36.006 L10.102,34.095 C10.037,33.405 10,32.707 10,32 C10,31.293 10.037,30.595 10.102,29.905 L27.089,27.997 C27.093,27.997 27.097,27.999 27.101,27.999 C27.354,27.999 27.606,27.904 27.801,27.713 C28.929,26.608 30.42,26 32,26 C33.578,26 35.069,26.608 36.198,27.714 C36.398,27.91 36.658,28.003 36.917,27.997 L53.897,29.904 C53.963,30.594 53.999,31.292 53.999,31.999 C53.999,32.706 53.962,33.404 53.897,34.094 L36.888,36.005 C36.424,36.058 36.058,36.424 36.005,36.888 L34.094,53.897 C33.404,53.963 32.706,53.999 31.999,53.999 C31.293,54 30.595,53.963 29.905,53.898 L29.905,53.898 Z M36.141,53.604 L37.904,37.905 L53.603,36.142 C51.917,44.956 44.956,51.917 36.141,53.604 L36.141,53.604 Z" id="Shape" fill="#000000"></path>
        <path d="M36,32 C36,29.794 34.206,28 32,28 C29.794,28 28,29.794 28,32 C28,34.206 29.794,36 32,36 C34.206,36 36,34.206 36,32 L36,32 Z M30,32 C30,30.897 30.897,30 32,30 C33.103,30 34,30.897 34,32 C34,33.103 33.103,34 32,34 C30.897,34 30,33.103 30,32 L30,32 Z" id="Shape" fill="#000000"></path>
    </g>
</svg>