<?xml version="1.0" encoding="UTF-8" standalone="no"?>
<svg width="64px" height="64px" viewBox="0 0 64 64" version="1.1" xmlns="http://www.w3.org/2000/svg" xmlns:xlink="http://www.w3.org/1999/xlink">
    <!-- Generator: Sketch 3.7.2 (28276) - http://www.bohemiancoding.com/sketch -->
    <title>tra-ignition</title>
    <desc>Created with Sketch.</desc>
    <defs></defs>
    <g id="64px-Line" stroke="none" stroke-width="1" fill="none" fill-rule="evenodd">
        <g id="tra-ignition"></g>
        <path d="M59,20 C54.334,20 50.622,20.941 47.718,22.247 C44.72,19.22 39.717,16 32,16 C24.286,16 19.283,19.218 16.284,22.244 C13.183,20.851 9.434,20 5,20 C4.448,20 4,20.447 4,21 C4,21.553 4.448,22 5,22 C8.845,22 12.127,22.686 14.873,23.82 C11.823,27.592 10.023,32.489 10.023,37.097 C10.023,43.72 13.546,47.999 19,47.999 C24.349,47.999 27.943,44.196 27.943,38.537 C27.943,33.452 24.837,26.997 18.168,23.2 C20.927,20.6 25.35,17.999 32,17.999 C38.023,17.999 42.598,20.134 45.84,23.198 C44.16,24.152 42.819,25.207 41.774,26.195 C38.194,29.584 36.057,34.197 36.057,38.537 C36.057,44.196 39.651,47.999 45,47.999 C50.453,47.999 53.977,43.72 53.977,37.097 C53.977,32.488 52.177,27.591 49.126,23.819 C51.712,22.75 54.965,22 59,22 C59.552,22 60,21.553 60,21 C60,20.447 59.552,20 59,20 L59,20 Z M25.943,38.538 C25.943,40.7 25.335,42.543 24.183,43.868 C22.971,45.263 21.179,46 19,46 C13.856,46 12.023,41.401 12.023,37.098 C12.023,32.781 13.781,28.174 16.739,24.702 C23.021,28.067 25.943,33.933 25.943,38.538 L25.943,38.538 Z M51.977,37.098 C51.977,39.66 51.335,41.934 50.17,43.501 C48.937,45.159 47.197,46 45,46 C39.881,46 38.057,42.146 38.057,38.538 C38.057,34.737 39.961,30.667 43.149,27.649 C44.181,26.672 45.535,25.624 47.263,24.699 C50.461,28.462 51.977,33.176 51.977,37.098 L51.977,37.098 Z" id="Shape" fill="#000000"></path>
    </g>
</svg>