<?xml version="1.0" encoding="UTF-8" standalone="no"?>
<svg width="64px" height="64px" viewBox="0 0 64 64" version="1.1" xmlns="http://www.w3.org/2000/svg" xmlns:xlink="http://www.w3.org/1999/xlink">
    <!-- Generator: Sketch 3.7.2 (28276) - http://www.bohemiancoding.com/sketch -->
    <title>tra-speed-camera</title>
    <desc>Created with Sketch.</desc>
    <defs></defs>
    <g id="64px-Line" stroke="none" stroke-width="1" fill="none" fill-rule="evenodd">
        <g id="tra-speed-camera"></g>
        <path d="M35,8 L9,8 C6.243,8 4,10.243 4,13 L4,53 C4,55.757 6.243,58 9,58 L35,58 C37.757,58 40,55.757 40,53 L40,13 C40,10.243 37.757,8 35,8 L35,8 Z M38,53 C38,54.654 36.654,56 35,56 L9,56 C7.346,56 6,54.654 6,53 L6,13 C6,11.346 7.346,10 9,10 L35,10 C36.654,10 38,11.346 38,13 L38,53 L38,53 Z" id="Shape" fill="#000000"></path>
        <path d="M42,19 L42,41 C42,41.553 42.448,42 43,42 C43.552,42 44,41.553 44,41 L44,19 C44,18.447 43.552,18 43,18 C42.448,18 42,18.447 42,19 L42,19 Z" id="Shape" fill="#000000"></path>
        <path d="M47,42 C47.552,42 48,41.553 48,41 L48,21 C48,20.447 47.552,20 47,20 C46.448,20 46,20.447 46,21 L46,41 C46,41.553 46.448,42 47,42 L47,42 Z" id="Shape" fill="#000000"></path>
        <path d="M59,26 L52,26 L52,23 C52,22.447 51.552,22 51,22 C50.448,22 50,22.447 50,23 L50,44 L43,44 C42.448,44 42,44.447 42,45 C42,45.553 42.448,46 43,46 L51,46 C51.552,46 52,45.553 52,45 L52,38 L59,38 C59.552,38 60,37.553 60,37 L60,27 C60,26.447 59.552,26 59,26 L59,26 Z M58,36 L52,36 L52,28 L58,28 L58,36 L58,36 Z" id="Shape" fill="#000000"></path>
        <path d="M18,36 C13.589,36 10,39.589 10,44 C10,48.411 13.589,52 18,52 C22.411,52 26,48.411 26,44 C26,39.589 22.411,36 18,36 L18,36 Z M18,50 C14.691,50 12,47.309 12,44 C12,40.691 14.691,38 18,38 C21.309,38 24,40.691 24,44 C24,47.309 21.309,50 18,50 L18,50 Z" id="Shape" fill="#000000"></path>
        <path d="M28,14 C24.691,14 22,16.691 22,20 C22,23.309 24.691,26 28,26 C31.309,26 34,23.309 34,20 C34,16.691 31.309,14 28,14 L28,14 Z M28,24 C25.794,24 24,22.206 24,20 C24,17.794 25.794,16 28,16 C30.206,16 32,17.794 32,20 C32,22.206 30.206,24 28,24 L28,24 Z" id="Shape" fill="#000000"></path>
    </g>
</svg>