<?xml version="1.0" encoding="UTF-8" standalone="no"?>
<svg width="64px" height="64px" viewBox="0 0 64 64" version="1.1" xmlns="http://www.w3.org/2000/svg" xmlns:xlink="http://www.w3.org/1999/xlink">
    <!-- Generator: Sketch 3.7.2 (28276) - http://www.bohemiancoding.com/sketch -->
    <title>tra-route</title>
    <desc>Created with Sketch.</desc>
    <defs></defs>
    <g id="64px-Line" stroke="none" stroke-width="1" fill="none" fill-rule="evenodd">
        <g id="tra-route"></g>
        <path d="M7.851,47.444 C10.745,53.28 17.672,54.459 23.238,55.405 C28.05,56.224 31,56.835 31,58.999 C31,59.551 31.448,59.999 32,59.999 C32.552,59.999 33,59.551 33,58.999 C33,56.835 35.95,56.224 40.762,55.405 C46.328,54.458 53.255,53.28 56.149,47.444 C59.796,40.089 57.266,33.94 55.419,29.451 C54.679,27.652 54.04,26.099 54.04,25 C54.04,21.065 55.907,17.506 55.926,17.47 C56.133,17.081 56.061,16.603 55.75,16.292 L49.739,10.292 C49.457,10.011 49.033,9.924 48.666,10.07 C45.573,11.29 43.277,11.908 41.84,11.908 C36.856,11.908 34.813,9.435 32.835,6.448 C32.464,5.889 31.538,5.889 31.167,6.448 C29.189,9.435 27.146,11.908 22.162,11.908 C20.725,11.908 18.429,11.29 15.336,10.07 C14.966,9.924 14.545,10.011 14.263,10.292 L8.252,16.292 C7.941,16.603 7.87,17.082 8.076,17.47 C8.095,17.506 9.962,21.065 9.962,25 C9.962,26.099 9.323,27.652 8.583,29.451 C6.734,33.94 4.204,40.089 7.851,47.444 L7.851,47.444 Z M15.213,12.168 C18.276,13.338 20.553,13.908 22.161,13.908 C27.373,13.908 29.999,11.511 32,8.761 C34,11.511 36.626,13.908 41.839,13.908 C43.446,13.908 45.724,13.338 48.787,12.168 L53.834,17.206 C53.296,18.392 52.28,21.001 52.082,24 L11.919,24 C11.721,21 10.705,18.392 10.167,17.206 L15.213,12.168 L15.213,12.168 Z M10.431,30.212 C11.075,28.647 11.645,27.251 11.863,26 L52.139,26 C52.357,27.251 52.927,28.647 53.571,30.212 C55.367,34.578 57.603,40.012 54.359,46.556 C51.918,51.48 45.814,52.518 40.429,53.434 C36.951,54.026 33.612,54.594 32.002,56.33 C30.392,54.594 27.053,54.026 23.575,53.434 C18.19,52.518 12.086,51.48 9.645,46.556 C6.398,40.012 8.634,34.578 10.431,30.212 L10.431,30.212 Z" id="Shape" fill="#000000"></path>
    </g>
</svg>