<?xml version="1.0" encoding="UTF-8" standalone="no"?>
<svg width="64px" height="64px" viewBox="0 0 64 64" version="1.1" xmlns="http://www.w3.org/2000/svg" xmlns:xlink="http://www.w3.org/1999/xlink">
    <!-- Generator: Sketch 3.7.2 (28276) - http://www.bohemiancoding.com/sketch -->
    <title>tra-drive</title>
    <desc>Created with Sketch.</desc>
    <defs></defs>
    <g id="64px-Line" stroke="none" stroke-width="1" fill="none" fill-rule="evenodd">
        <g id="tra-drive"></g>
        <path d="M53.441,7.798 L49.988,6.103 C49.745,5.983 49.466,5.968 49.211,6.058 C48.957,6.149 48.75,6.338 48.638,6.584 L45.244,14 L35.899,14 C35.434,11.721 33.415,10 31,10 C28.585,10 26.566,11.721 26.101,14 L17.671,14 L19.909,9.111 C20.135,8.619 19.927,8.036 19.441,7.798 L15.988,6.103 C15.746,5.983 15.465,5.968 15.211,6.058 C14.957,6.149 14.75,6.338 14.638,6.584 L8.091,20.889 C7.865,21.381 8.073,21.964 8.559,22.202 L12.012,23.897 C12.151,23.965 12.302,24 12.453,24 C12.566,24 12.68,23.98 12.789,23.942 C13.043,23.851 13.25,23.662 13.362,23.416 L16.756,16 L26.101,16 C26.5,17.956 28.044,19.5 30,19.899 L30,46.101 C28.044,46.5 26.5,48.044 26.101,50 L18,50 L18,43 C18,42.447 17.552,42 17,42 L13,42 C12.448,42 12,42.447 12,43 L12,59 C12,59.553 12.448,60 13,60 L17,60 C17.552,60 18,59.553 18,59 L18,52 L26.101,52 C26.566,54.279 28.585,56 31,56 C33.415,56 35.434,54.279 35.899,52 L44,52 L44,59 C44,59.553 44.448,60 45,60 L49,60 C49.552,60 50,59.553 50,59 L50,43 C50,42.447 49.552,42 49,42 L45,42 C44.448,42 44,42.447 44,43 L44,50 L35.899,50 C35.5,48.044 33.956,46.5 32,46.101 L32,19.899 C33.956,19.5 35.5,17.956 35.899,16 L44.329,16 L42.091,20.889 C41.865,21.381 42.073,21.964 42.559,22.202 L46.012,23.897 C46.151,23.965 46.302,24 46.453,24 C46.566,24 46.68,23.98 46.789,23.942 C47.043,23.851 47.25,23.662 47.362,23.416 L53.909,9.111 C54.135,8.619 53.927,8.036 53.441,7.798 L53.441,7.798 Z M11.971,21.649 L10.314,20.836 L16.028,8.351 L17.685,9.164 L11.971,21.649 L11.971,21.649 Z M16,58 L14,58 L14,44 L16,44 L16,58 L16,58 Z M46,44 L48,44 L48,58 L46,58 L46,44 L46,44 Z M34,51 C34,52.654 32.654,54 31,54 C29.346,54 28,52.654 28,51 C28,49.346 29.346,48 31,48 C32.654,48 34,49.346 34,51 L34,51 Z M31,18 C29.346,18 28,16.654 28,15 C28,13.346 29.346,12 31,12 C32.654,12 34,13.346 34,15 C34,16.654 32.654,18 31,18 L31,18 Z M45.971,21.649 L44.314,20.836 L50.028,8.351 L51.685,9.164 L45.971,21.649 L45.971,21.649 Z" id="Shape" fill="#000000"></path>
    </g>
</svg>