<?xml version="1.0" encoding="UTF-8" standalone="no"?>
<svg width="64px" height="64px" viewBox="0 0 64 64" version="1.1" xmlns="http://www.w3.org/2000/svg" xmlns:xlink="http://www.w3.org/1999/xlink">
    <!-- Generator: Sketch 3.7.2 (28276) - http://www.bohemiancoding.com/sketch -->
    <title>tra-foglights-dipped</title>
    <desc>Created with Sketch.</desc>
    <defs></defs>
    <g id="64px-Line" stroke="none" stroke-width="1" fill="none" fill-rule="evenodd">
        <g id="tra-foglights-dipped"></g>
        <path d="M36.96,50 L39,50 C44.203,50 49.06,47.938 52.673,44.193 C56.285,40.45 58.173,35.519 57.987,30.308 C57.629,20.213 48.917,12 38.568,12 L36.96,12 C35.315,12 33.86,12.979 33.254,14.493 C32.039,17.526 30,23.704 30,31 C30,38.296 32.039,44.474 33.254,47.506 C33.86,49.021 35.315,50 36.96,50 L36.96,50 Z M35.111,15.237 C35.412,14.486 36.137,14 36.96,14 L38.568,14 C47.853,14 55.668,21.348 55.989,30.379 C56.154,35.042 54.466,39.454 51.234,42.803 C48,46.155 43.655,48 39,48 L36.96,48 C36.138,48 35.412,47.515 35.111,46.763 C33.949,43.864 32,37.96 32,31 C32,24.04 33.949,18.136 35.111,15.237 L35.111,15.237 Z" id="Shape" fill="#000000"></path>
        <path d="M5.001,42 C5.151,42 5.304,41.966 5.447,41.895 L12.052,38.592 C12.546,38.345 12.746,37.744 12.499,37.25 C12.251,36.756 11.651,36.555 11.157,36.803 L4.552,40.106 C4.058,40.353 3.858,40.954 4.105,41.448 C4.281,41.798 4.634,42 5.001,42 L5.001,42 Z" id="Shape" fill="#000000"></path>
        <path d="M25.895,30.553 C25.648,30.059 25.047,29.859 24.553,30.106 L20.365,32.2 C19.871,32.447 19.671,33.048 19.918,33.542 C20.094,33.893 20.446,34.095 20.814,34.095 C20.964,34.095 21.117,34.061 21.26,33.99 L25.448,31.896 C25.941,31.647 26.142,31.047 25.895,30.553 L25.895,30.553 Z" id="Shape" fill="#000000"></path>
        <path d="M5.001,32 C5.151,32 5.304,31.966 5.447,31.895 L10.133,29.552 C10.627,29.305 10.827,28.704 10.58,28.21 C10.332,27.716 9.733,27.516 9.238,27.763 L4.552,30.106 C4.058,30.353 3.858,30.954 4.105,31.448 C4.281,31.798 4.634,32 5.001,32 L5.001,32 Z" id="Shape" fill="#000000"></path>
        <path d="M16.105,25.447 C16.281,25.798 16.633,26 17.001,26 C17.151,26 17.304,25.966 17.447,25.895 L25.447,21.895 C25.941,21.648 26.141,21.047 25.894,20.553 C25.647,20.059 25.046,19.859 24.552,20.106 L16.552,24.106 C16.059,24.353 15.858,24.953 16.105,25.447 L16.105,25.447 Z" id="Shape" fill="#000000"></path>
        <path d="M5.001,52 C5.151,52 5.304,51.966 5.447,51.895 L10.14,49.548 C10.634,49.301 10.834,48.7 10.587,48.206 C10.339,47.712 9.738,47.512 9.245,47.759 L4.552,50.106 C4.058,50.353 3.858,50.954 4.105,51.448 C4.281,51.798 4.634,52 5.001,52 L5.001,52 Z" id="Shape" fill="#000000"></path>
        <path d="M24.553,40.105 L16.553,44.105 C16.059,44.352 15.859,44.953 16.106,45.447 C16.282,45.798 16.634,46 17.002,46 C17.152,46 17.305,45.966 17.448,45.895 L25.448,41.895 C25.942,41.648 26.142,41.047 25.895,40.553 C25.648,40.059 25.047,39.859 24.553,40.105 L24.553,40.105 Z" id="Shape" fill="#000000"></path>
        <path d="M16,35 C16,36.659 15.108,38.015 14.164,39.451 C13.101,41.069 12,42.743 12,45 C12,47.312 13.159,49.062 14.182,50.607 C15.117,52.02 16,53.353 16,55 C16,55.552 16.447,56 17,56 C17.553,56 18,55.552 18,55 C18,52.751 16.907,51.1 15.85,49.503 C14.898,48.066 14,46.709 14,45 C14,43.341 14.892,41.985 15.836,40.549 C16.899,38.931 18,37.257 18,35 C18,32.706 16.855,31.001 15.846,29.497 C14.896,28.083 14,26.748 14,25 C14,23.365 14.875,22.053 15.801,20.665 C16.832,19.118 18,17.366 18,15 C18,14.448 17.553,14 17,14 C16.447,14 16,14.448 16,15 C16,16.76 15.095,18.118 14.137,19.555 C13.086,21.13 12,22.759 12,25 C12,27.357 13.161,29.086 14.186,30.612 C15.118,32.002 16,33.315 16,35 L16,35 Z" id="Shape" fill="#000000"></path>
    </g>
</svg>