<?xml version="1.0" encoding="UTF-8" standalone="no"?>
<svg width="64px" height="64px" viewBox="0 0 64 64" version="1.1" xmlns="http://www.w3.org/2000/svg" xmlns:xlink="http://www.w3.org/1999/xlink">
    <!-- Generator: Sketch 3.7.2 (28276) - http://www.bohemiancoding.com/sketch -->
    <title>tra-petrol-pump</title>
    <desc>Created with Sketch.</desc>
    <defs></defs>
    <g id="64px-Line" stroke="none" stroke-width="1" fill="none" fill-rule="evenodd">
        <g id="tra-petrol-pump"></g>
        <path d="M15,26 L35,26 C35.553,26 36,25.553 36,25 L36,11 C36,10.447 35.553,10 35,10 L15,10 C14.447,10 14,10.447 14,11 L14,25 C14,25.553 14.447,26 15,26 L15,26 Z M16,12 L34,12 L34,24 L16,24 L16,12 L16,12 Z" id="Shape" fill="#000000"></path>
        <path d="M51,52 C53.757,52 56,49.757 56,47 L56,29 C56,28.447 55.553,28 55,28 C54.447,28 54,28.447 54,29 L54,47 C54,48.654 52.654,50 51,50 C49.346,50 48,48.654 48,47 L48,35 C48,32.243 45.757,30 43,30 L40,30 L40,10 C40,7.794 38.206,6 36,6 L14,6 C11.794,6 10,7.794 10,10 L10,52.184 C8.839,52.598 8,53.698 8,55 L8,59 C8,59.553 8.447,60 9,60 L41,60 C41.553,60 42,59.553 42,59 L42,55 C42,53.698 41.161,52.598 40,52.184 L40,32 L43,32 C44.654,32 46,33.346 46,35 L46,47 C46,49.757 48.243,52 51,52 L51,52 Z M14,8 L36,8 C37.103,8 38,8.897 38,10 L38,52 L12,52 L12,10 C12,8.897 12.897,8 14,8 L14,8 Z M40,58 L10,58 L10,55 C10,54.448 10.448,54 11,54 L39,54 C39.552,54 40,54.448 40,55 L40,58 L40,58 Z" id="Shape" fill="#000000"></path>
        <path d="M56,20 C56,13.664 51.79,10.346 51.61,10.208 C51.172,9.869 50.545,9.951 50.208,10.39 C49.871,10.828 49.952,11.455 50.39,11.792 C50.421,11.816 53.109,13.94 53.824,18 L52,18 C50.897,18 50,18.897 50,20 L50,24 C50,25.103 50.897,26 52,26 L54,26 C55.103,26 56,25.103 56,24 L56,20 L56,20 Z M52,24 L52,20 L54,20 L54.002,24 L52,24 L52,24 Z" id="Shape" fill="#000000"></path>
    </g>
</svg>