<?xml version="1.0" encoding="UTF-8" standalone="no"?>
<svg width="64px" height="64px" viewBox="0 0 64 64" version="1.1" xmlns="http://www.w3.org/2000/svg" xmlns:xlink="http://www.w3.org/1999/xlink">
    <!-- Generator: Sketch 3.7.2 (28276) - http://www.bohemiancoding.com/sketch -->
    <title>tra-engine</title>
    <desc>Created with Sketch.</desc>
    <defs></defs>
    <g id="64px-Line" stroke="none" stroke-width="1" fill="none" fill-rule="evenodd">
        <g id="tra-engine"></g>
        <path d="M57,24 L53,24 C52.448,24 52,24.448 52,25 L52,28 L50.354,28 C49.943,28 49.578,27.753 49.426,27.371 L46.432,19.886 C45.973,18.74 44.88,18 43.646,18 L30,18 L30,16 L39,16 C39.552,16 40,15.552 40,15 C40,14.448 39.552,14 39,14 L19,14 C18.448,14 18,14.448 18,15 C18,15.552 18.448,16 19,16 L28,16 L28,18 L20.07,18 C19.065,18 18.132,18.5 17.574,19.336 L14.762,23.555 C14.576,23.833 14.265,24 13.93,24 L9,24 C8.448,24 8,24.448 8,25 L8,34 L6,34 L6,25 C6,24.448 5.552,24 5,24 C4.448,24 4,24.448 4,25 L4,45 C4,45.552 4.448,46 5,46 C5.552,46 6,45.552 6,45 L6,36 L8,36 L8,45 C8,45.552 8.448,46 9,46 L13.93,46 C14.265,46 14.576,46.167 14.762,46.445 L17.574,50.664 C18.132,51.5 19.065,52 20.07,52 L43.646,52 C44.88,52 45.973,51.26 46.432,50.114 L49.426,42.629 C49.578,42.247 49.943,42 50.354,42 L52,42 L52,45 C52,45.552 52.448,46 53,46 L57,46 C57.552,46 58,45.552 58,45 L58,25 C58,24.448 57.552,24 57,24 L57,24 Z M56,44 L54,44 L54,41 C54,40.448 53.552,40 53,40 L50.354,40 C49.12,40 48.027,40.74 47.568,41.886 L44.574,49.371 C44.422,49.753 44.057,50 43.646,50 L20.07,50 C19.735,50 19.424,49.833 19.238,49.555 L16.426,45.336 C15.868,44.5 14.935,44 13.93,44 L10,44 L10,26 L13.93,26 C14.935,26 15.868,25.5 16.426,24.664 L19.238,20.445 C19.424,20.166 19.735,20 20.07,20 L43.646,20 C44.057,20 44.422,20.247 44.574,20.629 L47.568,28.114 C48.027,29.26 49.12,30 50.354,30 L53,30 C53.552,30 54,29.552 54,29 L54,26 L56,26 L56,44 L56,44 Z" id="Shape" fill="#000000"></path>
    </g>
</svg>