<?xml version="1.0" encoding="UTF-8" standalone="no"?>
<svg width="64px" height="64px" viewBox="0 0 64 64" version="1.1" xmlns="http://www.w3.org/2000/svg" xmlns:xlink="http://www.w3.org/1999/xlink">
    <!-- Generator: Sketch 3.7.2 (28276) - http://www.bohemiancoding.com/sketch -->
    <title>tra-electric-pump</title>
    <desc>Created with Sketch.</desc>
    <defs></defs>
    <g id="64px-Line" stroke="none" stroke-width="1" fill="none" fill-rule="evenodd">
        <g id="tra-electric-pump"></g>
        <path d="M13,26 L33,26 C33.552,26 34,25.553 34,25 L34,11 C34,10.447 33.552,10 33,10 L13,10 C12.448,10 12,10.447 12,11 L12,25 C12,25.553 12.448,26 13,26 L13,26 Z M14,12 L32,12 L32,24 L14,24 L14,12 L14,12 Z" id="Shape" fill="#000000"></path>
        <path d="M25,38 L22.618,38 L25.894,31.447 C26.141,30.953 25.941,30.352 25.447,30.105 C24.952,29.859 24.352,30.058 24.105,30.552 L20.105,38.552 C19.95,38.862 19.967,39.23 20.149,39.525 C20.331,39.82 20.653,40 21,40 L23.382,40 L20.106,46.553 C19.859,47.047 20.059,47.648 20.553,47.895 C20.697,47.966 20.849,48 20.999,48 C21.366,48 21.719,47.798 21.895,47.447 L25.895,39.447 C26.05,39.137 26.033,38.769 25.851,38.474 C25.669,38.179 25.347,38 25,38 L25,38 Z" id="Shape" fill="#000000"></path>
        <path d="M57,18 L56,18 L56,15 C56,14.447 55.552,14 55,14 C54.448,14 54,14.447 54,15 L54,18 L52,18 L52,15 C52,14.447 51.552,14 51,14 C50.448,14 50,14.447 50,15 L50,18 L49,18 C48.448,18 48,18.447 48,19 L48,21 C48,23.415 49.721,25.434 52,25.899 L52,47 C52,48.654 50.654,50 49,50 C47.346,50 46,48.654 46,47 L46,35 C46,32.243 43.757,30 41,30 L38,30 L38,10 C38,7.794 36.206,6 34,6 L12,6 C9.794,6 8,7.794 8,10 L8,52.184 C6.839,52.598 6,53.698 6,55 L6,59 C6,59.553 6.448,60 7,60 L39,60 C39.552,60 40,59.553 40,59 L40,55 C40,53.698 39.161,52.598 38,52.184 L38,32 L41,32 C42.654,32 44,33.346 44,35 L44,47 C44,49.757 46.243,52 49,52 C51.757,52 54,49.757 54,47 L54,25.899 C56.279,25.434 58,23.415 58,21 L58,19 C58,18.447 57.552,18 57,18 L57,18 Z M12,8 L34,8 C35.103,8 36,8.897 36,10 L36,52 L10,52 L10,10 C10,8.897 10.897,8 12,8 L12,8 Z M38,58 L8,58 L8,55 C8,54.448 8.449,54 9,54 L37,54 C37.551,54 38,54.448 38,55 L38,58 L38,58 Z M56,21 C56,22.654 54.654,24 53,24 C51.346,24 50,22.654 50,21 L50,20 L56,20 L56,21 L56,21 Z" id="Shape" fill="#000000"></path>
    </g>
</svg>