<?xml version="1.0" encoding="UTF-8" standalone="no"?>
<svg width="64px" height="64px" viewBox="0 0 64 64" version="1.1" xmlns="http://www.w3.org/2000/svg" xmlns:xlink="http://www.w3.org/1999/xlink">
    <!-- Generator: Sketch 3.7.2 (28276) - http://www.bohemiancoding.com/sketch -->
    <title>tra-l-plate</title>
    <desc>Created with Sketch.</desc>
    <defs></defs>
    <g id="64px-Line" stroke="none" stroke-width="1" fill="none" fill-rule="evenodd">
        <g id="tra-l-plate"></g>
        <path d="M9,8 C7.346,8 6,9.346 6,11 L6,55 C6,56.654 7.346,58 9,58 L53,58 C54.654,58 56,56.654 56,55 L56,11 C56,9.346 54.654,8 53,8 L9,8 L9,8 Z M54,11 L54,55 C54,55.551 53.551,56 53,56 L9,56 C8.449,56 8,55.551 8,55 L8,11 C8,10.449 8.449,10 9,10 L53,10 C53.551,10 54,10.449 54,11 L54,11 Z" id="Shape" fill="#000000"></path>
        <path d="M43,40 L26,40 L26,19 C26,18.448 25.552,18 25,18 L19,18 C18.448,18 18,18.448 18,19 L18,47 C18,47.552 18.448,48 19,48 L43,48 C43.552,48 44,47.552 44,47 L44,41 C44,40.448 43.552,40 43,40 L43,40 Z M42,46 L20,46 L20,20 L24,20 L24,41 C24,41.552 24.448,42 25,42 L42,42 L42,46 L42,46 Z" id="Shape" fill="#000000"></path>
    </g>
</svg>