<?xml version="1.0" encoding="UTF-8" standalone="no"?>
<svg width="64px" height="64px" viewBox="0 0 64 64" version="1.1" xmlns="http://www.w3.org/2000/svg" xmlns:xlink="http://www.w3.org/1999/xlink">
    <!-- Generator: Sketch 3.7.2 (28276) - http://www.bohemiancoding.com/sketch -->
    <title>tra-road</title>
    <desc>Created with Sketch.</desc>
    <defs></defs>
    <g id="64px-Line" stroke="none" stroke-width="1" fill="none" fill-rule="evenodd">
        <g id="tra-road"></g>
        <path d="M4.519,53.876 C4.671,53.96 4.836,54 4.999,54 C5.352,54 5.694,53.813 5.876,53.482 L27.876,13.482 C28.143,12.998 27.966,12.39 27.481,12.124 C27,11.856 26.389,12.034 26.124,12.518 L4.124,52.518 C3.857,53.002 4.034,53.61 4.519,53.876 L4.519,53.876 Z" id="Shape" fill="#000000"></path>
        <path d="M57.001,54 C57.164,54 57.329,53.96 57.481,53.876 C57.965,53.61 58.142,53.002 57.876,52.518 L35.876,12.518 C35.61,12.034 35,11.856 34.519,12.124 C34.035,12.39 33.858,12.998 34.124,13.482 L56.124,53.482 C56.306,53.813 56.648,54 57.001,54 L57.001,54 Z" id="Shape" fill="#000000"></path>
        <path d="M31,52 C31.553,52 32,51.552 32,51 L32,41 C32,40.448 31.553,40 31,40 C30.447,40 30,40.448 30,41 L30,51 C30,51.552 30.447,52 31,52 L31,52 Z" id="Shape" fill="#000000"></path>
        <path d="M31,36 C31.553,36 32,35.552 32,35 L32,29 C32,28.448 31.553,28 31,28 C30.447,28 30,28.448 30,29 L30,35 C30,35.552 30.447,36 31,36 L31,36 Z" id="Shape" fill="#000000"></path>
        <path d="M31,25 C31.553,25 32,24.552 32,24 L32,21 C32,20.448 31.553,20 31,20 C30.447,20 30,20.448 30,21 L30,24 C30,24.552 30.447,25 31,25 L31,25 Z" id="Shape" fill="#000000"></path>
        <path d="M31,18 C31.553,18 32,17.552 32,17 L32,16 C32,15.448 31.553,15 31,15 C30.447,15 30,15.448 30,16 L30,17 C30,17.552 30.447,18 31,18 L31,18 Z" id="Shape" fill="#000000"></path>
    </g>
</svg>