<?xml version="1.0" encoding="UTF-8" standalone="no"?>
<svg width="64px" height="64px" viewBox="0 0 64 64" version="1.1" xmlns="http://www.w3.org/2000/svg" xmlns:xlink="http://www.w3.org/1999/xlink">
    <!-- Generator: Sketch 3.7.2 (28276) - http://www.bohemiancoding.com/sketch -->
    <title>tra-seatbelt</title>
    <desc>Created with Sketch.</desc>
    <defs></defs>
    <g id="64px-Line" stroke="none" stroke-width="1" fill="none" fill-rule="evenodd">
        <g id="tra-seatbelt"></g>
        <path d="M38,13 C38,9.14 34.86,6 31,6 C27.14,6 24,9.14 24,13 C24,16.86 27.14,20 31,20 C34.86,20 38,16.86 38,13 L38,13 Z M31,18 C28.243,18 26,15.757 26,13 C26,10.243 28.243,8 31,8 C33.757,8 36,10.243 36,13 C36,15.757 33.757,18 31,18 L31,18 Z" id="Shape" fill="#000000"></path>
        <path d="M18,25.196 L18,42.687 L8.616,50.031 C8.485,50.132 8.403,50.197 8.372,50.222 C7.944,50.567 7.875,51.192 8.217,51.622 C8.415,51.871 8.706,52 9,52 C9.216,52 9.433,51.931 9.616,51.788 L9.738,51.693 C10.371,51.205 13.685,48.749 18.451,46.741 C19.828,53.031 23.961,59.248 24.171,59.559 C24.452,59.977 24.999,60.12 25.448,59.895 L29.448,57.895 C29.907,57.665 30.118,57.124 29.935,56.644 C28.957,54.08 26.577,47.42 26.124,44.451 C27.696,44.175 29.324,44 31,44 C32.657,44 34.314,44.161 35.939,44.431 C35.535,49.041 32.128,56.502 32.091,56.582 C31.866,57.072 32.07,57.653 32.552,57.894 L36.552,59.894 C36.696,59.966 36.849,60 37,60 C37.325,60 37.642,59.841 37.833,59.555 C38.045,59.236 42.269,52.824 43.595,46.494 C49.821,48.768 54.371,51.782 54.443,51.831 C54.902,52.139 55.523,52.017 55.83,51.558 C56.138,51.1 56.016,50.478 55.558,50.171 C55.246,49.961 50.467,46.792 43.922,44.463 C43.97,43.969 44,43.48 44,43 L44,25.196 C44,25.095 43.983,24.997 43.975,24.898 L55.616,15.788 C56.051,15.448 56.128,14.819 55.787,14.384 C55.446,13.949 54.816,13.873 54.383,14.213 L43.271,22.91 C42.751,22.164 41.988,21.592 41.07,21.343 C38.819,20.73 35.245,20 31,20 C26.755,20 23.181,20.73 20.929,21.342 C19.205,21.811 18,23.396 18,25.196 L18,25.196 Z M27.747,56.509 L25.359,57.703 C24.214,55.853 21.315,50.83 20.335,46.007 C21.544,45.569 22.825,45.178 24.165,44.856 C24.703,48.137 26.881,54.182 27.747,56.509 L27.747,56.509 Z M36.638,57.701 L34.301,56.533 C35.23,54.388 37.485,48.849 37.906,44.814 C39.204,45.103 40.472,45.452 41.691,45.842 C40.738,50.677 37.794,55.818 36.638,57.701 L36.638,57.701 Z M42,43 C42,43.266 41.983,43.538 41.965,43.811 C38.569,42.757 34.806,42 31,42 C27.014,42 23.284,42.833 20.041,43.964 C20.033,43.855 20.033,43.748 20.027,43.64 L42,26.444 L42,43 L42,43 Z M31,22 C35.024,22 38.412,22.692 40.546,23.272 C41.038,23.406 41.426,23.735 41.683,24.152 L20,41.122 L20,25.197 C20,24.297 20.598,23.506 21.454,23.273 C23.588,22.692 26.976,22 31,22 L31,22 Z" id="Shape" fill="#000000"></path>
    </g>
</svg>