<?xml version="1.0" encoding="UTF-8" standalone="no"?>
<svg width="64px" height="64px" viewBox="0 0 64 64" version="1.1" xmlns="http://www.w3.org/2000/svg" xmlns:xlink="http://www.w3.org/1999/xlink">
    <!-- Generator: Sketch 3.7.2 (28276) - http://www.bohemiancoding.com/sketch -->
    <title>tra-door-lock</title>
    <desc>Created with Sketch.</desc>
    <defs></defs>
    <g id="64px-Line" stroke="none" stroke-width="1" fill="none" fill-rule="evenodd">
        <g id="tra-door-lock"></g>
        <path d="M11,60 L51,60 C52.654,60 54,58.654 54,57 L54,9 C54,7.346 52.654,6 51,6 L27.235,6 C25.486,6 23.894,6.89 22.976,8.379 L9.631,30.066 C8.564,31.8 7.999,33.794 7.999,35.831 L7.999,57 C8,58.654 9.346,60 11,60 L11,60 Z M10,35.83 C10,34.163 10.462,32.533 11.335,31.114 L24.68,9.427 C25.231,8.533 26.186,7.999 27.236,7.999 L51,7.999 C51.552,7.999 52,8.447 52,8.999 L52,56.999 C52,57.551 51.552,57.999 51,57.999 L11,57.999 C10.448,57.999 10,57.551 10,56.999 L10,35.83 L10,35.83 Z" id="Shape" fill="#000000"></path>
        <path d="M19.715,32 L45,32 C46.654,32 48,30.654 48,29 L48,15 C48,13.346 46.654,12 45,12 L28.133,12 C27.084,12 26.098,12.558 25.56,13.456 L17.143,27.485 C16.582,28.42 16.566,29.541 17.099,30.483 C17.637,31.433 18.614,32 19.715,32 L19.715,32 Z M18.857,28.515 L27.274,14.486 C27.454,14.186 27.783,14.001 28.132,14.001 L45,14.001 C45.552,14.001 46,14.449 46,15.001 L46,29.001 C46,29.553 45.552,30.001 45,30.001 L19.715,30.001 C19.182,30.001 18.925,29.65 18.84,29.499 C18.756,29.351 18.591,28.959 18.857,28.515 L18.857,28.515 Z" id="Shape" fill="#000000"></path>
        <path d="M40,38 C36.983,38 34.487,40.614 34.068,44 L19,44 C18.447,44 18,44.447 18,45 L18,49 C18,49.553 18.447,50 19,50 C19.553,50 20,49.553 20,49 L20,46 L24,46 L24,49 C24,49.553 24.447,50 25,50 C25.553,50 26,49.553 26,49 L26,46 L34.068,46 C34.486,49.386 36.983,52 40,52 C43.309,52 46,48.859 46,45 C46,41.141 43.309,38 40,38 L40,38 Z M40,50 C37.794,50 36,47.757 36,45 C36,42.243 37.794,40 40,40 C42.206,40 44,42.243 44,45 C44,47.757 42.206,50 40,50 L40,50 Z" id="Shape" fill="#000000"></path>
    </g>
</svg>