<?xml version="1.0" encoding="UTF-8" standalone="no"?>
<svg width="64px" height="64px" viewBox="0 0 64 64" version="1.1" xmlns="http://www.w3.org/2000/svg" xmlns:xlink="http://www.w3.org/1999/xlink">
    <!-- Generator: Sketch 3.7.2 (28276) - http://www.bohemiancoding.com/sketch -->
    <title>tra-screen-wash</title>
    <desc>Created with Sketch.</desc>
    <defs></defs>
    <g id="64px-Line" stroke="none" stroke-width="1" fill="none" fill-rule="evenodd">
        <g id="tra-screen-wash"></g>
        <path d="M57.508,28.139 C57.084,27.888 46.923,22 31,22 C15.077,22 4.916,27.888 4.492,28.139 C4.05,28.4 3.877,28.953 4.092,29.419 L16.092,55.419 C16.203,55.66 16.405,55.847 16.654,55.939 C16.902,56.031 17.177,56.019 17.419,55.909 C17.482,55.879 23.803,53 31,53 C38.179,53 44.519,55.879 44.581,55.908 C44.717,55.97 44.859,56 44.999,56 C45.377,56 45.739,55.785 45.908,55.419 L57.908,29.419 C58.123,28.953 57.95,28.399 57.508,28.139 L57.508,28.139 Z M44.498,53.702 C42.526,52.914 37.64,51.206 32,51.019 L32,49.53 C32,48.977 31.553,48.53 31,48.53 C30.447,48.53 30,48.977 30,49.53 L30,51.019 C24.36,51.206 19.474,52.915 17.502,53.702 L6.303,29.436 C8.89,28.124 17.623,24.223 30.004,24.019 C30.015,24.562 30.454,24.999 31,24.999 C31.546,24.999 31.985,24.561 31.996,24.019 C44.35,24.224 53.104,28.127 55.696,29.438 L44.498,53.702 L44.498,53.702 Z" id="Shape" fill="#000000"></path>
        <path d="M15.184,17.01 C14.621,16.931 14.136,17.332 14.07,17.88 C14.024,18.253 14.001,18.63 14.001,19 C14.001,19.553 14.448,20 15.001,20 C15.554,20 16.001,19.553 16.001,19 C16.001,18.703 16.02,18.41 16.055,18.124 C16.121,17.575 15.731,17.077 15.184,17.01 L15.184,17.01 Z" id="Shape" fill="#000000"></path>
        <path d="M30.15,13.535 C29.673,12.91 29.113,12.348 28.487,11.866 C28.046,11.527 27.421,11.61 27.085,12.048 C26.748,12.486 26.829,13.113 27.267,13.45 C27.755,13.826 28.19,14.262 28.561,14.748 C28.758,15.006 29.055,15.142 29.357,15.142 C29.568,15.142 29.782,15.076 29.962,14.937 C30.401,14.602 30.485,13.974 30.15,13.535 L30.15,13.535 Z" id="Shape" fill="#000000"></path>
        <path d="M17.431,14.759 C17.804,14.271 18.24,13.833 18.724,13.459 C19.162,13.122 19.243,12.494 18.906,12.057 C18.568,11.619 17.941,11.536 17.504,11.875 C16.88,12.355 16.321,12.918 15.842,13.546 C15.507,13.984 15.591,14.612 16.03,14.947 C16.211,15.086 16.425,15.152 16.635,15.152 C16.937,15.152 17.233,15.017 17.431,14.759 L17.431,14.759 Z" id="Shape" fill="#000000"></path>
        <path d="M21.817,10.078 C21.269,10.149 20.883,10.651 20.955,11.198 C21.02,11.702 21.45,12.069 21.945,12.069 C21.988,12.069 22.031,12.066 22.075,12.06 C22.681,11.982 23.315,11.979 23.912,12.058 C24.459,12.132 24.962,11.745 25.033,11.197 C25.105,10.65 24.72,10.147 24.172,10.076 C23.409,9.976 22.594,9.977 21.817,10.078 L21.817,10.078 Z" id="Shape" fill="#000000"></path>
        <path d="M31,20 C31.553,20 32,19.553 32,19 C32,18.703 32.019,18.41 32.054,18.124 C32.121,17.575 31.732,17.077 31.184,17.01 C31.12,17 31.057,17 31,17.004 C30.943,17.001 30.881,17.001 30.816,17.01 C30.268,17.077 29.878,17.575 29.946,18.124 C29.981,18.41 30,18.703 30,19 C30,19.553 30.447,20 31,20 L31,20 Z" id="Shape" fill="#000000"></path>
        <path d="M33.431,14.759 C33.804,14.271 34.24,13.833 34.724,13.459 C35.162,13.122 35.243,12.494 34.906,12.057 C34.569,11.62 33.941,11.536 33.504,11.875 C32.88,12.355 32.321,12.918 31.842,13.546 C31.507,13.984 31.591,14.612 32.03,14.947 C32.211,15.086 32.425,15.152 32.635,15.152 C32.937,15.152 33.233,15.017 33.431,14.759 L33.431,14.759 Z" id="Shape" fill="#000000"></path>
        <path d="M37.817,10.078 C37.269,10.149 36.883,10.651 36.955,11.198 C37.02,11.702 37.45,12.069 37.945,12.069 C37.988,12.069 38.031,12.066 38.075,12.06 C38.68,11.982 39.315,11.979 39.912,12.058 C40.463,12.132 40.962,11.745 41.033,11.197 C41.105,10.65 40.72,10.147 40.172,10.076 C39.408,9.976 38.593,9.977 37.817,10.078 L37.817,10.078 Z" id="Shape" fill="#000000"></path>
        <path d="M46.15,13.535 C45.673,12.91 45.113,12.348 44.487,11.866 C44.047,11.527 43.42,11.61 43.085,12.048 C42.748,12.486 42.829,13.113 43.267,13.45 C43.755,13.826 44.19,14.262 44.561,14.748 C44.758,15.006 45.055,15.142 45.357,15.142 C45.568,15.142 45.782,15.076 45.962,14.937 C46.401,14.602 46.485,13.974 46.15,13.535 L46.15,13.535 Z" id="Shape" fill="#000000"></path>
        <path d="M47,20 C47.553,20 48,19.553 48,19 C48,18.63 47.977,18.253 47.931,17.88 C47.864,17.332 47.377,16.93 46.817,17.01 C46.269,17.077 45.879,17.575 45.947,18.124 C45.981,18.41 46,18.703 46,19 C46,19.553 46.447,20 47,20 L47,20 Z" id="Shape" fill="#000000"></path>
        <path d="M31,43.06 C30.447,43.06 30,43.507 30,44.06 L30,45.883 C30,46.436 30.447,46.883 31,46.883 C31.553,46.883 32,46.436 32,45.883 L32,44.06 C32,43.507 31.553,43.06 31,43.06 L31,43.06 Z" id="Shape" fill="#000000"></path>
        <path d="M31,26.647 C30.447,26.647 30,27.094 30,27.647 L30,29.47 C30,30.023 30.447,30.47 31,30.47 C31.553,30.47 32,30.023 32,29.47 L32,27.647 C32,27.095 31.553,26.647 31,26.647 L31,26.647 Z" id="Shape" fill="#000000"></path>
        <path d="M31,37.589 C30.447,37.589 30,38.036 30,38.589 L30,40.412 C30,40.965 30.447,41.412 31,41.412 C31.553,41.412 32,40.965 32,40.412 L32,38.589 C32,38.036 31.553,37.589 31,37.589 L31,37.589 Z" id="Shape" fill="#000000"></path>
        <path d="M31,32.118 C30.447,32.118 30,32.565 30,33.118 L30,34.941 C30,35.494 30.447,35.941 31,35.941 C31.553,35.941 32,35.494 32,34.941 L32,33.118 C32,32.565 31.553,32.118 31,32.118 L31,32.118 Z" id="Shape" fill="#000000"></path>
        <path d="M31,54 C30.447,54 30,54.447 30,55 L30,56 C30,56.553 30.447,57 31,57 C31.553,57 32,56.553 32,56 L32,55 C32,54.447 31.553,54 31,54 L31,54 Z" id="Shape" fill="#000000"></path>
    </g>
</svg>