<?xml version="1.0" encoding="UTF-8" standalone="no"?>
<svg width="64px" height="64px" viewBox="0 0 64 64" version="1.1" xmlns="http://www.w3.org/2000/svg" xmlns:xlink="http://www.w3.org/1999/xlink">
    <!-- Generator: Sketch 3.7.2 (28276) - http://www.bohemiancoding.com/sketch -->
    <title>tra-boat-propeller</title>
    <desc>Created with Sketch.</desc>
    <defs></defs>
    <g id="64px-Line" stroke="none" stroke-width="1" fill="none" fill-rule="evenodd">
        <g id="tra-boat-propeller"></g>
        <path d="M31,28 C28.243,28 26,30.243 26,33 C26,35.757 28.243,38 31,38 C33.757,38 36,35.757 36,33 C36,30.243 33.757,28 31,28 L31,28 Z M31,36 C29.346,36 28,34.654 28,33 C28,31.346 29.346,30 31,30 C32.654,30 34,31.346 34,33 C34,34.654 32.654,36 31,36 L31,36 Z" id="Shape" fill="#000000"></path>
        <path d="M50.239,50.162 C51.787,49.747 53.081,48.754 53.883,47.366 L56.383,43.036 C58.631,39.141 61.254,30.837 55.089,27.277 C51.235,25.051 47.727,26.951 44.909,28.478 C41.533,30.306 40.225,30.741 38.82,28.419 C38.753,28.308 38.665,28.219 38.568,28.146 C38.392,27.872 38.205,27.607 38.001,27.355 L38.001,12 C38.001,8.691 35.31,6 32.001,6 L27.001,6 C22.504,6 14.001,7.881 14.001,15 C14.001,19.45 17.4,21.538 20.131,23.216 C23.403,25.226 24.432,26.142 23.125,28.519 C23.064,28.629 23.033,28.747 23.017,28.864 C22.867,29.153 22.734,29.452 22.615,29.759 L9.315,37.438 C6.45,39.092 5.465,42.769 7.119,45.634 L9.619,49.964 C9.684,50.076 11.228,52.728 13.688,54.908 C15.838,56.815 18.023,57.777 20.149,57.777 C21.432,57.777 22.694,57.426 23.914,56.722 C27.768,54.496 27.877,50.509 27.964,47.305 C28.068,43.466 28.347,42.117 31.059,42.062 C31.193,42.059 31.32,42.028 31.436,41.978 C31.758,41.963 32.074,41.931 32.386,41.882 L45.688,49.562 C46.613,50.095 47.639,50.369 48.678,50.369 C49.198,50.369 49.723,50.301 50.239,50.162 L50.239,50.162 Z M31,40 C27.14,40 24,36.859 24,33 C24,29.141 27.14,26 31,26 C34.86,26 38,29.141 38,33 C38,36.859 34.86,40 31,40 L31,40 Z M21.177,21.512 C18.631,19.948 16,18.332 16,15 C16,8.097 26.891,8 27,8 L32,8 C34.206,8 36,9.794 36,12 L36,25.522 C34.569,24.562 32.849,24 31,24 C28.945,24 27.055,24.7 25.539,25.863 C25.027,23.887 22.962,22.608 21.177,21.512 L21.177,21.512 Z M22.912,54.99 C16.933,58.443 11.404,49.058 11.35,48.964 L8.85,44.634 C7.747,42.724 8.404,40.273 10.314,39.17 L22.031,32.405 C22.017,32.603 22,32.799 22,33 C22,36.738 24.291,39.948 27.542,41.307 C26.095,42.739 26.02,45.161 25.963,47.251 C25.881,50.237 25.797,53.324 22.912,54.99 L22.912,54.99 Z M34.97,41.065 C37.945,39.595 40,36.537 40,33 C40,32.606 39.966,32.22 39.916,31.839 C41.882,32.38 44.019,31.233 45.86,30.236 C48.486,28.814 51.201,27.341 54.088,29.009 C60.066,32.46 54.705,41.941 54.65,42.035 L52.15,46.365 C51.047,48.276 48.597,48.932 46.686,47.829 L34.97,41.065 L34.97,41.065 Z" id="Shape" fill="#000000"></path>
        <path d="M47.58,53.054 C47.244,52.615 46.617,52.533 46.178,52.867 C41.79,56.225 36.542,58 31,58 C29.543,58 28.085,57.874 26.667,57.626 C26.123,57.537 25.605,57.895 25.51,58.439 C25.415,58.983 25.779,59.501 26.322,59.596 C27.854,59.864 29.428,60 31,60 C36.985,60 42.653,58.083 47.394,54.455 C47.832,54.119 47.916,53.492 47.58,53.054 L47.58,53.054 Z" id="Shape" fill="#000000"></path>
        <path d="M55.437,25.1 C55.551,25.1 55.666,25.08 55.779,25.039 C56.298,24.851 56.565,24.276 56.376,23.757 C53.8,16.688 48.337,10.97 41.386,8.07 C40.878,7.857 40.291,8.098 40.078,8.608 C39.865,9.118 40.106,9.703 40.616,9.916 C47.052,12.601 52.111,17.895 54.496,24.442 C54.646,24.848 55.029,25.1 55.437,25.1 L55.437,25.1 Z" id="Shape" fill="#000000"></path>
        <path d="M5.211,37.34 C5.253,37.34 5.296,37.337 5.339,37.332 C5.887,37.262 6.274,36.761 6.204,36.213 C6.069,35.154 6,34.074 6,33 C6,27.13 8.074,21.426 11.841,16.938 C12.196,16.515 12.141,15.884 11.718,15.53 C11.295,15.176 10.664,15.228 10.309,15.653 C6.241,20.5 4,26.661 4,33 C4,34.158 4.074,35.325 4.221,36.467 C4.285,36.972 4.715,37.34 5.211,37.34 L5.211,37.34 Z" id="Shape" fill="#000000"></path>
        <path d="M41.504,14.812 C41.026,14.534 40.415,14.699 40.137,15.176 C39.861,15.655 40.024,16.266 40.502,16.542 C43.594,18.331 46.114,20.943 47.789,24.097 C47.969,24.435 48.315,24.627 48.673,24.627 C48.831,24.627 48.992,24.59 49.141,24.51 C49.629,24.251 49.814,23.646 49.555,23.157 C47.705,19.675 44.92,16.789 41.504,14.812 L41.504,14.812 Z" id="Shape" fill="#000000"></path>
        <path d="M11,34 C11.552,34 12,33.553 12,33 C12,29.419 13.001,25.931 14.896,22.912 C15.189,22.444 15.048,21.827 14.581,21.534 C14.114,21.241 13.496,21.382 13.202,21.849 C11.107,25.187 10,29.042 10,33 C10,33.553 10.448,34 11,34 L11,34 Z" id="Shape" fill="#000000"></path>
        <path d="M31,54 C34.692,54 38.324,53.028 41.503,51.188 C41.981,50.912 42.144,50.3 41.868,49.822 C41.591,49.344 40.979,49.179 40.501,49.458 C37.428,51.235 33.855,52.105 30.314,51.988 C29.747,51.952 29.298,52.398 29.278,52.95 C29.258,53.503 29.689,53.967 30.241,53.986 C30.493,53.996 30.746,54 31,54 L31,54 Z" id="Shape" fill="#000000"></path>
    </g>
</svg>