<?xml version="1.0" encoding="UTF-8" standalone="no"?>
<svg width="64px" height="64px" viewBox="0 0 64 64" version="1.1" xmlns="http://www.w3.org/2000/svg" xmlns:xlink="http://www.w3.org/1999/xlink">
    <!-- Generator: Sketch 3.7.2 (28276) - http://www.bohemiancoding.com/sketch -->
    <title>tra-speedo</title>
    <desc>Created with Sketch.</desc>
    <defs></defs>
    <g id="64px-Line" stroke="none" stroke-width="1" fill="none" fill-rule="evenodd">
        <g id="tra-speedo"></g>
        <path d="M50.092,17.908 C50.074,17.89 50.051,17.884 50.032,17.868 C45.147,13.009 38.418,10 31,10 C23.582,10 16.853,13.009 11.968,17.868 C11.949,17.884 11.926,17.89 11.908,17.908 C11.89,17.926 11.884,17.95 11.868,17.968 C7.009,22.853 4,29.582 4,37 C4,44.002 6.67,50.641 11.518,55.692 C11.733,55.917 12.026,56.005 12.313,55.983 C12.341,55.985 12.368,55.999 12.397,55.999 C12.653,55.999 12.909,55.901 13.104,55.706 L16.489,52.321 C16.88,51.93 16.88,51.298 16.489,50.907 C16.098,50.516 15.466,50.516 15.075,50.907 L12.347,53.635 C8.472,49.296 6.253,43.81 6.024,37.999 L9,37.999 C9.553,37.999 10,37.552 10,36.999 C10,36.446 9.553,35.999 9,35.999 L6.025,35.999 C6.268,29.859 8.733,24.283 12.64,20.053 L15.293,22.706 C15.488,22.901 15.744,22.999 16,22.999 C16.256,22.999 16.512,22.901 16.707,22.706 C17.098,22.315 17.098,21.683 16.707,21.292 L14.054,18.639 C18.284,14.732 23.86,12.267 30,12.024 L30,15 C30,15.553 30.447,16 31,16 C31.553,16 32,15.553 32,15 L32,12.025 C38.14,12.268 43.716,14.733 47.946,18.64 L45.293,21.293 C44.902,21.684 44.902,22.316 45.293,22.707 C45.488,22.902 45.744,23 46,23 C46.256,23 46.512,22.902 46.707,22.707 L49.36,20.054 C53.267,24.284 55.732,29.86 55.975,36 L53,36 C52.447,36 52,36.447 52,37 C52,37.553 52.447,38 53,38 L55.976,38 C55.749,43.774 53.558,49.229 49.729,53.554 L47.083,50.908 C46.692,50.517 46.06,50.517 45.669,50.908 C45.278,51.299 45.278,51.931 45.669,52.322 L49.054,55.707 C49.056,55.709 49.06,55.71 49.062,55.713 C49.065,55.716 49.066,55.719 49.068,55.722 C49.131,55.782 49.207,55.817 49.279,55.857 C49.317,55.878 49.349,55.912 49.389,55.928 C49.508,55.976 49.634,56 49.76,56 C49.889,56 50.018,55.974 50.14,55.924 C50.185,55.905 50.221,55.867 50.264,55.842 C50.334,55.8 50.407,55.767 50.467,55.707 C50.47,55.705 50.47,55.701 50.473,55.699 C50.476,55.696 50.479,55.695 50.482,55.693 C55.33,50.642 58,44.003 58,37 C58,29.582 54.991,22.853 50.132,17.968 C50.116,17.95 50.11,17.926 50.092,17.908 L50.092,17.908 Z" id="Shape" fill="#000000"></path>
        <path d="M31,32 C29.983,32 29.038,32.309 28.247,32.833 L20.707,25.293 C20.316,24.902 19.684,24.902 19.293,25.293 C18.902,25.684 18.902,26.316 19.293,26.707 L26.833,34.247 C26.309,35.038 26,35.983 26,37 C26,39.757 28.243,42 31,42 C33.757,42 36,39.757 36,37 C36,34.243 33.757,32 31,32 L31,32 Z M31,40 C29.346,40 28,38.654 28,37 C28,35.346 29.346,34 31,34 C32.654,34 34,35.346 34,37 C34,38.654 32.654,40 31,40 L31,40 Z" id="Shape" fill="#000000"></path>
    </g>
</svg>