<?xml version="1.0" encoding="UTF-8" standalone="no"?>
<svg width="64px" height="64px" viewBox="0 0 64 64" version="1.1" xmlns="http://www.w3.org/2000/svg" xmlns:xlink="http://www.w3.org/1999/xlink">
    <!-- Generator: Sketch 3.7.2 (28276) - http://www.bohemiancoding.com/sketch -->
    <title>tra-car-lock</title>
    <desc>Created with Sketch.</desc>
    <defs></defs>
    <g id="64px-Line" stroke="none" stroke-width="1" fill="none" fill-rule="evenodd">
        <g id="tra-car-lock"></g>
        <path d="M57,28 L53.141,28 C52.136,28 51.203,27.5 50.645,26.664 L45.02,18.226 C44.091,16.832 42.536,15.999 40.86,15.999 L23.141,15.999 C21.465,15.999 19.91,16.832 18.981,18.226 L13.356,26.664 C12.798,27.5 11.865,28 10.86,28 L7,28 C5.346,28 4,29.346 4,31 L4,41 C4,42.654 5.346,44 7,44 L12.071,44 C12.558,47.388 15.479,50 19,50 C22.521,50 25.442,47.388 25.929,44 L40.072,44 C40.559,47.388 43.48,50 47.001,50 C50.522,50 53.443,47.388 53.93,44 L57,44 C58.654,44 60,42.654 60,41 L60,31 C60,29.346 58.654,28 57,28 L57,28 Z M58,41 C58,41.551 57.551,42 57,42 L53,42 C52.448,42 52,42.448 52,43 C52,45.757 49.757,48 47,48 C44.243,48 42,45.757 42,43 C42,42.448 41.552,42 41,42 L25,42 C24.448,42 24,42.448 24,43 C24,45.757 21.757,48 19,48 C16.243,48 14,45.757 14,43 C14,42.448 13.552,42 13,42 L7,42 C6.449,42 6,41.551 6,41 L6,31 C6,30.449 6.449,30 7,30 L10.859,30 C12.535,30 14.09,29.167 15.019,27.773 L20.644,19.335 C21.202,18.499 22.135,17.999 23.14,17.999 L40.859,17.999 C41.864,17.999 42.797,18.499 43.355,19.335 L48.98,27.773 C49.909,29.167 51.464,30 53.14,30 L57,30 C57.551,30 58,30.449 58,31 L58,41 L58,41 Z" id="Shape" fill="#000000"></path>
        <path d="M39,26 C36.586,26 34.566,27.721 34.101,30 L21,30 C20.448,30 20,30.448 20,31 L20,35 C20,35.552 20.448,36 21,36 C21.552,36 22,35.552 22,35 L22,32 L24,32 L24,35 C24,35.552 24.448,36 25,36 C25.552,36 26,35.552 26,35 L26,32 L34.101,32 C34.566,34.279 36.585,36 39,36 C41.757,36 44,33.757 44,31 C44,28.243 41.757,26 39,26 L39,26 Z M39,34 C37.346,34 36,32.654 36,31 C36,29.346 37.346,28 39,28 C40.654,28 42,29.346 42,31 C42,32.654 40.654,34 39,34 L39,34 Z" id="Shape" fill="#000000"></path>
    </g>
</svg>