<?xml version="1.0" encoding="UTF-8" standalone="no"?>
<svg width="64px" height="64px" viewBox="0 0 64 64" version="1.1" xmlns="http://www.w3.org/2000/svg" xmlns:xlink="http://www.w3.org/1999/xlink">
    <!-- Generator: Sketch 3.7.2 (28276) - http://www.bohemiancoding.com/sketch -->
    <title>tra-plane-propeller</title>
    <desc>Created with Sketch.</desc>
    <defs></defs>
    <g id="64px-Line" stroke="none" stroke-width="1" fill="none" fill-rule="evenodd">
        <g id="tra-plane-propeller"></g>
        <path d="M49.636,9.037 L34.108,24.564 C33.138,24.205 32.094,24 31.001,24 C26.038,24 22.001,28.038 22.001,33 C22.001,33.883 22.134,34.734 22.372,35.541 C19.693,36.05 15.014,37.487 10.951,41.549 C5.948,46.552 2.066,56.077 4.951,58.963 C5.71,59.722 6.506,60.018 7.291,60.018 C9.311,60.018 11.266,58.063 12.365,56.963 L27.893,41.435 C28.863,41.794 29.907,42 31.001,42 C35.964,42 40.001,37.962 40.001,33 C40.001,32.117 39.868,31.266 39.63,30.46 C42.31,29.95 46.989,28.513 51.051,24.451 C56.054,19.448 59.936,9.923 57.051,7.037 C54.34,4.327 51.163,7.51 49.636,9.037 L49.636,9.037 Z M10.95,55.549 C8.21,58.289 7.165,58.348 6.364,57.549 C5.154,56.339 6.636,48.692 12.364,42.963 C16.291,39.037 20.848,37.81 23.174,37.428 C23.871,38.655 24.844,39.705 26.013,40.486 L10.95,55.549 L10.95,55.549 Z M31,40 C27.141,40 24,36.86 24,33 C24,29.14 27.141,26 31,26 C34.859,26 38,29.14 38,33 C38,36.86 34.859,40 31,40 L31,40 Z M49.636,23.037 C45.711,26.962 41.153,28.189 38.826,28.572 C38.129,27.345 37.156,26.295 35.986,25.513 L51.049,10.451 C53.788,7.711 54.834,7.65 55.635,8.451 C56.846,9.661 55.363,17.309 49.636,23.037 L49.636,23.037 Z" id="Shape" fill="#000000"></path>
    </g>
</svg>