<?xml version="1.0" encoding="UTF-8" standalone="no"?>
<svg width="64px" height="64px" viewBox="0 0 64 64" version="1.1" xmlns="http://www.w3.org/2000/svg" xmlns:xlink="http://www.w3.org/1999/xlink">
    <!-- Generator: Sketch 3.7.2 (28276) - http://www.bohemiancoding.com/sketch -->
    <title>typ-indent</title>
    <desc>Created with Sketch.</desc>
    <defs></defs>
    <g id="64px-Glyph" stroke="none" stroke-width="1" fill="none" fill-rule="evenodd">
        <g id="typ-indent" fill="#000000">
            <path d="M57,52 L7,52 C6.447,52 6,51.553 6,51 C6,50.447 6.447,50 7,50 L57,50 C57.553,50 58,50.447 58,51 C58,51.553 57.553,52 57,52" id="Fill-211"></path>
            <path d="M57,32 L7,32 C6.447,32 6,31.553 6,31 C6,30.447 6.447,30 7,30 L57,30 C57.553,30 58,30.447 58,31 C58,31.553 57.553,32 57,32" id="Fill-212"></path>
            <path d="M57,12 L27,12 C26.447,12 26,11.553 26,11 C26,10.447 26.447,10 27,10 L57,10 C57.553,10 58,10.447 58,11 C58,11.553 57.553,12 57,12" id="Fill-213"></path>
            <path d="M41,22 L7,22 C6.447,22 6,21.553 6,21 C6,20.447 6.447,20 7,20 L41,20 C41.553,20 42,20.447 42,21 C42,21.553 41.553,22 41,22" id="Fill-214"></path>
            <path d="M41,42 L7,42 C6.447,42 6,41.553 6,41 C6,40.447 6.447,40 7,40 L41,40 C41.553,40 42,40.447 42,41 C42,41.553 41.553,42 41,42" id="Fill-215"></path>
            <path d="M21,12 L7,12 C6.447,12 6,11.553 6,11 C6,10.447 6.447,10 7,10 L21,10 C21.553,10 22,10.447 22,11 C22,11.553 21.553,12 21,12" id="Fill-216"></path>
            <path d="M15,18 C14.744,18 14.488,17.902 14.293,17.707 C13.902,17.316 13.902,16.684 14.293,16.293 L19.586,11 L14.293,5.707 C13.902,5.316 13.902,4.684 14.293,4.293 C14.684,3.902 15.316,3.902 15.707,4.293 L21.707,10.293 C22.098,10.684 22.098,11.316 21.707,11.707 L15.707,17.707 C15.512,17.902 15.256,18 15,18" id="Fill-217"></path>
        </g>
    </g>
</svg>