<?xml version="1.0" encoding="UTF-8" standalone="no"?>
<svg width="64px" height="64px" viewBox="0 0 64 64" version="1.1" xmlns="http://www.w3.org/2000/svg" xmlns:xlink="http://www.w3.org/1999/xlink">
    <!-- Generator: Sketch 3.7.2 (28276) - http://www.bohemiancoding.com/sketch -->
    <title>typ-path</title>
    <desc>Created with Sketch.</desc>
    <defs></defs>
    <g id="64px-Glyph" stroke="none" stroke-width="1" fill="none" fill-rule="evenodd">
        <g id="typ-path" fill="#000000">
            <path d="M57.707,24.4102 L43.59,10.2932 C43.199,9.9022 42.566,9.9022 42.176,10.2932 L40.058,12.4102 C39.862,12.6052 39.765,12.8612 39.765,13.1172 C39.765,13.3732 39.862,13.6292 40.058,13.8242 C40.448,14.2152 41.081,14.2152 41.472,13.8242 C42.25,13.0462 43.517,13.0482 44.293,13.8242 L48.527,18.0582 L37.94,28.6452 C36.81,29.7782 34.838,29.7762 33.707,28.6452 C33.316,28.2552 32.684,28.2552 32.293,28.6452 C32.098,28.8412 32,29.0962 32,29.3522 C32,29.6082 32.098,29.8642 32.293,30.0592 L37.94,35.7072 C38.136,35.9022 38.392,36.0002 38.647,36.0002 C38.903,36.0002 39.159,35.9022 39.354,35.7072 C39.55,35.5122 39.647,35.2562 39.647,35.0002 C39.647,34.7442 39.55,34.4882 39.354,34.2932 C38.789,33.7272 38.478,32.9752 38.478,32.1762 C38.478,31.3772 38.789,30.6252 39.354,30.0592 L49.941,19.4732 L54.176,23.7072 C54.953,24.4842 54.953,25.7512 54.176,26.5282 C53.98,26.7232 53.883,26.9792 53.883,27.2352 C53.883,27.4912 53.98,27.7472 54.176,27.9422 C54.371,28.1372 54.627,28.2352 54.883,28.2352 C55.139,28.2352 55.394,28.1372 55.59,27.9422 L57.707,25.8242 C58.098,25.4332 58.098,24.8012 57.707,24.4102" id="Fill-107"></path>
            <path d="M57,56 L53.062,56 C50.124,56 47.361,54.855 45.284,52.777 L15.222,22.706 C13.522,21.006 11.262,20.069 8.857,20.069 L5,20.069 C4.447,20.069 4,19.622 4,19.069 C4,18.517 4.447,18.069 5,18.069 L8.857,18.069 C11.796,18.069 14.559,19.214 16.636,21.292 L46.698,51.363 C48.397,53.064 50.658,54 53.062,54 L57,54 C57.553,54 58,54.447 58,55 C58,55.553 57.553,56 57,56" id="Fill-109"></path>
        </g>
    </g>
</svg>