<?xml version="1.0" encoding="UTF-8" standalone="no"?>
<svg width="44px" height="44px" viewBox="0 0 44 44" version="1.1" xmlns="http://www.w3.org/2000/svg" xmlns:xlink="http://www.w3.org/1999/xlink">
    <!-- Generator: Sketch 3.7.2 (28276) - http://www.bohemiancoding.com/sketch -->
    <title>typ-caps-small</title>
    <desc>Created with Sketch.</desc>
    <defs></defs>
    <g id="44px-Line" stroke="none" stroke-width="1" fill="none" fill-rule="evenodd">
        <g id="typ-caps-small"></g>
        <path d="M1,14 C1.552,14 2,13.552 2,13 L2,10 C2,8.897 2.897,8 4,8 L10,8 L10,33 C10,34.654 8.654,36 7,36 C6.448,36 6,36.448 6,37 C6,37.552 6.448,38 7,38 L15,38 C15.552,38 16,37.552 16,37 C16,36.448 15.552,36 15,36 C13.346,36 12,34.654 12,33 L12,8 L18,8 C19.103,8 20,8.897 20,10 L20,13 C20,13.552 20.448,14 21,14 C21.552,14 22,13.552 22,13 L22,7 C22,6.448 21.552,6 21,6 L1,6 C0.448,6 0,6.448 0,7 L0,13 C0,13.552 0.448,14 1,14 L1,14 Z" id="Shape" fill="#000000"></path>
        <path d="M43,16 L27,16 C26.448,16 26,16.448 26,17 L26,23 C26,23.552 26.448,24 27,24 C27.552,24 28,23.552 28,23 L28,20 C28,18.897 28.897,18 30,18 L34,18 L34,33 C34,34.654 32.654,36 31,36 C30.448,36 30,36.448 30,37 C30,37.552 30.448,38 31,38 L39,38 C39.552,38 40,37.552 40,37 C40,36.448 39.552,36 39,36 C37.346,36 36,34.654 36,33 L36,18 L40,18 C41.103,18 42,18.897 42,20 L42,23 C42,23.552 42.448,24 43,24 C43.552,24 44,23.552 44,23 L44,17 C44,16.448 43.552,16 43,16 L43,16 Z" id="Shape" fill="#000000"></path>
    </g>
</svg>