<?xml version="1.0" encoding="UTF-8" standalone="no"?>
<svg width="44px" height="44px" viewBox="0 0 44 44" version="1.1" xmlns="http://www.w3.org/2000/svg" xmlns:xlink="http://www.w3.org/1999/xlink">
    <!-- Generator: Sketch 3.7.2 (28276) - http://www.bohemiancoding.com/sketch -->
    <title>typ-stretch</title>
    <desc>Created with Sketch.</desc>
    <defs></defs>
    <g id="44px-Glyph" stroke="none" stroke-width="1" fill="none" fill-rule="evenodd">
        <g id="typ-stretch" fill="#000000">
            <path d="M31,0 L1,0 C0.447,0 0,0.447 0,1 L0,7 C0,7.553 0.447,8 1,8 C1.553,8 2,7.553 2,7 L2,4 C2,2.898 2.898,2 4,2 L12,2 L12,39 C12,40.654 10.654,42 9,42 C8.447,42 8,42.447 8,43 C8,43.553 8.447,44 9,44 L23,44 C23.553,44 24,43.553 24,43 C24,42.447 23.553,42 23,42 C21.346,42 20,40.654 20,39 L20,2 L28,2 C29.102,2 30,2.898 30,4 L30,7 C30,7.553 30.447,8 31,8 C31.553,8 32,7.553 32,7 L32,1 C32,0.447 31.553,0 31,0" id="Fill-151"></path>
            <path d="M42.293,38.293 L40,40.586 L40,3.414 L42.293,5.707 C42.488,5.902 42.744,6 43,6 C43.256,6 43.512,5.902 43.707,5.707 C44.098,5.316 44.098,4.684 43.707,4.293 L39.707,0.293 C39.316,-0.098 38.684,-0.098 38.293,0.293 L34.293,4.293 C33.902,4.684 33.902,5.316 34.293,5.707 C34.684,6.098 35.316,6.098 35.707,5.707 L38,3.414 L38,40.586 L35.707,38.293 C35.316,37.902 34.684,37.902 34.293,38.293 C33.902,38.684 33.902,39.316 34.293,39.707 L38.292,43.706 C38.384,43.799 38.495,43.872 38.618,43.923 C38.74,43.973 38.87,44 39,44 C39.13,44 39.26,43.973 39.382,43.923 C39.505,43.872 39.616,43.799 39.708,43.706 L43.707,39.707 C44.098,39.316 44.098,38.684 43.707,38.293 C43.316,37.902 42.684,37.902 42.293,38.293" id="Fill-153"></path>
        </g>
    </g>
</svg>