<?xml version="1.0" encoding="UTF-8" standalone="no"?>
<svg width="44px" height="44px" viewBox="0 0 44 44" version="1.1" xmlns="http://www.w3.org/2000/svg" xmlns:xlink="http://www.w3.org/1999/xlink">
    <!-- Generator: Sketch 3.7.2 (28276) - http://www.bohemiancoding.com/sketch -->
    <title>typ-size-increase</title>
    <desc>Created with Sketch.</desc>
    <defs></defs>
    <g id="44px-Glyph" stroke="none" stroke-width="1" fill="none" fill-rule="evenodd">
        <g id="typ-size-increase" fill="#000000">
            <path d="M43.001,12 C42.668,12 42.342,11.834 42.152,11.53 L38,4.887 L33.848,11.53 C33.556,11.998 32.938,12.142 32.47,11.848 C32.002,11.556 31.859,10.939 32.152,10.47 L37.152,2.47 C37.518,1.886 38.482,1.886 38.848,2.47 L43.848,10.47 C44.141,10.939 43.998,11.556 43.53,11.848 C43.365,11.951 43.182,12 43.001,12" id="Fill-207"></path>
            <path d="M11.0829,30 L18.6649,12.957 L26.3489,30 L11.0829,30 Z M42.9999,42 L41.3849,42 L41.3749,42 C40.8009,42 40.2849,41.663 40.0579,41.129 L22.9139,2.594 C22.7529,2.232 22.3959,2 21.9999,2 C21.6049,2 21.2469,2.232 21.0859,2.594 L8.6229,30.609 C8.6219,30.61 8.6219,30.611 8.6209,30.612 L3.9369,41.143 C3.7149,41.663 3.1989,42 2.6249,42 L0.9999,42 C0.4469,42 -0.0001,42.447 -0.0001,43 C-0.0001,43.553 0.4469,44 0.9999,44 L6.9999,44 C7.5529,44 7.9999,43.553 7.9999,43 C7.9999,42.447 7.5529,42 6.9999,42 L5.7399,42 C5.7489,41.98 5.7619,41.962 5.7709,41.941 L10.1929,32 L27.2509,32 L31.7599,42 L29.9999,42 C29.4469,42 28.9999,42.447 28.9999,43 C28.9999,43.553 29.4469,44 29.9999,44 L42.9999,44 C43.5529,44 43.9999,43.553 43.9999,43 C43.9999,42.447 43.5529,42 42.9999,42 L42.9999,42 Z" id="Fill-208"></path>
        </g>
    </g>
</svg>