<?xml version="1.0" encoding="UTF-8" standalone="no"?>
<svg width="44px" height="44px" viewBox="0 0 44 44" version="1.1" xmlns="http://www.w3.org/2000/svg" xmlns:xlink="http://www.w3.org/1999/xlink">
    <!-- Generator: Sketch 3.7.2 (28276) - http://www.bohemiancoding.com/sketch -->
    <title>typ-bullets</title>
    <desc>Created with Sketch.</desc>
    <defs></defs>
    <g id="44px-Line" stroke="none" stroke-width="1" fill="none" fill-rule="evenodd">
        <g id="typ-bullets"></g>
        <path d="M43,38 L13,38 C12.447,38 12,38.447 12,39 C12,39.553 12.447,40 13,40 L43,40 C43.553,40 44,39.553 44,39 C44,38.447 43.553,38 43,38 L43,38 Z" id="Shape" fill="#000000"></path>
        <path d="M43,22 L13,22 C12.447,22 12,22.447 12,23 C12,23.553 12.447,24 13,24 L43,24 C43.553,24 44,23.553 44,23 C44,22.447 43.553,22 43,22 L43,22 Z" id="Shape" fill="#000000"></path>
        <path d="M43,6 L13,6 C12.447,6 12,6.447 12,7 C12,7.553 12.447,8 13,8 L43,8 C43.553,8 44,7.553 44,7 C44,6.447 43.553,6 43,6 L43,6 Z" id="Shape" fill="#000000"></path>
        <path d="M3,4 C1.346,4 0,5.346 0,7 C0,8.654 1.346,10 3,10 C4.654,10 6,8.654 6,7 C6,5.346 4.654,4 3,4 L3,4 Z M3,8 C2.448,8 2,7.552 2,7 C2,6.448 2.448,6 3,6 C3.552,6 4,6.448 4,7 C4,7.552 3.552,8 3,8 L3,8 Z" id="Shape" fill="#000000"></path>
        <path d="M3,20 C1.346,20 0,21.346 0,23 C0,24.654 1.346,26 3,26 C4.654,26 6,24.654 6,23 C6,21.346 4.654,20 3,20 L3,20 Z M3,24 C2.448,24 2,23.552 2,23 C2,22.448 2.448,22 3,22 C3.552,22 4,22.448 4,23 C4,23.552 3.552,24 3,24 L3,24 Z" id="Shape" fill="#000000"></path>
        <path d="M3,36 C1.346,36 0,37.346 0,39 C0,40.654 1.346,42 3,42 C4.654,42 6,40.654 6,39 C6,37.346 4.654,36 3,36 L3,36 Z M3,40 C2.448,40 2,39.552 2,39 C2,38.448 2.448,38 3,38 C3.552,38 4,38.448 4,39 C4,39.552 3.552,40 3,40 L3,40 Z" id="Shape" fill="#000000"></path>
    </g>
</svg>