<?xml version="1.0" encoding="UTF-8" standalone="no"?>
<svg width="64px" height="64px" viewBox="0 0 64 64" version="1.1" xmlns="http://www.w3.org/2000/svg" xmlns:xlink="http://www.w3.org/1999/xlink">
    <!-- Generator: Sketch 3.7.2 (28276) - http://www.bohemiancoding.com/sketch -->
    <title>typ-list</title>
    <desc>Created with Sketch.</desc>
    <defs></defs>
    <g id="64px-Glyph" stroke="none" stroke-width="1" fill="none" fill-rule="evenodd">
        <g id="typ-list" fill="#000000">
            <path d="M17,22 L5,22 C4.447,22 4,21.553 4,21 L4,13 C4,12.447 4.447,12 5,12 L17,12 C17.553,12 18,12.447 18,13 L18,21 C18,21.553 17.553,22 17,22" id="Fill-25"></path>
            <path d="M17,38 L5,38 C4.447,38 4,37.553 4,37 L4,29 C4,28.447 4.447,28 5,28 L17,28 C17.553,28 18,28.447 18,29 L18,37 C18,37.553 17.553,38 17,38" id="Fill-27"></path>
            <path d="M17,54 L5,54 C4.447,54 4,53.553 4,53 L4,45 C4,44.447 4.447,44 5,44 L17,44 C17.553,44 18,44.447 18,45 L18,53 C18,53.553 17.553,54 17,54" id="Fill-29"></path>
            <path d="M59,14 L23,14 C22.447,14 22,13.553 22,13 C22,12.447 22.447,12 23,12 L59,12 C59.553,12 60,12.447 60,13 C60,13.553 59.553,14 59,14" id="Fill-31"></path>
            <path d="M59,18 L23,18 C22.447,18 22,17.553 22,17 C22,16.447 22.447,16 23,16 L59,16 C59.553,16 60,16.447 60,17 C60,17.553 59.553,18 59,18" id="Fill-33"></path>
            <path d="M49,22 L23,22 C22.447,22 22,21.553 22,21 C22,20.447 22.447,20 23,20 L49,20 C49.553,20 50,20.447 50,21 C50,21.553 49.553,22 49,22" id="Fill-35"></path>
            <path d="M59,30 L23,30 C22.447,30 22,29.553 22,29 C22,28.447 22.447,28 23,28 L59,28 C59.553,28 60,28.447 60,29 C60,29.553 59.553,30 59,30" id="Fill-37"></path>
            <path d="M59,34 L23,34 C22.447,34 22,33.553 22,33 C22,32.447 22.447,32 23,32 L59,32 C59.553,32 60,32.447 60,33 C60,33.553 59.553,34 59,34" id="Fill-39"></path>
            <path d="M49,38 L23,38 C22.447,38 22,37.553 22,37 C22,36.447 22.447,36 23,36 L49,36 C49.553,36 50,36.447 50,37 C50,37.553 49.553,38 49,38" id="Fill-41"></path>
            <path d="M59,46 L23,46 C22.447,46 22,45.553 22,45 C22,44.447 22.447,44 23,44 L59,44 C59.553,44 60,44.447 60,45 C60,45.553 59.553,46 59,46" id="Fill-43"></path>
            <path d="M59,50 L23,50 C22.447,50 22,49.553 22,49 C22,48.447 22.447,48 23,48 L59,48 C59.553,48 60,48.447 60,49 C60,49.553 59.553,50 59,50" id="Fill-45"></path>
            <path d="M49,54 L23,54 C22.447,54 22,53.553 22,53 C22,52.447 22.447,52 23,52 L49,52 C49.553,52 50,52.447 50,53 C50,53.553 49.553,54 49,54" id="Fill-47"></path>
        </g>
    </g>
</svg>