<?xml version="1.0" encoding="UTF-8" standalone="no"?>
<svg width="64px" height="64px" viewBox="0 0 64 64" version="1.1" xmlns="http://www.w3.org/2000/svg" xmlns:xlink="http://www.w3.org/1999/xlink">
    <!-- Generator: Sketch 3.7.2 (28276) - http://www.bohemiancoding.com/sketch -->
    <title>typ-width</title>
    <desc>Created with Sketch.</desc>
    <defs></defs>
    <g id="64px-Line" stroke="none" stroke-width="1" fill="none" fill-rule="evenodd">
        <g id="typ-width"></g>
        <path d="M49,6 L15,6 C14.448,6 14,6.447 14,7 L14,13 C14,13.553 14.448,14 15,14 C15.552,14 16,13.553 16,13 L16,10 C16,8.897 16.897,8 18,8 L28,8 L28,39 C28,40.654 26.654,42 25,42 C24.448,42 24,42.447 24,43 C24,43.553 24.448,44 25,44 L39,44 C39.552,44 40,43.553 40,43 C40,42.447 39.552,42 39,42 C37.346,42 36,40.654 36,39 L36,8 L46,8 C47.103,8 48,8.897 48,10 L48,13 C48,13.553 48.448,14 49,14 C49.552,14 50,13.553 50,13 L50,7 C50,6.447 49.552,6 49,6 L49,6 Z M35.002,42 L28.997,42 C29.626,41.164 29.999,40.125 29.999,39 L29.999,8 L33.999,8 L33.999,39 C34,40.125 34.374,41.164 35.002,42 L35.002,42 Z" id="Shape" fill="#000000"></path>
        <path d="M46.293,57.707 C46.488,57.902 46.744,58 47,58 C47.256,58 47.512,57.902 47.707,57.707 L53.706,51.708 C53.799,51.616 53.872,51.505 53.923,51.382 C54.024,51.138 54.024,50.862 53.923,50.618 C53.872,50.495 53.799,50.385 53.706,50.292 L47.707,44.293 C47.316,43.902 46.684,43.902 46.293,44.293 C45.902,44.684 45.902,45.316 46.293,45.707 L50.586,50 L13.414,50 L17.707,45.707 C18.098,45.316 18.098,44.684 17.707,44.293 C17.316,43.902 16.684,43.902 16.293,44.293 L10.294,50.292 C10.201,50.384 10.128,50.495 10.077,50.618 C9.976,50.862 9.976,51.138 10.077,51.382 C10.128,51.505 10.201,51.615 10.294,51.708 L16.293,57.707 C16.488,57.902 16.744,58 17,58 C17.256,58 17.512,57.902 17.707,57.707 C18.098,57.316 18.098,56.684 17.707,56.293 L13.414,52 L50.586,52 L46.293,56.293 C45.902,56.684 45.902,57.316 46.293,57.707 L46.293,57.707 Z" id="Shape" fill="#000000"></path>
    </g>
</svg>