<?xml version="1.0" encoding="UTF-8" standalone="no"?>
<svg width="44px" height="44px" viewBox="0 0 44 44" version="1.1" xmlns="http://www.w3.org/2000/svg" xmlns:xlink="http://www.w3.org/1999/xlink">
    <!-- Generator: Sketch 3.7.2 (28276) - http://www.bohemiancoding.com/sketch -->
    <title>typ-area</title>
    <desc>Created with Sketch.</desc>
    <defs></defs>
    <g id="44px-Line" stroke="none" stroke-width="1" fill="none" fill-rule="evenodd">
        <g id="typ-area"></g>
        <path d="M33,8 L9,8 C8.448,8 8,8.447 8,9 L8,13 C8,13.553 8.448,14 9,14 C9.552,14 10,13.553 10,13 L10,12 C10,10.897 10.897,10 12,10 L20,10 L20,33 C20,34.654 18.654,36 17,36 C16.448,36 16,36.447 16,37 C16,37.553 16.448,38 17,38 L25,38 C25.552,38 26,37.553 26,37 C26,36.447 25.552,36 25,36 C23.346,36 22,34.654 22,33 L22,10 L30,10 C31.103,10 32,10.897 32,12 L32,13 C32,13.553 32.448,14 33,14 C33.552,14 34,13.553 34,13 L34,9 C34,8.447 33.552,8 33,8 L33,8 Z" id="Shape" fill="#000000"></path>
        <path d="M40,12 C40,4.771 43.473,1.902 43.616,1.788 C43.952,1.525 44.085,1.078 43.946,0.675 C43.807,0.271 43.427,0 43,0 L5,0 C4.777,0 4.56,0.074 4.384,0.212 C4.206,0.352 -3.33066907e-16,3.732 -3.33066907e-16,12 C-3.33066907e-16,14.129 0.928,17.71 1.91,21.501 C2.938,25.468 4,29.57 4,32 C4,40.001 0.544,42.108 0.521,42.122 C0.12,42.341 -0.082,42.805 0.031,43.247 C0.144,43.69 0.543,44 1,44 L39,44 C39.167,44 39.332,43.958 39.479,43.878 C39.664,43.777 44,41.304 44,32 C44,29.315 42.905,25.088 41.846,20.999 C40.938,17.496 40,13.874 40,12 L40,12 Z M38.689,42 L3.401,42 C4.632,40.294 5.999,37.224 5.999,32 C5.999,29.315 4.904,25.088 3.845,20.999 C2.938,17.496 2,13.874 2,12 C2,5.776 4.574,2.785 5.381,2 L40.792,2 C39.537,3.79 38,7.002 38,12 C38,14.129 38.928,17.71 39.91,21.501 C40.938,25.468 42,29.57 42,32 C42,38.933 39.405,41.44 38.689,42 L38.689,42 Z" id="Shape" fill="#000000"></path>
    </g>
</svg>