<?xml version="1.0" encoding="UTF-8" standalone="no"?>
<svg width="64px" height="64px" viewBox="0 0 64 64" version="1.1" xmlns="http://www.w3.org/2000/svg" xmlns:xlink="http://www.w3.org/1999/xlink">
    <!-- Generator: Sketch 3.7.2 (28276) - http://www.bohemiancoding.com/sketch -->
    <title>typ-rotate</title>
    <desc>Created with Sketch.</desc>
    <defs></defs>
    <g id="64px-Glyph" stroke="none" stroke-width="1" fill="none" fill-rule="evenodd">
        <g id="typ-rotate" fill="#000000">
            <path d="M59.707,36.293 L51.708,28.294 C51.616,28.201 51.505,28.128 51.382,28.077 C51.138,27.976 50.862,27.976 50.618,28.077 C50.495,28.128 50.384,28.201 50.292,28.294 L42.293,36.293 C41.902,36.684 41.902,37.316 42.293,37.707 C42.684,38.098 43.316,38.098 43.707,37.707 L50,31.414 L50,33 C50,45.683 39.683,56 27,56 C14.317,56 4,45.683 4,33 C4,20.317 14.317,10 27,10 C27.553,10 28,9.553 28,9 C28,8.447 27.553,8 27,8 C13.215,8 2,19.215 2,33 C2,46.785 13.215,58 27,58 C40.785,58 52,46.785 52,33 L52,31.414 L58.293,37.707 C58.488,37.902 58.744,38 59,38 C59.256,38 59.512,37.902 59.707,37.707 C60.098,37.316 60.098,36.684 59.707,36.293" id="Fill-162"></path>
            <path d="M39,20 L15,20 C14.447,20 14,20.447 14,21 L14,27 C14,27.553 14.447,28 15,28 C15.553,28 16,27.553 16,27 L16,24 C16,22.898 16.898,22 18,22 L24,22 L24,43 C24,44.654 22.654,46 21,46 C20.447,46 20,46.447 20,47 C20,47.553 20.447,48 21,48 L33,48 C33.553,48 34,47.553 34,47 C34,46.447 33.553,46 33,46 C31.346,46 30,44.654 30,43 L30,22 L36,22 C37.102,22 38,22.898 38,24 L38,27 C38,27.553 38.447,28 39,28 C39.553,28 40,27.553 40,27 L40,21 C40,20.447 39.553,20 39,20" id="Fill-163"></path>
        </g>
    </g>
</svg>