<?xml version="1.0" encoding="UTF-8" standalone="no"?>
<svg width="64px" height="64px" viewBox="0 0 64 64" version="1.1" xmlns="http://www.w3.org/2000/svg" xmlns:xlink="http://www.w3.org/1999/xlink">
    <!-- Generator: Sketch 3.7.2 (28276) - http://www.bohemiancoding.com/sketch -->
    <title>typ-plus</title>
    <desc>Created with Sketch.</desc>
    <defs></defs>
    <g id="64px-Glyph" stroke="none" stroke-width="1" fill="none" fill-rule="evenodd">
        <g id="typ-plus" fill="#000000">
            <path d="M37,6 L5,6 C4.447,6 4,6.447 4,7 L4,13 C4,13.553 4.447,14 5,14 C5.553,14 6,13.553 6,13 L6,10 C6,8.898 6.897,8 8,8 L16,8 L16,41 C16,42.654 14.654,44 13,44 C12.447,44 12,44.447 12,45 C12,45.553 12.447,46 13,46 L29,46 C29.553,46 30,45.553 30,45 C30,44.447 29.553,44 29,44 C27.346,44 26,42.654 26,41 L26,8 L34,8 C35.103,8 36,8.898 36,10 L36,13 C36,13.553 36.447,14 37,14 C37.553,14 38,13.553 38,13 L38,7 C38,6.447 37.553,6 37,6" id="Fill-135"></path>
            <path d="M51,46 L46,46 L46,51 C46,51.553 45.553,52 45,52 C44.447,52 44,51.553 44,51 L44,46 L39,46 C38.447,46 38,45.553 38,45 C38,44.447 38.447,44 39,44 L44,44 L44,39 C44,38.447 44.447,38 45,38 C45.553,38 46,38.447 46,39 L46,44 L51,44 C51.553,44 52,44.447 52,45 C52,45.553 51.553,46 51,46 M45,32 C37.832,32 32,37.832 32,45 C32,52.168 37.832,58 45,58 C52.168,58 58,52.168 58,45 C58,37.832 52.168,32 45,32" id="Fill-137"></path>
        </g>
    </g>
</svg>