<?xml version="1.0" encoding="UTF-8" standalone="no"?>
<svg width="64px" height="64px" viewBox="0 0 64 64" version="1.1" xmlns="http://www.w3.org/2000/svg" xmlns:xlink="http://www.w3.org/1999/xlink">
    <!-- Generator: Sketch 3.7.2 (28276) - http://www.bohemiancoding.com/sketch -->
    <title>typ-path-perpendicular</title>
    <desc>Created with Sketch.</desc>
    <defs></defs>
    <g id="64px-Glyph" stroke="none" stroke-width="1" fill="none" fill-rule="evenodd">
        <g id="typ-path-perpendicular" fill="#000000">
            <path d="M53.707,28.6455 C53.316,28.2545 52.684,28.2545 52.293,28.6455 C51.163,29.7765 49.191,29.7785 48.06,28.6455 L37.473,18.0585 L41.707,13.8245 C42.484,13.0475 43.751,13.0455 44.528,13.8245 C44.724,14.0195 44.979,14.1175 45.235,14.1175 C45.491,14.1175 45.747,14.0195 45.942,13.8245 C46.138,13.6285 46.235,13.3725 46.235,13.1165 C46.235,12.8605 46.138,12.6055 45.942,12.4105 L43.824,10.2935 C43.434,9.9025 42.801,9.9025 42.41,10.2935 L28.293,24.4105 C27.902,24.8005 27.902,25.4335 28.293,25.8245 L30.41,27.9425 C30.605,28.1375 30.861,28.2355 31.117,28.2355 C31.373,28.2355 31.629,28.1375 31.824,27.9425 C32.02,27.7475 32.117,27.4915 32.117,27.2355 C32.117,26.9795 32.02,26.7235 31.824,26.5285 C31.047,25.7505 31.047,24.4845 31.824,23.7075 L36.059,19.4725 L46.646,30.0595 C47.211,30.6255 47.522,31.3775 47.522,32.1755 C47.522,32.9755 47.211,33.7275 46.646,34.2935 C46.45,34.4885 46.353,34.7445 46.353,35.0005 C46.353,35.2555 46.45,35.5115 46.646,35.7075 C46.841,35.9025 47.097,36.0005 47.353,36.0005 C47.608,36.0005 47.864,35.9025 48.06,35.7075 L53.707,30.0595 C53.902,29.8645 54,29.6085 54,29.3525 C54,29.0965 53.902,28.8405 53.707,28.6455" id="Fill-103"></path>
            <path d="M57,56 L53.062,56 C50.124,56 47.361,54.855 45.284,52.777 L15.222,22.706 C13.522,21.006 11.262,20.069 8.857,20.069 L5,20.069 C4.447,20.069 4,19.622 4,19.069 C4,18.517 4.447,18.069 5,18.069 L8.857,18.069 C11.796,18.069 14.559,19.214 16.636,21.292 L46.698,51.363 C48.397,53.064 50.658,54 53.062,54 L57,54 C57.553,54 58,54.447 58,55 C58,55.553 57.553,56 57,56" id="Fill-105"></path>
        </g>
    </g>
</svg>