<?xml version="1.0" encoding="UTF-8" standalone="no"?>
<svg width="64px" height="64px" viewBox="0 0 64 64" version="1.1" xmlns="http://www.w3.org/2000/svg" xmlns:xlink="http://www.w3.org/1999/xlink">
    <!-- Generator: Sketch 3.7.2 (28276) - http://www.bohemiancoding.com/sketch -->
    <title>typ-list-2</title>
    <desc>Created with Sketch.</desc>
    <defs></defs>
    <g id="64px-Glyph" stroke="none" stroke-width="1" fill="none" fill-rule="evenodd">
        <g id="typ-list-2" fill="#000000">
            <path d="M17,22 L5,22 C4.447,22 4,21.553 4,21 L4,13 C4,12.447 4.447,12 5,12 L17,12 C17.553,12 18,12.447 18,13 L18,21 C18,21.553 17.553,22 17,22 L17,22 Z" id="Fill-1"></path>
            <path d="M59,38 L47,38 C46.447,38 46,37.553 46,37 L46,29 C46,28.447 46.447,28 47,28 L59,28 C59.553,28 60,28.447 60,29 L60,37 C60,37.553 59.553,38 59,38" id="Fill-3"></path>
            <path d="M17,54 L5,54 C4.447,54 4,53.553 4,53 L4,45 C4,44.447 4.447,44 5,44 L17,44 C17.553,44 18,44.447 18,45 L18,53 C18,53.553 17.553,54 17,54" id="Fill-5"></path>
            <path d="M59,14 L23,14 C22.447,14 22,13.553 22,13 C22,12.447 22.447,12 23,12 L59,12 C59.553,12 60,12.447 60,13 C60,13.553 59.553,14 59,14" id="Fill-7"></path>
            <path d="M59,18 L23,18 C22.447,18 22,17.553 22,17 C22,16.447 22.447,16 23,16 L59,16 C59.553,16 60,16.447 60,17 C60,17.553 59.553,18 59,18" id="Fill-9"></path>
            <path d="M49,22 L23,22 C22.447,22 22,21.553 22,21 C22,20.447 22.447,20 23,20 L49,20 C49.553,20 50,20.447 50,21 C50,21.553 49.553,22 49,22" id="Fill-11"></path>
            <path d="M41,30 L5,30 C4.447,30 4,29.553 4,29 C4,28.447 4.447,28 5,28 L41,28 C41.553,28 42,28.447 42,29 C42,29.553 41.553,30 41,30" id="Fill-13"></path>
            <path d="M41,34 L5,34 C4.447,34 4,33.553 4,33 C4,32.447 4.447,32 5,32 L41,32 C41.553,32 42,32.447 42,33 C42,33.553 41.553,34 41,34" id="Fill-15"></path>
            <path d="M31,38 L5,38 C4.447,38 4,37.553 4,37 C4,36.447 4.447,36 5,36 L31,36 C31.553,36 32,36.447 32,37 C32,37.553 31.553,38 31,38" id="Fill-17"></path>
            <path d="M59,46 L23,46 C22.447,46 22,45.553 22,45 C22,44.447 22.447,44 23,44 L59,44 C59.553,44 60,44.447 60,45 C60,45.553 59.553,46 59,46" id="Fill-19"></path>
            <path d="M59,50 L23,50 C22.447,50 22,49.553 22,49 C22,48.447 22.447,48 23,48 L59,48 C59.553,48 60,48.447 60,49 C60,49.553 59.553,50 59,50" id="Fill-21"></path>
            <path d="M49,54 L23,54 C22.447,54 22,53.553 22,53 C22,52.447 22.447,52 23,52 L49,52 C49.553,52 50,52.447 50,53 C50,53.553 49.553,54 49,54" id="Fill-23"></path>
        </g>
    </g>
</svg>