<?xml version="1.0" encoding="UTF-8" standalone="no"?>
<svg width="44px" height="44px" viewBox="0 0 44 44" version="1.1" xmlns="http://www.w3.org/2000/svg" xmlns:xlink="http://www.w3.org/1999/xlink">
    <!-- Generator: Sketch 3.7.2 (28276) - http://www.bohemiancoding.com/sketch -->
    <title>typ-target</title>
    <desc>Created with Sketch.</desc>
    <defs></defs>
    <g id="44px-Glyph" stroke="none" stroke-width="1" fill="none" fill-rule="evenodd">
        <g id="typ-target" fill="#000000">
            <path d="M37,6 L7,6 C6.447,6 6,6.447 6,7 L6,13 C6,13.553 6.447,14 7,14 C7.553,14 8,13.553 8,13 L8,10 C8,8.897 8.897,8 10,8 L18,8 L18,33 C18,34.654 16.654,36 15,36 C14.447,36 14,36.447 14,37 C14,37.553 14.447,38 15,38 L29,38 C29.553,38 30,37.553 30,37 C30,36.447 29.553,36 29,36 C27.346,36 26,34.654 26,33 L26,8 L34,8 C35.103,8 36,8.897 36,10 L36,13 C36,13.553 36.447,14 37,14 C37.553,14 38,13.553 38,13 L38,7 C38,6.447 37.553,6 37,6" id="Fill-139"></path>
            <path d="M1,8 C0.447,8 0,7.553 0,7 L0,1 C0,0.447 0.447,0 1,0 L7,0 C7.553,0 8,0.447 8,1 C8,1.553 7.553,2 7,2 L2,2 L2,7 C2,7.553 1.553,8 1,8" id="Fill-141"></path>
            <path d="M43,8 C42.447,8 42,7.553 42,7 L42,2 L37,2 C36.447,2 36,1.553 36,1 C36,0.447 36.447,0 37,0 L43,0 C43.553,0 44,0.447 44,1 L44,7 C44,7.553 43.553,8 43,8" id="Fill-143"></path>
            <path d="M7,44 L1,44 C0.447,44 0,43.553 0,43 L0,37 C0,36.447 0.447,36 1,36 C1.553,36 2,36.447 2,37 L2,42 L7,42 C7.553,42 8,42.447 8,43 C8,43.553 7.553,44 7,44" id="Fill-145"></path>
            <path d="M43,44 L37,44 C36.447,44 36,43.553 36,43 C36,42.447 36.447,42 37,42 L42,42 L42,37 C42,36.447 42.447,36 43,36 C43.553,36 44,36.447 44,37 L44,43 C44,43.553 43.553,44 43,44" id="Fill-147"></path>
        </g>
    </g>
</svg>