<?xml version="1.0" encoding="UTF-8" standalone="no"?>
<svg width="44px" height="44px" viewBox="0 0 44 44" version="1.1" xmlns="http://www.w3.org/2000/svg" xmlns:xlink="http://www.w3.org/1999/xlink">
    <!-- Generator: Sketch 3.7.2 (28276) - http://www.bohemiancoding.com/sketch -->
    <title>typ-shape</title>
    <desc>Created with Sketch.</desc>
    <defs></defs>
    <g id="44px-Glyph" stroke="none" stroke-width="1" fill="none" fill-rule="evenodd">
        <g id="typ-shape" fill="#000000">
            <path d="M38,42 L40,42 L40,40 L38,40 L38,42 Z M32,15 C32,15.553 31.553,16 31,16 C30.447,16 30,15.553 30,15 L30,14 C30,12.897 29.103,12 28,12 L22,12 L22,29 C22,30.654 23.346,32 25,32 C25.553,32 26,32.447 26,33 C26,33.553 25.553,34 25,34 L17,34 C16.447,34 16,33.553 16,33 C16,32.447 16.447,32 17,32 C18.654,32 20,30.654 20,29 L20,12 L14,12 C12.898,12 12,12.897 12,14 L12,15 C12,15.553 11.553,16 11,16 C10.447,16 10,15.553 10,15 L10,11 C10,10.447 10.447,10 11,10 L31,10 C31.553,10 32,10.447 32,11 L32,15 Z M2,4 L4,4 L4,2 L2,2 L2,4 Z M2,42 L4,42 L4,40 L2,40 L2,42 Z M38,4 L40,4 L40,2 L38,2 L38,4 Z M41,6 C41.553,6 42,5.553 42,5 L42,1 C42,0.447 41.553,0 41,0 L37,0 C36.447,0 36,0.447 36,1 L36,4 L6,4 L6,1 C6,0.447 5.553,0 5,0 L1,0 C0.447,0 0,0.447 0,1 L0,5 C0,5.553 0.447,6 1,6 L4,6 L4,38 L1,38 C0.447,38 0,38.447 0,39 L0,43 C0,43.553 0.447,44 1,44 L5,44 C5.553,44 6,43.553 6,43 L6,40 L36,40 L36,43 C36,43.553 36.447,44 37,44 L41,44 C41.553,44 42,43.553 42,43 L42,39 C42,38.447 41.553,38 41,38 L38,38 L38,6 L41,6 Z" id="Fill-155"></path>
        </g>
    </g>
</svg>