<?xml version="1.0" encoding="UTF-8" standalone="no"?>
<svg width="64px" height="64px" viewBox="0 0 64 64" version="1.1" xmlns="http://www.w3.org/2000/svg" xmlns:xlink="http://www.w3.org/1999/xlink">
    <!-- Generator: Sketch 3.7.2 (28276) - http://www.bohemiancoding.com/sketch -->
    <title>typ-secure</title>
    <desc>Created with Sketch.</desc>
    <defs></defs>
    <g id="64px-Line" stroke="none" stroke-width="1" fill="none" fill-rule="evenodd">
        <g id="typ-secure"></g>
        <path d="M34,8 C35.103,8 36,8.897 36,10 L36,13 C36,13.553 36.447,14 37,14 C37.553,14 38,13.553 38,13 L38,7 C38,6.447 37.553,6 37,6 L5,6 C4.447,6 4,6.447 4,7 L4,13 C4,13.553 4.447,14 5,14 C5.553,14 6,13.553 6,13 L6,10 C6,8.897 6.897,8 8,8 L16,8 L16,41 C16,42.654 14.654,44 13,44 C12.447,44 12,44.447 12,45 C12,45.553 12.447,46 13,46 L29,46 C29.553,46 30,45.553 30,45 C30,44.447 29.553,44 29,44 C27.346,44 26,42.654 26,41 L26,8 L34,8 L34,8 Z M25.002,44 L16.998,44 C17.627,43.164 18,42.125 18,41 L18,8 L24,8 L24,41 C24,42.125 24.373,43.164 25.002,44 L25.002,44 Z" id="Shape" fill="#000000"></path>
        <path d="M37,58 L57,58 C57.553,58 58,57.553 58,57 L58,39 C58,38.447 57.553,38 57,38 L55,38 L55,36 C55,31.589 51.411,28 47,28 C42.589,28 39,31.589 39,36 L39,38 L37,38 C36.447,38 36,38.447 36,39 L36,57 C36,57.553 36.447,58 37,58 L37,58 Z M41,36 C41,32.691 43.691,30 47,30 C50.309,30 53,32.691 53,36 L53,38 L41,38 L41,36 L41,36 Z M38,40 L56,40 L56,56 L38,56 L38,40 L38,40 Z" id="Shape" fill="#000000"></path>
        <path d="M47,44 C45.897,44 45,44.897 45,46 C45,46.737 45.405,47.375 46,47.722 L46,51 C46,51.553 46.447,52 47,52 C47.553,52 48,51.553 48,51 L48,47.722 C48.595,47.375 49,46.737 49,46 C49,44.897 48.103,44 47,44 L47,44 Z" id="Shape" fill="#000000"></path>
    </g>
</svg>