<?xml version="1.0" encoding="UTF-8" standalone="no"?>
<svg width="44px" height="44px" viewBox="0 0 44 44" version="1.1" xmlns="http://www.w3.org/2000/svg" xmlns:xlink="http://www.w3.org/1999/xlink">
    <!-- Generator: Sketch 3.7.2 (28276) - http://www.bohemiancoding.com/sketch -->
    <title>typ-caps-all</title>
    <desc>Created with Sketch.</desc>
    <defs></defs>
    <g id="44px-Line" stroke="none" stroke-width="1" fill="none" fill-rule="evenodd">
        <g id="typ-caps-all"></g>
        <path d="M1,16 C1.552,16 2,15.552 2,15 L2,14 C2,12.897 2.897,12 4,12 L8,12 L8,27 C8,28.654 6.654,30 5,30 C4.448,30 4,30.448 4,31 C4,31.552 4.448,32 5,32 L13,32 C13.552,32 14,31.552 14,31 C14,30.448 13.552,30 13,30 C11.346,30 10,28.654 10,27 L10,12 L14,12 C15.103,12 16,12.897 16,14 L16,15 C16,15.552 16.448,16 17,16 C17.552,16 18,15.552 18,15 L18,11 C18,10.448 17.552,10 17,10 L1,10 C0.448,10 0,10.448 0,11 L0,15 C0,15.552 0.448,16 1,16 L1,16 Z" id="Shape" fill="#000000"></path>
        <path d="M43,10 L27,10 C26.448,10 26,10.448 26,11 L26,15 C26,15.552 26.448,16 27,16 C27.552,16 28,15.552 28,15 L28,14 C28,12.897 28.897,12 30,12 L34,12 L34,27 C34,28.654 32.654,30 31,30 C30.448,30 30,30.448 30,31 C30,31.552 30.448,32 31,32 L39,32 C39.552,32 40,31.552 40,31 C40,30.448 39.552,30 39,30 C37.346,30 36,28.654 36,27 L36,12 L40,12 C41.103,12 42,12.897 42,14 L42,15 C42,15.552 42.448,16 43,16 C43.552,16 44,15.552 44,15 L44,11 C44,10.448 43.552,10 43,10 L43,10 Z" id="Shape" fill="#000000"></path>
    </g>
</svg>