<?xml version="1.0" encoding="UTF-8" standalone="no"?>
<svg width="44px" height="44px" viewBox="0 0 44 44" version="1.1" xmlns="http://www.w3.org/2000/svg" xmlns:xlink="http://www.w3.org/1999/xlink">
    <!-- Generator: Sketch 3.7.2 (28276) - http://www.bohemiancoding.com/sketch -->
    <title>typ-strike</title>
    <desc>Created with Sketch.</desc>
    <defs></defs>
    <g id="44px-Glyph" stroke="none" stroke-width="1" fill="none" fill-rule="evenodd">
        <g id="typ-strike" fill="#000000">
            <path d="M31,42 C29.346,42 28,40.654 28,39 L28,24 L16,24 L16,39 C16,40.654 14.654,42 13,42 C12.447,42 12,42.447 12,43 C12,43.553 12.447,44 13,44 L31,44 C31.553,44 32,43.553 32,43 C32,42.447 31.553,42 31,42" id="Fill-188"></path>
            <path d="M1,22 L43,22 C43.553,22 44,21.553 44,21 C44,20.447 43.553,20 43,20 L28,20 L28,2 L38,2 C39.102,2 40,2.897 40,4 L40,7 C40,7.553 40.447,8 41,8 C41.553,8 42,7.553 42,7 L42,1 C42,0.447 41.553,0 41,0 L3,0 C2.447,0 2,0.447 2,1 L2,7 C2,7.553 2.447,8 3,8 C3.553,8 4,7.553 4,7 L4,4 C4,2.897 4.898,2 6,2 L16,2 L16,20 L1,20 C0.447,20 0,20.447 0,21 C0,21.553 0.447,22 1,22" id="Fill-189"></path>
        </g>
    </g>
</svg>