<?xml version="1.0" encoding="UTF-8" standalone="no"?>
<svg width="64px" height="64px" viewBox="0 0 64 64" version="1.1" xmlns="http://www.w3.org/2000/svg" xmlns:xlink="http://www.w3.org/1999/xlink">
    <!-- Generator: Sketch 3.7.2 (28276) - http://www.bohemiancoding.com/sketch -->
    <title>typ-height</title>
    <desc>Created with Sketch.</desc>
    <defs></defs>
    <g id="64px-Glyph" stroke="none" stroke-width="1" fill="none" fill-rule="evenodd">
        <g id="typ-height" fill="#000000">
            <path d="M57,12 L23,12 C22.447,12 22,12.447 22,13 L22,19 C22,19.553 22.447,20 23,20 C23.553,20 24,19.553 24,19 L24,16 C24,14.898 24.898,14 26,14 L36,14 L36,49 C36,50.654 34.654,52 33,52 C32.447,52 32,52.447 32,53 C32,53.553 32.447,54 33,54 L47,54 C47.553,54 48,53.553 48,53 C48,52.447 47.553,52 47,52 C45.346,52 44,50.654 44,49 L44,14 L54,14 C55.102,14 56,14.898 56,16 L56,19 C56,19.553 56.447,20 57,20 C57.553,20 58,19.553 58,19 L58,13 C58,12.447 57.553,12 57,12" id="Fill-177"></path>
            <path d="M16.293,52.293 L12,56.586 L12,9.414 L16.293,13.707 C16.488,13.902 16.744,14 17,14 C17.256,14 17.512,13.902 17.707,13.707 C18.098,13.316 18.098,12.684 17.707,12.293 L11.708,6.294 C11.616,6.201 11.505,6.128 11.382,6.077 C11.137,5.976 10.862,5.976 10.618,6.077 C10.495,6.128 10.384,6.201 10.292,6.294 L4.293,12.293 C3.902,12.684 3.902,13.316 4.293,13.707 C4.684,14.098 5.316,14.098 5.707,13.707 L10,9.414 L10,56.586 L5.707,52.293 C5.316,51.902 4.684,51.902 4.293,52.293 C3.902,52.684 3.902,53.316 4.293,53.707 L10.292,59.706 C10.384,59.799 10.495,59.872 10.618,59.923 C10.74,59.973 10.87,60 11,60 C11.13,60 11.26,59.973 11.382,59.923 C11.505,59.872 11.616,59.799 11.708,59.706 L17.707,53.707 C18.098,53.316 18.098,52.684 17.707,52.293 C17.316,51.902 16.684,51.902 16.293,52.293" id="Fill-178"></path>
        </g>
    </g>
</svg>