<?xml version="1.0" encoding="UTF-8" standalone="no"?>
<svg width="44px" height="44px" viewBox="0 0 44 44" version="1.1" xmlns="http://www.w3.org/2000/svg" xmlns:xlink="http://www.w3.org/1999/xlink">
    <!-- Generator: Sketch 3.7.2 (28276) - http://www.bohemiancoding.com/sketch -->
    <title>typ-spacing-top</title>
    <desc>Created with Sketch.</desc>
    <defs></defs>
    <g id="44px-Glyph" stroke="none" stroke-width="1" fill="none" fill-rule="evenodd">
        <g id="typ-spacing-top" fill="#000000">
            <path d="M41,36 L1,36 C0.447,36 0,35.553 0,35 C0,34.447 0.447,34 1,34 L41,34 C41.553,34 42,34.447 42,35 C42,35.553 41.553,36 41,36" id="Fill-266"></path>
            <path d="M41,20 L1,20 C0.447,20 0,19.553 0,19 C0,18.447 0.447,18 1,18 L41,18 C41.553,18 42,18.447 42,19 C42,19.553 41.553,20 41,20" id="Fill-267"></path>
            <path d="M31,28 L1,28 C0.447,28 0,27.553 0,27 C0,26.447 0.447,26 1,26 L31,26 C31.553,26 32,26.447 32,27 C32,27.553 31.553,28 31,28" id="Fill-268"></path>
            <path d="M31,44 L1,44 C0.447,44 0,43.553 0,43 C0,42.447 0.447,42 1,42 L31,42 C31.553,42 32,42.447 32,43 C32,43.553 31.553,44 31,44" id="Fill-269"></path>
            <path d="M27.707,6.293 C27.316,5.902 26.684,5.902 26.293,6.293 L22,10.586 L22,1 C22,0.447 21.553,0 21,0 C20.447,0 20,0.447 20,1 L20,10.586 L15.707,6.293 C15.316,5.902 14.684,5.902 14.293,6.293 C13.902,6.684 13.902,7.316 14.293,7.707 L20.292,13.706 C20.384,13.799 20.495,13.872 20.618,13.923 C20.74,13.974 20.87,14 21,14 C21.13,14 21.26,13.974 21.382,13.923 C21.505,13.872 21.616,13.799 21.708,13.706 L27.707,7.707 C28.098,7.316 28.098,6.684 27.707,6.293" id="Fill-270"></path>
        </g>
    </g>
</svg>