<?xml version="1.0" encoding="UTF-8" standalone="no"?>
<svg width="44px" height="44px" viewBox="0 0 44 44" version="1.1" xmlns="http://www.w3.org/2000/svg" xmlns:xlink="http://www.w3.org/1999/xlink">
    <!-- Generator: Sketch 3.7.2 (28276) - http://www.bohemiancoding.com/sketch -->
    <title>typ-spacing-bottom</title>
    <desc>Created with Sketch.</desc>
    <defs></defs>
    <g id="44px-Glyph" stroke="none" stroke-width="1" fill="none" fill-rule="evenodd">
        <g id="typ-spacing-bottom" fill="#000000">
            <path d="M41,18 L1,18 C0.447,18 0,17.553 0,17 C0,16.447 0.447,16 1,16 L41,16 C41.553,16 42,16.447 42,17 C42,17.553 41.553,18 41,18" id="Fill-261"></path>
            <path d="M41,2 L1,2 C0.447,2 0,1.553 0,1 C0,0.447 0.447,0 1,0 L41,0 C41.553,0 42,0.447 42,1 C42,1.553 41.553,2 41,2" id="Fill-262"></path>
            <path d="M31,10 L1,10 C0.447,10 0,9.553 0,9 C0,8.447 0.447,8 1,8 L31,8 C31.553,8 32,8.447 32,9 C32,9.553 31.553,10 31,10" id="Fill-263"></path>
            <path d="M31,26 L1,26 C0.447,26 0,25.553 0,25 C0,24.447 0.447,24 1,24 L31,24 C31.553,24 32,24.447 32,25 C32,25.553 31.553,26 31,26" id="Fill-264"></path>
            <path d="M27.707,36.293 L21.708,30.294 C21.616,30.201 21.505,30.128 21.382,30.077 C21.138,29.976 20.862,29.976 20.618,30.077 C20.495,30.128 20.384,30.201 20.292,30.294 L14.293,36.293 C13.902,36.684 13.902,37.316 14.293,37.707 C14.684,38.098 15.316,38.098 15.707,37.707 L20,33.414 L20,43 C20,43.553 20.447,44 21,44 C21.553,44 22,43.553 22,43 L22,33.414 L26.293,37.707 C26.488,37.902 26.744,38 27,38 C27.256,38 27.512,37.902 27.707,37.707 C28.098,37.316 28.098,36.684 27.707,36.293" id="Fill-265"></path>
        </g>
    </g>
</svg>