<?xml version="1.0" encoding="UTF-8" standalone="no"?>
<svg width="64px" height="64px" viewBox="0 0 64 64" version="1.1" xmlns="http://www.w3.org/2000/svg" xmlns:xlink="http://www.w3.org/1999/xlink">
    <!-- Generator: Sketch 3.7.2 (28276) - http://www.bohemiancoding.com/sketch -->
    <title>typ-justified-centre</title>
    <desc>Created with Sketch.</desc>
    <defs></defs>
    <g id="64px-Glyph" stroke="none" stroke-width="1" fill="none" fill-rule="evenodd">
        <g id="typ-justified-centre" fill="#000000">
            <path d="M57,34 L7,34 C6.447,34 6,33.553 6,33 C6,32.447 6.447,32 7,32 L57,32 C57.553,32 58,32.447 58,33 C58,33.553 57.553,34 57,34" id="Fill-299"></path>
            <path d="M57,14 L7,14 C6.447,14 6,13.553 6,13 C6,12.447 6.447,12 7,12 L57,12 C57.553,12 58,12.447 58,13 C58,13.553 57.553,14 57,14" id="Fill-300"></path>
            <path d="M57,24 L7,24 C6.447,24 6,23.553 6,23 C6,22.447 6.447,22 7,22 L57,22 C57.553,22 58,22.447 58,23 C58,23.553 57.553,24 57,24" id="Fill-301"></path>
            <path d="M57,44 L7,44 C6.447,44 6,43.553 6,43 C6,42.447 6.447,42 7,42 L57,42 C57.553,42 58,42.447 58,43 C58,43.553 57.553,44 57,44" id="Fill-302"></path>
            <path d="M49,54 L15,54 C14.447,54 14,53.553 14,53 C14,52.447 14.447,52 15,52 L49,52 C49.553,52 50,52.447 50,53 C50,53.553 49.553,54 49,54" id="Fill-303"></path>
        </g>
    </g>
</svg>