<?xml version="1.0" encoding="UTF-8" standalone="no"?>
<svg width="44px" height="44px" viewBox="0 0 44 44" version="1.1" xmlns="http://www.w3.org/2000/svg" xmlns:xlink="http://www.w3.org/1999/xlink">
    <!-- Generator: Sketch 3.7.2 (28276) - http://www.bohemiancoding.com/sketch -->
    <title>typ-spacing-left</title>
    <desc>Created with Sketch.</desc>
    <defs></defs>
    <g id="44px-Glyph" stroke="none" stroke-width="1" fill="none" fill-rule="evenodd">
        <g id="typ-spacing-left" fill="#000000">
            <path d="M43,40 L23,40 C22.447,40 22,39.553 22,39 C22,38.447 22.447,38 23,38 L43,38 C43.553,38 44,38.447 44,39 C44,39.553 43.553,40 43,40" id="Fill-224"></path>
            <path d="M43,24 L23,24 C22.447,24 22,23.553 22,23 C22,22.447 22.447,22 23,22 L43,22 C43.553,22 44,22.447 44,23 C44,23.553 43.553,24 43,24" id="Fill-225"></path>
            <path d="M43,8 L23,8 C22.447,8 22,7.553 22,7 C22,6.447 22.447,6 23,6 L43,6 C43.553,6 44,6.447 44,7 C44,7.553 43.553,8 43,8" id="Fill-226"></path>
            <path d="M35,16 L23,16 C22.447,16 22,15.553 22,15 C22,14.447 22.447,14 23,14 L35,14 C35.553,14 36,14.447 36,15 C36,15.553 35.553,16 35,16" id="Fill-227"></path>
            <path d="M35,32 L23,32 C22.447,32 22,31.553 22,31 C22,30.447 22.447,30 23,30 L35,30 C35.553,30 36,30.447 36,31 C36,31.553 35.553,32 35,32" id="Fill-228"></path>
            <path d="M17,44 C16.447,44 16,43.553 16,43 L16,3 C16,2.447 16.447,2 17,2 C17.553,2 18,2.447 18,3 L18,43 C18,43.553 17.553,44 17,44" id="Fill-229"></path>
            <path d="M11.9231,23.3818 C12.0241,23.1378 12.0241,22.8628 11.9231,22.6178 C11.8721,22.4948 11.7991,22.3838 11.7061,22.2918 L5.7071,16.2928 C5.3161,15.9028 4.6831,15.9028 4.2931,16.2928 C3.9021,16.6838 3.9021,17.3168 4.2931,17.7068 L8.5861,21.9998 L1.0001,21.9998 C0.4471,21.9998 0.0001,22.4468 0.0001,22.9998 C0.0001,23.5528 0.4471,23.9998 1.0001,23.9998 L8.5861,23.9998 L4.2931,28.2928 C3.9021,28.6838 3.9021,29.3168 4.2931,29.7068 C4.4881,29.9028 4.7441,29.9998 5.0001,29.9998 C5.2561,29.9998 5.5121,29.9028 5.7071,29.7068 L11.7061,23.7088 C11.7991,23.6158 11.8721,23.5048 11.9231,23.3818" id="Fill-230"></path>
        </g>
    </g>
</svg>