<?xml version="1.0" encoding="UTF-8" standalone="no"?>
<svg width="64px" height="64px" viewBox="0 0 64 64" version="1.1" xmlns="http://www.w3.org/2000/svg" xmlns:xlink="http://www.w3.org/1999/xlink">
    <!-- Generator: Sketch 3.7.2 (28276) - http://www.bohemiancoding.com/sketch -->
    <title>typ-ligatures</title>
    <desc>Created with Sketch.</desc>
    <defs></defs>
    <g id="64px-Glyph" stroke="none" stroke-width="1" fill="none" fill-rule="evenodd">
        <g id="typ-ligatures" fill="#000000">
            <path d="M44,28 C46.206,28 48,25.757 48,23 C48,20.243 46.206,18 44,18 C41.794,18 40,20.243 40,23 C40,25.757 41.794,28 44,28" id="Fill-173"></path>
            <path d="M51,56 L50,56 C48.897,56 48,55.102 48,54 L48,32 L51,32 C51.553,32 52,31.553 52,31 C52,30.447 51.553,30 51,30 L26,30 L26,17 C26,13.141 28.243,10 31,10 C32.651,10 33.986,10.755 34.866,12.018 C33.25,12.11 32,13.818 32,16 C32,18.243 33.317,20 35,20 C36.683,20 38,18.243 38,16 C38,15.676 37.983,15.36 37.957,15.05 C37.942,14.873 37.917,14.702 37.895,14.529 C37.881,14.429 37.87,14.328 37.853,14.23 C37.086,9.371 33.184,6 28,6 C22.486,6 18,10.935 18,17 L18,30 L13,30 C12.447,30 12,30.447 12,31 C12,31.553 12.447,32 13,32 L18,32 L18,54 C18,55.102 17.103,56 16,56 L15,56 C14.447,56 14,56.447 14,57 C14,57.553 14.447,58 15,58 L16,58 L28,58 L29,58 C29.553,58 30,57.553 30,57 C30,56.447 29.553,56 29,56 L28,56 C26.897,56 26,55.102 26,54 L26,32 L40,32 L40,54 C40,55.102 39.103,56 38,56 L37,56 C36.447,56 36,56.447 36,57 C36,57.553 36.447,58 37,58 L51,58 C51.553,58 52,57.553 52,57 C52,56.447 51.553,56 51,56" id="Fill-174"></path>
        </g>
    </g>
</svg>