<?xml version="1.0" encoding="UTF-8" standalone="no"?>
<svg width="44px" height="44px" viewBox="0 0 44 44" version="1.1" xmlns="http://www.w3.org/2000/svg" xmlns:xlink="http://www.w3.org/1999/xlink">
    <!-- Generator: Sketch 3.7.2 (28276) - http://www.bohemiancoding.com/sketch -->
    <title>typ-align-right</title>
    <desc>Created with Sketch.</desc>
    <defs></defs>
    <g id="44px-Line" stroke="none" stroke-width="1" fill="none" fill-rule="evenodd">
        <g id="typ-align-right"></g>
        <path d="M43,42 L1,42 C0.448,42 0,42.448 0,43 C0,43.552 0.448,44 1,44 L43,44 C43.552,44 44,43.552 44,43 C44,42.448 43.552,42 43,42 L43,42 Z" id="Shape" fill="#000000"></path>
        <path d="M43,22 L1,22 C0.448,22 0,22.448 0,23 C0,23.552 0.448,24 1,24 L43,24 C43.552,24 44,23.552 44,23 C44,22.448 43.552,22 43,22 L43,22 Z" id="Shape" fill="#000000"></path>
        <path d="M43,2 L1,2 C0.448,2 0,2.448 0,3 C0,3.552 0.448,4 1,4 L43,4 C43.552,4 44,3.552 44,3 C44,2.448 43.552,2 43,2 L43,2 Z" id="Shape" fill="#000000"></path>
        <path d="M43,12 L13,12 C12.448,12 12,12.448 12,13 C12,13.552 12.448,14 13,14 L43,14 C43.552,14 44,13.552 44,13 C44,12.448 43.552,12 43,12 L43,12 Z" id="Shape" fill="#000000"></path>
        <path d="M43,32 L13,32 C12.448,32 12,32.448 12,33 C12,33.552 12.448,34 13,34 L43,34 C43.552,34 44,33.552 44,33 C44,32.448 43.552,32 43,32 L43,32 Z" id="Shape" fill="#000000"></path>
    </g>
</svg>