<?xml version="1.0" encoding="UTF-8" standalone="no"?>
<svg width="44px" height="44px" viewBox="0 0 44 44" version="1.1" xmlns="http://www.w3.org/2000/svg" xmlns:xlink="http://www.w3.org/1999/xlink">
    <!-- Generator: Sketch 3.7.2 (28276) - http://www.bohemiancoding.com/sketch -->
    <title>typ-subscript</title>
    <desc>Created with Sketch.</desc>
    <defs></defs>
    <g id="44px-Glyph" stroke="none" stroke-width="1" fill="none" fill-rule="evenodd">
        <g id="typ-subscript" fill="#000000">
            <path d="M33,28 L31.477,28 L31.176,28 C30.748,28 30.351,27.781 30.11,27.414 L20.497,12.693 L30.011,2.41 C30.252,2.149 30.59,2 30.937,2 L31.477,2 L33,2 C33.553,2 34,1.553 34,1 C34,0.447 33.553,0 33,0 L31.477,0 L30.937,0 L27,0 C26.447,0 26,0.447 26,1 C26,1.553 26.447,2 27,2 L27.665,2 L19.37,10.966 L13.515,2 L15,2 C15.553,2 16,1.553 16,1 C16,0.447 15.553,0 15,0 L11.667,0 L2.824,0 L2.523,0 L1,0 C0.447,0 0,0.447 0,1 C0,1.553 0.447,2 1,2 L2.523,2 L2.824,2 C3.252,2 3.649,2.219 3.89,2.586 L13.503,17.307 L3.989,27.59 C3.748,27.851 3.41,28 3.063,28 L2.523,28 L1,28 C0.447,28 0,28.447 0,29 C0,29.553 0.447,30 1,30 L2.523,30 L3.063,30 L7,30 C7.553,30 8,29.553 8,29 C8,28.447 7.553,28 7,28 L6.335,28 L14.63,19.034 L20.485,28 L19,28 C18.447,28 18,28.447 18,29 C18,29.553 18.447,30 19,30 L22.333,30 L31.176,30 L31.477,30 L33,30 C33.553,30 34,29.553 34,29 C34,28.447 33.553,28 33,28" id="Fill-198"></path>
            <path d="M43,44 L37,44 C36.591,44 36.224,43.751 36.071,43.371 C35.92,42.992 36.015,42.558 36.311,42.276 L41.432,37.397 C41.792,37.036 42,36.534 42,36 C42,35.466 41.792,34.964 41.414,34.586 C40.669,33.841 39.378,33.828 38.619,34.554 L37.775,35.59 C37.429,36.017 36.798,36.085 36.368,35.733 C35.94,35.385 35.876,34.755 36.225,34.326 L37.104,33.247 C37.125,33.221 37.148,33.196 37.172,33.172 C38.73,31.611 41.27,31.611 42.828,33.172 C44.388,34.731 44.388,37.269 42.828,38.828 L39.499,42 L43,42 C43.553,42 44,42.447 44,43 C44,43.553 43.553,44 43,44" id="Fill-199"></path>
        </g>
    </g>
</svg>