<?xml version="1.0" encoding="UTF-8" standalone="no"?>
<svg width="44px" height="44px" viewBox="0 0 44 44" version="1.1" xmlns="http://www.w3.org/2000/svg" xmlns:xlink="http://www.w3.org/1999/xlink">
    <!-- Generator: Sketch 3.7.2 (28276) - http://www.bohemiancoding.com/sketch -->
    <title>typ-subscript-2</title>
    <desc>Created with Sketch.</desc>
    <defs></defs>
    <g id="44px-Glyph" stroke="none" stroke-width="1" fill="none" fill-rule="evenodd">
        <g id="typ-subscript-2" fill="#000000">
            <path d="M43,44 L37,44 C36.591,44 36.224,43.751 36.071,43.371 C35.92,42.992 36.015,42.558 36.31,42.276 L41.432,37.397 C41.792,37.036 42,36.534 42,36 C42,35.466 41.792,34.964 41.414,34.586 C40.669,33.841 39.379,33.828 38.619,34.554 L37.775,35.59 C37.428,36.017 36.798,36.085 36.368,35.733 C35.94,35.385 35.876,34.755 36.225,34.326 L37.104,33.247 C37.125,33.221 37.148,33.196 37.172,33.172 C38.731,31.611 41.269,31.611 42.828,33.172 C44.388,34.731 44.388,37.269 42.828,38.828 L39.499,42 L43,42 C43.553,42 44,42.447 44,43 C44,43.553 43.553,44 43,44" id="Fill-186"></path>
            <path d="M31,0 L1,0 C0.447,0 0,0.447 0,1 L0,5 C0,5.553 0.447,6 1,6 C1.553,6 2,5.553 2,5 L2,4 C2,2.897 2.898,2 4,2 L12,2 L12,27 C12,28.654 10.654,30 9,30 C8.447,30 8,30.447 8,31 C8,31.553 8.447,32 9,32 L23,32 C23.553,32 24,31.553 24,31 C24,30.447 23.553,30 23,30 C21.346,30 20,28.654 20,27 L20,2 L28,2 C29.102,2 30,2.897 30,4 L30,5 C30,5.553 30.447,6 31,6 C31.553,6 32,5.553 32,5 L32,1 C32,0.447 31.553,0 31,0" id="Fill-187"></path>
        </g>
    </g>
</svg>