<?xml version="1.0" encoding="UTF-8" standalone="no"?>
<svg width="44px" height="44px" viewBox="0 0 44 44" version="1.1" xmlns="http://www.w3.org/2000/svg" xmlns:xlink="http://www.w3.org/1999/xlink">
    <!-- Generator: Sketch 3.7.2 (28276) - http://www.bohemiancoding.com/sketch -->
    <title>typ-spacing-letter</title>
    <desc>Created with Sketch.</desc>
    <defs></defs>
    <g id="44px-Glyph" stroke="none" stroke-width="1" fill="none" fill-rule="evenodd">
        <g id="typ-spacing-letter" fill="#000000">
            <path d="M32,26 C31.583,26 31.21,25.741 31.064,25.352 L22.064,1.352 C21.87,0.834 22.132,0.258 22.648,0.064 C23.165,-0.129 23.742,0.131 23.937,0.648 L32,22.152 L40.064,0.648 C40.258,0.131 40.834,-0.129 41.352,0.064 C41.868,0.258 42.13,0.834 41.937,1.352 L32.937,25.352 C32.79,25.741 32.417,26 32,26" id="Fill-200"></path>
            <path d="M6.6931,18 L12.0001,3.848 L17.3071,18 L6.6931,18 Z M21.9361,24.648 L12.9361,0.648 C12.7901,0.259 12.4171,0 12.0001,0 C11.5831,0 11.2101,0.259 11.0631,0.648 L2.0631,24.648 C1.8701,25.166 2.1321,25.742 2.6481,25.936 C3.1661,26.128 3.7421,25.869 3.9361,25.352 L5.9431,20 L18.0571,20 L20.0631,25.352 C20.2141,25.753 20.5961,26 21.0001,26 C21.1171,26 21.2351,25.979 21.3521,25.936 C21.8681,25.742 22.1301,25.166 21.9361,24.648 L21.9361,24.648 Z" id="Fill-201"></path>
            <path d="M43.9231,37.3818 C44.0241,37.1378 44.0241,36.8628 43.9231,36.6178 C43.8721,36.4948 43.7991,36.3838 43.7061,36.2918 L37.7071,30.2928 C37.3161,29.9028 36.6841,29.9028 36.2931,30.2928 C35.9021,30.6838 35.9021,31.3168 36.2931,31.7068 L40.5861,35.9998 L3.4141,35.9998 L7.7071,31.7068 C8.0981,31.3168 8.0981,30.6838 7.7071,30.2928 C7.3161,29.9028 6.6831,29.9028 6.2931,30.2928 L0.2941,36.2918 C0.2011,36.3838 0.1281,36.4948 0.0771,36.6178 C-0.0239,36.8628 -0.0239,37.1378 0.0771,37.3818 C0.1281,37.5048 0.2011,37.6158 0.2941,37.7088 L6.2931,43.7068 C6.4881,43.9028 6.7441,43.9998 7.0001,43.9998 C7.2561,43.9998 7.5121,43.9028 7.7071,43.7068 C8.0981,43.3168 8.0981,42.6838 7.7071,42.2928 L3.4141,37.9998 L40.5861,37.9998 L36.2931,42.2928 C35.9021,42.6838 35.9021,43.3168 36.2931,43.7068 C36.4881,43.9028 36.7441,43.9998 37.0001,43.9998 C37.2561,43.9998 37.5121,43.9028 37.7071,43.7068 L43.7061,37.7088 C43.7991,37.6158 43.8721,37.5048 43.9231,37.3818" id="Fill-202"></path>
        </g>
    </g>
</svg>