<?xml version="1.0" encoding="UTF-8" standalone="no"?>
<svg width="64px" height="64px" viewBox="0 0 64 64" version="1.1" xmlns="http://www.w3.org/2000/svg" xmlns:xlink="http://www.w3.org/1999/xlink">
    <!-- Generator: Sketch 3.7.2 (28276) - http://www.bohemiancoding.com/sketch -->
    <title>typ-italic</title>
    <desc>Created with Sketch.</desc>
    <defs></defs>
    <g id="64px-Glyph" stroke="none" stroke-width="1" fill="none" fill-rule="evenodd">
        <g id="typ-italic" fill="#000000">
            <path d="M49.0469,6 L47.8609,6 C47.6659,6 47.4769,6.029 47.2859,6.048 C47.2069,6.028 47.1319,6 47.0469,6 L30.9979,6 L30.9529,6 L28.9529,6 C28.4009,6 27.9529,6.447 27.9529,7 C27.9529,7.553 28.4009,8 28.9529,8 L30.9529,8 L30.9979,8 C31.6299,8 32.2099,8.288 32.5919,8.792 C32.9729,9.294 33.0939,9.932 32.9299,10.518 L19.9899,53.078 C19.5089,54.799 17.9249,56 16.1389,56 L14.9529,56 C14.4009,56 13.9529,56.447 13.9529,57 C13.9529,57.553 14.4009,58 14.9529,58 L16.1389,58 C16.3339,58 16.5229,57.971 16.7149,57.952 C16.7929,57.972 16.8689,58 16.9529,58 L33.0019,58 L33.0469,58 L35.0469,58 C35.5999,58 36.0469,57.553 36.0469,57 C36.0469,56.447 35.5999,56 35.0469,56 L33.0469,56 L33.0019,56 C32.3699,56 31.7899,55.712 31.4079,55.208 C31.0269,54.706 30.9059,54.068 31.0699,53.482 L44.0099,10.922 C44.4909,9.201 46.0749,8 47.8609,8 L49.0469,8 C49.5999,8 50.0469,7.553 50.0469,7 C50.0469,6.447 49.5999,6 49.0469,6" id="Fill-209"></path>
        </g>
    </g>
</svg>