<?xml version="1.0" encoding="UTF-8" standalone="no"?>
<svg width="64px" height="64px" viewBox="0 0 64 64" version="1.1" xmlns="http://www.w3.org/2000/svg" xmlns:xlink="http://www.w3.org/1999/xlink">
    <!-- Generator: Sketch 3.7.2 (28276) - http://www.bohemiancoding.com/sketch -->
    <title>typ-line-height</title>
    <desc>Created with Sketch.</desc>
    <defs></defs>
    <g id="64px-Glyph" stroke="none" stroke-width="1" fill="none" fill-rule="evenodd">
        <g id="typ-line-height" fill="#000000">
            <path d="M20.293,52.293 L16,56.586 L16,31.414 L20.293,35.707 C20.488,35.902 20.744,36 21,36 C21.256,36 21.512,35.902 21.707,35.707 C22.098,35.316 22.098,34.684 21.707,34.293 L15.708,28.294 C15.616,28.201 15.505,28.128 15.382,28.077 C15.137,27.976 14.862,27.976 14.618,28.077 C14.495,28.128 14.384,28.201 14.292,28.294 L8.293,34.293 C7.902,34.684 7.902,35.316 8.293,35.707 C8.684,36.098 9.316,36.098 9.707,35.707 L14,31.414 L14,56.586 L9.707,52.293 C9.316,51.902 8.684,51.902 8.293,52.293 C7.902,52.684 7.902,53.316 8.293,53.707 L14.292,59.706 C14.384,59.799 14.495,59.872 14.618,59.923 C14.74,59.973 14.87,60 15,60 C15.13,60 15.26,59.973 15.382,59.923 C15.505,59.872 15.616,59.799 15.708,59.706 L21.707,53.707 C22.098,53.316 22.098,52.684 21.707,52.293 C21.316,51.902 20.684,51.902 20.293,52.293" id="Fill-164"></path>
            <path d="M59,60 L31,60 C30.447,60 30,59.553 30,59 C30,58.447 30.447,58 31,58 L59,58 C59.553,58 60,58.447 60,59 C60,59.553 59.553,60 59,60" id="Fill-165"></path>
            <path d="M40.6182,46 L45.0002,37.236 L49.3822,46 L40.6182,46 Z M55.8942,54.553 L45.8942,34.553 C45.5542,33.875 44.4452,33.875 44.1052,34.553 L34.1052,54.553 C33.8582,55.047 34.0582,55.648 34.5522,55.895 C35.0482,56.14 35.6462,55.941 35.8942,55.447 L39.6182,48 L50.3822,48 L54.1052,55.447 C54.2812,55.798 54.6342,56 55.0012,56 C55.1512,56 55.3032,55.966 55.4472,55.895 C55.9412,55.648 56.1412,55.047 55.8942,54.553 L55.8942,54.553 Z" id="Fill-166"></path>
            <path d="M59,30 L31,30 C30.447,30 30,29.553 30,29 C30,28.447 30.447,28 31,28 L59,28 C59.553,28 60,28.447 60,29 C60,29.553 59.553,30 59,30" id="Fill-167"></path>
            <path d="M40.6182,16 L45.0002,7.236 L49.3822,16 L40.6182,16 Z M55.8942,24.553 L45.8942,4.553 C45.5542,3.875 44.4452,3.875 44.1052,4.553 L34.1052,24.553 C33.8582,25.047 34.0582,25.648 34.5522,25.895 C35.0482,26.14 35.6462,25.941 35.8942,25.447 L39.6182,18 L50.3822,18 L54.1052,25.447 C54.2812,25.798 54.6342,26 55.0012,26 C55.1512,26 55.3032,25.966 55.4472,25.895 C55.9412,25.648 56.1412,25.047 55.8942,24.553 L55.8942,24.553 Z" id="Fill-168"></path>
        </g>
    </g>
</svg>