<?xml version="1.0" encoding="UTF-8" standalone="no"?>
<svg width="44px" height="44px" viewBox="0 0 44 44" version="1.1" xmlns="http://www.w3.org/2000/svg" xmlns:xlink="http://www.w3.org/1999/xlink">
    <!-- Generator: Sketch 3.7.2 (28276) - http://www.bohemiancoding.com/sketch -->
    <title>typ-spacing-line</title>
    <desc>Created with Sketch.</desc>
    <defs></defs>
    <g id="44px-Glyph" stroke="none" stroke-width="1" fill="none" fill-rule="evenodd">
        <g id="typ-spacing-line" fill="#000000">
            <path d="M43,44 L17,44 C16.447,44 16,43.553 16,43 C16,42.447 16.447,42 17,42 L43,42 C43.553,42 44,42.447 44,43 C44,43.553 43.553,44 43,44" id="Fill-271"></path>
            <path d="M43,24 L17,24 C16.447,24 16,23.553 16,23 C16,22.447 16.447,22 17,22 L43,22 C43.553,22 44,22.447 44,23 C44,23.553 43.553,24 43,24" id="Fill-272"></path>
            <path d="M43,4 L17,4 C16.447,4 16,3.553 16,3 C16,2.447 16.447,2 17,2 L43,2 C43.553,2 44,2.447 44,3 C44,3.553 43.553,4 43,4" id="Fill-273"></path>
            <path d="M35,14 L17,14 C16.447,14 16,13.553 16,13 C16,12.447 16.447,12 17,12 L35,12 C35.553,12 36,12.447 36,13 C36,13.553 35.553,14 35,14" id="Fill-274"></path>
            <path d="M35,34 L17,34 C16.447,34 16,33.553 16,33 C16,32.447 16.447,32 17,32 L35,32 C35.553,32 36,32.447 36,33 C36,33.553 35.553,34 35,34" id="Fill-275"></path>
            <path d="M8.293,38.293 L6,40.586 L6,5.414 L8.293,7.707 C8.488,7.902 8.744,8 9,8 C9.256,8 9.512,7.902 9.707,7.707 C10.098,7.316 10.098,6.684 9.707,6.293 L5.708,2.294 C5.616,2.201 5.505,2.128 5.382,2.077 C5.137,1.976 4.862,1.976 4.618,2.077 C4.495,2.128 4.384,2.201 4.292,2.294 L0.293,6.293 C-0.098,6.684 -0.098,7.316 0.293,7.707 C0.684,8.098 1.316,8.098 1.707,7.707 L4,5.414 L4,40.586 L1.707,38.293 C1.316,37.902 0.684,37.902 0.293,38.293 C-0.098,38.684 -0.098,39.316 0.293,39.707 L4.292,43.706 C4.384,43.799 4.495,43.872 4.618,43.923 C4.74,43.974 4.87,44 5,44 C5.13,44 5.26,43.974 5.382,43.923 C5.505,43.872 5.616,43.799 5.708,43.706 L9.707,39.707 C10.098,39.316 10.098,38.684 9.707,38.293 C9.316,37.902 8.684,37.902 8.293,38.293" id="Fill-276"></path>
        </g>
    </g>
</svg>