<?xml version="1.0" encoding="UTF-8" standalone="no"?>
<svg width="44px" height="44px" viewBox="0 0 44 44" version="1.1" xmlns="http://www.w3.org/2000/svg" xmlns:xlink="http://www.w3.org/1999/xlink">
    <!-- Generator: Sketch 3.7.2 (28276) - http://www.bohemiancoding.com/sketch -->
    <title>ui-anchor</title>
    <desc>Created with Sketch.</desc>
    <defs></defs>
    <g id="44px-Glyph" stroke="none" stroke-width="1" fill="none" fill-rule="evenodd">
        <g id="ui-anchor" fill="#000000">
            <path d="M18,5 C18,3.346 19.346,2 21,2 C22.654,2 24,3.346 24,5 C24,6.654 22.654,8 21,8 C19.346,8 18,6.654 18,5 M41.925,34.37 L40.387,30.62 C40.286,30.375 40.098,30.193 39.873,30.092 C39.868,30.089 39.865,30.085 39.86,30.083 C39.829,30.069 39.797,30.073 39.765,30.062 C39.682,30.035 39.599,30.011 39.509,30.007 C39.444,30.004 39.382,30.018 39.319,30.027 C39.27,30.034 39.223,30.028 39.175,30.042 L35.328,31.196 C34.799,31.355 34.499,31.913 34.657,32.441 C34.815,32.971 35.37,33.27 35.902,33.112 L37.498,32.633 C34.283,38.104 28.475,41.632 22,41.964 L22,16 L27,16 C27.553,16 28,15.553 28,15 C28,14.447 27.553,14 27,14 L22,14 L22,9.899 C24.279,9.434 26,7.415 26,5 C26,2.243 23.757,0 21,0 C18.243,0 16,2.243 16,5 C16,7.415 17.721,9.434 20,9.899 L20,14 L15,14 C14.447,14 14,14.447 14,15 C14,15.553 14.447,16 15,16 L20,16 L20,41.964 C13.483,41.634 7.668,38.103 4.486,32.629 L6.098,33.112 C6.628,33.27 7.185,32.971 7.343,32.441 C7.501,31.913 7.201,31.355 6.672,31.196 L2.825,30.042 C2.773,30.026 2.721,30.033 2.669,30.025 C2.611,30.017 2.555,30.005 2.495,30.007 C2.408,30.011 2.328,30.034 2.247,30.059 C2.213,30.069 2.179,30.066 2.146,30.08 C2.14,30.083 2.136,30.088 2.13,30.09 C2.016,30.142 1.91,30.212 1.822,30.303 C1.821,30.304 1.819,30.305 1.818,30.306 C1.733,30.395 1.662,30.5 1.613,30.62 L1.61,30.627 L1.61,30.628 L0.075,34.37 C-0.135,34.882 0.109,35.466 0.62,35.675 C0.745,35.727 0.873,35.75 1,35.75 C1.394,35.75 1.767,35.517 1.925,35.13 L2.63,33.41 C6.297,39.904 13.274,44 21,44 C28.687,44 35.664,39.899 39.365,33.398 L40.075,35.13 C40.233,35.517 40.606,35.75 41,35.75 C41.127,35.75 41.255,35.727 41.38,35.675 C41.891,35.466 42.135,34.882 41.925,34.37" id="Fill-24"></path>
        </g>
    </g>
</svg>