<?xml version="1.0" encoding="UTF-8" standalone="no"?>
<svg width="44px" height="44px" viewBox="0 0 44 44" version="1.1" xmlns="http://www.w3.org/2000/svg" xmlns:xlink="http://www.w3.org/1999/xlink">
    <!-- Generator: Sketch 3.7.2 (28276) - http://www.bohemiancoding.com/sketch -->
    <title>ui-button</title>
    <desc>Created with Sketch.</desc>
    <defs></defs>
    <g id="44px-Line" stroke="none" stroke-width="1" fill="none" fill-rule="evenodd">
        <g id="ui-button"></g>
        <path d="M39,4 L5,4 C2.243,4 0,6.243 0,9 L0,35 C0,37.757 2.243,40 5,40 L39,40 C41.757,40 44,37.757 44,35 L44,9 C44,6.243 41.757,4 39,4 L39,4 Z M42,35 C42,36.654 40.654,38 39,38 L5,38 C3.346,38 2,36.654 2,35 L2,9 C2,7.346 3.346,6 5,6 L39,6 C40.654,6 42,7.346 42,9 L42,35 L42,35 Z" id="Shape" fill="#000000"></path>
        <path d="M14,12 C9.589,12 6,16.486 6,22 C6,27.514 9.589,32 14,32 C18.411,32 22,27.514 22,22 C22,16.486 18.411,12 14,12 L14,12 Z M14,30 C10.691,30 8,26.411 8,22 C8,17.589 10.691,14 14,14 C17.309,14 20,17.589 20,22 C20,26.411 17.309,30 14,30 L14,30 Z" id="Shape" fill="#000000"></path>
        <path d="M37.737,12.324 C37.365,11.916 36.732,11.889 36.324,12.262 L26,21.727 L26,13 C26,12.448 25.552,12 25,12 C24.448,12 24,12.448 24,13 L24,31 C24,31.552 24.448,32 25,32 C25.552,32 26,31.552 26,31 L26,24.44 L28.58,22.075 L36.219,31.624 C36.416,31.871 36.707,31.999 37,31.999 C37.219,31.999 37.44,31.927 37.624,31.78 C38.056,31.435 38.125,30.806 37.78,30.375 L30.056,20.72 L37.675,13.736 C38.083,13.364 38.11,12.731 37.737,12.324 L37.737,12.324 Z" id="Shape" fill="#000000"></path>
    </g>
</svg>