<?xml version="1.0" encoding="UTF-8" standalone="no"?>
<svg width="44px" height="44px" viewBox="0 0 44 44" version="1.1" xmlns="http://www.w3.org/2000/svg" xmlns:xlink="http://www.w3.org/1999/xlink">
    <!-- Generator: Sketch 3.7.2 (28276) - http://www.bohemiancoding.com/sketch -->
    <title>ui-bullets</title>
    <desc>Created with Sketch.</desc>
    <defs></defs>
    <g id="44px-Glyph" stroke="none" stroke-width="1" fill="none" fill-rule="evenodd">
        <g id="ui-bullets" fill="#000000">
            <path d="M5,10 C2.243,10 0,7.757 0,5 C0,2.243 2.243,0 5,0 C7.757,0 10,2.243 10,5 C10,7.757 7.757,10 5,10" id="Fill-174"></path>
            <path d="M5,26 C2.243,26 0,23.757 0,21 C0,18.243 2.243,16 5,16 C7.757,16 10,18.243 10,21 C10,23.757 7.757,26 5,26" id="Fill-176"></path>
            <path d="M5,42 C2.243,42 0,39.757 0,37 C0,34.243 2.243,32 5,32 C7.757,32 10,34.243 10,37 C10,39.757 7.757,42 5,42" id="Fill-178"></path>
            <path d="M43,6 L15,6 C14.447,6 14,5.553 14,5 C14,4.447 14.447,4 15,4 L43,4 C43.553,4 44,4.447 44,5 C44,5.553 43.553,6 43,6" id="Fill-180"></path>
            <path d="M43,22 L15,22 C14.447,22 14,21.553 14,21 C14,20.447 14.447,20 15,20 L43,20 C43.553,20 44,20.447 44,21 C44,21.553 43.553,22 43,22" id="Fill-182"></path>
            <path d="M43,38 L15,38 C14.447,38 14,37.553 14,37 C14,36.447 14.447,36 15,36 L43,36 C43.553,36 44,36.447 44,37 C44,37.553 43.553,38 43,38" id="Fill-184"></path>
        </g>
    </g>
</svg>