<?xml version="1.0" encoding="UTF-8" standalone="no"?>
<svg width="44px" height="44px" viewBox="0 0 44 44" version="1.1" xmlns="http://www.w3.org/2000/svg" xmlns:xlink="http://www.w3.org/1999/xlink">
    <!-- Generator: Sketch 3.7.2 (28276) - http://www.bohemiancoding.com/sketch -->
    <title>ui-battery-charge</title>
    <desc>Created with Sketch.</desc>
    <defs></defs>
    <g id="44px-Glyph" stroke="none" stroke-width="1" fill="none" fill-rule="evenodd">
        <g id="ui-battery-charge" fill="#000000">
            <path d="M22.2373,21.6465 C22.0473,21.4215 21.9653,21.1255 22.0133,20.8355 L23.0613,14.5485 L16.6993,25.9995 L21.0003,25.9995 C21.2943,25.9995 21.5733,26.1285 21.7623,26.3535 C21.9533,26.5785 22.0353,26.8735 21.9863,27.1645 L20.9383,33.4515 L27.3013,21.9995 L23.0003,21.9995 C22.7063,21.9995 22.4263,21.8715 22.2373,21.6465" id="Fill-232"></path>
            <path d="M29.874,21.4854 L19.874,39.4854 C19.693,39.8104 19.354,40.0004 19,40.0004 C18.89,40.0004 18.778,39.9824 18.67,39.9444 C18.211,39.7834 17.934,39.3154 18.014,38.8354 L19.819,28.0004 L15,28.0004 C14.646,28.0004 14.317,27.8124 14.138,27.5064 C13.958,27.2024 13.954,26.8244 14.126,26.5144 L24.126,8.5144 C24.362,8.0874 24.872,7.8934 25.33,8.0554 C25.789,8.2164 26.066,8.6844 25.986,9.1644 L24.181,20.0004 L29,20.0004 C29.354,20.0004 29.683,20.1874 29.862,20.4934 C30.042,20.7984 30.046,21.1754 29.874,21.4854 M30,4.0004 L28,4.0004 L28,1.0004 C28,0.4474 27.553,0.0004 27,0.0004 L17,0.0004 C16.447,0.0004 16,0.4474 16,1.0004 L16,4.0004 L14,4.0004 C11.794,4.0004 10,5.7944 10,8.0004 L10,40.0004 C10,42.2064 11.794,44.0004 14,44.0004 L30,44.0004 C32.206,44.0004 34,42.2064 34,40.0004 L34,8.0004 C34,5.7944 32.206,4.0004 30,4.0004" id="Fill-233"></path>
        </g>
    </g>
</svg>