<?xml version="1.0" encoding="UTF-8" standalone="no"?>
<svg width="44px" height="44px" viewBox="0 0 44 44" version="1.1" xmlns="http://www.w3.org/2000/svg" xmlns:xlink="http://www.w3.org/1999/xlink">
    <!-- Generator: Sketch 3.7.2 (28276) - http://www.bohemiancoding.com/sketch -->
    <title>ui-battery-med</title>
    <desc>Created with Sketch.</desc>
    <defs></defs>
    <g id="44px-Glyph" stroke="none" stroke-width="1" fill="none" fill-rule="evenodd">
        <g id="ui-battery-med" fill="#000000">
            <polygon id="Fill-228" points="16 38 28 38 28 24 16 24"></polygon>
            <path d="M30,39 C30,39.553 29.553,40 29,40 L15,40 C14.447,40 14,39.553 14,39 L14,23 C14,22.447 14.447,22 15,22 L29,22 C29.553,22 30,22.447 30,23 L30,39 Z M30,4 L28,4 L28,1 C28,0.447 27.553,0 27,0 L17,0 C16.447,0 16,0.447 16,1 L16,4 L14,4 C11.794,4 10,5.794 10,8 L10,40 C10,42.206 11.794,44 14,44 L30,44 C32.206,44 34,42.206 34,40 L34,8 C34,5.794 32.206,4 30,4 L30,4 Z" id="Fill-229"></path>
        </g>
    </g>
</svg>