<?xml version="1.0" encoding="UTF-8" standalone="no"?>
<svg width="44px" height="44px" viewBox="0 0 44 44" version="1.1" xmlns="http://www.w3.org/2000/svg" xmlns:xlink="http://www.w3.org/1999/xlink">
    <!-- Generator: Sketch 3.7.2 (28276) - http://www.bohemiancoding.com/sketch -->
    <title>ui-battery-block</title>
    <desc>Created with Sketch.</desc>
    <defs></defs>
    <g id="44px-Glyph" stroke="none" stroke-width="1" fill="none" fill-rule="evenodd">
        <g id="ui-battery-block" fill="#000000">
            <path d="M17.1149,20.5288 C16.4159,21.5098 15.9999,22.7058 15.9999,23.9998 C15.9999,27.3088 18.6909,29.9998 21.9999,29.9998 C23.2939,29.9998 24.4899,29.5838 25.4709,28.8858 L17.1149,20.5288 Z" id="Fill-217"></path>
            <path d="M22,18 C20.706,18 19.51,18.416 18.529,19.115 L26.885,27.471 C27.584,26.49 28,25.294 28,24 C28,20.691 25.309,18 22,18" id="Fill-219"></path>
            <path d="M27.667,29.6401 C27.662,29.6451 27.661,29.6511 27.656,29.6561 C27.651,29.6611 27.645,29.6621 27.64,29.6671 C26.193,31.1081 24.199,32.0001 22,32.0001 C17.589,32.0001 14,28.4111 14,24.0001 C14,21.8011 14.892,19.8071 16.333,18.3601 C16.338,18.3551 16.339,18.3481 16.344,18.3441 C16.349,18.3391 16.355,18.3371 16.36,18.3331 C17.807,16.8921 19.801,16.0001 22,16.0001 C26.411,16.0001 30,19.5891 30,24.0001 C30,26.1991 29.108,28.1921 27.667,29.6401 M30,4.0001 L28,4.0001 L28,1.0001 C28,0.4471 27.553,0.0001 27,0.0001 L17,0.0001 C16.447,0.0001 16,0.4471 16,1.0001 L16,4.0001 L14,4.0001 C11.794,4.0001 10,5.7941 10,8.0001 L10,40.0001 C10,42.2061 11.794,44.0001 14,44.0001 L30,44.0001 C32.206,44.0001 34,42.2061 34,40.0001 L34,8.0001 C34,5.7941 32.206,4.0001 30,4.0001" id="Fill-221"></path>
        </g>
    </g>
</svg>