<?xml version="1.0" encoding="UTF-8" standalone="no"?>
<svg width="44px" height="44px" viewBox="0 0 44 44" version="1.1" xmlns="http://www.w3.org/2000/svg" xmlns:xlink="http://www.w3.org/1999/xlink">
    <!-- Generator: Sketch 3.7.2 (28276) - http://www.bohemiancoding.com/sketch -->
    <title>ui-battery-power</title>
    <desc>Created with Sketch.</desc>
    <defs></defs>
    <g id="44px-Glyph" stroke="none" stroke-width="1" fill="none" fill-rule="evenodd">
        <g id="ui-battery-power" fill="#000000">
            <path d="M32.2266,21.6338 C32.0366,21.4028 31.9606,21.0978 32.0196,20.8038 L33.1056,15.3718 L26.9436,23.9998 L30.9996,23.9998 C31.2996,23.9998 31.5826,24.1348 31.7736,24.3658 C31.9626,24.5978 32.0396,24.9028 31.9806,25.1968 L30.8946,30.6278 L37.0566,21.9998 L32.9996,21.9998 C32.7006,21.9998 32.4166,21.8648 32.2266,21.6338" id="Fill-210"></path>
            <path d="M17,6 L14,6 L14,3 C14,2.447 13.553,2 13,2 C12.447,2 12,2.447 12,3 L12,6 L6,6 L6,3 C6,2.447 5.553,2 5,2 C4.447,2 4,2.447 4,3 L4,6 L1,6 C0.447,6 0,6.447 0,7 C0,7.553 0.447,8 1,8 L2,8 L2,9 C2,12.519 4.614,15.432 8,15.92 L8,43 C8,43.553 8.447,44 9,44 C9.553,44 10,43.553 10,43 L10,15.92 C13.386,15.432 16,12.519 16,9 L16,8 L17,8 C17.553,8 18,7.553 18,7 C18,6.447 17.553,6 17,6" id="Fill-212"></path>
            <path d="M39.8135,21.5811 L29.8135,35.5811 C29.6215,35.8511 29.3145,36.0001 29.0005,36.0001 C28.8665,36.0001 28.7315,35.9741 28.6025,35.9181 C28.1695,35.7301 27.9265,35.2671 28.0195,34.8041 L29.7805,26.0001 L25.0005,26.0001 C24.6255,26.0001 24.2825,25.7911 24.1105,25.4581 C23.9395,25.1241 23.9685,24.7241 24.1865,24.4191 L34.1865,10.4191 C34.4605,10.0351 34.9665,9.8961 35.3975,10.0821 C35.8305,10.2691 36.0735,10.7331 35.9805,11.1961 L34.2195,20.0001 L39.0005,20.0001 C39.3755,20.0001 39.7175,20.2091 39.8895,20.5421 C40.0605,20.8761 40.0315,21.2761 39.8135,21.5811 M40.0005,4.0001 L38.0005,4.0001 L38.0005,1.0001 C38.0005,0.4471 37.5525,0.0001 37.0005,0.0001 L27.0005,0.0001 C26.4475,0.0001 26.0005,0.4471 26.0005,1.0001 L26.0005,4.0001 L24.0005,4.0001 C21.7935,4.0001 20.0005,5.7941 20.0005,8.0001 L20.0005,40.0001 C20.0005,42.2061 21.7935,44.0001 24.0005,44.0001 L40.0005,44.0001 C42.2065,44.0001 44.0005,42.2061 44.0005,40.0001 L44.0005,8.0001 C44.0005,5.7941 42.2065,4.0001 40.0005,4.0001" id="Fill-214"></path>
        </g>
    </g>
</svg>