<?xml version="1.0" encoding="UTF-8" standalone="no"?>
<svg width="64px" height="64px" viewBox="0 0 64 64" version="1.1" xmlns="http://www.w3.org/2000/svg" xmlns:xlink="http://www.w3.org/1999/xlink">
    <!-- Generator: Sketch 3.7.2 (28276) - http://www.bohemiancoding.com/sketch -->
    <title>ui-checkbox-list</title>
    <desc>Created with Sketch.</desc>
    <defs></defs>
    <g id="64px-Line" stroke="none" stroke-width="1" fill="none" fill-rule="evenodd">
        <g id="ui-checkbox-list"></g>
        <path d="M6,7 L6,19 C6,19.553 6.448,20 7,20 L19,20 C19.552,20 20,19.553 20,19 L20,7 C20,6.447 19.552,6 19,6 L7,6 C6.448,6 6,6.447 6,7 L6,7 Z M8,8 L18,8 L18,18 L8,18 L8,8 L8,8 Z" id="Shape" fill="#000000"></path>
        <path d="M20,27 C20,26.447 19.552,26 19,26 L7,26 C6.448,26 6,26.447 6,27 L6,39 C6,39.553 6.448,40 7,40 L19,40 C19.552,40 20,39.553 20,39 L20,27 L20,27 Z M18,38 L8,38 L8,28 L18,28 L18,38 L18,38 Z" id="Shape" fill="#000000"></path>
        <path d="M19,46 L7,46 C6.448,46 6,46.447 6,47 L6,59 C6,59.553 6.448,60 7,60 L19,60 C19.552,60 20,59.553 20,59 L20,47 C20,46.447 19.552,46 19,46 L19,46 Z M18,58 L8,58 L8,48 L18,48 L18,58 L18,58 Z" id="Shape" fill="#000000"></path>
        <path d="M57,12 L27,12 C26.448,12 26,12.447 26,13 C26,13.553 26.448,14 27,14 L57,14 C57.552,14 58,13.553 58,13 C58,12.447 57.552,12 57,12 L57,12 Z" id="Shape" fill="#000000"></path>
        <path d="M57,32 L27,32 C26.448,32 26,32.447 26,33 C26,33.553 26.448,34 27,34 L57,34 C57.552,34 58,33.553 58,33 C58,32.447 57.552,32 57,32 L57,32 Z" id="Shape" fill="#000000"></path>
        <path d="M57,52 L27,52 C26.448,52 26,52.447 26,53 C26,53.553 26.448,54 27,54 L57,54 C57.552,54 58,53.553 58,53 C58,52.447 57.552,52 57,52 L57,52 Z" id="Shape" fill="#000000"></path>
        <path d="M16.707,9.293 C16.316,8.902 15.684,8.902 15.293,9.293 L13,11.586 L10.707,9.293 C10.316,8.902 9.684,8.902 9.293,9.293 C8.902,9.684 8.902,10.316 9.293,10.707 L11.586,13 L9.293,15.293 C8.902,15.684 8.902,16.316 9.293,16.707 C9.488,16.902 9.744,17 10,17 C10.256,17 10.512,16.902 10.707,16.707 L13,14.414 L15.293,16.707 C15.488,16.902 15.744,17 16,17 C16.256,17 16.512,16.902 16.707,16.707 C17.098,16.316 17.098,15.684 16.707,15.293 L14.414,13 L16.707,10.707 C17.098,10.316 17.098,9.684 16.707,9.293 L16.707,9.293 Z" id="Shape" fill="#000000"></path>
        <path d="M9.293,56.707 C9.488,56.902 9.744,57 10,57 C10.256,57 10.512,56.902 10.707,56.707 L13,54.414 L15.293,56.707 C15.488,56.902 15.744,57 16,57 C16.256,57 16.512,56.902 16.707,56.707 C17.098,56.316 17.098,55.684 16.707,55.293 L14.414,53 L16.707,50.707 C17.098,50.316 17.098,49.684 16.707,49.293 C16.316,48.902 15.684,48.902 15.293,49.293 L13,51.586 L10.707,49.293 C10.316,48.902 9.684,48.902 9.293,49.293 C8.902,49.684 8.902,50.316 9.293,50.707 L11.586,53 L9.293,55.293 C8.902,55.684 8.902,56.316 9.293,56.707 L9.293,56.707 Z" id="Shape" fill="#000000"></path>
    </g>
</svg>