<?xml version="1.0" encoding="UTF-8" standalone="no"?>
<svg width="44px" height="44px" viewBox="0 0 44 44" version="1.1" xmlns="http://www.w3.org/2000/svg" xmlns:xlink="http://www.w3.org/1999/xlink">
    <!-- Generator: Sketch 3.7.2 (28276) - http://www.bohemiancoding.com/sketch -->
    <title>ui-check</title>
    <desc>Created with Sketch.</desc>
    <defs></defs>
    <g id="44px-Line" stroke="none" stroke-width="1" fill="none" fill-rule="evenodd">
        <g id="ui-check"></g>
        <path d="M35,20 C34.447,20 34,20.447 34,21 L34,38 L2,38 L2,6 L34,6 L34,9 C34,9.553 34.447,10 35,10 C35.553,10 36,9.553 36,9 L36,5 C36,4.447 35.553,4 35,4 L1,4 C0.447,4 0,4.447 0,5 L0,39 C0,39.553 0.447,40 1,40 L35,40 C35.553,40 36,39.553 36,39 L36,21 C36,20.447 35.553,20 35,20 L35,20 Z" id="Shape" fill="#000000"></path>
        <path d="M42.291,6.295 L18.105,30.589 L9.703,22.288 C9.308,21.9 8.677,21.905 8.288,22.297 C7.9,22.691 7.904,23.323 8.297,23.712 L17.408,32.712 C17.603,32.904 17.857,33 18.111,33 C18.368,33 18.625,32.901 18.82,32.705 L43.709,7.705 C44.099,7.314 44.097,6.681 43.705,6.291 C43.315,5.901 42.681,5.904 42.291,6.295 L42.291,6.295 Z" id="Shape" fill="#000000"></path>
    </g>
</svg>