<?xml version="1.0" encoding="UTF-8" standalone="no"?>
<svg width="44px" height="44px" viewBox="0 0 44 44" version="1.1" xmlns="http://www.w3.org/2000/svg" xmlns:xlink="http://www.w3.org/1999/xlink">
    <!-- Generator: Sketch 3.7.2 (28276) - http://www.bohemiancoding.com/sketch -->
    <title>ui-checkboxes-2</title>
    <desc>Created with Sketch.</desc>
    <defs></defs>
    <g id="44px-Line" stroke="none" stroke-width="1" fill="none" fill-rule="evenodd">
        <g id="ui-checkboxes-2"></g>
        <path d="M15,20 L29,20 C30.654,20 32,18.654 32,17 L32,3 C32,1.346 30.654,0 29,0 L15,0 C13.346,0 12,1.346 12,3 L12,17 C12,18.654 13.346,20 15,20 L15,20 Z M14,3 C14,2.449 14.449,2 15,2 L29,2 C29.551,2 30,2.449 30,3 L30,17 C30,17.551 29.551,18 29,18 L15,18 C14.449,18 14,17.551 14,17 L14,3 L14,3 Z" id="Shape" fill="#000000"></path>
        <path d="M12,41 C12,42.654 13.346,44 15,44 L29,44 C30.654,44 32,42.654 32,41 L32,27 C32,25.346 30.654,24 29,24 L15,24 C13.346,24 12,25.346 12,27 L12,41 L12,41 Z M14,27 C14,26.449 14.449,26 15,26 L29,26 C29.551,26 30,26.449 30,27 L30,41 C30,41.551 29.551,42 29,42 L15,42 C14.449,42 14,41.551 14,41 L14,27 L14,27 Z" id="Shape" fill="#000000"></path>
        <path d="M19.293,13.707 C19.488,13.902 19.744,14 20,14 C20.256,14 20.512,13.902 20.707,13.707 L27.707,6.707 C28.098,6.316 28.098,5.684 27.707,5.293 C27.316,4.902 26.684,4.902 26.293,5.293 L20,11.586 L17.707,9.293 C17.316,8.902 16.684,8.902 16.293,9.293 C15.902,9.684 15.902,10.316 16.293,10.707 L19.293,13.707 L19.293,13.707 Z" id="Shape" fill="#000000"></path>
    </g>
</svg>