<?xml version="1.0" encoding="UTF-8" standalone="no"?>
<svg width="44px" height="44px" viewBox="0 0 44 44" version="1.1" xmlns="http://www.w3.org/2000/svg" xmlns:xlink="http://www.w3.org/1999/xlink">
    <!-- Generator: Sketch 3.7.2 (28276) - http://www.bohemiancoding.com/sketch -->
    <title>ui-checkbox-list-2</title>
    <desc>Created with Sketch.</desc>
    <defs></defs>
    <g id="44px-Line" stroke="none" stroke-width="1" fill="none" fill-rule="evenodd">
        <g id="ui-checkbox-list-2"></g>
        <path d="M1,18 L13,18 C13.552,18 14,17.553 14,17 L14,5 C14,4.447 13.552,4 13,4 L1,4 C0.448,4 0,4.447 0,5 L0,17 C0,17.553 0.448,18 1,18 L1,18 Z M2,6 L12,6 L12,16 L2,16 L2,6 L2,6 Z" id="Shape" fill="#000000"></path>
        <path d="M1,40 L13,40 C13.552,40 14,39.553 14,39 L14,27 C14,26.447 13.552,26 13,26 L1,26 C0.448,26 0,26.447 0,27 L0,39 C0,39.553 0.448,40 1,40 L1,40 Z M2,28 L12,28 L12,38 L2,38 L2,28 L2,28 Z" id="Shape" fill="#000000"></path>
        <path d="M43,10 L19,10 C18.448,10 18,10.447 18,11 C18,11.553 18.448,12 19,12 L43,12 C43.552,12 44,11.553 44,11 C44,10.447 43.552,10 43,10 L43,10 Z" id="Shape" fill="#000000"></path>
        <path d="M43,32 L19,32 C18.448,32 18,32.447 18,33 C18,33.553 18.448,34 19,34 L43,34 C43.552,34 44,33.553 44,33 C44,32.447 43.552,32 43,32 L43,32 Z" id="Shape" fill="#000000"></path>
        <path d="M9.293,8.293 L6,11.586 L4.707,10.293 C4.316,9.902 3.684,9.902 3.293,10.293 C2.902,10.684 2.902,11.316 3.293,11.707 L5.293,13.707 C5.488,13.902 5.744,14 6,14 C6.256,14 6.512,13.902 6.707,13.707 L10.707,9.707 C11.098,9.316 11.098,8.684 10.707,8.293 C10.316,7.902 9.684,7.902 9.293,8.293 L9.293,8.293 Z" id="Shape" fill="#000000"></path>
    </g>
</svg>