<?xml version="1.0" encoding="UTF-8" standalone="no"?>
<svg width="44px" height="44px" viewBox="0 0 44 44" version="1.1" xmlns="http://www.w3.org/2000/svg" xmlns:xlink="http://www.w3.org/1999/xlink">
    <!-- Generator: Sketch 3.7.2 (28276) - http://www.bohemiancoding.com/sketch -->
    <title>ui-cover</title>
    <desc>Created with Sketch.</desc>
    <defs></defs>
    <g id="44px-Line" stroke="none" stroke-width="1" fill="none" fill-rule="evenodd">
        <g id="ui-cover"></g>
        <path d="M1,42 C1.552,42 2,41.553 2,41 L2,3 C2,2.447 1.552,2 1,2 C0.448,2 0,2.447 0,3 L0,41 C0,41.553 0.448,42 1,42 L1,42 Z" id="Shape" fill="#000000"></path>
        <path d="M8.293,11.707 C8.684,12.098 9.316,12.098 9.707,11.707 C10.098,11.316 10.098,10.684 9.707,10.293 L5.707,6.293 C5.421,6.007 4.992,5.919 4.617,6.076 C4.244,6.23 4,6.596 4,7 L4,37 C4,37.404 4.244,37.77 4.617,37.924 C4.741,37.976 4.871,38 5,38 C5.26,38 5.516,37.898 5.707,37.707 L9.707,33.707 C10.098,33.316 10.098,32.684 9.707,32.293 C9.316,31.902 8.684,31.902 8.293,32.293 L6,34.586 L6,9.414 L8.293,11.707 L8.293,11.707 Z" id="Shape" fill="#000000"></path>
        <path d="M35.707,32.293 C35.316,31.902 34.684,31.902 34.293,32.293 C33.902,32.684 33.902,33.316 34.293,33.707 L38.293,37.707 C38.484,37.898 38.74,38 39,38 C39.129,38 39.259,37.976 39.383,37.924 C39.756,37.77 40,37.404 40,37 L40,7 C40,6.596 39.756,6.23 39.383,6.076 C39.008,5.919 38.579,6.007 38.293,6.293 L34.293,10.293 C33.902,10.684 33.902,11.316 34.293,11.707 C34.684,12.098 35.316,12.098 35.707,11.707 L38,9.414 L38,34.586 L35.707,32.293 L35.707,32.293 Z" id="Shape" fill="#000000"></path>
        <path d="M43,2 C42.448,2 42,2.447 42,3 L42,41 C42,41.553 42.448,42 43,42 C43.552,42 44,41.553 44,41 L44,3 C44,2.447 43.552,2 43,2 L43,2 Z" id="Shape" fill="#000000"></path>
        <path d="M13,12 C12.448,12 12,12.447 12,13 L12,31 C12,31.553 12.448,32 13,32 L31,32 C31.552,32 32,31.553 32,31 L32,13 C32,12.447 31.552,12 31,12 L13,12 L13,12 Z M30,30 L14,30 L14,14 L30,14 L30,30 L30,30 Z" id="Shape" fill="#000000"></path>
    </g>
</svg>