<?xml version="1.0" encoding="UTF-8" standalone="no"?>
<svg width="64px" height="64px" viewBox="0 0 64 64" version="1.1" xmlns="http://www.w3.org/2000/svg" xmlns:xlink="http://www.w3.org/1999/xlink">
    <!-- Generator: Sketch 3.7.2 (28276) - http://www.bohemiancoding.com/sketch -->
    <title>ui-checkboxes</title>
    <desc>Created with Sketch.</desc>
    <defs></defs>
    <g id="64px-Line" stroke="none" stroke-width="1" fill="none" fill-rule="evenodd">
        <g id="ui-checkboxes"></g>
        <path d="M21,30 L41,30 C42.654,30 44,28.654 44,27 L44,7 C44,5.346 42.654,4 41,4 L21,4 C19.346,4 18,5.346 18,7 L18,27 C18,28.654 19.346,30 21,30 L21,30 Z M20,7 C20,6.449 20.449,6 21,6 L41,6 C41.551,6 42,6.449 42,7 L42,27 C42,27.551 41.551,28 41,28 L21,28 C20.449,28 20,27.551 20,27 L20,7 L20,7 Z" id="Shape" fill="#000000"></path>
        <path d="M18,57 C18,58.654 19.346,60 21,60 L41,60 C42.654,60 44,58.654 44,57 L44,37 C44,35.346 42.654,34 41,34 L21,34 C19.346,34 18,35.346 18,37 L18,57 L18,57 Z M20,37 C20,36.449 20.449,36 21,36 L41,36 C41.551,36 42,36.449 42,37 L42,57 C42,57.551 41.551,58 41,58 L21,58 C20.449,58 20,57.551 20,57 L20,37 L20,37 Z" id="Shape" fill="#000000"></path>
        <path d="M25.293,22.707 C25.488,22.902 25.744,23 26,23 C26.256,23 26.512,22.902 26.707,22.707 L31,18.414 L35.293,22.707 C35.488,22.902 35.744,23 36,23 C36.256,23 36.512,22.902 36.707,22.707 C37.098,22.316 37.098,21.684 36.707,21.293 L32.414,17 L36.707,12.707 C37.098,12.316 37.098,11.684 36.707,11.293 C36.316,10.902 35.684,10.902 35.293,11.293 L31,15.586 L26.707,11.293 C26.316,10.902 25.684,10.902 25.293,11.293 C24.902,11.684 24.902,12.316 25.293,12.707 L29.586,17 L25.293,21.293 C24.902,21.684 24.902,22.316 25.293,22.707 L25.293,22.707 Z" id="Shape" fill="#000000"></path>
    </g>
</svg>