<?xml version="1.0" encoding="UTF-8" standalone="no"?>
<svg width="44px" height="44px" viewBox="0 0 44 44" version="1.1" xmlns="http://www.w3.org/2000/svg" xmlns:xlink="http://www.w3.org/1999/xlink">
    <!-- Generator: Sketch 3.7.2 (28276) - http://www.bohemiancoding.com/sketch -->
    <title>ui-cross</title>
    <desc>Created with Sketch.</desc>
    <defs></defs>
    <g id="44px-Line" stroke="none" stroke-width="1" fill="none" fill-rule="evenodd">
        <g id="ui-cross"></g>
        <path d="M43.707,0.293 C43.316,-0.098 42.684,-0.098 42.293,0.293 L22,20.586 L1.707,0.293 C1.316,-0.098 0.684,-0.098 0.293,0.293 C-0.098,0.684 -0.098,1.316 0.293,1.707 L20.586,22 L0.293,42.293 C-0.098,42.684 -0.098,43.316 0.293,43.707 C0.488,43.902 0.744,44 1,44 C1.256,44 1.512,43.902 1.707,43.707 L22,23.414 L42.293,43.707 C42.488,43.902 42.744,44 43,44 C43.256,44 43.512,43.902 43.707,43.707 C44.098,43.316 44.098,42.684 43.707,42.293 L23.414,22 L43.707,1.707 C44.098,1.316 44.098,0.684 43.707,0.293 L43.707,0.293 Z" id="Shape" fill="#000000"></path>
    </g>
</svg>