<?xml version="1.0" encoding="UTF-8" standalone="no"?>
<svg width="44px" height="44px" viewBox="0 0 44 44" version="1.1" xmlns="http://www.w3.org/2000/svg" xmlns:xlink="http://www.w3.org/1999/xlink">
    <!-- Generator: Sketch 3.7.2 (28276) - http://www.bohemiancoding.com/sketch -->
    <title>ui-delete</title>
    <desc>Created with Sketch.</desc>
    <defs></defs>
    <g id="44px-Line" stroke="none" stroke-width="1" fill="none" fill-rule="evenodd">
        <g id="ui-delete"></g>
        <path d="M40,6 L19.373,6 C17.588,6 15.888,6.672 14.585,7.893 L2.65,19.082 C1.847,19.835 1.386,20.899 1.386,22 C1.386,23.101 1.847,24.165 2.65,24.918 L14.585,36.107 C15.887,37.328 17.587,38 19.373,38 L40,38 C42.206,38 44,36.206 44,34 L44,10 C44,7.794 42.206,6 40,6 L40,6 Z M42,34 C42,35.103 41.103,36 40,36 L19.373,36 C18.098,36 16.883,35.52 15.954,34.648 L4.019,23.459 C3.611,23.077 3.387,22.559 3.387,22 C3.387,21.441 3.612,20.923 4.019,20.541 L15.954,9.352 C16.884,8.48 18.098,8 19.373,8 L40,8 C41.103,8 42,8.897 42,10 L42,34 L42,34 Z" id="Shape" fill="#000000"></path>
        <path d="M35.707,14.293 C35.316,13.902 34.684,13.902 34.293,14.293 L28,20.586 L21.707,14.293 C21.316,13.902 20.684,13.902 20.293,14.293 C19.902,14.684 19.902,15.316 20.293,15.707 L26.586,22 L20.293,28.293 C19.902,28.684 19.902,29.316 20.293,29.707 C20.488,29.902 20.744,30 21,30 C21.256,30 21.512,29.902 21.707,29.707 L28,23.414 L34.293,29.707 C34.488,29.902 34.744,30 35,30 C35.256,30 35.512,29.902 35.707,29.707 C36.098,29.316 36.098,28.684 35.707,28.293 L29.414,22 L35.707,15.707 C36.098,15.316 36.098,14.684 35.707,14.293 L35.707,14.293 Z" id="Shape" fill="#000000"></path>
    </g>
</svg>