<?xml version="1.0" encoding="UTF-8" standalone="no"?>
<svg width="64px" height="64px" viewBox="0 0 64 64" version="1.1" xmlns="http://www.w3.org/2000/svg" xmlns:xlink="http://www.w3.org/1999/xlink">
    <!-- Generator: Sketch 3.7.2 (28276) - http://www.bohemiancoding.com/sketch -->
    <title>ui-dropdown-2</title>
    <desc>Created with Sketch.</desc>
    <defs></defs>
    <g id="64px-Line" stroke="none" stroke-width="1" fill="none" fill-rule="evenodd">
        <g id="ui-dropdown-2"></g>
        <path d="M47.561,37.828 C47.836,37.642 48,37.332 48,37 L48,15 C48,14.59 47.75,14.221 47.368,14.07 C46.988,13.919 46.552,14.016 46.271,14.316 L31.271,30.316 C31.045,30.557 30.953,30.894 31.024,31.217 C31.095,31.54 31.322,31.806 31.628,31.929 L35.687,33.552 L31.077,44.615 C30.974,44.862 30.974,45.14 31.078,45.387 C31.182,45.634 31.38,45.829 31.628,45.929 L36.628,47.929 C36.75,47.977 36.876,48 37,48 C37.392,48 37.764,47.768 37.923,47.384 L42.544,36.294 L46.628,37.928 C46.938,38.052 47.287,38.015 47.561,37.828 L47.561,37.828 Z M46,35.523 L42.372,34.071 C41.864,33.87 41.288,34.111 41.078,34.615 L36.457,45.705 L33.314,44.448 L37.924,33.385 C38.027,33.138 38.027,32.86 37.923,32.613 C37.819,32.366 37.621,32.171 37.373,32.071 L33.733,30.615 L46,17.529 L46,35.523 L46,35.523 Z" id="Shape" fill="#000000"></path>
        <path d="M53,6 L9,6 C6.243,6 4,8.243 4,11 L4,53 C4,55.757 6.243,58 9,58 L53,58 C55.757,58 58,55.757 58,53 L58,11 C58,8.243 55.757,6 53,6 L53,6 Z M53,56 L9,56 C7.346,56 6,54.654 6,53 L6,42 L29.333,42 C29.885,42 30.333,41.552 30.333,41 C30.333,40.448 29.885,40 29.333,40 L6,40 L6,24 L34.018,24 C34.57,24 35.018,23.552 35.018,23 C35.018,22.448 34.57,22 34.018,22 L6,22 L6,11 C6,9.346 7.346,8 9,8 L53,8 C54.654,8 56,9.346 56,11 L56,22 L51,22 C50.448,22 50,22.448 50,23 C50,23.552 50.448,24 51,24 L56,24 L56,40 L43.833,40 C43.281,40 42.833,40.448 42.833,41 C42.833,41.552 43.281,42 43.833,42 L56,42 L56,53 C56,54.654 54.654,56 53,56 L53,56 Z" id="Shape" fill="#000000"></path>
    </g>
</svg>