<?xml version="1.0" encoding="UTF-8" standalone="no"?>
<svg width="44px" height="44px" viewBox="0 0 44 44" version="1.1" xmlns="http://www.w3.org/2000/svg" xmlns:xlink="http://www.w3.org/1999/xlink">
    <!-- Generator: Sketch 3.7.2 (28276) - http://www.bohemiancoding.com/sketch -->
    <title>ui-field-text</title>
    <desc>Created with Sketch.</desc>
    <defs></defs>
    <g id="44px-Line" stroke="none" stroke-width="1" fill="none" fill-rule="evenodd">
        <g id="ui-field-text"></g>
        <path d="M39,6 L5,6 C2.243,6 0,8.243 0,11 L0,35 C0,37.757 2.243,40 5,40 L39,40 C41.757,40 44,37.757 44,35 L44,11 C44,8.243 41.757,6 39,6 L39,6 Z M42,35 C42,36.654 40.654,38 39,38 L5,38 C3.346,38 2,36.654 2,35 L2,11 C2,9.346 3.346,8 5,8 L39,8 C40.654,8 42,9.346 42,11 L42,35 L42,35 Z" id="Shape" fill="#000000"></path>
        <path d="M15,14 C15.552,14 16,13.552 16,13 C16,12.448 15.552,12 15,12 C13.359,12 11.912,12.806 11,14.031 C10.088,12.806 8.641,12 7,12 C6.448,12 6,12.448 6,13 C6,13.552 6.448,14 7,14 C8.654,14 10,15.346 10,17 L10,29 C10,30.654 8.654,32 7,32 C6.448,32 6,32.448 6,33 C6,33.552 6.448,34 7,34 C8.641,34 10.088,33.194 11,31.969 C11.912,33.194 13.359,34 15,34 C15.552,34 16,33.552 16,33 C16,32.448 15.552,32 15,32 C13.346,32 12,30.654 12,29 L12,17 C12,15.346 13.346,14 15,14 L15,14 Z" id="Shape" fill="#000000"></path>
    </g>
</svg>