<?xml version="1.0" encoding="UTF-8" standalone="no"?>
<svg width="44px" height="44px" viewBox="0 0 44 44" version="1.1" xmlns="http://www.w3.org/2000/svg" xmlns:xlink="http://www.w3.org/1999/xlink">
    <!-- Generator: Sketch 3.7.2 (28276) - http://www.bohemiancoding.com/sketch -->
    <title>ui-link-cross</title>
    <desc>Created with Sketch.</desc>
    <defs></defs>
    <g id="44px-Line" stroke="none" stroke-width="1" fill="none" fill-rule="evenodd">
        <g id="ui-link-cross"></g>
        <path d="M33,22 C26.935,22 22,26.935 22,33 C22,39.065 26.935,44 33,44 C39.065,44 44,39.065 44,33 C44,26.935 39.065,22 33,22 L33,22 Z M33,42 C28.038,42 24,37.963 24,33 C24,28.037 28.038,24 33,24 C37.962,24 42,28.037 42,33 C42,37.963 37.962,42 33,42 L33,42 Z" id="Shape" fill="#000000"></path>
        <path d="M37.707,28.293 C37.316,27.902 36.684,27.902 36.293,28.293 L33,31.586 L29.707,28.293 C29.316,27.902 28.684,27.902 28.293,28.293 C27.902,28.684 27.902,29.316 28.293,29.707 L31.586,33 L28.293,36.293 C27.902,36.684 27.902,37.316 28.293,37.707 C28.488,37.902 28.744,38 29,38 C29.256,38 29.512,37.902 29.707,37.707 L33,34.414 L36.293,37.707 C36.488,37.902 36.744,38 37,38 C37.256,38 37.512,37.902 37.707,37.707 C38.098,37.316 38.098,36.684 37.707,36.293 L34.414,33 L37.707,29.707 C38.098,29.316 38.098,28.684 37.707,28.293 L37.707,28.293 Z" id="Shape" fill="#000000"></path>
        <path d="M30.511,16.54 C29.404,17.646 27.875,18.165 26.326,17.956 C25.779,17.885 25.276,18.268 25.203,18.815 C25.13,19.362 25.515,19.865 26.062,19.938 C26.377,19.98 26.691,20 27.003,20 C28.843,20 30.599,19.279 31.925,17.953 L37.954,11.924 C40.677,9.2 40.677,4.769 37.954,2.045 C35.23,-0.678 30.799,-0.678 28.075,2.045 L22.046,8.074 C20.481,9.638 19.76,11.795 20.068,13.988 C20.144,14.535 20.652,14.918 21.197,14.84 C21.744,14.764 22.125,14.258 22.049,13.711 C21.829,12.145 22.344,10.606 23.461,9.488 L29.49,3.459 C31.434,1.517 34.597,1.515 36.541,3.459 C38.485,5.403 38.484,8.565 36.541,10.51 L30.511,16.54 L30.511,16.54 Z" id="Shape" fill="#000000"></path>
        <path d="M18.816,25.202 C18.268,25.274 17.883,25.777 17.956,26.325 C18.162,27.878 17.646,29.404 16.539,30.511 L10.51,36.54 C8.566,38.482 5.403,38.484 3.459,36.54 C1.516,34.596 1.516,31.434 3.459,29.489 L9.488,23.46 C10.607,22.341 12.15,21.825 13.715,22.05 C14.258,22.131 14.768,21.747 14.845,21.2 C14.922,20.653 14.542,20.146 13.995,20.069 C11.802,19.757 9.642,20.479 8.074,22.046 L2.045,28.075 C-0.678,30.799 -0.678,35.23 2.045,37.954 C3.407,39.315 5.195,39.996 6.984,39.996 C8.773,39.996 10.562,39.315 11.923,37.954 L17.952,31.925 C19.502,30.374 20.226,28.237 19.937,26.062 C19.867,25.514 19.365,25.132 18.816,25.202 L18.816,25.202 Z" id="Shape" fill="#000000"></path>
        <path d="M11.293,28.707 C11.488,28.902 11.744,29 12,29 C12.256,29 12.512,28.902 12.707,28.707 L28.707,12.707 C29.098,12.316 29.098,11.684 28.707,11.293 C28.316,10.902 27.684,10.902 27.293,11.293 L11.293,27.293 C10.902,27.684 10.902,28.316 11.293,28.707 L11.293,28.707 Z" id="Shape" fill="#000000"></path>
    </g>
</svg>