<?xml version="1.0" encoding="UTF-8" standalone="no"?>
<svg width="44px" height="44px" viewBox="0 0 44 44" version="1.1" xmlns="http://www.w3.org/2000/svg" xmlns:xlink="http://www.w3.org/1999/xlink">
    <!-- Generator: Sketch 3.7.2 (28276) - http://www.bohemiancoding.com/sketch -->
    <title>ui-link-2</title>
    <desc>Created with Sketch.</desc>
    <defs></defs>
    <g id="44px-Line" stroke="none" stroke-width="1" fill="none" fill-rule="evenodd">
        <g id="ui-link-2"></g>
        <path d="M30.278,24.321 C29.887,24.712 29.887,25.344 30.278,25.735 C30.669,26.126 31.301,26.126 31.692,25.735 L39.218,18.209 C42.92,14.507 42.92,8.483 39.218,4.781 C35.517,1.078 29.491,1.078 25.79,4.781 L16.78,13.791 C13.078,17.493 13.078,23.517 16.78,27.219 C18.039,28.479 19.62,29.357 21.35,29.756 C21.425,29.774 21.501,29.781 21.576,29.781 C22.031,29.781 22.442,29.469 22.55,29.006 C22.674,28.468 22.338,27.931 21.8,27.807 C20.436,27.493 19.189,26.8 18.195,25.805 C15.273,22.883 15.273,18.127 18.195,15.205 L27.205,6.195 C30.127,3.273 34.883,3.273 37.805,6.195 C40.727,9.117 40.727,13.873 37.805,16.795 L30.278,24.321 L30.278,24.321 Z" id="Shape" fill="#000000"></path>
        <path d="M2.781,41.219 C4.632,43.071 7.063,43.995 9.495,43.995 C11.927,43.995 14.358,43.07 16.209,41.219 L25.219,32.209 C28.921,28.507 28.921,22.483 25.219,18.781 C23.961,17.522 22.382,16.645 20.653,16.244 C20.117,16.12 19.578,16.455 19.453,16.993 C19.329,17.531 19.664,18.068 20.202,18.193 C21.566,18.508 22.812,19.201 23.806,20.195 C26.728,23.117 26.728,27.873 23.806,30.795 L14.796,39.805 C11.874,42.727 7.118,42.727 4.196,39.805 C1.274,36.883 1.274,32.127 4.196,29.205 L11.722,21.679 C12.113,21.288 12.113,20.656 11.722,20.265 C11.331,19.874 10.699,19.874 10.308,20.265 L2.782,27.791 C-0.921,31.493 -0.921,37.517 2.781,41.219 L2.781,41.219 Z" id="Shape" fill="#000000"></path>
    </g>
</svg>