<?xml version="1.0" encoding="UTF-8" standalone="no"?>
<svg width="64px" height="64px" viewBox="0 0 64 64" version="1.1" xmlns="http://www.w3.org/2000/svg" xmlns:xlink="http://www.w3.org/1999/xlink">
    <!-- Generator: Sketch 3.7.2 (28276) - http://www.bohemiancoding.com/sketch -->
    <title>ui-link-minus</title>
    <desc>Created with Sketch.</desc>
    <defs></defs>
    <g id="64px-Glyph" stroke="none" stroke-width="1" fill="none" fill-rule="evenodd">
        <g id="ui-link-minus" fill="#000000">
            <path d="M40.7256,30.3594 C39.9446,30.3594 39.1576,30.2584 38.3856,30.0524 C37.8516,29.9104 37.5356,29.3624 37.6776,28.8294 C37.8206,28.2954 38.3766,27.9794 38.9016,28.1214 C41.3416,28.7674 43.9726,28.0684 45.7606,26.2824 L53.9196,18.1224 C55.2616,16.7814 55.9996,14.9984 55.9996,13.1014 C55.9996,11.2054 55.2616,9.4224 53.9196,8.0814 C52.5796,6.7394 50.7956,6.0014 48.8996,6.0014 C47.0026,6.0014 45.2196,6.7394 43.8786,8.0814 L35.7186,16.2404 C33.9316,18.0274 33.2276,20.6574 33.8806,23.1034 C34.0236,23.6364 33.7066,24.1844 33.1726,24.3274 C32.6476,24.4724 32.0916,24.1534 31.9496,23.6194 C31.1116,20.4864 32.0136,17.1174 34.3046,14.8264 L42.4646,6.6674 C44.1836,4.9484 46.4686,4.0014 48.8996,4.0014 C51.3306,4.0014 53.6156,4.9484 55.3336,6.6674 C57.0526,8.3854 57.9996,10.6704 57.9996,13.1014 C57.9996,15.5324 57.0526,17.8174 55.3336,19.5364 L47.1746,27.6964 C45.4496,29.4224 43.1126,30.3594 40.7256,30.3594" id="Fill-42"></path>
            <path d="M13.1006,58.001 C10.6696,58.001 8.3846,57.054 6.6656,55.335 C4.9476,53.616 3.9996,51.331 3.9996,48.9 C3.9996,46.47 4.9476,44.185 6.6656,42.466 L14.8256,34.306 C17.1146,32.016 20.4836,31.111 23.6186,31.95 C24.1526,32.093 24.4686,32.641 24.3266,33.174 C24.1846,33.708 23.6316,34.026 23.1026,33.882 C20.6526,33.228 18.0256,33.934 16.2396,35.72 L8.0806,43.88 C6.7386,45.221 5.9996,47.004 5.9996,48.9 C5.9996,50.797 6.7386,52.58 8.0806,53.921 C9.4206,55.263 11.2046,56.001 13.1006,56.001 C14.9976,56.001 16.7806,55.263 18.1216,53.921 L26.2816,45.762 C28.0686,43.975 28.7726,41.347 28.1206,38.902 C27.9776,38.369 28.2936,37.821 28.8286,37.679 C29.3576,37.537 29.9096,37.853 30.0516,38.387 C30.8886,41.518 29.9856,44.886 27.6956,47.176 L19.5356,55.335 C17.8166,57.054 15.5316,58.001 13.1006,58.001" id="Fill-44"></path>
            <path d="M20.2607,42.7403 C20.0047,42.7403 19.7487,42.6423 19.5537,42.4473 C19.1627,42.0563 19.1627,41.4243 19.5537,41.0333 L41.0317,19.5543 C41.4227,19.1643 42.0557,19.1643 42.4467,19.5543 C42.8367,19.9453 42.8367,20.5783 42.4467,20.9693 L20.9677,42.4473 C20.7727,42.6423 20.5167,42.7403 20.2607,42.7403" id="Fill-46"></path>
            <path d="M53,48.001 L41,48.001 C40.447,48.001 40,47.554 40,47.001 C40,46.448 40.447,46.001 41,46.001 L53,46.001 C53.553,46.001 54,46.448 54,47.001 C54,47.554 53.553,48.001 53,48.001 M47,34.001 C39.832,34.001 34,39.833 34,47.001 C34,54.169 39.832,60.001 47,60.001 C54.168,60.001 60,54.169 60,47.001 C60,39.833 54.168,34.001 47,34.001" id="Fill-48"></path>
        </g>
    </g>
</svg>