<?xml version="1.0" encoding="UTF-8" standalone="no"?>
<svg width="64px" height="64px" viewBox="0 0 64 64" version="1.1" xmlns="http://www.w3.org/2000/svg" xmlns:xlink="http://www.w3.org/1999/xlink">
    <!-- Generator: Sketch 3.7.2 (28276) - http://www.bohemiancoding.com/sketch -->
    <title>ui-list</title>
    <desc>Created with Sketch.</desc>
    <defs></defs>
    <g id="64px-Glyph" stroke="none" stroke-width="1" fill="none" fill-rule="evenodd">
        <g id="ui-list" fill="#000000">
            <path d="M33,26.001 L13,26.001 C12.447,26.001 12,25.554 12,25.001 C12,24.448 12.447,24.001 13,24.001 L33,24.001 C33.553,24.001 34,24.448 34,25.001 C34,25.554 33.553,26.001 33,26.001 L33,26.001 Z M33,34.001 L13,34.001 C12.447,34.001 12,33.554 12,33.001 C12,32.448 12.447,32.001 13,32.001 L33,32.001 C33.553,32.001 34,32.448 34,33.001 C34,33.554 33.553,34.001 33,34.001 L33,34.001 Z M33,42.001 L13,42.001 C12.447,42.001 12,41.554 12,41.001 C12,40.448 12.447,40.001 13,40.001 L33,40.001 C33.553,40.001 34,40.448 34,41.001 C34,41.554 33.553,42.001 33,42.001 L33,42.001 Z M33,50.001 L13,50.001 C12.447,50.001 12,49.554 12,49.001 C12,48.448 12.447,48.001 13,48.001 L33,48.001 C33.553,48.001 34,48.448 34,49.001 C34,49.554 33.553,50.001 33,50.001 L33,50.001 Z M13,16.001 L33,16.001 C33.553,16.001 34,16.448 34,17.001 C34,17.554 33.553,18.001 33,18.001 L13,18.001 C12.447,18.001 12,17.554 12,17.001 C12,16.448 12.447,16.001 13,16.001 L13,16.001 Z M38,6.001 L11,6.001 C8.243,6.001 6,8.244 6,11.001 L6,55.001 C6,57.758 8.243,60.001 11,60.001 L38,60.001 L38,6.001 Z" id="Fill-387"></path>
            <polygon id="Fill-388" points="40 42.001 58 42.001 58 24.001 40 24.001"></polygon>
            <path d="M52.707,49.708 L48.707,53.708 C48.512,53.903 48.256,54.001 48,54.001 C47.744,54.001 47.488,53.903 47.293,53.708 L43.293,49.708 C42.902,49.317 42.902,48.685 43.293,48.294 C43.684,47.903 44.316,47.903 44.707,48.294 L48,51.587 L51.293,48.294 C51.684,47.903 52.316,47.903 52.707,48.294 C53.098,48.685 53.098,49.317 52.707,49.708 L52.707,49.708 Z M40,44.001 L40,60.001 L53,60.001 C55.757,60.001 58,57.758 58,55.001 L58,44.001 L40,44.001 Z" id="Fill-389"></path>
            <path d="M47.293,12.294 C47.684,11.903 48.316,11.903 48.707,12.294 L52.707,16.294 C53.098,16.685 53.098,17.317 52.707,17.708 C52.512,17.903 52.256,18.001 52,18.001 C51.744,18.001 51.488,17.903 51.293,17.708 L48,14.415 L44.707,17.708 C44.316,18.099 43.684,18.099 43.293,17.708 C42.902,17.317 42.902,16.685 43.293,16.294 L47.293,12.294 Z M40,22.001 L58,22.001 L58,11.001 C58,8.244 55.757,6.001 53,6.001 L40,6.001 L40,22.001 Z" id="Fill-390"></path>
        </g>
    </g>
</svg>