<?xml version="1.0" encoding="UTF-8" standalone="no"?>
<svg width="44px" height="44px" viewBox="0 0 44 44" version="1.1" xmlns="http://www.w3.org/2000/svg" xmlns:xlink="http://www.w3.org/1999/xlink">
    <!-- Generator: Sketch 3.7.2 (28276) - http://www.bohemiancoding.com/sketch -->
    <title>ui-link-broken-2</title>
    <desc>Created with Sketch.</desc>
    <defs></defs>
    <g id="44px-Line" stroke="none" stroke-width="1" fill="none" fill-rule="evenodd">
        <g id="ui-link-broken-2"></g>
        <path d="M10.707,12.707 C11.098,12.316 11.098,11.684 10.707,11.293 L5.707,6.293 C5.316,5.902 4.684,5.902 4.293,6.293 C3.902,6.684 3.902,7.316 4.293,7.707 L9.293,12.707 C9.488,12.902 9.744,13 10,13 C10.256,13 10.512,12.902 10.707,12.707 L10.707,12.707 Z" id="Shape" fill="#000000"></path>
        <path d="M16,11 L16,5 C16,4.447 15.553,4 15,4 C14.447,4 14,4.447 14,5 L14,11 C14,11.553 14.447,12 15,12 C15.553,12 16,11.553 16,11 L16,11 Z" id="Shape" fill="#000000"></path>
        <path d="M3,16 C2.447,16 2,16.447 2,17 C2,17.553 2.447,18 3,18 L9,18 C9.553,18 10,17.553 10,17 C10,16.447 9.553,16 9,16 L3,16 L3,16 Z" id="Shape" fill="#000000"></path>
        <path d="M31.293,33.293 C30.902,33.684 30.902,34.316 31.293,34.707 L36.293,39.707 C36.488,39.902 36.744,40 37,40 C37.256,40 37.512,39.902 37.707,39.707 C38.098,39.316 38.098,38.684 37.707,38.293 L32.707,33.293 C32.316,32.902 31.684,32.902 31.293,33.293 L31.293,33.293 Z" id="Shape" fill="#000000"></path>
        <path d="M27,34 C26.447,34 26,34.447 26,35 L26,41 C26,41.553 26.447,42 27,42 C27.553,42 28,41.553 28,41 L28,35 C28,34.447 27.553,34 27,34 L27,34 Z" id="Shape" fill="#000000"></path>
        <path d="M40,29 C40,28.447 39.553,28 39,28 L33,28 C32.447,28 32,28.447 32,29 C32,29.553 32.447,30 33,30 L39,30 C39.553,30 40,29.553 40,29 L40,29 Z" id="Shape" fill="#000000"></path>
        <path d="M39.219,4.781 C35.518,1.078 29.492,1.078 25.791,4.781 L16.781,13.791 C13.079,17.493 13.079,23.517 16.781,27.219 C18.04,28.479 19.621,29.357 21.351,29.756 C21.426,29.774 21.502,29.781 21.577,29.781 C22.032,29.781 22.443,29.469 22.551,29.006 C22.675,28.468 22.339,27.931 21.801,27.807 C20.437,27.493 19.19,26.8 18.196,25.805 C15.274,22.883 15.274,18.127 18.196,15.205 L27.206,6.195 C30.128,3.273 34.884,3.273 37.806,6.195 C40.728,9.117 40.728,13.873 37.806,16.795 L30.28,24.321 C29.889,24.712 29.889,25.344 30.28,25.735 C30.671,26.126 31.303,26.126 31.694,25.735 L39.22,18.209 C42.921,14.507 42.921,8.483 39.219,4.781 L39.219,4.781 Z" id="Shape" fill="#000000"></path>
        <path d="M2.781,41.219 C4.632,43.071 7.063,43.995 9.495,43.995 C11.927,43.995 14.358,43.07 16.209,41.219 L25.219,32.209 C28.921,28.507 28.921,22.483 25.219,18.781 C23.961,17.522 22.382,16.645 20.653,16.244 C20.116,16.12 19.578,16.455 19.453,16.993 C19.329,17.531 19.664,18.068 20.202,18.193 C21.566,18.508 22.812,19.201 23.806,20.195 C26.728,23.117 26.728,27.873 23.806,30.795 L14.796,39.805 C11.874,42.727 7.118,42.727 4.196,39.805 C1.274,36.883 1.274,32.127 4.196,29.205 L11.722,21.679 C12.113,21.288 12.113,20.656 11.722,20.265 C11.331,19.874 10.699,19.874 10.308,20.265 L2.782,27.791 C-0.921,31.493 -0.921,37.517 2.781,41.219 L2.781,41.219 Z" id="Shape" fill="#000000"></path>
    </g>
</svg>