<?xml version="1.0" encoding="UTF-8" standalone="no"?>
<svg width="64px" height="64px" viewBox="0 0 64 64" version="1.1" xmlns="http://www.w3.org/2000/svg" xmlns:xlink="http://www.w3.org/1999/xlink">
    <!-- Generator: Sketch 3.7.2 (28276) - http://www.bohemiancoding.com/sketch -->
    <title>ui-menu-circle</title>
    <desc>Created with Sketch.</desc>
    <defs></defs>
    <g id="64px-Line" stroke="none" stroke-width="1" fill="none" fill-rule="evenodd">
        <g id="ui-menu-circle"></g>
        <path d="M31,60 C45.888,60 58,47.888 58,33 C58,18.112 45.888,6 31,6 C16.112,6 4,18.112 4,33 C4,47.888 16.112,60 31,60 L31,60 Z M31,8 C44.785,8 56,19.215 56,33 C56,46.785 44.785,58 31,58 C17.215,58 6,46.785 6,33 C6,19.215 17.215,8 31,8 L31,8 Z" id="Shape" fill="#000000"></path>
        <path d="M17,24 L45,24 C45.552,24 46,23.553 46,23 C46,22.447 45.552,22 45,22 L17,22 C16.448,22 16,22.447 16,23 C16,23.553 16.448,24 17,24 L17,24 Z" id="Shape" fill="#000000"></path>
        <path d="M17,34 L45,34 C45.552,34 46,33.553 46,33 C46,32.447 45.552,32 45,32 L17,32 C16.448,32 16,32.447 16,33 C16,33.553 16.448,34 17,34 L17,34 Z" id="Shape" fill="#000000"></path>
        <path d="M17,44 L45,44 C45.552,44 46,43.553 46,43 C46,42.447 45.552,42 45,42 L17,42 C16.448,42 16,42.447 16,43 C16,43.553 16.448,44 17,44 L17,44 Z" id="Shape" fill="#000000"></path>
    </g>
</svg>