<?xml version="1.0" encoding="UTF-8" standalone="no"?>
<svg width="64px" height="64px" viewBox="0 0 64 64" version="1.1" xmlns="http://www.w3.org/2000/svg" xmlns:xlink="http://www.w3.org/1999/xlink">
    <!-- Generator: Sketch 3.7.2 (28276) - http://www.bohemiancoding.com/sketch -->
    <title>ui-menu-rounded</title>
    <desc>Created with Sketch.</desc>
    <defs></defs>
    <g id="64px-Line" stroke="none" stroke-width="1" fill="none" fill-rule="evenodd">
        <g id="ui-menu-rounded"></g>
        <path d="M6,49 C6,53.963 10.038,58 15,58 L49,58 C53.962,58 58,53.963 58,49 L58,17 C58,12.037 53.962,8 49,8 L15,8 C10.038,8 6,12.037 6,17 L6,49 L6,49 Z M8,17 C8,13.141 11.14,10 15,10 L49,10 C52.86,10 56,13.141 56,17 L56,49 C56,52.859 52.86,56 49,56 L15,56 C11.14,56 8,52.859 8,49 L8,17 L8,17 Z" id="Shape" fill="#000000"></path>
        <path d="M17,22 L47,22 C47.552,22 48,21.553 48,21 C48,20.447 47.552,20 47,20 L17,20 C16.448,20 16,20.447 16,21 C16,21.553 16.448,22 17,22 L17,22 Z" id="Shape" fill="#000000"></path>
        <path d="M17,34 L47,34 C47.552,34 48,33.553 48,33 C48,32.447 47.552,32 47,32 L17,32 C16.448,32 16,32.447 16,33 C16,33.553 16.448,34 17,34 L17,34 Z" id="Shape" fill="#000000"></path>
        <path d="M17,46 L47,46 C47.552,46 48,45.553 48,45 C48,44.447 47.552,44 47,44 L17,44 C16.448,44 16,44.447 16,45 C16,45.553 16.448,46 17,46 L17,46 Z" id="Shape" fill="#000000"></path>
    </g>
</svg>