<?xml version="1.0" encoding="UTF-8" standalone="no"?>
<svg width="64px" height="64px" viewBox="0 0 64 64" version="1.1" xmlns="http://www.w3.org/2000/svg" xmlns:xlink="http://www.w3.org/1999/xlink">
    <!-- Generator: Sketch 3.7.2 (28276) - http://www.bohemiancoding.com/sketch -->
    <title>ui-radios-2</title>
    <desc>Created with Sketch.</desc>
    <defs></defs>
    <g id="64px-Line" stroke="none" stroke-width="1" fill="none" fill-rule="evenodd">
        <g id="ui-radios-2"></g>
        <path d="M57,12 L27,12 C26.448,12 26,12.447 26,13 C26,13.553 26.448,14 27,14 L57,14 C57.552,14 58,13.553 58,13 C58,12.447 57.552,12 57,12 L57,12 Z" id="Shape" fill="#000000"></path>
        <path d="M57,32 L27,32 C26.448,32 26,32.447 26,33 C26,33.553 26.448,34 27,34 L57,34 C57.552,34 58,33.553 58,33 C58,32.447 57.552,32 57,32 L57,32 Z" id="Shape" fill="#000000"></path>
        <path d="M57,52 L27,52 C26.448,52 26,52.447 26,53 C26,53.553 26.448,54 27,54 L57,54 C57.552,54 58,53.553 58,53 C58,52.447 57.552,52 57,52 L57,52 Z" id="Shape" fill="#000000"></path>
        <path d="M13,20 C16.86,20 20,16.859 20,13 C20,9.141 16.86,6 13,6 C9.14,6 6,9.141 6,13 C6,16.859 9.14,20 13,20 L13,20 Z M13,8 C15.757,8 18,10.243 18,13 C18,15.757 15.757,18 13,18 C10.243,18 8,15.757 8,13 C8,10.243 10.243,8 13,8 L13,8 Z" id="Shape" fill="#000000"></path>
        <path d="M13,40 C16.86,40 20,36.859 20,33 C20,29.141 16.86,26 13,26 C9.14,26 6,29.141 6,33 C6,36.859 9.14,40 13,40 L13,40 Z M13,28 C15.757,28 18,30.243 18,33 C18,35.757 15.757,38 13,38 C10.243,38 8,35.757 8,33 C8,30.243 10.243,28 13,28 L13,28 Z" id="Shape" fill="#000000"></path>
        <path d="M13,60 C16.86,60 20,56.859 20,53 C20,49.141 16.86,46 13,46 C9.14,46 6,49.141 6,53 C6,56.859 9.14,60 13,60 L13,60 Z M13,48 C15.757,48 18,50.243 18,53 C18,55.757 15.757,58 13,58 C10.243,58 8,55.757 8,53 C8,50.243 10.243,48 13,48 L13,48 Z" id="Shape" fill="#000000"></path>
        <path d="M13,16 C14.654,16 16,14.654 16,13 C16,11.346 14.654,10 13,10 C11.346,10 10,11.346 10,13 C10,14.654 11.346,16 13,16 L13,16 Z M13,12 C13.551,12 14,12.448 14,13 C14,13.552 13.551,14 13,14 C12.449,14 12,13.552 12,13 C12,12.448 12.449,12 13,12 L13,12 Z" id="Shape" fill="#000000"></path>
        <path d="M13,56 C14.654,56 16,54.654 16,53 C16,51.346 14.654,50 13,50 C11.346,50 10,51.346 10,53 C10,54.654 11.346,56 13,56 L13,56 Z M13,52 C13.551,52 14,52.448 14,53 C14,53.552 13.551,54 13,54 C12.449,54 12,53.552 12,53 C12,52.448 12.449,52 13,52 L13,52 Z" id="Shape" fill="#000000"></path>
    </g>
</svg>