<?xml version="1.0" encoding="UTF-8" standalone="no"?>
<svg width="64px" height="64px" viewBox="0 0 64 64" version="1.1" xmlns="http://www.w3.org/2000/svg" xmlns:xlink="http://www.w3.org/1999/xlink">
    <!-- Generator: Sketch 3.7.2 (28276) - http://www.bohemiancoding.com/sketch -->
    <title>ui-radios</title>
    <desc>Created with Sketch.</desc>
    <defs></defs>
    <g id="64px-Line" stroke="none" stroke-width="1" fill="none" fill-rule="evenodd">
        <g id="ui-radios"></g>
        <path d="M31,4 C23.832,4 18,9.832 18,17 C18,24.168 23.832,30 31,30 C38.168,30 44,24.168 44,17 C44,9.832 38.168,4 31,4 L31,4 Z M31,28 C24.935,28 20,23.065 20,17 C20,10.935 24.935,6 31,6 C37.065,6 42,10.935 42,17 C42,23.065 37.065,28 31,28 L31,28 Z" id="Shape" fill="#000000"></path>
        <path d="M31,34 C23.832,34 18,39.832 18,47 C18,54.168 23.832,60 31,60 C38.168,60 44,54.168 44,47 C44,39.832 38.168,34 31,34 L31,34 Z M31,58 C24.935,58 20,53.065 20,47 C20,40.935 24.935,36 31,36 C37.065,36 42,40.935 42,47 C42,53.065 37.065,58 31,58 L31,58 Z" id="Shape" fill="#000000"></path>
        <path d="M31,10 C27.14,10 24,13.14 24,17 C24,20.86 27.14,24 31,24 C34.86,24 38,20.86 38,17 C38,13.14 34.86,10 31,10 L31,10 Z M31,22 C28.243,22 26,19.757 26,17 C26,14.243 28.243,12 31,12 C33.757,12 36,14.243 36,17 C36,19.757 33.757,22 31,22 L31,22 Z" id="Shape" fill="#000000"></path>
    </g>
</svg>