<?xml version="1.0" encoding="UTF-8" standalone="no"?>
<svg width="64px" height="64px" viewBox="0 0 64 64" version="1.1" xmlns="http://www.w3.org/2000/svg" xmlns:xlink="http://www.w3.org/1999/xlink">
    <!-- Generator: Sketch 3.7.2 (28276) - http://www.bohemiancoding.com/sketch -->
    <title>ui-sliders</title>
    <desc>Created with Sketch.</desc>
    <defs></defs>
    <g id="64px-Line" stroke="none" stroke-width="1" fill="none" fill-rule="evenodd">
        <g id="ui-sliders"></g>
        <path d="M23,8 C16.935,8 12,12.935 12,19 C12,25.065 16.935,30 23,30 C29.065,30 34,25.065 34,19 C34,12.935 29.065,8 23,8 L23,8 Z M23,28 C18.038,28 14,23.963 14,19 C14,14.037 18.038,10 23,10 C27.962,10 32,14.037 32,19 C32,23.963 27.962,28 23,28 L23,28 Z" id="Shape" fill="#000000"></path>
        <path d="M23,12 C19.14,12 16,15.141 16,19 C16,19.553 16.448,20 17,20 C17.552,20 18,19.553 18,19 C18,16.243 20.243,14 23,14 C23.552,14 24,13.553 24,13 C24,12.447 23.552,12 23,12 L23,12 Z" id="Shape" fill="#000000"></path>
        <path d="M7,22 L9,22 C9.552,22 10,21.553 10,21 C10,20.447 9.552,20 9,20 L7,20 C6.449,20 6,19.552 6,19 C6,18.448 6.449,18 7,18 L9,18 C9.552,18 10,17.553 10,17 C10,16.447 9.552,16 9,16 L7,16 C5.346,16 4,17.346 4,19 C4,20.654 5.346,22 7,22 L7,22 Z" id="Shape" fill="#000000"></path>
        <path d="M55,16 L37,16 C36.448,16 36,16.447 36,17 C36,17.553 36.448,18 37,18 L55,18 C55.551,18 56,18.448 56,19 C56,19.552 55.551,20 55,20 L37,20 C36.448,20 36,20.447 36,21 C36,21.553 36.448,22 37,22 L55,22 C56.654,22 58,20.654 58,19 C58,17.346 56.654,16 55,16 L55,16 Z" id="Shape" fill="#000000"></path>
        <path d="M50,45 C50,38.935 45.065,34 39,34 C32.935,34 28,38.935 28,45 C28,51.065 32.935,56 39,56 C45.065,56 50,51.065 50,45 L50,45 Z M30,45 C30,40.037 34.038,36 39,36 C43.962,36 48,40.037 48,45 C48,49.963 43.962,54 39,54 C34.038,54 30,49.963 30,45 L30,45 Z" id="Shape" fill="#000000"></path>
        <path d="M40,39 C40,38.447 39.552,38 39,38 C35.14,38 32,41.141 32,45 C32,45.553 32.448,46 33,46 C33.552,46 34,45.553 34,45 C34,42.243 36.243,40 39,40 C39.552,40 40,39.553 40,39 L40,39 Z" id="Shape" fill="#000000"></path>
        <path d="M55,42 L53,42 C52.448,42 52,42.447 52,43 C52,43.553 52.448,44 53,44 L55,44 C55.551,44 56,44.448 56,45 C56,45.552 55.551,46 55,46 L53,46 C52.448,46 52,46.447 52,47 C52,47.553 52.448,48 53,48 L55,48 C56.654,48 58,46.654 58,45 C58,43.346 56.654,42 55,42 L55,42 Z" id="Shape" fill="#000000"></path>
        <path d="M7,48 L25,48 C25.552,48 26,47.553 26,47 C26,46.447 25.552,46 25,46 L7,46 C6.449,46 6,45.552 6,45 C6,44.448 6.449,44 7,44 L25,44 C25.552,44 26,43.553 26,43 C26,42.447 25.552,42 25,42 L7,42 C5.346,42 4,43.346 4,45 C4,46.654 5.346,48 7,48 L7,48 Z" id="Shape" fill="#000000"></path>
    </g>
</svg>