<?xml version="1.0" encoding="UTF-8" standalone="no"?>
<svg width="64px" height="64px" viewBox="0 0 64 64" version="1.1" xmlns="http://www.w3.org/2000/svg" xmlns:xlink="http://www.w3.org/1999/xlink">
    <!-- Generator: Sketch 3.7.2 (28276) - http://www.bohemiancoding.com/sketch -->
    <title>ui-select</title>
    <desc>Created with Sketch.</desc>
    <defs></defs>
    <g id="64px-Line" stroke="none" stroke-width="1" fill="none" fill-rule="evenodd">
        <g id="ui-select"></g>
        <path d="M31.023,31.217 C31.095,31.539 31.322,31.806 31.628,31.929 L35.686,33.552 L31.077,44.615 C30.973,44.862 30.974,45.14 31.078,45.387 C31.182,45.633 31.38,45.828 31.629,45.928 L36.629,47.928 C36.75,47.978 36.876,48 37,48 C37.392,48 37.764,47.769 37.923,47.385 L42.544,36.295 L46.629,37.929 C46.935,38.053 47.285,38.014 47.561,37.828 C47.835,37.641 48,37.332 48,37 L48,15 C48,14.59 47.749,14.221 47.368,14.07 C46.987,13.918 46.552,14.016 46.27,14.316 L31.27,30.316 C31.045,30.557 30.952,30.895 31.023,31.217 L31.023,31.217 Z M46,17.528 L46,35.523 L42.371,34.071 C41.868,33.868 41.287,34.11 41.077,34.615 L36.456,45.705 L33.313,44.448 L37.922,33.385 C38.026,33.138 38.025,32.86 37.921,32.613 C37.817,32.367 37.619,32.172 37.37,32.072 L33.73,30.616 L46,17.528 L46,17.528 Z" id="Shape" fill="#000000"></path>
        <path d="M58,56 C58,55.447 57.553,55 57,55 C56.447,55 56,55.447 56,56 L56,58 L54,58 C53.447,58 53,58.447 53,59 C53,59.553 53.447,60 54,60 L57,60 C57.553,60 58,59.553 58,59 L58,56 L58,56 Z" id="Shape" fill="#000000"></path>
        <path d="M27.715,58 C27.162,58 26.715,58.447 26.715,59 C26.715,59.553 27.162,60 27.715,60 L34.286,60 C34.839,60 35.286,59.553 35.286,59 C35.286,58.447 34.839,58 34.286,58 L27.715,58 L27.715,58 Z" id="Shape" fill="#000000"></path>
        <path d="M21.143,58 L14.572,58 C14.019,58 13.572,58.447 13.572,59 C13.572,59.553 14.019,60 14.572,60 L21.143,60 C21.696,60 22.143,59.553 22.143,59 C22.143,58.447 21.695,58 21.143,58 L21.143,58 Z" id="Shape" fill="#000000"></path>
        <path d="M47.429,58 L40.858,58 C40.305,58 39.858,58.447 39.858,59 C39.858,59.553 40.305,60 40.858,60 L47.429,60 C47.982,60 48.429,59.553 48.429,59 C48.429,58.447 47.981,58 47.429,58 L47.429,58 Z" id="Shape" fill="#000000"></path>
        <path d="M5,60 L8,60 C8.553,60 9,59.553 9,59 C9,58.447 8.553,58 8,58 L6,58 L6,56 C6,55.447 5.553,55 5,55 C4.447,55 4,55.447 4,56 L4,59 C4,59.553 4.447,60 5,60 L5,60 Z" id="Shape" fill="#000000"></path>
        <path d="M5,37.286 C5.553,37.286 6,36.839 6,36.286 L6,29.715 C6,29.162 5.553,28.715 5,28.715 C4.447,28.715 4,29.162 4,29.715 L4,36.286 C4,36.839 4.447,37.286 5,37.286 L5,37.286 Z" id="Shape" fill="#000000"></path>
        <path d="M5,50.429 C5.553,50.429 6,49.982 6,49.429 L6,42.858 C6,42.305 5.553,41.858 5,41.858 C4.447,41.858 4,42.305 4,42.858 L4,49.429 C4,49.981 4.447,50.429 5,50.429 L5,50.429 Z" id="Shape" fill="#000000"></path>
        <path d="M5,24.143 C5.553,24.143 6,23.696 6,23.143 L6,16.572 C6,16.019 5.553,15.572 5,15.572 C4.447,15.572 4,16.019 4,16.572 L4,23.143 C4,23.695 4.447,24.143 5,24.143 L5,24.143 Z" id="Shape" fill="#000000"></path>
        <path d="M5,11 C5.553,11 6,10.553 6,10 L6,8 L8,8 C8.553,8 9,7.553 9,7 C9,6.447 8.553,6 8,6 L5,6 C4.447,6 4,6.447 4,7 L4,10 C4,10.553 4.447,11 5,11 L5,11 Z" id="Shape" fill="#000000"></path>
        <path d="M47.429,6 L40.858,6 C40.305,6 39.858,6.447 39.858,7 C39.858,7.553 40.305,8 40.858,8 L47.429,8 C47.982,8 48.429,7.553 48.429,7 C48.429,6.447 47.981,6 47.429,6 L47.429,6 Z" id="Shape" fill="#000000"></path>
        <path d="M27.714,8 L34.285,8 C34.838,8 35.285,7.553 35.285,7 C35.285,6.447 34.838,6 34.285,6 L27.714,6 C27.161,6 26.714,6.447 26.714,7 C26.714,7.553 27.161,8 27.714,8 L27.714,8 Z" id="Shape" fill="#000000"></path>
        <path d="M21.143,6 L14.572,6 C14.019,6 13.572,6.447 13.572,7 C13.572,7.553 14.019,8 14.572,8 L21.143,8 C21.696,8 22.143,7.553 22.143,7 C22.143,6.447 21.695,6 21.143,6 L21.143,6 Z" id="Shape" fill="#000000"></path>
        <path d="M58,7 C58,6.447 57.553,6 57,6 L54,6 C53.447,6 53,6.447 53,7 C53,7.553 53.447,8 54,8 L56,8 L56,10 C56,10.553 56.447,11 57,11 C57.553,11 58,10.553 58,10 L58,7 L58,7 Z" id="Shape" fill="#000000"></path>
        <path d="M58,42.857 C58,42.304 57.553,41.857 57,41.857 C56.447,41.857 56,42.304 56,42.857 L56,49.428 C56,49.981 56.447,50.428 57,50.428 C57.553,50.428 58,49.981 58,49.428 L58,42.857 L58,42.857 Z" id="Shape" fill="#000000"></path>
        <path d="M58,16.571 C58,16.018 57.553,15.571 57,15.571 C56.447,15.571 56,16.018 56,16.571 L56,23.142 C56,23.695 56.447,24.142 57,24.142 C57.553,24.142 58,23.695 58,23.142 L58,16.571 L58,16.571 Z" id="Shape" fill="#000000"></path>
        <path d="M58,29.714 C58,29.161 57.553,28.714 57,28.714 C56.447,28.714 56,29.161 56,29.714 L56,36.285 C56,36.838 56.447,37.285 57,37.285 C57.553,37.285 58,36.838 58,36.285 L58,29.714 L58,29.714 Z" id="Shape" fill="#000000"></path>
    </g>
</svg>