<?xml version="1.0" encoding="UTF-8" standalone="no"?>
<svg width="64px" height="64px" viewBox="0 0 64 64" version="1.1" xmlns="http://www.w3.org/2000/svg" xmlns:xlink="http://www.w3.org/1999/xlink">
    <!-- Generator: Sketch 3.7.2 (28276) - http://www.bohemiancoding.com/sketch -->
    <title>ui-switch</title>
    <desc>Created with Sketch.</desc>
    <defs></defs>
    <g id="64px-Line" stroke="none" stroke-width="1" fill="none" fill-rule="evenodd">
        <g id="ui-switch"></g>
        <path d="M55,12 L9,12 C6.243,12 4,14.243 4,17 L4,47 C4,49.757 6.243,52 9,52 L55,52 C57.757,52 60,49.757 60,47 L60,17 C60,14.243 57.757,12 55,12 L55,12 Z M6,47 L6,17 C6,15.346 7.346,14 9,14 L30,14 L30,50 L9,50 C7.346,50 6,48.654 6,47 L6,47 Z M58,47 C58,48.654 56.654,50 55,50 L32,50 L32,14 L55,14 C56.654,14 58,15.346 58,17 L58,47 L58,47 Z" id="Shape" fill="#000000"></path>
        <path d="M52.293,28.293 L45,35.586 L37.707,28.293 C37.316,27.902 36.684,27.902 36.293,28.293 C35.902,28.684 35.902,29.316 36.293,29.707 L44.293,37.707 C44.488,37.902 44.744,38 45,38 C45.256,38 45.512,37.902 45.707,37.707 L53.707,29.707 C54.098,29.316 54.098,28.684 53.707,28.293 C53.316,27.902 52.684,27.902 52.293,28.293 L52.293,28.293 Z" id="Shape" fill="#000000"></path>
    </g>
</svg>