<?xml version="1.0" encoding="UTF-8" standalone="no"?>
<svg width="64px" height="64px" viewBox="0 0 64 64" version="1.1" xmlns="http://www.w3.org/2000/svg" xmlns:xlink="http://www.w3.org/1999/xlink">
    <!-- Generator: Sketch 3.7.2 (28276) - http://www.bohemiancoding.com/sketch -->
    <title>ui-signout</title>
    <desc>Created with Sketch.</desc>
    <defs></defs>
    <g id="64px-Line" stroke="none" stroke-width="1" fill="none" fill-rule="evenodd">
        <g id="ui-signout"></g>
        <path d="M38,55 L38,39 C38,38.447 37.553,38 37,38 C36.447,38 36,38.447 36,39 L36,55 C36,55.552 35.552,56 35,56 L9,56 C8.448,56 8,55.552 8,55 L8,11 C8,10.448 8.448,10 9,10 L35,10 C35.552,10 36,10.448 36,11 L36,27 C36,27.553 36.447,28 37,28 C37.553,28 38,27.553 38,27 L38,11 C38,9.346 36.654,8 35,8 L9,8 C7.346,8 6,9.346 6,11 L6,55 C6,56.654 7.346,58 9,58 L35,58 C36.654,58 38,56.654 38,55 L38,55 Z" id="Shape" fill="#000000"></path>
        <path d="M57.923,32.618 C57.872,32.495 57.798,32.384 57.706,32.292 L47.707,22.293 C47.316,21.902 46.684,21.902 46.293,22.293 C45.902,22.684 45.902,23.316 46.293,23.707 L54.586,32 L17,32 C16.447,32 16,32.447 16,33 C16,33.553 16.447,34 17,34 L54.586,34 L46.293,42.293 C45.902,42.684 45.902,43.316 46.293,43.707 C46.488,43.902 46.744,44 47,44 C47.256,44 47.512,43.902 47.707,43.707 L57.706,33.708 C57.799,33.615 57.872,33.505 57.923,33.382 C58.024,33.138 58.024,32.863 57.923,32.618 L57.923,32.618 Z" id="Shape" fill="#000000"></path>
    </g>
</svg>