<?xml version="1.0" encoding="UTF-8" standalone="no"?>
<svg width="44px" height="44px" viewBox="0 0 44 44" version="1.1" xmlns="http://www.w3.org/2000/svg" xmlns:xlink="http://www.w3.org/1999/xlink">
    <!-- Generator: Sketch 3.7.2 (28276) - http://www.bohemiancoding.com/sketch -->
    <title>ui-touch-no</title>
    <desc>Created with Sketch.</desc>
    <defs></defs>
    <g id="44px-Glyph" stroke="none" stroke-width="1" fill="none" fill-rule="evenodd">
        <g id="ui-touch-no" fill="#000000">
            <path d="M22,2 C27.631,2 31.128,5.153 31.853,10.733 L29.991,12.595 C29.9,8.579 28.397,4 22,4 C15.039,4 14,9.639 14,13 C14,19.6 15.41,21.679 20.625,21.961 L18.816,23.77 C13.799,22.972 12,19.919 12,13 C12,6.112 15.738,2 22,2 L22,2 Z M8.024,37.39 L43.707,1.707 C44.098,1.316 44.098,0.684 43.707,0.293 C43.316,-0.098 42.684,-0.098 42.293,0.293 L33.124,9.462 C31.113,3.453 27.718,-5.68434731e-14 22,-5.68434731e-14 C10.517,-5.68434731e-14 8.398,13.919 8.06,34.526 L0.293,42.293 C-0.098,42.684 -0.098,43.316 0.293,43.707 C0.488,43.902 0.744,44 1,44 C1.256,44 1.512,43.902 1.707,43.707 L8.024,37.39 Z" id="Fill-160"></path>
            <path d="M26,38 L18,38 C17.447,38 17,37.553 17,37 C17,36.447 17.447,36 18,36 L26,36 C26.553,36 27,36.447 27,37 C27,37.553 26.553,38 26,38 L26,38 Z M31.793,16.449 C31.174,21.255 29.012,23.395 24.359,23.883 L18.242,30 L29,30 C29.553,30 30,30.447 30,31 C30,31.553 29.553,32 29,32 L16.242,32 L8.005,40.237 C8.002,41.147 8,42.067 8,43 C8,43.553 8.447,44 9,44 L35,44 C35.553,44 36,43.553 36,43 C36,31.417 35.779,21.407 34.284,13.958 L31.793,16.449 Z" id="Fill-162"></path>
            <path d="M28.9888,19.2534 L27.0548,21.1874 C27.8898,20.7684 28.5258,20.1484 28.9888,19.2534" id="Fill-164"></path>
        </g>
    </g>
</svg>