<?xml version="1.0" encoding="UTF-8" standalone="no"?>
<svg width="64px" height="64px" viewBox="0 0 64 64" version="1.1" xmlns="http://www.w3.org/2000/svg" xmlns:xlink="http://www.w3.org/1999/xlink">
    <!-- Generator: Sketch 3.7.2 (28276) - http://www.bohemiancoding.com/sketch -->
    <title>ui-tick-2</title>
    <desc>Created with Sketch.</desc>
    <defs></defs>
    <g id="64px-Line" stroke="none" stroke-width="1" fill="none" fill-rule="evenodd">
        <g id="ui-tick-2"></g>
        <path d="M22.293,45.707 C22.488,45.902 22.744,46 23,46 C23.256,46 23.512,45.902 23.707,45.707 L45.707,23.707 C46.098,23.316 46.098,22.684 45.707,22.293 C45.316,21.902 44.684,21.902 44.293,22.293 L23,43.586 L15.707,36.293 C15.316,35.902 14.684,35.902 14.293,36.293 C13.902,36.684 13.902,37.316 14.293,37.707 L22.293,45.707 L22.293,45.707 Z" id="Shape" fill="#000000"></path>
        <path d="M31,60 C45.888,60 58,47.888 58,33 C58,18.112 45.888,6 31,6 C16.112,6 4,18.112 4,33 C4,47.888 16.112,60 31,60 L31,60 Z M31,8 C44.785,8 56,19.215 56,33 C56,46.785 44.785,58 31,58 C17.215,58 6,46.785 6,33 C6,19.215 17.215,8 31,8 L31,8 Z" id="Shape" fill="#000000"></path>
    </g>
</svg>