<?xml version="1.0" encoding="UTF-8" standalone="no"?>
<svg width="64px" height="64px" viewBox="0 0 64 64" version="1.1" xmlns="http://www.w3.org/2000/svg" xmlns:xlink="http://www.w3.org/1999/xlink">
    <!-- Generator: Sketch 3.7.2 (28276) - http://www.bohemiancoding.com/sketch -->
    <title>ui-tiles</title>
    <desc>Created with Sketch.</desc>
    <defs></defs>
    <g id="64px-Line" stroke="none" stroke-width="1" fill="none" fill-rule="evenodd">
        <g id="ui-tiles"></g>
        <path d="M7,22 L19,22 C19.552,22 20,21.553 20,21 L20,9 C20,8.447 19.552,8 19,8 L7,8 C6.448,8 6,8.447 6,9 L6,21 C6,21.553 6.448,22 7,22 L7,22 Z M8,10 L18,10 L18,20 L8,20 L8,10 L8,10 Z" id="Shape" fill="#000000"></path>
        <path d="M37,8 L25,8 C24.448,8 24,8.447 24,9 L24,21 C24,21.553 24.448,22 25,22 L37,22 C37.552,22 38,21.553 38,21 L38,9 C38,8.447 37.552,8 37,8 L37,8 Z M36,20 L26,20 L26,10 L36,10 L36,20 L36,20 Z" id="Shape" fill="#000000"></path>
        <path d="M43,22 L55,22 C55.552,22 56,21.553 56,21 L56,9 C56,8.447 55.552,8 55,8 L43,8 C42.448,8 42,8.447 42,9 L42,21 C42,21.553 42.448,22 43,22 L43,22 Z M44,10 L54,10 L54,20 L44,20 L44,10 L44,10 Z" id="Shape" fill="#000000"></path>
        <path d="M6,39 C6,39.553 6.448,40 7,40 L19,40 C19.552,40 20,39.553 20,39 L20,27 C20,26.447 19.552,26 19,26 L7,26 C6.448,26 6,26.447 6,27 L6,39 L6,39 Z M8,28 L18,28 L18,38 L8,38 L8,28 L8,28 Z" id="Shape" fill="#000000"></path>
        <path d="M24,39 C24,39.553 24.448,40 25,40 L37,40 C37.552,40 38,39.553 38,39 L38,27 C38,26.447 37.552,26 37,26 L25,26 C24.448,26 24,26.447 24,27 L24,39 L24,39 Z M26,28 L36,28 L36,38 L26,38 L26,28 L26,28 Z" id="Shape" fill="#000000"></path>
        <path d="M42,39 C42,39.553 42.448,40 43,40 L55,40 C55.552,40 56,39.553 56,39 L56,27 C56,26.447 55.552,26 55,26 L43,26 C42.448,26 42,26.447 42,27 L42,39 L42,39 Z M44,28 L54,28 L54,38 L44,38 L44,28 L44,28 Z" id="Shape" fill="#000000"></path>
        <path d="M6,57 C6,57.553 6.448,58 7,58 L19,58 C19.552,58 20,57.553 20,57 L20,45 C20,44.447 19.552,44 19,44 L7,44 C6.448,44 6,44.447 6,45 L6,57 L6,57 Z M8,46 L18,46 L18,56 L8,56 L8,46 L8,46 Z" id="Shape" fill="#000000"></path>
        <path d="M24,57 C24,57.553 24.448,58 25,58 L37,58 C37.552,58 38,57.553 38,57 L38,45 C38,44.447 37.552,44 37,44 L25,44 C24.448,44 24,44.447 24,45 L24,57 L24,57 Z M26,46 L36,46 L36,56 L26,56 L26,46 L26,46 Z" id="Shape" fill="#000000"></path>
        <path d="M42,57 C42,57.553 42.448,58 43,58 L55,58 C55.552,58 56,57.553 56,57 L56,45 C56,44.447 55.552,44 55,44 L43,44 C42.448,44 42,44.447 42,45 L42,57 L42,57 Z M44,46 L54,46 L54,56 L44,56 L44,46 L44,46 Z" id="Shape" fill="#000000"></path>
    </g>
</svg>