<?xml version="1.0" encoding="UTF-8" standalone="no"?>
<svg width="64px" height="64px" viewBox="0 0 64 64" version="1.1" xmlns="http://www.w3.org/2000/svg" xmlns:xlink="http://www.w3.org/1999/xlink">
    <!-- Generator: Sketch 3.7.2 (28276) - http://www.bohemiancoding.com/sketch -->
    <title>ui-toggle</title>
    <desc>Created with Sketch.</desc>
    <defs></defs>
    <g id="64px-Line" stroke="none" stroke-width="1" fill="none" fill-rule="evenodd">
        <g id="ui-toggle"></g>
        <path d="M9,52 L53,52 C55.757,52 58,49.757 58,47 L58,17 C58,14.981 56.791,13.248 55.064,12.459 C55.043,12.449 55.025,12.434 55.004,12.426 C54.39,12.156 53.714,12 53,12 L9,12 C6.243,12 4,14.243 4,17 L4,47 C4,49.757 6.243,52 9,52 L9,52 Z M40.586,14 L32,22.586 L32,19.414 L37.414,14 L40.586,14 L40.586,14 Z M46.586,14 L32,28.586 L32,25.414 L43.414,14 L46.586,14 L46.586,14 Z M52.585,14 L32,34.586 L32,31.414 L49.414,14 L52.585,14 L52.585,14 Z M55.962,16.624 L32,40.586 L32,37.414 L54.799,14.614 C55.428,15.09 55.858,15.804 55.962,16.624 L55.962,16.624 Z M56,46.586 L52.586,50 L49.414,50 L56,43.414 L56,46.586 L56,46.586 Z M56,40.586 L46.586,50 L43.414,50 L56,37.414 L56,40.586 L56,40.586 Z M56,34.586 L40.586,50 L37.414,50 L56,31.414 L56,34.586 L56,34.586 Z M56,28.586 L34.586,50 L32,50 L32,49.414 L56,25.414 L56,28.586 L56,28.586 Z M56,22.586 L32,46.586 L32,43.414 L56,19.414 L56,22.586 L56,22.586 Z M32,16.586 L32,14 L34.586,14 L32,16.586 L32,16.586 Z M6,17 C6,15.346 7.346,14 9,14 L30,14 L30,50 L9,50 C7.346,50 6,48.654 6,47 L6,17 L6,17 Z" id="Shape" fill="#000000"></path>
    </g>
</svg>