<?xml version="1.0" encoding="UTF-8" standalone="no"?>
<svg width="64px" height="64px" viewBox="0 0 64 64" version="1.1" xmlns="http://www.w3.org/2000/svg" xmlns:xlink="http://www.w3.org/1999/xlink">
    <!-- Generator: Sketch 3.7.2 (28276) - http://www.bohemiancoding.com/sketch -->
    <title>ui-volume</title>
    <desc>Created with Sketch.</desc>
    <defs></defs>
    <g id="64px-Line" stroke="none" stroke-width="1" fill="none" fill-rule="evenodd">
        <g id="ui-volume"></g>
        <path d="M7,46 L35,46 C35.552,46 36,45.553 36,45 C36,44.447 35.552,44 35,44 L7,44 C5.346,44 4,45.346 4,47 C4,48.654 5.346,50 7,50 L35,50 C35.552,50 36,49.553 36,49 C36,48.447 35.552,48 35,48 L7,48 C6.449,48 6,47.552 6,47 C6,46.448 6.449,46 7,46 L7,46 Z" id="Shape" fill="#000000"></path>
        <path d="M55,44 L51,44 C50.448,44 50,44.447 50,45 C50,45.553 50.448,46 51,46 L55,46 C55.551,46 56,46.448 56,47 C56,47.552 55.551,48 55,48 L51,48 C50.448,48 50,48.447 50,49 C50,49.553 50.448,50 51,50 L55,50 C56.654,50 58,48.654 58,47 C58,45.346 56.654,44 55,44 L55,44 Z" id="Shape" fill="#000000"></path>
        <path d="M57.539,6.157 C57.252,5.973 56.891,5.95 56.581,6.092 L4.581,30.092 C4.154,30.289 3.922,30.756 4.023,31.215 C4.124,31.673 4.53,32 5,32 L57,32 C57.552,32 58,31.553 58,31 L58,7 C58,6.659 57.826,6.342 57.539,6.157 L57.539,6.157 Z M56,30 L9.553,30 L56,8.562 L56,30 L56,30 Z" id="Shape" fill="#000000"></path>
        <path d="M48,51 L48,43 C48,40.243 45.757,38 43,38 C40.243,38 38,40.243 38,43 L38,51 C38,53.757 40.243,56 43,56 C45.757,56 48,53.757 48,51 L48,51 Z M40,51 L40,43 C40,41.346 41.346,40 43,40 C44.654,40 46,41.346 46,43 L46,51 C46,52.654 44.654,54 43,54 C41.346,54 40,52.654 40,51 L40,51 Z" id="Shape" fill="#000000"></path>
    </g>
</svg>