<?xml version="1.0" encoding="UTF-8" standalone="no"?>
<svg width="64px" height="64px" viewBox="0 0 64 64" version="1.1" xmlns="http://www.w3.org/2000/svg" xmlns:xlink="http://www.w3.org/1999/xlink">
    <!-- Generator: Sketch 3.7.2 (28276) - http://www.bohemiancoding.com/sketch -->
    <title>ui-window-secure</title>
    <desc>Created with Sketch.</desc>
    <defs></defs>
    <g id="64px-Line" stroke="none" stroke-width="1" fill="none" fill-rule="evenodd">
        <g id="ui-window-secure"></g>
        <path d="M8,56 L54,56 C56.206,56 58,54.206 58,52 L58,12 C58,9.794 56.206,8 54,8 L8,8 C5.794,8 4,9.794 4,12 L4,52 C4,54.206 5.794,56 8,56 L8,56 Z M54,54 L8,54 C6.897,54 6,53.103 6,52 L6,20 L56,20 L56,52 C56,53.103 55.103,54 54,54 L54,54 Z M8,10 L54,10 C55.103,10 56,10.897 56,12 L56,18 L6,18 L6,12 C6,10.897 6.897,10 8,10 L8,10 Z" id="Shape" fill="#000000"></path>
        <circle id="Oval" fill="#000000" cx="24" cy="14" r="2"></circle>
        <circle id="Oval" fill="#000000" cx="18" cy="14" r="2"></circle>
        <circle id="Oval" fill="#000000" cx="12" cy="14" r="2"></circle>
        <path d="M39,34 L38,34 L38,33 C38,29.14 34.859,26 31,26 C27.141,26 24,29.14 24,33 L24,34 L23,34 C22.447,34 22,34.448 22,35 L22,47 C22,47.552 22.447,48 23,48 L39,48 C39.553,48 40,47.552 40,47 L40,35 C40,34.448 39.553,34 39,34 L39,34 Z M26,33 C26,30.243 28.243,28 31,28 C33.757,28 36,30.243 36,33 L36,34 L26,34 L26,33 L26,33 Z M38,46 L24,46 L24,36 L38,36 L38,46 L38,46 Z" id="Shape" fill="#000000"></path>
        <path d="M31,38 C29.897,38 29,38.897 29,40 C29,40.737 29.405,41.375 30,41.722 L30,43 C30,43.552 30.447,44 31,44 C31.553,44 32,43.552 32,43 L32,41.722 C32.595,41.375 33,40.737 33,40 C33,38.897 32.103,38 31,38 L31,38 Z" id="Shape" fill="#000000"></path>
    </g>
</svg>