<?xml version="1.0" encoding="UTF-8" standalone="no"?>
<svg width="64px" height="64px" viewBox="0 0 64 64" version="1.1" xmlns="http://www.w3.org/2000/svg" xmlns:xlink="http://www.w3.org/1999/xlink">
    <!-- Generator: Sketch 3.7.2 (28276) - http://www.bohemiancoding.com/sketch -->
    <title>ui-window-delete</title>
    <desc>Created with Sketch.</desc>
    <defs></defs>
    <g id="64px-Line" stroke="none" stroke-width="1" fill="none" fill-rule="evenodd">
        <g id="ui-window-delete"></g>
        <path d="M58,52 L58,12 C58,9.794 56.206,8 54,8 L8,8 C5.794,8 4,9.794 4,12 L4,52 C4,54.206 5.794,56 8,56 L54,56 C56.206,56 58,54.206 58,52 L58,52 Z M8,10 L54,10 C55.103,10 56,10.897 56,12 L56,18 L6,18 L6,12 C6,10.897 6.897,10 8,10 L8,10 Z M6,52 L6,20 L56,20 L56,52 C56,53.103 55.103,54 54,54 L8,54 C6.897,54 6,53.103 6,52 L6,52 Z" id="Shape" fill="#000000"></path>
        <circle id="Oval" fill="#000000" cx="24" cy="14" r="2"></circle>
        <circle id="Oval" fill="#000000" cx="18" cy="14" r="2"></circle>
        <circle id="Oval" fill="#000000" cx="12" cy="14" r="2"></circle>
        <path d="M41,28.002 L39.01,28.002 C39.007,28.002 39.004,28 39,28 C38.996,28 38.994,28.002 38.99,28.002 L36,28.002 L36,28 C36,25.794 34.206,24 32,24 L30,24 C27.794,24 26,25.794 26,28 L26,28.002 L23.01,28.002 C23.007,28.002 23.004,28 23,28 C22.996,28 22.994,28.002 22.99,28.002 L21,28.002 C20.448,28.002 20,28.45 20,29.002 C20,29.554 20.448,30.002 21,30.002 L22,30.002 L22,46 C22,48.206 23.794,50 26,50 L36,50 C38.206,50 40,48.206 40,46 L40,30.002 L41,30.002 C41.552,30.002 42,29.554 42,29.002 C42,28.45 41.552,28.002 41,28.002 L41,28.002 Z M28,28 C28,26.897 28.897,26 30,26 L32,26 C33.103,26 34,26.897 34,28 L34,28.002 L28,28.002 L28,28 L28,28 Z M38,46 C38,47.103 37.103,48 36,48 L26,48 C24.897,48 24,47.103 24,46 L24,30.002 L38,30.002 L38,46 L38,46 Z" id="Shape" fill="#000000"></path>
        <path d="M27,46 C27.552,46 28,45.552 28,45 L28,33 C28,32.448 27.552,32 27,32 C26.448,32 26,32.448 26,33 L26,45 C26,45.552 26.448,46 27,46 L27,46 Z" id="Shape" fill="#000000"></path>
        <path d="M31,46 C31.552,46 32,45.552 32,45 L32,33 C32,32.448 31.552,32 31,32 C30.448,32 30,32.448 30,33 L30,45 C30,45.552 30.448,46 31,46 L31,46 Z" id="Shape" fill="#000000"></path>
        <path d="M35,46 C35.552,46 36,45.552 36,45 L36,33 C36,32.448 35.552,32 35,32 C34.448,32 34,32.448 34,33 L34,45 C34,45.552 34.448,46 35,46 L35,46 Z" id="Shape" fill="#000000"></path>
    </g>
</svg>