<?xml version="1.0" encoding="UTF-8" standalone="no"?>
<svg width="64px" height="64px" viewBox="0 0 64 64" version="1.1" xmlns="http://www.w3.org/2000/svg" xmlns:xlink="http://www.w3.org/1999/xlink">
    <!-- Generator: Sketch 3.7.2 (28276) - http://www.bohemiancoding.com/sketch -->
    <title>ui-window-settings</title>
    <desc>Created with Sketch.</desc>
    <defs></defs>
    <g id="64px-Line" stroke="none" stroke-width="1" fill="none" fill-rule="evenodd">
        <g id="ui-window-settings"></g>
        <path d="M56,10 L8,10 C5.794,10 4,11.794 4,14 L4,52 C4,54.206 5.794,56 8,56 L56,56 C58.206,56 60,54.206 60,52 L60,14 C60,11.794 58.206,10 56,10 L56,10 Z M8,12 L56,12 C57.103,12 58,12.897 58,14 L58,20 L6,20 L6,14 C6,12.897 6.897,12 8,12 L8,12 Z M56,54 L8,54 C6.897,54 6,53.103 6,52 L6,22 L58,22 L58,52 C58,53.103 57.103,54 56,54 L56,54 Z" id="Shape" fill="#000000"></path>
        <circle id="Oval" fill="#000000" cx="24" cy="16" r="2"></circle>
        <circle id="Oval" fill="#000000" cx="18" cy="16" r="2"></circle>
        <circle id="Oval" fill="#000000" cx="12" cy="16" r="2"></circle>
        <path d="M32,32 C28.691,32 26,34.691 26,38 C26,41.309 28.691,44 32,44 C35.309,44 38,41.309 38,38 C38,34.691 35.309,32 32,32 L32,32 Z M32,42 C29.794,42 28,40.206 28,38 C28,35.794 29.794,34 32,34 C34.206,34 36,35.794 36,38 C36,40.206 34.206,42 32,42 L32,42 Z" id="Shape" fill="#000000"></path>
        <path d="M44,35 L42.581,35 C42.344,34.166 42.007,33.356 41.585,32.604 L42.421,31.769 C43.192,30.997 43.192,29.741 42.42,28.968 L41.032,27.58 C40.261,26.808 39.002,26.807 38.23,27.58 L37.397,28.413 C36.637,27.984 35.835,27.649 35,27.413 L35,26 C35,24.897 34.103,24 33,24 L31,24 C29.897,24 29,24.897 29,26 L29,27.413 C28.162,27.649 27.36,27.984 26.602,28.413 L25.769,27.58 C24.998,26.808 23.74,26.808 22.968,27.58 L21.58,28.968 C20.808,29.74 20.808,30.997 21.58,31.77 L22.413,32.603 C21.986,33.359 21.653,34.161 21.417,35 L20,35 C18.897,35 18,35.897 18,37 L18,39 C18,40.103 18.897,41 20,41 L21.419,41 C21.656,41.834 21.992,42.645 22.414,43.396 L21.58,44.23 C20.809,45.001 20.808,46.258 21.58,47.032 L22.968,48.42 C23.739,49.193 24.998,49.191 25.77,48.42 L26.604,47.586 C27.36,48.013 28.162,48.346 29,48.582 L29,50 C29,51.103 29.897,52 31,52 L33,52 C34.103,52 35,51.103 35,50 L35,48.579 C35.836,48.341 36.646,48.005 37.396,47.584 L38.231,48.419 C39.002,49.192 40.26,49.19 41.034,48.419 L42.419,47.032 C42.794,46.658 43.001,46.16 43.001,45.631 C43.001,45.102 42.794,44.604 42.421,44.231 L41.589,43.398 C42.015,42.642 42.348,41.84 42.584,41 L44,41 C45.103,41 46,40.103 46,39 L46,37 C46,35.897 45.103,35 44,35 L44,35 Z M44,39 L41.797,39 C41.321,39 40.911,39.335 40.817,39.801 C40.584,40.951 40.138,42.025 39.493,42.991 C39.227,43.387 39.279,43.916 39.616,44.253 L41.005,45.617 L39.646,47.005 L38.254,45.612 C37.916,45.274 37.387,45.223 36.991,45.488 C36.044,46.121 34.94,46.58 33.8,46.814 C33.335,46.909 33.001,47.319 33.001,47.793 L33.001,50 L31.001,50 L31.001,47.795 C31.001,47.319 30.666,46.91 30.2,46.815 C29.052,46.582 27.978,46.136 27.011,45.489 C26.841,45.376 26.648,45.321 26.455,45.321 C26.197,45.321 25.941,45.421 25.748,45.614 L24.383,47.007 L22.995,45.646 L24.386,44.255 C24.723,43.918 24.776,43.39 24.511,42.993 C23.875,42.041 23.416,40.937 23.184,39.801 C23.089,39.336 22.679,39.002 22.205,39.002 L20,39.002 L20,37.002 L22.203,37.002 C22.679,37.002 23.089,36.667 23.183,36.201 C23.415,35.052 23.862,33.979 24.508,33.011 C24.774,32.614 24.722,32.086 24.384,31.748 L22.993,30.384 L24.353,28.997 L25.745,30.388 C26.083,30.725 26.611,30.776 27.008,30.512 C27.981,29.862 29.054,29.414 30.198,29.182 C30.664,29.087 30.999,28.678 30.999,28.202 L30.999,26 L32.999,26 L32.999,28.199 C32.999,28.675 33.334,29.084 33.8,29.179 C34.941,29.41 36.015,29.858 36.991,30.51 C37.386,30.774 37.916,30.722 38.253,30.385 L39.617,28.994 L41.005,30.355 L39.613,31.746 C39.276,32.083 39.223,32.612 39.488,33.009 C40.125,33.963 40.584,35.066 40.816,36.201 C40.911,36.666 41.321,37 41.795,37 L44,37 L44,39 L44,39 Z" id="Shape" fill="#000000"></path>
    </g>
</svg>