<?xml version="1.0" encoding="UTF-8" standalone="no"?>
<svg width="64px" height="64px" viewBox="0 0 64 64" version="1.1" xmlns="http://www.w3.org/2000/svg" xmlns:xlink="http://www.w3.org/1999/xlink">
    <!-- Generator: Sketch 3.7.2 (28276) - http://www.bohemiancoding.com/sketch -->
    <title>ui-window-protect</title>
    <desc>Created with Sketch.</desc>
    <defs></defs>
    <g id="64px-Line" stroke="none" stroke-width="1" fill="none" fill-rule="evenodd">
        <g id="ui-window-protect"></g>
        <path d="M58,52 L58,12 C58,9.794 56.206,8 54,8 L8,8 C5.794,8 4,9.794 4,12 L4,52 C4,54.206 5.794,56 8,56 L54,56 C56.206,56 58,54.206 58,52 L58,52 Z M8,10 L54,10 C55.103,10 56,10.897 56,12 L56,18 L6,18 L6,12 C6,10.897 6.897,10 8,10 L8,10 Z M6,52 L6,20 L56,20 L56,52 C56,53.103 55.103,54 54,54 L8,54 C6.897,54 6,53.103 6,52 L6,52 Z" id="Shape" fill="#000000"></path>
        <circle id="Oval" fill="#000000" cx="24" cy="14" r="2"></circle>
        <circle id="Oval" fill="#000000" cx="18" cy="14" r="2"></circle>
        <circle id="Oval" fill="#000000" cx="12" cy="14" r="2"></circle>
        <path d="M41,26 C36.133,26 34.168,24.346 32.435,22.886 C32.159,22.654 31.89,22.428 31.62,22.215 C31.257,21.929 30.745,21.929 30.382,22.215 C30.111,22.428 29.842,22.654 29.566,22.887 C27.831,24.346 25.865,26 21,26 C20.447,26 20,26.448 20,27 L20,34.5 C20,42.924 25.766,48 31.161,49.941 C31.27,49.981 31.386,50 31.5,50 C31.614,50 31.729,49.98 31.838,49.941 C36.751,48.176 42,43.193 42,34.5 L42,27 C42,26.448 41.553,26 41,26 L41,26 Z M40,34.5 C40,41.954 35.673,46.291 31.501,47.932 C29.297,47.062 22,43.499 22,34.5 L22,27.978 C26.885,27.756 29.072,25.915 30.853,24.417 C30.902,24.375 30.952,24.334 31,24.292 C31.049,24.333 31.098,24.374 31.146,24.416 C32.925,25.914 35.113,27.756 40,27.978 L40,34.5 L40,34.5 Z" id="Shape" fill="#000000"></path>
    </g>
</svg>