<?xml version="1.0" encoding="UTF-8" standalone="no"?>
<svg width="64px" height="64px" viewBox="0 0 64 64" version="1.1" xmlns="http://www.w3.org/2000/svg" xmlns:xlink="http://www.w3.org/1999/xlink">
    <!-- Generator: Sketch 3.7.2 (28276) - http://www.bohemiancoding.com/sketch -->
    <title>ui-window-bar</title>
    <desc>Created with Sketch.</desc>
    <defs></defs>
    <g id="64px-Line" stroke="none" stroke-width="1" fill="none" fill-rule="evenodd">
        <g id="ui-window-bar"></g>
        <path d="M5,8 L8,8 L8,27 C8,27.552 8.447,28 9,28 L56,28 L56,57 C56,57.552 56.447,58 57,58 C57.553,58 58,57.552 58,57 L58,11 C58,8.243 55.757,6 53,6 L5,6 C4.447,6 4,6.448 4,7 C4,7.552 4.447,8 5,8 L5,8 Z M10,8 L24,8 L24,26 L10,26 L10,8 L10,8 Z M26,8 L40,8 L40,26 L26,26 L26,8 L26,8 Z M56,11 L56,26 L42,26 L42,8 L53,8 C54.654,8 56,9.346 56,11 L56,11 Z" id="Shape" fill="#000000"></path>
        <path d="M21,16 L13,16 C12.447,16 12,16.448 12,17 C12,17.552 12.447,18 13,18 L21,18 C21.553,18 22,17.552 22,17 C22,16.448 21.553,16 21,16 L21,16 Z" id="Shape" fill="#000000"></path>
        <path d="M47.586,17 L44.293,20.293 C43.902,20.684 43.902,21.316 44.293,21.707 C44.488,21.902 44.744,22 45,22 C45.256,22 45.512,21.902 45.707,21.707 L49,18.414 L52.293,21.707 C52.488,21.902 52.744,22 53,22 C53.256,22 53.512,21.902 53.707,21.707 C54.098,21.316 54.098,20.684 53.707,20.293 L50.414,17 L53.707,13.707 C54.098,13.316 54.098,12.684 53.707,12.293 C53.316,11.902 52.684,11.902 52.293,12.293 L49,15.586 L45.707,12.293 C45.316,11.902 44.684,11.902 44.293,12.293 C43.902,12.684 43.902,13.316 44.293,13.707 L47.586,17 L47.586,17 Z" id="Shape" fill="#000000"></path>
        <path d="M37,12 L29,12 C28.447,12 28,12.448 28,13 L28,21 C28,21.552 28.447,22 29,22 L37,22 C37.553,22 38,21.552 38,21 L38,13 C38,12.448 37.553,12 37,12 L37,12 Z M36,20 L30,20 L30,14 L36,14 L36,20 L36,20 Z" id="Shape" fill="#000000"></path>
    </g>
</svg>