<?xml version="1.0" encoding="UTF-8" standalone="no"?>
<svg width="64px" height="64px" viewBox="0 0 64 64" version="1.1" xmlns="http://www.w3.org/2000/svg" xmlns:xlink="http://www.w3.org/1999/xlink">
    <!-- Generator: Sketch 3.7.2 (28276) - http://www.bohemiancoding.com/sketch -->
    <title>ui-window-buttons</title>
    <desc>Created with Sketch.</desc>
    <defs></defs>
    <g id="64px-Line" stroke="none" stroke-width="1" fill="none" fill-rule="evenodd">
        <g id="ui-window-buttons"></g>
        <path d="M18,32 L10,32 C9.447,32 9,32.448 9,33 C9,33.552 9.447,34 10,34 L18,34 C18.553,34 19,33.552 19,33 C19,32.448 18.553,32 18,32 L18,32 Z" id="Shape" fill="#000000"></path>
        <path d="M46.293,36.707 C46.488,36.902 46.744,37 47,37 C47.256,37 47.512,36.902 47.707,36.707 L50,34.414 L52.293,36.707 C52.488,36.902 52.744,37 53,37 C53.256,37 53.512,36.902 53.707,36.707 C54.098,36.316 54.098,35.684 53.707,35.293 L51.414,33 L53.707,30.707 C54.098,30.316 54.098,29.684 53.707,29.293 C53.316,28.902 52.684,28.902 52.293,29.293 L50,31.586 L47.707,29.293 C47.316,28.902 46.684,28.902 46.293,29.293 C45.902,29.684 45.902,30.316 46.293,30.707 L48.586,33 L46.293,35.293 C45.902,35.684 45.902,36.316 46.293,36.707 L46.293,36.707 Z" id="Shape" fill="#000000"></path>
        <path d="M59,20 L41,20 L23,20 L5,20 C4.447,20 4,20.448 4,21 L4,45 C4,45.552 4.447,46 5,46 L23,46 L41,46 L59,46 C59.553,46 60,45.552 60,45 L60,21 C60,20.448 59.553,20 59,20 L59,20 Z M6,22 L22,22 L22,44 L6,44 L6,22 L6,22 Z M24,22 L40,22 L40,44 L24,44 L24,22 L24,22 Z M58,44 L42,44 L42,22 L58,22 L58,44 L58,44 Z" id="Shape" fill="#000000"></path>
        <path d="M37,28 L27,28 C26.447,28 26,28.448 26,29 L26,37 C26,37.552 26.447,38 27,38 L37,38 C37.553,38 38,37.552 38,37 L38,29 C38,28.448 37.553,28 37,28 L37,28 Z M36,36 L28,36 L28,30 L36,30 L36,36 L36,36 Z" id="Shape" fill="#000000"></path>
    </g>
</svg>