<?xml version="1.0" encoding="UTF-8" standalone="no"?>
<svg width="64px" height="64px" viewBox="0 0 64 64" version="1.1" xmlns="http://www.w3.org/2000/svg" xmlns:xlink="http://www.w3.org/1999/xlink">
    <!-- Generator: Sketch 3.7.2 (28276) - http://www.bohemiancoding.com/sketch -->
    <title>ui-windows-2</title>
    <desc>Created with Sketch.</desc>
    <defs></defs>
    <g id="64px-Line" stroke="none" stroke-width="1" fill="none" fill-rule="evenodd">
        <g id="ui-windows-2"></g>
        <path d="M26,56 C28.206,56 30,54.206 30,52 L30,12 C30,9.794 28.206,8 26,8 L6,8 C3.794,8 2,9.794 2,12 L2,52 C2,54.206 3.794,56 6,56 L26,56 L26,56 Z M6,10 L26,10 C27.103,10 28,10.897 28,12 L28,18 L4,18 L4,12 C4,10.897 4.897,10 6,10 L6,10 Z M4,52 L4,20 L28,20 L28,52 C28,53.103 27.103,54 26,54 L6,54 C4.897,54 4,53.103 4,52 L4,52 Z" id="Shape" fill="#000000"></path>
        <circle id="Oval" fill="#000000" cx="22" cy="14" r="2"></circle>
        <circle id="Oval" fill="#000000" cx="16" cy="14" r="2"></circle>
        <circle id="Oval" fill="#000000" cx="10" cy="14" r="2"></circle>
        <path d="M56,8 L36,8 C33.794,8 32,9.794 32,12 L32,52 C32,54.206 33.794,56 36,56 L56,56 C58.206,56 60,54.206 60,52 L60,12 C60,9.794 58.206,8 56,8 L56,8 Z M36,10 L56,10 C57.103,10 58,10.897 58,12 L58,18 L34,18 L34,12 C34,10.897 34.897,10 36,10 L36,10 Z M56,54 L36,54 C34.897,54 34,53.103 34,52 L34,20 L58,20 L58,52 C58,53.103 57.103,54 56,54 L56,54 Z" id="Shape" fill="#000000"></path>
        <circle id="Oval" fill="#000000" cx="52" cy="14" r="2"></circle>
        <circle id="Oval" fill="#000000" cx="46" cy="14" r="2"></circle>
        <circle id="Oval" fill="#000000" cx="40" cy="14" r="2"></circle>
    </g>
</svg>