<?xml version="1.0" encoding="UTF-8" standalone="no"?>
<svg width="64px" height="64px" viewBox="0 0 64 64" version="1.1" xmlns="http://www.w3.org/2000/svg" xmlns:xlink="http://www.w3.org/1999/xlink">
    <!-- Generator: Sketch 3.7.2 (28276) - http://www.bohemiancoding.com/sketch -->
    <title>ui-window-tick</title>
    <desc>Created with Sketch.</desc>
    <defs></defs>
    <g id="64px-Line" stroke="none" stroke-width="1" fill="none" fill-rule="evenodd">
        <g id="ui-window-tick"></g>
        <path d="M8,56 L54,56 C56.206,56 58,54.206 58,52 L58,12 C58,9.794 56.206,8 54,8 L8,8 C5.794,8 4,9.794 4,12 L4,52 C4,54.206 5.794,56 8,56 L8,56 Z M54,54 L8,54 C6.897,54 6,53.103 6,52 L6,20 L56,20 L56,52 C56,53.103 55.103,54 54,54 L54,54 Z M8,10 L54,10 C55.103,10 56,10.897 56,12 L56,18 L6,18 L6,12 C6,10.897 6.897,10 8,10 L8,10 Z" id="Shape" fill="#000000"></path>
        <circle id="Oval" fill="#000000" cx="24" cy="14" r="2"></circle>
        <circle id="Oval" fill="#000000" cx="18" cy="14" r="2"></circle>
        <circle id="Oval" fill="#000000" cx="12" cy="14" r="2"></circle>
        <path d="M38.293,30.293 L27,41.586 L21.707,36.293 C21.316,35.902 20.684,35.902 20.293,36.293 C19.902,36.684 19.902,37.316 20.293,37.707 L26.293,43.707 C26.488,43.902 26.744,44 27,44 C27.256,44 27.512,43.902 27.707,43.707 L39.707,31.707 C40.098,31.316 40.098,30.684 39.707,30.293 C39.316,29.902 38.684,29.902 38.293,30.293 L38.293,30.293 Z" id="Shape" fill="#000000"></path>
    </g>
</svg>