<?xml version="1.0" encoding="UTF-8" standalone="no"?>
<svg width="64px" height="64px" viewBox="0 0 64 64" version="1.1" xmlns="http://www.w3.org/2000/svg" xmlns:xlink="http://www.w3.org/1999/xlink">
    <!-- Generator: Sketch 3.7.2 (28276) - http://www.bohemiancoding.com/sketch -->
    <title>ui-window-warning</title>
    <desc>Created with Sketch.</desc>
    <defs></defs>
    <g id="64px-Line" stroke="none" stroke-width="1" fill="none" fill-rule="evenodd">
        <g id="ui-window-warning"></g>
        <path d="M8,56 L54,56 C56.206,56 58,54.206 58,52 L58,12 C58,9.794 56.206,8 54,8 L8,8 C5.794,8 4,9.794 4,12 L4,52 C4,54.206 5.794,56 8,56 L8,56 Z M54,54 L8,54 C6.897,54 6,53.103 6,52 L6,20 L56,20 L56,52 C56,53.103 55.103,54 54,54 L54,54 Z M8,10 L54,10 C55.103,10 56,10.897 56,12 L56,18 L6,18 L6,12 C6,10.897 6.897,10 8,10 L8,10 Z" id="Shape" fill="#000000"></path>
        <circle id="Oval" fill="#000000" cx="24" cy="14" r="2"></circle>
        <circle id="Oval" fill="#000000" cx="18" cy="14" r="2"></circle>
        <circle id="Oval" fill="#000000" cx="12" cy="14" r="2"></circle>
        <path d="M45.533,44.128 L34.252,25.671 C33.502,24.625 32.286,24 31,24 C29.713,24 28.497,24.625 27.707,25.733 L16.467,44.128 C16.445,44.166 16.424,44.205 16.405,44.246 C16.364,44.339 16,45.188 16,46 C16,48.206 17.794,50 20,50 L42,50 C44.206,50 46,48.206 46,46 C46,45.188 45.636,44.339 45.595,44.246 C45.576,44.205 45.556,44.166 45.533,44.128 L45.533,44.128 Z M42,48 L20,48 C18.897,48 18,47.103 18,46 C18,45.728 18.123,45.33 18.213,45.106 L29.373,26.836 C29.749,26.312 30.356,26 31,26 C31.644,26 32.251,26.313 32.586,26.776 L43.787,45.107 C43.867,45.306 44,45.719 44,46 C44,47.103 43.103,48 42,48 L42,48 Z" id="Shape" fill="#000000"></path>
        <path d="M31,30 C30.447,30 30,30.448 30,31 L30,39 C30,39.552 30.447,40 31,40 C31.553,40 32,39.552 32,39 L32,31 C32,30.448 31.553,30 31,30 L31,30 Z" id="Shape" fill="#000000"></path>
        <path d="M31.92,42.62 C31.899,42.56 31.87,42.5 31.83,42.45 C31.79,42.39 31.75,42.34 31.71,42.29 C31.66,42.25 31.609,42.21 31.56,42.17 C31.5,42.13 31.44,42.1 31.38,42.08 C31.319,42.05 31.26,42.03 31.2,42.02 C30.87,41.96 30.519,42.06 30.29,42.29 C30.109,42.48 30,42.73 30,43 C30,43.26 30.109,43.52 30.29,43.71 C30.479,43.89 30.74,44 31,44 C31.069,44 31.13,43.99 31.2,43.98 C31.26,43.97 31.319,43.95 31.38,43.92 C31.44,43.9 31.5,43.87 31.56,43.83 C31.61,43.79 31.661,43.75 31.71,43.71 C31.89,43.52 32,43.26 32,43 C32,42.93 31.99,42.87 31.979,42.8 C31.97,42.74 31.95,42.68 31.92,42.62 L31.92,42.62 Z" id="Shape" fill="#000000"></path>
    </g>
</svg>