<?xml version="1.0" encoding="UTF-8" standalone="no"?>
<svg width="64px" height="64px" viewBox="0 0 64 64" version="1.1" xmlns="http://www.w3.org/2000/svg" xmlns:xlink="http://www.w3.org/1999/xlink">
    <!-- Generator: Sketch 3.7.2 (28276) - http://www.bohemiancoding.com/sketch -->
    <title>ui-window-internet</title>
    <desc>Created with Sketch.</desc>
    <defs></defs>
    <g id="64px-Line" stroke="none" stroke-width="1" fill="none" fill-rule="evenodd">
        <g id="ui-window-internet"></g>
        <path d="M56,10 L8,10 C5.794,10 4,11.794 4,14 L4,52 C4,54.206 5.794,56 8,56 L56,56 C58.206,56 60,54.206 60,52 L60,14 C60,11.794 58.206,10 56,10 L56,10 Z M8,12 L56,12 C57.103,12 58,12.897 58,14 L58,20 L6,20 L6,14 C6,12.897 6.897,12 8,12 L8,12 Z M56,54 L8,54 C6.897,54 6,53.103 6,52 L6,22 L58,22 L58,52 C58,53.103 57.103,54 56,54 L56,54 Z" id="Shape" fill="#000000"></path>
        <circle id="Oval" fill="#000000" cx="24" cy="16" r="2"></circle>
        <circle id="Oval" fill="#000000" cx="18" cy="16" r="2"></circle>
        <circle id="Oval" fill="#000000" cx="12" cy="16" r="2"></circle>
        <path d="M39.23,32.839 C39.417,32.319 39.147,31.746 38.628,31.559 C38.107,31.373 37.535,31.642 37.348,32.161 L37.017,33.08 C36.199,32.064 34.893,31.501 33.296,31.501 C29.317,31.501 25.087,34.534 25.087,40.154 C25.087,43.803 27.741,45.097 30.015,45.097 C31.808,45.097 33.396,44.302 34.59,43.198 C34.597,43.209 34.6,43.222 34.607,43.234 C34.89,43.679 35.46,44.224 36.565,44.29 C37.958,44.367 39.719,43.567 41.189,42.186 C43.036,40.448 44.096,38.121 44.096,35.801 C44.096,29.847 39.422,26 32.189,26 C24.72,26 20.096,32.229 20.096,38 C20.096,43.771 24.72,50 32.189,50 C39.259,50 42.822,45.399 42.97,45.203 C43.303,44.764 43.216,44.14 42.778,43.806 C42.34,43.473 41.714,43.557 41.378,43.994 C41.253,44.158 38.232,48 32.19,48 C25.956,48 22.097,42.809 22.097,38 C22.097,33.191 25.956,28 32.19,28 C38.301,28 42.097,30.989 42.097,35.801 C42.097,37.572 41.267,39.367 39.82,40.729 C38.61,41.867 37.376,42.327 36.687,42.294 C36.542,42.285 36.357,42.255 36.297,42.163 C36.129,41.9 36.238,41.104 36.459,40.538 L39.23,32.839 L39.23,32.839 Z M30.016,43.098 C28.923,43.098 27.088,42.716 27.088,40.155 C27.088,35.308 30.897,33.502 33.297,33.502 C34.339,33.502 35.113,33.82 35.536,34.423 C35.95,35.012 36.017,35.862 35.716,36.697 L35.716,36.699 L34.589,39.83 C34.589,39.831 34.588,39.833 34.588,39.834 C34.588,39.835 34.587,39.835 34.587,39.836 C33.951,41.456 32.176,43.098 30.016,43.098 L30.016,43.098 Z" id="Shape" fill="#000000"></path>
    </g>
</svg>