<?xml version="1.0" encoding="UTF-8" standalone="no"?>
<svg width="64px" height="64px" viewBox="0 0 64 64" version="1.1" xmlns="http://www.w3.org/2000/svg" xmlns:xlink="http://www.w3.org/1999/xlink">
    <!-- Generator: Sketch 3.7.2 (28276) - http://www.bohemiancoding.com/sketch -->
    <title>ui-window-stats</title>
    <desc>Created with Sketch.</desc>
    <defs></defs>
    <g id="64px-Line" stroke="none" stroke-width="1" fill="none" fill-rule="evenodd">
        <g id="ui-window-stats"></g>
        <path d="M8,56 L54,56 C56.206,56 58,54.206 58,52 L58,12 C58,9.794 56.206,8 54,8 L8,8 C5.794,8 4,9.794 4,12 L4,52 C4,54.206 5.794,56 8,56 L8,56 Z M54,54 L8,54 C6.897,54 6,53.103 6,52 L6,20 L56,20 L56,52 C56,53.103 55.103,54 54,54 L54,54 Z M8,10 L54,10 C55.103,10 56,10.897 56,12 L56,18 L6,18 L6,12 C6,10.897 6.897,10 8,10 L8,10 Z" id="Shape" fill="#000000"></path>
        <circle id="Oval" fill="#000000" cx="24" cy="14" r="2"></circle>
        <circle id="Oval" fill="#000000" cx="18" cy="14" r="2"></circle>
        <circle id="Oval" fill="#000000" cx="12" cy="14" r="2"></circle>
        <path d="M41,38 L30,38 L30,27 C30,26.448 29.553,26 29,26 C21.832,26 16,31.832 16,39 C16,46.168 21.832,52 29,52 C36.168,52 42,46.168 42,39 C42,38.448 41.553,38 41,38 L41,38 Z M29,50 C22.935,50 18,45.065 18,39 C18,33.271 22.401,28.552 28,28.045 L28,39 C28,39.552 28.447,40 29,40 L39.955,40 C39.448,45.599 34.729,50 29,50 L29,50 Z" id="Shape" fill="#000000"></path>
        <path d="M33,22 C32.447,22 32,22.448 32,23 L32,35 C32,35.552 32.447,36 33,36 L45,36 C45.553,36 46,35.552 46,35 C46,27.832 40.168,22 33,22 L33,22 Z M34,34 L34,24.045 C39.27,24.522 43.479,28.731 43.955,34 L34,34 L34,34 Z" id="Shape" fill="#000000"></path>
    </g>
</svg>