<?xml version="1.0" encoding="UTF-8" standalone="no"?>
<svg width="64px" height="64px" viewBox="0 0 64 64" version="1.1" xmlns="http://www.w3.org/2000/svg" xmlns:xlink="http://www.w3.org/1999/xlink">
    <!-- Generator: Sketch 3.7.2 (28276) - http://www.bohemiancoding.com/sketch -->
    <title>ui-window-bar-mac</title>
    <desc>Created with Sketch.</desc>
    <defs></defs>
    <g id="64px-Line" stroke="none" stroke-width="1" fill="none" fill-rule="evenodd">
        <g id="ui-window-bar-mac"></g>
        <path d="M42,19 C42,22.86 45.141,26 49,26 C52.859,26 56,22.86 56,19 C56,15.14 52.859,12 49,12 C45.141,12 42,15.14 42,19 L42,19 Z M54,19 C54,21.757 51.757,24 49,24 C46.243,24 44,21.757 44,19 C44,16.243 46.243,14 49,14 C51.757,14 54,16.243 54,19 L54,19 Z" id="Shape" fill="#000000"></path>
        <path d="M26,19 C26,22.86 29.141,26 33,26 C36.859,26 40,22.86 40,19 C40,15.14 36.859,12 33,12 C29.141,12 26,15.14 26,19 L26,19 Z M38,19 C38,21.757 35.757,24 33,24 C30.243,24 28,21.757 28,19 C28,16.243 30.243,14 33,14 C35.757,14 38,16.243 38,19 L38,19 Z" id="Shape" fill="#000000"></path>
        <path d="M10,19 C10,22.86 13.141,26 17,26 C20.859,26 24,22.86 24,19 C24,15.14 20.859,12 17,12 C13.141,12 10,15.14 10,19 L10,19 Z M22,19 C22,21.757 19.757,24 17,24 C14.243,24 12,21.757 12,19 C12,16.243 14.243,14 17,14 C19.757,14 22,16.243 22,19 L22,19 Z" id="Shape" fill="#000000"></path>
        <path d="M5,58 C5.553,58 6,57.552 6,57 L6,32 L57,32 C57.553,32 58,31.552 58,31 C58,30.448 57.553,30 57,30 L6,30 L6,11 C6,9.346 7.346,8 9,8 L57,8 C57.553,8 58,7.552 58,7 C58,6.448 57.553,6 57,6 L9,6 C6.243,6 4,8.243 4,11 L4,57 C4,57.552 4.447,58 5,58 L5,58 Z" id="Shape" fill="#000000"></path>
        <path d="M29,19 C29,19.552 29.447,20 30,20 L36,20 C36.553,20 37,19.552 37,19 C37,18.448 36.553,18 36,18 L30,18 C29.447,18 29,18.448 29,19 L29,19 Z" id="Shape" fill="#000000"></path>
        <path d="M48,16 L48,18 L46,18 C45.447,18 45,18.448 45,19 C45,19.552 45.447,20 46,20 L48,20 L48,22 C48,22.552 48.447,23 49,23 C49.553,23 50,22.552 50,22 L50,20 L52,20 C52.553,20 53,19.552 53,19 C53,18.448 52.553,18 52,18 L50,18 L50,16 C50,15.448 49.553,15 49,15 C48.447,15 48,15.448 48,16 L48,16 Z" id="Shape" fill="#000000"></path>
        <path d="M15.707,16.293 C15.316,15.902 14.684,15.902 14.293,16.293 C13.902,16.684 13.902,17.316 14.293,17.707 L15.586,19 L14.293,20.293 C13.902,20.684 13.902,21.316 14.293,21.707 C14.488,21.902 14.744,22 15,22 C15.256,22 15.512,21.902 15.707,21.707 L17,20.414 L18.293,21.707 C18.488,21.902 18.744,22 19,22 C19.256,22 19.512,21.902 19.707,21.707 C20.098,21.316 20.098,20.684 19.707,20.293 L18.414,19 L19.707,17.707 C20.098,17.316 20.098,16.684 19.707,16.293 C19.316,15.902 18.684,15.902 18.293,16.293 L17,17.586 L15.707,16.293 L15.707,16.293 Z" id="Shape" fill="#000000"></path>
    </g>
</svg>