<?xml version="1.0" encoding="UTF-8" standalone="no"?>
<svg width="64px" height="64px" viewBox="0 0 64 64" version="1.1" xmlns="http://www.w3.org/2000/svg" xmlns:xlink="http://www.w3.org/1999/xlink">
    <!-- Generator: Sketch 3.7.2 (28276) - http://www.bohemiancoding.com/sketch -->
    <title>ui-windows</title>
    <desc>Created with Sketch.</desc>
    <defs></defs>
    <g id="64px-Line" stroke="none" stroke-width="1" fill="none" fill-rule="evenodd">
        <g id="ui-windows"></g>
        <path d="M8,42 L13,42 C13.553,42 14,41.552 14,41 C14,40.448 13.553,40 13,40 L8,40 C6.897,40 6,39.103 6,38 L6,18 L46,18 L46,19 C46,19.552 46.447,20 47,20 C47.553,20 48,19.552 48,19 L48,10 C48,7.794 46.206,6 44,6 L8,6 C5.794,6 4,7.794 4,10 L4,38 C4,40.206 5.794,42 8,42 L8,42 Z M8,8 L44,8 C45.103,8 46,8.897 46,10 L46,16 L6,16 L6,10 C6,8.897 6.897,8 8,8 L8,8 Z" id="Shape" fill="#000000"></path>
        <circle id="Oval" fill="#000000" cx="24" cy="12" r="2"></circle>
        <circle id="Oval" fill="#000000" cx="18" cy="12" r="2"></circle>
        <circle id="Oval" fill="#000000" cx="12" cy="12" r="2"></circle>
        <path d="M56,22 L20,22 C17.794,22 16,23.794 16,26 L16,54 C16,56.206 17.794,58 20,58 L56,58 C58.206,58 60,56.206 60,54 L60,26 C60,23.794 58.206,22 56,22 L56,22 Z M20,24 L56,24 C57.103,24 58,24.897 58,26 L58,32 L18,32 L18,26 C18,24.897 18.897,24 20,24 L20,24 Z M56,56 L20,56 C18.897,56 18,55.103 18,54 L18,34 L58,34 L58,54 C58,55.103 57.103,56 56,56 L56,56 Z" id="Shape" fill="#000000"></path>
        <circle id="Oval" fill="#000000" cx="36" cy="28" r="2"></circle>
        <circle id="Oval" fill="#000000" cx="30" cy="28" r="2"></circle>
        <circle id="Oval" fill="#000000" cx="24" cy="28" r="2"></circle>
    </g>
</svg>