<?xml version="1.0" encoding="UTF-8" standalone="no"?>
<svg width="44px" height="44px" viewBox="0 0 44 44" version="1.1" xmlns="http://www.w3.org/2000/svg" xmlns:xlink="http://www.w3.org/1999/xlink">
    <!-- Generator: Sketch 3.7.2 (28276) - http://www.bohemiancoding.com/sketch -->
    <title>use-user-chat</title>
    <desc>Created with Sketch.</desc>
    <defs></defs>
    <g id="44px-Glyph" stroke="none" stroke-width="1" fill="none" fill-rule="evenodd">
        <g id="use-user-chat" fill="#000000">
            <path d="M21.6831,26.6711 C23.0611,25.8261 24.1851,24.6161 24.9451,23.1851 C24.3511,22.6271 24.0001,21.8421 24.0001,21.0001 L24.0001,20.0001 L23.0001,20.0001 C20.2431,20.0001 18.0001,17.7571 18.0001,15.0001 L18.0001,10.0591 C17.6711,10.0221 17.3381,10.0001 17.0001,10.0001 C12.0371,10.0001 8.0001,14.0371 8.0001,19.0001 C8.0001,22.2461 9.7331,25.0881 12.3171,26.6711 C5.2161,28.7111 0.0001,35.2521 0.0001,43.0001 C0.0001,43.5531 0.4471,44.0001 1.0001,44.0001 L33.0001,44.0001 C33.5531,44.0001 34.0001,43.5531 34.0001,43.0001 C34.0001,35.2521 28.7841,28.7111 21.6831,26.6711" id="Fill-49"></path>
            <path d="M27,22 C26.838,22 26.676,21.961 26.528,21.882 C26.203,21.708 26,21.369 26,21 L26,18 L23,18 C21.346,18 20,16.654 20,15 L20,3 C20,1.346 21.346,0 23,0 L41,0 C42.654,0 44,1.346 44,3 L44,15 C44,16.654 42.654,18 41,18 L33.303,18 L27.555,21.832 C27.388,21.943 27.194,22 27,22" id="Fill-51"></path>
        </g>
    </g>
</svg>