<?xml version="1.0" encoding="UTF-8" standalone="no"?>
<svg width="64px" height="64px" viewBox="0 0 64 64" version="1.1" xmlns="http://www.w3.org/2000/svg" xmlns:xlink="http://www.w3.org/1999/xlink">
    <!-- Generator: Sketch 3.7.2 (28276) - http://www.bohemiancoding.com/sketch -->
    <title>use-male-edit</title>
    <desc>Created with Sketch.</desc>
    <defs></defs>
    <g id="64px-Line" stroke="none" stroke-width="1" fill="none" fill-rule="evenodd">
        <g id="use-male-edit"></g>
        <path d="M59.279,34.81 L57.204,32.729 C56.272,31.79 54.614,31.815 53.735,32.703 L51.945,34.38 C51.941,34.384 51.939,34.39 51.935,34.394 C51.93,34.398 51.924,34.4 51.92,34.404 L36.698,49.697 L36.697,49.697 C36.697,49.697 36.697,49.697 36.697,49.698 L36.331,50.066 C36.254,50.144 36.19,50.233 36.142,50.331 L32.103,58.56 C31.914,58.944 31.991,59.407 32.294,59.709 C32.486,59.9 32.741,60.001 33.001,60.001 C33.151,60.001 33.303,59.967 33.444,59.897 L41.634,55.839 C41.732,55.791 41.822,55.726 41.899,55.649 L57.475,40.003 L59.278,38.309 C60.238,37.347 60.239,35.778 59.279,34.81 L59.279,34.81 Z M37.562,51.976 L40.001,54.415 L35.196,56.796 L37.562,51.976 L37.562,51.976 Z M41.564,53.15 L38.817,50.403 L52.629,36.527 L55.37,39.281 L41.564,53.15 L41.564,53.15 Z M57.886,36.873 L56.805,37.888 L54.065,35.135 L55.129,34.138 C55.247,34.019 55.385,34.001 55.457,34.001 C55.529,34.001 55.666,34.019 55.786,34.14 L57.861,36.221 C58.046,36.407 58.047,36.71 57.886,36.873 L57.886,36.873 Z" id="Shape" fill="#000000"></path>
        <path d="M4.02,43.804 C4.007,43.868 4,43.934 4,44 C4,46.739 7.301,48.394 13.813,48.921 C16.556,51.77 26.05,52 29,52 C29.387,52 30.788,51.992 32.563,51.893 C33.115,51.862 33.537,51.39 33.506,50.839 C33.475,50.287 33.008,49.866 32.452,49.896 C30.728,49.993 29.374,50 29,50 C22.994,50 16.304,49.104 15.137,47.393 C14.965,47.141 14.687,46.981 14.383,46.959 C9.389,46.6 6.128,45.476 6.004,44.083 C7.724,35.703 13.468,33.423 22.793,32.327 C22.926,32.64 26.083,40.001 29.001,40.001 C31.925,40.001 35.078,32.64 35.21,32.326 C40.788,32.982 44.416,34.06 46.972,35.822 C47.428,36.136 48.05,36.022 48.363,35.566 C48.676,35.111 48.562,34.489 48.107,34.175 C45.269,32.218 41.363,31.035 35.438,30.339 C34.564,30.239 33.713,30.738 33.369,31.546 C31.834,35.168 29.689,37.916 29.01,38.001 C28.314,37.914 26.171,35.165 24.635,31.545 C24.292,30.737 23.443,30.242 22.561,30.339 C12.538,31.518 5.94,34.182 4.02,43.804 L4.02,43.804 Z" id="Shape" fill="#000000"></path>
        <path d="M20.197,21.919 C21.555,26.994 24.808,30 29,30 C33.192,30 36.445,26.994 37.804,21.917 C40,21.425 40,18.892 40,18 C40,16.58 40,14.884 38.988,14.252 C38.772,7.355 35.499,4 29,4 C22.501,4 19.228,7.355 19.012,14.252 C18,14.884 18,16.58 18,18 C18,18.986 18,21.444 20.197,21.919 L20.197,21.919 Z M29,6 C34.194,6 36.686,8.446 36.972,13.894 C35.507,13.548 34.827,12.319 33.949,9.684 C33.831,9.331 33.528,9.073 33.16,9.013 C32.792,8.958 32.423,9.103 32.2,9.4 C30.15,12.133 26.488,13.627 21.023,13.953 C21.284,8.392 23.713,6 29,6 L29,6 Z M20.127,15.997 C25.855,15.804 29.969,14.465 32.632,11.917 C33.572,14.23 34.883,15.952 37.874,15.999 C38,16.396 38,17.461 38,18 C38,20 37.514,20 37,20 C36.533,20 36.127,20.324 36.024,20.78 C35.535,22.951 33.87,28 29,28 C24.128,28 22.465,22.951 21.976,20.78 C21.873,20.324 21.468,20 21,20 C20.398,20 20,20 20,18 C20,17.46 20,16.392 20.127,15.997 L20.127,15.997 Z" id="Shape" fill="#000000"></path>
    </g>
</svg>