<?xml version="1.0" encoding="UTF-8" standalone="no"?>
<svg width="44px" height="44px" viewBox="0 0 44 44" version="1.1" xmlns="http://www.w3.org/2000/svg" xmlns:xlink="http://www.w3.org/1999/xlink">
    <!-- Generator: Sketch 3.7.2 (28276) - http://www.bohemiancoding.com/sketch -->
    <title>use-fem-search</title>
    <desc>Created with Sketch.</desc>
    <defs></defs>
    <g id="44px-Line" stroke="none" stroke-width="1" fill="none" fill-rule="evenodd">
        <g id="use-fem-search"></g>
        <path d="M27,8.363 C27,4.207 24.252,0 19,0 C13.748,0 11,4.207 11,8.363 L11,10 C11,14.006 9.62,15.072 8.879,15.646 C8.487,15.949 8,16.326 8,17 C8,19.461 15.94,20 19,20 C19.11,20 30,19.966 30,17 C30,16.306 29.5,15.915 29.098,15.601 C28.314,14.988 27,13.961 27,10 L27,8.363 L27,8.363 Z M19,18 C16.977,18 15.811,16.487 14.976,12.78 C14.873,12.324 14.468,12 14,12 C13.399,12 13,11.799 13,10.818 L13,10 L16,10 C16.334,10 16.646,9.833 16.832,9.555 L18,7.803 L19.168,9.555 C19.354,9.833 19.666,10 20,10 L25,10 L25,10.818 C25,11.865 24.466,12 24,12 C23.532,12 23.127,12.324 23.024,12.78 C22.188,16.487 21.022,18 19,18 L19,18 Z M19,2 C22.96,2 24.843,5.044 24.986,8 L20.535,8 L18.832,5.445 C18.461,4.888 17.539,4.888 17.168,5.445 L15.465,8 L13.014,8 C13.157,5.044 15.04,2 19,2 L19,2 Z M12.537,13.661 C12.739,13.765 12.953,13.854 13.188,13.909 C13.532,15.271 14.017,16.66 14.789,17.77 C12.797,17.541 11.348,17.182 10.534,16.881 C11.185,16.327 12.025,15.407 12.537,13.661 L12.537,13.661 Z M27.509,16.89 C26.713,17.189 25.249,17.55 23.204,17.778 C23.98,16.666 24.467,15.272 24.812,13.906 C25.047,13.848 25.261,13.756 25.464,13.648 C25.991,15.429 26.86,16.344 27.509,16.89 L27.509,16.89 Z" id="Shape" fill="#000000"></path>
        <path d="M6.537,35.969 C8.049,37.318 12.132,38 18.7,38 L18.878,38 L19,38 C20.514,38 23.456,37.951 26.146,37.62 C26.694,37.553 27.084,37.055 27.016,36.506 C26.95,35.958 26.465,35.553 25.902,35.636 C23.318,35.952 20.469,36 19,36 L18.874,36 C11.012,36.052 8.233,35.019 7.819,34.427 C7.646,34.18 7.372,34.025 7.072,34.003 C4.711,33.831 2,33.46 1.999,32.117 C2.004,32.076 2.006,32.035 2.006,31.994 L2.001,31.097 C3.16,25.409 5.745,23.174 12.692,22.141 L11.03,28.757 C10.943,29.104 11.048,29.47 11.304,29.719 C11.56,29.968 11.933,30.058 12.274,29.962 L19,28.04 L25.726,29.962 C25.816,29.987 25.909,30 26,30 C26.256,30 26.507,29.901 26.695,29.719 C26.952,29.47 27.056,29.103 26.969,28.756 L25.306,22.14 C27.34,22.442 28.925,22.834 30.212,23.355 C30.723,23.562 31.307,23.316 31.514,22.803 C31.721,22.291 31.474,21.708 30.962,21.501 C29.221,20.796 27.048,20.308 24.119,19.963 C23.333,19.884 22.575,20.318 22.265,21.044 C21.135,23.709 19.502,25.856 19.046,26.005 C18.496,25.856 16.863,23.707 15.733,21.043 C15.424,20.319 14.668,19.87 13.875,19.964 C6.109,20.878 1.601,22.876 0.019,30.805 C0.005,30.871 -0.001,30.939 -0.001,31.006 L0.005,31.974 C0.002,32.023 -0.001,32.076 -0.001,32.098 C0,35.309 4.18,35.788 6.537,35.969 L6.537,35.969 Z M23.494,23.129 L24.608,27.563 L21.26,26.606 C22.177,25.561 22.976,24.152 23.494,23.129 L23.494,23.129 Z M16.743,26.605 L13.393,27.563 L14.507,23.125 C15.024,24.148 15.824,25.559 16.743,26.605 L16.743,26.605 Z" id="Shape" fill="#000000"></path>
        <path d="M36,24 C31.589,24 28,27.589 28,32 C28,33.846 28.634,35.542 29.688,36.898 L24.293,42.293 C23.902,42.684 23.902,43.316 24.293,43.707 C24.488,43.902 24.744,44 25,44 C25.256,44 25.512,43.902 25.707,43.707 L31.102,38.312 C32.457,39.366 34.154,40 36,40 C40.411,40 44,36.411 44,32 C44,27.589 40.411,24 36,24 L36,24 Z M36,38 C34.347,38 32.848,37.328 31.761,36.243 C31.76,36.242 31.76,36.241 31.759,36.241 C31.758,36.241 31.757,36.24 31.757,36.239 C30.672,35.152 30,33.653 30,32 C30,28.691 32.691,26 36,26 C39.309,26 42,28.691 42,32 C42,35.309 39.309,38 36,38 L36,38 Z" id="Shape" fill="#000000"></path>
    </g>
</svg>