<?xml version="1.0" encoding="UTF-8" standalone="no"?>
<svg width="64px" height="64px" viewBox="0 0 64 64" version="1.1" xmlns="http://www.w3.org/2000/svg" xmlns:xlink="http://www.w3.org/1999/xlink">
    <!-- Generator: Sketch 3.7.2 (28276) - http://www.bohemiancoding.com/sketch -->
    <title>use-fem</title>
    <desc>Created with Sketch.</desc>
    <defs></defs>
    <g id="64px-Glyph" stroke="none" stroke-width="1" fill="none" fill-rule="evenodd">
        <g id="use-fem" fill="#000000">
            <path d="M26.3818,16 L28.1058,12.553 C28.4448,11.875 29.5558,11.875 29.8948,12.553 L31.6178,16 L41.9508,16 C41.4618,11.015 37.3678,6 30.9998,6 C24.6318,6 20.5378,11.016 20.0498,16 L26.3818,16 Z" id="Fill-383"></path>
            <path d="M31,18 C30.621,18 30.275,17.786 30.105,17.447 L29,15.236 L27.895,17.447 C27.725,17.786 27.379,18 27,18 L20,18 L20,20 C20,22.077 21.279,23.601 23.195,23.933 C24.563,29.287 27.186,32 31,32 C34.814,32 37.439,29.284 38.807,23.924 C40.498,23.603 42,22.269 42,20 L42,18 L31,18 Z" id="Fill-385"></path>
            <path d="M21.5684,25.5361 C20.6374,25.1551 19.8624,24.5451 19.2664,23.7841 C18.6224,25.4111 17.6974,26.0581 17.0864,26.4791 C16.6024,26.8131 16.0004,27.2291 16.0004,28.0001 C16.0004,29.7341 20.2784,30.9971 24.9924,31.6011 C23.6524,30.3091 22.4424,28.3851 21.5684,25.5361" id="Fill-387"></path>
            <path d="M44.8818,26.4224 C44.2798,26.0014 43.3688,25.3564 42.7328,23.7544 C42.1378,24.5124 41.3658,25.1234 40.4388,25.5124 C39.5618,28.3844 38.3428,30.3194 36.9938,31.6144 C41.6848,31.0304 45.9998,29.7964 45.9998,28.0004 C45.9998,27.2034 45.4058,26.7884 44.8818,26.4224" id="Fill-389"></path>
            <path d="M26.1984,34.3326 L23.4404,43.6556 L30.7834,42.0236 C30.9254,41.9916 31.0744,41.9916 31.2164,42.0236 L38.5524,43.6536 L35.7644,34.3606 C35.4554,34.5726 35.1944,34.8556 35.0424,35.2136 C32.7804,40.5496 31.3404,41.9226 31.0244,42.0016 C30.6604,41.9216 29.2214,40.5466 26.9574,35.2126 C26.7994,34.8396 26.5254,34.5446 26.1984,34.3326" id="Fill-391"></path>
            <path d="M55.9722,51.8018 L54.9612,46.8038 C53.1502,37.7458 47.7292,35.3358 37.7712,34.0918 L40.9582,44.7128 C41.0592,45.0528 40.9742,45.4208 40.7322,45.6808 C40.5412,45.8868 40.2742,45.9998 40.0002,45.9998 C39.9282,45.9998 39.8552,45.9918 39.7832,45.9758 L31.0002,44.0248 L22.2172,45.9758 C21.8722,46.0528 21.5102,45.9408 21.2692,45.6818 C21.0272,45.4238 20.9402,45.0558 21.0412,44.7168 L24.1832,34.0938 C15.3702,35.1748 8.9972,36.8998 7.0192,46.8048 L6.0182,51.8588 C6.0052,51.9468 6.0002,52.0378 6.0002,52.1238 C6.0002,54.8628 9.3002,56.5168 15.8112,57.0448 C18.1302,59.4738 25.2352,59.9998 31.0242,59.9998 L31.0602,59.9998 C36.7692,59.9998 43.8692,59.4738 46.1892,57.0448 C52.7002,56.5168 56.0002,54.8628 56.0002,52.1238 C56.0002,52.0378 55.9942,51.9468 55.9722,51.8018" id="Fill-393"></path>
        </g>
    </g>
</svg>