<?xml version="1.0" encoding="UTF-8" standalone="no"?>
<svg width="44px" height="44px" viewBox="0 0 44 44" version="1.1" xmlns="http://www.w3.org/2000/svg" xmlns:xlink="http://www.w3.org/1999/xlink">
    <!-- Generator: Sketch 3.7.2 (28276) - http://www.bohemiancoding.com/sketch -->
    <title>use-fem-settings</title>
    <desc>Created with Sketch.</desc>
    <defs></defs>
    <g id="44px-Line" stroke="none" stroke-width="1" fill="none" fill-rule="evenodd">
        <g id="use-fem-settings"></g>
        <path d="M27,8.363 C27,4.207 24.252,0 19,0 C13.748,0 11,4.207 11,8.363 L11,10 C11,14.006 9.62,15.072 8.879,15.646 C8.487,15.949 8,16.326 8,17 C8,19.461 15.94,20 19,20 C19.11,20 30,19.966 30,17 C30,16.306 29.5,15.915 29.098,15.601 C28.314,14.988 27,13.961 27,10 L27,8.363 L27,8.363 Z M19,18 C16.977,18 15.811,16.487 14.976,12.78 C14.873,12.324 14.468,12 14,12 C13.399,12 13,11.799 13,10.818 L13,10 L16,10 C16.334,10 16.646,9.833 16.832,9.555 L18,7.803 L19.168,9.555 C19.354,9.833 19.666,10 20,10 L25,10 L25,10.818 C25,11.865 24.466,12 24,12 C23.532,12 23.127,12.324 23.024,12.78 C22.188,16.487 21.022,18 19,18 L19,18 Z M19,2 C22.96,2 24.843,5.044 24.986,8 L20.535,8 L18.832,5.445 C18.461,4.888 17.539,4.888 17.168,5.445 L15.465,8 L13.014,8 C13.157,5.044 15.04,2 19,2 L19,2 Z M12.537,13.661 C12.739,13.765 12.953,13.854 13.188,13.909 C13.532,15.271 14.017,16.66 14.789,17.77 C12.797,17.541 11.348,17.182 10.534,16.881 C11.185,16.327 12.025,15.407 12.537,13.661 L12.537,13.661 Z M27.509,16.89 C26.713,17.189 25.249,17.55 23.204,17.778 C23.98,16.666 24.467,15.272 24.812,13.906 C25.047,13.848 25.261,13.756 25.464,13.648 C25.991,15.429 26.86,16.344 27.509,16.89 L27.509,16.89 Z" id="Shape" fill="#000000"></path>
        <path d="M6.537,35.969 C8.049,37.318 12.132,38 18.7,38 L18.878,38 L19,38 C19.198,38 19.658,38 20.292,37.989 C20.844,37.979 21.284,37.524 21.274,36.971 C21.264,36.419 20.826,35.968 20.256,35.989 C19.641,36 19.192,36 19,36 L18.874,36 C11.02,36.052 8.233,35.019 7.819,34.427 C7.646,34.18 7.372,34.025 7.072,34.003 C4.711,33.831 2,33.46 1.999,32.117 C2.004,32.076 2.006,32.035 2.006,31.994 L2.001,31.097 C3.16,25.409 5.745,23.174 12.692,22.141 L11.03,28.757 C10.943,29.104 11.048,29.47 11.304,29.719 C11.492,29.902 11.743,30 11.999,30 C12.091,30 12.184,29.987 12.273,29.962 L19,28.04 L21.066,28.631 C21.591,28.777 22.15,28.476 22.302,27.943 C22.453,27.413 22.146,26.859 21.614,26.707 L21.258,26.605 C22.646,25.027 23.769,22.594 24.045,21.968 C24.971,22.079 25.795,22.202 26.56,22.345 C27.101,22.447 27.624,22.087 27.726,21.544 C27.827,21.001 27.468,20.48 26.925,20.378 C26.074,20.22 25.157,20.084 24.119,19.962 C23.331,19.883 22.575,20.317 22.265,21.043 C21.135,23.708 19.502,25.855 19.046,26.004 C18.496,25.855 16.863,23.706 15.733,21.042 C15.424,20.318 14.664,19.869 13.875,19.963 C6.109,20.877 1.601,22.875 0.019,30.804 C0.005,30.87 -0.001,30.938 -0.001,31.005 L0.005,31.973 C0.002,32.022 -0.001,32.075 -0.001,32.097 C0,35.309 4.18,35.788 6.537,35.969 L6.537,35.969 Z M16.743,26.605 L13.393,27.563 L14.507,23.125 C15.024,24.148 15.824,25.559 16.743,26.605 L16.743,26.605 Z" id="Shape" fill="#000000"></path>
        <path d="M33,28 C30.243,28 28,30.243 28,33 C28,35.757 30.243,38 33,38 C35.757,38 38,35.757 38,33 C38,30.243 35.757,28 33,28 L33,28 Z M33,36 C31.346,36 30,34.654 30,33 C30,31.346 31.346,30 33,30 C34.654,30 36,31.346 36,33 C36,34.654 34.654,36 33,36 L33,36 Z" id="Shape" fill="#000000"></path>
        <path d="M42.23,30.462 L41.311,30.462 C41.145,29.919 40.925,29.39 40.659,28.891 L41.18,28.37 C41.861,27.687 41.861,26.576 41.179,25.89 L40.11,24.821 C39.423,24.138 38.311,24.14 37.631,24.823 L37.112,25.342 C36.609,25.071 36.084,24.852 35.539,24.686 L35.539,23.772 C35.539,22.796 34.746,22.002 33.77,22.002 L32.231,22.002 C31.255,22.002 30.462,22.796 30.462,23.772 L30.462,24.686 C29.916,24.852 29.391,25.071 28.888,25.341 L28.369,24.822 C27.686,24.141 26.573,24.142 25.889,24.823 L24.821,25.891 C24.138,26.576 24.138,27.689 24.822,28.371 L25.341,28.89 C25.071,29.391 24.853,29.916 24.687,30.463 L23.771,30.463 C22.795,30.463 22.001,31.256 22.001,32.232 L22.001,33.771 C22.001,34.747 22.795,35.54 23.771,35.54 L24.69,35.54 C24.856,36.084 25.076,36.613 25.342,37.112 L24.822,37.632 C24.14,38.314 24.139,39.426 24.822,40.113 L25.89,41.181 C26.574,41.863 27.687,41.864 28.37,41.18 L28.89,40.66 C29.391,40.93 29.916,41.147 30.462,41.313 L30.462,42.231 C30.462,43.207 31.255,44.001 32.231,44.001 L33.77,44.001 C34.746,44.001 35.539,43.207 35.539,42.231 L35.539,41.311 C36.083,41.144 36.611,40.924 37.11,40.659 L37.631,41.18 C38.313,41.862 39.425,41.862 40.112,41.18 L41.18,40.111 C41.863,39.426 41.862,38.314 41.179,37.632 L40.661,37.113 C40.931,36.612 41.148,36.087 41.314,35.54 L42.23,35.54 C43.206,35.54 44,34.747 44,33.771 L44,32.232 C44,31.255 43.206,30.462 42.23,30.462 L42.23,30.462 Z M42,33.538 L40.536,33.538 C40.06,33.538 39.65,33.873 39.556,34.34 C39.383,35.194 39.052,35.992 38.572,36.711 C38.306,37.107 38.358,37.636 38.696,37.974 L39.592,38.87 L38.871,39.591 L37.974,38.694 C37.636,38.356 37.109,38.304 36.711,38.57 C36.005,39.042 35.185,39.382 34.339,39.555 C33.873,39.65 33.539,40.06 33.539,40.534 L33.539,42 L32.463,42 L32.463,40.534 C32.463,40.058 32.128,39.648 31.661,39.554 C30.807,39.381 30.01,39.05 29.291,38.57 C28.894,38.305 28.366,38.357 28.028,38.694 L27.13,39.591 L26.41,38.871 L27.306,37.974 C27.643,37.637 27.696,37.109 27.431,36.712 C26.958,36.004 26.617,35.183 26.444,34.338 C26.349,33.872 25.939,33.538 25.465,33.538 L24,33.538 L24,32.462 L25.464,32.462 C25.94,32.462 26.35,32.127 26.444,31.66 C26.617,30.806 26.949,30.008 27.429,29.29 C27.695,28.893 27.643,28.364 27.305,28.026 L26.409,27.129 L27.129,26.409 L28.026,27.305 C28.364,27.643 28.893,27.693 29.29,27.429 C30.012,26.946 30.81,26.613 31.66,26.441 C32.127,26.346 32.462,25.936 32.462,25.461 L32.462,24 L33.538,24 L33.538,25.461 C33.538,25.937 33.873,26.347 34.34,26.441 C35.188,26.613 35.986,26.946 36.712,27.43 C37.108,27.694 37.636,27.643 37.974,27.305 L38.871,26.409 L39.591,27.129 L38.695,28.026 C38.358,28.363 38.305,28.891 38.57,29.288 C39.043,29.998 39.384,30.819 39.557,31.662 C39.652,32.128 40.062,32.462 40.536,32.462 L42,32.462 L42,33.538 L42,33.538 Z" id="Shape" fill="#000000"></path>
    </g>
</svg>