<?xml version="1.0" encoding="UTF-8" standalone="no"?>
<svg width="64px" height="64px" viewBox="0 0 64 64" version="1.1" xmlns="http://www.w3.org/2000/svg" xmlns:xlink="http://www.w3.org/1999/xlink">
    <!-- Generator: Sketch 3.7.2 (28276) - http://www.bohemiancoding.com/sketch -->
    <title>use-switch</title>
    <desc>Created with Sketch.</desc>
    <defs></defs>
    <g id="64px-Line" stroke="none" stroke-width="1" fill="none" fill-rule="evenodd">
        <g id="use-switch"></g>
        <path d="M12,35 C16.139,35 18,30.322 18,27 C18,22.486 15.869,20 12,20 C8.131,20 6,22.486 6,27 C6,30.322 7.861,35 12,35 L12,35 Z M12,22 C13.717,22 16,22.518 16,27 C16,29.42 14.729,33 12,33 C9.271,33 8,29.42 8,27 C8,22.518 10.283,22 12,22 L12,22 Z" id="Shape" fill="#000000"></path>
        <path d="M12,42 C19.963,42 24,40.991 24,39 C24,38.958 23.997,38.917 23.992,38.876 C23.473,34.728 22.227,33.853 18.212,32.996 C17.674,32.88 17.14,33.225 17.025,33.766 C16.91,34.306 17.254,34.837 17.794,34.953 C20.997,35.636 21.575,35.949 21.967,38.812 C21.255,39.252 18.234,40 12,40 C5.766,40 2.745,39.252 2.033,38.811 C2.425,35.947 3.003,35.635 6.209,34.95 C6.749,34.835 7.094,34.303 6.978,33.763 C6.864,33.222 6.33,32.876 5.791,32.994 C1.773,33.852 0.526,34.728 0.008,38.876 C0.003,38.917 0,38.958 0,39 C0,40.991 4.037,42 12,42 L12,42 Z" id="Shape" fill="#000000"></path>
        <path d="M44,27 C44,30.322 45.861,35 50,35 C54.139,35 56,30.322 56,27 C56,22.486 53.869,20 50,20 C46.131,20 44,22.486 44,27 L44,27 Z M50,22 C51.717,22 54,22.518 54,27 C54,29.42 52.729,33 50,33 C47.271,33 46,29.42 46,27 C46,22.518 48.283,22 50,22 L50,22 Z" id="Shape" fill="#000000"></path>
        <path d="M56.212,32.996 C55.673,32.88 55.14,33.225 55.025,33.766 C54.91,34.306 55.254,34.837 55.794,34.953 C58.997,35.636 59.575,35.949 59.967,38.812 C59.255,39.252 56.234,40 50,40 C43.766,40 40.745,39.252 40.033,38.811 C40.425,35.947 41.003,35.635 44.209,34.95 C44.749,34.835 45.094,34.303 44.978,33.763 C44.864,33.222 44.33,32.876 43.791,32.994 C39.773,33.852 38.526,34.728 38.008,38.876 C38.003,38.917 38,38.958 38,39 C38,40.991 42.037,42 50,42 C57.963,42 62,40.991 62,39 C62,38.958 61.997,38.917 61.992,38.876 C61.474,34.728 60.228,33.853 56.212,32.996 L56.212,32.996 Z" id="Shape" fill="#000000"></path>
        <path d="M13.771,46.363 C13.419,45.938 12.791,45.877 12.363,46.229 C11.937,46.581 11.877,47.211 12.228,47.637 C16.424,52.717 23.792,56 31,56 C37.28,56 43.68,53.506 48,49.504 L48,51 C48,51.552 48.447,52 49,52 C49.553,52 50,51.552 50,51 L50,47 C50,46.984 49.992,46.97 49.991,46.954 C49.988,46.883 49.968,46.817 49.949,46.748 C49.933,46.689 49.924,46.63 49.898,46.576 C49.873,46.523 49.834,46.478 49.799,46.429 C49.757,46.371 49.719,46.313 49.666,46.264 C49.654,46.253 49.649,46.238 49.637,46.228 C49.601,46.199 49.558,46.189 49.52,46.165 C49.46,46.127 49.403,46.09 49.335,46.066 C49.267,46.042 49.2,46.034 49.13,46.025 C49.085,46.02 49.046,46 49,46 L45,46 C44.447,46 44,46.448 44,47 C44,47.552 44.447,48 45,48 L46.684,48 C42.732,51.695 36.817,54 31,54 C24.364,54 17.602,51.002 13.771,46.363 L13.771,46.363 Z" id="Shape" fill="#000000"></path>
        <path d="M12.051,15.252 C12.067,15.311 12.076,15.369 12.102,15.423 C12.127,15.477 12.166,15.521 12.201,15.57 C12.243,15.628 12.281,15.686 12.334,15.734 C12.346,15.745 12.351,15.76 12.363,15.77 C12.398,15.799 12.441,15.809 12.479,15.832 C12.539,15.87 12.597,15.907 12.665,15.931 C12.731,15.954 12.796,15.962 12.864,15.971 C12.911,15.979 12.952,16 13,16 L17,16 C17.553,16 18,15.552 18,15 C18,14.448 17.553,14 17,14 L15.316,14 C19.268,10.305 25.183,8 31,8 C37.636,8 44.398,10.998 48.229,15.637 C48.427,15.876 48.713,16 49.001,16 C49.225,16 49.45,15.925 49.637,15.771 C50.063,15.419 50.123,14.789 49.772,14.363 C45.576,9.283 38.208,6 31,6 C24.72,6 18.32,8.494 14,12.496 L14,11 C14,10.448 13.553,10 13,10 C12.447,10 12,10.448 12,11 L12,15 C12,15.016 12.008,15.03 12.009,15.046 C12.013,15.117 12.033,15.183 12.051,15.252 L12.051,15.252 Z" id="Shape" fill="#000000"></path>
    </g>
</svg>