<?xml version="1.0" encoding="UTF-8" standalone="no"?>
<svg width="64px" height="64px" viewBox="0 0 64 64" version="1.1" xmlns="http://www.w3.org/2000/svg" xmlns:xlink="http://www.w3.org/1999/xlink">
    <!-- Generator: Sketch 3.7.2 (28276) - http://www.bohemiancoding.com/sketch -->
    <title>use-user-switch</title>
    <desc>Created with Sketch.</desc>
    <defs></defs>
    <g id="64px-Line" stroke="none" stroke-width="1" fill="none" fill-rule="evenodd">
        <g id="use-user-switch"></g>
        <path d="M13.771,46.363 C13.419,45.938 12.791,45.878 12.363,46.228 C11.937,46.58 11.877,47.21 12.228,47.636 C16.424,52.717 23.792,56 31,56 C37.28,56 43.68,53.506 48,49.504 L48,51 C48,51.553 48.447,52 49,52 C49.553,52 50,51.553 50,51 L50,47 C50,46.984 49.992,46.97 49.991,46.954 C49.988,46.883 49.968,46.817 49.95,46.748 C49.934,46.689 49.925,46.629 49.899,46.575 C49.874,46.522 49.835,46.477 49.8,46.429 C49.758,46.371 49.72,46.313 49.667,46.264 C49.655,46.253 49.65,46.238 49.637,46.227 C49.601,46.197 49.557,46.188 49.519,46.164 C49.459,46.127 49.402,46.09 49.335,46.066 C49.268,46.042 49.201,46.034 49.131,46.025 C49.086,46.02 49.046,46 49,46 L45,46 C44.447,46 44,46.447 44,47 C44,47.553 44.447,48 45,48 L46.684,48 C42.732,51.695 36.817,54 31,54 C24.364,54 17.602,51.002 13.771,46.363 L13.771,46.363 Z" id="Shape" fill="#000000"></path>
        <path d="M48.229,15.637 C48.427,15.876 48.713,16 49.001,16 C49.225,16 49.45,15.925 49.637,15.771 C50.063,15.419 50.123,14.789 49.772,14.363 C45.576,9.283 38.208,6 31,6 C24.72,6 18.32,8.494 14,12.496 L14,11 C14,10.447 13.553,10 13,10 C12.447,10 12,10.447 12,11 L12,15 C12,15.016 12.008,15.03 12.009,15.046 C12.012,15.117 12.032,15.183 12.051,15.252 C12.067,15.311 12.076,15.37 12.102,15.424 C12.127,15.477 12.166,15.522 12.201,15.571 C12.243,15.629 12.281,15.687 12.334,15.735 C12.346,15.746 12.351,15.761 12.364,15.772 C12.4,15.801 12.443,15.811 12.481,15.834 C12.542,15.872 12.6,15.909 12.668,15.933 C12.731,15.955 12.795,15.963 12.861,15.972 C12.909,15.979 12.951,16 13.001,16 L17.001,16 C17.554,16 18.001,15.553 18.001,15 C18.001,14.447 17.554,14 17.001,14 L15.317,14 C19.269,10.305 25.184,8 31.001,8 C37.636,8 44.398,10.998 48.229,15.637 L48.229,15.637 Z" id="Shape" fill="#000000"></path>
        <path d="M12,32 C17.149,32 21.544,35.993 22.004,41.09 C22.054,41.641 22.55,42.05 23.09,41.996 C23.64,41.946 24.046,41.46 23.996,40.91 C23.562,36.103 20.211,32.126 15.802,30.637 C17.143,29.536 18,27.866 18,26 C18,22.691 15.309,20 12,20 C8.691,20 6,22.691 6,26 C6,27.867 6.857,29.536 8.198,30.637 C3.788,32.125 0.437,36.102 0.004,40.91 C-0.046,41.46 0.36,41.946 0.91,41.996 C0.94,41.999 0.971,42 1.001,42 C1.513,42 1.949,41.609 1.996,41.09 C2.455,35.992 6.85,32 12,32 L12,32 Z M8,26 C8,23.794 9.794,22 12,22 C14.206,22 16,23.794 16,26 C16,28.206 14.206,30 12,30 C9.794,30 8,28.206 8,26 L8,26 Z" id="Shape" fill="#000000"></path>
        <path d="M53.802,30.637 C55.143,29.536 56,27.866 56,26 C56,22.691 53.309,20 50,20 C46.691,20 44,22.691 44,26 C44,27.867 44.857,29.536 46.198,30.637 C41.788,32.125 38.437,36.102 38.004,40.91 C37.954,41.46 38.36,41.946 38.91,41.996 C38.94,41.999 38.971,42 39.001,42 C39.513,42 39.949,41.609 39.996,41.09 C40.455,35.992 44.85,32 50,32 C55.149,32 59.544,35.993 60.004,41.09 C60.054,41.641 60.551,42.05 61.09,41.996 C61.64,41.946 62.046,41.46 61.996,40.91 C61.563,36.103 58.211,32.126 53.802,30.637 L53.802,30.637 Z M46,26 C46,23.794 47.794,22 50,22 C52.206,22 54,23.794 54,26 C54,28.206 52.206,30 50,30 C47.794,30 46,28.206 46,26 L46,26 Z" id="Shape" fill="#000000"></path>
    </g>
</svg>