<?xml version="1.0" encoding="UTF-8" standalone="no"?>
<svg width="64px" height="64px" viewBox="0 0 64 64" version="1.1" xmlns="http://www.w3.org/2000/svg" xmlns:xlink="http://www.w3.org/1999/xlink">
    <!-- Generator: Sketch 3.7.2 (28276) - http://www.bohemiancoding.com/sketch -->
    <title>use-fem-minus</title>
    <desc>Created with Sketch.</desc>
    <defs></defs>
    <g id="64px-Line" stroke="none" stroke-width="1" fill="none" fill-rule="evenodd">
        <g id="use-fem-minus"></g>
        <path d="M41.976,32.528 C42.105,31.991 41.774,31.451 41.237,31.322 C39.578,30.924 37.683,30.602 35.437,30.338 C35.366,30.33 35.299,30.349 35.229,30.349 C35.204,30.351 35.181,30.342 35.156,30.347 C35.149,30.348 35.144,30.353 35.137,30.354 C34.377,30.387 33.672,30.832 33.368,31.545 C31.833,35.168 29.688,37.915 29.009,38 C28.313,37.913 26.17,35.164 24.634,31.545 C24.332,30.834 23.634,30.397 22.873,30.357 C22.864,30.355 22.857,30.349 22.847,30.347 C22.814,30.341 22.783,30.352 22.75,30.35 C22.686,30.35 22.624,30.333 22.559,30.339 C12.538,31.519 5.94,34.182 4.019,43.805 C4.006,43.869 3.999,43.935 3.999,44 C3.999,46.738 7.3,48.394 13.812,48.921 C16.556,51.771 26.05,52 29,52 C29.355,52 30.338,51.994 31.644,51.938 C32.196,51.915 32.624,51.448 32.601,50.896 C32.578,50.345 32.143,49.917 31.559,49.94 C30.295,49.994 29.344,50 29,50 C22.994,50 16.304,49.104 15.137,47.393 C14.965,47.141 14.687,46.981 14.383,46.959 C9.389,46.6 6.128,45.476 6.004,44.082 C7.64,36.112 12.924,33.663 21.459,32.499 L20.015,40.829 C19.957,41.162 20.072,41.502 20.32,41.732 C20.506,41.906 20.75,42 21,42 C21.081,42 21.162,41.99 21.243,41.97 L29,40.032 L32.418,40.886 C32.953,41.02 33.497,40.696 33.631,40.158 C33.765,39.623 33.439,39.08 32.903,38.946 L31.434,38.579 C32.813,37.105 34.022,34.843 34.682,33.475 L35.04,35.543 C35.124,36.029 35.547,36.372 36.024,36.372 C36.081,36.372 36.138,36.367 36.195,36.357 C36.739,36.263 37.104,35.746 37.01,35.201 L36.542,32.498 C38.129,32.717 39.527,32.97 40.77,33.268 C41.304,33.395 41.848,33.066 41.976,32.528 L41.976,32.528 Z M23.32,33.473 C23.98,34.84 25.19,37.103 26.569,38.577 L22.248,39.657 L23.32,33.473 L23.32,33.473 Z" id="Shape" fill="#000000"></path>
        <path d="M44,26 C44,25.203 43.406,24.789 42.882,24.423 C41.875,23.719 40,22.41 40,17 L40,15 C40,9.71 35.794,4 29,4 C22.206,4 18,9.709 18,14.999 L18,17 C18,22.47 16.104,23.777 15.086,24.479 C14.602,24.813 14,25.229 14,26 C14,28.479 22.736,30 29,30 C35.131,30 44,28.575 44,26 L44,26 Z M29,28 C27.112,28 24.434,27.252 22.976,20.78 C22.873,20.324 22.468,20 22,20 C21.033,20 20,19.475 20,18 L20,16 L25,16 C25.379,16 25.725,15.786 25.895,15.447 L27,13.236 L28.105,15.447 C28.274,15.786 28.621,16 29,16 L38,16 L38,18 C38,19.382 36.996,20 36,20 C35.533,20 35.127,20.324 35.024,20.78 C33.565,27.252 30.887,28 29,28 L29,28 Z M29,6 C34.133,6 37.453,9.983 37.933,14 L29.618,14 L27.894,10.553 C27.555,9.875 26.444,9.875 26.105,10.553 L24.382,14 L20.067,14 C20.547,9.982 23.867,6 29,6 L29,6 Z M19.535,21.224 C20.006,21.572 20.561,21.822 21.195,21.932 C21.838,24.451 22.763,26.377 23.955,27.72 C20.229,27.299 17.599,26.495 16.46,25.96 C17.389,25.303 18.809,24.113 19.535,21.224 L19.535,21.224 Z M34.038,27.726 C35.234,26.382 36.162,24.451 36.806,21.924 C37.403,21.811 37.972,21.565 38.464,21.203 C39.212,24.167 40.696,25.331 41.606,25.971 C40.486,26.533 37.764,27.317 34.038,27.726 L34.038,27.726 Z" id="Shape" fill="#000000"></path>
        <path d="M47,34 C39.832,34 34,39.832 34,47 C34,54.168 39.832,60 47,60 C54.168,60 60,54.168 60,47 C60,39.832 54.168,34 47,34 L47,34 Z M47,58 C40.935,58 36,53.065 36,47 C36,40.935 40.935,36 47,36 C53.065,36 58,40.935 58,47 C58,53.065 53.065,58 47,58 L47,58 Z" id="Shape" fill="#000000"></path>
        <path d="M53,46 L41,46 C40.448,46 40,46.447 40,47 C40,47.553 40.448,48 41,48 L53,48 C53.552,48 54,47.553 54,47 C54,46.447 53.552,46 53,46 L53,46 Z" id="Shape" fill="#000000"></path>
    </g>
</svg>