<?xml version="1.0" encoding="UTF-8" standalone="no"?>
<svg width="64px" height="64px" viewBox="0 0 64 64" version="1.1" xmlns="http://www.w3.org/2000/svg" xmlns:xlink="http://www.w3.org/1999/xlink">
    <!-- Generator: Sketch 3.7.2 (28276) - http://www.bohemiancoding.com/sketch -->
    <title>use-male-search</title>
    <desc>Created with Sketch.</desc>
    <defs></defs>
    <g id="64px-Line" stroke="none" stroke-width="1" fill="none" fill-rule="evenodd">
        <g id="use-male-search"></g>
        <path d="M50,34 C44.486,34 40,38.486 40,44 C40,46.398 40.85,48.6 42.262,50.324 L34.293,58.293 C33.902,58.684 33.902,59.316 34.293,59.707 C34.488,59.902 34.744,60 35,60 C35.256,60 35.512,59.902 35.707,59.707 L43.676,51.738 C45.4,53.15 47.602,54 50,54 C55.514,54 60,49.514 60,44 C60,38.486 55.514,34 50,34 L50,34 Z M50,52 C45.589,52 42,48.411 42,44 C42,39.589 45.589,36 50,36 C54.411,36 58,39.589 58,44 C58,48.411 54.411,52 50,52 L50,52 Z" id="Shape" fill="#000000"></path>
        <path d="M4.02,43.804 C4.007,43.868 4,43.934 4,44 C4,46.739 7.301,48.394 13.812,48.921 C16.556,51.77 26.05,52 29,52 C29.988,52 35.123,51.957 39.205,51.1 C39.746,50.987 40.092,50.456 39.978,49.916 C39.864,49.376 39.332,49.031 38.794,49.143 C34.906,49.958 29.953,50 29,50 C22.994,50 16.304,49.104 15.137,47.393 C14.965,47.141 14.687,46.981 14.383,46.959 C9.388,46.6 6.127,45.476 6.004,44.083 C7.724,35.703 13.468,33.423 22.792,32.327 C22.926,32.64 26.083,40 29,40 C31.925,40 35.077,32.639 35.209,32.325 C38.621,32.727 41.192,33.261 43.302,34.006 C43.823,34.192 44.394,33.917 44.578,33.396 C44.762,32.875 44.488,32.304 43.968,32.12 C41.715,31.324 39.007,30.758 35.438,30.338 C34.56,30.239 33.712,30.736 33.369,31.545 C31.834,35.167 29.689,37.915 29.01,38 C28.315,37.913 26.17,35.164 24.634,31.544 C24.292,30.736 23.447,30.243 22.56,30.338 C12.537,31.518 5.94,34.182 4.02,43.804 L4.02,43.804 Z" id="Shape" fill="#000000"></path>
        <path d="M29,30 C33.192,30 36.445,26.994 37.804,21.917 C40,21.425 40,18.892 40,18 C40,16.58 40,14.884 38.988,14.252 C38.771,7.355 35.499,4 29,4 C22.501,4 19.229,7.355 19.012,14.252 C18,14.884 18,16.58 18,18 C18,18.986 18,21.444 20.196,21.919 C21.555,26.995 24.808,30 29,30 L29,30 Z M29,6 C34.193,6 36.687,8.446 36.972,13.894 C35.507,13.548 34.827,12.319 33.949,9.684 C33.832,9.331 33.528,9.073 33.161,9.013 C32.792,8.954 32.424,9.103 32.201,9.4 C30.151,12.133 26.489,13.627 21.024,13.953 C21.284,8.392 23.713,6 29,6 L29,6 Z M20.127,15.997 C25.855,15.804 29.969,14.465 32.632,11.917 C33.571,14.229 34.883,15.952 37.874,15.999 C38,16.396 38,17.461 38,18 C38,20 37.515,20 37,20 C36.532,20 36.127,20.324 36.024,20.78 C35.535,22.951 33.87,28 29,28 C24.128,28 22.465,22.951 21.976,20.78 C21.873,20.324 21.468,20 21,20 C20.397,20 20,20 20,18 C20,17.46 20,16.391 20.127,15.997 L20.127,15.997 Z" id="Shape" fill="#000000"></path>
    </g>
</svg>