<?xml version="1.0" encoding="UTF-8" standalone="no"?>
<svg width="64px" height="64px" viewBox="0 0 64 64" version="1.1" xmlns="http://www.w3.org/2000/svg" xmlns:xlink="http://www.w3.org/1999/xlink">
    <!-- Generator: Sketch 3.7.2 (28276) - http://www.bohemiancoding.com/sketch -->
    <title>use-user-structure</title>
    <desc>Created with Sketch.</desc>
    <defs></defs>
    <g id="64px-Line" stroke="none" stroke-width="1" fill="none" fill-rule="evenodd">
        <g id="use-user-structure"></g>
        <path d="M45,32 L32,32 L32,27 C32,26.447 31.553,26 31,26 C30.447,26 30,26.447 30,27 L30,32 L17,32 C16.447,32 16,32.447 16,33 L16,37 C16,37.553 16.447,38 17,38 C17.553,38 18,37.553 18,37 L18,34 L44,34 L44,37 C44,37.553 44.447,38 45,38 C45.553,38 46,37.553 46,37 L46,33 C46,32.447 45.553,32 45,32 L45,32 Z" id="Shape" fill="#000000"></path>
        <path d="M37,8 C37,4.691 34.309,2 31,2 C27.691,2 25,4.691 25,8 C25,9.867 25.857,11.536 27.198,12.637 C22.788,14.125 19.437,18.102 19.004,22.91 C18.954,23.46 19.36,23.946 19.91,23.996 C19.94,23.999 19.971,24 20.001,24 C20.513,24 20.949,23.609 20.996,23.09 C21.455,17.992 25.85,14 31,14 C36.149,14 40.544,17.993 41.004,23.09 C41.054,23.641 41.549,24.051 42.09,23.996 C42.64,23.946 43.046,23.46 42.996,22.91 C42.562,18.103 39.211,14.126 34.802,12.637 C36.143,11.536 37,9.867 37,8 L37,8 Z M31,12 C28.794,12 27,10.206 27,8 C27,5.794 28.794,4 31,4 C33.206,4 35,5.794 35,8 C35,10.206 33.206,12 31,12 L31,12 Z" id="Shape" fill="#000000"></path>
        <path d="M4.004,60.91 C3.954,61.46 4.36,61.946 4.91,61.996 C4.94,61.999 4.971,62 5.001,62 C5.513,62 5.949,61.609 5.996,61.09 C6.455,55.992 10.85,52 16,52 C21.149,52 25.544,55.993 26.004,61.09 C26.054,61.641 26.548,62.051 27.09,61.996 C27.64,61.946 28.046,61.46 27.996,60.91 C27.562,56.103 24.211,52.126 19.802,50.637 C21.143,49.536 22,47.866 22,46 C22,42.691 19.309,40 16,40 C12.691,40 10,42.691 10,46 C10,47.867 10.857,49.536 12.198,50.637 C7.788,52.126 4.437,56.103 4.004,60.91 L4.004,60.91 Z M12,46 C12,43.794 13.794,42 16,42 C18.206,42 20,43.794 20,46 C20,48.206 18.206,50 16,50 C13.794,50 12,48.206 12,46 L12,46 Z" id="Shape" fill="#000000"></path>
        <path d="M52,46 C52,42.691 49.309,40 46,40 C42.691,40 40,42.691 40,46 C40,47.867 40.857,49.536 42.198,50.637 C37.788,52.125 34.437,56.102 34.004,60.91 C33.954,61.46 34.36,61.946 34.91,61.996 C34.94,61.999 34.971,62 35.001,62 C35.513,62 35.949,61.609 35.996,61.09 C36.455,55.992 40.85,52 46,52 C51.149,52 55.544,55.993 56.004,61.09 C56.054,61.641 56.55,62.051 57.09,61.996 C57.64,61.946 58.046,61.46 57.996,60.91 C57.562,56.103 54.211,52.126 49.802,50.637 C51.143,49.536 52,47.867 52,46 L52,46 Z M46,50 C43.794,50 42,48.206 42,46 C42,43.794 43.794,42 46,42 C48.206,42 50,43.794 50,46 C50,48.206 48.206,50 46,50 L46,50 Z" id="Shape" fill="#000000"></path>
    </g>
</svg>