<?xml version="1.0" encoding="UTF-8" standalone="no"?>
<svg width="64px" height="64px" viewBox="0 0 64 64" version="1.1" xmlns="http://www.w3.org/2000/svg" xmlns:xlink="http://www.w3.org/1999/xlink">
    <!-- Generator: Sketch 3.7.2 (28276) - http://www.bohemiancoding.com/sketch -->
    <title>use-structure</title>
    <desc>Created with Sketch.</desc>
    <defs></defs>
    <g id="64px-Line" stroke="none" stroke-width="1" fill="none" fill-rule="evenodd">
        <g id="use-structure"></g>
        <path d="M31,17 C35.139,17 37,12.322 37,9 C37,4.486 34.869,2 31,2 C27.131,2 25,4.486 25,9 C25,12.322 26.861,17 31,17 L31,17 Z M31,4 C32.717,4 35,4.518 35,9 C35,11.42 33.729,15 31,15 C28.271,15 27,11.42 27,9 C27,4.518 29.283,4 31,4 L31,4 Z" id="Shape" fill="#000000"></path>
        <path d="M31,24 C38.963,24 43,22.991 43,21 C43,20.958 42.997,20.917 42.992,20.876 C42.473,16.728 41.227,15.853 37.212,14.996 C36.673,14.878 36.14,15.225 36.025,15.766 C35.91,16.306 36.254,16.837 36.794,16.953 C39.997,17.636 40.575,17.949 40.967,20.812 C40.255,21.252 37.234,22 31,22 C24.766,22 21.745,21.252 21.033,20.811 C21.425,17.947 22.003,17.635 25.209,16.95 C25.749,16.835 26.094,16.303 25.978,15.763 C25.863,15.222 25.33,14.877 24.791,14.994 C20.773,15.852 19.526,16.728 19.008,20.876 C19.003,20.917 19,20.958 19,21 C19,22.991 23.037,24 31,24 L31,24 Z" id="Shape" fill="#000000"></path>
        <path d="M16,55 C20.139,55 22,50.322 22,47 C22,42.486 19.869,40 16,40 C12.131,40 10,42.486 10,47 C10,50.322 11.861,55 16,55 L16,55 Z M16,42 C17.717,42 20,42.518 20,47 C20,49.42 18.729,53 16,53 C13.271,53 12,49.42 12,47 C12,42.518 14.283,42 16,42 L16,42 Z" id="Shape" fill="#000000"></path>
        <path d="M16,62 C23.963,62 28,60.991 28,59 C28,58.958 27.997,58.917 27.992,58.876 C27.473,54.728 26.227,53.853 22.212,52.996 C21.671,52.881 21.14,53.225 21.025,53.766 C20.91,54.306 21.254,54.837 21.794,54.953 C24.997,55.636 25.575,55.949 25.967,58.812 C25.255,59.252 22.234,60 16,60 C9.766,60 6.745,59.252 6.033,58.811 C6.425,55.947 7.003,55.635 10.209,54.95 C10.749,54.835 11.094,54.303 10.978,53.763 C10.863,53.222 10.328,52.876 9.791,52.994 C5.773,53.852 4.526,54.728 4.008,58.876 C4.003,58.917 4,58.958 4,59 C4,60.991 8.037,62 16,62 L16,62 Z" id="Shape" fill="#000000"></path>
        <path d="M40,47 C40,50.322 41.861,55 46,55 C50.139,55 52,50.322 52,47 C52,42.486 49.869,40 46,40 C42.131,40 40,42.486 40,47 L40,47 Z M50,47 C50,49.42 48.729,53 46,53 C43.271,53 42,49.42 42,47 C42,42.518 44.283,42 46,42 C47.717,42 50,42.518 50,47 L50,47 Z" id="Shape" fill="#000000"></path>
        <path d="M51.025,53.765 C50.91,54.305 51.254,54.836 51.794,54.952 C54.997,55.635 55.575,55.948 55.967,58.811 C55.255,59.252 52.234,60 46,60 C39.766,60 36.745,59.252 36.033,58.811 C36.425,55.947 37.003,55.635 40.209,54.95 C40.749,54.835 41.094,54.303 40.978,53.763 C40.863,53.222 40.328,52.876 39.791,52.994 C35.773,53.852 34.526,54.728 34.008,58.876 C34.003,58.917 34,58.958 34,59 C34,60.991 38.037,62 46,62 C53.963,62 58,60.991 58,59 C58,58.958 57.997,58.917 57.992,58.876 C57.473,54.728 56.227,53.853 52.212,52.996 C51.672,52.88 51.14,53.225 51.025,53.765 L51.025,53.765 Z" id="Shape" fill="#000000"></path>
        <path d="M17,38 C17.553,38 18,37.552 18,37 L18,34 L44,34 L44,37 C44,37.552 44.447,38 45,38 C45.553,38 46,37.552 46,37 L46,33 C46,32.448 45.553,32 45,32 L32,32 L32,27 C32,26.448 31.553,26 31,26 C30.447,26 30,26.448 30,27 L30,32 L17,32 C16.447,32 16,32.448 16,33 L16,37 C16,37.552 16.447,38 17,38 L17,38 Z" id="Shape" fill="#000000"></path>
    </g>
</svg>