<?xml version="1.0" encoding="UTF-8" standalone="no"?>
<svg width="64px" height="64px" viewBox="0 0 64 64" version="1.1" xmlns="http://www.w3.org/2000/svg" xmlns:xlink="http://www.w3.org/1999/xlink">
    <!-- Generator: Sketch 3.7.2 (28276) - http://www.bohemiancoding.com/sketch -->
    <title>use-connect</title>
    <desc>Created with Sketch.</desc>
    <defs></defs>
    <g id="64px-Line" stroke="none" stroke-width="1" fill="none" fill-rule="evenodd">
        <g id="use-connect"></g>
        <path d="M31,55 C35.139,55 37,50.322 37,47 C37,42.486 34.869,40 31,40 C27.131,40 25,42.486 25,47 C25,50.322 26.861,55 31,55 L31,55 Z M31,42 C32.717,42 35,42.518 35,47 C35,49.42 33.729,53 31,53 C28.271,53 27,49.42 27,47 C27,42.518 29.283,42 31,42 L31,42 Z" id="Shape" fill="#000000"></path>
        <path d="M43,59 C43,58.958 42.998,58.917 42.992,58.876 C42.473,54.728 41.227,53.853 37.211,52.996 C36.672,52.881 36.139,53.225 36.024,53.766 C35.909,54.306 36.253,54.837 36.794,54.953 C39.997,55.636 40.575,55.949 40.966,58.812 C40.254,59.252 37.234,60 31,60 C24.766,60 21.746,59.252 21.033,58.811 C21.425,55.947 22.003,55.635 25.209,54.95 C25.749,54.835 26.093,54.303 25.978,53.763 C25.862,53.222 25.329,52.876 24.791,52.994 C20.773,53.852 19.526,54.728 19.008,58.876 C19.002,58.917 19,58.958 19,59 C19,60.991 23.038,62 31,62 C38.962,62 43,60.991 43,59 L43,59 Z" id="Shape" fill="#000000"></path>
        <path d="M14,17 C18.139,17 20,12.322 20,9 C20,4.486 17.869,2 14,2 C10.131,2 8,4.486 8,9 C8,12.322 9.861,17 14,17 L14,17 Z M14,4 C15.717,4 18,4.518 18,9 C18,11.42 16.729,15 14,15 C11.271,15 10,11.42 10,9 C10,4.518 12.283,4 14,4 L14,4 Z" id="Shape" fill="#000000"></path>
        <path d="M14,24 C21.962,24 26,22.991 26,21 C26,20.958 25.998,20.917 25.992,20.876 C25.473,16.728 24.227,15.853 20.211,14.996 C19.672,14.878 19.139,15.225 19.024,15.766 C18.909,16.306 19.253,16.837 19.794,16.953 C22.997,17.636 23.575,17.949 23.966,20.812 C23.254,21.252 20.234,22 14,22 C7.766,22 4.746,21.252 4.033,20.811 C4.425,17.947 5.003,17.635 8.209,16.95 C8.749,16.835 9.093,16.303 8.978,15.763 C8.862,15.222 8.329,14.877 7.791,14.994 C3.773,15.852 2.526,16.728 2.008,20.876 C2.002,20.917 2,20.958 2,21 C2,22.991 6.038,24 14,24 L14,24 Z" id="Shape" fill="#000000"></path>
        <path d="M48,17 C52.139,17 54,12.322 54,9 C54,4.486 51.869,2 48,2 C44.131,2 42,4.486 42,9 C42,12.322 43.861,17 48,17 L48,17 Z M48,4 C49.717,4 52,4.518 52,9 C52,11.42 50.729,15 48,15 C45.271,15 44,11.42 44,9 C44,4.518 46.283,4 48,4 L48,4 Z" id="Shape" fill="#000000"></path>
        <path d="M54.211,14.996 C53.672,14.878 53.139,15.225 53.024,15.766 C52.909,16.306 53.253,16.837 53.794,16.953 C56.997,17.636 57.575,17.949 57.966,20.812 C57.254,21.252 54.234,22 48,22 C41.766,22 38.746,21.252 38.033,20.811 C38.425,17.947 39.003,17.635 42.209,16.95 C42.749,16.835 43.093,16.303 42.978,15.763 C42.862,15.222 42.329,14.877 41.791,14.994 C37.773,15.852 36.526,16.728 36.008,20.876 C36.002,20.917 36,20.958 36,21 C36,22.991 40.038,24 48,24 C55.962,24 60,22.991 60,21 C60,20.958 59.998,20.917 59.992,20.876 C59.473,16.728 58.228,15.853 54.211,14.996 L54.211,14.996 Z" id="Shape" fill="#000000"></path>
        <path d="M37.504,25.132 L31,28.848 L24.496,25.132 C24.018,24.858 23.406,25.025 23.132,25.504 C22.858,25.983 23.025,26.594 23.504,26.868 L30,30.58 L30,37 C30,37.552 30.448,38 31,38 C31.552,38 32,37.552 32,37 L32,30.58 L38.496,26.868 C38.975,26.594 39.142,25.983 38.868,25.504 C38.594,25.025 37.984,24.858 37.504,25.132 L37.504,25.132 Z" id="Shape" fill="#000000"></path>
    </g>
</svg>