<?xml version="1.0" encoding="UTF-8" standalone="no"?>
<svg width="44px" height="44px" viewBox="0 0 44 44" version="1.1" xmlns="http://www.w3.org/2000/svg" xmlns:xlink="http://www.w3.org/1999/xlink">
    <!-- Generator: Sketch 3.7.2 (28276) - http://www.bohemiancoding.com/sketch -->
    <title>use-fem-cross</title>
    <desc>Created with Sketch.</desc>
    <defs></defs>
    <g id="44px-Line" stroke="none" stroke-width="1" fill="none" fill-rule="evenodd">
        <g id="use-fem-cross"></g>
        <path d="M27,8.363 C27,4.207 24.252,0 19,0 C13.748,0 11,4.207 11,8.363 L11,10 C11,14.006 9.62,15.072 8.879,15.646 C8.487,15.949 8,16.326 8,17 C8,19.461 15.94,20 19,20 C19.11,20 30,19.966 30,17 C30,16.306 29.5,15.915 29.098,15.601 C28.313,14.988 27,13.961 27,10 L27,8.363 L27,8.363 Z M19,18 C16.977,18 15.811,16.487 14.976,12.78 C14.873,12.324 14.468,12 14,12 C13.4,12 13,11.799 13,10.818 L13,10 L16,10 C16.334,10 16.646,9.833 16.832,9.555 L18,7.803 L19.168,9.555 C19.354,9.833 19.666,10 20,10 L25,10 L25,10.818 C25,11.865 24.466,12 24,12 C23.533,12 23.127,12.324 23.024,12.78 C22.188,16.487 21.022,18 19,18 L19,18 Z M19,2 C22.96,2 24.843,5.044 24.986,8 L20.535,8 L18.832,5.445 C18.461,4.888 17.539,4.888 17.168,5.445 L15.465,8 L13.014,8 C13.157,5.044 15.04,2 19,2 L19,2 Z M12.537,13.661 C12.74,13.765 12.953,13.854 13.189,13.91 C13.533,15.272 14.018,16.661 14.79,17.771 C12.798,17.542 11.348,17.183 10.535,16.882 C11.185,16.327 12.025,15.407 12.537,13.661 L12.537,13.661 Z M27.509,16.89 C26.713,17.189 25.249,17.55 23.204,17.778 C23.98,16.666 24.467,15.272 24.812,13.906 C25.047,13.848 25.261,13.756 25.464,13.648 C25.991,15.429 26.86,16.344 27.509,16.89 L27.509,16.89 Z" id="Shape" fill="#000000"></path>
        <path d="M6.537,35.969 C8.049,37.318 12.133,38 18.701,38 L18.879,38 L19,38 C19.552,38 20,37.553 20,37 C20,36.447 19.552,36 19,36 L18.875,36 C11.048,36.042 8.233,35.018 7.82,34.427 C7.647,34.18 7.373,34.025 7.073,34.003 C4.712,33.831 2.001,33.46 2,32.117 C2.005,32.076 2.007,32.035 2.007,31.994 L2,31.097 C3.159,25.409 5.745,23.174 12.692,22.141 L11.03,28.757 C10.943,29.103 11.047,29.47 11.304,29.719 C11.493,29.902 11.744,30 12,30 C12.092,30 12.184,29.987 12.275,29.962 L19,28.04 L19.928,28.306 C20.461,28.454 21.012,28.15 21.164,27.618 C21.243,27.341 21.193,27.061 21.055,26.832 C22.146,25.683 23.093,23.949 23.633,22.849 C23.808,22.99 24.027,23.074 24.259,23.074 C24.34,23.074 24.422,23.064 24.504,23.044 C24.939,22.935 25.22,22.554 25.244,22.129 C25.288,22.135 25.336,22.141 25.379,22.147 C25.927,22.223 26.435,21.853 26.516,21.306 C26.598,20.759 26.222,20.25 25.676,20.168 C25.177,20.094 24.659,20.024 24.12,19.961 C23.341,19.879 22.576,20.316 22.266,21.042 C21.137,23.707 19.503,25.854 19.047,26.003 C18.498,25.854 16.865,23.705 15.734,21.041 C15.426,20.317 14.659,19.868 13.876,19.962 C6.109,20.876 1.601,22.874 0.019,30.803 C0.005,30.869 -0.001,30.937 -0.001,31.004 L0.005,31.972 C0.002,32.021 -0.001,32.074 -0.001,32.096 C0,35.309 4.18,35.788 6.537,35.969 L6.537,35.969 Z M16.743,26.605 L13.392,27.563 L14.507,23.126 C15.024,24.148 15.824,25.559 16.743,26.605 L16.743,26.605 Z" id="Shape" fill="#000000"></path>
        <path d="M33,22 C26.935,22 22,26.935 22,33 C22,39.065 26.935,44 33,44 C39.065,44 44,39.065 44,33 C44,26.935 39.065,22 33,22 L33,22 Z M33,42 C28.038,42 24,37.963 24,33 C24,28.037 28.038,24 33,24 C37.962,24 42,28.037 42,33 C42,37.963 37.962,42 33,42 L33,42 Z" id="Shape" fill="#000000"></path>
        <path d="M37.707,28.293 C37.316,27.902 36.684,27.902 36.293,28.293 L33,31.586 L29.707,28.293 C29.316,27.902 28.684,27.902 28.293,28.293 C27.902,28.684 27.902,29.316 28.293,29.707 L31.586,33 L28.293,36.293 C27.902,36.684 27.902,37.316 28.293,37.707 C28.488,37.902 28.744,38 29,38 C29.256,38 29.512,37.902 29.707,37.707 L33,34.414 L36.293,37.707 C36.488,37.902 36.744,38 37,38 C37.256,38 37.512,37.902 37.707,37.707 C38.098,37.316 38.098,36.684 37.707,36.293 L34.414,33 L37.707,29.707 C38.098,29.316 38.098,28.684 37.707,28.293 L37.707,28.293 Z" id="Shape" fill="#000000"></path>
    </g>
</svg>