<?xml version="1.0" encoding="UTF-8" standalone="no"?>
<svg width="44px" height="44px" viewBox="0 0 44 44" version="1.1" xmlns="http://www.w3.org/2000/svg" xmlns:xlink="http://www.w3.org/1999/xlink">
    <!-- Generator: Sketch 3.7.2 (28276) - http://www.bohemiancoding.com/sketch -->
    <title>use-fem-reply</title>
    <desc>Created with Sketch.</desc>
    <defs></defs>
    <g id="44px-Line" stroke="none" stroke-width="1" fill="none" fill-rule="evenodd">
        <g id="use-fem-reply"></g>
        <path d="M41,0 L23,0 C21.346,0 20,1.346 20,3 L20,15 C20,16.654 21.346,18 23,18 L26,18 L26,21 C26,21.369 26.203,21.708 26.528,21.882 C26.675,21.961 26.838,22 27,22 C27.194,22 27.388,21.943 27.555,21.832 L33.303,18 L41,18 C42.654,18 44,16.654 44,15 L44,3 C44,1.346 42.654,0 41,0 L41,0 Z M42,15 C42,15.551 41.552,16 41,16 L33,16 C32.803,16 32.609,16.059 32.445,16.168 L28,19.131 L28,17 C28,16.448 27.553,16 27,16 L23,16 C22.448,16 22,15.551 22,15 L22,3 C22,2.449 22.448,2 23,2 L41,2 C41.552,2 42,2.449 42,3 L42,15 L42,15 Z" id="Shape" fill="#000000"></path>
        <path d="M6.543,41.972 C7.337,42.742 9.728,44 18.697,44 L18.878,44 L19.122,44 L19.303,44 C28.271,44 30.663,42.741 31.456,41.972 C33.831,41.789 38,41.3 38,38.094 C38,38.072 37.997,38.019 37.994,37.97 L38,37.006 C38,36.938 37.994,36.871 37.98,36.804 C36.406,28.919 31.89,26.928 24.103,26.012 C23.324,25.924 22.561,26.366 22.251,27.091 C21.161,29.659 19.59,31.744 18.999,31.988 C18.408,31.744 16.837,29.659 15.746,27.088 C15.437,26.365 14.676,25.921 13.89,26.012 C6.109,26.928 1.593,28.919 0.019,36.804 C0.005,36.87 -0.001,36.938 -0.001,37.006 L0.005,37.97 C0.002,38.019 -0.001,38.072 -0.001,38.094 C0,41.3 4.169,41.79 6.543,41.972 L6.543,41.972 Z M23.496,29.139 L24.607,33.562 L21.264,32.607 C22.186,31.562 22.984,30.153 23.496,29.139 L23.496,29.139 Z M16.735,32.607 L13.392,33.562 L14.503,29.138 C15.016,30.152 15.814,31.562 16.735,32.607 L16.735,32.607 Z M2.001,37.097 C3.152,31.452 5.734,29.228 12.679,28.192 L11.03,34.756 C10.943,35.103 11.048,35.469 11.304,35.718 C11.561,35.967 11.934,36.06 12.274,35.961 L19,34.04 L25.726,35.961 C25.816,35.987 25.909,36 26,36 C26.256,36 26.507,35.901 26.695,35.718 C26.952,35.469 27.056,35.103 26.969,34.756 L25.32,28.192 C32.265,29.228 34.848,31.453 35.999,37.097 L35.994,37.991 C35.994,38.032 35.995,38.053 36,38.094 C36,39.479 33.085,39.85 30.892,40.008 C30.592,40.03 30.318,40.186 30.145,40.432 C29.736,41.016 26.989,42 19.296,42 L19.126,42 L19,42 L18.874,42 L18.704,42 C11.014,42 8.265,41.017 7.855,40.432 C7.682,40.185 7.408,40.03 7.108,40.008 C4.915,39.85 2,39.479 1.999,38.113 C2.004,38.072 2.006,38.031 2.006,37.99 L2.001,37.097 L2.001,37.097 Z" id="Shape" fill="#000000"></path>
        <circle id="Oval" fill="#000000" cx="32" cy="9" r="2"></circle>
        <circle id="Oval" fill="#000000" cx="26" cy="9" r="2"></circle>
        <circle id="Oval" fill="#000000" cx="38" cy="9" r="2"></circle>
        <path d="M23.506,20.974 C22.998,20.754 22.41,20.988 22.191,21.494 C21.44,23.227 20.457,24 19.001,24 C16.978,24 15.812,22.488 14.977,18.78 C14.874,18.324 14.469,18 14.001,18 C13.4,18 13.001,17.799 13.001,16.818 L13.001,16 L16.001,16 C16.335,16 16.647,15.833 16.833,15.555 L17.833,14.055 C18.14,13.596 18.016,12.974 17.556,12.668 C17.094,12.361 16.475,12.485 16.169,12.945 L15.465,14 L13.022,14 C13.132,11.756 14.276,9.027 17.259,8.221 C17.792,8.077 18.108,7.528 17.963,6.994 C17.819,6.46 17.266,6.147 16.737,6.29 C12.773,7.362 11,11.117 11,14.363 L11,16 C11,20.006 9.62,21.072 8.879,21.646 C8.487,21.948 8,22.325 8,23 C8,25.461 15.94,26 19,26 C21.255,26 23.427,25.829 25.282,25.506 C25.826,25.411 26.19,24.893 26.095,24.349 C26,23.805 25.491,23.441 24.938,23.535 C24.389,23.631 23.8,23.707 23.196,23.774 C23.503,23.339 23.783,22.85 24.026,22.289 C24.245,21.783 24.013,21.194 23.506,20.974 L23.506,20.974 Z M12.537,19.661 C12.739,19.765 12.953,19.854 13.188,19.909 C13.532,21.271 14.017,22.66 14.789,23.77 C12.797,23.541 11.348,23.182 10.534,22.881 C11.185,22.327 12.025,21.407 12.537,19.661 L12.537,19.661 Z" id="Shape" fill="#000000"></path>
    </g>
</svg>