<?xml version="1.0" encoding="UTF-8" standalone="no"?>
<svg width="64px" height="64px" viewBox="0 0 64 64" version="1.1" xmlns="http://www.w3.org/2000/svg" xmlns:xlink="http://www.w3.org/1999/xlink">
    <!-- Generator: Sketch 3.7.2 (28276) - http://www.bohemiancoding.com/sketch -->
    <title>use-fem-tick</title>
    <desc>Created with Sketch.</desc>
    <defs></defs>
    <g id="64px-Glyph" stroke="none" stroke-width="1" fill="none" fill-rule="evenodd">
        <g id="use-fem-tick" fill="#000000">
            <path d="M35.3735,37.5391 L34.1565,30.6381 C33.8145,30.8511 33.5325,31.1601 33.3685,31.5451 C31.8335,35.1671 29.6885,37.9151 29.0085,38.0001 C28.3135,37.9131 26.1685,35.1641 24.6325,31.5441 C24.4635,31.1451 24.1705,30.8241 23.8105,30.6111 L22.2475,39.6581 L28.7575,38.0301 C28.9155,37.9901 29.0845,37.9901 29.2425,38.0301 L34.1735,39.2631 C34.5375,38.6621 34.9315,38.0811 35.3735,37.5391" id="Fill-215"></path>
            <path d="M44.3361,32.2509 C41.9681,31.3769 39.2291,30.8229 36.1501,30.4309 L37.0921,35.7679 C39.1031,33.9909 41.5881,32.7459 44.3361,32.2509" id="Fill-217"></path>
            <path d="M32,47 C32,44.9 32.437,42.902 33.22,41.086 L29,40.031 L21.242,41.97 C21.162,41.99 21.081,42 21,42 C20.751,42 20.507,41.907 20.319,41.733 C20.071,41.502 19.957,41.163 20.015,40.83 L21.81,30.436 C12.214,31.663 5.892,34.427 4.02,43.804 C4.007,43.869 4,43.934 4,44 C4,46.739 7.301,48.394 13.813,48.921 C16.556,51.77 26.05,52 29,52 C29.844,52 31.23,51.979 32.833,51.885 C32.302,50.351 32,48.712 32,47" id="Fill-219"></path>
            <path d="M54.707,43.707 L45.707,52.707 C45.512,52.902 45.256,53 45,53 C44.744,53 44.488,52.902 44.293,52.707 L40.293,48.707 C39.902,48.316 39.902,47.684 40.293,47.293 C40.684,46.902 41.316,46.902 41.707,47.293 L45,50.586 L53.293,42.293 C53.684,41.902 54.316,41.902 54.707,42.293 C55.098,42.684 55.098,43.316 54.707,43.707 M47,34 C39.832,34 34,39.832 34,47 C34,54.168 39.832,60 47,60 C54.168,60 60,54.168 60,47 C60,39.832 54.168,34 47,34" id="Fill-221"></path>
            <path d="M29,16 C28.621,16 28.275,15.786 28.105,15.447 L27,13.236 L25.895,15.447 C25.725,15.786 25.379,16 25,16 L18,16 L18,18 C18,20.076 19.278,21.601 21.195,21.933 C22.563,27.287 25.186,30 29,30 C32.814,30 35.439,27.284 36.807,21.924 C38.497,21.604 40,20.27 40,18 L40,16 L29,16 Z" id="Fill-223"></path>
            <path d="M24.3818,14 L26.1058,10.553 C26.4448,9.875 27.5548,9.875 27.8948,10.553 L29.6178,14 L39.9508,14 C39.4618,9.016 35.3668,4 28.9998,4 C22.6318,4 18.5378,9.015 18.0498,14 L24.3818,14 Z" id="Fill-225"></path>
            <path d="M42.8818,24.4229 C42.2798,24.0019 41.3688,23.3569 40.7328,21.7539 C40.1378,22.5119 39.3658,23.1229 38.4388,23.5119 C37.5608,26.3839 36.3418,28.3189 34.9938,29.6139 C39.6838,29.0309 43.9998,27.7969 43.9998,25.9999 C43.9998,25.2029 43.4058,24.7889 42.8818,24.4229" id="Fill-227"></path>
            <path d="M19.5684,23.5361 C18.6374,23.1551 17.8624,22.5451 17.2664,21.7841 C16.6224,23.4101 15.6974,24.0581 15.0864,24.4791 C14.6024,24.8131 14.0004,25.2291 14.0004,26.0001 C14.0004,27.7341 18.2774,28.9971 22.9914,29.6011 C21.6514,28.3091 20.4414,26.3861 19.5684,23.5361" id="Fill-229"></path>
        </g>
    </g>
</svg>