<?xml version="1.0" encoding="UTF-8" standalone="no"?>
<svg width="64px" height="64px" viewBox="0 0 64 64" version="1.1" xmlns="http://www.w3.org/2000/svg" xmlns:xlink="http://www.w3.org/1999/xlink">
    <!-- Generator: Sketch 3.7.2 (28276) - http://www.bohemiancoding.com/sketch -->
    <title>use-rotate</title>
    <desc>Created with Sketch.</desc>
    <defs></defs>
    <g id="64px-Line" stroke="none" stroke-width="1" fill="none" fill-rule="evenodd">
        <g id="use-rotate"></g>
        <path d="M32,38 C28.131,38 26,40.486 26,45 C26,48.322 27.861,53 32,53 C36.139,53 38,48.322 38,45 C38,40.486 35.869,38 32,38 L32,38 Z M32,51 C29.271,51 28,47.42 28,45 C28,40.518 30.283,40 32,40 C33.717,40 36,40.518 36,45 C36,47.42 34.729,51 32,51 L32,51 Z" id="Shape" fill="#000000"></path>
        <path d="M37.025,51.765 C36.91,52.305 37.254,52.836 37.795,52.952 C40.998,53.635 41.576,53.948 41.967,56.811 C41.254,57.252 38.234,58 32,58 C25.766,58 22.746,57.252 22.033,56.811 C22.425,53.947 23.003,53.635 26.209,52.95 C26.749,52.835 27.093,52.303 26.978,51.763 C26.862,51.222 26.33,50.874 25.791,50.994 C21.773,51.852 20.526,52.728 20.008,56.876 C20.002,56.917 20,56.958 20,57 C20,58.991 24.038,60 32,60 C39.962,60 44,58.991 44,57 C44,56.958 43.998,56.917 43.992,56.876 C43.473,52.728 42.227,51.853 38.211,50.996 C37.67,50.879 37.14,51.225 37.025,51.765 L37.025,51.765 Z" id="Shape" fill="#000000"></path>
        <path d="M14,21 C18.139,21 20,16.322 20,13 C20,8.486 17.869,6 14,6 C10.131,6 8,8.486 8,13 C8,16.322 9.861,21 14,21 L14,21 Z M14,8 C15.717,8 18,8.518 18,13 C18,15.42 16.729,19 14,19 C11.271,19 10,15.42 10,13 C10,8.518 12.283,8 14,8 L14,8 Z" id="Shape" fill="#000000"></path>
        <path d="M14,28 C21.962,28 26,26.991 26,25 C26,24.958 25.998,24.917 25.992,24.876 C25.473,20.728 24.227,19.853 20.211,18.996 C19.671,18.881 19.14,19.225 19.024,19.766 C18.909,20.306 19.253,20.837 19.794,20.953 C22.997,21.636 23.575,21.949 23.966,24.812 C23.254,25.252 20.234,26 14,26 C7.766,26 4.746,25.252 4.033,24.811 C4.425,21.947 5.003,21.635 8.209,20.95 C8.749,20.835 9.093,20.303 8.978,19.763 C8.862,19.222 8.327,18.876 7.791,18.994 C3.773,19.852 2.526,20.728 2.008,24.876 C2.002,24.917 2,24.958 2,25 C2,26.991 6.038,28 14,28 L14,28 Z" id="Shape" fill="#000000"></path>
        <path d="M50,21 C54.139,21 56,16.322 56,13 C56,8.486 53.869,6 50,6 C46.131,6 44,8.486 44,13 C44,16.322 45.861,21 50,21 L50,21 Z M50,8 C51.717,8 54,8.518 54,13 C54,15.42 52.729,19 50,19 C47.271,19 46,15.42 46,13 C46,8.518 48.283,8 50,8 L50,8 Z" id="Shape" fill="#000000"></path>
        <path d="M56.211,18.996 C55.672,18.881 55.139,19.225 55.024,19.766 C54.909,20.306 55.253,20.837 55.794,20.953 C58.997,21.636 59.575,21.949 59.966,24.812 C59.254,25.252 56.234,26 50,26 C43.766,26 40.746,25.252 40.033,24.811 C40.425,21.947 41.003,21.635 44.209,20.95 C44.749,20.835 45.093,20.303 44.978,19.763 C44.862,19.222 44.329,18.876 43.791,18.994 C39.773,19.852 38.526,20.728 38.008,24.876 C38.002,24.917 38,24.958 38,25 C38,26.991 42.038,28 50,28 C57.962,28 62,26.991 62,25 C62,24.958 61.998,24.917 61.992,24.876 C61.473,20.728 60.228,19.853 56.211,18.996 L56.211,18.996 Z" id="Shape" fill="#000000"></path>
        <path d="M40.47,42.152 C40.002,42.445 39.86,43.062 40.152,43.53 C40.342,43.833 40.668,44 41.001,44 C41.182,44 41.365,43.951 41.53,43.848 C45.159,41.579 48.102,37.602 49.439,33.336 L50.685,35.081 C50.88,35.354 51.188,35.5 51.5,35.5 C51.701,35.5 51.904,35.439 52.08,35.314 C52.53,34.993 52.634,34.368 52.313,33.919 L49.813,30.419 C49.773,30.363 49.717,30.327 49.667,30.281 C49.624,30.24 49.589,30.192 49.538,30.159 C49.429,30.089 49.309,30.043 49.184,30.019 C49.18,30.018 49.178,30.016 49.174,30.015 C49.128,30.007 49.086,30.02 49.04,30.017 C48.962,30.014 48.885,30.006 48.807,30.021 C48.724,30.037 48.651,30.074 48.577,30.109 C48.542,30.126 48.503,30.129 48.469,30.15 L48.433,30.172 C48.429,30.175 48.425,30.177 48.421,30.18 L44.469,32.65 C44,32.943 43.858,33.56 44.151,34.028 C44.444,34.497 45.062,34.64 45.529,34.346 L47.373,33.194 C46.118,36.843 43.582,40.206 40.47,42.152 L40.47,42.152 Z" id="Shape" fill="#000000"></path>
        <path d="M24,39 C24,38.448 23.552,38 23,38 C22.448,38 22,38.448 22,39 L22,41.034 C18.969,38.534 16.676,34.71 15.984,30.824 C15.888,30.281 15.366,29.917 14.824,30.015 C14.281,30.112 13.918,30.631 14.015,31.175 C14.736,35.226 17.028,39.207 20.09,42 L18.5,42 C17.948,42 17.5,42.448 17.5,43 C17.5,43.552 17.948,44 18.5,44 L23,44 L23.002,44 C23.121,44 23.236,43.971 23.346,43.93 C23.371,43.921 23.394,43.913 23.418,43.902 C23.519,43.855 23.614,43.795 23.696,43.715 C23.709,43.703 23.717,43.687 23.73,43.674 C23.772,43.629 23.814,43.585 23.848,43.53 C23.862,43.507 23.863,43.481 23.875,43.458 C23.906,43.398 23.927,43.336 23.946,43.27 C23.965,43.205 23.98,43.142 23.985,43.075 C23.987,43.05 24,43.027 24,43 L24,39 L24,39 Z" id="Shape" fill="#000000"></path>
        <path d="M22.01,13.003 C22.01,13.064 22.022,13.123 22.034,13.184 C22.047,13.253 22.062,13.318 22.089,13.382 C22.098,13.405 22.097,13.429 22.108,13.451 C22.136,13.506 22.175,13.551 22.211,13.599 C22.227,13.62 22.238,13.642 22.255,13.662 C22.334,13.751 22.427,13.821 22.529,13.876 C22.538,13.881 22.544,13.89 22.553,13.895 L26.553,15.895 C26.697,15.967 26.849,16 26.999,16 C27.366,16 27.719,15.798 27.895,15.447 C28.142,14.953 27.942,14.352 27.448,14.105 L25.364,13.063 C27.368,12.335 29.487,12 32,12 C35.334,12 38.048,12.6 40.541,13.888 C41.031,14.142 41.635,13.95 41.888,13.459 C42.142,12.969 41.95,12.365 41.459,12.112 C38.672,10.671 35.666,10 32,10 C29.448,10 27.2,10.344 25.093,11.051 L25.895,9.448 C26.142,8.954 25.942,8.353 25.448,8.106 C24.952,7.859 24.353,8.059 24.106,8.553 L22.106,12.553 C22.095,12.575 22.097,12.6 22.087,12.623 C22.061,12.687 22.047,12.751 22.034,12.819 C22.022,12.881 22.01,12.94 22.01,13.003 L22.01,13.003 Z" id="Shape" fill="#000000"></path>
    </g>
</svg>