<?xml version="1.0" encoding="UTF-8" standalone="no"?>
<svg width="44px" height="44px" viewBox="0 0 44 44" version="1.1" xmlns="http://www.w3.org/2000/svg" xmlns:xlink="http://www.w3.org/1999/xlink">
    <!-- Generator: Sketch 3.7.2 (28276) - http://www.bohemiancoding.com/sketch -->
    <title>use-fem-fem-male</title>
    <desc>Created with Sketch.</desc>
    <defs></defs>
    <g id="44px-Line" stroke="none" stroke-width="1" fill="none" fill-rule="evenodd">
        <g id="use-fem-fem-male"></g>
        <path d="M43.653,28.646 C42.471,22.294 39.249,20.711 33.713,20.011 C33.013,19.928 32.336,20.334 32.07,21.007 C31.689,21.972 31.144,23.036 30.649,23.782 C30.343,24.242 30.469,24.863 30.929,25.168 C31.389,25.472 32.01,25.349 32.315,24.888 C32.839,24.098 33.387,23.053 33.809,22.04 C39.037,22.757 40.823,24.362 41.685,28.996 L42,30.813 C42,31.52 40.59,32.069 38.321,32.246 C37.77,32.289 37.359,32.77 37.402,33.321 C37.443,33.845 37.881,34.243 38.398,34.243 C38.424,34.243 38.45,34.242 38.477,34.24 C43.042,33.885 44.001,32.18 44.001,30.813 C44.001,30.757 43.992,30.625 43.982,30.569 L43.653,28.646 L43.653,28.646 Z" id="Shape" fill="#000000"></path>
        <path d="M16,16.6 L16,18 C16,21.018 15.154,21.699 14.7,22.064 C14.438,22.275 14,22.627 14,23.25 C14,25.147 18.678,26 22,26 C25.093,26 30,25.253 30,23.25 C30,22.614 29.57,22.264 29.286,22.033 C28.837,21.667 28,20.985 28,18 L28,16.6 C28,13.421 26.123,10 22,10 C17.877,10 16,13.421 16,16.6 L16,16.6 Z M24.843,20.127 C24.111,23.599 22.87,24 22,24 C21.13,24 19.889,23.599 19.157,20.127 C19.059,19.664 18.651,19.333 18.178,19.333 C18.135,19.333 18.101,19.331 18.079,19.331 L18.063,19.331 C18.039,19.256 18,19.076 18,18.699 L18,18 L19,18 C19.334,18 19.646,17.833 19.832,17.555 L21,15.803 L22.168,17.555 C22.354,17.833 22.666,18 23,18 L26,18 L26,18.583 C26,19.189 25.882,19.34 25.822,19.333 C25.349,19.333 24.941,19.665 24.843,20.127 L24.843,20.127 Z M17.462,21.556 C17.695,22.371 17.981,23.072 18.319,23.663 C17.527,23.505 16.908,23.317 16.489,23.147 C16.816,22.808 17.175,22.312 17.462,21.556 L17.462,21.556 Z M25.674,23.674 C26.016,23.079 26.305,22.371 26.54,21.548 C26.836,22.322 27.207,22.818 27.539,23.154 C27.122,23.324 26.493,23.516 25.674,23.674 L25.674,23.674 Z M25.969,16 L23.535,16 L21.832,13.445 C21.461,12.888 20.539,12.888 20.168,13.445 L18.465,16 L18.031,16 C18.215,14.038 19.322,12 22,12 C24.678,12 25.785,14.038 25.969,16 L25.969,16 Z" id="Shape" fill="#000000"></path>
        <path d="M14,6 C16.025,6 17.01,7.172 17.48,8.155 C17.718,8.653 18.315,8.864 18.813,8.626 C19.311,8.388 19.522,7.791 19.284,7.293 C18.284,5.2 16.358,4 13.999,4 C9.876,4 7.999,7.421 7.999,10.6 L7.999,12 C7.999,15.018 7.153,15.699 6.699,16.064 C6.437,16.275 5.999,16.627 5.999,17.25 C5.999,19.158 10.517,19.867 12.905,19.976 C12.921,19.976 12.936,19.977 12.951,19.977 C13.482,19.977 13.925,19.559 13.949,19.022 C13.95,18.999 13.939,18.979 13.939,18.956 C13.998,18.5 13.755,18.048 13.304,17.887 C12.331,17.539 11.608,16.274 11.156,14.127 C11.058,13.664 10.65,13.333 10.177,13.333 C10.123,13.333 10.084,13.33 10.062,13.332 C10.038,13.257 9.999,13.077 9.999,12.7 L9.999,12 L10.999,12 C11.333,12 11.645,11.833 11.831,11.555 L12.999,9.803 L13.941,11.217 C14.248,11.676 14.868,11.8 15.328,11.494 C15.787,11.188 15.911,10.567 15.605,10.107 L13.831,7.445 C13.46,6.888 12.538,6.888 12.167,7.445 L10.465,10 L10.031,10 C10.215,8.038 11.322,6 14,6 L14,6 Z M10.296,17.662 C9.507,17.504 8.902,17.315 8.489,17.147 C8.815,16.81 9.172,16.316 9.458,15.564 C9.688,16.374 9.965,17.077 10.296,17.662 L10.296,17.662 Z" id="Shape" fill="#000000"></path>
        <path d="M36,36.814 C36,36.758 35.991,36.626 35.981,36.57 L35.653,34.646 C34.473,28.305 31.26,26.716 25.741,26.015 C25.719,26.012 25.696,26.009 25.674,26.007 C24.98,25.948 24.332,26.348 24.07,27.007 C23.454,28.567 22.416,29.775 22,29.982 C21.576,29.774 20.524,28.565 19.908,27.007 C19.65,26.353 18.991,25.949 18.315,26.006 C18.289,26.008 18.262,26.011 18.236,26.015 C12.633,26.726 9.571,28.253 8.393,34.591 L8.012,36.624 C8.008,36.662 8.001,36.776 8.001,36.814 C8.001,38.138 8.9,39.779 13.106,40.204 C14.332,41.397 17.269,42 21.857,42 L21.933,42 L21.932,41 L22.069,42 L22.145,42 C26.732,42 29.67,41.396 30.895,40.204 C35.101,39.779 36,38.138 36,36.814 L36,36.814 Z M25.119,29.363 L25.587,31.358 L24.101,30.764 C24.476,30.345 24.821,29.857 25.119,29.363 L25.119,29.363 Z M18.864,29.369 C19.163,29.863 19.51,30.35 19.887,30.768 L18.404,31.361 L18.864,29.369 L18.864,29.369 Z M29.554,38.708 C29.268,39.159 27.346,39.981 22.071,40 L22,40 L21.929,40 L21.859,40 C16.647,40 14.73,39.156 14.445,38.708 C14.276,38.442 13.992,38.271 13.678,38.247 C11.447,38.073 10.046,37.539 10,36.849 L10.357,34.958 C11.162,30.627 12.681,28.995 17.078,28.21 L16.024,32.774 C15.941,33.137 16.065,33.516 16.348,33.758 C16.631,34.001 17.025,34.066 17.37,33.927 L21.998,32.075 L26.626,33.927 C26.972,34.063 27.367,34 27.65,33.757 C27.933,33.513 28.056,33.133 27.971,32.77 L26.901,28.212 C31.291,29.007 32.883,30.701 33.682,34.995 L33.997,36.835 C33.967,37.531 32.563,38.07 30.318,38.245 C30.007,38.271 29.723,38.442 29.554,38.708 L29.554,38.708 Z" id="Shape" fill="#000000"></path>
        <path d="M5.523,34.241 C5.549,34.243 5.576,34.244 5.602,34.244 C6.119,34.244 6.557,33.846 6.598,33.322 C6.641,32.771 6.229,32.29 5.679,32.247 C3.448,32.073 2.047,31.539 2.001,30.849 L2.358,28.958 C3.163,24.629 4.686,22.998 9.078,22.213 L8.025,26.775 C7.942,27.138 8.066,27.517 8.349,27.759 C8.534,27.917 8.766,28 9,28 C9.125,28 9.251,27.977 9.372,27.928 L10.348,27.537 C10.861,27.332 11.11,26.75 10.905,26.237 C10.797,25.967 10.585,25.77 10.333,25.674 L10.843,23.464 C11.112,23.978 11.396,24.467 11.671,24.879 C11.978,25.337 12.598,25.46 13.058,25.154 C13.517,24.847 13.64,24.226 13.333,23.767 C12.829,23.013 12.283,21.955 11.908,21.007 C11.643,20.336 10.969,19.928 10.259,20.011 C4.641,20.721 1.572,22.243 0.393,28.59 L0.012,30.623 C0.008,30.661 0.001,30.775 0.001,30.813 C-1.69109518e-14,32.181 0.958,33.885 5.523,34.241 L5.523,34.241 Z" id="Shape" fill="#000000"></path>
        <path d="M31.266,19.86 C33.249,19.398 34.612,17.823 35.324,15.176 C36.33,14.772 37,13.624 37,12.155 C37,11.543 36.965,10.96 36.544,10.558 C36.442,10.46 36.334,10.391 36.226,10.34 C35.986,6.075 33.943,3.999 30,3.999 C27.202,3.999 25.324,5.082 24.417,7.22 C24.201,7.728 24.438,8.315 24.947,8.531 C25.454,8.747 26.042,8.51 26.258,8.001 C26.653,7.07 27.436,6 30,6 C32.272,6 33.864,6.711 34.186,9.926 C33.73,9.612 33.334,8.994 32.952,7.805 C32.837,7.446 32.529,7.182 32.157,7.123 C31.783,7.062 31.41,7.219 31.19,7.525 C30.535,8.431 29.705,9.083 28.654,9.517 C28.144,9.728 27.901,10.312 28.112,10.823 C28.322,11.333 28.906,11.576 29.418,11.365 C30.276,11.011 31.025,10.546 31.678,9.962 C32.298,11.135 33.285,12.113 35,12.204 C34.988,12.881 34.737,13.333 34.501,13.333 C34.031,13.333 33.624,13.661 33.524,14.121 C33.037,16.36 32.15,17.6 30.813,17.912 C30.275,18.037 29.941,18.575 30.066,19.113 C30.174,19.574 30.585,19.886 31.039,19.886 C31.113,19.886 31.19,19.878 31.266,19.86 L31.266,19.86 Z" id="Shape" fill="#000000"></path>
    </g>
</svg>