<?xml version="1.0" encoding="UTF-8" standalone="no"?>
<svg width="64px" height="64px" viewBox="0 0 64 64" version="1.1" xmlns="http://www.w3.org/2000/svg" xmlns:xlink="http://www.w3.org/1999/xlink">
    <!-- Generator: Sketch 3.7.2 (28276) - http://www.bohemiancoding.com/sketch -->
    <title>use-user-search</title>
    <desc>Created with Sketch.</desc>
    <defs></defs>
    <g id="64px-Line" stroke="none" stroke-width="1" fill="none" fill-rule="evenodd">
        <g id="use-user-search"></g>
        <path d="M50,34 C44.486,34 40,38.486 40,44 C40,46.397 40.85,48.599 42.262,50.324 L34.293,58.293 C33.902,58.684 33.902,59.316 34.293,59.707 C34.488,59.902 34.744,60 35,60 C35.256,60 35.512,59.902 35.707,59.707 L43.676,51.738 C45.401,53.15 47.603,54 50,54 C55.514,54 60,49.514 60,44 C60,38.486 55.514,34 50,34 L50,34 Z M50,52 C45.589,52 42,48.411 42,44 C42,39.589 45.589,36 50,36 C54.411,36 58,39.589 58,44 C58,48.411 54.411,52 50,52 L50,52 Z" id="Shape" fill="#000000"></path>
        <path d="M42.829,33.688 C43.208,33.287 43.189,32.654 42.788,32.274 C39.813,29.466 36.195,27.558 32.292,26.639 C35.691,24.765 38,21.149 38,17.001 C38,10.936 33.065,6.001 27,6.001 C20.935,6.001 16,10.936 16,17.001 C16,21.14 18.3,24.75 21.688,26.627 C11.559,29.031 4,38.146 4,49 C4,49.553 4.447,50 5,50 C5.553,50 6,49.553 6,49 C6,37.421 15.421,28 27,28 C32.383,28 37.502,30.034 41.415,33.729 C41.817,34.106 42.448,34.089 42.829,33.688 L42.829,33.688 Z M18,17 C18,12.037 22.037,8 27,8 C31.963,8 36,12.037 36,17 C36,21.963 31.963,26 27,26 C22.037,26 18,21.963 18,17 L18,17 Z" id="Shape" fill="#000000"></path>
    </g>
</svg>