<?xml version="1.0" encoding="UTF-8" standalone="no"?>
<svg width="64px" height="64px" viewBox="0 0 64 64" version="1.1" xmlns="http://www.w3.org/2000/svg" xmlns:xlink="http://www.w3.org/1999/xlink">
    <!-- Generator: Sketch 3.7.2 (28276) - http://www.bohemiancoding.com/sketch -->
    <title>use-fem-fem-fem</title>
    <desc>Created with Sketch.</desc>
    <defs></defs>
    <g id="64px-Line" stroke="none" stroke-width="1" fill="none" fill-rule="evenodd">
        <g id="use-fem-fem-fem"></g>
        <path d="M50,49.604 C50,49.543 49.988,49.386 49.978,49.326 L49.525,46.849 C48.295,40.695 45.796,37.144 36.121,36.006 C35.316,35.914 34.571,36.332 34.267,37.044 C33.137,39.709 31.504,41.856 31.048,42.004 C30.498,41.855 28.865,39.706 27.735,37.042 C27.433,36.331 26.686,35.92 25.877,36.006 C25.866,36.007 25.857,36.009 25.846,36.01 L25.846,36.01 C18.269,36.906 14.128,38.823 12.54,46.776 L12.014,49.388 C12.009,49.427 12.001,49.563 12.001,49.602 C12.001,51.922 14.315,53.299 18.882,53.699 C20.424,55.226 24.426,55.999 30.799,55.999 L30.906,55.999 L30.905,54.999 L31.095,55.999 L31.202,55.999 C37.574,55.999 41.577,55.226 43.119,53.699 C47.686,53.301 50,51.923 50,49.604 L50,49.604 Z M35.499,39.118 L36.61,43.563 L33.258,42.606 C34.18,41.558 34.982,40.142 35.499,39.118 L35.499,39.118 Z M28.743,42.605 L25.389,43.563 L26.501,39.115 C27.019,40.139 27.821,41.556 28.743,42.605 L28.743,42.605 Z M42.557,51.739 C42.252,51.761 41.975,51.921 41.803,52.173 C41.227,53.018 38.104,54.001 31.197,54 L31.098,54 L30.903,54 L30.804,54 C23.898,54 20.774,53.018 20.198,52.173 C20.026,51.921 19.749,51.761 19.444,51.739 C16.066,51.494 14.038,50.708 14.002,49.633 L14.501,47.173 C15.675,41.292 17.941,39.188 24.674,38.185 L23.031,44.758 C22.944,45.105 23.049,45.471 23.305,45.719 C23.563,45.968 23.935,46.06 24.275,45.962 L31,44.04 L37.726,45.961 C37.816,45.987 37.909,46 38,46 C38.256,46 38.506,45.902 38.695,45.719 C38.952,45.47 39.056,45.104 38.969,44.758 L37.326,38.186 C44.021,39.196 46.392,41.386 47.56,47.225 L47.999,49.617 C47.983,50.7 45.951,51.493 42.557,51.739 L42.557,51.739 Z" id="Shape" fill="#000000"></path>
        <path d="M39,24.363 C39,20.207 36.252,16 31,16 C25.748,16 23,20.207 23,24.363 L23,26 C23,30.006 21.62,31.072 20.879,31.646 C20.487,31.948 20,32.325 20,33 C20,35.461 27.94,36 31,36 C31.11,36 42,35.966 42,33 C42,32.306 41.5,31.915 41.098,31.601 C40.313,30.987 39,29.96 39,26 L39,24.363 L39,24.363 Z M31,34 C28.977,34 27.811,32.488 26.976,28.78 C26.873,28.324 26.468,28 26,28 C25.399,28 25,27.799 25,26.818 L25,26 L28,26 C28.334,26 28.646,25.833 28.832,25.555 L30,23.803 L31.168,25.555 C31.354,25.833 31.666,26 32,26 L37,26 L37,26.818 C37,27.865 36.466,28 36,28 C35.532,28 35.127,28.324 35.024,28.78 C34.188,32.488 33.022,34 31,34 L31,34 Z M31,18 C34.96,18 36.843,21.043 36.986,24 L32.535,24 L30.832,21.445 C30.461,20.888 29.539,20.888 29.168,21.445 L27.465,24 L25.014,24 C25.157,21.043 27.04,18 31,18 L31,18 Z M24.537,29.661 C24.739,29.765 24.953,29.854 25.188,29.909 C25.532,31.271 26.017,32.66 26.789,33.77 C24.797,33.541 23.348,33.182 22.534,32.881 C23.185,32.327 24.025,31.407 24.537,29.661 L24.537,29.661 Z M39.509,32.89 C38.713,33.188 37.249,33.55 35.204,33.778 C35.98,32.666 36.467,31.272 36.812,29.905 C37.047,29.847 37.261,29.755 37.464,29.648 C37.991,31.429 38.86,32.344 39.509,32.89 L39.509,32.89 Z" id="Shape" fill="#000000"></path>
        <path d="M2.013,39.389 C2.008,39.428 2,39.564 2,39.603 C2,41.922 4.313,43.3 8.878,43.7 C9.107,43.93 9.388,44.143 9.717,44.333 C9.875,44.424 10.047,44.467 10.217,44.467 C10.563,44.467 10.899,44.288 11.083,43.967 C11.36,43.489 11.196,42.877 10.719,42.601 C10.407,42.421 10.263,42.268 10.198,42.172 C10.026,41.92 9.749,41.76 9.444,41.738 C6.066,41.493 4.038,40.707 4.002,39.632 L4.493,37.21 C5.671,32.315 8.04,31.021 14.688,30.129 L13.031,36.757 C12.944,37.104 13.049,37.47 13.305,37.718 C13.494,37.901 13.744,37.999 14,37.999 C14.092,37.999 14.185,37.986 14.274,37.96 L16.976,37.188 C17.507,37.037 17.815,36.483 17.664,35.952 C17.512,35.42 16.954,35.115 16.428,35.265 L15.39,35.561 L16.497,31.132 C16.546,31.233 16.592,31.331 16.644,31.433 C16.893,31.925 17.493,32.121 17.988,31.874 C18.481,31.625 18.678,31.023 18.429,30.53 C18.164,30.007 17.928,29.496 17.735,29.04 C17.426,28.316 16.667,27.876 15.877,27.961 C7.737,28.919 4.086,30.35 2.54,36.774 L2.013,39.389 L2.013,39.389 Z" id="Shape" fill="#000000"></path>
        <path d="M21,8 C15.748,8 13,12.207 13,16.363 L13,18 C13,22.006 11.62,23.072 10.879,23.646 C10.487,23.948 10,24.325 10,25 C10,25.952 10.962,26.6 13.215,27.168 C15.07,27.636 17.471,27.927 19.975,27.987 L19.999,27.987 C20.54,27.987 20.985,27.555 20.999,27.011 C21,26.962 20.98,26.919 20.974,26.872 C20.966,26.424 20.673,26.02 20.217,25.915 C18.677,25.561 17.707,24.026 16.976,20.779 C16.873,20.323 16.468,19.999 16,19.999 C15.399,19.999 15,19.798 15,18.817 L15,18 L18,18 C18.334,18 18.646,17.833 18.832,17.555 L20,15.803 L21.168,17.555 C21.354,17.833 21.666,18 22,18 L22.516,18 C23.069,18 23.516,17.552 23.516,17 C23.516,16.454 23.078,16.011 22.536,16 L20.833,13.445 C20.462,12.888 19.54,12.888 19.169,13.445 L17.465,16 L15.014,16 C15.157,13.043 17.04,10 21,10 C23.661,10 25.694,11.419 26.579,13.893 C26.765,14.414 27.336,14.686 27.857,14.498 C28.377,14.312 28.648,13.74 28.461,13.22 C27.294,9.951 24.504,8 21,8 L21,8 Z M15.188,21.909 C15.528,23.255 16.017,24.649 16.802,25.768 C14.759,25.534 13.328,25.169 12.538,24.877 C13.188,24.322 14.026,23.403 14.537,21.66 C14.74,21.764 14.953,21.854 15.188,21.909 L15.188,21.909 Z" id="Shape" fill="#000000"></path>
        <path d="M49,16.363 C49,12.207 46.252,8 41,8 C37.487,8 34.695,9.957 33.532,13.235 C33.347,13.756 33.62,14.327 34.139,14.512 C34.66,14.694 35.232,14.425 35.416,13.904 C36.297,11.423 38.331,10 40.999,10 C44.959,10 46.842,13.043 46.985,16 L42.534,16 L40.831,13.445 C40.459,12.887 39.538,12.89 39.167,13.445 L37.773,15.537 C37.466,15.996 37.591,16.617 38.05,16.923 C38.511,17.23 39.13,17.105 39.437,16.645 L39.999,15.802 L41.167,17.553 C41.353,17.831 41.665,17.998 41.999,17.998 L46.999,17.998 L46.999,18.816 C46.999,19.863 46.465,19.998 45.999,19.998 C45.531,19.998 45.126,20.322 45.023,20.778 C44.292,24.025 43.321,25.561 41.78,25.915 C41.321,26.02 41.028,26.429 41.023,26.88 C41.018,26.924 40.999,26.964 41,27.009 C41.013,27.553 41.458,27.986 42,27.986 L42.023,27.986 C43.044,27.963 51.999,27.679 51.999,24.998 C51.999,24.304 51.499,23.913 51.097,23.599 C50.313,22.987 49,21.96 49,18 L49,16.363 L49,16.363 Z M49.505,24.886 C48.734,25.176 47.29,25.545 45.19,25.777 C45.979,24.655 46.471,23.255 46.812,21.904 C47.047,21.846 47.261,21.754 47.464,21.647 C47.99,23.426 48.857,24.341 49.505,24.886 L49.505,24.886 Z" id="Shape" fill="#000000"></path>
        <path d="M59.978,39.326 L59.518,36.815 C57.995,30.372 54.322,28.928 46.121,27.963 C45.336,27.878 44.577,28.318 44.267,29.045 C44.074,29.502 43.836,30.015 43.57,30.541 C43.321,31.034 43.518,31.635 44.01,31.885 C44.508,32.135 45.105,31.938 45.355,31.445 C45.408,31.341 45.454,31.241 45.504,31.138 L46.61,35.564 L45.507,35.249 C44.98,35.097 44.423,35.404 44.271,35.936 C44.12,36.467 44.427,37.02 44.959,37.172 L47.726,37.963 C47.816,37.989 47.909,38.002 48,38.002 C48.256,38.002 48.506,37.904 48.695,37.721 C48.952,37.473 49.056,37.106 48.969,36.76 L47.312,30.132 C54.017,31.032 56.402,32.333 57.56,37.228 L57.999,39.606 C57.999,40.696 55.964,41.495 52.556,41.741 C52.251,41.763 51.974,41.923 51.802,42.175 C51.732,42.278 51.576,42.44 51.231,42.632 C50.749,42.9 50.574,43.509 50.842,43.992 C51.025,44.321 51.365,44.507 51.717,44.507 C51.881,44.507 52.048,44.466 52.201,44.382 C52.565,44.179 52.874,43.952 53.121,43.704 C57.685,43.304 59.999,41.927 59.999,39.607 C60,39.543 59.988,39.385 59.978,39.326 L59.978,39.326 Z" id="Shape" fill="#000000"></path>
    </g>
</svg>