<?xml version="1.0" encoding="UTF-8" standalone="no"?>
<svg width="64px" height="64px" viewBox="0 0 64 64" version="1.1" xmlns="http://www.w3.org/2000/svg" xmlns:xlink="http://www.w3.org/1999/xlink">
    <!-- Generator: Sketch 3.7.2 (28276) - http://www.bohemiancoding.com/sketch -->
    <title>use-male-script</title>
    <desc>Created with Sketch.</desc>
    <defs></defs>
    <g id="64px-Line" stroke="none" stroke-width="1" fill="none" fill-rule="evenodd">
        <g id="use-male-script"></g>
        <path d="M13.812,56.921 C16.556,59.77 26.05,60 29,60 C31.95,60 41.444,59.77 44.188,56.921 C50.699,56.394 54,54.739 54,52 C54,51.934 53.993,51.869 53.98,51.804 C52.056,42.182 45.46,39.518 35.437,38.339 C34.561,38.239 33.711,38.737 33.368,39.546 C31.833,43.168 29.688,45.916 29.009,46.001 C28.314,45.914 26.169,43.165 24.633,39.545 C24.291,38.738 23.444,38.24 22.559,38.339 C12.538,39.518 5.941,42.182 4.02,51.804 C4.007,51.869 4,51.934 4,52 C4,54.739 7.301,56.394 13.812,56.921 L13.812,56.921 Z M22.792,40.326 C22.926,40.64 26.083,48 29,48 C31.925,48 35.077,40.639 35.209,40.325 C44.53,41.422 50.273,43.702 51.996,52.082 C51.873,53.475 48.612,54.599 43.617,54.958 C43.313,54.98 43.035,55.14 42.863,55.392 C41.696,57.104 35.006,58 29,58 C22.994,58 16.304,57.104 15.137,55.393 C14.965,55.141 14.687,54.981 14.383,54.959 C9.388,54.6 6.127,53.476 6.004,52.083 C7.724,43.702 13.468,41.422 22.792,40.326 L22.792,40.326 Z" id="Shape" fill="#000000"></path>
        <path d="M20.196,29.919 C21.555,34.995 24.808,38 29,38 C32.062,38 34.686,36.375 36.386,33.423 C36.662,32.944 36.497,32.333 36.019,32.057 C35.54,31.782 34.929,31.946 34.654,32.425 C33.714,34.056 31.97,36 29,36 C24.128,36 22.465,30.951 21.976,28.78 C21.873,28.324 21.468,28 21,28 C20.397,28 20,28 20,26 C20,25.46 20,24.392 20.127,23.997 C22.939,23.902 25.293,23.545 27.324,22.907 C27.851,22.741 28.143,22.18 27.978,21.653 C27.812,21.127 27.253,20.833 26.724,20.999 C25.1,21.51 23.227,21.824 21.024,21.954 C21.255,17.082 23.175,14.65 27.16,14.115 C27.708,14.041 28.092,13.538 28.018,12.991 C27.944,12.444 27.44,12.057 26.894,12.133 C21.786,12.819 19.202,16.133 19.011,22.254 C18,22.884 18,24.58 18,26 C18,26.986 18,29.444 20.196,29.919 L20.196,29.919 Z" id="Shape" fill="#000000"></path>
        <path d="M34,26 L38,26 L38,31 C38,31.391 38.228,31.745 38.582,31.909 C38.716,31.97 38.858,32 39,32 C39.234,32 39.466,31.917 39.65,31.759 L46.37,26 L56,26 C58.206,26 60,24.206 60,22 L60,8 C60,5.794 58.206,4 56,4 L34,4 C31.794,4 30,5.794 30,8 L30,22 C30,24.206 31.794,26 34,26 L34,26 Z M32,8 C32,6.897 32.897,6 34,6 L56,6 C57.103,6 58,6.897 58,8 L58,22 C58,23.103 57.103,24 56,24 L46,24 C45.762,24 45.53,24.085 45.35,24.241 L40,28.826 L40,25 C40,24.448 39.553,24 39,24 L34,24 C32.897,24 32,23.103 32,22 L32,8 L32,8 Z" id="Shape" fill="#000000"></path>
        <path d="M37,12.002 L53,12.002 C53.553,12.002 54,11.554 54,11.002 C54,10.45 53.553,10.002 53,10.002 L37,10.002 C36.447,10.002 36,10.45 36,11.002 C36,11.554 36.447,12.002 37,12.002 L37,12.002 Z" id="Shape" fill="#000000"></path>
        <path d="M37,16 L53,16 C53.553,16 54,15.552 54,15 C54,14.448 53.553,14 53,14 L37,14 C36.447,14 36,14.448 36,15 C36,15.552 36.447,16 37,16 L37,16 Z" id="Shape" fill="#000000"></path>
        <path d="M37,20 L49,20 C49.553,20 50,19.552 50,19 C50,18.448 49.553,18 49,18 L37,18 C36.447,18 36,18.448 36,19 C36,19.552 36.447,20 37,20 L37,20 Z" id="Shape" fill="#000000"></path>
    </g>
</svg>