<?xml version="1.0" encoding="UTF-8" standalone="no"?>
<svg width="64px" height="64px" viewBox="0 0 64 64" version="1.1" xmlns="http://www.w3.org/2000/svg" xmlns:xlink="http://www.w3.org/1999/xlink">
    <!-- Generator: Sketch 3.7.2 (28276) - http://www.bohemiancoding.com/sketch -->
    <title>use-male-male-fem</title>
    <desc>Created with Sketch.</desc>
    <defs></defs>
    <g id="64px-Line" stroke="none" stroke-width="1" fill="none" fill-rule="evenodd">
        <g id="use-male-male-fem"></g>
        <path d="M50,49.604 C50,49.543 49.989,49.386 49.978,49.326 L49.524,46.849 C47.922,38.835 43.579,36.841 36.12,35.963 C35.337,35.879 34.576,36.318 34.266,37.044 C33.155,39.666 31.641,41.93 31,42.263 C30.36,41.928 28.847,39.663 27.734,37.042 C27.425,36.318 26.662,35.875 25.876,35.963 C18.283,36.857 14.136,38.775 12.539,46.776 L12.012,49.388 C12.008,49.427 11.999,49.563 11.999,49.602 C11.999,51.922 14.313,53.299 18.88,53.699 C20.422,55.226 24.423,55.999 30.797,55.999 L30.904,55.999 L30.903,54.999 L31.094,55.999 L31.201,55.999 C37.574,55.999 41.576,55.226 43.118,53.699 C47.686,53.301 50,51.923 50,49.604 L50,49.604 Z M42.557,51.739 C42.253,51.761 41.975,51.921 41.803,52.173 C41.227,53.018 38.103,54.001 31.197,54 L31.098,54 L30.903,54 L30.804,54 C23.898,54 20.774,53.018 20.198,52.173 C20.026,51.921 19.748,51.761 19.444,51.739 C16.066,51.494 14.037,50.708 14.001,49.633 L14.501,47.173 C15.753,40.898 18.226,38.901 25.956,37.969 C26.672,39.629 28.872,44.285 31.001,44.285 C33.135,44.285 35.333,39.627 36.048,37.969 C43.723,38.896 46.316,40.994 47.561,47.225 L48.001,49.617 C47.983,50.7 45.951,51.493 42.557,51.739 L42.557,51.739 Z" id="Shape" fill="#000000"></path>
        <path d="M24.189,29.887 C25.279,33.945 27.568,36 31,36 C34.434,36 36.724,33.94 37.814,29.875 C39.119,29.459 40,28.041 40,26.2 C40,25.454 39.962,24.8 39.5,24.358 C39.334,24.199 39.154,24.106 38.978,24.053 C38.711,18.637 36.095,16 31,16 C25.905,16 23.289,18.637 23.022,24.054 C22.845,24.107 22.666,24.2 22.5,24.359 C22.038,24.801 22,25.455 22,26.201 C22,28.11 22.852,29.494 24.189,29.887 L24.189,29.887 Z M37,28 C36.532,28 36.127,28.324 36.024,28.78 C34.969,33.459 32.651,34 31,34 C29.349,34 27.03,33.459 25.976,28.78 C25.873,28.324 25.468,28 25,28 C24.028,28 24,26.384 24,26.2 C24,26.125 24.001,26.058 24.002,26 L24.002,26 L24.031,26 C26.891,25.911 30.817,25.469 33.63,22.892 C34.321,24.483 35.463,25.999 37.997,26 L37.998,26 C37.999,26.059 38,26.125 38,26.2 C38,27.095 37.657,28 37,28 L37,28 Z M31,18 C34.911,18 36.692,19.715 36.96,23.838 C36.049,23.495 35.576,22.565 34.949,20.685 C34.831,20.332 34.528,20.074 34.16,20.014 C33.794,19.957 33.424,20.104 33.2,20.401 C31.606,22.527 28.983,23.654 25.033,23.936 C25.279,19.74 27.058,18 31,18 L31,18 Z" id="Shape" fill="#000000"></path>
        <path d="M14.002,18 L14.031,18 C16.892,17.911 20.822,17.468 23.635,14.887 C23.694,15.022 23.755,15.156 23.819,15.285 C24.062,15.78 24.659,15.987 25.157,15.743 C25.653,15.5 25.858,14.901 25.615,14.405 C25.359,13.882 25.135,13.241 24.949,12.684 C24.832,12.331 24.528,12.073 24.16,12.013 C23.795,11.955 23.423,12.102 23.2,12.4 C21.606,14.526 18.983,15.653 15.033,15.935 C15.279,11.74 17.058,10 21,10 C24.176,10 25.908,11.13 26.616,13.664 C26.765,14.195 27.315,14.507 27.848,14.358 C28.38,14.209 28.691,13.658 28.542,13.126 C27.579,9.677 25.112,8 21,8 C15.905,8 13.289,10.637 13.022,16.054 C12.845,16.107 12.666,16.2 12.5,16.359 C12.038,16.801 12,17.455 12,18.201 C12,20.111 12.852,21.495 14.189,21.888 C15.03,25.012 16.597,26.961 18.853,27.684 C18.955,27.717 19.057,27.732 19.158,27.732 C19.581,27.732 19.974,27.461 20.11,27.037 C20.278,26.511 19.989,25.948 19.463,25.78 C17.75,25.231 16.609,23.596 15.975,20.782 C15.872,20.326 15.467,20.002 14.999,20.002 C14.027,20.002 13.999,18.386 13.999,18.202 C14,18.125 14.001,18.059 14.002,18 L14.002,18 L14.002,18 Z" id="Shape" fill="#000000"></path>
        <path d="M8.877,43.7 C9.106,43.93 9.387,44.142 9.717,44.333 C9.875,44.424 10.047,44.467 10.217,44.467 C10.562,44.467 10.898,44.288 11.084,43.967 C11.36,43.489 11.197,42.877 10.719,42.601 C10.407,42.42 10.264,42.269 10.199,42.174 C10.027,41.921 9.749,41.76 9.444,41.738 C6.066,41.493 4.037,40.707 4.001,39.632 L4.492,37.21 C5.742,32.015 8.329,30.876 15.955,29.968 C16.61,31.483 17.735,33.642 18.852,34.961 C19.21,35.383 19.841,35.435 20.262,35.078 C20.683,34.721 20.736,34.09 20.379,33.668 C19.436,32.555 18.372,30.543 17.735,29.043 C17.426,28.319 16.663,27.879 15.877,27.964 C7.736,28.922 4.085,30.353 2.54,36.777 L2.013,39.389 C2.009,39.428 2,39.564 2,39.603 C2,41.923 4.313,43.3 8.877,43.7 L8.877,43.7 Z" id="Shape" fill="#000000"></path>
        <path d="M59.517,36.815 C57.994,30.372 54.321,28.928 46.12,27.963 C45.337,27.879 44.576,28.318 44.267,29.044 C43.621,30.566 42.545,32.596 41.596,33.701 C41.236,34.12 41.284,34.751 41.702,35.111 C42.122,35.473 42.753,35.423 43.112,35.005 C43.976,34 44.845,32.486 45.504,31.142 L46.61,35.564 L45.508,35.249 C44.978,35.097 44.424,35.405 44.272,35.936 C44.12,36.467 44.428,37.02 44.959,37.172 L47.726,37.963 C47.817,37.989 47.909,38.002 48.001,38.002 C48.257,38.002 48.507,37.904 48.696,37.721 C48.953,37.473 49.057,37.106 48.971,36.76 L47.314,30.132 C54.019,31.032 56.403,32.333 57.561,37.228 L58.001,39.606 C58.001,40.696 55.966,41.495 52.558,41.741 C52.254,41.763 51.976,41.923 51.804,42.175 C51.734,42.278 51.578,42.44 51.233,42.632 C50.75,42.9 50.576,43.509 50.844,43.992 C51.027,44.321 51.368,44.507 51.719,44.507 C51.883,44.507 52.05,44.466 52.203,44.382 C52.568,44.179 52.875,43.952 53.123,43.704 C57.688,43.304 60.001,41.927 60.001,39.607 C60.001,39.546 59.99,39.389 59.979,39.329 L59.517,36.815 L59.517,36.815 Z" id="Shape" fill="#000000"></path>
        <path d="M49,16.363 C49,12.207 46.252,8 41,8 C37.522,8 34.742,9.928 33.561,13.157 C33.371,13.676 33.638,14.25 34.157,14.439 C34.675,14.629 35.25,14.363 35.439,13.843 C36.333,11.401 38.359,10 41,10 C44.96,10 46.844,13.043 46.986,16 L42.535,16 L40.832,13.445 C40.646,13.167 40.334,13 40,13 C39.666,13 39.354,13.167 39.168,13.445 L37.931,15.3 C37.625,15.759 37.749,16.38 38.208,16.687 C38.667,16.993 39.288,16.869 39.595,16.41 L40,15.803 L41.168,17.555 C41.354,17.833 41.666,18 42,18 L47,18 L47,18.818 C47,19.865 46.466,20 46,20 C45.533,20 45.127,20.324 45.024,20.78 C44.41,23.503 43.635,25 42.511,25.635 C42.143,25.843 41.962,26.249 42.017,26.644 C41.98,26.757 41.956,26.876 41.962,27.001 C41.987,27.537 42.429,27.955 42.96,27.955 C42.976,27.955 42.992,27.955 43.007,27.954 C51.123,27.578 51.999,25.763 51.999,25 C51.999,24.306 51.499,23.915 51.097,23.601 C50.313,22.987 49,21.96 49,18 L49,16.363 L49,16.363 Z M49.506,24.887 C48.742,25.176 47.323,25.548 45.198,25.78 C45.996,24.645 46.477,23.23 46.812,21.904 C47.047,21.846 47.261,21.754 47.464,21.647 C47.99,23.427 48.858,24.342 49.506,24.887 L49.506,24.887 Z" id="Shape" fill="#000000"></path>
    </g>
</svg>