<?xml version="1.0" encoding="UTF-8" standalone="no"?>
<svg width="44px" height="44px" viewBox="0 0 44 44" version="1.1" xmlns="http://www.w3.org/2000/svg" xmlns:xlink="http://www.w3.org/1999/xlink">
    <!-- Generator: Sketch 3.7.2 (28276) - http://www.bohemiancoding.com/sketch -->
    <title>use-fem-male</title>
    <desc>Created with Sketch.</desc>
    <defs></defs>
    <g id="44px-Line" stroke="none" stroke-width="1" fill="none" fill-rule="evenodd">
        <g id="use-fem-male"></g>
        <path d="M43.966,30.473 L43.342,27.942 C42.053,21.623 38.042,20.699 32.065,20.01 C31.357,19.93 30.67,20.327 30.387,20.976 C29.921,22.054 29.072,23.23 28.367,23.774 C27.929,24.111 27.848,24.739 28.185,25.176 C28.522,25.614 29.15,25.694 29.587,25.358 C30.5,24.654 31.489,23.34 32.106,22.029 C38.241,22.758 40.458,23.814 41.39,28.382 L41.994,30.832 C41.903,31.204 40.661,31.964 37.11,32.215 C36.809,32.236 36.533,32.393 36.36,32.641 C36.298,32.73 35.888,33.194 33.916,33.563 C33.373,33.665 33.015,34.187 33.117,34.73 C33.207,35.211 33.627,35.546 34.099,35.546 C34.16,35.546 34.222,35.541 34.284,35.529 C35.916,35.224 37.008,34.79 37.659,34.179 C41.867,33.822 44,32.682 44,30.789 C44,30.745 43.992,30.624 43.986,30.58 C43.981,30.543 43.975,30.508 43.966,30.473 L43.966,30.473 Z" id="Shape" fill="#000000"></path>
        <path d="M34.244,14.785 C35.19,14.477 36,13.566 36,11.727 C36,11 35.994,9.534 35.201,8.879 C34.989,4.317 32.573,2 28,2 C23.488,2 21.066,4.24 20.803,8.657 C20.77,9.208 21.19,9.682 21.741,9.715 C21.786,9.719 21.825,9.701 21.869,9.699 C21.967,10.171 22.387,10.509 22.879,10.505 C25.435,10.38 28.033,10.012 30.034,8.359 C30.894,9.778 32.143,10.461 33.915,10.532 C33.955,10.71 33.999,11.053 33.999,11.728 C33.999,12.512 33.812,12.91 33.443,12.91 C32.981,12.91 32.579,13.226 32.471,13.676 C31.996,15.648 30.834,18 28,18 C27.409,18 26.864,17.9 26.381,17.703 C25.87,17.492 25.286,17.739 25.077,18.251 C24.868,18.762 25.114,19.346 25.625,19.555 C26.349,19.85 27.148,20 28,20 C31.039,20 33.237,18.155 34.244,14.785 L34.244,14.785 Z M31.275,6.301 C31.153,5.959 30.857,5.711 30.499,5.65 C30.145,5.592 29.78,5.728 29.553,6.011 C28.06,7.872 25.785,8.356 22.831,8.503 C23.102,5.321 24.609,4 28,4 C31.331,4 32.88,5.312 33.163,8.429 C32.253,8.19 31.723,7.557 31.275,6.301 L31.275,6.301 Z" id="Shape" fill="#000000"></path>
        <path d="M16,10 C11.878,10 9,12.878 9,17 L9,19 C9,22.437 7.728,23.217 6.968,23.683 C6.583,23.919 6,24.276 6,25 C6,27.12 12.513,28 16,28 C19.133,28 26,27.245 26,25 C26,24.26 25.427,23.904 25.009,23.645 C24.258,23.178 23,22.397 23,19 L23,17 C23,12.878 20.122,10 16,10 L16,10 Z M19.022,21.79 C18.33,25.017 17.624,26 16,26 C14.376,26 13.67,25.017 12.978,21.79 C12.879,21.329 12.472,21 12,21 C11.527,21 11,20.478 11,19.728 L11,18 L13.231,18 C13.518,18 13.79,17.877 13.98,17.663 L15.044,16.459 L16.293,17.707 C16.48,17.895 16.735,18 17,18 L21,18 L21,19.728 C21,20.493 20.398,21 20,21 C19.529,21 19.121,21.329 19.022,21.79 L19.022,21.79 Z M16,12 C19.165,12 20.575,13.981 20.914,16 L17.414,16 L15.707,14.293 C15.512,14.098 15.244,13.987 14.969,14.001 C14.694,14.009 14.433,14.131 14.251,14.338 L12.78,16 L11.086,16 C11.425,13.981 12.835,12 16,12 L16,12 Z M10.443,22.513 C10.668,22.664 10.909,22.79 11.168,22.872 C11.375,23.778 11.667,24.819 12.178,25.728 C10.668,25.511 9.465,25.201 8.704,24.927 C9.296,24.477 9.976,23.753 10.443,22.513 L10.443,22.513 Z M23.338,24.933 C22.585,25.206 21.366,25.52 19.817,25.737 C20.333,24.824 20.625,23.776 20.834,22.866 C21.092,22.782 21.332,22.652 21.557,22.498 C22.036,23.766 22.74,24.488 23.338,24.933 L23.338,24.933 Z" id="Shape" fill="#000000"></path>
        <path d="M6.348,42.178 C7.672,43.387 10.904,44 16.014,44 L16.038,44 C21.1,44 24.329,43.388 25.652,42.178 C29.865,41.822 32,40.682 32,38.788 C32,38.744 31.992,38.623 31.986,38.579 C31.981,38.543 31.974,38.508 31.966,38.473 L31.342,35.942 C30.067,29.689 26.124,28.718 20.251,28.031 C20.154,28.006 20.049,27.995 19.948,28.001 C19.269,27.962 18.655,28.363 18.388,28.976 C17.688,30.596 16.447,31.875 16.047,31.995 C16.029,31.995 16.01,31.995 15.995,31.994 C15.548,31.867 14.312,30.589 13.613,28.973 C13.337,28.339 12.673,27.951 11.976,28.006 C11.954,28.007 11.932,28.01 11.91,28.013 C5.948,28.701 1.944,29.634 0.659,35.946 L0.034,38.472 C0.025,38.507 0.018,38.543 0.013,38.579 C0.007,38.623 -0.001,38.744 -0.001,38.788 C-2.13162821e-14,40.682 2.135,41.822 6.348,42.178 L6.348,42.178 Z M19.375,31.329 L19.722,33.406 L18.206,32.8 C18.633,32.367 19.031,31.854 19.375,31.329 L19.375,31.329 Z M12.65,31.363 C12.988,31.876 13.379,32.375 13.796,32.799 L12.294,33.4 L12.65,31.363 L12.65,31.363 Z M2.61,36.386 C3.484,32.094 5.497,30.898 10.83,30.164 L10.016,34.822 C9.954,35.179 10.089,35.542 10.37,35.771 C10.653,36 11.037,36.058 11.372,35.923 L16,34.072 L20.628,35.924 C20.963,36.057 21.345,36.001 21.627,35.774 C21.909,35.547 22.046,35.187 21.986,34.831 L21.209,30.17 C26.514,30.903 28.517,32.099 29.391,36.382 L29.995,38.832 C29.904,39.204 28.662,39.964 25.111,40.215 C24.81,40.236 24.534,40.393 24.361,40.641 C23.891,41.317 20.881,42 15.984,42 L15.974,42 L15.964,42 C11.12,42 8.11,41.316 7.64,40.641 C7.467,40.393 7.191,40.236 6.89,40.215 C3.268,39.959 2.048,39.173 1.998,38.864 L2.61,36.386 L2.61,36.386 Z" id="Shape" fill="#000000"></path>
    </g>
</svg>