<?xml version="1.0" encoding="UTF-8" standalone="no"?>
<svg width="64px" height="64px" viewBox="0 0 64 64" version="1.1" xmlns="http://www.w3.org/2000/svg" xmlns:xlink="http://www.w3.org/1999/xlink">
    <!-- Generator: Sketch 3.7.2 (28276) - http://www.bohemiancoding.com/sketch -->
    <title>use-user-user</title>
    <desc>Created with Sketch.</desc>
    <defs></defs>
    <g id="64px-Line" stroke="none" stroke-width="1" fill="none" fill-rule="evenodd">
        <g id="use-user-user"></g>
        <path d="M36,25 C36,18.935 31.065,14 25,14 C18.935,14 14,18.935 14,25 C14,29.179 16.344,32.821 19.785,34.682 C10.725,37.01 4,45.224 4,55 C4,55.553 4.448,56 5,56 C5.552,56 6,55.553 6,55 C6,44.523 14.523,36 25,36 C35.477,36 44,44.523 44,55 C44,55.553 44.448,56 45,56 C45.552,56 46,55.553 46,55 C46,45.224 39.275,37.01 30.215,34.682 C33.656,32.821 36,29.179 36,25 L36,25 Z M25,34 C20.038,34 16,29.963 16,25 C16,20.037 20.038,16 25,16 C29.962,16 34,20.037 34,25 C34,29.963 29.962,34 25,34 L25,34 Z" id="Shape" fill="#000000"></path>
        <path d="M46.925,26.692 C49.951,24.971 52,21.722 52,18 C52,12.486 47.514,8 42,8 C38.149,8 34.599,10.25 32.954,13.733 C32.718,14.232 32.932,14.829 33.432,15.064 C33.931,15.301 34.527,15.086 34.763,14.586 C36.078,11.8 38.919,9.999 42,9.999 C46.411,9.999 50,13.588 50,17.999 C50,22.41 46.411,25.999 42,25.999 C41.061,25.999 40.14,25.838 39.265,25.52 C38.747,25.332 38.172,25.599 37.984,26.118 C37.908,26.328 37.923,26.542 37.983,26.741 C37.841,26.952 37.779,27.215 37.83,27.484 C37.933,28.026 38.457,28.383 38.999,28.28 C39.98,28.095 40.991,28 42,28 C50.483,28 57.512,34.614 58.001,43.058 C58.032,43.59 58.473,44 58.999,44 C59.019,44 59.038,43.999 59.058,43.998 C59.609,43.967 60.03,43.493 59.998,42.942 C59.546,35.14 54.13,28.736 46.925,26.692 L46.925,26.692 Z" id="Shape" fill="#000000"></path>
    </g>
</svg>