<?xml version="1.0" encoding="UTF-8" standalone="no"?>
<svg width="64px" height="64px" viewBox="0 0 64 64" version="1.1" xmlns="http://www.w3.org/2000/svg" xmlns:xlink="http://www.w3.org/1999/xlink">
    <!-- Generator: Sketch 3.7.2 (28276) - http://www.bohemiancoding.com/sketch -->
    <title>use-user-secure</title>
    <desc>Created with Sketch.</desc>
    <defs></defs>
    <g id="64px-Line" stroke="none" stroke-width="1" fill="none" fill-rule="evenodd">
        <g id="use-user-secure"></g>
        <path d="M59,44 L57,44 L57,42 C57,37.589 53.411,34 49,34 C44.589,34 41,37.589 41,42 L41,44 L39,44 C38.447,44 38,44.447 38,45 L38,59 C38,59.553 38.447,60 39,60 L59,60 C59.553,60 60,59.553 60,59 L60,45 C60,44.447 59.553,44 59,44 L59,44 Z M43,42 C43,38.691 45.691,36 49,36 C52.309,36 55,38.691 55,42 L55,44 L43,44 L43,42 L43,42 Z M58,58 L40,58 L40,46 L58,46 L58,58 L58,58 Z" id="Shape" fill="#000000"></path>
        <path d="M49,48 C47.897,48 47,48.897 47,50 C47,50.737 47.405,51.375 48,51.722 L48,55 C48,55.553 48.447,56 49,56 C49.553,56 50,55.553 50,55 L50,51.722 C50.595,51.375 51,50.737 51,50 C51,48.897 50.103,48 49,48 L49,48 Z" id="Shape" fill="#000000"></path>
        <path d="M42.828,33.688 C43.207,33.287 43.188,32.654 42.787,32.274 C39.813,29.466 36.194,27.558 32.292,26.639 C35.691,24.765 38,21.149 38,17.001 C38,10.936 33.065,6.001 27,6.001 C20.935,6.001 16,10.936 16,17.001 C16,21.14 18.3,24.75 21.688,26.627 C11.559,29.031 4,38.146 4,49 C4,49.553 4.447,50 5,50 C5.553,50 6,49.553 6,49 C6,37.421 15.421,28 27,28 C32.383,28 37.502,30.034 41.414,33.729 C41.815,34.106 42.448,34.089 42.828,33.688 L42.828,33.688 Z M18,17 C18,12.037 22.037,8 27,8 C31.963,8 36,12.037 36,17 C36,21.963 31.963,26 27,26 C22.037,26 18,21.963 18,17 L18,17 Z" id="Shape" fill="#000000"></path>
    </g>
</svg>