<?xml version="1.0" encoding="UTF-8" standalone="no"?>
<svg width="64px" height="64px" viewBox="0 0 64 64" version="1.1" xmlns="http://www.w3.org/2000/svg" xmlns:xlink="http://www.w3.org/1999/xlink">
    <!-- Generator: Sketch 3.7.2 (28276) - http://www.bohemiancoding.com/sketch -->
    <title>use-user-settings</title>
    <desc>Created with Sketch.</desc>
    <defs></defs>
    <g id="64px-Line" stroke="none" stroke-width="1" fill="none" fill-rule="evenodd">
        <g id="use-user-settings"></g>
        <path d="M48,40 C44.691,40 42,42.691 42,46 C42,49.309 44.691,52 48,52 C51.309,52 54,49.309 54,46 C54,42.691 51.309,40 48,40 L48,40 Z M48,50 C45.794,50 44,48.206 44,46 C44,43.794 45.794,42 48,42 C50.206,42 52,43.794 52,46 C52,48.206 50.206,50 48,50 L48,50 Z" id="Shape" fill="#000000"></path>
        <path d="M60,43 L58.581,43 C58.344,42.166 58.007,41.356 57.585,40.604 L58.421,39.769 C59.192,38.998 59.192,37.741 58.42,36.968 L57.031,35.579 C56.26,34.808 55.002,34.808 54.23,35.58 L53.397,36.413 C52.637,35.983 51.835,35.649 51,35.413 L51,34 C51,32.897 50.103,32 49,32 L47,32 C45.897,32 45,32.897 45,34 L45,35.413 C44.162,35.649 43.359,35.983 42.602,36.412 L41.769,35.579 C40.997,34.808 39.741,34.808 38.968,35.58 L37.58,36.968 C36.808,37.74 36.808,38.997 37.58,39.77 L38.413,40.603 C37.986,41.359 37.653,42.162 37.417,43 L36,43 C34.897,43 34,43.897 34,45 L34,47 C34,48.103 34.897,49 36,49 L37.419,49 C37.656,49.835 37.992,50.645 38.414,51.396 L37.58,52.23 C36.809,53.001 36.808,54.258 37.58,55.032 L38.968,56.42 C39.739,57.193 40.998,57.19 41.77,56.42 L42.604,55.585 C43.36,56.012 44.162,56.345 45,56.581 L45,58 C45,59.103 45.897,60 47,60 L49,60 C50.103,60 51,59.103 51,58 L51,56.579 C51.836,56.341 52.646,56.005 53.396,55.585 L54.231,56.42 C55.002,57.19 56.258,57.191 57.033,56.42 L58.421,55.031 C59.193,54.259 59.193,53.003 58.421,52.23 L57.589,51.397 C58.016,50.641 58.348,49.839 58.584,49 L60,49 C61.103,49 62,48.103 62,47 L62,45 C62,43.897 61.103,43 60,43 L60,43 Z M60,47 L57.797,47 C57.321,47 56.911,47.335 56.817,47.801 C56.584,48.952 56.138,50.026 55.493,50.991 C55.227,51.387 55.279,51.916 55.617,52.254 L57.007,53.617 L55.646,55.006 L54.254,53.613 C53.916,53.275 53.386,53.223 52.991,53.489 C52.044,54.123 50.94,54.581 49.8,54.815 C49.335,54.911 49.001,55.32 49.001,55.794 L49.001,58 L47.001,58 L47.001,55.795 C47.001,55.319 46.666,54.909 46.2,54.815 C45.052,54.583 43.978,54.136 43.011,53.49 C42.841,53.377 42.648,53.321 42.455,53.321 C42.197,53.321 41.941,53.421 41.748,53.614 L40.383,55.007 L38.995,53.646 L40.386,52.255 C40.723,51.918 40.776,51.39 40.511,50.993 C39.875,50.041 39.416,48.936 39.184,47.801 C39.089,47.335 38.679,47.001 38.205,47.001 L36,47.001 L36,45.001 L38.203,45.001 C38.679,45.001 39.089,44.666 39.183,44.2 C39.415,43.051 39.862,41.977 40.508,41.01 C40.774,40.614 40.722,40.084 40.384,39.747 L38.993,38.383 L40.354,36.995 L41.745,38.386 C42.083,38.724 42.613,38.774 43.008,38.51 C43.98,37.861 45.053,37.413 46.198,37.181 C46.664,37.086 46.999,36.676 46.999,36.201 L46.999,34 L48.999,34 L48.999,36.199 C48.999,36.675 49.334,37.085 49.8,37.179 C50.941,37.41 52.015,37.858 52.991,38.509 C53.387,38.775 53.915,38.722 54.253,38.384 L55.617,36.993 L57.005,38.354 L55.613,39.745 C55.276,40.082 55.223,40.61 55.488,41.007 C56.125,41.961 56.584,43.065 56.816,44.199 C56.911,44.665 57.321,44.999 57.795,44.999 L60,44.999 L60,47 L60,47 Z" id="Shape" fill="#000000"></path>
        <path d="M41.737,30.635 C42.088,30.209 42.026,29.578 41.599,29.228 C38.883,26.994 35.685,25.442 32.292,24.638 C35.69,22.764 37.999,19.148 37.999,15 C37.999,8.935 33.064,4 26.999,4 C20.934,4 15.999,8.935 15.999,15 C15.999,19.139 18.299,22.749 21.687,24.626 C11.559,27.031 4,36.146 4,47 C4,47.553 4.447,48 5,48 C5.553,48 6,47.553 6,47 C6,35.421 15.421,26 27,26 C31.854,26 36.587,27.695 40.33,30.772 C40.755,31.124 41.386,31.062 41.737,30.635 L41.737,30.635 Z M18,15 C18,10.037 22.037,6 27,6 C31.963,6 36,10.037 36,15 C36,19.963 31.963,24 27,24 C22.037,24 18,19.963 18,15 L18,15 Z" id="Shape" fill="#000000"></path>
    </g>
</svg>