<?xml version="1.0" encoding="UTF-8" standalone="no"?>
<svg width="64px" height="64px" viewBox="0 0 64 64" version="1.1" xmlns="http://www.w3.org/2000/svg" xmlns:xlink="http://www.w3.org/1999/xlink">
    <!-- Generator: Sketch 3.7.2 (28276) - http://www.bohemiancoding.com/sketch -->
    <title>use-male-tick</title>
    <desc>Created with Sketch.</desc>
    <defs></defs>
    <g id="64px-Line" stroke="none" stroke-width="1" fill="none" fill-rule="evenodd">
        <g id="use-male-tick"></g>
        <path d="M29,30 C33.192,30 36.445,26.994 37.804,21.917 C40,21.425 40,18.892 40,18 C40,16.58 40,14.884 38.988,14.252 C38.772,7.355 35.499,4 29,4 C22.501,4 19.228,7.355 19.012,14.252 C18,14.884 18,16.58 18,18 C18,18.986 18,21.444 20.197,21.919 C21.555,26.995 24.808,30 29,30 L29,30 Z M29,6 C34.194,6 36.686,8.446 36.972,13.894 C35.507,13.548 34.827,12.319 33.949,9.684 C33.831,9.331 33.528,9.073 33.16,9.013 C32.793,8.958 32.423,9.103 32.2,9.4 C30.15,12.133 26.488,13.627 21.023,13.953 C21.284,8.392 23.713,6 29,6 L29,6 Z M20.127,15.997 C25.855,15.804 29.969,14.465 32.631,11.917 C33.571,14.229 34.882,15.952 37.873,15.999 C38,16.396 38,17.461 38,18 C38,20 37.514,20 37,20 C36.533,20 36.127,20.324 36.024,20.78 C35.535,22.951 33.87,28 29,28 C24.128,28 22.465,22.951 21.976,20.78 C21.873,20.324 21.468,20 21,20 C20.398,20 20,20 20,18 C20,17.46 20,16.392 20.127,15.997 L20.127,15.997 Z" id="Shape" fill="#000000"></path>
        <path d="M40.765,33.266 C41.304,33.392 41.842,33.064 41.971,32.527 C42.099,31.99 41.768,31.45 41.232,31.321 C39.576,30.924 37.683,30.603 35.438,30.339 C34.563,30.239 33.713,30.738 33.369,31.546 C31.834,35.168 29.689,37.916 29.01,38.001 C28.314,37.914 26.171,35.165 24.635,31.545 C24.292,30.737 23.443,30.242 22.561,30.339 C12.54,31.518 5.942,34.182 4.021,43.804 C4.008,43.868 4.001,43.934 4.001,44 C4.001,46.739 7.302,48.394 13.814,48.921 C16.556,51.77 26.05,52 29,52 C29.355,52 30.338,51.994 31.644,51.938 C32.196,51.915 32.624,51.448 32.601,50.896 C32.578,50.345 32.131,49.928 31.559,49.939 C30.295,49.993 29.344,49.999 29,49.999 C22.994,49.999 16.304,49.103 15.137,47.392 C14.965,47.14 14.687,46.98 14.383,46.958 C9.389,46.599 6.128,45.475 6.004,44.082 C7.724,35.702 13.468,33.422 22.793,32.326 C22.926,32.639 26.083,40 29.001,40 C31.925,40 35.078,32.639 35.21,32.325 C37.37,32.58 39.187,32.887 40.765,33.266 L40.765,33.266 Z" id="Shape" fill="#000000"></path>
        <path d="M47,34 C39.832,34 34,39.832 34,47 C34,54.168 39.832,60 47,60 C54.168,60 60,54.168 60,47 C60,39.832 54.168,34 47,34 L47,34 Z M47,58 C40.935,58 36,53.065 36,47 C36,40.935 40.935,36 47,36 C53.065,36 58,40.935 58,47 C58,53.065 53.065,58 47,58 L47,58 Z" id="Shape" fill="#000000"></path>
        <path d="M53.293,42.293 L45,50.586 L41.707,47.293 C41.316,46.902 40.684,46.902 40.293,47.293 C39.902,47.684 39.902,48.316 40.293,48.707 L44.293,52.707 C44.488,52.902 44.744,53 45,53 C45.256,53 45.512,52.902 45.707,52.707 L54.707,43.707 C55.098,43.316 55.098,42.684 54.707,42.293 C54.316,41.902 53.684,41.902 53.293,42.293 L53.293,42.293 Z" id="Shape" fill="#000000"></path>
    </g>
</svg>