<?xml version="1.0" encoding="UTF-8" standalone="no"?>
<svg width="64px" height="64px" viewBox="0 0 64 64" version="1.1" xmlns="http://www.w3.org/2000/svg" xmlns:xlink="http://www.w3.org/1999/xlink">
    <!-- Generator: Sketch 3.7.2 (28276) - http://www.bohemiancoding.com/sketch -->
    <title>use-fem-fem</title>
    <desc>Created with Sketch.</desc>
    <defs></defs>
    <g id="64px-Line" stroke="none" stroke-width="1" fill="none" fill-rule="evenodd">
        <g id="use-fem-fem"></g>
        <path d="M10.653,57.41 C12.756,59.537 18.962,60 24.02,60 L24.051,60 C29.041,60 35.243,59.538 37.346,57.41 C43.089,56.936 45.999,55.448 45.999,52.983 C45.999,52.902 45.994,52.821 45.983,52.741 C45.978,52.707 45.972,52.674 45.963,52.64 L45.086,49.007 C43.339,40.261 37.84,38.975 29.648,38.012 C29.501,37.995 29.358,38.016 29.215,38.034 C29.067,38 28.913,37.99 28.756,38.03 C28.458,38.104 28.236,38.311 28.111,38.567 C27.945,38.733 27.8,38.92 27.705,39.144 C26.535,41.906 24.573,43.975 24,44.001 C23.424,43.972 21.463,41.901 20.292,39.142 C20.196,38.917 20.05,38.728 19.883,38.561 C19.757,38.308 19.536,38.105 19.241,38.031 C19.085,37.992 18.933,38.001 18.786,38.034 C18.642,38.017 18.498,37.996 18.349,38.014 C10.159,38.977 4.658,40.267 2.91,49.032 L2.035,52.64 C2.027,52.674 2.02,52.708 2.015,52.742 C2.004,52.823 1.999,52.904 1.999,52.984 C2,55.448 4.91,56.937 10.653,57.41 L10.653,57.41 Z M28.645,41.703 L29.61,45.562 L26.458,44.661 C27.291,43.828 28.054,42.725 28.645,41.703 L28.645,41.703 Z M21.544,44.662 L18.39,45.563 L19.356,41.7 C19.948,42.722 20.711,43.827 21.544,44.662 L21.544,44.662 Z M4.862,49.462 C6.262,42.448 9.895,41.085 17.692,40.109 L16.03,46.757 C15.943,47.104 16.048,47.47 16.304,47.718 C16.562,47.967 16.934,48.058 17.274,47.961 L24,46.04 L30.726,47.961 C30.816,47.987 30.909,48 31,48 C31.256,48 31.506,47.902 31.695,47.719 C31.952,47.47 32.056,47.104 31.969,46.758 L30.307,40.11 C38.104,41.086 41.736,42.443 43.135,49.438 L43.998,53.019 C43.945,53.979 41.707,55.093 36.78,55.449 C36.476,55.471 36.198,55.631 36.026,55.883 C35.306,56.938 31.325,58.001 23.976,58.001 L23.961,58.001 L23.947,58.001 C16.673,58.001 12.69,56.938 11.97,55.883 C11.798,55.631 11.52,55.471 11.216,55.449 C6.266,55.092 4.03,53.969 3.995,53.031 L4.862,49.462 L4.862,49.462 Z" id="Shape" fill="#000000"></path>
        <path d="M47.271,30.199 L45.649,30.012 C45.503,29.995 45.36,30.016 45.217,30.034 C45.069,30 44.914,29.99 44.757,30.03 C44.458,30.105 44.237,30.311 44.112,30.567 C43.946,30.732 43.802,30.92 43.706,31.143 C42.536,33.905 40.574,35.974 39.999,36 C39.999,36 39.96,35.999 39.877,35.962 C39.37,35.742 38.781,35.973 38.561,36.479 C38.34,36.985 38.572,37.575 39.079,37.795 C39.311,37.897 39.542,37.948 39.77,37.974 L46.726,39.961 C46.816,39.987 46.909,40 47,40 C47.256,40 47.506,39.902 47.695,39.719 C47.952,39.47 48.056,39.104 47.969,38.758 L46.305,32.102 L47.045,32.187 C54.635,33.047 58.1,33.44 59.411,40.003 C59.411,40.003 59.897,42.52 59.995,43.05 C59.895,44.002 57.653,45.096 52.78,45.448 C52.476,45.47 52.198,45.63 52.026,45.882 C51.844,46.148 50.834,46.798 48.306,47.352 C47.766,47.47 47.425,48.003 47.543,48.543 C47.646,49.01 48.059,49.329 48.519,49.329 C48.59,49.329 48.662,49.322 48.734,49.306 C50.985,48.813 52.527,48.177 53.332,47.412 C59.084,46.94 61.999,45.451 61.999,42.984 C61.999,42.852 61.999,42.852 61.373,39.617 C59.775,31.616 54.801,31.052 47.271,30.199 L47.271,30.199 Z M42.458,36.662 C43.291,35.828 44.054,34.724 44.645,33.703 L45.61,37.563 L42.458,36.662 L42.458,36.662 Z" id="Shape" fill="#000000"></path>
        <path d="M34,24 C34,19.084 30.26,14 24,14 C17.74,14 14,19.084 14,24 L14,26 C14,30.915 12.152,31.967 11.159,32.533 C10.67,32.812 10,33.193 10,34 C10,36.405 18.427,38 24,38 C29.708,38 38,36.442 38,34 C38,33.17 37.312,32.772 36.81,32.482 C35.759,31.875 34,30.859 34,26 L34,24 L34,24 Z M24,36 C21.358,36 19.996,34.314 18.976,29.78 C18.873,29.324 18.468,29 18,29 C17.034,29 16,28.196 16,27 L16,26 L20,26 C20.379,26 20.725,25.786 20.895,25.447 L22,23.236 L23.105,25.447 C23.275,25.786 23.621,26 24,26 L32,26 L32,27 C32,28.239 30.835,29 30,29 C29.532,29 29.127,29.324 29.024,29.78 C28.003,34.314 26.641,36 24,36 L24,36 Z M24,16 C29.196,16 32,20.122 32,24 L24.618,24 L22.894,20.553 C22.554,19.875 21.445,19.875 21.105,20.553 L19.382,24 L16,24 C16,20.122 18.804,16 24,16 L24,16 Z M15.479,30.094 C15.985,30.499 16.578,30.779 17.188,30.911 C17.622,32.665 18.224,34.383 19.22,35.691 C16.067,35.277 13.724,34.535 12.588,34.014 C13.506,33.449 14.776,32.439 15.479,30.094 L15.479,30.094 Z M35.479,34.02 C34.391,34.544 32.042,35.298 28.768,35.708 C29.772,34.398 30.378,32.671 30.814,30.908 C31.425,30.771 32.017,30.481 32.523,30.07 C33.246,32.472 34.568,33.468 35.479,34.02 L35.479,34.02 Z" id="Shape" fill="#000000"></path>
        <path d="M50,16 C50,11.084 46.26,6 40,6 C35.413,6 31.644,8.817 30.397,13.176 C30.246,13.707 30.553,14.26 31.085,14.412 C31.61,14.564 32.169,14.258 32.321,13.725 C33.112,10.957 35.545,7.999 40,7.999 C45.196,7.999 48,12.121 48,15.999 L40.618,15.999 L38.894,12.552 C38.554,11.874 37.445,11.874 37.105,12.552 L35.382,16 L34.833,16 C34.28,16 33.833,16.448 33.833,17 C33.833,17.552 34.28,18 34.833,18 L36,18 C36.379,18 36.725,17.786 36.895,17.447 L38,15.236 L39.105,17.447 C39.275,17.786 39.621,18 40,18 L48,18 L48,19 C48,20.239 46.835,21 46,21 C45.532,21 45.127,21.324 45.024,21.78 C44.003,26.314 42.64,28 40,28 C39.024,28 38.236,27.767 37.591,27.289 C37.15,26.961 36.521,27.054 36.193,27.497 C35.973,27.794 35.957,28.167 36.093,28.484 C36.049,28.585 36.012,28.69 36.003,28.807 C35.96,29.358 36.372,29.839 36.923,29.881 C37.953,29.961 38.988,30.001 40,30.001 C45.708,30.001 54,28.443 54,26.001 C54,25.171 53.312,24.773 52.81,24.483 C51.759,23.876 50,22.86 50,18.001 L50,16 L50,16 Z M51.479,26.02 C50.391,26.544 48.042,27.298 44.768,27.708 C45.772,26.398 46.378,24.671 46.814,22.908 C47.425,22.771 48.017,22.481 48.523,22.07 C49.246,24.472 50.568,25.468 51.479,26.02 L51.479,26.02 Z" id="Shape" fill="#000000"></path>
    </g>
</svg>