<?xml version="1.0" encoding="UTF-8" standalone="no"?>
<svg width="64px" height="64px" viewBox="0 0 64 64" version="1.1" xmlns="http://www.w3.org/2000/svg" xmlns:xlink="http://www.w3.org/1999/xlink">
    <!-- Generator: Sketch 3.7.2 (28276) - http://www.bohemiancoding.com/sketch -->
    <title>use-male-fem</title>
    <desc>Created with Sketch.</desc>
    <defs></defs>
    <g id="64px-Line" stroke="none" stroke-width="1" fill="none" fill-rule="evenodd">
        <g id="use-male-fem"></g>
        <path d="M24.021,60 L24.052,60 C29.043,60 35.245,59.538 37.347,57.41 C43.09,56.936 46,55.448 46,52.983 C46,52.902 45.995,52.821 45.984,52.741 C45.979,52.707 45.973,52.674 45.965,52.64 L45.088,49.007 C43.34,40.261 37.841,38.975 29.65,38.012 C28.824,37.92 28.031,38.382 27.708,39.143 C26.538,41.905 24.576,43.974 24.002,44 C23.426,43.971 21.465,41.9 20.294,39.141 C19.971,38.382 19.17,37.916 18.35,38.013 C10.159,38.976 4.659,40.266 2.91,49.031 L2.035,52.639 C2.027,52.673 2.02,52.707 2.015,52.741 C2.004,52.822 1.999,52.903 1.999,52.983 C1.999,55.448 4.91,56.936 10.652,57.41 C12.756,59.538 18.962,60 24.021,60 L24.021,60 Z M3.998,53.03 L4.862,49.463 C6.31,42.211 10.132,40.999 18.49,40.01 C19.365,42.023 21.789,46 24,46 C26.216,46 28.64,42.02 29.512,40.01 C37.87,40.999 41.69,42.205 43.136,49.438 L44,53.019 C43.947,53.979 41.709,55.093 36.783,55.449 C36.478,55.471 36.2,55.631 36.029,55.883 C35.31,56.938 31.328,58.001 23.979,58.001 L23.964,58.001 L23.95,58.001 C16.676,58.001 12.693,56.938 11.974,55.883 C11.802,55.631 11.524,55.471 11.22,55.449 C6.269,55.09 4.033,53.967 3.998,53.03 L3.998,53.03 Z" id="Shape" fill="#000000"></path>
        <path d="M47.272,30.199 L45.649,30.012 C45.573,30.004 45.501,30.023 45.426,30.023 C45.402,30.026 45.379,30.017 45.355,30.022 C45.35,30.023 45.346,30.027 45.341,30.027 C44.634,30.066 43.989,30.478 43.707,31.142 C42.537,33.904 40.575,35.973 40.001,35.999 C39.425,35.97 37.464,33.899 36.294,31.142 C36.078,30.633 35.491,30.397 34.983,30.612 C34.475,30.828 34.237,31.415 34.453,31.923 C35.266,33.839 37.593,37.715 39.772,37.974 L46.724,39.96 C46.815,39.986 46.907,39.999 46.999,39.999 C47.244,39.999 47.484,39.909 47.671,39.74 C47.927,39.508 48.045,39.159 47.983,38.819 L46.761,32.153 L47.046,32.186 C54.636,33.046 58.101,33.439 59.412,40.002 C59.412,40.002 59.898,42.52 59.996,43.05 C59.897,44.002 57.654,45.096 52.781,45.448 C52.476,45.47 52.199,45.63 52.027,45.882 C51.845,46.148 50.835,46.798 48.307,47.352 C47.768,47.47 47.426,48.003 47.545,48.543 C47.647,49.01 48.061,49.329 48.521,49.329 C48.592,49.329 48.664,49.322 48.736,49.306 C50.987,48.813 52.529,48.177 53.333,47.412 C59.085,46.94 62,45.451 62,42.984 C62,42.852 62,42.852 61.375,39.617 C59.776,31.616 54.802,31.052 47.272,30.199 L47.272,30.199 Z M42.458,36.663 C43.428,35.692 44.303,34.355 44.922,33.209 L45.726,37.596 L42.458,36.663 L42.458,36.663 Z" id="Shape" fill="#000000"></path>
        <path d="M36.631,29.855 C37.744,29.951 38.877,30 40,30 C45.708,30 54,28.442 54,26 C54,25.17 53.312,24.772 52.809,24.482 C51.758,23.875 50,22.859 50,18 L50,16 C50,11.084 46.259,6 40,6 C35.533,6 31.793,8.718 30.474,12.924 C30.308,13.451 30.602,14.012 31.129,14.177 C31.652,14.341 32.216,14.049 32.382,13.522 C33.22,10.852 35.661,7.999 40,7.999 C45.196,7.999 48,12.121 48,15.999 L40.618,15.999 L38.894,12.552 C38.555,11.874 37.444,11.874 37.105,12.552 L35.382,16 L34.625,16 C34.073,16 33.625,16.448 33.625,17 C33.625,17.552 34.073,18 34.625,18 L36,18 C36.379,18 36.725,17.786 36.895,17.447 L38,15.236 L39.105,17.447 C39.274,17.786 39.621,18 40,18 L48,18 L48,19 C48,20.239 46.835,21 46,21 C45.532,21 45.127,21.324 45.024,21.78 C44.002,26.314 42.64,28 40,28 C38.973,28 38.152,27.741 37.489,27.209 C37.059,26.864 36.428,26.933 36.083,27.363 C35.868,27.631 35.831,27.97 35.924,28.275 C35.818,28.42 35.737,28.583 35.72,28.773 C35.673,29.324 36.081,29.808 36.631,29.855 L36.631,29.855 Z M46.813,22.908 C47.424,22.77 48.016,22.481 48.522,22.07 C49.246,24.473 50.567,25.468 51.479,26.021 C50.391,26.545 48.042,27.299 44.768,27.709 C45.771,26.398 46.376,24.671 46.813,22.908 L46.813,22.908 Z" id="Shape" fill="#000000"></path>
        <path d="M16.19,30.894 C17.417,35.484 20.171,38 24,38 C27.831,38 30.586,35.48 31.812,30.884 C32.75,30.613 34,29.738 34,27 C34,25.966 34,24.041 32.989,23.301 C32.789,17.045 29.843,14 24,14 C18.157,14 15.211,17.044 15.011,23.301 C14,24.041 14,25.966 14,27 C14,29.745 15.212,30.628 16.19,30.894 L16.19,30.894 Z M31,29 C30.533,29 30.127,29.324 30.024,29.78 C29.384,32.618 27.819,36 24,36 C20.179,36 18.615,32.618 17.976,29.78 C17.873,29.324 17.468,29 17,29 C16.727,29 16,29 16,27 C16,25.707 16.108,25.195 16.188,24.993 C20.143,24.863 23.915,24.481 26.689,21.852 C27.78,23.96 29.414,24.94 31.811,24.991 C31.891,25.192 32,25.703 32,27.001 C32,27.913 31.827,29 31,29 L31,29 Z M24,16 C28.574,16 30.701,18.082 30.969,22.906 C29.473,22.638 28.623,21.705 27.949,19.684 C27.831,19.331 27.528,19.073 27.16,19.013 C26.793,18.956 26.423,19.103 26.2,19.4 C24.068,22.243 20.8,22.786 17.027,22.959 C17.281,18.096 19.409,16 24,16 L24,16 Z" id="Shape" fill="#000000"></path>
    </g>
</svg>