<?xml version="1.0" encoding="UTF-8" standalone="no"?>
<svg width="64px" height="64px" viewBox="0 0 64 64" version="1.1" xmlns="http://www.w3.org/2000/svg" xmlns:xlink="http://www.w3.org/1999/xlink">
    <!-- Generator: Sketch 3.7.2 (28276) - http://www.bohemiancoding.com/sketch -->
    <title>use-user-script</title>
    <desc>Created with Sketch.</desc>
    <defs></defs>
    <g id="64px-Line" stroke="none" stroke-width="1" fill="none" fill-rule="evenodd">
        <g id="use-user-script"></g>
        <path d="M49,10.002 L33,10.002 C32.447,10.002 32,10.449 32,11.002 C32,11.555 32.447,12.002 33,12.002 L49,12.002 C49.553,12.002 50,11.555 50,11.002 C50,10.449 49.553,10.002 49,10.002 L49,10.002 Z" id="Shape" fill="#000000"></path>
        <path d="M49,14 L33,14 C32.447,14 32,14.447 32,15 C32,15.553 32.447,16 33,16 L49,16 C49.553,16 50,15.553 50,15 C50,14.447 49.553,14 49,14 L49,14 Z" id="Shape" fill="#000000"></path>
        <path d="M45,18 L33,18 C32.447,18 32,18.447 32,19 C32,19.553 32.447,20 33,20 L45,20 C45.553,20 46,19.553 46,19 C46,18.447 45.553,18 45,18 L45,18 Z" id="Shape" fill="#000000"></path>
        <path d="M58,22 L58,8 C58,5.794 56.206,4 54,4 L28,4 C25.794,4 24,5.794 24,8 L24,22 C24,24.206 25.794,26 28,26 L32,26 L32,31 C32,31.391 32.228,31.745 32.582,31.908 C32.716,31.97 32.858,32 33,32 C33.234,32 33.466,31.918 33.65,31.759 L40.37,26 L54,26 C56.206,26 58,24.206 58,22 L58,22 Z M40,24 C39.762,24 39.53,24.085 39.35,24.241 L34,28.826 L34,25 C34,24.447 33.553,24 33,24 L28,24 C26.897,24 26,23.103 26,22 L26,8 C26,6.897 26.897,6 28,6 L54,6 C55.103,6 56,6.897 56,8 L56,22 C56,23.103 55.103,24 54,24 L40,24 L40,24 Z" id="Shape" fill="#000000"></path>
        <path d="M4,57 C4,57.553 4.447,58 5,58 C5.553,58 6,57.553 6,57 C6,46.523 14.523,38 25,38 C35.477,38 44,46.523 44,57 C44,57.553 44.447,58 45,58 C45.553,58 46,57.553 46,57 C46,47.225 39.276,39.012 30.217,36.683 C30.69,36.427 31.149,36.139 31.587,35.811 C32.029,35.48 32.119,34.853 31.788,34.411 C31.456,33.971 30.83,33.88 30.388,34.21 C28.825,35.381 26.961,36 25,36 C20.037,36 16,31.963 16,27 C16,23.422 18.119,20.184 21.398,18.75 C21.904,18.529 22.135,17.939 21.914,17.434 C21.694,16.929 21.105,16.695 20.598,16.918 C16.59,18.669 14,22.626 14,27 C14,31.179 16.344,34.821 19.785,36.682 C10.725,39.01 4,47.224 4,57 L4,57 Z" id="Shape" fill="#000000"></path>
    </g>
</svg>