<?xml version="1.0" encoding="UTF-8" standalone="no"?>
<svg width="64px" height="64px" viewBox="0 0 64 64" version="1.1" xmlns="http://www.w3.org/2000/svg" xmlns:xlink="http://www.w3.org/1999/xlink">
    <!-- Generator: Sketch 3.7.2 (28276) - http://www.bohemiancoding.com/sketch -->
    <title>use-user-edit</title>
    <desc>Created with Sketch.</desc>
    <defs></defs>
    <g id="64px-Line" stroke="none" stroke-width="1" fill="none" fill-rule="evenodd">
        <g id="use-user-edit"></g>
        <path d="M55.204,32.729 C54.272,31.79 52.614,31.815 51.735,32.704 L49.945,34.381 C49.941,34.385 49.939,34.391 49.935,34.395 C49.93,34.399 49.924,34.401 49.92,34.405 L34.699,49.697 C34.698,49.698 34.697,49.698 34.697,49.698 C34.696,49.699 34.696,49.699 34.696,49.7 L34.331,50.067 C34.254,50.144 34.19,50.233 34.142,50.332 L30.103,58.561 C29.914,58.946 29.991,59.408 30.294,59.709 C30.486,59.9 30.741,60.001 31.001,60.001 C31.151,60.001 31.303,59.967 31.444,59.897 L39.634,55.839 C39.732,55.79 39.822,55.726 39.899,55.648 L40.272,55.273 L40.273,55.273 C40.274,55.273 40.273,55.273 40.273,55.272 L55.465,40.012 C55.465,40.012 55.466,40.012 55.466,40.011 L57.278,38.308 C58.238,37.347 58.239,35.779 57.279,34.81 L55.204,32.729 L55.204,32.729 Z M35.562,51.976 L38.002,54.415 L33.196,56.795 L35.562,51.976 L35.562,51.976 Z M39.564,53.15 L36.817,50.403 L50.629,36.527 L53.37,39.281 L39.564,53.15 L39.564,53.15 Z M55.886,36.872 L54.805,37.887 L52.065,35.134 L53.13,34.136 C53.248,34.017 53.386,33.999 53.458,33.999 C53.53,33.999 53.667,34.017 53.787,34.138 L55.862,36.219 C56.046,36.407 56.047,36.71 55.886,36.872 L55.886,36.872 Z" id="Shape" fill="#000000"></path>
        <path d="M43.2,35.637 C43.552,36.063 44.182,36.122 44.608,35.772 C45.034,35.42 45.094,34.79 44.742,34.364 C41.508,30.447 37.144,27.766 32.316,26.624 C35.702,24.747 38.001,21.138 38.001,17 C38.001,10.935 33.066,6 27.001,6 C20.936,6 16.001,10.935 16.001,17 C16.001,21.139 18.301,24.749 21.689,26.626 C11.559,29.031 4,38.146 4,49 C4,49.553 4.448,50 5,50 C5.552,50 6,49.553 6,49 C6,37.421 15.42,28 27,28 C33.289,28 39.193,30.783 43.2,35.637 L43.2,35.637 Z M18,17 C18,12.037 22.038,8 27,8 C31.962,8 36,12.037 36,17 C36,21.963 31.962,26 27,26 C22.038,26 18,21.963 18,17 L18,17 Z" id="Shape" fill="#000000"></path>
    </g>
</svg>