<?xml version="1.0" encoding="UTF-8" standalone="no"?>
<svg width="64px" height="64px" viewBox="0 0 64 64" version="1.1" xmlns="http://www.w3.org/2000/svg" xmlns:xlink="http://www.w3.org/1999/xlink">
    <!-- Generator: Sketch 3.7.2 (28276) - http://www.bohemiancoding.com/sketch -->
    <title>use-user-minus</title>
    <desc>Created with Sketch.</desc>
    <defs></defs>
    <g id="64px-Line" stroke="none" stroke-width="1" fill="none" fill-rule="evenodd">
        <g id="use-user-minus"></g>
        <path d="M41.307,32.258 C41.647,31.822 41.569,31.194 41.134,30.855 C38.491,28.794 35.501,27.375 32.315,26.625 C35.701,24.748 38,21.139 38,17.001 C38,10.936 33.065,6.001 27,6.001 C20.935,6.001 16,10.936 16,17.001 C16,21.14 18.3,24.75 21.688,26.627 C11.559,29.031 4,38.146 4,49 C4,49.553 4.448,50 5,50 C5.552,50 6,49.553 6,49 C6,37.421 15.42,28 27,28 C31.725,28 36.187,29.532 39.903,32.431 C40.339,32.771 40.968,32.694 41.307,32.258 L41.307,32.258 Z M18,17 C18,12.037 22.038,8 27,8 C31.962,8 36,12.037 36,17 C36,21.963 31.962,26 27,26 C22.038,26 18,21.963 18,17 L18,17 Z" id="Shape" fill="#000000"></path>
        <path d="M45,34 C37.832,34 32,39.832 32,47 C32,54.168 37.832,60 45,60 C52.168,60 58,54.168 58,47 C58,39.832 52.168,34 45,34 L45,34 Z M45,58 C38.935,58 34,53.065 34,47 C34,40.935 38.935,36 45,36 C51.065,36 56,40.935 56,47 C56,53.065 51.065,58 45,58 L45,58 Z" id="Shape" fill="#000000"></path>
        <path d="M51,46 L39,46 C38.448,46 38,46.447 38,47 C38,47.553 38.448,48 39,48 L51,48 C51.552,48 52,47.553 52,47 C52,46.447 51.552,46 51,46 L51,46 Z" id="Shape" fill="#000000"></path>
    </g>
</svg>