<?xml version="1.0" encoding="UTF-8" standalone="no"?>
<svg width="64px" height="64px" viewBox="0 0 64 64" version="1.1" xmlns="http://www.w3.org/2000/svg" xmlns:xlink="http://www.w3.org/1999/xlink">
    <!-- Generator: Sketch 3.7.2 (28276) - http://www.bohemiancoding.com/sketch -->
    <title>use-male-male-male</title>
    <desc>Created with Sketch.</desc>
    <defs></defs>
    <g id="64px-Line" stroke="none" stroke-width="1" fill="none" fill-rule="evenodd">
        <g id="use-male-male-male"></g>
        <path d="M50,49.604 C50,49.543 49.989,49.386 49.978,49.326 L49.524,46.849 C47.922,38.835 43.579,36.841 36.12,35.963 C35.341,35.875 34.576,36.318 34.266,37.044 C33.155,39.666 31.641,41.93 31,42.263 C30.36,41.928 28.847,39.663 27.734,37.042 C27.425,36.318 26.661,35.879 25.876,35.963 C18.283,36.857 14.136,38.775 12.539,46.776 L12.012,49.388 C12.008,49.427 11.999,49.563 11.999,49.602 C11.999,51.922 14.313,53.299 18.88,53.699 C20.43,55.234 24.487,55.97 30.904,55.999 L30.903,54.999 L31.094,55.999 L31.201,55.999 C37.574,55.999 41.576,55.226 43.118,53.699 C47.686,53.301 50,51.923 50,49.604 L50,49.604 Z M41.803,52.173 C41.227,53.018 38.103,54.001 31.197,54 L31.098,54 L30.903,54 L30.804,54 C23.898,54 20.774,53.018 20.198,52.173 C20.026,51.921 19.748,51.761 19.444,51.739 C16.066,51.494 14.037,50.708 14.001,49.633 L14.501,47.173 C15.753,40.898 18.226,38.901 25.956,37.969 C26.672,39.629 28.872,44.285 31.001,44.285 C33.135,44.285 35.333,39.627 36.048,37.969 C43.723,38.896 46.316,40.994 47.561,47.225 L48.001,49.617 C47.984,50.7 45.952,51.493 42.558,51.739 C42.252,51.761 41.975,51.921 41.803,52.173 L41.803,52.173 Z" id="Shape" fill="#000000"></path>
        <path d="M34.151,14.351 C34.684,14.499 35.235,14.187 35.382,13.655 C36.094,11.093 37.774,10 41,10 C44.914,10 46.7,11.711 46.965,15.842 C46.049,15.501 45.577,14.569 44.949,12.684 C44.831,12.331 44.528,12.073 44.16,12.013 C43.797,11.958 43.423,12.103 43.2,12.4 C42.131,13.825 40.626,14.797 38.598,15.372 C38.067,15.522 37.758,16.076 37.909,16.607 C38.059,17.138 38.612,17.448 39.144,17.296 C40.958,16.781 42.44,15.99 43.631,14.895 C44.322,16.485 45.464,17.999 47.998,18 C47.999,18.059 48,18.125 48,18.2 C48,19.095 47.657,20 47,20 C46.532,20 46.127,20.324 46.024,20.78 C45.391,23.586 44.255,25.219 42.549,25.773 C42.024,25.944 41.737,26.508 41.907,27.033 C42.044,27.455 42.436,27.724 42.858,27.724 C42.96,27.724 43.065,27.708 43.167,27.675 C45.414,26.945 46.975,24.995 47.813,21.875 C49.119,21.459 50,20.041 50,18.2 C50,17.454 49.962,16.8 49.5,16.358 C49.334,16.199 49.154,16.106 48.978,16.053 C48.711,10.637 46.095,8 41,8 C36.88,8 34.412,9.675 33.456,13.12 C33.308,13.652 33.619,14.204 34.151,14.351 L34.151,14.351 Z" id="Shape" fill="#000000"></path>
        <path d="M23.022,24.054 C22.845,24.107 22.666,24.2 22.5,24.359 C22.038,24.801 22,25.455 22,26.201 C22,28.111 22.852,29.495 24.189,29.888 C25.279,33.944 27.568,36 31,36 C34.434,36 36.724,33.94 37.814,29.875 C39.119,29.459 40,28.041 40,26.2 C40,25.454 39.962,24.8 39.5,24.358 C39.334,24.199 39.154,24.106 38.978,24.053 C38.711,18.637 36.095,16 31,16 C25.905,16 23.289,18.637 23.022,24.054 L23.022,24.054 Z M38,26.2 C38,27.095 37.657,28 37,28 C36.532,28 36.127,28.324 36.024,28.78 C34.969,33.459 32.652,34 31,34 C29.348,34 27.03,33.459 25.976,28.78 C25.873,28.324 25.468,28 25,28 C24.028,28 24,26.384 24,26.2 C24,26.125 24.001,26.058 24.002,26 C24.012,25.998 24.025,25.999 24.037,26 C26.896,25.91 30.819,25.467 33.63,22.892 C34.321,24.483 35.463,25.999 37.998,26 C37.999,26.059 38,26.125 38,26.2 L38,26.2 Z M31,18 C34.914,18 36.7,19.711 36.965,23.842 C36.049,23.501 35.577,22.569 34.949,20.684 C34.831,20.331 34.528,20.073 34.16,20.013 C33.792,19.956 33.423,20.103 33.2,20.4 C31.603,22.53 28.991,23.669 25.029,23.947 C25.271,19.74 27.053,18 31,18 L31,18 Z" id="Shape" fill="#000000"></path>
        <path d="M14.189,21.887 C15.03,25.012 16.597,26.96 18.853,27.683 C18.955,27.716 19.057,27.731 19.158,27.731 C19.581,27.731 19.974,27.46 20.11,27.036 C20.279,26.51 19.989,25.947 19.463,25.779 C17.751,25.23 16.61,23.595 15.976,20.781 C15.873,20.324 15.468,20 15,20 C14.028,20 14,18.384 14,18.2 C14,18.125 14.001,18.058 14.002,18 C14.014,17.999 14.025,18 14.037,18 C16.898,17.91 20.824,17.466 23.636,14.887 C23.695,15.022 23.756,15.156 23.819,15.285 C24.062,15.781 24.659,15.986 25.157,15.744 C25.653,15.501 25.859,14.902 25.616,14.406 C25.361,13.884 25.136,13.243 24.949,12.684 C24.831,12.331 24.528,12.073 24.16,12.013 C23.793,11.958 23.423,12.103 23.2,12.4 C21.603,14.53 18.991,15.669 15.029,15.947 C15.271,11.74 17.053,10 21,10 C24.176,10 25.908,11.13 26.616,13.664 C26.765,14.195 27.315,14.506 27.848,14.358 C28.38,14.209 28.691,13.658 28.542,13.126 C27.579,9.677 25.112,8 21,8 C15.905,8 13.289,10.637 13.022,16.054 C12.845,16.107 12.666,16.2 12.5,16.359 C12.038,16.801 12,17.455 12,18.201 C12,20.11 12.852,21.494 14.189,21.887 L14.189,21.887 Z" id="Shape" fill="#000000"></path>
        <path d="M8.877,43.7 C9.106,43.93 9.387,44.142 9.717,44.333 C9.875,44.424 10.047,44.467 10.217,44.467 C10.562,44.467 10.898,44.288 11.084,43.967 C11.36,43.489 11.197,42.877 10.719,42.601 C10.407,42.42 10.264,42.268 10.198,42.173 C10.026,41.921 9.748,41.76 9.444,41.738 C6.066,41.493 4.037,40.707 4.001,39.632 L4.492,37.21 C5.742,32.015 8.33,30.876 15.956,29.968 C16.611,31.483 17.737,33.643 18.853,34.961 C19.21,35.383 19.842,35.435 20.263,35.078 C20.684,34.721 20.737,34.09 20.38,33.668 C19.438,32.556 18.373,30.544 17.735,29.043 C17.426,28.319 16.662,27.876 15.877,27.964 C7.736,28.922 4.085,30.353 2.54,36.777 L2.013,39.389 C2.009,39.428 2,39.564 2,39.603 C2,41.923 4.313,43.3 8.877,43.7 L8.877,43.7 Z" id="Shape" fill="#000000"></path>
        <path d="M44.267,29.044 C43.623,30.565 42.547,32.594 41.596,33.7 C41.236,34.119 41.284,34.75 41.702,35.11 C42.121,35.469 42.751,35.423 43.112,35.004 C44.242,33.689 45.383,31.504 46.047,29.968 C53.73,30.883 56.332,32.032 57.56,37.224 L58,39.602 C58,40.692 55.965,41.491 52.557,41.737 C52.253,41.759 51.975,41.919 51.803,42.171 C51.733,42.274 51.577,42.436 51.232,42.628 C50.75,42.896 50.575,43.505 50.844,43.988 C51.027,44.317 51.367,44.502 51.719,44.502 C51.883,44.502 52.05,44.461 52.204,44.376 C52.568,44.173 52.876,43.947 53.123,43.698 C57.687,43.298 60.001,41.921 60.001,39.601 C60.001,39.54 59.99,39.383 59.979,39.323 L59.518,36.812 C57.995,30.369 54.322,28.925 46.121,27.96 C45.341,27.875 44.576,28.319 44.267,29.044 L44.267,29.044 Z" id="Shape" fill="#000000"></path>
    </g>
</svg>