<?xml version="1.0" encoding="UTF-8" standalone="no"?>
<svg width="64px" height="64px" viewBox="0 0 64 64" version="1.1" xmlns="http://www.w3.org/2000/svg" xmlns:xlink="http://www.w3.org/1999/xlink">
    <!-- Generator: Sketch 3.7.2 (28276) - http://www.bohemiancoding.com/sketch -->
    <title>use-male-warning</title>
    <desc>Created with Sketch.</desc>
    <defs></defs>
    <g id="64px-Line" stroke="none" stroke-width="1" fill="none" fill-rule="evenodd">
        <g id="use-male-warning"></g>
        <path d="M61.533,54.128 L50.252,35.671 C49.502,34.625 48.286,34 47,34 C45.713,34 44.497,34.625 43.707,35.733 L32.467,54.128 C32.445,54.166 32.424,54.205 32.405,54.246 C32.364,54.339 32,55.188 32,56 C32,58.206 33.794,60 36,60 L58,60 C60.206,60 62,58.206 62,56 C62,55.188 61.636,54.339 61.595,54.246 C61.576,54.205 61.556,54.166 61.533,54.128 L61.533,54.128 Z M58,58 L36,58 C34.897,58 34,57.103 34,56 C34,55.728 34.123,55.33 34.213,55.106 L45.373,36.836 C45.749,36.312 46.356,36 47,36 C47.644,36 48.251,36.313 48.586,36.776 L59.787,55.107 C59.867,55.306 60,55.719 60,56 C60,57.103 59.103,58 58,58 L58,58 Z" id="Shape" fill="#000000"></path>
        <path d="M47,40 C46.447,40 46,40.448 46,41 L46,49 C46,49.552 46.447,50 47,50 C47.553,50 48,49.552 48,49 L48,41 C48,40.448 47.553,40 47,40 L47,40 Z" id="Shape" fill="#000000"></path>
        <path d="M47.71,52.29 C47.66,52.25 47.609,52.2 47.55,52.17 C47.5,52.13 47.44,52.1 47.38,52.08 C47.319,52.05 47.26,52.03 47.19,52.02 C47.07,51.99 46.93,51.99 46.8,52.02 C46.74,52.03 46.68,52.05 46.62,52.08 C46.559,52.1 46.5,52.13 46.439,52.17 C46.389,52.2 46.339,52.25 46.29,52.29 C46.2,52.39 46.13,52.49 46.08,52.62 C46.019,52.74 46,52.87 46,53 C46,53.26 46.109,53.52 46.29,53.71 C46.34,53.75 46.39,53.79 46.439,53.83 C46.5,53.87 46.559,53.9 46.62,53.92 C46.68,53.95 46.74,53.97 46.8,53.98 C46.87,53.99 46.93,54 47,54 C47.06,54 47.13,53.99 47.189,53.98 C47.259,53.97 47.319,53.95 47.379,53.92 C47.439,53.9 47.499,53.87 47.549,53.83 C47.609,53.79 47.659,53.75 47.709,53.71 C47.889,53.52 47.999,53.26 47.999,53 C47.999,52.87 47.969,52.74 47.919,52.62 C47.87,52.49 47.8,52.39 47.71,52.29 L47.71,52.29 Z" id="Shape" fill="#000000"></path>
        <path d="M13.812,48.921 C16.556,51.77 26.05,52 29,52 C29.285,52 29.973,51.996 30.906,51.966 C31.458,51.948 31.891,51.487 31.873,50.935 C31.855,50.383 31.383,49.937 30.842,49.967 C29.939,49.996 29.275,50 29,50 C22.994,50 16.304,49.104 15.137,47.393 C14.965,47.141 14.687,46.981 14.383,46.959 C9.388,46.6 6.127,45.476 6.004,44.083 C7.724,35.703 13.468,33.423 22.792,32.327 C22.926,32.64 26.083,40 29,40 C31.925,40 35.077,32.639 35.209,32.325 C37.93,32.646 40.143,33.057 41.976,33.583 C42.502,33.734 43.06,33.429 43.212,32.897 C43.364,32.366 43.058,31.813 42.526,31.66 C40.562,31.097 38.311,30.676 35.437,30.338 C34.556,30.239 33.711,30.736 33.368,31.545 C31.833,35.167 29.688,37.915 29.009,38 C28.314,37.913 26.169,35.164 24.633,31.544 C24.291,30.736 23.443,30.243 22.559,30.338 C12.538,31.517 5.941,34.181 4.02,43.803 C4.007,43.867 4,43.933 4,43.999 C4,46.739 7.301,48.394 13.812,48.921 L13.812,48.921 Z" id="Shape" fill="#000000"></path>
        <path d="M29,4 C22.501,4 19.229,7.355 19.012,14.252 C18,14.884 18,16.58 18,18 C18,18.986 18,21.444 20.196,21.919 C21.554,26.994 24.807,30 29,30 C33.193,30 36.445,26.994 37.804,21.917 C40,21.425 40,18.892 40,18 C40,16.58 40,14.884 38.988,14.252 C38.771,7.355 35.499,4 29,4 L29,4 Z M29,6 C34.193,6 36.687,8.446 36.972,13.894 C35.507,13.548 34.827,12.319 33.949,9.684 C33.832,9.331 33.528,9.073 33.161,9.013 C32.789,8.954 32.424,9.103 32.201,9.4 C30.151,12.133 26.489,13.627 21.024,13.953 C21.284,8.392 23.713,6 29,6 L29,6 Z M37,20 C36.532,20 36.127,20.324 36.024,20.78 C35.535,22.951 33.87,28 29,28 C24.128,28 22.465,22.951 21.976,20.78 C21.873,20.324 21.468,20 21,20 C20.397,20 20,20 20,18 C20,17.46 20,16.391 20.127,15.997 C25.855,15.804 29.969,14.465 32.632,11.917 C33.571,14.229 34.883,15.952 37.874,15.999 C38,16.396 38,17.461 38,18 C38,20 37.515,20 37,20 L37,20 Z" id="Shape" fill="#000000"></path>
    </g>
</svg>