<?xml version="1.0" encoding="UTF-8" standalone="no"?>
<svg width="64px" height="64px" viewBox="0 0 64 64" version="1.1" xmlns="http://www.w3.org/2000/svg" xmlns:xlink="http://www.w3.org/1999/xlink">
    <!-- Generator: Sketch 3.7.2 (28276) - http://www.bohemiancoding.com/sketch -->
    <title>use-user-warning</title>
    <desc>Created with Sketch.</desc>
    <defs></defs>
    <g id="64px-Line" stroke="none" stroke-width="1" fill="none" fill-rule="evenodd">
        <g id="use-user-warning"></g>
        <path d="M59.533,52.128 L48.252,33.671 C47.502,32.625 46.286,32 45,32 C43.713,32 42.497,32.625 41.707,33.733 L30.467,52.128 C30.445,52.166 30.424,52.205 30.405,52.245 C30.364,52.34 30,53.188 30,54 C30,56.206 31.794,58 34,58 L56,58 C58.206,58 60,56.206 60,54 C60,53.188 59.636,52.34 59.595,52.245 C59.576,52.205 59.556,52.166 59.533,52.128 L59.533,52.128 Z M56,56 L34,56 C32.897,56 32,55.103 32,54 C32,53.728 32.123,53.33 32.213,53.106 L43.373,34.836 C43.749,34.312 44.356,33.999 45,33.999 C45.644,33.999 46.251,34.311 46.586,34.775 L57.787,53.105 C57.867,53.304 58,53.717 58,53.999 C58,55.103 57.103,56 56,56 L56,56 Z" id="Shape" fill="#000000"></path>
        <path d="M45,38 C44.447,38 44,38.447 44,39 L44,47 C44,47.553 44.447,48 45,48 C45.553,48 46,47.553 46,47 L46,39 C46,38.447 45.553,38 45,38 L45,38 Z" id="Shape" fill="#000000"></path>
        <path d="M45.71,50.29 C45.66,50.25 45.609,50.2 45.56,50.17 C45.5,50.13 45.44,50.1 45.38,50.08 C45.319,50.05 45.26,50.03 45.2,50.019 C45.069,49.99 44.929,49.99 44.8,50.019 C44.74,50.03 44.68,50.049 44.62,50.08 C44.559,50.1 44.5,50.13 44.439,50.17 C44.389,50.2 44.339,50.25 44.29,50.29 C44.2,50.39 44.13,50.5 44.08,50.62 C44.019,50.74 44,50.87 44,51 C44,51.27 44.1,51.52 44.29,51.71 C44.39,51.8 44.5,51.87 44.62,51.92 C44.74,51.97 44.87,52 45,52 C45.27,52 45.52,51.899 45.71,51.71 C45.899,51.52 46,51.27 46,51 C46,50.87 45.97,50.74 45.92,50.62 C45.87,50.5 45.8,50.39 45.71,50.29 L45.71,50.29 Z" id="Shape" fill="#000000"></path>
        <path d="M38.472,31.578 C38.79,31.126 38.682,30.503 38.231,30.184 C35.821,28.486 33.145,27.287 30.322,26.619 C33.704,24.741 36,21.134 36,16.999 C36,10.934 31.065,5.999 25,5.999 C18.935,5.999 14,10.934 14,16.999 C14,21.138 16.3,24.748 19.688,26.625 C9.559,29.031 2,38.146 2,49 C2,49.553 2.447,50 3,50 C3.553,50 4,49.553 4,49 C4,37.421 13.421,28 25,28 C29.354,28 33.531,29.32 37.078,31.819 C37.532,32.137 38.153,32.029 38.472,31.578 L38.472,31.578 Z M16,17 C16,12.037 20.037,8 25,8 C29.963,8 34,12.037 34,17 C34,21.963 29.963,26 25,26 C20.037,26 16,21.963 16,17 L16,17 Z" id="Shape" fill="#000000"></path>
    </g>
</svg>