<?xml version="1.0" encoding="UTF-8" standalone="no"?>
<svg width="44px" height="44px" viewBox="0 0 44 44" version="1.1" xmlns="http://www.w3.org/2000/svg" xmlns:xlink="http://www.w3.org/1999/xlink">
    <!-- Generator: Sketch 3.7.2 (28276) - http://www.bohemiancoding.com/sketch -->
    <title>use-user-connect</title>
    <desc>Created with Sketch.</desc>
    <defs></defs>
    <g id="44px-Glyph" stroke="none" stroke-width="1" fill="none" fill-rule="evenodd">
        <g id="use-user-connect" fill="#000000">
            <path d="M26.7393,17.3271 C26.3673,16.9191 25.7353,16.8901 25.3273,17.2611 L21.0003,21.1991 L16.6733,17.2611 C16.2653,16.8901 15.6323,16.9191 15.2603,17.3271 C14.8883,17.7351 14.9183,18.3681 15.3273,18.7391 L20.0003,22.9931 L20.0003,27.0001 C20.0003,27.5531 20.4473,28.0001 21.0003,28.0001 C21.5523,28.0001 22.0003,27.5531 22.0003,27.0001 L22.0003,22.9931 L26.6733,18.7391 C27.0823,18.3681 27.1113,17.7351 26.7393,17.3271" id="Fill-89"></path>
            <path d="M9.9597,8.6658 C10.5997,7.9568 10.9997,7.0268 10.9997,5.9988 C10.9997,3.7938 9.2047,1.9998 6.9987,1.9998 C4.7937,1.9998 2.9997,3.7938 2.9997,5.9988 C2.9997,7.0268 3.4007,7.9568 4.0397,8.6658 C1.6577,9.7838 -0.0003,12.1998 -0.0003,14.9998 C-0.0003,15.5528 0.4477,15.9998 0.9997,15.9998 L12.9997,15.9998 C13.5527,15.9998 13.9997,15.5528 13.9997,14.9998 C13.9997,12.1988 12.3427,9.7838 9.9597,8.6658" id="Fill-91"></path>
            <path d="M37.9597,8.6658 C38.5997,7.9568 38.9997,7.0268 38.9997,5.9988 C38.9997,3.7938 37.2047,1.9998 34.9987,1.9998 C32.7937,1.9998 30.9997,3.7938 30.9997,5.9988 C30.9997,7.0268 31.4007,7.9568 32.0397,8.6658 C29.6577,9.7838 27.9997,12.1998 27.9997,14.9998 C27.9997,15.5528 28.4477,15.9998 28.9997,15.9998 L40.9997,15.9998 C41.5527,15.9998 41.9997,15.5528 41.9997,14.9998 C41.9997,12.1988 40.3427,9.7838 37.9597,8.6658" id="Fill-93"></path>
            <path d="M23.9597,36.6658 C24.5997,35.9558 24.9997,35.0268 24.9997,33.9988 C24.9997,31.7938 23.2047,29.9998 20.9987,29.9998 C18.7937,29.9998 16.9997,31.7938 16.9997,33.9988 C16.9997,35.0268 17.4007,35.9568 18.0397,36.6658 C15.6577,37.7838 13.9997,40.1998 13.9997,42.9998 C13.9997,43.5528 14.4477,43.9998 14.9997,43.9998 L26.9997,43.9998 C27.5527,43.9998 27.9997,43.5528 27.9997,42.9998 C27.9997,40.1988 26.3427,37.7838 23.9597,36.6658" id="Fill-95"></path>
        </g>
    </g>
</svg>