<?xml version="1.0" encoding="UTF-8" standalone="no"?>
<svg width="64px" height="64px" viewBox="0 0 64 64" version="1.1" xmlns="http://www.w3.org/2000/svg" xmlns:xlink="http://www.w3.org/1999/xlink">
    <!-- Generator: Sketch 3.7.2 (28276) - http://www.bohemiancoding.com/sketch -->
    <title>use-user-reply</title>
    <desc>Created with Sketch.</desc>
    <defs></defs>
    <g id="64px-Line" stroke="none" stroke-width="1" fill="none" fill-rule="evenodd">
        <g id="use-user-reply"></g>
        <path d="M41,18.002 C42.654,18.002 44,16.656 44,15.002 C44,13.348 42.654,12.002 41,12.002 C39.346,12.002 38,13.348 38,15.002 C38,16.656 39.346,18.002 41,18.002 L41,18.002 Z M41,14.002 C41.552,14.002 42,14.45 42,15.002 C42,15.554 41.552,16.002 41,16.002 C40.448,16.002 40,15.554 40,15.002 C40,14.45 40.448,14.002 41,14.002 L41,14.002 Z" id="Shape" fill="#000000"></path>
        <path d="M49,18.002 C50.654,18.002 52,16.656 52,15.002 C52,13.348 50.654,12.002 49,12.002 C47.346,12.002 46,13.348 46,15.002 C46,16.656 47.346,18.002 49,18.002 L49,18.002 Z M49,14.002 C49.552,14.002 50,14.45 50,15.002 C50,15.554 49.552,16.002 49,16.002 C48.448,16.002 48,15.554 48,15.002 C48,14.45 48.448,14.002 49,14.002 L49,14.002 Z" id="Shape" fill="#000000"></path>
        <path d="M36,15.002 C36,13.348 34.654,12.002 33,12.002 C31.346,12.002 30,13.348 30,15.002 C30,16.656 31.346,18.002 33,18.002 C34.654,18.002 36,16.656 36,15.002 L36,15.002 Z M32,15.002 C32,14.45 32.448,14.002 33,14.002 C33.552,14.002 34,14.45 34,15.002 C34,15.554 33.552,16.002 33,16.002 C32.448,16.002 32,15.554 32,15.002 L32,15.002 Z" id="Shape" fill="#000000"></path>
        <path d="M32.582,31.908 C32.716,31.97 32.858,32 33,32 C33.234,32 33.466,31.918 33.65,31.759 L40.37,26 L54,26 C56.206,26 58,24.206 58,22 L58,8 C58,5.794 56.206,4 54,4 L28,4 C25.794,4 24,5.794 24,8 L24,22 C24,24.206 25.794,26 28,26 L32,26 L32,31 C32,31.391 32.228,31.745 32.582,31.908 L32.582,31.908 Z M28,24 C26.897,24 26,23.103 26,22 L26,8 C26,6.897 26.897,6 28,6 L54,6 C55.103,6 56,6.897 56,8 L56,22 C56,23.103 55.103,24 54,24 L40,24 C39.762,24 39.53,24.085 39.35,24.241 L34,28.826 L34,25 C34,24.447 33.553,24 33,24 L28,24 L28,24 Z" id="Shape" fill="#000000"></path>
        <path d="M5,58 C5.553,58 6,57.553 6,57 C6,46.523 14.523,38 25,38 C35.477,38 44,46.523 44,57 C44,57.553 44.447,58 45,58 C45.553,58 46,57.553 46,57 C46,47.225 39.276,39.012 30.217,36.683 C30.69,36.427 31.149,36.139 31.587,35.811 C32.029,35.48 32.119,34.853 31.788,34.411 C31.456,33.971 30.831,33.88 30.388,34.21 C28.825,35.381 26.961,36 25,36 C20.037,36 16,31.963 16,27 C16,23.422 18.119,20.184 21.398,18.75 C21.904,18.529 22.135,17.939 21.914,17.434 C21.694,16.929 21.106,16.695 20.598,16.918 C16.59,18.669 14,22.626 14,27 C14,31.179 16.344,34.821 19.785,36.682 C10.725,39.01 4,47.224 4,57 C4,57.553 4.447,58 5,58 L5,58 Z" id="Shape" fill="#000000"></path>
    </g>
</svg>