<?xml version="1.0" encoding="UTF-8" standalone="no"?>
<svg width="64px" height="64px" viewBox="0 0 64 64" version="1.1" xmlns="http://www.w3.org/2000/svg" xmlns:xlink="http://www.w3.org/1999/xlink">
    <!-- Generator: Sketch 3.7.2 (28276) - http://www.bohemiancoding.com/sketch -->
    <title>use-male-location</title>
    <desc>Created with Sketch.</desc>
    <defs></defs>
    <g id="64px-Line" stroke="none" stroke-width="1" fill="none" fill-rule="evenodd">
        <g id="use-male-location"></g>
        <path d="M51,37 C48.794,37 47,38.794 47,41 C47,43.206 48.794,45 51,45 C53.206,45 55,43.206 55,41 C55,38.794 53.206,37 51,37 L51,37 Z M51,43 C49.897,43 49,42.103 49,41 C49,39.897 49.897,39 51,39 C52.103,39 53,39.897 53,41 C53,42.103 52.103,43 51,43 L51,43 Z" id="Shape" fill="#000000"></path>
        <path d="M51,32 C46.037,32 42,36.038 42,41 C42,42.393 42.31,43.729 42.923,44.974 L50.105,59.445 C50.274,59.785 50.621,60.001 51.001,60.001 C51.381,60.001 51.728,59.786 51.897,59.445 L59.081,44.971 C59.69,43.729 60,42.393 60,41 C60,36.038 55.963,32 51,32 L51,32 Z M57.286,44.085 L51,56.75 L44.716,44.087 C44.241,43.123 44,42.084 44,41 C44,37.14 47.141,34 51,34 C54.859,34 58,37.14 58,41 C58,42.084 57.759,43.123 57.286,44.085 L57.286,44.085 Z" id="Shape" fill="#000000"></path>
        <path d="M29,4 C22.501,4 19.229,7.355 19.012,14.252 C18,14.884 18,16.58 18,18 C18,18.986 18,21.444 20.196,21.919 C21.554,26.994 24.807,30 29,30 C33.193,30 36.445,26.994 37.804,21.917 C40,21.425 40,18.892 40,18 C40,16.58 40,14.884 38.988,14.252 C38.771,7.355 35.499,4 29,4 L29,4 Z M29,6 C34.193,6 36.687,8.446 36.972,13.894 C35.507,13.548 34.827,12.319 33.949,9.684 C33.832,9.331 33.528,9.073 33.161,9.013 C32.789,8.954 32.424,9.103 32.201,9.4 C30.151,12.133 26.489,13.627 21.024,13.953 C21.284,8.392 23.713,6 29,6 L29,6 Z M37,20 C36.532,20 36.127,20.324 36.024,20.78 C35.535,22.951 33.87,28 29,28 C24.128,28 22.465,22.951 21.976,20.78 C21.873,20.324 21.468,20 21,20 C20.397,20 20,20 20,18 C20,17.46 20,16.392 20.127,15.997 C25.856,15.804 29.969,14.465 32.632,11.917 C33.571,14.229 34.883,15.952 37.874,15.999 C38,16.396 38,17.461 38,18 C38,20 37.515,20 37,20 L37,20 Z" id="Shape" fill="#000000"></path>
        <path d="M13.812,48.921 C16.556,51.77 26.05,52 29,52 C30.492,52 38.14,51.915 42.161,50.227 C42.671,50.014 42.91,49.427 42.696,48.918 C42.483,48.408 41.893,48.171 41.387,48.383 C37.642,49.955 29.873,50 29,50 C22.994,50 16.304,49.104 15.137,47.393 C14.965,47.141 14.687,46.981 14.383,46.959 C9.388,46.6 6.127,45.476 6.004,44.083 C7.724,35.703 13.468,33.423 22.792,32.327 C22.926,32.64 26.083,40 29,40 C31.925,40 35.077,32.639 35.209,32.325 C37.973,32.65 40.222,33.072 42.085,33.615 C42.62,33.77 43.171,33.464 43.325,32.935 C43.479,32.405 43.176,31.85 42.645,31.695 C40.673,31.12 38.318,30.676 35.437,30.338 C34.558,30.239 33.711,30.736 33.368,31.545 C31.833,35.167 29.688,37.915 29.009,38 C28.314,37.913 26.169,35.164 24.633,31.544 C24.291,30.736 23.442,30.243 22.559,30.338 C12.538,31.517 5.941,34.181 4.02,43.803 C4.007,43.867 4,43.933 4,43.999 C4,46.739 7.301,48.394 13.812,48.921 L13.812,48.921 Z" id="Shape" fill="#000000"></path>
    </g>
</svg>