<?xml version="1.0" encoding="UTF-8" standalone="no"?>
<svg width="64px" height="64px" viewBox="0 0 64 64" version="1.1" xmlns="http://www.w3.org/2000/svg" xmlns:xlink="http://www.w3.org/1999/xlink">
    <!-- Generator: Sketch 3.7.2 (28276) - http://www.bohemiancoding.com/sketch -->
    <title>veg-rasberry</title>
    <desc>Created with Sketch.</desc>
    <defs></defs>
    <g id="64px-Line" stroke="none" stroke-width="1" fill="none" fill-rule="evenodd">
        <g id="veg-rasberry"></g>
        <path d="M14.149,45.703 C14.056,46.125 14,46.559 14,47 C14,50.309 16.691,53 20,53 C20.03,53 20.059,52.992 20.089,52.992 C20.564,55.829 23.03,58 26,58 C26.755,58 27.496,57.85 28.191,57.577 C29.312,59.088 31.077,60 33,60 C34.923,60 36.688,59.088 37.809,57.577 C38.504,57.85 39.245,58 40,58 C42.97,58 45.436,55.829 45.911,52.992 C45.941,52.992 45.97,53 46,53 C49.309,53 52,50.309 52,47 C52,46.559 51.944,46.125 51.851,45.703 C54.281,44.918 56,42.646 56,40 C56,38.493 55.446,37.089 54.463,35.999 C55.419,34.931 56,33.53 56,32 C56,29.232 54.114,26.903 51.561,26.213 C51.84,25.514 52,24.772 52,24 C52,20.691 49.309,18 46,18 C44.959,18 43.951,18.282 43.058,18.786 C41.992,17.114 40.126,16 38,16 C36.642,16 35.392,16.459 34.385,17.222 C35.589,10.071 39.276,7.986 39.457,7.889 C39.948,7.637 40.142,7.034 39.89,6.542 C39.637,6.05 39.036,5.856 38.543,6.109 C38.309,6.23 33.468,8.828 32.268,17.788 C31.179,16.686 29.669,16 28,16 C25.874,16 24.008,17.114 22.942,18.786 C22.049,18.282 21.041,18 20,18 C16.691,18 14,20.691 14,24 C14,24.771 14.161,25.514 14.439,26.213 C11.886,26.903 10,29.232 10,32 C10,33.53 10.581,34.931 11.537,35.999 C10.554,37.089 10,38.493 10,40 C10,42.646 11.719,44.918 14.149,45.703 L14.149,45.703 Z M14.976,37.913 C15.034,37.923 15.091,37.928 15.147,37.928 C15.625,37.928 16.047,37.585 16.131,37.097 C16.225,36.553 15.86,36.036 15.316,35.942 C13.395,35.611 12,33.953 12,32 C12,29.794 13.794,28 16,28 C16.658,28 17.285,28.155 17.864,28.459 C18.352,28.715 18.958,28.529 19.215,28.04 C19.473,27.552 19.285,26.947 18.796,26.689 C18.107,26.326 17.346,26.108 16.569,26.034 C16.203,25.42 16,24.728 16,24 C16,21.794 17.794,20 20,20 C20.773,20 21.518,20.23 22.16,20.644 C22.059,21.081 22,21.533 22,22 C22,22.552 22.447,23 23,23 C23.553,23 24,22.552 24,22 C24,19.794 25.794,18 28,18 C30.206,18 32,19.794 32,22 C32,22.552 32.447,23 33,23 C33.553,23 34,22.552 34,22 C34,19.794 35.794,18 38,18 C40.206,18 42,19.794 42,22 C42,22.552 42.447,23 43,23 C43.553,23 44,22.552 44,22 C44,21.533 43.941,21.081 43.84,20.644 C44.482,20.23 45.228,20 46,20 C48.206,20 50,21.794 50,24 C50,24.728 49.797,25.42 49.431,26.035 C48.654,26.109 47.893,26.327 47.204,26.69 C46.715,26.947 46.527,27.552 46.785,28.041 C47.042,28.53 47.648,28.716 48.136,28.46 C48.715,28.155 49.342,28.001 50,28.001 C52.206,28.001 54,29.795 54,32.001 C54,33.954 52.605,35.612 50.685,35.943 C50.141,36.037 49.776,36.554 49.87,37.098 C49.954,37.585 50.376,37.929 50.854,37.929 C50.91,37.929 50.967,37.925 51.025,37.914 C51.694,37.799 52.314,37.567 52.881,37.257 C53.588,37.995 54,38.956 54,40.001 C54,41.817 52.785,43.365 51.089,43.843 C50.656,43.146 50.088,42.529 49.39,42.051 C48.936,41.739 48.313,41.854 48,42.31 C47.688,42.765 47.803,43.388 48.259,43.7 C49.349,44.448 49.999,45.681 49.999,47.001 C49.999,49.207 48.205,51.001 45.999,51.001 C45.034,51.001 44.103,50.653 43.376,50.021 C42.96,49.658 42.329,49.702 41.965,50.119 C41.603,50.536 41.647,51.167 42.064,51.53 C42.619,52.013 43.255,52.383 43.936,52.632 C43.631,54.537 41.99,56.002 40,56.002 C39.561,56.002 39.13,55.922 38.719,55.783 C38.898,55.208 39,54.608 39,54.002 C39,53.45 38.553,53.002 38,53.002 C37.447,53.002 37,53.45 37,54.002 C37,54.65 36.851,55.268 36.555,55.838 C35.863,57.171 34.501,58 33,58 C31.499,58 30.137,57.171 29.445,55.836 C29.149,55.266 29,54.648 29,54 C29,53.448 28.553,53 28,53 C27.447,53 27,53.448 27,54 C27,54.605 27.102,55.206 27.281,55.781 C26.87,55.92 26.439,56 26,56 C24.026,56 22.392,54.56 22.069,52.629 C22.748,52.38 23.381,52.011 23.935,51.529 C24.352,51.167 24.396,50.535 24.034,50.118 C23.67,49.701 23.039,49.657 22.623,50.02 C21.896,50.652 20.965,51 20,51 C17.794,51 16,49.206 16,47 C16,45.68 16.65,44.446 17.74,43.699 C18.196,43.387 18.311,42.764 17.999,42.309 C17.687,41.854 17.065,41.737 16.609,42.05 C15.912,42.529 15.343,43.145 14.91,43.842 C13.215,43.364 12,41.816 12,40 C12,38.955 12.413,37.994 13.119,37.256 C13.687,37.565 14.307,37.797 14.976,37.913 L14.976,37.913 Z" id="Shape" fill="#000000"></path>
        <path d="M33,54 C33.553,54 34,53.552 34,53 L34,51 C34,50.448 33.553,50 33,50 C32.447,50 32,50.448 32,51 L32,53 C32,53.552 32.447,54 33,54 L33,54 Z" id="Shape" fill="#000000"></path>
        <path d="M33,38 C33.553,38 34,37.552 34,37 L34,35 C34,34.448 33.553,34 33,34 C32.447,34 32,34.448 32,35 L32,37 C32,37.552 32.447,38 33,38 L33,38 Z" id="Shape" fill="#000000"></path>
        <path d="M27,46 C27.553,46 28,45.552 28,45 L28,43 C28,42.448 27.553,42 27,42 C26.447,42 26,42.448 26,43 L26,45 C26,45.552 26.447,46 27,46 L27,46 Z" id="Shape" fill="#000000"></path>
        <path d="M39,46 C39.553,46 40,45.552 40,45 L40,43 C40,42.448 39.553,42 39,42 C38.447,42 38,42.448 38,43 L38,45 C38,45.552 38.447,46 39,46 L39,46 Z" id="Shape" fill="#000000"></path>
        <path d="M27,30 C27.553,30 28,29.552 28,29 L28,27 C28,26.448 27.553,26 27,26 C26.447,26 26,26.448 26,27 L26,29 C26,29.552 26.447,30 27,30 L27,30 Z" id="Shape" fill="#000000"></path>
        <path d="M39,30 C39.553,30 40,29.552 40,29 L40,27 C40,26.448 39.553,26 39,26 C38.447,26 38,26.448 38,27 L38,29 C38,29.552 38.447,30 39,30 L39,30 Z" id="Shape" fill="#000000"></path>
        <path d="M45,38 C45.553,38 46,37.552 46,37 L46,35 C46,34.448 45.553,34 45,34 C44.447,34 44,34.448 44,35 L44,37 C44,37.552 44.447,38 45,38 L45,38 Z" id="Shape" fill="#000000"></path>
        <path d="M21,38 C21.553,38 22,37.552 22,37 L22,35 C22,34.448 21.553,34 21,34 C20.447,34 20,34.448 20,35 L20,37 C20,37.552 20.447,38 21,38 L21,38 Z" id="Shape" fill="#000000"></path>
    </g>
</svg>