<?xml version="1.0" encoding="UTF-8" standalone="no"?>
<svg width="64px" height="64px" viewBox="0 0 64 64" version="1.1" xmlns="http://www.w3.org/2000/svg" xmlns:xlink="http://www.w3.org/1999/xlink">
    <!-- Generator: Sketch 3.7.2 (28276) - http://www.bohemiancoding.com/sketch -->
    <title>veg-watermellon-slice</title>
    <desc>Created with Sketch.</desc>
    <defs></defs>
    <g id="64px-Line" stroke="none" stroke-width="1" fill="none" fill-rule="evenodd">
        <g id="veg-watermellon-slice"></g>
        <path d="M18.722,45.278 C25.806,52.361 34.644,57.441 44.28,59.967 C44.365,59.99 44.45,60 44.534,60 C44.977,60 45.383,59.703 45.501,59.254 L57.828,12.413 C58.295,10.636 57.799,8.8 56.5,7.5 C55.201,6.201 53.366,5.704 51.587,6.172 L4.746,18.499 C4.212,18.64 3.893,19.186 4.033,19.72 C6.559,29.356 11.639,38.194 18.722,45.278 L18.722,45.278 Z M52.096,8.107 C53.178,7.823 54.295,8.125 55.085,8.915 C55.875,9.705 56.178,10.823 55.893,11.904 L45.398,51.786 C37.531,49.546 30.317,45.328 24.494,39.506 C18.671,33.683 14.454,26.468 12.214,18.602 L52.096,8.107 L52.096,8.107 Z M10.281,19.111 C12.611,27.319 17.008,34.847 23.081,40.92 C29.153,46.992 36.681,51.39 44.89,53.72 L43.824,57.771 C34.906,55.254 26.734,50.46 20.137,43.864 C13.54,37.267 8.746,29.094 6.232,20.176 L10.281,19.111 L10.281,19.111 Z" id="Shape" fill="#000000"></path>
        <path d="M27.439,35.147 C27.048,35.538 27.048,36.17 27.439,36.561 C27.634,36.756 27.89,36.854 28.146,36.854 C28.402,36.854 28.658,36.756 28.853,36.561 L31.758,33.656 C32.149,33.265 32.149,32.633 31.758,32.242 C31.367,31.851 30.735,31.851 30.344,32.242 L27.439,35.147 L27.439,35.147 Z" id="Shape" fill="#000000"></path>
        <path d="M38.315,26.685 C38.571,26.685 38.827,26.587 39.022,26.392 L41.927,23.487 C42.318,23.096 42.318,22.464 41.927,22.073 C41.536,21.682 40.904,21.682 40.513,22.073 L37.608,24.978 C37.217,25.369 37.217,26.001 37.608,26.392 C37.803,26.587 38.059,26.685 38.315,26.685 L38.315,26.685 Z" id="Shape" fill="#000000"></path>
        <path d="M25.968,25.958 C26.143,25.958 26.321,25.912 26.482,25.815 L30.114,23.636 C30.587,23.352 30.741,22.738 30.457,22.264 C30.173,21.791 29.559,21.636 29.085,21.921 L25.453,24.1 C24.98,24.384 24.826,24.998 25.11,25.472 C25.297,25.786 25.628,25.958 25.968,25.958 L25.968,25.958 Z" id="Shape" fill="#000000"></path>
        <path d="M42.674,16.516 C42.849,16.516 43.027,16.47 43.188,16.373 L46.819,14.194 C47.293,13.91 47.446,13.296 47.162,12.822 C46.877,12.348 46.264,12.195 45.79,12.479 L42.159,14.658 C41.685,14.942 41.532,15.556 41.816,16.03 C42.003,16.343 42.334,16.516 42.674,16.516 L42.674,16.516 Z" id="Shape" fill="#000000"></path>
        <path d="M41.735,33.544 C41.261,33.259 40.647,33.413 40.363,33.887 L38.184,37.519 C37.9,37.993 38.054,38.607 38.527,38.891 C38.688,38.988 38.865,39.034 39.041,39.034 C39.381,39.034 39.712,38.861 39.899,38.549 L42.078,34.917 C42.362,34.442 42.208,33.828 41.735,33.544 L41.735,33.544 Z" id="Shape" fill="#000000"></path>
        <path d="M47.969,22.184 C48.13,22.281 48.307,22.327 48.483,22.327 C48.823,22.327 49.154,22.154 49.341,21.842 L51.52,18.211 C51.804,17.737 51.651,17.123 51.177,16.839 C50.703,16.554 50.089,16.708 49.805,17.182 L47.626,20.813 C47.342,21.286 47.496,21.9 47.969,22.184 L47.969,22.184 Z" id="Shape" fill="#000000"></path>
    </g>
</svg>