<?xml version="1.0" encoding="UTF-8" standalone="no"?>
<svg width="64px" height="64px" viewBox="0 0 64 64" version="1.1" xmlns="http://www.w3.org/2000/svg" xmlns:xlink="http://www.w3.org/1999/xlink">
    <!-- Generator: Sketch 3.7.2 (28276) - http://www.bohemiancoding.com/sketch -->
    <title>veg-corn</title>
    <desc>Created with Sketch.</desc>
    <defs></defs>
    <g id="64px-Line" stroke="none" stroke-width="1" fill="none" fill-rule="evenodd">
        <g id="veg-corn"></g>
        <path d="M50.017,6 C50.016,6 50.017,6 50.017,6 C47.905,6 45.486,6.53 42.889,7.493 C42.861,7.502 42.834,7.511 42.807,7.523 C38.248,9.226 33.13,12.299 28.063,16.395 C28.052,16.405 28.038,16.408 28.027,16.419 C28.024,16.422 28.023,16.427 28.02,16.43 C25.972,18.087 23.936,19.906 21.949,21.872 C21.938,21.882 21.924,21.885 21.913,21.895 C21.904,21.904 21.901,21.916 21.892,21.926 C21.778,22.039 21.663,22.146 21.55,22.259 C20.232,23.579 18.976,24.951 17.765,26.338 C16.869,24.614 15.84,23.095 14.644,21.897 C8.441,15.68 4.746,18.816 4.59,18.953 C4.383,19.136 4.262,19.395 4.253,19.671 C4.244,19.947 4.35,20.213 4.545,20.408 C11.389,27.267 8.739,32.771 6.176,38.095 L5.712,39.065 C2.853,45.102 3.612,52.836 7.44,56.672 C9.638,58.875 12.76,59.999 16.518,59.999 C18.453,59.999 20.557,59.701 22.79,59.099 C22.798,59.097 22.805,59.091 22.813,59.088 C22.82,59.086 22.826,59.088 22.832,59.086 C23.061,59.013 23.291,58.955 23.52,58.897 C24.003,58.774 24.503,58.647 25.014,58.405 L25.983,57.938 C31.293,55.373 36.781,52.716 43.622,59.573 C43.81,59.761 44.065,59.867 44.33,59.867 L44.361,59.867 C44.637,59.858 44.898,59.735 45.08,59.528 C45.216,59.373 48.342,55.671 42.143,49.459 C40.994,48.307 39.515,47.26 37.715,46.32 C39.096,45.109 40.463,43.851 41.781,42.53 C41.898,42.413 42.01,42.295 42.126,42.177 C42.13,42.173 42.136,42.172 42.141,42.167 C42.146,42.162 42.147,42.155 42.152,42.15 C55.473,28.636 61.51,13.747 55.892,8.117 C54.489,6.712 52.513,6 50.017,6 L50.017,6 Z M55.146,18.976 L53.066,16.891 C54.264,15.121 55.224,13.47 55.803,12.057 C56.236,13.902 55.989,16.272 55.146,18.976 L55.146,18.976 Z M51.502,26.927 L48.059,23.477 C49.42,21.831 50.732,20.163 51.9,18.554 L54.404,21.063 C53.668,22.918 52.696,24.889 51.502,26.927 L51.502,26.927 Z M46.802,33.82 L42.668,29.676 C43.982,28.229 45.382,26.649 46.771,25.015 L50.428,28.68 C49.353,30.371 48.142,32.093 46.802,33.82 L46.802,33.82 Z M41.422,40.033 L37.048,35.65 C38.009,34.665 39.528,33.085 41.314,31.153 L45.545,35.394 C44.268,36.951 42.891,38.505 41.422,40.033 L41.422,40.033 Z M26.836,42.681 C25.393,42.373 23.859,42.098 22.251,41.849 C22.015,40.321 21.736,38.767 21.406,37.224 C21.847,36.733 22.291,36.242 22.744,35.748 L28.316,41.333 C27.821,41.79 27.328,42.237 26.836,42.681 L26.836,42.681 Z M29.73,42.75 L30.58,43.602 C30.13,43.476 29.669,43.353 29.198,43.235 C29.376,43.072 29.552,42.915 29.73,42.75 L29.73,42.75 Z M20.484,33.483 L21.33,34.331 C21.168,34.508 21.012,34.683 20.851,34.859 C20.734,34.397 20.612,33.938 20.484,33.483 L20.484,33.483 Z M24.107,34.283 C25.496,32.8 26.932,31.31 28.41,29.823 L34.229,35.655 C32.743,37.137 31.257,38.576 29.778,39.967 L24.107,34.283 L24.107,34.283 Z M28.673,18.482 L32.886,22.704 C31.366,24.119 29.864,25.559 28.412,26.994 L24.047,22.619 C25.564,21.154 27.112,19.769 28.673,18.482 L28.673,18.482 Z M35.368,13.587 L39.014,17.242 C37.478,18.546 35.915,19.928 34.358,21.348 L30.24,17.221 C31.956,15.882 33.674,14.668 35.368,13.587 L35.368,13.587 Z M42.973,9.605 L45.474,12.112 C43.919,13.244 42.262,14.543 40.554,15.953 L37.12,12.512 C39.144,11.321 41.111,10.344 42.973,9.605 L42.973,9.605 Z M54.461,9.541 C54.651,10.222 53.722,12.285 51.613,15.435 L48.594,12.409 C51.735,10.298 53.79,9.363 54.461,9.541 L54.461,9.541 Z M50.455,17.104 C49.402,18.576 48.134,20.232 46.646,22.059 L41.981,17.383 C43.805,15.892 45.458,14.624 46.928,13.569 L50.455,17.104 L50.455,17.104 Z M45.366,23.609 C44.135,25.073 42.769,26.636 41.275,28.281 L35.768,22.762 C37.411,21.265 38.97,19.896 40.432,18.664 L45.366,23.609 L45.366,23.609 Z M29.829,28.414 C31.373,26.887 32.867,25.45 34.296,24.118 L39.921,29.756 C38.592,31.189 37.157,32.686 35.634,34.233 L29.829,28.414 L29.829,28.414 Z M50.017,8 C50.691,8 51.291,8.084 51.856,8.208 C50.515,8.79 48.913,9.731 47.132,10.944 L45.062,8.869 C46.863,8.312 48.539,8 50.017,8 L50.017,8 Z M22.625,24.025 L26.997,28.407 C25.52,29.893 24.084,31.383 22.694,32.866 L19.072,29.236 C18.949,28.923 18.825,28.611 18.695,28.306 C19.94,26.851 21.255,25.416 22.625,24.025 L22.625,24.025 Z M8.854,55.259 C5.638,52.035 5.039,45.155 7.518,39.919 L7.977,38.961 C10.455,33.815 13.51,27.469 6.968,20.067 C8.123,19.905 10.207,20.283 13.227,23.308 C14.898,24.982 16.23,27.388 17.296,30.16 C17.3,30.17 17.303,30.181 17.307,30.191 C21.006,39.838 21.463,53.926 21.519,57.357 C16.016,58.682 11.536,57.947 8.854,55.259 L8.854,55.259 Z M43.963,57.146 C36.577,50.591 30.245,53.654 25.11,56.137 L24.152,56.597 C23.956,56.69 23.739,56.761 23.513,56.826 C23.471,54.533 23.291,49.551 22.547,43.92 C31.322,45.341 37.595,47.733 40.724,50.87 C43.749,53.899 44.119,55.992 43.963,57.146 L43.963,57.146 Z M34.807,45.007 L31.192,41.383 C32.67,39.991 34.157,38.551 35.642,37.07 L40.014,41.452 C38.626,42.827 37.195,44.145 35.744,45.39 C35.439,45.26 35.125,45.133 34.807,45.007 L34.807,45.007 Z" id="Shape" fill="#000000"></path>
    </g>
</svg>