<?xml version="1.0" encoding="UTF-8" standalone="no"?>
<svg width="44px" height="44px" viewBox="0 0 44 44" version="1.1" xmlns="http://www.w3.org/2000/svg" xmlns:xlink="http://www.w3.org/1999/xlink">
    <!-- Generator: Sketch 3.7.2 (28276) - http://www.bohemiancoding.com/sketch -->
    <title>veg-avocado-cut</title>
    <desc>Created with Sketch.</desc>
    <defs></defs>
    <g id="44px-Line" stroke="none" stroke-width="1" fill="none" fill-rule="evenodd">
        <g id="veg-avocado-cut"></g>
        <path d="M5.458,38.541 C9.091,42.175 13.864,43.991 18.636,43.991 C23.408,43.991 28.181,42.175 31.814,38.541 C35.543,34.812 39.624,27.738 41.969,20.938 C43.655,16.05 45.811,7.178 41.316,2.683 C33.704,-4.93 12.222,5.42 5.458,12.185 C1.938,15.705 -5.68434189e-14,20.385 -5.68434189e-14,25.363 C0,30.342 1.938,35.021 5.458,38.541 L5.458,38.541 Z M6.873,13.6 C10.352,10.121 17.277,6.141 23.714,3.921 C27.412,2.647 30.712,2.01 33.438,2.01 C36.289,2.01 38.512,2.706 39.903,4.098 C42.624,6.82 42.689,12.72 40.079,20.287 C37.86,26.724 33.88,33.648 30.401,37.127 C23.914,43.613 13.36,43.613 6.873,37.127 C3.731,33.985 2,29.808 2,25.363 C2,20.92 3.73,16.742 6.873,13.6 L6.873,13.6 Z" id="Shape" fill="#000000"></path>
        <path d="M8.29,35.71 C11.145,38.565 14.896,39.993 18.647,39.993 C22.398,39.993 26.149,38.565 29.004,35.71 C34.641,30.072 43.961,11.787 38.087,5.912 C32.212,0.036 13.926,9.357 8.29,14.995 C2.579,20.706 2.579,29.999 8.29,35.71 L8.29,35.71 Z M9.704,16.409 C13.741,12.372 25.565,5.985 32.541,5.985 C34.289,5.985 35.733,6.386 36.673,7.326 C41.363,12.017 32.639,29.247 27.59,34.296 C22.658,39.227 14.634,39.226 9.703,34.296 C4.773,29.364 4.773,21.341 9.704,16.409 L9.704,16.409 Z" id="Shape" fill="#000000"></path>
        <path d="M21,32 C25.962,32 30,27.963 30,23 C30,18.037 25.962,14 21,14 C16.038,14 12,18.037 12,23 C12,27.963 16.038,32 21,32 L21,32 Z M21,16 C24.86,16 28,19.141 28,23 C28,26.859 24.86,30 21,30 C17.14,30 14,26.859 14,23 C14,19.141 17.14,16 21,16 L21,16 Z" id="Shape" fill="#000000"></path>
        <path d="M17,24 C17.552,24 18,23.553 18,23 C18,21.346 19.346,20 21,20 C21.552,20 22,19.553 22,19 C22,18.447 21.552,18 21,18 C18.243,18 16,20.243 16,23 C16,23.553 16.448,24 17,24 L17,24 Z" id="Shape" fill="#000000"></path>
    </g>
</svg>