<?xml version="1.0" encoding="UTF-8" standalone="no"?>
<svg width="64px" height="64px" viewBox="0 0 64 64" version="1.1" xmlns="http://www.w3.org/2000/svg" xmlns:xlink="http://www.w3.org/1999/xlink">
    <!-- Generator: Sketch 3.7.2 (28276) - http://www.bohemiancoding.com/sketch -->
    <title>veg-banana-peeled</title>
    <desc>Created with Sketch.</desc>
    <defs></defs>
    <g id="64px-Glyph" stroke="none" stroke-width="1" fill="none" fill-rule="evenodd">
        <g id="veg-banana-peeled" fill="#000000">
            <path d="M55.7073,34.3012 C53.0543,31.6472 48.5653,32.3852 44.9783,33.6342 L40.6913,37.7312 C28.9673,48.9642 15.7643,51.8682 15.2083,51.9872 C15.1383,52.0012 15.0673,52.0082 14.9993,52.0082 C14.5373,52.0082 14.1223,51.6862 14.0223,51.2162 C13.9073,50.6762 14.2523,50.1462 14.7923,50.0302 C14.9233,50.0022 28.0123,47.1092 39.3093,36.2862 L41.0013,34.6682 C40.8773,31.8402 40.2493,27.1852 37.6163,24.3742 C36.1453,22.8042 34.2563,22.0082 32.0003,22.0082 C24.9013,22.0082 24.0473,26.6462 24.0143,26.8442 C23.9653,27.1342 24.0473,27.4302 24.2373,27.6552 C24.4273,27.8792 24.7063,28.0082 25.0003,28.0082 C28.2283,28.0082 30.6623,29.5802 31.5103,32.2132 C32.1463,34.1882 31.6863,36.2832 30.4163,37.1962 C16.1523,47.4472 5.0713,48.0042 4.9613,48.0092 C4.4253,48.0312 4.0003,48.4712 4.0003,49.0082 L4.0003,55.0082 C4.0003,55.3662 4.1923,55.6982 4.5043,55.8762 C4.7993,56.0452 11.8173,60.0082 19.0003,60.0082 C30.3413,60.0082 44.2693,54.9222 48.9473,45.2022 C49.2963,44.4772 49.5663,44.0032 49.7673,43.6952 C49.9493,44.5572 50.0833,45.9842 50.1813,47.0242 C50.5323,50.7712 50.8363,54.0082 53.0003,54.0082 C54.2173,54.0082 55.2913,52.9052 56.1923,50.7282 C57.8683,46.6822 59.1393,37.7332 55.7073,34.3012" id="Fill-110"></path>
            <path d="M42.8118,32.308 C46.9978,30.604 52.5718,29.317 56.3458,32.21 C57.1128,29.997 57.9998,26.657 57.9998,23.008 C57.9998,18.52 57.9998,8.008 51.9998,8.008 C47.7388,8.008 46.8008,12.179 45.7148,17.008 C44.9518,20.4 44.0488,24.411 41.8168,27.837 C42.3288,29.354 42.6388,30.906 42.8118,32.308" id="Fill-112"></path>
        </g>
    </g>
</svg>