<?xml version="1.0" encoding="UTF-8" standalone="no"?>
<svg width="64px" height="64px" viewBox="0 0 64 64" version="1.1" xmlns="http://www.w3.org/2000/svg" xmlns:xlink="http://www.w3.org/1999/xlink">
    <!-- Generator: Sketch 3.7.2 (28276) - http://www.bohemiancoding.com/sketch -->
    <title>veg-cherry</title>
    <desc>Created with Sketch.</desc>
    <defs></defs>
    <g id="64px-Line" stroke="none" stroke-width="1" fill="none" fill-rule="evenodd">
        <g id="veg-cherry"></g>
        <path d="M16.525,32.024 C9.578,32.277 4,37.992 4,45 C4,52.168 9.832,58 17,58 C24.168,58 30,52.168 30,45 C30,38.363 24.998,32.882 18.568,32.104 C19.856,26.595 23.14,22.426 26.124,18.658 C28.049,16.226 29.905,13.88 31,11.403 C32.095,13.88 33.951,16.226 35.876,18.658 C38.859,22.426 42.144,26.595 43.432,32.104 C37.002,32.882 32,38.363 32,45 C32,52.168 37.832,58 45,58 C52.168,58 58,52.168 58,45 C58,37.992 52.422,32.277 45.475,32.024 C44.172,25.931 40.642,21.456 37.445,17.417 C34.523,13.726 32,10.539 32,7 C32,6.987 31.993,6.977 31.993,6.964 C31.989,6.845 31.969,6.728 31.923,6.618 C31.919,6.608 31.912,6.6 31.908,6.59 C31.881,6.53 31.852,6.471 31.813,6.417 C31.789,6.384 31.759,6.358 31.732,6.329 C31.716,6.311 31.702,6.294 31.685,6.278 C31.604,6.201 31.513,6.139 31.412,6.094 C31.392,6.085 31.372,6.079 31.351,6.071 C31.24,6.029 31.123,6 31.001,6 L30.998,6 C30.64,6 23.073,6.039 15.623,9.074 C6.688,12.714 4.183,18.368 4.081,18.607 C3.956,18.898 3.977,19.231 4.136,19.504 C4.296,19.777 4.575,19.96 4.89,19.994 C5.021,20.009 6.28,20.142 8.22,20.142 C11.412,20.142 16.45,19.781 21.353,17.936 C23.412,17.161 25.102,16.092 26.488,14.93 C25.882,15.74 25.231,16.564 24.556,17.417 C21.358,21.456 17.828,25.931 16.525,32.024 L16.525,32.024 Z M28,45 C28,51.065 23.065,56 17,56 C10.935,56 6,51.065 6,45 C6,39.21 10.5,34.461 16.184,34.042 C16.068,34.99 16,35.972 16,37 C16,37.552 16.447,38 17,38 C17.553,38 18,37.552 18,37 C18,35.982 18.069,35.006 18.196,34.068 C23.701,34.667 28,39.339 28,45 L28,45 Z M56,45 C56,51.065 51.065,56 45,56 C38.935,56 34,51.065 34,45 C34,39.339 38.299,34.667 43.804,34.068 C43.931,35.006 44,35.982 44,37 C44,37.552 44.447,38 45,38 C45.553,38 46,37.552 46,37 C46,35.972 45.932,34.99 45.816,34.042 C51.5,34.461 56,39.21 56,45 L56,45 Z M20.647,16.064 C15.197,18.115 9.414,18.205 6.697,18.106 C7.924,16.362 10.764,13.212 16.377,10.926 C21.523,8.83 26.856,8.235 29.427,8.066 C28.332,10.183 25.691,14.166 20.647,16.064 L20.647,16.064 Z" id="Shape" fill="#000000"></path>
        <path d="M14,39 C14,38.448 13.553,38 13,38 C12.447,38 12,38.448 12,39 C12,40.71 14.149,42 17,42 C19.851,42 22,40.71 22,39 C22,38.448 21.553,38 21,38 C20.447,38 20,38.448 20,39 C20,39.249 18.936,40 17,40 C15.064,40 14,39.249 14,39 L14,39 Z" id="Shape" fill="#000000"></path>
        <path d="M42,39 C42,38.448 41.553,38 41,38 C40.447,38 40,38.448 40,39 C40,40.71 42.149,42 45,42 C47.851,42 50,40.71 50,39 C50,38.448 49.553,38 49,38 C48.447,38 48,38.448 48,39 C48,39.249 46.936,40 45,40 C43.064,40 42,39.249 42,39 L42,39 Z" id="Shape" fill="#000000"></path>
    </g>
</svg>