<?xml version="1.0" encoding="UTF-8" standalone="no"?>
<svg width="64px" height="64px" viewBox="0 0 64 64" version="1.1" xmlns="http://www.w3.org/2000/svg" xmlns:xlink="http://www.w3.org/1999/xlink">
    <!-- Generator: Sketch 3.7.2 (28276) - http://www.bohemiancoding.com/sketch -->
    <title>veg-mushroom</title>
    <desc>Created with Sketch.</desc>
    <defs></defs>
    <g id="64px-Line" stroke="none" stroke-width="1" fill="none" fill-rule="evenodd">
        <g id="veg-mushroom"></g>
        <path d="M31,6 C13.274,6 4,17.57 4,29 C4,32.265 4.98,34.892 6.913,36.809 C10.062,39.932 14.601,40 14.98,40 L15,40 C17.939,40 20.117,39.476 21.95,38.813 C21.769,41.853 21.095,45.092 20.487,48 C19.493,52.754 18.775,56.188 20.294,57.707 C22.475,59.888 29.43,60.001 30.824,60.001 C30.967,60 31.02,60 31.164,60.001 C32.572,60.001 39.527,59.888 41.707,57.707 C43.226,56.188 42.508,52.754 41.514,48 C40.905,45.087 40.229,41.843 40.05,38.799 C41.89,39.467 44.069,40 46.996,40 C47.227,39.974 51.883,39.985 55.087,36.809 C57.02,34.892 58,32.265 58,29 C58,17.57 48.726,6 31,6 L31,6 Z M39.556,48.409 C40.22,51.586 41.047,55.539 40.293,56.293 C39.008,57.578 33.913,58.047 30.992,58 C28.081,58.037 22.993,57.58 21.707,56.293 C20.953,55.539 21.78,51.586 22.444,48.409 C23.129,45.135 23.89,41.454 23.982,37.989 C24.203,37.891 24.425,37.793 24.64,37.697 C26.673,36.787 28.429,36 31,36 C33.58,36 35.354,36.791 37.408,37.706 C37.607,37.795 37.813,37.885 38.017,37.975 C38.108,41.445 38.87,45.131 39.556,48.409 L39.556,48.409 Z M53.69,35.377 C51.082,37.976 47.079,38 47.007,38 L47.007,38 L47.001,38 C42.981,38 40.563,36.922 38.223,35.879 C36.054,34.913 34.005,34 31,34 C28.001,34 25.972,34.909 23.822,35.872 C23.442,36.042 23.057,36.211 22.666,36.379 C22.63,36.392 22.596,36.406 22.562,36.422 C20.576,37.265 18.351,38 14.991,38 C14.937,37.979 10.963,38.009 8.321,35.389 C6.781,33.86 6,31.711 6,29 C6,15.213 18.577,8 31,8 C43.423,8 56,15.213 56,29 C56,31.705 55.223,33.851 53.69,35.377 L53.69,35.377 Z" id="Shape" fill="#000000"></path>
        <path d="M24.724,12.039 C12.362,15.583 10.109,26.351 10.019,26.807 C9.912,27.349 10.265,27.874 10.807,27.982 C10.872,27.995 10.937,28.001 11.001,28.001 C11.469,28.001 11.887,27.671 11.981,27.194 C12.001,27.094 14.076,17.173 25.276,13.962 C25.807,13.81 26.113,13.256 25.962,12.726 C25.809,12.193 25.256,11.889 24.724,12.039 L24.724,12.039 Z" id="Shape" fill="#000000"></path>
    </g>
</svg>