<?xml version="1.0" encoding="UTF-8" standalone="no"?>
<svg width="64px" height="64px" viewBox="0 0 64 64" version="1.1" xmlns="http://www.w3.org/2000/svg" xmlns:xlink="http://www.w3.org/1999/xlink">
    <!-- Generator: Sketch 3.7.2 (28276) - http://www.bohemiancoding.com/sketch -->
    <title>veg-kidney-bean</title>
    <desc>Created with Sketch.</desc>
    <defs></defs>
    <g id="64px-Line" stroke="none" stroke-width="1" fill="none" fill-rule="evenodd">
        <g id="veg-kidney-bean"></g>
        <path d="M35.468,4.416 C28.444,5.663 21.34,9.587 15.463,15.463 C9.586,21.339 5.663,28.444 4.416,35.468 C3.161,42.533 4.724,48.677 8.816,52.769 C12.522,56.475 16.673,58.017 20.504,58.017 C24.288,58.017 27.758,56.511 30.171,54.099 C32.711,51.559 33.457,48.764 34.178,46.061 C34.916,43.294 35.613,40.681 38.147,38.146 C40.681,35.611 43.294,34.915 46.062,34.177 C48.765,33.456 51.56,32.71 54.1,30.17 C58.954,25.316 60.138,16.182 52.77,8.816 C48.677,4.724 42.535,3.161 35.468,4.416 L35.468,4.416 Z M52.685,28.756 C50.525,30.916 48.106,31.561 45.546,32.244 C42.646,33.018 39.647,33.818 36.733,36.732 C33.819,39.646 33.019,42.645 32.245,45.545 C31.562,48.106 30.917,50.524 28.757,52.684 C26.568,54.872 23.466,56.085 20.236,55.995 C17.723,55.929 13.946,55.07 10.23,51.354 C6.613,47.737 5.248,42.219 6.384,35.816 C7.561,29.191 11.287,22.465 16.877,16.876 C22.467,11.287 29.193,7.56 35.817,6.383 C37.289,6.122 38.713,5.993 40.079,5.993 C44.655,5.993 48.569,7.443 51.354,10.229 C55.07,13.945 55.929,17.722 55.995,20.235 C56.081,23.462 54.874,26.567 52.685,28.756 L52.685,28.756 Z" id="Shape" fill="#000000"></path>
        <path d="M35.424,10.015 C35.222,10.05 30.412,10.915 24.42,15.186 C18.44,19.449 15.565,24.291 15.445,24.495 C15.166,24.972 15.326,25.583 15.802,25.862 C15.961,25.955 16.135,26 16.307,26 C16.65,26 16.984,25.823 17.17,25.507 C17.197,25.46 19.967,20.816 25.581,16.815 C31.173,12.829 35.721,11.994 35.766,11.986 C36.309,11.89 36.674,11.373 36.579,10.829 C36.483,10.285 35.971,9.915 35.424,10.015 L35.424,10.015 Z" id="Shape" fill="#000000"></path>
    </g>
</svg>