<?xml version="1.0" encoding="UTF-8" standalone="no"?>
<svg width="64px" height="64px" viewBox="0 0 64 64" version="1.1" xmlns="http://www.w3.org/2000/svg" xmlns:xlink="http://www.w3.org/1999/xlink">
    <!-- Generator: Sketch 3.7.2 (28276) - http://www.bohemiancoding.com/sketch -->
    <title>veg-peapod</title>
    <desc>Created with Sketch.</desc>
    <defs></defs>
    <g id="64px-Line" stroke="none" stroke-width="1" fill="none" fill-rule="evenodd">
        <g id="veg-peapod"></g>
        <path d="M48.782,29.153 C53.065,24.822 53.065,17.777 48.782,13.446 L41.718,6.302 C41.716,6.3 41.714,6.298 41.712,6.296 C41.325,5.903 40.691,5.9 40.298,6.288 C39.905,6.676 39.902,7.309 40.29,7.702 C41.448,8.873 41.637,10.134 39.004,12.796 L15.219,36.846 C10.936,41.177 10.936,48.222 15.219,52.553 L22.283,59.697 C22.285,59.699 22.287,59.701 22.289,59.703 C22.484,59.901 22.742,60 23,60 C23.254,60 23.508,59.904 23.703,59.711 C24.096,59.323 24.099,58.69 23.711,58.297 C22.553,57.126 22.364,55.865 24.997,53.203 L48.782,29.153 L48.782,29.153 Z M21.056,55.612 L16.64,51.147 C13.124,47.592 13.124,41.808 16.64,38.253 L40.425,14.203 C41.075,13.546 42.49,12.115 42.944,10.388 L47.36,14.853 C50.876,18.408 50.876,24.192 47.36,27.747 L23.575,51.797 C22.925,52.454 21.51,53.885 21.056,55.612 L21.056,55.612 Z" id="Shape" fill="#000000"></path>
        <path d="M23,37 C20.243,37 18,39.243 18,42 C18,44.757 20.243,47 23,47 C25.757,47 28,44.757 28,42 C28,39.243 25.757,37 23,37 L23,37 Z M23,45 C21.346,45 20,43.654 20,42 C20,40.346 21.346,39 23,39 C24.654,39 26,40.346 26,42 C26,43.654 24.654,45 23,45 L23,45 Z" id="Shape" fill="#000000"></path>
        <path d="M32,28 C29.243,28 27,30.243 27,33 C27,35.757 29.243,38 32,38 C34.757,38 37,35.757 37,33 C37,30.243 34.757,28 32,28 L32,28 Z M32,36 C30.346,36 29,34.654 29,33 C29,31.346 30.346,30 32,30 C33.654,30 35,31.346 35,33 C35,34.654 33.654,36 32,36 L32,36 Z" id="Shape" fill="#000000"></path>
        <path d="M41,19 C38.243,19 36,21.243 36,24 C36,26.757 38.243,29 41,29 C43.757,29 46,26.757 46,24 C46,21.243 43.757,19 41,19 L41,19 Z M41,27 C39.346,27 38,25.654 38,24 C38,22.346 39.346,21 41,21 C42.654,21 44,22.346 44,24 C44,25.654 42.654,27 41,27 L41,27 Z" id="Shape" fill="#000000"></path>
    </g>
</svg>