<?xml version="1.0" encoding="UTF-8" standalone="no"?>
<svg width="64px" height="64px" viewBox="0 0 64 64" version="1.1" xmlns="http://www.w3.org/2000/svg" xmlns:xlink="http://www.w3.org/1999/xlink">
    <!-- Generator: Sketch 3.7.2 (28276) - http://www.bohemiancoding.com/sketch -->
    <title>veg-lemon</title>
    <desc>Created with Sketch.</desc>
    <defs></defs>
    <g id="64px-Line" stroke="none" stroke-width="1" fill="none" fill-rule="evenodd">
        <g id="veg-lemon"></g>
        <path d="M56.019,14.917 C57.02,13.316 57.018,11.249 56.014,9.65 C55.8,9.31 55.552,8.998 55.277,8.722 C55,8.445 54.688,8.198 54.35,7.985 C52.75,6.981 50.682,6.98 49.047,8.004 C48.581,8.301 48.051,8.353 47.63,8.143 C37.955,3.33 24.362,6.798 14.579,16.58 C4.797,26.362 1.328,39.954 6.142,49.631 C6.352,50.052 6.299,50.582 5.981,51.084 C4.979,52.684 4.981,54.751 5.985,56.351 C6.198,56.69 6.446,57.001 6.721,57.277 C6.996,57.552 7.308,57.801 7.65,58.015 C9.248,59.018 11.316,59.02 12.864,58.049 C12.885,58.038 12.933,58.008 12.953,57.996 C13.418,57.699 13.948,57.646 14.369,57.857 C17.286,59.308 20.558,60.006 23.975,60.006 C31.893,60.006 40.586,56.253 47.419,49.42 C57.202,39.638 60.671,26.047 55.857,16.369 C55.647,15.948 55.7,15.419 56.019,14.917 L56.019,14.917 Z M46.006,48.006 C36.822,57.189 24.181,60.504 15.26,56.066 C14.808,55.841 14.318,55.73 13.819,55.73 C13.155,55.73 12.476,55.929 11.856,56.323 C10.916,56.912 9.653,56.909 8.714,56.321 C8.5,56.187 8.307,56.033 8.137,55.863 C7.966,55.693 7.813,55.498 7.679,55.286 C7.09,54.347 7.089,53.084 7.692,52.12 C8.368,51.058 8.459,49.794 7.934,48.74 C3.496,39.821 6.811,27.178 15.994,17.994 C25.177,8.81 37.822,5.495 46.74,9.934 C47.796,10.458 49.059,10.367 50.144,9.677 C51.085,9.09 52.347,9.091 53.287,9.679 C53.498,9.812 53.693,9.966 53.864,10.137 C54.033,10.306 54.186,10.5 54.321,10.714 C54.911,11.652 54.912,12.915 54.309,13.88 C53.633,14.942 53.542,16.206 54.067,17.26 C58.504,26.18 55.189,38.823 46.006,48.006 L46.006,48.006 Z" id="Shape" fill="#000000"></path>
        <path d="M40.742,10.185 C33.142,9.107 24.219,12.654 17.436,19.437 C17.045,19.828 17.045,20.46 17.436,20.851 C17.631,21.046 17.887,21.144 18.143,21.144 C18.399,21.144 18.655,21.046 18.85,20.851 C25.197,14.503 33.476,11.174 40.46,12.165 C41.01,12.246 41.513,11.862 41.591,11.315 C41.669,10.769 41.289,10.263 40.742,10.185 L40.742,10.185 Z" id="Shape" fill="#000000"></path>
        <path d="M23.707,51.707 C23.316,52.097 22.684,52.097 22.293,51.707 C22.104,51.518 22,51.267 22,51 C22,50.733 22.104,50.482 22.293,50.293 C22.684,49.902 22.684,49.269 22.293,48.878 C21.902,48.487 21.27,48.488 20.879,48.878 C20.312,49.445 20,50.199 20,51 C20,51.801 20.312,52.555 20.879,53.121 C21.464,53.706 22.232,53.998 23,53.998 C23.768,53.998 24.536,53.706 25.121,53.121 C25.512,52.73 25.512,52.098 25.121,51.707 C24.73,51.316 24.098,51.316 23.707,51.707 L23.707,51.707 Z" id="Shape" fill="#000000"></path>
        <path d="M27.707,43.707 C27.316,44.097 26.684,44.097 26.293,43.707 C26.104,43.518 26,43.267 26,43 C26,42.733 26.104,42.482 26.293,42.293 C26.684,41.902 26.684,41.269 26.293,40.878 C25.902,40.487 25.27,40.488 24.879,40.878 C24.312,41.445 24,42.199 24,43 C24,43.801 24.312,44.555 24.879,45.121 C25.464,45.706 26.232,45.998 27,45.998 C27.768,45.998 28.536,45.706 29.121,45.121 C29.512,44.73 29.512,44.098 29.121,43.707 C28.73,43.316 28.098,43.316 27.707,43.707 L27.707,43.707 Z" id="Shape" fill="#000000"></path>
        <path d="M15.707,43.707 C15.316,44.097 14.684,44.097 14.293,43.707 C14.104,43.518 14,43.267 14,43 C14,42.733 14.104,42.482 14.293,42.293 C14.684,41.902 14.684,41.269 14.293,40.878 C13.902,40.487 13.27,40.488 12.879,40.878 C12.312,41.445 12,42.199 12,43 C12,43.801 12.312,44.555 12.879,45.121 C13.464,45.706 14.232,45.998 15,45.998 C15.768,45.998 16.536,45.706 17.121,45.121 C17.512,44.73 17.512,44.098 17.121,43.707 C16.73,43.316 16.098,43.316 15.707,43.707 L15.707,43.707 Z" id="Shape" fill="#000000"></path>
    </g>
</svg>