<?xml version="1.0" encoding="UTF-8" standalone="no"?>
<svg width="64px" height="64px" viewBox="0 0 64 64" version="1.1" xmlns="http://www.w3.org/2000/svg" xmlns:xlink="http://www.w3.org/1999/xlink">
    <!-- Generator: Sketch 3.7.2 (28276) - http://www.bohemiancoding.com/sketch -->
    <title>veg-potato</title>
    <desc>Created with Sketch.</desc>
    <defs></defs>
    <g id="64px-Line" stroke="none" stroke-width="1" fill="none" fill-rule="evenodd">
        <g id="veg-potato"></g>
        <path d="M45,14 C41.865,14 40.438,14.299 39.178,14.562 C38.054,14.797 37.083,15 35,15 C33.186,15 31.929,14.5 30.339,13.867 C28.25,13.035 25.65,12 21,12 C12.781,12 4,17.254 4,32 C4,46.289 18.427,54 32,54 C45.485,54 60,47.429 60,33 C60,14.533 46.535,14 45,14 L45,14 Z M32,52 C19.396,52 6,44.99 6,32 C6,23.298 9.94,14 21,14 C25.267,14 27.568,14.916 29.599,15.725 C31.246,16.381 32.802,17 35,17 C37.29,17 38.458,16.756 39.588,16.52 C40.809,16.264 42.072,16 45,16 C54.596,16 58,25.158 58,33 C58,46.055 44.522,52 32,52 L32,52 Z" id="Shape" fill="#000000"></path>
        <path d="M21.293,35.414 C20.537,36.17 19.221,36.17 18.465,35.414 C17.686,34.635 17.686,33.365 18.465,32.586 C18.856,32.195 18.856,31.563 18.465,31.172 C18.074,30.781 17.442,30.781 17.051,31.172 C15.491,32.732 15.491,35.269 17.051,36.828 C17.806,37.584 18.81,38 19.879,38 C20.947,38 21.951,37.584 22.707,36.828 C23.098,36.437 23.098,35.805 22.707,35.414 C22.316,35.023 21.684,35.023 21.293,35.414 L21.293,35.414 Z" id="Shape" fill="#000000"></path>
        <path d="M39,38 C37.346,38 36,39.346 36,41 C36,42.654 37.346,44 39,44 C40.654,44 42,42.654 42,41 C42,39.346 40.654,38 39,38 L39,38 Z M39,42 C38.448,42 38,41.552 38,41 C38,40.448 38.448,40 39,40 C39.552,40 40,40.448 40,41 C40,41.552 39.552,42 39,42 L39,42 Z" id="Shape" fill="#000000"></path>
        <path d="M45,22 C42.243,22 40,24.243 40,27 C40,27.553 40.447,28 41,28 C41.553,28 42,27.553 42,27 C42,25.346 43.346,24 45,24 C46.654,24 48,25.346 48,27 C48,28.654 46.654,30 45,30 C44.447,30 44,30.447 44,31 C44,31.553 44.447,32 45,32 C47.757,32 50,29.757 50,27 C50,24.243 47.757,22 45,22 L45,22 Z" id="Shape" fill="#000000"></path>
    </g>
</svg>