<?xml version="1.0" encoding="UTF-8" standalone="no"?>
<svg width="64px" height="64px" viewBox="0 0 64 64" version="1.1" xmlns="http://www.w3.org/2000/svg" xmlns:xlink="http://www.w3.org/1999/xlink">
    <!-- Generator: Sketch 3.7.2 (28276) - http://www.bohemiancoding.com/sketch -->
    <title>veg-orange</title>
    <desc>Created with Sketch.</desc>
    <defs></defs>
    <g id="64px-Line" stroke="none" stroke-width="1" fill="none" fill-rule="evenodd">
        <g id="veg-orange"></g>
        <path d="M37,19.5 C36.447,19.5 36,19.947 36,20.5 C36,20.886 34.281,22 31,22 C29.208,22 27.503,21.635 26.55,21.046 C26.077,20.757 25.463,20.903 25.173,21.372 C24.884,21.843 25.029,22.459 25.499,22.749 C26.789,23.544 28.794,24 31,24 C34.479,24 38,22.798 38,20.5 C38,19.947 37.553,19.5 37,19.5 L37,19.5 Z" id="Shape" fill="#000000"></path>
        <path d="M19.707,45.707 C19.316,46.098 18.684,46.098 18.293,45.707 C17.903,45.317 17.903,44.683 18.293,44.293 C18.684,43.902 18.684,43.27 18.293,42.879 C17.902,42.488 17.27,42.488 16.879,42.879 C15.709,44.049 15.709,45.951 16.879,47.121 C17.464,47.706 18.232,47.998 19,47.998 C19.768,47.998 20.536,47.706 21.121,47.121 C21.512,46.73 21.512,46.098 21.121,45.707 C20.73,45.316 20.098,45.316 19.707,45.707 L19.707,45.707 Z" id="Shape" fill="#000000"></path>
        <path d="M31.707,41.707 C31.316,42.098 30.684,42.098 30.293,41.707 C29.903,41.317 29.903,40.683 30.293,40.293 C30.684,39.902 30.684,39.27 30.293,38.879 C29.902,38.488 29.27,38.488 28.879,38.879 C27.709,40.049 27.709,41.951 28.879,43.121 C29.464,43.706 30.232,43.998 31,43.998 C31.768,43.998 32.536,43.706 33.121,43.121 C33.512,42.73 33.512,42.098 33.121,41.707 C32.73,41.316 32.098,41.316 31.707,41.707 L31.707,41.707 Z" id="Shape" fill="#000000"></path>
        <path d="M29.707,49.707 C29.316,50.098 28.684,50.098 28.293,49.707 C27.903,49.317 27.903,48.683 28.293,48.293 C28.684,47.902 28.684,47.27 28.293,46.879 C27.902,46.488 27.27,46.488 26.879,46.879 C25.709,48.049 25.709,49.951 26.879,51.121 C27.464,51.706 28.232,51.998 29,51.998 C29.768,51.998 30.536,51.706 31.121,51.121 C31.512,50.73 31.512,50.098 31.121,49.707 C30.73,49.316 30.098,49.316 29.707,49.707 L29.707,49.707 Z" id="Shape" fill="#000000"></path>
        <path d="M32.34,14.048 C33.53,8.786 37.533,5.848 37.581,5.814 C38.03,5.495 38.136,4.872 37.817,4.421 C37.497,3.97 36.874,3.864 36.422,4.183 C36.219,4.328 32.461,7.065 30.793,12.111 C28.987,7.972 25.124,6 19,6 C18.447,6 18,6.447 18,7 C18,11.197 18.887,14.296 20.734,16.421 C12.953,20.298 8,28.217 8,37 C8,49.683 18.317,60 31,60 C43.683,60 54,49.683 54,37 C54,24.796 44.445,14.787 32.34,14.048 L32.34,14.048 Z M29.98,17.981 C27.005,17.872 24.781,17.263 23.195,16.048 C23.154,16.003 23.107,15.969 23.059,15.933 C21.099,14.348 20.156,11.787 20.018,8.019 C26.761,8.281 29.719,11.239 29.98,17.981 L29.98,17.981 Z M31,58 C19.421,58 10,48.579 10,37 C10,28.71 14.837,21.268 22.357,17.87 C24.439,19.305 27.289,20 31,20 C31.553,20 32,19.553 32,19 L32,17 C32,16.675 32.023,16.365 32.045,16.053 C43.137,16.603 52,25.774 52,37 C52,48.579 42.579,58 31,58 L31,58 Z" id="Shape" fill="#000000"></path>
    </g>
</svg>