<?xml version="1.0" encoding="UTF-8" standalone="no"?>
<svg width="64px" height="64px" viewBox="0 0 64 64" version="1.1" xmlns="http://www.w3.org/2000/svg" xmlns:xlink="http://www.w3.org/1999/xlink">
    <!-- Generator: Sketch 3.7.2 (28276) - http://www.bohemiancoding.com/sketch -->
    <title>veg-watermellon-cut</title>
    <desc>Created with Sketch.</desc>
    <defs></defs>
    <g id="64px-Line" stroke="none" stroke-width="1" fill="none" fill-rule="evenodd">
        <g id="veg-watermellon-cut"></g>
        <path d="M26.539,60 C34.942,60 42.843,56.728 48.785,50.785 C61.052,38.518 61.052,18.559 48.785,6.293 C48.394,5.902 47.762,5.902 47.371,6.293 L4.293,49.371 C3.902,49.762 3.902,50.394 4.293,50.785 C10.235,56.728 18.136,60 26.539,60 L26.539,60 Z M44.004,12.488 C52.56,21.794 52.354,36.311 43.333,45.332 C38.847,49.818 32.883,52.288 26.539,52.288 C20.53,52.288 14.864,50.068 10.47,46.021 L44.004,12.488 L44.004,12.488 Z M9.056,47.436 C13.828,51.86 19.996,54.289 26.539,54.289 C33.417,54.289 39.884,51.611 44.747,46.747 C54.549,36.944 54.775,21.143 45.436,11.057 L48.066,8.427 C53.19,13.902 56,21.005 56,28.54 C56,36.409 52.936,43.808 47.371,49.372 C41.806,54.936 34.408,58 26.539,58 C19.004,58 11.9,55.19 6.426,50.066 L9.056,47.436 L9.056,47.436 Z" id="Shape" fill="#000000"></path>
        <path d="M39.294,42.708 C39.489,42.903 39.745,43.001 40.001,43.001 C40.257,43.001 40.513,42.903 40.708,42.708 C41.099,42.317 41.099,41.685 40.708,41.294 L38.016,38.602 C37.625,38.211 36.993,38.211 36.602,38.602 C36.211,38.993 36.211,39.625 36.602,40.016 L39.294,42.708 L39.294,42.708 Z" id="Shape" fill="#000000"></path>
        <path d="M18.608,46.605 C18.745,46.669 18.888,46.699 19.03,46.699 C19.407,46.699 19.767,46.485 19.937,46.121 L21.545,42.67 C21.778,42.17 21.562,41.574 21.062,41.341 C20.561,41.108 19.967,41.325 19.733,41.825 L18.125,45.276 C17.892,45.777 18.108,46.372 18.608,46.605 L18.608,46.605 Z" id="Shape" fill="#000000"></path>
        <path d="M30.098,48.156 C30.156,48.156 30.214,48.151 30.273,48.141 C30.817,48.045 31.18,47.526 31.084,46.982 L30.423,43.232 C30.327,42.689 29.807,42.327 29.265,42.421 C28.721,42.517 28.358,43.036 28.454,43.58 L29.115,47.33 C29.199,47.814 29.621,48.156 30.098,48.156 L30.098,48.156 Z" id="Shape" fill="#000000"></path>
        <path d="M40.422,31.264 C40.325,31.808 40.689,32.326 41.233,32.423 L44.983,33.085 C45.042,33.095 45.1,33.1 45.158,33.1 C45.635,33.1 46.056,32.759 46.141,32.274 C46.238,31.73 45.874,31.212 45.33,31.115 L41.58,30.453 C41.037,30.358 40.517,30.72 40.422,31.264 L40.422,31.264 Z" id="Shape" fill="#000000"></path>
        <path d="M40.249,23.64 C40.391,23.64 40.534,23.61 40.671,23.546 L44.121,21.937 C44.621,21.704 44.838,21.108 44.604,20.608 C44.371,20.108 43.776,19.89 43.275,20.125 L39.825,21.734 C39.325,21.967 39.108,22.563 39.342,23.063 C39.512,23.427 39.872,23.64 40.249,23.64 L40.249,23.64 Z" id="Shape" fill="#000000"></path>
    </g>
</svg>