<?xml version="1.0" encoding="UTF-8" standalone="no"?>
<svg width="64px" height="64px" viewBox="0 0 64 64" version="1.1" xmlns="http://www.w3.org/2000/svg" xmlns:xlink="http://www.w3.org/1999/xlink">
    <!-- Generator: Sketch 3.7.2 (28276) - http://www.bohemiancoding.com/sketch -->
    <title>veg-onion-cut</title>
    <desc>Created with Sketch.</desc>
    <defs></defs>
    <g id="64px-Line" stroke="none" stroke-width="1" fill="none" fill-rule="evenodd">
        <g id="veg-onion-cut"></g>
        <path d="M31,24 C30.448,24 30,24.447 30,25 L30,49 C30,49.553 30.448,50 31,50 C31.552,50 32,49.553 32,49 L32,25 C32,24.447 31.552,24 31,24 L31,24 Z" id="Shape" fill="#000000"></path>
        <path d="M37.759,24.181 C37.307,23.863 36.682,23.973 36.366,24.424 C36.048,24.876 36.157,25.499 36.609,25.818 C39.934,28.155 42,32.44 42,37 C42,41.56 39.934,45.845 36.608,48.183 C36.156,48.501 36.047,49.124 36.365,49.577 C36.559,49.853 36.869,50.002 37.184,50.002 C37.383,50.002 37.583,49.943 37.758,49.82 C41.666,47.072 43.999,42.28 43.999,37.001 C43.999,31.722 41.667,26.929 37.759,24.181 L37.759,24.181 Z" id="Shape" fill="#000000"></path>
        <path d="M25.392,25.817 C25.844,25.499 25.953,24.876 25.635,24.423 C25.318,23.972 24.693,23.861 24.242,24.18 C20.333,26.929 18,31.721 18,37 C18,42.279 20.333,47.071 24.241,49.819 C24.416,49.942 24.616,50.001 24.815,50.001 C25.129,50.001 25.44,49.853 25.634,49.576 C25.952,49.124 25.843,48.501 25.391,48.182 C22.066,45.845 20,41.56 20,37 C20,32.44 22.066,28.155 25.392,25.817 L25.392,25.817 Z" id="Shape" fill="#000000"></path>
        <path d="M43.568,16.88 C39.507,13.437 36,10.463 36,7 C36,6.447 35.552,6 35,6 L27,6 C26.448,6 26,6.447 26,7 C26,10.463 22.493,13.437 18.432,16.88 C12.893,21.576 6,27.421 6,37 C6,49.683 17.215,60 31,60 C44.785,60 56,49.683 56,37 C56,27.421 49.107,21.576 43.568,16.88 L43.568,16.88 Z M31,58 C18.318,58 8,48.579 8,37 C8,28.348 14.229,23.065 19.725,18.405 C23.821,14.932 27.402,11.895 27.933,8 L34.068,8 C34.598,11.896 38.179,14.933 42.276,18.405 C47.771,23.065 54,28.348 54,37 C54,48.579 43.682,58 31,58 L31,58 Z" id="Shape" fill="#000000"></path>
    </g>
</svg>