<?xml version="1.0" encoding="UTF-8" standalone="no"?>
<svg width="64px" height="64px" viewBox="0 0 64 64" version="1.1" xmlns="http://www.w3.org/2000/svg" xmlns:xlink="http://www.w3.org/1999/xlink">
    <!-- Generator: Sketch 3.7.2 (28276) - http://www.bohemiancoding.com/sketch -->
    <title>veg-pear-bite</title>
    <desc>Created with Sketch.</desc>
    <defs></defs>
    <g id="64px-Line" stroke="none" stroke-width="1" fill="none" fill-rule="evenodd">
        <g id="veg-pear-bite"></g>
        <path d="M48.656,41.854 C48.384,41.399 47.802,41.236 47.332,41.484 C47.219,41.545 47.122,41.623 47.043,41.713 C46.731,41.998 46.386,42.241 46.016,42.438 C44.805,43.079 43.434,43.177 42.05,42.717 C40.279,42.13 38.741,40.697 37.833,38.786 C36.16,35.271 37.088,31.171 39.895,29.608 C40.326,29.408 40.561,28.928 40.445,28.46 C40.368,28.148 40.297,27.845 40.226,27.548 C39.899,26.16 39.59,24.849 38.88,23.527 C37.284,20.553 35.813,18.382 32.045,18.049 C32.519,11.054 38.09,8 41,8 C41.553,8 42,7.553 42,7 C42,6.447 41.553,6 41,6 C37.598,6 33.237,8.466 31.179,13.162 C30.696,11.903 29.93,10.516 28.707,9.293 C25.518,6.104 19.274,6.003 19.011,6 C18.743,6.01 18.487,6.101 18.297,6.289 C18.107,6.477 18,6.733 18,7 C18,7.204 18.037,12.047 21.253,15.664 C23.154,17.804 26.017,18.279 28.19,18.279 C28.327,18.279 28.456,18.275 28.587,18.271 C25.799,18.964 24.507,20.942 23.12,23.527 C22.411,24.848 22.102,26.159 21.775,27.547 C21.417,29.068 21.046,30.642 20.103,32.559 C19.504,33.776 18.468,34.955 17.37,36.202 C14.978,38.92 12,42.303 12,48 C12,57.918 17.981,60 23,60 C26.573,60 27.801,59.631 28.787,59.334 C29.432,59.14 29.896,59 31,59 C32.104,59 32.568,59.14 33.213,59.334 C34.199,59.631 35.427,60 39,60 C44.019,60 50,57.918 50,48 C50,45.825 49.579,43.851 48.712,41.962 C48.696,41.926 48.678,41.89 48.656,41.854 L48.656,41.854 Z M22.747,14.336 C20.876,12.23 20.278,9.537 20.089,8.069 C21.873,8.236 25.389,8.802 27.293,10.707 C29.131,12.545 29.723,14.919 29.912,16.166 C28.27,16.37 24.69,16.521 22.747,14.336 L22.747,14.336 Z M39,58 C35.721,58 34.694,57.691 33.789,57.419 C33.073,57.203 32.397,57 31,57 C29.603,57 28.927,57.203 28.211,57.419 C27.306,57.691 26.279,58 23,58 C16.944,58 14,54.729 14,48 C14,43.058 16.477,40.243 18.871,37.522 C20.059,36.171 21.182,34.896 21.897,33.441 C22.94,31.321 23.355,29.559 23.72,28.004 C24.029,26.693 24.295,25.562 24.88,24.472 C26.55,21.363 27.633,20 31,20 C34.367,20 35.45,21.363 37.119,24.473 C37.704,25.564 37.971,26.697 38.279,28.007 C38.297,28.081 38.314,28.156 38.332,28.232 C35.076,30.506 34.024,35.439 36.026,39.647 C37.168,42.047 39.134,43.859 41.421,44.617 C43.309,45.242 45.273,45.097 46.952,44.207 C47.091,44.133 47.227,44.055 47.361,43.972 C47.79,45.239 48,46.567 48,48 C48,54.729 45.056,58 39,58 L39,58 Z" id="Shape" fill="#000000"></path>
        <path d="M24.149,34.88 C23.656,34.64 23.054,34.841 22.81,35.336 C22.351,36.27 21.469,37.199 20.536,38.184 C18.515,40.316 16,42.967 16,47.417 C15.998,47.518 15.94,49.89 16.531,52.187 C16.647,52.638 17.053,52.938 17.499,52.938 C17.582,52.938 17.666,52.928 17.749,52.907 C18.284,52.769 18.606,52.224 18.469,51.689 C17.949,49.671 17.999,47.493 18,47.445 C18,43.765 20.027,41.628 21.987,39.561 C23.028,38.462 24.011,37.426 24.605,36.219 C24.849,35.723 24.645,35.124 24.149,34.88 L24.149,34.88 Z" id="Shape" fill="#000000"></path>
        <path d="M30.688,22.062 C26.173,22.062 25.157,29.524 25.115,29.842 C25.045,30.389 25.43,30.89 25.978,30.961 C26.022,30.967 26.065,30.97 26.108,30.97 C26.603,30.97 27.033,30.603 27.098,30.099 C27.304,28.533 28.404,24.062 30.688,24.062 C31.241,24.062 31.688,23.615 31.688,23.062 C31.688,22.509 31.24,22.062 30.688,22.062 L30.688,22.062 Z" id="Shape" fill="#000000"></path>
    </g>
</svg>