<?xml version="1.0" encoding="UTF-8" standalone="no"?>
<svg width="64px" height="64px" viewBox="0 0 64 64" version="1.1" xmlns="http://www.w3.org/2000/svg" xmlns:xlink="http://www.w3.org/1999/xlink">
    <!-- Generator: Sketch 3.7.2 (28276) - http://www.bohemiancoding.com/sketch -->
    <title>veg-pineapple</title>
    <desc>Created with Sketch.</desc>
    <defs></defs>
    <g id="64px-Line" stroke="none" stroke-width="1" fill="none" fill-rule="evenodd">
        <g id="veg-pineapple"></g>
        <path d="M41.558,19.907 C41.551,19.904 41.543,19.901 41.536,19.898 C39.94,19.238 38.115,18.722 36.114,18.399 C36.755,15.677 40.166,12.79 41.567,11.823 C41.959,11.553 42.106,11.044 41.919,10.606 C41.732,10.168 41.259,9.921 40.796,10.021 C40.59,10.063 36.263,10.986 32.096,13.325 C32.468,9.699 33.82,7.573 33.836,7.549 C34.138,7.088 34.011,6.47 33.551,6.166 C33.091,5.861 32.47,5.987 32.166,6.448 C32.087,6.567 30.449,9.102 30.077,13.427 C25.895,11.035 21.482,10.079 21.204,10.022 C20.739,9.922 20.268,10.169 20.081,10.607 C19.893,11.045 20.041,11.554 20.433,11.824 C21.834,12.79 25.245,15.678 25.886,18.4 C23.887,18.723 22.065,19.238 20.47,19.897 C20.458,19.901 20.448,19.906 20.436,19.911 C16.498,21.543 14,24.086 14,27 L14,44 C14,48.311 15.829,52.221 18.784,55.101 C18.802,55.122 18.81,55.15 18.83,55.17 C18.847,55.187 18.87,55.193 18.888,55.209 C21.075,57.302 23.87,58.819 26.998,59.534 C27.033,59.549 27.069,59.55 27.105,59.56 C28.358,59.838 29.658,60 31,60 C32.343,60 33.643,59.837 34.896,59.559 C34.931,59.549 34.966,59.548 35,59.534 C38.128,58.82 40.923,57.302 43.11,55.209 C43.129,55.193 43.152,55.187 43.17,55.169 C43.191,55.148 43.199,55.12 43.217,55.098 C46.172,52.219 48,48.31 48,44 L48,27 C48,24.085 45.5,21.541 41.558,19.907 L41.558,19.907 Z M46,44 C46,44.188 45.978,44.37 45.97,44.555 L44.414,43 L46,41.414 L46,44 L46,44 Z M42.444,53.03 L38.414,49 L43,44.414 L45.632,47.045 C45.096,49.29 43.984,51.332 42.444,53.03 L42.444,53.03 Z M34.914,57.5 L32.414,55 L37,50.414 L40.995,54.409 C39.277,55.849 37.206,56.92 34.914,57.5 L34.914,57.5 Z M21.005,54.409 L25,50.414 L29.586,55 L27.086,57.5 C24.794,56.92 22.724,55.849 21.005,54.409 L21.005,54.409 Z M16.368,47.045 L19,44.414 L23.586,49 L19.556,53.03 C18.016,51.333 16.904,49.291 16.368,47.045 L16.368,47.045 Z M17.586,31 L16,32.586 L16,29.414 L17.586,31 L17.586,31 Z M28.474,20.112 L25,23.586 L22.642,21.228 C24.374,20.673 26.357,20.288 28.474,20.112 L28.474,20.112 Z M39.358,21.228 L37,23.586 L33.526,20.112 C35.643,20.288 37.626,20.673 39.358,21.228 L39.358,21.228 Z M31,20.414 L35.586,25 L31,29.586 L26.414,25 L31,20.414 L31,20.414 Z M46,38.586 L43,41.586 L38.414,37 L43,32.414 L46,35.414 L46,38.586 L46,38.586 Z M26.414,37 L31,32.414 L35.586,37 L31,41.586 L26.414,37 L26.414,37 Z M29.586,43 L25,47.586 L20.414,43 L25,38.414 L29.586,43 L29.586,43 Z M37,38.414 L41.586,43 L37,47.586 L32.414,43 L37,38.414 L37,38.414 Z M37,35.586 L32.414,31 L37,26.414 L41.586,31 L37,35.586 L37,35.586 Z M29.586,31 L25,35.586 L20.414,31 L25,26.414 L29.586,31 L29.586,31 Z M23.586,37 L19,41.586 L16,38.586 L16,35.414 L19,32.414 L23.586,37 L23.586,37 Z M16,44 L16,41.414 L17.586,43 L16.03,44.555 C16.022,44.37 16,44.188 16,44 L16,44 Z M26.414,49 L31,44.414 L35.586,49 L31,53.586 L26.414,49 L26.414,49 Z M44.414,31 L46,29.414 L46,32.586 L44.414,31 L44.414,31 Z M45.958,26.628 L43,29.586 L38.414,25 L41.4,22.014 C44.034,23.212 45.745,24.843 45.958,26.628 L45.958,26.628 Z M34.521,16.841 C33.982,16.267 33.402,15.73 32.783,15.239 C34.171,14.436 35.605,13.794 36.89,13.304 C35.957,14.33 35.062,15.542 34.521,16.841 L34.521,16.841 Z M25.113,13.308 C27.639,14.272 30.735,15.817 32.915,18.058 C32.287,18.022 31.649,18 31,18 C29.928,18 28.886,18.057 27.874,18.153 C27.513,16.365 26.352,14.67 25.113,13.308 L25.113,13.308 Z M20.6,22.014 L23.586,25 L19,29.586 L16.042,26.628 C16.255,24.843 17.966,23.212 20.6,22.014 L20.6,22.014 Z M29.486,57.928 L31,56.414 L32.514,57.929 C32.016,57.975 31.511,58 31,58 C30.489,58 29.984,57.975 29.486,57.928 L29.486,57.928 Z" id="Shape" fill="#000000"></path>
    </g>
</svg>