<?xml version="1.0" encoding="UTF-8" standalone="no"?>
<svg width="64px" height="64px" viewBox="0 0 64 64" version="1.1" xmlns="http://www.w3.org/2000/svg" xmlns:xlink="http://www.w3.org/1999/xlink">
    <!-- Generator: Sketch 3.7.2 (28276) - http://www.bohemiancoding.com/sketch -->
    <title>veg-mushroom-cut</title>
    <desc>Created with Sketch.</desc>
    <defs></defs>
    <g id="64px-Line" stroke="none" stroke-width="1" fill="none" fill-rule="evenodd">
        <g id="veg-mushroom-cut"></g>
        <path d="M31,6 C13.274,6 4,17.57 4,29 C4,32.265 4.98,34.892 6.913,36.809 C10.136,40.005 14.811,40.003 15,40 C17.757,40 20,37.757 20,35 C20,32.876 18.669,31.058 16.798,30.334 C17.264,30.144 17.969,30 19,30 C21.785,30 22,33.73 22,39 C22,42.532 21.169,46.069 20.435,49.189 C19.478,53.259 18.787,56.201 20.293,57.707 C22.474,59.888 29.429,60.001 30.836,60.001 L31.163,60.001 C32.571,60.001 39.526,59.888 41.706,57.707 C43.212,56.201 42.52,53.26 41.563,49.188 C40.831,46.068 40,42.532 40,39 C40,33.563 40.209,30 43,30 C44.036,30 44.743,30.145 45.209,30.332 C43.334,31.054 42,32.874 42,35 C42,37.757 44.243,40 46.992,40 C47.2,40.003 51.867,40.002 55.087,36.809 C57.02,34.892 58,32.265 58,29 C58,17.57 48.726,6 31,6 L31,6 Z M53.69,35.377 C51.083,37.975 47.082,38 47.001,38 L47,38 C45.346,38 44,36.654 44,35 C44,33.346 45.346,32 47,32 C47.552,32 48,31.553 48,31 C48,30.878 47.943,28 43,28 C38,28 38,34.1 38,39 C38,42.764 38.897,46.58 39.618,49.646 C40.271,52.424 41.012,55.574 40.293,56.292 C39.008,57.577 33.915,58.034 31.008,57.999 C31.002,57.999 30.996,58 30.992,57.999 C28.089,58.044 22.993,57.579 21.707,56.292 C20.989,55.573 21.729,52.425 22.382,49.646 C23.103,46.58 24,42.765 24,39 C24,34.1 24,28 19,28 C14.057,28 14,30.878 14,31 C14,31.553 14.448,32 15,32 C16.654,32 18,33.346 18,35 C18,36.654 16.654,38 14.992,38 C14.942,37.989 10.963,38.008 8.322,35.389 C6.781,33.86 6,31.711 6,29 C6,15.213 18.577,8 31,8 C43.423,8 56,15.213 56,29 C56,31.705 55.223,33.851 53.69,35.377 L53.69,35.377 Z" id="Shape" fill="#000000"></path>
    </g>
</svg>