<?xml version="1.0" encoding="UTF-8" standalone="no"?>
<svg width="64px" height="64px" viewBox="0 0 64 64" version="1.1" xmlns="http://www.w3.org/2000/svg" xmlns:xlink="http://www.w3.org/1999/xlink">
    <!-- Generator: Sketch 3.7.2 (28276) - http://www.bohemiancoding.com/sketch -->
    <title>veg-brocolli</title>
    <desc>Created with Sketch.</desc>
    <defs></defs>
    <g id="64px-Line" stroke="none" stroke-width="1" fill="none" fill-rule="evenodd">
        <g id="veg-brocolli"></g>
        <path d="M14.548,37.977 C23.683,47.499 23.998,58.901 24,59.017 C24.01,59.562 24.455,60 25,60 L39,60 C39.28,60 39.546,59.883 39.736,59.677 C39.925,59.471 40.02,59.196 39.997,58.917 C39.987,58.804 39.153,47.668 45.494,39.975 C50.226,39.716 54,35.796 54,31 C54,30.969 53.995,30.94 53.995,30.909 C56.441,29.489 58,26.857 58,24 C58,19.589 54.411,16 50,16 C50,11.589 46.411,8 42,8 C39.518,8 37.253,9.137 35.754,11.026 C33.551,7.96 29.955,6 26,6 C20.052,6 15.114,10.355 14.174,16.042 C8.494,16.467 4,21.213 4,27 C4,32.913 8.693,37.737 14.548,37.977 L14.548,37.977 Z M37.953,58 L25.943,58 C25.717,55.341 24.584,47.791 19.097,40.301 C20.471,41.371 22.175,42 24,42 C24.81,42 25.592,41.878 26.331,41.658 C28.472,44.978 30.042,49.293 30.059,49.34 C30.203,49.738 30.581,50 30.999,50 C31.026,50 31.054,49.999 31.082,49.997 C31.532,49.959 31.902,49.625 31.983,49.181 C31.993,49.125 32.978,43.86 35.006,40 C36.676,39.998 38.207,39.151 39.122,37.823 C40.253,38.795 41.62,39.467 43.112,39.781 C38.181,46.577 37.884,55.023 37.953,58 L37.953,58 Z M30.992,37.959 C31.506,38.653 32.186,39.213 32.984,39.567 C31.968,41.629 31.226,43.931 30.739,45.725 C30.088,44.267 29.199,42.483 28.171,40.848 C29.341,40.145 30.312,39.15 30.992,37.959 L30.992,37.959 Z M14.002,18.059 C14.007,19.152 14.158,20.234 14.453,21.276 C14.578,21.716 14.978,22.004 15.414,22.004 C15.504,22.004 15.596,21.991 15.687,21.965 C16.219,21.815 16.527,21.262 16.376,20.731 C16.127,19.848 16,18.929 16,18 C16,12.486 20.486,8 26,8 C30.73,8 34.851,11.357 35.797,15.983 C35.907,16.524 36.436,16.876 36.977,16.762 C37.519,16.652 37.867,16.123 37.756,15.582 C37.565,14.646 37.257,13.759 36.864,12.922 C37.946,11.114 39.867,10 42,10 C45.309,10 48,12.691 48,16 C48,17.231 47.63,18.414 46.93,19.42 C46.615,19.874 46.727,20.497 47.18,20.812 C47.354,20.933 47.553,20.991 47.75,20.991 C48.066,20.991 48.378,20.841 48.572,20.562 C49.112,19.784 49.486,18.923 49.721,18.021 C49.815,18.017 49.907,18 50,18 C53.309,18 56,20.691 56,24 C56,25.856 55.12,27.584 53.694,28.708 C53.551,28.164 53.367,27.63 53.121,27.116 C52.882,26.618 52.285,26.408 51.787,26.646 C51.289,26.885 51.079,27.482 51.317,27.98 C51.771,28.926 52,29.942 52,31 C52,34.86 48.86,38 45,38 C42.85,38 40.888,37.046 39.586,35.463 C39.571,35.445 39.558,35.426 39.541,35.409 C39.115,34.88 38.76,34.284 38.498,33.628 C38.293,33.115 37.711,32.866 37.198,33.071 C36.685,33.276 36.436,33.858 36.641,34.371 C36.918,35.064 37.292,35.691 37.714,36.276 C37.226,37.311 36.17,38 35,38 C33.346,38 32,36.654 32,35 C32,34.926 32.002,34.854 32.007,34.782 C32.013,34.697 31.989,34.618 31.975,34.537 C31.967,34.495 31.971,34.452 31.958,34.412 C31.929,34.322 31.879,34.245 31.827,34.168 C31.808,34.139 31.797,34.105 31.775,34.078 C31.716,34.007 31.641,33.955 31.565,33.903 C31.534,33.882 31.511,33.853 31.478,33.836 C31.403,33.796 31.317,33.78 31.232,33.76 C31.189,33.75 31.153,33.726 31.108,33.721 C31.104,33.721 31.1,33.722 31.096,33.722 C31.089,33.722 31.084,33.718 31.077,33.717 C30.976,33.709 30.883,33.732 30.789,33.753 C30.763,33.759 30.735,33.755 30.709,33.763 C30.605,33.795 30.513,33.851 30.427,33.914 C30.41,33.927 30.388,33.933 30.372,33.946 C30.31,33.998 30.265,34.066 30.217,34.132 C30.187,34.173 30.149,34.206 30.125,34.251 C30.101,34.297 30.094,34.352 30.078,34.403 C30.054,34.473 30.02,34.538 30.012,34.615 C29.706,37.635 27.065,40 24,40 C21.563,40 19.386,38.545 18.453,36.293 C18.436,36.253 18.404,36.226 18.383,36.189 C18.348,36.128 18.315,36.071 18.269,36.02 C18.226,35.971 18.177,35.933 18.126,35.895 C18.076,35.856 18.028,35.82 17.971,35.792 C17.912,35.762 17.851,35.745 17.787,35.727 C17.728,35.71 17.671,35.696 17.609,35.691 C17.539,35.685 17.471,35.693 17.401,35.703 C17.36,35.708 17.32,35.699 17.278,35.71 C16.539,35.902 15.772,36 15,36 C10.038,36 6,31.962 6,27 C6,22.375 9.508,18.557 14.002,18.059 L14.002,18.059 Z" id="Shape" fill="#000000"></path>
        <path d="M19,28 C19.552,28 20,27.552 20,27 C20,23.14 23.14,20 27,20 C27.552,20 28,19.552 28,19 C28,18.448 27.552,18 27,18 C22.038,18 18,22.038 18,27 C18,27.552 18.448,28 19,28 L19,28 Z" id="Shape" fill="#000000"></path>
    </g>
</svg>