<?xml version="1.0" encoding="UTF-8" standalone="no"?>
<svg width="44px" height="44px" viewBox="0 0 44 44" version="1.1" xmlns="http://www.w3.org/2000/svg" xmlns:xlink="http://www.w3.org/1999/xlink">
    <!-- Generator: Sketch 3.7.2 (28276) - http://www.bohemiancoding.com/sketch -->
    <title>veg-apple-core</title>
    <desc>Created with Sketch.</desc>
    <defs></defs>
    <g id="44px-Line" stroke="none" stroke-width="1" fill="none" fill-rule="evenodd">
        <g id="veg-apple-core"></g>
        <path d="M34,27 C34,24.107 32.873,22.393 31.966,21.015 C31.297,19.997 30.769,19.194 30.769,18.116 C30.769,15.427 33.322,12.153 33.348,12.12 C33.661,11.723 33.626,11.15 33.268,10.792 C33.187,10.711 33.093,10.645 32.989,10.596 C31.743,10.005 30.427,9.694 29.182,9.694 C26.95,9.694 25.763,10.364 24.715,10.955 C23.93,11.398 23.222,11.789 22.049,11.936 C22.535,6.224 26.8,2 29,2 C29.552,2 30,1.553 30,1 C30,0.447 29.552,-1.74456803e-14 29,-1.74456803e-14 C26.411,-1.74456803e-14 23.335,2.744 21.532,6.527 C21.156,5.34 20.48,3.926 19.248,2.711 C16.587,0.085 11.236,0.002 11.01,-1.74456803e-14 C10.747,-0.021 10.47,0.108 10.28,0.307 C10.09,0.506 9.988,0.774 10.002,1.049 C10.01,1.216 10.232,5.174 12.894,8.131 C14.494,9.907 16.893,10.302 18.707,10.302 C19.325,10.302 19.869,10.256 20.296,10.203 C20.18,10.776 20.095,11.357 20.049,11.945 C18.817,11.808 18.091,11.407 17.285,10.953 C16.238,10.362 15.05,9.692 12.818,9.692 C11.449,9.692 10.012,10.063 8.664,10.766 C8.389,10.91 8.196,11.173 8.142,11.479 C8.088,11.785 8.18,12.099 8.389,12.329 C8.417,12.36 11.231,15.468 11.231,18.115 C11.231,19.193 10.703,19.997 10.034,21.014 C9.127,22.393 8,24.107 8,27 C8,29.816 9.042,31.938 9.962,33.81 C10.643,35.197 11.231,36.393 11.231,37.568 C11.231,39.931 10.244,40.621 10.167,40.672 C9.885,40.833 9.698,41.123 9.668,41.447 C9.637,41.782 9.776,42.109 10.039,42.319 C11.432,43.435 12.765,44.001 14,44.001 C16.439,44.001 17.562,43.319 18.464,42.772 C19.202,42.324 19.735,42.001 21,42.001 C22.265,42.001 22.798,42.324 23.536,42.772 C24.438,43.319 25.561,44.001 28,44.001 C29.235,44.001 30.568,43.436 31.961,42.319 C32.214,42.117 32.337,41.796 32.319,41.472 C32.301,41.148 32.111,40.845 31.837,40.673 C31.794,40.646 30.769,39.975 30.769,37.568 C30.769,36.393 31.357,35.197 32.038,33.81 C32.958,31.938 34,29.816 34,27 L34,27 Z M14.379,6.793 C12.981,5.24 12.398,3.283 12.158,2.074 C13.866,2.253 16.485,2.795 17.842,4.135 C19.212,5.488 19.714,7.213 19.896,8.231 C18.509,8.376 15.831,8.403 14.379,6.793 L14.379,6.793 Z M30.243,32.928 C29.485,34.471 28.769,35.928 28.769,37.568 C28.769,39.453 29.278,40.658 29.796,41.397 C29.134,41.79 28.516,42 28,42 C26.12,42 25.404,41.565 24.574,41.062 C23.754,40.565 22.824,40 21,40 C19.176,40 18.246,40.564 17.426,41.062 C16.596,41.565 15.88,42 14,42 C13.484,42 12.866,41.79 12.204,41.397 C12.722,40.658 13.231,39.452 13.231,37.567 C13.231,35.927 12.515,34.47 11.757,32.927 C10.893,31.17 10,29.352 10,27 C10,24.706 10.867,23.388 11.705,22.113 C12.455,20.972 13.231,19.792 13.231,18.115 C13.231,15.782 11.735,13.388 10.736,12.05 C11.437,11.815 12.142,11.693 12.819,11.693 C14.526,11.693 15.349,12.158 16.303,12.696 C17.387,13.307 18.615,14.001 21.001,14.001 C23.387,14.001 24.615,13.308 25.699,12.696 C26.653,12.158 27.476,11.693 29.183,11.693 C29.774,11.693 30.392,11.788 31.011,11.971 C30.118,13.344 28.771,15.801 28.771,18.116 C28.771,19.793 29.547,20.973 30.297,22.114 C31.135,23.388 32.002,24.707 32.002,27.001 C32,29.352 31.107,31.17 30.243,32.928 L30.243,32.928 Z" id="Shape" fill="#000000"></path>
        <path d="M21,18 C20.448,18 20,18.447 20,19 L20,35 C20,35.553 20.448,36 21,36 C21.552,36 22,35.553 22,35 L22,19 C22,18.447 21.552,18 21,18 L21,18 Z" id="Shape" fill="#000000"></path>
        <path d="M17,24 C17.552,24 18,23.553 18,23 C18,22.447 17.552,22 17,22 C15.318,22 14,23.757 14,26 C14,28.243 15.318,30 17,30 C17.552,30 18,29.553 18,29 C18,28.447 17.552,28 17,28 C16.592,28 16,27.221 16,26 C16,24.779 16.592,24 17,24 L17,24 Z" id="Shape" fill="#000000"></path>
        <path d="M25,22 C24.448,22 24,22.447 24,23 C24,23.553 24.448,24 25,24 C25.408,24 26,24.779 26,26 C26,27.221 25.408,28 25,28 C24.448,28 24,28.447 24,29 C24,29.553 24.448,30 25,30 C26.682,30 28,28.243 28,26 C28,23.757 26.682,22 25,22 L25,22 Z" id="Shape" fill="#000000"></path>
    </g>
</svg>