<?xml version="1.0" encoding="UTF-8" standalone="no"?>
<svg width="64px" height="64px" viewBox="0 0 64 64" version="1.1" xmlns="http://www.w3.org/2000/svg" xmlns:xlink="http://www.w3.org/1999/xlink">
    <!-- Generator: Sketch 3.7.2 (28276) - http://www.bohemiancoding.com/sketch -->
    <title>veg-eggplant</title>
    <desc>Created with Sketch.</desc>
    <defs></defs>
    <g id="64px-Line" stroke="none" stroke-width="1" fill="none" fill-rule="evenodd">
        <g id="veg-eggplant"></g>
        <path d="M54.617,14.103 C55.215,12.926 56.163,10.509 56.163,7 C56.163,6.448 55.715,6 55.163,6 C54.611,6 54.163,6.448 54.163,7 C54.163,9.929 53.42,11.957 52.931,12.985 C51.576,12.33 49.945,12 48,12 C43.46,12 41.148,14.832 38.913,17.57 C37.211,19.655 35.451,21.811 32.593,23.087 C31.176,23.72 29.209,24.231 26.931,24.823 C18.596,26.989 6,30.264 6,45 C6,53.972 12.832,60 23,60 C45.979,60 58,37.214 58,25 C58,19.697 56.917,16.14 54.617,14.103 L54.617,14.103 Z M23,58 C14.028,58 8,52.776 8,45 C8,31.81 19.232,28.891 27.434,26.758 C29.797,26.144 31.838,25.613 33.408,24.913 C34.313,24.509 35.113,24.027 35.845,23.501 C37.418,24.454 39.43,23.431 40.956,22.65 C41.701,22.269 43.084,21.561 43.392,21.794 C43.798,22.106 43.59,23.592 43.438,24.678 C43.174,26.568 42.875,28.71 44.419,29.814 C46.148,31.051 47.851,29.183 49.219,27.684 C49.856,26.987 51.188,25.542 51.527,25.799 C52.109,26.235 52.187,27.784 52.256,29.151 C52.352,31.049 52.473,33.345 53.921,34.686 C49.693,45.589 39.111,58 23,58 L23,58 Z M54.732,32.362 C54.378,31.471 54.312,30.25 54.252,29.05 C54.157,27.154 54.058,25.195 52.723,24.197 C50.925,22.851 49.158,24.783 47.741,26.336 C47.178,26.953 46,28.25 45.581,28.187 C45.021,27.787 45.241,26.217 45.417,24.955 C45.673,23.123 45.938,21.228 44.608,20.207 C43.301,19.206 41.647,20.051 40.045,20.87 C39.149,21.328 38.409,21.682 37.822,21.82 C38.812,20.843 39.665,19.812 40.461,18.836 C42.666,16.135 44.408,14.001 47.999,14.001 C49.843,14.001 51.447,14.283 52.727,15.139 C52.736,15.146 52.74,15.156 52.749,15.162 C52.758,15.168 52.768,15.17 52.777,15.176 C54.801,16.564 55.999,19.424 55.999,25.001 C56,27.142 55.571,29.672 54.732,32.362 L54.732,32.362 Z" id="Shape" fill="#000000"></path>
        <path d="M22.767,31.028 C15.924,32.67 12,37.763 12,45 C12,45.552 12.448,46 13,46 C13.552,46 14,45.552 14,45 C14,38.765 17.365,34.381 23.233,32.972 C23.77,32.843 24.101,32.304 23.972,31.766 C23.844,31.23 23.307,30.897 22.767,31.028 L22.767,31.028 Z" id="Shape" fill="#000000"></path>
    </g>
</svg>