<?xml version="1.0" encoding="UTF-8" standalone="no"?>
<svg width="64px" height="64px" viewBox="0 0 64 64" version="1.1" xmlns="http://www.w3.org/2000/svg" xmlns:xlink="http://www.w3.org/1999/xlink">
    <!-- Generator: Sketch 3.7.2 (28276) - http://www.bohemiancoding.com/sketch -->
    <title>veg-cauliflower</title>
    <desc>Created with Sketch.</desc>
    <defs></defs>
    <g id="64px-Line" stroke="none" stroke-width="1" fill="none" fill-rule="evenodd">
        <g id="veg-cauliflower"></g>
        <path d="M55.524,19.702 C55.485,19.621 55.426,19.554 55.366,19.486 C55.339,19.456 55.32,19.419 55.29,19.392 C55.238,19.346 55.171,19.317 55.109,19.282 C55.056,19.253 55.009,19.217 54.952,19.197 C54.941,19.193 54.934,19.185 54.923,19.181 C54.244,18.973 53.556,18.796 52.863,18.643 C52.223,15.424 49.345,12.999 45.999,12.999 C45.902,12.999 45.806,13.001 45.71,13.005 C44.84,10.095 42.107,8 39,8 C38.097,8 37.203,8.175 36.372,8.512 C35.049,6.927 33.089,6 31,6 C28.9,6 26.949,6.925 25.628,8.511 C24.797,8.175 23.901,8 23,8 C19.893,8 17.16,10.095 16.289,13.006 C16.193,13.002 16.097,13 16,13 C12.655,13 9.775,15.425 9.136,18.643 C8.444,18.796 7.757,18.973 7.08,19.181 C7.07,19.184 7.063,19.192 7.053,19.196 C6.983,19.219 6.924,19.262 6.861,19.3 C6.813,19.33 6.759,19.351 6.717,19.388 C6.673,19.427 6.642,19.479 6.605,19.526 C6.561,19.582 6.513,19.633 6.481,19.696 C6.476,19.706 6.467,19.712 6.463,19.721 C4.828,23.269 4,27.063 4,31 C4,45.888 16.112,58 31,58 C33.736,58 36.377,57.588 38.867,56.828 C38.887,56.823 38.907,56.82 38.927,56.813 C38.94,56.809 38.952,56.804 38.965,56.8 C49.977,53.393 58,43.116 58,31 C58,27.063 57.172,23.269 55.538,19.721 C55.535,19.713 55.528,19.709 55.524,19.702 L55.524,19.702 Z M16,15 C16.3,15 16.597,15.026 16.883,15.078 C17.445,15.184 18.015,14.764 18.068,14.185 C18.068,14.178 18.069,14.172 18.069,14.165 C18.469,11.784 20.575,9.999 23.001,9.999 C23.833,9.999 24.657,10.208 25.4,10.616 C25.622,10.76 25.896,10.807 26.154,10.751 C26.414,10.694 26.64,10.536 26.783,10.313 C27.708,8.865 29.285,8 31.001,8 C32.665,8 34.216,8.824 35.099,10.124 L35.17,10.255 C35.298,10.49 35.516,10.664 35.774,10.738 C36.031,10.81 36.307,10.779 36.542,10.646 C37.288,10.223 38.139,10 39.002,10 C41.454,10 43.579,11.824 43.944,14.244 C43.985,14.511 44.132,14.751 44.351,14.908 C44.57,15.064 44.839,15.126 45.111,15.079 C45.401,15.026 45.701,15 46.002,15 C48.112,15 49.945,16.359 50.664,18.258 C49.452,18.093 48.23,18 47,18 C41.17,18 35.663,19.833 31.004,23.271 C26.522,19.961 20.987,18 15,18 C13.769,18 12.547,18.093 11.337,18.257 C12.056,16.359 13.89,15 16,15 L16,15 Z M6,31 C6,27.509 6.711,24.141 8.098,20.978 C10.333,20.336 12.65,20 15,20 C28.785,20 40,31.215 40,45 C40,48.343 39.347,51.573 38.074,54.62 C34.18,53.219 17.575,46.197 11.961,26.723 C11.809,26.194 11.259,25.888 10.723,26.039 C10.193,26.192 9.886,26.746 10.039,27.277 C15.16,45.039 29.012,52.912 35.241,55.632 C33.862,55.87 32.446,56 31,56 C17.215,56 6,44.785 6,31 L6,31 Z M40.397,54.161 C41.455,51.235 42,48.164 42,45 C42,44.974 41.998,44.948 41.998,44.922 C46.668,39.921 50.025,33.99 51.961,27.277 C52.114,26.746 51.808,26.192 51.277,26.039 C50.743,25.889 50.191,26.194 50.039,26.723 C48.377,32.488 45.622,37.649 41.842,42.1 C41.093,35.119 37.67,28.93 32.623,24.57 C36.843,21.588 41.781,20 47,20 C49.348,20 51.666,20.337 53.902,20.978 C55.289,24.142 56,27.509 56,31 C56,41.462 49.538,50.438 40.397,54.161 L40.397,54.161 Z" id="Shape" fill="#000000"></path>
        <path d="M21,16 C21.553,16 22,15.553 22,15 C22,15.553 22.447,16 23,16 C23.553,16 24,15.553 24,15 C24,13.897 23.103,13 22,13 C20.897,13 20,13.897 20,15 C20,15.553 20.447,16 21,16 L21,16 Z" id="Shape" fill="#000000"></path>
        <path d="M29,13 C29.553,13 30,12.553 30,12 C30,12.553 30.447,13 31,13 C31.553,13 32,12.553 32,12 C32,10.897 31.103,10 30,10 C28.897,10 28,10.897 28,12 C28,12.553 28.447,13 29,13 L29,13 Z" id="Shape" fill="#000000"></path>
        <path d="M39,17 C39.553,17 40,16.553 40,16 C40,16.553 40.447,17 41,17 C41.553,17 42,16.553 42,16 C42,14.897 41.103,14 40,14 C38.897,14 38,14.897 38,16 C38,16.553 38.447,17 39,17 L39,17 Z" id="Shape" fill="#000000"></path>
        <path d="M33,19 C33.553,19 34,18.553 34,18 C34,18.553 34.447,19 35,19 C35.553,19 36,18.553 36,18 C36,16.897 35.103,16 34,16 C32.897,16 32,16.897 32,18 C32,18.553 32.447,19 33,19 L33,19 Z" id="Shape" fill="#000000"></path>
    </g>
</svg>