<?xml version="1.0" encoding="UTF-8" standalone="no"?>
<svg width="44px" height="44px" viewBox="0 0 44 44" version="1.1" xmlns="http://www.w3.org/2000/svg" xmlns:xlink="http://www.w3.org/1999/xlink">
    <!-- Generator: Sketch 3.7.2 (28276) - http://www.bohemiancoding.com/sketch -->
    <title>veg-apple-cut</title>
    <desc>Created with Sketch.</desc>
    <defs></defs>
    <g id="44px-Line" stroke="none" stroke-width="1" fill="none" fill-rule="evenodd">
        <g id="veg-apple-cut"></g>
        <path d="M21,36 C21.552,36 22,35.552 22,35 L22,19 C22,18.448 21.552,18 21,18 C20.448,18 20,18.448 20,19 L20,35 C20,35.552 20.448,36 21,36 L21,36 Z" id="Shape" fill="#000000"></path>
        <path d="M17,30 C17.552,30 18,29.552 18,29 C18,28.448 17.552,28 17,28 C16.592,28 16,27.221 16,26 C16,24.779 16.592,24 17,24 C17.552,24 18,23.552 18,23 C18,22.448 17.552,22 17,22 C15.318,22 14,23.757 14,26 C14,28.243 15.318,30 17,30 L17,30 Z" id="Shape" fill="#000000"></path>
        <path d="M25,28 C24.448,28 24,28.448 24,29 C24,29.552 24.448,30 25,30 C26.682,30 28,28.243 28,26 C28,23.757 26.682,22 25,22 C24.448,22 24,22.448 24,23 C24,23.552 24.448,24 25,24 C25.408,24 26,24.779 26,26 C26,27.221 25.408,28 25,28 L25,28 Z" id="Shape" fill="#000000"></path>
        <path d="M14,44 C16.439,44 17.562,43.319 18.464,42.771 C19.202,42.324 19.735,42 21,42 C22.265,42 22.798,42.324 23.536,42.771 C24.438,43.319 25.561,44 28,44 C33.018,44 40,33.922 40,24 C40,18.275 38,14.898 36.323,13.073 C34.378,10.956 31.708,9.693 29.182,9.693 C26.95,9.693 25.763,10.363 24.715,10.954 C23.93,11.397 23.222,11.788 22.049,11.935 C22.535,6.223 26.8,2 29,2 C29.552,2 30,1.552 30,1 C30,0.448 29.552,0 29,0 C26.411,0 23.335,2.744 21.532,6.527 C21.156,5.34 20.479,3.927 19.248,2.712 C16.587,0.085 11.236,0.003 11.01,0 C10.747,0.017 10.47,0.109 10.28,0.307 C10.089,0.506 9.988,0.774 10.002,1.049 C10.01,1.216 10.232,5.175 12.894,8.131 C14.494,9.908 16.893,10.302 18.707,10.302 C19.326,10.302 19.869,10.256 20.297,10.203 C20.181,10.776 20.096,11.357 20.05,11.946 C18.818,11.809 18.092,11.409 17.286,10.954 C16.239,10.363 15.051,9.693 12.819,9.693 C10.293,9.693 7.623,10.957 5.678,13.073 C4,14.898 2,18.275 2,24 C2,33.922 8.982,44 14,44 L14,44 Z M14.379,6.792 C12.981,5.24 12.397,3.283 12.158,2.074 C13.866,2.253 16.485,2.795 17.842,4.135 C19.214,5.489 19.715,7.218 19.897,8.235 C18.516,8.384 15.844,8.419 14.379,6.792 L14.379,6.792 Z M12.818,11.692 C14.525,11.692 15.348,12.157 16.302,12.695 C17.386,13.307 18.614,14 21,14 C23.386,14 24.614,13.307 25.698,12.695 C26.652,12.157 27.475,11.692 29.182,11.692 C32.591,11.692 38,15.033 38,24 C38,33.105 31.673,42 28,42 C26.12,42 25.404,41.565 24.574,41.062 C23.754,40.564 22.825,40 21,40 C19.175,40 18.246,40.564 17.426,41.062 C16.596,41.565 15.88,42 14,42 C10.327,42 4,33.105 4,24 C4,15.034 9.409,11.692 12.818,11.692 L12.818,11.692 Z" id="Shape" fill="#000000"></path>
    </g>
</svg>