<?xml version="1.0" encoding="UTF-8" standalone="no"?>
<svg width="64px" height="64px" viewBox="0 0 64 64" version="1.1" xmlns="http://www.w3.org/2000/svg" xmlns:xlink="http://www.w3.org/1999/xlink">
    <!-- Generator: Sketch 3.7.2 (28276) - http://www.bohemiancoding.com/sketch -->
    <title>veg-grapes</title>
    <desc>Created with Sketch.</desc>
    <defs></defs>
    <g id="64px-Line" stroke="none" stroke-width="1" fill="none" fill-rule="evenodd">
        <g id="veg-grapes"></g>
        <path d="M23,28.5 C23,24.916 20.084,22 16.5,22 C12.916,22 10,24.916 10,28.5 C10,32.084 12.916,35 16.5,35 C20.084,35 23,32.084 23,28.5 L23,28.5 Z M12,28.5 C12,26.019 14.019,24 16.5,24 C18.981,24 21,26.019 21,28.5 C21,30.981 18.981,33 16.5,33 C14.019,33 12,30.981 12,28.5 L12,28.5 Z" id="Shape" fill="#000000"></path>
        <path d="M24,29 C24,32.859 27.14,36 31,36 C34.86,36 38,32.859 38,29 C38,25.141 34.86,22 31,22 C27.14,22 24,25.141 24,29 L24,29 Z M31,24 C33.757,24 36,26.243 36,29 C36,31.757 33.757,34 31,34 C28.243,34 26,31.757 26,29 C26,26.243 28.243,24 31,24 L31,24 Z" id="Shape" fill="#000000"></path>
        <path d="M45.5,22 C41.916,22 39,24.916 39,28.5 C39,32.084 41.916,35 45.5,35 C49.084,35 52,32.084 52,28.5 C52,24.916 49.084,22 45.5,22 L45.5,22 Z M45.5,33 C43.019,33 41,30.981 41,28.5 C41,26.019 43.019,24 45.5,24 C47.981,24 50,26.019 50,28.5 C50,30.981 47.981,33 45.5,33 L45.5,33 Z" id="Shape" fill="#000000"></path>
        <path d="M39,34 C35.14,34 32,37.141 32,41 C32,44.859 35.14,48 39,48 C42.86,48 46,44.859 46,41 C46,37.141 42.86,34 39,34 L39,34 Z M39,46 C36.243,46 34,43.757 34,41 C34,38.243 36.243,36 39,36 C41.757,36 44,38.243 44,41 C44,43.757 41.757,46 39,46 L39,46 Z" id="Shape" fill="#000000"></path>
        <path d="M30,41 C30,37.141 26.86,34 23,34 C19.14,34 16,37.141 16,41 C16,44.859 19.14,48 23,48 C26.86,48 30,44.859 30,41 L30,41 Z M23,46 C20.243,46 18,43.757 18,41 C18,38.243 20.243,36 23,36 C25.757,36 28,38.243 28,41 C28,43.757 25.757,46 23,46 L23,46 Z" id="Shape" fill="#000000"></path>
        <path d="M31,46 C27.14,46 24,49.141 24,53 C24,56.859 27.14,60 31,60 C34.86,60 38,56.859 38,53 C38,49.141 34.86,46 31,46 L31,46 Z M31,58 C28.243,58 26,55.757 26,53 C26,50.243 28.243,48 31,48 C33.757,48 36,50.243 36,53 C36,55.757 33.757,58 31,58 L31,58 Z" id="Shape" fill="#000000"></path>
        <path d="M32,19 C32,9.919 37.106,8.022 37.316,7.948 C37.84,7.774 38.123,7.208 37.948,6.683 C37.774,6.16 37.21,5.874 36.683,6.051 C36.411,6.143 30,8.401 30,19 C30,19.553 30.448,20 31,20 C31.552,20 32,19.553 32,19 L32,19 Z" id="Shape" fill="#000000"></path>
    </g>
</svg>