<?xml version="1.0" encoding="UTF-8" standalone="no"?>
<svg width="44px" height="44px" viewBox="0 0 44 44" version="1.1" xmlns="http://www.w3.org/2000/svg" xmlns:xlink="http://www.w3.org/1999/xlink">
    <!-- Generator: Sketch 3.7.2 (28276) - http://www.bohemiancoding.com/sketch -->
    <title>veg-pear</title>
    <desc>Created with Sketch.</desc>
    <defs></defs>
    <g id="44px-Glyph" stroke="none" stroke-width="1" fill="none" fill-rule="evenodd">
        <g id="veg-pear" fill="#000000">
            <path d="M21.0002,16.0052 C19.1882,16.0052 19.0012,19.9912 19.0002,20.0312 C18.9852,20.5742 18.5412,21.0052 18.0012,21.0052 L17.9742,21.0052 C17.4222,20.9902 16.9852,20.5302 17.0002,19.9792 C17.0592,17.7602 17.9672,14.0052 21.0002,14.0052 C21.5532,14.0052 22.0002,14.4522 22.0002,15.0052 C22.0002,15.5582 21.5532,16.0052 21.0002,16.0052 M17.1202,25.1042 C16.6462,26.0962 15.8702,26.9362 15.0502,27.8252 C13.5512,29.4512 12.0002,31.1332 12.0002,34.0052 C11.9992,34.0482 11.9622,35.7682 12.3582,37.3582 C12.4932,37.8932 12.1672,38.4362 11.6312,38.5702 C11.5502,38.5902 11.4682,38.6002 11.3882,38.6002 C10.9402,38.6002 10.5322,38.2972 10.4192,37.8422 C9.9532,35.9822 9.9982,34.0602 10.0002,33.9792 C10.0002,30.3512 11.9852,28.1982 13.5802,26.4702 C14.2952,25.6942 14.9712,24.9612 15.3152,24.2402 C15.5542,23.7432 16.1492,23.5302 16.6492,23.7702 C17.1482,24.0082 17.3582,24.6062 17.1202,25.1042 M31.7772,24.6452 C30.9332,23.6562 30.1342,22.7242 29.6802,21.7742 C28.9552,20.2592 28.6702,19.0102 28.3932,17.8032 C28.1362,16.6812 27.8942,15.6212 27.3312,14.5432 C26.1282,12.2352 24.9282,10.4272 22.0412,10.0782 C22.4552,4.8712 26.2962,2.0052 29.0002,2.0052 C29.5532,2.0052 30.0002,1.5582 30.0002,1.0052 C30.0002,0.4522 29.5532,0.0052 29.0002,0.0052 C26.2872,0.0052 22.8332,1.9912 21.1002,5.7692 C20.6652,4.8172 20.0262,3.7712 19.0772,2.8052 C16.4142,0.0922 11.2292,0.0072 11.0112,0.0052 C10.7372,0.0002 10.4872,0.1072 10.2972,0.2942 C10.1062,0.4822 10.0002,0.7382 10.0002,1.0052 C10.0002,1.1782 10.0302,5.2702 12.7012,8.3292 C14.1402,9.9792 16.2612,10.3942 18.0352,10.3942 C18.2262,10.3942 18.4102,10.3872 18.5922,10.3792 C16.6512,11.0642 15.6642,12.6352 14.6692,14.5422 C14.1062,15.6212 13.8642,16.6812 13.6072,17.8032 C13.3302,19.0102 13.0452,20.2592 12.3202,21.7742 C11.8662,22.7242 11.0672,23.6562 10.2232,24.6452 C8.3422,26.8432 6.0002,29.5802 6.0002,34.2052 C6.0002,40.5252 9.1172,44.0052 14.7772,44.0052 C17.5952,44.0052 18.5682,43.7032 19.3512,43.4612 C19.8322,43.3132 20.1792,43.2052 21.0002,43.2052 C21.8212,43.2052 22.1682,43.3132 22.6492,43.4612 C23.4322,43.7032 24.4052,44.0052 27.2232,44.0052 C32.8832,44.0052 36.0002,40.5252 36.0002,34.2052 C36.0002,29.5802 33.6582,26.8432 31.7772,24.6452" id="Fill-196"></path>
        </g>
    </g>
</svg>