<?xml version="1.0" encoding="UTF-8" standalone="no"?>
<svg width="64px" height="64px" viewBox="0 0 64 64" version="1.1" xmlns="http://www.w3.org/2000/svg" xmlns:xlink="http://www.w3.org/1999/xlink">
    <!-- Generator: Sketch 3.7.2 (28276) - http://www.bohemiancoding.com/sketch -->
    <title>veg-pumpkin</title>
    <desc>Created with Sketch.</desc>
    <defs></defs>
    <g id="64px-Line" stroke="none" stroke-width="1" fill="none" fill-rule="evenodd">
        <g id="veg-pumpkin"></g>
        <path d="M31,23.999 C30.448,23.999 30,24.447 30,24.999 L30,49.005 C30,49.557 30.448,50.005 31,50.005 C31.552,50.005 32,49.557 32,49.005 L32,24.999 C32,24.446 31.552,23.999 31,23.999 L31,23.999 Z" id="Shape" fill="#000000"></path>
        <path d="M45,16 C43.256,16 41.578,16.535 40,17.587 C38.423,16.535 36.744,16 35,16 C34.004,16 33.004,16.184 32.042,16.53 C32.462,8.926 36.169,8 39,8 C39.552,8 40,7.552 40,7 C40,6.448 39.552,6 39,6 C33.401,6 30.39,9.549 30.035,16.554 C29.05,16.189 28.022,16 27,16 C25.256,16 23.578,16.535 22,17.587 C20.422,16.535 18.743,16 17,16 C9.832,16 4,25.42 4,37 C4,48.58 9.832,58 17,58 C18.75,58 20.435,57.46 22.018,56.4 C24.848,58.272 28.084,58.505 31,57.003 C32.286,57.665 33.629,58 35,58 C36.744,58 38.422,57.465 40,56.413 C41.578,57.465 43.256,58 45,58 C52.168,58 58,48.58 58,37 C58,25.42 52.168,16 45,16 L45,16 Z M45,56 C43.48,56 42.002,55.459 40.607,54.392 L40.596,54.406 C40.246,54.139 39.757,54.113 39.392,54.392 C36.905,56.295 34.071,56.511 31.507,54.999 C31.194,54.814 30.805,54.814 30.491,54.999 C27.928,56.51 25.096,56.295 22.611,54.395 C22.594,54.382 22.573,54.379 22.555,54.368 C22.488,54.323 22.418,54.292 22.343,54.264 C22.296,54.247 22.252,54.227 22.204,54.218 C22.124,54.201 22.045,54.2 21.962,54.203 C21.917,54.205 21.875,54.203 21.831,54.211 C21.749,54.225 21.674,54.256 21.597,54.291 C21.555,54.31 21.513,54.326 21.473,54.352 C21.447,54.368 21.417,54.373 21.392,54.392 C19.999,55.459 18.521,56 17,56 C10.935,56 6,47.477 6,37 C6,26.523 10.935,18 17,18 C18.521,18 20.001,18.542 21.397,19.611 C21.431,19.637 21.471,19.644 21.506,19.665 C21.55,19.69 21.592,19.712 21.639,19.73 C21.735,19.769 21.83,19.789 21.93,19.797 C21.954,19.798 21.977,19.813 22.001,19.813 C22.019,19.813 22.037,19.805 22.055,19.804 C22.118,19.801 22.176,19.789 22.238,19.775 C22.289,19.762 22.338,19.746 22.387,19.725 C22.449,19.699 22.506,19.67 22.563,19.632 C22.578,19.622 22.595,19.618 22.609,19.608 C25.094,17.705 27.998,17.525 30.498,18.976 C30.809,19.157 31.192,19.157 31.503,18.976 C32.6,18.337 33.81,18 35,18 C36.519,18 37.995,18.54 39.388,19.604 C39.753,19.883 40.239,19.856 40.589,19.592 L40.604,19.611 C42,18.542 43.479,18 45,18 C51.065,18 56,26.523 56,37 C56,47.477 51.065,56 45,56 L45,56 Z" id="Shape" fill="#000000"></path>
        <path d="M17.812,24.086 C17.31,23.859 16.717,24.083 16.489,24.586 C14.86,28.198 14,32.49 14,37 C14,41.51 14.86,45.802 16.489,49.414 C16.656,49.784 17.02,50.003 17.401,50.003 C17.539,50.003 17.678,49.974 17.812,49.914 C18.315,49.687 18.54,49.095 18.312,48.591 C16.799,45.237 16,41.229 16,37 C16,32.771 16.799,28.763 18.312,25.409 C18.539,24.905 18.315,24.313 17.812,24.086 L17.812,24.086 Z" id="Shape" fill="#000000"></path>
        <path d="M44.188,24.086 C43.685,24.313 43.46,24.905 43.688,25.409 C45.201,28.763 46,32.771 46,37 C46,41.231 45.2,45.241 43.686,48.597 C43.459,49.1 43.683,49.693 44.186,49.92 C44.319,49.98 44.459,50.009 44.597,50.009 C44.978,50.009 45.342,49.79 45.509,49.42 C47.139,45.808 48,41.513 48,37.001 C48,32.491 47.139,28.199 45.511,24.587 C45.284,24.083 44.692,23.859 44.188,24.086 L44.188,24.086 Z" id="Shape" fill="#000000"></path>
    </g>
</svg>