<?xml version="1.0" encoding="UTF-8" standalone="no"?>
<svg width="64px" height="64px" viewBox="0 0 64 64" version="1.1" xmlns="http://www.w3.org/2000/svg" xmlns:xlink="http://www.w3.org/1999/xlink">
    <!-- Generator: Sketch 3.7.2 (28276) - http://www.bohemiancoding.com/sketch -->
    <title>veg-cabbage</title>
    <desc>Created with Sketch.</desc>
    <defs></defs>
    <g id="64px-Line" stroke="none" stroke-width="1" fill="none" fill-rule="evenodd">
        <g id="veg-cabbage"></g>
        <path d="M55.525,19.703 C55.486,19.622 55.428,19.556 55.369,19.489 C55.341,19.458 55.321,19.419 55.29,19.392 C55.24,19.347 55.176,19.32 55.116,19.286 C55.061,19.255 55.012,19.218 54.952,19.198 C54.942,19.195 54.935,19.186 54.924,19.183 C54.194,18.959 53.453,18.776 52.707,18.615 C49.239,12.548 43.454,8.289 36.816,6.7 C36.762,6.681 36.709,6.67 36.653,6.661 C34.821,6.234 32.929,6 31,6 C22.013,6 13.745,10.825 9.293,18.614 C8.548,18.774 7.808,18.957 7.079,19.181 C7.069,19.184 7.062,19.192 7.052,19.196 C6.984,19.219 6.926,19.261 6.864,19.298 C6.814,19.328 6.759,19.35 6.716,19.388 C6.673,19.426 6.643,19.478 6.606,19.523 C6.561,19.58 6.512,19.631 6.48,19.696 C6.475,19.705 6.466,19.711 6.462,19.72 C4.829,23.268 4,27.063 4,31 C4,45.888 16.112,58 31,58 C33.735,58 36.374,57.588 38.864,56.829 C38.885,56.824 38.905,56.821 38.926,56.814 C38.941,56.81 38.955,56.804 38.969,56.799 C49.979,53.391 58,43.115 58,31 C58,27.063 57.171,23.268 55.538,19.72 C55.534,19.713 55.528,19.709 55.525,19.703 L55.525,19.703 Z M31,8 C31.97,8 32.93,8.068 33.878,8.187 C28.727,12.106 28.038,16.651 28.009,16.865 C27.935,17.41 28.316,17.91 28.861,17.988 C28.908,17.994 28.955,17.998 29.001,17.998 C29.49,17.998 29.918,17.638 29.99,17.14 C30.019,16.941 30.772,12.314 36.649,8.716 C42.104,10.099 46.909,13.45 50.095,18.195 C49.07,18.077 48.039,18 47,18 C41.17,18 35.663,19.832 31.005,23.271 C26.523,19.961 20.987,18 15,18 C13.961,18 12.93,18.077 11.905,18.194 C16.156,11.863 23.29,8 31,8 L31,8 Z M6,31 C6,27.508 6.711,24.141 8.098,20.978 C10.333,20.337 12.65,20 15,20 C28.785,20 40,31.215 40,45 C40,48.344 39.347,51.574 38.074,54.62 C34.18,53.219 17.576,46.197 11.961,26.723 C11.807,26.192 11.251,25.885 10.723,26.039 C10.192,26.192 9.886,26.747 10.039,27.277 C15.16,45.038 29.01,52.912 35.24,55.633 C33.861,55.87 32.446,56 31,56 C17.215,56 6,44.785 6,31 L6,31 Z M40.397,54.161 C41.455,51.234 42,48.164 42,45 C42,44.974 41.998,44.947 41.998,44.921 C46.669,39.92 50.026,33.99 51.961,27.277 C52.114,26.747 51.808,26.192 51.277,26.039 C50.749,25.886 50.192,26.192 50.039,26.723 C48.377,32.488 45.621,37.649 41.842,42.1 C41.093,35.119 37.67,28.93 32.622,24.57 C36.843,21.588 41.781,20 47,20 C49.35,20 51.667,20.337 53.902,20.978 C55.289,24.141 56,27.508 56,31 C56,41.462 49.538,50.438 40.397,54.161 L40.397,54.161 Z" id="Shape" fill="#000000"></path>
    </g>
</svg>