<?xml version="1.0" encoding="UTF-8" standalone="no"?>
<svg width="64px" height="64px" viewBox="0 0 64 64" version="1.1" xmlns="http://www.w3.org/2000/svg" xmlns:xlink="http://www.w3.org/1999/xlink">
    <!-- Generator: Sketch 3.7.2 (28276) - http://www.bohemiancoding.com/sketch -->
    <title>veg-turnip</title>
    <desc>Created with Sketch.</desc>
    <defs></defs>
    <g id="64px-Line" stroke="none" stroke-width="1" fill="none" fill-rule="evenodd">
        <g id="veg-turnip"></g>
        <path d="M25.569,47.96 C27.372,48.681 29.604,49.574 29.998,50.091 C29.976,50.612 29.758,50.91 29.331,51.452 C28.769,52.163 28,53.138 28,55 C28,58.41 34.776,59.681 36.853,59.989 C36.902,59.997 36.952,60 37,60 C37.378,60 37.729,59.785 37.899,59.437 C38.09,59.044 38.003,58.573 37.687,58.273 C36.858,57.487 34.728,54.947 35.782,53.624 C36.937,52.176 39.49,50.766 42.193,49.274 C48.344,45.877 56,41.65 56,33 C56,25.595 46.768,19.037 35.664,18.115 C36.969,15.999 38.961,13.37 41.509,11.861 C41.984,11.579 42.141,10.966 41.86,10.491 C41.579,10.016 40.964,9.86 40.49,10.14 C37.403,11.97 35.106,15.123 33.696,17.498 C33.538,13.968 33.79,9.359 35.652,7.759 C36.071,7.399 36.118,6.768 35.758,6.349 C35.398,5.93 34.766,5.884 34.348,6.243 C31.988,8.271 31.578,12.93 31.653,16.525 C30.211,14.319 28.13,11.733 25.519,10.147 C25.047,9.859 24.433,10.01 24.145,10.482 C23.858,10.954 24.008,11.569 24.48,11.856 C26.962,13.364 28.964,15.999 30.291,18.12 C19.208,19.054 10,25.604 10,33 C10,41.733 19.369,45.48 25.569,47.96 L25.569,47.96 Z M41.226,47.522 C38.219,49.183 35.622,50.616 34.218,52.376 C32.982,53.926 33.495,55.852 34.467,57.454 C32.041,56.806 30,55.846 30,55 C30,53.832 30.397,53.329 30.901,52.691 C31.391,52.071 32,51.299 32,50 C32,48.378 29.859,47.522 26.312,46.103 C20.727,43.87 12.366,40.507 12.032,33.43 C15.594,36.196 23.549,38 33,38 C42.457,38 50.416,36.194 53.976,33.425 C53.919,35.002 53.561,36.411 52.965,37.681 C50.396,39.89 44.154,41.58 36.941,42.001 C36.39,42.034 35.969,42.506 36.001,43.058 C36.032,43.589 36.473,43.999 36.999,43.999 C37.019,43.999 37.039,43.999 37.059,43.998 C42.215,43.697 46.84,42.778 50.225,41.456 C47.737,43.917 44.375,45.783 41.226,47.522 L41.226,47.522 Z M32.084,21.401 C32.092,21.418 32.105,21.431 32.113,21.448 C32.13,21.482 32.152,21.512 32.173,21.544 C32.213,21.605 32.257,21.66 32.308,21.71 C32.336,21.737 32.363,21.762 32.394,21.786 C32.453,21.831 32.516,21.867 32.584,21.898 C32.615,21.913 32.644,21.93 32.677,21.941 C32.778,21.976 32.883,21.998 32.993,21.999 C32.995,21.999 32.997,22 32.999,22 L33,22 L33,22 L33.008,22 L33.01,22 C33.054,22 33.097,21.997 33.141,21.991 C33.161,21.988 33.177,21.975 33.196,21.971 C33.289,21.952 33.377,21.921 33.46,21.877 C33.484,21.865 33.509,21.857 33.531,21.843 C33.628,21.782 33.713,21.705 33.784,21.614 C33.801,21.592 33.812,21.567 33.827,21.543 C33.86,21.493 33.897,21.444 33.921,21.387 C33.929,21.368 34.155,20.843 34.568,20.047 C43.789,20.539 51.989,25.288 53.677,30.897 C52.016,33.452 44.068,36 33,36 C21.929,36 13.981,33.451 12.323,30.895 C12.658,29.781 13.249,28.702 14.055,27.683 C18.232,29.739 25.366,31 33,31 C33.552,31 34,30.552 34,30 C34,29.448 33.552,29 33,29 C25.969,29 19.448,27.918 15.485,26.142 C19.057,22.809 24.983,20.395 31.409,20.048 C31.837,20.851 32.076,21.383 32.084,21.401 L32.084,21.401 Z" id="Shape" fill="#000000"></path>
    </g>
</svg>