<?xml version="1.0" encoding="UTF-8" standalone="no"?>
<svg width="44px" height="44px" viewBox="0 0 44 44" version="1.1" xmlns="http://www.w3.org/2000/svg" xmlns:xlink="http://www.w3.org/1999/xlink">
    <!-- Generator: Sketch 3.7.2 (28276) - http://www.bohemiancoding.com/sketch -->
    <title>veg-apple-bite</title>
    <desc>Created with Sketch.</desc>
    <defs></defs>
    <g id="44px-Line" stroke="none" stroke-width="1" fill="none" fill-rule="evenodd">
        <g id="veg-apple-bite"></g>
        <path d="M38.001,18.962 C38.179,18.981 38.362,18.935 38.529,18.846 C38.964,18.614 39.165,18.098 39.001,17.633 C37.075,12.148 32.681,9.693 29.181,9.693 C26.949,9.693 25.762,10.363 24.714,10.954 C23.929,11.397 23.221,11.788 22.048,11.935 C22.535,6.224 26.8,2 29,2 C29.552,2 30,1.553 30,1 C30,0.447 29.552,-1.74456803e-14 29,-1.74456803e-14 C26.411,-1.74456803e-14 23.335,2.744 21.532,6.527 C21.156,5.34 20.48,3.926 19.248,2.711 C16.587,0.085 11.236,0.002 11.01,-1.74456803e-14 C10.76,-0.021 10.47,0.108 10.28,0.307 C10.09,0.506 9.988,0.774 10.002,1.049 C10.01,1.216 10.232,5.174 12.894,8.131 C14.494,9.907 16.893,10.302 18.707,10.302 C19.325,10.302 19.869,10.256 20.296,10.203 C20.18,10.776 20.095,11.357 20.049,11.945 C18.817,11.808 18.091,11.407 17.285,10.953 C16.238,10.362 15.05,9.692 12.818,9.692 C10.292,9.692 7.622,10.956 5.677,13.073 C4,14.898 2,18.275 2,24 C2,33.922 8.981,44 14,44 C16.439,44 17.562,43.318 18.463,42.771 C19.201,42.323 19.734,42 21,42 C22.265,42 22.798,42.323 23.536,42.771 C24.438,43.318 25.561,44 28,44 C31.84,44 36.723,38.241 38.9,31.113 L38.901,31.109 C38.972,30.825 38.915,30.523 38.744,30.285 C38.574,30.047 38.306,29.895 38.014,29.871 C35.484,29.659 33.347,27.165 33.347,24.423 C33.346,21.434 35.429,18.997 38.001,18.962 L38.001,18.962 Z M14.379,6.793 C12.981,5.24 12.398,3.283 12.158,2.074 C13.866,2.253 16.485,2.795 17.842,4.135 C19.212,5.488 19.714,7.213 19.896,8.231 C18.51,8.376 15.831,8.403 14.379,6.793 L14.379,6.793 Z M31.346,24.423 C31.346,27.783 33.621,30.779 36.623,31.639 C34.5,37.637 30.446,42 28,42 C26.12,42 25.404,41.565 24.574,41.062 C23.754,40.565 22.824,40 21,40 C19.175,40 18.246,40.564 17.426,41.062 C16.596,41.566 15.88,42 14,42 C10.327,42 4,33.105 4,24 C4,15.034 9.409,11.692 12.818,11.692 C14.525,11.692 15.348,12.157 16.302,12.695 C17.386,13.306 18.614,14 21,14 C23.386,14 24.614,13.307 25.698,12.695 C26.652,12.157 27.475,11.692 29.182,11.692 C31.726,11.692 34.886,13.384 36.64,17.129 C33.618,17.854 31.346,20.85 31.346,24.423 L31.346,24.423 Z" id="Shape" fill="#000000"></path>
        <path d="M7.272,24.203 C7.272,19.737 8.894,17.397 10.255,16.222 C10.673,15.861 10.719,15.229 10.358,14.811 C9.997,14.393 9.365,14.347 8.948,14.708 C7.271,16.157 5.273,18.981 5.273,24.203 C5.273,27.928 6.549,32.073 8.775,35.577 C8.965,35.877 9.289,36.041 9.62,36.041 C9.803,36.041 9.989,35.991 10.155,35.885 C10.621,35.589 10.759,34.971 10.463,34.505 C8.435,31.312 7.272,27.558 7.272,24.203 L7.272,24.203 Z" id="Shape" fill="#000000"></path>
    </g>
</svg>