<?xml version="1.0" encoding="UTF-8" standalone="no"?>
<svg width="64px" height="64px" viewBox="0 0 64 64" version="1.1" xmlns="http://www.w3.org/2000/svg" xmlns:xlink="http://www.w3.org/1999/xlink">
    <!-- Generator: Sketch 3.7.2 (28276) - http://www.bohemiancoding.com/sketch -->
    <title>veh-scooter</title>
    <desc>Created with Sketch.</desc>
    <defs></defs>
    <g id="64px-Line" stroke="none" stroke-width="1" fill="none" fill-rule="evenodd">
        <g id="veh-scooter"></g>
        <path d="M59,48 L57.92,48 C57.479,44.941 55.059,42.521 52,42.08 L52,13.816 C53.161,13.402 54,12.302 54,11 C54,9.346 52.654,8 51,8 C49.346,8 48,9.346 48,11 C48,12.302 48.839,13.402 50,13.816 L50,42.08 C46.941,42.521 44.521,44.941 44.08,48 L21.92,48 C21.432,44.613 18.519,42 15,42 C11.481,42 8.568,44.613 8.08,48 L5,48 C4.447,48 4,48.448 4,49 C4,49.552 4.447,50 5,50 L8.08,50 C8.568,53.387 11.481,56 15,56 C18.519,56 21.432,53.387 21.92,50 L44.08,50 C44.568,53.387 47.481,56 51,56 C54.519,56 57.432,53.387 57.92,50 L59,50 C59.553,50 60,49.552 60,49 C60,48.448 59.553,48 59,48 L59,48 Z M51,10 C51.552,10 52,10.449 52,11 C52,11.551 51.552,12 51,12 C50.448,12 50,11.551 50,11 C50,10.449 50.448,10 51,10 L51,10 Z M15,54 C12.243,54 10,51.757 10,49 C10,46.243 12.243,44 15,44 C17.757,44 20,46.243 20,49 C20,51.757 17.757,54 15,54 L15,54 Z M51,54 C48.243,54 46,51.757 46,49 C46,46.243 48.243,44 51,44 C53.757,44 56,46.243 56,49 C56,51.757 53.757,54 51,54 L51,54 Z" id="Shape" fill="#000000"></path>
        <path d="M51,46 C49.346,46 48,47.346 48,49 C48,50.654 49.346,52 51,52 C52.654,52 54,50.654 54,49 C54,47.346 52.654,46 51,46 L51,46 Z M51,50 C50.448,50 50,49.551 50,49 C50,48.449 50.448,48 51,48 C51.552,48 52,48.449 52,49 C52,49.551 51.552,50 51,50 L51,50 Z" id="Shape" fill="#000000"></path>
        <path d="M15,46 C13.346,46 12,47.346 12,49 C12,50.654 13.346,52 15,52 C16.654,52 18,50.654 18,49 C18,47.346 16.654,46 15,46 L15,46 Z M15,50 C14.448,50 14,49.551 14,49 C14,48.449 14.448,48 15,48 C15.552,48 16,48.449 16,49 C16,49.551 15.552,50 15,50 L15,50 Z" id="Shape" fill="#000000"></path>
    </g>
</svg>