<?xml version="1.0" encoding="UTF-8" standalone="no"?>
<svg width="64px" height="64px" viewBox="0 0 64 64" version="1.1" xmlns="http://www.w3.org/2000/svg" xmlns:xlink="http://www.w3.org/1999/xlink">
    <!-- Generator: Sketch 3.7.2 (28276) - http://www.bohemiancoding.com/sketch -->
    <title>veh-cablecar</title>
    <desc>Created with Sketch.</desc>
    <defs></defs>
    <g id="64px-Line" stroke="none" stroke-width="1" fill="none" fill-rule="evenodd">
        <g id="veh-cablecar"></g>
        <path d="M56.673,6.055 L4.673,24.055 C4.152,24.236 3.874,24.806 4.055,25.327 C4.199,25.741 4.586,26 5,26 C5.108,26 5.219,25.982 5.327,25.945 L28.499,17.924 C29.359,19.758 30.633,23.257 29.637,24.935 C29.48,25.199 29.005,26 27,26 L18.103,26 C15.661,26 13.491,27.44 12.574,29.67 C11.399,32.524 10,37.153 10,43 C10,48.847 11.399,53.476 12.573,56.329 C13.49,58.559 15.66,60 18.102,60 L47.881,60 C50.361,60 52.557,58.497 53.475,56.172 C54.627,53.259 56,48.436 56,42 C56,35.827 54.725,31.754 53.654,29.425 C52.7,27.345 50.572,26 48.235,26 L37.969,26 C37.751,20.787 35.899,17.423 34.698,15.779 L57.327,7.946 C57.848,7.765 58.126,7.195 57.945,6.674 C57.764,6.15 57.194,5.876 56.673,6.055 L56.673,6.055 Z M51.836,30.259 C52.823,32.408 54,36.189 54,42 C54,48.121 52.703,52.686 51.616,55.438 C51.001,56.995 49.535,58 47.882,58 L18.103,58 C16.475,58 15.031,57.046 14.423,55.568 C13.317,52.882 12,48.52 12,43 C12,37.48 13.317,33.118 14.423,30.431 C15.03,28.954 16.475,28 18.103,28 L48.236,28 C49.793,28 51.207,28.887 51.836,30.259 L51.836,30.259 Z M35.97,26 L31.326,26 C31.335,25.985 31.347,25.972 31.357,25.956 C32.887,23.378 31.315,19.235 30.402,17.266 L32.705,16.469 C33.594,17.542 35.725,20.658 35.97,26 L35.97,26 Z" id="Shape" fill="#000000"></path>
        <path d="M28,13 C28,11.346 26.654,10 25,10 C23.346,10 22,11.346 22,13 C22,14.654 23.346,16 25,16 C26.654,16 28,14.654 28,13 L28,13 Z M24,13 C24,12.448 24.448,12 25,12 C25.552,12 26,12.448 26,13 C26,13.552 25.552,14 25,14 C24.448,14 24,13.552 24,13 L24,13 Z" id="Shape" fill="#000000"></path>
        <path d="M34,11 C34,9.346 32.654,8 31,8 C29.346,8 28,9.346 28,11 C28,12.654 29.346,14 31,14 C32.654,14 34,12.654 34,11 L34,11 Z M30,11 C30,10.448 30.448,10 31,10 C31.552,10 32,10.448 32,11 C32,11.552 31.552,12 31,12 C30.448,12 30,11.552 30,11 L30,11 Z" id="Shape" fill="#000000"></path>
        <path d="M40,9 C40,7.346 38.654,6 37,6 C35.346,6 34,7.346 34,9 C34,10.654 35.346,12 37,12 C38.654,12 40,10.654 40,9 L40,9 Z M36,9 C36,8.448 36.448,8 37,8 C37.552,8 38,8.448 38,9 C38,9.552 37.552,10 37,10 C36.448,10 36,9.552 36,9 L36,9 Z" id="Shape" fill="#000000"></path>
        <path d="M18.444,30 C17.105,30 15.95,30.861 15.569,32.143 C15.002,34.047 14.279,37.103 14.062,40.848 C14.014,41.669 14.301,42.453 14.87,43.056 C15.437,43.656 16.235,44 17.06,44 L48.939,44 C49.764,44 50.562,43.655 51.129,43.056 C51.697,42.453 51.984,41.669 51.937,40.848 C51.72,37.103 50.998,34.047 50.43,32.143 C50.049,30.862 48.894,30 47.555,30 L18.444,30 L18.444,30 Z M16.324,41.683 C16.137,41.485 16.044,41.23 16.058,40.963 C16.276,37.224 17.045,34.19 17.485,32.713 C17.612,32.286 17.998,32 18.444,32 L26,32 L26,42 L17.061,42 C16.779,42 16.519,41.887 16.324,41.683 L16.324,41.683 Z M28,32 L38,32 L38,42 L28,42 L28,32 L28,32 Z M48.515,32.713 C48.954,34.19 49.724,37.224 49.942,40.963 C49.957,41.229 49.863,41.484 49.676,41.683 C49.482,41.887 49.221,42 48.94,42 L40,42 L40,32 L47.556,32 C48.002,32 48.388,32.286 48.515,32.713 L48.515,32.713 Z" id="Shape" fill="#000000"></path>
    </g>
</svg>