<?xml version="1.0" encoding="UTF-8" standalone="no"?>
<svg width="64px" height="64px" viewBox="0 0 64 64" version="1.1" xmlns="http://www.w3.org/2000/svg" xmlns:xlink="http://www.w3.org/1999/xlink">
    <!-- Generator: Sketch 3.7.2 (28276) - http://www.bohemiancoding.com/sketch -->
    <title>veh-biplane</title>
    <desc>Created with Sketch.</desc>
    <defs></defs>
    <g id="64px-Line" stroke="none" stroke-width="1" fill="none" fill-rule="evenodd">
        <g id="veh-biplane"></g>
        <path d="M57,12 C57.552,12 58,11.553 58,11 C58,10.447 57.552,10 57,10 L32,10 L32,7 C32,6.447 31.552,6 31,6 C30.448,6 30,6.447 30,7 L30,10 L5,10 C4.448,10 4,10.447 4,11 C4,11.553 4.448,12 5,12 L6,12 L6,44 L5,44 C4.448,44 4,44.447 4,45 C4,45.553 4.448,46 5,46 L16.586,46 L16.151,46.436 C15.901,46.685 15.802,47.047 15.889,47.389 C15.975,47.73 16.236,48.001 16.574,48.102 C16.651,48.124 17.405,48.338 18.558,48.338 C20.163,48.338 22.542,47.919 24.952,46 L25.235,46 L20.435,54 L20,54 L20,51 C20,50.447 19.552,50 19,50 C18.448,50 18,50.447 18,51 L18,59 C18,59.553 18.448,60 19,60 C19.552,60 20,59.553 20,59 L20,56 L21,56 C21.351,56 21.677,55.815 21.857,55.515 L27.566,46 L34.434,46 L40.143,55.515 C40.324,55.816 40.649,56 41,56 L42,56 L42,59 C42,59.553 42.448,60 43,60 C43.552,60 44,59.553 44,59 L44,51 C44,50.447 43.552,50 43,50 C42.448,50 42,50.447 42,51 L42,54 L41.566,54 L36.766,46 L57,46 C57.552,46 58,45.553 58,45 C58,44.447 57.552,44 57,44 L56,44 L56,12 L57,12 L57,12 Z M8,44 L8,12 L30,12 L30,14.08 C26.613,14.568 24,17.481 24,21 C24,21.341 24.032,21.679 24.08,22.014 C22.467,23.034 21.094,24.394 20.063,26 L11,26 C10.448,26 10,26.447 10,27 C10,27.553 10.448,28 11,28 L19.003,28 C18.359,29.54 18,31.229 18,33 C18,36.137 19.112,39.098 21.135,41.451 L18.586,44 L8,44 L8,44 Z M42,33 C42,39.065 37.065,44 31,44 C29.764,44 28.565,43.798 27.42,43.403 C28.948,41.256 29.335,39.183 29.361,37.701 C29.877,37.882 30.423,38 31,38 C33.757,38 36,35.757 36,33 C36,31.983 35.691,31.038 35.167,30.247 L39.451,25.963 C41.099,27.937 42,30.398 42,33 L42,33 Z M22.549,40.037 C20.901,38.064 20,35.602 20,33 C20,26.935 24.935,22 31,22 C32.235,22 33.433,22.202 34.577,22.596 C33.032,24.753 32.643,26.816 32.622,28.293 C32.111,28.116 31.571,28 31,28 C28.243,28 26,30.243 26,33 C26,34.017 26.309,34.962 26.833,35.753 L22.549,40.037 L22.549,40.037 Z M28,33 C28,31.346 29.346,30 31,30 C32.654,30 34,31.346 34,33 C34,34.654 32.654,36 31,36 C29.346,36 28,34.654 28,33 L28,33 Z M34.632,27.954 C34.732,26.517 35.304,24.453 37.363,22.393 C39.429,20.328 41.491,19.754 42.927,19.658 L34.632,27.954 L34.632,27.954 Z M35.95,20.979 C35.946,20.983 35.942,20.988 35.938,20.992 C34.372,20.346 32.718,20 31,20 C29.229,20 27.54,20.359 26,21.003 L26,21 C26,18.243 28.243,16 31,16 C33.736,16 35.96,18.211 35.994,20.939 C35.979,20.954 35.964,20.965 35.95,20.979 L35.95,20.979 Z M27.352,38.062 C27.246,39.509 26.669,41.573 24.637,43.606 C22.603,45.64 20.539,46.216 19.093,46.323 L27.352,38.062 L27.352,38.062 Z M54,44 L37.896,44 C41.555,41.697 44,37.633 44,33 C44,31.255 43.657,29.563 43.006,28 L51,28 C51.552,28 52,27.553 52,27 C52,26.447 51.552,26 51,26 L41.948,26 C41.623,25.495 41.261,25.011 40.865,24.549 L45.849,19.564 C46.096,19.317 46.197,18.959 46.113,18.619 C46.03,18.28 45.776,18.009 45.442,17.903 C45.271,17.85 41.719,16.792 37.817,19.434 C37.176,16.645 34.868,14.492 32,14.079 L32,12 L54,12 L54,44 L54,44 Z" id="Shape" fill="#000000"></path>
    </g>
</svg>