<?xml version="1.0" encoding="UTF-8" standalone="no"?>
<svg width="64px" height="64px" viewBox="0 0 64 64" version="1.1" xmlns="http://www.w3.org/2000/svg" xmlns:xlink="http://www.w3.org/1999/xlink">
    <!-- Generator: Sketch 3.7.2 (28276) - http://www.bohemiancoding.com/sketch -->
    <title>veh-truck</title>
    <desc>Created with Sketch.</desc>
    <defs></defs>
    <g id="64px-Line" stroke="none" stroke-width="1" fill="none" fill-rule="evenodd">
        <g id="veh-truck"></g>
        <path d="M49,44 C47.346,44 46,45.346 46,47 C46,48.654 47.346,50 49,50 C50.654,50 52,48.654 52,47 C52,45.346 50.654,44 49,44 L49,44 Z M49,48 C48.449,48 48,47.552 48,47 C48,46.448 48.449,46 49,46 C49.551,46 50,46.448 50,47 C50,47.552 49.551,48 49,48 L49,48 Z" id="Shape" fill="#000000"></path>
        <path d="M27,44 C25.346,44 24,45.346 24,47 C24,48.654 25.346,50 27,50 C28.654,50 30,48.654 30,47 C30,45.346 28.654,44 27,44 L27,44 Z M27,48 C26.449,48 26,47.552 26,47 C26,46.448 26.449,46 27,46 C27.551,46 28,46.448 28,47 C28,47.552 27.551,48 27,48 L27,48 Z" id="Shape" fill="#000000"></path>
        <path d="M13,44 C11.346,44 10,45.346 10,47 C10,48.654 11.346,50 13,50 C14.654,50 16,48.654 16,47 C16,45.346 14.654,44 13,44 L13,44 Z M13,48 C12.449,48 12,47.552 12,47 C12,46.448 12.449,46 13,46 C13.551,46 14,46.448 14,47 C14,47.552 13.551,48 13,48 L13,48 Z" id="Shape" fill="#000000"></path>
        <path d="M59,40 L58,40 L58,31 C58,29.346 56.654,28 55,28 L51.847,28 L50.265,18.507 C50.023,17.054 48.779,16 47.306,16 L42,16 L42,11 C42,8.243 39.757,6 37,6 C36.448,6 36,6.448 36,7 C36,7.552 36.448,8 37,8 C38.654,8 40,9.346 40,11 L40,16 L38,16 L38,11 C38,10.448 37.552,10 37,10 L5,10 C4.448,10 4,10.448 4,11 L4,47 C4,47.553 4.448,48 5,48 L6.08,48 C6.568,51.386 9.481,54 13,54 C16.519,54 19.432,51.386 19.92,48 L20.08,48 C20.568,51.386 23.481,54 27,54 C30.519,54 33.432,51.386 33.92,48 L42.08,48 C42.568,51.386 45.481,54 49,54 C52.519,54 55.432,51.386 55.92,48 L59,48 C59.552,48 60,47.553 60,47 L60,41 C60,40.447 59.552,40 59,40 L59,40 Z M49.82,28 L46,28 L46,22 L48.819,22 L49.82,28 L49.82,28 Z M40,18 L40,29 C40,29.552 40.448,30 41,30 C41.552,30 42,29.552 42,29 L42,18 L47.306,18 C47.797,18 48.212,18.352 48.292,18.836 L48.486,20 L45,20 C44.448,20 44,20.448 44,21 L44,29 C44,29.552 44.448,30 45,30 L55,30 C55.551,30 56,30.449 56,31 L56,32 L51,32 C50.448,32 50,32.448 50,33 C50,33.553 50.448,34 51,34 L56,34 L56,36 L51,36 C50.448,36 50,36.447 50,37 C50,37.553 50.448,38 51,38 L56,38 L56,40 L49,40 C45.481,40 42.568,42.614 42.08,46 L38,46 L38,18 L40,18 L40,18 Z M6,12 L36,12 L36,46 L33.92,46 C33.432,42.614 30.519,40 27,40 C23.481,40 20.568,42.614 20.08,46 L19.92,46 C19.432,42.614 16.519,40 13,40 C9.481,40 6.568,42.614 6.08,46 L6,46 L6,12 L6,12 Z M13,52 C10.243,52 8,49.757 8,47 C8,44.243 10.243,42 13,42 C15.757,42 18,44.243 18,47 C18,49.757 15.757,52 13,52 L13,52 Z M27,52 C24.243,52 22,49.757 22,47 C22,44.243 24.243,42 27,42 C29.757,42 32,44.243 32,47 C32,49.757 29.757,52 27,52 L27,52 Z M49,52 C46.243,52 44,49.757 44,47 C44,44.243 46.243,42 49,42 C51.757,42 54,44.243 54,47 C54,49.757 51.757,52 49,52 L49,52 Z M58,46 L55.92,46 C55.696,44.444 54.964,43.051 53.889,42 L58,42 L58,46 L58,46 Z" id="Shape" fill="#000000"></path>
    </g>
</svg>