<?xml version="1.0" encoding="UTF-8" standalone="no"?>
<svg width="64px" height="64px" viewBox="0 0 64 64" version="1.1" xmlns="http://www.w3.org/2000/svg" xmlns:xlink="http://www.w3.org/1999/xlink">
    <!-- Generator: Sketch 3.7.2 (28276) - http://www.bohemiancoding.com/sketch -->
    <title>veh-motorbike</title>
    <desc>Created with Sketch.</desc>
    <defs></defs>
    <g id="64px-Line" stroke="none" stroke-width="1" fill="none" fill-rule="evenodd">
        <g id="veh-motorbike"></g>
        <path d="M18,30 C18,31.781 18.631,34.528 22,36.293 L22,48 C22,49.103 22.897,50 24,50 L26,50 L26,55 C26,57.757 28.243,60 31,60 C33.757,60 36,57.757 36,55 L36,50 L38,50 C39.103,50 40,49.103 40,48 L40,36.337 C43.188,34.704 44,32.152 44,30 C44,26.351 41.744,22 31,22 C19.688,22 18,27.012 18,30 L18,30 Z M24,48 L24,37.107 C24.604,37.295 25.272,37.456 26,37.589 L26,48 L24,48 L24,48 Z M34,55 C34,56.654 32.654,58 31,58 C29.346,58 28,56.654 28,55 L28,31 C28,29.346 29.346,28 31,28 C32.654,28 34,29.346 34,31 L34,55 L34,55 Z M38,48 L36,48 L36,37.603 C36.728,37.474 37.394,37.316 38,37.132 L38,48 L38,48 Z M31,24 C36.019,24 42,25.041 42,30 C42,32.212 40.904,33.793 38.671,34.779 C38.633,34.793 38.597,34.807 38.561,34.825 C37.828,35.137 36.972,35.386 36,35.576 L36,31 C36,28.243 33.757,26 31,26 C28.243,26 26,28.243 26,31 L26,35.548 C22.033,34.745 20,32.891 20,30 C20,25.041 25.981,24 31,24 L31,24 Z" id="Shape" fill="#000000"></path>
        <path d="M13,8 L16.477,8 C18.163,8 19.677,9.067 20.245,10.655 L22.874,18.018 C23.725,20.4 25.995,22 28.524,22 L31,22 L33.477,22 C36.006,22 38.277,20.4 39.127,18.018 L41.756,10.655 C42.323,9.067 43.838,8 45.524,8 L49,8 C49.553,8 50,7.552 50,7 C50,6.448 49.553,6 49,6 L45.523,6 C42.994,6 40.723,7.6 39.873,9.982 L37.244,17.345 C36.89,18.336 36.166,19.124 35.262,19.577 C35.721,18.822 36,17.946 36,17 C36,14.243 33.757,12 31,12 C28.243,12 26,14.243 26,17 C26,17.946 26.279,18.822 26.737,19.577 C25.833,19.124 25.11,18.336 24.755,17.345 L22.126,9.982 C21.276,7.6 19.006,6 16.477,6 L13,6 C12.447,6 12,6.448 12,7 C12,7.552 12.447,8 13,8 L13,8 Z M31,14 C32.654,14 34,15.346 34,17 C34,18.654 32.654,20 31,20 C29.346,20 28,18.654 28,17 C28,15.346 29.346,14 31,14 L31,14 Z" id="Shape" fill="#000000"></path>
    </g>
</svg>