<?xml version="1.0" encoding="UTF-8" standalone="no"?>
<svg width="64px" height="64px" viewBox="0 0 64 64" version="1.1" xmlns="http://www.w3.org/2000/svg" xmlns:xlink="http://www.w3.org/1999/xlink">
    <!-- Generator: Sketch 3.7.2 (28276) - http://www.bohemiancoding.com/sketch -->
    <title>veh-train-2</title>
    <desc>Created with Sketch.</desc>
    <defs></defs>
    <g id="64px-Line" stroke="none" stroke-width="1" fill="none" fill-rule="evenodd">
        <g id="veh-train-2"></g>
        <path d="M54,44 L54,15.229 C54,13.4 53.001,11.717 51.394,10.837 C48.088,9.03 41.042,6 31,6 C20.958,6 13.912,9.03 10.606,10.838 C8.999,11.717 8,13.4 8,15.229 L8,44 C8,47.309 10.691,50 14,50 L18.586,50 L10.293,58.293 C9.902,58.684 9.902,59.316 10.293,59.707 C10.488,59.902 10.744,60 11,60 C11.256,60 11.512,59.902 11.707,59.707 L21.414,50 L40.586,50 L50.293,59.707 C50.488,59.902 50.744,60 51,60 C51.256,60 51.512,59.902 51.707,59.707 C52.098,59.316 52.098,58.684 51.707,58.293 L43.414,50 L48,50 C51.309,50 54,47.309 54,44 L54,44 Z M10,44 L10,15.229 C10,14.131 10.6,13.121 11.565,12.593 C14.704,10.877 21.402,8 31,8 C40.598,8 47.296,10.877 50.435,12.592 C51.401,13.12 52,14.131 52,15.229 L52,44 C52,46.206 50.206,48 48,48 L14,48 C11.794,48 10,46.206 10,44 L10,44 Z" id="Shape" fill="#000000"></path>
        <path d="M13,34 L29,34 C29.553,34 30,33.553 30,33 L30,17 C30,16.447 29.553,16 29,16 L13,16 C12.447,16 12,16.447 12,17 L12,33 C12,33.553 12.447,34 13,34 L13,34 Z M14,18 L28,18 L28,32 L14,32 L14,18 L14,18 Z" id="Shape" fill="#000000"></path>
        <path d="M33,34 L49,34 C49.553,34 50,33.553 50,33 L50,17 C50,16.447 49.553,16 49,16 L33,16 C32.447,16 32,16.447 32,17 L32,33 C32,33.553 32.447,34 33,34 L33,34 Z M34,18 L48,18 L48,32 L34,32 L34,18 L34,18 Z" id="Shape" fill="#000000"></path>
        <path d="M17,36 C14.243,36 12,38.243 12,41 C12,43.757 14.243,46 17,46 C19.757,46 22,43.757 22,41 C22,38.243 19.757,36 17,36 L17,36 Z M17,44 C15.346,44 14,42.654 14,41 C14,39.346 15.346,38 17,38 C18.654,38 20,39.346 20,41 C20,42.654 18.654,44 17,44 L17,44 Z" id="Shape" fill="#000000"></path>
        <path d="M45,36 C42.243,36 40,38.243 40,41 C40,43.757 42.243,46 45,46 C47.757,46 50,43.757 50,41 C50,38.243 47.757,36 45,36 L45,36 Z M45,44 C43.346,44 42,42.654 42,41 C42,39.346 43.346,38 45,38 C46.654,38 48,39.346 48,41 C48,42.654 46.654,44 45,44 L45,44 Z" id="Shape" fill="#000000"></path>
        <path d="M17,24 C17.256,24 17.512,23.902 17.707,23.707 L19.707,21.707 C20.098,21.316 20.098,20.684 19.707,20.293 C19.316,19.902 18.684,19.902 18.293,20.293 L16.293,22.293 C15.902,22.684 15.902,23.316 16.293,23.707 C16.488,23.902 16.744,24 17,24 L17,24 Z" id="Shape" fill="#000000"></path>
        <path d="M23.293,20.293 L16.293,27.293 C15.902,27.684 15.902,28.316 16.293,28.707 C16.488,28.902 16.744,29 17,29 C17.256,29 17.512,28.902 17.707,28.707 L24.707,21.707 C25.098,21.316 25.098,20.684 24.707,20.293 C24.316,19.902 23.684,19.902 23.293,20.293 L23.293,20.293 Z" id="Shape" fill="#000000"></path>
        <path d="M37,24 C37.256,24 37.512,23.902 37.707,23.707 L39.707,21.707 C40.098,21.316 40.098,20.684 39.707,20.293 C39.316,19.902 38.684,19.902 38.293,20.293 L36.293,22.293 C35.902,22.684 35.902,23.316 36.293,23.707 C36.488,23.902 36.744,24 37,24 L37,24 Z" id="Shape" fill="#000000"></path>
        <path d="M43.293,20.293 L36.293,27.293 C35.902,27.684 35.902,28.316 36.293,28.707 C36.488,28.902 36.744,29 37,29 C37.256,29 37.512,28.902 37.707,28.707 L44.707,21.707 C45.098,21.316 45.098,20.684 44.707,20.293 C44.316,19.902 43.684,19.902 43.293,20.293 L43.293,20.293 Z" id="Shape" fill="#000000"></path>
    </g>
</svg>