<?xml version="1.0" encoding="UTF-8" standalone="no"?>
<svg width="64px" height="64px" viewBox="0 0 64 64" version="1.1" xmlns="http://www.w3.org/2000/svg" xmlns:xlink="http://www.w3.org/1999/xlink">
    <!-- Generator: Sketch 3.7.2 (28276) - http://www.bohemiancoding.com/sketch -->
    <title>veh-4x4</title>
    <desc>Created with Sketch.</desc>
    <defs></defs>
    <g id="64px-Line" stroke="none" stroke-width="1" fill="none" fill-rule="evenodd">
        <g id="veh-4x4"></g>
        <path d="M6,48 L8,48 L8,55 C8,56.654 9.346,58 11,58 L13,58 C14.654,58 16,56.654 16,55 L16,48 L46,48 L46,55 C46,56.654 47.346,58 49,58 L51,58 C52.654,58 54,56.654 54,55 L54,48 L56,48 C57.103,48 58,47.103 58,46 L58,42 C58,40.897 57.103,40 56,40 L56,29 C56,26.553 54.23,24.52 51.905,24.092 L50.191,8.669 C50.022,7.148 48.741,6 47.21,6 L14.79,6 C13.259,6 11.978,7.147 11.809,8.669 L10.095,24.092 C7.77,24.52 6,26.553 6,29 L6,40 C4.897,40 4,40.897 4,42 L4,46 C4,47.103 4.897,48 6,48 L6,48 Z M14,55 C14,55.551 13.552,56 13,56 L11,56 C10.448,56 10,55.551 10,55 L10,48 L14,48 L14,55 L14,55 Z M52,55 C52,55.551 51.552,56 51,56 L49,56 C48.448,56 48,55.551 48,55 L48,48 L52,48 L52,55 L52,55 Z M13.797,8.89 C13.853,8.383 14.28,8 14.79,8 L47.21,8 C47.72,8 48.148,8.382 48.203,8.89 L49.882,24 L12.117,24 L13.797,8.89 L13.797,8.89 Z M8,29 C8,27.346 9.346,26 11,26 L51,26 C52.654,26 54,27.346 54,29 L54,40 L8,40 L8,29 L8,29 Z M6,42 L56,42 L56.001,46 L6,46 L6,42 L6,42 Z" id="Shape" fill="#000000"></path>
        <path d="M14,28 C11.794,28 10,29.794 10,32 C10,34.206 11.794,36 14,36 C16.206,36 18,34.206 18,32 C18,29.794 16.206,28 14,28 L14,28 Z M14,34 C12.897,34 12,33.103 12,32 C12,30.897 12.897,30 14,30 C15.103,30 16,30.897 16,32 C16,33.103 15.103,34 14,34 L14,34 Z" id="Shape" fill="#000000"></path>
        <path d="M48,28 C45.794,28 44,29.794 44,32 C44,34.206 45.794,36 48,36 C50.206,36 52,34.206 52,32 C52,29.794 50.206,28 48,28 L48,28 Z M48,34 C46.897,34 46,33.103 46,32 C46,30.897 46.897,30 48,30 C49.103,30 50,30.897 50,32 C50,33.103 49.103,34 48,34 L48,34 Z" id="Shape" fill="#000000"></path>
        <path d="M16,15 C16.256,15 16.512,14.902 16.707,14.707 L19.707,11.707 C20.098,11.316 20.098,10.684 19.707,10.293 C19.316,9.902 18.684,9.902 18.293,10.293 L15.293,13.293 C14.902,13.684 14.902,14.316 15.293,14.707 C15.488,14.902 15.744,15 16,15 L16,15 Z" id="Shape" fill="#000000"></path>
        <path d="M16,20 C16.256,20 16.512,19.902 16.707,19.707 L24.707,11.707 C25.098,11.316 25.098,10.684 24.707,10.293 C24.316,9.902 23.684,9.902 23.293,10.293 L15.293,18.293 C14.902,18.684 14.902,19.316 15.293,19.707 C15.488,19.902 15.744,20 16,20 L16,20 Z" id="Shape" fill="#000000"></path>
        <path d="M41,28 L21,28 C20.447,28 20,28.448 20,29 C20,29.552 20.447,30 21,30 L41,30 C41.553,30 42,29.552 42,29 C42,28.448 41.553,28 41,28 L41,28 Z" id="Shape" fill="#000000"></path>
        <path d="M41,32 L21,32 C20.447,32 20,32.448 20,33 C20,33.552 20.447,34 21,34 L41,34 C41.553,34 42,33.552 42,33 C42,32.448 41.553,32 41,32 L41,32 Z" id="Shape" fill="#000000"></path>
        <path d="M41,36 L21,36 C20.447,36 20,36.448 20,37 C20,37.552 20.447,38 21,38 L41,38 C41.553,38 42,37.552 42,37 C42,36.448 41.553,36 41,36 L41,36 Z" id="Shape" fill="#000000"></path>
    </g>
</svg>