<?xml version="1.0" encoding="UTF-8" standalone="no"?>
<svg width="64px" height="64px" viewBox="0 0 64 64" version="1.1" xmlns="http://www.w3.org/2000/svg" xmlns:xlink="http://www.w3.org/1999/xlink">
    <!-- Generator: Sketch 3.7.2 (28276) - http://www.bohemiancoding.com/sketch -->
    <title>veh-sedgeway-2</title>
    <desc>Created with Sketch.</desc>
    <defs></defs>
    <g id="64px-Line" stroke="none" stroke-width="1" fill="none" fill-rule="evenodd">
        <g id="veh-sedgeway-2"></g>
        <path d="M33,54 C35.757,54 38,51.757 38,49 C38,46.243 35.757,44 33,44 C30.243,44 28,46.243 28,49 C28,51.757 30.243,54 33,54 L33,54 Z M33,46 C34.654,46 36,47.346 36,49 C36,50.654 34.654,52 33,52 C31.346,52 30,50.654 30,49 C30,47.346 31.346,46 33,46 L33,46 Z" id="Shape" fill="#000000"></path>
        <path d="M17,50 L22.051,50 C22.559,55.598 27.272,60 33,60 C39.065,60 44,55.065 44,49 L44,26.853 C44,25.746 44.201,24.662 44.597,23.629 L49.844,9.949 C50.153,9.023 50.003,8.038 49.432,7.246 C48.862,6.454 47.974,6 46.998,6 L41,6 C40.447,6 40,6.448 40,7 C40,7.552 40.447,8 41,8 L46.998,8 C47.323,8 47.619,8.151 47.81,8.416 C48,8.68 48.05,9.008 47.962,9.274 L42.73,22.913 C42.245,24.174 42,25.5 42,26.853 L42,42.696 C40.008,39.862 36.72,38.001 33,38.001 C27.272,38.001 22.558,42.403 22.051,48.001 L17,48.001 C16.447,48.001 16,48.449 16,49.001 C16,49.553 16.447,50 17,50 L17,50 Z M33,40 C37.963,40 42,44.038 42,49 C42,53.962 37.963,58 33,58 C28.037,58 24,53.962 24,49 C24,44.038 28.037,40 33,40 L33,40 Z" id="Shape" fill="#000000"></path>
        <path d="M19.295,45.958 C19.39,45.986 19.486,46 19.58,46 C20.012,46 20.409,45.719 20.538,45.285 C22.166,39.818 27.29,36 33,36 C34.951,36 36.826,36.421 38.573,37.252 C39.074,37.49 39.67,37.277 39.906,36.778 C40.143,36.279 39.93,35.683 39.432,35.445 C37.414,34.486 35.25,34 33,34 C26.412,34 20.5,38.406 18.622,44.714 C18.464,45.243 18.766,45.8 19.295,45.958 L19.295,45.958 Z" id="Shape" fill="#000000"></path>
    </g>
</svg>