<?xml version="1.0" encoding="UTF-8" standalone="no"?>
<svg width="64px" height="64px" viewBox="0 0 64 64" version="1.1" xmlns="http://www.w3.org/2000/svg" xmlns:xlink="http://www.w3.org/1999/xlink">
    <!-- Generator: Sketch 3.7.2 (28276) - http://www.bohemiancoding.com/sketch -->
    <title>veh-police</title>
    <desc>Created with Sketch.</desc>
    <defs></defs>
    <g id="64px-Line" stroke="none" stroke-width="1" fill="none" fill-rule="evenodd">
        <g id="veh-police"></g>
        <path d="M6,54 L8,54 L8,57 C8,58.654 9.346,60 11,60 L13,60 C14.654,60 16,58.654 16,57 L16,54 L46,54 L46,57 C46,58.654 47.346,60 49,60 L51,60 C52.654,60 54,58.654 54,57 L54,54 L56,54 C57.103,54 58,53.103 58,52 L58,48 C58,46.897 57.103,46 56,46 L56,37 C56,34.243 53.757,32 51,32 L50.659,32 L45.958,21.03 C45.169,19.189 43.364,18 41.362,18 L36,18 L36,15 C36,12.243 33.757,10 31,10 C28.243,10 26,12.243 26,15 L26,18 L20.638,18 C18.634,18 16.83,19.189 16.042,21.03 L11.341,32 L11,32 C8.243,32 6,34.243 6,37 L6,46 C4.897,46 4,46.897 4,48 L4,52 C4,53.103 4.897,54 6,54 L6,54 Z M14,57 C14,57.551 13.552,58 13,58 L11,58 C10.448,58 10,57.551 10,57 L10,54 L14,54 L14,57 L14,57 Z M52,57 C52,57.551 51.552,58 51,58 L49,58 C48.448,58 48,57.551 48,57 L48,54 L52,54 L52,57 L52,57 Z M28,15 C28,13.346 29.346,12 31,12 C32.654,12 34,13.346 34,15 L34,18 L28,18 L28,15 L28,15 Z M17.88,21.818 C18.354,20.714 19.436,20 20.638,20 L41.363,20 C42.564,20 43.647,20.714 44.121,21.818 L48.484,32 L13.517,32 L17.88,21.818 L17.88,21.818 Z M8,37 C8,35.346 9.346,34 11,34 L11.992,34 L11.996,34 L49.997,34 L50,34 L50.002,34 L51,34 C52.654,34 54,35.346 54,37 L54,46 L8,46 L8,37 L8,37 Z M6,48 L56,48 L56.001,52 L6,52 L6,48 L6,48 Z" id="Shape" fill="#000000"></path>
        <path d="M14,36 C11.794,36 10,37.794 10,40 C10,42.206 11.794,44 14,44 C16.206,44 18,42.206 18,40 C18,37.794 16.206,36 14,36 L14,36 Z M14,42 C12.897,42 12,41.103 12,40 C12,38.897 12.897,38 14,38 C15.103,38 16,38.897 16,40 C16,41.103 15.103,42 14,42 L14,42 Z" id="Shape" fill="#000000"></path>
        <path d="M48,36 C45.794,36 44,37.794 44,40 C44,42.206 45.794,44 48,44 C50.206,44 52,42.206 52,40 C52,37.794 50.206,36 48,36 L48,36 Z M48,42 C46.897,42 46,41.103 46,40 C46,38.897 46.897,38 48,38 C49.103,38 50,38.897 50,40 C50,41.103 49.103,42 48,42 L48,42 Z" id="Shape" fill="#000000"></path>
        <path d="M41,36 L21,36 C20.447,36 20,36.448 20,37 L20,43 C20,43.552 20.447,44 21,44 L41,44 C41.553,44 42,43.552 42,43 L42,37 C42,36.448 41.553,36 41,36 L41,36 Z M40,42 L22,42 L22,38 L40,38 L40,42 L40,42 Z" id="Shape" fill="#000000"></path>
        <path d="M22.707,22.293 C22.316,21.902 21.684,21.902 21.293,22.293 L18.293,25.293 C17.902,25.684 17.902,26.316 18.293,26.707 C18.488,26.902 18.744,27 19,27 C19.256,27 19.512,26.902 19.707,26.707 L22.707,23.707 C23.098,23.316 23.098,22.684 22.707,22.293 L22.707,22.293 Z" id="Shape" fill="#000000"></path>
        <path d="M26.293,22.293 L20.293,28.293 C19.902,28.684 19.902,29.316 20.293,29.707 C20.488,29.902 20.744,30 21,30 C21.256,30 21.512,29.902 21.707,29.707 L27.707,23.707 C28.098,23.316 28.098,22.684 27.707,22.293 C27.316,21.902 26.684,21.902 26.293,22.293 L26.293,22.293 Z" id="Shape" fill="#000000"></path>
        <path d="M32,7 L32,5 C32,4.448 31.553,4 31,4 C30.447,4 30,4.448 30,5 L30,7 C30,7.552 30.447,8 31,8 C31.553,8 32,7.552 32,7 L32,7 Z" id="Shape" fill="#000000"></path>
        <path d="M20,15 C20,15.552 20.447,16 21,16 L23,16 C23.553,16 24,15.552 24,15 C24,14.448 23.553,14 23,14 L21,14 C20.447,14 20,14.448 20,15 L20,15 Z" id="Shape" fill="#000000"></path>
        <path d="M38,15 C38,15.552 38.447,16 39,16 L41,16 C41.553,16 42,15.552 42,15 C42,14.448 41.553,14 41,14 L39,14 C38.447,14 38,14.448 38,15 L38,15 Z" id="Shape" fill="#000000"></path>
        <path d="M37.364,7.222 L35.95,8.637 C35.559,9.028 35.559,9.661 35.95,10.051 C36.145,10.246 36.401,10.344 36.657,10.344 C36.913,10.344 37.169,10.246 37.364,10.051 L38.778,8.636 C39.169,8.245 39.169,7.612 38.778,7.222 C38.388,6.831 37.755,6.831 37.364,7.222 L37.364,7.222 Z" id="Shape" fill="#000000"></path>
        <path d="M24.636,10.05 C24.831,10.245 25.087,10.343 25.343,10.343 C25.599,10.343 25.855,10.245 26.05,10.05 C26.441,9.66 26.441,9.027 26.05,8.636 L24.636,7.221 C24.245,6.83 23.613,6.83 23.222,7.221 C22.831,7.611 22.831,8.244 23.222,8.635 L24.636,10.05 L24.636,10.05 Z" id="Shape" fill="#000000"></path>
    </g>
</svg>