<?xml version="1.0" encoding="UTF-8" standalone="no"?>
<svg width="64px" height="64px" viewBox="0 0 64 64" version="1.1" xmlns="http://www.w3.org/2000/svg" xmlns:xlink="http://www.w3.org/1999/xlink">
    <!-- Generator: Sketch 3.7.2 (28276) - http://www.bohemiancoding.com/sketch -->
    <title>veh-coach</title>
    <desc>Created with Sketch.</desc>
    <defs></defs>
    <g id="64px-Line" stroke="none" stroke-width="1" fill="none" fill-rule="evenodd">
        <g id="veh-coach"></g>
        <path d="M5,30 L9,30 C9.553,30 10,29.552 10,29 L10,21.01 C10,20.967 10.067,17.214 12,16.234 L12,46.5 C12,49.372 13.624,51.869 16,53.128 L16,58 C16,59.103 16.897,60 18,60 L22,60 C23.103,60 24,59.103 24,58 L24,54 L38,54 L38,58 C38,59.103 38.897,60 40,60 L44,60 C45.103,60 46,59.103 46,58 L46,53.128 C48.376,51.868 50,49.371 50,46.5 L50,16.228 C51.961,17.197 52,20.958 52,21.002 L52,29 C52,29.552 52.447,30 53,30 L57,30 C57.553,30 58,29.552 58,29 L58,21 C58,20.448 57.553,20 57,20 L53.947,20 C53.707,17.653 52.6,14.426 49.599,14.044 C48.423,12.191 43.557,6 31,6 C18.441,6 13.576,12.192 12.401,14.044 C9.442,14.431 8.32,17.657 8.062,20 L5,20 C4.447,20 4,20.448 4,21 L4,29 C4,29.552 4.447,30 5,30 L5,30 Z M56,28 L54,28 L54,22 L56,22 L56,28 L56,28 Z M48,16 L48,38 L14,38 L14,16 L48,16 L48,16 Z M22,58 L18,58 L18,53.849 C18.485,53.948 18.986,54 19.5,54 L22,54 L22,58 L22,58 Z M44,58 L40,58 L40,54 L42.5,54 C43.014,54 43.515,53.948 44,53.849 L44,58 L44,58 Z M42.5,52 L19.5,52 C16.468,52 14,49.532 14,46.5 L14,40 L48,40 L48,46.5 C48,49.532 45.532,52 42.5,52 L42.5,52 Z M31,8 C40.629,8 45.238,11.831 47.079,14 L14.92,14 C16.764,11.829 21.373,8 31,8 L31,8 Z M6,22 L8,22 L8,28 L6,28 L6,22 L6,22 Z" id="Shape" fill="#000000"></path>
        <path d="M21,42 L17,42 C16.447,42 16,42.447 16,43 L16,46.5 C16,48.43 17.57,50 19.5,50 L21,50 C21.553,50 22,49.553 22,49 L22,43 C22,42.447 21.553,42 21,42 L21,42 Z M20,48 L19.5,48 C18.673,48 18,47.327 18,46.5 L18,44 L20,44 L20,48 L20,48 Z" id="Shape" fill="#000000"></path>
        <path d="M45,42 L41,42 C40.447,42 40,42.447 40,43 L40,49 C40,49.553 40.447,50 41,50 L42.5,50 C44.43,50 46,48.43 46,46.5 L46,43 C46,42.447 45.553,42 45,42 L45,42 Z M44,46.5 C44,47.327 43.327,48 42.5,48 L42,48 L42,44 L44,44 L44,46.5 L44,46.5 Z" id="Shape" fill="#000000"></path>
        <path d="M17,24 C17.256,24 17.512,23.902 17.707,23.707 L21.707,19.707 C22.098,19.316 22.098,18.684 21.707,18.293 C21.316,17.902 20.684,17.902 20.293,18.293 L16.293,22.293 C15.902,22.684 15.902,23.316 16.293,23.707 C16.488,23.902 16.744,24 17,24 L17,24 Z" id="Shape" fill="#000000"></path>
        <path d="M16.293,28.707 C16.488,28.902 16.744,29 17,29 C17.256,29 17.512,28.902 17.707,28.707 L26.707,19.707 C27.098,19.316 27.098,18.684 26.707,18.293 C26.316,17.902 25.684,17.902 25.293,18.293 L16.293,27.293 C15.902,27.684 15.902,28.316 16.293,28.707 L16.293,28.707 Z" id="Shape" fill="#000000"></path>
        <path d="M37,48 L25,48 C24.447,48 24,48.447 24,49 C24,49.553 24.447,50 25,50 L37,50 C37.553,50 38,49.553 38,49 C38,48.447 37.553,48 37,48 L37,48 Z" id="Shape" fill="#000000"></path>
        <path d="M37,44 L25,44 C24.447,44 24,44.447 24,45 C24,45.553 24.447,46 25,46 L37,46 C37.553,46 38,45.553 38,45 C38,44.447 37.553,44 37,44 L37,44 Z" id="Shape" fill="#000000"></path>
    </g>
</svg>