<?xml version="1.0" encoding="UTF-8" standalone="no"?>
<svg width="64px" height="64px" viewBox="0 0 64 64" version="1.1" xmlns="http://www.w3.org/2000/svg" xmlns:xlink="http://www.w3.org/1999/xlink">
    <!-- Generator: Sketch 3.7.2 (28276) - http://www.bohemiancoding.com/sketch -->
    <title>veh-mono</title>
    <desc>Created with Sketch.</desc>
    <defs></defs>
    <g id="64px-Line" stroke="none" stroke-width="1" fill="none" fill-rule="evenodd">
        <g id="veh-mono"></g>
        <path d="M33,60 C42.374,60 50,52.374 50,43 C50,33.963 42.908,26.573 34,26.051 L34,11.952 C38.831,11.485 41.674,7.769 41.8,7.6 C42.131,7.159 42.042,6.535 41.602,6.203 C41.162,5.871 40.535,5.958 40.202,6.398 C40.174,6.434 37.417,10 33,10 C28.593,10 25.839,6.451 25.799,6.398 C25.467,5.959 24.843,5.869 24.4,6.2 C23.958,6.531 23.869,7.158 24.2,7.6 C24.326,7.768 27.169,11.484 32,11.952 L32,26.051 C23.092,26.573 16,33.964 16,43 C16,52.374 23.626,60 33,60 L33,60 Z M32,28.051 L32,43 C32,43.552 32.448,44 33,44 C33.552,44 34,43.552 34,43 L34,28.051 C41.805,28.569 48,35.067 48,43 C48,51.271 41.271,58 33,58 C24.729,58 18,51.271 18,43 C18,35.066 24.195,28.569 32,28.051 L32,28.051 Z" id="Shape" fill="#000000"></path>
    </g>
</svg>