<?xml version="1.0" encoding="UTF-8" standalone="no"?>
<svg width="64px" height="64px" viewBox="0 0 64 64" version="1.1" xmlns="http://www.w3.org/2000/svg" xmlns:xlink="http://www.w3.org/1999/xlink">
    <!-- Generator: Sketch 3.7.2 (28276) - http://www.bohemiancoding.com/sketch -->
    <title>veh-road</title>
    <desc>Created with Sketch.</desc>
    <defs></defs>
    <g id="64px-Line" stroke="none" stroke-width="1" fill="none" fill-rule="evenodd">
        <g id="veh-road"></g>
        <path d="M28,29 L28,57 C28,58.654 29.346,60 31,60 C32.654,60 34,58.654 34,57 L34,29 C34,27.346 32.654,26 31,26 C29.346,26 28,27.346 28,29 L28,29 Z M32,29 L32,57 C32,57.551 31.551,58 31,58 C30.449,58 30,57.551 30,57 L30,29 C30,28.449 30.449,28 31,28 C31.551,28 32,28.449 32,29 L32,29 Z" id="Shape" fill="#000000"></path>
        <path d="M22,20 L23,20 C23.552,20 24,19.552 24,19 C24,18.448 23.552,18 23,18 L22,18 C21.185,18 20,16.052 20,13 C20,9.948 21.185,8 22,8 L30,8 L30,22.08 C26.613,22.568 24,25.481 24,29 L24,45 C24,45.552 24.448,46 25,46 C25.552,46 26,45.552 26,45 L26,29 C26,26.243 28.243,24 31,24 C33.757,24 36,26.243 36,29 L36,45 C36,45.552 36.448,46 37,46 C37.552,46 38,45.552 38,45 L38,29 C38,25.48 35.387,22.568 32,22.08 L32,8 L40,8 C40.815,8 42,9.948 42,13 C42,16.052 40.815,18 40,18 L39,18 C38.448,18 38,18.448 38,19 C38,19.552 38.448,20 39,20 L40,20 C42.28,20 44,16.991 44,13 C44,9.009 42.28,6 40,6 L22,6 C19.72,6 18,9.009 18,13 C18,16.991 19.72,20 22,20 L22,20 Z" id="Shape" fill="#000000"></path>
    </g>
</svg>