<?xml version="1.0" encoding="UTF-8" standalone="no"?>
<svg width="64px" height="64px" viewBox="0 0 64 64" version="1.1" xmlns="http://www.w3.org/2000/svg" xmlns:xlink="http://www.w3.org/1999/xlink">
    <!-- Generator: Sketch 3.7.2 (28276) - http://www.bohemiancoding.com/sketch -->
    <title>veh-penny-farthing</title>
    <desc>Created with Sketch.</desc>
    <defs></defs>
    <g id="64px-Line" stroke="none" stroke-width="1" fill="none" fill-rule="evenodd">
        <g id="veh-penny-farthing"></g>
        <path d="M40,20.051 L40,10 C40,7.794 38.206,6 36,6 L31,6 C30.448,6 30,6.448 30,7 C30,7.552 30.448,8 31,8 L36,8 C37.103,8 38,8.897 38,10 L38,16.025 C32.439,16.264 27.383,18.484 23.525,22 L17,22 C16.449,22 16,21.551 16,21 C16,20.448 15.552,20 15,20 C14.448,20 14,20.448 14,21 C14,22.654 15.346,24 17,24 L21.586,24 C18.11,28.031 16,33.272 16,39 L16,45 C16,45.345 15.965,45.682 15.898,46.008 C14.634,44.768 12.906,44 11,44 C7.14,44 4,47.14 4,51 C4,54.86 7.14,58 11,58 C14.86,58 18,54.86 18,51 C18,49.926 17.75,48.911 17.315,48 C17.75,47.089 18,46.074 18,45 L18,39 C18,27.758 26.886,18.578 38,18.051 L38,20.051 C27.989,20.576 20,28.861 20,39 C20,49.477 28.523,58 39,58 C49.477,58 58,49.477 58,39 C58,28.861 50.011,20.576 40,20.051 L40,20.051 Z M11,56 C8.243,56 6,53.757 6,51 C6,48.243 8.243,46 11,46 C12.627,46 14.061,46.793 14.974,48 C14.06,49.207 12.626,50 11,50 C10.448,50 10,50.448 10,51 C10,51.552 10.448,52 11,52 C12.906,52 14.634,51.232 15.898,49.992 C15.965,50.318 16,50.655 16,51 C16,53.757 13.757,56 11,56 L11,56 Z M39,38 C39.551,38 40,38.449 40,39 C40,39.551 39.551,40 39,40 C38.449,40 38,39.551 38,39 C38,38.449 38.449,38 39,38 L39,38 Z M39,56 C29.626,56 22,48.374 22,39 C22,29.963 29.092,22.573 38,22.051 L38,36.185 C36.839,36.599 36,37.699 36,39.001 C36,40.655 37.346,42.001 39,42.001 C40.654,42.001 42,40.655 42,39.001 C42,37.699 41.161,36.599 40,36.185 L40,22.051 C48.908,22.573 56,29.964 56,39 C56,48.374 48.374,56 39,56 L39,56 Z" id="Shape" fill="#000000"></path>
    </g>
</svg>