<?xml version="1.0" encoding="UTF-8" standalone="no"?>
<svg width="64px" height="64px" viewBox="0 0 64 64" version="1.1" xmlns="http://www.w3.org/2000/svg" xmlns:xlink="http://www.w3.org/1999/xlink">
    <!-- Generator: Sketch 3.7.2 (28276) - http://www.bohemiancoding.com/sketch -->
    <title>veh-helicopter</title>
    <desc>Created with Sketch.</desc>
    <defs></defs>
    <g id="64px-Line" stroke="none" stroke-width="1" fill="none" fill-rule="evenodd">
        <g id="veh-helicopter"></g>
        <path d="M59,12 L34,12 L34,11 C34,10.447 33.552,10 33,10 L29,10 C28.448,10 28,10.447 28,11 L28,12 L3,12 C2.448,12 2,12.447 2,13 C2,13.553 2.448,14 3,14 L28,14 L28,15 C28,15.553 28.448,16 29,16 L30,16 L30,18.071 C23.169,18.945 18,28.619 18,37 C18,37.681 18.049,38.332 18.12,38.968 C18.12,38.979 18.114,38.989 18.114,39 C18.114,39.047 18.134,39.086 18.14,39.131 C18.606,42.97 20.345,45.954 23.1,47.813 L20.376,53.943 C18.183,53.567 18.012,51.249 18,50.968 C17.982,50.428 17.539,50 17,50 C16.99,50 16.979,50 16.968,50.001 C16.416,50.018 15.983,50.48 16,51.031 C16.054,52.75 17.167,55.999 20.999,56 L20.999,56 L20.999,56 L20.999,56 L24.999,56 C25.551,56 25.999,55.553 25.999,55 C25.999,54.447 25.551,54 24.999,54 L22.538,54 L24.857,48.783 C26.622,49.571 28.679,50 31,50 C33.321,50 35.378,49.571 37.143,48.783 L39.462,54 L37,54 C36.448,54 36,54.447 36,55 C36,55.553 36.448,56 37,56 L41,56 L41,56 L41,56 L41,56 C44.831,56 45.945,52.75 45.999,51.031 C46.016,50.481 45.586,50.023 45.036,50.003 C44.475,50.014 44.023,50.413 44,50.964 C43.988,51.249 43.817,53.568 41.624,53.943 L38.899,47.813 C41.654,45.953 43.393,42.97 43.859,39.131 C43.865,39.086 43.885,39.046 43.885,39 C43.885,38.989 43.879,38.979 43.879,38.968 C43.95,38.332 43.999,37.681 43.999,37 C43.999,28.619 38.83,18.945 31.999,18.071 L31.999,16 L32.999,16 C33.551,16 33.999,15.553 33.999,15 L33.999,14 L58.999,14 C59.551,14 59.999,13.553 59.999,13 C59.999,12.447 59.552,12 59,12 L59,12 Z M31,48 C25.184,48 21.358,45.059 20.305,40 L41.695,40 C40.642,45.059 36.816,48 31,48 L31,48 Z M42,37 C42,37.342 41.982,37.672 41.962,38 L20.038,38 C20.018,37.672 20,37.342 20,37 C20,27.583 26.018,20 31,20 C35.982,20 42,27.583 42,37 L42,37 Z M32,14 L30,14 L30,12 L32,12 L32,14 L32,14 Z" id="Shape" fill="#000000"></path>
        <path d="M22.475,32.789 C22.358,33.328 22.702,33.86 23.241,33.977 C23.312,33.993 23.384,33.999 23.453,33.999 C23.913,33.999 24.328,33.679 24.43,33.21 C25.566,27.959 28.39,23.999 31,23.999 C31.552,23.999 32,23.552 32,22.999 C32,22.446 31.552,21.999 31,21.999 C26.746,22 23.599,27.593 22.475,32.789 L22.475,32.789 Z" id="Shape" fill="#000000"></path>
    </g>
</svg>