<?xml version="1.0" encoding="UTF-8" standalone="no"?>
<svg width="64px" height="64px" viewBox="0 0 64 64" version="1.1" xmlns="http://www.w3.org/2000/svg" xmlns:xlink="http://www.w3.org/1999/xlink">
    <!-- Generator: Sketch 3.7.2 (28276) - http://www.bohemiancoding.com/sketch -->
    <title>veh-sedgeway</title>
    <desc>Created with Sketch.</desc>
    <defs></defs>
    <g id="64px-Line" stroke="none" stroke-width="1" fill="none" fill-rule="evenodd">
        <g id="veh-sedgeway"></g>
        <path d="M13,60 L17,60 C18.654,60 20,58.654 20,57 L20,54 L42,54 L42,57 C42,58.654 43.346,60 45,60 L49,60 C50.654,60 52,58.654 52,57 L52,41 C52,39.346 50.654,38 49,38 L45,38 C43.346,38 42,39.346 42,41 L42,46 L39,46 C35.141,46 32,42.86 32,39 L32,14 C32,11.794 33.794,10 36,10 L36,11 C36,11.552 36.447,12 37,12 L47,12 C47.553,12 48,11.552 48,11 L48,7 C48,6.448 47.553,6 47,6 L37,6 C36.447,6 36,6.448 36,7 L36,8 C33.915,8 32.076,9.068 31,10.687 C29.924,9.069 28.085,8 26,8 L26,7 C26,6.448 25.553,6 25,6 L15,6 C14.447,6 14,6.448 14,7 L14,11 C14,11.552 14.447,12 15,12 L25,12 C25.553,12 26,11.552 26,11 L26,10 C28.206,10 30,11.794 30,14 L30,39 C30,42.86 26.859,46 23,46 L20,46 L20,41 C20,39.346 18.654,38 17,38 L13,38 C11.346,38 10,39.346 10,41 L10,57 C10,58.654 11.346,60 13,60 L13,60 Z M38,8 L46,8 L46,10 L38,10 L38,8 L38,8 Z M24,10 L16,10 L16,8 L24,8 L24,10 L24,10 Z M44,41 C44,40.449 44.448,40 45,40 L49,40 C49.552,40 50,40.449 50,41 L50,57 C50,57.551 49.552,58 49,58 L45,58 C44.448,58 44,57.551 44,57 L44,41 L44,41 Z M23,48 C26.479,48 29.502,46.016 31,43.121 C32.498,46.017 35.521,48 39,48 L42,48 L42,52 L20,52 L20,48 L23,48 L23,48 Z M12,41 C12,40.449 12.448,40 13,40 L17,40 C17.552,40 18,40.449 18,41 L18,57 C18,57.551 17.552,58 17,58 L13,58 C12.448,58 12,57.551 12,57 L12,41 L12,41 Z" id="Shape" fill="#000000"></path>
    </g>
</svg>