<?xml version="1.0" encoding="UTF-8" standalone="no"?>
<svg width="64px" height="64px" viewBox="0 0 64 64" version="1.1" xmlns="http://www.w3.org/2000/svg" xmlns:xlink="http://www.w3.org/1999/xlink">
    <!-- Generator: Sketch 3.7.2 (28276) - http://www.bohemiancoding.com/sketch -->
    <title>veh-tuk-tuk</title>
    <desc>Created with Sketch.</desc>
    <defs></defs>
    <g id="64px-Line" stroke="none" stroke-width="1" fill="none" fill-rule="evenodd">
        <g id="veh-tuk-tuk"></g>
        <path d="M28,48 L28,56 C28,58.206 29.794,60 32,60 C34.206,60 36,58.206 36,56 L36,48 C36,45.794 34.206,44 32,44 C29.794,44 28,45.794 28,48 L28,48 Z M34,48 L34,56 C34,57.103 33.103,58 32,58 C30.897,58 30,57.103 30,56 L30,48 C30,46.897 30.897,46 32,46 C33.103,46 34,46.897 34,48 L34,48 Z" id="Shape" fill="#000000"></path>
        <path d="M14,53.816 L14,56 C14,58.206 15.794,60 18,60 C20.206,60 22,58.206 22,56 L22,54 L25,54 C25.552,54 26,53.552 26,53 L26,48 C26,46.363 26.647,44.834 27.822,43.694 C28.996,42.554 30.536,41.944 32.186,42.003 C35.392,42.099 38,44.921 38,48.294 L38,53 C38,53.552 38.448,54 39,54 L42,54 L42,56 C42,58.206 43.794,60 46,60 C48.206,60 50,58.206 50,56 L50,53.816 C51.161,53.402 52,52.302 52,51 L52,25 C52,24.893 51.983,24.786 51.949,24.684 L47.949,12.684 C47.944,12.669 47.933,12.656 47.928,12.641 C47.917,12.613 47.902,12.589 47.889,12.562 C47.868,12.52 47.854,12.476 47.827,12.438 C47.648,12.174 43.315,6 32,6 C20.685,6 16.352,12.174 16.173,12.438 C16.147,12.476 16.132,12.521 16.111,12.562 C16.098,12.589 16.083,12.613 16.072,12.641 C16.066,12.656 16.056,12.669 16.051,12.684 L12.051,24.684 C12.017,24.786 12,24.893 12,25 L12,51 C12,52.302 12.839,53.402 14,53.816 L14,53.816 Z M20,56 C20,57.103 19.103,58 18,58 C16.897,58 16,57.103 16,56 L16,54 L20,54 L20,56 L20,56 Z M46,58 C44.897,58 44,57.103 44,56 L44,54 L48,54 L48,56 C48,57.103 47.103,58 46,58 L46,58 Z M49,52 L40,52 L40,48.293 C40,43.85 36.521,40.131 32.246,40.003 C30.062,39.942 27.996,40.738 26.43,42.257 C24.864,43.777 24.001,45.816 24.001,47.999 L24.001,51.999 L15.001,51.999 C14.45,51.999 14.001,51.55 14.001,50.999 L14.001,25.999 L50.001,25.999 L50.001,50.999 C50,51.551 49.551,52 49,52 L49,52 Z M17.721,14 L46.28,14 L49.613,24 L14.388,24 L17.721,14 L17.721,14 Z M44.664,12 L19.336,12 C21.279,10.352 25.228,8 32,8 C38.773,8 42.723,10.353 44.664,12 L44.664,12 Z" id="Shape" fill="#000000"></path>
        <path d="M32,28 C29.243,28 27,30.243 27,33 C27,35.757 29.243,38 32,38 C34.757,38 37,35.757 37,33 C37,30.243 34.757,28 32,28 L32,28 Z M32,36 C30.346,36 29,34.654 29,33 C29,31.346 30.346,30 32,30 C33.654,30 35,31.346 35,33 C35,34.654 33.654,36 32,36 L32,36 Z" id="Shape" fill="#000000"></path>
        <path d="M19,30 C17.346,30 16,31.346 16,33 C16,34.654 17.346,36 19,36 C20.654,36 22,34.654 22,33 C22,31.346 20.654,30 19,30 L19,30 Z M19,34 C18.449,34 18,33.551 18,33 C18,32.449 18.449,32 19,32 C19.551,32 20,32.449 20,33 C20,33.551 19.551,34 19,34 L19,34 Z" id="Shape" fill="#000000"></path>
        <path d="M45,30 C43.346,30 42,31.346 42,33 C42,34.654 43.346,36 45,36 C46.654,36 48,34.654 48,33 C48,31.346 46.654,30 45,30 L45,30 Z M45,34 C44.449,34 44,33.551 44,33 C44,32.449 44.449,32 45,32 C45.551,32 46,32.449 46,33 C46,33.551 45.551,34 45,34 L45,34 Z" id="Shape" fill="#000000"></path>
        <path d="M18.293,19.707 C18.488,19.902 18.744,20 19,20 C19.256,20 19.512,19.902 19.707,19.707 L21.707,17.707 C22.098,17.316 22.098,16.684 21.707,16.293 C21.316,15.902 20.684,15.902 20.293,16.293 L18.293,18.293 C17.902,18.684 17.902,19.316 18.293,19.707 L18.293,19.707 Z" id="Shape" fill="#000000"></path>
        <path d="M21.293,21.707 C21.488,21.902 21.744,22 22,22 C22.256,22 22.512,21.902 22.707,21.707 L26.707,17.707 C27.098,17.316 27.098,16.684 26.707,16.293 C26.316,15.902 25.684,15.902 25.293,16.293 L21.293,20.293 C20.902,20.684 20.902,21.316 21.293,21.707 L21.293,21.707 Z" id="Shape" fill="#000000"></path>
    </g>
</svg>