<?xml version="1.0" encoding="UTF-8" standalone="no"?>
<svg width="64px" height="64px" viewBox="0 0 64 64" version="1.1" xmlns="http://www.w3.org/2000/svg" xmlns:xlink="http://www.w3.org/1999/xlink">
    <!-- Generator: Sketch 3.7.2 (28276) - http://www.bohemiancoding.com/sketch -->
    <title>veh-lorry</title>
    <desc>Created with Sketch.</desc>
    <defs></defs>
    <g id="64px-Line" stroke="none" stroke-width="1" fill="none" fill-rule="evenodd">
        <g id="veh-lorry"></g>
        <path d="M20,34 C17.794,34 16,35.794 16,38 C16,40.206 17.794,42 20,42 C22.206,42 24,40.206 24,38 C24,35.794 22.206,34 20,34 L20,34 Z M20,40 C18.897,40 18,39.103 18,38 C18,36.897 18.897,36 20,36 C21.103,36 22,36.897 22,38 C22,39.103 21.103,40 20,40 L20,40 Z" id="Shape" fill="#000000"></path>
        <path d="M44,34 C41.794,34 40,35.794 40,38 C40,40.206 41.794,42 44,42 C46.206,42 48,40.206 48,38 C48,35.794 46.206,34 44,34 L44,34 Z M44,40 C42.897,40 42,39.103 42,38 C42,36.897 42.897,36 44,36 C45.103,36 46,36.897 46,38 C46,39.103 45.103,40 44,40 L44,40 Z" id="Shape" fill="#000000"></path>
        <path d="M37,40 L27,40 C26.448,40 26,40.447 26,41 C26,41.553 26.448,42 27,42 L37,42 C37.552,42 38,41.553 38,41 C38,40.447 37.552,40 37,40 L37,40 Z" id="Shape" fill="#000000"></path>
        <path d="M37,36 L27,36 C26.448,36 26,36.447 26,37 C26,37.553 26.448,38 27,38 L37,38 C37.552,38 38,37.553 38,37 C38,36.447 37.552,36 37,36 L37,36 Z" id="Shape" fill="#000000"></path>
        <path d="M21,22 C21.256,22 21.512,21.902 21.707,21.707 L23.707,19.707 C24.098,19.316 24.098,18.684 23.707,18.293 C23.316,17.902 22.684,17.902 22.293,18.293 L20.293,20.293 C19.902,20.684 19.902,21.316 20.293,21.707 C20.488,21.902 20.744,22 21,22 L21,22 Z" id="Shape" fill="#000000"></path>
        <path d="M27.293,18.293 L19.293,26.293 C18.902,26.684 18.902,27.316 19.293,27.707 C19.488,27.902 19.744,28 20,28 C20.256,28 20.512,27.902 20.707,27.707 L28.707,19.707 C29.098,19.316 29.098,18.684 28.707,18.293 C28.316,17.902 27.684,17.902 27.293,18.293 L27.293,18.293 Z" id="Shape" fill="#000000"></path>
        <path d="M47,58 L49,58 C50.654,58 52,56.654 52,55 L52,52 C53.103,52 54,51.103 54,50 L54,48 L55,48 C55.552,48 56,47.553 56,47 L56,7 C56,6.448 55.552,6 55,6 L9,6 C8.448,6 8,6.448 8,7 L8,47 C8,47.553 8.448,48 9,48 L10,48 L10,50 C10,51.103 10.897,52 12,52 L12,55 C12,56.654 13.346,58 15,58 L17,58 C18.654,58 20,56.654 20,55 L20,52 L44,52 L44,55 C44,56.654 45.346,58 47,58 L47,58 Z M50,55 C50,55.552 49.551,56 49,56 L47,56 C46.449,56 46,55.552 46,55 L46,52 L50,52 L50,55 L50,55 Z M12,50 L12,46 L52,46 L52,46.998 L52,47 L52,47.002 L52.001,50 L12,50 L12,50 Z M14,32.088 C14,32.058 14.007,32.03 14.008,32 L49.992,32 C49.992,32.03 50,32.058 50,32.088 L50,44 L14,44 L14,32.088 L14,32.088 Z M14.443,30 L19.206,17.298 C19.497,16.522 20.249,16 21.079,16 L42.921,16 C43.75,16 44.503,16.521 44.794,17.298 L49.557,30 L14.443,30 L14.443,30 Z M10,8 L54,8 L54,46 C54,44.897 53.103,44 52,44 L52,32.088 C52,31.246 51.85,30.419 51.555,29.63 L46.667,16.595 C46.085,15.042 44.58,13.999 42.921,13.999 L21.079,13.999 C19.421,13.999 17.915,15.042 17.333,16.595 L12.445,29.63 C12.15,30.419 12,31.245 12,32.088 L12,44 C10.897,44 10,44.897 10,46 L10,8 L10,8 Z M18,55 C18,55.552 17.551,56 17,56 L15,56 C14.449,56 14,55.552 14,55 L14,52 L18,52 L18,55 L18,55 Z" id="Shape" fill="#000000"></path>
    </g>
</svg>