<?xml version="1.0" encoding="UTF-8" standalone="no"?>
<svg width="64px" height="64px" viewBox="0 0 64 64" version="1.1" xmlns="http://www.w3.org/2000/svg" xmlns:xlink="http://www.w3.org/1999/xlink">
    <!-- Generator: Sketch 3.7.2 (28276) - http://www.bohemiancoding.com/sketch -->
    <title>veh-moped</title>
    <desc>Created with Sketch.</desc>
    <defs></defs>
    <g id="64px-Line" stroke="none" stroke-width="1" fill="none" fill-rule="evenodd">
        <g id="veh-moped"></g>
        <path d="M17,12 L26.101,12 C26.566,14.279 28.585,16 31,16 C33.415,16 35.434,14.279 35.899,12 L45,12 C45.553,12 46,11.552 46,11 C46,10.448 45.553,10 45,10 L35.899,10 C35.434,7.721 33.415,6 31,6 C28.585,6 26.566,7.721 26.101,10 L17,10 C16.447,10 16,10.448 16,11 C16,11.552 16.447,12 17,12 L17,12 Z M31,8 C32.654,8 34,9.346 34,11 C34,12.654 32.654,14 31,14 C29.346,14 28,12.654 28,11 C28,9.346 29.346,8 31,8 L31,8 Z" id="Shape" fill="#000000"></path>
        <path d="M31,60 C33.757,60 36,57.757 36,55 L36,50 L38,50 C41.309,50 44,47.309 44,44 L44,24 C44,20.691 41.309,18 38,18 L24,18 C20.691,18 18,20.691 18,24 L18,44 C18,47.309 20.691,50 24,50 L26,50 L26,55 C26,57.757 28.243,60 31,60 L31,60 Z M36,48 L26,48 L26,45 C26,42.243 28.243,40 31,40 C33.757,40 36,42.243 36,45 L36,48 L36,48 Z M34,55 C34,56.654 32.654,58 31,58 C29.346,58 28,56.654 28,55 L28,50 L34,50 L34,55 L34,55 Z M20,44 L20,24 C20,21.794 21.794,20 24,20 L38,20 C40.206,20 42,21.794 42,24 L42,44 C42,46.206 40.206,48 38,48 L38,45 C38,41.14 34.859,38 31,38 C27.141,38 24,41.14 24,45 L24,48 C21.794,48 20,46.206 20,44 L20,44 Z" id="Shape" fill="#000000"></path>
        <path d="M31,36 C31.553,36 32,35.552 32,35 L32,23 C32,22.448 31.553,22 31,22 C30.447,22 30,22.448 30,23 L30,35 C30,35.552 30.447,36 31,36 L31,36 Z" id="Shape" fill="#000000"></path>
    </g>
</svg>