<?xml version="1.0" encoding="UTF-8" standalone="no"?>
<svg width="64px" height="64px" viewBox="0 0 64 64" version="1.1" xmlns="http://www.w3.org/2000/svg" xmlns:xlink="http://www.w3.org/1999/xlink">
    <!-- Generator: Sketch 3.7.2 (28276) - http://www.bohemiancoding.com/sketch -->
    <title>veh-sailboat-2</title>
    <desc>Created with Sketch.</desc>
    <defs></defs>
    <g id="64px-Line" stroke="none" stroke-width="1" fill="none" fill-rule="evenodd">
        <g id="veh-sailboat-2"></g>
        <path d="M5,58 C4.447,58 4,58.447 4,59 C4,59.553 4.447,60 5,60 C7.193,60 9.524,58.954 11.778,57.943 C13.907,56.987 16.109,56 18,56 C19.899,56 22.123,56.994 24.272,57.955 C26.521,58.961 28.845,60 31,60 C33.173,60 35.553,58.945 37.854,57.926 C39.993,56.98 42.204,56 44,56 C45.796,56 48.007,56.979 50.146,57.926 C52.448,58.946 54.828,60 57,60 C57.553,60 58,59.553 58,59 C58,58.447 57.553,58 57,58 C55.252,58 53.07,57.035 50.96,56.1 C55.569,52.438 58,47.256 58,41 C58,40.534 57.679,40.13 57.225,40.025 L32,34.204 L32,30.014 C41.511,30.263 52.569,33.91 52.684,33.948 C52.788,33.983 52.894,34 53,34 C53.207,34 53.412,33.936 53.585,33.812 C53.846,33.624 54,33.322 54,33 C54,20.947 48.11,10.91 47.859,10.489 C47.728,10.268 47.517,10.107 47.27,10.037 C46.984,9.957 40.43,8.151 31.999,8.013 L31.999,5 C31.999,4.448 31.552,4 30.999,4 C30.446,4 29.999,4.448 29.999,5 L29.999,8.013 C21.568,8.15 15.014,9.957 14.728,10.037 C14.481,10.106 14.27,10.268 14.139,10.489 C13.89,10.91 8,20.947 8,33 C8,33.321 8.154,33.623 8.415,33.812 C8.677,34 9.011,34.051 9.316,33.949 C9.43,33.911 20.489,30.263 30,30.015 L30,34.205 L4.775,40.026 C4.321,40.13 4,40.534 4,41 C4,47.243 6.431,52.419 11.04,56.083 C11.014,56.095 10.987,56.107 10.96,56.119 C8.803,57.086 6.766,58 5,58 L5,58 Z M15.663,11.86 C17.259,11.456 23.524,10 31,10 C38.463,10 44.74,11.456 46.338,11.86 C47.314,13.631 51.593,21.917 51.973,31.628 C48.537,30.585 39.194,28 31,28 C22.806,28 13.463,30.585 10.027,31.628 C10.408,21.932 14.688,13.633 15.663,11.86 L15.663,11.86 Z M6.014,41.792 L31,36.026 L55.986,41.792 C55.784,47.503 53.365,51.995 48.824,55.185 C47.185,54.521 45.547,54 44,54 C41.78,54 39.373,55.066 37.045,56.098 C34.934,57.033 32.749,58 31,58 C29.272,58 27.24,57.092 25.089,56.13 C22.748,55.083 20.326,54 18,54 C16.41,54 14.783,54.51 13.168,55.164 C8.632,51.971 6.215,47.486 6.014,41.792 L6.014,41.792 Z" id="Shape" fill="#000000"></path>
        <path d="M31,54 C31.553,54 32,53.553 32,53 L32,41 C32,40.447 31.553,40 31,40 C30.447,40 30,40.447 30,41 L30,53 C30,53.553 30.447,54 31,54 L31,54 Z" id="Shape" fill="#000000"></path>
    </g>
</svg>