<?xml version="1.0" encoding="UTF-8" standalone="no"?>
<svg width="64px" height="64px" viewBox="0 0 64 64" version="1.1" xmlns="http://www.w3.org/2000/svg" xmlns:xlink="http://www.w3.org/1999/xlink">
    <!-- Generator: Sketch 3.7.2 (28276) - http://www.bohemiancoding.com/sketch -->
    <title>veh-sailboat</title>
    <desc>Created with Sketch.</desc>
    <defs></defs>
    <g id="64px-Line" stroke="none" stroke-width="1" fill="none" fill-rule="evenodd">
        <g id="veh-sailboat"></g>
        <path d="M5,60 C7.319,60 9.418,59.828 11.39,59.562 C11.462,59.558 11.534,59.552 11.604,59.533 C15.953,58.925 19.616,57.807 23.178,56.701 C27.654,55.312 31.884,54 37,54 C47.71,54 56.353,59.77 56.438,59.827 C56.895,60.139 57.517,60.017 57.827,59.561 C58.137,59.104 58.018,58.483 57.561,58.172 C57.366,58.039 54.804,56.336 50.78,54.751 C54.841,50.69 57.734,45.727 57.866,45.499 C58.045,45.189 58.045,44.809 57.866,44.499 C57.687,44.189 57.357,44 57,44 L7,44 C6.732,44 6.477,44.107 6.289,44.297 C6.101,44.487 5.997,44.745 6,45.012 C6.012,46.04 6.212,53.903 9.095,57.804 C7.793,57.92 6.445,58 5,58 C4.447,58 4,58.447 4,59 C4,59.553 4.447,60 5,60 L5,60 Z M8.033,46 L55.197,46 C53.948,47.916 51.552,51.297 48.685,53.989 C45.391,52.888 41.387,52 37,52 C31.58,52 27.211,53.355 22.585,54.791 C19.179,55.848 15.68,56.917 11.573,57.516 C9.044,55.716 8.203,49.358 8.033,46 L8.033,46 Z" id="Shape" fill="#000000"></path>
        <path d="M26.075,6.619 L12.075,40.619 C11.948,40.928 11.983,41.279 12.169,41.557 C12.355,41.835 12.666,42 13,42 L27,42 C27.553,42 28,41.553 28,41 L28,7 C28,6.522 27.662,6.112 27.194,6.019 C26.716,5.928 26.256,6.179 26.075,6.619 L26.075,6.619 Z M26,40 L14.493,40 L26,12.055 L26,40 L26,40 Z" id="Shape" fill="#000000"></path>
        <path d="M30.194,41.592 C30.385,41.852 30.686,42 31,42 C31.066,42 31.133,41.993 31.199,41.98 C31.367,41.946 48,38.4 48,24 C48,9.599 31.367,6.054 31.199,6.02 C30.816,5.94 30.426,6.093 30.194,6.408 C29.964,6.722 29.936,7.141 30.124,7.483 C30.163,7.553 34,14.644 34,24.001 C34,33.357 30.163,40.448 30.124,40.519 C29.937,40.859 29.964,41.278 30.194,41.592 L30.194,41.592 Z M36,24 C36,17.077 34.063,11.432 32.843,8.562 C36.988,9.95 46,14.105 46,24 C46,29.319 43.481,33.618 38.515,36.78 C36.431,38.106 34.325,38.95 32.841,39.442 C34.062,36.573 36,30.926 36,24 L36,24 Z" id="Shape" fill="#000000"></path>
    </g>
</svg>