<?xml version="1.0" encoding="UTF-8" standalone="no"?>
<svg width="64px" height="64px" viewBox="0 0 64 64" version="1.1" xmlns="http://www.w3.org/2000/svg" xmlns:xlink="http://www.w3.org/1999/xlink">
    <!-- Generator: Sketch 3.7.2 (28276) - http://www.bohemiancoding.com/sketch -->
    <title>veh-airship</title>
    <desc>Created with Sketch.</desc>
    <defs></defs>
    <g id="64px-Line" stroke="none" stroke-width="1" fill="none" fill-rule="evenodd">
        <g id="veh-airship"></g>
        <path d="M39,10 C34.295,10 26.432,11.77 19.348,14.739 C15.984,10.916 9.893,9.222 6.58,10.342 C4.94,10.896 3.999,12.131 3.999,13.731 L3.999,29 L3.999,44.27 C3.999,45.87 4.939,47.105 6.58,47.659 C7.257,47.888 8.05,47.999 8.912,47.999 C12.269,47.999 16.651,46.292 19.328,43.253 C21.517,44.171 23.778,44.974 26,45.646 L26,48 L24,48 L24,47 C24,46.447 23.552,46 23,46 C22.448,46 22,46.447 22,47 L22,51 C22,51.553 22.448,52 23,52 C23.552,52 24,51.553 24,51 L24,50 L26,50 L26,51 C26,52.654 27.346,54 29,54 L41,54 C42.654,54 44,52.654 44,51 L44,47.31 C52.055,45.107 58,37.744 58,29 C58,18.523 49.477,10 39,10 L39,10 Z M6,13.73 C6,13.266 6.126,12.606 7.22,12.236 C9.731,11.392 14.562,12.784 17.404,15.595 C12.604,17.811 8.368,20.583 5.999,23.72 L5.999,13.73 L6,13.73 Z M7.22,45.764 C6.126,45.394 6,44.734 6,44.27 L6,34.28 C8.369,37.418 12.604,40.189 17.405,42.405 C14.562,45.216 9.731,46.609 7.22,45.764 L7.22,45.764 Z M42,51 C42,51.552 41.551,52 41,52 L29,52 C28.449,52 28,51.552 28,51 L28,46.22 C32.235,47.365 36.184,48 39,48 C40.023,48 41.02,47.896 42,47.74 L42,51 L42,51 Z M39,46 C35.93,46 31.76,45.267 27.419,44.011 C27.368,43.987 27.312,43.979 27.256,43.964 C17.623,41.151 7.215,35.763 6.107,30 L19,30 C19.552,30 20,29.553 20,29 C20,28.447 19.552,28 19,28 L6.107,28 C7.721,19.605 29.084,12 39,12 C48.374,12 56,19.626 56,29 C56,38.374 48.374,46 39,46 L39,46 Z" id="Shape" fill="#000000"></path>
    </g>
</svg>