<?xml version="1.0" encoding="UTF-8" standalone="no"?>
<svg width="64px" height="64px" viewBox="0 0 64 64" version="1.1" xmlns="http://www.w3.org/2000/svg" xmlns:xlink="http://www.w3.org/1999/xlink">
    <!-- Generator: Sketch 3.7.2 (28276) - http://www.bohemiancoding.com/sketch -->
    <title>veh-van</title>
    <desc>Created with Sketch.</desc>
    <defs></defs>
    <g id="64px-Line" stroke="none" stroke-width="1" fill="none" fill-rule="evenodd">
        <g id="veh-van"></g>
        <path d="M49,42 C47.346,42 46,43.346 46,45 C46,46.654 47.346,48 49,48 C50.654,48 52,46.654 52,45 C52,43.346 50.654,42 49,42 L49,42 Z M49,46 C48.449,46 48,45.552 48,45 C48,44.448 48.449,44 49,44 C49.551,44 50,44.448 50,45 C50,45.552 49.551,46 49,46 L49,46 Z" id="Shape" fill="#000000"></path>
        <path d="M13,42 C11.346,42 10,43.346 10,45 C10,46.654 11.346,48 13,48 C14.654,48 16,46.654 16,45 C16,43.346 14.654,42 13,42 L13,42 Z M13,46 C12.449,46 12,45.552 12,45 C12,44.448 12.449,44 13,44 C13.551,44 14,44.448 14,45 C14,45.552 13.551,46 13,46 L13,46 Z" id="Shape" fill="#000000"></path>
        <path d="M52.444,15.512 C51.911,14.579 50.913,14 49.84,14 L39,14 C38.448,14 38,14.448 38,15 L38,34 L5,34 C4.448,34 4,34.447 4,35 L4,45 C4,45.553 4.448,46 5,46 L6.08,46 C6.568,49.386 9.481,52 13,52 C16.519,52 19.432,49.386 19.92,46 L42.08,46 C42.568,49.386 45.481,52 49,52 C52.519,52 55.432,49.386 55.92,46 L57,46 C58.654,46 60,44.654 60,43 L60,30.328 C60,29.286 59.727,28.256 59.209,27.351 L52.444,15.512 L52.444,15.512 Z M6,36 L38,36 L38,44 L19.92,44 C19.432,40.614 16.519,38 13,38 C9.481,38 6.568,40.614 6.08,44 L6,44 L6,36 L6,36 Z M13,50 C10.243,50 8,47.757 8,45 C8,42.243 10.243,40 13,40 C15.757,40 18,42.243 18,45 C18,47.757 15.757,50 13,50 L13,50 Z M49,50 C46.243,50 44,47.757 44,45 C44,42.243 46.243,40 49,40 C51.757,40 54,42.243 54,45 C54,47.757 51.757,50 49,50 L49,50 Z M58,43 C58,43.552 57.551,44 57,44 L55.92,44 C55.432,40.614 52.519,38 49,38 C45.481,38 42.568,40.614 42.08,44 L40,44 L40,16 L49.839,16 C50.197,16 50.529,16.193 50.707,16.504 L57.473,28.343 C57.818,28.947 58,29.633 58,30.327 L58,43 L58,43 Z" id="Shape" fill="#000000"></path>
        <path d="M49.895,18.553 C49.725,18.214 49.379,18 49,18 L43,18 C42.448,18 42,18.448 42,19 L42,29 C42,29.552 42.448,30 43,30 L54,30 C54.347,30 54.668,29.82 54.851,29.526 C55.033,29.231 55.05,28.863 54.895,28.553 L49.895,18.553 L49.895,18.553 Z M44,28 L44,20 L48.382,20 L52.382,28 L44,28 L44,28 Z" id="Shape" fill="#000000"></path>
    </g>
</svg>