<?xml version="1.0" encoding="UTF-8" standalone="no"?>
<svg width="64px" height="64px" viewBox="0 0 64 64" version="1.1" xmlns="http://www.w3.org/2000/svg" xmlns:xlink="http://www.w3.org/1999/xlink">
    <!-- Generator: Sketch 3.7.2 (28276) - http://www.bohemiancoding.com/sketch -->
    <title>veh-car</title>
    <desc>Created with Sketch.</desc>
    <defs></defs>
    <g id="64px-Line" stroke="none" stroke-width="1" fill="none" fill-rule="evenodd">
        <g id="veh-car"></g>
        <path d="M6,48 L8,48 L8,51 C8,52.654 9.346,54 11,54 L13,54 C14.654,54 16,52.654 16,51 L16,48 L46,48 L46,51 C46,52.654 47.346,54 49,54 L51,54 C52.654,54 54,52.654 54,51 L54,48 L56,48 C57.103,48 58,47.103 58,46 L58,42 C58,40.897 57.103,40 56,40 L56,31 C56,28.243 53.757,26 51,26 L50.659,26 L45.958,15.03 C45.169,13.189 43.365,12 41.362,12 L20.637,12 C18.634,12 16.83,13.189 16.041,15.03 L11.341,26 L11,26 C8.243,26 6,28.243 6,31 L6,40 C4.897,40 4,40.897 4,42 L4,46 C4,47.103 4.897,48 6,48 L6,48 Z M14,51 C14,51.551 13.551,52 13,52 L11,52 C10.449,52 10,51.551 10,51 L10,48 L14,48 L14,51 L14,51 Z M52,51 C52,51.551 51.551,52 51,52 L49,52 C48.449,52 48,51.551 48,51 L48,48 L52,48 L52,51 L52,51 Z M17.88,15.818 C18.354,14.714 19.436,14 20.638,14 L41.363,14 C42.565,14 43.647,14.714 44.121,15.818 L48.484,26 L13.517,26 L17.88,15.818 L17.88,15.818 Z M8,31 C8,29.346 9.346,28 11,28 L49.997,28 L50,28 L50.002,28 L51,28 C52.654,28 54,29.346 54,31 L54,40 L8,40 L8,31 L8,31 Z M6,42 L56,42 L56.001,46 L6,46 L6,42 L6,42 Z" id="Shape" fill="#000000"></path>
        <path d="M14,30 C11.794,30 10,31.794 10,34 C10,36.206 11.794,38 14,38 C16.206,38 18,36.206 18,34 C18,31.794 16.206,30 14,30 L14,30 Z M14,36 C12.897,36 12,35.103 12,34 C12,32.897 12.897,32 14,32 C15.103,32 16,32.897 16,34 C16,35.103 15.103,36 14,36 L14,36 Z" id="Shape" fill="#000000"></path>
        <path d="M48,30 C45.794,30 44,31.794 44,34 C44,36.206 45.794,38 48,38 C50.206,38 52,36.206 52,34 C52,31.794 50.206,30 48,30 L48,30 Z M48,36 C46.897,36 46,35.103 46,34 C46,32.897 46.897,32 48,32 C49.103,32 50,32.897 50,34 C50,35.103 49.103,36 48,36 L48,36 Z" id="Shape" fill="#000000"></path>
        <path d="M41,30 L21,30 C20.448,30 20,30.448 20,31 L20,37 C20,37.552 20.448,38 21,38 L41,38 C41.552,38 42,37.552 42,37 L42,31 C42,30.448 41.552,30 41,30 L41,30 Z M40,36 L22,36 L22,32 L40,32 L40,36 L40,36 Z" id="Shape" fill="#000000"></path>
        <path d="M22.707,16.293 C22.316,15.902 21.684,15.902 21.293,16.293 L18.293,19.293 C17.902,19.684 17.902,20.316 18.293,20.707 C18.488,20.902 18.744,21 19,21 C19.256,21 19.512,20.902 19.707,20.707 L22.707,17.707 C23.098,17.316 23.098,16.684 22.707,16.293 L22.707,16.293 Z" id="Shape" fill="#000000"></path>
        <path d="M26.293,16.293 L20.293,22.293 C19.902,22.684 19.902,23.316 20.293,23.707 C20.488,23.902 20.744,24 21,24 C21.256,24 21.512,23.902 21.707,23.707 L27.707,17.707 C28.098,17.316 28.098,16.684 27.707,16.293 C27.316,15.902 26.684,15.902 26.293,16.293 L26.293,16.293 Z" id="Shape" fill="#000000"></path>
    </g>
</svg>