<?xml version="1.0" encoding="UTF-8" standalone="no"?>
<svg width="64px" height="64px" viewBox="0 0 64 64" version="1.1" xmlns="http://www.w3.org/2000/svg" xmlns:xlink="http://www.w3.org/1999/xlink">
    <!-- Generator: Sketch 3.7.2 (28276) - http://www.bohemiancoding.com/sketch -->
    <title>veh-seaplane</title>
    <desc>Created with Sketch.</desc>
    <defs></defs>
    <g id="64px-Line" stroke="none" stroke-width="1" fill="none" fill-rule="evenodd">
        <g id="veh-seaplane"></g>
        <path d="M59,22 L32,22 L32,13 C32,12.447 31.553,12 31,12 C30.447,12 30,12.447 30,13 L30,22 L3,22 C2.447,22 2,22.447 2,23 C2,23.553 2.447,24 3,24 L9.026,24 C8.391,24.838 8,25.87 8,27 C8,29.757 10.243,32 13,32 C15.757,32 18,29.757 18,27 C18,25.87 17.609,24.838 16.974,24 L24.895,24 C20.797,26.864 17.999,32.51 17.999,39 L17.999,43 C17.999,43.012 18.004,43.024 18.004,43.036 C18.005,43.067 18.013,43.096 18.017,43.127 C18.029,43.22 18.052,43.307 18.088,43.391 C18.096,43.41 18.094,43.429 18.103,43.448 C18.11,43.462 18.123,43.469 18.13,43.483 C18.186,43.584 18.254,43.678 18.343,43.755 C18.345,43.757 18.347,43.76 18.349,43.762 C18.422,43.824 18.506,43.877 18.597,43.917 C18.664,43.947 25.483,46.96 30.294,51.713 C30.325,51.743 30.364,51.755 30.397,51.781 C30.466,51.834 30.534,51.891 30.616,51.925 C30.738,51.975 30.867,52.002 30.997,52.002 C31.127,52.002 31.257,51.976 31.379,51.925 C31.502,51.874 31.613,51.801 31.705,51.708 C36.385,47.029 43.329,43.948 43.399,43.918 C43.419,43.909 43.434,43.894 43.453,43.884 C43.498,43.861 43.539,43.834 43.58,43.804 C43.616,43.778 43.65,43.752 43.682,43.721 C43.717,43.688 43.748,43.651 43.778,43.612 C43.807,43.575 43.834,43.538 43.858,43.497 C43.868,43.48 43.882,43.467 43.891,43.449 C43.9,43.431 43.898,43.411 43.906,43.393 C43.942,43.309 43.966,43.221 43.978,43.129 C43.982,43.098 43.99,43.069 43.991,43.038 C43.991,43.026 43.996,43.015 43.996,43.002 L43.996,39.002 C43.996,32.512 41.199,26.866 37.1,24.002 L45.021,24.002 C44.386,24.84 43.995,25.872 43.995,27.002 C43.995,29.759 46.238,32.002 48.995,32.002 C51.752,32.002 53.995,29.759 53.995,27.002 C53.995,25.872 53.604,24.84 52.969,24.002 L59,24.002 C59.553,24.002 60,23.555 60,23.002 C60,22.449 59.553,22 59,22 L59,22 Z M16,27 C16,28.654 14.654,30 13,30 C11.346,30 10,28.654 10,27 C10,25.346 11.346,24 13,24 C14.654,24 16,25.346 16,27 L16,27 Z M40.734,42.985 C38.637,44.061 35.125,46.054 32,48.724 L32,38.619 L40.734,42.985 L40.734,42.985 Z M30,48.735 C26.836,46.041 23.349,44.056 21.266,42.985 L30,38.618 L30,48.735 L30,48.735 Z M42,39 L42,41.382 L31.447,36.106 C31.438,36.102 31.428,36.104 31.42,36.1 C31.291,36.04 31.152,36.001 31,36.001 C30.848,36.001 30.709,36.04 30.58,36.1 C30.571,36.104 30.561,36.102 30.553,36.106 L20,41.382 L20,39 C20,30.729 24.935,24 31,24 C37.065,24 42,30.729 42,39 L42,39 Z M52,27 C52,28.654 50.654,30 49,30 C47.346,30 46,28.654 46,27 C46,25.346 47.346,24 49,24 C50.654,24 52,25.346 52,27 L52,27 Z" id="Shape" fill="#000000"></path>
        <path d="M24.131,31.494 C24.308,31.806 24.641,32 25,32 L37,32 C37.359,32 37.692,31.807 37.869,31.494 C38.047,31.181 38.043,30.797 37.858,30.487 C36.157,27.636 33.657,26 31,26 C28.343,26 25.843,27.636 24.142,30.487 C23.957,30.797 23.953,31.181 24.131,31.494 L24.131,31.494 Z M31,28 C32.443,28 33.853,28.712 35.028,30 L26.971,30 C28.147,28.712 29.557,28 31,28 L31,28 Z" id="Shape" fill="#000000"></path>
    </g>
</svg>