<?xml version="1.0" encoding="UTF-8" standalone="no"?>
<svg width="64px" height="64px" viewBox="0 0 64 64" version="1.1" xmlns="http://www.w3.org/2000/svg" xmlns:xlink="http://www.w3.org/1999/xlink">
    <!-- Generator: Sketch 3.7.2 (28276) - http://www.bohemiancoding.com/sketch -->
    <title>veh-steamtrain</title>
    <desc>Created with Sketch.</desc>
    <defs></defs>
    <g id="64px-Line" stroke="none" stroke-width="1" fill="none" fill-rule="evenodd">
        <g id="veh-steamtrain"></g>
        <path d="M31,44 C34.859,44 38,40.859 38,37 C38,33.141 34.859,30 31,30 C27.141,30 24,33.141 24,37 C24,40.859 27.141,44 31,44 L31,44 Z M31,32 C33.757,32 36,34.243 36,37 C36,39.757 33.757,42 31,42 C28.243,42 26,39.757 26,37 C26,34.243 28.243,32 31,32 L31,32 Z" id="Shape" fill="#000000"></path>
        <path d="M54,49 L54,37 C54,36.447 53.553,36 53,36 L50,36 L50,11.646 C50.342,11.794 50.546,11.89 50.558,11.896 C50.7,11.966 50.851,12 50.999,12 C51.367,12 51.722,11.795 51.896,11.442 C52.14,10.947 51.938,10.348 51.443,10.103 C51.104,9.937 43.013,6 31,6 C18.987,6 10.896,9.937 10.557,10.104 C10.062,10.349 9.86,10.948 10.104,11.443 C10.349,11.939 10.95,12.141 11.443,11.897 C11.455,11.891 11.658,11.795 12.001,11.647 L12.001,36 L9.001,36 C8.448,36 8.001,36.447 8.001,37 L8.001,49 C8.001,49.553 8.448,50 9.001,50 L18.587,50 L10.294,58.293 C9.903,58.684 9.903,59.316 10.294,59.707 C10.489,59.902 10.745,60 11.001,60 C11.257,60 11.513,59.902 11.708,59.707 L21.415,50 L40.587,50 L50.294,59.707 C50.489,59.902 50.745,60 51.001,60 C51.257,60 51.513,59.902 51.708,59.707 C52.099,59.316 52.099,58.684 51.708,58.293 L43.414,50 L53,50 C53.553,50 54,49.553 54,49 L54,49 Z M48,24 L42,24 L42,18 L48,18 L48,24 L48,24 Z M14,18 L20,18 L20,24 L14,24 L14,18 L14,18 Z M14,26 L21,26 C21.553,26 22,25.553 22,25 L22,17 C22,16.447 21.553,16 21,16 L14,16 L14,10.868 C17.234,9.713 23.318,8 31,8 C38.682,8 44.766,9.713 48,10.868 L48,16 L41,16 C40.447,16 40,16.447 40,17 L40,25 C40,25.553 40.447,26 41,26 L48,26 L48,36 L43.949,36 C43.568,31.037 40.399,26.844 36,25.003 L36,17 C36,16.448 36.448,16 37,16 C37.553,16 38,15.553 38,15 C38,14.447 37.553,14 37,14 L25,14 C24.447,14 24,14.447 24,15 C24,15.553 24.447,16 25,16 C25.552,16 26,16.448 26,17 L26,25.003 C21.601,26.844 18.431,31.037 18.051,36 L14,36 L14,26 L14,26 Z M27.829,16 L34.171,16 C34.061,16.312 34,16.649 34,17 L34,24.363 C33.035,24.134 32.034,24 31,24 C29.966,24 28.965,24.134 28,24.363 L28,17 C28,16.649 27.939,16.312 27.829,16 L27.829,16 Z M31,26 C37.065,26 42,30.935 42,37 C42,43.065 37.065,48 31,48 C24.935,48 20,43.065 20,37 C20,30.935 24.935,26 31,26 L31,26 Z M10,48 L10,38 L18.051,38 C18.374,42.215 20.711,45.865 24.104,48 L10,48 L10,48 Z M52,48 L37.896,48 C41.289,45.865 43.626,42.215 43.949,38 L52,38 L52,48 L52,48 Z" id="Shape" fill="#000000"></path>
        <path d="M15,40 C13.346,40 12,41.346 12,43 C12,44.654 13.346,46 15,46 C16.654,46 18,44.654 18,43 C18,41.346 16.654,40 15,40 L15,40 Z M15,44 C14.448,44 14,43.552 14,43 C14,42.448 14.448,42 15,42 C15.552,42 16,42.448 16,43 C16,43.552 15.552,44 15,44 L15,44 Z" id="Shape" fill="#000000"></path>
        <path d="M44,43 C44,44.654 45.346,46 47,46 C48.654,46 50,44.654 50,43 C50,41.346 48.654,40 47,40 C45.346,40 44,41.346 44,43 L44,43 Z M48,43 C48,43.552 47.552,44 47,44 C46.448,44 46,43.552 46,43 C46,42.448 46.448,42 47,42 C47.552,42 48,42.448 48,43 L48,43 Z" id="Shape" fill="#000000"></path>
    </g>
</svg>