<?xml version="1.0" encoding="UTF-8" standalone="no"?>
<svg width="64px" height="64px" viewBox="0 0 64 64" version="1.1" xmlns="http://www.w3.org/2000/svg" xmlns:xlink="http://www.w3.org/1999/xlink">
    <!-- Generator: Sketch 3.7.2 (28276) - http://www.bohemiancoding.com/sketch -->
    <title>veh-moped-2</title>
    <desc>Created with Sketch.</desc>
    <defs></defs>
    <g id="64px-Line" stroke="none" stroke-width="1" fill="none" fill-rule="evenodd">
        <g id="veh-moped-2"></g>
        <path d="M49,36 C48.213,36 47.454,36.112 46.726,36.302 L46.002,34.42 C46.959,34.146 47.965,33.999 49,33.999 C51.51,33.999 53.873,34.822 55.833,36.378 C56.264,36.721 56.894,36.65 57.238,36.216 C57.581,35.784 57.509,35.154 57.076,34.811 C54.859,33.051 52.206,32.095 49.384,32.014 L45.512,21.946 C48.025,21.685 49.999,19.579 49.999,16.998 C49.999,14.241 47.756,11.998 44.999,11.998 L34.999,11.998 C34.447,11.998 33.999,12.446 33.999,12.998 C33.999,13.55 34.447,13.998 34.999,13.998 L40.285,13.998 C42.569,20.658 41.952,27.46 38.58,32.312 C36.542,35.248 33.708,37 31,37 C29.603,37 28.701,36.657 28.32,35.979 C27.38,34.305 29.157,30.664 29.853,29.521 C29.87,29.493 29.878,29.461 29.892,29.432 C29.906,29.404 29.918,29.377 29.929,29.347 C29.97,29.237 29.997,29.124 29.997,29.008 C29.997,29.005 29.999,29.003 29.999,29 L29.999,25 C29.999,24.448 29.551,24 28.999,24 L16.999,24 C15.345,24 13.999,25.346 13.999,27 L13.999,28.875 C8.183,30.941 3.999,36.484 3.999,43 L3.999,45 C3.999,45.552 4.447,46 4.999,46 L6.058,46 C6.558,50.493 10.375,54 14.999,54 C19.623,54 23.44,50.493 23.94,46 L35.143,46 C36.631,46 37.904,44.913 38.104,43.472 C38.616,39.785 40.962,36.721 44.137,35.145 L44.857,37.018 C41.976,38.52 40,41.531 40,45 C40,49.962 44.038,54 49,54 C53.962,54 58,49.962 58,45 C58,40.038 53.962,36 49,36 L49,36 Z M48,17 C48,18.654 46.654,20 45,20 L44.764,20 L42.456,14 L45,14 C46.654,14 48,15.346 48,17 L48,17 Z M16,27 C16,26.449 16.449,26 17,26 L28,26 L28,28 L19,28 C17.973,28 16.97,28.105 16,28.302 L16,27 L16,27 Z M15,52 C11.481,52 8.568,49.387 8.08,46 L10.101,46 C10.566,48.279 12.585,50 15,50 C17.415,50 19.434,48.279 19.899,46 L21.92,46 C21.432,49.387 18.519,52 15,52 L15,52 Z M12.184,46 L17.815,46 C17.401,47.162 16.301,48 14.999,48 C13.697,48 12.598,47.162 12.184,46 L12.184,46 Z M36.124,43.197 C36.061,43.655 35.639,44 35.144,44 L6,44 L6,43 C6,35.832 11.832,30 19,30 L27.335,30 C26.469,31.83 25.402,34.866 26.575,36.957 C27.335,38.313 28.824,39 30.999,39 C34.412,39 37.773,36.979 40.223,33.456 C42.356,30.386 43.5,26.632 43.63,22.624 L47.285,32.128 C46.276,32.263 45.296,32.504 44.367,32.862 C44.356,32.866 44.344,32.863 44.332,32.868 C44.314,32.875 44.303,32.889 44.286,32.897 C40.018,34.572 36.783,38.448 36.124,43.197 L36.124,43.197 Z M49,52 C45.14,52 42,48.86 42,45 C42,42.382 43.447,40.098 45.582,38.897 L46.313,40.797 C44.927,41.687 44.001,43.234 44.001,45 C44.001,47.757 46.244,50 49.001,50 C51.758,50 54.001,47.757 54.001,45 C54.001,42.243 51.758,40 49.001,40 C48.72,40 48.449,40.038 48.181,40.083 L47.449,38.179 C47.949,38.065 48.467,38 49.001,38 C52.861,38 56.001,41.14 56.001,45 C56.001,48.86 52.86,52 49,52 L49,52 Z M48.067,45.359 C48.22,45.756 48.599,46 49,46 C49.12,46 49.241,45.978 49.359,45.933 C49.875,45.735 50.132,45.156 49.933,44.641 L48.92,42.008 C48.947,42.007 48.972,42 49,42 C50.654,42 52,43.346 52,45 C52,46.654 50.654,48 49,48 C47.346,48 46,46.654 46,45 C46,44.09 46.416,43.284 47.057,42.733 L48.067,45.359 L48.067,45.359 Z" id="Shape" fill="#000000"></path>
        <path d="M15,36 C14.448,36 14,36.448 14,37 C14,37.552 14.448,38 15,38 C17.491,38 19.814,39.341 21.063,41.5 C21.249,41.82 21.584,41.999 21.93,41.999 C22.1,41.999 22.272,41.956 22.43,41.865 C22.908,41.588 23.071,40.976 22.795,40.498 C21.189,37.724 18.203,36 15,36 L15,36 Z" id="Shape" fill="#000000"></path>
    </g>
</svg>