<?xml version="1.0" encoding="UTF-8" standalone="no"?>
<svg width="64px" height="64px" viewBox="0 0 64 64" version="1.1" xmlns="http://www.w3.org/2000/svg" xmlns:xlink="http://www.w3.org/1999/xlink">
    <!-- Generator: Sketch 3.7.2 (28276) - http://www.bohemiancoding.com/sketch -->
    <title>veh-ship</title>
    <desc>Created with Sketch.</desc>
    <defs></defs>
    <g id="64px-Line" stroke="none" stroke-width="1" fill="none" fill-rule="evenodd">
        <g id="veh-ship"></g>
        <path d="M31,28 C30.448,28 30,28.447 30,29 L30,53 C30,53.553 30.448,54 31,54 C31.552,54 32,53.553 32,53 L32,29 C32,28.447 31.552,28 31,28 L31,28 Z" id="Shape" fill="#000000"></path>
        <path d="M55,58 C53.274,58 51.438,57.085 49.493,56.116 C47.868,55.307 46.199,54.483 44.483,54.154 L53.91,33.414 C54.02,33.172 54.029,32.897 53.936,32.648 C53.843,32.4 53.655,32.199 53.413,32.089 L48,29.629 L48,22 L53,22 C53.552,22 54,21.553 54,21 L54,15 C54,14.447 53.552,14 53,14 L36,14 L36,7 C36,6.447 35.552,6 35,6 L27,6 C26.448,6 26,6.447 26,7 L26,14 L9,14 C8.448,14 8,14.447 8,15 L8,21 C8,21.553 8.448,22 9,22 L14,22 L14,29.629 L8.586,32.09 C8.344,32.199 8.156,32.401 8.063,32.649 C7.97,32.898 7.98,33.172 8.089,33.415 L17.513,54.149 C15.735,54.475 14.057,55.314 12.425,56.139 C10.531,57.096 8.741,58 7,58 C6.448,58 6,58.447 6,59 C6,59.553 6.448,60 7,60 C9.218,60 11.307,58.944 13.328,57.923 C15.285,56.935 17.134,56 19,56 C20.875,56 22.743,56.94 24.721,57.936 C26.737,58.95 28.822,60 31,60 C33.196,60 35.333,58.936 37.398,57.907 C39.368,56.927 41.228,56 43,56 C44.772,56 46.632,56.927 48.602,57.907 C50.667,58.936 52.804,60 55,60 C55.552,60 56,59.553 56,59 C56,58.447 55.552,58 55,58 L55,58 Z M28,8 L34,8 L34,14 L28,14 L28,8 L28,8 Z M15,20 L10,20 L10,16 L52,16 L52,20 L47,20 C46.448,20 46,20.447 46,21 L46,28.72 L33.483,23.03 C31.905,22.312 30.095,22.312 28.518,23.03 L16,28.72 L16,21 C16,20.447 15.552,20 15,20 L15,20 Z M36.507,56.116 C34.562,57.085 32.726,58 31,58 C29.296,58 27.511,57.101 25.62,56.149 C23.719,55.192 21.759,54.215 19.661,54.037 L10.325,33.496 L29.346,24.85 C30.398,24.371 31.603,24.371 32.656,24.85 L46.611,31.193 L46.611,31.193 L51.676,33.495 L42.339,54.037 C40.332,54.22 38.39,55.179 36.507,56.116 L36.507,56.116 Z" id="Shape" fill="#000000"></path>
        <path d="M19,20 L43,20 C43.552,20 44,19.553 44,19 C44,18.447 43.552,18 43,18 L19,18 C18.448,18 18,18.447 18,19 C18,19.553 18.448,20 19,20 L19,20 Z" id="Shape" fill="#000000"></path>
    </g>
</svg>