<?xml version="1.0" encoding="UTF-8" standalone="no"?>
<svg width="64px" height="64px" viewBox="0 0 64 64" version="1.1" xmlns="http://www.w3.org/2000/svg" xmlns:xlink="http://www.w3.org/1999/xlink">
    <!-- Generator: Sketch 3.7.2 (28276) - http://www.bohemiancoding.com/sketch -->
    <title>veh-submarine</title>
    <desc>Created with Sketch.</desc>
    <defs></defs>
    <g id="64px-Line" stroke="none" stroke-width="1" fill="none" fill-rule="evenodd">
        <g id="veh-submarine"></g>
        <path d="M47,30 L46,30 L46,21 C46,19.346 44.654,18 43,18 L40,18 L40,11 C40,10.448 40.449,10 41,10 C41.552,10 42,9.553 42,9 C42,8.447 41.552,8 41,8 C39.346,8 38,9.346 38,11 L38,18 L32.64,18 C31.215,18 29.977,19.014 29.691,20.448 L28.148,30 L27,30 C24.024,30 19.855,31.098 15.882,32.782 C14.671,31.275 13.022,29.509 11.344,28.6 C9.8,27.762 7.975,27.803 6.461,28.705 C4.92,29.622 4.001,31.243 4.001,33.04 L4.001,52.958 C4.001,54.753 4.919,56.372 6.457,57.29 C7.247,57.762 8.121,57.999 8.997,57.999 C9.797,57.999 10.599,57.801 11.336,57.403 C12.992,56.511 14.619,54.782 15.82,53.298 C19.656,54.931 23.756,56 27,56 L47,56 C54.168,56 60,50.168 60,43 C60,35.832 54.168,30 47,30 L47,30 Z M31.659,20.804 C31.752,20.338 32.165,20 32.64,20 L43,20 C43.551,20 44,20.448 44,21 L44,30 L30.174,30 L31.659,20.804 L31.659,20.804 Z M6,33.041 C6,31.956 6.555,30.978 7.484,30.424 C8.387,29.887 9.473,29.862 10.391,30.359 C11.652,31.043 12.953,32.384 13.994,33.635 C10.774,35.181 7.842,37.074 6,39.03 L6,33.041 L6,33.041 Z M10.386,55.644 C9.469,56.14 8.382,56.113 7.481,55.575 C6.554,55.021 6,54.044 6,52.96 L6,46.986 C7.819,48.948 10.704,50.875 13.932,52.442 C12.904,53.668 11.626,54.976 10.386,55.644 L10.386,55.644 Z M47,54 L27,54 C23.674,54 19.713,52.88 16.13,51.292 C16.126,51.289 16.124,51.284 16.12,51.281 C15.993,51.183 15.85,51.131 15.703,51.102 C11.12,49.006 7.244,46.175 6.252,44 L15,44 C15.552,44 16,43.553 16,43 C16,42.447 15.552,42 15,42 L6.248,42 C7.246,39.779 11.231,37.007 15.797,34.944 C15.808,34.941 15.817,34.933 15.828,34.93 C19.621,33.22 23.805,32 27,32 L47,32 C53.065,32 58,36.935 58,43 C58,49.065 53.065,54 47,54 L47,54 Z" id="Shape" fill="#000000"></path>
    </g>
</svg>