<?xml version="1.0" encoding="UTF-8" standalone="no"?>
<svg width="64px" height="64px" viewBox="0 0 64 64" version="1.1" xmlns="http://www.w3.org/2000/svg" xmlns:xlink="http://www.w3.org/1999/xlink">
    <!-- Generator: Sketch 3.7.2 (28276) - http://www.bohemiancoding.com/sketch -->
    <title>veh-monoplane-2</title>
    <desc>Created with Sketch.</desc>
    <defs></defs>
    <g id="64px-Line" stroke="none" stroke-width="1" fill="none" fill-rule="evenodd">
        <g id="veh-monoplane-2"></g>
        <path d="M47.779,28.372 L49.756,26.395 C51.626,24.525 51.626,21.482 49.756,19.612 L47.779,17.635 L49.049,16.364 L55.053,22.368 C55.248,22.563 55.504,22.661 55.76,22.661 C56.016,22.661 56.272,22.563 56.467,22.368 C56.858,21.977 56.858,21.345 56.467,20.954 L43.045,7.532 C42.654,7.141 42.022,7.141 41.631,7.532 C41.24,7.923 41.24,8.555 41.631,8.946 L47.635,14.95 L46.365,16.221 L44.388,14.243 C42.519,12.372 39.474,12.372 37.605,14.243 L35.628,16.22 L24.255,4.847 C23.126,3.716 21.286,3.716 20.157,4.847 L13.446,11.558 C11.576,13.427 11.576,16.47 13.446,18.341 L23.476,28.37 L21.499,30.348 C19.362,32.485 17.39,34.895 15.734,37.344 C14.139,37.042 10.086,36.41 7.38,37.221 C5.77,37.704 4.562,38.97 4.149,40.607 C3.728,42.272 4.205,43.994 5.421,45.211 L18.787,58.577 C19.713,59.503 20.93,60 22.192,60 C22.591,60 22.996,59.95 23.396,59.849 C25.035,59.433 26.299,58.222 26.779,56.608 C27.585,53.901 26.956,49.856 26.655,48.265 C29.104,46.609 31.514,44.637 33.651,42.5 L35.629,40.522 L45.659,50.552 C46.594,51.487 47.822,51.954 49.051,51.954 C50.279,51.954 51.507,51.486 52.442,50.552 L59.153,43.841 C60.283,42.711 60.283,40.873 59.153,39.743 L47.779,28.372 L47.779,28.372 Z M14.86,16.929 C13.77,15.838 13.77,14.064 14.86,12.974 L21.571,6.263 C21.921,5.913 22.491,5.913 22.841,6.263 L34.214,17.636 L24.891,26.959 L14.86,16.929 L14.86,16.929 Z M6.088,41.098 C6.326,40.15 7.025,39.417 7.954,39.139 C9.878,38.562 12.826,38.893 14.558,39.172 C13.895,40.267 13.3,41.359 12.798,42.427 C11.786,44.576 11.216,46.464 11.071,48.035 L6.835,43.799 C6.121,43.084 5.841,42.074 6.088,41.098 L6.088,41.098 Z M24.862,56.039 C24.586,56.972 23.853,57.671 22.905,57.912 C21.926,58.16 20.918,57.882 20.201,57.165 L15.951,52.915 C17.528,52.774 19.412,52.22 21.573,51.202 C22.641,50.7 23.732,50.105 24.828,49.442 C25.107,51.171 25.436,54.112 24.862,56.039 L24.862,56.039 Z M32.236,41.087 C28.771,44.552 24.574,47.579 20.72,49.393 C18.102,50.625 15.841,51.158 14.494,50.92 L21.571,43.843 C21.962,43.452 21.962,42.82 21.571,42.429 C21.18,42.038 20.548,42.038 20.157,42.429 L13.08,49.506 C12.841,48.158 13.375,45.897 14.608,43.279 C16.421,39.425 19.449,35.228 22.914,31.763 L36.333,18.344 C36.334,18.343 36.335,18.343 36.336,18.342 C36.337,18.341 36.337,18.34 36.338,18.339 L39.02,15.657 C39.548,15.129 40.25,14.838 40.998,14.838 C41.746,14.838 42.447,15.129 42.976,15.657 L48.344,21.025 C48.872,21.553 49.163,22.255 49.163,23.003 C49.163,23.751 48.872,24.452 48.344,24.981 L32.236,41.087 L32.236,41.087 Z M57.737,42.429 L51.026,49.14 C49.937,50.229 48.163,50.231 47.072,49.14 L37.042,39.11 L46.365,29.787 L57.737,41.16 C58.087,41.509 58.087,42.079 57.737,42.429 L57.737,42.429 Z" id="Shape" fill="#000000"></path>
        <path d="M41.703,29.079 C43.573,27.209 43.573,24.167 41.703,22.297 C39.835,20.429 36.791,20.428 34.921,22.297 C32.259,24.959 28.637,30.848 30.895,33.106 C31.355,33.566 31.995,33.796 32.796,33.796 C33.749,33.796 34.93,33.47 36.306,32.821 C38.238,31.91 40.307,30.477 41.703,29.079 L41.703,29.079 Z M32.309,31.691 C32.093,31.475 32.071,30.447 32.927,28.605 C33.726,26.889 35.031,25.014 36.335,23.71 C36.88,23.165 37.596,22.893 38.313,22.893 C39.029,22.893 39.745,23.165 40.29,23.71 C41.38,24.8 41.38,26.574 40.29,27.664 C39.063,28.891 37.165,30.204 35.454,31.012 C33.489,31.938 32.486,31.868 32.309,31.691 L32.309,31.691 Z" id="Shape" fill="#000000"></path>
    </g>
</svg>