<?xml version="1.0" encoding="UTF-8" standalone="no"?>
<svg width="64px" height="64px" viewBox="0 0 64 64" version="1.1" xmlns="http://www.w3.org/2000/svg" xmlns:xlink="http://www.w3.org/1999/xlink">
    <!-- Generator: Sketch 3.7.2 (28276) - http://www.bohemiancoding.com/sketch -->
    <title>veh-monoplane-3</title>
    <desc>Created with Sketch.</desc>
    <defs></defs>
    <g id="64px-Line" stroke="none" stroke-width="1" fill="none" fill-rule="evenodd">
        <g id="veh-monoplane-3"></g>
        <path d="M31,36 C28.243,36 26,38.243 26,41 C26,43.757 28.243,46 31,46 C33.757,46 36,43.757 36,41 C36,38.243 33.757,36 31,36 L31,36 Z M31,44 C29.346,44 28,42.654 28,41 C28,39.346 29.346,38 31,38 C32.654,38 34,39.346 34,41 C34,42.654 32.654,44 31,44 L31,44 Z" id="Shape" fill="#000000"></path>
        <path d="M59,52 L37.896,52 C41.555,49.697 44,45.633 44,41 C44,39.229 43.641,37.54 42.997,36 L51,36 C51.553,36 52,35.553 52,35 C52,34.447 51.553,34 51,34 L41.937,34 C40.906,32.395 39.533,31.034 37.92,30.014 C37.969,29.679 38,29.34 38,29 C38,25.481 35.386,22.568 32,22.08 L32,15 C32,14.447 31.553,14 31,14 C30.447,14 30,14.447 30,15 L30,22.08 C26.614,22.568 24,25.481 24,29 C24,29.341 24.032,29.679 24.08,30.014 C22.467,31.034 21.094,32.394 20.063,34 L11,34 C10.447,34 10,34.447 10,35 C10,35.553 10.447,36 11,36 L19.003,36 C18.359,37.54 18,39.229 18,41 C18,45.633 20.445,49.697 24.104,52 L3,52 C2.447,52 2,52.447 2,53 C2,53.553 2.447,54 3,54 L59,54 C59.553,54 60,53.553 60,53 C60,52.447 59.553,52 59,52 L59,52 Z M26,29 C26,26.243 28.243,24 31,24 C33.757,24 36,26.243 36,29 L36,29.003 C34.46,28.359 32.771,28 31,28 C29.229,28 27.54,28.359 26,29.003 L26,29 L26,29 Z M20,41 C20,34.935 24.935,30 31,30 C37.065,30 42,34.935 42,41 C42,47.065 37.065,52 31,52 C24.935,52 20,47.065 20,41 L20,41 Z" id="Shape" fill="#000000"></path>
    </g>
</svg>