<?xml version="1.0" encoding="UTF-8" standalone="no"?>
<svg width="64px" height="64px" viewBox="0 0 64 64" version="1.1" xmlns="http://www.w3.org/2000/svg" xmlns:xlink="http://www.w3.org/1999/xlink">
    <!-- Generator: Sketch 3.7.2 (28276) - http://www.bohemiancoding.com/sketch -->
    <title>veh-underground</title>
    <desc>Created with Sketch.</desc>
    <defs></defs>
    <g id="64px-Line" stroke="none" stroke-width="1" fill="none" fill-rule="evenodd">
        <g id="veh-underground"></g>
        <path d="M17,34 L45,34 C45.553,34 46,33.553 46,33 L46,23 C46,21.346 44.654,20 43,20 L19,20 C17.346,20 16,21.346 16,23 L16,33 C16,33.553 16.447,34 17,34 L17,34 Z M18,23 C18,22.448 18.448,22 19,22 L43,22 C43.552,22 44,22.448 44,23 L44,32 L18,32 L18,23 L18,23 Z" id="Shape" fill="#000000"></path>
        <path d="M24,42 C24,39.794 22.206,38 20,38 C17.794,38 16,39.794 16,42 C16,44.206 17.794,46 20,46 C22.206,46 24,44.206 24,42 L24,42 Z M20,44 C18.897,44 18,43.103 18,42 C18,40.897 18.897,40 20,40 C21.103,40 22,40.897 22,42 C22,43.103 21.103,44 20,44 L20,44 Z" id="Shape" fill="#000000"></path>
        <path d="M42,38 C39.794,38 38,39.794 38,42 C38,44.206 39.794,46 42,46 C44.206,46 46,44.206 46,42 C46,39.794 44.206,38 42,38 L42,38 Z M42,44 C40.897,44 40,43.103 40,42 C40,40.897 40.897,40 42,40 C43.103,40 44,40.897 44,42 C44,43.103 43.103,44 42,44 L42,44 Z" id="Shape" fill="#000000"></path>
        <path d="M23.707,24.293 C23.316,23.902 22.684,23.902 22.293,24.293 L20.293,26.293 C19.902,26.684 19.902,27.316 20.293,27.707 C20.488,27.902 20.744,28 21,28 C21.256,28 21.512,27.902 21.707,27.707 L23.707,25.707 C24.098,25.316 24.098,24.684 23.707,24.293 L23.707,24.293 Z" id="Shape" fill="#000000"></path>
        <path d="M27.293,24.293 L23.293,28.293 C22.902,28.684 22.902,29.316 23.293,29.707 C23.488,29.902 23.744,30 24,30 C24.256,30 24.512,29.902 24.707,29.707 L28.707,25.707 C29.098,25.316 29.098,24.684 28.707,24.293 C28.316,23.902 27.684,23.902 27.293,24.293 L27.293,24.293 Z" id="Shape" fill="#000000"></path>
        <path d="M10.293,59.707 C10.488,59.902 10.744,60 11,60 C11.256,60 11.512,59.902 11.707,59.707 L21.414,50 L40.586,50 L50.293,59.707 C50.488,59.902 50.744,60 51,60 C51.256,60 51.512,59.902 51.707,59.707 C52.098,59.316 52.098,58.684 51.707,58.293 L43.414,50 L46,50 C48.206,50 50,48.206 50,46 L50,20.638 C50,18.912 49.138,17.337 47.693,16.423 C45.083,14.771 39.444,12 31,12 C22.556,12 16.917,14.771 14.307,16.423 C12.863,17.337 12,18.912 12,20.638 L12,46 C12,48.206 13.794,50 16,50 L18.586,50 L10.293,58.293 C9.902,58.684 9.902,59.316 10.293,59.707 L10.293,59.707 Z M14,46 L14,20.638 C14,19.602 14.515,18.659 15.377,18.113 C17.804,16.576 23.06,14 31,14 C38.94,14 44.196,16.576 46.623,18.112 C47.485,18.658 48,19.601 48,20.637 L48,46 C48,47.103 47.103,48 46,48 L16,48 C14.897,48 14,47.103 14,46 L14,46 Z" id="Shape" fill="#000000"></path>
        <path d="M5,60 C5.553,60 6,59.553 6,59 L6,31 C6,17.215 17.215,6 31,6 C44.785,6 56,17.215 56,31 L56,59 C56,59.553 56.447,60 57,60 C57.553,60 58,59.553 58,59 L58,31 C58,16.112 45.888,4 31,4 C16.112,4 4,16.112 4,31 L4,59 C4,59.553 4.447,60 5,60 L5,60 Z" id="Shape" fill="#000000"></path>
    </g>
</svg>