<?xml version="1.0" encoding="UTF-8" standalone="no"?>
<svg width="64px" height="64px" viewBox="0 0 64 64" version="1.1" xmlns="http://www.w3.org/2000/svg" xmlns:xlink="http://www.w3.org/1999/xlink">
    <!-- Generator: Sketch 3.7.2 (28276) - http://www.bohemiancoding.com/sketch -->
    <title>veh-plane</title>
    <desc>Created with Sketch.</desc>
    <defs></defs>
    <g id="64px-Line" stroke="none" stroke-width="1" fill="none" fill-rule="evenodd">
        <g id="veh-plane"></g>
        <path d="M59,40 L39.857,40 C39.948,39.362 40,38.697 40,38 C40,35.273 39.337,32.419 38.205,30 L45,30 C45.553,30 46,29.553 46,29 C46,28.447 45.553,28 45,28 L37.089,28 C35.735,25.953 33.988,24.474 32,24.098 L32,13 C32,12.447 31.553,12 31,12 C30.447,12 30,12.447 30,13 L30,24.098 C28.012,24.473 26.265,25.953 24.911,28 L17,28 C16.447,28 16,28.447 16,29 C16,29.553 16.447,30 17,30 L23.795,30 C22.663,32.419 22,35.273 22,38 C22,38.697 22.052,39.362 22.143,40 L3,40 C2.447,40 2,40.447 2,41 C2,41.553 2.447,42 3,42 L11.54,42 C10.586,43.063 10,44.462 10,46 C10,49.309 12.691,52 16,52 C19.309,52 22,49.309 22,46 C22,44.462 21.414,43.063 20.46,42 L22.601,42 C23.825,45.74 26.854,48 31,48 C35.146,48 38.175,45.74 39.399,42 L41.54,42 C40.586,43.063 40,44.462 40,46 C40,49.309 42.691,52 46,52 C49.309,52 52,49.309 52,46 C52,44.462 51.414,43.063 50.46,42 L59,42 C59.553,42 60,41.553 60,41 C60,40.447 59.553,40 59,40 L59,40 Z M20,46 C20,48.206 18.206,50 16,50 C13.794,50 12,48.206 12,46 C12,43.794 13.794,42 16,42 C18.206,42 20,43.794 20,46 L20,46 Z M31,46 C26.617,46 24,43.01 24,38 C24,32.056 27.532,26 31,26 C34.468,26 38,32.056 38,38 C38,43.01 35.383,46 31,46 L31,46 Z M50,46 C50,48.206 48.206,50 46,50 C43.794,50 42,48.206 42,46 C42,43.794 43.794,42 46,42 C48.206,42 50,43.794 50,46 L50,46 Z" id="Shape" fill="#000000"></path>
        <path d="M31,28 C28.794,28 27,29.794 27,32 C27,32.553 27.447,33 28,33 C28.553,33 29,32.553 29,32 C29,30.897 29.897,30 31,30 C32.103,30 33,30.897 33,32 C33,32.553 33.447,33 34,33 C34.553,33 35,32.553 35,32 C35,29.794 33.206,28 31,28 L31,28 Z" id="Shape" fill="#000000"></path>
        <path d="M31,36 C29.346,36 28,37.346 28,39 C28,40.654 29.346,42 31,42 C32.654,42 34,40.654 34,39 C34,37.346 32.654,36 31,36 L31,36 Z M31,40 C30.448,40 30,39.552 30,39 C30,38.448 30.448,38 31,38 C31.552,38 32,38.448 32,39 C32,39.552 31.552,40 31,40 L31,40 Z" id="Shape" fill="#000000"></path>
    </g>
</svg>