<?xml version="1.0" encoding="UTF-8" standalone="no"?>
<svg width="64px" height="64px" viewBox="0 0 64 64" version="1.1" xmlns="http://www.w3.org/2000/svg" xmlns:xlink="http://www.w3.org/1999/xlink">
    <!-- Generator: Sketch 3.7.2 (28276) - http://www.bohemiancoding.com/sketch -->
    <title>veh-bicycle</title>
    <desc>Created with Sketch.</desc>
    <defs></defs>
    <g id="64px-Line" stroke="none" stroke-width="1" fill="none" fill-rule="evenodd">
        <g id="veh-bicycle"></g>
        <path d="M49,30 C48.223,30 47.466,30.083 46.734,30.237 L42.824,17.53 C42.175,15.419 40.254,14 38.045,14 L35,14 C34.448,14 34,14.448 34,15 C34,15.552 34.448,16 35,16 L38.046,16 C39.371,16 40.524,16.851 40.913,18.118 L42.723,24 L19.873,24 L16.964,20 L21,20 C21.552,20 22,19.552 22,19 C22,18.448 21.552,18 21,18 L13,18 C12.448,18 12,18.448 12,19 C12,19.552 12.448,20 13,20 L14.491,20 L18.273,25.2 L16.915,30.178 C16.292,30.068 15.654,30 15,30 C8.935,30 4,34.935 4,41 C4,47.065 8.935,52 15,52 C20.728,52 25.442,47.598 25.949,42 L31,42 C31.253,42 31.485,41.906 31.662,41.75 C31.687,41.728 31.711,41.704 31.735,41.679 C31.751,41.662 31.766,41.645 31.78,41.627 L43.67,27.078 L44.824,30.829 C40.825,32.477 38,36.413 38,41 C38,47.065 42.935,52 49,52 C55.065,52 60,47.065 60,41 C60,34.935 55.065,30 49,30 L49,30 Z M15,50 C10.038,50 6,45.962 6,41 C6,36.038 10.038,32 15,32 C15.472,32 15.933,32.048 16.386,32.118 L14.035,40.737 C13.953,41.038 14.016,41.36 14.205,41.607 C14.395,41.854 14.688,42 15,42 L23.941,42 C23.441,46.493 19.624,50 15,50 L15,50 Z M18.316,32.641 C21.344,33.847 23.568,36.645 23.941,40 L16.309,40 L18.316,32.641 L18.316,32.641 Z M25.949,40 C25.561,35.725 22.717,32.158 18.843,30.707 L19.78,27.273 L29.036,40 L25.949,40 L25.949,40 Z M31.046,39.363 L21.328,26 L41.968,26 L31.046,39.363 L31.046,39.363 Z M49,50 C44.038,50 40,45.962 40,41 C40,37.312 42.232,34.138 45.415,32.75 L48.044,41.294 C48.176,41.724 48.572,42 49,42 C49.098,42 49.197,41.985 49.294,41.955 C49.822,41.793 50.118,41.233 49.956,40.705 L47.327,32.161 C47.87,32.059 48.428,32 49,32 C53.962,32 58,36.038 58,41 C58,45.962 53.962,50 49,50 L49,50 Z" id="Shape" fill="#000000"></path>
    </g>
</svg>