<?xml version="1.0" encoding="UTF-8" standalone="no"?>
<svg width="64px" height="64px" viewBox="0 0 64 64" version="1.1" xmlns="http://www.w3.org/2000/svg" xmlns:xlink="http://www.w3.org/1999/xlink">
    <!-- Generator: Sketch 3.7.2 (28276) - http://www.bohemiancoding.com/sketch -->
    <title>wea-night-lightning-2</title>
    <desc>Created with Sketch.</desc>
    <defs></defs>
    <g id="64px-Line" stroke="none" stroke-width="1" fill="none" fill-rule="evenodd">
        <g id="wea-night-lightning-2"></g>
        <path d="M47.588,20.009 C46.266,15.323 41.935,12 37,12 C30.935,12 26,16.935 26,23 C26,23.337 26.015,23.671 26.043,24 L26,24 C21.589,24 18,27.589 18,32 C18,36.411 21.589,40 26,40 L48,40 C53.514,40 58,35.514 58,30 C58,24.35 53.253,19.785 47.588,20.009 L47.588,20.009 Z M48,38 L26,38 C22.691,38 20,35.309 20,32 C20,28.691 22.691,26 26,26 C26.351,26 26.703,26.03 27.045,26.091 C27.374,26.146 27.708,26.038 27.939,25.799 C28.169,25.56 28.266,25.221 28.196,24.896 C28.066,24.292 28,23.654 28,23 C28,18.037 32.038,14 37,14 C41.226,14 44.91,16.977 45.813,21.172 C45.817,21.216 45.824,21.26 45.834,21.303 C45.95,21.806 46.428,22.132 46.94,22.07 C47.288,22.023 47.644,22 48,22 C52.411,22 56,25.589 56,30 C56,34.411 52.411,38 48,38 L48,38 Z" id="Shape" fill="#000000"></path>
        <path d="M22.868,20.921 C23.034,20.631 23.044,20.277 22.895,19.979 C22.746,19.681 22.458,19.476 22.127,19.433 C18.113,18.92 15.086,15.51 15.086,11.5 C15.086,10.119 15.445,8.761 16.126,7.57 C16.292,7.28 16.302,6.926 16.153,6.628 C16.004,6.33 15.715,6.124 15.384,6.082 C14.955,6.027 14.519,6 14.087,6 C8.525,6 4,10.486 4,16 C4,21.514 8.525,26 14.086,26 C17.714,26 21.079,24.054 22.868,20.921 L22.868,20.921 Z M14.086,24 C9.627,24 6,20.411 6,16 C6,11.711 9.43,8.199 13.719,8.008 C13.303,9.119 13.087,10.303 13.087,11.5 C13.087,15.98 16.105,19.862 20.322,21.094 C18.799,22.913 16.517,24 14.086,24 L14.086,24 Z" id="Shape" fill="#000000"></path>
        <path d="M39.447,42.105 C38.951,41.858 38.353,42.058 38.105,42.552 L34.105,50.552 C33.95,50.862 33.967,51.23 34.149,51.525 C34.331,51.82 34.653,52 35,52 L37.382,52 L34.106,58.553 C33.859,59.047 34.059,59.648 34.553,59.895 C34.697,59.966 34.849,60 34.999,60 C35.366,60 35.719,59.798 35.895,59.447 L39.895,51.447 C40.05,51.137 40.033,50.769 39.851,50.474 C39.669,50.179 39.347,50 39,50 L36.618,50 L39.894,43.447 C40.142,42.953 39.941,42.353 39.447,42.105 L39.447,42.105 Z" id="Shape" fill="#000000"></path>
        <path d="M49,50 L46.618,50 L48.894,45.447 C49.141,44.953 48.941,44.352 48.447,44.105 C47.952,43.859 47.352,44.058 47.105,44.552 L44.105,50.552 C43.95,50.862 43.967,51.23 44.149,51.525 C44.331,51.82 44.653,52 45,52 L47.382,52 L45.106,56.553 C44.859,57.047 45.059,57.648 45.553,57.895 C45.697,57.966 45.849,58 45.999,58 C46.366,58 46.719,57.798 46.895,57.447 L49.895,51.447 C50.05,51.137 50.033,50.769 49.851,50.474 C49.669,50.179 49.347,50 49,50 L49,50 Z" id="Shape" fill="#000000"></path>
        <path d="M28.447,44.105 C27.952,43.859 27.352,44.058 27.105,44.552 L24.105,50.552 C23.95,50.862 23.967,51.23 24.149,51.525 C24.331,51.82 24.653,52 25,52 L27.382,52 L25.106,56.553 C24.859,57.047 25.059,57.648 25.553,57.895 C25.697,57.966 25.849,58 25.999,58 C26.366,58 26.719,57.798 26.895,57.447 L29.895,51.447 C30.05,51.137 30.033,50.769 29.851,50.474 C29.669,50.179 29.347,50 29,50 L26.618,50 L28.894,45.447 C29.142,44.953 28.941,44.353 28.447,44.105 L28.447,44.105 Z" id="Shape" fill="#000000"></path>
    </g>
</svg>