<?xml version="1.0" encoding="UTF-8" standalone="no"?>
<svg width="64px" height="64px" viewBox="0 0 64 64" version="1.1" xmlns="http://www.w3.org/2000/svg" xmlns:xlink="http://www.w3.org/1999/xlink">
    <!-- Generator: Sketch 3.7.2 (28276) - http://www.bohemiancoding.com/sketch -->
    <title>wea-day-snow-3</title>
    <desc>Created with Sketch.</desc>
    <defs></defs>
    <g id="64px-Line" stroke="none" stroke-width="1" fill="none" fill-rule="evenodd">
        <g id="wea-day-snow-3"></g>
        <path d="M5,22 L7,22 C7.553,22 8,21.552 8,21 C8,20.448 7.553,20 7,20 L5,20 C4.447,20 4,20.448 4,21 C4,21.552 4.447,22 5,22 L5,22 Z" id="Shape" fill="#000000"></path>
        <path d="M48,22 C47.862,22 47.726,22.003 47.588,22.008 C46.266,17.323 41.935,14 37,14 C30.935,14 26,18.935 26,25 C26,25.336 26.015,25.67 26.043,26 L26,26 C21.589,26 18,29.589 18,34 C18,38.411 21.589,42 26,42 L48,42 C53.514,42 58,37.514 58,32 C58,26.486 53.514,22 48,22 L48,22 Z M48,40 L26,40 C22.691,40 20,37.309 20,34 C20,30.691 22.691,28 26,28 C26.352,28 26.703,28.03 27.045,28.09 C27.373,28.148 27.707,28.038 27.939,27.799 C28.169,27.559 28.266,27.221 28.196,26.896 C28.065,26.29 28,25.652 28,25 C28,20.038 32.037,16 37,16 C41.223,16 44.905,18.974 45.812,23.165 C45.815,23.204 45.821,23.243 45.829,23.282 C45.935,23.795 46.415,24.138 46.94,24.07 C47.287,24.024 47.643,24.001 48,24.001 C52.411,24.001 56,27.59 56,32.001 C56,36.412 52.411,40 48,40 L48,40 Z" id="Shape" fill="#000000"></path>
        <path d="M19,14 C21.397,14 23.602,15.207 24.897,17.228 C25.194,17.693 25.813,17.828 26.279,17.53 C26.744,17.232 26.879,16.613 26.581,16.149 C24.916,13.551 22.082,12 19,12 C14.037,12 10,16.038 10,21 C10,24.863 12.457,28.29 16.114,29.527 C16.22,29.563 16.328,29.58 16.434,29.58 C16.851,29.58 17.241,29.317 17.381,28.9 C17.558,28.377 17.277,27.81 16.754,27.632 C13.911,26.67 12,24.004 12,21 C12,17.14 15.141,14 19,14 L19,14 Z" id="Shape" fill="#000000"></path>
        <path d="M20,9 L20,7 C20,6.448 19.553,6 19,6 C18.447,6 18,6.448 18,7 L18,9 C18,9.552 18.447,10 19,10 C19.553,10 20,9.552 20,9 L20,9 Z" id="Shape" fill="#000000"></path>
        <path d="M9.808,13.222 C10.003,13.417 10.259,13.515 10.515,13.515 C10.771,13.515 11.027,13.417 11.222,13.222 C11.613,12.831 11.613,12.199 11.222,11.808 L9.808,10.394 C9.417,10.003 8.785,10.003 8.394,10.394 C8.003,10.785 8.003,11.417 8.394,11.808 L9.808,13.222 L9.808,13.222 Z" id="Shape" fill="#000000"></path>
        <path d="M8.394,31.606 C8.589,31.801 8.845,31.899 9.101,31.899 C9.357,31.899 9.613,31.801 9.808,31.606 L11.222,30.192 C11.613,29.801 11.613,29.169 11.222,28.778 C10.831,28.387 10.199,28.387 9.808,28.778 L8.394,30.192 C8.003,30.583 8.003,31.216 8.394,31.606 L8.394,31.606 Z" id="Shape" fill="#000000"></path>
        <path d="M27.485,13.515 C27.741,13.515 27.997,13.417 28.192,13.222 L29.606,11.808 C29.997,11.417 29.997,10.785 29.606,10.394 C29.215,10.003 28.583,10.003 28.192,10.394 L26.778,11.808 C26.387,12.199 26.387,12.831 26.778,13.222 C26.974,13.417 27.229,13.515 27.485,13.515 L27.485,13.515 Z" id="Shape" fill="#000000"></path>
        <path d="M32.105,53.447 C32.281,53.798 32.633,54 33.001,54 C33.151,54 33.304,53.966 33.447,53.895 L36,52.619 L36,55 C36,55.552 36.447,56 37,56 C37.553,56 38,55.552 38,55 L38,52.618 L40.553,53.894 C40.697,53.966 40.849,53.999 40.999,53.999 C41.366,53.999 41.719,53.797 41.895,53.446 C42.142,52.952 41.942,52.351 41.448,52.104 L39.236,51 L41.447,49.895 C41.941,49.648 42.141,49.047 41.894,48.553 C41.646,48.058 41.046,47.858 40.552,48.106 L38,49.382 L38,47 C38,46.448 37.553,46 37,46 C36.447,46 36,46.448 36,47 L36,49.382 L33.447,48.106 C32.953,47.858 32.353,48.059 32.105,48.553 C31.858,49.047 32.058,49.648 32.552,49.895 L34.763,51 L32.552,52.105 C32.059,52.353 31.858,52.953 32.105,53.447 L32.105,53.447 Z" id="Shape" fill="#000000"></path>
        <path d="M20.105,53.447 C20.281,53.798 20.633,54 21.001,54 C21.151,54 21.304,53.966 21.447,53.895 L24,52.619 L24,55 C24,55.552 24.447,56 25,56 C25.553,56 26,55.552 26,55 L26,52.618 L28.553,53.894 C28.697,53.966 28.849,53.999 28.999,53.999 C29.366,53.999 29.719,53.797 29.895,53.446 C30.142,52.952 29.942,52.351 29.448,52.104 L27.236,51 L29.447,49.895 C29.941,49.648 30.141,49.047 29.894,48.553 C29.647,48.058 29.046,47.858 28.552,48.106 L26,49.382 L26,47 C26,46.448 25.553,46 25,46 C24.447,46 24,46.448 24,47 L24,49.382 L21.447,48.106 C20.953,47.858 20.352,48.059 20.105,48.553 C19.858,49.047 20.058,49.648 20.552,49.895 L22.763,51 L20.552,52.105 C20.059,52.353 19.858,52.953 20.105,53.447 L20.105,53.447 Z" id="Shape" fill="#000000"></path>
        <path d="M44.105,53.447 C44.281,53.798 44.633,54 45.001,54 C45.151,54 45.304,53.966 45.447,53.895 L48,52.619 L48,55 C48,55.552 48.447,56 49,56 C49.553,56 50,55.552 50,55 L50,52.618 L52.553,53.894 C52.697,53.966 52.849,53.999 52.999,53.999 C53.366,53.999 53.719,53.797 53.895,53.446 C54.142,52.952 53.942,52.351 53.448,52.104 L51.236,51 L53.447,49.895 C53.941,49.648 54.141,49.047 53.894,48.553 C53.647,48.058 53.046,47.858 52.552,48.106 L50,49.382 L50,47 C50,46.448 49.553,46 49,46 C48.447,46 48,46.448 48,47 L48,49.382 L45.447,48.106 C44.953,47.858 44.352,48.059 44.105,48.553 C43.858,49.047 44.058,49.648 44.552,49.895 L46.763,51 L44.552,52.105 C44.059,52.353 43.858,52.953 44.105,53.447 L44.105,53.447 Z" id="Shape" fill="#000000"></path>
    </g>
</svg>