<?xml version="1.0" encoding="UTF-8" standalone="no"?>
<svg width="64px" height="64px" viewBox="0 0 64 64" version="1.1" xmlns="http://www.w3.org/2000/svg" xmlns:xlink="http://www.w3.org/1999/xlink">
    <!-- Generator: Sketch 3.7.2 (28276) - http://www.bohemiancoding.com/sketch -->
    <title>wea-rain-3</title>
    <desc>Created with Sketch.</desc>
    <defs></defs>
    <g id="64px-Line" stroke="none" stroke-width="1" fill="none" fill-rule="evenodd">
        <g id="wea-rain-3"></g>
        <path d="M6,32.226 C6,37.616 10.364,42 15.728,42 L43,42 C50.168,42 56,36.139 56,28.936 C56,21.733 50.168,15.872 43,15.872 C42.651,15.872 42.301,15.886 41.952,15.914 C39.744,9.951 34.128,6.001 27.727,6.001 C19.355,6.001 12.545,12.846 12.545,21.259 C12.545,21.826 12.576,22.393 12.638,22.954 C8.688,24.272 6,27.963 6,32.226 L6,32.226 Z M13.977,24.652 C14.493,24.531 14.825,24.03 14.736,23.509 C14.61,22.773 14.546,22.016 14.546,21.259 C14.546,13.948 20.46,8.001 27.728,8.001 C33.527,8.001 38.584,11.738 40.312,17.299 C40.469,17.804 40.991,18.098 41.505,17.973 C41.998,17.906 42.501,17.871 43.001,17.871 C49.066,17.871 54.001,22.834 54.001,28.935 C54.001,35.036 49.065,40 43,40 L15.728,40 C11.467,40 8,36.512 8,32.226 C8,28.586 10.458,25.472 13.977,24.652 L13.977,24.652 Z" id="Shape" fill="#000000"></path>
        <path d="M34,54 L34,47 C34,46.6 33.762,46.238 33.394,46.081 C33.027,45.923 32.601,45.999 32.31,46.276 L27.189,51.155 L27.172,51.172 C26.416,51.927 26,52.932 26,54.001 C26,56.207 27.794,58.001 30,58.001 C32.206,58.001 34,56.206 34,54 L34,54 Z M28,54 C28,53.469 28.205,52.971 28.578,52.594 L32,49.334 L32,54 C32,55.103 31.103,56 30,56 C28.897,56 28,55.103 28,54 L28,54 Z" id="Shape" fill="#000000"></path>
        <path d="M44.31,46.276 L39.189,51.155 L39.172,51.172 C38.416,51.927 38,52.932 38,54.001 C38,56.207 39.794,58.001 42,58.001 C44.206,58.001 46,56.207 46,54.001 L46,47.001 C46,46.601 45.762,46.239 45.394,46.082 C45.026,45.923 44.6,46 44.31,46.276 L44.31,46.276 Z M44,54 C44,55.103 43.103,56 42,56 C40.897,56 40,55.103 40,54 C40,53.469 40.205,52.971 40.578,52.594 L44,49.334 L44,54 L44,54 Z" id="Shape" fill="#000000"></path>
        <path d="M22,54 L22,47 C22,46.6 21.762,46.238 21.394,46.081 C21.027,45.923 20.6,45.999 20.31,46.276 L15.189,51.155 L15.172,51.172 C14.416,51.927 14,52.932 14,54.001 C14,56.207 15.794,58.001 18,58.001 C20.206,58.001 22,56.206 22,54 L22,54 Z M20,54 C20,55.103 19.103,56 18,56 C16.897,56 16,55.103 16,54 C16,53.469 16.205,52.971 16.578,52.594 L20,49.334 L20,54 L20,54 Z" id="Shape" fill="#000000"></path>
    </g>
</svg>