<?xml version="1.0" encoding="UTF-8" standalone="no"?>
<svg width="64px" height="64px" viewBox="0 0 64 64" version="1.1" xmlns="http://www.w3.org/2000/svg" xmlns:xlink="http://www.w3.org/1999/xlink">
    <!-- Generator: Sketch 3.7.2 (28276) - http://www.bohemiancoding.com/sketch -->
    <title>wea-moon</title>
    <desc>Created with Sketch.</desc>
    <defs></defs>
    <g id="64px-Line" stroke="none" stroke-width="1" fill="none" fill-rule="evenodd">
        <g id="wea-moon"></g>
        <path d="M33.786,58 C43.816,58 52.721,52.881 57.608,44.306 C58.19,43.284 58.121,42.064 57.429,41.122 C56.731,40.174 55.578,39.741 54.421,39.994 C52.58,40.396 50.583,40.584 48.137,40.584 C33.918,40.584 22.35,28.93 22.35,14.606 C22.35,13.078 22.552,11.391 22.95,9.592 C23.214,8.397 22.73,7.183 21.717,6.5 C20.715,5.824 19.476,5.829 18.483,6.512 C10.783,11.807 6,20.815 6,30.022 C6,45.449 18.465,58 33.786,58 L33.786,58 Z M19.615,8.16 C19.788,8.041 19.954,7.999 20.101,7.999 C20.327,7.999 20.508,8.097 20.598,8.158 C20.724,8.243 21.127,8.568 20.996,9.16 C20.567,11.1 20.35,12.932 20.35,14.606 C20.35,30.033 32.815,42.584 48.137,42.584 C50.73,42.584 52.863,42.382 54.848,41.948 L54.848,41.948 C55.408,41.821 55.733,42.191 55.818,42.307 C55.924,42.451 56.142,42.839 55.871,43.315 C51.344,51.258 43.088,56 33.786,56 C19.567,56 8,44.346 8,30.022 C8,21.464 12.451,13.087 19.615,8.16 L19.615,8.16 Z" id="Shape" fill="#000000"></path>
    </g>
</svg>