<?xml version="1.0" encoding="UTF-8" standalone="no"?>
<svg width="64px" height="64px" viewBox="0 0 64 64" version="1.1" xmlns="http://www.w3.org/2000/svg" xmlns:xlink="http://www.w3.org/1999/xlink">
    <!-- Generator: Sketch 3.7.2 (28276) - http://www.bohemiancoding.com/sketch -->
    <title>wea-snow-2</title>
    <desc>Created with Sketch.</desc>
    <defs></defs>
    <g id="64px-Line" stroke="none" stroke-width="1" fill="none" fill-rule="evenodd">
        <g id="wea-snow-2"></g>
        <path d="M29.895,49.553 C29.648,49.059 29.049,48.857 28.553,49.106 L26,50.382 L26,48 C26,47.448 25.552,47 25,47 C24.448,47 24,47.448 24,48 L24,50.382 L21.447,49.106 C20.951,48.857 20.352,49.06 20.105,49.553 C19.858,50.047 20.058,50.648 20.552,50.895 L22.763,52 L20.552,53.105 C20.058,53.352 19.858,53.953 20.105,54.447 C20.28,54.798 20.633,55 21.001,55 C21.151,55 21.304,54.966 21.447,54.895 L24,53.619 L24,56 C24,56.552 24.448,57 25,57 C25.552,57 26,56.552 26,56 L26,53.618 L28.553,54.894 C28.697,54.966 28.849,54.999 28.999,54.999 C29.366,54.999 29.719,54.797 29.895,54.446 C30.142,53.952 29.942,53.351 29.448,53.104 L27.236,52 L29.447,50.895 C29.941,50.647 30.142,50.047 29.895,49.553 L29.895,49.553 Z" id="Shape" fill="#000000"></path>
        <path d="M41.895,49.553 C41.648,49.059 41.048,48.857 40.553,49.106 L38,50.382 L38,48 C38,47.448 37.552,47 37,47 C36.448,47 36,47.448 36,48 L36,50.382 L33.447,49.106 C32.952,48.857 32.352,49.06 32.105,49.553 C31.858,50.047 32.058,50.648 32.552,50.895 L34.763,52 L32.552,53.105 C32.058,53.352 31.858,53.953 32.105,54.447 C32.28,54.798 32.633,55 33.001,55 C33.151,55 33.304,54.966 33.447,54.895 L36,53.619 L36,56 C36,56.552 36.448,57 37,57 C37.552,57 38,56.552 38,56 L38,53.618 L40.553,54.894 C40.697,54.966 40.849,54.999 40.999,54.999 C41.366,54.999 41.719,54.797 41.895,54.446 C42.142,53.952 41.942,53.351 41.448,53.104 L39.236,52 L41.447,50.895 C41.941,50.647 42.142,50.047 41.895,49.553 L41.895,49.553 Z" id="Shape" fill="#000000"></path>
        <path d="M15.728,42 L43,42 C50.168,42 56,36.139 56,28.936 C56,21.733 50.168,15.872 43,15.872 C42.651,15.872 42.301,15.886 41.952,15.914 C39.744,9.951 34.128,6.001 27.727,6.001 C19.355,6.001 12.545,12.846 12.545,21.259 C12.545,21.826 12.576,22.393 12.638,22.954 C8.687,24.272 5.999,27.963 5.999,32.226 C6,37.615 10.364,42 15.728,42 L15.728,42 Z M13.977,24.652 C14.493,24.531 14.825,24.03 14.736,23.509 C14.61,22.773 14.546,22.016 14.546,21.259 C14.546,13.948 20.46,8.001 27.728,8.001 C33.527,8.001 38.584,11.738 40.312,17.299 C40.469,17.804 40.99,18.098 41.505,17.973 C41.998,17.906 42.501,17.871 43.001,17.871 C49.066,17.871 54.001,22.834 54.001,28.935 C54.001,35.036 49.065,40 43,40 L15.728,40 C11.467,40 8,36.512 8,32.226 C8,28.586 10.458,25.472 13.977,24.652 L13.977,24.652 Z" id="Shape" fill="#000000"></path>
    </g>
</svg>