<?xml version="1.0" encoding="UTF-8" standalone="no"?>
<svg width="64px" height="64px" viewBox="0 0 64 64" version="1.1" xmlns="http://www.w3.org/2000/svg" xmlns:xlink="http://www.w3.org/1999/xlink">
    <!-- Generator: Sketch 3.7.2 (28276) - http://www.bohemiancoding.com/sketch -->
    <title>wea-lightning</title>
    <desc>Created with Sketch.</desc>
    <defs></defs>
    <g id="64px-Line" stroke="none" stroke-width="1" fill="none" fill-rule="evenodd">
        <g id="wea-lightning"></g>
        <path d="M15.728,40 L43,40 C50.168,40 56,34.139 56,26.936 C56,19.733 50.168,13.872 43,13.872 C42.65,13.872 42.301,13.886 41.952,13.914 C39.743,7.951 34.128,4.001 27.727,4.001 C19.356,4.001 12.545,10.846 12.545,19.259 C12.545,19.825 12.576,20.393 12.638,20.954 C8.687,22.272 5.999,25.963 5.999,30.226 C6,35.615 10.363,40 15.728,40 L15.728,40 Z M13.978,22.652 C14.493,22.531 14.826,22.031 14.736,21.509 C14.61,20.772 14.547,20.014 14.547,19.258 C14.547,11.947 20.46,6 27.729,6 C33.528,6 38.585,9.737 40.313,15.298 C40.47,15.804 40.99,16.094 41.506,15.972 C41.998,15.905 42.501,15.87 43.001,15.87 C49.066,15.87 54.001,20.833 54.001,26.934 C54.001,33.035 49.065,38 43,38 L15.728,38 C11.467,38 8,34.512 8,30.226 C8,26.586 10.458,23.472 13.978,22.652 L13.978,22.652 Z" id="Shape" fill="#000000"></path>
        <path d="M31.851,50.474 C31.668,50.18 31.347,50 31,50 L28.618,50 L31.894,43.447 C32.141,42.953 31.941,42.352 31.447,42.105 C30.954,41.858 30.353,42.058 30.105,42.552 L26.105,50.552 C25.95,50.862 25.966,51.23 26.149,51.525 C26.332,51.82 26.653,52 27,52 L29.382,52 L26.106,58.553 C25.859,59.047 26.059,59.648 26.553,59.895 C26.697,59.967 26.849,60 26.999,60 C27.366,60 27.719,59.798 27.895,59.447 L31.895,51.447 C32.05,51.137 32.033,50.769 31.851,50.474 L31.851,50.474 Z" id="Shape" fill="#000000"></path>
    </g>
</svg>