<?xml version="1.0" encoding="UTF-8" standalone="no"?>
<svg width="64px" height="64px" viewBox="0 0 64 64" version="1.1" xmlns="http://www.w3.org/2000/svg" xmlns:xlink="http://www.w3.org/1999/xlink">
    <!-- Generator: Sketch 3.7.2 (28276) - http://www.bohemiancoding.com/sketch -->
    <title>wea-wind</title>
    <desc>Created with Sketch.</desc>
    <defs></defs>
    <g id="64px-Line" stroke="none" stroke-width="1" fill="none" fill-rule="evenodd">
        <g id="wea-wind"></g>
        <path d="M42,48 L17,48 C16.447,48 16,48.448 16,49 C16,49.552 16.447,50 17,50 L42,50 C44.206,50 46,48.206 46,46 C46,43.794 44.206,42 42,42 C39.794,42 38,43.794 38,46 C38,46.552 38.447,47 39,47 C39.553,47 40,46.552 40,46 C40,44.897 40.897,44 42,44 C43.103,44 44,44.897 44,46 C44,47.103 43.103,48 42,48 L42,48 Z" id="Shape" fill="#000000"></path>
        <path d="M49,60 C47.346,60 46,58.654 46,57 C46,56.448 45.553,56 45,56 C44.447,56 44,56.448 44,57 C44,59.757 46.243,62 49,62 C51.757,62 54,59.757 54,57 C54,54.243 51.757,52 49,52 L11,52 C10.447,52 10,52.448 10,53 C10,53.552 10.447,54 11,54 L49,54 C50.654,54 52,55.346 52,57 C52,58.654 50.654,60 49,60 L49,60 Z" id="Shape" fill="#000000"></path>
        <path d="M43,13.871 C42.65,13.871 42.301,13.885 41.952,13.913 C39.743,7.95 34.128,4 27.727,4 C19.356,4 12.545,10.845 12.545,19.258 C12.545,19.824 12.576,20.392 12.638,20.953 C8.687,22.271 5.999,25.962 5.999,30.225 C5.999,35.615 10.362,39.999 15.727,39.999 L43,39.999 C50.168,39.999 56,34.138 56,26.935 C56,19.732 50.168,13.871 43,13.871 L43,13.871 Z M43,38 L15.728,38 C11.467,38 8,34.512 8,30.226 C8,26.587 10.458,23.473 13.978,22.652 C14.493,22.531 14.826,22.031 14.736,21.509 C14.61,20.772 14.547,20.014 14.547,19.258 C14.547,11.947 20.46,6 27.729,6 C33.528,6 38.585,9.737 40.313,15.298 C40.47,15.804 40.993,16.094 41.506,15.972 C41.998,15.905 42.501,15.87 43.001,15.87 C49.066,15.87 54.001,20.833 54.001,26.934 C54.001,33.035 49.065,38 43,38 L43,38 Z" id="Shape" fill="#000000"></path>
    </g>
</svg>