<?xml version="1.0" encoding="UTF-8" standalone="no"?>
<svg width="64px" height="64px" viewBox="0 0 64 64" version="1.1" xmlns="http://www.w3.org/2000/svg" xmlns:xlink="http://www.w3.org/1999/xlink">
    <!-- Generator: Sketch 3.7.2 (28276) - http://www.bohemiancoding.com/sketch -->
    <title>wea-rain-2</title>
    <desc>Created with Sketch.</desc>
    <defs></defs>
    <g id="64px-Line" stroke="none" stroke-width="1" fill="none" fill-rule="evenodd">
        <g id="wea-rain-2"></g>
        <path d="M15.728,42 L43,42 C50.168,42 56,36.139 56,28.936 C56,21.733 50.168,15.872 43,15.872 C42.651,15.872 42.301,15.886 41.952,15.914 C39.744,9.951 34.128,6.001 27.727,6.001 C19.355,6.001 12.545,12.846 12.545,21.259 C12.545,21.826 12.576,22.393 12.638,22.954 C8.687,24.272 5.999,27.963 5.999,32.226 C6,37.615 10.364,42 15.728,42 L15.728,42 Z M13.977,24.652 C14.493,24.531 14.825,24.03 14.736,23.509 C14.61,22.773 14.546,22.016 14.546,21.259 C14.546,13.948 20.46,8.001 27.728,8.001 C33.527,8.001 38.584,11.738 40.312,17.299 C40.469,17.804 40.992,18.098 41.505,17.973 C41.998,17.906 42.501,17.871 43.001,17.871 C49.066,17.871 54.001,22.834 54.001,28.935 C54.001,35.036 49.065,40 43,40 L15.728,40 C11.467,40 8,36.512 8,32.226 C8,28.586 10.458,25.472 13.977,24.652 L13.977,24.652 Z" id="Shape" fill="#000000"></path>
        <path d="M28,54 L28,47 C28,46.6 27.762,46.238 27.394,46.081 C27.026,45.923 26.6,45.999 26.31,46.276 L21.189,51.155 L21.172,51.172 C20.416,51.927 20,52.932 20,54.001 C20,56.207 21.794,58.001 24,58.001 C26.206,58.001 28,56.206 28,54 L28,54 Z M22,54 C22,53.469 22.205,52.971 22.578,52.594 L26,49.334 L26,54 C26,55.103 25.103,56 24,56 C22.897,56 22,55.103 22,54 L22,54 Z" id="Shape" fill="#000000"></path>
        <path d="M38.31,46.276 L33.189,51.155 L33.172,51.172 C32.416,51.927 32,52.932 32,54.001 C32,56.207 33.794,58.001 36,58.001 C38.206,58.001 40,56.207 40,54.001 L40,47.001 C40,46.601 39.762,46.239 39.394,46.082 C39.026,45.923 38.6,46 38.31,46.276 L38.31,46.276 Z M38,54 C38,55.103 37.103,56 36,56 C34.897,56 34,55.103 34,54 C34,53.469 34.205,52.971 34.578,52.594 L38,49.334 L38,54 L38,54 Z" id="Shape" fill="#000000"></path>
    </g>
</svg>