<?xml version="1.0" encoding="UTF-8" standalone="no"?>
<svg width="64px" height="64px" viewBox="0 0 64 64" version="1.1" xmlns="http://www.w3.org/2000/svg" xmlns:xlink="http://www.w3.org/1999/xlink">
    <!-- Generator: Sketch 3.7.2 (28276) - http://www.bohemiancoding.com/sketch -->
    <title>wea-rainbow</title>
    <desc>Created with Sketch.</desc>
    <defs></defs>
    <g id="64px-Line" stroke="none" stroke-width="1" fill="none" fill-rule="evenodd">
        <g id="wea-rainbow"></g>
        <path d="M49,48 C49.552,48 50,47.552 50,47 L50,44 C50,34.075 41.925,26 32,26 C22.075,26 14,34.075 14,44 L14,47 C14,47.552 14.448,48 15,48 C15.552,48 16,47.552 16,47 L16,44 C16,35.178 23.178,28 32,28 C40.822,28 48,35.178 48,44 L48,47 C48,47.552 48.448,48 49,48 L49,48 Z" id="Shape" fill="#000000"></path>
        <path d="M32,14 C15.458,14 2,27.458 2,44 L2,47 C2,47.552 2.448,48 3,48 C3.552,48 4,47.552 4,47 L4,44 C4,28.561 16.561,16 32,16 C47.439,16 60,28.561 60,44 L60,47 C60,47.552 60.448,48 61,48 C61.552,48 62,47.552 62,47 L62,44 C62,27.458 48.542,14 32,14 L32,14 Z" id="Shape" fill="#000000"></path>
        <path d="M58,44 C58,29.664 46.336,18 32,18 C17.664,18 6,29.664 6,44 L6,47 C6,47.552 6.448,48 7,48 C7.552,48 8,47.552 8,47 L8,44 C8,30.767 18.767,20 32,20 C45.233,20 56,30.767 56,44 L56,47 C56,47.552 56.448,48 57,48 C57.552,48 58,47.552 58,47 L58,44 L58,44 Z" id="Shape" fill="#000000"></path>
        <path d="M53,48 C53.552,48 54,47.552 54,47 L54,44 C54,31.869 44.131,22 32,22 C19.869,22 10,31.869 10,44 L10,47 C10,47.552 10.448,48 11,48 C11.552,48 12,47.552 12,47 L12,44 C12,32.972 20.972,24 32,24 C43.028,24 52,32.972 52,44 L52,47 C52,47.552 52.448,48 53,48 L53,48 Z" id="Shape" fill="#000000"></path>
    </g>
</svg>