<?xml version="1.0" encoding="UTF-8" standalone="no"?>
<svg width="64px" height="64px" viewBox="0 0 64 64" version="1.1" xmlns="http://www.w3.org/2000/svg" xmlns:xlink="http://www.w3.org/1999/xlink">
    <!-- Generator: Sketch 3.7.2 (28276) - http://www.bohemiancoding.com/sketch -->
    <title>wea-temp-night</title>
    <desc>Created with Sketch.</desc>
    <defs></defs>
    <g id="64px-Line" stroke="none" stroke-width="1" fill="none" fill-rule="evenodd">
        <g id="wea-temp-night"></g>
        <path d="M42,42.674 L42,27 C42,25.346 40.654,24 39,24 C37.346,24 36,25.346 36,27 L36,42.674 C33.581,43.821 32,46.28 32,49 C32,52.859 35.14,56 39,56 C42.86,56 46,52.859 46,49 C46,46.281 44.419,43.822 42,42.674 L42,42.674 Z M39,54 C36.243,54 34,51.757 34,49 C34,46.903 35.314,45.024 37.277,44.305 C37.699,44.184 38,43.795 38,43.344 L38,27 C38,26.448 38.449,26 39,26 C39.551,26 40,26.448 40,27 L40,43.344 C40,43.676 40.165,43.986 40.439,44.172 C40.525,44.231 40.62,44.275 40.717,44.303 C42.682,45.022 43.999,46.903 43.999,49 C44,51.757 41.757,54 39,54 L39,54 Z" id="Shape" fill="#000000"></path>
        <path d="M46,40.514 L46,13 C46,9.141 42.86,6 39,6 C35.14,6 32,9.141 32,13 L32,40.514 C29.451,42.613 28,45.678 28,49 C28,55.065 32.935,60 39,60 C45.065,60 50,55.065 50,49 C50,45.678 48.548,42.612 46,40.514 L46,40.514 Z M39,58 C34.038,58 30,53.963 30,49 C30,46.166 31.29,43.562 33.542,41.843 C33.824,41.661 34,41.347 34,41.003 L34,13 C34,10.243 36.243,8 39,8 C41.757,8 44,10.243 44,13 L44,41.01 C44,41.364 44.188,41.683 44.48,41.86 C46.718,43.581 48,46.177 48,49.001 C48,53.963 43.962,58 39,58 L39,58 Z" id="Shape" fill="#000000"></path>
        <path d="M57,36 L51,36 C50.448,36 50,36.447 50,37 C50,37.553 50.448,38 51,38 L57,38 C57.552,38 58,37.553 58,37 C58,36.447 57.552,36 57,36 L57,36 Z" id="Shape" fill="#000000"></path>
        <path d="M57,30 L51,30 C50.448,30 50,30.447 50,31 C50,31.553 50.448,32 51,32 L57,32 C57.552,32 58,31.553 58,31 C58,30.447 57.552,30 57,30 L57,30 Z" id="Shape" fill="#000000"></path>
        <path d="M57,24 L51,24 C50.448,24 50,24.447 50,25 C50,25.553 50.448,26 51,26 L57,26 C57.552,26 58,25.553 58,25 C58,24.447 57.552,24 57,24 L57,24 Z" id="Shape" fill="#000000"></path>
        <path d="M57,18 L51,18 C50.448,18 50,18.447 50,19 C50,19.553 50.448,20 51,20 L57,20 C57.552,20 58,19.553 58,19 C58,18.447 57.552,18 57,18 L57,18 Z" id="Shape" fill="#000000"></path>
        <path d="M57,12 L51,12 C50.448,12 50,12.447 50,13 C50,13.553 50.448,14 51,14 L57,14 C57.552,14 58,13.553 58,13 C58,12.447 57.552,12 57,12 L57,12 Z" id="Shape" fill="#000000"></path>
        <path d="M24.127,22.433 C20.113,21.92 17.086,18.51 17.086,14.5 C17.086,13.119 17.445,11.761 18.126,10.57 C18.292,10.28 18.302,9.926 18.153,9.628 C18.004,9.33 17.715,9.124 17.384,9.082 C16.955,9.027 16.519,9 16.087,9 C10.525,9 6.001,13.486 6.001,19 C6.001,24.514 10.526,29 16.087,29 C19.714,29 23.08,27.054 24.869,23.921 C25.035,23.631 25.045,23.277 24.896,22.979 C24.747,22.681 24.458,22.476 24.127,22.433 L24.127,22.433 Z M16.086,27 C11.627,27 8,23.411 8,19 C8,14.711 11.43,11.199 15.719,11.008 C15.303,12.119 15.087,13.303 15.087,14.5 C15.087,18.98 18.105,22.862 22.322,24.094 C20.799,25.913 18.517,27 16.086,27 L16.086,27 Z" id="Shape" fill="#000000"></path>
    </g>
</svg>