<?xml version="1.0" encoding="UTF-8" standalone="no"?>
<svg width="64px" height="64px" viewBox="0 0 64 64" version="1.1" xmlns="http://www.w3.org/2000/svg" xmlns:xlink="http://www.w3.org/1999/xlink">
    <!-- Generator: Sketch 3.7.2 (28276) - http://www.bohemiancoding.com/sketch -->
    <title>wea-night-rain-2</title>
    <desc>Created with Sketch.</desc>
    <defs></defs>
    <g id="64px-Line" stroke="none" stroke-width="1" fill="none" fill-rule="evenodd">
        <g id="wea-night-rain-2"></g>
        <path d="M58,32 C58,26.35 53.252,21.776 47.588,22.009 C46.266,17.323 41.935,14 37,14 C30.935,14 26,18.935 26,25 C26,25.337 26.015,25.671 26.043,26 L26,26 C21.589,26 18,29.589 18,34 C18,38.411 21.589,42 26,42 L48,42 C53.514,42 58,37.514 58,32 L58,32 Z M20,34 C20,30.691 22.691,28 26,28 C26.351,28 26.703,28.03 27.045,28.091 C27.374,28.146 27.708,28.038 27.939,27.799 C28.169,27.56 28.266,27.221 28.196,26.896 C28.066,26.292 28,25.654 28,25 C28,20.037 32.038,16 37,16 C41.226,16 44.91,18.977 45.813,23.172 C45.817,23.216 45.824,23.26 45.834,23.303 C45.95,23.806 46.428,24.136 46.94,24.07 C47.287,24.024 47.643,24.001 47.999,24.001 C52.41,24.001 55.999,27.59 55.999,32.001 C55.999,36.412 52.41,40.001 47.999,40.001 L25.999,40.001 C22.691,40 20,37.309 20,34 L20,34 Z" id="Shape" fill="#000000"></path>
        <path d="M14.086,28 C17.713,28 21.079,26.054 22.868,22.921 C23.034,22.631 23.044,22.277 22.895,21.979 C22.746,21.681 22.458,21.476 22.127,21.433 C18.113,20.92 15.086,17.51 15.086,13.5 C15.086,12.119 15.445,10.761 16.126,9.57 C16.292,9.28 16.302,8.926 16.153,8.628 C16.004,8.33 15.715,8.124 15.384,8.082 C14.955,8.027 14.519,8 14.087,8 C8.525,8 4.001,12.486 4.001,18 C4.001,23.514 8.525,28 14.086,28 L14.086,28 Z M13.719,10.008 C13.303,11.119 13.087,12.303 13.087,13.5 C13.087,17.98 16.105,21.862 20.322,23.094 C18.8,24.913 16.517,26 14.087,26 C9.628,26 6.001,22.411 6.001,18 C6,13.711 9.43,10.199 13.719,10.008 L13.719,10.008 Z" id="Shape" fill="#000000"></path>
        <path d="M32.31,46.276 L27.189,51.155 C27.183,51.16 27.178,51.166 27.172,51.172 C26.416,51.928 26,52.932 26,54 C26,56.206 27.794,58 30,58 C32.206,58 34,56.206 34,54 L34,47 C34,46.6 33.762,46.238 33.394,46.081 C33.026,45.923 32.6,46 32.31,46.276 L32.31,46.276 Z M32,54 C32,55.103 31.103,56 30,56 C28.897,56 28,55.103 28,54 C28,53.47 28.205,52.971 28.578,52.594 L32,49.334 L32,54 L32,54 Z" id="Shape" fill="#000000"></path>
        <path d="M44.31,46.276 L39.189,51.155 C39.183,51.16 39.178,51.166 39.172,51.172 C38.416,51.928 38,52.932 38,54 C38,56.206 39.794,58 42,58 C44.206,58 46,56.206 46,54 L46,47 C46,46.6 45.762,46.238 45.394,46.081 C45.026,45.923 44.601,46 44.31,46.276 L44.31,46.276 Z M44,54 C44,55.103 43.103,56 42,56 C40.897,56 40,55.103 40,54 C40,53.47 40.205,52.971 40.578,52.594 L44,49.334 L44,54 L44,54 Z" id="Shape" fill="#000000"></path>
    </g>
</svg>