<?xml version="1.0" encoding="UTF-8" standalone="no"?>
<svg width="64px" height="64px" viewBox="0 0 64 64" version="1.1" xmlns="http://www.w3.org/2000/svg" xmlns:xlink="http://www.w3.org/1999/xlink">
    <!-- Generator: Sketch 3.7.2 (28276) - http://www.bohemiancoding.com/sketch -->
    <title>wea-snow</title>
    <desc>Created with Sketch.</desc>
    <defs></defs>
    <g id="64px-Line" stroke="none" stroke-width="1" fill="none" fill-rule="evenodd">
        <g id="wea-snow"></g>
        <path d="M26.105,54.447 C26.28,54.798 26.633,55 27.001,55 C27.151,55 27.304,54.966 27.447,54.895 L30,53.619 L30,56 C30,56.552 30.448,57 31,57 C31.552,57 32,56.552 32,56 L32,53.618 L34.553,54.894 C34.697,54.966 34.849,54.999 34.999,54.999 C35.366,54.999 35.719,54.797 35.895,54.446 C36.142,53.952 35.942,53.351 35.448,53.104 L33.236,52 L35.447,50.895 C35.941,50.648 36.141,50.047 35.894,49.553 C35.647,49.059 35.047,48.857 34.552,49.106 L32,50.382 L32,48 C32,47.448 31.552,47 31,47 C30.448,47 30,47.448 30,48 L30,50.382 L27.447,49.106 C26.952,48.857 26.352,49.06 26.105,49.553 C25.858,50.047 26.058,50.648 26.552,50.895 L28.763,52 L26.552,53.105 C26.059,53.353 25.858,53.953 26.105,54.447 L26.105,54.447 Z" id="Shape" fill="#000000"></path>
        <path d="M15.728,42 L43,42 C50.168,42 56,36.139 56,28.936 C56,21.733 50.168,15.872 43,15.872 C42.651,15.872 42.301,15.886 41.952,15.914 C39.744,9.951 34.128,6.001 27.727,6.001 C19.355,6.001 12.545,12.846 12.545,21.259 C12.545,21.826 12.576,22.393 12.638,22.954 C8.687,24.272 5.999,27.963 5.999,32.226 C6,37.615 10.364,42 15.728,42 L15.728,42 Z M13.977,24.652 C14.493,24.531 14.825,24.03 14.736,23.509 C14.61,22.773 14.546,22.016 14.546,21.259 C14.546,13.948 20.46,8.001 27.728,8.001 C33.527,8.001 38.584,11.738 40.312,17.299 C40.469,17.804 40.991,18.098 41.505,17.973 C41.998,17.906 42.501,17.871 43.001,17.871 C49.066,17.871 54.001,22.834 54.001,28.935 C54.001,35.036 49.065,40 43,40 L15.728,40 C11.467,40 8,36.512 8,32.226 C8,28.586 10.458,25.472 13.977,24.652 L13.977,24.652 Z" id="Shape" fill="#000000"></path>
    </g>
</svg>