<?xml version="1.0" encoding="UTF-8" standalone="no"?>
<svg width="64px" height="64px" viewBox="0 0 64 64" version="1.1" xmlns="http://www.w3.org/2000/svg" xmlns:xlink="http://www.w3.org/1999/xlink">
    <!-- Generator: Sketch 3.7.2 (28276) - http://www.bohemiancoding.com/sketch -->
    <title>wea-cloud</title>
    <desc>Created with Sketch.</desc>
    <defs></defs>
    <g id="64px-Line" stroke="none" stroke-width="1" fill="none" fill-rule="evenodd">
        <g id="wea-cloud"></g>
        <path d="M45.5,23.032 C45.078,23.032 44.655,23.051 44.235,23.087 C41.791,16.421 35.497,12 28.318,12 C18.969,12 11.363,19.597 11.363,28.936 C11.363,29.597 11.401,30.259 11.478,30.912 C7.032,32.342 3.999,36.447 3.999,41.194 C4,47.152 8.854,52 14.818,52 L45.5,52 C53.495,52 60,45.502 60,37.516 C60,29.53 53.495,23.032 45.5,23.032 L45.5,23.032 Z M45.5,50 L14.818,50 C9.956,50 6,46.049 6,41.193 C6,37.071 8.804,33.544 12.819,32.614 C13.336,32.494 13.67,31.992 13.579,31.469 C13.435,30.641 13.363,29.788 13.363,28.935 C13.363,20.7 20.072,13.999 28.318,13.999 C34.898,13.999 40.635,18.209 42.595,24.476 C42.752,24.978 43.274,25.272 43.782,25.15 C43.786,25.149 43.791,25.148 43.796,25.147 C44.358,25.07 44.93,25.032 45.5,25.032 C52.393,25.032 58,30.632 58,37.516 C58,44.4 52.393,50 45.5,50 L45.5,50 Z" id="Shape" fill="#000000"></path>
    </g>
</svg>