<?xml version="1.0" encoding="UTF-8" standalone="no"?>
<svg width="64px" height="64px" viewBox="0 0 64 64" version="1.1" xmlns="http://www.w3.org/2000/svg" xmlns:xlink="http://www.w3.org/1999/xlink">
    <!-- Generator: Sketch 3.7.2 (28276) - http://www.bohemiancoding.com/sketch -->
    <title>wea-day</title>
    <desc>Created with Sketch.</desc>
    <defs></defs>
    <g id="64px-Line" stroke="none" stroke-width="1" fill="none" fill-rule="evenodd">
        <g id="wea-day"></g>
        <path d="M5,30 L7,30 C7.552,30 8,29.552 8,29 C8,28.448 7.552,28 7,28 L5,28 C4.448,28 4,28.448 4,29 C4,29.552 4.448,30 5,30 L5,30 Z" id="Shape" fill="#000000"></path>
        <path d="M49.058,30.626 C47.692,25.583 43.139,22 37.948,22 C31.593,22 26.422,27.28 26.422,33.769 C26.422,34.158 26.44,34.544 26.475,34.924 C21.838,34.888 18.001,38.718 18.001,43.462 C18.001,48.17 21.755,52.001 26.369,52.001 L49.527,52.001 C55.302,52 60,47.204 60,41.308 C60,35.252 55.004,30.346 49.058,30.626 L49.058,30.626 Z M49.526,50 L26.368,50 C22.857,50 20,47.067 20,43.461 C20,39.856 22.857,36.923 26.368,36.923 C26.741,36.923 27.113,36.956 27.473,37.021 C27.801,37.079 28.136,36.972 28.367,36.733 C28.598,36.495 28.697,36.156 28.628,35.831 C28.49,35.173 28.42,34.479 28.42,33.769 C28.42,28.382 32.693,24 37.946,24 C42.416,24 46.315,27.229 47.275,31.782 C47.278,31.823 47.284,31.864 47.293,31.905 C47.401,32.419 47.893,32.763 48.406,32.691 C48.775,32.641 49.152,32.616 49.526,32.616 C54.198,32.616 58,36.515 58,41.308 C58,46.101 54.199,50 49.526,50 L49.526,50 Z" id="Shape" fill="#000000"></path>
        <path d="M20,17 L20,15 C20,14.448 19.552,14 19,14 C18.448,14 18,14.448 18,15 L18,17 C18,17.552 18.448,18 19,18 C19.552,18 20,17.552 20,17 L20,17 Z" id="Shape" fill="#000000"></path>
        <path d="M9.808,21.222 C10.003,21.417 10.259,21.515 10.515,21.515 C10.771,21.515 11.027,21.417 11.222,21.222 C11.613,20.831 11.613,20.199 11.222,19.808 L9.808,18.394 C9.417,18.003 8.785,18.003 8.394,18.394 C8.003,18.785 8.003,19.417 8.394,19.808 L9.808,21.222 L9.808,21.222 Z" id="Shape" fill="#000000"></path>
        <path d="M8.394,39.606 C8.589,39.801 8.845,39.899 9.101,39.899 C9.357,39.899 9.613,39.801 9.808,39.606 L11.222,38.192 C11.613,37.801 11.613,37.169 11.222,36.778 C10.831,36.387 10.199,36.387 9.808,36.778 L8.394,38.192 C8.003,38.583 8.003,39.216 8.394,39.606 L8.394,39.606 Z" id="Shape" fill="#000000"></path>
        <path d="M28.192,21.222 L29.606,19.808 C29.997,19.417 29.997,18.785 29.606,18.394 C29.215,18.003 28.583,18.003 28.192,18.394 L26.778,19.808 C26.387,20.199 26.387,20.831 26.778,21.222 C26.973,21.417 27.229,21.515 27.485,21.515 C27.741,21.515 27.997,21.417 28.192,21.222 L28.192,21.222 Z" id="Shape" fill="#000000"></path>
        <path d="M19,22 C21.603,22 23.976,23.431 25.193,25.734 C25.451,26.222 26.055,26.41 26.545,26.151 C27.033,25.893 27.22,25.288 26.962,24.799 C25.396,21.839 22.346,20 19,20 C14.038,20 10,24.038 10,29 C10,33.169 12.826,36.766 16.873,37.747 C16.953,37.767 17.032,37.775 17.11,37.775 C17.561,37.775 17.97,37.468 18.081,37.011 C18.211,36.474 17.882,35.933 17.345,35.803 C14.198,35.041 12,32.243 12,29 C12,25.14 15.14,22 19,22 L19,22 Z" id="Shape" fill="#000000"></path>
    </g>
</svg>