<?xml version="1.0" encoding="UTF-8" standalone="no"?>
<svg width="64px" height="64px" viewBox="0 0 64 64" version="1.1" xmlns="http://www.w3.org/2000/svg" xmlns:xlink="http://www.w3.org/1999/xlink">
    <!-- Generator: Sketch 3.7.2 (28276) - http://www.bohemiancoding.com/sketch -->
    <title>wea-temp-day</title>
    <desc>Created with Sketch.</desc>
    <defs></defs>
    <g id="64px-Line" stroke="none" stroke-width="1" fill="none" fill-rule="evenodd">
        <g id="wea-temp-day"></g>
        <path d="M44,42.674 L44,27 C44,25.346 42.654,24 41,24 C39.346,24 38,25.346 38,27 L38,42.674 C35.581,43.821 34,46.28 34,49 C34,52.859 37.14,56 41,56 C44.86,56 48,52.859 48,49 C48,46.281 46.419,43.822 44,42.674 L44,42.674 Z M41,54 C38.243,54 36,51.757 36,49 C36,46.903 37.314,45.024 39.277,44.305 C39.699,44.184 40,43.795 40,43.344 L40,27 C40,26.448 40.449,26 41,26 C41.551,26 42,26.448 42,27 L42,43.344 C42,43.676 42.165,43.986 42.439,44.172 C42.525,44.231 42.62,44.275 42.717,44.303 C44.682,45.022 45.999,46.903 45.999,49 C46,51.757 43.757,54 41,54 L41,54 Z" id="Shape" fill="#000000"></path>
        <path d="M48,40.514 L48,13 C48,9.141 44.86,6 41,6 C37.14,6 34,9.141 34,13 L34,40.514 C31.451,42.613 30,45.678 30,49 C30,55.065 34.935,60 41,60 C47.065,60 52,55.065 52,49 C52,45.678 50.548,42.612 48,40.514 L48,40.514 Z M41,58 C36.038,58 32,53.963 32,49 C32,46.166 33.29,43.562 35.542,41.843 C35.824,41.661 36,41.347 36,41.003 L36,13 C36,10.243 38.243,8 41,8 C43.757,8 46,10.243 46,13 L46,41.01 C46,41.364 46.188,41.683 46.48,41.86 C48.718,43.581 50,46.177 50,49.001 C50,53.963 45.962,58 41,58 L41,58 Z" id="Shape" fill="#000000"></path>
        <path d="M17,12 C13.14,12 10,15.141 10,19 C10,22.859 13.14,26 17,26 C20.86,26 24,22.859 24,19 C24,15.141 20.86,12 17,12 L17,12 Z M17,24 C14.243,24 12,21.757 12,19 C12,16.243 14.243,14 17,14 C19.757,14 22,16.243 22,19 C22,21.757 19.757,24 17,24 L17,24 Z" id="Shape" fill="#000000"></path>
        <path d="M8,19 C8,18.447 7.552,18 7,18 L5,18 C4.448,18 4,18.447 4,19 C4,19.553 4.448,20 5,20 L7,20 C7.552,20 8,19.553 8,19 L8,19 Z" id="Shape" fill="#000000"></path>
        <path d="M29,18 L27,18 C26.448,18 26,18.447 26,19 C26,19.553 26.448,20 27,20 L29,20 C29.552,20 30,19.553 30,19 C30,18.447 29.552,18 29,18 L29,18 Z" id="Shape" fill="#000000"></path>
        <path d="M16,7 L16,9 C16,9.553 16.448,10 17,10 C17.552,10 18,9.553 18,9 L18,7 C18,6.447 17.552,6 17,6 C16.448,6 16,6.447 16,7 L16,7 Z" id="Shape" fill="#000000"></path>
        <path d="M17,28 C16.448,28 16,28.447 16,29 L16,31 C16,31.553 16.448,32 17,32 C17.552,32 18,31.553 18,31 L18,29 C18,28.447 17.552,28 17,28 L17,28 Z" id="Shape" fill="#000000"></path>
        <path d="M7.808,9.808 C7.417,10.199 7.417,10.831 7.808,11.222 L9.222,12.636 C9.417,12.831 9.673,12.929 9.929,12.929 C10.185,12.929 10.441,12.831 10.636,12.636 C11.027,12.245 11.027,11.613 10.636,11.222 L9.222,9.808 C8.831,9.417 8.198,9.417 7.808,9.808 L7.808,9.808 Z" id="Shape" fill="#000000"></path>
        <path d="M24.778,25.364 C24.387,24.973 23.755,24.973 23.364,25.364 C22.973,25.755 22.973,26.387 23.364,26.778 L24.778,28.192 C24.973,28.387 25.229,28.485 25.485,28.485 C25.741,28.485 25.997,28.387 26.192,28.192 C26.583,27.801 26.583,27.169 26.192,26.778 L24.778,25.364 L24.778,25.364 Z" id="Shape" fill="#000000"></path>
        <path d="M24.778,9.808 L23.364,11.222 C22.973,11.613 22.973,12.245 23.364,12.636 C23.559,12.831 23.815,12.929 24.071,12.929 C24.327,12.929 24.583,12.831 24.778,12.636 L26.192,11.222 C26.583,10.831 26.583,10.199 26.192,9.808 C25.801,9.417 25.169,9.417 24.778,9.808 L24.778,9.808 Z" id="Shape" fill="#000000"></path>
        <path d="M9.222,25.364 L7.808,26.778 C7.417,27.169 7.417,27.801 7.808,28.192 C8.003,28.387 8.259,28.485 8.515,28.485 C8.771,28.485 9.027,28.387 9.222,28.192 L10.636,26.778 C11.027,26.387 11.027,25.755 10.636,25.364 C10.245,24.973 9.612,24.974 9.222,25.364 L9.222,25.364 Z" id="Shape" fill="#000000"></path>
        <path d="M59,36 L53,36 C52.448,36 52,36.447 52,37 C52,37.553 52.448,38 53,38 L59,38 C59.552,38 60,37.553 60,37 C60,36.447 59.552,36 59,36 L59,36 Z" id="Shape" fill="#000000"></path>
        <path d="M59,30 L53,30 C52.448,30 52,30.447 52,31 C52,31.553 52.448,32 53,32 L59,32 C59.552,32 60,31.553 60,31 C60,30.447 59.552,30 59,30 L59,30 Z" id="Shape" fill="#000000"></path>
        <path d="M59,24 L53,24 C52.448,24 52,24.447 52,25 C52,25.553 52.448,26 53,26 L59,26 C59.552,26 60,25.553 60,25 C60,24.447 59.552,24 59,24 L59,24 Z" id="Shape" fill="#000000"></path>
        <path d="M59,18 L53,18 C52.448,18 52,18.447 52,19 C52,19.553 52.448,20 53,20 L59,20 C59.552,20 60,19.553 60,19 C60,18.447 59.552,18 59,18 L59,18 Z" id="Shape" fill="#000000"></path>
        <path d="M59,12 L53,12 C52.448,12 52,12.447 52,13 C52,13.553 52.448,14 53,14 L59,14 C59.552,14 60,13.553 60,13 C60,12.447 59.552,12 59,12 L59,12 Z" id="Shape" fill="#000000"></path>
    </g>
</svg>