<?xml version="1.0" encoding="UTF-8" standalone="no"?>
<svg width="64px" height="64px" viewBox="0 0 64 64" version="1.1" xmlns="http://www.w3.org/2000/svg" xmlns:xlink="http://www.w3.org/1999/xlink">
    <!-- Generator: Sketch 3.7.2 (28276) - http://www.bohemiancoding.com/sketch -->
    <title>wea-lightning-snow</title>
    <desc>Created with Sketch.</desc>
    <defs></defs>
    <g id="64px-Line" stroke="none" stroke-width="1" fill="none" fill-rule="evenodd">
        <g id="wea-lightning-snow"></g>
        <path d="M25.447,42.105 C24.952,41.858 24.353,42.058 24.105,42.552 L20.105,50.552 C19.95,50.862 19.966,51.23 20.149,51.525 C20.332,51.82 20.653,52 21,52 L23.382,52 L20.106,58.553 C19.859,59.047 20.059,59.648 20.553,59.895 C20.697,59.967 20.849,60 20.999,60 C21.366,60 21.719,59.798 21.895,59.447 L25.895,51.447 C26.05,51.137 26.034,50.769 25.851,50.474 C25.668,50.18 25.347,50 25,50 L22.618,50 L25.894,43.447 C26.142,42.953 25.941,42.353 25.447,42.105 L25.447,42.105 Z" id="Shape" fill="#000000"></path>
        <path d="M39.895,48.553 C39.648,48.059 39.047,47.858 38.553,48.106 L36,49.382 L36,47 C36,46.448 35.553,46 35,46 C34.447,46 34,46.448 34,47 L34,49.382 L31.447,48.106 C30.953,47.858 30.352,48.06 30.105,48.553 C29.858,49.047 30.058,49.648 30.552,49.895 L32.763,51 L30.552,52.105 C30.058,52.352 29.858,52.953 30.105,53.447 C30.281,53.798 30.633,54 31.001,54 C31.151,54 31.304,53.966 31.447,53.895 L34,52.619 L34,55 C34,55.552 34.447,56 35,56 C35.553,56 36,55.552 36,55 L36,52.618 L38.553,53.894 C38.697,53.966 38.849,53.999 38.999,53.999 C39.366,53.999 39.719,53.797 39.895,53.446 C40.142,52.952 39.942,52.351 39.448,52.104 L37.236,51 L39.447,49.895 C39.941,49.647 40.142,49.047 39.895,48.553 L39.895,48.553 Z" id="Shape" fill="#000000"></path>
        <path d="M6,30.226 C6,35.616 10.363,40 15.728,40 L43,40 C50.168,40 56,34.139 56,26.936 C56,19.733 50.168,13.872 43,13.872 C42.65,13.872 42.301,13.886 41.952,13.914 C39.743,7.951 34.128,4.001 27.727,4.001 C19.356,4.001 12.545,10.846 12.545,19.259 C12.545,19.825 12.576,20.393 12.638,20.954 C8.688,22.271 6,25.963 6,30.226 L6,30.226 Z M13.978,22.652 C14.493,22.531 14.826,22.031 14.736,21.509 C14.61,20.772 14.547,20.014 14.547,19.258 C14.547,11.947 20.46,6 27.729,6 C33.528,6 38.585,9.737 40.313,15.298 C40.47,15.804 40.991,16.094 41.506,15.972 C41.998,15.905 42.501,15.87 43.001,15.87 C49.066,15.87 54.001,20.833 54.001,26.934 C54.001,33.035 49.065,38 43,38 L15.728,38 C11.467,38 8,34.512 8,30.226 C8,26.586 10.458,23.472 13.978,22.652 L13.978,22.652 Z" id="Shape" fill="#000000"></path>
    </g>
</svg>