<?xml version="1.0" encoding="UTF-8" standalone="no"?>
<svg width="64px" height="64px" viewBox="0 0 64 64" version="1.1" xmlns="http://www.w3.org/2000/svg" xmlns:xlink="http://www.w3.org/1999/xlink">
    <!-- Generator: Sketch 3.7.2 (28276) - http://www.bohemiancoding.com/sketch -->
    <title>wea-night-snow-3</title>
    <desc>Created with Sketch.</desc>
    <defs></defs>
    <g id="64px-Line" stroke="none" stroke-width="1" fill="none" fill-rule="evenodd">
        <g id="wea-night-snow-3"></g>
        <path d="M47.588,22.009 C46.266,17.323 41.935,14 37,14 C30.935,14 26,18.935 26,25 C26,25.337 26.015,25.671 26.043,26 L26,26 C21.589,26 18,29.589 18,34 C18,38.411 21.589,42 26,42 L48,42 C53.514,42 58,37.514 58,32 C58,26.349 53.251,21.766 47.588,22.009 L47.588,22.009 Z M48,40 L26,40 C22.691,40 20,37.309 20,34 C20,30.691 22.691,28 26,28 C26.352,28 26.703,28.03 27.045,28.091 C27.372,28.145 27.707,28.039 27.939,27.799 C28.169,27.56 28.266,27.221 28.196,26.896 C28.066,26.292 28.001,25.653 28.001,25 C28.001,20.037 32.038,16 37.001,16 C41.224,16 44.906,18.974 45.813,23.164 C45.816,23.203 45.822,23.242 45.83,23.282 C45.936,23.795 46.42,24.136 46.941,24.069 C47.288,24.023 47.644,24 48.001,24 C52.412,24 56.001,27.589 56.001,32 C56.001,36.411 52.411,40 48,40 L48,40 Z" id="Shape" fill="#000000"></path>
        <path d="M14.086,28 C17.714,28 21.079,26.054 22.868,22.921 C23.034,22.631 23.044,22.277 22.894,21.979 C22.746,21.68 22.457,21.476 22.126,21.433 C18.112,20.92 15.085,17.51 15.085,13.5 C15.085,12.119 15.444,10.761 16.125,9.57 C16.291,9.28 16.301,8.926 16.151,8.628 C16.003,8.329 15.714,8.124 15.382,8.082 C14.953,8.027 14.517,8 14.084,8 C8.522,8 3.998,12.486 3.998,18 C3.998,23.514 8.524,28 14.086,28 L14.086,28 Z M13.719,10.008 C13.302,11.119 13.086,12.303 13.086,13.5 C13.086,17.98 16.104,21.862 20.321,23.094 C18.8,24.913 16.516,26 14.086,26 C9.627,26 6,22.411 6,18 C6,13.711 9.43,10.199 13.719,10.008 L13.719,10.008 Z" id="Shape" fill="#000000"></path>
        <path d="M32.105,53.447 C32.281,53.798 32.633,54 33.001,54 C33.151,54 33.304,53.966 33.447,53.895 L36,52.619 L36,55 C36,55.553 36.447,56 37,56 C37.553,56 38,55.553 38,55 L38,52.618 L40.553,53.894 C40.697,53.965 40.849,53.999 40.999,53.999 C41.366,53.999 41.719,53.797 41.895,53.446 C42.142,52.952 41.942,52.351 41.448,52.104 L39.236,51 L41.447,49.895 C41.941,49.648 42.141,49.047 41.894,48.553 C41.646,48.059 41.045,47.862 40.552,48.106 L38,49.382 L38,47 C38,46.447 37.553,46 37,46 C36.447,46 36,46.447 36,47 L36,49.382 L33.447,48.106 C32.953,47.862 32.352,48.059 32.105,48.553 C31.858,49.047 32.058,49.648 32.552,49.895 L34.763,51 L32.552,52.105 C32.059,52.353 31.858,52.953 32.105,53.447 L32.105,53.447 Z" id="Shape" fill="#000000"></path>
        <path d="M20.105,53.447 C20.281,53.798 20.633,54 21.001,54 C21.151,54 21.304,53.966 21.447,53.895 L24,52.619 L24,55 C24,55.553 24.447,56 25,56 C25.553,56 26,55.553 26,55 L26,52.618 L28.553,53.894 C28.697,53.965 28.849,53.999 28.999,53.999 C29.366,53.999 29.719,53.797 29.895,53.446 C30.142,52.952 29.942,52.351 29.448,52.104 L27.236,51 L29.447,49.895 C29.941,49.648 30.141,49.047 29.894,48.553 C29.646,48.059 29.045,47.862 28.552,48.106 L26,49.382 L26,47 C26,46.447 25.553,46 25,46 C24.447,46 24,46.447 24,47 L24,49.382 L21.447,48.106 C20.953,47.862 20.353,48.059 20.105,48.553 C19.858,49.047 20.058,49.648 20.552,49.895 L22.763,51 L20.552,52.105 C20.059,52.353 19.858,52.953 20.105,53.447 L20.105,53.447 Z" id="Shape" fill="#000000"></path>
        <path d="M44.105,53.447 C44.281,53.798 44.633,54 45.001,54 C45.151,54 45.304,53.966 45.447,53.895 L48,52.619 L48,55 C48,55.553 48.447,56 49,56 C49.553,56 50,55.553 50,55 L50,52.618 L52.553,53.894 C52.697,53.965 52.849,53.999 52.999,53.999 C53.366,53.999 53.719,53.797 53.895,53.446 C54.142,52.952 53.942,52.351 53.448,52.104 L51.236,51 L53.447,49.895 C53.941,49.648 54.141,49.047 53.894,48.553 C53.646,48.059 53.045,47.862 52.552,48.106 L50,49.382 L50,47 C50,46.447 49.553,46 49,46 C48.447,46 48,46.447 48,47 L48,49.382 L45.447,48.106 C44.953,47.862 44.353,48.059 44.105,48.553 C43.858,49.047 44.058,49.648 44.552,49.895 L46.763,51 L44.552,52.105 C44.059,52.353 43.858,52.953 44.105,53.447 L44.105,53.447 Z" id="Shape" fill="#000000"></path>
    </g>
</svg>