<?xml version="1.0" encoding="UTF-8" standalone="no"?>
<svg width="64px" height="64px" viewBox="0 0 64 64" version="1.1" xmlns="http://www.w3.org/2000/svg" xmlns:xlink="http://www.w3.org/1999/xlink">
    <!-- Generator: Sketch 3.7.2 (28276) - http://www.bohemiancoding.com/sketch -->
    <title>wea-fahrenheit</title>
    <desc>Created with Sketch.</desc>
    <defs></defs>
    <g id="64px-Line" stroke="none" stroke-width="1" fill="none" fill-rule="evenodd">
        <g id="wea-fahrenheit"></g>
        <path d="M31,6 C16.112,6 4,18.112 4,33 C4,47.888 16.112,60 31,60 C45.888,60 58,47.888 58,33 C58,18.112 45.888,6 31,6 L31,6 Z M31,58 C17.215,58 6,46.785 6,33 C6,19.215 17.215,8 31,8 C44.785,8 56,19.215 56,33 C56,46.785 44.785,58 31,58 L31,58 Z" id="Shape" fill="#000000"></path>
        <path d="M43,20 L29,20 C28.447,20 28,20.447 28,21 L28,45 C28,45.553 28.447,46 29,46 C29.553,46 30,45.553 30,45 L30,34 L41,34 C41.553,34 42,33.553 42,33 C42,32.447 41.553,32 41,32 L30,32 L30,22 L43,22 C43.553,22 44,21.553 44,21 C44,20.447 43.553,20 43,20 L43,20 Z" id="Shape" fill="#000000"></path>
        <path d="M20,20 C17.794,20 16,21.794 16,24 C16,26.206 17.794,28 20,28 C22.206,28 24,26.206 24,24 C24,21.794 22.206,20 20,20 L20,20 Z M20,26 C18.897,26 18,25.103 18,24 C18,22.897 18.897,22 20,22 C21.103,22 22,22.897 22,24 C22,25.103 21.103,26 20,26 L20,26 Z" id="Shape" fill="#000000"></path>
    </g>
</svg>