<?xml version="1.0" encoding="UTF-8" standalone="no"?>
<svg width="64px" height="64px" viewBox="0 0 64 64" version="1.1" xmlns="http://www.w3.org/2000/svg" xmlns:xlink="http://www.w3.org/1999/xlink">
    <!-- Generator: Sketch 3.7.2 (28276) - http://www.bohemiancoding.com/sketch -->
    <title>wea-rain</title>
    <desc>Created with Sketch.</desc>
    <defs></defs>
    <g id="64px-Line" stroke="none" stroke-width="1" fill="none" fill-rule="evenodd">
        <g id="wea-rain"></g>
        <path d="M56,28.936 C56,21.732 50.168,15.872 43,15.872 C42.651,15.872 42.301,15.886 41.952,15.914 C39.744,9.95 34.128,6 27.728,6 C19.356,6 12.546,12.845 12.546,21.258 C12.546,21.825 12.577,22.392 12.639,22.953 C8.688,24.271 6,27.962 6,32.225 C6,37.615 10.364,41.999 15.728,41.999 L43,41.999 C50.168,42 56,36.139 56,28.936 L56,28.936 Z M8,32.226 C8,28.587 10.458,25.473 13.977,24.652 C14.493,24.531 14.825,24.03 14.736,23.509 C14.61,22.773 14.546,22.016 14.546,21.259 C14.546,13.948 20.46,8.001 27.728,8.001 C33.527,8.001 38.584,11.738 40.312,17.299 C40.469,17.804 40.989,18.098 41.505,17.973 C41.998,17.906 42.501,17.871 43.001,17.871 C49.066,17.871 54.001,22.834 54.001,28.935 C54.001,35.036 49.065,40 43,40 L15.728,40 C11.467,40 8,36.512 8,32.226 L8,32.226 Z" id="Shape" fill="#000000"></path>
        <path d="M34,54 L34,47 C34,46.6 33.762,46.238 33.394,46.081 C33.026,45.923 32.6,45.999 32.31,46.276 L27.189,51.155 C27.184,51.16 27.178,51.166 27.172,51.172 C26.417,51.927 26,52.931 26,54 C26,56.206 27.794,58 30,58 C32.206,58 34,56.206 34,54 L34,54 Z M28,54 C28,53.469 28.205,52.971 28.578,52.594 L32,49.334 L32,54 C32,55.103 31.103,56 30,56 C28.897,56 28,55.103 28,54 L28,54 Z" id="Shape" fill="#000000"></path>
    </g>
</svg>