<?xml version="1.0" encoding="UTF-8" standalone="no"?>
<svg width="64px" height="64px" viewBox="0 0 64 64" version="1.1" xmlns="http://www.w3.org/2000/svg" xmlns:xlink="http://www.w3.org/1999/xlink">
    <!-- Generator: Sketch 3.7.2 (28276) - http://www.bohemiancoding.com/sketch -->
    <title>wea-windsock</title>
    <desc>Created with Sketch.</desc>
    <defs></defs>
    <g id="64px-Line" stroke="none" stroke-width="1" fill="none" fill-rule="evenodd">
        <g id="wea-windsock"></g>
        <path d="M51,46 L17,46 C16.448,46 16,46.447 16,47 C16,47.553 16.448,48 17,48 L51,48 C53.757,48 56,50.243 56,53 C56,55.757 53.757,58 51,58 C48.243,58 46,55.757 46,53 C46,52.447 45.552,52 45,52 C44.448,52 44,52.447 44,53 C44,56.859 47.14,60 51,60 C54.86,60 58,56.859 58,53 C58,49.141 54.86,46 51,46 L51,46 Z" id="Shape" fill="#000000"></path>
        <path d="M43,42 L21,42 C20.448,42 20,42.447 20,43 C20,43.553 20.448,44 21,44 L43,44 C45.757,44 48,41.757 48,39 C48,36.243 45.757,34 43,34 C40.243,34 38,36.243 38,39 C38,39.553 38.448,40 39,40 C39.552,40 40,39.553 40,39 C40,37.346 41.346,36 43,36 C44.654,36 46,37.346 46,39 C46,40.654 44.654,42 43,42 L43,42 Z" id="Shape" fill="#000000"></path>
        <path d="M57.196,16.02 L17.196,8.02 C16.902,7.962 16.597,8.037 16.366,8.227 C16.134,8.417 16,8.7 16,9 L16,10.56 L6,19.727 L6,7 C6,6.447 5.552,6 5,6 C4.448,6 4,6.447 4,7 L4,59 C4,59.553 4.448,60 5,60 C5.552,60 6,59.553 6,59 L6,24 L16,31.5 L16,33 C16,33.291 16.127,33.567 16.348,33.758 C16.53,33.915 16.762,34 17,34 C17.049,34 17.099,33.996 17.148,33.989 L57.148,27.989 C57.637,27.915 58,27.495 58,27 L58,17 C58,16.523 57.664,16.113 57.196,16.02 L57.196,16.02 Z M38,14.219 L46,15.819 L46,27.638 L38,28.838 L38,14.219 L38,14.219 Z M36,29.139 L28,30.339 L28,12.22 L36,13.82 L36,29.139 L36,29.139 Z M6.564,21.923 L16,13.274 L16,29 L6.564,21.923 L6.564,21.923 Z M18,10.22 L26,11.82 L26,30.639 L18,31.839 L18,10.22 L18,10.22 Z M56,26.139 L48,27.339 L48,16.22 L56,17.82 L56,26.139 L56,26.139 Z" id="Shape" fill="#000000"></path>
    </g>
</svg>