<?xml version="1.0" encoding="UTF-8" standalone="no"?>
<svg width="64px" height="64px" viewBox="0 0 64 64" version="1.1" xmlns="http://www.w3.org/2000/svg" xmlns:xlink="http://www.w3.org/1999/xlink">
    <!-- Generator: Sketch 3.7.2 (28276) - http://www.bohemiancoding.com/sketch -->
    <title>wea-night-snow</title>
    <desc>Created with Sketch.</desc>
    <defs></defs>
    <g id="64px-Line" stroke="none" stroke-width="1" fill="none" fill-rule="evenodd">
        <g id="wea-night-snow"></g>
        <path d="M48,22 C47.862,22 47.726,22.003 47.588,22.009 C46.266,17.323 41.935,14 37,14 C30.935,14 26,18.935 26,25 C26,25.337 26.015,25.671 26.043,26 L26,26 C21.589,26 18,29.589 18,34 C18,38.411 21.589,42 26,42 L48,42 C53.514,42 58,37.514 58,32 C58,26.486 53.514,22 48,22 L48,22 Z M48,40 L26,40 C22.691,40 20,37.309 20,34 C20,30.691 22.691,28 26,28 C26.352,28 26.703,28.03 27.045,28.091 C27.371,28.145 27.707,28.039 27.939,27.799 C28.169,27.56 28.266,27.221 28.196,26.896 C28.066,26.292 28.001,25.653 28.001,25 C28.001,20.037 32.038,16 37.001,16 C41.224,16 44.906,18.974 45.813,23.164 C45.816,23.203 45.822,23.242 45.83,23.282 C45.937,23.795 46.417,24.136 46.941,24.069 C47.288,24.023 47.644,24 48.001,24 C52.412,24 56.001,27.589 56.001,32 C56.001,36.411 52.411,40 48,40 L48,40 Z" id="Shape" fill="#000000"></path>
        <path d="M14.086,28 C17.714,28 21.079,26.054 22.868,22.921 C23.034,22.631 23.044,22.277 22.894,21.979 C22.746,21.68 22.457,21.476 22.126,21.433 C18.112,20.92 15.085,17.51 15.085,13.5 C15.085,12.119 15.444,10.761 16.125,9.57 C16.291,9.28 16.301,8.926 16.151,8.628 C16.003,8.329 15.714,8.124 15.382,8.082 C14.953,8.027 14.517,8 14.084,8 C8.522,8 3.998,12.486 3.998,18 C3.998,23.514 8.524,28 14.086,28 L14.086,28 Z M13.719,10.008 C13.302,11.119 13.086,12.303 13.086,13.5 C13.086,17.98 16.104,21.862 20.321,23.094 C18.8,24.913 16.516,26 14.086,26 C9.627,26 6,22.411 6,18 C6,13.711 9.43,10.199 13.719,10.008 L13.719,10.008 Z" id="Shape" fill="#000000"></path>
        <path d="M33.105,53.447 C33.281,53.798 33.633,54 34.001,54 C34.151,54 34.304,53.966 34.447,53.895 L37,52.619 L37,55 C37,55.553 37.447,56 38,56 C38.553,56 39,55.553 39,55 L39,52.618 L41.553,53.894 C41.697,53.965 41.849,53.999 41.999,53.999 C42.366,53.999 42.719,53.797 42.895,53.446 C43.142,52.952 42.942,52.351 42.448,52.104 L40.236,51 L42.447,49.895 C42.941,49.648 43.141,49.047 42.894,48.553 C42.646,48.059 42.046,47.862 41.552,48.106 L39,49.382 L39,47 C39,46.447 38.553,46 38,46 C37.447,46 37,46.447 37,47 L37,49.382 L34.447,48.106 C33.953,47.862 33.353,48.059 33.105,48.553 C32.858,49.047 33.058,49.648 33.552,49.895 L35.763,51 L33.552,52.105 C33.059,52.353 32.858,52.953 33.105,53.447 L33.105,53.447 Z" id="Shape" fill="#000000"></path>
    </g>
</svg>