<?xml version="1.0" encoding="UTF-8" standalone="no"?>
<svg width="64px" height="64px" viewBox="0 0 64 64" version="1.1" xmlns="http://www.w3.org/2000/svg" xmlns:xlink="http://www.w3.org/1999/xlink">
    <!-- Generator: Sketch 3.7.2 (28276) - http://www.bohemiancoding.com/sketch -->
    <title>wea-day-rain-3</title>
    <desc>Created with Sketch.</desc>
    <defs></defs>
    <g id="64px-Line" stroke="none" stroke-width="1" fill="none" fill-rule="evenodd">
        <g id="wea-day-rain-3"></g>
        <path d="M4,21 C4,21.552 4.448,22 5,22 L7,22 C7.552,22 8,21.552 8,21 C8,20.448 7.552,20 7,20 L5,20 C4.448,20 4,20.448 4,21 L4,21 Z" id="Shape" fill="#000000"></path>
        <path d="M47.588,22.008 C46.266,17.323 41.935,14 37,14 C30.935,14 26,18.935 26,25 C26,25.337 26.015,25.671 26.043,26 C21.596,26.013 17.999,29.574 18,34 C18,38.411 21.589,42 26,42 L48,42 C53.514,42 58,37.514 58,32 C58,26.349 53.252,21.797 47.588,22.008 L47.588,22.008 Z M48,40 L26,40 C22.691,40 20,37.309 20,34 C20,30.691 22.691,28 26,28 C26.351,28 26.703,28.03 27.045,28.09 C27.374,28.149 27.708,28.038 27.939,27.798 C28.169,27.558 28.266,27.22 28.196,26.895 C28.066,26.292 28,25.654 28,25 C28,20.038 32.038,16 37,16 C41.226,16 44.91,18.977 45.813,23.172 C45.817,23.215 45.824,23.259 45.834,23.303 C45.95,23.805 46.428,24.134 46.94,24.069 C47.287,24.023 47.643,24 47.999,24 C52.41,24 55.999,27.589 55.999,32 C55.999,36.411 52.411,40 48,40 L48,40 Z" id="Shape" fill="#000000"></path>
        <path d="M19,14 C21.397,14 23.602,15.207 24.898,17.228 C25.195,17.692 25.814,17.828 26.279,17.53 C26.744,17.232 26.88,16.613 26.581,16.149 C24.915,13.551 22.081,12.001 18.999,12.001 C14.037,12.001 9.999,16.039 9.999,21.001 C9.999,24.864 12.456,28.29 16.112,29.528 C16.218,29.564 16.326,29.581 16.433,29.581 C16.85,29.581 17.239,29.318 17.38,28.901 C17.557,28.378 17.276,27.81 16.754,27.633 C13.911,26.67 12,24.004 12,21 C12,17.14 15.14,14 19,14 L19,14 Z" id="Shape" fill="#000000"></path>
        <path d="M20,9 L20,7 C20,6.448 19.552,6 19,6 C18.448,6 18,6.448 18,7 L18,9 C18,9.552 18.448,10 19,10 C19.552,10 20,9.552 20,9 L20,9 Z" id="Shape" fill="#000000"></path>
        <path d="M9.808,13.222 C10.003,13.417 10.259,13.515 10.515,13.515 C10.771,13.515 11.027,13.417 11.222,13.222 C11.613,12.831 11.613,12.199 11.222,11.808 L9.808,10.394 C9.417,10.003 8.785,10.003 8.394,10.394 C8.003,10.785 8.003,11.417 8.394,11.808 L9.808,13.222 L9.808,13.222 Z" id="Shape" fill="#000000"></path>
        <path d="M8.394,31.606 C8.589,31.801 8.845,31.899 9.101,31.899 C9.357,31.899 9.613,31.801 9.808,31.606 L11.222,30.192 C11.613,29.801 11.613,29.169 11.222,28.778 C10.831,28.387 10.199,28.387 9.808,28.778 L8.394,30.192 C8.003,30.583 8.003,31.216 8.394,31.606 L8.394,31.606 Z" id="Shape" fill="#000000"></path>
        <path d="M28.192,10.394 L26.778,11.808 C26.387,12.199 26.387,12.831 26.778,13.222 C26.973,13.417 27.229,13.515 27.485,13.515 C27.741,13.515 27.997,13.417 28.192,13.222 L29.606,11.808 C29.997,11.417 29.997,10.785 29.606,10.394 C29.215,10.003 28.583,10.003 28.192,10.394 L28.192,10.394 Z" id="Shape" fill="#000000"></path>
        <path d="M40,54 L40,47 C40,46.6 39.762,46.238 39.394,46.081 C39.026,45.923 38.6,46 38.31,46.276 L33.189,51.155 L33.172,51.172 C32.416,51.927 32,52.932 32,54.001 C32,56.207 33.794,58.001 36,58.001 C38.206,58.001 40,56.206 40,54 L40,54 Z M34,54 C34,53.469 34.205,52.971 34.578,52.594 L38,49.334 L38,54 C38,55.103 37.103,56 36,56 C34.897,56 34,55.103 34,54 L34,54 Z" id="Shape" fill="#000000"></path>
        <path d="M48,58 C50.206,58 52,56.206 52,54 L52,47 C52,46.6 51.762,46.238 51.394,46.081 C51.025,45.923 50.6,46 50.31,46.276 L45.189,51.155 L45.172,51.172 C44.416,51.927 44,52.932 44,54.001 C44,56.206 45.794,58 48,58 L48,58 Z M46.578,52.594 L50,49.334 L50,54 C50,55.103 49.103,56 48,56 C46.897,56 46,55.103 46,54 C46,53.469 46.205,52.971 46.578,52.594 L46.578,52.594 Z" id="Shape" fill="#000000"></path>
        <path d="M28,54 L28,47 C28,46.6 27.762,46.238 27.394,46.081 C27.026,45.923 26.6,46 26.31,46.276 L21.189,51.155 L21.172,51.172 C20.416,51.927 20,52.932 20,54.001 C20,56.207 21.794,58.001 24,58.001 C26.206,58.001 28,56.206 28,54 L28,54 Z M26,54 C26,55.103 25.103,56 24,56 C22.897,56 22,55.103 22,54 C22,53.469 22.205,52.971 22.578,52.594 L26,49.334 L26,54 L26,54 Z" id="Shape" fill="#000000"></path>
    </g>
</svg>