<?xml version="1.0" encoding="UTF-8" standalone="no"?>
<svg width="64px" height="64px" viewBox="0 0 64 64" version="1.1" xmlns="http://www.w3.org/2000/svg" xmlns:xlink="http://www.w3.org/1999/xlink">
    <!-- Generator: Sketch 3.7.2 (28276) - http://www.bohemiancoding.com/sketch -->
    <title>wea-lightning-2</title>
    <desc>Created with Sketch.</desc>
    <defs></defs>
    <g id="64px-Line" stroke="none" stroke-width="1" fill="none" fill-rule="evenodd">
        <g id="wea-lightning-2"></g>
        <path d="M6,30.226 C6,35.616 10.363,40 15.728,40 L43,40 C50.168,40 56,34.139 56,26.936 C56,19.733 50.168,13.872 43,13.872 C42.65,13.872 42.301,13.886 41.952,13.914 C39.743,7.951 34.128,4.001 27.727,4.001 C19.356,4.001 12.545,10.846 12.545,19.259 C12.545,19.825 12.576,20.393 12.638,20.954 C8.688,22.271 6,25.963 6,30.226 L6,30.226 Z M13.978,22.652 C14.493,22.531 14.826,22.031 14.736,21.509 C14.61,20.772 14.547,20.014 14.547,19.258 C14.547,11.947 20.46,6 27.729,6 C33.528,6 38.585,9.737 40.313,15.298 C40.47,15.804 40.992,16.094 41.506,15.972 C41.998,15.905 42.501,15.87 43.001,15.87 C49.066,15.87 54.001,20.833 54.001,26.934 C54.001,33.035 49.065,38 43,38 L15.728,38 C11.467,38 8,34.512 8,30.226 C8,26.586 10.458,23.472 13.978,22.652 L13.978,22.652 Z" id="Shape" fill="#000000"></path>
        <path d="M31.851,50.474 C31.668,50.18 31.347,50 31,50 L28.618,50 L31.894,43.447 C32.141,42.953 31.941,42.352 31.447,42.105 C30.953,41.858 30.353,42.058 30.105,42.552 L26.105,50.552 C25.95,50.862 25.966,51.23 26.149,51.525 C26.332,51.82 26.653,52 27,52 L29.382,52 L26.106,58.553 C25.859,59.047 26.059,59.648 26.553,59.895 C26.697,59.967 26.849,60 26.999,60 C27.366,60 27.719,59.798 27.895,59.447 L31.895,51.447 C32.05,51.137 32.033,50.769 31.851,50.474 L31.851,50.474 Z" id="Shape" fill="#000000"></path>
        <path d="M37.553,57.895 C37.697,57.967 37.849,58 37.999,58 C38.366,58 38.719,57.798 38.895,57.447 L41.895,51.447 C42.05,51.137 42.034,50.769 41.851,50.474 C41.668,50.18 41.347,50 41,50 L38.618,50 L40.894,45.447 C41.141,44.953 40.941,44.352 40.447,44.105 C39.954,43.858 39.353,44.058 39.105,44.552 L36.105,50.552 C35.95,50.862 35.966,51.23 36.149,51.525 C36.332,51.82 36.653,52 37,52 L39.382,52 L37.106,56.553 C36.858,57.047 37.059,57.647 37.553,57.895 L37.553,57.895 Z" id="Shape" fill="#000000"></path>
        <path d="M20.447,44.105 C19.953,43.858 19.353,44.058 19.105,44.552 L16.105,50.552 C15.95,50.862 15.966,51.23 16.149,51.525 C16.332,51.82 16.653,52 17,52 L19.382,52 L17.106,56.553 C16.859,57.047 17.059,57.648 17.553,57.895 C17.697,57.967 17.849,58 17.999,58 C18.366,58 18.719,57.798 18.895,57.447 L21.895,51.447 C22.05,51.137 22.034,50.769 21.851,50.474 C21.668,50.18 21.347,50 21,50 L18.618,50 L20.894,45.447 C21.142,44.953 20.941,44.353 20.447,44.105 L20.447,44.105 Z" id="Shape" fill="#000000"></path>
    </g>
</svg>