<?xml version="1.0" encoding="UTF-8" standalone="no"?>
<svg width="64px" height="64px" viewBox="0 0 64 64" version="1.1" xmlns="http://www.w3.org/2000/svg" xmlns:xlink="http://www.w3.org/1999/xlink">
    <!-- Generator: Sketch 3.7.2 (28276) - http://www.bohemiancoding.com/sketch -->
    <title>wea-day-wind</title>
    <desc>Created with Sketch.</desc>
    <defs></defs>
    <g id="64px-Line" stroke="none" stroke-width="1" fill="none" fill-rule="evenodd">
        <g id="wea-day-wind"></g>
        <path d="M42,48 L17,48 C16.448,48 16,48.447 16,49 C16,49.553 16.448,50 17,50 L42,50 C44.206,50 46,48.206 46,46 C46,43.794 44.206,42 42,42 C39.794,42 38,43.794 38,46 C38,46.553 38.448,47 39,47 C39.552,47 40,46.553 40,46 C40,44.897 40.897,44 42,44 C43.103,44 44,44.897 44,46 C44,47.103 43.103,48 42,48 L42,48 Z" id="Shape" fill="#000000"></path>
        <path d="M49,60 C47.346,60 46,58.654 46,57 C46,56.447 45.552,56 45,56 C44.448,56 44,56.447 44,57 C44,59.757 46.243,62 49,62 C51.757,62 54,59.757 54,57 C54,54.243 51.757,52 49,52 L11,52 C10.448,52 10,52.447 10,53 C10,53.553 10.448,54 11,54 L49,54 C50.654,54 52,55.346 52,57 C52,58.654 50.654,60 49,60 L49,60 Z" id="Shape" fill="#000000"></path>
        <path d="M5,20 L7,20 C7.552,20 8,19.553 8,19 C8,18.447 7.552,18 7,18 L5,18 C4.448,18 4,18.447 4,19 C4,19.553 4.448,20 5,20 L5,20 Z" id="Shape" fill="#000000"></path>
        <path d="M47.588,20.009 C46.266,15.323 41.935,12 37,12 C30.935,12 26,16.935 26,23 C26,23.337 26.015,23.671 26.043,24 L26,24 C21.589,24 18,27.589 18,32 C18,36.411 21.589,40 26,40 L48,40 C53.514,40 58,35.514 58,30 C58,24.35 53.253,19.785 47.588,20.009 L47.588,20.009 Z M48,38 L26,38 C22.691,38 20,35.309 20,32 C20,28.691 22.691,26 26,26 C26.351,26 26.703,26.03 27.045,26.091 C27.374,26.147 27.708,26.038 27.939,25.799 C28.169,25.56 28.266,25.221 28.196,24.896 C28.066,24.292 28,23.654 28,23 C28,18.037 32.038,14 37,14 C41.226,14 44.91,16.977 45.813,21.172 C45.817,21.216 45.824,21.26 45.834,21.303 C45.95,21.806 46.428,22.136 46.94,22.07 C47.288,22.023 47.644,22 48,22 C52.411,22 56,25.589 56,30 C56,34.411 52.411,38 48,38 L48,38 Z" id="Shape" fill="#000000"></path>
        <path d="M19,10 C14.038,10 10,14.037 10,19 C10,22.863 12.457,26.29 16.113,27.527 C16.219,27.563 16.327,27.58 16.434,27.58 C16.851,27.58 17.24,27.317 17.381,26.9 C17.558,26.378 17.277,25.809 16.755,25.632 C13.911,24.67 12,22.005 12,19 C12,15.141 15.14,12 19,12 C21.397,12 23.602,13.207 24.898,15.229 C25.196,15.694 25.813,15.83 26.279,15.531 C26.744,15.233 26.88,14.614 26.581,14.149 C24.916,11.551 22.082,10 19,10 L19,10 Z" id="Shape" fill="#000000"></path>
        <path d="M19,4 C18.448,4 18,4.447 18,5 L18,7 C18,7.553 18.448,8 19,8 C19.552,8 20,7.553 20,7 L20,5 C20,4.447 19.552,4 19,4 L19,4 Z" id="Shape" fill="#000000"></path>
        <path d="M8.394,9.808 L9.808,11.222 C10.003,11.417 10.259,11.515 10.515,11.515 C10.771,11.515 11.027,11.417 11.222,11.222 C11.613,10.831 11.613,10.199 11.222,9.808 L9.808,8.394 C9.417,8.003 8.785,8.003 8.394,8.394 C8.003,8.785 8.003,9.417 8.394,9.808 L8.394,9.808 Z" id="Shape" fill="#000000"></path>
        <path d="M8.394,29.606 C8.589,29.801 8.845,29.899 9.101,29.899 C9.357,29.899 9.613,29.801 9.808,29.606 L11.222,28.192 C11.613,27.801 11.613,27.169 11.222,26.778 C10.831,26.387 10.199,26.387 9.808,26.778 L8.394,28.192 C8.003,28.583 8.003,29.216 8.394,29.606 L8.394,29.606 Z" id="Shape" fill="#000000"></path>
        <path d="M27.485,11.515 C27.741,11.515 27.997,11.417 28.192,11.222 L29.606,9.808 C29.997,9.417 29.997,8.785 29.606,8.394 C29.215,8.003 28.583,8.003 28.192,8.394 L26.778,9.808 C26.387,10.199 26.387,10.831 26.778,11.222 C26.974,11.417 27.229,11.515 27.485,11.515 L27.485,11.515 Z" id="Shape" fill="#000000"></path>
    </g>
</svg>