<?xml version="1.0" encoding="UTF-8" standalone="no"?>
<svg width="64px" height="64px" viewBox="0 0 64 64" version="1.1" xmlns="http://www.w3.org/2000/svg" xmlns:xlink="http://www.w3.org/1999/xlink">
    <!-- Generator: Sketch 3.7.2 (28276) - http://www.bohemiancoding.com/sketch -->
    <title>wea-day-lightning</title>
    <desc>Created with Sketch.</desc>
    <defs></defs>
    <g id="64px-Line" stroke="none" stroke-width="1" fill="none" fill-rule="evenodd">
        <g id="wea-day-lightning"></g>
        <path d="M4,19 C4,19.552 4.447,20 5,20 L7,20 C7.553,20 8,19.552 8,19 C8,18.448 7.553,18 7,18 L5,18 C4.447,18 4,18.448 4,19 L4,19 Z" id="Shape" fill="#000000"></path>
        <path d="M47.588,20.008 C46.266,15.323 41.935,12 37,12 C30.935,12 26,16.935 26,23 C26,23.336 26.015,23.67 26.043,24 L26,24 C21.589,24 18,27.589 18,32 C18,36.411 21.589,40 26,40 L48,40 C53.514,40 58,35.514 58,30 C58,24.348 53.251,19.78 47.588,20.008 L47.588,20.008 Z M48,38 L26,38 C22.691,38 20,35.309 20,32 C20,28.691 22.691,26 26,26 C26.352,26 26.703,26.03 27.045,26.09 C27.372,26.149 27.707,26.038 27.939,25.799 C28.169,25.559 28.266,25.221 28.196,24.896 C28.065,24.29 28,23.652 28,23 C28,18.038 32.037,14 37,14 C41.223,14 44.905,16.974 45.812,21.165 C45.815,21.204 45.821,21.243 45.829,21.282 C45.935,21.795 46.419,22.135 46.94,22.07 C47.287,22.024 47.643,22.001 48,22.001 C52.411,22.001 56,25.59 56,30.001 C56,34.412 52.411,38 48,38 L48,38 Z" id="Shape" fill="#000000"></path>
        <path d="M19,12 C21.397,12 23.602,13.207 24.897,15.228 C25.194,15.693 25.813,15.829 26.279,15.53 C26.744,15.232 26.879,14.613 26.581,14.149 C24.916,11.551 22.082,10 19,10 C14.037,10 10,14.038 10,19 C10,22.863 12.457,26.29 16.114,27.527 C16.22,27.563 16.328,27.58 16.434,27.58 C16.851,27.58 17.241,27.317 17.381,26.9 C17.558,26.377 17.277,25.81 16.754,25.632 C13.911,24.67 12,22.004 12,19 C12,15.14 15.141,12 19,12 L19,12 Z" id="Shape" fill="#000000"></path>
        <path d="M20,7 L20,5 C20,4.448 19.553,4 19,4 C18.447,4 18,4.448 18,5 L18,7 C18,7.552 18.447,8 19,8 C19.553,8 20,7.552 20,7 L20,7 Z" id="Shape" fill="#000000"></path>
        <path d="M9.808,11.222 C10.003,11.417 10.259,11.515 10.515,11.515 C10.771,11.515 11.027,11.417 11.222,11.222 C11.613,10.831 11.613,10.199 11.222,9.808 L9.808,8.394 C9.417,8.003 8.785,8.003 8.394,8.394 C8.003,8.785 8.003,9.417 8.394,9.808 L9.808,11.222 L9.808,11.222 Z" id="Shape" fill="#000000"></path>
        <path d="M8.394,29.606 C8.589,29.801 8.845,29.899 9.101,29.899 C9.357,29.899 9.613,29.801 9.808,29.606 L11.222,28.192 C11.613,27.801 11.613,27.169 11.222,26.778 C10.831,26.387 10.199,26.387 9.808,26.778 L8.394,28.192 C8.003,28.583 8.003,29.216 8.394,29.606 L8.394,29.606 Z" id="Shape" fill="#000000"></path>
        <path d="M27.485,11.515 C27.741,11.515 27.997,11.417 28.192,11.222 L29.606,9.808 C29.997,9.417 29.997,8.785 29.606,8.394 C29.215,8.003 28.583,8.003 28.192,8.394 L26.778,9.808 C26.387,10.199 26.387,10.831 26.778,11.222 C26.974,11.417 27.229,11.515 27.485,11.515 L27.485,11.515 Z" id="Shape" fill="#000000"></path>
        <path d="M39.447,42.105 C38.952,41.858 38.353,42.058 38.105,42.552 L34.105,50.552 C33.95,50.862 33.966,51.23 34.149,51.525 C34.332,51.82 34.653,52 35,52 L37.382,52 L34.106,58.553 C33.859,59.047 34.059,59.648 34.553,59.895 C34.697,59.967 34.849,60 34.999,60 C35.366,60 35.719,59.798 35.895,59.447 L39.895,51.447 C40.05,51.137 40.034,50.769 39.851,50.474 C39.668,50.18 39.347,50 39,50 L36.618,50 L39.894,43.447 C40.142,42.953 39.941,42.353 39.447,42.105 L39.447,42.105 Z" id="Shape" fill="#000000"></path>
    </g>
</svg>