<?xml version="1.0" encoding="UTF-8" standalone="no"?>
<svg width="64px" height="64px" viewBox="0 0 64 64" version="1.1" xmlns="http://www.w3.org/2000/svg" xmlns:xlink="http://www.w3.org/1999/xlink">
    <!-- Generator: Sketch 3.7.2 (28276) - http://www.bohemiancoding.com/sketch -->
    <title>wea-pin-wheel</title>
    <desc>Created with Sketch.</desc>
    <defs></defs>
    <g id="64px-Line" stroke="none" stroke-width="1" fill="none" fill-rule="evenodd">
        <g id="wea-pin-wheel"></g>
        <path d="M27,32 L29,32 C29.404,32 29.77,31.756 29.924,31.383 C30.079,31.009 29.993,30.579 29.707,30.293 L11.707,12.293 C11.421,12.006 10.992,11.923 10.617,12.076 C10.243,12.231 10,12.596 10,13 L10,15 C10,25.486 16.514,32 27,32 L27,32 Z M26.582,29.996 C17.581,29.834 12.166,24.419 12.004,15.418 L26.582,29.996 L26.582,29.996 Z" id="Shape" fill="#000000"></path>
        <path d="M24.617,23.924 C24.741,23.975 24.871,24 25,24 C25.26,24 25.516,23.898 25.707,23.707 L43.707,5.707 C43.993,5.421 44.079,4.991 43.924,4.617 C43.77,4.244 43.404,4 43,4 L41,4 C30.514,4 24,10.514 24,21 L24,23 C24,23.404 24.243,23.769 24.617,23.924 L24.617,23.924 Z M40.582,6.004 L26.004,20.582 C26.166,11.581 31.581,6.166 40.582,6.004 L40.582,6.004 Z" id="Shape" fill="#000000"></path>
        <path d="M33,18 C32.596,18 32.23,18.244 32.076,18.617 C31.921,18.991 32.007,19.421 32.293,19.707 L50.293,37.707 C50.484,37.898 50.74,38 51,38 C51.129,38 51.259,37.975 51.383,37.924 C51.757,37.769 52,37.404 52,37 L52,35 C52,24.514 45.486,18 35,18 L33,18 L33,18 Z M49.996,34.582 L35.418,20.004 C44.419,20.166 49.834,25.581 49.996,34.582 L49.996,34.582 Z" id="Shape" fill="#000000"></path>
        <path d="M38,29 L38,27 C38,26.596 37.757,26.231 37.383,26.076 C37.009,25.922 36.58,26.007 36.293,26.293 L18.293,44.293 C18.007,44.579 17.921,45.009 18.076,45.383 C18.23,45.756 18.596,46 19,46 L21,46 C24.469,46 27.492,45.273 30,43.939 L30,59 C30,59.552 30.447,60 31,60 C31.553,60 32,59.552 32,59 L32,43 C32,42.896 31.97,42.801 31.941,42.706 C35.809,39.791 38,35.066 38,29 L38,29 Z M21.418,43.996 L35.996,29.418 C35.834,38.419 30.419,43.834 21.418,43.996 L21.418,43.996 Z" id="Shape" fill="#000000"></path>
        <path d="M31,22 C29.346,22 28,23.346 28,25 C28,26.654 29.346,28 31,28 C32.654,28 34,26.654 34,25 C34,23.346 32.654,22 31,22 L31,22 Z M31,26 C30.448,26 30,25.551 30,25 C30,24.449 30.448,24 31,24 C31.552,24 32,24.449 32,25 C32,25.551 31.552,26 31,26 L31,26 Z" id="Shape" fill="#000000"></path>
    </g>
</svg>