<?xml version="1.0" encoding="UTF-8" standalone="no"?>
<svg width="64px" height="64px" viewBox="0 0 64 64" version="1.1" xmlns="http://www.w3.org/2000/svg" xmlns:xlink="http://www.w3.org/1999/xlink">
    <!-- Generator: Sketch 3.7.2 (28276) - http://www.bohemiancoding.com/sketch -->
    <title>wea-sun</title>
    <desc>Created with Sketch.</desc>
    <defs></defs>
    <g id="64px-Line" stroke="none" stroke-width="1" fill="none" fill-rule="evenodd">
        <g id="wea-sun"></g>
        <path d="M31,50 C40.374,50 48,42.374 48,33 C48,23.626 40.374,16 31,16 C21.626,16 14,23.626 14,33 C14,42.374 21.626,50 31,50 L31,50 Z M31,18 C39.271,18 46,24.729 46,33 C46,41.271 39.271,48 31,48 C22.729,48 16,41.271 16,33 C16,24.729 22.729,18 31,18 L31,18 Z" id="Shape" fill="#000000"></path>
        <path d="M5,34 L11,34 C11.552,34 12,33.552 12,33 C12,32.448 11.552,32 11,32 L5,32 C4.448,32 4,32.448 4,33 C4,33.552 4.448,34 5,34 L5,34 Z" id="Shape" fill="#000000"></path>
        <path d="M51,34 L57,34 C57.552,34 58,33.552 58,33 C58,32.448 57.552,32 57,32 L51,32 C50.448,32 50,32.448 50,33 C50,33.552 50.448,34 51,34 L51,34 Z" id="Shape" fill="#000000"></path>
        <path d="M31,14 C31.552,14 32,13.552 32,13 L32,7 C32,6.448 31.552,6 31,6 C30.448,6 30,6.448 30,7 L30,13 C30,13.552 30.448,14 31,14 L31,14 Z" id="Shape" fill="#000000"></path>
        <path d="M32,59 L32,53 C32,52.448 31.552,52 31,52 C30.448,52 30,52.448 30,53 L30,59 C30,59.552 30.448,60 31,60 C31.552,60 32,59.552 32,59 L32,59 Z" id="Shape" fill="#000000"></path>
        <path d="M16.293,19.707 C16.488,19.902 16.744,20 17,20 C17.256,20 17.512,19.902 17.707,19.707 C18.098,19.316 18.098,18.684 17.707,18.293 L13.707,14.293 C13.316,13.902 12.684,13.902 12.293,14.293 C11.902,14.684 11.902,15.316 12.293,15.707 L16.293,19.707 L16.293,19.707 Z" id="Shape" fill="#000000"></path>
        <path d="M49,52 C49.256,52 49.512,51.902 49.707,51.707 C50.098,51.316 50.098,50.684 49.707,50.293 L45.707,46.293 C45.316,45.902 44.684,45.902 44.293,46.293 C43.902,46.684 43.902,47.316 44.293,47.707 L48.293,51.707 C48.488,51.902 48.744,52 49,52 L49,52 Z" id="Shape" fill="#000000"></path>
        <path d="M45,20 C45.256,20 45.512,19.902 45.707,19.707 L49.707,15.707 C50.098,15.316 50.098,14.684 49.707,14.293 C49.316,13.902 48.684,13.902 48.293,14.293 L44.293,18.293 C43.902,18.684 43.902,19.316 44.293,19.707 C44.488,19.902 44.744,20 45,20 L45,20 Z" id="Shape" fill="#000000"></path>
        <path d="M13.707,51.707 L17.707,47.707 C18.098,47.316 18.098,46.684 17.707,46.293 C17.316,45.902 16.684,45.902 16.293,46.293 L12.293,50.293 C11.902,50.684 11.902,51.316 12.293,51.707 C12.488,51.902 12.744,52 13,52 C13.256,52 13.512,51.902 13.707,51.707 L13.707,51.707 Z" id="Shape" fill="#000000"></path>
    </g>
</svg>