<?xml version="1.0" encoding="UTF-8" standalone="no"?>
<svg width="64px" height="64px" viewBox="0 0 64 64" version="1.1" xmlns="http://www.w3.org/2000/svg" xmlns:xlink="http://www.w3.org/1999/xlink">
    <!-- Generator: Sketch 3.7.2 (28276) - http://www.bohemiancoding.com/sketch -->
    <title>wea-night</title>
    <desc>Created with Sketch.</desc>
    <defs></defs>
    <g id="64px-Line" stroke="none" stroke-width="1" fill="none" fill-rule="evenodd">
        <g id="wea-night"></g>
        <path d="M47.588,30.009 C46.266,25.323 41.935,22 37,22 C30.935,22 26,26.935 26,33 C26,33.337 26.015,33.671 26.043,34 L26,34 C21.589,34 18,37.589 18,42 C18,46.411 21.589,50 26,50 L48,50 C53.514,50 58,45.514 58,40 C58,34.35 53.253,29.78 47.588,30.009 L47.588,30.009 Z M48,48 L26,48 C22.691,48 20,45.309 20,42 C20,38.691 22.691,36 26,36 C26.351,36 26.703,36.03 27.045,36.091 C27.373,36.148 27.708,36.038 27.939,35.799 C28.169,35.56 28.266,35.221 28.196,34.896 C28.066,34.292 28,33.654 28,33 C28,28.037 32.038,24 37,24 C41.226,24 44.91,26.977 45.813,31.172 C45.817,31.216 45.824,31.26 45.834,31.303 C45.95,31.805 46.43,32.133 46.94,32.07 C47.287,32.024 47.643,32.001 47.999,32.001 C52.41,32.001 55.999,35.59 55.999,40.001 C55.999,44.412 52.411,48 48,48 L48,48 Z" id="Shape" fill="#000000"></path>
        <path d="M14.086,36 C17.713,36 21.079,34.054 22.868,30.921 C23.034,30.631 23.044,30.277 22.895,29.979 C22.746,29.681 22.458,29.476 22.127,29.433 C18.113,28.92 15.086,25.51 15.086,21.5 C15.086,20.119 15.445,18.761 16.126,17.57 C16.292,17.28 16.302,16.926 16.153,16.628 C16.004,16.33 15.715,16.124 15.384,16.082 C14.955,16.027 14.519,16 14.087,16 C8.525,16 4.001,20.486 4.001,26 C4.001,31.514 8.525,36 14.086,36 L14.086,36 Z M13.719,18.008 C13.303,19.119 13.087,20.303 13.087,21.5 C13.087,25.98 16.105,29.862 20.322,31.094 C18.8,32.913 16.517,34 14.087,34 C9.628,34 6.001,30.411 6.001,26 C6,21.711 9.43,18.199 13.719,18.008 L13.719,18.008 Z" id="Shape" fill="#000000"></path>
    </g>
</svg>