<?xml version="1.0" encoding="UTF-8" standalone="no"?>
<svg width="64px" height="64px" viewBox="0 0 64 64" version="1.1" xmlns="http://www.w3.org/2000/svg" xmlns:xlink="http://www.w3.org/1999/xlink">
    <!-- Generator: Sketch 3.7.2 (28276) - http://www.bohemiancoding.com/sketch -->
    <title>wea-temp-high</title>
    <desc>Created with Sketch.</desc>
    <defs></defs>
    <g id="64px-Line" stroke="none" stroke-width="1" fill="none" fill-rule="evenodd">
        <g id="wea-temp-high"></g>
        <path d="M30,42.674 L30,13 C30,11.346 28.654,10 27,10 C25.346,10 24,11.346 24,13 L24,42.674 C21.581,43.821 20,46.28 20,49 C20,52.859 23.14,56 27,56 C30.86,56 34,52.859 34,49 C34,46.281 32.419,43.822 30,42.674 L30,42.674 Z M27,54 C24.243,54 22,51.757 22,49 C22,46.903 23.314,45.024 25.277,44.305 C25.699,44.184 26,43.795 26,43.344 L26,13 C26,12.448 26.449,12 27,12 C27.551,12 28,12.448 28,13 L28,43.344 C28,43.676 28.165,43.986 28.439,44.172 C28.525,44.231 28.62,44.275 28.717,44.303 C30.683,45.021 32,46.902 32,49 C32,51.757 29.757,54 27,54 L27,54 Z" id="Shape" fill="#000000"></path>
        <path d="M34,40.514 L34,13 C34,9.141 30.86,6 27,6 C23.14,6 20,9.141 20,13 L20,40.514 C17.451,42.613 16,45.678 16,49 C16,55.065 20.935,60 27,60 C33.065,60 38,55.065 38,49 C38,45.678 36.548,42.612 34,40.514 L34,40.514 Z M27,58 C22.038,58 18,53.963 18,49 C18,46.166 19.29,43.562 21.542,41.843 C21.824,41.661 22,41.347 22,41.003 L22,13 C22,10.243 24.243,8 27,8 C29.757,8 32,10.243 32,13 L32,41.01 C32,41.364 32.188,41.683 32.48,41.86 C34.718,43.58 36,46.177 36,49 C36,53.963 31.962,58 27,58 L27,58 Z" id="Shape" fill="#000000"></path>
        <path d="M45,36 L39,36 C38.448,36 38,36.447 38,37 C38,37.553 38.448,38 39,38 L45,38 C45.552,38 46,37.553 46,37 C46,36.447 45.552,36 45,36 L45,36 Z" id="Shape" fill="#000000"></path>
        <path d="M45,30 L39,30 C38.448,30 38,30.447 38,31 C38,31.553 38.448,32 39,32 L45,32 C45.552,32 46,31.553 46,31 C46,30.447 45.552,30 45,30 L45,30 Z" id="Shape" fill="#000000"></path>
        <path d="M45,24 L39,24 C38.448,24 38,24.447 38,25 C38,25.553 38.448,26 39,26 L45,26 C45.552,26 46,25.553 46,25 C46,24.447 45.552,24 45,24 L45,24 Z" id="Shape" fill="#000000"></path>
        <path d="M45,18 L39,18 C38.448,18 38,18.447 38,19 C38,19.553 38.448,20 39,20 L45,20 C45.552,20 46,19.553 46,19 C46,18.447 45.552,18 45,18 L45,18 Z" id="Shape" fill="#000000"></path>
        <path d="M45,12 L39,12 C38.448,12 38,12.447 38,13 C38,13.553 38.448,14 39,14 L45,14 C45.552,14 46,13.553 46,13 C46,12.447 45.552,12 45,12 L45,12 Z" id="Shape" fill="#000000"></path>
    </g>
</svg>