<?xml version="1.0" encoding="UTF-8" standalone="no"?>
<svg width="64px" height="64px" viewBox="0 0 64 64" version="1.1" xmlns="http://www.w3.org/2000/svg" xmlns:xlink="http://www.w3.org/1999/xlink">
    <!-- Generator: Sketch 3.7.2 (28276) - http://www.bohemiancoding.com/sketch -->
    <title>wea-night-rain</title>
    <desc>Created with Sketch.</desc>
    <defs></defs>
    <g id="64px-Line" stroke="none" stroke-width="1" fill="none" fill-rule="evenodd">
        <g id="wea-night-rain"></g>
        <path d="M47.588,22.009 C46.266,17.323 41.935,14 37,14 C30.935,14 26,18.935 26,25 C26,25.337 26.015,25.671 26.043,26 L26,26 C21.589,26 18,29.589 18,34 C18,38.411 21.589,42 26,42 L48,42 C53.514,42 58,37.514 58,32 C58,26.35 53.252,21.776 47.588,22.009 L47.588,22.009 Z M48,40 L26,40 C22.691,40 20,37.309 20,34 C20,30.691 22.691,28 26,28 C26.351,28 26.703,28.03 27.045,28.091 C27.375,28.146 27.708,28.038 27.939,27.799 C28.169,27.56 28.266,27.221 28.196,26.896 C28.066,26.292 28,25.654 28,25 C28,20.037 32.038,16 37,16 C41.226,16 44.91,18.977 45.813,23.172 C45.817,23.216 45.824,23.26 45.834,23.303 C45.95,23.806 46.432,24.136 46.94,24.07 C47.287,24.024 47.643,24.001 47.999,24.001 C52.41,24.001 55.999,27.59 55.999,32.001 C55.999,36.412 52.411,40 48,40 L48,40 Z" id="Shape" fill="#000000"></path>
        <path d="M14.086,28 C17.713,28 21.079,26.054 22.868,22.921 C23.034,22.631 23.044,22.277 22.895,21.979 C22.746,21.681 22.458,21.476 22.127,21.433 C18.113,20.92 15.086,17.51 15.086,13.5 C15.086,12.119 15.445,10.761 16.126,9.57 C16.292,9.28 16.302,8.926 16.153,8.628 C16.004,8.33 15.715,8.124 15.384,8.082 C14.955,8.027 14.519,8 14.087,8 C8.525,8 4.001,12.486 4.001,18 C4.001,23.514 8.525,28 14.086,28 L14.086,28 Z M13.719,10.008 C13.303,11.119 13.087,12.303 13.087,13.5 C13.087,17.98 16.105,21.862 20.322,23.094 C18.8,24.913 16.517,26 14.087,26 C9.628,26 6.001,22.411 6.001,18 C6,13.711 9.43,10.199 13.719,10.008 L13.719,10.008 Z" id="Shape" fill="#000000"></path>
        <path d="M40,54 L40,47 C40,46.6 39.762,46.238 39.394,46.081 C39.026,45.923 38.6,46 38.31,46.276 L33.189,51.155 C33.183,51.16 33.178,51.166 33.172,51.172 C32.416,51.928 32,52.932 32,54 C32,56.206 33.794,58 36,58 C38.206,58 40,56.206 40,54 L40,54 Z M34,54 C34,53.47 34.205,52.971 34.578,52.594 L38,49.334 L38,54 C38,55.103 37.103,56 36,56 C34.897,56 34,55.103 34,54 L34,54 Z" id="Shape" fill="#000000"></path>
    </g>
</svg>