<?xml version="1.0" encoding="UTF-8" standalone="no"?>
<svg width="64px" height="64px" viewBox="0 0 64 64" version="1.1" xmlns="http://www.w3.org/2000/svg" xmlns:xlink="http://www.w3.org/1999/xlink">
    <!-- Generator: Sketch 3.7.2 (28276) - http://www.bohemiancoding.com/sketch -->
    <title>wea-wind-umbrella</title>
    <desc>Created with Sketch.</desc>
    <defs></defs>
    <g id="64px-Line" stroke="none" stroke-width="1" fill="none" fill-rule="evenodd">
        <g id="wea-wind-umbrella"></g>
        <path d="M19.055,14.098 L33.773,28.82 L19.756,42.841 C18.261,44.337 15.652,44.336 14.159,42.841 C12.615,41.297 12.615,38.785 14.159,37.241 C14.55,36.85 14.55,36.218 14.159,35.827 C13.768,35.436 13.136,35.436 12.745,35.827 C10.422,38.15 10.422,41.931 12.745,44.255 C13.87,45.38 15.366,46 16.958,46 C18.549,46 20.045,45.38 21.17,44.255 L35.187,30.234 L49.905,44.956 C50.093,45.144 50.346,45.249 50.612,45.249 C50.878,45.249 51.132,45.144 51.319,44.956 C59.975,36.297 60.182,22.369 51.99,13.426 L52.721,12.695 C53.112,12.304 53.112,11.672 52.721,11.281 C52.33,10.89 51.698,10.89 51.307,11.281 L50.577,12.011 C46.361,8.142 40.944,6 35.187,6 C29.093,6 23.365,8.374 19.055,12.684 C18.664,13.074 18.664,13.707 19.055,14.098 L19.055,14.098 Z M35.187,8 C40.747,8 45.973,10.166 49.905,14.098 C57.783,21.979 58.012,34.658 50.595,42.818 L21.193,13.408 C25.03,9.913 29.962,8 35.187,8 L35.187,8 Z" id="Shape" fill="#000000"></path>
        <path d="M36,56 L13,56 C12.447,56 12,56.447 12,57 C12,57.553 12.447,58 13,58 L36,58 C40.411,58 44,54.411 44,50 C44,45.589 40.411,42 36,42 C31.589,42 28,45.589 28,50 C28,50.553 28.447,51 29,51 C29.553,51 30,50.553 30,50 C30,46.691 32.691,44 36,44 C39.309,44 42,46.691 42,50 C42,53.309 39.309,56 36,56 L36,56 Z" id="Shape" fill="#000000"></path>
        <path d="M5,30 L15,30 C17.757,30 20,27.757 20,25 C20,22.243 17.757,20 15,20 C12.243,20 10,22.243 10,25 C10,25.553 10.447,26 11,26 C11.553,26 12,25.553 12,25 C12,23.346 13.346,22 15,22 C16.654,22 18,23.346 18,25 C18,26.654 16.654,28 15,28 L5,28 C4.447,28 4,28.447 4,29 C4,29.553 4.447,30 5,30 L5,30 Z" id="Shape" fill="#000000"></path>
    </g>
</svg>