<?xml version="1.0" encoding="UTF-8" standalone="no"?>
<svg width="64px" height="64px" viewBox="0 0 64 64" version="1.1" xmlns="http://www.w3.org/2000/svg" xmlns:xlink="http://www.w3.org/1999/xlink">
    <!-- Generator: Sketch 3.7.2 (28276) - http://www.bohemiancoding.com/sketch -->
    <title>wea-bolt</title>
    <desc>Created with Sketch.</desc>
    <defs></defs>
    <g id="64px-Line" stroke="none" stroke-width="1" fill="none" fill-rule="evenodd">
        <g id="wea-bolt"></g>
        <path d="M21,36 L29.719,36 L24.031,58.757 C23.908,59.247 24.17,59.752 24.641,59.933 C24.759,59.979 24.88,60 25,60 C25.359,60 25.704,59.805 25.883,59.471 L41.883,29.471 C42.048,29.161 42.038,28.787 41.858,28.486 C41.678,28.185 41.352,28 41,28 L32.388,28 L39.949,5.316 C40.111,4.832 39.882,4.304 39.419,4.091 C38.956,3.878 38.405,4.049 38.144,4.485 L20.144,34.485 C19.958,34.794 19.954,35.179 20.131,35.492 C20.308,35.805 20.64,36 21,36 L21,36 Z M35.171,13.326 L30.052,28.683 C29.949,28.988 30.001,29.323 30.189,29.584 C30.377,29.846 30.679,30 31,30 L39.333,30 L27.94,51.362 L31.969,35.243 C32.044,34.944 31.977,34.628 31.787,34.385 C31.597,34.142 31.308,34 31,34 L22.767,34 L35.171,13.326 L35.171,13.326 Z" id="Shape" fill="#000000"></path>
    </g>
</svg>