<?xml version="1.0" encoding="UTF-8" standalone="no"?>
<svg width="64px" height="64px" viewBox="0 0 64 64" version="1.1" xmlns="http://www.w3.org/2000/svg" xmlns:xlink="http://www.w3.org/1999/xlink">
    <!-- Generator: Sketch 3.7.2 (28276) - http://www.bohemiancoding.com/sketch -->
    <title>wea-snow-3</title>
    <desc>Created with Sketch.</desc>
    <defs></defs>
    <g id="64px-Line" stroke="none" stroke-width="1" fill="none" fill-rule="evenodd">
        <g id="wea-snow-3"></g>
        <path d="M35.895,49.553 C35.647,49.058 35.048,48.858 34.553,49.106 L32,50.382 L32,48 C32,47.448 31.553,47 31,47 C30.447,47 30,47.448 30,48 L30,50.382 L27.447,49.106 C26.953,48.858 26.353,49.059 26.105,49.553 C25.858,50.047 26.058,50.648 26.552,50.895 L28.763,52 L26.552,53.105 C26.058,53.352 25.858,53.953 26.105,54.447 C26.281,54.798 26.633,55 27.001,55 C27.151,55 27.304,54.966 27.447,54.895 L30,53.619 L30,56 C30,56.552 30.447,57 31,57 C31.553,57 32,56.552 32,56 L32,53.618 L34.553,54.894 C34.697,54.966 34.849,54.999 34.999,54.999 C35.366,54.999 35.719,54.797 35.895,54.446 C36.142,53.952 35.942,53.351 35.448,53.104 L33.236,52 L35.447,50.895 C35.941,50.647 36.142,50.047 35.895,49.553 L35.895,49.553 Z" id="Shape" fill="#000000"></path>
        <path d="M14.105,54.447 C14.281,54.798 14.633,55 15.001,55 C15.151,55 15.304,54.966 15.447,54.895 L18,53.619 L18,56 C18,56.552 18.447,57 19,57 C19.553,57 20,56.552 20,56 L20,53.618 L22.553,54.894 C22.697,54.966 22.849,54.999 22.999,54.999 C23.366,54.999 23.719,54.797 23.895,54.446 C24.142,53.952 23.942,53.351 23.448,53.104 L21.236,52 L23.447,50.895 C23.941,50.648 24.141,50.047 23.894,49.553 C23.646,49.058 23.047,48.858 22.552,49.106 L20,50.382 L20,48 C20,47.448 19.553,47 19,47 C18.447,47 18,47.448 18,48 L18,50.382 L15.447,49.106 C14.953,48.858 14.353,49.059 14.105,49.553 C13.858,50.047 14.058,50.648 14.552,50.895 L16.763,52 L14.552,53.105 C14.059,53.353 13.858,53.953 14.105,54.447 L14.105,54.447 Z" id="Shape" fill="#000000"></path>
        <path d="M47.895,49.553 C47.647,49.058 47.048,48.858 46.553,49.106 L44,50.382 L44,48 C44,47.448 43.553,47 43,47 C42.447,47 42,47.448 42,48 L42,50.382 L39.447,49.106 C38.953,48.858 38.353,49.059 38.105,49.553 C37.858,50.047 38.058,50.648 38.552,50.895 L40.763,52 L38.552,53.105 C38.058,53.352 37.858,53.953 38.105,54.447 C38.281,54.798 38.633,55 39.001,55 C39.151,55 39.304,54.966 39.447,54.895 L42,53.619 L42,56 C42,56.552 42.447,57 43,57 C43.553,57 44,56.552 44,56 L44,53.618 L46.553,54.894 C46.697,54.966 46.849,54.999 46.999,54.999 C47.366,54.999 47.719,54.797 47.895,54.446 C48.142,53.952 47.942,53.351 47.448,53.104 L45.236,52 L47.447,50.895 C47.941,50.647 48.142,50.047 47.895,49.553 L47.895,49.553 Z" id="Shape" fill="#000000"></path>
        <path d="M15.728,42 L43,42 C50.168,42 56,36.139 56,28.936 C56,21.733 50.168,15.872 43,15.872 C42.65,15.872 42.301,15.886 41.952,15.914 C39.743,9.951 34.128,6.001 27.727,6.001 C19.356,6.001 12.545,12.846 12.545,21.259 C12.545,21.825 12.576,22.393 12.638,22.954 C8.687,24.272 5.999,27.963 5.999,32.226 C6,37.615 10.363,42 15.728,42 L15.728,42 Z M13.978,24.652 C14.493,24.531 14.826,24.031 14.736,23.509 C14.61,22.772 14.547,22.014 14.547,21.258 C14.547,13.947 20.46,8 27.729,8 C33.528,8 38.585,11.737 40.313,17.298 C40.47,17.803 40.993,18.097 41.506,17.972 C41.998,17.905 42.501,17.87 43.001,17.87 C49.066,17.87 54.001,22.833 54.001,28.934 C54.001,35.035 49.065,40 43,40 L15.728,40 C11.467,40 8,36.512 8,32.226 C8,28.586 10.458,25.472 13.978,24.652 L13.978,24.652 Z" id="Shape" fill="#000000"></path>
    </g>
</svg>